<?xml version="1.0" encoding="UTF-8" standalone="no"?>
<svg
   height="16.000002"
   viewBox="0 0 16.00001 16.000002"
   width="16.00001"
   version="1.1"
   id="svg5248"
   xml:space="preserve"
   xmlns="http://www.w3.org/2000/svg"
   xmlns:svg="http://www.w3.org/2000/svg"><defs
     id="defs5252"><style
       id="style1">
      .cls-1 {
        fill: #a4caee;
      }

      .cls-2 {
        fill: #438de6;
      }

      .cls-3, .cls-4, .cls-5 {
        fill: none;
      }

      .cls-4, .cls-5 {
        stroke: #438de6;
        stroke-miterlimit: 10;
        stroke-width: 2px;
      }

      .cls-5 {
        stroke-linecap: round;
      }

      .cls-6 {
        fill: url(#linear-gradient);
      }
    </style><style
       id="style1-2">
      .cls-1 {
        fill: #a4caee;
      }

      .cls-2, .cls-3 {
        fill: #438de6;
      }

      .cls-4 {
        fill: none;
      }

      .cls-3 {
        stroke: #438de6;
        stroke-miterlimit: 10;
        stroke-width: 1.9px;
      }

      .cls-5 {
        fill: url(#linear-gradient);
      }
    </style><style
       id="style1-0">
      .cls-1 {
        fill: #a4caee;
      }

      .cls-2, .cls-3 {
        fill: #438de6;
      }

      .cls-3 {
        stroke-width: .58px;
      }

      .cls-3, .cls-4 {
        stroke: #438de6;
        stroke-miterlimit: 10;
      }

      .cls-5, .cls-4 {
        fill: none;
      }

      .cls-4 {
        stroke-linecap: round;
        stroke-width: 2px;
      }

      .cls-6 {
        fill: url(#linear-gradient);
      }
    </style><style
       id="style1-6">
      .cls-1 {
        fill: #a4caee;
      }

      .cls-2 {
        fill: #438de6;
      }

      .cls-3, .cls-4, .cls-5 {
        fill: none;
      }

      .cls-4 {
        stroke-linecap: round;
      }

      .cls-4, .cls-5 {
        stroke: #438de6;
        stroke-miterlimit: 10;
        stroke-width: 4px;
      }

      .cls-6 {
        fill: url(#linear-gradient);
      }
    </style></defs><linearGradient
     id="a"
     gradientUnits="userSpaceOnUse"
     x1="11.999989"
     x2="115.99999"
     y1="64"
     y2="64"><stop
       offset="0"
       stop-color="#3d3846"
       id="stop5214" /><stop
       offset="0.05"
       stop-color="#77767b"
       id="stop5216" /><stop
       offset="0.1"
       stop-color="#5e5c64"
       id="stop5218" /><stop
       offset="0.899999"
       stop-color="#504e56"
       id="stop5220" /><stop
       offset="0.95"
       stop-color="#77767b"
       id="stop5222" /><stop
       offset="1"
       stop-color="#3d3846"
       id="stop5224" /></linearGradient><linearGradient
     id="b"
     gradientUnits="userSpaceOnUse"
     x1="12"
     x2="112.04102"
     y1="60"
     y2="80.988281"><stop
       offset="0"
       stop-color="#77767b"
       id="stop5227" /><stop
       offset="0.384443"
       stop-color="#9a9996"
       id="stop5229" /><stop
       offset="0.720567"
       stop-color="#77767b"
       id="stop5231" /><stop
       offset="1"
       stop-color="#68666f"
       id="stop5233" /></linearGradient><path
     id="rect1135"
     style="fill:#3483e2;fill-opacity:1;stroke-width:0.615385;stroke-linecap:round;stop-color:#000000"
     d="M 1.535162,0 C 0.684753,0 9e-6,0.686156 9e-6,1.538458 v 11.47297 c 0,0.852302 0.684744,1.538458 1.535153,1.538458 h 12.929687 c 0.850416,0 1.53516,-0.686156 1.53516,-1.538458 V 3.683775 c 2e-6,-1.019606 -0.824717,-1.84616 -1.842059,-1.846159 H 8.9467445 C 8.5694239,1.837615 8.224311,1.624506 8.0546391,1.286736 L 7.8233564,0.826316 C 7.5688492,0.319662 7.0511812,0 6.4852018,0 Z" /><path
     id="path2"
     style="fill:#8db2de;fill-opacity:1;stroke-width:0.615385;stroke-linecap:round;stop-color:#000000"
     d="m 8.304389,4.302615 c -0.4225476,0 -0.8042451,0.169447 -1.0813564,0.444491 -0.34984,0.347241 -0.828488,0.786279 -1.3281205,0.786279 H 1.535153 C 0.684744,5.533385 0,6.219541 0,7.071843 v 8.928159 H 16 V 7.994926 7.071843 5.841073 C 16,4.988771 15.315256,4.302615 14.46484,4.302615 Z" /><path
     id="rect1586"
     style="fill:#99c1f1;fill-opacity:1;stroke-width:0.615385;stroke-linecap:round;stop-color:#000000"
     d="m 7.5606835,4.302615 c -0.4225476,0 -0.8042451,0.169447 -1.0813564,0.444491 -0.34984,0.347241 -0.828488,0.786279 -1.3281205,0.786279 H 1.535153 C 0.684744,5.533385 0,6.219541 0,7.071843 v 7.775932 H 16 V 7.994926 7.071843 5.841073 C 16,4.988771 15.315256,4.302615 14.46484,4.302615 Z" /><g
     id="surface105959"
     transform="matrix(0.68165769,0,0,0.68165769,2.5427615,5.4850528)"
     style="fill:#438de6;fill-opacity:1"><path
       style="fill:#438de6;fill-opacity:1;fill-rule:nonzero;stroke:none"
       d="M 3,2.007812 C 2.46875,2.003906 1.960938,2.214844 1.589844,2.59375 c -0.375,0.375 -0.582032,0.882812 -0.578125,1.414062 l 0.00391,7.550782 c 0.015625,1.539062 2.160156,2.015625 2.847656,0.636718 l 1.085938,-2.175781 h 6.179687 l 1.085938,2.175781 c 0.6875,1.378907 2.765625,0.902344 2.785156,-0.636718 l -0.01953,-7.550782 c 0,-1.109374 -0.890625,-2 -2,-2 z m 1,1.011719 h 2 v 2 h 2 v 2 H 6 v 2 H 4 v -2 H 2 v -2 h 2 z m 6.492188,0.527344 c 0.554687,0 1,0.449219 1,1 0,0.554687 -0.445313,1 -1,1 -0.550782,0 -1,-0.445313 -1,-1 0,-0.550781 0.449218,-1 1,-1 z m 2,3 c 0.554687,0 1,0.449219 1,1 0,0.554687 -0.445313,1 -1,1 -0.550782,0 -1,-0.445313 -1,-1 0,-0.550781 0.449218,-1 1,-1 z m 0,0"
       id="path2-8" /></g></svg>
