<?xml version="1.0" encoding="UTF-8" standalone="no"?>
<svg
   height="16.000002"
   viewBox="0 0 16.00001 16.000002"
   width="16.00001"
   version="1.1"
   id="svg5248"
   xml:space="preserve"
   xmlns="http://www.w3.org/2000/svg"
   xmlns:svg="http://www.w3.org/2000/svg"><defs
     id="defs5252"><style
       id="style1">
      .cls-1 {
        fill: #a4caee;
      }

      .cls-2 {
        fill: #438de6;
      }

      .cls-3, .cls-4, .cls-5 {
        fill: none;
      }

      .cls-4, .cls-5 {
        stroke: #438de6;
        stroke-miterlimit: 10;
        stroke-width: 2px;
      }

      .cls-5 {
        stroke-linecap: round;
      }

      .cls-6 {
        fill: url(#linear-gradient);
      }
    </style><style
       id="style1-5">
      .cls-1 {
        fill: #a4caee;
      }

      .cls-2 {
        fill: #438de6;
      }

      .cls-3, .cls-4, .cls-5 {
        fill: none;
      }

      .cls-4, .cls-5 {
        stroke: #438de6;
        stroke-miterlimit: 10;
        stroke-width: 2px;
      }

      .cls-5 {
        stroke-linecap: round;
      }

      .cls-6 {
        fill: url(#linear-gradient);
      }
    </style><style
       id="style1-2">
      .cls-1 {
        fill: #a4caee;
      }

      .cls-2, .cls-3 {
        fill: #438de6;
      }

      .cls-4 {
        fill: none;
      }

      .cls-3 {
        stroke: #438de6;
        stroke-miterlimit: 10;
        stroke-width: 1.9px;
      }

      .cls-5 {
        fill: url(#linear-gradient);
      }
    </style><style
       id="style1-1">
      .cls-1 {
        fill: #a4caee;
      }

      .cls-2 {
        fill: #438de6;
      }

      .cls-3, .cls-4, .cls-5 {
        fill: none;
      }

      .cls-4, .cls-5 {
        stroke: #438de6;
        stroke-miterlimit: 10;
        stroke-width: 2px;
      }

      .cls-5 {
        stroke-linecap: round;
      }

      .cls-6 {
        fill: url(#linear-gradient);
      }
    </style><style
       id="style1-2-3">
      .cls-1 {
        fill: #a4caee;
      }

      .cls-2, .cls-3 {
        fill: #438de6;
      }

      .cls-4 {
        fill: none;
      }

      .cls-3 {
        stroke: #438de6;
        stroke-miterlimit: 10;
        stroke-width: 1.9px;
      }

      .cls-5 {
        fill: url(#linear-gradient);
      }
    </style><style
       id="style1-0">
      .cls-1 {
        fill: #a4caee;
      }

      .cls-2, .cls-3 {
        fill: #438de6;
      }

      .cls-3 {
        stroke-width: .58px;
      }

      .cls-3, .cls-4 {
        stroke: #438de6;
        stroke-miterlimit: 10;
      }

      .cls-5, .cls-4 {
        fill: none;
      }

      .cls-4 {
        stroke-linecap: round;
        stroke-width: 2px;
      }

      .cls-6 {
        fill: url(#linear-gradient);
      }
    </style></defs><linearGradient
     id="a"
     gradientUnits="userSpaceOnUse"
     x1="11.999989"
     x2="115.99999"
     y1="64"
     y2="64"><stop
       offset="0"
       stop-color="#3d3846"
       id="stop5214" /><stop
       offset="0.05"
       stop-color="#77767b"
       id="stop5216" /><stop
       offset="0.1"
       stop-color="#5e5c64"
       id="stop5218" /><stop
       offset="0.899999"
       stop-color="#504e56"
       id="stop5220" /><stop
       offset="0.95"
       stop-color="#77767b"
       id="stop5222" /><stop
       offset="1"
       stop-color="#3d3846"
       id="stop5224" /></linearGradient><linearGradient
     id="b"
     gradientUnits="userSpaceOnUse"
     x1="12"
     x2="112.04102"
     y1="60"
     y2="80.988281"><stop
       offset="0"
       stop-color="#77767b"
       id="stop5227" /><stop
       offset="0.384443"
       stop-color="#9a9996"
       id="stop5229" /><stop
       offset="0.720567"
       stop-color="#77767b"
       id="stop5231" /><stop
       offset="1"
       stop-color="#68666f"
       id="stop5233" /></linearGradient><path
     id="rect1135"
     style="fill:#3483e2;fill-opacity:1;stroke-width:0.615385;stroke-linecap:round;stop-color:#000000"
     d="M 1.535162,0 C 0.684753,0 9e-6,0.686156 9e-6,1.538458 v 11.47297 c 0,0.852302 0.684744,1.538458 1.535153,1.538458 h 12.929687 c 0.850416,0 1.53516,-0.686156 1.53516,-1.538458 V 3.683775 c 2e-6,-1.019606 -0.824717,-1.84616 -1.842059,-1.846159 H 8.9467445 C 8.5694239,1.837615 8.224311,1.624506 8.0546391,1.286736 L 7.8233564,0.826316 C 7.5688492,0.319662 7.0511812,0 6.4852018,0 Z" /><path
     id="path2"
     style="fill:#8db2de;fill-opacity:1;stroke-width:0.615385;stroke-linecap:round;stop-color:#000000"
     d="m 8.304389,4.302615 c -0.4225476,0 -0.8042451,0.169447 -1.0813564,0.444491 -0.34984,0.347241 -0.828488,0.786279 -1.3281205,0.786279 H 1.535153 C 0.684744,5.533385 0,6.219541 0,7.071843 v 8.928159 H 16 V 7.994926 7.071843 5.841073 C 16,4.988771 15.315256,4.302615 14.46484,4.302615 Z" /><path
     id="rect1586"
     style="fill:#99c1f1;fill-opacity:1;stroke-width:0.615385;stroke-linecap:round;stop-color:#000000"
     d="m 7.5606835,4.302615 c -0.4225476,0 -0.8042451,0.169447 -1.0813564,0.444491 -0.34984,0.347241 -0.828488,0.786279 -1.3281205,0.786279 H 1.535153 C 0.684744,5.533385 0,6.219541 0,7.071843 v 7.775932 H 16 V 7.994926 7.071843 5.841073 C 16,4.988771 15.315256,4.302615 14.46484,4.302615 Z" /><g
     id="g4"
     transform="matrix(0.23437499,0,0,0.23437499,29.930945,8.6061938)"><g
       id="g4656"
       transform="matrix(0.15686275,0,0,0.15686275,-120.90537,-18.485449)"
       style="fill:#438de6;fill-opacity:1"><path
         fill="#ffffff"
         d="m 153,274.175 c -56.243,0 -102,-45.757 -102,-102 0,-56.243 45.757,-102 102,-102 36.292,0 70.139,19.53 88.331,50.968 l -44.143,25.544 C 188.083,130.951 171.15,121.175 153,121.175 c -28.122,0 -51,22.878 -51,51 0,28.121 22.878,51 51,51 18.152,0 35.085,-9.776 44.191,-25.515 l 44.143,25.543 c -18.192,31.441 -52.04,50.972 -88.334,50.972 z"
         id="path4654"
         style="fill:#438de6;fill-opacity:1" /></g><g
       id="g4660"
       transform="matrix(0.15686275,0,0,0.15686275,-120.90537,-18.485449)"
       style="fill:#438de6;fill-opacity:1"><polygon
         fill="#ffffff"
         points="232.334,189.175 243.666,189.175 243.666,177.841 255,177.841 255,166.508 243.666,166.508 243.666,155.175 232.334,155.175 232.334,166.508 221,166.508 221,177.841 232.334,177.841 "
         id="polygon4658"
         style="fill:#438de6;fill-opacity:1" /></g><g
       id="g4664"
       transform="matrix(0.15686275,0,0,0.15686275,-120.90537,-18.485449)"
       style="fill:#438de6;fill-opacity:1"><polygon
         fill="#ffffff"
         points="274.834,189.175 286.166,189.175 286.166,177.841 297.5,177.841 297.5,166.508 286.166,166.508 286.166,155.175 274.834,155.175 274.834,166.508 263.5,166.508 263.5,177.841 274.834,177.841 "
         id="polygon4662"
         style="fill:#438de6;fill-opacity:1" /></g></g></svg>
