<?xml version="1.0" encoding="UTF-8" standalone="no"?>
<!-- Created with Inkscape (http://www.inkscape.org/) -->

<svg
   width="48"
   height="48"
   viewBox="0 0 48 48"
   version="1.1"
   id="svg1"
   xmlns="http://www.w3.org/2000/svg"
   xmlns:svg="http://www.w3.org/2000/svg">
  <defs
     id="defs1" />
  <path
     style="display:inline;overflow:visible;visibility:visible;fill:#000000;fill-opacity:1;fill-rule:nonzero;stroke:none;stroke-width:1.50268;marker:none;enable-background:accumulate"
     id="path2317"
     d="M 19.031267,0 V 8.9999433 H 14.250043 L 23.531237,19.499856 32.812433,8.9999433 H 28.03121 V 0 Z m 3.328078,20.999887 c -0.259087,0 -0.421792,0.442201 -0.421792,0.984351 v 3.421852 c -1.044049,0.237543 -2.027327,0.66353 -2.90623,1.21872 l -2.437496,-2.43744 c -0.383244,-0.383244 -0.800954,-0.558421 -0.984356,-0.37474 l -2.296841,2.296841 c -0.183685,0.183686 -0.0057,0.601168 0.37474,0.984412 l 2.437497,2.43744 c -0.555016,0.87896 -0.981007,1.862181 -1.218716,2.90623 h -3.421852 c -0.541981,0 -0.984409,0.162709 -0.984409,0.421792 v 3.281197 c 0,0.259086 0.442201,0.421791 0.984409,0.421791 h 3.421852 c 0.237543,1.044049 0.66353,2.027327 1.21872,2.90623 l -2.437497,2.437497 c -0.383244,0.383244 -0.558422,0.800954 -0.37474,0.984355 l 2.296841,2.296842 c 0.183685,0.183118 0.601111,0.0057 0.984352,-0.37474 l 2.437496,-2.437497 c 0.878907,0.55502 1.862181,0.98101 2.90623,1.21872 v 3.421852 c 0,0.54198 0.162709,0.984408 0.421796,0.984408 h 3.281249 c 0.259087,0 0.421792,-0.442201 0.421792,-0.984408 V 43.59374 c 1.04411,-0.237543 2.027327,-0.66353 2.906234,-1.21872 l 2.437496,2.437497 c 0.383241,0.383244 0.801007,0.558421 0.984409,0.37474 l 2.296841,-2.296842 c 0.183118,-0.183118 0.0057,-0.601111 -0.37474,-0.984355 l -2.437501,-2.437497 c 0.55502,-0.878903 0.981011,-1.862181 1.218777,-2.90623 h 3.421852 c 0.541981,0 0.984352,-0.162708 0.984352,-0.421791 v -3.281197 c 0,-0.259087 -0.442201,-0.421792 -0.984352,-0.421792 h -3.421852 c -0.237543,-1.044049 -0.663587,-2.02727 -1.218777,-2.90623 l 2.437501,-2.43744 c 0.383244,-0.383244 0.558421,-0.80101 0.37474,-0.984412 L 32.390529,23.81263 c -0.183686,-0.183685 -0.601165,-0.0057 -0.984409,0.37474 l -2.437496,2.437444 C 28.089721,26.06979 27.1065,25.643856 26.062394,25.40609 v -3.421852 c 0,-0.54198 -0.162709,-0.984351 -0.421792,-0.984351 z m 1.640625,9.328021 c 2.292933,0 4.171835,1.878962 4.171835,4.171892 0,2.292877 -1.878902,4.171838 -4.171835,4.171838 -2.292873,0 -4.171835,-1.878961 -4.171835,-4.171838 0,-2.29293 1.878962,-4.171892 4.171835,-4.171892 z" />
</svg>
