<?xml version="1.0" encoding="UTF-8" standalone="no"?>
<svg
   height="16px"
   viewBox="0 0 16 16"
   width="16px"
   version="1.1"
   id="svg15572"
   xmlns="http://www.w3.org/2000/svg"
   xmlns:svg="http://www.w3.org/2000/svg">
  <defs
     id="defs15576" />
  <path
     d="M 6.2557745,15.999515 5.9122445,1.426822 q -1.500234,0.5623525 -2.343527,1.7599985 -0.833884,1.1981155 -0.833884,2.9792905 0,0.406119 0.04188,0.6668225 0.05177,0.249883 0.104,0.4061195 0.05224,0.14588 0.09412,0.2291765 0.05176,0.083293 0.05176,0.1458795 -0.552,0 -0.978823,-0.1039995 Q 1.6204765,7.395286 1.3287095,7.1557565 1.0473005,6.9167 0.8910675,6.520464 0.7451835,6.125171 0.7451835,5.541641 q 0,-0.708232 0.301647,-1.395762 Q 1.3593005,3.45882 1.8905935,2.8437605 2.4322405,2.2296445 3.1512975,1.708705 3.8807095,1.1877625 4.7032965,0.8127055 5.5362375,0.427293 6.4322365,0.219293 7.3385905,0 8.2345905,0 q 0.239527,0 0.437643,0.010365 0.208,0.010365 0.416,0.031065 L 9.2760005,13.16612 13.765407,0.1035465 h 1.48941 L 9.3282335,16 h -3.072937 z"
     fill="#ffffff"
     id="path2018"
     style="fill:#000000;fill-opacity:1;stroke-width:0.470587" />
</svg>
