<?xml version="1.0" encoding="UTF-8" standalone="no"?>
<svg
   height="16"
   viewBox="0 0 16 16"
   width="16"
   version="1.1"
   id="svg15572"
   xml:space="preserve"
   xmlns:xlink="http://www.w3.org/1999/xlink"
   xmlns="http://www.w3.org/2000/svg"
   xmlns:svg="http://www.w3.org/2000/svg"><defs
     id="defs15576"><mask
       id="holes"><rect
         x="-60"
         y="-60"
         width="120"
         height="120"
         fill="#ffffff"
         id="rect1240" /><circle
         id="hole"
         cy="-40"
         r="3"
         cx="0" /><use
         xlink:href="#hole"
         transform="rotate(72)"
         id="use1243" /><use
         xlink:href="#hole"
         transform="rotate(144)"
         id="use1245" /><use
         xlink:href="#hole"
         transform="rotate(-144)"
         id="use1247" /><use
         xlink:href="#hole"
         transform="rotate(-72)"
         id="use1249" /></mask><mask
       id="holes-3"><rect
         x="-60"
         y="-60"
         width="120"
         height="120"
         fill="#ffffff"
         id="rect4455" /><circle
         id="hole-6"
         cy="-40"
         r="3"
         cx="0" /><use
         xlink:href="#hole-6"
         transform="rotate(72)"
         id="use4458" /><use
         xlink:href="#hole-6"
         transform="rotate(144)"
         id="use4460" /><use
         xlink:href="#hole-6"
         transform="rotate(-144)"
         id="use4462" /><use
         xlink:href="#hole-6"
         transform="rotate(-72)"
         id="use4464" /></mask><mask
       id="holes-36"><rect
         x="-60"
         y="-60"
         width="120"
         height="120"
         fill="#ffffff"
         id="rect946" /><circle
         id="hole-7"
         cy="-40"
         r="3"
         cx="0" /><use
         xlink:href="#hole-7"
         transform="rotate(72)"
         id="use949" /><use
         xlink:href="#hole-7"
         transform="rotate(144)"
         id="use951" /><use
         xlink:href="#hole-7"
         transform="rotate(-144)"
         id="use953" /><use
         xlink:href="#hole-7"
         transform="rotate(-72)"
         id="use955" /></mask><mask
       id="holes-9"><rect
         x="-60"
         y="-60"
         width="120"
         height="120"
         fill="#ffffff"
         id="rect4023" /><circle
         id="hole-3"
         cy="-40"
         r="3"
         cx="0" /><use
         xlink:href="#hole-3"
         transform="rotate(72)"
         id="use4026" /><use
         xlink:href="#hole-3"
         transform="rotate(144)"
         id="use4028" /><use
         xlink:href="#hole-3"
         transform="rotate(-144)"
         id="use4030" /><use
         xlink:href="#hole-3"
         transform="rotate(-72)"
         id="use4032" /></mask><mask
       id="holes-1"><rect
         x="-60"
         y="-60"
         width="120"
         height="120"
         fill="#ffffff"
         id="rect5879" /><circle
         id="hole-8"
         cy="-40"
         r="3"
         cx="0" /><use
         xlink:href="#hole-8"
         transform="rotate(72)"
         id="use5882" /><use
         xlink:href="#hole-8"
         transform="rotate(144)"
         id="use5884" /><use
         xlink:href="#hole-8"
         transform="rotate(-144)"
         id="use5886" /><use
         xlink:href="#hole-8"
         transform="rotate(-72)"
         id="use5888" /></mask></defs><g
     id="g18"
     transform="matrix(0.01560079,0,0,0.01560054,0.61355235,0.61359436)"
     style="display:inline"><path
       id="path2"
       style="fill:#000000;fill-opacity:1"
       d="m 473.51085,111.58301 c -199.7998,0 -362.01588,162.21609 -362.01588,362.01589 0,199.7998 162.21608,362.01588 362.01588,362.01588 199.7998,0 361.97737,-162.21608 361.97737,-362.01588 0,-199.7998 -162.17757,-362.01589 -361.97737,-362.01589 z m 150.00552,106.02444 c 58.49994,0 105.98593,47.48599 105.98593,105.98593 0,58.49994 -47.48599,106.02444 -105.98593,106.02444 -58.49994,0 -106.02444,-47.5245 -106.02444,-106.02444 0,-58.49994 47.5245,-105.98593 106.02444,-105.98593 z" /><path
       fill="#000080"
       d="m 941.5,111.5 c 0,-58.5 -47.5,-106 -106,-106 -58.5,0 -106,47.5 -106,106 0,58.5 47.5,106 106,106 58.5,0 106,-47.4 106,-106"
       id="path6"
       style="fill:#000000;fill-opacity:1" /><path
       fill="none"
       stroke="#808080"
       stroke-width="10.8612"
       stroke-miterlimit="10"
       stroke-dasharray="40.8475"
       d="m 890.6,261 c 33.5,65.8 51,138.6 51,212.5 0,258.4 -209.7,468.1 -468.1,468.1 C 215.1,941.6 5.4,731.9 5.4,473.5 5.4,215.1 215.1,5.4 473.5,5.4 c 83.1,0 164.6,22.1 236.2,63.9"
       id="path16"
       style="stroke:#000000;stroke-width:10.8772;stroke-dasharray:40.9078;stroke-dashoffset:0;stroke-opacity:1" /></g></svg>
