<?xml version="1.0" encoding="UTF-8" standalone="no"?>
<svg
   height="16"
   viewBox="0 0 16 16"
   width="16"
   version="1.1"
   id="svg4"
   xmlns="http://www.w3.org/2000/svg"
   xmlns:svg="http://www.w3.org/2000/svg">
  <defs
     id="defs8" />
  <path
     fill="#d9272e"
     d="M 8,0 C 3.581627,0 0,3.581627 0,8 c 0,4.418373 3.581627,8 8,8 4.418373,0 8,-3.581627 8,-8 C 16,3.581627 12.418373,0 8,0 Z m 4.152739,10.828998 c 0,0.137244 -0.11068,0.247925 -0.247924,0.247925 h -1.044826 c -0.137244,0 -0.247925,-0.110681 -0.247925,-0.247925 V 7.610404 c 0,-0.026563 -0.03099,-0.039845 -0.05313,-0.022137 l -2.21361,2.213614 c -0.190371,0.1903707 -0.504704,0.1903707 -0.695075,0 L 5.436635,7.5882673 c -0.01771,-0.01771 -0.05313,-0.00443 -0.05313,0.022137 v 3.2185937 c 0,0.137244 -0.11068,0.247925 -0.247924,0.247925 H 4.090755 c -0.137244,0 -0.247925,-0.110681 -0.247925,-0.247925 V 5.1710017 c 0,-0.137244 0.110681,-0.2479247 0.247925,-0.2479247 h 0.717211 c 0.12839,0 0.256779,0.053127 0.349751,0.1460983 L 7.911452,7.822911 c 0.0487,0.048699 0.123963,0.048699 0.172662,0 L 10.83785,5.0691753 C 10.93082,4.9762033 11.054784,4.923077 11.187601,4.923077 h 0.717211 c 0.137244,0 0.247924,0.1106807 0.247924,0.2479247 z"
     id="path1"
     style="fill:#000000;fill-opacity:1;stroke-width:0.0442723" />
</svg>
