<?xml version="1.0" encoding="UTF-8" standalone="no"?>
<svg
   height="16px"
   viewBox="0 0 16 16"
   width="16px"
   version="1.1"
   id="svg15572"
   xmlns="http://www.w3.org/2000/svg"
   xmlns:svg="http://www.w3.org/2000/svg">
  <defs
     id="defs15576" />
  <path
     id="path8882"
     style="fill:#000000;fill-opacity:1;stroke-width:1"
     d="m 4.354453,8.0909377 8.15039,0.0039 c 0.23552,1.2e-4 0.424803,0.190267 0.424803,0.4257873 0,0.2355207 -0.189283,0.4249187 -0.424803,0.4248047 l -8.15039,-0.0039 C 4.118933,8.941409 3.929646,8.7522387 3.929646,8.516719 c 0,-0.2355203 0.189284,-0.4258953 0.424807,-0.4257813 z M 10.512656,5.480959 c 0.235517,-9.8e-5 0.424804,0.189285 0.424804,0.424805 0,0.23552 -0.189284,0.425684 -0.424804,0.425781 l -4.166016,10e-4 C 6.111123,6.332641 5.921833,6.143261 5.921833,5.907741 c 0,-0.235521 0.18929,-0.42471 0.424807,-0.424805 z M 2.46875,0 C 1.377551,0 0.5,0.877553 0.5,1.96875 v 12.0625 C 0.5,15.122446 1.377551,16 2.46875,16 H 14.5 c 0.553999,0 1,-0.446004 1,-1 V 4 c 0,-0.553998 -0.446001,-1 -1,-1 h -12 c -0.553999,0 -1,-0.446002 -1,-1 0,-0.553998 0.446001,-1 1,-1 h 12 c 0,-0.558558 -0.441441,-1 -1,-1 z m 0.889974,4 h 10.141927 c 0.553999,0 1,0.446001 1,1 v 8.998698 c 0,0.553999 -0.446001,1 -1,1 H 3.358724 c -0.553999,0 -1,-0.446001 -1,-1 V 5 c 0,-0.553999 0.446001,-1 1,-1 z" />
</svg>
