<?xml version="1.0" encoding="UTF-8" standalone="no"?>
<!-- Created with Inkscape (http://www.inkscape.org/) -->

<svg
   width="16"
   height="16"
   viewBox="0 0 16 16"
   version="1.1"
   id="svg1"
   xmlns="http://www.w3.org/2000/svg"
   xmlns:svg="http://www.w3.org/2000/svg">
  <defs
     id="defs1" />
  <g
     id="layer1">
    <g
       fill="#222222"
       id="g340"
       transform="translate(0,0.5)"
       style="display:inline;fill:#000000;fill-opacity:1;stroke:none;stroke-opacity:1;enable-background:new">
      <path
         d="M 2.199219,0 C 0.992188,0 0,1.007812 0,2.207031 V 12.792969 C 0,13.992188 0.992188,15 2.199219,15 H 13.800781 C 15.007812,15 16,13.992188 16,12.792969 V 2.207031 C 16,1.007812 15.007812,0 13.800781,0 Z m 0,2 H 13.800781 C 13.921875,2 14,2.070312 14,2.207031 V 12.792969 C 14,12.929688 13.921875,13 13.800781,13 H 2.199219 C 2.078125,13 2,12.929688 2,12.792969 V 2.207031 C 2,2.070312 2.078125,2 2.199219,2 Z m 0,0"
         id="path336"
         style="fill:#000000;fill-opacity:1;stroke:none" />
      <path
         d="m 4.515625,5.898438 c -0.164063,-0.00391 -0.324219,0.0625 -0.441406,0.175781 -0.230469,0.234375 -0.230469,0.617187 0,0.851562 L 5.652344,8.5 4.074219,10.074219 c -0.230469,0.234375 -0.230469,0.617187 0,0.851562 0.234375,0.230469 0.617187,0.230469 0.851562,0 l 2,-2 c 0.230469,-0.234375 0.230469,-0.617187 0,-0.851562 l -2,-2 C 4.816406,5.96875 4.667969,5.90625 4.515625,5.898438 Z M 8,10 v 1 h 3 v -1 z m 0,0"
         id="path338"
         style="fill:#000000;fill-opacity:1;stroke:none" />
    </g>
  </g>
</svg>
