<?xml version="1.0" encoding="UTF-8" standalone="no"?>
<svg
   height="16"
   viewBox="0 0 16 16"
   width="16"
   version="1.1"
   id="svg4"
   xmlns="http://www.w3.org/2000/svg"
   xmlns:svg="http://www.w3.org/2000/svg">
  <defs
     id="defs8" />
  <path
     id="path1-3"
     d="m 8.154239,1.947978 c -0.489205,0 -0.631194,0.630419 -1.214541,0.630419 -0.561493,0 -0.978463,-0.47068 -1.503812,-0.47068 -0.504335,0 -0.832967,0.343788 -1.086816,1.050698 0,0 -0.70693,1.993818 -0.79771,2.28297 a 0.54047917,0.54047917 0 0 0 -4.96e-4,0.0046 l 4.96e-4,-0.0013 A 0.54047917,0.54047917 0 0 0 3.53281,5.604424 c 0,0.09687 0.0478,0.221303 0.139217,0.364953 0.04571,0.07182 0.102337,0.148491 0.169425,0.228856 0.06709,0.08036 0.144491,0.164545 0.231975,0.251346 0.08748,0.0868 0.185001,0.176138 0.291897,0.267272 0.106896,0.09113 0.223211,0.183921 0.348536,0.277285 0.125325,0.09336 0.259614,0.187406 0.402385,0.280898 0.142771,0.09349 0.294044,0.186427 0.453278,0.277943 0.159233,0.09152 0.326503,0.18164 0.501215,0.269077 0.174713,0.08744 0.356827,0.172226 0.546035,0.253481 0.189208,0.08125 0.385507,0.159004 0.588227,0.231974 1.0136,0.364851 2.189983,0.612853 3.467632,0.612853 0.183439,0 0.381344,-0.0073 0.58281,-0.02479 0.03014,-0.0026 0.06019,-0.0056 0.09046,-0.0087 0.522879,-0.05402 1.059657,-0.184945 1.428786,-0.468546 0.008,-0.0062 0.01596,-0.01239 0.0238,-0.01872 0.03713,-0.02979 0.07225,-0.06145 0.105562,-0.09456 0.01652,-0.01649 0.0326,-0.03339 0.0481,-0.05073 0.02279,-0.02539 0.04438,-0.05169 0.06485,-0.07897 0.02067,-0.02767 0.04031,-0.05619 0.05844,-0.08586 0.01285,-0.02091 0.02509,-0.04226 0.03661,-0.06419 0.02011,-0.03852 0.03824,-0.07841 0.05401,-0.120173 0.006,-0.01574 0.01189,-0.03156 0.01724,-0.04777 0.01707,-0.05224 0.03119,-0.106712 0.04121,-0.164008 0.0014,-0.0081 0.0031,-0.01595 0.0044,-0.02413 0.0103,-0.06656 0.01609,-0.136252 0.01625,-0.209811 10e-6,-0.0022 3.36e-4,-0.0043 3.36e-4,-0.0066 a 1.176782,1.176782 0 0 0 6.72e-4,-0.03563 1.176782,1.176782 0 0 0 -1.68e-4,-0.01215 1.176782,1.176782 0 0 0 -6.72e-4,-0.03119 1.176782,1.176782 0 0 0 -1.68e-4,-0.0028 1.176782,1.176782 0 0 0 -0.02577,-0.202423 L 12.593242,4.448616 C 12.448666,3.850138 12.321702,3.578671 11.271004,3.053321 10.455695,2.636428 8.679589,1.947978 8.154239,1.947978 Z M 3.243702,6.206261 C 1.829883,6.276868 0,6.529081 0,8.144635 0,10.790713 6.269759,14.052022 11.234098,14.052022 15.040148,14.052022 16,12.330525 16,10.971342 16,9.902151 15.075379,8.688444 13.408551,7.963882 h -0.0016 c 0.07271,0.344209 0.109055,0.53432 0.127232,0.649791 0.01818,0.115472 0.01822,0.156213 0.01822,0.201603 0,0.07355 -0.0052,0.145146 -0.01527,0.214572 -0.01012,0.06943 -0.0252,0.136691 -0.04498,0.201931 -0.01979,0.06524 -0.04437,0.128463 -0.07339,0.189454 -0.02902,0.06099 -0.06251,0.119806 -0.100308,0.176485 -0.0378,0.05668 -0.07994,0.111212 -0.126083,0.163515 -0.04615,0.0523 -0.09634,0.102353 -0.150382,0.150217 -0.05405,0.04786 -0.111862,0.09356 -0.173365,0.136919 -0.553534,0.39026 -1.400101,0.596928 -2.378354,0.596928 C 9.016351,10.646246 7.610931,10.322818 6.429979,9.838065 6.233154,9.757275 6.042627,9.672115 5.85899,9.583107 5.675353,9.494097 5.498541,9.401375 5.329537,9.305657 5.160532,9.209937 4.99931,9.111233 4.84638,9.010312 4.69345,8.909391 4.548871,8.806122 4.413459,8.701505 3.600987,8.073805 3.116832,7.393241 3.116832,6.822397 A 1.5508306,1.5508306 0 0 1 3.243736,6.206261 Z"
     style="fill:#000000;stroke-width:0.0840559" />
</svg>
