<?xml version="1.0" encoding="UTF-8" standalone="no"?>
<svg
   viewBox="0 0 16 16"
   version="1.1"
   id="svg1"
   width="16"
   height="16"
   xmlns="http://www.w3.org/2000/svg"
   xmlns:svg="http://www.w3.org/2000/svg">
  <defs
     id="defs1">
    <style
       id="style1">.cls-1{fill:#fff;}</style>
  </defs>
  <g
     id="LOGO"
     style="fill:#000000;fill-opacity:1">
    <path
       class="cls-1"
       d="m 15.597142,6.4238447 -0.0221,-0.056467 -2.139193,-5.58285406 A 0.55730338,0.55730338 0 0 0 13.21571,0.51937492 0.57285221,0.57285221 0 0 0 12.561022,0.55456422 0.57285221,0.57285221 0 0 0 12.371162,0.84262715 L 10.926757,5.2617731 H 5.0779385 L 3.6335324,0.84262739 A 0.56139518,0.56139518 0 0 0 3.4436729,0.55374607 0.57285221,0.57285221 0 0 0 2.7889846,0.51855673 0.56221355,0.56221355 0 0 0 2.5688457,0.78370545 L 0.42556014,6.3641044 0.40428409,6.4205713 A 3.9723207,3.9723207 0 0 0 1.7218442,11.011573 l 0.00737,0.0058 0.019641,0.01391 3.2587109,2.440351 1.6121699,1.220176 0.9820296,0.741407 a 0.66041676,0.66041676 0 0 0 0.7987197,0 l 0.9820324,-0.741435 1.6121693,-1.220175 3.278351,-2.455082 0.0082,-0.0065 A 3.9739575,3.9739575 0 0 0 15.59716,6.4239331 Z"
       id="path1"
       style="stroke-width:0.0818361;fill:#000000;fill-opacity:1" />
  </g>
</svg>
