<?xml version="1.0" encoding="UTF-8" standalone="no"?>
<svg
   height="16"
   viewBox="0 0 16 16"
   width="16"
   version="1.1"
   id="svg15572"
   xml:space="preserve"
   xmlns="http://www.w3.org/2000/svg"
   xmlns:svg="http://www.w3.org/2000/svg"><defs
     id="defs15576" /><g
     style="display:inline;fill:#000000"
     id="g139"
     transform="matrix(0.48698473,0,0,0.48698473,0.20824432,0.20848781)"><path
       d="M 16,24.885 C 11.093,24.884 7.116,20.907 7.116,16 c 0,-4.907 3.978,-8.885 8.885,-8.885 3.27,0 6.128,1.767 7.67,4.398 l 0.023,0.042 -3.844,2.224 c -0.782,-1.339 -2.213,-2.224 -3.849,-2.224 -2.454,0 -4.444,1.989 -4.444,4.444 0,2.455 1.989,4.444 4.444,4.444 1.636,0 3.066,-0.884 3.837,-2.201 l 0.011,-0.021 3.846,2.224 c -1.57,2.669 -4.426,4.434 -7.694,4.44 z M 28.989,8.502 C 28.791,8.146 28.515,7.856 28.184,7.646 L 28.174,7.64 17.157,1.279 C 16.821,1.105 16.424,1.003 16.002,1.003 c -0.422,0 -0.819,0.102 -1.169,0.282 L 14.847,1.278 3.828,7.639 C 3.165,8.077 2.722,8.802 2.675,9.632 V 9.639 22.36 c 0.048,0.837 0.491,1.561 1.144,1.994 l 0.01,0.006 11.017,6.361 c 0.336,0.173 0.734,0.275 1.155,0.275 0.421,0 0.819,-0.102 1.169,-0.281 l -0.014,0.007 11.017,-6.361 c 0.663,-0.438 1.105,-1.163 1.152,-1.993 V 22.361 9.64 C 29.314,9.218 29.19,8.827 28.984,8.493 l 0.006,0.01 z"
       id="path4" /></g></svg>
