<?xml version="1.0" encoding="UTF-8" standalone="no"?>
<svg
   height="16px"
   viewBox="0 0 16 16"
   width="16px"
   version="1.1"
   id="svg15572"
   xmlns="http://www.w3.org/2000/svg"
   xmlns:svg="http://www.w3.org/2000/svg">
  <defs
     id="defs15576" />
  <path
     id="path7775"
     style="display:inline;fill:#000000;fill-opacity:1;stroke-width:1.01739;enable-background:new"
     d="M 1.3180719,-2.7698972e-8 0.35225486,1.288019 3.7471549,3.8326225 c -0.192711,0.5839425 -0.164143,1.2408085 0.132024,1.8341894 0.281193,0.5552865 0.767809,0.9827215 1.352459,1.1897865 V 11.31162 c -0.09279,0.03239 -0.187398,0.06907 -0.277407,0.113949 -1.19251,0.595196 -1.676558,2.045974 -1.081339,3.238515 0.595202,1.192521 2.04522,1.676535 3.237729,1.081339 1.195332,-0.596617 1.677328,-2.045225 1.082125,-3.23773 -0.277952,-0.5569 -0.765757,-0.984895 -1.353245,-1.190573 l 0.0032,-4.4558061 c 0.09279,-0.03239 0.187081,-0.068899 0.274264,-0.1123775 0.09,-0.04492 0.177072,-0.095861 0.258547,-0.1508845 l 3.5575731,2.6719125 c -0.184604,0.5945205 -0.135254,1.2413196 0.139882,1.7996116 0.595202,1.192517 2.045187,1.677337 3.237729,1.082124 1.195329,-0.5966 1.677329,-2.045212 1.082125,-3.2377286 -0.59522,-1.1925455 -2.042401,-1.678725 -3.237729,-1.0821245 -0.08721,0.04355 -0.173,0.097025 -0.254618,0.15167 L 8.3428509,5.3116045 c 0.187394,-0.595916 0.135543,-1.241483 -0.143811,-1.8011831 -0.59522,-1.1925409 -2.043185,-1.6787294 -3.238515,-1.0821239 -0.0799,0.03988 -0.155256,0.084803 -0.228684,0.132024 z" />
</svg>
