<?xml version="1.0" encoding="UTF-8" standalone="no"?>
<svg
   width="16"
   height="16"
   version="1.1"
   viewBox="0 0 16 16"
   id="svg1"
   sodipodi:docname="folder-gimp-symbolic.svg"
   inkscape:version="1.3.2 (091e20ef0f, 2023-11-25, custom)"
   xmlns:inkscape="http://www.inkscape.org/namespaces/inkscape"
   xmlns:sodipodi="http://sodipodi.sourceforge.net/DTD/sodipodi-0.dtd"
   xmlns="http://www.w3.org/2000/svg"
   xmlns:svg="http://www.w3.org/2000/svg">
  <defs
     id="defs1" />
  <sodipodi:namedview
     id="namedview1"
     pagecolor="#505050"
     bordercolor="#ffffff"
     borderopacity="1"
     inkscape:showpageshadow="0"
     inkscape:pageopacity="0"
     inkscape:pagecheckerboard="1"
     inkscape:deskcolor="#505050"
     showgrid="false"
     inkscape:zoom="35.887083"
     inkscape:cx="4.8764063"
     inkscape:cy="8.4570818"
     inkscape:window-width="1894"
     inkscape:window-height="999"
     inkscape:window-x="0"
     inkscape:window-y="0"
     inkscape:window-maximized="1"
     inkscape:current-layer="svg1" />
  <g
     transform="matrix(0.03216968,0,0,0.03216968,-0.01286787,-0.29084309)"
     id="g1">
    <path
       d="m 494,437 c -18.1,-9.81 -37.9,-16.2 -56.2,-25.6 -11,-9.39 -11.7,-25.4 -29.3,-25.8 -10.3,-7.85 -32.7,-2.72 -32.4,-19.1 -7.67,-5.96 -21.1,-8.9 -30.1,-14.8 -21.2,-11.3 -42,-23.5 -61.3,-37.8 -3.46,-20.4 25.5,-5.19 36.4,-1.65 23,8.34 45.7,17.9 66.8,30.4 11.3,-12.1 20.8,7.74 32.2,10.9 8.18,2.87 14.9,14.8 24.3,9.87 16,-3.53 31.3,7.33 36.7,22.1 7.67,17.2 11.5,35.7 16.9,53.6 l -1.18,-0.591 z m -68.4,-54.7 c 3.45,-8.81 9.06,-15 -3.03,-18.8 -8.42,-4.11 -15.4,-11.9 -24.5,-14.2 -5.42,-10.5 -23.7,24.3 -8.02,21.3 11,4.05 26.5,12.1 35.6,11.6 z m -187,-9.25 c -52.1,-2.62 -103,-21.5 -146,-49.8 26.1,-12.6 31.8,-46.3 23.1,-71.6 21.9,11.9 51.7,1.21 61.2,-21.8 6.75,31.1 45.2,49 73.2,33.8 28.2,-12.9 37.7,-52.5 18.7,-76.8 -17.3,-25.3 -57.5,-28.3 -78.4,-5.81 -8.62,6.07 -11.4,28.5 -16.7,8.78 -13.8,-24.9 -52.3,-28.5 -70.5,-6.56 -8.62,5.36 -15.7,29.9 -12.5,27.2 -16.5,-7.05 -3.21,-24.3 3.76,-33.8 7.08,-4.09 4.43,-12.2 5.14,-18.9 0.334,-13.8 0.676,-27.6 0.997,-41.5 9.36,16.1 21.7,30.5 36.8,41.4 14.6,0.192 28.9,6.76 38.7,17.7 10.8,1.33 16.9,-15.7 28.9,-16.5 21.4,-8.67 47.2,-3.53 64,12.1 46.2,-9.54 94.2,-33.6 115,-78.1 1.48,-9.18 12.7,-27.2 14.9,-8.09 6.48,64.5 8.39,132 -14.8,194 -5.3,13.5 -12.1,26.6 -20.6,38.4 -16.9,-7.79 -34.4,-14.3 -52.1,-20.2 -8.12,-12.1 -22.9,-16.9 -36,-21.4 13.3,8.45 18.5,19.6 0.572,24.6 -36.2,17.9 -78.5,13.9 -117,6.68 34.4,11.5 71.6,23.1 108,15.1 13.9,-6.9 23.6,13.5 36.2,17.2 6.88,6.52 33.4,13.2 12.6,19 -23.8,12 -50.9,16.1 -77.4,15.1 z m -171,-56.4 c -36.5,-4.77 -64.5,-39.9 -67.2,-75.7 -2.25,-20.5 11.7,-44 34,-44.2 33.7,-0.912 61.6,27.8 71,58.4 7.36,21.2 2.95,51.2 -20.9,59.5 -5.44,1.95 -11.3,2.33 -17,2.01 z m -32.8,-61.1 c 23.4,-3.92 21.9,-45.2 -2.34,-46 -26.7,1.03 -24.8,48.4 2.34,46 z m 202,-6.01 c -13.1,-1.24 -23.9,-14.2 -21.8,-27.4 8.6,16.7 36.4,6.25 31.9,-11.9 -1.73,-6.57 -10.7,-13.4 1.7,-8.24 17.7,5.85 21.5,32.3 5.82,42.7 -5,3.81 -11.4,5.42 -17.6,4.8 z M 144.3,240 c -11.2,0.887 -21.5,-16.9 -17.8,-22.6 11.7,18.5 38.5,-5.73 21.8,-19.5 19.6,0.119 27.1,28.8 10.3,38.6 -4.13,2.87 -9.32,3.87 -14.3,3.41 z"
       stroke-width="0.164"
       id="path1" />
  </g>
</svg>
