<?xml version="1.0" encoding="UTF-8" standalone="no"?>
<svg
   version="1.0"
   viewBox="0 0 16 16"
   id="svg1"
   width="16"
   height="16"
   xmlns="http://www.w3.org/2000/svg"
   xmlns:svg="http://www.w3.org/2000/svg">
  <defs
     id="defs1" />
  <path
     d="M 7.8635835,0.11689294 C 7.3696289,0.11589169 6.8790116,0.2957847 6.5252334,0.65757305 L 0.61780287,6.6985049 C -1.3780409,9.1716157 1.9761782,8.8812505 3.4146541,9.5954821 3.9319714,10.122812 1.4388357,10.513304 1.9528155,11.040634 c 0.5173173,0.52733 3.1205917,1.014608 3.6379091,1.541939 0.5173174,0.52733 -1.0546599,1.088034 -0.5406801,1.615365 0.5173175,0.527331 1.7088162,0.02773 1.9324308,1.244899 0.1592,0.871097 2.1493702,0.373803 3.1239297,-0.33709 C 10.623722,14.578416 9.1184954,14.628479 9.6358127,14.10115 10.917425,12.7895 12.112262,13.623882 12.552815,12.308895 12.769756,11.658077 10.663773,11.307636 11.18109,10.780306 12.666291,9.9125476 17.789402,9.3485049 15.353004,6.9087693 L 9.2453216,0.63421027 C 8.871518,0.27375693 8.3708883,0.09353017 7.8769337,0.09353017 Z m 0.053066,0.57405542 c 0.3537784,0.001869 0.7042191,0.13416872 0.9578715,0.39049114 l 2.336273,2.3729848 c 0.221612,0.2266183 0.218608,0.6641688 0.09445,0.790995 L 10.143785,3.3175856 9.915498,4.6926485 8.9442764,4.1820061 7.3923241,5.1632405 6.8783441,3.0939709 6.0439613,4.5357845 H 4.7690245 c -0.520655,0 -0.5807306,-0.6608313 -0.1088032,-1.1314231 C 5.4845911,2.5132405 6.4324501,1.6054318 6.94643,1.0814395 7.2050887,0.81710705 7.5605357,0.68761085 7.914314,0.69094836 Z M 5.1097863,9.9359104 c 0.1578654,0.098126 2.5465366,0.5840686 3.1306045,0.6808566 0.2022543,0.04272 0.059074,0.250982 -0.2199434,0.39049 C 7.3929917,11.174468 4.3491628,9.9359104 5.11012,9.9359104 Z m 9.2783377,1.6620906 c -0.480605,0.01655 -0.954534,0.261996 -1.084697,0.720906 0,0.300045 2.209444,0.497293 2.209444,-0.07075 -0.157532,-0.453911 -0.644144,-0.667513 -1.124747,-0.650826 z M 4.1752775,12.899638 c -0.6708438,0.03571 -1.3884129,0.520656 -0.8176952,1.01461 0.5239925,0.453904 1.3316751,-0.112468 1.5753149,-0.74427 C 4.7743655,12.95938 4.4789928,12.882951 4.1752775,12.89897 Z m 8.8444595,0.03738 c -0.674182,0.604094 0.07577,1.218197 0.740931,0.827707 0.148179,-0.150517 -0.0039,-0.677518 -0.740931,-0.827707 z"
     stroke-width="0.0440553"
     id="path1" />
</svg>
