<?xml version="1.0" encoding="UTF-8" standalone="no"?>
<svg
   height="16px"
   viewBox="0 0 16 16"
   width="16px"
   version="1.1"
   id="svg15572"
   xmlns="http://www.w3.org/2000/svg"
   xmlns:svg="http://www.w3.org/2000/svg">
  <defs
     id="defs15576" />
  <path
     id="path14"
     style="clip-rule:evenodd;fill:#000000;fill-opacity:1;fill-rule:nonzero;stroke-width:0.28221;stroke-linejoin:round;stroke-miterlimit:2"
     d="m 4.9005709,9.8875769 c 0.0037,0.2088341 0.070271,0.6146501 0.1701735,0.9315681 0.2099668,0.670812 0.566117,1.291387 1.0616812,1.838305 0.5085456,0.562161 1.134775,1.013695 1.8580829,1.334283 0.760278,0.336672 1.5840562,0.508255 2.4397225,0.506846 0.854257,-0.0012 1.678031,-0.1761 2.43831,-0.515314 0.72331,-0.323695 1.348975,-0.777204 1.856673,-1.339641 0.495283,-0.54918 0.850869,-1.170885 1.0614,-1.841692 0.105829,-0.338931 0.172712,-0.682944 0.199523,-1.028085 0.02624,-0.3400618 0.01523,-0.6806848 -0.03302,-1.0210297 C 15.858866,8.0896287 15.629425,7.467359 15.276092,6.9001201 14.952958,6.378882 14.536414,5.9225518 14.041131,5.5384666 l 0.0012,-8.53e-4 L 9.0440966,1.699864 c -0.00451,-0.00341 -0.0082,-0.0071 -0.012957,-0.010158 C 8.7032127,1.4379763 8.1517671,1.4388211 7.7911032,1.6912087 7.4264828,1.9463257 7.3847155,2.3682263 7.7092611,2.6343486 l -0.00134,0.0015 2.0846962,1.6952245 -6.3539989,0.0068 h -0.0085 C 2.9049209,4.3384883 2.4000454,4.6830207 2.3001417,5.1184672 2.1974168,5.5620983 2.5541324,5.9300971 3.1002118,5.9320743 l -8.529e-4,0.00203 3.2205995,-0.0062 -5.74696061,4.4111967 c -0.007299,0.0054 -0.0152433,0.01101 -0.0220099,0.01637 -0.54212828,0.415128 -0.71738159,1.105412 -0.37590639,1.542268 0.34655589,0.444195 1.0834129,0.44504 1.6311848,0.0024 L 4.94277,9.3332105 c 0,0 -0.045721,0.3465502 -0.042051,0.5545382 z m 8.0596901,1.1604401 c -0.646265,0.658392 -1.551036,1.031752 -2.53003,1.03373 C 9.4498283,12.083372 8.5450572,11.713464 7.898789,11.056201 7.582995,10.735894 7.3510163,10.367331 7.2079363,9.9747787 7.0676775,9.5890005 7.0132083,9.1795163 7.0493324,8.7663645 7.0834825,8.362523 7.2037041,7.977309 7.3956076,7.6287821 7.5841241,7.286181 7.8437593,6.9765984 8.1643516,6.7147103 8.7925562,6.2027843 9.5923425,5.9256557 10.428817,5.9245266 c 0.837325,-0.00118 1.636551,0.2734605 2.265318,0.7836912 0.320027,0.2607615 0.579382,0.5692148 0.767899,0.9112506 0.192752,0.3482455 0.312127,0.7320485 0.347687,1.137019 0.03554,0.4125873 -0.01889,0.821507 -0.159167,1.2075686 -0.143367,0.393679 -0.374498,0.762244 -0.690293,1.083961 z M 8.3407333,8.8067199 C 8.3706674,8.273063 8.631976,7.802905 9.0262254,7.4696172 9.4128594,7.142255 9.9332547,6.9421701 10.501065,6.9421701 c 0.567247,0 1.087647,0.2000849 1.474561,0.5274471 0.393965,0.3332878 0.655294,0.8034458 0.685492,1.3365369 0.02989,0.5483316 -0.190494,1.0577171 -0.577124,1.4353119 -0.394249,0.384085 -0.955005,0.625091 -1.582929,0.625091 -0.6279182,0 -1.189803,-0.241006 -1.5837723,-0.625091 C 8.5303785,9.8638712 8.3105392,9.3544857 8.3407333,8.8067199 Z" />
</svg>
