<?xml version="1.0" encoding="UTF-8" standalone="no"?>
<svg
   height="16px"
   viewBox="0 0 16 16"
   width="16px"
   version="1.1"
   id="svg15572"
   xmlns="http://www.w3.org/2000/svg"
   xmlns:svg="http://www.w3.org/2000/svg">
  <defs
     id="defs15576" />
  <g
     id="path6019"
     transform="matrix(0.93250548,0,0,0.93250548,0.5404969,0.54090887)">
    <path
       style="color:#000000;fill:#000000;stroke-width:1.15979;stroke-linecap:square;stroke-linejoin:round;-inkscape-stroke:none"
       d="M 1.2868101,-2.3540359e-5 0.59480912,0.93054246 2.7499741,2.5568795 c -0.479935,0.819825 -0.552922,1.858429 -0.09855,2.766387 0.396611,0.792534 1.114016,1.324252 1.917677,1.518094 l -0.01562,0.0054 c 0.05872,0.01572 0.101685,0.09251 0.105012,0.142709 l 5.51e-4,-0.0011 -0.05385,3.2063595 -0.02046,-0.03069 c 2.1e-5,0.06078 -0.06278,0.12273 -0.110397,0.138939 l 0.01023,0.0022 c -0.181371,0.04955 -0.3605,0.117437 -0.534752,0.204639 -1.425889,0.713561 -2.008707,2.464394 -1.295146,3.890281 0.713562,1.425889 2.464395,2.00871 3.890283,1.295147 1.425891,-0.713564 2.009246,-2.464395 1.295684,-3.890283 -0.411244,-0.821776 -1.167466,-1.363016 -2.007071,-1.538019 l 0.0097,-0.0032 c -0.03219,-0.0086 -0.05916,-0.03593 -0.07809,-0.06678 l 0.05385,-3.2144375 0.0027,0.0043 c -2.1e-5,-0.06078 0.06278,-0.12273 0.110397,-0.138939 l -0.014,-0.0032 c 0.211892,-0.05027 0.42151,-0.124774 0.624146,-0.22618 0.198311,-0.09924 0.379423,-0.219179 0.543908,-0.354886 l -0.0022,0.0065 c 0.04405,-0.03474 0.125132,-0.03518 0.165326,-0.0048 l 2.593522,1.956989 c 0.02094,0.0158 0.0157,0.05102 0.01615,0.07647 -0.336556,0.76446 -0.344649,1.667429 0.05601,2.4680465 0.7135619,1.425888 2.4643919,2.009246 3.8902829,1.295684 1.425891,-0.713563 2.008707,-2.4649325 1.295146,-3.8908215 -0.713562,-1.425889 -2.464393,-2.008708 -3.890283,-1.295145 -0.19961,0.09989 -0.382345,0.220767 -0.547677,0.357578 l 0.0016,-0.0038 c -0.04773,0.03764 -0.135502,0.02684 -0.177713,-5.51e-4 l 0.01993,0.04039 -2.5644419,-1.935448 c -0.04588,-0.03462 -0.05173,-0.118769 -0.03716,-0.163711 l -0.0016,0.0016 c 0.326244,-0.75947 0.330797,-1.652044 -0.0657,-2.444352 -0.713561,-1.425888 -2.464931,-2.00870704 -3.890821,-1.295145 -0.149446,0.07479 -0.286949,0.163017 -0.417355,0.259029 z M 5.3036451,2.2838485 c 0.616287,0.01927 1.198827,0.368479 1.496553,0.963416 0.433056,0.865363 0.08827,1.900899 -0.777087,2.333954 -0.865363,0.433056 -1.901437,0.08828 -2.334493,-0.777087 -0.433056,-0.865363 -0.08827,-1.900899 0.777087,-2.333955 0.270426,-0.13533 0.55781,-0.195084 0.83794,-0.186328 z m 7.2630469,5.443919 c 0.616287,0.01927 1.198826,0.36794 1.496552,0.962877 0.433056,0.865363 0.08828,1.9014365 -0.777087,2.3344925 -0.865362,0.433056 -1.900898,0.08828 -2.333954,-0.777087 -0.433056,-0.8653625 -0.08827,-1.9014365 0.777087,-2.3344925 0.270426,-0.13533 0.557271,-0.194546 0.837402,-0.18579 z M 5.3063381,11.360636 c 0.616287,0.01926 1.199365,0.368479 1.497091,0.963416 0.433056,0.865363 0.08774,1.9009 -0.777626,2.333955 -0.865362,0.433056 -1.900898,0.08827 -2.333954,-0.777088 -0.433056,-0.865363 -0.08827,-1.900898 0.777087,-2.333954 0.270426,-0.13533 0.557271,-0.195085 0.837402,-0.186329 z"
       id="path16119" />
    <path
       style="color:#000000;fill:#000000;stroke-linecap:square;stroke-linejoin:round;-inkscape-stroke:none"
       d="M 1.2050781,-0.57421875 A 0.57995301,0.57995301 0 0 0 0.82226563,-0.34570313 L 0.12890625,0.58398437 A 0.57995301,0.57995301 0 0 0 0.24609375,1.3925781 L 2.0957031,2.7890625 C 1.7499063,3.6748125 1.6764445,4.6700848 2.1328121,5.5820312 2.5445091,6.4047111 3.270492,6.938243 4.0761715,7.2324219 L 4.03125,9.8613281 C 3.9172115,9.904043 3.800497,9.9366171 3.6894531,9.9921875 1.9806297,10.847338 1.2815853,12.951369 2.1367188,14.660156 2.9918702,16.368979 5.0958993,17.068027 6.8046875,16.212891 8.5134594,15.357763 9.2145615,13.253813 8.359375,11.544922 7.9370943,10.701092 7.1834545,10.167032 6.3515625,9.8808594 L 6.3945312,7.2851562 C 6.5311603,7.2374632 6.6698026,7.2032424 6.8027344,7.1367187 6.9279748,7.0740452 7.0309829,6.9892945 7.1445312,6.9140625 L 9.2402344,8.4941406 C 8.9967545,9.3125861 8.986782,10.206702 9.3964844,11.025391 10.251609,12.73416 12.355559,13.437217 14.064453,12.582031 15.773382,11.726827 16.4743,9.6209495 15.619141,7.9121094 14.763989,6.2032867 12.659961,5.5022866 10.951172,6.3574219 10.81566,6.4252356 10.702227,6.5170495 10.580078,6.5996094 L 8.5078125,5.0351562 C 8.7623502,4.2087124 8.7706281,3.2983504 8.3554688,2.46875 7.500266,0.75982346 5.3963416,0.05890223 3.6875,0.9140625 3.6420536,0.93680607 3.6076056,0.96593017 3.5644531,0.99023438 L 1.6367187,-0.46289063 A 0.57995301,0.57995301 0 0 0 1.2050781,-0.57421875 Z M 5.9765625,1.8261719 c 0.05982,0.01991 0.084526,0.098365 0.1425781,0.1230468 C 6.0044238,1.9009445 5.8866065,1.8710131 5.765625,1.8417969 c 0.069027,0.016204 0.1437106,-0.038 0.2109375,-0.015625 z m -1.7695313,0.125 C 3.6903892,2.2097183 3.3625429,2.6685894 3.15625,3.1660156 3.1983643,3.0632068 3.1936109,2.9459332 3.25,2.8496094 A 0.57995301,0.57995301 0 0 0 3.0996094,2.09375 l 0.080078,0.060547 a 0.57995301,0.57995301 0 0 0 0.6933594,0.00391 C 3.9833114,2.0770203 4.0935013,2.0079878 4.2070312,1.9511719 Z m 1.078125,0.9121094 C 5.6941144,2.8760685 6.0783601,3.1004306 6.28125,3.5058594 6.5763223,4.0954937 6.3533019,4.7674284 5.7636719,5.0625 5.1741204,5.3575309 4.5020189,5.1343896 4.2070312,4.5449219 3.9119589,3.9552876 4.1349788,3.2833538 4.7246094,2.9882813 4.9090902,2.895961 5.0997485,2.857486 5.2851562,2.8632813 Z m -2.2246093,0.625 C 2.9359485,4.0026031 2.9158832,4.5568151 3.1699219,5.0644531 2.9135118,4.5520765 2.9309957,4.0059896 3.0605469,3.4882813 Z M 7.3691406,4.84375 c -0.011999,0.031569 0.015298,0.068543 0.00195,0.099609 a 0.57995301,0.57995301 0 0 0 0.021484,0.072266 L 7.3535116,4.992188 c -0.047051,0.1451308 -0.044926,0.2394444 -0.023437,0.3632812 0.021489,0.1238369 0.067912,0.2951644 0.2617188,0.4414063 l 0.00586,0.00586 C 7.4277836,5.675078 7.2884889,5.6612504 7.15625,5.6640625 7.024014,5.6668746 6.8827328,5.691985 6.7265625,5.8144531 c -6.327e-4,4.962e-4 -0.00132,-4.994e-4 -0.00195,0 a 0.57995301,0.57995301 0 0 0 -0.00781,0.00195 C 6.5841184,5.9258715 6.4406559,6.0208159 6.2832031,6.0996094 6.1220404,6.1802607 5.955413,6.2408577 5.7851562,6.28125 A 0.57995301,0.57995301 0 0 0 5.7480472,6.328125 L 5.7460972,6.298828 C 5.5825609,6.3544953 5.5036088,6.4244176 5.4199219,6.5214844 5.3428848,6.6108381 5.2689996,6.7505418 5.2558594,6.9492187 a 0.57995301,0.57995301 0 0 0 -0.017578,0.023437 v 0.025391 a 0.57995301,0.57995301 0 0 0 -0.023437,-0.050781 l 0.021484,0.00391 C 5.2250619,6.7811827 5.1791482,6.686472 5.1074219,6.5800781 5.0670098,6.5201336 4.9568142,6.4736902 4.8789062,6.4160156 A 0.57995301,0.57995301 0 0 0 4.7050781,6.2773437 C 4.6729922,6.2696047 4.6606085,6.2258528 4.6289062,6.2167969 5.163956,6.3655213 5.7503519,6.3662656 6.2832031,6.0996094 6.817221,5.8323681 7.1679061,5.362582 7.3691406,4.84375 Z m 1.0957032,0.4082031 c -9.939e-4,0.028177 0.00876,0.046546 -0.00781,0.097656 a 0.57995301,0.57995301 0 0 0 -0.00391,-0.033203 c 0.00814,-0.020343 0.00396,-0.04396 0.01172,-0.064453 z M 7.4335937,6.7246094 a 0.57995301,0.57995301 0 0 0 0.00977,0 c -0.00918,0.00724 -0.012746,0.00162 -0.021484,0.00781 0.00359,-0.0029 0.00814,-0.00491 0.011719,-0.00781 z m 2.8847653,0.046875 c -0.0011,8.956e-4 -0.0028,0.00106 -0.0039,0.00195 a 0.57995301,0.57995301 0 0 0 -0.0098,0.00195 c 0.0061,-0.00481 0.0077,4.667e-4 0.01367,-0.00391 z m 2.921875,0.4980468 c 0.06068,0.0202 0.08568,0.099887 0.144532,0.125 -0.116496,-0.049213 -0.236423,-0.079828 -0.359375,-0.109375 0.07023,0.016373 0.146471,-0.038386 0.214843,-0.015625 z m -8.912109,0.083984 c 0.019703,0.00546 0.034893,0.022232 0.054687,0.027344 A 0.57995301,0.57995301 0 0 0 4.4042969,7.40625 C 4.3556688,7.3932317 4.3603458,7.3714206 4.328125,7.3535152 Z m 1.8339844,0.015625 c -0.018518,0.00876 -0.01545,0.017976 -0.042969,0.027344 a 0.57995301,0.57995301 0 0 0 0.021484,-0.019531 c 0.00725,-0.00192 0.014233,-0.00584 0.021484,-0.00781 z m 5.3066406,0.025391 c 6.27e-4,-3.137e-4 0.0013,3.132e-4 0.002,0 -0.529256,0.2648588 -0.875406,0.7331289 -1.078125,1.2460938 0.01313,-0.03397 -0.01665,-0.074051 -0.002,-0.1074219 a 0.57995301,0.57995301 0 0 0 0.04883,-0.2441406 c 5.62e-4,0.031783 0.0046,-7.932e-4 -0.0039,-0.087891 -0.0085,-0.087098 -0.04973,-0.2947166 -0.244141,-0.4414063 l -0.03516,-0.027344 a 0.57995301,0.57995301 0 0 0 0.1875,0.037109 c 0.06572,0.020388 0.13572,0.061488 0.205078,0.064453 0.0116,4.961e-4 0.03076,-0.01381 0.04297,-0.013672 a 0.57995301,0.57995301 0 0 0 0.111328,-0.035156 c 0.101375,-0.011781 0.198386,-0.00346 0.320313,-0.099609 l -0.0039,-0.00391 a 0.57995301,0.57995301 0 0 0 0.01172,0 c 0.132895,-0.1099694 0.278657,-0.2076201 0.4375,-0.2871094 z m 1.080078,0.9121094 c 0.409296,0.012798 0.793266,0.2372742 0.996094,0.6425782 0.295031,0.5895515 0.07189,1.2616532 -0.517578,1.5566402 -0.589636,0.295074 -1.261567,0.07206 -1.556641,-0.5175777 -0.295029,-0.5895477 -0.07188,-1.2616542 0.517578,-1.5566407 0.184207,-0.092183 0.374373,-0.1308192 0.560547,-0.125 z m 2.033203,0.125 c 0.571962,1.142935 0.105741,2.5394084 -1.037109,3.1113284 1.141264,-0.571124 1.608189,-1.9701557 1.037109,-3.1113284 z M 5.9921875,9.703125 c 0.039485,0.010549 0.028237,0.027446 0.056641,0.041016 -0.00626,-0.00151 -0.011308,-0.00634 -0.017578,-0.00781 A 0.57995301,0.57995301 0 0 0 5.9921875,9.703125 Z M 4.2871094,9.753906 a 0.57995301,0.57995301 0 0 0 -0.00781,0.011719 c -0.00938,0.00272 -0.017972,0.00891 -0.027344,0.011719 0.016462,-0.00732 0.012327,-0.015666 0.035156,-0.023437 z m -0.2597657,0.345703 -0.00195,0.03516 a 0.57995301,0.57995301 0 0 0 -0.021484,0.0293 c -1.29e-5,-0.03739 0.018225,-0.03544 0.023437,-0.06445 z m 1.1582032,0.08984 A 0.57995301,0.57995301 0 0 0 5.2714844,10.5 c 0.067495,0.109995 0.1717381,0.257391 0.421875,0.324219 v -0.01563 a 0.57995301,0.57995301 0 0 0 0.021484,0.02539 c 0.06216,0.01296 0.087637,0.09543 0.1484375,0.113282 C 5.6808551,10.894701 5.5155581,10.78723 5.3242187,10.78125 4.9493883,10.769534 4.5650782,10.851096 4.2089844,11.029297 4.3487171,10.95937 4.4916052,10.904879 4.6367187,10.865234 a 0.57995301,0.57995301 0 0 0 0.025391,-0.02148 v 0.0078 c 0.1635329,-0.05567 0.2405318,-0.12559 0.3242187,-0.222657 0.058739,-0.06813 0.092073,-0.20005 0.125,-0.326172 a 0.57995301,0.57995301 0 0 0 0.074219,-0.09766 z m 0.1035156,1.75 c 0.4089562,0.01278 0.7933278,0.23935 0.9960937,0.644531 0.2949875,0.589465 0.070193,1.259572 -0.5195312,1.554688 -0.589633,0.295072 -1.2596148,0.07205 -1.5546875,-0.517578 -0.2950724,-0.589635 -0.072053,-1.259615 0.5175781,-1.554688 0.1847576,-0.09246 0.375116,-0.132749 0.5605469,-0.126953 z m 2.0332031,0.125 c 0.5719361,1.142882 0.1058979,2.539329 -1.0371094,3.111328 1.1410063,-0.570993 1.6082331,-1.970068 1.0371094,-3.111328 z"
       id="path16116" />
  </g>
</svg>
