<?xml version="1.0" encoding="UTF-8" standalone="no"?>
<svg
   version="1.0"
   viewBox="0 0 16 16"
   id="svg1"
   width="16"
   height="16"
   xmlns="http://www.w3.org/2000/svg"
   xmlns:svg="http://www.w3.org/2000/svg">
  <defs
     id="defs1" />
  <path
     d="M 13.134456,0 C 9.8063479,0 9.1691947,4.7447575 11.053541,4.7447575 12.937888,4.7447575 16.476121,0 13.134456,0 Z M 7.9830053,0.57953823 c -0.05287,-1.8267e-4 -0.1087905,0.00366 -0.167761,0.0112519 C 5.9478433,0.83412836 6.601942,4.0815759 7.5990189,4.1493582 8.5649159,4.2083287 9.6257082,0.59079009 7.9819886,0.59079009 Z M 4.7362356,1.867401 C 4.6372736,1.869601 4.5294997,1.893633 4.4115586,1.9423 2.9101818,2.5625079 4.1831324,5.1212879 5.0283771,4.9586105 5.8044838,4.8003389 5.9061572,1.8474052 4.7389469,1.8745181 Z M 2.3435222,3.8839229 C 2.2127024,3.8795171 2.0703597,3.9228977 1.9198831,4.0272824 0.71335911,4.8576149 2.3265766,6.8673586 3.0349011,6.5555603 3.6551087,6.2823978 3.2592604,3.9188308 2.3435222,3.8781614 Z M 9.2234205,5.4259691 C 6.6409168,5.3822495 3.2246914,6.6765516 2.6485423,9.2895573 2.0181674,12.102521 5.231046,16 8.6133803,16 10.263878,16 12.171948,14.51218 12.544751,12.617666 12.816558,11.170515 9.3386504,11.753442 9.4606584,12.707138 9.6107961,13.849269 8.6235476,14.411862 7.6474832,13.676424 4.5633908,11.337937 12.731152,10.151748 12.188894,6.9659818 12.021133,5.9695827 10.768856,5.464605 9.2132532,5.4374921 Z"
     id="path1"
     style="stroke-width:0.338911" />
</svg>
