<?xml version="1.0" encoding="UTF-8" standalone="no"?>
<svg
   height="16"
   viewBox="0 0 16 16"
   width="16"
   version="1.1"
   id="svg4"
   xml:space="preserve"
   xmlns="http://www.w3.org/2000/svg"
   xmlns:svg="http://www.w3.org/2000/svg"><defs
     id="defs8" /><path
     id="path19"
     style="display:inline;fill:#000000;fill-opacity:1;stroke-width:0.142857"
     d="m 6.2857178,4.6e-7 c -0.9508902,0 -1.7142857,0.76339507 -1.7142857,1.71428514 v 0.8571433 c 0,-0.059431 0.00312,-0.1182353 0.00892,-0.1760604 0.00582,-0.057825 0.014303,-0.1145414 0.025671,-0.1704797 0.011368,-0.055939 0.025501,-0.1111287 0.042133,-0.1648999 0.016627,-0.053771 0.035873,-0.106323 0.057476,-0.1576455 0.021606,-0.051321 0.045679,-0.1012406 0.071987,-0.1498321 0.0263,-0.048592 0.054657,-0.095882 0.085379,-0.141462 0.030724,-0.045582 0.063636,-0.089409 0.098494,-0.1316964 0.034858,-0.042289 0.071777,-0.082938 0.1104912,-0.1216522 C 5.1106993,1.3189897 5.1513463,1.2820687 5.193635,1.24721 5.235924,1.212353 5.27975,1.179439 5.3253305,1.148717 5.3709135,1.117993 5.4182025,1.089643 5.4667934,1.063338 5.5153844,1.037037 5.5653034,1.012958 5.6166259,0.991351 5.6679469,0.969745 5.7204998,0.9505 5.7742705,0.933874 5.8280415,0.917247 5.8832318,0.9031044 5.9391696,0.8917409 c 0.055939,-0.0113681 0.112655,-0.019847 0.1704801,-0.0256712 0.057825,-0.00582 0.1166295,-0.008929 0.1760604,-0.008929 0.059431,0 0.1182348,0.003123 0.1760604,0.008929 0.057826,0.00582 0.1145419,0.0143031 0.1704802,0.0256712 0.055939,0.0113681 0.1111287,0.0255013 0.164899,0.0421331 0.053771,0.016627 0.1063234,0.035868 0.1576451,0.057477 0.051322,0.021606 0.101241,0.045684 0.1498325,0.071987 0.048592,0.026305 0.095882,0.054658 0.1414624,0.085379 0.045583,0.030724 0.089409,0.063635 0.1316965,0.098493 0.042289,0.034857 0.082938,0.071777 0.1216516,0.1104907 0.038716,0.038716 0.075632,0.079364 0.1104913,0.1216522 0.034857,0.042289 0.06777,0.086116 0.098493,0.1316964 0.030724,0.045583 0.059075,0.092871 0.08538,0.141462 0.0263,0.048591 0.05038,0.098511 0.071987,0.1498321 0.021606,0.051323 0.040852,0.1038747 0.057477,0.1576455 0.016627,0.053771 0.03077,0.1089612 0.042133,0.1648999 0.011368,0.055938 0.019847,0.1126546 0.025671,0.1704797 0.00582,0.057825 0.00892,0.1166295 0.00892,0.1760604 V 1.7142856 C 7.9999901,0.76339553 7.236595,4.6e-7 6.285704,4.6e-7 Z M 8.0000034,2.5714289 c 0,-0.059431 -0.00312,-0.1182353 -0.00892,-0.1760604 C 7.9852594,2.3375434 7.9767712,2.2808271 7.9654078,2.2248888 7.9540397,2.1689501 7.9399065,2.1137601 7.9232747,2.0599889 7.9066475,2.0062181 7.8874021,1.9536659 7.8657964,1.9023434 7.8441902,1.8510221 7.8201174,1.8011028 7.7938092,1.7525113 7.7675087,1.7039198 7.7391524,1.6566295 7.7084301,1.6110493 7.6777065,1.5654668 7.6447956,1.5216407 7.6099367,1.4793529 7.5750792,1.4370636 7.538159,1.3964151 7.4994455,1.3577007 7.4607344,1.3189896 7.4200817,1.2820688 7.3777938,1.24721 7.3355046,1.2123525 7.2916776,1.1794388 7.2460983,1.1487166 7.2005158,1.1179929 7.1532283,1.0896421 7.1046354,1.0633371 7.0560444,1.0370366 7.006125,1.012957 6.9548024,0.99135034 6.9034808,0.96974414 6.8509281,0.95049884 6.7971574,0.93387294 6.7433866,0.91724574 6.6881966,0.90310336 6.6322584,0.89173989 6.5763201,0.88037182 6.5196038,0.87189285 6.4617782,0.86606872 c -0.057826,-0.00582 -0.1166286,-0.008929 -0.1760595,-0.008929 -0.059431,0 -0.1182353,0.003123 -0.1760609,0.008929 -0.057825,0.00582 -0.1145405,0.0143031 -0.1704801,0.0256712 -0.055938,0.0113681 -0.1111279,0.0255013 -0.1648995,0.0421331 -0.05377,0.016627 -0.1063234,0.035868 -0.1576441,0.057477 C 5.5653111,1.012956 5.5153921,1.037034 5.4668011,1.063337 5.4182101,1.089642 5.3709181,1.117995 5.3253382,1.148716 5.2797552,1.17944 5.2359292,1.212351 5.1936426,1.247209 5.1513536,1.282066 5.1107046,1.318986 5.071991,1.3576997 5.03328,1.3964157 4.996358,1.4370637 4.9614993,1.4793519 c -0.034858,0.042289 -0.067771,0.086116 -0.098494,0.1316964 -0.030724,0.045583 -0.059074,0.092871 -0.085379,0.141462 -0.026305,0.048591 -0.05038,0.098511 -0.071986,0.1498321 -0.021606,0.051323 -0.040852,0.1038747 -0.057477,0.1576455 -0.016627,0.053771 -0.030765,0.1089612 -0.042133,0.1648999 -0.011368,0.055938 -0.019847,0.1126546 -0.025671,0.1704797 -0.00582,0.057825 -0.00892,0.1166295 -0.00892,0.1760604 V 3.4285717 H 1.1428631 C 0.50893403,3.4285717 5.0524756e-6,3.9375012 5.0524756e-6,4.5714284 v 0.8571433 c 0,-0.039621 0.00197505752,-0.078638 0.00586086752,-0.1171876 0.00390419,-0.03855 0.00971913,-0.076546 0.01729784,-0.1138392 0.0075741,-0.037292 0.01682015,-0.074086 0.02790345,-0.1099326 0.01108788,-0.035845 0.02410031,-0.070696 0.03850445,-0.1049106 0.01440415,-0.034219 0.03017706,-0.067774 0.04771191,-0.100168 0.0175321,-0.032391 0.0367131,-0.063642 0.0571986,-0.094029 0.0204809,-0.030384 0.0423306,-0.059978 0.0655687,-0.08817 0.0232414,-0.028193 0.0478515,-0.055106 0.0736614,-0.080915 0.0258044,-0.025804 0.0527226,-0.050422 0.080914,-0.073661 0.0281928,-0.023241 0.0577829,-0.045091 0.0881703,-0.065569 0.0303883,-0.020481 0.0616342,-0.039662 0.0940289,-0.057199 0.032391,-0.017541 0.0659523,-0.033305 0.100169,-0.047712 0.0342145,-0.014404 0.0690627,-0.027421 0.10490915,-0.038509 0.035845,-0.011088 0.0726408,-0.020325 0.10993268,-0.027903 0.0372965,-0.00757 0.0752883,-0.013417 0.1138406,-0.017302 0.03855,-0.0039 0.077567,-0.00586 0.1171866,-0.00586 -0.039621,0 -0.078637,0.00197 -0.1171866,0.00586 -0.038555,0.0039 -0.0765487,0.00972 -0.1138406,0.017302 -0.0372919,0.00757 -0.0740858,0.01682 -0.10993268,0.027903 -0.035845,0.011088 -0.0706952,0.024096 -0.10490915,0.038509 -0.0342144,0.014399 -0.0677753,0.030177 -0.100169,0.047712 -0.032391,0.017537 -0.0636414,0.036718 -0.0940289,0.057199 -0.0303838,0.020481 -0.0599779,0.042331 -0.0881703,0.065569 -0.0281928,0.023237 -0.0551055,0.047852 -0.080914,0.073661 -0.025809,0.025809 -0.0504214,0.052723 -0.0736614,0.080915 -0.0232368,0.028193 -0.0450865,0.057783 -0.0655687,0.08817 -0.0204809,0.030384 -0.0396619,0.061634 -0.0571986,0.094029 -0.0175413,0.032391 -0.033305,0.065953 -0.04771191,0.100168 C 0.07516752,5.0169162 0.0621505,5.0517645 0.05106721,5.0876123 0.03997932,5.1234573 0.03074707,5.1602526 0.02316376,5.1975449 0.01558964,5.2348414 0.00974714,5.2728342 0.00586592,5.3113841 0.00196174,5.3499345 5.0524756e-6,5.3889516 5.0524756e-6,5.4285717 v 2.571428 H 1.7142912 c 0.9508901,0 1.7142861,0.7633955 1.7142861,1.7142862 0,0.1484812 -0.02077,0.2917061 -0.055805,0.4288501 -0.18933,0.741148 -0.8560726,1.285436 -1.658481,1.285436 H 0 v 0.857143 2.571428 C 0,15.49107 0.50892805,16 1.1428571,16 h 3.4285704 v -1.714286 c 0,-0.950891 0.763396,-1.714285 1.7142861,-1.714285 0.9508916,0 1.7142862,0.763394 1.7142862,1.714285 V 16 h 3.4285712 c 0.633927,0 1.142858,-0.50893 1.142858,-1.142857 v -3.428571 h 1.714285 c 0.802408,0 1.469151,-0.544288 1.658483,-1.285436 -0.0097,-0.03807 -0.02052,-0.07574 -0.03264,-0.112723 -0.01213,-0.03698 -0.02569,-0.07329 -0.04018,-0.1090955 -0.01449,-0.0358 -0.03006,-0.070946 -0.04688,-0.1054691 -0.01681,-0.034522 -0.03476,-0.068411 -0.05385,-0.1015625 0.01909,0.033149 0.03704,0.067038 0.05385,0.1015625 0.01682,0.034522 0.03238,0.069667 0.04688,0.1054691 0.01449,0.0358 0.02805,0.07211 0.04018,0.1090955 0.01213,0.03698 0.02293,0.07465 0.03264,0.112723 C 15.979233,10.00599 16,9.8627671 16,9.7142859 16,8.7633957 15.236606,7.9999997 14.285714,7.9999997 h -1.714285 v -2.571428 c 0,-0.039621 -0.002,-0.078638 -0.0059,-0.1171876 -0.0039,-0.03855 -0.0097,-0.076546 -0.0173,-0.1138392 -0.0076,-0.037292 -0.01682,-0.074086 -0.0279,-0.1099326 -0.01109,-0.035845 -0.0241,-0.070696 -0.03851,-0.1049106 -0.0144,-0.034219 -0.03018,-0.067774 -0.04771,-0.100168 -0.01754,-0.032391 -0.03672,-0.063642 -0.0572,-0.094029 -0.02048,-0.030384 -0.04233,-0.059978 -0.06557,-0.08817 -0.02324,-0.028193 -0.04785,-0.055106 -0.07366,-0.080915 -0.02581,-0.025804 -0.05272,-0.050422 -0.08092,-0.073661 -0.02819,-0.023241 -0.05778,-0.045091 -0.08817,-0.065569 -0.03038,-0.020481 -0.06164,-0.039662 -0.09403,-0.057199 -0.03239,-0.017541 -0.06595,-0.033305 -0.100167,-0.047712 -0.03421,-0.014404 -0.06906,-0.027421 -0.104912,-0.038509 -0.03585,-0.011088 -0.07264,-0.020325 -0.109933,-0.027903 -0.03729,-0.00757 -0.07529,-0.013417 -0.113838,-0.017302 -0.03855,-0.0039 -0.07757,-0.00586 -0.117188,-0.00586 0.03962,0 0.07864,0.00197 0.117188,0.00586 0.03855,0.0039 0.07655,0.00972 0.113838,0.017302 0.03729,0.00757 0.07409,0.01682 0.109933,0.027903 0.03585,0.011088 0.0707,0.024096 0.104912,0.038509 0.03421,0.014399 0.06777,0.030177 0.100167,0.047712 0.03239,0.017537 0.06364,0.036718 0.09403,0.057199 0.03038,0.020481 0.05998,0.042331 0.08817,0.065569 0.02819,0.023237 0.05511,0.047852 0.08092,0.073661 0.0258,0.025809 0.05042,0.052723 0.07366,0.080915 0.02324,0.028193 0.04509,0.057783 0.06557,0.08817 0.02048,0.030384 0.03966,0.061634 0.0572,0.094029 0.01753,0.032391 0.03331,0.065953 0.04771,0.100168 0.0144,0.034214 0.02742,0.069063 0.03851,0.1049106 0.01109,0.035845 0.02032,0.07264 0.0279,0.1099326 0.0076,0.037297 0.01341,0.075289 0.0173,0.1138392 0.0039,0.03855 0.0059,0.077567 0.0059,0.1171876 V 4.5714289 c 0,-0.6339277 -0.508931,-1.1428572 -1.142858,-1.1428572 H 7.9999998 Z m 6.2857126,6.2857132 c 0.03985,0 0.07944,0.00129 0.118585,0.0039 0.03914,0.00266 0.07772,0.00678 0.116071,0.012002 0.03835,0.0052 0.07637,0.01157 0.113839,0.019255 0.03747,0.00768 0.07454,0.016434 0.111048,0.026507 -0.03651,-0.010068 -0.07358,-0.018827 -0.111048,-0.026507 -0.03747,-0.00768 -0.07549,-0.014046 -0.113839,-0.019255 -0.03835,-0.00521 -0.07693,-0.00936 -0.116071,-0.012002 -0.03914,-0.00266 -0.07873,-0.0039 -0.118585,-0.0039 z" /><path
     fill="#d9272e"
     d="M 8,0 C 3.581627,0 0,3.581627 0,8 c 0,4.418373 3.581627,8 8,8 4.418373,0 8,-3.581627 8,-8 C 16,3.581627 12.418373,0 8,0 Z m 4.152739,10.828998 c 0,0.137244 -0.11068,0.247925 -0.247924,0.247925 h -1.044826 c -0.137244,0 -0.247925,-0.110681 -0.247925,-0.247925 V 7.610404 c 0,-0.026563 -0.03099,-0.039845 -0.05313,-0.022137 l -2.21361,2.213614 c -0.190371,0.1903707 -0.504704,0.1903707 -0.695075,0 L 5.436635,7.5882673 c -0.01771,-0.01771 -0.05313,-0.00443 -0.05313,0.022137 v 3.2185937 c 0,0.137244 -0.11068,0.247925 -0.247924,0.247925 H 4.090755 c -0.137244,0 -0.247925,-0.110681 -0.247925,-0.247925 V 5.1710017 c 0,-0.137244 0.110681,-0.2479247 0.247925,-0.2479247 h 0.717211 c 0.12839,0 0.256779,0.053127 0.349751,0.1460983 L 7.911452,7.822911 c 0.0487,0.048699 0.123963,0.048699 0.172662,0 L 10.83785,5.0691753 C 10.93082,4.9762033 11.054784,4.923077 11.187601,4.923077 h 0.717211 c 0.137244,0 0.247924,0.1106807 0.247924,0.2479247 z"
     id="path1"
     style="display:none;fill:#000000;fill-opacity:1;stroke-width:0.0442723" /></svg>
