<?xml version="1.0" encoding="UTF-8" standalone="no"?>
<svg
   width="16"
   height="16"
   version="1.1"
   id="svg1"
   xmlns="http://www.w3.org/2000/svg"
   xmlns:svg="http://www.w3.org/2000/svg">
  <defs
     id="defs1" />
  <path
     fill-rule="evenodd"
     clip-rule="evenodd"
     d="M 8.0066182,0 C 3.5791452,0 -3.6238158e-5,3.6055678 -3.6238158e-5,8.0661463 c 0,3.5655777 2.293304838158,6.5837667 5.474726638158,7.6519977 0.3977596,0.08031 0.5434573,-0.173558 0.5434573,-0.387106 0,-0.186999 -0.013111,-0.82797 -0.013111,-1.49582 C 3.7777791,14.31607 3.3139721,12.873679 3.3139721,12.873679 2.9560375,11.938854 2.4256913,11.698592 2.4256913,11.698592 c -0.7289802,-0.494127 0.0531,-0.494127 0.0531,-0.494127 0.8086305,0.05343 1.2329402,0.827969 1.2329402,0.827969 0.7157052,1.228516 1.8689951,0.881398 2.3329661,0.667686 0.066211,-0.52084 0.2784482,-0.881398 0.5037961,-1.081671 -1.7763975,-0.186997 -3.6453926,-0.881396 -3.6453926,-3.9797256 0,-0.8813979 0.3179455,-1.602511 0.8217416,-2.1633405 -0.079486,-0.2002728 -0.3579346,-1.0284065 0.07965,-2.1367913 0,0 0.676044,-0.2137109 2.2003796,0.8279696 A 7.6978868,7.6978868 0 0 1 8.0066183,3.899422 c 0.676044,0 1.3651991,0.09358 2.0015817,0.2671392 1.524499,-1.0416805 2.200542,-0.8279696 2.200542,-0.8279696 0.437585,1.1083848 0.158974,1.9365185 0.07949,2.1367913 0.51707,0.5608295 0.821904,1.2819426 0.821904,2.1633405 0,3.0983296 -1.868994,3.7792896 -3.6586663,3.9797256 0.2917231,0.253702 0.5434573,0.73439 0.5434573,1.495656 0,1.08167 -0.013111,1.949792 -0.013111,2.216769 0,0.213712 0.145861,0.467576 0.543457,0.387434 C 13.706695,14.649749 16,11.631724 16,8.0661463 16.01311,3.6055678 12.420818,0 8.0066214,0 Z"
     fill="#ffffff"
     id="path1"
     style="fill:#000000;fill-opacity:1;stroke-width:0.164;stroke-dasharray:none" />
</svg>
