<?xml version="1.0" encoding="UTF-8" standalone="no"?>
<svg
   version="1.1"
   viewBox="0 0 16 16"
   id="svg1"
   width="16"
   height="16"
   xmlns="http://www.w3.org/2000/svg"
   xmlns:svg="http://www.w3.org/2000/svg">
  <defs
     id="defs1" />
  <path
     d="M 3.9501761,2.0002187e-4 1.250054,2.6667224 V 16 h 5.8436425 c 0.1985326,4.01e-4 0.2528557,4.01e-4 0.2905321,-0.101079 0.037777,-0.101387 0.3795651,-1.814992 0.4213983,-1.885225 0.080993,-0.12941 0.9800959,-0.516098 1.1679619,-0.415032 0.06897,0.03827 1.3884612,1.118996 1.4545612,1.158196 0.03146,0.01866 0.06434,0.02428 0.118653,0.02003 0.148916,-0.009 1.425927,-1.044763 1.437993,-1.061996 0.01572,-0.02013 0.03132,-0.06911 0.03418,-0.10791 0.0154,-0.136279 -0.65113,-1.758293 -0.663097,-1.872059 0.05944,-0.310105 0.310838,-0.565197 0.501965,-0.816397 0.05002,-0.05604 0.135783,-0.09324 0.215825,-0.0918 0.608198,0.05531 1.215095,0.12519 1.82226,0.19092 l 0.06152,-0.02735 c 0.03288,-0.0158 0.07115,-0.03986 0.08545,-0.05566 0.02,-0.02299 0.52013,-1.3711935 0.60303,-1.6254591 0.03144,-0.0934 0.01187,-0.1723459 -0.06104,-0.2470656 -0.145374,-0.1534761 -1.484494,-1.0569289 -1.558094,-1.2197283 -0.0684,-0.1267995 -0.01583,-0.7768301 0.06005,-0.888163 0.08929,-0.1286694 1.423328,-0.7390636 1.527827,-0.8207967 0.125832,-0.0984 0.135256,-0.294692 0.135256,-0.3334985 V -4.6695373e-5 Z m 0,2.66652237813 H 12.04981 V 5.3336447 H 6.6498317 V 7.3336364 H 9.3499538 V 9.7334931 H 6.6498317 V 13.333479 H 3.9501095 Z"
     id="path1"
     style="stroke-width:0.333331" />
</svg>
