<?xml version="1.0" encoding="UTF-8" standalone="no"?>
<svg
   height="16px"
   viewBox="0 0 16 16"
   width="16px"
   version="1.1"
   id="svg15572"
   xmlns="http://www.w3.org/2000/svg"
   xmlns:svg="http://www.w3.org/2000/svg">
  <defs
     id="defs15576" />
  <g
     id="g1067"
     transform="matrix(0.07140474,0,0,0.07140474,-3.6416415,-4.2941115)"
     style="fill:#000000">
    <path
       fill="#ffffff"
       d="m 153,274.175 c -56.243,0 -102,-45.757 -102,-102 0,-56.243 45.757,-102 102,-102 36.292,0 70.139,19.53 88.331,50.968 l -44.143,25.544 C 188.083,130.951 171.15,121.175 153,121.175 c -28.122,0 -51,22.878 -51,51 0,28.121 22.878,51 51,51 18.152,0 35.085,-9.776 44.191,-25.515 l 44.143,25.543 c -18.192,31.441 -52.04,50.972 -88.334,50.972 z"
       id="path1065"
       style="fill:#000000" />
  </g>
  <g
     id="g1071"
     transform="matrix(0.07140474,0,0,0.07140474,-5.2429102,-4.2941115)"
     style="fill:#000000">
    <polygon
       fill="#ffffff"
       points="232.334,189.175 243.666,189.175 243.666,177.841 255,177.841 255,166.508 243.666,166.508 243.666,155.175 232.334,155.175 232.334,166.508 221,166.508 221,177.841 232.334,177.841 "
       id="polygon1069"
       style="fill:#000000" />
  </g>
  <g
     id="g1075"
     transform="matrix(0.07140474,0,0,0.07140474,-5.2429102,-4.2941115)"
     style="fill:#000000">
    <polygon
       fill="#ffffff"
       points="274.834,189.175 286.166,189.175 286.166,177.841 297.5,177.841 297.5,166.508 286.166,166.508 286.166,155.175 274.834,155.175 274.834,166.508 263.5,166.508 263.5,177.841 274.834,177.841 "
       id="polygon1073"
       style="fill:#000000" />
  </g>
</svg>
