<?xml version="1.0" encoding="UTF-8" standalone="no"?>
<svg
   height="16px"
   viewBox="0 0 16 16"
   width="16px"
   version="1.1"
   id="svg15572"
   xmlns="http://www.w3.org/2000/svg"
   xmlns:svg="http://www.w3.org/2000/svg">
  <defs
     id="defs15576" />
  <path
     id="rect4665-8"
     style="fill:#000000;fill-opacity:1;stroke-width:1"
     d="M 2.46875,0 C 1.377552,0 0.5,0.877552 0.5,1.96875 v 12.0625 C 0.5,15.122448 1.377552,16 2.46875,16 H 14.5 c 0.553999,0 1,-0.446001 1,-1 V 4 c 0,-0.553999 -0.446001,-1 -1,-1 h -12 c -0.553999,0 -1,-0.446001 -1,-1 0,-0.553999 0.446001,-1 1,-1 h 12 c 0,-0.558559 -0.441441,-1 -1,-1 z m 7.614258,5.0078125 c 0.23552,-9.8e-5 0.424804,0.1892845 0.424804,0.4248045 0,0.2355205 -0.189284,0.425684 -0.424804,0.4257815 l -4.166016,0.001 C 5.681474,5.8594945 5.492187,5.670114 5.492187,5.434594 c 0,-0.2355205 0.189287,-0.4247095 0.424805,-0.424805 z m -6.158204,2.8515625 8.150391,0.0039 C 12.310715,7.863395 12.5,8.053542 12.5,8.2890625 12.5,8.524583 12.310715,8.713981 12.075195,8.713867 L 3.924804,8.709967 C 3.689285,8.709847 3.5,8.520676 3.5,8.2851565 3.5,8.049636 3.689285,7.859261 3.924804,7.859375 Z" />
</svg>
