<?xml version="1.0" encoding="UTF-8" standalone="no"?>
<svg
   height="16px"
   viewBox="0 0 16 16"
   width="16px"
   version="1.1"
   id="svg15572"
   xmlns="http://www.w3.org/2000/svg"
   xmlns:svg="http://www.w3.org/2000/svg">
  <defs
     id="defs15576" />
  <g
     id="g1876"
     transform="matrix(0.07916076,0,0,0.07916076,23.52733,1.6814485)"
     style="fill:#000000;fill-opacity:1">
    <path
       d="m -128.77336,52.487249 v 13.47368 h 13.47368 v -13.47368 h 6.73684 v 13.47368 h 13.47369 v 6.73684 h -13.47369 v 13.47369 h 13.47369 v 6.73684 h -13.47369 v 13.473681 h -6.73684 V 92.908299 h -13.47368 v 13.473681 h -6.73685 V 92.908299 h -13.47368 v -6.73684 h 13.47368 v -13.47369 h -13.47368 v -6.73684 h 13.47368 v -13.47368 z m 13.47368,20.21052 h -13.47368 v 13.47369 h 13.47368 z"
       fill="#ffffff"
       id="path1673"
       style="fill:#000000;fill-opacity:1" />
    <path
       d="m -202.20894,-15.180885 c 35.14377,0 65.82713,19.086298 82.26181,47.456067 l -0.16037,-0.273067 -41.34857,23.808284 c -8.14666,-13.79361 -23.08148,-23.102088 -40.21324,-23.293788 l -0.53963,-0.003 c -26.12557,0 -47.30608,21.179388 -47.30608,47.304968 0,8.54361 2.27778,16.5522 6.23898,23.469471 8.1541,14.23525 23.4829,23.83661 41.0671,23.83661 17.69277,0 33.10889,-9.72336 41.22157,-24.11084 l -0.19713,0.34532 41.28649,23.91803 c -16.2544,28.12956 -46.51741,47.15695 -81.2527,47.53619 l -1.05823,0.006 c -35.25458,0 -66.02525,-19.20383 -82.41851,-47.72358 -8.00299,-13.92297 -12.58205,-30.064391 -12.58205,-47.276981 0,-52.466058 42.53227,-94.999446 95.00056,-94.999446 z"
       fill="#ffffff"
       fill-rule="nonzero"
       id="path1675"
       style="fill:#000000;fill-opacity:1" />
  </g>
</svg>
