<?xml version="1.0" encoding="UTF-8" standalone="no"?>
<svg
   xml:space="preserve"
   width="16"
   height="16"
   viewBox="0 0 16 15.999999"
   version="1.1"
   id="svg2"
   xmlns="http://www.w3.org/2000/svg"
   xmlns:svg="http://www.w3.org/2000/svg"><defs
   id="defs2" />
  <path
   fill="#d9272e"
   d="M 8,0 C 3.581627,0 0,3.581627 0,8 c 0,4.418373 3.581627,8 8,8 4.418373,0 8,-3.581627 8,-8 C 16,3.581627 12.418373,0 8,0 Z m 4.152739,10.828998 c 0,0.137244 -0.11068,0.247925 -0.247924,0.247925 h -1.044826 c -0.137244,0 -0.247925,-0.110681 -0.247925,-0.247925 V 7.610404 c 0,-0.026563 -0.03099,-0.039845 -0.05313,-0.022137 L 8.3453237,9.801881 c -0.1903707,0.1903707 -0.504704,0.1903707 -0.6950747,0 L 5.4366353,7.5882673 c -0.01771,-0.01771 -0.053127,-0.00443 -0.053127,0.022137 v 3.2185937 c 0,0.137244 -0.1106807,0.247925 -0.2479247,0.247925 H 4.090758 c -0.137244,0 -0.2479247,-0.110681 -0.2479247,-0.247925 V 5.1710017 c 0,-0.137244 0.1106807,-0.2479247 0.2479247,-0.2479247 h 0.717211 c 0.1283897,0 0.2567793,0.053127 0.349751,0.1460983 L 7.9114553,7.822911 c 0.0487,0.048699 0.1239624,0.048699 0.172662,0 L 10.837853,5.0691753 c 0.09297,-0.092972 0.216934,-0.1460983 0.349751,-0.1460983 h 0.717211 c 0.137244,0 0.247924,0.1106807 0.247924,0.2479247 z"
   id="path1"
   style="stroke-width:0.0442723;fill:#000000;fill-opacity:1" />
  
</svg>
