<?xml version="1.0" encoding="UTF-8" standalone="no"?>
<svg
   height="16"
   viewBox="0 0 16 16"
   width="16"
   version="1.1"
   id="svg5248"
   xml:space="preserve"
   xmlns:xlink="http://www.w3.org/1999/xlink"
   xmlns="http://www.w3.org/2000/svg"
   xmlns:svg="http://www.w3.org/2000/svg"><defs
     id="defs5252"><linearGradient
       xlink:href="#linearGradient2023"
       id="linearGradient2025"
       x1="2689.252"
       y1="-1106.803"
       x2="2918.0698"
       y2="-1106.803"
       gradientUnits="userSpaceOnUse"
       gradientTransform="matrix(0.45451006,0,0,0.45552152,-1210.2921,616.15659)" /><linearGradient
       id="linearGradient2023"><stop
         style="stop-color:#62a0ea;stop-opacity:1;"
         offset="0"
         id="stop2019" /><stop
         style="stop-color:#afd4ff;stop-opacity:1;"
         offset="0.05769911"
         id="stop2795" /><stop
         style="stop-color:#62a0ea;stop-opacity:1;"
         offset="0.12220427"
         id="stop2797" /><stop
         style="stop-color:#62a0ea;stop-opacity:1;"
         offset="0.87330586"
         id="stop2793" /><stop
         style="stop-color:#c0d5ea;stop-opacity:1;"
         offset="0.95599729"
         id="stop2791" /><stop
         style="stop-color:#62a0ea;stop-opacity:1;"
         offset="1"
         id="stop2021" /></linearGradient><clipPath
       id="clip0"><rect
         x="0"
         y="0"
         width="1280"
         height="1280"
         id="rect1" /></clipPath></defs><linearGradient
     id="a"
     gradientUnits="userSpaceOnUse"
     x1="11.999989"
     x2="115.99999"
     y1="64"
     y2="64"><stop
       offset="0"
       stop-color="#3d3846"
       id="stop5214" /><stop
       offset="0.05"
       stop-color="#77767b"
       id="stop5216" /><stop
       offset="0.1"
       stop-color="#5e5c64"
       id="stop5218" /><stop
       offset="0.899999"
       stop-color="#504e56"
       id="stop5220" /><stop
       offset="0.95"
       stop-color="#77767b"
       id="stop5222" /><stop
       offset="1"
       stop-color="#3d3846"
       id="stop5224" /></linearGradient><linearGradient
     id="b"
     gradientUnits="userSpaceOnUse"
     x1="12"
     x2="112.04102"
     y1="60"
     y2="80.988281"><stop
       offset="0"
       stop-color="#77767b"
       id="stop5227" /><stop
       offset="0.384443"
       stop-color="#9a9996"
       id="stop5229" /><stop
       offset="0.720567"
       stop-color="#77767b"
       id="stop5231" /><stop
       offset="1"
       stop-color="#68666f"
       id="stop5233" /></linearGradient><path
     id="path2"
     d="M 5.286214,1.2131692e-4 C 5.2616543,9.3620105e-4 5.2370068,0.00874551 5.2156002,0.02423736 5.1585176,0.06554746 5.1457416,0.14523226 5.1870476,0.20231399 L 5.9742112,1.2900666 C 4.5983844,1.8653005 3.6680429,3.0152768 3.6893132,4.3320309 L 12.24837,4.2888148 c 0,-0.01446 -1.97e-4,-0.02896 -3.94e-4,-0.043411 C 12.227287,2.9640292 11.311341,1.858226 9.9775576,1.2954688 L 10.76858,0.20231399 c 0.04131,-0.0570822 0.02853,-0.13676563 -0.02855,-0.17807663 -0.05708,-0.0413101 -0.136959,-0.02853 -0.17827,0.02855716 L 9.7315699,1.1999698 C 9.1777905,1.0013396 8.5619953,0.89281466 7.9139541,0.89938172 7.3104088,0.90549788 6.7380406,1.0107361 6.2202007,1.1945681 L 5.3936782,0.05279452 C 5.36786,0.01711618 5.3271506,-0.00119925 5.2862154,1.240332e-4 Z M 6.1765963,2.2649541 c 0.2387841,0 0.4323612,0.1908617 0.4323612,0.4261871 0,0.2353255 -0.1935771,0.4259948 -0.4323612,0.4259948 -0.2387842,0 -0.4323613,-0.1906693 -0.4323613,-0.4259948 0,-0.2353254 0.1935771,-0.4261871 0.4323613,-0.4261871 z m 3.6155521,0 c 0.2422436,0 0.4385356,0.1908617 0.4385356,0.4261871 0,0.2353255 -0.196292,0.4259948 -0.4385356,0.4259948 -0.2422424,0 -0.4387282,-0.1906693 -0.4387282,-0.4259948 0,-0.2353254 0.1964858,-0.4261871 0.4387282,-0.4261871 z M 3.6889275,4.9970687 v 6.9227983 c 0,0.45387 0.3680207,0.821891 0.8218912,0.821891 h 0.8325029 v 2.349723 C 5.3433216,15.593261 5.7500474,16 6.2518399,16 6.7536325,16 7.1603588,15.593261 7.1603588,15.091481 v -2.349723 h 1.6667423 v 2.349723 C 8.8271011,15.593261 9.2338274,16 9.7356199,16 10.237412,16 10.644331,15.593261 10.644331,15.091481 v -2.349723 h 0.782147 c 0.45387,0 0.821892,-0.368021 0.821892,-0.821891 V 4.9970687 Z m 10.1447675,0 c -0.50178,0 -0.908711,0.4067263 -0.908711,0.9085183 v 4.0477206 c 0,0.5017924 0.406931,0.9087114 0.908711,0.9087114 0.50178,0 0.908518,-0.406919 0.908518,-0.9087114 V 5.905587 c 0,-0.501792 -0.406738,-0.9085183 -0.908518,-0.9085183 z M 2.1663047,5.0221535 c -0.5017925,0 -0.9085179,0.4067259 -0.9085179,0.9085184 v 4.0477206 c 0,0.5017925 0.4067254,0.9087115 0.9085179,0.9087115 0.5017926,0 0.9087113,-0.406919 0.9087113,-0.9087115 V 5.9306719 c 0,-0.5017925 -0.4069187,-0.9085184 -0.9087113,-0.9085184 z"
     style="overflow:hidden;fill:#000000;fill-opacity:1;stroke-width:0.012532" /></svg>
