<?xml version="1.0" encoding="UTF-8" standalone="no"?>
<svg
   version="1.1"
   viewBox="0 0 16 16"
   id="svg1"
   width="16"
   height="16"
   xmlns="http://www.w3.org/2000/svg"
   xmlns:svg="http://www.w3.org/2000/svg">
  <defs
     id="defs1" />
  <path
     d="m 13.700818,4e-7 c -0.936082,0 -1.698938,0.75619407 -1.698938,1.6922757 0,0.9360813 0.759525,1.6922753 1.698938,1.6922753 0.936082,0 1.698939,-0.756194 1.698939,-1.6922753 C 15.399757,0.75619447 14.64023,4e-7 13.700818,4e-7 Z M 0.47575181,3.564439 c 0.21719642,0.2171964 0.35644392,0.4630438 0.41640642,0.7428689 0.0333114,0.1559014 0.04997,0.449719 0.04997,0.8761191 v 9.194252 c -1.77e-6,0.429732 -0.0166675,0.719551 -0.04997,0.876119 -0.061295,0.27848 -0.20054074,0.526339 -0.41640642,0.742869 H 4.406628 C 4.0948228,15.684864 3.9402528,15.140536 3.9402528,14.367684 v -3.331249 l 2.4118257,3.291277 c 0.4230687,0.579636 0.6329376,1.022693 0.6329376,1.329168 -8.2e-6,0.10027 -0.016667,0.214199 -0.04997,0.34312 h 4.2973149 c -0.178222,-0.139249 -0.31447,-0.258839 -0.409744,-0.359776 -0.349781,-0.389756 -0.6396,-0.739537 -0.8694563,-1.052676 L 6.1888473,9.4241094 9.3268854,5.5265458 C 9.6496837,5.1267956 9.876542,4.8503019 10.00313,4.7003955 10.48283,4.1274204 10.879248,3.7509891 11.195717,3.5744327 H 6.9983413 c 0.027818,0.066959 0.041639,0.1559014 0.041639,0.2671664 -8.3e-6,0.306142 -0.2448468,0.7695189 -0.7362064,1.3858002 L 3.9086058,8.2588379 V 5.1940871 C 3.9086014,4.4245679 4.0645084,3.8849053 4.374981,3.5750991 Z M 11.86863,6.8623775 c 0.04597,0.051634 0.08761,0.1042676 0.12459,0.1582349 0.03731,0.053967 0.07029,0.1089315 0.0986,0.1652293 0.02853,0.056298 0.05263,0.1139288 0.07229,0.1728904 0.01982,0.058631 0.03531,0.1189261 0.0463,0.1798878 0.0056,0.029205 0.01047,0.067292 0.01466,0.1142622 0.0042,0.04697 0.0077,0.1029342 0.0105,0.1675627 0.0056,0.1295845 0.0083,0.2944834 0.0083,0.4963564 v 6.1961268 c -10e-7,0.20054 -0.0027,0.366439 -0.0083,0.496357 -0.0028,0.06528 -0.0063,0.121923 -0.0105,0.16989 -0.0042,0.04797 -0.0091,0.08761 -0.01466,0.117941 -0.0056,0.0313 -0.01207,0.0623 -0.01991,0.09295 -0.0078,0.03062 -0.01673,0.06062 -0.02681,0.09062 -0.01009,0.02991 -0.02139,0.05962 -0.03364,0.08862 -0.01236,0.0292 -0.02605,0.05797 -0.04064,0.08661 -0.02921,0.05696 -0.06296,0.112602 -0.101271,0.166911 -0.03831,0.05431 -0.08095,0.107262 -0.128254,0.158562 h 3.664376 c -0.04729,-0.05162 -0.08995,-0.104607 -0.128236,-0.158562 -0.03832,-0.05431 -0.07195,-0.109917 -0.101274,-0.166911 -0.01475,-0.02862 -0.02802,-0.05729 -0.0403,-0.08661 -0.01239,-0.0292 -0.0236,-0.05897 -0.03363,-0.08862 -0.01003,-0.02991 -0.01888,-0.05997 -0.02684,-0.09062 -0.008,-0.03062 -0.01475,-0.06163 -0.02006,-0.09295 -0.0056,-0.03062 -0.01033,-0.06994 -0.01475,-0.117941 -0.0041,-0.04797 -0.0077,-0.104607 -0.01062,-0.16989 -0.0056,-0.130921 -0.0083,-0.29648 -0.0083,-0.496357 V 6.8510513 Z"
     id="path1"
     style="stroke-width:0.333125" />
</svg>
