<?xml version="1.0" encoding="UTF-8" standalone="no"?>
<svg
   height="16"
   viewBox="0 0 16 16"
   width="16"
   version="1.1"
   id="svg15572"
   xml:space="preserve"
   xmlns="http://www.w3.org/2000/svg"
   xmlns:svg="http://www.w3.org/2000/svg"><defs
     id="defs15576" /><g
     style="fill:#000000"
     id="g381"
     transform="matrix(0.63227777,0,0,0.63227777,0.41274819,0.41279142)"><path
       d="m 8.851,18.56 c 0,0 -0.917,0.534 0.653,0.714 1.902,0.218 2.874,0.187 4.969,-0.211 0,0 0.552,0.346 1.321,0.646 C 11.095,21.722 5.161,19.591 8.851,18.56 M 8.276,15.933 c 0,0 -1.028,0.761 0.542,0.924 2.032,0.209 3.636,0.227 6.413,-0.308 0,0 0.384,0.389 0.987,0.602 -5.679,1.661 -12.007,0.13 -7.942,-1.218 m 4.84,-4.458 c 1.158,1.333 -0.304,2.533 -0.304,2.533 0,0 2.939,-1.518 1.589,-3.418 -1.261,-1.772 -2.228,-2.652 3.007,-5.688 0,-0.001 -8.216,2.051 -4.292,6.573 m 6.214,9.029 c 0,0 0.679,0.559 -0.747,0.991 -2.712,0.822 -11.288,1.069 -13.669,0.033 -0.856,-0.373 0.75,-0.89 1.254,-0.998 0.527,-0.114 0.828,-0.093 0.828,-0.093 -0.953,-0.671 -6.156,1.317 -2.643,1.887 9.58,1.553 17.462,-0.7 14.977,-1.82 M 9.292,13.21 c 0,0 -4.362,1.036 -1.544,1.412 1.189,0.159 3.561,0.123 5.77,-0.062 1.806,-0.152 3.618,-0.477 3.618,-0.477 0,0 -0.637,0.272 -1.098,0.587 C 11.609,15.835 3.052,15.293 5.516,14.102 7.598,13.096 9.292,13.21 9.292,13.21 m 7.824,4.374 c 4.503,-2.34 2.421,-4.589 0.968,-4.285 -0.355,0.074 -0.515,0.138 -0.515,0.138 0,0 0.132,-0.207 0.385,-0.297 2.875,-1.011 5.086,2.981 -0.928,4.562 0,-0.001 0.07,-0.062 0.09,-0.118 M 14.401,0 c 0,0 2.494,2.494 -2.365,6.33 C 8.14,9.407 11.148,11.162 12.035,13.166 9.761,11.113 8.092,9.308 9.211,7.627 10.855,5.158 15.408,3.962 14.401,0 M 9.734,23.924 c 4.322,0.277 10.959,-0.153 11.116,-2.198 0,0 -0.302,0.775 -3.572,1.391 -3.688,0.694 -8.239,0.613 -10.937,0.168 0,-0.001 0.553,0.457 3.393,0.639"
       id="path372" /></g></svg>
