<?xml version="1.0" encoding="UTF-8" standalone="no"?>
<svg
   height="16px"
   viewBox="0 0 16 16"
   width="16px"
   version="1.1"
   id="svg15572"
   xmlns="http://www.w3.org/2000/svg"
   xmlns:svg="http://www.w3.org/2000/svg">
  <defs
     id="defs15576" />
  <path
     id="path8670-3"
     d="m 8.011935,4.357899 c -1.666653,0 -3.06664,1.1413245 -3.494239,2.6770453 C 4.144369,6.2136132 3.322775,5.6316219 2.368114,5.6316219 1.06879,5.6318242 0,6.7004128 0,8.000003 c -2.0299165e-4,1.2999867 1.068392,2.368513 2.36798,2.368778 0.954925,-2.02e-4 1.775984,-0.5826633 2.149315,-1.4039864 0.427467,1.5357144 1.827721,2.6773064 3.494904,2.6773064 1.657854,2.02e-4 3.050644,-1.128921 3.487036,-2.6514411 0.379334,0.8061233 1.18839,1.3778561 2.131986,1.3779811 1.299988,0 2.368911,-1.0687888 2.368779,-2.3689112 C 16,6.6997431 14.931337,5.6312231 13.631487,5.6314903 12.687759,5.6316927 11.87817,6.20348 11.498973,7.0096112 11.062442,5.4869576 9.670053,4.3576259 8.012337,4.357899 Z m 0,1.3902514 a 2.2413145,2.2413139 0 0 1 2.251977,2.251713 c 0,1.2519893 -0.999989,2.2522496 -2.251977,2.2519846 A 2.2413145,2.2413139 0 0 1 5.760488,7.9998634 c 0,-1.2519893 0.999987,-2.2515796 2.251576,-2.251713 z M 2.36798,7.0217435 c 0.54853,0 0.977995,0.4295958 0.978127,0.9779863 0,0.5485302 -0.429328,0.9786642 -0.977993,0.9786642 -0.548398,0 -0.977995,-0.430134 -0.977854,-0.9786642 0,-0.5483905 0.429591,-0.9779863 0.977986,-0.9779863 z m 11.263241,0 c 0.548525,0 0.978389,0.4293247 0.978389,0.9779863 0,0.5486698 -0.429727,0.9786642 -0.978389,0.9786642 -0.54853,0 -0.978125,-0.430134 -0.977993,-0.9786642 0,-0.5483905 0.429597,-0.9779863 0.977993,-0.9779863 z"
     style="color:#000000;text-indent:0;text-decoration:none;text-decoration-line:none;text-decoration-style:solid;text-decoration-color:#000000;text-transform:none;white-space:normal;display:inline;isolation:auto;mix-blend-mode:normal;fill:#000000;fill-opacity:1;stroke-width:0.202342;enable-background:new" />
</svg>
