<?xml version="1.0" encoding="UTF-8" standalone="no"?>
<svg
   width="16"
   height="16"
   version="1.1"
   id="svg8"
   xmlns:xlink="http://www.w3.org/1999/xlink"
   xmlns="http://www.w3.org/2000/svg"
   xmlns:svg="http://www.w3.org/2000/svg">
  <defs
     id="defs12">
    <filter
       style="color-interpolation-filters:sRGB"
       id="filter1302"
       x="-0.012000846"
       width="1.0240017"
       y="-0.011999155"
       height="1.0239983">
      <feGaussianBlur
         stdDeviation="2.0803224"
         id="feGaussianBlur1304" />
    </filter>
    <linearGradient
       id="bg-gradient-2">
      <stop
         style="stop-color:#3584e4;stop-opacity:1"
         offset="0"
         id="stop13402" />
      <stop
         style="stop-color:#62a0ea;stop-opacity:1"
         offset="1"
         id="stop13404" />
    </linearGradient>
    <clipPath
       clipPathUnits="userSpaceOnUse"
       id="clipPath1509">
      <path
         id="path1511"
         d="M 192,-164 H 88 c 0,0 -40,0 -40,40 V 4 h 416 v -96 c 0,0 0,-40 -40,-40 H 224 Z"
         style="display:inline;opacity:1;vector-effect:none;fill:#c9b8a7;fill-opacity:1;stroke:none;stroke-width:26.06693268;stroke-linecap:butt;stroke-linejoin:miter;stroke-miterlimit:4;stroke-dasharray:none;stroke-dashoffset:0;stroke-opacity:1;marker:none;marker-start:none;marker-mid:none;marker-end:none;paint-order:normal;enable-background:new" />
    </clipPath>
    <filter
       style="color-interpolation-filters:sRGB"
       id="filter1529"
       x="-0.10846153"
       width="1.2169231"
       y="-0.13428571"
       height="1.2685714">
      <feGaussianBlur
         stdDeviation="18.8"
         id="feGaussianBlur1531" />
    </filter>
    <linearGradient
       id="linearGradient888">
      <stop
         style="stop-color:#99c1f1;stop-opacity:1"
         offset="0"
         id="stop884" />
      <stop
         style="stop-color:#c3e5e7;stop-opacity:1"
         offset="1"
         id="stop886" />
    </linearGradient>
    <linearGradient
       id="bg-gradient">
      <stop
         style="stop-color:#3584e4;stop-opacity:1"
         offset="0"
         id="stop9546" />
      <stop
         style="stop-color:#1a5fb4;stop-opacity:1"
         offset="1"
         id="stop9548" />
    </linearGradient>
    <linearGradient
       id="linearGradient6886">
      <stop
         style="stop-color:#99c1f1;stop-opacity:1"
         offset="0"
         id="stop6882" />
      <stop
         style="stop-color:#5293e2;stop-opacity:1;"
         offset="0.6587584"
         id="stop15892" />
      <stop
         style="stop-color:#1c71d8;stop-opacity:1"
         offset="1"
         id="stop6884" />
    </linearGradient>
    <clipPath
       clipPathUnits="userSpaceOnUse"
       id="clipPath2054">
      <path
         id="path2052"
         d="M 192,-164 H 88 c 0,0 -40,0 -40,40 V 4 h 416 v -96 c 0,0 0,-40 -40,-40 H 224 Z"
         style="display:inline;opacity:1;vector-effect:none;fill:#c9b8a7;fill-opacity:1;stroke:none;stroke-width:26.06693268;stroke-linecap:butt;stroke-linejoin:miter;stroke-miterlimit:4;stroke-dasharray:none;stroke-dashoffset:0;stroke-opacity:1;marker:none;marker-start:none;marker-mid:none;marker-end:none;paint-order:normal;enable-background:new" />
    </clipPath>
    <linearGradient
       xlink:href="#bg-gradient-2"
       id="linearGradient2711"
       gradientUnits="userSpaceOnUse"
       x1="64"
       y1="756"
       x2="480"
       y2="756" />
    <linearGradient
       xlink:href="#linearGradient888"
       id="linearGradient2713"
       gradientUnits="userSpaceOnUse"
       x1="152.89844"
       y1="-38.796875"
       x2="447.30859"
       y2="316" />
    <linearGradient
       xlink:href="#bg-gradient"
       id="linearGradient2715"
       gradientUnits="userSpaceOnUse"
       x1="562"
       y1="669.5"
       x2="606"
       y2="669.5" />
    <linearGradient
       xlink:href="#linearGradient888"
       id="linearGradient2717"
       gradientUnits="userSpaceOnUse"
       x1="579.5"
       y1="-180.5"
       x2="588.26953"
       y2="-142.25195" />
    <linearGradient
       xlink:href="#bg-gradient"
       id="linearGradient2719"
       gradientUnits="userSpaceOnUse"
       x1="562"
       y1="669.5"
       x2="606"
       y2="669.5" />
    <linearGradient
       xlink:href="#bg-gradient"
       id="linearGradient2721"
       gradientUnits="userSpaceOnUse"
       x1="562"
       y1="669.5"
       x2="606"
       y2="669.5" />
    <linearGradient
       xlink:href="#bg-gradient"
       id="linearGradient2723"
       gradientUnits="userSpaceOnUse"
       x1="562"
       y1="669.5"
       x2="606"
       y2="669.5" />
    <linearGradient
       xlink:href="#linearGradient888"
       id="linearGradient2725"
       gradientUnits="userSpaceOnUse"
       x1="572"
       y1="-54"
       x2="576.78149"
       y2="-37" />
    <linearGradient
       xlink:href="#linearGradient888"
       id="linearGradient2727"
       gradientUnits="userSpaceOnUse"
       x1="567.25684"
       y1="-11.010918"
       x2="571.86932"
       y2="4.0000186" />
    <linearGradient
       xlink:href="#linearGradient6886"
       id="linearGradient2729"
       gradientUnits="userSpaceOnUse"
       gradientTransform="translate(60)"
       x1="528"
       y1="-140"
       x2="518"
       y2="-184" />
    <linearGradient
       xlink:href="#linearGradient888"
       id="linearGradient2731"
       gradientUnits="userSpaceOnUse"
       x1="582.26953"
       y1="-110.24316"
       x2="587.37695"
       y2="-86" />
    <linearGradient
       xlink:href="#linearGradient6886"
       id="linearGradient2733"
       gradientUnits="userSpaceOnUse"
       x1="576"
       y1="-80"
       x2="568"
       y2="-112" />
    <linearGradient
       xlink:href="#linearGradient6886"
       id="linearGradient2735"
       gradientUnits="userSpaceOnUse"
       x1="572"
       y1="818"
       x2="566"
       y2="795" />
    <linearGradient
       xlink:href="#linearGradient6886"
       id="linearGradient2737"
       gradientUnits="userSpaceOnUse"
       x1="568.5"
       y1="858"
       x2="565.5"
       y2="842.5" />
  </defs>
  <g
     id="g2172"
     transform="translate(0,852)">
    <g
       id="use6465"
       style="display:inline;fill:#c9b8a7;fill-opacity:1;stroke:#a08f7f;stroke-opacity:1;enable-background:new"
       transform="translate(6399.9999)">
      <g
         transform="matrix(4,0,0,4,16.000006,-6796)"
         style="display:inline;enable-background:new"
         id="g2675">
        <title
           id="title2657">folder</title>
        <rect
           y="1642"
           x="-1.5000001e-06"
           height="128"
           width="128"
           id="rect2659"
           style="display:inline;opacity:1;vector-effect:none;fill:none;fill-opacity:1;stroke:none;stroke-width:5;stroke-linecap:butt;stroke-linejoin:miter;stroke-miterlimit:4;stroke-dasharray:none;stroke-dashoffset:0;stroke-opacity:1;marker:none;marker-start:none;marker-mid:none;marker-end:none;paint-order:normal;enable-background:new" />
        <g
           transform="matrix(0.25,0,0,0.25,-1.5e-6,1695)"
           id="g2673">
          <path
             id="path2661"
             d="m 88,-162 c 0,0 -40,0 -40,40 L 47.964844,6 h 0.0332 L 47.964844,254.0938 424,254 c 40,0 40,-40 40,-40 V 6 -42 -90 c 0,0 0,-40 -40,-40 H 224 l -32,-32 z"
             style="display:inline;opacity:0.2;vector-effect:none;fill:#000000;fill-opacity:1;stroke:none;stroke-width:26.0669;stroke-linecap:butt;stroke-linejoin:miter;stroke-miterlimit:4;stroke-dasharray:none;stroke-dashoffset:0;stroke-opacity:1;marker:none;marker-start:none;marker-mid:none;marker-end:none;paint-order:normal;filter:url(#filter1302);enable-background:new" />
          <path
             style="display:inline;opacity:1;vector-effect:none;fill:url(#linearGradient2711);fill-opacity:1;stroke:none;stroke-width:26.0669;stroke-linecap:butt;stroke-linejoin:miter;stroke-miterlimit:4;stroke-dasharray:none;stroke-dashoffset:0;stroke-opacity:1;marker:none;marker-start:none;marker-mid:none;marker-end:none;paint-order:normal;enable-background:new"
             d="M 208,672 H 104 c 0,0 -40,0 -40,40 v 128 h 416 v -96 c 0,0 0,-40 -40,-40 H 240 Z"
             transform="translate(-16,-836)"
             id="path2663" />
          <path
             id="path2665"
             d="m 256,-80 -32,32 H 88 c 0,0 -40,0 -40,40 v 264 h 376 c 40,0 40,-40 40,-40 V -40 c 0,-40 -40,-40 -40,-40 z"
             style="display:inline;opacity:0.1;vector-effect:none;fill:#000000;fill-opacity:1;stroke:none;stroke-width:26.0669;stroke-linecap:butt;stroke-linejoin:miter;stroke-miterlimit:4;stroke-dasharray:none;stroke-dashoffset:0;stroke-opacity:1;marker:none;marker-start:none;marker-mid:none;marker-end:none;paint-order:normal;filter:url(#filter1529);enable-background:new"
             clip-path="url(#clipPath1509)" />
          <path
             style="display:inline;opacity:1;vector-effect:none;fill:url(#linearGradient2713);fill-opacity:1;stroke:none;stroke-width:26.0669;stroke-linecap:butt;stroke-linejoin:miter;stroke-miterlimit:4;stroke-dasharray:none;stroke-dashoffset:0;stroke-opacity:1;marker:none;marker-start:none;marker-mid:none;marker-end:none;paint-order:normal;enable-background:new"
             d="m 256,-84 -32,32 H 88 c 0,0 -40,0 -40,40 v 264 h 376 c 40,0 40,-40 40,-40 V -44 c 0,-40 -40,-40 -40,-40 z"
             id="path2667" />
          <path
             style="font-variation-settings:normal;display:inline;opacity:1;vector-effect:none;fill:#99c1f1;fill-opacity:1;stroke:none;stroke-width:26.0669;stroke-linecap:butt;stroke-linejoin:miter;stroke-miterlimit:4;stroke-dasharray:none;stroke-dashoffset:0;stroke-opacity:1;-inkscape-stroke:none;marker:none;marker-start:none;marker-mid:none;marker-end:none;paint-order:normal;enable-background:new;stop-color:#000000;stop-opacity:1"
             d="m 480,1042 c 0,0 0,40 -40,40 l -375.998047,0.094 -0.0039,6 L 440,1088 c 40,0 40,-40 40,-40 z"
             transform="translate(-16,-836)"
             id="path2669" />
          <path
             style="display:inline;opacity:0.3;vector-effect:none;fill:#ffffff;fill-opacity:1;stroke:none;stroke-width:26.0669;stroke-linecap:butt;stroke-linejoin:miter;stroke-miterlimit:4;stroke-dasharray:none;stroke-dashoffset:0;stroke-opacity:1;marker:none;marker-start:none;marker-mid:none;marker-end:none;paint-order:normal;enable-background:new"
             d="m 272,752 -32,32 H 104 c 0,0 -40,0 -40,40 v 4 c 0,-40 40,-42 40,-42 h 136.59099 l 32,-32 H 440 c 5.38035,0 40,2 40,42 v -4 c 0,-40 -40,-40 -40,-40 z"
             id="path2671"
             transform="translate(-16,-836)" />
        </g>
      </g>
      <path
         style="display:inline;opacity:1;vector-effect:none;fill:url(#linearGradient2715);fill-opacity:1;stroke:none;stroke-width:1;stroke-linecap:butt;stroke-linejoin:miter;stroke-miterlimit:4;stroke-dasharray:none;stroke-dashoffset:0;stroke-opacity:1;marker:none;marker-start:none;marker-mid:none;marker-end:none;paint-order:normal;enable-background:new"
         d="m 566,658.5 c 0,0 -3.5,0 -3.5,3.5 v 18.5 h 43 V 666 c 0,0 0,-3.5 -3.5,-3.5 h -20.5 l -4,-4 z"
         id="path2677"
         transform="translate(0,-852)" />
      <path
         id="path2679"
         d="m 567,-181 c 0,0 -4,0 -4,4 v 26 h 39 c 0,0 3,0 3,-3 v -27 c 0,0 0,-4 -4,-4 h -17 l -4,4 z"
         style="display:inline;opacity:1;vector-effect:none;fill:url(#linearGradient2717);fill-opacity:1;stroke:none;stroke-width:1;stroke-linecap:butt;stroke-linejoin:miter;stroke-miterlimit:4;stroke-dasharray:none;stroke-dashoffset:0;stroke-opacity:1;marker:none;marker-start:none;marker-mid:none;marker-end:none;paint-order:normal;enable-background:new" />
      <path
         id="path2681"
         d="m 565,-113.5 c 0,0 -2.5,0 -2.5,2.5 v 16.5 H 587 c 2.5,0 2.5,-2.5 2.5,-2.5 v -11 c 0,0 0,-2.5 -2.5,-2.5 h -12.5 l -3,-3 z"
         style="font-variation-settings:normal;display:inline;opacity:1;vector-effect:none;fill:url(#linearGradient2719);fill-opacity:1;stroke:none;stroke-width:1;stroke-linecap:butt;stroke-linejoin:miter;stroke-miterlimit:4;stroke-dasharray:none;stroke-dashoffset:0;stroke-opacity:1;-inkscape-stroke:none;marker:none;marker-start:none;marker-mid:none;marker-end:none;paint-order:normal;enable-background:new;stop-color:#000000;stop-opacity:1" />
      <path
         style="font-variation-settings:normal;display:inline;opacity:1;vector-effect:none;fill:url(#linearGradient2721);fill-opacity:1;stroke:none;stroke-width:1;stroke-linecap:butt;stroke-linejoin:miter;stroke-miterlimit:4;stroke-dasharray:none;stroke-dashoffset:0;stroke-opacity:1;-inkscape-stroke:none;marker:none;marker-start:none;marker-mid:none;marker-end:none;paint-order:normal;enable-background:new;stop-color:#000000;stop-opacity:1"
         d="m 563.5,793.5 c -2,0 -2,2 -2,2 v 11 h 21 v -9 c 0,0 0,-2 -2,-2 h -10 l -2,-2 z"
         transform="translate(0,-852)"
         id="path2683" />
      <path
         style="font-variation-settings:normal;display:inline;opacity:1;vector-effect:none;fill:url(#linearGradient2723);fill-opacity:1;stroke:none;stroke-width:1;stroke-linecap:butt;stroke-linejoin:miter;stroke-miterlimit:4;stroke-dasharray:none;stroke-dashoffset:0;stroke-opacity:1;-inkscape-stroke:none;marker:none;marker-start:none;marker-mid:none;marker-end:none;paint-order:normal;enable-background:new;stop-color:#000000;stop-opacity:1"
         d="m 562,840.5 c 0,0 -1.50195,-0.0312 -1.50195,1.46875 V 848.5 H 575.5 V 844 c 0,-1.5 -1.5,-1.5 -1.5,-1.5 h -5.5 l -2,-2 z"
         transform="translate(0,-852)"
         id="path2685" />
      <path
         id="path2687"
         d="m 564,-51 c -2,0 -2,2 -2,2 v 11 h 20 v 0 -14 c 0,0 0,-2 -2,-2 h -7 l -3,3 z"
         style="font-variation-settings:normal;display:inline;opacity:1;vector-effect:none;fill:url(#linearGradient2725);fill-opacity:1;stroke:none;stroke-width:1;stroke-linecap:butt;stroke-linejoin:miter;stroke-miterlimit:4;stroke-dasharray:none;stroke-dashoffset:0;stroke-opacity:1;-inkscape-stroke:none;marker:none;marker-start:none;marker-mid:none;marker-end:none;paint-order:normal;enable-background:new;stop-color:#000000;stop-opacity:1" />
      <path
         style="font-variation-settings:normal;display:inline;opacity:1;vector-effect:none;fill:url(#linearGradient2727);fill-opacity:1;stroke:none;stroke-width:1;stroke-linecap:butt;stroke-linejoin:miter;stroke-miterlimit:4;stroke-dasharray:none;stroke-dashoffset:0;stroke-opacity:1;-inkscape-stroke:none;marker:none;marker-start:none;marker-mid:none;marker-end:none;paint-order:normal;enable-background:new;stop-color:#000000;stop-opacity:1"
         d="m 574,-8 c 0,0 1,0 1,1 V 3 h -14 v 0 -8.0449219 c 0,-1 1,-0.9555674 1,-0.9555674 h 3.99903 L 568,-8 Z"
         id="path2689" />
      <path
         id="path2691"
         style="display:inline;opacity:1;vector-effect:none;fill:none;fill-opacity:1;stroke:url(#linearGradient2729);stroke-width:1;stroke-linecap:butt;stroke-linejoin:miter;stroke-miterlimit:4;stroke-dasharray:none;stroke-dashoffset:0;stroke-opacity:1;marker:none;marker-start:none;marker-mid:none;marker-end:none;paint-order:normal;enable-background:new"
         d="m 566,-193.5 c 0,0 -3.5,0 -3.5,3.5 v 13 5.5 21 H 601 c 0,0 4.5,0 4.5,-4.5 v -16.5 -9.5 -5 c 0,0 0,-3.5 -3.5,-3.5 h -20.5 l -4,-4 z" />
      <path
         id="path2693"
         style="display:inline;opacity:0.2;vector-effect:none;fill:#ffffff;fill-opacity:1;stroke:none;stroke-width:1;stroke-linecap:butt;stroke-linejoin:miter;stroke-miterlimit:4;stroke-dasharray:none;stroke-dashoffset:0;stroke-opacity:1;marker:none;marker-start:none;marker-mid:none;marker-end:none;paint-order:normal;enable-background:new"
         d="m 584,-185 -4,4 h -13 c 0,0 -4,0 -4,4 v 1 c 0,-4 4,-4 4,-4 h 13 l 4,-4 h 17 c 4,0 4,4 4,4 v -1 c 0,0 0,-4 -4,-4 z" />
      <path
         style="font-variation-settings:normal;display:inline;opacity:1;vector-effect:none;fill:url(#linearGradient2731);fill-opacity:1;stroke:none;stroke-width:1;stroke-linecap:butt;stroke-linejoin:miter;stroke-miterlimit:4;stroke-dasharray:none;stroke-dashoffset:0;stroke-opacity:1;-inkscape-stroke:none;marker:none;marker-start:none;marker-mid:none;marker-end:none;paint-order:normal;enable-background:new;stop-color:#000000;stop-opacity:1"
         d="m 565,-105 c 0,0 -2,0 -2,2 v 16 h 25 c 0,0 1,0 1,-1 v -18 c 0,0 0,-2 -2,-2 h -11 l -3,3 z"
         id="path2695" />
      <path
         id="path2697"
         style="font-variation-settings:normal;display:inline;opacity:1;vector-effect:none;fill:none;fill-opacity:1;stroke:url(#linearGradient2733);stroke-width:1;stroke-linecap:butt;stroke-linejoin:miter;stroke-miterlimit:4;stroke-dasharray:none;stroke-dashoffset:0;stroke-opacity:1;-inkscape-stroke:none;marker:none;marker-start:none;marker-mid:none;marker-end:none;paint-order:normal;enable-background:new;stop-color:#000000;stop-opacity:1"
         d="m 565,-113.5 c 0,0 -2.5,0 -2.5,2.5 v 8 8.5 8 H 587 c 2.5,0 2.5,-2.5 2.5,-2.5 v -8 -8 -3 c 0,0 0,-2.5 -2.5,-2.5 h -12.5 l -3,-3 z" />
      <path
         id="path2699"
         style="font-variation-settings:normal;display:inline;opacity:0.2;vector-effect:none;fill:#ffffff;fill-opacity:1;stroke:none;stroke-width:1;stroke-linecap:butt;stroke-linejoin:miter;stroke-miterlimit:4;stroke-dasharray:none;stroke-dashoffset:0;stroke-opacity:1;-inkscape-stroke:none;marker:none;marker-start:none;marker-mid:none;marker-end:none;paint-order:normal;enable-background:new;stop-color:#000000;stop-opacity:1"
         d="m 576,-108 -3,3 h -8 c 0,0 -2,0 -2,2 v 1 c 0,-2 2,-2 2,-2 h 8 l 3,-3 h 11 c 2,0 2,2 2,2 v -1 c 0,0 0,-2 -2,-2 z" />
      <path
         id="path2701"
         style="font-variation-settings:normal;display:inline;opacity:1;vector-effect:none;fill:none;fill-opacity:1;stroke:url(#linearGradient2735);stroke-width:1;stroke-linecap:butt;stroke-linejoin:miter;stroke-miterlimit:4;stroke-dasharray:none;stroke-dashoffset:0;stroke-opacity:1;-inkscape-stroke:none;marker:none;marker-start:none;marker-mid:none;marker-end:none;paint-order:normal;enable-background:new;stop-color:#000000;stop-opacity:1"
         d="m 563.5,793.5 c -2,0 -2,2 -2,2 v 19 H 580 c 2.5,0 2.5,-2.5 2.5,-2.5 v -8.5 -6 c 0,0 0,-2 -2,-2 h -10 l -2,-2 z"
         transform="translate(0,-852)" />
      <path
         id="path2703"
         style="font-variation-settings:normal;display:inline;opacity:0.2;vector-effect:none;fill:#ffffff;fill-opacity:1;stroke:none;stroke-width:1;stroke-linecap:butt;stroke-linejoin:miter;stroke-miterlimit:4;stroke-dasharray:none;stroke-dashoffset:0;stroke-opacity:1;-inkscape-stroke:none;marker:none;marker-start:none;marker-mid:none;marker-end:none;paint-order:normal;enable-background:new;stop-color:#000000;stop-opacity:1"
         d="m 573,-54 -3,3 h -6 c -2,0 -2,2 -2,2 v 1 c 0,0 0,-2 2,-2 h 6 l 3,-3 h 7 c 2,0 2,2 2,2 v -1 c 0,0 0,-2 -2,-2 z" />
      <path
         id="path2705"
         style="font-variation-settings:normal;display:inline;opacity:1;vector-effect:none;fill:none;fill-opacity:1;stroke:url(#linearGradient2737);stroke-width:1;stroke-linecap:butt;stroke-linejoin:miter;stroke-miterlimit:4;stroke-dasharray:none;stroke-dashoffset:0;stroke-opacity:1;-inkscape-stroke:none;marker:none;marker-start:none;marker-mid:none;marker-end:none;paint-order:normal;enable-background:new;stop-color:#000000;stop-opacity:1"
         d="m 562,840.5 c 0,0 -1.50195,-0.0312 -1.50195,1.46875 V 847 v 1.5 l 0.002,7 H 574 c 0,0 1.5,0 1.5,-1.5 V 848.5 844.96875 844 c 0,-1.5 -1.5,-1.5 -1.5,-1.5 h -5.5 l -2,-2 z"
         transform="translate(0,-852)" />
      <path
         id="path2707"
         style="font-variation-settings:normal;display:inline;opacity:0.2;vector-effect:none;fill:#ffffff;fill-opacity:1;stroke:none;stroke-width:1;stroke-linecap:butt;stroke-linejoin:miter;stroke-miterlimit:4;stroke-dasharray:none;stroke-dashoffset:0;stroke-opacity:1;-inkscape-stroke:none;marker:none;marker-start:none;marker-mid:none;marker-end:none;paint-order:normal;enable-background:new;stop-color:#000000;stop-opacity:1"
         d="m 568,-8 -2,2 h -4 c 0,0 -1,-0.044921 -1,0.9550781 v 1 C 561,-5.0449209 562,-5 562,-5 h 4 l 2,-2 h 6 c 0,0 1,1e-6 1,1 v -1 c 0,-0.999999 -1,-1 -1,-1 z" />
    </g>
  </g>
  <g
     id="g2175"
     transform="translate(0,852)" />
  <g
     color="#bebebe"
     fill="#474747"
     id="g4325"
     transform="matrix(1.1428571,0,0,1.1428571,-1.1428568,3e-7)"
     style="fill:#000000">
    <path
       d="m 12,1 c 1.662,0 3,1.338 3,3 v 6 c 0,1.662 -1.338,3 -3,3 H 4 C 2.338,13 1,11.662 1,10 V 4 C 1,2.338 2.338,1 4,1 Z m 0,2 H 4 C 3.446,3 3,3.446 3,4 v 6 c 0,0.554 0.446,1 1,1 h 8 c 0.554,0 1,-0.446 1,-1 V 4 C 13,3.446 12.554,3 12,3 Z"
       style="fill:#000000;marker:none"
       overflow="visible"
       id="path4321" />
    <path
       d="M 4.5,5 C 4.5,5 4,5 4,5.5 v 4 C 4,10 4.5,10 4.5,10 h 4 C 9,10 9,9.5 9,9.5 v -4 C 9,5 8.563,5 8.5,5 Z M 5,6.998 h 3 v 2 H 5 Z M 10.5,4 C 10.5,4 10,4 10,4.5 v 0.984 c 0,0 0,0.5 0.5,0.5 l 1,0.001 c 0,0 0.5,0 0.5,-0.5 V 4.501 c 0,0 0,-0.5 -0.5,-0.5 z"
       style="fill:#000000;marker:none"
       overflow="visible"
       id="path4323" />
  </g>
</svg>
