<?xml version="1.0" encoding="UTF-8" standalone="no"?>
<svg
   height="128px"
   viewBox="0 0 128 128"
   width="128px"
   version="1.1"
   id="svg35"
   xmlns="http://www.w3.org/2000/svg"
   xmlns:svg="http://www.w3.org/2000/svg">
  <defs
     id="defs39" />
  <linearGradient
     id="a"
     gradientUnits="userSpaceOnUse"
     x1="36"
     x2="60"
     y1="68"
     y2="68">
    <stop
       offset="0"
       stop-color="#ed336c"
       id="stop2" />
    <stop
       offset="1"
       stop-color="#ffa348"
       id="stop4" />
  </linearGradient>
  <linearGradient
     id="b"
     gradientTransform="matrix(0 1 -1 0 144 -32)"
     gradientUnits="userSpaceOnUse"
     x1="72"
     x2="96"
     y1="68"
     y2="68">
    <stop
       offset="0"
       stop-color="#404ce6"
       id="stop7" />
    <stop
       offset="1"
       stop-color="#c061cb"
       id="stop9" />
  </linearGradient>
  <linearGradient
     id="c"
     gradientUnits="userSpaceOnUse"
     x1="68.84919"
     x2="95.257637"
     y1="84"
     y2="84">
    <stop
       offset="0"
       stop-color="#33d1c6"
       id="stop12" />
    <stop
       offset="1"
       stop-color="#1c25d8"
       id="stop14" />
  </linearGradient>
  <path
     style="display:inline;fill:#eb7b04;fill-opacity:1;stroke:none;stroke-width:0.125;stroke-linejoin:round;stroke-miterlimit:4;stroke-dasharray:none;stroke-opacity:1;enable-background:new"
     clip-path="none"
     d="m 27.978072,8.0000006 h 50.000002 l 30.042896,29.9178934 10e-4,74.060006 c 8e-5,4.432 -3.6122,8.0221 -8.044196,8.0221 H 27.978011 c -4.431999,0 -7.999999,-3.568 -7.999999,-8.00001 V 16 c 0,-4.431999 3.568,-7.9999994 7.999999,-7.9999994 z"
     id="path4411" />
  <path
     style="display:inline;vector-effect:none;fill:#000000;fill-opacity:0.200017;stroke:none;stroke-width:0.125;stroke-linecap:butt;stroke-linejoin:round;stroke-miterlimit:4;stroke-dasharray:none;stroke-dashoffset:0;stroke-opacity:1;enable-background:new"
     d="M 77.978074,8.0000006 V 30.000002 c 0,4.432 3.610527,7.923448 8.042527,7.923448 l 22.000369,-0.0055 z"
     id="path4413" />
  <path
     id="path7558-7-2-9"
     style="color:#000000;fill:#ffffff;stroke:none;stroke-width:5.12075;stroke-linecap:round;-inkscape-stroke:none"
     d="m 76.290046,66.321971 a 2.5603776,2.5603776 0 0 0 -1.809893,0.749579 2.5603776,2.5603776 0 0 0 0,3.621963 L 86.758259,82.971609 74.480153,95.251892 a 2.5603776,2.5603776 0 0 0 0,3.619757 2.5603776,2.5603776 0 0 0 3.619774,0 L 93.999991,82.971609 78.099927,67.07155 a 2.5603776,2.5603776 0 0 0 -1.809881,-0.749579 z m -24.580121,0 a 2.5603776,2.5603776 0 0 0 -1.809881,0.749579 l -15.900053,15.900059 15.900053,15.90004 a 2.5603776,2.5603776 0 0 0 3.619775,0 2.5603776,2.5603776 0 0 0 0,-3.619757 L 41.241711,82.971609 53.519819,70.693513 a 2.5603776,2.5603776 0 0 0 0,-3.621962 2.5603776,2.5603776 0 0 0 -1.809894,-0.74958 z m 17.90114,-4.293321 a 2.5603776,2.5603776 0 0 0 -3.135253,1.809877 l -9.896788,36.940783 a 2.5603776,2.5603776 0 0 0 1.809882,3.13525 2.5603776,2.5603776 0 0 0 3.135255,-1.80988 L 71.423128,65.163897 A 2.5603776,2.5603776 0 0 0 69.611065,62.02865 Z" />
</svg>
