<?xml version="1.0" encoding="UTF-8" standalone="no"?>
<svg
   height="128px"
   viewBox="0 0 128 128"
   width="128px"
   version="1.1"
   id="svg35"
   xmlns:xlink="http://www.w3.org/1999/xlink"
   xmlns="http://www.w3.org/2000/svg"
   xmlns:svg="http://www.w3.org/2000/svg">
  <defs
     id="defs39">
    <clipPath
       id="clipPath941-5-2"
       clipPathUnits="userSpaceOnUse">
      <rect
         ry="32"
         rx="32"
         y="-116"
         x="32"
         height="320"
         width="448"
         id="rect943-2-6"
         style="display:inline;opacity:1;vector-effect:none;fill:none;fill-opacity:1;stroke:#000000;stroke-width:4;stroke-linecap:butt;stroke-linejoin:miter;stroke-miterlimit:4;stroke-dasharray:none;stroke-dashoffset:0;stroke-opacity:1;marker:none;marker-start:none;marker-mid:none;marker-end:none;paint-order:normal;enable-background:new" />
    </clipPath>
    <linearGradient
       gradientTransform="matrix(0.25263159,0,0,0.25263159,-60.96843,-22.82088)"
       gradientUnits="userSpaceOnUse"
       y2="-68"
       x2="415.5"
       y1="-68"
       x1="320.5"
       id="linearGradient1285"
       xlink:href="#linearGradient1283" />
    <linearGradient
       id="linearGradient1283">
      <stop
         id="stop1279"
         offset="0"
         style="stop-color:#a51d2d;stop-opacity:1;" />
      <stop
         id="stop1281"
         offset="1"
         style="stop-color:#ce1921;stop-opacity:1" />
    </linearGradient>
    <linearGradient
       y2="-180"
       x2="336"
       y1="62"
       x1="336"
       gradientTransform="matrix(-0.24999999,0,0,0.24999999,123.99972,49)"
       gradientUnits="userSpaceOnUse"
       id="linearGradient1114-3"
       xlink:href="#linearGradient1277" />
    <linearGradient
       id="linearGradient1277">
      <stop
         style="stop-color:#d81d25;stop-opacity:1"
         offset="0"
         id="stop1273" />
      <stop
         style="stop-color:#f66151;stop-opacity:1"
         offset="1"
         id="stop1349" />
    </linearGradient>
    <clipPath
       clipPathUnits="userSpaceOnUse"
       id="clipPath4-9">
      <path
         id="path5-3"
         d="m -103.8322,63.099842 v 16 l 15.999998,15.999999 -15.999998,15.999999 v 48 c 0,4.432 -3.568,8 -8,8 h -72 c -4.432,0 -8,-3.568 -8,-8 v -48 l 16,-15.999999 -16,-15.999999 v -16 c 0,-4.431999 3.568,-7.999999 8,-7.999999 h 72 c 4.432,0 8.54972,3.602224 8,7.999999 z"
         style="display:inline;opacity:1;vector-effect:none;fill:none;fill-opacity:1;stroke:#000000;stroke-width:1;stroke-linecap:round;stroke-linejoin:round;stroke-miterlimit:4;stroke-dasharray:none;stroke-dashoffset:0;stroke-opacity:1;marker:none;marker-start:none;marker-mid:none;marker-end:none;paint-order:normal;enable-background:new" />
    </clipPath>
    <clipPath
       clipPathUnits="userSpaceOnUse"
       id="clipPath5-5">
      <path
         id="path6-0"
         d="m -103.8322,63.099842 v 16 l 15.999998,15.999999 -15.999998,15.999999 v 48 c 0,4.432 -3.568,8 -8,8 h -72 c -4.432,0 -8,-3.568 -8,-8 v -48 l 16,-15.999999 -16,-15.999999 v -16 c 0,-4.431999 3.568,-7.999999 8,-7.999999 h 72 c 4.432,0 8.54972,3.602224 8,7.999999 z"
         style="display:inline;opacity:1;vector-effect:none;fill:none;fill-opacity:1;stroke:#000000;stroke-width:1;stroke-linecap:round;stroke-linejoin:round;stroke-miterlimit:4;stroke-dasharray:none;stroke-dashoffset:0;stroke-opacity:1;marker:none;marker-start:none;marker-mid:none;marker-end:none;paint-order:normal;enable-background:new" />
    </clipPath>
  </defs>
  <linearGradient
     id="a"
     gradientUnits="userSpaceOnUse"
     x1="36"
     x2="60"
     y1="68"
     y2="68">
    <stop
       offset="0"
       stop-color="#ed336c"
       id="stop2" />
    <stop
       offset="1"
       stop-color="#ffa348"
       id="stop4" />
  </linearGradient>
  <linearGradient
     id="b"
     gradientTransform="matrix(0 1 -1 0 144 -32)"
     gradientUnits="userSpaceOnUse"
     x1="72"
     x2="96"
     y1="68"
     y2="68">
    <stop
       offset="0"
       stop-color="#404ce6"
       id="stop7" />
    <stop
       offset="1"
       stop-color="#c061cb"
       id="stop9" />
  </linearGradient>
  <linearGradient
     id="c"
     gradientUnits="userSpaceOnUse"
     x1="68.84919"
     x2="95.257637"
     y1="84"
     y2="84">
    <stop
       offset="0"
       stop-color="#33d1c6"
       id="stop12" />
    <stop
       offset="1"
       stop-color="#1c25d8"
       id="stop14" />
  </linearGradient>
  <path
     style="display:inline;fill:#cdab8f;fill-opacity:1;stroke:none;stroke-width:0.125;stroke-linejoin:round;stroke-miterlimit:4;stroke-dasharray:none;stroke-opacity:1;enable-background:new"
     clip-path="none"
     d="m 27.978081,8.0000006 h 50.000002 l 30.042897,29.9178934 0.001,74.060006 c 8e-5,4.432 -3.6122,8.0221 -8.044197,8.0221 H 27.97802 c -4.431999,0 -7.999999,-3.568 -7.999999,-8.00001 V 16 c 0,-4.431999 3.568,-7.9999994 7.999999,-7.9999994 z"
     id="path4411" />
  <path
     id="path12"
     style="fill:#55a7eb;fill-opacity:1;stroke-width:3.55588"
     d="m 27.978035,120 c -4.418808,0 -7.976896,-3.54728 -7.998047,-7.96094 V 95.999998 H 83.950692 V 120 Z" />
  <path
     id="path1533-6"
     clip-path="url(#clipPath5-5)"
     style="display:inline;fill:#2ec27e;fill-opacity:1;stroke:none;stroke-width:0.25px;stroke-linecap:butt;stroke-linejoin:miter;stroke-opacity:1;enable-background:new"
     d="m -103.83398,85.148438 h -63.97071 l -0.0156,26.082032 v 31.73828 c 0,1.89385 1.98123,4.23633 4.48828,4.23633 h 59.5 v -36.10547 z"
     transform="rotate(180,-41.926995,87.615272)" />
  <path
     id="path7460-26-9"
     d="m -103.85951,147.07445 h -59.5 c -2.50705,0 -4.4873,-2.34346 -4.4873,-4.23731 v -31.7373 l 0.0146,-26.082106 h 63.9717 v -5.917892 h -63.9717 l -0.0146,-24.000002 h -8.02539 v 23.750002 l -1e-5,32.249998 v 31.7373 c 0,6.60616 5.51188,11.99082 12.51269,12.2627 h 59.5 z"
     style="color:#000000;font-style:normal;font-variant:normal;font-weight:normal;font-stretch:normal;font-size:medium;line-height:normal;font-family:sans-serif;font-variant-ligatures:normal;font-variant-position:normal;font-variant-caps:normal;font-variant-numeric:normal;font-variant-alternates:normal;font-feature-settings:normal;text-indent:0;text-align:start;text-decoration:none;text-decoration-line:none;text-decoration-style:solid;text-decoration-color:#000000;letter-spacing:normal;word-spacing:normal;text-transform:none;writing-mode:lr-tb;direction:ltr;text-orientation:mixed;dominant-baseline:auto;baseline-shift:baseline;text-anchor:start;white-space:normal;shape-padding:0;clip-rule:nonzero;display:inline;overflow:visible;visibility:visible;isolation:auto;mix-blend-mode:normal;color-interpolation:sRGB;color-interpolation-filters:linearRGB;solid-color:#000000;solid-opacity:1;vector-effect:none;fill:#ffffff;fill-opacity:1;fill-rule:nonzero;stroke:none;stroke-width:8.025;stroke-linecap:butt;stroke-linejoin:miter;stroke-miterlimit:4;stroke-dasharray:none;stroke-dashoffset:0;stroke-opacity:1;color-rendering:auto;image-rendering:auto;shape-rendering:auto;text-rendering:auto;enable-background:accumulate"
     clip-path="url(#clipPath4-9)"
     transform="rotate(180,-41.94051,87.54992)" />
  <path
     style="display:inline;vector-effect:none;fill:#ae927a;fill-opacity:1;stroke:none;stroke-width:0.125;stroke-linecap:butt;stroke-linejoin:round;stroke-miterlimit:4;stroke-dasharray:none;stroke-dashoffset:0;stroke-opacity:1;enable-background:new"
     d="M 77.978074,8.0000006 V 30.000002 c 0,4.432 3.610527,7.923448 8.042527,7.923448 l 22.000369,-0.0055 z"
     id="path4413" />
  <g
     clip-path="url(#clipPath941-5-2)"
     id="g939-5-6"
     style="display:inline;enable-background:new"
     transform="matrix(0.24999999,0,0,0.24999999,-202.92885,-63.025818)" />
  <circle
     style="display:inline;fill:url(#linearGradient1285);fill-opacity:1;stroke:none;stroke-width:0.252632;stroke-linejoin:round;stroke-miterlimit:4;stroke-dasharray:1.01053, 0.505263;stroke-dashoffset:0;stroke-opacity:1;enable-background:new"
     id="path1550"
     cx="32"
     cy="-39.999828"
     transform="rotate(90)"
     r="12" />
  <path
     id="use981-2-7-9-9"
     d="m 39.999831,6 c 7.165825,0 14.3315,2.73383 19.798825,8.20117 10.934699,10.93468 10.934699,28.66298 0,39.59766 L 39.999831,73.59814 c 0,0 -13.821321,-13.82183 -19.798821,-19.79931 C 9.26633,42.86415 9.26633,25.13585 20.20101,14.20117 25.66833,8.73383 32.834007,6 39.999831,6 Z m 0,18 a 9.9999996,9.9999996 0 0 0 -10.000001,10 9.9999996,9.9999996 0 0 0 10.000001,10 9.9999996,9.9999996 0 0 0 10,-10 9.9999996,9.9999996 0 0 0 -10,-10 z"
     style="display:inline;vector-effect:none;fill:#a51d2d;fill-opacity:1;stroke:none;stroke-width:14;stroke-linecap:butt;stroke-linejoin:miter;stroke-miterlimit:4;stroke-dasharray:none;stroke-dashoffset:0;stroke-opacity:1;marker:none;marker-start:none;marker-mid:none;marker-end:none;paint-order:normal;enable-background:new" />
  <path
     style="display:inline;vector-effect:none;fill:url(#linearGradient1114-3);fill-opacity:1;stroke:none;stroke-width:14;stroke-linecap:butt;stroke-linejoin:miter;stroke-miterlimit:4;stroke-dasharray:none;stroke-dashoffset:0;stroke-opacity:1;marker:none;marker-start:none;marker-mid:none;marker-end:none;paint-order:normal;enable-background:new"
     d="m 39.99982,4 c 7.1658,0 14.3315,2.7338 19.7988,8.2012 10.9347,10.9347 10.9347,28.663 0,39.5976 l -19.7988,19.7994 c 0,0 -13.8213,-13.8219 -19.79879,-19.7994 -10.9347,-10.9346 -10.9347,-28.6629 0,-39.5976 C 25.66832,6.7338 32.834025,4 39.99982,4 Z m 0,18 a 9.9999994,9.9999994 0 0 0 -9.99999,10 9.9999994,9.9999994 0 0 0 9.99999,10 9.9999994,9.9999994 0 0 0 10,-10 9.9999994,9.9999994 0 0 0 -10,-10 z"
     id="path1091-5" />
</svg>
