<?xml version="1.0" encoding="UTF-8" standalone="no"?>
<svg
   height="128px"
   viewBox="0 0 128 128"
   width="128px"
   version="1.1"
   id="svg35"
   xml:space="preserve"
   xmlns:xlink="http://www.w3.org/1999/xlink"
   xmlns="http://www.w3.org/2000/svg"
   xmlns:svg="http://www.w3.org/2000/svg"><defs
     id="defs39"><mask
       id="holes"><rect
         x="-60"
         y="-60"
         width="120"
         height="120"
         fill="#ffffff"
         id="rect1240" /><circle
         id="hole"
         cy="-40"
         r="3"
         cx="0" /><use
         xlink:href="#hole"
         transform="rotate(72)"
         id="use1243" /><use
         xlink:href="#hole"
         transform="rotate(144)"
         id="use1245" /><use
         xlink:href="#hole"
         transform="rotate(-144)"
         id="use1247" /><use
         xlink:href="#hole"
         transform="rotate(-72)"
         id="use1249" /></mask></defs><linearGradient
     id="a"
     gradientUnits="userSpaceOnUse"
     x1="36"
     x2="60"
     y1="68"
     y2="68"><stop
       offset="0"
       stop-color="#ed336c"
       id="stop2" /><stop
       offset="1"
       stop-color="#ffa348"
       id="stop4" /></linearGradient><linearGradient
     id="b"
     gradientTransform="matrix(0 1 -1 0 144 -32)"
     gradientUnits="userSpaceOnUse"
     x1="72"
     x2="96"
     y1="68"
     y2="68"><stop
       offset="0"
       stop-color="#404ce6"
       id="stop7" /><stop
       offset="1"
       stop-color="#c061cb"
       id="stop9" /></linearGradient><linearGradient
     id="c"
     gradientUnits="userSpaceOnUse"
     x1="68.84919"
     x2="95.257637"
     y1="84"
     y2="84"><stop
       offset="0"
       stop-color="#33d1c6"
       id="stop12" /><stop
       offset="1"
       stop-color="#1c25d8"
       id="stop14" /></linearGradient><path
     style="display:inline;fill:#2a7bb1;fill-opacity:1;stroke:none;stroke-width:0.125;stroke-linejoin:round;stroke-miterlimit:4;stroke-dasharray:none;stroke-opacity:1;enable-background:new"
     clip-path="none"
     d="m 27.978072,8.0000006 h 50.000002 l 30.042896,29.9178934 10e-4,74.060006 c 8e-5,4.432 -3.6122,8.0221 -8.044196,8.0221 H 27.978011 c -4.431999,0 -7.999999,-3.568 -7.999999,-8.00001 V 16 c 0,-4.431999 3.568,-7.9999994 7.999999,-7.9999994 z"
     id="path4411" /><path
     style="display:inline;vector-effect:none;fill:#000000;fill-opacity:0.200017;stroke:none;stroke-width:0.125;stroke-linecap:butt;stroke-linejoin:round;stroke-miterlimit:4;stroke-dasharray:none;stroke-dashoffset:0;stroke-opacity:1;enable-background:new"
     d="M 77.978074,8.0000006 V 30.000002 c 0,4.432 3.610527,7.923448 8.042527,7.923448 l 22.000369,-0.0055 z"
     id="path4413" /><path
     id="hrot-6"
     style="font-size:12px;fill:#ffffff;fill-rule:evenodd;stroke:none;stroke-width:5.63506"
     d="m 73.288136,44.000491 c -3.52548,0.01181 -2.8022,1.990615 -3.39844,2.570313 -3.75285,8.474878 -11.61329,20.438862 -12.72265,22.578125 -3.1214,4.325298 -9.73105,25.672503 -12.375,34.810551 l 0.18945,0.01 c 0,-0.001 0.0721,-0.20055 0.0723,-0.20117 h -0.002 c 0.0449,-0.13677 0.31004,-0.81924 0.36914,-0.99219 0.8941,-2.73309 3.02945,-8.53978 5.37696,-14.54492 0.0932,-0.238487 0.17057,-0.415047 0.26367,-0.652344 0.026,-0.06792 0.0345,-0.09625 0.0605,-0.164062 1.29644,-3.381976 2.55603,-6.617538 3.50976,-8.996094 0.47687,-1.189278 0.87663,-2.163978 1.16797,-2.837891 0.14567,-0.336955 0.26412,-0.597395 0.35352,-0.777343 0.0447,-0.08997 0.081,-0.158354 0.11718,-0.214844 0.0153,-0.02393 0.0323,-0.04728 0.0566,-0.07422 a 0.94869103,2.7259834 30.602209 0 1 0.80079,-2.380859 0.94869103,2.7259834 30.602209 0 1 1.96289,-1.867188 0.94869103,2.7259834 30.602209 0 1 0.23047,0.05859 0.94869103,2.7259834 30.602209 0 1 -0.61329,2.865234 0.94869103,2.7259834 30.602209 0 1 -1.70703,1.785157 l -0.0215,0.0293 c -0.15026,0.2014 -0.45295,0.771484 -0.82813,1.574218 -0.37517,0.802735 -0.83429,1.850974 -1.34961,3.070313 -0.95646,2.263195 -2.12135,5.172358 -3.2832,8.132812 -2.5651,6.695986 -5.33147,14.024821 -6.04883,16.210941 l 0.17969,0.008 c -0.25035,-0.2339 12.31997,-18.873209 27.6875,-21.404298 0.0472,-20.092982 9.28629,-27.484169 9.87109,-28.742187 -1.23477,-6.675123 -4.86066,-9.195508 -8.13281,-9.726563 -0.69325,-0.08835 -1.28347,-0.12864 -1.78711,-0.126953 z" /></svg>
