<?xml version="1.0" encoding="UTF-8" standalone="no"?>
<svg
   height="128"
   viewBox="0 0 128 128"
   width="128"
   version="1.1"
   id="svg35"
   xml:space="preserve"
   xmlns="http://www.w3.org/2000/svg"
   xmlns:svg="http://www.w3.org/2000/svg"><defs
     id="defs39" /><linearGradient
     id="a"
     gradientUnits="userSpaceOnUse"
     x1="36"
     x2="60"
     y1="68"
     y2="68"><stop
       offset="0"
       stop-color="#ed336c"
       id="stop2" /><stop
       offset="1"
       stop-color="#ffa348"
       id="stop4" /></linearGradient><linearGradient
     id="b"
     gradientTransform="rotate(90,88,56)"
     gradientUnits="userSpaceOnUse"
     x1="72"
     x2="96"
     y1="68"
     y2="68"><stop
       offset="0"
       stop-color="#404ce6"
       id="stop7" /><stop
       offset="1"
       stop-color="#c061cb"
       id="stop9" /></linearGradient><linearGradient
     id="c"
     gradientUnits="userSpaceOnUse"
     x1="68.84919"
     x2="95.257637"
     y1="84"
     y2="84"><stop
       offset="0"
       stop-color="#33d1c6"
       id="stop12" /><stop
       offset="1"
       stop-color="#1c25d8"
       id="stop14" /></linearGradient><path
     style="display:inline;fill:#007481;fill-opacity:1;stroke:none;stroke-width:0.125;stroke-linejoin:round;stroke-miterlimit:4;stroke-dasharray:none;stroke-opacity:1;enable-background:new"
     clip-path="none"
     d="m 27.978081,8.0000006 h 50.000002 l 30.042897,29.9178934 0.001,74.060006 c 8e-5,4.432 -3.6122,8.0221 -8.044197,8.0221 H 27.97802 c -4.431999,0 -7.999999,-3.568 -7.999999,-8.00001 V 16 c 0,-4.431999 3.568,-7.9999994 7.999999,-7.9999994 z"
     id="path4411" /><path
     style="display:inline;vector-effect:none;fill:#000000;fill-opacity:0.2;stroke:none;stroke-width:0.125;stroke-linecap:butt;stroke-linejoin:round;stroke-miterlimit:4;stroke-dasharray:none;stroke-dashoffset:0;stroke-opacity:1;enable-background:new"
     d="M 77.978074,8.0000006 V 30.000002 c 0,4.432 3.610527,7.923448 8.042527,7.923448 l 22.000369,-0.0055 z"
     id="path4413" /><path
     id="path3"
     d="m 80.180461,91.091863 h 2.95285 v -2.83317 h -2.95285 v -3.07243 h -2.95286 v 3.07243 h -2.95248 v 2.83317 h 2.95248 v 3.072394 h 2.95286 z m -26.80796,-2.833281 h -8.85835 v 2.83317 h 8.85835 z m 40.6275,1.416548 c 0,-7.91398 -6.61056,-14.291747 -14.76391,-14.291747 -0.74897,-0.01984 -1.49867,0.02016 -2.24134,0.119622 -6.37771,0.944387 -10.63373,5.433392 -12.99471,8.977968 -2.36095,-3.544576 -6.61071,-8.033581 -13.00106,-8.977968 -0.74274,-0.09963 -1.49222,-0.139627 -2.24134,-0.119622 -8.14063,0 -14.75764,6.377767 -14.75764,14.291747 0,7.913943 6.61701,14.32321 14.76391,14.32321 0.74785,0.009 1.49526,-0.0413 2.23507,-0.15113 6.38405,-0.94437 10.6338,-5.433346 12.99475,-8.971657 2.36099,3.538311 6.61701,8.027287 12.99472,8.971657 0.74266,0.0995 1.49237,0.13948 2.24134,0.11965 8.03359,-0.11962 14.76391,-6.497399 14.76391,-14.29173 z m -43.81951,9.097571 c -0.50633,0.09403 -1.02152,0.132033 -1.53619,0.113346 -5.31374,0 -9.6831,-4.130107 -9.6831,-9.210917 0,-5.080811 4.36936,-9.210953 9.80271,-9.210953 0.51501,-0.01969 1.03049,0.02047 1.53623,0.11965 6.02518,0.824752 9.6831,6.730316 10.86673,9.091303 -1.30324,2.36095 -4.96116,8.153204 -10.98638,9.097571 z m 16.55828,-9.097571 c 1.25919,-2.360987 4.82264,-8.266551 10.84774,-9.091303 0.50389,-0.09922 1.01704,-0.139338 1.53019,-0.11965 5.43335,0 9.80256,4.130142 9.80256,9.210953 0,5.08081 -4.36921,9.210917 -9.68317,9.210917 -0.51464,0.01869 -1.02964,-0.01932 -1.53612,-0.113346 -6.13856,-0.944367 -9.80275,-6.736621 -10.9612,-9.097571 z"
     style="fill:#ffffff;fill-opacity:1;stroke-width:0.370775" /></svg>
