<?xml version="1.0" encoding="UTF-8" standalone="no"?>
<svg
   height="128px"
   viewBox="0 0 128 128"
   width="128px"
   version="1.1"
   id="svg35"
   xmlns="http://www.w3.org/2000/svg"
   xmlns:svg="http://www.w3.org/2000/svg">
  <defs
     id="defs39">
    <filter
       height="1.0214333"
       y="-0.010716652"
       width="1.0272651"
       x="-0.01363253"
       id="filter16020"
       style="color-interpolation-filters:sRGB">
      <feGaussianBlur
         id="feGaussianBlur16022"
         stdDeviation="2.0004419" />
    </filter>
  </defs>
  <linearGradient
     id="a"
     gradientUnits="userSpaceOnUse"
     x1="36"
     x2="60"
     y1="68"
     y2="68">
    <stop
       offset="0"
       stop-color="#ed336c"
       id="stop2" />
    <stop
       offset="1"
       stop-color="#ffa348"
       id="stop4" />
  </linearGradient>
  <linearGradient
     id="b"
     gradientTransform="matrix(0 1 -1 0 144 -32)"
     gradientUnits="userSpaceOnUse"
     x1="72"
     x2="96"
     y1="68"
     y2="68">
    <stop
       offset="0"
       stop-color="#404ce6"
       id="stop7" />
    <stop
       offset="1"
       stop-color="#c061cb"
       id="stop9" />
  </linearGradient>
  <linearGradient
     id="c"
     gradientUnits="userSpaceOnUse"
     x1="68.84919"
     x2="95.257637"
     y1="84"
     y2="84">
    <stop
       offset="0"
       stop-color="#33d1c6"
       id="stop12" />
    <stop
       offset="1"
       stop-color="#1c25d8"
       id="stop14" />
  </linearGradient>
  <path
     style="display:inline;fill:#4768e8;fill-opacity:1;stroke:none;stroke-width:0.125;stroke-linejoin:round;stroke-miterlimit:4;stroke-dasharray:none;stroke-opacity:1;enable-background:new"
     clip-path="none"
     d="m 27.978072,8.0000006 h 50.000002 l 30.042896,29.9178934 10e-4,74.060006 c 8e-5,4.432 -3.6122,8.0221 -8.044196,8.0221 H 27.978011 c -4.431999,0 -7.999999,-3.568 -7.999999,-8.00001 V 16 c 0,-4.431999 3.568,-7.9999994 7.999999,-7.9999994 z"
     id="path4411" />
  <path
     style="display:inline;vector-effect:none;fill:#000000;fill-opacity:0.2;stroke:none;stroke-width:0.125;stroke-linecap:butt;stroke-linejoin:round;stroke-miterlimit:4;stroke-dasharray:none;stroke-dashoffset:0;stroke-opacity:1;enable-background:new"
     d="M 77.978074,8.0000006 V 30.000002 c 0,4.432 3.610527,7.923448 8.042527,7.923448 l 22.000369,-0.0055 z"
     id="path4413" />
  <g
     id="path4649" />
  <g
     id="path3816">
    <path
       id="path5672"
       style="color:#000000;-inkscape-font-specification:FreeMono;fill:#ffffff;stroke-width:0.547487;-inkscape-stroke:none"
       d="m 78.580531,57.060208 c -1.300674,0 -2.550792,1.044052 -2.550792,2.488577 0,1.377021 1.212563,2.490523 2.611063,2.490523 0.544232,0 1.293256,0.183048 1.808106,0.600757 0.530661,0.430536 0.948771,1.046602 0.948771,2.459415 v 8.966656 c 0,2.317048 0.866995,4.107314 2.010304,5.332944 0.421339,0.451674 0.879373,0.769499 1.329833,1.077087 -0.458692,0.293293 -0.926696,0.596015 -1.35122,1.047924 -1.154378,1.228855 -1.988917,3.057322 -1.988917,5.472926 v 9.026926 c 0,1.377367 -0.410022,1.974656 -0.946826,2.401088 -0.520414,0.413415 -1.286022,0.598815 -1.870322,0.598814 -1.37849,0 -2.550792,1.119135 -2.550792,2.490525 0,1.39329 1.223051,2.49051 2.550792,2.49051 2.423803,0 4.461928,-0.76782 5.838437,-2.22028 1.375439,-1.45133 2.01808,-3.482781 2.01808,-5.760657 v -9.026926 c 0,-1.530476 0.669309,-2.381258 1.697287,-3.05434 1.014216,-0.664069 2.418225,-0.981821 3.314864,-0.981821 0.64117,0 1.314664,-0.171028 1.825605,-0.645475 0.515943,-0.47909 0.725187,-1.160972 0.725187,-1.782832 0,-0.695518 -0.261309,-1.376152 -0.752406,-1.85088 -0.488375,-0.472096 -1.14731,-0.699912 -1.798386,-0.699912 -0.908042,0 -2.313661,-0.307558 -3.326528,-0.952659 -1.027173,-0.654209 -1.685623,-1.469253 -1.685623,-2.962962 V 65.09948 c 0,-2.304886 -0.638819,-4.348531 -2.014192,-5.809273 -1.376672,-1.462121 -3.418624,-2.229998 -5.842325,-2.229999 z m -16.175753,0 c -2.423698,0 -4.465652,0.767878 -5.842324,2.229999 -1.375373,1.460742 -2.014193,3.504387 -2.014193,5.809273 v 8.966656 c 0,1.493709 -0.658449,2.308753 -1.685622,2.962962 -1.01274,0.64502 -2.420432,0.952659 -3.328472,0.952659 -0.651077,0 -1.308361,0.228103 -1.796442,0.699912 -0.490801,0.474443 -0.75435,1.154796 -0.75435,1.85088 0,0.622494 0.211478,1.304012 0.727132,1.782832 0.510651,0.474177 1.182488,0.645475 1.82366,0.645475 0.896638,0 2.302718,0.317835 3.316807,0.981821 1.027978,0.673082 1.697287,1.523864 1.697287,3.05434 v 9.026926 c 0,2.277876 0.64264,4.309327 2.018081,5.760657 1.376506,1.45246 3.414635,2.22028 5.838436,2.22028 1.327744,0 2.550792,-1.09722 2.550792,-2.49051 0,-1.37139 -1.172298,-2.490524 -2.550792,-2.490525 -0.584299,0 -1.349906,-0.185399 -1.870321,-0.598814 -0.536803,-0.426432 -0.946826,-1.023721 -0.946826,-2.401088 v -9.026926 c 0,-2.415755 -0.836593,-4.244187 -1.990862,-5.472926 -0.424822,-0.452229 -0.892166,-0.756001 -1.35122,-1.049868 0.450593,-0.306903 0.910219,-0.623234 1.331778,-1.075143 1.14331,-1.22563 2.010304,-3.015896 2.010304,-5.332944 V 65.09948 c 0,-1.412813 0.418111,-2.028879 0.94877,-2.459415 0.514852,-0.417709 1.263877,-0.600757 1.808107,-0.600757 1.398502,0 2.611062,-1.113503 2.611062,-2.490523 0,-1.444525 -1.250117,-2.488577 -2.550792,-2.488577 z M 39.204617,93.965401 c -2.85536,0 -5.204626,2.164656 -5.204626,4.959657 0,2.794992 2.332247,5.021862 5.204626,5.021862 h 0.61048 c 2.855359,0 5.204625,-2.18003 5.204625,-5.021862 0,-2.795001 -2.349266,-4.959657 -5.204625,-4.959657 z" />
  </g>
</svg>
