<?xml version="1.0" encoding="UTF-8" standalone="no"?>
<svg
   height="128px"
   viewBox="0 0 128 128"
   width="128px"
   version="1.1"
   id="svg35"
   xml:space="preserve"
   xmlns="http://www.w3.org/2000/svg"
   xmlns:svg="http://www.w3.org/2000/svg"><defs
     id="defs39" /><linearGradient
     id="a"
     gradientUnits="userSpaceOnUse"
     x1="36"
     x2="60"
     y1="68"
     y2="68"><stop
       offset="0"
       stop-color="#ed336c"
       id="stop2" /><stop
       offset="1"
       stop-color="#ffa348"
       id="stop4" /></linearGradient><linearGradient
     id="b"
     gradientTransform="matrix(0 1 -1 0 144 -32)"
     gradientUnits="userSpaceOnUse"
     x1="72"
     x2="96"
     y1="68"
     y2="68"><stop
       offset="0"
       stop-color="#404ce6"
       id="stop7" /><stop
       offset="1"
       stop-color="#c061cb"
       id="stop9" /></linearGradient><linearGradient
     id="c"
     gradientUnits="userSpaceOnUse"
     x1="68.84919"
     x2="95.257637"
     y1="84"
     y2="84"><stop
       offset="0"
       stop-color="#33d1c6"
       id="stop12" /><stop
       offset="1"
       stop-color="#1c25d8"
       id="stop14" /></linearGradient><path
     style="display:inline;fill:#63b132;fill-opacity:1;stroke:none;stroke-width:0.125;stroke-linejoin:round;stroke-miterlimit:4;stroke-dasharray:none;stroke-opacity:1;enable-background:new"
     clip-path="none"
     d="m 27.978072,8.0000006 h 50.000002 l 30.042896,29.9178934 10e-4,74.060006 c 8e-5,4.432 -3.6122,8.0221 -8.044196,8.0221 H 27.978011 c -4.431999,0 -7.999999,-3.568 -7.999999,-8.00001 V 16 c 0,-4.431999 3.568,-7.9999994 7.999999,-7.9999994 z"
     id="path4411" /><path
     style="display:inline;vector-effect:none;fill:#5881d8;fill-opacity:1;stroke:none;stroke-width:0.125;stroke-linecap:butt;stroke-linejoin:round;stroke-miterlimit:4;stroke-dasharray:none;stroke-dashoffset:0;stroke-opacity:1;enable-background:new"
     d="M 77.978074,8.0000006 V 30.000002 c 0,4.432 3.610527,7.923448 8.042527,7.923448 l 22.000369,-0.0055 z"
     id="path4413" /><path
     id="path8"
     style="fill:#ffffff;stroke-width:0.234373"
     d="m 64,44.000207 c -16.54125,0 -30,13.458605 -30,30 0,16.542802 13.45875,30.000003 30,30.000003 16.541718,0 30,-13.457201 30,-30.000003 0,-16.541395 -13.458282,-30 -30,-30 z m 0.0293,2.939453 c 14.973048,0 27.111329,12.139277 27.111329,27.111328 0,1.172321 -0.08437,2.32385 -0.228516,3.457031 -0.737109,2.933849 -2.06586,4.892136 -3.652344,6.228516 -2.433047,2.046288 -5.679062,2.708431 -8.68164,2.707031 -0.845391,0.0042 -1.672969,-0.04977 -2.449219,-0.136718 3.162422,-3.122755 5.125,-7.459704 5.125,-12.25586 h 0.002 c -0.0014,-9.512861 -7.713515,-17.223409 -17.226563,-17.224609 -2.466563,0 -4.810546,0.52283 -6.93164,1.457031 -0.266953,-0.183043 -0.539063,-0.359926 -0.826172,-0.525391 -1.18875,-0.668425 -3.666952,-1.64715 -6.818359,-1.65625 -2.28164,-0.02062 -4.896485,0.558548 -7.457032,2.16211 4.92,-6.854163 12.952583,-11.324219 22.033203,-11.324219 z m 0,12.775391 c 7.916954,0.0157 14.322578,6.421014 14.335938,14.335937 -0.0091,4.747642 -2.31672,8.948802 -5.869141,11.556641 -0.528047,-0.149762 -0.908828,-0.286171 -1.076171,-0.369141 -0.56086,-0.242574 -1.383985,-1.06846 -2.132813,-2.21875 -1.140469,-1.716529 -2.185859,-4.07199 -2.919922,-5.974609 -0.739219,-1.905197 -1.169275,-3.341503 -1.171875,-3.345703 -4e-4,-0.0019 -0.0012,-0.0036 -0.002,-0.0059 -1.353985,-5.186383 -2.755313,-9.928347 -5.666016,-13.246094 1.41539,-0.468975 2.92836,-0.729421 4.501953,-0.732421 z m -14.34375,1.023437 c 1.025157,-0.0019 2.029844,0.132739 2.992188,0.365234 -3.598125,3.156267 -5.873047,7.784789 -5.873047,12.947266 0.0012,9.514502 7.712734,17.22461 17.224609,17.22461 2.748985,0 5.345079,-0.648304 7.650391,-1.792969 1.370625,0.483506 2.9375,0.771879 4.835938,1.009765 0.711797,0.08695 1.479922,0.13086 2.298828,0.13086 2.184844,-0.0068 4.735547,-0.323216 7.388672,-0.984375 -4.905234,6.967833 -13.00461,11.523441 -22.173829,11.523441 -14.971875,0 -27.109374,-12.138578 -27.109374,-27.111332 0,-0.985293 -0.04945,-1.816584 0.158203,-2.916016 2.220938,-7.553055 7.553827,-10.348904 12.607421,-10.396484 z m 6.105469,1.595703 c 0.806484,0.465928 1.537031,1.011184 2.138672,1.642578 1.180078,1.208648 2.501797,3.877545 3.417969,6.175782 0.250547,0.620378 0.473516,1.21048 0.669922,1.75 -3.307266,6.726431 -5.512734,10.083194 -6.392578,13.748047 -3.586875,-2.603855 -5.920588,-6.82525 -5.929688,-11.59961 0.0091,-4.84678 2.41625,-9.123723 6.095703,-11.716797 z M 62.9043,74.539269 c 1.700626,6.053788 2.774609,9.654657 4.701172,12.111329 0.290156,0.366788 0.609376,0.692661 0.94336,0.998046 -1.421015,0.472491 -2.939141,0.733328 -4.519532,0.736328 -1.736015,-0.003 -3.398359,-0.31337 -4.9375,-0.878906 -0.03164,-0.39843 -0.05273,-0.789929 -0.05273,-1.162109 -0.0019,-0.940998 0.0957,-1.78978 0.253906,-2.474609 0.44039,-1.922776 1.647658,-4.92411 2.736328,-7.390626 0.30797,-0.698423 0.605469,-1.355402 0.875,-1.939453 z" /></svg>
