<?xml version="1.0" encoding="UTF-8" standalone="no"?>
<svg
   height="128px"
   viewBox="0 0 128 128"
   width="128px"
   version="1.1"
   id="svg35"
   xmlns:xlink="http://www.w3.org/1999/xlink"
   xmlns="http://www.w3.org/2000/svg"
   xmlns:svg="http://www.w3.org/2000/svg">
  <defs
     id="defs39">
    <linearGradient
       id="linearGradient1117">
      <stop
         offset="0"
         id="stop1113"
         style="stop-color:#ffffff;stop-opacity:1;" />
      <stop
         stop-color="#fff"
         offset="1"
         id="stop1115"
         style="stop-color:#ffffff;stop-opacity:0.5;" />
    </linearGradient>
    <filter
       height="1.0214333"
       y="-0.010716652"
       width="1.0272651"
       x="-0.01363253"
       id="filter16020"
       style="color-interpolation-filters:sRGB">
      <feGaussianBlur
         id="feGaussianBlur16022"
         stdDeviation="2.0004419" />
    </filter>
    <linearGradient
       id="linearGradient3005"
       x1="-666.12"
       x2="-553.27002"
       y1="413.04001"
       y2="525.90997"
       gradientTransform="matrix(0.29965176,0,0,0.29960976,-194.47302,-159.69655)"
       gradientUnits="userSpaceOnUse"
       xlink:href="#linearGradient8385" />
    <linearGradient
       id="linearGradient8385">
      <stop
         offset="0"
         id="stop4-3"
         style="stop-color:#ffffff;stop-opacity:1;" />
      <stop
         stop-color="#fff"
         offset="1"
         id="stop6"
         style="stop-color:#ffffff;stop-opacity:0.5;" />
    </linearGradient>
    <linearGradient
       id="linearGradient3002"
       x1="-553.27002"
       x2="-666.12"
       y1="525.90997"
       y2="413.04999"
       gradientTransform="matrix(0.29965176,0,0,0.29960976,-194.47302,-159.69655)"
       gradientUnits="userSpaceOnUse"
       xlink:href="#linearGradient1117" />
    <linearGradient
       xlink:href="#linearGradient1117"
       id="linearGradient1184"
       gradientUnits="userSpaceOnUse"
       gradientTransform="matrix(0.29965176,0,0,0.29960976,-85.05568,-167.51417)"
       x1="-553.27002"
       y1="525.90997"
       x2="-666.12"
       y2="413.04999" />
    <linearGradient
       xlink:href="#linearGradient8385"
       id="linearGradient1219"
       gradientUnits="userSpaceOnUse"
       gradientTransform="matrix(0.29965176,0,0,0.29960976,-85.05568,-167.52851)"
       x1="-666.12"
       y1="413.04001"
       x2="-553.27002"
       y2="525.90997" />
  </defs>
  <linearGradient
     id="a"
     gradientUnits="userSpaceOnUse"
     x1="36"
     x2="60"
     y1="68"
     y2="68">
    <stop
       offset="0"
       stop-color="#ed336c"
       id="stop2" />
    <stop
       offset="1"
       stop-color="#ffa348"
       id="stop4" />
  </linearGradient>
  <linearGradient
     id="b"
     gradientTransform="matrix(0 1 -1 0 144 -32)"
     gradientUnits="userSpaceOnUse"
     x1="72"
     x2="96"
     y1="68"
     y2="68">
    <stop
       offset="0"
       stop-color="#404ce6"
       id="stop7" />
    <stop
       offset="1"
       stop-color="#c061cb"
       id="stop9" />
  </linearGradient>
  <linearGradient
     id="c"
     gradientUnits="userSpaceOnUse"
     x1="68.84919"
     x2="95.257637"
     y1="84"
     y2="84">
    <stop
       offset="0"
       stop-color="#33d1c6"
       id="stop12" />
    <stop
       offset="1"
       stop-color="#1c25d8"
       id="stop14" />
  </linearGradient>
  <path
     style="display:inline;fill:#0000b2;fill-opacity:1;stroke:none;stroke-width:0.125;stroke-linejoin:round;stroke-miterlimit:4;stroke-dasharray:none;stroke-opacity:1;enable-background:new"
     clip-path="none"
     d="m 27.978085,7.9999995 h 50.000002 l 30.042893,29.9178935 0.001,74.060007 c 8e-5,4.432 -3.6122,8.0221 -8.044205,8.0221 H 27.978023 c -4.431999,0 -7.999998,-3.568 -7.999998,-8.00001 V 15.999998 c 0,-4.431999 3.567999,-7.9999984 7.999998,-7.9999984 z"
     id="path4411" />
  <path
     style="display:inline;vector-effect:none;fill:#000080;fill-opacity:1;stroke:none;stroke-width:0.125;stroke-linecap:butt;stroke-linejoin:round;stroke-miterlimit:4;stroke-dasharray:none;stroke-dashoffset:0;stroke-opacity:1;enable-background:new"
     d="M 77.978087,7.9999995 V 30 c 0,4.432001 3.610528,7.923449 8.042528,7.923449 l 22.000365,-0.0055 z"
     id="path4413" />
  <g
     id="g18"
     transform="matrix(0.06339099,0,0,0.06338999,33.984841,44.310263)">
    <path
       id="path2"
       style="fill:#ffffff"
       d="m 473.51085,111.58301 c -199.7998,0 -362.01588,162.21609 -362.01588,362.01589 0,199.7998 162.21608,362.01588 362.01588,362.01588 199.7998,0 361.97737,-162.21608 361.97737,-362.01588 0,-199.7998 -162.17757,-362.01589 -361.97737,-362.01589 z m 150.00552,106.02444 c 58.49994,0 105.98593,47.48599 105.98593,105.98593 0,58.49994 -47.48599,106.02444 -105.98593,106.02444 -58.49994,0 -106.02444,-47.5245 -106.02444,-106.02444 0,-58.49994 47.5245,-105.98593 106.02444,-105.98593 z" />
    <path
       fill="#000080"
       d="m 941.5,111.5 c 0,-58.5 -47.5,-106 -106,-106 -58.5,0 -106,47.5 -106,106 0,58.5 47.5,106 106,106 58.5,0 106,-47.4 106,-106"
       id="path6"
       style="fill:#ffffff" />
    <path
       fill="none"
       stroke="#808080"
       stroke-width="10.8612"
       stroke-miterlimit="10"
       stroke-dasharray="40.8475"
       d="m 890.6,261 c 33.5,65.8 51,138.6 51,212.5 0,258.4 -209.7,468.1 -468.1,468.1 C 215.1,941.6 5.4,731.9 5.4,473.5 5.4,215.1 215.1,5.4 473.5,5.4 c 83.1,0 164.6,22.1 236.2,63.9"
       id="path16"
       style="stroke:#ffffff;stroke-width:10.8648;stroke-dasharray:40.861;stroke-dashoffset:0;stroke-opacity:0.6" />
  </g>
</svg>
