<?xml version="1.0" encoding="UTF-8" standalone="no"?>
<svg
   height="16"
   width="16"
   version="1.1"
   id="svg10236"
   xmlns="http://www.w3.org/2000/svg"
   xmlns:svg="http://www.w3.org/2000/svg">
  <defs
     id="defs3051">
    <style
       type="text/css"
       id="current-color-scheme">
            .ColorScheme-NegativeText {
                color:#da4453;
            }
        </style>
  </defs>
  <path
     style="fill:currentColor;fill-opacity:1;stroke:none;stroke-width:1.23077"
     class="ColorScheme-NegativeText"
     d="M 6.1538462,0.6153848 2.4615386,4.3076924 H 7.3846154 V 0.6153848 Z m 2.4615384,0 V 4.3076924 H 14.769231 V 0.6153848 Z M 2e-7,6.7692308 V 9.2307692 H 2.4615386 V 5.5384616 H 1.2307694 Z M 3.6923078,5.5384616 V 9.2307692 H 4.923077 V 5.5384616 Z M 2e-7,10.461538 v 3.692308 H 4.923077 v -3.692308 z"
     id="path10230" />
  <path
     style="fill:currentColor;fill-opacity:1;stroke:none;stroke-width:1.23077"
     class="ColorScheme-NegativeText"
     d="m 7.3846154,5.5384616 c -0.6818461,0 -1.2307692,0.5489231 -1.2307692,1.2307692 v 7.3846152 c 0,0.681846 0.5489231,1.230769 1.2307692,1.230769 H 14.769231 C 15.451077,15.384615 16,14.835692 16,14.153846 V 6.7692308 C 16,6.0873847 15.451077,5.5384616 14.769231,5.5384616 Z"
     id="path10232" />
  <path
     d="M 8.6153846,6.7692308 7.3846154,8 l 2.4615384,2.461538 -2.4615384,2.461539 1.2307692,1.230769 2.4615384,-2.461538 2.461538,2.461538 1.23077,-1.230769 L 12.307692,10.461538 14.769231,8 13.538461,6.7692308 11.076923,9.2307692 Z"
     fill="#ffffff"
     id="path10234"
     style="stroke-width:1.23077" />
</svg>
