<?xml version="1.0" encoding="UTF-8" standalone="no"?>
<svg
   height="16"
   width="16"
   version="1.1"
   id="svg10771"
   xmlns="http://www.w3.org/2000/svg"
   xmlns:svg="http://www.w3.org/2000/svg">
  <defs
     id="defs1">
    <style
       type="text/css"
       id="current-color-scheme">
            .ColorScheme-Text {
                color:#232629;
            }
            .ColorScheme-NeutralText {
                color:#f67400;
            }
        </style>
  </defs>
  <path
     style="fill:#000000;fill-opacity:1;stroke:none;stroke-width:1.23077"
     class="ColorScheme-Text"
     d="M 2e-7,0.6153848 V 4.3076924 H 7.3846154 V 0.6153848 Z m 8.6153844,0 V 4.3076924 H 14.769231 V 0.6153848 Z M 2e-7,5.5384616 V 9.2307692 H 2.4615386 V 5.5384616 Z m 3.6923076,0 V 9.2307692 H 4.923077 V 5.5384616 Z M 2e-7,10.461538 v 3.692308 H 4.923077 v -3.692308 z"
     id="path10765" />
  <path
     style="fill:currentColor;fill-opacity:1;stroke:none;stroke-width:1.23077"
     class="ColorScheme-NeutralText"
     d="m 7.3846154,5.5384616 c -0.6818461,0 -1.2307692,0.5489231 -1.2307692,1.2307692 v 7.3846152 c 0,0.681846 0.5489231,1.230769 1.2307692,1.230769 H 14.769231 C 15.451077,15.384615 16,14.835692 16,14.153846 V 6.7692308 C 16,6.0873847 15.451077,5.5384616 14.769231,5.5384616 Z"
     id="path10767" />
  <path
     d="M 11.076923,6.7692308 A 2.4615384,2.4615384 0 0 0 8.6153846,9.2307692 l 0.00246,1.2307688 H 7.3846154 v 3.692308 h 7.3846156 v -3.692308 h -1.23077 V 9.2307692 A 2.4615384,2.4615384 0 0 0 11.076923,6.7692308 Z m 0,1.2307692 a 1.2307692,1.2307692 0 0 1 1.230769,1.2307692 V 10.461538 H 9.8461538 V 9.2307692 A 1.2307692,1.2307692 0 0 1 11.076923,8 Z"
     fill="#ffffff"
     id="path10769"
     style="stroke-width:1.23077" />
</svg>
