<?xml version="1.0" encoding="UTF-8" standalone="no"?>
<svg
   width="24"
   height="24"
   version="1.1"
   id="svg2831"
   xmlns="http://www.w3.org/2000/svg"
   xmlns:svg="http://www.w3.org/2000/svg">
  <defs
     id="defs2825">
    <style
       id="current-color-scheme"
       type="text/css">
   .ColorScheme-Text { color:#dfdfdf; } .ColorScheme-Highlight { color:#4285f4; } .ColorScheme-NeutralText { color:#ff9800; } .ColorScheme-PositiveText { color:#4caf50; } .ColorScheme-NegativeText { color:#f44336; }
  </style>
  </defs>
  <path
     style="opacity:0.35;fill:#000000;stroke-width:1.37497"
     class="ColorScheme-Text"
     d="M 3.3817288,3.0647691 C 3.324288,3.0634181 3.2686678,3.0650932 3.212543,3.0674503 1.5287811,3.1389047 0.41183817,4.8808896 1.3300163,6.3249468 l 0.088621,0.088621 9.2219647,1.0151143 A 6.874848,6.874848 0 0 1 10.624487,7.1896779 6.874848,6.874848 0 0 1 11.465045,3.9321816 L 3.5562854,3.0755111 C 3.4978561,3.0701625 3.4391696,3.06612 3.3817288,3.0647726 Z M 2.2215982,7.8852187 8.6291713,19.06759 c 0.8031581,-0.129783 0.953115,-0.337269 1.4501637,-1.028542 l 3.464279,-5.244757 A 6.874848,6.874848 0 0 1 10.839328,8.8331974 Z m 12.5170568,5.5938723 -3.526045,5.341434 -0.800275,1.111792 c -0.356142,0.42787 -1.0702655,0.427512 -1.3373727,-0.08594 l 0.8029604,1.369599 c 0.1780713,0.256721 0.3563413,0.427716 0.5344123,0.598864 0.979391,0.770163 2.582395,0.685105 3.383715,-0.512928 l 5.037974,-7.385091 a 6.874848,6.874848 0 0 1 -1.334687,0.147702 6.874848,6.874848 0 0 1 -2.760682,-0.585436 z"
     id="path2827" />
  <path
     style="fill:#000000;stroke-width:1.37497"
     class="ColorScheme-Text"
     d="m 17.416086,1.6871141 c -0.07943,0.00129 -0.159209,0.00595 -0.239008,0.010738 -0.364796,0.021903 -0.734294,0.081658 -1.101049,0.1799277 -2.934048,0.7862076 -4.674655,3.8011549 -3.888586,6.7352033 0.786125,2.9339099 3.801154,4.6747929 6.735202,3.8885859 2.934047,-0.786208 4.674656,-3.8011557 3.888585,-6.7352033 -0.666362,-2.486944 -2.932569,-4.1191405 -5.395144,-4.0792516 z m -1.979204,2.7526246 a 0.6874848,0.6874848 0 0 1 0.486074,0.2014116 l 1.576381,1.5763812 1.57638,-1.5763812 a 0.6874848,0.6874848 0 0 1 0.972148,0 0.6874848,0.6874848 0 0 1 0,0.9721464 l -1.576382,1.5763812 1.576382,1.5763811 a 0.6874848,0.6874848 0 0 1 0,0.9721475 0.6874848,0.6874848 0 0 1 -0.972148,0 l -1.57638,-1.5763824 -1.576381,1.5763824 a 0.6874848,0.6874848 0 0 1 -0.972148,0 0.6874848,0.6874848 0 0 1 0,-0.9721475 L 16.52719,7.1896779 14.950808,5.6132967 a 0.6874848,0.6874848 0 0 1 0,-0.9721464 0.6874848,0.6874848 0 0 1 0.486074,-0.2014116 z"
     id="path2829" />
</svg>
