<?xml version="1.0" encoding="UTF-8" standalone="no"?>
<svg
   width="24"
   height="24"
   version="1.1"
   id="svg2703"
   xmlns="http://www.w3.org/2000/svg"
   xmlns:svg="http://www.w3.org/2000/svg">
  <defs
     id="defs2697">
    <style
       id="current-color-scheme"
       type="text/css">
   .ColorScheme-Text { color:#dfdfdf; } .ColorScheme-Highlight { color:#4285f4; } .ColorScheme-NeutralText { color:#ff9800; } .ColorScheme-PositiveText { color:#4caf50; } .ColorScheme-NegativeText { color:#f44336; }
  </style>
  </defs>
  <path
     style="fill:currentColor;stroke-width:1.37486"
     class="ColorScheme-PositiveText"
     d="m 17.177542,1.6970745 c -0.364767,0.021902 -0.734235,0.081653 -1.100961,0.1799143 -2.933814,0.7861449 -4.674282,3.8008516 -3.888276,6.7346651 0.786062,2.9336761 3.800851,4.6744211 6.734664,3.8882761 2.933814,-0.786145 4.674284,-3.8008515 3.888276,-6.734665 C 22.123441,3.1982984 19.730913,1.54379 17.177542,1.6970745 Z m 2.352299,2.7336098 a 0.68749869,0.68749869 0 0 1 0.647152,1.0016061 l -2.06229,4.1245797 A 0.68749869,0.68749869 0 0 1 17.118466,9.822713 l -2.06229,-1.3748603 a 0.68749869,0.68749869 0 1 1 0.762618,-1.1439274 l 1.415139,0.942531 1.713204,-3.4264075 a 0.68749869,0.68749869 0 0 1 0.582704,-0.3893645 z"
     id="path2699" />
  <path
     style="fill:#000000;stroke-width:1.37486"
     class="ColorScheme-Text"
     d="M 3.381608,3.0654463 C 3.324165,3.0640952 3.2685629,3.0657703 3.2124357,3.0681272 1.5286213,3.139576 0.41185246,4.8814218 1.3300592,6.3253638 l 0.088614,0.088614 9.2212288,1.0123487 A 6.8742995,6.8742995 0 0 1 10.623789,7.1900264 6.8742995,6.8742995 0 0 1 11.46428,3.9327896 L 3.5561507,3.0761874 C 3.4977192,3.0708391 3.4390512,3.0667971 3.381608,3.0654497 Z M 2.22157,7.8855116 8.6286318,19.066991 c 0.8031834,-0.129773 0.952984,-0.337242 1.4500482,-1.02846 l 3.464002,-5.244338 a 6.8742995,6.8742995 0 0 1 -2.70407,-3.9607797 z m 12.518744,5.5934254 -3.528448,5.341008 -0.800213,1.111704 C 10.0555,20.359484 9.3415021,20.359127 9.0743873,19.84572 l 0.8028963,1.36949 c 0.1780774,0.2567 0.3562934,0.427681 0.5343694,0.598816 0.979421,0.770101 2.582101,0.68505 3.383445,-0.512888 l 5.040257,-7.384502 a 6.8742995,6.8742995 0 0 1 -1.337266,0.147691 6.8742995,6.8742995 0 0 1 -2.757775,-0.58539 z"
     id="path2701" />
</svg>
