<?xml version="1.0" encoding="UTF-8" standalone="no"?>
<svg
   width="24"
   height="24"
   version="1"
   id="svg527"
   xmlns="http://www.w3.org/2000/svg"
   xmlns:svg="http://www.w3.org/2000/svg">
  <defs
     id="defs521">
    <style
       id="current-color-scheme"
       type="text/css">
   .ColorScheme-Text { color:#dfdfdf; } .ColorScheme-Highlight { color:#4285f4; } .ColorScheme-NeutralText { color:#ff9800; } .ColorScheme-PositiveText { color:#4caf50; } .ColorScheme-NegativeText { color:#f44336; }
  </style>
  </defs>
  <path
     style="fill:#000000;stroke-width:1.375"
     class="ColorScheme-Text"
     d="M 6.5,1 A 5.5,5.5 0 0 0 1,6.5 5.5,5.5 0 0 0 2.5334,10.30875 9.625,9.625 0 0 0 2.375,12 9.625,9.625 0 0 0 12,21.625 9.625,9.625 0 0 0 13.70225,21.469625 5.5,5.5 0 0 0 17.5,23 5.5,5.5 0 0 0 23,17.5 5.5,5.5 0 0 0 21.466875,13.69125 9.625,9.625 0 0 0 21.625,12 9.625,9.625 0 0 0 12,2.375 9.625,9.625 0 0 0 10.29775,2.5307875 5.5,5.5 0 0 0 6.5,1 Z M 12,5.248475 a 1.375,1.375 0 0 1 1.375,1.375 1.375,1.375 0 0 1 -1.375,1.375 4.125,4.125 0 0 0 -4.125,4.125 H 9.25 l -2.75,4.125 -2.75,-4.125 H 5.125 A 6.875,6.875 0 0 1 11.87075,5.2537 1.375,1.375 0 0 1 12,5.2482 Z m 5.5,2.75 2.75,4.125 h -1.375 a 6.875,6.875 0 0 1 -6.746025,6.869638 1.375,1.375 0 0 1 -0.128906,0.0054 1.375,1.375 0 0 1 -1.375,-1.375 1.375,1.375 0 0 1 1.375,-1.375 4.125,4.125 0 0 0 4.125,-4.125 h -1.375 l 2.75,-4.125 z"
     id="path523" />
  <path
     style="fill:currentColor"
     class="ColorScheme-Text"
     d="m-22.069-4.0812"
     id="path525" />
</svg>
