<?xml version="1.0" encoding="UTF-8" standalone="no"?>
<svg
   width="24"
   height="24"
   version="1"
   id="svg399"
   xmlns="http://www.w3.org/2000/svg"
   xmlns:svg="http://www.w3.org/2000/svg">
  <defs
     id="defs391">
    <style
       id="current-color-scheme"
       type="text/css">
   .ColorScheme-Text { color:#dfdfdf; } .ColorScheme-Highlight { color:#4285f4; } .ColorScheme-NeutralText { color:#ff9800; } .ColorScheme-PositiveText { color:#4caf50; } .ColorScheme-NegativeText { color:#f44336; }
  </style>
  </defs>
  <path
     style="fill:#000000;stroke-width:1.22222"
     class="ColorScheme-Text"
     d="m 5.888889,2.8333335 a 4.8888888,4.8888888 0 0 0 -4.8888888,4.8888888 4.8888888,4.8888888 0 0 0 1.3630222,3.3849447 8.5555554,8.5555554 0 0 0 -0.1408,1.503944 8.5555554,8.5555554 0 0 0 8.5555556,8.555555 8.5555554,8.5555554 0 0 0 1.513111,-0.138111 4.8888888,4.8888888 0 0 0 3.375778,1.360334 A 4.8888888,4.8888888 0 0 0 20.555555,17.5 4.8888888,4.8888888 0 0 0 19.192778,14.114444 8.5555554,8.5555554 0 0 0 19.333333,12.611111 8.5555554,8.5555554 0 0 0 10.777778,4.0555557 8.5555554,8.5555554 0 0 0 9.2643,4.1940335 4.8888888,4.8888888 0 0 0 5.888889,2.8333335 Z M 10.933,7.7222223 c 2.412178,0 3.657133,1.2740444 3.657133,2.0219222 0,0.7503835 -0.360445,0.8617645 -0.952477,0.8617645 -1.15049,0 -0.678578,-1.3845334 -2.8336,-1.3845334 -0.713106,0 -1.6041671,0.3244511 -1.6041671,1.1577624 0,0.6699 0.7891889,0.916728 2.1819111,1.260355 2.099778,0.562223 3.674,1.123223 3.674,3.050667 0,1.871222 -1.524111,2.809889 -3.936778,2.809889 -2.4118108,0 -3.9527886,-1.443445 -3.9527886,-2.191445 0,-0.747877 0.2840567,-0.935757 0.8760889,-0.935757 1.1523233,0 0.9985189,1.575566 3.1534557,1.575566 0.715611,0 1.771244,-0.326724 1.771244,-1.162541 0,-0.667394 -0.05631,-0.898284 -1.5851,-1.310589 -1.6328886,-0.221222 -4.2704441,-0.752889 -4.2704441,-2.790577 0,-1.8711004 1.4121555,-2.9599781 3.8243331,-2.9599781 l -0.0024,-0.00244 z"
     id="path395" />
  <circle
     style="fill:currentColor;stroke-width:1.22222"
     class="ColorScheme-Highlight"
     cx="20.555555"
     cy="4.0555558"
     r="2.4444444"
     id="circle397" />
</svg>
