<?xml version="1.0" encoding="UTF-8" standalone="no"?>
<svg
   width="24"
   height="24"
   version="1"
   id="svg1163"
   xmlns="http://www.w3.org/2000/svg"
   xmlns:svg="http://www.w3.org/2000/svg">
  <defs
     id="defs1157">
    <style
       id="current-color-scheme"
       type="text/css">
   .ColorScheme-Text { color:#dfdfdf; } .ColorScheme-Highlight { color:#4285f4; } .ColorScheme-NeutralText { color:#ff9800; } .ColorScheme-PositiveText { color:#4caf50; } .ColorScheme-NegativeText { color:#f44336; }
  </style>
  </defs>
  <path
     style="fill:#000000;stroke-width:1.22222"
     class="ColorScheme-Text"
     d="m 5.888889,2.8333335 a 4.8888888,4.8888888 0 0 0 -4.8888888,4.8888888 4.8888888,4.8888888 0 0 0 1.3630222,3.3849447 8.5555554,8.5555554 0 0 0 -0.1408,1.503944 8.5555554,8.5555554 0 0 0 8.5555556,8.555555 8.5555554,8.5555554 0 0 0 1.513111,-0.138111 4.8888888,4.8888888 0 0 0 3.375778,1.360334 A 4.8888888,4.8888888 0 0 0 20.555555,17.5 4.8888888,4.8888888 0 0 0 19.192778,14.114444 8.5555554,8.5555554 0 0 0 19.333333,12.611111 8.5555554,8.5555554 0 0 0 10.777778,4.0555557 8.5555554,8.5555554 0 0 0 9.2643,4.1940335 4.8888888,4.8888888 0 0 0 5.888889,2.8333335 Z M 7.9752223,8.190089 10.777778,10.992644 13.580333,8.190089 15.308555,9.9184334 12.506,12.721111 15.308555,15.523667 13.580333,17.251889 10.777778,14.449333 7.9752223,17.251889 6.2470001,15.523667 9.0494334,12.721111 6.2470001,9.9184334 Z"
     id="path1159" />
  <circle
     style="fill:currentColor;stroke-width:1.22222"
     class="ColorScheme-Highlight"
     cx="20.555555"
     cy="4.0555558"
     r="2.4444444"
     id="circle1161" />
</svg>
