<?xml version="1.0" encoding="UTF-8" standalone="no"?>
<svg
   width="24"
   height="24"
   version="1"
   id="svg1035"
   xmlns="http://www.w3.org/2000/svg"
   xmlns:svg="http://www.w3.org/2000/svg">
  <defs
     id="defs1031">
    <style
       id="current-color-scheme"
       type="text/css">
   .ColorScheme-Text { color:#dfdfdf; } .ColorScheme-Highlight { color:#4285f4; } .ColorScheme-NeutralText { color:#ff9800; } .ColorScheme-PositiveText { color:#4caf50; } .ColorScheme-NegativeText { color:#f44336; }
  </style>
  </defs>
  <path
     style="fill:#000000;stroke-width:1.375"
     class="ColorScheme-Text"
     d="M 6.5,1 A 5.5,5.5 0 0 0 1,6.5 5.5,5.5 0 0 0 2.5334,10.30875 9.625,9.625 0 0 0 2.375,12 9.625,9.625 0 0 0 12,21.625 9.625,9.625 0 0 0 13.70225,21.469625 5.5,5.5 0 0 0 17.5,23 5.5,5.5 0 0 0 23,17.5 5.5,5.5 0 0 0 21.466875,13.69125 9.625,9.625 0 0 0 21.625,12 9.625,9.625 0 0 0 12,2.375 9.625,9.625 0 0 0 10.29775,2.5307875 5.5,5.5 0 0 0 6.5,1 Z M 8.847125,7.02635 12,10.1795 l 3.152875,-3.15315 1.94425,1.944387 -3.152875,3.153013 3.152875,3.152875 -1.94425,1.94425 L 12,14.068 8.847125,17.220875 6.902875,15.276625 10.05575,12.12375 6.902875,8.970737 Z"
     id="path1033" />
</svg>
