<?xml version="1.0" encoding="UTF-8" standalone="no"?>
<svg
   height="128"
   viewBox="0 0 128 128"
   width="128"
   version="1.1"
   id="svg286"
   xml:space="preserve"
   xmlns="http://www.w3.org/2000/svg"
   xmlns:svg="http://www.w3.org/2000/svg"><defs
     id="defs290"><filter
       style="color-interpolation-filters:sRGB"
       id="filter12"
       x="0"
       y="0"
       width="1"
       height="1"><feComponentTransfer
         in="blur"
         result="fbSourceGraphic"
         id="feComponentTransfer12"><feFuncR
           type="gamma"
           amplitude="0.8"
           exponent="1"
           offset="0"
           id="feFuncR12" /><feFuncG
           type="gamma"
           amplitude="0.8"
           exponent="1"
           offset="0"
           id="feFuncG12" /><feFuncB
           type="gamma"
           amplitude="0.8"
           exponent="1"
           offset="0"
           id="feFuncB12" /></feComponentTransfer><feColorMatrix
         result="fbSourceGraphicAlpha"
         in="fbSourceGraphic"
         values="0 0 0 -1 0 0 0 0 -1 0 0 0 0 -1 0 0 0 0 1 0"
         id="feColorMatrix54" /><feComposite
         id="feComposite54"
         in2="fbSourceGraphic"
         operator="arithmetic"
         k1="0"
         k2="1"
         result="composite1"
         in="fbSourceGraphic"
         k3="0"
         k4="0" /><feColorMatrix
         id="feColorMatrix55"
         in="composite1"
         values="1"
         type="saturate"
         result="colormatrix1" /><feFlood
         id="feFlood55"
         flood-opacity="1"
         flood-color="rgb(0,116,126)"
         result="flood1" /><feBlend
         id="feBlend55"
         in="flood1"
         in2="colormatrix1"
         mode="multiply"
         result="blend1" /><feBlend
         id="feBlend56"
         in2="blend1"
         mode="screen"
         result="blend2" /><feColorMatrix
         id="feColorMatrix56"
         in="blend2"
         values="1"
         type="saturate"
         result="colormatrix2" /><feComposite
         id="feComposite56"
         in="colormatrix2"
         in2="fbSourceGraphic"
         operator="in"
         result="composite2" /></filter><filter
       style="color-interpolation-filters:sRGB"
       id="filter13"
       x="0"
       y="0"
       width="1"
       height="1"><feComponentTransfer
         in="blur"
         result="fbSourceGraphic"
         id="feComponentTransfer13"><feFuncR
           type="gamma"
           amplitude="0.8"
           exponent="1"
           offset="0"
           id="feFuncR13" /><feFuncG
           type="gamma"
           amplitude="0.8"
           exponent="1"
           offset="0"
           id="feFuncG13" /><feFuncB
           type="gamma"
           amplitude="0.8"
           exponent="1"
           offset="0"
           id="feFuncB13" /></feComponentTransfer><feColorMatrix
         result="fbSourceGraphicAlpha"
         in="fbSourceGraphic"
         values="0 0 0 -1 0 0 0 0 -1 0 0 0 0 -1 0 0 0 0 1 0"
         id="feColorMatrix69" /><feComposite
         id="feComposite69"
         in2="fbSourceGraphic"
         operator="arithmetic"
         k1="0"
         k2="1"
         result="composite1"
         in="fbSourceGraphic"
         k3="0"
         k4="0" /><feColorMatrix
         id="feColorMatrix70"
         in="composite1"
         values="1"
         type="saturate"
         result="colormatrix1" /><feFlood
         id="feFlood70"
         flood-opacity="1"
         flood-color="rgb(0,107,116)"
         result="flood1" /><feBlend
         id="feBlend70"
         in="flood1"
         in2="colormatrix1"
         mode="multiply"
         result="blend1" /><feBlend
         id="feBlend71"
         in2="blend1"
         mode="screen"
         result="blend2" /><feColorMatrix
         id="feColorMatrix71"
         in="blend2"
         values="1"
         type="saturate"
         result="colormatrix2" /><feComposite
         id="feComposite71"
         in="colormatrix2"
         in2="fbSourceGraphic"
         operator="in"
         result="composite2" /></filter></defs><linearGradient
     id="a"
     gradientUnits="userSpaceOnUse"
     x1="11.999989"
     x2="115.99999"
     y1="64"
     y2="64"><stop
       offset="0"
       stop-color="#3d3846"
       id="stop252" /><stop
       offset="0.05"
       stop-color="#77767b"
       id="stop254" /><stop
       offset="0.1"
       stop-color="#5e5c64"
       id="stop256" /><stop
       offset="0.899999"
       stop-color="#504e56"
       id="stop258" /><stop
       offset="0.95"
       stop-color="#77767b"
       id="stop260" /><stop
       offset="1"
       stop-color="#3d3846"
       id="stop262" /></linearGradient><linearGradient
     id="b"
     gradientUnits="userSpaceOnUse"
     x1="12"
     x2="112.04102"
     y1="60"
     y2="80.988281"><stop
       offset="0"
       stop-color="#77767b"
       id="stop265" /><stop
       offset="0.384443"
       stop-color="#9a9996"
       id="stop267" /><stop
       offset="0.720567"
       stop-color="#77767b"
       id="stop269" /><stop
       offset="1"
       stop-color="#68666f"
       id="stop271" /></linearGradient><path
     d="m 20,22 h 88 c 4.41797,0 8,3.582031 8,8 v 78 c 0,4.41797 -3.58203,8 -8,8 H 20 c -4.417969,0 -8,-3.58203 -8,-8 V 30 c 0,-4.417969 3.582031,-8 8,-8 z m 0,0"
     fill="url(#a)"
     id="path274"
     style="fill:url(#a);filter:url(#filter13)" /><path
     d="m 20,12 h 88 c 4.41797,0 8,3.582031 8,8 v 80 c 0,4.41797 -3.58203,8 -8,8 H 20 c -4.417969,0 -8,-3.58203 -8,-8 V 20 c 0,-4.417969 3.582031,-8 8,-8 z m 0,0"
     fill="url(#b)"
     id="path276"
     style="fill:url(#b);filter:url(#filter12)" /><path
     d="m 20,14 h 88 c 3.3125,0 6,2.6875 6,6 v 80 c 0,3.3125 -2.6875,6 -6,6 H 20 c -3.3125,0 -6,-2.6875 -6,-6 V 20 c 0,-3.3125 2.6875,-6 6,-6 z m 0,0"
     fill="#241f31"
     id="path278"
     style="fill:#002b34;fill-opacity:1" /><path
     d="m 69.073683,48.183825 c 1.259175,0.0091 2.521933,0.05869 3.339788,0.145412 5.316117,0.563728 10.129862,2.21161 14.123674,4.834718 10.227097,6.717101 12.805177,17.877483 6.159997,26.665918 -0.817281,1.080871 -2.635945,2.93716 -3.738798,3.816032 -3.859924,3.076009 -8.949603,5.15008 -14.602472,5.95074 -1.076867,0.152524 -6.341153,0.287479 -7.238778,0.185611 -0.194201,-0.02205 -0.784366,-0.08794 -1.311484,-0.146597 -7.613832,-0.847213 -14.735506,-4.402072 -18.988929,-9.478308 -2.06914,-2.469411 -3.390264,-5.074747 -4.067847,-8.021804 -0.39849,-1.733173 -0.465595,-4.380712 -0.15684,-6.192899 1.589235,-9.327708 11.035247,-16.5301 23.163177,-17.661487 0.803735,-0.07498 2.059334,-0.10646 3.318512,-0.09734 z"
     style="fill:#86c8c8;fill-opacity:1;stroke-width:0.100884"
     id="path16" /><path
     d="m 69.542237,24.489434 c -2.702515,-0.04042 -5.706016,0.606064 -8.103577,1.809002 -3.738909,1.875943 -5.988429,5.008713 -5.539915,7.715412 0.450825,2.720642 3.225609,4.694552 7.334339,5.217169 0.667777,0.08494 2.880863,0.06228 3.685005,-0.03765 1.324182,-0.164528 2.265091,-0.377231 3.538798,-0.799972 3.4558,-1.14698 6.118954,-3.199307 7.267936,-5.600803 1.723864,-3.60307 -0.625832,-6.963452 -5.613999,-8.028896 -0.800344,-0.170948 -1.66775,-0.260804 -2.568587,-0.274278 z"
     style="fill:#86c8c8;fill-opacity:1;stroke-width:0.100884"
     id="path15" /><path
     d="m 36.107084,26.41548 c -0.733645,0.02055 -1.458314,0.09609 -1.965846,0.220484 -1.484197,0.363778 -2.938221,1.12635 -4.003219,2.099634 -3.195047,2.919908 -3.884204,7.900465 -1.703196,12.309938 0.656165,1.326604 1.290349,2.219017 2.381993,3.352404 2.084589,2.164291 4.521798,3.488133 7.245869,3.935829 1.121685,0.184351 2.912382,0.115001 4.024694,-0.155855 3.450471,-0.840219 5.970321,-3.502088 6.711304,-7.089422 0.202123,-0.978535 0.20686,-2.902823 0.0098,-4.032575 -0.429493,-2.462892 -1.741446,-4.901148 -3.680078,-6.839775 -2.011179,-2.011185 -4.305188,-3.220853 -7.001539,-3.691899 -0.54345,-0.09494 -1.286192,-0.129329 -2.019834,-0.108763 z"
     style="fill:#86c8c8;fill-opacity:1;stroke-width:0.100884"
     id="path14" /></svg>
