<?xml version="1.0" encoding="UTF-8" standalone="no"?>
<!-- Generator: Adobe Illustrator 24.0.3, SVG Export Plug-In . SVG Version: 6.00 Build 0)  -->

<svg
   version="1.1"
   id="Layer_1"
   x="0px"
   y="0px"
   viewBox="0 0 128 128"
   xml:space="preserve"
   width="128"
   height="128"
   xmlns:xlink="http://www.w3.org/1999/xlink"
   xmlns="http://www.w3.org/2000/svg"
   xmlns:svg="http://www.w3.org/2000/svg"><defs
   id="defs9"><linearGradient
     id="linearGradient1017"><stop
       style="stop-color:#0e3781;stop-opacity:1;"
       offset="0"
       id="stop1013" /><stop
       style="stop-color:#175ddc;stop-opacity:1;"
       offset="0.1"
       id="stop1021" /><stop
       style="stop-color:#0e3781;stop-opacity:1;"
       offset="0.2"
       id="stop1023" /><stop
       style="stop-color:#0e3781;stop-opacity:1;"
       offset="0.80000001"
       id="stop1025" /><stop
       style="stop-color:#175ddc;stop-opacity:1;"
       offset="0.89999998"
       id="stop1027" /><stop
       style="stop-color:#0e3781;stop-opacity:1;"
       offset="1"
       id="stop1015" /></linearGradient><linearGradient
     xlink:href="#linearGradient1017"
     id="linearGradient1019"
     x1="19.00695"
     y1="66"
     x2="108.99305"
     y2="66"
     gradientUnits="userSpaceOnUse" /></defs>
<style
   type="text/css"
   id="style2">
	.st0{fill:#175ddc;}
</style>
<path
   class="st0"
   d="m 107.65869,13.334364 c -0.87568,-0.875676 -1.95985,-1.334363 -3.16911,-1.334363 H 23.51042 c -1.20926,0 -2.29343,0.458687 -3.16911,1.334363 -0.87567,0.875676 -1.33436,1.959845 -1.33436,3.169112 v 54.000003 c 0,4.04478 0.79228,8.00617 2.33514,11.96756 1.58455,3.96139 3.5027,7.4641 5.83783,10.54981 2.33514,3.08572 5.08726,6.04633 8.29807,8.965251 3.21081,2.91892 6.17143,5.33745 8.88186,7.2556 2.71042,1.91815 5.54594,3.75289 8.50656,5.46255 2.96062,1.70965 5.04556,2.87722 6.29652,3.461 1.25097,0.62548 2.25174,1.08417 3.00232,1.41776 C 62.70734,119.8749 63.33282,120 64,120 c 0.66718,0 1.25097,-0.1251 1.83475,-0.41699 0.75058,-0.33359 1.75135,-0.79228 3.00232,-1.41776 1.25096,-0.62548 3.3359,-1.75135 6.29652,-3.461 2.96062,-1.70966 5.79614,-3.5444 8.50656,-5.46255 2.71043,-1.91815 5.67105,-4.33668 8.88186,-7.2556 3.21081,-2.918921 5.96293,-5.879531 8.29807,-8.965251 2.33513,-3.08571 4.25328,-6.58842 5.83784,-10.54981 1.58455,-3.96139 2.33513,-7.96447 2.33513,-11.96756 V 16.503476 c 0,-1.209267 -0.45869,-2.251737 -1.33436,-3.169112 z M 97.23398,71.003859 c 0,19.55676 -33.19228,36.361391 -33.19228,36.361391 V 23.550579 h 33.19228 z"
   id="path4-3"
   style="fill:url(#linearGradient1019);fill-opacity:1;stroke-width:0.416988" /><path
   class="st0"
   d="m 101.89084,16.292149 c -0.76,-0.759988 -1.70093,-1.158077 -2.750443,-1.158077 h -70.2808 c -1.049501,0 -1.990439,0.398089 -2.750431,1.158077 -0.759983,0.759989 -1.158074,1.700926 -1.158074,2.750433 V 65.90851 c 0,3.510421 0.68761,6.948462 2.026639,10.386502 1.375211,3.438041 3.039949,6.477993 5.06658,9.156046 2.02664,2.678054 4.415169,5.247536 7.201791,7.780829 2.786622,2.53329 5.356107,4.63231 7.708456,6.29705 2.35234,1.664733 4.813252,3.257083 7.382737,4.740873 2.569486,1.48379 4.378979,2.49711 5.464673,3.00376 1.085701,0.54285 1.954257,0.94094 2.605676,1.23046 0.470473,0.25333 1.013319,0.3619 1.592356,0.3619 0.579037,0 1.085701,-0.10857 1.592357,-0.3619 0.651419,-0.28952 1.519975,-0.68761 2.605676,-1.23046 1.085693,-0.54284 2.895186,-1.51997 5.464671,-3.00376 2.569486,-1.48379 5.030398,-3.07614 7.382738,-4.740873 2.352348,-1.664739 4.921834,-3.76376 7.708456,-6.29705 2.786622,-2.533293 5.175152,-5.102774 7.20179,-7.780828 2.02663,-2.678054 3.69137,-5.718006 5.066592,-9.156047 1.37521,-3.43804 2.02663,-6.912271 2.02663,-10.386501 V 19.042582 c 0,-1.049507 -0.39809,-1.954254 -1.15807,-2.750433 z"
   id="path4-6"
   style="fill:#ffffff;stroke-width:0.361899" /><path
   class="st0"
   d="M 107.65869,9.3343629 C 106.78301,8.4586873 105.69884,8 104.48958,8 H 23.51042 c -1.20926,0 -2.29343,0.4586873 -3.16911,1.3343629 -0.87567,0.8756761 -1.33436,1.9598461 -1.33436,3.1691121 v 54 c 0,4.044788 0.79228,8.006178 2.33514,11.967567 1.58455,3.96139 3.5027,7.464093 5.83783,10.549807 2.33514,3.085715 5.08726,6.046332 8.29807,8.965251 3.21081,2.91892 6.17143,5.33745 8.88186,7.2556 2.71042,1.91815 5.54594,3.75289 8.50656,5.46255 2.96062,1.70965 5.04556,2.87722 6.29652,3.461 1.25097,0.62548 2.25174,1.08417 3.00232,1.41776 C 62.70734,115.8749 63.33282,116 64,116 c 0.66718,0 1.25097,-0.1251 1.83475,-0.41699 0.75058,-0.33359 1.75135,-0.79228 3.00232,-1.41776 1.25096,-0.62548 3.3359,-1.75135 6.29652,-3.461 2.96062,-1.70966 5.79614,-3.5444 8.50656,-5.46255 2.71043,-1.91815 5.67105,-4.33668 8.88186,-7.2556 3.21081,-2.918919 5.96293,-5.879536 8.29807,-8.965251 2.33513,-3.085714 4.25328,-6.588417 5.83784,-10.549807 1.58455,-3.961389 2.33513,-7.964478 2.33513,-11.967567 v -54 c 0,-1.209266 -0.45869,-2.251737 -1.33436,-3.1691121 z M 97.23398,67.003861 c 0,19.556757 -33.19228,36.361389 -33.19228,36.361389 V 19.550579 h 33.19228 z"
   id="path4"
   style="stroke-width:0.416988" />
</svg>
