<?xml version="1.0" encoding="UTF-8" standalone="no"?>
<!-- Generator: Adobe Illustrator 23.0.1, SVG Export Plug-In . SVG Version: 6.00 Build 0)  -->

<svg
   version="1.1"
   id="Livello_1"
   x="0px"
   y="0px"
   viewBox="0 0 128 128"
   enable-background="new 0 0 240.1 240.1"
   xml:space="preserve"
   width="128"
   height="128"
   xmlns:xlink="http://www.w3.org/1999/xlink"
   xmlns="http://www.w3.org/2000/svg"
   xmlns:svg="http://www.w3.org/2000/svg"><defs
   id="defs13"><linearGradient
     id="linearGradient10"><stop
       style="stop-color:#993600;stop-opacity:1;"
       offset="0"
       id="stop5" /><stop
       style="stop-color:#e55100;stop-opacity:1;"
       offset="0.07179613"
       id="stop6" /><stop
       style="stop-color:#993600;stop-opacity:1;"
       offset="0.15258789"
       id="stop7" /><stop
       style="stop-color:#993600;stop-opacity:1;"
       offset="0.84766561"
       id="stop8" /><stop
       style="stop-color:#e55100;stop-opacity:1;"
       offset="0.93228853"
       id="stop9" /><stop
       style="stop-color:#993600;stop-opacity:1;"
       offset="1"
       id="stop10" /></linearGradient><linearGradient
     id="0"
     gradientUnits="userSpaceOnUse"
     y1="653.96002"
     x2="0"
     y2="301.29999"
     gradientTransform="matrix(0.31132892,0,0,0.31132892,3.239936,-87.047414)"><stop
       stop-color="#c52828"
       id="stop1"
       offset="0.74108773"
       style="stop-color:#ff5a00;stop-opacity:1;" /><stop
       offset="1"
       stop-color="#ff5454"
       id="stop2-3"
       style="stop-color:#ff8f52;stop-opacity:1;" /></linearGradient><linearGradient
     xlink:href="#linearGradient10"
     id="linearGradient5"
     x1="-104.64275"
     y1="176.5119"
     x2="3.3572464"
     y2="176.5119"
     gradientUnits="userSpaceOnUse"
     gradientTransform="translate(114.64275,-110.5119)" /><linearGradient
     xlink:href="#0"
     id="linearGradient11"
     gradientUnits="userSpaceOnUse"
     gradientTransform="matrix(0.31132892,0,0,0.31132892,165.45899,-87.048716)"
     y1="653.96002"
     x2="0"
     y2="301.29999" /></defs>

<path
   id="circle2-6"
   style="fill:url(#linearGradient5);stroke-width:0.311329"
   d="M 118,66 A 54,54 0 0 1 63.999999,120 54,54 0 0 1 10,66 54,54 0 0 1 63.999999,12 54,54 0 0 1 118,66 Z" /><path
   id="circle2"
   style="fill:#ff5a00;stroke-width:0.311329;fill-opacity:1"
   d="M 118,62.000003 A 54,54 0 0 1 64.000002,116 54,54 0 0 1 10,62.000003 54,54 0 0 1 64.000002,8.0000023 54,54 0 0 1 118,62.000003 Z" /><g
   id="g2"
   transform="translate(143.44351)"><path
     class="st1"
     d="m -104.02936,74.515295 c -1.96942,0 -3.62118,-1.588235 -3.62118,-3.621177 0,-1.969411 1.58824,-3.621176 3.62118,-3.621176 1.9694,0 3.62117,1.588236 3.62117,3.621176 0,1.969412 -1.58824,3.621177 -3.62117,3.621177 z"
     id="path6"
     style="fill:#ffffff;stroke-width:0.635293" /><path
     class="st1"
     d="m -104.02936,64.668236 c -1.96942,0 -3.62118,-1.588235 -3.62118,-3.621176 0,-1.969412 1.58824,-3.621176 3.62118,-3.621176 1.9694,0 3.62117,1.588234 3.62117,3.621176 0,2.032941 -1.58824,3.621176 -3.62117,3.621176 z"
     id="path8"
     style="fill:#ffffff;stroke-width:0.635293" /><path
     class="st1"
     d="m -94.182321,74.515295 c -1.969406,0 -3.621173,-1.588235 -3.621173,-3.621177 0,-1.969411 1.588233,-3.621176 3.621173,-3.621176 1.969413,0 3.621172,1.588236 3.621172,3.621176 0,1.969412 -1.588233,3.621177 -3.621172,3.621177 z"
     id="path10"
     style="fill:#ffffff;stroke-width:0.635293" /><path
     class="st1"
     d="m -94.182321,64.668236 c -1.969406,0 -3.621173,-1.588235 -3.621173,-3.621176 0,-1.969412 1.588233,-3.621176 3.621173,-3.621176 1.969413,0 3.621172,1.588234 3.621172,3.621176 0,2.032941 -1.588233,3.621176 -3.621172,3.621176 z"
     id="path12"
     style="fill:#ffffff;stroke-width:0.635293" /><path
     class="st1"
     d="m -94.182321,54.821178 c -1.969406,0 -3.621173,-1.588236 -3.621173,-3.621177 0,-1.969412 1.588233,-3.621177 3.621173,-3.621177 1.969413,0 3.621172,1.588236 3.621172,3.621177 0,2.032941 -1.588233,3.621177 -3.621172,3.621177 z"
     id="path14"
     style="fill:#ffffff;stroke-width:0.635293" /><path
     class="st1"
     d="m -84.335269,64.668236 c -1.969414,0 -3.621173,-1.588235 -3.621173,-3.621176 0,-1.969412 1.588233,-3.621176 3.621173,-3.621176 1.969405,0 3.621172,1.588234 3.621172,3.621176 0,2.032941 -1.651767,3.621176 -3.621172,3.621176 z"
     id="path16"
     style="fill:#ffffff;stroke-width:0.635293" /><path
     class="st1"
     d="m -84.335269,54.821178 c -1.969414,0 -3.621173,-1.588236 -3.621173,-3.621177 0,-1.969412 1.588233,-3.621177 3.621173,-3.621177 1.969405,0 3.621172,1.588236 3.621172,3.621177 0,2.032941 -1.651767,3.621177 -3.621172,3.621177 z"
     id="path18"
     style="fill:#ffffff;stroke-width:0.635293" /><path
     class="st1"
     d="m -74.488226,64.668236 c -1.969405,0 -3.621172,-1.588235 -3.621172,-3.621176 0,-1.969412 1.588232,-3.621176 3.621172,-3.621176 1.969414,0 3.621173,1.588234 3.621173,3.621176 -0.06354,2.032941 -1.651759,3.621176 -3.621173,3.621176 z"
     id="path20"
     style="fill:#ffffff;stroke-width:0.635293" /><path
     class="st1"
     d="m -74.488226,54.821178 c -1.969405,0 -3.621172,-1.588236 -3.621172,-3.621177 0,-1.969412 1.588232,-3.621177 3.621172,-3.621177 1.969414,0 3.621173,1.588236 3.621173,3.621177 -0.06354,2.032941 -1.651759,3.621177 -3.621173,3.621177 z"
     id="path22"
     style="fill:#ffffff;stroke-width:0.635293" /><path
     class="st1"
     d="m -64.704708,74.515295 c -1.969406,0 -3.621173,-1.588235 -3.621173,-3.621177 0,-1.969411 1.588233,-3.621176 3.621173,-3.621176 1.969413,0 3.621172,1.588236 3.621172,3.621176 0,1.969412 -1.588233,3.621177 -3.621172,3.621177 z"
     id="path24"
     style="fill:#ffffff;stroke-width:0.635293" /><path
     class="st1"
     d="m -64.704708,64.668236 c -1.969406,0 -3.621173,-1.588235 -3.621173,-3.621176 0,-1.969412 1.588233,-3.621176 3.621173,-3.621176 1.969413,0 3.621172,1.588234 3.621172,3.621176 0,2.032941 -1.588233,3.621176 -3.621172,3.621176 z"
     id="path26"
     style="fill:#ffffff;stroke-width:0.635293" /><path
     class="st1"
     d="m -64.704708,54.821178 c -1.969406,0 -3.621173,-1.588236 -3.621173,-3.621177 0,-1.969412 1.588233,-3.621177 3.621173,-3.621177 1.969413,0 3.621172,1.588236 3.621172,3.621177 0,2.032941 -1.588233,3.621177 -3.621172,3.621177 z"
     id="path28"
     style="fill:#ffffff;stroke-width:0.635293" /><path
     class="st1"
     d="m -54.857656,74.515295 c -1.969414,0 -3.621173,-1.588235 -3.621173,-3.621177 0,-1.969411 1.588233,-3.621176 3.621173,-3.621176 1.969405,0 3.621172,1.588236 3.621172,3.621176 0,1.969412 -1.651767,3.621177 -3.621172,3.621177 z"
     id="path30"
     style="fill:#ffffff;stroke-width:0.635293" /><path
     class="st1"
     d="m -54.857656,64.668236 c -1.969414,0 -3.621173,-1.588235 -3.621173,-3.621176 0,-1.969412 1.588233,-3.621176 3.621173,-3.621176 1.969405,0 3.621172,1.588234 3.621172,3.621176 0,2.032941 -1.651767,3.621176 -3.621172,3.621176 z"
     id="path32"
     style="fill:#ffffff;stroke-width:0.635293" /></g></svg>
