<?xml version="1.0" encoding="UTF-8" standalone="no"?>
<svg
   style="clip-rule:evenodd;fill-rule:evenodd;stroke-linejoin:round;stroke-miterlimit:2"
   version="1.1"
   viewBox="0 0 128 128"
   xml:space="preserve"
   id="svg1243"
   width="128"
   height="128"
   xmlns:xlink="http://www.w3.org/1999/xlink"
   xmlns="http://www.w3.org/2000/svg"
   xmlns:svg="http://www.w3.org/2000/svg"
   xmlns:rdf="http://www.w3.org/1999/02/22-rdf-syntax-ns#"
   xmlns:cc="http://creativecommons.org/ns#"
   xmlns:dc="http://purl.org/dc/elements/1.1/"><defs
   id="defs1247"><linearGradient
     id="linearGradient2179"><stop
       style="stop-color:#994e00;stop-opacity:1;"
       offset="0"
       id="stop2167" /><stop
       style="stop-color:#ff8e1a;stop-opacity:1;"
       offset="0.02430925"
       id="stop2169" /><stop
       style="stop-color:#994e00;stop-opacity:1;"
       offset="0.07621237"
       id="stop2171" /></linearGradient><linearGradient
     id="linearGradient2048"><stop
       style="stop-color:#994e00;stop-opacity:1;"
       offset="0"
       id="stop2044" /><stop
       style="stop-color:#ff8e1a;stop-opacity:1;"
       offset="0.01935499"
       id="stop2052" /><stop
       style="stop-color:#994e00;stop-opacity:1;"
       offset="0.09398104"
       id="stop2110" /><stop
       style="stop-color:#994e00;stop-opacity:1;"
       offset="0.30561763"
       id="stop2112" /><stop
       style="stop-color:#ff8e1a;stop-opacity:1;"
       offset="0.46504682"
       id="stop2114" /><stop
       style="stop-color:#994e00;stop-opacity:1;"
       offset="0.70385861"
       id="stop2046" /></linearGradient><linearGradient
     xlink:href="#linearGradient2048"
     id="linearGradient2126"
     x1="2.066911"
     y1="55.956516"
     x2="126.07033"
     y2="55.956516"
     gradientUnits="userSpaceOnUse"
     gradientTransform="matrix(0.9999724,0,0,0.99997116,-0.06685397,10.342538)" /><linearGradient
     xlink:href="#linearGradient2179"
     id="linearGradient2165"
     x1="19.845978"
     y1="22.768347"
     x2="114.58"
     y2="22.768347"
     gradientUnits="userSpaceOnUse"
     gradientTransform="matrix(0.9999724,0,0,0.99997116,-0.06685397,10.342538)" /></defs>
    <title
   id="title1229">Blender logo (without text)</title>
    
<path
   d="m 40.019751,80.62486 c 0.02843,1.618158 0.544488,4.767004 1.31858,7.216104 1.626905,5.204343 4.395268,10.015079 8.221994,14.235406 3.936062,4.35153 8.790538,7.85024 14.388491,10.34307 5.882226,2.60218 12.267391,3.93606 18.893099,3.93606 6.625701,-0.009 13.010866,-1.36449 18.893095,-4.00166 5.59795,-2.51469 10.45243,-6.01341 14.38849,-10.3868 3.84858,-4.264068 6.60384,-9.074804 8.22199,-14.279146 0.82002,-2.624038 1.33826,-5.291808 1.546,-7.95958 0.0702,-0.906349 0.10581,-1.815307 0.10718,-2.725973 0.003,-1.725869 0,-3.989611 0,-3.989611 L 22.048536,71.612771 2.0020889,88.184293 c 0,0 -0.0047,1.110945 0,3.886223 0.0025,1.47576 0.4390661,2.884614 1.3575998,4.053653 2.6896419,3.433119 8.3969313,3.454984 12.6391313,0.0197 l 24.000364,-19.675945 -0.0011,3.433607 z"
   style="display:inline;opacity:1;fill:url(#linearGradient2126);fill-opacity:1;fill-rule:nonzero;stroke-width:2.1867"
   id="path1991" /><path
   d="M 104.03398,49.945395 60.079486,17.114404 c 0,0 0.0033,2.532894 0,3.96987 -0.0028,1.205371 0.55298,2.396037 1.700123,3.333701 5.337289,4.38021 16.148787,13.152985 16.148787,13.152985 l -58.149798,3.309697 c 0,0 0.0012,3.576477 0,3.950215 -0.009,2.899621 2.589017,5.14741 6.346862,5.14741 25.969481,-0.03952 51.938993,-0.03289 77.90852,-0.03289 z"
   style="clip-rule:evenodd;display:inline;opacity:1;fill:url(#linearGradient2165);fill-opacity:1;fill-rule:nonzero;stroke:none;stroke-width:2.1867;stroke-linejoin:round;stroke-miterlimit:2;stroke-opacity:1"
   id="path2118" /><path
   id="rect1426"
   style="clip-rule:evenodd;display:inline;fill:#ffffff;fill-rule:evenodd;stroke-width:0.719288;stroke-linejoin:round;stroke-miterlimit:2"
   d="m 83.253841,45.575874 c 15.422189,0 27.837889,10.893959 27.837889,24.425919 0,13.53196 -12.4157,24.425917 -27.837889,24.425917 -15.422188,0 -27.837884,-10.893957 -27.837884,-24.425917 0,-13.53196 12.415696,-24.425919 27.837884,-24.425919 z" /><path
   d="m 66.26016,67.878184 c 0.23179,-4.132859 2.252301,-7.784644 5.31368,-10.364948 2.995782,-2.53657 7.019309,-4.089126 11.43645,-4.089126 4.395268,0 8.418794,1.550369 11.414576,4.089126 3.061382,2.580304 5.073144,6.232089 5.313682,10.364948 0.231801,4.242195 -1.476022,8.200118 -4.460867,11.130293 -3.061382,2.973907 -7.39105,4.854469 -12.267391,4.854469 -4.876347,0 -9.227883,-1.867439 -12.267397,-4.854469 -2.995778,-2.930175 -4.724182,-6.866232 -4.483645,-11.108426 z"
   style="clip-rule:evenodd;display:inline;fill:#265787;fill-rule:nonzero;stroke-width:2.1867;stroke-linejoin:round;stroke-miterlimit:2"
   id="path1235" /><path
   d="m 40.019751,76.624976 c 0.02843,1.618157 0.544488,4.767003 1.31858,7.216103 1.626905,5.204344 4.395268,10.015079 8.221994,14.235405 3.936062,4.351526 8.790538,7.850246 14.388491,10.343076 5.882226,2.60218 12.267391,3.93605 18.893099,3.93605 6.625701,-0.009 13.010866,-1.36448 18.893095,-4.00165 5.59795,-2.5147 10.45243,-6.01341 14.38849,-10.386807 3.84858,-4.264066 6.60384,-9.074802 8.22199,-14.279143 0.82002,-2.624039 1.33826,-5.291808 1.546,-7.959581 0.20337,-2.624036 0.11809,-5.269941 -0.25584,-7.915846 -0.73036,-5.138739 -2.51471,-9.971342 -5.24809,-14.344739 -2.49284,-4.045392 -5.72915,-7.565975 -9.57775,-10.539884 C 97.336051,32.53826 83.574411,21.99931 72.013382,13.103555 c -2.536586,-1.950504 -6.822519,-1.943944 -9.599629,0.01096 -2.820844,1.976775 -3.148849,5.248075 -0.634144,7.303572 5.337289,4.380209 10.768659,8.777539 16.148787,13.152985 -16.422121,0.01702 -32.844241,0.03576 -49.266363,0.05248 -4.067264,0.0043 -7.981458,2.667772 -8.746803,6.057153 -0.795959,3.433116 1.96803,6.29769 6.21023,6.29769 8.255455,0.0146 16.625113,-0.01679 24.921798,-0.0328 C 36.113096,57.342388 21.199695,68.804457 6.2680007,80.184917 2.0695353,83.39936 0.71378078,88.756773 3.3596887,92.124286 6.0493306,95.557404 11.75662,95.57927 15.99882,92.143986 L 40.271198,72.245037 c -0.140329,1.496109 -0.338673,2.982138 -0.251447,4.379939 z M 82.96655,93.615622 c -7.587846,0.01311 -14.607157,-2.842707 -19.614702,-7.937718 -2.449106,-2.492833 -4.2422,-5.335541 -5.357417,-8.375052 -1.086791,-2.995775 -1.508824,-6.166488 -1.228926,-9.359067 0.26459,-3.126977 1.196125,-6.122754 2.689642,-8.812393 1.460716,-2.645905 3.476854,-5.051272 5.947826,-7.084901 4.876343,-3.957924 11.064707,-6.122755 17.537336,-6.122755 6.494504,-0.0087 12.682864,2.11891 17.559211,6.079021 2.47097,2.020508 4.48274,4.417129 5.94783,7.063034 1.49352,2.689639 2.42723,5.663548 2.68963,8.812393 0.27554,3.192579 -0.1465,6.363291 -1.23329,9.359069 -1.10229,3.127219 -3.33059,6.722636 -6.68987,9.653426 -4.573474,3.988721 -10.748803,6.691355 -18.24727,6.724943 z"
   style="display:inline;opacity:1;fill:#ea7600;fill-rule:nonzero;stroke-width:2.1867"
   id="path1993" /><metadata
   id="metadata2256"><rdf:RDF><cc:Work
       rdf:about=""><dc:title>Blender logo (without text)</dc:title></cc:Work></rdf:RDF></metadata></svg>
