<?xml version="1.0" encoding="UTF-8" standalone="no"?>
<!-- Generator: Adobe Illustrator 26.0.2, SVG Export Plug-In . SVG Version: 6.00 Build 0)  -->

<svg
   version="1.0"
   id="Layer_1"
   x="0px"
   y="0px"
   viewBox="0 0 128 128"
   xml:space="preserve"
   width="128"
   height="128"
   xmlns:xlink="http://www.w3.org/1999/xlink"
   xmlns="http://www.w3.org/2000/svg"
   xmlns:svg="http://www.w3.org/2000/svg"><defs
   id="defs76"><linearGradient
     id="linearGradient1227"><stop
       style="stop-color:#854300;stop-opacity:1;"
       offset="0"
       id="stop1223" /><stop
       style="stop-color:#ff8f1f;stop-opacity:1;"
       offset="0.03207443"
       id="stop1231" /><stop
       style="stop-color:#854300;stop-opacity:1;"
       offset="0.07281525"
       id="stop1233" /><stop
       style="stop-color:#854300;stop-opacity:1;"
       offset="0.34745014"
       id="stop1235" /><stop
       style="stop-color:#ff8f1f;stop-opacity:1;"
       offset="0.43497762"
       id="stop1237" /><stop
       style="stop-color:#854300;stop-opacity:1;"
       offset="0.50264019"
       id="stop1239" /><stop
       style="stop-color:#854300;stop-opacity:1;"
       offset="0.85014915"
       id="stop1241" /><stop
       style="stop-color:#ff8f1f;stop-opacity:1;"
       offset="0.92760676"
       id="stop1243" /><stop
       style="stop-color:#854300;stop-opacity:1;"
       offset="1"
       id="stop1225" /></linearGradient><linearGradient
     xlink:href="#linearGradient1227"
     id="linearGradient1229"
     x1="9.9997957"
     y1="76.134811"
     x2="118.0002"
     y2="76.134811"
     gradientUnits="userSpaceOnUse" /></defs>
<style
   type="text/css"
   id="style2">
	.st0{fill:url(#SVGID_1_);}
	.st1{fill:url(#SVGID_00000062171159965967627490000013605884846004172698_);}
	.st2{fill:url(#SVGID-2_00000085966066984138215510000013018799571900533434_);}
	.st3{clip-path:url(#SVGID_00000023257072852279316340000004281102206337855156_);}
	.st4{fill:url(#SVGID_00000177446033621631838710000001370584907163434138_);}
	.st5{clip-path:url(#SVGID_00000136385553608229244970000014654043435100792964_);}
	.st6{fill:url(#SVGID_00000126306410582640054500000000964390405037519506_);}
	.st7{fill:url(#SVGID_00000109020757643166282930000006684795936706346369_);}
</style>
<radialGradient
   id="SVGID_1_"
   cx="514.5"
   cy="477.5"
   r="496.5"
   gradientTransform="matrix(1,0,0,-1,-18,974)"
   gradientUnits="userSpaceOnUse">
	<stop
   offset="0.9134"
   style="stop-color:#000000"
   id="stop4" />
	<stop
   offset="1"
   style="stop-color:#000000;stop-opacity:0"
   id="stop6" />
</radialGradient>

<radialGradient
   id="SVGID_00000163033830155146975860000008434547654242457221_"
   cx="512.05908"
   cy="481.87881"
   r="486.27271"
   gradientTransform="matrix(0.11104257,0,0,-0.11104257,7.1350999,117.51141)"
   gradientUnits="userSpaceOnUse">
	<stop
   offset="0.99"
   style="stop-color:#FFFFFF"
   id="stop11" />
	<stop
   offset="0.9951"
   style="stop-color:#FDFDFD"
   id="stop13" />
	<stop
   offset="0.9969"
   style="stop-color:#F6F6F6"
   id="stop15" />
	<stop
   offset="0.9982"
   style="stop-color:#EBEBEB"
   id="stop17" />
	<stop
   offset="0.9992"
   style="stop-color:#DADADA"
   id="stop19" />
	<stop
   offset="1"
   style="stop-color:#C7C7C7"
   id="stop21" />
</radialGradient>

<radialGradient
   id="SVGID-2_00000052072577768947982130000002178866272689676469_"
   cx="512.06152"
   cy="481.87881"
   r="444.12241"
   gradientTransform="matrix(1,0,0,-1,-18,974)"
   gradientUnits="userSpaceOnUse">
	<stop
   offset="0.99"
   style="stop-color:#000000;stop-opacity:0.5"
   id="stop26" />
	<stop
   offset="1"
   style="stop-color:#000000;stop-opacity:0"
   id="stop28" />
</radialGradient>



<radialGradient
   id="SVGID_00000092427181212153090570000016417065628950216588_"
   cx="578.89008"
   cy="482.3703"
   r="353.94269"
   gradientTransform="matrix(0.11104257,0,0,-0.1218248,7.1350999,118.45626)"
   gradientUnits="userSpaceOnUse">
	<stop
   offset="0"
   style="stop-color:#C2C0C2"
   id="stop66" />
	<stop
   offset="1"
   style="stop-color:#EBEBEB"
   id="stop68" />
</radialGradient>

		
	
		
	
<path
   d="m 43.07975,88.875984 c 0.0248,1.40962 0.47432,4.14885 1.14866,6.28803 1.41726,4.52792 3.82125,8.716766 7.16628,12.408436 3.43265,3.79454 7.65965,6.84236 12.54194,9.00631 5.13183,2.27253 10.69227,3.4307 16.46796,3.42118 5.76617,-0.008 11.32661,-1.18866 16.45844,-3.47833 4.88229,-2.18491 9.10548,-5.24606 12.53242,-9.0425 3.34312,-3.70691 5.74331,-7.903376 7.16437,-12.431286 0.71434,-2.28777 1.16581,-4.60983 1.34677,-6.93951 0.17716,-2.29539 0.10287,-4.59458 -0.22287,-6.89188 -0.63624,-4.47648 -2.18493,-8.67676 -4.56989,-12.50558 -2.18112,-3.518334 -4.99277,-6.598534 -8.33589,-9.191084 l 0.008,-0.006 -33.73789,-25.90456 c -0.0305,-0.0229 -0.0553,-0.0476 -0.0876,-0.0686 -2.21351,-1.69916 -5.93571,-1.69345 -8.37018,0.01 -2.46115,1.72202 -2.74308,4.56982 -0.55243,6.36613 l -0.01,0.01 14.07158,11.44266 -42.88909,0.0457 h -0.0572 c -3.54504,0.004 -6.95292,2.32968 -7.62726,5.26892 -0.69339,2.99448 1.71442,5.47845 5.40042,5.49179 l -0.006,0.0133 21.73885,-0.0419 -38.79162,29.775294 c -0.0495,0.0362 -0.10287,0.0743 -0.14859,0.11049 -3.65933,2.80209 -4.84228,7.46144 -2.53734,10.410196 2.33923,2.9983 7.31296,3.00401 11.01039,0.0172 L 43.36317,85.133544 c 0,0 -0.30859,2.3392 -0.28383,3.7431 z m 54.40238,7.8329 c -4.36225,4.444096 -10.4694,6.964266 -17.07754,6.977596 -6.61766,0.0114 -12.72481,-2.48588 -17.08706,-6.922356 -2.13159,-2.16205 -3.69743,-4.64983 -4.66322,-7.29953 -0.94674,-2.60398 -1.31439,-5.36797 -1.07056,-8.15672 0.23049,-2.7259 1.04199,-5.32607 2.33733,-7.6786 1.27248,-2.31254 3.025,-4.4022 5.18898,-6.169934 4.24033,-3.45547 9.63885,-5.32607 15.28501,-5.33369 5.65187,-0.008 11.04658,1.84584 15.29073,5.28987 2.16017,1.760124 3.91078,3.842164 5.18326,6.150884 1.30106,2.35063 2.10683,4.94128 2.34685,7.6748 0.24002,2.78494 -0.12763,5.54512 -1.07437,8.15101 -0.96769,2.65731 -2.52782,5.1451 -4.65941,7.31667 z"
   style="clip-rule:evenodd;fill:url(#linearGradient1229);fill-opacity:1;fill-rule:nonzero;stroke-width:1.90491;stroke-linejoin:round;stroke-miterlimit:2"
   id="path14-3" /><path
   d="m 52.48457,76.945702 c 0.39352,-7.02027 3.83131,-13.20524 9.01769,-17.58966 5.08614,-4.30645 11.93201,-6.93859 19.40158,-6.93859 7.46215,0 14.30802,2.63214 19.39788,6.93859 5.18266,4.38442 8.62045,10.56939 9.01769,17.58223 0.39352,7.21332 -2.50595,13.91432 -7.59209,18.88159 -5.18638,5.052658 -12.56314,8.223108 -20.82348,8.223108 -8.26034,0 -15.65195,-3.17045 -20.83461,-8.223108 -5.08986,-4.96727 -7.9819,-11.66827 -7.58466,-18.87416 z"
   style="clip-rule:evenodd;fill:#ffffff;fill-rule:nonzero;stroke-width:3.71249;stroke-linejoin:round;stroke-miterlimit:2"
   id="path8" /><path
   d="m 66.30063,77.580272 c 0.20192,-3.60215 1.96587,-6.77569 4.62703,-9.02536 2.60973,-2.20967 6.12238,-3.56023 9.95507,-3.56023 3.82887,0 7.34153,1.35056 9.95316,3.56023 2.65926,2.24967 4.42321,5.42321 4.62703,9.02154 0.20192,3.7012 -1.28581,7.13952 -3.89554,9.68826 -2.66116,2.59255 -6.44622,4.21933 -10.68465,4.21933 -4.23843,0 -8.03111,-1.62678 -10.69037,-4.21933 -2.61163,-2.54874 -4.09556,-5.98706 -3.89173,-9.68444 z"
   style="clip-rule:evenodd;fill:#265787;fill-rule:nonzero;stroke-width:1.90491;stroke-linejoin:round;stroke-miterlimit:2"
   id="path12" /><path
   d="m 43.07975,84.875982 c 0.0248,1.40962 0.47432,4.14885 1.14866,6.28803 1.41726,4.52792 3.82125,8.71677 7.16628,12.408438 3.43265,3.79454 7.65965,6.84236 12.54194,9.00631 5.13183,2.27253 10.69227,3.4307 16.46796,3.42118 5.76617,-0.008 11.32661,-1.18866 16.45844,-3.47833 4.88229,-2.18491 9.10548,-5.24606 12.53242,-9.0425 3.34312,-3.706908 5.74331,-7.903378 7.16437,-12.431288 0.71434,-2.28777 1.16581,-4.60983 1.34677,-6.93951 0.17716,-2.29539 0.10287,-4.59458 -0.22287,-6.89188 -0.63624,-4.47648 -2.18493,-8.67676 -4.56989,-12.50558 -2.18112,-3.51833 -4.99277,-6.59853 -8.33589,-9.19108 l 0.008,-0.006 -33.73789,-25.90456 c -0.0305,-0.0229 -0.0553,-0.0476 -0.0876,-0.0686 -2.21351,-1.69916 -5.93571,-1.69345 -8.37018,0.01 -2.46115,1.72202 -2.74308,4.56982 -0.55243,6.36613 l -0.01,0.01 14.07158,11.44266 -42.88909,0.0457 h -0.0572 c -3.54504,0.004 -6.95292,2.32968 -7.62726,5.26892 -0.69339,2.99448 1.71442,5.47845 5.40042,5.49179 l -0.006,0.0133 21.73885,-0.0419 -38.79162,29.77529 c -0.0495,0.0362 -0.10287,0.0743 -0.14859,0.11049 -3.65933,2.80209 -4.84228,7.46144 -2.53734,10.4102 2.33923,2.998298 7.31296,3.004008 11.01039,0.0172 l 21.17119,-17.32685 c 0,0 -0.30859,2.3392 -0.28383,3.7431 z m 54.40238,7.8329 c -4.36225,4.4441 -10.4694,6.96427 -17.07754,6.9776 -6.61766,0.0114 -12.72481,-2.48588 -17.08706,-6.92236 -2.13159,-2.16205 -3.69743,-4.64983 -4.66322,-7.29953 -0.94674,-2.60398 -1.31439,-5.36797 -1.07056,-8.15672 0.23049,-2.7259 1.04199,-5.32607 2.33733,-7.6786 1.27248,-2.31254 3.025,-4.4022 5.18898,-6.16993 4.24033,-3.45547 9.63885,-5.32607 15.28501,-5.33369 5.65187,-0.008 11.04658,1.84584 15.29073,5.28987 2.16017,1.76012 3.91078,3.84216 5.18326,6.15088 1.30106,2.35063 2.10683,4.94128 2.34685,7.6748 0.24002,2.78494 -0.12763,5.54512 -1.07437,8.15101 -0.96769,2.65731 -2.52782,5.1451 -4.65941,7.31667 z"
   style="clip-rule:evenodd;fill:#ea7600;fill-rule:nonzero;stroke-width:1.90491;stroke-linejoin:round;stroke-miterlimit:2"
   id="path14" /></svg>
