<?xml version="1.0" encoding="UTF-8" standalone="no"?>
<!-- Generator: Adobe Illustrator 26.0.2, SVG Export Plug-In . SVG Version: 6.00 Build 0)  -->

<svg
   version="1.0"
   id="Layer_1"
   x="0px"
   y="0px"
   viewBox="0 0 128 128"
   xml:space="preserve"
   width="128"
   height="128"
   xmlns:xlink="http://www.w3.org/1999/xlink"
   xmlns="http://www.w3.org/2000/svg"
   xmlns:svg="http://www.w3.org/2000/svg"><defs
   id="defs76"><linearGradient
     id="linearGradient14"><stop
       style="stop-color:#6b3600;stop-opacity:1;"
       offset="0"
       id="stop2" /><stop
       style="stop-color:#ffa852;stop-opacity:1;"
       offset="0.413614"
       id="stop3" /><stop
       style="stop-color:#6b3600;stop-opacity:1;"
       offset="0.811652"
       id="stop5" /><stop
       style="stop-color:#ff8f1f;stop-opacity:1;"
       offset="1"
       id="stop12" /></linearGradient><linearGradient
     id="linearGradient1653"><stop
       style="stop-color:#854300;stop-opacity:1;"
       offset="0"
       id="stop1649" /><stop
       style="stop-color:#ff901f;stop-opacity:1;"
       offset="0.03479328"
       id="stop1657" /><stop
       style="stop-color:#854300;stop-opacity:1;"
       offset="0.07306934"
       id="stop1659" /><stop
       style="stop-color:#854300;stop-opacity:1;"
       offset="0.39510164"
       id="stop1661" /><stop
       style="stop-color:#ff901f;stop-opacity:1;"
       offset="0.43412957"
       id="stop1663" /><stop
       style="stop-color:#854300;stop-opacity:1;"
       offset="0.47281182"
       id="stop1651" /></linearGradient><linearGradient
     id="linearGradient1227"><stop
       style="stop-color:#854300;stop-opacity:1;"
       offset="0"
       id="stop1223" /><stop
       style="stop-color:#ff8f1f;stop-opacity:1;"
       offset="0.03207443"
       id="stop1231" /><stop
       style="stop-color:#854300;stop-opacity:1;"
       offset="0.07281525"
       id="stop1233" /><stop
       style="stop-color:#854300;stop-opacity:1;"
       offset="0.34745014"
       id="stop1235" /><stop
       style="stop-color:#ff8f1f;stop-opacity:1;"
       offset="0.43497762"
       id="stop1237" /><stop
       style="stop-color:#854300;stop-opacity:1;"
       offset="0.52028507"
       id="stop1239" /><stop
       style="stop-color:#854300;stop-opacity:1;"
       offset="0.83904439"
       id="stop1241" /><stop
       style="stop-color:#ff8f1f;stop-opacity:1;"
       offset="0.92300647"
       id="stop1243" /><stop
       style="stop-color:#854300;stop-opacity:1;"
       offset="1"
       id="stop1225" /></linearGradient><linearGradient
     xlink:href="#linearGradient14"
     id="linearGradient1"
     gradientUnits="userSpaceOnUse"
     gradientTransform="matrix(1.11114,0,0,1.1056601,-7.1109,-16.37189)"
     x1="9.9997957"
     y1="76.134811"
     x2="118.0002"
     y2="76.134811" /><linearGradient
     xlink:href="#linearGradient1227"
     id="linearGradient15"
     gradientUnits="userSpaceOnUse"
     gradientTransform="matrix(1.11114,0,0,1.1056601,-7.1109,-16.37189)"
     x1="9.9997959"
     y1="76.134811"
     x2="118.0002"
     y2="76.134811" /><linearGradient
     xlink:href="#linearGradient1653"
     id="linearGradient17"
     gradientUnits="userSpaceOnUse"
     gradientTransform="matrix(1.1111043,0,0,1.1111043,51.4014,8.083369)"
     x1="-27.251959"
     y1="25.060523"
     x2="55.445312"
     y2="25.060523" /></defs>
<style
   type="text/css"
   id="style2">
	.st0{fill:url(#SVGID_1_);}
	.st1{fill:url(#SVGID_00000062171159965967627490000013605884846004172698_);}
	.st2{fill:url(#SVGID-2_00000085966066984138215510000013018799571900533434_);}
	.st3{clip-path:url(#SVGID_00000023257072852279316340000004281102206337855156_);}
	.st4{fill:url(#SVGID_00000177446033621631838710000001370584907163434138_);}
	.st5{clip-path:url(#SVGID_00000136385553608229244970000014654043435100792964_);}
	.st6{fill:url(#SVGID_00000126306410582640054500000000964390405037519506_);}
	.st7{fill:url(#SVGID_00000109020757643166282930000006684795936706346369_);}
</style>
<radialGradient
   id="SVGID_1_"
   cx="514.5"
   cy="477.5"
   r="496.5"
   gradientTransform="matrix(1,0,0,-1,-18,974)"
   gradientUnits="userSpaceOnUse">
	<stop
   offset="0.9134"
   style="stop-color:#000000"
   id="stop4" />
	<stop
   offset="1"
   style="stop-color:#000000;stop-opacity:0"
   id="stop6" />
</radialGradient>

<radialGradient
   id="SVGID_00000163033830155146975860000008434547654242457221_"
   cx="512.05908"
   cy="481.87881"
   r="486.27271"
   gradientTransform="matrix(0.11104257,0,0,-0.11104257,7.1350999,117.51141)"
   gradientUnits="userSpaceOnUse">
	<stop
   offset="0.99"
   style="stop-color:#FFFFFF"
   id="stop11" />
	<stop
   offset="0.9951"
   style="stop-color:#FDFDFD"
   id="stop13" />
	<stop
   offset="0.9969"
   style="stop-color:#F6F6F6"
   id="stop15" />
	<stop
   offset="0.9982"
   style="stop-color:#EBEBEB"
   id="stop17" />
	<stop
   offset="0.9992"
   style="stop-color:#DADADA"
   id="stop19" />
	<stop
   offset="1"
   style="stop-color:#C7C7C7"
   id="stop21" />
</radialGradient>

<radialGradient
   id="SVGID-2_00000052072577768947982130000002178866272689676469_"
   cx="512.06152"
   cy="481.87881"
   r="444.12241"
   gradientTransform="matrix(1,0,0,-1,-18,974)"
   gradientUnits="userSpaceOnUse">
	<stop
   offset="0.99"
   style="stop-color:#000000;stop-opacity:0.5"
   id="stop26" />
	<stop
   offset="1"
   style="stop-color:#000000;stop-opacity:0"
   id="stop28" />
</radialGradient>



<radialGradient
   id="SVGID_00000092427181212153090570000016417065628950216588_"
   cx="578.89008"
   cy="482.3703"
   r="353.94269"
   gradientTransform="matrix(0.11104257,0,0,-0.1218248,7.1350999,118.45626)"
   gradientUnits="userSpaceOnUse">
	<stop
   offset="0"
   style="stop-color:#C2C0C2"
   id="stop66" />
	<stop
   offset="1"
   style="stop-color:#EBEBEB"
   id="stop68" />
</radialGradient>

		
	
		
	
<path
   id="path14-3-0"
   style="clip-rule:evenodd;fill:url(#linearGradient15);fill-opacity:1;fill-rule:nonzero;stroke-width:2.11139;stroke-linejoin:round;stroke-miterlimit:2"
   d="M 90.398368,34.971342 71.833914,20.78775 c -0.03389,-0.0253 -0.06177,-0.0529 -0.09766,-0.0762 -2.45952,-1.87869 -6.595744,-1.87176 -9.300781,0.0117 -0.953585,0.66392 -2.260211,-1.57107 -2.259766,-0.63868 l 0.002,4.605472 c 5.31e-4,1.1129 0.57981,2.203512 1.644532,3.072266 l -0.01172,0.01172 15.634765,12.650391 -47.654294,0.05078 h -0.0645 c -3.93903,0.0044 -7.85813,-0.706832 -8.60742,2.542969 l 0.002,4.255859 c 0.002,2.860848 2.44415,5.086331 6.13086,5.099609 l -0.006,0.01367 24.1543,-0.04492 -43.10352,32.919922 c -0.055,0.04002 -0.11326,0.08303 -0.16406,0.123047 -2.07382,1.580175 -4.13678,1.121669 -4.13281,3.302734 l 0.008,3.958985 c 0.003,1.54458 0.34626,3.027956 1.30469,4.248047 2.59921,3.315099 8.12601,3.321929 12.23437,0.01953 l 23.21484,-18.90625 c -1e-4,0.0013 1.1e-4,0.0065 0,0.0078 z" /><path
   id="path1"
   style="clip-rule:evenodd;fill:url(#linearGradient1);fill-opacity:1;fill-rule:nonzero;stroke-width:2.11139;stroke-linejoin:round;stroke-miterlimit:2"
   d="M 90.398368,34.971342 40.76165,78.016264 c -0.0536,0.673011 -0.0159,3.313012 -0.006,3.878907 0.0276,1.55856 0.52806,4.585966 1.27734,6.951171 1.57478,5.006341 4.2461,9.63897 7.96289,13.720708 3.81416,4.19548 8.510644,7.56443 13.935551,9.95703 5.702182,2.51264 11.881227,3.79372 18.298828,3.7832 6.407022,-0.009 12.584919,-1.3141 18.287111,-3.8457 5.4249,-2.41577 10.11796,-5.80048 13.92578,-9.99805 3.71467,-4.098587 6.38194,-8.737812 7.96094,-13.744141 0.79373,-2.529496 1.29501,-5.097993 1.49609,-7.673828 0.0833,-1.074594 0.10314,-2.148861 0.0996,-3.224609 l -0.01,-2.898438 c -0.004,-1.222955 -0.16377,-0.27421 -0.33789,-1.496093 -0.70695,-4.949465 -2.4281,-9.594752 -5.07812,-13.828125 -2.42354,-3.890081 -5.54704,-7.295631 -9.26172,-10.16211 l 0.008,-0.0059 z M 82.21868,52.317046 c 6.280019,-0.0089 12.27439,2.041683 16.990234,5.849609 2.400246,1.946099 4.345846,4.248121 5.759766,6.800781 1.44565,2.598997 2.34073,5.463984 2.60742,8.486328 0.26669,3.079197 -0.14141,6.13049 -1.19336,9.011719 -1.07524,2.938082 -2.80923,5.688825 -5.17773,8.089844 -4.847073,4.913659 -11.632042,7.700106 -18.974611,7.714844 -7.353147,0.01261 -14.139258,-2.749062 -18.986328,-7.654297 -2.368495,-2.390492 -4.108514,-5.140645 -5.181641,-8.070313 -1.05196,-2.879117 -1.460383,-5.936121 -1.189453,-9.019531 0.256106,-3.013918 1.158352,-5.887182 2.597656,-8.488281 1.413903,-2.556884 3.36114,-4.867753 5.765625,-6.822266 4.711599,-3.820575 10.708748,-5.890013 16.982422,-5.898437 z" /><path
   id="path14-3-1-4"
   style="clip-rule:evenodd;fill:url(#linearGradient17);fill-opacity:1;fill-rule:nonzero;stroke-width:2.11655;stroke-linejoin:round;stroke-miterlimit:2"
   d="m 67.17821,19.144499 c -1.67948,0.0022 -3.38925,0.477248 -4.74172,1.423602 -0.95356,0.667183 -2.26172,-1.579344 -2.26127,-0.642357 l 0.002,4.628877 c 5.3e-4,1.118379 0.58026,2.212888 1.64495,3.085919 l -0.0109,0.01089 15.63359,12.714765 -47.65379,0.04991 h -0.0629 c -3.9389,0.0044 -7.85746,-0.709391 -8.60672,2.556408 l 0.002,4.275148 c 0.002,2.874931 2.44402,5.112494 6.13061,5.125836 l -0.009,0.01516 24.15567,-0.04774 -0.48394,0.371091 h 26.6448 c 1.52448,-0.258235 3.0819,-0.392837 4.65709,-0.394962 1.5987,-0.0022 3.176902,0.13406 4.722192,0.394962 h 26.065958 c -1.16385,-1.155365 -2.37844,-2.268373 -3.69572,-3.28991 l 0.009,-0.0066 -37.48669,-28.782373 c -0.0339,-0.02544 -0.0618,-0.05262 -0.0977,-0.07595 -1.22972,-0.943971 -2.87778,-1.414934 -4.55727,-1.412752 z" /><path
   d="M 51.194558,68.162247 C 51.6318,60.361995 55.451543,53.489848 61.214152,48.6183 c 5.651232,-4.784915 13.257708,-7.709497 21.557179,-7.709497 8.291227,0 15.897703,2.924582 21.553069,7.709497 5.75848,4.871548 9.57822,11.743695 10.0196,19.535692 0.43724,8.01475 -2.78437,15.46026 -8.43561,20.979415 -5.76261,5.61403 -13.958959,9.136729 -23.137059,9.136729 -9.178099,0 -17.390949,-3.522699 -23.149425,-9.136729 -5.655365,-5.519155 -8.868723,-12.964665 -8.427348,-20.97116 z"
   style="clip-rule:evenodd;fill:#ffffff;fill-rule:nonzero;stroke-width:4.12496;stroke-linejoin:round;stroke-miterlimit:2"
   id="path8" /><path
   d="m 66.545642,68.867321 c 0.224354,-4.002365 2.184286,-7.528499 5.141113,-10.028117 2.899682,-2.455174 6.802602,-3.955787 11.061121,-3.955787 4.254274,0 8.157205,1.500613 11.058999,3.955787 2.954715,2.499618 4.914647,6.025752 5.141113,10.023872 0.224354,4.112419 -1.428669,7.932751 -4.328352,10.764667 -2.956826,2.880594 -7.162422,4.688116 -11.87176,4.688116 -4.709338,0 -8.923401,-1.807522 -11.878116,-4.688116 -2.901794,-2.831916 -4.550595,-6.652248 -4.324118,-10.760422 z"
   style="clip-rule:evenodd;fill:#265787;fill-rule:nonzero;stroke-width:2.11655;stroke-linejoin:round;stroke-miterlimit:2"
   id="path12" /><path
   d="m 40.755309,77.894765 c 0.02756,1.55856 0.52702,4.587217 1.276284,6.952423 1.574729,5.006341 4.245821,9.637785 7.962509,13.71951 3.814044,4.195472 8.510696,7.565322 13.935446,9.957922 5.702016,2.51265 11.880262,3.79318 18.297676,3.78266 6.406835,-0.009 12.585082,-1.31425 18.287116,-3.84585 5.42473,-2.41576 10.11716,-5.80036 13.92487,-9.997934 3.71455,-4.098576 6.38142,-8.738446 7.96038,-13.744774 0.7937,-2.529496 1.29533,-5.096905 1.4964,-7.672739 0.19684,-2.537921 0.1143,-5.080044 -0.24763,-7.620077 -0.70693,-4.949465 -2.42769,-9.593546 -5.07765,-13.826919 -2.42345,-3.890078 -5.5475,-7.295731 -9.26207,-10.162211 l 0.009,-0.0067 -37.486388,-28.641637 c -0.03389,-0.02532 -0.06145,-0.05263 -0.09733,-0.07585 -2.459448,-1.878693 -6.595213,-1.87238 -9.300171,0.01106 -2.734603,1.903969 -3.047857,5.052667 -0.613809,7.038775 l -0.01111,0.01106 15.63504,12.651692 -47.654395,0.05053 h -0.06356 c -3.938921,0.0044 -7.725441,2.575835 -8.474706,5.825635 -0.770431,3.310877 1.904905,6.057303 6.000448,6.072053 l -0.0067,0.01471 24.154203,-0.04633 -43.1017039,32.921349 c -0.055001,0.04002 -0.1142996,0.08215 -0.1650995,0.122164 -4.0659095,3.098159 -5.3802937,8.249816 -2.8192579,11.510142 2.5991364,3.315098 8.1254853,3.321412 12.2337283,0.01902 L 41.070294,73.756865 c 0,0 -0.342876,2.586359 -0.315364,4.138596 z m 60.446901,8.660524 c -4.84693,4.913665 -11.632631,7.700115 -18.974986,7.714854 -7.352933,0.01261 -14.138634,-2.748538 -18.985563,-7.653776 -2.368426,-2.390494 -4.108243,-5.141133 -5.181339,-8.0708 -1.051931,-2.879116 -1.460429,-5.935149 -1.189508,-9.018559 0.256099,-3.013919 1.157763,-5.888823 2.597025,-8.489921 1.413863,-2.556883 3.361101,-4.867337 5.765515,-6.821846 4.711464,-3.820574 10.709801,-5.888822 16.983293,-5.897247 6.279836,-0.0089 12.273938,2.040871 16.989646,5.848798 2.400177,1.946094 4.345307,4.248122 5.759177,6.800782 1.44561,2.598997 2.34092,5.463376 2.60759,8.485719 0.26669,3.079197 -0.14181,6.131018 -1.19373,9.012247 -1.07521,2.938081 -2.80869,5.688731 -5.17712,8.089749 z"
   style="clip-rule:evenodd;fill:#ea7600;fill-rule:nonzero;stroke-width:2.11136;stroke-linejoin:round;stroke-miterlimit:2"
   id="path14" /></svg>
