<?xml version="1.0" encoding="UTF-8" standalone="no"?>
<svg
   width="128"
   height="128"
   version="1"
   id="svg22"
   xmlns:xlink="http://www.w3.org/1999/xlink"
   xmlns="http://www.w3.org/2000/svg"
   xmlns:svg="http://www.w3.org/2000/svg">
  <defs
     id="defs26">
    <linearGradient
       id="linearGradient874">
      <stop
         style="stop-color:#9a1918;stop-opacity:1;"
         offset="0"
         id="stop870" />
      <stop
         style="stop-color:#e03c3b;stop-opacity:1;"
         offset="0.07138296"
         id="stop878" />
      <stop
         style="stop-color:#9a1918;stop-opacity:1;"
         offset="0.14790227"
         id="stop880" />
      <stop
         style="stop-color:#9a1918;stop-opacity:1;"
         offset="0.85142165"
         id="stop882" />
      <stop
         style="stop-color:#e03c3b;stop-opacity:1;"
         offset="0.92990345"
         id="stop884" />
      <stop
         style="stop-color:#9a1918;stop-opacity:1;"
         offset="1"
         id="stop872" />
    </linearGradient>
    <linearGradient
       xlink:href="#linearGradient874"
       id="linearGradient876"
       x1="14.212767"
       y1="61.914894"
       x2="113.78723"
       y2="61.914894"
       gradientUnits="userSpaceOnUse" />
  </defs>
  <path
     style="fill:url(#linearGradient876);fill-opacity:1;stroke-width:2.07447"
     d="M 104.88279,3.8297876 A 41.489361,42.555638 0 0 1 91.485872,28.675691 c -7.870531,-5.20484 -17.305213,-8.250159 -27.486702,-8.250159 -10.185637,0 -19.632765,3.047393 -27.503297,8.257212 A 41.489361,42.555638 0 0 1 23.117629,4.1065216 41.489361,42.555638 0 0 0 22.509809,11.059308 41.489361,42.555638 0 0 0 29.365927,34.436489 C 20.027916,43.47702 14.212767,56.127127 14.212767,70.212765 14.212767,97.794895 36.417874,120 64.000001,120 c 27.582126,0 49.787229,-22.205105 49.787229,-49.787235 0,-14.08149 -5.81266,-26.727447 -15.143617,-35.767978 a 41.489361,42.555638 0 0 0 6.845747,-23.385479 41.489361,42.555638 0 0 0 -0.60574,-7.2291056 z"
     id="path2-3" />
  <path
     style="fill:#e03c3b;stroke-width:2.07447"
     d="M 104.88279,-2.6950328e-8 A 41.489361,42.555638 0 0 1 91.485872,24.845903 C 83.615341,19.641064 74.180659,16.595744 63.99917,16.595744 c -10.185637,0 -19.632765,3.047394 -27.503297,8.257213 A 41.489361,42.555638 0 0 1 23.117629,0.27673407 41.489361,42.555638 0 0 0 22.509809,7.2295213 41.489361,42.555638 0 0 0 29.365927,30.606702 c -9.338011,9.040531 -15.15316,21.690638 -15.15316,35.776276 0,27.58213 22.205107,49.787232 49.787234,49.787232 27.582126,0 49.787229,-22.205102 49.787229,-49.787232 0,-14.08149 -5.81266,-26.727447 -15.143617,-35.767978 A 41.489361,42.555638 0 0 0 105.48936,7.2295213 41.489361,42.555638 0 0 0 104.88362,4.1493048e-4 Z"
     id="path2" />
  <path
     style="fill:#ffffff;stroke-width:2.07447"
     d="M 59.850235,78.829371 C 54.937894,86.766286 44.059384,89.483839 35.554065,84.899264 27.048746,80.318839 24.134118,70.170542 29.044384,62.233627 Z"
     id="path10" />
  <path
     style="fill:#2c2c2c;stroke-width:2.07447"
     d="m 43.480607,70.012882 v 0.518617 c -0.895755,4.57441 0.868808,10.041255 5.417059,16.060947 0.05226,-0.01266 0.105901,-0.01929 0.158012,-0.03242 -2.220304,-4.237932 -1.857479,-8.962325 0.303868,-13.382809 l -5.879042,-3.163564 z"
     id="path12" />
  <path
     style="fill:#ffffff;stroke-width:2.07447"
     d="m 68.148107,78.829371 c 4.91234,7.936915 15.790851,10.654468 24.29617,6.069893 8.506563,-4.580425 11.421193,-14.728722 6.510095,-22.665637 z"
     id="path14" />
  <path
     style="fill:#2c2c2c;stroke-width:2.07447"
     d="m 84.517735,70.012882 v 0.518617 c 0.895754,4.57441 -0.868809,10.041255 -5.417059,16.060947 -0.05226,-0.01266 -0.105901,-0.01929 -0.158012,-0.03242 2.220302,-4.237932 1.857478,-8.962325 -0.303868,-13.382809 l 5.879042,-3.164394 z"
     id="path16" />
</svg>
