<?xml version="1.0" encoding="UTF-8" standalone="no"?>
<svg
   width="128"
   height="128"
   version="1"
   id="svg16"
   xmlns="http://www.w3.org/2000/svg"
   xmlns:svg="http://www.w3.org/2000/svg">
  <defs
     id="defs20" />
  <path
     style="fill:#ffffff;stroke-width:1.67739"
     d="M 86.309615,79.858801 A 23.579144,25.781565 0 0 1 62.730471,105.64037 23.579144,25.781565 0 0 1 39.151327,79.858801 23.579144,25.781565 0 0 1 62.730471,54.077237 23.579144,25.781565 0 0 1 86.309615,79.858801 Z"
     id="path4" />
  <path
     style="fill:#941920;fill-opacity:1;stroke-width:2.5155"
     d="M 62.731142,25.210981 115.99884,120.00662 72.370059,103.29266 Z"
     id="path8-7" />
  <path
     style="fill:#bf2029;fill-opacity:1;stroke-width:2.5155"
     d="M 62.731142,21.211026 115.99884,116.00666 73.205382,99.477408 Z"
     id="path8" />
  <path
     style="fill:#04345d;fill-opacity:1;stroke-width:2.5155"
     d="M 12.000001,120.00662 62.731142,25.210981 69.585121,72.140106 Z"
     id="path6-6" />
  <path
     style="fill:#176e34;fill-opacity:1;stroke-width:2.5155"
     d="M 115.99884,120.00662 H 12.000001 l 0.01092,-3.99905 L 44.975244,92.56578 116,116.00217 Z"
     id="path10-3" />
  <path
     style="fill:#1f9948;fill-opacity:1;stroke-width:2.5155"
     d="M 115.99884,116.00666 H 12.000001 L 44.975243,88.565825 Z"
     id="path10" />
  <path
     style="fill:#064f8d;fill-opacity:1;stroke-width:2.5155"
     d="M 12.000001,116.00666 62.731142,21.211026 69.072534,68.608847 Z"
     id="path6" />
</svg>
