<?xml version="1.0" encoding="UTF-8" standalone="no"?>
<svg
   viewBox="0 0 128 128.24545"
   version="1.1"
   id="svg745"
   width="128"
   height="128.24545"
   xmlns:xlink="http://www.w3.org/1999/xlink"
   xmlns="http://www.w3.org/2000/svg"
   xmlns:svg="http://www.w3.org/2000/svg">
  <defs
     id="defs733">
    <linearGradient
       id="linearGradient894">
      <stop
         style="stop-color:#b2b2b2;stop-opacity:1;"
         offset="0.26109856"
         id="stop882" />
      <stop
         style="stop-color:#ffffff;stop-opacity:1;"
         offset="0.29933369"
         id="stop884" />
      <stop
         style="stop-color:#b2b2b2;stop-opacity:1;"
         offset="0.40009475"
         id="stop886" />
      <stop
         style="stop-color:#b2b2b2;stop-opacity:1;"
         offset="0.85064137"
         id="stop888" />
      <stop
         style="stop-color:#ffffff;stop-opacity:1;"
         offset="0.94848526"
         id="stop890" />
      <stop
         style="stop-color:#b2b2b2;stop-opacity:1;"
         offset="1"
         id="stop892" />
    </linearGradient>
    <linearGradient
       id="b"
       x1="85.915001"
       x2="86.535004"
       y1="32.567001"
       y2="137.092"
       gradientUnits="userSpaceOnUse"
       gradientTransform="matrix(0.7275863,0,0,0.7275863,0.58349568,-0.7290281)">
      <stop
         offset="0"
         stop-color="#57d163"
         id="stop725" />
      <stop
         offset="1"
         stop-color="#23b33a"
         id="stop727" />
    </linearGradient>
    <filter
       id="a"
       width="1.1146948"
       height="1.1141825"
       x="-0.057347413"
       y="-0.05709127"
       color-interpolation-filters="sRGB">
      <feGaussianBlur
         stdDeviation="3.531"
         id="feGaussianBlur730" />
    </filter>
    <linearGradient
       xlink:href="#linearGradient1097"
       id="linearGradient1099"
       x1="9.9999962"
       y1="68"
       x2="118"
       y2="68"
       gradientUnits="userSpaceOnUse"
       gradientTransform="translate(83.767968,-16.098682)" />
    <linearGradient
       id="linearGradient1097">
      <stop
         style="stop-color:#b2b2b2;stop-opacity:1;"
         offset="0"
         id="stop1093" />
      <stop
         style="stop-color:#ffffff;stop-opacity:1;"
         offset="0.05234205"
         id="stop1101" />
      <stop
         style="stop-color:#b2b2b2;stop-opacity:1;"
         offset="0.15255697"
         id="stop1103" />
      <stop
         style="stop-color:#b2b2b2;stop-opacity:1;"
         offset="0.85064137"
         id="stop1105" />
      <stop
         style="stop-color:#ffffff;stop-opacity:1;"
         offset="0.94848526"
         id="stop1107" />
      <stop
         style="stop-color:#b2b2b2;stop-opacity:1;"
         offset="1"
         id="stop1095" />
    </linearGradient>
    <linearGradient
       xlink:href="#linearGradient894"
       id="linearGradient2547"
       x1="10.241195"
       y1="66.122726"
       x2="117.7588"
       y2="66.122726"
       gradientUnits="userSpaceOnUse" />
  </defs>
  <path
     fill="#ffffff"
     d="m 10.241195,120.12273 8.7e-4,-3.99502 7.594407,-23.736213 c -4.692266,-8.135106 -7.15696,-17.363465 -7.145625,-26.7548 0.01237,-29.50799 24.025628,-53.513972 53.534345,-53.513972 14.319626,0.0073 27.760328,5.579859 37.868678,15.695492 10.10835,10.115632 15.67002,23.561427 15.66493,37.86141 -0.0131,29.5058 -24.029988,53.516163 -53.534335,53.516163 h -0.02328 c -8.95877,-0.004 -17.761837,-2.25116 -25.581207,-6.51481 z"
     id="path737-5"
     style="fill:url(#linearGradient2547);fill-opacity:1.0;stroke-width:0.727586" />
  <path
     fill="#ffffff"
     d="M 10.241193,116.12273 17.836466,88.3915 A 53.419386,53.419386 0 0 1 10.690841,61.636696 c 0.01237,-29.50799 24.025628,-53.5139716 53.534345,-53.5139716 14.319626,0.0073 27.760328,5.5798586 37.868684,15.6954916 10.10835,10.115632 15.67002,23.561427 15.66493,37.861408 -0.0131,29.505807 -24.029989,53.516166 -53.534341,53.516166 h -0.02328 c -8.95877,-0.004 -17.761837,-2.25116 -25.581207,-6.51481 z"
     id="path737"
     style="stroke-width:0.727586" />
  <path
     fill="url(#b)"
     d="m 64.01738,17.625791 c -24.543669,0 -44.503544,19.952599 -44.512275,44.47735 a 44.368213,44.368213 0 0 0 6.802205,23.672021 l 1.058638,1.682907 -4.495756,16.412891 16.840712,-4.415722 1.626156,0.963322 c 6.829852,4.05339 14.660864,6.19685 22.646851,6.20122 h 0.01673 c 24.524751,0 44.484619,-19.95478 44.494079,-44.480987 A 44.200868,44.200868 0 0 0 95.474574,30.669958 44.200868,44.200868 0 0 0 64.01738,17.625791 Z"
     id="path741"
     style="fill:url(#b);stroke-width:0.727586" />
  <path
     fill="#ffffff"
     fill-rule="evenodd"
     d="m 50.64004,39.254218 c -1.002614,-2.227141 -2.057614,-2.272252 -3.010024,-2.310814 l -2.564015,-0.03129 c -0.89202,0 -2.341372,0.33469 -3.566628,1.673448 -1.225255,1.338759 -4.682017,4.574335 -4.682017,11.155354 0,6.581018 4.793338,12.940122 5.461262,13.833598 0.667925,0.893476 9.253443,14.828936 22.849848,20.19052 11.298688,4.455738 13.59786,3.569538 16.051281,3.346897 2.453421,-0.222642 7.913957,-3.235577 9.027891,-6.359105 1.113935,-3.123528 1.114662,-5.79959 0.7807,-6.359104 -0.333962,-0.559514 -1.225983,-0.892021 -2.564741,-1.5614 -1.338759,-0.669379 -7.913957,-3.904956 -9.13994,-4.351694 -1.225982,-0.446738 -2.117276,-0.668652 -3.010024,0.670107 -0.892748,1.338759 -3.453125,4.350239 -4.233825,5.242987 -0.7807,0.892749 -1.559945,1.004797 -2.898704,0.336145 -1.338758,-0.668652 -5.646069,-2.081624 -10.756635,-6.638497 -3.97626,-3.545528 -6.660325,-7.924143 -7.441753,-9.262174 -0.781428,-1.338031 -0.08295,-2.062707 0.58789,-2.729176 0.600258,-0.599531 1.337303,-1.562128 2.00741,-2.342828 0.670107,-0.7807 0.890566,-1.338759 1.335849,-2.230052 0.445283,-0.891293 0.223369,-1.674176 -0.111321,-2.342828 -0.33469,-0.668652 -2.933628,-7.283866 -4.122504,-9.92937"
     id="path743"
     style="stroke-width:0.727586" />
</svg>
