<?xml version="1.0" encoding="UTF-8" standalone="no"?>
<!-- Generator: Adobe Illustrator 26.0.2, SVG Export Plug-In . SVG Version: 6.00 Build 0)  -->

<svg
   version="1.0"
   id="Layer_1"
   x="0px"
   y="0px"
   viewBox="0 0 128 128"
   xml:space="preserve"
   width="128"
   height="128"
   xmlns:xlink="http://www.w3.org/1999/xlink"
   xmlns="http://www.w3.org/2000/svg"
   xmlns:svg="http://www.w3.org/2000/svg"><defs
   id="defs76"><radialGradient
   id="SVGID_00000163033830155146975860000008434547654242457221_-3"
   cx="512.05908"
   cy="481.87881"
   r="486.27271"
   gradientTransform="matrix(0.11104257,0,0,-0.11104257,20.693907,178.43106)"
   gradientUnits="userSpaceOnUse">
	<stop
   offset="0.99000001"
   style="stop-color:#cccccc;stop-opacity:1;"
   id="stop11-6" />
	<stop
   offset="0.9951"
   style="stop-color:#FDFDFD"
   id="stop13-7" />
	<stop
   offset="0.9969"
   style="stop-color:#F6F6F6"
   id="stop15-5" />
	<stop
   offset="0.9982"
   style="stop-color:#EBEBEB"
   id="stop17-3" />
	<stop
   offset="0.9992"
   style="stop-color:#DADADA"
   id="stop19-5" />
	<stop
   offset="1"
   style="stop-color:#C7C7C7"
   id="stop21-6" />
</radialGradient><radialGradient
   id="SVGID_00000075157454629254526220000014209612016984828065_-2"
   cx="433.7207"
   cy="-472.88901"
   r="4.6532998"
   gradientTransform="matrix(10.510657,0,0,10.510657,-4619.3806,5031.1169)"
   gradientUnits="userSpaceOnUse">
			<stop
   offset="0"
   style="stop-color:#000000"
   id="stop55-7" />
			<stop
   offset="1"
   style="stop-color:#322F32"
   id="stop57-0" />
		</radialGradient><path
   id="SVGID_00000018236686936268748280000002431340190722277274_-6"
   d="m 53.6,492.1 c 0,243.3 197.2,440.5 440.5,440.5 243.3,0 440.5,-197.2 440.5,-440.5 C 934.6,248.8 737.4,51.6 494.1,51.6 250.8,51.6 53.6,248.9 53.6,492.1" />
	<defs
   id="defs50-3">
		<path
   id="path2946"
   d="m 53.6,492.1 c 0,243.3 197.2,440.5 440.5,440.5 243.3,0 440.5,-197.2 440.5,-440.5 C 934.6,248.8 737.4,51.6 494.1,51.6 250.8,51.6 53.6,248.9 53.6,492.1" />
	</defs>
	<clipPath
   id="clipPath2872">
		<use
   xlink:href="#SVGID_00000018236686936268748280000002431340190722277274_-6"
   style="overflow:visible"
   id="use2870" />
	</clipPath>
	

		
			<radialGradient
   id="radialGradient2878"
   cx="433.7207"
   cy="-472.88901"
   r="4.6532998"
   gradientTransform="matrix(94.6543,0,0,94.6543,-40559.457,45253.09)"
   gradientUnits="userSpaceOnUse">
			<stop
   offset="0"
   style="stop-color:#000000"
   id="stop2874" />
			<stop
   offset="1"
   style="stop-color:#322F32"
   id="stop2876" />
		</radialGradient>
		
			
	<clipPath
   clipPathUnits="userSpaceOnUse"
   id="clipPath2985"><g
     id="g2989"><use
       xlink:href="#SVGID_00000018236686936268748280000002431340190722277274_-6"
       style="overflow:visible"
       id="use2987"
       transform="matrix(0.11104257,0,0,0.11104257,-115.5543,6.0975271)" /></g></clipPath>
	<defs
   id="defs50">
		<path
   id="SVGID_00000018236686936268748280000002431340190722277274_"
   d="m 53.6,492.1 c 0,243.3 197.2,440.5 440.5,440.5 243.3,0 440.5,-197.2 440.5,-440.5 C 934.6,248.8 737.4,51.6 494.1,51.6 250.8,51.6 53.6,248.9 53.6,492.1" />
	</defs>
	
	

		
			<radialGradient
   id="SVGID_00000075157454629254526220000014209612016984828065_"
   cx="433.7207"
   cy="-472.88901"
   r="4.6532998"
   gradientTransform="matrix(10.510657,0,0,10.510657,-4494.6925,5034.3754)"
   gradientUnits="userSpaceOnUse">
			<stop
   offset="0"
   style="stop-color:#000000"
   id="stop55" />
			<stop
   offset="1"
   style="stop-color:#322F32"
   id="stop57" />
		</radialGradient>
		
			
	<clipPath
   clipPathUnits="userSpaceOnUse"
   id="clipPath3008"><g
     id="g3012"><use
       xlink:href="#SVGID_00000018236686936268748280000002431340190722277274_"
       style="overflow:visible"
       id="use3010"
       transform="matrix(0.11104257,0,0,0.11104257,9.1338662,9.3559513)" /></g></clipPath><radialGradient
   xlink:href="#radialGradient2878"
   id="radialGradient947"
   cx="60.356438"
   cy="114.69307"
   fx="60.356438"
   fy="114.69307"
   r="54.000004"
   gradientUnits="userSpaceOnUse"
   gradientTransform="matrix(0.90571295,0,0,0.90571295,9.3343913,-39.878999)" /></defs>
<style
   type="text/css"
   id="style2">
	.st0{fill:url(#SVGID_1_);}
	.st1{fill:url(#SVGID_00000062171159965967627490000013605884846004172698_);}
	.st2{fill:url(#SVGID-2_00000085966066984138215510000013018799571900533434_);}
	.st3{clip-path:url(#SVGID_00000023257072852279316340000004281102206337855156_);}
	.st4{fill:url(#SVGID_00000177446033621631838710000001370584907163434138_);}
	.st5{clip-path:url(#SVGID_00000136385553608229244970000014654043435100792964_);}
	.st6{fill:url(#SVGID_00000126306410582640054500000000964390405037519506_);}
	.st7{fill:url(#SVGID_00000109020757643166282930000006684795936706346369_);}
</style>
<radialGradient
   id="SVGID_1_"
   cx="514.5"
   cy="477.5"
   r="496.5"
   gradientTransform="matrix(1,0,0,-1,-18,974)"
   gradientUnits="userSpaceOnUse">
	<stop
   offset="0.9134"
   style="stop-color:#000000"
   id="stop4" />
	<stop
   offset="1"
   style="stop-color:#000000;stop-opacity:0"
   id="stop6" />
</radialGradient>

<radialGradient
   id="SVGID_00000163033830155146975860000008434547654242457221_"
   cx="512.05908"
   cy="481.87881"
   r="486.27271"
   gradientTransform="matrix(0.11104257,0,0,-0.11104257,7.1350999,117.51141)"
   gradientUnits="userSpaceOnUse">
	<stop
   offset="0.99"
   style="stop-color:#FFFFFF"
   id="stop11" />
	<stop
   offset="0.9951"
   style="stop-color:#FDFDFD"
   id="stop13" />
	<stop
   offset="0.9969"
   style="stop-color:#F6F6F6"
   id="stop15" />
	<stop
   offset="0.9982"
   style="stop-color:#EBEBEB"
   id="stop17" />
	<stop
   offset="0.9992"
   style="stop-color:#DADADA"
   id="stop19" />
	<stop
   offset="1"
   style="stop-color:#C7C7C7"
   id="stop21" />
</radialGradient>

<radialGradient
   id="SVGID-2_00000052072577768947982130000002178866272689676469_"
   cx="512.06152"
   cy="481.87881"
   r="444.12241"
   gradientTransform="matrix(1,0,0,-1,-18,974)"
   gradientUnits="userSpaceOnUse">
	<stop
   offset="0.99"
   style="stop-color:#000000;stop-opacity:0.5"
   id="stop26" />
	<stop
   offset="1"
   style="stop-color:#000000;stop-opacity:0"
   id="stop28" />
</radialGradient>



<radialGradient
   id="SVGID_00000092427181212153090570000016417065628950216588_"
   cx="578.89008"
   cy="482.3703"
   r="353.94269"
   gradientTransform="matrix(0.11104257,0,0,-0.1218248,7.1350999,118.45626)"
   gradientUnits="userSpaceOnUse">
	<stop
   offset="0"
   style="stop-color:#C2C0C2"
   id="stop66" />
	<stop
   offset="1"
   style="stop-color:#EBEBEB"
   id="stop68" />
</radialGradient>
<path
   style="fill:#b2b2b2;fill-opacity:1;stroke:none;stroke-width:0.111043"
   d="M 63.999999,13.999997 C 93.826032,13.999997 118,38.173965 118,68.000002 118,97.826032 93.814932,122 63.999999,122 34.185069,122 9.9999966,97.826032 9.9999966,68.000002 c 0,-29.826037 24.1739684,-54.000005 54.0000024,-54.000005"
   id="path24-2" /><path
   style="fill:#ffffff;stroke-width:0.111043;fill-opacity:1"
   d="m 64,9.9999982 c 29.826034,0 54,24.1739678 54,54.0000018 0,29.826034 -24.18507,54 -54,54 C 34.18507,118 9.9999982,93.826034 9.9999982,64 9.9999982,34.173966 34.173966,9.9999982 64,9.9999982"
   id="path24" /><path
   style="fill:url(#radialGradient947);fill-opacity:1;stroke-width:0.100573"
   d="m 63.999997,15.091498 c 27.013825,0 48.908503,21.894676 48.908503,48.908502 0,27.01382 -21.904734,48.9085 -48.908503,48.9085 -27.003767,0 -48.908501,-21.89468 -48.908501,-48.9085 0,-27.013826 21.894676,-48.908502 48.908501,-48.908502"
   id="path24-3" />
		
	
		
	<path
   style="fill:#ffffff;stroke-width:0.111043;fill-opacity:1"
   d="M 83.188156,48.276372 C 77.103023,58.869833 63.578038,62.534238 52.984577,56.449105 52.7847,56.338063 52.595928,56.215916 52.407156,56.104873 50.552745,54.961135 48.864898,53.53979 47.421344,51.907464 43.60148,47.599012 41.613818,41.980258 41.88032,36.239357 c 0.03331,-0.644046 0.08883,-1.288093 0.166564,-1.921036 0.07773,-0.632943 0.188772,-1.254781 0.333128,-1.876619 0.144355,-0.632943 0.310919,-1.265886 0.499691,-1.887724 0.188773,-0.59963 0.410858,-1.19926 0.655151,-1.787785 0.255398,-0.610735 0.533005,-1.210364 0.83282,-1.787786 0.322023,-0.610734 0.677359,-1.210364 1.054904,-1.798889 0.344232,-0.533005 0.721777,-1.054905 1.110426,-1.565701 0.433066,-0.555213 0.88834,-1.077113 1.365823,-1.587908 0.488588,-0.510796 0.988279,-0.999384 1.521284,-1.465762 0.533004,-0.477483 1.099321,-0.910549 1.676742,-1.332511 0.299815,-0.210981 0.59963,-0.421962 0.910549,-0.621839 -13.114127,6.706972 -18.488587,22.652685 -12.10364,35.933376 0.05552,0.122147 0.122147,0.255398 0.188773,0.377545 0.03331,0.05552 0.05552,0.111042 0.08883,0.166564 0.0111,0.03331 0.03331,0.06663 0.05552,0.09994 0.03331,0.04442 0.04442,0.03331 0.09994,0.03331 0.288711,0 0.577422,0 0.855028,0 0.533004,0.0111 1.054905,0.04442 1.587909,0.08883 10.027144,0.943862 18.15546,8.539173 19.787786,18.477483 0.355336,2.209748 0.377545,4.463912 0.06662,6.684763 -0.588525,4.186305 -2.365206,8.106108 -5.130166,11.315238 -1.576805,1.832202 -3.44232,3.397903 -5.52992,4.641579 -4.152992,2.454041 -8.994448,3.486737 -13.791487,2.942629 -0.866133,-0.09994 -1.732265,-0.244294 -2.576188,-0.444171 -0.555213,-0.133251 -1.099322,-0.277606 -1.632326,-0.455274 2.420728,1.077113 4.985812,1.787791 7.606416,2.109811 2.454041,0.29982 4.93029,0.27761 7.373227,-0.0888 4.363973,-0.655158 8.516965,-2.365213 12.070327,-4.985818 2.609501,-1.921036 4.85256,-4.297347 6.629242,-7.006786 0.07773,-0.122147 0.155459,-0.233189 0.233189,-0.355336 0.03331,-0.04442 0.09994,-0.122147 0.08883,-0.166564 -0.03331,-0.07773 -0.06663,-0.144355 -0.122147,-0.210981 -0.144355,-0.277606 -0.28871,-0.555213 -0.421962,-0.843924 -0.277606,-0.566317 -0.5219,-1.154842 -0.743985,-1.743368 -0.455274,-1.19926 -0.799506,-2.442936 -1.032696,-3.708822 -0.510795,-2.720543 -0.510795,-5.496607 0,-8.21715 0.433066,-2.309685 1.232573,-4.530537 2.376311,-6.584824 3.864282,-7.017891 11.2153,-11.392968 19.221469,-11.448489 0.544109,0 1.088217,0.0111 1.632326,0.04442 0.5219,0.03331 1.0438,0.08883 1.5657,0.155459 0.510796,0.06663 1.021592,0.15546 1.532388,0.266503 0.499691,0.09994 0.988279,0.222085 1.48797,0.36644 0.477483,0.133251 0.954966,0.288711 1.421345,0.455275 0.477483,0.166563 0.943862,0.355336 1.410241,0.566317 0.477483,0.210981 0.932757,0.433066 1.399136,0.666255 0.455275,0.244294 0.899445,0.499692 1.343615,0.766194 0.410858,0.255398 0.821715,0.5219 1.210367,0.810611 0.41086,0.28871 0.79951,0.599629 1.18815,0.910549 0.39976,0.322023 0.78841,0.666255 1.16595,1.021591 0.39975,0.377545 0.7884,0.766194 1.15484,1.177052 0.36644,0.399753 0.72178,0.821715 1.06601,1.254781 0.37755,0.477483 0.73288,0.977174 1.07712,1.48797 0.34423,0.5219 0.66625,1.066009 0.96607,1.610117 0.42196,0.766194 0.7884,1.5657 1.12153,2.376311 0.35533,0.888341 0.64404,1.787786 0.88834,2.709439 -0.64405,-4.919186 -2.63171,-9.560765 -5.7409,-13.425047 -2.28748,-2.84269 -5.119069,-5.207896 -8.328199,-6.94016 C 91.516337,49.719953 87.896349,48.653945 84.165319,48.35413 83.821087,48.30971 83.510168,48.2875 83.188144,48.2764 Z"
   id="path71" />
</svg>
