<?xml version="1.0" encoding="UTF-8" standalone="no"?>
<!-- Generator: Adobe Illustrator 26.0.2, SVG Export Plug-In . SVG Version: 6.00 Build 0)  -->

<svg
   version="1.0"
   id="Layer_1"
   x="0px"
   y="0px"
   viewBox="0 0 128 128"
   xml:space="preserve"
   width="128"
   height="128"
   xmlns:xlink="http://www.w3.org/1999/xlink"
   xmlns="http://www.w3.org/2000/svg"
   xmlns:svg="http://www.w3.org/2000/svg"><defs
   id="defs76"><radialGradient
     id="radialGradient2878"
     cx="433.7207"
     cy="-472.88901"
     r="4.6532998"
     gradientTransform="matrix(94.6543,0,0,94.6543,-40559.457,45253.09)"
     gradientUnits="userSpaceOnUse">
			<stop
   offset="0"
   style="stop-color:#000000"
   id="stop2874" />
			<stop
   offset="1"
   style="stop-color:#322F32"
   id="stop2876" />
		</radialGradient><radialGradient
     xlink:href="#radialGradient2878"
     id="radialGradient947"
     cx="60.356438"
     cy="114.69307"
     fx="60.356438"
     fy="114.69307"
     r="54.000004"
     gradientUnits="userSpaceOnUse"
     gradientTransform="matrix(1.0063477,0,0,0.98957527,3.2604364,-51.497425)" /><linearGradient
     id="a-9"
     gradientUnits="userSpaceOnUse"
     x1="0"
     y1="269.46301"
     x2="118.926"
     y2="269.46301"
     gradientTransform="matrix(1,0,0,0.98333333,-2e-7,-168.03333)"><stop
       offset="0"
       stop-color="#e5a50a"
       id="stop1"
       style="stop-color:#787878;stop-opacity:1;" /><stop
       offset="0.414"
       stop-color="#fbdf9b"
       id="stop2"
       style="stop-color:#cbcbcb;stop-opacity:1;" /><stop
       offset="0.81300002"
       stop-color="#e5a50a"
       id="stop3"
       style="stop-color:#787878;stop-opacity:1;" /><stop
       offset="1"
       stop-color="#f8ca5b"
       id="stop4-2"
       style="stop-color:#a9a9a9;stop-opacity:1;" /></linearGradient></defs>
<style
   type="text/css"
   id="style2">
	.st0{fill:url(#SVGID_1_);}
	.st1{fill:url(#SVGID_00000062171159965967627490000013605884846004172698_);}
	.st2{fill:url(#SVGID-2_00000085966066984138215510000013018799571900533434_);}
	.st3{clip-path:url(#SVGID_00000023257072852279316340000004281102206337855156_);}
	.st4{fill:url(#SVGID_00000177446033621631838710000001370584907163434138_);}
	.st5{clip-path:url(#SVGID_00000136385553608229244970000014654043435100792964_);}
	.st6{fill:url(#SVGID_00000126306410582640054500000000964390405037519506_);}
	.st7{fill:url(#SVGID_00000109020757643166282930000006684795936706346369_);}
</style>
<radialGradient
   id="SVGID_1_"
   cx="514.5"
   cy="477.5"
   r="496.5"
   gradientTransform="matrix(1,0,0,-1,-18,974)"
   gradientUnits="userSpaceOnUse">
	<stop
   offset="0.9134"
   style="stop-color:#000000"
   id="stop4" />
	<stop
   offset="1"
   style="stop-color:#000000;stop-opacity:0"
   id="stop6" />
</radialGradient>

<radialGradient
   id="SVGID_00000163033830155146975860000008434547654242457221_"
   cx="512.05908"
   cy="481.87881"
   r="486.27271"
   gradientTransform="matrix(0.11104257,0,0,-0.11104257,7.1350999,117.51141)"
   gradientUnits="userSpaceOnUse">
	<stop
   offset="0.99"
   style="stop-color:#FFFFFF"
   id="stop11" />
	<stop
   offset="0.9951"
   style="stop-color:#FDFDFD"
   id="stop13" />
	<stop
   offset="0.9969"
   style="stop-color:#F6F6F6"
   id="stop15" />
	<stop
   offset="0.9982"
   style="stop-color:#EBEBEB"
   id="stop17" />
	<stop
   offset="0.9992"
   style="stop-color:#DADADA"
   id="stop19" />
	<stop
   offset="1"
   style="stop-color:#C7C7C7"
   id="stop21" />
</radialGradient>

<radialGradient
   id="SVGID-2_00000052072577768947982130000002178866272689676469_"
   cx="512.06152"
   cy="481.87881"
   r="444.12241"
   gradientTransform="matrix(1,0,0,-1,-18,974)"
   gradientUnits="userSpaceOnUse">
	<stop
   offset="0.99"
   style="stop-color:#000000;stop-opacity:0.5"
   id="stop26" />
	<stop
   offset="1"
   style="stop-color:#000000;stop-opacity:0"
   id="stop28" />
</radialGradient>



<radialGradient
   id="SVGID_00000092427181212153090570000016417065628950216588_"
   cx="578.89008"
   cy="482.3703"
   r="353.94269"
   gradientTransform="matrix(0.11104257,0,0,-0.1218248,7.1350999,118.45626)"
   gradientUnits="userSpaceOnUse">
	<stop
   offset="0"
   style="stop-color:#C2C0C2"
   id="stop66" />
	<stop
   offset="1"
   style="stop-color:#EBEBEB"
   id="stop68" />
</radialGradient>

		
	
		
	<path
   d="M 124,65.999999 C 124,98.584719 97.137,125 64,125 30.863,125 3.9999998,98.584719 3.9999998,65.999999 3.9999998,33.415279 30.863,6.9999991 64,6.9999991 c 33.137,0 60,26.4152799 60,58.9999999 z m 0,0"
   fill="url(#a)"
   id="path4"
   style="fill:url(#a-9);stroke-width:0.991632" /><path
   style="fill:#ffffff;fill-opacity:1;stroke-width:0.122349"
   d="M 64.000001,2.9999982 C 97.140038,2.9999982 124,29.412297 124,62.000001 124,94.587705 97.127701,121 64.000001,121 30.872301,121 3.9999996,94.587705 3.9999996,62.000001 3.9999996,29.412297 30.859964,2.9999982 64.000001,2.9999982"
   id="path24" /><path
   style="fill:url(#radialGradient947);fill-opacity:1;stroke-width:0.110813"
   d="m 63.999998,8.5629333 c 30.01536,0 54.342782,23.9219607 54.342782,53.4370677 0,29.5151 -24.338595,53.437059 -54.342782,53.437059 -30.004186,0 -54.3427787,-23.921959 -54.3427787,-53.437059 0,-29.515107 24.3274177,-53.4370677 54.3427787,-53.4370677"
   id="path24-3" /><path
   style="fill:#ffffff;fill-opacity:1;stroke-width:0.122349"
   d="M 85.320174,44.820481 C 78.558915,56.394818 63.531154,60.39852 51.760642,53.749949 51.538557,53.628625 51.32881,53.495168 51.119063,53.373843 49.058607,52.124204 47.183221,50.571253 45.579272,48.787785 41.334979,44.080403 39.126466,37.941394 39.422579,31.668928 c 0.03701,-0.70368 0.0987,-1.407361 0.185071,-2.09891 0.08637,-0.691549 0.209747,-1.370965 0.370142,-2.05038 0.160395,-0.691549 0.345466,-1.383098 0.555213,-2.062513 0.209747,-0.655152 0.456508,-1.310303 0.727945,-1.953321 0.283776,-0.667285 0.592228,-1.322435 0.925356,-1.953322 0.357803,-0.667283 0.752621,-1.322435 1.172115,-1.965453 0.38248,-0.582357 0.801975,-1.152581 1.233807,-1.710673 0.481184,-0.606622 0.987044,-1.176846 1.517581,-1.734937 0.542876,-0.558091 1.098088,-1.091919 1.690315,-1.60148 0.592227,-0.521695 1.221468,-0.994859 1.863047,-1.455892 0.333128,-0.230516 0.666256,-0.461032 1.011721,-0.679417 -14.571252,7.327988 -20.542874,24.750156 -13.448489,39.260541 0.06169,0.133457 0.135719,0.279046 0.209748,0.412503 0.03701,0.06066 0.06169,0.121324 0.0987,0.181987 0.01233,0.03639 0.03701,0.0728 0.06169,0.109193 0.03701,0.04853 0.04936,0.0364 0.111045,0.0364 0.32079,0 0.64158,0 0.950031,0 0.592226,0.01213 1.172116,0.04853 1.764343,0.09705 11.141271,1.031256 20.172733,9.329837 21.986429,20.188361 0.394817,2.414354 0.419494,4.877237 0.07402,7.303722 -0.653917,4.573926 -2.628007,8.856674 -5.700184,12.362946 -1.752006,2.00185 -3.8248,3.712523 -6.144356,5.071355 -4.614435,2.681262 -9.993831,3.809582 -15.323874,3.215092 -0.96237,-0.10919 -1.924739,-0.26691 -2.862431,-0.4853 -0.616904,-0.14558 -1.221469,-0.303306 -1.813696,-0.497425 2.689698,1.176845 5.539791,1.953325 8.451573,2.305165 2.726713,0.32758 5.4781,0.30331 8.192475,-0.097 4.848859,-0.71582 9.463294,-2.584217 13.411474,-5.447471 2.899446,-2.09891 5.391733,-4.695249 7.365824,-7.655562 0.08637,-0.133457 0.172733,-0.254781 0.259099,-0.388238 0.03701,-0.04853 0.111045,-0.133457 0.0987,-0.181987 -0.03701,-0.08493 -0.07403,-0.157721 -0.135719,-0.230516 -0.160394,-0.30331 -0.320788,-0.606621 -0.468846,-0.922065 -0.308451,-0.618754 -0.579889,-1.261772 -0.82665,-1.904791 -0.50586,-1.310303 -0.88834,-2.669134 -1.14744,-4.052231 -0.56755,-2.972446 -0.56755,-6.005553 0,-8.977998 0.481184,-2.523544 1.369525,-4.950031 2.640345,-7.19453 4.293647,-7.667695 12.461445,-12.447872 21.357188,-12.508534 0.604565,0 1.20913,0.01213 1.813695,0.04853 0.579889,0.03639 1.159778,0.09705 1.739667,0.169853 0.567551,0.0728 1.135102,0.169855 1.702653,0.291179 0.555213,0.109194 1.098088,0.242649 1.6533,0.40037 0.530537,0.145589 1.061074,0.315444 1.579273,0.49743 0.530536,0.181986 1.048735,0.388238 1.566934,0.618754 0.530537,0.230516 1.036397,0.473165 1.554597,0.727945 0.50586,0.266914 0.99938,0.54596 1.49291,0.837138 0.4565,0.279046 0.91301,0.570224 1.34485,0.885668 0.45651,0.315442 0.88834,0.65515 1.32016,0.994859 0.44418,0.35184 0.87602,0.727945 1.2955,1.116183 0.44417,0.412502 0.876,0.837137 1.28316,1.286038 0.40715,0.436767 0.80198,0.8978 1.18445,1.370964 0.4195,0.521695 0.81432,1.067653 1.1968,1.625745 0.38248,0.570224 0.74028,1.164714 1.07342,1.759202 0.46884,0.837138 0.876,1.710673 1.24614,2.59634 0.39481,0.970595 0.7156,1.953322 0.98704,2.960313 -0.71561,-5.374666 -2.92412,-10.446021 -6.37877,-14.668107 -2.54165,-3.105902 -5.68786,-5.690109 -9.253558,-7.582767 -3.664405,-1.94119 -7.686613,-3.105902 -11.832202,-3.433478 -0.38248,-0.04853 -0.727946,-0.0728 -1.08575,-0.08493 z"
   id="path71" />
</svg>
