<?xml version="1.0" encoding="UTF-8"?>
<svg height="128px" viewBox="0 0 128 128" width="128px" xmlns="http://www.w3.org/2000/svg" xmlns:xlink="http://www.w3.org/1999/xlink">
    <linearGradient id="a" gradientTransform="matrix(4.694001 0 0 4.166667 -229.634415 -144.101181)" gradientUnits="userSpaceOnUse" x1="49.772087" x2="75.337898" y1="50.241982" y2="50.241982">
        <stop offset="0" stop-color="#96160d"/>
        <stop offset="0.147094" stop-color="#e62011"/>
        <stop offset="0.2992" stop-color="#96160d"/>
        <stop offset="0.702591" stop-color="#96160d"/>
        <stop offset="0.85121" stop-color="#e62011"/>
        <stop offset="1" stop-color="#96160d"/>
    </linearGradient>
    <linearGradient id="b" gradientUnits="userSpaceOnUse" x1="26.773676" x2="101.226181" y1="71.1446" y2="71.1446">
        <stop offset="0" stop-color="#898989"/>
        <stop offset="0.0111566" stop-color="#e4e4e4"/>
        <stop offset="0.0271342" stop-color="#898989"/>
        <stop offset="0.163053" stop-color="#898989"/>
        <stop offset="0.175267" stop-color="#e4e4e4"/>
        <stop offset="0.18709" stop-color="#898989"/>
        <stop offset="0.460661" stop-color="#898989"/>
        <stop offset="0.501562" stop-color="#e4e4e4"/>
        <stop offset="0.539829" stop-color="#898989"/>
        <stop offset="0.814003" stop-color="#898989"/>
        <stop offset="0.82569" stop-color="#e4e4e4"/>
        <stop offset="0.840703" stop-color="#898989"/>
        <stop offset="0.97432" stop-color="#898989"/>
        <stop offset="0.986791" stop-color="#e4e4e4"/>
        <stop offset="1" stop-color="#898989"/>
    </linearGradient>
    <path d="m 123.753906 86.933594 c 0.164063 -0.933594 0.246094 -1.90625 0.246094 -2.910156 c 0 -0.449219 0 -2.582032 0 -3.054688 c 0.007812 -27.976562 -60 -77.96875 -60 -77.96875 s -59.996094 49.933594 -60.003906 78.09375 c 0 1.101562 0.003906 2.433594 0.003906 2.851562 c -0.003906 1.035157 0.078125 2.03125 0.246094 2.988282 c 4.71875 26.746094 36.125 25.269531 50.527344 10.863281 l -14.769532 26.683594 l -0.007812 3 h 48.003906 v -3 l -14.773438 -26.683594 c 14.402344 14.40625 45.8125 15.886719 50.527344 -10.863281 z m 0 0" fill="url(#a)"/>
    <path d="m 123.753906 83.292969 c 4.714844 -26.746094 -59.753906 -82.292969 -59.753906 -82.292969 s -64.46875 55.546875 -59.753906 82.292969 c 4.71875 26.746093 36.125 25.269531 50.527344 10.863281 l -14.773438 30.347656 h 48 l -14.773438 -30.347656 c 14.402344 14.40625 45.8125 15.886719 50.527344 -10.863281 z m 0 0" fill="#ed2919"/>
    <path d="m 87.210938 67.503906 c -0.09375 -0.019531 -0.195313 0.003906 -0.269532 0.0625 l -19.824218 19.242188 c -0.832032 0.792968 -1.953126 1.238281 -3.121094 1.238281 c -1.164063 0 -2.285156 -0.445313 -3.117188 -1.238281 l -19.828125 -19.242188 c -0.070312 -0.066406 -0.171875 -0.089844 -0.261719 -0.0625 c -0.117187 0.03125 -0.214843 0.125 -0.214843 0.253906 v 27.984376 c 0 1.1875 -0.992188 2.148437 -2.214844 2.148437 h -9.371094 c -0.585937 0.003906 -1.148437 -0.222656 -1.566406 -0.628906 c -0.414063 -0.402344 -0.648437 -0.949219 -0.648437 -1.519531 v -49.1875 c 0 -0.574219 0.234374 -1.121094 0.648437 -1.527344 c 0.417969 -0.402344 0.984375 -0.632813 1.574219 -0.628906 h 6.425781 c 1.222656 0.011718 2.335937 0.492187 3.136719 1.273437 l 24.660156 23.933594 c 0.207031 0.203125 0.484375 0.316406 0.777344 0.316406 c 0.292968 0 0.574218 -0.113281 0.777344 -0.316406 l 24.664062 -23.933594 c 0.828125 -0.8125 1.957031 -1.273437 3.136719 -1.273437 h 6.417969 c 0.589843 0 1.15625 0.226562 1.574218 0.628906 c 0.414063 0.40625 0.648438 0.953125 0.648438 1.527344 l 0.011718 49.183593 v 0.003907 c 0 1.1875 -0.992187 2.148437 -2.214843 2.148437 h -9.375 c -1.226563 0 -2.21875 -0.960937 -2.21875 -2.148437 v -27.984376 c 0.003906 -0.121093 -0.082031 -0.230468 -0.207031 -0.253906 z m 0 0" fill="url(#b)"/>
    <path d="m 87.210938 65.503906 c -0.09375 -0.023437 -0.195313 0.003906 -0.269532 0.0625 l -19.824218 19.242188 c -0.832032 0.792968 -1.953126 1.238281 -3.121094 1.238281 c -1.164063 0 -2.285156 -0.445313 -3.117188 -1.238281 l -19.828125 -19.242188 c -0.070312 -0.066406 -0.171875 -0.089844 -0.261719 -0.0625 c -0.117187 0.03125 -0.214843 0.125 -0.214843 0.253906 v 27.984376 c 0 1.1875 -0.992188 2.148437 -2.214844 2.148437 h -9.371094 c -0.585937 0 -1.148437 -0.222656 -1.566406 -0.628906 c -0.414063 -0.402344 -0.648437 -0.949219 -0.648437 -1.519531 v -49.1875 c 0 -0.574219 0.234374 -1.121094 0.648437 -1.527344 c 0.417969 -0.40625 0.984375 -0.632813 1.574219 -0.628906 h 6.425781 c 1.222656 0.011718 2.335937 0.492187 3.136719 1.273437 l 24.660156 23.933594 c 0.207031 0.203125 0.484375 0.316406 0.777344 0.316406 c 0.292968 0 0.574218 -0.113281 0.777344 -0.316406 l 24.664062 -23.933594 c 0.828125 -0.8125 1.957031 -1.273437 3.136719 -1.273437 h 6.417969 c 0.589843 0 1.15625 0.226562 1.574218 0.628906 c 0.414063 0.40625 0.648438 0.953125 0.648438 1.527344 l 0.011718 49.183593 v 0.003907 c 0 1.1875 -0.992187 2.148437 -2.214843 2.148437 h -9.375 c -1.226563 0 -2.21875 -0.960937 -2.21875 -2.148437 v -27.984376 c 0.003906 -0.121093 -0.082031 -0.230468 -0.207031 -0.253906 z m 0 0" fill="#ffffff"/>
</svg>
