<?xml version="1.0" encoding="UTF-8" standalone="no"?>
<!-- Generator: Adobe Illustrator 26.0.2, SVG Export Plug-In . SVG Version: 6.00 Build 0)  -->

<svg
   version="1.0"
   id="Layer_1"
   x="0px"
   y="0px"
   viewBox="0 0 128 128"
   xml:space="preserve"
   width="128"
   height="128"
   xmlns:xlink="http://www.w3.org/1999/xlink"
   xmlns="http://www.w3.org/2000/svg"
   xmlns:svg="http://www.w3.org/2000/svg"><defs
   id="defs76"><linearGradient
     id="linearGradient1097"><stop
       style="stop-color:#b2b2b2;stop-opacity:1;"
       offset="0"
       id="stop1093" /><stop
       style="stop-color:#ffffff;stop-opacity:1;"
       offset="0.05234205"
       id="stop1101" /><stop
       style="stop-color:#b2b2b2;stop-opacity:1;"
       offset="0.15255697"
       id="stop1103" /><stop
       style="stop-color:#b2b2b2;stop-opacity:1;"
       offset="0.85064137"
       id="stop1105" /><stop
       style="stop-color:#ffffff;stop-opacity:1;"
       offset="0.94848526"
       id="stop1107" /><stop
       style="stop-color:#b2b2b2;stop-opacity:1;"
       offset="1"
       id="stop1095" /></linearGradient><linearGradient
     xlink:href="#linearGradient1097"
     id="linearGradient1099"
     x1="9.9999966"
     y1="67.999999"
     x2="118"
     y2="67.999999"
     gradientUnits="userSpaceOnUse"
     gradientTransform="translate(0,-1.9999995)" /></defs>
<style
   type="text/css"
   id="style2">
	.st0{fill:url(#SVGID_1_);}
	.st1{fill:url(#SVGID_00000062171159965967627490000013605884846004172698_);}
	.st2{fill:url(#SVGID-2_00000085966066984138215510000013018799571900533434_);}
	.st3{clip-path:url(#SVGID_00000023257072852279316340000004281102206337855156_);}
	.st4{fill:url(#SVGID_00000177446033621631838710000001370584907163434138_);}
	.st5{clip-path:url(#SVGID_00000136385553608229244970000014654043435100792964_);}
	.st6{fill:url(#SVGID_00000126306410582640054500000000964390405037519506_);}
	.st7{fill:url(#SVGID_00000109020757643166282930000006684795936706346369_);}
</style>
<radialGradient
   id="SVGID_1_"
   cx="514.5"
   cy="477.5"
   r="496.5"
   gradientTransform="matrix(1,0,0,-1,-18,974)"
   gradientUnits="userSpaceOnUse">
	<stop
   offset="0.9134"
   style="stop-color:#000000"
   id="stop4" />
	<stop
   offset="1"
   style="stop-color:#000000;stop-opacity:0"
   id="stop6" />
</radialGradient>

<radialGradient
   id="SVGID_00000163033830155146975860000008434547654242457221_"
   cx="512.05908"
   cy="481.87881"
   r="486.27271"
   gradientTransform="matrix(0.11104257,0,0,-0.11104257,7.1350999,117.51141)"
   gradientUnits="userSpaceOnUse">
	<stop
   offset="0.99"
   style="stop-color:#FFFFFF"
   id="stop11" />
	<stop
   offset="0.9951"
   style="stop-color:#FDFDFD"
   id="stop13" />
	<stop
   offset="0.9969"
   style="stop-color:#F6F6F6"
   id="stop15" />
	<stop
   offset="0.9982"
   style="stop-color:#EBEBEB"
   id="stop17" />
	<stop
   offset="0.9992"
   style="stop-color:#DADADA"
   id="stop19" />
	<stop
   offset="1"
   style="stop-color:#C7C7C7"
   id="stop21" />
</radialGradient>

<radialGradient
   id="SVGID-2_00000052072577768947982130000002178866272689676469_"
   cx="512.06152"
   cy="481.87881"
   r="444.12241"
   gradientTransform="matrix(1,0,0,-1,-18,974)"
   gradientUnits="userSpaceOnUse">
	<stop
   offset="0.99"
   style="stop-color:#000000;stop-opacity:0.5"
   id="stop26" />
	<stop
   offset="1"
   style="stop-color:#000000;stop-opacity:0"
   id="stop28" />
</radialGradient>



<radialGradient
   id="SVGID_00000092427181212153090570000016417065628950216588_"
   cx="578.89008"
   cy="482.3703"
   r="353.94269"
   gradientTransform="matrix(0.11104257,0,0,-0.1218248,7.1350999,118.45626)"
   gradientUnits="userSpaceOnUse">
	<stop
   offset="0"
   style="stop-color:#C2C0C2"
   id="stop66" />
	<stop
   offset="1"
   style="stop-color:#EBEBEB"
   id="stop68" />
</radialGradient>

		
	
		
	
<path
   style="fill:url(#linearGradient1099);fill-opacity:1;stroke:none;stroke-width:0.111043"
   d="M 63.999999,11.999998 C 93.826032,11.999998 118,36.173966 118,66.000002 118,95.826032 93.814932,120 63.999999,120 34.185069,120 9.9999966,95.826032 9.9999966,66.000002 c 0,-29.826037 24.1739684,-54.000005 54.0000024,-54.000005"
   id="path24-2" /><path
   style="fill:#ffffff;fill-opacity:1;stroke-width:0.111043"
   d="M 64.000001,7.9999996 C 93.826035,7.9999996 118,32.173967 118,62.000001 118,91.826036 93.814931,116 64.000001,116 34.185071,116 9.9999991,91.826036 9.9999991,62.000001 9.9999991,32.173967 34.173967,7.9999996 64.000001,7.9999996"
   id="path24" /><path
   d="M 61.353834,101.44749 C 52.270059,99.171388 44.186702,90.788284 36.303433,75.520768 25.058762,53.721481 23.618168,33.845661 32.833993,27.834828 c 3.157307,-1.955524 7.763221,-1.883395 11.844914,0.17752 2.264946,1.146065 2.909206,1.867365 4.201742,4.68845 1.588661,3.474261 2.208918,7.453432 2.477034,15.868598 l 0.247306,7.733939 1.272521,-2.921266 c 0.700297,-1.606895 2.112882,-4.367872 3.141309,-6.171121 1.028427,-1.783214 1.872775,-3.730724 1.872775,-4.3278 0,-0.593068 -0.448189,-2.143864 -1.000419,-3.454225 -1.02442,-2.436391 -1.188486,-3.758774 -0.752307,-5.970761 0.249702,-1.250253 0.252505,-1.25426 2.901201,-1.25426 l 2.649104,-0.0015 1.652682,-2.139856 c 1.86478,-2.420362 5.482277,-5.369678 8.603571,-6.972566 C 73.754179,22.152274 74.526501,22 77.467722,22 c 3.033261,0 3.633504,0.127831 5.362228,1.138051 1.06444,0.625126 1.848763,1.222203 1.744722,1.326391 -0.104041,0.104187 -1.228514,-0.114607 -2.505043,-0.484874 -3.177321,-0.925669 -6.362637,-0.593069 -9.603989,1.001805 -7.683182,3.782818 -15.486422,18.032499 -12.445167,22.680876 0.412176,0.63314 1.416592,1.198159 2.865199,1.618917 2.352969,0.685235 3.489444,0.50491 1.524629,-0.243639 -4.121712,-1.566824 -3.269361,-5.289532 2.761148,-12.061737 l 3.437424,-3.858956 -0.227698,-2.207978 c -0.206084,-1.999604 -0.142858,-2.256066 0.672287,-2.692853 1.120458,-0.601084 2.949216,-0.261672 4.281771,0.797437 1.264528,0.997797 5.202161,1.089964 8.523542,0.203967 1.2085,-0.325386 3.321382,-0.593069 4.681946,-0.597076 2.328967,-0.0045 2.50904,0.06211 2.74514,0.997799 0.138055,0.548989 0.149261,1.266281 0.02482,1.590866 -0.124453,0.324585 0.151259,1.4426 0.612254,2.488485 1.036431,2.348232 1.424595,7.894228 0.764318,10.939716 -0.255309,1.194152 -1.176494,3.638557 -2.04885,5.449822 -2.18091,4.488088 -2.264946,5.169316 -1.01242,8.13466 2.148895,5.089172 3.717541,14.826721 3.313378,20.476904 -0.119651,1.662997 -0.69629,5.369677 -1.284542,8.214805 -1.120457,5.489893 -1.032424,7.41336 0.400166,8.615527 0.328945,0.273693 0.600253,1.073935 0.600253,1.779207 0,1.490683 -1.120467,2.688849 -3.161314,3.370078 -1.912794,0.64115 -6.04251,0.56902 -8.043337,-0.14467 -2.388992,-0.845518 -4.36181,-0.749348 -6.002491,0.28973 -1.232512,0.78141 -2.020842,0.89761 -6.602744,0.98577 -3.533461,0.0665 -5.962471,-0.0898 -7.563133,-0.48888 z M 55.271304,87.342073 C 51.713832,76.883224 52.818291,65.142063 58.50865,52.920037 l 1.712716,-3.670616 -1.832765,-1.594874 -1.604668,3.470255 c -6.522705,14.10542 -7.523124,26.527808 -2.849182,35.78449 1.236509,2.45242 2.356976,4.367872 2.565068,4.367872 0.05522,0 -0.496212,-1.759169 -1.224508,-3.907041 z m 30.612708,-35.063192 0.84035,-2.103791 -0.182469,1.751155 c -0.103644,0.997799 -0.03192,1.60289 0.166461,1.402529 0.327335,-0.327792 2.388992,-5.489894 2.388992,-6.010833 0,-0.124625 -0.544226,0.23322 -1.212498,0.793429 -1.236518,1.041878 -3.457438,1.84733 -5.12213,1.851337 -0.840351,0.0021 -0.896368,0.131838 -0.664275,1.506715 0.456193,2.71289 0.576241,2.905236 1.784742,2.905236 1.008422,0 1.248519,-0.252054 1.988826,-2.103791 z"
   fill="#fcfbfb"
   id="path8"
   style="stroke-width:0.400444" /><path
   d="M 61.353834,101.44749 C 52.270059,99.171388 44.186702,90.788284 36.303433,75.520768 27.699862,58.810653 24.738626,43.342776 28.300105,33.845661 c 2.56107,-6.852349 9.403911,-9.21661 16.406811,-5.690256 2.264946,1.146067 2.909215,1.867366 4.201751,4.68845 1.588661,3.474261 2.208919,7.453433 2.477025,15.868599 l 0.247306,7.733938 1.272531,-2.921265 c 0.700287,-1.606896 2.112872,-4.367872 3.141299,-6.171121 1.028427,-1.783214 1.872774,-3.730724 1.872774,-4.3278 0,-0.593069 -0.448179,-2.143863 -1.000408,-3.454225 -1.02443,-2.436391 -1.188496,-3.758774 -0.752318,-5.97076 0.249702,-1.250254 0.252506,-1.254261 2.901202,-1.254261 l 2.649103,-0.0015 1.652683,-2.139855 c 1.86478,-2.420363 5.482276,-5.369678 8.60358,-6.972567 1.808744,-0.93769 2.581066,-1.089964 5.522287,-1.089964 3.033261,0 3.633514,0.12783 5.362228,1.138051 1.06444,0.625126 1.848763,1.222202 1.744722,1.32639 -0.104041,0.104188 -1.228505,-0.114606 -2.505034,-0.484874 -3.177321,-0.925668 -6.362646,-0.593068 -9.603989,1.001806 -7.683191,3.782817 -15.486431,18.032498 -12.445166,22.680876 0.412166,0.633141 1.416582,1.198158 2.865189,1.618917 2.352978,0.685235 3.489444,0.50491 1.524629,-0.243639 -4.121712,-1.566824 -3.269351,-5.289533 2.761148,-12.061737 l 3.437424,-3.858955 -0.227689,-2.207979 c -0.206083,-1.999605 -0.142857,-2.256067 0.672278,-2.692854 1.120467,-0.601083 2.949225,-0.261672 4.281781,0.797437 1.264518,0.997799 5.20216,1.089964 8.523532,0.203968 1.2085,-0.325386 3.321382,-0.593069 4.681946,-0.597076 2.328967,-0.0045 2.50904,0.06211 2.74514,0.997798 0.138055,0.54899 0.149261,1.266282 0.02482,1.590867 -0.124453,0.324586 0.151269,1.4426 0.612254,2.488485 1.036431,2.348232 1.424595,7.894227 0.764318,10.939715 -0.2553,1.194153 -1.176485,3.638558 -2.04885,5.449822 -2.1809,4.488089 -2.264936,5.169317 -1.01242,8.13466 2.148894,5.089172 3.717541,14.826722 3.313378,20.476905 -0.119651,1.662996 -0.69629,5.369677 -1.284532,8.214804 -1.120467,5.489895 -1.032434,7.413361 0.400165,8.615528 0.328936,0.273693 0.600244,1.073935 0.600244,1.779206 0,1.490692 -1.120458,2.688855 -3.161304,3.370085 -1.912794,0.64115 -6.042511,0.56902 -8.043347,-0.14467 -2.388992,-0.845525 -4.36181,-0.749346 -6.002491,0.28972 -1.232512,0.78142 -2.020842,0.89762 -6.602744,0.98579 -3.533461,0.0665 -5.962472,-0.0898 -7.563133,-0.48888 z M 55.271304,87.342073 C 51.713832,76.883224 52.818291,65.142063 58.50865,52.920037 l 1.712716,-3.670616 -1.832765,-1.594874 -1.604668,3.470255 c -6.522705,14.10542 -7.523124,26.527808 -2.849182,35.78449 1.236509,2.45242 2.356976,4.367872 2.565068,4.367872 0.05522,0 -0.496212,-1.759169 -1.224508,-3.907041 z m 30.612708,-35.063192 0.84035,-2.103791 -0.182469,1.751155 c -0.103644,0.997799 -0.03192,1.60289 0.166461,1.402529 0.327335,-0.327792 2.388992,-5.489894 2.388992,-6.010833 0,-0.124625 -0.544226,0.23322 -1.212498,0.793429 -1.236518,1.041878 -3.457438,1.84733 -5.12213,1.851337 -0.840351,0.0021 -0.896368,0.131838 -0.664275,1.506715 0.456193,2.71289 0.576241,2.905236 1.784742,2.905236 1.008422,0 1.248519,-0.252054 1.988826,-2.103791 z"
   fill="#fbfbfb"
   id="path10"
   style="stroke-width:0.400444" /><path
   d="M 61.353834,101.44749 C 56.391771,100.20125 50.509329,96.198033 46.307587,91.189006 39.264659,82.813912 31.741535,67.866974 28.620241,56.165887 27.499774,51.918231 27.323708,50.555776 27.155636,44.66516 c -0.16847,-5.970761 -0.09884,-6.972566 0.644269,-9.457044 1.008413,-3.330001 2.124883,-5.0491 4.36181,-6.772205 3.237346,-2.472456 8.043338,-2.604694 12.525196,-0.34422 2.264946,1.146065 2.909206,1.867365 4.201742,4.688449 1.58866,3.474262 2.208918,7.453433 2.477034,15.868599 l 0.247296,7.733938 1.272531,-2.921264 c 0.700297,-1.606896 2.112882,-4.367872 3.141309,-6.171122 1.028427,-1.783214 1.872774,-3.730724 1.872774,-4.327799 0,-0.59307 -0.448188,-2.143865 -1.000418,-3.454227 -1.02442,-2.43639 -1.188495,-3.758774 -0.752307,-5.97076 0.249702,-1.250253 0.252505,-1.25426 2.901201,-1.25426 l 2.649104,-0.0015 1.652682,-2.139857 c 1.86478,-2.420362 5.482277,-5.369677 8.603571,-6.972566 1.808753,-0.937689 2.581075,-1.089964 5.522296,-1.089964 3.033261,0 3.633504,0.12783 5.362228,1.138051 1.06444,0.625127 1.848763,1.222203 1.744722,1.32639 -0.104041,0.104188 -1.228515,-0.114607 -2.505043,-0.484874 -3.177321,-0.925667 -6.362637,-0.593068 -9.603989,1.001806 -7.683182,3.782817 -15.486422,18.032498 -12.445167,22.680875 0.412176,0.633142 1.416592,1.19816 2.865189,1.618918 2.352979,0.685236 3.489454,0.504911 1.524639,-0.243639 -4.121712,-1.566823 -3.269361,-5.289533 2.761148,-12.061738 l 3.437424,-3.858954 -0.227699,-2.20798 c -0.206083,-1.999603 -0.142857,-2.256065 0.672288,-2.692853 1.120458,-0.601083 2.949216,-0.261671 4.281771,0.797438 1.264528,0.997798 5.20216,1.089964 8.523542,0.203967 1.2085,-0.325386 3.321382,-0.593069 4.681946,-0.597076 2.328967,-0.0045 2.50904,0.06211 2.74514,0.997798 0.138055,0.548989 0.149261,1.266283 0.02482,1.590868 -0.124453,0.324584 0.151259,1.4426 0.612254,2.488485 1.036431,2.348231 1.424586,7.894226 0.764318,10.939715 -0.255309,1.194152 -1.176494,3.638557 -2.04885,5.449822 -2.18091,4.488088 -2.264946,5.169316 -1.01242,8.13466 2.148885,5.089172 3.717541,14.826721 3.313369,20.476904 -0.119642,1.662997 -0.696281,5.369677 -1.284533,8.214805 -1.120457,5.489894 -1.032424,7.41336 0.400166,8.615527 0.328945,0.273693 0.600253,1.073935 0.600253,1.779206 0,1.490689 -1.120467,2.688851 -3.161314,3.370081 -1.912794,0.64115 -6.04251,0.56902 -8.043337,-0.14466 -2.388992,-0.845525 -4.36181,-0.749356 -6.002491,0.28972 -1.232512,0.78141 -2.020842,0.89762 -6.602744,0.98578 -3.53347,0.0665 -5.962472,-0.0898 -7.563143,-0.48888 z M 55.271304,87.342073 C 51.713832,76.883224 52.818291,65.142063 58.50865,52.920037 l 1.712716,-3.670616 -1.832765,-1.594874 -1.604668,3.470255 c -6.522705,14.10542 -7.523124,26.527808 -2.849182,35.78449 1.236509,2.45242 2.356976,4.367872 2.565068,4.367872 0.05522,0 -0.496212,-1.759169 -1.224508,-3.907041 z m 30.612708,-35.063192 0.84035,-2.103791 -0.182469,1.751155 c -0.103644,0.997799 -0.03192,1.60289 0.166461,1.402529 0.327335,-0.327792 2.388992,-5.489894 2.388992,-6.010833 0,-0.124625 -0.544226,0.23322 -1.212498,0.793429 -1.236518,1.041878 -3.457438,1.84733 -5.12213,1.851337 -0.840351,0.0021 -0.896368,0.131838 -0.664275,1.506715 0.456193,2.71289 0.576241,2.905236 1.784742,2.905236 1.008422,0 1.248519,-0.252054 1.988826,-2.103791 z"
   fill="#a08470"
   id="path12"
   style="stroke-width:0.400444" /><path
   d="M 61.353834,101.44749 C 52.390107,98.987062 44.186702,90.1872 36.463501,74.799468 29.940786,61.81607 27.179647,51.477437 27.619823,41.980321 c 0.362552,-7.77401 2.553066,-12.061737 7.162977,-14.065348 2.585072,-1.114008 6.282608,-0.965741 9.323873,0.373472 3.53347,1.546789 4.801994,3.334009 6.282607,8.775816 0.688286,2.552601 0.860355,4.68845 1.028427,12.502532 l 0.202882,9.416972 0.688286,-2.003611 c 0.756314,-2.195957 3.561479,-7.934299 5.002082,-10.178344 1.348554,-2.139856 1.460599,-4.247654 0.350542,-6.651988 -0.592249,-1.274297 -0.93239,-2.756969 -0.93239,-4.087366 -0.0057,-3.221806 0.09925,-3.334009 3.141308,-3.362059 l 2.657098,-0.02285 1.504625,-1.979567 c 1.848772,-2.428376 5.322208,-5.209388 8.483522,-6.812277 2.020841,-1.017834 2.809171,-1.190145 5.402247,-1.174116 2.477025,0.01479 3.369396,0.203567 4.842005,1.025849 0.992414,0.552997 1.440603,0.89361 1.000418,0.753358 -5.682355,-1.795236 -10.684437,-0.460831 -15.526441,4.16751 -6.002491,5.690255 -10.084194,15.387732 -8.083357,19.194593 0.764318,1.482672 0.592239,1.626933 -0.516217,0.43278 l -0.784323,-0.845524 -0.780326,1.546787 c -1.744722,3.454226 -4.521878,11.019861 -5.562306,15.187372 -0.952395,3.814875 -1.100462,5.209388 -1.096456,10.218415 0.0076,5.209389 0.118051,6.13105 1.076441,9.01625 1.284533,3.862962 4.521878,9.336827 6.12255,10.29856 0.228494,0.139051 -0.02349,-1.402527 -0.560234,-3.426174 C 56.889177,85.913494 56.625068,78.419988 57.54145,75.815295 l 0.548223,-1.554803 1.232512,2.155885 c 2.108874,3.694659 8.203405,9.136467 11.004573,9.857767 2.08887,0.524946 2.040846,-2.20798 -0.14766,-8.094589 -1.888782,-5.089171 -2.264946,-7.012638 -2.280953,-11.821304 -0.01459,-4.768594 0.580248,-6.932494 3.29737,-11.861377 1.856776,-3.386102 1.988826,-4.848738 0.804337,-8.615527 -0.436178,-1.39852 -0.796333,-2.772997 -0.800331,-3.053503 -0.0028,-0.28251 0.940385,0.193548 2.096865,1.057907 2.953231,2.211986 6.842841,4.087365 9.043755,4.327799 1.632678,0.193549 2.048851,0.08215 3.145306,-0.841516 1.364571,-1.150073 2.909215,-4.688451 2.909215,-6.651989 0,-0.653177 0.172069,-1.186138 0.38215,-1.186138 0.520223,0 0.936397,2.436392 0.752317,4.367872 l -0.152462,1.598882 1.108456,-1.065921 c 0.612254,-0.585054 1.472609,-1.979568 1.920798,-3.093575 l 0.808335,-2.027655 -0.132457,3.41816 c -0.119642,3.093575 -0.31092,3.798847 -2.008831,7.453433 -1.148476,2.460434 -1.876782,4.568233 -1.876782,5.449822 0,0.797437 0.540229,2.801048 1.200506,4.448017 2.813169,7.05271 3.561479,17.912281 1.80074,26.087014 -1.332546,6.171122 -1.316538,8.214804 0.06479,9.857765 0.872365,1.037871 1.000418,1.454622 0.700296,2.29214 -0.556236,1.566818 -2.148894,2.512519 -5.082111,3.013419 -2.404999,0.41274 -2.937224,0.37107 -5.402238,-0.42477 -3.477453,-1.122017 -4.281781,-1.10599 -6.562725,0.11982 -1.744731,0.92968 -2.256941,0.9978 -7.202996,0.96574 -3.121294,-0.021 -6.12254,-0.26006 -7.283026,-0.57704 z M 85.20373,54.562998 c 0.344943,-0.275697 0.836353,-0.861553 1.096455,-1.302347 0.444191,-0.761372 0.456192,-0.757365 0.222896,0.10018 -0.36815,1.346426 0.488199,1.097979 1.240516,-0.36586 0.924386,-1.791227 2.208918,-5.650182 1.964814,-5.890615 -0.11285,-0.113004 -0.700287,0.265678 -1.30054,0.841516 -1.344556,1.282311 -2.893198,1.899423 -4.761975,1.899423 h -1.424595 l 0.19088,1.991589 c 0.275315,2.869171 1.320545,3.887006 2.78516,2.716897 z M 84.531451,36.490427 c -4.041673,-1.90343 -5.002072,-4.568233 -2.200914,-5.930688 1.828758,-0.893611 6.722792,-1.727113 8.123376,-1.374477 0.960399,0.241636 1.092449,0.464838 1.092449,1.883394 0,2.756969 -2.481022,6.411555 -4.36181,6.371482 -0.355344,-0.002 -1.548642,-0.428772 -2.649094,-0.949711 z M 70.885788,34.138188 c 0.472201,-0.729314 0.500209,-1.218196 0.134854,-2.572637 -0.836344,-3.105597 1.088451,-3.794838 5.042092,-1.803249 l 2.24494,1.134044 -2.112881,0.665198 c -1.160486,0.366661 -2.849181,1.29834 -3.749556,2.071734 -1.896786,1.626932 -2.37699,1.783213 -1.548641,0.50491 z"
   fill="#45352f"
   id="path14"
   style="stroke-width:0.400444" /></svg>
