<?xml version="1.0" encoding="UTF-8" standalone="no"?>
<svg
   height="128px"
   viewBox="0 0 128 128"
   width="128px"
   version="1.1"
   id="svg8"
   xml:space="preserve"
   xmlns:xlink="http://www.w3.org/1999/xlink"
   xmlns="http://www.w3.org/2000/svg"
   xmlns:svg="http://www.w3.org/2000/svg"><defs
     id="defs12"><linearGradient
       id="linearGradient1632"><stop
         style="stop-color:#2834be;stop-opacity:1;"
         offset="0"
         id="stop1628" /><stop
         style="stop-color:#8992f6;stop-opacity:1;"
         offset="0.4121199"
         id="stop1636" /><stop
         style="stop-color:#2835bd;stop-opacity:1;"
         offset="0.81004661"
         id="stop1638" /><stop
         style="stop-color:#717cf4;stop-opacity:1;"
         offset="1"
         id="stop1642" /></linearGradient><linearGradient
       xlink:href="#linearGradient1632"
       id="linearGradient1634"
       x1="60.059408"
       y1="94.415841"
       x2="168.0594"
       y2="94.415841"
       gradientUnits="userSpaceOnUse"
       gradientTransform="matrix(1.1111112,0,0,1.0925926,-62.732685,-37.158049)" /></defs><path
     d="M 124,66.000001 C 124,98.584441 97.13672,125 64,125 30.863279,125 3.9999961,98.584441 3.9999961,66.000001 3.9999961,33.415561 30.863279,7 64,7 c 33.13672,0 60,26.415561 60,59.000001 z m 0,0"
     fill="#1c71d8"
     id="path4-3"
     style="fill:url(#linearGradient1634);fill-opacity:1;stroke-width:0.991631" /><path
     d="M 124,62.000001 C 124,94.584442 97.13672,121 64.000002,121 30.863282,121 3.9999999,94.584442 3.9999999,62.000001 3.9999999,29.41556 30.863282,2.9999994 64.000002,2.9999994 97.13672,2.9999994 124,29.41556 124,62.000001 Z m 0,0"
     fill="#1c71d8"
     id="path4"
     style="fill:#5865f2;fill-opacity:1;stroke-width:0.991632" /><path
     d="m 90.089677,39.657976 c -4.867188,-2.235548 -10.070313,-3.864194 -15.507813,-4.78991 -0.667969,1.186915 -1.449219,2.784832 -1.98828,4.05625 -5.78125,-0.856576 -11.507812,-0.856576 -17.183596,0 -0.539061,-1.271418 -1.335936,-2.869335 -2.011717,-4.05625 -5.441408,0.925716 -10.652345,2.558204 -15.515627,4.801433 -9.8125,14.584831 -12.472655,28.804753 -11.144531,42.821095 6.507813,4.778386 12.816407,7.682292 19.019532,9.583661 1.531249,-2.070379 2.894531,-4.275197 4.070312,-6.595249 -2.238281,-0.837368 -4.386719,-1.870638 -6.414063,-3.069076 0.539063,-0.391795 1.066407,-0.802799 1.574219,-1.225324 12.367189,5.688737 25.804688,5.688737 38.023438,0 0.515627,0.422525 1.039063,0.833529 1.574219,1.225324 -2.035156,1.20228 -4.1875,2.235547 -6.425781,3.072917 1.175782,2.316212 2.535156,4.524871 4.070312,6.59909 6.207033,-1.901368 12.523438,-4.805275 19.031249,-9.591343 1.55859,-16.248047 -2.667968,-30.33737 -11.171873,-42.832618 z m -38.57422,34.213086 c -3.714843,0 -6.757813,-3.407096 -6.757813,-7.559375 0,-4.148437 2.98047,-7.563217 6.757813,-7.563217 3.777345,0 6.820315,3.407098 6.757813,7.563217 0.004,4.152279 -2.980468,7.559375 -6.757813,7.559375 z m 24.968751,0 c -3.710938,0 -6.757813,-3.407096 -6.757813,-7.559375 0,-4.148437 2.980469,-7.563217 6.757813,-7.563217 3.777343,0 6.824219,3.407098 6.757812,7.563217 0,4.152279 -2.980469,7.559375 -6.757812,7.559375 z m 0,0"
     fill="#ffffff"
     id="path6"
     style="stroke-width:0.991632" /></svg>
