<?xml version="1.0" encoding="UTF-8" standalone="no"?>
<svg
   height="128px"
   viewBox="0 0 128 128"
   width="128px"
   version="1.1"
   id="svg8"
   xmlns="http://www.w3.org/2000/svg"
   xmlns:svg="http://www.w3.org/2000/svg">
  <defs
     id="defs12" />
  <path
     d="m 64.000001,8 c 30.173273,0 54.634149,24.460874 54.634149,54.634146 v 2.731708 C 118.63414,95.539126 94.173274,120 64.000001,120 33.826729,120 9.365855,95.539126 9.365855,65.365854 V 62.634146 C 9.365855,32.460874 33.826729,8 64.000001,8 Z m 0,0"
     fill="#1a5fb4"
     id="path2"
     style="stroke-width:0.910569" />
  <path
     d="m 118.63414,62.634146 c 0,30.173273 -24.460866,54.634144 -54.634139,54.634144 -30.173272,0 -54.634146,-24.460871 -54.634146,-54.634144 C 9.365855,32.460874 33.826729,8 64.000001,8 94.173274,8 118.63414,32.460874 118.63414,62.634146 Z m 0,0"
     fill="#1c71d8"
     id="path4"
     style="stroke-width:0.910569" />
  <path
     d="m 87.756454,41.945376 c -4.431911,-2.070123 -9.169716,-3.578253 -14.120935,-4.435468 -0.608232,1.099086 -1.319614,2.578761 -1.810467,3.756098 -5.264228,-0.793192 -10.478658,-0.793192 -15.64685,0 -0.490853,-1.177337 -1.216463,-2.657012 -1.831808,-3.756098 -4.954778,0.857215 -9.699696,2.368903 -14.12805,4.446139 -8.93496,13.505589 -11.357215,26.673272 -10.147866,39.652439 5.925814,4.424797 11.670224,7.113821 17.318598,8.874493 1.394308,-1.917176 2.635671,-3.958843 3.706301,-6.107216 -2.03811,-0.775406 -3.994411,-1.732216 -5.840448,-2.841972 0.490854,-0.362804 0.971037,-0.743394 1.433435,-1.134654 11.26118,5.267785 23.496952,5.267785 34.622968,0 0.469513,0.39126 0.946138,0.77185 1.433435,1.134654 -1.853151,1.113314 -3.813008,2.070122 -5.851118,2.845528 1.070631,2.144818 2.308435,4.190042 3.706301,6.110773 5.651931,-1.760671 11.403455,-4.449696 17.329268,-8.881606 1.419207,-15.045732 -2.42937,-28.092479 -10.172764,-39.66311 z M 52.631962,73.626778 c -3.382622,0 -6.153456,-3.154979 -6.153456,-7 0,-3.841463 2.713923,-7.003557 6.153456,-7.003557 3.439533,0 6.210366,3.15498 6.153456,7.003557 0.0036,3.845021 -2.713923,7 -6.153456,7 z m 22.735773,0 c -3.379065,0 -6.153456,-3.154979 -6.153456,-7 0,-3.841463 2.713923,-7.003557 6.153456,-7.003557 3.439532,0 6.213923,3.15498 6.153455,7.003557 0,3.845021 -2.713923,7 -6.153455,7 z m 0,0"
     fill="#ffffff"
     id="path6"
     style="stroke-width:0.910569" />
</svg>
