<?xml version="1.0" encoding="UTF-8" standalone="no"?>
<svg
   height="128px"
   viewBox="0 0 128 128"
   width="128px"
   version="1.1"
   id="svg143"
   xml:space="preserve"
   xmlns:xlink="http://www.w3.org/1999/xlink"
   xmlns="http://www.w3.org/2000/svg"
   xmlns:svg="http://www.w3.org/2000/svg"><defs
     id="defs147"><linearGradient
       id="linearGradient1638"><stop
         style="stop-color:#af6f04;stop-opacity:1;"
         offset="0"
         id="stop1634" /><stop
         style="stop-color:#faa81f;stop-opacity:1;"
         offset="0.06735967"
         id="stop1642" /><stop
         style="stop-color:#af6f04;stop-opacity:1;"
         offset="0.15298244"
         id="stop1644" /><stop
         style="stop-color:#af6f04;stop-opacity:1;"
         offset="0.85323793"
         id="stop1646" /><stop
         style="stop-color:#faa81f;stop-opacity:1;"
         offset="0.93319571"
         id="stop1648" /><stop
         style="stop-color:#af6f04;stop-opacity:1;"
         offset="1"
         id="stop1636" /></linearGradient><linearGradient
       xlink:href="#linearGradient1638"
       id="linearGradient1640"
       x1="52.930689"
       y1="39.445545"
       x2="160.9307"
       y2="39.445545"
       gradientUnits="userSpaceOnUse"
       gradientTransform="translate(-42.930694,26.554455)" /></defs><path
     d="M 118,66.000001 C 118,95.823049 93.823046,120 63.999996,120 34.176949,120 9.9999956,95.823049 9.9999956,66.000001 9.9999956,36.176954 34.176949,12 63.999996,12 93.823046,12 118,36.176954 118,66.000001 Z m 0,0"
     fill="#f5c211"
     id="path139-3"
     style="fill:url(#linearGradient1640);fill-opacity:1;stroke-width:0.9" /><path
     d="M 118,62.000001 C 118,91.823049 93.823047,116 63.999999,116 34.176951,116 9.9999978,91.823049 9.9999978,62.000001 9.9999978,32.176954 34.176951,7.9999997 63.999999,7.9999997 93.823047,7.9999997 118,32.176954 118,62.000001 Z m 0,0"
     fill="#f5c211"
     id="path139"
     style="fill:#faa81f;fill-opacity:0.996078;stroke-width:0.9" /><path
     d="m 87.480859,40.203126 c -4.380469,-2.046095 -9.063282,-3.53672 -13.957031,-4.383985 -0.601173,1.086329 -1.304298,2.548829 -1.789454,3.7125 -5.203125,-0.783985 -10.357031,-0.783985 -15.465235,0 -0.485156,-1.163671 -1.202344,-2.626171 -1.810546,-3.7125 -4.897267,0.847265 -9.58711,2.341407 -13.964064,4.394532 -8.83125,13.348828 -11.225391,26.363672 -10.030078,39.192188 5.857032,4.373438 11.534766,7.03125 17.117578,8.771485 1.378125,-1.894922 2.60508,-3.912891 3.663282,-6.036329 -2.014453,-0.766405 -3.948047,-1.71211 -5.772657,-2.808985 0.485157,-0.358592 0.959767,-0.734765 1.416797,-1.121483 11.13047,5.206641 23.22422,5.206641 34.221095,0 0.464063,0.386718 0.935157,0.762891 1.416797,1.121483 -1.831641,1.100392 -3.76875,2.046094 -5.783203,2.812501 1.058203,2.119922 2.28164,4.141407 3.663282,6.039844 C 85.99375,86.444142 91.678515,83.78633 97.535548,79.405861 98.938279,64.534767 95.134375,51.639454 87.480859,40.203126 Z M 52.764061,71.516799 c -3.343359,0 -6.082032,-3.11836 -6.082032,-6.918751 0,-3.796875 2.682422,-6.922266 6.082032,-6.922266 3.39961,0 6.138282,3.11836 6.082032,6.922266 0.0036,3.800391 -2.682422,6.918751 -6.082032,6.918751 z m 22.471876,0 c -3.339843,0 -6.082032,-3.11836 -6.082032,-6.918751 0,-3.796875 2.682423,-6.922266 6.082032,-6.922266 3.399609,0 6.141797,3.11836 6.082032,6.922266 0,3.800391 -2.682423,6.918751 -6.082032,6.918751 z m 0,0"
     fill="#ffffff"
     id="path141"
     style="stroke-width:0.9" /></svg>
