<?xml version="1.0" encoding="UTF-8" standalone="no"?>
<svg
   height="128px"
   viewBox="0 0 128 128"
   width="128px"
   version="1.1"
   id="svg143"
   xml:space="preserve"
   xmlns="http://www.w3.org/2000/svg"
   xmlns:svg="http://www.w3.org/2000/svg"><defs
     id="defs147" /><path
     d="m 64,7.9999997 c 30.173273,0 54.63415,24.4608743 54.63415,54.6341463 v 2.731708 C 118.63415,95.539127 94.173273,120 64,120 33.826727,120 9.3658534,95.539127 9.3658534,65.365854 V 62.634146 C 9.3658534,32.460874 33.826727,7.9999997 64,7.9999997 Z m 0,0"
     fill="#e5a50a"
     id="path137"
     style="stroke-width:0.910569;fill:#be7804;fill-opacity:0.99607843" /><path
     d="M 118.63415,62.634146 C 118.63415,92.807419 94.173273,117.26829 64,117.26829 33.826727,117.26829 9.3658534,92.807419 9.3658534,62.634146 9.3658534,32.460874 33.826727,7.9999997 64,7.9999997 c 30.173273,0 54.63415,24.4608743 54.63415,54.6341463 z m 0,0"
     fill="#f5c211"
     id="path139"
     style="stroke-width:0.910569;fill:#fbaf2f;fill-opacity:0.99607843" /><path
     d="m 87.756606,40.581301 c -4.431911,-2.070123 -9.169716,-3.578253 -14.120935,-4.435468 -0.608232,1.099086 -1.319614,2.578761 -1.810468,3.756098 -5.264227,-0.793192 -10.478658,-0.793192 -15.64685,0 C 55.6875,38.724594 54.96189,37.244919 54.346545,36.145833 49.391768,37.003048 44.64685,38.514736 40.218495,40.591972 31.283536,54.097561 28.86128,67.265244 30.07063,80.244411 c 5.925813,4.424797 11.670224,7.113821 17.318597,8.874492 1.394309,-1.917175 2.635672,-3.958842 3.706301,-6.107216 -2.038109,-0.775406 -3.99441,-1.732216 -5.840447,-2.841972 0.490854,-0.362804 0.971037,-0.743394 1.433435,-1.134654 11.261179,5.267785 23.496952,5.267785 34.622968,0 0.469512,0.39126 0.946138,0.77185 1.433435,1.134654 -1.853151,1.113314 -3.813008,2.070122 -5.851118,2.845529 1.07063,2.144817 2.308434,4.190041 3.706301,6.110772 5.651931,-1.760671 11.403455,-4.449695 17.329269,-8.881605 C 99.348575,65.198679 95.5,52.151931 87.756606,40.581301 Z M 52.632114,72.262704 c -3.382622,0 -6.153456,-3.15498 -6.153456,-7.000001 0,-3.841463 2.713923,-7.003557 6.153456,-7.003557 3.439533,0 6.210366,3.15498 6.153456,7.003557 0.0036,3.845021 -2.713923,7.000001 -6.153456,7.000001 z m 22.735772,0 c -3.379064,0 -6.153455,-3.15498 -6.153455,-7.000001 0,-3.841463 2.713923,-7.003557 6.153455,-7.003557 3.439533,0 6.213923,3.15498 6.153456,7.003557 0,3.845021 -2.713923,7.000001 -6.153456,7.000001 z m 0,0"
     fill="#ffffff"
     id="path141"
     style="stroke-width:0.910569" /></svg>
