<?xml version="1.0" encoding="UTF-8" standalone="no"?>
<svg
   height="128px"
   viewBox="0 0 128 128"
   width="128px"
   version="1.1"
   id="svg8"
   xml:space="preserve"
   xmlns:xlink="http://www.w3.org/1999/xlink"
   xmlns="http://www.w3.org/2000/svg"
   xmlns:svg="http://www.w3.org/2000/svg"><defs
     id="defs12"><linearGradient
       id="linearGradient1632"><stop
         style="stop-color:#2834be;stop-opacity:1;"
         offset="0"
         id="stop1628" /><stop
         style="stop-color:#5865f2;stop-opacity:1;"
         offset="0.06861856"
         id="stop1636" /><stop
         style="stop-color:#2835bd;stop-opacity:1;"
         offset="0.15176059"
         id="stop1638" /><stop
         style="stop-color:#2835be;stop-opacity:1;"
         offset="0.85068315"
         id="stop1640" /><stop
         style="stop-color:#5865f2;stop-opacity:1;"
         offset="0.92850268"
         id="stop1642" /><stop
         style="stop-color:#2835be;stop-opacity:1;"
         offset="1"
         id="stop1630" /></linearGradient><linearGradient
       xlink:href="#linearGradient1632"
       id="linearGradient1634"
       x1="60.059408"
       y1="94.415841"
       x2="168.0594"
       y2="94.415841"
       gradientUnits="userSpaceOnUse"
       gradientTransform="translate(-50.059404,-28.415841)" /></defs><path
     d="M 118,66.000002 C 118,95.823049 93.823055,120 64.000005,120 34.176957,120 10.000004,95.823049 10.000004,66.000002 c 0,-29.823047 24.176953,-54.000001 54.000001,-54.000001 C 93.823055,12.000001 118,36.176955 118,66.000002 Z m 0,0"
     fill="#1c71d8"
     id="path4-3"
     style="fill:url(#linearGradient1634);fill-opacity:1;stroke-width:0.9" /><path
     d="M 118,62.000001 C 118,91.823049 93.823051,116 64.000004,116 34.176956,116 10.000002,91.823049 10.000002,62.000001 10.000002,32.176954 34.176956,8 64.000004,8 93.823051,8 118,32.176954 118,62.000001 Z m 0,0"
     fill="#1c71d8"
     id="path4"
     style="fill:#5865f2;fill-opacity:1;stroke-width:0.9" /><path
     d="m 87.480712,41.551368 c -4.380469,-2.046095 -9.063282,-3.53672 -13.957032,-4.383985 -0.601172,1.086329 -1.304297,2.548829 -1.789452,3.7125 -5.203125,-0.783985 -10.357031,-0.783985 -15.465236,0 -0.485155,-1.163671 -1.202343,-2.626171 -1.810546,-3.7125 -4.897267,0.847265 -9.58711,2.341407 -13.964064,4.394532 -8.83125,13.348828 -11.22539,26.363672 -10.030078,39.192188 5.857032,4.373438 11.534766,7.03125 17.117579,8.771486 1.378124,-1.894923 2.605078,-3.912892 3.663281,-6.036329 -2.014453,-0.766405 -3.948047,-1.71211 -5.772657,-2.808985 0.485157,-0.358592 0.959766,-0.734765 1.416797,-1.121483 11.13047,5.206641 23.22422,5.206641 34.221095,0 0.464064,0.386718 0.935156,0.762891 1.416797,1.121483 -1.831641,1.100392 -3.76875,2.046094 -5.783203,2.8125 1.058204,2.119923 2.28164,4.141408 3.663281,6.039845 5.586329,-1.740235 11.271094,-4.398048 17.128125,-8.778517 C 98.938133,65.883009 95.134227,52.987697 87.480712,41.551368 Z M 52.763914,72.86504 c -3.343359,0 -6.082032,-3.118359 -6.082032,-6.91875 0,-3.796875 2.682423,-6.922266 6.082032,-6.922266 3.39961,0 6.138283,3.11836 6.082032,6.922266 0.0036,3.800391 -2.682422,6.91875 -6.082032,6.91875 z m 22.471876,0 c -3.339844,0 -6.082032,-3.118359 -6.082032,-6.91875 0,-3.796875 2.682422,-6.922266 6.082032,-6.922266 3.399609,0 6.141797,3.11836 6.082031,6.922266 0,3.800391 -2.682422,6.91875 -6.082031,6.91875 z m 0,0"
     fill="#ffffff"
     id="path6"
     style="stroke-width:0.9" /></svg>
