<?xml version="1.0" encoding="UTF-8" standalone="no"?>
<svg
   width="128"
   height="128"
   viewBox="0 0 128 128"
   fill="none"
   version="1.1"
   id="svg12"
   xmlns:xlink="http://www.w3.org/1999/xlink"
   xmlns="http://www.w3.org/2000/svg"
   xmlns:svg="http://www.w3.org/2000/svg">
  <defs
     id="defs16">
    <linearGradient
       id="linearGradient872">
      <stop
         style="stop-color:#16171d;stop-opacity:1;"
         offset="0"
         id="stop868" />
      <stop
         style="stop-color:#2b2e3b;stop-opacity:1;"
         offset="0.07425418"
         id="stop876" />
      <stop
         style="stop-color:#16171d;stop-opacity:1;"
         offset="0.14890696"
         id="stop878" />
      <stop
         style="stop-color:#16171d;stop-opacity:1;"
         offset="0.85049069"
         id="stop880" />
      <stop
         style="stop-color:#2b2e3b;stop-opacity:1;"
         offset="0.92827028"
         id="stop882" />
      <stop
         style="stop-color:#16171d;stop-opacity:1;"
         offset="1"
         id="stop870" />
    </linearGradient>
    <linearGradient
       xlink:href="#linearGradient872"
       id="linearGradient874"
       x1="9.982774"
       y1="65.982775"
       x2="118.01723"
       y2="65.982775"
       gradientUnits="userSpaceOnUse" />
  </defs>
  <path
     fill-rule="evenodd"
     clip-rule="evenodd"
     d="m 63.999999,120 c 29.832637,0 54.017231,-24.184591 54.017231,-54.017226 0,-29.832903 -24.184594,-54.017225 -54.017231,-54.017225 -29.832903,0 -54.017225,24.184322 -54.017225,54.017225 C 9.982774,95.815409 34.167096,120 63.999999,120 Z"
     fill="#0dbd8b"
     id="path2-6"
     style="fill:url(#linearGradient874);fill-opacity:1;stroke-width:0.540172" />
  <path
     fill-rule="evenodd"
     clip-rule="evenodd"
     d="m 64.000001,116.03445 c 29.832633,0 54.017229,-24.184592 54.017229,-54.017225 C 118.01723,32.184322 93.832634,8 64.000001,8 34.167098,8 9.982776,32.184322 9.982776,62.017225 c 0,29.832633 24.184322,54.017225 54.017225,54.017225 z"
     fill="#0dbd8b"
     id="path2"
     style="stroke-width:0.540172;fill:#2b2e3b;fill-opacity:1" />
  <g
     class="hero-icons"
     transform="matrix(0.3628808,0,0,0.3628808,28.437685,23.567742)"
     id="g52"
     style="fill:#9feaf9;fill-rule:evenodd;stroke:none;stroke-width:10.5456;fill-opacity:1">
    <path
       id="circle50"
       style="color:#000000;fill:#9feaf9;fill-rule:nonzero;stroke:none;stroke-width:9.75464;-inkscape-stroke:none;fill-opacity:1"
       d="m 97.999997,97.418985 c -7.744505,0 -14.127872,6.383365 -14.127872,14.127865 0,7.74451 6.383367,14.12788 14.127872,14.12788 7.744503,0 14.127873,-6.38337 14.127873,-14.12788 0,-7.7445 -6.38337,-14.127865 -14.127873,-14.127865 z m 0,-93.4246096 c -8.255365,0 -15.052868,6.7975016 -15.052868,15.0528666 0,8.255365 6.797503,15.052867 15.052868,15.052867 8.255363,0 15.052863,-6.797502 15.052863,-15.052867 0,-8.255365 -6.7975,-15.0528666 -15.052863,-15.0528666 z m 0,9.7558186 c 2.983573,0 5.297043,2.313477 5.297043,5.297048 0,2.983572 -2.31347,5.297048 -5.297043,5.297048 -2.983572,0 -5.297049,-2.313476 -5.297049,-5.297048 0,-2.983571 2.313477,-5.297048 5.297049,-5.297048 z m 12.006883,2.106534 -3.95834,8.915735 c 8.5438,3.793707 17.13507,14.208502 23.30196,29.397533 6.16688,15.189032 9.96539,34.902337 9.96539,56.408504 0,17.52653 -2.51377,33.86008 -6.79114,47.5289 l 9.30958,2.91229 c 4.61178,-14.73749 7.23557,-31.98599 7.23557,-50.44119 0,-22.645692 -3.93784,-43.46984 -10.68082,-60.077776 C 131.64611,33.892789 122.1559,21.251262 110.00688,15.856728 Z M 64.944031,162.71432 55.760915,166.0042 c 4.36487,12.18828 10.138054,22.42359 17.195534,29.84015 7.05748,7.41656 15.653872,12.07374 25.005608,12.07374 13.554063,0 25.207203,-9.53672 33.724423,-23.70484 l -8.3593,-5.02605 c -7.50506,12.48443 -16.45029,18.97687 -25.365123,18.97687 -6.150856,0 -12.164691,-2.97499 -17.939866,-9.04401 -5.775176,-6.06901 -11.055775,-15.1738 -15.07816,-26.40574 z M 17.525332,143.66879 c -8.2553648,0 -15.0528669,6.7975 -15.0528669,15.05287 0,8.25537 6.7975021,15.05287 15.0528669,15.05287 8.255365,0 15.052868,-6.7975 15.052867,-15.05287 0,-8.25537 -6.797502,-15.05287 -15.052867,-15.05287 z m 0,9.75582 c 2.983572,0 5.297048,2.31347 5.297048,5.29705 0,2.98357 -2.313476,5.29704 -5.297048,5.29704 -2.983572,0 -5.297048,-2.31347 -5.297048,-5.29704 0,-2.98358 2.313476,-5.29705 5.297048,-5.29705 z M 120.91713,47.100641 C 105.51043,50.401598 88.819079,56.843457 72.409039,66.317797 52.478221,77.82486 36.209897,91.91333 25.187263,106.29859 14.164629,120.68385 8.1163328,135.47483 10.071164,148.79421 l 9.651034,-1.4164 c -1.357189,-9.2473 3.142594,-22.00985 13.208295,-35.14625 C 42.996194,99.095174 58.357237,85.693644 77.285142,74.765613 92.869432,65.76802 108.69073,59.695204 122.96044,56.637857 Z m 23.56754,-2.550966 -0.12647,9.754012 c 14.73793,0.191669 24.96159,4.703552 29.45353,12.483835 3.07124,5.319535 3.50644,12.002736 1.14902,20.024721 -2.35741,8.021986 -7.58293,17.132597 -15.27508,26.219667 l 7.44514,6.30153 c 8.34829,-9.8622 14.3066,-19.965417 17.18831,-29.771501 2.8817,-9.806085 2.60992,-19.564527 -2.05956,-27.652326 -6.82955,-11.829101 -21.07141,-17.142707 -37.77489,-17.359938 z m 33.98999,99.119115 c -8.25537,0 -15.05287,6.7975 -15.05287,15.05287 0,8.25537 6.7975,15.05287 15.05287,15.05287 8.25537,0 15.05287,-6.7975 15.05287,-15.05287 0,-8.25537 -6.7975,-15.05287 -15.05287,-15.05287 z m 0,9.75582 c 2.98357,0 5.29704,2.31347 5.29704,5.29705 0,2.98357 -2.31347,5.29704 -5.29704,5.29704 -2.98358,0 -5.29705,-2.31347 -5.29705,-5.29704 0,-2.98358 2.31347,-5.29705 5.29705,-5.29705 z m -139.502786,-37.32865 -7.215692,6.5653 c 10.522212,11.56313 24.33069,22.66474 40.573365,32.04244 19.359449,11.17719 39.101243,18.14273 56.683103,20.69137 17.58187,2.54864 33.16281,0.84798 44.0403,-6.56891 l -5.49577,-8.05939 c -7.73073,5.27125 -21.04599,7.30725 -37.14438,4.97366 -16.09839,-2.3336 -34.820058,-8.86979 -53.205344,-19.48454 C 61.782112,137.35006 48.722923,126.81163 38.971874,116.09596 Z M 52.758291,44.399724 c -5.779672,-0.02097 -11.210318,0.547975 -16.191046,1.748821 -9.961456,2.401694 -18.302942,7.520892 -22.98218,15.62557 -6.943239,12.026044 -4.2299984,27.300922 4.267268,42.121655 l 8.462269,-4.850814 c -7.518238,-13.113132 -8.848451,-24.484928 -4.28172,-32.394738 3.077644,-5.330636 8.666957,-9.053028 16.819754,-11.018656 8.152797,-1.965628 18.689651,-1.982946 30.439961,0.157177 l 1.748821,-9.596835 C 64.666511,45.030822 58.537963,44.420691 52.758291,44.399724 Z" />
  </g>
</svg>
