<?xml version="1.0" encoding="UTF-8" standalone="no"?>
<!-- Generator: Adobe Illustrator 26.0.2, SVG Export Plug-In . SVG Version: 6.00 Build 0)  -->

<svg
   version="1.0"
   id="Layer_1"
   x="0px"
   y="0px"
   viewBox="0 0 128 128"
   xml:space="preserve"
   width="128"
   height="128"
   xmlns:xlink="http://www.w3.org/1999/xlink"
   xmlns="http://www.w3.org/2000/svg"
   xmlns:svg="http://www.w3.org/2000/svg"><defs
   id="defs76"><linearGradient
     id="linearGradient1097"><stop
       style="stop-color:#022068;stop-opacity:1;"
       offset="0"
       id="stop1093" /><stop
       style="stop-color:#2078d8;stop-opacity:1;"
       offset="0.05234205"
       id="stop1101" /><stop
       style="stop-color:#022068;stop-opacity:1;"
       offset="0.15255697"
       id="stop1103" /><stop
       style="stop-color:#022068;stop-opacity:1;"
       offset="0.85064137"
       id="stop1105" /><stop
       style="stop-color:#2078d8;stop-opacity:1;"
       offset="0.94848526"
       id="stop1107" /><stop
       style="stop-color:#022068;stop-opacity:1;"
       offset="1"
       id="stop1095" /></linearGradient><linearGradient
     xlink:href="#linearGradient1097"
     id="linearGradient1099"
     x1="9.9999966"
     y1="67.999999"
     x2="118"
     y2="67.999999"
     gradientUnits="userSpaceOnUse"
     gradientTransform="translate(0,-1.9999995)" /></defs>
<style
   type="text/css"
   id="style2">
	.st0{fill:url(#SVGID_1_);}
	.st1{fill:url(#SVGID_00000062171159965967627490000013605884846004172698_);}
	.st2{fill:url(#SVGID-2_00000085966066984138215510000013018799571900533434_);}
	.st3{clip-path:url(#SVGID_00000023257072852279316340000004281102206337855156_);}
	.st4{fill:url(#SVGID_00000177446033621631838710000001370584907163434138_);}
	.st5{clip-path:url(#SVGID_00000136385553608229244970000014654043435100792964_);}
	.st6{fill:url(#SVGID_00000126306410582640054500000000964390405037519506_);}
	.st7{fill:url(#SVGID_00000109020757643166282930000006684795936706346369_);}
</style>
<radialGradient
   id="SVGID_1_"
   cx="514.5"
   cy="477.5"
   r="496.5"
   gradientTransform="matrix(1,0,0,-1,-18,974)"
   gradientUnits="userSpaceOnUse">
	<stop
   offset="0.9134"
   style="stop-color:#000000"
   id="stop4" />
	<stop
   offset="1"
   style="stop-color:#000000;stop-opacity:0"
   id="stop6" />
</radialGradient>

<radialGradient
   id="SVGID_00000163033830155146975860000008434547654242457221_"
   cx="512.05908"
   cy="481.87881"
   r="486.27271"
   gradientTransform="matrix(0.11104257,0,0,-0.11104257,7.1350999,117.51141)"
   gradientUnits="userSpaceOnUse">
	<stop
   offset="0.99"
   style="stop-color:#FFFFFF"
   id="stop11" />
	<stop
   offset="0.9951"
   style="stop-color:#FDFDFD"
   id="stop13" />
	<stop
   offset="0.9969"
   style="stop-color:#F6F6F6"
   id="stop15" />
	<stop
   offset="0.9982"
   style="stop-color:#EBEBEB"
   id="stop17" />
	<stop
   offset="0.9992"
   style="stop-color:#DADADA"
   id="stop19" />
	<stop
   offset="1"
   style="stop-color:#C7C7C7"
   id="stop21" />
</radialGradient>

<radialGradient
   id="SVGID-2_00000052072577768947982130000002178866272689676469_"
   cx="512.06152"
   cy="481.87881"
   r="444.12241"
   gradientTransform="matrix(1,0,0,-1,-18,974)"
   gradientUnits="userSpaceOnUse">
	<stop
   offset="0.99"
   style="stop-color:#000000;stop-opacity:0.5"
   id="stop26" />
	<stop
   offset="1"
   style="stop-color:#000000;stop-opacity:0"
   id="stop28" />
</radialGradient>



<radialGradient
   id="SVGID_00000092427181212153090570000016417065628950216588_"
   cx="578.89008"
   cy="482.3703"
   r="353.94269"
   gradientTransform="matrix(0.11104257,0,0,-0.1218248,7.1350999,118.45626)"
   gradientUnits="userSpaceOnUse">
	<stop
   offset="0"
   style="stop-color:#C2C0C2"
   id="stop66" />
	<stop
   offset="1"
   style="stop-color:#EBEBEB"
   id="stop68" />
</radialGradient>

		
	
		
	
<path
   style="fill:url(#linearGradient1099);fill-opacity:1;stroke:none;stroke-width:0.111043"
   d="M 63.999999,11.999998 C 93.826032,11.999998 118,36.173966 118,66.000002 118,95.826032 93.814932,120 63.999999,120 34.185069,120 9.9999966,95.826032 9.9999966,66.000002 c 0,-29.826037 24.1739684,-54.000005 54.0000024,-54.000005"
   id="path24-2" /><path
   style="fill:#0d47a1;fill-opacity:1;stroke-width:0.111043"
   d="M 64.000001,7.9999996 C 93.826035,7.9999996 118,32.173967 118,62.000001 118,91.826036 93.814931,116 64.000001,116 34.185071,116 9.9999991,91.826036 9.9999991,62.000001 9.9999991,32.173967 34.173967,7.9999996 64.000001,7.9999996"
   id="path24" /><path
   id="enpass_logo_animate"
   class="a"
   d="m 64.06031,33.563536 c 7.177012,0 14.354026,-0.0212 21.532806,0.01058 a 10.247827,10.247827 0 0 1 7.903195,3.487796 9.9262576,9.9262576 0 0 1 2.50365,6.12926 25.767986,25.767986 0 0 1 -0.742085,6.184035 c -0.952339,5.477288 -1.943553,10.943975 -2.917097,16.414195 -0.83926,4.710466 -1.643185,9.427999 -2.52662,14.134933 A 13.560703,13.560703 0 0 1 78.626361,90.318812 16.868278,16.868278 0 0 1 76.645702,90.43719 q -12.583625,0.0124 -25.167251,0 A 13.509464,13.509464 0 0 1 38.202213,79.281189 Q 35.682662,65.181592 33.120705,51.090828 C 32.785,49.230319 32.413957,47.380409 32.150695,45.505764 a 10.12238,10.12238 0 0 1 8.127588,-11.693125 13.341612,13.341612 0 0 1 2.590226,-0.236761 q 10.595901,-0.03004 21.191801,-0.0124 z m -5.694611,38.871069 v 0 c 0,1.874647 0,3.749292 0,5.625704 a 3.1202869,3.1202869 0 0 0 3.254567,3.25457 c 1.553077,0 3.106153,0 4.65923,0 a 3.1361887,3.1361887 0 0 0 3.42242,-3.425954 c 0,-3.673317 0,-7.348398 -0.0176,-11.021716 a 1.0265497,1.0265497 0 0 1 0.581302,-1.02655 11.7744,11.7744 0 0 0 5.37481,-13.163157 12.055331,12.055331 0 0 0 -14.642027,-8.443858 11.226672,11.226672 0 0 0 -8.092251,6.668156 12.495283,12.495283 0 0 0 5.035572,15.027202 0.7721208,0.7721208 0 0 1 0.436416,0.765054 c -0.02297,1.918816 -0.0124,3.830566 -0.0124,5.744084 z"
   style="fill:#ffffff;stroke-width:1.76687" /></svg>
