<?xml version="1.0" encoding="UTF-8"?>
<svg height="128px" viewBox="0 0 128 128" width="128px" xmlns="http://www.w3.org/2000/svg" xmlns:xlink="http://www.w3.org/1999/xlink">
    <radialGradient id="a" cx="49.273396" cy="254.630676" gradientTransform="matrix(0.468742 0 0 0.480462 4.00102 4.002001)" gradientUnits="userSpaceOnUse" r="278.936798">
        <stop offset="0" stop-color="#165caf"/>
        <stop offset="0.609754" stop-color="#75348c"/>
        <stop offset="0.934823" stop-color="#c74e42"/>
        <stop offset="1" stop-color="#ba4e00"/>
    </radialGradient>
    <radialGradient id="b" cx="27.09753018783" cy="123.35808132959" gradientUnits="userSpaceOnUse" r="130.74939256812">
        <stop offset="0" stop-color="#1c71d8"/>
        <stop offset="0.609754" stop-color="#9141ac"/>
        <stop offset="0.934823" stop-color="#f66151"/>
        <stop offset="1" stop-color="#e66100"/>
    </radialGradient>
    <path d="m 64 4.003906 c -33.800781 0 -60 25.375 -60 59.652344 c 0 17.929688 7.167969 33.421875 18.84375 44.121094 c 0.980469 0.902344 1.570312 2.160156 1.613281 3.507812 l 0.324219 10.941406 c 0.105469 3.488282 3.621094 5.757813 6.738281 4.347657 l 11.90625 -5.386719 c 1.011719 -0.457031 2.140625 -0.542969 3.207031 -0.242188 c 5.472657 1.542969 11.296876 2.363282 17.367188 2.363282 c 33.800781 0 60 -25.375 60 -59.652344 s -26.199219 -59.652344 -60 -59.652344 z m 0 0" fill="url(#a)"/>
    <path d="m 27.972656 81.101562 l 17.621094 -28.660156 c 2.804688 -4.558594 8.808594 -5.695312 13.015625 -2.460937 l 14.015625 10.773437 c 1.289062 0.992188 3.058594 0.984375 4.339844 -0.011718 l 18.929687 -14.726563 c 2.527344 -1.964844 5.824219 1.132813 4.136719 3.886719 l -17.625 28.660156 c -2.804688 4.558594 -8.808594 5.695312 -13.015625 2.460938 l -14.019531 -10.777344 c -1.285156 -0.988282 -3.054688 -0.984375 -4.335938 0.011718 l -18.929687 14.730469 c -2.527344 1.964844 -5.824219 -1.136719 -4.132813 -3.886719 z m 0 0" fill="#cfcfcf"/>
    <path d="m 64 4.003906 c -33.800781 0 -60 24.757813 -60 58.195313 c 0 17.492187 7.167969 32.609375 18.84375 43.046875 c 0.980469 0.878906 1.570312 2.109375 1.613281 3.421875 l 0.324219 10.671875 c 0.105469 3.40625 3.621094 5.621094 6.738281 4.246094 l 11.90625 -5.257813 c 1.011719 -0.445313 2.140625 -0.527344 3.207031 -0.234375 c 5.472657 1.503906 11.296876 2.304688 17.367188 2.304688 c 33.800781 0 60 -24.757813 60 -58.199219 c 0 -33.4375 -26.199219 -58.195313 -60 -58.195313 z m 0 0" fill="url(#b)"/>
    <path d="m 27.972656 79.222656 l 17.621094 -27.964844 c 2.804688 -4.445312 8.808594 -5.554687 13.015625 -2.398437 l 14.015625 10.511719 c 1.289062 0.964844 3.058594 0.960937 4.339844 -0.011719 l 18.929687 -14.367187 c 2.527344 -1.917969 5.824219 1.105468 4.136719 3.789062 l -17.625 27.960938 c -2.804688 4.449218 -8.808594 5.558593 -13.015625 2.402343 l -14.019531 -10.515625 c -1.285156 -0.964844 -3.054688 -0.957031 -4.335938 0.015625 l -18.929687 14.367188 c -2.527344 1.917969 -5.824219 -1.105469 -4.132813 -3.789063 z m 0 0" fill="#ffffff"/>
</svg>
