<?xml version="1.0" encoding="UTF-8" standalone="no"?>
<svg
   height="128px"
   viewBox="0 0 128 128"
   width="128px"
   version="1.1"
   id="svg292"
   xmlns="http://www.w3.org/2000/svg"
   xmlns:svg="http://www.w3.org/2000/svg">
  <defs
     id="defs296" />
  <radialGradient
     id="a"
     cx="49.273396"
     cy="254.630676"
     gradientTransform="matrix(0.42683986,0,0,0.43751218,9.3644944,7.9982642)"
     gradientUnits="userSpaceOnUse"
     r="278.936798">
    <stop
       offset="0"
       stop-color="#165caf"
       id="stop266" />
    <stop
       offset="0.609754"
       stop-color="#75348c"
       id="stop268" />
    <stop
       offset="0.934823"
       stop-color="#c74e42"
       id="stop270" />
    <stop
       offset="1"
       stop-color="#ba4e00"
       id="stop272" />
  </radialGradient>
  <radialGradient
     id="b"
     cx="27.09753018783"
     cy="123.35808132959"
     gradientUnits="userSpaceOnUse"
     r="130.74939256812"
     gradientTransform="matrix(0.91060724,0,0,0.91060724,5.7211366,4.3540131)">
    <stop
       offset="0"
       stop-color="#1c71d8"
       id="stop275" />
    <stop
       offset="0.609754"
       stop-color="#9141ac"
       id="stop277" />
    <stop
       offset="0.934823"
       stop-color="#f66151"
       id="stop279" />
    <stop
       offset="1"
       stop-color="#e66100"
       id="stop281" />
  </radialGradient>
  <path
     d="m 64,7.9999989 c -30.779236,0 -54.6364344,23.1066591 -54.6364344,54.3198561 0,16.326904 6.5272044,30.434202 17.1592554,40.176985 0.892822,0.82169 1.429937,1.96706 1.469065,3.19425 l 0.295236,9.96331 c 0.09604,3.17646 3.297395,5.24312 6.135928,3.95901 l 10.841917,-4.90518 c 0.921279,-0.41618 1.949269,-0.49443 2.920346,-0.22054 4.983441,1.40504 10.287017,2.15202 15.814687,2.15202 30.779236,0 54.63643,-23.106657 54.63643,-54.319855 C 118.63643,31.106658 94.779236,7.9999989 64,7.9999989 Z m 0,0"
     fill="url(#a)"
     id="path284"
     style="fill:url(#a);stroke-width:0.910607" />
  <path
     d="M 31.19324,78.205683 47.239135,52.107537 c 2.55397,-4.151089 8.02117,-5.186192 11.852123,-2.240947 l 12.762729,9.81037 c 1.17383,0.903493 2.785178,0.896379 3.951894,-0.01067 l 17.23751,-13.410113 c 2.301418,-1.789201 5.303576,1.031548 3.766926,3.539275 L 80.760864,75.893594 c -2.553969,4.151089 -8.021169,5.186193 -11.852122,2.240948 L 56.142456,68.320615 c -1.170273,-0.899937 -2.781621,-0.896379 -3.948337,0.01067 l -17.23751,13.41367 c -2.301418,1.789201 -5.303576,-1.035104 -3.763369,-3.539274 z m 0,0"
     fill="#cfcfcf"
     id="path286"
     style="stroke-width:0.910607" />
  <path
     d="m 64,7.9999989 c -30.779236,0 -54.6364344,22.5446441 -54.6364344,52.9930731 0,15.928512 6.5272044,29.694333 17.1592554,39.198788 0.892822,0.80035 1.429937,1.92082 1.469065,3.11599 l 0.295236,9.71789 c 0.09604,3.10175 3.297395,5.11861 6.135928,3.86652 l 10.841917,-4.7878 c 0.921279,-0.40551 1.949269,-0.4802 2.920346,-0.21342 4.983441,1.36947 10.287017,2.09866 15.814687,2.09866 30.779236,0 54.63643,-22.544641 54.63643,-52.996628 C 118.63643,30.544643 94.779236,7.9999989 64,7.9999989 Z m 0,0"
     fill="url(#b)"
     id="path288"
     style="fill:url(#b);stroke-width:0.910607" />
  <path
     d="M 31.19324,76.494737 47.239135,51.029748 c 2.55397,-4.047933 8.02117,-5.058138 11.852123,-2.184034 l 12.762729,9.572047 c 1.17383,0.878594 2.785178,0.875036 3.951894,-0.01067 l 17.23751,-13.082864 c 2.301418,-1.746516 5.303576,1.006647 3.766926,3.450348 l -16.049453,25.46143 c -2.553969,4.05149 -8.021169,5.061695 -11.852122,2.187591 L 56.142456,66.847992 c -1.170273,-0.878594 -2.781621,-0.87148 -3.948337,0.01423 l -17.23751,13.08286 c -2.301418,1.746517 -5.303576,-1.006648 -3.763369,-3.450348 z m 0,0"
     fill="#ffffff"
     id="path290"
     style="stroke-width:0.910607" />
</svg>
