<?xml version="1.0" encoding="UTF-8" standalone="no"?>
<svg
   width="128"
   height="128"
   version="1"
   id="svg23"
   xmlns="http://www.w3.org/2000/svg"
   xmlns:svg="http://www.w3.org/2000/svg">
  <defs
     id="defs27">
    <linearGradient
       id="l"
       x1="406.61136"
       y1="68.311989"
       x2="104.09252"
       y2="409.86551"
       gradientTransform="matrix(0.2365854,0,0,0.24447109,2.5314451,2.9996837)"
       gradientUnits="userSpaceOnUse">
      <stop
         offset=".17"
         stop-color="#fff44f"
         stop-opacity=".8"
         id="stop637" />
      <stop
         offset=".6"
         stop-color="#fff44f"
         stop-opacity="0"
         id="stop639" />
    </linearGradient>
    <radialGradient
       id="k"
       cx="343.03802"
       cy="132.0125"
       r="528.89331"
       gradientTransform="matrix(0.25426618,0,0,0.22747143,2.5314451,2.9996837)"
       fx="343.03802"
       fy="132.0125"
       gradientUnits="userSpaceOnUse">
      <stop
         offset=".09"
         stop-color="#fff44f"
         id="stop623" />
      <stop
         offset=".63"
         stop-color="#ff980e"
         id="stop625" />
    </radialGradient>
    <radialGradient
       id="j"
       cx="239.79736"
       cy="99.006172"
       r="461.1138"
       gradientTransform="matrix(0.24263659,0,0,0.23837416,2.5314451,2.9996837)"
       fx="239.79736"
       fy="99.006172"
       gradientUnits="userSpaceOnUse">
      <stop
         offset=".14"
         stop-color="#fff44f"
         id="stop614" />
      <stop
         offset=".48"
         stop-color="#ff980e"
         id="stop616" />
      <stop
         offset=".66"
         stop-color="#ff3647"
         id="stop618" />
      <stop
         offset=".9"
         stop-color="#e31587"
         id="stop620" />
    </radialGradient>
    <radialGradient
       id="i"
       cx="475.58807"
       cy="-41.588268"
       r="779.90863"
       gradientTransform="matrix(0.16550545,0,0,0.34946456,2.5314451,2.9996837)"
       fx="475.58807"
       fy="-41.588268"
       gradientUnits="userSpaceOnUse">
      <stop
         offset="0"
         stop-color="#fff44f"
         id="stop605" />
      <stop
         offset=".3"
         stop-color="#ff980e"
         id="stop607" />
      <stop
         offset=".57"
         stop-color="#ff3647"
         id="stop609" />
      <stop
         offset=".74"
         stop-color="#e31587"
         id="stop611" />
    </radialGradient>
    <radialGradient
       id="h"
       cx="362.07501"
       cy="-81.709213"
       r="742.3869"
       gradientTransform="matrix(0.2624893,0,0,0.22034532,2.5314451,2.9996837)"
       fx="362.07501"
       fy="-81.709213"
       gradientUnits="userSpaceOnUse">
      <stop
         offset=".11"
         stop-color="#fff44f"
         id="stop596" />
      <stop
         offset=".46"
         stop-color="#ff980e"
         id="stop598" />
      <stop
         offset=".72"
         stop-color="#ff3647"
         id="stop600" />
      <stop
         offset=".9"
         stop-color="#e31587"
         id="stop602" />
    </radialGradient>
    <radialGradient
       id="g"
       cx="240.61284"
       cy="36.806652"
       r="170.02094"
       gradientTransform="matrix(0.24006969,0,0,0.24092293,2.5314451,2.9996837)"
       fx="240.61284"
       fy="36.806652"
       gradientUnits="userSpaceOnUse">
      <stop
         offset=".1"
         stop-color="#ffe226"
         id="stop552" />
      <stop
         offset=".79"
         stop-color="#ff7139"
         id="stop554" />
    </radialGradient>
    <radialGradient
       id="f"
       cx="271.62091"
       cy="200.9019"
       r="131.86298"
       gradientTransform="matrix(0.22972069,0,0,0.25177658,2.5314451,2.9996837)"
       fx="271.62091"
       fy="200.9019"
       gradientUnits="userSpaceOnUse">
      <stop
         offset=".21"
         stop-color="#9059ff"
         stop-opacity="0"
         id="stop580" />
      <stop
         offset=".97"
         stop-color="#6e008b"
         stop-opacity=".6"
         id="stop582" />
    </radialGradient>
    <radialGradient
       id="e"
       cx="206.27052"
       cy="373.24011"
       r="223.4966"
       gradientTransform="matrix(0.22972069,0,0,0.25177658,2.5314451,2.9996837)"
       fx="206.27052"
       fy="373.24011"
       gradientUnits="userSpaceOnUse">
      <stop
         offset=".35"
         stop-color="#3a8ee6"
         id="stop573" />
      <stop
         offset=".67"
         stop-color="#9059ff"
         id="stop575" />
      <stop
         offset="1"
         stop-color="#c139e6"
         id="stop577" />
    </radialGradient>
    <radialGradient
       id="d"
       cx="395.44366"
       cy="-17.973478"
       r="210.2099"
       gradientTransform="matrix(0.1845741,0,0,0.3133608,2.5314451,2.9996837)"
       fx="395.44366"
       fy="-17.973478"
       gradientUnits="userSpaceOnUse">
      <stop
         offset=".13"
         stop-color="#fff44f"
         id="stop568" />
      <stop
         offset=".53"
         stop-color="#ff980e"
         id="stop570" />
    </radialGradient>
    <radialGradient
       id="c"
       cx="226.56297"
       cy="290.17783"
       r="554.14581"
       gradientTransform="matrix(0.2666468,0,0,0.21690975,2.5314451,2.9996837)"
       fx="226.56297"
       fy="290.17783"
       gradientUnits="userSpaceOnUse">
      <stop
         offset=".3"
         stop-color="#960e18"
         id="stop557" />
      <stop
         offset=".35"
         stop-color="#b11927"
         stop-opacity=".74"
         id="stop559" />
      <stop
         offset=".43"
         stop-color="#db293d"
         stop-opacity=".34"
         id="stop561" />
      <stop
         offset=".5"
         stop-color="#f5334b"
         stop-opacity=".09"
         id="stop563" />
      <stop
         offset=".53"
         stop-color="#ff3750"
         stop-opacity="0"
         id="stop565" />
    </radialGradient>
    <radialGradient
       id="b"
       cx="392.80673"
       cy="61.159756"
       r="554.14581"
       gradientTransform="matrix(0.2666468,0,0,0.21690975,2.5314451,2.9996837)"
       fx="392.80673"
       fy="61.159756"
       gradientUnits="userSpaceOnUse">
      <stop
         offset=".13"
         stop-color="#ffbd4f"
         id="stop585" />
      <stop
         offset=".28"
         stop-color="#ff980e"
         id="stop587" />
      <stop
         offset=".47"
         stop-color="#ff3750"
         id="stop589" />
      <stop
         offset=".78"
         stop-color="#eb0878"
         id="stop591" />
      <stop
         offset=".86"
         stop-color="#e50080"
         id="stop593" />
    </radialGradient>
    <linearGradient
       id="a"
       x1="441.98419"
       y1="75.63131"
       x2="62.126282"
       y2="454.26938"
       gradientTransform="matrix(0.23658638,0,0,0.24447007,2.5314451,2.9996837)"
       gradientUnits="userSpaceOnUse">
      <stop
         offset=".05"
         stop-color="#fff44f"
         id="stop628" />
      <stop
         offset=".37"
         stop-color="#ff980e"
         id="stop630" />
      <stop
         offset=".53"
         stop-color="#ff3647"
         id="stop632" />
      <stop
         offset=".7"
         stop-color="#e31587"
         id="stop634" />
    </linearGradient>
    <linearGradient
       id="a-2"
       x1="441.98419"
       y1="75.63131"
       x2="62.126282"
       y2="454.26938"
       gradientTransform="matrix(0.23658638,0,0,0.24447007,2.3344801,5.7140357)"
       gradientUnits="userSpaceOnUse">
      <stop
         offset="0.05"
         stop-color="#fff44f"
         id="stop628-9"
         style="stop-color:#e5d700;stop-opacity:1;" />
      <stop
         offset="0.37"
         stop-color="#ff980e"
         id="stop630-1"
         style="stop-color:#a86000;stop-opacity:1;" />
      <stop
         offset="0.52999997"
         stop-color="#ff3647"
         id="stop632-2"
         style="stop-color:#d10012;stop-opacity:1;" />
      <stop
         offset="0.69999999"
         stop-color="#e31587"
         id="stop634-7"
         style="stop-color:#870d51;stop-opacity:1;" />
    </linearGradient>
    <radialGradient
       id="h-8"
       cx="362.07501"
       cy="-81.709213"
       r="742.3869"
       gradientTransform="matrix(0.2624893,0,0,0.22034532,2.5314435,4.999683)"
       fx="362.07501"
       fy="-81.709213"
       gradientUnits="userSpaceOnUse">
      <stop
         offset="0.11"
         stop-color="#fff44f"
         id="stop596-7"
         style="stop-color:#e5d700;stop-opacity:1;" />
      <stop
         offset="0.46000001"
         stop-color="#ff980e"
         id="stop598-9"
         style="stop-color:#a86000;stop-opacity:1;" />
      <stop
         offset="0.72000003"
         stop-color="#ff3647"
         id="stop600-2"
         style="stop-color:#d10012;stop-opacity:1;" />
      <stop
         offset="0.89999998"
         stop-color="#e31587"
         id="stop602-0"
         style="stop-color:#870d51;stop-opacity:1;" />
    </radialGradient>
    <radialGradient
       id="j-3"
       cx="239.79736"
       cy="99.006172"
       r="461.1138"
       gradientTransform="matrix(0.24263659,0,0,0.23837416,2.5314412,4.9996843)"
       fx="239.79736"
       fy="99.006172"
       gradientUnits="userSpaceOnUse">
      <stop
         offset="0.14"
         stop-color="#fff44f"
         id="stop614-7"
         style="stop-color:#e5d700;stop-opacity:1;" />
      <stop
         offset="0.47999999"
         stop-color="#ff980e"
         id="stop616-5"
         style="stop-color:#a86000;stop-opacity:1;" />
      <stop
         offset="0.66000003"
         stop-color="#ff3647"
         id="stop618-9"
         style="stop-color:#d10012;stop-opacity:1;" />
      <stop
         offset="0.89999998"
         stop-color="#e31587"
         id="stop620-2"
         style="stop-color:#870d51;stop-opacity:1;" />
    </radialGradient>
  </defs>
  <path
     d="m 117.6595,43.006903 c -2.51198,-6.04222 -7.59968,-12.565432 -11.5948,-14.627203 3.2515,6.374345 5.13339,12.768651 5.85247,17.540811 0,0.0094 0.003,0.0327 0.0113,0.0962 C 105.393,29.727199 94.311186,23.158773 85.262045,8.8569622 84.805103,8.1337907 84.346958,7.4086951 83.900598,6.6443998 a 17.728398,17.728398 0 0 1 -0.636353,-1.195746 10.509672,10.509672 0 0 1 -0.864101,-2.286154 0.15055045,0.15055045 0 0 0 -0.131311,-0.1548803 0.19672567,0.19672567 0 0 0 -0.108462,0 c -0.0082,0.00287 -0.0202,0.012271 -0.02886,0.015629 -0.01275,0.00508 -0.02886,0.01659 -0.04233,0.024045 0.0065,-0.00862 0.01996,-0.028143 0.02405,-0.032704 C 67.594497,11.517563 62.669136,27.247199 62.216525,35.116947 a 28.919395,28.919395 0 0 0 -15.906887,6.12976 17.160587,17.160587 0 0 0 -1.49708,-1.130331 26.776336,26.776336 0 0 1 -0.162096,-14.124807 c -5.937366,2.703416 -10.555367,6.976788 -13.912695,10.750169 h -0.02673 C 28.419836,33.839674 28.581446,24.266492 28.712042,22.26773 c -0.02739,-0.123855 -1.709209,0.873001 -1.929501,1.023311 a 42.104343,42.104343 0 0 0 -5.648287,4.838778 50.619102,50.619102 0 0 0 -5.397212,6.472467 c 0,0.0029 -0.0022,0.0063 -0.0022,0.0092 0,-0.0031 0.0011,-0.0063 0.0022,-0.0092 A 48.781713,48.781713 0 0 0 7.9817728,52.111592 c -0.027612,0.125299 -0.051028,0.255166 -0.077867,0.381426 -0.1086825,0.508889 -0.5002267,3.054299 -0.5687718,3.607439 -0.00552,0.04257 -0.00773,0.08346 -0.012702,0.12602 A 55.08944,55.08944 0 0 0 6.3844936,64.2006 c 0,0.09861 -0.00552,0.196245 -0.00552,0.295089 9.609e-4,31.91694 25.8783294,57.789971 57.7979024,57.789971 28.586555,0 52.322294,-20.75191 56.969154,-48.010203 0.0979,-0.739766 0.17629,-1.48338 0.26263,-2.229638 1.14884,-9.910838 -0.12747,-20.327919 -3.74861,-29.038922 z m -66.616176,45.23584 c 0.270314,0.129147 0.524282,0.270318 0.801809,0.394173 0.0116,0.008 0.02739,0.01683 0.03921,0.02406 A 30.348421,30.348421 0 0 1 51.043335,88.242743 Z M 64.283348,53.387668 Z m 47.649692,-7.35677 -0.008,-0.05603 c 0.003,0.02044 0.007,0.04185 0.01,0.06229 z"
     fill="url(#a)"
     id="path644"
     style="fill:url(#a);stroke-width:0.240496" />
  <path
     d="M 117.46253,45.721258 C 115.07522,39.978917 109.99088,31.441194 106.0647,28.3797 l -0.19697,2.714352 c 3.25151,6.374339 5.13339,12.768647 5.85248,17.540814 0,0.0088 0.003,0.03269 0.0113,0.0962 C 105.19603,32.44155 94.114217,25.873129 85.065085,11.571314 84.608144,10.848143 84.149999,10.123047 83.703638,9.3587517 83.476364,8.9684216 83.264091,8.5695486 83.067282,8.1630057 82.691319,7.4371526 82.401325,6.6699148 82.203179,5.8768518 c 0.0029,-0.077818 -0.05407,-0.1449829 -0.131313,-0.1548803 -0.03544,-0.010163 -0.07302,-0.010163 -0.108462,0 -0.0077,0.00287 -0.02021,0.012271 -0.02883,0.015629 -0.0127,0.00508 -0.02883,0.01659 -0.0423,0.024045 0.0066,-0.00862 0.01999,-0.028143 0.02408,-0.032704 C 67.39762,14.231915 62.47226,29.961545 62.019648,37.831296 56.221897,38.22987 50.678719,40.365947 46.112761,43.961055 45.634717,43.557264 45.134944,43.179924 44.615682,42.830724 43.298324,38.22184 43.242344,33.343822 44.453586,28.70592 38.516219,31.409331 33.898218,35.682707 30.54089,39.456088 h -0.02673 c -2.2912,-2.902066 -2.12959,-12.475248 -1.998995,-14.474001 -0.02739,-0.123858 -1.709209,0.872994 -1.9295,1.023305 -2.021813,1.443152 -3.911948,3.062394 -5.648287,4.838779 -1.975854,2.003714 -3.78118,4.168703 -5.397213,6.472462 0,0.0033 -0.0022,0.0066 -0.0022,0.0088 0,-0.0033 0.0011,-0.0066 0.0022,-0.0088 -3.716539,5.266723 -6.3524085,11.217809 -7.7552688,17.509313 -0.027612,0.125295 -0.051028,0.255161 -0.077867,0.381427 -0.1086825,0.508886 -0.5002267,3.054299 -0.5687717,3.607431 -0.00552,0.04252 -0.00773,0.0835 -0.012702,0.126023 -0.5061881,2.631689 -0.8196666,5.296808 -0.9379385,7.974125 0,0.09863 -0.00552,0.196247 -0.00552,0.295089 C 6.1830554,99.126975 32.060424,125 63.979998,125 c 28.586554,0 52.322292,-20.7519 56.969152,-48.010192 0.0979,-0.739758 0.17629,-1.483372 0.26263,-2.229636 1.14884,-9.910839 -0.12747,-20.327923 -3.74861,-29.038925 z M 50.846359,90.9571 c 0.270314,0.129148 0.524282,0.270314 0.801809,0.394172 0.0116,0.0077 0.02739,0.01679 0.03921,0.02408 -0.282477,-0.135063 -0.562846,-0.27449 -0.841008,-0.41823 z m 60.889721,-42.211851 -0.008,-0.056 c 0.003,0.02043 0.007,0.04186 0.01,0.06229 z"
     fill="url(#a)"
     id="path644-0"
     style="fill:url(#a-2);stroke-width:0.240496" />
  <path
     d="m 117.6595,43.006903 c -2.51198,-6.04222 -7.59968,-12.565432 -11.5948,-14.627203 3.2515,6.374345 5.13339,12.768651 5.85247,17.540811 0,-0.01395 0.002,0.01154 0.009,0.05435 0.003,0.02044 0.007,0.04185 0.01,0.06229 5.45324,14.783284 2.48239,29.816204 -1.79867,39.002427 C 103.51376,99.252887 87.478455,113.81972 62.380056,113.1093 35.262946,112.3414 11.373517,92.220786 6.9140004,65.867723 c -0.8126336,-4.155768 0,-6.26588 0.4088516,-9.640037 -0.4980728,2.601204 -0.6878254,3.352512 -0.9379387,7.974123 0,0.09861 -0.00552,0.196244 -0.00552,0.295088 4.749e-4,31.915732 25.8778437,57.788763 57.7974177,57.788763 28.586553,0 52.322289,-20.75191 56.969149,-48.010198 0.0979,-0.739765 0.17629,-1.483379 0.26263,-2.229638 1.14884,-9.910837 -0.12747,-20.327919 -3.74861,-29.038921 z"
     fill="url(#b)"
     id="path646"
     style="fill:url(#b);stroke-width:0.240496" />
  <path
     d="m 117.6595,43.006903 c -2.51198,-6.04222 -7.59968,-12.565432 -11.5948,-14.627203 3.2515,6.374345 5.13339,12.768651 5.85247,17.540811 0,-0.01395 0.002,0.01154 0.009,0.05435 0.003,0.02044 0.007,0.04185 0.01,0.06229 5.45324,14.783284 2.48239,29.816204 -1.79867,39.002427 C 103.51376,99.252887 87.478455,113.81972 62.380056,113.1093 35.262946,112.3414 11.373517,92.220786 6.9140004,65.867723 c -0.8126336,-4.155768 0,-6.26588 0.4088516,-9.640037 -0.4980728,2.601204 -0.6878254,3.352512 -0.9379387,7.974123 0,0.09861 -0.00552,0.196244 -0.00552,0.295088 4.749e-4,31.915732 25.8778437,57.788763 57.7974177,57.788763 28.586553,0 52.322289,-20.75191 56.969149,-48.010198 0.0979,-0.739765 0.17629,-1.483379 0.26263,-2.229638 1.14884,-9.910837 -0.12747,-20.327919 -3.74861,-29.038921 z"
     fill="url(#c)"
     id="path648"
     style="fill:url(#c);stroke-width:0.240496" />
  <path
     d="m 89.572214,49.800191 c 0.126019,0.0885 0.240495,0.176524 0.359059,0.264545 A 31.434261,31.434261 0 0 0 84.56581,43.063419 C 66.599566,25.099336 79.854735,4.1122181 82.090144,3.0463399 c 0.0065,-0.00862 0.01996,-0.028143 0.02406,-0.032704 C 67.595458,11.51661 62.670097,27.246246 62.217486,35.115994 c 0.673389,-0.04665 1.344857,-0.103171 2.030264,-0.103171 10.834584,0 20.271163,5.957084 25.324464,14.787372 z"
     fill="url(#d)"
     id="path650"
     style="fill:url(#d);stroke-width:0.240496" />
  <path
     d="m 64.284066,53.386947 c -0.09454,1.437685 -5.174027,6.395509 -6.950334,6.395509 -16.435246,0 -19.103069,9.940898 -19.103069,9.940898 0.727984,8.371664 6.556161,15.265479 13.614713,18.913322 0.322027,0.166423 0.647898,0.316734 0.974012,0.465359 a 31.930164,31.930164 0 0 0 1.697656,0.694072 25.671257,25.671257 0 0 0 7.520552,1.45043 c 28.8066,1.351107 34.387549,-34.437573 13.598842,-44.830364 5.323856,-0.925909 10.849972,1.215225 13.936015,3.383056 -5.0533,-8.829567 -14.489876,-14.786651 -25.324217,-14.786651 -0.685418,0 -1.356643,0.05652 -2.030264,0.103171 a 28.919395,28.919395 0 0 0 -15.906887,6.129762 c 0.881178,0.745536 1.875866,1.742152 3.971549,3.806569 3.920567,3.864048 13.980026,7.86542 14.001432,8.334867 z"
     fill="url(#e)"
     id="path652"
     style="fill:url(#e);stroke-width:0.240496" />
  <path
     d="m 64.284066,53.386947 c -0.09454,1.437685 -5.174027,6.395509 -6.950334,6.395509 -16.435246,0 -19.103069,9.940898 -19.103069,9.940898 0.727984,8.371664 6.556161,15.265479 13.614713,18.913322 0.322027,0.166423 0.647898,0.316734 0.974012,0.465359 a 31.930164,31.930164 0 0 0 1.697656,0.694072 25.671257,25.671257 0 0 0 7.520552,1.45043 c 28.8066,1.351107 34.387549,-34.437573 13.598842,-44.830364 5.323856,-0.925909 10.849972,1.215225 13.936015,3.383056 -5.0533,-8.829567 -14.489876,-14.786651 -25.324217,-14.786651 -0.685418,0 -1.356643,0.05652 -2.030264,0.103171 a 28.919395,28.919395 0 0 0 -15.906887,6.129762 c 0.881178,0.745536 1.875866,1.742152 3.971549,3.806569 3.920567,3.864048 13.980026,7.86542 14.001432,8.334867 z"
     fill="url(#f)"
     id="path654"
     style="fill:url(#f);stroke-width:0.240496" />
  <path
     d="m 43.615129,39.323227 a 58.691108,58.691108 0 0 1 1.197904,0.793636 26.776336,26.776336 0 0 1 -0.162096,-14.124807 c -5.937355,2.703415 -10.555367,6.976787 -13.912684,10.750168 0.27777,-0.008 8.661221,-0.158727 12.876876,2.581003 z"
     fill="url(#g)"
     id="path656"
     style="fill:url(#g);stroke-width:0.240496" />
  <path
     d="M 6.9139985,67.867721 C 11.373515,94.220781 35.262944,114.3414 62.380054,115.1093 c 25.098397,0.71042 41.133706,-13.85738 47.756726,-28.069719 4.28083,-9.18695 7.25192,-24.217944 1.79867,-39.002431 l -0.002,-0.0063 -0.008,-0.05603 c -0.006,-0.04281 -0.01,-0.0683 -0.009,-0.05435 0,0.0094 0.003,0.0327 0.0113,0.0962 2.04999,13.386244 -4.75941,26.354501 -15.403999,35.122991 l -0.032,0.0753 c -20.740855,16.888379 -40.588741,10.18937 -44.607431,7.44724 -0.282458,-0.135917 -0.563059,-0.27566 -0.841726,-0.41919 -12.092608,-5.7789 -17.088192,-16.79578 -16.017018,-26.243906 -10.210742,0 -13.692404,-8.611918 -13.692404,-8.611918 0,0 8.313609,-6.961175 20.395889,-1.276332 11.190265,5.265177 21.699465,0.852076 21.700658,0.851596 -0.02143,-0.469448 -10.080865,-4.470819 -14.002392,-8.334626 -2.095441,-2.064418 -3.090372,-3.05983 -3.97155,-3.806571 -0.478045,-0.403791 -0.977818,-0.781132 -1.49708,-1.130331 -0.396501,-0.268755 -0.795828,-0.533315 -1.197915,-0.793636 -4.215412,-2.73973 -11.745236,-2.164202 -12.023017,-2.156988 h -0.02673 c -2.291202,-2.902064 -2.129592,-12.475245 -1.998996,-14.474006 -0.02739,-0.123855 -1.709209,0.872999 -1.929501,1.023309 -2.021813,1.443152 -3.911948,3.062394 -5.648287,4.838779 -1.975917,2.004175 -3.781244,4.169649 -5.397212,6.473909 0,0.0029 -0.0022,0.0063 -0.0022,0.0092 0,-0.0031 0.0011,-0.0063 0.0022,-0.0092 -3.716537,5.266722 -6.3524069,11.217806 -7.7552675,17.509307 -0.02761,0.125298 -2.080287,9.100847 -1.067806,13.756124 z"
     fill="url(#h)"
     id="path658-2"
     style="fill:url(#h-8);stroke-width:0.240496" />
  <path
     d="m 90.798976,52.77444 c -0.25228,-0.23256 -0.54953,-0.470891 -0.86771,-0.709944 -0.1176,-0.0885 -0.23304,-0.176524 -0.35906,-0.264545 -2.923365,-2.053557 -7.819805,-4.576836 -13.936011,-5.383056 l -4e-6,2 c 20.788705,10.392791 15.207765,46.18147 -13.598842,44.830365 -2.565276,-0.104688 -5.100335,-0.593605 -7.520552,-1.450432 -0.572331,-0.215266 -1.138444,-0.446716 -1.697656,-0.694071 -0.326114,-0.148626 -0.651985,-0.298936 -0.974012,-0.465359 0.0116,0.008 0.02739,0.01683 0.03921,0.02405 4.01869,2.741653 23.866576,9.441142 44.608147,-7.447197 l 0.032,-0.07527 c 0.512,-1.215473 7.377204,-18.291405 -5.7255,-30.364541 z"
     fill="url(#j)"
     id="path662-2"
     style="fill:url(#j-3);stroke-width:0.240496" />
  <path
     d="M 6.9140004,65.867723 C 11.373517,92.220786 35.262946,112.3414 62.380056,113.1093 c 25.098399,0.71042 41.133704,-13.857374 47.756724,-28.069722 4.28083,-9.186944 7.25192,-24.21794 1.79867,-39.002427 l -0.002,-0.0063 -0.008,-0.05603 c -0.006,-0.04281 -0.01,-0.0683 -0.009,-0.05435 0,0.0094 0.003,0.0327 0.0113,0.0962 2.04999,13.386244 -4.75941,26.354505 -15.404001,35.122987 l -0.03199,0.07527 C 75.750908,98.103316 55.903022,91.404303 51.884332,88.662168 A 34.657387,34.657387 0 0 1 51.042606,88.242984 C 38.949988,82.464107 33.954404,71.44723 35.025578,61.999106 c -10.210742,0 -13.692404,-8.611918 -13.692404,-8.611918 0,0 9.167468,-6.536439 21.249748,-0.851596 11.190265,5.265177 21.699465,0.852076 21.700658,0.851596 -0.02143,-0.469448 -10.080865,-4.470819 -14.002392,-8.334626 -2.095441,-2.064418 -3.090372,-3.05983 -3.97155,-3.806571 A 17.160587,17.160587 0 0 0 44.812558,40.11566 68.043273,68.043273 0 0 0 43.614643,39.322024 C 39.399231,36.582294 31.015548,36.733086 30.737767,36.7403 h -0.02673 c -2.291202,-2.902064 -2.129592,-12.475245 -1.998996,-14.474006 -0.02739,-0.123855 -1.709209,0.872999 -1.929501,1.023309 a 42.104343,42.104343 0 0 0 -5.648287,4.838779 50.619102,50.619102 0 0 0 -5.397212,6.473909 c 0,0.0029 -0.0022,0.0063 -0.0022,0.0092 0,-0.0031 0.0011,-0.0063 0.0022,-0.0092 A 48.781713,48.781713 0 0 0 7.9817728,52.111598 C 7.9541604,52.236896 5.901486,61.212445 6.9139673,65.867723 Z"
     fill="url(#h)"
     id="path658"
     style="fill:url(#h);stroke-width:0.240496" />
  <path
     d="m 84.56581,43.063178 a 31.434261,31.434261 0 0 1 5.365463,7.001318 c 0.318177,0.239053 0.615429,0.477384 0.86771,0.709944 13.102697,12.072895 6.237502,29.148107 5.725486,30.365016 C 107.16906,72.370975 113.97846,59.402712 111.92847,46.016468 105.393,29.727199 94.311186,23.158773 85.262045,8.8569622 84.805103,8.1337907 84.346958,7.4086951 83.900598,6.6443998 a 17.728398,17.728398 0 0 1 -0.636353,-1.195746 10.509672,10.509672 0 0 1 -0.864101,-2.286154 0.15055045,0.15055045 0 0 0 -0.131311,-0.1548803 0.19672567,0.19672567 0 0 0 -0.108462,0 c -0.0082,0.00287 -0.0202,0.012271 -0.02886,0.015629 -0.01275,0.00508 -0.02886,0.01659 -0.04233,0.024045 -2.234451,1.0649161 -15.48962,22.0520335 2.476624,40.0158755 z"
     fill="url(#i)"
     id="path660"
     style="fill:url(#i);stroke-width:0.240496" />
  <path
     d="m 90.798983,50.77444 c -0.252281,-0.23256 -0.549533,-0.470891 -0.86771,-0.709944 -0.117602,-0.0885 -0.23304,-0.176524 -0.359059,-0.264545 -3.086044,-2.16783 -8.61216,-4.308966 -13.936019,-3.383056 20.788709,10.392791 15.207761,46.18147 -13.598842,44.830365 a 25.671257,25.671257 0 0 1 -7.520552,-1.450432 32.349107,32.349107 0 0 1 -1.697656,-0.694071 c -0.326114,-0.148626 -0.651985,-0.298936 -0.974012,-0.465359 0.0116,0.008 0.02739,0.01683 0.03921,0.02405 4.01869,2.741653 23.866576,9.441144 44.608149,-7.447197 l 0.03199,-0.07527 C 97.036485,79.923508 103.90168,62.847576 90.798983,50.77444 Z"
     fill="url(#j)"
     id="path662"
     style="fill:url(#j);stroke-width:0.240496" />
  <path
     d="m 38.23042,69.723595 c 0,0 2.667823,-9.940898 19.103069,-9.940898 1.776793,0 6.856308,-4.957824 6.950334,-6.395509 0.09399,-1.437685 -10.509664,4.413581 -21.70067,-0.851596 -12.082268,-5.684843 -21.249736,0.851596 -21.249736,0.851596 0,0 3.481662,8.611918 13.692393,8.611918 -1.07092,9.448124 3.924653,20.466204 16.017028,26.243878 0.270325,0.129147 0.524282,0.270318 0.80182,0.394173 C 44.786581,84.989074 38.958404,78.095259 38.23042,69.723595 Z"
     fill="url(#k)"
     id="path664"
     style="fill:url(#k);stroke-width:0.240496" />
  <path
     d="m 117.6595,43.006903 c -2.51198,-6.04222 -7.59968,-12.565432 -11.5948,-14.627203 3.2515,6.374345 5.13339,12.768651 5.85247,17.540811 0,0.0094 0.003,0.0327 0.0113,0.0962 C 105.393,29.727199 94.311186,23.158773 85.262045,8.8569622 84.805103,8.1337907 84.346958,7.4086951 83.900598,6.6443998 a 17.728398,17.728398 0 0 1 -0.636353,-1.195746 10.509672,10.509672 0 0 1 -0.864101,-2.286154 0.15055045,0.15055045 0 0 0 -0.131311,-0.1548803 0.19672567,0.19672567 0 0 0 -0.108462,0 c -0.0082,0.00287 -0.0202,0.012271 -0.02886,0.015629 -0.01275,0.00508 -0.02886,0.01659 -0.04233,0.024045 0.0065,-0.00862 0.01996,-0.028143 0.02405,-0.032704 C 67.594497,11.517563 62.669136,27.247199 62.216525,35.116947 c 0.673389,-0.04665 1.344846,-0.103171 2.030264,-0.103171 10.835059,0 20.271643,5.957084 25.324222,14.786651 -3.086044,-2.16783 -8.612159,-4.308965 -13.93602,-3.383056 20.788711,10.392791 15.207762,46.18147 -13.598842,44.830365 a 25.671257,25.671257 0 0 1 -7.520541,-1.450431 32.349107,32.349107 0 0 1 -1.697667,-0.694071 c -0.326114,-0.148627 -0.651985,-0.298937 -0.974012,-0.46536 0.0116,0.008 0.02739,0.01683 0.03921,0.02405 a 34.657387,34.657387 0 0 1 -0.841737,-0.419186 c 0.270325,0.129147 0.524282,0.270318 0.80182,0.394173 C 44.78467,84.989064 38.956483,78.095249 38.228509,69.723585 c 0,0 2.667824,-9.940898 19.103069,-9.940898 1.776782,0 6.856297,-4.957824 6.950334,-6.395509 C 64.260485,52.91773 54.201047,48.916359 50.27952,45.052552 48.184079,42.988134 47.189149,41.992722 46.30797,41.245981 A 17.160587,17.160587 0 0 0 44.81088,40.11565 26.776336,26.776336 0 0 1 44.648784,25.990844 C 38.711417,28.694259 34.093416,32.96763 30.736099,36.741011 h -0.02673 c -2.291202,-2.90206 -2.129592,-12.47524 -1.999007,-14.474002 -0.02739,-0.123855 -1.709198,0.873 -1.92949,1.023311 a 42.104343,42.104343 0 0 0 -5.648286,4.838778 50.619102,50.619102 0 0 0 -5.395534,6.473188 c 0,0.0029 -0.0022,0.0063 -0.0022,0.0092 0,-0.0031 0.0011,-0.0063 0.0022,-0.0092 A 48.781713,48.781713 0 0 0 7.9817838,52.111592 c -0.027612,0.125299 -0.051028,0.255166 -0.077867,0.381426 -0.1086825,0.508889 -0.5978752,3.091095 -0.6661773,3.644957 -0.00552,0.04257 0.00552,-0.04232 0,0 a 67.234244,67.234244 0 0 0 -0.8523182,8.063828 c 0,0.09861 -0.00552,0.196245 -0.00552,0.295089 0,31.915737 25.8773677,57.788768 57.7969417,57.788768 28.586555,0 52.322287,-20.75191 56.969157,-48.010203 0.0978,-0.739766 0.17628,-1.48338 0.26262,-2.229638 1.14885,-9.910838 -0.12747,-20.327919 -3.7486,-29.038922 z m -5.73367,2.96796 c 0.003,0.02044 0.007,0.04185 0.01,0.06229 l -0.002,-0.0063 z"
     fill="url(#l)"
     id="path666"
     style="fill:url(#l);stroke-width:0.240496" />
</svg>
