<svg width="128" height="128" viewBox="0 0 128 128" fill="none" xmlns="http://www.w3.org/2000/svg">
<path d="M117.659 43.0069C115.148 36.9647 110.06 30.4415 106.065 28.3797C109.316 34.754 111.198 41.1484 111.917 45.9205C111.917 45.9299 111.92 45.9532 111.928 46.0167C105.393 29.7272 94.3112 23.1588 85.262 8.85697C84.8051 8.13379 84.3469 7.4087 83.9006 6.6444C83.6733 6.25407 83.461 5.8552 83.2642 5.44866C82.8883 4.7228 82.5983 3.95557 82.4001 3.1625C82.4015 3.12496 82.3888 3.08825 82.3645 3.05959C82.3402 3.03094 82.3061 3.0124 82.2688 3.00762C82.2334 2.99746 82.1958 2.99746 82.1604 3.00762C82.1522 3.01049 82.1402 3.01989 82.1315 3.02325C82.1188 3.02833 82.1026 3.03984 82.0892 3.0473C82.0957 3.03868 82.1091 3.01915 82.1132 3.01459C67.5945 11.5176 62.6691 27.2472 62.2165 35.117C56.4188 35.5155 50.8756 37.6516 46.3096 41.2467C45.8316 40.8429 45.3318 40.4656 44.8125 40.1164C43.4952 35.5075 43.4392 30.6295 44.6505 25.9916C38.7131 28.695 34.0951 32.9684 30.7378 36.7417H30.711C28.4198 33.8397 28.5814 24.2665 28.712 22.2677C28.6846 22.1439 27.0028 23.1407 26.7825 23.291C24.7607 24.7342 22.8706 26.3534 21.1342 28.1298C19.1584 30.1335 17.3531 32.2985 15.737 34.6023C15.737 34.6052 15.7348 34.6086 15.7348 34.6115C15.7348 34.6084 15.7359 34.6052 15.737 34.6023C12.0205 39.869 9.38463 45.8201 7.98177 52.1116C7.95415 52.2369 7.93074 52.3668 7.9039 52.493C7.79522 53.0019 7.40367 55.5473 7.33513 56.1005C7.32961 56.143 7.3274 56.1839 7.32243 56.2265C6.81624 58.8582 6.50276 61.5233 6.38449 64.2006C6.38449 64.2992 6.37897 64.3968 6.37897 64.4957C6.37993 96.4126 32.2573 122.286 64.1769 122.286C92.7634 122.286 116.499 101.534 121.146 74.2755C121.244 73.5357 121.322 72.7921 121.409 72.0458C122.557 62.135 121.281 51.7179 117.659 43.0069ZM51.0433 88.2427C51.3136 88.3719 51.5676 88.5131 51.8451 88.6369C51.8567 88.6449 51.8725 88.6537 51.8843 88.661C51.6019 88.5259 51.3215 88.3865 51.0433 88.2427ZM111.933 46.0309L111.925 45.9749C111.928 45.9953 111.932 46.0167 111.935 46.0372L111.933 46.0309Z" fill="url(#paint0_linear_9_2)"/>
<path d="M117.463 45.7213C115.075 39.9789 109.991 31.4412 106.065 28.3797L105.868 31.0941C109.119 37.4684 111.001 43.8627 111.72 48.6349C111.72 48.6437 111.723 48.6676 111.732 48.7311C105.196 32.4416 94.1142 25.8731 85.0651 11.5713C84.6081 10.8481 84.15 10.1231 83.7036 9.35876C83.4764 8.96843 83.2641 8.56955 83.0673 8.16301C82.6913 7.43716 82.4013 6.66992 82.2032 5.87686C82.2061 5.79904 82.1491 5.73188 82.0719 5.72198C82.0364 5.71181 81.9988 5.71181 81.9634 5.72198C81.9557 5.72485 81.9432 5.73425 81.9346 5.73761C81.9219 5.74269 81.9057 5.7542 81.8923 5.76165C81.8989 5.75303 81.9123 5.73351 81.9164 5.72895C67.3976 14.2319 62.4723 29.9616 62.0196 37.8313C56.2219 38.2299 50.6787 40.366 46.1128 43.9611C45.6347 43.5573 45.1349 43.1799 44.6157 42.8307C43.2983 38.2218 43.2423 33.3438 44.4536 28.7059C38.5162 31.4093 33.8982 35.6827 30.5409 39.4561H30.5142C28.223 36.554 28.3846 26.9808 28.5152 24.9821C28.4878 24.8582 26.806 25.8551 26.5857 26.0054C24.5639 27.4485 22.6737 29.0678 20.9374 30.8442C18.9615 32.8479 17.1562 35.0129 15.5402 37.3166C15.5402 37.3199 15.538 37.3232 15.538 37.3254C15.538 37.3221 15.5391 37.3188 15.5402 37.3166C11.8236 42.5834 9.18776 48.5345 7.7849 54.826C7.75729 54.9512 7.73387 55.0811 7.70703 55.2074C7.59835 55.7163 7.2068 58.2617 7.13826 58.8148C7.13274 58.8573 7.13053 58.8983 7.12556 58.9408C6.61937 61.5725 6.30589 64.2376 6.18762 66.915C6.18762 67.0136 6.1821 67.1112 6.1821 67.21C6.18306 99.127 32.0604 125 63.98 125C92.5666 125 116.302 104.248 120.949 76.9898C121.047 76.2501 121.125 75.5064 121.212 74.7602C122.361 64.8493 121.084 54.4323 117.463 45.7213ZM50.8464 90.9571C51.1167 91.0863 51.3706 91.2274 51.6482 91.3513C51.6598 91.359 51.6756 91.3681 51.6874 91.3754C51.4049 91.2403 51.1245 91.1008 50.8464 90.9571ZM111.736 48.7453L111.728 48.6893C111.731 48.7097 111.735 48.7311 111.738 48.7515L111.736 48.7453Z" fill="url(#paint1_linear_9_2)"/>
<path d="M117.66 43.0069C115.148 36.9647 110.06 30.4415 106.065 28.3797C109.316 34.754 111.198 41.1483 111.917 45.9205C111.917 45.9066 111.919 45.9321 111.926 45.9749C111.929 45.9953 111.933 46.0167 111.936 46.0372C117.389 60.8204 114.419 75.8534 110.137 85.0396C103.514 99.2529 87.4785 113.82 62.3801 113.109C35.2629 112.341 11.3735 92.2208 6.914 65.8677C6.10137 61.712 6.914 59.6018 7.32285 56.2277C6.82478 58.8289 6.63503 59.5802 6.38491 64.2018C6.38491 64.3004 6.37939 64.3981 6.37939 64.4969C6.37987 96.4126 32.2572 122.286 64.1768 122.286C92.7634 122.286 116.499 101.534 121.146 74.2755C121.244 73.5357 121.322 72.7921 121.409 72.0458C122.557 62.135 121.281 51.7179 117.66 43.0069Z" fill="url(#paint2_radial_9_2)"/>
<path d="M117.66 43.0069C115.148 36.9647 110.06 30.4415 106.065 28.3797C109.316 34.754 111.198 41.1483 111.917 45.9205C111.917 45.9066 111.919 45.9321 111.926 45.9749C111.929 45.9953 111.933 46.0167 111.936 46.0372C117.389 60.8204 114.419 75.8534 110.137 85.0396C103.514 99.2529 87.4785 113.82 62.3801 113.109C35.2629 112.341 11.3735 92.2208 6.914 65.8677C6.10137 61.712 6.914 59.6018 7.32285 56.2277C6.82478 58.8289 6.63503 59.5802 6.38491 64.2018C6.38491 64.3004 6.37939 64.3981 6.37939 64.4969C6.37987 96.4126 32.2572 122.286 64.1768 122.286C92.7634 122.286 116.499 101.534 121.146 74.2755C121.244 73.5357 121.322 72.7921 121.409 72.0458C122.557 62.135 121.281 51.7179 117.66 43.0069Z" fill="url(#paint3_radial_9_2)"/>
<path d="M89.5722 49.8002C89.6982 49.8887 89.8127 49.9767 89.9313 50.0647C88.4808 47.4904 86.6745 45.1334 84.5658 43.0634C66.5996 25.0993 79.8547 4.11222 82.0902 3.04635C82.0967 3.03773 82.1101 3.0182 82.1142 3.01364C67.5955 11.5166 62.6701 27.2462 62.2175 35.116C62.8909 35.0693 63.5624 35.0128 64.2478 35.0128C75.0823 35.0128 84.5189 40.9699 89.5722 49.8002Z" fill="url(#paint4_radial_9_2)"/>
<path d="M64.2841 53.3869C64.1895 54.8246 59.11 59.7825 57.3337 59.7825C40.8985 59.7825 38.2307 69.7233 38.2307 69.7233C38.9586 78.095 44.7868 84.9888 51.8454 88.6367C52.1674 88.8031 52.4933 88.9534 52.8194 89.102C53.3785 89.3496 53.9446 89.581 54.517 89.7961C56.9372 90.6529 59.4723 91.1418 62.0376 91.2465C90.8442 92.5976 96.4251 56.809 75.6364 46.4162C80.9603 45.4903 86.4864 47.6314 89.5724 49.7992C84.5191 40.9697 75.0826 35.0126 64.2482 35.0126C63.5628 35.0126 62.8916 35.0691 62.218 35.1157C56.4202 35.5143 50.877 37.6504 46.3111 41.2455C47.1923 41.991 48.1869 42.9877 50.2826 45.0521C54.2032 48.9161 64.2626 52.9175 64.2841 53.3869Z" fill="url(#paint5_radial_9_2)"/>
<path d="M64.2841 53.3869C64.1895 54.8246 59.11 59.7825 57.3337 59.7825C40.8985 59.7825 38.2307 69.7233 38.2307 69.7233C38.9586 78.095 44.7868 84.9888 51.8454 88.6367C52.1674 88.8031 52.4933 88.9534 52.8194 89.102C53.3785 89.3496 53.9446 89.581 54.517 89.7961C56.9372 90.6529 59.4723 91.1418 62.0376 91.2465C90.8442 92.5976 96.4251 56.809 75.6364 46.4162C80.9603 45.4903 86.4864 47.6314 89.5724 49.7992C84.5191 40.9697 75.0826 35.0126 64.2482 35.0126C63.5628 35.0126 62.8916 35.0691 62.218 35.1157C56.4202 35.5143 50.877 37.6504 46.3111 41.2455C47.1923 41.991 48.1869 42.9877 50.2826 45.0521C54.2032 48.9161 64.2626 52.9175 64.2841 53.3869Z" fill="url(#paint6_radial_9_2)"/>
<path d="M43.6151 39.3232C44.0177 39.5829 44.417 39.8474 44.813 40.1169C43.4957 35.508 43.4397 30.63 44.6509 25.9921C38.7136 28.6955 34.0956 32.9689 30.7383 36.7422C31.016 36.7342 39.3995 36.5835 43.6151 39.3232Z" fill="url(#paint7_radial_9_2)"/>
<path d="M6.91401 67.8677C11.3735 94.2208 35.263 114.341 62.3801 115.109C87.4785 115.82 103.514 101.252 110.137 87.0396C114.418 77.8526 117.389 62.8216 111.935 48.0372L111.933 48.0309L111.925 47.9748C111.919 47.932 111.915 47.9065 111.916 47.9205C111.916 47.9299 111.919 47.9532 111.928 48.0167C113.978 61.4029 107.168 74.3712 96.5238 83.1397L96.4918 83.215C75.7509 100.103 55.903 93.4043 51.8843 90.6622C51.6019 90.5263 51.3213 90.3865 51.0426 90.243C38.95 84.4641 33.9544 73.4472 35.0256 63.9991C24.8148 63.9991 21.3332 55.3872 21.3332 55.3872C21.3332 55.3872 29.6468 48.426 41.7291 54.1109C52.9193 59.376 63.4285 54.9629 63.4297 54.9625C63.4083 54.493 53.3489 50.4916 49.4273 46.6278C47.3319 44.5634 46.337 43.568 45.4558 42.8213C44.9777 42.4175 44.478 42.0401 43.9587 41.6909C43.5622 41.4222 43.1629 41.1576 42.7608 40.8973C38.5454 38.1576 31.0156 38.7331 30.7378 38.7403H30.711C28.4198 35.8382 28.5815 26.2651 28.712 24.2663C28.6847 24.1424 27.0028 25.1393 26.7825 25.2896C24.7607 26.7328 22.8706 28.352 21.1343 30.1284C19.1583 32.1326 17.353 34.298 15.737 36.6023C15.737 36.6052 15.7348 36.6086 15.7348 36.6115C15.7348 36.6084 15.7359 36.6052 15.737 36.6023C12.0205 41.869 9.38464 47.8201 7.98178 54.1116C7.95417 54.2369 5.90152 63.2125 6.91401 67.8677Z" fill="url(#paint8_radial_9_2)"/>
<path d="M90.799 52.7744C90.5467 52.5419 90.2494 52.3036 89.9313 52.0645C89.8137 51.976 89.6982 51.888 89.5722 51.8C86.6488 49.7464 81.7524 47.2231 75.6362 46.4169V48.4169C96.4249 58.8097 90.844 94.5984 62.0373 93.2473C59.4721 93.1426 56.937 92.6537 54.5168 91.7968C53.9445 91.5816 53.3783 91.3501 52.8191 91.1028C52.493 90.9541 52.1672 90.8038 51.8451 90.6374C51.8567 90.6454 51.8725 90.6542 51.8843 90.6614C55.903 93.4031 75.7509 100.103 96.4925 83.2143L96.5245 83.139C97.0365 81.9235 103.902 64.8476 90.799 52.7744Z" fill="url(#paint9_radial_9_2)"/>
<path d="M6.91401 65.8677C11.3735 92.2208 35.263 112.341 62.3801 113.109C87.4785 113.82 103.514 99.2519 110.137 85.0396C114.418 75.8526 117.389 60.8216 111.935 46.0372L111.933 46.0309L111.925 45.9748C111.919 45.932 111.915 45.9065 111.916 45.9205C111.916 45.9299 111.919 45.9532 111.928 46.0167C113.978 59.4029 107.168 72.3712 96.5238 81.1397L96.4918 81.2149C75.7509 98.1033 55.903 91.4043 51.8843 88.6622C51.6019 88.5263 51.3213 88.3865 51.0426 88.243C38.95 82.4641 33.9544 71.4472 35.0256 61.9991C24.8148 61.9991 21.3332 53.3872 21.3332 53.3872C21.3332 53.3872 30.5007 46.8508 42.5829 52.5356C53.7732 57.8008 64.2824 53.3877 64.2836 53.3872C64.2622 52.9177 54.2027 48.9164 50.2812 45.0526C48.1858 42.9882 47.1908 41.9927 46.3096 41.246C45.8316 40.8422 45.3318 40.4649 44.8126 40.1157C44.4161 39.8469 44.0167 39.5824 43.6147 39.322C39.3992 36.5823 31.0156 36.7331 30.7378 36.7403H30.711C28.4198 33.8382 28.5815 24.2651 28.712 22.2663C28.6847 22.1424 27.0028 23.1393 26.7825 23.2896C24.7607 24.7328 22.8706 26.352 21.1343 28.1284C19.1583 30.1326 17.353 32.298 15.737 34.6023C15.737 34.6052 15.7348 34.6086 15.7348 34.6115C15.7348 34.6084 15.7359 34.6052 15.737 34.6023C12.0205 39.869 9.38464 45.8201 7.98178 52.1116C7.95417 52.2369 5.90153 61.2125 6.91401 65.8677Z" fill="url(#paint10_radial_9_2)"/>
<path d="M84.5658 43.0632C86.6745 45.1332 88.4808 47.4901 89.9313 50.0645C90.2495 50.3036 90.5467 50.5419 90.799 50.7744C103.902 62.8473 97.0365 79.9225 96.5245 81.1395C107.169 72.371 113.978 59.4027 111.928 46.0165C105.393 29.7272 94.3112 23.1588 85.2621 8.85697C84.8051 8.13379 84.347 7.4087 83.9006 6.6444C83.6733 6.25407 83.4611 5.8552 83.2642 5.44866C82.8883 4.7228 82.5983 3.95557 82.4002 3.1625C82.4015 3.12496 82.3888 3.08825 82.3645 3.05959C82.3402 3.03094 82.3061 3.0124 82.2688 3.00762C82.2334 2.99746 82.1958 2.99746 82.1604 3.00762C82.1522 3.01049 82.1402 3.01989 82.1315 3.02325C82.1188 3.02833 82.1027 3.03984 82.0892 3.0473C79.8547 4.11221 66.5996 25.0993 84.5658 43.0632Z" fill="url(#paint11_radial_9_2)"/>
<path d="M90.799 50.7744C90.5467 50.5419 90.2494 50.3035 89.9313 50.0645C89.8137 49.976 89.6982 49.888 89.5722 49.7999C86.4862 47.6321 80.96 45.491 75.6362 46.4169C96.4249 56.8097 90.8439 92.5984 62.0373 91.2473C59.4721 91.1426 56.937 90.6536 54.5168 89.7968C53.9445 89.5816 53.3783 89.3501 52.8191 89.1028C52.493 88.9541 52.1672 88.8038 51.8451 88.6374C51.8567 88.6454 51.8725 88.6542 51.8843 88.6614C55.903 91.4031 75.7509 98.1026 96.4925 81.2142L96.5245 81.139C97.0365 79.9235 103.902 62.8476 90.799 50.7744Z" fill="url(#paint12_radial_9_2)"/>
<path d="M38.2304 69.7236C38.2304 69.7236 40.8982 59.7827 57.3335 59.7827C59.1103 59.7827 64.1898 54.8249 64.2838 53.3872C64.3778 51.9495 53.7741 57.8008 42.5831 52.5356C30.5009 46.8508 21.3334 53.3872 21.3334 53.3872C21.3334 53.3872 24.8151 61.9991 35.0258 61.9991C33.9549 71.4472 38.9505 82.4653 51.0428 88.243C51.3132 88.3721 51.5671 88.5133 51.8446 88.6372C44.7866 84.9891 38.9584 78.0953 38.2304 69.7236Z" fill="url(#paint13_radial_9_2)"/>
<path d="M117.66 43.0069C115.148 36.9647 110.06 30.4415 106.065 28.3797C109.316 34.754 111.198 41.1484 111.917 45.9205C111.917 45.9299 111.92 45.9532 111.928 46.0167C105.393 29.7272 94.3112 23.1588 85.2621 8.85697C84.8051 8.13379 84.347 7.4087 83.9006 6.6444C83.6733 6.25407 83.4611 5.8552 83.2643 5.44866C82.8883 4.7228 82.5983 3.95557 82.4002 3.1625C82.4015 3.12496 82.3888 3.08825 82.3645 3.05959C82.3403 3.03094 82.3061 3.0124 82.2688 3.00762C82.2334 2.99746 82.1958 2.99746 82.1604 3.00762C82.1522 3.01049 82.1402 3.01989 82.1315 3.02325C82.1188 3.02833 82.1027 3.03984 82.0892 3.0473C82.0957 3.03868 82.1092 3.01915 82.1132 3.01459C67.5945 11.5176 62.6691 27.2472 62.2165 35.117C62.8899 35.0703 63.5614 35.0138 64.2468 35.0138C75.0819 35.0138 84.5185 40.9709 89.571 49.8004C86.485 47.6326 80.9589 45.4915 75.635 46.4174C96.4237 56.8102 90.8428 92.5988 62.0362 91.2477C59.4709 91.143 56.9358 90.6541 54.5156 89.7973C53.9433 89.582 53.3772 89.3506 52.818 89.1032C52.4918 88.9546 52.166 88.8043 51.8439 88.6379C51.8555 88.6459 51.8713 88.6547 51.8832 88.6619C51.6007 88.526 51.3201 88.3863 51.0414 88.2427C51.3117 88.3719 51.5657 88.5131 51.8432 88.6369C44.7847 84.9891 38.9565 78.0953 38.2285 69.7236C38.2285 69.7236 40.8963 59.7827 57.3316 59.7827C59.1084 59.7827 64.1879 54.8249 64.2819 53.3872C64.2605 52.9177 54.2011 48.9164 50.2795 45.0526C48.1841 42.9881 47.1892 41.9927 46.308 41.246C45.8299 40.8422 45.3302 40.4649 44.8109 40.1157C43.4935 35.5068 43.4376 30.6288 44.6488 25.9908C38.7114 28.6943 34.0934 32.9676 30.7361 36.741H30.7094C28.4182 33.839 28.5798 24.2658 28.7104 22.267C28.683 22.1432 27.0012 23.14 26.7809 23.2903C24.7591 24.7335 22.8689 26.3527 21.1326 28.1291C19.1573 30.1331 17.3525 32.2983 15.7371 34.6023C15.7371 34.6052 15.7349 34.6086 15.7349 34.6115C15.7349 34.6084 15.736 34.6052 15.7371 34.6023C12.0205 39.869 9.38466 45.8201 7.9818 52.1116C7.95418 52.2369 7.93077 52.3668 7.90393 52.493C7.79525 53.0019 7.30605 55.5841 7.23775 56.138C7.24327 56.0957 7.23223 56.1805 7.23775 56.138C6.79167 58.8063 6.50704 61.4992 6.38543 64.2018C6.38543 64.3004 6.37991 64.3981 6.37991 64.4969C6.37991 96.4126 32.2573 122.286 64.1769 122.286C92.7634 122.286 116.499 101.534 121.146 74.2755C121.244 73.5357 121.322 72.7921 121.409 72.0458C122.557 62.135 121.281 51.7179 117.66 43.0069ZM111.926 45.9749C111.929 45.9953 111.933 46.0167 111.936 46.0372L111.934 46.0309L111.926 45.9749Z" fill="url(#paint14_linear_9_2)"/>
<defs>
<linearGradient id="paint0_linear_9_2" x1="107.099" y1="21.4893" x2="14.2947" y2="111.012" gradientUnits="userSpaceOnUse">
<stop offset="0.05" stop-color="#53FEBC"/>
<stop offset="0.37" stop-color="#8068FF"/>
<stop offset="0.53" stop-color="#7A3DD8"/>
<stop offset="0.7" stop-color="#783BD5"/>
</linearGradient>
<linearGradient id="paint1_linear_9_2" x1="106.902" y1="24.2036" x2="14.0977" y2="113.727" gradientUnits="userSpaceOnUse">
<stop offset="0.05" stop-color="#53FDBC"/>
<stop offset="0.37" stop-color="#6C6AEA"/>
<stop offset="0.53" stop-color="#7B3DD3"/>
<stop offset="0.7" stop-color="#773AD2"/>
</linearGradient>
<radialGradient id="paint2_radial_9_2" cx="0" cy="0" r="1" gradientUnits="userSpaceOnUse" gradientTransform="translate(107.272 16.2658) scale(147.761 120.2)">
<stop offset="0.13" stop-color="#7035C2"/>
<stop offset="0.28" stop-color="#9257FD"/>
<stop offset="0.47" stop-color="#783CD7"/>
<stop offset="0.78" stop-color="#773BD3"/>
<stop offset="0.86" stop-color="#783BD5"/>
</radialGradient>
<radialGradient id="paint3_radial_9_2" cx="0" cy="0" r="1" gradientUnits="userSpaceOnUse" gradientTransform="translate(62.9437 65.9421) scale(147.761 120.2)">
<stop offset="0.3" stop-color="#783CD9"/>
<stop offset="0.35" stop-color="#7437CA" stop-opacity="0.6"/>
<stop offset="0.43" stop-color="#7236C6" stop-opacity="0.47"/>
<stop offset="0.5" stop-color="#773AD2" stop-opacity="0.65"/>
<stop offset="0.53" stop-color="#783BCE" stop-opacity="0.6"/>
</radialGradient>
<radialGradient id="paint4_radial_9_2" cx="0" cy="0" r="1" gradientUnits="userSpaceOnUse" gradientTransform="translate(75.5201 -2.63249) scale(38.7993 65.8715)">
<stop offset="0.13" stop-color="#4EF8BC"/>
<stop offset="0.53" stop-color="#4E98FE"/>
</radialGradient>
<radialGradient id="paint5_radial_9_2" cx="0" cy="0" r="1" gradientUnits="userSpaceOnUse" gradientTransform="translate(49.916 96.9728) scale(51.3418 56.2712)">
<stop offset="0.35" stop-color="#6F44E5"/>
<stop offset="0.67" stop-color="#9059FF"/>
<stop offset="1" stop-color="#7C49EE"/>
</radialGradient>
<radialGradient id="paint6_radial_9_2" cx="0" cy="0" r="1" gradientUnits="userSpaceOnUse" gradientTransform="translate(64.9284 53.5821) scale(30.2917 33.2)">
<stop offset="0.21" stop-color="#7442E4" stop-opacity="0"/>
<stop offset="0.97" stop-color="#2C297D" stop-opacity="0.8"/>
</radialGradient>
<radialGradient id="paint7_radial_9_2" cx="0" cy="0" r="1" gradientUnits="userSpaceOnUse" gradientTransform="translate(60.2953 11.8673) scale(40.8169 40.9619)">
<stop offset="0.1" stop-color="#05CBF6"/>
<stop offset="0.79" stop-color="#00B6F4"/>
</radialGradient>
<radialGradient id="paint8_radial_9_2" cx="0" cy="0" r="1" gradientUnits="userSpaceOnUse" gradientTransform="translate(97.5723 -13.0046) scale(194.869 163.581)">
<stop offset="0.11" stop-color="#53FDBC"/>
<stop offset="0.46" stop-color="#3A8EE6"/>
<stop offset="0.72" stop-color="#7D6AFF"/>
<stop offset="0.9" stop-color="#783BD5"/>
</radialGradient>
<radialGradient id="paint9_radial_9_2" cx="0" cy="0" r="1" gradientUnits="userSpaceOnUse" gradientTransform="translate(60.715 28.6002) scale(111.883 109.918)">
<stop offset="0.14" stop-color="#53FDBC"/>
<stop offset="0.48" stop-color="#3A8EE6"/>
<stop offset="0.66" stop-color="#7D6AFF"/>
<stop offset="0.9" stop-color="#783BD5"/>
</radialGradient>
<radialGradient id="paint10_radial_9_2" cx="0" cy="0" r="1" gradientUnits="userSpaceOnUse" gradientTransform="translate(97.5723 -15.0046) scale(194.869 163.581)">
<stop offset="0.11" stop-color="#0ED0FF"/>
<stop offset="0.578125" stop-color="#3A8EE6"/>
<stop offset="0.72" stop-color="#9059FF"/>
<stop offset="0.9" stop-color="#783BD5"/>
</radialGradient>
<radialGradient id="paint11_radial_9_2" cx="0" cy="0" r="1" gradientUnits="userSpaceOnUse" gradientTransform="translate(81.2439 -11.5339) scale(129.079 272.55)">
<stop stop-color="#14CBFF"/>
<stop offset="0.286458" stop-color="#3A8EE6"/>
<stop offset="0.57" stop-color="#7D6AFF"/>
<stop offset="0.74" stop-color="#783BD5"/>
</radialGradient>
<radialGradient id="paint12_radial_9_2" cx="0" cy="0" r="1" gradientUnits="userSpaceOnUse" gradientTransform="translate(60.715 26.6002) scale(111.883 109.918)">
<stop offset="0.14" stop-color="#53FDBC"/>
<stop offset="0.48" stop-color="#39B3F9"/>
<stop offset="0.66" stop-color="#7D6AFF"/>
<stop offset="0.9" stop-color="#783BD5"/>
</radialGradient>
<radialGradient id="paint13_radial_9_2" cx="0" cy="0" r="1" gradientUnits="userSpaceOnUse" gradientTransform="translate(89.7544 33.0288) scale(134.48 120.308)">
<stop offset="0.09" stop-color="#53FDBC"/>
<stop offset="0.63" stop-color="#09E1F8"/>
</radialGradient>
<linearGradient id="paint14_linear_9_2" x1="98.7298" y1="19.7" x2="24.5187" y2="100.784" gradientUnits="userSpaceOnUse">
<stop offset="0.09375" stop-color="#53FDBC"/>
<stop offset="0.6" stop-color="#53FDBC" stop-opacity="0"/>
</linearGradient>
</defs>
</svg>
