<?xml version="1.0" encoding="UTF-8" standalone="no"?>
<svg
   height="128px"
   viewBox="0 0 128 128"
   width="128px"
   version="1.1"
   id="svg8"
   xml:space="preserve"
   xmlns:xlink="http://www.w3.org/1999/xlink"
   xmlns="http://www.w3.org/2000/svg"
   xmlns:svg="http://www.w3.org/2000/svg"><defs
     id="defs12"><linearGradient
       id="linearGradient1391"><stop
         style="stop-color:#1a1a1a;stop-opacity:1;"
         offset="0"
         id="stop1367" /><stop
         style="stop-color:#808080;stop-opacity:1;"
         offset="0.41250703"
         id="stop1369" /><stop
         style="stop-color:#1a1a1a;stop-opacity:1;"
         offset="0.80687261"
         id="stop1371" /><stop
         style="stop-color:#666666;stop-opacity:1;"
         offset="1"
         id="stop1387" /></linearGradient><linearGradient
       xlink:href="#linearGradient1391"
       id="linearGradient1634"
       x1="60.059406"
       y1="94.41584"
       x2="168.0594"
       y2="94.41584"
       gradientUnits="userSpaceOnUse"
       gradientTransform="matrix(1.1111112,0,0,1.0925926,-62.732678,-37.158048)" /></defs><path
     d="M 124,66.000004 C 124,98.58444 97.136727,125 64.000005,125 30.863284,125 4.000002,98.58444 4.000002,66.000004 4.000002,33.415563 30.863284,7.0000015 64.000005,7.0000015 97.136727,7.0000015 124,33.415563 124,66.000004 Z m 0,0"
     fill="#1c71d8"
     id="path4-3"
     style="fill:url(#linearGradient1634);fill-opacity:1;stroke-width:0.991631" /><path
     d="M 124,62.000002 C 124,94.584444 97.136722,121 64.000003,121 30.863284,121 4.0000018,94.584444 4.0000018,62.000002 4.0000018,29.415562 30.863284,3.0000005 64.000003,3.0000005 97.136722,3.0000005 124,29.415562 124,62.000002 Z m 0,0"
     fill="#1c71d8"
     id="path4"
     style="fill:#000000;fill-opacity:1;stroke-width:0.991632" /><path
     style="fill:#ffffff;stroke:none;stroke-width:0.153334"
     d="m 52.846057,23.759299 c -2.649245,7.700772 -6.021367,15.258884 -9.092111,22.807587 -2.186589,5.375292 -4.530189,11.15291 -3.212545,17.029665 0.805612,3.592804 2.911478,6.393271 4.904478,9.427141 2.954933,4.498258 6.028622,8.924602 9.049589,13.380446 l 6.391222,9.427141 c 0.959778,1.415737 1.870378,3.364574 3.247189,4.409461 1.6392,-2.895347 3.748322,-5.604889 5.618089,-8.362778 L 80.679034,75.760593 c 2.9837,-4.400952 6.556534,-8.685125 7.086589,-14.1407 0.490634,-5.048231 -1.527255,-9.836456 -3.309955,-14.444805 -3.024211,-7.817681 -6.617756,-15.49386 -9.343222,-23.41579 H 74.80319 c -1.615089,3.871074 -3.6452,7.569961 -5.346411,11.403793 -0.513211,1.156631 -1.240422,3.867255 -2.294989,4.595882 -0.486922,0.336336 -1.391022,-0.01872 -1.945522,-0.03212 -1.531278,-0.03706 -2.981067,0.01521 -4.4842,0.301821 L 58.14329,34.4028 53.155312,23.759259 h -0.309255 m -6.649,30.30809 c 2.000111,-0.34561 4.073367,0.546015 5.721233,1.576157 3.361756,2.101643 6.046245,5.140222 7.683133,8.713259 1.000134,2.182838 2.010778,6.60751 -1.343399,7.370042 -1.890478,0.429694 -3.9761,-0.37465 -5.5666,-1.319037 -3.4768,-2.064239 -6.452611,-5.248178 -8.060278,-8.939967 -0.981111,-2.252933 -1.972278,-6.789058 1.565911,-7.400454 m 33.708844,-0.0047 c 4.569244,-0.647432 4.855467,3.78165 3.554278,6.948711 -1.862034,4.532172 -6.582356,10.206854 -11.904178,10.769135 -4.640533,0.490366 -4.643466,-3.959701 -3.370266,-7.119921 1.818266,-4.513317 6.558844,-9.866562 11.720166,-10.597925 M 64.133879,78.953334 h -0.309256 c -0.740055,2.29946 -2.523677,4.614587 -3.776788,6.689617 -0.4529,0.749912 -1.3482,1.520965 -2.186589,0.694867 -0.880756,-0.867595 0.236122,-2.191195 0.704333,-2.97502 1.2047,-2.016795 2.352344,-4.066739 3.559833,-6.082016 0.539345,-0.900143 1.251867,-1.876921 2.470023,-1.407685 0.8469,0.326292 1.301966,1.440977 1.726422,2.167933 l 2.937922,5.017666 c 0.411155,0.704449 1.151055,1.593951 1.1843,2.432658 0.033,0.835068 -0.891278,1.451782 -1.664722,1.05964 -0.742367,-0.376322 -1.135589,-1.444779 -1.529734,-2.123836 -0.413788,-0.713125 -0.835766,-1.420764 -1.258511,-2.12871 -0.649133,-1.086703 -1.362122,-2.181776 -1.857233,-3.345114 z"
     id="path257" /></svg>
