<?xml version="1.0" encoding="UTF-8" standalone="no"?>
<!-- Generator: Adobe Illustrator 26.0.2, SVG Export Plug-In . SVG Version: 6.00 Build 0)  -->

<svg
   version="1.0"
   id="Layer_1"
   x="0px"
   y="0px"
   viewBox="0 0 128 128"
   xml:space="preserve"
   width="128"
   height="128"
   xmlns:xlink="http://www.w3.org/1999/xlink"
   xmlns="http://www.w3.org/2000/svg"
   xmlns:svg="http://www.w3.org/2000/svg"><defs
   id="defs76"><linearGradient
     id="linearGradient4970"><stop
       style="stop-color:#d3b300;stop-opacity:1;"
       offset="0"
       id="stop4968" /><stop
       style="stop-color:#edd400;stop-opacity:1;"
       offset="1"
       id="stop4966" /></linearGradient><linearGradient
     id="linearGradient4726"><stop
       style="stop-color:#c4a000;stop-opacity:0.30000001;"
       offset="0"
       id="stop4724" /><stop
       style="stop-color:#c4a000;stop-opacity:1;"
       offset="1"
       id="stop4722" /></linearGradient><linearGradient
     id="linearGradient2021"><stop
       id="stop2013"
       offset="0"
       style="stop-color:#e2c904;stop-opacity:1;" /><stop
       style="stop-color:#e2c904;stop-opacity:1;"
       offset="0.5"
       id="stop2015" /><stop
       id="stop2017"
       offset="0.75"
       style="stop-color:#857700;stop-opacity:1;" /><stop
       id="stop2019"
       offset="1"
       style="stop-color:#5c4b00;stop-opacity:1;" /></linearGradient><linearGradient
     id="linearGradient1529"><stop
       style="stop-color:#000000;stop-opacity:0.40000001;"
       offset="0"
       id="stop1517" /><stop
       style="stop-color:#ffffff;stop-opacity:0.60000002;"
       offset="0.07308788"
       id="stop1519" /><stop
       style="stop-color:#000000;stop-opacity:0.40000001;"
       offset="0.15055925"
       id="stop1521" /><stop
       style="stop-color:#000000;stop-opacity:0.40000001;"
       offset="0.85204166"
       id="stop1523" /><stop
       style="stop-color:#ffffff;stop-opacity:0.60000002;"
       offset="0.93005961"
       id="stop1525" /><stop
       style="stop-color:#000000;stop-opacity:0.40000001;"
       offset="1"
       id="stop1527" /></linearGradient><linearGradient
     xlink:href="#linearGradient1529"
     id="linearGradient1515"
     x1="-224.63828"
     y1="134.73721"
     x2="-116.63834"
     y2="134.73721"
     gradientUnits="userSpaceOnUse"
     gradientTransform="matrix(0.95398961,0,0,0.95398961,221.63454,-65.206537)" /><linearGradient
     id="linearGradient7106"><stop
       style="stop-color:#000000;stop-opacity:1;"
       offset="0"
       id="stop7108" /><stop
       style="stop-color:#000000;stop-opacity:0;"
       offset="1"
       id="stop7110" /></linearGradient><linearGradient
     xlink:href="#linearGradient3235"
     id="linearGradient3233"
     x1="8"
     y1="39"
     x2="38"
     y2="39"
     gradientUnits="userSpaceOnUse"
     gradientTransform="matrix(2.3975395,0,0,2.3975395,5.2605415,5.6024493)" /><linearGradient
     id="linearGradient3235"><stop
       id="stop3237"
       offset="0"
       style="stop-color:#fce94f;stop-opacity:1" /><stop
       style="stop-color:#fce94f;stop-opacity:1"
       offset="0.5"
       id="stop3239" /><stop
       id="stop3241"
       offset="0.75"
       style="stop-color:#edd400;stop-opacity:1" /><stop
       id="stop3243"
       offset="1"
       style="stop-color:#c4a000;stop-opacity:1" /></linearGradient><linearGradient
     id="linearGradient12294"><stop
       id="stop12296"
       offset="0"
       style="stop-color:#fef8c4;stop-opacity:1" /><stop
       id="stop12298"
       offset="1"
       style="stop-color:#edd400;stop-opacity:1" /></linearGradient><radialGradient
     xlink:href="#linearGradient7106"
     id="radialGradient7116"
     gradientUnits="userSpaceOnUse"
     gradientTransform="matrix(1.3227804,0,0,0.5787164,31.716142,91.417831)"
     cx="23.5"
     cy="19.5"
     fx="23.5"
     fy="19.5"
     r="14.5" /><linearGradient
     xlink:href="#linearGradient2188"
     id="linearGradient2846"
     x1="3"
     y1="27"
     x2="39"
     y2="28"
     gradientUnits="userSpaceOnUse"
     gradientTransform="matrix(2.3975395,0,0,2.3975395,5.2605415,5.6024493)" /><linearGradient
     id="linearGradient2188"><stop
       style="stop-color:#c4a000;stop-opacity:1"
       offset="0"
       id="stop2190" /><stop
       id="stop3626"
       offset="0.20552924"
       style="stop-color:#edd400;stop-opacity:1" /><stop
       id="stop2848"
       offset="0.5"
       style="stop-color:#fce94f;stop-opacity:1" /><stop
       style="stop-color:#edd400;stop-opacity:1"
       offset="0.75"
       id="stop2850" /><stop
       style="stop-color:#c4a000;stop-opacity:1"
       offset="1"
       id="stop2192" /></linearGradient><linearGradient
     id="linearGradient3570"><stop
       style="stop-color:#ffffff;stop-opacity:1;"
       offset="0"
       id="stop3572" /><stop
       style="stop-color:#fce94f;stop-opacity:1;"
       offset="1"
       id="stop3574" /></linearGradient><radialGradient
     xlink:href="#linearGradient7499"
     id="radialGradient5934"
     cx="21.624998"
     cy="16.749998"
     fx="21.624998"
     fy="16.749998"
     r="5.5"
     gradientTransform="matrix(1.6782779,0,0,-1.743665,20.964432,65.976853)"
     gradientUnits="userSpaceOnUse" /><linearGradient
     id="linearGradient7499"><stop
       id="stop7501"
       offset="0"
       style="stop-color:#fff5ac;stop-opacity:1" /><stop
       id="stop7503"
       offset="1"
       style="stop-color:#edd400;stop-opacity:1" /></linearGradient><linearGradient
     id="linearGradient19744"><stop
       id="stop19746"
       offset="0"
       style="stop-color:#ffffff;stop-opacity:1;" /><stop
       style="stop-color:#edd400;stop-opacity:1"
       offset="0.74871767"
       id="stop19748" /><stop
       id="stop19750"
       offset="1"
       style="stop-color:#ffffff;stop-opacity:1;" /></linearGradient><radialGradient
     xlink:href="#linearGradient14664"
     id="radialGradient18099"
     cx="3.5"
     cy="16.969122"
     fx="3.5"
     fy="16.969122"
     r="3.0477226"
     gradientTransform="matrix(1.0147686,2.0295369,-2.5173311,1.2586655,52.097855,18.3783)"
     gradientUnits="userSpaceOnUse" /><linearGradient
     id="linearGradient14664"><stop
       style="stop-color:#ffffff;stop-opacity:1;"
       offset="0"
       id="stop14666" /><stop
       style="stop-color:#eeeeec;stop-opacity:1"
       offset="1"
       id="stop14668" /></linearGradient><radialGradient
     xlink:href="#linearGradient14664"
     id="radialGradient18124"
     gradientUnits="userSpaceOnUse"
     gradientTransform="matrix(2.2832293,4.5664578,-5.6639951,2.8319972,104.65068,-49.565766)"
     cx="3.5"
     cy="16.969122"
     fx="3.5"
     fy="16.969122"
     r="3.0477226" /><radialGradient
     xlink:href="#linearGradient14664"
     id="radialGradient18126"
     gradientUnits="userSpaceOnUse"
     gradientTransform="matrix(1.775845,3.5516893,-4.4053295,2.2026643,81.232015,-22.388133)"
     cx="3.5"
     cy="16.969122"
     fx="3.5"
     fy="16.969122"
     r="3.0477226" /><radialGradient
     xlink:href="#linearGradient14664"
     id="radialGradient18128"
     gradientUnits="userSpaceOnUse"
     gradientTransform="matrix(1.2684607,2.5369211,-3.146664,1.5733319,65.005972,2.3919429)"
     cx="3.5"
     cy="16.969122"
     fx="3.5"
     fy="16.969122"
     r="3.0477226" /><radialGradient
     xlink:href="#linearGradient8285"
     id="radialGradient17172"
     gradientUnits="userSpaceOnUse"
     gradientTransform="matrix(2.3975383,0,0,3.7295052,5.2605723,-27.563506)"
     cx="22.999998"
     cy="28.5"
     fx="22.999998"
     fy="28.5"
     r="3" /><linearGradient
     id="linearGradient8285"><stop
       style="stop-color:#ff6c6c;stop-opacity:1;"
       offset="0"
       id="stop8287" /><stop
       style="stop-color:#cc0000;stop-opacity:1;"
       offset="1"
       id="stop8289" /></linearGradient><radialGradient
     xlink:href="#linearGradient8285"
     id="radialGradient11865"
     gradientUnits="userSpaceOnUse"
     gradientTransform="matrix(1.4385232,0,0,2.7971297,5.7400528,-8.4032164)"
     cx="22.999998"
     cy="28.5"
     fx="22.999998"
     fy="28.5"
     r="3" /><radialGradient
     xlink:href="#linearGradient8285"
     id="radialGradient14259"
     gradientUnits="userSpaceOnUse"
     gradientTransform="matrix(1.4385237,0,0,2.7971297,48.895752,-8.1834193)"
     cx="22.999998"
     cy="28.5"
     fx="22.999998"
     fy="28.5"
     r="3" /><linearGradient
     xlink:href="#linearGradient2021"
     id="linearGradient2010"
     gradientUnits="userSpaceOnUse"
     gradientTransform="matrix(2.3975395,0,0,2.3975395,5.2605415,9.7125175)"
     x1="8"
     y1="39"
     x2="38"
     y2="39" /><linearGradient
     xlink:href="#linearGradient4726"
     id="linearGradient4728"
     x1="-122.99237"
     y1="49.330878"
     x2="-66.067142"
     y2="49.330878"
     gradientUnits="userSpaceOnUse"
     gradientTransform="matrix(1.0275169,0,0,1.0275169,156.89082,-0.40812069)" /><linearGradient
     xlink:href="#linearGradient4970"
     id="linearGradient4972"
     x1="-68.601753"
     y1="43.729202"
     x2="-48.519718"
     y2="47.959911"
     gradientUnits="userSpaceOnUse"
     gradientTransform="matrix(1.0275169,0,0,1.0275169,156.89082,-0.40812069)" /></defs>
<style
   type="text/css"
   id="style2">
	.st0{fill:url(#SVGID_1_);}
	.st1{fill:url(#SVGID_00000062171159965967627490000013605884846004172698_);}
	.st2{fill:url(#SVGID-2_00000085966066984138215510000013018799571900533434_);}
	.st3{clip-path:url(#SVGID_00000023257072852279316340000004281102206337855156_);}
	.st4{fill:url(#SVGID_00000177446033621631838710000001370584907163434138_);}
	.st5{clip-path:url(#SVGID_00000136385553608229244970000014654043435100792964_);}
	.st6{fill:url(#SVGID_00000126306410582640054500000000964390405037519506_);}
	.st7{fill:url(#SVGID_00000109020757643166282930000006684795936706346369_);}
</style>
<radialGradient
   id="SVGID_1_"
   cx="514.5"
   cy="477.5"
   r="496.5"
   gradientTransform="matrix(1,0,0,-1,-18,974)"
   gradientUnits="userSpaceOnUse">
	<stop
   offset="0.9134"
   style="stop-color:#000000"
   id="stop4" />
	<stop
   offset="1"
   style="stop-color:#000000;stop-opacity:0"
   id="stop6" />
</radialGradient>

<radialGradient
   id="SVGID_00000163033830155146975860000008434547654242457221_"
   cx="512.05908"
   cy="481.87881"
   r="486.27271"
   gradientTransform="matrix(0.11104257,0,0,-0.11104257,7.1350999,117.51141)"
   gradientUnits="userSpaceOnUse">
	<stop
   offset="0.99"
   style="stop-color:#FFFFFF"
   id="stop11" />
	<stop
   offset="0.9951"
   style="stop-color:#FDFDFD"
   id="stop13" />
	<stop
   offset="0.9969"
   style="stop-color:#F6F6F6"
   id="stop15" />
	<stop
   offset="0.9982"
   style="stop-color:#EBEBEB"
   id="stop17" />
	<stop
   offset="0.9992"
   style="stop-color:#DADADA"
   id="stop19" />
	<stop
   offset="1"
   style="stop-color:#C7C7C7"
   id="stop21" />
</radialGradient>

<radialGradient
   id="SVGID-2_00000052072577768947982130000002178866272689676469_"
   cx="512.06152"
   cy="481.87881"
   r="444.12241"
   gradientTransform="matrix(1,0,0,-1,-18,974)"
   gradientUnits="userSpaceOnUse">
	<stop
   offset="0.99"
   style="stop-color:#000000;stop-opacity:0.5"
   id="stop26" />
	<stop
   offset="1"
   style="stop-color:#000000;stop-opacity:0"
   id="stop28" />
</radialGradient>



<radialGradient
   id="SVGID_00000092427181212153090570000016417065628950216588_"
   cx="578.89008"
   cy="482.3703"
   r="353.94269"
   gradientTransform="matrix(0.11104257,0,0,-0.1218248,7.1350999,118.45626)"
   gradientUnits="userSpaceOnUse">
	<stop
   offset="0"
   style="stop-color:#C2C0C2"
   id="stop66" />
	<stop
   offset="1"
   style="stop-color:#EBEBEB"
   id="stop68" />
</radialGradient>

		
	
		
	
<path
   id="path1906-3"
   style="color:#000000;fill:url(#linearGradient2010);fill-rule:evenodd;stroke-width:2.39754px;-inkscape-stroke:none"
   d="m 60.404577,93.625733 c -9.706755,0 -18.499608,1.347259 -24.96946,3.578245 -3.234922,1.115494 -5.893128,2.446695 -7.818767,4.015742 -1.448408,1.18019 -3.168287,1.74968 -3.168287,1.74968 0,0 -0.0062,3.31694 -0.0062,3.84347 0,2.12454 1.249214,4.02409 3.174863,5.59314 1.925649,1.56905 4.583845,2.90025 7.818767,4.01574 C 41.90538,118.65274 50.698233,120 60.404988,120 c 9.706763,0 18.49961,-1.34726 24.969464,-3.57825 3.234925,-1.11549 5.893113,-2.44669 7.81876,-4.01574 1.925647,-1.56905 3.174867,-3.4686 3.174867,-5.59314 0,-0.39455 -4.13e-4,-3.87225 -4.13e-4,-3.87225 0,0 -1.606422,-0.44324 -3.174454,-1.7209 -1.92564,-1.569045 -4.583835,-2.900248 -7.81876,-4.015741 -6.469854,-2.230986 -15.262701,-3.578245 -24.969464,-3.578246 z" /><path
   id="path1906"
   style="color:#000000;fill:url(#linearGradient3233);fill-rule:evenodd;stroke-width:2.39754px;-inkscape-stroke:none"
   d="m 60.404575,89.515663 c -9.706753,0 -18.499606,1.347263 -24.969458,3.578247 -3.234922,1.115492 -5.893118,2.4467 -7.818767,4.015745 -1.925649,1.569045 -3.174863,3.468605 -3.174863,5.593145 0,2.12454 1.249214,4.02409 3.174863,5.59314 1.925649,1.56905 4.583845,2.90025 7.818767,4.01575 6.469852,2.23098 15.262705,3.57824 24.969458,3.57824 9.706763,0 18.49961,-1.34726 24.969464,-3.57824 3.234925,-1.1155 5.893113,-2.4467 7.81876,-4.01575 1.925647,-1.56905 3.174867,-3.4686 3.174867,-5.59314 0,-2.12454 -1.24922,-4.0241 -3.174867,-5.593145 C 91.267152,95.54061 88.608964,94.209402 85.374039,93.09391 78.904185,90.862926 70.111338,89.515663 60.404575,89.515663 Z" /><path
   style="color:#000000;display:inline;overflow:visible;visibility:visible;opacity:0.2;fill:url(#radialGradient7116);fill-opacity:1;fill-rule:evenodd;stroke:none;stroke-width:2.39754px;marker:none;enable-background:accumulate"
   d="m 81.981797,102.7028 c 0,4.63205 -8.592782,8.39139 -19.180316,8.39139 -10.587537,0 -19.180312,-3.75934 -19.180312,-8.39139 0,-4.632044 8.592775,-8.391389 19.180312,-8.391389 10.587534,0 19.180316,3.759345 19.180316,8.391389 z"
   id="path7114" /><path
   style="color:#000000;display:inline;overflow:visible;visibility:visible;fill:#c4a000;fill-opacity:1;fill-rule:evenodd;stroke:none;stroke-width:3.31268px;marker:none;enable-background:accumulate"
   d="m 77.186718,99.106493 c 0,3.970327 -7.518684,7.192617 -16.782776,7.192617 -9.264093,0 -16.782773,-3.22229 -16.782773,-7.192617 0,-3.970325 7.51868,-7.192618 16.782773,-7.192618 9.264092,0 16.782776,3.222293 16.782776,7.192618 z"
   id="path3578" /><path
   id="path2034-1-0"
   style="color:#000000;fill:#c4a000;fill-opacity:1;stroke-width:2.39754;stroke-linecap:round;stroke-linejoin:round;-inkscape-stroke:none"
   d="m 103.56026,25.468451 c -4.687989,0 -8.472862,2.235417 -10.963525,5.571068 -2.490661,3.33565 -4.253245,9.514652 -4.253245,14.057992 -1.97e-4,0.160611 0.03188,0.319625 0.09433,0.4676 l 2.886567,3.875389 c 0.511008,1.199671 2.299457,0.836368 2.301879,-0.4676 0,-3.306261 1.055532,-6.94185 2.91598,-9.65304 1.860448,-2.711189 4.412884,-4.475317 7.616064,-4.475317 3.32905,0 5.34902,1.238411 6.76315,3.321368 1.41175,2.079454 2.12292,5.117054 2.22762,8.525179 v 21.62602 c -0.20639,2.524267 -1.25837,4.474652 -2.93203,6.132991 -1.67715,1.661786 -3.99712,2.991818 -6.61063,4.04384 -5.227005,2.104049 -11.556478,3.085783 -16.006782,3.937478 -0.310828,0.05914 -0.585671,0.238769 -0.764617,0.49971 -0.390385,0.571307 -1.183441,1.271015 -2.055034,1.94867 -0.871593,0.677655 -1.806604,1.333067 -2.542703,2.085137 -0.859101,0.873464 -0.0095,2.321051 1.172012,1.99683 5.65412,-1.532028 14.415723,-2.372105 21.999294,-4.850598 3.79179,-1.239245 7.31632,-2.896262 10.02832,-5.360347 2.71201,-2.464084 4.57049,-5.78196 4.90278,-10.034344 0.002,-0.03073 0.003,-0.06153 0.002,-0.09231 V 42.249889 c 3e-4,-0.02811 -3.8e-4,-0.05623 -0.002,-0.08429 -0.67846,-9.573371 -7.54215,-16.697149 -16.77943,-16.697149 z" /><path
   id="path2034-1"
   style="color:#000000;fill:url(#linearGradient4972);fill-opacity:1;stroke-width:2.39754;stroke-linecap:round;stroke-linejoin:round;-inkscape-stroke:none"
   d="m 103.56026,29.578518 c -4.687989,0 -8.472862,2.235418 -10.963525,5.571069 -2.490661,3.335649 -3.764886,7.738698 -3.764886,12.282038 a 1.1988878,1.1988878 0 0 0 0.09433,0.4676 l 2.398208,5.651343 a 1.1988878,1.1988878 0 0 0 2.301879,-0.4676 c 0,-3.306261 1.055532,-6.94185 2.91598,-9.653041 1.860448,-2.711189 4.412884,-4.475317 7.616064,-4.475317 3.32905,0 5.34902,1.238412 6.76315,3.321368 1.41175,2.079454 2.12292,5.117055 2.22762,8.52518 v 21.626019 c -0.20639,2.524267 -1.25837,4.474653 -2.93203,6.132992 -1.67715,1.661786 -3.99712,2.991818 -6.61063,4.04384 -5.227005,2.104048 -11.556478,3.085782 -16.006782,3.937478 a 1.1988878,1.1988878 0 0 0 -0.764617,0.49971 c -0.390385,0.571306 -1.183441,1.271015 -2.055034,1.948669 -0.871593,0.677656 -1.806604,1.333068 -2.542703,2.085137 a 1.1988878,1.1988878 0 0 0 1.172012,1.99683 c 5.65412,-1.532027 14.415723,-2.372105 21.999294,-4.850598 3.79179,-1.239245 7.31632,-2.896262 10.02832,-5.360347 2.71201,-2.464083 4.57049,-5.78196 4.90278,-10.034344 a 1.1988878,1.1988878 0 0 0 0.002,-0.09231 V 46.359956 a 1.1988878,1.1988878 0 0 0 -0.002,-0.08429 c -0.67846,-9.573372 -7.54215,-16.69715 -16.77943,-16.69715 z" /><path
   id="path2025"
   style="color:#000000;fill:url(#linearGradient2846);fill-rule:evenodd;stroke-width:2.39754px;-inkscape-stroke:none"
   d="m 59.627917,36.771134 c -9.276461,0 -17.687324,1.893834 -23.88174,5.039248 -6.194417,3.145413 -10.32935,7.656037 -10.32935,12.926242 0,1.992315 -0.165348,6.399111 0.168574,11.47327 -1.364902,-0.936981 -2.333162,-2.038265 -2.85176,-3.542123 -0.725509,-2.103843 -0.874098,-4.856795 -1.137903,-7.957236 l -0.09433,-1.09575 H 10.925211 l 0.100389,1.290416 c 1.245987,16.12946 7.903238,27.745051 17.010213,35.302832 9.106985,7.557781 20.606656,11.077457 31.568052,11.296667 h 0.01204 0.01204 c 9.328801,0 21.220907,-2.645586 28.499545,-15.107711 3.639429,-6.231247 5.051552,-13.011905 5.569062,-18.802355 0.517509,-5.790451 0.142488,-10.669953 0.142488,-12.85801 0,-5.270204 -4.134929,-9.780828 -10.329355,-12.926242 -6.194426,-3.145414 -14.605264,-5.039248 -23.88174,-5.039248 z" /><path
   style="color:#000000;fill:url(#linearGradient4728);fill-opacity:1;stroke-width:1.05435;-inkscape-stroke:none"
   d="m 59.760888,36.771134 c -7.871619,0 -14.884761,1.28469 -20.345438,3.421403 -2.669458,1.044537 -4.719591,2.719499 -6.297014,4.331835 -1.577413,1.612338 -2.604355,3.574147 -2.604355,5.755818 0,2.181672 1.026942,4.143483 2.604355,5.755819 1.577423,1.612335 3.747169,2.971622 6.378116,4.109689 5.261914,2.276136 12.392717,3.64355 20.264336,3.64355 7.87153,0 15.002316,-1.367414 20.264236,-3.64355 2.630957,-1.138067 4.798828,-2.497354 6.376236,-4.109689 1.577412,-1.612336 2.604355,-3.574147 2.604355,-5.755819 0,-2.181671 -1.026943,-4.14348 -2.604355,-5.755818 -1.577408,-1.612336 -3.487491,-3.074443 -6.137408,-4.167638 -5.304005,-2.188111 -12.631534,-3.5856 -20.503064,-3.5856 z"
   id="path2065" /><path
   style="color:#000000;fill:#816a24;fill-rule:evenodd;stroke-width:2.39753px;-inkscape-stroke:none"
   d="m 20.844562,54.752013 a 4.7950792,2.3975403 0 0 1 -4.795083,2.39754 4.7950792,2.3975403 0 0 1 -4.795082,-2.39754 4.7950792,2.3975403 0 0 1 4.795082,-2.397541 4.7950792,2.3975403 0 0 1 4.795083,2.397541 z"
   id="path2052" /><path
   style="color:#000000;fill:#c4a000;fill-rule:evenodd;stroke-width:1.02752;-inkscape-stroke:none"
   d="m 16.04876,51.15637 c -1.486087,0 -2.839553,0.285892 -3.925433,0.828836 -1.08589,0.542946 -2.067076,1.457553 -2.067076,2.767473 0,1.309921 0.981186,2.224528 2.067076,2.767472 1.08588,0.542944 2.439346,0.828838 3.925433,0.828838 1.486087,0 2.841547,-0.285894 3.927437,-0.828838 1.08589,-0.542944 2.067076,-1.457551 2.067076,-2.767472 0,-1.30992 -0.981186,-2.224527 -2.067076,-2.767473 -1.08589,-0.542944 -2.44135,-0.828836 -3.927437,-0.828836 z m 0,2.396202 c 1.162152,0 2.206182,0.251177 2.855767,0.575971 0.649597,0.324794 0.740542,0.609933 0.740542,0.624136 0,0.0142 -0.09093,0.297336 -0.740542,0.622129 -0.649585,0.324794 -1.693615,0.575972 -2.855767,0.575972 -1.162163,0 -2.204188,-0.251178 -2.853774,-0.575972 -0.649586,-0.324793 -0.742535,-0.607925 -0.742535,-0.622129 0,-0.0142 0.09299,-0.299342 0.742535,-0.624136 0.649586,-0.324794 1.691611,-0.575971 2.853774,-0.575971 z"
   id="path2054" /><path
   id="path2043"
   style="color:#000000;fill:url(#radialGradient5934);fill-rule:evenodd;stroke-width:2.39754px;-inkscape-stroke:none"
   d="m 60.404575,31.974717 c -2.547664,0 -4.877344,0.728389 -6.630696,1.980779 -1.753355,1.252392 -2.960133,3.103513 -2.960133,5.211839 0,2.108323 1.025503,4.842785 2.659101,7.298983 1.633602,2.456196 3.970411,4.690052 6.931728,4.690052 2.961317,0 5.296122,-2.233856 6.929718,-4.690052 1.633596,-2.456198 2.659102,-5.190661 2.659102,-7.298983 0,-2.108325 -1.206783,-3.959447 -2.960132,-5.211839 -1.753349,-1.25239 -4.081024,-1.980779 -6.628688,-1.980779 z" /><circle
   style="color:#000000;display:inline;overflow:visible;visibility:visible;fill:url(#radialGradient18099);fill-opacity:1;fill-rule:evenodd;stroke:none;stroke-width:1.91802px;marker:none;enable-background:accumulate"
   id="path17708"
   cx="14.850703"
   cy="48.758163"
   r="4.7950792" /><circle
   id="path18109"
   style="color:#000000;display:inline;overflow:visible;visibility:visible;fill:url(#radialGradient18124);fill-opacity:1;fill-rule:evenodd;stroke:none;stroke-width:2.15779px;marker:none;enable-background:accumulate"
   cx="20.844563"
   cy="18.788921"
   r="10.788927" /><ellipse
   style="color:#000000;display:inline;overflow:visible;visibility:visible;fill:url(#radialGradient18126);fill-opacity:1;fill-rule:evenodd;stroke:none;stroke-width:2.09785px;marker:none;enable-background:accumulate"
   id="path18105"
   cx="16.049479"
   cy="30.776619"
   rx="8.3913879"
   ry="8.391387" /><ellipse
   id="path18101"
   style="color:#000000;display:inline;overflow:visible;visibility:visible;fill:url(#radialGradient18128);fill-opacity:1;fill-rule:evenodd;stroke:none;stroke-width:1.99794px;marker:none;enable-background:accumulate"
   cx="18.447012"
   cy="40.366776"
   rx="5.9938488"
   ry="5.9938493" /><path
   style="color:#000000;fill:url(#radialGradient17172);stroke-width:2.39754;stroke-linecap:round;-inkscape-stroke:none"
   d="m 60.403942,69.13725 -5.99385,9.590151 5.99385,9.590165 5.993848,-9.590165 z"
   id="path7152" /><path
   style="color:#000000;fill:#a40000;stroke-linecap:round;-inkscape-stroke:none"
   d="m 60.404297,66.875 -1.017578,1.626953 -6.390625,10.224609 7.408203,11.853516 7.40625,-11.853516 z m 0,4.525391 4.580078,7.326171 -4.580078,7.328125 -4.580078,-7.328125 z"
   id="path7154" /><path
   style="color:#000000;fill:url(#radialGradient11865);stroke-width:2.39754;stroke-linecap:round;-inkscape-stroke:none"
   d="m 38.826097,64.12237 -3.596309,7.192621 3.596309,7.192614 3.596299,-7.192614 z"
   id="path7160" /><path
   style="color:#000000;fill:#a40000;stroke-linecap:round;-inkscape-stroke:none"
   d="m 38.826172,61.441406 -1.072266,2.144531 -3.865234,7.728516 4.9375,9.873047 4.935547,-9.873047 z m 0,5.361328 2.255859,4.511719 -2.255859,4.511719 -2.25586,-4.511719 z"
   id="path7162" /><path
   style="color:#000000;fill:url(#radialGradient14259);stroke-width:2.39754;stroke-linecap:round;-inkscape-stroke:none"
   d="m 81.981797,64.342167 -3.59631,7.19262 3.59631,7.192614 3.59631,-7.192614 z"
   id="path7168" /><path
   style="color:#000000;fill:#a40000;stroke-linecap:round;-inkscape-stroke:none"
   d="m 81.982422,61.662109 -1.072266,2.144532 -3.865234,7.728515 4.9375,9.873047 4.935547,-9.873047 z m 0,5.361328 2.255859,4.511719 -2.255859,4.511719 -2.25586,-4.511719 z"
   id="path7170" /></svg>
