<?xml version="1.0" encoding="UTF-8" standalone="no"?>
<!-- Generator: Adobe Illustrator 26.0.2, SVG Export Plug-In . SVG Version: 6.00 Build 0)  -->

<svg
   version="1.0"
   id="Layer_1"
   x="0px"
   y="0px"
   viewBox="0 0 128 128"
   xml:space="preserve"
   width="128"
   height="128"
   xmlns:xlink="http://www.w3.org/1999/xlink"
   xmlns="http://www.w3.org/2000/svg"
   xmlns:svg="http://www.w3.org/2000/svg"><defs
   id="defs76"><linearGradient
     id="linearGradient52"
     gradientUnits="userSpaceOnUse"
     x1="0"
     y1="269.46301"
     x2="118.926"
     y2="269.46301"
     gradientTransform="matrix(1,0,0,0.98333333,0,-168.03333)"><stop
       offset="0"
       stop-color="#e5a50a"
       id="stop49"
       style="stop-color:#1a1a1a;stop-opacity:1;" /><stop
       offset="0.3465206"
       stop-color="#fbdf9b"
       id="stop50"
       style="stop-color:#999999;stop-opacity:1;" /><stop
       offset="0.63647676"
       stop-color="#e5a50a"
       id="stop51"
       style="stop-color:#1a1a1a;stop-opacity:1;" /><stop
       offset="1"
       stop-color="#f8ca5b"
       id="stop52"
       style="stop-color:#808080;stop-opacity:1;" /></linearGradient><linearGradient
     id="linearGradient32"
     gradientUnits="userSpaceOnUse"
     x1="0"
     y1="269.46301"
     x2="118.926"
     y2="269.46301"
     gradientTransform="matrix(1,0,0,0.98333333,0,-168.03333)"><stop
       offset="0"
       stop-color="#e5a50a"
       id="stop29"
       style="stop-color:#1a1a1a;stop-opacity:1;" /><stop
       offset="0.414"
       stop-color="#fbdf9b"
       id="stop30"
       style="stop-color:#999999;stop-opacity:1;" /><stop
       offset="0.81300002"
       stop-color="#e5a50a"
       id="stop31"
       style="stop-color:#1a1a1a;stop-opacity:1;" /><stop
       offset="1"
       stop-color="#f8ca5b"
       id="stop32"
       style="stop-color:#808080;stop-opacity:1;" /></linearGradient><linearGradient
     xlink:href="#linearGradient32"
     id="linearGradient29"
     x1="-125.99959"
     y1="166.48149"
     x2="-7.0823612"
     y2="166.48149"
     gradientUnits="userSpaceOnUse"
     gradientTransform="matrix(0.91779279,0,0,0.91779279,123.9901,-84.503304)" /><linearGradient
     xlink:href="#linearGradient32"
     id="linearGradient42"
     x1="-139"
     y1="140"
     x2="-109"
     y2="140"
     gradientUnits="userSpaceOnUse"
     gradientTransform="matrix(0.91779279,0,0,0.91779279,146.6609,-21.25789)" /><linearGradient
     xlink:href="#linearGradient52"
     id="linearGradient45"
     x1="-131"
     y1="75.000008"
     x2="-101"
     y2="75.000008"
     gradientUnits="userSpaceOnUse"
     gradientTransform="matrix(0.91779279,0,0,0.91779279,124.23085,-11.862158)" /><linearGradient
     xlink:href="#linearGradient32"
     id="linearGradient47"
     gradientUnits="userSpaceOnUse"
     x1="-131"
     y1="75.000008"
     x2="-101"
     y2="75.000008"
     gradientTransform="matrix(0.91779279,0,0,0.91779279,197.34252,30.797915)" /><linearGradient
     xlink:href="#linearGradient32"
     id="linearGradient48"
     gradientUnits="userSpaceOnUse"
     x1="-131"
     y1="75.000008"
     x2="-101"
     y2="75.000008"
     gradientTransform="matrix(0.91779279,0,0,0.91779279,216.69707,-19.284421)" /><linearGradient
     xlink:href="#linearGradient32"
     id="linearGradient49"
     gradientUnits="userSpaceOnUse"
     x1="-131"
     y1="75.000008"
     x2="-101"
     y2="75.000008"
     gradientTransform="matrix(0.91779279,0,0,0.91779279,166.52436,-42.684288)" /></defs>
<style
   type="text/css"
   id="style2">
	.st0{fill:url(#SVGID_1_);}
	.st1{fill:url(#SVGID_00000062171159965967627490000013605884846004172698_);}
	.st2{fill:url(#SVGID-2_00000085966066984138215510000013018799571900533434_);}
	.st3{clip-path:url(#SVGID_00000023257072852279316340000004281102206337855156_);}
	.st4{fill:url(#SVGID_00000177446033621631838710000001370584907163434138_);}
	.st5{clip-path:url(#SVGID_00000136385553608229244970000014654043435100792964_);}
	.st6{fill:url(#SVGID_00000126306410582640054500000000964390405037519506_);}
	.st7{fill:url(#SVGID_00000109020757643166282930000006684795936706346369_);}
</style>
<radialGradient
   id="SVGID_1_"
   cx="514.5"
   cy="477.5"
   r="496.5"
   gradientTransform="matrix(1,0,0,-1,-18,974)"
   gradientUnits="userSpaceOnUse">
	<stop
   offset="0.9134"
   style="stop-color:#000000"
   id="stop4" />
	<stop
   offset="1"
   style="stop-color:#000000;stop-opacity:0"
   id="stop6" />
</radialGradient>

<radialGradient
   id="SVGID_00000163033830155146975860000008434547654242457221_"
   cx="512.05908"
   cy="481.87881"
   r="486.27271"
   gradientTransform="matrix(0.11104257,0,0,-0.11104257,7.1350999,117.51141)"
   gradientUnits="userSpaceOnUse">
	<stop
   offset="0.99"
   style="stop-color:#FFFFFF"
   id="stop11" />
	<stop
   offset="0.9951"
   style="stop-color:#FDFDFD"
   id="stop13" />
	<stop
   offset="0.9969"
   style="stop-color:#F6F6F6"
   id="stop15" />
	<stop
   offset="0.9982"
   style="stop-color:#EBEBEB"
   id="stop17" />
	<stop
   offset="0.9992"
   style="stop-color:#DADADA"
   id="stop19" />
	<stop
   offset="1"
   style="stop-color:#C7C7C7"
   id="stop21" />
</radialGradient>

<radialGradient
   id="SVGID-2_00000052072577768947982130000002178866272689676469_"
   cx="512.06152"
   cy="481.87881"
   r="444.12241"
   gradientTransform="matrix(1,0,0,-1,-18,974)"
   gradientUnits="userSpaceOnUse">
	<stop
   offset="0.99"
   style="stop-color:#000000;stop-opacity:0.5"
   id="stop26" />
	<stop
   offset="1"
   style="stop-color:#000000;stop-opacity:0"
   id="stop28" />
</radialGradient>



<radialGradient
   id="SVGID_00000092427181212153090570000016417065628950216588_"
   cx="578.89008"
   cy="482.3703"
   r="353.94269"
   gradientTransform="matrix(0.11104257,0,0,-0.1218248,7.1350999,118.45626)"
   gradientUnits="userSpaceOnUse">
	<stop
   offset="0"
   style="stop-color:#C2C0C2"
   id="stop66" />
	<stop
   offset="1"
   style="stop-color:#EBEBEB"
   id="stop68" />
</radialGradient>

		
	
		
	
<path
   id="path46"
   style="fill:url(#linearGradient48);fill-opacity:1;stroke-width:1.12932"
   d="M 124,49.550039 A 13.766891,13.766891 0 0 1 110.23311,63.316947 13.766891,13.766891 0 0 1 96.466215,49.550039 13.766891,13.766891 0 0 1 110.23311,35.783146 13.766891,13.766891 0 0 1 124,49.550039 Z" /><path
   style="fill:url(#linearGradient29);stroke-width:0.917793"
   d="m 69.297174,20.125074 -0.100379,0.0037 C 40.170808,21.307742 13.640191,42.090334 9.0042816,68.424003 6.6864326,81.590291 10.63352,93.914192 18.947639,102.62254 c 8.314111,8.70834 20.801297,13.8368 35.234635,13.8368 28.866689,0 56.205936,-19.821974 62.200186,-46.068893 C 119.3797,57.266442 116.15592,44.710632 108.37507,35.571683 100.59423,26.432734 88.447722,20.720621 74.115586,20.128745 l -0.102178,-0.0037 z m 0.274264,9.927224 h 4.162337 c 11.940251,0.499857 21.282287,5.142521 27.082055,11.954609 5.80438,6.817502 8.25383,15.816488 5.88857,26.17322 -4.73028,20.712445 -28.328126,38.351913 -52.522126,38.351913 -12.096996,0 -21.822011,-4.23724 -28.053622,-10.764347 -6.23162,-6.527104 -9.163344,-15.309518 -7.34772,-25.622911 3.62998,-20.619656 26.37741,-39.08696 50.790506,-40.092484 z"
   id="path1-6" /><path
   id="path45"
   style="fill:url(#linearGradient49);fill-opacity:1;stroke-width:1.12932"
   d="m 73.827289,26.150172 c 0,0 -0.570179,-0.08096 -0.569481,0.230991 l 0.0083,3.672766 c 0.01101,4.96678 -6.958301,9.863151 -13.205579,9.863151 -6.308871,0 -10.666065,-5.062061 -10.666065,-5.062061 l 0.0018,-3.670002 c 8.26e-4,-1.991529 -3.102333,-2.910433 -3.102333,-5.034845 9e-6,-7.603245 6.163649,-13.766893 13.766892,-13.766893 7.603243,0 13.766883,6.163648 13.766892,13.766893 z" /><path
   id="path35-6"
   style="fill:url(#linearGradient42);stroke-width:1.12932"
   d="m 46.621488,107.2331 c 0,2.356 -2.814559,2.42681 -2.80528,4.62855 l 0.01551,3.68115 c 0,0 -5.726183,5.4572 -10.977123,5.4572 -7.603253,0 -13.766901,-6.16365 -13.766892,-13.7669 0,-7.603245 6.163648,-13.766892 13.766892,-13.766892 7.603243,0 13.766882,6.163647 13.766892,13.766892 z" /><path
   id="path47"
   style="fill:url(#linearGradient47);fill-opacity:1;stroke-width:1.12932"
   d="M 104.64545,99.632378 A 13.766891,13.766891 0 0 1 90.878555,113.39928 13.766891,13.766891 0 0 1 77.111665,99.632378 13.766891,13.766891 0 0 1 90.878555,85.865483 13.766891,13.766891 0 0 1 104.64545,99.632378 Z" /><path
   id="path37-7"
   style="fill:url(#linearGradient45);stroke-width:1.12932"
   d="M 31.533782,56.972302 A 13.766891,13.766891 0 0 1 17.76689,70.739209 13.766891,13.766891 0 0 1 3.999998,56.972302 13.766891,13.766891 0 0 1 17.76689,43.205409 13.766891,13.766891 0 0 1 31.533782,56.972302 Z" /><path
   style="fill:#666666;stroke-width:0.917793"
   d="m 69.298881,16.453944 -0.102178,0.0036 C 40.170726,17.636526 13.640099,38.419125 9.004199,64.752789 c -2.3178582,13.166286 1.631028,25.490194 9.945148,34.198537 8.31411,8.708344 20.799497,13.836804 35.232844,13.836804 28.866688,0 56.205939,-19.823769 62.200179,-46.07069 2.99725,-13.124008 -0.22654,-25.679814 -8.00738,-34.818764 C 100.59414,22.759725 88.447636,17.049404 74.115503,16.457529 l -0.102178,-0.0036 z m 0.259928,9.927219 h 4.189219 c 11.932994,0.50316 21.270405,5.143616 27.067712,11.952818 5.80438,6.817502 8.25384,15.816491 5.88858,26.173227 -4.73029,20.712438 -28.328138,38.353702 -52.522129,38.353702 -12.096995,0 -21.82201,-4.239041 -28.053631,-10.766141 C 19.896949,85.567668 16.965225,76.787045 18.78084,66.473651 22.410196,45.857582 45.150532,27.392582 69.558809,26.381163 Z"
   id="path1" /><path
   id="path32"
   style="fill:#000000;fill-opacity:1;stroke-width:1.12932"
   d="M 124,45.878876 A 13.766891,13.766891 0 0 1 110.23311,59.645767 13.766891,13.766891 0 0 1 96.466215,45.878876 13.766891,13.766891 0 0 1 110.23311,32.111983 13.766891,13.766891 0 0 1 124,45.878876 Z" /><path
   id="path33"
   style="fill:#000000;fill-opacity:1;stroke-width:1.12932"
   d="M 73.827289,22.479009 A 13.766891,13.766891 0 0 1 60.060397,36.2459 13.766891,13.766891 0 0 1 46.293505,22.479009 13.766891,13.766891 0 0 1 60.060397,8.712116 13.766891,13.766891 0 0 1 73.827289,22.479009 Z" /><path
   id="path34"
   style="fill:#000000;fill-opacity:1;stroke-width:1.12932"
   d="M 31.533782,53.301139 A 13.766891,13.766891 0 0 1 17.76689,67.068031 13.766891,13.766891 0 0 1 3.999998,53.301139 13.766891,13.766891 0 0 1 17.76689,39.534246 13.766891,13.766891 0 0 1 31.533782,53.301139 Z" /><path
   id="path35"
   style="fill:#000000;fill-opacity:1;stroke-width:1.12932"
   d="M 46.621488,103.56193 A 13.766891,13.766891 0 0 1 32.854596,117.32883 13.766891,13.766891 0 0 1 19.087704,103.56193 13.766891,13.766891 0 0 1 32.854596,89.795037 13.766891,13.766891 0 0 1 46.621488,103.56193 Z" /><path
   id="path37"
   style="fill:#000000;fill-opacity:1;stroke-width:1.12932"
   d="M 104.64545,95.961202 A 13.766891,13.766891 0 0 1 90.878556,109.72811 13.766891,13.766891 0 0 1 77.111665,95.961202 13.766891,13.766891 0 0 1 90.878556,82.19431 13.766891,13.766891 0 0 1 104.64545,95.961202 Z" /><path
   id="path36"
   style="fill:#9999ff;fill-opacity:1;stroke-width:0.828164"
   d="M 100.97428,95.961205 A 10.095715,10.095715 0 0 1 90.878559,106.05693 10.095715,10.095715 0 0 1 80.782838,95.961205 10.095715,10.095715 0 0 1 90.878559,85.865494 10.095715,10.095715 0 0 1 100.97428,95.961205 Z" /><path
   id="path38"
   style="fill:#9999ff;fill-opacity:1;stroke-width:0.828164"
   d="m 120.32882,45.878871 a 10.095715,10.095715 0 0 1 -10.09571,10.09572 10.095715,10.095715 0 0 1 -10.09572,-10.09572 10.095715,10.095715 0 0 1 10.09572,-10.095712 10.095715,10.095715 0 0 1 10.09571,10.095712 z" /><path
   id="path39"
   style="fill:#9999ff;fill-opacity:1;stroke-width:0.828164"
   d="M 70.156118,22.479004 A 10.095715,10.095715 0 0 1 60.060397,32.574724 10.095715,10.095715 0 0 1 49.964676,22.479004 10.095715,10.095715 0 0 1 60.060397,12.383292 10.095715,10.095715 0 0 1 70.156118,22.479004 Z" /><path
   id="path40"
   style="fill:#9999ff;fill-opacity:1;stroke-width:0.828164"
   d="M 27.862611,53.301133 A 10.095715,10.095715 0 0 1 17.76689,63.396855 10.095715,10.095715 0 0 1 7.6711692,53.301133 10.095715,10.095715 0 0 1 17.76689,43.205422 10.095715,10.095715 0 0 1 27.862611,53.301133 Z" /><path
   id="path41"
   style="fill:#9999ff;fill-opacity:1;stroke-width:0.828164"
   d="M 42.950316,103.56193 A 10.095715,10.095715 0 0 1 32.854596,113.65765 10.095715,10.095715 0 0 1 22.758875,103.56193 10.095715,10.095715 0 0 1 32.854596,93.466217 10.095715,10.095715 0 0 1 42.950316,103.56193 Z" /></svg>
