<?xml version="1.0" encoding="UTF-8" standalone="no"?>
<svg
   width="128"
   height="128"
   version="1.1"
   id="svg198"
   xml:space="preserve"
   xmlns:xlink="http://www.w3.org/1999/xlink"
   xmlns="http://www.w3.org/2000/svg"
   xmlns:svg="http://www.w3.org/2000/svg"><defs
     id="defs202"><linearGradient
       id="linearGradient3713"><stop
         style="stop-color:#27241b;stop-opacity:1;"
         offset="0.10323507"
         id="stop3709" /><stop
         style="stop-color:#645b44;stop-opacity:1;"
         offset="0.1787595"
         id="stop3717" /><stop
         style="stop-color:#27241b;stop-opacity:1;"
         offset="0.25384152"
         id="stop3719" /><stop
         style="stop-color:#27241b;stop-opacity:1;"
         offset="0.80385375"
         id="stop3721" /><stop
         style="stop-color:#645b44;stop-opacity:1;"
         offset="0.92694664"
         id="stop3723" /><stop
         style="stop-color:#27241b;stop-opacity:1;"
         offset="1"
         id="stop3711" /></linearGradient><linearGradient
       id="linearGradient1212"><stop
         style="stop-color:#2e2e2e;stop-opacity:1;"
         offset="0"
         id="stop1208" /><stop
         style="stop-color:#3f3f3f;stop-opacity:1;"
         offset="0.03878957"
         id="stop1216" /><stop
         style="stop-color:#2e2e2e;stop-opacity:1;"
         offset="0.07460255"
         id="stop1218" /><stop
         style="stop-color:#2e2e2e;stop-opacity:1;"
         offset="0.92561918"
         id="stop1220" /><stop
         style="stop-color:#3f3f3f;stop-opacity:1;"
         offset="0.956801"
         id="stop1222" /><stop
         style="stop-color:#2e2e2e;stop-opacity:1;"
         offset="1"
         id="stop1210" /></linearGradient><linearGradient
       gradientUnits="userSpaceOnUse"
       y2="359.92355"
       x2="944.20746"
       y1="350.85599"
       x1="953.27502"
       id="linearGradient1492"
       xlink:href="#linearGradient27905"
       gradientTransform="matrix(0.32031245,0,0,0.32031245,-226.36397,-33.749973)" /><linearGradient
       id="linearGradient27905"><stop
         id="stop27901"
         offset="0"
         style="stop-color:#e9b96e;stop-opacity:1;" /><stop
         id="stop27903"
         offset="1"
         style="stop-color:#dc9321;stop-opacity:1" /></linearGradient><linearGradient
       y2="216.9192"
       x2="428.91922"
       y1="227"
       x1="418.83841"
       gradientUnits="userSpaceOnUse"
       id="linearGradient1506"
       xlink:href="#linearGradient27913"
       gradientTransform="matrix(0.32031245,0,0,0.32031245,-34.176503,34.156267)" /><linearGradient
       id="linearGradient27913"><stop
         id="stop27909"
         offset="0"
         style="stop-color:#bcbcb4;stop-opacity:1" /><stop
         id="stop27911"
         offset="1"
         style="stop-color:#eeeeec;stop-opacity:1" /></linearGradient><radialGradient
       r="39.999989"
       fy="225.39462"
       fx="450.94806"
       cy="225.39462"
       cx="450.94806"
       gradientTransform="matrix(0.52738859,0,0,0.52738859,-131.96177,-18.016258)"
       gradientUnits="userSpaceOnUse"
       id="radialGradient1425"
       xlink:href="#linearGradient27897" /><linearGradient
       id="linearGradient27897"><stop
         id="stop27893"
         offset="0"
         style="stop-color:#505050;stop-opacity:1" /><stop
         id="stop27895"
         offset="1"
         style="stop-color:#000000;stop-opacity:1" /></linearGradient><linearGradient
       xlink:href="#linearGradient1212"
       id="linearGradient1214"
       x1="10.262313"
       y1="61.102797"
       x2="41.201903"
       y2="61.102797"
       gradientUnits="userSpaceOnUse" /><radialGradient
       r="39.999989"
       fy="225.39462"
       fx="450.94806"
       cy="225.39462"
       cx="450.94806"
       gradientTransform="matrix(0.52738859,0,0,0.52738859,-39.12533,54.458155)"
       gradientUnits="userSpaceOnUse"
       id="radialGradient1425-3"
       xlink:href="#linearGradient27897" /><radialGradient
       xlink:href="#linearGradient27897"
       id="radialGradient1029"
       cx="19.876457"
       cy="52.067337"
       fx="19.876457"
       fy="52.067337"
       r="15.469795"
       gradientTransform="matrix(1,0,0,1.0625001,-1.8357087,-1.1319855)"
       gradientUnits="userSpaceOnUse" /><linearGradient
       xlink:href="#linearGradient3713"
       id="linearGradient3715"
       x1="19.829378"
       y1="55.137799"
       x2="116.5156"
       y2="55.137799"
       gradientUnits="userSpaceOnUse" /></defs><path
     style="fill:url(#linearGradient3715);fill-opacity:1;fill-rule:evenodd;stroke-width:1.93373"
     d="m 113.0305,12.61946 c -0.86896,-0.1383 -1.64962,0.352689 -2.11896,0.911735 -0.4693,0.559322 -0.79494,1.25225 -1.07852,2.125534 -0.49044,1.511168 -2.29156,7.120435 -8.78629,12.664413 -6.494735,5.544264 -17.694659,14.714183 -37.10611,15.214307 -11.803453,0.138301 -18.977225,-6.85722 -23.683927,-16.183402 -1.174629,-2.32747 -3.023734,-6.66484 -3.023734,-3.905021 v 4.267114 l -0.05996,22.08437 0.119833,0.290725 c 0,0 1.057424,2.352086 -0.05994,5.521027 -1.117349,3.169213 -6.352589,7.793955 -16.199688,10.753492 l -1.203826,0.358223 0.228779,1.269401 c 0.546191,3.075165 2.723337,6.226953 5.937413,9.453703 3.214082,3.226477 7.517444,6.490849 12.52849,9.44209 10.022096,5.902486 22.858528,10.566817 35.330336,10.7848 12.471802,0.218534 24.674323,-4.148736 32.748374,-16.244414 8.07405,-12.095412 12.01172,-35.17961 8.78628,-65.244977 h -0.006 c -0.10235,-0.825428 -0.2842,-1.53025 -0.60988,-2.14794 -0.32567,-0.617412 -0.87414,-1.255017 -1.74309,-1.392773 z"
     id="path166-5" /><path
     style="fill:#645b44;fill-rule:evenodd;stroke-width:1.93373"
     d="m 113.034,8.0236031 c -0.86895,-0.1383073 -1.64962,0.3526881 -2.11894,0.9117333 -0.46933,0.559322 -0.79496,1.2522516 -1.07854,2.1255346 -0.49044,1.511166 -2.29155,7.120432 -8.78629,12.664411 C 94.555499,29.269547 83.355574,38.439464 63.944124,38.939589 52.14067,39.07789 44.966899,32.082368 40.260197,22.756187 c -1.17463,-2.32747 -3.023734,-6.66484 -3.023734,-3.905022 v 4.267115 l -0.05995,22.084369 0.119833,0.290726 c 0,0 1.057424,2.352086 -0.05994,5.521027 -1.117348,3.169212 -6.352588,7.793956 -16.199683,10.753492 l -1.203827,0.358221 0.228781,1.269402 c 0.546189,3.075165 2.723335,6.226955 5.937412,9.453704 3.214077,3.226477 7.51744,6.490849 12.528486,9.44209 10.022095,5.90248 22.858528,10.566816 35.330336,10.784793 12.471801,0.218538 24.674325,-4.148723 32.748379,-16.244407 8.07404,-12.095413 12.01171,-35.17961 8.78627,-65.244974 h -0.006 c -0.10234,-0.82543 -0.28419,-1.530252 -0.60987,-2.1479415 -0.32567,-0.6174115 -0.87414,-1.2550175 -1.7431,-1.3927722 z"
     id="path166" /><path
     style="fill:#ffffff;fill-rule:evenodd;stroke-width:1.56302"
     d="m 46.123399,40.268222 c -2.706715,0 -5.427032,0.894763 -7.498069,2.735716 -2.071039,1.840945 -3.441008,4.646464 -3.441008,8.207358 0,3.560891 1.369969,6.362469 3.441008,8.20342 2.071037,1.840952 4.791354,2.735714 7.498069,2.735714 2.706718,0 5.427034,-0.894762 7.498072,-2.735714 2.071042,-1.840951 3.445059,-4.642529 3.445059,-8.20342 0,-3.560894 -1.374017,-6.366413 -3.445059,-8.207358 -2.071038,-1.840953 -4.791354,-2.735716 -7.498072,-2.735716 z"
     id="path174" /><path
     style="fill:#000000;fill-opacity:1;fill-rule:evenodd;stroke-width:1.56302"
     d="m 47.68844,48.083298 c -1.148987,0 -2.310551,0.379812 -3.205404,1.17526 -0.894846,0.795452 -1.48364,2.020605 -1.48364,3.513782 0,1.493181 0.588794,2.718334 1.48364,3.513786 0.894853,0.795446 2.056417,1.175259 3.205404,1.175259 1.148987,0 2.310551,-0.379813 3.2054,-1.175259 0.894851,-0.795452 1.483646,-2.020605 1.483646,-3.513786 0,-1.493177 -0.588795,-2.71833 -1.483646,-3.513782 -0.894849,-0.795448 -2.056413,-1.17526 -3.2054,-1.17526 z"
     id="path176" /><path
     style="fill:#27241b;fill-opacity:1;fill-rule:evenodd;stroke-width:1.93373"
     d="m 46.905055,76.433698 c 5.304357,0 10.140192,0.270772 14.526483,0 7.286555,-0.45809 13.691507,-1.264855 16.929695,-3.800871 -1.369726,-1.794295 -1.751762,-3.762549 -1.751762,-3.762549 0,0 4.120191,1.713117 6.260451,4.515111 2.134128,2.794178 -0.665753,3.443899 -1.224274,7.018876 -1.243378,-3.139829 -2.106022,-3.245737 -2.420223,-4.493451 -2.259801,3.168569 -6.152164,5.441125 -11.387424,5.565165 -5.572572,0.131087 -12.666667,-2.076916 -20.932943,-5.037238 z"
     id="path178" /><path
     style="fill:url(#radialGradient1029);fill-opacity:1;fill-rule:evenodd;stroke-width:1.93373"
     d="m 19.961833,45.377784 c -0.686432,0 -1.35958,0.0411 -2.013912,0.142438 -1.744885,0.268466 -3.360435,0.911687 -4.753265,1.887477 -5.5713168,3.903436 -7.0385782,12.749927 -0.157,22.013633 6.881583,9.26398 15.986197,10.701642 21.557513,6.798209 5.57132,-3.903437 7.043998,-12.749929 0.162415,-22.013636 -4.516032,-6.079376 -9.990728,-8.786768 -14.795747,-8.827585 z"
     id="path182" /><path
     style="fill:#ffffff;fill-rule:evenodd;stroke-width:2.04103"
     d="m 71.306186,36.215825 c -3.534494,0 -7.086751,1.168403 -9.791162,3.572364 -2.704414,2.403951 -4.493351,6.067467 -4.493351,10.71737 0,4.649901 1.788937,8.30827 4.493351,10.712228 2.704411,2.403959 6.256668,3.572362 9.791162,3.572362 3.534501,0 7.086756,-1.168403 9.79117,-3.572362 2.704412,-2.403958 4.49864,-6.062327 4.49864,-10.712228 0,-4.649903 -1.794228,-8.313419 -4.49864,-10.71737 -2.704414,-2.403961 -6.256669,-3.572364 -9.79117,-3.572364 z"
     id="path184" /><path
     style="fill:#000000;fill-opacity:1;fill-rule:evenodd;stroke-width:2.04103"
     d="m 73.349858,46.420944 c -1.500375,0 -3.017174,0.495968 -4.185693,1.534686 -1.168514,1.038717 -1.937378,2.638553 -1.937378,4.58838 0,1.949832 0.768864,3.549668 1.937378,4.588385 1.168519,1.038715 2.685318,1.534685 4.185693,1.534685 1.500373,0 3.017173,-0.49597 4.185692,-1.534685 1.168515,-1.038717 1.937377,-2.638553 1.937377,-4.588385 0,-1.949827 -0.768862,-3.549663 -1.937377,-4.58838 -1.168519,-1.038718 -2.685319,-1.534686 -4.185692,-1.534686 z"
     id="path186" /><path
     id="path1899"
     d="m 72.012081,77.873914 34.593739,34.593746 c 1.49163,1.55329 3.96813,1.57837 5.49089,0.0556 1.5228,-1.52276 1.49773,-3.99927 -0.0555,-5.4909 L 82.727535,77.71876 c -3.325567,-2.852286 -7.997898,-2.562403 -10.715454,0.155154 z"
     style="color:#000000;font-style:normal;font-variant:normal;font-weight:normal;font-stretch:normal;font-size:medium;line-height:normal;font-family:sans-serif;font-variant-ligatures:normal;font-variant-position:normal;font-variant-caps:normal;font-variant-numeric:normal;font-variant-alternates:normal;font-feature-settings:normal;text-indent:0;text-align:start;text-decoration:none;text-decoration-line:none;text-decoration-style:solid;text-decoration-color:#000000;letter-spacing:normal;word-spacing:normal;text-transform:none;writing-mode:lr-tb;direction:ltr;text-orientation:mixed;dominant-baseline:auto;baseline-shift:baseline;text-anchor:start;white-space:normal;shape-padding:0;clip-rule:nonzero;display:inline;overflow:visible;visibility:visible;isolation:auto;mix-blend-mode:normal;color-interpolation:sRGB;color-interpolation-filters:linearRGB;solid-color:#000000;solid-opacity:1;fill:url(#linearGradient1492);fill-opacity:1;fill-rule:nonzero;stroke:none;stroke-width:1.27396;stroke-linecap:round;stroke-linejoin:miter;stroke-miterlimit:4;stroke-dasharray:none;stroke-dashoffset:0;stroke-opacity:1;color-rendering:auto;image-rendering:auto;shape-rendering:auto;text-rendering:auto;enable-background:accumulate" /><path
     id="path1899-3"
     d="m 91.332176,86.635583 a 5.1255117,5.1255117 0 0 0 -3.570356,8.801082 l 17.9375,17.937505 a 5.1255117,5.1255117 0 1 0 7.24832,-7.24833 L 95.010138,88.188349 a 5.1255117,5.1255117 0 0 0 -3.677962,-1.552766 z"
     style="color:#000000;font-style:normal;font-variant:normal;font-weight:normal;font-stretch:normal;font-size:medium;line-height:normal;font-family:sans-serif;font-variant-ligatures:normal;font-variant-position:normal;font-variant-caps:normal;font-variant-numeric:normal;font-variant-alternates:normal;font-feature-settings:normal;text-indent:0;text-align:start;text-decoration:none;text-decoration-line:none;text-decoration-style:solid;text-decoration-color:#000000;letter-spacing:normal;word-spacing:normal;text-transform:none;writing-mode:lr-tb;direction:ltr;text-orientation:mixed;dominant-baseline:auto;baseline-shift:baseline;text-anchor:start;white-space:normal;shape-padding:0;clip-rule:nonzero;display:inline;overflow:visible;visibility:visible;isolation:auto;mix-blend-mode:normal;color-interpolation:sRGB;color-interpolation-filters:linearRGB;solid-color:#000000;solid-opacity:1;fill:url(#linearGradient1506);fill-opacity:1;fill-rule:nonzero;stroke:none;stroke-width:1.69861;stroke-linecap:round;stroke-linejoin:miter;stroke-miterlimit:4;stroke-dasharray:none;stroke-dashoffset:0;stroke-opacity:1;color-rendering:auto;image-rendering:auto;shape-rendering:auto;text-rendering:auto;enable-background:new" /><path
     id="path1901"
     d="m 106.7609,94.375011 c -7.076146,0 -12.812503,5.736349 -12.812503,12.812499 0,7.07614 5.736357,12.81249 12.812503,12.81249 h 12.8125 v -12.81249 c 0,-7.07615 -5.73635,-12.812499 -12.8125,-12.812499 z"
     style="fill:url(#radialGradient1425);fill-opacity:1;stroke:none;stroke-width:1.27396;stroke-linecap:round;stroke-linejoin:miter;stroke-miterlimit:4;stroke-dasharray:none;stroke-dashoffset:0;stroke-opacity:1;marker:none;marker-start:none;marker-mid:none;marker-end:none;paint-order:normal" /><circle
     r="2.0355482"
     transform="scale(1,-1)"
     cy="-100.89493"
     cx="105.47965"
     id="circle21711-7-41-9"
     style="color:#000000;display:inline;overflow:visible;visibility:visible;fill:#7a8599;fill-opacity:1;fill-rule:nonzero;stroke:none;stroke-width:0.38031;marker:none;enable-background:new" /><circle
     r="2.0355482"
     transform="scale(1,-1)"
     cy="-49.473343"
     cx="45.702126"
     id="circle21711-7-41-9-5"
     style="color:#000000;display:inline;overflow:visible;visibility:visible;fill:#ffffff;fill-opacity:1;fill-rule:nonzero;stroke:none;stroke-width:0.38031;marker:none;enable-background:new" /><circle
     r="2.1484969"
     transform="scale(1,-1)"
     cy="-47.912971"
     cx="70.340813"
     id="circle21711-7-41-9-6"
     style="color:#000000;display:inline;overflow:visible;visibility:visible;fill:#ffffff;fill-opacity:1;fill-rule:nonzero;stroke:none;stroke-width:0.401412;marker:none;enable-background:new" /><circle
     r="2.0355482"
     transform="scale(1,-1)"
     cy="-54.377888"
     cx="17.957127"
     id="circle21711-7-41-9-3"
     style="color:#000000;display:inline;overflow:visible;visibility:visible;fill:#7a8599;fill-opacity:1;fill-rule:nonzero;stroke:none;stroke-width:0.38031;marker:none;enable-background:new" /></svg>
