<?xml version="1.0" encoding="UTF-8" standalone="no"?>
<svg
   width="128"
   height="128"
   viewBox="0 0 128 128"
   version="1.1"
   id="svg60"
   sodipodi:docname="github-desktop.svg"
   xml:space="preserve"
   inkscape:version="1.2.2 (b0a8486541, 2022-12-01)"
   xmlns:inkscape="http://www.inkscape.org/namespaces/inkscape"
   xmlns:sodipodi="http://sodipodi.sourceforge.net/DTD/sodipodi-0.dtd"
   xmlns:xlink="http://www.w3.org/1999/xlink"
   xmlns="http://www.w3.org/2000/svg"
   xmlns:svg="http://www.w3.org/2000/svg"><sodipodi:namedview
     id="namedview9412"
     pagecolor="#505050"
     bordercolor="#ffffff"
     borderopacity="1"
     inkscape:showpageshadow="0"
     inkscape:pageopacity="0"
     inkscape:pagecheckerboard="1"
     inkscape:deskcolor="#505050"
     showgrid="false"
     inkscape:zoom="1.0523738"
     inkscape:cx="36.58396"
     inkscape:cy="217.12818"
     inkscape:window-width="1920"
     inkscape:window-height="1048"
     inkscape:window-x="0"
     inkscape:window-y="0"
     inkscape:window-maximized="1"
     inkscape:current-layer="svg60" /><defs
     id="defs40"><linearGradient
       x1="64"
       y1="8"
       x2="64"
       y2="120"
       id="linearGradient987"
       gradientUnits="userSpaceOnUse"
       gradientTransform="matrix(0.98214286,0,0,0.98214286,-240.08506,-125.6957)"><stop
         stop-color="#FEFEFE"
         offset="0"
         id="stop983"
         style="stop-color:#999999;stop-opacity:1;" /><stop
         stop-color="#E0E0E0"
         offset="100%"
         id="stop985" /></linearGradient><circle
       id="b"
       cx="64"
       cy="64"
       r="56" /><filter
       x="-0.042857143"
       y="-0.042857143"
       width="1.0857143"
       height="1.1035714"
       filterUnits="objectBoundingBox"
       id="a"><feMorphology
         radius="1"
         operator="dilate"
         in="SourceAlpha"
         result="shadowSpreadOuter1"
         id="feMorphology3" /><feOffset
         dy="2"
         in="shadowSpreadOuter1"
         result="shadowOffsetOuter1"
         id="feOffset5" /><feGaussianBlur
         stdDeviation="2"
         in="shadowOffsetOuter1"
         result="shadowBlurOuter1"
         id="feGaussianBlur7" /><feComposite
         in="shadowBlurOuter1"
         in2="SourceAlpha"
         operator="out"
         result="shadowBlurOuter1"
         id="feComposite9" /><feColorMatrix
         values="0 0 0 0 0 0 0 0 0 0 0 0 0 0 0 0 0 0 0.240942029 0"
         in="shadowBlurOuter1"
         id="feColorMatrix11" /></filter><linearGradient
       x1="64"
       y1="8"
       x2="64"
       y2="120"
       id="c"
       gradientUnits="userSpaceOnUse"
       gradientTransform="matrix(0.96428571,0,0,0.96428571,2.2857188,0.2857203)"><stop
         stop-color="#FEFEFE"
         offset="0%"
         id="stop14" /><stop
         stop-color="#E0E0E0"
         offset="100%"
         id="stop16" /></linearGradient><circle
       id="d"
       cx="64"
       cy="63"
       r="52" /><linearGradient
       x1="63.225572"
       y1="114.88854"
       x2="63.225572"
       y2="12.146984"
       id="g"
       gradientTransform="scale(1.0122487,0.98789956)"
       gradientUnits="userSpaceOnUse"><stop
         stop-color="#492779"
         offset="0%"
         id="stop20" /><stop
         stop-color="#892793"
         offset="100%"
         id="stop22" /></linearGradient><path
       d="M12 64.034c0 23.025 14.885 42.472 35.555 49.367 2.6.456 3.575-1.105 3.575-2.47 0-1.237-.065-5.334-.065-9.692C38 103.644 34.62 98.05 33.58 95.124c-.585-1.496-3.12-6.114-5.33-7.35-1.82-.976-4.42-3.382-.065-3.447 4.095-.065 7.02 3.772 7.995 5.333 4.68 7.87 12.155 5.66 15.145 4.293.455-3.382 1.82-5.66 3.315-6.96-11.57-1.3-23.66-5.788-23.66-25.69 0-5.66 2.015-10.343 5.33-13.985-.52-1.3-2.34-6.634.52-13.79 0 0 4.355-1.365 14.3 5.334 4.16-1.17 8.58-1.756 13-1.756s8.84.586 13 1.756c9.945-6.764 14.3-5.333 14.3-5.333 2.86 7.154 1.04 12.487.52 13.788 3.315 3.642 5.33 8.26 5.33 13.984 0 19.968-12.155 24.39-23.725 25.692 1.885 1.626 3.51 4.748 3.51 9.626 0 6.96-.065 12.553-.065 14.31 0 1.365.975 2.99 3.575 2.47C101.115 106.507 116 86.995 116 64.035 116 35.284 92.73 12 64 12S12 35.285 12 64.034z"
       id="e" /><filter
       x="0"
       y="0"
       width="1"
       height="1.0098524"
       filterUnits="objectBoundingBox"
       id="f"><feOffset
         dy="1"
         in="SourceAlpha"
         result="shadowOffsetOuter1"
         id="feOffset26" /><feColorMatrix
         values="0 0 0 0 1 0 0 0 0 1 0 0 0 0 1 0 0 0 0.529296875 0"
         in="shadowOffsetOuter1"
         id="feColorMatrix28" /></filter><filter
       x="-0.023076923"
       y="-0.023645708"
       width="1.0461538"
       height="1.0472914"
       filterUnits="objectBoundingBox"
       id="h"><feGaussianBlur
         stdDeviation="1"
         in="SourceAlpha"
         result="shadowBlurInner1"
         id="feGaussianBlur31" /><feOffset
         in="shadowBlurInner1"
         result="shadowOffsetInner1"
         id="feOffset33" /><feComposite
         in="shadowOffsetInner1"
         in2="SourceAlpha"
         operator="arithmetic"
         k2="-1"
         k3="1"
         result="shadowInnerInner1"
         id="feComposite35" /><feColorMatrix
         values="0 0 0 0 0.258823529 0 0 0 0 0.137254902 0 0 0 0 0.431372549 0 0 0 0.703549592 0"
         in="shadowInnerInner1"
         id="feColorMatrix37" /></filter><linearGradient
       xlink:href="#linearGradient1097"
       id="linearGradient1099"
       x1="9.9999962"
       y1="68"
       x2="118"
       y2="68"
       gradientUnits="userSpaceOnUse"
       gradientTransform="translate(1.5e-6,-1.9999943)" /><linearGradient
       id="linearGradient1097"><stop
         style="stop-color:#b2b2b2;stop-opacity:1;"
         offset="0"
         id="stop1093" /><stop
         style="stop-color:#ffffff;stop-opacity:1;"
         offset="0.05234205"
         id="stop1101" /><stop
         style="stop-color:#b2b2b2;stop-opacity:1;"
         offset="0.15255697"
         id="stop1103" /><stop
         style="stop-color:#b2b2b2;stop-opacity:1;"
         offset="0.85064137"
         id="stop1105" /><stop
         style="stop-color:#ffffff;stop-opacity:1;"
         offset="0.94848526"
         id="stop1107" /><stop
         style="stop-color:#b2b2b2;stop-opacity:1;"
         offset="1"
         id="stop1095" /></linearGradient></defs><path
     style="fill:url(#linearGradient1099);fill-opacity:1;stroke:none;stroke-width:0.111043"
     d="M 64.000001,12.000002 C 93.826031,12.000002 118,36.173971 118,66.000008 c 0,29.82603 -24.185069,54.000002 -53.999999,54.000002 -29.81493,0 -54.0000025,-24.173972 -54.0000025,-54.000002 0,-29.826038 24.1739635,-54.000007 54.0000025,-54.000007"
     id="path24-2" /><circle
     fill="url(#c)"
     cx="64"
     cy="62.000004"
     id="circle48"
     style="fill:url(#c);fill-rule:evenodd;stroke-width:0.964286"
     r="54" /><use
     fill="url(#g)"
     xlink:href="#e"
     id="use52"
     style="fill:url(#g);fill-rule:evenodd"
     transform="matrix(0.96153846,0,0,0.96123734,2.4615386,0.32359836)" /></svg>
