<?xml version="1.0" encoding="UTF-8" standalone="no"?>
<svg
   width="128"
   height="128"
   viewBox="0 0 128 128"
   version="1.1"
   id="svg60"
   xml:space="preserve"
   xmlns:xlink="http://www.w3.org/1999/xlink"
   xmlns="http://www.w3.org/2000/svg"
   xmlns:svg="http://www.w3.org/2000/svg"><defs
     id="defs40"><linearGradient
       x1="64"
       y1="8"
       x2="64"
       y2="120"
       id="c"
       gradientUnits="userSpaceOnUse"
       gradientTransform="matrix(1.0714286,0,0,1.0535714,-4.5714233,-5.4285672)"><stop
         stop-color="#FEFEFE"
         offset="0%"
         id="stop14" /><stop
         stop-color="#E0E0E0"
         offset="100%"
         id="stop16" /></linearGradient><linearGradient
       x1="63.225572"
       y1="114.88854"
       x2="63.225572"
       y2="12.146984"
       id="g"
       gradientTransform="scale(1.0122487,0.98789956)"
       gradientUnits="userSpaceOnUse"><stop
         stop-color="#492779"
         offset="0%"
         id="stop20" /><stop
         stop-color="#892793"
         offset="100%"
         id="stop22" /></linearGradient><path
       d="M12 64.034c0 23.025 14.885 42.472 35.555 49.367 2.6.456 3.575-1.105 3.575-2.47 0-1.237-.065-5.334-.065-9.692C38 103.644 34.62 98.05 33.58 95.124c-.585-1.496-3.12-6.114-5.33-7.35-1.82-.976-4.42-3.382-.065-3.447 4.095-.065 7.02 3.772 7.995 5.333 4.68 7.87 12.155 5.66 15.145 4.293.455-3.382 1.82-5.66 3.315-6.96-11.57-1.3-23.66-5.788-23.66-25.69 0-5.66 2.015-10.343 5.33-13.985-.52-1.3-2.34-6.634.52-13.79 0 0 4.355-1.365 14.3 5.334 4.16-1.17 8.58-1.756 13-1.756s8.84.586 13 1.756c9.945-6.764 14.3-5.333 14.3-5.333 2.86 7.154 1.04 12.487.52 13.788 3.315 3.642 5.33 8.26 5.33 13.984 0 19.968-12.155 24.39-23.725 25.692 1.885 1.626 3.51 4.748 3.51 9.626 0 6.96-.065 12.553-.065 14.31 0 1.365.975 2.99 3.575 2.47C101.115 106.507 116 86.995 116 64.035 116 35.284 92.73 12 64 12S12 35.285 12 64.034z"
       id="e" /><linearGradient
       id="a-9"
       gradientUnits="userSpaceOnUse"
       x1="0"
       y1="269.46301"
       x2="118.926"
       y2="269.46301"
       gradientTransform="matrix(1,0,0,0.98333333,-4e-7,-168.03333)"><stop
         offset="0"
         stop-color="#e5a50a"
         id="stop1"
         style="stop-color:#787878;stop-opacity:1;" /><stop
         offset="0.414"
         stop-color="#fbdf9b"
         id="stop2"
         style="stop-color:#cbcbcb;stop-opacity:1;" /><stop
         offset="0.81300002"
         stop-color="#e5a50a"
         id="stop3"
         style="stop-color:#787878;stop-opacity:1;" /><stop
         offset="1"
         stop-color="#f8ca5b"
         id="stop4"
         style="stop-color:#a9a9a9;stop-opacity:1;" /></linearGradient></defs><path
     d="M 124,66.000002 C 124,98.584718 97.137,125 63.999999,125 30.862999,125 3.9999996,98.584718 3.9999996,66.000002 3.9999996,33.415282 30.862999,7.0000021 63.999999,7.0000021 97.137,7.0000021 124,33.415282 124,66.000002 Z m 0,0"
     fill="url(#a)"
     id="path4"
     style="fill:url(#a-9);stroke-width:0.991632" /><ellipse
     fill="url(#c)"
     cx="64"
     cy="62.000004"
     id="circle48"
     style="fill:url(#c);fill-rule:evenodd;stroke-width:1.06246"
     rx="60"
     ry="59" /><use
     fill="url(#g)"
     xlink:href="#e"
     id="use52"
     style="fill:url(#g);fill-rule:evenodd"
     transform="matrix(1.0683761,0,0,1.0502408,-4.3760679,-5.3871819)" /></svg>
