<?xml version="1.0" encoding="UTF-8" standalone="no"?>
<svg
   width="128"
   height="128"
   viewBox="0 0 128 128"
   fill="none"
   version="1.1"
   id="svg12"
   xmlns:xlink="http://www.w3.org/1999/xlink"
   xmlns="http://www.w3.org/2000/svg"
   xmlns:svg="http://www.w3.org/2000/svg">
  <defs
     id="defs16">
    <linearGradient
       id="linearGradient872">
      <stop
         style="stop-color:#16191d;stop-opacity:1;"
         offset="0"
         id="stop868" />
      <stop
         style="stop-color:#1aa89c;stop-opacity:1;"
         offset="0.41234729"
         id="stop876" />
      <stop
         style="stop-color:#16191d;stop-opacity:1;"
         offset="0.80509162"
         id="stop878" />
      <stop
         style="stop-color:#137c73;stop-opacity:1;"
         offset="1"
         id="stop882" />
    </linearGradient>
    <linearGradient
       xlink:href="#linearGradient872"
       id="linearGradient874"
       x1="9.982774"
       y1="65.982775"
       x2="118.01723"
       y2="65.982775"
       gradientUnits="userSpaceOnUse"
       gradientTransform="matrix(1.1107567,0,0,1.0922442,-7.0884315,-6.0693016)" />
  </defs>
  <path
     fill-rule="evenodd"
     clip-rule="evenodd"
     d="M 63.999999,125 C 97.136798,125 124,98.584521 124,65.999999 124,33.415185 97.136798,6.9999996 63.999999,6.9999996 30.862901,6.9999996 4.000002,33.415185 4.000002,65.999999 4.000002,98.584521 30.862901,125 63.999999,125 Z"
     fill="#0dbd8b"
     id="path2-6"
     style="fill:url(#linearGradient874);fill-opacity:1;stroke-width:0.594978" />
  <path
     fill-rule="evenodd"
     clip-rule="evenodd"
     d="M 63.999998,121 C 97.136798,121 124,94.58452 124,62 124,29.415185 97.136798,2.9999994 63.999998,2.9999994 30.862898,2.9999994 3.9999978,29.415185 3.9999978,62 c 0,32.58452 26.8629002,59 60.0000002,59 z"
     fill="#0dbd8b"
     id="path2"
     style="fill:#22272e;fill-opacity:1;stroke-width:0.594979" />
  <path
     class="cls-1"
     d="m 107.67671,49.475904 a 1.8657815,1.8346852 0 0 0 -3.58804,0.645164 1.8247753,1.7943624 0 0 0 0.1179,0.640123 42.948855,42.233042 0 0 1 -34.578471,56.713949 V 87.767396 a 29.847379,29.349923 0 0 0 3.731563,-0.977827 V 103.3471 a 39.468455,38.810648 0 0 0 9.738969,-71.683772 1.8606557,1.8296448 0 0 0 -2.562886,0.801415 1.9067877,1.8750079 0 0 0 -0.19478,0.811495 1.8504042,1.8195641 0 0 0 0.95852,1.597789 35.747144,35.151358 0 0 1 -4.223637,63.45289 V 83.639354 a 5.7203631,5.6250238 0 0 0 4.028858,-5.332683 5.6383507,5.5443783 0 0 0 -2.808924,-4.858892 c 1.342952,-12.666384 7.22734,-9.319596 7.22734,-13.351871 v -2.363921 c 0,-6.048413 -14.229147,-25.761198 -20.892652,-26.209788 -0.205031,0 -0.410062,0 -0.615093,0 -0.205031,0 -0.415188,0 -0.620219,0 -6.663505,0.473792 -20.908029,20.161375 -20.908029,26.23499 v 2.338719 c 0,4.032275 5.86901,0.685487 7.206837,13.351871 a 5.6383507,5.5443783 0 0 0 -2.798672,4.858892 5.7203631,5.6250238 0 0 0 4.039109,5.332683 v 14.687563 a 35.747144,35.151358 0 0 1 -4.20826,-63.468011 1.8657815,1.8346852 0 0 0 -0.917513,-3.437514 1.809398,1.7792414 0 0 0 -0.891885,0.226815 39.468455,38.810648 0 0 0 9.73897,71.683773 V 86.774448 a 29.847379,29.349923 0 0 0 3.731563,0.977827 V 107.47514 A 42.948855,42.233042 0 0 1 23.829314,50.761191 1.85553,1.8246045 0 0 0 22.804159,48.432552 1.8196496,1.7893221 0 0 0 22.076299,48.281342 1.8657815,1.8346852 0 0 0 20.32841,49.475904 46.675293,45.897372 0 0 0 62.108589,111.47213 V 88.231108 C 62.77494,88.26639 64,88.286552 64,88.286552 c 0,0 1.22506,0 1.89141,-0.05544 V 111.45197 A 46.675293,45.897372 0 0 0 107.67159,49.455742 Z M 72.616425,75.640329 a 3.8340785,3.7701772 0 1 1 -1.122545,2.666342 3.823827,3.7600965 0 0 1 1.122545,-2.666342 z m -17.217473,5.332684 a 3.8340785,3.7701772 0 1 1 1.122544,-2.666342 3.8084496,3.7449755 0 0 1 -1.122544,2.666342 z"
     id="path1"
     style="fill:#179287;stroke-width:1.10146" />
</svg>
