<?xml version="1.0" encoding="UTF-8" standalone="no"?>
<svg
   height="1024"
   width="1024"
   version="1.1"
   id="svg18"
   xmlns:xlink="http://www.w3.org/1999/xlink"
   xmlns="http://www.w3.org/2000/svg"
   xmlns:svg="http://www.w3.org/2000/svg">
  <defs
     id="defs22">
    <linearGradient
       id="linearGradient1151">
      <stop
         style="stop-color:#262627;stop-opacity:1;"
         offset="0"
         id="stop1147" />
      <stop
         style="stop-color:#3f3f41;stop-opacity:1;"
         offset="0.10352725"
         id="stop1159" />
      <stop
         style="stop-color:#000000;stop-opacity:1;"
         offset="0.5"
         id="stop1155" />
      <stop
         style="stop-color:#3e3e41;stop-opacity:1;"
         offset="0.89713544"
         id="stop1157" />
      <stop
         style="stop-color:#262627;stop-opacity:1;"
         offset="1"
         id="stop1149" />
    </linearGradient>
    <linearGradient
       id="linearGradient1076">
      <stop
         style="stop-color:#262627;stop-opacity:1;"
         offset="0"
         id="stop1072" />
      <stop
         style="stop-color:#3f3f41;stop-opacity:1;"
         offset="0.09838867"
         id="stop1084" />
      <stop
         style="stop-color:#000000;stop-opacity:1;"
         offset="0.5"
         id="stop1080" />
      <stop
         style="stop-color:#3f3f41;stop-opacity:1;"
         offset="0.89903039"
         id="stop1082" />
      <stop
         style="stop-color:#262627;stop-opacity:1;"
         offset="1"
         id="stop1074" />
    </linearGradient>
    <linearGradient
       id="linearGradient1062">
      <stop
         style="stop-color:#2e6ea3;stop-opacity:1;"
         offset="0"
         id="stop1058" />
      <stop
         style="stop-color:#5998c5;stop-opacity:1;"
         offset="0.10065569"
         id="stop1070" />
      <stop
         style="stop-color:#1e5081;stop-opacity:1;"
         offset="0.5"
         id="stop1066" />
      <stop
         style="stop-color:#5998c5;stop-opacity:1;"
         offset="0.89675176"
         id="stop1068" />
      <stop
         style="stop-color:#2e6ea3;stop-opacity:1;"
         offset="1"
         id="stop1060" />
    </linearGradient>
    <linearGradient
       id="linearGradient1048">
      <stop
         style="stop-color:#2e6ea3;stop-opacity:1;"
         offset="0"
         id="stop1044" />
      <stop
         style="stop-color:#5998c5;stop-opacity:1;"
         offset="0.10105097"
         id="stop1056" />
      <stop
         style="stop-color:#1e5081;stop-opacity:1;"
         offset="0.5"
         id="stop1052" />
      <stop
         style="stop-color:#5998c5;stop-opacity:1;"
         offset="0.90401787"
         id="stop1054" />
      <stop
         style="stop-color:#2e6ea3;stop-opacity:1;"
         offset="1"
         id="stop1046" />
    </linearGradient>
    <linearGradient
       id="linearGradient1034">
      <stop
         style="stop-color:#2e6ea3;stop-opacity:1;"
         offset="0"
         id="stop1030" />
      <stop
         style="stop-color:#5998c5;stop-opacity:1;"
         offset="0.09976051"
         id="stop1042" />
      <stop
         style="stop-color:#1e5081;stop-opacity:1;"
         offset="0.5"
         id="stop1038" />
      <stop
         style="stop-color:#5998c5;stop-opacity:1;"
         offset="0.89215958"
         id="stop1040" />
      <stop
         style="stop-color:#2e6ea3;stop-opacity:1;"
         offset="1"
         id="stop1032" />
    </linearGradient>
    <linearGradient
       id="linearGradient834">
      <stop
         style="stop-color:#2e6ea3;stop-opacity:1;"
         offset="0"
         id="stop830" />
      <stop
         style="stop-color:#5998c5;stop-opacity:1;"
         offset="0.05290876"
         id="stop840" />
      <stop
         style="stop-color:#1e5081;stop-opacity:1;"
         offset="0.5"
         id="stop838" />
      <stop
         style="stop-color:#5998c5;stop-opacity:1;"
         offset="0.94523114"
         id="stop842" />
      <stop
         style="stop-color:#2e6ea3;stop-opacity:1;"
         offset="1"
         id="stop832" />
    </linearGradient>
    <linearGradient
       xlink:href="#linearGradient834"
       id="linearGradient836"
       x1="104.47414"
       y1="851.33051"
       x2="919.47589"
       y2="851.33051"
       gradientUnits="userSpaceOnUse" />
    <linearGradient
       xlink:href="#linearGradient1034"
       id="linearGradient1036"
       x1="207.62891"
       y1="486.74316"
       x2="389.21484"
       y2="486.74316"
       gradientUnits="userSpaceOnUse"
       gradientTransform="translate(9e-5,-18.00044)" />
    <linearGradient
       xlink:href="#linearGradient1048"
       id="linearGradient1050"
       x1="634.78711"
       y1="486.74316"
       x2="816.37305"
       y2="486.74316"
       gradientUnits="userSpaceOnUse"
       gradientTransform="translate(9e-5,-18.00044)" />
    <linearGradient
       xlink:href="#linearGradient1062"
       id="linearGradient1064"
       x1="482.76758"
       y1="512.78809"
       x2="541.24805"
       y2="512.78809"
       gradientUnits="userSpaceOnUse" />
    <linearGradient
       xlink:href="#linearGradient1076"
       id="linearGradient1078"
       x1="656.6239"
       y1="565.06451"
       x2="777.16479"
       y2="565.06451"
       gradientUnits="userSpaceOnUse" />
    <linearGradient
       xlink:href="#linearGradient1151"
       id="linearGradient1153"
       x1="246.82597"
       y1="565.06451"
       x2="367.36685"
       y2="565.06451"
       gradientUnits="userSpaceOnUse" />
  </defs>
  <path
     id="path3176"
     style="display:inline;fill:#2e6ea3;fill-opacity:1;stroke-width:4.16261"
     d="m 293.97265,119.20899 v 45 c 0.89913,34.71606 3.14365,67.97976 7.69337,101.76757 -15.26842,9.78211 -31.31511,18.17761 -45.57618,29.62891 -14.49,11.14744 -29.28965,21.81235 -42.41015,34.84961 C 187.4678,313.11785 146.34883,299.31145 48,346.42773 l 2e-6,45.00001 c 18.493001,29.02867 38.329547,58.20575 56.699218,80.95898 v 197.78321 25.12109 22.86133 c 0.44956,0.004 0.89835,0.0209 1.34375,0.0625 l 150.66992,14.52735 c 7.89229,0.76176 14.07749,7.1145 14.62695,15.02344 l 4.64649,66.50976 131.42969,9.37891 9.05468,-61.38672 c 1.17386,-7.95889 8.00031,-13.85742 16.05079,-13.85742 h 158.96094 c 8.04633,0 14.87301,5.89853 16.04687,13.85742 l 9.05468,61.38672 131.43361,-9.37891 4.64256,-66.50976 c 0.55362,-7.90894 6.73464,-14.25752 14.62695,-15.02344 l 150.61135,-14.52735 c 0.4454,-0.0416 0.89025,-0.0583 1.33982,-0.0625 v -19.61133 l 0.0624,-0.0196 V 472.38672 C 940.51716,445.67753 960.60763,416.21514 976,391.42774 c 0,-25 0,0 0,-25 0,-20.00001 -139.4776,-53.30989 -165.68944,-35.97266 -13.11639,-13.03726 -27.88966,-23.70217 -42.4004,-34.84961 -14.25694,-11.4513 -30.3232,-19.8468 -45.56252,-29.62891 4.53725,-33.78781 6.78031,-67.05151 7.6836,-101.76757 v -45 c -16.9335,28.45968 -156.0816,61.94532 -169.56833,92.07422 -15.99275,-2.6724 -32.05998,-3.66204 -48.14846,-3.85352 v -0.0254 c -0.11239,0 -0.21675,0.0254 -0.31249,0.0254 -0.0999,0 -0.2048,-0.0254 -0.3047,-0.0254 v 0.0254 c -16.11758,0.19148 -32.1711,1.18112 -48.16797,3.85352 -13.4785,-30.1289 0,0 -169.55664,-92.07422 z m 4.44337,362.18945 c 50.15108,0 90.79882,40.61752 90.79882,90.75195 0,50.16774 -40.64774,90.80859 -90.79882,90.80859 -50.12611,0 -90.78711,-40.64085 -90.78711,-90.80859 0,-50.13443 40.661,-90.75195 90.78711,-90.75195 z m 427.17775,0 c 50.12183,0 90.77926,40.61757 90.77926,90.75195 0,50.16769 -40.65743,90.80859 -90.77926,90.80859 -50.15938,0 -90.80665,-40.6409 -90.80665,-90.80859 0,-50.13438 40.64727,-90.75195 90.80665,-90.75195 z m -213.59963,53.10937 c 16.1426,0 29.2539,11.9082 29.2539,26.56055 v 83.58985 c 0,14.66482 -13.1113,26.5625 -29.2539,26.5625 -16.14256,0 -29.22656,-11.89768 -29.22656,-26.5625 v -83.58985 c 0,-14.65235 13.084,-26.56055 29.22656,-26.56055 z" />
  <path
     d="m 919.26778,673.15214 c 0,0 -1.35285,-8.30025 -2.14374,-8.22532 l -150.6116,14.53168 c -11.98415,1.1572 -21.29175,10.71456 -22.1326,22.72369 l -4.13763,59.30472 -116.51981,8.31273 -7.92561,-53.74763 c -1.76495,-11.95502 -12.20478,-20.96707 -24.28884,-20.96707 H 432.54616 c -12.07989,0 -22.51972,9.01205 -24.28467,20.96707 l -7.92977,53.74763 -116.51981,-8.31273 -4.13763,-59.30472 c -0.84085,-12.0133 -10.14845,-21.57065 -22.13261,-22.72786 L 106.85515,664.92682 c -0.7784,-0.0749 -1.34868,8.23365 -2.12709,8.23365 l -0.20397,32.59324 127.61733,20.57995 4.17926,59.83337 c 0.84501,12.1132 10.61882,21.90782 22.74035,22.77781 l 160.47281,11.44718 c 0.60774,0.0416 1.20716,0.0666 1.80658,0.0666 12.05908,0 22.48226,-9.01622 24.2472,-20.97124 l 8.15456,-55.30445 H 570.3161 l 8.15456,55.30445 c 1.76078,11.95086 12.19645,20.96708 24.27218,20.96708 0.59109,0 1.18218,-0.0208 1.76078,-0.0624 l 160.49363,-11.44718 c 12.11737,-0.86999 21.89534,-10.66461 22.74035,-22.77781 l 4.1751,-59.83337 127.56321,-20.67153 z"
     fill="#ffffff"
     id="path2"
     style="display:inline;stroke-width:4.16261" />
  <path
     d="m 784.09531,763.72327 -4.66629,66.86402 c -0.56195,8.05882 -6.97237,14.4734 -15.03119,15.05201 l -160.48946,11.45134 c -0.39129,0.0291 -0.78257,0.0416 -1.1697,0.0416 -7.97556,0 -14.85635,-5.85263 -16.03437,-13.86149 l -9.20354,-62.41419 H 446.54918 l -9.20353,62.41419 c -1.23629,8.40015 -8.74564,14.4401 -17.20407,13.81987 L 259.65211,845.6393 c -8.05881,-0.57861 -14.46923,-6.99319 -15.03119,-15.05201 l -4.66628,-66.86402 -135.4805,-58.06242 c 0.0624,14.56081 0.24975,75.51209 0.24975,78.68816 0,143.08559 181.51066,211.86025 407.02427,212.65115 h 0.27473 0.2789 c 225.51361,-0.7909 406.96182,-69.56556 406.96182,-212.65115 0,-3.23435 0.1457,-64.1177 0.2123,-78.68684 z"
     fill="#478cbf"
     id="path1098"
     style="display:inline;fill:url(#linearGradient836);fill-opacity:1;stroke-width:4.16261" />
  <path
     d="m 784.09531,718.72312 -4.66628,66.86402 c -0.56196,8.05882 -6.97238,14.4734 -15.03119,15.052 l -160.48947,11.45134 c -0.39128,0.0291 -0.78257,0.0416 -1.16969,0.0416 -7.97556,0 -14.85636,-5.85263 -16.03438,-13.86149 L 577.50077,735.8564 H 446.54919 l -9.20354,62.41419 c -1.23629,8.40015 -8.74564,14.44009 -17.20407,13.81986 L 259.65212,800.63914 c -8.05882,-0.5786 -14.46924,-6.99318 -15.03119,-15.052 l -4.66629,-66.86402 -135.4805,-13.06227 c 0.0624,14.56081 0.24976,30.51194 0.24976,33.68801 0,143.08559 181.51065,211.86025 407.02426,212.65114 h 0.27474 0.27889 c 225.51361,-0.79089 406.96183,-69.56555 406.96183,-212.65114 0,-3.23435 0.19564,-19.11887 0.26224,-33.68801 z"
     fill="#478cbf"
     id="path6"
     style="display:inline;stroke-width:4.16261" />
  <path
     d="m 511.98543,626.21982 c -16.1426,0 -29.22569,-11.89674 -29.22569,-26.56162 v -83.58939 c 0,-14.65239 13.08309,-26.56162 29.22569,-26.56162 16.14261,0 29.25483,11.90923 29.25483,26.56162 v 83.58939 c 0,14.66488 -13.11222,26.56162 -29.25483,26.56162"
     fill="#ffffff"
     id="path12"
     style="display:inline;stroke-width:4.16261" />
  <g
     id="g243"
     style="display:inline">
    <path
       d="m 0,0 c 0,-12.052 -9.765,-21.815 -21.813,-21.815 -12.042,0 -21.81,9.763 -21.81,21.815 0,12.044 9.768,21.802 21.81,21.802 C -9.765,21.802 0,12.044 0,0"
       fill="#ffffff"
       transform="matrix(4.162611,0,0,-4.162611,389.21484,527.15132)"
       id="path8"
       style="display:inline" />
    <path
       d="m 367.36686,542.53744 c 0,33.27592 -26.96956,60.24547 -60.27044,60.24547 -33.28424,0 -60.27045,-26.96955 -60.27045,-60.24547 v -10.00037 h 120.54089 c 0,10.00037 0,-23.27554 0,10.00037"
       fill="#414042"
       id="path10"
       style="display:inline;fill:url(#linearGradient1153);fill-opacity:1;stroke-width:4.16261" />
    <path
       d="m 0,0 c 0,-7.994 -6.479,-14.473 -14.479,-14.473 -7.996,0 -14.479,6.479 -14.479,14.473 0,7.994 6.483,14.479 14.479,14.479 C -6.479,14.479 0,7.994 0,0"
       fill="#414042"
       transform="matrix(4.162611,0,0,-4.162611,367.36686,532.53707)"
       id="path1134"
       style="display:inline" />
  </g>
  <g
     id="g247"
     style="display:inline">
    <path
       d="m 0,0 c 0,-12.052 9.765,-21.815 21.815,-21.815 12.041,0 21.808,9.763 21.808,21.815 0,12.044 -9.767,21.802 -21.808,21.802 C 9.765,21.802 0,12.044 0,0"
       fill="#ffffff"
       transform="matrix(4.162611,0,0,-4.162611,634.78706,527.15132)"
       id="path14"
       style="display:inline" />
    <path
       d="m 777.1648,542.53744 c 0,33.27592 -26.96956,60.24547 -60.27044,60.24547 -33.28424,0 -60.27045,-26.96955 -60.27045,-60.24547 V 532.53707 H 777.1648 c 0,10.00037 0,-23.27554 0,10.00037"
       fill="#414042"
       id="path3279"
       style="display:inline;fill:url(#linearGradient1078);fill-opacity:1;stroke-width:4.16261" />
    <path
       d="m 0,0 c 0,-7.994 6.477,-14.473 14.471,-14.473 8.002,0 14.479,6.479 14.479,14.473 0,7.994 -6.477,14.479 -14.479,14.479 C 6.477,14.479 0,7.994 0,0"
       fill="#414042"
       transform="matrix(4.162611,0,0,-4.162611,656.64056,532.53707)"
       id="path1136"
       style="display:inline" />
  </g>
  <path
     id="path4"
     style="display:none;fill:#2e6ea3;fill-opacity:1;stroke-width:4.16261"
     d="m 417.61523,96.875 c -42.3919,9.42413 -84.32683,22.54498 -123.64258,42.33399 0.89913,34.71606 3.14365,67.97976 7.69337,101.76757 -15.26842,9.78211 -31.31511,18.17761 -45.57618,29.62891 -14.49,11.14744 -29.28965,21.81235 -42.41015,34.84961 -165.67969,40.97265 0,0 -165.67969,40.97265 10e-7,22.5 0,0 2e-6,20.00001 18.493001,29.02867 38.329547,58.20575 56.699218,80.95898 v 197.78321 25.12109 22.86133 c 0.44956,0.004 0.89835,0.0209 1.34375,0.0625 l 150.66992,14.52735 c 7.89229,0.76176 14.07749,7.1145 14.62695,15.02344 l 4.64649,66.50976 131.42969,9.37891 9.05468,-61.38672 c 1.17386,-7.95889 8.00031,-13.85742 16.05079,-13.85742 h 158.96094 c 8.04633,0 14.87301,5.89853 16.04687,13.85742 l 9.05468,61.38672 131.43361,-9.37891 4.64256,-66.50976 c 0.55362,-7.90894 6.73464,-14.25752 14.62695,-15.02344 l 150.61135,-14.52735 c 0.4454,-0.0416 0.89025,-0.0583 1.33982,-0.0625 v -19.61133 l 0.0624,-0.0196 V 447.38672 C 940.51716,420.67753 960.60763,391.21514 976,366.42774 v -20.00001 c -165.68944,-40.97265 -39.97615,-9.88553 -165.68944,-40.97265 -13.11639,-13.03726 -27.88966,-23.70217 -42.4004,-34.84961 -14.25694,-11.4513 -30.3232,-19.8468 -45.56252,-29.62891 4.53725,-33.78781 6.78031,-67.05151 7.6836,-101.76757 -39.3199,-19.78901 -81.24938,-32.90986 -123.6621,-42.33399 -16.9335,28.45968 -32.4195,59.27931 -45.90623,89.40821 -15.99275,-2.6724 -32.05998,-3.66204 -48.14846,-3.85352 v -0.0254 c -0.11239,0 -0.21675,0.0254 -0.31249,0.0254 -0.0999,0 -0.2048,-0.0254 -0.3047,-0.0254 v 0.0254 c -16.11758,0.19148 -32.1711,1.18112 -48.16797,3.85352 -13.4785,-30.1289 -28.95563,-60.94853 -45.91406,-89.40821 z M 298.41602,456.39844 c 50.15108,0 90.79882,40.61752 90.79882,90.75195 0,50.16774 -40.64774,90.80859 -90.79882,90.80859 -50.12611,0 -90.78711,-40.64085 -90.78711,-90.80859 0,-50.13443 40.661,-90.75195 90.78711,-90.75195 z m 427.17775,0 c 50.12183,0 90.77926,40.61757 90.77926,90.75195 0,50.16769 -40.65743,90.80859 -90.77926,90.80859 -50.15938,0 -90.80665,-40.6409 -90.80665,-90.80859 0,-50.13438 40.64727,-90.75195 90.80665,-90.75195 z m -213.59963,53.10937 c 16.1426,0 29.2539,11.9082 29.2539,26.56055 v 83.58985 c 0,14.66482 -13.1113,26.5625 -29.2539,26.5625 -16.14256,0 -29.22656,-11.89768 -29.22656,-26.5625 v -83.58985 c 0,-14.65235 13.084,-26.56055 29.22656,-26.56055 z" />
  <path
     id="path250"
     style="display:inline;fill:#478cbf;fill-opacity:1;stroke-width:4.16261"
     d="m 417.61523,76.874999 c -42.3919,9.424126 -84.32683,22.544984 -123.64258,42.333991 0.89913,34.71606 3.14365,67.97976 7.69337,101.76757 -15.26842,9.78211 -31.31511,18.1776 -45.57618,29.62891 -14.49,11.14743 -29.28965,21.81235 -42.41015,34.84961 C 187.4678,268.11785 159.72493,251.82513 131.14453,237.44336 100.33714,270.59846 71.53117,306.38354 48,346.42773 c 18.493001,29.02868 38.329547,58.20576 56.69922,80.95899 v 197.7832 25.12109 22.86133 c 0.44956,0.004 0.89835,0.0209 1.34375,0.0625 l 150.66992,14.52735 c 7.89229,0.76176 14.07749,7.1145 14.62695,15.02344 l 4.64649,66.50976 131.42969,9.37891 9.05468,-61.38672 c 1.17386,-7.95889 8.00031,-13.85742 16.05079,-13.85742 h 158.96094 c 8.04633,0 14.87301,5.89853 16.04687,13.85742 l 9.05468,61.38672 131.43361,-9.37891 4.64256,-66.50976 c 0.55362,-7.90894 6.73464,-14.25752 14.62695,-15.02344 l 150.61135,-14.52735 c 0.4454,-0.0416 0.89025,-0.0583 1.33982,-0.0625 v -19.61133 l 0.0624,-0.0196 V 427.38672 C 940.51716,400.67752 960.60763,371.21514 976,346.42773 952.47709,306.38354 923.65513,270.59846 892.84765,237.44336 c -28.57204,14.38177 -56.32525,30.67449 -82.53709,48.01172 -13.11639,-13.03726 -27.88966,-23.70218 -42.4004,-34.84961 -14.25694,-11.45131 -30.3232,-19.8468 -45.56252,-29.62891 4.53725,-33.78781 6.78031,-67.05151 7.6836,-101.76757 -39.3199,-19.789007 -81.24938,-32.909865 -123.6621,-42.333991 -16.9335,28.459681 -32.4195,59.279311 -45.90623,89.408201 -15.99275,-2.67239 -32.05998,-3.66203 -48.14846,-3.85351 v -0.0254 c -0.11239,0 -0.21675,0.0254 -0.31249,0.0254 -0.0999,0 -0.2048,-0.0254 -0.3047,-0.0254 v 0.0254 c -16.11758,0.19148 -32.1711,1.18112 -48.16797,3.85351 -13.4785,-30.12889 -28.95563,-60.94852 -45.91406,-89.408201 z M 298.41602,436.39844 c 50.15108,0 90.79882,40.61751 90.79882,90.75195 0,50.16774 -40.64774,90.80859 -90.79882,90.80859 -50.12611,0 -90.78711,-40.64085 -90.78711,-90.80859 0,-50.13444 40.661,-90.75195 90.78711,-90.75195 z m 427.17775,0 c 50.12183,0 90.77926,40.61756 90.77926,90.75195 0,50.16769 -40.65743,90.80859 -90.77926,90.80859 -50.15938,0 -90.80665,-40.6409 -90.80665,-90.80859 0,-50.13439 40.64727,-90.75195 90.80665,-90.75195 z m -213.59963,53.10937 c 16.1426,0 29.2539,11.9082 29.2539,26.56055 v 83.58984 c 0,14.66483 -13.1113,26.5625 -29.2539,26.5625 -16.14256,0 -29.22656,-11.89767 -29.22656,-26.5625 v -83.58984 c 0,-14.65235 13.084,-26.56055 29.22656,-26.56055 z" />
  <path
     id="path247"
     style="display:inline;fill:#2e6ea3;fill-opacity:1;stroke-width:4.16261"
     d="m 919.30078,653.52148 -0.0625,0.0195 v 19.61132 c -0.44956,0.004 -0.89444,0.0209 -1.33984,0.0625 l -150.61133,14.52735 c -7.8923,0.76592 -14.07333,7.11451 -14.62695,15.02343 l -4.64258,66.50977 -131.4336,9.37891 -9.05468,-61.38672 c -1.17386,-7.95888 -8.00056,-13.85742 -16.04688,-13.85742 H 432.52148 c -8.05046,0 -14.87692,5.89854 -16.05078,13.85742 l -9.05468,61.38672 -131.42969,-9.37891 -4.64649,-66.50977 c -0.54946,-7.90892 -6.73467,-14.26168 -14.62695,-15.02343 L 106.04297,673.21484 c -0.4454,-0.0416 -0.89419,-0.0583 -1.34375,-0.0625 v 20 c 0.44956,0.004 0.89835,0.0209 1.34375,0.0625 l 150.66992,14.52735 c 7.89228,0.76176 14.07749,7.1145 14.62695,15.02343 l 4.64649,66.50977 131.42969,9.37891 9.05468,-61.38672 c 1.17386,-7.95888 8.00031,-13.85742 16.05078,-13.85742 h 158.96094 c 8.04632,0 14.87302,5.89854 16.04688,13.85742 l 9.05468,61.38672 131.4336,-9.37891 4.64258,-66.50977 c 0.55362,-7.90893 6.73465,-14.25751 14.62695,-15.02343 l 150.61133,-14.52735 c 0.4454,-0.0416 0.89027,-0.0583 1.33984,-0.0625 v -19.61132 l 0.0625,-0.0195 z" />
  <path
     id="path1024"
     style="display:inline;fill:url(#linearGradient1064);fill-opacity:1;stroke-width:4.16261"
     d="m 511.99414,489.50781 c -16.14254,0 -29.22656,11.90821 -29.22656,26.56055 v 20 c 0,-14.65234 13.08402,-26.56055 29.22656,-26.56055 16.14258,0 29.25391,11.90821 29.25391,26.56055 v -20 c 0,-14.65234 -13.11133,-26.56055 -29.25391,-26.56055 z" />
  <path
     id="path1026"
     style="display:inline;fill:url(#linearGradient1050);fill-opacity:1;stroke-width:4.16261"
     d="m 725.59384,418.398 c -50.15933,0 -90.80664,40.61761 -90.80664,90.75195 0,3.36165 0.21271,6.67077 0.56836,9.9375 5.00958,-45.39374 43.48347,-80.68945 90.23828,-80.68945 46.7198,0 85.20032,35.29571 90.21094,80.68945 0.35572,-3.26672 0.56836,-6.57586 0.56836,-9.9375 0,-50.13434 -40.65752,-90.75195 -90.7793,-90.75195 z" />
  <path
     id="path1028"
     style="display:inline;fill:url(#linearGradient1036);fill-opacity:1;stroke-width:4.16261"
     d="m 298.41611,418.398 c -50.12607,0 -90.78711,40.61756 -90.78711,90.75195 0,3.36164 0.2126,6.67077 0.56836,9.9375 5.01105,-45.39378 43.49495,-80.68945 90.21875,-80.68945 46.74706,0 85.22087,35.29567 90.23046,80.68945 0.35566,-3.26673 0.56836,-6.57585 0.56836,-9.9375 0,-50.13439 -40.64779,-90.75195 -90.79882,-90.75195 z" />
</svg>
