<?xml version="1.0" encoding="UTF-8" standalone="no"?>
<!-- Generator: Adobe Illustrator 24.0.3, SVG Export Plug-In . SVG Version: 6.00 Build 0)  -->

<svg
   version="1.1"
   id="Layer_1"
   x="0px"
   y="0px"
   viewBox="0 0 128 128"
   xml:space="preserve"
   width="128"
   height="128"
   sodipodi:docname="google-messages.svg"
   inkscape:version="1.3.2 (091e20ef0f, 2023-11-25)"
   xmlns:inkscape="http://www.inkscape.org/namespaces/inkscape"
   xmlns:sodipodi="http://sodipodi.sourceforge.net/DTD/sodipodi-0.dtd"
   xmlns:xlink="http://www.w3.org/1999/xlink"
   xmlns="http://www.w3.org/2000/svg"
   xmlns:svg="http://www.w3.org/2000/svg"><sodipodi:namedview
   id="namedview1"
   pagecolor="#ffffff"
   bordercolor="#000000"
   borderopacity="0.25"
   inkscape:showpageshadow="2"
   inkscape:pageopacity="0.0"
   inkscape:pagecheckerboard="0"
   inkscape:deskcolor="#d1d1d1"
   inkscape:zoom="3.8629332"
   inkscape:cx="61.999519"
   inkscape:cy="83.226912"
   inkscape:window-width="1908"
   inkscape:window-height="1131"
   inkscape:window-x="35"
   inkscape:window-y="32"
   inkscape:window-maximized="0"
   inkscape:current-layer="Layer_1" /><defs
   id="defs9"><linearGradient
     id="linearGradient37"
     inkscape:collect="always"><stop
       style="stop-color:#1f60ff;stop-opacity:1;"
       offset="0"
       id="stop37" /><stop
       style="stop-color:#5286ff;stop-opacity:1;"
       offset="0.10502905"
       id="stop39" /><stop
       style="stop-color:#1f60ff;stop-opacity:1;"
       offset="1"
       id="stop38" /></linearGradient><linearGradient
     id="linearGradient29"
     inkscape:collect="always"><stop
       style="stop-color:#003f99;stop-opacity:1;"
       offset="0"
       id="stop30" /><stop
       style="stop-color:#0056cc;stop-opacity:1;"
       offset="0.05178338"
       id="stop34" /><stop
       style="stop-color:#002b66;stop-opacity:1;"
       offset="0.14683205"
       id="stop35" /><stop
       style="stop-color:#002b66;stop-opacity:1;"
       offset="0.80184472"
       id="stop33" /><stop
       style="stop-color:#0056cc;stop-opacity:1;"
       offset="0.89631051"
       id="stop32" /><stop
       style="stop-color:#002b66;stop-opacity:1;"
       offset="1"
       id="stop31" /></linearGradient><linearGradient
     id="linearGradient8"
     inkscape:collect="always"><stop
       style="stop-color:#004cf0;stop-opacity:1;"
       offset="0"
       id="stop24" /><stop
       style="stop-color:#578cff;stop-opacity:1;"
       offset="0.06998529"
       id="stop29" /><stop
       style="stop-color:#004cf0;stop-opacity:1;"
       offset="0.65594321"
       id="stop28" /><stop
       style="stop-color:#004cf0;stop-opacity:1;"
       offset="0.80456477"
       id="stop27" /><stop
       style="stop-color:#578cff;stop-opacity:1;"
       offset="0.90265054"
       id="stop26" /><stop
       style="stop-color:#004cf0;stop-opacity:1;"
       offset="1"
       id="stop25" /></linearGradient><linearGradient
     id="linearGradient1017"><stop
       style="stop-color:#0e3781;stop-opacity:1;"
       offset="0"
       id="stop1013" /><stop
       style="stop-color:#175ddc;stop-opacity:1;"
       offset="0.1"
       id="stop1021" /><stop
       style="stop-color:#0e3781;stop-opacity:1;"
       offset="0.2"
       id="stop1023" /><stop
       style="stop-color:#0e3781;stop-opacity:1;"
       offset="0.80000001"
       id="stop1025" /><stop
       style="stop-color:#175ddc;stop-opacity:1;"
       offset="0.89999998"
       id="stop1027" /><stop
       style="stop-color:#0e3781;stop-opacity:1;"
       offset="1"
       id="stop1015" /></linearGradient><linearGradient
     xlink:href="#linearGradient1017"
     id="linearGradient1019"
     x1="19.00695"
     y1="66"
     x2="108.99305"
     y2="66"
     gradientUnits="userSpaceOnUse" /><linearGradient
     inkscape:collect="always"
     xlink:href="#linearGradient8"
     id="linearGradient25"
     x1="151.07343"
     y1="71.714125"
     x2="251.35931"
     y2="71.714125"
     gradientUnits="userSpaceOnUse"
     gradientTransform="translate(-133.3593,6)" /><linearGradient
     inkscape:collect="always"
     xlink:href="#linearGradient29"
     id="linearGradient31"
     x1="151.07422"
     y1="50.428711"
     x2="243.64453"
     y2="50.428711"
     gradientUnits="userSpaceOnUse"
     gradientTransform="translate(-133.3593,6)" /><linearGradient
     inkscape:collect="always"
     xlink:href="#linearGradient37"
     id="linearGradient38"
     x1="143.3593"
     y1="42.714405"
     x2="243.64518"
     y2="42.714405"
     gradientUnits="userSpaceOnUse"
     gradientTransform="translate(-133.3593,6)" /></defs>
<style
   type="text/css"
   id="style2">
	.st0{fill:#175ddc;}
</style>

<path
   fill="#578cff"
   d="m 65.22681,99.457 v 21.168 c 0,1.84162 -1.48331,3.375 -3.26137,3.375 -0.87019,-0.006 -1.69988,-0.36618 -2.29894,-0.99731 L 27.49769,89.86975 c -6.30056,-6.44119 -9.78356,-15.26062 -9.78356,-24.38887 0,-18.79032 14.74987,-34.05263 32.98443,-34.05263 h 34.31701 c 18.23456,0 32.98444,15.26288 32.98444,34.05263 0,18.78974 -14.74988,34.05262 -32.98444,34.05262 H 65.22681 Z"
   id="path5"
   style="fill:url(#linearGradient25);fill-opacity:1;stroke-width:0.5625" /><path
   fill="#578cff"
   d="m 65.22681,97.457 v 21.168 c 0,1.84162 -1.48331,3.375 -3.26137,3.375 -0.87019,-0.006 -1.69988,-0.36618 -2.29894,-0.99731 L 27.49769,87.86975 c -6.30056,-6.44119 -9.78356,-15.26062 -9.78356,-24.38887 0,-18.79032 14.74987,-34.05263 32.98443,-34.05263 h 34.31701 c 18.23456,0 32.98444,15.26288 32.98444,34.05263 0,18.78974 -14.74988,34.05262 -32.98444,34.05262 H 65.22681 Z"
   id="path2-6"
   style="stroke-width:0.5625" /><path
   fill="#86a9ff"
   d="M 42.98444,83.42881 C 24.74988,83.42881 10,67.86894 10,48.71413 10,29.55931 24.74988,14 42.98444,14 h 34.317 c 18.23457,0 32.98444,15.55988 32.98444,34.71413 0,19.15424 -14.74987,34.71412 -32.98444,34.71412 h -34.317 z"
   id="path6"
   style="fill:url(#linearGradient38);fill-opacity:1;stroke-width:0.5625" /><path
   fill="#86a9ff"
   d="M 42.98444,81.42881 C 24.74988,81.42881 10,65.86894 10,46.71413 10,27.55931 24.74988,12 42.98444,12 h 34.317 c 18.23457,0 32.98444,15.55988 32.98444,34.71413 0,19.15424 -14.74987,34.71412 -32.98444,34.71412 h -34.317 z"
   id="path1-5"
   style="stroke-width:0.5625" /><path
   id="path4"
   style="fill:url(#linearGradient31);fill-opacity:1;stroke-width:0.5625"
   d="m 50.69929,29.427734 c -18.23452,0 -32.98437,15.262453 -32.98437,34.052735 0,0.262572 0.0195,0.523169 0.0254,0.785156 -0.015,0.403139 -0.0254,0.807623 -0.0254,1.214844 0,2.090286 0.18284,4.164799 0.54101,6.197265 0.19183,0.228669 0.38659,0.454507 0.58399,0.677735 0.002,0.0024 0.004,0.0054 0.006,0.0078 0.3442,0.389007 0.69987,0.766694 1.06054,1.138672 0.0471,0.04862 0.0932,0.09816 0.14063,0.146485 0.36387,0.370813 0.73548,0.732964 1.11523,1.085937 0.0287,0.02666 0.0572,0.05352 0.0859,0.08008 0.36466,0.336584 0.7366,0.664748 1.11524,0.984375 0.072,0.06087 0.14427,0.121398 0.21679,0.181641 0.35205,0.292109 0.71078,0.576407 1.07422,0.853515 0.0965,0.0737 0.19369,0.14613 0.29102,0.21875 0.35491,0.26449 0.71497,0.52158 1.08008,0.771485 0.12571,0.08617 0.25201,0.171456 0.3789,0.255859 0.34285,0.227731 0.68782,0.451355 1.03906,0.666016 0.1683,0.103009 0.3396,0.200833 0.50977,0.300781 0.23113,0.135546 0.46275,0.268602 0.69727,0.398437 0.28709,0.159184 0.57711,0.312441 0.86914,0.462891 0.1974,0.101566 0.3961,0.201302 0.5957,0.298828 4.21556,2.062321 8.91032,3.222657 13.86914,3.222657 v -0.002 h 34.31641 c 18.23453,0 32.98437,-15.558688 32.98437,-34.71289 0,-2.832519 -0.32882,-5.584086 -0.9375,-8.220703 C 103.32019,33.696387 94.65593,29.427678 85.0158,29.427678 Z" /><path
   id="path36"
   style="fill:#0057cc;fill-opacity:1;stroke-width:0.5625"
   d="m 50.69929,29.427734 c -18.23452,0 -32.98437,15.262453 -32.98437,34.052735 v 2 c 0,1.268792 0.0681,2.53191 0.20117,3.783203 0.11465,0.14107 0.23286,0.278875 0.34961,0.417969 3.3e-4,0.0019 -3.3e-4,0.004 0,0.0059 0.0247,0.02936 0.0514,0.05666 0.0762,0.08594 0.31042,0.367239 0.62837,0.727082 0.95313,1.080078 0.093,0.101098 0.18711,0.200871 0.28125,0.300781 0.32534,0.34519 0.65535,0.683054 0.99414,1.013672 0.0748,0.07308 0.15107,0.144436 0.22656,0.216797 0.34696,0.332376 0.69834,0.659822 1.05859,0.976562 0.0902,0.07934 0.18246,0.156035 0.27344,0.234375 0.33029,0.284175 0.66507,0.563221 1.00586,0.833985 0.0301,0.02391 0.0597,0.04846 0.0898,0.07227 0.10064,0.07947 0.20317,0.156093 0.30469,0.234375 0.32423,0.249752 0.6513,0.494989 0.98438,0.732422 0.11266,0.0804 0.22619,0.159312 0.33984,0.238281 0.33055,0.229399 0.66713,0.450897 1.00586,0.667969 0.1361,0.08732 0.27082,0.176422 0.4082,0.261719 0.0124,0.0077 0.0247,0.01574 0.0371,0.02344 0.33734,0.208561 0.68049,0.407349 1.02539,0.603516 0.17661,0.100572 0.35272,0.201569 0.53125,0.298828 0.005,0.0025 0.009,0.0053 0.0137,0.0078 0.34177,0.185738 0.68847,0.363694 1.0371,0.53711 0.17773,0.08851 0.35571,0.176473 0.53516,0.261719 0.0295,0.014 0.0583,0.02905 0.0879,0.04297 v -0.0039 c 4.10667,1.935707 8.65442,3.021485 13.44922,3.021485 v -0.002 h 34.31641 c 18.23453,0 32.98437,-15.558688 32.98437,-34.71289 0,-1.918792 -0.15279,-3.800144 -0.4375,-5.634766 -6.04327,-7.13532 -14.9196,-11.652345 -24.83204,-11.652345 z"
   sodipodi:nodetypes="sssccccscscccscccccsccsccsccccsscss" /></svg>
