<?xml version="1.0" encoding="UTF-8" standalone="no"?>
<!-- Generator: Adobe Illustrator 24.0.3, SVG Export Plug-In . SVG Version: 6.00 Build 0)  -->

<svg
   version="1.1"
   id="Layer_1"
   x="0px"
   y="0px"
   viewBox="0 0 128 128"
   xml:space="preserve"
   width="128"
   height="128"
   sodipodi:docname="bitwarden.svg"
   inkscape:version="1.3.1 (91b66b0783, 2023-11-16)"
   xmlns:inkscape="http://www.inkscape.org/namespaces/inkscape"
   xmlns:sodipodi="http://sodipodi.sourceforge.net/DTD/sodipodi-0.dtd"
   xmlns:xlink="http://www.w3.org/1999/xlink"
   xmlns="http://www.w3.org/2000/svg"
   xmlns:svg="http://www.w3.org/2000/svg"><sodipodi:namedview
   id="namedview1"
   pagecolor="#ffffff"
   bordercolor="#000000"
   borderopacity="0.25"
   inkscape:showpageshadow="2"
   inkscape:pageopacity="0.0"
   inkscape:pagecheckerboard="0"
   inkscape:deskcolor="#d1d1d1"
   inkscape:zoom="5.6959024"
   inkscape:cx="6.320333"
   inkscape:cy="71.015964"
   inkscape:window-width="1908"
   inkscape:window-height="1131"
   inkscape:window-x="35"
   inkscape:window-y="32"
   inkscape:window-maximized="0"
   inkscape:current-layer="Layer_1" /><defs
   id="defs9"><linearGradient
     id="linearGradient25"
     inkscape:collect="always"><stop
       style="stop-color:#977102;stop-opacity:1;"
       offset="0"
       id="stop26" /><stop
       style="stop-color:#fbbc04;stop-opacity:1;"
       offset="0.02630428"
       id="stop28" /><stop
       style="stop-color:#977102;stop-opacity:1;"
       offset="0.07894564"
       id="stop29" /><stop
       style="stop-color:#977102;stop-opacity:1;"
       offset="0.91699493"
       id="stop31" /><stop
       style="stop-color:#fbbc04;stop-opacity:1;"
       offset="0.97041321"
       id="stop30" /><stop
       style="stop-color:#977102;stop-opacity:1;"
       offset="1"
       id="stop27" /></linearGradient><linearGradient
     id="linearGradient19"
     inkscape:collect="always"><stop
       style="stop-color:#a71d11;stop-opacity:1;"
       offset="0"
       id="stop20" /><stop
       style="stop-color:#ea4335;stop-opacity:1;"
       offset="0.04820991"
       id="stop22" /><stop
       style="stop-color:#a71d11;stop-opacity:1;"
       offset="0.15254071"
       id="stop23" /><stop
       style="stop-color:#a71d11;stop-opacity:1;"
       offset="0.69813555"
       id="stop24" /><stop
       style="stop-color:#ea4335;stop-opacity:1;"
       offset="0.90050548"
       id="stop25" /><stop
       style="stop-color:#a61d11;stop-opacity:1;"
       offset="1"
       id="stop21" /></linearGradient><linearGradient
     id="linearGradient13"
     inkscape:collect="always"><stop
       style="stop-color:#1c5a2c;stop-opacity:1;"
       offset="0"
       id="stop14" /><stop
       style="stop-color:#34a853;stop-opacity:1;"
       offset="0.10205489"
       id="stop17" /><stop
       style="stop-color:#1c5a2c;stop-opacity:1;"
       offset="0.29833025"
       id="stop18" /><stop
       style="stop-color:#1c592c;stop-opacity:1;"
       offset="0.84822524"
       id="stop19" /><stop
       style="stop-color:#34a853;stop-opacity:1;"
       offset="0.95081627"
       id="stop16" /><stop
       style="stop-color:#1c592c;stop-opacity:1;"
       offset="1"
       id="stop15" /></linearGradient><linearGradient
     id="linearGradient8"
     inkscape:collect="always"><stop
       style="stop-color:#0c52c5;stop-opacity:1;"
       offset="0"
       id="stop8" /><stop
       style="stop-color:#4285f4;stop-opacity:1;"
       offset="0.05"
       id="stop10" /><stop
       style="stop-color:#0c52c5;stop-opacity:1;"
       offset="0.15000001"
       id="stop11" /><stop
       style="stop-color:#0c52c5;stop-opacity:1;"
       offset="0.84918809"
       id="stop13" /><stop
       style="stop-color:#4285f4;stop-opacity:1;"
       offset="0.94759935"
       id="stop12" /><stop
       style="stop-color:#0c52c5;stop-opacity:1;"
       offset="1"
       id="stop9" /></linearGradient><linearGradient
     id="linearGradient1017"><stop
       style="stop-color:#0e3781;stop-opacity:1;"
       offset="0"
       id="stop1013" /><stop
       style="stop-color:#175ddc;stop-opacity:1;"
       offset="0.1"
       id="stop1021" /><stop
       style="stop-color:#0e3781;stop-opacity:1;"
       offset="0.2"
       id="stop1023" /><stop
       style="stop-color:#0e3781;stop-opacity:1;"
       offset="0.80000001"
       id="stop1025" /><stop
       style="stop-color:#175ddc;stop-opacity:1;"
       offset="0.89999998"
       id="stop1027" /><stop
       style="stop-color:#0e3781;stop-opacity:1;"
       offset="1"
       id="stop1015" /></linearGradient><linearGradient
     xlink:href="#linearGradient1017"
     id="linearGradient1019"
     x1="19.00695"
     y1="66"
     x2="108.99305"
     y2="66"
     gradientUnits="userSpaceOnUse" /><linearGradient
     inkscape:collect="always"
     xlink:href="#linearGradient8"
     id="linearGradient9"
     x1="64"
     y1="79.953125"
     x2="118"
     y2="79.953125"
     gradientUnits="userSpaceOnUse" /><linearGradient
     inkscape:collect="always"
     xlink:href="#linearGradient13"
     id="linearGradient15"
     x1="34.546875"
     y1="93"
     x2="64"
     y2="93"
     gradientUnits="userSpaceOnUse" /><linearGradient
     inkscape:collect="always"
     xlink:href="#linearGradient19"
     id="linearGradient21"
     x1="64"
     y1="39"
     x2="93.453125"
     y2="39"
     gradientUnits="userSpaceOnUse" /><linearGradient
     inkscape:collect="always"
     xlink:href="#linearGradient25"
     id="linearGradient27"
     x1="10"
     y1="51.273438"
     x2="64"
     y2="51.273438"
     gradientUnits="userSpaceOnUse" /></defs>
<style
   type="text/css"
   id="style2">
	.st0{fill:#175ddc;}
</style>

<path
   id="path4"
   style="stroke-width:1.83051;fill:url(#linearGradient27)"
   d="M 37 36.546875 C 23.448266 36.546875 12.230299 46.531841 10.296875 59.546875 L 10 59.546875 L 10 63.546875 C 10 64.90145 11.09855 66 12.453125 66 L 64 66 L 64 63.546875 C 64 48.633737 51.911307 36.546875 37 36.546875 z " /><path
   id="path5"
   style="stroke-width:1.83051;fill:url(#linearGradient21)"
   d="M 66.453125 12 C 65.098549 12 64 13.09855 64 14.453125 L 64 66 L 66.453125 66 C 81.366262 66 93.453125 53.911307 93.453125 39 L 93.453125 35 L 93.15625 35 C 91.223088 21.986065 80.006522 12 66.453125 12 z " /><path
   id="path6"
   style="stroke-width:1.83051;fill:url(#linearGradient9)"
   d="M 109.12109 64.453125 L 109.12109 66 L 64 66 L 64 68.453125 C 64 83.366262 76.088692 95.453125 91 95.453125 C 105.91131 95.453125 118 83.366262 118 68.453125 L 118 64.453125 L 109.12109 64.453125 z " /><path
   id="path7"
   style="stroke-width:1.83051;fill:url(#linearGradient15);fill-opacity:1"
   d="M 61.546875 66 C 47.993477 66 36.776912 75.986064 34.84375 89 L 34.546875 89 L 34.546875 93 C 34.546875 107.9113 46.633737 120 61.546875 120 C 62.90145 120 64 118.90145 64 117.54688 L 64 66 L 61.546875 66 z " /><path
   d="m 36.999996,32.547119 c 14.911322,0 27,12.086848 27,27.000001 v 2.452881 H 12.452877 c -1.354576,0 -2.4528815,-1.098305 -2.4528815,-2.452881 0,-14.913153 12.0886785,-27.000001 27.0000005,-27.000001 z"
   jetway-hook-id="B4287B30-9B3D-4F6B-9C01-2A7C2CA23D6F"
   fill="#fbbc04"
   id="path2-1"
   style="stroke-width:1.83051" /><path
   d="m 93.452878,35.000001 c 0,14.911322 -12.086848,27 -27,27 H 63.999996 V 10.452882 c 0,-1.3545764 1.098305,-2.4528815 2.452882,-2.4528815 14.913152,0 27,12.0886785 27,27.0000005 z"
   jetway-hook-id="5872DD7E-5971-4393-9299-364708D669BC"
   fill="#ea4335"
   id="path3-2"
   style="stroke-width:1.83051" /><path
   d="m 90.999997,91.452883 c -14.911323,0 -27.000001,-12.086848 -27.000001,-27 v -2.452882 h 51.547124 c 1.35457,0 2.45288,1.098305 2.45288,2.452882 0,14.913152 -12.08868,27 -27.000003,27 z"
   jetway-hook-id="184B2279-6FFE-4CA2-B961-54092B122EB8"
   fill="#4285f4"
   id="path4-67-7"
   style="stroke-width:1.83051" /><path
   d="m 34.547114,89.000002 c 0,-14.911323 12.086848,-27.000001 27.000001,-27.000001 h 2.452881 V 113.54712 C 63.999996,114.9017 62.901691,116 61.547115,116 46.633962,116 34.547114,103.91132 34.547114,89.000002 Z"
   jetway-hook-id="2AD9C930-A41C-474E-9152-1E50FC2C457C"
   fill="#34a853"
   id="path5-0"
   style="stroke-width:1.83051" /></svg>
