<?xml version="1.0" encoding="UTF-8" standalone="no"?>
<svg
   width="128"
   height="128"
   version="1.1"
   id="svg24"
   xmlns:xlink="http://www.w3.org/1999/xlink"
   xmlns="http://www.w3.org/2000/svg"
   xmlns:svg="http://www.w3.org/2000/svg">
  <defs
     id="defs28">
    <linearGradient
       id="linearGradient5032">
      <stop
         style="stop-color:#0c52c5;stop-opacity:1;"
         offset="0"
         id="stop5028" />
      <stop
         style="stop-color:#255fdb;stop-opacity:1;"
         offset="0.03659764"
         id="stop5036" />
      <stop
         style="stop-color:#163983;stop-opacity:1;"
         offset="0.07200123"
         id="stop5038" />
      <stop
         style="stop-color:#163983;stop-opacity:1;"
         offset="0.92623329"
         id="stop5040" />
      <stop
         style="stop-color:#255fdb;stop-opacity:1;"
         offset="0.96471584"
         id="stop5042" />
      <stop
         style="stop-color:#0c52c5;stop-opacity:1;"
         offset="1"
         id="stop5030" />
    </linearGradient>
    <linearGradient
       xlink:href="#linearGradient5032"
       id="linearGradient5034"
       x1="-154.31869"
       y1="84.770522"
       x2="-59.741513"
       y2="84.770522"
       gradientUnits="userSpaceOnUse"
       gradientTransform="translate(169.09929,10.52718)" />
  </defs>
  <path
     fill="#91bfff"
     d="M 81.049827,43.307076 C 62.25151,12.293529 38.41616,15.085038 22.2805,31.705364 14.32664,41.365003 9.9877,53.494542 10.01007,66.007422 c 1.68721,-22.700317 29.14232,-38.498523 53.98997,0 22.086825,34.265238 49.6033,25.338476 53.51757,7.435886 v -0.171799 c 0.34253,-2.438406 0.48829,-4.900454 0.43562,-7.362259 V 63.455151 C 108.38842,70.30204 95.811182,67.657757 81.049846,43.307056 Z"
     id="path8-7-5"
     style="fill:#2982ff;fill-opacity:1;stroke-width:0.0240928" />
  <path
     fill="#4285f4"
     d="M 63.69941,60.485701 C 38.38548,22.091482 10.01007,42.55244 10.01007,66.007421 c -0.0107,7.76796 1.66431,15.445771 4.90817,22.50398 -0.25637,-1.209919 0.002,-4.034338 0.002,-4.034338 0,0 16.18858,-22.383524 31.90099,-1.303311 24.69429,33.130208 48.9284,27.301738 62.48727,12.227502 4.35449,-6.68453 7.16694,-14.254288 8.23346,-22.160424 v 0.104266 l -0.017,-4.008769 c 0,0 -32.2104,23.931474 -53.82556,-8.850665 z"
     id="path6-6-6"
     style="fill:#0c52c5;fill-opacity:1;stroke-width:0.0240928" />
  <path
     fill="#255fdb"
     d="m 47.24473,77.25328 c -6.89091,-18.419794 -32.33479,7.224209 -32.33479,7.224209 0,0 -0.26636,3.173178 -0.0346,3.948022 12.40733,27.136219 44.46371,39.076359 71.599899,26.669039 9.353495,-4.27666 17.291971,-11.13425 22.882541,-19.766929 l -0.0384,-3.96342 c 0,0 -40.69764,14.171659 -62.07464,-14.110921 z"
     id="path4-3-2"
     style="fill:#163983;fill-opacity:1;stroke-width:0.0240928" />
  <path
     fill="#255fdb"
     d="M 47.24473,73.253282 C 28.83905,48.902582 9.94259,67.406406 14.87531,84.425512 27.28264,111.56173 59.33902,123.50187 86.475213,111.09455 95.828703,106.8179 103.76718,99.960306 109.35775,91.327627 95.130155,104.65335 69.29474,102.42628 47.24473,73.253282 Z"
     id="path4-3"
     style="stroke-width:0.0240928" />
  <path
     fill="#4285f4"
     d="M 63.69941,56.485702 C 38.38548,18.091483 10.01007,38.552441 10.01007,62.007422 c -0.0107,7.76796 1.66431,15.445771 4.90817,22.50398 -3.36823,-15.896356 14.89634,-28.154521 31.90319,-5.337649 24.694285,33.130207 48.928399,27.301737 62.48726,12.227502 4.3545,-6.68453 7.16695,-14.254288 8.23346,-22.160424 v 0.104266 C 111.71981,87.407201 86.025473,90.345973 63.69941,56.485663 Z"
     id="path6-6"
     style="stroke-width:0.0240928" />
  <path
     fill="#91bfff"
     d="M 81.049828,39.307076 C 62.25151,8.2935294 38.41616,11.085038 22.2805,27.705364 14.32664,37.365003 9.9877,49.494542 10.01007,62.007422 c 1.68721,-22.700317 29.14232,-38.498523 53.98997,0 22.086826,34.265235 49.6033,25.338478 53.51757,7.435886 l 0.0212,-0.165146 c 0.34253,-2.438406 0.46707,-4.907107 0.4144,-7.368912 V 59.455151 C 108.38842,66.30204 95.811183,63.657757 81.049847,39.307056 Z"
     id="path8-7"
     style="stroke-width:0.0240928" />
  <path
     fill="#c4e1ff"
     d="m 81.178668,44.828796 c 17.215444,27.675992 32.056562,20.595949 36.811352,14.675446 -0.19221,-4.136928 -0.86133,-8.237863 -1.99394,-12.221356 -8.02489,0.165678 -9.89614,-1.171822 -17.792162,-13.196872 C 86.135918,15.594453 70.932831,3.1092567 44.36733,11.69857 35.76011,15.074507 28.15762,20.592632 22.2805,27.729919 40.53281,10.931672 62.92637,15.490149 81.178668,44.828796 Z"
     id="path10-5"
     style="stroke-width:0.0240928" />
  <path
     fill="#f5f5f5"
     d="M 97.025955,36.466486 C 104.89744,48.50994 109.68905,49.123463 115.99608,47.282886 107.81843,18.559005 77.903857,1.9029485 49.17999,10.080584 c -1.62868,0.463703 -3.23465,1.003618 -4.81266,1.618005 23.73103,-7.4849959 40.559948,6.270185 52.658625,24.767897 z"
     id="path12-3"
     style="stroke-width:0.0240928" />
</svg>
