<?xml version="1.0" encoding="UTF-8"?>
<svg height="128px" viewBox="0 0 128 128" width="128px" xmlns="http://www.w3.org/2000/svg" xmlns:xlink="http://www.w3.org/1999/xlink">
    <linearGradient id="a" gradientUnits="userSpaceOnUse" x1="12" x2="116" y1="64" y2="64">
        <stop offset="0" stop-color="#082b13"/>
        <stop offset="0.0416667" stop-color="#188038"/>
        <stop offset="0.0833333" stop-color="#082b13"/>
        <stop offset="0.916667" stop-color="#082b13"/>
        <stop offset="0.958333" stop-color="#188038"/>
        <stop offset="1" stop-color="#082b13"/>
    </linearGradient>
    <path d="m 92 116 l 24 -24 v -4 h -24 z m 0 0" fill="#a71d11"/>
    <path d="m 12 88 v 20 c 0 4.433594 3.566406 8 8 8 h 16 v -28 z m 0 0" fill="url(#a)"/>
    <path d="m 20 12 c -4.433594 0 -8 3.566406 -8 8 v 68 h 24 v -52 h 56 v -24 z m 0 0" fill="#4285f4"/>
    <path d="m 92 88 v -52 h 24 v 52 z m 0 0" fill="#fbbc04"/>
    <path d="m 92 12 v 24 h 24 v -16 c 0 -4.433594 -3.566406 -8 -8 -8 z m 0 0" fill="#1967d2"/>
    <path d="m 36 112 v 4 h 56 v -4 z m 0 0" fill="#1c592c"/>
    <path d="m 92 112 h -56 v -24 h 56 z m 0 0" fill="#34a853"/>
    <path d="m 12 88 v 16 c 0 4.433594 3.566406 8 8 8 h 16 v -24 z m 0 0" fill="#188038"/>
    <path d="m 92 112 l 24 -24 h -24 z m 0 0" fill="#ea4335"/>
    <path d="m 36 36 h 56 v 52 h -56 z m 0 0" fill="#ffffff"/>
    <g fill="#1a73e8">
        <path d="m 48.667969 76.339844 c -1.945313 -1.3125 -3.289063 -3.230469 -4.023438 -5.765625 l 4.507813 -1.859375 c 0.410156 1.558594 1.125 2.769531 2.148437 3.625 c 1.011719 0.859375 2.246094 1.28125 3.691407 1.28125 c 1.472656 0 2.742187 -0.449219 3.800781 -1.34375 c 1.058593 -0.898438 1.59375 -2.042969 1.59375 -3.425782 c 0 -1.417968 -0.558594 -2.574218 -1.675781 -3.472656 c -1.121094 -0.894531 -2.523438 -1.34375 -4.199219 -1.34375 h -2.609375 v -4.464844 h 2.339844 c 1.445312 0 2.660156 -0.390624 3.648437 -1.171874 c 0.988281 -0.777344 1.480469 -1.84375 1.480469 -3.203126 c 0 -1.210937 -0.441406 -2.171874 -1.324219 -2.894531 c -0.882813 -0.71875 -2.003906 -1.082031 -3.363281 -1.082031 c -1.324219 0 -2.378906 0.351562 -3.15625 1.058594 c -0.78125 0.707031 -1.347656 1.578125 -1.703125 2.605468 l -4.464844 -1.859374 c 0.589844 -1.675782 1.675781 -3.160157 3.269531 -4.4375 c 1.589844 -1.28125 3.625 -1.925782 6.09375 -1.925782 c 1.828125 0 3.472656 0.351563 4.929688 1.058594 c 1.453125 0.710938 2.597656 1.691406 3.425781 2.9375 c 0.824219 1.257812 1.234375 2.660156 1.234375 4.21875 c 0 1.59375 -0.382812 2.9375 -1.152344 4.042969 c -0.765625 1.105469 -1.707031 1.949219 -2.828125 2.542969 v 0.265624 c 1.476563 0.617188 2.679688 1.5625 3.628907 2.828126 c 0.941406 1.269531 1.417968 2.78125 1.417968 4.550781 c 0 1.765625 -0.449218 3.347656 -1.347656 4.730469 c -0.898438 1.386718 -2.136719 2.476562 -3.710938 3.269531 c -1.578124 0.792969 -3.355468 1.195312 -5.324218 1.195312 c -2.28125 0.007813 -4.386719 -0.648437 -6.328125 -1.960937 z m 0 0"/>
        <path d="m 76.351562 53.953125 l -4.929687 3.582031 l -2.476563 -3.757812 l 8.886719 -6.410156 h 3.40625 v 30.234374 h -4.886719 z m 0 0"/>
    </g>
</svg>
