<?xml version="1.0" encoding="UTF-8" standalone="no"?>
<svg
   width="128"
   height="128"
   version="1"
   id="svg20"
   xml:space="preserve"
   xmlns="http://www.w3.org/2000/svg"
   xmlns:svg="http://www.w3.org/2000/svg"><defs
     id="defs24" /><path
     style="fill:#1b6f33;fill-opacity:1;stroke-width:2.14303"
     d="m 14.076959,31.717768 c -1.031857,1.569402 -1.986272,3.251263 -2.953438,4.916423 -4.661033,8.706992 -7.3243949,15.052898 -7.1116762,28.309214 -1.2e-6,33.156769 26.8505332,60.035645 59.9723452,60.035645 0.306862,-0.009 0.613649,-0.0199 0.920337,-0.0334 L 93.301029,77.674179 C 91.026278,81.383308 81.549021,86.132676 77.504741,88.470206 64.563566,95.94979 48.129589,91.115132 40.657896,78.159956 Z"
     id="path6-3" /><path
     style="fill:#aa8003;fill-opacity:1;stroke-width:2.14303"
     d="m 64.051125,34.963285 c -0.06627,0 9.518535,4.279461 13.562388,6.616651 10.334243,5.972859 11.412868,27.304873 11.437242,35.939303 l 1.731903,1.005061 -1.765367,3.057062 c -1.38e-4,0.003 0,0.142372 0,0.142372 l -0.669334,1.013447 -24.364285,35.316639 4.99e-4,6.92943 c 0.158973,0.004 0.318113,0.0176 0.476902,0.0167 0.828846,-0.0135 1.657325,-0.0443 2.484901,-0.0921 0.480345,-0.0224 0.959927,-0.0249 1.439072,-0.0585 1.889497,-0.13963 3.771321,-0.36882 5.639141,-0.68679 0.123115,-0.0206 0.245157,-0.0458 0.368144,-0.0671 28.661049,-5.05608 49.559279,-29.981012 49.564269,-59.114313 0.46398,-12.988607 -2.82916,-20.899914 -8.12404,-30.017819 z"
     id="path8-6" /><path
     style="opacity:0.1;stroke-width:2.14303"
     d="m 63.958488,123.00697 c -33.207545,0 -59.9423572,-26.762183 -59.9423572,-60.005632 0,-0.503183 -0.012857,-0.999977 0,-1.500116 0.7925348,32.541458 27.2364402,58.504728 59.9423572,58.504728 32.704635,0 59.149872,-25.962841 59.942362,-58.504728 0.0128,0.500138 0,0.996933 0,1.500116 0,33.242591 -26.733961,60.005632 -59.942362,60.005632 z"
     id="path4" /><path
     style="fill:#269846;fill-opacity:1;stroke-width:2.14303"
     d="m 14.07696,29.810007 c -1.031857,1.569402 -1.986272,3.251263 -2.953439,4.916423 A 59.972346,60.035638 0 0 0 4.0118459,63.035646 59.972346,60.035638 0 0 0 63.98419,123.07128 a 59.972346,60.035638 0 0 0 0.920337,-0.0334 L 93.301029,75.766458 C 91.026278,79.475588 81.549021,84.224955 77.504741,86.562486 64.563566,94.042069 48.129589,89.207412 40.657896,76.252235 Z"
     id="path6" /><path
     style="fill:#fbc116;fill-opacity:1;stroke-width:2.14303"
     d="m 64.051125,33.017828 c -0.06627,0 9.518535,4.279461 13.562388,6.616651 10.334243,5.97286 11.412868,27.304874 11.437242,35.939304 l 1.731903,1.00506 -1.765367,3.057061 c -1.38e-4,0.003 0,0.142373 0,0.142373 l -0.669334,1.013447 -24.360856,42.278706 c 0.158972,0.004 0.315203,-0.0151 0.473991,-0.0158 0.828846,-0.0135 1.657325,-0.0443 2.484902,-0.0921 0.480345,-0.0223 0.959927,-0.0249 1.439072,-0.0587 1.889496,-0.13962 3.771319,-0.36883 5.63914,-0.68679 0.123116,-0.0206 0.245156,-0.0457 0.368144,-0.0671 28.66096,-5.05612 49.5592,-29.981062 49.56419,-59.114362 -0.0271,-10.546583 -2.82916,-20.899914 -8.12403,-30.01782 z"
     id="path8" /><path
     style="fill:#e23a2d;fill-opacity:1;stroke-width:2.14303"
     d="m 63.959092,3.0000085 a 59.972346,60.035638 0 0 0 -1.03747,0.033492 59.972346,60.035638 0 0 0 -3.179335,0.1172574 59.972346,60.035638 0 0 0 -0.17572,0.02513 59.972346,60.035638 0 0 0 -5.421609,0.6532899 c -0.183559,0.030189 -0.369,0.052601 -0.552198,0.083752 -0.01109,0.00192 -0.02228,0.00639 -0.03341,0.00836 A 59.972346,60.035638 0 0 0 47.945264,5.1860106 59.972346,60.035638 0 0 0 36.78412,9.5328999 59.972346,60.035638 0 0 0 35.453816,10.295072 59.972346,60.035638 0 0 0 12.07732,33.0597 l 24.372132,42.262808 0.510368,1.021816 0.125492,0.07539 1.146235,1.993372 10.516912,8.459259 2.919974,-1.24795 3.34667,2.110628 c -0.396025,-0.730658 -0.792981,-1.820434 -1.179696,-3.04032 L 73.505468,76.277326 53.149344,40.974561 c 1.862192,-4.300509 5.118304,-7.316418 10.834846,-7.956733 h 51.84832 a 59.972346,60.035638 0 0 0 -3.25466,-5.042056 59.972346,60.035638 0 0 0 -3.66459,-4.589778 59.972346,60.035638 0 0 0 -0.15897,-0.184269 59.972346,60.035638 0 0 0 -3.89052,-3.995108 59.972346,60.035638 0 0 0 -0.40996,-0.376898 59.972346,60.035638 0 0 0 -4.10804,-3.442333 59.972346,60.035638 0 0 0 -0.577296,-0.435527 59.972346,60.035638 0 0 0 -4.241909,-2.88955 A 59.972346,60.035638 0 0 0 94.706633,11.559778 59.972346,60.035638 0 0 0 90.439625,9.2313869 59.972346,60.035638 0 0 0 89.226457,8.6534775 59.972346,60.035638 0 0 0 85.126787,6.9364983 59.972346,60.035638 0 0 0 83.545482,6.3502115 59.972346,60.035638 0 0 0 79.596412,5.1441391 59.972346,60.035638 0 0 0 77.613513,4.6332331 59.972346,60.035638 0 0 0 73.923802,3.8961884 59.972346,60.035638 0 0 0 71.572766,3.5444169 59.972346,60.035638 0 0 0 68.209362,3.2093965 59.972346,60.035638 0 0 0 63.98419,3.000009 a 59.972346,60.035638 0 0 0 -0.02527,0 z"
     id="path10" /><rect
     style="fill:#ffffff;stroke-width:2.14303"
     width="60.036358"
     height="59.973064"
     x="-93.053444"
     y="-93.970009"
     rx="30.018179"
     ry="29.986532"
     transform="matrix(0,-1,-1,0,0,0)"
     id="rect16" /><rect
     style="fill:#1a73e8;fill-opacity:1;stroke-width:2.14303"
     width="47.171417"
     height="47.121689"
     x="-86.620979"
     y="-87.544319"
     rx="23.585709"
     ry="23.560844"
     transform="matrix(0,-1,-1,0,0,0)"
     id="rect18" /></svg>
