<?xml version="1.0" encoding="UTF-8" standalone="no"?>
<svg
   width="128"
   height="128"
   version="1"
   id="svg54"
   xmlns:xlink="http://www.w3.org/1999/xlink"
   xmlns="http://www.w3.org/2000/svg"
   xmlns:svg="http://www.w3.org/2000/svg">
  <defs
     id="defs58">
    <linearGradient
       id="linearGradient4248">
      <stop
         style="stop-color:#98aeb8;stop-opacity:1;"
         offset="0"
         id="stop4246" />
      <stop
         style="stop-color:#607d8b;stop-opacity:1;"
         offset="1"
         id="stop4244" />
    </linearGradient>
    <linearGradient
       id="linearGradient4238">
      <stop
         style="stop-color:#ffffff;stop-opacity:1;"
         offset="0"
         id="stop4234" />
      <stop
         style="stop-color:#d6d6d6;stop-opacity:1;"
         offset="1"
         id="stop4236" />
    </linearGradient>
    <linearGradient
       id="linearGradient4230">
      <stop
         style="stop-color:#455a64;stop-opacity:1;"
         offset="0"
         id="stop4226" />
      <stop
         style="stop-color:#303e45;stop-opacity:1;"
         offset="1"
         id="stop4228" />
    </linearGradient>
    <linearGradient
       id="linearGradient4220">
      <stop
         style="stop-color:#607d8b;stop-opacity:1;"
         offset="0"
         id="stop4216" />
      <stop
         style="stop-color:#6b8a99;stop-opacity:1;"
         offset="0.5"
         id="stop4224" />
      <stop
         style="stop-color:#4b636c;stop-opacity:1;"
         offset="1"
         id="stop4218" />
    </linearGradient>
    <linearGradient
       xlink:href="#linearGradient4220"
       id="linearGradient4222"
       x1="74.709167"
       y1="2.5936947"
       x2="103.45979"
       y2="2.5936947"
       gradientUnits="userSpaceOnUse" />
    <linearGradient
       xlink:href="#linearGradient4230"
       id="linearGradient4232"
       x1="-44.08459"
       y1="89.091972"
       x2="-23.208432"
       y2="89.091972"
       gradientUnits="userSpaceOnUse" />
    <radialGradient
       xlink:href="#linearGradient4238"
       id="radialGradient4242"
       cx="76.909531"
       cy="20.806469"
       fx="76.909531"
       fy="20.806469"
       r="25.873503"
       gradientUnits="userSpaceOnUse"
       gradientTransform="matrix(0.37193013,0,0,0.41778953,48.30456,17.0757)" />
    <radialGradient
       xlink:href="#linearGradient4248"
       id="radialGradient4250"
       cx="66.115288"
       cy="85.999756"
       fx="66.115288"
       fy="85.999756"
       r="7.4959273"
       gradientUnits="userSpaceOnUse" />
  </defs>
  <circle
     style="fill:#303e45;fill-opacity:1;stroke-width:1.87398"
     cx="-36.498657"
     cy="91.944122"
     r="10.438079"
     transform="rotate(-45)"
     id="circle34-3" />
  <path
     id="rect44-6"
     style="fill:#36474f;stroke-width:1.87398"
     d="m 75.079115,41.679906 13.258999,13.259 c 1.958602,1.958601 1.958602,5.11216 10e-7,7.070761 L 54.308087,96.039696 c -1.750074,1.750073 -4.454199,1.936403 -6.407431,0.558976 -0.232734,-0.164127 -0.0078,-4.03544 -0.0078,-4.03544 L 33.978325,82.780696 c -2.11518,-1.788365 -1.9586,-5.11216 1e-6,-7.070761 L 68.008354,41.679906 c 1.958601,-1.958601 5.112161,-1.958601 7.070761,0 z" />
  <g
     id="g1126"
     transform="matrix(1.0170411,0,0,1.0170411,163.2715,7.8144626)">
    <path
       style="fill:#104d93;fill-opacity:1;stroke-width:2.39536"
       d="m -150.14061,27.557431 c -0.76534,-0.0638 -0.89212,6.342653 0.53616,7.770935 l 7.30469,7.304687 9.88281,-9.882809 -9.88281,-9.882813 z"
       id="path8-5" />
    <rect
       style="fill:#0377b0;fill-opacity:1;stroke-width:2.39536"
       width="13.976908"
       height="13.976908"
       x="-116.79461"
       y="-56.502304"
       transform="rotate(-45)"
       id="rect12-5" />
    <rect
       style="fill:#104d93;fill-opacity:1;stroke-width:2.39536"
       width="13.976908"
       height="13.976908"
       x="102.80573"
       y="-70.467232"
       transform="matrix(-0.70710678,0.70710678,0.70710678,0.70710678,0,0)"
       id="rect14-6" />
    <path
       id="rect10-3"
       style="fill:#104d93;stroke-width:2.39536"
       transform="rotate(-45)"
       d="m -130.75954,-56.502304 2.80201,-2.800795 11.1749,2.800795 v 13.976908 h -13.97691 z" />
    <path
       id="rect16-2"
       style="fill:#0377b0;stroke-width:2.39536"
       transform="matrix(-0.70710678,0.70710678,0.70710678,0.70710678,0,0)"
       d="m 116.79461,-70.467232 11.18416,-2.798952 2.79275,2.798952 v 13.976908 l -2.8301,-2.815022 -11.14681,2.815022 z" />
    <path
       style="fill:#0377b0;fill-opacity:1;stroke-width:2.39536"
       d="m -142.29976,22.867431 9.88281,9.882813 9.88281,-9.882813 -7.30468,-7.304685 c -1.42828,-1.428282 -3.72797,-1.428282 -5.15625,0 z"
       id="path18-9" />
    <path
       style="fill:#0377b0;fill-opacity:1;stroke-width:2.39536"
       d="m -83.002898,101.92991 7.304687,7.30469 c 1.428279,1.42828 3.727968,1.42828 5.156247,0 l 7.304687,-7.30469 -0.0061,-3.954747 -9.87673,-5.928058 -9.890228,5.912817 z"
       id="path20-1" />
    <path
       style="fill:#104d93;fill-opacity:1;stroke-width:2.39536"
       d="m -73.120086,92.047105 9.873401,5.926393 0.0094,3.956412 7.304686,-7.304683 c 1.428282,-1.428279 1.428282,-3.727965 0,-5.156247 l -7.304686,-7.304687 z"
       id="path22-2" />
    <rect
       style="fill:#0377b0;fill-opacity:1;stroke-width:2.39536"
       width="13.976908"
       height="13.976908"
       x="102.80573"
       y="-0.59467298"
       transform="matrix(-0.70710678,0.70710678,0.70710678,0.70710678,0,0)"
       id="rect24-7" />
    <path
       id="rect26-0"
       style="fill:#104d93;stroke-width:2.39536"
       transform="matrix(-0.70710678,0.70710678,0.70710678,0.70710678,0,0)"
       d="m 116.79461,-0.59467298 11.16562,-2.80472122 2.81129,2.80472122 V 13.382235 l -2.81303,-2.815397 -11.16388,2.815397 z" />
    <rect
       style="fill:#104d93;fill-opacity:1;stroke-width:2.39536"
       width="13.976908"
       height="13.976908"
       x="-116.79461"
       y="-14.559608"
       transform="rotate(-45)"
       id="rect30-3" />
    <path
       id="rect28-9"
       style="fill:#0377b0;stroke-width:2.39536"
       transform="rotate(-45)"
       d="m -130.76491,-14.424975 2.81681,-2.815705 11.16547,2.681072 v 13.97690727 l -11.16497,-2.81820027 -2.81194,2.81820027 z" />
  </g>
  <g
     transform="matrix(2.4361763,0,0,2.4361763,5.1558235,3.9023452)"
     id="g32">
    <path
       style="fill:#1565c0"
       d="m 2.4472027,12.546241 c -0.5962707,0.596271 -0.5962707,1.556331 0,2.152602 L 5.4967215,17.748362 9.6225411,13.622543 5.4967215,9.4967227 Z"
       id="path8" />
    <rect
       style="fill:#1565c0"
       width="5.835"
       height="5.835"
       x="-8.6599998"
       y="22.27"
       transform="rotate(-45)"
       id="rect10" />
    <rect
       style="fill:#039be5"
       width="5.835"
       height="5.835"
       x="-2.8299999"
       y="22.27"
       transform="rotate(-45)"
       id="rect12" />
    <rect
       style="fill:#1565c0"
       width="5.835"
       height="5.835"
       x="-3.01"
       y="16.440001"
       transform="matrix(-0.70710678,0.70710678,0.70710678,0.70710678,0,0)"
       id="rect14" />
    <rect
       style="fill:#039be5"
       width="5.835"
       height="5.835"
       x="2.8299999"
       y="16.440001"
       transform="matrix(-0.70710678,0.70710678,0.70710678,0.70710678,0,0)"
       id="rect16" />
    <path
       style="fill:#039be5"
       d="M 5.4967215,9.4967227 9.6225411,13.622543 13.748361,9.4967227 10.698842,6.4472039 c -0.59627,-0.5962707 -1.5563311,-0.5962707 -2.1526017,0 z"
       id="path18" />
    <path
       style="fill:#039be5"
       d="m 30.251639,42.503279 3.049519,3.049519 c 0.59627,0.596271 1.556331,0.596271 2.152601,0 l 3.049519,-3.049519 -4.125819,-4.125819 z"
       id="path20" />
    <path
       style="fill:#1565c0"
       d="m 34.377459,38.37746 4.125819,4.125819 3.049519,-3.049519 c 0.596271,-0.59627 0.596271,-1.55633 0,-2.152601 L 38.503278,34.25164 Z"
       id="path22" />
    <rect
       style="fill:#039be5"
       width="5.835"
       height="5.835"
       x="-3.01"
       y="45.610001"
       transform="matrix(-0.70710678,0.70710678,0.70710678,0.70710678,0,0)"
       id="rect24" />
    <rect
       style="fill:#1565c0"
       width="5.835"
       height="5.835"
       x="2.8299999"
       y="45.610001"
       transform="matrix(-0.70710678,0.70710678,0.70710678,0.70710678,0,0)"
       id="rect26" />
    <rect
       style="fill:#039be5"
       width="5.835"
       height="5.835"
       x="-8.6599998"
       y="39.779999"
       transform="rotate(-45)"
       id="rect28" />
    <rect
       style="fill:#1565c0"
       width="5.835"
       height="5.835"
       x="-2.8299999"
       y="39.779999"
       transform="rotate(-45)"
       id="rect30" />
  </g>
  <path
     style="fill:#b0b0b0;fill-opacity:1;stroke-width:1.87398"
     d="m 117.99463,54.902159 c -8.23221,8.232214 -19.747552,10.785576 -30.146541,7.568185 -0.202744,-0.06273 -0.0073,-3.969856 -0.0073,-3.969856 0,0 -9.269671,-0.153193 -12.714806,-3.598329 -11.837838,-11.837846 -11.837845,-31.030775 0,-42.868617 l 42.873037,38.852571 z"
     id="path48-6" />
  <circle
     style="fill:url(#linearGradient4232);stroke-width:1.87398;fill-opacity:1"
     cx="-33.646511"
     cy="89.091972"
     r="10.438079"
     transform="rotate(-45)"
     id="circle34" />
  <path
     style="fill:#303e45;fill-opacity:1;stroke-width:0.257501"
     d="M 107.47523,22.552947 99.58514,37.735113 94.151709,53.118642 86.658265,43.369906 76.909529,35.876457 92.293058,30.443028 Z"
     id="path36-0" />
  <path
     id="circle40-6"
     style="fill:#36474f;stroke-width:1.87398"
     d="m 112.83128,15.995873 c 2.84854,-0.564692 3.37277,8.044833 0.44543,10.972174 -2.23925,2.239256 -6.21999,2.887032 -8.95957,1.700472 -0.20434,-0.08852 -0.30653,-3.54257 -0.30653,-3.54257 0,0 -1.43693,3.214236 -1.95798,2.693182 -2.927353,-2.927341 -2.677448,-11.865735 0.0616,-13.262181 3.6882,-1.880363 6.6562,2.243944 10.71706,1.438923 z" />
  <path
     style="fill:#455a64;stroke-width:0.257501"
     d="m 107.47523,18.519406 -7.890086,15.182165 -5.433428,15.38353 -7.49345,-9.748738 -9.748735,-7.493448 15.383529,-5.433429 z"
     id="path36" />
  <circle
     style="fill:url(#radialGradient4250);stroke-width:1.87398;fill-opacity:1"
     cx="62.901031"
     cy="89.091972"
     r="7.4959273"
     transform="rotate(-45)"
     id="circle40" />
  <circle
     r="1.5"
     transform="scale(1,-1)"
     cy="-14.060444"
     cx="107.47523"
     id="circle21711-7-41-9"
     style="color:#000000;display:inline;overflow:visible;visibility:visible;fill:#98aeb8;fill-opacity:1;fill-rule:nonzero;stroke:none;stroke-width:0.280251;marker:none;enable-background:new" />
  <rect
     style="fill:url(#linearGradient4222);stroke-width:1.87398;fill-opacity:1"
     width="28.750628"
     height="58.125294"
     x="74.709167"
     y="-26.468952"
     rx="4.999783"
     ry="4.999783"
     transform="rotate(45)"
     id="rect44" />
  <path
     style="fill:url(#radialGradient4242);stroke-width:1.87398;fill-opacity:1"
     d="m 117.99463,50.868616 c -11.83784,11.837849 -31.03078,11.837849 -42.868621,0 C 63.288164,39.030777 63.288164,19.837843 75.126009,8 Z"
     id="path48" />
</svg>
