<?xml version="1.0" encoding="UTF-8" standalone="no"?>
<svg
   width="128"
   height="128"
   version="1"
   id="svg54"
   xmlns="http://www.w3.org/2000/svg"
   xmlns:svg="http://www.w3.org/2000/svg">
  <defs
     id="defs58" />
  <circle
     style="fill:#303e45;fill-opacity:1;stroke-width:1.87449"
     cx="-35.811024"
     cy="91.227783"
     r="10.440898"
     transform="rotate(-45)"
     id="circle34-3" />
  <path
     id="rect44-6"
     style="fill:#36474f;stroke-width:1.87449"
     d="m 75.068505,40.673879 13.26258,13.26258 c 1.959131,1.95913 1.959131,5.113541 10e-7,7.072671 L 54.291868,95.048348 c -1.750547,1.750546 -4.455402,1.936926 -6.409161,0.559127 -0.232797,-0.164171 -0.0078,-2.053962 -0.0078,-2.053962 L 33.956616,81.785768 c -2.115751,-1.788848 -1.959129,-5.113541 1e-6,-7.072671 L 67.995835,40.673879 c 1.95913,-1.95913 5.113541,-1.95913 7.07267,0 z" />
  <g
     id="g1126"
     transform="matrix(1.0173157,0,0,1.0173157,163.28471,6.7992901)">
    <path
       style="fill:#104d93;fill-opacity:1;stroke-width:2.39536"
       d="m -149.60445,30.172116 c -1.42828,1.428282 -1.42828,3.727968 0,5.15625 l 7.30469,7.304687 9.88281,-9.882809 -9.88281,-9.882813 z"
       id="path8-5" />
    <rect
       style="fill:#0377b0;fill-opacity:1;stroke-width:2.39536"
       width="13.976908"
       height="13.976908"
       x="-116.79461"
       y="-56.502304"
       transform="rotate(-45)"
       id="rect12-5" />
    <rect
       style="fill:#104d93;fill-opacity:1;stroke-width:2.39536"
       width="13.976908"
       height="13.976908"
       x="102.80573"
       y="-70.467232"
       transform="matrix(-0.70710678,0.70710678,0.70710678,0.70710678,0,0)"
       id="rect14-6" />
    <path
       id="rect10-3"
       style="fill:#104d93;stroke-width:2.39536"
       transform="rotate(-45)"
       d="m -130.75954,-56.502304 1.40756,-1.406345 12.56935,1.406345 v 13.976908 h -13.97691 z" />
    <path
       id="rect16-2"
       style="fill:#0377b0;stroke-width:2.39536"
       transform="matrix(-0.70710678,0.70710678,0.70710678,0.70710678,0,0)"
       d="m 116.79461,-70.467232 12.57085,-1.412262 1.40606,1.412262 v 13.976908 l -1.43008,-1.415 -12.54683,1.415 z" />
    <path
       style="fill:#0377b0;fill-opacity:1;stroke-width:2.39536"
       d="m -142.29976,22.867431 9.88281,9.882813 9.88281,-9.882813 -7.30468,-7.304685 c -1.42828,-1.428282 -3.72797,-1.428282 -5.15625,0 z"
       id="path18-9" />
    <path
       style="fill:#0377b0;fill-opacity:1;stroke-width:2.39536"
       d="m -83.002898,101.92991 7.304687,7.30469 c 1.428279,1.42828 3.727968,1.42828 5.156247,0 l 7.304687,-7.30469 -0.0061,-1.996257 -9.87673,-7.886548 -9.890228,7.877579 z"
       id="path20-1" />
    <path
       style="fill:#104d93;fill-opacity:1;stroke-width:2.39536"
       d="m -73.120086,92.047105 9.873401,7.885175 0.0094,1.99763 7.304686,-7.304683 c 1.428282,-1.428279 1.428282,-3.727965 0,-5.156247 l -7.304686,-7.304687 z"
       id="path22-2" />
    <rect
       style="fill:#0377b0;fill-opacity:1;stroke-width:2.39536"
       width="13.976908"
       height="13.976908"
       x="102.80573"
       y="-0.59467298"
       transform="matrix(-0.70710678,0.70710678,0.70710678,0.70710678,0,0)"
       id="rect24-7" />
    <path
       id="rect26-0"
       style="fill:#104d93;stroke-width:2.39536"
       transform="matrix(-0.70710678,0.70710678,0.70710678,0.70710678,0,0)"
       d="m 116.79461,-0.59467298 12.56024,-1.41010272 1.41667,1.41010272 V 13.382235 l -1.41435,-1.416715 -12.56256,1.416715 z" />
    <rect
       style="fill:#104d93;fill-opacity:1;stroke-width:2.39536"
       width="13.976908"
       height="13.976908"
       x="-116.79461"
       y="-14.559608"
       transform="rotate(-45)"
       id="rect30-3" />
    <path
       id="rect28-9"
       style="fill:#0377b0;stroke-width:2.39536"
       transform="rotate(-45)"
       d="m -130.76491,-14.424975 1.44821,-1.447102 12.53407,1.312469 v 13.97690727 l -12.56673,-1.41644457 -1.41018,1.41644457 z" />
  </g>
  <g
     transform="matrix(2.4368342,0,0,2.4368342,5.1263314,4.8861163)"
     id="g32">
    <path
       style="fill:#1565c0"
       d="m 2.4472027,12.546241 c -0.5962707,0.596271 -0.5962707,1.556331 0,2.152602 L 5.4967215,17.748362 9.6225411,13.622543 5.4967215,9.4967227 Z"
       id="path8" />
    <rect
       style="fill:#1565c0"
       width="5.835"
       height="5.835"
       x="-8.6599998"
       y="22.27"
       transform="rotate(-45)"
       id="rect10" />
    <rect
       style="fill:#039be5"
       width="5.835"
       height="5.835"
       x="-2.8299999"
       y="22.27"
       transform="rotate(-45)"
       id="rect12" />
    <rect
       style="fill:#1565c0"
       width="5.835"
       height="5.835"
       x="-3.01"
       y="16.440001"
       transform="matrix(-0.70710678,0.70710678,0.70710678,0.70710678,0,0)"
       id="rect14" />
    <rect
       style="fill:#039be5"
       width="5.835"
       height="5.835"
       x="2.8299999"
       y="16.440001"
       transform="matrix(-0.70710678,0.70710678,0.70710678,0.70710678,0,0)"
       id="rect16" />
    <path
       style="fill:#039be5"
       d="M 5.4967215,9.4967227 9.6225411,13.622543 13.748361,9.4967227 10.698842,6.4472039 c -0.59627,-0.5962707 -1.5563311,-0.5962707 -2.1526017,0 z"
       id="path18" />
    <path
       style="fill:#039be5"
       d="m 30.251639,42.503279 3.049519,3.049519 c 0.59627,0.596271 1.556331,0.596271 2.152601,0 l 3.049519,-3.049519 -4.125819,-4.125819 z"
       id="path20" />
    <path
       style="fill:#1565c0"
       d="m 34.377459,38.37746 4.125819,4.125819 3.049519,-3.049519 c 0.596271,-0.59627 0.596271,-1.55633 0,-2.152601 L 38.503278,34.25164 Z"
       id="path22" />
    <rect
       style="fill:#039be5"
       width="5.835"
       height="5.835"
       x="-3.01"
       y="45.610001"
       transform="matrix(-0.70710678,0.70710678,0.70710678,0.70710678,0,0)"
       id="rect24" />
    <rect
       style="fill:#1565c0"
       width="5.835"
       height="5.835"
       x="2.8299999"
       y="45.610001"
       transform="matrix(-0.70710678,0.70710678,0.70710678,0.70710678,0,0)"
       id="rect26" />
    <rect
       style="fill:#039be5"
       width="5.835"
       height="5.835"
       x="-8.6599998"
       y="39.779999"
       transform="rotate(-45)"
       id="rect28" />
    <rect
       style="fill:#1565c0"
       width="5.835"
       height="5.835"
       x="-2.8299999"
       y="39.779999"
       transform="rotate(-45)"
       id="rect30" />
  </g>
  <path
     style="fill:#b0b0b0;fill-opacity:1;stroke-width:1.87449"
     d="m 117.99561,53.899702 c -8.23443,8.234437 -19.752886,10.788489 -30.154683,7.570229 -0.202798,-0.06275 -0.0073,-1.988024 -0.0073,-1.988024 0,0 -9.272174,-2.136138 -12.718239,-5.582205 -11.841035,-11.841043 -11.841042,-31.039154 0,-42.880193 L 118,51.870932 Z"
     id="path48-6" />
  <circle
     style="fill:#455a64;stroke-width:1.87449"
     cx="-34.372322"
     cy="89.789078"
     r="10.440898"
     transform="rotate(-45)"
     id="circle34" />
  <path
     style="fill:#303e45;fill-opacity:1;stroke-width:0.257571"
     d="M 107.47337,21.541755 99.581148,36.72802 94.14625,52.115704 86.650782,42.364335 76.899413,34.868862 92.287097,29.433966 Z"
     id="path36-0" />
  <path
     id="circle40-6"
     style="fill:#36474f;stroke-width:1.87449"
     d="m 112.77538,15.157801 c 2.92813,2.928132 2.92813,7.675573 0,10.603705 -2.23986,2.23986 -5.54427,2.76635 -8.28459,1.57947 -0.2044,-0.08854 -0.48298,-1.191834 -0.48298,-1.191834 0,0 -1.31494,0.133557 -1.83613,-0.387637 -2.928135,-2.928132 -2.928135,-7.675572 0,-10.603704 2.92813,-2.928132 7.67557,-2.928132 10.6037,0 z" />
  <path
     style="fill:#455a64;stroke-width:0.257571"
     d="m 107.47337,19.507124 -7.892218,15.186265 -5.434895,15.387684 -7.495474,-9.75137 -9.751368,-7.495472 15.387684,-5.434896 z"
     id="path36" />
  <circle
     style="fill:#607d8b;stroke-width:1.87449"
     cx="62.201294"
     cy="89.789078"
     r="7.4979515"
     transform="rotate(-45)"
     id="circle40" />
  <rect
     style="fill:#607d8b;stroke-width:1.87449"
     width="28.758392"
     height="58.140991"
     x="75.40239"
     y="-25.759375"
     rx="5.0011334"
     ry="5.0011334"
     transform="rotate(45)"
     id="rect44" />
  <path
     style="fill:#e4e4e4;stroke-width:1.87449"
     d="m 117.99561,51.86507 c -11.84104,11.841046 -31.03916,11.841046 -42.880198,0 -11.841042,-11.841036 -11.841042,-31.039153 0,-42.8801924 z"
     id="path48" />
</svg>
