<?xml version="1.0" encoding="UTF-8" standalone="no"?>
<svg
   width="128"
   height="128"
   viewBox="0 0 128 128"
   version="1.1"
   id="svg60"
   xml:space="preserve"
   xmlns:xlink="http://www.w3.org/1999/xlink"
   xmlns="http://www.w3.org/2000/svg"
   xmlns:svg="http://www.w3.org/2000/svg"><defs
     id="defs40"><linearGradient
       id="linearGradient10309"><stop
         style="stop-color:#5fcdfe;stop-opacity:1;"
         offset="0"
         id="stop10305" /><stop
         style="stop-color:#3451e2;stop-opacity:1;"
         offset="1"
         id="stop10307" /></linearGradient><linearGradient
       x1="64"
       y1="8"
       x2="64"
       y2="120"
       id="c"
       gradientUnits="userSpaceOnUse"
       gradientTransform="matrix(0.96428571,0,0,0.96428571,2.2857188,0.2857203)"><stop
         stop-color="#FEFEFE"
         offset="0%"
         id="stop14" /><stop
         stop-color="#E0E0E0"
         offset="100%"
         id="stop16" /></linearGradient><linearGradient
       xlink:href="#linearGradient1097"
       id="linearGradient1099"
       x1="9.9999962"
       y1="68"
       x2="118"
       y2="68"
       gradientUnits="userSpaceOnUse"
       gradientTransform="translate(1.5e-6,-1.9999943)" /><linearGradient
       id="linearGradient1097"><stop
         style="stop-color:#b2b2b2;stop-opacity:1;"
         offset="0"
         id="stop1093" /><stop
         style="stop-color:#ffffff;stop-opacity:1;"
         offset="0.05234205"
         id="stop1101" /><stop
         style="stop-color:#b2b2b2;stop-opacity:1;"
         offset="0.15255697"
         id="stop1103" /><stop
         style="stop-color:#b2b2b2;stop-opacity:1;"
         offset="0.85064137"
         id="stop1105" /><stop
         style="stop-color:#ffffff;stop-opacity:1;"
         offset="0.94848526"
         id="stop1107" /><stop
         style="stop-color:#b2b2b2;stop-opacity:1;"
         offset="1"
         id="stop1095" /></linearGradient><linearGradient
       xlink:href="#linearGradient10309"
       id="linearGradient10311"
       x1="63.749999"
       y1="256.79892"
       x2="163.75"
       y2="256.79892"
       gradientUnits="userSpaceOnUse"
       gradientTransform="matrix(1.0049246,0,0,1.0049246,-52.310183,-322.06356)" /></defs><path
     style="fill:url(#linearGradient1099);fill-opacity:1;stroke:none;stroke-width:0.111043"
     d="M 64.000001,12.000002 C 93.826031,12.000002 118,36.173971 118,66.000008 c 0,29.82603 -24.185069,54.000002 -53.999999,54.000002 -29.81493,0 -54.0000025,-24.173972 -54.0000025,-54.000002 0,-29.826038 24.1739635,-54.000007 54.0000025,-54.000007"
     id="path24-2" /><circle
     fill="url(#c)"
     cx="64"
     cy="62.000004"
     id="circle48"
     style="fill:url(#c);fill-rule:evenodd;stroke-width:0.964286"
     r="54" /><circle
     style="fill:url(#linearGradient10311);fill-opacity:1;fill-rule:evenodd;stroke:none;stroke-width:0.492466;stroke-linecap:round;stroke-linejoin:round;stroke-miterlimit:10"
     id="path9940"
     cx="62.000004"
     cy="-63.999996"
     r="50"
     transform="rotate(90)" /><path
     id="path9248"
     style="fill:#ffffff;stroke-width:2.41882"
     d="m 65.169151,27.347691 c -7.12065,0.0281 -15.54756,0.98379 -24.14569,2.83456 -4.29872,0.9253 -5.0172,1.15191 -4.95104,1.5401 0.0658,0.38716 11.55449,33.77327 11.75868,34.18004 h 4.49277 c 0.01,-0.0237 0.0194,-0.047 0.0194,-0.0756 0,-0.28839 -0.72929,-4.16862 -3.60459,-22.08593 -0.67063,-4.17897 -1.1652,-7.8418 -1.10076,-8.13518 0.27579,-1.25566 2.39214,-2.52383 5.14943,-3.08494 5.25479,-1.06934 14.28077,-0.82415 21.48596,0.58108 3.96442,0.77318 6.51002,1.81959 6.51002,2.67866 0,0.92887 -2.12898,2.01826 -5.10691,2.61252 -6.79842,1.35662 -18.81227,1.00721 -20.73008,-0.7795 -0.76604,-0.71368 -0.31017,-1.19338 0.54803,-0.57637 1.36842,0.98388 5.26668,1.51177 11.16814,1.51177 4.61105,0 6.88948,-0.438 9.68003,-1.07713 1.54558,-0.35398 3.48865,-1.22006 3.50066,-1.55901 0.0121,-0.36756 -1.77268,-1.10573 -4.09119,-1.69128 -6.78427,-1.71338 -18.23746,-2.10639 -23.33314,-0.80313 -2.24184,0.57336 -4.08177,1.67782 -4.08177,2.45189 0,0.39316 2.33632,1.9918 4.13846,3.0188 1.90581,1.08608 4.1716,1.91836 6.8927,2.52749 1.85166,0.41449 2.60254,0.4677 6.59506,0.4677 3.90776,0 4.80615,-0.0642 6.77459,-0.46298 4.34909,-0.88113 8.2754,-2.17939 11.25321,-4.17624 2.46575,-1.65349 2.32435,-1.45335 1.79521,-2.54639 -0.9879,-2.04074 -3.55296,-4.61834 -6.90214,-5.71163 -3.42839,-1.11913 -8.17627,-1.66124 -13.71453,-1.63931 z m 20.3096,9.96347 c -0.14344,-0.002 -0.48377,0.23646 -1.19053,0.71336 -1.41723,0.95648 -4.37932,2.10746 -6.55254,2.83456 -7.02346,2.34986 -15.29586,2.54743 -21.54263,0.51494 -2.00801,-0.65332 -4.7853,-1.82559 -6.25493,-2.93849 -0.71605,-0.54223 -1.32493,-0.96101 -1.35585,-0.93067 -0.0639,0.0624 4.52709,27.99174 4.66284,28.37863 0.002,0.007 0.01,0.0126 0.0145,0.0189 h 3.70854 c 0.0274,-0.43068 -0.11248,-2.10386 -0.3307,-5.28645 -0.26063,-3.80365 -0.35351,-7.04016 -0.24566,-7.44544 0.2235,-0.84005 1.22531,-1.59057 2.47081,-1.8519 0.65663,-0.13788 3.13049,-0.15379 7.33677,-0.052 5.95714,0.14416 6.38085,0.1765 6.89742,0.56218 0.30271,0.22592 0.73014,0.64781 0.94486,0.93541 0.38725,0.51869 0.38529,1.29204 -0.0426,7.31788 -0.23728,3.3409 -0.43171,5.5094 -0.42992,5.70218 3.7e-4,0.0459 0.0121,0.0834 0.0282,0.11812 h 5.67858 c 0.0732,-0.24212 0.51772,-1.68759 1.011,-4.37467 1.1699,-6.37328 2.42927,-12.19742 3.89277,-18.00417 0.6386,-2.53368 1.22809,-4.99802 1.30863,-5.48014 0.0813,-0.48574 0.13401,-0.73024 -0.01,-0.73225 z m 6.652426,29.950209 c 0,4.47888 -0.96752,8.74558 -2.72852,12.85996 -1.44615,3.37936 -3.67012,6.67613 -6.31445,9.23526 -2.4006,2.32324 -5.20547,4.18371 -8.23761,5.57199 -2.94513,1.34868 -6.21156,2.07145 -9.44404,2.07145 -16.307246,0 -28.733984,-13.53973 -28.733984,-29.73866 h 55.458604 m -16.2759,3.10809 c -5.82717,0.98137 -4.57533,9.97029 1.20562,9.02187 5.83421,-0.95747 4.58599,-9.99702 -1.20562,-9.02187 m -24.11243,0.41474 c -5.467296,1.30247 -3.273476,10.01871 2.21031,8.83097 5.99073,-1.29725 3.72175,-10.24416 -2.21031,-8.83097 z" /></svg>
