<?xml version="1.0" encoding="UTF-8" standalone="no"?>
<svg
   width="128"
   height="128"
   version="1"
   id="svg12"
   xmlns:xlink="http://www.w3.org/1999/xlink"
   xmlns="http://www.w3.org/2000/svg"
   xmlns:svg="http://www.w3.org/2000/svg">
  <defs
     id="defs16">
    <linearGradient
       id="linearGradient872">
      <stop
         style="stop-color:#024d6e;stop-opacity:1;"
         offset="0"
         id="stop868" />
      <stop
         style="stop-color:#1cb9fc;stop-opacity:1;"
         offset="0.40667868"
         id="stop876" />
      <stop
         style="stop-color:#024d6e;stop-opacity:1;"
         offset="0.81313121"
         id="stop880" />
      <stop
         style="stop-color:#03b1fc;stop-opacity:1;"
         offset="1"
         id="stop882" />
    </linearGradient>
    <linearGradient
       xlink:href="#linearGradient872"
       id="linearGradient874"
       x1="10.000001"
       y1="66"
       x2="118"
       y2="66"
       gradientUnits="userSpaceOnUse"
       gradientTransform="matrix(1.1111111,0,0,1.0925926,-7.1111115,-6.1111116)" />
  </defs>
  <rect
     style="fill:url(#linearGradient874);fill-opacity:1;stroke-width:2.12492"
     width="120"
     height="118"
     x="4.0000005"
     y="6.9999995"
     rx="60"
     ry="59"
     id="rect4-5" />
  <path
     style="fill:#cccccc;fill-opacity:1;stroke-width:2.12492"
     d="M 60.355753,7.1175298 C 55.309181,7.4122403 50.439627,8.3190877 45.813101,9.7563551 36.881086,34.862516 27.910068,62.391265 18.996055,86.676135 c 0.648013,0.187401 1.287475,0.110308 1.957243,0.121016 3.68922,-0.02152 7.39284,0.01093 11.09316,0 0.500998,0 0.438109,-0.712382 0.650475,-1.025617 4.446203,-12.338616 8.963217,-24.614098 13.431325,-36.943564 0.26682,-0.762974 0.562924,-1.579639 0.914173,-2.310485 2.319744,0.04284 4.606125,-0.03213 6.914886,0 -4.84915,13.374673 -9.681499,26.828113 -14.61496,40.15912 0.52005,0.198141 1.034518,0.110308 1.57635,0.121015 3.871639,-0.03212 7.731278,0.05354 11.602918,0 4.380796,-12.151279 8.908611,-24.280735 13.314012,-36.433199 0.936617,-2.478993 1.070042,-5.656144 -0.5274,-7.691978 -3.390386,-4.321244 -10.91794,-5.041942 -15.786894,-5.220126 3.550604,-9.887409 7.232922,-20.230013 10.83513,-30.3354329 z M 77.959354,39.217095 c -0.09439,0.200516 -0.157243,0.696154 -0.25197,0.893071 -9.188286,25.345803 -30.36134,78.228624 -30.36134,78.228624 l -0.01044,4.35937 c 3.297676,0.92981 6.706038,1.60029 10.213737,1.96588 l 0.0052,-4.38038 c 0,0 10.756373,-21.704013 14.398764,-31.684059 4.83835,-0.09375 9.648497,-0.04458 14.497648,-0.138268 3.073849,-0.104452 7.716275,-1.921291 8.737292,-4.868778 4.084064,-11.305209 8.168425,-22.505982 12.124365,-33.863702 0.64802,-1.716018 1.0443,-3.598479 0.52156,-5.381493 -0.69158,-2.280865 -2.80448,-4.013257 -5.08078,-4.620968 -1.97941,-0.607712 -3.969446,-0.34321 -6.000677,-0.386046 -6.210406,-0.01049 -12.58253,-0.06252 -18.793235,-0.126765 z m 11.679127,7.161853 c 0.196692,0.02086 0.394064,0.04983 0.585995,0.02301 1.796995,0.03213 3.564106,-0.04284 5.350209,0 -4.168373,11.701398 -8.411155,23.410763 -12.517122,35.146968 -2.327904,0.157956 -4.724935,0.01093 -7.055602,0 4.244582,-11.629118 8.426458,-23.254406 12.657838,-34.905065 0.09529,-0.104408 0.26466,-0.221371 0.392625,-0.253526 v 0.01159 c 0.191957,-0.05755 0.389295,-0.04412 0.585997,-0.02301 z"
     id="path8-3" />
  <rect
     style="fill:#0393d1;fill-opacity:1;stroke-width:2.12492"
     width="120"
     height="118"
     x="4.0000005"
     y="2.9999995"
     rx="60"
     ry="59"
     id="rect4" />
  <path
     style="fill:#ffffff;stroke-width:2.12492"
     d="M 60.355751,3.1175309 C 55.309179,3.4122413 50.439625,4.3190888 45.813099,5.7563562 36.881084,30.862517 27.910066,58.391266 18.996053,82.676134 c 0.648013,0.187409 1.287475,0.110309 1.957243,0.121013 3.68922,-0.02154 7.39284,0.01049 11.09316,0 0.500998,0 0.438109,-0.712379 0.650474,-1.025616 4.446204,-12.338613 8.963218,-24.614094 13.431326,-36.94356 0.26682,-0.762974 0.562924,-1.579638 0.914173,-2.310485 2.319743,0.04284 4.606124,-0.03213 6.914886,0 -4.84915,13.374673 -9.681499,26.82811 -14.61496,40.159122 0.52005,0.198134 1.034517,0.110308 1.57635,0.121013 3.871639,-0.03213 7.731277,0.05355 11.602917,0 4.380797,-12.151283 8.908611,-24.280735 13.314012,-36.433199 0.936618,-2.478993 1.070043,-5.656144 -0.5274,-7.691978 C 61.917849,34.3512 54.390295,33.630502 49.521341,33.452318 53.071945,23.564909 56.754262,13.222305 60.356471,3.1168852 Z M 77.947807,35.257425 c -0.09439,0.200516 -0.157244,0.696154 -0.25197,0.893071 -9.444171,26.051655 -20.654946,56.018626 -30.36045,82.560284 3.297675,0.92981 6.706681,1.60003 10.21438,1.96563 4.373296,-11.52971 10.338555,-24.930108 14.392016,-36.036482 4.83835,-0.09369 9.648497,-0.04457 14.497648,-0.138271 3.073849,-0.104408 7.716275,-1.921282 8.737292,-4.868773 4.084064,-11.305207 8.179977,-22.54631 12.135917,-33.90403 0.64803,-1.716018 1.0443,-3.598479 0.52156,-5.381492 -0.69158,-2.280866 -2.80448,-4.013258 -5.08078,-4.620969 -1.97942,-0.607712 -3.980998,-0.302881 -6.012229,-0.345717 -6.210406,-0.01049 -12.58253,-0.06252 -18.793234,-0.126765 z m 11.690672,7.121524 c 0.196692,0.02086 0.394064,0.04983 0.585995,0.02301 1.796995,0.03213 3.564106,-0.04284 5.350209,0 -4.168373,11.701398 -8.411155,23.410763 -12.517122,35.146973 -2.327904,0.157952 -4.724936,0.01049 -7.055602,0 4.244582,-11.629123 8.426457,-23.254411 12.657837,-34.90507 0.09529,-0.104408 0.26466,-0.221371 0.392626,-0.253526 v 0.01159 c 0.191957,-0.05755 0.389294,-0.04412 0.585997,-0.02301 z"
     id="path8" />
</svg>
