<?xml version="1.0" encoding="UTF-8" standalone="no"?>
<svg
   width="128"
   height="128"
   version="1"
   id="svg12"
   xmlns:xlink="http://www.w3.org/1999/xlink"
   xmlns="http://www.w3.org/2000/svg"
   xmlns:svg="http://www.w3.org/2000/svg">
  <defs
     id="defs16">
    <linearGradient
       id="linearGradient872">
      <stop
         style="stop-color:#024d6e;stop-opacity:1;"
         offset="0"
         id="stop868" />
      <stop
         style="stop-color:#0393d1;stop-opacity:1;"
         offset="0.06631235"
         id="stop876" />
      <stop
         style="stop-color:#024d6e;stop-opacity:1;"
         offset="0.15021221"
         id="stop878" />
      <stop
         style="stop-color:#024d6e;stop-opacity:1;"
         offset="0.84681118"
         id="stop880" />
      <stop
         style="stop-color:#0393d1;stop-opacity:1;"
         offset="0.92760289"
         id="stop882" />
      <stop
         style="stop-color:#024d6e;stop-opacity:1;"
         offset="1"
         id="stop870" />
    </linearGradient>
    <linearGradient
       xlink:href="#linearGradient872"
       id="linearGradient874"
       x1="10.000001"
       y1="66"
       x2="118"
       y2="66"
       gradientUnits="userSpaceOnUse" />
  </defs>
  <rect
     style="fill:url(#linearGradient874);fill-opacity:1;stroke-width:1.92857"
     width="108"
     height="108"
     x="10.000001"
     y="12"
     rx="54"
     ry="54"
     id="rect4-5" />
  <path
     style="fill:#cccccc;fill-opacity:1;stroke-width:1.92857"
     d="m 60.720179,12.10757 c -4.541915,0.269735 -8.924514,1.099731 -13.088387,2.415196 -8.038814,22.97852 -16.11273,48.174324 -24.135342,70.401154 0.583212,0.17152 1.158728,0.10096 1.761519,0.11076 3.320298,-0.0197 6.653556,0.01 9.983844,0 0.450898,0 0.394298,-0.65201 0.585427,-0.9387 4.001583,-11.29297 8.066896,-22.528157 12.088193,-33.812753 0.240138,-0.698315 0.506632,-1.445771 0.822756,-2.114681 2.087769,0.03921 4.145512,-0.02941 6.223397,0 -4.364235,12.241226 -8.713349,24.554544 -13.153464,36.755804 0.468045,0.18135 0.931066,0.10096 1.418715,0.11076 3.484475,-0.0294 6.95815,0.049 10.442626,0 3.942717,-11.12151 8.01775,-22.223046 11.982611,-33.34564 0.842956,-2.268909 0.963038,-5.17681 -0.47466,-7.040115 -3.051347,-3.955037 -9.826146,-4.614659 -14.208204,-4.777743 3.195543,-9.049493 6.509629,-18.515605 9.751617,-27.764633 z M 76.56342,41.486833 C 76.47847,41.670356 76.421901,42.123991 76.336647,42.30422 68.067189,65.502073 49.01144,113.9033 49.01144,113.9033 l -0.0094,3.98993 c 2.967908,0.85101 6.035434,1.46467 9.192363,1.79928 l 0.0047,-4.00916 c 0,0 9.680736,-19.86469 12.958888,-28.99897 4.354515,-0.0858 8.683647,-0.0408 13.047883,-0.12655 2.766464,-0.0956 6.944648,-1.75847 7.863563,-4.45617 3.675658,-10.34714 7.351586,-20.598695 10.911933,-30.993896 0.58322,-1.570593 0.93987,-3.293523 0.4694,-4.925434 -0.62242,-2.087572 -2.52403,-3.673151 -4.572697,-4.229361 -1.781474,-0.556211 -3.572507,-0.314124 -5.400615,-0.35333 -5.589365,-0.0096 -11.324277,-0.05722 -16.913911,-0.116022 z m 10.511214,6.554916 c 0.177023,0.01909 0.354658,0.04561 0.527396,0.02106 1.617295,0.02941 3.207695,-0.03921 4.815188,0 -3.751536,10.709754 -7.57004,21.4268 -11.26541,32.168411 -2.095114,0.14457 -4.252442,0.01 -6.350042,0 3.820124,-10.643599 7.583812,-21.283693 11.392054,-31.947008 0.08576,-0.09556 0.238194,-0.202611 0.353363,-0.232041 v 0.01061 c 0.172761,-0.05267 0.350365,-0.04038 0.527397,-0.02106 z"
     id="path8-3" />
  <rect
     style="fill:#0393d1;fill-opacity:1;stroke-width:1.92857"
     width="108"
     height="108"
     x="10.000001"
     y="8"
     rx="54"
     ry="54"
     id="rect4" />
  <path
     style="fill:#ffffff;stroke-width:1.92857"
     d="m 60.720177,8.107571 c -4.541915,0.269735 -8.924514,1.099731 -13.088387,2.415196 -8.038814,22.97852 -16.11273,48.174324 -24.135342,70.401152 0.583212,0.171527 1.158728,0.100961 1.761519,0.110758 3.320298,-0.01971 6.653556,0.0096 9.983844,0 0.450898,0 0.394298,-0.652008 0.585427,-0.9387 4.001583,-11.292967 8.066896,-22.528153 12.088193,-33.812749 0.240138,-0.698315 0.506632,-1.445771 0.822756,-2.114681 2.087769,0.03921 4.145512,-0.02941 6.223397,0 -4.364235,12.241226 -8.713349,24.554541 -13.153464,36.755806 0.468045,0.181343 0.931066,0.10096 1.418715,0.110758 3.484475,-0.02941 6.95815,0.04901 10.442626,0 3.942717,-11.121514 8.01775,-22.223046 11.982611,-33.34564 0.842956,-2.268909 0.963038,-5.17681 -0.47466,-7.040115 C 62.126065,36.694319 55.351266,36.034697 50.969208,35.871613 54.164751,26.82212 57.478837,17.356008 60.720825,8.10698 Z m 15.83285,29.416174 c -0.08495,0.183523 -0.141519,0.637158 -0.226773,0.817387 C 67.8265,62.18502 57.736803,89.612417 49.001849,113.90478 c 2.967908,0.85101 6.036013,1.46444 9.192942,1.79905 3.935967,-10.55261 9.3047,-22.817384 12.952815,-32.98254 4.354515,-0.08575 8.683647,-0.04079 13.047883,-0.126553 2.766464,-0.09556 6.944648,-1.758462 7.863563,-4.456165 3.675658,-10.347139 7.361977,-20.635606 10.922328,-31.030807 0.58322,-1.570593 0.93987,-3.293523 0.4694,-4.925434 -0.62242,-2.087572 -2.52403,-3.673151 -4.572701,-4.229361 -1.781474,-0.556211 -3.582898,-0.277213 -5.411006,-0.316419 -5.589365,-0.0096 -11.324277,-0.05722 -16.913911,-0.116022 z m 10.521605,6.518005 c 0.177023,0.01909 0.354658,0.04561 0.527396,0.02106 1.617295,0.02941 3.207695,-0.03921 4.815188,0 -3.751536,10.709754 -7.57004,21.4268 -11.26541,32.168416 -2.095114,0.144566 -4.252442,0.0096 -6.350042,0 3.820124,-10.643604 7.583812,-21.283698 11.392054,-31.947013 0.08576,-0.09556 0.238194,-0.202611 0.353363,-0.232041 v 0.01061 c 0.172761,-0.05267 0.350365,-0.04038 0.527397,-0.02106 z"
     id="path8" />
</svg>
