<?xml version="1.0" encoding="UTF-8" standalone="no"?>
<svg
   width="128"
   height="128"
   version="1.1"
   id="svg722"
   xmlns="http://www.w3.org/2000/svg"
   xmlns:svg="http://www.w3.org/2000/svg">
  <defs
     id="defs594">
    <linearGradient
       id="j"
       gradientUnits="userSpaceOnUse"
       x1="37"
       y1="249"
       x2="37"
       y2="254"
       gradientTransform="translate(20 -197.5)">
      <stop
         offset="0"
         stop-color="#d5d1cc"
         id="stop472" />
      <stop
         offset=".183"
         stop-color="#f6f5f4"
         id="stop474" />
      <stop
         offset=".395"
         stop-color="#fff"
         id="stop476" />
      <stop
         offset=".784"
         stop-color="#d7d3ce"
         id="stop478" />
      <stop
         offset="1"
         stop-color="#c8c2bb"
         id="stop480" />
    </linearGradient>
    <linearGradient
       id="a"
       gradientUnits="userSpaceOnUse"
       x1="32"
       y1="63.397"
       x2="480.707"
       y2="63.397"
       gradientTransform="matrix(.2496 0 0 .2496 .013 57.398)">
      <stop
         offset="0"
         stop-color="#1b744b"
         id="stop483" />
      <stop
         offset=".033"
         stop-color="#2dbf7c"
         stop-opacity=".996"
         id="stop485" />
      <stop
         offset=".085"
         stop-color="#1c764c"
         stop-opacity=".98"
         id="stop487" />
      <stop
         offset=".925"
         stop-color="#155a3a"
         stop-opacity=".98"
         id="stop489" />
      <stop
         offset=".969"
         stop-color="#2fc781"
         stop-opacity=".969"
         id="stop491" />
      <stop
         offset="1"
         stop-color="#1b724a"
         stop-opacity=".969"
         id="stop493" />
    </linearGradient>
    <linearGradient
       id="q"
       gradientUnits="userSpaceOnUse"
       x1="37"
       y1="249"
       x2="37"
       y2="254"
       gradientTransform="matrix(1 0 0 -1 40 311)">
      <stop
         offset="0"
         stop-color="#d5d1cc"
         id="stop496" />
      <stop
         offset=".183"
         stop-color="#f6f5f4"
         id="stop498" />
      <stop
         offset=".395"
         stop-color="#fff"
         id="stop500" />
      <stop
         offset=".784"
         stop-color="#d7d3ce"
         id="stop502" />
      <stop
         offset="1"
         stop-color="#c8c2bb"
         id="stop504" />
    </linearGradient>
    <linearGradient
       id="d"
       gradientUnits="userSpaceOnUse"
       x1="94.021"
       y1="194.219"
       x2="94.021"
       y2="234.219"
       gradientTransform="matrix(.25 0 0 .2496 .495 57.398)">
      <stop
         offset="0"
         stop-color="#f9f06b"
         id="stop507" />
      <stop
         offset=".512"
         stop-color="#fcf7ac"
         id="stop509" />
      <stop
         offset="1"
         stop-color="#f9f06b"
         id="stop511" />
    </linearGradient>
    <linearGradient
       id="p"
       gradientUnits="userSpaceOnUse"
       x1="37"
       y1="249"
       x2="37"
       y2="254"
       gradientTransform="translate(40 -179)">
      <stop
         offset="0"
         stop-color="#d5d1cc"
         id="stop514" />
      <stop
         offset=".183"
         stop-color="#f6f5f4"
         id="stop516" />
      <stop
         offset=".395"
         stop-color="#fff"
         id="stop518" />
      <stop
         offset=".784"
         stop-color="#d7d3ce"
         id="stop520" />
      <stop
         offset="1"
         stop-color="#c8c2bb"
         id="stop522" />
    </linearGradient>
    <linearGradient
       id="o"
       gradientUnits="userSpaceOnUse"
       x1="17"
       y1="253"
       x2="18.608"
       y2="259"
       gradientTransform="matrix(1 0 0 .33333 8 -30.667)">
      <stop
         offset="0"
         stop-color="#f9f06b"
         id="stop525" />
      <stop
         offset=".512"
         stop-color="#fcf7ac"
         id="stop527" />
      <stop
         offset="1"
         stop-color="#f9f06b"
         id="stop529" />
    </linearGradient>
    <linearGradient
       id="g"
       gradientUnits="userSpaceOnUse"
       x1="202.021"
       y1="242.794"
       x2="202.021"
       y2="234.781"
       gradientTransform="matrix(.25 0 0 .2496 .495 57.398)">
      <stop
         offset="0"
         stop-color="#c09608"
         id="stop532" />
      <stop
         offset="1"
         stop-color="#f6ca30"
         id="stop534" />
    </linearGradient>
    <linearGradient
       id="n"
       gradientUnits="userSpaceOnUse"
       x1="17"
       y1="253"
       x2="18.608"
       y2="259"
       gradientTransform="translate(8 -196)">
      <stop
         offset="0"
         stop-color="#f9f06b"
         id="stop537" />
      <stop
         offset=".512"
         stop-color="#fcf7ac"
         id="stop539" />
      <stop
         offset="1"
         stop-color="#f9f06b"
         id="stop541" />
    </linearGradient>
    <linearGradient
       id="m"
       gradientUnits="userSpaceOnUse"
       x1="17"
       y1="253"
       x2="18.608"
       y2="259"
       gradientTransform="matrix(1 0 0 .33333 8 -18.667)">
      <stop
         offset="0"
         stop-color="#f9f06b"
         id="stop544" />
      <stop
         offset=".512"
         stop-color="#fcf7ac"
         id="stop546" />
      <stop
         offset="1"
         stop-color="#f9f06b"
         id="stop548" />
    </linearGradient>
    <linearGradient
       id="l"
       gradientUnits="userSpaceOnUse"
       x1="17"
       y1="253"
       x2="18.608"
       y2="259"
       gradientTransform="matrix(1 0 0 .33333 0 -6.667)">
      <stop
         offset="0"
         stop-color="#f9f06b"
         id="stop551" />
      <stop
         offset=".512"
         stop-color="#fcf7ac"
         id="stop553" />
      <stop
         offset="1"
         stop-color="#f9f06b"
         id="stop555" />
    </linearGradient>
    <linearGradient
       id="k"
       gradientUnits="userSpaceOnUse"
       x1="17"
       y1="253"
       x2="18.608"
       y2="259"
       gradientTransform="translate(0 -172)">
      <stop
         offset="0"
         stop-color="#f9f06b"
         id="stop558" />
      <stop
         offset=".512"
         stop-color="#fcf7ac"
         id="stop560" />
      <stop
         offset="1"
         stop-color="#f9f06b"
         id="stop562" />
    </linearGradient>
    <linearGradient
       id="r"
       gradientUnits="userSpaceOnUse"
       x1="37"
       y1="249"
       x2="37"
       y2="254"
       gradientTransform="translate(0 -170)">
      <stop
         offset="0"
         stop-color="#d5d1cc"
         id="stop565" />
      <stop
         offset=".183"
         stop-color="#f6f5f4"
         id="stop567" />
      <stop
         offset=".395"
         stop-color="#fff"
         id="stop569" />
      <stop
         offset=".784"
         stop-color="#d7d3ce"
         id="stop571" />
      <stop
         offset="1"
         stop-color="#c8c2bb"
         id="stop573" />
    </linearGradient>
    <clipPath
       id="b">
      <path
         d="M18 102h86v16H18zm0 0"
         id="path576" />
    </clipPath>
    <clipPath
       id="i">
      <path
         d="M16.496 28.445h96.176c4.418 0 8 3.575 8 7.989v73.578c0 4.414-3.582 7.988-8 7.988H16.496c-4.418 0-8-3.574-8-7.988V36.434c0-4.414 3.582-7.989 8-7.989zm0 0"
         id="path579" />
    </clipPath>
    <clipPath
       id="h">
      <path
         d="M98 115h6v3h-6zm0 0"
         id="path582" />
    </clipPath>
    <clipPath
       id="f">
      <path
         d="M16.496 28.445h96.176c4.418 0 8 3.575 8 7.989v73.578c0 4.414-3.582 7.988-8 7.988H16.496c-4.418 0-8-3.574-8-7.988V36.434c0-4.414 3.582-7.989 8-7.989zm0 0"
         id="path585" />
    </clipPath>
    <clipPath
       id="e">
      <path
         d="M18 116h76v2H18zm0 0"
         id="path588" />
    </clipPath>
    <clipPath
       id="c">
      <path
         d="M16.496 28.445h96.176c4.418 0 8 3.575 8 7.989v73.578c0 4.414-3.582 7.988-8 7.988H16.496c-4.418 0-8-3.574-8-7.988V36.434c0-4.414 3.582-7.989 8-7.989zm0 0"
         id="path591" />
    </clipPath>
  </defs>
  <path
     d="M16 35.988h96a8 8 0 018 8V110a8 8 0 01-8 8H16a8 8 0 01-8-8V43.988a8 8 0 018-8zm0 0"
     fill="url(#a)"
     id="path596" />
  <path
     d="M15.988 28C11.563 28 8 31.582 8 36.027v71.946c0 4.445 3.563 8.027 7.988 8.027h96.024c4.425 0 7.988-3.582 7.988-8.027V36.027c0-4.445-3.563-8.027-7.988-8.027H108a8 8 0 01-16 0zm0 0"
     fill="#2ec27e"
     id="path598" />
  <path
     d="M82.021 214.217v-47.544l24-24.039h20l20-20.032V74.025M122.021 206.736v-32.05l40-40.064V90.004"
     transform="matrix(.25 0 0 .2496 .495 57.398)"
     fill="none"
     stroke-width="8.006"
     stroke="#f9f06b"
     id="path600" />
  <g
     clip-path="url(#b)"
     id="g606">
    <g
       clip-path="url(#c)"
       id="g604">
      <path
         d="M101 102.879c1.66 0 3 1.336 3 2.996v13.977c0 1.66-1.34 2.996-3 2.996s-3-1.336-3-2.996v-13.977c0-1.66 1.34-2.996 3-2.996zm-10 0c1.66 0 3 1.336 3 2.996v13.977c0 1.66-1.34 2.996-3 2.996s-3-1.336-3-2.996v-13.977c0-1.66 1.34-2.996 3-2.996zm-10 0c1.66 0 3 1.336 3 2.996v13.977c0 1.66-1.34 2.996-3 2.996s-3-1.336-3-2.996v-13.977c0-1.66 1.34-2.996 3-2.996zm-10 0c1.66 0 3 1.336 3 2.996v13.977c0 1.66-1.34 2.996-3 2.996s-3-1.336-3-2.996v-13.977c0-1.66 1.34-2.996 3-2.996zm-10 0c1.66 0 3 1.336 3 2.996v13.977c0 1.66-1.34 2.996-3 2.996s-3-1.336-3-2.996v-13.977c0-1.66 1.34-2.996 3-2.996zm-10 0c1.66 0 3 1.336 3 2.996v13.977c0 1.66-1.34 2.996-3 2.996s-3-1.336-3-2.996v-13.977c0-1.66 1.34-2.996 3-2.996zm-10 0c1.66 0 3 1.336 3 2.996v13.977c0 1.66-1.34 2.996-3 2.996s-3-1.336-3-2.996v-13.977c0-1.66 1.34-2.996 3-2.996zm-10 0c1.66 0 3 1.336 3 2.996v13.977c0 1.66-1.34 2.996-3 2.996s-3-1.336-3-2.996v-13.977c0-1.66 1.34-2.996 3-2.996zm-10 0c1.66 0 3 1.336 3 2.996v13.977c0 1.66-1.34 2.996-3 2.996s-3-1.336-3-2.996v-13.977c0-1.66 1.34-2.996 3-2.996zm0 0"
         fill="url(#d)"
         id="path602" />
    </g>
  </g>
  <g
     clip-path="url(#e)"
     id="g612">
    <g
       clip-path="url(#f)"
       id="g610">
      <path
         d="M88 116h6v3.992h-6zm-10 0h6v3.992h-6zm-10 0h6v3.992h-6zm-10 0h6v3.992h-6zm-10 0h6v3.992h-6zm-10 0h6v3.992h-6zm-10 0h6v3.992h-6zm-10 0h6v3.992h-6zm0 0"
         fill="url(#g)"
         id="path608" />
    </g>
  </g>
  <g
     clip-path="url(#h)"
     id="g618">
    <g
       clip-path="url(#i)"
       id="g616">
      <path
         d="M98 115.86h6v3.992h-6zm0 0"
         fill="#f5c211"
         id="path614" />
    </g>
  </g>
  <path
     d="M8 106.973v1c0 4.445 3.563 8.027 7.988 8.027h96.024c4.425 0 7.988-3.582 7.988-8.027v-1c0 4.445-3.563 8.027-7.988 8.027H15.988C11.563 115 8 111.418 8 106.973zm0 0"
     fill="#fff"
     fill-opacity=".126"
     id="path620" />
  <path
     d="M61 106v-5l-8-8V80M51 106v-7l-2-2V80M41 106v-9l4-4V80"
     fill="none"
     stroke-width="2"
     stroke="#f9f06b"
     id="path622" />
  <path
     d="M35 57h24a3 3 0 013 3v17a3 3 0 01-3 3H35a3 3 0 01-3-3V60a3 3 0 013-3zm0 0"
     fill="#3d3846"
     id="path624" />
  <path
     d="M43 41h11l3 3v12"
     fill="none"
     stroke-width="2"
     stroke="#f9f06b"
     id="path626" />
  <path
     d="M53 56V45l-4-4M49 56V46l-5-5M45 56v-7l-2-2H32M41 56v-8M37 56v-8"
     fill="none"
     stroke-width="2"
     stroke="#f9f06b"
     id="path628" />
  <path
     d="M37 50.996c-.555 0-1 .445-1 1V56h2v-4.004c0-.555-.445-1-1-1zm4 0c-.555 0-1 .445-1 1V56h2v-4.004c0-.555-.445-1-1-1zm4 0c-.555 0-1 .445-1 1V56h2v-4.004c0-.555-.445-1-1-1zm4 0c-.555 0-1 .445-1 1V56h2v-4.004c0-.555-.445-1-1-1zm4 0c-.555 0-1 .445-1 1V56h2v-4.004c0-.555-.445-1-1-1zm4 0c-.555 0-1 .445-1 1V56h2v-4.004c0-.555-.445-1-1-1zm0 0"
     fill="url(#j)"
     id="path630" />
  <path
     d="M35 54h24a3 3 0 013 3v18a3 3 0 01-3 3H35a3 3 0 01-3-3V57a3 3 0 013-3zm0 0"
     fill="#5e5c64"
     id="path632" />
  <path
     d="M57 80v7l14 14v4"
     fill="none"
     stroke-width="2"
     stroke="#f9f06b"
     id="path634" />
  <path
     d="M36 60h15v2H36zm0 0M36 64h8v4h-8zm0 0M45 64h11v4H45zm0 0"
     fill="#77767b"
     id="path636" />
  <path
     d="M77 81a1.999 1.999 0 11-4 0 1.999 1.999 0 114 0zm0 0M85 81a1.999 1.999 0 11-4 0 1.999 1.999 0 114 0zm0 0M97 81a1.999 1.999 0 11-4 0 1.999 1.999 0 114 0zm0 0M97 73a1.999 1.999 0 11-4 0 1.999 1.999 0 114 0zm0 0"
     fill="none"
     stroke-width="2"
     stroke="#f9f06b"
     id="path638" />
  <path
     d="M75 83v2l6 6v15M83 83v2l2 2h8l2-2v-2M43 41a1.999 1.999 0 11-4 0 1.999 1.999 0 114 0zm0 0M32 47a1.999 1.999 0 11-4 0 1.999 1.999 0 114 0zm0 0"
     fill="none"
     stroke-width="2"
     stroke="#f9f06b"
     id="path640" />
  <path
     d="M12 82h8v6h-8zm0 0"
     fill="url(#k)"
     id="path642" />
  <path
     d="M12 78h8v2h-8zm0 0"
     fill="url(#l)"
     id="path644" />
  <path
     d="M20 66h8v2h-8zm0 0"
     fill="url(#m)"
     id="path646" />
  <path
     d="M20 58h8v6h-8zm0 0"
     fill="url(#n)"
     id="path648" />
  <path
     d="M20 54h8v2h-8zm0 0"
     fill="url(#o)"
     id="path650" />
  <path
     d="M95 56.996a1.999 1.999 0 110 4c-1.105 0-2-.894-2-2 0-1.105.895-2 2-2zm0 0M95 44.996a1.999 1.999 0 110 4c-1.105 0-2-.894-2-2 0-1.105.895-2 2-2zm0 0M87 44.996a1.999 1.999 0 110 4c-1.105 0-2-.894-2-2 0-1.105.895-2 2-2zm0 0"
     fill="none"
     stroke-width="2"
     stroke="#f9f06b"
     id="path652" />
  <path
     d="M97 58.996h2l2-2v-8l-2-2h-2"
     fill="none"
     stroke-width="2"
     stroke="#f9f06b"
     id="path654" />
  <path
     d="M76 61h10c1.105 0 2 .895 2 2v7c0 1.105-.895 2-2 2H76c-1.105 0-2-.895-2-2v-7c0-1.105.895-2 2-2zm0 0"
     fill="#3d3846"
     id="path656" />
  <path
     d="M76 71v3c0 .555.445 1 1 1 .555 0 1-.445 1-1v-3zm4 0v3c0 .555.445 1 1 1 .555 0 1-.445 1-1v-3zm4 0v3c0 .555.445 1 1 1 .555 0 1-.445 1-1v-3zm0 0"
     fill="url(#p)"
     id="path658" />
  <path
     d="M76 61v-3c0-.555.445-1 1-1 .555 0 1 .445 1 1v3zm4 0v-3c0-.555.445-1 1-1 .555 0 1 .445 1 1v3zm4 0v-3c0-.555.445-1 1-1 .555 0 1 .445 1 1v3zm0 0"
     fill="url(#q)"
     id="path660" />
  <path
     d="M76 58h10c1.105 0 2 .895 2 2v8c0 1.105-.895 2-2 2H76c-1.105 0-2-.895-2-2v-8c0-1.105.895-2 2-2zm0 0"
     fill="#5e5c64"
     id="path662" />
  <path
     d="M76 60h8v2h-8zm0 0M76 64h4v2h-4zm0 0"
     fill="#77767b"
     id="path664" />
  <path
     d="M104 90h6v6h-6zm0 0"
     fill="#986a44"
     id="path666" />
  <path
     d="M104 90h6v4h-6zm0 0"
     fill="#b5835a"
     id="path668" />
  <path
     d="M104 90h2v4h-2zm0 0"
     fill="#f6f5f4"
     id="path670" />
  <path
     d="M104 96h2v-2h-2zm0 0"
     fill="#c0bfbc"
     id="path672" />
  <path
     d="M110 90h2v4h-2zm0 0"
     fill="#f6f5f4"
     id="path674" />
  <path
     d="M110 96h2v-2h-2zm0 0"
     fill="#c0bfbc"
     id="path676" />
  <path
     d="M104 84h6v6h-6zm0 0"
     fill="#986a44"
     id="path678" />
  <path
     d="M104 84h6v4h-6zm0 0"
     fill="#b5835a"
     id="path680" />
  <path
     d="M104 84h2v4h-2zm0 0"
     fill="#f6f5f4"
     id="path682" />
  <path
     d="M104 90h2v-2h-2zm0 0"
     fill="#c0bfbc"
     id="path684" />
  <path
     d="M110 84h2v4h-2zm0 0"
     fill="#f6f5f4"
     id="path686" />
  <path
     d="M110 90h2v-2h-2zm0 0"
     fill="#c0bfbc"
     id="path688" />
  <path
     d="M104 78h6v6h-6zm0 0"
     fill="#986a44"
     id="path690" />
  <path
     d="M104 78h6v4h-6zm0 0"
     fill="#b5835a"
     id="path692" />
  <path
     d="M104 78h2v4h-2zm0 0"
     fill="#f6f5f4"
     id="path694" />
  <path
     d="M104 84h2v-2h-2zm0 0"
     fill="#c0bfbc"
     id="path696" />
  <path
     d="M110 78h2v4h-2zm0 0"
     fill="#f6f5f4"
     id="path698" />
  <path
     d="M110 84h2v-2h-2zm0 0"
     fill="#c0bfbc"
     id="path700" />
  <path
     d="M68 40v-8h4v8zm0 0"
     fill="#986a44"
     id="path702" />
  <path
     d="M68 40v-8h2v8zm0 0"
     fill="#b5835a"
     id="path704" />
  <path
     d="M68 40v-2h4v2zm0 0M68 34v-2h4v2zm0 0"
     fill="#f6f5f4"
     id="path706" />
  <path
     d="M80 40v-8h4v8zm0 0"
     fill="#986a44"
     id="path708" />
  <path
     d="M80 40v-8h2v8zm0 0"
     fill="#b5835a"
     id="path710" />
  <path
     d="M80 40v-2h4v2zm0 0M80 34v-2h4v2zm0 0"
     fill="#f6f5f4"
     id="path712" />
  <path
     d="M74 40v-8h4v8zm0 0"
     fill="#986a44"
     id="path714" />
  <path
     d="M74 40v-8h2v8zm0 0"
     fill="#b5835a"
     id="path716" />
  <path
     d="M74 40v-2h4v2zm0 0M74 34v-2h4v2zm0 0"
     fill="#f6f5f4"
     id="path718" />
  <path
     d="M36 79v4c0 .555.445 1 1 1 .555 0 1-.445 1-1v-4zm4 0v4c0 .555.445 1 1 1 .555 0 1-.445 1-1v-4zm4 0v4c0 .555.445 1 1 1 .555 0 1-.445 1-1v-4zm4 0v4c0 .555.445 1 1 1 .555 0 1-.445 1-1v-4zm4 0v4c0 .555.445 1 1 1 .555 0 1-.445 1-1v-4zm4 0v4c0 .555.445 1 1 1 .555 0 1-.445 1-1v-4zm0 0"
     fill="url(#r)"
     id="path720" />
  <g
     transform="translate(-21.672634,-138.32736)"
     id="g1568"
     style="display:inline;enable-background:new">
    <g
       id="g1546"
       transform="translate(14.00001,-11.999987)"
       style="opacity:0.1;stroke:#00000f;stroke-opacity:1">
      <path
         style="display:inline;fill:none;stroke:#00000f;stroke-width:6;stroke-linecap:butt;stroke-linejoin:miter;stroke-opacity:1;enable-background:new"
         d="m 35.99999,249.99999 -8,8"
         id="path1540" />
      <path
         id="path1542"
         d="m 27.99999,257.99999 -14,14"
         style="display:inline;fill:none;stroke:#00000f;stroke-width:12;stroke-linecap:round;stroke-linejoin:miter;stroke-miterlimit:4;stroke-dasharray:none;stroke-opacity:1;enable-background:new" />
      <circle
         r="30.117647"
         cy="227.99998"
         cx="57.999996"
         id="circle1544"
         style="opacity:1;fill:none;fill-opacity:0.385827;stroke:#00000f;stroke-width:3.76471;stroke-linejoin:round;stroke-miterlimit:4;stroke-dasharray:none;stroke-dashoffset:0;stroke-opacity:1" />
    </g>
    <g
       transform="translate(14.00001,-13.999987)"
       id="g1558"
       style="display:inline;enable-background:new">
      <path
         style="display:inline;opacity:0.154;fill:none;stroke:#ffffff;stroke-width:1.63784;stroke-linecap:round;stroke-linejoin:miter;stroke-miterlimit:4;stroke-dasharray:none;stroke-opacity:1;enable-background:new"
         d="m 11.890335,268.55054 15.45714,-15.45715"
         id="path1548" />
      <path
         id="path1550"
         d="m 35.99999,249.99999 -8,8"
         style="fill:none;stroke:#949390;stroke-width:6;stroke-linecap:butt;stroke-linejoin:miter;stroke-opacity:1" />
      <path
         style="fill:none;stroke:#d5d3cf;stroke-width:6;stroke-linecap:butt;stroke-linejoin:miter;stroke-opacity:1"
         d="m 35.99999,247.99999 -8,8"
         id="path1552" />
      <path
         style="fill:none;stroke:#241f31;stroke-width:12;stroke-linecap:round;stroke-linejoin:miter;stroke-miterlimit:4;stroke-dasharray:none;stroke-opacity:1"
         d="m 27.99999,257.99999 -14,14"
         id="path1554" />
      <path
         id="path1556"
         d="m 27.99999,255.99999 -14,14"
         style="fill:none;stroke:#424048;stroke-width:12;stroke-linecap:round;stroke-linejoin:miter;stroke-miterlimit:4;stroke-dasharray:none;stroke-opacity:1" />
    </g>
    <circle
       transform="scale(-1,1)"
       r="29.937637"
       style="display:inline;opacity:0.5;fill:#ffffff;fill-opacity:1;stroke:none;stroke-width:0.441942;stroke-linecap:butt;stroke-linejoin:round;stroke-miterlimit:4;stroke-dasharray:none;stroke-dashoffset:0;stroke-opacity:1;enable-background:new"
       id="circle1560"
       cx="-71.999969"
       cy="212.06238" />
    <circle
       r="30.117647"
       cy="214"
       cx="72.000008"
       id="circle1562"
       style="opacity:1;fill:none;fill-opacity:0.385827;stroke:#1a5fb4;stroke-width:3.76471;stroke-linejoin:round;stroke-miterlimit:4;stroke-dasharray:none;stroke-dashoffset:0;stroke-opacity:1" />
    <circle
       style="opacity:1;fill:none;fill-opacity:0.385827;stroke:#62a0ea;stroke-width:3.76471;stroke-linejoin:round;stroke-miterlimit:4;stroke-dasharray:none;stroke-dashoffset:0;stroke-opacity:1"
       id="circle1564"
       cx="72.000008"
       cy="212"
       r="30.117647" />
    <path
       style="display:inline;opacity:0.154;fill:none;stroke:#ffffff;stroke-width:2;stroke-linecap:round;stroke-linejoin:miter;stroke-miterlimit:4;stroke-dasharray:none;stroke-opacity:1;enable-background:new"
       d="M 25,255 41,239"
       id="path1566" />
  </g>
</svg>
