<?xml version="1.0" encoding="UTF-8" standalone="no"?>
<svg
   width="128"
   height="128"
   viewBox="0 0 128 128"
   fill="none"
   version="1.1"
   id="svg12"
   xmlns:xlink="http://www.w3.org/1999/xlink"
   xmlns="http://www.w3.org/2000/svg"
   xmlns:svg="http://www.w3.org/2000/svg">
  <defs
     id="defs16">
    <linearGradient
       id="linearGradient874">
      <stop
         style="stop-color:#0a8f69;stop-opacity:1;"
         offset="0"
         id="stop870" />
      <stop
         style="stop-color:#0dbd8b;stop-opacity:1;"
         offset="0.07439716"
         id="stop878" />
      <stop
         style="stop-color:#0a8f69;stop-opacity:1;"
         offset="0.15108548"
         id="stop880" />
      <stop
         style="stop-color:#0a8f69;stop-opacity:1;"
         offset="0.8521353"
         id="stop882" />
      <stop
         style="stop-color:#0dbd8b;stop-opacity:1;"
         offset="0.9277907"
         id="stop884" />
      <stop
         style="stop-color:#0a8f69;stop-opacity:1;"
         offset="1"
         id="stop872" />
    </linearGradient>
    <linearGradient
       xlink:href="#linearGradient874"
       id="linearGradient876"
       x1="9.982774"
       y1="65.982775"
       x2="118.01723"
       y2="65.982775"
       gradientUnits="userSpaceOnUse" />
  </defs>
  <path
     fill-rule="evenodd"
     clip-rule="evenodd"
     d="m 63.999999,120 c 29.832637,0 54.017231,-24.184591 54.017231,-54.017226 0,-29.832903 -24.184594,-54.017225 -54.017231,-54.017225 -29.832903,0 -54.017225,24.184322 -54.017225,54.017225 C 9.982774,95.815409 34.167096,120 63.999999,120 Z"
     fill="#0dbd8b"
     id="path2-6"
     style="fill:url(#linearGradient876);fill-opacity:1;stroke-width:0.540172" />
  <path
     fill-rule="evenodd"
     clip-rule="evenodd"
     d="m 64.000001,116.03445 c 29.832633,0 54.017229,-24.184592 54.017229,-54.017225 C 118.01723,32.184322 93.832634,8 64.000001,8 34.167098,8 9.982776,32.184322 9.982776,62.017225 c 0,29.832633 24.184322,54.017225 54.017225,54.017225 z"
     fill="#0dbd8b"
     id="path2"
     style="stroke-width:0.540172" />
  <path
     fill-rule="evenodd"
     clip-rule="evenodd"
     d="m 54.123977,33.16911 c 0,-2.180406 1.771225,-3.947957 3.956168,-3.947957 14.80893,0 26.814258,11.980102 26.814258,26.758296 0,2.180406 -1.771764,3.947958 -3.956221,3.947958 -2.184997,0 -3.956221,-1.767552 -3.956221,-3.947958 0,-10.417383 -8.462879,-18.862383 -18.901816,-18.862383 -2.184943,0 -3.956168,-1.767551 -3.956168,-3.947956 z"
     fill="#ffffff"
     id="path4"
     style="stroke-width:0.540172" />
  <path
     fill-rule="evenodd"
     clip-rule="evenodd"
     d="m 92.839797,52.031438 c 2.184997,0 3.956221,1.767552 3.956221,3.947957 0,14.778357 -12.004787,26.758297 -26.813609,26.758297 -2.184997,0 -3.956222,-1.767443 -3.956222,-3.948119 0,-2.180135 1.771225,-3.947579 3.956222,-3.947579 10.438828,0 18.901167,-8.445053 18.901167,-18.862599 0,-2.180405 1.771224,-3.947957 3.956221,-3.947957 z"
     fill="#ffffff"
     id="path6"
     style="stroke-width:0.540172" />
  <path
     fill-rule="evenodd"
     clip-rule="evenodd"
     d="m 73.93809,90.865124 c 0,2.180675 -1.771225,3.948119 -3.956221,3.948119 -14.808715,0 -26.813773,-11.97994 -26.813773,-26.758513 0,-2.180135 1.771279,-3.947578 3.956221,-3.947578 2.184889,0 3.956168,1.767443 3.956168,3.947578 0,10.417762 8.4625,18.862815 18.901384,18.862815 2.184996,0 3.956221,1.767444 3.956221,3.947579 z"
     fill="#ffffff"
     id="path8"
     style="stroke-width:0.540172" />
  <path
     fill-rule="evenodd"
     clip-rule="evenodd"
     d="m 35.160043,72.002849 c -2.184943,0 -3.956168,-1.767444 -3.956168,-3.947579 0,-14.77841 12.005004,-26.758566 26.813989,-26.758566 2.184942,0 3.956167,1.767606 3.956167,3.948011 0,2.180405 -1.771225,3.947957 -3.956167,3.947957 -10.4391,0 -18.9016,8.444944 -18.9016,18.862598 0,2.180135 -1.771279,3.947579 -3.956221,3.947579 z"
     fill="#ffffff"
     id="path10"
     style="stroke-width:0.540172" />
</svg>
