<svg width="128" height="128" viewBox="0 0 128 128" fill="none" xmlns="http://www.w3.org/2000/svg">
<g clip-path="url(#clip0_13_138)">
<path d="M64 115C51.2696 115 39.0606 109.943 30.0589 100.941C21.0571 91.9394 16 79.7304 16 67C16 54.2696 21.0571 42.0606 30.0589 33.0589C39.0606 24.0571 51.2696 19 64 19C76.7304 19 88.9394 24.0571 97.9411 33.0589C106.943 42.0606 112 54.2696 112 67C112 79.7304 106.943 91.9394 97.9411 100.941C88.9394 109.943 76.7304 115 64 115Z" fill="url(#paint0_linear_13_138)"/>
</g>
<g clip-path="url(#clip1_13_138)">
<mask id="mask0_13_138" style="mask-type:alpha" maskUnits="userSpaceOnUse" x="16" y="14" width="96" height="96">
<path d="M112 62C112 74.7304 106.943 86.9394 97.9411 95.9411C88.9394 104.943 76.7304 110 64 110C51.2696 110 39.0606 104.943 30.0589 95.9411C21.0571 86.9394 16 74.7304 16 62C16 49.2696 21.0571 37.0606 30.0589 28.0589C39.0606 19.0571 51.2696 14 64 14C76.7304 14 88.9394 19.0571 97.9411 28.0589C106.943 37.0606 112 49.2696 112 62Z" fill="#FF0000"/>
</mask>
<g mask="url(#mask0_13_138)">
<path d="M112 62C112 74.7304 106.943 86.9394 97.9411 95.9411C88.9394 104.943 76.7304 110 64 110C51.2696 110 39.0606 104.943 30.0589 95.9411C21.0571 86.9394 16 74.7304 16 62C16 49.2696 21.0571 37.0606 30.0589 28.0589C39.0606 19.0571 51.2696 14 64 14C76.7304 14 88.9394 19.0571 97.9411 28.0589C106.943 37.0606 112 49.2696 112 62Z" fill="#FF0000"/>
<path d="M33 91.4125L42.6938 91.4075L72.6937 61.595H59.7375L42.825 81.095C41.2556 67.3325 51.4312 60.845 57.6187 60.845C72.7125 60.5731 114.431 60.845 114.431 60.845C114.299 56.8888 114.137 55.0325 113.207 51.2075H57.3319C47.7131 51.2075 33.1444 61.2763 33.1444 78.02L33 91.4125Z" fill="black" fill-opacity="0.11"/>
<path d="M69.7313 50.1625H83.925L100.05 34.15C100.624 32.8919 100.18 31.2438 98.5669 31C86.5106 31.4425 68.1919 35.5937 56.9419 42.7375C62.9981 42.175 72.1856 42.5644 75.8794 42.8884L69.6731 50.1634L69.7313 50.1625Z" fill="black" fill-opacity="0.11"/>
<path d="M30.6437 91.4375L40.3375 91.4325L70.3375 61.62H57.3812L40.4687 81.12C38.8994 67.3575 49.075 60.87 55.2625 60.87C70.3562 60.5981 112.075 60.87 112.075 60.87C111.942 56.9138 111.781 55.0575 110.851 51.2325H54.9756C45.3569 51.2325 30.7881 61.3013 30.7881 78.045L30.6437 91.4375Z" fill="white"/>
<path d="M67.375 50.1875H81.5688L97.6938 34.175C98.2675 32.9169 97.8241 31.2687 96.2106 31.025C84.1544 31.4675 65.8356 35.6187 54.5856 42.7625C60.6419 42.2 69.8294 42.5894 73.5231 42.9134L67.3169 50.1884L67.375 50.1875Z" fill="white"/>
</g>
</g>
<defs>
<linearGradient id="paint0_linear_13_138" x1="112" y1="67" x2="16" y2="67" gradientUnits="userSpaceOnUse">
<stop offset="0.15625" stop-color="#B82626"/>
<stop offset="0.208333" stop-color="#C24C4C"/>
<stop offset="0.265625" stop-color="#B82626"/>
<stop offset="0.760417" stop-color="#B82626"/>
<stop offset="0.817708" stop-color="#C24C4C"/>
<stop offset="0.854167" stop-color="#B82626"/>
</linearGradient>
<clipPath id="clip0_13_138">
<rect width="96" height="96" fill="white" transform="translate(16 19)"/>
</clipPath>
<clipPath id="clip1_13_138">
<rect width="96" height="96" fill="white" transform="translate(16 14)"/>
</clipPath>
</defs>
</svg>
