<?xml version="1.0" encoding="UTF-8" standalone="no"?>
<!-- Generator: Adobe Illustrator 26.0.2, SVG Export Plug-In . SVG Version: 6.00 Build 0)  -->

<svg
   version="1.0"
   id="Layer_1"
   x="0px"
   y="0px"
   viewBox="0 0 128 128"
   xml:space="preserve"
   width="128"
   height="128"
   xmlns:xlink="http://www.w3.org/1999/xlink"
   xmlns="http://www.w3.org/2000/svg"
   xmlns:svg="http://www.w3.org/2000/svg"><defs
   id="defs76"><linearGradient
     xlink:href="#linearGradient17"
     id="linearGradient5"
     x1="-104.64275"
     y1="176.5119"
     x2="3.3572464"
     y2="176.5119"
     gradientUnits="userSpaceOnUse"
     gradientTransform="matrix(1.0391665,0,0,1.0391666,111.01325,-120.31028)" /><linearGradient
     id="linearGradient17"
     gradientUnits="userSpaceOnUse"
     x1="0"
     y1="269.46301"
     x2="118.926"
     y2="269.46301"
     gradientTransform="matrix(1,0,0,0.98333333,-118,-175.03333)"><stop
       offset="0"
       stop-color="#e5a50a"
       id="stop14"
       style="stop-color:#000000;stop-opacity:1;" /><stop
       offset="0.414"
       stop-color="#fbdf9b"
       id="stop15-2"
       style="stop-color:#ffffff;stop-opacity:1;" /><stop
       offset="0.81300002"
       stop-color="#e5a50a"
       id="stop16"
       style="stop-color:#000000;stop-opacity:1;" /><stop
       offset="1"
       stop-color="#f8ca5b"
       id="stop17-9"
       style="stop-color:#b2b2b2;stop-opacity:1;" /></linearGradient><linearGradient
     xlink:href="#linearGradient17"
     id="linearGradient9"
     gradientUnits="userSpaceOnUse"
     gradientTransform="matrix(1.0391665,0,0,1.0391666,111.01312,-120.31096)"
     x1="-104.64275"
     y1="176.5119"
     x2="3.3572464"
     y2="176.5119" /></defs>
<style
   type="text/css"
   id="style2">
	.st0{fill:url(#SVGID_1_);}
	.st1{fill:url(#SVGID_00000062171159965967627490000013605884846004172698_);}
	.st2{fill:url(#SVGID-2_00000085966066984138215510000013018799571900533434_);}
	.st3{clip-path:url(#SVGID_00000023257072852279316340000004281102206337855156_);}
	.st4{fill:url(#SVGID_00000177446033621631838710000001370584907163434138_);}
	.st5{clip-path:url(#SVGID_00000136385553608229244970000014654043435100792964_);}
	.st6{fill:url(#SVGID_00000126306410582640054500000000964390405037519506_);}
	.st7{fill:url(#SVGID_00000109020757643166282930000006684795936706346369_);}
</style>
<radialGradient
   id="SVGID_1_"
   cx="514.5"
   cy="477.5"
   r="496.5"
   gradientTransform="matrix(1,0,0,-1,-18,974)"
   gradientUnits="userSpaceOnUse">
	<stop
   offset="0.9134"
   style="stop-color:#000000"
   id="stop4" />
	<stop
   offset="1"
   style="stop-color:#000000;stop-opacity:0"
   id="stop6" />
</radialGradient>

<radialGradient
   id="SVGID_00000163033830155146975860000008434547654242457221_"
   cx="512.05908"
   cy="481.87881"
   r="486.27271"
   gradientTransform="matrix(0.11104257,0,0,-0.11104257,7.1350999,117.51141)"
   gradientUnits="userSpaceOnUse">
	<stop
   offset="0.99"
   style="stop-color:#FFFFFF"
   id="stop11" />
	<stop
   offset="0.9951"
   style="stop-color:#FDFDFD"
   id="stop13" />
	<stop
   offset="0.9969"
   style="stop-color:#F6F6F6"
   id="stop15" />
	<stop
   offset="0.9982"
   style="stop-color:#EBEBEB"
   id="stop17" />
	<stop
   offset="0.9992"
   style="stop-color:#DADADA"
   id="stop19" />
	<stop
   offset="1"
   style="stop-color:#C7C7C7"
   id="stop21" />
</radialGradient>

<radialGradient
   id="SVGID-2_00000052072577768947982130000002178866272689676469_"
   cx="512.06152"
   cy="481.87881"
   r="444.12241"
   gradientTransform="matrix(1,0,0,-1,-18,974)"
   gradientUnits="userSpaceOnUse">
	<stop
   offset="0.99"
   style="stop-color:#000000;stop-opacity:0.5"
   id="stop26" />
	<stop
   offset="1"
   style="stop-color:#000000;stop-opacity:0"
   id="stop28" />
</radialGradient>



<radialGradient
   id="SVGID_00000092427181212153090570000016417065628950216588_"
   cx="578.89008"
   cy="482.3703"
   r="353.94269"
   gradientTransform="matrix(0.11104257,0,0,-0.1218248,7.1350999,118.45626)"
   gradientUnits="userSpaceOnUse">
	<stop
   offset="0"
   style="stop-color:#C2C0C2"
   id="stop66" />
	<stop
   offset="1"
   style="stop-color:#EBEBEB"
   id="stop68" />
</radialGradient>

		
	
		
	
<circle
   style="fill:#225566;fill-opacity:1;stroke-width:2.80574"
   cx="58.387001"
   cy="63.115002"
   r="56.115002"
   id="circle250-3" /><path
   style="fill:#77bb11;fill-opacity:1;stroke-width:2.80574"
   d="m 34.215468,12.529289 a 56.115001,56.115001 0 0 0 -4.391013,2.35627 h 0.57519 l 0.291799,0.937121 -0.827687,0.772705 3.535248,0.09872 0.541499,1.276897 -3.978567,-0.148143 -0.196402,-0.980891 -2.31753,-0.504194 a 56.115001,56.115001 0 0 0 -2.373677,1.698883 h 1.386032 v 0.926178 L 25.851532,19.7737 H 22.947558 V 19.653331 A 56.115001,56.115001 0 0 0 5.445029,44.698013 l 0.3066688,0.145899 v 4.685605 l 2.3509293,4.02906 1.9180019,0.294604 0.246645,-1.38043 -2.2631183,-3.490355 -0.4385606,-3.397765 h 1.3206784 l 0.558906,3.495966 3.2661755,4.772584 -0.838369,1.540357 2.076827,3.184529 5.156681,1.282218 v -0.838909 l 2.059432,0.294604 -0.190811,1.475825 1.616133,0.294604 2.505537,0.684603 3.535247,4.040272 4.520066,0.339497 0.437676,3.692369 -3.089131,2.166051 -0.143083,3.299553 -0.443309,2.01452 4.469552,5.611514 0.339506,1.919134 c 0,0 1.621725,0.443309 1.820933,0.443309 0.196392,0 3.633438,2.609349 3.633438,2.609349 v 10.137181 l 1.226113,0.345087 -0.833308,4.674412 2.062228,2.75805 -0.378777,4.63509 2.724386,4.80065 3.47351,3.03582 a 56.115001,56.115001 0 0 0 0.185189,0.0336 l 3.361291,0.0589 0.339497,-1.13354 -2.581302,-2.18005 0.148714,-1.08583 0.460144,-1.32711 0.0982,-1.35237 -1.747972,-0.0561 -0.883823,-1.10546 1.453389,-1.40287 0.196403,-1.05216 -1.621724,-0.46576 0.0982,-0.98201 2.306317,-0.35072 3.512802,-1.69186 1.178416,-2.16605 3.683951,-4.722082 -0.833308,-3.695176 1.127912,-1.966832 3.386543,0.103809 2.281076,-1.812516 0.740719,-7.129405 2.525166,-3.218197 0.443319,-2.070656 -2.306328,-0.740708 -1.523523,-2.499934 -5.207475,-0.05331 -4.124456,-1.579617 -0.193596,-2.946061 -1.38043,-2.412946 -3.73163,-0.05331 -2.152021,-3.392154 -1.919125,-0.937121 -0.0982,1.029712 -3.484733,0.207625 -1.279423,-1.781652 -3.630652,-0.737903 -2.99935,3.4679 -4.710846,-0.79964 -0.347914,-5.328113 -3.439851,-0.586401 1.38043,-2.612156 -0.395611,-1.501077 -4.520056,3.030212 -2.845053,-0.345107 -1.012596,-2.230573 0.61923,-2.297911 1.56618,-2.89273 3.613808,-1.82935 6.969477,-0.0052 -0.01683,2.132371 2.505557,1.167193 -0.199209,-3.63906 1.804088,-1.826545 3.644682,-2.393296 0.252507,-1.689063 3.633438,-3.790569 3.860716,-2.143595 -0.339486,-0.283381 2.61496,-2.466256 0.959547,0.249712 0.443329,0.555539 0.993215,-1.108272 0.23851,-0.103809 -1.083041,-0.154316 -1.108251,-0.370359 v -1.063381 l 0.586392,-0.476977 h 1.28783 l 0.592014,0.258129 0.510657,1.035323 0.628488,-0.09259 v -0.0954 l 0.176762,0.06173 1.812505,-0.274963 0.258129,-0.886617 1.029712,0.258129 v 0.962372 l -0.953956,0.659352 0.143094,1.052157 3.277117,1.012876 c 0,0 0.0052,0.01683 0.01122,0.04489 l 0.757574,-0.06734 0.0477,-1.425321 -2.600932,-1.186834 -0.148705,-0.681797 2.157623,-0.737913 0.0954,-2.073451 -2.253029,-1.374818 -0.148705,-3.490355 -3.094744,1.523523 h -1.130708 l 0.29741,-2.657878 -4.208638,-0.997445 -1.742362,1.320937 v 4.023448 l -3.13682,0.996042 -1.254182,2.626184 -1.363574,0.218848 V 26.94079 l -2.94326,-0.404028 -1.473009,-0.959568 -0.592013,-2.175299 5.266396,-3.090816 2.575679,-0.783646 0.260926,1.731709 1.436554,-0.07128 0.109415,-0.871187 1.501066,-0.219129 0.02795,-0.301619 -0.645323,-0.26851 -0.148695,-0.925898 1.846185,-0.153475 1.111078,-1.167192 0.06173,-0.0822 0.01684,0.0052 0.339486,-0.35072 3.880365,-0.493251 1.714304,1.463199 -4.49762,2.400321 5.726539,1.353495 0.737913,-1.918012 h 2.50554 l 0.880996,-1.671386 -1.764797,-0.443871 v -2.115245 l -5.549777,-2.465975 -3.829851,0.44387 -2.160429,1.134365 0.148683,2.75636 -2.26423,-0.345108 -0.345108,-1.523512 2.166041,-1.972725 -3.930848,-0.191912 -1.127923,0.339775 -0.488201,1.32628 1.467419,0.251956 -0.288992,1.474131 -2.505547,0.147863 -0.387183,0.981172 -3.633459,0.104082 c 0,0 -0.10101,-2.066155 -0.246906,-2.066155 -0.1459,2.81e-4 2.845021,-0.04905 2.845021,-0.04905 l 2.163246,-2.120868 -1.178417,-0.591734 -1.571221,1.528856 -2.603716,-0.148144 z m 60.831464,8.137803 -1.784457,0.701438 -1.147554,1.249401 0.263741,1.457868 1.408487,0.196403 0.844532,2.126759 2.426975,-0.982013 0.401221,2.839421 h -0.729495 l -1.994888,-0.294604 -2.208127,0.373156 -2.137981,3.0246 -3.058267,0.482588 -0.443309,2.623379 1.29345,0.300215 -0.373164,1.689063 -3.035821,-0.608848 -2.783304,0.608848 -0.592015,1.55158 0.482589,3.260284 1.632949,0.76597 2.741215,-0.01683 1.851796,-0.162734 0.563956,-1.478631 2.892729,-3.765319 1.907908,0.387194 1.874241,-1.69748 0.350719,1.327121 4.612652,3.122801 -0.563954,0.754747 -2.081867,-0.109425 0.799641,1.13633 1.282226,0.277769 1.495464,-0.622876 -0.0309,-1.80971 0.66777,-0.333885 -0.5359,-0.569567 -3.080712,-1.719926 -0.805252,-2.286688 h 2.558844 l 0.81647,0.810862 2.20252,1.907911 0.0926,2.300717 2.28668,2.432588 0.84734,-3.33604 1.57964,-0.866977 0.29459,2.729996 1.54597,1.69748 0.71828,-0.01122 a 56.115001,56.115001 0 0 0 -8.33027,-14.208334 l -3.720419,-0.03367 -0.252517,-0.841736 2.213736,-1.130718 a 56.115001,56.115001 0 0 0 -5.260777,-5.24927 z m -68.634249,0.58079 c 0.109424,0 0,1.28784 0,1.28784 l -2.91237,0.186302 -0.552755,-0.662999 2.062228,-0.592013 c 0,0 1.290646,-0.21913 1.402897,-0.21913 z m 3.538042,6.273371 1.397275,0.336689 -0.4826,1.879864 -1.5123,0.479774 -0.953966,-1.961211 z m 3.829851,4.461144 h 2.320346 v 0.70705 h 0.507853 v 1.217697 h -3.532453 l -1.321488,-0.367555 0.328262,-0.850142 z m 3.459482,0.521871 1.214891,1.105466 -1.214891,0.29741 z m 2.673892,1.69748 0.89783,0.563955 -0.721067,0.597625 -0.712662,-0.597625 z m -6.795541,0.187984 h 1.949997 l -2.50273,3.501579 -1.029701,-0.555539 0.218859,-1.473019 z m 3.134035,0 h 1.983666 v 1.178417 l -0.881017,0.569567 -1.102649,0.207625 z m 2.466255,1.293452 h 0.148695 l 2.247417,0.662157 v 1.144747 h -1.879863 l -0.516249,-0.743524 z m -0.925908,1.06338 v 1.150358 l -0.844532,0.847337 h -1.879853 l 0.29743,-1.28784 0.886608,-0.07576 0.182374,-0.443308 z m 58.415721,4.876396 -6.629989,0.513454 -2.053808,1.108272 h -2.631794 l -1.29346,-0.131871 -3.192932,1.781653 v 3.347251 l -6.537402,4.724886 0.54151,2.017335 h 1.327131 l -0.345117,1.916329 -0.931511,0.345107 -0.05612,5.01949 5.650795,6.444802 h 2.45502 l 0.151521,-0.39 h 4.419045 l 1.271005,-1.181222 h 2.508342 l 1.369204,1.38043 3.740065,0.387195 -0.493813,4.977382 4.141287,7.331441 -2.180068,4.180569 0.148706,1.969638 1.714313,1.719926 v 4.733303 l 2.258628,3.041435 v 2.073455 a 56.115001,56.115001 0 0 0 12.94292,-35.818221 56.115001,56.115001 0 0 0 -2.38489,-16.02925 h -2.78892 l -2.87027,-2.143594 -3.01899,0.297409 v 1.846185 h -0.95957 l -1.02971,-0.740719 -5.241144,-1.329915 z"
   id="path254-6" /><path
   id="circle2-6"
   style="opacity:0.4;fill:url(#linearGradient5);stroke-width:0.323524"
   d="M 114.502,63.114991 A 56.114992,56.114999 0 0 1 58.386994,119.23 56.114992,56.114999 0 0 1 2.272,63.114991 56.114992,56.114999 0 0 1 58.386994,7 56.114992,56.114999 0 0 1 114.502,63.114991 Z" /><circle
   style="fill:#225566;fill-opacity:1;stroke-width:2.80574"
   cx="58.386993"
   cy="59.114998"
   r="56.114998"
   id="circle250" /><path
   style="fill:#77bb11;fill-opacity:1;stroke-width:2.80574"
   d="m 34.215465,8.5292872 a 56.114996,56.114996 0 0 0 -4.391012,2.3562688 h 0.575189 l 0.291799,0.937121 -0.827687,0.772702 3.535247,0.09876 0.5415,1.276897 L 29.961935,13.822891 29.765532,12.842 27.448003,12.337809 a 56.114996,56.114996 0 0 0 -2.373677,1.698879 h 1.386031 v 0.92618 l -0.608828,0.81086 H 22.947556 V 15.653356 A 56.114996,56.114996 0 0 0 5.4450285,40.69804 l 0.3066688,0.145899 v 4.685601 l 2.3509291,4.029058 1.9180016,0.294604 0.246645,-1.380429 -2.2631181,-3.490354 -0.4385605,-3.397762 h 1.3206783 l 0.5589059,3.495964 3.2661754,4.772581 -0.838369,1.540357 2.076827,3.184526 5.15668,1.282227 v -0.838916 l 2.059432,0.294603 -0.190811,1.475826 1.616133,0.294604 2.505537,0.684602 3.535246,4.04028 4.520066,0.339496 0.437676,3.692367 -3.089131,2.16605 -0.143083,3.299553 -0.443309,2.01452 4.469552,5.611514 0.339506,1.919134 c 0,0 1.621724,0.443309 1.820933,0.443309 0.196391,0 3.633437,2.609348 3.633437,2.609348 v 10.137181 l 1.226114,0.345086 -0.833308,4.674397 2.062227,2.758054 -0.378777,4.63509 2.724386,4.80065 3.473509,3.03582 a 56.114996,56.114996 0 0 0 0.18519,0.0336 l 3.36129,0.0589 0.339497,-1.13354 -2.581302,-2.18005 0.148715,-1.08583 0.460143,-1.32711 0.0982,-1.35237 -1.747972,-0.0561 -0.883822,-1.10546 1.453389,-1.40287 0.196402,-1.05216 -1.621724,-0.46576 0.0982,-0.98201 2.306318,-0.35072 3.512801,-1.69186 1.178416,-2.166042 3.683951,-4.722079 -0.833308,-3.695175 1.127912,-1.966832 3.386542,0.103809 2.281077,-1.812516 0.740718,-7.129405 2.525166,-3.218196 0.443323,-2.070661 -2.306327,-0.740709 -1.523523,-2.499935 -5.207475,-0.05331 -4.124455,-1.579616 -0.193597,-2.946061 -1.38043,-2.412948 -3.731629,-0.05332 -2.152021,-3.39215 -1.919125,-0.937121 -0.0982,1.029711 -3.484733,0.207625 -1.279422,-1.781651 -3.630653,-0.73791 -2.999349,3.467905 -4.710846,-0.799639 -0.347913,-5.328119 -3.439851,-0.586403 1.38043,-2.612152 -0.395611,-1.501077 -4.520056,3.03021 -2.845053,-0.345106 -1.012595,-2.230571 0.619229,-2.297908 1.566181,-2.89273 3.613807,-1.829347 6.969477,-0.0057 -0.01683,2.13237 2.505557,1.167191 -0.199209,-3.639056 1.804088,-1.826545 3.644682,-2.393303 0.252507,-1.689061 3.633438,-3.790568 3.860715,-2.143595 -0.339486,-0.28338 2.61496,-2.466253 0.959546,0.249711 0.44333,0.555538 0.993215,-1.108271 0.23851,-0.103809 -1.083041,-0.154316 -1.108251,-0.370358 v -1.06338 l 0.586391,-0.476977 h 1.28783 l 0.592014,0.25813 0.510657,1.03532 0.628489,-0.09258 v -0.0954 l 0.176761,0.06173 1.812505,-0.274964 0.258129,-0.886617 1.029712,0.258129 v 0.962372 l -0.953956,0.659352 0.143094,1.052155 3.277117,1.012876 c 0,0 0.0052,0.01683 0.01122,0.04489 l 0.757574,-0.06733 0.0477,-1.42532 -2.600933,-1.186833 -0.148704,-0.681796 2.157623,-0.737913 0.0954,-2.073449 -2.253029,-1.374818 -0.148705,-3.490353 -3.094743,1.523522 h -1.130708 l 0.29741,-2.657886 -4.208639,-0.997446 -1.742361,1.320948 v 4.023446 l -3.136819,0.996041 -1.254182,2.626182 -1.363575,0.218848 V 22.940292 L 38.050958,22.536264 36.57795,21.576698 35.985936,19.4014 l 5.266396,-3.090815 2.575679,-0.783647 0.260925,1.73171 1.436555,-0.07127 0.109414,-0.871185 1.501066,-0.219129 0.02795,-0.301618 -0.645323,-0.268511 -0.148694,-0.925895 1.846184,-0.153476 1.111078,-1.167192 0.06173,-0.08221 0.01684,0.0053 0.339485,-0.350719 3.880365,-0.49325 1.714304,1.463198 -4.49762,2.40032 5.726539,1.353493 0.737912,-1.91801 h 2.505533 l 0.880995,-1.671386 -1.764796,-0.44387 v -2.115254 l -5.549777,-2.4659732 -3.829851,0.4438697 -2.160428,1.1343635 0.148683,2.756369 -2.264231,-0.345106 -0.345107,-1.523523 2.16604,-1.9727229 -3.930847,-0.1919147 -1.127923,0.3397776 -0.4882,1.326279 1.467418,0.251955 -0.288992,1.474141 -2.505547,0.147863 -0.387183,0.981171 -3.633459,0.104082 c 0,0 -0.101009,-2.066155 -0.246906,-2.066155 -0.1459,2.81e-4 2.845022,-0.04911 2.845022,-0.04911 L 40.960409,9.6525423 39.781992,9.0608096 38.210772,10.589662 35.607055,10.44152 Z m 60.831458,8.1377978 -1.784456,0.701438 -1.147553,1.249399 0.263742,1.457868 1.408486,0.196404 0.844531,2.126757 2.426976,-0.982012 0.40122,2.839419 h -0.729495 l -1.994888,-0.294604 -2.208127,0.373165 -2.13798,3.024597 -3.058267,0.48259 -0.443309,2.623376 1.29345,0.300216 -0.373164,1.689061 -3.035821,-0.608847 -2.783303,0.608847 -0.592015,1.551579 0.482589,3.260281 1.63295,0.76597 2.741214,-0.01683 1.851796,-0.162734 0.563956,-1.478629 2.892729,-3.765315 1.907908,0.387193 1.874241,-1.697479 0.350718,1.327118 4.612649,3.1228 -0.563951,0.754747 -2.081867,-0.109424 0.79964,1.136329 1.282227,0.277768 1.495461,-0.622876 -0.0309,-1.809707 0.66777,-0.333886 -0.5359,-0.569567 -3.08071,-1.719925 -0.80525,-2.286686 h 2.55885 l 0.81647,0.810862 2.20251,1.90791 0.0926,2.300714 2.28668,2.432584 0.84734,-3.336035 1.57964,-0.866976 0.2946,2.729995 1.54597,1.697477 0.71827,-0.01122 A 56.114996,56.114996 0 0 0 102.06689,23.92247 l -3.720425,-0.03368 -0.252516,-0.841727 2.213731,-1.130717 a 56.114996,56.114996 0 0 0 -5.260772,-5.249272 z m -68.634243,0.58079 c 0.109424,0 0,1.28784 0,1.28784 l -2.91237,0.186302 -0.552754,-0.662999 2.062228,-0.592013 c 0,0 1.290645,-0.21913 1.402896,-0.21913 z m 3.538043,6.273375 1.397274,0.336691 -0.4826,1.879853 -1.5123,0.479783 -0.953966,-1.961219 z m 3.82985,4.461143 h 2.320346 v 0.707049 h 0.507852 v 1.217697 h -3.532452 l -1.321488,-0.367553 0.328262,-0.850144 z m 3.459482,0.521869 1.21489,1.105466 -1.21489,0.297411 z m 2.673891,1.69748 0.89783,0.563956 -0.721067,0.597624 -0.712662,-0.597624 z m -6.79554,0.187985 h 1.949997 l -2.50273,3.501577 -1.029701,-0.555539 0.218859,-1.47302 z m 3.134035,0 h 1.983665 v 1.178415 l -0.881016,0.569566 -1.102649,0.207627 z m 2.466255,1.29345 h 0.148694 l 2.247417,0.662158 v 1.144746 h -1.879863 l -0.516248,-0.743523 z m -0.925908,1.063381 v 1.150356 l -0.844532,0.847335 h -1.879853 l 0.29743,-1.287837 0.886608,-0.07576 0.182374,-0.443308 z m 58.415717,4.876391 -6.629988,0.513454 -2.053808,1.10827 h -2.631794 l -1.29346,-0.13187 -3.192934,1.781651 v 3.347261 l -6.537401,4.724882 0.54151,2.017335 h 1.327131 l -0.345117,1.916327 -0.931511,0.345106 -0.05612,5.019487 5.650794,6.444806 h 2.455023 l 0.15152,-0.389997 h 4.419045 l 1.271004,-1.181223 h 2.508342 l 1.369204,1.38043 3.740065,0.387194 -0.493813,4.977384 4.141287,7.331438 -2.180068,4.180571 0.148706,1.969638 1.714314,1.719925 v 4.733303 l 2.258624,3.041435 v 2.07345 a 56.114996,56.114996 0 0 0 12.94293,-35.818213 56.114996,56.114996 0 0 0 -2.3849,-16.029249 h -2.78892 l -2.87027,-2.143592 -3.01899,0.297409 v 1.846183 h -0.95957 l -1.02971,-0.740716 -5.241136,-1.329925 z"
   id="path254" /><path
   style="fill:#856400;fill-opacity:1;stroke-width:2.80574"
   d="M 81.550865,71.069679 C 72.001384,89.210061 37.137655,108.16373 29.960563,107.49713 l 0.01846,4.01085 c 7.703578,4.54392 16.520991,7.18093 25.436372,7.64329 C 73.475732,109.54753 87.545269,95.829303 96.451165,78.911536 103.40258,65.706506 106.91532,50.710161 106.61651,34.715489 101.97992,26.894937 91.237452,15.073155 87.271566,11.004973 l -0.890125,-0.523338 c 7.088651,22.514634 3.641614,43.930258 -4.830576,60.588044 z"
   id="path260-5" /><path
   style="fill:#eab100;stroke-width:2.80574"
   d="m 87.271566,11.004973 c 5.209491,21.111787 2.586151,40.128231 -5.720698,55.908034 -9.712197,18.449478 -27.630132,32.947238 -51.590305,40.584123 7.676235,4.50095 16.362635,7.13738 25.246766,7.64271 C 73.267671,105.5361 87.545049,91.672631 96.450949,74.754864 103.40236,61.549837 106.93291,46.492095 106.6341,30.497423 101.89235,22.499497 95.241255,15.794032 87.271566,11.004973 Z"
   id="path260" /><path
   style="fill:#b29200;fill-opacity:1;stroke-width:2.80574"
   d="m 58.386993,7.1566663 c -4.119498,0 -12.702572,-2.7000396 -12.702572,-2.7000396 0,0 -1.633082,0.3591806 -3.252645,0.8594496 13.115838,9.5519197 30.971424,36.5880407 41.40425,62.8601707 4.628835,11.656395 8.593894,23.798056 11.760041,35.247233 3.080573,11.13973 1.939335,3.8496 0.898711,-0.14248 l 15.919342,-2.53175 C 108.99593,88.223105 104.63661,74.943993 99.481358,61.961948 91.614118,42.150512 82.295549,23.024927 70.579938,8.9157396 66.903156,7.786866 62.873286,7.1566663 58.386993,7.1566663 Z M 112.41412,100.74924 c 4.71274,17.27003 -0.74346,-11.652069 0,0 z"
   id="path264-5" /><path
   style="fill:#ffd517;stroke-width:2.80574"
   d="m 58.386993,3.0000002 c -4.37534,0 -8.615361,0.5093138 -12.702572,1.4566265 13.115838,9.5519203 27.718779,33.2908193 38.151603,59.5629503 4.628835,11.656395 8.593893,23.798056 11.760042,35.247241 3.080572,11.139722 1.939333,3.849592 0.898709,-0.14248 L 112.41412,96.592579 C 108.99593,84.066437 104.67675,70.377891 99.521491,57.395845 91.654249,37.58441 82.33568,18.458825 70.62007,4.3496364 66.943289,3.220763 62.873286,3.0000002 58.386993,3.0000002 Z M 112.41412,96.592569 c 4.71274,17.270031 -0.74347,-11.652069 0,0 z"
   id="path264" /><path
   style="fill:#b29200;fill-opacity:1;stroke-width:2.80574"
   d="m 122.736,91.330899 c -0.35851,-0.0098 -0.72559,0.02206 -1.08939,0.09435 l -18.72672,3.698731 -18.726758,3.698715 c -1.001168,0.198201 -2.73319,-1.448368 -3.360074,-0.77315 0,0 -0.01309,3.409915 4.68e-4,4.048095 0.01174,0.55648 0.240858,1.08483 0.689998,1.50751 l 10.932235,10.27163 10.932231,10.27634 c 1.66296,1.56349 5.22551,0.85903 6.40974,-1.26745 l 7.79448,-13.97036 7.79834,-13.975096 c 0.23666,-0.42384 0.34325,-0.846905 0.33653,-1.246385 -0.007,-0.3601 -0.002,-4.261704 -0.002,-4.261704 -0.45311,-0.776991 -1.70384,1.934354 -2.98896,1.898895 z"
   id="path268-3" /><path
   style="fill:#ffd517;stroke-width:2.80574"
   d="m 122.736,87.174232 a 2.7749985,3.7810914 74.338633 0 0 -1.08939,0.09435 l -18.72672,3.69873 -18.726759,3.698718 a 2.7749985,3.7810914 74.338633 0 0 -2.547008,1.366422 2.7749985,3.7810914 74.338633 0 0 -0.1226,3.416027 l 10.932234,10.271631 10.932233,10.27635 a 2.7749985,3.7810914 74.338633 0 0 6.40974,-1.26746 l 7.79448,-13.97036 7.79834,-13.975095 a 2.7749985,3.7810914 74.338633 0 0 -2.65441,-3.609194 z"
   id="path268" /><path
   id="path6"
   style="opacity:0.4;fill:url(#linearGradient9);stroke-width:0.323524"
   d="m 62.455699,115.07249 c 0,0 -3.204925,0.15086 -7.24837,0.0673 -8.884131,-0.50532 -17.569859,-3.14162 -25.246094,-7.64257 l 0.01779,4.01074 c 7.823044,4.59677 16.332738,7.12027 25.43637,7.64326 2.58003,-1.32293 6.614523,-3.78576 7.040304,-4.07873 z" /><path
   d="m 62.455699,115.07249 c 0,0 -3.204925,0.15091 -7.24837,0.0674 l 0.208066,4.01143 c 2.58003,-1.32293 6.614523,-3.78581 7.040304,-4.07878 z"
   style="opacity:0.4;fill:#856400;fill-opacity:1;stroke-width:0.323524"
   id="path1" /></svg>
