<?xml version="1.0" encoding="UTF-8" standalone="no"?>
<svg
   viewBox="0 0 128 128"
   style="display:inline;enable-background:new"
   version="1.0"
   id="svg11300"
   height="128"
   width="128"
   xml:space="preserve"
   xmlns:xlink="http://www.w3.org/1999/xlink"
   xmlns="http://www.w3.org/2000/svg"
   xmlns:svg="http://www.w3.org/2000/svg"
   xmlns:rdf="http://www.w3.org/1999/02/22-rdf-syntax-ns#"
   xmlns:cc="http://creativecommons.org/ns#"
   xmlns:dc="http://purl.org/dc/elements/1.1/"><title
     id="title4162">Adwaita Icon Template</title><defs
     id="defs3"><linearGradient
       id="linearGradient974"><stop
         style="stop-color:#00357a;stop-opacity:1;"
         offset="0"
         id="stop962" /><stop
         id="stop964"
         offset="0.04166667"
         style="stop-color:#0061e0;stop-opacity:1;" /><stop
         style="stop-color:#00357a;stop-opacity:1;"
         offset="0.08333334"
         id="stop966" /><stop
         id="stop968"
         offset="0.91666669"
         style="stop-color:#00357a;stop-opacity:1;" /><stop
         style="stop-color:#0061e0;stop-opacity:1;"
         offset="0.95833331"
         id="stop970" /><stop
         style="stop-color:#00357a;stop-opacity:1;"
         offset="1"
         id="stop972" /></linearGradient><linearGradient
       y2="44"
       x2="464"
       y1="44"
       x1="48"
       gradientTransform="matrix(0.25,0,0,0.25,0,53)"
       gradientUnits="userSpaceOnUse"
       id="linearGradient1747"
       xlink:href="#linearGradient974" /><linearGradient
       id="linearGradient26"
       spreadMethod="pad"
       gradientTransform="matrix(-89.129422,-89.129422,89.129422,-89.129422,-76.387771,103.73604)"
       gradientUnits="userSpaceOnUse"
       y2="0"
       x2="1"
       y1="0"
       x1="0">
      <stop
   id="stop22"
   offset="0"
   style="stop-opacity:1;stop-color:#004caf" />
      <stop
   id="stop24"
   offset="1"
   style="stop-opacity:1;stop-color:#1f95f8" />
    </linearGradient><linearGradient
       xlink:href="#linearGradient26"
       id="linearGradient2"
       x1="116"
       y1="112"
       x2="12"
       y2="12"
       gradientUnits="userSpaceOnUse" /></defs><metadata
     id="metadata4"><rdf:RDF><cc:Work
         rdf:about=""><dc:format>image/svg+xml</dc:format><dc:type
           rdf:resource="http://purl.org/dc/dcmitype/StillImage" /><dc:creator><cc:Agent><dc:title>GNOME Design Team</dc:title></cc:Agent></dc:creator><dc:source /><cc:license
           rdf:resource="http://creativecommons.org/licenses/by-sa/4.0/" /><dc:title>Adwaita Icon Template</dc:title><dc:subject><rdf:Bag /></dc:subject><dc:date /><dc:rights><cc:Agent><dc:title /></cc:Agent></dc:rights><dc:publisher><cc:Agent><dc:title /></cc:Agent></dc:publisher><dc:identifier /><dc:relation /><dc:language /><dc:coverage /><dc:description /><dc:contributor><cc:Agent><dc:title /></cc:Agent></dc:contributor></cc:Work><cc:License
         rdf:about="http://creativecommons.org/licenses/by-sa/4.0/"><cc:permits
           rdf:resource="http://creativecommons.org/ns#Reproduction" /><cc:permits
           rdf:resource="http://creativecommons.org/ns#Distribution" /><cc:requires
           rdf:resource="http://creativecommons.org/ns#Notice" /><cc:requires
           rdf:resource="http://creativecommons.org/ns#Attribution" /><cc:permits
           rdf:resource="http://creativecommons.org/ns#DerivativeWorks" /><cc:requires
           rdf:resource="http://creativecommons.org/ns#ShareAlike" /></cc:License></rdf:RDF></metadata><rect
     ry="8"
     rx="8"
     y="32"
     x="12"
     height="83.999992"
     width="104"
     id="rect1709"
     style="display:inline;fill:url(#linearGradient1747);fill-opacity:1;stroke:none;stroke-width:0.25;stroke-linecap:butt;stroke-linejoin:miter;stroke-miterlimit:4;stroke-dasharray:none;stroke-dashoffset:0;stroke-opacity:1;marker:none;marker-start:none;marker-mid:none;marker-end:none;paint-order:normal;enable-background:new" /><rect
     style="display:inline;fill:url(#linearGradient2);fill-opacity:1;stroke:none;stroke-width:0.25;stroke-linecap:butt;stroke-linejoin:miter;stroke-miterlimit:4;stroke-dasharray:none;stroke-dashoffset:0;stroke-opacity:1;marker:none;marker-start:none;marker-mid:none;marker-end:none;paint-order:normal;enable-background:new"
     id="rect1711"
     width="104"
     height="100"
     x="12"
     y="12"
     rx="8"
     ry="8" /><path
     id="path30"
     style="fill:#ffffff;fill-opacity:1;fill-rule:nonzero;stroke:none;stroke-width:0.0203125"
     d="M 92.469711,21.080821 H 64.206694 c -0.26711,0 -0.48303,0.216125 -0.48303,0.482828 v 8.974875 c 0,0.302047 0.24456,0.546812 0.54681,0.546812 h 3.87502 c 1.56731,0 2.83826,1.205547 2.97436,2.737516 v 6.153265 3.428141 32.651938 0.231359 h -0.001 c 0.01,0.342062 -0.004,0.678437 -0.0372,1.009734 -0.004,0.04834 -0.0102,0.09608 -0.016,0.144016 -0.0223,0.193578 -0.0471,0.386141 -0.0847,0.574641 -0.0205,0.107453 -0.0496,0.212062 -0.0754,0.31789 -0.0347,0.140766 -0.0628,0.283766 -0.10603,0.421485 -0.25553,0.817984 -0.65955,1.576656 -1.21834,2.244531 -0.0205,0.02376 -0.0459,0.0457 -0.0662,0.06927 -0.17043,0.197437 -0.34938,0.389796 -0.54743,0.569968 -0.19987,0.181797 -0.41153,0.350797 -0.63395,0.507813 -1.58112,1.120031 -3.70926,1.612812 -6.08705,1.385312 -3.03184,-0.284984 -6.03971,-1.659937 -8.47092,-3.871968 -2.43079,-2.211829 -3.94225,-4.948532 -4.25506,-7.706766 -0.28133,-2.467563 0.45805,-4.638969 2.08041,-6.115078 0.004,-0.0032 0.008,-0.0063 0.0114,-0.0097 0.0628,-0.05627 0.13183,-0.105625 0.19642,-0.15986 1.16107,-0.972765 2.67455,-1.562234 4.40172,-1.724734 0.0195,-0.0018 0.0382,-0.0049 0.0567,-0.0065 0.1818,-0.01605 0.36705,-0.02336 0.55393,-0.03027 0.0977,-0.0033 0.19418,-0.01016 0.29331,-0.01097 0.0329,-4.07e-4 0.0642,-0.0039 0.0971,-0.0039 0.0589,0 0.12005,0.0077 0.17896,0.0085 0.27218,0.0043 0.5464,0.01544 0.8261,0.03941 0.0353,0.0028 0.0691,0.0016 0.10543,0.0049 0.0258,0.0026 0.0514,0.0083 0.0772,0.01097 1.58438,0.158843 3.15311,0.631921 4.64182,1.34875 0.0311,0.0014 0.067,0.01097 0.11192,0.03575 0.45378,0.250656 0.54072,-0.01828 0.55412,-0.196016 v -7.76425 -5.744781 c 0,-0.386953 -0.26914,-0.729219 -0.64654,-0.812297 -8.01857,-1.76475 -15.886,0.07211 -21.43741,5.125656 -4.84961,4.411469 -7.1955,10.777406 -6.43541,17.464484 0.67824,5.956235 3.73568,11.678469 8.61007,16.114516 4.75089,4.322297 10.79995,7.025281 17.03975,7.613145 0.85983,0.07959 1.72372,0.120616 2.56668,0.120616 5.95929,0 11.48896,-2.043397 15.57035,-5.756136 3.86628,-3.520156 6.182108,-8.353922 6.521936,-13.612625 l 0.03148,-34.488797 h 0.0035 v -9.221266 h 0.0012 v -0.160874 c 0.03494,-1.627438 1.361953,-2.936782 2.998328,-2.936782 h 3.875016 c 0.301843,0 0.546812,-0.244765 0.546812,-0.546812 v -8.974875 c 0,-0.266703 -0.215922,-0.482828 -0.483031,-0.482828" /></svg>
