<?xml version="1.0" encoding="UTF-8" standalone="no"?>
<svg
   height="128px"
   viewBox="0 0 128 128"
   width="128px"
   version="1.1"
   id="svg8"
   xml:space="preserve"
   xmlns:xlink="http://www.w3.org/1999/xlink"
   xmlns="http://www.w3.org/2000/svg"
   xmlns:svg="http://www.w3.org/2000/svg"
   xmlns:figma="http://www.figma.com/figma/ns"><defs
     id="defs12"><linearGradient
       id="linearGradient21"><stop
         style="stop-color:#525252;stop-opacity:1;"
         offset="0"
         id="stop16" /><stop
         style="stop-color:#b8b8b8;stop-opacity:1;"
         offset="0.4136371"
         id="stop17" /><stop
         style="stop-color:#525252;stop-opacity:1;"
         offset="0.80903417"
         id="stop18" /><stop
         style="stop-color:#ababab;stop-opacity:1;"
         offset="1"
         id="stop20" /></linearGradient><linearGradient
       id="linearGradient14"><stop
         style="stop-color:#363636;stop-opacity:1;"
         offset="0"
         id="stop9" /><stop
         style="stop-color:#9c9c9c;stop-opacity:1;"
         offset="0.40879038"
         id="stop10" /><stop
         style="stop-color:#363636;stop-opacity:1;"
         offset="0.81390715"
         id="stop11" /><stop
         style="stop-color:#8f8f8f;stop-opacity:1;"
         offset="1"
         id="stop13" /></linearGradient><linearGradient
       id="linearGradient7"><stop
         style="stop-color:#212121;stop-opacity:1;"
         offset="0"
         id="stop2" /><stop
         style="stop-color:#949494;stop-opacity:1;"
         offset="0.41163805"
         id="stop3" /><stop
         style="stop-color:#212121;stop-opacity:1;"
         offset="0.8077656"
         id="stop4" /><stop
         style="stop-color:#878787;stop-opacity:1;"
         offset="1"
         id="stop6" /></linearGradient><linearGradient
       id="a-9"
       gradientUnits="userSpaceOnUse"
       x1="0"
       y1="269.46301"
       x2="118.926"
       y2="269.46301"
       gradientTransform="matrix(0.9,0,0,0.90000002,6.400001,-148.2)"><stop
         offset="0"
         stop-color="#e5a50a"
         id="stop1"
         style="stop-color:#787878;stop-opacity:1;" /><stop
         offset="0.414"
         stop-color="#fbdf9b"
         id="stop2-5"
         style="stop-color:#cbcbcb;stop-opacity:1;" /><stop
         offset="0.81300002"
         stop-color="#e5a50a"
         id="stop3-1"
         style="stop-color:#787878;stop-opacity:1;" /><stop
         offset="1"
         stop-color="#f8ca5b"
         id="stop4-7"
         style="stop-color:#a9a9a9;stop-opacity:1;" /></linearGradient><linearGradient
       xlink:href="#linearGradient21"
       id="linearGradient1"
       gradientUnits="userSpaceOnUse"
       x1="1643.28"
       y1="2499.8926"
       x2="1650.8832"
       y2="2499.8926"
       gradientTransform="matrix(2.4366986,0,0,2.4366986,-3985.5015,-5973.1192)" /><linearGradient
       xlink:href="#linearGradient7"
       id="linearGradient4"
       gradientUnits="userSpaceOnUse"
       x1="1641.87"
       y1="2460.6204"
       x2="1646.2493"
       y2="2460.6204"
       gradientTransform="matrix(2.4366986,0,0,2.4366986,-3987.5015,-5975.1192)" /><linearGradient
       xlink:href="#linearGradient14"
       id="linearGradient6"
       gradientUnits="userSpaceOnUse"
       x1="1673.48"
       y1="2456.709"
       x2="1679.5164"
       y2="2456.709"
       gradientTransform="matrix(2.4366986,0,0,2.4366986,-3985.5015,-5973.1192)" /></defs><path
     d="m 118,66 c 0,29.82331 -24.176699,54 -53.999999,54 -29.8233,0 -54,-24.17669 -54,-54 0,-29.82329 24.1767,-53.999997 54,-53.999997 C 93.823301,12.000003 118,36.17671 118,66 Z m 0,0"
     fill="url(#a)"
     id="path4-1"
     style="fill:url(#a-9);stroke-width:0.900001" /><path
     id="use8-1"
     d="m 106.95963,12.693534 c 0.0902,1.457389 -0.25756,2.9082 -0.99612,4.167973 -0.73832,1.25953 -1.83508,2.270759 -3.15041,2.905032 -1.31509,0.634029 -2.78929,0.862348 -4.234741,0.655716 -1.445449,-0.20712 -2.796599,-0.838712 -3.881661,-1.816072 -1.084818,-0.97736 -1.854084,-2.255408 -2.210085,-3.671374 -0.355758,-1.416209 -0.28217,-2.90625 0.211992,-4.280304 0.493919,-1.3740547 1.385507,-2.5699863 2.561702,-3.4355017 1.17595,-0.8652717 2.5829,-1.3611398 4.041508,-1.4242503 0.956645,-0.053607 1.914025,0.085284 2.817315,0.4030299 0.90328,0.3187202 1.73468,0.8128827 2.4462,1.4539781 0.71176,0.6410954 1.28974,1.4164529 1.70057,2.2817245 0.41107,0.8652715 0.6467,1.8031575 0.69397,2.7600485 z"
     style="mix-blend-mode:normal;fill:url(#linearGradient6);fill-opacity:1;stroke-width:0.999999" /><path
     d="M 118,62.000001 C 118,91.823049 93.823051,116 64.000004,116 34.176956,116 10.000002,91.823049 10.000002,62.000001 10.000002,32.176954 34.176956,8 64.000004,8 93.823051,8 118,32.176954 118,62.000001 Z m 0,0"
     fill="#1c71d8"
     id="path4"
     style="fill:#ffffff;fill-opacity:1;stroke-width:0.9" /><path
     id="use8"
     d="m 106.95963,10.693534 c 0.0902,1.457389 -0.25756,2.9082 -0.99612,4.167973 -0.73832,1.25953 -1.83508,2.270759 -3.15041,2.905032 -1.31509,0.634029 -2.78929,0.862348 -4.234741,0.655716 -1.445449,-0.20712 -2.796599,-0.838712 -3.881661,-1.816072 -1.084818,-0.97736 -1.854084,-2.255408 -2.210085,-3.671374 -0.355758,-1.416209 -0.28217,-2.90625 0.211992,-4.2803043 0.493919,-1.3740544 1.385507,-2.569986 2.561702,-3.4355014 1.17595,-0.8652717 2.5829,-1.3611398 4.041508,-1.4242503 0.956645,-0.053607 1.914025,0.085284 2.817315,0.4030299 0.90328,0.3187202 1.73468,0.8128827 2.4462,1.4539781 0.71176,0.6410954 1.28974,1.4164529 1.70057,2.2817245 0.41107,0.8652717 0.6467,1.803157 0.69397,2.7600485 z"
     style="mix-blend-mode:normal;fill:#767677;fill-opacity:1;stroke-width:0.999999" /><g
     id="path17 fill"
     style="mix-blend-mode:normal;stroke-width:0.410391"
     figma:type="vector"
     transform="matrix(2.4366986,0,0,2.4366986,-3985.5646,-5975.1274)"><path
       id="use9"
       d="m 1661.9062,2491.3924 c -8.0126,0 -15.0549,-2.8757 -18.6962,-7.1224 1.4128,3.8204 3.9622,7.1163 7.3048,9.444 3.3426,2.3278 7.3182,3.5756 11.3914,3.5756 4.0733,0 8.0488,-1.2478 11.3915,-3.5756 3.3426,-2.3277 5.8919,-5.6236 7.3048,-9.444 -3.6324,4.2467 -10.648,7.1224 -18.6963,7.1224 z"
       style="mix-blend-mode:normal;fill:#f37726;stroke-width:0.410391" /></g><g
     id="path18 fill"
     style="mix-blend-mode:normal;stroke-width:0.410391"
     figma:type="vector"
     transform="matrix(2.4366986,0,0,2.4366986,-3985.5646,-5975.1274)"><path
       id="use10"
       d="m 1661.9062,2463.7773 c 8.0127,0 15.055,2.8756 18.6963,7.1223 -1.4129,-3.8204 -3.9622,-7.1163 -7.3048,-9.444 -3.3427,-2.3277 -7.3182,-3.5756 -11.3915,-3.5756 -4.0732,0 -8.0488,1.2479 -11.3914,3.5756 -3.3426,2.3277 -5.892,5.6236 -7.3048,9.444 3.6413,-4.2556 10.648,-7.1223 18.6962,-7.1223 z"
       style="mix-blend-mode:normal;fill:#f37726;stroke-width:0.410391" /></g><path
     id="use11-6"
     d="m 37.185251,117.79054 c 0.114524,1.83556 -0.320183,3.66382 -1.248321,5.25181 -0.928382,1.58776 -2.308285,2.86337 -3.964021,3.66407 -1.655981,0.8007 -3.512501,1.09042 -5.33369,0.83237 -1.820945,-0.25829 -3.523953,-1.05289 -4.891916,-2.28245 -1.367963,-1.22956 -2.338743,-2.83851 -2.789045,-4.62169 -0.450058,-1.78342 -0.35917,-3.66041 0.261214,-5.39192 0.620383,-1.73152 1.742239,-3.23911 3.22229,-4.33075 1.480294,-1.09164 3.252262,-1.71787 5.089532,-1.79901 1.20373,-0.0634 2.408433,0.10965 3.545153,0.51024 1.13672,0.40133 2.183039,1.02268 3.0795,1.8285 0.896705,0.80582 1.625522,1.78025 2.145269,2.86799 0.519748,1.08775 0.820193,2.26711 0.884035,3.47084 z"
     style="mix-blend-mode:normal;fill:url(#linearGradient1);fill-opacity:1;stroke-width:0.999999" /><path
     id="use11"
     d="m 37.185251,115.79054 c 0.114524,1.83556 -0.320183,3.66382 -1.248321,5.25181 -0.928382,1.58776 -2.308285,2.86337 -3.964021,3.66407 -1.655981,0.8007 -3.512501,1.09042 -5.33369,0.83237 -1.820945,-0.25829 -3.523953,-1.05289 -4.891916,-2.28245 -1.367963,-1.22956 -2.338743,-2.83851 -2.789045,-4.62169 -0.450058,-1.78342 -0.35917,-3.66041 0.261214,-5.39192 0.620383,-1.73152 1.742239,-3.23911 3.22229,-4.33075 1.480294,-1.09164 3.252262,-1.71787 5.089532,-1.79901 1.20373,-0.0634 2.408433,0.10965 3.545153,0.51024 1.13672,0.40133 2.183039,1.02268 3.0795,1.8285 0.896705,0.80582 1.625522,1.78025 2.145269,2.86799 0.519748,1.08775 0.820193,2.26711 0.884035,3.47084 z"
     style="mix-blend-mode:normal;fill:#9e9e9e;fill-opacity:1;stroke-width:0.999999" /><path
     id="use12-2"
     d="m 18.724864,26.005017 c -1.051923,0.02924 -2.089225,-0.25366 -2.981057,-0.812395 -0.891832,-0.558735 -1.598474,-1.368938 -2.031232,-2.328266 -0.432514,-0.959328 -0.571893,-2.025384 -0.400349,-3.063661 0.170569,-1.038277 0.646212,-2.002966 1.364307,-2.772232 0.718339,-0.769266 1.647939,-1.308994 2.672084,-1.551202 1.024144,-0.241233 2.097023,-0.175443 3.083886,0.190062 0.986863,0.365749 1.843606,1.015129 2.462284,1.866511 0.618677,0.851383 0.971755,1.866755 1.014885,2.918434 0.04142,1.421814 -0.480274,2.802447 -1.451054,3.842187 -0.970781,1.039983 -2.312427,1.654762 -3.733754,1.711293 z"
     style="mix-blend-mode:normal;fill:url(#linearGradient4);fill-opacity:1;stroke-width:0.999999" /><path
     id="use12"
     d="m 18.724864,24.005017 c -1.051923,0.02924 -2.089225,-0.25366 -2.981057,-0.812395 -0.891832,-0.558735 -1.598474,-1.368938 -2.031232,-2.328266 -0.432514,-0.959328 -0.571893,-2.025384 -0.400349,-3.063661 0.170569,-1.038277 0.646212,-2.002966 1.364307,-2.772232 0.718339,-0.769266 1.647939,-1.308994 2.672084,-1.551202 1.024144,-0.241233 2.097023,-0.175443 3.083886,0.190062 0.986863,0.365749 1.843606,1.015129 2.462284,1.866511 0.618677,0.851383 0.971755,1.866755 1.014885,2.918434 0.04142,1.421814 -0.480274,2.802447 -1.451054,3.842187 -0.970781,1.039983 -2.312427,1.654762 -3.733754,1.711293 z"
     style="mix-blend-mode:normal;fill:#616262;fill-opacity:1;stroke-width:0.999999" /></svg>
