<?xml version="1.0" encoding="UTF-8" standalone="no"?>
<svg
   height="128px"
   viewBox="0 0 128 128"
   width="128px"
   version="1.1"
   id="svg4817"
   xmlns="http://www.w3.org/2000/svg"
   xmlns:svg="http://www.w3.org/2000/svg">
  <defs
     id="defs4821">
    <clipPath
       clipPathUnits="userSpaceOnUse"
       id="d">
      <path
         style="marker:none"
         d="M 64,-40.445 H 512 V -8.222 H 96 c -15.592,0 -32,-17.02 -32,-32.223 z"
         fill="#e4e6e8"
         stroke-width="24"
         id="path8015" />
    </clipPath>
    <clipPath
       clipPathUnits="userSpaceOnUse"
       id="e">
      <rect
         ry="0"
         rx="0"
         y="-40.445"
         x="64"
         height="32.222"
         width="448"
         style="marker:none"
         fill="#e4e6e8"
         stroke-width="24"
         id="rect8012" />
    </clipPath>
  </defs>
  <linearGradient
     id="a"
     gradientUnits="userSpaceOnUse"
     x1="11.999989"
     x2="115.999989"
     y1="64"
     y2="64">
    <stop
       offset="0"
       stop-color="#3d3846"
       id="stop4783" />
    <stop
       offset="0.05"
       stop-color="#77767b"
       id="stop4785" />
    <stop
       offset="0.1"
       stop-color="#5e5c64"
       id="stop4787" />
    <stop
       offset="0.899999"
       stop-color="#504e56"
       id="stop4789" />
    <stop
       offset="0.95"
       stop-color="#77767b"
       id="stop4791" />
    <stop
       offset="1"
       stop-color="#3d3846"
       id="stop4793" />
  </linearGradient>
  <linearGradient
     id="b"
     gradientUnits="userSpaceOnUse"
     x1="12"
     x2="112.041023"
     y1="60"
     y2="80.988281">
    <stop
       offset="0"
       stop-color="#77767b"
       id="stop4796" />
    <stop
       offset="0.384443"
       stop-color="#9a9996"
       id="stop4798" />
    <stop
       offset="0.720567"
       stop-color="#77767b"
       id="stop4800" />
    <stop
       offset="1"
       stop-color="#68666f"
       id="stop4802" />
  </linearGradient>
  <rect
     width="112"
     height="82.029999"
     x="8.0000029"
     y="33.970001"
     rx="8"
     ry="8"
     fill="#422863"
     id="rect8020"
     style="fill:#000000;fill-opacity:1" />
  <rect
     ry="8"
     rx="8"
     y="29.970001"
     x="8.0000029"
     height="82.029999"
     width="112"
     fill="#613583"
     id="rect8022"
     style="fill:#241f31;fill-opacity:1" />
  <g
     transform="translate(0.019,-171.972)"
     id="g8070">
    <g
       transform="matrix(0.25,0,0,-0.25,-8.019,197.917)"
       clip-path="url(#d)"
       id="g8036">
      <rect
         style="marker:none"
         width="448"
         height="56.231998"
         x="64"
         y="-48.453999"
         rx="0"
         ry="0"
         fill="#f6f5f4"
         id="rect8024" />
      <rect
         ry="0"
         rx="0"
         transform="matrix(0.8660254,0.5,0.5,-0.8660254,0,0)"
         y="-26.738001"
         x="62.535"
         height="135.76401"
         width="45.414001"
         style="marker:none"
         fill="#241f31"
         id="rect8026" />
      <rect
         style="marker:none"
         width="45.414001"
         height="135.76401"
         x="149.138"
         y="23.261999"
         transform="matrix(0.8660254,0.5,0.5,-0.8660254,0,0)"
         rx="0"
         ry="0"
         fill="#241f31"
         id="rect8028" />
      <rect
         ry="0"
         rx="0"
         transform="matrix(0.8660254,0.5,0.5,-0.8660254,0,0)"
         y="73.262001"
         x="235.74001"
         height="135.76401"
         width="45.414001"
         style="marker:none"
         fill="#241f31"
         id="rect8030" />
      <rect
         style="marker:none"
         width="45.414001"
         height="135.76401"
         x="322.34299"
         y="123.262"
         transform="matrix(0.8660254,0.5,0.5,-0.8660254,0,0)"
         rx="0"
         ry="0"
         fill="#241f31"
         id="rect8032" />
      <rect
         ry="0"
         rx="0"
         transform="matrix(0.8660254,0.5,0.5,-0.8660254,0,0)"
         y="173.26199"
         x="408.94501"
         height="135.76401"
         width="45.414001"
         style="marker:none"
         fill="#241f31"
         id="rect8034" />
    </g>
    <g
       clip-path="url(#e)"
       transform="matrix(0.25,0,0,0.25,-8.019,218.083)"
       id="g8050">
      <rect
         ry="0"
         rx="0"
         y="-48.453999"
         x="64"
         height="56.231998"
         width="448"
         style="marker:none"
         fill="#ffffff"
         id="rect8038" />
      <rect
         style="marker:none"
         width="45.414001"
         height="135.76401"
         x="62.535"
         y="-26.738001"
         transform="matrix(0.8660254,0.5,0.5,-0.8660254,0,0)"
         rx="0"
         ry="0"
         id="rect8040" />
      <rect
         ry="0"
         rx="0"
         transform="matrix(0.8660254,0.5,0.5,-0.8660254,0,0)"
         y="23.261999"
         x="149.138"
         height="135.76401"
         width="45.414001"
         style="marker:none"
         id="rect8042" />
      <rect
         style="marker:none"
         width="45.414001"
         height="135.76401"
         x="235.74001"
         y="73.262001"
         transform="matrix(0.8660254,0.5,0.5,-0.8660254,0,0)"
         rx="0"
         ry="0"
         id="rect8044" />
      <rect
         ry="0"
         rx="0"
         transform="matrix(0.8660254,0.5,0.5,-0.8660254,0,0)"
         y="123.262"
         x="322.34299"
         height="135.76401"
         width="45.414001"
         style="marker:none"
         id="rect8046" />
      <rect
         style="marker:none"
         width="45.414001"
         height="135.76401"
         x="408.94501"
         y="173.26199"
         transform="matrix(0.8660254,0.5,0.5,-0.8660254,0,0)"
         rx="0"
         ry="0"
         id="rect8048" />
    </g>
    <path
       d="m 7.981,205.306 c 0,-2.668 2.745,-5.334 5.334,-5.334 0,0 10.666,10.59 10.666,10.667 v 5.333 h -16 z"
       fill="#c0bfbc"
       id="path8052" />
    <circle
       r="1.25"
       cy="213.24899"
       cx="10.997"
       style="marker:none"
       fill="#241f31"
       id="circle8054" />
    <circle
       style="marker:none"
       cx="10.997"
       cy="205.26601"
       r="1.25"
       fill="#241f31"
       id="circle8056" />
    <rect
       style="marker:none"
       width="112"
       height="2"
       x="7.9809999"
       y="215.972"
       rx="0"
       ry="0"
       fill="#77767b"
       id="rect8058" />
    <path
       d="m 119.981,215.972 v 2 h -10 l 1.272,-2 z m -20.635,0 -1.017,2 H 84.981 l 1.272,-2 z m -25.122,0 -1.016,2 H 59.86 l 1.271,-2 z m -25,0 -1.016,2 H 34.86 l 1.271,-2 z m -24.861,0 -1.017,2 H 9.998 l 1.272,-2 z"
       fill="#3d3846"
       id="path8060" />
    <circle
       style="marker:none"
       cx="10.997"
       cy="212.94299"
       r="1.25"
       fill="#f6f5f4"
       id="circle8062" />
    <circle
       r="1.25"
       cy="204.961"
       cx="10.997"
       style="marker:none"
       fill="#f6f5f4"
       id="circle8064" />
    <circle
       style="marker:none"
       cx="20.888"
       cy="213.222"
       r="1.25"
       fill="#241f31"
       id="circle8066" />
    <circle
       r="1.25"
       cy="212.91701"
       cx="20.888"
       style="marker:none"
       fill="#f6f5f4"
       id="circle8068" />
  </g>
  <path
     style="fill:#e14c39;stroke-width:1.07692"
     d="m 62.923069,54.070589 0.08411,53.846151 h 4.223563 V 54.070589 Z"
     id="path4642-2" />
  <path
     style="fill:#83b9f5;fill-rule:evenodd;stroke-width:1.07692"
     d="m 54.307688,62.685973 v 3.23077 h 4.30769 v -3.23077 z m -4.307696,6.461539 v 3.230769 h 8.615386 v -3.230769 z m -8.615381,6.461538 v 3.230769 H 58.615378 V 75.60905 Z m -4.307697,6.461539 v 3.230769 h 21.538464 v -3.230769 z m 4.307697,6.461538 v 3.230769 h 17.230767 v -3.230769 z m 8.615381,6.461538 v 3.23077 h 8.615386 v -3.23077 z"
     id="path4646-0" />
  <path
     style="fill:#d33520;fill-opacity:1;stroke-width:1.07692"
     d="m 73.692301,52.993666 -0.0018,-1.070967 -8.613403,1.070967 -8.614687,-1.073768 -6.08e-4,1.073768 4.30769,6.461538 4.307696,6.461539 4.307691,-6.461539 z"
     id="path4648-2" />
  <path
     style="fill:#ff6161;stroke-width:1.07692"
     d="M 73.692301,51.916742 H 65.07692 56.461533 l 4.307691,6.461539 4.307696,6.461538 4.30769,-6.461538 z"
     id="path4650-3" />
  <path
     style="fill:#3a7cca;stroke-width:1.07692"
     d="m 73.213385,68.503344 c -0.793179,0.04277 -1.647264,0.740195 -1.645274,1.512984 l -0.02964,22.816493 c 0,1.030467 1.51665,1.927131 2.384267,1.314963 L 90.268873,82.700533 c 0.873277,-0.604602 0.871286,-2.022863 0,-2.630146 L 73.953035,68.701357 C 73.73525,68.549662 73.478436,68.489225 73.213921,68.503355 Z"
     id="path4654-7" />
</svg>
