<?xml version="1.0" encoding="UTF-8" standalone="no"?>
<svg
   height="128px"
   viewBox="0 0 128 128"
   width="128px"
   version="1.1"
   id="svg286"
   xmlns="http://www.w3.org/2000/svg"
   xmlns:svg="http://www.w3.org/2000/svg">
  <defs
     id="defs290" />
  <linearGradient
     id="a"
     gradientUnits="userSpaceOnUse"
     x1="11.999989"
     x2="115.999989"
     y1="64"
     y2="64"
     gradientTransform="matrix(0.60781731,0,0,0.60781731,25.0997,45.492698)">
    <stop
       offset="0"
       stop-color="#3d3846"
       id="stop252" />
    <stop
       offset="0.05"
       stop-color="#77767b"
       id="stop254" />
    <stop
       offset="0.1"
       stop-color="#5e5c64"
       id="stop256" />
    <stop
       offset="0.899999"
       stop-color="#504e56"
       id="stop258" />
    <stop
       offset="0.95"
       stop-color="#77767b"
       id="stop260" />
    <stop
       offset="1"
       stop-color="#3d3846"
       id="stop262" />
  </linearGradient>
  <linearGradient
     id="b"
     gradientUnits="userSpaceOnUse"
     x1="12"
     x2="112.041023"
     y1="60"
     y2="80.988281"
     gradientTransform="matrix(0.60781731,0,0,0.60781731,25.0997,45.492698)">
    <stop
       offset="0"
       stop-color="#77767b"
       id="stop265" />
    <stop
       offset="0.384443"
       stop-color="#9a9996"
       id="stop267" />
    <stop
       offset="0.720567"
       stop-color="#77767b"
       id="stop269" />
    <stop
       offset="1"
       stop-color="#68666f"
       id="stop271" />
  </linearGradient>
  <path
     id="path6-9"
     d="m 103.06275,16.999128 c -2.45474,-2.591108 -13.637435,0.545495 -20.456158,4.773104 -5.3186,-2.727487 -11.728195,-4.363972 -18.546907,-4.363972 -6.955102,0 -13.364695,1.636485 -18.683305,4.363972 -6.81871,-4.227609 -18.13779,-7.500591 -20.45615,-4.773104 -2.45474,2.727486 1.77287,14.04656 6.81872,20.319788 0,0 0,0 0,0 -0.40913,1.636485 -0.68187,3.272982 -0.68187,5.045852 0,5.454974 2.31836,10.500826 6.27322,14.592056 h 22.50177 c -0.681874,-1.363743 0.272753,-2.181991 4.363978,-2.181991 4.091241,0.136373 4.909478,0.818248 4.363983,2.181991 H 91.0618 c 3.954862,-4.09123 6.273227,-9.273462 6.273227,-14.592056 0,-1.77287 -0.272753,-3.409367 -0.681869,-5.045852 4.773102,-6.273228 8.864332,-17.72867 6.409592,-20.319788 z m -51.82227,36.00284 c -4.7731,0 -8.72796,-3.954862 -8.72796,-8.727961 0,-4.7731 3.95486,-8.727961 8.72796,-8.727961 4.7731,0 8.727964,3.954861 8.727964,8.727961 0,4.773099 -3.954864,8.727961 -8.727964,8.727961 z m 25.638385,0 c -4.773099,0 -8.727955,-3.954862 -8.727955,-8.727961 0,-4.7731 3.954856,-8.727961 8.727955,-8.727961 4.77311,0 8.727962,3.954861 8.727962,8.727961 0,4.773099 -3.818478,8.727961 -8.727962,8.727961 z"
     style="clip-rule:evenodd;fill:#502d16;fill-opacity:1;fill-rule:evenodd;stroke-width:2.72321" />
  <path
     d="m 37.256046,58.864679 h 53.487923 c 2.685319,0 4.862539,2.17722 4.862539,4.862538 v 47.409753 c 0,2.68532 -2.17722,4.86254 -4.862539,4.86254 H 37.256046 c -2.685318,0 -4.862538,-2.17722 -4.862538,-4.86254 V 63.727217 c 0,-2.685318 2.17722,-4.862538 4.862538,-4.862538 z m 0,0"
     fill="url(#a)"
     id="path274"
     style="fill:url(#a);stroke-width:0.999999" />
  <path
     d="m 37.256046,52.786506 h 53.487923 c 2.685319,0 4.862539,2.17722 4.862539,4.862538 v 48.625386 c 0,2.68532 -2.17722,4.86254 -4.862539,4.86254 H 37.256046 c -2.685318,0 -4.862538,-2.17722 -4.862538,-4.86254 V 57.649044 c 0,-2.685318 2.17722,-4.862538 4.862538,-4.862538 z m 0,0"
     fill="url(#b)"
     id="path276"
     style="fill:url(#b);stroke-width:0.999999" />
  <path
     d="m 37.256046,54.00214 h 53.487923 c 2.013395,0 3.646904,1.633509 3.646904,3.646904 v 48.625386 c 0,2.01339 -1.633509,3.6469 -3.646904,3.6469 H 37.256046 c -2.013395,0 -3.646904,-1.63351 -3.646904,-3.6469 V 57.649044 c 0,-2.013395 1.633509,-3.646904 3.646904,-3.646904 z m 0,0"
     fill="#241f31"
     id="path278"
     style="stroke-width:0.999999" />
  <rect
     style="fill:#dddddd;fill-opacity:1;fill-rule:evenodd;stroke:none;stroke-width:6.26;stroke-linecap:round;stroke-linejoin:round;stroke-miterlimit:4;stroke-dasharray:none;stroke-opacity:1"
     id="rect4496"
     width="53.655319"
     height="32.883369"
     x="38.799965"
     y="20.073454"
     ry="0" />
  <path
     id="path4-3"
     d="m 51.225525,45.720818 c 1.004799,0 1.808638,-1.909238 1.808638,-4.363978 0,-2.454744 -0.803839,-4.363983 -1.808638,-4.363983 -1.004799,0 -1.808638,1.909239 -1.808638,4.363983 0,2.45474 0.803839,4.363978 1.808638,4.363978 z"
     style="clip-rule:evenodd;fill:#c0c81f;fill-opacity:1;fill-rule:evenodd;stroke-width:3.30575" />
  <path
     id="path6"
     d="m 103.06275,12.999128 c -2.45474,-2.591108 -13.637435,0.545495 -20.456158,4.773104 -5.3186,-2.727487 -11.728195,-4.363972 -18.546907,-4.363972 -6.955102,0 -13.364698,1.636485 -18.683305,4.363972 -6.81871,-4.227609 -18.13779,-7.500591 -20.45615,-4.773104 -2.45474,2.727486 1.77287,14.04656 6.81872,20.319788 0,0 0,0 0,0 -0.40913,1.636485 -0.68187,3.272982 -0.68187,5.045852 0,5.454974 2.31836,10.500826 6.27322,14.592056 h 22.50177 c -0.681874,-1.363743 0.272753,-2.181991 4.363978,-2.181991 4.091241,0.136373 4.909478,0.818248 4.363983,2.181991 H 91.0618 c 3.954862,-4.09123 6.273227,-9.273462 6.273227,-14.592056 0,-1.77287 -0.272753,-3.409367 -0.681869,-5.045852 4.773102,-6.273228 8.864332,-17.72867 6.409592,-20.319788 z m -51.822267,36.00284 c -4.773103,0 -8.727963,-3.954862 -8.727963,-8.727961 0,-4.7731 3.95486,-8.727961 8.727963,-8.727961 4.773099,0 8.727961,3.954861 8.727961,8.727961 0,4.773099 -3.954862,8.727961 -8.727961,8.727961 z m 25.638382,0 c -4.773099,0 -8.727955,-3.954862 -8.727955,-8.727961 0,-4.7731 3.954856,-8.727961 8.727955,-8.727961 4.77311,0 8.727962,3.954861 8.727962,8.727961 0,4.773099 -3.818478,8.727961 -8.727962,8.727961 z"
     style="clip-rule:evenodd;fill:#784421;fill-opacity:1;fill-rule:evenodd;stroke-width:2.72321" />
  <g
     id="g4541"
     style="fill:#2b1100;fill-opacity:1;stroke-width:1.99686"
     transform="matrix(0.53417081,0,0,0.53417081,-0.10049,-434.04118)">
    <path
       style="clip-rule:evenodd;fill:#2b1100;fill-opacity:1;fill-rule:evenodd;stroke-width:5.09801"
       id="path10"
       d="m 168.5072,903.26472 c 15.31805,-19.14757 46.72009,-28.33841 67.65477,-15.06276 -24.50889,-3.82951 -46.72009,2.55301 -67.65477,15.06276 z" />
    <path
       style="clip-rule:evenodd;fill:#2b1100;fill-opacity:1;fill-rule:evenodd;stroke-width:5.09801"
       id="path12"
       d="m 167.486,898.66931 c 8.68022,-20.42409 34.46564,-33.69975 55.14502,-26.55131 -21.70058,2.80831 -39.31636,11.23323 -55.14502,26.55131 z" />
    <path
       style="clip-rule:evenodd;fill:#2b1100;fill-opacity:1;fill-rule:evenodd;stroke-width:5.09801"
       id="path14"
       d="m 167.23069,908.62604 c 15.82867,-15.06275 50.80491,-20.16879 61.52756,-4.34011 -21.70059,-6.89313 -40.59288,-3.82953 -61.52756,4.34011 z" />
  </g>
  <g
     id="g4536"
     style="fill:#2b1100;fill-opacity:1;stroke-width:1.99686"
     transform="matrix(0.53417081,0,0,0.53417081,-0.10049,-434.04118)">
    <path
       style="clip-rule:evenodd;fill:#2b1100;fill-opacity:1;fill-rule:evenodd;stroke-width:5.09801"
       id="path16"
       d="M 71.492797,903.26472 C 56.174733,884.11715 24.772703,874.92631 3.8380177,888.20196 28.346918,884.37245 50.55811,890.75497 71.492797,903.26472 Z" />
    <path
       style="clip-rule:evenodd;fill:#2b1100;fill-opacity:1;fill-rule:evenodd;stroke-width:5.09801"
       id="path18"
       d="M 72.514,898.66931 C 63.833764,878.24522 38.048358,864.96956 17.368973,872.118 c 21.70059,2.80831 39.316362,11.23323 55.145027,26.55131 z" />
    <path
       style="clip-rule:evenodd;fill:#2b1100;fill-opacity:1;fill-rule:evenodd;stroke-width:5.09801"
       id="path20"
       d="m 72.769301,908.62604 c -15.828665,-15.06275 -50.80491,-20.16879 -61.527553,-4.34011 21.70059,-6.89313 40.592868,-3.82953 61.527553,4.34011 z" />
  </g>
  <path
     id="path8-4"
     d="m 27.99717,45.274246 c -3.40936,0 -6.27322,1.77286 -7.63697,4.500347 -0.13637,0 -0.27274,0 -0.40912,0 -3.68211,0 -6.81872,2.727487 -6.81872,6.136853 0,4.773099 4.90948,7.364212 9.40983,5.727721 2.72749,3.954857 8.59159,4.22761 10.77358,0 3.27298,-0.136373 8.59159,-0.681869 9.40983,-5.727721 0.5455,-3.409366 -3.00023,-6.136853 -6.81872,-6.136853 -0.13637,0 -0.27275,0 -0.40912,0 -1.09099,-2.727487 -4.09123,-4.500347 -7.50059,-4.500347 z m 72.00567,0 c 3.40936,0 6.27322,1.77286 7.63696,4.500347 0.13638,0 -1.50012,0 0.40912,0 1.90925,0 6.81873,2.727487 6.81873,6.136853 0,4.773099 -4.90948,7.364212 -9.40984,5.727721 -2.72749,3.954857 -8.591587,4.22761 -10.773573,0 -3.272982,-0.136373 -8.591587,-0.681869 -9.409827,-5.727721 -0.5455,-3.409366 4.909475,-6.136853 6.818714,-6.136853 1.909238,0 0.272753,0 0.409121,0 1.091001,-2.727487 4.091236,-4.500347 7.500595,-4.500347 z"
     style="clip-rule:evenodd;fill:#654e4e;fill-opacity:1;fill-rule:evenodd;stroke-width:2.72321" />
  <path
     id="path8"
     d="m 27.99717,43.274246 c -3.40936,0 -6.27322,1.77286 -7.63697,4.500347 -0.13637,0 -0.27274,0 -0.40912,0 -3.68211,0 -6.81872,2.727487 -6.81872,6.136853 0,4.773099 4.90948,7.364212 9.40983,5.727721 2.72749,3.954857 8.59159,4.22761 10.77358,0 3.27298,-0.136373 8.59159,-0.681869 9.40983,-5.727721 0.5455,-3.409366 -3.00023,-6.136853 -6.81872,-6.136853 -0.13637,0 -0.27275,0 -0.40912,0 -1.09099,-2.727487 -4.09123,-4.500347 -7.50059,-4.500347 z m 72.00567,0 c 3.40936,0 6.27322,1.77286 7.63696,4.500347 0.13638,0 -1.50012,0 0.40912,0 1.90925,0 6.81873,2.727487 6.81873,6.136853 0,4.773099 -4.90948,7.364212 -9.40984,5.727721 -2.72749,3.954857 -8.591587,4.22761 -10.773573,0 -3.272982,-0.136373 -8.591587,-0.681869 -9.409825,-5.727721 -0.545506,-3.409366 4.909473,-6.136853 6.818712,-6.136853 1.909238,0 0.272753,0 0.409121,0 1.091001,-2.727487 4.091236,-4.500347 7.500595,-4.500347 z"
     style="clip-rule:evenodd;fill:#483737;fill-opacity:1;fill-rule:evenodd;stroke-width:2.72321" />
  <path
     id="path4-3-3"
     d="m 76.575521,45.720813 c 1.004802,0 1.808638,-1.909239 1.808638,-4.363978 0,-2.454745 -0.803836,-4.363983 -1.808638,-4.363983 -1.004797,0 -1.808639,1.909238 -1.808639,4.363983 0,2.454739 0.803842,4.363978 1.808639,4.363978 z"
     style="clip-rule:evenodd;fill:#c0c81f;fill-opacity:1;fill-rule:evenodd;stroke-width:3.30575" />
  <path
     d="m 65.216605,96.259091 h 20.00171 c 3.017855,0.001 3.017855,4.529959 0,4.528699 h -20.00171 c -3.01786,-0.001 -3.01786,-4.529959 0,-4.528699 z M 41.16173,71.841921 c -1.98684,-2.13223 1.06804,-5.18711 3.20027,-3.20027 l 14.144605,14.13705 c 0.88296,0.88405 0.88296,2.31622 0,3.20027 L 44.362,100.12357 c -2.13223,1.98675 -5.18701,-1.068039 -3.20027,-3.200269 l 12.544465,-12.54446 z"
     style="fill:#ffffff;stroke-width:1.5072"
     id="path1" />
</svg>
