<?xml version="1.0" encoding="UTF-8" standalone="no"?>
<!-- Generator: Adobe Illustrator 26.0.2, SVG Export Plug-In . SVG Version: 6.00 Build 0)  -->

<svg
   version="1.0"
   id="Layer_1"
   x="0px"
   y="0px"
   viewBox="0 0 128 128"
   xml:space="preserve"
   width="128"
   height="128"
   xmlns:xlink="http://www.w3.org/1999/xlink"
   xmlns="http://www.w3.org/2000/svg"
   xmlns:svg="http://www.w3.org/2000/svg"><defs
   id="defs76"><linearGradient
     id="linearGradient46"><stop
       style="stop-color:#000000;stop-opacity:0.30000001;"
       offset="0"
       id="stop38" /><stop
       style="stop-color:#ffffff;stop-opacity:0.40000001;"
       offset="0.06193377"
       id="stop39" /><stop
       style="stop-color:#000000;stop-opacity:0.30000001;"
       offset="0.13375144"
       id="stop40" /><stop
       style="stop-color:#000000;stop-opacity:0.30000001;"
       offset="0.3170979"
       id="stop41" /><stop
       style="stop-color:#ffffff;stop-opacity:0.40000001;"
       offset="0.38719353"
       id="stop42" /><stop
       style="stop-color:#000000;stop-opacity:0.30000001;"
       offset="0.46812373"
       id="stop43" /><stop
       style="stop-color:#000000;stop-opacity:0.30000001;"
       offset="0.85165566"
       id="stop44" /><stop
       style="stop-color:#ffffff;stop-opacity:0.40000001;"
       offset="0.92992401"
       id="stop45" /><stop
       style="stop-color:#000000;stop-opacity:0.30000001;"
       offset="1"
       id="stop46" /></linearGradient><linearGradient
     id="a"
     gradientTransform="matrix(1.937142,0,0,1.928556,237.93385,-1180.1077)"
     gradientUnits="userSpaceOnUse"
     x1="-87"
     x2="-87"
     y1="616"
     y2="672"><stop
       offset="0"
       stop-color="#d4ba94"
       id="stop1" /><stop
       offset="1"
       stop-color="#997657"
       id="stop2" /></linearGradient><linearGradient
     id="c"
     gradientTransform="matrix(1.937142,0,0,1.928556,-730.62905,-2052.5047)"
     gradientUnits="userSpaceOnUse"
     x1="415"
     x2="415"
     y1="1068.4"
     y2="1079.4"><stop
       offset="0"
       stop-color="#884d2c"
       id="stop5" /><stop
       offset="1"
       stop-color="#ffa92d"
       id="stop6-3" /></linearGradient><linearGradient
     id="l"
     gradientTransform="matrix(1.937142,0,0,1.928556,-730.62905,-1180.1077)"
     gradientUnits="userSpaceOnUse"
     x1="393"
     x2="393"
     y1="623"
     y2="632"><stop
       offset="0"
       stop-color="#913bb5"
       id="stop23" /><stop
       offset="1"
       stop-color="#bf4231"
       id="stop24" /></linearGradient><linearGradient
     id="j"
     gradientTransform="matrix(1.937142,0,0,1.928556,-730.62905,-2052.5047)"
     gradientUnits="userSpaceOnUse"
     x1="401"
     x2="401"
     y1="1075.4"
     y2="1086.4"><stop
       offset="0"
       stop-color="#ac0808"
       id="stop19-6" /><stop
       offset="1"
       stop-color="#e4720c"
       id="stop20" /></linearGradient><linearGradient
     id="e"
     gradientTransform="matrix(1.937142,0,0,1.928556,-730.73705,-1178.5417)"
     gradientUnits="userSpaceOnUse"
     x1="409"
     x2="409"
     y1="629"
     y2="642"><stop
       offset="0"
       stop-color="#ffa92d"
       id="stop9" /><stop
       offset="1"
       stop-color="#ffe5e1"
       id="stop10" /></linearGradient><linearGradient
     id="i"
     gradientTransform="matrix(1.937142,0,0,1.928556,-581.68878,-1177.0027)"
     gradientUnits="userSpaceOnUse"
     x1="432"
     x2="432"
     y1="647"
     y2="662"><stop
       offset="0"
       stop-color="#375a7d"
       id="stop17-7" /><stop
       offset="1"
       stop-color="#7cbcec"
       id="stop18" /></linearGradient><linearGradient
     id="g"
     gradientTransform="matrix(1.937142,0,0,1.928556,-728.63105,-1178.5417)"
     gradientUnits="userSpaceOnUse"
     x1="433.29999"
     x2="433.29999"
     y1="632"
     y2="643.95001"><stop
       offset="0"
       stop-color="#377d50"
       id="stop13-5" /><stop
       offset="1"
       stop-color="#3b85b5"
       id="stop14" /></linearGradient><linearGradient
     id="k"
     gradientTransform="matrix(1.937142,0,0,1.928556,-730.62905,-1180.1077)"
     gradientUnits="userSpaceOnUse"
     x1="407"
     x2="407"
     y1="636"
     y2="622"><stop
       offset="0"
       stop-color="#ffa92d"
       id="stop21-3" /><stop
       offset="1"
       stop-color="#e05e4c"
       id="stop22" /></linearGradient><linearGradient
     id="b"
     gradientTransform="matrix(0,1.928556,-1.937142,0,2168.6039,-769.70773)"
     gradientUnits="userSpaceOnUse"
     x1="410"
     x2="421"
     y1="1080.4"
     y2="1080.4"><stop
       offset="0"
       stop-color="#e4720c"
       id="stop3" /><stop
       offset="1"
       stop-color="#f1d23b"
       id="stop4-5" /></linearGradient><linearGradient
     id="d"
     gradientTransform="matrix(1.937142,0,0,1.928556,-729.33305,-2051.7217)"
     gradientUnits="userSpaceOnUse"
     x1="424"
     x2="424"
     y1="1074.4"
     y2="1086.4"><stop
       offset="0"
       stop-color="#884d2c"
       id="stop7" /><stop
       offset="1"
       stop-color="#b7bf31"
       id="stop8" /></linearGradient><linearGradient
     id="h"
     gradientTransform="matrix(1.937142,0,0,1.928556,-729.33305,-1178.5417)"
     gradientUnits="userSpaceOnUse"
     x1="425"
     x2="425"
     y1="632"
     y2="640"><stop
       offset="0"
       stop-color="#b7bf31"
       id="stop15-6" /><stop
       offset="1"
       stop-color="#54d883"
       id="stop16" /></linearGradient><linearGradient
     id="f"
     gradientTransform="matrix(1.937142,0,0,1.928556,-729.33305,-2050.1827)"
     gradientUnits="userSpaceOnUse"
     x1="424"
     x2="424"
     y1="1092.4"
     y2="1101.4"><stop
       offset="0"
       stop-color="#7ceca4"
       id="stop11-2" /><stop
       offset="1"
       stop-color="#e1f2ff"
       id="stop12" /></linearGradient><linearGradient
     xlink:href="#i"
     id="linearGradient37"
     gradientUnits="userSpaceOnUse"
     gradientTransform="matrix(1.937142,0,0,1.928556,-728.63105,-1172.904)"
     x1="432"
     y1="647"
     x2="432"
     y2="662" /><linearGradient
     xlink:href="#linearGradient46"
     id="linearGradient38"
     gradientUnits="userSpaceOnUse"
     gradientTransform="translate(-211.94227,-68.999997)"
     x1="226"
     y1="135"
     x2="325.89947"
     y2="135" /><linearGradient
     xlink:href="#i"
     id="linearGradient47"
     gradientUnits="userSpaceOnUse"
     gradientTransform="matrix(1.937142,0,0,1.928556,-728.63105,-1177.0027)"
     x1="432"
     y1="647"
     x2="432"
     y2="662" /></defs>&#10;<style
   type="text/css"
   id="style2">&#10;	.st0{fill:url(#SVGID_1_);}&#10;	.st1{fill:url(#SVGID_00000062171159965967627490000013605884846004172698_);}&#10;	.st2{fill:url(#SVGID-2_00000085966066984138215510000013018799571900533434_);}&#10;	.st3{clip-path:url(#SVGID_00000023257072852279316340000004281102206337855156_);}&#10;	.st4{fill:url(#SVGID_00000177446033621631838710000001370584907163434138_);}&#10;	.st5{clip-path:url(#SVGID_00000136385553608229244970000014654043435100792964_);}&#10;	.st6{fill:url(#SVGID_00000126306410582640054500000000964390405037519506_);}&#10;	.st7{fill:url(#SVGID_00000109020757643166282930000006684795936706346369_);}&#10;</style>&#10;<radialGradient
   id="SVGID_1_"
   cx="514.5"
   cy="477.5"
   r="496.5"
   gradientTransform="matrix(1,0,0,-1,-18,974)"
   gradientUnits="userSpaceOnUse">&#10;	<stop
   offset="0.9134"
   style="stop-color:#000000"
   id="stop4" />&#10;	<stop
   offset="1"
   style="stop-color:#000000;stop-opacity:0"
   id="stop6" />&#10;</radialGradient>&#10;&#10;<radialGradient
   id="SVGID_00000163033830155146975860000008434547654242457221_"
   cx="512.05908"
   cy="481.87881"
   r="486.27271"
   gradientTransform="matrix(0.11104257,0,0,-0.11104257,7.1350999,117.51141)"
   gradientUnits="userSpaceOnUse">&#10;	<stop
   offset="0.99"
   style="stop-color:#FFFFFF"
   id="stop11" />&#10;	<stop
   offset="0.9951"
   style="stop-color:#FDFDFD"
   id="stop13" />&#10;	<stop
   offset="0.9969"
   style="stop-color:#F6F6F6"
   id="stop15" />&#10;	<stop
   offset="0.9982"
   style="stop-color:#EBEBEB"
   id="stop17" />&#10;	<stop
   offset="0.9992"
   style="stop-color:#DADADA"
   id="stop19" />&#10;	<stop
   offset="1"
   style="stop-color:#C7C7C7"
   id="stop21" />&#10;</radialGradient>&#10;&#10;<radialGradient
   id="SVGID-2_00000052072577768947982130000002178866272689676469_"
   cx="512.06152"
   cy="481.87881"
   r="444.12241"
   gradientTransform="matrix(1,0,0,-1,-18,974)"
   gradientUnits="userSpaceOnUse">&#10;	<stop
   offset="0.99"
   style="stop-color:#000000;stop-opacity:0.5"
   id="stop26" />&#10;	<stop
   offset="1"
   style="stop-color:#000000;stop-opacity:0"
   id="stop28" />&#10;</radialGradient>&#10;&#10;&#10;&#10;<radialGradient
   id="SVGID_00000092427181212153090570000016417065628950216588_"
   cx="578.89008"
   cy="482.3703"
   r="353.94269"
   gradientTransform="matrix(0.11104257,0,0,-0.1218248,7.1350999,118.45626)"
   gradientUnits="userSpaceOnUse">&#10;	<stop
   offset="0"
   style="stop-color:#C2C0C2"
   id="stop66" />&#10;	<stop
   offset="1"
   style="stop-color:#EBEBEB"
   id="stop68" />&#10;</radialGradient>&#10;&#10;		&#10;	&#10;		&#10;	&#10;<path
   d="m 59.71765,12.00027 c -15.66837,0.027 -30.564,6.77538 -40.8537,18.53982 -21.13452,21.04083 35.0433,34.7922 22.29984,47.4795 -4.69152,4.67073 -6.61797,10.6461 -6.62877,16.90902 0.005,0.30024 0.0162,0.60021 0.034,0.90018 -0.0108,0.34155 -0.034,0.6804 -0.034,1.02816 l 0.0907,0.0567 c 1.03963,13.03128 11.96154,23.08014 25.09191,23.08635 0.71374,0 1.42692,-0.0405 2.13767,-0.1053 29.0763,-1.14156 52.0668,-24.92343 52.1019,-53.8947 0,-29.8242 -24.28407,-54 -54.2403,-54 z m 0,71.3556 A 11.62296,11.57139 0 0 1 71.34034,94.92726 11.62296,11.57139 0 0 1 59.71765,106.49838 11.62296,11.57139 0 0 1 48.09496,94.92726 11.62296,11.57139 0 0 1 59.71765,83.35587 Z"
   fill="url(#a)"
   id="path24-1-9"
   style="fill:#997657;fill-opacity:1;stroke-width:0.999999" /><path
   d="m 20.9767,28.185148 c -0.72296,0.73683 -1.43125,1.49148 -2.11464,2.27286 -8.10756,8.07165 -4.87342,15.100228 1.51837,21.377998 v -3.984878 c 0,0 3.61475,1.379139 6.0503,3.016612 1.93714,-1.92861 -5.45403,-4.233762 -5.45403,-8.090982 z"
   fill="#2b3c4d"
   id="path31-8"
   style="stroke-width:0.999999" /><path
   d="m 100.45795,60.698982 -3.46032,7.74198 3.46032,8.45802 12.39648,-4.083362 v 4.098712 c 0.71763,-3.49326 1.09903,-7.11662 1.10341,-10.81535 0,-1.82277 -0.0918,-3.62367 -0.26892,-5.4 z"
   fill="#2b3c4d"
   id="path37-6"
   style="stroke-width:0.999999" /><path
   d="m 96.69955,71.768982 3.75867,8.97831 v 1.87812 c 0,5.78556 -5.80959,15.431578 -7.74657,17.360188 -1.70217,1.6946 5.37463,-2.308087 5.35423,0.13953 l -0.0336,4.03343 c 3.31676,-3.07103 6.81205,-8.0949 7.18078,-8.71408 3.65067,-5.57415 6.25844,-11.797698 7.64138,-18.530148 V 72.81562 Z"
   fill="url(#i)"
   id="path36-6"
   style="fill:url(#linearGradient37);stroke-width:0.999999" /><path
   d="m 59.71765,12.00027 c -15.66837,0.027 -30.564,6.77538 -40.8537,18.539817 -21.13452,21.04083 35.0433,34.792203 22.29984,47.479503 -4.69152,4.67073 -6.61797,10.6461 -6.62877,16.90902 0.005,0.30024 0.0162,0.60021 0.034,0.90018 -0.0108,0.34155 -0.034,0.6804 -0.034,1.02816 l 0.0907,0.0567 c 1.03963,13.03128 11.96154,23.08014 25.09191,23.08635 0.71374,0 1.42692,-0.0405 2.13767,-0.1053 29.0763,-1.14156 52.0668,-24.92343 52.1019,-53.8947 0,-29.824203 -24.28407,-54 -54.2403,-54 z m 0,71.3556 A 11.62296,11.57139 0 0 1 71.34034,94.92726 11.62296,11.57139 0 0 1 59.71765,106.49838 11.62296,11.57139 0 0 1 48.09496,94.92726 11.62296,11.57139 0 0 1 59.71765,83.35587 Z"
   fill="url(#a)"
   id="path24-1-9-2"
   style="fill:url(#linearGradient38);stroke-width:0.999999" /><path
   d="m 59.71765,8.00027 c -15.66837,0.027 -30.564,6.77538 -40.8537,18.53982 -21.13452,21.04083 35.0433,34.7922 22.29984,47.4795 -4.69152,4.67073 -6.61797,10.6461 -6.62877,16.90902 0.005,0.30024 0.0162,0.60021 0.034,0.90018 -0.0108,0.34155 -0.034,0.6804 -0.034,1.02816 l 0.0907,0.0567 c 1.03963,13.03128 11.96154,23.08014 25.09191,23.08635 0.71374,0 1.42692,-0.0405 2.13767,-0.1053 C 90.9316,114.75314 113.9221,90.97127 113.9572,62 113.9572,32.1758 89.67313,8 59.7169,8 Z m 0,71.3556 A 11.62296,11.57139 0 0 1 71.34034,90.92726 11.62296,11.57139 0 0 1 59.71765,102.49838 11.62296,11.57139 0 0 1 48.09496,90.92726 11.62296,11.57139 0 0 1 59.71765,79.35587 Z"
   fill="url(#a)"
   id="path24-1"
   style="fill:url(#a);stroke-width:0.999999" /><path
   d="m 35.65795,13.59764 c -5.38407,2.66058 -10.3689,6.242276 -14.61267,10.61937 l 16.87986,2.26719 z"
   fill="#432b4d"
   id="path25"
   style="stroke-width:0.999999" /><path
   d="m 51.85795,8.54027 c -5.66082,0.83187 -11.12238,2.54799 -16.2,5.05737 v 10.54674 l 18.82521,3.34098 z"
   fill="#4d2f2b"
   id="path26"
   style="stroke-width:0.999999" /><path
   d="m 59.72035,8.00027 c -2.64905,0.0027 -5.27607,0.16011 -7.8624,0.54 l -2.7e-4,15.66 19.54098,2.86389 L 68.05768,8.63828 C 65.33905,8.22059 62.5567,8.00027 59.72035,8.00027 Z"
   fill="#813c33"
   id="path27"
   style="stroke-width:0.999999" /><path
   d="m 68.05795,8.54027 v 15.56199 l 19.899,3.34098 -3.699,-13.65039 c -5.01012,-2.53854 -10.44198,-4.36779 -16.2,-5.25258 z"
   fill="url(#c)"
   id="path28"
   style="fill:url(#c);stroke-width:0.999999" /><path
   d="m 84.25795,13.67027 v 10.30941 l 9.34929,3.22164 4.83957,-3.007206 C 94.40676,20.02117 89.53213,16.34219 84.25795,13.67027 Z"
   fill="#7c8133"
   id="path29"
   style="stroke-width:0.999999" /><path
   d="m 20.9767,24.20027 c -0.72296,0.73683 -1.43125,1.49148 -2.11464,2.27286 -8.10756,8.07165 -4.87342,15.100228 1.51837,21.377998 -2.77992,-3.18384 0.71328,-3.159748 2.53163,-1.349398 1.93711,1.92861 1.93884,3.85857 3.87585,1.92996 1.93714,-1.92861 -5.81121,-5.78259 -5.81121,-9.63981 z"
   fill="#2b3c4d"
   id="path31"
   style="stroke-width:0.999999" /><path
   d="m 20.97535,24.20027 v 1.1583 c 0,1.92834 -3.87423,3.85695 -3.87423,5.78556 0,1.92861 3.87423,3.85722 3.87423,7.71417 l 0.28374,-1.97748 c 1.85776,-5.2137 11.61675,4.74741 14.39883,1.97748 l 1.67054,-3.74922 1.02946,-10.90881 z"
   fill="url(#l)"
   id="path32"
   style="fill:url(#l);stroke-width:0.999999" /><path
   d="m 49.92205,40.40027 c 1.93714,-1.92861 -1.82547,-7.32753 -3.76272,-5.39892 -1.93715,1.92861 0,5.78556 -3.87423,5.78556 -3.87423,0 -1.67759,-4.82139 0,-5.78556 1.65396,-0.95094 1.42651,-3.37959 0.058,-4.07241 -1.36863,-0.69309 -3.87855,0.34938 -3.87855,3.61341 0,2.78505 -2.8053,4.31595 -2.8053,4.31595 V 24.20027 h 16.2 l 3.1023,19.899 z"
   fill="url(#j)"
   fill-rule="evenodd"
   id="path33"
   style="fill:url(#j);stroke-width:0.999999" /><path
   d="m 49.92205,40.40027 c 0,0 -5.81148,3.375 -5.81148,15.42861 h 7.74846 v -7.71444 c 0,-5.78556 5.81148,-7.71417 5.81148,-7.71417 h -5.81148 -1.93715 z"
   fill="#ffafa5"
   id="path34"
   style="stroke-width:0.999999" /><path
   d="m 51.85795,40.40027 v 7.71417 c 0,1.92861 -3.87423,1.92861 -5.81148,3.85722 -0.96857,0.96417 -1.93715,1.92861 -1.93715,3.85722 0,1.70424 1.93715,3.85695 3.87423,3.85695 3.87423,0 3.87423,-3.08556 9.27423,-3.08556 h 10.8 v -16.2 z"
   fill="url(#e)"
   id="path35"
   style="fill:url(#e);stroke-width:0.999999" /><path
   d="m 96.69955,67.67027 3.75867,8.97831 v 1.87812 c 0,5.78556 -5.80959,15.43158 -7.74657,17.36019 -1.78562,1.77768 3.07543,5.22509 5.35423,4.23824 3.31676,-3.071027 6.77844,-8.16018 7.14717,-8.779364 3.65067,-5.57415 6.25844,-11.797696 7.64138,-18.530146 z"
   fill="url(#i)"
   id="path36"
   style="fill:url(#linearGradient47);stroke-width:0.999999" /><path
   d="m 100.45795,56.60027 -3.46032,7.74198 3.46032,8.45802 12.39648,0.01535 c 0.71763,-3.49326 1.09903,-7.11662 1.10341,-10.81535 0,-1.82277 -0.0918,-3.62367 -0.26892,-5.4 z"
   fill="#2b3c4d"
   id="path37"
   style="stroke-width:0.999999" /><path
   d="m 100.45795,40.32953 -5.48883,15.31602 5.48883,6.73974 c 0,3.85695 2.50624,3.29373 3.87612,1.92996 1.93711,-1.92834 3.87234,-7.71498 7.74657,-7.71498 h 1.60839 c -0.56978,-5.71266 -2.05449,-11.22255 -4.2714,-16.27074 z"
   fill="url(#g)"
   id="path38"
   style="fill:url(#g);stroke-width:0.999999" /><ellipse
   cx="105.86874"
   cy="78.20034"
   fill="#7cbcec"
   rx="2.71188"
   ry="2.6999729"
   id="ellipse40"
   style="stroke-width:0.999999" /><path
   d="m 51.85795,24.20027 v 16.2 h 9.68571 c 3.87423,0 3.87423,1.92861 3.87423,3.85722 0,1.92861 -1.93715,5.01417 -1.93715,6.94278 0,1.92861 2.64006,5.4 4.57731,5.4 l 4.41504,-16.2 -4.41504,-16.2 z"
   fill="url(#k)"
   id="path41"
   style="fill:url(#k);stroke-width:0.999999" /><path
   d="m 84.25795,24.20027 4.05702,20.37636 -20.25702,-4.17636 v -16.2 z"
   fill="url(#b)"
   id="path42"
   style="fill:url(#b);stroke-width:0.999999" /><path
   d="m 84.25795,24.20027 v 16.2 l 18.46719,2.26719 -2.26689,-16.317407 c -0.66593,-0.75546 -1.25432,-1.403634 -2.01144,-2.155939 z"
   fill="url(#d)"
   id="path43"
   style="fill:url(#d);stroke-width:0.999999" /><path
   d="m 100.45825,26.350053 0.005,14.050217 h 8.98213 c -2.25224,-5.12838 -5.32938,-9.900317 -8.98761,-14.050217 z"
   fill="#2b4d37"
   id="path44"
   style="stroke-width:0.999999" /><path
   d="m 68.05795,40.40027 h 16.2 L 87.0025,59.22548 68.05795,56.60027 Z"
   fill="#f7e385"
   id="path45"
   style="stroke-width:0.999999" /><path
   d="m 84.25795,40.40027 v 16.2 h 16.2 v -5.4 c 0,-3.85722 7.04565,-0.2106 7.04565,-3.08583 0,-1.92834 -3.17547,-2.17728 -3.87423,-3.85695 -0.49421,-1.188 1.9305,-3.85722 0,-3.85722 z"
   fill="url(#h)"
   id="path46"
   style="fill:url(#h);stroke-width:0.999999" /><ellipse
   cx="88.775047"
   cy="32.84021"
   fill="#ffa92d"
   rx="1.9371419"
   ry="1.928529"
   id="ellipse46"
   style="stroke-width:0.999999" /><path
   d="m 79.68145,46.88027 c -1.93715,0 -3.87423,1.92834 -1.93715,3.85695 1.93715,1.92861 1.93715,5.78583 -1.93714,5.78583 H 68.0587 c 0,0 5.81148,1.92861 5.81148,5.78556 0,3.85722 -4.7493,4.44744 -4.7304,9.3771 0.0189,4.76523 4.59,3.34179 6.11145,6.60501 0.98132,2.10519 -1.38261,3.6558 0.76804,5.7969 0.72768,0.46899 5.23206,0.71631 6.86313,-0.90774 3.67281,-3.65661 1.37636,-5.44266 1.37636,-9.29988 l 5.60817,-8.55927 -5.60817,-8.79768 v -1.92861 c 0,-1.92861 -2.64004,-7.71417 -4.57704,-7.71417 z"
   fill="#ecfde3"
   fill-rule="evenodd"
   id="path47"
   style="stroke-width:0.999999" /><path
   d="m 84.25795,56.60027 v 15.42834 1.92861 c 0,-1.92861 16.2,-1.92861 16.2,3.85722 V 72.02861 56.60027 Z"
   fill="url(#f)"
   id="path48"
   style="fill:url(#f);stroke-width:0.999999" /><ellipse
   cx="79.090141"
   cy="66.59021"
   fill="#986f34"
   rx="1.9371419"
   ry="2.8927801"
   id="ellipse48"
   style="stroke-width:0.999999" /><ellipse
   cx="74.246361"
   cy="29.060307"
   fill="#d7e04c"
   rx="2.90574"
   ry="1.9285561"
   id="ellipse49"
   style="stroke-width:0.999999" /></svg>
