<?xml version="1.0" encoding="UTF-8" standalone="no"?>
<svg
   width="128"
   height="128"
   version="1.0"
   id="svg276"
   xmlns:xlink="http://www.w3.org/1999/xlink"
   xmlns="http://www.w3.org/2000/svg"
   xmlns:svg="http://www.w3.org/2000/svg">
  <defs
     id="defs236">
    <linearGradient
       id="a">
      <stop
         offset="0"
         stop-color="#d5d3cf"
         id="stop207" />
      <stop
         offset="1"
         stop-color="#f6f5f4"
         id="stop209" />
    </linearGradient>
    <linearGradient
       id="b">
      <stop
         offset="0"
         stop-color="#d5d3cf"
         id="stop212" />
      <stop
         offset="1"
         stop-color="#949390"
         id="stop214" />
    </linearGradient>
    <linearGradient
       id="c">
      <stop
         offset="0"
         stop-color="#9a9996"
         id="stop217" />
      <stop
         offset="1"
         stop-color="#77767b"
         id="stop219" />
    </linearGradient>
    <linearGradient
       xlink:href="#d"
       id="e"
       x1="28"
       y1="-274"
       x2="116"
       y2="-274"
       gradientUnits="userSpaceOnUse"
       gradientTransform="translate(-136,172)" />
    <linearGradient
       id="d">
      <stop
         offset="0"
         stop-color="#c0bfbc"
         id="stop223"
         style="stop-color:#8c289a;stop-opacity:1;" />
      <stop
         offset="0.045"
         stop-color="#f6f5f4"
         id="stop225"
         style="stop-color:#c254d2;stop-opacity:1;" />
      <stop
         offset="0.091"
         stop-color="#deddda"
         id="stop227"
         style="stop-color:#8c289a;stop-opacity:1;" />
      <stop
         offset="0.90899998"
         stop-color="#deddda"
         id="stop229"
         style="stop-color:#8c289a;stop-opacity:1;" />
      <stop
         offset="0.95499998"
         stop-color="#f6f5f4"
         id="stop231"
         style="stop-color:#c254d2;stop-opacity:1;" />
      <stop
         offset="1"
         stop-color="#c0bfbc"
         id="stop233"
         style="stop-color:#8c289a;stop-opacity:1;" />
    </linearGradient>
    <linearGradient
       y2="72"
       x2="340"
       y1="76"
       x1="344"
       gradientTransform="matrix(0.25,0,0,0.25,180,83)"
       gradientUnits="userSpaceOnUse"
       id="linearGradient1574"
       xlink:href="#linearGradient1351-3" />
    <linearGradient
       id="linearGradient1351-3">
      <stop
         id="stop1347"
         offset="0"
         style="stop-color:#d5d3cf;stop-opacity:1" />
      <stop
         id="stop1349-6"
         offset="1"
         style="stop-color:#ffffff;stop-opacity:1" />
    </linearGradient>
    <clipPath
       id="clipPath1609"
       clipPathUnits="userSpaceOnUse">
      <path
         style="fill:#e74747;stroke:none;stroke-width:0.25px;stroke-linecap:butt;stroke-linejoin:miter;stroke-opacity:1"
         d="m 252,116 28,-28 v -8 h -36 v 36 z"
         id="path1611" />
    </clipPath>
    <linearGradient
       id="a-5"
       gradientUnits="userSpaceOnUse"
       x1="117.00134"
       x2="12.00134"
       xlink:href="#b-6"
       y1="128"
       y2="-0.082061999"
       gradientTransform="translate(1.483026,-11.321289)" />
    <linearGradient
       id="b-6">
      <stop
         offset="0"
         stop-color="#535353"
         id="stop20460" />
      <stop
         offset="1"
         stop-color="#7e7e7e"
         id="stop20462" />
    </linearGradient>
  </defs>
  <rect
     y="61"
     x="20"
     height="59"
     width="88"
     rx="8"
     fill="#deddda"
     id="rect238" />
  <rect
     ry="8"
     rx="8"
     y="-120"
     x="-108"
     height="40"
     width="88"
     style="fill:url(#e);marker:none"
     transform="scale(-1)"
     fill="url(#e)"
     id="rect240" />
  <rect
     width="88"
     height="104"
     x="20"
     y="8"
     rx="8"
     ry="8"
     fill="#f6f5f4"
     id="rect242"
     style="fill:#c254d2;fill-opacity:1" />
  <path
     d="M 108,108.654 A 7.468,7.468 0 0 1 100.508,116 h -0.5 v 1 h 0.5 a 8.488,8.488 0 0 0 7.463,-4.428 C 107.984,112.382 108,112.193 108,112 Z M 66,116 l 34,1 v -1 z"
     fill="#c0bfbc"
     fill-opacity="0.272"
     id="path272" />
  <g
     id="g7083"
     transform="matrix(4,0,0,4,21.000006,-8299)" />
  <g
     style="stroke-width:2.62472"
     transform="matrix(0.0952482,0,0,0.0952482,703.75966,-132.2908)"
     id="g7643" />
  <g
     id="g7629"
     transform="matrix(0.2156013,0,0,0.2156013,8.1772423,49.661969)"
     style="stroke-width:0.25" />
  <path
     style="display:inline;fill:#f6f5f4;fill-opacity:1;stroke:none;stroke-width:0.104911;stroke-linejoin:round;stroke-miterlimit:4;stroke-dasharray:none;stroke-opacity:1;enable-background:new"
     clip-path="none"
     d="m 31.360273,13 h 46.778224 l 25.214583,25.109661 9.8e-4,62.157509 c 5e-5,3.71971 -3.03167,6.73283 -6.7514,6.73283 H 31.360231 c -3.719713,0 -6.714284,-2.99457 -6.714284,-6.71428 V 19.714285 C 24.645947,15.994571 27.640518,13 31.360231,13 Z"
     id="path7623" />
  <path
     style="display:inline;vector-effect:none;fill:#deddda;fill-opacity:1;stroke:none;stroke-width:0.104911;stroke-linecap:butt;stroke-linejoin:round;stroke-miterlimit:4;stroke-dasharray:none;stroke-dashoffset:0;stroke-opacity:1;enable-background:new"
     d="m 78.139482,13 v 18.464287 c 0,3.719714 3.030264,6.650037 6.749978,6.650037 l 18.4646,-0.0047 z"
     id="path7625" />
  <path
     style="opacity:1;fill:#a5a098;fill-opacity:1;stroke-width:5.59017"
     d="m 64.000004,51 c -7.8735,0 -14.57475,2.23257 -17.35875,5.35714 -0.25575,0.268 -0.4455,0.53543 -0.62925,0.80343 -0.183,0.2686 -0.31575,0.53543 -0.42525,0.804 -0.0375,0.08915 -0.05125,0.17495 -0.08788,0.23435 -0.0735,0.20875 -0.139188,0.3909 -0.175812,0.569194 -0.03625,0.268001 -0.07275,0.535431 -0.07275,0.803431 0,0.2682 0.02938,0.56886 0.102499,0.837029 0.03688,0.267451 0.153063,0.536141 0.263688,0.803541 0.109625,0.2682 0.24925,0.536145 0.3955,0.803545 0.18375,0.26855 0.41025,0.502285 0.62925,0.770285 2.85675,3.244 9.74175,5.35714 17.35875,5.35714 7.617,0 14.502,-2.11314 17.35875,-5.35714 0.219375,-0.2385 0.366437,-0.4497 0.512687,-0.65846 0.0375,-0.05945 0.08075,-0.08565 0.117251,-0.1451 0.109624,-0.1783 0.205187,-0.3909 0.278312,-0.56919 0.03688,-0.08915 0.109937,-0.17795 0.1465,-0.26785 0.07425,-0.14855 0.124563,-0.3194 0.161187,-0.468751 0.03688,-0.118849 0.06675,-0.242049 0.102501,-0.390649 0.03625,-0.2383 0.07275,-0.47655 0.07275,-0.71429 0,-0.2977 -0.03,-0.56171 -0.10275,-0.859425 -0.18225,-0.833715 -0.63,-1.610285 -1.2885,-2.354856 -2.784,-3.124574 -9.48525,-5.357144 -17.35875,-5.357144 z m -17.35875,17.142855 c -0.915,0.98286 -1.39125,2.05143 -1.39125,3.125715 0,4.58286 8.38575,8.30286 18.75,8.30286 10.36425,0 18.75,-3.72 18.75,-8.30286 0,-1.074285 -0.477,-2.142855 -1.39125,-3.125715 -2.85675,3.125715 -9.705,5.71429 -17.35875,5.71429 -7.65375,0 -14.502,-2.588575 -17.35875,-5.71429 z m 0,11.428575 c -0.915,0.982855 -1.39125,2.057145 -1.39125,3.125715 0,4.58857 8.38575,8.302855 18.75,8.302855 10.36425,0 18.75,-3.72 18.75,-8.302855 0,-1.06857 -0.47625,-2.14286 -1.39125,-3.125715 -2.85675,3.125715 -9.705,5.714284 -17.35875,5.714284 -7.65375,0 -14.502,-2.588569 -17.35875,-5.714284 z"
     id="path31120" />
</svg>
