<?xml version="1.0" encoding="UTF-8" standalone="no"?>
<svg
   width="128"
   height="128"
   version="1.0"
   id="svg276"
   xmlns:xlink="http://www.w3.org/1999/xlink"
   xmlns="http://www.w3.org/2000/svg"
   xmlns:svg="http://www.w3.org/2000/svg">
  <defs
     id="defs236">
    <linearGradient
       id="a">
      <stop
         offset="0"
         stop-color="#d5d3cf"
         id="stop207" />
      <stop
         offset="1"
         stop-color="#f6f5f4"
         id="stop209" />
    </linearGradient>
    <linearGradient
       id="b">
      <stop
         offset="0"
         stop-color="#d5d3cf"
         id="stop212" />
      <stop
         offset="1"
         stop-color="#949390"
         id="stop214" />
    </linearGradient>
    <linearGradient
       id="c">
      <stop
         offset="0"
         stop-color="#9a9996"
         id="stop217" />
      <stop
         offset="1"
         stop-color="#77767b"
         id="stop219" />
    </linearGradient>
    <linearGradient
       xlink:href="#d"
       id="e"
       x1="28"
       y1="-274"
       x2="116"
       y2="-274"
       gradientUnits="userSpaceOnUse"
       gradientTransform="translate(-136,172)" />
    <linearGradient
       id="d">
      <stop
         offset="0"
         stop-color="#c0bfbc"
         id="stop223"
         style="stop-color:#4a4a4a;stop-opacity:1;" />
      <stop
         offset="0.045"
         stop-color="#f6f5f4"
         id="stop225"
         style="stop-color:#7e7e7e;stop-opacity:1;" />
      <stop
         offset="0.091"
         stop-color="#deddda"
         id="stop227"
         style="stop-color:#4a4a4a;stop-opacity:1;" />
      <stop
         offset="0.90899998"
         stop-color="#deddda"
         id="stop229"
         style="stop-color:#4a4a4a;stop-opacity:1;" />
      <stop
         offset="0.95499998"
         stop-color="#f6f5f4"
         id="stop231"
         style="stop-color:#7e7e7e;stop-opacity:1;" />
      <stop
         offset="1"
         stop-color="#c0bfbc"
         id="stop233"
         style="stop-color:#4a4a4a;stop-opacity:1;" />
    </linearGradient>
    <linearGradient
       y2="72"
       x2="340"
       y1="76"
       x1="344"
       gradientTransform="matrix(0.25,0,0,0.25,180,83)"
       gradientUnits="userSpaceOnUse"
       id="linearGradient1574"
       xlink:href="#linearGradient1351-3" />
    <linearGradient
       id="linearGradient1351-3">
      <stop
         id="stop1347"
         offset="0"
         style="stop-color:#d5d3cf;stop-opacity:1" />
      <stop
         id="stop1349-6"
         offset="1"
         style="stop-color:#ffffff;stop-opacity:1" />
    </linearGradient>
    <clipPath
       id="clipPath1609"
       clipPathUnits="userSpaceOnUse">
      <path
         style="fill:#e74747;stroke:none;stroke-width:0.25px;stroke-linecap:butt;stroke-linejoin:miter;stroke-opacity:1"
         d="m 252,116 28,-28 v -8 h -36 v 36 z"
         id="path1611" />
    </clipPath>
    <linearGradient
       id="a-5"
       gradientUnits="userSpaceOnUse"
       x1="117.00134"
       x2="12.00134"
       xlink:href="#b-6"
       y1="128"
       y2="-0.082061999"
       gradientTransform="translate(1.483026,-11.321289)" />
    <linearGradient
       id="b-6">
      <stop
         offset="0"
         stop-color="#535353"
         id="stop20460" />
      <stop
         offset="1"
         stop-color="#7e7e7e"
         id="stop20462" />
    </linearGradient>
  </defs>
  <rect
     y="61"
     x="20"
     height="59"
     width="88"
     rx="8"
     fill="#deddda"
     id="rect238" />
  <rect
     ry="8"
     rx="8"
     y="-120"
     x="-108"
     height="40"
     width="88"
     style="fill:url(#e);marker:none"
     transform="scale(-1)"
     fill="url(#e)"
     id="rect240" />
  <rect
     width="88"
     height="104"
     x="20"
     y="8"
     rx="8"
     ry="8"
     fill="#f6f5f4"
     id="rect242"
     style="fill:#7e7e7e;fill-opacity:1" />
  <path
     d="M 108,108.654 A 7.468,7.468 0 0 1 100.508,116 h -0.5 v 1 h 0.5 a 8.488,8.488 0 0 0 7.463,-4.428 C 107.984,112.382 108,112.193 108,112 Z M 66,116 l 34,1 v -1 z"
     fill="#c0bfbc"
     fill-opacity="0.272"
     id="path272" />
  <g
     id="g7083"
     transform="matrix(4,0,0,4,21.000006,-8299)" />
  <g
     style="stroke-width:2.62472"
     transform="matrix(0.0952482,0,0,0.0952482,703.75966,-132.2908)"
     id="g7643" />
  <g
     id="g7629"
     transform="matrix(0.2156013,0,0,0.2156013,8.1772423,49.661969)"
     style="stroke-width:0.25" />
  <path
     style="display:inline;fill:#f6f5f4;fill-opacity:1;stroke:none;stroke-width:0.104911;stroke-linejoin:round;stroke-miterlimit:4;stroke-dasharray:none;stroke-opacity:1;enable-background:new"
     clip-path="none"
     d="m 31.360273,13 h 46.778224 l 25.214583,25.109661 9.8e-4,62.157509 c 5e-5,3.71971 -3.03167,6.73283 -6.7514,6.73283 H 31.360231 c -3.719713,0 -6.714284,-2.99457 -6.714284,-6.71428 V 19.714285 C 24.645947,15.994571 27.640518,13 31.360231,13 Z"
     id="path7623" />
  <path
     style="display:inline;vector-effect:none;fill:#deddda;fill-opacity:1;stroke:none;stroke-width:0.104911;stroke-linecap:butt;stroke-linejoin:round;stroke-miterlimit:4;stroke-dasharray:none;stroke-dashoffset:0;stroke-opacity:1;enable-background:new"
     d="m 78.139482,13 v 18.464287 c 0,3.719714 3.030264,6.650037 6.749978,6.650037 l 18.4646,-0.0047 z"
     id="path7625" />
  <path
     d="m 60.480471,45.670899 -10.63086,25.035156 -6.296865,-11.917969 -6.05274,2.232422 1.07618,3.634765 2.91601,-1.482421 7.490235,15.498047 h 1.77539 l 12.23047,-29 h 24.50976 v 2 h 3.00195 v -6 h -30.01757 z m 3.47071,11.007812 9.66992,10.726562 v 0.136719 l -9.98047,11.136719 h 4.96094 l 7.74219,-8.287109 h 0.15429 l 8.51172,8.287109 h 5.37305 L 79.427741,67.360352 v -0.136719 l 10.23242,-10.544922 h -4.96094 l -8.09765,7.650391 h -0.1543 l -7.12109,-7.650391 z m 8.42968,28.900391 c -0.71051,0 -1.18523,0.105306 -1.42773,0.316406 -0.23971,0.2083 -0.36143,0.627312 -0.36133,1.257812 v 1.027344 c -1e-4,0.428 -0.0754,0.724017 -0.22656,0.886717 -0.1512,0.1629 -0.42778,0.24414 -0.83008,0.24414 h -0.26562 v 0.61133 h 0.26562 c 0.3995,0 0.67497,0.0825 0.82617,0.24805 0.1542,0.1655 0.23037,0.46373 0.23047,0.89453 v 1.02344 c -1e-4,0.6306 0.12162,1.0506 0.36133,1.26172 0.2425,0.21119 0.71722,0.3164 1.42773,0.3164 h 0.2754 v -0.61523 h -0.30079 c -0.39951,0 -0.6606,-0.0609 -0.7832,-0.1836 -0.1198,-0.1227 -0.17969,-0.38887 -0.17969,-0.79687 v -1.06055 c 0,-0.4451 -0.063,-0.77005 -0.1914,-0.97265 -0.1284,-0.20261 -0.35127,-0.34293 -0.66797,-0.41993 0.3139,-0.0713 0.53371,-0.20755 0.66211,-0.41015 0.1309,-0.2026 0.19726,-0.52857 0.19726,-0.976566 v -1.060546 c 0,-0.4052 0.0598,-0.668316 0.17969,-0.791016 0.1226,-0.1254 0.3837,-0.189353 0.7832,-0.189453 h 0.30079 v -0.611328 z m 6.9668,0 v 0.611328 h 0.29102 c 0.40241,10e-5 0.66441,0.06385 0.78711,0.189453 0.123,0.1255 0.18359,0.388615 0.18359,0.791016 v 1.060546 c 0,0.447996 0.065,0.773966 0.19336,0.976566 0.1312,0.2026 0.35407,0.33915 0.66797,0.41015 -0.3167,0.077 -0.53957,0.21732 -0.66797,0.41993 -0.1286,0.20259 -0.19336,0.52755 -0.19336,0.97265 v 1.06055 c 0,0.4023 -0.0609,0.66551 -0.18359,0.79101 -0.1227,0.1253 -0.3847,0.18946 -0.78711,0.18946 h -0.29102 v 0.61523 h 0.26563 c 0.71041,0 1.18412,-0.1052 1.42382,-0.3164 0.23971,-0.21111 0.35938,-0.63112 0.35938,-1.26172 v -1.02344 c 0,-0.4308 0.0772,-0.72903 0.22851,-0.89453 0.154,-0.1652 0.43169,-0.24805 0.83399,-0.24805 h 0.27344 v -0.61133 h -0.27344 c -0.4023,0 -0.67998,-0.0815 -0.83399,-0.24414 -0.15089,-0.1627 -0.22851,-0.458717 -0.22851,-0.886717 V 87.15332 c 0,-0.6305 -0.11967,-1.049512 -0.35938,-1.257812 -0.2397,-0.2111 -0.71341,-0.316406 -1.42382,-0.316406 z m -14.76758,0.878906 v 1.361328 h -1.28125 v 0.613281 h 1.28125 v 2.601564 c 0,0.5792 0.12077,0.98781 0.36328,1.22461 0.2426,0.2368 0.65939,0.35547 1.25,0.35547 h 0.9629 v -0.63086 h -0.88672 c -0.33381,0 -0.56708,-0.0692 -0.70118,-0.20899 -0.1341,-0.1399 -0.20117,-0.38643 -0.20117,-0.74023 v -2.601564 h 1.78907 v -0.613281 h -1.78907 v -1.361328 z m -15.27734,1.119141 c -0.57641,0 -1.01898,0.125853 -1.33008,0.376953 -0.31101,0.2482 -0.4668,0.601144 -0.4668,1.060549 0,0.3624 0.1042,0.65013 0.3125,0.86133 0.20831,0.2082 0.53849,0.35631 0.99219,0.44531 l 0.29492,0.0586 0.0352,0.0117 c 0.699,0.1399 1.04883,0.39066 1.04883,0.75586 0,0.2539 -0.0959,0.4531 -0.28711,0.5957 -0.1912,0.1397 -0.4605,0.20899 -0.80859,0.20899 -0.23972,0 -0.49548,-0.0373 -0.76368,-0.11133 -0.2682,-0.0771 -0.54789,-0.1906 -0.84179,-0.3418 v 0.81446 c 0.3025,0.0998 0.58209,0.1717 0.84179,0.2207 0.2596,0.051 0.50919,0.0781 0.7461,0.0781 0.5992,0 1.06759,-0.13303 1.40429,-0.39843 0.3367,-0.2682 0.50391,-0.6396 0.50391,-1.11328 0,-0.35661 -0.10023,-0.64665 -0.30273,-0.86915 -0.1998,-0.2226 -0.49581,-0.36937 -0.88672,-0.44335 l -0.31641,-0.0606 c -0.52221,-0.0999 -0.84927,-0.203 -0.98047,-0.3086 -0.1309,-0.1056 -0.19726,-0.26451 -0.19726,-0.47851 0,-0.2368 0.0876,-0.413245 0.26171,-0.527345 0.17691,-0.1165 0.44419,-0.175781 0.80079,-0.175781 0.2369,0 0.46895,0.03361 0.69726,0.09961 0.2282,0.0656 0.45429,0.163622 0.67969,0.294922 v -0.769531 -0.002 c -0.2283,-0.0942 -0.46037,-0.164938 -0.69727,-0.210938 -0.23681,-0.049 -0.48343,-0.07227 -0.74023,-0.07227 z m 5.02148,0.01953 c -0.57641,0 -1.03031,0.223875 -1.36132,0.671875 -0.331,0.447997 -0.4961,1.068127 -0.4961,1.861327 0,0.7789 0.1651,1.39084 0.4961,1.83594 0.33381,0.4422 0.78781,0.66406 1.36132,0.66406 0.2882,0 0.54101,-0.0639 0.75782,-0.18945 0.2198,-0.1283 0.39308,-0.31008 0.52148,-0.54688 v 2.43555 h 0.79297 v -6.617188 h -0.79297 v 0.611328 c -0.1313,-0.2368 -0.30569,-0.416462 -0.52539,-0.539062 -0.21691,-0.1254 -0.46861,-0.1875 -0.75391,-0.1875 z m 6.6836,0.07617 c -0.3738,0 -0.69875,0.09084 -0.97266,0.273437 -0.2711,0.1797 -0.47231,0.439792 -0.60351,0.779305 v -0.937508 h -0.79102 v 4.792968 h 0.79102 v -2.38281 c 0,-0.582 0.13092,-1.02774 0.39062,-1.33594 0.25961,-0.308195 0.63419,-0.460937 1.125,-0.460937 0.2083,0 0.40022,0.02984 0.57422,0.08984 0.1741,0.06 0.34536,0.153852 0.51367,0.285157 v -0.802735 c -0.1541,-0.1028 -0.31607,-0.179516 -0.48437,-0.228516 -0.1684,-0.049 -0.34896,-0.07227 -0.54297,-0.07227 z m 12.70703,0.02148 1.7168,2.294922 -1.88477,2.5 h 0.91211 l 1.40039,-1.92188 1.40234,1.92188 h 0.91211 l -1.88281,-2.5 1.7168,-2.294922 h -0.88672 l -1.26172,1.734372 -1.27148,-1.734372 z m -19.26563,0.570313 c 0.3795,-10e-7 0.66538,0.156804 0.85938,0.470699 0.1973,0.311 0.29492,0.76915 0.29492,1.37695 0,0.6077 -0.098,1.06892 -0.29492,1.38282 -0.194,0.311 -0.47988,0.46679 -0.85938,0.46679 -0.3795,0 -0.66722,-0.15579 -0.86132,-0.46679 -0.1907,-0.311 -0.28711,-0.77222 -0.28711,-1.38282 0,-0.6107 0.096,-1.06986 0.28711,-1.38086 0.1941,-0.310989 0.48182,-0.466789 0.86132,-0.466789 z"
     fill="url(#a)"
     id="path20482"
     style="fill:#a5a098;fill-opacity:1" />
</svg>
