<?xml version="1.0" encoding="UTF-8" standalone="no"?>
<svg
   height="128px"
   viewBox="0 0 128 128"
   width="128px"
   version="1.1"
   id="svg97"
   xmlns:xlink="http://www.w3.org/1999/xlink"
   xmlns="http://www.w3.org/2000/svg"
   xmlns:svg="http://www.w3.org/2000/svg">
  <defs
     id="defs97">
    <linearGradient
       id="linearGradient104">
      <stop
         id="stop101"
         offset="0.0000000"
         style="stop-color:#d3e9ff;stop-opacity:1.0000000;" />
      <stop
         id="stop105"
         offset="0.22721474"
         style="stop-color:#89aed6;stop-opacity:1;" />
      <stop
         id="stop103"
         offset="0.93205273"
         style="stop-color:#4074ae;stop-opacity:1.0000000;" />
      <stop
         id="stop104"
         offset="1.0000000"
         style="stop-color:#36486c;stop-opacity:1.0000000;" />
    </linearGradient>
    <linearGradient
       id="linearGradient1529">
      <stop
         style="stop-color:#000000;stop-opacity:0.40000001;"
         offset="0"
         id="stop1517" />
      <stop
         style="stop-color:#ffffff;stop-opacity:0.60000002;"
         offset="0.07308788"
         id="stop1519" />
      <stop
         style="stop-color:#000000;stop-opacity:0.40000001;"
         offset="0.15055925"
         id="stop1521" />
      <stop
         style="stop-color:#000000;stop-opacity:0.40000001;"
         offset="0.85204166"
         id="stop1523" />
      <stop
         style="stop-color:#ffffff;stop-opacity:0.60000002;"
         offset="0.93005961"
         id="stop1525" />
      <stop
         style="stop-color:#000000;stop-opacity:0.40000001;"
         offset="1"
         id="stop1527" />
    </linearGradient>
    <linearGradient
       id="linearGradient4750">
      <stop
         id="stop4752"
         offset="0"
         style="stop-color:#ffffff;stop-opacity:1;" />
      <stop
         id="stop4758"
         offset="0.37931034"
         style="stop-color:#fefefe;stop-opacity:1.0000000;" />
      <stop
         id="stop4754"
         offset="1.0000000"
         style="stop-color:#1d1d1d;stop-opacity:1.0000000;" />
    </linearGradient>
    <radialGradient
       xlink:href="#linearGradient104"
       id="radialGradient101"
       cx="231.07744"
       cy="254.18614"
       fx="231.07744"
       fy="254.18614"
       r="51.515408"
       gradientUnits="userSpaceOnUse"
       gradientTransform="matrix(0.78746634,0,0,0.57445349,-158.40504,-53.166119)" />
    <radialGradient
       xlink:href="#linearGradient4750"
       id="radialGradient107"
       cx="239.87326"
       cy="261.31732"
       fx="239.87326"
       fy="261.31732"
       r="50.058945"
       gradientTransform="matrix(0.86901475,0,0,0.66854159,-182.96989,-78.34517)"
       gradientUnits="userSpaceOnUse" />
    <linearGradient
       xlink:href="#linearGradient1529"
       id="linearGradient1515-1"
       x1="-224.63828"
       y1="134.73721"
       x2="-116.63834"
       y2="134.73721"
       gradientUnits="userSpaceOnUse"
       gradientTransform="matrix(0.44444471,0,0,0.44444471,106.83929,38.116742)" />
    <linearGradient
       xlink:href="#linearGradient1571"
       id="linearGradient1573"
       x1="12"
       y1="66"
       x2="116"
       y2="66"
       gradientUnits="userSpaceOnUse" />
    <linearGradient
       id="linearGradient1571">
      <stop
         style="stop-color:#000000;stop-opacity:0.40000001;"
         offset="0"
         id="stop1567" />
      <stop
         style="stop-color:#e4e4e4;stop-opacity:1;"
         offset="0.03567462"
         id="stop1575" />
      <stop
         style="stop-color:#000000;stop-opacity:0.40000001;"
         offset="0.07302466"
         id="stop1577" />
      <stop
         style="stop-color:#000000;stop-opacity:0.40000001;"
         offset="0.92681795"
         id="stop1579" />
      <stop
         style="stop-color:#e4e4e4;stop-opacity:1;"
         offset="0.96064132"
         id="stop1581" />
      <stop
         style="stop-color:#000000;stop-opacity:0.40000001;"
         offset="1"
         id="stop1569" />
    </linearGradient>
  </defs>
  <filter
     id="a"
     height="1"
     width="1"
     x="0"
     y="0">
    <feColorMatrix
       in="SourceGraphic"
       type="matrix"
       values="0 0 0 0 1 0 0 0 0 1 0 0 0 0 1 0 0 0 1 0"
       id="feColorMatrix1" />
  </filter>
  <mask
     id="b">
    <g
       filter="url(#a)"
       id="g1">
      <rect
         fill-opacity="0.15"
         height="128"
         width="128"
         id="rect1" />
    </g>
  </mask>
  <linearGradient
     id="c"
     gradientUnits="userSpaceOnUse">
    <stop
       offset="0"
       id="stop1" />
    <stop
       offset="1"
       stop-opacity="0"
       id="stop2" />
  </linearGradient>
  <linearGradient
     id="d"
     gradientTransform="matrix(2.62503,0,0,1,-137.50276,-155.00003)"
     x1="84.000092"
     x2="92"
     xlink:href="#c"
     y1="229.999985"
     y2="229.999985" />
  <clipPath
     id="e">
    <rect
       height="152"
       width="192"
       id="rect2" />
  </clipPath>
  <linearGradient
     id="g"
     gradientTransform="matrix(0,-3.1744548,1.2093023,0,-214.13956,316.04984)"
     x1="84.000092"
     x2="92"
     xlink:href="#c"
     y1="229.999985"
     y2="229.999985" />
  <linearGradient
     id="i"
     gradientUnits="userSpaceOnUse"
     x1="100.000092"
     x2="108.000183"
     y1="63.899414"
     y2="63.899414"
     gradientTransform="rotate(-90,64,64)">
    <stop
       offset="0"
       stop-opacity="0"
       id="stop4" />
    <stop
       offset="1"
       stop-opacity="0.14902"
       id="stop5" />
  </linearGradient>
  <linearGradient
     id="j"
     gradientUnits="userSpaceOnUse"
     x1="19.999838"
     x2="32.000002"
     y1="57.937502"
     y2="57.937502"
     gradientTransform="rotate(-90,64,64)">
    <stop
       offset="0"
       stop-opacity="0.14902"
       id="stop6" />
    <stop
       offset="1"
       stop-opacity="0"
       id="stop7" />
  </linearGradient>
  <mask
     id="k">
    <g
       filter="url(#a)"
       id="g7">
      <rect
         fill-opacity="0.15"
         height="128"
         width="128"
         id="rect7" />
    </g>
  </mask>
  <clipPath
     id="l">
    <rect
       height="152"
       width="192"
       id="rect8" />
  </clipPath>
  <linearGradient
     id="m"
     gradientUnits="userSpaceOnUse"
     x1="20"
     x2="108"
     y1="60"
     y2="60"
     gradientTransform="translate(-213.26422,-34)">
    <stop
       offset="0"
       stop-color="#e66100"
       id="stop8" />
    <stop
       offset="0.113636"
       stop-color="#ffa348"
       id="stop9" />
    <stop
       offset="0.227274"
       stop-color="#ff7800"
       id="stop10" />
    <stop
       offset="0.772727"
       stop-color="#ff7800"
       id="stop11" />
    <stop
       offset="0.886364"
       stop-color="#ffa348"
       id="stop12" />
    <stop
       offset="1"
       stop-color="#c64600"
       id="stop13" />
  </linearGradient>
  <rect
     style="display:inline;fill:#c0bfbc;fill-opacity:1;stroke:none;stroke-width:0.25;stroke-linecap:butt;stroke-linejoin:miter;stroke-miterlimit:4;stroke-dasharray:none;stroke-dashoffset:0;stroke-opacity:1;marker:none;marker-start:none;marker-mid:none;marker-end:none;paint-order:normal;enable-background:new"
     id="rect1711-2"
     width="104"
     height="100"
     x="12"
     y="16"
     rx="8"
     ry="8" />
  <path
     d="m 49.81818,116 v -4 h 28.36363 v 4 z m 0,0"
     id="path81-8"
     style="fill:#deddda;stroke-width:1.18182" />
  <path
     id="path92"
     style="fill:#deddda;fill-opacity:1;stroke:none;stroke-width:1.18182"
     d="m 111.27344,111.29883 c -0.0521,0.0233 -0.10157,0.052 -0.1543,0.0742 -0.23944,0.10093 -0.48357,0.18989 -0.73437,0.26757 -0.25081,0.0777 -0.50672,0.14416 -0.76758,0.19727 -0.26086,0.0531 -0.52729,0.0939 -0.79688,0.12109 C 108.55072,111.9862 108.277,112 108,112 h 3.27344 z M 82.9082,116 H 108 c 0.277,0 0.55072,-0.0116 0.82031,-0.0347 0.26959,-0.023 0.53602,-0.0575 0.79688,-0.10249 0.26086,-0.0449 0.50435,-0.15196 0.75516,-0.21769 0.2508,-0.0658 0.47828,-0.17402 0.71772,-0.25943 0.0527,-0.0188 0.10778,-0.049 0.15992,-0.0687 L 111.27344,112 H 82.9082 Z" />
  <path
     id="path92-9"
     style="fill:#deddda;fill-opacity:1;stroke:none;stroke-width:1.18182"
     d="m 16.72647,111.29883 c 0.0521,0.0233 0.10157,0.052 0.1543,0.0742 0.23944,0.10093 0.48357,0.18989 0.73437,0.26757 0.25081,0.0777 0.50672,0.14416 0.76758,0.19727 0.26086,0.0531 0.52729,0.0939 0.79688,0.12109 0.26959,0.0272 0.54331,0.041 0.82031,0.041 H 16.72647 Z M 45.09171,116 h -25.0918 c -0.277,0 -0.55072,-0.0116 -0.82031,-0.0347 -0.26959,-0.023 -0.53602,-0.0575 -0.79688,-0.10249 -0.26086,-0.0449 -0.50435,-0.15196 -0.75516,-0.21769 -0.2508,-0.0658 -0.47828,-0.17402 -0.71772,-0.25943 -0.0527,-0.0188 -0.10778,-0.049 -0.15992,-0.0687 L 16.72652,112 h 28.36519 z" />
  <rect
     style="display:inline;fill:url(#linearGradient1573);fill-opacity:1;stroke:none;stroke-width:0.25;stroke-linecap:butt;stroke-linejoin:miter;stroke-miterlimit:4;stroke-dasharray:none;stroke-dashoffset:0;stroke-opacity:1;marker:none;marker-start:none;marker-mid:none;marker-end:none;paint-order:normal;enable-background:new"
     id="rect1711-5"
     width="104"
     height="100"
     x="12"
     y="16"
     rx="8"
     ry="8" />
  <rect
     style="display:inline;fill:#ffffff;fill-opacity:1;stroke:none;stroke-width:0.25;stroke-linecap:butt;stroke-linejoin:miter;stroke-miterlimit:4;stroke-dasharray:none;stroke-dashoffset:0;stroke-opacity:1;marker:none;marker-start:none;marker-mid:none;marker-end:none;paint-order:normal;enable-background:new"
     id="rect1711"
     width="104"
     height="100"
     x="12"
     y="12"
     rx="8"
     ry="8" />
  <g
     clip-path="url(#e)"
     mask="url(#b)"
     transform="matrix(0,-1.2093023,1.2093023,0,-26.69767,164.60464)"
     id="g17">
    <path
       d="m 83,32 h 21 v 86 H 83 Z m 0,0"
       fill="url(#d)"
       id="path17"
       style="fill:url(#d)" />
  </g>
  <path
     d="M 49.81818,18 H 78.84144 V 32.459664 H 49.81818 Z m 0,0"
     fill="#deddda"
     id="path44"
     style="stroke-width:1.2093" />
  <path
     id="path56"
     style="fill:#deddda;fill-opacity:1;stroke-width:1.2093"
     d="m 16.72727,18 v 7.255814 H 36.0761 V 18 Z m 0,0 m 0,4.83721 v 7.255813 H 45.75052 V 22.83721 Z m 0,0" />
  <path
     id="path57"
     style="fill:#deddda;fill-opacity:1;stroke-width:1.2093"
     d="m 82.90909,18 v 21.701172 h 29.02344 v -12.09375 h -4.83789 v -4.835937 h 4.83789 V 18 Z" />
  <path
     d="M 12,49.395348 V 24 h 104 v 25.395348 z m 0,0"
     fill="url(#g)"
     id="path63"
     style="fill:url(#g);stroke-width:1.2093"
     mask="none"
     clip-path="none" />
  <rect
     style="display:inline;fill:#ffffff;fill-opacity:1;stroke:none;stroke-width:0.25;stroke-linecap:butt;stroke-linejoin:miter;stroke-miterlimit:4;stroke-dasharray:none;stroke-dashoffset:0;stroke-opacity:1;marker:none;marker-start:none;marker-mid:none;marker-end:none;paint-order:normal;enable-background:new"
     id="rect1711-9"
     width="104"
     height="84"
     x="12"
     y="28"
     rx="8"
     ry="8" />
  <path
     d="m 21.45454,47.0909 h 9.45455 v -2.36363 h -9.45455 z m 0,0"
     fill="#deddda"
     id="path76"
     style="stroke-width:1.18182" />
  <path
     d="m 97.09091,47.0909 h 9.45454 v -2.36363 h -9.45454 z m 0,0"
     id="path86"
     style="fill:#deddda;stroke-width:1.18182" />
  <path
     d="m 36.20419,49.454538 h 3.21307 v -8.725139 h 0.11073 l 5.04125,8.725139 h 3.15305 V 35.272719 h -3.20844 v 8.72514 h -0.11074 l -5.01356,-8.72514 h -3.18536 z m 13.60014,0 h 9.46839 V 46.795447 H 53.0174 v -3.102273 h 5.28587 V 41.034083 H 53.0174 V 37.93181 h 6.25532 V 35.272719 H 49.80433 Z M 61.10546,35.272719 64.7017,49.454538 h 3.27308 l 2.34979,-8.891339 h 0.11073 l 2.35447,8.891339 h 3.26385 l 3.60085,-14.181819 h -2.90838 l -2.37748,9.556111 h -0.11074 l -2.46526,-9.556111 h -2.82528 l -2.4652,9.52841 H 66.396 l -2.38215,-9.52841 z m 19.86009,9.583813 c 0,3.351554 2.76989,4.787286 5.59517,4.787286 3.07458,0 5.23509,-1.491124 5.23509,-4.177917 0,-2.299002 -1.57884,-3.462361 -4.23793,-4.404116 L 87.1701,40.895586 c -1.52344,-0.553977 -2.65909,-0.914066 -2.65909,-1.800429 0,-0.798649 0.88636,-1.329546 2.13281,-1.329546 1.38494,0 2.04971,0.664773 2.10512,1.717336 h 3.04687 c 0,-2.686793 -2.10512,-4.399508 -5.15199,-4.399508 -3.04688,0 -5.26279,1.60654 -5.26279,3.988637 0,2.100504 1.74503,3.457752 4.09943,4.177916 l 0.277,0.08308 c 2.18821,0.692475 2.93607,1.301844 2.93607,2.160517 0,0.747867 -0.63707,1.491112 -2.13281,1.491112 -1.49574,0 -2.4375,-0.743245 -2.49289,-2.128194 z m 0,0"
     fill="#9a9996"
     id="path72"
     style="stroke-width:1.18182" />
  <path
     d="m 82.90909,84.90908 h 28.365 V 54.181811 h -28.365 z m 0,0"
     fill="#c0bfbc"
     id="path73"
     style="stroke-width:1.18182" />
  <path
     id="path77"
     style="fill:#deddda;fill-opacity:1;stroke-width:1.18182"
     d="m 21.45454,47.090901 h 9.45455 v -7.090909 h -9.45455 z m 0,0 M 19.0909,42.363629 h 14.18182 v -7.09091 H 19.0909 Z m 0,0" />
  <path
     d="M 16.727269,89.63636 H 45.092268 V 68.363629 H 16.727269 Z m 0,0"
     fill="#c0bfbc"
     id="path78"
     style="stroke-width:1.18182" />
  <path
     id="path80"
     style="fill:#deddda;stroke-width:1.18182"
     d="m 49.81818,80.18181 v -4.727272 h 11.818751 v 4.727272 z m 0,0 m 0,-4.727272 V 54.181811 h 28.365 v 21.272727 z m 0,0" />
  <path
     d="m 49.81818,91.99999 v -9.45454 h 28.365 v 9.45454 z m 0,0"
     id="path81"
     style="fill:#deddda;stroke-width:1.18182" />
  <path
     id="path87"
     style="fill:#deddda;stroke-width:1.18182"
     d="m 97.09091,47.090901 h 9.45454 v -7.090909 h -9.45454 z m 0,0 m -2.36364,-4.727272 h 14.18182 v -7.09091 H 94.72727 Z m 0,0" />
  <path
     id="path89"
     style="fill:#deddda;stroke-width:1.18182"
     d="m 16.727269,65.999993 v -7.09091 h 18.909996 v 7.09091 z m 0,0 m 0,-4.727273 v -7.090909 h 28.364999 v 7.090909 z m 0,0" />
  <path
     id="path123"
     style="fill:#deddda;fill-opacity:1;stroke:none;stroke-width:1.18182"
     d="M 82.9082,112 H 108 c 0.277,0 0.55072,-0.0138 0.82031,-0.041 0.26959,-0.0272 0.53602,-0.068 0.79688,-0.12109 0.26086,-0.0531 0.51677,-0.11958 0.76758,-0.19727 0.2508,-0.0777 0.49493,-0.16664 0.73437,-0.26757 0.0527,-0.0222 0.10216,-0.0509 0.1543,-0.0742 v -4.02539 H 82.9082 Z" />
  <path
     id="path57-3"
     style="fill:#deddda;fill-opacity:1;stroke-width:1.2093"
     d="M 111.27344,102.15228 V 87.27348 H 82.9082 v 8.291739 h 4.728175 v 3.31563 H 82.9082 v 3.271431 z" />
  <path
     d="M 16.727269,112 H 45.092268 V 92.614659 H 16.727269 Z m 0,0"
     fill="#c0bfbc"
     id="path78-5"
     style="stroke-width:1.18182" />
  <path
     d="m 49.81818,112 h 28.365 V 94.867935 h -28.365 z m 0,0"
     fill="#c0bfbc"
     id="path78-5-5"
     style="stroke-width:1.18182" />
  <circle
     style="fill:#4d7eb5;fill-opacity:1;stroke-width:1.19999"
     cx="30.999998"
     cy="98.000008"
     r="23.999996"
     id="circle250-6" />
  <path
     style="fill:#cacaca;fill-opacity:1;stroke-width:1.19999"
     d="m 20.65015,76.361754 a 23.999999,23.999999 0 0 0 -1.878,1.00776 h 0.246 l 0.12481,0.4008 -0.354,0.33048 1.51199,0.04223 0.2316,0.546128 -1.7016,-0.06338 -0.084,-0.419519 -0.99119,-0.215641 a 23.999999,23.999999 0 0 0 -1.01521,0.726601 h 0.5928 v 0.396112 l -0.2604,0.346808 h -1.242 v -0.05145 a 23.999999,23.999999 0 0 0 -7.48571,10.71144 l 0.13116,0.0624 v 2.003999 l 1.00547,1.723201 0.82032,0.126 0.10548,-0.5904 -0.96791,-1.492808 -0.18757,-1.4532 h 0.56484 l 0.23905,1.4952 1.39691,2.041208 -0.35856,0.6588 0.88825,1.362 2.20547,0.548392 v -0.358793 l 0.88081,0.126001 -0.0816,0.6312 0.69121,0.126 1.07159,0.2928 1.512,1.727992 1.9332,0.145208 0.1872,1.579197 -1.3212,0.9264 -0.0612,1.4112 -0.1896,0.8616 1.9116,2.4 0.1452,0.8208 c 0,0 0.6936,0.1896 0.7788,0.1896 0.084,0 1.554,1.116 1.554,1.116 v 4.33561 l 0.5244,0.14759 -0.3564,1.99921 0.882,1.1796 -0.162,1.9824 1.1652,2.0532 1.4856,1.2984 a 23.999999,23.999999 0 0 0 0.0792,0.0143 l 1.4376,0.0252 0.1452,-0.48481 -1.104,-0.93239 0.0636,-0.4644 0.1968,-0.5676 0.042,-0.5784 -0.74759,-0.024 -0.37801,-0.4728 0.62161,-0.59999 0.084,-0.45001 -0.69359,-0.1992 0.042,-0.42 0.98639,-0.15 1.5024,-0.72359 0.504,-0.92641 1.5756,-2.0196 -0.3564,-1.58041 0.4824,-0.84119 1.4484,0.0444 0.97561,-0.77521 0.31679,-3.04919 1.08,-1.37641 0.18962,-0.8856 -0.98642,-0.31679 -0.6516,-1.06921 -2.2272,-0.0228 -1.764,-0.67558 -0.0828,-1.26002 -0.5904,-1.031997 -1.59599,-0.0228 -0.92041,-1.4508 -0.82079,-0.400793 -0.042,0.4404 -1.49039,0.08879 -0.5472,-0.761993 -1.55281,-0.3156 -1.2828,1.483193 -2.0148,-0.341993 -0.1488,-2.2788 -1.4712,-0.2508 0.5904,-1.1172 -0.1692,-0.642 -1.9332,1.296 -1.21681,-0.1476 -0.43308,-0.954007 0.26484,-0.982793 0.66985,-1.2372 1.5456,-0.782407 2.9808,-0.0022 -0.007,0.912 1.07161,0.4992 -0.0852,-1.5564 0.77159,-0.7812 1.55881,-1.0236 0.10799,-0.7224 1.55399,-1.6212 1.65121,-0.9168 -0.1452,-0.1212 1.1184,-1.0548 0.41039,0.1068 0.18961,0.2376 0.42479,-0.474 0.10201,-0.0444 -0.46321,-0.066 -0.47399,-0.1584 v -0.4548 l 0.25079,-0.204 h 0.5508 l 0.2532,0.1104 0.21841,0.4428 0.2688,-0.0396 v -0.0408 l 0.0756,0.0264 0.77519,-0.1176 0.1104,-0.379208 0.4404,0.110408 v 0.411592 l -0.408,0.282008 0.0612,0.45 1.4016,0.4332 c 0,0 0.002,0.0075 0.005,0.0192 l 0.32401,-0.0288 0.0204,-0.6096 -1.1124,-0.5076 -0.0636,-0.2916 0.9228,-0.3156 0.0408,-0.8868 -0.9636,-0.588 -0.0636,-1.4928 -1.32361,0.6516 h -0.48359 l 0.1272,-1.136753 -1.80001,-0.426607 -0.74519,0.56496 v 1.7208 l -1.3416,0.426 -0.5364,1.1232 -0.58319,0.0936 v -1.437593 l -1.25881,-0.1728 -0.63,-0.410393 -0.2532,-0.930367 2.2524,-1.32192 1.1016,-0.33516 0.1116,0.74064 0.6144,-0.03045 0.0468,-0.3726 0.64199,-0.09372 0.012,-0.129 -0.276,-0.11484 -0.0636,-0.396 0.7896,-0.06562 0.4752,-0.4992 0.0264,-0.03517 0.007,0.0022 0.1452,-0.15 1.6596,-0.21096 0.7332,0.6258 -1.92361,1.026607 2.44921,0.57888 0.3156,-0.820327 h 1.0716 l 0.37679,-0.71484 -0.75478,-0.18984 v -0.904673 l -2.3736,-1.05468 -1.638,0.18984 -0.92401,0.485161 0.0636,1.178872 -0.96839,-0.1476 -0.1476,-0.651593 0.9264,-0.843727 -1.6812,-0.08207 -0.4824,0.14532 -0.2088,0.56724 0.6276,0.107759 -0.1236,0.630473 -1.0716,0.06323 -0.1656,0.41964 -1.55401,0.04455 c 0,0 -0.0432,-0.88368 -0.10559,-0.88368 -0.0624,1.2e-4 1.21679,-0.021 1.21679,-0.021 l 0.92521,-0.907072 -0.50401,-0.253081 -0.672,0.65388 -1.11358,-0.06338 z m 26.0172,3.48048 -0.7632,0.3 -0.4908,0.53436 0.1128,0.62352 0.6024,0.084 0.3612,0.9096 1.038,-0.42 0.1716,1.2144 h -0.312 l -0.8532,-0.126 -0.9444,0.159593 -0.9144,1.293607 -1.308,0.2064 -0.1896,1.122 0.5532,0.1284 -0.1596,0.7224 -1.2984,-0.2604 -1.1904,0.2604 -0.2532,0.6636 0.2064,1.3944 0.6984,0.3276 1.1724,-0.0075 0.792,-0.0696 0.2412,-0.632408 1.2372,-1.6104 0.816,0.1656 0.8016,-0.726 0.15,0.5676 1.9728,1.335608 -0.2412,0.322792 -0.8904,-0.0468 0.342,0.486 0.5484,0.1188 0.6396,-0.266399 -0.0132,-0.774001 0.2856,-0.142799 -0.2292,-0.2436 -1.3176,-0.735601 -0.3444,-0.978 h 1.0944 l 0.3492,0.3468 0.942,0.816 0.0396,0.984001 0.978,1.040407 0.3624,-1.4268 0.6756,-0.370808 0.126,1.167608 0.6612,0.725992 0.3072,-0.0045 a 23.999999,23.999999 0 0 0 -3.5628,-6.076815 l -1.5912,-0.0144 -0.108,-0.360007 0.9468,-0.483593 a 23.999999,23.999999 0 0 0 -2.25,-2.24508 z m -29.3544,0.2484 c 0.0468,0 0,0.5508 0,0.5508 l -1.24559,0.07968 -0.23642,-0.28356 0.882,-0.2532 c 0,0 0.55201,-0.09372 0.60001,-0.09372 z m 1.5132,2.68308 0.59761,0.144 -0.20641,0.804 -0.6468,0.2052 -0.408,-0.8388 z m 1.638,1.908 h 0.9924 v 0.3024 h 0.2172 v 0.5208 h -1.5108 l -0.5652,-0.1572 0.1404,-0.3636 z m 1.4796,0.2232 0.51961,0.4728 -0.51961,0.1272 z m 1.1436,0.726 0.38401,0.2412 -0.30841,0.2556 -0.3048,-0.2556 z m -2.90641,0.0804 h 0.834 l -1.07039,1.4976 -0.4404,-0.2376 0.0936,-0.63 z m 1.34041,0 h 0.8484 v 0.504 l -0.3768,0.2436 -0.4716,0.0888 z m 1.0548,0.5532 h 0.0636 l 0.9612,0.2832 v 0.4896 h -0.804 l -0.2208,-0.318 z m -0.396,0.4548 v 0.492 l -0.3612,0.3624 h -0.80401 l 0.12721,-0.5508 0.37921,-0.0324 0.078,-0.1896 z m 24.984,2.0856 -2.8356,0.2196 -0.8784,0.474 h -1.1256 l -0.55321,-0.0564 -1.36559,0.762 v 1.431593 l -2.796,2.020807 0.2316,0.8628 h 0.5676 l -0.1476,0.8196 -0.3984,0.1476 -0.024,2.1468 2.4168,2.756396 h 1.05 l 0.0648,-0.1668 h 1.88999 l 0.5436,-0.505196 h 1.0728 l 0.5856,0.590396 1.5996,0.1656 -0.2112,2.1288 1.7712,3.1356 -0.9324,1.788 0.0636,0.8424 0.7332,0.7356 v 2.0244 l 0.966,1.3008 v 0.8868 a 23.999999,23.999999 0 0 0 5.53559,-15.319203 23.999999,23.999999 0 0 0 -1.01999,-6.855593 h -1.19281 l -1.22759,-0.9168 -1.2912,0.1272 v 0.7896 h -0.41041 l -0.44039,-0.316807 -2.2416,-0.568793 z"
     id="path254-6" />
  <circle
     style="fill:url(#linearGradient1515-1);fill-opacity:1;stroke-width:1.19999"
     cx="30.999998"
     cy="98.000008"
     r="24"
     id="circle250-3-7" />
  <circle
     style="fill:url(#radialGradient101);fill-opacity:1;stroke-width:1.19999"
     cx="30.999998"
     cy="96"
     r="24"
     id="circle250" />
  <path
     style="fill:url(#radialGradient107);fill-opacity:1;stroke-width:1.19999"
     d="m 20.66199,74.364841 a 24,24 0 0 0 -1.878,1.00776 h 0.246 l 0.1248,0.4008 -0.35399,0.33048 1.512,0.04223 0.23159,0.54612 -1.7016,-0.06338 -0.084,-0.41952 -0.99119,-0.21564 a 24,24 0 0 0 -1.01521,0.7266 h 0.5928 v 0.39612 l -0.2604,0.346801 h -1.242 v -0.05145 A 24,24 0 0 0 8.35707,88.123203 l 0.13117,0.0624 v 2.003993 l 1.00547,1.723207 0.82032,0.126 0.10548,-0.5904 -0.96791,-1.4928 -0.18757,-1.4532 h 0.56484 l 0.23904,1.4952 1.39692,2.0412 -0.35856,0.658793 0.88824,1.362 2.20548,0.548408 v -0.3588 l 0.8808,0.126 -0.0816,0.6312 0.6912,0.126 1.07161,0.2928 1.512,1.728 1.9332,0.1452 0.18719,1.579193 -1.3212,0.926407 -0.0612,1.411196 -0.1896,0.8616 1.9116,2.4 0.1452,0.8208 c 0,0 0.69361,0.1896 0.77881,0.1896 0.084,0 1.55399,1.116 1.55399,1.116 v 4.33561 l 0.52441,0.14759 -0.3564,1.99921 0.882,1.1796 -0.162,1.9824 1.1652,2.0532 1.4856,1.2984 a 24,24 0 0 0 0.0792,0.0143 l 1.4376,0.0252 0.1452,-0.48481 -1.10401,-0.93239 0.0636,-0.4644 0.1968,-0.5676 0.042,-0.5784 -0.74759,-0.024 -0.37801,-0.47279 0.62161,-0.6 0.084,-0.45 -0.69359,-0.1992 0.042,-0.42 0.9864,-0.15 1.5024,-0.7236 0.504,-0.9264 1.5756,-2.0196 -0.3564,-1.58041 0.4824,-0.84119 1.4484,0.0444 0.9756,-0.77521 0.3168,-3.04919 1.07999,-1.3764 0.18961,-0.88561 -0.9864,-0.3168 -0.6516,-1.0692 -2.2272,-0.0228 -1.764,-0.67559 -0.0828,-1.260008 -0.5904,-1.032008 -1.596,-0.0228 -0.9204,-1.4508 -0.8208,-0.4008 -0.042,0.4404 -1.4904,0.0888 -0.5472,-0.762 -1.5528,-0.315593 -1.28281,1.483193 -2.01479,-0.342 -0.1488,-2.2788 -1.4712,-0.2508 0.5904,-1.117201 -0.1692,-0.642 -1.9332,1.296 -1.21681,-0.1476 -0.43308,-0.953992 0.26484,-0.982808 0.66984,-1.2372 1.54561,-0.782393 2.9808,-0.0022 -0.007,0.912001 1.07161,0.4992 -0.0852,-1.556401 0.77159,-0.7812 1.55881,-1.0236 0.10799,-0.7224 1.554,-1.6212 1.6512,-0.9168 -0.14519,-0.1212 1.1184,-1.0548 0.41039,0.1068 0.18961,0.2376 0.42479,-0.474 0.10201,-0.0444 -0.46321,-0.066 -0.47399,-0.1584 v -0.4548 l 0.25079,-0.204 h 0.5508 l 0.2532,0.1104 0.2184,0.4428 0.2688,-0.0396 v -0.0408 l 0.0756,0.0264 0.7752,-0.1176 0.1104,-0.3792 0.4404,0.1104 v 0.4116 l -0.408,0.282 0.0612,0.45 1.4016,0.4332 c 0,0 0.002,0.0075 0.005,0.0192 l 0.32402,-0.0288 0.0204,-0.6096 -1.11241,-0.5076 -0.0636,-0.2916 0.9228,-0.3156 0.0408,-0.886801 -0.96361,-0.588 -0.0636,-1.4928 -1.32359,0.6516 h -0.4836 l 0.1272,-1.13676 -1.80001,-0.4266 -0.74519,0.56496 v 1.7208 l -1.3416,0.426 -0.5364,1.123201 -0.58319,0.0936 v -1.437601 l -1.25881,-0.1728 -0.63,-0.4104 -0.2532,-0.93036 2.2524,-1.32192 1.1016,-0.33516 0.1116,0.74064 0.6144,-0.03045 0.0468,-0.372592 0.64199,-0.09373 0.012,-0.129 -0.276,-0.11484 -0.0636,-0.396 0.78961,-0.06563 0.4752,-0.4992 0.0264,-0.03518 0.007,0.0022 0.14519,-0.15 1.65961,-0.21096 0.73319,0.6258 -1.9236,1.0266 2.4492,0.57888 0.3156,-0.82032 h 1.0716 l 0.3768,-0.71484 -0.7548,-0.18984 v -0.90468 l -2.3736,-1.05468 -1.638,0.18984 -0.924,0.48516 0.0636,1.17888 -0.9684,-0.1476 -0.1476,-0.6516 0.92641,-0.84372 -1.6812,-0.08208 -0.48241,0.14532 -0.2088,0.56724 0.62761,0.10776 -0.1236,0.63048 -1.07161,0.06322 -0.16559,0.41964 -1.55401,0.04455 c 0,0 -0.0432,-0.88368 -0.1056,-0.88368 -0.0624,1.2e-4 1.2168,-0.021 1.2168,-0.021 l 0.9252,-0.90708 -0.504,-0.25308 -0.672,0.65388 -1.11358,-0.06338 z m 26.0172,3.480481 -0.7632,0.3 -0.4908,0.53436 0.11281,0.62352 0.6024,0.084 0.3612,0.9096 1.038,-0.42 0.1716,1.2144 h -0.312 l -0.85321,-0.126 -0.94439,0.1596 -0.91441,1.2936 -1.308,0.2064 -0.18959,1.122 0.5532,0.1284 -0.1596,0.7224 -1.2984,-0.2604 -1.1904,0.2604 -0.2532,0.6636 0.2064,1.394401 0.6984,0.3276 1.1724,-0.0075 0.792,-0.0696 0.2412,-0.6324 1.2372,-1.610401 0.816,0.1656 0.80159,-0.726 0.15001,0.5676 1.97279,1.335601 -0.2412,0.322807 -0.89039,-0.0468 0.342,0.486 0.54839,0.1188 0.63961,-0.2664 -0.0132,-0.774 0.2856,-0.1428 -0.2292,-0.2436 -1.31761,-0.7356 -0.34439,-0.978 h 1.0944 l 0.3492,0.346807 0.942,0.815993 0.0396,0.984 0.978,1.0404 0.36239,-1.4268 0.6756,-0.3708 0.12601,1.167608 0.6612,0.725992 0.30719,-0.0045 a 24,24 0 0 0 -3.56281,-6.076831 l -1.5912,-0.0144 -0.108,-0.36 0.9468,-0.4836 a 24,24 0 0 0 -2.25,-2.24508 z m -29.35439,0.2484 c 0.0468,0 0,0.5508 0,0.5508 l -1.2456,0.07968 -0.23641,-0.28356 0.882,-0.2532 c 0,0 0.552,-0.09372 0.60001,-0.09372 z m 1.51319,2.68308 0.59761,0.144 -0.20641,0.804 -0.6468,0.2052 -0.408,-0.8388 z m 1.638,1.908 h 0.9924 v 0.3024 h 0.21721 v 0.5208 h -1.51081 l -0.56519,-0.1572 0.14039,-0.3636 z m 1.47961,0.2232 0.5196,0.4728 -0.5196,0.1272 z m 1.1436,0.726 0.384,0.2412 -0.3084,0.2556 -0.3048,-0.2556 z m -2.90641,0.0804 h 0.834 l -1.0704,1.4976 -0.4404,-0.2376 0.0936,-0.63 z m 1.34041,0 h 0.8484 v 0.504 l -0.3768,0.2436 -0.4716,0.0888 z m 1.0548,0.5532 h 0.0636 l 0.9612,0.2832 v 0.4896 h -0.804 l -0.2208,-0.318 z m -0.396,0.4548 v 0.492 l -0.3612,0.3624 h -0.80401 l 0.12721,-0.5508 0.3792,-0.0324 0.078,-0.1896 z m 24.984,2.085601 -2.8356,0.2196 -0.8784,0.474 h -1.1256 l -0.55321,-0.0564 -1.36559,0.762 v 1.4316 l -2.796,2.0208 0.2316,0.8628 h 0.5676 l -0.1476,0.8196 -0.39841,0.1476 -0.024,2.146801 2.41681,2.7564 h 1.05 l 0.0648,-0.1668 h 1.89 l 0.5436,-0.5052 h 1.0728 l 0.58559,0.5904 1.59961,0.165593 -0.2112,2.128803 1.7712,3.1356 -0.93241,1.788 0.0636,0.8424 0.7332,0.7356 v 2.0244 l 0.96599,1.3008 v 0.88681 A 24,24 0 0 0 55,95.999996 24,24 0 0 0 53.98,89.144403 h -1.1928 l -1.2276,-0.9168 -1.2912,0.1272 v 0.7896 H 49.858 l -0.4404,-0.3168 -2.2416,-0.5688 z"
     id="path254" />
</svg>
