<?xml version="1.0" encoding="UTF-8" standalone="no"?>
<!-- Generator: Adobe Illustrator 26.0.2, SVG Export Plug-In . SVG Version: 6.00 Build 0)  -->

<svg
   version="1.0"
   id="Layer_1"
   x="0px"
   y="0px"
   viewBox="0 0 128 128"
   xml:space="preserve"
   width="128"
   height="128"
   xmlns:xlink="http://www.w3.org/1999/xlink"
   xmlns="http://www.w3.org/2000/svg"
   xmlns:svg="http://www.w3.org/2000/svg"><defs
   id="defs76"><linearGradient
   id="linearGradient3724"><stop
     style="stop-color:#5ac8fa;stop-opacity:1;"
     offset="0"
     id="stop3720" /><stop
     style="stop-color:#52ecc7;stop-opacity:1;"
     offset="1"
     id="stop3722" /></linearGradient><linearGradient
   id="linearGradient1097"><stop
     style="stop-color:#b2b2b2;stop-opacity:1;"
     offset="0"
     id="stop1093" /><stop
     style="stop-color:#e5e5e5;stop-opacity:1;"
     offset="0.05234205"
     id="stop1101" /><stop
     style="stop-color:#b2b2b2;stop-opacity:1;"
     offset="0.15255697"
     id="stop1103" /><stop
     style="stop-color:#b2b2b2;stop-opacity:1;"
     offset="0.85064137"
     id="stop1105" /><stop
     style="stop-color:#e5e5e5;stop-opacity:1;"
     offset="0.94848526"
     id="stop1107" /><stop
     style="stop-color:#b2b2b2;stop-opacity:1;"
     offset="1"
     id="stop1095" /></linearGradient><radialGradient
   id="SVGID_00000163033830155146975860000008434547654242457221_-3"
   cx="512.05908"
   cy="481.87881"
   r="486.27271"
   gradientTransform="matrix(0.11104257,0,0,-0.11104257,20.693907,178.43106)"
   gradientUnits="userSpaceOnUse">
	<stop
   offset="0.99000001"
   style="stop-color:#cccccc;stop-opacity:1;"
   id="stop11-6" />
	<stop
   offset="0.9951"
   style="stop-color:#FDFDFD"
   id="stop13-7" />
	<stop
   offset="0.9969"
   style="stop-color:#F6F6F6"
   id="stop15-5" />
	<stop
   offset="0.9982"
   style="stop-color:#EBEBEB"
   id="stop17-3" />
	<stop
   offset="0.9992"
   style="stop-color:#DADADA"
   id="stop19-5" />
	<stop
   offset="1"
   style="stop-color:#C7C7C7"
   id="stop21-6" />
</radialGradient><radialGradient
   id="SVGID_00000075157454629254526220000014209612016984828065_-2"
   cx="433.7207"
   cy="-472.88901"
   r="4.6532998"
   gradientTransform="matrix(10.510657,0,0,10.510657,-4619.3806,5031.1169)"
   gradientUnits="userSpaceOnUse">
			<stop
   offset="0"
   style="stop-color:#000000"
   id="stop55-7" />
			<stop
   offset="1"
   style="stop-color:#322F32"
   id="stop57-0" />
		</radialGradient><path
   id="SVGID_00000018236686936268748280000002431340190722277274_-6"
   d="m 53.6,492.1 c 0,243.3 197.2,440.5 440.5,440.5 243.3,0 440.5,-197.2 440.5,-440.5 C 934.6,248.8 737.4,51.6 494.1,51.6 250.8,51.6 53.6,248.9 53.6,492.1" />
	<defs
   id="defs50-3">
		<path
   id="path2946"
   d="m 53.6,492.1 c 0,243.3 197.2,440.5 440.5,440.5 243.3,0 440.5,-197.2 440.5,-440.5 C 934.6,248.8 737.4,51.6 494.1,51.6 250.8,51.6 53.6,248.9 53.6,492.1" />
	</defs>
	<clipPath
   id="clipPath2872">
		<use
   xlink:href="#SVGID_00000018236686936268748280000002431340190722277274_-6"
   style="overflow:visible"
   id="use2870" />
	</clipPath>
	

		
			<radialGradient
   id="radialGradient2878"
   cx="433.7207"
   cy="-472.88901"
   r="4.6532998"
   gradientTransform="matrix(94.6543,0,0,94.6543,-40559.457,45253.09)"
   gradientUnits="userSpaceOnUse">
			<stop
   offset="0"
   style="stop-color:#000000"
   id="stop2874" />
			<stop
   offset="1"
   style="stop-color:#322F32"
   id="stop2876" />
		</radialGradient>
		
			
	<clipPath
   clipPathUnits="userSpaceOnUse"
   id="clipPath2985"><g
     id="g2989"><use
       xlink:href="#SVGID_00000018236686936268748280000002431340190722277274_-6"
       style="overflow:visible"
       id="use2987"
       transform="matrix(0.11104257,0,0,0.11104257,-115.5543,6.0975271)" /></g></clipPath>
	<defs
   id="defs50">
		<path
   id="SVGID_00000018236686936268748280000002431340190722277274_"
   d="m 53.6,492.1 c 0,243.3 197.2,440.5 440.5,440.5 243.3,0 440.5,-197.2 440.5,-440.5 C 934.6,248.8 737.4,51.6 494.1,51.6 250.8,51.6 53.6,248.9 53.6,492.1" />
	</defs>
	
	

		
			<radialGradient
   id="SVGID_00000075157454629254526220000014209612016984828065_"
   cx="433.7207"
   cy="-472.88901"
   r="4.6532998"
   gradientTransform="matrix(10.510657,0,0,10.510657,-4494.6925,5034.3754)"
   gradientUnits="userSpaceOnUse">
			<stop
   offset="0"
   style="stop-color:#000000"
   id="stop55" />
			<stop
   offset="1"
   style="stop-color:#322F32"
   id="stop57" />
		</radialGradient>
		
			
	<clipPath
   clipPathUnits="userSpaceOnUse"
   id="clipPath3008"><g
     id="g3012"><use
       xlink:href="#SVGID_00000018236686936268748280000002431340190722277274_"
       style="overflow:visible"
       id="use3010"
       transform="matrix(0.11104257,0,0,0.11104257,9.1338662,9.3559513)" /></g></clipPath><radialGradient
   xlink:href="#radialGradient2878"
   id="radialGradient947"
   cx="60.356438"
   cy="114.69307"
   fx="60.356438"
   fy="114.69307"
   r="54.000004"
   gradientUnits="userSpaceOnUse"
   gradientTransform="matrix(0.90571295,0,0,0.90571295,9.3343913,-39.878999)" /><linearGradient
   id="Gradient_1"
   gradientUnits="userSpaceOnUse"
   x1="2.763"
   y1="-0.31299999"
   x2="94.027"
   y2="95.407997"><stop
     offset="0"
     stop-color="#56CCF2"
     id="stop361" /><stop
     offset="1"
     stop-color="#2F80ED"
     id="stop363" /></linearGradient><linearGradient
   xlink:href="#linearGradient1097"
   id="linearGradient1099"
   x1="9.9999966"
   y1="67.999999"
   x2="118"
   y2="67.999999"
   gradientUnits="userSpaceOnUse"
   gradientTransform="translate(0,-1.9999995)" /><linearGradient
   xlink:href="#linearGradient3724"
   id="linearGradient3726"
   x1="120.36771"
   y1="-66.14071"
   x2="224.36771"
   y2="-66.14071"
   gradientUnits="userSpaceOnUse"
   gradientTransform="matrix(0,-0.94230769,0.94230769,0,126.32489,224.42341)" /></defs>
<style
   type="text/css"
   id="style2">
	.st0{fill:url(#SVGID_1_);}
	.st1{fill:url(#SVGID_00000062171159965967627490000013605884846004172698_);}
	.st2{fill:url(#SVGID-2_00000085966066984138215510000013018799571900533434_);}
	.st3{clip-path:url(#SVGID_00000023257072852279316340000004281102206337855156_);}
	.st4{fill:url(#SVGID_00000177446033621631838710000001370584907163434138_);}
	.st5{clip-path:url(#SVGID_00000136385553608229244970000014654043435100792964_);}
	.st6{fill:url(#SVGID_00000126306410582640054500000000964390405037519506_);}
	.st7{fill:url(#SVGID_00000109020757643166282930000006684795936706346369_);}
</style>
<radialGradient
   id="SVGID_1_"
   cx="514.5"
   cy="477.5"
   r="496.5"
   gradientTransform="matrix(1,0,0,-1,-18,974)"
   gradientUnits="userSpaceOnUse">
	<stop
   offset="0.9134"
   style="stop-color:#000000"
   id="stop4" />
	<stop
   offset="1"
   style="stop-color:#000000;stop-opacity:0"
   id="stop6" />
</radialGradient>

<radialGradient
   id="SVGID_00000163033830155146975860000008434547654242457221_"
   cx="512.05908"
   cy="481.87881"
   r="486.27271"
   gradientTransform="matrix(0.11104257,0,0,-0.11104257,7.1350999,117.51141)"
   gradientUnits="userSpaceOnUse">
	<stop
   offset="0.99"
   style="stop-color:#FFFFFF"
   id="stop11" />
	<stop
   offset="0.9951"
   style="stop-color:#FDFDFD"
   id="stop13" />
	<stop
   offset="0.9969"
   style="stop-color:#F6F6F6"
   id="stop15" />
	<stop
   offset="0.9982"
   style="stop-color:#EBEBEB"
   id="stop17" />
	<stop
   offset="0.9992"
   style="stop-color:#DADADA"
   id="stop19" />
	<stop
   offset="1"
   style="stop-color:#C7C7C7"
   id="stop21" />
</radialGradient>

<radialGradient
   id="SVGID-2_00000052072577768947982130000002178866272689676469_"
   cx="512.06152"
   cy="481.87881"
   r="444.12241"
   gradientTransform="matrix(1,0,0,-1,-18,974)"
   gradientUnits="userSpaceOnUse">
	<stop
   offset="0.99"
   style="stop-color:#000000;stop-opacity:0.5"
   id="stop26" />
	<stop
   offset="1"
   style="stop-color:#000000;stop-opacity:0"
   id="stop28" />
</radialGradient>



<radialGradient
   id="SVGID_00000092427181212153090570000016417065628950216588_"
   cx="578.89008"
   cy="482.3703"
   r="353.94269"
   gradientTransform="matrix(0.11104257,0,0,-0.1218248,7.1350999,118.45626)"
   gradientUnits="userSpaceOnUse">
	<stop
   offset="0"
   style="stop-color:#C2C0C2"
   id="stop66" />
	<stop
   offset="1"
   style="stop-color:#EBEBEB"
   id="stop68" />
</radialGradient>

		
	
		
	
<path
   style="fill:url(#linearGradient1099);fill-opacity:1;stroke:none;stroke-width:0.111043"
   d="M 63.999999,11.999998 C 93.826032,11.999998 118,36.173966 118,66.000002 118,95.826032 93.814932,120 63.999999,120 34.185069,120 9.9999966,95.826032 9.9999966,66.000002 c 0,-29.826037 24.1739684,-54.000005 54.0000024,-54.000005"
   id="path24-2" /><path
   style="fill:#ffffff;fill-opacity:1;stroke-width:0.111043"
   d="M 64.000001,7.9999996 C 93.826035,7.9999996 118,32.173967 118,62.000001 118,91.826036 93.814931,116 64.000001,116 34.185071,116 9.9999991,91.826036 9.9999991,62.000001 9.9999991,32.173967 34.173967,7.9999996 64.000001,7.9999996"
   id="path24" /><path
   style="fill:url(#linearGradient3726);fill-opacity:1;stroke-width:0.100761"
   d="m 15,62 c 0,-27.064358 21.935632,-49 49,-49 27.064368,0 49,21.945714 49,49 0,27.054285 -21.935632,49 -49,49 C 36.935632,111 15,89.064358 15,62"
   id="path24-0" /><path
   id="rect2922-2"
   style="fill:#ffffff;fill-rule:evenodd;stroke-width:1.57711;stroke-linecap:round;stroke-linejoin:round;stroke-miterlimit:1.5;paint-order:stroke fill markers"
   d="m 35.503438,37.491211 26.833818,26.88098 c 0.781881,0.783195 2.042424,0.783194 2.824305,0 l 26.833798,-26.88098 z m 60.431137,2.743156 -20.339276,20.373551 20.339276,22.206876 z m -64,0.370961 V 82.469216 L 50.84122,59.631705 c 0.01347,-0.01632 0.03104,-0.027 0.04481,-0.04295 z M 54.232736,62.941065 34.735488,86.491211 h 58.16038 L 72.25447,63.954373 65.867149,70.352468 c -1.172812,1.174786 -3.062678,1.174787 -4.235491,0 z" /></svg>
