<?xml version="1.0" encoding="UTF-8"?>
<svg height="128px" viewBox="0 0 128 128" width="128px" xmlns="http://www.w3.org/2000/svg" xmlns:xlink="http://www.w3.org/1999/xlink">
    <linearGradient id="a" gradientUnits="userSpaceOnUse" x1="9.999997" x2="118.000001" y1="66.000002" y2="66.000002">
        <stop offset="0" stop-color="#999999"/>
        <stop offset="0.052342" stop-color="#cccccc"/>
        <stop offset="0.152557" stop-color="#999999"/>
        <stop offset="0.850641" stop-color="#999999"/>
        <stop offset="0.948485" stop-color="#cccccc"/>
        <stop offset="1" stop-color="#999999"/>
    </linearGradient>
    <radialGradient id="b" cx="63.796062" cy="21.323975" gradientUnits="userSpaceOnUse" r="70.138138">
        <stop offset="0" stop-color="#f5f5f5"/>
        <stop offset="0.5481" stop-color="#ffffff"/>
    </radialGradient>
    <radialGradient id="c" cx="64" cy="61.999985" gradientUnits="userSpaceOnUse" r="55.999992">
        <stop offset="0" stop-color="#077db1"/>
        <stop offset="1" stop-color="#06507b"/>
    </radialGradient>
    <path d="m 64 12 c -28.480469 0 -51.789062 22.042969 -53.835938 50 h -0.164062 v 4 c 0 29.824219 24.183594 54 54 54 s 54 -24.175781 54 -54 v -4 h -0.164062 c -2.046876 -27.957031 -25.355469 -50 -53.835938 -50 z m 0 0" fill="url(#a)"/>
    <path d="m 64 116 c -29.777344 0 -54 -24.222656 -54 -54 s 24.222656 -54 54 -54 s 54 24.222656 54 54 s -24.222656 54 -54 54 z m 0 -103.457031 c -27.257812 0 -49.433594 22.1875 -49.433594 49.457031 s 22.175782 49.457031 49.433594 49.457031 s 49.433594 -22.1875 49.433594 -49.457031 s -22.175782 -49.457031 -49.433594 -49.457031 z m 0 0" fill="#cccccc"/>
    <path d="m 64 12.542969 c -27.257812 0 -49.433594 22.1875 -49.433594 49.457031 s 22.175782 49.457031 49.433594 49.457031 s 49.433594 -22.1875 49.433594 -49.457031 s -22.175782 -49.457031 -49.433594 -49.457031 z m 0 0" fill="url(#b)"/>
    <path d="m 36.167969 117.535156 c -0.515625 -5.808594 3.941406 -10.816406 5.703125 -16.191406 c 1.488281 -4.417969 6.964844 -10.714844 1.195312 -14.230469 c -6.003906 -3.953125 -16.050781 -3.730469 -20.195312 -5.632812 c -2.90625 -5.007813 6.21875 -7.207031 7.796875 -11.429688 c 0.652343 -5.75 -6.816407 -5.707031 -10.527344 -7.664062 c -2.964844 -0.734375 -8.050781 -3.816407 -2.3125 -4.695313 c 7.066406 -3.46875 -1.484375 -10.121094 -4.144531 -13.742187 c -2.085938 -2.84375 -10.3125 -9.789063 -2.128906 -9.75 c 6.414062 -0.777344 12.917968 -0.292969 19.328124 -0.992188 c 4.359376 -0.769531 2.207032 -12.140625 6.980469 -5.628906 c 4.339844 4.679687 5.835938 12.867187 11.824219 15.007813 c 5.125 1.835937 5.558594 -9.46875 6.636719 -14.191407 c 1.105469 -4.835937 1.699219 -11.574219 5.375 -12.316406 c 2.644531 6.542969 8.855469 3.78125 12.664062 -0.035156 c 5 -3.386719 9.507813 -7.792969 15.152344 -10.042969 c 3.234375 3.636719 1.535156 10.1875 2.359375 14.964844 c -0.152344 5.046875 -0.179688 15.710937 7.433594 10.015625 c 6.808594 -2.378907 0.117187 6.324219 -1.496094 8.640625 c -3.574219 5.613281 -7.785156 10.835937 -11.042969 16.636718 c -2.210937 6.691407 8.390625 4.539063 12.34375 5.523438 c 3.472657 0.773438 10.816407 -0.589844 11.957031 2.089844 c -5.097656 2.464844 -6.847656 8.476562 -2.046874 12.953125 c 3.550781 3.3125 9.496093 5.832031 10.976562 9.710937 c -6.332031 3.871094 -13.945312 2.019532 -20.894531 2.859375 c -2.804688 2.191407 1.71875 12.085938 -4.242188 7.464844 c -4.726562 -2.144531 -10.59375 -9.019531 -15.3125 -4.957031 c -4.167969 3.585937 -0.433593 10.859375 -3.046875 15.496094 c -2.996094 -2.882813 -5.390625 -6.851563 -9.160156 -9.097657 c -4.414062 -2.503906 -10.523438 -7.566406 -15.042969 -3.726562 c -4.375 3.71875 -5.179687 10.355469 -7.933593 15.390625 c -1.863282 3.441406 -2.910157 9.804687 -8.199219 7.570312 z m 0 0" fill="url(#c)"/>
</svg>
