<?xml version="1.0" encoding="UTF-8" standalone="no"?>
<!-- Generator: Adobe Illustrator 23.0.1, SVG Export Plug-In . SVG Version: 6.00 Build 0)  -->

<svg
   version="1.1"
   id="Livello_1"
   x="0px"
   y="0px"
   viewBox="0 0 128 128"
   enable-background="new 0 0 240.1 240.1"
   xml:space="preserve"
   width="128"
   height="128"
   xmlns:xlink="http://www.w3.org/1999/xlink"
   xmlns="http://www.w3.org/2000/svg"
   xmlns:svg="http://www.w3.org/2000/svg"><defs
   id="defs13"><linearGradient
     id="linearGradient1"><stop
       style="stop-color:#750900;stop-opacity:1;"
       offset="0"
       id="stop2" /><stop
       style="stop-color:#c20f00;stop-opacity:1;"
       offset="0.03220327"
       id="stop4" /><stop
       style="stop-color:#750900;stop-opacity:1;"
       offset="0.06707999"
       id="stop11" /><stop
       style="stop-color:#750900;stop-opacity:1;"
       offset="0.19243833"
       id="stop12" /><stop
       style="stop-color:#c20f00;stop-opacity:1;"
       offset="0.22345902"
       id="stop13" /><stop
       style="stop-color:#750900;stop-opacity:1;"
       offset="0.2629444"
       id="stop14" /><stop
       style="stop-color:#750900;stop-opacity:1;"
       offset="0.49196529"
       id="stop20" /><stop
       style="stop-color:#a80d00;stop-opacity:1;"
       offset="0.49865967"
       id="stop21" /><stop
       style="stop-color:#750900;stop-opacity:1;"
       offset="0.5108909"
       id="stop22" /><stop
       style="stop-color:#750900;stop-opacity:1;"
       offset="0.73665422"
       id="stop15" /><stop
       style="stop-color:#c20f00;stop-opacity:1;"
       offset="0.76582569"
       id="stop16" /><stop
       style="stop-color:#750900;stop-opacity:1;"
       offset="0.80571961"
       id="stop17" /><stop
       style="stop-color:#750900;stop-opacity:1;"
       offset="0.93214953"
       id="stop18" /><stop
       style="stop-color:#c20f00;stop-opacity:1;"
       offset="0.97317052"
       id="stop19" /><stop
       style="stop-color:#750900;stop-opacity:1;"
       offset="1"
       id="stop3" /></linearGradient><linearGradient
     xlink:href="#linearGradient1"
     id="linearGradient3"
     x1="-139"
     y1="125"
     x2="-36.454551"
     y2="125"
     gradientUnits="userSpaceOnUse"
     gradientTransform="translate(151.72728,-58.999999)" /></defs>

<path
   fill="#dd1100"
   d="m 115.27273,82.909091 v -3.999998 l -14.72727,-12.909092 14.72727,-16.90909 v -4 L 93.454548,44.727271 95.636366,22.363637 V 18.363638 L 75.454547,31.09091 64.000005,12.000001 52.54546,31.09091 32.36364,18.363638 v 3.999999 l 2.18182,22.363634 -21.81818,0.36364 v 4 l 14.72727,16.90909 -14.72727,12.909092 v 3.999998 l 21.81818,4.36364 -2.18182,18.363629 v 4 L 52.54546,100.90909 64.000005,120 l 11.454542,-19.09091 20.181819,8.72727 v -3.66791 -0.33209 L 93.454548,87.272731"
   id="path1-7"
   style="fill:url(#linearGradient3);stroke-width:0.999998" /><path
   fill="#dd1100"
   d="M 115.27273,78.909093 100.54546,62.000002 115.27273,45.090911 93.454548,40.727275 95.636366,18.363638 75.454547,27.090911 64.000005,8.000002 52.54546,27.090911 32.36364,18.363638 34.54546,40.727275 12.72728,45.090911 27.45455,62.000002 12.72728,78.909093 34.54546,83.272729 32.36364,105.63636 52.54546,96.90909 64.000005,116 75.454547,96.90909 95.636366,105.63636 93.454548,83.272728"
   id="path1"
   style="stroke-width:0.999998" /><path
   fill="#ffffff"
   d="m 76.545456,45.090911 c 0,0 -4.909091,3.272727 -12.545451,3.272727 -7.636365,0 -11.999995,-3.272727 -11.999995,-3.272727 0,0 1.09091,5.454545 -0.54546,12.545455 -1.63636,4.363636 -3.81818,7.636363 -7.09091,10.363636 0,0 6.54546,1.090909 11.45455,4.363636 4.909085,3.818182 8.181815,10.363637 8.181815,10.363637 0,0 2.72727,-6.545455 7.63636,-9.818182 4.909091,-3.818182 12.000001,-4.363636 12.000001,-4.363636 0,0 -4.909091,-6 -7.09091,-10.909091 -2.181818,-5.454546 0,-12.545455 0,-12.545455 z m -7.090909,24 c -3.272722,2.181817 -5.454542,6 -5.454542,6 l -5.454549,-6 -7.090906,-2.727273 c 0,0 2.72727,-3.818181 3.81818,-7.636363 1.09091,-2.181819 1.09091,-4.909091 1.09091,-7.636364 0,0 3.818175,1.636364 7.636365,1.636364 3.27272,0 7.63636,-1.636364 7.63636,-1.636364 0,0 -1.090909,4.363636 0.545455,8.181817 1.090909,3.272728 4.363636,7.090909 4.363636,7.090909 z M 84.727275,54.363638 c -1.090909,-3.818182 2.727272,-24.545454 2.727272,-24.545454 0,0 -14.181818,9.818181 -24.000002,9.818181 -9.818175,0 -22.909085,-9.818181 -22.909085,-9.818181 0,0 4.36364,14.727272 1.63636,24.545454 -2.18181,9.272728 -15.81818,20.181819 -15.81818,20.181819 0,0 17.45455,0.545454 24,5.454545 7.090906,4.363636 13.636365,21.818178 13.636365,21.818178 0,0 8.72727,-19.090905 12.545451,-21.818178 3.818182,-2.727273 25.090914,-6 25.090914,-6 0,0 -15.272732,-15.272727 -16.909095,-19.636364 z M 74.363638,76.727275 c -7.090913,4.363636 -10.363633,15.272727 -10.363633,15.272727 0,0 -5.454549,-12 -10.909085,-15.818182 -5.45455,-3.818182 -17.45455,-4.909091 -17.45455,-4.909091 0,0 9.27273,-7.636363 11.45455,-15.272727 2.18181,-7.090909 -0.54546,-18 -0.54546,-18 0,0 9.81818,6 16.909085,6 7.636366,0 18.000002,-6 18.000002,-6 0,0 -3.272727,11.454545 -0.545454,18 2.181818,7.090909 11.454545,15.272727 11.454545,15.272727 0,0 -10.909091,0.545455 -18,5.454546"
   id="path2"
   style="stroke-width:0.999998" /></svg>
