<?xml version="1.0" encoding="UTF-8" standalone="no"?>
<svg
   height="128px"
   viewBox="0 0 128 128"
   width="128px"
   version="1.1"
   id="svg27"
   sodipodi:docname="mathematica.svg"
   inkscape:version="1.3.2 (091e20ef0f, 2023-11-25)"
   xmlns:inkscape="http://www.inkscape.org/namespaces/inkscape"
   xmlns:sodipodi="http://sodipodi.sourceforge.net/DTD/sodipodi-0.dtd"
   xmlns:xlink="http://www.w3.org/1999/xlink"
   xmlns="http://www.w3.org/2000/svg"
   xmlns:svg="http://www.w3.org/2000/svg">
  <defs
     id="defs27">
    <linearGradient
       inkscape:collect="always"
       xlink:href="#c"
       id="linearGradient30"
       x1="7.335938"
       y1="70.068481"
       x2="120.65625"
       y2="70.068481"
       gradientUnits="userSpaceOnUse"
       gradientTransform="translate(-9.38e-4)" />
    <linearGradient
       inkscape:collect="always"
       xlink:href="#a"
       id="linearGradient1"
       gradientUnits="userSpaceOnUse"
       x1="7.335938"
       y1="60.134399"
       x2="120.65625"
       y2="60.134399"
       gradientTransform="translate(0,9.77e-4)" />
  </defs>
  <sodipodi:namedview
     id="namedview27"
     pagecolor="#ffffff"
     bordercolor="#000000"
     borderopacity="0.25"
     inkscape:showpageshadow="2"
     inkscape:pageopacity="0.0"
     inkscape:pagecheckerboard="0"
     inkscape:deskcolor="#d1d1d1"
     inkscape:zoom="8.870418"
     inkscape:cx="20.292167"
     inkscape:cy="107.94305"
     inkscape:window-width="3824"
     inkscape:window-height="2307"
     inkscape:window-x="35"
     inkscape:window-y="32"
     inkscape:window-maximized="0"
     inkscape:current-layer="svg27" />
  <linearGradient
     id="a"
     gradientTransform="matrix(0,-128.18577,-128.18651,0,52.968498,126.87287)"
     gradientUnits="userSpaceOnUse"
     x1="12.595703"
     x2="115.4043"
     y1="67.506531"
     y2="67.506531"
     spreadMethod="pad">
    <stop
       offset="0"
       stop-color="#4e0e15"
       id="stop1"
       style="stop-color:#77181f;stop-opacity:1;" />
    <stop
       offset="0.01"
       stop-color="#a51d2d"
       id="stop2" />
    <stop
       offset="0.153461"
       stop-color="#4e0e15"
       id="stop3" />
    <stop
       offset="0.18000001"
       stop-color="#a51d2c"
       id="stop4" />
    <stop
       offset="0.20999999"
       stop-color="#a51d2c"
       id="stop26"
       style="stop-color:#4e0e15;stop-opacity:1;" />
    <stop
       offset="0.25999999"
       stop-color="#a51d2c"
       id="stop29"
       style="stop-color:#a51d2c;stop-opacity:1;" />
    <stop
       offset="0.33000001"
       stop-color="#4e0e15"
       id="stop5" />
    <stop
       offset="0.67000002"
       stop-color="#4f0d15"
       id="stop6" />
    <stop
       offset="0.74000001"
       stop-color="#4f0d15"
       id="stop28"
       style="stop-color:#a51d2c;stop-opacity:1;" />
    <stop
       offset="0.79000002"
       stop-color="#4f0d15"
       id="stop27"
       style="stop-color:#4e0e15;stop-opacity:1;" />
    <stop
       offset="0.81999999"
       stop-color="#a51d2c"
       id="stop7" />
    <stop
       offset="0.847223"
       stop-color="#4e0e15"
       id="stop8" />
    <stop
       offset="0.99000001"
       stop-color="#a51d2c"
       id="stop9" />
    <stop
       offset="1"
       stop-color="#4e0e15"
       id="stop10"
       style="stop-color:#791621;stop-opacity:1;" />
  </linearGradient>
  <radialGradient
     id="b"
     cx="64.006973"
     cy="67.506149"
     gradientTransform="matrix(1.102227,0,0,-1.049136,-6.546799,128.75498)"
     gradientUnits="userSpaceOnUse"
     r="51.40509">
    <stop
       offset="0"
       stop-color="#f66151"
       id="stop11" />
    <stop
       offset="1"
       stop-color="#a51d2d"
       id="stop12" />
  </radialGradient>
  <linearGradient
     id="c"
     gradientTransform="matrix(0 113.373381 -113.374037 0 86.177105 10.888206)"
     gradientUnits="userSpaceOnUse"
     x1="12.595586"
     x2="115.404579"
     y1="67.50631"
     y2="67.50631">
    <stop
       offset="0"
       stop-color="#a90f16"
       id="stop13"
       style="stop-color:#d7131c;stop-opacity:1;" />
    <stop
       offset="0.01"
       stop-color="#ed333b"
       id="stop14" />
    <stop
       offset="0.197648"
       stop-color="#a90f15"
       id="stop15" />
    <stop
       offset="0.38"
       stop-color="#a90f16"
       id="stop16" />
    <stop
       offset="0.46000001"
       stop-color="#ed3139"
       id="stop17" />
    <stop
       offset="0.50193673"
       stop-color="#ed3139"
       id="stop25"
       style="stop-color:#a90f16;stop-opacity:1;" />
    <stop
       offset="0.54000002"
       stop-color="#ed3139"
       id="stop24"
       style="stop-color:#ed3139;stop-opacity:1;" />
    <stop
       offset="0.62"
       stop-color="#a90f16"
       id="stop18" />
    <stop
       offset="0.8"
       stop-color="#a90f16"
       id="stop19" />
    <stop
       offset="0.99000001"
       stop-color="#ed333b"
       id="stop20" />
    <stop
       offset="1"
       stop-color="#ac0c18"
       id="stop21"
       style="stop-color:#db0f1f;stop-opacity:1;" />
  </linearGradient>
  <radialGradient
     id="d"
     cx="64.006973"
     cy="67.506149"
     gradientTransform="matrix(1.102227 0 0 1.049136 -6.546799 -2.958626)"
     gradientUnits="userSpaceOnUse"
     r="51.40509">
    <stop
       offset="0"
       stop-color="#f66151"
       id="stop22" />
    <stop
       offset="1"
       stop-color="#ed333b"
       id="stop23" />
  </radialGradient>
  <path
     d="m 63.996094,6.204102 c -2.257813,0 -4.511719,1.648437 -6.40625,4.945313 -0.05469,0.09375 -0.105469,0.1875 -0.164063,0.28125 -3.792969,6.570312 -11.890625,16.003906 -18.042969,20.445312 -0.02344,0.01953 -0.04687,0.03906 -0.07422,0.05469 -6.15625,4.433593 -17.65625,9.152343 -25.085938,10.691406 -0.01172,0 -0.02344,0.0039 -0.03516,0.0078 -3.226562,0.664063 -5.335938,1.957032 -6.277344,3.664063 H 7.335938 v 2.203125 h 0.02344 c 0,1.816406 0.976563,3.902344 3.015625,6.105468 5.136719,5.542969 11.527344,16.203126 13.601562,23.496094 2.070313,7.277344 2.902344,19.640624 2.167969,27.195317 -0.0039,0.043 -0.01172,0.0859 -0.01563,0.12891 -0.742187,7.5625 3.542969,10.57031 10.441406,7.38671 0.06641,-0.0273 0.132813,-0.0586 0.199219,-0.0898 6.894531,-3.16406 18.972657,-6.09375 26.5625,-6.16406 0.441407,-0.004 0.886719,-0.004 1.328125,0 7.589844,0.0703 19.667969,3 26.5625,6.16406 0.06641,0.0312 0.132813,0.0625 0.199219,0.0898 6.898437,3.1836 11.183587,0.17579 10.437507,-7.38671 -0.004,-0.043 -0.008,-0.0859 -0.0117,-0.12891 -0.73438,-7.554693 0.0977,-19.941411 2.17969,-27.242192 2.07421,-7.265625 8.46485,-17.925781 13.6211,-23.488281 2.02733,-2.1875 3,-4.257812 3,-6.066406 h 0.008 v -2.203125 h -0.55858 c -0.94532,-1.703125 -3.0625,-2.996094 -6.29297,-3.664063 -0.0117,-0.0039 -0.0234,-0.0078 -0.0352,-0.0078 -7.42988,-1.539065 -18.92988,-6.257815 -25.086126,-10.691408 -0.02734,-0.01563 -0.05078,-0.03516 -0.07422,-0.05469 C 82.457031,27.434571 74.359375,18.000977 70.5625,11.430665 70.507812,11.336915 70.453125,11.239258 70.402344,11.145508 68.507812,7.852539 66.25,6.204102 63.996094,6.204102 Z m 0,0"
     fill="url(#a)"
     id="path1"
     style="fill:url(#linearGradient1);fill-opacity:1" />
  <path
     d="m 39.382812,29.672852 c -0.02344,0.01563 -0.04687,0.03516 -0.07422,0.05469 -6.15625,4.433594 -17.660156,9.152344 -25.089844,10.6875 -0.01172,0.0039 -0.01953,0.0078 -0.03125,0.0078 -7.441406,1.539063 -8.976562,6.402344 -3.808594,11.972656 5.132813,5.542969 11.523438,16.207031 13.597656,23.5 2.070313,7.273438 2.902344,19.640625 2.167969,27.195312 -0.0039,0.043 -0.0078,0.0859 -0.01172,0.12891 -0.746093,7.5625 3.539063,10.57031 10.441407,7.38672 0.0625,-0.0312 0.128906,-0.0625 0.195312,-0.0898 6.894531,-3.16797 18.972657,-6.09766 26.5625,-6.16407 0.441407,-0.004 0.886719,-0.004 1.328125,0 7.585938,0.0664 19.667969,2.9961 26.5625,6.16407 0.06641,0.0312 0.132813,0.0586 0.199219,0.0898 6.898438,3.18359 11.179688,0.17578 10.437498,-7.38672 -0.004,-0.0469 -0.008,-0.0898 -0.0117,-0.13281 -0.73437,-7.550787 0.0977,-19.941412 2.17969,-27.238287 2.07422,-7.269531 8.46485,-17.925781 13.6211,-23.488281 5.14844,-5.550781 3.59765,-10.398437 -3.84375,-11.9375 -0.0117,-0.0039 -0.0234,-0.0039 -0.0352,-0.0078 -7.42969,-1.535156 -18.92969,-6.253906 -25.08594,-10.6875 -0.02734,-0.01953 -0.05078,-0.03906 -0.07422,-0.05469 C 82.457031,25.231446 74.355469,15.797852 70.5625,9.227539 70.50781,9.129879 70.453125,9.036133 70.398438,8.942383 c -3.785157,-6.589844 -9.019532,-6.589844 -12.808594,0 -0.05078,0.09375 -0.105469,0.191406 -0.164063,0.285156 -3.792969,6.570313 -11.890625,16.003907 -18.042969,20.445313 z m 0,0"
     fill="url(#b)"
     id="path24"
     style="fill:url(#b)" />
  <path
     d="M 31.924843,16.144531 C 27.842812,16 25.573281,19.109375 26.127968,24.78125 c 0.0039,0.04297 0.01172,0.08594 0.01563,0.128906 0.734375,7.554688 -0.09766,19.921875 -2.167969,27.195313 -2.074218,7.292969 -8.464843,17.953125 -13.601562,23.496093 -1.308594,1.414063 -2.179688,2.78125 -2.640625,4.0625 H 7.335 v 2.203126 h 0.027343 c 0.089844,2.707031 2.40625,4.796874 6.824219,5.710937 0.01172,0 0.02344,0.0039 0.03516,0.0039 7.429688,1.539063 18.929688,6.257813 25.085938,10.691407 0.02734,0.01953 0.05078,0.03906 0.07422,0.05469 6.152344,4.441408 14.25,13.875008 18.042969,20.445318 0.05859,0.0937 0.109375,0.1875 0.164063,0.28515 3.785156,6.58594 9.023437,6.58985 12.808594,0 0.05469,-0.0937 0.109374,-0.1914 0.164062,-0.28515 3.796875,-6.57031 11.894531,-16.00391 18.046875,-20.445318 0.02344,-0.01563 0.04687,-0.03516 0.07422,-0.05469 6.15625,-4.433594 17.656247,-9.152344 25.085937,-10.691407 0.0117,0 0.0234,-0.0039 0.0352,-0.0039 4.42578,-0.914063 6.74609,-3.003906 6.83594,-5.710937 h 0.0156 v -0.355469 c -0.004,-0.02344 0,-0.04687 0,-0.07422 v -1.773438 h -0.37891 c -0.46093,-1.269531 -1.32812,-2.621093 -2.6289,-4.023437 -5.15625,-5.558594 -11.54688,-16.222656 -13.6211,-23.488281 -2.08203,-7.300782 -2.91406,-19.6875 -2.17969,-27.242188 0.004,-0.04297 0.008,-0.08594 0.0117,-0.128906 0.7461,-7.5625 -3.539058,-10.570312 -10.437495,-7.386719 -0.06641,0.03125 -0.132813,0.05859 -0.199219,0.08984 -6.894531,3.167969 -18.972656,6.09375 -26.5625,6.164063 -0.441406,0.0039 -0.882812,0.0039 -1.328125,0 -7.585937,-0.07031 -19.667969,-2.996094 -26.5625,-6.164063 -0.06641,-0.03125 -0.128906,-0.05859 -0.195312,-0.08984 -1.726563,-0.796875 -3.289063,-1.203125 -4.648438,-1.25 z m 0,0"
     fill="url(#c)"
     id="path25"
     style="fill:url(#linearGradient30);fill-opacity:1" />
  <path
     d="m 39.382812 96.125 c -0.023437 -0.019531 -0.046874 -0.035156 -0.074218 -0.054688 c -6.15625 -4.433593 -17.660156 -9.152343 -25.089844 -10.691406 c -0.011719 0 -0.019531 -0.003906 -0.03125 -0.007812 c -7.441406 -1.535156 -8.976562 -6.398438 -3.808594 -11.972656 c 5.132813 -5.542969 11.523438 -16.203126 13.597656 -23.496094 c 2.070313 -7.277344 2.902344 -19.640625 2.167969 -27.195313 c -0.003906 -0.042969 -0.007812 -0.085937 -0.011719 -0.128906 c -0.746093 -7.5625 3.539063 -10.570313 10.441407 -7.386719 c 0.0625 0.027344 0.128906 0.058594 0.195312 0.089844 c 6.894531 3.167969 18.972657 6.09375 26.5625 6.164062 c 0.441407 0.003907 0.886719 0.003907 1.328125 0 c 7.585938 -0.070312 19.667969 -2.996093 26.5625 -6.164062 c 0.066406 -0.03125 0.132813 -0.0625 0.199219 -0.089844 c 6.898437 -3.183594 11.179687 -0.175781 10.4375 7.386719 c -0.003906 0.042969 -0.007813 0.085937 -0.011719 0.128906 c -0.734375 7.554688 0.097656 19.941407 2.179688 27.242188 c 2.074218 7.265625 8.464844 17.925781 13.621094 23.488281 c 5.148437 5.550781 3.597656 10.398438 -3.84375 11.9375 c -0.011719 0 -0.023438 0.003906 -0.035157 0.003906 c -7.429687 1.539063 -18.929687 6.257813 -25.085937 10.691406 c -0.027344 0.019532 -0.050782 0.035157 -0.074219 0.054688 c -6.152344 4.441406 -14.253906 13.875 -18.046875 20.445312 c -0.054688 0.09375 -0.109375 0.1875 -0.164062 0.285157 c -3.785157 6.585937 -9.019532 6.585937 -12.808594 -0.003907 c -0.050782 -0.09375 -0.105469 -0.1875 -0.164063 -0.28125 c -3.792969 -6.570312 -11.890625 -16.003906 -18.042969 -20.445312 z m 0 0"
     fill="url(#d)"
     id="path26" />
  <path
     d="m 62.199219 96.675781 c 0.613281 1.542969 1.207031 3.195313 1.796875 4.953125 c 0.660156 -1.734375 1.320312 -3.359375 1.992187 -4.878906 c 6.445313 -14.582031 13.878907 -19.863281 29.269531 -21.015625 c 1.640626 -0.121094 3.371094 -0.195313 5.203126 -0.230469 c -1.425782 -1.136718 -2.75 -2.246094 -3.976563 -3.339844 c -11.421875 -10.179687 -14.21875 -18.792968 -11.199219 -33.980468 c 0.3125 -1.566406 0.683594 -3.199219 1.117188 -4.914063 c -1.46875 1 -2.882813 1.917969 -4.257813 2.75 c -12.699219 7.695313 -21.808593 7.992188 -36.234375 -0.160156 c -1.386718 -0.785156 -2.824218 -1.648437 -4.320312 -2.589844 c 0.476562 1.6875 0.894531 3.300781 1.246094 4.847657 c 3.410156 14.960937 0.824218 23.625 -11.070313 33.9375 c -1.300781 1.125 -2.710937 2.273437 -4.234375 3.449218 c 1.929688 -0.019531 3.753906 0.003906 5.480469 0.085938 c 15.613281 0.71875 23.148437 5.84375 29.1875 21.085937 z m -9.097657 -18.917969 c 4.714844 3.3125 8.171876 8.128907 11.078126 14.582032 c 3.019531 -6.09375 6.484374 -10.710938 11.066406 -13.984375 c 4.578125 -3.265625 9.984375 -4.988281 16.542968 -5.78125 c -4.667968 -4.554688 -7.898437 -9.125 -9.636718 -14.367188 c -1.769532 -5.328125 -1.894532 -11.042969 -0.855469 -17.667969 c -5.554687 3.027344 -10.808594 4.761719 -16.382813 4.824219 c -5.792968 0.066407 -11.570312 -1.679687 -18.027343 -5.007812 c 1.207031 6.554687 1.214843 12.269531 -0.53125 17.636719 c -1.699219 5.21875 -4.949219 9.796874 -9.71875 14.359374 c 6.507812 0.628907 11.917969 2.207032 16.464843 5.40625 z m 26.039063 -6.996093 c 1.152344 -0.339844 2.394531 -0.640625 3.746094 -0.917969 c -0.867188 -1.066406 -1.644531 -2.078125 -2.332031 -3.054688 c -3.585938 -5.078124 -4.871094 -9.242187 -4.855469 -15.296874 c 0.003906 -1.203126 0.058593 -2.480469 0.160156 -3.855469 c -1.269531 0.554687 -2.460937 1.039062 -3.609375 1.441406 c -5.632812 1.976563 -10.15625 2.070313 -16.792969 -0.078125 c -1.179687 -0.382812 -2.429687 -0.835938 -3.761719 -1.363281 c 0.238282 1.402343 0.410157 2.703125 0.507813 3.925781 c 0.503906 6.105469 -0.78125 10.253906 -4.640625 15.3125 c -0.726562 0.949219 -1.542969 1.933594 -2.457031 2.96875 c 1.34375 0.328125 2.585937 0.667969 3.734375 1.03125 c 5.980468 1.886719 9.519531 4.417969 13.046875 9.289062 c 0.699219 0.964844 1.394531 2.019532 2.109375 3.175782 c 0.738281 -1.144532 1.449218 -2.191406 2.152344 -3.152344 c 3.746093 -5.117188 7.238281 -7.734375 12.992187 -9.425781 z m -9.242187 0.558593 c 2.132812 -1.542968 4.445312 -2.664062 7.089843 -3.539062 c -1.601562 -2.410156 -2.792969 -4.761719 -3.582031 -7.289062 c -0.769531 -2.460938 -1.128906 -4.976563 -1.203125 -7.722657 c -2.570313 0.804688 -5.074219 1.269531 -7.726563 1.300781 c -2.789062 0.027344 -5.597656 -0.425781 -8.679687 -1.320312 c 0.113281 2.742188 -0.140625 5.277344 -0.882813 7.761719 c -0.777343 2.613281 -2.058593 5.015625 -3.796874 7.445312 c 2.734374 0.953125 5.109374 2.105469 7.257812 3.644531 c 2.140625 1.53125 3.953125 3.367188 5.652344 5.574219 c 1.8125 -2.34375 3.6875 -4.277343 5.871094 -5.855469 z m 0 0"
     fill="#ececec"
     fill-rule="evenodd"
     id="path27" />
</svg>
