<?xml version="1.0" encoding="UTF-8"?>
<svg height="128px" viewBox="0 0 128 128" width="128px" xmlns="http://www.w3.org/2000/svg" xmlns:xlink="http://www.w3.org/1999/xlink">
    <linearGradient id="a" gradientTransform="matrix(0 -128.185766 -128.186506 0 52.968498 126.872867)" gradientUnits="userSpaceOnUse" x1="12.595703" x2="115.404297" y1="67.506531" y2="67.506531">
        <stop offset="0" stop-color="#4e0e15"/>
        <stop offset="0.1" stop-color="#a51d2d"/>
        <stop offset="0.153461" stop-color="#4e0e15"/>
        <stop offset="0.2" stop-color="#a51d2c"/>
        <stop offset="0.3" stop-color="#4e0e15"/>
        <stop offset="0.7" stop-color="#4f0d15"/>
        <stop offset="0.798922" stop-color="#a51d2c"/>
        <stop offset="0.847223" stop-color="#4e0e15"/>
        <stop offset="0.9" stop-color="#a51d2c"/>
        <stop offset="1" stop-color="#4e0e15"/>
    </linearGradient>
    <radialGradient id="b" cx="64.006973" cy="67.506149" gradientTransform="matrix(1.102227 0 0 -1.049136 -6.546799 128.754004)" gradientUnits="userSpaceOnUse" r="51.40509">
        <stop offset="0" stop-color="#f66151"/>
        <stop offset="1" stop-color="#a51d2d"/>
    </radialGradient>
    <linearGradient id="c" gradientTransform="matrix(0 113.373381 -113.374037 0 86.177105 10.888206)" gradientUnits="userSpaceOnUse" x1="12.595586" x2="115.404579" y1="67.50631" y2="67.50631">
        <stop offset="0" stop-color="#a90f16"/>
        <stop offset="0.04627" stop-color="#ed333b"/>
        <stop offset="0.197648" stop-color="#a90f15"/>
        <stop offset="0.446069" stop-color="#a90f16"/>
        <stop offset="0.5" stop-color="#ed3139"/>
        <stop offset="0.55" stop-color="#a90f16"/>
        <stop offset="0.8" stop-color="#a90f16"/>
        <stop offset="0.95" stop-color="#ed333b"/>
        <stop offset="1" stop-color="#ac0c18"/>
    </linearGradient>
    <radialGradient id="d" cx="64.006973" cy="67.506149" gradientTransform="matrix(1.102227 0 0 1.049136 -6.546799 -2.958626)" gradientUnits="userSpaceOnUse" r="51.40509">
        <stop offset="0" stop-color="#f66151"/>
        <stop offset="1" stop-color="#ed333b"/>
    </radialGradient>
    <path d="m 63.996094 6.203125 c -2.257813 0 -4.511719 1.648437 -6.40625 4.945313 c -0.054688 0.09375 -0.105469 0.1875 -0.164063 0.28125 c -3.792969 6.570312 -11.890625 16.003906 -18.042969 20.445312 c -0.023437 0.019531 -0.046874 0.039062 -0.074218 0.054688 c -6.15625 4.433593 -17.65625 9.152343 -25.085938 10.691406 c -0.011718 0 -0.023437 0.003906 -0.035156 0.007812 c -3.226562 0.664063 -5.335938 1.957032 -6.277344 3.664063 h -0.574218 v 2.203125 h 0.023437 c 0 1.816406 0.976563 3.902344 3.015625 6.105468 c 5.136719 5.542969 11.527344 16.203126 13.601562 23.496094 c 2.070313 7.277344 2.902344 19.640625 2.167969 27.195313 c -0.003906 0.042969 -0.011719 0.085937 -0.015625 0.128906 c -0.742187 7.5625 3.542969 10.570313 10.441406 7.386719 c 0.066407 -0.027344 0.132813 -0.058594 0.199219 -0.089844 c 6.894531 -3.164062 18.972657 -6.09375 26.5625 -6.164062 c 0.441407 -0.003907 0.886719 -0.003907 1.328125 0 c 7.589844 0.070312 19.667969 3 26.5625 6.164062 c 0.066406 0.03125 0.132813 0.0625 0.199219 0.089844 c 6.898437 3.183594 11.183594 0.175781 10.4375 -7.386719 c -0.003906 -0.042969 -0.007813 -0.085937 -0.011719 -0.128906 c -0.734375 -7.554688 0.097656 -19.941407 2.179688 -27.242188 c 2.074218 -7.265625 8.464844 -17.925781 13.621094 -23.488281 c 2.027343 -2.1875 3 -4.257812 3 -6.066406 h 0.007812 v -2.203125 h -0.558594 c -0.945312 -1.703125 -3.0625 -2.996094 -6.292968 -3.664063 c -0.011719 -0.003906 -0.023438 -0.007812 -0.035157 -0.007812 c -7.429687 -1.539063 -18.929687 -6.257813 -25.085937 -10.691406 c -0.027344 -0.015626 -0.050782 -0.035157 -0.074219 -0.054688 c -6.152344 -4.441406 -14.25 -13.875 -18.046875 -20.445312 c -0.054688 -0.09375 -0.109375 -0.191407 -0.160156 -0.285157 c -1.894532 -3.292969 -4.152344 -4.941406 -6.40625 -4.941406 z m 0 0" fill="url(#a)"/>
    <path d="m 39.382812 29.671875 c -0.023437 0.015625 -0.046874 0.035156 -0.074218 0.054687 c -6.15625 4.433594 -17.660156 9.152344 -25.089844 10.6875 c -0.011719 0.003907 -0.019531 0.007813 -0.03125 0.007813 c -7.441406 1.539063 -8.976562 6.402344 -3.808594 11.972656 c 5.132813 5.542969 11.523438 16.207031 13.597656 23.5 c 2.070313 7.273438 2.902344 19.640625 2.167969 27.195313 c -0.003906 0.042968 -0.007812 0.085937 -0.011719 0.128906 c -0.746093 7.5625 3.539063 10.570312 10.441407 7.386719 c 0.0625 -0.03125 0.128906 -0.0625 0.195312 -0.089844 c 6.894531 -3.167969 18.972657 -6.097656 26.5625 -6.164063 c 0.441407 -0.003906 0.886719 -0.003906 1.328125 0 c 7.585938 0.066407 19.667969 2.996094 26.5625 6.164063 c 0.066406 0.03125 0.132813 0.058594 0.199219 0.089844 c 6.898437 3.183593 11.179687 0.175781 10.4375 -7.386719 c -0.003906 -0.046875 -0.007813 -0.089844 -0.011719 -0.132812 c -0.734375 -7.550782 0.097656 -19.941407 2.179688 -27.238282 c 2.074218 -7.269531 8.464844 -17.925781 13.621094 -23.488281 c 5.148437 -5.550781 3.597656 -10.398437 -3.84375 -11.9375 c -0.011719 -0.003906 -0.023438 -0.003906 -0.035157 -0.007813 c -7.429687 -1.535156 -18.929687 -6.253906 -25.085937 -10.6875 c -0.027344 -0.019531 -0.050782 -0.039062 -0.074219 -0.054687 c -6.152344 -4.441406 -14.253906 -13.875 -18.046875 -20.445313 c -0.054688 -0.097656 -0.109375 -0.191406 -0.164062 -0.285156 c -3.785157 -6.589844 -9.019532 -6.589844 -12.808594 0 c -0.050782 0.09375 -0.105469 0.191406 -0.164063 0.285156 c -3.792969 6.570313 -11.890625 16.003907 -18.042969 20.445313 z m 0 0" fill="url(#b)"/>
    <path d="m 31.925781 16.144531 c -4.082031 -0.144531 -6.351562 2.964844 -5.796875 8.636719 c 0.003906 0.042969 0.011719 0.085938 0.015625 0.128906 c 0.734375 7.554688 -0.097656 19.921875 -2.167969 27.195313 c -2.074218 7.292969 -8.464843 17.953125 -13.601562 23.496093 c -1.308594 1.414063 -2.179688 2.78125 -2.640625 4.0625 h -0.398437 v 2.203126 h 0.027343 c 0.089844 2.707031 2.40625 4.796874 6.824219 5.710937 c 0.011719 0 0.023438 0.003906 0.035156 0.003906 c 7.429688 1.539063 18.929688 6.257813 25.085938 10.691407 c 0.027344 0.019531 0.050781 0.039062 0.074218 0.054687 c 6.152344 4.441406 14.25 13.875 18.042969 20.445313 c 0.058594 0.09375 0.109375 0.1875 0.164063 0.285156 c 3.785156 6.585937 9.023437 6.589844 12.808594 0 c 0.054687 -0.09375 0.109374 -0.191406 0.164062 -0.285156 c 3.796875 -6.570313 11.894531 -16.003907 18.046875 -20.445313 c 0.023437 -0.015625 0.046875 -0.035156 0.074219 -0.054687 c 6.15625 -4.433594 17.65625 -9.152344 25.085937 -10.691407 c 0.011719 0 0.023438 -0.003906 0.035157 -0.003906 c 4.425781 -0.914063 6.746093 -3.003906 6.835937 -5.710937 h 0.015625 v -0.355469 c -0.003906 -0.023438 0 -0.046875 0 -0.074219 v -1.773438 h -0.378906 c -0.460938 -1.269531 -1.328125 -2.621093 -2.628906 -4.023437 c -5.15625 -5.558594 -11.546876 -16.222656 -13.621094 -23.488281 c -2.082032 -7.300782 -2.914063 -19.6875 -2.179688 -27.242188 c 0.003906 -0.042968 0.007813 -0.085937 0.011719 -0.128906 c 0.746094 -7.5625 -3.539063 -10.570312 -10.4375 -7.386719 c -0.066406 0.03125 -0.132813 0.058594 -0.199219 0.089844 c -6.894531 3.167969 -18.972656 6.09375 -26.5625 6.164063 c -0.441406 0.003906 -0.882812 0.003906 -1.328125 0 c -7.585937 -0.070313 -19.667969 -2.996094 -26.5625 -6.164063 c -0.066406 -0.03125 -0.128906 -0.058594 -0.195312 -0.089844 c -1.726563 -0.796875 -3.289063 -1.203125 -4.648438 -1.25 z m 0 0" fill="url(#c)"/>
    <path d="m 39.382812 96.125 c -0.023437 -0.019531 -0.046874 -0.035156 -0.074218 -0.054688 c -6.15625 -4.433593 -17.660156 -9.152343 -25.089844 -10.691406 c -0.011719 0 -0.019531 -0.003906 -0.03125 -0.007812 c -7.441406 -1.535156 -8.976562 -6.398438 -3.808594 -11.972656 c 5.132813 -5.542969 11.523438 -16.203126 13.597656 -23.496094 c 2.070313 -7.277344 2.902344 -19.640625 2.167969 -27.195313 c -0.003906 -0.042969 -0.007812 -0.085937 -0.011719 -0.128906 c -0.746093 -7.5625 3.539063 -10.570313 10.441407 -7.386719 c 0.0625 0.027344 0.128906 0.058594 0.195312 0.089844 c 6.894531 3.167969 18.972657 6.09375 26.5625 6.164062 c 0.441407 0.003907 0.886719 0.003907 1.328125 0 c 7.585938 -0.070312 19.667969 -2.996093 26.5625 -6.164062 c 0.066406 -0.03125 0.132813 -0.0625 0.199219 -0.089844 c 6.898437 -3.183594 11.179687 -0.175781 10.4375 7.386719 c -0.003906 0.042969 -0.007813 0.085937 -0.011719 0.128906 c -0.734375 7.554688 0.097656 19.941407 2.179688 27.242188 c 2.074218 7.265625 8.464844 17.925781 13.621094 23.488281 c 5.148437 5.550781 3.597656 10.398438 -3.84375 11.9375 c -0.011719 0 -0.023438 0.003906 -0.035157 0.003906 c -7.429687 1.539063 -18.929687 6.257813 -25.085937 10.691406 c -0.027344 0.019532 -0.050782 0.035157 -0.074219 0.054688 c -6.152344 4.441406 -14.253906 13.875 -18.046875 20.445312 c -0.054688 0.09375 -0.109375 0.1875 -0.164062 0.285157 c -3.785157 6.585937 -9.019532 6.585937 -12.808594 -0.003907 c -0.050782 -0.09375 -0.105469 -0.1875 -0.164063 -0.28125 c -3.792969 -6.570312 -11.890625 -16.003906 -18.042969 -20.445312 z m 0 0" fill="url(#d)"/>
    <path d="m 62.199219 96.675781 c 0.613281 1.542969 1.207031 3.195313 1.796875 4.953125 c 0.660156 -1.734375 1.320312 -3.359375 1.992187 -4.878906 c 6.445313 -14.582031 13.878907 -19.863281 29.269531 -21.015625 c 1.640626 -0.121094 3.371094 -0.195313 5.203126 -0.230469 c -1.425782 -1.136718 -2.75 -2.246094 -3.976563 -3.339844 c -11.421875 -10.179687 -14.21875 -18.792968 -11.199219 -33.980468 c 0.3125 -1.566406 0.683594 -3.199219 1.117188 -4.914063 c -1.46875 1 -2.882813 1.917969 -4.257813 2.75 c -12.699219 7.695313 -21.808593 7.992188 -36.234375 -0.160156 c -1.386718 -0.785156 -2.824218 -1.648437 -4.320312 -2.589844 c 0.476562 1.6875 0.894531 3.300781 1.246094 4.847657 c 3.410156 14.960937 0.824218 23.625 -11.070313 33.9375 c -1.300781 1.125 -2.710937 2.273437 -4.234375 3.449218 c 1.929688 -0.019531 3.753906 0.003906 5.480469 0.085938 c 15.613281 0.71875 23.148437 5.84375 29.1875 21.085937 z m -9.097657 -18.917969 c 4.714844 3.3125 8.171876 8.128907 11.078126 14.582032 c 3.019531 -6.09375 6.484374 -10.710938 11.066406 -13.984375 c 4.578125 -3.265625 9.984375 -4.988281 16.542968 -5.78125 c -4.667968 -4.554688 -7.898437 -9.125 -9.636718 -14.367188 c -1.769532 -5.328125 -1.894532 -11.042969 -0.855469 -17.667969 c -5.554687 3.027344 -10.808594 4.761719 -16.382813 4.824219 c -5.792968 0.066407 -11.570312 -1.679687 -18.027343 -5.007812 c 1.207031 6.554687 1.214843 12.269531 -0.53125 17.636719 c -1.699219 5.21875 -4.949219 9.796874 -9.71875 14.359374 c 6.507812 0.628907 11.917969 2.207032 16.464843 5.40625 z m 26.039063 -6.996093 c 1.152344 -0.339844 2.394531 -0.640625 3.746094 -0.917969 c -0.867188 -1.066406 -1.644531 -2.078125 -2.332031 -3.054688 c -3.585938 -5.078124 -4.871094 -9.242187 -4.855469 -15.296874 c 0.003906 -1.203126 0.058593 -2.480469 0.160156 -3.855469 c -1.269531 0.554687 -2.460937 1.039062 -3.609375 1.441406 c -5.632812 1.976563 -10.15625 2.070313 -16.792969 -0.078125 c -1.179687 -0.382812 -2.429687 -0.835938 -3.761719 -1.363281 c 0.238282 1.402343 0.410157 2.703125 0.507813 3.925781 c 0.503906 6.105469 -0.78125 10.253906 -4.640625 15.3125 c -0.726562 0.949219 -1.542969 1.933594 -2.457031 2.96875 c 1.34375 0.328125 2.585937 0.667969 3.734375 1.03125 c 5.980468 1.886719 9.519531 4.417969 13.046875 9.289062 c 0.699219 0.964844 1.394531 2.019532 2.109375 3.175782 c 0.738281 -1.144532 1.449218 -2.191406 2.152344 -3.152344 c 3.746093 -5.117188 7.238281 -7.734375 12.992187 -9.425781 z m -9.242187 0.558593 c 2.132812 -1.542968 4.445312 -2.664062 7.089843 -3.539062 c -1.601562 -2.410156 -2.792969 -4.761719 -3.582031 -7.289062 c -0.769531 -2.460938 -1.128906 -4.976563 -1.203125 -7.722657 c -2.570313 0.804688 -5.074219 1.269531 -7.726563 1.300781 c -2.789062 0.027344 -5.597656 -0.425781 -8.679687 -1.320312 c 0.113281 2.742188 -0.140625 5.277344 -0.882813 7.761719 c -0.777343 2.613281 -2.058593 5.015625 -3.796874 7.445312 c 2.734374 0.953125 5.109374 2.105469 7.257812 3.644531 c 2.140625 1.53125 3.953125 3.367188 5.652344 5.574219 c 1.8125 -2.34375 3.6875 -4.277343 5.871094 -5.855469 z m 0 0" fill="#ececec" fill-rule="evenodd"/>
</svg>
