<?xml version="1.0" encoding="UTF-8" standalone="no"?>
<svg
   height="128px"
   viewBox="0 0 128 128"
   width="128px"
   version="1.1"
   id="svg8"
   xml:space="preserve"
   xmlns:xlink="http://www.w3.org/1999/xlink"
   xmlns="http://www.w3.org/2000/svg"
   xmlns:svg="http://www.w3.org/2000/svg"><defs
     id="defs12"><linearGradient
       id="linearGradient1049"><stop
         style="stop-color:#007194;stop-opacity:1;"
         offset="0"
         id="stop1045" /><stop
         style="stop-color:#023992;stop-opacity:1;"
         offset="1"
         id="stop1047" /></linearGradient><linearGradient
       id="linearGradient872"><stop
         style="stop-color:#00c0fb;stop-opacity:1;"
         offset="0"
         id="stop868" /><stop
         style="stop-color:#0460f4;stop-opacity:1;"
         offset="1"
         id="stop870" /></linearGradient><linearGradient
       xlink:href="#linearGradient872"
       id="linearGradient874"
       x1="81.777061"
       y1="7.7693095"
       x2="46.423931"
       y2="115.66105"
       gradientUnits="userSpaceOnUse" /><linearGradient
       xlink:href="#linearGradient1049"
       id="linearGradient1042"
       gradientUnits="userSpaceOnUse"
       x1="81.777061"
       y1="7.7693095"
       x2="46.423931"
       y2="115.66105"
       gradientTransform="translate(-1.5e-6,4)" /></defs><path
     d="m 117.41064,66.022391 c 0,29.83542 -24.186979,54.022399 -54.022388,54.022399 -29.835419,0 -54.0223985,-24.186979 -54.0223985,-54.022399 0,-29.83541 24.1869795,-54.022393 54.0223985,-54.022393 29.835409,0 54.022388,24.186983 54.022388,54.022393 z m 0,0"
     fill="#1c71d8"
     id="path4-7"
     style="fill:url(#linearGradient1042);fill-opacity:1;stroke-width:0.900373" /><path
     d="m 117.41064,62.022395 c 0,29.835417 -24.186973,54.022395 -54.02239,54.022395 -29.835415,0 -54.022395,-24.186978 -54.022395,-54.022395 C 9.365855,32.18698 33.552835,8 63.38825,8 c 29.835417,0 54.02239,24.18698 54.02239,54.022395 z m 0,0"
     fill="#1c71d8"
     id="path4"
     style="fill:url(#linearGradient874);fill-opacity:1;stroke-width:0.900373" /><g
     id="XMLID_3_"
     style="fill:#ffffff"
     transform="matrix(0.98880278,0,0,0.98880278,-262.33379,-64.406687)" /><path
     id="XMLID_5_"
     style="clip-rule:evenodd;fill:#ffffff;fill-rule:evenodd;stroke:none;stroke-width:0.541751"
     class="st0"
     d="M 78.663576,53.892357 78.338523,40.673635 78.067649,33.089123 77.905122,26.479762 c 0,0 0.0542,-3.196331 -0.0542,-3.900607 0,-0.162525 -0.0542,-0.270875 -0.108348,-0.379225 v -0.108348 c -0.108359,-0.216699 -0.325053,-0.379225 -0.541758,-0.487575 -0.270875,-0.108348 -0.54175,-0.05418 -0.758446,0.05418 0,0 -0.0542,0 -0.0542,0.05418 -0.108348,0.05418 -0.216696,0.108348 -0.325053,0.2167 -0.541749,0.541752 -2.437872,3.087982 -2.437872,3.087982 l -4.117306,5.146633 -4.82159,5.905084 -8.288784,10.293268 c 0,0 -3.792262,4.713232 -2.97963,10.564142 0.812624,5.850909 5.200806,8.668014 8.559668,9.805691 3.358852,1.137677 8.559656,1.516903 12.731141,-2.600404 4.063128,-4.171482 3.95478,-10.239092 3.95478,-10.239092 z m 10.889199,-27.845995 0.487571,9.426464 C 97.679035,43.92414 100.71285,55.896835 96.920584,67.165255 91.232201,83.959535 72.487621,92.790075 54.989066,86.884989 37.490511,80.979903 28.009864,62.560371 33.698249,45.766094 37.54468,34.443501 47.242024,26.750638 58.510446,24.746158 l 6.067607,-7.205287 C 45.562597,17.053295 27.68482,28.809291 21.237981,47.770572 c -7.855392,23.29529 4.604886,48.540877 27.900174,56.396268 23.295288,7.85539 48.54088,-4.604869 56.396275,-27.90017 6.39265,-18.852932 -0.6501,-39.114415 -15.981655,-50.220308 z" /></svg>
