<?xml version="1.0" encoding="UTF-8" standalone="no"?>
<svg
   width="128"
   height="128"
   version="1"
   id="svg44"
   xmlns:xlink="http://www.w3.org/1999/xlink"
   xmlns="http://www.w3.org/2000/svg"
   xmlns:svg="http://www.w3.org/2000/svg">
  <defs
     id="defs48">
    <linearGradient
       id="linearGradient2402">
      <stop
         style="stop-color:#888a85;stop-opacity:1;"
         offset="0"
         id="stop2390" />
      <stop
         style="stop-color:#e4e4e4;stop-opacity:1;"
         offset="0.03567462"
         id="stop2392" />
      <stop
         style="stop-color:#888a85;stop-opacity:1;"
         offset="0.07302466"
         id="stop2394" />
      <stop
         style="stop-color:#888a85;stop-opacity:1;"
         offset="0.85139793"
         id="stop2396" />
      <stop
         style="stop-color:#e4e4e4;stop-opacity:1;"
         offset="0.92817277"
         id="stop2398" />
      <stop
         style="stop-color:#888a85;stop-opacity:1;"
         offset="1"
         id="stop2400" />
    </linearGradient>
    <linearGradient
       xlink:href="#linearGradient2402"
       id="linearGradient2388"
       x1="-132.76978"
       y1="207.15074"
       x2="-28.769787"
       y2="207.15074"
       gradientUnits="userSpaceOnUse"
       gradientTransform="translate(144.76978,-141.15074)" />
  </defs>
  <path
     id="path1505-6"
     style="display:inline;fill:url(#linearGradient2388);fill-opacity:1;stroke:none;stroke-width:0.25;stroke-linecap:butt;stroke-linejoin:miter;stroke-miterlimit:4;stroke-dasharray:none;stroke-dashoffset:0;stroke-opacity:1;marker:none;marker-start:none;marker-mid:none;marker-end:none;paint-order:normal;enable-background:new"
     d="m 20,15.999998 c -4.432,0 -8.00001,3.56801 -8,8 V 108 c 0,4.432 3.568,8 8,8 h 46 c 0.86561,0 1.72551,-0.0214 2.58007,-0.0645 0.85456,-0.043 1.70246,-0.10832 2.544932,-0.19336 0.84245,-0.085 1.67847,-0.19039 2.50781,-0.31641 0.82934,-0.12602 1.65162,-0.27348 2.46679,-0.43945 0.81519,-0.16597 1.62384,-0.34981 2.42383,-0.55469 0.8,-0.20488 1.59318,-0.42911 2.37696,-0.67187 0.78376,-0.24276 1.5577,-0.50555 2.32421,-0.78516 0.76653,-0.27961 1.5252,-0.57715 2.27344,-0.89258 0.74824,-0.31543 1.48592,-0.64783 2.21485,-0.99805 0.72891,-0.3502 1.44962,-0.71759 2.1582,-1.10156 0.70858,-0.38397 1.40655,-0.78447 2.09375,-1.20117 0.6872,-0.4167 1.36255,-0.85044 2.02734,-1.29883 0.6648,-0.44839 1.31763,-0.91157 1.95899,-1.39062 0.64135,-0.47905 1.27179,-0.97375 1.88867,-1.48242 0.61688,-0.50868 1.22112,-1.03109 1.8125,-1.56836 0.591378,-0.53728 1.169528,-1.08946 1.734368,-1.6543 0.56485,-0.56484 1.11702,-1.143 1.6543,-1.734382 0.53728,-0.59137 1.05968,-1.19561 1.56836,-1.8125 0.50868,-0.61688 1.00337,-1.24537 1.48242,-1.88671 0.47905,-0.64136 0.94224,-1.29615 1.39063,-1.96094 0.44839,-0.6648 0.88214,-1.34014 1.29882,-2.02735 0.4167,-0.68719 0.81721,-1.38516 1.20118,-2.09375 0.38397,-0.70857 0.75134,-1.42732 1.10156,-2.15625 0.35022,-0.72892 0.68262,-1.46855 0.99805,-2.21679 0.31543,-0.74824 0.61296,-1.50496 0.89257,-2.27149 0.27962,-0.76652 0.54045,-1.54239 0.78321,-2.32617 0.24276,-0.78377 0.46699,-1.57696 0.67187,-2.37695 0.20488,-0.8 0.39068,-1.60669 0.55664,-2.42188 0.16597,-0.81518 0.31343,-1.63745 0.43946,-2.46679 0.12602,-0.82934 0.23136,-1.6673 0.3164,-2.50977 0.085,-0.84247 0.14837,-1.69036 0.19141,-2.54492 0.043,-0.85456 0.0664,-1.71446 0.0664,-2.58008 0,-0.86562 -0.0234,-1.72552 -0.0664,-2.58008 -0.043,-0.85456 -0.10636,-1.70441 -0.19141,-2.54687 -0.085,-0.84247 -0.19038,-1.67847 -0.3164,-2.50781 -0.12603,-0.82935 -0.27349,-1.65162 -0.43946,-2.4668 -0.16596,-0.81519 -0.35176,-1.62384 -0.55664,-2.42383 -0.20488,-0.79999 -0.42911,-1.59123 -0.67187,-2.375 -0.24276,-0.78377 -0.50359,-1.55965 -0.78321,-2.32617 -0.27961,-0.76652 -0.57714,-1.52325 -0.89257,-2.27149 -0.31543,-0.74824 -0.64783,-1.48787 -0.99805,-2.21679 -0.35022,-0.72893 -0.71759,-1.44767 -1.10156,-2.15625 -0.38397,-0.70858 -0.78448,-1.40655 -1.20118,-2.09375 -0.41668,-0.6872 -0.85043,-1.36451 -1.29882,-2.0293 -0.44839,-0.66479 -0.91158,-1.31763 -1.39063,-1.95898 -0.47905,-0.64136 -0.97374,-1.26984 -1.48242,-1.88672 -0.50868,-0.61688 -1.03108,-1.22113 -1.56836,-1.8125 -0.53728,-0.59138 -1.08945,-1.17149 -1.6543,-1.73633 -0.56484,-0.56484 -1.14299,-1.11507 -1.734368,-1.65234 -0.59138,-0.53728 -1.19562,-1.06164 -1.8125,-1.57032 -0.61688,-0.50868 -1.24732,-1.00142 -1.88867,-1.48047 -0.64136,-0.47905 -1.29419,-0.94419 -1.95899,-1.39257 -0.66479,-0.44839 -1.34014,-0.88019 -2.02734,-1.29688 -0.6872,-0.4167 -1.38517,-0.8172 -2.09375,-1.20117 -0.70858,-0.38397 -1.42929,-0.75135 -2.1582,-1.10156 -0.72893,-0.35022 -1.46661,-0.68457 -2.21485,-1 -0.74824,-0.31543 -1.50691,-0.61297 -2.27344,-0.89258 -0.76651,-0.27961 -1.54045,-0.54044 -2.32421,-0.7832 -0.78378,-0.24277 -1.57696,-0.467 -2.37696,-0.67188 -0.79999,-0.20488 -1.60864,-0.39067 -2.42383,-0.55664 -0.81517,-0.16597 -1.63745,-0.31148 -2.46679,-0.4375 -0.82934,-0.12602 -1.66536,-0.23331 -2.50781,-0.31836 -0.842472,-0.0851 -1.690372,-0.14837 -2.544932,-0.19141 -0.85456,-0.043 -1.71446,-0.0644 -2.58007,-0.0644 z" />
  <path
     id="path1505"
     style="display:inline;fill:#e4e4e4;fill-opacity:1;stroke:none;stroke-width:0.25;stroke-linecap:butt;stroke-linejoin:miter;stroke-miterlimit:4;stroke-dasharray:none;stroke-dashoffset:0;stroke-opacity:1;marker:none;marker-start:none;marker-mid:none;marker-end:none;paint-order:normal;enable-background:new"
     d="m 20,11.999996 c -4.432,0 -8.00001,3.56801 -8,8 V 104 c 0,4.432 3.568,8 8,8 h 46 c 0.86561,0 1.72551,-0.0214 2.58007,-0.0645 0.85456,-0.043 1.70246,-0.10832 2.544931,-0.19336 0.84245,-0.085 1.67847,-0.19039 2.50781,-0.31641 0.82934,-0.12602 1.65162,-0.27348 2.46679,-0.43945 0.81519,-0.16597 1.62384,-0.34981 2.42383,-0.55469 0.8,-0.20488 1.59318,-0.42911 2.37696,-0.67187 0.78376,-0.24276 1.5577,-0.50555 2.32421,-0.78516 0.76653,-0.27961 1.5252,-0.57715 2.27344,-0.89258 0.74824,-0.31543 1.48592,-0.64783 2.21485,-0.99805 0.72891,-0.3502 1.44962,-0.71759 2.1582,-1.10156 0.70858,-0.38397 1.40655,-0.78447 2.09375,-1.20117 0.6872,-0.4167 1.36255,-0.85044 2.02734,-1.29883 0.6648,-0.44839 1.31763,-0.91157 1.95899,-1.39062 0.64135,-0.47905 1.27179,-0.97375 1.88867,-1.48242 0.61688,-0.50868 1.22112,-1.031094 1.8125,-1.568364 0.591379,-0.53728 1.169529,-1.08946 1.734369,-1.6543 0.56485,-0.56484 1.11702,-1.143 1.6543,-1.73438 0.53728,-0.59137 1.05968,-1.19561 1.56836,-1.8125 0.50868,-0.61688 1.00337,-1.24537 1.48242,-1.88671 0.47905,-0.64136 0.94224,-1.29615 1.39063,-1.96094 0.44839,-0.6648 0.88214,-1.34014 1.29882,-2.02735 0.4167,-0.68719 0.81721,-1.38516 1.20118,-2.09375 0.38397,-0.70857 0.75134,-1.42732 1.10156,-2.15625 0.35022,-0.72892 0.68262,-1.46855 0.99805,-2.21679 0.31543,-0.74824 0.61296,-1.50496 0.89257,-2.27149 0.27962,-0.76652 0.54045,-1.54239 0.78321,-2.32617 0.24276,-0.78377 0.46699,-1.57696 0.67187,-2.37695 0.20488,-0.8 0.39068,-1.60669 0.55664,-2.42188 0.16597,-0.81518 0.31343,-1.63745 0.43946,-2.46679 0.12602,-0.82934 0.23136,-1.6673 0.3164,-2.50977 0.085,-0.84247 0.14837,-1.69036 0.19141,-2.54492 0.043,-0.85456 0.0664,-1.71446 0.0664,-2.58008 0,-0.86562 -0.0234,-1.72552 -0.0664,-2.58008 -0.043,-0.85456 -0.10636,-1.70441 -0.19141,-2.54687 -0.085,-0.84247 -0.19038,-1.67847 -0.3164,-2.50781 -0.12603,-0.82935 -0.27349,-1.65162 -0.43946,-2.4668 -0.16596,-0.81519 -0.35176,-1.62384 -0.55664,-2.42383 -0.20488,-0.79999 -0.42911,-1.59123 -0.67187,-2.375 -0.24276,-0.78377 -0.50359,-1.55965 -0.78321,-2.32617 -0.27961,-0.76652 -0.57714,-1.52325 -0.89257,-2.27149 -0.31543,-0.74824 -0.64783,-1.48787 -0.99805,-2.21679 -0.35022,-0.72893 -0.71759,-1.44767 -1.10156,-2.15625 -0.38397,-0.70858 -0.78448,-1.40655 -1.20118,-2.09375 -0.41668,-0.6872 -0.85043,-1.36451 -1.29882,-2.0293 -0.44839,-0.66479 -0.91158,-1.31763 -1.39063,-1.95898 -0.47905,-0.64136 -0.97374,-1.26984 -1.48242,-1.88672 -0.50868,-0.61688 -1.03108,-1.22113 -1.56836,-1.8125 -0.53728,-0.59138 -1.08945,-1.17149 -1.6543,-1.73633 -0.56484,-0.56484 -1.14299,-1.11507 -1.734369,-1.65234 -0.59138,-0.53728 -1.19562,-1.06164 -1.8125,-1.57032 -0.61688,-0.50868 -1.24732,-1.00142 -1.88867,-1.48047 -0.64136,-0.47905 -1.29419,-0.94419 -1.95899,-1.39257 -0.66479,-0.44839 -1.34014,-0.88019 -2.02734,-1.29688 -0.6872,-0.4167 -1.38517,-0.8172 -2.09375,-1.20117 -0.70858,-0.38397 -1.42929,-0.75135 -2.1582,-1.10156 -0.72893,-0.35022 -1.46661,-0.68457 -2.21485,-1 -0.74824,-0.31543 -1.50691,-0.61297 -2.27344,-0.89258 -0.76651,-0.27961 -1.54045,-0.54044 -2.32421,-0.7832 -0.78378,-0.24277 -1.57696,-0.467 -2.37696,-0.67188 -0.79999,-0.20488 -1.60864,-0.39067 -2.42383,-0.55664 -0.81517,-0.16597 -1.63745,-0.31148 -2.46679,-0.4375 -0.82934,-0.12602 -1.66536,-0.23331 -2.50781,-0.31836 -0.842471,-0.0851 -1.690371,-0.14837 -2.544931,-0.19141 -0.85456,-0.043 -1.71446,-0.0644 -2.58007,-0.0644 z" />
  <path
     d="m 25.937156,22.001062 c -1.08267,0.06363 -1.937166,1.103206 -1.937166,2.381422 v 75.236033 c 0,1.319493 0.911118,2.381463 2.043179,2.381463 h 2.47366 V 22.001062 h -2.47366 c -0.03537,0 -0.07109,-0.0018 -0.10602,0 z"
     id="path3018"
     style="display:inline;fill:#ff0302;fill-opacity:1;stroke:none;stroke-width:1.7773" />
  <path
     d="m 32.937292,22.000102 v 79.999838 h 2.643927 c 1.132059,0 2.043176,-1.06195 2.043176,-2.381458 V 24.381595 c 0,-1.319453 -0.911117,-2.381493 -2.043176,-2.381493 z"
     id="rect3006"
     style="display:inline;fill:#120ffe;fill-opacity:1;stroke:none;stroke-width:1.7773" />
  <rect
     width="4.4204626"
     height="79.999817"
     rx="0"
     ry="0"
     x="28.516203"
     y="22.000158"
     id="rect3010"
     style="display:inline;fill:#01d318;fill-opacity:1;stroke:none;stroke-width:1.7773" />
  <path
     d="m 68.257783,62.387296 a 11.410511,11.913999 0 1 1 -22.821022,0 11.410511,11.913999 0 1 1 22.821022,0 z"
     id="path3792"
     style="display:inline;fill:#000000;fill-opacity:1;stroke:none;stroke-width:0.0953914" />
  <g
     transform="matrix(1.7785958,0,0,1.7760113,24.002182,-1319.9941)"
     id="text3794"
     style="display:inline;fill:#ffffff;fill-opacity:1;stroke:#000000;stroke-width:0.0579989">
    <path
       d="m 19.038029,780.10284 h -1.223916 c -0.0032,-0.17599 -0.0048,-0.28318 -0.0048,-0.32158 -2e-6,-0.39677 0.06559,-0.72315 0.196787,-0.97913 0.131188,-0.25598 0.39357,-0.54396 0.787146,-0.86394 0.39357,-0.31998 0.628753,-0.52956 0.705552,-0.62876 0.118388,-0.15679 0.177584,-0.32957 0.177588,-0.51837 -4e-6,-0.26237 -0.104797,-0.48716 -0.314379,-0.67435 -0.209589,-0.18718 -0.49197,-0.28078 -0.847142,-0.28078 -0.342379,0 -0.62876,0.0976 -0.859141,0.29278 -0.230387,0.19519 -0.388776,0.49277 -0.475168,0.89274 l -1.238316,-0.15359 c 0.0352,-0.57276 0.279181,-1.05912 0.731951,-1.4591 0.452767,-0.39997 1.047126,-0.59995 1.783078,-0.59996 0.774343,10e-6 1.390301,0.20239 1.847874,0.60716 0.457564,0.40478 0.686348,0.87594 0.686353,1.4135 -5e-6,0.29759 -0.084,0.57917 -0.251983,0.84474 -0.167993,0.26559 -0.527168,0.62716 -1.077526,1.08473 -0.284785,0.23679 -0.461572,0.42717 -0.530364,0.57116 -0.0688,0.14399 -0.1,0.40158 -0.09359,0.77275 z m -1.223916,1.81427 v -1.3487 h 1.348708 v 1.3487 z"
       id="path2999" />
  </g>
  <path
     d="m 62.373049,38.366629 c -0.541304,0 -1.075734,0.01778 -1.608272,0.05315 10.504622,0.804182 18.813586,11.046834 18.813586,23.568223 0,12.521372 -8.308964,22.767596 -18.813586,23.571796 0.532538,0.03359 1.066968,0.05315 1.608272,0.05315 13.480719,0 24.410376,-10.578985 24.410376,-23.625297 0,-13.046224 -10.929657,-23.621672 -24.410376,-23.621672 z"
     id="path3813"
     style="display:inline;fill:#000000;stroke:none;stroke-width:1.7773" />
  <path
     d="m 57.356849,21.999961 c 20.881726,0.276806 37.726877,18.074677 37.726877,39.989992 0,21.915316 -16.845151,39.713207 -37.726877,39.989977 25.805809,-0.22475 46.643141,-18.041974 46.643141,-39.989977 0,-21.948003 -20.837332,-39.765195 -46.643141,-39.989992 z"
     id="path3042"
     style="fill:#000000;stroke:none;stroke-width:1.7773" />
</svg>
