<?xml version="1.0" encoding="UTF-8"?>
<svg height="128px" viewBox="0 0 128 128" width="128px" xmlns="http://www.w3.org/2000/svg" xmlns:xlink="http://www.w3.org/1999/xlink">
    <linearGradient id="a" gradientTransform="matrix(-1 0 0 -1 14 -172)" gradientUnits="userSpaceOnUse" x1="-108" x2="-20" y1="-274" y2="-274">
        <stop offset="0" stop-color="#a01bca"/>
        <stop offset="0.045" stop-color="#ca64ea"/>
        <stop offset="0.091" stop-color="#a01bca"/>
        <stop offset="0.909" stop-color="#a01bca"/>
        <stop offset="0.955" stop-color="#ca64ea"/>
        <stop offset="1" stop-color="#a01bca"/>
    </linearGradient>
    <linearGradient id="b" gradientTransform="matrix(-1 0 0 -1 14 -172)" gradientUnits="userSpaceOnUse" x1="-108" x2="-20" y1="-274" y2="-274">
        <stop offset="0" stop-color="#380c50"/>
        <stop offset="0.045" stop-color="#7719aa"/>
        <stop offset="0.091" stop-color="#380c50"/>
        <stop offset="0.909" stop-color="#380c50"/>
        <stop offset="0.955" stop-color="#7719aa"/>
        <stop offset="1" stop-color="#380c50"/>
    </linearGradient>
    <linearGradient id="c" gradientUnits="userSpaceOnUse" x1="5.999999" x2="67.999992" y1="92.999985" y2="92.999985">
        <stop offset="0" stop-color="#3b0d54"/>
        <stop offset="0.045" stop-color="#7a1bac"/>
        <stop offset="0.091" stop-color="#3b0d54"/>
        <stop offset="0.909" stop-color="#27073b"/>
        <stop offset="0.955" stop-color="#621197"/>
        <stop offset="1" stop-color="#27073b"/>
    </linearGradient>
    <linearGradient id="d" gradientUnits="userSpaceOnUse" x1="5.999999" x2="67.999992" y1="26.999994" y2="88.999985">
        <stop offset="0" stop-color="#8324b3"/>
        <stop offset="0.5" stop-color="#7a1bac"/>
        <stop offset="1" stop-color="#621197"/>
    </linearGradient>
    <path d="m 114 120 h -72 c -4.417969 0 -8 -3.582031 -8 -8 v -24 c 0 -4.417969 3.582031 -8 8 -8 h 72 c 4.417969 0 8 3.582031 8 8 v 24 c 0 4.417969 -3.582031 8 -8 8 z m 0 0" fill="url(#a)"/>
    <path d="m 103 89 c -4.433594 0 -8 3.566406 -8 8 v 23 h 19 c 4.433594 0 8 -3.566406 8 -8 v -23 z m 0 0" fill="url(#b)"/>
    <path d="m 42 8 c -4.433594 0 -8 3.566406 -8 8 v 92 c 0 4.433594 3.566406 8 8 8 h 53 v -81 h 27 v -19 c 0 -4.433594 -3.566406 -8 -8 -8 z m 0 0" fill="#ca64ea"/>
    <path d="m 95 35 h 27 v 27 h -27 z m 0 0" fill="#ae4bd5"/>
    <path d="m 95 62 h 27 v 27 h -27 z m 0 0" fill="#9332bf"/>
    <path d="m 95 116 v -27 h 27 v 19 c 0 4.433594 -3.566406 8 -8 8 z m 0 0" fill="#7719aa"/>
    <path d="m 14 31 h 46 c 4.417969 0 8 3.582031 8 8 v 46 c 0 4.417969 -3.582031 8 -8 8 h -46 c -4.417969 0 -8 -3.582031 -8 -8 v -46 c 0 -4.417969 3.582031 -8 8 -8 z m 0 0" fill="url(#c)"/>
    <path d="m 14 27 h 46 c 4.417969 0 8 3.582031 8 8 v 46 c 0 4.417969 -3.582031 8 -8 8 h -46 c -4.417969 0 -8 -3.582031 -8 -8 v -46 c 0 -4.417969 3.582031 -8 8 -8 z m 0 0" fill="url(#d)"/>
    <path d="m 22.980469 41.210938 h 7.003906 l 13.761719 22.261718 c 0.625 0.996094 1.097656 1.800782 1.410156 2.410156 h 0.089844 c -0.171875 -1.515624 -0.238282 -3.042968 -0.203125 -4.566406 v -20.105468 h 5.976562 v 33.578124 h -6.558593 l -14.273438 -22.878906 c -0.484375 -0.753906 -0.910156 -1.546875 -1.277344 -2.363281 h -0.109375 c 0.140625 1.664063 0.203125 3.335937 0.175781 5.007813 v 20.234374 h -5.996093 z m 0 0" fill="#ffffff"/>
</svg>
