<?xml version="1.0" encoding="UTF-8" standalone="no"?>
<svg
   width="128"
   height="128"
   version="1.1"
   id="svg425"
   xml:space="preserve"
   xmlns:xlink="http://www.w3.org/1999/xlink"
   xmlns="http://www.w3.org/2000/svg"
   xmlns:svg="http://www.w3.org/2000/svg"><defs
     id="defs429"><linearGradient
       id="linearGradient3123"><stop
         style="stop-color:#018ed5;stop-opacity:1;"
         offset="0.3031787"
         id="stop3119" /><stop
         style="stop-color:#2ab120;stop-opacity:1;"
         offset="0.94986671"
         id="stop3121" /></linearGradient><linearGradient
       id="linearGradient2946"><stop
         style="stop-color:#3fbefe;stop-opacity:1;"
         offset="0.3031787"
         id="stop2942" /><stop
         style="stop-color:#61e157;stop-opacity:1;"
         offset="0.94986671"
         id="stop2944" /></linearGradient><linearGradient
       xlink:href="#linearGradient2946"
       id="linearGradient2948"
       x1="4.6614366"
       y1="21.451643"
       x2="124.28503"
       y2="55.812519"
       gradientUnits="userSpaceOnUse" /><linearGradient
       xlink:href="#linearGradient3123"
       id="linearGradient3116"
       gradientUnits="userSpaceOnUse"
       x1="4.6614366"
       y1="21.451643"
       x2="124.28503"
       y2="55.812519"
       gradientTransform="translate(1.35e-6,2)" /></defs><path
     style="fill:#093b6c;fill-opacity:1;stroke-width:2.1404"
     class="cls-1"
     d="m 112.25082,94.333794 c -5.74303,5.650453 -14.651775,6.991696 -21.741942,7.026526 -22.153936,0 -41.452014,-17.034699 -41.452014,-36.58761 0.05775,-5.340177 3.000632,-10.231181 7.692078,-12.78406 -20.037793,0.842597 -25.187694,21.72026 -25.187694,33.951951 0,34.583899 31.87788,38.090029 38.745974,38.090029 3.703245,0 9.288549,-1.07665 12.640667,-2.13458 l 0.613304,-0.20595 c 12.899302,-4.45877 23.896037,-13.17572 31.180297,-24.716148 0.33257,-0.523897 0.30142,-3.003741 0.30142,-3.003741 -0.3331,-1.025813 -2.79209,-0.277823 -2.79209,0.363602 z"
     id="path411" /><path
     style="fill:#0d559d;stroke-width:2.1404;fill-opacity:1"
     class="cls-1"
     d="m 112.25082,92.193492 c -5.74303,5.650452 -14.651775,6.991692 -21.741942,7.026523 -22.153936,0 -41.452014,-17.034696 -41.452014,-36.587606 0.05775,-5.340177 3.000632,-10.231182 7.692078,-12.784061 -20.037793,0.842597 -25.187694,21.720261 -25.187694,33.951952 0,34.58389 31.87788,38.09003 38.745974,38.09003 3.703245,0 9.288549,-1.07665 12.640667,-2.13458 l 0.613304,-0.20595 c 12.899302,-4.45878 23.896037,-13.17572 31.180297,-24.716152 1.04035,-1.63888 -0.79366,-3.582947 -2.49067,-2.640136 z"
     id="path413" /><path
     style="fill:#025ea1;fill-opacity:1;stroke-width:2.1404"
     class="cls-3"
     d="M 51.772572,118.15119 C 47.596767,115.55974 43.977883,112.16411 41.126326,108.16173 27.289718,89.207238 35.69515,62.358373 56.748942,51.98865 c 1.4607,-0.688118 3.956058,-1.933288 7.275406,-1.87243 4.740717,0.03467 9.191762,2.28658 12.027352,6.085413 1.890589,2.523969 2.932975,5.581858 2.977579,8.734914 0,-0.09829 11.451508,-37.261477 -37.453813,-37.261477 -20.552785,0 -37.4538185,19.501419 -37.4538185,36.610806 -0.081068,9.05064 1.8557121,18.005631 5.6695715,26.214102 12.90174,27.523942 44.371891,41.027432 73.212849,31.414802 0,0 0.03348,-2.19063 8.9e-4,-2.17895 -9.437987,3.38417 -23.578088,3.19436 -31.190145,-1.56592 z"
     id="path415" /><path
     style="fill:#037cd5;stroke-width:2.1404;fill-opacity:1"
     class="cls-3"
     d="M 51.772572,116.01088 C 47.596767,113.41944 43.977883,110.02381 41.126326,106.02143 27.289718,87.066936 35.69515,60.218072 56.748942,49.848348 c 1.4607,-0.688117 3.956058,-1.93329 7.275406,-1.87243 4.740717,0.03468 9.191762,2.286581 12.027352,6.085414 1.890589,2.523966 2.932975,5.581858 2.977579,8.734912 0,-0.09829 11.451508,-37.261477 -37.453813,-37.261477 -20.552785,0 -37.4538185,19.50142 -37.4538185,36.610807 -0.081068,9.050639 1.8557121,18.005631 5.6695715,26.214103 12.90174,27.523943 44.378391,40.990043 73.219349,31.377413 -9.873306,3.11258 -22.418772,1.78136 -31.195856,-3.70748 z"
     id="path417" /><path
     style="fill:url(#linearGradient3116);fill-opacity:1;stroke-width:2.1404"
     class="cls-5"
     d="m 75.386898,72.029924 c -0.298325,0.386659 -1.2038,-0.401178 -1.525184,0.515749 -0.08716,0.248667 -0.01979,1.818173 -0.01979,2.133751 0,1.22176 0.7959,2.39672 2.20977,3.38443 6.73233,4.68109 19.42449,4.06319 19.45726,4.06319 4.988502,-0.012 9.882452,-1.3618 14.171592,-3.90872 8.8043,-5.14011 14.2256,-11.90695 14.24649,-22.100823 0.12173,-10.490324 -3.74538,-17.465145 -5.30908,-20.554667 C 108.69738,16.159716 87.283168,4.9999974 63.996258,4.9999974 31.226304,4.9967574 4.5790554,31.392601 4.1182284,64.154854 4.3429504,47.050151 21.298905,31.101185 41.523968,31.101185 c 1.638598,0 10.98333,0.15916 19.66325,4.713859 7.64994,4.01637 11.6575,10.921555 14.44313,15.729035 4.04879,7.638585 4.22304,14.654435 -0.24345,20.485845 z"
     id="path421-6" /><path
     style="fill:url(#linearGradient2948);stroke-width:2.1404;fill-opacity:1"
     class="cls-5"
     d="m 75.386897,70.029931 c -0.379226,0.491512 -1.544974,1.170267 -1.544974,2.649495 0,1.221761 0.7959,2.396719 2.209777,3.384431 6.732326,4.681087 19.424488,4.063185 19.457262,4.063185 4.988498,-0.01199 9.882448,-1.361792 14.171588,-3.908716 8.8043,-5.140105 14.2256,-11.906952 14.24649,-22.100822 C 124.04877,43.62718 120.18166,36.652359 118.61796,33.562837 108.69738,14.159719 87.283166,2.9999996 63.996254,2.9999996 31.226303,2.9967603 4.5790544,29.392604 4.1182267,62.154855 4.3429488,45.050154 21.298904,29.101188 41.523967,29.101188 c 1.638598,0 10.983332,0.15916 19.663251,4.713859 7.649942,4.01637 11.657502,10.921555 14.443129,15.729035 4.048795,7.638585 4.22304,14.654431 -0.24345,20.485849 z"
     id="path421" /></svg>
