<?xml version="1.0" encoding="UTF-8"?>
<svg height="128px" viewBox="0 0 128 128" width="128px" xmlns="http://www.w3.org/2000/svg" xmlns:xlink="http://www.w3.org/1999/xlink">
    <linearGradient id="a" gradientUnits="userSpaceOnUse">
        <stop offset="0" stop-color="#2a3188"/>
        <stop offset="0.0700288" stop-color="#5059c9"/>
        <stop offset="0.151849" stop-color="#2a3188"/>
        <stop offset="0.84845" stop-color="#2a3188"/>
        <stop offset="0.925149" stop-color="#5059c9"/>
        <stop offset="1" stop-color="#2a3188"/>
    </linearGradient>
    <linearGradient id="b" x1="84.198774" x2="121.998754" xlink:href="#a" y1="78.149971" y2="78.149971"/>
    <linearGradient id="c" x1="94.9988" x2="119.298788" xlink:href="#a" y1="34.949974" y2="34.949974"/>
    <linearGradient id="d" gradientUnits="userSpaceOnUse">
        <stop offset="0" stop-color="#4e59e4"/>
        <stop offset="0.0672815" stop-color="#7b83eb"/>
        <stop offset="0.148591" stop-color="#4e59e4"/>
        <stop offset="0.847397" stop-color="#4e59e4"/>
        <stop offset="0.92771" stop-color="#7b83eb"/>
        <stop offset="1" stop-color="#4e59e4"/>
    </linearGradient>
    <linearGradient id="e" x1="51.798773" x2="86.898794" xlink:href="#d" y1="29.550007" y2="29.550007"/>
    <linearGradient id="f" x1="38.290399" x2="97.707235" xlink:href="#d" y1="86.25" y2="86.25"/>
    <linearGradient id="g" gradientUnits="userSpaceOnUse" x1="5.999999" x2="67.999991" y1="92.999987" y2="92.999987">
        <stop offset="0" stop-color="#20245f"/>
        <stop offset="0.045" stop-color="#5a62c3"/>
        <stop offset="0.091" stop-color="#20245f"/>
        <stop offset="0.909" stop-color="#20245f"/>
        <stop offset="0.955" stop-color="#5a62c3"/>
        <stop offset="1" stop-color="#20245f"/>
    </linearGradient>
    <linearGradient id="h" gradientUnits="userSpaceOnUse" x1="5.999999" x2="67.999991" y1="26.999994" y2="88.999986">
        <stop offset="0" stop-color="#5a62c3"/>
        <stop offset="0.5" stop-color="#4d55bd"/>
        <stop offset="1" stop-color="#3940ab"/>
    </linearGradient>
    <path d="m 86.878906 52.5 h 29.988282 c 2.835937 0 5.132812 2.296875 5.132812 5.128906 v 27.316406 c 0 10.414063 -8.441406 18.855469 -18.855469 18.855469 h -0.089843 c -10.410157 0 -18.855469 -8.4375 -18.855469 -18.851562 v -0.003907 v -29.765624 c 0 -1.480469 1.199219 -2.679688 2.679687 -2.679688 z m 0 0" fill="url(#b)"/>
    <path d="m 86.878906 48.5 c -1.480468 0 -2.679687 1.199219 -2.679687 2.683594 v 29.765625 c 0 10.414062 8.445312 18.851562 18.855469 18.851562 h 0.089843 c 10.414063 0 18.855469 -8.441406 18.855469 -18.855469 v -24.445312 c 0 -4.433594 -3.570312 -8 -8 -8 z m 0 0" fill="#5059c9"/>
    <path d="m 107.148438 22.800781 c -5.15625 0.011719 -9.742188 3.28125 -11.441407 8.148438 h -0.707031 v 4 c 0 6.710937 5.4375 12.148437 12.148438 12.148437 c 6.710937 0.003906 12.148437 -5.4375 12.148437 -12.148437 v -4 h -0.679687 c -1.699219 -4.878907 -6.300782 -8.148438 -11.46875 -8.148438 z m 0 0" fill="url(#c)"/>
    <path d="m 119.296875 30.949219 c 0 6.710937 -5.4375 12.152343 -12.148437 12.152343 c -6.710938 0 -12.148438 -5.441406 -12.148438 -12.152343 c 0 -6.710938 5.4375 -12.148438 12.148438 -12.148438 c 6.710937 0 12.148437 5.4375 12.148437 12.148438 z m 0 0" fill="#5059c9"/>
    <path d="m 69.347656 12 c -8.132812 0.019531 -15.191406 5.628906 -17.042968 13.550781 h -0.507813 v 4 c 0.003906 9.691407 7.859375 17.550781 17.550781 17.546875 c 9.691406 0 17.550782 -7.855468 17.550782 -17.546875 v -4 h -0.464844 c -1.859375 -7.9375 -8.933594 -13.546875 -17.085938 -13.550781 z m 0 0" fill="url(#e)"/>
    <path d="m 86.898438 25.550781 c 0 9.691407 -7.855469 17.550781 -17.550782 17.550781 c -9.691406 0 -17.550781 -7.859374 -17.550781 -17.550781 c 0 -9.695312 7.859375 -17.550781 17.550781 -17.550781 c 9.695313 0 17.550782 7.855469 17.550782 17.550781 z m 0 0" fill="#7b83eb"/>
    <path d="m 92.75 52.5 h -49.503906 c -2.796875 0.070312 -5.011719 2.390625 -4.949219 5.191406 v 31.15625 c -0.390625 16.800782 12.902344 30.742188 29.703125 31.152344 c 16.796875 -0.410156 30.089844 -14.351562 29.699219 -31.152344 v -31.15625 c 0.066406 -2.800781 -2.148438 -5.121094 -4.949219 -5.191406 z m 0 0" fill="url(#f)"/>
    <path d="m 46.289062 48.5 c -4.378906 0 -7.90625 3.484375 -7.992187 7.84375 v 28.503906 c -0.390625 16.800782 12.902344 30.742188 29.703125 31.152344 c 16.800781 -0.410156 30.089844 -14.351562 29.699219 -31.152344 v -28.503906 c -0.082031 -4.359375 -3.613281 -7.84375 -7.992188 -7.84375 z m 0 0" fill="#7b83eb"/>
    <path d="m 14 31 h 46 c 4.417969 0 8 3.582031 8 8 v 46 c 0 4.417969 -3.582031 8 -8 8 h -46 c -4.417969 0 -8 -3.582031 -8 -8 v -46 c 0 -4.417969 3.582031 -8 8 -8 z m 0 0" fill="url(#g)"/>
    <path d="m 14 27 h 46 c 4.417969 0 8 3.582031 8 8 v 46 c 0 4.417969 -3.582031 8 -8 8 h -46 c -4.417969 0 -8 -3.582031 -8 -8 v -46 c 0 -4.417969 3.582031 -8 8 -8 z m 0 0" fill="url(#h)"/>
    <path d="m 50.59375 46.664062 h -10.328125 v 28.125 h -6.578125 v -28.125 h -10.28125 v -5.453124 h 27.1875 z m 0 0" fill="#ffffff"/>
</svg>
