<?xml version="1.0" encoding="UTF-8"?>
<svg height="128px" viewBox="0 0 128 128" width="128px" xmlns="http://www.w3.org/2000/svg" xmlns:xlink="http://www.w3.org/1999/xlink">
    <linearGradient id="a" gradientTransform="matrix(-1 0 0 -1 14 -172)" gradientUnits="userSpaceOnUse" x1="-108" x2="-20" y1="-274" y2="-274">
        <stop offset="0" stop-color="#061837"/>
        <stop offset="0.045" stop-color="#103f91"/>
        <stop offset="0.091" stop-color="#061837"/>
        <stop offset="0.909" stop-color="#061837"/>
        <stop offset="0.955" stop-color="#103f91"/>
        <stop offset="1" stop-color="#061837"/>
    </linearGradient>
    <linearGradient id="b" gradientUnits="userSpaceOnUse" x1="5.999999" x2="67.999991" y1="92.999987" y2="92.999987">
        <stop offset="0" stop-color="#08204f"/>
        <stop offset="0.045" stop-color="#1146ac"/>
        <stop offset="0.091" stop-color="#08204f"/>
        <stop offset="0.909" stop-color="#08204f"/>
        <stop offset="0.955" stop-color="#1146ac"/>
        <stop offset="1" stop-color="#08204f"/>
    </linearGradient>
    <linearGradient id="c" gradientUnits="userSpaceOnUse" x1="5.999999" x2="67.999991" y1="26.999994" y2="88.999986">
        <stop offset="0" stop-color="#2368c4"/>
        <stop offset="0.5" stop-color="#1a5dbe"/>
        <stop offset="1" stop-color="#1146ac"/>
    </linearGradient>
    <path d="m 114 120 h -72 c -4.417969 0 -8 -3.582031 -8 -8 v -24 c 0 -4.417969 3.582031 -8 8 -8 h 72 c 4.417969 0 8 3.582031 8 8 v 24 c 0 4.417969 -3.582031 8 -8 8 z m 0 0" fill="url(#a)"/>
    <path d="m 42 8 c -4.433594 0 -8 3.566406 -8 8 v 19 h 88 v -19 c 0 -4.433594 -3.566406 -8 -8 -8 z m 0 0" fill="#41a5ee"/>
    <path d="m 34 62 h 88 v 27 h -88 z m 0 0" fill="#185abd"/>
    <path d="m 34 35 h 88 v 27 h -88 z m 0 0" fill="#2b7cd3"/>
    <path d="m 42 116 c -4.433594 0 -8 -3.566406 -8 -8 v -19 h 88 v 19 c 0 4.433594 -3.566406 8 -8 8 z m 0 0" fill="#103f91"/>
    <path d="m 14 31 h 46 c 4.417969 0 8 3.582031 8 8 v 46 c 0 4.417969 -3.582031 8 -8 8 h -46 c -4.417969 0 -8 -3.582031 -8 -8 v -46 c 0 -4.417969 3.582031 -8 8 -8 z m 0 0" fill="url(#b)"/>
    <path d="m 14 27 h 46 c 4.417969 0 8 3.582031 8 8 v 46 c 0 4.417969 -3.582031 8 -8 8 h -46 c -4.417969 0 -8 -3.582031 -8 -8 v -46 c 0 -4.417969 3.582031 -8 8 -8 z m 0 0" fill="url(#c)"/>
    <path d="m 27.199219 66.617188 c 0.101562 0.796874 0.167969 1.492187 0.199219 2.085937 h 0.117187 c 0.046875 -0.5625 0.140625 -1.242187 0.28125 -2.039063 c 0.144531 -0.792968 0.273437 -1.464843 0.386719 -2.011718 l 5.433594 -23.441406 h 7.027343 l 5.636719 23.085937 c 0.328125 1.4375 0.5625 2.894531 0.699219 4.359375 h 0.09375 c 0.105469 -1.421875 0.300781 -2.832031 0.585937 -4.226562 l 4.496094 -23.230469 h 6.394531 l -7.898437 33.589843 h -7.46875 l -5.355469 -22.246093 c -0.15625 -0.640625 -0.332031 -1.476563 -0.527344 -2.503907 c -0.195312 -1.027343 -0.316406 -1.78125 -0.363281 -2.253906 h -0.09375 c -0.0625 0.546875 -0.183594 1.355469 -0.363281 2.433594 c -0.179688 1.078125 -0.324219 1.875 -0.433594 2.390625 l -5.03125 22.175781 h -7.597656 l -7.941407 -33.574218 h 6.511719 l 4.894531 23.488281 c 0.109376 0.480469 0.214844 1.125 0.316407 1.917969 z m 0 0" fill="#ffffff"/>
</svg>
