<?xml version="1.0" encoding="UTF-8" standalone="no"?>
<svg
   width="128"
   height="128"
   version="1.1"
   id="svg425"
   xml:space="preserve"
   xmlns:xlink="http://www.w3.org/1999/xlink"
   xmlns="http://www.w3.org/2000/svg"
   xmlns:svg="http://www.w3.org/2000/svg"><defs
     id="defs429"><linearGradient
       id="linearGradient3123"><stop
         style="stop-color:#018ed5;stop-opacity:1;"
         offset="0.3031787"
         id="stop3119" /><stop
         style="stop-color:#2ab120;stop-opacity:1;"
         offset="0.94986671"
         id="stop3121" /></linearGradient><linearGradient
       id="linearGradient2946"><stop
         style="stop-color:#3fbefe;stop-opacity:1;"
         offset="0.3031787"
         id="stop2942" /><stop
         style="stop-color:#61e157;stop-opacity:1;"
         offset="0.94986671"
         id="stop2944" /></linearGradient><linearGradient
       xlink:href="#linearGradient2946"
       id="linearGradient2948"
       x1="4.6614366"
       y1="21.451643"
       x2="124.28503"
       y2="55.812519"
       gradientUnits="userSpaceOnUse"
       gradientTransform="matrix(1.0015723,0,0,0.9847543,-0.00647286,-1.9542652)" /><linearGradient
       xlink:href="#linearGradient3123"
       id="linearGradient3116"
       gradientUnits="userSpaceOnUse"
       x1="4.6614366"
       y1="21.451643"
       x2="124.28503"
       y2="55.812519"
       gradientTransform="matrix(1.0015723,0,0,0.98333329,-0.00647387,2.0500001)" /><linearGradient
       id="linearGradient17"
       gradientUnits="userSpaceOnUse"
       x1="0"
       y1="269.46301"
       x2="118.926"
       y2="269.46301"
       gradientTransform="matrix(1,0,0,0.98333333,-118,-175.03333)"><stop
         offset="0"
         stop-color="#e5a50a"
         id="stop14"
         style="stop-color:#000000;stop-opacity:1;" /><stop
         offset="0.414"
         stop-color="#fbdf9b"
         id="stop15"
         style="stop-color:#ffffff;stop-opacity:1;" /><stop
         offset="0.81300002"
         stop-color="#e5a50a"
         id="stop16"
         style="stop-color:#000000;stop-opacity:1;" /><stop
         offset="1"
         stop-color="#f8ca5b"
         id="stop17"
         style="stop-color:#b2b2b2;stop-opacity:1;" /></linearGradient><linearGradient
       xlink:href="#linearGradient17"
       id="linearGradient3"
       x1="-187.09766"
       y1="-14.360993"
       x2="-67.096794"
       y2="-14.360993"
       gradientUnits="userSpaceOnUse"
       gradientTransform="translate(191.09721,78.36099)" /></defs><path
     style="fill:#093b6c;fill-opacity:1;stroke-width:2.12416"
     class="cls-1"
     d="m 112.42084,92.844894 c -5.75206,5.556278 -14.674815,6.875167 -21.77613,6.909416 -22.188769,0 -41.517189,-16.750786 -41.517189,-35.977814 0.05784,-5.251174 3.00535,-10.060661 7.704172,-12.570992 l 2e-6,-4.071394 c 1.2e-5,-19.447136 -25.227298,25.592499 -25.227298,37.457477 0,34.007503 31.928001,37.455193 38.806894,37.455193 3.709067,0 9.303153,-1.0587 12.660542,-2.099 l 0.614268,-0.20252 c 12.919584,-4.38446 23.933609,-12.95612 31.229319,-24.304211 0.3331,-0.515166 0.3019,-5.081196 0.3019,-5.081196 -0.33363,-1.008716 -2.79648,1.854325 -2.79648,2.485059 z"
     id="path411" /><path
     style="fill:url(#linearGradient3116);fill-opacity:1;stroke-width:2.12416"
     class="cls-5"
     d="m 75.498954,70.912756 c -0.298794,0.380214 -1.205693,-2.519595 -1.527582,-1.61795 -0.0873,0.244522 -0.01982,3.912973 -0.01982,4.223291 0,1.201397 0.797152,2.356775 2.213245,3.328023 6.742915,4.603072 19.455031,3.99547 19.487853,3.99547 4.99635,-0.0118 9.89799,-1.339103 14.19388,-3.843575 8.81814,-5.054441 14.24796,-11.7085 14.26889,-21.732475 0.12192,-10.315484 -3.75127,-17.174058 -5.31743,-20.212088 C 108.86181,15.97372 87.413928,4.9999974 64.090404,4.9999974 31.268926,4.9968114 4.5797798,30.952723 4.1182283,63.168937 4.3433036,46.349313 21.325918,30.666164 41.582781,30.666164 c 1.641174,0 11.000599,0.156507 19.694166,4.635295 7.661968,3.94943 11.67583,10.739528 14.465839,15.466883 4.055156,7.511275 4.22968,14.410194 -0.243832,20.144414 z"
     id="path421-6" /><path
     style="fill:#025ea1;fill-opacity:1;stroke-width:2.12416"
     class="cls-3"
     d="M 51.847499,116.26533 C 47.665128,113.71707 44.040554,110.37804 41.184514,106.44236 27.583833,88.150346 56.831709,24.30035 56.831695,47.13411 l -2e-6,4.071394 c 1.462997,-0.67665 3.962278,-1.901067 7.286845,-1.841223 4.748171,0.03409 9.206214,2.24847 12.046263,5.983989 1.893561,2.481903 2.937586,5.488827 2.982261,8.589332 0,-0.09665 11.469513,-36.640451 -37.512702,-36.640451 -20.5851,0 -37.5127073,19.176395 -37.5127073,36.000624 -0.081195,8.899796 1.8586299,17.705537 5.6784858,25.7772 C 22.722164,116.14018 54.241795,129.41861 83.1281,119.9662 c 0,0 0.03915,-4.02033 0.0065,-4.00885 -9.552287,3.12884 -23.387272,4.62229 -31.244806,0.32639 z"
     id="path415" /><path
     id="path411-2"
     style="opacity:0.42;fill:url(#linearGradient3);fill-opacity:1;stroke-width:2.12416"
     class="cls-1"
     d="M 63.972214,4.9996603 C 31.687244,4.9966603 5.3542337,30.11617 4.0620537,61.59927 c -0.0164,0.24804 -0.02,0.49491 -0.0293,0.74219 -0.008,0.27678 -0.0292,0.5504 -0.0332,0.82812 0.002,-0.18935 0.0186,-0.37736 0.0254,-0.5664 -0.006,0.23161 -0.0215,0.46452 -0.0215,0.69531 -0.0812,8.89979 1.85984,17.70568 5.67969,25.77734 12.9220303,27.06521 44.4418103,40.34305 73.3281163,30.89063 0,0 -2e-5,-0.0358 0,-0.0371 l 0.55664,-0.1836 c 12.919593,-4.38445 23.93476,-12.9566 31.23048,-24.30468 0.33309,-0.51517 0.30078,-2.95313 0.30078,-2.95313 -0.33363,-1.00871 -2.79688,-0.27331 -2.79688,0.35742 -5.75206,5.55628 -14.674072,6.87591 -21.77538,6.91016 -22.188766,0 -41.517576,-16.75149 -41.517576,-35.97852 0.0578,-5.25117 3.00626,-10.05998 7.70508,-12.57031 1.463,-0.67665 3.96255,-1.90164 7.28711,-1.8418 4.74817,0.0341 9.20487,2.24886 12.04492,5.98438 1.29895,1.70254 2.18762,3.65355 2.63867,5.71094 0.0882,3.54853 -0.97003,6.86091 -3.30469,9.85351 -0.2988,0.38022 -1.20545,-0.39578 -1.52734,0.50586 -0.0873,0.24452 -0.0195,1.78929 -0.0195,2.09961 0,1.2014 0.7968,2.35688 2.21289,3.32813 6.742916,4.60307 19.455454,3.99414 19.488276,3.99414 4.99634,-0.0118 9.89747,-1.33928 14.19335,-3.84375 8.81815,-5.05444 14.24861,-11.70845 14.26954,-21.73242 0.12189,-10.31549 -3.75028,-17.17291 -5.31644,-20.21094 C 108.74501,15.97462 87.29573,4.9996603 63.972214,4.9996603 Z" /><path
     style="fill:#0d559d;fill-opacity:1;stroke-width:2.12569"
     class="cls-1"
     d="m 112.42084,88.833672 c -5.75206,5.564307 -14.674813,6.885099 -21.776128,6.919399 -22.188768,0 -41.517189,-16.77499 -41.517189,-36.029802 0.05784,-5.258762 3.00535,-10.075201 7.704173,-12.589159 -20.069299,0.829751 -25.227297,21.38912 -25.227297,33.434331 0,34.056629 31.928001,37.509319 38.806894,37.509319 3.709068,0 9.303154,-1.06023 12.660542,-2.10204 l 0.614268,-0.20281 c 12.919584,-4.3908 23.933607,-12.97484 31.229327,-24.339333 1.04198,-1.613894 -0.79491,-3.528322 -2.49459,-2.599885 z"
     id="path413" /><path
     style="fill:#037cd5;fill-opacity:1;stroke-width:2.12569"
     class="cls-3"
     d="m 51.847501,112.28795 c -4.18237,-2.55193 -7.806944,-5.8958 -10.662985,-9.83716 -13.858363,-18.665516 -5.439715,-45.10505 15.64718,-55.31668 1.462996,-0.677626 3.962278,-1.903816 7.286845,-1.843884 4.74817,0.03415 9.206214,2.251721 12.046262,5.992638 1.893562,2.485486 2.937587,5.496759 2.982261,8.601742 0,-0.09679 11.469513,-36.6934 -37.512702,-36.6934 -20.5851,0 -37.5127069,19.204108 -37.5127069,36.05265 -0.081195,8.912656 1.8586298,17.731123 5.6784858,25.814451 12.9220251,27.104323 44.4481671,40.365123 73.3344721,30.899043 -9.88883,3.06513 -22.454021,1.7542 -31.244906,-3.65096 z"
     id="path417" /><path
     style="fill:url(#linearGradient2948);fill-opacity:1;stroke-width:2.12569"
     class="cls-5"
     d="m 75.498955,67.00801 c -0.379822,0.484019 -1.547403,1.152426 -1.547403,2.609102 0,1.203134 0.797151,2.360179 2.213251,3.332833 6.742911,4.609721 19.455029,4.001239 19.487855,4.001239 4.996342,-0.01181 9.897982,-1.341031 14.193872,-3.849125 8.81814,-5.06174 14.24796,-11.725422 14.26889,-21.763879 0.12192,-10.330392 -3.75127,-17.198877 -5.31743,-20.241297 C 108.86181,11.989579 87.413928,0.99999731 64.090402,0.99999731 31.268927,0.99680739 4.5797812,26.990228 4.1182289,59.252996 4.3433044,42.409068 21.325919,26.703255 41.582782,26.703255 c 1.641175,0 11.000601,0.156733 19.694168,4.641993 7.66197,3.955137 11.675831,10.755048 14.465838,15.489235 4.055161,7.522129 4.22968,14.431014 -0.243833,20.173527 z"
     id="path421" /></svg>
