<?xml version="1.0" encoding="UTF-8" standalone="no"?>
<svg
   width="128"
   height="128"
   version="1"
   id="svg12"
   xmlns:xlink="http://www.w3.org/1999/xlink"
   xmlns="http://www.w3.org/2000/svg"
   xmlns:svg="http://www.w3.org/2000/svg">
  <defs
     id="defs16">
    <linearGradient
       id="linearGradient34">
      <stop
         style="stop-color:#343434;stop-opacity:1;"
         offset="0"
         id="stop26" />
      <stop
         style="stop-color:#666666;stop-opacity:1;"
         offset="0.06662611"
         id="stop27" />
      <stop
         style="stop-color:#333333;stop-opacity:1;"
         offset="0.13010524"
         id="stop28" />
      <stop
         style="stop-color:#333333;stop-opacity:1;"
         offset="0.36745176"
         id="stop29" />
      <stop
         style="stop-color:#666666;stop-opacity:1;"
         offset="0.46571693"
         id="stop30" />
      <stop
         style="stop-color:#333333;stop-opacity:1;"
         offset="0.56520212"
         id="stop31" />
      <stop
         style="stop-color:#333333;stop-opacity:1;"
         offset="0.87337303"
         id="stop32" />
      <stop
         style="stop-color:#666666;stop-opacity:1;"
         offset="0.93183488"
         id="stop33" />
      <stop
         style="stop-color:#333333;stop-opacity:1;"
         offset="1"
         id="stop34" />
    </linearGradient>
    <linearGradient
       id="linearGradient24">
      <stop
         style="stop-color:#343434;stop-opacity:1;"
         offset="0"
         id="stop13" />
      <stop
         style="stop-color:#666666;stop-opacity:1;"
         offset="0.06662611"
         id="stop14" />
      <stop
         style="stop-color:#333333;stop-opacity:1;"
         offset="0.13010524"
         id="stop15" />
      <stop
         style="stop-color:#333333;stop-opacity:1;"
         offset="0.43149993"
         id="stop16" />
      <stop
         style="stop-color:#666666;stop-opacity:1;"
         offset="0.53073269"
         id="stop17" />
      <stop
         style="stop-color:#333333;stop-opacity:1;"
         offset="0.62957996"
         id="stop18" />
      <stop
         style="stop-color:#333333;stop-opacity:1;"
         offset="0.87337303"
         id="stop22" />
      <stop
         style="stop-color:#666666;stop-opacity:1;"
         offset="0.93183488"
         id="stop23" />
      <stop
         style="stop-color:#333333;stop-opacity:1;"
         offset="1"
         id="stop24" />
    </linearGradient>
    <linearGradient
       id="a"
       gradientUnits="userSpaceOnUse"
       x1="10.000004"
       x2="118"
       y1="66"
       y2="66"
       gradientTransform="translate(2e-6)">
      <stop
         offset="0"
         stop-color="#429aea"
         id="stop2"
         style="stop-color:#7f919a;stop-opacity:1;" />
      <stop
         offset="0.05"
         stop-color="#75aadb"
         id="stop4"
         style="stop-color:#d4dadd;stop-opacity:1;" />
      <stop
         offset="0.151761"
         stop-color="#429aea"
         id="stop6"
         style="stop-color:#7f919a;stop-opacity:1;" />
      <stop
         offset="0.85068297"
         stop-color="#429aea"
         id="stop8"
         style="stop-color:#7f919a;stop-opacity:1;" />
      <stop
         offset="0.94999999"
         stop-color="#75aadb"
         id="stop10"
         style="stop-color:#d4dadd;stop-opacity:1;" />
      <stop
         offset="1"
         stop-color="#429aea"
         id="stop12"
         style="stop-color:#7f919a;stop-opacity:1;" />
    </linearGradient>
    <linearGradient
       xlink:href="#linearGradient4374"
       id="linearGradient4376"
       x1="11.381379"
       y1="67.567406"
       x2="116.44457"
       y2="67.567406"
       gradientUnits="userSpaceOnUse"
       gradientTransform="translate(-195.38138,-6.134815)" />
    <linearGradient
       id="linearGradient4374">
      <stop
         style="stop-color:#343434;stop-opacity:1;"
         offset="0"
         id="stop4370" />
      <stop
         style="stop-color:#666666;stop-opacity:1;"
         offset="0.07185834"
         id="stop4378" />
      <stop
         style="stop-color:#333333;stop-opacity:1;"
         offset="0.15463936"
         id="stop4380" />
      <stop
         style="stop-color:#333333;stop-opacity:1;"
         offset="0.25415617"
         id="stop4382" />
      <stop
         style="stop-color:#666666;stop-opacity:1;"
         offset="0.31681353"
         id="stop4384" />
      <stop
         style="stop-color:#333333;stop-opacity:1;"
         offset="0.39934"
         id="stop4386" />
      <stop
         style="stop-color:#333333;stop-opacity:1;"
         offset="0.59867215"
         id="stop4388" />
      <stop
         style="stop-color:#666666;stop-opacity:1;"
         offset="0.67273009"
         id="stop4390" />
      <stop
         style="stop-color:#333333;stop-opacity:1;"
         offset="0.75"
         id="stop4392" />
      <stop
         style="stop-color:#333333;stop-opacity:1;"
         offset="0.85000002"
         id="stop4394" />
      <stop
         style="stop-color:#666666;stop-opacity:1;"
         offset="0.93000001"
         id="stop4396" />
      <stop
         style="stop-color:#333333;stop-opacity:1;"
         offset="0.99890584"
         id="stop4372" />
    </linearGradient>
    <linearGradient
       xlink:href="#linearGradient24"
       id="linearGradient13"
       x1="11.000001"
       y1="80.146614"
       x2="64.036034"
       y2="80.146614"
       gradientUnits="userSpaceOnUse"
       gradientTransform="translate(-0.99999977,14.744338)" />
    <linearGradient
       xlink:href="#linearGradient34"
       id="linearGradient26"
       x1="73"
       y1="88.166061"
       x2="126.0569"
       y2="88.166061"
       gradientUnits="userSpaceOnUse"
       gradientTransform="translate(-8.0569012,6.705435)" />
  </defs>
  <path
     id="path2-9"
     style="fill:url(#linearGradient13);stroke:none;stroke-width:0.0211896"
     d="m 35.913341,73.980623 c -2.881786,0.953532 -10.806697,6.039037 -17.544991,11.294059 -5.572866,4.322679 -7.119707,6.060227 -8.03086,9.026771 -0.08325,0.273074 -0.266815,-1.439081 -0.318996,-1.157619 0,0 -0.0016,5.085591 0.552081,6.264314 0.635689,1.313752 1.907065,2.415612 8.179187,7.183272 6.505209,4.91599 8.942013,6.58997 11.442386,7.7554 2.479184,1.18662 3.729371,1.52565 6.187365,1.65279 3.559853,0.21189 5.763572,-0.44498 8.242755,-2.43681 0.699257,-0.55093 4.937178,-4.97955 9.450564,-9.85316 8.984391,-9.704841 8.963202,-9.662462 8.963202,-12.226404 0,-0.490092 0,-3.202442 0,-3.202442 -0.303199,-1.333337 -1.287367,-0.664898 -3.114872,-2.476372 -1.08067,-1.05948 -2.542752,-2.394425 -3.242009,-2.924165 -3.305578,-2.563942 -10.67956,-7.013759 -13.815622,-8.285135 -1.652789,-0.699257 -2.09777,-0.784016 -3.983645,-0.847584 -1.334945,-0.02119 -2.436805,0.06356 -2.966545,0.233085 z m 11.336438,10.764319 c 4.131973,1.250187 6.844242,5.509297 6.166175,9.726028 -1.144239,7.03495 -9.577701,9.93792 -14.726775,5.064315 -3.623422,-3.432716 -3.623422,-9.281046 0,-12.713762 2.309667,-2.182529 5.572866,-2.966544 8.5606,-2.076581 z" />
  <path
     id="path34"
     style="fill:#f1f3f4;fill-rule:evenodd;stroke-width:0.630447;stroke-linecap:round;stroke-linejoin:round;stroke-miterlimit:10"
     d="m 53.799219,89.175602 a 9.0000001,9.0000001 0 0 1 -9,9 9.0000001,9.0000001 0 0 1 -9,-9 9.0000001,9.0000001 0 0 1 9,-9 9.0000001,9.0000001 0 0 1 9,9 z" />
  <path
     id="path4-2"
     style="fill:url(#linearGradient26);stroke:none;stroke-width:0.0211896"
     d="m 86.450546,74.086571 c -1.843496,0.593309 -3.686991,1.504462 -7.098517,3.517475 -5.678814,3.326767 -8.687738,5.530486 -11.611903,8.475841 -1.589595,1.621708 -2.497746,0.874411 -2.785555,2.176598 0,0 -0.01147,2.764773 -0.01147,3.226751 0,2.563942 -0.02119,2.542752 8.963202,12.226404 4.513386,4.87361 8.751307,9.30224 9.450564,9.85316 2.479183,1.99183 4.682902,2.64871 8.242755,2.43681 4.767659,-0.25428 7.437549,-1.69518 17.629758,-9.40819 6.27211,-4.76766 7.54348,-5.86952 8.17917,-7.183272 C 117.98887,98.204835 118,92.91993 118,92.91993 c -0.37248,-2.12558 -1.73206,-1.89042 -3.70631,-3.78874 -2.75465,-2.6487 -9.23867,-7.458741 -15.362472,-11.378817 -3.60223,-2.309667 -5.445719,-3.305578 -6.95019,-3.77175 -1.35613,-0.402602 -4.110779,-0.360223 -5.530482,0.105948 z m -0.635688,10.658371 c 2.182529,0.656878 4.216731,2.394425 5.276211,4.471006 2.669889,5.318591 -0.699257,11.823802 -6.547588,12.650192 -7.013758,0.99591 -12.205211,-6.144983 -9.153908,-12.586623 1.801116,-3.771749 6.356881,-5.742382 10.425285,-4.534575 z" />
  <path
     id="path34-9"
     style="fill:#f1f3f4;fill-rule:evenodd;stroke-width:0.630447;stroke-linecap:round;stroke-linejoin:round;stroke-miterlimit:10"
     d="m 92.245763,89.221679 a 9.0000001,9.0000001 0 0 1 -9,9 9.0000001,9.0000001 0 0 1 -9,-9 9.0000001,9.0000001 0 0 1 9,-9 9.0000001,9.0000001 0 0 1 9,9 z" />
  <path
     id="path4"
     style="fill:#000000;stroke:none;stroke-width:0.0211896"
     d="m 81.640506,86.953496 c -1.991823,1.58922 -0.932343,4.767661 1.61041,4.767661 2.563942,0 3.70818,-2.881787 1.843495,-4.598144 C 84.0985,86.21186 82.678796,86.148291 81.640506,86.953496 Z m 4.81004,-16.866925 c -1.843496,0.593309 -3.686991,1.504462 -7.098517,3.517475 -5.678814,3.326767 -8.687738,5.530486 -11.611903,8.475841 -2.097771,2.14015 -2.797028,3.496285 -2.797028,5.403349 0,2.563942 -0.02119,2.542752 8.963202,12.226401 4.513386,4.873613 8.751307,9.302233 9.450564,9.853163 2.479183,1.99183 4.682902,2.6487 8.242755,2.43681 4.767661,-0.25428 7.437551,-1.69517 17.629761,-9.40819 6.27211,-4.767658 7.54348,-5.869517 8.17917,-7.183272 1.4409,-2.987735 0.19072,-7.098518 -3.11486,-10.276958 -2.75465,-2.648701 -9.23867,-7.458741 -15.362468,-11.378817 -3.602232,-2.309667 -5.445728,-3.305578 -6.95019,-3.77175 -1.356134,-0.402602 -4.110783,-0.360223 -5.530486,0.105948 z m -0.635688,10.658371 c 2.182529,0.656878 4.216731,2.394425 5.276211,4.471006 2.66989,5.318591 -0.699257,11.823799 -6.547588,12.650194 -7.013758,0.995911 -12.205211,-6.144985 -9.153908,-12.586625 1.801116,-3.771749 6.356881,-5.742382 10.425285,-4.534575 z" />
  <path
     id="path1"
     style="fill:#000000;stroke:none;stroke-width:0.0211896"
     d="m 43.011858,86.953496 c -1.991823,1.58922 -0.932343,4.767661 1.61041,4.767661 2.563942,0 3.70818,-2.881787 1.843495,-4.598144 -0.995911,-0.911153 -2.415615,-0.974722 -3.453905,-0.169517 z M 35.913341,69.980623 c -2.881786,0.953532 -10.806697,6.039037 -17.544991,11.294059 -5.572866,4.322679 -7.119707,6.060227 -8.03086,9.026771 -0.5297399,1.737548 -0.4237919,3.708181 0.233085,5.106695 0.635689,1.313755 1.907065,2.415614 8.179187,7.183272 6.505209,4.91599 8.942013,6.58997 11.442386,7.7554 2.479184,1.18662 3.729371,1.52565 6.187365,1.65279 3.559853,0.21189 5.763572,-0.44499 8.242755,-2.43681 0.699257,-0.55093 4.937178,-4.97955 9.450564,-9.853163 8.984391,-9.704838 8.963202,-9.662459 8.963202,-12.226401 0,-2.013013 -0.699257,-3.284389 -3.114872,-5.678814 -1.08067,-1.05948 -2.542752,-2.394425 -3.242009,-2.924165 -3.305578,-2.563942 -10.67956,-7.013759 -13.815622,-8.285135 -1.652789,-0.699257 -2.09777,-0.784016 -3.983645,-0.847584 -1.334945,-0.02119 -2.436805,0.06356 -2.966545,0.233085 z m 11.336438,10.764319 c 4.131973,1.250187 6.844242,5.509297 6.166175,9.726028 -1.144239,7.034948 -9.577701,9.93792 -14.726775,5.064315 -3.623422,-3.432716 -3.623422,-9.281046 0,-12.713762 2.309667,-2.182529 5.572866,-2.966544 8.5606,-2.076581 z" />
</svg>
