<?xml version="1.0" encoding="UTF-8" standalone="no"?>
<svg
   width="128"
   height="128"
   viewBox="0 0 128 128"
   fill="none"
   version="1.1"
   id="svg24"
   xmlns:xlink="http://www.w3.org/1999/xlink"
   xmlns="http://www.w3.org/2000/svg"
   xmlns:svg="http://www.w3.org/2000/svg">
  <defs
     id="defs28">
    <linearGradient
       id="linearGradient7">
      <stop
         style="stop-color:#333333;stop-opacity:1;"
         offset="0"
         id="stop2" />
      <stop
         style="stop-color:#808080;stop-opacity:1;"
         offset="0.07419008"
         id="stop3" />
      <stop
         style="stop-color:#333333;stop-opacity:1;"
         offset="0.23153576"
         id="stop4" />
      <stop
         style="stop-color:#333333;stop-opacity:1;"
         offset="0.76570427"
         id="stop5" />
      <stop
         style="stop-color:#808080;stop-opacity:1;"
         offset="0.92937213"
         id="stop6" />
      <stop
         style="stop-color:#333333;stop-opacity:1;"
         offset="1"
         id="stop7" />
    </linearGradient>
    <linearGradient
       xlink:href="#linearGradient7"
       id="linearGradient2"
       x1="-187"
       y1="60"
       x2="-79"
       y2="60"
       gradientUnits="userSpaceOnUse"
       gradientTransform="translate(197,6)" />
  </defs>
  <path
     d="M 118,66.000002 C 118,95.822056 93.82457,120 63.99856,120 34.17571,120 10,95.822631 10,66.000002 10,36.175073 34.17571,12 63.99856,12 93.82429,12 118,36.174784 118,66.000002"
     fill="#ffffff"
     id="path2-7-26-9"
     style="fill:url(#linearGradient2);fill-opacity:1;stroke-width:1.3333"
     clip-path="none" />
  <path
     d="M 63.99783,12 C 34.18361,12 9.96764,36.20891 10.00501,65.9918 c 0.008,5.95865 0.99557,11.808567 2.77925,17.170087 l 16.23733,0.0041 -0.0276,-45.386921 35.00599,35.058023 35.02845,-35.0072 -0.10122,45.347357 16.28411,-0.0023 c 1.78606,-5.36123 2.77325,-11.224116 2.78363,-17.183056 0.052,-29.81336 -24.17831,-53.98605 -53.99569,-53.98605 z"
     fill="#f36e36"
     id="path3-7-3-2"
     style="fill:#b73e0b;fill-opacity:1;stroke-width:1.3333"
     clip-path="none" />
  <path
     d="m 28.89449,37.732789 v 45.419918 l -16.11718,-4.0153 -0.008,4.0153 c 1.29157,3.879467 3.05067,7.570347 5.14235,11.002621 l -0.009,-4.014141 10.99327,4.017341 H 40.60687 V 65.578497 L 55.92133,80.89295 h 0.002 l 8.06836,8.068359 23.38476,-23.382812 v 28.580078 h 11.71093 l 11.00662,-4.014032 -0.007,4.01173 c 2.09148,-3.432131 3.8359,-7.124376 5.12749,-11.003557 l 0.008,-4.015376 -16.13672,4.015376 V 37.732798 l -35.0957,35.091793 z"
     style="fill:#b2b2b2;fill-opacity:1;stroke-width:1.3333"
     id="path1-9" />
  <path
     d="M 118,62.000002 C 118,91.822056 93.82457,116 63.99856,116 34.17571,116 10,91.822631 10,62.000002 10,32.175073 34.17571,8 63.99856,8 93.82429,8 118,32.174784 118,62.000002"
     fill="#ffffff"
     id="path2-7-26"
     style="fill:#575757;fill-opacity:1;stroke-width:1.3333"
     clip-path="none" />
  <path
     d="M 63.99781,8 C 34.18359,8 9.96762,32.20891 10.00499,61.9918 c 0.008,5.95865 0.99557,11.808567 2.77925,17.170087 l 16.23733,0.0041 -0.0276,-45.386921 35.00599,35.058023 35.02845,-35.0072 -0.10122,45.347357 16.28411,-0.0023 c 1.78606,-5.36123 2.77325,-11.224116 2.78363,-17.183056 C 118.04693,32.17853 93.81662,8.00584 63.99924,8.00584 Z"
     fill="#f36e36"
     id="path3-7-3"
     style="stroke-width:1.3333"
     clip-path="none" />
  <path
     d="m 28.90231,33.717489 v 45.419918 h -16.125 c 1.29157,3.879467 3.03419,7.571506 5.12587,11.00378 l 11.00109,0.002 H 40.61521 V 61.563156 l 15.31446,15.314453 h 0.002 l 8.06836,8.068359 23.38476,-23.382812 v 28.580078 h 11.71093 l 10.9988,0.0013 c 2.09148,-3.432131 3.83658,-7.128013 5.12817,-11.007194 H 99.09377 V 33.717422 l -35.0957,35.091793 z"
     style="fill:#ffffff;stroke-width:1.3333"
     id="path1" />
</svg>
