<?xml version="1.0" encoding="UTF-8" standalone="no"?>
<svg
   width="128"
   height="128"
   viewBox="0 0 128 128"
   version="1.1"
   id="svg60"
   xml:space="preserve"
   xmlns:xlink="http://www.w3.org/1999/xlink"
   xmlns="http://www.w3.org/2000/svg"
   xmlns:svg="http://www.w3.org/2000/svg"><defs
     id="defs40"><linearGradient
       id="linearGradient27"><stop
         style="stop-color:#333333;stop-opacity:1;"
         offset="0"
         id="stop17" /><stop
         style="stop-color:#808080;stop-opacity:1;"
         offset="0.04887265"
         id="stop18" /><stop
         style="stop-color:#333333;stop-opacity:1;"
         offset="0.1972716"
         id="stop19" /><stop
         style="stop-color:#333333;stop-opacity:1;"
         offset="0.79781586"
         id="stop25" /><stop
         style="stop-color:#808080;stop-opacity:1;"
         offset="0.94661182"
         id="stop26" /><stop
         style="stop-color:#333333;stop-opacity:1;"
         offset="1"
         id="stop27" /></linearGradient><linearGradient
       xlink:href="#linearGradient27"
       id="linearGradient1099"
       x1="9.9999962"
       y1="68"
       x2="118"
       y2="68"
       gradientUnits="userSpaceOnUse"
       gradientTransform="translate(1.5e-6,-1.9999943)" /><linearGradient
       id="linearGradient1062"
       x1="399.57001"
       x2="399.57001"
       y1="545.79999"
       y2="517.79999"
       gradientTransform="matrix(2.1429152,0,0,2.1429152,-623.08562,-1152.221)"
       gradientUnits="userSpaceOnUse"><stop
         stop-color="#3889e9"
         offset="0"
         id="stop5635" /><stop
         stop-color="#5ea5fb"
         offset="1"
         id="stop5637" /></linearGradient><linearGradient
       id="linearGradient27897"><stop
         id="stop27893"
         offset="0"
         style="stop-color:#505050;stop-opacity:1" /><stop
         id="stop27895"
         offset="1"
         style="stop-color:#000000;stop-opacity:1" /></linearGradient><radialGradient
       xlink:href="#linearGradient27897"
       id="radialGradient31"
       cx="95.413879"
       cy="67.798828"
       fx="95.413879"
       fy="67.798828"
       r="8.2350588"
       gradientTransform="matrix(1,0,0,2.8347274,0,-134.45717)"
       gradientUnits="userSpaceOnUse" /><radialGradient
       xlink:href="#linearGradient27897"
       id="radialGradient32"
       cx="34.253956"
       cy="68.127159"
       fx="34.253956"
       fy="68.127159"
       r="8.2350588"
       gradientTransform="matrix(1,0,0,2.8347276,0,-134.9123)"
       gradientUnits="userSpaceOnUse" /></defs><path
     style="fill:url(#linearGradient1099);fill-opacity:1;stroke:none;stroke-width:0.111043"
     d="M 64.000001,12.000002 C 93.826031,12.000002 118,36.173971 118,66.000008 c 0,29.82603 -24.185069,54.000002 -53.999999,54.000002 -29.81493,0 -54.0000025,-24.173972 -54.0000025,-54.000002 0,-29.826038 24.1739635,-54.000007 54.0000025,-54.000007"
     id="path24-2" /><circle
     fill="url(#c)"
     cx="64"
     cy="62.000004"
     id="circle48"
     style="fill:#000000;fill-rule:evenodd;stroke-width:0.964286;fill-opacity:1"
     r="54" /><ellipse
     style="display:inline;opacity:0;fill:#ffffff;fill-opacity:1;fill-rule:evenodd;stroke:none;stroke-width:1.08571"
     id="path26-9-9-8-6"
     cx="32.467037"
     cy="314.62497"
     rx="191.625"
     ry="191.62495" /><path
     id="path26-9"
     style="display:inline;fill:#ffffff;stroke:none;stroke-width:1.51351;stroke-linejoin:round"
     d="M 114,62.00001 A 49.999999,50.000041 0 0 1 64,112.00005 49.999999,50.000041 0 0 1 14,62.00001 49.999999,50.000041 0 0 1 64,11.99997 49.999999,50.000041 0 0 1 114,62.00001 Z" /><path
     id="path16"
     style="color:#000000;fill:#000000;fill-rule:evenodd;stroke-width:0.999999;-inkscape-stroke:none"
     d="M 52.333984 17.736328 C 52.302065 17.735535 52.270204 17.738868 52.238281 17.738281 L 52.332031 17.869141 L 52.333984 17.736328 z M 53.746094 17.835938 C 53.508562 17.835433 53.270515 17.852606 53.03125 17.888672 L 53.019531 17.890625 L 52.679688 17.886719 L 52.335938 17.875 L 52.332031 17.875 C 45.600247 17.707415 38.773156 22.171719 37.074219 28.832031 C 36.677351 30.451597 36.515128 31.985726 36.486328 33.552734 L 36.486328 33.556641 L 36.486328 50.953125 L 43.101562 50.953125 C 43.124452 44.831047 43.067208 38.737977 43.148438 32.599609 L 43.148438 32.597656 L 43.148438 32.595703 C 43.256132 30.599912 44.077957 28.557536 45.410156 27.013672 C 46.742358 25.469808 48.593303 24.422796 50.744141 24.447266 L 50.878906 24.449219 L 50.880859 24.583984 C 50.911745 30.832913 50.817071 37.082681 50.929688 43.324219 C 51.28457 48.321105 56.035655 52.470413 61.046875 52.046875 L 61.050781 52.046875 L 61.054688 52.046875 C 64.24549 51.969437 67.446267 52.2299 70.587891 51.847656 C 75.322529 50.957517 78.610759 46.117984 78.169922 41.398438 L 78.169922 41.392578 L 78.169922 24.482422 L 78.296875 24.472656 C 80.533417 24.309329 82.501088 25.316698 83.925781 26.875 C 85.350479 28.4333 86.241044 30.543434 86.339844 32.621094 L 86.339844 32.625 L 86.339844 32.626953 C 86.420584 38.765121 86.363959 44.857071 86.386719 50.978516 L 93.003906 50.978516 L 93.003906 32.519531 C 92.778682 30.516956 92.457669 28.082818 91.390625 26.183594 L 91.388672 26.179688 L 91.386719 26.175781 C 88.596113 20.514517 82.054118 17.451091 75.886719 17.912109 L 75.873047 17.912109 L 75.859375 17.910156 C 74.119607 17.689187 72.227489 18.88124 71.746094 20.521484 C 71.776014 27.88267 71.795504 35.24674 71.740234 42.607422 L 71.740234 42.611328 L 71.740234 42.615234 C 71.526816 45.787723 68.416348 48.20128 65.298828 47.798828 C 63.150204 47.890782 60.680546 47.801532 59.175781 45.912109 C 58.163258 44.839913 57.825526 43.533933 57.728516 42.1875 C 57.631406 40.839666 57.768257 39.442537 57.710938 38.160156 L 57.710938 38.15625 L 57.710938 38.154297 C 57.716247 32.181956 57.692494 26.213867 57.746094 20.25 C 56.979423 18.72214 55.408816 17.839469 53.746094 17.835938 z " /><g
     id="g32"><path
       style="color:#000000;opacity:0.9666;fill:url(#radialGradient32);fill-rule:evenodd;stroke-width:0.999999;-inkscape-stroke:none"
       d="M 39.60584,50.18846 V 96.876755 C 30.383859,95.86512 23.135723,85.80134 23.135723,73.532608 c 0,-12.268734 7.248136,-22.332514 16.470117,-23.344148 z"
       id="path14" /><path
       style="color:#000000;opacity:0.9666;fill:#ffffff;fill-rule:evenodd;stroke-width:0.999999;-inkscape-stroke:none"
       d="M 39.743463,50.034733 C 30.430785,51.056316 22.9978,61.209698 22.9978,73.532703 c 0,12.323003 7.280189,22.459466 16.592866,23.48105 l 0.152797,0.01693 z m -0.275341,0.316875 v 46.36219 C 30.410193,95.616911 23.273658,85.678075 23.273658,73.532703 c 0,-12.145374 7.136535,-22.084208 16.194464,-23.181095 z"
       id="path15" /></g><g
     id="rect134"
     transform="matrix(0.26252424,0,0,0.26252424,151.37318,62.18981)"
     style="stroke-width:3.80917"><path
       style="color:#000000;fill:#000000;fill-rule:evenodd;stroke-width:3.80917;-inkscape-stroke:none"
       d="m -232.33033,126.29458 c -0.73412,-0.007 -3.47605,-0.60382 -4.13745,-0.17532 0,0 -1.08737,3.16759 -4.83445,5.95617 -3.28936,2.44794 -6.41303,4.79448 -9.75936,6.99567 -3.00465,1.97642 -6.22939,4.11361 -9.25034,5.56757 -2.37715,1.14409 -4.31966,1.3106 -4.31966,1.3106 h -33.83053 c -2.11336,0 -3.84487,1.66652 -3.84487,3.74063 v 0.91875 c 0,2.0741 1.73151,3.77343 3.84487,3.77343 h 35.57342 c 0.81866,0 3.77698,-0.86123 5.53612,-1.63304 4.38568,-1.9242 7.24392,-4.37432 12.29539,-7.37881 5.37008,-3.43474 15.30126,-11.43033 15.30126,-11.43033 1.76372,-1.14268 2.23418,-3.45342 1.06988,-5.18438 l -0.50151,-0.7875 c -0.7277,-1.08185 -1.91925,-1.66153 -3.14277,-1.67344 z"
       id="path3" /><path
       style="color:#000000;fill:#ffffff;fill-rule:evenodd;stroke-width:3.80917;-inkscape-stroke:none"
       d="m -235.65234,125.43945 c -0.39988,0.005 -0.75062,0.0109 -1.10157,0.23828 l -0.15234,0.0996 -0.0586,0.17188 c 0,0 -1.01705,3.00114 -4.65039,5.70508 -3.29056,2.44883 -6.40585,4.78903 -9.73438,6.97851 -3.00573,1.97714 -6.2181,4.10312 -9.18945,5.53321 -2.28326,1.0989 -4.10727,1.25628 -4.125,1.25781 h -33.79883 c -2.38936,0 -4.36914,1.89933 -4.36914,4.26562 v 0.91992 c 0,2.36629 1.97435,4.29688 4.36914,4.29688 h 35.57422 c 0.59343,0 1.48265,-0.22979 2.5625,-0.54688 1.07984,-0.31708 2.27066,-0.72836 3.18359,-1.1289 4.45898,-1.95636 7.33505,-4.42334 12.35352,-7.4082 l 0.008,-0.006 0.008,-0.004 c 5.43412,-3.4757 15.34766,-11.46289 15.34766,-11.46289 l -0.0449,0.0312 c 1.99849,-1.29479 2.54098,-3.95133 1.2207,-5.91602 l -0.49805,-0.78515 -0.004,-0.004 c -0.82736,-1.23001 -2.18822,-1.89276 -3.57422,-1.90625 -0.23104,-0.002 -1.15976,-0.14913 -2.04102,-0.24805 -0.44063,-0.0494 -0.88528,-0.0867 -1.28515,-0.082 z m 0.0137,1.05078 c 0.32319,-0.004 0.735,0.0272 1.1543,0.0742 0.83858,0.0941 1.64535,0.25107 2.14843,0.25586 1.06104,0.0103 2.08485,0.50772 2.71289,1.44141 l 0.49805,0.78125 0.004,0.006 c 1.00698,1.49707 0.60848,3.46094 -0.91993,4.45117 l -0.0234,0.0137 -0.0215,0.0176 c 0,0 -9.94787,8.00271 -15.2539,11.39648 -5.07458,3.01977 -7.9167,5.44977 -12.22461,7.33985 -0.84621,0.37127 -2.01288,0.7775 -3.05664,1.08398 -1.04377,0.30649 -2.04235,0.50586 -2.26758,0.50586 h -35.57422 c -1.83193,0 -3.31836,-1.46614 -3.31836,-3.24805 v -0.91992 c 0,-1.78192 1.481,-3.21484 3.31836,-3.21484 h 33.85352 l 0.0234,-0.002 c 0,0 2.04204,-0.17741 4.50196,-1.36133 3.07054,-1.47783 6.30698,-3.62586 9.31054,-5.60156 3.36413,-2.2129 6.49701,-4.56663 9.78516,-7.01368 3.61168,-2.68781 4.73518,-5.55762 4.88086,-5.94531 0.0411,-0.008 0.18974,-0.0573 0.46875,-0.0606 z"
       id="path5" /></g><g
     id="g31"><path
       style="color:#000000;opacity:0.9666;fill:url(#radialGradient31);fill-rule:evenodd;stroke-width:0.999999;-inkscape-stroke:none"
       d="m 89.781512,49.9404 v 46.688295 c 9.221981,-1.011632 16.470118,-11.075414 16.470118,-23.344146 0,-12.268734 -7.248137,-22.332514 -16.470118,-23.344149 z"
       id="path6" /><path
       style="color:#000000;opacity:0.9666;fill:#ffffff;fill-rule:evenodd;stroke-width:0.999999;-inkscape-stroke:none"
       d="m 89.643579,49.786565 v 0.153823 46.842118 l 0.152797,-0.01691 c 9.312678,-1.021581 16.592864,-11.158048 16.592864,-23.48105 0,-12.323005 -7.280186,-22.459466 -16.592864,-23.48105 z m 0.275856,0.316875 c 9.057929,1.096887 16.194465,11.035721 16.194465,23.181096 0,12.145371 -7.136536,22.084211 -16.194465,23.181095 z"
       id="path8" /></g><g
     id="path906"
     style="opacity:0.9666;stroke-width:3.80917"
     transform="matrix(0.26252424,0,0,0.26252424,151.37318,62.18981)"><path
       style="color:#000000;fill:#000000;fill-rule:evenodd;stroke-width:3.80917;-inkscape-stroke:none"
       d="m -298.28094,148.97929 a 28.875,16.799999 0 0 1 -28.875,16.8 28.875,16.799999 0 0 1 -28.875,-16.8 28.875,16.799999 0 0 1 28.875,-16.8 28.875,16.799999 0 0 1 28.875,16.8 z"
       id="path1" /><path
       style="color:#000000;fill:#ffffff;fill-rule:evenodd;stroke-width:3.80917;-inkscape-stroke:none"
       d="m -327.15625,131.55078 c -8.07257,0 -15.38874,1.89567 -20.73437,5.00586 -5.34564,3.11019 -8.76954,7.49034 -8.76954,12.42188 0,4.93153 3.4239,9.31364 8.76954,12.42382 5.34563,3.11019 12.6618,5.00586 20.73437,5.00586 8.07257,0 15.38874,-1.89567 20.73438,-5.00586 5.34563,-3.11018 8.76953,-7.49229 8.76953,-12.42382 0,-4.93154 -3.4239,-9.31169 -8.76953,-12.42188 -5.34564,-3.11019 -12.66181,-5.00586 -20.73438,-5.00586 z m 0,1.25781 c 7.87464,0 14.99651,1.86573 20.10156,4.83594 5.10505,2.97021 8.14453,6.98714 8.14453,11.33399 0,4.34684 -3.03948,8.36572 -8.14453,11.33593 -5.10505,2.97021 -12.22692,4.83594 -20.10156,4.83594 -7.87464,0 -14.99651,-1.86573 -20.10156,-4.83594 -5.10505,-2.97021 -8.14453,-6.98909 -8.14453,-11.33593 0,-4.34685 3.03948,-8.36378 8.14453,-11.33399 5.10505,-2.97021 12.22692,-4.83594 20.10156,-4.83594 z"
       id="path2" /></g><g
     id="rect908-1"
     style="opacity:0.9666;stroke-width:3.80917"
     transform="matrix(0.26252424,0,0,0.26252424,151.37318,62.18981)"><path
       style="color:#000000;fill:#000000;fill-rule:evenodd;stroke-width:3.80917;-inkscape-stroke:none"
       d="m -245.89778,-49.536945 h 5.79457 c 2.24713,0 4.0562,1.657841 4.0562,3.717132 V 127.29235 c 0,2.0593 -1.80907,3.71714 -4.0562,3.71714 h -5.79457 c -2.24713,0 -4.0562,-1.65784 -4.0562,-3.71714 V -45.819813 c 0,-2.059291 1.80907,-3.717132 4.0562,-3.717132 z"
       id="path9" /><path
       style="color:#000000;fill:#ffffff;fill-rule:evenodd;stroke-width:3.80917;-inkscape-stroke:none"
       d="m -245.89844,-50.087891 c -2.51836,0 -4.60742,1.885312 -4.60742,4.267579 V 127.29297 c 0,2.38227 2.08906,4.26758 4.60742,4.26758 h 5.79492 c 2.51837,0 4.60743,-1.88531 4.60743,-4.26758 V -45.820312 c 0,-2.382267 -2.08906,-4.267579 -4.60743,-4.267579 z m 0,1.101563 h 5.79492 c 1.9759,0 3.50586,1.429704 3.50586,3.166016 V 127.29297 c 0,1.73632 -1.52996,3.16601 -3.50586,3.16601 h -5.79492 c -1.97589,0 -3.5039,-1.42969 -3.5039,-3.16601 V -45.820312 c 0,-1.736312 1.52801,-3.166016 3.5039,-3.166016 z"
       id="path11" /></g><g
     id="rect908-1-6"
     style="opacity:0.9666;stroke-width:3.80917"
     transform="matrix(0.26252424,0,0,0.26252424,151.37318,62.18981)"><path
       style="color:#000000;fill:#000000;fill-rule:evenodd;stroke-width:3.80917;-inkscape-stroke:none"
       d="m -420.60134,-48.492451 h 5.67889 c 2.20228,0 3.97523,1.657943 3.97523,3.717361 v 173.12277 c 0,2.05942 -1.77295,3.71736 -3.97523,3.71736 h -5.67889 c -2.20228,0 -3.97523,-1.65794 -3.97523,-3.71736 V -44.77509 c 0,-2.059418 1.77295,-3.717361 3.97523,-3.717361 z"
       id="path12" /><path
       style="color:#000000;fill:#ffffff;fill-rule:evenodd;stroke-width:3.80917;-inkscape-stroke:none"
       d="m -420.60156,-49.039062 c -2.47629,0 -4.52149,1.890912 -4.52149,4.263671 V 128.34766 c 0,2.37276 2.0452,4.26367 4.52149,4.26367 h 5.67969 c 2.47628,0 4.52148,-1.89091 4.52148,-4.26367 V -44.775391 c 0,-2.372759 -2.0452,-4.263672 -4.52148,-4.263671 z m 0,1.091796 h 5.67969 c 1.92826,0 3.42773,1.425803 3.42773,3.171875 V 128.34766 c 0,1.74607 -1.49947,3.17187 -3.42773,3.17187 h -5.67969 c -1.92827,0 -3.42969,-1.4258 -3.42969,-3.17187 V -44.775391 c 0,-1.746072 1.50142,-3.171875 3.42969,-3.171875 z"
       id="path13" /></g><path
     id="rect287"
     style="display:inline;fill-rule:evenodd;stroke-width:0.999999"
     d="M 46.28898,58.46237 H 83.26146 V 87.83496 H 46.28898 Z" /><path
     id="path1297"
     style="font-style:normal;font-variant:normal;font-weight:bold;font-stretch:normal;font-size:64px;font-family:Tahoma;-inkscape-font-specification:'Tahoma Bold';text-align:center;text-anchor:middle;display:inline;fill:#ffffff;fill-opacity:1;stroke:none;stroke-width:1.48375"
     d="m 59.16261,77.88247 c -1e-5,1.21423 -0.12643,2.28077 -0.37926,3.19963 -0.25286,0.91888 -0.593,1.67913 -1.02042,2.28077 -0.5057,0.72197 -1.06106,1.23609 -1.66607,1.54238 -0.60503,0.30629 -1.3741,0.45944 -2.30721,0.45944 h -5.382 V 60.93265 h 4.74989 c 0.98729,2e-5 1.73529,0.0684 2.244,0.2051 0.50869,0.13676 0.98578,0.42391 1.43128,0.86144 0.4816,0.4704 0.84131,1.09939 1.07911,1.88696 0.23778,0.78762 0.35668,1.69555 0.35669,2.72379 -10e-6,1.19236 -0.16406,2.25343 -0.49214,3.18322 -0.32811,0.92982 -0.78112,1.6135 -1.35904,2.05104 v 0.13127 c 0.83076,0.31724 1.49599,0.96537 1.99567,1.94439 0.49966,0.97904 0.74949,2.29992 0.7495,3.96261 z M 54.83715,67.84056 c -1e-5,-0.39378 -0.0557,-0.79851 -0.16706,-1.21421 -0.11138,-0.41566 -0.28446,-0.71648 -0.51923,-0.90246 -0.22276,-0.175 -0.48614,-0.27072 -0.79015,-0.28715 -0.30402,-0.0164 -0.75704,-0.0246 -1.35904,-0.0246 h -0.23479 v 5.16863 h 0.42442 c 0.57793,1e-5 0.98278,-0.0109 1.21456,-0.0328 0.23177,-0.0218 0.47107,-0.13672 0.71791,-0.34457 0.27089,-0.22971 0.45752,-0.54693 0.55987,-0.95169 0.10233,-0.40472 0.1535,-0.87509 0.15351,-1.41112 z m 0.84884,9.92706 c -10e-6,-0.75477 -0.0843,-1.34548 -0.25285,-1.7721 -0.16857,-0.42661 -0.42141,-0.74931 -0.75853,-0.9681 -0.2047,-0.14219 -0.48614,-0.2215 -0.84433,-0.23792 -0.3582,-0.0164 -0.83831,-0.0246 -1.44031,-0.0246 h -0.62309 v 6.12031 h 0.18061 c 0.87893,1e-5 1.48696,-0.0109 1.8241,-0.0328 0.33712,-0.0218 0.68027,-0.16955 1.02944,-0.44303 0.30702,-0.24065 0.53127,-0.59342 0.67275,-1.05834 0.14147,-0.46489 0.2122,-0.99269 0.21221,-1.5834 z" /><path
     style="display:inline;fill:#ffffff;fill-opacity:1;stroke:none;stroke-width:0.999999"
     d="m 60.90529,60.75471 v 24.81675 h 3.70816 0.0164 5.61146 V 80.51787 H 64.62985 V 60.75471 Z"
     id="rect3178" /><path
     style="display:inline;fill:#ffffff;fill-opacity:1;stroke:none;stroke-width:0.999999"
     d="m 71.53752,60.73831 v 24.81674 h 3.72457 5.61145 v -5.05359 h -5.61145 v -5.84937 h 5.16024 V 69.75437 H 75.26209 V 65.7919 h 5.61145 v -5.05359 h -5.61145 -0.0164 z"
     id="rect3178-7" /><circle
     cx="235.30048"
     cy="-12.668874"
     r="0"
     fill="url(#linearGradient1062)"
     stroke-width="1.57151"
     id="circle5662"
     style="display:inline;fill:url(#linearGradient1062);enable-background:new" /><circle
     r="2.0355482"
     transform="scale(1,-1)"
     cy="-58.462372"
     cx="95.323944"
     id="circle21711-7-41-9-5"
     style="color:#000000;display:inline;overflow:visible;visibility:visible;fill:#7a8599;fill-opacity:1;fill-rule:nonzero;stroke:none;stroke-width:0.38031;marker:none;enable-background:new" /><circle
     r="2.0355482"
     transform="scale(1,-1)"
     cy="-58.462372"
     cx="34.226494"
     id="circle21711-7-41-9-3"
     style="color:#000000;display:inline;overflow:visible;visibility:visible;fill:#7a8599;fill-opacity:1;fill-rule:nonzero;stroke:none;stroke-width:0.38031;marker:none;enable-background:new" /></svg>
