<?xml version="1.0" encoding="UTF-8" standalone="no"?>
<svg
   width="128"
   height="128"
   viewBox="0 0 128 128"
   version="1.1"
   id="svg60"
   xml:space="preserve"
   xmlns:xlink="http://www.w3.org/1999/xlink"
   xmlns="http://www.w3.org/2000/svg"
   xmlns:svg="http://www.w3.org/2000/svg"><defs
     id="defs40"><linearGradient
       id="linearGradient27"><stop
         style="stop-color:#1a1a1a;stop-opacity:1;"
         offset="0"
         id="stop17" /><stop
         style="stop-color:#999999;stop-opacity:1;"
         offset="0.40972617"
         id="stop18" /><stop
         style="stop-color:#1a1a1a;stop-opacity:1;"
         offset="0.81399107"
         id="stop19" /><stop
         style="stop-color:#808080;stop-opacity:1;"
         offset="1"
         id="stop26" /></linearGradient><linearGradient
       xlink:href="#linearGradient27"
       id="linearGradient1099"
       x1="9.9999962"
       y1="68"
       x2="118"
       y2="68"
       gradientUnits="userSpaceOnUse"
       gradientTransform="matrix(1.1111111,0,0,1.0925925,-7.1111084,-8.296287)" /><linearGradient
       id="linearGradient1062"
       x1="399.57001"
       x2="399.57001"
       y1="545.79999"
       y2="517.79999"
       gradientTransform="matrix(2.3810169,0,0,2.3413333,-699.42846,-1264.6489)"
       gradientUnits="userSpaceOnUse"><stop
         stop-color="#3889e9"
         offset="0"
         id="stop5635" /><stop
         stop-color="#5ea5fb"
         offset="1"
         id="stop5637" /></linearGradient><linearGradient
       id="linearGradient27897"><stop
         id="stop27893"
         offset="0"
         style="stop-color:#505050;stop-opacity:1" /><stop
         id="stop27895"
         offset="1"
         style="stop-color:#000000;stop-opacity:1" /></linearGradient><radialGradient
       xlink:href="#linearGradient27897"
       id="radialGradient31"
       cx="95.413879"
       cy="67.798828"
       fx="95.413879"
       fy="67.798828"
       r="8.2350588"
       gradientTransform="matrix(1,0,0,2.8347274,0,-134.45717)"
       gradientUnits="userSpaceOnUse" /><radialGradient
       xlink:href="#linearGradient27897"
       id="radialGradient32"
       cx="34.253956"
       cy="68.127159"
       fx="34.253956"
       fy="68.127159"
       r="8.2350588"
       gradientTransform="matrix(1,0,0,2.8347276,0,-134.9123)"
       gradientUnits="userSpaceOnUse" /></defs><path
     style="fill:url(#linearGradient1099);fill-opacity:1;stroke:none;stroke-width:0.122349"
     d="M 64.000001,7.000004 C 97.14003,7.000004 124,33.412301 124,66.000009 124,98.587699 97.1277,125 64.000001,125 30.872302,125 3.999999,98.587699 3.999999,66.000009 3.999999,33.4123 30.859959,7.000003 64.000001,7.000003"
     id="path24-2" /><ellipse
     fill="url(#c)"
     cx="64"
     cy="62.000004"
     id="circle48"
     style="fill:#000000;fill-opacity:1;fill-rule:evenodd;stroke-width:1.06246"
     rx="60"
     ry="59" /><path
     id="path26-9"
     style="display:inline;fill:#ffffff;stroke:none;stroke-width:1.6676;stroke-linejoin:round"
     d="M 119.55555,62.000009 A 55.555554,54.629675 0 0 1 64,116.62968 55.555554,54.629675 0 0 1 8.4444449,62.000009 55.555554,54.629675 0 0 1 64,7.3703354 55.555554,54.629675 0 0 1 119.55555,62.000009 Z" /><path
     id="path16"
     style="color:#000000;fill:#000000;fill-rule:evenodd;stroke-width:1.10181;-inkscape-stroke:none"
     d="m 51.03776,13.637838 c -0.03547,-8.67e-4 -0.07087,0.0027 -0.106333,0.0022 L 51.035593,13.783 Z m 1.569011,0.108833 c -0.263924,-5.52e-4 -0.528421,0.01821 -0.794271,0.05761 l -0.01302,0.0022 -0.377604,-0.0043 -0.381944,-0.0128 h -0.0043 C 43.555837,13.6063 35.97018,18.483966 34.082472,25.760973 33.641508,27.530499 33.46126,29.206677 33.42926,30.918778 v 0.0043 19.00727 h 7.35026 c 0.02543,-6.688937 -0.03817,-13.34618 0.05209,-20.052916 v -0.0022 -0.0022 c 0.11966,-2.180586 1.032799,-4.412071 2.51302,-6.098886 1.480224,-1.686814 3.53683,-2.830772 5.92665,-2.804036 l 0.149739,0.0022 0.0022,0.147243 c 0.03432,6.827534 -0.07088,13.655984 0.05426,20.475443 0.394313,5.45956 5.673296,9.993063 11.241318,9.530309 h 0.0043 0.0043 c 3.545336,-0.08461 7.101754,0.199972 10.592448,-0.217665 5.260709,-0.97256 8.914297,-6.260198 8.424479,-11.416739 v -0.0064 -18.475911 l 0.141058,-0.01071 c 2.485047,-0.178449 4.671348,0.922194 6.25434,2.624784 1.582998,1.702587 2.572515,4.008104 2.682293,6.27814 v 0.0043 0.0022 c 0.08971,6.706517 0.02679,13.362536 0.05208,20.050782 h 7.35243 v -20.16823 c -0.250249,-2.187999 -0.60693,-4.84752 -1.792534,-6.922598 l -0.0022,-0.0043 -0.0022,-0.0043 C 91.328954,16.673281 84.060071,13.326204 77.207405,13.829909 h -0.01519 l -0.01519,-0.0022 c -1.933076,-0.241429 -4.035429,1.060999 -4.570313,2.853117 0.03325,8.042778 0.0549,16.088706 -0.0066,24.130933 v 0.0043 0.0043 c -0.237131,3.466238 -3.693207,6.103273 -7.157118,5.663557 -2.38736,0.100463 -5.131424,0.0029 -6.803385,-2.061416 -1.125026,-1.171473 -1.500284,-2.598377 -1.608073,-4.06948 -0.1079,-1.472633 0.04416,-2.999126 -0.01953,-4.400246 v -0.0043 -0.0022 c 0.0059,-6.525336 -0.02049,-13.046026 0.03907,-19.562103 -0.851857,-1.669328 -2.596976,-2.633728 -4.444445,-2.637586 z" /><g
     id="g32"
     transform="matrix(1.1111111,0,0,1.0925926,-7.1111105,-5.740743)"><path
       style="color:#000000;opacity:0.9666;fill:url(#radialGradient32);fill-rule:evenodd;stroke-width:0.999999;-inkscape-stroke:none"
       d="M 39.60584,50.18846 V 96.876755 C 30.383859,95.86512 23.135723,85.80134 23.135723,73.532608 c 0,-12.268734 7.248136,-22.332514 16.470117,-23.344148 z"
       id="path14" /><path
       style="color:#000000;opacity:0.9666;fill:#ffffff;fill-rule:evenodd;stroke-width:0.999999;-inkscape-stroke:none"
       d="M 39.743463,50.034733 C 30.430785,51.056316 22.9978,61.209698 22.9978,73.532703 c 0,12.323003 7.280189,22.459466 16.592866,23.48105 l 0.152797,0.01693 z m -0.275341,0.316875 v 46.36219 C 30.410193,95.616911 23.273658,85.678075 23.273658,73.532703 c 0,-12.145374 7.136535,-22.084208 16.194464,-23.181095 z"
       id="path15" /></g><g
     id="rect134"
     transform="matrix(0.2916936,0,0,0.28683204,161.08131,62.207383)"
     style="stroke-width:3.80917"><path
       style="color:#000000;fill:#000000;fill-rule:evenodd;stroke-width:3.80917;-inkscape-stroke:none"
       d="m -232.33033,126.29458 c -0.73412,-0.007 -3.47605,-0.60382 -4.13745,-0.17532 0,0 -1.08737,3.16759 -4.83445,5.95617 -3.28936,2.44794 -6.41303,4.79448 -9.75936,6.99567 -3.00465,1.97642 -6.22939,4.11361 -9.25034,5.56757 -2.37715,1.14409 -4.31966,1.3106 -4.31966,1.3106 h -33.83053 c -2.11336,0 -3.84487,1.66652 -3.84487,3.74063 v 0.91875 c 0,2.0741 1.73151,3.77343 3.84487,3.77343 h 35.57342 c 0.81866,0 3.77698,-0.86123 5.53612,-1.63304 4.38568,-1.9242 7.24392,-4.37432 12.29539,-7.37881 5.37008,-3.43474 15.30126,-11.43033 15.30126,-11.43033 1.76372,-1.14268 2.23418,-3.45342 1.06988,-5.18438 l -0.50151,-0.7875 c -0.7277,-1.08185 -1.91925,-1.66153 -3.14277,-1.67344 z"
       id="path3" /><path
       style="color:#000000;fill:#ffffff;fill-rule:evenodd;stroke-width:3.80917;-inkscape-stroke:none"
       d="m -235.65234,125.43945 c -0.39988,0.005 -0.75062,0.0109 -1.10157,0.23828 l -0.15234,0.0996 -0.0586,0.17188 c 0,0 -1.01705,3.00114 -4.65039,5.70508 -3.29056,2.44883 -6.40585,4.78903 -9.73438,6.97851 -3.00573,1.97714 -6.2181,4.10312 -9.18945,5.53321 -2.28326,1.0989 -4.10727,1.25628 -4.125,1.25781 h -33.79883 c -2.38936,0 -4.36914,1.89933 -4.36914,4.26562 v 0.91992 c 0,2.36629 1.97435,4.29688 4.36914,4.29688 h 35.57422 c 0.59343,0 1.48265,-0.22979 2.5625,-0.54688 1.07984,-0.31708 2.27066,-0.72836 3.18359,-1.1289 4.45898,-1.95636 7.33505,-4.42334 12.35352,-7.4082 l 0.008,-0.006 0.008,-0.004 c 5.43412,-3.4757 15.34766,-11.46289 15.34766,-11.46289 l -0.0449,0.0312 c 1.99849,-1.29479 2.54098,-3.95133 1.2207,-5.91602 l -0.49805,-0.78515 -0.004,-0.004 c -0.82736,-1.23001 -2.18822,-1.89276 -3.57422,-1.90625 -0.23104,-0.002 -1.15976,-0.14913 -2.04102,-0.24805 -0.44063,-0.0494 -0.88528,-0.0867 -1.28515,-0.082 z m 0.0137,1.05078 c 0.32319,-0.004 0.735,0.0272 1.1543,0.0742 0.83858,0.0941 1.64535,0.25107 2.14843,0.25586 1.06104,0.0103 2.08485,0.50772 2.71289,1.44141 l 0.49805,0.78125 0.004,0.006 c 1.00698,1.49707 0.60848,3.46094 -0.91993,4.45117 l -0.0234,0.0137 -0.0215,0.0176 c 0,0 -9.94787,8.00271 -15.2539,11.39648 -5.07458,3.01977 -7.9167,5.44977 -12.22461,7.33985 -0.84621,0.37127 -2.01288,0.7775 -3.05664,1.08398 -1.04377,0.30649 -2.04235,0.50586 -2.26758,0.50586 h -35.57422 c -1.83193,0 -3.31836,-1.46614 -3.31836,-3.24805 v -0.91992 c 0,-1.78192 1.481,-3.21484 3.31836,-3.21484 h 33.85352 l 0.0234,-0.002 c 0,0 2.04204,-0.17741 4.50196,-1.36133 3.07054,-1.47783 6.30698,-3.62586 9.31054,-5.60156 3.36413,-2.2129 6.49701,-4.56663 9.78516,-7.01368 3.61168,-2.68781 4.73518,-5.55762 4.88086,-5.94531 0.0411,-0.008 0.18974,-0.0573 0.46875,-0.0606 z"
       id="path5" /></g><g
     id="g31"
     transform="matrix(1.1111111,0,0,1.0925926,-7.1111105,-5.740743)"><path
       style="color:#000000;opacity:0.9666;fill:url(#radialGradient31);fill-rule:evenodd;stroke-width:0.999999;-inkscape-stroke:none"
       d="m 89.781512,49.9404 v 46.688295 c 9.221981,-1.011632 16.470118,-11.075414 16.470118,-23.344146 0,-12.268734 -7.248137,-22.332514 -16.470118,-23.344149 z"
       id="path6" /><path
       style="color:#000000;opacity:0.9666;fill:#ffffff;fill-rule:evenodd;stroke-width:0.999999;-inkscape-stroke:none"
       d="m 89.643579,49.786565 v 0.153823 46.842118 l 0.152797,-0.01691 c 9.312678,-1.021581 16.592864,-11.158048 16.592864,-23.48105 0,-12.323005 -7.280186,-22.459466 -16.592864,-23.48105 z m 0.275856,0.316875 c 9.057929,1.096887 16.194465,11.035721 16.194465,23.181096 0,12.145371 -7.136536,22.084211 -16.194465,23.181095 z"
       id="path8" /></g><g
     id="path906"
     style="opacity:0.9666;stroke-width:3.80917"
     transform="matrix(0.2916936,0,0,0.28683204,161.08131,62.207383)"><path
       style="color:#000000;fill:#000000;fill-rule:evenodd;stroke-width:3.80917;-inkscape-stroke:none"
       d="m -298.28094,148.97929 a 28.875,16.799999 0 0 1 -28.875,16.8 28.875,16.799999 0 0 1 -28.875,-16.8 28.875,16.799999 0 0 1 28.875,-16.8 28.875,16.799999 0 0 1 28.875,16.8 z"
       id="path1" /><path
       style="color:#000000;fill:#ffffff;fill-rule:evenodd;stroke-width:3.80917;-inkscape-stroke:none"
       d="m -327.15625,131.55078 c -8.07257,0 -15.38874,1.89567 -20.73437,5.00586 -5.34564,3.11019 -8.76954,7.49034 -8.76954,12.42188 0,4.93153 3.4239,9.31364 8.76954,12.42382 5.34563,3.11019 12.6618,5.00586 20.73437,5.00586 8.07257,0 15.38874,-1.89567 20.73438,-5.00586 5.34563,-3.11018 8.76953,-7.49229 8.76953,-12.42382 0,-4.93154 -3.4239,-9.31169 -8.76953,-12.42188 -5.34564,-3.11019 -12.66181,-5.00586 -20.73438,-5.00586 z m 0,1.25781 c 7.87464,0 14.99651,1.86573 20.10156,4.83594 5.10505,2.97021 8.14453,6.98714 8.14453,11.33399 0,4.34684 -3.03948,8.36572 -8.14453,11.33593 -5.10505,2.97021 -12.22692,4.83594 -20.10156,4.83594 -7.87464,0 -14.99651,-1.86573 -20.10156,-4.83594 -5.10505,-2.97021 -8.14453,-6.98909 -8.14453,-11.33593 0,-4.34685 3.03948,-8.36378 8.14453,-11.33399 5.10505,-2.97021 12.22692,-4.83594 20.10156,-4.83594 z"
       id="path2" /></g><g
     id="rect908-1"
     style="opacity:0.9666;stroke-width:3.80917"
     transform="matrix(0.2916936,0,0,0.28683204,161.08131,62.207383)"><path
       style="color:#000000;fill:#000000;fill-rule:evenodd;stroke-width:3.80917;-inkscape-stroke:none"
       d="m -245.89778,-49.536945 h 5.79457 c 2.24713,0 4.0562,1.657841 4.0562,3.717132 V 127.29235 c 0,2.0593 -1.80907,3.71714 -4.0562,3.71714 h -5.79457 c -2.24713,0 -4.0562,-1.65784 -4.0562,-3.71714 V -45.819813 c 0,-2.059291 1.80907,-3.717132 4.0562,-3.717132 z"
       id="path9" /><path
       style="color:#000000;fill:#ffffff;fill-rule:evenodd;stroke-width:3.80917;-inkscape-stroke:none"
       d="m -245.89844,-50.087891 c -2.51836,0 -4.60742,1.885312 -4.60742,4.267579 V 127.29297 c 0,2.38227 2.08906,4.26758 4.60742,4.26758 h 5.79492 c 2.51837,0 4.60743,-1.88531 4.60743,-4.26758 V -45.820312 c 0,-2.382267 -2.08906,-4.267579 -4.60743,-4.267579 z m 0,1.101563 h 5.79492 c 1.9759,0 3.50586,1.429704 3.50586,3.166016 V 127.29297 c 0,1.73632 -1.52996,3.16601 -3.50586,3.16601 h -5.79492 c -1.97589,0 -3.5039,-1.42969 -3.5039,-3.16601 V -45.820312 c 0,-1.736312 1.52801,-3.166016 3.5039,-3.166016 z"
       id="path11" /></g><g
     id="rect908-1-6"
     style="opacity:0.9666;stroke-width:3.80917"
     transform="matrix(0.2916936,0,0,0.28683204,161.08131,62.207383)"><path
       style="color:#000000;fill:#000000;fill-rule:evenodd;stroke-width:3.80917;-inkscape-stroke:none"
       d="m -420.60134,-48.492451 h 5.67889 c 2.20228,0 3.97523,1.657943 3.97523,3.717361 v 173.12277 c 0,2.05942 -1.77295,3.71736 -3.97523,3.71736 h -5.67889 c -2.20228,0 -3.97523,-1.65794 -3.97523,-3.71736 V -44.77509 c 0,-2.059418 1.77295,-3.717361 3.97523,-3.717361 z"
       id="path12" /><path
       style="color:#000000;fill:#ffffff;fill-rule:evenodd;stroke-width:3.80917;-inkscape-stroke:none"
       d="m -420.60156,-49.039062 c -2.47629,0 -4.52149,1.890912 -4.52149,4.263671 V 128.34766 c 0,2.37276 2.0452,4.26367 4.52149,4.26367 h 5.67969 c 2.47628,0 4.52148,-1.89091 4.52148,-4.26367 V -44.775391 c 0,-2.372759 -2.0452,-4.263672 -4.52148,-4.263671 z m 0,1.091796 h 5.67969 c 1.92826,0 3.42773,1.425803 3.42773,3.171875 V 128.34766 c 0,1.74607 -1.49947,3.17187 -3.42773,3.17187 h -5.67969 c -1.92827,0 -3.42969,-1.4258 -3.42969,-3.17187 V -44.775391 c 0,-1.746072 1.50142,-3.171875 3.42969,-3.171875 z"
       id="path13" /></g><path
     id="rect287"
     style="display:inline;fill-rule:evenodd;stroke-width:1.10181"
     d="M 44.321089,58.13481 H 85.401622 V 90.227084 H 44.321089 Z" /><path
     id="path1297"
     style="font-style:normal;font-variant:normal;font-weight:bold;font-stretch:normal;font-size:64px;font-family:Tahoma;-inkscape-font-specification:'Tahoma Bold';text-align:center;text-anchor:middle;display:inline;fill:#ffffff;fill-opacity:1;stroke:none;stroke-width:1.63481"
     d="m 58.625122,79.353067 c -1.1e-5,1.326659 -0.140478,2.491953 -0.4214,3.495892 -0.280955,1.003962 -0.658889,1.834605 -1.1338,2.491953 -0.561889,0.788819 -1.178955,1.350543 -1.851189,1.685193 -0.672255,0.33465 -1.526777,0.501981 -2.563566,0.501981 h -5.98 V 60.833819 h 5.277655 c 1.096989,2.2e-5 1.9281,0.07473 2.493334,0.224091 0.565211,0.149423 1.095311,0.463161 1.590311,0.941203 0.535111,0.513956 0.934789,1.201186 1.199011,2.061679 0.2642,0.860548 0.396311,1.852545 0.396322,2.975993 -1.1e-5,1.302763 -0.182289,2.46208 -0.546822,3.477962 -0.364567,1.015915 -0.867911,1.762898 -1.510045,2.240951 v 0.143425 c 0.923067,0.346614 1.662211,1.054756 2.217411,2.124426 0.555178,1.069692 0.832767,2.512876 0.832778,4.329518 z M 53.819056,68.381351 c -1.2e-5,-0.430241 -0.06189,-0.872446 -0.185623,-1.326637 -0.123755,-0.454147 -0.316066,-0.782821 -0.576922,-0.986021 -0.247511,-0.191204 -0.540155,-0.295787 -0.877944,-0.313738 -0.3378,-0.01792 -0.841156,-0.02688 -1.510045,-0.02688 h -0.260878 v 5.647207 h 0.471578 c 0.642145,1.1e-5 1.091978,-0.01191 1.349511,-0.03584 0.257523,-0.02382 0.523411,-0.149379 0.797678,-0.376475 0.300989,-0.250979 0.508356,-0.597571 0.622078,-1.039809 0.1137,-0.442194 0.170555,-0.956117 0.170567,-1.541779 z m 0.943155,10.846232 c -1.1e-5,-0.824656 -0.09367,-1.470061 -0.280944,-1.936183 -0.1873,-0.466111 -0.468234,-0.818691 -0.842811,-1.057739 -0.227445,-0.155356 -0.540156,-0.242009 -0.938145,-0.25995 -0.398,-0.01792 -0.931455,-0.02688 -1.600344,-0.02688 h -0.692323 v 6.687006 h 0.200678 c 0.976589,1.1e-5 1.652178,-0.01191 2.026778,-0.03584 0.374578,-0.02382 0.755856,-0.185249 1.143822,-0.484051 0.341134,-0.262933 0.5903,-0.648367 0.7475,-1.156335 0.157189,-0.507935 0.235778,-1.084606 0.235789,-1.730011 z" /><path
     style="display:inline;fill:#ffffff;fill-opacity:1;stroke:none;stroke-width:1.10181"
     d="m 60.561433,60.639404 v 27.114597 h 4.120178 0.01822 6.234956 V 82.232486 H 64.699833 V 60.639404 Z"
     id="rect3178" /><path
     style="display:inline;fill:#ffffff;fill-opacity:1;stroke:none;stroke-width:1.10181"
     d="m 72.375022,60.621485 v 27.114587 h 4.138411 6.234944 v -5.521516 h -6.234944 v -6.390978 h 5.7336 v -5.351213 h -5.7336 V 66.143 h 6.234944 v -5.521515 h -6.234944 -0.01822 z"
     id="rect3178-7" /><circle
     cx="254.33386"
     cy="-19.582661"
     r="0"
     fill="url(#linearGradient1062)"
     stroke-width="1.73151"
     id="circle5662"
     style="display:inline;fill:url(#linearGradient1062);enable-background:new" /><ellipse
     transform="scale(1,-1)"
     cy="-58.134811"
     cx="98.804382"
     id="circle21711-7-41-9-5"
     style="color:#000000;display:inline;overflow:visible;visibility:visible;fill:#7a8599;fill-opacity:1;fill-rule:nonzero;stroke:none;stroke-width:0.41903;marker:none;enable-background:new"
     rx="2.2617202"
     ry="2.224025" /><ellipse
     transform="scale(1,-1)"
     cy="-58.134811"
     cx="30.918327"
     id="circle21711-7-41-9-3"
     style="color:#000000;display:inline;overflow:visible;visibility:visible;fill:#7a8599;fill-opacity:1;fill-rule:nonzero;stroke:none;stroke-width:0.41903;marker:none;enable-background:new"
     rx="2.2617202"
     ry="2.224025" /></svg>
