<?xml version="1.0" encoding="UTF-8"?>
<svg height="128px" viewBox="0 0 128 128" width="128px" xmlns="http://www.w3.org/2000/svg">
    <g fill-rule="evenodd">
        <path d="m 32 116 c -8.574219 0 -16.496094 -4.839844 -20.785156 -12.691406 c -4.285156 -7.855469 -4.285156 -17.53125 0 -25.386719 c 4.289062 -7.851563 12.210937 -12.691406 20.785156 -12.691406" fill="#1a5fb4"/>
        <path d="m 8 83.691406 h 1.035156 v 6.925782 h -1.035156 z m 0 0" fill="#1a5fb4"/>
        <path d="m 36 58.308594 c 1.105469 0 2 1.03125 2 2.308594 v 53.074218 c 0 1.277344 -0.894531 2.308594 -2 2.308594 s -2 -1.03125 -2 -2.308594 v -53.074218 c 0 -1.277344 0.894531 -2.308594 2 -2.308594 z m 0 0" fill="#1a5fb4"/>
        <path d="m 96 116 c 8.574219 0 16.496094 -4.839844 20.785156 -12.691406 c 4.285156 -7.855469 4.285156 -17.53125 0 -25.386719 c -4.289062 -7.851563 -12.210937 -12.691406 -20.785156 -12.691406" fill="#1a5fb4"/>
        <path d="m 118.964844 83.691406 h 1.035156 v 6.925782 h -1.035156 z m 0 0" fill="#1a5fb4"/>
        <path d="m 92 58.308594 c -1.105469 0 -2 1.03125 -2 2.308594 v 53.074218 c 0 1.277344 0.894531 2.308594 2 2.308594 s 2 -1.03125 2 -2.308594 v -53.074218 c 0 -1.277344 -0.894531 -2.308594 -2 -2.308594 z m 0 0" fill="#1a5fb4"/>
        <path d="m 72 123 c 0 2.761719 -3.582031 5 -8 5 s -8 -2.238281 -8 -5 s 3.582031 -5 8 -5 s 8 2.238281 8 5 z m 0 0" fill="#1a5fb4"/>
        <path d="m 56 121 h 0.894531 v 2.023438 h -0.894531 z m 0 0" fill="#1a5fb4"/>
    </g>
    <path d="m 28 60 c 0 -39.503906 20 -46 20 -46 c 0 19.992188 0 34 16 34 s 16 -14.007812 16 -34 c 0 0 20 6 20 46" fill="none" stroke="#1a5fb4" stroke-linejoin="round" stroke-width="7.998"/>
    <path d="m 70 122.996094 c 26 0 27 0.003906 27 -9.996094" fill="none" stroke="#1a5fb4" stroke-linejoin="round" stroke-width="1.99991"/>
    <path d="m 71.023438 122 c 26 0 26 0.003906 26 -9.996094" fill="none" stroke="#1a5fb4" stroke-linejoin="round" stroke-width="1.99991"/>
    <path d="m 32 111.382812 c -8.574219 0 -16.496094 -5.277343 -20.785156 -13.84375 c -4.285156 -8.570312 -4.285156 -19.125 0 -27.691406 c 4.289062 -8.570312 12.210937 -13.847656 20.785156 -13.847656" fill="#62a0ea" fill-rule="evenodd"/>
    <path d="m 36 56 c 1.105469 0 2 0.992188 2 2.214844 v 50.953125 c 0 1.226562 -0.894531 2.214843 -2 2.214843 s -2 -0.988281 -2 -2.214843 v -50.953125 c 0 -1.222656 0.894531 -2.214844 2 -2.214844 z m 0 0" fill="#62a0ea" fill-rule="evenodd"/>
    <path d="m 96 111.382812 c 8.574219 0 16.496094 -5.277343 20.785156 -13.84375 c 4.285156 -8.570312 4.285156 -19.125 0 -27.691406 c -4.289062 -8.570312 -12.210937 -13.847656 -20.785156 -13.847656" fill="#62a0ea" fill-rule="evenodd"/>
    <path d="m 92 56 c -1.105469 0 -2 0.992188 -2 2.214844 v 50.953125 c 0 1.226562 0.894531 2.214843 2 2.214843 s 2 -0.988281 2 -2.214843 v -50.953125 c 0 -1.222656 -0.894531 -2.214844 -2 -2.214844 z m 0 0" fill="#62a0ea" fill-rule="evenodd"/>
    <path d="m 72 121 c 0 2.761719 -3.582031 5 -8 5 s -8 -2.238281 -8 -5 s 3.582031 -5 8 -5 s 8 2.238281 8 5 z m 0 0" fill="#62a0ea" fill-rule="evenodd"/>
    <path d="m 28 58 c 0 -39.503906 20 -46.003906 20 -46.003906 c 0 19.992187 0 34 16 34 s 16 -14.007813 16 -34 c 0 0 20 6 20 46" fill="none" stroke="#62a0ea" stroke-linejoin="round" stroke-width="7.998"/>
    <path d="m 71 121 c 26 0 26 0 26 -10" fill="none" stroke="#62a0ea" stroke-linejoin="round" stroke-width="1.99991"/>
</svg>
