<?xml version="1.0" encoding="UTF-8"?>
<svg height="128px" viewBox="0 0 128 128" width="128px" xmlns="http://www.w3.org/2000/svg" xmlns:xlink="http://www.w3.org/1999/xlink">
    <linearGradient id="a" gradientTransform="matrix(1.022746 0 0 1.023349 -1.448946 3.563402)" gradientUnits="userSpaceOnUse" x1="9.2404" x2="118.75" y1="60.522999" y2="60.522999">
        <stop offset="0.6926" stop-color="#5b6d7d"/>
        <stop offset="0.77063" stop-color="#b7c1ca"/>
        <stop offset="0.83285" stop-color="#5b6d7d"/>
    </linearGradient>
    <linearGradient id="b" gradientTransform="matrix(0.344605 0 0 0.344705 -1.120951 -2.652559)" gradientUnits="userSpaceOnUse" spreadMethod="reflect" x1="231.130005" x2="144.059998" y1="342.540009" y2="34.762001">
        <stop offset="0.2054" stop-color="#90a0ae"/>
        <stop offset="0.52424" stop-color="#bbc6d1"/>
        <stop offset="0.95265" stop-color="#eeeeee"/>
    </linearGradient>
    <path d="m 37.875 9.75 c -3.941406 -1.054688 -8.027344 1.292969 -9.085938 5.242188 c -7.582031 28.289062 -20.789062 75.546874 -20.789062 75.546874 v 3.035157 c 0.011719 3.273437 2.210938 6.273437 5.511719 7.144531 c 29.023437 7.777344 47.59375 12.753906 76.617187 20.53125 c 3.941406 1.054688 8.027344 -1.292969 9.082032 -5.242188 c 6.882812 -25.6875 13.96875 -52.117187 20.535156 -76.648437 c 0.167968 -0.632813 0.25 -1.273437 0.25 -1.902344 c 0.003906 -3.285156 0 -2.96875 0 -2.96875 s -53.101563 -16.960937 -82.121094 -24.738281 z m 18.554688 39.597656 c 8.410156 2.25 13.785156 3.695313 22.195312 5.945313 c 1.144531 0.300781 1.832031 1.488281 1.523438 2.632812 c -1.902344 7.109375 -3.953126 14.765625 -5.949219 22.210938 c -0.304688 1.140625 -1.488281 1.820312 -2.628907 1.515625 c -8.414062 -2.25 -13.792968 -3.695313 -22.199218 -5.945313 c -1.144532 -0.300781 -1.832032 -1.488281 -1.527344 -2.632812 c 2.0625 -7.695313 3.753906 -14.011719 5.949219 -22.210938 c 0.308593 -1.140625 1.492187 -1.820312 2.636719 -1.515625 z m 0 0" fill="url(#a)"/>
    <path d="m 37.875 6.75 c -3.941406 -1.054688 -8.027344 1.292969 -9.085938 5.242188 c -7.582031 28.289062 -13.421874 50.085937 -20.535156 76.644531 c -1.058594 3.957031 1.308594 8.042969 5.257813 9.082031 c 29.023437 7.773438 47.59375 12.753906 76.617187 20.53125 c 3.941406 1.054688 8.027344 -1.292969 9.082032 -5.242188 c 6.882812 -25.691406 13.96875 -52.121093 20.535156 -76.648437 c 1.0625 -3.957031 -1.308594 -8.039063 -5.257813 -9.074219 c -29.023437 -7.777344 -47.59375 -12.757812 -76.613281 -20.535156 z m 18.554688 39.597656 c 8.410156 2.25 13.785156 3.695313 22.195312 5.949219 c 1.144531 0.296875 1.832031 1.484375 1.523438 2.628906 c -1.902344 7.109375 -3.953126 14.765625 -5.949219 22.210938 c -0.304688 1.140625 -1.488281 1.820312 -2.628907 1.515625 c -8.414062 -2.25 -13.792968 -3.695313 -22.199218 -5.945313 c -1.144532 -0.300781 -1.832032 -1.488281 -1.527344 -2.632812 c 2.0625 -7.695313 3.753906 -14.011719 5.949219 -22.210938 c 0.308593 -1.140625 1.492187 -1.820312 2.636719 -1.515625 z m 0 0" fill="url(#b)"/>
</svg>
