<?xml version="1.0" encoding="UTF-8"?>
<svg height="128px" viewBox="0 0 128 128" width="128px" xmlns="http://www.w3.org/2000/svg" xmlns:xlink="http://www.w3.org/1999/xlink">
    <linearGradient id="a" gradientTransform="matrix(0.344613 0 0 0.344704 -1.122608 0.345615)" gradientUnits="userSpaceOnUse" spreadMethod="reflect" x1="27.084999" x2="318.040009" y1="183.759995" y2="183.690002">
        <stop offset="0.81356" stop-color="#00507a"/>
        <stop offset="0.87581" stop-color="#79cfff"/>
        <stop offset="0.92731" stop-color="#00507a"/>
    </linearGradient>
    <linearGradient id="b" gradientTransform="matrix(-0.344613 0.00000026 0.00000026 -0.344704 129.122406 130.649399)" gradientUnits="userSpaceOnUse" spreadMethod="reflect" x1="316.549988" x2="26.792" y1="351.480011" y2="351.5">
        <stop offset="0.3167" stop-color="#761bca"/>
        <stop offset="0.34629" stop-color="#c99ff3"/>
        <stop offset="0.37024" stop-color="#761bca"/>
        <stop offset="0.84631" stop-color="#761bca"/>
        <stop offset="0.90407" stop-color="#c99ff3"/>
        <stop offset="0.94446" stop-color="#761bca"/>
    </linearGradient>
    <linearGradient id="c" gradientTransform="matrix(0.344613 0 0 0.344704 -1.122608 -2.652158)" gradientUnits="userSpaceOnUse" spreadMethod="reflect" x1="153.619995" x2="190.470001" y1="320.959991" y2="183.419998">
        <stop offset="0" stop-color="#0079bc"/>
        <stop offset="0.49" stop-color="#00a1ff"/>
        <stop offset="1" stop-color="#79cfff"/>
    </linearGradient>
    <linearGradient id="d" gradientTransform="matrix(-0.344613 0.00000026 0.00000026 -0.344704 129.122406 127.651291)" gradientUnits="userSpaceOnUse" spreadMethod="reflect" x1="153.619995" x2="190.470001" y1="320.959991" y2="183.419998">
        <stop offset="0" stop-color="#903be5"/>
        <stop offset="1" stop-color="#c9a0f3"/>
    </linearGradient>
    <g fill-rule="evenodd">
        <path d="m 108.332031 78.171875 s -0.011719 -0.449219 0 2.816406 c 0.003907 0.640625 -0.078125 1.289063 -0.25 1.9375 c -3.886719 14.503907 -4.976562 18.578125 -8.863281 33.082031 c -1.0625 3.949219 -5.144531 6.292969 -9.085938 5.238282 c -29.023437 -7.777344 -47.59375 -12.753906 -76.617187 -20.53125 c -3.296875 -0.867188 -5.492187 -3.859375 -5.507813 -7.125 c -0.003906 -0.644532 0 -2.898438 0 -2.898438 s 3.332032 -10.5625 6.269532 -21.535156 c 1.046875 -3.957031 5.125 -6.289062 9.101562 -5.234375 c 14.507813 3.886719 23.785156 6.371094 38.292969 10.257813 c 4.796875 1.292968 9.769531 -1.679688 11.019531 -6.355469 c 0.3125 -1.15625 1.496094 -1.632813 2.460938 -1.402344 z m 0 0" fill="url(#a)"/>
        <path d="m 25.167969 57.152344 c -3.308594 -0.886719 -5.492188 -3.890625 -5.496094 -7.160156 c 0 -0.636719 0 -2.867188 0 -2.867188 s 5.226563 -17.632812 9.117187 -32.140625 c 1.054688 -3.945313 5.136719 -6.289063 9.082032 -5.234375 c 29.023437 7.777344 82.128906 24.957031 82.128906 24.957031 s -0.011719 -0.558593 0 2.714844 c 0 0.636719 -0.082031 1.289063 -0.253906 1.933594 c -2.9375 10.972656 -3.082032 11.511719 -6.023438 22.480469 c -1.046875 3.960937 -5.121094 6.292968 -9.097656 5.238281 c -14.511719 -3.886719 -23.785156 -6.371094 -38.296875 -10.261719 c -4.796875 -1.285156 -9.765625 1.683594 -11.015625 6.359375 c -0.308594 1.15625 -1.496094 1.628906 -2.460938 1.402344 z m 0 0" fill="url(#b)"/>
        <path d="m 102.832031 70.84375 c 3.953125 1.058594 6.300781 5.144531 5.246094 9.085938 c -3.886719 14.503906 -4.976563 18.574218 -8.863281 33.082031 c -1.0625 3.945312 -5.144532 6.289062 -9.085938 5.234375 c -29.023437 -7.777344 -47.59375 -12.75 -76.617187 -20.527344 c -3.945313 -1.039062 -6.320313 -5.121094 -5.257813 -9.078125 c 2.9375 -10.96875 3.082032 -11.511719 6.019532 -22.480469 c 1.046874 -3.960937 5.125 -6.292968 9.101562 -5.238281 c 14.507812 3.890625 23.785156 6.371094 38.292969 10.261719 c 4.796875 1.289062 9.769531 -1.679688 11.023437 -6.355469 c 0.308594 -1.160156 1.492188 -1.632813 2.457032 -1.40625 z m 0 0" fill="url(#c)"/>
        <path d="m 25.167969 54.15625 c -3.953125 -1.058594 -6.304688 -5.140625 -5.242188 -9.085938 c 3.882813 -14.503906 4.972657 -18.578124 8.863281 -33.082031 c 1.054688 -3.949219 5.136719 -6.292969 9.082032 -5.238281 c 29.023437 7.777344 47.589844 12.753906 76.617187 20.53125 c 3.949219 1.039062 6.316407 5.121094 5.257813 9.078125 c -2.9375 10.96875 -3.082032 11.507813 -6.023438 22.480469 c -1.046875 3.957031 -5.121094 6.289062 -9.097656 5.234375 c -14.511719 -3.882813 -23.785156 -6.371094 -38.296875 -10.257813 c -4.796875 -1.289062 -9.765625 1.679688 -11.015625 6.359375 c -0.3125 1.152344 -1.496094 1.625 -2.460938 1.398438 z m 0 0" fill="url(#d)"/>
    </g>
</svg>
