<?xml version="1.0" encoding="UTF-8"?>
<svg height="128px" viewBox="0 0 128 128" width="128px" xmlns="http://www.w3.org/2000/svg" xmlns:xlink="http://www.w3.org/1999/xlink">
    <linearGradient id="a" gradientUnits="userSpaceOnUse" x1="19.672663" x2="120" y1="36.463951" y2="36.463951">
        <stop offset="0.266392" stop-color="#087fc3"/>
        <stop offset="0.298761" stop-color="#84cffb"/>
        <stop offset="0.326847" stop-color="#087fc3"/>
        <stop offset="0.857611" stop-color="#087fc3"/>
        <stop offset="0.914561" stop-color="#84cffb"/>
        <stop offset="0.955036" stop-color="#087fc3"/>
    </linearGradient>
    <linearGradient id="b" gradientUnits="userSpaceOnUse" x1="8" x2="108.327347" y1="94.535728" y2="94.535728">
        <stop offset="0.798165" stop-color="#0770ab"/>
        <stop offset="0.864413" stop-color="#84cffb"/>
        <stop offset="0.937476" stop-color="#0770ab"/>
    </linearGradient>
    <linearGradient id="c" gradientTransform="matrix(0.966871 0.259073 -0.259072 0.966873 18.271053 -13.007441)" gradientUnits="userSpaceOnUse" x1="91.163452" x2="34.836014" y1="108.165627" y2="13.990607">
        <stop offset="0" stop-color="#1491dc"/>
        <stop offset="0.52424" stop-color="#06a0f5"/>
        <stop offset="0.95265" stop-color="#01edff"/>
    </linearGradient>
    <linearGradient id="d" gradientTransform="matrix(0.966871 0.259073 -0.259072 0.966873 18.271053 -13.004786)" gradientUnits="userSpaceOnUse" x1="91.163452" x2="34.836014" y1="108.165627" y2="13.990607">
        <stop offset="0" stop-color="#1491dc"/>
        <stop offset="0.52424" stop-color="#04a2f7"/>
        <stop offset="0.95265" stop-color="#00edff"/>
    </linearGradient>
    <g fill-rule="evenodd">
        <path d="m 25.171875 57.15625 c -3.316406 -0.886719 -5.503906 -3.902344 -5.5 -7.179688 c 0.003906 -0.632812 0 -2.90625 0 -2.90625 s 5.230469 -17.578124 9.117187 -32.082031 c 1.058594 -3.949219 5.140626 -6.292969 9.085938 -5.238281 c 29.019531 7.777344 82.125 24.632812 82.125 24.632812 v 3.066407 c 0 0.632812 -0.082031 1.273437 -0.253906 1.914062 c -2.9375 10.964844 -1.851563 6.921875 -4.792969 17.894531 c -1.046875 3.957032 -5.121094 6.289063 -9.097656 5.234376 c -19.355469 -5.183594 -31.632813 -8.472657 -49.417969 -13.238282 c -1.214844 -0.324218 -2.347656 0.449219 -2.632812 1.515625 c -0.472657 1.761719 -2.964844 11.207031 -2.964844 11.207031 c -0.3125 1.152344 -1.496094 1.625 -2.460938 1.398438 z m 0 0" fill="url(#a)"/>
        <path d="m 108.328125 77.941406 s -0.011719 -0.214844 0 3.050782 c 0 0.640624 -0.082031 1.292968 -0.253906 1.9375 c -3.882813 14.503906 -4.972657 18.578124 -8.863281 33.078124 c -1.058594 3.949219 -5.140626 6.296876 -9.085938 5.242188 c -29.019531 -7.777344 -47.589844 -12.753906 -76.613281 -20.53125 c -3.296875 -0.871094 -5.492188 -3.859375 -5.511719 -7.125 c -0.003906 -0.644531 0 -3.054688 0 -3.054688 s 2.105469 -5.824218 5.046875 -16.796874 c 1.046875 -3.957032 5.121094 -6.289063 9.097656 -5.234376 c 19.355469 5.183594 31.632813 8.472657 49.417969 13.238282 c 1.214844 0.324218 2.347656 -0.449219 2.632812 -1.515625 c 0.472657 -1.761719 2.964844 -11.207031 2.964844 -11.207031 c 0.3125 -1.152344 1.496094 -1.625 2.460938 -1.398438 z m 0 0" fill="url(#b)"/>
        <path d="m 25.171875 54.15625 c -3.953125 -1.058594 -6.304687 -5.140625 -5.246094 -9.085938 c 3.882813 -14.503906 4.976563 -18.578124 8.863281 -33.078124 c 1.058594 -3.949219 5.140626 -6.296876 9.085938 -5.242188 c 29.019531 7.777344 47.589844 12.753906 76.613281 20.53125 c 3.949219 1.042969 6.320313 5.125 5.257813 9.082031 c -2.9375 10.964844 -1.851563 6.921875 -4.792969 17.894531 c -1.046875 3.957032 -5.121094 6.289063 -9.097656 5.234376 c -19.355469 -5.183594 -31.632813 -8.472657 -49.417969 -13.238282 c -1.214844 -0.324218 -2.347656 0.449219 -2.632812 1.515625 c -0.472657 1.761719 -2.964844 11.207031 -2.964844 11.207031 c -0.3125 1.152344 -1.496094 1.625 -2.460938 1.398438 z m 0 0" fill="url(#c)"/>
        <path d="m 102.828125 70.84375 c 3.953125 1.058594 6.304687 5.140625 5.246094 9.085938 c -3.882813 14.503906 -4.972657 18.578124 -8.863281 33.082031 c -1.058594 3.949219 -5.140626 6.292969 -9.085938 5.238281 c -29.019531 -7.777344 -47.589844 -12.753906 -76.613281 -20.53125 c -3.949219 -1.042969 -6.320313 -5.125 -5.257813 -9.082031 c 2.9375 -10.964844 1.851563 -6.921875 4.792969 -17.894531 c 1.046875 -3.957032 5.121094 -6.289063 9.097656 -5.234376 c 19.355469 5.183594 31.632813 8.472657 49.417969 13.238282 c 1.214844 0.324218 2.347656 -0.449219 2.632812 -1.515625 c 0.472657 -1.761719 2.964844 -11.207031 2.964844 -11.207031 c 0.3125 -1.152344 1.496094 -1.625 2.460938 -1.398438 z m 0 0" fill="url(#d)"/>
    </g>
</svg>
