<?xml version="1.0" encoding="UTF-8" standalone="no"?>
<!-- Generator: Adobe Illustrator 16.0.0, SVG Export Plug-In . SVG Version: 6.00 Build 0)  -->

<svg
   version="1.1"
   id="Capa_1"
   x="0px"
   y="0px"
   width="128"
   height="128"
   viewBox="0 0 128 128"
   enable-background="new 0 0 32 32"
   xml:space="preserve"
   xmlns="http://www.w3.org/2000/svg"
   xmlns:svg="http://www.w3.org/2000/svg"><defs
   id="defs55" />




















<path
   id="path2226-6"
   style="fill:#73635f;fill-opacity:1;stroke:none;stroke-width:0.998628px;stroke-linecap:butt;stroke-linejoin:miter;stroke-opacity:1"
   d="m 100.89665,95.802598 11.31647,-11.321993 -0.004,-1.996452 -3.5345,-1.530797 -3.88909,3.889087 -15.556348,-15.556349 -3.53553,3.535534 15.556338,15.556349 -3.884388,1.883379 -0.0047,2.005708 z" /><path
   id="path2226"
   style="fill:#a59692;fill-opacity:1;stroke:none;stroke-width:0.998628px;stroke-linecap:butt;stroke-linejoin:miter;stroke-opacity:1"
   d="m 100.89665,93.802598 11.31647,-11.321993 -3.53829,-3.527249 -3.88909,3.889087 -15.556354,-15.556349 -3.53553,3.535534 15.556344,15.556349 -3.889084,3.889087 z" /><path
   id="path2226-9-3"
   style="fill:#73635f;fill-opacity:1;stroke:none;stroke-width:0.998628px;stroke-linecap:butt;stroke-linejoin:miter;stroke-opacity:1"
   d="M 27.644083,95.802598 16.32758,84.480606 l 0.002,-2.013175 3.53653,-1.514074 3.88912,3.889087 15.556353,-15.55635 3.53553,3.535534 -15.55634,15.55635 3.882622,1.894713 0.0065,1.994374 z" /><path
   id="path2226-9"
   style="fill:#a59692;fill-opacity:1;stroke:none;stroke-width:0.998628px;stroke-linecap:butt;stroke-linejoin:miter;stroke-opacity:1"
   d="M 27.644083,93.802598 16.32758,82.480605 l 3.53829,-3.527249 3.889123,3.889088 15.55635,-15.55635 3.53553,3.535534 -15.55634,15.556349 3.88908,3.889088 z" /><g
   id="g451"
   transform="translate(0,-6.42711)"><path
     style="fill:#a59692;fill-opacity:1;stroke:none;stroke-width:1px;stroke-linecap:butt;stroke-linejoin:miter;stroke-opacity:1"
     d="m 52.7812,66.111007 -17.432892,36.103173 0.0025,2.00684 57.298349,-0.0155 -0.0089,-1.98408 -18.336071,-36.19775 z"
     id="path2436-3" /><path
     style="fill:#d4cdcb;fill-opacity:1;stroke:none;stroke-width:1px;stroke-linecap:butt;stroke-linejoin:miter;stroke-opacity:1"
     d="M 52.7812,64.111005 35.350825,102.22102 92.649174,102.20556 74.304189,64.023728 Z"
     id="path2436" /><path
     style="fill:#a59692;fill-opacity:1;stroke:none;stroke-width:0.957534px;stroke-linecap:butt;stroke-linejoin:miter;stroke-opacity:1"
     d="m 40.701902,96.174478 46.474558,0.004 0.82354,1.88679 -48,0.005 z"
     id="path2513" /><path
     style="fill:#a59692;fill-opacity:1;stroke:none;stroke-width:0.90629px;stroke-linecap:butt;stroke-linejoin:miter;stroke-opacity:1"
     d="m 43.128784,90.388858 41.633459,0.004 0.737757,1.88679 -43,0.005 z"
     id="path2513-2" /><path
     style="fill:#a59692;fill-opacity:1;stroke:none;stroke-width:0.851971px;stroke-linecap:butt;stroke-linejoin:miter;stroke-opacity:1"
     d="m 45.555669,84.603238 36.792357,0.004 0.651974,1.88679 -38,0.005 z"
     id="path2513-2-9" /><path
     style="fill:#a59692;fill-opacity:1;stroke:none;stroke-width:0.793944px;stroke-linecap:butt;stroke-linejoin:miter;stroke-opacity:1"
     d="m 47.982554,78.817618 31.951257,0.004 0.566189,1.88679 -33,0.005 z"
     id="path2513-2-9-1" /></g><ellipse
   style="fill:#a59692;fill-opacity:1;stroke:none;stroke-width:0.934126;stroke-linecap:round;stroke-linejoin:round;stroke-miterlimit:0.5;stroke-opacity:1;paint-order:stroke fill markers"
   id="path2268"
   cx="64"
   cy="61.845467"
   rx="52"
   ry="19.999935" /><path
   id="path2738"
   style="fill:#f0c30d;fill-opacity:1;stroke:none;stroke-linecap:round;stroke-linejoin:round;stroke-miterlimit:0.5;stroke-opacity:1;paint-order:stroke fill markers"
   d="m 57.479505,81.70273 a 52,19.999935 0 0 0 1.72265,0.0781 52,19.999935 0 0 0 2.39649,0.0625 52,19.999935 0 0 0 2.40234,0.0215 52,19.999935 0 0 0 2.40039,-0.0215 52,19.999935 0 0 0 2.39649,-0.0625 52,19.999935 0 0 0 1.72265,-0.0781 v -5.2207 h -13.04101 z" /><ellipse
   style="fill:#d4cdcb;fill-opacity:1;stroke:none;stroke-width:0.934126;stroke-linecap:round;stroke-linejoin:round;stroke-miterlimit:0.5;stroke-opacity:1;paint-order:stroke fill markers"
   id="path2268-5"
   cx="64"
   cy="57.845467"
   rx="52"
   ry="19.999935" /><g
   id="g2411"
   transform="translate(122.33029,83.201418)"><path
     fill="none"
     stroke="#4d5152"
     stroke-linecap="round"
     stroke-miterlimit="10"
     d="m -87.050755,-27.43849 0.0043,-1.986377 c 0,0 7.07563,-22.631123 28.716193,-22.631123 21.893739,0 28.716433,22.627151 28.716433,22.627151 l 0.004,1.990349 c 0,0 -4.10292,12.30877 -28.72045,12.30877 -24.61754,0 -28.72046,-12.30877 -28.72046,-12.30877 z"
     id="path22-3-0"
     style="fill:#2e889e;fill-opacity:1;stroke:none;stroke-width:4.10293;stroke-opacity:1" /><path
     fill="none"
     stroke="#4d5152"
     stroke-linecap="round"
     stroke-miterlimit="10"
     d="m -87.050755,-29.43849 c 0,0 4.10292,-24.6175 28.72046,-24.6175 24.61753,0 28.72045,24.6175 28.72045,24.6175 0,0 -4.10292,12.30877 -28.72045,12.30877 -24.61754,0 -28.72046,-12.30877 -28.72046,-12.30877 z"
     id="path22-3"
     style="fill:#5fbad1;fill-opacity:1;stroke:none;stroke-width:4.10293;stroke-opacity:1" /></g></svg>
