<?xml version="1.0" encoding="UTF-8" standalone="no"?>
<!-- Generator: Adobe Illustrator 26.0.2, SVG Export Plug-In . SVG Version: 6.00 Build 0)  -->

<svg
   version="1.0"
   id="Layer_1"
   x="0px"
   y="0px"
   viewBox="0 0 128 128"
   xml:space="preserve"
   width="128"
   height="128"
   sodipodi:docname="obsidian.svg"
   inkscape:version="1.3 (0e150ed6c4, 2023-07-21)"
   xmlns:inkscape="http://www.inkscape.org/namespaces/inkscape"
   xmlns:sodipodi="http://sodipodi.sourceforge.net/DTD/sodipodi-0.dtd"
   xmlns:xlink="http://www.w3.org/1999/xlink"
   xmlns="http://www.w3.org/2000/svg"
   xmlns:svg="http://www.w3.org/2000/svg"><sodipodi:namedview
   id="namedview1"
   pagecolor="#505050"
   bordercolor="#ffffff"
   borderopacity="1"
   inkscape:showpageshadow="0"
   inkscape:pageopacity="0"
   inkscape:pagecheckerboard="1"
   inkscape:deskcolor="#505050"
   inkscape:zoom="3.28125"
   inkscape:cx="-17.066667"
   inkscape:cy="65.523809"
   inkscape:current-layer="Layer_1" /><defs
   id="defs76"><linearGradient
     id="linearGradient40"><stop
       style="stop-color:#8858e8;stop-opacity:1;"
       offset="0"
       id="stop25" /><stop
       style="stop-color:#381976;stop-opacity:1;"
       offset="0.03862348"
       id="stop27" /><stop
       style="stop-color:#381976;stop-opacity:1;"
       offset="0.23682973"
       id="stop29" /><stop
       style="stop-color:#8858e8;stop-opacity:1;"
       offset="0.26564345"
       id="stop30" /><stop
       style="stop-color:#381976;stop-opacity:1;"
       offset="0.30839306"
       id="stop34" /><stop
       style="stop-color:#381976;stop-opacity:1;"
       offset="0.71930599"
       id="stop41" /><stop
       style="stop-color:#8858e8;stop-opacity:1;"
       offset="0.77140093"
       id="stop42" /><stop
       style="stop-color:#381976;stop-opacity:1;"
       offset="0.82106608"
       id="stop38" /><stop
       style="stop-color:#381976;stop-opacity:1;"
       offset="0.97172499"
       id="stop43" /><stop
       style="stop-color:#8858e8;stop-opacity:1;"
       offset="1"
       id="stop39" /></linearGradient><linearGradient
     id="linearGradient37"><stop
       style="stop-color:#134686;stop-opacity:1;"
       offset="0"
       id="stop37" /><stop
       style="stop-color:#62a0ea;stop-opacity:1;"
       offset="0.07214975"
       id="stop36" /><stop
       style="stop-color:#134686;stop-opacity:1;"
       offset="0.23768532"
       id="stop35" /></linearGradient><linearGradient
     id="linearGradient33"><stop
       style="stop-color:#134686;stop-opacity:1;"
       offset="0.76231468"
       id="stop31" /><stop
       style="stop-color:#62a0ea;stop-opacity:1;"
       offset="0.92785025"
       id="stop32" /><stop
       style="stop-color:#134686;stop-opacity:1;"
       offset="1"
       id="stop33" /></linearGradient><linearGradient
     id="linearGradient14"><stop
       style="stop-color:#134686;stop-opacity:1;"
       offset="0"
       id="stop7" /><stop
       style="stop-color:#62a0ea;stop-opacity:1;"
       offset="0.05234205"
       id="stop8" /><stop
       style="stop-color:#134686;stop-opacity:1;"
       offset="0.15255697"
       id="stop9" /><stop
       style="stop-color:#134686;stop-opacity:1;"
       offset="0.40026149"
       id="stop10" /><stop
       style="stop-color:#62a0ea;stop-opacity:1;"
       offset="0.47880286"
       id="stop16" /><stop
       style="stop-color:#134686;stop-opacity:1;"
       offset="0.55000001"
       id="stop18" /><stop
       style="stop-color:#134686;stop-opacity:1;"
       offset="0.92873526"
       id="stop20" /><stop
       style="stop-color:#62a0ea;stop-opacity:1;"
       offset="0.96674788"
       id="stop12" /><stop
       style="stop-color:#134686;stop-opacity:1;"
       offset="1"
       id="stop14" /></linearGradient><linearGradient
     id="Gradient_1-3"
     gradientUnits="userSpaceOnUse"
     x1="199.99699"
     y1="214.302"
     x2="296.66501"
     y2="307.573"
     gradientTransform="matrix(1.08,0,0,1.0799999,-205.9968,-222.67765)"><stop
       offset="0"
       stop-color="#62A0EA"
       id="stop1" /><stop
       offset="1"
       stop-color="#1A5FB4"
       id="stop2" /></linearGradient><linearGradient
     xlink:href="#linearGradient14"
     id="linearGradient6"
     gradientUnits="userSpaceOnUse"
     x1="-0.003"
     y1="50.022793"
     x2="99.997009"
     y2="50.022793"
     gradientTransform="matrix(1.0799919,0,0,1.0799999,10.003196,11.362327)" /><linearGradient
     xlink:href="#linearGradient33"
     id="linearGradient23"
     x1="203.67719"
     y1="17.329969"
     x2="229.80132"
     y2="17.329969"
     gradientUnits="userSpaceOnUse"
     gradientTransform="matrix(0.99999256,0,0,1,-124.99856,10.769114)" /><linearGradient
     xlink:href="#linearGradient37"
     id="linearGradient35"
     x1="183.79958"
     y1="-35.343151"
     x2="209.25226"
     y2="-35.343151"
     gradientUnits="userSpaceOnUse"
     gradientTransform="matrix(0.99999256,0,0,1,-158.9983,76.769118)" /><radialGradient
     id="logo-bottom-left"
     cx="0"
     cy="0"
     gradientTransform="matrix(-6.1171875,-39.867187,26.578125,-4.0078125,25.33119,113.47666)"
     gradientUnits="userSpaceOnUse"
     r="1"><stop
       offset="0"
       stop-color="#fff"
       stop-opacity=".4"
       id="stop1-3" /><stop
       offset="1"
       stop-opacity=".1"
       id="stop2-6" /></radialGradient><radialGradient
     id="logo-top-right"
     cx="0"
     cy="0"
     gradientTransform="matrix(10.546875,-79.945312,59.0625,7.8046875,119.95529,61.830083)"
     gradientUnits="userSpaceOnUse"
     r="1"><stop
       offset="0"
       stop-color="#fff"
       stop-opacity=".6"
       id="stop3" /><stop
       offset="1"
       stop-color="#fff"
       stop-opacity=".1"
       id="stop4-7" /></radialGradient><radialGradient
     id="logo-top-left"
     cx="0"
     cy="0"
     gradientTransform="matrix(-11.8125,-60.75,31.429687,-6.1171875,72.392604,53.491475)"
     gradientUnits="userSpaceOnUse"
     r="1"><stop
       offset="0"
       stop-color="#fff"
       stop-opacity=".8"
       id="stop5" /><stop
       offset="1"
       stop-color="#fff"
       stop-opacity=".4"
       id="stop6-5" /></radialGradient><radialGradient
     id="logo-bottom-right"
     cx="0"
     cy="0"
     gradientTransform="matrix(-16.242187,-33.117187,37.96875,-18.773437,67.464093,129.08604)"
     gradientUnits="userSpaceOnUse"
     r="1"><stop
       offset="0"
       stop-color="#fff"
       stop-opacity=".3"
       id="stop7-3" /><stop
       offset="1"
       stop-opacity=".3"
       id="stop8-5" /></radialGradient><radialGradient
     id="logo-top-edge"
     cx="0"
     cy="0"
     gradientTransform="matrix(-36,166,-112,-24,310,128.2)"
     gradientUnits="userSpaceOnUse"
     r="1"><stop
       offset="0"
       stop-color="#fff"
       stop-opacity="0"
       id="stop9-6" /><stop
       offset="1"
       stop-color="#fff"
       stop-opacity=".2"
       id="stop10-2" /></radialGradient><radialGradient
     id="logo-left-edge"
     cx="0"
     cy="0"
     gradientTransform="matrix(88,89,-190,187,111,220.2)"
     gradientUnits="userSpaceOnUse"
     r="1"><stop
       offset="0"
       stop-color="#fff"
       stop-opacity=".2"
       id="stop11-9" /><stop
       offset="1"
       stop-color="#fff"
       stop-opacity=".4"
       id="stop12-1" /></radialGradient><radialGradient
     id="logo-bottom-edge"
     cx="0"
     cy="0"
     gradientTransform="matrix(9,130,-276,20,215,284)"
     gradientUnits="userSpaceOnUse"
     r="1"><stop
       offset="0"
       stop-color="#fff"
       stop-opacity=".2"
       id="stop13-2" /><stop
       offset="1"
       stop-color="#fff"
       stop-opacity=".3"
       id="stop14-7" /></radialGradient><radialGradient
     id="logo-middle-edge"
     cx="0"
     cy="0"
     gradientTransform="matrix(-198,-104,327,-623,400,399.2)"
     gradientUnits="userSpaceOnUse"
     r="1"><stop
       offset="0"
       stop-color="#fff"
       stop-opacity=".2"
       id="stop15-0" /><stop
       offset=".5"
       stop-color="#fff"
       stop-opacity=".2"
       id="stop16-9" /><stop
       offset="1"
       stop-color="#fff"
       stop-opacity=".3"
       id="stop17-3" /></radialGradient><clipPath
     clipPathUnits="userSpaceOnUse"
     id="clipPath1"><g
       id="g2"
       transform="matrix(4.7407407,0,0,4.7407407,645.43398,-28.244444)"><path
         d="M -136.10404,6 H -28.104042 V 114 H -136.10404 Z"
         id="path2"
         style="stroke-width:0.210938" /></g></clipPath><linearGradient
     inkscape:collect="always"
     xlink:href="#linearGradient40"
     id="linearGradient24"
     x1="-96.528572"
     y1="189.01859"
     x2="-12.851401"
     y2="189.01859"
     gradientUnits="userSpaceOnUse"
     gradientTransform="translate(118.67627,-125.01289)" /></defs>&#10;<style
   type="text/css"
   id="style2">&#10;	.st0{fill:url(#SVGID_1_);}&#10;	.st1{fill:url(#SVGID_00000062171159965967627490000013605884846004172698_);}&#10;	.st2{fill:url(#SVGID-2_00000085966066984138215510000013018799571900533434_);}&#10;	.st3{clip-path:url(#SVGID_00000023257072852279316340000004281102206337855156_);}&#10;	.st4{fill:url(#SVGID_00000177446033621631838710000001370584907163434138_);}&#10;	.st5{clip-path:url(#SVGID_00000136385553608229244970000014654043435100792964_);}&#10;	.st6{fill:url(#SVGID_00000126306410582640054500000000964390405037519506_);}&#10;	.st7{fill:url(#SVGID_00000109020757643166282930000006684795936706346369_);}&#10;</style>&#10;<radialGradient
   id="SVGID_1_"
   cx="514.5"
   cy="477.5"
   r="496.5"
   gradientTransform="matrix(1,0,0,-1,-18,974)"
   gradientUnits="userSpaceOnUse">&#10;	<stop
   offset="0.9134"
   style="stop-color:#000000"
   id="stop4" />&#10;	<stop
   offset="1"
   style="stop-color:#000000;stop-opacity:0"
   id="stop6" />&#10;</radialGradient>&#10;&#10;<radialGradient
   id="SVGID_00000163033830155146975860000008434547654242457221_"
   cx="512.05908"
   cy="481.87881"
   r="486.27271"
   gradientTransform="matrix(0.11104257,0,0,-0.11104257,7.1350999,117.51141)"
   gradientUnits="userSpaceOnUse">&#10;	<stop
   offset="0.99"
   style="stop-color:#FFFFFF"
   id="stop11" />&#10;	<stop
   offset="0.9951"
   style="stop-color:#FDFDFD"
   id="stop13" />&#10;	<stop
   offset="0.9969"
   style="stop-color:#F6F6F6"
   id="stop15" />&#10;	<stop
   offset="0.9982"
   style="stop-color:#EBEBEB"
   id="stop17" />&#10;	<stop
   offset="0.9992"
   style="stop-color:#DADADA"
   id="stop19" />&#10;	<stop
   offset="1"
   style="stop-color:#C7C7C7"
   id="stop21" />&#10;</radialGradient>&#10;&#10;<radialGradient
   id="SVGID-2_00000052072577768947982130000002178866272689676469_"
   cx="512.06152"
   cy="481.87881"
   r="444.12241"
   gradientTransform="matrix(1,0,0,-1,-18,974)"
   gradientUnits="userSpaceOnUse">&#10;	<stop
   offset="0.99"
   style="stop-color:#000000;stop-opacity:0.5"
   id="stop26" />&#10;	<stop
   offset="1"
   style="stop-color:#000000;stop-opacity:0"
   id="stop28" />&#10;</radialGradient>&#10;&#10;&#10;&#10;<radialGradient
   id="SVGID_00000092427181212153090570000016417065628950216588_"
   cx="578.89008"
   cy="482.3703"
   r="353.94269"
   gradientTransform="matrix(0.11104257,0,0,-0.1218248,7.1350999,118.45626)"
   gradientUnits="userSpaceOnUse">&#10;	<stop
   offset="0"
   style="stop-color:#C2C0C2"
   id="stop66" />&#10;	<stop
   offset="1"
   style="stop-color:#EBEBEB"
   id="stop68" />&#10;</radialGradient>&#10;&#10;		&#10;	&#10;		&#10;	&#10;<path
   d="m 90.636207,110.29299 c -0.653906,4.93594 -5.484375,8.775 -10.272656,7.44609 -6.834375,-1.87734 -14.744531,-4.80937 -21.853125,-5.35781 L 47.604957,111.53752 C 45.84621,111.41509 44.19418,110.64915 42.96433,109.38596 L 24.19089,90.042992 c -1.29477,-1.324589 -1.99738,-3.062218 -2.0412,-4.837965 -0.0128,-0.520406 -9.1e-4,-4.050843 -9.1e-4,-4.050843 0.10393,-0.527321 0.40215,1.440998 0.62883,0.936458 0,0 11.60157,-25.52343 12.04453,-26.85234 0.42188,-1.32891 2.025,-12.90937 2.95313,-19.11094 0.25312,-1.6664 1.05469,-3.16406 2.32031,-4.28203 l 22.211721,-19.99687 c 3.093927,-2.7791101 7.892999,-2.3630622 10.4625,0.90703 l 18.646875,23.70937 c 1.036992,1.357156 1.600158,3.017014 1.603125,4.725 0,4.49297 0.379688,13.71094 2.86875,19.65938 2.425781,5.75859 6.855469,12.02344 9.175779,15.08203 0.23408,0.303243 0.66822,-2.059694 0.79463,-1.711795 0,0 -0.0388,3.492208 -0.0343,3.902278 0.007,0.638842 -0.15353,1.281561 -0.48612,1.859517 -3.01045,5.051256 -6.16168,10.017264 -9.450002,14.89219 -3.164062,4.7039 -4.619531,10.525778 -5.273437,15.419528 z"
   fill="#6c31e3"
   id="path18-1"
   style="fill:url(#linearGradient24);stroke-width:0.210938"
   clip-path="none"
   sodipodi:nodetypes="ccccccssccccccccccsscccc" /><path
   d="m 90.636206,106.29299 c -0.653906,4.93594 -5.484375,8.775 -10.272656,7.44609 -6.834375,-1.87734 -14.744531,-4.80937 -21.853125,-5.35781 L 47.604956,107.53752 A 7.171875,7.171875 0 0 1 42.96433,105.38596 L 24.19089,86.042992 a 7.171875,7.171875 0 0 1 -1.41328,-7.952344 c 0,0 11.60157,-25.523438 12.04453,-26.852344 0.42188,-1.328906 2.025,-12.909375 2.95313,-19.110937 0.25312,-1.666407 1.05469,-3.164063 2.32031,-4.282032 L 62.3073,7.84846 a 7.1929688,7.1929688 0 0 1 10.4625,0.907032 l 18.646875,23.709375 a 7.8046875,7.8046875 0 0 1 1.603125,4.725 c 0,4.492968 0.379688,13.710937 2.86875,19.659374 2.425781,5.758594 6.85547,12.023438 9.17578,15.082032 a 3.6492188,3.6492188 0 0 1 0.27422,4.05 315.14062,315.14062 0 0 1 -9.45,14.892187 c -3.164062,4.703904 -4.619531,10.52578 -5.273437,15.41953 z"
   fill="#6c31e3"
   id="path18"
   style="stroke-width:0.210938"
   clip-path="none" /><path
   d="M 44.98933,106.86252 C 53.722144,89.143773 53.469019,76.445335 49.756519,67.41721 46.339331,59.064085 39.99011,53.811742 34.99089,50.54221 c -0.12656,0.485157 -0.27422,0.928125 -0.46406,1.371094 L 22.77761,78.111742 a 7.171875,7.171875 0 0 0 1.39219,7.952343 l 18.79453,19.342965 a 7.171875,7.171875 0 0 0 2.025,1.47656 z"
   fill="url(#logo-bottom-left)"
   id="path19"
   style="fill:url(#logo-bottom-left);stroke-width:0.210938"
   clip-path="none" /><path
   d="m 68.7198,70.897679 c 2.3625,0.253125 4.682812,0.759375 6.91875,1.603125 7.171875,2.678906 13.710937,8.690625 19.089844,20.313281 0.379687,-0.653906 0.759375,-1.307812 1.18125,-1.940625 a 324,324 0 0 0 9.449996,-14.892187 3.5859375,3.5859375 0 0 0 -0.27421,-4.05 c -2.32032,-3.079688 -6.750005,-9.323438 -9.175786,-15.082031 -2.489063,-5.948438 -2.847656,-15.1875 -2.86875,-19.659375 0,-1.708594 -0.548438,-3.375 -1.603125,-4.725 L 72.7698,8.7554915 a 7.171875,7.171875 0 0 0 -0.316406,-0.3585938 20.25,20.25 0 0 1 0.421875,11.3906253 41.828906,41.828906 0 0 1 -3.7125,8.711718 l -1.51875,2.995313 a 36.070312,36.070312 0 0 0 -4.092188,14.976563 c -0.253125,6.201562 1.0125,14.006249 5.167969,24.426562 z"
   fill="url(#logo-top-right)"
   id="path20"
   style="fill:url(#logo-top-right);stroke-width:0.210938"
   clip-path="none" /><path
   d="M 68.7198,70.897679 C 64.564331,60.477366 63.277613,52.672679 63.551831,46.450023 A 36.070312,36.070312 0 0 1 67.644019,31.47346 c 0.485156,-1.0125 1.0125,-2.003906 1.51875,-2.974218 1.497656,-2.932032 2.953125,-5.695313 3.7125,-8.732813 A 20.25,20.25 0 0 0 72.453394,8.375804 7.1929688,7.1929688 0 0 0 62.3073,7.869554 L 40.07449,27.866429 a 7.1929688,7.1929688 0 0 0 -2.29922,4.282031 l -2.7,17.929688 -0.10547,0.485156 c 5.02031,3.269531 11.390625,8.521875 14.786719,16.875 a 31.007812,31.007812 0 0 1 1.645312,5.23125 C 57.308081,71.235179 63.15105,70.349241 68.7198,70.918773 Z"
   fill="url(#logo-top-left)"
   id="path21"
   style="fill:url(#logo-top-left);stroke-width:0.210938"
   clip-path="none" /><path
   d="m 80.36355,113.76018 c 4.788281,1.30781 9.61875,-2.53125 10.272656,-7.46719 a 39.445312,39.445312 0 0 1 4.092188,-13.478905 c -5.4,-11.601562 -11.917969,-17.634375 -19.06875,-20.313281 -7.59375,-2.826562 -15.8625,-1.898437 -24.257813,0.147656 1.877344,8.521875 0.759375,19.680469 -6.412501,34.21406 0.84375,0.37969 1.708595,0.63281 2.63672,0.69609 0,0 5.146875,0.42188 11.30625,0.86485 6.117187,0.42187 15.271875,3.60703 21.43125,5.31562 z"
   fill="url(#logo-bottom-right)"
   id="path22"
   style="fill:url(#logo-bottom-right);stroke-width:0.210938"
   clip-path="none" /></svg>
