<?xml version="1.0" encoding="UTF-8" standalone="no"?>
<svg
   height="128"
   width="128"
   version="1.1"
   id="svg22"
   sodipodi:docname="AdobeReader.svg"
   inkscape:version="1.3 (0e150ed6c4, 2023-07-21)"
   xmlns:inkscape="http://www.inkscape.org/namespaces/inkscape"
   xmlns:sodipodi="http://sodipodi.sourceforge.net/DTD/sodipodi-0.dtd"
   xmlns="http://www.w3.org/2000/svg"
   xmlns:svg="http://www.w3.org/2000/svg">
  <defs
     id="defs22" />
  <sodipodi:namedview
     id="namedview22"
     pagecolor="#ffffff"
     bordercolor="#000000"
     borderopacity="0.25"
     inkscape:showpageshadow="2"
     inkscape:pageopacity="0.0"
     inkscape:pagecheckerboard="0"
     inkscape:deskcolor="#d1d1d1"
     inkscape:zoom="2.7061212"
     inkscape:cx="34.366531"
     inkscape:cy="33.4427"
     inkscape:window-width="1908"
     inkscape:window-height="2307"
     inkscape:window-x="35"
     inkscape:window-y="32"
     inkscape:window-maximized="0"
     inkscape:current-layer="svg22" />
  <linearGradient
     id="e"
     gradientUnits="userSpaceOnUse"
     x1="-108"
     x2="-20"
     y1="-274"
     y2="-274">
    <stop
       offset="0"
       stop-color="#c0bfbc"
       id="stop1" />
    <stop
       offset=".045"
       stop-color="#f6f5f4"
       id="stop2" />
    <stop
       offset=".091"
       stop-color="#deddda"
       id="stop3" />
    <stop
       offset=".909"
       stop-color="#deddda"
       id="stop4" />
    <stop
       offset=".955"
       stop-color="#f6f5f4"
       id="stop5" />
    <stop
       offset="1"
       stop-color="#c0bfbc"
       id="stop6" />
  </linearGradient>
  <g
     transform="translate(0 -172)"
     id="g22">
    <rect
       fill="#deddda"
       height="59"
       rx="8"
       width="88"
       x="20"
       y="233"
       id="rect6" />
    <rect
       fill="url(#e)"
       height="40"
       rx="8"
       transform="scale(-1)"
       width="88"
       x="-108"
       y="-292"
       id="rect7" />
    <rect
       fill="#f6f5f4"
       height="104"
       rx="8"
       width="88"
       x="20"
       y="180"
       id="rect8" />
    <path
       d="m28 248v10h64v-4h8v-6z"
       fill="#deddda"
       id="path8" />
    <path
       d="m48 254a6.176 6.176 0 0 0 -2.982.766 5.883 5.883 0 0 0 -2.262 2.22c-.592-.566-1.463-.986-2.756-.986h-20v4h21.215c.453 0 .715.301.775.742.001.035.01.068.01.104v1.154h-22v4h13.951l-4 4h-9.951v2h8.275c-.515 1.129-.448 2.63 1.108 4.225l4.224-4.225h5.547a4.858 4.858 0 0 0 4.846-4.846v-1.125h8v1.125a4.858 4.858 0 0 0 4.846 4.846h5.576l4.195 4.195c1.542-1.58 1.62-3.07 1.12-4.195h7.417a4.858 4.858 0 0 0 4.846-4.846v-1.125h2v-8.029c0-1.063-.828-2-2-2h-24s-1.578.002-2.752.994a5.882 5.882 0 0 0 -2.266-2.228 6.176 6.176 0 0 0 -2.982-.766zm0 2.004c.698 0 1.396.17 2.018.514 1.242.685 1.982 1.926 1.982 3.26 0 .04.002.079.006.118-.001.037-.006.067-.006.104v2h-8v-2l-.008-.086c.006-.045.008-.091.008-.137 0-1.333.74-2.574 1.982-3.26a4.182 4.182 0 0 1 2.018-.513zm6.785 4.012h23.082c.079.263.133.538.133.83v1.183h-19.893l-.029-.029h-4.078v-1.154c0-.034.009-.066.01-.1.025-.436.326-.73.775-.73zm-15.207 6.013h2.422v1.125a2.818 2.818 0 0 1 -2.846 2.846h-3.547zm14.422 0h2.451l3.97 3.971h-3.575a2.818 2.818 0 0 1 -2.846-2.846zm8.107 0h15.893v1.125a2.818 2.818 0 0 1 -2.846 2.846h-9.076z"
       opacity=".1"
       id="path9" />
    <path
       d="m29.383 274.225c-2.112-2.164-1.492-4.164-.375-5.282l8.913-8.914h44.079v4h-42.421z"
       fill="#949390"
       id="path10" />
    <path
       d="m66.617 274.195c2.112-2.164 1.492-4.164.375-5.281l-8.912-8.914h-44.08v4h42.421z"
       fill="#949390"
       id="path11" />
    <path
       d="m43 257.777a4.775 5 90 0 1 2.5-4.136 4.775 5 90 0 1 5 0 4.775 5 90 0 1 2.5 4.136"
       fill="none"
       stroke="#218ed4"
       stroke-linecap="round"
       stroke-width="2"
       id="path12"
       style="stroke:#218ed4;stroke-opacity:1" />
    <path
       d="m40.73 269h-21.46a2.264 2.264 0 0 1 -2.27-2.27v-7.46a2.264 2.264 0 0 1 2.27-2.27h21.46a2.264 2.264 0 0 1 2.27 2.27v7.46a2.264 2.264 0 0 1 -2.27 2.27z"
       fill="#fff"
       fill-opacity=".441"
       id="path13" />
    <path
       d="m20.845 269h18.31a3.836 3.836 0 0 0 3.845-3.845v-6.31a3.836 3.836 0 0 0 -3.845-3.845h-18.31a3.836 3.836 0 0 0 -3.845 3.845v6.31a3.836 3.836 0 0 0 3.845 3.845z"
       fill="none"
       stroke="#218ed4"
       stroke-linecap="round"
       stroke-width="2"
       id="path14"
       style="stroke:#218ed4;stroke-opacity:1" />
    <path
       d="m76.73 269h-21.46a2.264 2.264 0 0 1 -2.27-2.27v-7.46a2.264 2.264 0 0 1 2.27-2.27h21.46a2.264 2.264 0 0 1 2.27 2.27v7.46a2.264 2.264 0 0 1 -2.27 2.27z"
       fill="#fff"
       fill-opacity=".441"
       id="path15" />
    <path
       d="m56.845 269h18.31a3.836 3.836 0 0 0 3.845-3.845v-6.31a3.836 3.836 0 0 0 -3.845-3.845h-18.31a3.836 3.836 0 0 0 -3.845 3.845v6.31a3.836 3.836 0 0 0 3.845 3.845z"
       fill="none"
       stroke="#218ed4"
       stroke-linecap="round"
       stroke-width="2"
       id="path16"
       style="stroke:#218ed4;stroke-opacity:1" />
    <path
       d="m82 256c0-1.063-.828-2-2-2h-24s-4 0-4 4v4h2v-3.2c0-.468.316-.784.785-.784h23.43c.469 0 .925.337.785.785v3.199h1c2 0 2 2 2 2zm-38 6v-4s0-4-4-4h-24c-.88 0-2 .905-2 2v8s0-2 2-2h1v-3.215c0-.469.316-.785.785-.785h23.43c.469 0 .737.319.785.785l.125 3.215z"
       fill="#218ed4"
       id="path17"
       style="fill:#218ed4;fill-opacity:1" />
    <path
       id="path19"
       d="M 28 192 L 28 196 L 53.267578 196 C 53.949137 194.63807 54.657794 193.30365 55.396484 192 L 28 192 z M 64.800781 192 C 63.948481 193.28015 63.123512 194.61194 62.332031 196 L 65.533203 196 C 66.261896 194.62495 67.011149 193.29165 67.78125 192 L 64.800781 192 z "
       style="fill:#77767b;fill-opacity:1" />
    <path
       id="path20"
       d="M 28 200 L 28 218 L 47.013672 218 C 47.115347 212.39221 48.636729 206.36686 51.394531 200 L 28 200 z M 60.208984 200 C 60.143185 200.13316 60.073066 200.26062 60.007812 200.39453 C 56.703112 207.17627 55.11773 212.9994 55.005859 218 L 57.703125 218 C 58.428369 212.51943 60.42769 206.53864 63.527344 200 L 60.208984 200 z M 72.464844 200 C 72.040874 200.81199 71.619407 201.6303 71.207031 202.47656 C 68.308186 208.42541 66.576846 213.61038 65.837891 218 L 100 218 L 100 200 L 72.464844 200 z M 28 222 L 28 244 L 48 244 L 48 240 L 57.357422 240 C 53.435034 237.10554 50.498574 233.33902 48.779297 228.75195 C 47.967958 226.58731 47.451142 224.33247 47.195312 222 L 28 222 z M 55.251953 222 C 55.463423 223.38616 55.803306 224.70143 56.269531 225.94531 C 56.92768 227.70127 57.834572 229.23501 58.927734 230.625 C 58.529002 229.55772 58.023478 228.55312 57.808594 227.38281 L 57.806641 227.36914 L 57.802734 227.35352 C 57.499489 225.62799 57.375412 223.8421 57.404297 222 L 55.251953 222 z M 65.429688 222 C 65.389291 223.426 65.469945 224.74784 65.679688 225.94922 C 66.687118 231.42137 69.12603 233.81542 75.199219 234.97461 C 81.715481 236.21838 87.712903 234.77973 94.105469 230.15625 C 96.082947 228.72599 98.085714 227.0476 100 225.15039 L 100 222 L 65.429688 222 z "
       style="fill:#deddda;fill-opacity:1" />
    <path
       d="m108 280.654a7.468 7.468 0 0 1 -7.492 7.346h-.5v1h.5a8.488 8.488 0 0 0 7.463-4.428c.013-.19.029-.379.029-.572zm-42 7.346 34 1v-1z"
       fill="#c0bfbc"
       fill-opacity=".272"
       id="path21" />
  </g>
  <path
     style="fill:#218ed4;stroke-width:1.5"
     d="m 82.123587,8.0145014 c -5.588539,0.04395 -6.453004,-0.04851 -12.625537,0 C 64.347736,12.866797 59.9833,19.313843 56.412504,26.641659 50.89885,37.9565 49.587888,47.513563 52.5247,55.348931 c 2.936777,7.835381 9.675919,12.747838 20.188867,14.754456 11.050262,2.109171 21.294243,0.501225 30.738573,-4.867028 1.44468,-0.821186 3.17679,-1.733152 4.53274,-2.70016 -0.0313,-3.919297 0.0462,-6.724011 0,-12.532702 -3.41426,4.692364 -7.53007,8.496304 -11.535652,11.39343 -7.086599,5.125442 -14.409412,6.954877 -22.000154,5.506019 C 67.227709,65.524598 62.988509,61.446359 61.742662,54.661214 60.545791,47.850793 62.500043,39.214523 67.612154,28.723731 71.804075,20.12124 76.634394,13.035311 82.123591,8.0144994 Z"
     id="path5" />
</svg>
