<?xml version="1.0" encoding="UTF-8" standalone="no"?>
<svg
   width="128"
   height="128"
   version="1.1"
   id="svg24"
   xml:space="preserve"
   xmlns:xlink="http://www.w3.org/1999/xlink"
   xmlns="http://www.w3.org/2000/svg"
   xmlns:svg="http://www.w3.org/2000/svg"><defs
     id="defs28"><linearGradient
       id="linearGradient1113"><stop
         style="stop-color:#666666;stop-opacity:1;"
         offset="0"
         id="stop1101" /><stop
         style="stop-color:#e5e5e5;stop-opacity:1;"
         offset="0.03659764"
         id="stop1103" /><stop
         style="stop-color:#666666;stop-opacity:1;"
         offset="0.07200123"
         id="stop1105" /><stop
         style="stop-color:#666666;stop-opacity:1;"
         offset="0.92623329"
         id="stop1107" /><stop
         style="stop-color:#e5e5e5;stop-opacity:1;"
         offset="0.96471584"
         id="stop1109" /><stop
         style="stop-color:#666666;stop-opacity:1;"
         offset="1"
         id="stop1111" /></linearGradient><linearGradient
       xlink:href="#linearGradient1113"
       id="linearGradient1099"
       x1="-544.49872"
       y1="-11.086615"
       x2="-436.49869"
       y2="-11.086615"
       gradientUnits="userSpaceOnUse"
       gradientTransform="translate(554.49869,77.086619)" /></defs><circle
     style="fill:url(#linearGradient1099);fill-opacity:1;stroke-width:0;stroke-linecap:square;stroke-linejoin:round;stroke-miterlimit:1.5;stroke-opacity:0.3;paint-order:stroke fill markers"
     id="path459-6"
     cx="64"
     cy="66.000008"
     r="54" /><circle
     style="fill:#ffffff;stroke-width:0;stroke-linecap:square;stroke-linejoin:round;stroke-miterlimit:1.5;stroke-opacity:0.3;paint-order:stroke fill markers"
     id="path459"
     cx="64"
     cy="62.000004"
     r="54" /><circle
     style="fill:#000000;stroke-width:0;stroke-linecap:square;stroke-linejoin:round;stroke-miterlimit:1.5;stroke-opacity:0.3;paint-order:stroke fill markers"
     id="path459-3"
     cx="64"
     cy="62.000004"
     r="50" /><path
     id="rect1275-5"
     style="fill:#cccccc;fill-opacity:1;stroke-width:0;stroke-linecap:square;stroke-linejoin:round;stroke-miterlimit:1.5;stroke-opacity:0.3;paint-order:stroke fill markers"
     d="m 28.03419,19.886598 c -2.560908,-1.47855 -5.81288,-0.60718 -7.29142,1.95371 l -16.0356633,27.7746 c -1.478541,2.56089 -0.60718,5.812881 1.95373,7.291421 l 40.4625953,23.36109 c 2.560909,1.47853 6.313867,2.33893 9.169897,1.5725 0,0 19.371053,-4.13761 21.853702,-6.18002 0.782025,-0.64341 1.586202,-1.97971 1.824789,-3.10157 0.904516,-4.25318 -5.217025,-21.193381 -5.217025,-21.193381 -0.66078,-2.88231 -3.697099,-6.63873 -6.258008,-8.11726 L 28.035693,19.887468 Z m 38.546232,40.347721 a 5.7038608,5.7038608 0 0 1 2.087927,7.79224 5.7038608,5.7038608 0 0 1 -7.792239,2.08792 5.7038608,5.7038608 0 0 1 -2.087917,-7.79224 5.7038608,5.7038608 0 0 1 7.792229,-2.08792 z" /><path
     id="rect1275"
     style="fill:#ffffff;stroke-width:0;stroke-linecap:square;stroke-linejoin:round;stroke-miterlimit:1.5;stroke-opacity:0.3;paint-order:stroke fill markers"
     d="m 28.03419,17.886598 c -2.560908,-1.47855 -5.81288,-0.60718 -7.29142,1.95371 l -16.0356632,27.7746 c -1.478541,2.56089 -0.60718,5.812881 1.95373,7.291421 l 40.4625952,23.36109 c 2.560909,1.47853 6.313867,2.33893 9.169897,1.5725 0,0 19.371053,-4.13761 21.853702,-6.18002 0.782025,-0.64341 1.586202,-1.97971 1.824789,-3.10157 0.904516,-4.25318 -5.217025,-21.193381 -5.217025,-21.193381 -0.66078,-2.88231 -3.697099,-6.63873 -6.258008,-8.11726 L 28.035693,17.887468 Z m 38.546232,40.347721 a 5.7038608,5.7038608 0 0 1 2.087927,7.79224 5.7038608,5.7038608 0 0 1 -7.792239,2.08792 5.7038608,5.7038608 0 0 1 -2.087917,-7.79224 5.7038608,5.7038608 0 0 1 7.792229,-2.08792 z" /></svg>
