<?xml version="1.0" encoding="UTF-8" standalone="no"?>
<!-- Created with Inkscape (http://www.inkscape.org/) -->

<svg
   version="1.1"
   width="128"
   height="138"
   viewBox="0 0 128 138"
   id="svg2"
   xml:space="preserve"
   xmlns:xlink="http://www.w3.org/1999/xlink"
   xmlns="http://www.w3.org/2000/svg"
   xmlns:svg="http://www.w3.org/2000/svg"
   xmlns:rdf="http://www.w3.org/1999/02/22-rdf-syntax-ns#"
   xmlns:cc="http://creativecommons.org/ns#"
   xmlns:dc="http://purl.org/dc/elements/1.1/"><metadata
   id="metadata28"><rdf:RDF><cc:Work
       rdf:about=""><dc:format>image/svg+xml</dc:format><dc:type
         rdf:resource="http://purl.org/dc/dcmitype/StillImage" /></cc:Work></rdf:RDF></metadata><defs
   id="defs26"><linearGradient
   id="linearGradient2776"><stop
     id="stop2772"
     style="stop-color:#cca900;stop-opacity:1;"
     offset="0" /><stop
     id="stop2774"
     style="stop-color:#6b4c00;stop-opacity:1;"
     offset="1" /></linearGradient><linearGradient
   id="linearGradient2725"><stop
     id="stop2721"
     style="stop-color:#990000;stop-opacity:1;"
     offset="0" /><stop
     id="stop2723"
     style="stop-color:#330000;stop-opacity:1;"
     offset="1" /></linearGradient><linearGradient
   id="linearGradient3799"><stop
     id="stop3801"
     style="stop-color:#ff0000;stop-opacity:1"
     offset="0" /><stop
     id="stop3803"
     style="stop-color:#440000;stop-opacity:1"
     offset="1" /></linearGradient><linearGradient
   id="linearGradient3777"><stop
     id="stop3779"
     style="stop-color:#ffd300;stop-opacity:1"
     offset="0" /><stop
     id="stop3781"
     style="stop-color:#a07100;stop-opacity:1"
     offset="1" /></linearGradient><linearGradient
   id="linearGradient3767"><stop
     id="stop3769"
     style="stop-color:#000000;stop-opacity:1"
     offset="0" /></linearGradient><linearGradient
   id="linearGradient3761"><stop
     id="stop3763"
     style="stop-color:#ffd300;stop-opacity:1"
     offset="0" /></linearGradient><linearGradient
   x1="16"
   y1="126"
   x2="225"
   y2="126"
   id="linearGradient3797"
   xlink:href="#linearGradient3777"
   gradientUnits="userSpaceOnUse" /><linearGradient
   x1="-21"
   y1="128.5"
   x2="279"
   y2="128.5"
   id="linearGradient3805"
   xlink:href="#linearGradient3799"
   gradientUnits="userSpaceOnUse" /><linearGradient
   x1="16"
   y1="126"
   x2="225"
   y2="126"
   id="linearGradient3833"
   xlink:href="#linearGradient3777"
   gradientUnits="userSpaceOnUse" /><linearGradient
   x1="16"
   y1="126"
   x2="225"
   y2="126"
   id="linearGradient3835"
   xlink:href="#linearGradient3777"
   gradientUnits="userSpaceOnUse" /><linearGradient
   x1="16"
   y1="126"
   x2="225"
   y2="126"
   id="linearGradient3837"
   xlink:href="#linearGradient3777"
   gradientUnits="userSpaceOnUse" /><linearGradient
   x1="16"
   y1="126"
   x2="225"
   y2="126"
   id="linearGradient3839"
   xlink:href="#linearGradient3777"
   gradientUnits="userSpaceOnUse" /><linearGradient
   x1="16"
   y1="126"
   x2="225"
   y2="126"
   id="linearGradient3841"
   xlink:href="#linearGradient3777"
   gradientUnits="userSpaceOnUse" /><linearGradient
   x1="16"
   y1="126"
   x2="225"
   y2="126"
   id="linearGradient3843"
   xlink:href="#linearGradient3777"
   gradientUnits="userSpaceOnUse" /><linearGradient
   x1="16"
   y1="126"
   x2="225"
   y2="126"
   id="linearGradient3845"
   xlink:href="#linearGradient3777"
   gradientUnits="userSpaceOnUse" />
	
<linearGradient
   x1="16"
   y1="126"
   x2="225"
   y2="126"
   id="linearGradient3852"
   xlink:href="#linearGradient3777"
   gradientUnits="userSpaceOnUse" /><linearGradient
   x1="16"
   y1="126"
   x2="225"
   y2="126"
   id="linearGradient3854"
   xlink:href="#linearGradient3777"
   gradientUnits="userSpaceOnUse" /><linearGradient
   x1="16"
   y1="126"
   x2="225"
   y2="126"
   id="linearGradient3856"
   xlink:href="#linearGradient3777"
   gradientUnits="userSpaceOnUse" />
		
		
	<linearGradient
   x1="16"
   y1="126"
   x2="225"
   y2="126"
   id="linearGradient3862"
   xlink:href="#linearGradient3777"
   gradientUnits="userSpaceOnUse" /><linearGradient
   x1="16"
   y1="126"
   x2="225"
   y2="126"
   id="linearGradient3864"
   xlink:href="#linearGradient3777"
   gradientUnits="userSpaceOnUse" /><linearGradient
   x1="-21"
   y1="128.5"
   x2="279"
   y2="128.5"
   id="linearGradient3866"
   xlink:href="#linearGradient3799"
   gradientUnits="userSpaceOnUse" /><linearGradient
   x1="-21"
   y1="128.5"
   x2="279"
   y2="128.5"
   id="linearGradient3868"
   xlink:href="#linearGradient3799"
   gradientUnits="userSpaceOnUse" /><linearGradient
   x1="-21"
   y1="128.5"
   x2="279"
   y2="128.5"
   id="linearGradient3870"
   xlink:href="#linearGradient3799"
   gradientUnits="userSpaceOnUse" />
	
<linearGradient
   x1="-21"
   y1="128.5"
   x2="279"
   y2="128.5"
   id="linearGradient3876"
   xlink:href="#linearGradient3799"
   gradientUnits="userSpaceOnUse" /><linearGradient
   x1="-21"
   y1="128.5"
   x2="279"
   y2="128.5"
   id="linearGradient3878"
   xlink:href="#linearGradient3799"
   gradientUnits="userSpaceOnUse" /><linearGradient
   x1="-21"
   y1="128.5"
   x2="279"
   y2="128.5"
   id="linearGradient3880"
   xlink:href="#linearGradient3799"
   gradientUnits="userSpaceOnUse" />
		
		
	<linearGradient
   x1="-21"
   y1="128.5"
   x2="279"
   y2="128.5"
   id="linearGradient3885"
   xlink:href="#linearGradient3799"
   gradientUnits="userSpaceOnUse" /><linearGradient
   x1="-21"
   y1="128.5"
   x2="279"
   y2="128.5"
   id="linearGradient3887"
   xlink:href="#linearGradient3799"
   gradientUnits="userSpaceOnUse" /><linearGradient
   x1="65.91964"
   y1="69.056839"
   x2="89.046608"
   y2="92.378876"
   id="linearGradient3924"
   xlink:href="#linearGradient3777"
   gradientUnits="userSpaceOnUse"
   spreadMethod="pad"
   gradientTransform="translate(-0.30883726,-0.8370961)" /><linearGradient
   x1="118.38983"
   y1="128.49998"
   x2="173.77965"
   y2="236.97458"
   id="linearGradient3932"
   xlink:href="#linearGradient3799"
   gradientUnits="userSpaceOnUse" /><linearGradient
   x1="118.38983"
   y1="128.49998"
   x2="173.77965"
   y2="236.97458"
   id="linearGradient3932-6"
   xlink:href="#linearGradient2725"
   gradientUnits="userSpaceOnUse"
   gradientTransform="matrix(0.5,0,0,0.5,-0.5037525,1.5527344)" /><linearGradient
   xlink:href="#linearGradient2776"
   id="linearGradient2769"
   gradientUnits="userSpaceOnUse"
   gradientTransform="translate(-0.3088393,1.1629025)"
   x1="65.91964"
   y1="69.056839"
   x2="89.046608"
   y2="92.378876"
   spreadMethod="pad" /></defs>

<path
   id="polygon11-2"
   style="fill:#990000;stroke-width:4;stroke-miterlimit:10;fill-opacity:1"
   d="m 87.405747,78.890734 11.916725,39.491026 0.0073,2.00447 -35.083525,-24.666996 -35.9165,24.666996 0.0067,-2.02941 12.493326,-39.804086 -33.8335005,-25.8335 0.0122,-2.002719 42.6543005,1.002719 15.083499,-40.5 13.75,40.5 42.507508,-0.83363 -0.007,2.00063 z" /><polygon
   points="57.667,237.667 82.667,154 15,102.333 100.333,100.333 130.5,19.333 158,100.333 243,102.667 175.819,154.676 199.667,237.667 129.5,188.333 "
   transform="matrix(0.5,0,0,0.5,-0.5037525,-0.4472656)"
   id="polygon11"
   style="fill:#ff0000;fill-opacity:1;stroke:none;stroke-width:8;stroke-miterlimit:10" /><path
   d="m 37.329746,62.052733 c -0.1665,0.8335 8.554999,9.881501 9.3335,9.6665 0.43,-0.1185 7,-6.1665 7,-6.1665 l 17.166499,18.5 c 0,0 -4.6665,2.6665 -9.6665,2.1665 -5,-0.5 -7.95,-2.5445 -13.6665,-8.833 -1.667,-1.8335 -4.167,1.1665 -4.167,1.1665 l -3,-0.1665 c 0,0 -3.6665,1.333 -2.5,3.6665 0.707,1.414 -17.2395,7.364499 -10.3335,15.333501 6.5,7.499996 14.6665,-8.000001 15.8335,-8.833501 1.167,-0.8335 10.6665,18.999997 37.1665,7.000001 0,0 3.6425,3.798 4,3.8265 0.519,0.042 9.500004,-7.951499 9.500004,-8.660001 0,-0.101415 -0.006,-2.000698 -0.006,-2.000698 l -4.99402,-3.332302 c 0,0 12.000001,-14.167 -1.573,-34.645001 -0.9945,-1.500499 -6.1265,-8.296999 -13.031,-12.773499 -4.0045,-2.595999 -8.746947,-6.454081 -16.547947,-9.055081 -0.114662,-0.03823 -0.96596,-1.224261 -0.96596,-1.224261 l 0.02003,1.982303 c 0.0063,0.622319 4.423165,4.589756 9.630881,9.847042 3.533,3.567 6.7525,7.899999 8.967,10.868 7.8335,10.5 6.8235,20.2185 3.8335,24.999998 0,0 -8.937057,-9.571994 -17.021057,-18.330494 0,0 7.4165,-7.3335 7,-7.8335 l 0.03883,-1.967684 c 0,0 -1.3416,0.207476 -2.705828,-0.698816 0,0 -1.793,0.558 -4.5125,0.661 -3.838,0.1455 -9.004443,-0.121505 -9.299443,0.168994 -0.90372,0.890648 -13.032098,9.792272 -15.505691,12.707161 0,0 0.03032,1.837172 0.0057,1.96034 z"
   id="path3813-8"
   style="fill:#997f00;fill-opacity:1;fill-rule:nonzero;stroke:none;stroke-width:2.2;stroke-miterlimit:10;stroke-dasharray:none" /><path
   d="m 37.329748,60.052734 c -0.1665,0.8335 8.555,9.881501 9.3335,9.6665 0.43,-0.1185 7,-6.1665 7,-6.1665 l 17.166499,18.5 c 0,0 -4.6665,2.6665 -9.666499,2.1665 -5,-0.5 -7.95,-2.5445 -13.6665,-8.833 -1.667,-1.8335 -4.167,1.1665 -4.167,1.1665 l -3,-0.1665 c 0,0 -3.6665,1.333 -2.5,3.6665 0.707,1.414 -17.239501,7.364499 -10.333501,15.3335 6.500001,7.499996 14.666501,-8 15.833501,-8.8335 1.167,-0.8335 10.6665,18.999996 37.166499,7 0,0 3.6425,3.798 4,3.8265 0.519,0.042 9.5,-7.9515 9.5,-8.66 0,-0.604 -5,-5.333 -5,-5.333 0,0 12.000003,-14.167 -1.572999,-34.645001 -0.994501,-1.500499 -6.126501,-8.296999 -13.031001,-12.773499 -4.0045,-2.595999 -9.095,-5.647501 -16.895999,-8.248501 -2.5,-0.8335 2.991999,3.700001 9.032999,9.798502 3.533,3.567 6.7525,7.899999 8.967,10.868 7.8335,10.5 6.8235,20.2185 3.8335,24.999998 0,0 -8.916,-9.575 -16.999999,-18.3335 0,0 7.416499,-7.3335 6.999999,-7.8335 -1.307,-1.5695 -1.171499,-1.673 -2.667,-2.6665 0,0 -1.793,0.558 -4.5125,0.661 -3.838,0.1455 -9.0255,-0.118499 -9.320499,0.172 -1.0025,0.988 -15.25,13.417501 -15.5,14.667501 z"
   id="path3813"
   style="fill:#ffd300;fill-opacity:1;fill-rule:nonzero;stroke:none;stroke-width:2.2;stroke-miterlimit:10;stroke-dasharray:none" />
</svg>
