<?xml version="1.0" encoding="UTF-8" standalone="no"?>
<svg
   width="128"
   height="128"
   version="1"
   id="svg198"
   xmlns:xlink="http://www.w3.org/1999/xlink"
   xmlns="http://www.w3.org/2000/svg"
   xmlns:svg="http://www.w3.org/2000/svg">
  <defs
     id="defs202">
    <linearGradient
       id="linearGradient1039">
      <stop
         style="stop-color:#f8d7c9;stop-opacity:1;"
         offset="0"
         id="stop1035" />
      <stop
         style="stop-color:#eea788;stop-opacity:1;"
         offset="1"
         id="stop1037" />
    </linearGradient>
    <linearGradient
       id="linearGradient1030">
      <stop
         style="stop-color:#c08672;stop-opacity:1;"
         offset="0"
         id="stop1026" />
      <stop
         style="stop-color:#8d533f;stop-opacity:1;"
         offset="1"
         id="stop1028" />
    </linearGradient>
    <linearGradient
       id="linearGradient896">
      <stop
         style="stop-color:#cf9682;stop-opacity:1;"
         offset="0"
         id="stop892" />
      <stop
         style="stop-color:#bb694b;stop-opacity:1;"
         offset="1"
         id="stop894" />
    </linearGradient>
    <radialGradient
       xlink:href="#linearGradient896"
       id="radialGradient898"
       cx="62.469208"
       cy="-35.001236"
       fx="62.469208"
       fy="-35.001236"
       r="50.074074"
       gradientUnits="userSpaceOnUse"
       gradientTransform="matrix(0.31057119,0,0,0.33985199,45.45261,41.126835)" />
    <radialGradient
       xlink:href="#linearGradient1030"
       id="radialGradient1032"
       cx="30.124533"
       cy="-35.183338"
       fx="30.124533"
       fy="-35.183338"
       r="23.111111"
       gradientUnits="userSpaceOnUse"
       gradientTransform="matrix(0.25605634,0,0,0.2462981,21.67613,20.574327)" />
    <radialGradient
       xlink:href="#linearGradient1039"
       id="radialGradient1041"
       cx="93.824303"
       cy="35.693035"
       fx="93.824303"
       fy="35.693035"
       r="17.333334"
       gradientUnits="userSpaceOnUse"
       gradientTransform="matrix(0.28136566,0,0,0.29525064,69.51714,50.855531)" />
    <linearGradient
       xlink:href="#linearGradient17"
       id="linearGradient5"
       x1="-104.64275"
       y1="176.5119"
       x2="3.3572464"
       y2="176.5119"
       gradientUnits="userSpaceOnUse"
       gradientTransform="matrix(1.0699629,0,0,1.0521296,120.40798,-117.5283)" />
    <linearGradient
       id="linearGradient17"
       gradientUnits="userSpaceOnUse"
       x1="0"
       y1="269.46301"
       x2="118.926"
       y2="269.46301"
       gradientTransform="matrix(1,0,0,0.98333333,-118,-175.03333)">
      <stop
         offset="0"
         stop-color="#e5a50a"
         id="stop14"
         style="stop-color:#000000;stop-opacity:1;" />
      <stop
         offset="0.414"
         stop-color="#fbdf9b"
         id="stop15"
         style="stop-color:#ffffff;stop-opacity:1;" />
      <stop
         offset="0.81300002"
         stop-color="#e5a50a"
         id="stop16"
         style="stop-color:#000000;stop-opacity:1;" />
      <stop
         offset="1"
         stop-color="#f8ca5b"
         id="stop17"
         style="stop-color:#b2b2b2;stop-opacity:1;" />
    </linearGradient>
    <linearGradient
       xlink:href="#linearGradient17"
       id="linearGradient5-9"
       x1="-104.64275"
       y1="176.5119"
       x2="3.3572464"
       y2="176.5119"
       gradientUnits="userSpaceOnUse"
       gradientTransform="matrix(0.37037034,0,0,0.36419445,113.86758,14.826371)" />
    <linearGradient
       xlink:href="#linearGradient17"
       id="linearGradient5-4"
       x1="-104.64275"
       y1="176.5119"
       x2="3.3572464"
       y2="176.5119"
       gradientUnits="userSpaceOnUse"
       gradientTransform="matrix(0.49382403,0,0,0.4855926,55.675163,-52.490744)" />
  </defs>
  <ellipse
     style="fill:#6a3e2f;fill-opacity:1;stroke-width:2.20361"
     cx="30.666553"
     cy="33.222126"
     id="circle178-2"
     rx="26.6665"
     ry="26.222" />
  <path
     style="opacity:0.2;stroke-width:2.20361"
     d="m 28.147902,7.1409411 a 26.6665,26.222 0 0 0 -9.650606,2.7527861 c 0.134666,0.4196828 -0.02267,0.8931208 -0.51333,1.3110998 -0.331998,0.282935 -0.603996,0.723596 -0.603996,0.980833 0,0.786268 0.722662,1.993528 1.299992,2.168953 0.766661,0.233375 0.509332,1.037867 -0.477331,1.48233 -0.455997,0.205843 -1.017325,0.79846 -1.246658,1.316345 -0.230666,0.519196 -0.569329,1.030525 -0.753329,1.136724 -0.182666,0.10751 -0.333331,0.51264 -0.333331,0.902037 0,0.544106 0.253331,0.807638 1.083993,1.134102 0.594663,0.234687 1.306659,0.405129 1.582657,0.378908 1.58799,-0.146844 1.698655,0.763059 0.310664,2.540911 -0.73733,0.943992 -1.091995,1.181301 -1.594659,1.061991 -0.467997,-0.110133 -0.723996,0.01966 -0.937327,0.475929 -0.223999,0.483796 -0.591996,0.647684 -1.579989,0.71455 -0.971995,0.06687 -1.406658,0.260909 -1.770656,0.784038 -0.266665,0.381529 -0.650663,0.69095 -0.854662,0.69095 -0.204531,0 -0.684795,0.256975 -1.067726,0.569017 -0.779196,0.635883 -1.0834601,0.700127 -1.3566584,0.284508 -0.3610647,-0.550661 -1.1401268,-0.272708 -2.2994525,0.81944 -1.0253276,0.964968 -1.1494598,1.223254 -0.9947938,2.061047 0.2751983,1.490721 1.0974601,2.813621 2.0363872,3.275128 0.8193288,0.402508 0.8353287,0.445774 0.3385319,0.962349 -0.2857322,0.29762 -0.7759961,0.616217 -1.0885272,0.709301 -0.9026603,0.270087 -0.3945305,0.60835 1.2161264,0.810264 1.6485224,0.205843 2.1607864,0.793211 1.3906574,1.594296 -0.4294635,0.447085 -0.4053306,0.530996 0.283865,0.955792 1.346659,0.831237 2.417585,0.32253 1.153593,-0.54804 -0.812395,-0.55984 -0.244266,-0.787971 0.947994,-0.38153 0.950661,0.323841 1.13866,0.305486 1.699989,-0.174377 1.153326,-0.982014 2.406651,0.470685 1.351992,1.566765 -0.670662,0.698816 -0.467997,1.540536 0.40133,1.65723 0.383998,0.05116 1.181326,0.40249 1.773322,0.781416 0.591996,0.377579 1.237326,0.688327 1.431991,0.688327 0.194666,0 0.743995,0.384153 1.221326,0.853526 0.967994,0.950552 1.505324,1.071169 1.778655,0.401197 0.327999,-0.805012 0.196,-1.22063 -0.687996,-2.168557 -0.702657,-0.755193 -1.845319,-2.761179 -1.845319,-3.242353 0,-0.296309 1.161329,-0.04458 1.811991,0.39202 0.406664,0.274019 1.065327,0.626705 1.463991,0.786659 0.423998,0.170443 0.863995,0.70013 1.065325,1.279638 0.313331,0.909901 0.43733,0.988567 1.546657,0.988567 h 1.205325 l 0.182666,2.130535 c 0.218665,2.563197 0.428001,3.082393 1.322658,3.293484 0.658663,0.15602 1.361325,1.159008 1.361325,1.94305 0,0.208464 -0.473331,0.71979 -1.051993,1.135412 -0.71733,0.515262 -1.026661,0.95317 -0.978661,1.381896 0.06,0.536244 -0.064,0.620154 -0.835995,0.563777 -0.49733,-0.03671 -1.361325,0.135043 -1.915988,0.38153 -0.65733,0.291064 -1.369322,0.384152 -2.037318,0.266154 -0.767998,-0.135044 -1.027996,-0.0826 -1.027996,0.212398 0,0.217642 -0.269332,0.624079 -0.59733,0.904654 -0.810662,0.69095 -0.475995,1.056747 0.769332,0.836477 0.773328,-0.136354 1.074659,-0.07605 1.207992,0.251731 0.283998,0.696195 -0.435997,1.692631 -1.103993,1.528743 -0.423997,-0.104887 -0.626663,0.03802 -0.758664,0.529689 -0.04533,0.174376 -0.129334,0.322531 -0.229333,0.448392 a 26.6665,26.222 0 0 0 4.219973,1.225883 c -0.133332,-0.250376 -0.285331,-0.478552 -0.433334,-0.580814 -0.686662,-0.47724 -0.226665,-1.71754 0.718662,-1.940432 0.963994,-0.228131 0.811995,-0.843037 -0.235999,-0.961035 -0.91866,-0.102267 -1.895988,-1.017414 -1.589323,-1.485478 0.206666,-0.313352 1.085326,-0.267463 2.862649,0.146844 0.802661,0.186176 1.350658,-0.188798 3.210647,-2.189542 1.075993,-1.159012 1.903988,-1.641496 2.811982,-1.641496 0.346664,0 1.582656,-0.313353 2.747983,-0.69619 2.199986,-0.725043 3.059981,-0.698821 2.978648,0.09178 -0.167999,1.644115 0.907994,1.589053 2.661316,-0.133733 0.730663,-0.717171 1.398659,-1.236367 1.485324,-1.155074 0.334665,0.315975 -0.267998,1.853895 -0.971994,2.476667 -0.891994,0.789279 -0.935994,1.287496 -0.150665,1.682137 0.42933,0.217644 0.611996,0.656862 0.679996,1.64412 l 0.09067,1.347815 h 1.11466 c 0.390665,0 0.714663,0.05244 0.975994,0.150776 A 26.6665,26.222 0 0 0 57.291719,34.044194 c -0.407998,-0.857462 -0.37862,-1.375344 0,-1.958784 a 26.6665,26.222 0 0 0 -0.12,-1.469744 c -0.242664,-0.0118 -0.490662,-0.02229 -0.775995,-0.01048 -1.343991,0.05507 -2.49465,-0.46544 -2.49465,-1.128856 0,-0.140289 -0.477331,-0.718481 -1.059993,-1.283565 -0.66133,-0.63982 -0.999994,-1.206214 -0.901329,-1.499898 0.09067,-0.267465 -0.103999,-0.698819 -0.447988,-0.991195 -0.334664,-0.285819 -0.609329,-0.744703 -0.609329,-1.020035 0,-0.439219 -0.283998,-0.494285 -2.338652,-0.445775 l -2.338656,0.05637 0.04,2.266894 c 0.06933,3.970009 0.670658,5.000533 2.525313,4.335806 0.849333,-0.305487 2.935986,-0.07473 3.529316,0.388085 0.214665,0.16782 0.525326,0.776173 0.689329,1.353057 0.165332,0.575571 0.775991,1.57332 1.359987,2.214449 1.181326,1.300608 1.273325,1.808006 0.596,3.334124 -0.590667,1.332077 -1.227996,1.17868 -1.101331,-0.266153 l 0.09333,-1.0751 -0.999994,0.183554 c -0.55333,0.103577 -1.246659,0.504773 -1.557324,0.902035 -0.442663,0.565084 -0.649329,0.647683 -0.981327,0.389396 -0.231998,-0.180932 -0.419997,-0.562462 -0.419997,-0.845659 0,-0.283198 -0.285331,-0.597861 -0.631992,-0.701439 -0.347998,-0.103576 -0.823999,-0.618839 -1.057331,-1.147212 -0.374664,-0.844348 -0.365331,-1.102635 0.07067,-2.127915 0.441331,-1.039702 0.445322,-1.211456 0.03867,-1.595609 -0.373331,-0.351375 -0.566668,-0.363175 -1.057332,-0.07342 -0.493326,0.289753 -0.726657,0.268775 -1.313324,-0.118 -0.390665,-0.258287 -1.074657,-0.471995 -1.517325,-0.471995 -0.899989,0 -1.171992,-0.430042 -1.171992,-1.853896 0,-1.315033 -0.797324,-1.792274 -2.695983,-1.620519 -1.317323,0.119305 -1.607988,0.03408 -2.670649,-0.770932 -0.657328,-0.496907 -1.694655,-1.692631 -2.307985,-2.660222 -0.613329,-0.967592 -1.273325,-1.97845 -1.466658,-2.245914 -0.277331,-0.386775 -0.209332,-0.757816 0.333332,-1.81063 l 0.685329,-1.32421 -1.447991,0.192732 c -2.575984,0.342196 -3.097314,0.669971 -1.989321,1.254722 0.431998,0.22682 0.450664,0.343508 0.117333,0.722414 -0.218666,0.246486 -0.321331,0.638508 -0.226666,0.870572 0.09467,0.230754 -0.02533,0.776172 -0.265331,1.210146 -0.241332,0.435284 -0.442664,1.044946 -0.450664,1.3583 -0.02533,0.976769 -1.726656,1.75425 -3.622644,1.650674 -2.871982,-0.156021 -3.105314,-0.111443 -4.125308,0.819437 -1.274659,1.164258 -1.438655,1.705743 -0.845325,2.786088 0.574663,1.04888 1.59599,1.467121 3.363977,1.380588 1.581323,-0.07735 1.759988,0.06031 1.398658,1.088214 -0.307998,0.873191 -1.339992,1.208833 -2.039988,0.663416 -0.538663,-0.420863 -2.395982,-0.09571 -2.965313,0.520507 -0.238664,0.256976 -0.593329,0.933502 -0.786664,1.499898 -0.333331,0.978081 -0.430663,1.038391 -1.923985,1.179992 -1.490659,0.14291 -1.634658,0.09571 -2.70665,-0.875815 -1.195995,-1.082971 -1.39866,-1.911585 -0.822663,-3.338062 0.255998,-0.631951 0.44533,-0.735527 1.127994,-0.612284 1.35199,0.242553 1.88532,-0.218954 1.88532,-1.638875 0,-0.688328 -0.136,-1.332076 -0.302665,-1.429099 -0.165332,-0.09702 -0.301332,-0.461507 -0.301332,-0.811571 0,-0.350063 -0.170665,-0.801082 -0.37733,-0.999059 -0.302665,-0.288442 -0.258666,-0.443149 0.223998,-0.778793 0.330665,-0.229442 0.874662,-0.384151 1.207995,-0.344823 0.331994,0.03934 1.250657,-0.102266 2.041321,-0.313354 1.142655,-0.302864 1.478653,-0.532303 1.633321,-1.123609 0.293331,-1.122307 1.009324,-2.023032 1.60932,-2.023032 0.947994,0 0.967994,-2.192157 0.04667,-5.380752 -0.135999,-0.470685 -0.510664,-0.769616 -1.171992,-0.930881 -0.535997,-0.13111 -1.11866,-0.490351 -1.294659,-0.799509 -0.174666,-0.309157 -0.495997,-0.560888 -0.71333,-0.560888 -0.217331,0 -0.642662,-0.255927 -0.94266,-0.568493 -0.302665,-0.314664 -0.927994,-0.568493 -1.403991,-0.568493 -1.12666,0 -1.145327,-0.762798 -0.028,-1.165043 1.179993,-0.425321 3.017314,0.132154 3.461311,1.049797 0.60133,1.244366 1.269325,0.72517 1.48399,-1.154816 0.265332,-2.3252359 1.081327,-2.9935038 3.653311,-2.9935038 h 1.849321 L 28.754565,7.9911869 C 28.502567,7.7426018 28.293234,7.4388208 28.147902,7.1409411 Z m 9.586607,0.8245511 c -0.052,0.046155 -0.102666,0.083914 -0.153332,0.1356983 -0.618663,0.6209376 -0.909328,0.709436 -1.865322,0.5660015 -1.669323,-0.2502887 -1.454658,0.4106373 0.393331,1.2087031 0.99866,0.4314829 1.641323,0.9234069 1.859988,1.4211009 1.053327,2.401411 1.778655,3.694287 2.142653,3.825397 0.735995,0.266153 1.174659,-0.267989 1.338658,-1.633368 0.187999,-1.566502 0.726663,-1.898604 1.694657,-1.042193 0.375997,0.332363 0.901332,0.604285 1.166658,0.604285 0.827996,0 1.439992,0.326857 1.439992,0.768305 0,0.232589 0.279999,0.793084 0.622662,1.246594 0.505331,0.667349 0.847995,0.827304 1.791989,0.827304 1.15866,0 1.869322,0.213709 3.319979,1.001681 0.02267,0.0118 0.04533,0.01573 0.068,0.02753 A 26.6665,26.222 0 0 0 37.734509,7.9654892 Z M 4.0053874,33.109769 a 26.6665,26.222 0 0 0 -0.0052,0.112754 26.6665,26.222 0 0 0 0.5207967,5.037246 c 0.9661299,0.386779 1.2330612,0.233381 1.3333276,-0.650303 0.05187,-0.457574 0.2947982,-0.975458 0.5417296,-1.15508 0.3814646,-0.276641 0.312665,-0.418241 -0.468796,-0.942681 C 5.4213814,35.172131 4.9228506,34.579513 4.8204512,34.195361 4.7212519,33.823009 4.385788,33.416565 4.0053874,33.109769 Z m 8.3934136,8.667682 c -0.249331,-0.02491 -0.549729,0.106177 -0.88306,0.420858 -0.705196,0.663416 -0.598663,1.996806 0.200532,2.523863 0.915861,0.604417 1.269192,0.42873 1.385191,-0.685705 0.142666,-1.374028 -0.155999,-2.202653 -0.702663,-2.259025 z m 4.525305,3.964766 c -0.271998,0.0092 -0.571996,0.200641 -0.871995,0.604417 -0.318665,0.427418 -0.405331,0.979396 -0.283998,1.817185 0.150665,1.030528 0.08533,1.250789 -0.462664,1.527426 -0.705328,0.353998 -0.855993,1.408122 -0.278664,1.950921 0.573329,0.540174 1.119995,0.398575 1.317327,-0.340886 0.279998,-1.054128 1.849319,-1.177372 2.921312,-0.230753 0.457331,0.403818 0.830662,0.608355 0.830662,0.453641 0,-0.15471 -0.475997,-0.717163 -1.057326,-1.246857 -0.889329,-0.812877 -1.054661,-1.159008 -1.054661,-2.205265 0,-1.476304 -0.459997,-2.348185 -1.059993,-2.329825 z m -7.4318192,3.38526 a 26.6665,26.222 0 0 0 0.6171962,0.765682 C 9.9277511,49.616517 9.7202854,49.351675 9.4922868,49.127477 Z m 8.9864762,4.025072 c -0.134666,0.04589 -0.191999,0.212399 -0.191999,0.504779 0,0.296308 -0.191998,0.607039 -0.426664,0.690944 -0.311998,0.112756 -0.383997,0.468064 -0.263998,1.316349 0.02267,0.158643 0.02933,0.285821 0.03733,0.418241 a 26.6665,26.222 0 0 0 1.109329,0.559845 c -0.01867,-0.453642 0.06533,-0.987259 0.306664,-1.655929 0.409331,-1.135404 0.423998,-1.419916 0.09067,-1.619208 -0.311998,-0.186177 -0.52533,-0.260909 -0.661331,-0.215021 z"
     id="path180-7" />
  <path
     id="circle2-6-0"
     style="opacity:0.4;fill:url(#linearGradient5-4);stroke-width:0.152455"
     d="M 57.333053,33.222125 A 26.666497,26.222 0 0 1 30.666553,59.444126 26.666497,26.222 0 0 1 4.0000535,33.222125 26.666497,26.222 0 0 1 30.666553,7.000126 a 26.666497,26.222 0 0 1 26.6665,26.221999 z" />
  <ellipse
     style="fill:url(#radialGradient1032);fill-opacity:1;stroke-width:2.20363"
     cx="30.666552"
     cy="29.222126"
     id="circle178"
     rx="26.666668"
     ry="26.222221" />
  <path
     style="opacity:0.2;stroke-width:2.20363"
     d="m 28.14788,3.140722 a 26.666668,26.222222 0 0 0 -9.65066,2.75281 c 0.13466,0.419686 -0.0227,0.893128 -0.51334,1.31111 -0.332,0.282938 -0.604,0.723602 -0.604,0.980842 0,0.786274 0.72267,1.993546 1.3,2.168972 0.76667,0.233378 0.50934,1.037875 -0.47733,1.482342 -0.456,0.205844 -1.01733,0.798467 -1.24667,1.316356 -0.23066,0.5192 -0.56933,1.030534 -0.75333,1.136734 -0.18267,0.107516 -0.33333,0.512645 -0.33333,0.902045 0,0.544111 0.25333,0.807644 1.084,1.134111 0.59466,0.234689 1.30666,0.405133 1.58266,0.378911 1.588,-0.146845 1.69867,0.763067 0.31067,2.540933 -0.73734,0.944 -1.092,1.181311 -1.59467,1.062 -0.468,-0.110137 -0.724,0.01966 -0.93733,0.475934 -0.224,0.4838 -0.592,0.647688 -1.58,0.714555 -0.972,0.06686 -1.40667,0.260911 -1.77067,0.784045 -0.26667,0.381533 -0.65067,0.690955 -0.85467,0.690955 -0.20453,0 -0.68479,0.256978 -1.06773,0.569023 -0.7792,0.635888 -1.08346,0.700132 -1.35666,0.28451 -0.36107,-0.550666 -1.14014,-0.27271 -2.29947,0.819446 -1.02534,0.964976 -1.14947,1.223266 -0.9948,2.061066 0.2752,1.490732 1.09746,2.813644 2.0364,3.275156 0.81933,0.40251 0.83533,0.445776 0.33853,0.962356 -0.28573,0.297623 -0.776,0.616223 -1.08853,0.709308 -0.90267,0.270088 -0.39453,0.608355 1.21613,0.81027 1.64854,0.205845 2.1608,0.793218 1.39067,1.59431 -0.42947,0.447088 -0.40534,0.531 0.28387,0.9558 1.34666,0.831244 2.41759,0.322532 1.15359,-0.548044 -0.8124,-0.559846 -0.24426,-0.787978 0.948,-0.381534 0.95067,0.323844 1.13867,0.305488 1.70001,-0.174378 1.15333,-0.982022 2.40666,0.470688 1.35199,1.566778 -0.67066,0.698822 -0.468,1.540549 0.40134,1.657244 0.384,0.05116 1.18133,0.402494 1.77333,0.781422 0.592,0.377583 1.23733,0.688334 1.432,0.688334 0.19467,0 0.744,0.384156 1.22133,0.853533 0.96801,0.95056 1.50534,1.071177 1.77867,0.4012 0.328,-0.805018 0.196,-1.22064 -0.688,-2.168575 -0.70266,-0.7552 -1.84533,-2.761202 -1.84533,-3.24238 0,-0.296312 1.16134,-0.04458 1.812,0.392022 0.40667,0.274022 1.06534,0.62671 1.464,0.786666 0.424,0.170444 0.864,0.700136 1.06533,1.279649 0.31334,0.909909 0.43734,0.988576 1.54667,0.988576 h 1.20533 l 0.18267,2.130553 c 0.21867,2.563218 0.428,3.082418 1.32267,3.293512 0.65866,0.156022 1.36133,1.159017 1.36133,1.943066 0,0.208466 -0.47333,0.719796 -1.052,1.135422 -0.71733,0.515267 -1.02667,0.953178 -0.97867,1.381907 0.06,0.536249 -0.064,0.62016 -0.836,0.563782 -0.49733,-0.03672 -1.36133,0.135045 -1.916,0.381533 -0.65733,0.291067 -1.36933,0.384156 -2.03733,0.266156 -0.768,-0.135044 -1.028,-0.0826 -1.028,0.2124 0,0.217644 -0.26933,0.624084 -0.59733,0.904662 -0.81067,0.690956 -0.476,1.056756 0.76933,0.836485 0.77334,-0.136356 1.07467,-0.07604 1.208,0.251733 0.284,0.6962 -0.436,1.692645 -1.104,1.528755 -0.424,-0.104884 -0.62666,0.03802 -0.75867,0.529694 -0.0453,0.174377 -0.12933,0.322533 -0.22933,0.448396 a 26.666668,26.222222 0 0 0 4.22,1.225893 c -0.13333,-0.250379 -0.28533,-0.478556 -0.43334,-0.580818 -0.68666,-0.477244 -0.22666,-1.717556 0.71867,-1.940449 0.964,-0.228133 0.812,-0.843045 -0.236,-0.961045 -0.91867,-0.102263 -1.896,-1.017422 -1.58933,-1.485488 0.20666,-0.313356 1.08533,-0.267467 2.86266,0.146844 0.80267,0.186178 1.35067,-0.1888 3.21067,-2.189559 1.076,-1.159022 1.904,-1.641512 2.812,-1.641512 0.34667,0 1.58267,-0.313356 2.748,-0.696195 2.2,-0.725049 3.06,-0.698827 2.97867,0.09178 -0.168,1.644129 0.908,1.589066 2.66133,-0.133734 0.73067,-0.717178 1.39867,-1.236378 1.48533,-1.155084 0.33467,0.315978 -0.268,1.853911 -0.972,2.476688 -0.892,0.789285 -0.936,1.287508 -0.15066,1.682152 0.42933,0.217644 0.612,0.656866 0.68,1.644133 l 0.0907,1.347827 h 1.11466 c 0.39067,0 0.71467,0.05244 0.976,0.150777 a 26.666668,26.222222 0 0 0 12.92,-21.641198 c -0.408,-0.85747 -0.37862,-1.375356 0,-1.9588 a 26.666668,26.222222 0 0 0 -0.12,-1.469758 c -0.24267,-0.0118 -0.49067,-0.02228 -0.776,-0.01044 -1.344,0.05506 -2.49467,-0.465444 -2.49467,-1.128866 0,-0.140288 -0.47733,-0.718486 -1.06,-1.283576 -0.66133,-0.639824 -1,-1.206224 -0.90133,-1.49991 0.0907,-0.267468 -0.104,-0.698825 -0.44799,-0.991202 -0.33467,-0.285823 -0.60933,-0.74471 -0.60933,-1.020045 0,-0.439223 -0.284,-0.494289 -2.33867,-0.445778 l -2.33867,0.05638 0.04,2.266913 c 0.0693,3.970042 0.67066,5.000576 2.52533,4.335842 0.84934,-0.305488 2.936,-0.07474 3.52934,0.38809 0.21466,0.167822 0.52533,0.77618 0.68933,1.353068 0.16533,0.575576 0.776,1.573334 1.36,2.214467 1.18133,1.30062 1.27333,1.808022 0.596,3.334153 -0.59067,1.332089 -1.228,1.17869 -1.10134,-0.266156 l 0.0933,-1.075108 -1,0.183555 c -0.55334,0.103579 -1.24667,0.504778 -1.55734,0.902043 -0.44266,0.565088 -0.64933,0.647688 -0.98133,0.3894 -0.232,-0.180934 -0.42,-0.562467 -0.42,-0.845667 0,-0.2832 -0.28533,-0.597867 -0.63199,-0.701445 -0.348,-0.103579 -0.82401,-0.618844 -1.05734,-1.147222 -0.37467,-0.844356 -0.36534,-1.102644 0.0707,-2.127934 0.44133,-1.03971 0.44533,-1.211466 0.0387,-1.595622 -0.37334,-0.351378 -0.56668,-0.363178 -1.05734,-0.07342 -0.49333,0.289756 -0.72666,0.268778 -1.31334,-0.118 -0.39066,-0.258288 -1.07466,-0.472 -1.51733,-0.472 -0.89999,0 -1.172,-0.430044 -1.172,-1.85391 0,-1.315044 -0.79733,-1.79229 -2.696,-1.620534 -1.31732,0.119312 -1.60799,0.03408 -2.67066,-0.770934 -0.65733,-0.49691 -1.69466,-1.692644 -2.308,-2.660244 -0.61333,-0.9676 -1.27333,-1.978466 -1.46666,-2.245932 -0.27734,-0.386778 -0.20934,-0.757824 0.33333,-1.810646 l 0.68533,-1.324222 -1.448,0.192734 c -2.576,0.3422 -3.09733,0.669978 -1.98933,1.254734 0.432,0.226822 0.45067,0.34351 0.11733,0.722419 -0.21866,0.246489 -0.32133,0.638513 -0.22666,0.870581 0.0947,0.230754 -0.0253,0.776176 -0.26534,1.210154 -0.24133,0.43529 -0.44266,1.044956 -0.45066,1.358312 -0.0253,0.976778 -1.72667,1.754266 -3.62267,1.650688 -2.872,-0.156022 -3.10533,-0.111442 -4.12533,0.819446 -1.27467,1.164266 -1.43867,1.705757 -0.84534,2.78611 0.57467,1.048889 1.596,1.467134 3.364,1.3806 1.58134,-0.07736 1.76,0.06032 1.39867,1.088222 -0.308,0.8732 -1.34,1.208845 -2.04,0.663422 -0.53867,-0.420866 -2.396,-0.09572 -2.96533,0.520512 -0.23867,0.256978 -0.59334,0.933511 -0.78667,1.499911 -0.33333,0.978089 -0.43067,1.0384 -1.924,1.180002 -1.49067,0.142911 -1.63467,0.09572 -2.70667,-0.875822 -1.196,-1.08298 -1.39866,-1.911603 -0.82266,-3.338091 0.256,-0.631956 0.44533,-0.735534 1.128,-0.61229 1.352,0.242556 1.88533,-0.218954 1.88533,-1.638888 0,-0.688334 -0.136,-1.332087 -0.30267,-1.429112 -0.16533,-0.09702 -0.30133,-0.46151 -0.30133,-0.811576 0,-0.350068 -0.17067,-0.80109 -0.37733,-0.999068 -0.30267,-0.288444 -0.25867,-0.443153 0.224,-0.7788 0.33066,-0.229444 0.87466,-0.384156 1.208,-0.344826 0.33199,0.03934 1.25066,-0.102263 2.04133,-0.313356 1.14266,-0.302867 1.47866,-0.532308 1.63333,-1.12362 0.29334,-1.122315 1.00933,-2.023049 1.60933,-2.023049 0.948,0 0.968,-2.192175 0.0467,-5.380796 -0.136,-0.47069 -0.51066,-0.769623 -1.17199,-0.93089 -0.53601,-0.131111 -1.11867,-0.490356 -1.29467,-0.799516 -0.17467,-0.30916 -0.496,-0.560892 -0.71334,-0.560892 -0.21733,0 -0.64266,-0.25593 -0.94266,-0.568498 -0.30267,-0.314668 -0.928,-0.568498 -1.404,-0.568498 -1.12667,0 -1.14534,-0.762804 -0.028,-1.165053 1.18,-0.425325 3.01734,0.132156 3.46134,1.049806 0.60133,1.244375 1.26933,0.725175 1.484,-1.154826 C 24.32798,5.455673 25.14398,4.7874 27.71598,4.7874 h 1.84934 L 28.75465,3.991031 C 28.50265,3.742444 28.29332,3.43866 28.14798,3.140778 Z m 9.58667,0.824558 c -0.052,0.04616 -0.10267,0.0839 -0.15333,0.1357 -0.61867,0.620942 -0.90934,0.709442 -1.86534,0.566007 -1.66933,-0.250291 -1.45466,0.41064 0.39334,1.208713 0.99866,0.431487 1.64133,0.923415 1.86,1.421113 1.05333,2.401432 1.77866,3.694318 2.14266,3.825429 0.736,0.266155 1.17467,-0.267991 1.33867,-1.633382 0.188,-1.566516 0.72667,-1.89862 1.69467,-1.042202 0.376,0.332366 0.90133,0.604291 1.16666,0.604291 0.828,0 1.44,0.32686 1.44,0.768311 0,0.232591 0.28,0.793091 0.62267,1.246605 0.50533,0.667354 0.848,0.827311 1.792,0.827311 1.15867,0 1.86933,0.213711 3.32,1.001689 0.0227,0.0118 0.0453,0.01574 0.068,0.02754 a 26.666668,26.222222 0 0 0 -13.82,-8.957122 z M 4.00522,29.10977 a 26.666668,26.222222 0 0 0 -0.005,0.112758 26.666668,26.222222 0 0 0 0.5208,5.037289 c 0.96613,0.386782 1.23306,0.233382 1.33333,-0.650309 0.0519,-0.457578 0.2948,-0.975467 0.54173,-1.155089 C 6.77755,32.177775 6.70875,32.036175 5.92728,31.51173 5.42142,31.172153 4.92288,30.57953 4.82048,30.195375 4.72128,29.823019 4.38582,29.416572 4.00542,29.109772 Z m 8.39346,8.667756 c -0.24933,-0.02492 -0.54973,0.106177 -0.88306,0.420862 -0.7052,0.663422 -0.59867,1.996822 0.20053,2.523885 0.91587,0.604422 1.2692,0.428734 1.3852,-0.685712 0.14267,-1.37404 -0.156,-2.202671 -0.70267,-2.259044 z m 4.52534,3.9648 c -0.272,0.0092 -0.572,0.200643 -0.872,0.604422 -0.31867,0.427422 -0.40534,0.979405 -0.284,1.8172 0.15066,1.030537 0.0853,1.2508 -0.46267,1.52744 -0.70533,0.354 -0.856,1.408134 -0.27867,1.950938 0.57334,0.540178 1.12001,0.398578 1.31734,-0.340889 0.28,-1.054138 1.84933,-1.177382 2.92133,-0.230755 0.45733,0.403822 0.83067,0.608359 0.83067,0.453644 0,-0.154711 -0.476,-0.717169 -1.05734,-1.246867 -0.88933,-0.812884 -1.05466,-1.159018 -1.05466,-2.205284 0,-1.476315 -0.46,-2.348205 -1.06,-2.329844 z m -7.43187,3.385289 a 26.666668,26.222222 0 0 0 0.6172,0.765689 C 9.92762,45.616659 9.72015,45.351815 9.49215,45.127615 Z m 8.98653,4.025107 c -0.13466,0.04588 -0.192,0.2124 -0.192,0.504782 0,0.296311 -0.192,0.607044 -0.42666,0.690951 -0.312,0.112758 -0.384,0.468067 -0.264,1.31636 0.0227,0.158644 0.0293,0.285822 0.0373,0.418244 a 26.666668,26.222222 0 0 0 1.10934,0.559849 c -0.0187,-0.453645 0.0653,-0.987267 0.30667,-1.655942 0.40933,-1.135413 0.424,-1.419929 0.0907,-1.619222 -0.312,-0.186178 -0.52534,-0.260912 -0.66134,-0.215022 z"
     id="path180" />
  <ellipse
     style="fill:#733e2b;fill-opacity:1;stroke-width:2.20364"
     cx="66.222115"
     cy="68.185097"
     id="circle184-2"
     rx="57.778"
     ry="56.815002" />
  <path
     style="opacity:0.2;stroke-width:2.20364"
     d="m 60.764968,11.675191 a 57.777997,56.815001 0 0 0 -20.909857,5.96444 c 0.291779,0.909322 -0.04911,1.935117 -1.112229,2.840748 -0.719333,0.613034 -1.308667,1.56781 -1.308667,2.125166 0,1.7036 1.56578,4.319362 2.816674,4.699455 1.661119,0.505653 1.103561,2.248735 -1.034226,3.211749 -0.988002,0.446001 -2.204228,1.730017 -2.701121,2.852114 -0.499779,1.124936 -1.23356,2.23283 -1.632228,2.46293 -0.39578,0.232942 -0.722225,1.110733 -0.722225,1.954436 0,1.178911 0.54889,1.749901 2.348676,2.457249 1.288452,0.508495 2.831121,0.877792 3.429123,0.820976 3.44068,-0.318164 3.68046,1.653317 0.673115,5.505375 -1.597562,2.045343 -2.366009,2.559515 -3.455123,2.301007 -1.014005,-0.238622 -1.568675,0.04239 -2.030898,1.031192 -0.485335,1.048238 -1.282673,1.403332 -3.423347,1.54821 -2.106008,0.144877 -3.047789,0.565312 -3.83646,1.698772 -0.577779,0.826654 -1.409782,1.497071 -1.851785,1.497071 -0.443156,0 -1.483738,0.556787 -2.31343,1.232886 -1.688273,1.377764 -2.34752,1.516965 -2.939454,0.616447 -0.782314,-1.19312 -2.470298,-0.59088 -4.982196,1.775464 -2.221564,2.090793 -2.490521,2.650424 -2.155409,4.46566 0.596269,3.22993 2.377854,6.096247 4.412217,7.096191 1.77523,0.87211 1.809896,0.965859 0.733492,2.085111 -0.619091,0.644855 -1.68134,1.335152 -2.358497,1.536846 -1.955787,0.585194 -0.854826,1.318107 2.634965,1.755583 3.571833,0.446002 4.681749,1.718654 3.01312,3.454353 -0.930512,0.9687 -0.878223,1.150503 0.615047,2.070906 2.917789,1.801036 5.238153,0.698825 2.499476,-1.187433 -1.760207,-1.213 -0.529247,-1.707291 2.054008,-0.826659 2.059786,0.701666 2.46712,0.661895 3.683347,-0.37782 2.498899,-2.127721 5.214465,1.019835 2.929345,3.394702 -1.453117,1.514114 -1.014004,3.337876 0.869558,3.590704 0.832003,0.110784 2.559569,0.87211 3.842237,1.693086 1.282673,0.818137 2.680899,1.491394 3.10268,1.491394 0.421779,0 1.612001,0.83234 2.646232,1.849329 2.097342,2.059547 3.261567,2.320889 3.853791,0.869269 0.71067,-1.744221 0.42467,-2.644738 -1.490671,-4.698601 -1.522451,-1.636272 -3.998238,-5.982615 -3.998238,-7.025175 0,-0.642009 2.516232,-0.09659 3.926015,0.849384 0.881115,0.593717 2.308231,1.35788 3.172013,1.704455 0.91867,0.369298 1.872007,1.516956 2.308231,2.772567 0.678891,1.971482 0.947558,2.141926 3.351124,2.141926 h 2.611565 l 0.395779,4.616219 c 0.47378,5.553668 0.927337,6.678607 2.865788,7.13597 1.427116,0.338042 2.949566,2.511215 2.949566,4.209975 0,0.45169 -1.02556,1.55959 -2.279342,2.4601 -1.554226,1.11642 -2.224451,2.06524 -2.120451,2.99414 0.130001,1.16188 -0.138668,1.34368 -1.81134,1.22153 -1.07756,-0.0796 -2.949567,0.29264 -4.151349,0.82666 -1.424227,0.63065 -2.9669,0.83234 -4.414239,0.57668 -1.664007,-0.29261 -2.227342,-0.17898 -2.227342,0.4602 0,0.47156 -0.583558,1.35219 -1.294227,1.96012 -1.756452,1.49707 -1.031337,2.28964 1.666895,1.81239 1.675562,-0.29543 2.328453,-0.16476 2.617343,0.54543 0.615336,1.50845 -0.94467,3.66741 -2.392009,3.3123 -0.91867,-0.22725 -1.357783,0.0823 -1.643784,1.14767 -0.09823,0.37783 -0.280223,0.69883 -0.496891,0.97154 a 57.777997,56.815001 0 0 0 9.143368,2.6561 c -0.288889,-0.54259 -0.618224,-1.03687 -0.938892,-1.25845 -1.487783,-1.03403 -0.491113,-3.72139 1.557117,-4.20431 2.088675,-0.4943 1.75934,-1.8266 -0.511336,-2.08228 -1.99045,-0.22157 -4.108014,-2.20441 -3.443568,-3.21856 0.44778,-0.67895 2.351564,-0.57952 6.202468,0.31816 1.739118,0.40339 2.926456,-0.40906 6.956469,-4.74406 2.331343,-2.51122 4.12535,-3.55661 6.09269,-3.55661 0.751114,0 3.429124,-0.67893 5.954023,-1.50844 4.766684,-1.57094 6.630025,-1.51412 6.453802,0.19886 -0.364001,3.56229 1.967341,3.44299 5.766245,-0.28977 1.583116,-1.55389 3.030456,-2.67882 3.21824,-2.50269 0.725112,0.68462 -0.580675,4.01682 -2.106013,5.36617 -1.932675,1.71013 -2.028008,2.78961 -0.326447,3.64469 0.930227,0.47156 1.326005,1.42321 1.47334,3.56229 l 0.196445,2.9203 h 2.415121 c 0.846443,0 1.548446,0.11362 2.114668,0.32667 A 57.777997,56.815001 0 0 0 123.91053,69.966235 c -0.88399,-1.85785 -0.82044,-2.979942 0,-4.24408 a 57.777997,56.815001 0 0 0 -0.25999,-3.184479 c -0.52579,-0.02579 -1.06312,-0.04829 -1.68135,-0.02273 -2.91201,0.11931 -5.40513,-1.008467 -5.40513,-2.445887 0,-0.30396 -1.03422,-1.556726 -2.29668,-2.781089 -1.43289,-1.386287 -2.16667,-2.613495 -1.95289,-3.249823 0.19641,-0.579514 -0.22533,-1.51412 -0.97067,-2.147603 -0.72512,-0.619287 -1.32022,-1.613551 -1.32022,-2.210109 0,-0.95165 -0.61534,-1.070962 -5.06714,-0.965854 l -5.06713,0.122152 0.0866,4.911656 c 0.15022,8.601792 1.45312,10.83462 5.47158,9.394362 1.84024,-0.661895 6.36137,-0.161923 7.64692,0.84086 0.46511,0.363616 1.13823,1.681724 1.49356,2.931654 0.35823,1.24709 1.68134,3.4089 2.94668,4.798027 2.55957,2.818024 2.75891,3.917395 1.29133,7.224028 -1.27978,2.886202 -2.66068,2.553833 -2.38623,-0.576673 l 0.20222,-2.329415 -2.16666,0.397704 c -1.1989,0.224421 -2.70113,1.093685 -3.37425,1.954433 -0.95911,1.224363 -1.40688,1.40333 -2.12623,0.843703 -0.50266,-0.392025 -0.90999,-1.218682 -0.90999,-1.832284 0,-0.613602 -0.61822,-1.295382 -1.36934,-1.519802 -0.75401,-0.224419 -1.78534,-1.340833 -2.2909,-2.485652 -0.81178,-1.829447 -0.79157,-2.389074 0.15311,-4.610542 0.95622,-2.252715 0.96489,-2.624853 0.0838,-3.457193 -0.8089,-0.76132 -1.22779,-0.786888 -2.2909,-0.159082 -1.06889,0.627806 -1.57445,0.582359 -2.845561,-0.255668 -0.846454,-0.559627 -2.328459,-1.022669 -3.287563,-1.022669 -1.950017,0 -2.53935,-0.931764 -2.53935,-4.016819 0,-2.849268 -1.727563,-3.883305 -5.841352,-3.511167 -2.854235,0.258508 -3.484019,0.07387 -5.786472,-1.670361 -1.424228,-1.076644 -3.671787,-3.667408 -5.000686,-5.763877 -1.328894,-2.096478 -2.758899,-4.286697 -3.17779,-4.86621 -0.60089,-0.838021 -0.453557,-1.641953 0.722225,-3.923075 l 1.484896,-2.869158 -3.137345,0.417589 c -5.581357,0.741436 -6.710911,1.451624 -4.31024,2.718599 0.936004,0.491449 0.976449,0.744277 0.254223,1.565253 -0.47378,0.534061 -0.696224,1.383445 -0.491113,1.886259 0.205112,0.499976 -0.05489,1.681723 -0.574891,2.622011 -0.522891,0.943129 -0.959116,2.264079 -0.976449,2.943018 -0.05489,2.116358 -3.74112,3.800924 -7.849138,3.576504 -6.222691,-0.338049 -6.728248,-0.241464 -8.938252,1.775474 -2.761789,2.522581 -3.117127,3.695811 -1.831567,6.036589 1.24512,2.2726 3.458013,3.178797 7.288694,2.99131 3.426236,-0.167604 3.813348,0.130675 3.030456,2.35782 -0.667336,1.891944 -2.903344,2.619172 -4.420016,1.437419 -1.167116,-0.911876 -5.191354,-0.207374 -6.424913,1.127779 -0.517113,0.556787 -1.285561,2.022614 -1.704447,3.249823 -0.72223,2.119195 -0.933115,2.249869 -4.168688,2.55667 -3.229789,0.309642 -3.54179,0.207374 -5.864466,-1.897621 -2.591343,-2.346459 -3.030456,-4.141814 -1.782451,-7.23255 0.55467,-1.369241 0.964892,-1.593658 2.444009,-1.326626 2.929343,0.525535 4.084909,-0.474407 4.084909,-3.55094 0,-1.491393 -0.294668,-2.886202 -0.655785,-3.096417 -0.358224,-0.210216 -0.652892,-0.999945 -0.652892,-1.758424 0,-0.75848 -0.36976,-1.735698 -0.817558,-2.164653 -0.655778,-0.624964 -0.560445,-0.960169 0.485335,-1.687406 0.716448,-0.497126 1.895119,-0.832339 2.617344,-0.747117 0.719336,0.08522 2.709788,-0.221579 4.422906,-0.678939 2.475786,-0.656212 3.203789,-1.153345 3.538902,-2.434518 0.635557,-2.431686 2.186897,-4.383282 3.486901,-4.383282 2.054009,0 2.097342,-4.749734 0.101113,-11.658439 -0.294623,-1.019826 -1.10641,-1.667518 -2.539304,-2.01693 -1.161337,-0.284075 -2.423786,-1.06244 -2.805122,-1.732289 -0.378445,-0.669849 -1.074671,-1.215273 -1.545561,-1.215273 -0.47089,0 -1.39245,-0.554514 -2.042452,-1.231749 -0.655781,-0.68178 -2.010675,-1.23175 -3.042012,-1.23175 -2.441123,0 -2.481564,-1.652748 -0.06067,-2.52429 2.556677,-0.921541 6.537581,0.286347 7.499584,2.274588 1.302893,2.696157 2.750233,1.57122 3.215346,-2.502132 0.574895,-5.038072 2.342898,-6.486001 7.915586,-6.486001 h 4.006901 l -1.75645,-1.725467 C 61.53342,12.978799 61.079863,12.320598 60.764973,11.675178 Z m 20.771188,1.786547 c -0.112661,0.09999 -0.222445,0.181809 -0.332223,0.294019 -1.340449,1.345379 -1.970229,1.537129 -4.04157,1.226351 -3.616903,-0.542299 -3.15179,0.889723 0.852225,2.618888 2.163786,0.93489 3.556236,2.00074 4.030015,3.079089 2.282231,5.203117 3.853793,8.00438 4.642463,8.288456 1.594672,0.576672 2.54512,-0.580649 2.900455,-3.539006 0.407335,-3.394129 1.574451,-4.113692 3.671794,-2.258112 0.814663,0.72013 1.952897,1.309301 2.527789,1.309301 1.794007,0 3.120012,0.708199 3.120012,1.664679 0,0.503949 0.606663,1.71837 1.349114,2.700985 1.0949,1.445942 1.83734,1.792514 3.88268,1.792514 2.51046,0 4.05023,0.463041 7.19336,2.170333 0.0491,0.02556 0.0982,0.03409 0.14733,0.05965 A 57.777997,56.815001 0 0 0 81.536156,13.461738 Z M 8.4556605,67.941642 a 57.777997,56.815001 0 0 0 -0.01131,0.244304 57.777997,56.815001 0 0 0 1.1284043,10.914162 c 2.0932962,0.838022 2.6716552,0.505654 2.8888992,-1.409007 0.112374,-0.991426 0.638736,-2.113523 1.17376,-2.502706 C 14.461944,74.589002 14.312877,74.2822 12.619693,73.1459 11.523644,72.410146 10.443485,71.126126 10.221617,70.293788 10.006683,69.487018 9.2798367,68.606386 8.4556325,67.941645 Z M 26.641572,86.721845 c -0.540225,-0.05397 -1.191095,0.2301 -1.913319,0.911876 -1.527939,1.43742 -1.297116,4.326463 0.434491,5.46844 1.984386,1.30959 2.749943,0.928929 3.001277,-1.485703 0.309114,-2.97711 -0.338006,-4.772464 -1.522449,-4.894613 z m 9.804926,8.590428 c -0.589336,0.01966 -1.239339,0.434632 -1.88934,1.30958 -0.690449,0.926086 -0.878226,2.122041 -0.615337,3.937287 0.326446,2.23282 0.18489,2.71007 -1.002447,3.30947 -1.528229,0.76701 -1.854674,3.05096 -0.603782,4.22703 1.242228,1.1704 2.426677,0.8636 2.854234,-0.73859 0.606668,-2.28396 4.006902,-2.551 6.329579,-0.49997 0.990894,0.87495 1.799786,1.31811 1.799786,0.9829 0,-0.33521 -1.031337,-1.55389 -2.290898,-2.70156 -1.926897,-1.76126 -2.285117,-2.51122 -2.285117,-4.77813 0,-3.198688 -0.996674,-5.087794 -2.296678,-5.048017 z m -16.102437,7.334807 a 57.777997,56.815001 0 0 0 1.337269,1.65901 c -0.393758,-0.5994 -0.843267,-1.17323 -1.337269,-1.65901 z m 19.470894,8.72111 c -0.291783,0.0994 -0.41598,0.46019 -0.41598,1.09369 0,0.64201 -0.415978,1.31526 -0.924445,1.49707 -0.676003,0.24431 -0.832006,1.01415 -0.572,2.85212 0.04909,0.34373 0.06355,0.61928 0.08089,0.90619 a 57.777997,56.815001 0 0 0 2.40356,1.213 c -0.04044,-0.98289 0.1416,-2.13908 0.664451,-3.58787 0.886893,-2.46008 0.91867,-3.07653 0.196445,-3.50832 -0.676001,-0.4034 -1.138221,-0.56532 -1.432889,-0.46588 z"
     id="path186-9" />
  <path
     id="circle2-6"
     style="opacity:0.4;fill:url(#linearGradient5);stroke-width:0.330323"
     d="M 124.00011,68.185097 A 57.777994,56.814999 0 0 1 66.222115,125.0001 57.777994,56.814999 0 0 1 8.4441146,68.185097 a 57.777994,56.814999 0 0 1 57.7780004,-56.815 57.777994,56.814999 0 0 1 57.777995,56.815 z" />
  <ellipse
     style="fill:url(#radialGradient898);fill-opacity:1;stroke-width:2.20363"
     cx="66.222107"
     cy="64.185097"
     id="circle184"
     rx="57.777779"
     ry="56.814816" />
  <path
     style="opacity:0.2;stroke-width:2.20363"
     d="m 60.76499,7.675373 a 57.777777,56.814812 0 0 0 -20.90978,5.96442 c 0.29178,0.909319 -0.0491,1.93511 -1.11222,2.840739 -0.71933,0.613031 -1.30866,1.567804 -1.30866,2.125158 0,1.703595 1.56577,4.319348 2.81666,4.69944 1.66111,0.505651 1.10356,2.248728 -1.03422,3.211739 -0.988,0.445999 -2.20422,1.730011 -2.70111,2.852104 -0.49978,1.124933 -1.23356,2.232822 -1.63222,2.462922 -0.39578,0.232941 -0.72223,1.11073 -0.72223,1.95443 0,1.178907 0.54889,1.749895 2.34867,2.457241 1.28845,0.508492 2.83111,0.877788 3.42911,0.820973 3.44067,-0.318163 3.68045,1.653311 0.67311,5.505356 -1.59755,2.045337 -2.366,2.559508 -3.45511,2.301 -1.014,-0.238622 -1.56867,0.04239 -2.03089,1.031189 -0.48533,1.048233 -1.28267,1.403326 -3.42333,1.548204 -2.106,0.144877 -3.04778,0.565311 -3.83645,1.698767 -0.57777,0.826651 -1.40977,1.497066 -1.85177,1.497066 -0.44316,0 -1.48374,0.556785 -2.31343,1.232882 -1.68826,1.377759 -2.34751,1.516959 -2.93944,0.616444 -0.78231,-1.193115 -2.47029,-0.590878 -4.98218,1.775459 -2.22155,2.090785 -2.49051,2.650415 -2.1554,4.465644 0.59627,3.22992 2.37785,6.096227 4.4122,7.096169 1.77523,0.872107 1.80989,0.965856 0.73349,2.085104 -0.61909,0.644852 -1.68133,1.335147 -2.35849,1.53684 -1.95577,0.585192 -0.85482,1.318104 2.63496,1.755578 3.57182,0.446 4.68173,1.718648 3.01311,3.454341 -0.93051,0.968697 -0.87822,1.1505 0.61504,2.0709 2.91778,1.801029 5.23814,0.698822 2.49947,-1.18743 -1.7602,-1.212997 -0.52925,-1.707285 2.054,-0.826655 2.05978,0.701663 2.46711,0.661892 3.68333,-0.377819 2.49889,-2.127715 5.21445,1.01983 2.92934,3.394689 -1.45311,1.514111 -1.014,3.337866 0.86955,3.590693 0.832,0.110784 2.55956,0.872107 3.84222,1.693081 1.28267,0.818134 2.68089,1.491388 3.10267,1.491388 0.42178,0 1.612,0.832338 2.64622,1.849324 2.09734,2.059536 3.26156,2.320884 3.85378,0.869266 0.71067,-1.744215 0.42467,-2.64473 -1.49067,-4.698586 -1.52244,-1.636266 -3.99822,-5.982595 -3.99822,-7.025151 0,-0.642008 2.51622,-0.09659 3.926,0.849381 0.88111,0.593715 2.30822,1.357875 3.172,1.704449 0.91867,0.369296 1.872,1.516951 2.30822,2.772558 0.67889,1.971475 0.94756,2.141919 3.35112,2.141919 h 2.61155 l 0.39578,4.616203 c 0.47378,5.553653 0.92733,6.678583 2.86578,7.135943 1.42711,0.33805 2.94955,2.51122 2.94955,4.20998 0,0.45167 -1.02556,1.559555 -2.27933,2.460075 -1.55422,1.11641 -2.22445,2.06522 -2.12045,2.99413 0.13,1.16187 -0.13866,1.34368 -1.81133,1.22153 -1.07756,-0.0795 -2.94956,0.29264 -4.15133,0.82665 -1.42422,0.63065 -2.96689,0.83234 -4.41422,0.57668 -1.66401,-0.29261 -2.22734,-0.17898 -2.22734,0.4602 0,0.47155 -0.58355,1.35218 -1.29422,1.96011 -1.75644,1.49706 -1.03133,2.28963 1.66689,1.81238 1.67555,-0.29543 2.32844,-0.16476 2.61733,0.54543 0.61534,1.50844 -0.94466,3.6674 -2.392,3.3123 -0.91866,-0.22726 -1.35778,0.0824 -1.64378,1.14766 -0.0982,0.37783 -0.28022,0.69882 -0.49689,0.97154 a 57.777777,56.814812 0 0 0 9.14334,2.65609 c -0.28889,-0.54259 -0.61822,-1.03687 -0.93889,-1.25845 -1.48778,-1.03403 -0.49111,-3.72137 1.55711,-4.2043 2.08867,-0.49429 1.75933,-1.82659 -0.51133,-2.08227 -1.99045,-0.22157 -4.108,-2.20441 -3.44356,-3.21855 0.44778,-0.67894 2.35156,-0.57951 6.20245,0.31816 1.73911,0.40339 2.92644,-0.40906 6.95644,-4.74404 2.33133,-2.51121 4.12533,-3.55661 6.09267,-3.55661 0.75111,0 3.42911,-0.67893 5.954,-1.508425 4.76666,-1.57093 6.63,-1.51411 6.45377,0.19885 -0.364,3.562285 1.96734,3.442975 5.76623,-0.28975 1.58311,-1.55389 3.03044,-2.67882 3.21822,-2.50269 0.72511,0.68461 -0.58067,4.016805 -2.106,5.366155 -1.93267,1.71013 -2.028,2.7896 -0.32645,3.64467 0.93023,0.47156 1.326,1.4232 1.47334,3.56228 l 0.19644,2.92029 h 2.41511 c 0.84644,0 1.54844,0.11363 2.11466,0.32667 a 57.777777,56.814812 0 0 0 27.99334,-46.889256 c -0.884,-1.857844 -0.82045,-2.979932 0,-4.244066 a 57.777777,56.814812 0 0 0 -0.26,-3.184468 c -0.52578,-0.02579 -1.06312,-0.04829 -1.68134,-0.02273 -2.91199,0.119311 -5.40511,-1.008463 -5.40511,-2.445878 0,-0.303959 -1.03422,-1.556722 -2.29666,-2.781081 -1.43289,-1.386282 -2.16667,-2.613485 -1.9529,-3.249811 0.19641,-0.579512 -0.22532,-1.514115 -0.97066,-2.147596 -0.72511,-0.619286 -1.32022,-1.613546 -1.32022,-2.210101 0,-0.951648 -0.61533,-1.070959 -5.06711,-0.965852 l -5.06711,0.122152 0.0866,4.911641 c 0.15022,8.601763 1.45311,10.834583 5.47155,9.394329 1.84024,-0.661892 6.36134,-0.161922 7.6469,0.840858 0.4651,0.363615 1.13822,1.681718 1.49355,2.931644 0.35822,1.247086 1.68134,3.408889 2.94667,4.798011 2.55955,2.818015 2.75889,3.917382 1.29132,7.224004 -1.27977,2.886193 -2.66066,2.553825 -2.38622,-0.57667 l 0.20222,-2.329408 -2.16665,0.397703 c -1.1989,0.224419 -2.70112,1.093681 -3.37423,1.954426 -0.95911,1.224359 -1.40689,1.403326 -2.12623,0.8437 -0.50266,-0.392023 -0.90999,-1.218677 -0.90999,-1.832277 0,-0.6136 -0.61822,-1.295378 -1.36934,-1.519797 -0.75399,-0.224418 -1.78533,-1.34083 -2.29089,-2.485644 -0.81177,-1.829442 -0.79155,-2.389067 0.15311,-4.610527 0.95623,-2.252707 0.96489,-2.624844 0.0838,-3.457181 -0.80889,-0.761318 -1.22778,-0.786885 -2.29089,-0.159081 -1.06889,0.627803 -1.57445,0.582356 -2.84556,-0.255667 -0.84644,-0.559626 -2.32844,-1.022667 -3.28755,-1.022667 -1.95,0 -2.53934,-0.931761 -2.53934,-4.016805 0,-2.849259 -1.72755,-3.883293 -5.84133,-3.511156 -2.85422,0.258508 -3.484,0.07386 -5.78645,-1.670354 -1.42422,-1.076642 -3.67177,-3.667397 -5.00066,-5.763859 -1.32889,-2.096472 -2.75889,-4.286683 -3.17778,-4.866194 -0.60089,-0.838018 -0.45356,-1.641948 0.72222,-3.923062 l 1.48489,-2.869149 -3.13733,0.417588 c -5.58134,0.741434 -6.71089,1.451619 -4.31022,2.71859 0.936,0.491447 0.97644,0.744274 0.25422,1.565247 -0.47378,0.53406 -0.69623,1.383441 -0.49111,1.886253 0.20511,0.499974 -0.0549,1.681718 -0.57489,2.622003 -0.52289,0.943127 -0.95911,2.264071 -0.97645,2.943008 -0.0549,2.116351 -3.7411,3.800911 -7.84911,3.576492 -6.22266,-0.338048 -6.72822,-0.241463 -8.93821,1.775468 -2.76178,2.522573 -3.11712,3.695799 -1.83156,6.036569 1.24511,2.272593 3.458,3.178788 7.28866,2.9913 3.42622,-0.167603 3.81334,0.130675 3.03045,2.357813 -0.66734,1.891938 -2.90334,2.619163 -4.42,1.437415 -1.16712,-0.911874 -5.19134,-0.207374 -6.42489,1.127774 -0.51711,0.556786 -1.28556,2.022608 -1.70444,3.249812 -0.72223,2.119188 -0.93311,2.249862 -4.16867,2.556662 -3.22978,0.309641 -3.54178,0.207374 -5.86445,-1.897615 -2.59133,-2.346451 -3.03044,-4.1418 -1.78244,-7.232526 0.55467,-1.369237 0.96489,-1.593653 2.444,-1.326621 2.92933,0.525532 4.08489,-0.474406 4.08489,-3.550928 0,-1.491389 -0.29467,-2.886193 -0.65578,-3.096408 -0.35822,-0.210215 -0.65289,-0.999941 -0.65289,-1.758418 0,-0.758478 -0.36976,-1.735692 -0.81756,-2.164645 -0.65577,-0.624962 -0.56044,-0.960166 0.48534,-1.6874 0.71644,-0.497125 1.89511,-0.832337 2.61733,-0.747115 0.71933,0.08522 2.70978,-0.221578 4.42289,-0.678937 2.47578,-0.65621 3.20378,-1.153341 3.53889,-2.43451 0.63555,-2.431678 2.18689,-4.383268 3.48689,-4.383268 2.054,0 2.09733,-4.749718 0.10111,-11.6584 -0.29462,-1.019823 -1.10641,-1.667512 -2.53929,-2.016923 -1.16134,-0.284075 -2.42378,-1.062437 -2.80512,-1.732284 -0.37844,-0.669846 -1.07466,-1.215269 -1.54555,-1.215269 -0.47089,0 -1.39245,-0.554512 -2.04245,-1.231745 -0.65577,-0.681778 -2.01066,-1.231745 -3.042,-1.231745 -2.44111,0 -2.48155,-1.652743 -0.0607,-2.524282 2.55667,-0.921537 6.53756,0.286346 7.49956,2.27458 1.30289,2.696148 2.75022,1.571215 3.21533,-2.502124 0.5749,-5.038054 2.34289,-6.485979 7.91556,-6.485979 h 4.00689 L 62.07938,9.517577 C 61.5334,8.978974 61.07984,8.320774 60.76496,7.675357 Z M 81.5361,9.461914 c -0.11266,0.09999 -0.22244,0.181809 -0.33222,0.294018 -1.34045,1.345375 -1.97022,1.537123 -4.04156,1.226347 -3.61689,-0.542298 -3.15178,0.88972 0.85223,2.618879 2.16377,0.934887 3.55622,2.000733 4.02999,3.079079 2.28223,5.2031 3.85378,8.004354 4.64245,8.288429 1.59467,0.57667 2.54511,-0.580648 2.90044,-3.538995 0.40734,-3.394117 1.57445,-4.113678 3.67178,-2.258105 0.81467,0.720128 1.95289,1.309297 2.52778,1.309297 1.794,0 3.12,0.708197 3.12,1.664674 0,0.503947 0.60667,1.718364 1.34911,2.700976 1.09489,1.445938 1.83733,1.792507 3.88267,1.792507 2.51045,0 4.05022,0.463041 7.19333,2.170327 0.0491,0.02556 0.0982,0.0341 0.14733,0.05966 A 57.777777,56.814812 0 0 0 81.5361,9.461914 Z M 8.45588,63.941638 a 57.777777,56.814812 0 0 0 -0.0113,0.244303 57.777777,56.814812 0 0 0 1.1284,10.914127 c 2.09329,0.838017 2.67165,0.505651 2.88889,-1.409004 0.11238,-0.991423 0.63874,-2.113515 1.17376,-2.502696 0.82652,-0.599393 0.67746,-0.906193 -1.01572,-2.042489 -1.09604,-0.735752 -2.1762,-2.019767 -2.39807,-2.852104 C 10.00691,65.487009 9.28007,64.60638 8.45587,63.941641 Z m 18.18584,18.78014 c -0.54022,-0.05397 -1.19109,0.2301 -1.91331,0.911874 -1.52793,1.437415 -1.29711,4.326448 0.43449,5.468426 1.98438,1.309581 2.74993,0.928922 3.00127,-1.485703 0.30911,-2.9771 -0.33801,-4.772448 -1.52245,-4.894597 z m 9.80489,8.590397 c -0.58933,0.0197 -1.23933,0.43463 -1.88933,1.30958 -0.69045,0.92608 -0.87822,2.12203 -0.61533,3.93727 0.32644,2.23282 0.18489,2.71006 -1.00245,3.30947 -1.52822,0.766995 -1.85466,3.050935 -0.60378,4.227015 1.24223,1.17039 2.42667,0.86359 2.85423,-0.73859 0.60666,-2.28396 4.00688,-2.55099 6.32955,-0.49998 0.99089,0.87494 1.79978,1.3181 1.79978,0.98289 0,-0.3352 -1.03133,-1.55388 -2.29089,-2.70153 -1.92689,-1.761265 -2.28511,-2.511215 -2.28511,-4.778125 0,-3.19868 -0.99667,-5.08777 -2.29667,-5.048 z m -16.10237,7.33479 a 57.777777,56.814812 0 0 0 1.33726,1.658985 c -0.39375,-0.599385 -0.84326,-1.173215 -1.33726,-1.658985 z m 19.47082,8.721065 c -0.29179,0.0994 -0.41598,0.4602 -0.41598,1.09369 0,0.64201 -0.41598,1.31526 -0.92444,1.49707 -0.676,0.2443 -0.83201,1.01414 -0.572,2.8521 0.0491,0.34374 0.0635,0.61929 0.0809,0.9062 a 57.777777,56.814812 0 0 0 2.40356,1.21299 c -0.0405,-0.98289 0.1416,-2.13908 0.66445,-3.58785 0.88688,-2.46008 0.91866,-3.07653 0.19644,-3.50831 -0.676,-0.40339 -1.13822,-0.56532 -1.43289,-0.46589 z"
     id="path186" />
  <ellipse
     style="fill:#e1642d;fill-opacity:1;stroke-width:2.20361"
     cx="95.111"
     cy="79.111023"
     id="circle190-3"
     rx="20"
     ry="19.6665" />
  <path
     style="opacity:0.2;stroke-width:2.20362"
     d="m 93.222,59.550129 a 20,19.6665 0 0 0 -7.237996,2.064591 c 0.10102,0.314751 -0.01733,0.66984 -0.385022,0.983328 -0.248978,0.21218 -0.453,0.542696 -0.453,0.735624 0,0.5897 0.541996,1.495145 0.975,1.626714 0.574996,0.175032 0.382001,0.7784 -0.358,1.111747 -0.342,0.154361 -0.762995,0.598845 -0.934995,0.987259 -0.172978,0.389396 -0.427023,0.772893 -0.565005,0.852539 -0.136978,0.08063 -0.25,0.384457 -0.25,0.67653 0,0.408103 0.19,0.60573 0.813,0.850577 0.446,0.176037 0.98,0.303826 1.186996,0.28416 1.191004,-0.110136 1.274,0.572298 0.233022,1.905683 -0.553,0.707998 -0.819,0.88598 -1.195999,0.796497 -0.351024,-0.0826 -0.543,0.01487 -0.703001,0.356926 -0.168,0.362868 -0.444,0.485762 -1.185005,0.535912 C 82.433,73.368344 82.107,73.513919 81.833996,73.906244 81.633995,74.192413 81.346,74.424456 81.193,74.424456 c -0.153423,0 -0.5136,0.192732 -0.8008,0.426764 -0.5844,0.476908 -0.812605,0.525096 -1.017503,0.213404 -0.270799,-0.412997 -0.855097,-0.204532 -1.724599,0.614577 -0.769001,0.723728 -0.862098,0.917442 -0.746098,1.545787 0.2064,1.118041 0.823097,2.110216 1.527298,2.456346 0.614498,0.301859 0.626502,0.334331 0.25391,0.72176 -0.21431,0.223237 -0.582004,0.462163 -0.816399,0.531976 -0.677001,0.202564 -0.295912,0.456267 0.912102,0.607698 1.236396,0.154404 1.6206,0.594912 1.043001,1.195723 -0.32209,0.335336 -0.304001,0.398268 0.212888,0.716844 1.01,0.623429 1.813195,0.241899 0.865195,-0.411029 -0.609298,-0.419902 -0.1832,-0.590978 0.711005,-0.28617 0.712996,0.24286 0.854,0.229137 1.275,-0.130805 0.864996,-0.736509 1.805001,0.353037 1.013995,1.175075 -0.502995,0.524112 -0.351022,1.155406 0.301022,1.242918 0.288,0.03846 0.886001,0.301859 1.330001,0.586066 0.444,0.283197 0.928,0.516242 1.074,0.516242 0.146,0 0.558,0.288136 0.916,0.640148 0.726,0.71291 1.129,0.803377 1.334,0.300897 0.246,-0.603765 0.147022,-0.915475 -0.516,-1.626419 -0.527,-0.5664 -1.384,-2.070883 -1.384,-2.431762 0,-0.222232 0.871,-0.03321 1.359,0.293992 0.304977,0.205493 0.799,0.470029 1.097995,0.59 0.318045,0.127831 0.648005,0.525095 0.799,0.959724 0.235023,0.682428 0.328045,0.741428 1.160005,0.741428 h 0.904002 l 0.13698,1.597898 c 0.164,1.922401 0.32102,2.311802 0.992,2.470117 0.494,0.117037 1.021,0.869264 1.021,1.457287 0,0.156371 -0.35498,0.539846 -0.789,0.851559 -0.53801,0.386426 -0.77,0.714874 -0.734,1.036426 0.0448,0.402157 -0.048,0.465112 -0.627,0.422829 -0.372982,-0.02754 -1.021009,0.101305 -1.437008,0.28617 -0.492996,0.218298 -1.027001,0.288135 -1.527996,0.199593 -0.576,-0.101306 -0.771005,-0.06198 -0.771005,0.159299 0,0.163231 -0.202,0.468062 -0.447991,0.678491 -0.608,0.518224 -0.357022,0.792563 0.577,0.627365 0.58,-0.102263 0.806,-0.05706 0.906,0.188795 0.212978,0.522147 -0.326978,1.269472 -0.828004,1.146557 -0.318,-0.07866 -0.469996,0.02843 -0.569,0.397264 -0.03377,0.130802 -0.09698,0.241899 -0.172,0.336296 A 20,19.6665 0 0 0 91.172,98.390998 c -0.09996,-0.187797 -0.214,-0.358895 -0.324978,-0.435635 -0.515,-0.357927 -0.17,-1.288159 0.539001,-1.455313 0.722997,-0.171098 0.609,-0.632286 -0.177023,-0.720784 -0.689,-0.07672 -1.422,-0.763057 -1.192,-1.114106 0.154978,-0.23499 0.814,-0.200597 2.147,0.110139 0.602,0.139635 1.013,-0.141601 2.408,-1.642153 0.807,-0.869259 1.428,-1.231124 2.109,-1.231124 0.26,0 1.187,-0.234992 2.061,-0.522148 1.65,-0.54378 2.295,-0.524114 2.234,0.06883 -0.126,1.233089 0.681,1.19179 1.996,-0.100297 0.548,-0.537875 1.049,-0.927272 1.114,-0.866309 0.25098,0.236959 -0.20098,1.390422 -0.729,1.8575 -0.669,0.591958 -0.702,0.965626 -0.11302,1.261603 0.322,0.163231 0.459,0.49265 0.51,1.233086 l 0.068,1.010865 h 0.836 c 0.29302,0 0.536,0.03933 0.732,0.113063 a 20,19.6665 0 0 0 9.68999,-16.230762 c -0.306,-0.64309 -0.28399,-1.031503 0,-1.469087 a 20,19.6665 0 0 0 -0.09,-1.102303 c -0.18199,-0.0088 -0.36799,-0.01705 -0.582,-0.0078 -1.008,0.04152 -1.87099,-0.349058 -1.87099,-0.846638 0,-0.10519 -0.35801,-0.538867 -0.795,-0.96268 -0.49601,-0.479862 -0.75,-0.904663 -0.67601,-1.124925 0.068,-0.200597 -0.078,-0.524116 -0.336,-0.743393 -0.25098,-0.214365 -0.457,-0.558528 -0.457,-0.765026 0,-0.329392 -0.21298,-0.370736 -1.754,-0.334331 l -1.75399,0.04238 0.0298,1.700169 c 0.052,2.977508 0.503,3.750401 1.89401,3.251855 0.63699,-0.229092 2.202,-0.05603 2.64699,0.291065 0.16102,0.125821 0.394,0.582128 0.517,1.014792 0.124,0.431657 0.582,1.179985 1.02,1.660835 0.88601,0.975458 0.955,1.356001 0.447,2.500595 -0.44303,0.999058 -0.92101,0.884014 -0.826,-0.199593 l 0.07,-0.806326 -0.75,0.137666 c -0.41503,0.07767 -0.935,0.378601 -1.16799,0.676527 -0.33201,0.423791 -0.48701,0.485767 -0.73601,0.292026 -0.174,-0.135699 -0.31499,-0.421825 -0.31499,-0.634254 0,-0.212398 -0.21399,-0.448396 -0.474,-0.526074 -0.26097,-0.07767 -0.618,-0.464134 -0.79299,-0.860409 -0.28102,-0.633262 -0.274,-0.82698 0.0531,-1.595941 0.33103,-0.779777 0.334,-0.908588 0.0289,-1.196702 -0.28001,-0.263532 -0.42502,-0.272361 -0.79301,-0.05506 -0.37,0.217294 -0.54499,0.201604 -0.98499,-0.08846 -0.29302,-0.193738 -0.80601,-0.353998 -1.138,-0.353998 -0.67501,0 -0.87901,-0.322531 -0.87901,-1.390417 0,-0.986278 -0.598,-1.344205 -2.022,-1.215394 -0.988,0.08951 -1.20599,0.02535 -2.00299,-0.578195 -0.493,-0.372702 -1.271,-1.269472 -1.731,-1.995166 -0.46001,-0.725694 -0.95501,-1.483837 -1.1,-1.684436 -0.208,-0.29006 -0.15702,-0.568366 0.25,-1.357972 l 0.514,-0.993158 -1.086,0.14457 c -1.932,0.256626 -2.323,0.50248 -1.492,0.941042 0.324,0.170093 0.338,0.257632 0.088,0.541812 -0.164,0.184866 -0.24098,0.47888 -0.17,0.652929 0.071,0.173021 -0.0191,0.582128 -0.19897,0.907608 -0.18103,0.326465 -0.33201,0.783711 -0.33805,1.018725 -0.0191,0.732578 -1.295,1.315689 -2.717,1.238006 -2.153999,-0.117037 -2.329,-0.08361 -3.094,0.614578 -0.955999,0.873193 -1.078999,1.279306 -0.634,2.089567 0.430978,0.786659 1.197,1.10034 2.523,1.035444 1.186,-0.05799 1.32,0.04524 1.049,0.816156 -0.23098,0.654894 -1.004999,0.906626 -1.529999,0.497563 -0.403956,-0.31567 -1.797,-0.07181 -2.224001,0.390401 -0.179022,0.192732 -0.445005,0.700128 -0.589999,1.124924 -0.250001,0.733561 -0.323023,0.778798 -1.443,0.884992 -1.118001,0.107164 -1.226001,0.07181 -2.030001,-0.656861 -0.897,-0.812225 -1.049,-1.433684 -0.617004,-2.503545 0.192,-0.473963 0.334,-0.551646 0.846004,-0.459208 1.014,0.181893 1.414001,-0.164237 1.414001,-1.22916 0,-0.516246 -0.102,-0.999055 -0.227023,-1.07182 -0.124,-0.07276 -0.226,-0.346131 -0.226,-0.608684 0,-0.262526 -0.128,-0.600811 -0.283023,-0.749293 -0.227021,-0.216331 -0.193999,-0.332364 0.168,-0.58409 0.248001,-0.172105 0.656001,-0.288138 0.906,-0.258638 0.248978,0.02928 0.938001,-0.0767 1.531001,-0.234992 0.856999,-0.227126 1.108999,-0.399229 1.225,-0.842709 0.219999,-0.841728 0.756999,-1.517271 1.206999,-1.517271 0.711,0 0.726,-1.644119 0.03467,-4.035567 -0.102,-0.353035 -0.382977,-0.577211 -0.879004,-0.69816 -0.402,-0.09829 -0.839,-0.367763 -0.971,-0.599631 -0.131023,-0.231889 -0.372,-0.420688 -0.535,-0.420688 -0.162978,0 -0.481995,-0.191946 -0.707,-0.42637 -0.227023,-0.235998 -0.696,-0.426371 -1.053,-0.426371 -0.845001,0 -0.859,-0.572091 -0.02088,-0.873775 0.885001,-0.318991 2.263001,0.09911 2.596001,0.787344 0.450977,0.933275 0.951999,0.543878 1.113,-0.866106 0.199022,-1.743929 0.810999,-2.245132 2.739998,-2.245132 h 1.387 l -0.60801,-0.597324 c -0.18903,-0.186439 -0.34596,-0.414265 -0.455,-0.637689 z m 7.19001,0.618416 c -0.0391,0.03453 -0.077,0.06293 -0.11499,0.101784 -0.46399,0.465703 -0.682,0.532075 -1.399,0.424491 -1.252,-0.187706 -1.091,0.307977 0.29503,0.906525 0.749,0.323623 1.231,0.692553 1.395,1.065824 0.79,1.801056 1.334,2.770715 1.607,2.869046 0.552,0.199593 0.881,-0.200991 1.004,-1.225025 0.14102,-1.174875 0.545,-1.423953 1.271,-0.781645 0.282,0.249283 0.676,0.45321 0.875,0.45321 0.621,0 1.08,0.245175 1.08,0.576233 0,0.174464 0.21,0.594811 0.467,0.934946 0.37901,0.500512 0.636,0.620477 1.344,0.620477 0.86899,0 1.402,0.160261 2.49,0.751256 0.0173,0.0088 0.0338,0.0118 0.051,0.02054 a 20,19.6665 0 0 0 -10.36504,-6.717844 z m -25.297006,18.85821 a 20,19.6665 0 0 0 -0.004,0.08457 20,19.6665 0 0 0 0.390578,3.777936 c 0.724595,0.290102 0.924796,0.175032 0.999995,-0.487729 0.03912,-0.343203 0.221067,-0.731594 0.406267,-0.866306 0.28609,-0.207459 0.234533,-0.313703 -0.3516,-0.707015 -0.379422,-0.254659 -0.753297,-0.69914 -0.830102,-0.987258 -0.0744,-0.279264 -0.326,-0.584094 -0.611298,-0.814188 z m 6.295099,6.500756 c -0.187023,-0.01879 -0.412312,0.07967 -0.662299,0.31567 -0.528902,0.497563 -0.448991,1.497609 0.150401,1.892905 0.686902,0.453312 0.951902,0.321525 1.038902,-0.514284 0.106973,-1.030523 -0.116978,-1.651982 -0.527001,-1.694269 z m 3.393999,2.97358 c -0.204044,0.0066 -0.428978,0.150427 -0.654,0.453312 -0.238978,0.320565 -0.304,0.734541 -0.212978,1.362889 0.113019,0.772889 0.064,0.938088 -0.347022,1.145569 -0.529,0.265498 -0.642,1.056096 -0.209022,1.463187 0.43,0.405131 0.84,0.298932 0.988,-0.255664 0.21,-0.790597 1.387001,-0.883026 2.191001,-0.173021 0.342977,0.302864 0.622999,0.456259 0.622999,0.340231 0,-0.116033 -0.357022,-0.537879 -0.793,-0.935143 -0.666999,-0.609662 -0.790995,-0.869263 -0.790995,-1.653956 0,-1.10722 -0.344978,-1.761132 -0.795005,-1.747364 z m -5.573897,2.538944 a 20,19.6665 0 0 0 0.462897,0.574258 c -0.136311,-0.207459 -0.291866,-0.406091 -0.462897,-0.574258 z m 6.739897,3.018804 c -0.101019,0.03409 -0.144,0.159298 -0.144,0.378559 0,0.22223 -0.144,0.455284 -0.32,0.518219 -0.234,0.08457 -0.288,0.351019 -0.198,0.987258 0.01733,0.119003 0.02222,0.214358 0.028,0.313697 a 20,19.6665 0 0 0 0.831999,0.419863 c -0.01423,-0.340188 0.04898,-0.740438 0.230001,-1.241942 0.306977,-0.851559 0.318,-1.064937 0.068,-1.214402 -0.234,-0.139632 -0.393955,-0.195703 -0.496,-0.161264 z"
     id="path192-5" />
  <path
     id="circle2-6-9"
     style="opacity:0.4;fill:url(#linearGradient5-9);stroke-width:0.114342"
     d="m 115.111,79.111022 a 19.999998,19.6665 0 0 1 -20,19.666501 19.999998,19.6665 0 0 1 -20,-19.666501 19.999998,19.6665 0 0 1 20,-19.666499 19.999998,19.6665 0 0 1 20,19.666499 z" />
  <ellipse
     style="fill:url(#radialGradient1041);fill-opacity:1;stroke-width:2.20363"
     cx="95.110992"
     cy="75.111023"
     id="circle190"
     rx="20.000002"
     ry="19.666668" />
  <path
     style="opacity:0.2;stroke-width:2.20363"
     d="m 93.222,55.54996 a 20,19.666667 0 0 0 -7.238,2.064608 c 0.10102,0.314753 -0.0173,0.669846 -0.38502,0.983337 -0.24898,0.212182 -0.453,0.5427 -0.453,0.73563 0,0.589705 0.54199,1.495157 0.975,1.626727 0.57499,0.175034 0.382,0.778407 -0.358,1.111757 -0.342,0.154362 -0.763,0.59885 -0.935,0.987267 -0.17298,0.3894 -0.42702,0.7729 -0.565,0.852546 -0.13698,0.08064 -0.25,0.384461 -0.25,0.676537 0,0.408105 0.19,0.605734 0.813,0.850584 0.446,0.176038 0.98,0.303828 1.18699,0.284162 1.19101,-0.110137 1.274,0.572303 0.23302,1.905699 -0.553,0.708004 -0.819,0.885988 -1.196,0.796504 -0.35102,-0.0826 -0.543,0.01486 -0.703,0.356929 -0.168,0.362871 -0.444,0.485766 -1.185,0.535916 -0.729,0.05013 -1.055,0.195705 -1.328,0.588034 -0.2,0.286171 -0.488,0.518216 -0.641,0.518216 -0.15342,0 -0.5136,0.192734 -0.8008,0.426767 -0.5844,0.476912 -0.8126,0.5251 -1.0175,0.213406 -0.2708,-0.413 -0.8551,-0.204534 -1.7246,0.614582 -0.769,0.723734 -0.8621,0.91745 -0.7461,1.5458 0.2064,1.11805 0.8231,2.110234 1.5273,2.456368 0.6145,0.301861 0.6265,0.334332 0.25391,0.721766 -0.21431,0.223238 -0.582,0.462166 -0.8164,0.531979 -0.677,0.202566 -0.29591,0.456271 0.9121,0.607705 1.2364,0.154404 1.6206,0.594916 1.04301,1.195732 -0.32209,0.335339 -0.304,0.398272 0.21288,0.71685 1.01,0.623434 1.8132,0.2419 0.8652,-0.411032 -0.6093,-0.419906 -0.1832,-0.590984 0.711,-0.286173 0.713,0.242862 0.854,0.229139 1.275,-0.130805 0.865,-0.736517 1.805,0.353039 1.014,1.175083 -0.503,0.524117 -0.35102,1.155417 0.30102,1.24293 0.288,0.03846 0.886,0.301861 1.33,0.58607 0.444,0.2832 0.928,0.516246 1.074,0.516246 0.146,0 0.558,0.288139 0.916,0.640154 0.726,0.712917 1.129,0.803384 1.334,0.3009 0.246,-0.60377 0.14702,-0.915483 -0.516,-1.626433 -0.527,-0.566405 -1.384,-2.0709 -1.384,-2.431783 0,-0.222234 0.871,-0.03321 1.359,0.293995 0.30498,0.205495 0.799,0.470032 1.098,0.590004 0.31804,0.127833 0.648,0.5251 0.799,0.959733 0.23502,0.682434 0.32804,0.741434 1.16,0.741434 h 0.904 l 0.13698,1.597911 c 0.164,1.922418 0.32102,2.311822 0.992,2.470139 0.494,0.117038 1.021,0.869271 1.021,1.4573 0,0.156371 -0.35498,0.53985 -0.789,0.851566 -0.53801,0.386429 -0.77,0.714879 -0.734,1.036434 0.0448,0.402161 -0.048,0.465116 -0.627,0.422832 -0.37298,-0.02754 -1.021,0.10131 -1.437,0.286173 -0.493,0.2183 -1.027,0.288138 -1.528,0.199595 -0.576,-0.10131 -0.771,-0.06197 -0.771,0.1593 0,0.163232 -0.20201,0.468066 -0.448,0.6785 -0.608,0.518224 -0.35702,0.792564 0.577,0.627364 0.58,-0.10226 0.806,-0.057 0.906,0.1888 0.21298,0.52215 -0.32697,1.26949 -0.828,1.14657 -0.318,-0.0787 -0.47,0.0284 -0.569,0.39727 -0.0338,0.1308 -0.097,0.2419 -0.172,0.3363 a 20,19.666667 0 0 0 3.165,0.91941 c -0.0999,-0.18779 -0.214,-0.35889 -0.32497,-0.43564 -0.515,-0.35793 -0.17,-1.28816 0.539,-1.45532 0.723,-0.1711 0.609,-0.63229 -0.17703,-0.72079 -0.689,-0.0767 -1.422,-0.76306 -1.192,-1.114115 0.15498,-0.234995 0.814,-0.2006 2.147,0.110137 0.602,0.139634 1.013,-0.1416 2.408,-1.642166 0.807,-0.869266 1.428,-1.231134 2.109,-1.231134 0.26,0 1.187,-0.234995 2.061,-0.522153 1.65,-0.543784 2.295,-0.524118 2.234,0.06884 -0.126,1.2331 0.681,1.1918 1.996,-0.1003 0.548,-0.537879 1.049,-0.927279 1.114,-0.866316 0.25098,0.236961 -0.20097,1.390433 -0.729,1.857516 -0.669,0.591963 -0.702,0.965634 -0.11301,1.261613 0.322,0.163232 0.459,0.492654 0.51,1.2331 l 0.068,1.010868 h 0.836 c 0.29302,0 0.536,0.0393 0.732,0.11306 a 20,19.666667 0 0 0 9.69,-16.230893 c -0.306,-0.643096 -0.284,-1.031512 0,-1.4691 a 20,19.666667 0 0 0 -0.09,-1.102312 c -0.182,-0.0087 -0.368,-0.01704 -0.582,-0.0078 -1.008,0.04152 -1.871,-0.349062 -1.871,-0.846645 0,-0.10519 -0.358,-0.538872 -0.795,-0.962688 -0.496,-0.479867 -0.75,-0.904671 -0.676,-1.124934 0.068,-0.2006 -0.078,-0.524121 -0.336,-0.7434 -0.25099,-0.214367 -0.45701,-0.558533 -0.45701,-0.765033 0,-0.329395 -0.21298,-0.370739 -1.75399,-0.334334 l -1.754,0.04239 0.0298,1.700183 c 0.052,2.977533 0.50299,3.750433 1.894,3.251883 0.63699,-0.229095 2.202,-0.05603 2.64699,0.291067 0.16102,0.125823 0.39401,0.582133 0.51701,1.0148 0.12399,0.431662 0.582,1.179996 1.02,1.660851 0.886,0.975466 0.95499,1.356011 0.447,2.500616 -0.44303,0.999066 -0.92101,0.884021 -0.82601,-0.199595 l 0.07,-0.806334 -0.75,0.137668 c -0.41502,0.07766 -0.93499,0.378604 -1.16799,0.676532 -0.33201,0.423795 -0.487,0.485771 -0.736,0.292029 -0.174,-0.1357 -0.31499,-0.421829 -0.31499,-0.634259 0,-0.2124 -0.21399,-0.4484 -0.474,-0.526079 -0.26098,-0.07766 -0.618,-0.464138 -0.79299,-0.860417 -0.28102,-0.633266 -0.27401,-0.826987 0.0531,-1.595954 0.33103,-0.779783 0.33401,-0.908596 0.0288,-1.196712 -0.28,-0.263534 -0.42502,-0.272362 -0.793,-0.05506 -0.37001,0.217296 -0.545,0.201605 -0.985,-0.08846 -0.29302,-0.193739 -0.806,-0.354 -1.138,-0.354 -0.675,0 -0.879,-0.322533 -0.879,-1.390429 0,-0.986287 -0.598,-1.344216 -2.022,-1.215404 -0.988,0.08951 -1.206,0.02535 -2.003,-0.5782 -0.493,-0.372706 -1.271,-1.269483 -1.731,-1.995183 -0.46,-0.7257 -0.955,-1.48385 -1.1,-1.68445 -0.208,-0.290062 -0.15702,-0.568371 0.25,-1.357984 l 0.514,-0.993166 -1.08599,0.144572 c -1.93201,0.256628 -2.32301,0.502483 -1.49201,0.94105 0.324,0.170094 0.338,0.257633 0.088,0.541816 -0.164,0.184867 -0.24098,0.478884 -0.17,0.652934 0.071,0.173023 -0.0191,0.582133 -0.19898,0.907616 -0.18102,0.326467 -0.332,0.783717 -0.33805,1.018734 -0.0191,0.732583 -1.295,1.3157 -2.717,1.238016 -2.154,-0.117038 -2.329,-0.08361 -3.094,0.614584 -0.956,0.8732 -1.079,1.279316 -0.634,2.089583 0.43098,0.786667 1.197,1.10035 2.523,1.035454 1.186,-0.05799 1.32,0.04524 1.049,0.816163 -0.23097,0.6549 -1.005,0.906633 -1.53,0.497566 -0.40395,-0.315672 -1.797,-0.07181 -2.224,0.390405 -0.17902,0.192734 -0.445,0.700134 -0.59,1.124934 -0.25,0.733566 -0.32302,0.778805 -1.443,0.885 -1.118,0.107164 -1.226,0.07181 -2.03,-0.656867 -0.897,-0.812233 -1.049,-1.433696 -0.617,-2.503567 0.192,-0.473966 0.334,-0.55165 0.846,-0.459211 1.014,0.181894 1.414,-0.164239 1.414,-1.229171 0,-0.51625 -0.102,-0.999063 -0.22702,-1.07183 -0.124,-0.07276 -0.226,-0.346133 -0.226,-0.608688 0,-0.262528 -0.128,-0.600816 -0.28302,-0.7493 -0.22702,-0.216332 -0.194,-0.332366 0.168,-0.584095 0.248,-0.172106 0.656,-0.288139 0.906,-0.258639 0.24898,0.02928 0.938,-0.0767 1.531,-0.234995 0.857,-0.227127 1.109,-0.399233 1.225,-0.842716 0.22,-0.841734 0.757,-1.517284 1.207,-1.517284 0.711,0 0.726,-1.644133 0.0347,-4.0356 -0.102,-0.353038 -0.38298,-0.577216 -0.879,-0.698166 -0.402,-0.09829 -0.839,-0.367767 -0.971,-0.599637 -0.13102,-0.231891 -0.372,-0.420691 -0.535,-0.420691 -0.16298,0 -0.482,-0.191948 -0.707,-0.426374 -0.22702,-0.236 -0.696,-0.426374 -1.053,-0.426374 -0.845,0 -0.859,-0.572097 -0.0209,-0.873783 0.885,-0.318994 2.263,0.09912 2.596,0.787351 0.45098,0.933283 0.952,0.543883 1.113,-0.866114 0.19903,-1.743943 0.811,-2.24515 2.74,-2.24515 h 1.387 l -0.60801,-0.59733 c -0.18902,-0.18644 -0.34596,-0.414267 -0.455,-0.637694 z m 7.19,0.618421 c -0.0391,0.03453 -0.077,0.06294 -0.11498,0.101786 -0.464,0.465707 -0.682,0.532079 -1.399,0.424494 -1.252,-0.187707 -1.091,0.30798 0.29502,0.906533 0.749,0.323626 1.231,0.692559 1.395,1.065833 0.79,1.801071 1.334,2.770738 1.607,2.869071 0.552,0.199595 0.881,-0.200993 1.004,-1.225036 0.14102,-1.174884 0.545,-1.423965 1.271,-0.781652 0.282,0.249286 0.676,0.453213 0.875,0.453213 0.62101,0 1.08001,0.245178 1.08001,0.576239 0,0.174465 0.21,0.594816 0.46699,0.934953 0.37902,0.500517 0.636,0.620483 1.344,0.620483 0.869,0 1.40201,0.160262 2.49,0.751263 0.0173,0.0087 0.0338,0.0118 0.051,0.02054 A 20,19.666667 0 0 0 100.41201,56.168202 Z M 75.115,75.02675 a 20,19.666667 0 0 0 -0.004,0.08456 20,19.666667 0 0 0 0.39058,3.777967 c 0.72459,0.290104 0.92479,0.175033 0.99999,-0.487733 0.0391,-0.343206 0.22107,-0.7316 0.40627,-0.866313 0.28609,-0.207461 0.23453,-0.313706 -0.3516,-0.707021 -0.37942,-0.254661 -0.7533,-0.699146 -0.8301,-0.987266 -0.0744,-0.279267 -0.326,-0.5841 -0.6113,-0.814196 z m 6.2951,6.500812 c -0.18703,-0.01879 -0.41232,0.07967 -0.6623,0.315672 -0.5289,0.497567 -0.44899,1.497621 0.1504,1.892921 0.6869,0.453317 0.9519,0.321528 1.0389,-0.514288 0.10697,-1.030533 -0.11698,-1.651995 -0.527,-1.694283 z m 3.394,2.973604 c -0.20405,0.0066 -0.42898,0.150429 -0.654,0.453317 -0.23898,0.320567 -0.304,0.734546 -0.21298,1.3629 0.11302,0.772896 0.064,0.938096 -0.34702,1.145579 -0.529,0.2655 -0.642,1.056104 -0.20903,1.4632 0.43,0.405134 0.84,0.298934 0.988,-0.255666 0.21,-0.790605 1.387,-0.883034 2.191,-0.173024 0.34298,0.302867 0.623,0.456263 0.623,0.340234 0,-0.116034 -0.35702,-0.537884 -0.793,-0.93515 -0.667,-0.609667 -0.79099,-0.869271 -0.79099,-1.653971 0,-1.107229 -0.34498,-1.761146 -0.79501,-1.747379 z m -5.5739,2.538967 a 20,19.666667 0 0 0 0.4629,0.574263 c -0.13631,-0.207461 -0.29187,-0.406095 -0.4629,-0.574263 z m 6.7399,3.018829 c -0.10102,0.0341 -0.144,0.1593 -0.144,0.378562 0,0.222233 -0.144,0.455287 -0.32,0.518221 -0.234,0.08456 -0.288,0.35103 -0.198,0.98727 0.0173,0.119 0.0222,0.21436 0.028,0.3137 a 20,19.666667 0 0 0 0.832,0.41986 c -0.0142,-0.34019 0.049,-0.74044 0.23,-1.24194 0.30698,-0.851574 0.318,-1.064953 0.068,-1.214419 -0.234,-0.139634 -0.39396,-0.195706 -0.496,-0.161267 z"
     id="path192" />
</svg>
