<svg width="128" height="128" viewBox="0 0 128 128" fill="none" xmlns="http://www.w3.org/2000/svg">
<mask id="mask0_13_138" style="mask-type:alpha" maskUnits="userSpaceOnUse" x="12" y="10" width="107" height="116">
<path fill-rule="evenodd" clip-rule="evenodd" d="M12 10H118.429V125.673H12V10ZM99.9426 17.0287H108.159C109.911 17.0287 111.333 18.5585 111.333 20.4427C111.333 22.3269 109.911 23.8567 108.159 23.8567H99.9426C98.1906 23.8567 96.7682 22.3269 96.7682 20.4427C96.7682 18.5585 98.1906 17.0287 99.9426 17.0287ZM21.7037 17.0287H29.9197C31.6716 17.0287 33.094 18.5585 33.094 20.4427C33.094 22.3269 31.6716 23.8567 29.9197 23.8567H21.7037C19.9517 23.8567 18.5292 22.3269 18.5292 20.4427C18.5292 18.5585 19.9517 17.0287 21.7037 17.0287ZM59.7962 19.8402C59.7962 17.0693 61.8879 14.8197 64.4643 14.8197C67.0408 14.8197 69.1326 17.0693 69.1326 19.8402C69.1326 22.6111 67.0408 24.8607 64.4643 24.8607C61.8879 24.8607 59.7962 22.6111 59.7962 19.8402Z" fill="#579C3B"/>
</mask>
<g mask="url(#mask0_13_138)">
<path d="M108.807 12.6066H20.8071C16.3888 12.6066 12.8071 16.1883 12.8071 20.6066V104.607C12.8071 109.025 16.3888 112.607 20.8071 112.607H108.807C113.225 112.607 116.807 109.025 116.807 104.607V20.6066C116.807 16.1883 113.225 12.6066 108.807 12.6066Z" fill="#45822D"/>
</g>
<mask id="mask1_13_138" style="mask-type:alpha" maskUnits="userSpaceOnUse" x="12" y="8" width="107" height="117">
<path fill-rule="evenodd" clip-rule="evenodd" d="M12.1929 8.39343H118.622V124.066H12.1929V8.39343ZM100.136 15.4221H108.352C110.104 15.4221 111.526 16.9519 111.526 18.8361C111.526 20.7204 110.104 22.2501 108.352 22.2501H100.136C98.3836 22.2501 96.9612 20.7204 96.9612 18.8361C96.9612 16.9519 98.3836 15.4221 100.136 15.4221ZM21.8966 15.4221H30.1126C31.8645 15.4221 33.2869 16.9519 33.2869 18.8361C33.2869 20.7204 31.8645 22.2501 30.1126 22.2501H21.8966C20.1446 22.2501 18.7222 20.7204 18.7222 18.8361C18.7222 16.9519 20.1446 15.4221 21.8966 15.4221ZM59.9891 18.2336C59.9891 15.4628 62.0808 13.2132 64.6572 13.2132C67.2337 13.2132 69.3255 15.4628 69.3255 18.2336C69.3255 21.0046 67.2337 23.2542 64.6572 23.2542C62.0808 23.2542 59.9891 21.0046 59.9891 18.2336Z" fill="#579C3B"/>
</mask>
<g mask="url(#mask1_13_138)">
<path d="M117 108.846V19.1538C117 14.6506 113.275 11 108.68 11L21.32 11C16.725 11 13 14.6506 13 19.1538V108.846C13 113.349 16.725 117 21.32 117H108.68C113.275 117 117 113.349 117 108.846Z" fill="url(#paint0_linear_13_138)"/>
<path d="M109 11H21C16.5817 11 13 14.5817 13 19V103C13 107.418 16.5817 111 21 111H109C113.418 111 117 107.418 117 103V19C117 14.5817 113.418 11 109 11Z" fill="#579C3B"/>
<path fill-rule="evenodd" clip-rule="evenodd" d="M13 55.5001C13 38.6667 26.6667 25 43.5 25C60.3333 25 74 38.6667 74 55.5001C74 72.3334 60.3333 86 43.5 86C26.6667 86 13 72.3334 13 55.5001ZM20.859 55.5001C20.859 43.0041 31.0041 32.859 43.5 32.859C55.9959 32.859 66.141 43.0041 66.141 55.5001C66.141 67.996 55.9959 78.1411 43.5 78.1411C31.0041 78.1411 20.859 67.996 20.859 55.5001Z" fill="white"/>
<path d="M117 39H69V48H117V39Z" fill="white"/>
<path d="M99 46H90V111H99V46Z" fill="white"/>
</g>
<defs>
<linearGradient id="paint0_linear_13_138" x1="117" y1="64" x2="13" y2="64" gradientUnits="userSpaceOnUse">
<stop offset="0.015625" stop-color="#45822D"/>
<stop offset="0.0729167" stop-color="#73B45A"/>
<stop offset="0.145833" stop-color="#45822D"/>
<stop offset="0.828125" stop-color="#45822D"/>
<stop offset="0.890625" stop-color="#73B45A"/>
<stop offset="0.947917" stop-color="#45822D"/>
</linearGradient>
</defs>
</svg>
