<?xml version="1.0" encoding="UTF-8" standalone="no"?>
<!-- Created with Inkscape (http://www.inkscape.org/) -->

<svg
   version="1.1"
   width="128"
   height="138"
   viewBox="0 0 128 138"
   id="svg2"
   xml:space="preserve"
   xmlns:xlink="http://www.w3.org/1999/xlink"
   xmlns="http://www.w3.org/2000/svg"
   xmlns:svg="http://www.w3.org/2000/svg"
   xmlns:rdf="http://www.w3.org/1999/02/22-rdf-syntax-ns#"
   xmlns:cc="http://creativecommons.org/ns#"
   xmlns:dc="http://purl.org/dc/elements/1.1/"><metadata
   id="metadata28"><rdf:RDF><cc:Work
       rdf:about=""><dc:format>image/svg+xml</dc:format><dc:type
         rdf:resource="http://purl.org/dc/dcmitype/StillImage" /></cc:Work></rdf:RDF></metadata><defs
   id="defs26"><linearGradient
   id="linearGradient1282"><stop
     style="stop-color:#990000;stop-opacity:1;"
     offset="0"
     id="stop1278" /><stop
     style="stop-color:#ff0000;stop-opacity:1;"
     offset="0.06846728"
     id="stop1286" /><stop
     style="stop-color:#990000;stop-opacity:1;"
     offset="0.14553478"
     id="stop1288" /><stop
     style="stop-color:#990000;stop-opacity:1;"
     offset="0.60103375"
     id="stop1432" /><stop
     style="stop-color:#ff0000;stop-opacity:1;"
     offset="0.67373639"
     id="stop1434" /><stop
     style="stop-color:#990000;stop-opacity:1;"
     offset="0.75364995"
     id="stop1436" /><stop
     style="stop-color:#990000;stop-opacity:1;"
     offset="0.85140061"
     id="stop1290" /><stop
     style="stop-color:#ff0000;stop-opacity:1;"
     offset="0.9262237"
     id="stop1292" /><stop
     style="stop-color:#990000;stop-opacity:1;"
     offset="1"
     id="stop1280" /></linearGradient><linearGradient
   id="linearGradient915"><stop
     style="stop-color:#997f00;stop-opacity:1;"
     offset="0"
     id="stop911" /><stop
     style="stop-color:#ffd300;stop-opacity:1;"
     offset="0.06819751"
     id="stop919" /><stop
     style="stop-color:#997f00;stop-opacity:1;"
     offset="0.1517071"
     id="stop921" /><stop
     style="stop-color:#997f00;stop-opacity:1;"
     offset="0.44909465"
     id="stop1203" /><stop
     style="stop-color:#ffd300;stop-opacity:1;"
     offset="0.52303016"
     id="stop1205" /><stop
     style="stop-color:#997f00;stop-opacity:1;"
     offset="0.60196847"
     id="stop1207" /><stop
     style="stop-color:#997f00;stop-opacity:1;"
     offset="0.84700882"
     id="stop923" /><stop
     style="stop-color:#ffd300;stop-opacity:1;"
     offset="0.92829549"
     id="stop925" /><stop
     style="stop-color:#997f00;stop-opacity:1;"
     offset="1"
     id="stop913" /></linearGradient><linearGradient
   id="linearGradient2776"><stop
     id="stop2772"
     style="stop-color:#cca900;stop-opacity:1;"
     offset="0" /><stop
     id="stop2774"
     style="stop-color:#6b4c00;stop-opacity:1;"
     offset="1" /></linearGradient><linearGradient
   id="linearGradient2725"><stop
     id="stop2721"
     style="stop-color:#990000;stop-opacity:1;"
     offset="0" /><stop
     id="stop2723"
     style="stop-color:#330000;stop-opacity:1;"
     offset="1" /></linearGradient><linearGradient
   id="linearGradient3799"><stop
     id="stop3801"
     style="stop-color:#ff0000;stop-opacity:1"
     offset="0" /><stop
     id="stop3803"
     style="stop-color:#440000;stop-opacity:1"
     offset="1" /></linearGradient><linearGradient
   id="linearGradient3777"><stop
     id="stop3779"
     style="stop-color:#ffd300;stop-opacity:1"
     offset="0" /><stop
     id="stop3781"
     style="stop-color:#a07100;stop-opacity:1"
     offset="1" /></linearGradient><linearGradient
   id="linearGradient3767"><stop
     id="stop3769"
     style="stop-color:#000000;stop-opacity:1"
     offset="0" /></linearGradient><linearGradient
   id="linearGradient3761"><stop
     id="stop3763"
     style="stop-color:#ffd300;stop-opacity:1"
     offset="0" /></linearGradient><linearGradient
   x1="16"
   y1="126"
   x2="225"
   y2="126"
   id="linearGradient3797"
   xlink:href="#linearGradient3777"
   gradientUnits="userSpaceOnUse" /><linearGradient
   x1="-21"
   y1="128.5"
   x2="279"
   y2="128.5"
   id="linearGradient3805"
   xlink:href="#linearGradient3799"
   gradientUnits="userSpaceOnUse" /><linearGradient
   x1="16"
   y1="126"
   x2="225"
   y2="126"
   id="linearGradient3833"
   xlink:href="#linearGradient3777"
   gradientUnits="userSpaceOnUse" /><linearGradient
   x1="16"
   y1="126"
   x2="225"
   y2="126"
   id="linearGradient3835"
   xlink:href="#linearGradient3777"
   gradientUnits="userSpaceOnUse" /><linearGradient
   x1="16"
   y1="126"
   x2="225"
   y2="126"
   id="linearGradient3837"
   xlink:href="#linearGradient3777"
   gradientUnits="userSpaceOnUse" /><linearGradient
   x1="16"
   y1="126"
   x2="225"
   y2="126"
   id="linearGradient3839"
   xlink:href="#linearGradient3777"
   gradientUnits="userSpaceOnUse" /><linearGradient
   x1="16"
   y1="126"
   x2="225"
   y2="126"
   id="linearGradient3841"
   xlink:href="#linearGradient3777"
   gradientUnits="userSpaceOnUse" /><linearGradient
   x1="16"
   y1="126"
   x2="225"
   y2="126"
   id="linearGradient3843"
   xlink:href="#linearGradient3777"
   gradientUnits="userSpaceOnUse" /><linearGradient
   x1="16"
   y1="126"
   x2="225"
   y2="126"
   id="linearGradient3845"
   xlink:href="#linearGradient3777"
   gradientUnits="userSpaceOnUse" />
	
<linearGradient
   x1="16"
   y1="126"
   x2="225"
   y2="126"
   id="linearGradient3852"
   xlink:href="#linearGradient3777"
   gradientUnits="userSpaceOnUse" /><linearGradient
   x1="16"
   y1="126"
   x2="225"
   y2="126"
   id="linearGradient3854"
   xlink:href="#linearGradient3777"
   gradientUnits="userSpaceOnUse" /><linearGradient
   x1="16"
   y1="126"
   x2="225"
   y2="126"
   id="linearGradient3856"
   xlink:href="#linearGradient3777"
   gradientUnits="userSpaceOnUse" />
		
		
	<linearGradient
   x1="16"
   y1="126"
   x2="225"
   y2="126"
   id="linearGradient3862"
   xlink:href="#linearGradient3777"
   gradientUnits="userSpaceOnUse" /><linearGradient
   x1="16"
   y1="126"
   x2="225"
   y2="126"
   id="linearGradient3864"
   xlink:href="#linearGradient3777"
   gradientUnits="userSpaceOnUse" /><linearGradient
   x1="-21"
   y1="128.5"
   x2="279"
   y2="128.5"
   id="linearGradient3866"
   xlink:href="#linearGradient3799"
   gradientUnits="userSpaceOnUse" /><linearGradient
   x1="-21"
   y1="128.5"
   x2="279"
   y2="128.5"
   id="linearGradient3868"
   xlink:href="#linearGradient3799"
   gradientUnits="userSpaceOnUse" /><linearGradient
   x1="-21"
   y1="128.5"
   x2="279"
   y2="128.5"
   id="linearGradient3870"
   xlink:href="#linearGradient3799"
   gradientUnits="userSpaceOnUse" />
	
<linearGradient
   x1="-21"
   y1="128.5"
   x2="279"
   y2="128.5"
   id="linearGradient3876"
   xlink:href="#linearGradient3799"
   gradientUnits="userSpaceOnUse" /><linearGradient
   x1="-21"
   y1="128.5"
   x2="279"
   y2="128.5"
   id="linearGradient3878"
   xlink:href="#linearGradient3799"
   gradientUnits="userSpaceOnUse" /><linearGradient
   x1="-21"
   y1="128.5"
   x2="279"
   y2="128.5"
   id="linearGradient3880"
   xlink:href="#linearGradient3799"
   gradientUnits="userSpaceOnUse" />
		
		
	<linearGradient
   x1="-21"
   y1="128.5"
   x2="279"
   y2="128.5"
   id="linearGradient3885"
   xlink:href="#linearGradient3799"
   gradientUnits="userSpaceOnUse" /><linearGradient
   x1="-21"
   y1="128.5"
   x2="279"
   y2="128.5"
   id="linearGradient3887"
   xlink:href="#linearGradient3799"
   gradientUnits="userSpaceOnUse" /><linearGradient
   x1="65.91964"
   y1="69.056839"
   x2="89.046608"
   y2="92.378876"
   id="linearGradient3924"
   xlink:href="#linearGradient3777"
   gradientUnits="userSpaceOnUse"
   spreadMethod="pad"
   gradientTransform="translate(-0.30883726,-0.8370961)" /><linearGradient
   x1="118.38983"
   y1="128.49998"
   x2="173.77965"
   y2="236.97458"
   id="linearGradient3932"
   xlink:href="#linearGradient3799"
   gradientUnits="userSpaceOnUse" /><linearGradient
   x1="118.38983"
   y1="128.49998"
   x2="173.77965"
   y2="236.97458"
   id="linearGradient3932-6"
   xlink:href="#linearGradient2725"
   gradientUnits="userSpaceOnUse"
   gradientTransform="matrix(0.5,0,0,0.5,-0.5037525,1.5527344)" /><linearGradient
   xlink:href="#linearGradient2776"
   id="linearGradient2769"
   gradientUnits="userSpaceOnUse"
   gradientTransform="translate(-0.3088393,1.1629025)"
   x1="65.91964"
   y1="69.056839"
   x2="89.046608"
   y2="92.378876"
   spreadMethod="pad" /><linearGradient
   xlink:href="#linearGradient915"
   id="linearGradient917"
   x1="26.321857"
   y1="67.795771"
   x2="93.686909"
   y2="67.795771"
   gradientUnits="userSpaceOnUse" /><linearGradient
   xlink:href="#linearGradient1282"
   id="linearGradient1284"
   x1="7.5840594"
   y1="70.979376"
   x2="120.4159"
   y2="70.979376"
   gradientUnits="userSpaceOnUse" /></defs>

<path
   id="polygon11-2"
   style="fill:url(#linearGradient1284);fill-opacity:1;stroke-width:3.95875;stroke-miterlimit:10"
   d="M 87.16437,83.932412 98.958207,121.03567 98.965432,125 64.243694,100.58737 28.697571,125 l 0.0066,-3.99309 12.364492,-37.409013 -33.4846036,-25.5671 0.012074,-3.957563 42.2144426,2.967875 14.927956,-40.082358 13.608208,40.082358 42.06916,-2.795305 -0.007,3.95027 z" /><polygon
   points="158,100.333 243,102.667 175.819,154.676 199.667,237.667 129.5,188.333 57.667,237.667 82.667,154 15,102.333 100.333,100.333 130.5,19.333 "
   transform="matrix(0.49484392,0,0,0.49484392,0.16140691,3.4331828)"
   id="polygon11"
   style="fill:#ff0000;fill-opacity:1;stroke:none;stroke-width:8;stroke-miterlimit:10" /><path
   d="m 37.60476,67.268047 c -0.164783,0.824905 8.466779,9.779601 9.237252,9.566818 0.425566,-0.117278 6.927815,-6.10291 6.927815,-6.10291 L 70.759302,89.04118 c 0,0 -4.618378,2.639002 -9.566818,2.144158 -4.948439,-0.494844 -7.868018,-2.51826 -13.525568,-8.741912 -1.64981,-1.814593 -4.12403,1.15447 -4.12403,1.15447 l -2.969063,-0.164783 c 0,0 -3.628691,1.319254 -2.47422,3.628691 -5.777952,2.145589 -15.590155,2.082335 -10.226939,15.175376 6.432971,7.42266 14.515257,-7.9175 15.670222,-8.742405 1.154966,-0.824905 10.556506,18.804065 36.783233,6.927815 0,0 3.604938,3.75883 3.958752,3.78704 0.513648,0.0416 9.402038,-7.869501 9.402038,-8.570696 0,-0.10037 -0.0059,-3.964303 -0.0059,-3.964303 L 88.73845,90.360928 c 0,0 11.87626,-14.020907 -1.556779,-34.287736 C 86.197427,54.588166 81.118349,47.861753 74.285049,43.431415 70.321844,40.862187 65.628302,34.813232 57.907747,32.239053 57.794268,32.201218 56.951748,31.332295 56.951748,31.332295 l 0.01982,3.887642 c 0.0062,0.615901 4.377552,4.542426 9.531566,9.745498 3.496567,3.530216 6.682867,7.818533 8.87453,10.755927 7.75272,10.391722 6.753135,20.010004 3.793969,24.742194 0,0 -8.844897,-9.473286 -16.845533,-18.141467 0,0 7.340019,-7.257876 6.927814,-7.75272 l 0.03843,-3.896397 c 0,0 -1.327765,2.154341 -2.677925,1.257395 0,0 -1.77451,0.552246 -4.465966,0.654183 -3.798422,0.144 -8.911588,-0.120252 -9.203546,0.167252 -0.894401,0.881463 -12.897709,7.682928 -15.345794,10.567758 0,0 0.03001,3.826591 0.0056,3.948489 z"
   id="path3813-8"
   style="fill:url(#linearGradient917);fill-opacity:1;fill-rule:nonzero;stroke:none;stroke-width:2.17731;stroke-miterlimit:10;stroke-dasharray:none" /><path
   d="m 37.604762,63.309297 c -0.164783,0.824905 8.46678,9.779601 9.237252,9.566817 0.425566,-0.117278 6.927815,-6.10291 6.927815,-6.10291 l 16.989475,18.309225 c 0,0 -4.618378,2.639003 -9.566817,2.144159 -4.948439,-0.494844 -7.868018,-2.518261 -13.525568,-8.741913 -1.64981,-1.814592 -4.12403,1.154471 -4.12403,1.154471 l -2.969063,-0.164783 c 0,0 -3.628691,1.319254 -2.47422,3.62869 0.69971,1.399419 -17.061724,7.288556 -10.22694,15.175379 6.432972,7.422658 14.515258,-7.917503 15.670223,-8.742408 1.154966,-0.824904 10.556506,18.804066 36.783232,6.927815 0,0 3.604938,3.758831 3.958752,3.787041 0.513648,0.0416 9.402034,-7.869503 9.402034,-8.570697 0,-0.597771 -4.948439,-5.278005 -4.948439,-5.278005 0,0 11.876262,-14.020908 -1.556778,-34.287736 -0.984245,-1.485026 -6.063323,-8.211439 -12.896623,-12.641777 -3.963205,-2.569229 -9.001211,-5.589263 -16.721765,-8.163441 -2.474219,-0.824905 2.961145,3.661846 8.939849,9.697458 3.496568,3.530217 6.682868,7.818533 8.874531,10.755928 7.75272,10.391722 6.753135,20.010003 3.793969,24.742194 0,0 -8.824057,-9.476261 -16.824693,-18.144442 0,0 7.340019,-7.257876 6.927814,-7.75272 -1.293522,-1.553315 -1.159418,-1.655748 -2.639497,-2.639003 0,0 -1.774511,0.552246 -4.465967,0.654184 -3.798422,0.144 -8.932427,-0.117277 -9.224384,0.170226 -0.992162,0.977812 -15.09274,13.279138 -15.340162,14.516248 z"
   id="path3813"
   style="fill:#ffd300;fill-opacity:1;fill-rule:nonzero;stroke:none;stroke-width:2.17731;stroke-miterlimit:10;stroke-dasharray:none" />
</svg>
