<?xml version="1.0" encoding="UTF-8" standalone="no"?>
<svg
   width="128"
   height="128"
   x="0"
   y="0"
   version="1.1"
   id="svg6"
   xml:space="preserve"
   xmlns:xlink="http://www.w3.org/1999/xlink"
   xmlns="http://www.w3.org/2000/svg"
   xmlns:svg="http://www.w3.org/2000/svg"><defs
     id="defs10"><linearGradient
       id="linearGradient1018"><stop
         style="stop-color:#9f0202;stop-opacity:1;"
         offset="0"
         id="stop1014" /><stop
         style="stop-color:#ff4b4b;stop-opacity:1;"
         offset="1"
         id="stop1016" /></linearGradient><linearGradient
       id="linearGradient886"><stop
         style="stop-color:#ff1b2d;stop-opacity:1;"
         offset="0"
         id="stop882" /><stop
         style="stop-color:#a70014;stop-opacity:1;"
         offset="1"
         id="stop884" /></linearGradient><linearGradient
       xlink:href="#linearGradient886"
       id="linearGradient888"
       x1="6.1610928"
       y1="0.0064048725"
       x2="6.1610928"
       y2="16.00831"
       gradientUnits="userSpaceOnUse"
       gradientTransform="matrix(7.625,0,0,7.625,3,3)" /><linearGradient
       xlink:href="#linearGradient1018"
       id="linearGradient1020"
       x1="10.853083"
       y1="0.25635999"
       x2="10.853083"
       y2="15.54589"
       gradientUnits="userSpaceOnUse"
       gradientTransform="matrix(7.625,0,0,7.625,3,3)" /><linearGradient
       id="a"
       gradientTransform="matrix(0,116.29708,-116.29708,0,53.99556,4.9585044)"
       gradientUnits="userSpaceOnUse"
       x2="1"><stop
         offset="0"
         stop-color="#ff1b2d"
         id="stop139" /><stop
         offset=".3"
         stop-color="#ff1b2d"
         id="stop141" /><stop
         offset=".614"
         stop-color="#ff1b2d"
         id="stop143" /><stop
         offset="1"
         stop-color="#a70014"
         id="stop145" /></linearGradient><linearGradient
       id="b"
       gradientTransform="matrix(0,102.85848,-102.85848,0,84.12392,11.814326)"
       gradientUnits="userSpaceOnUse"
       x2="1"><stop
         offset="0"
         stop-color="#9c0000"
         id="stop148" /><stop
         offset=".7"
         stop-color="#ff4b4b"
         id="stop150" /><stop
         offset="1"
         stop-color="#ff4b4b"
         id="stop152" /></linearGradient><linearGradient
       id="a-3"
       gradientTransform="matrix(0,116.29708,-116.29708,0,53.995561,6.958445)"
       gradientUnits="userSpaceOnUse"
       x2="1"><stop
         offset="0"
         stop-color="#ff1b2d"
         id="stop139-6"
         style="stop-color:#b2000e;stop-opacity:1;" /><stop
         offset="0.30000001"
         stop-color="#ff1b2d"
         id="stop141-7"
         style="stop-color:#b2000e;stop-opacity:1;" /><stop
         offset="0.61400002"
         stop-color="#ff1b2d"
         id="stop143-5"
         style="stop-color:#b2000e;stop-opacity:1;" /><stop
         offset="1"
         stop-color="#a70014"
         id="stop145-3"
         style="stop-color:#420008;stop-opacity:1;" /></linearGradient><linearGradient
       id="b-5"
       gradientTransform="matrix(0,102.85848,-102.85848,0,84.123922,13.814267)"
       gradientUnits="userSpaceOnUse"
       x2="1"><stop
         offset="0"
         stop-color="#9c0000"
         id="stop148-6"
         style="stop-color:#6b0000;stop-opacity:1;" /><stop
         offset="0.69999999"
         stop-color="#ff4b4b"
         id="stop150-2"
         style="stop-color:#e50000;stop-opacity:1;" /><stop
         offset="1"
         stop-color="#ff4b4b"
         id="stop152-9"
         style="stop-color:#e50000;stop-opacity:1;" /></linearGradient></defs><path
     d="m 44.250516,31.191941 c 5.506035,-6.500011 12.6167,-10.419619 20.385432,-10.419619 17.467424,0 31.624824,19.803353 31.624824,44.231585 0,24.42823 -14.15846,44.231583 -31.624824,44.231583 -7.768732,0 -14.879397,-3.91792 -20.383951,-10.418143 8.606077,11.177803 21.401423,18.266033 35.690915,18.266033 8.7881,0 17.01064,-2.68369 24.042988,-7.34794 12.28079,-10.986673 20.01375,-26.955503 20.01375,-44.731113 0,-17.77349 -7.73148,-33.741477 -20.0093,-44.726878 -7.034468,-4.667207 -15.258488,-7.350905 -24.047228,-7.350905 -14.28822,0 -27.084624,7.08823 -35.690913,18.266032"
     fill="url(#b)"
     id="path157-7"
     style="fill:url(#b-5);stroke-width:2.11665" /><path
     d="m 63.998837,5.002663 c -33.136117,0 -59.9984896,26.862373 -59.9984896,59.998484 0,32.17728 25.3320366,58.438533 57.1410156,59.928653 0.949274,0.0448 1.900029,0.0702 2.85832,0.0702 15.361359,0 29.370599,-5.77612 39.985587,-15.26886 l -0.006,-2.00788 c 0,0 -15.680295,9.35582 -24.036678,9.35582 -14.288217,0 -27.084621,-7.08823 -35.69091,-18.266033 -6.634419,-7.83139 -10.931426,-19.40776 -11.224158,-32.39953 v -2.82551 c 0.292541,-12.99135 4.589526,-24.570043 11.222465,-32.399523 8.607559,-11.17781 21.403539,-18.266039 35.690913,-18.266039 8.78959,0 17.01361,2.683698 24.047228,7.350906 C 93.424892,10.824002 79.500312,5.059736 64.224471,5.003009 c -0.07611,0 -0.150748,-0.003 -0.226862,-0.003 z"
     fill="url(#a)"
     id="path155-2"
     style="fill:url(#a-3);stroke-width:2.11665" /><path
     d="m 63.998836,3.0027224 c -33.136117,0 -59.9984894,26.8623726 -59.9984894,59.9984886 0,32.177275 25.3320364,58.438519 57.1410154,59.928639 0.949274,0.0448 1.900029,0.0701 2.85832,0.0701 15.361359,0 29.370601,-5.77612 39.985588,-15.26886 -7.032984,4.66425 -15.255525,7.34795 -24.042998,7.34795 -14.288218,0 -27.084622,-7.08823 -35.690911,-18.266037 C 37.616942,88.981669 33.319935,77.405301 33.027203,64.413529 v -2.825513 c 0.292541,-12.991346 4.589526,-24.570043 11.222465,-32.399523 8.607559,-11.17781 21.403539,-18.266039 35.69091,-18.266039 8.789591,0 17.013612,2.683698 24.047232,7.350906 C 93.424892,8.824011 79.500316,3.0597447 64.22447,3.0030177 c -0.07611,0 -0.150748,-0.00302 -0.226862,-0.00302 z"
     fill="url(#a)"
     id="path155"
     style="fill:url(#a);stroke-width:2.11665" /><path
     d="m 44.250515,29.192 c 5.506035,-6.500011 12.6167,-10.419619 20.385432,-10.419619 17.467421,0 31.624829,19.803353 31.624829,44.231582 0,24.428229 -14.158467,44.231587 -31.624829,44.231587 -7.768732,0 -14.879397,-3.91792 -20.383951,-10.418144 8.606077,11.177804 21.401423,18.266034 35.690911,18.266034 8.788108,0 17.010648,-2.6837 24.042993,-7.34794 12.28079,-10.986673 20.01375,-26.955508 20.01375,-44.731114 0,-17.773489 -7.73148,-33.741477 -20.0093,-44.726878 -7.034467,-4.667207 -15.258489,-7.350905 -24.047232,-7.350905 -14.288217,0 -27.084621,7.08823 -35.69091,18.266032"
     fill="url(#b)"
     id="path157"
     style="fill:url(#b);stroke-width:2.11665" /></svg>
