<?xml version="1.0" encoding="UTF-8" standalone="no"?>
<svg
   height="128"
   viewBox="0 0 128 128"
   width="128"
   version="1.1"
   id="svg860"
   sodipodi:docname="org.zaproxy.ZAP.svg"
   inkscape:version="1.3.2 (091e20ef0f, 2023-11-25)"
   inkscape:export-filename="symbolic.svg"
   inkscape:export-xdpi="384"
   inkscape:export-ydpi="384"
   xml:space="preserve"
   xmlns:inkscape="http://www.inkscape.org/namespaces/inkscape"
   xmlns:sodipodi="http://sodipodi.sourceforge.net/DTD/sodipodi-0.dtd"
   xmlns:xlink="http://www.w3.org/1999/xlink"
   xmlns="http://www.w3.org/2000/svg"
   xmlns:svg="http://www.w3.org/2000/svg"><defs
     id="defs864"><linearGradient
       id="linearGradient9"
       inkscape:collect="always"><stop
         style="stop-color:#004273;stop-opacity:1;"
         offset="0"
         id="stop10" /><stop
         style="stop-color:#0361a8;stop-opacity:1;"
         offset="0.07"
         id="stop12" /><stop
         style="stop-color:#004273;stop-opacity:1;"
         offset="0.15000001"
         id="stop13" /><stop
         style="stop-color:#004273;stop-opacity:1;"
         offset="0.85000002"
         id="stop15" /><stop
         style="stop-color:#0361a8;stop-opacity:1;"
         offset="0.93000001"
         id="stop14" /><stop
         style="stop-color:#004273;stop-opacity:1;"
         offset="1"
         id="stop11" /></linearGradient><linearGradient
       id="linearGradient8"
       inkscape:collect="always"><stop
         style="stop-color:#3672b9;stop-opacity:1;"
         offset="0"
         id="stop8" /><stop
         style="stop-color:#0260a8;stop-opacity:1;"
         offset="1"
         id="stop9" /></linearGradient><radialGradient
       inkscape:collect="always"
       xlink:href="#linearGradient8"
       id="radialGradient9"
       cx="67.5"
       cy="63.5"
       fx="67.5"
       fy="63.5"
       r="48.5"
       gradientUnits="userSpaceOnUse" /><linearGradient
       inkscape:collect="always"
       xlink:href="#linearGradient9"
       id="linearGradient11"
       x1="19"
       y1="67.5"
       x2="116"
       y2="67.5"
       gradientUnits="userSpaceOnUse" /></defs><sodipodi:namedview
     id="namedview862"
     pagecolor="#ffffff"
     bordercolor="#ff0505"
     borderopacity="1"
     inkscape:showpageshadow="0"
     inkscape:pageopacity="0"
     inkscape:pagecheckerboard="false"
     inkscape:deskcolor="#ffffff"
     showgrid="true"
     inkscape:zoom="2.8284271"
     inkscape:cx="4.7729708"
     inkscape:cy="56.038212"
     inkscape:window-width="1872"
     inkscape:window-height="964"
     inkscape:window-x="24"
     inkscape:window-y="56"
     inkscape:window-maximized="0"
     inkscape:current-layer="svg860"><inkscape:grid
       type="xygrid"
       id="grid3085"
       empspacing="8"
       empcolor="#737373"
       empopacity="0.17254902"
       color="#3e3e3e"
       opacity="0.14901961"
       visible="true"
       enabled="true"
       originx="0"
       originy="0"
       spacingy="1"
       spacingx="1"
       units="px" /></sodipodi:namedview><linearGradient
     id="a"
     gradientUnits="userSpaceOnUse"
     x1="4"
     x2="124"
     y1="66.000977"
     y2="66.000977"><stop
       offset="0"
       stop-color="#e6a50a"
       id="stop827" /><stop
       offset="0.0333333"
       stop-color="#f5c211"
       id="stop829" /><stop
       offset="0.0666667"
       stop-color="#e6a50a"
       id="stop831" /><stop
       offset="0.933333"
       stop-color="#e6a50a"
       id="stop833" /><stop
       offset="0.966667"
       stop-color="#f5c211"
       id="stop835" /><stop
       offset="1"
       stop-color="#e6a50a"
       id="stop837" /></linearGradient><circle
     style="fill:url(#linearGradient11);fill-opacity:1;stroke-width:11.339;stroke-linecap:round;stroke-linejoin:round"
     id="path1"
     cx="67.5"
     cy="67.5"
     r="48.5" /><path
     style="fill:#000000;fill-opacity:1;stroke-width:11.339;stroke-linecap:round;stroke-linejoin:round"
     d="M 105.34102,112 47.24238,77.763608 c -0.754591,-0.442957 -2,-1.844874 0,-3 l 6,-3 -21,-15 c -1.584941,-1.198874 -1.771779,-2.265165 0,-3 l 5,-2 -21,-15 C 15.687791,36.344386 15.330955,35.68477 15.341239,34.996214 15.344999,34.744432 15.341022,31 15.341022,31 c 0,0 0.963055,2.141644 1.901358,1.763608 l 37,-16 c 1,-0.415555 3,-1.487786 4,0 l 21,30 c 1.35493,2 0.596487,2.715785 0,3 l -5,2 15,20 c 1.072926,1.528458 1.187645,2.669623 0,3 l -7,2 26.92583,27.971732 c 0,0 0.0226,5.57802 1e-5,6.25725 -0.0417,1.25045 -1.17296,2.21198 -3.8272,1.00741 z"
     id="path3"
     sodipodi:nodetypes="ccccccccscccccccccccsc" /><circle
     style="fill:url(#radialGradient9);fill-opacity:1;stroke-width:11.339;stroke-linecap:round;stroke-linejoin:round"
     id="circle1"
     cx="67.5"
     cy="63.5"
     r="48.5" /><path
     style="fill:#000000;fill-opacity:1;stroke-width:11.339;stroke-linecap:round;stroke-linejoin:round"
     d="M 105.34102,108 47.24238,73.763608 c -0.463456,-0.272056 -1.112057,-0.905849 -1.080193,-1.622031 0.02002,-0.449894 -0.0011,-3.961974 -0.0011,-3.961974 l 7.081251,-0.415995 -21,-15 c -0.83575,-0.632174 -1.282754,-1.227483 -1.258831,-1.756769 0.02145,-0.474467 -3.29e-4,-3.991883 -3.29e-4,-3.991883 l 6.259173,0.748652 -21,-15 C 15.680379,32.338784 15.321453,31.667096 15.341848,30.968593 15.352716,30.596386 15.341022,27 15.341022,27 l 3,-2 35.901358,-12.236392 c 1,-0.415555 3,-1.487786 4,0 l 21.757146,27.914878 c 0,0 -7.24e-4,3.511038 4.69e-4,3.958247 0.0018,0.641927 -0.406051,0.959361 -0.757615,1.126875 l -5,2 15.848192,18.00184 c 0,0 -0.01257,3.434853 -3.27e-4,3.95332 0.01215,0.514552 -0.256293,0.880278 -0.847865,1.04484 l -7,2 L 108.34102,102 l 0.82468,1.00766 c 0,0 0.007,3.66343 2.3e-4,3.98908 -0.0247,1.13257 0.0543,3.36918 -3.82491,1.00326 z"
     id="path5"
     sodipodi:nodetypes="ccscccscccscccccscccsccccsc" /><path
     style="fill:#ffffff;fill-opacity:1;stroke-width:11.339;stroke-linecap:round;stroke-linejoin:round"
     d="M 105.34102,104 47.24238,69.763608 c -0.754591,-0.442957 -2,-1.844874 0,-3 l 6,-3 -21,-15 c -1.584941,-1.198874 -1.771779,-2.265165 0,-3 l 5,-2 -21,-15 c -1.217729,-0.920499 -1.482043,-3 1,-4 l 37,-16 c 1,-0.415555 3,-1.487786 4,0 l 21,30 c 1.35493,2 0.596487,2.715785 0,3 l -5.673961,1.823223 15.673961,20.176777 c 1.072926,1.528458 1.187645,2.669623 0,3 l -7,2 L 108.34102,101 c 2.03398,2.5 0.034,4.625 -3,3 z"
     id="path2"
     sodipodi:nodetypes="ccccccccccccccccccc" /><path
     style="fill:#004273;fill-opacity:1;stroke-width:11.339;stroke-linecap:round;stroke-linejoin:round"
     d="m 96.186615,106.60662 v -4 c -0.993115,0.73325 -2.086323,1.46729 -3.273184,2.20207 z"
     id="path4"
     sodipodi:nodetypes="cccc" /></svg>
