<?xml version="1.0" encoding="UTF-8"?>
<svg height="128px" viewBox="0 0 128 128" width="128px" xmlns="http://www.w3.org/2000/svg" xmlns:xlink="http://www.w3.org/1999/xlink">
    <linearGradient id="a" gradientTransform="matrix(0.232143 0 0 0.328947 -8.483806 264.021448)" gradientUnits="userSpaceOnUse" x1="88.595886" x2="536.595886" y1="-449.394012" y2="-449.394012">
        <stop offset="0" stop-color="#1a5eb2"/>
        <stop offset="0.0384615" stop-color="#98c0f1"/>
        <stop offset="0.0768555" stop-color="#1c71d9"/>
        <stop offset="0.923077" stop-color="#1c71d9"/>
        <stop offset="0.961538" stop-color="#98c0f1"/>
        <stop offset="1" stop-color="#1a5fb2"/>
    </linearGradient>
    <path d="m 20.082031 16.195312 h 88 c 4.417969 0 8 3.582032 8 8 v 84 c 0 4.417969 -3.582031 8 -8 8 h -88 c -4.417969 0 -8 -3.582031 -8 -8 v -84 c 0 -4.417968 3.582031 -8 8 -8 z m 0 0" fill="url(#a)"/>
    <path d="m 20.082031 12.195312 h 88 c 4.417969 0 8 3.582032 8 8 v 84 c 0 4.417969 -3.582031 8 -8 8 h -88 c -4.417969 0 -8 -3.582031 -8 -8 v -84 c 0 -4.417968 3.582031 -8 8 -8 z m 0 0" fill="#3584e4"/>
    <g fill="#ffffff">
        <path d="m -307.941906 221.53572 h 2.18882 c 0.03438 0 0.061119 0.043725 0.061119 0.109313 v 24.57359 c 0 0.087451 -0.026739 0.131176 -0.061119 0.131176 h -2.18882 c -0.03438 0 -0.061119 -0.043725 -0.061119 -0.131176 v -24.57359 c 0 -0.065588 0.026739 -0.109313 0.061119 -0.109313 z m 0 0" stroke="#ffffff" stroke-width="0.252274" transform="matrix(1.022597 0 0 0.178673 375.337956 31.886407)"/>
        <path d="m -303.8584 221.557582 h 2.188821 c 0.034379 0 0.061119 0.043726 0.061119 0.109313 v 24.595453 c 0 0.065588 -0.02674 0.109313 -0.061119 0.109313 h -2.188821 c -0.034379 0 -0.061119 -0.043725 -0.061119 -0.109313 v -24.595453 c 0 -0.065587 0.02674 -0.109313 0.061119 -0.109313 z m 0 0" stroke="#ffffff" stroke-width="0.252274" transform="matrix(1.022597 0 0 0.178673 375.337956 31.886407)"/>
        <path d="m -307.941368 221.524333 h 2.18882 c 0.03438 0 0.061119 0.065588 0.061119 0.131175 v 24.573591 c 0 0.065588 -0.026739 0.131176 -0.061119 0.131176 h -2.18882 c -0.03438 0 -0.061119 -0.065588 -0.061119 -0.131176 v -24.573591 c 0 -0.065587 0.026739 -0.131175 0.061119 -0.131175 z m 0 0" stroke="#ffffff" stroke-width="0.252274" transform="matrix(1.022597 0 0 0.178673 375.337406 9.216567)"/>
        <path d="m -303.857862 221.546195 h 2.188821 c 0.034379 0 0.061118 0.065588 0.061118 0.131176 v 24.57359 c 0 0.065588 -0.026739 0.131176 -0.061118 0.131176 h -2.188821 c -0.034379 0 -0.061119 -0.065588 -0.061119 -0.131176 v -24.57359 c 0 -0.065588 0.02674 -0.131176 0.061119 -0.131176 z m 0 0" stroke="#ffffff" stroke-width="0.252274" transform="matrix(1.022597 0 0 0.178673 375.337406 9.216567)"/>
        <path d="m 55.382812 52.859375 v 1.378906 l 2.007813 0.144531 l 0.542969 0.394532 v 15.023437 l -0.542969 0.449219 l -2.007813 0.140625 v 1.382813 h 10.511719 c 5.578125 0 8.574219 -1.972657 8.574219 -5.527344 c 0 -2.761719 -2.210938 -4.480469 -6.191406 -4.535156 c 3.230468 -0.707032 4.863281 -2.226563 4.863281 -4.425782 c 0 -2.933594 -2.515625 -4.425781 -7.550781 -4.425781 z m 6.976563 8.398437 v -6.820312 c 0.472656 -0.027344 0.917969 -0.054688 1.359375 -0.054688 c 3.195312 0 4.726562 1.042969 4.726562 3.238282 c 0 2.539062 -1.632812 3.664062 -5.167968 3.664062 c -0.308594 0 -0.613282 0 -0.917969 -0.027344 z m 0 8.90625 v -7.269531 c 0.949219 -0.058593 1.699219 -0.058593 2.242187 -0.058593 c 3.402344 0 5.105469 1.183593 5.105469 3.582031 c 0 2.703125 -1.769531 3.804687 -5.714843 3.804687 c -0.511719 0 -1.054688 -0.027344 -1.632813 -0.058594 z m 0 0"/>
    </g>
    <path d="m -211.388474 159.306381 c 0.002942 23.282611 -8.38004 42.159265 -18.720821 42.157796 c -10.336789 0.002211 -18.71884 -18.872184 -18.721867 -42.158697 c 0.000965 -23.282831 8.383947 -42.159485 18.724728 -42.158016 c 10.336874 0.001691 18.718925 18.876086 18.71796 42.158917 z m 0 0" fill="none" stroke="#ffffff" stroke-width="3.50107" transform="matrix(-0.0565207 -0.998401 -0.999767 0.0216014 210.083103 -170.398047)"/>
    <path d="m 32.644199 273.337827 c -0.000601 23.284707 -8.382984 42.161451 -18.719986 42.16139 c -10.340417 -0.001841 -18.724107 -18.87621 -18.723506 -42.160917 c -0.001299 -23.281227 8.381083 -42.157971 18.7215 -42.15613 c 10.342318 -0.001639 18.720693 18.87443 18.721992 42.155657 z m 0 0" fill="none" stroke="#ffffff" stroke-width="3.50107" transform="matrix(-0.890306 -0.455363 -0.486192 0.873852 210.083103 -170.398047)"/>
    <path d="m -360.417231 68.576778 c -0.000601 23.284707 -8.381083 42.157971 -18.723401 42.15961 c -10.337002 -0.000061 -18.720692 -18.874429 -18.720091 -42.159136 s 8.381083 -42.157971 18.723401 -42.15961 c 10.337002 0.000061 18.720692 18.874429 18.720091 42.159136 z m 0 0" fill="none" stroke="#ffffff" stroke-width="3.50107" transform="matrix(0.890306 -0.455363 0.486192 0.873852 368.083103 -170.398047)"/>
</svg>
