<?xml version="1.0" encoding="UTF-8" standalone="no"?>
<svg
   width="128"
   height="128"
   version="1"
   id="svg12"
   xmlns="http://www.w3.org/2000/svg"
   xmlns:svg="http://www.w3.org/2000/svg">
  <defs
     id="defs16" />
  <path
     style="fill:#0f0813;fill-opacity:1;fill-rule:evenodd;stroke-width:1.83797"
     d="m 63.964554,13.393443 c -3.037836,0.0012 -5.992912,1.141926 -8.321076,3.550279 L 14.210407,59.733724 c -2.760068,2.340877 -3.533921,-3.058766 -3.539508,8.558 -2.3e-5,0.0469 0,0.160564 0,0.211797 -4.3e-4,9.170502 23.170767,0.264279 25.37964,11.476479 1.195221,6.068136 -14.743421,-8.000203 -12.503153,9.394415 0.914821,7.103157 22.247644,1.319573 27.045291,8.138003 3.672478,5.219322 -10.377174,-5.306377 -6.422089,10.442622 1.20854,4.81236 11.439736,1.54085 12.930335,7.30158 1.702605,6.58039 17.256987,5.85903 18.857036,0.62821 4.290923,-14.02775 -5.04356,-5.20129 -1.593854,-8.76979 3.449474,-3.56875 17.41671,-1.66125 18.96114,-10.643659 2.000199,-11.633183 -6.966439,-5.689729 -7.06466,-11.48007 -0.342995,-4.903732 6.0586,-3.473225 23.724755,-8.353383 7.06393,-3.318835 7.31413,-5.081499 7.28723,-8.137998 -5.5e-4,-0.06058 0,-0.143563 0,-0.208206 0.41096,-10.163366 -1.46496,-6.196241 -3.74771,-8.558 L 72.292811,16.943722 c -2.32867,-2.408606 -5.284763,-3.549039 -8.321078,-3.550279 z M 112.5269,86.919016 c -0.81821,-0.02831 -1.64349,0.04408 -2.22566,0.222565 -6.1385,-2.00952 -5.95042,-5.88735 -5.86925,4.882081 4.70985,2.166802 11.89136,3.889983 12.74724,-0.445132 0.56414,-10.19188 -0.70032,-7.621949 -4.65233,-4.659514 z M 29.000239,99.817038 c -0.458908,0.05994 -0.775602,0.267842 -1.224108,0.463082 -5.125984,-7.289866 -5.989203,4.84429 -2.638478,6.2785 3.351218,1.43387 5.591671,-0.0813 8.529282,-1.85951 2.938109,-1.779 2.858159,-2.10299 2.645657,-2.78924 0.204807,-6.8023 1.313078,-6.574285 -5.890804,-2.092832 -0.46872,-0.04489 -0.962763,-0.05994 -1.421549,0 z"
     id="path2" />
  <path
     style="fill:#241f31;fill-opacity:1;fill-rule:evenodd;stroke-width:1.83797"
     d="m 63.964554,8.0000011 c -3.037836,0.00124 -5.992912,1.141925 -8.321076,3.5502779 L 14.210407,54.340282 c -2.282982,2.361837 -3.494077,5.475648 -3.539508,8.558001 -6.83e-4,0.04689 0,0.160563 0,0.211794 -4.3e-4,9.170502 23.170767,0.264282 25.37964,11.476481 1.195221,6.068136 -12.503153,3.289019 -12.503153,9.394415 0,7.161826 22.247644,1.319572 27.045291,8.137998 3.672478,5.219325 -9.335845,5.445895 -6.422089,10.442629 2.499459,4.28627 11.439736,1.54085 12.930335,7.30159 1.702605,6.58037 12.664071,5.84571 18.857036,0.62821 3.796329,-3.19838 -5.04356,-5.2013 -1.593854,-8.76981 3.449474,-3.568743 19.879282,-2.897991 18.96114,-10.643652 -0.607641,-5.126173 -6.966439,-5.689726 -7.06466,-11.480069 -0.342995,-4.903731 6.0586,-3.473225 23.724755,-8.353385 7.06393,-3.318832 7.31413,-5.081496 7.28723,-8.137997 -5.5e-4,-0.06059 0,-0.143562 0,-0.208204 -0.0403,-3.082101 -1.46496,-6.196241 -3.74771,-8.558001 L 72.292811,11.550279 C 69.964141,9.1416738 67.008048,8.0012403 63.971733,8.0000011 Z M 112.5269,81.525573 c -0.81821,-0.02831 -1.64349,0.04408 -2.22566,0.222566 -1.09736,0.346958 -6.2977,0.546454 -5.86925,4.882081 4.70985,2.166801 11.89136,3.889983 12.74724,-0.445132 0.64258,-3.250899 -2.19735,-4.560012 -4.65233,-4.659515 z M 29.000239,94.423605 c -0.458908,0.05982 -0.775602,0.267836 -1.224108,0.463072 -3.586507,1.560393 -5.989203,4.844296 -2.638478,6.278503 3.351218,1.43387 5.591671,-0.0813 8.529282,-1.859495 2.938109,-1.779019 2.858159,-2.102993 2.645657,-2.789251 -0.407268,0.09312 -3.078019,-1.809971 -5.890804,-2.092829 -0.46872,-0.04489 -0.962763,-0.05982 -1.421549,0 z"
     id="path4" />
  <path
     style="fill:#ffffff;fill-rule:evenodd;stroke-width:1.83797"
     d="m 64.162389,20.875168 c 3.126224,0.02659 11.692439,10.627434 19.335278,18.566475 2.149802,2.884594 -0.831543,5.841016 -0.831543,5.841016 l -16.008035,-8.761651 -7.068714,9.5967 -6.236203,-9.386033 -3.743753,14.601904 -11.018056,-6.675299 2.911243,-3.756447 17.25426,-17.730666 c 1.323514,-1.349173 2.337016,-2.318614 5.405474,-2.29473 z"
     id="path8" />
</svg>
