<?xml version="1.0" encoding="UTF-8"?>
<svg height="128px" viewBox="0 0 128 128" width="128px" xmlns="http://www.w3.org/2000/svg" xmlns:xlink="http://www.w3.org/1999/xlink">
    <linearGradient id="a" gradientTransform="matrix(1.000123 0 0 1.000127 0.000447 -0.008348)" gradientUnits="userSpaceOnUse" x1="0.999993" x2="66.951172" y1="66.9254" y2="66.9254">
        <stop offset="0" stop-color="#85b4e0"/>
        <stop offset="0.0767149" stop-color="#0057ab"/>
        <stop offset="0.554668" stop-color="#0057ab"/>
        <stop offset="0.554668" stop-color="#85b4e0"/>
        <stop offset="0.649676" stop-color="#0057ab"/>
    </linearGradient>
    <linearGradient id="b" gradientTransform="matrix(1.000123 0 0 1.000127 0.000447 -0.008348)" gradientUnits="userSpaceOnUse" x1="6.550781" x2="126.986328" y1="66.154655" y2="66.154655">
        <stop offset="0.385737" stop-color="#0057ab"/>
        <stop offset="0.557136" stop-color="#006acc"/>
        <stop offset="0.765282" stop-color="#0057ab"/>
    </linearGradient>
    <linearGradient id="c" gradientTransform="matrix(1.000123 0 0 1.000127 0.000447 -0.008348)" gradientUnits="userSpaceOnUse" x1="77.189453" x2="99.4375" y1="36.926357" y2="36.926357">
        <stop offset="0.366042" stop-color="#85b4e0"/>
        <stop offset="0.798056" stop-color="#0057ab"/>
    </linearGradient>
    <linearGradient id="d" gradientTransform="matrix(0.06153 0 0 0.0615302 0.998106 -1.82916)" gradientUnits="userSpaceOnUse" x1="0" x2="0" y1="506" y2="1588">
        <stop offset="0" stop-color="#46d4ff"/>
        <stop offset="1" stop-color="#1792ff"/>
    </linearGradient>
    <path d="m 1 64.289062 v 2.804688 c 0.003906 0.441406 0.132812 0.855469 0.429688 1.222656 c 1.300781 1.597656 5.625 -0.570312 9.113281 -2.007812 c 3.671875 -1.507813 3.957031 -2.328125 13.976562 -3.824219 c 4.613281 -0.6875 9.46875 -0.882813 13.078125 -0.914063 c 1.40625 2.96875 4.902344 9.074219 10.964844 12 c 8.179688 3.953126 18.394531 3.902344 18.394531 3.902344 v -2.824218 c -51.246093 -20.652344 -10.441406 -23.28125 -65.957031 -10.359376 z m 0 0" fill="url(#a)"/>
    <path d="m 22.050781 55.5 c 0.65625 -1.96875 2.730469 -5.800781 9.78125 -9.109375 c 8.59375 -4.03125 22.113281 -4.707031 37.628907 -0.75 c 21.921874 5.597656 29.394531 15.121094 38.828124 24.957031 c 10.035157 10.472656 18.710938 28.101563 18.710938 28.101563 v -2.824219 c -31.25 -76.511719 -112.714844 -60.839844 -104.949219 -40.375 z m 32.253907 7.59375 l 0.019531 0.003906 c 5.921875 1.125 11.089843 1.933594 23.453125 6.667969 c 10.820312 4.144531 18.207031 10.167969 18.207031 10.167969 v -2.824219 c -11.355469 -10.953125 -51.210937 -23.949219 -41.679687 -14.015625 z m 0 0" fill="url(#b)"/>
    <path d="m 99.449219 30.417969 c -6.5625 -0.78125 -13.976563 5.632812 -10.933594 9.226562 c 1.621094 -4.234375 10.933594 -6.398437 10.933594 -6.398437 z m 0 0" fill="url(#c)"/>
    <path d="m 119.503906 77.667969 c -5.796875 -10.703125 -10.785156 -18.351563 -19.097656 -26.125 c -2.671875 -2.496094 -5.207031 -4.730469 -7.84375 -6.734375 h 0.003906 s -0.019531 -0.015625 -0.058594 -0.042969 c -0.046874 -0.039063 -0.09375 -0.074219 -0.144531 -0.109375 c -0.976562 -0.753906 -5.132812 -4.25 -3.65625 -8.109375 c 1.621094 -4.234375 10.742188 -6.128906 10.742188 -6.128906 s -4.472657 -1.519531 -12.292969 -1.015625 c -7.34375 0.472656 -13.941406 4.765625 -15.175781 5.367187 c -3.953125 -1.132812 -8.464844 -2.128906 -13.742188 -3.023437 c -18.25 -3.097656 -33.695312 1.839844 -41.445312 7.21875 c -10.160157 7.050781 -9.878907 13.621094 -10.714844 16.90625 c -0.601563 2.363281 -6.730469 7.0625 -4.648437 9.621094 c 1.300781 1.597656 5.625 -0.570313 9.113281 -2.007813 c 3.667969 -1.507813 3.953125 -2.328125 13.976562 -3.824219 c 4.613281 -0.6875 9.464844 -0.886718 13.078125 -0.914062 c 1.40625 2.96875 4.902344 9.070312 10.960938 12 c 8.179687 3.953125 18.398437 3.902344 18.398437 3.902344 s -5.871093 -2.4375 -9.484375 -6.050782 c -2.457031 -2.460937 -3.046875 -6.191406 -3.171875 -8.328125 h 0.023438 c 5.917969 1.125 11.085937 1.9375 23.449219 6.671875 c 10.820312 4.144532 18.210937 10.167969 18.210937 10.167969 s -7.597656 -9.472656 -20.421875 -15.796875 c -10.527344 -5.191406 -19.171875 -7.757812 -31.148438 -8.339844 c -13.089843 -0.632812 -22.734374 1.046875 -22.734374 1.046875 s 0.269531 -5.816406 10.152343 -10.453125 c 8.59375 -4.03125 22.113281 -4.707031 37.628907 -0.746094 c 21.917968 5.589844 29.394531 15.113282 38.824218 24.953126 c 10.035156 10.472656 18.714844 28.101562 18.714844 28.101562 s -2.675781 -9.3125 -7.496094 -18.207031 z m 0 0" fill="url(#d)"/>
</svg>
