<svg id="Layer_1" data-name="Layer 1" xmlns="http://www.w3.org/2000/svg" xmlns:xlink="http://www.w3.org/1999/xlink" viewBox="0 0 128 128"><defs><style>.cls-1{fill:url(#linear-gradient);}.cls-2{fill:url(#linear-gradient-2);}.cls-3{fill:url(#linear-gradient-3);}.cls-4{fill:url(#linear-gradient-4);}.cls-5{fill:url(#linear-gradient-5);}.cls-6{fill:url(#linear-gradient-6);}</style><linearGradient id="linear-gradient" x1="12.5" y1="97.21" x2="115.19" y2="97.21" gradientUnits="userSpaceOnUse"><stop offset="0" stop-color="#d84627"/><stop offset="0.06" stop-color="#e2653e"/><stop offset="0.3" stop-color="#e87e5a"/><stop offset="0.5" stop-color="#ef9778"/><stop offset="0.7" stop-color="#e87e5a"/><stop offset="0.92" stop-color="#e2653e"/><stop offset="1" stop-color="#d84627"/></linearGradient><linearGradient id="linear-gradient-2" x1="63.84" y1="3.61" x2="63.84" y2="74.61" gradientTransform="matrix(1, 0, 0, -1, 0, 130)" gradientUnits="userSpaceOnUse"><stop offset="0" stop-color="#fbc3b2"/><stop offset="0.88" stop-color="#d84626"/></linearGradient><linearGradient id="linear-gradient-3" x1="12.5" y1="73.22" x2="115.5" y2="73.22" gradientUnits="userSpaceOnUse"><stop offset="0" stop-color="#71924d"/><stop offset="0.06" stop-color="#8bbc40"/><stop offset="0.3" stop-color="#a4c967"/><stop offset="0.5" stop-color="#bed891"/><stop offset="0.7" stop-color="#a4c967"/><stop offset="0.92" stop-color="#8bbc40"/><stop offset="1" stop-color="#71924c"/></linearGradient><linearGradient id="linear-gradient-4" x1="64" y1="34.56" x2="64" y2="81.25" gradientTransform="matrix(1, 0, 0, -1, 0, 130)" gradientUnits="userSpaceOnUse"><stop offset="0" stop-color="#deedc9"/><stop offset="0.66" stop-color="#8bbb3f"/></linearGradient><linearGradient id="linear-gradient-5" x1="12.5" y1="42.48" x2="115.5" y2="42.48" gradientUnits="userSpaceOnUse"><stop offset="0" stop-color="#26a7c9"/><stop offset="0.06" stop-color="#64b8e7"/><stop offset="0.3" stop-color="#84c6ea"/><stop offset="0.5" stop-color="#a1d4f0"/><stop offset="0.7" stop-color="#84c6ea"/><stop offset="0.92" stop-color="#64b8e7"/><stop offset="1" stop-color="#26a7c9"/></linearGradient><linearGradient id="linear-gradient-6" x1="64" y1="53.8" x2="64" y2="117.34" gradientTransform="matrix(1, 0, 0, -1, 0, 130)" gradientUnits="userSpaceOnUse"><stop offset="0" stop-color="#c3e8f7"/><stop offset="1" stop-color="#28a7dd"/></linearGradient></defs><title>org.onlyoffice.desktopeditors</title><path class="cls-1" d="M115.19,85.3v5h0c0,1.09-.85,2.16-2.7,2.95L70.12,112.69c-3.29,1.55-9.11,1.55-12.55,0L15.2,93.24c-1.8-.85-2.7-1.93-2.69-3h0v-5l5.08,1L30,80.58,57.4,93.24c3.61,1.7,9.43,1.7,12.87,0L97.74,80.58l12.37,5.71Z"/><path class="cls-2" d="M57.56,108,15.2,88.51c-3.61-1.7-3.61-4.33,0-5.87L30,75.85,57.41,88.51a16.94,16.94,0,0,0,12.86,0L97.73,75.85l14.75,6.79c3.61,1.7,3.61,4.32,0,5.87L70.12,108C66.82,109.5,61,109.5,57.56,108Z"/><path class="cls-3" d="M115.5,61.67v4.57c0,1.06-.91,2.1-2.71,2.88L70.43,88.56c-3.6,1.7-9.42,1.7-12.86,0L15.2,69.12c-1.8-.85-2.7-1.93-2.7-3V61.67l4.75.63,12.38-5.69L52.1,66.92,64,68.49l11.89-1.57L98.36,56.61l12.39,5.69Z"/><path class="cls-4" d="M57.56,83.83,15.2,64.38c-3.61-1.7-3.61-4.32,0-5.87l14.44-6.63L57.56,64.69a16.88,16.88,0,0,0,12.87,0L98.36,51.88l14.43,6.63c3.61,1.7,3.61,4.33,0,5.87L70.43,83.83A16.88,16.88,0,0,1,57.56,83.83Z"/><path class="cls-5" d="M115.5,37.74v4.74c.07,1.1-.83,2.19-2.7,3L70.43,64.92a18.47,18.47,0,0,1-12.86,0L15.2,45.47c-1.8-.85-2.7-1.93-2.7-3V37.74h6.75L57.57,20.16a16.85,16.85,0,0,1,12.86,0l38.32,17.58Z"/><path class="cls-6" d="M57.56,60.18,15.2,40.74c-3.61-1.7-3.61-4.32,0-5.87L57.56,15.42a17,17,0,0,1,12.87,0l42.36,19.45c3.61,1.7,3.61,4.32,0,5.87L70.43,60.18A18.39,18.39,0,0,1,57.56,60.18Z"/></svg>