<?xml version="1.0" encoding="UTF-8"?>
<svg height="128px" viewBox="0 0 128 128" width="128px" xmlns="http://www.w3.org/2000/svg" xmlns:xlink="http://www.w3.org/1999/xlink">
    <linearGradient id="a" gradientTransform="matrix(2.515266 0 0 2.515272 109.274832 -2521.823909)" gradientUnits="userSpaceOnUse" x1="-37" x2="0.999622" y1="1017.487122" y2="1017.487122">
        <stop offset="0" stop-color="#92c50b"/>
        <stop offset="0.0418969" stop-color="#ade500"/>
        <stop offset="0.0838057" stop-color="#92c50b"/>
        <stop offset="0.919008" stop-color="#92c50b"/>
        <stop offset="0.960605" stop-color="#aee500"/>
        <stop offset="1" stop-color="#92c50b"/>
    </linearGradient>
    <linearGradient id="b" gradientTransform="matrix(2.515266 0 0 2.515272 3.633662 -2521.823909)" gradientUnits="userSpaceOnUse" x1="5" x2="43" y1="1037.987305" y2="1037.987305">
        <stop offset="0" stop-color="#1b68b3"/>
        <stop offset="0.040444" stop-color="#3891e1"/>
        <stop offset="0.083346" stop-color="#1b68b3"/>
        <stop offset="0.916368" stop-color="#1b68b3"/>
        <stop offset="0.96007" stop-color="#3891e1"/>
        <stop offset="1" stop-color="#1b68b3"/>
    </linearGradient>
    <g fill-rule="evenodd">
        <path d="m 121 10.578125 v 2.960937 c 0 0.671876 -0.214844 1.347657 -0.65625 1.921876 l -10.691406 13.835937 c -1.0625 1.371094 -3.039063 1.625 -4.410156 0.5625 c -1.375 -1.0625 -1.628907 -3.035156 -0.566407 -4.410156 l 10.691407 -13.835938 c 1.0625 -1.375 5.632812 -1.035156 5.632812 -1.035156 z m 0 0" fill="#75970b"/>
        <path d="m 119.777344 8.21875 c 1.375 1.0625 1.628906 3.039062 0.566406 4.414062 l -10.691406 13.832032 c -1.0625 1.375 -3.039063 1.628906 -4.410156 0.566406 c -1.375 -1.0625 -1.628907 -3.039062 -0.566407 -4.414062 l 10.691407 -13.832032 c 1.0625 -1.375 3.035156 -1.628906 4.410156 -0.566406 z m 0 0" fill="#8ab000"/>
        <path d="m 7 10.605469 v 2.292969 c 0 0.675781 0.214844 1.355468 0.65625 1.929687 l 10.691406 13.832031 c 1.0625 1.375 3.035156 1.628906 4.410156 0.566406 s 1.628907 -3.039062 0.566407 -4.414062 l -10.691407 -13.832031 c -1.0625 -1.375 -5.632812 -0.375 -5.632812 -0.375 z m 0 0" fill="#75970b"/>
        <path d="m 8.222656 8.21875 c -1.375 1.0625 -1.628906 3.039062 -0.566406 4.414062 l 10.691406 13.832032 c 1.0625 1.375 3.035156 1.628906 4.410156 0.566406 s 1.628907 -3.039062 0.566407 -4.414062 l -10.691407 -13.832032 c -1.0625 -1.375 -3.035156 -1.628906 -4.410156 -0.566406 z m 0 0" fill="#8ab000"/>
    </g>
    <path d="m 23.753906 22.339844 h 80.488282 c 4.167968 0 7.546874 3.121094 7.546874 6.964844 v 16.253906 c 0 3.847656 -3.378906 6.964844 -7.546874 6.964844 h -80.488282 c -4.164062 0 -7.542968 -3.117188 -7.542968 -6.964844 v -16.253906 c 0 -3.84375 3.378906 -6.964844 7.542968 -6.964844 z m 0 0" fill="url(#a)"/>
    <path d="m 23.753906 19.511719 h 80.488282 c 4.167968 0 7.546874 3.117187 7.546874 6.964843 v 16.253907 c 0 3.84375 -3.378906 6.964843 -7.546874 6.964843 h -80.488282 c -4.164062 0 -7.542968 -3.121093 -7.542968 -6.964843 v -16.253907 c 0 -3.847656 3.378906 -6.964843 7.542968 -6.964843 z m 0 0" fill="#aeea00"/>
    <path d="m 23.753906 57.554688 h 80.492188 c 4.164062 0 7.542968 3.25 7.542968 7.257812 v 48.367188 c 0 4.007812 -3.378906 7.257812 -7.542968 7.257812 h -80.492188 c -4.164062 0 -7.542968 -3.25 -7.542968 -7.257812 v -48.367188 c 0 -4.007812 3.378906 -7.257812 7.542968 -7.257812 z m 0 0" fill="url(#b)"/>
    <path d="m 23.753906 54.726562 h 80.492188 c 4.164062 0 7.542968 3.246094 7.542968 7.253907 v 48.371093 c 0 4.007813 -3.378906 7.253907 -7.542968 7.253907 h -80.492188 c -4.164062 0 -7.542968 -3.246094 -7.542968 -7.253907 v -48.371093 c 0 -4.007813 3.378906 -7.253907 7.542968 -7.253907 z m 0 0" fill="#1976d2"/>
    <path d="m 64 71.703125 c -7.246094 0 -13.378906 4.992187 -15.175781 11.699219 h 8.082031 c 1.394531 -2.480469 4.011719 -4.152344 7.09375 -4.152344 c 4.558594 0 8.175781 3.613281 8.175781 8.175781 c 0 4.558594 -3.617187 8.171875 -8.175781 8.171875 c -3.289062 0 -6.066406 -1.890625 -7.367188 -4.652344 h -7.9375 c 1.617188 6.957032 7.878907 12.199219 15.304688 12.199219 c 8.636719 0 15.71875 -7.082031 15.71875 -15.71875 c 0 -8.640625 -7.082031 -15.722656 -15.71875 -15.722656 z m 0 0" fill="#0d47a1"/>
    <path d="m 33.549482 24.000769 c 0 5.274033 -4.275455 9.549478 -9.5495 9.549478 c -5.274044 0 -9.549499 -4.275445 -9.549499 -9.549478 c 0 -5.275585 4.275455 -9.551031 9.549499 -9.551031 c 5.274045 0 9.5495 4.275446 9.5495 9.551031 z m 0 0" fill="none" stroke="#0d47a1" stroke-linecap="round" stroke-width="1.9" transform="matrix(2.515266 0 0 2.515272 3.633662 27.057326)"/>
    <path d="m 48.28125 34.601562 v 3.160157 h -16.980469 v -3.160157 c 0 -4.6875 3.800781 -8.488281 8.488281 -8.488281 c 4.691407 0 8.492188 3.800781 8.492188 8.488281 z m 0 0" fill="#92c50b"/>
    <path d="m 48.28125 37.433594 c 0 4.6875 -3.800781 8.488281 -8.492188 8.488281 c -4.6875 0 -8.488281 -3.800781 -8.488281 -8.488281 s 3.800781 -8.488282 8.488281 -8.488282 c 4.691407 0 8.492188 3.800782 8.492188 8.488282 z m 0 0" fill="#ffffff"/>
    <path d="m 97.328125 34.601562 v 3.160157 h -16.980469 s 0 -2.9375 0 -3.160157 c 0 -4.6875 3.800782 -8.488281 8.488282 -8.488281 c 4.691406 0 8.492187 3.800781 8.492187 8.488281 z m 0 0" fill="#92c50b"/>
    <path d="m 97.328125 37.433594 c 0 4.6875 -3.800781 8.488281 -8.488281 8.488281 c -4.691406 0 -8.492188 -3.800781 -8.492188 -8.488281 s 3.800782 -8.488282 8.492188 -8.488282 c 4.6875 0 8.488281 3.800782 8.488281 8.488282 z m 0 0" fill="#ffffff"/>
</svg>
