<?xml version="1.0" encoding="UTF-8" standalone="no"?>
<svg
   height="128px"
   viewBox="0 0 128 128"
   width="128px"
   version="1.1"
   id="svg64"
   xmlns:xlink="http://www.w3.org/1999/xlink"
   xmlns="http://www.w3.org/2000/svg"
   xmlns:svg="http://www.w3.org/2000/svg">
  <defs
     id="defs68">
    <linearGradient
       id="linearGradient2851"
       gradientUnits="userSpaceOnUse">
      <stop
         offset="0"
         stop-color="#ec666d"
         id="stop2847"
         style="stop-color:#dcdcdc;stop-opacity:1;" />
      <stop
         offset="1"
         stop-color="#e01b24"
         id="stop2849"
         style="stop-color:#afafaf;stop-opacity:1;" />
    </linearGradient>
  </defs>
  <linearGradient
     id="a"
     gradientUnits="userSpaceOnUse"
     x1="11.99984"
     x2="115.99984"
     y1="66.000885"
     y2="66.000885"
     gradientTransform="matrix(0.99988733,0,0,1,0.00135204,0)">
    <stop
       offset="0"
       stop-color="#c01c28"
       id="stop2"
       style="stop-color:#a1a1a1;stop-opacity:1;" />
    <stop
       offset="0.0358087"
       stop-color="#961720"
       id="stop4"
       style="stop-color:#8a8a8a;stop-opacity:1;" />
    <stop
       offset="0.52132899"
       stop-color="#a81922"
       id="stop6"
       style="stop-color:#939393;stop-opacity:1;" />
    <stop
       offset="0.74583298"
       stop-color="#c01c28"
       id="stop8"
       style="stop-color:#a0a0a0;stop-opacity:1;" />
    <stop
       offset="0.89525402"
       stop-color="#e02432"
       id="stop10"
       style="stop-color:#b4b4b4;stop-opacity:1;" />
    <stop
       offset="1"
       stop-color="#c01c28"
       id="stop12"
       style="stop-color:#a1a1a1;stop-opacity:1;" />
  </linearGradient>
  <radialGradient
     id="b"
     cx="67.983978"
     cy="103.530678"
     gradientTransform="matrix(3.3731939,4.5e-7,-4.0995381e-7,3.085156,-217.32323,-237.10548)"
     gradientUnits="userSpaceOnUse"
     r="11.78418">
    <stop
       offset="0"
       stop-color="#e8434a"
       id="stop15"
       style="stop-color:#c7c7c7;stop-opacity:1;" />
    <stop
       offset="1"
       stop-color="#c01720"
       stop-opacity="0.988235"
       id="stop17"
       style="stop-color:#9d9d9d;stop-opacity:0.988235;" />
  </radialGradient>
  <radialGradient
     id="c"
     cx="119.526489"
     cy="111.188477"
     gradientTransform="matrix(3.0545988,4e-7,-3.7995719e-7,2.793766,-249.11716,-217.71022)"
     gradientUnits="userSpaceOnUse"
     r="11.78418">
    <stop
       offset="0"
       stop-color="#e8434a"
       id="stop20"
       style="stop-color:#c7c7c7;stop-opacity:1;" />
    <stop
       offset="1"
       stop-color="#730e13"
       stop-opacity="0.988235"
       id="stop22"
       style="stop-color:#737373;stop-opacity:0.988235;" />
  </radialGradient>
  <linearGradient
     id="d"
     gradientUnits="userSpaceOnUse">
    <stop
       offset="0"
       stop-color="#ec666d"
       id="stop25"
       style="stop-color:#dbdbdb;stop-opacity:1;" />
    <stop
       offset="1"
       stop-color="#e01b24"
       id="stop27"
       style="stop-color:#b0b0b0;stop-opacity:1;" />
  </linearGradient>
  <radialGradient
     id="e"
     cx="110.567627"
     cy="186.67276"
     gradientTransform="matrix(3.8861211,0,0,2.259255,-318.71978,-408.49171)"
     r="11.299807"
     xlink:href="#d" />
  <radialGradient
     id="f"
     cx="17.692747"
     cy="185.886307"
     gradientTransform="matrix(6.22075,0,0,4.238395,-92.370052,-775.52356)"
     r="11.30078"
     xlink:href="#linearGradient2851" />
  <linearGradient
     id="g"
     gradientUnits="userSpaceOnUse">
    <stop
       offset="0"
       stop-color="#ffffff"
       id="stop32" />
    <stop
       offset="1"
       stop-color="#bebebe"
       id="stop34" />
  </linearGradient>
  <radialGradient
     id="h"
     cx="36.000001"
     cy="36.399993"
     r="9.6"
     xlink:href="#g" />
  <radialGradient
     id="i"
     cx="36.000001"
     cy="86.399993"
     r="9.6"
     xlink:href="#g" />
  <radialGradient
     id="j"
     cx="92"
     cy="36.399993"
     r="9.6"
     xlink:href="#g" />
  <radialGradient
     id="k"
     cx="92"
     cy="86.399993"
     r="9.6"
     xlink:href="#g" />
  <radialGradient
     id="l"
     cx="63.999999"
     cy="62.399996"
     r="9.6"
     xlink:href="#g" />
  <path
     d="m 19.999099,16 h 87.990081 c 4.41748,0 7.9991,3.582031 7.9991,8 v 84 c 0,4.41797 -3.58162,8 -7.9991,8 H 19.999099 C 15.581627,116 12,112.41797 12,108 V 24 c 0,-4.417969 3.581627,-8 7.999099,-8 z m 0,0"
     fill="url(#a)"
     id="path42"
     style="fill:url(#a);stroke-width:0.999944" />
  <path
     d="m 19.999099,12 h 87.990081 c 4.41748,0 7.9991,3.582031 7.9991,8 v 76 c 0,4.41797 -3.58162,8 -7.9991,8 H 19.999099 C 15.581627,104 12,100.41797 12,96 V 20 c 0,-4.417969 3.581627,-8 7.999099,-8 z m 0,0"
     fill="#ed333b"
     id="path44"
     style="fill:#bfbfbf;fill-opacity:1;stroke-width:0.999944" />
  <path
     d="M 12,77.664062 V 96 c 0,0.07813 0.0078,0.15625 0.01172,0.234375 V 108 c 0,4.43359 3.566004,8 7.999098,8 h 1.32407 c 4.046418,-4.75781 8.909152,-8.81641 14.385097,-12 H 35.55594 C 24.885267,97.964844 16.601044,88.703125 12,77.664062 Z m 0,0"
     fill="url(#b)"
     id="path46"
     style="fill:url(#b);stroke-width:0.999944" />
  <path
     d="M 115.98828,77.660156 C 111.39114,88.699219 103.10692,97.960938 92.436248,104 c 6.526609,1.75 11.643212,7.23828 15.689642,11.99219 C 112.49649,115.92969 116,112.39063 116,108 V 96 c 0,3.605469 -2.36301,6.63672 -5.62437,7.64453 -0.50385,0.15235 -1.02722,0.26172 -1.56623,0.3125 0.53901,-0.0508 1.06238,-0.16015 1.56623,-0.3125 3.25745,-1.01172 5.61265,-4.042968 5.61265,-7.64453 z m 0,0"
     fill="url(#c)"
     id="path48"
     style="fill:url(#c);stroke-width:0.999944" />
  <path
     d="m 93.393172,12 c 10.217598,6.046875 18.138578,15.085938 22.595108,25.785156 V 20 c 0,-4.433594 -3.56601,-8 -7.9991,-8 z m 0,0"
     fill="url(#e)"
     id="path50"
     style="fill:url(#e);stroke-width:0.999944" />
  <path
     d="M 19.999099,12 C 15.566004,12 12,15.566406 12,20 V 37.785156 C 16.456529,27.085938 24.381417,18.046875 34.599015,12 Z m 0,0"
     fill="url(#f)"
     id="path52"
     style="fill:url(#f);stroke-width:0.999944" />
  <path
     d="m 63.99414,33.000001 c -13.190598,0 -23.910354,10.720957 -23.910354,23.913042 v 9.782609 c 0,0.36515 0.01272,0.726053 0.02544,1.086956 h 6.546481 c -0.02123,-0.360903 -0.05095,-0.717561 -0.05095,-1.086956 v -9.782609 c 0,-9.689197 7.701238,-17.391304 17.389344,-17.391304 9.688105,0 17.389345,7.702107 17.389345,17.391304 v 9.782609 c 0,0.369395 -0.02972,0.726053 -0.05519,1.086956 h 6.546476 c 0.01698,-0.360903 0.02972,-0.721806 0.02972,-1.086956 v -9.782609 c 0,-13.192085 -10.719749,-23.913042 -23.910349,-23.913042 z m 0,0"
     fill="#3d3846"
     id="path649"
     style="fill:#332e38;fill-opacity:1;stroke-width:1.0869" />
  <path
     d="m 45.471261,60.173913 h 3.353903 c 2.976057,0 5.38747,2.411684 5.38747,5.388077 v 9.876019 c 0,2.976393 -2.411413,5.388077 -5.38747,5.388077 h -3.353903 c -2.976056,0 -5.387475,-2.411684 -5.387475,-5.388077 V 65.56199 c 0,-2.976393 2.411419,-5.388077 5.387475,-5.388077 z m 0,0"
     fill="#3d3846"
     id="path651"
     style="fill:#332e38;fill-opacity:1;stroke-width:1.0869" />
  <path
     d="m 79.163117,60.173913 h 3.353902 c 2.976058,0 5.38747,2.411684 5.38747,5.388077 v 9.876019 c 0,2.976393 -2.411412,5.388077 -5.38747,5.388077 h -3.353902 c -2.976057,0 -5.38747,-2.411684 -5.38747,-5.388077 V 65.56199 c 0,-2.976393 2.411413,-5.388077 5.38747,-5.388077 z m 0,0"
     fill="#3d3846"
     id="path653"
     style="fill:#332e38;fill-opacity:1;stroke-width:1.0869" />
</svg>
