<?xml version="1.0" encoding="UTF-8" standalone="no"?>
<svg
   height="128px"
   viewBox="0 0 128 128"
   width="128px"
   version="1.1"
   id="svg36"
   xml:space="preserve"
   xmlns="http://www.w3.org/2000/svg"
   xmlns:svg="http://www.w3.org/2000/svg"><defs
     id="defs40" /><linearGradient
     id="a"
     gradientUnits="userSpaceOnUse"
     x1="11.999989"
     x2="115.999989"
     y1="64"
     y2="64"><stop
       offset="0"
       stop-color="#3d3846"
       id="stop2" /><stop
       offset="0.05"
       stop-color="#77767b"
       id="stop4" /><stop
       offset="0.1"
       stop-color="#5e5c64"
       id="stop6" /><stop
       offset="0.899999"
       stop-color="#504e56"
       id="stop8" /><stop
       offset="0.95"
       stop-color="#77767b"
       id="stop10" /><stop
       offset="1"
       stop-color="#3d3846"
       id="stop12" /></linearGradient><linearGradient
     id="b"
     gradientUnits="userSpaceOnUse"
     x1="12"
     x2="112.041023"
     y1="60"
     y2="80.988281"><stop
       offset="0"
       stop-color="#77767b"
       id="stop15" /><stop
       offset="0.384443"
       stop-color="#9a9996"
       id="stop17" /><stop
       offset="0.720567"
       stop-color="#77767b"
       id="stop19" /><stop
       offset="1"
       stop-color="#68666f"
       id="stop21" /></linearGradient><path
     d="m 20 22 h 88 c 4.417969 0 8 3.582031 8 8 v 78 c 0 4.417969 -3.582031 8 -8 8 h -88 c -4.417969 0 -8 -3.582031 -8 -8 v -78 c 0 -4.417969 3.582031 -8 8 -8 z m 0 0"
     fill="url(#a)"
     id="path24" /><path
     d="m 20 12 h 88 c 4.417969 0 8 3.582031 8 8 v 80 c 0 4.417969 -3.582031 8 -8 8 h -88 c -4.417969 0 -8 -3.582031 -8 -8 v -80 c 0 -4.417969 3.582031 -8 8 -8 z m 0 0"
     fill="url(#b)"
     id="path26" /><path
     d="m 20 14 h 88 c 3.3125 0 6 2.6875 6 6 v 80 c 0 3.3125 -2.6875 6 -6 6 h -88 c -3.3125 0 -6 -2.6875 -6 -6 v -80 c 0 -3.3125 2.6875 -6 6 -6 z m 0 0"
     fill="#241f31"
     id="path28" /><g
     id="g2682"
     transform="matrix(0.95890411,0,0,0.95890411,2.3429527,2.4657534)"><path
       id="path417"
       style="fill:#000000;fill-opacity:1;stroke:#ffffff;stroke-width:3;stroke-miterlimit:3.3;stroke-dasharray:none;stroke-opacity:1;paint-order:stroke fill markers"
       d="M 67.478213,25 A 35.000008,35.000008 0 0 0 32.478206,60.000007 35.000008,35.000008 0 0 0 67.478213,95 35.000008,35.000008 0 0 0 93.868578,82.877017 L 66.533775,60.715982 95.521794,39.065844 A 35.000008,35.000008 0 0 0 67.478213,25 Z" /><path
       style="fill:#ffffff;stroke:none;stroke-width:0.921053px;stroke-linecap:butt;stroke-linejoin:miter;stroke-opacity:1"
       d="M 71.536768,64.775769 79.065693,61.611408 78.6231,70.513389 Z"
       id="path576" /><path
       style="fill:#ffffff;stroke:none;stroke-width:0.921053px;stroke-linecap:butt;stroke-linejoin:miter;stroke-opacity:1"
       d="m 78.616901,70.519709 7.041864,-3.560384 0.06705,9.31633 z"
       id="path576-3" /><path
       style="fill:#ffffff;stroke:none;stroke-width:0.921053px;stroke-linecap:butt;stroke-linejoin:miter;stroke-opacity:1"
       d="m 79.046941,51.370308 1.930701,7.985829 -8.866505,-2.806566 z"
       id="path576-35" /><path
       style="fill:#ffffff;stroke:none;stroke-width:0.921053px;stroke-linecap:butt;stroke-linejoin:miter;stroke-opacity:1"
       d="m 93.654093,40.458189 1.125139,8.225191 -8.486645,-2.723598 z"
       id="path576-7" /><path
       style="fill:#ffffff;stroke:none;stroke-width:0.921053px;stroke-linecap:butt;stroke-linejoin:miter;stroke-opacity:1"
       d="m 86.299292,45.956531 1.683851,7.780375 -8.939334,-2.365381 z"
       id="path576-3-5" /><path
       style="fill:#ffffff;stroke:none;stroke-width:0.921053px;stroke-linecap:butt;stroke-linejoin:miter;stroke-opacity:1"
       d="m 85.722428,76.278564 6.985863,-3.929066 -0.238543,9.390924 z"
       id="path576-6" /><path
       id="path872"
       style="fill:#ffffff;stroke-width:0.801252;stroke-miterlimit:3.3;paint-order:stroke fill markers"
       d="m 68.582915,40.980159 a 4.582915,4.582915 0 0 1 -4.58291,4.582914 4.582915,4.582915 0 0 1 -4.58292,-4.582914 4.582915,4.582915 0 0 1 4.58292,-4.582916 4.582915,4.582915 0 0 1 4.58291,4.582916 z" /></g></svg>
