<?xml version="1.0" encoding="UTF-8" standalone="no"?>
<svg
   height="128px"
   viewBox="0 0 128 128"
   width="128px"
   version="1.1"
   id="svg1457"
   xmlns:xlink="http://www.w3.org/1999/xlink"
   xmlns="http://www.w3.org/2000/svg"
   xmlns:svg="http://www.w3.org/2000/svg">
  <defs
     id="defs1461">
    <linearGradient
       xlink:href="#a"
       id="linearGradient2910"
       x1="-58.406715"
       y1="161.93753"
       x2="53.593285"
       y2="161.93753"
       gradientUnits="userSpaceOnUse"
       gradientTransform="translate(67.199684,-86.88675)" />
  </defs>
  <linearGradient
     id="a"
     gradientUnits="userSpaceOnUse"
     x1="8"
     x2="120.0000075"
     y1="123.99999225"
     y2="123.99999225"
     gradientTransform="translate(-271.8473,-50.5625)">
    <stop
       offset="0"
       stop-color="#e5a50a"
       id="stop1405"
       style="stop-color:#4b2e5c;stop-opacity:1;" />
    <stop
       offset="0.0357143"
       stop-color="#f6d32d"
       id="stop1407"
       style="stop-color:#8451a1;stop-opacity:1;" />
    <stop
       offset="0.0714286"
       stop-color="#e5a50a"
       id="stop1409"
       style="stop-color:#4b2e5c;stop-opacity:1;" />
    <stop
       offset="0.92857099"
       stop-color="#e5a50a"
       id="stop1411"
       style="stop-color:#4b2e5c;stop-opacity:1;" />
    <stop
       offset="0.96428603"
       stop-color="#f6d32d"
       id="stop1413"
       style="stop-color:#8451a1;stop-opacity:1;" />
    <stop
       offset="1"
       stop-color="#e5a50a"
       id="stop1415"
       style="stop-color:#4b2e5c;stop-opacity:1;" />
  </linearGradient>
  <linearGradient
     id="b"
     gradientUnits="userSpaceOnUse"
     x1="46.000003"
     x2="82.000003"
     y1="71.4"
     y2="71.4">
    <stop
       offset="0"
       stop-color="#1f8455"
       id="stop1418" />
    <stop
       offset="0.5"
       stop-color="#26a269"
       id="stop1420" />
    <stop
       offset="1"
       stop-color="#1f8455"
       stop-opacity="0.976471"
       id="stop1422" />
  </linearGradient>
  <g
     id="g5428"
     transform="translate(-0.7929694,-0.050781)">
    <path
       id="path1427-3"
       style="fill:url(#linearGradient2910);fill-opacity:1"
       d="m 16.792969,30.050781 c -4.417965,0 -8.0000001,3.58204 -8.0000001,8 v 56 c 0,4.417969 3.5820351,7.999999 8.0000001,7.999999 h 71.042969 v 18 l 18.000002,-18 h 6.95703 c 4.41796,0 8,-3.58203 8,-7.999999 v -56 c 0,-4.41796 -3.58204,-8 -8,-8 z" />
    <path
       id="path1427"
       style="fill:#8451a1;fill-opacity:1"
       d="m 16.792969,26.050781 c -4.417965,0 -8.0000002,3.582036 -8.0000002,8 v 56 c 0,4.417966 3.5820352,8 8.0000002,8 H 87.835938 V 116.05078 L 105.83594,98.050781 h 6.95703 c 4.41796,0 8,-3.582034 8,-8 v -56 c 0,-4.417964 -3.58204,-8 -8,-8 z" />
  </g>
  <path
     id="path7219"
     d="M 70.969178,41.468726 75.375084,37 c 20.508092,16.930427 14.833564,34.97593 2.782683,35.514587 -13.414701,0.0784 -16.001029,-17.953286 -0.927564,-20.93244 -1.030402,-3.436584 -3.720989,-7.089619 -6.261025,-10.113421 z"
     style="fill:#ffffff;fill-opacity:1;fill-rule:evenodd;stroke:none;stroke-width:0.449488px;stroke-linecap:butt;stroke-linejoin:miter;stroke-opacity:1" />
  <path
     id="path7211"
     d="m 51.120149,71.909275 c 0.590798,3.252667 3.221702,7.328361 6.258795,10.289135 L 52.742801,87 C 25.865152,61.72372 46.005769,50.506432 49.961117,51.214646 67.932652,52.75368 60.75883,74.575473 51.120149,71.909275 Z"
     style="fill:#ffffff;fill-opacity:1;fill-rule:evenodd;stroke:none;stroke-width:0.449488px;stroke-linecap:butt;stroke-linejoin:miter;stroke-opacity:1" />
</svg>
