<?xml version="1.0" encoding="UTF-8" standalone="no"?>
<svg
   width="128"
   height="128"
   viewBox="0 0 128 128"
   fill="none"
   version="1.1"
   id="svg24"
   xmlns:xlink="http://www.w3.org/1999/xlink"
   xmlns="http://www.w3.org/2000/svg"
   xmlns:svg="http://www.w3.org/2000/svg">
  <defs
     id="defs28">
    <linearGradient
       id="linearGradient943">
      <stop
         style="stop-color:#d13700;stop-opacity:1;"
         offset="0"
         id="stop939" />
      <stop
         style="stop-color:#ff6c37;stop-opacity:1;"
         offset="0.06743836"
         id="stop947" />
      <stop
         style="stop-color:#d13700;stop-opacity:1;"
         offset="0.15186353"
         id="stop949" />
      <stop
         style="stop-color:#d13700;stop-opacity:1;"
         offset="0.85172737"
         id="stop951" />
      <stop
         style="stop-color:#ff6c37;stop-opacity:1;"
         offset="0.92683488"
         id="stop953" />
      <stop
         style="stop-color:#d13700;stop-opacity:1;"
         offset="1"
         id="stop941" />
    </linearGradient>
    <linearGradient
       xlink:href="#linearGradient943"
       id="linearGradient945"
       x1="43.137015"
       y1="101.03553"
       x2="151.13709"
       y2="101.03553"
       gradientUnits="userSpaceOnUse"
       gradientTransform="translate(-33.137052,-35.035531)" />
  </defs>
  <path
     d="M 70.877888,12.439867 C 60.284437,11.079482 49.52561,12.891067 39.9616,17.645536 30.397759,22.4 22.458576,29.883761 17.148079,39.150433 c -5.310476,9.266841 -7.7537338,19.900119 -7.020786,30.555336 0.732947,10.65521 4.609179,20.85413 11.13849,29.30614 6.52931,8.452351 15.418455,14.778451 25.543289,18.178761 10.124665,3.39998 21.030306,3.72128 31.337896,0.92341 10.30725,-2.79822 19.55374,-8.59005 26.569352,-16.64314 7.01561,-8.053431 11.48547,-18.005971 12.84458,-28.599761 1.82216,-14.204027 -2.07225,-28.550245 -10.827,-39.883092 C 97.979488,21.655205 85.081918,14.263889 70.877888,12.439867 Z"
     fill="#ff6c37"
     id="path2-3"
     style="fill:url(#linearGradient945);fill-opacity:1;stroke-width:3.375" />
  <path
     d="M 70.877887,8.4398645 C 60.284434,7.0794794 49.525607,8.891065 39.961597,13.645533 30.397756,18.399998 22.458573,25.883759 17.148076,35.150431 11.8376,44.417272 9.3943428,55.05055 10.127291,65.705765 c 0.732946,10.655215 4.609179,20.85413 11.138489,29.306144 6.52931,8.452351 15.418455,14.778451 25.543289,18.178761 10.124665,3.39998 21.030305,3.72128 31.337895,0.92341 10.307252,-2.79822 19.553742,-8.59006 26.569356,-16.643145 7.01561,-8.053427 11.48547,-18.005967 12.84458,-28.599757 C 119.38306,54.66715 115.48865,40.320932 106.73389,28.988085 97.979481,17.655203 85.081915,10.263887 70.877887,8.4398645 Z"
     fill="#ff6c37"
     id="path2"
     style="stroke-width:3.375" />
  <path
     d="m 49.039944,65.412477 c 0.02093,0.04286 0.05636,0.07695 0.09956,0.09652 0.0432,0.01991 0.09214,0.02396 0.138037,0.01148 l 8.640002,-1.863 -3.634201,-3.682801 -5.178601,5.178601 c -0.04084,0.02768 -0.06986,0.06919 -0.08201,0.117113 -0.01181,0.04792 -0.0057,0.09855 0.01721,0.142087 z"
     fill="#ffffff"
     id="path4"
     style="stroke-width:3.375" />
  <path
     d="m 89.497429,28.315143 c -1.2042,0.0012 -2.392538,0.272498 -3.477938,0.793834 -1.085401,0.521337 -2.039851,1.279463 -2.793489,2.218591 -0.753637,0.939094 -1.286887,2.03526 -1.5606,3.207769 -0.27405,1.172509 -0.281475,2.391492 -0.02194,3.567241 0.259876,1.175749 0.779963,2.278294 1.521788,3.226467 0.742163,0.948139 1.687501,1.717639 2.766488,2.252239 1.078988,0.534601 2.263951,0.820126 3.468151,0.835988 1.203863,0.01586 2.395913,-0.238612 3.488739,-0.744525 l -5.475602,-5.475601 c -0.06278,-0.06271 -0.112725,-0.137194 -0.146812,-0.219207 -0.03409,-0.08201 -0.05164,-0.169897 -0.05164,-0.258693 0,-0.0888 0.01755,-0.176715 0.05164,-0.258728 0.03409,-0.08198 0.08404,-0.156465 0.146812,-0.219173 l 7.155004,-7.149601 c -1.437075,-1.155331 -3.226838,-1.782473 -5.070601,-1.776601 z"
     fill="#ffffff"
     id="path6"
     style="stroke-width:3.375" />
  <path
     d="m 95.550493,31.020206 -6.706802,6.679802 5.259601,5.259601 c 0.387451,-0.272025 0.748913,-0.579487 1.080001,-0.918 1.441463,-1.45125 2.280488,-3.394171 2.348663,-5.438577 0.06817,-2.044373 -0.6399,-4.03883 -1.981463,-5.582826 z"
     fill="#ffffff"
     id="path8"
     style="stroke-width:3.375" />
  <path
     d="m 82.131152,43.348747 h -0.1188 c -0.139387,-0.0013 -0.278775,0.01148 -0.4158,0.0378 h -0.0486 c -0.150525,0.0324 -0.29835,0.0756 -0.4428,0.1296 l -0.1134,0.054 c -0.108675,0.04523 -0.2133,0.09922 -0.3132,0.162 l -0.1188,0.0756 c -0.130613,0.09011 -0.253463,0.191363 -0.3672,0.3024 l -19.888205,19.893267 2.462401,2.462401 21.060004,-18.483867 c 0.119138,-0.104625 0.227476,-0.220388 0.324001,-0.3456 l 0.0918,-0.1188 c 0.07189,-0.105638 0.137025,-0.215663 0.1944,-0.3294 0.0324,-0.0648 0.0594,-0.1296 0.0864,-0.1944 0.03645,-0.0864 0.06716,-0.174825 0.0918,-0.2646 0,-0.0648 0.0378,-0.1296 0.054,-0.1944 0.02666,-0.133988 0.04489,-0.268988 0.054,-0.405 v -0.178201 c 0,-0.0972 0,-0.1944 0,-0.2916 0,-0.0972 0,-0.1296 -0.027,-0.1944 -0.0999,-0.509625 -0.348638,-0.978412 -0.714825,-1.346625 -0.366188,-0.367875 -0.833288,-0.619313 -1.342576,-0.721575 h -0.1026 c -0.13365,-0.02599 -0.268987,-0.04219 -0.405,-0.0486 z"
     fill="#ffffff"
     id="path10"
     style="stroke-width:3.375" />
  <path
     d="m 55.212146,59.019213 4.082401,4.060801 19.942204,-19.942205 c 0.649013,-0.6345 1.494788,-1.0287 2.397601,-1.1178 -3.526201,-2.700001 -7.371002,-1.9926 -26.422206,16.999204 z"
     fill="#ffffff"
     id="path12"
     style="stroke-width:3.375" />
  <path
     d="m 84.95029,48.759548 -0.243,0.2376 -21.060005,18.478805 3.580201,3.5748 C 76.105088,62.653751 83.98369,54.65635 84.95029,48.759548 Z"
     fill="#ffffff"
     id="path14"
     style="stroke-width:3.375" />
  <path
     d="m 32.419314,92.050683 c 0.01093,0.03848 0.03341,0.07223 0.06429,0.09754 0.03092,0.02498 0.06878,0.04016 0.108506,0.04286 l 9.179969,0.631801 -5.146168,-5.146202 -4.163401,4.158001 c -0.027,0.02835 -0.04539,0.06345 -0.05306,0.101588 -0.0076,0.03848 -0.0042,0.07796 0.0099,0.114412 z"
     fill="#ffffff"
     id="path16"
     style="stroke-width:3.375" />
  <path
     d="m 37.586643,86.720882 5.426967,5.427001 c 0.06443,0.06885 0.150627,0.1134 0.244047,0.126225 0.09342,0.01282 0.188426,-0.0071 0.268953,-0.05603 0.08414,-0.04185 0.151167,-0.111375 0.189574,-0.1971 0.03851,-0.08573 0.04593,-0.18225 0.02103,-0.2727 l -0.9126,-3.898801 c -0.0591,-0.252787 -0.03223,-0.518062 0.07634,-0.753637 0.10854,-0.235575 0.292612,-0.428288 0.523057,-0.547763 9.514735,-4.768201 17.188137,-9.676802 22.820338,-14.580003 l -3.780001,-3.780001 -8.100001,1.7442 z"
     fill="#ffffff"
     id="path18"
     style="stroke-width:3.375" />
  <path
     d="m 61.304022,67.043615 -2.0304,-2.0304 -2.808001,2.8026 c -0.02025,0.0243 -0.03139,0.05501 -0.03139,0.0864 0,0.03173 0.01114,0.0621 0.03139,0.0864 0.01282,0.02869 0.03611,0.05197 0.0648,0.0648 0.02902,0.01283 0.06142,0.01485 0.0918,0.0054 z"
     fill="#ffffff"
     id="path20"
     style="stroke-width:3.375" />
  <path
     d="m 95.739493,35.372979 c -0.02767,-0.08498 -0.07324,-0.163047 -0.13365,-0.22896 -0.06008,-0.06591 -0.133988,-0.118159 -0.216338,-0.153192 -0.08201,-0.03503 -0.170775,-0.05208 -0.260212,-0.04998 -0.08944,0.0021 -0.177188,0.02332 -0.25785,0.0622 -0.08033,0.03888 -0.151538,0.09453 -0.208913,0.163215 -0.05704,0.06872 -0.09889,0.148837 -0.122512,0.235035 -0.02362,0.0862 -0.02869,0.176445 -0.01451,0.264701 0.01418,0.08826 0.04691,0.172497 0.09619,0.246983 0.161325,0.324776 0.22545,0.689276 0.184275,1.049524 -0.04118,0.360281 -0.185963,0.700954 -0.416475,0.980876 -0.0756,0.09146 -0.123863,0.202568 -0.138713,0.320355 -0.01519,0.117788 0.0037,0.237432 0.054,0.344959 0.05029,0.107562 0.130275,0.198552 0.230513,0.262407 0.0999,0.06386 0.216337,0.09794 0.3348,0.09828 0.0918,-9.79e-4 0.18225,-0.02173 0.265275,-0.06088 0.08303,-0.03915 0.156262,-0.09575 0.215325,-0.165915 0.382387,-0.464704 0.62235,-1.029781 0.6912,-1.627493 0.06885,-0.597679 -0.03611,-1.202581 -0.3024,-1.742108 z"
     fill="#ff6c37"
     id="path22"
     style="stroke-width:3.375" />
</svg>
