<?xml version="1.0" encoding="UTF-8" standalone="no"?>
<svg
   width="128"
   height="128"
   version="1"
   id="svg24"
   xmlns:xlink="http://www.w3.org/1999/xlink"
   xmlns="http://www.w3.org/2000/svg"
   xmlns:svg="http://www.w3.org/2000/svg">
  <defs
     id="defs28">
    <linearGradient
       id="linearGradient1096">
      <stop
         style="stop-color:#606061;stop-opacity:1;"
         offset="0"
         id="stop1084" />
      <stop
         style="stop-color:#afafb1;stop-opacity:1;"
         offset="0.0400002"
         id="stop1086" />
      <stop
         style="stop-color:#5f5f61;stop-opacity:1;"
         offset="0.07"
         id="stop1088" />
      <stop
         style="stop-color:#5f5f61;stop-opacity:1;"
         offset="0.93000001"
         id="stop1090" />
      <stop
         style="stop-color:#afafb1;stop-opacity:1;"
         offset="0.95999998"
         id="stop1092" />
      <stop
         style="stop-color:#515152;stop-opacity:1;"
         offset="1"
         id="stop1094" />
    </linearGradient>
    <linearGradient
       id="linearGradient903">
      <stop
         style="stop-color:#464647;stop-opacity:1;"
         offset="0"
         id="stop899" />
      <stop
         style="stop-color:#afafb1;stop-opacity:1;"
         offset="0.0400002"
         id="stop907" />
      <stop
         style="stop-color:#464647;stop-opacity:1;"
         offset="0.07"
         id="stop909" />
      <stop
         style="stop-color:#464647;stop-opacity:1;"
         offset="0.93000001"
         id="stop911" />
      <stop
         style="stop-color:#afafb1;stop-opacity:1;"
         offset="0.95999998"
         id="stop915" />
      <stop
         style="stop-color:#464647;stop-opacity:1;"
         offset="1"
         id="stop901" />
    </linearGradient>
    <linearGradient
       xlink:href="#linearGradient903"
       id="linearGradient905"
       x1="4"
       y1="35.060535"
       x2="60"
       y2="35.060535"
       gradientUnits="userSpaceOnUse" />
    <linearGradient
       xlink:href="#linearGradient1096"
       id="linearGradient1286"
       x1="-267.88599"
       y1="-16.970564"
       x2="-211.88597"
       y2="-16.970564"
       gradientUnits="userSpaceOnUse"
       gradientTransform="matrix(1.8571425,0,0,1.8571425,509.50243,99.231038)" />
  </defs>
  <path
     style="fill:#2e2e2f;fill-opacity:1;stroke-width:2.32143"
     d="M 45.423362,97.428568 36.137649,88.142856 H 18.87642 V 23.142861 h 90.24713 V 88.142856 H 91.851943 l -9.285713,9.285712 z"
     id="path6-2-6-2-9" />
  <path
     id="path4-6-0-3"
     style="fill:url(#linearGradient1286);fill-opacity:1;stroke-width:1.85714"
     d="m 19.428567,23.142865 c -4.115428,0 -7.42857,3.313149 -7.42857,7.42857 v 66.85713 c 0,4.115415 3.313142,7.428565 7.42857,7.428565 h 14.857158 l 7.42857,7.42857 h 44.57142 l 7.42857,-7.42857 h 14.857145 c 4.11542,0 7.42857,-3.31315 7.42857,-7.428565 v -66.85713 c 0,-4.115421 -3.31315,-7.42857 -7.42857,-7.42857 z m -0.551349,7.42857 H 109.12276 V 95.571422 H 91.849881 l -9.285712,9.285708 H 45.421319 L 36.135606,95.571422 H 18.877218 Z" />
  <path
     id="path4-6-0"
     style="fill:#afafb1;stroke-width:1.85714"
     d="m 19.428567,15.714295 c -4.115428,0 -7.42857,3.313149 -7.42857,7.42857 v 66.85713 c 0,4.115419 3.313142,7.42857 7.42857,7.42857 h 14.85714 l 7.42857,7.428565 h 44.57142 l 7.42857,-7.428565 h 14.857143 c 4.11542,0 7.42857,-3.313151 7.42857,-7.42857 v -66.85713 c 0,-4.115421 -3.31315,-7.42857 -7.42857,-7.42857 z m -0.551349,7.42857 H 109.12274 V 88.142852 H 91.849863 L 82.56415,97.428565 H 45.4213 l -9.285712,-9.285713 h -17.25837 z" />
  <g
     id="g1626"
     transform="matrix(1.8571425,0,0,1.8571425,394.93543,134.69355)">
    <rect
       width="3.6977713"
       height="4"
       x="-199.52759"
       y="56.065765"
       id="rect8-3-2"
       transform="scale(1,-1)"
       style="fill:#f8c44e;stroke-width:0.961479" />
    <rect
       width="3.6977713"
       height="4"
       x="-199.52759"
       y="52.071808"
       id="rect8-3-9-0"
       style="fill:#865f06;fill-opacity:1;stroke-width:0.961479"
       transform="scale(1,-1)" />
  </g>
  <g
     id="g1622"
     transform="matrix(1.8571425,0,0,1.8571425,394.97222,134.69355)">
    <rect
       width="3.6977713"
       height="4"
       x="-193.98093"
       y="56.065765"
       id="rect10-5-6"
       transform="scale(1,-1)"
       style="fill:#f8c44e;stroke-width:0.961479" />
    <rect
       width="3.6977713"
       height="4"
       x="-193.98093"
       y="52.071808"
       id="rect10-5-3-2"
       style="fill:#865f06;fill-opacity:1;stroke-width:0.961479"
       transform="scale(1,-1)" />
  </g>
  <g
     id="g1618"
     transform="matrix(1.8571425,0,0,1.8571425,395.00905,134.69355)">
    <rect
       width="3.6977713"
       height="4"
       x="-188.43428"
       y="56.065765"
       id="rect12-6-1"
       transform="scale(1,-1)"
       style="fill:#f8c44e;stroke-width:0.961479" />
    <rect
       width="3.6977713"
       height="4"
       x="-188.43428"
       y="52.071808"
       id="rect12-6-6-3"
       style="fill:#865f06;fill-opacity:1;stroke-width:0.961479"
       transform="scale(1,-1)" />
  </g>
  <g
     id="g1614"
     transform="matrix(1.8571425,0,0,1.8571425,395.04584,134.69355)">
    <rect
       width="3.6977713"
       height="4"
       x="-182.88762"
       y="56.065765"
       id="rect14-2-8"
       transform="scale(1,-1)"
       style="fill:#f8c44e;stroke-width:0.961479" />
    <rect
       width="3.6977713"
       height="4"
       x="-182.88762"
       y="52.071808"
       id="rect14-2-0-7"
       style="fill:#865f06;fill-opacity:1;stroke-width:0.961479"
       transform="scale(1,-1)" />
  </g>
  <g
     id="g1610"
     transform="matrix(1.8571425,0,0,1.8571425,395.08264,134.69355)">
    <rect
       width="3.6977713"
       height="4"
       x="-177.34096"
       y="56.065765"
       id="rect16-9-7"
       transform="scale(1,-1)"
       style="fill:#f8c44e;stroke-width:0.961479" />
    <rect
       width="3.6977713"
       height="4"
       x="-177.34096"
       y="52.071808"
       id="rect16-9-6-5"
       style="fill:#865f06;fill-opacity:1;stroke-width:0.961479"
       transform="scale(1,-1)" />
  </g>
  <g
     id="g1606"
     transform="matrix(1.8571425,0,0,1.8571425,394.86181,134.69355)">
    <rect
       width="3.6977713"
       height="4"
       x="-171.65558"
       y="56.065765"
       id="rect8-3-2-8"
       transform="scale(1,-1)"
       style="fill:#f8c44e;stroke-width:0.961479" />
    <rect
       width="3.6977713"
       height="4"
       x="-171.65558"
       y="52.071808"
       id="rect8-3-9-0-9"
       style="fill:#865f06;fill-opacity:1;stroke-width:0.961479"
       transform="scale(1,-1)" />
  </g>
  <g
     id="g1602"
     transform="matrix(1.8571425,0,0,1.8571425,394.89861,134.69355)">
    <rect
       width="3.6977713"
       height="4"
       x="-166.10892"
       y="56.065765"
       id="rect10-5-6-9"
       transform="scale(1,-1)"
       style="fill:#f8c44e;stroke-width:0.961479" />
    <rect
       width="3.6977713"
       height="4"
       x="-166.10892"
       y="52.071808"
       id="rect10-5-3-2-3"
       style="fill:#865f06;fill-opacity:1;stroke-width:0.961479"
       transform="scale(1,-1)" />
  </g>
  <g
     id="g1598"
     transform="matrix(1.8571425,0,0,1.8571425,394.93543,134.69355)">
    <rect
       width="3.6977713"
       height="4"
       x="-160.56227"
       y="56.065765"
       id="rect12-6-1-7"
       transform="scale(1,-1)"
       style="fill:#f8c44e;stroke-width:0.961479" />
    <rect
       width="3.6977713"
       height="4"
       x="-160.56227"
       y="52.071808"
       id="rect12-6-6-3-1"
       style="fill:#865f06;fill-opacity:1;stroke-width:0.961479"
       transform="scale(1,-1)" />
  </g>
  <g
     id="g858"
     transform="rotate(-0.28102064,94.301534,-3507.2495)">
    <path
       d="m 74.823537,46.928773 c -3.425781,2.964844 -5.601561,7.335938 -5.632811,12.222657 -0.0352,6.035156 3.21094,11.324218 8.070311,14.175781 0,0.04687 -0.004,0.09375 -0.004,0.140625 l -0.23437,38.722654 c -0.0273,4.51563 3.582041,8.17578 8.10157,8.20313 4.51953,0.0273 8.17578,-3.58594 8.20312,-8.10547 l 0.23438,-38.718752 c 0,-0.05078 0,-0.09766 -0.004,-0.144531 4.89063,-2.789063 8.203133,-8.039063 8.242193,-14.074219 0.0391,-6.839844 -4.140633,-12.722656 -10.097663,-15.179687 l -0.082,13.082031 -6.13281,3.019531 -6.09375,-3.09375 0.0781,-13.082031 c -1.1875,0.472656 -2.304689,1.078125 -3.335939,1.800781 -0.45703,0.320313 -0.89453,0.664063 -1.316411,1.03125 z m 8.31641,62.015627 c 0.54688,-0.48828 1.26953,-0.78516 2.0586,-0.78125 1.6875,0.0117 3.05078,1.38672 3.03906,3.07422 -0.008,1.6914 -1.38672,3.05078 -3.07422,3.03906 -1.6875,-0.008 -3.05078,-1.38672 -3.03906,-3.07422 0.004,-0.89844 0.39843,-1.70313 1.01562,-2.25781 z m 0,0"
       fill="#1a5fb4"
       id="path40" />
    <path
       d="m 74.835256,44.889711 c -3.42578,2.96875 -5.60156,7.339843 -5.6289,12.226562 -0.0391,6.035157 3.210931,11.324219 8.0664,14.171875 0,0.04687 -0.004,0.09375 -0.004,0.140625 l -0.23047,38.722657 c -0.0273,4.51953 3.582041,8.17578 8.10157,8.20312 4.51563,0.0273 8.17188,-3.58593 8.19922,-8.10156 l 0.23438,-38.722654 c 0,-0.05078 0,-0.09766 0,-0.144532 4.89062,-2.789062 8.203124,-8.039062 8.238284,-14.074218 0.043,-6.839844 -4.136724,-12.722656 -10.097663,-15.175782 l -0.0898,15.117188 -6.13282,3.019531 -6.09765,-3.097656 0.0898,-15.117187 c -1.1836,0.472656 -2.30079,1.078124 -3.33204,1.804687 -0.457031,0.320313 -0.894531,0.664063 -1.316401,1.027344 z m 8.316411,62.019529 c 0.54688,-0.49219 1.26953,-0.78906 2.058589,-0.78516 1.691411,0.0117 3.050791,1.39063 3.03907,3.07813 -0.008,1.6875 -1.38672,3.04687 -3.07422,3.03906 -1.6875,-0.0117 -3.04688,-1.39062 -3.03906,-3.07812 0.008,-0.89453 0.39843,-1.69922 1.015621,-2.25391 z m 0,0"
       fill="#62a0ea"
       id="path42" />
  </g>
</svg>
