<?xml version="1.0" encoding="UTF-8" standalone="no"?>
<svg
   width="128"
   height="128"
   version="1"
   id="svg12"
   xmlns:xlink="http://www.w3.org/1999/xlink"
   xmlns="http://www.w3.org/2000/svg"
   xmlns:svg="http://www.w3.org/2000/svg">
  <defs
     id="defs16">
    <linearGradient
       id="linearGradient3">
      <stop
         style="stop-color:#29123b;stop-opacity:1;"
         offset="0"
         id="stop3" />
      <stop
         style="stop-color:#9551c8;stop-opacity:1;"
         offset="0.40998209"
         id="stop6" />
      <stop
         style="stop-color:#29123b;stop-opacity:1;"
         offset="0.81141609"
         id="stop7" />
      <stop
         style="stop-color:#7b37ae;stop-opacity:1;"
         offset="1"
         id="stop9" />
    </linearGradient>
    <linearGradient
       xlink:href="#linearGradient3"
       id="linearGradient5"
       x1="-163.70491"
       y1="61.816402"
       x2="-55.70491"
       y2="61.816402"
       gradientUnits="userSpaceOnUse"
       gradientTransform="matrix(1.1111111,0,0,1.0925926,185.89434,-1.540143)" />
  </defs>
  <ellipse
     class="st0"
     cx="64"
     cy="66"
     id="circle3"
     style="fill:url(#linearGradient5);stroke-width:1.10181"
     rx="60"
     ry="59" />
  <ellipse
     class="st0"
     cx="64"
     cy="62"
     id="circle1"
     style="fill:#662d91;stroke-width:1.10181"
     rx="60"
     ry="59" />
  <path
     id="path11"
     style="fill:#ffffff;stroke-width:1.36592"
     class="st1"
     d="m 97.043697,35.107057 -2.20673,2.581493 c 1.826259,3.292338 2.549153,7.407762 2.130635,12.046966 0.951177,1.496518 1.826259,2.955623 2.5872,4.45214 1.597978,-7.482588 0.722898,-14.104678 -2.511105,-19.080599 z M 71.247792,27.100687 C 61.888215,29.158399 52.300357,34.658102 44.272429,42.589645 28.977511,57.629647 23.574829,77.346266 30.917911,88.832039 L 33.12464,86.250546 C 27.341488,75.924575 32.706123,58.452731 46.555252,44.834421 c 7.647458,-7.52 16.664611,-12.720399 25.415434,-14.628459 6.544093,-1.459105 12.327247,-0.935324 16.702658,1.421691 l 2.625247,-2.16995 C 86.086144,26.202777 79.123533,25.342279 71.247792,27.100687 Z m 16.093905,19.379904 -2.092588,2.469254 c 12.479435,14.62846 15.751481,32.175129 6.962611,40.780105 -4.147129,4.07801 -10.653176,5.61194 -18.186493,4.414727 -1.407741,0.860497 -2.85353,1.646169 -4.299318,2.357015 3.195954,0.823085 6.239718,1.27204 9.131294,1.27204 6.315812,0 11.756541,-1.945473 15.637341,-5.761593 C 104.53897,82.09771 101.15278,62.455916 87.341697,46.480591 Z M 33.467064,31.96437 c -5.364635,5.275225 -7.1148,13.393832 -4.984165,22.859306 1.788212,7.744479 6.011435,15.638609 12.098964,22.634829 l 2.092589,-2.469254 C 37.119581,68.441986 33.238781,61.183876 31.602758,54.112831 29.700405,45.769745 31.146193,38.6987 35.71184,34.209146 44.500711,25.566757 62.306733,28.78427 77.183133,41.055715 l 2.511105,-2.057713 C 63.486192,25.417106 43.511486,22.087353 33.467064,31.96437 Z m 45.009669,22.89672 c -0.152188,0.149651 -0.342424,0.299302 -0.532659,0.411541 0.989223,2.020299 1.597976,4.265076 1.597976,6.659504 0,8.417911 -6.962612,15.26448 -15.523199,15.26448 -2.435011,0 -4.717835,-0.561195 -6.772376,-1.571344 -0.152189,0.187065 -0.26633,0.374129 -0.418518,0.523782 -0.798989,0.785671 -1.788212,1.27204 -2.891576,1.421691 l -0.418518,1.084975 c 3.081812,1.870647 6.658235,2.955622 10.539035,2.955622 11.071694,0 20.050799,-8.829453 20.050799,-19.716619 0,-3.81612 -1.103364,-7.332936 -3.005718,-10.363385 l -1.103364,0.411543 c -0.228282,1.122388 -0.722895,2.132537 -1.521882,2.91821 z M 49.484875,69.078006 c 0.152188,-0.149651 0.342424,-0.299302 0.532659,-0.411542 -0.989223,-2.020299 -1.597977,-4.265075 -1.597977,-6.659503 0,-8.417911 6.962611,-15.26448 15.5232,-15.26448 2.435011,0 4.717835,0.561194 6.772376,1.571344 0.152189,-0.187065 0.26633,-0.37413 0.418518,-0.523782 0.798987,-0.785671 1.788212,-1.27204 2.891576,-1.421691 l 0.418518,-1.084976 c -3.081812,-1.870646 -6.658236,-2.955621 -10.539036,-2.955621 -11.071693,0 -20.050798,8.829453 -20.050798,19.716619 0,3.81612 1.103364,7.332936 3.043764,10.363385 l 1.103365,-0.411543 c 0.190235,-1.122388 0.684846,-2.132537 1.483835,-2.91821 z m 28.345058,-25.178909 -2.016495,5.08816 c -0.304375,-0.112238 -0.6468,-0.187064 -0.989223,-0.187064 -0.6468,0 -1.2936,0.261891 -1.788211,0.748259 -0.989225,0.972736 -0.989225,2.581493 0,3.554229 0.494611,0.486369 1.141411,0.748259 1.826259,0.748259 0.6468,0 1.293599,-0.26189 1.826257,-0.748259 0.760942,-0.748259 0.951177,-1.833234 0.570707,-2.731145 l 5.1744,-1.982885 21.420493,-25.06667 -0.45656,-0.448955 z M 58.768357,88.45791 c -2.967671,-1.683582 -5.288541,-3.367165 -8.02793,-5.611941 l -2.511105,2.057711 c 2.20673,1.870648 4.5276,3.55423 6.924564,5.08816 0.91313,-0.299304 2.815482,-1.047562 3.614471,-1.53393 z m -9.740046,9.278409 c 2.435011,0 5.022211,-0.299304 7.685505,-0.89791 9.359576,-2.057712 18.947434,-7.557415 26.975363,-15.488958 5.402682,-5.312637 9.778095,-11.410947 12.66967,-17.658907 l -2.511105,-2.319603 -0.190236,0.486368 -0.114141,0.261891 c -2.739388,5.98607 -6.924564,11.897315 -12.137011,16.985475 -7.647459,7.52 -16.664611,12.720399 -25.415434,14.628459 -6.544095,1.459105 -12.327247,0.935324 -16.702659,-1.459104 l -2.625247,2.16995 c 3.462283,2.207364 7.647459,3.292339 12.365295,3.292339 z m 4.109082,-27.61075 c -0.6468,0 -1.2936,0.261891 -1.826259,0.748259 -0.760941,0.748258 -0.951177,1.833234 -0.570707,2.731145 l -5.1744,1.982886 -21.420493,25.066671 0.456566,0.44895 25.491527,-21.063482 2.016495,-5.088159 c 0.304376,0.112238 0.6468,0.187064 0.989223,0.187064 0.6468,0 1.2936,-0.26189 1.788212,-0.748259 0.989224,-0.972736 0.989224,-2.581493 0,-3.554229 -0.456564,-0.486369 -1.103364,-0.710846 -1.750164,-0.710846 z M 73.606706,61.96955 a 9.6259052,9.4654736 0 0 1 -9.625905,9.465474 9.6259052,9.4654736 0 0 1 -9.625905,-9.465474 9.6259052,9.4654736 0 0 1 9.625905,-9.465474 9.6259052,9.4654736 0 0 1 9.625905,9.465474 z" />
</svg>
