<?xml version="1.0" encoding="UTF-8" standalone="no"?>
<svg
   width="128"
   height="128"
   version="1"
   id="svg12"
   xmlns:xlink="http://www.w3.org/1999/xlink"
   xmlns="http://www.w3.org/2000/svg"
   xmlns:svg="http://www.w3.org/2000/svg">
  <defs
     id="defs16">
    <linearGradient
       id="linearGradient3">
      <stop
         style="stop-color:#37184e;stop-opacity:1;"
         offset="0"
         id="stop3" />
      <stop
         style="stop-color:#7b37ae;stop-opacity:1;"
         offset="0.07205418"
         id="stop6" />
      <stop
         style="stop-color:#37184e;stop-opacity:1;"
         offset="0.15000001"
         id="stop7" />
      <stop
         style="stop-color:#37184e;stop-opacity:1;"
         offset="0.84682482"
         id="stop8" />
      <stop
         style="stop-color:#7b37ae;stop-opacity:1;"
         offset="0.92631161"
         id="stop9" />
      <stop
         style="stop-color:#37184e;stop-opacity:1;"
         offset="1"
         id="stop5" />
    </linearGradient>
    <linearGradient
       xlink:href="#linearGradient3"
       id="linearGradient5"
       x1="-163.70491"
       y1="61.816402"
       x2="-55.70491"
       y2="61.816402"
       gradientUnits="userSpaceOnUse"
       gradientTransform="translate(173.70491,4.1835976)" />
  </defs>
  <g
     id="g15"
     transform="matrix(0.91993184,0,0,0.91993184,9.99999,8.0000003)" />
  <g
     id="g21"
     transform="matrix(0.91993184,0,0,0.91993184,9.99999,8.0000003)" />
  <circle
     class="st0"
     cx="64"
     cy="66"
     r="54"
     id="circle3"
     style="fill:url(#linearGradient5);stroke-width:1" />
  <circle
     class="st0"
     cx="64"
     cy="62"
     r="54"
     id="circle1"
     style="fill:#662d91;stroke-width:1" />
  <path
     id="path11"
     style="fill:#ffffff;stroke-width:1.2397"
     class="st1"
     d="m 93.739326,37.38612 -1.986057,2.362722 c 1.643633,3.013327 2.294238,6.779986 1.917572,11.026037 0.856059,1.369694 1.643633,2.705146 2.32848,4.07484 C 97.4375,48.001249 96.649926,41.940353 93.739326,37.38612 Z M 70.523011,30.058256 C 62.099392,31.941586 53.47032,36.975212 46.245184,44.23459 32.479758,58.000016 27.617344,76.045735 34.226118,86.558137 l 1.986056,-2.362722 C 31.007337,74.744526 35.835509,58.753347 48.299725,46.289131 55.182437,39.406419 63.297875,34.646732 71.173616,32.900372 77.0633,31.56492 82.268138,32.044313 86.206008,34.201581 l 2.362723,-1.986056 C 83.877528,29.23644 77.611178,28.448866 70.523011,30.058256 Z m 14.484515,17.737539 -1.883329,2.259995 c 11.231491,13.38876 14.176333,29.448423 6.26635,37.324164 -3.732416,3.732416 -9.587859,5.136352 -16.367844,4.040597 -1.266967,0.787574 -2.568177,1.506664 -3.869386,2.157268 2.876358,0.753332 5.615746,1.16424 8.218164,1.16424 5.684231,0 10.580887,-1.780602 14.073607,-5.273322 C 100.48507,80.394514 97.4375,62.417279 85.007526,47.795795 Z M 36.520356,34.509762 c -4.828172,4.828172 -6.40332,12.258762 -4.485749,20.922077 1.609391,7.088167 5.410292,14.313303 10.889068,20.716623 l 1.88333,-2.259995 C 39.807621,67.896055 36.314901,61.253039 34.84248,54.781235 33.130363,47.14519 34.431572,40.673386 38.540654,36.564303 46.450638,28.65432 62.476058,31.599162 75.864818,42.830654 l 2.259995,-1.88333 C 63.537571,28.517351 45.560336,25.469781 36.520356,34.509762 Z m 40.508702,20.95632 c -0.136969,0.136969 -0.308181,0.273938 -0.479393,0.376665 0.890301,1.849087 1.438179,3.903629 1.438179,6.095139 0,7.704529 -6.266351,13.97088 -13.97088,13.97088 -2.19151,0 -4.246051,-0.513636 -6.095138,-1.438179 -0.13697,0.171212 -0.239697,0.342423 -0.376666,0.479393 -0.71909,0.719089 -1.609391,1.16424 -2.602419,1.301209 l -0.376666,0.993028 c 2.773631,1.712118 5.992412,2.705146 9.485132,2.705146 9.964524,0 18.045719,-8.081195 18.045719,-18.045719 0,-3.49272 -0.993028,-6.711501 -2.705146,-9.485132 l -0.993028,0.376666 c -0.205454,1.027271 -0.650605,1.951814 -1.369694,2.670904 z M 50.936386,68.478175 c 0.136969,-0.136969 0.308181,-0.273938 0.479393,-0.376666 -0.890301,-1.849087 -1.438179,-3.903628 -1.438179,-6.095138 0,-7.704529 6.26635,-13.97088 13.97088,-13.97088 2.19151,0 4.246051,0.513635 6.095138,1.438179 0.13697,-0.171212 0.239697,-0.342424 0.376666,-0.479393 0.719089,-0.719089 1.609391,-1.16424 2.602419,-1.301209 l 0.376666,-0.993029 c -2.773631,-1.712117 -5.992412,-2.705145 -9.485132,-2.705145 -9.964524,0 -18.045719,8.081195 -18.045719,18.045719 0,3.49272 0.993028,6.711501 2.739388,9.485132 l 0.993028,-0.376666 c 0.171212,-1.027271 0.616362,-1.951814 1.335452,-2.670904 z m 25.510552,-23.045103 -1.814845,4.65696 c -0.273938,-0.102727 -0.58212,-0.171211 -0.890301,-0.171211 -0.58212,0 -1.16424,0.239696 -1.60939,0.684847 -0.890302,0.890301 -0.890302,2.362722 0,3.253023 0.44515,0.445151 1.02727,0.684847 1.643633,0.684847 0.58212,0 1.164239,-0.239696 1.643632,-0.684847 0.684847,-0.684847 0.856059,-1.677875 0.513636,-2.499692 l 4.65696,-1.814844 19.278444,-22.942376 -0.410908,-0.410908 z M 59.29152,86.215714 c -2.670904,-1.540906 -4.759687,-3.081812 -7.225137,-5.136353 l -2.259995,1.883329 c 1.986057,1.712118 4.07484,3.253024 6.232108,4.65696 0.821817,-0.273939 2.533934,-0.958786 3.253024,-1.403936 z m -8.766042,8.492103 c 2.19151,0 4.51999,-0.273939 6.916955,-0.821816 8.423618,-1.88333 17.052691,-6.916956 24.277827,-14.176334 4.862414,-4.862414 8.800285,-10.443918 11.402703,-16.16239 l -2.259995,-2.123026 -0.171212,0.44515 -0.102727,0.239697 c -2.465449,5.478776 -6.232108,10.889068 -10.92331,15.546028 -6.882713,6.882712 -14.99815,11.642399 -22.873891,13.388759 -5.889685,1.335452 -11.094522,0.856059 -15.032393,-1.335451 l -2.362722,1.986056 c 3.116054,2.020299 6.882713,3.013327 11.128765,3.013327 z m 3.698174,-25.270856 c -0.58212,0 -1.16424,0.239697 -1.643633,0.684847 -0.684847,0.684847 -0.856059,1.677876 -0.513636,2.499692 l -4.65696,1.814845 -19.278444,22.942375 0.410909,0.410909 22.942375,-19.278445 1.814845,-4.656959 c 0.273939,0.102727 0.58212,0.171211 0.890301,0.171211 0.58212,0 1.16424,-0.239696 1.609391,-0.684847 0.890301,-0.890301 0.890301,-2.362722 0,-3.253023 -0.410908,-0.445151 -0.993028,-0.650605 -1.575148,-0.650605 z M 72.646034,61.97213 a 8.6633148,8.6633148 0 0 1 -8.663315,8.663315 8.6633148,8.6633148 0 0 1 -8.663314,-8.663315 8.6633148,8.6633148 0 0 1 8.663314,-8.663315 8.6633148,8.6633148 0 0 1 8.663315,8.663315 z" />
</svg>
