<?xml version="1.0" encoding="UTF-8" standalone="no"?>
<svg
   width="128"
   height="128"
   version="1"
   id="svg22"
   xmlns:xlink="http://www.w3.org/1999/xlink"
   xmlns="http://www.w3.org/2000/svg"
   xmlns:svg="http://www.w3.org/2000/svg">
  <defs
     id="defs26">
    <linearGradient
       id="linearGradient1142">
      <stop
         style="stop-color:#808080;stop-opacity:1;"
         offset="0"
         id="stop1138" />
      <stop
         style="stop-color:#b3b3b3;stop-opacity:1;"
         offset="0.07198661"
         id="stop881" />
      <stop
         style="stop-color:#808080;stop-opacity:1;"
         offset="0.15499221"
         id="stop883" />
      <stop
         style="stop-color:#808080;stop-opacity:1;"
         offset="0.85152709"
         id="stop885" />
      <stop
         style="stop-color:#b3b3b3;stop-opacity:1;"
         offset="0.93009496"
         id="stop887" />
      <stop
         style="stop-color:#808080;stop-opacity:1;"
         offset="1"
         id="stop1140" />
    </linearGradient>
    <linearGradient
       xlink:href="#linearGradient870"
       id="linearGradient874"
       x1="10"
       y1="80"
       x2="77"
       y2="13"
       gradientUnits="userSpaceOnUse"
       gradientTransform="matrix(1.2177986,0,0,1.2177986,11.634658,4.7634649)" />
    <linearGradient
       id="linearGradient870">
      <stop
         style="stop-color:#0559ff;stop-opacity:1"
         offset="0"
         id="stop866" />
      <stop
         style="stop-color:#0533ff;stop-opacity:1"
         offset="1"
         id="stop868" />
    </linearGradient>
    <linearGradient
       gradientTransform="matrix(1.2177986,0,0,1.2177986,11.634658,9.6346595)"
       y2="0"
       x2="86"
       y1="73"
       x1="12"
       gradientUnits="userSpaceOnUse"
       id="linearGradient3830"
       xlink:href="#linearGradient3789-6-3" />
    <linearGradient
       id="linearGradient3789-6-3">
      <stop
         style="stop-color:#b3b3b3;stop-opacity:1"
         offset="0"
         id="stop3791-0" />
      <stop
         style="stop-color:#e6e6e6;stop-opacity:1"
         offset="1"
         id="stop3793-4" />
    </linearGradient>
    <linearGradient
       xlink:href="#linearGradient1142"
       id="linearGradient581"
       gradientUnits="userSpaceOnUse"
       gradientTransform="matrix(1.2177986,0,0,1.2177986,11.634658,13.634658)"
       x1="0.30000034"
       y1="42.999996"
       x2="85.700005"
       y2="43.000004" />
  </defs>
  <path
     style="display:inline;fill:url(#linearGradient581);fill-opacity:1;stroke-width:1.2178"
     id="path13-7"
     d="m 115.99878,15.732926 c 0,-0.957189 -0.77574,-1.732927 -1.73293,-1.732927 0,0 -49.49255,0 -50.265852,0 -28.719345,0 -52,23.28065 -52,51.999993 0,28.718127 23.280655,52.000008 52,52.000008 C 92.719342,118 116,94.718131 116,66.000004 c 0,-0.77452 -0.001,-50.267079 -0.001,-50.267079 z" />
  <path
     style="display:inline;fill:url(#linearGradient3830);fill-opacity:1;stroke-width:1.2178"
     id="path13"
     d="m 115.99878,11.732927 c 0,-0.957191 -0.77574,-1.7329285 -1.73293,-1.7329285 0,0 -49.49255,0 -50.265852,0 -28.719345,0 -52,23.2806575 -52,52.0000025 0,28.718125 23.280655,51.999999 52,51.999999 C 92.719342,114 116,90.718126 116,62.000001 c 0,-0.77452 -0.001,-50.267074 -0.001,-50.267074 z" />
  <path
     style="display:inline;fill:url(#linearGradient874);fill-opacity:1;stroke:#ffffff;stroke-width:0;stroke-linecap:square;stroke-miterlimit:4;stroke-dasharray:none;stroke-opacity:0"
     d="m 105.2698,20.393874 c -33.746474,1.163668 -54.396064,-1.460177 -69.820299,13.964059 -15.424235,15.424235 -15.424271,40.431961 0,55.856233 15.424272,15.424284 40.43201,15.424244 55.856245,0 C 106.72998,74.789942 104.10612,54.140353 105.2698,20.393874 Z M 82.57821,43.08547 c 10.604176,10.604188 10.604188,27.796971 0,38.401158 -10.604201,10.604201 -27.796984,10.604189 -38.401172,0 -10.604189,-10.604187 -10.604189,-27.79697 0,-38.401158 10.604188,-10.604189 27.796983,-10.604189 38.401172,0 z"
     id="path10143" />
  <path
     style="display:inline;fill:#ffffff;fill-opacity:1;stroke:#ffffff;stroke-width:0;stroke-linecap:square;stroke-miterlimit:4;stroke-dasharray:none;stroke-opacity:0"
     d="m 63.378068,35.131917 c -6.949246,0 -13.898224,2.651975 -19.200312,7.954064 -10.6042,10.604188 -10.604188,27.796448 0,38.400635 10.604188,10.60419 27.796436,10.60419 38.400624,0 10.604188,-10.604187 10.604188,-27.796447 0,-38.400623 -5.302088,-5.302101 -12.251066,-7.954076 -19.200312,-7.954076 z"
     id="path10143-6" />
  <path
     style="display:inline;fill:#0540ff;fill-opacity:1;stroke:#ffffff;stroke-width:0;stroke-linecap:square;stroke-miterlimit:4;stroke-dasharray:none;stroke-opacity:0"
     d="m 73.850552,72.759214 a 14.811121,14.811121 0 0 1 -20.946088,0 14.811121,14.811121 0 0 1 0,-20.946086 14.811121,14.811121 0 0 1 20.946088,0 14.811121,14.811121 0 0 1 0,20.946086 z"
     id="path10139" />
</svg>
