<svg width="128" height="128" viewBox="0 0 128 128" fill="none" xmlns="http://www.w3.org/2000/svg">
<path d="M84 70.0386L71.8659 58H57V72.3347L69.6626 85V70.0386H84Z" fill="#A85B18"/>
<path d="M89.7716 76H75V91.1458L100.134 116H116V101.726L89.7716 76Z" fill="url(#paint0_linear_13_138)"/>
<path d="M90 76.0306L83.7556 70H69V84.9895L75.173 91V76.0306H90Z" fill="#B8B03B"/>
<path d="M84 68.0386L71.8659 56H57V70.3347L69.6626 83V68.0386H84Z" fill="#EE7913"/>
<path d="M89.7716 74H75V89.1458L100.134 114H116V99.7261L89.7716 74Z" fill="url(#paint1_linear_13_138)"/>
<path d="M90 74.0306L83.7556 68H69V82.9895L75.173 89V74.0306H90Z" fill="#F0E64A"/>
<path d="M74.5656 96.2655C72.3749 96.7688 70.0967 97.042 67.7467 97.042C50.9381 97.042 36.6429 83.2412 36.6429 65.3476C36.6429 47.454 50.7808 33.9573 67.7467 33.9573C84.7126 33.9573 98.222 47.4534 98.222 65.3476C98.222 68.2579 97.859 71.058 97.1875 73.7105L112.745 89.2416C116.756 82.2244 119 74.0656 119 65.2282C119 37.6495 96.9576 17 67.4321 17C38.0418 17 16 37.5139 16 65.2282C16 93.078 38.0424 114 67.4321 114C75.0193 114 82.1098 112.607 88.4615 110.071L74.5656 96.2655Z" fill="url(#paint2_linear_13_138)"/>
<path d="M71.5656 93.2655C69.3749 93.7688 67.0967 94.042 64.7467 94.042C47.9381 94.042 33.6429 80.2412 33.6429 62.3476C33.6429 44.454 47.7808 30.9573 64.7467 30.9573C81.7126 30.9573 95.222 44.4534 95.222 62.3476C95.222 65.2579 94.859 68.058 94.1875 70.7105L109.745 86.2416C113.756 79.2244 116 71.0656 116 62.2282C116 34.6495 93.9576 14 64.4321 14C35.0418 14 13 34.5139 13 62.2282C13 90.078 35.0424 111 64.4321 111C72.0193 111 79.1098 109.607 85.4615 107.071L71.5656 93.2655Z" fill="url(#paint3_linear_13_138)"/>
<path d="M57 56L116 114V99.8003L90.2661 74.2093L84.1626 68.1395L71.9556 56H57Z" fill="white" fill-opacity="0.172549"/>
<defs>
<linearGradient id="paint0_linear_13_138" x1="95.8213" y1="117.379" x2="94.3017" y2="16.676" gradientUnits="userSpaceOnUse">
<stop stop-color="#3D6624"/>
<stop offset="1" stop-color="#6E8419"/>
</linearGradient>
<linearGradient id="paint1_linear_13_138" x1="95.8213" y1="115.379" x2="94.3017" y2="14.676" gradientUnits="userSpaceOnUse">
<stop stop-color="#589632"/>
<stop offset="1" stop-color="#93B023"/>
</linearGradient>
<linearGradient id="paint2_linear_13_138" x1="68.3146" y1="118.664" x2="66.8132" y2="19.7995" gradientUnits="userSpaceOnUse">
<stop stop-color="#3A671F"/>
<stop offset="1" stop-color="#748B1B"/>
</linearGradient>
<linearGradient id="paint3_linear_13_138" x1="65.3146" y1="115.664" x2="63.8132" y2="16.7995" gradientUnits="userSpaceOnUse">
<stop stop-color="#589632"/>
<stop offset="1" stop-color="#93B023"/>
</linearGradient>
</defs>
</svg>
