<?xml version="1.0" encoding="UTF-8" standalone="no"?>
<svg
   height="128px"
   viewBox="0 0 128 128"
   width="128px"
   version="1.1"
   id="svg286"
   xmlns:xlink="http://www.w3.org/1999/xlink"
   xmlns="http://www.w3.org/2000/svg"
   xmlns:svg="http://www.w3.org/2000/svg">
  <defs
     id="defs290">
    <linearGradient
       id="linearGradient10">
      <stop
         style="stop-color:#00eeff;stop-opacity:0.89999998;"
         offset="0"
         id="stop10" />
      <stop
         style="stop-color:#00eeff;stop-opacity:0;"
         offset="0.69999999"
         id="stop11" />
    </linearGradient>
    <linearGradient
       xlink:href="#b"
       id="linearGradient8"
       x1="116"
       y1="60"
       x2="12"
       y2="60"
       gradientUnits="userSpaceOnUse"
       gradientTransform="matrix(1,0,0,1.0416667,0,-0.5)" />
    <linearGradient
       xlink:href="#linearGradient10"
       id="linearGradient11"
       x1="151"
       y1="9"
       x2="151"
       y2="105"
       gradientUnits="userSpaceOnUse"
       gradientTransform="matrix(1,0,0,1.0416667,-87,2.6250001)" />
    <linearGradient
       xlink:href="#b"
       id="linearGradient13"
       gradientUnits="userSpaceOnUse"
       x1="116"
       y1="60"
       x2="12"
       y2="60"
       gradientTransform="translate(0,9)" />
    <linearGradient
       id="linearGradient46">
      <stop
         style="stop-color:#000000;stop-opacity:0.40000001;"
         offset="0"
         id="stop39" />
      <stop
         style="stop-color:#ffffff;stop-opacity:0.60000002;"
         offset="0.02925029"
         id="stop40" />
      <stop
         style="stop-color:#000000;stop-opacity:0.40000001;"
         offset="0.06928756"
         id="stop41" />
      <stop
         style="stop-color:#000000;stop-opacity:0.40000001;"
         offset="0.92560208"
         id="stop44" />
      <stop
         style="stop-color:#ffffff;stop-opacity:0.60000002;"
         offset="0.96775371"
         id="stop45" />
      <stop
         style="stop-color:#000000;stop-opacity:0.40000001;"
         offset="1"
         id="stop46" />
    </linearGradient>
    <linearGradient
       xlink:href="#linearGradient46"
       id="linearGradient14"
       gradientUnits="userSpaceOnUse"
       gradientTransform="translate(0,9)"
       x1="116"
       y1="60"
       x2="12"
       y2="60" />
  </defs>
  <linearGradient
     id="a"
     gradientUnits="userSpaceOnUse"
     x1="11.999989"
     x2="115.999989"
     y1="64"
     y2="64"
     gradientTransform="translate(-140)">
    <stop
       offset="0"
       stop-color="#3d3846"
       id="stop252" />
    <stop
       offset="0.05"
       stop-color="#77767b"
       id="stop254" />
    <stop
       offset="0.1"
       stop-color="#5e5c64"
       id="stop256" />
    <stop
       offset="0.899999"
       stop-color="#504e56"
       id="stop258" />
    <stop
       offset="0.95"
       stop-color="#77767b"
       id="stop260" />
    <stop
       offset="1"
       stop-color="#3d3846"
       id="stop262" />
  </linearGradient>
  <linearGradient
     id="b"
     gradientUnits="userSpaceOnUse"
     x1="12"
     x2="112.041023"
     y1="60"
     y2="80.988281">
    <stop
       offset="0.38444301"
       stop-color="#9a9996"
       id="stop267"
       style="stop-color:#ee4444;stop-opacity:1;" />
    <stop
       offset="0.72056699"
       stop-color="#77767b"
       id="stop269"
       style="stop-color:#ccd420;stop-opacity:1;" />
  </linearGradient>
  <path
     d="m 20,21 h 88 c 4.41797,0 8,3.58203 8,8 v 80 c 0,4.41797 -3.58203,8 -8,8 H 20 c -4.417969,0 -8,-3.58203 -8,-8 V 29 c 0,-4.41797 3.582031,-8 8,-8 z m 0,0"
     fill="url(#b)"
     id="path276-48"
     style="fill:url(#linearGradient13);fill-opacity:1" />
  <path
     d="m 20,21 h 88 c 4.41797,0 8,3.58203 8,8 v 80 c 0,4.41797 -3.58203,8 -8,8 H 20 c -4.41797,0 -8,-3.58203 -8,-8 V 29 c 0,-4.41797 3.58203,-8 8,-8 z m 0,0"
     fill="url(#b)"
     id="path276-48-0"
     style="fill:url(#linearGradient14)" />
  <path
     d="m 20,12 h 88 c 4.41797,0 8,3.731283 8,8.333334 V 103.66667 C 116,108.26872 112.41797,112 108,112 H 20 c -4.417969,0 -8,-3.73128 -8,-8.33333 V 20.333334 C 12,15.731283 15.582031,12 20,12 Z m 0,0"
     fill="url(#b)"
     id="path276"
     style="fill:url(#linearGradient8);fill-opacity:1;stroke-width:1" />
  <path
     d="m 20,12 h 88 c 4.41797,0 8,3.731283 8,8.333334 V 103.66667 C 116,108.26872 112.41797,112 108,112 H 20 c -4.41797,0 -8,-3.73128 -8,-8.33333 V 20.333334 C 12,15.731283 15.58203,12 20,12 Z m 0,0"
     fill="url(#b)"
     id="path276-4"
     style="fill:url(#linearGradient11);fill-opacity:1;stroke-width:1" />
  <path
     d="m 21.76,15.999999 h 84.48 c 3.18,0 5.76,2.6875 5.76,6 V 102 c 0,3.3125 -2.58,6 -5.76,6 H 21.76 C 18.58,108 16,105.3125 16,102 V 21.999999 c 0,-3.3125 2.58,-6 5.76,-6 z m 0,0"
     fill="#241f31"
     id="path278"
     style="stroke-width:0.999999" />
  <path
     style="fill:#ccd420;fill-opacity:1;stroke-width:1"
     d="m 45.117218,91.535097 c 0.803348,0.02215 1.705379,-0.07138 2.607163,-0.253809 2.668012,-0.556234 4.934105,-1.711532 6.675594,-3.7598 1.059126,-1.249044 1.949514,-2.602654 2.716997,-4.026285 0.902252,-1.677447 1.656172,-3.425142 2.3136,-5.194257 0.803347,-2.139936 1.485513,-4.326626 2.010584,-6.536812 0.291619,-1.238218 -0.03643,-2.013947 -1.474117,-2.440507 -1.826609,-0.543562 -3.666781,-1.029546 -5.542572,-1.423631 -3.105575,-0.648128 -6.235864,-1.063862 -9.428701,-0.961368 -0.902031,0.03456 -1.802117,0.126671 -2.692505,0.277078 -2.58267,0.428633 -4.774843,1.562516 -6.565292,3.355124 -3.058314,3.054318 -4.274757,6.698727 -3.520591,10.852841 1.08384,5.935899 6.614745,10.158196 12.89984,10.111426 z"
     id="path3" />
  <path
     style="fill:#00eeff;fill-opacity:1;stroke-width:1"
     d="m 51.696935,45.585385 c -0.03446,0.914637 0.126277,1.914496 0.392738,2.914597 0.507742,1.902841 1.349243,3.646403 2.341539,5.293329 2.260529,3.745224 5.109809,6.95167 8.20128,9.928667 0.253169,0.244751 0.55456,0.45137 0.877292,0.608948 0.3232,0.169969 0.645932,0.169969 0.979914,0.02437 0.322732,-0.145674 0.611495,-0.353036 0.853883,-0.622302 1.072886,-1.121503 2.133366,-2.244706 3.148849,-3.403844 1.430031,-1.646927 2.791901,-3.341202 4.026141,-5.158816 1.119705,-1.646686 2.12256,-3.37908 2.860086,-5.257396 0.737502,-1.866907 1.09605,-3.792571 0.853883,-5.817297 -0.403766,-3.341201 -1.752763,-6.172032 -4.164086,-8.391729 -2.851126,-2.62032 -6.172135,-3.669469 -9.909513,-3.085044 -6.078695,0.952512 -10.485415,6.611988 -10.462006,12.966122 z"
     id="path4" />
  <path
     style="fill:#ee4444;fill-opacity:1;stroke-width:1"
     d="m 82.88278,91.535097 c -0.803347,0.02215 -1.705378,-0.07138 -2.607163,-0.253809 -2.668012,-0.556234 -4.934104,-1.711532 -6.675593,-3.7598 -1.059127,-1.249044 -1.949514,-2.602654 -2.716997,-4.026285 -0.902253,-1.677447 -1.656173,-3.425142 -2.3136,-5.194257 -0.803348,-2.139936 -1.485514,-4.326626 -2.010585,-6.536812 -0.291618,-1.238218 0.03643,-2.013947 1.474117,-2.440507 1.826609,-0.543562 3.666757,-1.029546 5.542572,-1.423631 3.105576,-0.648128 6.235865,-1.063862 9.428702,-0.961368 0.90203,0.03456 1.802116,0.126671 2.692504,0.277078 2.582671,0.428633 4.774843,1.562516 6.565292,3.355124 3.058314,3.054318 4.274757,6.698727 3.520591,10.852841 -1.08384,5.935899 -6.614745,10.158196 -12.89984,10.111426 z"
     id="path5" />
</svg>
