<?xml version="1.0" encoding="UTF-8" standalone="no"?>
<svg
   viewBox="0 0 128 128"
   style="display:inline;enable-background:new"
   version="1.0"
   id="svg11300"
   height="128"
   width="128"
   xml:space="preserve"
   xmlns:xlink="http://www.w3.org/1999/xlink"
   xmlns="http://www.w3.org/2000/svg"
   xmlns:svg="http://www.w3.org/2000/svg"
   xmlns:rdf="http://www.w3.org/1999/02/22-rdf-syntax-ns#"
   xmlns:cc="http://creativecommons.org/ns#"
   xmlns:dc="http://purl.org/dc/elements/1.1/"><title
     id="title4162">Adwaita Icon Template</title><defs
     id="defs3"><linearGradient
       id="linearGradient68"><stop
         style="stop-color:#262626;stop-opacity:1;"
         offset="0"
         id="stop57" /><stop
         id="stop58"
         offset="0.01110962"
         style="stop-color:#686466;stop-opacity:1;" /><stop
         style="stop-color:#262626;stop-opacity:1;"
         offset="0.08333334"
         id="stop59" /><stop
         id="stop66"
         offset="0.95523453"
         style="stop-color:#252525;stop-opacity:1;" /><stop
         style="stop-color:#686466;stop-opacity:1;"
         offset="0.98670727"
         id="stop67" /><stop
         style="stop-color:#262626;stop-opacity:1;"
         offset="1"
         id="stop68" /></linearGradient><linearGradient
       id="linearGradient47"><stop
         style="stop-color:#262626;stop-opacity:1;"
         offset="0"
         id="stop42" /><stop
         id="stop43"
         offset="0.01110962"
         style="stop-color:#686466;stop-opacity:1;" /><stop
         style="stop-color:#262626;stop-opacity:1;"
         offset="0.08333334"
         id="stop44" /><stop
         id="stop45"
         offset="0.26312101"
         style="stop-color:#262626;stop-opacity:1;" /><stop
         id="stop51"
         offset="0.28396562"
         style="stop-color:#696366;stop-opacity:1;" /><stop
         id="stop52"
         offset="0.35847926"
         style="stop-color:#252525;stop-opacity:1;" /><stop
         id="stop53"
         offset="0.6381259"
         style="stop-color:#252525;stop-opacity:1;" /><stop
         id="stop54"
         offset="0.71611452"
         style="stop-color:#696366;stop-opacity:1;" /><stop
         id="stop55"
         offset="0.7403332"
         style="stop-color:#252525;stop-opacity:1;" /><stop
         id="stop50"
         offset="0.95523453"
         style="stop-color:#252525;stop-opacity:1;" /><stop
         style="stop-color:#686466;stop-opacity:1;"
         offset="0.98670727"
         id="stop46" /><stop
         style="stop-color:#262626;stop-opacity:1;"
         offset="1"
         id="stop47" /></linearGradient><linearGradient
       xlink:href="#linearGradient47"
       id="linearGradient42"
       x1="-77"
       y1="82.670059"
       x2="27.000002"
       y2="82.670059"
       gradientUnits="userSpaceOnUse"
       gradientTransform="translate(89.00044,6.659872)" /><linearGradient
       xlink:href="#linearGradient68"
       id="linearGradient57"
       x1="-112.26165"
       y1="59.150349"
       x2="-37.982967"
       y2="59.150349"
       gradientUnits="userSpaceOnUse"
       gradientTransform="translate(139.12597,42.254374)" /></defs><metadata
     id="metadata4"><rdf:RDF><cc:Work
         rdf:about=""><dc:format>image/svg+xml</dc:format><dc:type
           rdf:resource="http://purl.org/dc/dcmitype/StillImage" /><dc:creator><cc:Agent><dc:title>GNOME Design Team</dc:title></cc:Agent></dc:creator><dc:source /><cc:license
           rdf:resource="http://creativecommons.org/licenses/by-sa/4.0/" /><dc:title>Adwaita Icon Template</dc:title><dc:subject><rdf:Bag /></dc:subject><dc:date /><dc:rights><cc:Agent><dc:title /></cc:Agent></dc:rights><dc:publisher><cc:Agent><dc:title /></cc:Agent></dc:publisher><dc:identifier /><dc:relation /><dc:language /><dc:coverage /><dc:description /><dc:contributor><cc:Agent><dc:title /></cc:Agent></dc:contributor></cc:Work><cc:License
         rdf:about="http://creativecommons.org/licenses/by-sa/4.0/"><cc:permits
           rdf:resource="http://creativecommons.org/ns#Reproduction" /><cc:permits
           rdf:resource="http://creativecommons.org/ns#Distribution" /><cc:requires
           rdf:resource="http://creativecommons.org/ns#Notice" /><cc:requires
           rdf:resource="http://creativecommons.org/ns#Attribution" /><cc:permits
           rdf:resource="http://creativecommons.org/ns#DerivativeWorks" /><cc:requires
           rdf:resource="http://creativecommons.org/ns#ShareAlike" /></cc:License></rdf:RDF></metadata><path
     id="path39-1"
     style="color:#000000;font-style:normal;font-variant:normal;font-weight:normal;font-stretch:normal;font-size:medium;line-height:normal;font-family:sans-serif;font-variant-ligatures:normal;font-variant-position:normal;font-variant-caps:normal;font-variant-numeric:normal;font-variant-alternates:normal;font-variant-east-asian:normal;font-feature-settings:normal;font-variation-settings:normal;text-indent:0;text-align:start;text-decoration-line:none;text-decoration-style:solid;text-decoration-color:#000000;letter-spacing:normal;word-spacing:normal;text-transform:none;writing-mode:lr-tb;direction:ltr;text-orientation:mixed;dominant-baseline:auto;baseline-shift:baseline;text-anchor:start;white-space:normal;shape-padding:0;shape-margin:0;inline-size:0;clip-rule:nonzero;display:inline;overflow:visible;visibility:visible;isolation:auto;mix-blend-mode:normal;color-interpolation:sRGB;color-interpolation-filters:linearRGB;solid-color:#000000;solid-opacity:1;vector-effect:none;fill:url(#linearGradient42);fill-opacity:1;fill-rule:nonzero;stroke:none;stroke-linecap:butt;stroke-linejoin:miter;stroke-miterlimit:4;stroke-dasharray:none;stroke-dashoffset:0;stroke-opacity:1;-inkscape-stroke:none;color-rendering:auto;image-rendering:auto;shape-rendering:auto;text-rendering:auto;enable-background:new;stop-color:#000000"
     d="m 43.579628,58.964508 v 3.999814 c 0,0 1.5867,2.0247 3.30282,4.12721 1.71611,2.10252 3.12014,3.88214 3.12014,3.95454 0,0.0724 -3.41766,0.16059 -7.59462,0.19599 l -7.594628,0.0642 -1.59979,6.33258 -1.5998,6.332581 -5.29745,0.0656 c -4.65104,0.0576 -5.29744,0.0195 -5.29744,-0.31206 0,-0.20768 0.65761,-3.00119 1.46136,-6.20795 0.80375,-3.20676 1.46137,-5.94333 1.46137,-6.08141 v -3.999815 c 0,-0.4479 -1.68478,3.748644 -3.10826,3.748644 h -3.10778 l -2.86612,11.508251 c -0.85764,3.443943 -2.33407,5.539023 -2.85898,7.691105 0,0 -0.002,3.954011 0,3.999815 0.004,0.10046 3.78794,0.18267 8.40951,0.18267 7.41559,0 8.40284,0.0442 8.40284,0.37628 0,0.20696 -1.41265,2.124759 -1.94848,4.256038 0,0 0,3.928639 0,3.999809 0,0.0712 3.5455,0.1583 7.87909,0.19362 l 7.879098,0.0642 -4.486848,5.11477 c -2.46793,2.81313 -5.90725,2.79249 -6.4458,3.4288 v 3.99981 l 4.83316,-0.006 4.833158,-0.006 5.11478,-6.32687 5.11478,-6.32688 12.41637,0.0614 12.41684,0.0614 5.09432,6.27169 5.09432,6.27169 h 4.85362 4.85314 v -4.00021 c -1.24888,-1.42533 -5.98847,-2.83902 -7.75732,-4.86312 l -3.21624,-3.68005 7.90479,-0.0642 c 4.34755,-0.0353 7.901942,-0.0901 7.898602,-0.12178 -0.003,-0.0317 0,-4.000211 0,-4.000211 -0.58279,-2.30515 -2.065822,-4.499377 -1.993212,-4.571987 0.0726,-0.0726 3.894952,-0.13177 8.494192,-0.13177 4.59924,0 8.3592,-0.0822 8.35528,-0.18267 -0.001,-0.03739 0,-4.000214 0,-4.000214 -0.51812,-2.107843 -1.88616,-3.676821 -2.87707,-7.629816 l -2.86945,-11.44736 -3.18532,-0.0675 -3.18532,-4.068214 v 4.000214 l 1.54985,6.15705 c 0.85239,3.38623 1.55247,6.29357 1.55603,6.46102 0.005,0.23448 -1.21822,0.30445 -5.32171,0.30445 h -5.327892 l -1.38145,-5.54101 c -0.75983,-3.04755 -1.48992,-5.95056 -1.62215,-6.45103 l -0.24023,-0.91002 -7.64124,-0.0642 -7.64125,-0.0642 2.68202,-3.28807 c 1.47514,-1.80843 3.0087,-3.69908 3.40795,-4.20142 l 0.72593,-0.91336 v -4.000214 l -6.32212,4.000214 -3.71858,4.26232 -3.71858,4.26231 h -6.88773 -6.88773 l -3.72382,-4.26231 -3.72334,-4.26232 z m -2.58879,18.552574 h 5.35834 5.35834 v 5.35834 5.35834 h -5.35834 -5.35834 v -5.35834 z m 35.31632,0 h 5.35834 5.35834 v 5.35834 5.35834 h -5.35834 -5.35834 v -5.35834 z" /><path
     id="rect55"
     style="fill:url(#linearGradient57);stroke-width:0.786167"
     d="M 26.86432,99.393291 H 101.143 v 4.022859 H 26.86432 Z" /><path
     id="path39"
     style="fill:#000000;stroke-width:0.243561"
     d="m 46.522338,58.660058 c -2.4347,0 -3.08469,0.0672 -2.94271,0.30445 0.10022,0.16745 1.5867,2.0247 3.30282,4.12721 1.71611,2.10252 3.12014,3.88214 3.12014,3.95454 0,0.0724 -3.41766,0.16059 -7.59462,0.19599 l -7.594628,0.0642 -1.59979,6.33258 -1.5998,6.33258 -5.29745,0.0656 c -4.65104,0.0576 -5.29744,0.0195 -5.29744,-0.31206 0,-0.20768 0.65761,-3.00119 1.46136,-6.20795 0.80375,-3.20676 1.46137,-5.94333 1.46137,-6.08141 0,-0.15925 -1.13679,-0.25117 -3.10826,-0.25117 h -3.10778 l -2.86612,11.50825 c -1.57623,6.32953 -2.86264,11.59045 -2.85898,11.69092 0.004,0.10046 3.78794,0.18267 8.40951,0.18267 7.41559,0 8.40284,0.0442 8.40284,0.37628 0,0.20696 -0.43841,2.12009 -0.97424,4.25137 -0.53583,2.13128 -0.97424,3.93331 -0.97424,4.004483 0,0.07118 3.5455,0.158292 7.87909,0.193614 l 7.879098,0.06422 -4.486848,5.114775 c -2.46793,2.81313 -4.92777,5.63539 -5.46632,6.27169 l -0.97948,1.15692 4.83316,-0.006 4.833158,-0.006 5.11478,-6.32688 5.11478,-6.32687 12.41637,0.06137 12.41684,0.06137 5.09432,6.27169 5.09432,6.27169 h 4.85362 4.85314 l -2.27054,-2.59164 c -1.24888,-1.42533 -3.71793,-4.24759 -5.48678,-6.27169 l -3.21624,-3.68005 7.90479,-0.06422 c 4.34755,-0.03532 7.901942,-0.09012 7.898602,-0.121781 -0.003,-0.03166 -0.48279,-1.943851 -1.06558,-4.249001 -0.582792,-2.30515 -1.000242,-4.25059 -0.927632,-4.3232 0.0726,-0.0726 3.894952,-0.13177 8.494192,-0.13177 4.59924,0 8.3592,-0.0822 8.35528,-0.18267 -0.004,-0.10047 -1.29881,-5.33399 -2.87707,-11.63003 l -2.86945,-11.44736 -3.18532,-0.0675 -3.18532,-0.068 1.54985,6.15705 c 0.85239,3.38623 1.55247,6.29357 1.55603,6.46102 0.005,0.23448 -1.21822,0.30445 -5.32171,0.30445 h -5.327892 l -1.38145,-5.54101 c -0.75983,-3.04755 -1.48992,-5.95056 -1.62215,-6.45103 l -0.24023,-0.91002 -7.64124,-0.0642 -7.64125,-0.0642 2.68202,-3.28807 c 1.47514,-1.80843 3.0087,-3.69908 3.40795,-4.20142 l 0.72593,-0.91336 h -3.16106 -3.16106 l -3.71858,4.26232 -3.71858,4.26231 h -6.88773 -6.88773 l -3.72382,-4.26231 -3.72334,-4.26232 z m -5.5315,14.85721 h 5.35834 5.35834 v 5.35834 5.35834 h -5.35834 -5.35834 v -5.35834 z m 35.31632,0 h 5.35834 5.35834 v 5.35834 5.35834 h -5.35834 -5.35834 v -5.35834 z" /></svg>
