<?xml version="1.0" encoding="UTF-8"?>
<svg height="128px" viewBox="0 0 128 128" width="128px" xmlns="http://www.w3.org/2000/svg" xmlns:xlink="http://www.w3.org/1999/xlink">
    <linearGradient id="a" gradientUnits="userSpaceOnUse" x1="10.000004" x2="118" y1="66" y2="66">
        <stop offset="0" stop-color="#429aea"/>
        <stop offset="0.0686186" stop-color="#75aadb"/>
        <stop offset="0.151761" stop-color="#429aea"/>
        <stop offset="0.850683" stop-color="#429aea"/>
        <stop offset="0.928503" stop-color="#75aadb"/>
        <stop offset="1" stop-color="#429aea"/>
    </linearGradient>
    <path d="m 118 66 c 0 29.824219 -24.175781 54 -54 54 s -54 -24.175781 -54 -54 s 24.175781 -54 54 -54 s 54 24.175781 54 54 z m 0 0" fill="url(#a)"/>
    <path d="m 118 62 c 0 29.824219 -24.175781 54 -54 54 s -54 -24.175781 -54 -54 s 24.175781 -54 54 -54 s 54 24.175781 54 54 z m 0 0" fill="#75aadb"/>
    <path d="m 80.578125 82.796875 h 6.132813 v 4.765625 h -9.363282 l -15.519531 -23.261719 h -8.273437 v 18.496094 h 8.089843 v 4.765625 h -20.355469 v -4.765625 h 6.992188 v -40.988281 l -6.992188 -0.859375 v -4.511719 c 2.644532 0.605469 4.945313 1.023438 7.832032 1.023438 c 4.34375 0 8.78125 -1.023438 13.125 -1.023438 c 8.4375 0 16.269531 3.835938 16.269531 13.203125 c 0 7.246094 -4.347656 11.847656 -11.082031 13.800781 z m -27.023437 -23.097656 l 4.4375 0.089843 c 10.828124 0.167969 14.992187 -3.996093 14.992187 -9.546874 c 0 -6.480469 -4.695313 -9.039063 -10.644531 -9.039063 c -2.8125 0 -5.714844 0.257813 -8.785156 0.605469 z m 0 0" fill="#ffffff"/>
</svg>
