<?xml version="1.0" encoding="UTF-8" standalone="no"?>
<svg
   viewBox="0 0 128 128"
   style="display:inline;enable-background:new"
   version="1.0"
   id="svg11300"
   height="128"
   width="128"
   xmlns:xlink="http://www.w3.org/1999/xlink"
   xmlns="http://www.w3.org/2000/svg"
   xmlns:svg="http://www.w3.org/2000/svg"
   xmlns:rdf="http://www.w3.org/1999/02/22-rdf-syntax-ns#"
   xmlns:cc="http://creativecommons.org/ns#"
   xmlns:dc="http://purl.org/dc/elements/1.1/">
  <title
     id="title4162">Adwaita Icon Template</title>
  <defs
     id="defs3">
    <linearGradient
       id="linearGradient1453">
      <stop
         style="stop-color:#413f40;stop-opacity:1;"
         offset="0"
         id="stop1449" />
      <stop
         style="stop-color:#333132;stop-opacity:1;"
         offset="1"
         id="stop1451" />
    </linearGradient>
    <linearGradient
       id="linearGradient974">
      <stop
         style="stop-color:#262626;stop-opacity:1;"
         offset="0"
         id="stop962" />
      <stop
         id="stop964"
         offset="0.04166667"
         style="stop-color:#686466;stop-opacity:1;" />
      <stop
         style="stop-color:#262626;stop-opacity:1;"
         offset="0.08333334"
         id="stop966" />
      <stop
         id="stop968"
         offset="0.91666669"
         style="stop-color:#262626;stop-opacity:1;" />
      <stop
         style="stop-color:#686466;stop-opacity:1;"
         offset="0.95833331"
         id="stop970" />
      <stop
         style="stop-color:#262626;stop-opacity:1;"
         offset="1"
         id="stop972" />
    </linearGradient>
    <linearGradient
       y2="44"
       x2="464"
       y1="44"
       x1="48"
       gradientTransform="matrix(0.25,0,0,0.25,0,53)"
       gradientUnits="userSpaceOnUse"
       id="linearGradient1747"
       xlink:href="#linearGradient974" />
    <linearGradient
       xlink:href="#linearGradient1453"
       id="linearGradient1455"
       x1="64"
       y1="12"
       x2="64"
       y2="112"
       gradientUnits="userSpaceOnUse" />
  </defs>
  <metadata
     id="metadata4">
    <rdf:RDF>
      <cc:Work
         rdf:about="">
        <dc:format>image/svg+xml</dc:format>
        <dc:type
           rdf:resource="http://purl.org/dc/dcmitype/StillImage" />
        <dc:creator>
          <cc:Agent>
            <dc:title>GNOME Design Team</dc:title>
          </cc:Agent>
        </dc:creator>
        <dc:source />
        <cc:license
           rdf:resource="http://creativecommons.org/licenses/by-sa/4.0/" />
        <dc:title>Adwaita Icon Template</dc:title>
        <dc:subject>
          <rdf:Bag />
        </dc:subject>
        <dc:date />
        <dc:rights>
          <cc:Agent>
            <dc:title />
          </cc:Agent>
        </dc:rights>
        <dc:publisher>
          <cc:Agent>
            <dc:title />
          </cc:Agent>
        </dc:publisher>
        <dc:identifier />
        <dc:relation />
        <dc:language />
        <dc:coverage />
        <dc:description />
        <dc:contributor>
          <cc:Agent>
            <dc:title />
          </cc:Agent>
        </dc:contributor>
      </cc:Work>
      <cc:License
         rdf:about="http://creativecommons.org/licenses/by-sa/4.0/">
        <cc:permits
           rdf:resource="http://creativecommons.org/ns#Reproduction" />
        <cc:permits
           rdf:resource="http://creativecommons.org/ns#Distribution" />
        <cc:requires
           rdf:resource="http://creativecommons.org/ns#Notice" />
        <cc:requires
           rdf:resource="http://creativecommons.org/ns#Attribution" />
        <cc:permits
           rdf:resource="http://creativecommons.org/ns#DerivativeWorks" />
        <cc:requires
           rdf:resource="http://creativecommons.org/ns#ShareAlike" />
      </cc:License>
    </rdf:RDF>
  </metadata>
  <rect
     ry="8"
     rx="8"
     y="32"
     x="12"
     height="83.999992"
     width="104"
     id="rect1709"
     style="display:inline;fill:url(#linearGradient1747);fill-opacity:1;stroke:none;stroke-width:0.25;stroke-linecap:butt;stroke-linejoin:miter;stroke-miterlimit:4;stroke-dasharray:none;stroke-dashoffset:0;stroke-opacity:1;marker:none;marker-start:none;marker-mid:none;marker-end:none;paint-order:normal;enable-background:new" />
  <rect
     style="display:inline;fill:url(#linearGradient1455);fill-opacity:1;stroke:none;stroke-width:0.25;stroke-linecap:butt;stroke-linejoin:miter;stroke-miterlimit:4;stroke-dasharray:none;stroke-dashoffset:0;stroke-opacity:1;marker:none;marker-start:none;marker-mid:none;marker-end:none;paint-order:normal;enable-background:new"
     id="rect1711"
     width="104"
     height="100"
     x="12"
     y="12"
     rx="8"
     ry="8" />
  <path
     d="m 56.094537,68.102667 c -0.0781,-0.722655 -0.6543,-0.800781 -1.0547,-1.035156 -1.32812,-0.771484 -2.68554,-1.503906 -4.0332,-2.246094 l -2.19727,-1.201172 c -0.83007,-0.458984 -1.66991,-0.898437 -2.5,-1.376953 -1.02538,-0.585937 -2.05078,-1.162109 -3.0371,-1.816406 -1.84571,-1.220703 -3.30078,-2.841796 -4.52148,-4.697266 -0.81055,-1.230468 -1.44532,-2.548828 -1.875,-3.945312 -0.6543,-2.119141 -1.0547,-4.306641 -0.76173,-6.523438 0.17578,-1.367187 0.44923,-2.734375 0.94727,-4.0625 0.76172,-2.03125 1.88476,-3.789062 3.33984,-5.351562 0.95704,-1.035156 2.07032,-1.865235 3.26172,-2.617188 1.43555,-0.908203 2.99805,-1.503905 4.62891,-1.855468 1.34766,-0.292969 2.74414,-0.419922 4.12109,-0.429687 8.7793,-0.03906 17.54883,-0.0293 26.32813,0 1.23047,0 2.49023,0.09766 3.68164,0.40039 2.37305,0.605468 4.46289,1.777343 6.15234,3.613281 1.09375,1.191406 1.99219,2.519531 2.51954,4.023437 0.71288,2.021485 1.20117,4.111329 0.65429,6.289063 -0.20508,0.830079 -0.26367,1.708984 -0.59571,2.480469 -0.45898,1.064453 -1.05468,2.070312 -1.67968,3.046875 -0.84961,1.31836 -2.00195,2.373047 -3.35938,3.144531 -0.98632,0.556641 -2.05077,0.996094 -3.125,1.396484 -1.76757,0.654297 -3.63281,0.488282 -5.47851,0.507813 -1.67969,0.01953 -3.36914,0 -5.04883,0.0098 -0.16601,0 -0.33203,0.117188 -0.49805,0.185547 0.12695,0.175782 0.20508,0.419922 0.38087,0.517578 1.31835,0.761719 2.65625,1.503907 3.98437,2.236329 1.07421,0.585937 2.17773,1.142578 3.24218,1.748046 1.48438,0.830079 2.94922,1.699219 4.42383,2.548829 1.88477,1.083983 3.39844,2.578125 4.66797,4.326171 0.94727,1.298829 1.67969,2.72461 2.2461,4.248047 0.5957,1.621094 0.89843,3.300782 1.01562,5.009765 0.0586,0.888673 -0.0684,1.806642 -0.18555,2.695313 -0.11719,0.888672 -0.26367,1.796875 -0.54687,2.646485 -0.32227,0.996094 -0.72265,1.972656 -1.21094,2.890625 -0.82031,1.533197 -1.91406,2.871091 -3.20313,4.042962 -1.24023,1.12305 -2.61718,2.01172 -4.14062,2.69531 -2.23633,1.00587 -4.58008,1.40625 -6.99219,1.41602 -8.75976,0.0293 -17.51952,0.0195 -26.27929,-0.01 -1.23047,0 -2.49023,-0.0977 -3.68165,-0.38085 -2.39257,-0.55665 -4.47265,-1.75782 -6.18163,-3.5547 -1.13282,-1.201158 -1.97266,-2.58788 -2.59766,-4.091783 -0.26367,-0.625 -0.40039,-1.31836 -0.52734,-1.992188 -0.14649,-0.791015 -0.27344,-1.591797 -0.30274,-2.392578 -0.0586,-1.533203 0.27344,-3.017578 0.80079,-4.433594 0.80077,-2.148437 2.11913,-3.964843 3.92577,-5.390625 0.97656,-0.771484 2.08008,-1.33789 3.23243,-1.835937 1.62109,-0.703125 3.32031,-0.791016 5.01953,-0.830078 2.13867,-0.04883 4.2871,-0.0098 6.43554,-0.0098 0.18555,-0.0098 0.38086,-0.0293 0.60548,-0.03907 z m 9.40429,-33.4375 c 0,0.0098 0,0.0098 0,0 -4.71679,0.0098 -9.43359,-0.0586 -14.15039,0.04883 -1.31836,0.0293 -2.67578,0.38086 -3.91602,0.84961 -1.45508,0.546875 -2.74413,1.425782 -3.89648,2.519531 -1.97265,1.855469 -3.14453,4.121094 -3.63282,6.728516 -0.35156,1.855468 -0.13671,3.720703 0.4004,5.517578 0.40039,1.33789 1.02539,2.578125 1.80664,3.75 1.44531,2.167968 3.48633,3.583985 5.70313,4.804687 1.07421,0.595703 2.16796,1.16211 3.24218,1.757813 1.31836,0.732422 2.62695,1.47461 3.94532,2.207031 1.27929,0.712891 2.55858,1.416016 3.82812,2.119141 0.94726,0.517578 1.89453,1.044922 2.8418,1.572265 0.2832,0.15625 0.40038,0.01953 0.43945,-0.234375 0.0293,-0.195312 0.0293,-0.390625 0.0293,-0.595702 v -5.742188 c 0,-1.94336 0.01,-3.896485 0,-5.839844 0,-0.644531 0.16601,-1.25 0.74218,-1.572266 0.3418,-0.195312 0.80078,-0.273437 1.21094,-0.273437 4.91211,-0.01953 9.83398,-0.01953 14.74609,-0.0098 1.9336,0 3.74024,-0.429688 5.38086,-1.47461 2.25586,-1.445312 3.54493,-3.544922 3.96484,-6.142578 0.33204,-2.03125 -0.0976,-3.994141 -1.21093,-5.712891 -1.73828,-2.685546 -4.25782,-4.199218 -7.4707,-4.257813 -4.66797,-0.07813 -9.33595,-0.01953 -14.00391,-0.01953 z m -2.98828,54.658208 c 4.40429,0 8.80859,-0.0195 13.21289,0.01 1.8457,0.01 3.57422,-0.38086 5.26367,-1.08398 1.79688,-0.751952 3.28125,-1.933596 4.52148,-3.408204 0.88868,-1.054688 1.58203,-2.236329 2.03125,-3.564454 0.41017,-1.210937 0.72266,-2.412109 0.7129,-3.701171 -0.01,-1.00586 0.0195,-2.001954 -0.33203,-2.978516 -0.25391,-0.703125 -0.33204,-1.484375 -0.625,-2.158203 -0.38087,-0.869141 -0.86915,-1.689453 -1.36719,-2.490235 -1.25977,-2.03125 -3.11523,-3.388672 -5.15625,-4.53125 -1.03516,-0.576171 -2.07031,-1.132812 -3.10547,-1.708983 -1.00586,-0.556642 -1.99219,-1.142579 -2.99805,-1.69922 -1.09375,-0.595703 -2.19726,-1.162109 -3.29101,-1.757812 -1.6211,-0.888672 -3.23243,-1.796875 -4.86328,-2.685547 -0.47852,-0.263671 -0.59571,-0.185546 -0.625,0.380859 -0.01,0.195313 -0.01,0.400391 -0.01,0.595703 v 11.181642 c 0,1.445312 -0.54687,1.992187 -1.99219,1.992187 -4.64843,0.0098 -9.30664,-0.0098 -13.95508,0.01953 -1.02538,0.0098 -2.06055,0.136719 -3.08593,0.273437 -1.61133,0.214845 -2.97852,0.966797 -4.17969,2.050782 -1.66016,1.513671 -2.63671,3.388671 -2.87109,5.615234 -0.10742,1.064454 -0.039,2.119141 0.2832,3.173829 0.36133,1.201171 0.89844,2.285162 1.70898,3.222662 1.875,2.1582 4.23828,3.25195 7.09961,3.25195 4.55079,0.01 9.08204,0 13.62305,0 z"
     fill="#00f782"
     id="path1"
     style="stroke-width:1" />
</svg>
