<?xml version="1.0" encoding="UTF-8" standalone="no"?>
<svg
   width="128"
   height="128"
   version="1"
   id="svg457"
   xml:space="preserve"
   xmlns:xlink="http://www.w3.org/1999/xlink"
   xmlns="http://www.w3.org/2000/svg"
   xmlns:svg="http://www.w3.org/2000/svg"><defs
     id="defs461"><linearGradient
       id="linearGradient871"><stop
         style="stop-color:#0d45b5;stop-opacity:1;"
         offset="0"
         id="stop867" /><stop
         style="stop-color:#3a76f0;stop-opacity:1;"
         offset="0.07327036"
         id="stop875" /><stop
         style="stop-color:#0d45b5;stop-opacity:1;"
         offset="0.15461613"
         id="stop877" /><stop
         style="stop-color:#0d45b5;stop-opacity:1;"
         offset="0.85129958"
         id="stop879" /><stop
         style="stop-color:#3a76f0;stop-opacity:1;"
         offset="0.93211949"
         id="stop881" /><stop
         style="stop-color:#0d45b5;stop-opacity:1;"
         offset="1"
         id="stop869" /></linearGradient><linearGradient
       xlink:href="#linearGradient871"
       id="linearGradient873"
       x1="9.9565323"
       y1="65.964918"
       x2="118.04347"
       y2="65.964918"
       gradientUnits="userSpaceOnUse" /></defs><path
     style="color:#000000;fill:url(#linearGradient873);fill-opacity:1;stroke-width:0.772153;stroke-linecap:round;stroke-linejoin:round;stroke-miterlimit:1.5"
     d="M 63.977043,11.930368 C 45.543317,11.845287 27.421127,21.844382 17.917367,37.695025 8.3949402,52.965645 7.2753234,73.136364 15.31486,89.272263 c -1.255363,5.924348 -2.99599,11.767377 -3.900577,17.749647 -0.45413,7.44698 7.608789,13.44124 14.600085,11.03462 4.879702,-1.11904 9.755612,-2.25433 14.629175,-3.39976 17.511426,8.7308 39.696072,6.58316 55.339397,-5.133 17.1118,-12.251671 25.61474,-35.092922 20.66099,-55.549594 C 113.20271,40.442857 105.11209,27.767414 93.026336,20.426934 84.480638,14.802352 74.166253,12.014613 63.977043,11.930368 Z"
     id="path4-3-7" /><path
     style="color:#000000;fill:#3a76f0;stroke-width:0.772153;stroke-linecap:round;stroke-linejoin:round;stroke-miterlimit:1.5"
     d="M 63.977043,8.0005432 C 45.543317,7.9154625 27.421127,17.914557 17.917367,33.7652 8.3949402,49.035821 7.2753234,69.20654 15.31486,85.342439 c -1.255363,5.924348 -2.99599,11.767378 -3.900577,17.749641 -0.45413,7.44699 7.608789,13.44125 14.600085,11.03462 4.879702,-1.11903 9.755612,-2.25432 14.629175,-3.39976 17.511426,8.73081 39.696072,6.58316 55.339397,-5.133 17.1118,-12.251665 25.61474,-35.092916 20.66099,-55.549589 C 113.20271,36.513032 105.11209,23.837589 93.026336,16.497109 84.480638,10.872528 74.166253,8.0847889 63.977043,8.0005432 Z"
     id="path4-3" /><path
     id="path4-6"
     style="fill:#ffffff;stroke-width:0.134307"
     d="m 64.00073,14.762642 c -2.369193,0 -4.735065,0.178473 -7.077545,0.533876 l 0.657568,4.378041 c 4.255715,-0.644786 8.584318,-0.644786 12.840043,0 l 0.65748,-4.378041 C 68.735874,14.941115 66.370002,14.762642 64.00073,14.762642 Z M 52.652261,16.14256 c -4.610214,1.128724 -9.021364,2.953922 -13.081344,5.412607 l 2.269739,3.800444 c 3.688189,-2.225204 7.690254,-3.882588 11.871843,-4.916446 z m 22.697027,0 -1.060247,4.296605 c 4.181578,1.033858 8.183692,2.691242 11.871882,4.916446 l 2.296854,-3.800444 C 84.387059,19.098614 79.967293,17.273652 75.349288,16.14256 Z m -11.389251,7.42895 c -13.023734,0.05865 -25.784788,7.037992 -32.585673,18.187808 -7.581222,11.97619 -7.876793,28.196335 -0.300131,40.254461 0.704352,1.320107 -0.422987,2.939361 -0.533867,4.393131 l -2.776431,11.847714 c 5.219525,-1.22358 10.439118,-2.447161 15.658711,-3.670741 10.898386,6.741177 25.17147,7.977637 36.802355,2.367729 C 93.866916,90.766235 103.025,76.05026 102.43494,61.066144 102.25641,45.790356 91.95818,31.333091 77.634068,26.07196 73.279066,24.412906 68.619433,23.568141 63.960037,23.57151 Z m -28.029661,0.401157 c -3.809257,2.814973 -7.177235,6.182449 -9.992728,9.991235 l 3.572672,2.660305 c 2.552883,-3.465772 5.614157,-6.526506 9.080351,-9.078819 z m 56.140826,0 -2.660305,3.572721 c 3.466184,2.552313 6.527429,5.613047 9.080332,9.078819 l 3.571201,-2.660305 C 99.247337,30.155224 95.87988,26.787757 92.071202,23.972667 Z M 23.520118,37.590894 c -2.455915,4.066043 -4.280355,8.481309 -5.411093,13.094923 l 4.296565,1.060198 c 1.033908,-4.18154 2.691262,-8.183664 4.916447,-11.871843 z m 80.959812,0 -3.80044,2.283278 c 2.22739,3.682776 3.88495,7.681254 4.91644,11.859788 l 4.2966,-1.061711 c -1.1313,-4.609399 -2.95633,-9.020176 -5.4126,-13.081355 z m -87.2185,17.352318 c -0.71177,4.696071 -0.71177,9.472616 0,14.168688 l 4.379573,-0.657529 c -0.321911,-2.124876 -0.483751,-4.270923 -0.484134,-6.420027 -7.9e-5,-2.149122 0.161683,-4.295219 0.484134,-6.420026 z m 93.47716,0 -4.37805,0.671106 c 0.32242,2.124807 0.48424,4.270904 0.48411,6.420026 -3.7e-4,2.149104 -0.1622,4.295151 -0.48411,6.420027 l 4.37805,0.657529 c 0.71175,-4.696072 0.71175,-9.472617 0,-14.168688 z m -88.333,17.365885 -4.296565,1.060198 c 0.966501,3.916876 2.428572,7.694508 4.350846,11.24145 l -1.087343,4.675145 4.323819,0.993843 1.477899,-6.340094 c -2.1577,-3.618828 -3.764861,-7.538612 -4.768656,-11.630542 z m 83.19034,0 c -1.0314,4.186619 -2.68889,8.193586 -4.91644,11.885411 l 3.80044,2.283277 c 2.45879,-4.069579 4.28389,-8.489699 5.4126,-13.10849 z m -7.104701,15.136898 c -2.553178,3.461616 -5.614472,6.51784 -9.080332,9.065251 l 2.63316,3.572714 c 3.816763,-2.810092 7.193337,-6.173443 10.018373,-9.979163 z m -78.032621,5.788121 -2.135467,9.146694 c -0.561434,2.38489 0.918636,4.77289 3.304275,5.33116 0.663512,0.14779 1.351339,0.14779 2.014851,0 l 9.145144,-2.10834 -1.007352,-4.33883 -9.145223,2.12192 2.135467,-9.145184 z m 65.702315,5.478971 c -3.682305,2.227243 -7.680273,3.884803 -11.858295,4.916433 l 1.060247,4.29812 c 4.604536,-1.13962 9.010282,-2.96904 13.067747,-5.42618 z m -44.065458,0.134214 -0.04097,0.02721 -6.338522,1.477949 1.007351,4.32375 4.660095,-1.08734 c 3.544249,1.92808 7.322628,3.39047 11.241449,4.35089 l 1.060169,-4.2966 c -4.078971,-1.01708 -7.984745,-2.63325 -11.58977,-4.795804 z m 15.485288,5.546839 -0.657568,4.37954 c 4.691523,0.71181 9.463578,0.71181 14.155091,0 l -0.65748,-4.37954 c -4.255725,0.64479 -8.584328,0.64479 -12.840043,0 z" /></svg>
