<?xml version="1.0" encoding="UTF-8" standalone="no"?>
<svg
   width="128"
   height="128"
   version="1"
   id="svg22"
   xmlns:xlink="http://www.w3.org/1999/xlink"
   xmlns="http://www.w3.org/2000/svg"
   xmlns:svg="http://www.w3.org/2000/svg">
  <defs
     id="defs26">
    <linearGradient
       id="linearGradient8">
      <stop
         style="stop-color:#006194;stop-opacity:1;"
         offset="0"
         id="stop3" />
      <stop
         style="stop-color:#14adff;stop-opacity:1;"
         offset="0.41445968"
         id="stop4" />
      <stop
         style="stop-color:#006194;stop-opacity:1;"
         offset="0.80555767"
         id="stop5" />
      <stop
         style="stop-color:#0091df;stop-opacity:1;"
         offset="1"
         id="stop7" />
    </linearGradient>
    <linearGradient
       xlink:href="#linearGradient8"
       id="linearGradient877"
       x1="13.85714"
       y1="65.928574"
       x2="114.14286"
       y2="65.928574"
       gradientUnits="userSpaceOnUse"
       gradientTransform="matrix(1.1111112,0,0,1.0925926,-7.11111,-6.033072)" />
    <linearGradient
       xlink:href="#linearGradient8"
       id="linearGradient1238"
       x1="55.359989"
       y1="88.608574"
       x2="117.99999"
       y2="88.608574"
       gradientUnits="userSpaceOnUse"
       gradientTransform="matrix(1.1111112,0,0,1.0925926,-7.11111,-6.033072)" />
    <linearGradient
       xlink:href="#linearGradient8"
       id="linearGradient1254"
       x1="10.000002"
       y1="43.248573"
       x2="72.640007"
       y2="43.248573"
       gradientUnits="userSpaceOnUse"
       gradientTransform="matrix(1.1111112,0,0,1.0925926,-7.11111,-6.033072)" />
  </defs>
  <path
     id="circle6-6"
     style="fill:url(#linearGradient1254);stroke-width:2.12493"
     d="M 73.60001,41.219997 A 34.800003,34.220001 0 0 1 38.800007,75.439999 34.800003,34.220001 0 0 1 4.0000038,41.219997 34.800003,34.220001 0 0 1 38.800007,6.9999962 34.800003,34.220001 0 0 1 73.60001,41.219997 Z" />
  <path
     id="circle10-7"
     style="fill:url(#linearGradient1238);stroke-width:2.12493"
     d="M 124,90.779999 A 34.800003,34.220001 0 0 1 89.199997,125 34.800003,34.220001 0 0 1 54.399994,90.779999 34.800003,34.220001 0 0 1 89.199997,56.559998 34.800003,34.220001 0 0 1 124,90.779999 Z" />
  <path
     id="circle14-3"
     style="fill:url(#linearGradient877);stroke-width:2.12493"
     d="m 119.7143,66 c 0,27.486826 -47.864602,23.15417 -48.138349,50.27686 l -0.04024,3.98696 c -0.0033,0.28598 -4.997997,0.5219 -7.535699,0.5219 C 33.229852,120.78572 8.2857115,96.257317 8.2857132,66 8.2857132,35.742684 33.229853,11.214283 64.000008,11.214283 94.770162,11.214284 119.7143,35.742685 119.7143,66 Z" />
  <path
     id="circle6"
     style="fill:#1587d7;stroke-width:2.12493"
     d="M 73.60001,37.220001 A 34.800003,34.220001 0 0 1 38.800007,71.440002 34.800003,34.220001 0 0 1 4.0000038,37.220001 34.800003,34.220001 0 0 1 38.800007,3 34.800003,34.220001 0 0 1 73.60001,37.220001 Z" />
  <path
     id="circle10"
     style="fill:#1587d7;stroke-width:2.12493"
     d="M 124,86.779999 A 34.800003,34.220001 0 0 1 89.199997,121 34.800003,34.220001 0 0 1 54.399994,86.779999 34.800003,34.220001 0 0 1 89.199997,52.559998 34.800003,34.220001 0 0 1 124,86.779999 Z" />
  <path
     id="circle14"
     style="fill:#0091df;stroke-width:2.12493"
     d="M 119.7143,62 A 55.714294,54.785717 0 0 1 64.000008,116.78572 55.714294,54.785717 0 0 1 8.2857132,62 55.714294,54.785717 0 0 1 64.000008,7.214283 55.714294,54.785717 0 0 1 119.7143,62 Z" />
  <path
     style="fill:#ffffff;fill-rule:evenodd;stroke-width:2.12493"
     d="m 49.654613,60.995893 a 16.809029,15.914074 0 0 1 -5.27111,-5.269242 15.375926,14.557272 0 0 1 -1.805619,-7.277665 13.815307,13.079745 0 0 1 3.254668,-8.808582 19.591262,18.548172 0 0 1 8.484254,-5.368891 32.766909,31.022316 0 0 1 11.109452,-1.76968 43.142579,40.845557 0 0 1 7.392321,0.536852 26.685368,25.26457 0 0 1 5.124263,1.252751 9.9367862,9.4077263 0 0 1 4.011378,2.425749 5.1855195,4.9094291 0 0 1 1.238968,3.261149 4.9901135,4.7244273 0 0 1 -1.302088,3.400265 4.3353355,4.1045114 0 0 1 -3.276171,1.292548 5.8974282,5.583434 0 0 1 -2.43595,-0.51726 44.09631,41.748508 0 0 0 -5.796601,-2.008094 21.040843,19.920574 0 0 0 -5.58594,-0.656092 12.749345,12.070538 0 0 0 -6.993485,1.69 5.819395,5.5095556 0 0 0 -2.792997,4.951144 5.2578374,4.9778967 0 0 0 1.448868,3.479621 13.214042,12.510492 0 0 0 3.906431,2.644593 q 2.457283,1.15391 7.329105,3.062248 a 7.5950304,7.1906516 0 0 1 1.050219,0.39778 52.057836,49.286146 0 0 1 9.072223,4.41423 18.292236,17.318312 0 0 1 5.586311,5.428299 15.117605,14.312704 0 0 1 2.016069,7.535956 16.011184,15.158707 0 0 1 -2.793358,9.087145 16.601341,15.717443 0 0 1 -7.811892,5.488107 32.928183,31.175003 0 0 1 -11.739683,1.80952 36.988145,35.018801 0 0 1 -16.00229,-2.863371 8.709158,8.2454599 0 0 1 -3.297142,-2.42577 5.7602365,5.4535467 0 0 1 -1.071171,-3.300946 4.5569674,4.3143428 0 0 1 1.406786,-3.360424 5.1891839,4.9128986 0 0 1 3.633107,-1.212887 9.2841511,8.7898393 0 0 1 4.242047,1.033907 q 2.435366,1.153977 3.843378,1.730231 a 19.316832,18.288354 0 0 0 3.318274,0.994063 18.972826,17.962664 0 0 0 4.262624,0.417373 11.377912,10.772122 0 0 0 7.161654,-1.809193 6.3067453,5.9709579 0 0 0 2.41488,-4.951189 5.557871,5.2619556 0 0 0 -1.511807,-3.619065 16.073384,15.217596 0 0 0 -4.45195,-3.06192 q -2.940646,-1.471221 -8.274716,-3.579224 a 51.263792,48.534376 0 0 1 -9.093378,-4.474035"
     id="path18" />
</svg>
