<?xml version="1.0" encoding="UTF-8" standalone="no"?>
<svg
   width="128"
   height="128"
   version="1"
   id="svg22"
   xmlns:xlink="http://www.w3.org/1999/xlink"
   xmlns="http://www.w3.org/2000/svg"
   xmlns:svg="http://www.w3.org/2000/svg">
  <defs
     id="defs26">
    <linearGradient
       id="linearGradient875">
      <stop
         style="stop-color:#0071ad;stop-opacity:1;"
         offset="0"
         id="stop871" />
      <stop
         style="stop-color:#0091df;stop-opacity:1;"
         offset="0.07156137"
         id="stop879" />
      <stop
         style="stop-color:#0071ad;stop-opacity:1;"
         offset="0.15120755"
         id="stop881" />
      <stop
         style="stop-color:#0071ad;stop-opacity:1;"
         offset="0.85002255"
         id="stop883" />
      <stop
         style="stop-color:#0091df;stop-opacity:1;"
         offset="0.93128383"
         id="stop885" />
      <stop
         style="stop-color:#0071ad;stop-opacity:1;"
         offset="1"
         id="stop873" />
    </linearGradient>
    <linearGradient
       xlink:href="#linearGradient875"
       id="linearGradient877"
       x1="13.85714"
       y1="65.928574"
       x2="114.14286"
       y2="65.928574"
       gradientUnits="userSpaceOnUse" />
    <linearGradient
       xlink:href="#linearGradient875"
       id="linearGradient1238"
       x1="55.359989"
       y1="88.608574"
       x2="117.99999"
       y2="88.608574"
       gradientUnits="userSpaceOnUse" />
    <linearGradient
       xlink:href="#linearGradient875"
       id="linearGradient1254"
       x1="10.000002"
       y1="43.248573"
       x2="72.640007"
       y2="43.248573"
       gradientUnits="userSpaceOnUse" />
  </defs>
  <circle
     style="fill:url(#linearGradient1254);fill-opacity:1.0;stroke-width:1.92858"
     cx="41.320004"
     cy="43.248573"
     r="31.320002"
     id="circle6-6" />
  <circle
     style="fill:#1587d7;stroke-width:1.92858"
     cx="41.320004"
     cy="39.39143"
     r="31.320002"
     id="circle6" />
  <circle
     style="fill:url(#linearGradient1238);fill-opacity:1.0;stroke-width:1.92858"
     cx="86.679993"
     cy="88.608574"
     r="31.320002"
     id="circle10-7" />
  <circle
     style="fill:#1587d7;stroke-width:1.92858"
     cx="86.679993"
     cy="84.751427"
     r="31.320002"
     id="circle10" />
  <circle
     style="fill:url(#linearGradient877);fill-opacity:1;stroke-width:1.92858"
     cx="64"
     cy="65.928574"
     r="50.14286"
     id="circle14-3" />
  <circle
     style="fill:#0091df;fill-opacity:1;stroke-width:1.92858"
     cx="64"
     cy="62.07143"
     r="50.14286"
     id="circle14" />
  <path
     style="fill:#ffffff;fill-rule:evenodd;stroke-width:1.92858"
     d="m 51.089147,61.152416 a 15.128125,14.565424 0 0 1 -4.743999,-4.822696 13.838332,13.323605 0 0 1 -1.625057,-6.660914 12.433775,11.971292 0 0 1 2.929201,-8.062092 17.632134,16.976293 0 0 1 7.635828,-4.9139 29.490216,28.393306 0 0 1 9.998506,-1.619707 38.828318,37.384069 0 0 1 6.653088,0.491356 24.016829,23.123505 0 0 1 4.611837,1.146586 8.9431069,8.6104613 0 0 1 3.61024,2.220177 4.6669672,4.4933758 0 0 1 1.115071,2.98478 4.4911018,4.3240521 0 0 1 -1.171879,3.112107 3.9018016,3.7566714 0 0 1 -2.948554,1.18301 5.307685,5.1102616 0 0 1 -2.192355,-0.473424 39.686676,38.210499 0 0 0 -5.21694,-1.837917 18.936757,18.23239 0 0 0 -5.027346,-0.600491 11.47441,11.047611 0 0 0 -6.294136,1.54678 5.2374551,5.0426441 0 0 0 -2.513697,4.531555 4.7320533,4.556041 0 0 0 1.303981,3.184738 11.892637,11.450281 0 0 0 3.515788,2.420475 q 2.211554,1.056121 6.596194,2.802735 a 6.8355268,6.5812743 0 0 1 0.945197,0.36407 46.852049,45.109354 0 0 1 8.165,4.040143 16.463011,15.850658 0 0 1 5.027679,4.968274 13.605843,13.099763 0 0 1 1.814462,6.897315 14.410064,13.874071 0 0 1 -2.514022,8.317048 14.941206,14.385456 0 0 1 -7.030702,5.023013 29.635362,28.533053 0 0 1 -10.565714,1.656171 33.289328,32.051106 0 0 1 -14.40206,-2.620712 7.8382416,7.5466921 0 0 1 -2.967427,-2.220197 5.1842124,4.9913817 0 0 1 -0.964054,-3.021204 4.1012703,3.9487205 0 0 1 1.266107,-3.075643 4.6702651,4.4965512 0 0 1 3.269796,-1.1101 8.3557353,8.0449376 0 0 1 3.817842,0.946288 q 2.191829,1.056182 3.45904,1.583601 a 17.385147,16.738493 0 0 0 2.986446,0.909821 17.075542,16.440404 0 0 0 3.836362,0.382002 10.24012,9.8592303 0 0 0 6.445488,-1.655871 5.6760703,5.4649445 0 0 0 2.173392,-4.531597 5.0020835,4.8160271 0 0 0 -1.360627,-3.312365 14.466044,13.927969 0 0 0 -4.006754,-2.802435 q -2.646581,-1.346541 -7.447244,-3.2759 a 46.137409,44.421293 0 0 1 -8.18404,-4.094879"
     id="path18" />
</svg>
