<?xml version="1.0" encoding="UTF-8" standalone="no"?>
<!-- Generator: Adobe Illustrator 26.0.2, SVG Export Plug-In . SVG Version: 6.00 Build 0)  -->

<svg
   version="1.0"
   id="Layer_1"
   x="0px"
   y="0px"
   viewBox="0 0 128 128"
   xml:space="preserve"
   width="128"
   height="128"
   xmlns:xlink="http://www.w3.org/1999/xlink"
   xmlns="http://www.w3.org/2000/svg"
   xmlns:svg="http://www.w3.org/2000/svg"><defs
   id="defs76"><linearGradient
     xlink:href="#linearGradient17386"
     id="linearGradient17303"
     x1="-172.3745"
     y1="49.345779"
     x2="-64.374977"
     y2="49.345779"
     gradientUnits="userSpaceOnUse"
     gradientTransform="translate(182.37474,12.337892)" /><linearGradient
     id="linearGradient17386"><stop
       style="stop-color:#333333;stop-opacity:1;"
       offset="0"
       id="stop17374" /><stop
       style="stop-color:#999999;stop-opacity:1;"
       offset="0.03350997"
       id="stop17376" /><stop
       style="stop-color:#333333;stop-opacity:1;"
       offset="0.0723825"
       id="stop17378" /><stop
       style="stop-color:#333333;stop-opacity:1;"
       offset="0.92826027"
       id="stop17380" /><stop
       style="stop-color:#999999;stop-opacity:1;"
       offset="0.96659791"
       id="stop17382" /><stop
       style="stop-color:#333333;stop-opacity:1;"
       offset="1"
       id="stop17384" /></linearGradient><linearGradient
     xlink:href="#linearGradient17250"
     id="linearGradient17252"
     x1="-159.95312"
     y1="70.293945"
     x2="-76.933594"
     y2="70.293945"
     gradientUnits="userSpaceOnUse"
     gradientTransform="translate(182.37474,12.337892)" /><linearGradient
     id="linearGradient17250"><stop
       style="stop-color:#df8d4e;stop-opacity:1;"
       offset="0"
       id="stop17246" /><stop
       style="stop-color:#ffdfc7;stop-opacity:1;"
       offset="0.06911447"
       id="stop17254" /><stop
       style="stop-color:#df8e4e;stop-opacity:1;"
       offset="0.15398893"
       id="stop17256" /><stop
       style="stop-color:#df8d4e;stop-opacity:1;"
       offset="0.85170591"
       id="stop17258" /><stop
       style="stop-color:#ffdfc7;stop-opacity:1;"
       offset="0.93271631"
       id="stop17260" /><stop
       style="stop-color:#df8d4e;stop-opacity:1;"
       offset="1"
       id="stop17248" /></linearGradient><radialGradient
     xlink:href="#linearGradient3926"
     id="radialGradient3041"
     gradientUnits="userSpaceOnUse"
     gradientTransform="matrix(-1.4129499,-0.6322035,0.69731413,-1.2766977,14.801675,1141.6816)"
     cx="139.83037"
     cy="462.63513"
     fx="139.83037"
     fy="462.63513"
     r="9.1809759" /><linearGradient
     id="linearGradient3926"><stop
       style="stop-color:#ffc7c7;stop-opacity:1"
       offset="0"
       id="stop3928" /><stop
       id="stop3930"
       offset="1"
       style="stop-color:#ff3f3f;stop-opacity:0.49803922;" /></linearGradient><filter
     color-interpolation-filters="sRGB"
     id="filter3761-2-0"
     x="-0.69551782"
     width="2.3910356"
     y="-0.79211751"
     height="2.584235"><feGaussianBlur
       stdDeviation="8.4016752"
       id="feGaussianBlur3763-6-3" /></filter><radialGradient
     xlink:href="#linearGradient3926"
     id="radialGradient5295"
     gradientUnits="userSpaceOnUse"
     gradientTransform="matrix(-1.4129499,-0.6322035,0.69731413,-1.2766977,14.801675,1141.6816)"
     cx="139.83037"
     cy="462.63513"
     fx="139.83037"
     fy="462.63513"
     r="9.1809759"
     spreadMethod="pad" /><filter
     color-interpolation-filters="sRGB"
     id="filter3761-2-0-4"
     x="-0.69551782"
     width="2.3910356"
     y="-0.79211751"
     height="2.584235"><feGaussianBlur
       stdDeviation="8.4016752"
       id="feGaussianBlur3763-6-3-4" /></filter></defs>
<style
   type="text/css"
   id="style2">
	.st0{fill:url(#SVGID_1_);}
	.st1{fill:url(#SVGID_00000062171159965967627490000013605884846004172698_);}
	.st2{fill:url(#SVGID-2_00000085966066984138215510000013018799571900533434_);}
	.st3{clip-path:url(#SVGID_00000023257072852279316340000004281102206337855156_);}
	.st4{fill:url(#SVGID_00000177446033621631838710000001370584907163434138_);}
	.st5{clip-path:url(#SVGID_00000136385553608229244970000014654043435100792964_);}
	.st6{fill:url(#SVGID_00000126306410582640054500000000964390405037519506_);}
	.st7{fill:url(#SVGID_00000109020757643166282930000006684795936706346369_);}
</style>
<radialGradient
   id="SVGID_1_"
   cx="514.5"
   cy="477.5"
   r="496.5"
   gradientTransform="matrix(1,0,0,-1,-18,974)"
   gradientUnits="userSpaceOnUse">
	<stop
   offset="0.9134"
   style="stop-color:#000000"
   id="stop4" />
	<stop
   offset="1"
   style="stop-color:#000000;stop-opacity:0"
   id="stop6" />
</radialGradient>

<radialGradient
   id="SVGID_00000163033830155146975860000008434547654242457221_"
   cx="512.05908"
   cy="481.87881"
   r="486.27271"
   gradientTransform="matrix(0.11104257,0,0,-0.11104257,7.1350999,117.51141)"
   gradientUnits="userSpaceOnUse">
	<stop
   offset="0.99"
   style="stop-color:#FFFFFF"
   id="stop11" />
	<stop
   offset="0.9951"
   style="stop-color:#FDFDFD"
   id="stop13" />
	<stop
   offset="0.9969"
   style="stop-color:#F6F6F6"
   id="stop15" />
	<stop
   offset="0.9982"
   style="stop-color:#EBEBEB"
   id="stop17" />
	<stop
   offset="0.9992"
   style="stop-color:#DADADA"
   id="stop19" />
	<stop
   offset="1"
   style="stop-color:#C7C7C7"
   id="stop21" />
</radialGradient>

<radialGradient
   id="SVGID-2_00000052072577768947982130000002178866272689676469_"
   cx="512.06152"
   cy="481.87881"
   r="444.12241"
   gradientTransform="matrix(1,0,0,-1,-18,974)"
   gradientUnits="userSpaceOnUse">
	<stop
   offset="0.99"
   style="stop-color:#000000;stop-opacity:0.5"
   id="stop26" />
	<stop
   offset="1"
   style="stop-color:#000000;stop-opacity:0"
   id="stop28" />
</radialGradient>



<radialGradient
   id="SVGID_00000092427181212153090570000016417065628950216588_"
   cx="578.89008"
   cy="482.3703"
   r="353.94269"
   gradientTransform="matrix(0.11104257,0,0,-0.1218248,7.1350999,118.45626)"
   gradientUnits="userSpaceOnUse">
	<stop
   offset="0"
   style="stop-color:#C2C0C2"
   id="stop66" />
	<stop
   offset="1"
   style="stop-color:#EBEBEB"
   id="stop68" />
</radialGradient>

		
	
		
	
<path
   id="path16310-6"
   style="color:#000000;fill:url(#linearGradient17303);fill-opacity:1;stroke-width:0.264361;-inkscape-stroke:none"
   d="m 63.82005,32.916011 c -18.70702,0 -31.98203,5.181337 -40.67187,13.060001 -8.1466,7.386115 -12.22308,17.073116 -13.01367,26.913121 l 0.002,-0.0039 c -0.27584,2.44149 -0.12366,4.948588 0.37305,7.279059 0.51794,2.43012 1.86692,4.826902 3.77148,6.425228 1.40489,1.178994 3.92495,2.107164 6.10352,2.755352 2.17855,0.648178 4.47863,1.049269 4.47863,1.049269 l 0.23047,0.04703 -0.0801,-0.221286 c 0,0 -3.90099,-9.435394 -0.83801,-18.256988 0.733,-2.111093 2.50049,-5.006502 4.08203,-7.363264 1.58155,-2.356762 2.97656,-4.179044 2.97657,-4.179044 l 0.1289,-0.168414 -0.20703,-0.04308 c 0,0 -1.85338,-0.382174 -4.13477,-0.620787 -2.28137,-0.238612 -4.98718,-0.340204 -6.73828,0.252623 -2.5368,0.858831 -4.88309,2.553526 -6.65429,4.643165 1.89921,-6.318858 5.36065,-12.262145 10.74414,-17.143088 8.29569,-7.521301 21.07777,-12.572381 39.44726,-12.572381 18.36949,0 31.26924,5.048709 39.6582,12.572381 5.46356,4.900006 8.9761,10.867928 10.9043,17.211629 -1.77782,-2.121999 -4.15892,-3.843761 -6.72265,-4.711706 -1.7511,-0.592827 -4.4569,-0.491235 -6.73829,-0.252623 -2.28138,0.238613 -4.13476,0.620787 -4.13476,0.620787 l -0.20508,0.04308 0.12695,0.168414 c 0,0 1.39698,1.822282 2.97852,4.179044 1.58154,2.356762 3.34708,5.252171 4.08008,7.363264 3.06298,8.821594 -0.92295,18.267152 -0.92295,18.267152 l -0.0801,0.221286 0.22852,-0.04703 c 0,0 2.38696,-0.411255 4.56552,-1.059433 2.17856,-0.648188 4.70058,-1.576358 6.10547,-2.755352 1.90457,-1.598326 3.25159,-3.995108 3.76953,-6.425228 0.35305,-1.656455 0.52523,-3.398295 0.50195,-5.148412 h 0.0645 l -0.004,-0.137082 C 117.61508,64.368298 113.46141,53.852171 104.67944,45.976029 95.8974,38.099832 82.52709,32.916028 63.82006,32.916028 Z" /><path
   id="path16318-9"
   style="color:#000000;fill:url(#linearGradient17252);fill-opacity:1;stroke-width:0.460983;-inkscape-stroke:none"
   d="m 63.93138,49.263674 c -22.89775,0 -41.50976,14.912475 -41.50976,33.369147 0,2.323017 1.20864,3.488698 1.76977,5.676703 0,0 -0.79081,1.567973 -0.72479,1.800001 C 27.6907,104.95463 44.22365,116 63.93138,116 c 19.70625,0 36.2382,-11.04371 40.46383,-25.88712 0.0322,-0.11313 -0.72118,-1.813055 -0.72118,-1.813055 0.62312,-2.299692 1.76711,-3.215565 1.76711,-5.667004 0,-18.456672 -18.61201,-33.369147 -41.50976,-33.369147 z" /><path
   id="path16310"
   style="color:#000000;fill:#000000;stroke-width:0.26401;-inkscape-stroke:none"
   d="m 63.82005,31.068361 c -18.70702,0 -31.98203,5.167606 -40.67187,13.02539 -8.1466,7.366541 -12.22308,17.02787 -13.01367,26.841797 l 0.002,-0.0039 c -0.27584,2.435019 -0.12366,4.935473 0.37305,7.259766 0.51794,2.423683 1.86692,4.814109 3.77148,6.408203 1.40489,1.175867 3.92495,2.101579 6.10352,2.748047 2.17855,0.646466 4.01367,1.003906 4.01367,1.003906 l 0.23047,0.04687 -0.0801,-0.220703 c 0,0 -3.43603,-9.367803 -0.37305,-18.166016 0.733,-2.105498 2.50049,-4.993234 4.08203,-7.34375 1.58155,-2.350516 2.97656,-4.167969 2.97657,-4.167969 l 0.1289,-0.167968 -0.20703,-0.04297 c 0,0 -1.85338,-0.381161 -4.13477,-0.619141 -2.28137,-0.23798 -4.98718,-0.339303 -6.73828,0.251953 -2.5368,0.856555 -4.88309,2.546759 -6.65429,4.63086 1.89921,-6.302112 5.36065,-12.229649 10.74414,-17.097656 8.29569,-7.501369 21.07777,-12.539063 39.44726,-12.539063 18.36949,0 31.26924,5.03533 39.6582,12.539063 5.46356,4.88702 8.9761,10.839126 10.9043,17.166015 -1.77783,-2.116375 -4.15892,-3.833574 -6.72266,-4.699219 -1.75109,-0.591256 -4.4569,-0.489933 -6.73828,-0.251953 -2.28138,0.23798 -4.13476,0.619141 -4.13476,0.619141 l -0.20508,0.04297 0.12695,0.167968 c 0,0 1.39698,1.817453 2.97852,4.167969 1.58154,2.350516 3.34708,5.238252 4.08008,7.34375 3.06297,8.798213 -0.3711,18.166016 -0.3711,18.166016 l -0.0801,0.220703 0.22852,-0.04687 c 0,0 1.8351,-0.35744 4.01367,-1.003906 2.17856,-0.646468 4.70058,-1.57218 6.10547,-2.748047 1.90457,-1.594094 3.25159,-3.98452 3.76953,-6.408203 0.35305,-1.652063 0.52523,-3.389287 0.50195,-5.134766 h 0.0645 l -0.004,-0.136719 C 117.61508,62.437284 113.46141,51.949026 104.67944,44.093757 95.8974,36.238433 82.52709,31.068367 63.82006,31.068367 Z" /><g
   id="path2816"
   transform="translate(182.37474,12.337892)"><path
     id="path16318"
     style="color:#000000;fill:#ffdfc6;stroke-width:0.460983;-inkscape-stroke:none"
     d="m -118.44336,32.925781 c -22.89775,0 -41.50977,14.912475 -41.50976,33.369141 0,18.456665 18.61201,33.367187 41.50976,33.367187 22.897753,0 41.509766,-14.910522 41.509766,-33.367187 0,-18.456666 -18.612013,-33.369141 -41.509766,-33.369141 z" /></g><g
   id="path3590-2"
   transform="translate(182.37474,14.337892)"><path
     id="path17241"
     style="color:#000000;fill:#a82929;stroke-width:0.455033;-inkscape-stroke:none"
     d="m -118.1322,68.611743 c -8.05037,0 -14.61719,5.492609 -14.61719,12.314453 0,6.821838 6.56682,12.314448 14.61719,12.314448 8.05037,0 14.61719,-5.49261 14.61719,-12.314448 0,-6.821844 -6.56682,-12.314453 -14.61719,-12.314453 z" /></g><ellipse
   id="path3590"
   style="display:inline;fill:#ffafa2;fill-opacity:1;stroke:#a72929;stroke-width:0.455033;stroke-opacity:1"
   cx="64.242538"
   cy="93.264084"
   rx="14.3895"
   ry="12.087019" /><ellipse
   id="path3592"
   style="fill:#a72929;fill-opacity:1;stroke:#a62929;stroke-width:0.455033;stroke-opacity:1"
   cx="59.685856"
   cy="93.479919"
   rx="2.3982499"
   ry="2.1583962" /><ellipse
   id="path3592-1"
   style="fill:#a72929;fill-opacity:1;stroke:#a62929;stroke-width:0.455033;stroke-opacity:1"
   cx="68.079742"
   cy="93.479919"
   rx="2.3982499"
   ry="2.1583962" /><ellipse
   id="path3616-7-4"
   style="fill:#000000;fill-opacity:1;stroke:#000000;stroke-width:0.42857;stroke-opacity:1"
   transform="scale(-1,1)"
   cx="-54.534794"
   cy="77.264542"
   rx="3.138634"
   ry="3.5111806" /><ellipse
   id="path3616-7-4-7"
   style="fill:#000000;fill-opacity:1;stroke:#000000;stroke-width:0.42857;stroke-opacity:1"
   cx="73.320374"
   cy="77.264542"
   rx="3.138634"
   ry="3.5111806" /><ellipse
   transform="matrix(0.61609443,0,0,0.68069475,-45.38774,-226.68665)"
   id="path3677-0-6"
   style="display:inline;fill:url(#radialGradient3041);fill-opacity:1;stroke:none;filter:url(#filter3761-2-0)"
   cx="139.83037"
   cy="462.63513"
   rx="14.495689"
   ry="12.727922" /><path
   transform="matrix(0.79566021,-0.6057432,-0.6057432,-0.79566021,0,0)"
   d="m 18.647228,-100.05066 a 2.7330883,2.5684445 0 0 1 -1.031792,2.010154 2.7330883,2.5684445 0 0 1 -2.316334,0.492413"
   id="path2887"
   style="fill:none;stroke:#000000;stroke-width:0.745093px;stroke-linecap:butt;stroke-linejoin:miter;stroke-opacity:1" /><path
   transform="rotate(-142.71766)"
   d="m -82.634679,-22.943863 a 2.7330883,2.5684445 0 0 1 -1.031792,2.010154 2.7330883,2.5684445 0 0 1 -2.316334,0.492412"
   id="path2887-1"
   style="fill:none;stroke:#000000;stroke-width:0.745093px;stroke-linecap:butt;stroke-linejoin:miter;stroke-opacity:1" /><ellipse
   transform="matrix(0.61609443,0,0,0.68069475,0.5954,-226.73094)"
   id="path3677-0-6-7"
   style="display:inline;fill:url(#radialGradient5295);fill-opacity:1;fill-rule:nonzero;stroke:none;filter:url(#filter3761-2-0-4)"
   cx="139.83037"
   cy="462.63513"
   rx="14.495689"
   ry="12.727922" /></svg>
