<?xml version="1.0" encoding="UTF-8" standalone="no"?>
<svg
   height="128px"
   viewBox="0 0 128 128"
   width="128px"
   version="1.1"
   id="svg83"
   xml:space="preserve"
   xmlns:xlink="http://www.w3.org/1999/xlink"
   xmlns="http://www.w3.org/2000/svg"
   xmlns:svg="http://www.w3.org/2000/svg"><defs
     id="defs87"><clipPath
       id="b-5"><path
         d="m 88,94 h 20 v 20 H 88 Z m 0,0"
         id="path1370" /></clipPath><clipPath
       id="c-3"><path
         d="M 108,94 88,114 H 82.285156 V 88.285156 H 108 Z m 0,0"
         id="path1373" /></clipPath><linearGradient
       xlink:href="#d"
       id="linearGradient1633"
       gradientUnits="userSpaceOnUse"
       gradientTransform="matrix(0,0.178571,0.178571,0,84.428574,42.571447)"
       x1="344"
       y1="76"
       x2="340"
       y2="72" /></defs><linearGradient
     id="a"
     gradientTransform="matrix(-1.1818182,0,0,-1.0170261,149.0909,-176.97162)"
     gradientUnits="userSpaceOnUse"
     x1="27.99999"
     x2="115.999992"
     y1="-276"
     y2="-276"><stop
       offset="0"
       stop-color="#c0bfbc"
       id="stop2" /><stop
       offset="0.0454545"
       stop-color="#ffffff"
       id="stop4" /><stop
       offset="0.0909091"
       stop-color="#deddda"
       id="stop6" /><stop
       offset="0.909091"
       stop-color="#deddda"
       id="stop8" /><stop
       offset="0.954545"
       stop-color="#ffffff"
       id="stop10" /><stop
       offset="1"
       stop-color="#c0bfbc"
       id="stop12" /></linearGradient><clipPath
     id="b"><path
       d="m 88 94 h 20 v 20 h -20 z m 0 0"
       id="path15" /></clipPath><clipPath
     id="c"><path
       d="m 108 94 l -20 20 h -5.714844 v -25.714844 h 25.714844 z m 0 0"
       id="path18" /></clipPath><linearGradient
     id="d"
     gradientTransform="matrix(0,0.178571,0.178571,0,84.428574,42.571447)"
     gradientUnits="userSpaceOnUse"
     x1="344"
     x2="340"
     y1="76"
     y2="72"><stop
       offset="0"
       stop-color="#d5d3cf"
       id="stop21" /><stop
       offset="1"
       stop-color="#ffffff"
       id="stop23" /></linearGradient><linearGradient
     id="e"
     gradientUnits="userSpaceOnUse"><stop
       offset="0"
       stop-color="#fc9a91"
       id="stop26" /><stop
       offset="1"
       stop-color="#cb2b31"
       id="stop28" /></linearGradient><linearGradient
     id="f"
     gradientTransform="matrix(0.6 0.6 0.707107 -0.707107 295.740141 128.474214)"
     x1="-253.630356"
     x2="-230.060135"
     xlink:href="#e"
     y1="-56.517502"
     y2="-56.517502" /><linearGradient
     id="g"
     gradientTransform="matrix(0.6 0.6 0.707107 -0.707107 294.325928 129.888428)"
     x1="-253.630356"
     x2="-230.060135"
     xlink:href="#e"
     y1="-56.517502"
     y2="-56.517502" /><linearGradient
     id="h"
     gradientTransform="matrix(0.390307 -0.130102 0.130102 -0.390307 -2.964383 65.147882)"
     gradientUnits="userSpaceOnUse"
     x1="181.677414"
     x2="143.24614"
     y1="-139.479385"
     y2="-101.048103"><stop
       offset="0"
       stop-color="#d0bb8e"
       id="stop33" /><stop
       offset="1"
       stop-color="#ffffff"
       id="stop35" /></linearGradient><linearGradient
     id="i"
     gradientTransform="matrix(0.6 0.6 0.707107 -0.707107 294.32593 129.888425)"
     gradientUnits="userSpaceOnUse"
     x1="-230.060135"
     x2="-253.630356"
     y1="-64.517509"
     y2="-64.517509"><stop
       offset="0"
       stop-color="#c0bfbc"
       id="stop38" /><stop
       offset="0.223152"
       stop-color="#9a9996"
       id="stop40" /><stop
       offset="0.743841"
       stop-color="#d6d5d2"
       id="stop42" /><stop
       offset="1"
       stop-color="#f6f5f4"
       id="stop44" /></linearGradient><path
     d="M 106.54545,120 H 21.454544 c -5.221236,0 -9.454545,-3.64302 -9.454545,-8.13621 V 87.455165 c 0,-4.49319 4.233309,-8.136209 9.454545,-8.136209 h 85.090906 c 5.22124,0 9.45455,3.643019 9.45455,8.136209 V 111.86379 C 116,116.35698 111.76669,120 106.54545,120 Z m 0,0"
     fill="url(#a)"
     id="path49"
     style="fill:url(#a);stroke-width:1.09633" /><path
     d="M 105.21591,115.9319 H 22.78409 c -5.955255,0 -10.784091,-4.15551 -10.784091,-9.28037 V 17.280363 C 11.999999,12.155506 16.828835,8 22.78409,8 h 82.43182 C 111.17116,8 116,12.155506 116,17.280363 v 89.371167 c 0,5.12486 -4.82884,9.28037 -10.78409,9.28037 z m 0,0"
     fill="#f6f5f4"
     id="path51"
     style="stroke-width:1.09633" /><path
     d="m 22.784089,12 c -5.973722,0 -10.78409,4.139614 -10.78409,9.280363 V 34.996074 H 116 V 21.280363 C 116,16.139614 111.18963,12 105.21591,12 Z"
     fill="#3584e4"
     id="path61-7"
     style="fill:#0555a8;fill-opacity:1;stroke-width:1.09633" /><path
     d="M 22.78409,8 C 16.810368,8 12,12.139614 12,17.280363 V 30.996074 H 116 V 17.280363 C 116,12.139614 111.18963,8 105.21591,8 Z"
     fill="#3584e4"
     id="path61"
     style="stroke-width:1.09633;fill:#086dd6;fill-opacity:1" /><g
     id="g395"
     transform="matrix(1.1818182,0,0,1.0170261,-11.636365,12.195233)"><path
       d="m 48,52 v 6 H 28 V 32 h 72 v 20 z m 0,0"
       fill="#deddda"
       id="path63" /><path
       d="m 80,76 v 6 H 28 V 64 h 72 v 12 z m 0,0"
       fill="#deddda"
       id="path65" /></g><g
     clip-path="url(#b-5)"
     id="g1412"
     transform="translate(8,1.9319)"><g
       clip-path="url(#c-3)"
       id="g1410"><path
         d="m 88,102 v 9.71484 c 0,4.41797 3.582031,8 8,8 h 9.71484 c 4.41797,0 8,-3.58203 8,-8 V 102 c 0,-4.417969 -3.58203,-8 -8,-8 H 96 c -4.417969,0 -8,3.582031 -8,8 z m 0,0"
         fill="url(#d)"
         id="path1408"
         style="fill:url(#linearGradient1633)" /></g></g></svg>
