<?xml version="1.0" encoding="UTF-8" standalone="no"?>
<svg
   width="128"
   height="128"
   version="1"
   id="svg566"
   xmlns:xlink="http://www.w3.org/1999/xlink"
   xmlns="http://www.w3.org/2000/svg"
   xmlns:svg="http://www.w3.org/2000/svg">
  <defs
     id="defs570">
    <linearGradient
       id="linearGradient1365"
       x2="50%"
       x1="50%"
       y2="100%"
       y1="0%">
      <stop
         stop-color="#111d2e"
         offset="0"
         id="stop1351"
         style="stop-color:#0a101a;stop-opacity:1;" />
      <stop
         stop-color="#051839"
         offset="0.212"
         id="stop1353"
         style="stop-color:#030e21;stop-opacity:1;" />
      <stop
         stop-color="#0a1b48"
         offset="0.40700001"
         id="stop1355"
         style="stop-color:#071231;stop-opacity:1;" />
      <stop
         stop-color="#132e62"
         offset="0.58099997"
         id="stop1357"
         style="stop-color:#0b1a38;stop-opacity:1;" />
      <stop
         stop-color="#144b7e"
         offset="0.73799998"
         id="stop1359"
         style="stop-color:#0d3254;stop-opacity:1;" />
      <stop
         stop-color="#136497"
         offset="0.87300003"
         id="stop1361"
         style="stop-color:#0d4568;stop-opacity:1;" />
      <stop
         stop-color="#1387b8"
         offset="1"
         id="stop1363"
         style="stop-color:#0e668b;stop-opacity:1;" />
    </linearGradient>
    <linearGradient
       id="A"
       x2="50%"
       x1="50%"
       y2="100%"
       y1="0%">
      <stop
         stop-color="#111d2e"
         offset="0%"
         id="stop435" />
      <stop
         stop-color="#051839"
         offset="21.2%"
         id="stop437" />
      <stop
         stop-color="#0a1b48"
         offset="40.7%"
         id="stop439" />
      <stop
         stop-color="#132e62"
         offset="58.1%"
         id="stop441" />
      <stop
         stop-color="#144b7e"
         offset="73.8%"
         id="stop443" />
      <stop
         stop-color="#136497"
         offset="87.3%"
         id="stop445" />
      <stop
         stop-color="#1387b8"
         offset="100%"
         id="stop447" />
    </linearGradient>
    <linearGradient
       xlink:href="#A"
       id="linearGradient698"
       x1="32.01076"
       y1="0"
       x2="32.01076"
       y2="63.965491"
       gradientTransform="matrix(1.6879186,0,0,1.6884104,9.98417,8.000002)"
       gradientUnits="userSpaceOnUse" />
    <linearGradient
       xlink:href="#linearGradient1365"
       id="linearGradient1523"
       x1="-736.94873"
       y1="3.2184236"
       x2="-736.94873"
       y2="110.89648"
       gradientUnits="userSpaceOnUse"
       gradientTransform="matrix(0.99970878,0,0,1,800.57229,8.603992)" />
  </defs>
  <ellipse
     style="fill:url(#linearGradient1523);fill-opacity:1;stroke-width:0.226997;stroke-linecap:round;stroke-linejoin:round;stroke-miterlimit:1.5;paint-order:stroke fill markers"
     id="path1515"
     cx="64.015701"
     cy="66"
     rx="53.984276"
     ry="54" />
  <path
     d="m 61.15029,52.474688 0.005,0.26663 -13.21777,19.19531 c -2.14051,-0.0979 -4.28776,0.27844 -6.32698,1.11712 -0.8877,0.36063 -1.73523,0.81309 -2.52876,1.35 L 10.05501,62.444438 c 0,0 -0.49683,11.05108 2.30203,19.2827 l -0.10145,-3.99918 20.44692,12.45898 c 1.01285,4.6035 4.18647,8.64 8.84898,10.580632 7.63794,3.17251 16.40307,-0.43863 19.58694,-8.069632 0.81575,-1.95211 1.20925,-4.05462 1.15466,-6.1695 l 18.89483,-13.50844 0.46423,0.008 c 11.31866,0 20.51877,-9.22387 20.51877,-20.55375 0,-11.32987 -9.18324,-20.520002 -20.51877,-20.543622 -11.31361,0 -20.51878,9.213752 -20.51878,20.543622 z m -3.17362,38.89688 c -2.45448,5.90625 -9.22711,8.685562 -15.11349,6.23362 -2.61213,-1.09742 -4.72941,-3.11666 -5.94884,-5.67337 l 6.67978,2.7675 c 4.3399,1.80586 9.32238,-0.24885 11.12622,-4.58832 1.80845,-4.34117 -0.24263,-9.32621 -4.58317,-11.13918 l -6.92119,-2.86032 c 2.66382,-1.0125 5.69226,-1.04625 8.52488,0.12994 2.86975,1.18631 5.06427,3.42056 6.23919,6.2775 1.17491,2.85694 1.16816,6.0075 -0.0169,8.85263 m 23.70758,-25.20282 c -7.55122,-0.0204 -13.66369,-6.14209 -13.67018,-13.69068 0.008,-7.54728 6.12027,-13.666872 13.67018,-13.687312 7.55123,0.0186 13.66521,6.138722 13.67356,13.687312 -0.006,7.54991 -6.12102,13.67209 -13.67356,13.69068 M 71.42739,52.456128 c -0.005,-5.67247 4.58914,-10.276 10.2636,-10.28531 5.66356,0 10.27035,4.60687 10.27035,10.28531 0.003,5.67379 -4.59458,10.27635 -10.27035,10.28194 -5.6738,-0.008 -10.26809,-4.61013 -10.26529,-10.28194 z"
     id="path692-9"
     style="fill:#cccccc;stroke-width:1.68779;fill-opacity:1" />
  <path
     d="M 12.18808,77.528378 C 18.86572,99.776378 39.51841,116 63.95746,116 93.80414,116 118,91.823188 118,61.999998 118,32.176815 93.80414,8.000002 63.95746,8.000002 c -28.63918,0 -52.07505,22.263188 -53.92601,50.412376 3.50264,5.86744 4.86214,9.49725 2.15326,19.116 z"
     fill="url(#A)"
     id="path690"
     style="fill:url(#linearGradient698);stroke-width:1.68816" />
  <path
     d="m 61.15029,48.474688 0.005,0.26663 -13.21777,19.19531 c -2.14051,-0.0979 -4.28776,0.27844 -6.32698,1.11712 -0.8877,0.36063 -1.73523,0.81309 -2.52876,1.35 L 10.05501,58.444438 c 0,0 -0.60453,11.06384 2.19433,19.29546 l 20.45314,8.44704 c 1.01285,4.6035 4.18647,8.64 8.84898,10.58063 7.63794,3.17251 16.40307,-0.43863 19.58694,-8.06963 0.81575,-1.95211 1.20925,-4.05462 1.15466,-6.1695 l 18.89483,-13.50844 0.46423,0.008 c 11.31866,0 20.51877,-9.22387 20.51877,-20.55375 0,-11.329873 -9.18324,-20.519998 -20.51877,-20.543624 -11.31361,0 -20.51878,9.213751 -20.51878,20.543624 z m -3.17362,38.89688 c -2.45448,5.90625 -9.22711,8.68556 -15.11349,6.23362 -2.61213,-1.09742 -4.72941,-3.11666 -5.94884,-5.67337 l 6.67978,2.7675 c 4.3399,1.80586 9.32238,-0.24885 11.12622,-4.58832 1.80845,-4.34117 -0.24263,-9.32621 -4.58317,-11.13918 l -6.92119,-2.86032 c 2.66382,-1.0125 5.69226,-1.04625 8.52488,0.12994 2.86975,1.18631 5.06427,3.42056 6.23919,6.2775 1.17491,2.85694 1.16816,6.0075 -0.0169,8.85263 m 23.70758,-25.20282 c -7.55122,-0.0204 -13.66369,-6.14209 -13.67018,-13.69068 0.008,-7.54728 6.12027,-13.666872 13.67018,-13.687316 7.55123,0.01859 13.66521,6.138722 13.67356,13.687316 -0.006,7.54991 -6.12102,13.67209 -13.67356,13.69068 M 71.42739,48.456128 c -0.005,-5.67247 4.58914,-10.275997 10.2636,-10.285313 5.66356,0 10.27035,4.606873 10.27035,10.285313 0.003,5.67379 -4.59458,10.27635 -10.27035,10.28194 -5.6738,-0.008 -10.26809,-4.61013 -10.26529,-10.28194 z"
     id="path692"
     style="fill:#ffffff;stroke-width:1.68779" />
</svg>
