<?xml version="1.0" encoding="UTF-8" standalone="no"?>
<svg
   viewBox="0 0 128 128"
   style="display:inline;enable-background:new"
   version="1.0"
   id="svg11300"
   height="128"
   width="128"
   xmlns:xlink="http://www.w3.org/1999/xlink"
   xmlns="http://www.w3.org/2000/svg"
   xmlns:svg="http://www.w3.org/2000/svg"
   xmlns:rdf="http://www.w3.org/1999/02/22-rdf-syntax-ns#"
   xmlns:cc="http://creativecommons.org/ns#"
   xmlns:dc="http://purl.org/dc/elements/1.1/">
  <title
     id="title4162">Adwaita Icon Template</title>
  <defs
     id="defs3">
    <linearGradient
       id="linearGradient1">
      <stop
         style="stop-color:#0a3a43;stop-opacity:1;"
         offset="0"
         id="stop1" />
      <stop
         style="stop-color:#167f93;stop-opacity:1;"
         offset="0.07404674"
         id="stop3" />
      <stop
         style="stop-color:#0a3a43;stop-opacity:1;"
         offset="0.15259463"
         id="stop4" />
      <stop
         style="stop-color:#0a3a43;stop-opacity:1;"
         offset="0.85313934"
         id="stop5" />
      <stop
         style="stop-color:#167f93;stop-opacity:1;"
         offset="0.92996705"
         id="stop6" />
      <stop
         style="stop-color:#0a3a43;stop-opacity:1;"
         offset="1"
         id="stop2" />
    </linearGradient>
    <linearGradient
       xlink:href="#linearGradient1"
       id="linearGradient2"
       x1="-92.999998"
       y1="138"
       x2="-12.46649"
       y2="138"
       gradientUnits="userSpaceOnUse"
       gradientTransform="translate(116.73324,-71.999962)" />
  </defs>
  <metadata
     id="metadata4">
    <rdf:RDF>
      <cc:Work
         rdf:about="">
        <dc:title>Adwaita Icon Template</dc:title>
      </cc:Work>
    </rdf:RDF>
  </metadata>
  <path
     fill-rule="evenodd"
     clip-rule="evenodd"
     d="m 85.264091,16.009438 c -0.115153,-0.0029 -0.230621,-0.0063 -0.346089,-0.0094 H 61.809637 c -15.126923,0.816078 -21.485585,9.60438 -23.191552,14.28473 -6.628955,19.87017 -10.753835,45.60661 -13.731465,64.18467 -0.0582,0.36245 -0.11578,0.72206 -0.17304,1.07885 l -0.96741,8.829992 c -0.0573,1.39411 0.073,2.90368 0.4485,4.36953 1.85802,5.38703 7.46029,9.9252 19.802677,5.40402 l 0.0013,0.006 c 11.658953,-5.08467 25.431095,-11.403 39.673288,-18.491212 8.108237,-4.68888 19.985695,-15.4683 20.594815,-29.08407 -0.10981,-10.09888 -0.44803,-20.68659 -1.13391,-30.99051 l -0.003,0.006 -3.2e-4,-0.0711 c -0.0563,-0.84635 -0.11515,-1.82568 -0.17619,-2.84517 -0.11767,-1.95785 -0.24415,-4.06387 -0.38007,-5.660567 -0.20136,-1.10695 -0.45904,-2.107651 -0.77713,-3.011793 C 99.817664,19.595263 95.942096,17.46669 91.853841,16.44881 89.989364,16.1255 87.698884,16.067389 85.264934,16.005627 Z m -0.881897,20.5507 c 0,-1.14212 -0.925946,-2.068 -2.06804,-2.068 -13.134708,0 -23.782295,10.64768 -23.782295,23.78232 v 7.96005 c 0,7.0599 -5.723243,12.78327 -12.783144,12.78327 -1.176672,0 -2.130525,0.95395 -2.130525,2.13034 v 6.5071 c 0,1.14209 0.925883,2.06804 2.068008,2.06804 13.134488,0 23.78239,-10.64759 23.78239,-23.7823 v -7.96004 c 0,-7.05991 5.723054,-12.78318 12.782956,-12.78318 1.176702,0 2.13065,-0.95388 2.13065,-2.13052 z"
     fill="#178a9e"
     id="path11-7"
     style="display:inline;fill:url(#linearGradient2);stroke-width:0.999999;enable-background:new" />
  <path
     fill-rule="evenodd"
     clip-rule="evenodd"
     d="m 85.264091,12.009436 c -0.115153,-0.0029 -0.230621,-0.0063 -0.346089,-0.0094 H 61.809637 C 46.682714,12.816114 40.324052,21.604416 38.618085,26.284766 31.98913,46.154934 27.86425,71.891373 24.88662,90.469433 c -0.0582,0.36245 -0.11578,0.722068 -0.17304,1.078854 l -0.96741,8.829993 c -0.0573,1.39411 0.073,2.90368 0.4485,4.36953 1.85802,5.38703 7.46029,9.9252 19.802677,5.40402 l 0.0013,0.006 C 55.6576,105.07316 69.429742,98.754829 83.671935,91.666611 91.780172,86.977734 103.65763,76.198319 104.26675,62.582547 104.15694,52.483669 103.81872,41.895955 103.13284,31.592035 l -0.003,0.0063 -3.2e-4,-0.07111 c -0.0563,-0.846345 -0.11515,-1.825683 -0.17619,-2.845166 -0.11767,-1.957858 -0.24415,-4.063872 -0.38007,-5.66057 -0.20136,-1.10695 -0.45904,-2.107651 -0.77713,-3.011793 -1.978366,-4.414145 -5.853934,-6.542718 -9.942189,-7.560598 -1.864477,-0.32331 -4.154957,-0.381421 -6.588907,-0.443183 z M 84.382194,32.56014 c 0,-1.142125 -0.925946,-2.068008 -2.06804,-2.068008 -13.134708,0 -23.782295,10.647681 -23.782295,23.782326 v 7.960048 c 0,7.059902 -5.723243,12.783271 -12.783144,12.783271 -1.176672,0 -2.130525,0.953947 -2.130525,2.130335 v 6.507103 c 0,1.142094 0.925883,2.06804 2.068008,2.06804 13.134488,0 23.78239,-10.647587 23.78239,-23.782295 v -7.960048 c 0,-7.059902 5.723054,-12.783176 12.782956,-12.783176 1.176702,0 2.13065,-0.953885 2.13065,-2.130524 z"
     fill="#178a9e"
     id="path11"
     style="stroke-width:0.999999" />
  <path
     d="m 82.31384,30.491849 c 1.142093,0 2.068039,0.925882 2.068039,2.068008 v 6.507071 c 0,1.17664 -0.953947,2.130525 -2.13065,2.130525 v 0 c -7.059902,0 -12.782956,5.723243 -12.782956,12.783144 v 8.446775 c 0,13.134709 -10.647587,23.782295 -23.782326,23.782295 v 0 c -1.142126,0 -2.068008,-0.925945 -2.068008,-2.068039 v -6.507103 c 0,-1.176703 0.953853,-2.130336 2.130524,-2.130336 v 0 c 7.059902,0 12.783082,-5.723369 12.783082,-12.78327 v -8.446775 c 0,-13.134614 10.647586,-23.782295 23.782295,-23.782295 z"
     fill="#ffffff"
     id="path12"
     style="stroke-width:0.999999" />
</svg>
