<?xml version="1.0" encoding="UTF-8" standalone="no"?>
<svg
   height="128px"
   viewBox="0 0 128 128"
   width="128px"
   version="1.1"
   id="svg8"
   xml:space="preserve"
   xmlns:xlink="http://www.w3.org/1999/xlink"
   xmlns="http://www.w3.org/2000/svg"
   xmlns:svg="http://www.w3.org/2000/svg"><defs
     id="defs12"><linearGradient
       id="linearGradient17"
       gradientUnits="userSpaceOnUse"
       x1="0"
       y1="269.46301"
       x2="118.926"
       y2="269.46301"
       gradientTransform="matrix(1,0,0,0.98333333,-118,-175.03333)"><stop
         offset="0"
         stop-color="#e5a50a"
         id="stop14"
         style="stop-color:#990017;stop-opacity:1;" /><stop
         offset="0.414"
         stop-color="#fbdf9b"
         id="stop15"
         style="stop-color:#ff7086;stop-opacity:1;" /><stop
         offset="0.81300002"
         stop-color="#e5a50a"
         id="stop16"
         style="stop-color:#990017;stop-opacity:1;" /><stop
         offset="1"
         stop-color="#f8ca5b"
         id="stop17"
         style="stop-color:#ff5771;stop-opacity:1;" /></linearGradient><linearGradient
       id="linearGradient13"
       gradientUnits="userSpaceOnUse"
       x1="0"
       y1="269.46301"
       x2="118.926"
       y2="269.46301"
       gradientTransform="matrix(1,0,0,0.98333333,-118,-175.03333)"><stop
         offset="0"
         stop-color="#e5a50a"
         id="stop10"
         style="stop-color:#004c9e;stop-opacity:1;" /><stop
         offset="0.414"
         stop-color="#fbdf9b"
         id="stop11"
         style="stop-color:#6bb0ff;stop-opacity:1;" /><stop
         offset="0.81300002"
         stop-color="#e5a50a"
         id="stop12"
         style="stop-color:#004c9e;stop-opacity:1;" /><stop
         offset="1"
         stop-color="#f8ca5b"
         id="stop13"
         style="stop-color:#52a5ff;stop-opacity:1;" /></linearGradient><linearGradient
       xlink:href="#linearGradient13"
       id="linearGradient6"
       x1="-168"
       y1="68.299362"
       x2="-80.38945"
       y2="68.299362"
       gradientUnits="userSpaceOnUse"
       gradientTransform="translate(172,2.401282)" /><linearGradient
       xlink:href="#linearGradient17"
       id="linearGradient10"
       x1="-108"
       y1="23.29936"
       x2="-20.38875"
       y2="23.29936"
       gradientUnits="userSpaceOnUse"
       gradientTransform="translate(144.38875,38.000003)" /></defs><path
     d="m 96.492344,115.59872 v -4 c 0,0 4.675546,-8.32231 4.675546,-13.749319 0,-20.174543 -16.653281,-36.548195 -37.16977,-36.548195 -15.23976,0 -27.60937,-12.163449 -27.60937,-27.150601 0,-14.987383 12.36961,-27.150602 27.60937,-27.150602 33.122114,0 60.00188,26.432 60.00188,59 0,20.796348 -10.96242,39.090497 -27.507656,49.598717 z M 63.99812,19.159765 c -2.80312,0 -5.08031,2.239004 -5.08031,4.997023 0,2.757559 2.27719,4.997024 5.08031,4.997024 2.80711,0 5.08149,-2.239465 5.08149,-4.997024 0,-2.758019 -2.27438,-4.997023 -5.08149,-4.997023 z m 10.16321,9.994047 c -2.80406,0 -5.08172,2.238773 -5.08172,4.996793 0,2.757789 2.27766,4.997023 5.08172,4.997023 2.807107,0 5.081483,-2.239234 5.081483,-4.997023 0,-2.75802 -2.274375,-4.996793 -5.081483,-4.996793 z m -20.325,0 c -2.80453,0 -5.08125,2.238773 -5.08125,4.996793 0,2.757789 2.27672,4.997023 5.08125,4.997023 2.80453,0 5.08148,-2.239234 5.08148,-4.997023 0,-2.75802 -2.27695,-4.996793 -5.08148,-4.996793 z m 10.16179,9.993816 c -2.80312,0 -5.08031,2.239004 -5.08031,4.996562 0,2.75802 2.27719,4.997024 5.08031,4.997024 2.80711,0 5.08149,-2.239004 5.08149,-4.997024 0,-2.757558 -2.27438,-4.996562 -5.08149,-4.996562 z"
     fill="#ff3554"
     id="path5-1-7"
     style="fill:url(#linearGradient10);stroke-width:0.232414" /><path
     d="m 96.492344,111.59872 c 2.978437,-5.2563 4.675546,-11.3091 4.675546,-17.749319 0,-20.174543 -16.653281,-36.548195 -37.16977,-36.548195 -15.23976,0 -27.60937,-12.163449 -27.60937,-27.150601 0,-14.987383 12.36961,-27.150602 27.60937,-27.150602 33.122114,0 60.00188,26.432 60.00188,59 0,20.796348 -10.96242,39.090497 -27.507656,49.598717 z M 63.99812,15.159765 c -2.80312,0 -5.08031,2.239004 -5.08031,4.997023 0,2.757559 2.27719,4.997024 5.08031,4.997024 2.80711,0 5.08149,-2.239465 5.08149,-4.997024 0,-2.758019 -2.27438,-4.997023 -5.08149,-4.997023 z m 10.16321,9.994047 c -2.80406,0 -5.08172,2.238773 -5.08172,4.996793 0,2.757789 2.27766,4.997023 5.08172,4.997023 2.807107,0 5.081483,-2.239234 5.081483,-4.997023 0,-2.75802 -2.274375,-4.996793 -5.081483,-4.996793 z m -20.325,0 c -2.80453,0 -5.08125,2.238773 -5.08125,4.996793 0,2.757789 2.27672,4.997023 5.08125,4.997023 2.80453,0 5.08148,-2.239234 5.08148,-4.997023 0,-2.75802 -2.27695,-4.996793 -5.08148,-4.996793 z m 10.16179,9.993816 c -2.80312,0 -5.08031,2.239004 -5.08031,4.996562 0,2.75802 2.27719,4.997024 5.08031,4.997024 2.80711,0 5.08149,-2.239004 5.08149,-4.997024 0,-2.757558 -2.27438,-4.996562 -5.08149,-4.996562 z"
     fill="#ff3554"
     id="path5-1"
     style="stroke-width:0.232414" /><path
     d="m 31.50648,16.401282 c -2.9775,5.256301 -4.67437,11.309102 -4.67437,17.749321 0,20.174543 16.65094,36.548195 37.16601,36.548195 15.241411,0 27.612427,12.163449 27.612427,27.150601 C 91.610547,112.83632 79.239531,125 63.99812,125 30.87977,125 4,98.568001 4,66.000001 4,45.683051 31.50648,12.401284 31.50648,12.401284 Z M 63.99812,82.85856 c -2.80312,0 -5.08031,2.239234 -5.08031,4.997023 0,2.75802 2.27719,4.996793 5.08031,4.996793 2.80711,0 5.08149,-2.238773 5.08149,-4.996793 0,-2.757789 -2.27438,-4.997023 -5.08149,-4.997023 z m 10.16321,9.993816 c -2.80406,0 -5.08172,2.239004 -5.08172,4.997023 0,2.758021 2.27766,4.997021 5.08172,4.997021 2.807107,0 5.081483,-2.239 5.081483,-4.997021 0,-2.758019 -2.274375,-4.997023 -5.081483,-4.997023 z m -10.16321,9.994044 c -2.80312,0 -5.08031,2.23877 -5.08031,4.99679 0,2.75779 2.27719,4.99703 5.08031,4.99703 2.80711,0 5.08149,-2.23924 5.08149,-4.99703 0,-2.75802 -2.27438,-4.99679 -5.08149,-4.99679 z M 53.83609,92.852376 c -2.80429,0 -5.08125,2.239004 -5.08125,4.997023 0,2.758021 2.27696,4.997021 5.08125,4.997021 2.80477,0 5.08172,-2.239 5.08172,-4.997021 0,-2.758019 -2.27695,-4.997023 -5.08172,-4.997023 z"
     fill="#3a99ff"
     id="path6-2"
     style="fill:url(#linearGradient6);stroke-width:0.232414" /><path
     d="m 31.50648,12.401284 c -2.9775,5.256301 -4.67437,11.309102 -4.67437,17.749321 0,20.174543 16.65094,36.548195 37.16601,36.548195 15.241411,0 27.612427,12.163449 27.612427,27.150601 C 91.610547,108.83632 79.239531,121 63.99812,121 30.87977,121 4,94.568003 4,62.000003 4,41.203886 14.96031,22.909046 31.50648,12.401284 Z m 32.49164,66.457278 c -2.80312,0 -5.08031,2.239234 -5.08031,4.997023 0,2.75802 2.27719,4.996793 5.08031,4.996793 2.80711,0 5.08149,-2.238773 5.08149,-4.996793 0,-2.757789 -2.27438,-4.997023 -5.08149,-4.997023 z m 10.16321,9.993816 c -2.80406,0 -5.08172,2.239004 -5.08172,4.997023 0,2.75802 2.27766,4.997024 5.08172,4.997024 2.807107,0 5.081483,-2.239004 5.081483,-4.997024 0,-2.758019 -2.274375,-4.997023 -5.081483,-4.997023 z m -10.16321,9.994047 c -2.80312,0 -5.08031,2.238775 -5.08031,4.996795 0,2.75779 2.27719,4.99702 5.08031,4.99702 2.80711,0 5.08149,-2.23923 5.08149,-4.99702 0,-2.75802 -2.27438,-4.996795 -5.08149,-4.996795 z M 53.83609,88.852378 c -2.80429,0 -5.08125,2.239004 -5.08125,4.997023 0,2.75802 2.27696,4.997024 5.08125,4.997024 2.80477,0 5.08172,-2.239004 5.08172,-4.997024 0,-2.758019 -2.27695,-4.997023 -5.08172,-4.997023 z"
     fill="#3a99ff"
     id="path6"
     style="stroke-width:0.232414" /></svg>
