<?xml version="1.0" encoding="UTF-8" standalone="no"?>
<!-- Generator: Adobe Illustrator 23.0.1, SVG Export Plug-In . SVG Version: 6.00 Build 0)  -->

<svg
   version="1.1"
   id="Livello_1"
   x="0px"
   y="0px"
   viewBox="0 0 128 128"
   enable-background="new 0 0 240.1 240.1"
   xml:space="preserve"
   width="128"
   height="128"
   xmlns:xlink="http://www.w3.org/1999/xlink"
   xmlns="http://www.w3.org/2000/svg"
   xmlns:svg="http://www.w3.org/2000/svg"><defs
   id="defs13"><linearGradient
   id="linearGradient879"><stop
     style="stop-color:#126791;stop-opacity:1;"
     offset="0"
     id="stop875" /><stop
     style="stop-color:#229ed9;stop-opacity:1;"
     offset="0.07179613"
     id="stop883" /><stop
     style="stop-color:#126791;stop-opacity:1;"
     offset="0.15258789"
     id="stop885" /><stop
     style="stop-color:#126791;stop-opacity:1;"
     offset="0.84766561"
     id="stop887" /><stop
     style="stop-color:#229ed9;stop-opacity:1;"
     offset="0.93228853"
     id="stop889" /><stop
     style="stop-color:#126791;stop-opacity:1;"
     offset="1"
     id="stop877" /></linearGradient><linearGradient
   id="linearGradient1726"
   gradientUnits="userSpaceOnUse"
   x1="-838.04102"
   y1="660.58099"
   x2="-838.04102"
   y2="660.34271"
   gradientTransform="matrix(449.9209,0,0,-449.9209,377116.12,297219.16)">
		<stop
   offset="0"
   style="stop-color:#0d71a5;stop-opacity:1;"
   id="stop1722" />
		<stop
   offset="1"
   style="stop-color:#145d80;stop-opacity:1;"
   id="stop1724" />
	</linearGradient>
	
		<linearGradient
   id="Oval_1_"
   gradientUnits="userSpaceOnUse"
   x1="-838.04102"
   y1="660.58099"
   x2="-838.04102"
   y2="660.34271"
   gradientTransform="matrix(449.63587,0,0,-449.63587,376877.25,297028.91)">
		<stop
   offset="0"
   style="stop-color:#2AABEE"
   id="stop2" />
		<stop
   offset="1"
   style="stop-color:#229ED9"
   id="stop4" />
	</linearGradient>
	
	
<linearGradient
   xlink:href="#linearGradient1726"
   id="linearGradient1142"
   gradientUnits="userSpaceOnUse"
   gradientTransform="matrix(449.63587,0,0,-449.63587,376877.25,297032.9)"
   x1="-838.04102"
   y1="660.58099"
   x2="-838.04102"
   y2="660.34271" /><linearGradient
   xlink:href="#linearGradient879"
   id="linearGradient881"
   x1="9.9987335"
   y1="65.998734"
   x2="118.00127"
   y2="65.998734"
   gradientUnits="userSpaceOnUse" /></defs>
<circle
   id="Oval-7"
   fill-rule="evenodd"
   clip-rule="evenodd"
   fill="url(#Oval_1_)"
   cx="64"
   cy="65.998734"
   r="54.001266"
   style="fill:url(#linearGradient881);stroke-width:0.449636;fill-opacity:1" /><circle
   id="Oval"
   fill-rule="evenodd"
   clip-rule="evenodd"
   fill="url(#Oval_1_)"
   cx="64"
   cy="62.001266"
   r="54.001266"
   style="fill:url(#Oval_1_);stroke-width:0.449636" /><path
   id="Path-3"
   fill-rule="evenodd"
   clip-rule="evenodd"
   fill="#ffffff"
   d="M 34.41396,61.416742 C 50.151216,54.582276 60.627732,50.040954 65.888471,47.837738 80.861345,41.5878 84.008797,40.508674 86.032158,40.46371 c 0.449636,0 1.438835,0.08992 2.113289,0.62949 0.539563,0.449636 0.674453,1.034163 0.764381,1.483798 0.08992,0.449636 0.179854,1.393872 0.08992,2.113289 -0.809345,8.543081 -4.316505,29.271295 -6.115048,38.803575 -0.764381,4.046723 -2.248179,5.395631 -3.687014,5.530521 -3.147447,0.269781 -5.530517,-2.068324 -8.543078,-4.046722 -4.76614,-3.102488 -7.418991,-5.035922 -12.050241,-8.093447 -5.350667,-3.507159 -1.88847,-5.440593 1.169053,-8.588044 0.809345,-0.809344 14.613166,-13.399149 14.882948,-14.523239 0.04496,-0.13489 0.04496,-0.674453 -0.269782,-0.944235 -0.314745,-0.269781 -0.764381,-0.179854 -1.12409,-0.08992 -0.494599,0.08992 -8.048482,5.125848 -22.751574,15.062801 -2.158253,1.483798 -4.091687,2.203216 -5.845267,2.158253 -1.933434,-0.04496 -5.620448,-1.079127 -8.40819,-1.978398 -3.37227,-1.079126 -6.070084,-1.663653 -5.845267,-3.552123 0.134892,-0.989199 1.483798,-1.978398 4.001759,-3.01256 z"
   style="stroke-width:0.449636" />
</svg>
