<?xml version="1.0" encoding="UTF-8" standalone="no"?>
<svg
   width="128"
   height="128"
   fill="none"
   version="1.1"
   viewBox="0 0 128 128"
   xml:space="preserve"
   id="svg34"
   xmlns:xlink="http://www.w3.org/1999/xlink"
   xmlns="http://www.w3.org/2000/svg"
   xmlns:svg="http://www.w3.org/2000/svg"><mask
     id="mask0_106_1002"
     x="202"
     y="297"
     width="345"
     height="276"
     maskUnits="userSpaceOnUse"><path
       d="m546.84 362.97c0 77.57-77.07 140.45-172.13 140.45-4.59 0-12.3-1.18-15.11 3.4-2.81 4.56 3.38 11.6 6.95 15.63 37.16 42.04 91.07 47.33 105.22 48.72l2.23 0.22c-124.88 12.08-271.38-67.7-271.42-206.37-0.131-23.089 6.295-45.74 18.53-65.32l134.08 121.78c9.54 8.66 25.61 8.66 35.15 0l136.62-124.09c12.7 19.58 19.88 41.9 19.88 65.58z"
       fill="#fff"
       id="path1" /></mask><defs
     id="defs21"><linearGradient
       id="linearGradient52"
       gradientUnits="userSpaceOnUse"
       x1="10.000004"
       x2="118"
       y1="66"
       y2="66"
       gradientTransform="translate(-155,118)"><stop
         offset="0"
         stop-color="#429aea"
         id="stop47"
         style="stop-color:#6699c2;stop-opacity:1;" /><stop
         offset="0.41112909"
         stop-color="#75aadb"
         id="stop48"
         style="stop-color:#edf6ff;stop-opacity:1;" /><stop
         offset="0.81097239"
         stop-color="#429aea"
         id="stop49"
         style="stop-color:#6699c2;stop-opacity:1;" /><stop
         offset="1"
         stop-color="#75aadb"
         id="stop51"
         style="stop-color:#edf6ff;stop-opacity:1;" /></linearGradient><linearGradient
       id="paint0_linear_106_1002-9"
       x1="146.185"
       y1="155.649"
       x2="639.58502"
       y2="615.86902"
       gradientUnits="userSpaceOnUse"
       gradientTransform="matrix(0.17142639,0,0,0.17142639,-0.23510415,-0.78987594)"><stop
         stop-color="#1B91F3"
         id="stop14-2" /><stop
         offset="1"
         stop-color="#0B68CB"
         id="stop15-0" /></linearGradient><radialGradient
       id="paint1_radial_106_1002-2"
       cx="0"
       cy="0"
       r="1"
       gradientUnits="userSpaceOnUse"
       gradientTransform="matrix(20.2163,46.533614,-44.577524,19.366486,24.668693,53.03801)"><stop
         offset="0.53"
         stop-color="#0B4186"
         stop-opacity="0"
         id="stop16-3" /><stop
         offset="1"
         stop-color="#0B4186"
         stop-opacity="0.45"
         id="stop17-7" /></radialGradient><radialGradient
       id="paint2_radial_106_1002-5"
       cx="0"
       cy="0"
       r="1"
       gradientUnits="userSpaceOnUse"
       gradientTransform="matrix(-6.6771287,-8.5472575,14.143795,-11.049152,65.542058,32.20096)"><stop
         stop-color="#EF3ACC"
         stop-opacity="0"
         id="stop18-9" /><stop
         offset="1"
         stop-color="#EF3ACC"
         stop-opacity="0.64"
         id="stop19-2" /></radialGradient><linearGradient
       id="paint3_linear_106_1002-2"
       x1="283.47501"
       y1="273.45801"
       x2="461.01501"
       y2="75.818298"
       gradientUnits="userSpaceOnUse"
       gradientTransform="matrix(0.17142639,0,0,0.17142639,-0.23510415,-0.78987594)"><stop
         stop-color="#0F5DB0"
         id="stop20-8" /><stop
         offset="1"
         stop-color="#0F5DB0"
         stop-opacity="0"
         id="stop21-9" /></linearGradient><radialGradient
       id="paint4_radial_106_1002-7"
       cx="0"
       cy="0"
       r="1"
       gradientUnits="userSpaceOnUse"
       gradientTransform="matrix(34.371045,-71.297982,88.073968,42.458346,41.370766,93.691777)"><stop
         offset="0.02"
         stop-color="#094188"
         id="stop22" /><stop
         offset="0.97"
         stop-color="#0B4186"
         stop-opacity="0"
         id="stop23" /></radialGradient><linearGradient
       id="paint5_linear_106_1002-3"
       x1="594.625"
       y1="416.55899"
       x2="512.07501"
       y2="619.24902"
       gradientUnits="userSpaceOnUse"
       gradientTransform="matrix(0.17142639,0,0,0.17142639,-0.23510415,-0.78987594)"><stop
         stop-color="#E247C4"
         stop-opacity="0"
         id="stop24" /><stop
         offset="1"
         stop-color="#E247C4"
         stop-opacity="0.64"
         id="stop25" /></linearGradient><linearGradient
       id="paint6_linear_106_1002-6"
       x1="82.7155"
       y1="234.78999"
       x2="155.44501"
       y2="527.51001"
       gradientUnits="userSpaceOnUse"
       gradientTransform="matrix(0.17142639,0,0,0.17142639,-0.23510415,-0.78987594)"><stop
         offset="0.1"
         stop-color="#EF3ACC"
         id="stop26" /><stop
         offset="1"
         stop-color="#EF3ACC"
         stop-opacity="0"
         id="stop27" /></linearGradient><linearGradient
       id="paint7_linear_106_1002-1"
       x1="374.70499"
       y1="273.95001"
       x2="374.70499"
       y2="569.94897"
       gradientUnits="userSpaceOnUse"
       gradientTransform="matrix(0.17142639,0,0,0.17142639,-0.23510415,-0.78987594)"><stop
         stop-color="white"
         id="stop28" /><stop
         offset="0.91"
         stop-color="#BEE1FE"
         id="stop29" /><stop
         offset="1"
         stop-color="#96CEFD"
         id="stop30" /></linearGradient><mask
       id="mask0_106_1002-2"
       maskUnits="userSpaceOnUse"
       x="202"
       y="297"
       width="345"
       height="276"><path
         d="m 546.835,362.969 c 0,77.57 -77.07,140.45 -172.13,140.45 -4.59,0 -12.3,-1.18 -15.11,3.4 -2.81,4.56 3.38,11.6 6.95,15.63 37.16,42.04 91.07,47.33 105.22,48.72 l 2.23,0.22 c -124.88,12.08 -271.38,-67.7 -271.42,-206.37 -0.131,-23.089 6.295,-45.74 18.53,-65.32 l 134.08,121.78 c 9.54,8.66 25.61,8.66 35.15,0 l 136.62,-124.09 c 12.7,19.58 19.88,41.9 19.88,65.58 z"
         fill="#ffffff"
         id="path10" /></mask><linearGradient
       id="paint8_linear_106_1002-9"
       x1="380.245"
       y1="441.44901"
       x2="380.245"
       y2="565.44897"
       gradientUnits="userSpaceOnUse"><stop
         stop-color="#BCE0FD"
         id="stop31" /><stop
         offset="1"
         stop-color="#88CCFC"
         id="stop32" /></linearGradient><filter
       id="filter0_f_106_1002-3"
       x="201.47501"
       y="276.15799"
       width="341.88"
       height="198.416"
       filterUnits="userSpaceOnUse"
       color-interpolation-filters="sRGB"><feFlood
         flood-opacity="0"
         result="BackgroundImageFix"
         id="feFlood14" /><feBlend
         mode="normal"
         in="SourceGraphic"
         in2="BackgroundImageFix"
         result="shape"
         id="feBlend14" /><feGaussianBlur
         stdDeviation="16"
         result="effect1_foregroundBlur_106_1002"
         id="feGaussianBlur14" /></filter><linearGradient
       xlink:href="#a"
       id="linearGradient35"
       gradientUnits="userSpaceOnUse"
       gradientTransform="matrix(0.17142819,0,0,0.17142819,-0.2351495,3.209009)"
       x1="24.705103"
       y1="360.44901"
       x2="724.70624"
       y2="360.44901" /><linearGradient
       id="a"
       gradientUnits="userSpaceOnUse"
       x1="10.000004"
       x2="118"
       y1="66"
       y2="66"
       gradientTransform="translate(-155,118)"><stop
         offset="0"
         stop-color="#429aea"
         id="stop2-3"
         style="stop-color:#06376a;stop-opacity:1;" /><stop
         offset="0.40858763"
         stop-color="#75aadb"
         id="stop4-6"
         style="stop-color:#1b91f3;stop-opacity:1;" /><stop
         offset="0.80670816"
         stop-color="#429aea"
         id="stop8-0"
         style="stop-color:#06376a;stop-opacity:1;" /><stop
         offset="1"
         stop-color="#75aadb"
         id="stop10-6"
         style="stop-color:#1b91f3;stop-opacity:1;" /></linearGradient><linearGradient
       xlink:href="#linearGradient52"
       id="linearGradient55"
       gradientUnits="userSpaceOnUse"
       x1="-20.391987"
       y1="92.811325"
       x2="32.722038"
       y2="92.811325"
       gradientTransform="matrix(1.1111111,0,0,1.1111111,57.149021,-27.122669)" /></defs><path
     d="m 53.731302,29.771637 h 0.01033 c 3.778277,-13.208527 20.242246,-19.65594 37.019922,-19.65594 11.593686,0 22.001246,3.670277 29.136086,9.497122 -4.25793,0.20078 -8.46203,1.036266 -12.47311,2.478837 5.76513,2.142845 10.71751,5.439413 14.3878,9.517689 -2.76909,-0.476572 -5.57691,-0.688974 -8.3861,-0.634284 6.90444,10.001638 10.59323,21.871663 10.57369,34.025068 C 123.99992,98.1372 97.136965,125 63.999895,125 31.373634,125 3.9999979,97.68292 3.9999979,65.000129 c 0,-5.161699 0.685713,-10.49141 2.01771,-15.490252 0.349714,-1.049144 0.836569,-2.055421 1.482853,-2.423992 0.809141,-0.461149 1.546283,0.91371 1.664568,1.361137 0.8773181,3.286279 2.0578071,6.483924 3.5262781,9.551978 -0.128571,-6.850272 2.797708,-13.09026 6.822825,-18.486816 2.684565,-3.598272 5.173703,-6.932551 6.322272,-16.554819 0.07714,-0.646284 0.689141,-1.110856 1.307997,-0.908565 8.735981,2.859419 13.405684,17.406816 12.680543,29.571355 4.825703,0.690863 4.803417,-4.350846 4.803417,-4.350846 -1.542852,-4.741705 -0.514284,-13.55482 9.085695,-17.497672 z"
     fill="url(#paint0_linear_106_1002)"
     id="path1-1-0"
     style="fill:url(#linearGradient35);stroke-width:0.171428" /><path
     d="m 53.730779,25.772471 h 0.01033 C 57.51935,12.564085 73.983141,6.1167394 90.760641,6.1167394 c 11.593569,0 22.001029,3.6702389 29.135789,9.4970206 -4.25788,0.200775 -8.46194,1.036256 -12.47297,2.478809 5.76506,2.14283 10.7174,5.439359 14.38764,9.517594 -2.76906,-0.476566 -5.57684,-0.688964 -8.38601,-0.634278 6.90437,10.00153 10.59312,21.871435 10.57358,34.024708 0,33.136721 -26.862681,59.999237 -59.999402,59.999237 -32.625918,0 -59.9992661,-27.316796 -59.9992661,-59.999237 0,-5.161647 0.6857053,-10.491294 2.0176887,-15.490087 0.34971,-1.04913 0.83656,-2.055402 1.4828377,-2.423969 0.8091322,-0.461138 1.5462667,0.913702 1.66455,1.361125 0.8773087,3.286244 2.0577857,6.48386 3.5262407,9.551878 -0.12857,-6.850199 2.797679,-13.090119 6.822754,-18.486621 2.684536,-3.59824 5.173648,-6.932483 6.322205,-16.554646 0.07715,-0.646278 0.689133,-1.110844 1.307983,-0.90856 8.735889,2.859392 13.405544,17.406635 12.68041,29.571052 4.825653,0.690847 4.803367,-4.350803 4.803367,-4.350803 -1.542837,-4.741653 -0.514279,-13.554684 9.085599,-17.497491 z"
     fill="url(#paint0_linear_106_1002)"
     id="path1-1"
     style="fill:url(#paint0_linear_106_1002-9);stroke-width:0.171427" /><path
     opacity="0.9"
     d="M 122.03546,45.721531 C 123.49429,78.721111 96.366065,107.17276 63.285914,107.17276 32.317738,107.17276 6.9416272,83.236482 4.6462272,52.856298 4.2367073,55.70129 4.0213439,58.570624 4.001665,61.44476 4.2365184,93.950631 31.54289,121 64.000763,121 97.137484,121 124,94.137486 124,61.000766 c 0,-5.279934 -0.68399,-10.400439 -1.96454,-15.279235 z"
     fill="url(#paint1_radial_106_1002)"
     id="path2"
     style="fill:url(#paint1_radial_106_1002-2);stroke-width:0.171427" /><path
     style="mix-blend-mode:screen;fill:url(#paint2_radial_106_1002-5);stroke-width:0.171427"
     d="M 62.536953,30.145558 C 61.890676,29.002145 58.906142,27.310166 57.601588,27.015313 62.538668,11.201246 87.690519,6.3464505 103.08461,9.1441294 109.49081,10.309828 117.469,13.800069 119.89639,15.61376 112.76162,9.7869783 102.35245,6.1167394 90.760593,6.1167394 c -16.7775,0 -33.241291,6.4473456 -37.019528,19.6557316 h -0.02742 c -9.59988,3.942807 -10.628438,12.759266 -9.085601,17.499206 1.481124,-5.655357 8.528463,-12.604982 17.908915,-13.126119 z"
     fill="url(#paint2_radial_106_1002)"
     id="path3" /><path
     d="m 79.972731,19.223812 c -13.477543,2.651966 -17.881487,3.519384 -22.391715,7.806757 5.06565,-13.410634 17.996343,-16.129456 33.404146,-10.016443 -3.666982,0.75599 -7.337907,1.493123 -11.012431,2.2114 z"
     fill="url(#paint3_linear_106_1002)"
     id="path4"
     style="fill:url(#paint3_linear_106_1002-2);stroke-width:0.171427" /><path
     d="M 7.2570683,43.6747 C 3.5748301,58.749937 6.4205083,76.468569 23.14814,91.338093 18.168204,85.891876 12.087864,65.783561 25.505254,51.41803 c 0.903416,-0.968559 2.458254,-0.257139 2.507967,1.066272 1.1057,29.85562 25.196251,48.090248 52.970754,44.680574 C 72.37837,96.681453 43.918161,86.713009 65.08932,82.770202 76.154894,80.707943 93.504959,77.476555 93.504959,61.907611 c 0,-25.237393 -19.513466,-32.615584 -31.34703,-31.518455 -8.098182,0.750847 -15.306662,5.89021 -17.524919,12.879264 0.851989,2.754822 -2.543968,4.683369 -4.808511,4.359372 C 40.551347,35.46509 35.881692,20.909276 27.144089,18.049884 26.526955,17.8476 25.913248,18.312166 25.836106,18.958444 24.687549,28.580607 22.198438,31.91485 19.515616,35.51309 15.488964,40.911307 12.562715,47.149513 12.691285,53.999711 11.222864,50.931693 10.042387,47.734077 9.165045,44.447833 9.0673339,44.077552 8.5307672,43.043851 7.882775,42.995851 7.5313506,42.97014 7.3444961,43.31299 7.2570683,43.6747 Z"
     fill="url(#paint4_radial_106_1002)"
     id="path5"
     style="fill:url(#paint4_radial_106_1002-7);stroke-width:0.171427" /><path
     d="m 93.506845,63.654834 c 0,13.297546 -14.997384,21.912488 -31.293177,21.912488 -0.786847,0 -0.862952,0.842631 -1.34466,1.627764 -0.481708,0.781712 1.11938,3.107977 1.731372,3.798833 6.370199,7.206766 15.575629,5.895013 18.001318,6.133291 l 0.382277,0.03767 C 57.813756,99.951275 34.498453,87.777908 34.491596,64.006214 34.46914,60.048151 35.570725,56.165171 37.668127,52.808643 l 22.98485,20.87635 c 1.635407,1.484552 4.390235,1.484552 6.025635,0 L 90.09889,52.412692 c 2.177111,3.356529 3.407955,7.182766 3.407955,11.242142 z"
     fill="#ffffff"
     id="path46"
     style="fill:url(#linearGradient55);stroke-width:0.171427" /><path
     style="mix-blend-mode:screen;fill:url(#paint5_linear_106_1002-3);stroke-width:0.171427"
     d="M 57.654729,84.29744 C 73.947093,97.526414 106.71182,87.607683 106.71182,55.44295 93.484559,75.492981 76.636773,89.323662 57.656443,84.29744 Z"
     fill="url(#paint5_linear_106_1002)"
     id="path6" /><path
     style="mix-blend-mode:screen;fill:url(#paint6_linear_106_1002-6);stroke-width:0.171427"
     d="m 25.505425,51.41803 c 0.148112,-0.165769 0.334795,-0.292453 0.543421,-0.369081 0.208627,-0.07646 0.433023,-0.100456 0.653135,-0.06977 -12.010047,14.648385 -2.322656,40.374343 4.325259,46.694833 0.371996,1.052559 -6.306949,-4.421086 -7.227507,-5.701641 C 18.742654,87.681569 11.494832,66.419553 25.505425,51.41803 Z"
     fill="url(#paint6_linear_106_1002)"
     id="path7" /><path
     d="m 63.99922,85.509424 c 16.295792,0 29.507624,-10.77912 29.507624,-24.076664 0,-13.297545 -13.211832,-24.076836 -29.507624,-24.076836 -13.90268,0 -29.514481,9.044456 -29.507624,24.428259 0.0069,23.771698 25.120823,37.448096 46.52855,35.377264 -1.607979,-0.186854 -11.639852,-0.719991 -18.419765,-8.389607 -0.611992,-0.690848 -1.673122,-1.89769 -1.191413,-2.681109 0.479993,-0.783418 1.803405,-0.582849 2.588538,-0.582849 z"
     fill="url(#paint7_linear_106_1002)"
     id="path8"
     style="fill:url(#paint7_linear_106_1002-1);stroke-width:0.171427" /><path
     opacity="0.6"
     d="M 90.2926,50.492328 66.971753,72.808614 c -2.069116,1.470839 -4.271945,1.577124 -6.445632,0.243426 L 37.652699,50.574612 c 0.65262,-1.048786 1.386325,-2.044945 2.194258,-2.97939 l 2.399969,2.245686 c 6.006781,5.629642 10.86329,10.177584 17.708345,16.019795 3.089105,2.636538 4.049092,2.58511 7.07991,0 7.830758,-6.685629 13.558113,-11.742707 21.003161,-18.392336 0.829876,0.947302 1.583123,1.95906 2.252543,3.025675 z"
     fill="#ffffff"
     id="path9"
     style="stroke-width:0.171427" /><g
     mask="url(#mask0_106_1002-2)"
     id="g13"
     transform="matrix(0.17142639,0,0,0.17142639,-0.23510415,-0.78987594)"><path
       opacity="0.7"
       d="m 162.705,200.979 h 435.07 v 394.47 h -435.07 z"
       fill="url(#paint8_linear_106_1002)"
       id="path11"
       style="fill:url(#paint8_linear_106_1002-9)" /><g
       filter="url(#filter0_f_106_1002)"
       id="g12"
       style="filter:url(#filter0_f_106_1002-3)"><path
         fill-rule="evenodd"
         clip-rule="evenodd"
         d="m 334.745,422.298 c -25.35,-26.38 -101.27,-114.03 -101.27,-114.03 l 5.87,0.26 118.86,88.77 c 8.9,6.47 21.6,6.4 30.42,-0.15 l 116.55,-88.5 6.18,-0.49 c 0,0 -73.44,85.57 -101.57,113.76 -28.13,28.19 -49.69,26.76 -75.04,0.38 z"
         fill="#458fcd"
         id="path12" /></g></g><path
     d="m 68.139168,25.311163 c 3.157673,-0.994273 2.879963,-4.119376 2.879963,-4.119376 0,0 -1.578838,-1.859977 -4.707369,-0.829704 -2.927963,0.965131 -3.382243,3.05139 -3.382243,3.05139 0,0 1.599409,3.034247 5.209649,1.89769 z"
     fill="#ffffff"
     id="path13"
     style="stroke-width:0.171427" /></svg>
