<?xml version="1.0" encoding="UTF-8" standalone="no"?>
<svg
   width="128"
   height="128"
   fill="none"
   version="1.1"
   viewBox="0 0 128 128"
   xml:space="preserve"
   id="svg34"
   xmlns:xlink="http://www.w3.org/1999/xlink"
   xmlns="http://www.w3.org/2000/svg"
   xmlns:svg="http://www.w3.org/2000/svg"><mask
     id="mask0_106_1002"
     x="202"
     y="297"
     width="345"
     height="276"
     maskUnits="userSpaceOnUse"><path
       d="m546.84 362.97c0 77.57-77.07 140.45-172.13 140.45-4.59 0-12.3-1.18-15.11 3.4-2.81 4.56 3.38 11.6 6.95 15.63 37.16 42.04 91.07 47.33 105.22 48.72l2.23 0.22c-124.88 12.08-271.38-67.7-271.42-206.37-0.131-23.089 6.295-45.74 18.53-65.32l134.08 121.78c9.54 8.66 25.61 8.66 35.15 0l136.62-124.09c12.7 19.58 19.88 41.9 19.88 65.58z"
       fill="#fff"
       id="path1" /></mask><defs
     id="defs21"><linearGradient
       id="linearGradient52"
       gradientUnits="userSpaceOnUse"
       x1="10.000004"
       x2="118"
       y1="66"
       y2="66"
       gradientTransform="translate(-155,118)"><stop
         offset="0"
         stop-color="#429aea"
         id="stop47"
         style="stop-color:#6699c2;stop-opacity:1;" /><stop
         offset="0.05"
         stop-color="#75aadb"
         id="stop48"
         style="stop-color:#edf6ff;stop-opacity:1;" /><stop
         offset="0.151761"
         stop-color="#429aea"
         id="stop49"
         style="stop-color:#6699c2;stop-opacity:1;" /><stop
         offset="0.85068297"
         stop-color="#429aea"
         id="stop50"
         style="stop-color:#6699c2;stop-opacity:1;" /><stop
         offset="0.94999999"
         stop-color="#75aadb"
         id="stop51"
         style="stop-color:#edf6ff;stop-opacity:1;" /><stop
         offset="1"
         stop-color="#429aea"
         id="stop52"
         style="stop-color:#6699c2;stop-opacity:1;" /></linearGradient><linearGradient
       id="paint0_linear_106_1002-9"
       x1="146.185"
       y1="155.649"
       x2="639.58502"
       y2="615.86902"
       gradientUnits="userSpaceOnUse"
       gradientTransform="matrix(0.15428375,0,0,0.15428375,6.1883147,4.3894801)"><stop
         stop-color="#1B91F3"
         id="stop14-2" /><stop
         offset="1"
         stop-color="#0B68CB"
         id="stop15-0" /></linearGradient><radialGradient
       id="paint1_radial_106_1002-2"
       cx="0"
       cy="0"
       r="1"
       gradientUnits="userSpaceOnUse"
       gradientTransform="matrix(18.19467,41.880253,-40.119772,17.429838,28.601732,52.834578)"><stop
         offset="0.53"
         stop-color="#0B4186"
         stop-opacity="0"
         id="stop16-3" /><stop
         offset="1"
         stop-color="#0B4186"
         stop-opacity="0.45"
         id="stop17-7" /></radialGradient><radialGradient
       id="paint2_radial_106_1002-5"
       cx="0"
       cy="0"
       r="1"
       gradientUnits="userSpaceOnUse"
       gradientTransform="matrix(-6.0094159,-7.6925318,12.729416,-9.9442365,65.387761,34.081233)"><stop
         stop-color="#EF3ACC"
         stop-opacity="0"
         id="stop18-9" /><stop
         offset="1"
         stop-color="#EF3ACC"
         stop-opacity="0.64"
         id="stop19-2" /></radialGradient><linearGradient
       id="paint3_linear_106_1002-2"
       x1="283.47501"
       y1="273.45801"
       x2="461.01501"
       y2="75.818298"
       gradientUnits="userSpaceOnUse"
       gradientTransform="matrix(0.15428375,0,0,0.15428375,6.1883147,4.3894801)"><stop
         stop-color="#0F5DB0"
         id="stop20-8" /><stop
         offset="1"
         stop-color="#0F5DB0"
         stop-opacity="0"
         id="stop21-9" /></linearGradient><radialGradient
       id="paint4_radial_106_1002-7"
       cx="0"
       cy="0"
       r="1"
       gradientUnits="userSpaceOnUse"
       gradientTransform="matrix(30.933941,-64.168184,79.266572,38.212512,43.633598,89.422969)"><stop
         offset="0.02"
         stop-color="#094188"
         id="stop22" /><stop
         offset="0.97"
         stop-color="#0B4186"
         stop-opacity="0"
         id="stop23" /></radialGradient><linearGradient
       id="paint5_linear_106_1002-3"
       x1="594.625"
       y1="416.55899"
       x2="512.07501"
       y2="619.24902"
       gradientUnits="userSpaceOnUse"
       gradientTransform="matrix(0.15428375,0,0,0.15428375,6.1883147,4.3894801)"><stop
         stop-color="#E247C4"
         stop-opacity="0"
         id="stop24" /><stop
         offset="1"
         stop-color="#E247C4"
         stop-opacity="0.64"
         id="stop25" /></linearGradient><linearGradient
       id="paint6_linear_106_1002-6"
       x1="82.7155"
       y1="234.78999"
       x2="155.44501"
       y2="527.51001"
       gradientUnits="userSpaceOnUse"
       gradientTransform="matrix(0.15428375,0,0,0.15428375,6.1883147,4.3894801)"><stop
         offset="0.1"
         stop-color="#EF3ACC"
         id="stop26" /><stop
         offset="1"
         stop-color="#EF3ACC"
         stop-opacity="0"
         id="stop27" /></linearGradient><linearGradient
       id="paint7_linear_106_1002-1"
       x1="374.70499"
       y1="273.95001"
       x2="374.70499"
       y2="569.94897"
       gradientUnits="userSpaceOnUse"
       gradientTransform="matrix(0.15428375,0,0,0.15428375,6.1883147,4.3894801)"><stop
         stop-color="white"
         id="stop28" /><stop
         offset="0.91"
         stop-color="#BEE1FE"
         id="stop29" /><stop
         offset="1"
         stop-color="#96CEFD"
         id="stop30" /></linearGradient><mask
       id="mask0_106_1002-2"
       maskUnits="userSpaceOnUse"
       x="202"
       y="297"
       width="345"
       height="276"><path
         d="m 546.835,362.969 c 0,77.57 -77.07,140.45 -172.13,140.45 -4.59,0 -12.3,-1.18 -15.11,3.4 -2.81,4.56 3.38,11.6 6.95,15.63 37.16,42.04 91.07,47.33 105.22,48.72 l 2.23,0.22 c -124.88,12.08 -271.38,-67.7 -271.42,-206.37 -0.131,-23.089 6.295,-45.74 18.53,-65.32 l 134.08,121.78 c 9.54,8.66 25.61,8.66 35.15,0 l 136.62,-124.09 c 12.7,19.58 19.88,41.9 19.88,65.58 z"
         fill="#ffffff"
         id="path10" /></mask><linearGradient
       id="paint8_linear_106_1002-9"
       x1="380.245"
       y1="441.44901"
       x2="380.245"
       y2="565.44897"
       gradientUnits="userSpaceOnUse"><stop
         stop-color="#BCE0FD"
         id="stop31" /><stop
         offset="1"
         stop-color="#88CCFC"
         id="stop32" /></linearGradient><filter
       id="filter0_f_106_1002-3"
       x="201.47501"
       y="276.15799"
       width="341.88"
       height="198.416"
       filterUnits="userSpaceOnUse"
       color-interpolation-filters="sRGB"><feFlood
         flood-opacity="0"
         result="BackgroundImageFix"
         id="feFlood14" /><feBlend
         mode="normal"
         in="SourceGraphic"
         in2="BackgroundImageFix"
         result="shape"
         id="feBlend14" /><feGaussianBlur
         stdDeviation="16"
         result="effect1_foregroundBlur_106_1002"
         id="feGaussianBlur14" /></filter><linearGradient
       xlink:href="#a"
       id="linearGradient35"
       gradientUnits="userSpaceOnUse"
       gradientTransform="matrix(0.15428375,0,0,0.15428375,6.1896279,8.389632)"
       x1="24.705103"
       y1="360.44901"
       x2="724.70624"
       y2="360.44901" /><linearGradient
       id="a"
       gradientUnits="userSpaceOnUse"
       x1="10.000004"
       x2="118"
       y1="66"
       y2="66"
       gradientTransform="translate(-155,118)"><stop
         offset="0"
         stop-color="#429aea"
         id="stop2-3"
         style="stop-color:#06376a;stop-opacity:1;" /><stop
         offset="0.05"
         stop-color="#75aadb"
         id="stop4-6"
         style="stop-color:#1b91f3;stop-opacity:1;" /><stop
         offset="0.151761"
         stop-color="#429aea"
         id="stop6-1"
         style="stop-color:#06376a;stop-opacity:1;" /><stop
         offset="0.85068297"
         stop-color="#429aea"
         id="stop8-0"
         style="stop-color:#06376a;stop-opacity:1;" /><stop
         offset="0.94999999"
         stop-color="#75aadb"
         id="stop10-6"
         style="stop-color:#1b91f3;stop-opacity:1;" /><stop
         offset="1"
         stop-color="#429aea"
         id="stop12-3"
         style="stop-color:#06376a;stop-opacity:1;" /></linearGradient><linearGradient
       xlink:href="#linearGradient52"
       id="linearGradient55"
       gradientUnits="userSpaceOnUse"
       x1="-20.391987"
       y1="92.811325"
       x2="32.722038"
       y2="92.811325"
       gradientTransform="translate(57.834028,-19.310034)" /></defs><path
     d="m 54.758924,32.295746 h 0.0093 c 3.400414,-11.887549 18.21783,-17.69016 33.31758,-17.69016 10.43421,0 19.800916,3.303215 26.222206,8.54732 -3.8321,0.1807 -7.61575,0.93263 -11.22568,2.23093 5.18856,1.92854 9.64566,4.89542 12.94888,8.56583 -2.49215,-0.42891 -5.01916,-0.62007 -7.54741,-0.57085 6.21393,9.00138 9.53381,19.68429 9.51622,30.62224 0,29.82305 -24.176406,53.999314 -53.999456,53.999314 -29.363326,0 -53.99934,-24.585114 -53.99934,-53.999314 0,-4.64548 0.617135,-9.44217 1.81592,-13.94108 0.314739,-0.94422 0.752904,-1.84986 1.334554,-2.18157 0.728219,-0.41503 1.39164,0.82233 1.498095,1.22501 0.789578,2.95762 1.852007,5.83547 3.173617,8.59669 -0.115713,-6.16518 2.517911,-11.78111 6.140478,-16.63796 2.416083,-3.23841 4.656284,-6.23923 5.689985,-14.89918 0.06943,-0.58165 0.62022,-0.99976 1.177185,-0.8177 7.8623,2.57345 12.064989,15.66597 11.412369,26.61394 4.343087,0.62177 4.32303,-3.91572 4.32303,-3.91572 -1.388553,-4.26749 -0.462851,-12.19921 8.177039,-15.74774 z"
     fill="url(#paint0_linear_106_1002)"
     id="path1-1-0"
     style="fill:url(#linearGradient35);stroke-width:0.154284" /><path
     d="m 54.75761,28.295593 h 0.0093 c 3.400414,-11.887548 18.217826,-17.690159 33.317576,-17.690159 10.43421,0 19.800924,3.303215 26.222214,8.547319 -3.8321,0.180697 -7.61575,0.93263 -11.22568,2.230928 5.18856,1.928547 9.64566,4.895423 12.94888,8.565834 -2.49215,-0.428909 -5.01916,-0.620067 -7.54741,-0.57085 6.21393,9.001377 9.53381,19.684292 9.51622,30.622238 0,29.823049 -24.176411,53.999317 -53.99946,53.999317 -29.363326,0 -53.9993398,-24.58512 -53.9993398,-53.999317 0,-4.645483 0.6171348,-9.442165 1.8159198,-13.941079 0.314739,-0.944217 0.752904,-1.849862 1.334554,-2.181572 0.728219,-0.415024 1.39164,0.822332 1.498095,1.225013 0.789578,2.957619 1.852007,5.835474 3.173617,8.59669 -0.115713,-6.165179 2.517911,-11.781107 6.140478,-16.637959 2.416083,-3.238416 4.656284,-6.239235 5.689985,-14.899182 0.06943,-0.58165 0.62022,-0.999759 1.177185,-0.817704 7.8623,2.573453 12.064989,15.665972 11.412369,26.613947 4.343087,0.621763 4.32303,-3.915722 4.32303,-3.915722 -1.388553,-4.267488 -0.462851,-12.199216 8.177039,-15.747742 z"
     fill="url(#paint0_linear_106_1002)"
     id="path1-1"
     style="fill:url(#paint0_linear_106_1002-9);stroke-width:0.154284" /><path
     opacity="0.9"
     d="m 116.23182,46.249747 c 1.31295,29.699622 -23.102452,55.306103 -52.874588,55.306103 -27.871359,0 -50.709859,-21.542647 -52.775719,-48.884813 -0.368568,2.560493 -0.562395,5.142894 -0.580106,7.729616 0.211368,29.255284 24.787103,53.599717 53.999189,53.599717 29.823049,0 53.999314,-24.176263 53.999314,-53.999312 0,-4.75194 -0.61559,-9.360395 -1.76809,-13.751311 z"
     fill="url(#paint1_radial_106_1002)"
     id="path2"
     style="fill:url(#paint1_radial_106_1002-2);stroke-width:0.154284" /><path
     style="mix-blend-mode:screen;fill:url(#paint2_radial_106_1002-5);stroke-width:0.154284"
     d="m 62.683167,32.231371 c -0.58165,-1.029072 -3.26773,-2.551853 -4.441829,-2.817221 4.443372,-14.23266 27.080038,-18.601976 40.934718,-16.084065 5.765584,1.049129 12.945954,4.190346 15.130604,5.822668 -6.42129,-5.244104 -15.78955,-8.547319 -26.222217,-8.547319 -15.09975,0 -29.917162,5.802611 -33.317576,17.690159 h -0.02468 c -8.63989,3.548526 -9.565592,11.483339 -8.177039,15.749285 1.333012,-5.089821 7.675617,-11.344484 16.118024,-11.813507 z"
     fill="url(#paint2_radial_106_1002)"
     id="path3" /><path
     d="m 78.375367,22.401799 c -12.129789,2.38677 -16.093338,3.167446 -20.152544,7.026082 4.559085,-12.069571 16.196709,-14.516511 30.063732,-9.014799 -3.300284,0.680391 -6.604116,1.343811 -9.911188,1.99026 z"
     fill="url(#paint3_linear_106_1002)"
     id="path4"
     style="fill:url(#paint3_linear_106_1002-2);stroke-width:0.154284" /><path
     d="m 12.93127,44.407599 c -3.3140144,13.567713 -0.752904,29.514482 14.301965,42.897054 -4.481943,-4.901595 -9.954249,-22.999079 2.121402,-35.928057 0.813075,-0.871703 2.212429,-0.231425 2.257171,0.959645 0.99513,26.870058 22.676626,43.28122 47.673679,40.212517 -7.745045,-0.435081 -33.359233,-9.406681 -14.30519,-12.955207 9.959017,-1.856033 25.574075,-4.764282 25.574075,-18.776332 0,-22.713654 -17.562119,-29.354026 -28.212327,-28.36661 -7.288364,0.675762 -13.775996,5.301189 -15.772427,11.591338 0.76679,2.47934 -2.289571,4.215032 -4.32766,3.923435 0.654163,-10.946432 -3.548526,-24.046665 -11.412369,-26.620118 -0.555421,-0.182055 -1.107757,0.236054 -1.177185,0.817704 -1.033701,8.659947 -3.273901,11.660766 -5.688441,14.899182 -3.623987,4.858395 -6.257611,10.472781 -6.141898,16.637959 -1.321579,-2.761216 -2.384008,-5.639071 -3.173616,-8.59669 -0.08794,-0.333253 -0.57085,-1.263584 -1.154043,-1.306784 -0.316282,-0.02314 -0.484451,0.285425 -0.563136,0.610964 z"
     fill="url(#paint4_radial_106_1002)"
     id="path5"
     style="fill:url(#paint4_radial_106_1002-7);stroke-width:0.154284" /><path
     d="m 90.55607,62.38972 c 0,11.967791 -13.497646,19.721239 -28.16386,19.721239 -0.708162,0 -0.776657,0.758368 -1.210194,1.464988 -0.433537,0.70354 1.007442,2.797179 1.558235,3.418949 5.733179,6.48609 14.018066,5.305512 16.201186,5.519962 l 0.34405,0.0339 C 58.432289,95.056517 37.448516,84.100486 37.442345,62.705962 c -0.02021,-3.562257 0.971216,-7.056939 2.858878,-10.077814 l 20.686365,18.788715 c 1.471867,1.336097 3.951212,1.336097 5.423072,0 L 87.48891,52.271792 c 1.9594,3.020876 3.06716,6.464489 3.06716,10.117928 z"
     fill="#ffffff"
     id="path46"
     style="fill:url(#linearGradient55);stroke-width:0.154284" /><path
     style="mix-blend-mode:screen;fill:url(#paint5_linear_106_1002-3);stroke-width:0.154284"
     d="M 58.289165,80.968065 C 72.952293,92.874142 102.44055,83.947284 102.44055,54.999024 90.536012,73.044052 75.373005,85.491665 58.290708,80.968065 Z"
     fill="url(#paint5_linear_106_1002)"
     id="path6" /><path
     style="mix-blend-mode:screen;fill:url(#paint6_linear_106_1002-6);stroke-width:0.154284"
     d="m 29.354791,51.376596 c 0.133301,-0.149192 0.301316,-0.263208 0.489079,-0.332173 0.187764,-0.06881 0.389721,-0.09041 0.587822,-0.06279 -10.809043,13.183546 -2.090391,36.336909 3.892733,42.02535 0.334796,0.947303 -5.676254,-3.978978 -6.504757,-5.131477 -4.551371,-3.861725 -11.074411,-22.997539 1.535123,-36.49891 z"
     fill="url(#paint6_linear_106_1002)"
     id="path7" /><path
     d="m 63.999207,82.058851 c 14.666213,0 26.556862,-9.701208 26.556862,-21.668998 0,-11.967791 -11.890649,-21.669153 -26.556862,-21.669153 -12.512412,0 -26.563033,8.140011 -26.556862,21.985434 0.0062,21.394528 22.608741,33.703286 41.875696,31.839538 -1.447182,-0.168169 -10.475867,-0.647992 -16.577789,-7.550647 -0.550793,-0.621763 -1.50581,-1.707921 -1.072272,-2.412998 0.431994,-0.705076 1.623065,-0.524564 2.329684,-0.524564 z"
     fill="url(#paint7_linear_106_1002)"
     id="path8"
     style="fill:url(#paint7_linear_106_1002-1);stroke-width:0.154284" /><path
     opacity="0.6"
     d="M 87.663249,50.543464 66.674487,70.628122 c -1.862205,1.323755 -3.844751,1.419411 -5.801069,0.219083 L 40.287338,50.61752 c 0.587358,-0.943908 1.247692,-1.840451 1.974832,-2.681451 l 2.159972,2.021117 c 5.406103,5.066678 9.776961,9.159826 15.937511,14.417816 2.780194,2.372884 3.644183,2.326599 6.371919,0 7.047682,-6.017066 12.202302,-10.568437 18.902845,-16.553103 0.746888,0.852572 1.424811,1.763154 2.027289,2.723108 z"
     fill="#ffffff"
     id="path9"
     style="stroke-width:0.154284" /><g
     mask="url(#mask0_106_1002-2)"
     id="g13"
     transform="matrix(0.15428375,0,0,0.15428375,6.1883147,4.3894801)"><path
       opacity="0.7"
       d="m 162.705,200.979 h 435.07 v 394.47 h -435.07 z"
       fill="url(#paint8_linear_106_1002)"
       id="path11"
       style="fill:url(#paint8_linear_106_1002-9)" /><g
       filter="url(#filter0_f_106_1002)"
       id="g12"
       style="filter:url(#filter0_f_106_1002-3)"><path
         fill-rule="evenodd"
         clip-rule="evenodd"
         d="m 334.745,422.298 c -25.35,-26.38 -101.27,-114.03 -101.27,-114.03 l 5.87,0.26 118.86,88.77 c 8.9,6.47 21.6,6.4 30.42,-0.15 l 116.55,-88.5 6.18,-0.49 c 0,0 -73.44,85.57 -101.57,113.76 -28.13,28.19 -49.69,26.76 -75.04,0.38 z"
         fill="#458fcd"
         id="path12" /></g></g><path
     d="m 67.72516,27.880415 c 2.841906,-0.894845 2.591967,-3.707438 2.591967,-3.707438 0,0 -1.420954,-1.673979 -4.236632,-0.746734 -2.635167,0.868618 -3.044019,2.746251 -3.044019,2.746251 0,0 1.439468,2.730823 4.688684,1.707921 z"
     fill="#ffffff"
     id="path13"
     style="stroke-width:0.154284" /></svg>
