<?xml version="1.0" encoding="UTF-8" standalone="no"?>
<svg
   viewBox="0 0 128 128"
   style="display:inline;enable-background:new"
   version="1.0"
   id="svg11300"
   height="128"
   width="128"
   xmlns:xlink="http://www.w3.org/1999/xlink"
   xmlns="http://www.w3.org/2000/svg"
   xmlns:svg="http://www.w3.org/2000/svg"
   xmlns:rdf="http://www.w3.org/1999/02/22-rdf-syntax-ns#"
   xmlns:cc="http://creativecommons.org/ns#"
   xmlns:dc="http://purl.org/dc/elements/1.1/">
  <title
     id="title4162">Adwaita Icon Template</title>
  <defs
     id="defs3">
    <linearGradient
       id="linearGradient974">
      <stop
         style="stop-color:#99241a;stop-opacity:1;"
         offset="0"
         id="stop962" />
      <stop
         id="stop964"
         offset="0.04166667"
         style="stop-color:#de483a;stop-opacity:1;" />
      <stop
         style="stop-color:#99241a;stop-opacity:1;"
         offset="0.08333334"
         id="stop966" />
      <stop
         id="stop968"
         offset="0.91666669"
         style="stop-color:#99241a;stop-opacity:1;" />
      <stop
         style="stop-color:#de483a;stop-opacity:1;"
         offset="0.95833331"
         id="stop970" />
      <stop
         style="stop-color:#99241a;stop-opacity:1;"
         offset="1"
         id="stop972" />
    </linearGradient>
    <linearGradient
       y2="44"
       x2="464"
       y1="44"
       x1="48"
       gradientTransform="matrix(0.25,0,0,0.25,0,53)"
       gradientUnits="userSpaceOnUse"
       id="linearGradient1747"
       xlink:href="#linearGradient974" />
  </defs>
  <metadata
     id="metadata4">
    <rdf:RDF>
      <cc:Work
         rdf:about="">
        <dc:format>image/svg+xml</dc:format>
        <dc:type
           rdf:resource="http://purl.org/dc/dcmitype/StillImage" />
        <dc:creator>
          <cc:Agent>
            <dc:title>GNOME Design Team</dc:title>
          </cc:Agent>
        </dc:creator>
        <dc:source />
        <cc:license
           rdf:resource="http://creativecommons.org/licenses/by-sa/4.0/" />
        <dc:title>Adwaita Icon Template</dc:title>
        <dc:subject>
          <rdf:Bag />
        </dc:subject>
        <dc:date />
        <dc:rights>
          <cc:Agent>
            <dc:title />
          </cc:Agent>
        </dc:rights>
        <dc:publisher>
          <cc:Agent>
            <dc:title />
          </cc:Agent>
        </dc:publisher>
        <dc:identifier />
        <dc:relation />
        <dc:language />
        <dc:coverage />
        <dc:description />
        <dc:contributor>
          <cc:Agent>
            <dc:title />
          </cc:Agent>
        </dc:contributor>
      </cc:Work>
      <cc:License
         rdf:about="http://creativecommons.org/licenses/by-sa/4.0/">
        <cc:permits
           rdf:resource="http://creativecommons.org/ns#Reproduction" />
        <cc:permits
           rdf:resource="http://creativecommons.org/ns#Distribution" />
        <cc:requires
           rdf:resource="http://creativecommons.org/ns#Notice" />
        <cc:requires
           rdf:resource="http://creativecommons.org/ns#Attribution" />
        <cc:permits
           rdf:resource="http://creativecommons.org/ns#DerivativeWorks" />
        <cc:requires
           rdf:resource="http://creativecommons.org/ns#ShareAlike" />
      </cc:License>
    </rdf:RDF>
  </metadata>
  <rect
     ry="8"
     rx="8"
     y="32"
     x="12"
     height="83.999992"
     width="104"
     id="rect1709"
     style="display:inline;fill:url(#linearGradient1747);fill-opacity:1;stroke:none;stroke-width:0.25;stroke-linecap:butt;stroke-linejoin:miter;stroke-miterlimit:4;stroke-dasharray:none;stroke-dashoffset:0;stroke-opacity:1;marker:none;marker-start:none;marker-mid:none;marker-end:none;paint-order:normal;enable-background:new" />
  <rect
     style="display:inline;fill:#de483a;fill-opacity:1;stroke:none;stroke-width:0.25;stroke-linecap:butt;stroke-linejoin:miter;stroke-miterlimit:4;stroke-dasharray:none;stroke-dashoffset:0;stroke-opacity:1;marker:none;marker-start:none;marker-mid:none;marker-end:none;paint-order:normal;enable-background:new"
     id="rect1711"
     width="104"
     height="100"
     x="12"
     y="12"
     rx="8"
     ry="8" />
  <path
     fill="#ffffff"
     d="m 33.3625,58.853125 19.91875,-11.4625 0.025,-0.01563 20.525,-11.8125 c 0.86563,-0.5 0.90625,-2.03125 -0.0625,-2.5875 l -0.67812,-0.3875 c -0.99063,-0.5625 -2.27188,-1.29375 -2.81875,-1.6125 a 3.1875,3.1875 0 0 0 -3.11563,0.0375 c -0.48437,0.28125 -32.81562,18.86875 -33.89688,19.484375 a 4.215625,4.215625 0 0 1 -4.18437,0 L 12,40.575 v 8.434375 l 0.175,0.1 c 4.2625,2.484375 14.35,8.359375 16.81875,9.75 1.49688,0.84375 2.92813,0.825 4.36875,-0.0063 z"
     id="path1"
     style="stroke-width:3.125" />
  <path
     fill="#ffffff"
     d="m 33.3625,75.703125 19.89375,-11.45 0.075,-0.04375 20.5,-11.796875 c 0.86562,-0.5 0.90625,-2.034375 -0.0625,-2.5875 L 73.09062,49.4375 C 72.10312,48.875 70.81875,48.14375 70.27188,47.825 a 3.1875,3.1875 0 0 0 -3.11563,0.0375 C 66.67187,48.140625 34.34062,66.73125 33.25937,67.34375 a 4.215625,4.215625 0 0 1 -4.18437,0 C 28.05625,66.75625 12,57.425 12,57.425 v 8.43125 l 0.175,0.103125 c 4.26563,2.484375 14.35,8.35625 16.81875,9.75 1.49688,0.84375 2.92813,0.825 4.36875,-0.0062 z"
     id="path2"
     style="stroke-width:3.125" />
  <path
     fill="#ffffff"
     d="M 53.28438,81.0875 33.3625,92.553125 c -1.44062,0.83125 -2.875,0.85 -4.36875,0.0063 C 26.525,91.165675 16.44063,85.2938 12.175,82.809425 L 12,82.70625 V 74.275 l 17.075,9.91875 c 1.29063,0.746875 2.89063,0.7375 4.18437,0 1.08126,-0.6125 33.41251,-19.203125 33.89688,-19.484375 a 3.1875,3.1875 0 0 1 3.11563,-0.0375 390.64688,390.64688 0 0 0 3.5,2 c 0.96875,0.55625 0.925,2.090625 0.0594,2.590625 z"
     id="path3"
     style="stroke-width:3.125" />
</svg>
