<?xml version="1.0" encoding="UTF-8" standalone="no"?>
<svg
   width="128"
   height="128"
   viewBox="0 0 128 128"
   version="1.1"
   id="svg29"
   xml:space="preserve"
   xmlns:xlink="http://www.w3.org/1999/xlink"
   xmlns="http://www.w3.org/2000/svg"
   xmlns:svg="http://www.w3.org/2000/svg"><defs
     id="defs15"><linearGradient
       id="linearGradient12"><stop
         style="stop-color:#7914bd;stop-opacity:0.99607843;"
         offset="0"
         id="stop11" /><stop
         style="stop-color:#7914bd;stop-opacity:0.5;"
         offset="0.42627987"
         id="stop13" /><stop
         style="stop-color:#7914bd;stop-opacity:0.20784314;"
         offset="0.4956342"
         id="stop14" /><stop
         style="stop-color:#7914bd;stop-opacity:0;"
         offset="0.65327501"
         id="stop12" /></linearGradient><linearGradient
       id="linearGradient10"><stop
         style="stop-color:#000000;stop-opacity:0.99607843;"
         offset="0"
         id="stop9" /><stop
         style="stop-color:#000000;stop-opacity:0;"
         offset="0.49736458"
         id="stop10" /></linearGradient><linearGradient
       id="linearGradient7"><stop
         style="stop-color:#b138f2;stop-opacity:0.99607843;"
         offset="0"
         id="stop7" /><stop
         style="stop-color:#720bdb;stop-opacity:0.99607843;"
         offset="1"
         id="stop8" /></linearGradient><linearGradient
       id="linearGradient1"><stop
         style="stop-color:#ba50f6;stop-opacity:0.99607843;"
         offset="0"
         id="stop1" /><stop
         style="stop-color:#9132e6;stop-opacity:0.99607843;"
         offset="1"
         id="stop2" /></linearGradient><path
       d="M 25,29 C 152.57778,29 256,131.97451 256,259 256,386.02549 152.57778,489 25,489 Z"
       id="path-2" /><filter
       x="-0.13852814"
       y="-0.052173913"
       width="1.2424242"
       height="1.1043478"
       filterUnits="objectBoundingBox"
       id="filter-3"><feOffset
         dx="-8"
         dy="0"
         in="SourceAlpha"
         result="shadowOffsetOuter1"
         id="feOffset8" /><feGaussianBlur
         stdDeviation="10"
         in="shadowOffsetOuter1"
         result="shadowBlurOuter1"
         id="feGaussianBlur10" /><feColorMatrix
         values="0 0 0 0 0.250980392   0 0 0 0 0.250980392   0 0 0 0 0.250980392  0 0 0 0.2 0"
         type="matrix"
         in="shadowBlurOuter1"
         id="feColorMatrix12" /></filter><linearGradient
       xlink:href="#linearGradient1"
       id="linearGradient2"
       x1="-7"
       y1="259"
       x2="280"
       y2="259"
       gradientUnits="userSpaceOnUse" /><linearGradient
       xlink:href="#linearGradient1"
       id="linearGradient3"
       gradientUnits="userSpaceOnUse"
       x1="118.57977"
       y1="115.55663"
       x2="79.46376"
       y2="482.57043" /><linearGradient
       xlink:href="#linearGradient7"
       id="linearGradient8"
       x1="64.814606"
       y1="4.2607155"
       x2="64.814606"
       y2="119.57065"
       gradientUnits="userSpaceOnUse" /><linearGradient
       xlink:href="#linearGradient10"
       id="linearGradient2-8"
       x1="-149.19637"
       y1="253.79842"
       x2="361.79633"
       y2="253.55034"
       gradientUnits="userSpaceOnUse" /><filter
       x="-0.13852814"
       y="-0.052173913"
       width="1.2424242"
       height="1.1043478"
       filterUnits="objectBoundingBox"
       id="filter-3-7"><feOffset
         dx="-8"
         dy="0"
         in="SourceAlpha"
         result="shadowOffsetOuter1"
         id="feOffset8-8" /><feGaussianBlur
         stdDeviation="10"
         in="shadowOffsetOuter1"
         result="shadowBlurOuter1"
         id="feGaussianBlur10-2" /><feColorMatrix
         values="0 0 0 0 0.250980392   0 0 0 0 0.250980392   0 0 0 0 0.250980392  0 0 0 0.2 0"
         type="matrix"
         in="shadowBlurOuter1"
         id="feColorMatrix12-5" /></filter><linearGradient
       xlink:href="#linearGradient1"
       id="linearGradient7-3"
       gradientUnits="userSpaceOnUse"
       x1="118.57977"
       y1="115.55663"
       x2="79.46376"
       y2="482.57043" /><linearGradient
       xlink:href="#linearGradient1"
       id="linearGradient9"
       gradientUnits="userSpaceOnUse"
       x1="-7"
       y1="259"
       x2="280"
       y2="259" /><linearGradient
       xlink:href="#linearGradient12"
       id="linearGradient11"
       gradientUnits="userSpaceOnUse"
       x1="-139.64827"
       y1="253.24147"
       x2="361.79633"
       y2="253.55034"
       gradientTransform="translate(0,-24.379172)" /></defs><path
     d="m 64.123084,114.08769 v -7.27324 c 23.039308,-0.0665 41.694286,-18.759343 41.694286,-41.814779 0,-23.053754 -18.654978,-41.746585 -41.694286,-41.813113 v -7.273222 c 27.05605,0.06819 48.965996,22.015922 48.965996,49.086335 0,27.072085 -21.909946,49.021499 -48.965996,49.088019 z m 0,-25.457114 c 12.994953,-0.06819 23.513333,-10.617942 23.513333,-23.630905 0,-13.011291 -10.51838,-23.561042 -23.513333,-23.629233 v -7.271555 c 17.01336,0.06655 30.78672,13.872838 30.78672,30.900788 0,17.029622 -13.77336,30.835935 -30.78672,30.902464 z m 0,-36.351137 c 6.97067,0.06649 12.604092,5.733093 12.604092,12.720232 0,6.988821 -5.633422,12.655375 -12.604092,12.721904 z M 4.0000029,64.999671 C 4.0000029,98.137483 30.861455,125 64.000004,125 97.13689,125 123.99999,98.137483 123.99999,64.999671 c 0,-33.136143 -26.8631,-59.996997 -59.999986,-59.996997 -33.138549,0 -60.0000011,26.860854 -60.0000011,59.996997 z"
     id="center-2"
     fill="url(#linearGradient-1)"
     style="fill:#420c5d;fill-opacity:1;fill-rule:evenodd;stroke:none;stroke-width:0.234373" /><ellipse
     id="background"
     fill="#f2e4ff"
     fill-rule="nonzero"
     cx="64.814606"
     cy="61.91568"
     style="stroke:none;stroke-width:0.234373"
     rx="57.65625"
     ry="57.654964" /><path
     d="m 64.123082,112.08501 v -7.27323 C 87.16239,104.74529 105.81738,86.052429 105.81738,62.997 c 0,-23.053763 -18.65499,-41.746589 -41.694298,-41.813117 v -7.273221 c 27.056053,0.06819 48.966008,22.01592 48.966008,49.086338 0,27.072082 -21.909955,49.02149 -48.966008,49.08801 z m 0,-25.457113 C 77.118035,86.559706 87.636415,76.009963 87.636415,62.997 c 0,-13.011296 -10.51838,-23.561042 -23.513333,-23.629234 v -7.271557 c 17.01336,0.06653 30.786717,13.872839 30.786717,30.900791 0,17.029615 -13.773357,30.835927 -30.786717,30.902457 z m 0,-36.351132 c 6.97067,0.06653 12.604092,5.733088 12.604092,12.720235 0,6.988813 -5.633422,12.655371 -12.604092,12.721899 z M 4.0000009,62.997 c 0,33.13781 26.8614521,60.00031 60.0000011,60.00031 C 97.136886,122.99731 124,96.13481 124,62.997 124,29.860853 97.136886,2.9999992 64.000002,2.9999992 30.861453,2.9999992 4.0000009,29.860853 4.0000009,62.997 Z"
     id="center"
     fill="url(#linearGradient-1)"
     style="fill:url(#linearGradient8);fill-opacity:1;fill-rule:evenodd;stroke:none;stroke-width:0.234373" /><g
     id="half-0"
     transform="matrix(0.234375,0,0,0.2372618,50.6896,1.9036523)"
     style="mix-blend-mode:normal;fill:url(#linearGradient2-8);fill-rule:evenodd;stroke:none;stroke-width:0.993887"><use
       fill="#000000"
       fill-opacity="1"
       filter="url(#filter-3)"
       xlink:href="#path-2"
       id="use19-1"
       style="fill:url(#linearGradient9);fill-opacity:1;stroke-width:0.993887;filter:url(#filter-3-7)" /><path
       d="m 25,8.1782807 c 13.380077,0 22.509431,-5.6616592 35.266675,-3.5574502 C 70.45523,6.3013539 83.318274,4.105319 93.067913,7.1401839 107.42193,11.608297 131.58196,12.585956 144.58765,19.883679 217.15241,60.601049 256,147.22165 256,234.62083 c 0,94.00567 -38.47211,177.72002 -119.02433,214.06561 -14.07825,6.35218 -41.340866,12.70115 -56.806745,15.93439 -15.617203,3.26488 -37.005076,-2.43949 -53.667496,-2.43949 z"
       id="use21-9"
       style="fill:url(#linearGradient11);fill-opacity:1;fill-rule:evenodd;stroke-width:0.993887" /></g><g
     id="half"
     transform="matrix(-0.234375,0,0,0.2372618,70.673977,1.9036529)"
     style="fill:url(#linearGradient2);fill-rule:evenodd;stroke:none;stroke-width:0.993887"><use
       fill="#000000"
       fill-opacity="1"
       filter="url(#filter-3)"
       xlink:href="#path-2"
       id="use19"
       style="fill:url(#linearGradient2);fill-opacity:1;stroke-width:0.993887" /><use
       fill="url(#linearGradient-1)"
       fill-rule="evenodd"
       xlink:href="#path-2"
       id="use21"
       style="fill:url(#linearGradient3);fill-opacity:1;stroke-width:0.993887"
       transform="translate(0,-24.379172)" /></g></svg>
