<?xml version="1.0" encoding="UTF-8" standalone="no"?>
<!-- Generator: Adobe Illustrator 26.0.2, SVG Export Plug-In . SVG Version: 6.00 Build 0)  -->

<svg
   version="1.0"
   id="Layer_1"
   x="0px"
   y="0px"
   viewBox="0 0 128 128"
   xml:space="preserve"
   width="128"
   height="128"
   xmlns:xlink="http://www.w3.org/1999/xlink"
   xmlns="http://www.w3.org/2000/svg"
   xmlns:svg="http://www.w3.org/2000/svg"><defs
   id="defs76"><linearGradient
     id="Gradient_1-3"
     gradientUnits="userSpaceOnUse"
     x1="199.99699"
     y1="214.302"
     x2="296.66501"
     y2="307.573"
     gradientTransform="matrix(0.7700001,0,0,0.77000002,-128.49632,-140.52625)"><stop
       offset="0"
       stop-color="#62A0EA"
       id="stop1" /><stop
       offset="1"
       stop-color="#1A5FB4"
       id="stop2" /></linearGradient><linearGradient
     xlink:href="#linearGradient1097"
     id="linearGradient1099"
     x1="9.9999962"
     y1="68"
     x2="118"
     y2="68"
     gradientUnits="userSpaceOnUse"
     gradientTransform="translate(-0.00138,-2.001333)" /><linearGradient
     id="linearGradient1097"><stop
       style="stop-color:#b2b2b2;stop-opacity:1;"
       offset="0"
       id="stop1093" /><stop
       style="stop-color:#ffffff;stop-opacity:1;"
       offset="0.05234205"
       id="stop1101" /><stop
       style="stop-color:#b2b2b2;stop-opacity:1;"
       offset="0.15255697"
       id="stop1103" /><stop
       style="stop-color:#b2b2b2;stop-opacity:1;"
       offset="0.85064137"
       id="stop1105" /><stop
       style="stop-color:#ffffff;stop-opacity:1;"
       offset="0.94848526"
       id="stop1107" /><stop
       style="stop-color:#b2b2b2;stop-opacity:1;"
       offset="1"
       id="stop1095" /></linearGradient></defs>
<style
   type="text/css"
   id="style2">
	.st0{fill:url(#SVGID_1_);}
	.st1{fill:url(#SVGID_00000062171159965967627490000013605884846004172698_);}
	.st2{fill:url(#SVGID-2_00000085966066984138215510000013018799571900533434_);}
	.st3{clip-path:url(#SVGID_00000023257072852279316340000004281102206337855156_);}
	.st4{fill:url(#SVGID_00000177446033621631838710000001370584907163434138_);}
	.st5{clip-path:url(#SVGID_00000136385553608229244970000014654043435100792964_);}
	.st6{fill:url(#SVGID_00000126306410582640054500000000964390405037519506_);}
	.st7{fill:url(#SVGID_00000109020757643166282930000006684795936706346369_);}
</style>
<radialGradient
   id="SVGID_1_"
   cx="514.5"
   cy="477.5"
   r="496.5"
   gradientTransform="matrix(1,0,0,-1,-18,974)"
   gradientUnits="userSpaceOnUse">
	<stop
   offset="0.9134"
   style="stop-color:#000000"
   id="stop4" />
	<stop
   offset="1"
   style="stop-color:#000000;stop-opacity:0"
   id="stop6" />
</radialGradient>

<radialGradient
   id="SVGID_00000163033830155146975860000008434547654242457221_"
   cx="512.05908"
   cy="481.87881"
   r="486.27271"
   gradientTransform="matrix(0.11104257,0,0,-0.11104257,7.1350999,117.51141)"
   gradientUnits="userSpaceOnUse">
	<stop
   offset="0.99"
   style="stop-color:#FFFFFF"
   id="stop11" />
	<stop
   offset="0.9951"
   style="stop-color:#FDFDFD"
   id="stop13" />
	<stop
   offset="0.9969"
   style="stop-color:#F6F6F6"
   id="stop15" />
	<stop
   offset="0.9982"
   style="stop-color:#EBEBEB"
   id="stop17" />
	<stop
   offset="0.9992"
   style="stop-color:#DADADA"
   id="stop19" />
	<stop
   offset="1"
   style="stop-color:#C7C7C7"
   id="stop21" />
</radialGradient>

<radialGradient
   id="SVGID-2_00000052072577768947982130000002178866272689676469_"
   cx="512.06152"
   cy="481.87881"
   r="444.12241"
   gradientTransform="matrix(1,0,0,-1,-18,974)"
   gradientUnits="userSpaceOnUse">
	<stop
   offset="0.99"
   style="stop-color:#000000;stop-opacity:0.5"
   id="stop26" />
	<stop
   offset="1"
   style="stop-color:#000000;stop-opacity:0"
   id="stop28" />
</radialGradient>



<radialGradient
   id="SVGID_00000092427181212153090570000016417065628950216588_"
   cx="578.89008"
   cy="482.3703"
   r="353.94269"
   gradientTransform="matrix(0.11104257,0,0,-0.1218248,7.1350999,118.45626)"
   gradientUnits="userSpaceOnUse">
	<stop
   offset="0"
   style="stop-color:#C2C0C2"
   id="stop66" />
	<stop
   offset="1"
   style="stop-color:#EBEBEB"
   id="stop68" />
</radialGradient>

		
	
		
	
<path
   style="fill:url(#linearGradient1099);fill-opacity:1;stroke:none;stroke-width:0.111043"
   d="m 63.998624,11.998665 c 29.82603,0 53.999996,24.173967 53.999996,54.000002 0,29.826027 -24.185066,54.000003 -53.999996,54.000003 -29.814934,0 -54.000004,-24.173976 -54.000004,-54.000003 0,-29.826036 24.17396,-54.000003 54.000004,-54.000003"
   id="path24-2" /><circle
   style="fill:#ffffff;fill-opacity:1;stroke:none;stroke-width:0.155022;stroke-linecap:round;stroke-linejoin:round;stroke-miterlimit:1.5;paint-order:stroke fill markers"
   id="path365"
   cx="64.001381"
   cy="62.001331"
   r="54" /><path
   d="m 62.663882,25.234758 c -2.19758,1.40987 -2.83129,4.330479 -1.41526,6.520359 7.78393,12.054351 9.62115,21.146509 8.8242,29.114469 -3.22168,15.25832 -10.22483,18.35372 -16.34479,18.35372 -5.975202,0 -4.37514,-9.83367 0.11627,-12.71193 2.68114,-1.67398 6.11534,-2.76199 8.75105,-2.76199 2.61184,0 4.72934,-2.11057 4.72934,-4.71471 0,-2.60491 -2.1175,-4.71548 -4.72934,-4.71548 -3.07846,0 -6.0984,0.6468 -8.91737,1.7479 0.57596,-2.71733 0.78848,-5.65411 0.0439,-8.775688 -1.13036,-4.740119 -4.38438,-9.26772 -10.034642,-13.656721 -0.98945,-0.77 -2.24455,-1.11573 -3.48964,-0.96173 -1.24509,0.154 -2.37776,0.79464 -3.14853,1.78178 -1.60314,2.055901 -1.232,5.018861 0.83006,6.618151 4.60306,3.57511 6.12304,6.2216 6.64279,8.399928 0.51975,2.17833 0.10166,4.51528 -0.94248,7.72618 -1.33441,4.3274 -2.88365,8.19049 -3.56279,11.89496 -0.33418,1.82336 -0.36267,3.80765 -0.44891,5.39308 -3.31485,-3.23092 -4.6123,-7.49672 -4.6123,-13.72987 -7.1e-4,-2.60414 -2.11827,-4.71548 -4.72934,-4.71471 -2.60953,0.002 -4.72395,2.11211 -4.72472,4.71471 0,8.51312 2.48941,16.61352 9.16146,22.01738 6.03988,5.75421 21.399072,3.62747 21.399072,12.86517 0,2.60722 3.81612,3.87618 6.42719,3.87618 2.67805,0 6.04834,-1.79025 6.04834,-3.87618 0,-10.48125 11.04565,-16.85146 29.2292,-16.82374 2.611838,0.004 4.730878,-2.10518 4.734728,-4.70932 0.005,-2.60491 -2.10826,-4.7201 -4.720098,-4.72472 -1.24355,-10e-4 -2.45553,0.0408 -3.65057,0.11165 2.0328,-4.78093 2.93447,-10.04465 2.74813,-15.73033 -0.0862,-2.60337 -2.2715,-4.64387 -4.88103,-4.55917 -2.61261,0.0847 -4.65927,2.26611 -4.5738,4.87102 0.2464,7.44436 -0.0323,14.09177 -5.57865,17.59604 -1.57696,0.99561 -3.41033,1.85955 -5.14899,1.85955 1.34981,-3.67136 2.36929,-7.54677 2.78663,-11.72402 0.26642,-2.66574 0.29491,-5.83275 -0.008,-8.2929 -0.47201,-3.8115 -1.04181,-8.134278 0.40502,-11.390608 1.29976,-2.80434 4.2119,-3.97859 8.48771,-3.97859 2.60953,-0.0023 4.72395,-2.11288 4.72472,-4.714711 0.002,-2.60491 -2.11365,-4.71779 -4.72472,-4.7201 -6.35404,0 -11.17039,3.34411 -13.90081,7.384301 -1.42758,-3.049201 -3.16624,-6.191571 -5.2668,-9.44405 -0.67837,-1.05105 -1.74713,-1.78948 -2.9722,-2.055131 -0.60676,-0.13167 -1.23354,-0.14322 -1.84492,-0.03388 -0.61138,0.11011 -1.19504,0.338801 -1.71787,0.673751 z"
   fill="url(#Gradient_1)"
   id="path6008"
   style="fill:url(#Gradient_1-3);stroke-width:0.77" /></svg>
