<?xml version="1.0" encoding="UTF-8" standalone="no"?>
<!-- Generator: Adobe Illustrator 26.0.2, SVG Export Plug-In . SVG Version: 6.00 Build 0)  -->

<svg
   version="1.0"
   id="Layer_1"
   x="0px"
   y="0px"
   viewBox="0 0 128 128"
   xml:space="preserve"
   width="128"
   height="128"
   sodipodi:docname="vscodium.svg"
   inkscape:version="1.3 (0e150ed6c4, 2023-07-21)"
   xmlns:inkscape="http://www.inkscape.org/namespaces/inkscape"
   xmlns:sodipodi="http://sodipodi.sourceforge.net/DTD/sodipodi-0.dtd"
   xmlns:xlink="http://www.w3.org/1999/xlink"
   xmlns="http://www.w3.org/2000/svg"
   xmlns:svg="http://www.w3.org/2000/svg"><sodipodi:namedview
   id="namedview1"
   pagecolor="#505050"
   bordercolor="#ffffff"
   borderopacity="1"
   inkscape:showpageshadow="0"
   inkscape:pageopacity="0"
   inkscape:pagecheckerboard="1"
   inkscape:deskcolor="#505050"
   inkscape:zoom="3.28125"
   inkscape:cx="-17.066667"
   inkscape:cy="65.523809"
   inkscape:current-layer="Layer_1" /><defs
   id="defs76"><linearGradient
     id="linearGradient37"><stop
       style="stop-color:#134686;stop-opacity:1;"
       offset="0"
       id="stop37" /><stop
       style="stop-color:#62a0ea;stop-opacity:1;"
       offset="0.07214975"
       id="stop36" /><stop
       style="stop-color:#134686;stop-opacity:1;"
       offset="0.23768532"
       id="stop35" /></linearGradient><linearGradient
     id="linearGradient33"><stop
       style="stop-color:#134686;stop-opacity:1;"
       offset="0.76231468"
       id="stop31" /><stop
       style="stop-color:#62a0ea;stop-opacity:1;"
       offset="0.92785025"
       id="stop32" /><stop
       style="stop-color:#134686;stop-opacity:1;"
       offset="1"
       id="stop33" /></linearGradient><linearGradient
     id="linearGradient14"><stop
       style="stop-color:#134686;stop-opacity:1;"
       offset="0"
       id="stop7" /><stop
       style="stop-color:#62a0ea;stop-opacity:1;"
       offset="0.05234205"
       id="stop8" /><stop
       style="stop-color:#134686;stop-opacity:1;"
       offset="0.15255697"
       id="stop9" /><stop
       style="stop-color:#134686;stop-opacity:1;"
       offset="0.40026149"
       id="stop10" /><stop
       style="stop-color:#62a0ea;stop-opacity:1;"
       offset="0.47880286"
       id="stop16" /><stop
       style="stop-color:#134686;stop-opacity:1;"
       offset="0.55000001"
       id="stop18" /><stop
       style="stop-color:#134686;stop-opacity:1;"
       offset="0.92873526"
       id="stop20" /><stop
       style="stop-color:#62a0ea;stop-opacity:1;"
       offset="0.96674788"
       id="stop12" /><stop
       style="stop-color:#134686;stop-opacity:1;"
       offset="1"
       id="stop14" /></linearGradient><linearGradient
     id="Gradient_1-3"
     gradientUnits="userSpaceOnUse"
     x1="199.99699"
     y1="214.302"
     x2="296.66501"
     y2="307.573"
     gradientTransform="matrix(1.08,0,0,1.0799999,-205.9968,-222.67765)"><stop
       offset="0"
       stop-color="#62A0EA"
       id="stop1" /><stop
       offset="1"
       stop-color="#1A5FB4"
       id="stop2" /></linearGradient><linearGradient
     xlink:href="#linearGradient14"
     id="linearGradient6"
     gradientUnits="userSpaceOnUse"
     x1="-0.003"
     y1="50.022793"
     x2="99.997009"
     y2="50.022793"
     gradientTransform="matrix(1.0799919,0,0,1.0799999,10.003196,11.362327)" /><linearGradient
     xlink:href="#linearGradient33"
     id="linearGradient23"
     x1="203.67719"
     y1="17.329969"
     x2="229.80132"
     y2="17.329969"
     gradientUnits="userSpaceOnUse"
     gradientTransform="matrix(0.99999256,0,0,1,-124.99856,10.769114)" /><linearGradient
     xlink:href="#linearGradient37"
     id="linearGradient35"
     x1="183.79958"
     y1="-35.343151"
     x2="209.25226"
     y2="-35.343151"
     gradientUnits="userSpaceOnUse"
     gradientTransform="matrix(0.99999256,0,0,1,-158.9983,76.769118)" /></defs>&#10;<style
   type="text/css"
   id="style2">&#10;	.st0{fill:url(#SVGID_1_);}&#10;	.st1{fill:url(#SVGID_00000062171159965967627490000013605884846004172698_);}&#10;	.st2{fill:url(#SVGID-2_00000085966066984138215510000013018799571900533434_);}&#10;	.st3{clip-path:url(#SVGID_00000023257072852279316340000004281102206337855156_);}&#10;	.st4{fill:url(#SVGID_00000177446033621631838710000001370584907163434138_);}&#10;	.st5{clip-path:url(#SVGID_00000136385553608229244970000014654043435100792964_);}&#10;	.st6{fill:url(#SVGID_00000126306410582640054500000000964390405037519506_);}&#10;	.st7{fill:url(#SVGID_00000109020757643166282930000006684795936706346369_);}&#10;</style>&#10;<radialGradient
   id="SVGID_1_"
   cx="514.5"
   cy="477.5"
   r="496.5"
   gradientTransform="matrix(1,0,0,-1,-18,974)"
   gradientUnits="userSpaceOnUse">&#10;	<stop
   offset="0.9134"
   style="stop-color:#000000"
   id="stop4" />&#10;	<stop
   offset="1"
   style="stop-color:#000000;stop-opacity:0"
   id="stop6" />&#10;</radialGradient>&#10;&#10;<radialGradient
   id="SVGID_00000163033830155146975860000008434547654242457221_"
   cx="512.05908"
   cy="481.87881"
   r="486.27271"
   gradientTransform="matrix(0.11104257,0,0,-0.11104257,7.1350999,117.51141)"
   gradientUnits="userSpaceOnUse">&#10;	<stop
   offset="0.99"
   style="stop-color:#FFFFFF"
   id="stop11" />&#10;	<stop
   offset="0.9951"
   style="stop-color:#FDFDFD"
   id="stop13" />&#10;	<stop
   offset="0.9969"
   style="stop-color:#F6F6F6"
   id="stop15" />&#10;	<stop
   offset="0.9982"
   style="stop-color:#EBEBEB"
   id="stop17" />&#10;	<stop
   offset="0.9992"
   style="stop-color:#DADADA"
   id="stop19" />&#10;	<stop
   offset="1"
   style="stop-color:#C7C7C7"
   id="stop21" />&#10;</radialGradient>&#10;&#10;<radialGradient
   id="SVGID-2_00000052072577768947982130000002178866272689676469_"
   cx="512.06152"
   cy="481.87881"
   r="444.12241"
   gradientTransform="matrix(1,0,0,-1,-18,974)"
   gradientUnits="userSpaceOnUse">&#10;	<stop
   offset="0.99"
   style="stop-color:#000000;stop-opacity:0.5"
   id="stop26" />&#10;	<stop
   offset="1"
   style="stop-color:#000000;stop-opacity:0"
   id="stop28" />&#10;</radialGradient>&#10;&#10;&#10;&#10;<radialGradient
   id="SVGID_00000092427181212153090570000016417065628950216588_"
   cx="578.89008"
   cy="482.3703"
   r="353.94269"
   gradientTransform="matrix(0.11104257,0,0,-0.1218248,7.1350999,118.45626)"
   gradientUnits="userSpaceOnUse">&#10;	<stop
   offset="0"
   style="stop-color:#C2C0C2"
   id="stop66" />&#10;	<stop
   offset="1"
   style="stop-color:#EBEBEB"
   id="stop68" />&#10;</radialGradient>&#10;&#10;		&#10;	&#10;		&#10;	&#10;<path
   d="m 62.123608,13.818247 c 0,1.017403 -2.323983,-0.291524 -3.042377,1.419515 0,0 0.0173,3.546711 0.004,3.88074 -0.0532,1.313736 0.284808,2.656245 1.053602,3.845185 10.917629,16.9074 13.494489,29.66004 12.376698,40.83588 -4.518687,21.401271 -14.341204,25.742871 -22.92498,25.742871 -8.380737,0 -6.136514,-13.79268 0.163079,-17.829721 3.760532,-2.34792 8.577296,-3.87396 12.274109,-3.87396 3.663322,0 6.6333,-2.96027 6.6333,-6.61283 0,-0.396626 0,-4.000003 0,-4.000003 -0.550906,-3.099003 -3.367655,-2.613917 -6.6333,-2.613917 -4.317808,0 -8.553537,0.9072 -12.507387,2.4516 0.807834,-3.81132 1.105912,-7.93044 0.0616,-12.30876 -1.585428,-6.64848 -6.149474,-12.99888 -14.074455,-19.15488 -1.38779,-1.08 -3.148177,-1.56492 -4.894524,-1.34892 -1.746347,0.216 -3.335015,1.11456 -4.416087,2.49912 -0.624085,0.800348 -1.191251,-0.85543 -1.397199,0.07283 0,0 -0.0194,3.70607 0.007,4.283181 0.0846,1.867854 0.958383,3.688537 2.554661,4.926585 6.456192,5.01444 8.588096,8.7264 9.31709,11.78172 0.728995,3.05532 0.142559,6.33312 -1.32191,10.83672 -1.871626,6.0696 -4.04457,11.48795 -4.997123,16.683835 -0.468716,2.55744 -0.508676,5.3406 -0.629635,7.56432 -4.649365,-4.53168 -6.469152,-10.514885 -6.469152,-19.257475 -0.001,-3.65256 -2.971058,-6.61392 -6.63331,-6.61284 -3.660093,0.003 -6.625751,2.96244 -6.626831,6.61284 0,11.940475 3.491614,23.302075 12.849744,30.881515 8.471457,8.070842 30.014057,5.08788 30.014057,18.044642 0,3.65688 5.35244,5.43672 9.014693,5.43672 3.756202,0 8.483327,-2.511 8.483327,-5.43672 0,-14.700962 15.492484,-23.635802 40.996492,-23.596922 3.66333,0.005 6.63547,-2.95272 6.64087,-6.60528 7.5e-4,-0.45662 0,-4 0,-4 -0.6131,-3.01572 -3.41484,-2.62121 -6.62035,-2.62688 -1.74419,-0.002 -3.44409,0.0572 -5.12024,0.1566 2.85118,-6.705725 4.11585,-14.088595 3.85449,-22.063315 -0.12096,-3.65148 -3.18598,-6.51348 -6.84607,-6.39468 -3.66441,0.1188 -6.535028,3.17844 -6.415149,6.83208 0.345597,10.44144 -0.0454,19.76507 -7.824542,24.680155 -2.211824,1.39644 -4.783285,2.6082 -7.221906,2.6082 1.893226,-5.14944 3.323135,-10.585085 3.908491,-16.444075 0.373677,-3.73896 0.413636,-8.181 -0.013,-11.6316 -0.662035,-5.346 -1.46123,-11.40912 0.568075,-15.97644 1.823027,-3.93336 5.907556,-5.58036 11.904752,-5.58036 3.660089,-0.003 6.625749,-2.96352 6.626829,-6.61284 2.3e-4,-0.413739 0,-3.999999 0,-3.999999 -0.56858,-3.075487 -3.37929,-2.617528 -6.626829,-2.620401 -8.912094,0 -15.667444,4.69044 -19.497095,10.3572 -2.002305,-4.2768 -4.440927,-8.68428 -7.387145,-13.2462 -0.951473,-1.4742 -2.450502,-2.50992 -4.168769,-2.88252 -0.851034,-0.18468 -1.730147,-0.20088 -2.587661,-0.0475 -0.857504,0.15444 -1.676137,0.4752 -2.409452,0.945 z"
   fill="url(#Gradient_1)"
   id="path6008-2"
   style="fill:url(#linearGradient6);fill-opacity:1;stroke-width:1.08" /><path
   d="m 86.269458,37.505883 c 1.823027,-3.93336 5.907556,-5.58036 11.904752,-5.58036 3.66009,-0.0032 6.62575,-2.96352 6.62683,-6.612839 0.002,-3.65364 -2.96458,-6.61716 -6.62683,-6.6204 -8.912094,0 -15.667444,4.69044 -19.497095,10.357199"
   style="fill:url(#linearGradient23);stroke-width:1.08"
   id="path1" /><path
   d="m 49.520582,57.063602 c 0.807834,-3.81132 1.105912,-7.930439 0.0616,-12.308759 -1.585428,-6.648479 -6.149474,-12.998879 -14.074455,-19.154878 -1.38779,-1.08 -3.148177,-1.56492 -4.894524,-1.34892 -1.746347,0.216 -3.335015,1.11456 -4.416087,2.49912 -2.248543,2.883599 -1.727987,7.039439 1.164232,9.282599 6.456192,5.014439 8.588096,8.726399 9.31709,11.781719 0.728995,3.055319 0.142559,6.333119 -1.32191,10.836719"
   style="fill:url(#linearGradient35);stroke-width:1.08"
   id="path1-2" /><path
   d="m 62.123998,9.818249 c -3.08232,1.97748 -3.97116,6.073919 -1.98504,9.145439 10.917711,16.907398 13.49459,29.660037 12.376791,40.835876 -4.518721,21.401274 -14.341312,25.742874 -22.925152,25.742874 -8.3808,0 -6.13656,-13.792675 0.16308,-17.829715 3.76056,-2.347919 8.57736,-3.873959 12.274201,-3.873959 3.66335,0 6.63335,-2.96028 6.63335,-6.61284 0,-3.653639 -2.97,-6.613919 -6.63335,-6.613919 -4.31784,0 -8.553601,0.9072 -12.50748,2.4516 0.80784,-3.81132 1.10592,-7.930439 0.0616,-12.308759 -1.58544,-6.648479 -6.14952,-12.998879 -14.07456,-19.154878 -1.387801,-1.08 -3.148201,-1.56492 -4.894561,-1.34892 -1.74636,0.216 -3.33504,1.11456 -4.41612,2.49912 -2.24856,2.883599 -1.728,7.039439 1.164241,9.282599 6.45624,5.014439 8.58816,8.726399 9.31716,11.781719 0.729,3.055319 0.14256,6.333119 -1.32192,10.836719 -1.87164,6.069599 -4.044601,11.487959 -4.997161,16.683838 -0.468719,2.55744 -0.50868,5.340595 -0.629639,7.564315 -4.6494,-4.531675 -6.469201,-10.514875 -6.469201,-19.257474 -0.001,-3.65256 -2.97108,-6.613919 -6.633359,-6.612839 -3.660121,0.0032 -6.625801,2.962439 -6.6268812,6.612839 0,11.940479 3.4916402,23.302074 12.8498402,30.881514 8.47152,8.07084 30.014282,5.08788 30.014282,18.044642 0,3.65688 5.35248,5.43672 9.01476,5.43672 3.75623,0 8.48339,-2.511 8.48339,-5.43672 0,-14.700962 15.4926,-23.635802 40.996801,-23.596922 3.66336,0.005 6.63552,-2.95272 6.64092,-6.60528 0.006,-3.653635 -2.95704,-6.620395 -6.6204,-6.626875 -1.7442,-0.0022 -3.44412,0.05724 -5.12028,0.1566 2.8512,-6.705719 4.11588,-14.088599 3.85452,-22.063318 -0.12096,-3.65148 -3.18601,-6.513479 -6.84612,-6.394679 -3.66444,0.1188 -6.535079,3.178439 -6.415199,6.832079 0.345599,10.441439 -0.0454,19.765078 -7.824601,24.680153 -2.211841,1.39644 -4.783321,2.6082 -7.22196,2.6082 1.89324,-5.149435 3.32316,-10.585075 3.90852,-16.444074 0.37368,-3.73896 0.413639,-8.180999 -0.013,-11.631599 -0.66204,-5.345999 -1.461241,-11.409119 0.568079,-15.976438 1.823041,-3.93336 5.907601,-5.58036 11.904841,-5.58036 3.66012,-0.0032 6.6258,-2.96352 6.62688,-6.612839 0.002,-3.65364 -2.9646,-6.61716 -6.62688,-6.6204 -8.91216,0 -15.667561,4.69044 -19.49724,10.357199 -2.00232,-4.276799 -4.440961,-8.684279 -7.387201,-13.246198 -0.95148,-1.4742 -2.45052,-2.50992 -4.1688,-2.88252 -0.85104,-0.18468 -1.73016,-0.20088 -2.58768,-0.04752 -0.857511,0.15444 -1.67615,0.4752 -2.409471,0.945 z"
   fill="url(#Gradient_1)"
   id="path6008"
   style="fill:url(#Gradient_1-3);stroke-width:1.08" /></svg>
