<?xml version="1.0" encoding="UTF-8" standalone="no"?>
<!-- Generator: Adobe Illustrator 26.0.2, SVG Export Plug-In . SVG Version: 6.00 Build 0)  -->

<svg
   version="1.0"
   id="Layer_1"
   x="0px"
   y="0px"
   viewBox="0 0 128 128"
   xml:space="preserve"
   width="128"
   height="128"
   xmlns:xlink="http://www.w3.org/1999/xlink"
   xmlns="http://www.w3.org/2000/svg"
   xmlns:svg="http://www.w3.org/2000/svg"><defs
   id="defs76"><linearGradient
   id="linearGradient1097"><stop
     style="stop-color:#b2b2b2;stop-opacity:1;"
     offset="0"
     id="stop1093" /><stop
     style="stop-color:#ffffff;stop-opacity:1;"
     offset="0.05234205"
     id="stop1101" /><stop
     style="stop-color:#b2b2b2;stop-opacity:1;"
     offset="0.15255697"
     id="stop1103" /><stop
     style="stop-color:#b2b2b2;stop-opacity:1;"
     offset="0.85064137"
     id="stop1105" /><stop
     style="stop-color:#ffffff;stop-opacity:1;"
     offset="0.94848526"
     id="stop1107" /><stop
     style="stop-color:#b2b2b2;stop-opacity:1;"
     offset="1"
     id="stop1095" /></linearGradient><radialGradient
   id="SVGID_00000163033830155146975860000008434547654242457221_-3"
   cx="512.05908"
   cy="481.87881"
   r="486.27271"
   gradientTransform="matrix(0.11104257,0,0,-0.11104257,20.693907,178.43106)"
   gradientUnits="userSpaceOnUse">
	<stop
   offset="0.99000001"
   style="stop-color:#cccccc;stop-opacity:1;"
   id="stop11-6" />
	<stop
   offset="0.9951"
   style="stop-color:#FDFDFD"
   id="stop13-7" />
	<stop
   offset="0.9969"
   style="stop-color:#F6F6F6"
   id="stop15-5" />
	<stop
   offset="0.9982"
   style="stop-color:#EBEBEB"
   id="stop17-3" />
	<stop
   offset="0.9992"
   style="stop-color:#DADADA"
   id="stop19-5" />
	<stop
   offset="1"
   style="stop-color:#C7C7C7"
   id="stop21-6" />
</radialGradient><radialGradient
   id="SVGID_00000075157454629254526220000014209612016984828065_-2"
   cx="433.7207"
   cy="-472.88901"
   r="4.6532998"
   gradientTransform="matrix(10.510657,0,0,10.510657,-4619.3806,5031.1169)"
   gradientUnits="userSpaceOnUse">
			<stop
   offset="0"
   style="stop-color:#000000"
   id="stop55-7" />
			<stop
   offset="1"
   style="stop-color:#322F32"
   id="stop57-0" />
		</radialGradient><path
   id="SVGID_00000018236686936268748280000002431340190722277274_-6"
   d="m 53.6,492.1 c 0,243.3 197.2,440.5 440.5,440.5 243.3,0 440.5,-197.2 440.5,-440.5 C 934.6,248.8 737.4,51.6 494.1,51.6 250.8,51.6 53.6,248.9 53.6,492.1" />
	<defs
   id="defs50-3">
		<path
   id="path2946"
   d="m 53.6,492.1 c 0,243.3 197.2,440.5 440.5,440.5 243.3,0 440.5,-197.2 440.5,-440.5 C 934.6,248.8 737.4,51.6 494.1,51.6 250.8,51.6 53.6,248.9 53.6,492.1" />
	</defs>
	<clipPath
   id="clipPath2872">
		<use
   xlink:href="#SVGID_00000018236686936268748280000002431340190722277274_-6"
   style="overflow:visible"
   id="use2870" />
	</clipPath>
	

		
			<radialGradient
   id="radialGradient2878"
   cx="433.7207"
   cy="-472.88901"
   r="4.6532998"
   gradientTransform="matrix(94.6543,0,0,94.6543,-40559.457,45253.09)"
   gradientUnits="userSpaceOnUse">
			<stop
   offset="0"
   style="stop-color:#000000"
   id="stop2874" />
			<stop
   offset="1"
   style="stop-color:#322F32"
   id="stop2876" />
		</radialGradient>
		
			
	<clipPath
   clipPathUnits="userSpaceOnUse"
   id="clipPath2985"><g
     id="g2989"><use
       xlink:href="#SVGID_00000018236686936268748280000002431340190722277274_-6"
       style="overflow:visible"
       id="use2987"
       transform="matrix(0.11104257,0,0,0.11104257,-115.5543,6.0975271)" /></g></clipPath>
	<defs
   id="defs50">
		<path
   id="SVGID_00000018236686936268748280000002431340190722277274_"
   d="m 53.6,492.1 c 0,243.3 197.2,440.5 440.5,440.5 243.3,0 440.5,-197.2 440.5,-440.5 C 934.6,248.8 737.4,51.6 494.1,51.6 250.8,51.6 53.6,248.9 53.6,492.1" />
	</defs>
	
	

		
			<radialGradient
   id="SVGID_00000075157454629254526220000014209612016984828065_"
   cx="433.7207"
   cy="-472.88901"
   r="4.6532998"
   gradientTransform="matrix(10.510657,0,0,10.510657,-4494.6925,5034.3754)"
   gradientUnits="userSpaceOnUse">
			<stop
   offset="0"
   style="stop-color:#000000"
   id="stop55" />
			<stop
   offset="1"
   style="stop-color:#322F32"
   id="stop57" />
		</radialGradient>
		
			
	<clipPath
   clipPathUnits="userSpaceOnUse"
   id="clipPath3008"><g
     id="g3012"><use
       xlink:href="#SVGID_00000018236686936268748280000002431340190722277274_"
       style="overflow:visible"
       id="use3010"
       transform="matrix(0.11104257,0,0,0.11104257,9.1338662,9.3559513)" /></g></clipPath><radialGradient
   xlink:href="#radialGradient2878"
   id="radialGradient947"
   cx="60.356438"
   cy="114.69307"
   fx="60.356438"
   fy="114.69307"
   r="54.000004"
   gradientUnits="userSpaceOnUse"
   gradientTransform="matrix(0.90571295,0,0,0.90571295,9.3343913,-39.878999)" /><linearGradient
   id="Gradient_1"
   gradientUnits="userSpaceOnUse"
   x1="2.763"
   y1="-0.31299999"
   x2="94.027"
   y2="95.407997"><stop
     offset="0"
     stop-color="#56CCF2"
     id="stop361" /><stop
     offset="1"
     stop-color="#2F80ED"
     id="stop363" /></linearGradient><linearGradient
   xlink:href="#linearGradient1097"
   id="linearGradient1099"
   x1="9.9999966"
   y1="67.999999"
   x2="118"
   y2="67.999999"
   gradientUnits="userSpaceOnUse"
   gradientTransform="translate(0,-1.9999995)" /></defs>
<style
   type="text/css"
   id="style2">
	.st0{fill:url(#SVGID_1_);}
	.st1{fill:url(#SVGID_00000062171159965967627490000013605884846004172698_);}
	.st2{fill:url(#SVGID-2_00000085966066984138215510000013018799571900533434_);}
	.st3{clip-path:url(#SVGID_00000023257072852279316340000004281102206337855156_);}
	.st4{fill:url(#SVGID_00000177446033621631838710000001370584907163434138_);}
	.st5{clip-path:url(#SVGID_00000136385553608229244970000014654043435100792964_);}
	.st6{fill:url(#SVGID_00000126306410582640054500000000964390405037519506_);}
	.st7{fill:url(#SVGID_00000109020757643166282930000006684795936706346369_);}
</style>
<radialGradient
   id="SVGID_1_"
   cx="514.5"
   cy="477.5"
   r="496.5"
   gradientTransform="matrix(1,0,0,-1,-18,974)"
   gradientUnits="userSpaceOnUse">
	<stop
   offset="0.9134"
   style="stop-color:#000000"
   id="stop4" />
	<stop
   offset="1"
   style="stop-color:#000000;stop-opacity:0"
   id="stop6" />
</radialGradient>

<radialGradient
   id="SVGID_00000163033830155146975860000008434547654242457221_"
   cx="512.05908"
   cy="481.87881"
   r="486.27271"
   gradientTransform="matrix(0.11104257,0,0,-0.11104257,7.1350999,117.51141)"
   gradientUnits="userSpaceOnUse">
	<stop
   offset="0.99"
   style="stop-color:#FFFFFF"
   id="stop11" />
	<stop
   offset="0.9951"
   style="stop-color:#FDFDFD"
   id="stop13" />
	<stop
   offset="0.9969"
   style="stop-color:#F6F6F6"
   id="stop15" />
	<stop
   offset="0.9982"
   style="stop-color:#EBEBEB"
   id="stop17" />
	<stop
   offset="0.9992"
   style="stop-color:#DADADA"
   id="stop19" />
	<stop
   offset="1"
   style="stop-color:#C7C7C7"
   id="stop21" />
</radialGradient>

<radialGradient
   id="SVGID-2_00000052072577768947982130000002178866272689676469_"
   cx="512.06152"
   cy="481.87881"
   r="444.12241"
   gradientTransform="matrix(1,0,0,-1,-18,974)"
   gradientUnits="userSpaceOnUse">
	<stop
   offset="0.99"
   style="stop-color:#000000;stop-opacity:0.5"
   id="stop26" />
	<stop
   offset="1"
   style="stop-color:#000000;stop-opacity:0"
   id="stop28" />
</radialGradient>



<radialGradient
   id="SVGID_00000092427181212153090570000016417065628950216588_"
   cx="578.89008"
   cy="482.3703"
   r="353.94269"
   gradientTransform="matrix(0.11104257,0,0,-0.1218248,7.1350999,118.45626)"
   gradientUnits="userSpaceOnUse">
	<stop
   offset="0"
   style="stop-color:#C2C0C2"
   id="stop66" />
	<stop
   offset="1"
   style="stop-color:#EBEBEB"
   id="stop68" />
</radialGradient>

		
	
		
	
<path
   style="fill:url(#linearGradient1099);fill-opacity:1;stroke:none;stroke-width:0.111043"
   d="M 63.999999,11.999998 C 93.826032,11.999998 118,36.173966 118,66.000002 118,95.826032 93.814932,120 63.999999,120 34.185069,120 9.9999966,95.826032 9.9999966,66.000002 c 0,-29.826037 24.1739684,-54.000005 54.0000024,-54.000005"
   id="path24-2" /><path
   style="fill:#ffffff;fill-opacity:1;stroke-width:0.111043"
   d="M 64.000001,7.9999996 C 93.826035,7.9999996 118,32.173967 118,62.000001 118,91.826036 93.814931,116 64.000001,116 34.185071,116 9.9999991,91.826036 9.9999991,62.000001 9.9999991,32.173967 34.173967,7.9999996 64.000001,7.9999996"
   id="path24" /><g
   id="Layer_1-3"
   transform="matrix(0.79999742,0,0,0.79999742,24.02593,22.250409)"><path
     d="m 63.697,1.417 c 0.657,-1.036 1.832,-1.725 3.066,-1.73 1.729,-0.004 3.375,0.967 4.376,2.35 0.943,1.322 1.234,2.993 1.236,4.589 -0.015,2.244 -0.532,4.449 -1.148,6.596 -1.539,5.067 -3.63,9.946 -5.192,15.007 -1.72,5.743 -2.545,12.143 -0.234,17.845 1.208,-3.372 2.403,-6.751 3.607,-10.127 0.342,-0.892 0.792,-1.906 1.748,-2.272 1.331,-0.474 2.688,0.915 2.649,2.201 -0.364,1.873 -1.07,3.658 -1.626,5.48 -4.503,13.536 -9.546,26.885 -14.402,40.299 6.458,-5.905 12.936,-11.788 19.402,-17.682 1.861,-1.694 3.879,-3.54 4.449,-6.1 0.569,-2.513 -0.489,-5.007 -1.688,-7.165 -1.385,-2.575 -3.153,-5.024 -3.803,-7.922 -0.327,-1.501 -0.228,-3.228 0.784,-4.458 0.73,-0.926 2.059,-1.404 3.18,-0.952 1.107,0.423 1.775,1.486 2.298,2.49 1.757,3.525 2.853,7.377 3.23,11.299 1.2,-2.421 2.414,-4.832 3.616,-7.251 0.726,-1.425 1.367,-2.954 2.545,-4.08 0.711,-0.702 1.747,-1.144 2.75,-0.916 1.258,0.278 2.141,1.422 2.479,2.61 0.383,1.262 -0.022,2.576 -0.429,3.775 -1.212,3.353 -3.116,6.387 -4.951,9.424 -2.558,4.02 -5.275,7.943 -8.241,11.675 1.695,-1.132 3.48,-2.323 5.556,-2.56 1.964,-0.263 4.135,0.887 4.785,2.804 0.435,1.305 -0.269,2.782 -1.451,3.419 -1.734,0.967 -3.786,0.954 -5.713,1.04 -6.993,0.192 -13.808,3.635 -18.147,9.116 -3.424,4.371 -5.173,9.802 -8.648,14.137 -2.192,2.642 -5.289,5.959 -8.696,5.226 -4.537,-0.975 -4.537,-8.066 -5.668,-11.581 -0.583,-1.772 -1.677,-3.391 -3.195,-4.496 -1.327,-0.98 -2.916,-1.542 -4.522,-1.85 -3.687,-0.708 -7.49,-0.334 -11.168,-1.094 -1.841,-0.375 -3.654,-1.113 -5.06,-2.386 -1.34,-1.176 -2.266,-2.75 -2.908,-4.397 -1.386,-3.588 -1.668,-7.481 -2.9,-11.114 C 13.88,57.436 10.352,52.812 5.757,49.741 4.788,49.087 3.735,48.449 3.108,47.429 c -0.51,-0.797 -0.465,-1.93 0.203,-2.625 1.126,-1.226 3.161,-1.327 4.462,-0.313 2.666,1.891 3.051,5.565 5.536,7.621 0.004,-3.394 -0.013,-6.785 -0.019,-10.177 0.008,-0.98 -0.101,-2.035 0.389,-2.926 0.446,-0.844 1.68,-1.073 2.397,-0.44 0.969,0.812 1.264,2.137 1.402,3.336 0.482,4.675 0.948,9.352 1.432,14.03 2.436,-2.188 3.555,-5.739 2.767,-8.924 -0.239,-1.017 -0.626,-2.063 -0.407,-3.118 0.179,-0.885 1.118,-1.508 2.003,-1.35 0.995,0.135 1.705,0.988 2.078,1.864 0.594,1.452 0.596,3.069 0.476,4.611 -0.353,3.512 -1.839,6.755 -2.864,10.097 -0.999,2.95 -1.686,6.228 -0.685,9.275 0.892,2.849 3.153,5.101 5.806,6.378 3.275,1.609 6.964,2.109 10.573,2.251 -2.194,-3.84 -4.58,-7.903 -4.539,-12.471 0.043,-4.599 2.967,-8.473 3.757,-12.912 C 39.221,44.272 35.898,36.267 29.712,32.042 26.964,30.154 23.665,29.314 20.842,27.563 18.288,26 15.994,23.218 16.395,20.05 c 1.94,-0.751 4.106,-0.271 5.857,0.737 3.422,1.826 5.599,5.288 9.038,7.086 1.208,0.659 2.593,0.985 3.969,0.901 0.745,-1.786 0,-3.786 -1.202,-5.177 -2.261,-2.724 -6.077,-3.385 -8.441,-5.989 -1.185,-1.359 -1.846,-3.301 -1.348,-5.078 0.405,-1.404 1.858,-2.36 3.305,-2.254 2.143,0.133 3.988,1.475 5.453,2.952 4.847,4.845 7.636,11.435 8.73,18.132 1.292,7.899 0.288,15.957 -1.303,23.735 -0.297,1.585 -0.853,3.21 -0.442,4.828 0.177,0.749 0.717,1.522 1.547,1.589 1.141,0.073 2.084,-0.704 2.915,-1.385 2.599,-2.123 4.665,-4.981 5.517,-8.254 0.666,-2.386 0.685,-4.884 0.638,-7.341 0.013,-1.229 -0.078,-2.586 0.657,-3.65 0.525,-0.822 1.505,-1.468 2.513,-1.229 0.79,0.15 1.35,0.835 1.591,1.569 0.388,1.209 0.329,2.514 0.095,3.747 -0.743,3.403 -1.415,6.85 -2.761,10.081 -0.95,2.319 -2.233,4.524 -3.971,6.341 -1.916,2.031 -4.283,3.659 -5.827,6.026 -1.053,1.617 -1.734,3.626 -1.277,5.558 0.334,1.541 1.507,2.799 2.922,3.441 2.061,0.941 4.563,0.893 6.572,-0.166 1.594,-0.862 2.727,-2.352 3.629,-3.883 1.589,-2.754 2.552,-5.812 3.351,-8.874 1.229,-4.944 1.953,-10.013 2.237,-15.1 0.325,-5.433 -0.661,-11.051 -3.4,-15.797 -1.456,-2.541 -3.515,-4.705 -5.92,-6.361 -2.166,-1.611 -4.548,-3.006 -6.305,-5.093 -1.643,-1.934 -2.782,-4.544 -2.184,-7.111 1.124,-0.706 2.543,-0.829 3.788,-0.387 2.349,0.799 4.189,2.685 5.375,4.819 1.611,2.515 2.955,5.508 5.793,6.874 -2.309,-4.542 -4.69,-9.045 -7.027,-13.571 -0.76,-1.529 -1.509,-3.2 -1.311,-4.949 0.144,-1.333 1.382,-2.426 2.719,-2.42 1.187,0.004 2.3,0.672 3.007,1.602 0.807,1.047 1.193,2.337 1.557,3.59 1.862,6.482 3.723,12.961 5.592,19.441 2.349,-4.475 3.342,-9.66 2.674,-14.682 C 64.425,11.686 63.643,9.115 63.023,6.518 62.601,4.819 62.728,2.913 63.697,1.417 Z"
     fill="url(#Gradient_1)"
     id="Shape"
     style="fill:url(#Gradient_1)" /></g></svg>
