<?xml version="1.0" encoding="UTF-8" standalone="no"?>
<!-- Generator: Adobe Illustrator 26.0.2, SVG Export Plug-In . SVG Version: 6.00 Build 0)  -->

<svg
   version="1.0"
   id="Layer_1"
   x="0px"
   y="0px"
   viewBox="0 0 128 128"
   xml:space="preserve"
   width="128"
   height="128"
   xmlns="http://www.w3.org/2000/svg"
   xmlns:svg="http://www.w3.org/2000/svg"><defs
   id="defs76"><linearGradient
     id="Gradient_1-3"
     gradientUnits="userSpaceOnUse"
     x1="199.99699"
     y1="214.302"
     x2="296.66501"
     y2="307.573"
     gradientTransform="matrix(0.85555566,0,0,0.84129632,-149.88633,-159.28013)"><stop
       offset="0"
       stop-color="#62A0EA"
       id="stop1" /><stop
       offset="1"
       stop-color="#1A5FB4"
       id="stop2" /></linearGradient><linearGradient
     id="a-9"
     gradientUnits="userSpaceOnUse"
     x1="0"
     y1="269.46301"
     x2="118.926"
     y2="269.46301"
     gradientTransform="matrix(1,0,0,0.98333333,0,-168.03333)"><stop
       offset="0"
       stop-color="#e5a50a"
       id="stop1-7"
       style="stop-color:#787878;stop-opacity:1;" /><stop
       offset="0.414"
       stop-color="#fbdf9b"
       id="stop2-0"
       style="stop-color:#cbcbcb;stop-opacity:1;" /><stop
       offset="0.81300002"
       stop-color="#e5a50a"
       id="stop3"
       style="stop-color:#787878;stop-opacity:1;" /><stop
       offset="1"
       stop-color="#f8ca5b"
       id="stop4-4"
       style="stop-color:#a9a9a9;stop-opacity:1;" /></linearGradient></defs>
<style
   type="text/css"
   id="style2">
	.st0{fill:url(#SVGID_1_);}
	.st1{fill:url(#SVGID_00000062171159965967627490000013605884846004172698_);}
	.st2{fill:url(#SVGID-2_00000085966066984138215510000013018799571900533434_);}
	.st3{clip-path:url(#SVGID_00000023257072852279316340000004281102206337855156_);}
	.st4{fill:url(#SVGID_00000177446033621631838710000001370584907163434138_);}
	.st5{clip-path:url(#SVGID_00000136385553608229244970000014654043435100792964_);}
	.st6{fill:url(#SVGID_00000126306410582640054500000000964390405037519506_);}
	.st7{fill:url(#SVGID_00000109020757643166282930000006684795936706346369_);}
</style>
<radialGradient
   id="SVGID_1_"
   cx="514.5"
   cy="477.5"
   r="496.5"
   gradientTransform="matrix(1,0,0,-1,-18,974)"
   gradientUnits="userSpaceOnUse">
	<stop
   offset="0.9134"
   style="stop-color:#000000"
   id="stop4" />
	<stop
   offset="1"
   style="stop-color:#000000;stop-opacity:0"
   id="stop6" />
</radialGradient>

<radialGradient
   id="SVGID_00000163033830155146975860000008434547654242457221_"
   cx="512.05908"
   cy="481.87881"
   r="486.27271"
   gradientTransform="matrix(0.11104257,0,0,-0.11104257,7.1350999,117.51141)"
   gradientUnits="userSpaceOnUse">
	<stop
   offset="0.99"
   style="stop-color:#FFFFFF"
   id="stop11" />
	<stop
   offset="0.9951"
   style="stop-color:#FDFDFD"
   id="stop13" />
	<stop
   offset="0.9969"
   style="stop-color:#F6F6F6"
   id="stop15" />
	<stop
   offset="0.9982"
   style="stop-color:#EBEBEB"
   id="stop17" />
	<stop
   offset="0.9992"
   style="stop-color:#DADADA"
   id="stop19" />
	<stop
   offset="1"
   style="stop-color:#C7C7C7"
   id="stop21" />
</radialGradient>

<radialGradient
   id="SVGID-2_00000052072577768947982130000002178866272689676469_"
   cx="512.06152"
   cy="481.87881"
   r="444.12241"
   gradientTransform="matrix(1,0,0,-1,-18,974)"
   gradientUnits="userSpaceOnUse">
	<stop
   offset="0.99"
   style="stop-color:#000000;stop-opacity:0.5"
   id="stop26" />
	<stop
   offset="1"
   style="stop-color:#000000;stop-opacity:0"
   id="stop28" />
</radialGradient>



<radialGradient
   id="SVGID_00000092427181212153090570000016417065628950216588_"
   cx="578.89008"
   cy="482.3703"
   r="353.94269"
   gradientTransform="matrix(0.11104257,0,0,-0.1218248,7.1350999,118.45626)"
   gradientUnits="userSpaceOnUse">
	<stop
   offset="0"
   style="stop-color:#C2C0C2"
   id="stop66" />
	<stop
   offset="1"
   style="stop-color:#EBEBEB"
   id="stop68" />
</radialGradient>

		
	
		
	
<path
   d="M 124,65.999998 C 124,98.584718 97.137001,125 64,125 30.863,125 4,98.584718 4,65.999998 4,33.415288 30.863,7.000002 64,7.000002 c 33.137001,0 60,26.415286 60,58.999996 z m 0,0"
   fill="url(#a)"
   id="path4"
   style="fill:url(#a-9);stroke-width:0.991632" /><ellipse
   style="fill:#ffffff;fill-opacity:1;stroke:none;stroke-width:0.170805;stroke-linecap:round;stroke-linejoin:round;stroke-miterlimit:1.5;paint-order:stroke fill markers"
   id="path365"
   cx="64"
   cy="62"
   rx="60"
   ry="59" /><path
   d="m 62.51389,21.829116 c -2.441755,1.540413 -3.145877,4.731449 -1.572511,7.124096 8.648811,13.170495 10.690167,23.104519 9.804667,31.810253 -3.579644,16.671128 -11.360922,20.053139 -18.160878,20.053139 -6.639113,0 -4.861266,-10.744195 0.129189,-13.888961 2.979045,-1.828978 6.794822,-3.01773 9.723389,-3.01773 2.902044,0 5.254822,-2.305993 5.254822,-5.151257 0,-2.846105 -2.352778,-5.152098 -5.254822,-5.152098 -3.420511,0 -6.776,0.706688 -9.908189,1.909742 0.639956,-2.968934 0.876089,-6.177639 0.04878,-9.588252 C 51.322381,40.749029 47.706804,35.802206 41.428735,31.006816 40.329346,30.16552 38.93479,29.787778 37.551357,29.956037 c -1.383433,0.168259 -2.641955,0.868218 -3.498366,1.94676 -1.781267,2.246262 -1.368889,5.48357 0.922288,7.230942 5.114511,3.906139 6.803378,6.797675 7.380878,9.1777 0.5775,2.380027 0.112956,4.933361 -1.0472,8.441567 -1.482678,4.728085 -3.204055,8.948869 -3.958655,12.996345 -0.371312,1.99219 -0.402967,4.16021 -0.498789,5.892439 -3.683167,-3.530079 -5.124778,-8.19086 -5.124778,-15.001154 -7.89e-4,-2.845264 -2.353633,-5.152099 -5.254822,-5.151257 -2.899478,0.0022 -5.248833,2.307675 -5.249689,5.151257 0,9.301372 2.766011,18.151809 10.1794,24.056026 6.710978,6.287008 23.776746,3.963347 23.776746,14.05639 0,2.848628 4.240134,4.235088 7.141322,4.235088 2.975612,0 6.720378,-1.95602 6.720378,-4.235088 0,-11.451736 12.272944,-18.411781 32.47689,-18.381494 2.90204,0.0044 5.25653,-2.300104 5.26081,-5.145368 0.006,-2.846105 -2.34252,-5.157146 -5.24456,-5.162194 -1.38172,-0.0011 -2.728362,0.04458 -4.056185,0.121988 2.258667,-5.223609 3.260525,-10.97471 3.053475,-17.186842 -0.0958,-2.844423 -2.523886,-5.073858 -5.423363,-4.981316 -2.9029,0.09254 -5.176967,2.475935 -5.082,5.322041 0.273777,8.133652 -0.03589,15.396563 -6.1985,19.225303 -1.752178,1.087796 -3.789256,2.03173 -5.7211,2.03173 1.499789,-4.0113 2.632544,-8.245545 3.096255,-12.809577 0.296022,-2.912568 0.327678,-6.37282 -0.0089,-9.060761 -0.524455,-4.164417 -1.157566,-8.887452 0.450023,-12.445294 1.444177,-3.064001 4.679888,-4.346978 9.430788,-4.346978 2.899478,-0.0025 5.248834,-2.308517 5.249689,-5.151259 0.0022,-2.846105 -2.3485,-5.154622 -5.249689,-5.157146 -7.060044,0 -12.411544,3.65375 -15.445344,8.068033 -1.5862,-3.331535 -3.518044,-6.764865 -5.852,-10.3185 -0.753744,-1.148369 -1.941255,-1.955172 -3.302444,-2.24542 -0.674178,-0.143862 -1.3706,-0.156482 -2.049911,-0.03702 -0.679311,0.120306 -1.327823,0.370172 -1.908745,0.736136 z"
   fill="url(#Gradient_1)"
   id="path6008"
   style="fill:url(#Gradient_1-3);stroke-width:0.848396" /></svg>
