<?xml version="1.0" encoding="UTF-8" standalone="no"?>
<svg
   height="128px"
   viewBox="0 0 128 128"
   width="128px"
   version="1.1"
   id="svg8"
   xml:space="preserve"
   xmlns:xlink="http://www.w3.org/1999/xlink"
   xmlns="http://www.w3.org/2000/svg"
   xmlns:svg="http://www.w3.org/2000/svg"><defs
     id="defs12"><linearGradient
       id="linearGradient1"><stop
         style="stop-color:#7dccf1;stop-opacity:1;"
         offset="0"
         id="stop1" /><stop
         style="stop-color:#4084d6;stop-opacity:1;"
         offset="1"
         id="stop2" /></linearGradient><linearGradient
       id="linearGradient1632"><stop
         style="stop-color:#205493;stop-opacity:1;"
         offset="0"
         id="stop1628" /><stop
         style="stop-color:#80afe5;stop-opacity:1;"
         offset="0.4121199"
         id="stop1636" /><stop
         style="stop-color:#205493;stop-opacity:1;"
         offset="0.81004661"
         id="stop1638" /><stop
         style="stop-color:#6ca0df;stop-opacity:1;"
         offset="1"
         id="stop1642" /></linearGradient><linearGradient
       xlink:href="#linearGradient1632"
       id="linearGradient1634"
       x1="60.059408"
       y1="94.415841"
       x2="168.0594"
       y2="94.415841"
       gradientUnits="userSpaceOnUse"
       gradientTransform="matrix(1.1111112,0,0,1.0925926,-62.732685,-37.158049)" /><linearGradient
       xlink:href="#linearGradient1"
       id="linearGradient2"
       x1="17.059425"
       y1="25.248655"
       x2="110.08038"
       y2="103.78809"
       gradientUnits="userSpaceOnUse" /></defs><path
     d="M 124,66.000001 C 124,98.584441 97.13672,125 64,125 30.863279,125 3.9999961,98.584441 3.9999961,66.000001 3.9999961,33.415561 30.863279,7 64,7 c 33.13672,0 60,26.415561 60,59.000001 z m 0,0"
     fill="#1c71d8"
     id="path4-3"
     style="fill:url(#linearGradient1634);fill-opacity:1;stroke-width:0.991631" /><path
     d="M 124,62.000001 C 124,94.584442 97.13672,121 64.000002,121 30.863282,121 3.9999999,94.584442 3.9999999,62.000001 3.9999999,29.41556 30.863282,2.9999994 64.000002,2.9999994 97.13672,2.9999994 124,29.41556 124,62.000001 Z m 0,0"
     fill="#1c71d8"
     id="path4"
     style="fill:url(#linearGradient2);fill-opacity:1;stroke-width:0.991632" /><path
     d="m 58.929275,34.867999 v 0.21035 l -15.35579,7.78308 v 0.21035 c 6.37056,-0.85786 12.43551,-2.86253 18.9318,-3.14702 7.66952,-0.33586 15.08196,1.82466 22.50781,3.35737 v -0.21035 l -15.98685,-7.99343 v -0.21035 c 5.74536,0.0158 13.47737,1.08084 18.30074,4.36402 2.83575,1.93025 5.12456,4.79667 7.01178,7.62612 6.609215,9.90903 12.256325,28.03981 2.86654,37.863603 -4.0208,4.20665 -11.05515,8.69863 -17.24069,6.98679 -0.73875,-0.20445 -1.46232,-0.55098 -2.10337,-0.96801 -5.42188,-3.52724 1.56834,-8.087173 5.25867,-8.963723 v -0.21036 c -12.83885,2.943323 -24.78114,3.161303 -37.65325,0.21036 2.17371,1.26872 5.2191,2.21452 6.42487,4.627773 2.28125,4.56574 -5.38743,5.64101 -8.1077,5.45036 -4.67538,-0.32768 -9.62471,-3.36979 -12.74212,-6.73131 -9.46949,-10.210993 -4.46942,-28.163923 2.65052,-38.475833 2.02903,-2.93869 4.35828,-5.71892 7.35701,-7.70825 4.68731,-3.10952 12.34817,-4.0563 17.88003,-4.07154 m -15.98685,8.20378 v 0.21035 h 0.63106 l -0.63106,-0.21035 m 6.94166,16.07937 c -9.24817,1.48901 -6.84647,15.46894 2.31389,14.14837 9.15204,-1.31937 6.78738,-15.61372 -2.31389,-14.14837 m 25.87346,0.005 c -9.39303,1.69354 -6.56033,15.86153 2.7346,14.10796 8.94488,-1.68754 6.17751,-15.71479 -2.7346,-14.10796 m -30.71159,22.4101 0.21036,0.21035 z"
     style="fill:#ffffff;stroke:none;stroke-width:0.210353"
     id="path1-0" /></svg>
