<?xml version="1.0" encoding="UTF-8" standalone="no"?>
<svg
   height="128"
   viewBox="0 0 128 128"
   width="128"
   version="1.1"
   id="svg5248"
   xml:space="preserve"
   xmlns:xlink="http://www.w3.org/1999/xlink"
   xmlns="http://www.w3.org/2000/svg"
   xmlns:svg="http://www.w3.org/2000/svg"><defs
     id="defs5252"><filter
       style="color-interpolation-filters:sRGB"
       id="filter1302"
       x="-0.012000846"
       width="1.0240017"
       y="-0.011999155"
       height="1.0239983"><feGaussianBlur
         stdDeviation="2.0803224"
         id="feGaussianBlur1304" /></filter><linearGradient
       id="bg-gradient-2"><stop
         style="stop-color:#3584e4;stop-opacity:1"
         offset="0"
         id="stop13402" /><stop
         style="stop-color:#62a0ea;stop-opacity:1"
         offset="1"
         id="stop13404" /></linearGradient><clipPath
       clipPathUnits="userSpaceOnUse"
       id="clipPath1509"><path
         id="path1511"
         d="M 192,-164 H 88 c 0,0 -40,0 -40,40 V 4 h 416 v -96 c 0,0 0,-40 -40,-40 H 224 Z"
         style="display:inline;opacity:1;vector-effect:none;fill:#c9b8a7;fill-opacity:1;stroke:none;stroke-width:26.0669;stroke-linecap:butt;stroke-linejoin:miter;stroke-miterlimit:4;stroke-dasharray:none;stroke-dashoffset:0;stroke-opacity:1;marker:none;marker-start:none;marker-mid:none;marker-end:none;paint-order:normal;enable-background:new" /></clipPath><filter
       style="color-interpolation-filters:sRGB"
       id="filter1529"
       x="-0.10846153"
       width="1.2169231"
       y="-0.13428571"
       height="1.2685714"><feGaussianBlur
         stdDeviation="18.8"
         id="feGaussianBlur1531" /></filter><linearGradient
       id="linearGradient888"><stop
         style="stop-color:#99c1f1;stop-opacity:1"
         offset="0"
         id="stop884" /><stop
         style="stop-color:#c3e5e7;stop-opacity:1"
         offset="1"
         id="stop886" /></linearGradient><linearGradient
       xlink:href="#bg-gradient-2"
       id="linearGradient5836"
       gradientUnits="userSpaceOnUse"
       x1="64"
       y1="756"
       x2="480"
       y2="756" /><linearGradient
       xlink:href="#linearGradient888"
       id="linearGradient5838"
       gradientUnits="userSpaceOnUse"
       x1="152.89844"
       y1="-38.796875"
       x2="447.30859"
       y2="316" /></defs><linearGradient
     id="a"
     gradientUnits="userSpaceOnUse"
     x1="11.999989"
     x2="115.99999"
     y1="64"
     y2="64"><stop
       offset="0"
       stop-color="#3d3846"
       id="stop5214" /><stop
       offset="0.05"
       stop-color="#77767b"
       id="stop5216" /><stop
       offset="0.1"
       stop-color="#5e5c64"
       id="stop5218" /><stop
       offset="0.899999"
       stop-color="#504e56"
       id="stop5220" /><stop
       offset="0.95"
       stop-color="#77767b"
       id="stop5222" /><stop
       offset="1"
       stop-color="#3d3846"
       id="stop5224" /></linearGradient><linearGradient
     id="b"
     gradientUnits="userSpaceOnUse"
     x1="12"
     x2="112.04102"
     y1="60"
     y2="80.988281"><stop
       offset="0"
       stop-color="#77767b"
       id="stop5227" /><stop
       offset="0.384443"
       stop-color="#9a9996"
       id="stop5229" /><stop
       offset="0.720567"
       stop-color="#77767b"
       id="stop5231" /><stop
       offset="1"
       stop-color="#68666f"
       id="stop5233" /></linearGradient><g
     transform="matrix(0.2511615,0,0,0.2511615,-0.29292947,52.434794)"
     id="g5798"
     style="fill:#c9b8a7;fill-opacity:1;stroke:#a08f7f;stroke-opacity:1"><path
       id="path5786"
       d="m 88,-162 c 0,0 -40,0 -40,40 L 47.964844,6 h 0.0332 L 47.964844,254.0938 424,254 c 40,0 40,-40 40,-40 V 6 -42 -90 c 0,0 0,-40 -40,-40 H 224 l -32,-32 z"
       style="display:inline;opacity:0.2;fill:#000000;fill-opacity:1;stroke:none;stroke-width:26.0669;stroke-linecap:butt;stroke-linejoin:miter;stroke-miterlimit:4;stroke-dasharray:none;stroke-dashoffset:0;stroke-opacity:1;marker:none;marker-start:none;marker-mid:none;marker-end:none;paint-order:normal;filter:url(#filter1302);enable-background:new" /><path
       style="display:inline;opacity:1;fill:url(#linearGradient5836);fill-opacity:1;stroke:none;stroke-width:26.0669;stroke-linecap:butt;stroke-linejoin:miter;stroke-miterlimit:4;stroke-dasharray:none;stroke-dashoffset:0;stroke-opacity:1;marker:none;marker-start:none;marker-mid:none;marker-end:none;paint-order:normal;enable-background:new"
       d="M 208,672 H 104 c 0,0 -40,0 -40,40 v 128 h 416 v -96 c 0,0 0,-40 -40,-40 H 240 Z"
       transform="translate(-16,-836)"
       id="path5788" /><path
       id="path5790"
       d="m 256,-80 -32,32 H 88 c 0,0 -40,0 -40,40 v 264 h 376 c 40,0 40,-40 40,-40 V -40 c 0,-40 -40,-40 -40,-40 z"
       style="display:inline;opacity:0.1;fill:#000000;fill-opacity:1;stroke:none;stroke-width:26.0669;stroke-linecap:butt;stroke-linejoin:miter;stroke-miterlimit:4;stroke-dasharray:none;stroke-dashoffset:0;stroke-opacity:1;marker:none;marker-start:none;marker-mid:none;marker-end:none;paint-order:normal;filter:url(#filter1529);enable-background:new"
       clip-path="url(#clipPath1509)" /><path
       style="display:inline;opacity:1;fill:url(#linearGradient5838);fill-opacity:1;stroke:none;stroke-width:26.0669;stroke-linecap:butt;stroke-linejoin:miter;stroke-miterlimit:4;stroke-dasharray:none;stroke-dashoffset:0;stroke-opacity:1;marker:none;marker-start:none;marker-mid:none;marker-end:none;paint-order:normal;enable-background:new"
       d="m 256,-84 -32,32 H 88 c 0,0 -40,0 -40,40 v 264 h 376 c 40,0 40,-40 40,-40 V -44 c 0,-40 -40,-40 -40,-40 z"
       id="path5792" /><path
       style="font-variation-settings:normal;display:inline;opacity:1;fill:#99c1f1;fill-opacity:1;stroke:none;stroke-width:26.0669;stroke-linecap:butt;stroke-linejoin:miter;stroke-miterlimit:4;stroke-dasharray:none;stroke-dashoffset:0;stroke-opacity:1;marker:none;marker-start:none;marker-mid:none;marker-end:none;paint-order:normal;enable-background:new;stop-color:#000000;stop-opacity:1"
       d="m 480,1042 c 0,0 0,40 -40,40 l -375.998047,0.094 -0.0039,6 L 440,1088 c 40,0 40,-40 40,-40 z"
       transform="translate(-16,-836)"
       id="path5794" /><path
       style="display:inline;opacity:0.3;fill:#ffffff;fill-opacity:1;stroke:none;stroke-width:26.0669;stroke-linecap:butt;stroke-linejoin:miter;stroke-miterlimit:4;stroke-dasharray:none;stroke-dashoffset:0;stroke-opacity:1;marker:none;marker-start:none;marker-mid:none;marker-end:none;paint-order:normal;enable-background:new"
       d="m 272,752 -32,32 H 104 c 0,0 -40,0 -40,40 v 4 c 0,-40 40,-42 40,-42 h 136.59099 l 32,-32 H 440 c 5.38035,0 40,2 40,42 v -4 c 0,-40 -40,-40 -40,-40 z"
       id="path5796"
       transform="translate(-16,-836)" /></g><g
     id="g2247"
     transform="matrix(0.0548493,0,0,0.0548493,156.37065,111.45179)"
     style="display:inline;fill:#438de6;fill-opacity:1"><path
       d="m 100.24752,101.43938 c -2.653097,-1.43795 -5.555384,-2.374593 -8.2378,-3.752447 -1.612382,-1.376388 -1.714989,-3.723136 -4.294798,-3.781767 -1.509777,-1.150655 -4.793172,-0.398698 -4.749199,-2.799681 -1.124269,-0.873618 -3.09284,-1.304564 -4.412061,-2.169386 -3.107499,-1.656356 -6.156367,-3.444635 -8.985364,-5.54073 -0.507166,-2.990235 3.737795,-0.760751 5.335518,-0.241857 3.371344,1.222479 6.698714,2.623784 9.791555,4.456036 1.656355,-1.77362 3.048866,1.134531 4.71988,1.597724 1.199026,0.420685 2.184044,2.169385 3.561898,1.446745 2.345281,-0.517428 4.587957,1.074434 5.37949,3.239422 1.12427,2.521178 1.685671,5.232911 2.477201,7.856691 l -0.17297,-0.0866 z M 90.221442,93.421451 C 90.727143,92.13008 91.549458,91.222748 89.777304,90.665744 88.5431,90.063299 87.519969,88.92144 86.18609,88.584305 c -0.794464,-1.539091 -3.473949,3.561899 -1.175573,3.122157 1.612381,0.593651 3.884374,1.773621 5.218253,1.700331 z M 62.810955,92.065584 c -7.636827,-0.384039 -15.097756,-3.151472 -21.400702,-7.299691 3.825741,-1.84691 4.661248,-6.786661 3.386001,-10.495139 3.210105,1.744306 7.578193,0.177364 8.970705,-3.195447 0.989416,4.558643 6.625423,7.182427 10.729666,4.954409 4.133561,-1.890883 5.526073,-7.695458 2.741049,-11.257355 -2.535837,-3.708478 -8.428358,-4.148217 -11.491884,-0.85163 -1.26352,0.889741 -1.671012,4.177534 -2.447888,1.286973 -2.022806,-3.649845 -7.666142,-4.177534 -10.3339,-0.961565 -1.26352,0.785669 -2.301309,4.382747 -1.832251,3.98698 -2.418574,-1.03339 -0.470524,-3.561898 0.551141,-4.954408 1.037788,-0.599514 0.649349,-1.788279 0.753421,-2.770366 0.04895,-2.022806 0.09908,-4.045611 0.14615,-6.083075 1.37199,2.359939 3.180789,4.470694 5.394149,6.068417 2.14007,0.02814 4.236167,0.990882 5.672652,2.594468 1.583064,0.194953 2.477204,-2.301308 4.236166,-2.418572 3.136815,-1.270849 6.918583,-0.517428 9.38113,1.77362 6.772002,-1.398375 13.80785,-4.925093 16.856716,-11.447911 0.216939,-1.345604 1.861568,-3.98698 2.184045,-1.185832 0.949839,9.45442 1.229807,19.348579 -2.169387,28.436549 -0.776875,1.978831 -1.773619,3.89903 -3.019551,5.628678 -2.477204,-1.141861 -5.042357,-2.096098 -7.636825,-2.96092 -1.190231,-1.773619 -3.356686,-2.477204 -5.276886,-3.136814 1.949516,1.238601 2.711733,2.87297 0.08384,3.60587 -5.3062,2.623785 -11.50654,2.037464 -17.149876,0.979156 5.042357,1.685672 10.495139,3.386001 15.830656,2.21336 2.037464,-1.011402 3.459291,1.978832 5.3062,2.521178 1.008473,0.955704 4.895778,1.934858 1.84691,2.785024 -3.488607,1.758962 -7.460929,2.359939 -11.345303,2.21336 z m -25.065207,-8.26712 c -5.350175,-0.699187 -9.454418,-5.848547 -9.850185,-11.096116 -0.329805,-3.004894 1.714987,-6.449527 4.983724,-6.478843 4.939752,-0.133674 9.029339,4.074928 10.407191,8.56028 1.07883,3.107499 0.432411,7.504904 -3.063525,8.721519 -0.797395,0.285832 -1.656355,0.341532 -2.491862,0.294625 z M 32.93792,74.842418 c 3.429976,-0.574595 3.210105,-6.625422 -0.342998,-6.742687 -3.91369,0.150978 -3.635188,7.094479 0.342998,6.742687 z m 29.609189,-0.880946 c -1.920199,-0.18176 -3.503266,-2.081439 -3.195447,-4.016297 1.260589,2.447889 5.335517,0.916126 4.675907,-1.744303 -0.253584,-0.963032 -1.568408,-1.964175 0.249187,-1.207821 2.594468,0.857493 3.151472,4.734538 0.853096,6.258971 -0.7329,0.558472 -1.671014,0.794465 -2.57981,0.703585 z M 48.988446,72.563095 c -1.641697,0.130023 -3.151473,-2.477203 -2.609126,-3.312709 1.714987,2.711732 5.643336,-0.839905 3.195447,-2.858314 2.87297,0.01744 3.972322,4.221509 1.509775,5.657994 -0.605376,0.420685 -1.366127,0.567266 -2.096096,0.499839 z"
       stroke-width="0.0240392"
       id="path1-5"
       transform="matrix(18.231773,0,0,18.231773,-2850.9142,-2031.9638)" /></g></svg>
