<?xml version="1.0" encoding="UTF-8" standalone="no"?>
<svg
   height="128"
   viewBox="0 0 128 128"
   width="128"
   version="1.1"
   id="svg5248"
   xmlns:xlink="http://www.w3.org/1999/xlink"
   xmlns="http://www.w3.org/2000/svg"
   xmlns:svg="http://www.w3.org/2000/svg">
  <defs
     id="defs5252">
    <filter
       style="color-interpolation-filters:sRGB"
       id="filter1302"
       x="-0.012000846"
       width="1.0240017"
       y="-0.011999155"
       height="1.0239983">
      <feGaussianBlur
         stdDeviation="2.0803224"
         id="feGaussianBlur1304" />
    </filter>
    <linearGradient
       id="bg-gradient-2">
      <stop
         style="stop-color:#3584e4;stop-opacity:1"
         offset="0"
         id="stop13402" />
      <stop
         style="stop-color:#62a0ea;stop-opacity:1"
         offset="1"
         id="stop13404" />
    </linearGradient>
    <clipPath
       clipPathUnits="userSpaceOnUse"
       id="clipPath1509">
      <path
         id="path1511"
         d="M 192,-164 H 88 c 0,0 -40,0 -40,40 V 4 h 416 v -96 c 0,0 0,-40 -40,-40 H 224 Z"
         style="display:inline;opacity:1;vector-effect:none;fill:#c9b8a7;fill-opacity:1;stroke:none;stroke-width:26.0669;stroke-linecap:butt;stroke-linejoin:miter;stroke-miterlimit:4;stroke-dasharray:none;stroke-dashoffset:0;stroke-opacity:1;marker:none;marker-start:none;marker-mid:none;marker-end:none;paint-order:normal;enable-background:new" />
    </clipPath>
    <filter
       style="color-interpolation-filters:sRGB"
       id="filter1529"
       x="-0.10846153"
       width="1.2169231"
       y="-0.13428571"
       height="1.2685714">
      <feGaussianBlur
         stdDeviation="18.8"
         id="feGaussianBlur1531" />
    </filter>
    <linearGradient
       id="linearGradient888">
      <stop
         style="stop-color:#99c1f1;stop-opacity:1"
         offset="0"
         id="stop884" />
      <stop
         style="stop-color:#c3e5e7;stop-opacity:1"
         offset="1"
         id="stop886" />
    </linearGradient>
    <linearGradient
       xlink:href="#bg-gradient-2"
       id="linearGradient5836"
       gradientUnits="userSpaceOnUse"
       x1="64"
       y1="756"
       x2="480"
       y2="756"
       gradientTransform="matrix(0.2511615,0,0,0.2511615,-4.3115135,-157.53622)" />
    <linearGradient
       xlink:href="#linearGradient888"
       id="linearGradient5838"
       gradientUnits="userSpaceOnUse"
       x1="152.89844"
       y1="-38.796875"
       x2="447.30859"
       y2="316"
       gradientTransform="matrix(0.2511615,0,0,0.2511615,-0.29292947,52.434794)" />
  </defs>
  <linearGradient
     id="a"
     gradientUnits="userSpaceOnUse"
     x1="11.999989"
     x2="115.99999"
     y1="64"
     y2="64">
    <stop
       offset="0"
       stop-color="#3d3846"
       id="stop5214" />
    <stop
       offset="0.05"
       stop-color="#77767b"
       id="stop5216" />
    <stop
       offset="0.1"
       stop-color="#5e5c64"
       id="stop5218" />
    <stop
       offset="0.899999"
       stop-color="#504e56"
       id="stop5220" />
    <stop
       offset="0.95"
       stop-color="#77767b"
       id="stop5222" />
    <stop
       offset="1"
       stop-color="#3d3846"
       id="stop5224" />
  </linearGradient>
  <linearGradient
     id="b"
     gradientUnits="userSpaceOnUse"
     x1="12"
     x2="112.04102"
     y1="60"
     y2="80.988281">
    <stop
       offset="0"
       stop-color="#77767b"
       id="stop5227" />
    <stop
       offset="0.384443"
       stop-color="#9a9996"
       id="stop5229" />
    <stop
       offset="0.720567"
       stop-color="#77767b"
       id="stop5231" />
    <stop
       offset="1"
       stop-color="#68666f"
       id="stop5233" />
  </linearGradient>
  <path
     id="path5786"
     d="m 88,-162 c 0,0 -40,0 -40,40 L 47.964844,6 h 0.0332 L 47.964844,254.0938 424,254 c 40,0 40,-40 40,-40 V 6 -42 -90 c 0,0 0,-40 -40,-40 H 224 l -32,-32 z"
     style="display:inline;opacity:0.2;fill:#000000;fill-opacity:1;stroke:none;stroke-width:26.0669;stroke-linecap:butt;stroke-linejoin:miter;stroke-miterlimit:4;stroke-dasharray:none;stroke-dashoffset:0;stroke-opacity:1;marker:none;marker-start:none;marker-mid:none;marker-end:none;paint-order:normal;filter:url(#filter1302);enable-background:new"
     transform="matrix(0.2511615,0,0,0.2511615,-0.29292947,52.434794)" />
  <path
     style="display:inline;fill:url(#linearGradient5836);fill-opacity:1;stroke:none;stroke-width:6.547;stroke-linecap:butt;stroke-linejoin:miter;stroke-miterlimit:4;stroke-dasharray:none;stroke-dashoffset:0;stroke-opacity:1;marker:none;marker-start:none;marker-mid:none;marker-end:none;paint-order:normal;enable-background:new"
     d="M 47.930078,11.244308 H 21.809282 c 0,0 -10.04646,0 -10.04646,10.04646 V 53.43944 H 116.24601 V 29.327936 c 0,0 0,-10.04646 -10.04646,-10.04646 H 55.967247 Z"
     id="path5788" />
  <path
     id="path5790"
     d="m 256,-80 -32,32 H 88 c 0,0 -40,0 -40,40 v 264 h 376 c 40,0 40,-40 40,-40 V -40 c 0,-40 -40,-40 -40,-40 z"
     style="display:inline;opacity:0.1;fill:#000000;fill-opacity:1;stroke:none;stroke-width:26.0669;stroke-linecap:butt;stroke-linejoin:miter;stroke-miterlimit:4;stroke-dasharray:none;stroke-dashoffset:0;stroke-opacity:1;marker:none;marker-start:none;marker-mid:none;marker-end:none;paint-order:normal;filter:url(#filter1529);enable-background:new"
     clip-path="url(#clipPath1509)"
     transform="matrix(0.2511615,0,0,0.2511615,-0.29292947,52.434794)" />
  <path
     style="display:inline;fill:url(#linearGradient5838);fill-opacity:1;stroke:none;stroke-width:6.547;stroke-linecap:butt;stroke-linejoin:miter;stroke-miterlimit:4;stroke-dasharray:none;stroke-dashoffset:0;stroke-opacity:1;marker:none;marker-start:none;marker-mid:none;marker-end:none;paint-order:normal;enable-background:new"
     d="m 64.004415,31.337228 -8.037168,8.037168 H 21.809283 c 0,0 -10.04646,0 -10.04646,10.04646 v 66.306634 h 94.436727 c 10.04646,0 10.04646,-10.04646 10.04646,-10.04646 V 41.383688 c 0,-10.04646 -10.04646,-10.04646 -10.04646,-10.04646 z"
     id="path5792" />
  <path
     style="font-variation-settings:normal;display:inline;fill:#99c1f1;fill-opacity:1;stroke:none;stroke-width:6.547;stroke-linecap:butt;stroke-linejoin:miter;stroke-miterlimit:4;stroke-dasharray:none;stroke-dashoffset:0;stroke-opacity:1;marker:none;marker-start:none;marker-mid:none;marker-end:none;paint-order:normal;enable-background:new;stop-color:#000000"
     d="m 116.24601,104.17406 c 0,0 0,10.04646 -10.04646,10.04646 l -94.436237,0.0236 -9.8e-4,1.50697 94.437217,-0.0236 c 10.04646,0 10.04646,-10.04646 10.04646,-10.04646 z"
     id="path5794" />
  <path
     style="display:inline;opacity:0.3;fill:#ffffff;fill-opacity:1;stroke:none;stroke-width:6.547;stroke-linecap:butt;stroke-linejoin:miter;stroke-miterlimit:4;stroke-dasharray:none;stroke-dashoffset:0;stroke-opacity:1;marker:none;marker-start:none;marker-mid:none;marker-end:none;paint-order:normal;enable-background:new"
     d="m 64.004414,31.337228 -8.037167,8.037168 H 21.809282 c 0,0 -10.04646,0 -10.04646,10.04646 v 1.004646 c 0,-10.04646 10.04646,-10.548783 10.04646,-10.548783 H 56.11568 l 8.037168,-8.037168 h 42.046702 c 1.35133,0 10.04646,0.502323 10.04646,10.548783 v -1.004646 c 0,-10.04646 -10.04646,-10.04646 -10.04646,-10.04646 z"
     id="path5796" />
  <g
     id="surface105959-1"
     transform="matrix(3.4941816,0,0,3.4941816,134.02619,48.099307)"
     style="fill:#3f8ae5;fill-opacity:1;stroke:none;stroke-width:0.893536" />
  <path
     class="cls-1"
     d="m 88.314898,70.422838 -0.07071,-0.180694 -6.845037,-17.864163 a 1.783274,1.783274 0 0 0 -0.70441,-0.848432 1.8330276,1.8330276 0 0 0 -2.094895,0.112603 1.8330276,1.8330276 0 0 0 -0.607519,0.921751 l -4.62183,14.140499 H 54.655285 L 50.033424,52.563903 a 1.796367,1.796367 0 0 0 -0.607519,-0.924369 1.8330276,1.8330276 0 0 0 -2.094894,-0.112602 1.7989857,1.7989857 0 0 0 -0.70441,0.848431 l -6.85813,17.856304 -0.06809,0.180695 a 12.710736,12.710736 0 0 0 4.215956,14.690409 l 0.0224,0.01856 0.06272,0.04451 10.427306,7.8087 5.158664,3.904351 3.142325,2.372374 a 2.1132189,2.1132189 0 0 0 2.555766,0 l 3.142357,-2.372463 5.158664,-3.904348 10.49015,-7.855837 0.0256,-0.0208 A 12.715974,12.715974 0 0 0 88.313005,70.42312 Z"
     id="path1-6-6"
     style="fill:#438de6;fill-opacity:1;stroke-width:0.261861" />
</svg>
