<?xml version="1.0" encoding="UTF-8" standalone="no"?>
<svg
   height="128"
   viewBox="0 0 128 128"
   width="128"
   version="1.1"
   id="svg5248"
   xmlns:xlink="http://www.w3.org/1999/xlink"
   xmlns="http://www.w3.org/2000/svg"
   xmlns:svg="http://www.w3.org/2000/svg">
  <defs
     id="defs5252">
    <filter
       style="color-interpolation-filters:sRGB"
       id="filter1302"
       x="-0.012000846"
       width="1.0240017"
       y="-0.011999155"
       height="1.0239983">
      <feGaussianBlur
         stdDeviation="2.0803224"
         id="feGaussianBlur1304" />
    </filter>
    <linearGradient
       id="bg-gradient-2">
      <stop
         style="stop-color:#3584e4;stop-opacity:1"
         offset="0"
         id="stop13402" />
      <stop
         style="stop-color:#62a0ea;stop-opacity:1"
         offset="1"
         id="stop13404" />
    </linearGradient>
    <clipPath
       clipPathUnits="userSpaceOnUse"
       id="clipPath1509">
      <path
         id="path1511"
         d="M 192,-164 H 88 c 0,0 -40,0 -40,40 V 4 h 416 v -96 c 0,0 0,-40 -40,-40 H 224 Z"
         style="display:inline;opacity:1;vector-effect:none;fill:#c9b8a7;fill-opacity:1;stroke:none;stroke-width:26.0669;stroke-linecap:butt;stroke-linejoin:miter;stroke-miterlimit:4;stroke-dasharray:none;stroke-dashoffset:0;stroke-opacity:1;marker:none;marker-start:none;marker-mid:none;marker-end:none;paint-order:normal;enable-background:new" />
    </clipPath>
    <filter
       style="color-interpolation-filters:sRGB"
       id="filter1529"
       x="-0.10846153"
       width="1.2169231"
       y="-0.13428571"
       height="1.2685714">
      <feGaussianBlur
         stdDeviation="18.8"
         id="feGaussianBlur1531" />
    </filter>
    <linearGradient
       id="linearGradient888">
      <stop
         style="stop-color:#99c1f1;stop-opacity:1"
         offset="0"
         id="stop884" />
      <stop
         style="stop-color:#c3e5e7;stop-opacity:1"
         offset="1"
         id="stop886" />
    </linearGradient>
    <linearGradient
       xlink:href="#bg-gradient-2"
       id="linearGradient5836"
       gradientUnits="userSpaceOnUse"
       x1="64"
       y1="756"
       x2="480"
       y2="756" />
    <linearGradient
       xlink:href="#linearGradient888"
       id="linearGradient5838"
       gradientUnits="userSpaceOnUse"
       x1="152.89844"
       y1="-38.796875"
       x2="447.30859"
       y2="316" />
  </defs>
  <linearGradient
     id="a"
     gradientUnits="userSpaceOnUse"
     x1="11.999989"
     x2="115.99999"
     y1="64"
     y2="64">
    <stop
       offset="0"
       stop-color="#3d3846"
       id="stop5214" />
    <stop
       offset="0.05"
       stop-color="#77767b"
       id="stop5216" />
    <stop
       offset="0.1"
       stop-color="#5e5c64"
       id="stop5218" />
    <stop
       offset="0.899999"
       stop-color="#504e56"
       id="stop5220" />
    <stop
       offset="0.95"
       stop-color="#77767b"
       id="stop5222" />
    <stop
       offset="1"
       stop-color="#3d3846"
       id="stop5224" />
  </linearGradient>
  <linearGradient
     id="b"
     gradientUnits="userSpaceOnUse"
     x1="12"
     x2="112.04102"
     y1="60"
     y2="80.988281">
    <stop
       offset="0"
       stop-color="#77767b"
       id="stop5227" />
    <stop
       offset="0.384443"
       stop-color="#9a9996"
       id="stop5229" />
    <stop
       offset="0.720567"
       stop-color="#77767b"
       id="stop5231" />
    <stop
       offset="1"
       stop-color="#68666f"
       id="stop5233" />
  </linearGradient>
  <g
     transform="matrix(0.2511615,0,0,0.2511615,-0.29292947,52.434794)"
     id="g5798"
     style="fill:#c9b8a7;fill-opacity:1;stroke:#a08f7f;stroke-opacity:1">
    <path
       id="path5786"
       d="m 88,-162 c 0,0 -40,0 -40,40 L 47.964844,6 h 0.0332 L 47.964844,254.0938 424,254 c 40,0 40,-40 40,-40 V 6 -42 -90 c 0,0 0,-40 -40,-40 H 224 l -32,-32 z"
       style="display:inline;opacity:0.2;fill:#000000;fill-opacity:1;stroke:none;stroke-width:26.0669;stroke-linecap:butt;stroke-linejoin:miter;stroke-miterlimit:4;stroke-dasharray:none;stroke-dashoffset:0;stroke-opacity:1;marker:none;marker-start:none;marker-mid:none;marker-end:none;paint-order:normal;filter:url(#filter1302);enable-background:new" />
    <path
       style="display:inline;opacity:1;fill:url(#linearGradient5836);fill-opacity:1;stroke:none;stroke-width:26.0669;stroke-linecap:butt;stroke-linejoin:miter;stroke-miterlimit:4;stroke-dasharray:none;stroke-dashoffset:0;stroke-opacity:1;marker:none;marker-start:none;marker-mid:none;marker-end:none;paint-order:normal;enable-background:new"
       d="M 208,672 H 104 c 0,0 -40,0 -40,40 v 128 h 416 v -96 c 0,0 0,-40 -40,-40 H 240 Z"
       transform="translate(-16,-836)"
       id="path5788" />
    <path
       id="path5790"
       d="m 256,-80 -32,32 H 88 c 0,0 -40,0 -40,40 v 264 h 376 c 40,0 40,-40 40,-40 V -40 c 0,-40 -40,-40 -40,-40 z"
       style="display:inline;opacity:0.1;fill:#000000;fill-opacity:1;stroke:none;stroke-width:26.0669;stroke-linecap:butt;stroke-linejoin:miter;stroke-miterlimit:4;stroke-dasharray:none;stroke-dashoffset:0;stroke-opacity:1;marker:none;marker-start:none;marker-mid:none;marker-end:none;paint-order:normal;filter:url(#filter1529);enable-background:new"
       clip-path="url(#clipPath1509)" />
    <path
       style="display:inline;opacity:1;fill:url(#linearGradient5838);fill-opacity:1;stroke:none;stroke-width:26.0669;stroke-linecap:butt;stroke-linejoin:miter;stroke-miterlimit:4;stroke-dasharray:none;stroke-dashoffset:0;stroke-opacity:1;marker:none;marker-start:none;marker-mid:none;marker-end:none;paint-order:normal;enable-background:new"
       d="m 256,-84 -32,32 H 88 c 0,0 -40,0 -40,40 v 264 h 376 c 40,0 40,-40 40,-40 V -44 c 0,-40 -40,-40 -40,-40 z"
       id="path5792" />
    <path
       style="font-variation-settings:normal;display:inline;opacity:1;fill:#99c1f1;fill-opacity:1;stroke:none;stroke-width:26.0669;stroke-linecap:butt;stroke-linejoin:miter;stroke-miterlimit:4;stroke-dasharray:none;stroke-dashoffset:0;stroke-opacity:1;marker:none;marker-start:none;marker-mid:none;marker-end:none;paint-order:normal;enable-background:new;stop-color:#000000;stop-opacity:1"
       d="m 480,1042 c 0,0 0,40 -40,40 l -375.998047,0.094 -0.0039,6 L 440,1088 c 40,0 40,-40 40,-40 z"
       transform="translate(-16,-836)"
       id="path5794" />
    <path
       style="display:inline;opacity:0.3;fill:#ffffff;fill-opacity:1;stroke:none;stroke-width:26.0669;stroke-linecap:butt;stroke-linejoin:miter;stroke-miterlimit:4;stroke-dasharray:none;stroke-dashoffset:0;stroke-opacity:1;marker:none;marker-start:none;marker-mid:none;marker-end:none;paint-order:normal;enable-background:new"
       d="m 272,752 -32,32 H 104 c 0,0 -40,0 -40,40 v 4 c 0,-40 40,-42 40,-42 h 136.59099 l 32,-32 H 440 c 5.38035,0 40,2 40,42 v -4 c 0,-40 -40,-40 -40,-40 z"
       id="path5796"
       transform="translate(-16,-836)" />
  </g>
  <g
     id="surface105959-1"
     transform="matrix(3.4941816,0,0,3.4941816,134.02619,48.099307)"
     style="fill:#3f8ae5;fill-opacity:1;stroke:none;stroke-width:0.893536" />
  <path
     id="path5687"
     style="color:#000000;fill:#438de6;fill-opacity:1;stroke-width:0.457133;stroke-linejoin:round;-inkscape-stroke:none"
     d="m 46.823982,64.879066 a 1.3715385,1.3715385 0 0 0 -1.39818,0.943733 l -1.97854,6.086486 a 1.3715385,1.3715385 0 0 0 1.92765,1.645504 l 4.03205,-2.054424 a 1.3715385,1.3715385 0 0 0 0.59911,-1.844607 l -2.05443,-4.032062 a 1.3715385,1.3715385 0 0 0 -1.12766,-0.74463 z m -0.0911,3.327616 a 1.3714014,1.3714014 0 0 1 0.30088,0.06161 1.3714014,1.3714014 0 0 1 0.88124,1.727644 1.3714014,1.3714014 0 0 1 -1.72854,0.88034 1.3714014,1.3714014 0 0 1 -0.88033,-1.727643 1.3714014,1.3714014 0 0 1 1.42675,-0.941946 z m 7.8436,18.588916 a 1.3715385,1.3715385 0 0 0 -0.19464,0.01696 l -4.46956,0.708024 a 1.3715385,1.3715385 0 0 0 -0.59195,2.463345 l 5.17758,3.762423 a 1.3715385,1.3715385 0 0 0 2.16066,-1.32408 l -0.70802,-4.46956 a 1.3715385,1.3715385 0 0 0 -1.37407,-1.15712 z m -1.3848,1.850857 a 1.3714014,1.3714014 0 0 1 0.86695,0.259816 1.3714014,1.3714014 0 0 1 0.30356,1.916032 1.3714014,1.3714014 0 0 1 -1.91514,0.303568 1.3714014,1.3714014 0 0 1 -0.30357,-1.916032 1.3714014,1.3714014 0 0 1 1.0482,-0.563384 z m 20.23263,-1.850857 a 1.3715385,1.3715385 0 0 0 -1.37319,1.15712 l -0.70802,4.469552 a 1.3715385,1.3715385 0 0 0 2.15978,1.324088 l 5.17757,-3.762423 a 1.3715385,1.3715385 0 0 0 -0.59106,-2.463353 l -4.46955,-0.708016 a 1.3715385,1.3715385 0 0 0 -0.19554,-0.01696 z m 1.38568,1.850857 a 1.3714014,1.3714014 0 0 1 1.0482,0.563384 1.3714014,1.3714014 0 0 1 -0.30357,1.916032 1.3714014,1.3714014 0 0 1 -1.91514,-0.303568 1.3714014,1.3714014 0 0 1 0.30267,-1.916032 1.3714014,1.3714014 0 0 1 0.86784,-0.259816 z m 6.36774,-23.767389 a 1.3715385,1.3715385 0 0 0 -1.12766,0.74463 l -2.05442,4.032062 a 1.3715385,1.3715385 0 0 0 0.59909,1.844607 l 4.03206,2.054424 a 1.3715385,1.3715385 0 0 0 1.92675,-1.645504 l -1.97764,-6.086486 a 1.3715385,1.3715385 0 0 0 -1.1964,-0.942838 1.3715385,1.3715385 0 0 0 -0.20178,-8.8e-4 z m 0.0902,3.327616 a 1.3714014,1.3714014 0 0 1 1.42765,0.941944 1.3714014,1.3714014 0 0 1 -0.88034,1.727644 1.3714014,1.3714014 0 0 1 -1.72853,-0.880339 1.3714014,1.3714014 0 0 1 0.88033,-1.727644 1.3714014,1.3714014 0 0 1 0.30089,-0.06161 z M 60.800502,54.651596 a 1.3715385,1.3715385 0 0 0 -0.96963,2.341022 l 3.19994,3.199937 a 1.3715385,1.3715385 0 0 0 1.93925,0 l 3.19993,-3.199937 a 1.3715385,1.3715385 0 0 0 -0.96962,-2.341022 z m 3.19993,0.91426 a 1.3714014,1.3714014 0 0 1 1.3714,1.371406 1.3714014,1.3714014 0 0 1 -1.3714,1.3714 1.3714014,1.3714014 0 0 1 -1.3714,-1.3714 1.3714014,1.3714014 0 0 1 1.3714,-1.371406 z m -4.4e-4,-2.02843 c -11.96779,0 -21.71385,9.746058 -21.71385,21.713852 0,11.967792 9.74606,21.713855 21.71385,21.713855 11.96779,0 21.71385,-9.746063 21.71385,-21.713855 0,-11.967794 -9.74606,-21.713852 -21.71385,-21.713852 z m 0,2.02138 a 1.3714014,1.3714014 0 0 1 1.37141,1.371406 1.3714014,1.3714014 0 0 1 -0.25357,0.756236 c 6.93903,0.431652 12.76834,4.85617 15.22827,11.012281 a 1.3714014,1.3714014 0 0 1 0.62053,-0.437492 1.3714014,1.3714014 0 0 1 1.72853,0.88034 1.3714014,1.3714014 0 0 1 -0.88034,1.728537 1.3714014,1.3714014 0 0 1 -0.75891,0.01065 c 0.35481,1.396613 0.54374,2.860995 0.54374,4.370449 0,5.433841 -2.44278,10.280683 -6.29363,13.505092 a 1.3714014,1.3714014 0 0 1 0.55178,0.446424 1.3714014,1.3714014 0 0 1 -0.30357,1.916032 1.3714014,1.3714014 0 0 1 -1.91514,-0.303568 1.3714014,1.3714014 0 0 1 -0.25356,-0.660696 c -2.71386,1.708695 -5.93101,2.696367 -9.38554,2.696367 -3.45638,0 -6.6752,-0.988648 -9.38999,-2.699047 a 1.3714014,1.3714014 0 0 1 -0.2482,0.663376 1.3714014,1.3714014 0 0 1 -1.91514,0.303568 1.3714014,1.3714014 0 0 1 -0.30357,-1.91604 1.3714014,1.3714014 0 0 1 0.55177,-0.446416 c -3.85114,-3.224417 -6.29451,-8.071005 -6.29451,-13.505092 0,-1.504685 0.18842,-2.963537 0.54105,-4.356165 a 1.3714014,1.3714014 0 0 1 -0.75533,-0.02501 1.3714014,1.3714014 0 0 1 -0.88034,-1.728536 1.3714014,1.3714014 0 0 1 1.72764,-0.880341 1.3714014,1.3714014 0 0 1 0.63035,0.426777 c 2.46285,-6.149676 8.28539,-10.570054 15.21934,-11.001557 a 1.3714014,1.3714014 0 0 1 -0.25447,-0.756233 1.3714014,1.3714014 0 0 1 1.3714,-1.371412 z m 19.9092,13.725915 a 0.68576925,0.68576925 0 0 0 -0.22517,0.652886 l 0.5351,2.690103 a 0.68576925,0.68576925 0 0 0 1.13321,0.3745 l 1.9742,-1.790963 a 0.68576925,0.68576925 0 0 0 -0.22957,-1.154151 l -2.5093,-0.899139 a 0.68576925,0.68576925 0 0 0 -0.67847,0.126764 z m 1.35625,1.573644 0.29301,0.104669 -0.23065,0.208829 z m -0.3738,1.635572 1.9742,-1.790962 -2.50929,-0.899139 z m -2.52902,-6.978661 a 0.68576925,0.68576925 0 0 0 -0.0935,0.68427 l 1.04962,2.534019 a 0.68576925,0.68576925 0 0 0 1.18449,0.14622 l 1.58687,-2.141697 a 0.68576925,0.68576925 0 0 0 -0.45032,-1.087186 l -2.6365,-0.392325 a 0.68576925,0.68576925 0 0 0 -0.64071,0.256693 z m 1.6372,1.278815 0.3078,0.04548 -0.18548,0.249814 z m -0.0475,1.677068 1.58687,-2.141698 -2.63649,-0.392322 z m -3.84191,-6.351179 a 0.68576925,0.68576925 0 0 0 0.0418,0.689355 l 1.52381,2.280558 a 0.68576925,0.68576925 0 0 0 1.19027,-0.08768 l 1.13856,-2.410129 a 0.68576925,0.68576925 0 0 0 -0.65378,-0.978442 l -2.66237,0.12957 a 0.68576925,0.68576925 0 0 0 -0.57832,0.376754 z m 1.85521,0.934839 0.31076,-0.01543 -0.13316,0.281199 z m 0.28057,1.654119 1.13855,-2.410129 -2.66236,0.129571 z m -5.00712,-5.479629 a 0.68576925,0.68576925 0 0 0 0.17551,0.667952 l 1.93945,1.939452 a 0.68576925,0.68576925 0 0 0 1.15028,-0.31819 l 0.64649,-2.585939 a 0.68576925,0.68576925 0 0 0 -0.83209,-0.832098 l -2.58594,0.646485 a 0.68576925,0.68576925 0 0 0 -0.4937,0.482338 z m 2.00196,0.554943 0.30177,-0.07577 -0.0758,0.301776 z m 0.59787,1.567601 0.64648,-2.585941 -2.58594,0.646484 z m -5.97995,-4.397497 a 0.68576925,0.68576925 0 0 0 0.30244,0.620876 l 2.28056,1.523819 a 0.68576925,0.68576925 0 0 0 1.06612,-0.536487 l 0.12956,-2.662377 a 0.68576925,0.68576925 0 0 0 -0.97844,-0.653769 l -2.41012,1.138552 a 0.68576925,0.68576925 0 0 0 -0.39012,0.569386 z m 2.07175,0.153718 0.2812,-0.133186 -0.0154,0.310757 z m 0.89221,1.420836 0.12957,-2.662373 -2.41013,1.138555 z m -6.72295,-3.146362 a 0.68576925,0.68576925 0 0 0 0.41776,0.549938 l 2.53402,1.049624 a 0.68576925,0.68576925 0 0 0 0.94096,-0.734162 l -0.39232,-2.636501 a 0.68576925,0.68576925 0 0 0 -1.08718,-0.450321 l -2.1417,1.586871 a 0.68576925,0.68576925 0 0 0 -0.27154,0.634551 z m 2.06193,-0.253421 0.24982,-0.185481 0.0454,0.307802 z m 1.15226,1.219479 -0.39232,-2.6365 -2.1417,1.58687 z m -7.20759,-1.774329 a 0.68576925,0.68576925 0 0 0 0.51702,0.457869 l 2.6901,0.535101 a 0.68576925,0.68576925 0 0 0 0.77966,-0.90364 l -0.89914,-2.509291 a 0.68576925,0.68576925 0 0 0 -1.15416,-0.229581 l -1.79096,1.974211 a 0.68576925,0.68576925 0 0 0 -0.14252,0.675331 z m 1.97288,-0.650809 0.20882,-0.230652 0.10467,0.29301 z m 1.36802,0.971249 -0.89914,-2.509301 -1.79096,1.974211 z m -7.41526,-0.3341 a 0.68576925,0.68576925 0 0 0 0.59642,0.348209 h 2.7428 a 0.68576925,0.68576925 0 0 0 0.58838,-1.03838 l -1.3714,-2.28567 a 0.68576925,0.68576925 0 0 0 -1.17676,0 l -1.3714,2.28567 a 0.68576925,0.68576925 0 0 0 -0.008,0.690171 z m 1.80801,-1.023191 0.15981,-0.266969 0.15982,0.266969 z m 1.53121,0.685701 -1.3714,-2.285671 -1.3714,2.285671 z m -7.33796,1.11895 a 0.68576925,0.68576925 0 0 0 0.65289,0.22517 l 2.6901,-0.535101 a 0.68576925,0.68576925 0 0 0 0.3745,-1.1332 l -1.79096,-1.974211 a 0.68576925,0.68576925 0 0 0 -1.15415,0.229581 l -0.89914,2.509291 a 0.68576925,0.68576925 0 0 0 0.12676,0.67847 z m 1.57365,-1.356251 0.10467,-0.29301 0.20883,0.230652 z m 1.63557,0.373801 -1.79096,-1.974211 -0.89914,2.509301 z m -6.97866,2.529022 a 0.68576925,0.68576925 0 0 0 0.68427,0.09347 l 2.53402,-1.04962 A 0.68576925,0.68576925 0 0 0 57.628532,54.748 l -2.14169,-1.586865 a 0.68576925,0.68576925 0 0 0 -1.08719,0.450321 l -0.39232,2.636501 a 0.68576925,0.68576925 0 0 0 0.25669,0.640698 z m 1.27881,-1.637201 0.0455,-0.307802 0.24982,0.185481 z m 1.67707,0.0475 -2.14169,-1.586872 -0.39233,2.636501 z m -6.35118,3.841902 a 0.68576925,0.68576925 0 0 0 0.68936,-0.04183 l 2.28055,-1.52382 a 0.68576925,0.68576925 0 0 0 -0.0877,-1.190263 l -2.41013,-1.138551 a 0.68576925,0.68576925 0 0 0 -0.97845,0.653771 l 0.12958,2.662374 a 0.68576925,0.68576925 0 0 0 0.37675,0.578315 z m 0.93484,-1.855225 -0.0154,-0.310758 0.28121,0.13317 z m 1.65412,-0.280562 -2.41013,-1.138556 0.12957,2.662377 z m -5.47962,5.007133 a 0.68576925,0.68576925 0 0 0 0.66795,-0.17551 l 1.93945,-1.939454 a 0.68576925,0.68576925 0 0 0 -0.3182,-1.150285 l -2.58593,-0.646486 a 0.68576925,0.68576925 0 0 0 -0.8321,0.832096 l 0.64648,2.58594 a 0.68576925,0.68576925 0 0 0 0.48235,0.493701 z m 0.55494,-2.001957 -0.0758,-0.301776 0.30178,0.07577 z m 1.5676,-0.59787 -2.58594,-0.646485 0.64648,2.585938 z m -4.39749,5.979943 a 0.68576925,0.68576925 0 0 0 0.62087,-0.302449 l 1.52381,-2.280558 a 0.68576925,0.68576925 0 0 0 -0.53649,-1.066109 l -2.66236,-0.12957 a 0.68576925,0.68576925 0 0 0 -0.65378,0.978442 l 1.13855,2.410127 a 0.68576925,0.68576925 0 0 0 0.5694,0.390117 z m 0.15371,-2.071754 -0.13319,-0.281198 0.31076,0.01543 z m 1.42084,-0.892209 -2.66238,-0.12957 1.13856,2.410127 z m -3.14637,6.72295 a 0.68576925,0.68576925 0 0 0 0.54994,-0.417763 l 1.04963,-2.53402 a 0.68576925,0.68576925 0 0 0 -0.73417,-0.94096 l -2.6365,0.392321 a 0.68576925,0.68576925 0 0 0 -0.45032,1.087186 l 1.58687,2.141697 a 0.68576925,0.68576925 0 0 0 0.63455,0.271539 z m -0.25342,-2.061932 -0.18548,-0.249815 0.3078,-0.04548 z m 1.21948,-1.152257 -2.63649,0.392322 1.58686,2.141697 z m -1.77432,7.207595 a 0.68576925,0.68576925 0 0 0 0.45786,-0.517024 l 0.5351,-2.690102 a 0.68576925,0.68576925 0 0 0 -0.90364,-0.779651 l -2.50929,0.899138 a 0.68576925,0.68576925 0 0 0 -0.22958,1.154148 l 1.9742,1.79096 a 0.68576925,0.68576925 0 0 0 0.67535,0.14253 z m -0.65082,-1.972875 -0.23065,-0.208828 0.29301,-0.104669 z m 0.97126,-1.368024 -2.50931,0.899139 1.97421,1.790962 z m -0.33411,7.415258 a 0.68576925,0.68576925 0 0 0 0.34821,-0.596416 v -2.742804 a 0.68576925,0.68576925 0 0 0 -1.03838,-0.58838 l -2.28567,1.371401 a 0.68576925,0.68576925 0 0 0 0,1.176763 l 2.28567,1.371401 a 0.68576925,0.68576925 0 0 0 0.69017,0.0079 z m -1.0232,-1.807998 -0.26695,-0.159819 0.26695,-0.159819 z m 0.68571,-1.531222 -2.28568,1.371403 2.28568,1.371401 z m 1.11896,7.337959 a 0.68576925,0.68576925 0 0 0 0.22516,-0.652891 l -0.5351,-2.6901 a 0.68576925,0.68576925 0 0 0 -1.13321,-0.374499 l -1.9742,1.790962 a 0.68576925,0.68576925 0 0 0 0.22958,1.154151 l 2.50929,0.899137 a 0.68576925,0.68576925 0 0 0 0.67848,-0.12676 z m -1.35626,-1.573647 -0.29302,-0.10467 0.23066,-0.208829 z m 0.3738,-1.63557 -1.97421,1.790961 2.5093,0.89914 z m 2.52902,6.978664 a 0.68576925,0.68576925 0 0 0 0.0935,-0.684271 l -1.04963,-2.534024 a 0.68576925,0.68576925 0 0 0 -1.1845,-0.146216 l -1.58686,2.141696 a 0.68576925,0.68576925 0 0 0 0.45032,1.087183 l 2.6365,0.392328 a 0.68576925,0.68576925 0 0 0 0.6407,-0.256696 z m -1.6372,-1.278815 -0.3078,-0.04552 0.18548,-0.249816 z m 0.0475,-1.677072 -1.58687,2.141696 2.6365,0.392328 z m 3.8419,6.351175 a 0.68576925,0.68576925 0 0 0 -0.0418,-0.689352 l -1.52382,-2.28056 a 0.68576925,0.68576925 0 0 0 -1.19026,0.08767 l -1.13855,2.410128 a 0.68576925,0.68576925 0 0 0 0.65377,0.978441 l 2.66237,-0.129568 a 0.68576925,0.68576925 0 0 0 0.57831,-0.376753 z m -1.85522,-0.93484 -0.31076,0.01544 0.13317,-0.2812 z m -0.28056,-1.654112 -1.13856,2.410128 2.66238,-0.129576 z m 5.00713,5.479625 a 0.68576925,0.68576925 0 0 0 -0.17551,-0.667952 l -1.93946,-1.939456 a 0.68576925,0.68576925 0 0 0 -1.15029,0.318192 l -0.64648,2.585944 a 0.68576925,0.68576925 0 0 0 0.83209,0.832095 l 2.58595,-0.646488 a 0.68576925,0.68576925 0 0 0 0.4937,-0.482335 z m -2.00196,-0.554944 -0.30178,0.07576 0.0758,-0.301776 z m -0.59787,-1.567592 -0.64649,2.585935 2.58594,-0.646487 z m 5.97995,4.397487 a 0.68576925,0.68576925 0 0 0 -0.30246,-0.62088 l -2.28056,-1.523815 a 0.68576925,0.68576925 0 0 0 -1.06611,0.536479 l -0.12957,2.662376 a 0.68576925,0.68576925 0 0 0 0.97844,0.653776 l 2.41013,-1.138552 a 0.68576925,0.68576925 0 0 0 0.39012,-0.569392 z m -2.07176,-0.153712 -0.2812,0.133168 0.0154,-0.31076 z m -0.89221,-1.42084 -0.12957,2.662376 2.41013,-1.13856 z m 6.72294,3.146368 a 0.68576925,0.68576925 0 0 0 -0.41776,-0.549944 l -2.53401,-1.04962 a 0.68576925,0.68576925 0 0 0 -0.94096,0.734168 l 0.39232,2.636495 a 0.68576925,0.68576925 0 0 0 1.08718,0.450328 l 2.1417,-1.586871 a 0.68576925,0.68576925 0 0 0 0.27153,-0.634552 z m -2.06192,0.253416 -0.24982,0.18548 -0.0454,-0.3078 z m -1.15226,-1.21948 0.39232,2.636495 2.1417,-1.586871 z m 7.2076,1.774328 a 0.68576925,0.68576925 0 0 0 -0.51702,-0.457872 l -2.69011,-0.535096 a 0.68576925,0.68576925 0 0 0 -0.77965,0.903632 l 0.89914,2.509308 a 0.68576925,0.68576925 0 0 0 1.15415,0.22957 l 1.79096,-1.974207 a 0.68576925,0.68576925 0 0 0 0.14254,-0.675335 z m -1.97287,0.650815 -0.20883,0.230648 -0.10468,-0.293008 z m -1.36803,-0.971255 0.89914,2.509312 1.79096,-1.974217 z m 7.41526,0.334112 a 0.68576925,0.68576925 0 0 0 -0.59643,-0.348208 h -2.74279 a 0.68576925,0.68576925 0 0 0 -0.58839,1.038367 l 1.3714,2.285671 a 0.68576925,0.68576925 0 0 0 1.17677,0 l 1.3714,-2.285671 a 0.68576925,0.68576925 0 0 0 0.008,-0.690159 z m -1.80801,1.023191 -0.15981,0.26696 -0.15982,-0.26696 z m -1.53121,-0.685704 1.3714,2.285663 1.37139,-2.285663 z m 7.33795,-1.118959 a 0.68576925,0.68576925 0 0 0 -0.65289,-0.225168 l -2.69011,0.535096 a 0.68576925,0.68576925 0 0 0 -0.37449,1.133199 l 1.79096,1.974215 a 0.68576925,0.68576925 0 0 0 1.15415,-0.22958 l 0.89914,-2.509298 a 0.68576925,0.68576925 0 0 0 -0.12677,-0.67844 z m -1.57364,1.356255 -0.10468,0.293008 -0.20883,-0.230648 z m -1.63558,-0.3738 1.79097,1.974217 0.89913,-2.509312 z m 6.97867,-2.529023 a 0.68576925,0.68576925 0 0 0 -0.68427,-0.09346 l -2.53402,1.049624 a 0.68576925,0.68576925 0 0 0 -0.14622,1.184496 l 2.1417,1.586871 a 0.68576925,0.68576925 0 0 0 1.08718,-0.450328 l 0.39232,-2.636495 a 0.68576925,0.68576925 0 0 0 -0.2567,-0.640704 z m -1.27881,1.6372 -0.0454,0.3078 -0.24982,-0.18548 z m -1.67707,-0.04752 2.14169,1.586871 0.39233,-2.636495 z m 6.35117,-3.841895 a 0.68576925,0.68576925 0 0 0 -0.68935,0.04184 l -2.28056,1.523815 a 0.68576925,0.68576925 0 0 0 0.0877,1.190264 l 2.41012,1.13856 a 0.68576925,0.68576925 0 0 0 0.97844,-0.653776 l -0.12956,-2.662376 a 0.68576925,0.68576925 0 0 0 -0.37676,-0.578311 z m -0.93483,1.855223 0.0154,0.31076 -0.2812,-0.133184 z m -1.65412,0.28056 2.41012,1.13856 -0.12957,-2.662384 z m 5.47963,-5.007136 a 0.68576925,0.68576925 0 0 0 -0.66795,0.175513 l -1.93946,1.939456 a 0.68576925,0.68576925 0 0 0 0.31819,1.150287 l 2.58594,0.646488 a 0.68576925,0.68576925 0 0 0 0.8321,-0.832103 l -0.64649,-2.585936 a 0.68576925,0.68576925 0 0 0 -0.48234,-0.493705 z m -0.55495,2.001961 0.0758,0.301776 -0.30177,-0.07576 z m -1.5676,0.597872 2.58594,0.646479 -0.64648,-2.585935 z m 4.39749,-5.979945 a 0.68576925,0.68576925 0 0 0 -0.62088,0.302448 l -1.52381,2.28056 a 0.68576925,0.68576925 0 0 0 0.53648,1.066105 l 2.66237,0.129576 a 0.68576925,0.68576925 0 0 0 0.65378,-0.978449 l -1.13856,-2.410128 a 0.68576925,0.68576925 0 0 0 -0.56938,-0.390112 z m -0.15372,2.071752 0.13318,0.2812 -0.31076,-0.01544 z m -1.42083,0.892208 2.66237,0.129568 -1.13856,-2.410128 z m 3.14636,-6.722951 a 0.68576925,0.68576925 0 0 0 -0.54994,0.417768 l -1.04963,2.534016 a 0.68576925,0.68576925 0 0 0 0.73417,0.940959 l 2.6365,-0.39232 a 0.68576925,0.68576925 0 0 0 0.45032,-1.087183 l -1.58687,-2.141696 a 0.68576925,0.68576925 0 0 0 -0.63455,-0.271544 z m 0.25342,2.061936 0.18547,0.249816 -0.3078,0.04544 z m -1.21948,1.152256 2.63649,-0.39232 -1.58686,-2.141704 z m 1.77433,-7.207597 a 0.68576925,0.68576925 0 0 0 -0.45787,0.517025 l -0.5351,2.690103 a 0.68576925,0.68576925 0 0 0 0.90363,0.779653 l 2.50931,-0.89914 a 0.68576925,0.68576925 0 0 0 0.22957,-1.154152 l -1.9742,-1.790962 a 0.68576925,0.68576925 0 0 0 -0.67534,-0.14253 z m 0.65081,1.972875 0.23065,0.208829 -0.293,0.10467 z m -0.97125,1.368026 2.5093,-0.899139 -1.97421,-1.790963 z m 0.3341,-7.41526 a 0.68576925,0.68576925 0 0 0 -0.3482,0.596416 v 2.742805 a 0.68576925,0.68576925 0 0 0 1.03836,0.588381 l 2.28568,-1.371402 a 0.68576925,0.68576925 0 0 0 0,-1.176761 l -2.28568,-1.371402 a 0.68576925,0.68576925 0 0 0 -0.69016,-0.0079 z m 1.0232,1.808001 0.26696,0.159818 -0.26696,0.159819 z m 1.59996,0.159818 -2.28566,-1.371403 v 2.742789 z m -39.31351,-11.88546 a 0.22858975,0.22858975 0 0 0 -0.22857,0.228569 v 5.028469 a 0.22858975,0.22858975 0 0 0 0.22857,0.228569 h 4.34277 v 11.428344 h -6.62843 a 0.22858975,0.22858975 0 0 0 -0.22858,0.228566 v 5.028475 a 0.22858975,0.22858975 0 0 0 0.22858,0.22856 h 18.28534 a 0.22858975,0.22858975 0 0 0 0.22857,-0.22856 v -5.028475 a 0.22858975,0.22858975 0 0 0 -0.22857,-0.228566 h -3.88563 v -3.199938 h 4.34276 c 1.19132,0 1.8663,0.485074 2.34996,1.250868 0.48366,0.765797 0.74184,1.828725 0.96962,2.910656 0.22778,1.081936 0.42516,2.179856 0.84731,3.039224 0.42215,0.859375 1.12402,1.484791 2.23299,1.484791 h 11.42834 a 0.22858975,0.22858975 0 0 0 0.22857,-0.22856 v -8.685545 a 0.22858975,0.22858975 0 0 0 -0.22857,-0.228567 h -2.74279 a 0.22858975,0.22858975 0 0 0 -0.22857,0.228567 v 0.914268 c 0,0.871409 -0.24153,1.466768 -0.59107,1.854427 -0.34952,0.38766 -0.8155,0.57684 -1.30622,0.602666 -0.98145,0.05166 -2.0181,-0.571068 -2.22138,-1.587467 -0.23776,-1.188808 -0.82558,-2.243578 -1.41426,-3.00887 -0.29434,-0.382645 -0.58801,-0.692965 -0.84642,-0.913377 -0.0941,-0.08025 -0.17861,-0.134895 -0.26338,-0.191066 1.51587,-0.895307 2.52896,-1.969118 3.0044,-3.126723 0.51594,-1.256176 0.47026,-2.577152 0.0241,-3.76689 -0.8923,-2.379479 -3.36977,-4.262415 -6.21416,-4.262415 z m 12.11405,5.485607 h 5.71417 c 0.87617,0 1.51212,0.219602 1.9205,0.525881 0.40837,0.306279 0.59373,0.693142 0.59373,1.074085 0,0.380944 -0.18536,0.767808 -0.59373,1.074086 -0.40838,0.30628 -1.04433,0.525884 -1.9205,0.525884 h -5.71417 z" />
</svg>
