<?xml version="1.0" encoding="UTF-8" standalone="no"?>
<svg
   height="128"
   viewBox="0 0 128 128"
   width="128"
   version="1.1"
   id="svg5248"
   xml:space="preserve"
   xmlns:xlink="http://www.w3.org/1999/xlink"
   xmlns="http://www.w3.org/2000/svg"
   xmlns:svg="http://www.w3.org/2000/svg"><defs
     id="defs5252"><filter
       style="color-interpolation-filters:sRGB"
       id="filter1302"
       x="-0.012000846"
       width="1.0240017"
       y="-0.011999155"
       height="1.0239983"><feGaussianBlur
         stdDeviation="2.0803224"
         id="feGaussianBlur1304" /></filter><linearGradient
       id="bg-gradient-2"><stop
         style="stop-color:#3584e4;stop-opacity:1"
         offset="0"
         id="stop13402" /><stop
         style="stop-color:#62a0ea;stop-opacity:1"
         offset="1"
         id="stop13404" /></linearGradient><clipPath
       clipPathUnits="userSpaceOnUse"
       id="clipPath1509"><path
         id="path1511"
         d="M 192,-164 H 88 c 0,0 -40,0 -40,40 V 4 h 416 v -96 c 0,0 0,-40 -40,-40 H 224 Z"
         style="display:inline;opacity:1;vector-effect:none;fill:#c9b8a7;fill-opacity:1;stroke:none;stroke-width:26.0669;stroke-linecap:butt;stroke-linejoin:miter;stroke-miterlimit:4;stroke-dasharray:none;stroke-dashoffset:0;stroke-opacity:1;marker:none;marker-start:none;marker-mid:none;marker-end:none;paint-order:normal;enable-background:new" /></clipPath><filter
       style="color-interpolation-filters:sRGB"
       id="filter1529"
       x="-0.10846153"
       width="1.2169231"
       y="-0.13428571"
       height="1.2685714"><feGaussianBlur
         stdDeviation="18.8"
         id="feGaussianBlur1531" /></filter><linearGradient
       id="linearGradient888"><stop
         style="stop-color:#99c1f1;stop-opacity:1"
         offset="0"
         id="stop884" /><stop
         style="stop-color:#c3e5e7;stop-opacity:1"
         offset="1"
         id="stop886" /></linearGradient><linearGradient
       xlink:href="#bg-gradient-2"
       id="linearGradient5836"
       gradientUnits="userSpaceOnUse"
       x1="64"
       y1="756"
       x2="480"
       y2="756" /><linearGradient
       xlink:href="#linearGradient888"
       id="linearGradient5838"
       gradientUnits="userSpaceOnUse"
       x1="152.89844"
       y1="-38.796875"
       x2="447.30859"
       y2="316" /></defs><linearGradient
     id="a"
     gradientUnits="userSpaceOnUse"
     x1="11.999989"
     x2="115.99999"
     y1="64"
     y2="64"><stop
       offset="0"
       stop-color="#3d3846"
       id="stop5214" /><stop
       offset="0.05"
       stop-color="#77767b"
       id="stop5216" /><stop
       offset="0.1"
       stop-color="#5e5c64"
       id="stop5218" /><stop
       offset="0.899999"
       stop-color="#504e56"
       id="stop5220" /><stop
       offset="0.95"
       stop-color="#77767b"
       id="stop5222" /><stop
       offset="1"
       stop-color="#3d3846"
       id="stop5224" /></linearGradient><linearGradient
     id="b"
     gradientUnits="userSpaceOnUse"
     x1="12"
     x2="112.04102"
     y1="60"
     y2="80.988281"><stop
       offset="0"
       stop-color="#77767b"
       id="stop5227" /><stop
       offset="0.384443"
       stop-color="#9a9996"
       id="stop5229" /><stop
       offset="0.720567"
       stop-color="#77767b"
       id="stop5231" /><stop
       offset="1"
       stop-color="#68666f"
       id="stop5233" /></linearGradient><g
     transform="matrix(0.2511615,0,0,0.2511615,-0.29292947,52.434794)"
     id="g5798"
     style="fill:#c9b8a7;fill-opacity:1;stroke:#a08f7f;stroke-opacity:1"><path
       id="path5786"
       d="m 88,-162 c 0,0 -40,0 -40,40 L 47.964844,6 h 0.0332 L 47.964844,254.0938 424,254 c 40,0 40,-40 40,-40 V 6 -42 -90 c 0,0 0,-40 -40,-40 H 224 l -32,-32 z"
       style="display:inline;opacity:0.2;fill:#000000;fill-opacity:1;stroke:none;stroke-width:26.0669;stroke-linecap:butt;stroke-linejoin:miter;stroke-miterlimit:4;stroke-dasharray:none;stroke-dashoffset:0;stroke-opacity:1;marker:none;marker-start:none;marker-mid:none;marker-end:none;paint-order:normal;filter:url(#filter1302);enable-background:new" /><path
       style="display:inline;opacity:1;fill:url(#linearGradient5836);fill-opacity:1;stroke:none;stroke-width:26.0669;stroke-linecap:butt;stroke-linejoin:miter;stroke-miterlimit:4;stroke-dasharray:none;stroke-dashoffset:0;stroke-opacity:1;marker:none;marker-start:none;marker-mid:none;marker-end:none;paint-order:normal;enable-background:new"
       d="M 208,672 H 104 c 0,0 -40,0 -40,40 v 128 h 416 v -96 c 0,0 0,-40 -40,-40 H 240 Z"
       transform="translate(-16,-836)"
       id="path5788" /><path
       id="path5790"
       d="m 256,-80 -32,32 H 88 c 0,0 -40,0 -40,40 v 264 h 376 c 40,0 40,-40 40,-40 V -40 c 0,-40 -40,-40 -40,-40 z"
       style="display:inline;opacity:0.1;fill:#000000;fill-opacity:1;stroke:none;stroke-width:26.0669;stroke-linecap:butt;stroke-linejoin:miter;stroke-miterlimit:4;stroke-dasharray:none;stroke-dashoffset:0;stroke-opacity:1;marker:none;marker-start:none;marker-mid:none;marker-end:none;paint-order:normal;filter:url(#filter1529);enable-background:new"
       clip-path="url(#clipPath1509)" /><path
       style="display:inline;opacity:1;fill:url(#linearGradient5838);fill-opacity:1;stroke:none;stroke-width:26.0669;stroke-linecap:butt;stroke-linejoin:miter;stroke-miterlimit:4;stroke-dasharray:none;stroke-dashoffset:0;stroke-opacity:1;marker:none;marker-start:none;marker-mid:none;marker-end:none;paint-order:normal;enable-background:new"
       d="m 256,-84 -32,32 H 88 c 0,0 -40,0 -40,40 v 264 h 376 c 40,0 40,-40 40,-40 V -44 c 0,-40 -40,-40 -40,-40 z"
       id="path5792" /><path
       style="font-variation-settings:normal;display:inline;opacity:1;fill:#99c1f1;fill-opacity:1;stroke:none;stroke-width:26.0669;stroke-linecap:butt;stroke-linejoin:miter;stroke-miterlimit:4;stroke-dasharray:none;stroke-dashoffset:0;stroke-opacity:1;marker:none;marker-start:none;marker-mid:none;marker-end:none;paint-order:normal;enable-background:new;stop-color:#000000;stop-opacity:1"
       d="m 480,1042 c 0,0 0,40 -40,40 l -375.998047,0.094 -0.0039,6 L 440,1088 c 40,0 40,-40 40,-40 z"
       transform="translate(-16,-836)"
       id="path5794" /><path
       style="display:inline;opacity:0.3;fill:#ffffff;fill-opacity:1;stroke:none;stroke-width:26.0669;stroke-linecap:butt;stroke-linejoin:miter;stroke-miterlimit:4;stroke-dasharray:none;stroke-dashoffset:0;stroke-opacity:1;marker:none;marker-start:none;marker-mid:none;marker-end:none;paint-order:normal;enable-background:new"
       d="m 272,752 -32,32 H 104 c 0,0 -40,0 -40,40 v 4 c 0,-40 40,-42 40,-42 h 136.59099 l 32,-32 H 440 c 5.38035,0 40,2 40,42 v -4 c 0,-40 -40,-40 -40,-40 z"
       id="path5796"
       transform="translate(-16,-836)" /></g><g
     id="g2247"
     transform="matrix(0.0548493,0,0,0.0548493,156.37065,111.45179)"
     style="fill:#438de6;fill-opacity:1"><path
       fill-rule="evenodd"
       clip-rule="evenodd"
       d="m -1683.6158,-1148.2501 c -257.1545,0 -465.0389,209.41698 -465.0389,468.49434 0,207.0943 133.1987,382.39535 317.9806,444.43992 23.1025,4.66425 31.5649,-10.08062 31.5649,-22.48388 0,-10.86107 -0.7618,-48.08964 -0.7618,-86.87941 -129.3625,27.92861 -156.3012,-55.84768 -156.3012,-55.84768 -20.7894,-54.29611 -51.5927,-68.25091 -51.5927,-68.25091 -42.3403,-28.69962 3.0841,-28.69962 3.0841,-28.69962 46.9666,3.10316 71.6111,48.08975 71.6111,48.08975 41.5693,71.35405 108.5542,51.19292 135.5023,38.78022 3.8457,-30.25127 16.1727,-51.19293 29.2613,-62.82511 -103.1758,-10.86112 -211.73,-51.19292 -211.73,-231.14872 0,-51.19294 18.4668,-93.07632 47.728,-125.65017 -4.6166,-11.63217 -20.7893,-59.73143 4.6262,-124.10811 0,0 39.2657,-12.4127 127.8015,48.08976 a 447.10523,447.10523 0 0 1 116.2645,-15.51591 c 39.2657,0 79.2929,5.43533 116.255,15.51591 88.5453,-60.50246 127.8109,-48.08976 127.8109,-48.08976 25.4157,64.37668 9.2334,112.47594 4.6167,124.10811 30.0324,32.57385 47.7376,74.45723 47.7376,125.65017 0,179.9558 -108.5542,219.50706 -212.5011,231.14872 16.9437,14.73534 31.5649,42.65442 31.5649,86.86995 0,62.82509 -0.7614,113.24701 -0.7614,128.7534 0,12.41267 8.4718,27.15754 31.5648,22.50272 184.7819,-62.06353 317.9806,-237.35505 317.9806,-444.44935 0.7614,-259.07736 -207.8844,-468.49434 -464.2679,-468.49434 z"
       fill="#ffffff"
       id="path1"
       style="fill:#438de6;fill-opacity:1;stroke-width:9.51894" /></g></svg>
