<?xml version="1.0" encoding="UTF-8" standalone="no"?>
<svg
   height="128"
   viewBox="0 0 128 128"
   width="128"
   version="1.1"
   id="svg5248"
   xmlns:xlink="http://www.w3.org/1999/xlink"
   xmlns="http://www.w3.org/2000/svg"
   xmlns:svg="http://www.w3.org/2000/svg">
  <defs
     id="defs5252">
    <linearGradient
       xlink:href="#linearGradient2023"
       id="linearGradient2025"
       x1="2689.252"
       y1="-1106.803"
       x2="2918.0698"
       y2="-1106.803"
       gradientUnits="userSpaceOnUse" />
    <linearGradient
       id="linearGradient2023">
      <stop
         style="stop-color:#62a0ea;stop-opacity:1;"
         offset="0"
         id="stop2019" />
      <stop
         style="stop-color:#afd4ff;stop-opacity:1;"
         offset="0.05769911"
         id="stop2795" />
      <stop
         style="stop-color:#62a0ea;stop-opacity:1;"
         offset="0.12220427"
         id="stop2797" />
      <stop
         style="stop-color:#62a0ea;stop-opacity:1;"
         offset="0.87330586"
         id="stop2793" />
      <stop
         style="stop-color:#c0d5ea;stop-opacity:1;"
         offset="0.95599729"
         id="stop2791" />
      <stop
         style="stop-color:#62a0ea;stop-opacity:1;"
         offset="1"
         id="stop2021" />
    </linearGradient>
  </defs>
  <linearGradient
     id="a"
     gradientUnits="userSpaceOnUse"
     x1="11.999989"
     x2="115.99999"
     y1="64"
     y2="64">
    <stop
       offset="0"
       stop-color="#3d3846"
       id="stop5214" />
    <stop
       offset="0.05"
       stop-color="#77767b"
       id="stop5216" />
    <stop
       offset="0.1"
       stop-color="#5e5c64"
       id="stop5218" />
    <stop
       offset="0.899999"
       stop-color="#504e56"
       id="stop5220" />
    <stop
       offset="0.95"
       stop-color="#77767b"
       id="stop5222" />
    <stop
       offset="1"
       stop-color="#3d3846"
       id="stop5224" />
  </linearGradient>
  <linearGradient
     id="b"
     gradientUnits="userSpaceOnUse"
     x1="12"
     x2="112.04102"
     y1="60"
     y2="80.988281">
    <stop
       offset="0"
       stop-color="#77767b"
       id="stop5227" />
    <stop
       offset="0.384443"
       stop-color="#9a9996"
       id="stop5229" />
    <stop
       offset="0.720567"
       stop-color="#77767b"
       id="stop5231" />
    <stop
       offset="1"
       stop-color="#68666f"
       id="stop5233" />
  </linearGradient>
  <g
     id="g760"
     style="display:inline;stroke-width:1.26428;enable-background:new"
     transform="matrix(0.45451006,0,0,0.45552152,-1210.2921,615.1561)">
    <path
       id="rect1135"
       style="fill:#438de6;fill-opacity:1;stroke-width:8.79091;stroke-linecap:round;stop-color:#000000"
       d="m 2711.2064,-1326.3316 c -12.1618,0 -21.9544,9.791 -21.9544,21.9528 v 188.867 c 0,12.1618 9.7926,21.9528 21.9544,21.9528 h 184.9089 c 12.1619,0 21.9545,-9.791 21.9545,-21.9528 v -158.2547 a 26.343462,26.343462 45 0 0 -26.3435,-26.3435 h -101.2664 a 14.283764,14.283764 31.638659 0 1 -12.7581,-7.8607 l -3.3076,-6.5699 a 21.425501,21.425501 31.638659 0 0 -19.1371,-11.791 z" />
    <path
       id="path1953"
       style="fill:url(#linearGradient2025);fill-opacity:1;stroke-width:8.79091;stroke-linecap:round;stop-color:#000000"
       d="m 2808.014,-1273.6447 c -6.0429,0 -11.5016,2.4179 -15.4646,6.3426 -5.0031,4.9549 -11.8483,11.2197 -18.9936,11.2197 h -62.3494 c -12.1618,0 -21.9544,9.791 -21.9544,21.9528 v 118.6179 c 0,12.1618 9.7926,21.9528 21.9544,21.9528 h 184.9089 c 12.1619,0 21.9545,-9.791 21.9545,-21.9528 v -105.4461 -13.1718 -17.5623 c 0,-12.1618 -9.7926,-21.9528 -21.9545,-21.9528 z" />
    <path
       id="rect1586"
       style="fill:#a4caee;fill-opacity:1;stroke-width:8.79091;stroke-linecap:round;stop-color:#000000"
       d="m 2808.014,-1282.4259 c -6.0429,0 -11.5016,2.4179 -15.4646,6.3426 -5.0031,4.9549 -11.8483,11.2197 -18.9936,11.2197 h -62.3494 c -12.1618,0 -21.9544,9.791 -21.9544,21.9528 v 122.8867 c 0,12.1618 9.7926,21.9528 21.9544,21.9528 h 184.9089 c 12.1619,0 21.9545,-9.791 21.9545,-21.9528 v -109.7149 -13.1718 -17.5623 c 0,-12.1618 -9.7926,-21.9528 -21.9545,-21.9528 z" />
  </g>
  <path
     id="path7775"
     style="display:inline;fill:#438de6;fill-opacity:1;stroke-width:2.1285;enable-background:new"
     d="m 50.020586,57.509434 -2.020614,2.6947 7.102565,5.323636 c -0.403177,1.221682 -0.343408,2.595929 0.276211,3.837358 0.588292,1.16173 1.606355,2.055979 2.829517,2.489186 v 9.320473 c -0.19412,0.06776 -0.39206,0.144504 -0.580371,0.238397 -2.494884,1.245226 -3.507574,4.280438 -2.262299,6.775386 1.245238,2.494907 4.278862,3.507525 6.773743,2.262299 2.500787,-1.248199 3.509183,-4.27887 2.263943,-6.773743 -0.581512,-1.165106 -1.602062,-2.060527 -2.831162,-2.490831 l 0.0066,-9.322116 c 0.194124,-0.06776 0.391397,-0.144145 0.573796,-0.235108 0.188287,-0.09398 0.370457,-0.200555 0.540913,-0.31567 l 7.442896,5.589982 c -0.386214,1.243813 -0.282968,2.597 0.292652,3.765017 1.245239,2.494899 4.278792,3.509204 6.773743,2.263943 2.500779,-1.248164 3.509186,-4.278845 2.263942,-6.773743 -1.245276,-2.494957 -4.272962,-3.512107 -6.773742,-2.263942 -0.182455,0.09111 -0.361938,0.20299 -0.532692,0.317313 L 64.71733,68.621989 c 0.392051,-1.246733 0.283573,-2.597341 -0.300873,-3.768305 -1.245276,-2.494948 -4.274602,-3.512116 -6.775386,-2.263942 -0.167152,0.08343 -0.324815,0.17742 -0.478437,0.276211 z" />
</svg>
