<?xml version="1.0" encoding="UTF-8" standalone="no"?>
<svg
   height="128"
   viewBox="0 0 128 128"
   width="128"
   version="1.1"
   id="svg5248"
   xmlns:xlink="http://www.w3.org/1999/xlink"
   xmlns="http://www.w3.org/2000/svg"
   xmlns:svg="http://www.w3.org/2000/svg">
  <defs
     id="defs5252">
    <linearGradient
       xlink:href="#linearGradient2023"
       id="linearGradient2025"
       x1="2689.252"
       y1="-1106.803"
       x2="2918.0698"
       y2="-1106.803"
       gradientUnits="userSpaceOnUse" />
    <linearGradient
       id="linearGradient2023">
      <stop
         style="stop-color:#62a0ea;stop-opacity:1;"
         offset="0"
         id="stop2019" />
      <stop
         style="stop-color:#afd4ff;stop-opacity:1;"
         offset="0.05769911"
         id="stop2795" />
      <stop
         style="stop-color:#62a0ea;stop-opacity:1;"
         offset="0.12220427"
         id="stop2797" />
      <stop
         style="stop-color:#62a0ea;stop-opacity:1;"
         offset="0.87330586"
         id="stop2793" />
      <stop
         style="stop-color:#c0d5ea;stop-opacity:1;"
         offset="0.95599729"
         id="stop2791" />
      <stop
         style="stop-color:#62a0ea;stop-opacity:1;"
         offset="1"
         id="stop2021" />
    </linearGradient>
  </defs>
  <linearGradient
     id="a"
     gradientUnits="userSpaceOnUse"
     x1="11.999989"
     x2="115.99999"
     y1="64"
     y2="64">
    <stop
       offset="0"
       stop-color="#3d3846"
       id="stop5214" />
    <stop
       offset="0.05"
       stop-color="#77767b"
       id="stop5216" />
    <stop
       offset="0.1"
       stop-color="#5e5c64"
       id="stop5218" />
    <stop
       offset="0.899999"
       stop-color="#504e56"
       id="stop5220" />
    <stop
       offset="0.95"
       stop-color="#77767b"
       id="stop5222" />
    <stop
       offset="1"
       stop-color="#3d3846"
       id="stop5224" />
  </linearGradient>
  <linearGradient
     id="b"
     gradientUnits="userSpaceOnUse"
     x1="12"
     x2="112.04102"
     y1="60"
     y2="80.988281">
    <stop
       offset="0"
       stop-color="#77767b"
       id="stop5227" />
    <stop
       offset="0.384443"
       stop-color="#9a9996"
       id="stop5229" />
    <stop
       offset="0.720567"
       stop-color="#77767b"
       id="stop5231" />
    <stop
       offset="1"
       stop-color="#68666f"
       id="stop5233" />
  </linearGradient>
  <g
     id="g760"
     style="display:inline;stroke-width:1.26428;enable-background:new"
     transform="matrix(0.45451006,0,0,0.45552152,-1210.2921,616.15659)">
    <path
       id="rect1135"
       style="fill:#438de6;fill-opacity:1;stroke-width:8.79091;stroke-linecap:round;stop-color:#000000"
       d="m 2711.2064,-1326.3316 c -12.1618,0 -21.9544,9.791 -21.9544,21.9528 v 188.867 c 0,12.1618 9.7926,21.9528 21.9544,21.9528 h 184.9089 c 12.1619,0 21.9545,-9.791 21.9545,-21.9528 v -158.2547 a 26.343462,26.343462 45 0 0 -26.3435,-26.3435 h -101.2664 a 14.283764,14.283764 31.638659 0 1 -12.7581,-7.8607 l -3.3076,-6.5699 a 21.425501,21.425501 31.638659 0 0 -19.1371,-11.791 z" />
    <path
       id="path1953"
       style="fill:url(#linearGradient2025);fill-opacity:1;stroke-width:8.79091;stroke-linecap:round;stop-color:#000000"
       d="m 2808.014,-1273.6447 c -6.0429,0 -11.5016,2.4179 -15.4646,6.3426 -5.0031,4.9549 -11.8483,11.2197 -18.9936,11.2197 h -62.3494 c -12.1618,0 -21.9544,9.791 -21.9544,21.9528 v 118.6179 c 0,12.1618 9.7926,21.9528 21.9544,21.9528 h 184.9089 c 12.1619,0 21.9545,-9.791 21.9545,-21.9528 v -105.4461 -13.1718 -17.5623 c 0,-12.1618 -9.7926,-21.9528 -21.9545,-21.9528 z" />
    <path
       id="rect1586"
       style="fill:#a4caee;fill-opacity:1;stroke-width:8.79091;stroke-linecap:round;stop-color:#000000"
       d="m 2808.014,-1282.4259 c -6.0429,0 -11.5016,2.4179 -15.4646,6.3426 -5.0031,4.9549 -11.8483,11.2197 -18.9936,11.2197 h -62.3494 c -12.1618,0 -21.9544,9.791 -21.9544,21.9528 v 122.8867 c 0,12.1618 9.7926,21.9528 21.9544,21.9528 h 184.9089 c 12.1619,0 21.9545,-9.791 21.9545,-21.9528 v -109.7149 -13.1718 -17.5623 c 0,-12.1618 -9.7926,-21.9528 -21.9545,-21.9528 z" />
  </g>
  <path
     id="path5687"
     style="color:#000000;fill:#438de6;fill-opacity:1;stroke-width:0.304755;stroke-linejoin:round;-inkscape-stroke:none"
     d="m 52.549279,69.069177 a 0.91435917,0.91435917 0 0 0 -0.93212,0.629155 l -1.31902,4.057658 a 0.91435917,0.91435917 0 0 0 1.2851,1.097003 l 2.68803,-1.369616 a 0.91435917,0.91435917 0 0 0 0.39941,-1.229739 l -1.36962,-2.688041 a 0.91435917,0.91435917 0 0 0 -0.75178,-0.49642 z m -0.0607,2.218411 a 0.91426777,0.91426777 0 0 1 0.20059,0.04107 0.91426777,0.91426777 0 0 1 0.58749,1.151763 0.91426777,0.91426777 0 0 1 -1.15236,0.586893 0.91426777,0.91426777 0 0 1 -0.58689,-1.151762 0.91426777,0.91426777 0 0 1 0.95117,-0.627964 z m 5.22907,12.392613 a 0.91435917,0.91435917 0 0 0 -0.12976,0.01131 l -2.97971,0.472016 a 0.91435917,0.91435917 0 0 0 -0.39463,1.642231 l 3.45172,2.508282 a 0.91435917,0.91435917 0 0 0 1.44044,-0.88272 l -0.47201,-2.979707 a 0.91435917,0.91435917 0 0 0 -0.91605,-0.771414 z m -0.9232,1.233905 a 0.91426777,0.91426777 0 0 1 0.57797,0.17321 0.91426777,0.91426777 0 0 1 0.20237,1.277355 0.91426777,0.91426777 0 0 1 -1.27676,0.202379 0.91426777,0.91426777 0 0 1 -0.20238,-1.277355 0.91426777,0.91426777 0 0 1 0.6988,-0.375589 z m 13.48839,-1.233905 a 0.91435917,0.91435917 0 0 0 -0.91546,0.771413 l -0.47201,2.979702 a 0.91435917,0.91435917 0 0 0 1.43985,0.882725 l 3.45171,-2.508282 a 0.91435917,0.91435917 0 0 0 -0.39404,-1.642236 l -2.9797,-0.47201 a 0.91435917,0.91435917 0 0 0 -0.13036,-0.01131 z m 0.92379,1.233905 a 0.91426777,0.91426777 0 0 1 0.6988,0.375589 0.91426777,0.91426777 0 0 1 -0.20238,1.277355 0.91426777,0.91426777 0 0 1 -1.27676,-0.202379 0.91426777,0.91426777 0 0 1 0.20178,-1.277355 0.91426777,0.91426777 0 0 1 0.57856,-0.17321 z m 4.24516,-15.844929 a 0.91435917,0.91435917 0 0 0 -0.75177,0.49642 l -1.36962,2.688041 a 0.91435917,0.91435917 0 0 0 0.39939,1.229739 l 2.68805,1.369616 a 0.91435917,0.91435917 0 0 0 1.2845,-1.097003 l -1.31843,-4.057658 a 0.91435917,0.91435917 0 0 0 -0.7976,-0.628559 0.91435917,0.91435917 0 0 0 -0.13452,-5.86e-4 z m 0.0601,2.218411 a 0.91426777,0.91426777 0 0 1 0.95177,0.627962 0.91426777,0.91426777 0 0 1 -0.58689,1.151763 0.91426777,0.91426777 0 0 1 -1.15236,-0.586892 0.91426777,0.91426777 0 0 1 0.58689,-1.151763 0.91426777,0.91426777 0 0 1 0.20059,-0.04107 z m -13.64495,-9.036726 a 0.91435917,0.91435917 0 0 0 -0.64642,1.560682 l 2.13329,2.133291 a 0.91435917,0.91435917 0 0 0 1.29283,0 l 2.13329,-2.133291 a 0.91435917,0.91435917 0 0 0 -0.64641,-1.560682 z m 2.13328,0.609507 a 0.91426777,0.91426777 0 0 1 0.91427,0.914271 0.91426777,0.91426777 0 0 1 -0.91427,0.914266 0.91426777,0.91426777 0 0 1 -0.91426,-0.914266 0.91426777,0.91426777 0 0 1 0.91426,-0.914271 z m -2.9e-4,-1.352287 c -7.97853,0 -14.4759,6.497373 -14.4759,14.475904 0,7.978529 6.49737,14.475906 14.4759,14.475906 7.97853,0 14.4759,-6.497377 14.4759,-14.475906 0,-7.978531 -6.49737,-14.475904 -14.4759,-14.475904 z m 0,1.347587 a 0.91426777,0.91426777 0 0 1 0.91427,0.914271 0.91426777,0.91426777 0 0 1 -0.16904,0.504157 c 4.62602,0.287768 8.51222,3.237447 10.15218,7.341522 a 0.91426777,0.91426777 0 0 1 0.41369,-0.291661 0.91426777,0.91426777 0 0 1 1.15235,0.586893 0.91426777,0.91426777 0 0 1 -0.58689,1.152358 0.91426777,0.91426777 0 0 1 -0.50594,0.0071 c 0.23654,0.931076 0.36249,1.907331 0.36249,2.913634 0,3.622561 -1.62852,6.853789 -4.19576,9.003396 a 0.91426777,0.91426777 0 0 1 0.36786,0.297616 0.91426777,0.91426777 0 0 1 -0.20238,1.277355 0.91426777,0.91426777 0 0 1 -1.27676,-0.202379 0.91426777,0.91426777 0 0 1 -0.16904,-0.440464 c -1.80924,1.13913 -3.95401,1.797578 -6.25703,1.797578 -2.30425,0 -4.45013,-0.659098 -6.25999,-1.799365 a 0.91426777,0.91426777 0 0 1 -0.16547,0.442251 0.91426777,0.91426777 0 0 1 -1.27676,0.202379 0.91426777,0.91426777 0 0 1 -0.20238,-1.27736 0.91426777,0.91426777 0 0 1 0.36784,-0.297611 c -2.56742,-2.149612 -4.19634,-5.380671 -4.19634,-9.003396 0,-1.003124 0.12562,-1.975692 0.3607,-2.904111 a 0.91426777,0.91426777 0 0 1 -0.50355,-0.01667 0.91426777,0.91426777 0 0 1 -0.58689,-1.152358 0.91426777,0.91426777 0 0 1 1.15176,-0.586894 0.91426777,0.91426777 0 0 1 0.42023,0.284518 c 1.6419,-4.099785 5.5236,-7.046704 10.14623,-7.334373 a 0.91426777,0.91426777 0 0 1 -0.16965,-0.504155 0.91426777,0.91426777 0 0 1 0.91427,-0.914275 z m 13.2728,9.150611 a 0.45717959,0.45717959 0 0 0 -0.15011,0.435258 l 0.35673,1.793402 a 0.45717959,0.45717959 0 0 0 0.75548,0.249667 l 1.31613,-1.193976 a 0.45717959,0.45717959 0 0 0 -0.15305,-0.769434 l -1.67286,-0.599426 a 0.45717959,0.45717959 0 0 0 -0.45232,0.08451 z m 0.90417,1.049097 0.19534,0.06978 -0.15377,0.139219 z m -0.2492,1.090381 1.31613,-1.193975 -1.67286,-0.599426 z m -1.68601,-4.652441 a 0.45717959,0.45717959 0 0 0 -0.0623,0.45618 l 0.69975,1.689346 a 0.45717959,0.45717959 0 0 0 0.78966,0.09748 l 1.05791,-1.427798 a 0.45717959,0.45717959 0 0 0 -0.30021,-0.724791 l -1.75767,-0.26155 a 0.45717959,0.45717959 0 0 0 -0.42714,0.171129 z m 1.09146,0.852543 0.2052,0.03032 -0.12365,0.166543 z m -0.0317,1.118046 1.05791,-1.427799 -1.75766,-0.261548 z m -2.56128,-4.23412 a 0.45717959,0.45717959 0 0 0 0.0279,0.45957 l 1.01587,1.520372 a 0.45717959,0.45717959 0 0 0 0.79352,-0.05845 l 0.75904,-1.606753 a 0.45717959,0.45717959 0 0 0 -0.43586,-0.652295 l -1.77491,0.08638 a 0.45717959,0.45717959 0 0 0 -0.38555,0.251169 z m 1.23681,0.623226 0.20717,-0.01029 -0.0888,0.187466 z m 0.18705,1.102746 0.75903,-1.606753 -1.77491,0.08638 z m -3.33802,-3.653087 a 0.45717959,0.45717959 0 0 0 0.11701,0.445302 l 1.29297,1.292968 a 0.45717959,0.45717959 0 0 0 0.76685,-0.212127 l 0.431,-1.72396 a 0.45717959,0.45717959 0 0 0 -0.55473,-0.554732 l -1.72396,0.43099 a 0.45717959,0.45717959 0 0 0 -0.32914,0.321559 z m 1.33464,0.369962 0.20118,-0.05051 -0.0505,0.201184 z m 0.39858,1.045068 0.43099,-1.723961 -1.72396,0.430989 z m -3.98663,-2.931665 a 0.45717959,0.45717959 0 0 0 0.20163,0.413917 l 1.52037,1.01588 a 0.45717959,0.45717959 0 0 0 0.71075,-0.357659 l 0.0864,-1.774918 a 0.45717959,0.45717959 0 0 0 -0.65229,-0.435846 l -1.60675,0.759035 a 0.45717959,0.45717959 0 0 0 -0.26008,0.379591 z m 1.38117,0.102478 0.18746,-0.08879 -0.0103,0.207171 z m 0.5948,0.947224 0.0864,-1.774915 -1.60675,0.759037 z m -4.48196,-2.097575 a 0.45717959,0.45717959 0 0 0 0.2785,0.366626 l 1.68935,0.699749 a 0.45717959,0.45717959 0 0 0 0.62731,-0.489441 l -0.26155,-1.757668 a 0.45717959,0.45717959 0 0 0 -0.72479,-0.300214 l -1.4278,1.057914 a 0.45717959,0.45717959 0 0 0 -0.18102,0.423034 z m 1.37462,-0.168947 0.16654,-0.123654 0.0303,0.205201 z m 0.76817,0.812986 -0.26155,-1.757667 -1.4278,1.057914 z m -4.80506,-1.182886 a 0.45717959,0.45717959 0 0 0 0.34468,0.305246 l 1.7934,0.356734 a 0.45717959,0.45717959 0 0 0 0.51977,-0.602427 l -0.59942,-1.672861 a 0.45717959,0.45717959 0 0 0 -0.76944,-0.153054 l -1.19398,1.316141 a 0.45717959,0.45717959 0 0 0 -0.095,0.450221 z m 1.31525,-0.433873 0.13922,-0.153768 0.0698,0.19534 z m 0.91202,0.6475 -0.59943,-1.672868 -1.19397,1.316141 z m -4.94351,-0.222734 a 0.45717959,0.45717959 0 0 0 0.39761,0.23214 h 1.82854 a 0.45717959,0.45717959 0 0 0 0.39225,-0.692254 l -0.91427,-1.52378 a 0.45717959,0.45717959 0 0 0 -0.7845,0 l -0.91427,1.52378 a 0.45717959,0.45717959 0 0 0 -0.005,0.460114 z m 1.20534,-0.682127 0.10654,-0.17798 0.10655,0.17798 z m 1.02081,0.457134 -0.91427,-1.523781 -0.91427,1.523781 z m -4.89198,0.745967 a 0.45717959,0.45717959 0 0 0 0.43526,0.150113 l 1.7934,-0.356734 a 0.45717959,0.45717959 0 0 0 0.24967,-0.755467 l -1.19397,-1.316141 a 0.45717959,0.45717959 0 0 0 -0.76944,0.153054 l -0.59942,1.672861 a 0.45717959,0.45717959 0 0 0 0.0845,0.452314 z m 1.0491,-0.904168 0.0698,-0.19534 0.13922,0.153768 z m 1.09038,0.249201 -1.19397,-1.316141 -0.59943,1.672868 z m -4.65244,1.686015 a 0.45717959,0.45717959 0 0 0 0.45618,0.06231 l 1.68935,-0.699747 a 0.45717959,0.45717959 0 0 0 0.0975,-0.789666 l -1.42779,-1.05791 a 0.45717959,0.45717959 0 0 0 -0.7248,0.300214 l -0.26154,1.757668 a 0.45717959,0.45717959 0 0 0 0.17112,0.427132 z m 0.85254,-1.091468 0.0303,-0.205201 0.16654,0.123654 z m 1.11805,0.03167 -1.42779,-1.057915 -0.26156,1.757668 z m -4.23412,2.561269 a 0.45717959,0.45717959 0 0 0 0.45957,-0.02789 l 1.52037,-1.01588 a 0.45717959,0.45717959 0 0 0 -0.0585,-0.793509 l -1.60675,-0.759034 a 0.45717959,0.45717959 0 0 0 -0.6523,0.435847 l 0.0864,1.774916 a 0.45717959,0.45717959 0 0 0 0.25117,0.385544 z m 0.62322,-1.236817 -0.0103,-0.207172 0.18747,0.08878 z m 1.10275,-0.187042 -1.60675,-0.759037 0.0864,1.774918 z m -3.65308,3.33809 a 0.45717959,0.45717959 0 0 0 0.4453,-0.117007 l 1.29297,-1.29297 a 0.45717959,0.45717959 0 0 0 -0.21214,-0.766857 l -1.72395,-0.43099 a 0.45717959,0.45717959 0 0 0 -0.55473,0.55473 l 0.43098,1.723961 a 0.45717959,0.45717959 0 0 0 0.32157,0.329133 z m 0.36996,-1.334639 -0.0505,-0.201184 0.20118,0.05051 z m 1.04507,-0.39858 -1.72396,-0.43099 0.43098,1.723959 z m -2.93166,3.98663 a 0.45717959,0.45717959 0 0 0 0.41391,-0.201633 l 1.01587,-1.520372 a 0.45717959,0.45717959 0 0 0 -0.35766,-0.71074 l -1.7749,-0.08638 a 0.45717959,0.45717959 0 0 0 -0.43586,0.652295 l 0.75904,1.606752 a 0.45717959,0.45717959 0 0 0 0.3796,0.260078 z m 0.10247,-1.38117 -0.0888,-0.187465 0.20717,0.01029 z m 0.94723,-0.594806 -1.77492,-0.08638 0.75904,1.606752 z m -2.09758,4.481967 a 0.45717959,0.45717959 0 0 0 0.36662,-0.278508 l 0.69976,-1.689347 a 0.45717959,0.45717959 0 0 0 -0.48945,-0.627307 l -1.75767,0.261547 a 0.45717959,0.45717959 0 0 0 -0.30021,0.724791 l 1.05791,1.427798 a 0.45717959,0.45717959 0 0 0 0.42304,0.181026 z m -0.16895,-1.374621 -0.12365,-0.166544 0.2052,-0.03032 z m 0.81299,-0.768172 -1.75766,0.261548 1.0579,1.427799 z m -1.18288,4.805065 a 0.45717959,0.45717959 0 0 0 0.30524,-0.344683 l 0.35673,-1.793402 a 0.45717959,0.45717959 0 0 0 -0.60243,-0.519767 l -1.67286,0.599425 a 0.45717959,0.45717959 0 0 0 -0.15305,0.769432 l 1.31613,1.193974 a 0.45717959,0.45717959 0 0 0 0.45024,0.09502 z m -0.43388,-1.315251 -0.15377,-0.139218 0.19534,-0.06978 z m 0.6475,-0.912016 -1.67287,0.599426 1.31614,1.193975 z m -0.22274,4.943506 a 0.45717959,0.45717959 0 0 0 0.23214,-0.39761 v -1.828537 a 0.45717959,0.45717959 0 0 0 -0.69225,-0.392253 l -1.52378,0.914267 a 0.45717959,0.45717959 0 0 0 0,0.784509 l 1.52378,0.914268 a 0.45717959,0.45717959 0 0 0 0.46011,0.0053 z m -0.68213,-1.205332 -0.17797,-0.106546 0.17797,-0.106546 z m 0.45714,-1.020815 -1.52379,0.914269 1.52379,0.914268 z m 0.74597,4.891974 a 0.45717959,0.45717959 0 0 0 0.15011,-0.435261 l -0.35673,-1.7934 a 0.45717959,0.45717959 0 0 0 -0.75548,-0.249666 l -1.31613,1.193975 a 0.45717959,0.45717959 0 0 0 0.15305,0.769434 l 1.67286,0.599425 a 0.45717959,0.45717959 0 0 0 0.45232,-0.08451 z m -0.90417,-1.049098 -0.19535,-0.06978 0.15378,-0.13922 z m 0.2492,-1.09038 -1.31614,1.193974 1.67287,0.599427 z m 1.68601,4.652443 a 0.45717959,0.45717959 0 0 0 0.0623,-0.456181 l -0.69976,-1.689349 a 0.45717959,0.45717959 0 0 0 -0.78966,-0.09748 l -1.05791,1.427798 a 0.45717959,0.45717959 0 0 0 0.30021,0.724789 l 1.75767,0.261552 a 0.45717959,0.45717959 0 0 0 0.42713,-0.171131 z m -1.09146,-0.852543 -0.2052,-0.03035 0.12365,-0.166544 z m 0.0317,-1.118049 -1.05791,1.427798 1.75767,0.261552 z m 2.56127,4.234118 a 0.45717959,0.45717959 0 0 0 -0.0279,-0.459568 l -1.01588,-1.520374 a 0.45717959,0.45717959 0 0 0 -0.7935,0.05845 l -0.75904,1.606752 a 0.45717959,0.45717959 0 0 0 0.43585,0.652294 l 1.77491,-0.08638 a 0.45717959,0.45717959 0 0 0 0.38554,-0.251169 z m -1.23681,-0.623227 -0.20718,0.01029 0.0888,-0.187466 z m -0.18704,-1.102742 -0.75904,1.606753 1.77492,-0.08638 z m 3.33808,3.653085 a 0.45717959,0.45717959 0 0 0 -0.117,-0.445302 l -1.29298,-1.292971 a 0.45717959,0.45717959 0 0 0 -0.76686,0.212128 l -0.43098,1.723963 a 0.45717959,0.45717959 0 0 0 0.55472,0.55473 l 1.72397,-0.430992 a 0.45717959,0.45717959 0 0 0 0.32913,-0.321556 z m -1.33464,-0.369963 -0.20118,0.05051 0.0505,-0.201184 z m -0.39858,-1.045062 -0.43099,1.723957 1.72396,-0.430991 z m 3.98664,2.931659 a 0.45717959,0.45717959 0 0 0 -0.20164,-0.41392 l -1.52038,-1.015877 a 0.45717959,0.45717959 0 0 0 -0.71074,0.357653 l -0.0864,1.774917 a 0.45717959,0.45717959 0 0 0 0.6523,0.435851 l 1.60675,-0.759035 a 0.45717959,0.45717959 0 0 0 0.26008,-0.379595 z m -1.38118,-0.102475 -0.18746,0.08878 0.0103,-0.207174 z m -0.5948,-0.947227 -0.0864,1.774918 1.60675,-0.75904 z m 4.48196,2.097579 a 0.45717959,0.45717959 0 0 0 -0.27855,-0.366632 l -1.68934,-0.699747 a 0.45717959,0.45717959 0 0 0 -0.6273,0.489446 l 0.26154,1.757663 a 0.45717959,0.45717959 0 0 0 0.72479,0.300219 l 1.4278,-1.057914 a 0.45717959,0.45717959 0 0 0 0.18102,-0.423035 z m -1.37461,0.168944 -0.16655,0.123654 -0.0303,-0.2052 z m -0.76818,-0.812986 0.26155,1.757663 1.4278,-1.057914 z m 4.80507,1.182885 a 0.45717959,0.45717959 0 0 0 -0.34468,-0.305248 l -1.79341,-0.356731 a 0.45717959,0.45717959 0 0 0 -0.51976,0.602422 l 0.59942,1.672872 a 0.45717959,0.45717959 0 0 0 0.76944,0.153047 l 1.19397,-1.316138 a 0.45717959,0.45717959 0 0 0 0.095,-0.450224 z m -1.31525,0.433877 -0.13922,0.153765 -0.0698,-0.195339 z m -0.91202,-0.647504 0.59943,1.672875 1.19397,-1.316145 z m 4.94351,0.222742 a 0.45717959,0.45717959 0 0 0 -0.39762,-0.232139 h -1.82853 a 0.45717959,0.45717959 0 0 0 -0.39226,0.692245 l 0.91427,1.523781 a 0.45717959,0.45717959 0 0 0 0.78451,0 l 0.91427,-1.523781 a 0.45717959,0.45717959 0 0 0 0.005,-0.460106 z m -1.20534,0.682127 -0.10654,0.177974 -0.10655,-0.177974 z m -1.02081,-0.457136 0.91427,1.523776 0.91426,-1.523776 z m 4.89197,-0.745973 a 0.45717959,0.45717959 0 0 0 -0.43526,-0.150112 l -1.79341,0.356731 a 0.45717959,0.45717959 0 0 0 -0.24966,0.755466 l 1.19398,1.316144 a 0.45717959,0.45717959 0 0 0 0.76943,-0.153054 l 0.59943,-1.672865 a 0.45717959,0.45717959 0 0 0 -0.0845,-0.452294 z m -1.04909,0.90417 -0.0698,0.195339 -0.13922,-0.153765 z m -1.09039,-0.2492 1.19398,1.316145 0.59942,-1.672875 z m 4.65245,-1.686015 a 0.45717959,0.45717959 0 0 0 -0.45618,-0.06231 l -1.68935,0.69975 a 0.45717959,0.45717959 0 0 0 -0.0975,0.789664 l 1.4278,1.057914 a 0.45717959,0.45717959 0 0 0 0.72479,-0.300219 l 0.26154,-1.757663 a 0.45717959,0.45717959 0 0 0 -0.17113,-0.427137 z m -0.85254,1.091467 -0.0303,0.2052 -0.16655,-0.123654 z m -1.11805,-0.03168 1.42779,1.057914 0.26156,-1.757664 z m 4.23411,-2.561264 a 0.45717959,0.45717959 0 0 0 -0.45956,0.02789 l -1.52038,1.015877 a 0.45717959,0.45717959 0 0 0 0.0585,0.79351 l 1.60675,0.75904 a 0.45717959,0.45717959 0 0 0 0.65229,-0.435851 l -0.0864,-1.774918 a 0.45717959,0.45717959 0 0 0 -0.25118,-0.38554 z m -0.62322,1.236815 0.0103,0.207174 -0.18747,-0.08879 z m -1.10274,0.18704 1.60674,0.759041 -0.0864,-1.774923 z m 3.65309,-3.338091 a 0.45717959,0.45717959 0 0 0 -0.44531,0.117009 l -1.29297,1.292971 a 0.45717959,0.45717959 0 0 0 0.21213,0.766858 l 1.72396,0.430992 a 0.45717959,0.45717959 0 0 0 0.55473,-0.554735 l -0.43099,-1.723958 a 0.45717959,0.45717959 0 0 0 -0.32156,-0.329137 z m -0.36997,1.334641 0.0505,0.201184 -0.20118,-0.05051 z m -1.04507,0.398581 1.72396,0.430987 -0.43099,-1.723957 z m 2.93166,-3.98663 a 0.45717959,0.45717959 0 0 0 -0.41392,0.201632 l -1.01587,1.520373 a 0.45717959,0.45717959 0 0 0 0.35765,0.710737 l 1.77492,0.08638 a 0.45717959,0.45717959 0 0 0 0.43585,-0.652299 l -0.75904,-1.606753 a 0.45717959,0.45717959 0 0 0 -0.37959,-0.260074 z m -0.10248,1.381168 0.0888,0.187467 -0.20717,-0.01029 z m -0.94722,0.594805 1.77492,0.08638 -0.75904,-1.606752 z m 2.09758,-4.481968 a 0.45717959,0.45717959 0 0 0 -0.36663,0.278512 l -0.69975,1.689345 a 0.45717959,0.45717959 0 0 0 0.48944,0.627306 l 1.75767,-0.261547 a 0.45717959,0.45717959 0 0 0 0.30021,-0.724789 l -1.05795,-1.4278 a 0.45717959,0.45717959 0 0 0 -0.42303,-0.18103 z m 0.16894,1.374625 0.12365,0.166544 -0.2052,0.03029 z m -0.81298,0.76817 1.75766,-0.261546 -1.05791,-1.427803 z m 1.18288,-4.805065 a 0.45717959,0.45717959 0 0 0 -0.30524,0.344683 l -0.35674,1.793403 a 0.45717959,0.45717959 0 0 0 0.60242,0.519768 l 1.67288,-0.599426 a 0.45717959,0.45717959 0 0 0 0.15304,-0.769435 l -1.31613,-1.193975 a 0.45717959,0.45717959 0 0 0 -0.45023,-0.09502 z m 0.43388,1.31525 0.15376,0.139219 -0.19533,0.06978 z m -0.6475,0.912018 1.67286,-0.599427 -1.31614,-1.193975 z m 0.22273,-4.943508 a 0.45717959,0.45717959 0 0 0 -0.23213,0.397611 v 1.828537 a 0.45717959,0.45717959 0 0 0 0.69224,0.392254 l 1.52378,-0.914268 a 0.45717959,0.45717959 0 0 0 0,-0.784508 l -1.52378,-0.914268 a 0.45717959,0.45717959 0 0 0 -0.46011,-0.0053 z m 0.68213,1.205334 0.17798,0.106546 -0.17798,0.106546 z m 1.06664,0.106546 -1.52377,-0.914269 v 1.828526 z m -26.20905,-7.923645 a 0.1523932,0.1523932 0 0 0 -0.15238,0.152379 v 3.352314 a 0.1523932,0.1523932 0 0 0 0.15238,0.152379 h 2.89518 V 79.3363 h -4.41895 a 0.1523932,0.1523932 0 0 0 -0.15239,0.152378 v 3.352317 a 0.1523932,0.1523932 0 0 0 0.15239,0.152373 h 12.19023 a 0.1523932,0.1523932 0 0 0 0.15238,-0.152373 V 79.488678 A 0.1523932,0.1523932 0 0 0 63.999949,79.3363 h -2.59042 v -2.133292 h 2.89517 c 0.79421,0 1.2442,0.323383 1.56664,0.833912 0.32244,0.510532 0.49456,1.21915 0.64641,1.940438 0.15186,0.721291 0.28344,1.453238 0.56488,2.02615 0.28143,0.572916 0.74934,0.98986 1.48866,0.98986 h 7.61889 a 0.1523932,0.1523932 0 0 0 0.15238,-0.152373 v -5.790364 a 0.1523932,0.1523932 0 0 0 -0.15238,-0.152378 h -1.82853 a 0.1523932,0.1523932 0 0 0 -0.15238,0.152378 v 0.609512 c 0,0.580939 -0.16102,0.977845 -0.39404,1.236285 -0.23302,0.25844 -0.54367,0.38456 -0.87082,0.401777 -0.6543,0.03444 -1.3454,-0.380712 -1.48092,-1.058311 -0.1585,-0.792539 -0.55038,-1.495719 -0.94284,-2.005914 -0.19622,-0.255097 -0.392,-0.461977 -0.56428,-0.608918 -0.0627,-0.0535 -0.11907,-0.08993 -0.17558,-0.127378 1.01058,-0.596871 1.68597,-1.312745 2.00293,-2.084482 0.34396,-0.837451 0.31351,-1.718102 0.0161,-2.51126 -0.59487,-1.58632 -2.24652,-2.841611 -4.14278,-2.841611 z m 8.07604,3.657072 h 3.80944 c 0.58412,0 1.00808,0.146401 1.28034,0.350587 0.27224,0.204186 0.39582,0.462095 0.39582,0.716057 0,0.253963 -0.12358,0.511872 -0.39582,0.716058 -0.27226,0.204186 -0.69622,0.350589 -1.28034,0.350589 h -3.80944 z" />
</svg>
