<?xml version="1.0" encoding="UTF-8" standalone="no"?>
<svg
   height="128"
   viewBox="0 0 128 128"
   width="128"
   version="1.1"
   id="svg5248"
   xml:space="preserve"
   xmlns:xlink="http://www.w3.org/1999/xlink"
   xmlns="http://www.w3.org/2000/svg"
   xmlns:svg="http://www.w3.org/2000/svg"><defs
     id="defs5252"><linearGradient
       xlink:href="#linearGradient2023"
       id="linearGradient2025"
       x1="2689.252"
       y1="-1106.803"
       x2="2918.0698"
       y2="-1106.803"
       gradientUnits="userSpaceOnUse"
       gradientTransform="matrix(0.45451006,0,0,0.45552152,-1210.2921,616.15659)" /><linearGradient
       id="linearGradient2023"><stop
         style="stop-color:#62a0ea;stop-opacity:1;"
         offset="0"
         id="stop2019" /><stop
         style="stop-color:#afd4ff;stop-opacity:1;"
         offset="0.05769911"
         id="stop2795" /><stop
         style="stop-color:#62a0ea;stop-opacity:1;"
         offset="0.12220427"
         id="stop2797" /><stop
         style="stop-color:#62a0ea;stop-opacity:1;"
         offset="0.87330586"
         id="stop2793" /><stop
         style="stop-color:#c0d5ea;stop-opacity:1;"
         offset="0.95599729"
         id="stop2791" /><stop
         style="stop-color:#62a0ea;stop-opacity:1;"
         offset="1"
         id="stop2021" /></linearGradient></defs><linearGradient
     id="a"
     gradientUnits="userSpaceOnUse"
     x1="11.999989"
     x2="115.99999"
     y1="64"
     y2="64"><stop
       offset="0"
       stop-color="#3d3846"
       id="stop5214" /><stop
       offset="0.05"
       stop-color="#77767b"
       id="stop5216" /><stop
       offset="0.1"
       stop-color="#5e5c64"
       id="stop5218" /><stop
       offset="0.899999"
       stop-color="#504e56"
       id="stop5220" /><stop
       offset="0.95"
       stop-color="#77767b"
       id="stop5222" /><stop
       offset="1"
       stop-color="#3d3846"
       id="stop5224" /></linearGradient><linearGradient
     id="b"
     gradientUnits="userSpaceOnUse"
     x1="12"
     x2="112.04102"
     y1="60"
     y2="80.988281"><stop
       offset="0"
       stop-color="#77767b"
       id="stop5227" /><stop
       offset="0.384443"
       stop-color="#9a9996"
       id="stop5229" /><stop
       offset="0.720567"
       stop-color="#77767b"
       id="stop5231" /><stop
       offset="1"
       stop-color="#68666f"
       id="stop5233" /></linearGradient><path
     id="rect1135"
     style="fill:#438de6;fill-opacity:1;stroke-width:4;stroke-linecap:round;stop-color:#000000"
     d="m 21.978484,11.984004 c -5.527661,0 -9.978496,4.460011 -9.978496,9.999972 v 86.032984 c 0,5.53996 4.450835,9.99997 9.978496,9.99997 h 84.042956 c 5.5277,0 9.97854,-4.46001 9.97854,-9.99997 V 35.928538 A 11.973368,12.000014 0 0 0 104.02659,23.928507 H 57.999997 A 6.4921144,6.5065619 0 0 1 52.201312,20.347789 L 50.697974,17.355058 A 9.7381057,9.7597768 0 0 0 41.99997,11.984004 Z" /><path
     id="path1953"
     style="fill:url(#linearGradient2025);fill-opacity:1;stroke-width:4;stroke-linecap:round;stop-color:#000000"
     d="m 65.978512,35.98402 c -2.746559,0 -5.227593,1.101406 -7.028817,2.889191 -2.273959,2.257064 -5.385171,5.110815 -8.632782,5.110815 H 21.978484 c -5.527661,0 -9.978496,4.460011 -9.978496,9.999973 V 108.017 c 0,5.53997 4.450835,9.99998 9.978496,9.99998 h 84.042956 c 5.5277,0 9.97854,-4.46001 9.97854,-9.99998 V 59.984037 53.983999 45.983993 c 0,-5.539961 -4.45084,-9.999973 -9.97854,-9.999973 z" /><path
     id="rect1586"
     style="fill:#a4caee;fill-opacity:1;stroke-width:4;stroke-linecap:round;stop-color:#000000"
     d="m 65.978512,31.983995 c -2.746559,0 -5.227593,1.101405 -7.028817,2.889191 C 56.675736,37.130249 53.564524,39.984 50.316913,39.984 H 21.978484 c -5.527661,0 -9.978496,4.460012 -9.978496,9.999973 v 55.977537 c 0,5.53996 4.450835,9.99997 9.978496,9.99997 h 84.042956 c 5.5277,0 9.97854,-4.46001 9.97854,-9.99997 V 55.984012 49.983973 41.983968 c 0,-5.539962 -4.45084,-9.999973 -9.97854,-9.999973 z" /><path
     id="path3"
     style="clip-rule:evenodd;display:inline;fill:#438de6;fill-rule:evenodd"
     d="m 64.001953,59.984375 c -6.747922,0 -11.238984,6.570045 -4.957031,18.158203 2.118765,3.909626 -2.288663,4.833731 -6.75586,5.865234 -4.079551,0.941232 -4.232024,2.966543 -4.21875,6.509766 l 0.0059,1.328125 h 31.847656 l 0.0059,-1.287109 c 0.01593,-3.568448 -0.124595,-5.605567 -4.21875,-6.550782 -4.564188,-1.054071 -8.81223,-1.978176 -6.75586,-5.865234 6.264695,-11.8311 1.660716,-18.158203 -4.953125,-18.158203 z m -3.660156,21.894531 c -0.10551,0.153825 -0.223856,0.300807 -0.355469,0.441406 0.131613,-0.140599 0.249959,-0.287581 0.355469,-0.441406 z m 7.339844,0.02344 c 0.105895,0.155184 0.226895,0.302235 0.357421,0.443359 -0.130526,-0.141124 -0.251526,-0.288175 -0.357421,-0.443359 z" /></svg>
