<?xml version="1.0" encoding="UTF-8" standalone="no"?>
<svg
   height="128"
   viewBox="0 0 128 128"
   width="128"
   version="1.1"
   id="svg5248"
   xmlns:xlink="http://www.w3.org/1999/xlink"
   xmlns="http://www.w3.org/2000/svg"
   xmlns:svg="http://www.w3.org/2000/svg">
  <defs
     id="defs5252">
    <linearGradient
       xlink:href="#linearGradient2023"
       id="linearGradient2025"
       x1="2689.252"
       y1="-1106.803"
       x2="2918.0698"
       y2="-1106.803"
       gradientUnits="userSpaceOnUse" />
    <linearGradient
       id="linearGradient2023">
      <stop
         style="stop-color:#62a0ea;stop-opacity:1;"
         offset="0"
         id="stop2019" />
      <stop
         style="stop-color:#afd4ff;stop-opacity:1;"
         offset="0.05769911"
         id="stop2795" />
      <stop
         style="stop-color:#62a0ea;stop-opacity:1;"
         offset="0.12220427"
         id="stop2797" />
      <stop
         style="stop-color:#62a0ea;stop-opacity:1;"
         offset="0.87330586"
         id="stop2793" />
      <stop
         style="stop-color:#c0d5ea;stop-opacity:1;"
         offset="0.95599729"
         id="stop2791" />
      <stop
         style="stop-color:#62a0ea;stop-opacity:1;"
         offset="1"
         id="stop2021" />
    </linearGradient>
  </defs>
  <linearGradient
     id="a"
     gradientUnits="userSpaceOnUse"
     x1="11.999989"
     x2="115.99999"
     y1="64"
     y2="64">
    <stop
       offset="0"
       stop-color="#3d3846"
       id="stop5214" />
    <stop
       offset="0.05"
       stop-color="#77767b"
       id="stop5216" />
    <stop
       offset="0.1"
       stop-color="#5e5c64"
       id="stop5218" />
    <stop
       offset="0.899999"
       stop-color="#504e56"
       id="stop5220" />
    <stop
       offset="0.95"
       stop-color="#77767b"
       id="stop5222" />
    <stop
       offset="1"
       stop-color="#3d3846"
       id="stop5224" />
  </linearGradient>
  <linearGradient
     id="b"
     gradientUnits="userSpaceOnUse"
     x1="12"
     x2="112.04102"
     y1="60"
     y2="80.988281">
    <stop
       offset="0"
       stop-color="#77767b"
       id="stop5227" />
    <stop
       offset="0.384443"
       stop-color="#9a9996"
       id="stop5229" />
    <stop
       offset="0.720567"
       stop-color="#77767b"
       id="stop5231" />
    <stop
       offset="1"
       stop-color="#68666f"
       id="stop5233" />
  </linearGradient>
  <g
     id="g760"
     style="display:inline;stroke-width:1.26428;enable-background:new"
     transform="matrix(0.45451006,0,0,0.45552152,-1210.2921,616.15659)">
    <path
       id="rect1135"
       style="fill:#438de6;fill-opacity:1;stroke-width:8.79091;stroke-linecap:round;stop-color:#000000"
       d="m 2711.2064,-1326.3316 c -12.1618,0 -21.9544,9.791 -21.9544,21.9528 v 188.867 c 0,12.1618 9.7926,21.9528 21.9544,21.9528 h 184.9089 c 12.1619,0 21.9545,-9.791 21.9545,-21.9528 v -158.2547 a 26.343462,26.343462 45 0 0 -26.3435,-26.3435 h -101.2664 a 14.283764,14.283764 31.638659 0 1 -12.7581,-7.8607 l -3.3076,-6.5699 a 21.425501,21.425501 31.638659 0 0 -19.1371,-11.791 z" />
    <path
       id="path1953"
       style="fill:url(#linearGradient2025);fill-opacity:1;stroke-width:8.79091;stroke-linecap:round;stop-color:#000000"
       d="m 2808.014,-1273.6447 c -6.0429,0 -11.5016,2.4179 -15.4646,6.3426 -5.0031,4.9549 -11.8483,11.2197 -18.9936,11.2197 h -62.3494 c -12.1618,0 -21.9544,9.791 -21.9544,21.9528 v 118.6179 c 0,12.1618 9.7926,21.9528 21.9544,21.9528 h 184.9089 c 12.1619,0 21.9545,-9.791 21.9545,-21.9528 v -105.4461 -13.1718 -17.5623 c 0,-12.1618 -9.7926,-21.9528 -21.9545,-21.9528 z" />
    <path
       id="rect1586"
       style="fill:#a4caee;fill-opacity:1;stroke-width:8.79091;stroke-linecap:round;stop-color:#000000"
       d="m 2808.014,-1282.4259 c -6.0429,0 -11.5016,2.4179 -15.4646,6.3426 -5.0031,4.9549 -11.8483,11.2197 -18.9936,11.2197 h -62.3494 c -12.1618,0 -21.9544,9.791 -21.9544,21.9528 v 122.8867 c 0,12.1618 9.7926,21.9528 21.9544,21.9528 h 184.9089 c 12.1619,0 21.9545,-9.791 21.9545,-21.9528 v -109.7149 -13.1718 -17.5623 c 0,-12.1618 -9.7926,-21.9528 -21.9545,-21.9528 z" />
  </g>
  <path
     id="path2836"
     style="color:#000000;fill:#438de6;stroke:none;stroke-width:1.62025;stroke-miterlimit:10;-inkscape-stroke:none"
     d="m 64.513672,59.984861 c -8.816698,0 -16,7.181349 -16,15.998047 0,0.177322 0.01962,0.349435 0.02539,0.52539 -0.35641,0.274679 -0.67735,0.606152 -0.919921,1.013672 l -0.002,0.002 -0.002,0.0039 c -1.030083,1.77173 -0.453887,4.063719 1.292969,5.103515 l 0.0039,0.0039 0.0039,0.002 c 0.424815,0.246986 0.881549,0.388851 1.341796,0.457031 2.630867,5.243854 8.004791,8.890625 14.25586,8.890625 2.655646,0 5.124433,-0.715445 7.332031,-1.867187 0.423007,0.226598 0.895375,0.378991 1.402344,0.429687 l 0.0078,0.002 h 0.0078 c 2.048276,0.163865 3.854034,-1.346981 4.058594,-3.392578 v -0.0078 -0.0078 c 0.04143,-0.507466 -0.02144,-1.002633 -0.171875,-1.462891 2.07747,-2.699648 3.363278,-6.036473 3.363281,-9.695312 0,-1.329408 -0.211927,-2.59983 -0.519531,-3.835938 0.297618,-0.347631 0.547226,-0.747127 0.703125,-1.205078 0.661001,-1.941693 -0.383231,-4.072949 -2.326172,-4.734375 C 77.89408,66.045132 77.405126,65.99038 76.929688,66.02197 73.993671,62.371896 69.54737,59.984861 64.513672,59.984861 Z m 0,3.570313 c 3.812834,0 7.171264,1.736634 9.447266,4.421874 -0.105223,0.189792 -0.253909,0.344367 -0.326172,0.556641 -0.21782,0.639846 -0.194144,1.284381 -0.07031,1.90625 l -4.878906,4.052735 c -1.071091,-0.405369 -2.287701,-0.377129 -3.306641,0.289062 -0.639303,0.39859 -1.046684,0.990908 -1.332031,1.634766 l -10.175781,0.939453 c -0.291884,-0.4357 -0.657795,-0.825547 -1.128906,-1.117188 l -0.0098,-0.0059 -0.0098,-0.0059 c -0.201264,-0.117013 -0.422662,-0.142584 -0.634765,-0.21875 -1.8e-5,-0.0087 -0.0039,-0.01668 -0.0039,-0.02539 0,-6.886525 5.543163,-12.427735 12.429688,-12.427734 z m 11.322266,9.642578 c 0.04653,0.01796 0.07738,0.05606 0.125,0.07227 0.229669,0.07819 0.46109,0.05807 0.693359,0.08984 0.180902,0.846843 0.287109,1.720563 0.287109,2.623047 0,2.737218 -0.901208,5.242285 -2.388672,7.291016 -0.210674,-0.05967 -0.397604,-0.168862 -0.623046,-0.191407 l -0.0098,-0.002 h -0.0078 c -0.248626,-0.01989 -0.474855,0.05665 -0.714843,0.08398 l -2.517578,-3.628906 c 0.359113,-0.733838 0.516482,-1.54682 0.355468,-2.351562 z m -11.53711,6.783203 c 0.787082,1.178289 2.136307,1.73538 3.458984,1.609375 l 2.480469,3.576172 c -0.200365,0.404786 -0.346315,0.843682 -0.384765,1.322265 v 0.002 c -0.01807,0.222283 0.05359,0.424994 0.07422,0.640625 -1.641174,0.795956 -3.460695,1.28125 -5.414062,1.28125 -4.764038,0 -8.83649,-2.682916 -10.923828,-6.597656 0.140585,-0.161875 0.316502,-0.282504 0.429687,-0.472656 0.08007,-0.134524 0.08742,-0.285694 0.148438,-0.425781 z" />
</svg>
