<?xml version="1.0" encoding="UTF-8" standalone="no"?>
<svg
   height="128"
   viewBox="0 0 128 128"
   width="128"
   version="1.1"
   id="svg5248"
   xml:space="preserve"
   xmlns:xlink="http://www.w3.org/1999/xlink"
   xmlns="http://www.w3.org/2000/svg"
   xmlns:svg="http://www.w3.org/2000/svg"><defs
     id="defs5252"><filter
       style="color-interpolation-filters:sRGB"
       id="filter1302"
       x="-0.012000846"
       width="1.0240017"
       y="-0.011999155"
       height="1.0239983"><feGaussianBlur
         stdDeviation="2.0803224"
         id="feGaussianBlur1304" /></filter><linearGradient
       id="bg-gradient-2"><stop
         style="stop-color:#3584e4;stop-opacity:1"
         offset="0"
         id="stop13402" /><stop
         style="stop-color:#62a0ea;stop-opacity:1"
         offset="1"
         id="stop13404" /></linearGradient><clipPath
       clipPathUnits="userSpaceOnUse"
       id="clipPath1509"><path
         id="path1511"
         d="M 192,-164 H 88 c 0,0 -40,0 -40,40 V 4 h 416 v -96 c 0,0 0,-40 -40,-40 H 224 Z"
         style="display:inline;opacity:1;vector-effect:none;fill:#c9b8a7;fill-opacity:1;stroke:none;stroke-width:26.0669;stroke-linecap:butt;stroke-linejoin:miter;stroke-miterlimit:4;stroke-dasharray:none;stroke-dashoffset:0;stroke-opacity:1;marker:none;marker-start:none;marker-mid:none;marker-end:none;paint-order:normal;enable-background:new" /></clipPath><filter
       style="color-interpolation-filters:sRGB"
       id="filter1529"
       x="-0.10846153"
       width="1.2169231"
       y="-0.13428571"
       height="1.2685714"><feGaussianBlur
         stdDeviation="18.8"
         id="feGaussianBlur1531" /></filter><linearGradient
       id="linearGradient888"><stop
         style="stop-color:#99c1f1;stop-opacity:1"
         offset="0"
         id="stop884" /><stop
         style="stop-color:#c3e5e7;stop-opacity:1"
         offset="1"
         id="stop886" /></linearGradient><linearGradient
       xlink:href="#bg-gradient-2"
       id="linearGradient5836"
       gradientUnits="userSpaceOnUse"
       x1="64"
       y1="756"
       x2="480"
       y2="756" /><linearGradient
       xlink:href="#linearGradient888"
       id="linearGradient5838"
       gradientUnits="userSpaceOnUse"
       x1="152.89844"
       y1="-38.796875"
       x2="447.30859"
       y2="316" /></defs><linearGradient
     id="a"
     gradientUnits="userSpaceOnUse"
     x1="11.999989"
     x2="115.99999"
     y1="64"
     y2="64"><stop
       offset="0"
       stop-color="#3d3846"
       id="stop5214" /><stop
       offset="0.05"
       stop-color="#77767b"
       id="stop5216" /><stop
       offset="0.1"
       stop-color="#5e5c64"
       id="stop5218" /><stop
       offset="0.899999"
       stop-color="#504e56"
       id="stop5220" /><stop
       offset="0.95"
       stop-color="#77767b"
       id="stop5222" /><stop
       offset="1"
       stop-color="#3d3846"
       id="stop5224" /></linearGradient><linearGradient
     id="b"
     gradientUnits="userSpaceOnUse"
     x1="12"
     x2="112.04102"
     y1="60"
     y2="80.988281"><stop
       offset="0"
       stop-color="#77767b"
       id="stop5227" /><stop
       offset="0.384443"
       stop-color="#9a9996"
       id="stop5229" /><stop
       offset="0.720567"
       stop-color="#77767b"
       id="stop5231" /><stop
       offset="1"
       stop-color="#68666f"
       id="stop5233" /></linearGradient><g
     transform="matrix(0.2511615,0,0,0.2511615,-0.29292947,52.434794)"
     id="g5798"
     style="fill:#c9b8a7;fill-opacity:1;stroke:#a08f7f;stroke-opacity:1"><path
       id="path5786"
       d="m 88,-162 c 0,0 -40,0 -40,40 L 47.964844,6 h 0.0332 L 47.964844,254.0938 424,254 c 40,0 40,-40 40,-40 V 6 -42 -90 c 0,0 0,-40 -40,-40 H 224 l -32,-32 z"
       style="display:inline;opacity:0.2;fill:#000000;fill-opacity:1;stroke:none;stroke-width:26.0669;stroke-linecap:butt;stroke-linejoin:miter;stroke-miterlimit:4;stroke-dasharray:none;stroke-dashoffset:0;stroke-opacity:1;marker:none;marker-start:none;marker-mid:none;marker-end:none;paint-order:normal;filter:url(#filter1302);enable-background:new" /><path
       style="display:inline;opacity:1;fill:url(#linearGradient5836);fill-opacity:1;stroke:none;stroke-width:26.0669;stroke-linecap:butt;stroke-linejoin:miter;stroke-miterlimit:4;stroke-dasharray:none;stroke-dashoffset:0;stroke-opacity:1;marker:none;marker-start:none;marker-mid:none;marker-end:none;paint-order:normal;enable-background:new"
       d="M 208,672 H 104 c 0,0 -40,0 -40,40 v 128 h 416 v -96 c 0,0 0,-40 -40,-40 H 240 Z"
       transform="translate(-16,-836)"
       id="path5788" /><path
       id="path5790"
       d="m 256,-80 -32,32 H 88 c 0,0 -40,0 -40,40 v 264 h 376 c 40,0 40,-40 40,-40 V -40 c 0,-40 -40,-40 -40,-40 z"
       style="display:inline;opacity:0.1;fill:#000000;fill-opacity:1;stroke:none;stroke-width:26.0669;stroke-linecap:butt;stroke-linejoin:miter;stroke-miterlimit:4;stroke-dasharray:none;stroke-dashoffset:0;stroke-opacity:1;marker:none;marker-start:none;marker-mid:none;marker-end:none;paint-order:normal;filter:url(#filter1529);enable-background:new"
       clip-path="url(#clipPath1509)" /><path
       style="display:inline;opacity:1;fill:url(#linearGradient5838);fill-opacity:1;stroke:none;stroke-width:26.0669;stroke-linecap:butt;stroke-linejoin:miter;stroke-miterlimit:4;stroke-dasharray:none;stroke-dashoffset:0;stroke-opacity:1;marker:none;marker-start:none;marker-mid:none;marker-end:none;paint-order:normal;enable-background:new"
       d="m 256,-84 -32,32 H 88 c 0,0 -40,0 -40,40 v 264 h 376 c 40,0 40,-40 40,-40 V -44 c 0,-40 -40,-40 -40,-40 z"
       id="path5792" /><path
       style="font-variation-settings:normal;display:inline;opacity:1;fill:#99c1f1;fill-opacity:1;stroke:none;stroke-width:26.0669;stroke-linecap:butt;stroke-linejoin:miter;stroke-miterlimit:4;stroke-dasharray:none;stroke-dashoffset:0;stroke-opacity:1;marker:none;marker-start:none;marker-mid:none;marker-end:none;paint-order:normal;enable-background:new;stop-color:#000000;stop-opacity:1"
       d="m 480,1042 c 0,0 0,40 -40,40 l -375.998047,0.094 -0.0039,6 L 440,1088 c 40,0 40,-40 40,-40 z"
       transform="translate(-16,-836)"
       id="path5794" /><path
       style="display:inline;opacity:0.3;fill:#ffffff;fill-opacity:1;stroke:none;stroke-width:26.0669;stroke-linecap:butt;stroke-linejoin:miter;stroke-miterlimit:4;stroke-dasharray:none;stroke-dashoffset:0;stroke-opacity:1;marker:none;marker-start:none;marker-mid:none;marker-end:none;paint-order:normal;enable-background:new"
       d="m 272,752 -32,32 H 104 c 0,0 -40,0 -40,40 v 4 c 0,-40 40,-42 40,-42 h 136.59099 l 32,-32 H 440 c 5.38035,0 40,2 40,42 v -4 c 0,-40 -40,-40 -40,-40 z"
       id="path5796"
       transform="translate(-16,-836)" /></g><g
     id="g2247"
     transform="matrix(0.0548493,0,0,0.0548493,156.37065,111.45179)"
     style="fill:#438de6;fill-opacity:1"><path
       d="m 64.729409,51.202012 a 24.072244,24.072244 0 0 0 -23.855378,22.12044 l -3.903607,1.869394 -0.513975,0.255903 -0.01313,0.01508 a 6.5060122,6.5060122 0 0 0 -2.819272,5.898784 17.457799,17.457799 0 0 0 2.493971,8.652995 c 2.624092,4.55421 6.72288,7.677094 10.192753,7.677094 a 5.0313161,5.0313161 0 0 0 2.537344,-0.719998 v -0.03253 l 3.166258,-1.54192 a 24.072244,24.072244 0 0 0 36.867478,-19.17106 l 2.840959,-1.617829 0.04337,-0.03058 a 6.3325185,6.3325185 0 0 0 1.897586,-2.298793 l 0.04988,-0.138793 a 9.4554043,9.4554043 0 0 0 0.689638,-3.773486 19.431289,19.431289 0 0 0 -2.862645,-8.783117 16.959005,16.959005 0 0 0 -6.028905,-5.53011 7.2216733,7.2216733 0 0 0 -2.667465,-0.754697 1.231805,1.231805 0 0 0 -0.693975,0.162644 l -3.730112,1.799996 A 24.072244,24.072244 0 0 0 64.779244,51.075903 Z m 0.169157,1.533248 c 3.274693,0.01012 6.5277,0.839276 9.325284,2.493973 0.982408,0.687467 1.94313,1.698069 2.136141,2.927705 -7.81e-4,-0.01029 6.07e-4,-8.6e-5 0.0057,0.03688 0.0032,0.02169 0.006,0.04337 0.0087,0.06527 -0.0041,-0.03079 -0.0064,-0.04793 -0.0087,-0.06527 -0.0018,-0.01242 -0.0037,-0.02472 -0.0057,-0.03688 0.0028,0.03622 0.0321,0.303614 0.02907,0.39036 0.0076,0.479277 -0.09954,0.928191 -0.286267,1.340239 0.183037,-0.405542 0.27759,-0.824096 0.281928,-1.253492 -0.008,0.769879 -0.318794,1.522408 -0.906504,2.212045 0.225542,-0.266747 0.422891,-0.55518 0.574697,-0.8653 0.0092,-0.01876 0.01835,-0.03752 0.02733,-0.05638 -0.0089,0.01885 -0.01805,0.03752 -0.02733,0.05638 -0.172848,0.351325 -0.412046,0.693975 -0.715661,1.023613 0.03839,-0.04208 0.07569,-0.08458 0.111908,-0.127294 -0.433735,0.503132 -0.971565,0.932528 -1.515902,1.277346 -2.754212,1.713251 -6.137338,2.233732 -9.303596,2.277105 -1.301203,0.03383 -2.602406,-0.09173 -3.881921,-0.344819 -0.09846,-0.01686 -0.197132,-0.03383 -0.29494,-0.05075 -2.819272,-0.696141 -6.809625,-1.97349 -7.156614,-5.421675 0.0126,-1.604818 1.266504,-2.840959 2.537346,-3.621681 2.732525,-1.518069 5.920471,-2.277103 9.086731,-2.277103 z m 10.561427,8.132516 c -0.0085,0.01011 -0.01704,0.0202 -0.0258,0.03036 0.0087,-0.01011 0.01721,-0.02021 0.0258,-0.03036 z m 7.37348,-6.614445 a 6.2457716,6.2457716 0 0 1 2.342164,0.687467 16.026476,16.026476 0 0 1 5.703604,5.269871 19.084303,19.084303 0 0 1 2.667465,8.284322 8.6529961,8.6529961 0 0 1 -0.650601,3.513247 l 0.04337,-0.0021 -0.04989,0.138793 a 5.5084237,5.5084237 0 0 1 -1.604816,1.917105 l -2.407225,1.361925 -0.04772,0.0282 v -0.22566 A 24.072244,24.072244 0 0 0 79.135887,55.947018 h 0.01947 l 3.426501,-1.652526 a 0.8219262,0.8219262 0 0 1 0.240722,-0.0282 z m -7.525286,6.809625 c -0.544337,0.589879 -1.288192,1.136383 -2.212046,1.619998 l -0.0021,-0.01083 c 0.926023,-0.483615 1.669877,-1.025782 2.212043,-1.609155 z m -29.71079,11.580703 c 1.687226,0.0073 3.339753,0.828431 4.706017,1.80867 3.079511,2.277105 5.248183,5.638545 6.419265,9.238539 0.631082,2.55903 1.340237,5.681916 -0.264579,8.045766 -0.3253,0.503132 -0.726505,0.956385 -1.184093,1.340239 l -0.03469,-0.03469 c -1.524577,0.733011 -3.036139,1.470359 -4.575896,2.190357 0.505301,-0.769877 0.765542,-1.672045 0.84795,-2.602405 0.490121,-3.513247 -0.331806,-7.1783 -2.277103,-10.127692 -1.765298,-3.187946 -4.597581,-6.028905 -8.067456,-7.265046 -0.483613,-0.146176 -0.978069,-0.266747 -1.481201,-0.303615 1.405298,-0.674456 2.797586,-1.353249 4.207221,-2.025538 0.559517,-0.202554 1.123372,-0.290602 1.687226,-0.288433 z m 36.650536,0.312287 c 0.364337,-0.0014 0.730841,0.03601 1.099515,0.118847 1.947467,0.451084 2.97108,2.385538 3.187946,4.228909 0.42289,3.643365 -0.923853,7.265046 -2.949393,10.257812 -1.572285,2.277103 -3.643365,4.359028 -6.267456,5.33493 -1.56795,0.581203 -3.513247,0.594215 -4.792764,-0.641927 -1.819515,-1.804335 -1.832526,-4.640955 -1.374936,-7.004807 0.03601,-0.186939 0.07178,-0.373011 0.10779,-0.561686 1.008431,-3.94698 3.274691,-7.69878 6.614445,-10.106004 1.279515,-0.895662 2.797586,-1.628672 4.380714,-1.635178 z m -43.15655,2.797586 c 0.286265,2.61e-4 0.572529,0.01597 0.856625,0.03166 1.934455,0.24506 3.621681,1.483372 5.07469,2.667465 2.515659,2.190358 4.272281,5.161436 5.291557,8.306008 0.698312,2.168672 0.96072,4.55421 0.312287,6.766254 -0.08305,0.22771 -0.162857,0.45759 -0.251565,0.685299 v 0.02602 c -0.785059,2.233732 -3.426499,3.057826 -5.53011,2.385538 -2.624091,-0.763371 -4.749388,-2.689152 -6.419265,-4.814449 -2.515659,-3.274693 -4.098788,-7.373479 -3.816861,-11.559015 0.236385,-1.706743 1.22313,-3.55662 2.884332,-4.250595 0.50747,-0.221203 1.053973,-0.27542 1.600479,-0.27542 z"
       id="path1"
       style="stroke-width:2.16868;fill:#438de6;fill-opacity:1"
       transform="matrix(18.231773,0,0,18.231773,-2850.9142,-2031.9638)" /></g></svg>
