<?xml version="1.0" encoding="UTF-8" standalone="no"?>
<svg
   height="128"
   viewBox="0 0 128 128"
   width="128"
   version="1.1"
   id="svg5248"
   xmlns:xlink="http://www.w3.org/1999/xlink"
   xmlns="http://www.w3.org/2000/svg"
   xmlns:svg="http://www.w3.org/2000/svg">
  <defs
     id="defs5252">
    <linearGradient
       xlink:href="#linearGradient2023"
       id="linearGradient2025"
       x1="2689.252"
       y1="-1106.803"
       x2="2918.0698"
       y2="-1106.803"
       gradientUnits="userSpaceOnUse" />
    <linearGradient
       id="linearGradient2023">
      <stop
         style="stop-color:#62a0ea;stop-opacity:1;"
         offset="0"
         id="stop2019" />
      <stop
         style="stop-color:#afd4ff;stop-opacity:1;"
         offset="0.05769911"
         id="stop2795" />
      <stop
         style="stop-color:#62a0ea;stop-opacity:1;"
         offset="0.12220427"
         id="stop2797" />
      <stop
         style="stop-color:#62a0ea;stop-opacity:1;"
         offset="0.87330586"
         id="stop2793" />
      <stop
         style="stop-color:#c0d5ea;stop-opacity:1;"
         offset="0.95599729"
         id="stop2791" />
      <stop
         style="stop-color:#62a0ea;stop-opacity:1;"
         offset="1"
         id="stop2021" />
    </linearGradient>
  </defs>
  <linearGradient
     id="a"
     gradientUnits="userSpaceOnUse"
     x1="11.999989"
     x2="115.99999"
     y1="64"
     y2="64">
    <stop
       offset="0"
       stop-color="#3d3846"
       id="stop5214" />
    <stop
       offset="0.05"
       stop-color="#77767b"
       id="stop5216" />
    <stop
       offset="0.1"
       stop-color="#5e5c64"
       id="stop5218" />
    <stop
       offset="0.899999"
       stop-color="#504e56"
       id="stop5220" />
    <stop
       offset="0.95"
       stop-color="#77767b"
       id="stop5222" />
    <stop
       offset="1"
       stop-color="#3d3846"
       id="stop5224" />
  </linearGradient>
  <linearGradient
     id="b"
     gradientUnits="userSpaceOnUse"
     x1="12"
     x2="112.04102"
     y1="60"
     y2="80.988281">
    <stop
       offset="0"
       stop-color="#77767b"
       id="stop5227" />
    <stop
       offset="0.384443"
       stop-color="#9a9996"
       id="stop5229" />
    <stop
       offset="0.720567"
       stop-color="#77767b"
       id="stop5231" />
    <stop
       offset="1"
       stop-color="#68666f"
       id="stop5233" />
  </linearGradient>
  <g
     id="g760"
     style="display:inline;stroke-width:1.26428;enable-background:new"
     transform="matrix(0.45451006,0,0,0.45552152,-1210.2921,615.1561)">
    <path
       id="rect1135"
       style="fill:#438de6;fill-opacity:1;stroke-width:8.79091;stroke-linecap:round;stop-color:#000000"
       d="m 2711.2064,-1326.3316 c -12.1618,0 -21.9544,9.791 -21.9544,21.9528 v 188.867 c 0,12.1618 9.7926,21.9528 21.9544,21.9528 h 184.9089 c 12.1619,0 21.9545,-9.791 21.9545,-21.9528 v -158.2547 a 26.343462,26.343462 45 0 0 -26.3435,-26.3435 h -101.2664 a 14.283764,14.283764 31.638659 0 1 -12.7581,-7.8607 l -3.3076,-6.5699 a 21.425501,21.425501 31.638659 0 0 -19.1371,-11.791 z" />
    <path
       id="path1953"
       style="fill:url(#linearGradient2025);fill-opacity:1;stroke-width:8.79091;stroke-linecap:round;stop-color:#000000"
       d="m 2808.014,-1273.6447 c -6.0429,0 -11.5016,2.4179 -15.4646,6.3426 -5.0031,4.9549 -11.8483,11.2197 -18.9936,11.2197 h -62.3494 c -12.1618,0 -21.9544,9.791 -21.9544,21.9528 v 118.6179 c 0,12.1618 9.7926,21.9528 21.9544,21.9528 h 184.9089 c 12.1619,0 21.9545,-9.791 21.9545,-21.9528 v -105.4461 -13.1718 -17.5623 c 0,-12.1618 -9.7926,-21.9528 -21.9545,-21.9528 z" />
    <path
       id="rect1586"
       style="fill:#a4caee;fill-opacity:1;stroke-width:8.79091;stroke-linecap:round;stop-color:#000000"
       d="m 2808.014,-1282.4259 c -6.0429,0 -11.5016,2.4179 -15.4646,6.3426 -5.0031,4.9549 -11.8483,11.2197 -18.9936,11.2197 h -62.3494 c -12.1618,0 -21.9544,9.791 -21.9544,21.9528 v 122.8867 c 0,12.1618 9.7926,21.9528 21.9544,21.9528 h 184.9089 c 12.1619,0 21.9545,-9.791 21.9545,-21.9528 v -109.7149 -13.1718 -17.5623 c 0,-12.1618 -9.7926,-21.9528 -21.9545,-21.9528 z" />
  </g>
  <path
     id="path2836"
     style="color:#000000;fill:#438de6;stroke:none;stroke-width:1.62025;stroke-miterlimit:10;-inkscape-stroke:none"
     d="M 64.513672 58.984375 C 55.696974 58.984375 48.513672 66.165724 48.513672 74.982422 C 48.513672 75.159744 48.533293 75.331857 48.539062 75.507812 C 48.182652 75.782491 47.861712 76.113964 47.619141 76.521484 L 47.617188 76.523438 L 47.615234 76.527344 C 46.585151 78.299074 47.161347 80.591063 48.908203 81.630859 L 48.912109 81.634766 L 48.916016 81.636719 C 49.340831 81.883705 49.797565 82.02557 50.257812 82.09375 C 52.888679 87.337604 58.262603 90.984375 64.513672 90.984375 C 67.169318 90.984375 69.638105 90.26893 71.845703 89.117188 C 72.26871 89.343786 72.741078 89.496179 73.248047 89.546875 L 73.255859 89.548828 L 73.263672 89.548828 C 75.311948 89.712693 77.117706 88.201847 77.322266 86.15625 L 77.322266 86.148438 L 77.322266 86.140625 C 77.363696 85.633159 77.300825 85.137992 77.150391 84.677734 C 79.227861 81.978086 80.513669 78.641261 80.513672 74.982422 C 80.513672 73.653014 80.301745 72.382592 79.994141 71.146484 C 80.291759 70.798853 80.541367 70.399357 80.697266 69.941406 C 81.358267 67.999713 80.314035 65.868457 78.371094 65.207031 C 77.89408 65.044646 77.405126 64.989894 76.929688 65.021484 C 73.993671 61.37141 69.54737 58.984375 64.513672 58.984375 z M 64.513672 62.554688 C 68.326506 62.554688 71.684936 64.291322 73.960938 66.976562 C 73.855715 67.166354 73.707029 67.320929 73.634766 67.533203 C 73.416946 68.173049 73.440622 68.817584 73.564453 69.439453 L 68.685547 73.492188 C 67.614456 73.086819 66.397846 73.115059 65.378906 73.78125 C 64.739603 74.17984 64.332222 74.772158 64.046875 75.416016 L 53.871094 76.355469 C 53.57921 75.919769 53.213299 75.529922 52.742188 75.238281 L 52.732422 75.232422 L 52.722656 75.226562 C 52.521392 75.109549 52.299994 75.083978 52.087891 75.007812 C 52.087873 74.999113 52.083984 74.991132 52.083984 74.982422 C 52.083984 68.095897 57.627147 62.554687 64.513672 62.554688 z M 75.835938 72.197266 C 75.882467 72.215226 75.913318 72.253321 75.960938 72.269531 C 76.190607 72.347721 76.422028 72.327605 76.654297 72.359375 C 76.835199 73.206218 76.941406 74.079938 76.941406 74.982422 C 76.941406 77.71964 76.040198 80.224707 74.552734 82.273438 C 74.34206 82.213768 74.15513 82.104576 73.929688 82.082031 L 73.919922 82.080078 L 73.912109 82.080078 C 73.663483 82.060188 73.437254 82.136723 73.197266 82.164062 L 70.679688 78.535156 C 71.038801 77.801318 71.19617 76.988336 71.035156 76.183594 L 75.835938 72.197266 z M 64.298828 78.980469 C 65.08591 80.158758 66.435135 80.715849 67.757812 80.589844 L 70.238281 84.166016 C 70.037916 84.570802 69.891966 85.009698 69.853516 85.488281 L 69.853516 85.490234 C 69.835446 85.712517 69.907104 85.915228 69.927734 86.130859 C 68.28656 86.926815 66.467039 87.412109 64.513672 87.412109 C 59.749634 87.412109 55.677182 84.729193 53.589844 80.814453 C 53.730429 80.652578 53.906346 80.531949 54.019531 80.341797 C 54.099601 80.207273 54.106951 80.056103 54.167969 79.916016 L 64.298828 78.980469 z " />
</svg>
