<?xml version="1.0" encoding="UTF-8" standalone="no"?>
<svg
   height="128"
   viewBox="0 0 128 128"
   width="128"
   version="1.1"
   id="svg5248"
   xmlns:xlink="http://www.w3.org/1999/xlink"
   xmlns="http://www.w3.org/2000/svg"
   xmlns:svg="http://www.w3.org/2000/svg">
  <defs
     id="defs5252">
    <linearGradient
       xlink:href="#linearGradient2023"
       id="linearGradient2025"
       x1="2689.252"
       y1="-1106.803"
       x2="2918.0698"
       y2="-1106.803"
       gradientUnits="userSpaceOnUse"
       gradientTransform="matrix(0.45451006,0,0,0.45552152,-1210.2921,616.15659)" />
    <linearGradient
       id="linearGradient2023">
      <stop
         style="stop-color:#62a0ea;stop-opacity:1;"
         offset="0"
         id="stop2019" />
      <stop
         style="stop-color:#afd4ff;stop-opacity:1;"
         offset="0.05769911"
         id="stop2795" />
      <stop
         style="stop-color:#62a0ea;stop-opacity:1;"
         offset="0.12220427"
         id="stop2797" />
      <stop
         style="stop-color:#62a0ea;stop-opacity:1;"
         offset="0.87330586"
         id="stop2793" />
      <stop
         style="stop-color:#c0d5ea;stop-opacity:1;"
         offset="0.95599729"
         id="stop2791" />
      <stop
         style="stop-color:#62a0ea;stop-opacity:1;"
         offset="1"
         id="stop2021" />
    </linearGradient>
  </defs>
  <linearGradient
     id="a"
     gradientUnits="userSpaceOnUse"
     x1="11.999989"
     x2="115.99999"
     y1="64"
     y2="64">
    <stop
       offset="0"
       stop-color="#3d3846"
       id="stop5214" />
    <stop
       offset="0.05"
       stop-color="#77767b"
       id="stop5216" />
    <stop
       offset="0.1"
       stop-color="#5e5c64"
       id="stop5218" />
    <stop
       offset="0.899999"
       stop-color="#504e56"
       id="stop5220" />
    <stop
       offset="0.95"
       stop-color="#77767b"
       id="stop5222" />
    <stop
       offset="1"
       stop-color="#3d3846"
       id="stop5224" />
  </linearGradient>
  <linearGradient
     id="b"
     gradientUnits="userSpaceOnUse"
     x1="12"
     x2="112.04102"
     y1="60"
     y2="80.988281">
    <stop
       offset="0"
       stop-color="#77767b"
       id="stop5227" />
    <stop
       offset="0.384443"
       stop-color="#9a9996"
       id="stop5229" />
    <stop
       offset="0.720567"
       stop-color="#77767b"
       id="stop5231" />
    <stop
       offset="1"
       stop-color="#68666f"
       id="stop5233" />
  </linearGradient>
  <path
     id="rect1135"
     style="fill:#438de6;fill-opacity:1;stroke-width:4;stroke-linecap:round;stop-color:#000000"
     d="m 21.978484,11.984004 c -5.527661,0 -9.978496,4.460011 -9.978496,9.999972 v 86.032984 c 0,5.53996 4.450835,9.99997 9.978496,9.99997 h 84.042956 c 5.5277,0 9.97854,-4.46001 9.97854,-9.99997 V 35.928538 A 11.973368,12.000014 0 0 0 104.02659,23.928507 H 57.999997 A 6.4921144,6.5065619 0 0 1 52.201312,20.347789 L 50.697974,17.355058 A 9.7381057,9.7597768 0 0 0 41.99997,11.984004 Z" />
  <path
     id="path1953"
     style="fill:url(#linearGradient2025);fill-opacity:1;stroke-width:4;stroke-linecap:round;stop-color:#000000"
     d="m 65.978512,35.98402 c -2.746559,0 -5.227593,1.101406 -7.028817,2.889191 -2.273959,2.257064 -5.385171,5.110815 -8.632782,5.110815 H 21.978484 c -5.527661,0 -9.978496,4.460011 -9.978496,9.999973 V 108.017 c 0,5.53997 4.450835,9.99998 9.978496,9.99998 h 84.042956 c 5.5277,0 9.97854,-4.46001 9.97854,-9.99998 V 59.984037 53.983999 45.983993 c 0,-5.539961 -4.45084,-9.999973 -9.97854,-9.999973 z" />
  <path
     id="rect1586"
     style="fill:#a4caee;fill-opacity:1;stroke-width:4;stroke-linecap:round;stop-color:#000000"
     d="m 65.978512,31.983995 c -2.746559,0 -5.227593,1.101405 -7.028817,2.889191 C 56.675736,37.130249 53.564524,39.984 50.316913,39.984 H 21.978484 c -5.527661,0 -9.978496,4.460012 -9.978496,9.999973 v 55.977537 c 0,5.53996 4.450835,9.99997 9.978496,9.99997 h 84.042956 c 5.5277,0 9.97854,-4.46001 9.97854,-9.99997 V 55.984012 49.983973 41.983968 c 0,-5.539962 -4.45084,-9.999973 -9.97854,-9.999973 z" />
  <path
     d="M 64.483049,60.068084 A 16.04068,16.04068 0 0 0 48.58688,74.808169 l -2.601192,1.245681 -0.34249,0.170522 -0.0087,0.01005 a 4.3353189,4.3353189 0 0 0 -1.878638,3.930689 11.633105,11.633105 0 0 0 1.661872,5.765975 c 1.748579,3.034723 4.47983,5.115676 6.792001,5.115676 a 3.3526466,3.3526466 0 0 0 1.690773,-0.479776 v -0.02168 l 2.109855,-1.02747 A 16.04068,16.04068 0 0 0 80.577169,76.743094 l 1.893089,-1.078049 0.02891,-0.02037 a 4.2197104,4.2197104 0 0 0 1.264468,-1.531814 l 0.03323,-0.09249 a 6.3006635,6.3006635 0 0 0 0.459543,-2.514485 12.948152,12.948152 0 0 0 -1.907539,-5.852681 11.300731,11.300731 0 0 0 -4.017396,-3.685021 4.812204,4.812204 0 0 0 -1.777481,-0.502896 0.82082038,0.82082038 0 0 0 -0.462434,0.108381 l -2.485583,1.19944 a 16.04068,16.04068 0 0 0 -9.089718,-2.78906 z m 0.112717,1.02169 c 2.182111,0.0068 4.349771,0.559256 6.213958,1.661872 0.654633,0.458099 1.294816,1.131519 1.42343,1.950893 -5.2e-4,-0.0068 4.04e-4,-5.7e-5 0.0038,0.02456 0.0021,0.01444 0.004,0.02891 0.0058,0.0435 -0.0027,-0.02052 -0.0042,-0.03194 -0.0058,-0.0435 -0.0012,-0.0082 -0.0024,-0.01648 -0.0038,-0.02456 0.0019,0.02414 0.02139,0.202316 0.01936,0.260119 0.0052,0.319369 -0.06633,0.618506 -0.190754,0.893077 0.121968,-0.270236 0.184974,-0.549141 0.187864,-0.835272 -0.0053,0.513013 -0.212431,1.014464 -0.604054,1.474009 0.150291,-0.177749 0.281795,-0.369947 0.382953,-0.576598 0.0062,-0.01249 0.01222,-0.025 0.01821,-0.03757 -0.0059,0.01256 -0.01202,0.025 -0.01821,0.03757 -0.115175,0.234108 -0.27457,0.462434 -0.476885,0.682089 0.02558,-0.02803 0.05043,-0.05636 0.07456,-0.08483 -0.289022,0.335265 -0.647408,0.621395 -1.01013,0.851167 -1.835284,1.141635 -4.08965,1.48846 -6.199506,1.517362 -0.867063,0.02254 -1.734127,-0.06113 -2.58674,-0.229772 -0.06561,-0.01124 -0.13136,-0.02254 -0.196534,-0.03382 -1.878639,-0.463879 -4.537634,-1.315047 -4.768851,-3.612765 0.0084,-1.069379 0.843942,-1.89309 1.690774,-2.413328 1.820834,-1.011574 3.94514,-1.517361 6.054995,-1.517361 z m 7.037669,5.419149 c -0.0057,0.0068 -0.01141,0.01346 -0.0172,0.02023 0.0058,-0.0067 0.01145,-0.01347 0.0172,-0.02023 z m 4.913361,-4.407575 a 4.1619061,4.1619061 0 0 1 1.560715,0.458099 10.679336,10.679336 0 0 1 3.800629,3.511608 12.716935,12.716935 0 0 1 1.777481,5.520307 5.7659742,5.7659742 0 0 1 -0.433532,2.341072 l 0.02891,-0.0015 -0.03323,0.09248 a 3.6705701,3.6705701 0 0 1 -1.069378,1.277474 l -1.604069,0.907527 -0.03179,0.01879 V 76.076942 A 16.04068,16.04068 0 0 0 74.08289,63.229947 h 0.01298 l 2.283268,-1.101171 a 0.54769529,0.54769529 0 0 1 0.160407,-0.01879 z m -5.014519,4.537634 c -0.362721,0.393069 -0.858393,0.757236 -1.474008,1.079495 l -0.0015,-0.0073 c 0.617061,-0.322259 1.112733,-0.683536 1.47401,-1.07227 z M 51.734321,74.35585 c 1.124293,0.0049 2.225464,0.552031 3.135881,1.205219 2.05205,1.517361 3.497157,3.757276 4.277514,6.156153 0.420526,1.705224 0.893076,3.786178 -0.176303,5.361344 -0.216766,0.335264 -0.48411,0.637292 -0.789028,0.893076 l -0.02312,-0.02312 c -1.015909,0.488446 -2.023148,0.979782 -3.049174,1.459558 0.336709,-0.513013 0.510122,-1.114177 0.565036,-1.734128 C 56.001721,85.33288 55.454025,82.89065 54.157766,80.925306 52.981449,78.801 51.09414,76.90791 48.78197,76.084199 c -0.322259,-0.0974 -0.651743,-0.177748 -0.987008,-0.202315 0.93643,-0.449428 1.864188,-0.901746 2.803507,-1.349729 0.372837,-0.134973 0.748564,-0.193644 1.124293,-0.192199 z m 24.422297,0.208095 c 0.242777,-9.58e-4 0.487,0.02399 0.732668,0.07919 1.297706,0.300582 1.979796,1.589617 2.124306,2.817957 0.281796,2.427779 -0.615615,4.841107 -1.965344,6.835354 -1.047702,1.517361 -2.427778,2.904663 -4.176357,3.554961 -1.044812,0.387288 -2.341073,0.395958 -3.193685,-0.427752 -1.212444,-1.202329 -1.221115,-3.092528 -0.916198,-4.667693 0.02399,-0.124568 0.04784,-0.248559 0.07182,-0.374283 0.671975,-2.630093 2.182111,-5.130127 4.407575,-6.734195 0.852612,-0.596829 1.864187,-1.085275 2.919115,-1.08961 z m -28.757617,1.864187 c 0.190755,1.74e-4 0.381509,0.01069 0.570818,0.0211 1.289034,0.163299 2.413328,0.988454 3.381548,1.777483 1.676324,1.459556 2.84686,3.439352 3.52606,5.534756 0.465324,1.445106 0.640183,3.034722 0.208095,4.508732 -0.05535,0.151736 -0.108527,0.304917 -0.167632,0.456654 v 0.01734 c -0.523129,1.48846 -2.283268,2.037601 -3.685021,1.589617 -1.748578,-0.508678 -3.164783,-1.791931 -4.277515,-3.208135 -1.676323,-2.18211 -2.731251,-4.913362 -2.543386,-7.702418 0.157516,-1.137298 0.815039,-2.369974 1.92199,-2.832407 0.338155,-0.147401 0.702322,-0.183529 1.06649,-0.183529 z"
     id="path1"
     style="fill:#438de6;fill-opacity:1;stroke-width:1.4451" />
</svg>
