<?xml version="1.0" encoding="UTF-8" standalone="no"?>
<svg
   height="128"
   viewBox="0 0 128 128"
   width="128"
   version="1.1"
   id="svg5248"
   xmlns:xlink="http://www.w3.org/1999/xlink"
   xmlns="http://www.w3.org/2000/svg"
   xmlns:svg="http://www.w3.org/2000/svg">
  <defs
     id="defs5252">
    <linearGradient
       xlink:href="#linearGradient2023"
       id="linearGradient2025"
       x1="2689.252"
       y1="-1106.803"
       x2="2918.0698"
       y2="-1106.803"
       gradientUnits="userSpaceOnUse" />
    <linearGradient
       id="linearGradient2023">
      <stop
         style="stop-color:#62a0ea;stop-opacity:1;"
         offset="0"
         id="stop2019" />
      <stop
         style="stop-color:#afd4ff;stop-opacity:1;"
         offset="0.05769911"
         id="stop2795" />
      <stop
         style="stop-color:#62a0ea;stop-opacity:1;"
         offset="0.12220427"
         id="stop2797" />
      <stop
         style="stop-color:#62a0ea;stop-opacity:1;"
         offset="0.87330586"
         id="stop2793" />
      <stop
         style="stop-color:#c0d5ea;stop-opacity:1;"
         offset="0.95599729"
         id="stop2791" />
      <stop
         style="stop-color:#62a0ea;stop-opacity:1;"
         offset="1"
         id="stop2021" />
    </linearGradient>
  </defs>
  <linearGradient
     id="a"
     gradientUnits="userSpaceOnUse"
     x1="11.999989"
     x2="115.99999"
     y1="64"
     y2="64">
    <stop
       offset="0"
       stop-color="#3d3846"
       id="stop5214" />
    <stop
       offset="0.05"
       stop-color="#77767b"
       id="stop5216" />
    <stop
       offset="0.1"
       stop-color="#5e5c64"
       id="stop5218" />
    <stop
       offset="0.899999"
       stop-color="#504e56"
       id="stop5220" />
    <stop
       offset="0.95"
       stop-color="#77767b"
       id="stop5222" />
    <stop
       offset="1"
       stop-color="#3d3846"
       id="stop5224" />
  </linearGradient>
  <linearGradient
     id="b"
     gradientUnits="userSpaceOnUse"
     x1="12"
     x2="112.04102"
     y1="60"
     y2="80.988281">
    <stop
       offset="0"
       stop-color="#77767b"
       id="stop5227" />
    <stop
       offset="0.384443"
       stop-color="#9a9996"
       id="stop5229" />
    <stop
       offset="0.720567"
       stop-color="#77767b"
       id="stop5231" />
    <stop
       offset="1"
       stop-color="#68666f"
       id="stop5233" />
  </linearGradient>
  <g
     id="g760"
     style="display:inline;stroke-width:1.26428;enable-background:new"
     transform="matrix(0.45451006,0,0,0.45552152,-1210.2921,616.15659)">
    <path
       id="rect1135"
       style="fill:#438de6;fill-opacity:1;stroke-width:8.79091;stroke-linecap:round;stop-color:#000000"
       d="m 2711.2064,-1326.3316 c -12.1618,0 -21.9544,9.791 -21.9544,21.9528 v 188.867 c 0,12.1618 9.7926,21.9528 21.9544,21.9528 h 184.9089 c 12.1619,0 21.9545,-9.791 21.9545,-21.9528 v -158.2547 a 26.343462,26.343462 45 0 0 -26.3435,-26.3435 h -101.2664 a 14.283764,14.283764 31.638659 0 1 -12.7581,-7.8607 l -3.3076,-6.5699 a 21.425501,21.425501 31.638659 0 0 -19.1371,-11.791 z" />
    <path
       id="path1953"
       style="fill:url(#linearGradient2025);fill-opacity:1;stroke-width:8.79091;stroke-linecap:round;stop-color:#000000"
       d="m 2808.014,-1273.6447 c -6.0429,0 -11.5016,2.4179 -15.4646,6.3426 -5.0031,4.9549 -11.8483,11.2197 -18.9936,11.2197 h -62.3494 c -12.1618,0 -21.9544,9.791 -21.9544,21.9528 v 118.6179 c 0,12.1618 9.7926,21.9528 21.9544,21.9528 h 184.9089 c 12.1619,0 21.9545,-9.791 21.9545,-21.9528 v -105.4461 -13.1718 -17.5623 c 0,-12.1618 -9.7926,-21.9528 -21.9545,-21.9528 z" />
    <path
       id="rect1586"
       style="fill:#a4caee;fill-opacity:1;stroke-width:8.79091;stroke-linecap:round;stop-color:#000000"
       d="m 2808.014,-1282.4259 c -6.0429,0 -11.5016,2.4179 -15.4646,6.3426 -5.0031,4.9549 -11.8483,11.2197 -18.9936,11.2197 h -62.3494 c -12.1618,0 -21.9544,9.791 -21.9544,21.9528 v 122.8867 c 0,12.1618 9.7926,21.9528 21.9544,21.9528 h 184.9089 c 12.1619,0 21.9545,-9.791 21.9545,-21.9528 v -109.7149 -13.1718 -17.5623 c 0,-12.1618 -9.7926,-21.9528 -21.9545,-21.9528 z" />
  </g>
  <path
     d="m 82.124319,71.026878 c 0.03033,-0.852174 0.388449,-1.643099 1.011456,-2.223227 0.623341,-0.582109 1.436789,-0.882802 2.28989,-0.855779 1.758557,0.06287 3.140265,1.54743 3.080802,3.304212 -0.03375,0.852175 -0.389862,1.643099 -1.011448,2.221425 -0.623376,0.585531 -1.434835,0.886406 -2.291681,0.85758 -1.756423,-0.0647 -3.136664,-1.54581 -3.077219,-3.304211 z m 8.530765,3.142062 C 90.8002,74.07309 90.906517,73.993818 90.9514,73.976167 L 91,73.900677 C 90.877492,73.129572 89.728047,69.391164 88.859645,68.492147 88.620029,68.24713 88.428338,68.0057 88.040087,67.778514 84.894431,65.946245 77.435639,64.840037 77.086096,64.789593 l -0.0594,0.01653 -0.02358,0.05407 c 0,0 -0.03033,1.545807 -0.03375,1.718585 -0.761922,-0.25602 -6.300338,-2.044866 -11.492658,-2.225028 -4.403209,-0.154772 -10.815282,-0.72426 -19.313612,4.5005 l -0.251424,0.156392 c -3.997858,2.493471 -6.75797,5.568876 -8.201067,9.14153 -0.452569,1.124224 -1.061166,3.660937 -0.458003,6.048113 0.259861,1.043331 0.744262,2.091704 1.397367,3.03036 1.476273,2.120555 3.952796,3.527627 6.621046,3.765449 3.765424,0.336914 6.617409,-1.35465 7.631728,-4.522138 0.697411,-2.185391 0,-5.392316 -2.673614,-7.028205 -2.174582,-1.331594 -4.513135,-1.028917 -5.869769,-0.13152 -1.176823,0.78029 -1.843058,1.992616 -1.832267,3.32403 0.027,2.361952 2.061083,3.617694 3.524034,3.621298 0.424989,0 0.851815,-0.07387 1.333001,-0.230604 0.171441,-0.05224 0.332424,-0.11694 0.510048,-0.226826 l 0.05571,-0.03274 0.0351,-0.02328 -0.01017,0.0071 c 0.333432,-0.227197 0.534006,-0.596704 0.534006,-0.992884 0,-0.108097 -0.0135,-0.217645 -0.04626,-0.327903 -0.172791,-0.598145 -0.763704,-0.960097 -1.376074,-0.848575 l -0.08271,0.01958 -0.112041,0.03423 -0.162333,0.05585 c -0.336808,0.08289 -0.589114,0.09007 -0.642979,0.0919 -0.17145,-0.01114 -1.013446,-0.263207 -1.013446,-1.185481 v -0.01248 c 0,-0.33871 0.135675,-0.576345 0.210933,-0.706244 0.261892,-0.410775 0.979183,-0.813981 1.947575,-0.729663 1.271791,0.110088 2.188982,0.762274 2.79615,1.992614 0.563751,1.143863 0.41616,2.551124 -0.380143,3.581666 -0.790929,1.021351 -2.198017,1.455377 -4.071729,1.253781 -1.888103,-0.208816 -3.484362,-1.2954 -4.377964,-2.987142 -0.8749,-1.653547 -0.922627,-3.614094 -0.123516,-5.120266 1.911538,-3.608688 5.522017,-3.570855 7.50202,-3.228542 2.929475,0.508245 6.262511,3.210527 7.444392,6.330969 0.191007,0.497434 0.288207,0.891635 0.373293,1.252322 l 0.127566,0.538691 3.309618,1.615891 0.0432,0.03273 0.08037,-0.0074 0.0135,-0.09531 c -0.02025,-0.07404 -0.06849,-0.14215 -0.145116,-1.068373 -0.06273,-0.821908 -0.191025,-3.071801 0.941896,-4.187017 0.439776,-0.435816 1.109998,-0.824791 1.639306,-0.949284 2.169173,-0.529863 4.713088,-0.164322 7.118304,2.619587 1.245097,1.437889 1.852076,2.093507 2.156555,2.387176 l 0.106299,0.09585 0.125208,0.09352 c 0.0999,0.05423 4.136575,1.913345 4.136575,1.913345 l 0.08298,-0.01992 9e-4,-0.08629 c -0.027,-0.03069 -2.558334,-3.302411 -2.107928,-5.995866 0.354735,-2.145754 2.062874,-1.951179 4.424818,-1.684536 0.77112,0.09007 1.648864,0.190984 2.558324,0.211166 2.536733,0.0162 5.26981,-0.452393 6.95435,-1.189265 1.089811,-0.473829 1.785251,-0.789118 2.221409,-1.185299 0.1566,-0.129898 0.237934,-0.340691 0.322651,-0.567516 l 0.0594,-0.14971 c 0.07056,-0.183931 0.174141,-0.571287 0.219699,-0.783698 0.01683,-0.09352 0.03033,-0.192402 -0.03744,-0.244848 l -0.233208,0.04324 c -0.739783,0.445187 -2.588988,1.288176 -4.316746,1.324206 -2.145755,0.04343 -6.467891,-2.158366 -6.918315,-2.39258 l -0.04356,-0.05025 c -0.105975,-0.259426 -0.754893,-1.792453 -0.893638,-2.116927 3.111438,2.050267 5.691398,3.183499 7.6678,3.358261 2.199782,0.195844 3.913149,-1.004237 4.646443,-1.517344 h -1.71e-4 z m -4.89145,-2.846591 c -0.546067,0 -0.987121,-0.295471 -0.987121,-0.657599 0,-0.365554 0.441054,-0.659401 0.987121,-0.659401 0.546084,0 0.988398,0.29385 0.988398,0.659401 -3.06e-4,0.362128 -0.442692,0.657599 -0.988398,0.657599 M 85.39952,68.88833 c -0.596511,-0.0216 -1.162045,0.189365 -1.594441,0.594721 -0.432216,0.405371 -0.68716,0.954512 -0.705169,1.549234 -0.04149,1.228899 0.920827,2.262862 2.147573,2.307903 0.596161,0.01788 1.164565,-0.192774 1.599482,-0.598148 0.434016,-0.407352 0.683721,-0.95685 0.702648,-1.549228 0.04149,-1.228542 -0.920458,-2.261064 -2.149355,-2.304303 z"
     style="fill:#438de6;fill-opacity:1;stroke-width:0.180164"
     id="path1" />
</svg>
