<?xml version="1.0" encoding="UTF-8" standalone="no"?>
<svg
   height="128"
   viewBox="0 0 128 128"
   width="128"
   version="1.1"
   id="svg5248"
   xml:space="preserve"
   xmlns:xlink="http://www.w3.org/1999/xlink"
   xmlns="http://www.w3.org/2000/svg"
   xmlns:svg="http://www.w3.org/2000/svg"><defs
     id="defs5252"><linearGradient
       xlink:href="#linearGradient2023"
       id="linearGradient2025"
       x1="2689.252"
       y1="-1106.803"
       x2="2918.0698"
       y2="-1106.803"
       gradientUnits="userSpaceOnUse" /><linearGradient
       id="linearGradient2023"><stop
         style="stop-color:#62a0ea;stop-opacity:1;"
         offset="0"
         id="stop2019" /><stop
         style="stop-color:#afd4ff;stop-opacity:1;"
         offset="0.05769911"
         id="stop2795" /><stop
         style="stop-color:#62a0ea;stop-opacity:1;"
         offset="0.12220427"
         id="stop2797" /><stop
         style="stop-color:#62a0ea;stop-opacity:1;"
         offset="0.87330586"
         id="stop2793" /><stop
         style="stop-color:#c0d5ea;stop-opacity:1;"
         offset="0.95599729"
         id="stop2791" /><stop
         style="stop-color:#62a0ea;stop-opacity:1;"
         offset="1"
         id="stop2021" /></linearGradient></defs><linearGradient
     id="a"
     gradientUnits="userSpaceOnUse"
     x1="11.999989"
     x2="115.99999"
     y1="64"
     y2="64"><stop
       offset="0"
       stop-color="#3d3846"
       id="stop5214" /><stop
       offset="0.05"
       stop-color="#77767b"
       id="stop5216" /><stop
       offset="0.1"
       stop-color="#5e5c64"
       id="stop5218" /><stop
       offset="0.899999"
       stop-color="#504e56"
       id="stop5220" /><stop
       offset="0.95"
       stop-color="#77767b"
       id="stop5222" /><stop
       offset="1"
       stop-color="#3d3846"
       id="stop5224" /></linearGradient><linearGradient
     id="b"
     gradientUnits="userSpaceOnUse"
     x1="12"
     x2="112.04102"
     y1="60"
     y2="80.988281"><stop
       offset="0"
       stop-color="#77767b"
       id="stop5227" /><stop
       offset="0.384443"
       stop-color="#9a9996"
       id="stop5229" /><stop
       offset="0.720567"
       stop-color="#77767b"
       id="stop5231" /><stop
       offset="1"
       stop-color="#68666f"
       id="stop5233" /></linearGradient><g
     id="g760"
     style="display:inline;stroke-width:1.26428;enable-background:new"
     transform="matrix(0.45451006,0,0,0.45552152,-1210.2921,616.15659)"><path
       id="rect1135"
       style="fill:#438de6;fill-opacity:1;stroke-width:8.79091;stroke-linecap:round;stop-color:#000000"
       d="m 2711.2064,-1326.3316 c -12.1618,0 -21.9544,9.791 -21.9544,21.9528 v 188.867 c 0,12.1618 9.7926,21.9528 21.9544,21.9528 h 184.9089 c 12.1619,0 21.9545,-9.791 21.9545,-21.9528 v -158.2547 a 26.343462,26.343462 45 0 0 -26.3435,-26.3435 h -101.2664 a 14.283764,14.283764 31.638659 0 1 -12.7581,-7.8607 l -3.3076,-6.5699 a 21.425501,21.425501 31.638659 0 0 -19.1371,-11.791 z" /><path
       id="path1953"
       style="fill:url(#linearGradient2025);fill-opacity:1;stroke-width:8.79091;stroke-linecap:round;stop-color:#000000"
       d="m 2808.014,-1273.6447 c -6.0429,0 -11.5016,2.4179 -15.4646,6.3426 -5.0031,4.9549 -11.8483,11.2197 -18.9936,11.2197 h -62.3494 c -12.1618,0 -21.9544,9.791 -21.9544,21.9528 v 118.6179 c 0,12.1618 9.7926,21.9528 21.9544,21.9528 h 184.9089 c 12.1619,0 21.9545,-9.791 21.9545,-21.9528 v -105.4461 -13.1718 -17.5623 c 0,-12.1618 -9.7926,-21.9528 -21.9545,-21.9528 z" /><path
       id="rect1586"
       style="fill:#a4caee;fill-opacity:1;stroke-width:8.79091;stroke-linecap:round;stop-color:#000000"
       d="m 2808.014,-1282.4259 c -6.0429,0 -11.5016,2.4179 -15.4646,6.3426 -5.0031,4.9549 -11.8483,11.2197 -18.9936,11.2197 h -62.3494 c -12.1618,0 -21.9544,9.791 -21.9544,21.9528 v 122.8867 c 0,12.1618 9.7926,21.9528 21.9544,21.9528 h 184.9089 c 12.1619,0 21.9545,-9.791 21.9545,-21.9528 v -109.7149 -13.1718 -17.5623 c 0,-12.1618 -9.7926,-21.9528 -21.9545,-21.9528 z" /></g><g
     id="g3693"
     transform="matrix(0.66666668,0,0,0.66666668,-3.8020417,14.098063)"
     style="fill:#438de6;fill-opacity:1"><path
       d="m 48.280676,62.237666 c -8.393223,0 -15.213523,6.575337 -15.213523,14.697811 0,8.161152 6.8203,14.826738 15.213523,14.826738 0.77099,0.0095 1.547138,-0.04203 2.307814,-0.156003 6.588229,-0.973408 10.971786,-5.608375 13.408529,-9.257042 2.436742,3.648667 6.820299,8.277188 13.408528,9.257042 0.765834,0.102627 1.534245,0.14311 2.307814,0.123255 8.290081,-0.123384 15.213523,-6.704264 15.213523,-14.69781 h 0.0059 c 0,-8.161152 -6.8203,-14.69781 -15.213523,-14.69781 -0.77228,-0.0205 -1.547138,0.0214 -2.307814,0.124029 -6.575336,0.974697 -10.971786,5.608375 -13.408529,9.257042 -2.436742,-3.66156 -6.820299,-8.290081 -13.408528,-9.257042 -0.765834,-0.102756 -1.534245,-0.1444 -2.307814,-0.124029 z m 0.0059,5.234484 c 0.531184,-0.02037 1.063657,0.02166 1.585816,0.124029 6.214337,0.850925 9.991932,6.936335 11.203857,9.373077 -1.340853,2.436742 -5.118448,8.406116 -11.332785,9.38597 -0.522159,0.09695 -1.053343,0.136664 -1.585817,0.117325 -5.479446,0 -9.991932,-4.25463 -9.991932,-9.502006 0,-5.234483 4.512486,-9.502005 10.107968,-9.502005 z m 31.329543,0 c 5.608375,0 10.107967,4.254629 10.107967,9.502005 0,5.234483 -4.512485,9.502006 -9.991932,9.502006 -0.531184,0.01934 -1.062368,-0.02024 -1.585816,-0.117325 -6.330373,-0.973408 -10.107968,-6.949228 -11.307,-9.38597 1.302174,-2.436742 4.976627,-8.522152 11.190964,-9.373077 0.519581,-0.102369 1.049475,-0.1444 1.572924,-0.124029 z m -1.946816,4.873484 v 3.171633 H 74.62663 v 2.926669 h 3.042704 v 3.171633 h 3.042705 v -3.171633 h 3.042705 v -2.926669 h -3.042705 v -3.171633 z m -33.779178,3.171633 v 2.926669 h 9.141007 v -2.926669 z"
       id="path1"
       style="stroke-width:1.28928;fill:#438de6;fill-opacity:1"
       transform="matrix(1.5,0,0,1.5,5.7030624,-21.147094)" /></g></svg>
