<?xml version="1.0" encoding="UTF-8" standalone="no"?>
<svg
   height="128"
   viewBox="0 0 128 128"
   width="128"
   version="1.1"
   id="svg5248"
   xml:space="preserve"
   xmlns:xlink="http://www.w3.org/1999/xlink"
   xmlns="http://www.w3.org/2000/svg"
   xmlns:svg="http://www.w3.org/2000/svg"><defs
     id="defs5252"><filter
       style="color-interpolation-filters:sRGB"
       id="filter1302"
       x="-0.012000846"
       width="1.0240017"
       y="-0.011999155"
       height="1.0239983"><feGaussianBlur
         stdDeviation="2.0803224"
         id="feGaussianBlur1304" /></filter><linearGradient
       id="bg-gradient-2"><stop
         style="stop-color:#3584e4;stop-opacity:1"
         offset="0"
         id="stop13402" /><stop
         style="stop-color:#62a0ea;stop-opacity:1"
         offset="1"
         id="stop13404" /></linearGradient><clipPath
       clipPathUnits="userSpaceOnUse"
       id="clipPath1509"><path
         id="path1511"
         d="M 192,-164 H 88 c 0,0 -40,0 -40,40 V 4 h 416 v -96 c 0,0 0,-40 -40,-40 H 224 Z"
         style="display:inline;opacity:1;vector-effect:none;fill:#c9b8a7;fill-opacity:1;stroke:none;stroke-width:26.0669;stroke-linecap:butt;stroke-linejoin:miter;stroke-miterlimit:4;stroke-dasharray:none;stroke-dashoffset:0;stroke-opacity:1;marker:none;marker-start:none;marker-mid:none;marker-end:none;paint-order:normal;enable-background:new" /></clipPath><filter
       style="color-interpolation-filters:sRGB"
       id="filter1529"
       x="-0.10846153"
       width="1.2169231"
       y="-0.13428571"
       height="1.2685714"><feGaussianBlur
         stdDeviation="18.8"
         id="feGaussianBlur1531" /></filter><linearGradient
       id="linearGradient888"><stop
         style="stop-color:#99c1f1;stop-opacity:1"
         offset="0"
         id="stop884" /><stop
         style="stop-color:#c3e5e7;stop-opacity:1"
         offset="1"
         id="stop886" /></linearGradient><linearGradient
       xlink:href="#bg-gradient-2"
       id="linearGradient5836"
       gradientUnits="userSpaceOnUse"
       x1="64"
       y1="756"
       x2="480"
       y2="756" /><linearGradient
       xlink:href="#linearGradient888"
       id="linearGradient5838"
       gradientUnits="userSpaceOnUse"
       x1="152.89844"
       y1="-38.796875"
       x2="447.30859"
       y2="316" /></defs><linearGradient
     id="a"
     gradientUnits="userSpaceOnUse"
     x1="11.999989"
     x2="115.99999"
     y1="64"
     y2="64"><stop
       offset="0"
       stop-color="#3d3846"
       id="stop5214" /><stop
       offset="0.05"
       stop-color="#77767b"
       id="stop5216" /><stop
       offset="0.1"
       stop-color="#5e5c64"
       id="stop5218" /><stop
       offset="0.899999"
       stop-color="#504e56"
       id="stop5220" /><stop
       offset="0.95"
       stop-color="#77767b"
       id="stop5222" /><stop
       offset="1"
       stop-color="#3d3846"
       id="stop5224" /></linearGradient><linearGradient
     id="b"
     gradientUnits="userSpaceOnUse"
     x1="12"
     x2="112.04102"
     y1="60"
     y2="80.988281"><stop
       offset="0"
       stop-color="#77767b"
       id="stop5227" /><stop
       offset="0.384443"
       stop-color="#9a9996"
       id="stop5229" /><stop
       offset="0.720567"
       stop-color="#77767b"
       id="stop5231" /><stop
       offset="1"
       stop-color="#68666f"
       id="stop5233" /></linearGradient><g
     transform="matrix(0.2511615,0,0,0.2511615,-0.29292947,52.434794)"
     id="g5798"
     style="fill:#c9b8a7;fill-opacity:1;stroke:#a08f7f;stroke-opacity:1"><path
       id="path5786"
       d="m 88,-162 c 0,0 -40,0 -40,40 L 47.964844,6 h 0.0332 L 47.964844,254.0938 424,254 c 40,0 40,-40 40,-40 V 6 -42 -90 c 0,0 0,-40 -40,-40 H 224 l -32,-32 z"
       style="display:inline;opacity:0.2;fill:#000000;fill-opacity:1;stroke:none;stroke-width:26.0669;stroke-linecap:butt;stroke-linejoin:miter;stroke-miterlimit:4;stroke-dasharray:none;stroke-dashoffset:0;stroke-opacity:1;marker:none;marker-start:none;marker-mid:none;marker-end:none;paint-order:normal;filter:url(#filter1302);enable-background:new" /><path
       style="display:inline;opacity:1;fill:url(#linearGradient5836);fill-opacity:1;stroke:none;stroke-width:26.0669;stroke-linecap:butt;stroke-linejoin:miter;stroke-miterlimit:4;stroke-dasharray:none;stroke-dashoffset:0;stroke-opacity:1;marker:none;marker-start:none;marker-mid:none;marker-end:none;paint-order:normal;enable-background:new"
       d="M 208,672 H 104 c 0,0 -40,0 -40,40 v 128 h 416 v -96 c 0,0 0,-40 -40,-40 H 240 Z"
       transform="translate(-16,-836)"
       id="path5788" /><path
       id="path5790"
       d="m 256,-80 -32,32 H 88 c 0,0 -40,0 -40,40 v 264 h 376 c 40,0 40,-40 40,-40 V -40 c 0,-40 -40,-40 -40,-40 z"
       style="display:inline;opacity:0.1;fill:#000000;fill-opacity:1;stroke:none;stroke-width:26.0669;stroke-linecap:butt;stroke-linejoin:miter;stroke-miterlimit:4;stroke-dasharray:none;stroke-dashoffset:0;stroke-opacity:1;marker:none;marker-start:none;marker-mid:none;marker-end:none;paint-order:normal;filter:url(#filter1529);enable-background:new"
       clip-path="url(#clipPath1509)" /><path
       style="display:inline;opacity:1;fill:url(#linearGradient5838);fill-opacity:1;stroke:none;stroke-width:26.0669;stroke-linecap:butt;stroke-linejoin:miter;stroke-miterlimit:4;stroke-dasharray:none;stroke-dashoffset:0;stroke-opacity:1;marker:none;marker-start:none;marker-mid:none;marker-end:none;paint-order:normal;enable-background:new"
       d="m 256,-84 -32,32 H 88 c 0,0 -40,0 -40,40 v 264 h 376 c 40,0 40,-40 40,-40 V -44 c 0,-40 -40,-40 -40,-40 z"
       id="path5792" /><path
       style="font-variation-settings:normal;display:inline;opacity:1;fill:#99c1f1;fill-opacity:1;stroke:none;stroke-width:26.0669;stroke-linecap:butt;stroke-linejoin:miter;stroke-miterlimit:4;stroke-dasharray:none;stroke-dashoffset:0;stroke-opacity:1;marker:none;marker-start:none;marker-mid:none;marker-end:none;paint-order:normal;enable-background:new;stop-color:#000000;stop-opacity:1"
       d="m 480,1042 c 0,0 0,40 -40,40 l -375.998047,0.094 -0.0039,6 L 440,1088 c 40,0 40,-40 40,-40 z"
       transform="translate(-16,-836)"
       id="path5794" /><path
       style="display:inline;opacity:0.3;fill:#ffffff;fill-opacity:1;stroke:none;stroke-width:26.0669;stroke-linecap:butt;stroke-linejoin:miter;stroke-miterlimit:4;stroke-dasharray:none;stroke-dashoffset:0;stroke-opacity:1;marker:none;marker-start:none;marker-mid:none;marker-end:none;paint-order:normal;enable-background:new"
       d="m 272,752 -32,32 H 104 c 0,0 -40,0 -40,40 v 4 c 0,-40 40,-42 40,-42 h 136.59099 l 32,-32 H 440 c 5.38035,0 40,2 40,42 v -4 c 0,-40 -40,-40 -40,-40 z"
       id="path5796"
       transform="translate(-16,-836)" /></g><g
     id="g2247"
     transform="matrix(0.0548493,0,0,0.0548493,156.37065,111.45179)"
     style="display:inline;fill:#438de6;fill-opacity:1"><path
       d="m -1371.9972,-1129.1745 c -51.2313,0 -92.982,41.3861 -92.982,92.6174 0,51.23131 41.5684,92.61744 92.982,92.61744 51.2313,0 92.982,-41.38613 92.982,-92.61744 0,-51.2313 -41.5684,-92.6174 -92.982,-92.6174 z m -723.8014,195.07999 c 11.8871,11.88712 19.508,25.34217 22.7897,40.65686 1.8232,8.53247 2.7348,24.61289 2.7348,47.94956 v 503.19693 c -10e-5,23.51899 -0.9116,39.38063 -2.7348,47.94957 -3.3546,15.24176 -10.9755,28.8062 -22.7897,40.65685 h 215.1349 c -17.0649,-17.06494 -25.5244,-46.85565 -25.5244,-89.15337 v -182.31773 l 131.998,180.12992 c 23.1543,31.72328 34.6404,55.97154 34.6404,72.74477 -5e-4,5.48777 -0.9116,11.72303 -2.7348,18.77873 h 235.1899 c -9.754,-7.62088 -17.2108,-14.16609 -22.4251,-19.69032 -19.1434,-21.33117 -35.005,-40.47453 -47.5849,-57.6124 l -206.0191,-282.59248 171.7433,-213.31174 c 17.6666,-21.87813 30.0825,-37.0105 37.0105,-45.2148 26.2538,-31.35865 47.9496,-51.96055 65.2698,-61.62339 h -229.7204 c 1.5224,3.66458 2.279,8.53247 2.279,14.62188 -5e-4,16.755 -13.4003,42.11539 -40.2922,75.84417 l -131.0865,165.90914 v -167.73231 c -2e-4,-42.1154 8.5325,-71.65087 25.5245,-88.60642 z m 623.5267,180.49456 c 2.5159,2.82592 4.7949,5.70654 6.8186,8.66009 2.042,2.95355 3.8469,5.96179 5.3966,9.04296 1.5607,3.08117 2.8807,6.23526 3.9563,9.46229 1.0848,3.20879 1.9326,6.50874 2.5343,9.84516 0.3044,1.59892 0.5724,3.68281 0.8022,6.25349 0.2297,2.57068 0.4229,5.63362 0.5743,9.17059 0.3044,7.09215 0.4539,16.11688 0.4539,27.16534 v 339.11097 c 0,10.97553 -0.1495,20.05496 -0.4539,27.16535 -0.1532,3.57342 -0.3465,6.67283 -0.5743,9.2982 -0.2279,2.62538 -0.4978,4.79496 -0.8022,6.45405 -0.3045,1.71379 -0.66,3.40934 -1.0903,5.08666 -0.4285,1.6755 -0.9152,3.31819 -1.4677,4.95905 -0.5524,1.63721 -1.1704,3.26348 -1.8414,4.84965 -0.6764,1.60075 -1.4257,3.17233 -2.2242,4.74026 -1.599,3.11763 -3.4459,6.16234 -5.5425,9.13412 -2.0967,2.97178 -4.4303,5.87063 -7.0192,8.67832 h 200.5495 c -2.5889,-2.82592 -4.9226,-5.72478 -7.0193,-8.67832 -2.0966,-2.97178 -3.938,-6.01649 -5.5424,-9.13412 -0.8004,-1.56064 -1.5333,-3.13587 -2.2061,-4.74026 -0.6764,-1.59893 -1.2944,-3.22703 -1.8414,-4.84965 -0.5524,-1.63722 -1.0392,-3.28172 -1.4676,-4.95905 -0.4285,-1.6755 -0.8004,-3.37287 -1.1049,-5.08666 -0.3045,-1.6755 -0.5725,-3.82867 -0.8022,-6.45405 -0.2297,-2.62537 -0.423,-5.72478 -0.5743,-9.2982 -0.3045,-7.16509 -0.454,-16.22628 -0.454,-27.16535 v -419.33077 z"
       id="path1-5"
       style="fill:#438de6;fill-opacity:1;stroke-width:18.2318" /></g></svg>
