<?xml version="1.0" encoding="UTF-8" standalone="no"?>
<svg
   height="128"
   viewBox="0 0 128 128"
   width="128"
   version="1.1"
   id="svg5248"
   xml:space="preserve"
   xmlns:xlink="http://www.w3.org/1999/xlink"
   xmlns="http://www.w3.org/2000/svg"
   xmlns:svg="http://www.w3.org/2000/svg"><defs
     id="defs5252"><filter
       style="color-interpolation-filters:sRGB"
       id="filter1302"
       x="-0.012000846"
       width="1.0240017"
       y="-0.011999155"
       height="1.0239983"><feGaussianBlur
         stdDeviation="2.0803224"
         id="feGaussianBlur1304" /></filter><linearGradient
       id="bg-gradient-2"><stop
         style="stop-color:#3584e4;stop-opacity:1"
         offset="0"
         id="stop13402" /><stop
         style="stop-color:#62a0ea;stop-opacity:1"
         offset="1"
         id="stop13404" /></linearGradient><clipPath
       clipPathUnits="userSpaceOnUse"
       id="clipPath1509"><path
         id="path1511"
         d="M 192,-164 H 88 c 0,0 -40,0 -40,40 V 4 h 416 v -96 c 0,0 0,-40 -40,-40 H 224 Z"
         style="display:inline;opacity:1;vector-effect:none;fill:#c9b8a7;fill-opacity:1;stroke:none;stroke-width:26.0669;stroke-linecap:butt;stroke-linejoin:miter;stroke-miterlimit:4;stroke-dasharray:none;stroke-dashoffset:0;stroke-opacity:1;marker:none;marker-start:none;marker-mid:none;marker-end:none;paint-order:normal;enable-background:new" /></clipPath><filter
       style="color-interpolation-filters:sRGB"
       id="filter1529"
       x="-0.10846153"
       width="1.2169231"
       y="-0.13428571"
       height="1.2685714"><feGaussianBlur
         stdDeviation="18.8"
         id="feGaussianBlur1531" /></filter><linearGradient
       id="linearGradient888"><stop
         style="stop-color:#99c1f1;stop-opacity:1"
         offset="0"
         id="stop884" /><stop
         style="stop-color:#c3e5e7;stop-opacity:1"
         offset="1"
         id="stop886" /></linearGradient><linearGradient
       xlink:href="#bg-gradient-2"
       id="linearGradient5836"
       gradientUnits="userSpaceOnUse"
       x1="64"
       y1="756"
       x2="480"
       y2="756"
       gradientTransform="matrix(0.2511615,0,0,0.2511615,-222.42944,-48.902324)" /><linearGradient
       xlink:href="#linearGradient888"
       id="linearGradient5838"
       gradientUnits="userSpaceOnUse"
       x1="152.89844"
       y1="-38.796875"
       x2="447.30859"
       y2="316"
       gradientTransform="matrix(0.2511615,0,0,0.2511615,-218.41086,161.06869)" /><linearGradient
       xlink:href="#linearGradient2023"
       id="linearGradient2025"
       x1="2689.252"
       y1="-1106.803"
       x2="2918.0698"
       y2="-1106.803"
       gradientUnits="userSpaceOnUse" /><linearGradient
       id="linearGradient2023"><stop
         style="stop-color:#62a0ea;stop-opacity:1;"
         offset="0"
         id="stop2019" /><stop
         style="stop-color:#afd4ff;stop-opacity:1;"
         offset="0.05769911"
         id="stop2795" /><stop
         style="stop-color:#62a0ea;stop-opacity:1;"
         offset="0.12220427"
         id="stop2797" /><stop
         style="stop-color:#62a0ea;stop-opacity:1;"
         offset="0.87330586"
         id="stop2793" /><stop
         style="stop-color:#c0d5ea;stop-opacity:1;"
         offset="0.95599729"
         id="stop2791" /><stop
         style="stop-color:#62a0ea;stop-opacity:1;"
         offset="1"
         id="stop2021" /></linearGradient><style
       id="current-color-scheme"
       type="text/css">
   .ColorScheme-Text { color:#444444; } .ColorScheme-Highlight { color:#4285f4; } .ColorScheme-NeutralText { color:#ff9800; } .ColorScheme-PositiveText { color:#4caf50; } .ColorScheme-NegativeText { color:#f44336; }
  </style></defs><linearGradient
     id="a"
     gradientUnits="userSpaceOnUse"
     x1="11.999989"
     x2="115.99999"
     y1="64"
     y2="64"><stop
       offset="0"
       stop-color="#3d3846"
       id="stop5214" /><stop
       offset="0.05"
       stop-color="#77767b"
       id="stop5216" /><stop
       offset="0.1"
       stop-color="#5e5c64"
       id="stop5218" /><stop
       offset="0.899999"
       stop-color="#504e56"
       id="stop5220" /><stop
       offset="0.95"
       stop-color="#77767b"
       id="stop5222" /><stop
       offset="1"
       stop-color="#3d3846"
       id="stop5224" /></linearGradient><linearGradient
     id="b"
     gradientUnits="userSpaceOnUse"
     x1="12"
     x2="112.04102"
     y1="60"
     y2="80.988281"><stop
       offset="0"
       stop-color="#77767b"
       id="stop5227" /><stop
       offset="0.384443"
       stop-color="#9a9996"
       id="stop5229" /><stop
       offset="0.720567"
       stop-color="#77767b"
       id="stop5231" /><stop
       offset="1"
       stop-color="#68666f"
       id="stop5233" /></linearGradient><g
     id="g760"
     style="display:inline;stroke-width:1.26428;enable-background:new"
     transform="matrix(0.45451006,0,0,0.45552152,-1210.2921,616.15659)"><path
       id="rect1135"
       style="fill:#438de6;fill-opacity:1;stroke-width:8.79091;stroke-linecap:round;stop-color:#000000"
       d="m 2711.2064,-1326.3316 c -12.1618,0 -21.9544,9.791 -21.9544,21.9528 v 188.867 c 0,12.1618 9.7926,21.9528 21.9544,21.9528 h 184.9089 c 12.1619,0 21.9545,-9.791 21.9545,-21.9528 v -158.2547 a 26.343462,26.343462 45 0 0 -26.3435,-26.3435 h -101.2664 a 14.283764,14.283764 31.638659 0 1 -12.7581,-7.8607 l -3.3076,-6.5699 a 21.425501,21.425501 31.638659 0 0 -19.1371,-11.791 z" /><path
       id="path1953"
       style="fill:url(#linearGradient2025);fill-opacity:1;stroke-width:8.79091;stroke-linecap:round;stop-color:#000000"
       d="m 2808.014,-1273.6447 c -6.0429,0 -11.5016,2.4179 -15.4646,6.3426 -5.0031,4.9549 -11.8483,11.2197 -18.9936,11.2197 h -62.3494 c -12.1618,0 -21.9544,9.791 -21.9544,21.9528 v 118.6179 c 0,12.1618 9.7926,21.9528 21.9544,21.9528 h 184.9089 c 12.1619,0 21.9545,-9.791 21.9545,-21.9528 v -105.4461 -13.1718 -17.5623 c 0,-12.1618 -9.7926,-21.9528 -21.9545,-21.9528 z" /><path
       id="rect1586"
       style="fill:#a4caee;fill-opacity:1;stroke-width:8.79091;stroke-linecap:round;stop-color:#000000"
       d="m 2808.014,-1282.4259 c -6.0429,0 -11.5016,2.4179 -15.4646,6.3426 -5.0031,4.9549 -11.8483,11.2197 -18.9936,11.2197 h -62.3494 c -12.1618,0 -21.9544,9.791 -21.9544,21.9528 v 122.8867 c 0,12.1618 9.7926,21.9528 21.9544,21.9528 h 184.9089 c 12.1619,0 21.9545,-9.791 21.9545,-21.9528 v -109.7149 -13.1718 -17.5623 c 0,-12.1618 -9.7926,-21.9528 -21.9545,-21.9528 z" /></g><g
     id="g2247"
     transform="matrix(0.0365662,0,0,0.0365662,125.57747,100.11765)"
     style="fill:#438de6;fill-opacity:1"><path
       id="path14"
       style="clip-rule:evenodd;fill:#438de6;fill-opacity:1;fill-rule:nonzero;stroke-width:0.710439;stroke-linejoin:round;stroke-miterlimit:2"
       d="m 56.409218,80.292819 c 0.0093,0.525721 0.1769,1.547319 0.428394,2.345129 0.52857,1.688695 1.425141,3.250933 2.672674,4.627746 1.280212,1.415179 2.856678,2.551867 4.677534,3.358916 1.913922,0.847543 3.987697,1.279484 6.141749,1.275932 2.150501,-0.003 4.224276,-0.443312 6.138198,-1.297247 1.820856,-0.814865 3.395902,-1.956526 4.673984,-3.372412 1.246821,-1.382498 2.141974,-2.947577 2.671962,-4.636268 0.266414,-0.853225 0.43479,-1.719242 0.50228,-2.588098 0.06608,-0.85607 0.03837,-1.713555 -0.08313,-2.570338 -0.237293,-1.66951 -0.814867,-3.23601 -1.704341,-4.663975 -0.813453,-1.312166 -1.862061,-2.46093 -3.108882,-3.427825 l 0.003,-0.0022 -12.582593,-9.661142 c -0.01133,-0.0086 -0.02064,-0.01762 -0.03268,-0.02558 -0.825531,-0.633705 -2.213731,-0.631575 -3.121671,0.0038 -0.917888,0.64223 -1.023033,1.704322 -0.206026,2.374258 l -0.0038,0.0038 5.248014,4.267555 -15.995546,0.01712 h -0.0214 c -1.322127,0.0015 -2.5931,0.868858 -2.844597,1.965051 -0.258601,1.116796 0.639395,2.043195 2.014094,2.04817 l -0.0022,0.005 8.107534,-0.01561 -14.467389,11.10474 c -0.01838,0.01359 -0.03837,0.02772 -0.05541,0.04121 -1.364752,1.045044 -1.805935,2.782756 -0.946305,3.882498 0.872418,1.118221 2.72738,1.120351 4.106341,0.0063 l 7.895826,-6.462073 c 0,0 -0.115097,0.872406 -0.105858,1.395994 z m 20.289443,2.921291 c -1.626908,1.657434 -3.904577,2.597334 -6.369092,2.602306 -2.468067,0.0043 -4.745735,-0.927112 -6.372643,-2.581704 -0.79498,-0.806341 -1.378961,-1.73416 -1.739155,-2.72237 -0.353087,-0.971157 -0.490204,-2.001993 -0.399267,-3.042062 0.08597,-1.016627 0.388613,-1.986364 0.871711,-2.863744 0.474573,-0.862465 1.128179,-1.641806 1.935237,-2.301084 1.581438,-1.288723 3.594822,-1.986366 5.700565,-1.989206 2.107873,-0.003 4.11984,0.688407 5.7027,1.972863 0.805638,0.656441 1.458532,1.43294 1.933105,2.293979 0.485233,0.876671 0.785744,1.842858 0.875261,2.862327 0.08952,1.03865 -0.04761,2.068063 -0.400687,3.039932 -0.360902,0.991048 -0.942755,1.918872 -1.737735,2.728763 z M 65.069477,77.571874 c 0.0753,-1.343428 0.733174,-2.527003 1.725656,-3.366023 0.973305,-0.824099 2.283351,-1.327791 3.712759,-1.327791 1.427982,0 2.738034,0.503692 3.712045,1.327791 0.991775,0.83902 1.649643,2.022595 1.725657,3.364598 0.0753,1.380368 -0.479546,2.662695 -1.452848,3.613251 -0.992482,0.966896 -2.404126,1.573604 -3.984854,1.573604 -1.580728,0 -2.995215,-0.606708 -3.986987,-1.573604 -0.974012,-0.950556 -1.527447,-2.232883 -1.451428,-3.611826 z"
       transform="matrix(27.34766,0,0,27.34766,-3434.2499,-2737.9834)" /></g></svg>
