<?xml version="1.0" encoding="UTF-8" standalone="no"?>
<svg
   height="128"
   viewBox="0 0 128 128"
   width="128"
   version="1.1"
   id="svg23"
   xml:space="preserve"
   xmlns:xlink="http://www.w3.org/1999/xlink"
   xmlns="http://www.w3.org/2000/svg"
   xmlns:svg="http://www.w3.org/2000/svg"><defs
     id="defs27"><mask
       id="holes"><rect
         x="-60"
         y="-60"
         width="120"
         height="120"
         fill="#ffffff"
         id="rect1240" /><circle
         id="hole"
         cy="-40"
         r="3"
         cx="0" /><use
         xlink:href="#hole"
         transform="rotate(72)"
         id="use1243" /><use
         xlink:href="#hole"
         transform="rotate(144)"
         id="use1245" /><use
         xlink:href="#hole"
         transform="rotate(-144)"
         id="use1247" /><use
         xlink:href="#hole"
         transform="rotate(-72)"
         id="use1249" /></mask><mask
       id="holes-3"><rect
         x="-60"
         y="-60"
         width="120"
         height="120"
         fill="#ffffff"
         id="rect4455" /><circle
         id="hole-6"
         cy="-40"
         r="3"
         cx="0" /><use
         xlink:href="#hole-6"
         transform="rotate(72)"
         id="use4458" /><use
         xlink:href="#hole-6"
         transform="rotate(144)"
         id="use4460" /><use
         xlink:href="#hole-6"
         transform="rotate(-144)"
         id="use4462" /><use
         xlink:href="#hole-6"
         transform="rotate(-72)"
         id="use4464" /></mask><mask
       id="holes-36"><rect
         x="-60"
         y="-60"
         width="120"
         height="120"
         fill="#ffffff"
         id="rect946" /><circle
         id="hole-7"
         cy="-40"
         r="3"
         cx="0" /><use
         xlink:href="#hole-7"
         transform="rotate(72)"
         id="use949" /><use
         xlink:href="#hole-7"
         transform="rotate(144)"
         id="use951" /><use
         xlink:href="#hole-7"
         transform="rotate(-144)"
         id="use953" /><use
         xlink:href="#hole-7"
         transform="rotate(-72)"
         id="use955" /></mask><mask
       id="holes-9"><rect
         x="-60"
         y="-60"
         width="120"
         height="120"
         fill="#ffffff"
         id="rect4023" /><circle
         id="hole-3"
         cy="-40"
         r="3"
         cx="0" /><use
         xlink:href="#hole-3"
         transform="rotate(72)"
         id="use4026" /><use
         xlink:href="#hole-3"
         transform="rotate(144)"
         id="use4028" /><use
         xlink:href="#hole-3"
         transform="rotate(-144)"
         id="use4030" /><use
         xlink:href="#hole-3"
         transform="rotate(-72)"
         id="use4032" /></mask><mask
       id="holes-1"><rect
         x="-60"
         y="-60"
         width="120"
         height="120"
         fill="#ffffff"
         id="rect5879" /><circle
         id="hole-8"
         cy="-40"
         r="3"
         cx="0" /><use
         xlink:href="#hole-8"
         transform="rotate(72)"
         id="use5882" /><use
         xlink:href="#hole-8"
         transform="rotate(144)"
         id="use5884" /><use
         xlink:href="#hole-8"
         transform="rotate(-144)"
         id="use5886" /><use
         xlink:href="#hole-8"
         transform="rotate(-72)"
         id="use5888" /></mask><mask
       id="holes-0"><rect
         x="-60"
         y="-60"
         width="120"
         height="120"
         fill="#ffffff"
         id="rect1240-7" /><circle
         id="hole-86"
         cy="-40"
         r="3"
         cx="0" /><use
         xlink:href="#hole-86"
         transform="rotate(72)"
         id="use1243-8" /><use
         xlink:href="#hole-86"
         transform="rotate(144)"
         id="use1245-8" /><use
         xlink:href="#hole-86"
         transform="rotate(-144)"
         id="use1247-4" /><use
         xlink:href="#hole-86"
         transform="rotate(-72)"
         id="use1249-3" /></mask><mask
       id="holes-3-4"><rect
         x="-60"
         y="-60"
         width="120"
         height="120"
         fill="#ffffff"
         id="rect4455-9" /><circle
         id="hole-6-0"
         cy="-40"
         r="3"
         cx="0" /><use
         xlink:href="#hole-6-0"
         transform="rotate(72)"
         id="use4458-9" /><use
         xlink:href="#hole-6-0"
         transform="rotate(144)"
         id="use4460-1" /><use
         xlink:href="#hole-6-0"
         transform="rotate(-144)"
         id="use4462-7" /><use
         xlink:href="#hole-6-0"
         transform="rotate(-72)"
         id="use4464-7" /></mask><mask
       id="holes-36-5"><rect
         x="-60"
         y="-60"
         width="120"
         height="120"
         fill="#ffffff"
         id="rect946-9" /><circle
         id="hole-7-7"
         cy="-40"
         r="3"
         cx="0" /><use
         xlink:href="#hole-7-7"
         transform="rotate(72)"
         id="use949-5" /><use
         xlink:href="#hole-7-7"
         transform="rotate(144)"
         id="use951-3" /><use
         xlink:href="#hole-7-7"
         transform="rotate(-144)"
         id="use953-8" /><use
         xlink:href="#hole-7-7"
         transform="rotate(-72)"
         id="use955-8" /></mask><mask
       id="holes-9-9"><rect
         x="-60"
         y="-60"
         width="120"
         height="120"
         fill="#ffffff"
         id="rect4023-4" /><circle
         id="hole-3-6"
         cy="-40"
         r="3"
         cx="0" /><use
         xlink:href="#hole-3-6"
         transform="rotate(72)"
         id="use4026-9" /><use
         xlink:href="#hole-3-6"
         transform="rotate(144)"
         id="use4028-2" /><use
         xlink:href="#hole-3-6"
         transform="rotate(-144)"
         id="use4030-2" /><use
         xlink:href="#hole-3-6"
         transform="rotate(-72)"
         id="use4032-4" /></mask><mask
       id="holes-1-0"><rect
         x="-60"
         y="-60"
         width="120"
         height="120"
         fill="#ffffff"
         id="rect5879-5" /><circle
         id="hole-8-1"
         cy="-40"
         r="3"
         cx="0" /><use
         xlink:href="#hole-8-1"
         transform="rotate(72)"
         id="use5882-1" /><use
         xlink:href="#hole-8-1"
         transform="rotate(144)"
         id="use5884-0" /><use
         xlink:href="#hole-8-1"
         transform="rotate(-144)"
         id="use5886-8" /><use
         xlink:href="#hole-8-1"
         transform="rotate(-72)"
         id="use5888-5" /></mask></defs><linearGradient
     id="a"
     gradientTransform="matrix(0.45451,0,0,0.455522,-1210.2921,616.17261)"
     gradientUnits="userSpaceOnUse"
     x1="2689.252"
     x2="2918.0698"
     y1="-1106.803"
     y2="-1106.803"><stop
       offset="0"
       stop-color="#62a0ea"
       id="stop2" /><stop
       offset="0.0576991"
       stop-color="#afd4ff"
       id="stop4" /><stop
       offset="0.122204"
       stop-color="#62a0ea"
       id="stop6" /><stop
       offset="0.873306"
       stop-color="#62a0ea"
       id="stop8" /><stop
       offset="0.955997"
       stop-color="#c0d5ea"
       id="stop10" /><stop
       offset="1"
       stop-color="#62a0ea"
       id="stop12" /></linearGradient><path
     d="M 21.976562,12 C 16.449219,12 12,16.460938 12,22 v 86.03125 c 0,5.54297 4.449219,10 9.976562,10 h 84.042968 c 5.53125,0 9.98047,-4.45703 9.98047,-10 V 35.945312 c 0,-6.628906 -5.35937,-12 -11.97266,-12 H 58 c -2.453125,0 -4.695312,-1.386718 -5.796875,-3.582031 L 50.699219,17.371094 C 49.042969,14.078125 45.679688,12 42,12 Z m 0,0"
     fill="#438de6"
     id="path15"
     style="display:inline" /><path
     d="M 65.976562,36 C 63.230469,36 60.75,37.101562 58.949219,38.890625 56.675781,41.144531 53.566406,44 50.316406,44 H 21.976562 C 16.449219,44 12,48.460938 12,54 v 54.03125 c 0,5.54297 4.449219,10 9.976562,10 h 84.042968 c 5.53125,0 9.98047,-4.45703 9.98047,-10 V 46 c 0,-5.539062 -4.44922,-10 -9.98047,-10 z m 0,0"
     fill="url(#a)"
     id="path17"
     style="display:inline;fill:url(#a)" /><path
     d="M 65.976562,32 C 63.230469,32 60.75,33.101562 58.949219,34.890625 56.675781,37.144531 53.566406,40 50.316406,40 H 21.976562 C 16.449219,40 12,44.460938 12,50 v 55.97656 c 0,5.53907 4.449219,10 9.976562,10 h 84.042968 c 5.53125,0 9.98047,-4.46093 9.98047,-10 V 42 c 0,-5.539062 -4.44922,-10 -9.98047,-10 z m 0,0"
     fill="#a4caee"
     id="path19"
     style="display:inline" /><g
     style="display:none;fill:#438de6;fill-opacity:1"
     id="g4338"
     transform="matrix(1.1140053,0,0,1.1140053,46.176472,59.168146)"><path
       d="M 7.415,7.344 C 11.865,2.929 17.608,0.32 19.814,2.545 22.016,4.766 19.683,10.174 15.224,14.587 10.771,19.001 5.098,21.752 2.898,19.532 0.691,17.311 2.954,11.763 7.412,7.348 Z M 1.004,24.859 Z M 26.192,1.108 c 2.718,0.255 4.828,2.525 4.828,5.288 0,0.237 -0.016,0.471 -0.046,0.7 L 30.977,7.069 30.996,7.03 29.29,29.384 7.135,30.904 c -0.197,0.025 -0.426,0.04 -0.658,0.04 -3.036,0 -5.498,-2.461 -5.498,-5.498 0,-0.184 0.009,-0.367 0.027,-0.546 l -0.002,0.023 2.056,-3.749 4.151,9.695 3.505,-11.427 -0.037,0.009 0.02,-0.037 11.565,3.694 -1.744,-6.787 -1.237,-4.874 11.022,-0.711 -0.769,-0.637 -7.913,-6.451 4.572,-2.55 z"
       id="path4329"
       style="fill:#438de6;fill-opacity:1" /></g><g
     id="g3693"
     transform="matrix(0.46293629,0,0,0.46293629,16.917974,34.041781)"
     style="display:inline;fill:#438de6;fill-opacity:1;stroke:none;stroke-opacity:1"><path
       id="path3691"
       style="fill:#438de6;fill-opacity:1;stroke:none;stroke-width:0.625535;stroke-opacity:1"
       class="st0"
       d="m 121.43782,116.82885 c -5.69236,-0.12511 -10.8843,-1.7515 -15.26305,-5.50471 -3.69065,-3.19022 -6.00513,-7.2562 -6.755774,-12.07282 -1.125963,-7.068544 0.813194,-13.323893 5.066834,-18.891154 4.5664,-6.005135 10.07111,-9.132809 17.51498,-10.446433 6.38045,-1.125963 12.38559,-0.500428 17.82774,3.190228 4.94173,3.377889 8.00685,7.944294 8.82004,13.949429 1.06341,8.444721 -1.37617,15.32561 -7.19365,21.20563 -4.12853,4.19109 -9.19536,6.81833 -15.01284,8.00685 -1.68894,0.31277 -3.37788,0.37532 -5.00428,0.56298 z m 14.88774,-25.271609 c -0.0626,-0.813195 -0.0626,-1.43873 -0.18766,-2.064265 -1.12597,-6.192796 -6.81834,-9.695791 -12.76092,-8.319614 -5.81747,1.313623 -9.57068,5.004279 -10.94686,10.884307 -1.12596,4.879172 1.25107,9.820901 5.75492,11.822611 3.44045,1.50128 6.88089,1.31362 10.19622,-0.37532 4.94173,-2.56469 7.63153,-6.568119 7.9443,-11.947719 z m -35.59294,-9.32047 c -3.940871,1.000856 -6.630671,1.751498 -10.508987,2.752353 -0.938302,0.250214 -1.000856,0.312768 -1.814051,-0.625534 -0.938303,-1.06341 -1.626391,-1.751498 -2.940014,-2.377033 -3.94087,-1.939158 -7.756633,-1.376177 -11.322182,0.938302 -4.253638,2.752354 -6.44301,6.818331 -6.380456,11.885164 0.06255,5.004279 3.502995,9.132807 8.444721,9.820897 4.253637,0.56298 7.819186,-0.9383 10.634093,-4.12853 0.562982,-0.688088 1.06341,-1.43873 1.688945,-2.314479 -2.251926,0 -5.066833,0 -12.072824,0 -1.313623,0 -1.626391,-0.813195 -1.188516,-1.876605 0.813195,-1.939158 2.314479,-5.191939 3.190228,-6.81833 0.18766,-0.375321 0.625535,-1.000856 1.563837,-1.000856 3.190228,0 14.950284,0 22.769466,0 -0.1251,1.688944 -0.1251,3.377888 -0.37532,5.066833 -0.68808,4.503851 -2.37703,8.632377 -5.129383,12.260487 -4.503851,5.94258 -10.383879,9.63323 -17.827744,10.63409 -6.130243,0.8132 -11.82261,-0.37532 -16.826889,-4.12853 -4.628959,-3.503 -7.256205,-8.13195 -7.944294,-13.886875 -0.813195,-6.818331 1.188517,-12.948573 5.317047,-18.328173 4.441298,-5.817474 10.321326,-9.50813 17.514977,-10.821754 5.880028,-1.063409 11.509843,-0.375321 16.576675,3.065121 3.315335,2.189373 5.692368,5.19194 7.256201,8.820043 0.37533,0.562981 0.12511,0.875748 -0.62553,1.063409 z" /></g></svg>
