<?xml version="1.0" encoding="UTF-8" standalone="no"?>
<svg
   height="128"
   viewBox="0 0 128 128"
   width="128"
   version="1.1"
   id="svg5248"
   xml:space="preserve"
   xmlns:xlink="http://www.w3.org/1999/xlink"
   xmlns="http://www.w3.org/2000/svg"
   xmlns:svg="http://www.w3.org/2000/svg"><defs
     id="defs5252"><filter
       style="color-interpolation-filters:sRGB"
       id="filter1302"
       x="-0.012000846"
       width="1.0240017"
       y="-0.011999155"
       height="1.0239983"><feGaussianBlur
         stdDeviation="2.0803224"
         id="feGaussianBlur1304" /></filter><linearGradient
       id="bg-gradient-2"><stop
         style="stop-color:#3584e4;stop-opacity:1"
         offset="0"
         id="stop13402" /><stop
         style="stop-color:#62a0ea;stop-opacity:1"
         offset="1"
         id="stop13404" /></linearGradient><clipPath
       clipPathUnits="userSpaceOnUse"
       id="clipPath1509"><path
         id="path1511"
         d="M 192,-164 H 88 c 0,0 -40,0 -40,40 V 4 h 416 v -96 c 0,0 0,-40 -40,-40 H 224 Z"
         style="display:inline;opacity:1;vector-effect:none;fill:#c9b8a7;fill-opacity:1;stroke:none;stroke-width:26.0669;stroke-linecap:butt;stroke-linejoin:miter;stroke-miterlimit:4;stroke-dasharray:none;stroke-dashoffset:0;stroke-opacity:1;marker:none;marker-start:none;marker-mid:none;marker-end:none;paint-order:normal;enable-background:new" /></clipPath><filter
       style="color-interpolation-filters:sRGB"
       id="filter1529"
       x="-0.10846153"
       width="1.2169231"
       y="-0.13428571"
       height="1.2685714"><feGaussianBlur
         stdDeviation="18.8"
         id="feGaussianBlur1531" /></filter><linearGradient
       id="linearGradient888"><stop
         style="stop-color:#99c1f1;stop-opacity:1"
         offset="0"
         id="stop884" /><stop
         style="stop-color:#c3e5e7;stop-opacity:1"
         offset="1"
         id="stop886" /></linearGradient><linearGradient
       xlink:href="#bg-gradient-2"
       id="linearGradient5836"
       gradientUnits="userSpaceOnUse"
       x1="64"
       y1="756"
       x2="480"
       y2="756" /><linearGradient
       xlink:href="#linearGradient888"
       id="linearGradient5838"
       gradientUnits="userSpaceOnUse"
       x1="152.89844"
       y1="-38.796875"
       x2="447.30859"
       y2="316" /><style
       id="current-color-scheme"
       type="text/css">
   .ColorScheme-Text { color:#444444; } .ColorScheme-Highlight { color:#4285f4; } .ColorScheme-NeutralText { color:#ff9800; } .ColorScheme-PositiveText { color:#4caf50; } .ColorScheme-NegativeText { color:#f44336; }
  </style></defs><linearGradient
     id="a"
     gradientUnits="userSpaceOnUse"
     x1="11.999989"
     x2="115.99999"
     y1="64"
     y2="64"><stop
       offset="0"
       stop-color="#3d3846"
       id="stop5214" /><stop
       offset="0.05"
       stop-color="#77767b"
       id="stop5216" /><stop
       offset="0.1"
       stop-color="#5e5c64"
       id="stop5218" /><stop
       offset="0.899999"
       stop-color="#504e56"
       id="stop5220" /><stop
       offset="0.95"
       stop-color="#77767b"
       id="stop5222" /><stop
       offset="1"
       stop-color="#3d3846"
       id="stop5224" /></linearGradient><linearGradient
     id="b"
     gradientUnits="userSpaceOnUse"
     x1="12"
     x2="112.04102"
     y1="60"
     y2="80.988281"><stop
       offset="0"
       stop-color="#77767b"
       id="stop5227" /><stop
       offset="0.384443"
       stop-color="#9a9996"
       id="stop5229" /><stop
       offset="0.720567"
       stop-color="#77767b"
       id="stop5231" /><stop
       offset="1"
       stop-color="#68666f"
       id="stop5233" /></linearGradient><g
     transform="matrix(0.2511615,0,0,0.2511615,-0.29292947,52.434794)"
     id="g5798"
     style="fill:#c9b8a7;fill-opacity:1;stroke:#a08f7f;stroke-opacity:1"><path
       id="path5786"
       d="m 88,-162 c 0,0 -40,0 -40,40 L 47.964844,6 h 0.0332 L 47.964844,254.0938 424,254 c 40,0 40,-40 40,-40 V 6 -42 -90 c 0,0 0,-40 -40,-40 H 224 l -32,-32 z"
       style="display:inline;opacity:0.2;fill:#000000;fill-opacity:1;stroke:none;stroke-width:26.0669;stroke-linecap:butt;stroke-linejoin:miter;stroke-miterlimit:4;stroke-dasharray:none;stroke-dashoffset:0;stroke-opacity:1;marker:none;marker-start:none;marker-mid:none;marker-end:none;paint-order:normal;filter:url(#filter1302);enable-background:new" /><path
       style="display:inline;opacity:1;fill:url(#linearGradient5836);fill-opacity:1;stroke:none;stroke-width:26.0669;stroke-linecap:butt;stroke-linejoin:miter;stroke-miterlimit:4;stroke-dasharray:none;stroke-dashoffset:0;stroke-opacity:1;marker:none;marker-start:none;marker-mid:none;marker-end:none;paint-order:normal;enable-background:new"
       d="M 208,672 H 104 c 0,0 -40,0 -40,40 v 128 h 416 v -96 c 0,0 0,-40 -40,-40 H 240 Z"
       transform="translate(-16,-836)"
       id="path5788" /><path
       id="path5790"
       d="m 256,-80 -32,32 H 88 c 0,0 -40,0 -40,40 v 264 h 376 c 40,0 40,-40 40,-40 V -40 c 0,-40 -40,-40 -40,-40 z"
       style="display:inline;opacity:0.1;fill:#000000;fill-opacity:1;stroke:none;stroke-width:26.0669;stroke-linecap:butt;stroke-linejoin:miter;stroke-miterlimit:4;stroke-dasharray:none;stroke-dashoffset:0;stroke-opacity:1;marker:none;marker-start:none;marker-mid:none;marker-end:none;paint-order:normal;filter:url(#filter1529);enable-background:new"
       clip-path="url(#clipPath1509)" /><path
       style="display:inline;opacity:1;fill:url(#linearGradient5838);fill-opacity:1;stroke:none;stroke-width:26.0669;stroke-linecap:butt;stroke-linejoin:miter;stroke-miterlimit:4;stroke-dasharray:none;stroke-dashoffset:0;stroke-opacity:1;marker:none;marker-start:none;marker-mid:none;marker-end:none;paint-order:normal;enable-background:new"
       d="m 256,-84 -32,32 H 88 c 0,0 -40,0 -40,40 v 264 h 376 c 40,0 40,-40 40,-40 V -44 c 0,-40 -40,-40 -40,-40 z"
       id="path5792" /><path
       style="font-variation-settings:normal;display:inline;opacity:1;fill:#99c1f1;fill-opacity:1;stroke:none;stroke-width:26.0669;stroke-linecap:butt;stroke-linejoin:miter;stroke-miterlimit:4;stroke-dasharray:none;stroke-dashoffset:0;stroke-opacity:1;marker:none;marker-start:none;marker-mid:none;marker-end:none;paint-order:normal;enable-background:new;stop-color:#000000;stop-opacity:1"
       d="m 480,1042 c 0,0 0,40 -40,40 l -375.998047,0.094 -0.0039,6 L 440,1088 c 40,0 40,-40 40,-40 z"
       transform="translate(-16,-836)"
       id="path5794" /><path
       style="display:inline;opacity:0.3;fill:#ffffff;fill-opacity:1;stroke:none;stroke-width:26.0669;stroke-linecap:butt;stroke-linejoin:miter;stroke-miterlimit:4;stroke-dasharray:none;stroke-dashoffset:0;stroke-opacity:1;marker:none;marker-start:none;marker-mid:none;marker-end:none;paint-order:normal;enable-background:new"
       d="m 272,752 -32,32 H 104 c 0,0 -40,0 -40,40 v 4 c 0,-40 40,-42 40,-42 h 136.59099 l 32,-32 H 440 c 5.38035,0 40,2 40,42 v -4 c 0,-40 -40,-40 -40,-40 z"
       id="path5796"
       transform="translate(-16,-836)" /></g><g
     id="g2247"
     transform="matrix(0.0548493,0,0,0.0548493,156.37065,111.45179)"
     style="fill:#438de6;fill-opacity:1"><path
       id="path14"
       style="clip-rule:evenodd;fill:#438de6;fill-rule:nonzero;stroke-width:1.05912;stroke-linejoin:round;stroke-miterlimit:2;fill-opacity:1"
       d="m 51.04784,81.428768 c 0.01388,0.783743 0.263722,2.306741 0.638649,3.496115 0.787991,2.517505 2.124599,4.846486 3.98442,6.899038 1.908538,2.109748 4.258731,3.804322 6.973262,5.007468 2.853273,1.263521 5.944854,1.907451 9.156117,1.902161 3.205964,-0.004 6.297545,-0.66089 9.150818,-1.933938 2.71453,-1.214799 5.062607,-2.916785 6.967971,-5.027587 1.858759,-2.061027 3.193252,-4.394245 3.983356,-6.911743 0.397172,-1.271987 0.648186,-2.563043 0.7488,-3.858334 0.09852,-1.276229 0.0572,-2.554566 -0.123925,-3.831857 -0.353718,-2.488903 -1.214803,-4.824239 -2.54083,-6.953049 -1.212695,-1.956174 -2.775959,-3.66875 -4.634717,-5.110197 l 0.0045,-0.0033 -18.75812,-14.40282 c -0.01689,-0.01281 -0.03078,-0.02665 -0.04872,-0.03813 -1.230701,-0.944724 -3.300228,-0.941553 -4.653784,0.0056 -1.368386,0.957436 -1.525137,2.540801 -0.307144,3.539542 l -0.0056,0.0056 7.823733,6.362065 -23.846141,0.02553 h -0.0319 c -1.971025,0.0022 -3.86579,1.295294 -4.240722,2.929497 -0.38552,1.664917 0.95321,3.045993 3.00261,3.053413 l -0.0033,0.0076 12.086702,-0.02327 -21.567967,16.55493 c -0.0274,0.02026 -0.0572,0.04132 -0.08261,0.06144 -2.034571,1.55795 -2.692286,4.148531 -1.410751,5.788025 1.300601,1.667042 4.065977,1.670217 6.121729,0.0093 l 11.771089,-9.633651 c 0,0 -0.171587,1.300581 -0.157814,2.081146 z m 30.247482,4.355057 c -2.425392,2.470899 -5.820937,3.872103 -9.495034,3.879516 -3.679395,0.0064 -7.074942,-1.382138 -9.500334,-3.848803 -1.185155,-1.202091 -2.055753,-2.585283 -2.59273,-4.058507 -0.526382,-1.447799 -0.730796,-2.984567 -0.595228,-4.535098 0.128165,-1.51559 0.579346,-2.961273 1.299547,-4.269271 0.707494,-1.285761 1.681888,-2.447603 2.88505,-3.430452 2.357606,-1.921224 5.359156,-2.96127 8.498399,-2.965507 3.142416,-0.0045 6.141852,1.02628 8.501579,2.941142 1.201044,0.97862 2.174378,2.136225 2.881871,3.419862 0.723385,1.306943 1.171385,2.74733 1.304838,4.267158 0.133455,1.548413 -0.07097,3.083061 -0.597344,4.531924 -0.538032,1.477451 -1.405459,2.860651 -2.590614,4.068036 z M 63.958544,77.372384 c 0.112258,-2.002779 1.093015,-3.767251 2.572607,-5.018058 1.451001,-1.228569 3.404016,-1.979474 5.53498,-1.979474 2.128834,0 4.081857,0.750905 5.533914,1.979474 1.478536,1.250807 2.459284,3.015279 2.572606,5.015935 0.112245,2.057851 -0.714906,3.969542 -2.165903,5.386632 -1.479592,1.441445 -3.584069,2.345925 -5.940617,2.345925 -2.356551,0 -4.465267,-0.90448 -5.9438,-2.345925 -1.452056,-1.41709 -2.277115,-3.328781 -2.163787,-5.384509 z"
       transform="matrix(18.231773,0,0,18.231773,-2850.9142,-2031.9638)" /></g></svg>
