<?xml version="1.0" encoding="UTF-8" standalone="no"?>
<svg
   height="128"
   viewBox="0 0 128 128"
   width="128"
   version="1.1"
   id="svg5248"
   xmlns:xlink="http://www.w3.org/1999/xlink"
   xmlns="http://www.w3.org/2000/svg"
   xmlns:svg="http://www.w3.org/2000/svg">
  <defs
     id="defs5252">
    <linearGradient
       xlink:href="#linearGradient2023"
       id="linearGradient2025"
       x1="2689.252"
       y1="-1106.803"
       x2="2918.0698"
       y2="-1106.803"
       gradientUnits="userSpaceOnUse" />
    <linearGradient
       id="linearGradient2023">
      <stop
         style="stop-color:#62a0ea;stop-opacity:1;"
         offset="0"
         id="stop2019" />
      <stop
         style="stop-color:#afd4ff;stop-opacity:1;"
         offset="0.05769911"
         id="stop2795" />
      <stop
         style="stop-color:#62a0ea;stop-opacity:1;"
         offset="0.12220427"
         id="stop2797" />
      <stop
         style="stop-color:#62a0ea;stop-opacity:1;"
         offset="0.87330586"
         id="stop2793" />
      <stop
         style="stop-color:#c0d5ea;stop-opacity:1;"
         offset="0.95599729"
         id="stop2791" />
      <stop
         style="stop-color:#62a0ea;stop-opacity:1;"
         offset="1"
         id="stop2021" />
    </linearGradient>
  </defs>
  <linearGradient
     id="a"
     gradientUnits="userSpaceOnUse"
     x1="11.999989"
     x2="115.99999"
     y1="64"
     y2="64">
    <stop
       offset="0"
       stop-color="#3d3846"
       id="stop5214" />
    <stop
       offset="0.05"
       stop-color="#77767b"
       id="stop5216" />
    <stop
       offset="0.1"
       stop-color="#5e5c64"
       id="stop5218" />
    <stop
       offset="0.899999"
       stop-color="#504e56"
       id="stop5220" />
    <stop
       offset="0.95"
       stop-color="#77767b"
       id="stop5222" />
    <stop
       offset="1"
       stop-color="#3d3846"
       id="stop5224" />
  </linearGradient>
  <linearGradient
     id="b"
     gradientUnits="userSpaceOnUse"
     x1="12"
     x2="112.04102"
     y1="60"
     y2="80.988281">
    <stop
       offset="0"
       stop-color="#77767b"
       id="stop5227" />
    <stop
       offset="0.384443"
       stop-color="#9a9996"
       id="stop5229" />
    <stop
       offset="0.720567"
       stop-color="#77767b"
       id="stop5231" />
    <stop
       offset="1"
       stop-color="#68666f"
       id="stop5233" />
  </linearGradient>
  <g
     id="g760"
     style="display:inline;stroke-width:1.26428;enable-background:new"
     transform="matrix(0.45451006,0,0,0.45552152,-1210.2921,616.15659)">
    <path
       id="rect1135"
       style="fill:#438de6;fill-opacity:1;stroke-width:8.79091;stroke-linecap:round;stop-color:#000000"
       d="m 2711.2064,-1326.3316 c -12.1618,0 -21.9544,9.791 -21.9544,21.9528 v 188.867 c 0,12.1618 9.7926,21.9528 21.9544,21.9528 h 184.9089 c 12.1619,0 21.9545,-9.791 21.9545,-21.9528 v -158.2547 a 26.343462,26.343462 45 0 0 -26.3435,-26.3435 h -101.2664 a 14.283764,14.283764 31.638659 0 1 -12.7581,-7.8607 l -3.3076,-6.5699 a 21.425501,21.425501 31.638659 0 0 -19.1371,-11.791 z" />
    <path
       id="path1953"
       style="fill:url(#linearGradient2025);fill-opacity:1;stroke-width:8.79091;stroke-linecap:round;stop-color:#000000"
       d="m 2808.014,-1273.6447 c -6.0429,0 -11.5016,2.4179 -15.4646,6.3426 -5.0031,4.9549 -11.8483,11.2197 -18.9936,11.2197 h -62.3494 c -12.1618,0 -21.9544,9.791 -21.9544,21.9528 v 118.6179 c 0,12.1618 9.7926,21.9528 21.9544,21.9528 h 184.9089 c 12.1619,0 21.9545,-9.791 21.9545,-21.9528 v -105.4461 -13.1718 -17.5623 c 0,-12.1618 -9.7926,-21.9528 -21.9545,-21.9528 z" />
    <path
       id="rect1586"
       style="fill:#a4caee;fill-opacity:1;stroke-width:8.79091;stroke-linecap:round;stop-color:#000000"
       d="m 2808.014,-1282.4259 c -6.0429,0 -11.5016,2.4179 -15.4646,6.3426 -5.0031,4.9549 -11.8483,11.2197 -18.9936,11.2197 h -62.3494 c -12.1618,0 -21.9544,9.791 -21.9544,21.9528 v 122.8867 c 0,12.1618 9.7926,21.9528 21.9544,21.9528 h 184.9089 c 12.1619,0 21.9545,-9.791 21.9545,-21.9528 v -109.7149 -13.1718 -17.5623 c 0,-12.1618 -9.7926,-21.9528 -21.9545,-21.9528 z" />
  </g>
  <path
     id="path6-7"
     style="fill:#438de6;stroke-width:0.945727"
     d="m 66.284259,59.984865 c -0.27525,2.72e-4 -0.55179,0.01209 -0.82622,0.0038 h -4.06366 -10e-4 c -1.00682,-0.02323 -1.98511,0.699751 -2.19987,1.694463 -0.13466,0.554596 -0.0629,1.128355 -0.0815,1.69319 v 1.175048 h -7.00318 c -1.45773,0 -2.74084,0.786678 -3.57862,1.884151 -0.83778,1.097473 -1.30235,2.522246 -1.30235,4.068748 v 15.527696 c 0,1.546505 0.46456,2.97255 1.30235,4.070022 0.83778,1.097472 2.12089,1.882875 3.57862,1.882877 h 23.78359 c 1.45771,0 2.73955,-0.785405 3.57733,-1.882877 0.83779,-1.097472 1.30236,-2.523517 1.30236,-4.070022 V 70.504283 c 0,-1.546501 -0.46457,-2.971274 -1.30236,-4.068748 -0.83778,-1.097472 -2.11961,-1.88415 -3.57733,-1.88415 h -7.00192 c -0.007,-0.836863 0.0123,-1.674182 -0.0115,-2.510505 -0.0707,-0.960419 -0.82106,-1.822508 -1.77338,-1.993634 -0.27114,-0.05189 -0.54589,-0.06265 -0.82114,-0.06238 z m -4.77531,1.956716 c 0.0648,-5.82e-4 0.12958,0.0023 0.18715,0.0025 h 4.91279 c 0.31195,-0.0086 0.34822,0.327558 0.32591,0.562699 v 2.044559 h -5.8676 c 0.004,-0.78284 -0.007,-1.566481 0.008,-2.348824 0.0413,-0.226475 0.23982,-0.259233 0.43412,-0.26098 z m -11.44367,20.818596 h 27.87016 v 2.837684 h -12.46596 c 0.002,0.02915 0.004,0.05809 0.004,0.08784 v 0.26098 c 0,0.616316 -0.49634,1.112667 -1.11266,1.112667 h -0.72056 c -0.61632,0 -1.11267,-0.496351 -1.11267,-1.112667 v -0.26098 c 0,-0.02978 10e-4,-0.05867 0.004,-0.08784 h -12.46595 z" />
</svg>
