<?xml version="1.0" encoding="UTF-8" standalone="no"?>
<svg
   height="128"
   viewBox="0 0 128 128"
   width="128"
   version="1.1"
   id="svg5248"
   xml:space="preserve"
   xmlns:xlink="http://www.w3.org/1999/xlink"
   xmlns="http://www.w3.org/2000/svg"
   xmlns:svg="http://www.w3.org/2000/svg"><defs
     id="defs5252"><filter
       style="color-interpolation-filters:sRGB"
       id="filter1302"
       x="-0.012000846"
       width="1.0240017"
       y="-0.011999155"
       height="1.0239983"><feGaussianBlur
         stdDeviation="2.0803224"
         id="feGaussianBlur1304" /></filter><linearGradient
       id="bg-gradient-2"><stop
         style="stop-color:#3584e4;stop-opacity:1"
         offset="0"
         id="stop13402" /><stop
         style="stop-color:#62a0ea;stop-opacity:1"
         offset="1"
         id="stop13404" /></linearGradient><clipPath
       clipPathUnits="userSpaceOnUse"
       id="clipPath1509"><path
         id="path1511"
         d="M 192,-164 H 88 c 0,0 -40,0 -40,40 V 4 h 416 v -96 c 0,0 0,-40 -40,-40 H 224 Z"
         style="display:inline;opacity:1;vector-effect:none;fill:#c9b8a7;fill-opacity:1;stroke:none;stroke-width:26.0669;stroke-linecap:butt;stroke-linejoin:miter;stroke-miterlimit:4;stroke-dasharray:none;stroke-dashoffset:0;stroke-opacity:1;marker:none;marker-start:none;marker-mid:none;marker-end:none;paint-order:normal;enable-background:new" /></clipPath><filter
       style="color-interpolation-filters:sRGB"
       id="filter1529"
       x="-0.10846153"
       width="1.2169231"
       y="-0.13428571"
       height="1.2685714"><feGaussianBlur
         stdDeviation="18.8"
         id="feGaussianBlur1531" /></filter><linearGradient
       id="linearGradient888"><stop
         style="stop-color:#99c1f1;stop-opacity:1"
         offset="0"
         id="stop884" /><stop
         style="stop-color:#c3e5e7;stop-opacity:1"
         offset="1"
         id="stop886" /></linearGradient><linearGradient
       xlink:href="#bg-gradient-2"
       id="linearGradient5836"
       gradientUnits="userSpaceOnUse"
       x1="64"
       y1="756"
       x2="480"
       y2="756"
       gradientTransform="matrix(0.2511615,0,0,0.2511615,-4.3115135,-157.53622)" /><linearGradient
       xlink:href="#linearGradient888"
       id="linearGradient5838"
       gradientUnits="userSpaceOnUse"
       x1="152.89844"
       y1="-38.796875"
       x2="447.30859"
       y2="316"
       gradientTransform="matrix(0.2511615,0,0,0.2511615,-0.29292947,52.434794)" /><linearGradient
       xlink:href="#linearGradient2023"
       id="linearGradient2025"
       x1="2689.252"
       y1="-1106.803"
       x2="2918.0698"
       y2="-1106.803"
       gradientUnits="userSpaceOnUse"
       gradientTransform="matrix(0.45451006,0,0,0.45552152,-1210.2921,616.15659)" /><linearGradient
       id="linearGradient2023"><stop
         style="stop-color:#62a0ea;stop-opacity:1;"
         offset="0"
         id="stop2019" /><stop
         style="stop-color:#afd4ff;stop-opacity:1;"
         offset="0.05769911"
         id="stop2795" /><stop
         style="stop-color:#62a0ea;stop-opacity:1;"
         offset="0.12220427"
         id="stop2797" /><stop
         style="stop-color:#62a0ea;stop-opacity:1;"
         offset="0.87330586"
         id="stop2793" /><stop
         style="stop-color:#c0d5ea;stop-opacity:1;"
         offset="0.95599729"
         id="stop2791" /><stop
         style="stop-color:#62a0ea;stop-opacity:1;"
         offset="1"
         id="stop2021" /></linearGradient><clipPath
       id="clip0"><rect
         x="0"
         y="0"
         width="1280"
         height="1280"
         id="rect1" /></clipPath></defs><linearGradient
     id="a"
     gradientUnits="userSpaceOnUse"
     x1="11.999989"
     x2="115.99999"
     y1="64"
     y2="64"><stop
       offset="0"
       stop-color="#3d3846"
       id="stop5214" /><stop
       offset="0.05"
       stop-color="#77767b"
       id="stop5216" /><stop
       offset="0.1"
       stop-color="#5e5c64"
       id="stop5218" /><stop
       offset="0.899999"
       stop-color="#504e56"
       id="stop5220" /><stop
       offset="0.95"
       stop-color="#77767b"
       id="stop5222" /><stop
       offset="1"
       stop-color="#3d3846"
       id="stop5224" /></linearGradient><linearGradient
     id="b"
     gradientUnits="userSpaceOnUse"
     x1="12"
     x2="112.04102"
     y1="60"
     y2="80.988281"><stop
       offset="0"
       stop-color="#77767b"
       id="stop5227" /><stop
       offset="0.384443"
       stop-color="#9a9996"
       id="stop5229" /><stop
       offset="0.720567"
       stop-color="#77767b"
       id="stop5231" /><stop
       offset="1"
       stop-color="#68666f"
       id="stop5233" /></linearGradient><path
     id="path5786"
     d="m 88,-162 c 0,0 -40,0 -40,40 L 47.964844,6 h 0.0332 L 47.964844,254.0938 424,254 c 40,0 40,-40 40,-40 V 6 -42 -90 c 0,0 0,-40 -40,-40 H 224 l -32,-32 z"
     style="display:inline;opacity:0.2;fill:#000000;fill-opacity:1;stroke:none;stroke-width:26.0669;stroke-linecap:butt;stroke-linejoin:miter;stroke-miterlimit:4;stroke-dasharray:none;stroke-dashoffset:0;stroke-opacity:1;marker:none;marker-start:none;marker-mid:none;marker-end:none;paint-order:normal;filter:url(#filter1302);enable-background:new"
     transform="matrix(0.2511615,0,0,0.2511615,-0.29292947,52.434794)" /><path
     style="display:inline;fill:url(#linearGradient5836);fill-opacity:1;stroke:none;stroke-width:6.547;stroke-linecap:butt;stroke-linejoin:miter;stroke-miterlimit:4;stroke-dasharray:none;stroke-dashoffset:0;stroke-opacity:1;marker:none;marker-start:none;marker-mid:none;marker-end:none;paint-order:normal;enable-background:new"
     d="M 47.930078,11.244308 H 21.809282 c 0,0 -10.04646,0 -10.04646,10.04646 V 53.43944 H 116.24601 V 29.327936 c 0,0 0,-10.04646 -10.04646,-10.04646 H 55.967247 Z"
     id="path5788" /><path
     id="path5790"
     d="m 256,-80 -32,32 H 88 c 0,0 -40,0 -40,40 v 264 h 376 c 40,0 40,-40 40,-40 V -40 c 0,-40 -40,-40 -40,-40 z"
     style="display:inline;opacity:0.1;fill:#000000;fill-opacity:1;stroke:none;stroke-width:26.0669;stroke-linecap:butt;stroke-linejoin:miter;stroke-miterlimit:4;stroke-dasharray:none;stroke-dashoffset:0;stroke-opacity:1;marker:none;marker-start:none;marker-mid:none;marker-end:none;paint-order:normal;filter:url(#filter1529);enable-background:new"
     clip-path="url(#clipPath1509)"
     transform="matrix(0.2511615,0,0,0.2511615,-0.29292947,52.434794)" /><path
     style="display:inline;fill:url(#linearGradient5838);fill-opacity:1;stroke:none;stroke-width:6.547;stroke-linecap:butt;stroke-linejoin:miter;stroke-miterlimit:4;stroke-dasharray:none;stroke-dashoffset:0;stroke-opacity:1;marker:none;marker-start:none;marker-mid:none;marker-end:none;paint-order:normal;enable-background:new"
     d="m 64.004415,31.337228 -8.037168,8.037168 H 21.809283 c 0,0 -10.04646,0 -10.04646,10.04646 v 66.306634 h 94.436727 c 10.04646,0 10.04646,-10.04646 10.04646,-10.04646 V 41.383688 c 0,-10.04646 -10.04646,-10.04646 -10.04646,-10.04646 z"
     id="path5792" /><path
     style="font-variation-settings:normal;display:inline;fill:#99c1f1;fill-opacity:1;stroke:none;stroke-width:6.547;stroke-linecap:butt;stroke-linejoin:miter;stroke-miterlimit:4;stroke-dasharray:none;stroke-dashoffset:0;stroke-opacity:1;marker:none;marker-start:none;marker-mid:none;marker-end:none;paint-order:normal;enable-background:new;stop-color:#000000"
     d="m 116.24601,104.17406 c 0,0 0,10.04646 -10.04646,10.04646 l -94.436237,0.0236 -9.8e-4,1.50697 94.437217,-0.0236 c 10.04646,0 10.04646,-10.04646 10.04646,-10.04646 z"
     id="path5794" /><path
     style="display:inline;opacity:0.3;fill:#ffffff;fill-opacity:1;stroke:none;stroke-width:6.547;stroke-linecap:butt;stroke-linejoin:miter;stroke-miterlimit:4;stroke-dasharray:none;stroke-dashoffset:0;stroke-opacity:1;marker:none;marker-start:none;marker-mid:none;marker-end:none;paint-order:normal;enable-background:new"
     d="m 64.004414,31.337228 -8.037167,8.037168 H 21.809282 c 0,0 -10.04646,0 -10.04646,10.04646 v 1.004646 c 0,-10.04646 10.04646,-10.548783 10.04646,-10.548783 H 56.11568 l 8.037168,-8.037168 h 42.046702 c 1.35133,0 10.04646,0.502323 10.04646,10.548783 v -1.004646 c 0,-10.04646 -10.04646,-10.04646 -10.04646,-10.04646 z"
     id="path5796" /><path
     id="path2"
     d="m 55.441556,48.056985 c -0.07836,0.0026 -0.157007,0.02744 -0.225285,0.07696 -0.182117,0.131801 -0.222892,0.38604 -0.09109,0.568163 l 2.511483,3.470531 c -4.389642,1.83531 -7.357945,5.50437 -7.290082,9.70554 l 27.308103,-0.137896 c 0,-0.04613 -6.29e-4,-0.0924 -0.0013,-0.138502 -0.06601,-4.088291 -2.988381,-7.616412 -7.243883,-9.411916 l 2.523795,-3.487766 c 0.131802,-0.182117 0.09103,-0.436359 -0.09109,-0.568164 -0.182117,-0.131802 -0.436975,-0.09103 -0.568779,0.09112 l -2.648763,3.660123 c -1.76686,-0.633739 -3.731588,-0.979994 -5.799196,-0.959041 -1.925641,0.01946 -3.75181,0.35528 -5.404004,0.941806 l -2.637064,-3.642888 c -0.08238,-0.113839 -0.212267,-0.172258 -0.342866,-0.168046 z m 2.840809,7.226064 c 0.761852,0 1.379472,0.608955 1.379472,1.359772 0,0.750819 -0.61762,1.359158 -1.379472,1.359158 -0.761853,0 -1.37947,-0.608339 -1.37947,-1.359158 0,-0.750817 0.617617,-1.359772 1.37947,-1.359772 z m 11.535601,0 c 0.772891,0 1.399171,0.608955 1.399171,1.359772 0,0.750819 -0.62628,1.359158 -1.399171,1.359158 -0.772886,0 -1.399784,-0.608339 -1.399784,-1.359158 0,-0.750817 0.626898,-1.359772 1.399784,-1.359772 z M 50.345334,64 v 22.087536 c 0,1.448096 1.174187,2.622285 2.622285,2.622285 h 2.656143 v 7.49691 c 0,1.600954 1.297676,2.898676 2.898672,2.898676 1.600996,0 2.898676,-1.297722 2.898676,-2.898676 v -7.49691 h 5.317824 v 7.49691 c 0,1.600954 1.297683,2.898676 2.898676,2.898676 1.600993,0 2.899288,-1.297722 2.899288,-2.898676 v -7.49691 h 2.49548 c 1.448095,0 2.622288,-1.174189 2.622288,-2.622285 V 64 Z m 32.367391,0 c -1.600954,0 -2.899288,1.29768 -2.899288,2.898673 v 12.914458 c 0,1.600992 1.298334,2.899288 2.899288,2.899288 1.600955,0 2.898673,-1.298296 2.898673,-2.899288 V 66.898673 C 85.611398,65.29768 84.31368,64 82.712725,64 Z m -37.225396,0.08002 c -1.600996,0 -2.898673,1.29768 -2.898673,2.898676 v 12.914455 c 0,1.600996 1.297677,2.899291 2.898673,2.899291 1.600993,0 2.899288,-1.298295 2.899288,-2.899291 V 66.978695 c 0,-1.600996 -1.298295,-2.898676 -2.899288,-2.898675 z"
     style="overflow:hidden;fill:#438de6;fill-opacity:1;stroke-width:0.039984" /></svg>
