<?xml version="1.0" encoding="UTF-8" standalone="no"?>
<svg
   height="128"
   viewBox="0 0 128 128"
   width="128"
   version="1.1"
   id="svg5248"
   xmlns:xlink="http://www.w3.org/1999/xlink"
   xmlns="http://www.w3.org/2000/svg"
   xmlns:svg="http://www.w3.org/2000/svg">
  <defs
     id="defs5252">
    <linearGradient
       xlink:href="#linearGradient2023"
       id="linearGradient2025"
       x1="2689.252"
       y1="-1106.803"
       x2="2918.0698"
       y2="-1106.803"
       gradientUnits="userSpaceOnUse" />
    <linearGradient
       id="linearGradient2023">
      <stop
         style="stop-color:#62a0ea;stop-opacity:1;"
         offset="0"
         id="stop2019" />
      <stop
         style="stop-color:#afd4ff;stop-opacity:1;"
         offset="0.05769911"
         id="stop2795" />
      <stop
         style="stop-color:#62a0ea;stop-opacity:1;"
         offset="0.12220427"
         id="stop2797" />
      <stop
         style="stop-color:#62a0ea;stop-opacity:1;"
         offset="0.87330586"
         id="stop2793" />
      <stop
         style="stop-color:#c0d5ea;stop-opacity:1;"
         offset="0.95599729"
         id="stop2791" />
      <stop
         style="stop-color:#62a0ea;stop-opacity:1;"
         offset="1"
         id="stop2021" />
    </linearGradient>
  </defs>
  <linearGradient
     id="a"
     gradientUnits="userSpaceOnUse"
     x1="11.999989"
     x2="115.99999"
     y1="64"
     y2="64">
    <stop
       offset="0"
       stop-color="#3d3846"
       id="stop5214" />
    <stop
       offset="0.05"
       stop-color="#77767b"
       id="stop5216" />
    <stop
       offset="0.1"
       stop-color="#5e5c64"
       id="stop5218" />
    <stop
       offset="0.899999"
       stop-color="#504e56"
       id="stop5220" />
    <stop
       offset="0.95"
       stop-color="#77767b"
       id="stop5222" />
    <stop
       offset="1"
       stop-color="#3d3846"
       id="stop5224" />
  </linearGradient>
  <linearGradient
     id="b"
     gradientUnits="userSpaceOnUse"
     x1="12"
     x2="112.04102"
     y1="60"
     y2="80.988281">
    <stop
       offset="0"
       stop-color="#77767b"
       id="stop5227" />
    <stop
       offset="0.384443"
       stop-color="#9a9996"
       id="stop5229" />
    <stop
       offset="0.720567"
       stop-color="#77767b"
       id="stop5231" />
    <stop
       offset="1"
       stop-color="#68666f"
       id="stop5233" />
  </linearGradient>
  <g
     id="g760"
     style="display:inline;stroke-width:1.26428;enable-background:new"
     transform="matrix(0.45451006,0,0,0.45552152,-1210.2921,616.15659)">
    <path
       id="rect1135"
       style="fill:#438de6;fill-opacity:1;stroke-width:8.79091;stroke-linecap:round;stop-color:#000000"
       d="m 2711.2064,-1326.3316 c -12.1618,0 -21.9544,9.791 -21.9544,21.9528 v 188.867 c 0,12.1618 9.7926,21.9528 21.9544,21.9528 h 184.9089 c 12.1619,0 21.9545,-9.791 21.9545,-21.9528 v -158.2547 a 26.343462,26.343462 45 0 0 -26.3435,-26.3435 h -101.2664 a 14.283764,14.283764 31.638659 0 1 -12.7581,-7.8607 l -3.3076,-6.5699 a 21.425501,21.425501 31.638659 0 0 -19.1371,-11.791 z" />
    <path
       id="path1953"
       style="fill:url(#linearGradient2025);fill-opacity:1;stroke-width:8.79091;stroke-linecap:round;stop-color:#000000"
       d="m 2808.014,-1273.6447 c -6.0429,0 -11.5016,2.4179 -15.4646,6.3426 -5.0031,4.9549 -11.8483,11.2197 -18.9936,11.2197 h -62.3494 c -12.1618,0 -21.9544,9.791 -21.9544,21.9528 v 118.6179 c 0,12.1618 9.7926,21.9528 21.9544,21.9528 h 184.9089 c 12.1619,0 21.9545,-9.791 21.9545,-21.9528 v -105.4461 -13.1718 -17.5623 c 0,-12.1618 -9.7926,-21.9528 -21.9545,-21.9528 z" />
    <path
       id="rect1586"
       style="fill:#a4caee;fill-opacity:1;stroke-width:8.79091;stroke-linecap:round;stop-color:#000000"
       d="m 2808.014,-1282.4259 c -6.0429,0 -11.5016,2.4179 -15.4646,6.3426 -5.0031,4.9549 -11.8483,11.2197 -18.9936,11.2197 h -62.3494 c -12.1618,0 -21.9544,9.791 -21.9544,21.9528 v 122.8867 c 0,12.1618 9.7926,21.9528 21.9544,21.9528 h 184.9089 c 12.1619,0 21.9545,-9.791 21.9545,-21.9528 v -109.7149 -13.1718 -17.5623 c 0,-12.1618 -9.7926,-21.9528 -21.9545,-21.9528 z" />
  </g>
  <g
     id="g1876"
     transform="matrix(0.16842084,0,0,0.16842084,98.73172,62.540741)"
     style="fill:#438de6;fill-opacity:1">
    <path
       d="m -128.77336,52.487249 v 13.47368 h 13.47368 v -13.47368 h 6.73684 v 13.47368 h 13.47369 v 6.73684 h -13.47369 v 13.47369 h 13.47369 v 6.73684 h -13.47369 v 13.473681 h -6.73684 V 92.908299 h -13.47368 v 13.473681 h -6.73685 V 92.908299 h -13.47368 v -6.73684 h 13.47368 v -13.47369 h -13.47368 v -6.73684 h 13.47368 v -13.47368 z m 13.47368,20.21052 h -13.47368 v 13.47369 h 13.47368 z"
       fill="#ffffff"
       id="path1673"
       style="fill:#438de6;fill-opacity:1" />
    <path
       d="m -202.20894,-15.180885 c 35.14377,0 65.82713,19.086298 82.26181,47.456067 l -0.16037,-0.273067 -41.34857,23.808284 c -8.14666,-13.79361 -23.08148,-23.102088 -40.21324,-23.293788 l -0.53963,-0.003 c -26.12557,0 -47.30608,21.179388 -47.30608,47.304968 0,8.54361 2.27778,16.5522 6.23898,23.469471 8.1541,14.23525 23.4829,23.83661 41.0671,23.83661 17.69277,0 33.10889,-9.72336 41.22157,-24.11084 l -0.19713,0.34532 41.28649,23.91803 c -16.2544,28.12956 -46.51741,47.15695 -81.2527,47.53619 l -1.05823,0.006 c -35.25458,0 -66.02525,-19.20383 -82.41851,-47.72358 -8.00299,-13.92297 -12.58205,-30.064391 -12.58205,-47.276981 0,-52.466058 42.53227,-94.999446 95.00056,-94.999446 z"
       fill="#ffffff"
       fill-rule="nonzero"
       id="path1675"
       style="fill:#438de6;fill-opacity:1" />
  </g>
</svg>
