<?xml version="1.0" encoding="UTF-8" standalone="no"?>
<svg
   height="128"
   viewBox="0 0 128 128"
   width="128"
   version="1.1"
   id="svg5248"
   xmlns:xlink="http://www.w3.org/1999/xlink"
   xmlns="http://www.w3.org/2000/svg"
   xmlns:svg="http://www.w3.org/2000/svg">
  <defs
     id="defs5252">
    <linearGradient
       xlink:href="#linearGradient2023"
       id="linearGradient2025"
       x1="2689.252"
       y1="-1106.803"
       x2="2918.0698"
       y2="-1106.803"
       gradientUnits="userSpaceOnUse"
       gradientTransform="matrix(0.45451006,0,0,0.45552152,-1210.2921,616.15659)" />
    <linearGradient
       id="linearGradient2023">
      <stop
         style="stop-color:#62a0ea;stop-opacity:1;"
         offset="0"
         id="stop2019" />
      <stop
         style="stop-color:#afd4ff;stop-opacity:1;"
         offset="0.05769911"
         id="stop2795" />
      <stop
         style="stop-color:#62a0ea;stop-opacity:1;"
         offset="0.12220427"
         id="stop2797" />
      <stop
         style="stop-color:#62a0ea;stop-opacity:1;"
         offset="0.87330586"
         id="stop2793" />
      <stop
         style="stop-color:#c0d5ea;stop-opacity:1;"
         offset="0.95599729"
         id="stop2791" />
      <stop
         style="stop-color:#62a0ea;stop-opacity:1;"
         offset="1"
         id="stop2021" />
    </linearGradient>
  </defs>
  <linearGradient
     id="a"
     gradientUnits="userSpaceOnUse"
     x1="11.999989"
     x2="115.99999"
     y1="64"
     y2="64">
    <stop
       offset="0"
       stop-color="#3d3846"
       id="stop5214" />
    <stop
       offset="0.05"
       stop-color="#77767b"
       id="stop5216" />
    <stop
       offset="0.1"
       stop-color="#5e5c64"
       id="stop5218" />
    <stop
       offset="0.899999"
       stop-color="#504e56"
       id="stop5220" />
    <stop
       offset="0.95"
       stop-color="#77767b"
       id="stop5222" />
    <stop
       offset="1"
       stop-color="#3d3846"
       id="stop5224" />
  </linearGradient>
  <linearGradient
     id="b"
     gradientUnits="userSpaceOnUse"
     x1="12"
     x2="112.04102"
     y1="60"
     y2="80.988281">
    <stop
       offset="0"
       stop-color="#77767b"
       id="stop5227" />
    <stop
       offset="0.384443"
       stop-color="#9a9996"
       id="stop5229" />
    <stop
       offset="0.720567"
       stop-color="#77767b"
       id="stop5231" />
    <stop
       offset="1"
       stop-color="#68666f"
       id="stop5233" />
  </linearGradient>
  <path
     id="rect1135"
     style="fill:#438de6;fill-opacity:1;stroke-width:4;stroke-linecap:round;stop-color:#000000"
     d="m 21.978484,11.984004 c -5.527661,0 -9.978496,4.460011 -9.978496,9.999972 v 86.032984 c 0,5.53996 4.450835,9.99997 9.978496,9.99997 h 84.042956 c 5.5277,0 9.97854,-4.46001 9.97854,-9.99997 V 35.928538 A 11.973368,12.000014 0 0 0 104.02659,23.928507 H 57.999997 A 6.4921144,6.5065619 0 0 1 52.201312,20.347789 L 50.697974,17.355058 A 9.7381057,9.7597768 0 0 0 41.99997,11.984004 Z" />
  <path
     id="path1953"
     style="fill:url(#linearGradient2025);fill-opacity:1;stroke-width:4;stroke-linecap:round;stop-color:#000000"
     d="m 65.978512,35.98402 c -2.746559,0 -5.227593,1.101406 -7.028817,2.889191 -2.273959,2.257064 -5.385171,5.110815 -8.632782,5.110815 H 21.978484 c -5.527661,0 -9.978496,4.460011 -9.978496,9.999973 V 108.017 c 0,5.53997 4.450835,9.99998 9.978496,9.99998 h 84.042956 c 5.5277,0 9.97854,-4.46001 9.97854,-9.99998 V 59.984037 53.983999 45.983993 c 0,-5.539961 -4.45084,-9.999973 -9.97854,-9.999973 z" />
  <path
     id="rect1586"
     style="fill:#a4caee;fill-opacity:1;stroke-width:4;stroke-linecap:round;stop-color:#000000"
     d="m 65.978512,31.983995 c -2.746559,0 -5.227593,1.101405 -7.028817,2.889191 C 56.675736,37.130249 53.564524,39.984 50.316913,39.984 H 21.978484 c -5.527661,0 -9.978496,4.460012 -9.978496,9.999973 v 55.977537 c 0,5.53996 4.450835,9.99997 9.978496,9.99997 h 84.042956 c 5.5277,0 9.97854,-4.46001 9.97854,-9.99997 V 55.984012 49.983973 41.983968 c 0,-5.539962 -4.45084,-9.999973 -9.97854,-9.999973 z" />
  <path
     d="m 75.401589,59.983968 c -1.87216,0 -3.39786,1.512388 -3.39786,3.384552 0,1.872163 1.51904,3.38455 3.39786,3.38455 1.87216,0 3.39788,-1.512387 3.39788,-3.38455 0,-1.872164 -1.51905,-3.384552 -3.39788,-3.384552 z m -26.45013,7.128878 c 0.43439,0.434395 0.71289,0.926087 0.83281,1.485738 0.0667,0.311805 0.0999,0.899437 0.0999,1.752239 V 88.73933 c 0,0.859463 -0.0332,1.4391 -0.0999,1.752237 -0.12258,0.556985 -0.40108,1.052676 -0.83281,1.485738 h 7.86175 c -0.62361,-0.62361 -0.93275,-1.712263 -0.93275,-3.257964 V 82.05684 l 4.82366,6.582552 c 0.84613,1.159276 1.26587,2.045388 1.26587,2.658339 -10e-6,0.200541 -0.0332,0.428399 -0.0999,0.686237 h 8.59463 c -0.35646,-0.278492 -0.62895,-0.517677 -0.8195,-0.71955 -0.69956,-0.779513 -1.2792,-1.479077 -1.73891,-2.105351 l -7.52862,-10.326879 6.27607,-7.795128 c 0.6456,-0.799501 1.09931,-1.352488 1.35249,-1.652301 0.9594,-1.145951 1.75224,-1.898814 2.38517,-2.251925 h -8.39475 c 0.0556,0.133915 0.0833,0.311804 0.0833,0.534331 -2e-5,0.612285 -0.4897,1.539039 -1.47242,2.771602 l -4.79033,6.062877 v -6.129502 c -1e-5,-1.539038 0.3118,-2.618363 0.93275,-3.237977 z m 22.78576,6.595878 c 0.0919,0.103268 0.17522,0.208536 0.24917,0.316468 0.0746,0.107932 0.14058,0.217863 0.19722,0.33046 0.0571,0.112596 0.10526,0.227857 0.14458,0.345784 0.0396,0.11726 0.0707,0.237851 0.0926,0.359776 0.0111,0.05844 0.0209,0.134582 0.0293,0.228523 0.008,0.09394 0.0155,0.205872 0.021,0.335125 0.0111,0.25917 0.0165,0.588964 0.0165,0.992712 v 12.392255 c 0,0.401082 -0.005,0.732875 -0.0165,0.992713 -0.005,0.130584 -0.0126,0.243848 -0.021,0.339788 -0.008,0.09594 -0.0181,0.175224 -0.0293,0.235852 -0.0111,0.06263 -0.0242,0.124589 -0.0398,0.185884 -0.0156,0.06123 -0.0334,0.121258 -0.0536,0.18122 -0.0202,0.05982 -0.0427,0.119258 -0.0673,0.177224 -0.0247,0.0585 -0.0521,0.115927 -0.0813,0.173224 -0.0584,0.113928 -0.12592,0.225192 -0.20253,0.333791 -0.0766,0.108599 -0.16191,0.214533 -0.2565,0.317135 h 7.32875 c -0.0946,-0.10327 -0.17989,-0.209203 -0.25651,-0.317135 -0.0766,-0.108599 -0.14391,-0.219863 -0.20254,-0.333791 -0.0292,-0.05703 -0.056,-0.114596 -0.0806,-0.173224 -0.0247,-0.05844 -0.0473,-0.117928 -0.0673,-0.177224 -0.0202,-0.05983 -0.038,-0.119926 -0.0536,-0.18122 -0.0156,-0.06123 -0.0292,-0.123257 -0.0404,-0.185884 -0.0111,-0.06123 -0.0209,-0.139912 -0.0293,-0.235852 -0.008,-0.09594 -0.0155,-0.209204 -0.021,-0.339788 -0.0111,-0.261837 -0.0165,-0.592963 -0.0165,-0.992713 V 73.68607 Z"
     id="path1-6"
     style="fill:#438de6;fill-opacity:1;stroke-width:0.666251" />
</svg>
