<?xml version="1.0" encoding="UTF-8" standalone="no"?>
<svg
   height="128"
   viewBox="0 0 128 128"
   width="128"
   version="1.1"
   id="svg5248"
   xmlns:xlink="http://www.w3.org/1999/xlink"
   xmlns="http://www.w3.org/2000/svg"
   xmlns:svg="http://www.w3.org/2000/svg">
  <defs
     id="defs5252">
    <linearGradient
       xlink:href="#linearGradient2023"
       id="linearGradient2025"
       x1="2689.252"
       y1="-1106.803"
       x2="2918.0698"
       y2="-1106.803"
       gradientUnits="userSpaceOnUse" />
    <linearGradient
       id="linearGradient2023">
      <stop
         style="stop-color:#62a0ea;stop-opacity:1;"
         offset="0"
         id="stop2019" />
      <stop
         style="stop-color:#afd4ff;stop-opacity:1;"
         offset="0.05769911"
         id="stop2795" />
      <stop
         style="stop-color:#62a0ea;stop-opacity:1;"
         offset="0.12220427"
         id="stop2797" />
      <stop
         style="stop-color:#62a0ea;stop-opacity:1;"
         offset="0.87330586"
         id="stop2793" />
      <stop
         style="stop-color:#c0d5ea;stop-opacity:1;"
         offset="0.95599729"
         id="stop2791" />
      <stop
         style="stop-color:#62a0ea;stop-opacity:1;"
         offset="1"
         id="stop2021" />
    </linearGradient>
  </defs>
  <linearGradient
     id="a"
     gradientUnits="userSpaceOnUse"
     x1="11.999989"
     x2="115.99999"
     y1="64"
     y2="64">
    <stop
       offset="0"
       stop-color="#3d3846"
       id="stop5214" />
    <stop
       offset="0.05"
       stop-color="#77767b"
       id="stop5216" />
    <stop
       offset="0.1"
       stop-color="#5e5c64"
       id="stop5218" />
    <stop
       offset="0.899999"
       stop-color="#504e56"
       id="stop5220" />
    <stop
       offset="0.95"
       stop-color="#77767b"
       id="stop5222" />
    <stop
       offset="1"
       stop-color="#3d3846"
       id="stop5224" />
  </linearGradient>
  <linearGradient
     id="b"
     gradientUnits="userSpaceOnUse"
     x1="12"
     x2="112.04102"
     y1="60"
     y2="80.988281">
    <stop
       offset="0"
       stop-color="#77767b"
       id="stop5227" />
    <stop
       offset="0.384443"
       stop-color="#9a9996"
       id="stop5229" />
    <stop
       offset="0.720567"
       stop-color="#77767b"
       id="stop5231" />
    <stop
       offset="1"
       stop-color="#68666f"
       id="stop5233" />
  </linearGradient>
  <g
     id="g760"
     style="display:inline;stroke-width:1.26428;enable-background:new"
     transform="matrix(0.45451006,0,0,0.45552152,-1210.2921,616.15659)">
    <path
       id="rect1135"
       style="fill:#438de6;fill-opacity:1;stroke-width:8.79091;stroke-linecap:round;stop-color:#000000"
       d="m 2711.2064,-1326.3316 c -12.1618,0 -21.9544,9.791 -21.9544,21.9528 v 188.867 c 0,12.1618 9.7926,21.9528 21.9544,21.9528 h 184.9089 c 12.1619,0 21.9545,-9.791 21.9545,-21.9528 v -158.2547 a 26.343462,26.343462 45 0 0 -26.3435,-26.3435 h -101.2664 a 14.283764,14.283764 31.638659 0 1 -12.7581,-7.8607 l -3.3076,-6.5699 a 21.425501,21.425501 31.638659 0 0 -19.1371,-11.791 z" />
    <path
       id="path1953"
       style="fill:url(#linearGradient2025);fill-opacity:1;stroke-width:8.79091;stroke-linecap:round;stop-color:#000000"
       d="m 2808.014,-1273.6447 c -6.0429,0 -11.5016,2.4179 -15.4646,6.3426 -5.0031,4.9549 -11.8483,11.2197 -18.9936,11.2197 h -62.3494 c -12.1618,0 -21.9544,9.791 -21.9544,21.9528 v 118.6179 c 0,12.1618 9.7926,21.9528 21.9544,21.9528 h 184.9089 c 12.1619,0 21.9545,-9.791 21.9545,-21.9528 v -105.4461 -13.1718 -17.5623 c 0,-12.1618 -9.7926,-21.9528 -21.9545,-21.9528 z" />
    <path
       id="rect1586"
       style="fill:#a4caee;fill-opacity:1;stroke-width:8.79091;stroke-linecap:round;stop-color:#000000"
       d="m 2808.014,-1282.4259 c -6.0429,0 -11.5016,2.4179 -15.4646,6.3426 -5.0031,4.9549 -11.8483,11.2197 -18.9936,11.2197 h -62.3494 c -12.1618,0 -21.9544,9.791 -21.9544,21.9528 v 122.8867 c 0,12.1618 9.7926,21.9528 21.9544,21.9528 h 184.9089 c 12.1619,0 21.9545,-9.791 21.9545,-21.9528 v -109.7149 -13.1718 -17.5623 c 0,-12.1618 -9.7926,-21.9528 -21.9545,-21.9528 z" />
  </g>
  <g
     id="g4312"
     transform="matrix(1.3333333,0,0,1.3333333,442.76651,5.7685581)"
     style="fill:#438de6;fill-opacity:1">
    <path
       style="fill:#438de6;fill-opacity:1"
       d="m -274.60192,50.12225 c -0.43906,-0.02102 -0.91198,0.04582 -1.3992,0.217118 -0.34241,0.121561 -0.52169,0.401069 -0.52169,0.401069 0,0 0.21368,-0.08644 0.69659,-0.18696 1.97023,-0.410728 4.79329,2.638508 -1.31176,5.810929 -0.0282,0.07552 -0.12364,0.15992 -0.12364,0.159821 7.13441,-1.875518 5.73318,-6.254804 2.6597,-6.401974 z"
       id="path485" />
    <path
       style="fill:#438de6;fill-opacity:1"
       d="m -288.1507,49.800628 c -0.77834,0.02044 -2.59779,0.18818 -4.71629,1.212244 -3.34003,1.615636 8.2608,2.351476 14.26648,0.771976 0.62438,-0.42634 1.48666,-0.7961 1.48666,-0.7961 0,0 -2.45573,0.438864 -4.90326,0.645324 -2.99481,0.250932 -6.21248,0.300366 -7.8253,0.08444 -3.81978,-0.5101 2.09579,-1.914862 2.09579,-1.914862 0,0 -0.14464,-0.0098 -0.40408,-0.003 z"
       id="path487" />
    <path
       style="fill:#438de6;fill-opacity:1"
       d="m -289.12472,54.025896 c -5.5118,1.829374 3.06664,3.90463 10.76847,1.652512 -0.81865,-0.288644 -1.3389,-0.81721 -1.3389,-0.81721 -3.76408,0.724804 -5.93928,0.703326 -8.69378,0.419158 -2.13003,-0.22032 -0.73579,-1.25446 -0.73579,-1.25446 z"
       id="path489" />
    <path
       style="fill:#438de6;fill-opacity:1"
       d="m -288.34369,57.973432 c -5.00338,1.398036 3.04137,4.286133 9.41147,1.556014 -1.04335,-0.40573 -1.78821,-0.874504 -1.78821,-0.874504 -2.84159,0.537814 -4.16115,0.577626 -6.73971,0.28346 -2.12846,-0.2447 -0.88355,-0.96497 -0.88355,-0.96497 z"
       id="path491" />
    <path
       style="fill:#438de6;fill-opacity:1"
       d="m -291.57936,60.203383 c -2.1502,-0.08286 -7.0319,2.065624 -2.86475,2.741116 12.98788,2.106265 23.67547,-0.95012 20.30659,-2.46972 0,0 0.92044,0.75835 -1.01322,1.344928 -3.67691,1.113869 -15.30359,1.45108 -18.53346,0.04524 -1.16106,-0.505097 1.01586,-1.206892 1.70076,-1.353974 0.71428,-0.1549 1.12479,-0.12364 1.12479,-0.12364 -0.1614,-0.1137 -0.41354,-0.17212 -0.72071,-0.18394 z"
       id="path493" />
    <path
       style="fill:#438de6;fill-opacity:1"
       d="m -272.0749,61.579788 c 0,0 -0.40957,1.049918 -4.84294,1.884709 -5.00171,0.941262 -11.17155,0.83242 -14.83039,0.229177 9e-5,-8.7e-5 0.75026,0.618479 4.6017,0.865459 5.86009,0.375119 14.8585,-0.206514 15.07163,-2.979345 z"
       id="path495" />
    <path
       style="fill:#438de6;fill-opacity:1"
       d="m -280.55193,32.121058 c 1.36419,5.372442 -4.8099,6.997194 -7.03825,10.343274 -1.51819,2.279482 0.74305,4.726458 3.82671,7.508674 -1.20248,-2.717842 -5.27979,-5.094722 0.003,-9.26673 6.58788,-5.20089 3.20853,-8.585218 3.20853,-8.585218 z"
       id="path497" />
    <path
       style="fill:#438de6;fill-opacity:1"
       d="m -276.81807,38.767288 c 0,0 -11.13757,2.783252 -5.81696,8.913913 1.56959,1.807098 -0.41313,3.434691 -0.41313,3.434691 0,0 3.98645,-2.058503 2.15611,-4.634872 -1.70948,-2.402624 -3.02294,-3.597768 4.07398,-7.713732 z"
       id="path499" />
  </g>
</svg>
