<?xml version="1.0" encoding="UTF-8" standalone="no"?>
<svg
   height="128"
   viewBox="0 0 128 128"
   width="128"
   version="1.1"
   id="svg5248"
   xml:space="preserve"
   xmlns:xlink="http://www.w3.org/1999/xlink"
   xmlns="http://www.w3.org/2000/svg"
   xmlns:svg="http://www.w3.org/2000/svg"><defs
     id="defs5252"><linearGradient
       xlink:href="#linearGradient2023"
       id="linearGradient2025"
       x1="2689.252"
       y1="-1106.803"
       x2="2918.0698"
       y2="-1106.803"
       gradientUnits="userSpaceOnUse" /><linearGradient
       id="linearGradient2023"><stop
         style="stop-color:#62a0ea;stop-opacity:1;"
         offset="0"
         id="stop2019" /><stop
         style="stop-color:#afd4ff;stop-opacity:1;"
         offset="0.05769911"
         id="stop2795" /><stop
         style="stop-color:#62a0ea;stop-opacity:1;"
         offset="0.12220427"
         id="stop2797" /><stop
         style="stop-color:#62a0ea;stop-opacity:1;"
         offset="0.87330586"
         id="stop2793" /><stop
         style="stop-color:#c0d5ea;stop-opacity:1;"
         offset="0.95599729"
         id="stop2791" /><stop
         style="stop-color:#62a0ea;stop-opacity:1;"
         offset="1"
         id="stop2021" /></linearGradient></defs><linearGradient
     id="a"
     gradientUnits="userSpaceOnUse"
     x1="11.999989"
     x2="115.99999"
     y1="64"
     y2="64"><stop
       offset="0"
       stop-color="#3d3846"
       id="stop5214" /><stop
       offset="0.05"
       stop-color="#77767b"
       id="stop5216" /><stop
       offset="0.1"
       stop-color="#5e5c64"
       id="stop5218" /><stop
       offset="0.899999"
       stop-color="#504e56"
       id="stop5220" /><stop
       offset="0.95"
       stop-color="#77767b"
       id="stop5222" /><stop
       offset="1"
       stop-color="#3d3846"
       id="stop5224" /></linearGradient><linearGradient
     id="b"
     gradientUnits="userSpaceOnUse"
     x1="12"
     x2="112.04102"
     y1="60"
     y2="80.988281"><stop
       offset="0"
       stop-color="#77767b"
       id="stop5227" /><stop
       offset="0.384443"
       stop-color="#9a9996"
       id="stop5229" /><stop
       offset="0.720567"
       stop-color="#77767b"
       id="stop5231" /><stop
       offset="1"
       stop-color="#68666f"
       id="stop5233" /></linearGradient><g
     id="g760"
     style="display:inline;stroke-width:1.26428;enable-background:new"
     transform="matrix(0.45451006,0,0,0.45552152,-1210.2921,616.15659)"><path
       id="rect1135"
       style="fill:#438de6;fill-opacity:1;stroke-width:8.79091;stroke-linecap:round;stop-color:#000000"
       d="m 2711.2064,-1326.3316 c -12.1618,0 -21.9544,9.791 -21.9544,21.9528 v 188.867 c 0,12.1618 9.7926,21.9528 21.9544,21.9528 h 184.9089 c 12.1619,0 21.9545,-9.791 21.9545,-21.9528 v -158.2547 a 26.343462,26.343462 45 0 0 -26.3435,-26.3435 h -101.2664 a 14.283764,14.283764 31.638659 0 1 -12.7581,-7.8607 l -3.3076,-6.5699 a 21.425501,21.425501 31.638659 0 0 -19.1371,-11.791 z" /><path
       id="path1953"
       style="fill:url(#linearGradient2025);fill-opacity:1;stroke-width:8.79091;stroke-linecap:round;stop-color:#000000"
       d="m 2808.014,-1273.6447 c -6.0429,0 -11.5016,2.4179 -15.4646,6.3426 -5.0031,4.9549 -11.8483,11.2197 -18.9936,11.2197 h -62.3494 c -12.1618,0 -21.9544,9.791 -21.9544,21.9528 v 118.6179 c 0,12.1618 9.7926,21.9528 21.9544,21.9528 h 184.9089 c 12.1619,0 21.9545,-9.791 21.9545,-21.9528 v -105.4461 -13.1718 -17.5623 c 0,-12.1618 -9.7926,-21.9528 -21.9545,-21.9528 z" /><path
       id="rect1586"
       style="fill:#a4caee;fill-opacity:1;stroke-width:8.79091;stroke-linecap:round;stop-color:#000000"
       d="m 2808.014,-1282.4259 c -6.0429,0 -11.5016,2.4179 -15.4646,6.3426 -5.0031,4.9549 -11.8483,11.2197 -18.9936,11.2197 h -62.3494 c -12.1618,0 -21.9544,9.791 -21.9544,21.9528 v 122.8867 c 0,12.1618 9.7926,21.9528 21.9544,21.9528 h 184.9089 c 12.1619,0 21.9545,-9.791 21.9545,-21.9528 v -109.7149 -13.1718 -17.5623 c 0,-12.1618 -9.7926,-21.9528 -21.9545,-21.9528 z" /></g><path
     id="path6"
     style="display:none;fill:none;fill-opacity:1;stroke:#438de6;stroke-width:3;stroke-dasharray:none;stroke-opacity:1"
     d="M 47.765695,84.398296 H 80.234303 M 60.309249,65.144813 h 8.533435 c 6.3e-5,0 1.17e-4,6.6e-5 1.17e-4,1.48e-4 -2.844378,2.94e-4 -5.689063,1.48e-4 -8.533552,1.48e-4 -6.2e-5,0 -1.12e-4,-6.5e-5 -1.12e-4,-1.48e-4 0,-8.2e-5 5e-5,-1.48e-4 1.12e-4,-1.48e-4 z M 61.79893,59.81553 c -0.825006,0 -1.489793,0.869299 -1.489793,1.949647 v 3.379636 h -8.882886 c -2.028131,0 -3.660556,2.138903 -3.660556,4.794742 v 16.418209 c 0,2.655848 1.632425,4.794741 3.660556,4.794741 h 25.147495 c 2.028133,0 3.660557,-2.138893 3.660557,-4.794741 V 69.939555 c 0,-2.655839 -1.632424,-4.794742 -3.660557,-4.794742 H 67.69086 v -3.379636 c 0,-1.080348 -0.664787,-1.949647 -1.48979,-1.949647 z" /><rect
     style="display:none;fill:#438de6;fill-opacity:1;stroke:none;stroke-width:2.12645;stroke-dasharray:none;stroke-opacity:1"
     id="rect6"
     width="3.1151462"
     height="2.6280942"
     x="62.44241"
     y="84.815735"
     ry="1.1763237" /><path
     id="path3-8"
     style="color:#bebebe;display:none;fill:#438de6;fill-opacity:1;stroke-width:2.13333;marker:none"
     d="m 64.000005,81.3182 h 6.4 v 2.133334 h -6.4 z m -7.47947,-8.757333 a 1.28,1.28 0 0 0 -0.89173,2.1952 l 3.36213,3.362133 -3.36213,3.362134 a 1.28,1.28 0 1 0 1.80906,1.809066 l 4.26667,-4.266666 a 1.28,1.28 0 0 0 0,-1.809067 L 57.437865,72.947 a 1.28,1.28 0 0 0 -0.91733,-0.386133 z m -4.89387,-12.576 c -2.57493,0 -4.69333,2.148267 -4.69333,4.712533 v 22.574934 c 0,2.564266 2.12053,4.712533 4.69333,4.712533 h 24.74667 c 2.5728,0 4.69333,-2.148267 4.69333,-4.712533 V 64.6974 c 0,-2.564266 -2.12053,-4.712533 -4.69333,-4.712533 z m 0,4.266667 h 24.74667 c 0.26453,0 0.42667,0.151466 0.42667,0.445866 v 22.574934 c 0,0.2944 -0.16214,0.445866 -0.42667,0.445866 h -24.74667 c -0.26453,0 -0.42666,-0.151466 -0.42666,-0.445866 V 64.6974 c 0,-0.2944 0.16213,-0.445866 0.42666,-0.445866 z" /><path
     id="path19"
     style="display:inline;fill:#438de6;fill-opacity:1;stroke-width:0.311022"
     d="m 60.26775,57.680297 c -2.070231,0 -3.732258,1.662026 -3.732258,3.732257 v 1.86613 c 0,-0.12939 0.0068,-0.257416 0.01943,-0.38331 0.01267,-0.125894 0.03114,-0.249374 0.05589,-0.37116 0.02475,-0.121787 0.05552,-0.241944 0.09173,-0.359012 0.0362,-0.117067 0.0781,-0.231481 0.125135,-0.343218 0.04704,-0.111734 0.09945,-0.220416 0.156726,-0.326207 0.05726,-0.105791 0.118997,-0.208749 0.185882,-0.307984 0.06689,-0.09924 0.138545,-0.194656 0.214437,-0.286723 0.07589,-0.09207 0.156269,-0.180568 0.240556,-0.264855 0.08429,-0.08428 0.172786,-0.164662 0.264854,-0.240555 0.09207,-0.07589 0.187486,-0.147548 0.286721,-0.214435 0.09924,-0.06689 0.202196,-0.128614 0.307986,-0.185884 0.10579,-0.05726 0.214472,-0.109685 0.326208,-0.156726 0.111734,-0.04704 0.226149,-0.08894 0.343216,-0.125137 0.117067,-0.0362 0.237225,-0.06699 0.35901,-0.09173 0.121788,-0.02475 0.245267,-0.04321 0.371161,-0.05589 0.125894,-0.01267 0.25392,-0.01944 0.38331,-0.01944 0.129389,0 0.257415,0.0068 0.38331,0.01944 0.125895,0.01267 0.249375,0.03114 0.371161,0.05589 0.121787,0.02475 0.241944,0.05552 0.35901,0.09173 0.117068,0.0362 0.231482,0.07809 0.343217,0.125137 0.111736,0.04704 0.220417,0.09946 0.326208,0.156726 0.105792,0.05727 0.20875,0.118998 0.307985,0.185884 0.09924,0.06689 0.194656,0.138542 0.286723,0.214435 0.09207,0.07589 0.180569,0.15627 0.264854,0.240555 0.08429,0.08429 0.164662,0.172788 0.240556,0.264855 0.07589,0.09207 0.147546,0.187488 0.214434,0.286723 0.06689,0.09924 0.128615,0.202193 0.185884,0.307984 0.05726,0.105791 0.109685,0.214473 0.156726,0.326207 0.04704,0.111737 0.08894,0.226151 0.125137,0.343218 0.0362,0.117068 0.06699,0.237225 0.09173,0.359012 0.02475,0.121786 0.04321,0.245266 0.05589,0.37116 0.01267,0.125894 0.01943,0.25392 0.01943,0.38331 v -1.86613 c 0,-2.070231 -1.662026,-3.732257 -3.732259,-3.732257 z m 3.732258,5.598387 c 0,-0.12939 -0.0068,-0.257416 -0.01943,-0.38331 -0.01267,-0.125894 -0.03115,-0.249374 -0.05589,-0.37116 -0.02475,-0.121787 -0.05552,-0.241944 -0.09173,-0.359012 -0.0362,-0.117067 -0.0781,-0.231481 -0.125139,-0.343218 -0.04704,-0.111734 -0.09945,-0.220416 -0.156727,-0.326207 -0.05726,-0.105791 -0.118996,-0.208749 -0.185883,-0.307984 -0.06689,-0.09924 -0.138542,-0.194656 -0.214435,-0.286723 -0.07589,-0.09207 -0.156271,-0.180568 -0.240556,-0.264855 -0.08428,-0.08428 -0.172787,-0.164662 -0.264854,-0.240555 -0.09207,-0.07589 -0.187488,-0.147548 -0.286721,-0.214435 -0.09924,-0.06689 -0.202192,-0.128614 -0.307986,-0.185884 -0.10579,-0.05726 -0.214472,-0.109685 -0.326209,-0.156726 -0.111735,-0.04704 -0.22615,-0.08894 -0.343217,-0.125137 -0.117067,-0.0362 -0.237224,-0.06699 -0.35901,-0.09173 -0.121786,-0.02475 -0.245266,-0.04321 -0.371161,-0.05589 -0.125895,-0.01267 -0.253918,-0.01944 -0.383308,-0.01944 -0.12939,0 -0.257416,0.0068 -0.383311,0.01944 -0.125894,0.01267 -0.249372,0.03114 -0.371161,0.05589 -0.121786,0.02475 -0.241942,0.05552 -0.359011,0.09173 -0.117066,0.0362 -0.231482,0.07809 -0.343215,0.125137 -0.111738,0.04704 -0.220419,0.09946 -0.326209,0.156726 -0.105791,0.05727 -0.208751,0.118998 -0.307986,0.185884 -0.09924,0.06689 -0.194657,0.138542 -0.286721,0.214435 -0.09207,0.07589 -0.180569,0.15627 -0.264854,0.240555 -0.08428,0.08429 -0.164664,0.172788 -0.240557,0.264855 -0.07589,0.09207 -0.147548,0.187488 -0.214437,0.286723 -0.06689,0.09924 -0.128613,0.202193 -0.185882,0.307984 -0.05727,0.105791 -0.109684,0.214473 -0.156725,0.326207 -0.04704,0.111737 -0.08894,0.226151 -0.125136,0.343218 -0.0362,0.117068 -0.06698,0.237225 -0.09173,0.359012 -0.02475,0.121786 -0.04321,0.245266 -0.05589,0.37116 -0.01268,0.125894 -0.01943,0.25392 -0.01943,0.38331 v 1.866129 h -7.464516 c -1.380159,0 -2.488174,1.108016 -2.488174,2.488171 v 1.86613 c 0,-0.08626 0.0043,-0.171206 0.01276,-0.255135 0.0085,-0.08393 0.02116,-0.166653 0.03766,-0.247845 0.01649,-0.08119 0.03662,-0.161297 0.06075,-0.23934 0.02414,-0.07804 0.05247,-0.153916 0.08383,-0.228406 0.03136,-0.0745 0.0657,-0.147554 0.103876,-0.218081 0.03817,-0.07052 0.07993,-0.138558 0.12453,-0.204715 0.04459,-0.06615 0.09216,-0.130581 0.142753,-0.191959 0.0506,-0.06138 0.10418,-0.119974 0.160372,-0.176164 0.05618,-0.05618 0.114785,-0.109776 0.176162,-0.160371 0.06138,-0.0506 0.125802,-0.09817 0.19196,-0.142754 0.06616,-0.04459 0.134187,-0.08635 0.204715,-0.12453 0.07052,-0.03819 0.143588,-0.07251 0.218083,-0.103876 0.07449,-0.03136 0.15036,-0.0597 0.228403,-0.08384 0.07804,-0.02414 0.15815,-0.04425 0.23934,-0.06075 0.0812,-0.01649 0.163914,-0.02921 0.247848,-0.03767 0.08393,-0.0085 0.168874,-0.01276 0.255133,-0.01276 -0.08626,0 -0.171205,0.0043 -0.255133,0.01276 -0.08394,0.0085 -0.166658,0.02117 -0.247848,0.03767 -0.08119,0.01649 -0.161296,0.03662 -0.23934,0.06075 -0.07804,0.02414 -0.153914,0.05246 -0.228403,0.08384 -0.07449,0.03135 -0.147557,0.0657 -0.218083,0.103876 -0.07052,0.03818 -0.138557,0.07994 -0.204715,0.12453 -0.06615,0.04459 -0.130581,0.09216 -0.19196,0.142754 -0.06138,0.05059 -0.119973,0.104181 -0.176162,0.160371 -0.05619,0.05619 -0.109775,0.114786 -0.160372,0.176164 -0.05059,0.06138 -0.09816,0.125802 -0.142753,0.191959 -0.04459,0.06615 -0.08635,0.134187 -0.12453,0.204715 -0.03819,0.07052 -0.07251,0.143589 -0.103876,0.218081 -0.03136,0.07449 -0.0597,0.15036 -0.08383,0.228406 -0.02414,0.07804 -0.04424,0.158149 -0.06075,0.23934 -0.01649,0.0812 -0.02921,0.163916 -0.03766,0.247845 -0.0085,0.08393 -0.01276,0.168876 -0.01276,0.255135 V 75.0975 h 3.732259 c 2.070231,0 3.732259,1.662027 3.732259,3.732259 0,0.323266 -0.04522,0.635087 -0.121496,0.93367 -0.4122,1.61359 -1.863799,2.798589 -3.610763,2.798589 h -3.73227 v 1.866128 5.598387 c 0,1.380154 1.108013,2.488171 2.488172,2.488171 h 7.464514 v -3.732258 c 0,-2.070233 1.662028,-3.732258 3.732259,-3.732258 2.070234,0 3.732259,1.662025 3.732259,3.732258 v 3.732258 h 7.464516 c 1.380155,0 2.488173,-1.108017 2.488173,-2.488171 v -7.464515 h 3.732258 c 1.746962,0 3.198562,-1.184999 3.610766,-2.798589 -0.02116,-0.08288 -0.04467,-0.164897 -0.07107,-0.245414 -0.0264,-0.08052 -0.05593,-0.159572 -0.08747,-0.237518 -0.03154,-0.07794 -0.06545,-0.154459 -0.102057,-0.229621 -0.0366,-0.07516 -0.07568,-0.148942 -0.117242,-0.221117 0.04157,0.07217 0.08064,0.145952 0.117242,0.221117 0.03661,0.07516 0.0705,0.151675 0.102057,0.229621 0.03154,0.07794 0.06107,0.157 0.08747,0.237518 0.02641,0.08052 0.04992,0.162534 0.07107,0.245414 0.07628,-0.298587 0.121492,-0.610404 0.121492,-0.93367 0,-2.070231 -1.662024,-3.732259 -3.732258,-3.732259 h -3.732258 v -5.598386 c 0,-0.08626 -0.0043,-0.171206 -0.01275,-0.255135 -0.0085,-0.08393 -0.02118,-0.166653 -0.03767,-0.247845 -0.01649,-0.08119 -0.03662,-0.161297 -0.06075,-0.23934 -0.02414,-0.07804 -0.05247,-0.153916 -0.08383,-0.228406 -0.03135,-0.0745 -0.0657,-0.147554 -0.103874,-0.218081 -0.03819,-0.07052 -0.07994,-0.138558 -0.124531,-0.204715 -0.04459,-0.06615 -0.09216,-0.130581 -0.142756,-0.191959 -0.05059,-0.06138 -0.104179,-0.119974 -0.160369,-0.176164 -0.05619,-0.05618 -0.114787,-0.109776 -0.176165,-0.160371 -0.06138,-0.0506 -0.125801,-0.09817 -0.191959,-0.142754 -0.06615,-0.04459 -0.134188,-0.08635 -0.204714,-0.12453 -0.07053,-0.03819 -0.143589,-0.07251 -0.21808,-0.103876 -0.07449,-0.03136 -0.150363,-0.0597 -0.228408,-0.08384 -0.07804,-0.02414 -0.158148,-0.04425 -0.23934,-0.06075 -0.08119,-0.01649 -0.163914,-0.02921 -0.247843,-0.03767 -0.08393,-0.0085 -0.168876,-0.01276 -0.255137,-0.01276 0.08626,0 0.171204,0.0043 0.255137,0.01276 0.08393,0.0085 0.166651,0.02117 0.247843,0.03767 0.08119,0.01649 0.161296,0.03662 0.23934,0.06075 0.07804,0.02414 0.153919,0.05246 0.228408,0.08384 0.07449,0.03135 0.147552,0.0657 0.21808,0.103876 0.07052,0.03818 0.138557,0.07994 0.204714,0.12453 0.06615,0.04459 0.130582,0.09216 0.191959,0.142754 0.06138,0.05059 0.119974,0.104181 0.176165,0.160371 0.05618,0.05619 0.109776,0.114786 0.160369,0.176164 0.05059,0.06138 0.09816,0.125802 0.142756,0.191959 0.04459,0.06615 0.08635,0.134187 0.124531,0.204715 0.03817,0.07052 0.07251,0.143589 0.103874,0.218081 0.03136,0.07449 0.0597,0.15036 0.08383,0.228406 0.02414,0.07804 0.04425,0.158149 0.06075,0.23934 0.01649,0.0812 0.0292,0.163916 0.03767,0.247845 0.0085,0.08393 0.01275,0.168876 0.01275,0.255135 v -1.866129 c 0,-1.380156 -1.108018,-2.488172 -2.488173,-2.488172 H 64 Z m 13.684943,13.684944 c 0.08677,0 0.172959,0.0028 0.258177,0.0085 0.08521,0.0058 0.169217,0.01477 0.252704,0.02613 0.08349,0.01132 0.166273,0.02519 0.247844,0.04192 0.08158,0.01673 0.162288,0.03578 0.24177,0.05771 -0.07949,-0.02192 -0.160196,-0.04099 -0.24177,-0.05771 -0.08158,-0.01672 -0.16436,-0.03058 -0.247844,-0.04192 -0.08349,-0.01135 -0.167489,-0.02037 -0.252704,-0.02613 -0.08522,-0.0058 -0.171404,-0.0085 -0.258177,-0.0085 z" /></svg>
