<?xml version="1.0" encoding="UTF-8" standalone="no"?>
<svg
   height="128"
   viewBox="0 0 128 128"
   width="128"
   version="1.1"
   id="svg5248"
   xmlns:xlink="http://www.w3.org/1999/xlink"
   xmlns="http://www.w3.org/2000/svg"
   xmlns:svg="http://www.w3.org/2000/svg">
  <defs
     id="defs5252">
    <filter
       style="color-interpolation-filters:sRGB"
       id="filter1302"
       x="-0.012000846"
       width="1.0240017"
       y="-0.011999155"
       height="1.0239983">
      <feGaussianBlur
         stdDeviation="2.0803224"
         id="feGaussianBlur1304" />
    </filter>
    <linearGradient
       id="bg-gradient-2">
      <stop
         style="stop-color:#3584e4;stop-opacity:1"
         offset="0"
         id="stop13402" />
      <stop
         style="stop-color:#62a0ea;stop-opacity:1"
         offset="1"
         id="stop13404" />
    </linearGradient>
    <clipPath
       clipPathUnits="userSpaceOnUse"
       id="clipPath1509">
      <path
         id="path1511"
         d="M 192,-164 H 88 c 0,0 -40,0 -40,40 V 4 h 416 v -96 c 0,0 0,-40 -40,-40 H 224 Z"
         style="display:inline;opacity:1;vector-effect:none;fill:#c9b8a7;fill-opacity:1;stroke:none;stroke-width:26.0669;stroke-linecap:butt;stroke-linejoin:miter;stroke-miterlimit:4;stroke-dasharray:none;stroke-dashoffset:0;stroke-opacity:1;marker:none;marker-start:none;marker-mid:none;marker-end:none;paint-order:normal;enable-background:new" />
    </clipPath>
    <filter
       style="color-interpolation-filters:sRGB"
       id="filter1529"
       x="-0.10846153"
       width="1.2169231"
       y="-0.13428571"
       height="1.2685714">
      <feGaussianBlur
         stdDeviation="18.8"
         id="feGaussianBlur1531" />
    </filter>
    <linearGradient
       id="linearGradient888">
      <stop
         style="stop-color:#99c1f1;stop-opacity:1"
         offset="0"
         id="stop884" />
      <stop
         style="stop-color:#c3e5e7;stop-opacity:1"
         offset="1"
         id="stop886" />
    </linearGradient>
    <linearGradient
       xlink:href="#bg-gradient-2"
       id="linearGradient5836"
       gradientUnits="userSpaceOnUse"
       x1="64"
       y1="756"
       x2="480"
       y2="756"
       gradientTransform="matrix(0.2511615,0,0,0.2511615,-4.3115135,-157.53622)" />
    <linearGradient
       xlink:href="#linearGradient888"
       id="linearGradient5838"
       gradientUnits="userSpaceOnUse"
       x1="152.89844"
       y1="-38.796875"
       x2="447.30859"
       y2="316"
       gradientTransform="matrix(0.2511615,0,0,0.2511615,-0.29292947,52.434794)" />
  </defs>
  <linearGradient
     id="a"
     gradientUnits="userSpaceOnUse"
     x1="11.999989"
     x2="115.99999"
     y1="64"
     y2="64">
    <stop
       offset="0"
       stop-color="#3d3846"
       id="stop5214" />
    <stop
       offset="0.05"
       stop-color="#77767b"
       id="stop5216" />
    <stop
       offset="0.1"
       stop-color="#5e5c64"
       id="stop5218" />
    <stop
       offset="0.899999"
       stop-color="#504e56"
       id="stop5220" />
    <stop
       offset="0.95"
       stop-color="#77767b"
       id="stop5222" />
    <stop
       offset="1"
       stop-color="#3d3846"
       id="stop5224" />
  </linearGradient>
  <linearGradient
     id="b"
     gradientUnits="userSpaceOnUse"
     x1="12"
     x2="112.04102"
     y1="60"
     y2="80.988281">
    <stop
       offset="0"
       stop-color="#77767b"
       id="stop5227" />
    <stop
       offset="0.384443"
       stop-color="#9a9996"
       id="stop5229" />
    <stop
       offset="0.720567"
       stop-color="#77767b"
       id="stop5231" />
    <stop
       offset="1"
       stop-color="#68666f"
       id="stop5233" />
  </linearGradient>
  <path
     id="path5786"
     d="m 88,-162 c 0,0 -40,0 -40,40 L 47.964844,6 h 0.0332 L 47.964844,254.0938 424,254 c 40,0 40,-40 40,-40 V 6 -42 -90 c 0,0 0,-40 -40,-40 H 224 l -32,-32 z"
     style="display:inline;opacity:0.2;fill:#000000;fill-opacity:1;stroke:none;stroke-width:26.0669;stroke-linecap:butt;stroke-linejoin:miter;stroke-miterlimit:4;stroke-dasharray:none;stroke-dashoffset:0;stroke-opacity:1;marker:none;marker-start:none;marker-mid:none;marker-end:none;paint-order:normal;filter:url(#filter1302);enable-background:new"
     transform="matrix(0.2511615,0,0,0.2511615,-0.29292947,52.434794)" />
  <path
     style="display:inline;fill:url(#linearGradient5836);fill-opacity:1;stroke:none;stroke-width:6.547;stroke-linecap:butt;stroke-linejoin:miter;stroke-miterlimit:4;stroke-dasharray:none;stroke-dashoffset:0;stroke-opacity:1;marker:none;marker-start:none;marker-mid:none;marker-end:none;paint-order:normal;enable-background:new"
     d="M 47.930078,11.244308 H 21.809282 c 0,0 -10.04646,0 -10.04646,10.04646 V 53.43944 H 116.24601 V 29.327936 c 0,0 0,-10.04646 -10.04646,-10.04646 H 55.967247 Z"
     id="path5788" />
  <path
     id="path5790"
     d="m 256,-80 -32,32 H 88 c 0,0 -40,0 -40,40 v 264 h 376 c 40,0 40,-40 40,-40 V -40 c 0,-40 -40,-40 -40,-40 z"
     style="display:inline;opacity:0.1;fill:#000000;fill-opacity:1;stroke:none;stroke-width:26.0669;stroke-linecap:butt;stroke-linejoin:miter;stroke-miterlimit:4;stroke-dasharray:none;stroke-dashoffset:0;stroke-opacity:1;marker:none;marker-start:none;marker-mid:none;marker-end:none;paint-order:normal;filter:url(#filter1529);enable-background:new"
     clip-path="url(#clipPath1509)"
     transform="matrix(0.2511615,0,0,0.2511615,-0.29292947,52.434794)" />
  <path
     style="display:inline;fill:url(#linearGradient5838);fill-opacity:1;stroke:none;stroke-width:6.547;stroke-linecap:butt;stroke-linejoin:miter;stroke-miterlimit:4;stroke-dasharray:none;stroke-dashoffset:0;stroke-opacity:1;marker:none;marker-start:none;marker-mid:none;marker-end:none;paint-order:normal;enable-background:new"
     d="m 64.004415,31.337228 -8.037168,8.037168 H 21.809283 c 0,0 -10.04646,0 -10.04646,10.04646 v 66.306634 h 94.436727 c 10.04646,0 10.04646,-10.04646 10.04646,-10.04646 V 41.383688 c 0,-10.04646 -10.04646,-10.04646 -10.04646,-10.04646 z"
     id="path5792" />
  <path
     style="font-variation-settings:normal;display:inline;fill:#99c1f1;fill-opacity:1;stroke:none;stroke-width:6.547;stroke-linecap:butt;stroke-linejoin:miter;stroke-miterlimit:4;stroke-dasharray:none;stroke-dashoffset:0;stroke-opacity:1;marker:none;marker-start:none;marker-mid:none;marker-end:none;paint-order:normal;enable-background:new;stop-color:#000000"
     d="m 116.24601,104.17406 c 0,0 0,10.04646 -10.04646,10.04646 l -94.436237,0.0236 -9.8e-4,1.50697 94.437217,-0.0236 c 10.04646,0 10.04646,-10.04646 10.04646,-10.04646 z"
     id="path5794" />
  <path
     style="display:inline;opacity:0.3;fill:#ffffff;fill-opacity:1;stroke:none;stroke-width:6.547;stroke-linecap:butt;stroke-linejoin:miter;stroke-miterlimit:4;stroke-dasharray:none;stroke-dashoffset:0;stroke-opacity:1;marker:none;marker-start:none;marker-mid:none;marker-end:none;paint-order:normal;enable-background:new"
     d="m 64.004414,31.337228 -8.037167,8.037168 H 21.809282 c 0,0 -10.04646,0 -10.04646,10.04646 v 1.004646 c 0,-10.04646 10.04646,-10.548783 10.04646,-10.548783 H 56.11568 l 8.037168,-8.037168 h 42.046702 c 1.35133,0 10.04646,0.502323 10.04646,10.548783 v -1.004646 c 0,-10.04646 -10.04646,-10.04646 -10.04646,-10.04646 z"
     id="path5796" />
  <g
     id="surface105959-1"
     transform="matrix(3.4941816,0,0,3.4941816,134.02619,48.099307)"
     style="fill:#3f8ae5;fill-opacity:1;stroke:none;stroke-width:0.893536" />
  <path
     fill-rule="evenodd"
     clip-rule="evenodd"
     d="m 64.02428,51.251265 c -13.28236,0 -24.019856,10.816653 -24.019856,24.19833 0,10.696689 6.879883,19.751212 16.424106,22.955892 1.193275,0.240917 1.630364,-0.520674 1.630364,-1.161315 0,-0.560991 -0.03933,-2.483898 -0.03933,-4.487437 -6.681743,1.442548 -8.073159,-2.884605 -8.073159,-2.884605 -1.073799,-2.804463 -2.66483,-3.525246 -2.66483,-3.525246 -2.18693,-1.482374 0.1593,-1.482374 0.1593,-1.482374 2.425881,0.160283 3.698805,2.483898 3.698805,2.483898 2.147106,3.685529 5.60696,2.64418 6.998866,2.003046 0.198632,-1.562513 0.835342,-2.644179 1.511382,-3.244994 -5.329168,-0.560991 -10.936129,-2.644182 -10.936129,-11.939129 0,-2.644182 0.953831,-4.807511 2.465214,-6.489993 -0.238459,-0.600816 -1.073799,-3.085205 0.238949,-6.410344 0,0 2.028123,-0.641132 6.60111,2.483898 a 23.093556,23.093556 0 0 1 6.005209,-0.801415 c 2.028124,0 4.095581,0.280741 6.00472,0.801415 4.573476,-3.12503 6.6016,-2.483898 6.6016,-2.483898 1.312747,3.325139 0.476916,5.809528 0.238457,6.410344 1.551208,1.682482 2.465706,3.845811 2.465706,6.489993 0,9.294947 -5.60696,11.33782 -10.975953,11.939129 0.875165,0.761099 1.630364,2.203154 1.630364,4.486944 0,3.244998 -0.03933,5.849352 -0.03933,6.650276 0,0.641133 0.437582,1.402724 1.630364,1.162298 9.544223,-3.205663 16.424106,-12.259694 16.424106,-22.956383 0.03933,-13.381677 -10.737493,-24.19833 -23.980028,-24.19833 z"
     fill="#ffffff"
     id="path1-6"
     style="fill:#438de6;fill-opacity:1;stroke-width:0.491667" />
</svg>
