<?xml version="1.0" encoding="UTF-8" standalone="no"?>
<svg
   height="128"
   viewBox="0 0 128 128"
   width="128"
   version="1.1"
   id="svg5248"
   xml:space="preserve"
   xmlns:xlink="http://www.w3.org/1999/xlink"
   xmlns="http://www.w3.org/2000/svg"
   xmlns:svg="http://www.w3.org/2000/svg"><defs
     id="defs5252"><linearGradient
       xlink:href="#linearGradient2023"
       id="linearGradient2025"
       x1="2689.252"
       y1="-1106.803"
       x2="2918.0698"
       y2="-1106.803"
       gradientUnits="userSpaceOnUse"
       gradientTransform="matrix(0.45451006,0,0,0.45552152,-1210.2921,616.15659)" /><linearGradient
       id="linearGradient2023"><stop
         style="stop-color:#62a0ea;stop-opacity:1;"
         offset="0"
         id="stop2019" /><stop
         style="stop-color:#afd4ff;stop-opacity:1;"
         offset="0.05769911"
         id="stop2795" /><stop
         style="stop-color:#62a0ea;stop-opacity:1;"
         offset="0.12220427"
         id="stop2797" /><stop
         style="stop-color:#62a0ea;stop-opacity:1;"
         offset="0.87330586"
         id="stop2793" /><stop
         style="stop-color:#c0d5ea;stop-opacity:1;"
         offset="0.95599729"
         id="stop2791" /><stop
         style="stop-color:#62a0ea;stop-opacity:1;"
         offset="1"
         id="stop2021" /></linearGradient></defs><linearGradient
     id="a"
     gradientUnits="userSpaceOnUse"
     x1="11.999989"
     x2="115.99999"
     y1="64"
     y2="64"><stop
       offset="0"
       stop-color="#3d3846"
       id="stop5214" /><stop
       offset="0.05"
       stop-color="#77767b"
       id="stop5216" /><stop
       offset="0.1"
       stop-color="#5e5c64"
       id="stop5218" /><stop
       offset="0.899999"
       stop-color="#504e56"
       id="stop5220" /><stop
       offset="0.95"
       stop-color="#77767b"
       id="stop5222" /><stop
       offset="1"
       stop-color="#3d3846"
       id="stop5224" /></linearGradient><linearGradient
     id="b"
     gradientUnits="userSpaceOnUse"
     x1="12"
     x2="112.04102"
     y1="60"
     y2="80.988281"><stop
       offset="0"
       stop-color="#77767b"
       id="stop5227" /><stop
       offset="0.384443"
       stop-color="#9a9996"
       id="stop5229" /><stop
       offset="0.720567"
       stop-color="#77767b"
       id="stop5231" /><stop
       offset="1"
       stop-color="#68666f"
       id="stop5233" /></linearGradient><path
     id="rect1135"
     style="fill:#438de6;fill-opacity:1;stroke-width:4;stroke-linecap:round;stop-color:#000000"
     d="m 21.978484,11.984004 c -5.527661,0 -9.978496,4.460011 -9.978496,9.999972 v 86.032984 c 0,5.53996 4.450835,9.99997 9.978496,9.99997 h 84.042956 c 5.5277,0 9.97854,-4.46001 9.97854,-9.99997 V 35.928538 A 11.973368,12.000014 0 0 0 104.02659,23.928507 H 57.999997 A 6.4921144,6.5065619 0 0 1 52.201312,20.347789 L 50.697974,17.355058 A 9.7381057,9.7597768 0 0 0 41.99997,11.984004 Z" /><path
     id="path1953"
     style="fill:url(#linearGradient2025);fill-opacity:1;stroke-width:4;stroke-linecap:round;stop-color:#000000"
     d="m 65.978512,35.98402 c -2.746559,0 -5.227593,1.101406 -7.028817,2.889191 -2.273959,2.257064 -5.385171,5.110815 -8.632782,5.110815 H 21.978484 c -5.527661,0 -9.978496,4.460011 -9.978496,9.999973 V 108.017 c 0,5.53997 4.450835,9.99998 9.978496,9.99998 h 84.042956 c 5.5277,0 9.97854,-4.46001 9.97854,-9.99998 V 59.984037 53.983999 45.983993 c 0,-5.539961 -4.45084,-9.999973 -9.97854,-9.999973 z" /><path
     id="rect1586"
     style="fill:#a4caee;fill-opacity:1;stroke-width:4;stroke-linecap:round;stop-color:#000000"
     d="m 65.978512,31.983995 c -2.746559,0 -5.227593,1.101405 -7.028817,2.889191 C 56.675736,37.130249 53.564524,39.984 50.316913,39.984 H 21.978484 c -5.527661,0 -9.978496,4.460012 -9.978496,9.999973 v 55.977537 c 0,5.53996 4.450835,9.99997 9.978496,9.99997 h 84.042956 c 5.5277,0 9.97854,-4.46001 9.97854,-9.99997 V 55.984012 49.983973 41.983968 c 0,-5.539962 -4.45084,-9.999973 -9.97854,-9.999973 z" /><path
     d="m 63.706836,59.044164 c -1.061446,-0.0022 -2.11572,0.384415 -2.875945,1.161853 L 48.13657,73.187215 c -4.288815,5.314402 2.918977,4.690444 6.01008,6.225237 1.111649,1.133166 -4.245784,1.972282 -3.141307,3.105447 1.11165,1.133166 6.705757,2.180268 7.817407,3.313433 1.11165,1.133165 -2.266331,2.33805 -1.161853,3.471215 1.111649,1.133166 3.672029,0.0596 4.152549,2.675131 0.342101,1.871875 4.618724,0.803257 6.712929,-0.724365 1.111649,-1.133165 -2.122892,-1.025586 -1.011243,-2.158752 2.754022,-2.818569 5.321574,-1.025586 6.268269,-3.851327 0.466176,-1.398527 -4.059313,-2.15158 -2.947664,-3.284746 3.19151,-1.864702 14.200427,-3.076759 8.964916,-8.319441 L 66.676016,60.155813 C 65.87276,59.381244 64.79697,58.99396 63.735524,58.99396 Z m 0.114034,1.233572 c 0.760225,0.004 1.513278,0.288312 2.058344,0.839116 l 5.020353,5.099244 c 0.476217,0.486975 0.469762,1.427215 0.202966,1.699748 l -2.495833,-1.993797 -0.49056,2.954836 -2.087032,-1.097305 -3.334949,2.108548 -1.104477,-4.446598 -1.792984,3.098274 H 57.05702 c -1.118821,0 -1.247916,-1.420042 -0.233805,-2.431285 1.771468,-1.914906 3.808296,-3.865671 4.912774,-4.991665 0.555825,-0.568017 1.319636,-0.846288 2.07986,-0.839116 z m -6.031596,19.866253 c 0.339233,0.210855 5.472185,1.255089 6.727273,1.463075 0.434619,0.0918 0.126943,0.539329 -0.47263,0.839116 -1.348323,0.359314 -7.889126,-2.302191 -6.253925,-2.302191 z m 19.937973,3.571623 c -1.032758,0.03557 -2.051173,0.562997 -2.330878,1.549137 0,0.644757 4.747819,1.068618 4.747819,-0.152045 -0.338515,-0.975382 -1.384183,-1.434386 -2.416941,-1.398526 z m -21.946114,2.797054 c -1.441558,0.07674 -2.983524,1.118821 -1.757123,2.180267 1.125993,0.975383 2.861601,-0.241694 3.385152,-1.599341 -0.340667,-0.452549 -0.975383,-0.616786 -1.628029,-0.582361 z m 19.005622,0.08033 c -1.448731,1.29812 0.162803,2.617756 1.592169,1.77864 0.318434,-0.323455 -0.0085,-1.455903 -1.592169,-1.77864 z"
     stroke-width="0.0946695"
     id="path1-6"
     style="fill:#438de6;fill-opacity:1" /></svg>
