<?xml version="1.0" encoding="UTF-8" standalone="no"?>
<svg
   height="128"
   viewBox="0 0 128 128"
   width="128"
   version="1.1"
   id="svg5248"
   xml:space="preserve"
   xmlns:xlink="http://www.w3.org/1999/xlink"
   xmlns="http://www.w3.org/2000/svg"
   xmlns:svg="http://www.w3.org/2000/svg"><defs
     id="defs5252"><filter
       style="color-interpolation-filters:sRGB"
       id="filter1302"
       x="-0.012000846"
       width="1.0240017"
       y="-0.011999155"
       height="1.0239983"><feGaussianBlur
         stdDeviation="2.0803224"
         id="feGaussianBlur1304" /></filter><linearGradient
       id="bg-gradient-2"><stop
         style="stop-color:#3584e4;stop-opacity:1"
         offset="0"
         id="stop13402" /><stop
         style="stop-color:#62a0ea;stop-opacity:1"
         offset="1"
         id="stop13404" /></linearGradient><clipPath
       clipPathUnits="userSpaceOnUse"
       id="clipPath1509"><path
         id="path1511"
         d="M 192,-164 H 88 c 0,0 -40,0 -40,40 V 4 h 416 v -96 c 0,0 0,-40 -40,-40 H 224 Z"
         style="display:inline;opacity:1;vector-effect:none;fill:#c9b8a7;fill-opacity:1;stroke:none;stroke-width:26.0669;stroke-linecap:butt;stroke-linejoin:miter;stroke-miterlimit:4;stroke-dasharray:none;stroke-dashoffset:0;stroke-opacity:1;marker:none;marker-start:none;marker-mid:none;marker-end:none;paint-order:normal;enable-background:new" /></clipPath><filter
       style="color-interpolation-filters:sRGB"
       id="filter1529"
       x="-0.10846153"
       width="1.2169231"
       y="-0.13428571"
       height="1.2685714"><feGaussianBlur
         stdDeviation="18.8"
         id="feGaussianBlur1531" /></filter><linearGradient
       id="linearGradient888"><stop
         style="stop-color:#99c1f1;stop-opacity:1"
         offset="0"
         id="stop884" /><stop
         style="stop-color:#c3e5e7;stop-opacity:1"
         offset="1"
         id="stop886" /></linearGradient><linearGradient
       xlink:href="#bg-gradient-2"
       id="linearGradient5836"
       gradientUnits="userSpaceOnUse"
       x1="64"
       y1="756"
       x2="480"
       y2="756"
       gradientTransform="matrix(0.2511615,0,0,0.2511615,-222.42944,-48.902324)" /><linearGradient
       xlink:href="#linearGradient888"
       id="linearGradient5838"
       gradientUnits="userSpaceOnUse"
       x1="152.89844"
       y1="-38.796875"
       x2="447.30859"
       y2="316"
       gradientTransform="matrix(0.2511615,0,0,0.2511615,-218.41086,161.06869)" /><linearGradient
       xlink:href="#linearGradient2023"
       id="linearGradient2025"
       x1="2689.252"
       y1="-1106.803"
       x2="2918.0698"
       y2="-1106.803"
       gradientUnits="userSpaceOnUse" /><linearGradient
       id="linearGradient2023"><stop
         style="stop-color:#62a0ea;stop-opacity:1;"
         offset="0"
         id="stop2019" /><stop
         style="stop-color:#afd4ff;stop-opacity:1;"
         offset="0.05769911"
         id="stop2795" /><stop
         style="stop-color:#62a0ea;stop-opacity:1;"
         offset="0.12220427"
         id="stop2797" /><stop
         style="stop-color:#62a0ea;stop-opacity:1;"
         offset="0.87330586"
         id="stop2793" /><stop
         style="stop-color:#c0d5ea;stop-opacity:1;"
         offset="0.95599729"
         id="stop2791" /><stop
         style="stop-color:#62a0ea;stop-opacity:1;"
         offset="1"
         id="stop2021" /></linearGradient></defs><linearGradient
     id="a"
     gradientUnits="userSpaceOnUse"
     x1="11.999989"
     x2="115.99999"
     y1="64"
     y2="64"><stop
       offset="0"
       stop-color="#3d3846"
       id="stop5214" /><stop
       offset="0.05"
       stop-color="#77767b"
       id="stop5216" /><stop
       offset="0.1"
       stop-color="#5e5c64"
       id="stop5218" /><stop
       offset="0.899999"
       stop-color="#504e56"
       id="stop5220" /><stop
       offset="0.95"
       stop-color="#77767b"
       id="stop5222" /><stop
       offset="1"
       stop-color="#3d3846"
       id="stop5224" /></linearGradient><linearGradient
     id="b"
     gradientUnits="userSpaceOnUse"
     x1="12"
     x2="112.04102"
     y1="60"
     y2="80.988281"><stop
       offset="0"
       stop-color="#77767b"
       id="stop5227" /><stop
       offset="0.384443"
       stop-color="#9a9996"
       id="stop5229" /><stop
       offset="0.720567"
       stop-color="#77767b"
       id="stop5231" /><stop
       offset="1"
       stop-color="#68666f"
       id="stop5233" /></linearGradient><g
     id="g760"
     style="display:inline;stroke-width:1.26428;enable-background:new"
     transform="matrix(0.45451006,0,0,0.45552152,-1210.2921,616.15659)"><path
       id="rect1135"
       style="fill:#438de6;fill-opacity:1;stroke-width:8.79091;stroke-linecap:round;stop-color:#000000"
       d="m 2711.2064,-1326.3316 c -12.1618,0 -21.9544,9.791 -21.9544,21.9528 v 188.867 c 0,12.1618 9.7926,21.9528 21.9544,21.9528 h 184.9089 c 12.1619,0 21.9545,-9.791 21.9545,-21.9528 v -158.2547 a 26.343462,26.343462 45 0 0 -26.3435,-26.3435 h -101.2664 a 14.283764,14.283764 31.638659 0 1 -12.7581,-7.8607 l -3.3076,-6.5699 a 21.425501,21.425501 31.638659 0 0 -19.1371,-11.791 z" /><path
       id="path1953"
       style="fill:url(#linearGradient2025);fill-opacity:1;stroke-width:8.79091;stroke-linecap:round;stop-color:#000000"
       d="m 2808.014,-1273.6447 c -6.0429,0 -11.5016,2.4179 -15.4646,6.3426 -5.0031,4.9549 -11.8483,11.2197 -18.9936,11.2197 h -62.3494 c -12.1618,0 -21.9544,9.791 -21.9544,21.9528 v 118.6179 c 0,12.1618 9.7926,21.9528 21.9544,21.9528 h 184.9089 c 12.1619,0 21.9545,-9.791 21.9545,-21.9528 v -105.4461 -13.1718 -17.5623 c 0,-12.1618 -9.7926,-21.9528 -21.9545,-21.9528 z" /><path
       id="rect1586"
       style="fill:#a4caee;fill-opacity:1;stroke-width:8.79091;stroke-linecap:round;stop-color:#000000"
       d="m 2808.014,-1282.4259 c -6.0429,0 -11.5016,2.4179 -15.4646,6.3426 -5.0031,4.9549 -11.8483,11.2197 -18.9936,11.2197 h -62.3494 c -12.1618,0 -21.9544,9.791 -21.9544,21.9528 v 122.8867 c 0,12.1618 9.7926,21.9528 21.9544,21.9528 h 184.9089 c 12.1619,0 21.9545,-9.791 21.9545,-21.9528 v -109.7149 -13.1718 -17.5623 c 0,-12.1618 -9.7926,-21.9528 -21.9545,-21.9528 z" /></g><g
     id="g2247"
     transform="matrix(0.0365662,0,0,0.0365662,125.57747,100.11765)"
     style="fill:#438de6;fill-opacity:1"><path
       d="M 64.484919,59.796244 A 16.102848,16.102848 0 0 0 48.527142,74.593456 l -2.611273,1.250509 -0.343817,0.171183 -0.0087,0.01009 a 4.352121,4.352121 0 0 0 -1.885919,3.945923 11.678191,11.678191 0 0 0 1.668313,5.788322 c 1.755356,3.046484 4.497192,5.135502 6.818324,5.135502 a 3.3656402,3.3656402 0 0 0 1.697326,-0.481635 v -0.02176 l 2.118032,-1.031452 A 16.102848,16.102848 0 0 0 80.641414,76.53588 l 1.900426,-1.082227 0.02902,-0.02045 a 4.2360644,4.2360644 0 0 0 1.269368,-1.53775 l 0.03336,-0.09285 a 6.3250825,6.3250825 0 0 0 0.461324,-2.52423 12.998334,12.998334 0 0 0 -1.914932,-5.875364 11.344528,11.344528 0 0 0 -4.032966,-3.699302 4.8308543,4.8308543 0 0 0 -1.78437,-0.504846 0.82400157,0.82400157 0 0 0 -0.464226,0.108802 l -2.495216,1.204088 a 16.102848,16.102848 0 0 0 -9.124946,-2.799869 z m 0.113154,1.02565 c 2.190568,0.0068 4.366629,0.561424 6.238041,1.668313 0.65717,0.459874 1.299834,1.135904 1.428946,1.958454 -5.22e-4,-0.0068 4.06e-4,-5.7e-5 0.0038,0.02466 0.0021,0.0145 0.004,0.02902 0.0058,0.04367 -0.0027,-0.0206 -0.0042,-0.03206 -0.0058,-0.04367 -0.0012,-0.0082 -0.0024,-0.01654 -0.0038,-0.02466 0.0019,0.02423 0.02147,0.2031 0.01944,0.261127 0.0052,0.320607 -0.06659,0.620903 -0.191494,0.896538 0.122441,-0.271283 0.185691,-0.551269 0.188592,-0.838509 -0.0053,0.515001 -0.213254,1.018396 -0.606395,1.479722 0.150874,-0.178438 0.282887,-0.371381 0.384437,-0.578833 0.0062,-0.01254 0.01227,-0.0251 0.01828,-0.03772 -0.0059,0.01261 -0.01207,0.0251 -0.01828,0.03772 -0.115621,0.235015 -0.275634,0.464226 -0.478733,0.684733 0.02568,-0.02814 0.05063,-0.05658 0.07485,-0.08516 -0.290142,0.336564 -0.649917,0.623803 -1.014045,0.854466 -1.842397,1.146059 -4.1055,1.494228 -6.223533,1.523242 -0.870423,0.02263 -1.740848,-0.06137 -2.596765,-0.230662 -0.06586,-0.01128 -0.131869,-0.02263 -0.197296,-0.03395 -1.885919,-0.465677 -4.55522,-1.320144 -4.787333,-3.626767 0.0084,-1.073524 0.847213,-1.900427 1.697327,-2.422681 1.827891,-1.015495 3.96043,-1.523242 6.078462,-1.523242 z m 7.064944,5.440152 c -0.0057,0.0068 -0.01145,0.01351 -0.01727,0.02031 0.0058,-0.0067 0.01149,-0.01352 0.01727,-0.02031 z m 4.932404,-4.424657 a 4.1780361,4.1780361 0 0 1 1.566763,0.459874 10.720725,10.720725 0 0 1 3.815359,3.525218 12.766221,12.766221 0 0 1 1.78437,5.541701 5.7883209,5.7883209 0 0 1 -0.435212,2.350145 l 0.02902,-0.0015 -0.03336,0.09284 a 3.6847958,3.6847958 0 0 1 -1.073523,1.282425 l -1.610285,0.911044 -0.03191,0.01886 V 75.867147 A 16.102848,16.102848 0 0 0 74.121965,62.970362 h 0.01303 l 2.292117,-1.105439 a 0.54981795,0.54981795 0 0 1 0.161028,-0.01886 z m -5.033954,4.55522 c -0.364127,0.394592 -0.86172,0.760171 -1.479721,1.083678 l -0.0015,-0.0073 c 0.619452,-0.323508 1.117045,-0.686185 1.479722,-1.076425 z m -19.874685,7.746775 c 1.12865,0.0049 2.234089,0.554171 3.148034,1.20989 2.060003,1.523242 3.510711,3.771838 4.294092,6.180012 0.422156,1.711833 0.896537,3.800852 -0.176986,5.382123 -0.217606,0.336563 -0.485986,0.639762 -0.792086,0.896537 l -0.02321,-0.02321 c -1.019846,0.49034 -2.030989,0.98358 -3.060991,1.465215 0.338014,-0.515001 0.512099,-1.118495 0.567226,-1.740849 0.32786,-2.350145 -0.221959,-4.80184 -1.523242,-6.774801 -1.180876,-2.132539 -3.075499,-4.032966 -5.39663,-4.859869 -0.323508,-0.09778 -0.654269,-0.178437 -0.990834,-0.203099 0.940059,-0.45117 1.871413,-0.905241 2.814373,-1.35496 0.374282,-0.135496 0.751465,-0.194395 1.12865,-0.192944 z m 24.516948,0.208902 c 0.243718,-9.62e-4 0.488888,0.02408 0.735508,0.0795 1.302735,0.301747 1.987469,1.595778 2.132539,2.828878 0.282888,2.437188 -0.618001,4.859869 -1.972961,6.861845 -1.051763,1.523242 -2.437187,2.915921 -4.192543,3.568739 -1.048861,0.388789 -2.350146,0.397493 -3.206063,-0.42941 -1.217143,-1.206988 -1.225847,-3.104513 -0.919748,-4.685783 0.02408,-0.125051 0.04802,-0.249522 0.0721,-0.375733 0.674579,-2.640287 2.190568,-5.15001 4.424657,-6.760295 0.855916,-0.599142 1.871412,-1.089481 2.930428,-1.093833 z m -28.86907,1.871412 c 0.191494,1.74e-4 0.382987,0.01073 0.57303,0.02118 1.29403,0.163931 2.422681,0.992284 3.394654,1.784371 1.68282,1.465213 2.857893,3.452682 3.539725,5.556207 0.467128,1.450707 0.642664,3.046484 0.208902,4.526206 -0.05557,0.152324 -0.108948,0.306099 -0.168282,0.458424 v 0.01741 c -0.525156,1.494229 -2.292117,2.045498 -3.699303,1.595778 -1.755355,-0.510649 -3.177048,-1.798876 -4.294093,-3.220569 -1.68282,-2.190567 -2.741836,-4.932404 -2.553243,-7.732269 0.158127,-1.141706 0.818198,-2.379159 1.929439,-2.843385 0.339466,-0.147972 0.705044,-0.18424 1.070623,-0.18424 z"
       id="path1"
       style="stroke-width:1.4507;fill:#438de6;fill-opacity:1"
       transform="matrix(27.34766,0,0,27.34766,-3434.2499,-2737.9834)" /></g></svg>
