<?xml version="1.0" encoding="UTF-8" standalone="no"?>
<svg
   height="128"
   viewBox="0 0 128 128"
   width="128"
   version="1.1"
   id="svg5248"
   xmlns:xlink="http://www.w3.org/1999/xlink"
   xmlns="http://www.w3.org/2000/svg"
   xmlns:svg="http://www.w3.org/2000/svg">
  <defs
     id="defs5252">
    <linearGradient
       xlink:href="#linearGradient2023"
       id="linearGradient2025"
       x1="2689.252"
       y1="-1106.803"
       x2="2918.0698"
       y2="-1106.803"
       gradientUnits="userSpaceOnUse" />
    <linearGradient
       id="linearGradient2023">
      <stop
         style="stop-color:#62a0ea;stop-opacity:1;"
         offset="0"
         id="stop2019" />
      <stop
         style="stop-color:#afd4ff;stop-opacity:1;"
         offset="0.05769911"
         id="stop2795" />
      <stop
         style="stop-color:#62a0ea;stop-opacity:1;"
         offset="0.12220427"
         id="stop2797" />
      <stop
         style="stop-color:#62a0ea;stop-opacity:1;"
         offset="0.87330586"
         id="stop2793" />
      <stop
         style="stop-color:#c0d5ea;stop-opacity:1;"
         offset="0.95599729"
         id="stop2791" />
      <stop
         style="stop-color:#62a0ea;stop-opacity:1;"
         offset="1"
         id="stop2021" />
    </linearGradient>
  </defs>
  <linearGradient
     id="a"
     gradientUnits="userSpaceOnUse"
     x1="11.999989"
     x2="115.99999"
     y1="64"
     y2="64">
    <stop
       offset="0"
       stop-color="#3d3846"
       id="stop5214" />
    <stop
       offset="0.05"
       stop-color="#77767b"
       id="stop5216" />
    <stop
       offset="0.1"
       stop-color="#5e5c64"
       id="stop5218" />
    <stop
       offset="0.899999"
       stop-color="#504e56"
       id="stop5220" />
    <stop
       offset="0.95"
       stop-color="#77767b"
       id="stop5222" />
    <stop
       offset="1"
       stop-color="#3d3846"
       id="stop5224" />
  </linearGradient>
  <linearGradient
     id="b"
     gradientUnits="userSpaceOnUse"
     x1="12"
     x2="112.04102"
     y1="60"
     y2="80.988281">
    <stop
       offset="0"
       stop-color="#77767b"
       id="stop5227" />
    <stop
       offset="0.384443"
       stop-color="#9a9996"
       id="stop5229" />
    <stop
       offset="0.720567"
       stop-color="#77767b"
       id="stop5231" />
    <stop
       offset="1"
       stop-color="#68666f"
       id="stop5233" />
  </linearGradient>
  <g
     id="g760"
     style="display:inline;stroke-width:1.26428;enable-background:new"
     transform="matrix(0.45451006,0,0,0.45552152,-1210.2921,616.15659)">
    <path
       id="rect1135"
       style="fill:#438de6;fill-opacity:1;stroke-width:8.79091;stroke-linecap:round;stop-color:#000000"
       d="m 2711.2064,-1326.3316 c -12.1618,0 -21.9544,9.791 -21.9544,21.9528 v 188.867 c 0,12.1618 9.7926,21.9528 21.9544,21.9528 h 184.9089 c 12.1619,0 21.9545,-9.791 21.9545,-21.9528 v -158.2547 a 26.343462,26.343462 45 0 0 -26.3435,-26.3435 h -101.2664 a 14.283764,14.283764 31.638659 0 1 -12.7581,-7.8607 l -3.3076,-6.5699 a 21.425501,21.425501 31.638659 0 0 -19.1371,-11.791 z" />
    <path
       id="path1953"
       style="fill:url(#linearGradient2025);fill-opacity:1;stroke-width:8.79091;stroke-linecap:round;stop-color:#000000"
       d="m 2808.014,-1273.6447 c -6.0429,0 -11.5016,2.4179 -15.4646,6.3426 -5.0031,4.9549 -11.8483,11.2197 -18.9936,11.2197 h -62.3494 c -12.1618,0 -21.9544,9.791 -21.9544,21.9528 v 118.6179 c 0,12.1618 9.7926,21.9528 21.9544,21.9528 h 184.9089 c 12.1619,0 21.9545,-9.791 21.9545,-21.9528 v -105.4461 -13.1718 -17.5623 c 0,-12.1618 -9.7926,-21.9528 -21.9545,-21.9528 z" />
    <path
       id="rect1586"
       style="fill:#a4caee;fill-opacity:1;stroke-width:8.79091;stroke-linecap:round;stop-color:#000000"
       d="m 2808.014,-1282.4259 c -6.0429,0 -11.5016,2.4179 -15.4646,6.3426 -5.0031,4.9549 -11.8483,11.2197 -18.9936,11.2197 h -62.3494 c -12.1618,0 -21.9544,9.791 -21.9544,21.9528 v 122.8867 c 0,12.1618 9.7926,21.9528 21.9544,21.9528 h 184.9089 c 12.1619,0 21.9545,-9.791 21.9545,-21.9528 v -109.7149 -13.1718 -17.5623 c 0,-12.1618 -9.7926,-21.9528 -21.9545,-21.9528 z" />
  </g>
  <path
     style="fill:#438de6;fill-opacity:1;stroke-width:2.0173"
     d="m 63.999984,59.984859 c -0.907778,0 -1.815557,0.342939 -2.501439,1.069164 L 49.0115,73.924346 c -0.685882,0.70605 -1.048986,1.634005 -1.069158,2.561958 0,0.02017 0,0.04034 0,0.06052 0,2.763688 7.363111,0.08069 8.028821,3.449569 0.363104,1.835735 -4.01441,0.988472 -4.01441,2.82421 0,2.158502 6.193091,0.685878 7.968303,2.440922 0.726227,1.775216 -2.380405,1.492795 -1.815557,3.146977 1.028813,1.069162 3.368873,0.463975 3.812666,2.198845 0.524503,1.976946 3.873204,1.634007 5.829988,0.181572 1.048986,-1.069172 -1.59366,-1.553324 -0.564847,-2.642661 1.048985,-1.069164 6.172919,-0.847263 6.213264,-3.187321 -0.484158,-1.472623 -2.42075,-1.7147 -2.440923,-3.449571 -0.100962,-1.472623 1.573489,-1.04899 6.899126,-2.50144 2.118164,-1.008651 2.198853,-1.533145 2.198853,-2.4611 0,-0.02017 0,-0.04035 0,-0.06052 -0.02027,-0.927953 -0.443813,-1.855908 -1.129675,-2.56196 L 66.501424,61.054025 c -0.706055,-0.726227 -1.593661,-1.069166 -2.50144,-1.069166 z m 0.242069,2.703172 c 0.948124,0 3.530273,3.187319 5.829988,5.587897 0.66569,0.867435 -0.242089,1.755044 -0.242089,1.755044 l -4.821327,-2.642653 -2.138316,2.884728 -1.876095,-2.824208 -1.129675,4.397696 -3.328528,-1.997119 0.887606,-1.129683 5.204603,-5.345824 c 0.383296,-0.403459 0.706055,-0.685878 1.613833,-0.685878 z m 14.302602,19.325653 c -0.262241,-0.02019 -0.50433,0 -0.685882,0.06052 -0.342931,0.100862 -1.956764,0.16138 -1.815557,1.371759 1.452454,0.62536 3.671479,1.109508 3.933721,-0.121035 0.201724,-0.907783 -0.66571,-1.291067 -1.432282,-1.311241 z m -24.89338,4.07493 c -0.141307,0.02019 -0.242069,0.06052 -0.363103,0.121034 -1.109523,0.423631 -1.855922,1.311241 -0.827089,1.694525 1.028813,0.383286 1.734868,-0.02019 2.642646,-0.504322 0.907779,-0.484146 0.867434,-0.564838 0.806917,-0.746396 -0.121035,0.02019 -0.948124,-0.484149 -1.815557,-0.564841 -0.141308,-0.02019 -0.302607,-0.02019 -0.443814,0 z"
     id="path10342" />
</svg>
