<?xml version="1.0" encoding="UTF-8" standalone="no"?>
<svg
   height="128"
   viewBox="0 0 128 128"
   width="128"
   version="1.1"
   id="svg5248"
   xml:space="preserve"
   xmlns:xlink="http://www.w3.org/1999/xlink"
   xmlns="http://www.w3.org/2000/svg"
   xmlns:svg="http://www.w3.org/2000/svg"><defs
     id="defs5252"><filter
       style="color-interpolation-filters:sRGB"
       id="filter1302"
       x="-0.012000846"
       width="1.0240017"
       y="-0.011999155"
       height="1.0239983"><feGaussianBlur
         stdDeviation="2.0803224"
         id="feGaussianBlur1304" /></filter><linearGradient
       id="bg-gradient-2"><stop
         style="stop-color:#3584e4;stop-opacity:1"
         offset="0"
         id="stop13402" /><stop
         style="stop-color:#62a0ea;stop-opacity:1"
         offset="1"
         id="stop13404" /></linearGradient><clipPath
       clipPathUnits="userSpaceOnUse"
       id="clipPath1509"><path
         id="path1511"
         d="M 192,-164 H 88 c 0,0 -40,0 -40,40 V 4 h 416 v -96 c 0,0 0,-40 -40,-40 H 224 Z"
         style="display:inline;opacity:1;vector-effect:none;fill:#c9b8a7;fill-opacity:1;stroke:none;stroke-width:26.0669;stroke-linecap:butt;stroke-linejoin:miter;stroke-miterlimit:4;stroke-dasharray:none;stroke-dashoffset:0;stroke-opacity:1;marker:none;marker-start:none;marker-mid:none;marker-end:none;paint-order:normal;enable-background:new" /></clipPath><filter
       style="color-interpolation-filters:sRGB"
       id="filter1529"
       x="-0.10846153"
       width="1.2169231"
       y="-0.1342857"
       height="1.2685714"><feGaussianBlur
         stdDeviation="18.8"
         id="feGaussianBlur1531" /></filter><linearGradient
       id="linearGradient888"><stop
         style="stop-color:#99c1f1;stop-opacity:1"
         offset="0"
         id="stop884" /><stop
         style="stop-color:#c3e5e7;stop-opacity:1"
         offset="1"
         id="stop886" /></linearGradient><linearGradient
       xlink:href="#bg-gradient-2"
       id="linearGradient5836"
       gradientUnits="userSpaceOnUse"
       x1="64"
       y1="756"
       x2="480"
       y2="756" /><linearGradient
       xlink:href="#linearGradient888"
       id="linearGradient5838"
       gradientUnits="userSpaceOnUse"
       x1="152.89844"
       y1="-38.796875"
       x2="447.30859"
       y2="316" /><mask
       id="holes"><rect
         x="-60"
         y="-60"
         width="120"
         height="120"
         fill="#ffffff"
         id="rect1240" /><circle
         id="hole"
         cy="-40"
         r="3"
         cx="0" /><use
         xlink:href="#hole"
         transform="rotate(72)"
         id="use1243" /><use
         xlink:href="#hole"
         transform="rotate(144)"
         id="use1245" /><use
         xlink:href="#hole"
         transform="rotate(-144)"
         id="use1247" /><use
         xlink:href="#hole"
         transform="rotate(-72)"
         id="use1249" /></mask><mask
       id="holes-3"><rect
         x="-60"
         y="-60"
         width="120"
         height="120"
         fill="#ffffff"
         id="rect4455" /><circle
         id="hole-6"
         cy="-40"
         r="3"
         cx="0" /><use
         xlink:href="#hole-6"
         transform="rotate(72)"
         id="use4458" /><use
         xlink:href="#hole-6"
         transform="rotate(144)"
         id="use4460" /><use
         xlink:href="#hole-6"
         transform="rotate(-144)"
         id="use4462" /><use
         xlink:href="#hole-6"
         transform="rotate(-72)"
         id="use4464" /></mask><mask
       id="holes-36"><rect
         x="-60"
         y="-60"
         width="120"
         height="120"
         fill="#ffffff"
         id="rect946" /><circle
         id="hole-7"
         cy="-40"
         r="3"
         cx="0" /><use
         xlink:href="#hole-7"
         transform="rotate(72)"
         id="use949" /><use
         xlink:href="#hole-7"
         transform="rotate(144)"
         id="use951" /><use
         xlink:href="#hole-7"
         transform="rotate(-144)"
         id="use953" /><use
         xlink:href="#hole-7"
         transform="rotate(-72)"
         id="use955" /></mask><mask
       id="holes-9"><rect
         x="-60"
         y="-60"
         width="120"
         height="120"
         fill="#ffffff"
         id="rect4023" /><circle
         id="hole-3"
         cy="-40"
         r="3"
         cx="0" /><use
         xlink:href="#hole-3"
         transform="rotate(72)"
         id="use4026" /><use
         xlink:href="#hole-3"
         transform="rotate(144)"
         id="use4028" /><use
         xlink:href="#hole-3"
         transform="rotate(-144)"
         id="use4030" /><use
         xlink:href="#hole-3"
         transform="rotate(-72)"
         id="use4032" /></mask><mask
       id="holes-1"><rect
         x="-60"
         y="-60"
         width="120"
         height="120"
         fill="#ffffff"
         id="rect5879" /><circle
         id="hole-8"
         cy="-40"
         r="3"
         cx="0" /><use
         xlink:href="#hole-8"
         transform="rotate(72)"
         id="use5882" /><use
         xlink:href="#hole-8"
         transform="rotate(144)"
         id="use5884" /><use
         xlink:href="#hole-8"
         transform="rotate(-144)"
         id="use5886" /><use
         xlink:href="#hole-8"
         transform="rotate(-72)"
         id="use5888" /></mask><mask
       id="holes-367"><rect
         x="-60"
         y="-60"
         width="120"
         height="120"
         fill="#ffffff"
         id="rect1240-5" /><circle
         id="hole-35"
         cy="-40"
         r="3"
         cx="0" /><use
         xlink:href="#hole-35"
         transform="rotate(72)"
         id="use1243-6" /><use
         xlink:href="#hole-35"
         transform="rotate(144)"
         id="use1245-2" /><use
         xlink:href="#hole-35"
         transform="rotate(-144)"
         id="use1247-9" /><use
         xlink:href="#hole-35"
         transform="rotate(-72)"
         id="use1249-1" /></mask><mask
       id="holes-3-2"><rect
         x="-60"
         y="-60"
         width="120"
         height="120"
         fill="#ffffff"
         id="rect4455-7" /><circle
         id="hole-6-0"
         cy="-40"
         r="3"
         cx="0" /><use
         xlink:href="#hole-6-0"
         transform="rotate(72)"
         id="use4458-9" /><use
         xlink:href="#hole-6-0"
         transform="rotate(144)"
         id="use4460-3" /><use
         xlink:href="#hole-6-0"
         transform="rotate(-144)"
         id="use4462-6" /><use
         xlink:href="#hole-6-0"
         transform="rotate(-72)"
         id="use4464-0" /></mask><mask
       id="holes-36-6"><rect
         x="-60"
         y="-60"
         width="120"
         height="120"
         fill="#ffffff"
         id="rect946-2" /><circle
         id="hole-7-6"
         cy="-40"
         r="3"
         cx="0" /><use
         xlink:href="#hole-7-6"
         transform="rotate(72)"
         id="use949-1" /><use
         xlink:href="#hole-7-6"
         transform="rotate(144)"
         id="use951-8" /><use
         xlink:href="#hole-7-6"
         transform="rotate(-144)"
         id="use953-7" /><use
         xlink:href="#hole-7-6"
         transform="rotate(-72)"
         id="use955-9" /></mask><mask
       id="holes-9-2"><rect
         x="-60"
         y="-60"
         width="120"
         height="120"
         fill="#ffffff"
         id="rect4023-0" /><circle
         id="hole-3-2"
         cy="-40"
         r="3"
         cx="0" /><use
         xlink:href="#hole-3-2"
         transform="rotate(72)"
         id="use4026-3" /><use
         xlink:href="#hole-3-2"
         transform="rotate(144)"
         id="use4028-7" /><use
         xlink:href="#hole-3-2"
         transform="rotate(-144)"
         id="use4030-5" /><use
         xlink:href="#hole-3-2"
         transform="rotate(-72)"
         id="use4032-9" /></mask><mask
       id="holes-1-2"><rect
         x="-60"
         y="-60"
         width="120"
         height="120"
         fill="#ffffff"
         id="rect5879-2" /><circle
         id="hole-8-8"
         cy="-40"
         r="3"
         cx="0" /><use
         xlink:href="#hole-8-8"
         transform="rotate(72)"
         id="use5882-9" /><use
         xlink:href="#hole-8-8"
         transform="rotate(144)"
         id="use5884-7" /><use
         xlink:href="#hole-8-8"
         transform="rotate(-144)"
         id="use5886-3" /><use
         xlink:href="#hole-8-8"
         transform="rotate(-72)"
         id="use5888-6" /></mask></defs><linearGradient
     id="a"
     gradientUnits="userSpaceOnUse"
     x1="11.999989"
     x2="115.99999"
     y1="64"
     y2="64"><stop
       offset="0"
       stop-color="#3d3846"
       id="stop5214" /><stop
       offset="0.05"
       stop-color="#77767b"
       id="stop5216" /><stop
       offset="0.1"
       stop-color="#5e5c64"
       id="stop5218" /><stop
       offset="0.899999"
       stop-color="#504e56"
       id="stop5220" /><stop
       offset="0.95"
       stop-color="#77767b"
       id="stop5222" /><stop
       offset="1"
       stop-color="#3d3846"
       id="stop5224" /></linearGradient><linearGradient
     id="b"
     gradientUnits="userSpaceOnUse"
     x1="12"
     x2="112.04102"
     y1="60"
     y2="80.988281"><stop
       offset="0"
       stop-color="#77767b"
       id="stop5227" /><stop
       offset="0.384443"
       stop-color="#9a9996"
       id="stop5229" /><stop
       offset="0.720567"
       stop-color="#77767b"
       id="stop5231" /><stop
       offset="1"
       stop-color="#68666f"
       id="stop5233" /></linearGradient><g
     transform="matrix(0.2511615,0,0,0.2511615,-0.29292947,52.434794)"
     id="g5798"
     style="fill:#c9b8a7;fill-opacity:1;stroke:#a08f7f;stroke-opacity:1"><path
       id="path5786"
       d="m 88,-162 c 0,0 -40,0 -40,40 L 47.964844,6 h 0.0332 L 47.964844,254.0938 424,254 c 40,0 40,-40 40,-40 V 6 -42 -90 c 0,0 0,-40 -40,-40 H 224 l -32,-32 z"
       style="display:inline;opacity:0.2;fill:#000000;fill-opacity:1;stroke:none;stroke-width:26.0669;stroke-linecap:butt;stroke-linejoin:miter;stroke-miterlimit:4;stroke-dasharray:none;stroke-dashoffset:0;stroke-opacity:1;marker:none;marker-start:none;marker-mid:none;marker-end:none;paint-order:normal;filter:url(#filter1302);enable-background:new" /><path
       style="display:inline;opacity:1;fill:url(#linearGradient5836);fill-opacity:1;stroke:none;stroke-width:26.0669;stroke-linecap:butt;stroke-linejoin:miter;stroke-miterlimit:4;stroke-dasharray:none;stroke-dashoffset:0;stroke-opacity:1;marker:none;marker-start:none;marker-mid:none;marker-end:none;paint-order:normal;enable-background:new"
       d="M 208,672 H 104 c 0,0 -40,0 -40,40 v 128 h 416 v -96 c 0,0 0,-40 -40,-40 H 240 Z"
       transform="translate(-16,-836)"
       id="path5788" /><path
       id="path5790"
       d="m 256,-80 -32,32 H 88 c 0,0 -40,0 -40,40 v 264 h 376 c 40,0 40,-40 40,-40 V -40 c 0,-40 -40,-40 -40,-40 z"
       style="display:inline;opacity:0.1;fill:#000000;fill-opacity:1;stroke:none;stroke-width:26.0669;stroke-linecap:butt;stroke-linejoin:miter;stroke-miterlimit:4;stroke-dasharray:none;stroke-dashoffset:0;stroke-opacity:1;marker:none;marker-start:none;marker-mid:none;marker-end:none;paint-order:normal;filter:url(#filter1529);enable-background:new"
       clip-path="url(#clipPath1509)" /><path
       style="display:inline;opacity:1;fill:url(#linearGradient5838);fill-opacity:1;stroke:none;stroke-width:26.0669;stroke-linecap:butt;stroke-linejoin:miter;stroke-miterlimit:4;stroke-dasharray:none;stroke-dashoffset:0;stroke-opacity:1;marker:none;marker-start:none;marker-mid:none;marker-end:none;paint-order:normal;enable-background:new"
       d="m 256,-84 -32,32 H 88 c 0,0 -40,0 -40,40 v 264 h 376 c 40,0 40,-40 40,-40 V -44 c 0,-40 -40,-40 -40,-40 z"
       id="path5792" /><path
       style="font-variation-settings:normal;display:inline;opacity:1;fill:#99c1f1;fill-opacity:1;stroke:none;stroke-width:26.0669;stroke-linecap:butt;stroke-linejoin:miter;stroke-miterlimit:4;stroke-dasharray:none;stroke-dashoffset:0;stroke-opacity:1;marker:none;marker-start:none;marker-mid:none;marker-end:none;paint-order:normal;enable-background:new;stop-color:#000000;stop-opacity:1"
       d="m 480,1042 c 0,0 0,40 -40,40 l -375.998047,0.094 -0.0039,6 L 440,1088 c 40,0 40,-40 40,-40 z"
       transform="translate(-16,-836)"
       id="path5794" /><path
       style="display:inline;opacity:0.3;fill:#ffffff;fill-opacity:1;stroke:none;stroke-width:26.0669;stroke-linecap:butt;stroke-linejoin:miter;stroke-miterlimit:4;stroke-dasharray:none;stroke-dashoffset:0;stroke-opacity:1;marker:none;marker-start:none;marker-mid:none;marker-end:none;paint-order:normal;enable-background:new"
       d="m 272,752 -32,32 H 104 c 0,0 -40,0 -40,40 v 4 c 0,-40 40,-42 40,-42 h 136.59099 l 32,-32 H 440 c 5.38035,0 40,2 40,42 v -4 c 0,-40 -40,-40 -40,-40 z"
       id="path5796"
       transform="translate(-16,-836)" /></g><g
     id="g1264"
     transform="matrix(1.2937893,0,0,1.2937893,-123.76611,11.306101)"
     style="display:inline;fill:#438de6;fill-opacity:1"><path
       id="path5687"
       style="color:#000000;fill:#438de6;fill-opacity:1;stroke-width:0.358005;stroke-linejoin:round;-inkscape-stroke:none"
       d="m 131.5481,44.573104 a 1.0741237,1.0741237 0 0 0 -1.09499,0.739086 l -1.54949,4.766647 a 1.0741237,1.0741237 0 0 0 1.50964,1.28868 l 3.15771,-1.608927 a 1.0741237,1.0741237 0 0 0 0.46919,-1.444609 l -1.60893,-3.157719 a 1.0741237,1.0741237 0 0 0 -0.88313,-0.583158 z m -0.0713,2.60603 a 1.0740163,1.0740163 0 0 1 0.23564,0.04825 1.0740163,1.0740163 0 0 1 0.69014,1.353008 1.0740163,1.0740163 0 0 1 -1.35371,0.689441 1.0740163,1.0740163 0 0 1 -0.68944,-1.353009 1.0740163,1.0740163 0 0 1 1.11737,-0.737686 z m 6.14273,14.557955 a 1.0741237,1.0741237 0 0 0 -0.15243,0.01328 l -3.50035,0.55449 a 1.0741237,1.0741237 0 0 0 -0.46359,1.929175 l 4.05484,2.94655 a 1.0741237,1.0741237 0 0 0 1.69213,-1.036957 l -0.55449,-3.500345 a 1.0741237,1.0741237 0 0 0 -1.07611,-0.906201 z m -1.0845,1.449502 a 1.0740163,1.0740163 0 0 1 0.67894,0.203475 1.0740163,1.0740163 0 0 1 0.23773,1.500545 1.0740163,1.0740163 0 0 1 -1.49984,0.23774 1.0740163,1.0740163 0 0 1 -0.23773,-1.500545 1.0740163,1.0740163 0 0 1 0.8209,-0.441215 z m 15.84522,-1.449502 a 1.0741237,1.0741237 0 0 0 -1.07541,0.906201 l -0.55449,3.500339 a 1.0741237,1.0741237 0 0 0 1.69144,1.036963 l 4.05482,-2.946551 a 1.0741237,1.0741237 0 0 0 -0.46288,-1.92918 l -3.50036,-0.554484 a 1.0741237,1.0741237 0 0 0 -0.15313,-0.01328 z m 1.0852,1.449502 a 1.0740163,1.0740163 0 0 1 0.8209,0.441215 1.0740163,1.0740163 0 0 1 -0.23774,1.500545 1.0740163,1.0740163 0 0 1 -1.49984,-0.23774 1.0740163,1.0740163 0 0 1 0.23703,-1.500545 1.0740163,1.0740163 0 0 1 0.67965,-0.203475 z m 4.98691,-18.613487 a 1.0741237,1.0741237 0 0 0 -0.88313,0.583158 l -1.60892,3.157719 a 1.0741237,1.0741237 0 0 0 0.46918,1.444609 l 3.15772,1.608927 a 1.0741237,1.0741237 0 0 0 1.50893,-1.28868 l -1.54879,-4.766647 a 1.0741237,1.0741237 0 0 0 -0.93696,-0.738386 1.0741237,1.0741237 0 0 0 -0.15803,-6.89e-4 z m 0.0707,2.60603 a 1.0740163,1.0740163 0 0 1 1.11807,0.737685 1.0740163,1.0740163 0 0 1 -0.68944,1.353009 1.0740163,1.0740163 0 0 1 -1.35371,-0.68944 1.0740163,1.0740163 0 0 1 0.68944,-1.353008 1.0740163,1.0740163 0 0 1 0.23564,-0.04825 z M 142.49384,36.563435 a 1.0741237,1.0741237 0 0 0 -0.75936,1.833378 l 2.50604,2.506038 a 1.0741237,1.0741237 0 0 0 1.51873,0 l 2.50603,-2.506038 a 1.0741237,1.0741237 0 0 0 -0.75936,-1.833378 z m 2.50604,0.716005 a 1.0740163,1.0740163 0 0 1 1.07402,1.074021 1.0740163,1.0740163 0 0 1 -1.07402,1.074014 1.0740163,1.0740163 0 0 1 -1.07402,-1.074014 1.0740163,1.0740163 0 0 1 1.07402,-1.074021 z m -3.4e-4,-1.588569 c -9.37261,0 -17.00526,7.632649 -17.00526,17.005256 0,9.372605 7.63265,17.005258 17.00526,17.005258 9.3726,0 17.00525,-7.632653 17.00525,-17.005258 0,-9.372607 -7.63265,-17.005256 -17.00525,-17.005256 z m 0,1.583048 a 1.0740163,1.0740163 0 0 1 1.07402,1.074021 1.0740163,1.0740163 0 0 1 -0.19858,0.592247 c 5.43431,0.338049 9.99955,3.803121 11.92605,8.624294 a 1.0740163,1.0740163 0 0 1 0.48597,-0.342622 1.0740163,1.0740163 0 0 1 1.3537,0.68944 1.0740163,1.0740163 0 0 1 -0.68944,1.353708 1.0740163,1.0740163 0 0 1 -0.59434,0.0083 c 0.27787,1.093761 0.42583,2.240595 0.42583,3.422727 0,4.255526 -1.91308,8.051343 -4.92887,10.576545 a 1.0740163,1.0740163 0 0 1 0.43213,0.349618 1.0740163,1.0740163 0 0 1 -0.23774,1.500545 1.0740163,1.0740163 0 0 1 -1.49985,-0.23774 1.0740163,1.0740163 0 0 1 -0.19858,-0.517425 c -2.12536,1.338169 -4.64488,2.111666 -7.3503,2.111666 -2.70687,0 -5.22771,-0.774262 -7.3538,-2.113765 a 1.0740163,1.0740163 0 0 1 -0.19438,0.519524 1.0740163,1.0740163 0 0 1 -1.49985,0.23774 1.0740163,1.0740163 0 0 1 -0.23774,-1.500552 1.0740163,1.0740163 0 0 1 0.43212,-0.349611 c -3.01603,-2.525208 -4.92956,-6.320826 -4.92956,-10.576545 0,-1.178397 0.14756,-2.3209 0.42373,-3.41154 a 1.0740163,1.0740163 0 0 1 -0.59155,-0.01959 1.0740163,1.0740163 0 0 1 -0.68944,-1.353708 1.0740163,1.0740163 0 0 1 1.35302,-0.68944 1.0740163,1.0740163 0 0 1 0.49365,0.334231 c 1.92879,-4.816134 6.48873,-8.277964 11.91906,-8.615896 a 1.0740163,1.0740163 0 0 1 -0.19928,-0.592246 1.0740163,1.0740163 0 0 1 1.07402,-1.074025 z m 15.59193,10.749484 a 0.53706185,0.53706185 0 0 0 -0.17634,0.511309 l 0.41907,2.106761 a 0.53706185,0.53706185 0 0 0 0.88748,0.293291 l 1.54609,-1.402597 a 0.53706185,0.53706185 0 0 0 -0.17979,-0.903877 l -1.96516,-0.704162 a 0.53706185,0.53706185 0 0 0 -0.53135,0.09927 z m 1.06216,1.232403 0.22947,0.08197 -0.18064,0.163545 z m -0.29274,1.280902 1.54609,-1.402596 -1.96516,-0.704163 z m -1.98061,-5.465354 a 0.53706185,0.53706185 0 0 0 -0.0732,0.535887 l 0.82201,1.984523 a 0.53706185,0.53706185 0 0 0 0.92764,0.114512 l 1.24276,-1.677275 a 0.53706185,0.53706185 0 0 0 -0.35267,-0.851432 l -2.06478,-0.307251 a 0.53706185,0.53706185 0 0 0 -0.50177,0.20103 z m 1.28217,1.001506 0.24105,0.03562 -0.14525,0.195642 z m -0.0372,1.3134 1.24276,-1.677276 -2.06478,-0.307248 z m -3.00881,-4.973942 a 0.53706185,0.53706185 0 0 0 0.0328,0.539871 l 1.19338,1.786024 a 0.53706185,0.53706185 0 0 0 0.93215,-0.06866 l 0.89166,-1.887499 a 0.53706185,0.53706185 0 0 0 -0.512,-0.766269 l -2.08504,0.101474 a 0.53706185,0.53706185 0 0 0 -0.45292,0.295055 z m 1.45292,0.732122 0.24337,-0.01208 -0.10429,0.220222 z m 0.21973,1.295428 0.89166,-1.887498 -2.08504,0.101472 z m -3.92134,-4.291386 a 0.53706185,0.53706185 0 0 0 0.13745,0.523109 l 1.51889,1.518887 a 0.53706185,0.53706185 0 0 0 0.90084,-0.249192 l 0.5063,-2.025184 a 0.53706185,0.53706185 0 0 0 -0.65166,-0.651659 l -2.02518,0.506295 a 0.53706185,0.53706185 0 0 0 -0.38664,0.377744 z m 1.56782,0.434606 0.23635,-0.05934 -0.0593,0.236337 z m 0.46823,1.227669 0.5063,-2.025185 -2.02518,0.506296 z m -4.6832,-3.443909 a 0.53706185,0.53706185 0 0 0 0.23686,0.48624 l 1.78603,1.193383 a 0.53706185,0.53706185 0 0 0 0.83492,-0.420151 l 0.10147,-2.085048 a 0.53706185,0.53706185 0 0 0 -0.76627,-0.512 l -1.88749,0.891659 a 0.53706185,0.53706185 0 0 0 -0.30552,0.445917 z m 1.62249,0.120384 0.22023,-0.104304 -0.0121,0.24337 z m 0.69874,1.112731 0.10148,-2.085043 -1.8875,0.891662 z m -5.26509,-2.46408 a 0.53706185,0.53706185 0 0 0 0.32717,0.430685 l 1.98452,0.822016 a 0.53706185,0.53706185 0 0 0 0.73691,-0.574961 l -0.30725,-2.064783 a 0.53706185,0.53706185 0 0 0 -0.85142,-0.35267 l -1.67727,1.242762 a 0.53706185,0.53706185 0 0 0 -0.21266,0.496951 z m 1.6148,-0.198468 0.19564,-0.14526 0.0356,0.241056 z m 0.9024,0.955038 -0.30725,-2.064781 -1.67727,1.242761 z m -5.64465,-1.38957 a 0.53706185,0.53706185 0 0 0 0.40491,0.358581 l 2.10676,0.419066 a 0.53706185,0.53706185 0 0 0 0.61059,-0.707688 l -0.70417,-1.965157 a 0.53706185,0.53706185 0 0 0 -0.90387,-0.179798 l -1.4026,1.546109 a 0.53706185,0.53706185 0 0 0 -0.11162,0.528887 z m 1.54507,-0.509683 0.16354,-0.180636 0.082,0.229472 z m 1.07137,0.760637 -0.70416,-1.965166 -1.4026,1.546109 z m -5.80728,-0.261653 a 0.53706185,0.53706185 0 0 0 0.46708,0.272702 h 2.14804 a 0.53706185,0.53706185 0 0 0 0.46079,-0.813211 l -1.07401,-1.790026 a 0.53706185,0.53706185 0 0 0 -0.92159,0 l -1.07401,1.790026 a 0.53706185,0.53706185 0 0 0 -0.007,0.540509 z m 1.41595,-0.801313 0.12515,-0.209078 0.12516,0.209078 z m 1.19917,0.537008 -1.07402,-1.790028 -1.07402,1.790028 z m -5.74674,0.876308 a 0.53706185,0.53706185 0 0 0 0.51131,0.176343 l 2.10676,-0.419066 a 0.53706185,0.53706185 0 0 0 0.29329,-0.887468 l -1.4026,-1.546109 a 0.53706185,0.53706185 0 0 0 -0.90387,0.179798 l -0.70417,1.965157 a 0.53706185,0.53706185 0 0 0 0.0993,0.531345 z m 1.23241,-1.062151 0.082,-0.229472 0.16354,0.180636 z m 1.28089,0.292744 -1.40259,-1.546109 -0.70416,1.965166 z m -5.46534,1.980609 a 0.53706185,0.53706185 0 0 0 0.53587,0.0732 l 1.98453,-0.822012 a 0.53706185,0.53706185 0 0 0 0.11452,-0.927643 l -1.67728,-1.242757 a 0.53706185,0.53706185 0 0 0 -0.85143,0.35267 l -0.30725,2.064781 a 0.53706185,0.53706185 0 0 0 0.20103,0.501765 z m 1.00149,-1.282178 0.0357,-0.241056 0.19564,0.14526 z m 1.31341,0.03721 -1.67728,-1.242763 -0.30725,2.064782 z m -4.97395,3.008795 a 0.53706185,0.53706185 0 0 0 0.53987,-0.03276 l 1.78603,-1.193384 a 0.53706185,0.53706185 0 0 0 -0.0687,-0.932156 l -1.8875,-0.891659 a 0.53706185,0.53706185 0 0 0 -0.76627,0.512001 l 0.10148,2.085045 a 0.53706185,0.53706185 0 0 0 0.29505,0.452908 z m 0.73213,-1.452925 -0.0121,-0.24337 0.22023,0.104292 z m 1.29543,-0.219722 -1.8875,-0.891663 0.10147,2.085047 z m -4.29138,3.921349 a 0.53706185,0.53706185 0 0 0 0.5231,-0.137452 l 1.51888,-1.518887 a 0.53706185,0.53706185 0 0 0 -0.24919,-0.90085 l -2.02518,-0.506297 a 0.53706185,0.53706185 0 0 0 -0.65165,0.651659 l 0.50629,2.025185 a 0.53706185,0.53706185 0 0 0 0.37775,0.386642 z m 0.4346,-1.567838 -0.0593,-0.236337 0.23635,0.05934 z m 1.22767,-0.468224 -2.02519,-0.506295 0.5063,2.025183 z m -3.44391,4.683207 a 0.53706185,0.53706185 0 0 0 0.48624,-0.236864 l 1.19338,-1.786024 a 0.53706185,0.53706185 0 0 0 -0.42015,-0.834926 l -2.08505,-0.101473 a 0.53706185,0.53706185 0 0 0 -0.512,0.766269 l 0.89166,1.887497 a 0.53706185,0.53706185 0 0 0 0.44592,0.305521 z m 0.12038,-1.622499 -0.1043,-0.22022 0.24337,0.01208 z m 1.11274,-0.698735 -2.08505,-0.101474 0.89167,1.887498 z m -2.46409,5.265094 A 0.53706185,0.53706185 0 0 0 129.87,47.591751 l 0.82201,-1.984524 a 0.53706185,0.53706185 0 0 0 -0.57496,-0.736915 l -2.06478,0.307247 a 0.53706185,0.53706185 0 0 0 -0.35268,0.851432 l 1.24277,1.677275 a 0.53706185,0.53706185 0 0 0 0.49695,0.212657 z m -0.19846,-1.614808 -0.14526,-0.195642 0.24105,-0.03562 z m 0.95503,-0.902392 -2.06477,0.307248 1.24275,1.677275 z m -1.38956,5.644646 a 0.53706185,0.53706185 0 0 0 0.35857,-0.404908 l 0.41907,-2.106762 a 0.53706185,0.53706185 0 0 0 -0.70768,-0.610585 l -1.96517,0.704162 a 0.53706185,0.53706185 0 0 0 -0.17979,0.903874 l 1.5461,1.402595 a 0.53706185,0.53706185 0 0 0 0.5289,0.111624 z m -0.5097,-1.545063 -0.18062,-0.163543 0.22946,-0.08197 z m 0.76065,-1.071371 -1.96517,0.704163 1.5461,1.402597 z m -0.26166,5.807278 a 0.53706185,0.53706185 0 0 0 0.2727,-0.467085 v -2.148033 a 0.53706185,0.53706185 0 0 0 -0.8132,-0.460791 l -1.79003,1.074015 a 0.53706185,0.53706185 0 0 0 0,0.921585 l 1.79003,1.074016 a 0.53706185,0.53706185 0 0 0 0.5405,0.0062 z m -0.80132,-1.415938 -0.20906,-0.125163 0.20906,-0.125163 z m 0.53701,-1.19918 -1.79003,1.074017 1.79003,1.074017 z m 0.87632,5.74674 a 0.53706185,0.53706185 0 0 0 0.17634,-0.511313 l -0.41907,-2.106759 a 0.53706185,0.53706185 0 0 0 -0.88747,-0.293289 l -1.5461,1.402596 a 0.53706185,0.53706185 0 0 0 0.17979,0.903876 l 1.96517,0.704162 a 0.53706185,0.53706185 0 0 0 0.53134,-0.09927 z m -1.06216,-1.232406 -0.22947,-0.08197 0.18063,-0.163544 z m 0.29274,-1.2809 -1.5461,1.402595 1.96517,0.704164 z m 1.98062,5.465358 a 0.53706185,0.53706185 0 0 0 0.0732,-0.535889 l -0.82201,-1.984527 a 0.53706185,0.53706185 0 0 0 -0.92765,-0.114509 l -1.24276,1.677274 a 0.53706185,0.53706185 0 0 0 0.35268,0.851431 l 2.06478,0.307252 a 0.53706185,0.53706185 0 0 0 0.50177,-0.201032 z m -1.28218,-1.001507 -0.24105,-0.03565 0.14526,-0.195644 z m 0.0372,-1.313403 -1.24276,1.677274 2.06478,0.307252 z m 3.0088,4.973937 a 0.53706185,0.53706185 0 0 0 -0.0328,-0.539867 l -1.19338,-1.786026 a 0.53706185,0.53706185 0 0 0 -0.93216,0.06866 l -0.89165,1.887497 a 0.53706185,0.53706185 0 0 0 0.512,0.766267 l 2.08504,-0.101471 a 0.53706185,0.53706185 0 0 0 0.45291,-0.295054 z m -1.45293,-0.732121 -0.24337,0.01209 0.1043,-0.220222 z m -0.21972,-1.295422 -0.89166,1.887497 2.08504,-0.101478 z m 3.92135,4.291379 a 0.53706185,0.53706185 0 0 0 -0.13745,-0.523108 L 132.975,63.20175 a 0.53706185,0.53706185 0 0 0 -0.90085,0.249193 l -0.5063,2.025188 a 0.53706185,0.53706185 0 0 0 0.65166,0.651657 l 2.02518,-0.506298 a 0.53706185,0.53706185 0 0 0 0.38665,-0.377743 z m -1.56784,-0.434605 -0.23634,0.05933 0.0593,-0.236336 z m -0.46822,-1.227663 -0.5063,2.025181 2.02519,-0.506298 z m 4.6832,3.443902 a 0.53706185,0.53706185 0 0 0 -0.23686,-0.486243 l -1.78603,-1.193381 a 0.53706185,0.53706185 0 0 0 -0.83492,0.420146 l -0.10147,2.085046 a 0.53706185,0.53706185 0 0 0 0.76626,0.512006 l 1.8875,-0.891659 a 0.53706185,0.53706185 0 0 0 0.30552,-0.445921 z m -1.62249,-0.12038 -0.22023,0.104291 0.0121,-0.243372 z m -0.69874,-1.112733 -0.10147,2.085045 1.8875,-0.891666 z m 5.26509,2.464084 a 0.53706185,0.53706185 0 0 0 -0.32717,-0.43069 l -1.98452,-0.822015 a 0.53706185,0.53706185 0 0 0 -0.73692,0.574966 l 0.30726,2.064779 a 0.53706185,0.53706185 0 0 0 0.85142,0.352675 l 1.67727,-1.242764 a 0.53706185,0.53706185 0 0 0 0.21266,-0.496951 z m -1.61481,0.198463 -0.19563,0.14526 -0.0356,-0.241054 z m -0.90239,-0.955037 0.30725,2.064778 1.67727,-1.242763 z m 5.64465,1.389569 a 0.53706185,0.53706185 0 0 0 -0.40491,-0.358584 l -2.10675,-0.419062 a 0.53706185,0.53706185 0 0 0 -0.61059,0.707682 l 0.70416,1.965168 a 0.53706185,0.53706185 0 0 0 0.90388,0.179787 l 1.40259,-1.546099 a 0.53706185,0.53706185 0 0 0 0.11162,-0.528892 z m -1.54505,0.509689 -0.16355,0.180632 -0.082,-0.22947 z m -1.07138,-0.760643 0.70417,1.965168 1.40259,-1.546105 z m 5.80727,0.261661 a 0.53706185,0.53706185 0 0 0 -0.46708,-0.272704 h -2.14803 a 0.53706185,0.53706185 0 0 0 -0.4608,0.813202 l 1.07402,1.790028 a 0.53706185,0.53706185 0 0 0 0.92159,0 l 1.07401,-1.790028 a 0.53706185,0.53706185 0 0 0 0.007,-0.540502 z m -1.41594,0.801316 -0.12516,0.20907 -0.12516,-0.20907 z m -1.19917,-0.537011 1.07401,1.790023 1.07402,-1.790023 z m 5.74673,-0.876317 a 0.53706185,0.53706185 0 0 0 -0.51132,-0.176341 l -2.10675,0.419062 a 0.53706185,0.53706185 0 0 0 -0.29329,0.887469 l 1.4026,1.546112 a 0.53706185,0.53706185 0 0 0 0.90387,-0.1798 l 0.70416,-1.965161 a 0.53706185,0.53706185 0 0 0 -0.0993,-0.531322 z m -1.2324,1.062156 -0.082,0.22947 -0.16355,-0.180632 z m -1.2809,-0.292742 1.40259,1.546105 0.70416,-1.965168 z m 5.46535,-1.980612 a 0.53706185,0.53706185 0 0 0 -0.53588,-0.0732 l -1.98452,0.822015 a 0.53706185,0.53706185 0 0 0 -0.11452,0.927641 l 1.67728,1.242764 a 0.53706185,0.53706185 0 0 0 0.85142,-0.352675 l 0.30725,-2.064779 a 0.53706185,0.53706185 0 0 0 -0.20103,-0.501768 z m -1.0015,1.282177 -0.0356,0.241054 -0.19565,-0.14526 z m -1.31341,-0.03722 1.67728,1.242763 0.30725,-2.064779 z m 4.97394,-3.00879 a 0.53706185,0.53706185 0 0 0 -0.53986,0.03277 l -1.78603,1.19338 a 0.53706185,0.53706185 0 0 0 0.0687,0.932158 l 1.88749,0.891667 a 0.53706185,0.53706185 0 0 0 0.76627,-0.512006 l -0.10148,-2.085047 a 0.53706185,0.53706185 0 0 0 -0.29505,-0.452906 z m -0.73212,1.452923 0.0121,0.243372 -0.22022,-0.104303 z m -1.29542,0.219721 1.8875,0.891666 -0.10148,-2.085053 z m 4.29138,-3.921349 a 0.53706185,0.53706185 0 0 0 -0.5231,0.137452 l -1.51889,1.518889 a 0.53706185,0.53706185 0 0 0 0.24919,0.900851 l 2.02519,0.506298 a 0.53706185,0.53706185 0 0 0 0.65165,-0.651664 l -0.5063,-2.025181 a 0.53706185,0.53706185 0 0 0 -0.37774,-0.386645 z m -0.4346,1.567839 0.0593,0.236336 -0.23635,-0.05933 z m -1.22767,0.468225 2.02518,0.506292 -0.5063,-2.025182 z m 3.44391,-4.683207 a 0.53706185,0.53706185 0 0 0 -0.48625,0.236863 l -1.19338,1.786025 a 0.53706185,0.53706185 0 0 0 0.42015,0.834922 l 2.08505,0.101478 a 0.53706185,0.53706185 0 0 0 0.512,-0.766274 l -0.89166,-1.887497 a 0.53706185,0.53706185 0 0 0 -0.44591,-0.305517 z m -0.12039,1.622497 0.10429,0.220222 -0.24337,-0.01209 z m -1.11274,0.698735 2.08505,0.101472 -0.89166,-1.887498 z m 2.46409,-5.265095 a 0.53706185,0.53706185 0 0 0 -0.43069,0.327176 l -0.82202,1.98452 a 0.53706185,0.53706185 0 0 0 0.57497,0.736915 l 2.06479,-0.307247 a 0.53706185,0.53706185 0 0 0 0.35266,-0.85143 l -1.24276,-1.677274 a 0.53706185,0.53706185 0 0 0 -0.49695,-0.21266 z m 0.19847,1.61481 0.14525,0.195644 -0.24106,0.03559 z m -0.95504,0.902391 2.06477,-0.307246 -1.24275,-1.67728 z m 1.38957,-5.644646 a 0.53706185,0.53706185 0 0 0 -0.35858,0.40491 l -0.41907,2.10676 a 0.53706185,0.53706185 0 0 0 0.70768,0.610587 l 1.96517,-0.704164 a 0.53706185,0.53706185 0 0 0 0.17979,-0.903877 l -1.5461,-1.402596 a 0.53706185,0.53706185 0 0 0 -0.52889,-0.111623 z m 0.50968,1.545062 0.18063,0.163544 -0.22946,0.08197 z m -0.76064,1.071372 1.96517,-0.704163 -1.5461,-1.402596 z m 0.26166,-5.807278 a 0.53706185,0.53706185 0 0 0 -0.2727,0.467084 v 2.148035 a 0.53706185,0.53706185 0 0 0 0.8132,0.460792 l 1.79003,-1.074017 a 0.53706185,0.53706185 0 0 0 0,-0.921583 l -1.79003,-1.074017 a 0.53706185,0.53706185 0 0 0 -0.5405,-0.0062 z m 0.80132,1.41594 0.20906,0.125162 -0.20906,0.125163 z m 1.25302,0.125162 -1.79003,-1.074018 v 2.148022 z m -30.78847,-9.308134 a 0.17902062,0.17902062 0 0 0 -0.17901,0.179005 v 3.938058 a 0.17902062,0.17902062 0 0 0 0.17901,0.179004 h 3.40105 v 8.950136 h -5.19109 a 0.17902062,0.17902062 0 0 0 -0.179,0.179002 v 3.938063 a 0.17902062,0.17902062 0 0 0 0.179,0.178997 h 14.32022 a 0.17902062,0.17902062 0 0 0 0.179,-0.178997 v -3.938063 a 0.17902062,0.17902062 0 0 0 -0.179,-0.179002 h -3.04304 v -2.50604 h 3.40104 c 0.93299,0 1.4616,0.379887 1.84038,0.979621 0.37877,0.599735 0.58098,1.43217 0.75936,2.279488 0.17838,0.84732 0.33296,1.707159 0.66356,2.380175 0.33062,0.673022 0.88029,1.162818 1.74878,1.162818 h 8.95014 a 0.17902062,0.17902062 0 0 0 0.17901,-0.178997 v -6.802107 a 0.17902062,0.17902062 0 0 0 -0.17901,-0.179002 h -2.14803 a 0.17902062,0.17902062 0 0 0 -0.17901,0.179002 v 0.716011 c 0,0.682447 -0.18916,1.148704 -0.46288,1.452299 -0.27374,0.303597 -0.63867,0.451754 -1.02298,0.47198 -0.76862,0.04046 -1.58048,-0.447233 -1.73968,-1.243229 -0.1862,-0.931018 -0.64655,-1.757063 -1.10758,-2.356404 -0.23052,-0.299669 -0.4605,-0.542697 -0.66287,-0.715313 -0.0737,-0.06285 -0.13988,-0.105643 -0.20628,-0.149633 1.18717,-0.701163 1.98057,-1.54212 2.35291,-2.448701 0.40406,-0.983778 0.36828,-2.018303 0.0189,-2.950049 -0.69881,-1.863495 -2.63905,-3.338122 -4.86664,-3.338122 z m 9.48714,4.296067 h 4.47506 c 0.68618,0 1.18422,0.171982 1.50405,0.411845 0.31981,0.239864 0.46498,0.542837 0.46498,0.841173 0,0.298337 -0.14517,0.60131 -0.46498,0.841173 -0.31983,0.239863 -0.81787,0.411848 -1.50405,0.411848 h -4.47506 z" /></g></svg>
