<?xml version="1.0" encoding="UTF-8" standalone="no"?>
<svg
   height="128px"
   viewBox="0 0 128 128"
   width="128px"
   version="1.1"
   id="svg35"
   xmlns="http://www.w3.org/2000/svg"
   xmlns:svg="http://www.w3.org/2000/svg">
  <defs
     id="defs39">
    <filter
       height="1.0214333"
       y="-0.010716652"
       width="1.0272651"
       x="-0.01363253"
       id="filter16020-6"
       style="color-interpolation-filters:sRGB">
      <feGaussianBlur
         id="feGaussianBlur16022-2"
         stdDeviation="2.0004419" />
    </filter>
  </defs>
  <linearGradient
     id="a"
     gradientUnits="userSpaceOnUse"
     x1="36"
     x2="60"
     y1="68"
     y2="68">
    <stop
       offset="0"
       stop-color="#ed336c"
       id="stop2" />
    <stop
       offset="1"
       stop-color="#ffa348"
       id="stop4" />
  </linearGradient>
  <linearGradient
     id="b"
     gradientTransform="matrix(0 1 -1 0 144 -32)"
     gradientUnits="userSpaceOnUse"
     x1="72"
     x2="96"
     y1="68"
     y2="68">
    <stop
       offset="0"
       stop-color="#404ce6"
       id="stop7" />
    <stop
       offset="1"
       stop-color="#c061cb"
       id="stop9" />
  </linearGradient>
  <linearGradient
     id="c"
     gradientUnits="userSpaceOnUse"
     x1="68.84919"
     x2="95.257637"
     y1="84"
     y2="84">
    <stop
       offset="0"
       stop-color="#33d1c6"
       id="stop12" />
    <stop
       offset="1"
       stop-color="#1c25d8"
       id="stop14" />
  </linearGradient>
  <path
     id="path1873-0"
     d="M 27.978072,8.0000006 H 77.97807 l 30.04289,29.9178934 0.001,74.060006 c 7e-5,4.432 -3.6122,8.0221 -8.044198,8.0221 H 27.978021 c -4.431999,0 -7.999998,-3.568 -7.999998,-8.00001 V 16 c 0,-4.431999 3.567999,-7.9999994 7.999998,-7.9999994 z"
     clip-path="none"
     style="font-variation-settings:normal;display:inline;vector-effect:none;fill:#5382a1;fill-opacity:1;stroke:none;stroke-width:6.51672;stroke-linecap:butt;stroke-linejoin:miter;stroke-miterlimit:4;stroke-dasharray:none;stroke-dashoffset:0;stroke-opacity:1;marker:none;marker-start:none;marker-mid:none;marker-end:none;paint-order:normal;enable-background:new;stop-color:#000000" />
  <path
     d="m 54.035461,97.862647 c 0,0 -2.899839,1.778431 2.066151,2.378453 6.01706,0.72381 9.091899,0.61957 15.72071,-0.70063 0,0 1.746299,1.15102 4.18092,2.1479 -14.86518,6.71014 -33.64266,-0.38881 -21.96817,-3.825777 z"
     id="path2888-3"
     style="fill:#ffffff;fill-opacity:0.4;stroke-width:1.33459" />
  <path
     d="m 52.217781,89.104751 c 0,0 -3.252969,2.53764 1.716781,3.078756 6.42819,0.699209 11.50261,0.756553 20.288319,-1.025014 0,0 1.212361,1.297547 3.121651,2.006659 -17.97006,5.538038 -37.984031,0.435703 -25.12766,-4.060442 z"
     id="path2890-6"
     style="fill:#ffffff;fill-opacity:0.4;stroke-width:1.33459" />
  <path
     d="m 67.528932,74.245232 c 3.66461,4.444567 -0.96092,8.440897 -0.96092,8.440897 0,0 9.29967,-5.057333 5.029689,-11.393348 -3.989529,-5.905998 -7.048119,-8.839817 9.510571,-18.958319 1.7e-4,0 -25.993589,6.838365 -13.57929,21.910496 z"
     id="path2892-0"
     style="fill:#f8981d;fill-opacity:0.4;stroke-width:1.33459" />
  <path
     d="m 87.189251,104.341 c 0,0 2.146762,1.8646 -2.36441,3.30656 -8.578069,2.73752 -35.709989,3.56331 -43.245939,0.10954 -2.70702,-1.24232 2.371819,-2.96422 3.969769,-3.32793 1.666201,-0.3798 2.617561,-0.31042 2.617561,-0.31042 -3.01282,-2.23529 -19.47309,4.39005 -8.3599,6.29027 30.30506,5.17568 55.24289,-2.3312 47.38188,-6.06793 z"
     id="path2894-6"
     style="fill:#ffffff;fill-opacity:0.4;stroke-width:1.33459" />
  <path
     d="m 55.430572,80.029033 c 0,0 -13.79902,3.454252 -4.88641,4.709647 3.764339,0.530735 11.26415,0.408619 18.25481,-0.209352 5.71177,-0.505074 11.44383,-1.58527 11.44383,-1.58527 0,0 -2.01257,0.909626 -3.46958,1.957341 -14.01615,3.883997 -41.08631,2.075154 -33.291611,-1.895695 6.588761,-3.358358 11.948571,-2.976699 11.948571,-2.976699 z"
     id="path2896-2"
     style="fill:#ffffff;fill-opacity:0.4;stroke-width:1.33459" />
  <path
     d="m 80.186382,94.606348 c 14.24628,-7.797857 7.65869,-15.292413 3.0608,-14.282783 -1.12435,0.247231 -1.62876,0.461362 -1.62876,0.461362 0,0 0.418889,-0.691425 1.21655,-0.988903 9.09607,-3.367813 16.089979,9.936165 -2.933249,15.204739 -1.71e-4,0 0.218699,-0.208831 0.284699,-0.394648 z"
     id="path2898-6"
     style="fill:#ffffff;fill-opacity:0.4;stroke-width:1.33459" />
  <path
     d="m 71.598561,35.994334 c 0,0 7.88805,8.315823 -7.483949,21.099503 -12.32733,10.258782 -2.810641,16.106146 -0.004,22.789984 -7.196351,-6.840419 -12.47477,-12.862861 -8.93433,-18.466517 5.19911,-8.225409 19.60442,-12.214614 16.422829,-25.42297 z"
     id="path2900-1"
     style="fill:#f8981d;fill-opacity:0.4;stroke-width:1.33459" />
  <path
     d="m 56.830893,115.74421 c 13.671599,0.92096 34.672419,-0.5125 35.169098,-7.32921 0,0 -0.955369,2.58408 -11.2999,4.63444 -11.67034,2.31489 -26.06771,2.04542 -34.603519,0.56045 0,0 1.74864,1.52501 10.73406,2.13421 z"
     id="path2902-8"
     style="fill:#ffffff;fill-opacity:0.4;stroke-width:1.33459" />
  <g
     transform="translate(-9.050721e-6,-117.99999)"
     id="g1208"
     style="display:inline;fill:#c0bfbc;stroke-width:0.25;enable-background:new">
    <path
       style="opacity:1;fill:#ffffff;fill-opacity:1;stroke:none;stroke-width:0.125;stroke-linecap:butt;stroke-linejoin:miter;stroke-miterlimit:4;stroke-dasharray:none;stroke-dashoffset:0;stroke-opacity:1;marker:none;paint-order:normal"
       d="m 60,178 v 4 h 4 v -2 h 4 v -2 h -4 z m 4,4 v 2 h -4 v 4 h 4 v -2 h 4 v -4 z m 0,6 v 2 h -4 v 4 h 4 v -2 h 4 v -4 z m 0,6 v 2 h -4 v 4 h 4 v -2 h 4 v -2 -2 z m 0,6 v 2 h -4 v 4 h 4 v -2 h 4 v -4 z m 0,6 v 2 h -4 v 4 h 4 v -2 h 4 v -4 z m 0,6 v 2 h -4 v 4 h 4 v -2 h 4 v -2 -2 z m 0,6 v 2 h -4 v 4 h 4 v -2 h 4 v -4 z m 0,6 v 2 h -4 v 4 h 4 v -2 h 4 v -4 z m 0,6 v 2 h -4 v 4 h 4 v -2 h 4 v -2 -2 z"
       id="path1204" />
  </g>
  <path
     id="path1211"
     d="m 59.999994,51.000004 c -2.215999,0 -4.000004,1.784001 -4.000004,4.000001 v 9.999999 c 0,2.216 1.784005,4 4.000004,4 v 8 c 0,1.108 0.891997,2 1.999997,2 h 4.000005 c 1.107999,0 1.999997,-0.892 1.999997,-2 v -8 c 2.215999,0 4.000004,-1.784 4.000004,-4 v -9.999999 c 0,-2.216 -1.784005,-4.000001 -4.000004,-4.000001 z m 1.999997,22 h 4.000005 v 4 h -4.000005 z"
     style="display:inline;opacity:0.1;fill:#000000;fill-opacity:1;stroke:none;stroke-width:0.5;stroke-linecap:round;stroke-linejoin:round;stroke-miterlimit:4;stroke-dasharray:none;stroke-dashoffset:0;stroke-opacity:1;enable-background:new" />
  <path
     id="path41396"
     d="m 59.999994,62.000002 v 4.000001 h 4.000005 v -2 h 3.999994 v -2.000001 h -3.999994 z m 4.000005,4.000001 v 2 h -4.000005 v 3.999999 h 4.000005 v -2 h 3.999994 v -3.999999 z m 0,5.999999 v 2 h -4.000005 v 4 h 4.000005 v -2 h 3.999994 v -4 z m 0,6 v 1.999999 h -4.000005 v 4.000001 h 4.000005 v -2.000001 h 3.999994 v -2 -1.999999 z m 0,6 v 2 h -4.000005 v 3.999999 h 4.000005 v -1.999999 h 3.999994 v -4 z m 0,5.999999 v 2 h -4.000005 v 4 h 4.000005 v -2 h 3.999994 v -4 z m 0,6 v 2 h -4.000005 v 4.000009 h 4.000005 V 100 h 3.999994 v -1.999999 -2 z m 0,6.000009 V 104 h -4.000005 v 4 h 4.000005 v -2 h 3.999994 v -3.99999 z m 0,5.99999 v 2 h -4.000005 v 4 h 4.000005 v -2 h 3.999994 v -4 z m 0,6 v 2 h -4.000005 v 4 h 4.000005 v -2 h 3.999994 v -2 -2 z"
     style="fill:#426780;fill-opacity:1;stroke:none;stroke-width:0.125;stroke-linecap:butt;stroke-linejoin:miter;stroke-miterlimit:4;stroke-dasharray:none;stroke-dashoffset:0;stroke-opacity:1;marker:none;paint-order:normal" />
  <path
     style="vector-effect:none;fill:#314c5e;fill-opacity:1;stroke:none;stroke-width:0.5;stroke-linecap:round;stroke-linejoin:round;stroke-miterlimit:4;stroke-dasharray:none;stroke-dashoffset:0;stroke-opacity:1"
     d="m 61.999991,57.000007 c -1.108,0 -1.999997,0.892 -1.999997,2 v 15.999999 c 0,1.108001 0.891997,2 1.999997,2 h 4.000005 c 1.107999,0 1.999997,-0.891999 1.999997,-2 V 59.000007 c 0,-1.108 -0.891998,-2 -1.999997,-2 z m 0,14 h 4.000005 v 3.999999 h -4.000005 z"
     id="path1214" />
  <rect
     ry="2.5026016"
     rx="2.5026016"
     y="49.000008"
     x="55.999985"
     height="18"
     width="16"
     id="rect1216"
     style="display:inline;vector-effect:none;fill:#314c5e;fill-opacity:1;stroke:none;stroke-width:0.5;stroke-linecap:round;stroke-linejoin:round;stroke-miterlimit:4;stroke-dasharray:none;stroke-dashoffset:0;stroke-opacity:1;enable-background:new" />
  <rect
     ry="2.9445434"
     rx="2.9445434"
     y="47.000008"
     x="55.999985"
     height="18"
     width="16"
     id="rect1218"
     style="display:inline;vector-effect:none;fill:#426780;fill-opacity:1;stroke:none;stroke-width:2;stroke-linecap:butt;stroke-linejoin:round;stroke-miterlimit:4;stroke-dasharray:none;stroke-dashoffset:0;stroke-opacity:1;enable-background:new" />
  <path
     id="path1220"
     d="m 61.999991,53.000008 c -1.108,0 -1.999997,0.891999 -1.999997,1.999999 v 18 c 0,1.107999 0.891997,1.999999 1.999997,1.999999 h 4.000005 c 1.107999,0 1.999997,-0.892 1.999997,-1.999999 v -18 c 0,-1.108 -0.891998,-1.999999 -1.999997,-1.999999 z m 0,15.999998 h 4.000005 v 4.000001 h -4.000005 z"
     style="fill:#ffffff;fill-opacity:1;stroke:none;stroke-width:0.5;stroke-linecap:round;stroke-linejoin:round;stroke-miterlimit:4;stroke-dasharray:none;stroke-dashoffset:0;stroke-opacity:1" />
  <rect
     transform="scale(1,-1)"
     ry="1.9999996"
     rx="1.9999996"
     y="-59.000008"
     x="62.000004"
     height="9.999999"
     width="3.9999993"
     id="rect1222"
     style="display:inline;fill:#314c5e;fill-opacity:1;stroke:none;stroke-width:0.125;stroke-linecap:butt;stroke-linejoin:miter;stroke-miterlimit:4;stroke-dasharray:none;stroke-dashoffset:0;stroke-opacity:1;marker:none;paint-order:normal;enable-background:new" />
  <rect
     style="display:inline;fill:#426780;fill-opacity:1;stroke:none;stroke-width:0.125;stroke-linecap:butt;stroke-linejoin:miter;stroke-miterlimit:4;stroke-dasharray:none;stroke-dashoffset:0;stroke-opacity:1;marker:none;paint-order:normal;enable-background:new"
     id="rect1224"
     width="3.9999993"
     height="8"
     x="62.000004"
     y="-57.000008"
     rx="1.9999996"
     ry="1.9999996"
     transform="scale(1,-1)" />
  <path
     id="path1875-7"
     d="M 77.97807,8.0000006 V 30.000002 c 0,4.432 3.610521,7.923448 8.04252,7.923448 l 22.00037,-0.0055 z"
     style="font-variation-settings:normal;display:inline;vector-effect:none;fill:#000000;fill-opacity:0.2;stroke:none;stroke-width:6.51672;stroke-linecap:butt;stroke-linejoin:miter;stroke-miterlimit:4;stroke-dasharray:none;stroke-dashoffset:0;stroke-opacity:1;marker:none;marker-start:none;marker-mid:none;marker-end:none;paint-order:normal;enable-background:new;stop-color:#000000" />
</svg>
