<?xml version="1.0" encoding="UTF-8" standalone="no"?>
<svg
   height="128px"
   viewBox="0 0 128 128"
   width="128px"
   version="1.1"
   id="svg35"
   xmlns:xlink="http://www.w3.org/1999/xlink"
   xmlns="http://www.w3.org/2000/svg"
   xmlns:svg="http://www.w3.org/2000/svg">
  <defs
     id="defs39">
    <filter
       height="1.0214333"
       y="-0.010716652"
       width="1.0272651"
       x="-0.01363253"
       id="filter16020"
       style="color-interpolation-filters:sRGB">
      <feGaussianBlur
         id="feGaussianBlur16022"
         stdDeviation="2.0004419" />
    </filter>
    <linearGradient
       xlink:href="#linearGradient4689"
       id="linearGradient1478"
       gradientUnits="userSpaceOnUse"
       gradientTransform="matrix(0.24025454,0,0,0.24257405,33.859503,46.997546)"
       x1="26.648937"
       y1="20.603781"
       x2="135.66525"
       y2="114.39767" />
    <linearGradient
       id="linearGradient4689">
      <stop
         style="stop-color:#5a9fd4;stop-opacity:1;"
         offset="0"
         id="stop4691" />
      <stop
         style="stop-color:#306998;stop-opacity:1;"
         offset="1"
         id="stop4693" />
    </linearGradient>
    <linearGradient
       xlink:href="#linearGradient4671"
       id="linearGradient1475"
       gradientUnits="userSpaceOnUse"
       gradientTransform="matrix(0.24025454,0,0,0.24257405,33.859503,46.997546)"
       x1="150.96111"
       y1="192.35176"
       x2="112.03144"
       y2="137.27299" />
    <linearGradient
       id="linearGradient4671">
      <stop
         style="stop-color:#ffd43b;stop-opacity:1;"
         offset="0"
         id="stop4673" />
      <stop
         style="stop-color:#ffe873;stop-opacity:1"
         offset="1"
         id="stop4675" />
    </linearGradient>
  </defs>
  <linearGradient
     id="a"
     gradientUnits="userSpaceOnUse"
     x1="36"
     x2="60"
     y1="68"
     y2="68">
    <stop
       offset="0"
       stop-color="#ed336c"
       id="stop2" />
    <stop
       offset="1"
       stop-color="#ffa348"
       id="stop4" />
  </linearGradient>
  <linearGradient
     id="b"
     gradientTransform="matrix(0 1 -1 0 144 -32)"
     gradientUnits="userSpaceOnUse"
     x1="72"
     x2="96"
     y1="68"
     y2="68">
    <stop
       offset="0"
       stop-color="#404ce6"
       id="stop7" />
    <stop
       offset="1"
       stop-color="#c061cb"
       id="stop9" />
  </linearGradient>
  <linearGradient
     id="c"
     gradientUnits="userSpaceOnUse"
     x1="68.84919"
     x2="95.257637"
     y1="84"
     y2="84">
    <stop
       offset="0"
       stop-color="#33d1c6"
       id="stop12" />
    <stop
       offset="1"
       stop-color="#1c25d8"
       id="stop14" />
  </linearGradient>
  <path
     style="display:inline;fill:#3f3f3f;fill-opacity:1;stroke:none;stroke-width:0.125;stroke-linejoin:round;stroke-miterlimit:4;stroke-dasharray:none;stroke-opacity:1;enable-background:new"
     clip-path="none"
     d="m 27.978085,7.9999995 h 50.000002 l 30.042893,29.9178935 0.001,74.060007 c 8e-5,4.432 -3.6122,8.0221 -8.044205,8.0221 H 27.978023 c -4.431999,0 -7.999998,-3.568 -7.999998,-8.00001 V 15.999998 c 0,-4.431999 3.567999,-7.9999984 7.999998,-7.9999984 z"
     id="path4411" />
  <path
     style="display:inline;vector-effect:none;fill:#267edb;fill-opacity:1;stroke:none;stroke-width:0.125;stroke-linecap:butt;stroke-linejoin:round;stroke-miterlimit:4;stroke-dasharray:none;stroke-dashoffset:0;stroke-opacity:1;enable-background:new"
     d="M 77.978087,7.9999995 V 30 c 0,4.432001 3.610528,7.923449 8.042528,7.923449 l 22.000365,-0.0055 z"
     id="path4413" />
  <g
     id="g1"
     transform="matrix(1.5,0,0,1.5,118,-49)">
    <rect
       style="fill:#ffffff;fill-opacity:1"
       width="3"
       height="27"
       x="-52"
       y="71"
       id="rect5" />
    <rect
       style="fill:#ffffff;fill-opacity:1"
       width="7"
       height="3"
       x="-52"
       y="71"
       id="rect6" />
    <rect
       style="fill:#ffffff;fill-opacity:1"
       width="7"
       height="3"
       x="-52"
       y="95"
       id="rect7" />
    <rect
       style="fill:#ffffff;fill-opacity:1"
       width="3"
       height="27"
       x="24"
       y="71"
       transform="scale(-1,1)"
       id="rect8" />
    <rect
       style="fill:#ffffff;fill-opacity:1"
       width="7"
       height="3"
       x="24"
       y="71"
       transform="scale(-1,1)"
       id="rect9" />
    <rect
       style="fill:#ffffff;fill-opacity:1"
       width="7"
       height="3"
       x="24"
       y="95"
       transform="scale(-1,1)"
       id="rect10" />
    <path
       style="color:#000000;fill:#ffffff;-inkscape-stroke:none"
       d="m -42.251953,76.041016 -2.695313,1.318359 7,14.300781 2.695313,-1.320312 z"
       id="path10" />
    <path
       style="color:#000000;fill:#ffffff;-inkscape-stroke:none"
       d="m -32.443359,76.291016 c 0,0 -1.38769,4.901493 -3.279297,9.765625 -0.945804,2.432065 -2.025197,4.853489 -3.060547,6.576171 -0.517675,0.861342 -1.030487,1.546372 -1.4375,1.94336 C -40.627716,94.97316 -40.865067,95 -40.800781,95 H -42 v 3 h 1.199219 c 1.114284,0 1.972639,-0.591521 2.675781,-1.277344 0.703142,-0.685823 1.316113,-1.548062 1.914063,-2.542969 1.195898,-1.989813 2.304008,-4.517227 3.283203,-7.035156 1.958389,-5.035858 3.371093,-10.037109 3.371093,-10.037109 z"
       id="path11" />
    <path
       style="fill:#ffffff;fill-opacity:1"
       d="M -20,78.5 A 1.5,1.5 0 0 1 -21.5,80 1.5,1.5 0 0 1 -23,78.5 1.5,1.5 0 0 1 -21.5,77.000001 1.5,1.5 0 0 1 -20,78.5 Z"
       id="path12" />
    <path
       style="fill:#ffffff;fill-opacity:1"
       d="M -20,92.5 A 1.5,1.5 0 0 1 -21.5,94 1.5,1.5 0 0 1 -23,92.5 1.5,1.5 0 0 1 -21.5,91.000001 1.5,1.5 0 0 1 -20,92.5 Z"
       id="path13" />
  </g>
</svg>
