<?xml version="1.0" encoding="UTF-8" standalone="no"?>
<svg
   height="128px"
   viewBox="0 0 128 128"
   width="128px"
   version="1.1"
   id="svg35"
   xmlns="http://www.w3.org/2000/svg"
   xmlns:svg="http://www.w3.org/2000/svg">
  <defs
     id="defs39">
    <filter
       height="1.0214333"
       y="-0.010716652"
       width="1.0272651"
       x="-0.01363253"
       id="filter16020"
       style="color-interpolation-filters:sRGB">
      <feGaussianBlur
         id="feGaussianBlur16022"
         stdDeviation="2.0004419" />
    </filter>
  </defs>
  <linearGradient
     id="a"
     gradientUnits="userSpaceOnUse"
     x1="36"
     x2="60"
     y1="68"
     y2="68">
    <stop
       offset="0"
       stop-color="#ed336c"
       id="stop2" />
    <stop
       offset="1"
       stop-color="#ffa348"
       id="stop4" />
  </linearGradient>
  <linearGradient
     id="b"
     gradientTransform="matrix(0 1 -1 0 144 -32)"
     gradientUnits="userSpaceOnUse"
     x1="72"
     x2="96"
     y1="68"
     y2="68">
    <stop
       offset="0"
       stop-color="#404ce6"
       id="stop7" />
    <stop
       offset="1"
       stop-color="#c061cb"
       id="stop9" />
  </linearGradient>
  <linearGradient
     id="c"
     gradientUnits="userSpaceOnUse"
     x1="68.84919"
     x2="95.257637"
     y1="84"
     y2="84">
    <stop
       offset="0"
       stop-color="#33d1c6"
       id="stop12" />
    <stop
       offset="1"
       stop-color="#1c25d8"
       id="stop14" />
  </linearGradient>
  <path
     style="display:inline;fill:#787cb5;fill-opacity:1;stroke:none;stroke-width:0.125;stroke-linejoin:round;stroke-miterlimit:4;stroke-dasharray:none;stroke-opacity:1;enable-background:new"
     clip-path="none"
     d="m 27.978072,8.0000006 h 50.000002 l 30.042896,29.9178934 10e-4,74.060006 c 8e-5,4.432 -3.6122,8.0221 -8.044196,8.0221 H 27.978011 c -4.431999,0 -7.999999,-3.568 -7.999999,-8.00001 V 16 c 0,-4.431999 3.568,-7.9999994 7.999999,-7.9999994 z"
     id="path4411" />
  <path
     style="display:inline;vector-effect:none;fill:#000000;fill-opacity:0.2;stroke:none;stroke-width:0.125;stroke-linecap:butt;stroke-linejoin:round;stroke-miterlimit:4;stroke-dasharray:none;stroke-dashoffset:0;stroke-opacity:1;enable-background:new"
     d="M 77.978074,8.0000006 V 30.000002 c 0,4.432 3.610527,7.923448 8.042527,7.923448 l 22.000369,-0.0055 z"
     id="path4413" />
  <g
     aria-label="?"
     id="text8601"
     style="font-size:60.6052px;font-family:'Source Code Pro';-inkscape-font-specification:'Source Code Pro';fill:#ffffff;stroke:#ffffff;stroke-width:0.704906;stroke-linecap:square"
     transform="matrix(1.0860618,0,0,1.0860618,-14.096266,-9.4742933)">
    <g
       id="path8630">
      <g
         id="path9413" />
    </g>
  </g>
  <g
     id="g2737"
     transform="matrix(1.1122494,0,0,1.1122494,-156.50852,-46.063992)">
    <path
       style="color:#000000;fill:#ffffff;stroke:none;stroke-width:5.12075;stroke-linecap:round;-inkscape-stroke:none"
       d="m 188.99212,97.240251 a 2.5603776,2.5603776 0 0 0 -1.80988,0.749579 l -15.90005,15.90006 15.90005,15.90004 a 2.5603776,2.5603776 0 0 0 3.61978,0 2.5603776,2.5603776 0 0 0 0,-3.61976 l -12.27811,-12.28028 12.27811,-12.2781 a 2.5603776,2.5603776 0 0 0 0,-3.621959 2.5603776,2.5603776 0 0 0 -1.8099,-0.74958 z"
       id="path1824-7" />
    <g
       aria-label="?"
       id="text1857"
       style="font-size:74.6667px;font-family:FreeMono;-inkscape-font-specification:FreeMono;fill:#ffffff;stroke:#ffffff;stroke-width:0.6607;stroke-dasharray:none;stroke-opacity:1"
       transform="matrix(0.89756245,0,0,0.89756245,11.099983,11.66694)">
      <g
         id="path1859"
         style="stroke:#ffffff;stroke-width:0.6607;stroke-dasharray:none;stroke-opacity:1">
        <g
           id="path2446">
          <path
             id="path2664"
             style="color:#000000;-inkscape-font-specification:FreeMono;stroke:none;-inkscape-stroke:none"
             d="m 223.9437,90.460031 c -6.98535,0 -10.63275,2.720529 -13.4788,3.647152 l -0.91832,0.298126 v 0.968367 5.074674 c 1e-5,0.84061 0.14936,1.66092 0.67024,2.33061 0.53646,0.68974 1.40244,1.01624 2.22834,1.01624 0.813,0 1.65898,-0.34707 2.17392,-1.03365 0.49829,-0.66439 0.64848,-1.47267 0.64848,-2.3132 v -2.163045 c 3.26827,-1.557091 5.35171,-2.10647 8.30185,-2.10647 2.84738,0 5.20188,0.809703 6.79815,2.080357 1.59974,1.273436 2.47423,2.957868 2.47423,5.028978 0,1.75476 -0.6579,3.1724 -2.4677,4.79614 -1.80446,1.61896 -4.77608,3.30202 -9.03954,5.10296 l -0.81169,0.34383 v 5.95817 c 0,0.84061 0.14959,1.65903 0.67024,2.32844 0.53597,0.6891 1.39967,1.01841 2.22615,1.01841 0.81361,0 1.66111,-0.34914 2.17611,-1.03582 0.49808,-0.66411 0.64848,-1.4705 0.64848,-2.31103 v -2.2675 c 4.24975,-2.05826 7.31542,-3.91351 9.30067,-6.03434 2.12193,-2.26683 3.02044,-4.8919 3.02044,-7.89926 0,-3.783608 -1.51975,-7.072195 -4.13678,-9.333314 -2.61544,-2.259736 -6.26765,-3.494825 -10.48447,-3.494825 z m -1.64296,36.734829 c -1.53069,0 -2.92506,0.45543 -3.95399,1.35572 -1.03286,0.90376 -1.63208,2.24309 -1.63208,3.70808 0,1.465 0.59922,2.80216 1.63208,3.70591 1.02893,0.90032 2.4233,1.35571 3.95399,1.35571 h 2.01507 c 1.544,0 2.94135,-0.48192 3.96269,-1.38835 1.02424,-0.90902 1.62337,-2.23489 1.62337,-3.67327 0,-1.465 -0.59704,-2.80432 -1.6299,-3.70808 -1.02892,-0.90029 -2.42549,-1.35572 -3.95616,-1.35572 z" />
        </g>
      </g>
    </g>
  </g>
</svg>
