<?xml version="1.0" encoding="UTF-8" standalone="no"?>
<svg
   height="128px"
   viewBox="0 0 128 128"
   width="128px"
   version="1.1"
   id="svg35"
   xmlns="http://www.w3.org/2000/svg"
   xmlns:svg="http://www.w3.org/2000/svg">
  <defs
     id="defs39">
    <filter
       height="1.0214333"
       y="-0.010716652"
       width="1.0272651"
       x="-0.01363253"
       id="filter16020"
       style="color-interpolation-filters:sRGB">
      <feGaussianBlur
         id="feGaussianBlur16022"
         stdDeviation="2.0004419" />
    </filter>
  </defs>
  <linearGradient
     id="a"
     gradientUnits="userSpaceOnUse"
     x1="36"
     x2="60"
     y1="68"
     y2="68">
    <stop
       offset="0"
       stop-color="#ed336c"
       id="stop2" />
    <stop
       offset="1"
       stop-color="#ffa348"
       id="stop4" />
  </linearGradient>
  <linearGradient
     id="b"
     gradientTransform="matrix(0 1 -1 0 144 -32)"
     gradientUnits="userSpaceOnUse"
     x1="72"
     x2="96"
     y1="68"
     y2="68">
    <stop
       offset="0"
       stop-color="#404ce6"
       id="stop7" />
    <stop
       offset="1"
       stop-color="#c061cb"
       id="stop9" />
  </linearGradient>
  <linearGradient
     id="c"
     gradientUnits="userSpaceOnUse"
     x1="68.84919"
     x2="95.257637"
     y1="84"
     y2="84">
    <stop
       offset="0"
       stop-color="#33d1c6"
       id="stop12" />
    <stop
       offset="1"
       stop-color="#1c25d8"
       id="stop14" />
  </linearGradient>
  <path
     style="display:inline;fill:#1111ff;fill-opacity:1;stroke:none;stroke-width:0.125;stroke-linejoin:round;stroke-miterlimit:4;stroke-dasharray:none;stroke-opacity:1;enable-background:new"
     clip-path="none"
     d="m 27.978072,8.0000006 h 50.000002 l 30.042896,29.9178934 10e-4,74.060006 c 8e-5,4.432 -3.6122,8.0221 -8.044196,8.0221 H 27.978011 c -4.431999,0 -7.999999,-3.568 -7.999999,-8.00001 V 16 c 0,-4.431999 3.568,-7.9999994 7.999999,-7.9999994 z"
     id="path4411" />
  <path
     style="display:inline;vector-effect:none;fill:#faa90b;fill-opacity:1;stroke:none;stroke-width:0.125;stroke-linecap:butt;stroke-linejoin:round;stroke-miterlimit:4;stroke-dasharray:none;stroke-dashoffset:0;stroke-opacity:1;enable-background:new"
     d="M 77.978074,8.0000006 V 30.000002 c 0,4.432 3.610527,7.923448 8.042527,7.923448 l 22.000369,-0.0055 z"
     id="path4413" />
  <path
     id="path133"
     style="fill:#ffffff;stroke-width:3.98508"
     d="m 63.999996,44.22435 c -4.903517,0 -9.713626,1.292046 -13.947777,3.736006 C 41.428273,52.941709 36.104455,62.1572 36.104455,72.119892 v 23.91046 c 0,0 0,7.970138 7.970156,7.970138 h 3.985074 c 2.21048,0 3.985072,-1.77459 3.985072,-3.98507 v -1.237559 l 8.006943,9.146329 7.511147,-14.538535 8.392376,6.404046 v 0.225559 c 0,2.21048 1.774592,3.9851 3.985075,3.9851 h 3.985073 c 7.970156,0 7.970156,-7.970167 7.970156,-7.970167 v -23.91046 c 0,-9.962693 -5.323818,-19.178186 -13.947765,-24.159534 -4.23415,-2.443961 -9.044249,-3.736007 -13.947766,-3.736007 z m 0,7.970156 c 3.440227,0 6.880467,0.887313 9.962694,2.661916 6.164388,3.564761 9.962681,10.149501 9.962681,17.26347 v 3.985072 c 0,3.985074 -3.985073,3.985074 -3.985073,3.985074 -1.992536,0 -3.985075,1.774594 -3.985075,3.985083 v 6.514677 C 71.715142,85.991703 65.78913,78.582926 65.78913,78.582926 l -6.646509,17.333286 -7.097864,-6.571749 v -5.269342 c 0,-2.210489 -1.992538,-3.985083 -3.985072,-3.985083 0,0 -3.985074,0 -3.985074,-3.985074 v -3.985072 c 0,-7.113969 3.798292,-13.698709 9.962692,-17.26347 3.082216,-1.774603 6.522455,-2.661916 9.962693,-2.661916 z" />
</svg>
