<?xml version="1.0" encoding="UTF-8" standalone="no"?>
<svg
   height="128px"
   viewBox="0 0 128 128"
   width="128px"
   version="1.1"
   id="svg35"
   xmlns="http://www.w3.org/2000/svg"
   xmlns:svg="http://www.w3.org/2000/svg">
  <defs
     id="defs39">
    <filter
       height="1.0214333"
       y="-0.010716652"
       width="1.0272651"
       x="-0.01363253"
       id="filter16020"
       style="color-interpolation-filters:sRGB">
      <feGaussianBlur
         id="feGaussianBlur16022"
         stdDeviation="2.0004419" />
    </filter>
  </defs>
  <linearGradient
     id="a"
     gradientUnits="userSpaceOnUse"
     x1="36"
     x2="60"
     y1="68"
     y2="68">
    <stop
       offset="0"
       stop-color="#ed336c"
       id="stop2" />
    <stop
       offset="1"
       stop-color="#ffa348"
       id="stop4" />
  </linearGradient>
  <linearGradient
     id="b"
     gradientTransform="matrix(0 1 -1 0 144 -32)"
     gradientUnits="userSpaceOnUse"
     x1="72"
     x2="96"
     y1="68"
     y2="68">
    <stop
       offset="0"
       stop-color="#404ce6"
       id="stop7" />
    <stop
       offset="1"
       stop-color="#c061cb"
       id="stop9" />
  </linearGradient>
  <linearGradient
     id="c"
     gradientUnits="userSpaceOnUse"
     x1="68.84919"
     x2="95.257637"
     y1="84"
     y2="84">
    <stop
       offset="0"
       stop-color="#33d1c6"
       id="stop12" />
    <stop
       offset="1"
       stop-color="#1c25d8"
       id="stop14" />
  </linearGradient>
  <path
     style="display:inline;fill:#787cb5;fill-opacity:1;stroke:none;stroke-width:0.125;stroke-linejoin:round;stroke-miterlimit:4;stroke-dasharray:none;stroke-opacity:1;enable-background:new"
     clip-path="none"
     d="m 27.978072,8.0000006 h 50.000002 l 30.042896,29.9178934 10e-4,74.060006 c 8e-5,4.432 -3.6122,8.0221 -8.044196,8.0221 H 27.978011 c -4.431999,0 -7.999999,-3.568 -7.999999,-8.00001 V 16 c 0,-4.431999 3.568,-7.9999994 7.999999,-7.9999994 z"
     id="path4411" />
  <path
     style="display:inline;vector-effect:none;fill:#000000;fill-opacity:0.2;stroke:none;stroke-width:0.125;stroke-linecap:butt;stroke-linejoin:round;stroke-miterlimit:4;stroke-dasharray:none;stroke-dashoffset:0;stroke-opacity:1;enable-background:new"
     d="M 77.978074,8.0000006 V 30.000002 c 0,4.432 3.610527,7.923448 8.042527,7.923448 l 22.000369,-0.0055 z"
     id="path4413" />
  <g
     aria-label="&lt;?"
     id="text9351"
     style="font-size:56px;line-height:1.25;font-family:'Source Code Pro';-inkscape-font-specification:'Source Code Pro';letter-spacing:-8px"
     transform="matrix(1.2350762,0,0,1.2350762,-15.044736,-23.304001)">
    <path
       d="m 62.035868,96.635486 -20.888,-14.168 v -3.472 l 20.888,-14.168 v 4.424 l -16.856,11.368 v 0.224 l 16.856,11.368 z"
       style="fill:#ffffff"
       id="path9353" />
    <path
       d="m 73.579889,86.331486 q -0.392,-2.408 0.336,-4.2 0.784,-1.848 2.128,-3.248 1.4,-1.4 2.8,-2.688 1.456,-1.344 2.464,-2.688 1.008,-1.4 1.008,-3.136 0,-2.296 -1.568,-3.864 -1.512,-1.568 -4.592,-1.568 -2.128,0 -3.976,0.896 -1.792,0.84 -3.304,2.352 l -2.744,-2.52 q 1.904,-1.96 4.48,-3.248 2.576,-1.288 5.824,-1.288 3.136,0 5.432,1.12 2.352,1.064 3.64,3.024 1.344,1.96 1.344,4.592 0,2.296 -1.008,3.976 -1.008,1.624 -2.52,3.024 -1.456,1.4 -2.856,2.744 -1.4,1.288 -2.296,2.912 -0.84,1.624 -0.504,3.808 z m 2.464,13.664 q -1.68,0 -2.912,-1.176 -1.176,-1.176 -1.176,-3.192 0,-1.96 1.176,-3.08 1.232,-1.176 2.912,-1.176 1.68,0 2.856,1.176 1.232,1.12 1.232,3.08 0,2.016 -1.232,3.192 -1.176,1.176 -2.856,1.176 z"
       style="fill:#ffffff"
       id="path9355" />
  </g>
</svg>
