<?xml version="1.0" encoding="UTF-8" standalone="no"?>
<svg
   height="128px"
   viewBox="0 0 128 128"
   width="128px"
   version="1.1"
   id="svg35"
   xmlns="http://www.w3.org/2000/svg"
   xmlns:svg="http://www.w3.org/2000/svg">
  <defs
     id="defs39" />
  <linearGradient
     id="a"
     gradientUnits="userSpaceOnUse"
     x1="36"
     x2="60"
     y1="68"
     y2="68">
    <stop
       offset="0"
       stop-color="#ed336c"
       id="stop2" />
    <stop
       offset="1"
       stop-color="#ffa348"
       id="stop4" />
  </linearGradient>
  <linearGradient
     id="b"
     gradientTransform="matrix(0 1 -1 0 144 -32)"
     gradientUnits="userSpaceOnUse"
     x1="72"
     x2="96"
     y1="68"
     y2="68">
    <stop
       offset="0"
       stop-color="#404ce6"
       id="stop7" />
    <stop
       offset="1"
       stop-color="#c061cb"
       id="stop9" />
  </linearGradient>
  <linearGradient
     id="c"
     gradientUnits="userSpaceOnUse"
     x1="68.84919"
     x2="95.257637"
     y1="84"
     y2="84">
    <stop
       offset="0"
       stop-color="#33d1c6"
       id="stop12" />
    <stop
       offset="1"
       stop-color="#1c25d8"
       id="stop14" />
  </linearGradient>
  <path
     style="display:inline;fill:#ff9a00;fill-opacity:1;stroke:none;stroke-width:0.125;stroke-linejoin:round;stroke-miterlimit:4;stroke-dasharray:none;stroke-opacity:1;enable-background:new"
     clip-path="none"
     d="m 27.978081,8.0000006 h 50.000002 l 30.042897,29.9178934 0.001,74.060006 c 8e-5,4.432 -3.6122,8.0221 -8.044197,8.0221 H 27.97802 c -4.431999,0 -7.999999,-3.568 -7.999999,-8.00001 V 16 c 0,-4.431999 3.568,-7.9999994 7.999999,-7.9999994 z"
     id="path4411" />
  <path
     style="display:inline;vector-effect:none;fill:#000000;fill-opacity:0.2;stroke:none;stroke-width:0.125;stroke-linecap:butt;stroke-linejoin:round;stroke-miterlimit:4;stroke-dasharray:none;stroke-dashoffset:0;stroke-opacity:1;enable-background:new"
     d="M 77.978074,8.0000006 V 30.000002 c 0,4.432 3.610527,7.923448 8.042527,7.923448 l 22.000369,-0.0055 z"
     id="path4413" />
  <path
     fill="#ff9a00"
     d="m 64.023357,92.56954 h -16.74226 l -3.42046,10.57643 c -0.09,0.40505 -0.45007,0.67509 -0.85512,0.63008 h -8.46114 c -0.49507,0 -0.63009,-0.27003 -0.49507,-0.81011 l 14.49196,-41.720626 c 0.13502,-0.450061 0.27003,-0.945128 0.45006,-1.485201 0.18002,-0.945127 0.27003,-1.935261 0.27003,-2.925395 -0.045,-0.22503 0.13502,-0.45006 0.36005,-0.495066 h 11.65658 c 0.36004,0 0.54007,0.135018 0.58507,0.360048 l 16.427221,46.35626 c 0.135019,0.49506 0,0.72009 -0.450061,0.72009 h -9.40627 c -0.31504,0.045 -0.63008,-0.18002 -0.7201,-0.49506 z m -14.13191,-9.136233 h 11.43154 c -0.27003,-0.945127 -0.63008,-2.070279 -1.03514,-3.240437 -0.40505,-1.215164 -0.81011,-2.52034 -1.21516,-3.870522 -0.45006,-1.395188 -0.85512,-2.74537 -1.30518,-4.140559 -0.45006,-1.395188 -0.85511,-2.700364 -1.21516,-4.00554 -0.36005,-1.26017 -0.67509,-2.430328 -0.99014,-3.510474 h -0.09 c -0.40505,1.935261 -0.90012,3.870522 -1.5302,5.805783 -0.6751,2.160292 -1.35019,4.410596 -2.07028,6.660899 -0.63009,2.29531 -1.30518,4.410595 -1.98027,6.30085 z M 88.326633,64.215714 c -1.485201,0.04501 -2.925395,-0.540073 -4.005541,-1.575212 -1.03514,-1.125152 -1.575212,-2.610352 -1.530206,-4.140559 -0.04501,-1.530206 0.540072,-2.970401 1.620218,-4.00554 1.080146,-1.03514 2.52034,-1.575213 4.005541,-1.575213 1.755237,0 3.105419,0.540073 4.095552,1.575213 0.990134,1.080145 1.530207,2.52034 1.485201,4.00554 0.04501,1.530207 -0.495067,3.015407 -1.575213,4.140559 -1.035139,1.080146 -2.565346,1.665224 -4.095552,1.575212 z M 83.285952,103.28099 V 68.626309 c 0,-0.45006 0.180025,-0.630085 0.585079,-0.630085 h 8.911203 c 0.405054,0 0.585079,0.225031 0.585079,0.630085 v 34.654681 c 0,0.49506 -0.180025,0.72009 -0.585079,0.72009 h -8.821191 c -0.45006,0 -0.675091,-0.27003 -0.675091,-0.72009 z"
     id="path2"
     style="fill:#ffffff;fill-opacity:1;stroke-width:0.999999" />
</svg>
