<?xml version="1.0" encoding="UTF-8" standalone="no"?>
<svg
   height="128px"
   viewBox="0 0 128 128"
   width="128px"
   version="1.1"
   id="svg113"
   sodipodi:docname="info.febvre.Komikku.svg"
   xml:space="preserve"
   inkscape:version="1.2.2 (b0a8486541, 2022-12-01)"
   xmlns:inkscape="http://www.inkscape.org/namespaces/inkscape"
   xmlns:sodipodi="http://sodipodi.sourceforge.net/DTD/sodipodi-0.dtd"
   xmlns="http://www.w3.org/2000/svg"
   xmlns:svg="http://www.w3.org/2000/svg"><defs
     id="defs117"><filter
       height="1.0214333"
       y="-0.010716652"
       width="1.0272651"
       x="-0.01363253"
       id="filter16020"
       style="color-interpolation-filters:sRGB"><feGaussianBlur
         id="feGaussianBlur16022"
         stdDeviation="2.0004419" /></filter></defs><sodipodi:namedview
     id="namedview115"
     pagecolor="#505050"
     bordercolor="#ffffff"
     borderopacity="1"
     inkscape:showpageshadow="0"
     inkscape:pageopacity="0"
     inkscape:pagecheckerboard="1"
     inkscape:deskcolor="#505050"
     showgrid="false"
     inkscape:zoom="7.796701"
     inkscape:cx="38.862591"
     inkscape:cy="70.222008"
     inkscape:window-width="2560"
     inkscape:window-height="1403"
     inkscape:window-x="0"
     inkscape:window-y="0"
     inkscape:window-maximized="1"
     inkscape:current-layer="g1113" /><linearGradient
     id="a"
     gradientTransform="matrix(-1 0 0 1 120.000008 -163.999989)"
     gradientUnits="userSpaceOnUse"
     x1="8"
     x2="24"
     y1="236"
     y2="236"><stop
       offset="0"
       stop-color="#cb3f30"
       id="stop2" /><stop
       offset="0.5"
       stop-color="#f67f74"
       id="stop4" /><stop
       offset="1"
       stop-color="#e26255"
       id="stop6" /></linearGradient><linearGradient
     id="b"
     gradientTransform="matrix(0 -1 -1 0 -175.999985 100.000031)"
     gradientUnits="userSpaceOnUse"
     x1="-20.006874"
     x2="-13.146549"
     y1="-272.836212"
     y2="-281.372711"><stop
       offset="0"
       stop-color="#b84437"
       id="stop9" /><stop
       offset="0.400001"
       stop-color="#a84336"
       id="stop11" /><stop
       offset="1"
       stop-color="#803228"
       id="stop13" /></linearGradient><linearGradient
     id="c"
     gradientTransform="matrix(-1 0 0 1 140.000015 -12)"
     gradientUnits="userSpaceOnUse"
     x1="116"
     x2="124"
     y1="118"
     y2="118"><stop
       offset="0"
       stop-color="#c0bfbc"
       id="stop16" /><stop
       offset="0.5"
       stop-color="#f6f5f4"
       id="stop18" /><stop
       offset="1"
       stop-color="#c0bfbc"
       id="stop20" /></linearGradient><linearGradient
     id="d"
     gradientTransform="matrix(-0.940909 0 0 0.94091 122.776268 -151.280958)"
     gradientUnits="userSpaceOnUse"
     x1="18.367126"
     x2="21.996468"
     y1="280.538696"
     y2="286.82489"><stop
       offset="0"
       stop-color="#c14e40"
       id="stop23" /><stop
       offset="1"
       stop-color="#f66151"
       id="stop25" /></linearGradient><clipPath
     id="e"><path
       d="m 16 12 h 29 v 29 h -29 z m 0 0"
       id="path28" /></clipPath><clipPath
     id="f"><path
       d="m 16 34 l 22 -22 h 6.285156 v 28.285156 h -28.285156 z m 0 0"
       id="path31" /></clipPath><filter
     id="g"
     height="1"
     width="1"
     x="0"
     y="0"><feColorMatrix
       in="SourceGraphic"
       type="matrix"
       values="0 0 0 0 1 0 0 0 0 1 0 0 0 0 1 0 0 0 1 0"
       id="feColorMatrix34" /></filter><mask
     id="h"><g
       filter="url(#g)"
       id="g39"><rect
         fill-opacity="0.2"
         height="128"
         width="128"
         id="rect37" /></g></mask><clipPath
     id="i"><path
       d="m 16 12 h 22 v 22 h -22 z m 0 0"
       id="path42" /></clipPath><clipPath
     id="j"><path
       d="m 16 34 l 22 -22 h 6.285156 v 28.285156 h -28.285156 z m 0 0"
       id="path45" /></clipPath><linearGradient
     id="k"
     gradientTransform="matrix(0,-0.196429,-0.196429,0,41.928589,90.571477)"
     gradientUnits="userSpaceOnUse"
     x1="344"
     x2="338.909088"
     y1="76"
     y2="70.909081"><stop
       offset="0"
       stop-color="#d5d3cf"
       id="stop48" /><stop
       offset="1"
       stop-color="#fefefe"
       id="stop50" /></linearGradient><clipPath
     id="l"><path
       d="m 16 12 h 22 v 22 h -22 z m 0 0"
       id="path53" /></clipPath><clipPath
     id="m"><path
       d="m 38 12 l -22 22 h -6.285156 v -28.285156 h 28.285156 z m 0 0"
       id="path56" /></clipPath><g
     enable-background="new"
     stroke-width="0.25"
     transform="matrix(0.23661883,0,0,0.23661883,3.4453088,53.378397)"
     id="g1113"
     style="display:inline"><path
       d="m 100.82735,-190.03236 h 206.87169 l 124.30048,123.783308 0.005,306.418372 c 3.2e-4,18.3371 -14.94522,33.19089 -33.28233,33.19089 H 100.82714 c -18.337092,0 -33.099457,-14.76236 -33.099457,-33.09947 v -397.19363 c 0,-18.3371 14.762365,-33.09947 33.099457,-33.09947 z"
       filter="url(#filter16020-3)"
       opacity="0.4"
       id="path1099"
       style="display:inline;stroke-width:0.25859" /><path
       d="m 100.82735,-191.19222 h 206.87169 l 124.30048,123.78332 0.005,306.41836 c 3.2e-4,18.3371 -14.94522,33.1909 -33.28233,33.1909 H 100.82714 c -18.337094,0 -33.099457,-14.76236 -33.099457,-33.09948 v -397.19363 c 0,-18.33711 14.762363,-33.09947 33.099457,-33.09947 z"
       fill="#f6f5f4"
       id="path1101"
       style="display:inline;stroke-width:0.25859" /><g
       id="g1141"
       transform="matrix(1.0343584,0,0,1.0343584,-14.843318,-5.3473951)"
       style="display:inline"><path
         d="m 397.53084,-54.116482 -77.24412,12.339706 v 78.175047 h 77.24412 z m 0,0"
         fill="#99c1f1"
         id="path83"
         style="stroke-width:1.10175" /><path
         d="m 311.82843,-144.63123 h -43.03778 v 92.989762 l 128.74019,-20.577963 z"
         fill="#deddda"
         id="path85"
         style="stroke-width:1.10175"
         sodipodi:nodetypes="ccccc" /><path
         d="M 251.62528,-144.63123 H 114.30239 v 117.669176 l 137.32289,-21.939219 z m 0,0"
         fill="#ffbe6f"
         id="path87"
         style="stroke-width:1.10175" /><path
         d="M 397.53084,163.11891 114.30239,117.86155 v 117.66918 h 283.22845 z m 0,0"
         fill="#f68276"
         id="path89"
         style="stroke-width:1.10175;fill:#f66151;fill-opacity:1" /><path
         d="M 303.12136,-39.036584 114.30239,-8.8591043 V 99.758596 l 188.81897,30.177474 z m 0,0"
         fill="#deddda"
         id="path91"
         style="stroke-width:1.10175" /><path
         d="m 397.53084,54.501221 h -77.24412 v 78.175049 l 77.24412,12.33971 z m 0,0"
         fill="#deddda"
         id="path93"
         style="stroke-width:1.10175" /></g><path
       d="m 307.69904,-187.07635 v 91.023559 c 0,18.337106 14.93831,32.782744 33.27542,32.782744 l 91.02506,-0.02298 v -4.115866 z"
       opacity="0.25"
       id="path1103"
       style="display:inline;stroke-width:0.25859" /><path
       d="m 307.69904,-191.19222 v 91.02355 c 0,18.337119 14.93831,32.782757 33.27542,32.782757 l 91.02506,-0.02298 z"
       fill="#deddda"
       id="path1105"
       style="display:inline;stroke-width:0.25859;fill:#ed333b;fill-opacity:1" /></g></svg>
