<?xml version="1.0" encoding="UTF-8" standalone="no"?>
<svg
   height="128px"
   viewBox="0 0 128 128"
   width="128px"
   version="1.1"
   id="svg35"
   xmlns:xlink="http://www.w3.org/1999/xlink"
   xmlns="http://www.w3.org/2000/svg"
   xmlns:svg="http://www.w3.org/2000/svg">
  <defs
     id="defs39">
    <filter
       height="1.0214333"
       y="-0.010716652"
       width="1.0272651"
       x="-0.01363253"
       id="filter16020"
       style="color-interpolation-filters:sRGB">
      <feGaussianBlur
         id="feGaussianBlur16022"
         stdDeviation="2.0004419" />
    </filter>
    <linearGradient
       xlink:href="#linearGradient4689"
       id="linearGradient1478"
       gradientUnits="userSpaceOnUse"
       gradientTransform="matrix(0.24025454,0,0,0.24257405,33.859503,46.997546)"
       x1="26.648937"
       y1="20.603781"
       x2="135.66525"
       y2="114.39767" />
    <linearGradient
       id="linearGradient4689">
      <stop
         style="stop-color:#5a9fd4;stop-opacity:1;"
         offset="0"
         id="stop4691" />
      <stop
         style="stop-color:#306998;stop-opacity:1;"
         offset="1"
         id="stop4693" />
    </linearGradient>
    <linearGradient
       xlink:href="#linearGradient4671"
       id="linearGradient1475"
       gradientUnits="userSpaceOnUse"
       gradientTransform="matrix(0.24025454,0,0,0.24257405,33.859503,46.997546)"
       x1="150.96111"
       y1="192.35176"
       x2="112.03144"
       y2="137.27299" />
    <linearGradient
       id="linearGradient4671">
      <stop
         style="stop-color:#ffd43b;stop-opacity:1;"
         offset="0"
         id="stop4673" />
      <stop
         style="stop-color:#ffe873;stop-opacity:1"
         offset="1"
         id="stop4675" />
    </linearGradient>
  </defs>
  <linearGradient
     id="a"
     gradientUnits="userSpaceOnUse"
     x1="36"
     x2="60"
     y1="68"
     y2="68">
    <stop
       offset="0"
       stop-color="#ed336c"
       id="stop2" />
    <stop
       offset="1"
       stop-color="#ffa348"
       id="stop4" />
  </linearGradient>
  <linearGradient
     id="b"
     gradientTransform="matrix(0 1 -1 0 144 -32)"
     gradientUnits="userSpaceOnUse"
     x1="72"
     x2="96"
     y1="68"
     y2="68">
    <stop
       offset="0"
       stop-color="#404ce6"
       id="stop7" />
    <stop
       offset="1"
       stop-color="#c061cb"
       id="stop9" />
  </linearGradient>
  <linearGradient
     id="c"
     gradientUnits="userSpaceOnUse"
     x1="68.84919"
     x2="95.257637"
     y1="84"
     y2="84">
    <stop
       offset="0"
       stop-color="#33d1c6"
       id="stop12" />
    <stop
       offset="1"
       stop-color="#1c25d8"
       id="stop14" />
  </linearGradient>
  <path
     style="display:inline;fill:#306998;fill-opacity:1;stroke:none;stroke-width:0.125;stroke-linejoin:round;stroke-miterlimit:4;stroke-dasharray:none;stroke-opacity:1;enable-background:new"
     clip-path="none"
     d="m 27.978085,7.9999995 h 50.000002 l 30.042893,29.9178935 0.001,74.060007 c 8e-5,4.432 -3.6122,8.0221 -8.044205,8.0221 H 27.978023 c -4.431999,0 -7.999998,-3.568 -7.999998,-8.00001 V 15.999998 c 0,-4.431999 3.567999,-7.9999984 7.999998,-7.9999984 z"
     id="path4411" />
  <path
     style="display:inline;vector-effect:none;fill:#ffd43b;fill-opacity:1;stroke:none;stroke-width:0.125;stroke-linecap:butt;stroke-linejoin:round;stroke-miterlimit:4;stroke-dasharray:none;stroke-dashoffset:0;stroke-opacity:1;enable-background:new"
     d="M 77.978087,7.9999995 V 30 c 0,4.432001 3.610528,7.923449 8.042528,7.923449 l 22.000365,-0.0055 z"
     id="path4413" />
  <path
     style="fill:#ffffff;fill-opacity:1;stroke-width:0.427088"
     d="m 63.717186,51.995882 c -1.957622,0.0091 -3.827106,0.176053 -5.472061,0.467127 -4.845835,0.8561 -5.725649,2.64799 -5.725649,5.95254 v 4.364306 H 63.97077 v 1.454769 H 52.519476 48.221902 c -3.328066,0 -6.242216,2.000359 -7.153725,5.805728 -1.051414,4.361836 -1.098052,7.083692 0,11.638149 0.813996,3.390162 2.757939,5.805728 6.086005,5.805728 H 51.0914 v -5.231828 c 0,-3.779688 3.270273,-7.113685 7.153725,-7.113686 h 11.437947 c 3.183925,0 5.725653,-2.621536 5.725652,-5.819074 V 58.415549 c 0,-3.103367 -2.618044,-5.4346 -5.725652,-5.95254 -1.967159,-0.327459 -4.008259,-0.476223 -5.965886,-0.467127 z m -6.192772,3.51013 c 1.182837,0 2.148787,0.981724 2.148787,2.188826 -5e-6,1.202823 -0.96595,2.17548 -2.148787,2.17548 -1.187083,-10e-7 -2.148787,-0.972657 -2.148787,-2.17548 -4e-6,-1.207102 0.961704,-2.188826 2.148787,-2.188826 z"
     id="path1948" />
  <path
     style="fill:#ffffff;fill-opacity:1;stroke-width:0.427088"
     d="m 76.836799,64.234624 v 5.085017 c 0,3.942345 -3.342346,7.260496 -7.153727,7.260497 H 58.245125 c -3.13305,0 -5.725649,2.681465 -5.725649,5.819074 v 10.904091 c 0,3.103368 2.69859,4.928734 5.725649,5.819076 3.624837,1.065841 7.100864,1.258471 11.437947,0 2.882913,-0.834696 5.725653,-2.514528 5.725652,-5.819076 V 88.938998 H 63.97077 v -1.454769 h 11.437954 5.725651 c 3.328067,0 4.568241,-2.321397 5.725645,-5.805728 1.19556,-3.587064 1.14469,-7.036607 0,-11.638149 -0.822478,-3.31311 -2.393346,-5.805728 -5.725645,-5.805728 z m -6.433015,27.613911 c 1.187082,2e-6 2.148786,0.972658 2.148786,2.175479 0,1.207102 -0.961704,2.188828 -2.148786,2.188828 -1.182842,0 -2.148787,-0.981726 -2.148787,-2.188828 4e-6,-1.202821 0.965945,-2.175479 2.148787,-2.175479 z"
     id="path1950" />
</svg>
