<?xml version="1.0" encoding="UTF-8" standalone="no"?>
<svg
   height="128px"
   viewBox="0 0 128 128"
   width="128px"
   version="1.1"
   id="svg35"
   xmlns:xlink="http://www.w3.org/1999/xlink"
   xmlns="http://www.w3.org/2000/svg"
   xmlns:svg="http://www.w3.org/2000/svg">
  <defs
     id="defs39" />
  <linearGradient
     id="a"
     gradientUnits="userSpaceOnUse"
     x1="36"
     x2="60"
     y1="68"
     y2="68">
    <stop
       offset="0"
       stop-color="#ed336c"
       id="stop2" />
    <stop
       offset="1"
       stop-color="#ffa348"
       id="stop4" />
  </linearGradient>
  <linearGradient
     id="b"
     gradientTransform="matrix(0 1 -1 0 144 -32)"
     gradientUnits="userSpaceOnUse"
     x1="72"
     x2="96"
     y1="68"
     y2="68">
    <stop
       offset="0"
       stop-color="#404ce6"
       id="stop7" />
    <stop
       offset="1"
       stop-color="#c061cb"
       id="stop9" />
  </linearGradient>
  <linearGradient
     id="c"
     gradientUnits="userSpaceOnUse"
     x1="68.84919"
     x2="95.257637"
     y1="84"
     y2="84">
    <stop
       offset="0"
       stop-color="#33d1c6"
       id="stop12" />
    <stop
       offset="1"
       stop-color="#1c25d8"
       id="stop14" />
  </linearGradient>
  <path
     style="display:inline;fill:#666666;fill-opacity:1;stroke:none;stroke-width:0.125;stroke-linejoin:round;stroke-miterlimit:4;stroke-dasharray:none;stroke-opacity:1;enable-background:new"
     clip-path="none"
     d="m 27.978072,8.0000006 h 50.000002 l 30.042896,29.9178934 10e-4,74.060006 c 8e-5,4.432 -3.6122,8.0221 -8.044196,8.0221 H 27.978011 c -4.431999,0 -7.999999,-3.568 -7.999999,-8.00001 V 16 c 0,-4.431999 3.568,-7.9999994 7.999999,-7.9999994 z"
     id="path4411" />
  <path
     style="display:inline;vector-effect:none;fill:#000000;fill-opacity:0.2;stroke:none;stroke-width:0.125;stroke-linecap:butt;stroke-linejoin:round;stroke-miterlimit:4;stroke-dasharray:none;stroke-dashoffset:0;stroke-opacity:1;enable-background:new"
     d="M 77.978074,8.0000006 V 30.000002 c 0,4.432 3.610527,7.923448 8.042527,7.923448 l 22.000369,-0.0055 z"
     id="path4413" />
  <use
     x="101.13281"
     y="687.27344"
     xlink:href="#c"
     id="use3173"
     transform="matrix(1.3333333,0,0,1.3333333,408.14387,-279.67073)" />
  <use
     x="122.05859"
     y="687.27344"
     xlink:href="#a"
     id="use3175"
     transform="matrix(1.3333333,0,0,1.3333333,408.14387,-279.67073)" />
  <use
     x="179.45703"
     y="687.27344"
     xlink:href="#b"
     id="use3179"
     transform="matrix(1.3333333,0,0,1.3333333,408.14387,-279.67073)" />
  <use
     x="199.73828"
     y="687.27344"
     xlink:href="#a"
     id="use3181"
     transform="matrix(1.3333333,0,0,1.3333333,408.14387,-279.67073)" />
  <use
     x="381.65625"
     y="687.27344"
     xlink:href="#a"
     id="use3191"
     transform="matrix(1.3333333,0,0,1.3333333,408.14387,-279.67073)" />
  <use
     x="571.23828"
     y="687.27344"
     xlink:href="#c"
     id="use3205"
     transform="matrix(1.3333333,0,0,1.3333333,408.14387,-279.67073)" />
  <use
     x="631.85156"
     y="687.27344"
     xlink:href="#a"
     id="use3211"
     transform="matrix(1.3333333,0,0,1.3333333,408.14387,-279.67073)" />
  <use
     x="197.5"
     y="729.69531"
     xlink:href="#b"
     id="use3215"
     transform="matrix(1.3333333,0,0,1.3333333,408.14387,-279.67073)" />
  <use
     x="580.97656"
     y="729.69531"
     xlink:href="#b"
     id="use3225"
     transform="matrix(1.3333333,0,0,1.3333333,408.14387,-279.67073)" />
  <g
     id="path4587-5-1"
     transform="matrix(0,-2.9200686,2.9200686,0,12.171563,139.19324)"
     style="fill:#d8131c;fill-opacity:1">
    <path
       id="path1272-5"
       style="color:#000000;fill:#d8131c;fill-opacity:1;stroke-width:0.742738;-inkscape-stroke:none"
       d="M 25.543144,7.9550701 18.71462,15.320512 h 3.105754 v 4.857068 h 0.371037 6.736539 V 15.320512 H 31.75 L 26.231353,7.9550701 Z" />
  </g>
  <g
     id="path4587-5-2-9"
     transform="matrix(0,-2.9200686,2.9200686,0,12.15496,139.19324)"
     style="fill:#26ab62;fill-opacity:1">
    <path
       id="path1277-8"
       style="color:#000000;fill:#26ab62;fill-opacity:1;stroke-width:0.742738;-inkscape-stroke:none"
       d="m 14.714864,15.326196 v 4.857585 h -2.824117 l 6.208924,7.364925 h 0.688209 l 6.137731,-7.364925 h -3.105237 v -4.857585 h -0.371037 z" />
  </g>
  <g
     id="path4587-5"
     transform="matrix(0,-2.9200686,2.9200686,0,12.171563,137.18362)"
     style="fill:#ed333b;fill-opacity:1">
    <path
       id="path1272"
       style="color:#000000;fill:#ed333b;fill-opacity:1;stroke-width:0.742738;-inkscape-stroke:none"
       d="M 25.543144,7.9550701 18.71462,15.320512 h 3.105754 v 4.857068 h 0.371037 6.736539 V 15.320512 H 31.75 Z" />
  </g>
  <g
     id="path4587-5-2"
     transform="matrix(0,-2.9200686,2.9200686,0,12.15496,137.18362)"
     style="fill:#33d17a;fill-opacity:1">
    <path
       id="path1277"
       style="color:#000000;fill:#33d17a;fill-opacity:1;stroke-width:0.742738;-inkscape-stroke:none"
       d="m 14.714864,15.326196 v 4.857585 h -2.824117 l 6.208924,7.364925 6.82594,-7.364925 h -3.105237 v -4.857585 h -0.371037 z" />
  </g>
</svg>
