<?xml version="1.0" encoding="UTF-8" standalone="no"?>
<svg
   height="128px"
   viewBox="0 0 128 128"
   width="128px"
   version="1.1"
   id="svg35"
   xmlns="http://www.w3.org/2000/svg"
   xmlns:svg="http://www.w3.org/2000/svg">
  <defs
     id="defs39">
    <filter
       height="1.0214333"
       y="-0.010716652"
       width="1.0272651"
       x="-0.01363253"
       id="filter16020"
       style="color-interpolation-filters:sRGB">
      <feGaussianBlur
         id="feGaussianBlur16022"
         stdDeviation="2.0004419" />
    </filter>
  </defs>
  <linearGradient
     id="a"
     gradientUnits="userSpaceOnUse"
     x1="36"
     x2="60"
     y1="68"
     y2="68">
    <stop
       offset="0"
       stop-color="#ed336c"
       id="stop2" />
    <stop
       offset="1"
       stop-color="#ffa348"
       id="stop4" />
  </linearGradient>
  <linearGradient
     id="b"
     gradientTransform="matrix(0 1 -1 0 144 -32)"
     gradientUnits="userSpaceOnUse"
     x1="72"
     x2="96"
     y1="68"
     y2="68">
    <stop
       offset="0"
       stop-color="#404ce6"
       id="stop7" />
    <stop
       offset="1"
       stop-color="#c061cb"
       id="stop9" />
  </linearGradient>
  <linearGradient
     id="c"
     gradientUnits="userSpaceOnUse"
     x1="68.84919"
     x2="95.257637"
     y1="84"
     y2="84">
    <stop
       offset="0"
       stop-color="#33d1c6"
       id="stop12" />
    <stop
       offset="1"
       stop-color="#1c25d8"
       id="stop14" />
  </linearGradient>
  <path
     style="display:inline;fill:#649ad2;fill-opacity:1;stroke:none;stroke-width:0.125;stroke-linejoin:round;stroke-miterlimit:4;stroke-dasharray:none;stroke-opacity:1;enable-background:new"
     clip-path="none"
     d="m 27.978072,8.0000006 h 50.000002 l 30.042896,29.9178934 10e-4,74.060006 c 8e-5,4.432 -3.6122,8.0221 -8.044196,8.0221 H 27.978011 c -4.431999,0 -7.999999,-3.568 -7.999999,-8.00001 V 16 c 0,-4.431999 3.568,-7.9999994 7.999999,-7.9999994 z"
     id="path4411" />
  <path
     style="display:inline;vector-effect:none;fill:#00589c;fill-opacity:1;stroke:none;stroke-width:0.125;stroke-linecap:butt;stroke-linejoin:round;stroke-miterlimit:4;stroke-dasharray:none;stroke-dashoffset:0;stroke-opacity:1;enable-background:new"
     d="M 77.978074,8.0000006 V 30.000002 c 0,4.432 3.610527,7.923448 8.042527,7.923448 l 22.000369,-0.0055 z"
     id="path4413" />
  <g
     aria-label="C"
     id="text10257"
     style="font-size:99.6622px;font-family:FreeMono;-inkscape-font-specification:FreeMono;fill:#ffffff;stroke:#ffffff"
     transform="translate(-8.9993356e-6,-7.4e-4)">
    <g
       id="path10784" />
  </g>
  <path
     id="path11423"
     style="color:#000000;font-size:26.6667px;font-family:FreeMono;-inkscape-font-specification:FreeMono;fill:#ffffff;stroke:none;stroke-width:2;-inkscape-stroke:none"
     d="m 86.919916,68.494141 c -0.40096,0 -0.91731,0.191385 -1.20899,0.566406 -0.29168,0.375021 -0.35156,0.784667 -0.35156,1.154297 v 4.359375 h -3.79883 c -0.36963,0 -0.76937,0.05945 -1.14062,0.33789 -0.37126,0.278445 -0.58008,0.791211 -0.58008,1.195313 0,0.400952 0.19138,0.919254 0.5664,1.210937 0.37503,0.291683 0.78467,0.34961 1.1543,0.34961 h 3.79883 v 4.386718 c 0,0.36963 0.0599,0.779276 0.35156,1.154297 0.29168,0.375021 0.80803,0.566407 1.20899,0.566407 0.4041,0 0.91882,-0.20882 1.19726,-0.580079 0.27844,-0.371258 0.33594,-0.770995 0.33594,-1.140625 v -4.386718 h 3.80078 c 0.37614,0 0.78342,-0.05227 1.16602,-0.341797 0.38259,-0.289529 0.58008,-0.817798 0.58008,-1.21875 0,-0.404102 -0.21528,-0.926938 -0.59376,-1.203125 -0.37848,-0.276188 -0.7762,-0.330078 -1.15234,-0.330078 h -3.80078 v -4.359375 c 0,-0.36963 -0.0575,-0.769366 -0.33594,-1.140625 -0.27844,-0.371259 -0.79316,-0.580078 -1.19726,-0.580078 z m -16,0 c -0.40096,0 -0.9173,0.191385 -1.20899,0.566406 -0.29168,0.375021 -0.35156,0.784667 -0.35156,1.154297 v 4.359375 h -3.79883 c -0.36963,0 -0.76937,0.05945 -1.14062,0.33789 -0.37126,0.278445 -0.58008,0.791211 -0.58008,1.195313 0,0.400952 0.19138,0.919254 0.5664,1.210937 0.37503,0.291683 0.78467,0.34961 1.1543,0.34961 h 3.79883 v 4.386718 c 0,0.36963 0.0599,0.779276 0.35156,1.154297 0.29168,0.375021 0.80803,0.566407 1.20899,0.566407 0.4041,0 0.91882,-0.20882 1.19726,-0.580079 0.27844,-0.371258 0.33594,-0.770995 0.33594,-1.140625 v -4.386718 h 3.80078 c 0.37614,0 0.78342,-0.05227 1.16602,-0.341797 0.38259,-0.289529 0.58007,-0.817797 0.58007,-1.21875 0,-0.404103 -0.21527,-0.926938 -0.59375,-1.203125 -0.37848,-0.276187 -0.7762,-0.330078 -1.15234,-0.330078 h -3.80078 v -4.359375 c 0,-0.36963 -0.0575,-0.769366 -0.33594,-1.140625 -0.27844,-0.371259 -0.79316,-0.580078 -1.19726,-0.580078 z M 58.619126,44.001213 c -10.1312,0 -16.35284,5.061587 -19.95704,10.759766 -3.60419,5.698178 -4.6621,11.982741 -4.6621,14.755859 v 8.271484 c 0,13.758074 12.45699,26.212888 26.31249,26.212888 6.4624,0 11.84525,-2.59122 15.61133,-5.431638 1.88305,-1.420205 3.3638,-2.902477 4.38477,-4.171874 0.51048,-0.634699 0.90591,-1.216563 1.18164,-1.720704 0.27573,-0.504139 0.45117,-0.907746 0.45117,-1.333984 0,-1.338706 -1.07597,-2.392578 -2.49414,-2.392578 -0.39643,0 -0.77868,0.06554 -1.13477,0.259766 -0.35608,0.194226 -0.66885,0.487623 -1.03515,0.90625 l -0.002,0.0039 -0.004,0.0039 c -5.32473,6.31079 -10.20791,8.791016 -16.95898,8.791016 -11.46916,0 -21.22657,-10.042946 -21.22657,-21.72461 v -7.076172 c 0,-11.607677 8.76201,-21.027343 19.53321,-21.027343 4.3357,0 8.45936,1.297117 11.52148,3.318359 3.06212,2.021242 5.035,4.744223 5.2207,7.576172 0.0543,0.863619 0.26904,1.571829 0.70117,2.083984 0.4325,0.512587 1.08194,0.775391 1.79102,0.775391 0.80478,0 1.51685,-0.289244 1.96484,-0.865235 0.448,-0.575989 0.62696,-1.364398 0.62696,-2.326171 v -11.16211 c 0,-0.961773 -0.1788,-1.744251 -0.60938,-2.318359 -0.43058,-0.574109 -1.11962,-0.871094 -1.88281,-0.871094 -0.80478,0 -1.51685,0.289245 -1.96484,0.865234 -0.448,0.575991 -0.62891,1.362446 -0.62891,2.324219 v 1.859375 c -4.64712,-4.093966 -10.41217,-6.345691 -16.74009,-6.345691 z" />
</svg>
