<?xml version="1.0" encoding="UTF-8" standalone="no"?>
<svg
   height="128px"
   viewBox="0 0 128 128"
   width="128px"
   version="1.1"
   id="svg35"
   xmlns:xlink="http://www.w3.org/1999/xlink"
   xmlns="http://www.w3.org/2000/svg"
   xmlns:svg="http://www.w3.org/2000/svg">
  <defs
     id="defs39">
    <clipPath
       clipPathUnits="userSpaceOnUse"
       id="clipPath86012">
      <path
         style="color:#000000;fill:url(#linearGradient86016);stroke-width:12;stroke-linecap:round;stroke-dashoffset:26.4;-inkscape-stroke:none"
         d="m 6.6666667,228.66667 a 8,8 0 0 0 8.0000003,8 H 29.333333 A 2.6666667,2.6666667 0 0 0 32,234 1.3333333,1.3333333 0 0 1 33.333333,232.66667 H 38 A 1.3333333,1.3333333 0 0 1 39.333333,234 2.6666667,2.6666667 0 0 0 42,236.66667 h 1.333333 v -16 H 42 A 2.6666667,2.6666667 0 0 0 39.333333,223.33333 1.3333333,1.3333333 0 0 1 38,224.66667 H 33.333333 A 1.3333333,1.3333333 0 0 1 32,223.33333 2.6666667,2.6666667 0 0 0 29.333333,220.66667 H 14.666667 a 8,8 0 0 0 -8.0000003,8 z"
         id="path86014" />
    </clipPath>
    <linearGradient
       xlink:href="#linearGradient51600"
       id="linearGradient71668"
       gradientUnits="userSpaceOnUse"
       gradientTransform="matrix(1.5,0,0,1.5555555,-66,110.88919)"
       x1="81"
       y1="47"
       x2="81"
       y2="65" />
    <linearGradient
       id="linearGradient51600">
      <stop
         style="stop-color:#c0bfbc;stop-opacity:1;"
         offset="0"
         id="stop51596" />
      <stop
         style="stop-color:#deddda;stop-opacity:1"
         offset="0.5"
         id="stop51756" />
      <stop
         style="stop-color:#9a9996;stop-opacity:1"
         offset="1"
         id="stop51598" />
    </linearGradient>
    <linearGradient
       xlink:href="#linearGradient51600"
       id="linearGradient152898"
       gradientUnits="userSpaceOnUse"
       gradientTransform="matrix(0.83333393,0,0,0.82142859,5.333274,26.571441)"
       x1="92"
       y1="244"
       x2="104"
       y2="244" />
    <linearGradient
       xlink:href="#linearGradient307870"
       id="linearGradient71670"
       gradientUnits="userSpaceOnUse"
       gradientTransform="matrix(1.5,0,0,0.92857134,-60,21.428621)"
       x1="92"
       y1="244"
       x2="104"
       y2="244" />
    <linearGradient
       id="linearGradient307870">
      <stop
         style="stop-color:#ff7800;stop-opacity:1"
         offset="0"
         id="stop307862" />
      <stop
         style="stop-color:#ffa348;stop-opacity:1"
         offset="0.25"
         id="stop307864" />
      <stop
         style="stop-color:#ff7800;stop-opacity:1"
         offset="0.75"
         id="stop307866" />
      <stop
         style="stop-color:#c64600;stop-opacity:1"
         offset="1"
         id="stop307868" />
    </linearGradient>
  </defs>
  <linearGradient
     id="a"
     gradientUnits="userSpaceOnUse"
     x1="36"
     x2="60"
     y1="68"
     y2="68">
    <stop
       offset="0"
       stop-color="#ed336c"
       id="stop2" />
    <stop
       offset="1"
       stop-color="#ffa348"
       id="stop4" />
  </linearGradient>
  <linearGradient
     id="b"
     gradientTransform="matrix(0 1 -1 0 144 -32)"
     gradientUnits="userSpaceOnUse"
     x1="72"
     x2="96"
     y1="68"
     y2="68">
    <stop
       offset="0"
       stop-color="#404ce6"
       id="stop7" />
    <stop
       offset="1"
       stop-color="#c061cb"
       id="stop9" />
  </linearGradient>
  <linearGradient
     id="c"
     gradientUnits="userSpaceOnUse"
     x1="68.84919"
     x2="95.257637"
     y1="84"
     y2="84">
    <stop
       offset="0"
       stop-color="#33d1c6"
       id="stop12" />
    <stop
       offset="1"
       stop-color="#1c25d8"
       id="stop14" />
  </linearGradient>
  <path
     style="display:inline;fill:#666666;fill-opacity:1;stroke:none;stroke-width:0.125;stroke-linejoin:round;stroke-miterlimit:4;stroke-dasharray:none;stroke-opacity:1;enable-background:new"
     clip-path="none"
     d="m 27.978072,8.0000006 h 50.000002 l 30.042896,29.9178934 10e-4,74.060006 c 8e-5,4.432 -3.6122,8.0221 -8.044196,8.0221 H 27.978011 c -4.431999,0 -7.999999,-3.568 -7.999999,-8.00001 V 16 c 0,-4.431999 3.568,-7.9999994 7.999999,-7.9999994 z"
     id="path4411" />
  <path
     style="display:inline;vector-effect:none;fill:#000000;fill-opacity:0.2;stroke:none;stroke-width:0.125;stroke-linecap:butt;stroke-linejoin:round;stroke-miterlimit:4;stroke-dasharray:none;stroke-dashoffset:0;stroke-opacity:1;enable-background:new"
     d="M 77.978074,8.0000006 V 30.000002 c 0,4.432 3.610527,7.923448 8.042527,7.923448 l 22.000369,-0.0055 z"
     id="path4413" />
  <g
     id="g176649"
     transform="matrix(-0.44419652,-0.44419652,-0.44419652,0.44419652,197.41821,18.772078)"
     style="display:inline;enable-background:new">
    <path
       style="fill:#9a9996;fill-opacity:1;stroke:none;stroke-width:1.5px;stroke-linecap:butt;stroke-linejoin:miter;stroke-opacity:1"
       d="m 123.5,205.00031 v -4 l -2.28498,-0.77436 0.0882,4.08569 z"
       id="path71608" />
    <rect
       style="fill:#9a9996;fill-opacity:1;stroke:none;stroke-width:13.8567;stroke-linecap:round;stroke-dashoffset:26.4;stroke-opacity:1"
       id="rect71610"
       width="18"
       height="16.000624"
       x="63"
       y="190" />
    <rect
       style="fill:url(#linearGradient71668);fill-opacity:1;stroke:none;stroke-width:16.9706;stroke-linecap:round;stroke-dashoffset:26.4;stroke-opacity:1"
       id="rect71612"
       width="18"
       height="28"
       x="48"
       y="184.00032"
       rx="3"
       ry="3.1111112" />
    <rect
       style="fill:#9a9996;fill-opacity:1;stroke:none;stroke-width:17.8885;stroke-linecap:round;stroke-dashoffset:26.4;stroke-opacity:1"
       id="rect71614"
       width="30"
       height="23.999992"
       x="72"
       y="186.00031"
       rx="3"
       ry="3" />
    <path
       style="fill:#9a9996;fill-opacity:1;stroke:none;stroke-width:1.5px;stroke-linecap:butt;stroke-linejoin:miter;stroke-opacity:1"
       d="m 97.5,200.00079 c 10.5,0 18.5,-7.9e-4 23,6.49952 l 3,-1.5 c -2.5,-10.00031 -10.5,-15 -21.5,-15 h -7.5 z"
       id="path212891" />
    <path
       style="fill:#c0bfbc;fill-opacity:1;stroke:none;stroke-width:1.5px;stroke-linecap:butt;stroke-linejoin:miter;stroke-opacity:1"
       d="m 97.5,196.00079 c 10.5546,0 18.5,-7.9e-4 23,6.49952 l 3,-1.5 c -2.5,-10.00031 -14.5,-15 -25.5,-15 h -3.5 z"
       id="path71618" />
    <rect
       style="fill:#c0bfbc;fill-opacity:1;stroke:none;stroke-width:17.6154;stroke-linecap:round;stroke-dashoffset:26.4;stroke-opacity:1"
       id="rect71620"
       width="30"
       height="16"
       x="72"
       y="186.00031"
       rx="3"
       ry="2.909091" />
    <rect
       style="display:inline;fill:url(#linearGradient152898);fill-opacity:1;stroke-width:188.674;stroke-linecap:square;stroke-dashoffset:26.4;enable-background:new"
       id="rect152896"
       width="10.000007"
       height="46"
       x="82"
       y="203.99998"
       rx="5.0000033"
       ry="5.0000033" />
    <rect
       style="display:inline;fill:url(#linearGradient71670);fill-opacity:1;stroke-width:188.674;stroke-linecap:square;stroke-dashoffset:26.4;enable-background:new"
       id="rect71622"
       width="18"
       height="52"
       x="78"
       y="222"
       rx="6"
       ry="5.9999995" />
    <rect
       style="display:inline;fill:#c64600;fill-opacity:1;stroke-width:224.998;stroke-linecap:square;stroke-dashoffset:26.4;enable-background:new"
       id="rect71624"
       width="18"
       height="10.499531"
       x="78"
       y="263.50046"
       rx="5.2497654"
       ry="5.2497654" />
    <g
       id="g310124"
       style="fill:#8f3200;fill-opacity:1"
       transform="translate(0,4)">
      <rect
         style="opacity:0.4;fill:#8f3200;fill-opacity:1;stroke-width:12;stroke-linecap:round;stroke-dashoffset:26.4"
         id="rect155369"
         width="8"
         height="2"
         x="83"
         y="246"
         rx="1"
         ry="1" />
      <rect
         style="opacity:0.4;fill:#8f3200;fill-opacity:1;stroke-width:12;stroke-linecap:round;stroke-dashoffset:26.4"
         id="rect155505"
         width="8"
         height="2.0000124"
         x="83"
         y="250"
         rx="1.0000062"
         ry="1.0000062" />
      <rect
         style="opacity:0.4;fill:#8f3200;fill-opacity:1;stroke-width:12;stroke-linecap:round;stroke-dashoffset:26.4"
         id="rect155507"
         width="8"
         height="2.0000086"
         x="83"
         y="254"
         rx="1.0000043"
         ry="1.0000043" />
    </g>
  </g>
</svg>
