<?xml version="1.0" encoding="UTF-8" standalone="no"?>
<svg
   height="128px"
   viewBox="0 0 128 128"
   width="128px"
   version="1.1"
   id="svg35"
   xmlns="http://www.w3.org/2000/svg"
   xmlns:svg="http://www.w3.org/2000/svg">
  <defs
     id="defs39" />
  <linearGradient
     id="a"
     gradientUnits="userSpaceOnUse"
     x1="36"
     x2="60"
     y1="68"
     y2="68">
    <stop
       offset="0"
       stop-color="#ed336c"
       id="stop2" />
    <stop
       offset="1"
       stop-color="#ffa348"
       id="stop4" />
  </linearGradient>
  <linearGradient
     id="b"
     gradientTransform="matrix(0 1 -1 0 144 -32)"
     gradientUnits="userSpaceOnUse"
     x1="72"
     x2="96"
     y1="68"
     y2="68">
    <stop
       offset="0"
       stop-color="#404ce6"
       id="stop7" />
    <stop
       offset="1"
       stop-color="#c061cb"
       id="stop9" />
  </linearGradient>
  <linearGradient
     id="c"
     gradientUnits="userSpaceOnUse"
     x1="68.84919"
     x2="95.257637"
     y1="84"
     y2="84">
    <stop
       offset="0"
       stop-color="#33d1c6"
       id="stop12" />
    <stop
       offset="1"
       stop-color="#1c25d8"
       id="stop14" />
  </linearGradient>
  <path
     style="display:inline;fill:#666666;fill-opacity:1;stroke:none;stroke-width:0.125;stroke-linejoin:round;stroke-miterlimit:4;stroke-dasharray:none;stroke-opacity:1;enable-background:new"
     clip-path="none"
     d="m 27.978072,8.0000006 h 50.000002 l 30.042896,29.9178934 10e-4,74.060006 c 8e-5,4.432 -3.6122,8.0221 -8.044196,8.0221 H 27.978011 c -4.431999,0 -7.999999,-3.568 -7.999999,-8.00001 V 16 c 0,-4.431999 3.568,-7.9999994 7.999999,-7.9999994 z"
     id="path4411" />
  <path
     style="display:inline;vector-effect:none;fill:#000000;fill-opacity:0.2;stroke:none;stroke-width:0.125;stroke-linecap:butt;stroke-linejoin:round;stroke-miterlimit:4;stroke-dasharray:none;stroke-dashoffset:0;stroke-opacity:1;enable-background:new"
     d="M 77.978074,8.0000006 V 30.000002 c 0,4.432 3.610527,7.923448 8.042527,7.923448 l 22.000369,-0.0055 z"
     id="path4413" />
  <path
     id="path3908"
     d="m 86.111136,44.47159 -5.78181,5.39345 c -1.69409,1.57879 -1.99038,4.31251 -1.00395,6.40475 l -22.09408,22.49708 a 5.5967029,5.5813367 0 0 0 -0.10994,0 5.5967029,5.5813367 0 0 0 -3.1584,-0.55687 5.5967029,5.5813367 0 0 0 -3.24631,1.64877 l -14.81002,15.00054 a 5.6058734,5.5904825 0 1 0 7.9876,7.841 l 14.80998,-14.99319 a 5.5967029,5.5813367 0 0 0 1.11388,-6.52196 l 22.09408,-22.3799 c 2.09292,0.93191 4.77805,0.55592 6.40471,-1.09183 l 5.31286,-5.85516 z m -38.67746,0.33693 c -1.49827,0 -2.94781,0.3478 -4.28692,0.81342 l 7.07159,7.04961 c 1.45329,1.4493 1.45329,3.75357 0,5.20292 l -2.66742,2.66007 c -1.45332,1.44927 -3.76427,1.44927 -5.21759,0 l -7.07156,-7.04961 c -0.46689,1.3354 -0.81342,2.78546 -0.81342,4.27964 0,7.15151 5.81408,12.94863 12.98532,12.94863 1.49827,0 2.94781,-0.3478 4.28692,-0.81342 l 4.41148,4.39685 a 9.2756954,9.2502455 0 0 1 0.227,0 l 7.76777,-7.74574 -4.52142,-4.51407 c 0.46689,-1.3354 0.81342,-2.77806 0.81342,-4.27225 0,-7.15162 -5.81408,-12.95605 -12.98532,-12.95605 z m 24.5783,29.59804 -7.76774,7.7531 a 9.2756954,9.2502455 0 0 1 0.11706,0.34443 l 4.28689,4.2796 c -0.46686,1.33559 -0.81339,2.7781 -0.81339,4.27229 0,7.1515 5.81409,12.94863 12.98532,12.94863 1.62634,0 3.20395,-0.37888 4.63863,-0.92333 L 77.925516,95.57 c -1.45328,-1.44931 -1.45328,-3.87075 0,-5.32017 l 2.55017,-2.54282 c 0.72665,-0.72469 1.71908,-1.15782 2.66742,-1.15782 0.94832,0 1.94074,0.43313 2.66739,1.15782 l 7.29878,7.28406 c 0.39338,-1.23657 0.69613,-2.56867 0.69613,-3.93509 0,-7.15162 -5.81409,-12.94874 -12.98529,-12.94874 -1.49831,0 -2.94784,0.3478 -4.28691,0.81342 z"
     style="fill:#ffffff;fill-opacity:1;stroke-width:3.7462" />
</svg>
