<?xml version="1.0" encoding="UTF-8" standalone="no"?>
<svg
   height="128px"
   viewBox="0 0 128 128"
   width="128px"
   version="1.1"
   id="svg35"
   xmlns="http://www.w3.org/2000/svg"
   xmlns:svg="http://www.w3.org/2000/svg">
  <defs
     id="defs39">
    <filter
       height="1.0214333"
       y="-0.010716652"
       width="1.0272651"
       x="-0.01363253"
       id="filter16020"
       style="color-interpolation-filters:sRGB">
      <feGaussianBlur
         id="feGaussianBlur16022"
         stdDeviation="2.0004419" />
    </filter>
  </defs>
  <linearGradient
     id="a"
     gradientUnits="userSpaceOnUse"
     x1="36"
     x2="60"
     y1="68"
     y2="68">
    <stop
       offset="0"
       stop-color="#ed336c"
       id="stop2" />
    <stop
       offset="1"
       stop-color="#ffa348"
       id="stop4" />
  </linearGradient>
  <linearGradient
     id="b"
     gradientTransform="matrix(0 1 -1 0 144 -32)"
     gradientUnits="userSpaceOnUse"
     x1="72"
     x2="96"
     y1="68"
     y2="68">
    <stop
       offset="0"
       stop-color="#404ce6"
       id="stop7" />
    <stop
       offset="1"
       stop-color="#c061cb"
       id="stop9" />
  </linearGradient>
  <linearGradient
     id="c"
     gradientUnits="userSpaceOnUse"
     x1="68.84919"
     x2="95.257637"
     y1="84"
     y2="84">
    <stop
       offset="0"
       stop-color="#33d1c6"
       id="stop12" />
    <stop
       offset="1"
       stop-color="#1c25d8"
       id="stop14" />
  </linearGradient>
  <path
     style="display:inline;fill:#fdc00a;fill-opacity:1;stroke:none;stroke-width:0.125;stroke-linejoin:round;stroke-miterlimit:4;stroke-dasharray:none;stroke-opacity:1;enable-background:new"
     clip-path="none"
     d="m 27.978085,7.9999995 h 50.000002 l 30.042893,29.9178935 0.001,74.060007 c 8e-5,4.432 -3.6122,8.0221 -8.044205,8.0221 H 27.978023 c -4.431999,0 -7.999998,-3.568 -7.999998,-8.00001 V 15.999998 c 0,-4.431999 3.567999,-7.9999984 7.999998,-7.9999984 z"
     id="path4411" />
  <path
     style="display:inline;vector-effect:none;fill:#000000;fill-opacity:0.199089;stroke:none;stroke-width:0.125;stroke-linecap:butt;stroke-linejoin:round;stroke-miterlimit:4;stroke-dasharray:none;stroke-dashoffset:0;stroke-opacity:1;enable-background:new"
     d="M 77.978087,7.9999995 V 30 c 0,4.432001 3.610528,7.923449 8.042528,7.923449 l 22.000365,-0.0055 z"
     id="path4413" />
  <g
     id="g1413"
     transform="matrix(0.93356154,0,0,0.93356154,4.3442289,3.9438908)">
    <path
       d="m 52.236138,99.83549 q -5.246512,0 -7.813953,-1.562791 -2.511628,-1.56279 -2.511628,-5.860465 0,-2.065116 0.111628,-3.795349 0.111627,-1.730232 0.223255,-3.404651 0.167442,-1.730232 0.167442,-3.572093 0,-1.116279 -0.669767,-2.065116 -0.613954,-1.004651 -2.4,-1.618605 -1.730233,-0.669767 -5.023256,-0.669767 v -2.902326 q 3.293023,0 5.023256,-0.613953 1.786046,-0.669768 2.4,-1.674419 0.669767,-1.004651 0.669767,-2.065116 0,-1.730233 -0.167442,-3.460465 -0.111628,-1.786047 -0.223255,-3.572093 -0.111628,-1.786047 -0.111628,-3.739535 0,-4.297675 2.511628,-5.860465 2.567441,-1.562791 7.813953,-1.562791 h 3.404651 v 2.623256 h -2.902325 q -2.846512,0 -4.353489,0.558139 -1.451163,0.502326 -2.009302,1.618605 -0.55814,1.060465 -0.55814,2.902326 0,2.4 0.167442,4.967441 0.167442,2.511628 0.167442,5.134884 0,2.67907 -1.116279,4.130233 -1.060465,1.451163 -3.962791,1.953488 v 0.223256 q 2.902326,0.502325 3.962791,1.953488 1.116279,1.451163 1.116279,4.130233 0,2.790698 -0.167442,5.190698 -0.167442,2.344186 -0.167442,4.911627 0,1.786047 0.55814,2.902326 0.558139,1.116279 2.009302,1.618605 1.506977,0.558139 4.353489,0.558139 h 2.902325 v 2.623256 z"
       style="font-size:56px;line-height:1.25;font-family:'Source Code Pro';-inkscape-font-specification:'Source Code Pro';letter-spacing:-14px;fill:#ffffff;stroke-width:0.996678"
       id="path7300" />
    <path
       d="m 64.124414,72.070347 q -1.840748,0 -3.179473,-1.282945 -1.338725,-1.338725 -1.338725,-3.402593 0,-2.119649 1.338725,-3.402594 1.338724,-1.338725 3.179473,-1.338725 1.896527,0 3.179472,1.338725 1.338725,1.282945 1.338725,3.402594 0,2.063868 -1.338725,3.402593 -1.282945,1.282945 -3.179472,1.282945 z m -4.462418,31.181143 -1.282945,-2.90057 q 3.569934,-1.561848 5.299121,-3.960397 1.729186,-2.342769 1.729186,-5.801143 l -1.059824,-5.13178 3.123692,4.406637 q -0.669363,0.780923 -1.506066,1.059824 -0.780923,0.223121 -1.617626,0.223121 -1.171385,0 -2.175429,-0.446241 -1.004044,-0.502022 -1.617626,-1.394506 -0.557803,-0.948264 -0.557803,-2.342769 0,-2.063868 1.338726,-3.123692 1.338725,-1.115605 3.123692,-1.115605 2.45433,0 3.737275,1.952308 1.282945,1.896527 1.282945,5.18756 0,4.90866 -2.621671,8.255473 -2.62167,3.40259 -7.195647,5.13178 z"
       style="font-size:56px;line-height:1.25;font-family:'Source Code Pro';-inkscape-font-specification:'Source Code Pro';letter-spacing:-14px;fill:#ffffff;stroke-width:0.996075"
       id="path7302" />
    <path
       d="m 72.217576,99.83549 v -2.623256 h 2.846512 q 2.902325,0 4.353488,-0.558139 1.506977,-0.502326 2.065117,-1.618605 0.558139,-1.116279 0.558139,-2.902326 0,-2.567441 -0.167442,-4.911627 -0.167442,-2.4 -0.167442,-5.190698 0,-2.67907 1.060465,-4.130233 1.060466,-1.451163 3.962791,-1.953488 v -0.223256 q -2.902325,-0.502325 -3.962791,-1.953488 -1.060465,-1.451163 -1.060465,-4.130233 0,-2.623256 0.167442,-5.134884 0.167442,-2.567441 0.167442,-4.967441 0,-1.841861 -0.558139,-2.902326 -0.55814,-1.116279 -2.065117,-1.618605 -1.451163,-0.558139 -4.353488,-0.558139 H 72.217576 V 51.83549 h 3.404651 q 5.246512,0 7.75814,1.562791 2.511628,1.56279 2.511628,5.860465 0,1.953488 -0.111628,3.739535 -0.111628,1.786046 -0.27907,3.572093 -0.111628,1.730232 -0.111628,3.460465 0,1.060465 0.613954,2.065116 0.669767,1.004651 2.4,1.674419 1.786046,0.613953 5.07907,0.613953 v 2.902326 q -3.293024,0 -5.07907,0.669767 -1.730233,0.613954 -2.4,1.618605 -0.613954,0.948837 -0.613954,2.065116 0,1.841861 0.111628,3.572093 0.167442,1.674419 0.27907,3.404651 0.111628,1.730233 0.111628,3.795349 0,4.297675 -2.511628,5.860465 -2.511628,1.562791 -7.75814,1.562791 z"
       style="font-size:56px;line-height:1.25;font-family:'Source Code Pro';-inkscape-font-specification:'Source Code Pro';letter-spacing:-14px;fill:#ffffff;stroke-width:0.996678"
       id="path7304" />
  </g>
</svg>
