<?xml version="1.0" encoding="UTF-8" standalone="no"?>
<svg
   height="128px"
   viewBox="0 0 128 128"
   width="128px"
   version="1.1"
   id="svg35"
   xmlns="http://www.w3.org/2000/svg"
   xmlns:svg="http://www.w3.org/2000/svg">
  <defs
     id="defs39">
    <filter
       height="1.0214333"
       y="-0.010716652"
       width="1.0272651"
       x="-0.01363253"
       id="filter16020"
       style="color-interpolation-filters:sRGB">
      <feGaussianBlur
         id="feGaussianBlur16022"
         stdDeviation="2.0004419" />
    </filter>
  </defs>
  <linearGradient
     id="a"
     gradientUnits="userSpaceOnUse"
     x1="36"
     x2="60"
     y1="68"
     y2="68">
    <stop
       offset="0"
       stop-color="#ed336c"
       id="stop2" />
    <stop
       offset="1"
       stop-color="#ffa348"
       id="stop4" />
  </linearGradient>
  <linearGradient
     id="b"
     gradientTransform="matrix(0 1 -1 0 144 -32)"
     gradientUnits="userSpaceOnUse"
     x1="72"
     x2="96"
     y1="68"
     y2="68">
    <stop
       offset="0"
       stop-color="#404ce6"
       id="stop7" />
    <stop
       offset="1"
       stop-color="#c061cb"
       id="stop9" />
  </linearGradient>
  <linearGradient
     id="c"
     gradientUnits="userSpaceOnUse"
     x1="68.84919"
     x2="95.257637"
     y1="84"
     y2="84">
    <stop
       offset="0"
       stop-color="#33d1c6"
       id="stop12" />
    <stop
       offset="1"
       stop-color="#1c25d8"
       id="stop14" />
  </linearGradient>
  <path
     style="display:inline;fill:#abbbce;fill-opacity:1;stroke:none;stroke-width:0.125;stroke-linejoin:round;stroke-miterlimit:4;stroke-dasharray:none;stroke-opacity:1;enable-background:new"
     clip-path="none"
     d="m 27.978081,8.0000006 h 50.000002 l 30.042897,29.9178934 0.001,74.060006 c 8e-5,4.432 -3.6122,8.0221 -8.044197,8.0221 H 27.97802 c -4.431999,0 -7.999999,-3.568 -7.999999,-8.00001 V 16 c 0,-4.431999 3.568,-7.9999994 7.999999,-7.9999994 z"
     id="path4411" />
  <path
     style="display:inline;vector-effect:none;fill:#000000;fill-opacity:0.2;stroke:none;stroke-width:0.125;stroke-linecap:butt;stroke-linejoin:round;stroke-miterlimit:4;stroke-dasharray:none;stroke-dashoffset:0;stroke-opacity:1;enable-background:new"
     d="M 77.978074,8.0000006 V 30.000002 c 0,4.432 3.610527,7.923448 8.042527,7.923448 l 22.000369,-0.0055 z"
     id="path4413" />
  <g
     aria-label="C"
     id="text10257"
     style="font-size:99.6622px;font-family:FreeMono;-inkscape-font-specification:FreeMono;fill:#ffffff;stroke:#ffffff">
    <g
       id="path10784">
      <path
         id="path10789"
         style="color:#000000;-inkscape-font-specification:FreeMono;stroke:none;-inkscape-stroke:none"
         d="M 64.648438 44.001953 C 54.517239 44.001953 48.2956 49.06354 44.691406 54.761719 C 41.087213 60.459897 40.029297 66.74446 40.029297 69.517578 L 40.029297 77.789062 C 40.029297 91.547136 52.486295 104.00195 66.341797 104.00195 C 72.804192 104.00195 78.187042 101.41073 81.953125 98.570312 C 83.836167 97.150107 85.316923 95.667835 86.337891 94.398438 C 86.848374 93.763739 87.243804 93.181875 87.519531 92.677734 C 87.795259 92.173595 87.970703 91.769988 87.970703 91.34375 C 87.970703 90.005044 86.894728 88.951172 85.476562 88.951172 C 85.080127 88.951172 84.697879 89.016713 84.341797 89.210938 C 83.985715 89.405164 83.672939 89.698561 83.306641 90.117188 L 83.304688 90.121094 L 83.300781 90.125 C 77.976053 96.43579 73.092871 98.916016 66.341797 98.916016 C 54.87264 98.916016 45.115234 88.87307 45.115234 77.191406 L 45.115234 70.115234 C 45.115234 58.507557 53.877246 49.087891 64.648438 49.087891 C 68.984146 49.087891 73.107801 50.385008 76.169922 52.40625 C 79.232043 54.427492 81.204924 57.150473 81.390625 59.982422 C 81.444885 60.846041 81.659665 61.554251 82.091797 62.066406 C 82.524292 62.578993 83.17373 62.841797 83.882812 62.841797 C 84.68759 62.841797 85.399665 62.552553 85.847656 61.976562 C 86.295649 61.400573 86.474609 60.612164 86.474609 59.650391 L 86.474609 48.488281 C 86.474609 47.526508 86.295816 46.74403 85.865234 46.169922 C 85.434654 45.595813 84.745609 45.298828 83.982422 45.298828 C 83.177645 45.298828 82.465571 45.588073 82.017578 46.164062 C 81.569587 46.740053 81.388672 47.526508 81.388672 48.488281 L 81.388672 50.347656 C 76.741412 46.253678 70.976358 44.001953 64.648438 44.001953 z " />
    </g>
  </g>
</svg>
