<?xml version="1.0" encoding="UTF-8" standalone="no"?>
<svg
   height="128px"
   viewBox="0 0 128 128"
   width="128px"
   version="1.1"
   id="svg35"
   xmlns="http://www.w3.org/2000/svg"
   xmlns:svg="http://www.w3.org/2000/svg">
  <defs
     id="defs39">
    <filter
       height="1.0214333"
       y="-0.010716652"
       width="1.0272651"
       x="-0.01363253"
       id="filter16020"
       style="color-interpolation-filters:sRGB">
      <feGaussianBlur
         id="feGaussianBlur16022"
         stdDeviation="2.0004419" />
    </filter>
  </defs>
  <linearGradient
     id="a"
     gradientUnits="userSpaceOnUse"
     x1="36"
     x2="60"
     y1="68"
     y2="68">
    <stop
       offset="0"
       stop-color="#ed336c"
       id="stop2" />
    <stop
       offset="1"
       stop-color="#ffa348"
       id="stop4" />
  </linearGradient>
  <linearGradient
     id="b"
     gradientTransform="matrix(0 1 -1 0 144 -32)"
     gradientUnits="userSpaceOnUse"
     x1="72"
     x2="96"
     y1="68"
     y2="68">
    <stop
       offset="0"
       stop-color="#404ce6"
       id="stop7" />
    <stop
       offset="1"
       stop-color="#c061cb"
       id="stop9" />
  </linearGradient>
  <linearGradient
     id="c"
     gradientUnits="userSpaceOnUse"
     x1="68.84919"
     x2="95.257637"
     y1="84"
     y2="84">
    <stop
       offset="0"
       stop-color="#33d1c6"
       id="stop12" />
    <stop
       offset="1"
       stop-color="#1c25d8"
       id="stop14" />
  </linearGradient>
  <path
     style="display:inline;fill:#189f20;fill-opacity:1;stroke:none;stroke-width:0.125;stroke-linejoin:round;stroke-miterlimit:4;stroke-dasharray:none;stroke-opacity:1;enable-background:new"
     clip-path="none"
     d="m 27.978072,8.0000006 h 50.000002 l 30.042896,29.9178934 10e-4,74.060006 c 8e-5,4.432 -3.6122,8.0221 -8.044196,8.0221 H 27.978011 c -4.431999,0 -7.999999,-3.568 -7.999999,-8.00001 V 16 c 0,-4.431999 3.568,-7.9999994 7.999999,-7.9999994 z"
     id="path4411" />
  <path
     style="display:inline;vector-effect:none;fill:#000000;fill-opacity:0.2;stroke:none;stroke-width:0.125;stroke-linecap:butt;stroke-linejoin:round;stroke-miterlimit:4;stroke-dasharray:none;stroke-dashoffset:0;stroke-opacity:1;enable-background:new"
     d="M 77.978074,8.0000006 V 30.000002 c 0,4.432 3.610527,7.923448 8.042527,7.923448 l 22.000369,-0.0055 z"
     id="path4413" />
  <g
     aria-label="C"
     id="text10257"
     style="font-size:99.6622px;font-family:FreeMono;-inkscape-font-specification:FreeMono;fill:#ffffff;stroke:#ffffff"
     transform="translate(105.83596,0.78282541)">
    <g
       id="path10784" />
  </g>
  <g
     aria-label="++"
     id="text11029-0"
     style="font-size:26.6667px;font-family:FreeMono;-inkscape-font-specification:FreeMono;fill:#ffffff;stroke:#ffffff;stroke-width:2"
     transform="matrix(0.9999758,0,0,1,146.66459,-92.478902)">
    <g
       id="path11398-6" />
    <g
       id="path11400-6" />
  </g>
  <path
     id="path12555"
     style="color:#000000;-inkscape-font-specification:FreeMono;fill:#ffffff;stroke:none;stroke-width:0.999988;-inkscape-stroke:none"
     d="m 81.617532,65.244254 c -0.37688,0.02014 -0.82175,0.196259 -1.08592,0.509765 -0.30191,0.358292 -0.3839,0.749777 -0.41014,1.125 l -0.28906,4.15625 h -2.46087 c -0.36962,0 -0.76935,0.05945 -1.1406,0.337891 -0.37125,0.278445 -0.58007,0.791211 -0.58007,1.195312 0,0.400952 0.19139,0.919255 0.5664,1.210938 0.37501,0.291683 0.78465,0.349609 1.15427,0.349609 h 2.24409 l -0.21485,3.09375 h -3.37296 c -0.36962,0 -0.76935,0.05945 -1.1406,0.337891 -0.37125,0.278445 -0.58007,0.791211 -0.58007,1.195312 0,0.400952 0.19139,0.919255 0.5664,1.210938 0.37501,0.291683 0.78465,0.349609 1.15427,0.349609 h 3.15422 l -0.0117,0.175782 -0.26562,3.789061 c -0.0258,0.36873 0.006,0.77233 0.25781,1.162109 0.25186,0.38978 0.74921,0.63392 1.15232,0.66211 0.39995,0.028 0.93088,-0.126709 1.24801,-0.480469 0.31711,-0.35376 0.40389,-0.758223 0.42968,-1.126953 l 0.26366,-3.791015 0.0273,-0.390625 h 0.6367 2.45502 l -0.0117,0.175782 -0.26367,3.789061 c -0.0258,0.36873 0.004,0.77233 0.25586,1.162109 0.25186,0.38978 0.74921,0.63392 1.15232,0.66211 0.39995,0.028 0.93088,-0.126709 1.24801,-0.480469 0.31712,-0.35376 0.40389,-0.758223 0.42968,-1.126953 l 0.26366,-3.791015 0.0273,-0.390625 h 2.433539 c 0.37613,0 0.7834,-0.05227 1.16598,-0.341797 0.38259,-0.289528 0.58007,-0.817798 0.58007,-1.21875 0,-0.404101 -0.21526,-0.926938 -0.59374,-1.203125 -0.37847,-0.276187 -0.77617,-0.330078 -1.15231,-0.330078 h -2.216739 l 0.21679,-3.09375 h 3.343669 c 0.37613,0 0.7834,-0.05227 1.16598,-0.341797 0.38258,-0.289528 0.58007,-0.817798 0.58007,-1.21875 0,-0.404101 -0.21527,-0.926938 -0.59374,-1.203125 -0.37847,-0.276187 -0.77617,-0.330078 -1.15231,-0.330078 h -3.126869 l 0.27538,-3.939453 c 0.0262,-0.375223 0.002,-0.785647 -0.25976,-1.1875 -0.26214,-0.401853 -0.7758,-0.636093 -1.17576,-0.664062 -0.40311,-0.02819 -0.94025,0.151473 -1.24216,0.509765 -0.30191,0.358292 -0.38195,0.749777 -0.40819,1.125 l -0.29101,4.15625 h -1.76168 -1.33003 l 0.27538,-3.939453 c 0.0262,-0.375223 0.002,-0.785647 -0.25976,-1.1875 -0.26214,-0.401853 -0.7758,-0.636093 -1.17576,-0.664062 -0.0504,-0.0035 -0.1024,-0.0029 -0.15624,0 z m 1.09958,8.884765 h 1.54683 1.5449 l -0.21485,3.09375 h -2.67376 -0.41991 z M 58.618532,44.00186 c -10.13095,0 -16.35244,5.061587 -19.95654,10.759766 -3.60411,5.698178 -4.662,11.982741 -4.662,14.755859 v 8.271484 c 0,13.758074 12.4567,26.212891 26.31186,26.212891 6.46224,0 11.84496,-2.59122 15.61095,-5.431641 1.883,-1.420205 3.36372,-2.902477 4.38466,-4.171874 0.51047,-0.634699 0.90589,-1.216563 1.18161,-1.720704 0.27573,-0.504139 0.45117,-0.907746 0.45117,-1.333984 0,-1.338706 -1.07595,-2.392578 -2.49409,-2.392578 -0.39642,0 -0.77866,0.06554 -1.13473,0.259766 -0.35608,0.194226 -0.66884,0.487623 -1.03513,0.90625 l -0.002,0.0039 -0.004,0.0039 c -5.3246,6.31079 -10.20767,8.791016 -16.95858,8.791016 -11.46888,0 -21.22605,-10.042946 -21.22605,-21.72461 v -7.076172 c 0,-11.607677 8.7618,-21.027343 19.53273,-21.027343 4.33561,0 8.45916,1.297117 11.52121,3.318359 3.06205,2.021242 5.03488,4.744223 5.22058,7.576172 0.0543,0.863619 0.26903,1.571829 0.70115,2.083984 0.43249,0.512587 1.08191,0.775391 1.79097,0.775391 0.80476,0 1.51682,-0.289244 1.9648,-0.865235 0.44798,-0.575989 0.62694,-1.364398 0.62694,-2.326171 v -11.16211 c 0,-0.961773 -0.17879,-1.744251 -0.60936,-2.318359 -0.43057,-0.574109 -1.1196,-0.871094 -1.88277,-0.871094 -0.80476,0 -1.51681,0.289245 -1.9648,0.865234 -0.44798,0.575991 -0.62889,1.362446 -0.62889,2.324219 v 1.859375 c -4.6471,-4.093966 -10.41202,-6.345691 -16.73979,-6.345691 z" />
</svg>
