<?xml version="1.0" encoding="UTF-8" standalone="no"?>
<svg
   height="128px"
   viewBox="0 0 128 128"
   width="128px"
   version="1.1"
   id="svg35"
   xmlns:xlink="http://www.w3.org/1999/xlink"
   xmlns="http://www.w3.org/2000/svg"
   xmlns:svg="http://www.w3.org/2000/svg">
  <defs
     id="defs39">
    <filter
       height="1.0214333"
       y="-0.010716652"
       width="1.0272651"
       x="-0.01363253"
       id="filter16020"
       style="color-interpolation-filters:sRGB">
      <feGaussianBlur
         id="feGaussianBlur16022"
         stdDeviation="2.0004419" />
    </filter>
    <linearGradient
       xlink:href="#linearGradient4689"
       id="linearGradient1478"
       gradientUnits="userSpaceOnUse"
       gradientTransform="matrix(0.24025454,0,0,0.24257405,33.859503,46.997546)"
       x1="26.648937"
       y1="20.603781"
       x2="135.66525"
       y2="114.39767" />
    <linearGradient
       id="linearGradient4689">
      <stop
         style="stop-color:#5a9fd4;stop-opacity:1;"
         offset="0"
         id="stop4691" />
      <stop
         style="stop-color:#306998;stop-opacity:1;"
         offset="1"
         id="stop4693" />
    </linearGradient>
    <linearGradient
       xlink:href="#linearGradient4671"
       id="linearGradient1475"
       gradientUnits="userSpaceOnUse"
       gradientTransform="matrix(0.24025454,0,0,0.24257405,33.859503,46.997546)"
       x1="150.96111"
       y1="192.35176"
       x2="112.03144"
       y2="137.27299" />
    <linearGradient
       id="linearGradient4671">
      <stop
         style="stop-color:#ffd43b;stop-opacity:1;"
         offset="0"
         id="stop4673" />
      <stop
         style="stop-color:#ffe873;stop-opacity:1"
         offset="1"
         id="stop4675" />
    </linearGradient>
  </defs>
  <linearGradient
     id="a"
     gradientUnits="userSpaceOnUse"
     x1="36"
     x2="60"
     y1="68"
     y2="68">
    <stop
       offset="0"
       stop-color="#ed336c"
       id="stop2" />
    <stop
       offset="1"
       stop-color="#ffa348"
       id="stop4" />
  </linearGradient>
  <linearGradient
     id="b"
     gradientTransform="matrix(0 1 -1 0 144 -32)"
     gradientUnits="userSpaceOnUse"
     x1="72"
     x2="96"
     y1="68"
     y2="68">
    <stop
       offset="0"
       stop-color="#404ce6"
       id="stop7" />
    <stop
       offset="1"
       stop-color="#c061cb"
       id="stop9" />
  </linearGradient>
  <linearGradient
     id="c"
     gradientUnits="userSpaceOnUse"
     x1="68.84919"
     x2="95.257637"
     y1="84"
     y2="84">
    <stop
       offset="0"
       stop-color="#33d1c6"
       id="stop12" />
    <stop
       offset="1"
       stop-color="#1c25d8"
       id="stop14" />
  </linearGradient>
  <path
     style="display:inline;fill:#306998;fill-opacity:1;stroke:none;stroke-width:0.125;stroke-linejoin:round;stroke-miterlimit:4;stroke-dasharray:none;stroke-opacity:1;enable-background:new"
     clip-path="none"
     d="m 27.978085,7.9999995 h 50.000002 l 30.042893,29.9178935 0.001,74.060007 c 8e-5,4.432 -3.6122,8.0221 -8.044205,8.0221 H 27.978023 c -4.431999,0 -7.999998,-3.568 -7.999998,-8.00001 V 15.999998 c 0,-4.431999 3.567999,-7.9999984 7.999998,-7.9999984 z"
     id="path4411" />
  <path
     style="display:inline;vector-effect:none;fill:#ffd43b;fill-opacity:1;stroke:none;stroke-width:0.125;stroke-linecap:butt;stroke-linejoin:round;stroke-miterlimit:4;stroke-dasharray:none;stroke-dashoffset:0;stroke-opacity:1;enable-background:new"
     d="M 77.978087,7.9999995 V 30 c 0,4.432001 3.610528,7.923449 8.042528,7.923449 l 22.000365,-0.0055 z"
     id="path4413" />
  <path
     style="fill:#ffffff;fill-opacity:1;stroke-width:0.539756"
     d="m 63.642739,43.340472 c -2.474053,0.0115 -4.836715,0.222497 -6.915617,0.590358 -6.12419,1.081943 -7.236103,3.346542 -7.236103,7.522848 v 5.515631 h 14.4722 v 1.838544 h -14.4722 -5.431295 c -4.206026,0 -7.888942,2.528063 -9.040912,7.337307 -1.328782,5.512509 -1.387723,8.952404 0,14.708349 1.028732,4.284503 3.485497,7.337307 7.691523,7.337307 h 4.975875 v -6.61201 c 0,-4.776788 4.132986,-8.990309 9.040912,-8.99031 h 14.455332 c 4.02386,0 7.236108,-3.31311 7.236106,-7.354174 V 51.453678 c 0,-3.92205 -3.308696,-6.868273 -7.236106,-7.522848 -2.486105,-0.413845 -5.065657,-0.601853 -7.539715,-0.590358 z m -7.826455,4.436119 c 1.494875,0 2.715647,1.240708 2.715647,2.766249 -6e-6,1.520134 -1.220772,2.749382 -2.715647,2.749382 -1.500242,-1e-6 -2.715648,-1.229248 -2.715648,-2.749382 -5e-6,-1.525541 1.215406,-2.766249 2.715648,-2.766249 z"
     id="path1948" />
  <path
     style="fill:#ffffff;fill-opacity:1;stroke-width:0.539756"
     d="m 80.223368,58.807853 v 6.426469 c 0,4.982355 -4.224073,9.17585 -9.040914,9.175851 H 56.727122 c -3.959564,0 -7.236103,3.388848 -7.236103,7.354174 v 13.780642 c 0,3.922052 3.410491,6.228961 7.236103,7.354181 4.581086,1.34701 8.974106,1.59046 14.455332,0 3.643439,-1.0549 7.236108,-3.177877 7.236106,-7.354181 V 90.02936 H 63.963219 v -1.838544 h 14.455341 7.236106 c 4.206027,0 5.773364,-2.933793 7.236097,-7.337307 1.510955,-4.533349 1.446665,-8.892898 0,-14.708349 -1.039451,-4.187124 -3.024722,-7.337307 -7.236097,-7.337307 z m -8.130075,34.898593 c 1.50024,3e-6 2.715646,1.22925 2.715646,2.749381 0,1.525542 -1.215406,2.766252 -2.715646,2.766252 -1.494881,0 -2.715647,-1.24071 -2.715647,-2.766252 5e-6,-1.520131 1.220766,-2.749381 2.715647,-2.749381 z"
     id="path1950" />
</svg>
