<?xml version="1.0" encoding="UTF-8" standalone="no"?>
<svg
   height="128px"
   viewBox="0 0 128 128"
   width="128px"
   version="1.1"
   id="svg35"
   xmlns="http://www.w3.org/2000/svg"
   xmlns:svg="http://www.w3.org/2000/svg">
  <defs
     id="defs39">
    <filter
       height="1.0214333"
       y="-0.010716652"
       width="1.0272651"
       x="-0.01363253"
       id="filter16020"
       style="color-interpolation-filters:sRGB">
      <feGaussianBlur
         id="feGaussianBlur16022"
         stdDeviation="2.0004419" />
    </filter>
  </defs>
  <linearGradient
     id="a"
     gradientUnits="userSpaceOnUse"
     x1="36"
     x2="60"
     y1="68"
     y2="68">
    <stop
       offset="0"
       stop-color="#ed336c"
       id="stop2" />
    <stop
       offset="1"
       stop-color="#ffa348"
       id="stop4" />
  </linearGradient>
  <linearGradient
     id="b"
     gradientTransform="matrix(0 1 -1 0 144 -32)"
     gradientUnits="userSpaceOnUse"
     x1="72"
     x2="96"
     y1="68"
     y2="68">
    <stop
       offset="0"
       stop-color="#404ce6"
       id="stop7" />
    <stop
       offset="1"
       stop-color="#c061cb"
       id="stop9" />
  </linearGradient>
  <linearGradient
     id="c"
     gradientUnits="userSpaceOnUse"
     x1="68.84919"
     x2="95.257637"
     y1="84"
     y2="84">
    <stop
       offset="0"
       stop-color="#33d1c6"
       id="stop12" />
    <stop
       offset="1"
       stop-color="#1c25d8"
       id="stop14" />
  </linearGradient>
  <path
     style="display:inline;fill:#abbbce;fill-opacity:1;stroke:none;stroke-width:0.125;stroke-linejoin:round;stroke-miterlimit:4;stroke-dasharray:none;stroke-opacity:1;enable-background:new"
     clip-path="none"
     d="m 27.978072,8.0000006 h 50.000002 l 30.042896,29.9178934 10e-4,74.060006 c 8e-5,4.432 -3.6122,8.0221 -8.044196,8.0221 H 27.978011 c -4.431999,0 -7.999999,-3.568 -7.999999,-8.00001 V 16 c 0,-4.431999 3.568,-7.9999994 7.999999,-7.9999994 z"
     id="path4411" />
  <path
     style="display:inline;vector-effect:none;fill:#000000;fill-opacity:0.2;stroke:none;stroke-width:0.125;stroke-linecap:butt;stroke-linejoin:round;stroke-miterlimit:4;stroke-dasharray:none;stroke-dashoffset:0;stroke-opacity:1;enable-background:new"
     d="M 77.978074,8.0000006 V 30.000002 c 0,4.432 3.610527,7.923448 8.042527,7.923448 l 22.000369,-0.0055 z"
     id="path4413" />
  <g
     aria-label="H"
     id="text12692"
     style="font-size:104.796px;font-family:FreeMono;-inkscape-font-specification:FreeMono;fill:#ffffff;stroke:#f9f9f9"
     transform="translate(112.54491)">
    <g
       id="path13113">
      <path
         id="path13118"
         style="color:#000000;-inkscape-font-specification:FreeMono;stroke:none;-inkscape-stroke:none"
         d="m -69.609375,43.997883 c -1.007977,0 -1.824665,0.188812 -2.421875,0.636719 -0.597211,0.447908 -0.90625,1.162428 -0.90625,1.958985 0,0.840714 0.301298,1.578962 0.90039,2.044921 0.599092,0.465961 1.419758,0.65625 2.427735,0.65625 h 2.121094 v 49.40625 h -4.216797 c -1.056964,0 -1.895559,0.187986 -2.507813,0.634766 -0.612253,0.44678 -0.925781,1.166336 -0.925781,1.962886 0,0.85262 0.340329,1.59401 0.962891,2.05274 0.62256,0.45873 1.462726,0.64648 2.470703,0.64648 h 14.671875 c 1.007976,0 1.830596,-0.18833 2.429687,-0.65429 0.599093,-0.46596 0.900391,-1.20421 0.900391,-2.04493 0,-0.79655 -0.310993,-1.511071 -0.908203,-1.95898 -0.597211,-0.447907 -1.413898,-0.638672 -2.421875,-0.638672 h -5.158203 V 75.493977 h 27.294922 v 23.207031 h -5.160157 c -1.007976,0 -1.824664,0.190765 -2.421875,0.638672 -0.59721,0.447909 -0.90625,1.16243 -0.90625,1.95898 0,0.84072 0.301299,1.57897 0.900391,2.04493 0.599092,0.46596 1.419758,0.65429 2.427734,0.65429 h 14.777344 c 0.959391,0 1.777369,-0.19074 2.384766,-0.65039 0.607396,-0.45965 0.943359,-1.19621 0.943359,-2.04883 0,-0.79655 -0.30904,-1.511071 -0.90625,-1.95898 -0.59721,-0.447907 -1.413898,-0.638672 -2.421875,-0.638672 h -4.320312 v -49.40625 h 2.11914 c 1.007977,0 1.830595,-0.190289 2.429688,-0.65625 0.599091,-0.465959 0.90039,-1.204207 0.90039,-2.044921 0,-0.796557 -0.310992,-1.511077 -0.908203,-1.958985 -0.59721,-0.447907 -1.413898,-0.636719 -2.421875,-0.636719 h -12.576172 c -1.007976,0 -1.824664,0.188812 -2.421875,0.636719 -0.59721,0.447908 -0.90625,1.162428 -0.90625,1.958985 0,0.840714 0.3013,1.578962 0.900391,2.044921 0.599092,0.465961 1.419758,0.65625 2.427734,0.65625 h 5.160157 V 70.197102 H -62.191406 V 49.294758 h 5.158203 c 1.007977,0 1.830596,-0.190289 2.429687,-0.65625 0.599092,-0.465959 0.900391,-1.204207 0.900391,-2.044921 0,-0.796557 -0.310993,-1.511077 -0.908203,-1.958985 -0.597211,-0.447907 -1.413898,-0.636719 -2.421875,-0.636719 z" />
    </g>
  </g>
</svg>
