<?xml version="1.0" encoding="UTF-8" standalone="no"?>
<svg
   height="128px"
   viewBox="0 0 128 128"
   width="128px"
   version="1.1"
   id="svg35"
   xmlns="http://www.w3.org/2000/svg"
   xmlns:svg="http://www.w3.org/2000/svg">
  <defs
     id="defs39">
    <filter
       height="1.0214333"
       y="-0.010716652"
       width="1.0272651"
       x="-0.01363253"
       id="filter16020"
       style="color-interpolation-filters:sRGB">
      <feGaussianBlur
         id="feGaussianBlur16022"
         stdDeviation="2.0004419" />
    </filter>
  </defs>
  <linearGradient
     id="a"
     gradientUnits="userSpaceOnUse"
     x1="36"
     x2="60"
     y1="68"
     y2="68">
    <stop
       offset="0"
       stop-color="#ed336c"
       id="stop2" />
    <stop
       offset="1"
       stop-color="#ffa348"
       id="stop4" />
  </linearGradient>
  <linearGradient
     id="b"
     gradientTransform="matrix(0 1 -1 0 144 -32)"
     gradientUnits="userSpaceOnUse"
     x1="72"
     x2="96"
     y1="68"
     y2="68">
    <stop
       offset="0"
       stop-color="#404ce6"
       id="stop7" />
    <stop
       offset="1"
       stop-color="#c061cb"
       id="stop9" />
  </linearGradient>
  <linearGradient
     id="c"
     gradientUnits="userSpaceOnUse"
     x1="68.84919"
     x2="95.257637"
     y1="84"
     y2="84">
    <stop
       offset="0"
       stop-color="#33d1c6"
       id="stop12" />
    <stop
       offset="1"
       stop-color="#1c25d8"
       id="stop14" />
  </linearGradient>
  <path
     style="display:inline;fill:#189f20;fill-opacity:1;stroke:none;stroke-width:0.125;stroke-linejoin:round;stroke-miterlimit:4;stroke-dasharray:none;stroke-opacity:1;enable-background:new"
     clip-path="none"
     d="m 27.978072,8.0000006 h 50.000002 l 30.042896,29.9178934 10e-4,74.060006 c 8e-5,4.432 -3.6122,8.0221 -8.044196,8.0221 H 27.978011 c -4.431999,0 -7.999999,-3.568 -7.999999,-8.00001 V 16 c 0,-4.431999 3.568,-7.9999994 7.999999,-7.9999994 z"
     id="path4411" />
  <path
     style="display:inline;vector-effect:none;fill:#000000;fill-opacity:0.2;stroke:none;stroke-width:0.125;stroke-linecap:butt;stroke-linejoin:round;stroke-miterlimit:4;stroke-dasharray:none;stroke-dashoffset:0;stroke-opacity:1;enable-background:new"
     d="M 77.978074,8.0000006 V 30.000002 c 0,4.432 3.610527,7.923448 8.042527,7.923448 l 22.000369,-0.0055 z"
     id="path4413" />
  <g
     aria-label="C#"
     id="text1231-3"
     style="font-size:64px;line-height:1.25;font-family:'Source Code Pro';-inkscape-font-specification:'Source Code Pro';letter-spacing:-7px;fill:#ffffff"
     transform="matrix(1.1029412,0,0,1.1029412,228.45228,-32.834002)">
    <path
       d="m -161.02742,120.768 q -3.904,0 -7.232,-1.472 -3.328,-1.472 -5.824,-4.224 -2.496,-2.816 -3.904,-6.848 -1.344,-4.096 -1.344,-9.216 0,-6.72 2.432,-11.584 2.432,-4.928 6.656,-7.552 4.224,-2.624 9.728,-2.624 3.776,0 6.72,1.6 2.944,1.536 4.736,3.52 l -3.008,3.392 q -1.6,-1.792 -3.712,-2.816 -2.112,-1.024 -4.736,-1.024 -4.032,0 -7.04,2.112 -2.944,2.048 -4.608,5.824 -1.664,3.776 -1.664,9.024 0,5.312 1.664,9.152 1.664,3.84 4.608,5.952 3.008,2.112 7.04,2.112 2.88,0 5.184,-1.216 2.304,-1.216 4.288,-3.456 l 3.008,3.264 q -2.432,2.88 -5.632,4.48 -3.2,1.6 -7.36,1.6 z"
       id="path1288-6" />
    <path
       d="m -131.0994,120 5.12,-41.6 h 3.392 l -5.056,41.6 z m -11.904,0 5.12,-41.6 h 3.392 l -5.056,41.6 z m -2.24,-26.176 v -3.712 h 26.368 v 3.712 z m -1.28,13.12 v -3.648 h 26.368 v 3.648 z"
       id="path1290-7" />
  </g>
</svg>
