<?xml version="1.0" encoding="UTF-8" standalone="no"?>
<svg
   height="128px"
   viewBox="0 0 128 128"
   width="128px"
   version="1.1"
   id="svg35"
   xml:space="preserve"
   xmlns="http://www.w3.org/2000/svg"
   xmlns:svg="http://www.w3.org/2000/svg"><defs
     id="defs39" /><linearGradient
     id="a"
     gradientUnits="userSpaceOnUse"
     x1="36"
     x2="60"
     y1="68"
     y2="68"><stop
       offset="0"
       stop-color="#ed336c"
       id="stop2" /><stop
       offset="1"
       stop-color="#ffa348"
       id="stop4" /></linearGradient><linearGradient
     id="b"
     gradientTransform="matrix(0 1 -1 0 144 -32)"
     gradientUnits="userSpaceOnUse"
     x1="72"
     x2="96"
     y1="68"
     y2="68"><stop
       offset="0"
       stop-color="#404ce6"
       id="stop7" /><stop
       offset="1"
       stop-color="#c061cb"
       id="stop9" /></linearGradient><linearGradient
     id="c"
     gradientUnits="userSpaceOnUse"
     x1="68.84919"
     x2="95.257637"
     y1="84"
     y2="84"><stop
       offset="0"
       stop-color="#33d1c6"
       id="stop12" /><stop
       offset="1"
       stop-color="#1c25d8"
       id="stop14" /></linearGradient><path
     style="display:inline;fill:#f99028;fill-opacity:1;stroke:none;stroke-width:0.125;stroke-linejoin:round;stroke-miterlimit:4;stroke-dasharray:none;stroke-opacity:1;enable-background:new"
     clip-path="none"
     d="m 27.97808,7.9999995 h 49.999998 l 30.042892,29.9178935 10e-4,74.060007 c 8e-5,4.432 -3.61219,8.0221 -8.044192,8.0221 H 27.978029 c -4.431997,0 -7.999997,-3.568 -7.999997,-8.00001 V 15.999998 c 0,-4.431999 3.568,-7.9999984 7.999997,-7.9999984 z"
     id="rect2069" /><path
     style="display:inline;fill:#000000;fill-opacity:0.203383;stroke:none;stroke-width:0.125;stroke-linecap:butt;stroke-linejoin:round;stroke-miterlimit:4;stroke-dasharray:none;stroke-dashoffset:0;stroke-opacity:1;enable-background:new"
     d="M 77.978078,7.9999995 V 30 c 0,4.432001 3.610527,7.923449 8.042528,7.923449 l 22.000364,-0.0055 z"
     id="rect26812" /><path
     d="M 93.987198,80.431593 H 64.701519 L 59.905604,96.974874 H 54.08928 c -0.14032,0 -0.267845,-0.0892 -0.306126,-0.2296 L 43.285723,59.806598 h 7.308672 l 3.864804,13.60968 h 7.29592 L 55.887763,52.791274 H 34.000001 l 13.035726,45.88 c 0.892831,3.138006 3.788233,5.331606 7.053553,5.331606 h 11.096957 l 4.795924,-16.543246 h 17.002636 v 9.20924 c 0,0.0892 -0.02561,0.1656 -0.08919,0.2296 -0.06401,0.0636 -0.140405,0.0892 -0.229607,0.0892 H 74.510402 l -2.041005,7.015196 h 14.196599 c 1.964009,0 3.800797,-0.76521 5.191202,-2.15561 1.390402,-1.38999 2.142803,-3.226786 2.142803,-5.191186 V 80.431593 Z"
     fill="#00758a"
     id="path1-2"
     style="fill:#ffffff;fill-opacity:0.8;stroke-width:0.4" /><path
     d="m 91.997209,73.416278 h 1.989998 V 60.138193 c 0,-1.964281 -0.765605,-3.801002 -2.142805,-5.19132 -1.3776,-1.390284 -3.227201,-2.155599 -5.191601,-2.155599 H 72.73708 L 66.742208,73.416278 Z M 78.004808,59.806598 h 8.660796 c 0.0892,0 0.166002,0.02552 0.229598,0.08928 0.06401,0.06376 0.0892,0.140277 0.0892,0.229599 v 6.275478 H 76.091603 l 1.926,-6.607116 z"
     fill="#f29111"
     id="path2"
     style="fill:#ffffff;stroke-width:0.4" /></svg>
