<?xml version="1.0" encoding="UTF-8" standalone="no"?>
<svg
   height="16px"
   viewBox="0 0 16 16"
   width="16px"
   version="1.1"
   id="svg135"
   xmlns="http://www.w3.org/2000/svg"
   xmlns:svg="http://www.w3.org/2000/svg">
  <defs
     id="defs139" />
  <path
     d="M 15.669513,3.5438234 C 15.903854,3.2782381 16.01842,2.929332 15.997589,2.5804273 15.971549,2.226314 15.810118,1.8982381 15.544532,1.6638987 15.278948,1.429558 14.930042,1.3097854 14.575929,1.3358228 14.221816,1.3566528 13.89374,1.5232946 13.6594,1.7888799 L 5.2648321,11.381184 2.2756981,8.3868428 c -0.520754,-0.520753 -1.36437696,-0.520753 -1.88513196,0 C 0.14060414,8.6368058 1.3808677e-7,8.9805038 1.3808677e-7,9.3346178 1.3808677e-7,9.6887308 0.14060414,10.027221 0.39056614,10.277184 l 3.99939796,3.999397 c 0.260377,0.260378 0.619697,0.400981 0.989433,0.390566 0.364529,-0.01562 0.713434,-0.177056 0.958189,-0.458264 z m 0,0"
     fill="#222222"
     id="path1"
     style="fill:#000000;stroke-width:1.33313" />
</svg>
