<?xml version="1.0" encoding="UTF-8" standalone="no"?>
<svg
   height="16px"
   viewBox="0 0 16 16"
   width="16px"
   version="1.1"
   id="svg135"
   xmlns="http://www.w3.org/2000/svg"
   xmlns:svg="http://www.w3.org/2000/svg">
  <defs
     id="defs139" />
  <path
     style="color:#444444;fill:#000000;stroke-width:1.25035"
     class="ColorScheme-Text"
     d="M 2.0000007,3.4964551 A 7.5021276,7.5021276 0 0 0 0.5434525,8.748344 l 2.5153633,0.001 A 5.0014184,5.0014184 0 0 1 4.0000005,4.9976368 5.0014184,5.0014184 0 0 1 11.002365,3.9999999 l -1.5011824,2 6.2517714,0.00236 L 14.004727,0 12.503545,2.0000001 A 7.5021276,7.5021276 0 0 0 2.0000007,3.4964551 Z M 0.2470464,9.997637 1.9952739,16 3.4964557,14 A 7.5021276,7.5021276 0 0 0 14.000001,12.503545 7.5021276,7.5021276 0 0 0 15.456648,7.2511055 l -2.516464,0.0013 A 5.0014184,5.0014184 0 0 1 12.000001,11.002364 5.0014184,5.0014184 0 0 1 4.9976374,12.000001 L 6.498819,10 Z"
     id="path1-6" />
</svg>
