<?xml version="1.0" encoding="UTF-8" standalone="no"?>
<svg
   height="16"
   width="16"
   version="1.1"
   id="svg10070"
   xmlns="http://www.w3.org/2000/svg"
   xmlns:svg="http://www.w3.org/2000/svg">
  <defs
     id="defs1">
    <style
       type="text/css"
       id="current-color-scheme">
            .ColorScheme-Text {
                color:#232629;
            }
        </style>
  </defs>
  <path
     id="path10068"
     style="fill:#000000;fill-opacity:1;stroke:none;stroke-width:1.33333"
     class="ColorScheme-Text"
     d="M 0 0.66601562 L 0 4.6660156 L 8 4.6660156 L 8 0.66601562 L 0 0.66601562 z M 9.3339844 0.66601562 L 9.3339844 4.6660156 L 16 4.6660156 L 16 0.66601562 L 9.3339844 0.66601562 z M 0 6 L 0 10 L 2.6660156 10 L 2.6660156 6 L 0 6 z M 4 6 L 4 10 L 7.25 10 L 7.25 8.2890625 C 7.25 7.7042908 7.7042791 7.25 8.2890625 7.25 L 12 7.25 L 12 6 L 4 6 z M 13.333984 6 L 13.333984 7.25 L 15.710938 7.25 C 15.811957 7.25 15.908439 7.2636187 16 7.2890625 L 16 6 L 13.333984 6 z M 0 11.333984 L 0 15.333984 L 7.25 15.333984 L 7.25 11.333984 L 0 11.333984 z " />
  <path
     d="M 8.875,8 C 8.38255,8 8,8.38256 8,8.875 v 6.25 C 8,15.61744 8.38255,16 8.875,16 h 6.25 C 15.61745,16 16,15.61744 16,15.125 V 8.875 C 16,8.38256 15.61745,8 15.125,8 Z M 11,9 h 2 v 2.5 c 0,0 0,0.5 -0.5,0.5 h -1 C 11,12 11,11.5 11,11.5 Z m 0.5,4 h 1 c 0.277,0 0.5,0.223 0.5,0.5 v 1 c 0,0.277 -0.223,0.5 -0.5,0.5 h -1 C 11.223,15 11,14.777 11,14.5 v -1 C 11,13.223 11.223,13 11.5,13 Z"
     id="path10898-2-5"
     class="warning"
     style="fill:#ff7800" />
</svg>
