<?xml version="1.0" encoding="UTF-8" standalone="no"?>
<svg
   height="16px"
   viewBox="0 0 16 16"
   width="16px"
   version="1.1"
   id="svg1"
   xmlns="http://www.w3.org/2000/svg"
   xmlns:svg="http://www.w3.org/2000/svg">
  <defs
     id="defs1" />
  <path
     d="M 6.9336294,0.00368744 C 3.1167998,0.00368744 8.3525821e-8,3.1219245 8.3525821e-8,6.9405143 8.3525821e-8,10.759104 3.1167998,13.873172 6.9336294,13.873172 c 1.5250656,0 2.9376251,-0.496083 4.0835076,-1.338174 l 3.141801,3.143249 c 1.020877,1.000504 2.520941,-0.533602 1.500064,-1.534105 l -3.125134,-3.126575 c 0.837536,-1.1464098 1.333391,-2.5554533 1.333391,-4.0770527 0,-3.8185898 -3.1168,-6.93682686 -6.9336296,-6.93682686 z m 0,2.13440826 c 2.6626139,0 4.8002046,2.1385768 4.8002046,4.8024186 0,2.6638418 -2.1375907,4.7982497 -4.8002046,4.7982497 -2.6626139,0 -4.8002049,-2.1344079 -4.8002049,-4.7982497 0,-2.6638418 2.137591,-4.8024186 4.8002049,-4.8024186 z m 0,0"
     fill="#2e3436"
     id="path1"
     style="fill:#000000;stroke-width:1.06696" />
</svg>
