<?xml version="1.0" encoding="UTF-8" standalone="no"?>
<svg
   width="16"
   height="16"
   version="1"
   id="svg909"
   xmlns="http://www.w3.org/2000/svg"
   xmlns:svg="http://www.w3.org/2000/svg">
  <defs
     id="defs903">
    <style
       id="current-color-scheme"
       type="text/css">
   .ColorScheme-Text { color:#dfdfdf; } .ColorScheme-Highlight { color:#4285f4; } .ColorScheme-NeutralText { color:#ff9800; } .ColorScheme-PositiveText { color:#4caf50; } .ColorScheme-NegativeText { color:#f44336; }
  </style>
  </defs>
  <path
     style="fill:#000000;stroke-width:0.888887"
     class="ColorScheme-Text"
     d="M 3.5555556,1.3333332 A 3.5555556,3.5555556 0 0 0 1.5454548e-8,4.8888887 3.5555556,3.5555556 0 0 0 0.99128891,7.3506667 6.2222222,6.2222222 0 0 0 0.8888889,8.4444442 6.2222222,6.2222222 0 0 0 7.1111113,14.666666 6.2222222,6.2222222 0 0 0 8.2115557,14.566222 3.5555556,3.5555556 0 0 0 10.666667,15.555556 3.5555556,3.5555556 0 0 0 14.222222,12 3.5555556,3.5555556 0 0 0 13.231111,9.5377773 6.2222222,6.2222222 0 0 0 13.333333,8.4444442 6.2222222,6.2222222 0 0 0 7.1111113,2.2222221 6.2222222,6.2222222 0 0 0 6.0104,2.3229332 3.5555556,3.5555556 0 0 0 3.5555556,1.3333332 Z m 0,6.3022223 H 10.666667 V 9.413333 H 3.5555556 Z"
     id="path905" />
  <circle
     style="fill:currentColor;stroke-width:0.888887"
     class="ColorScheme-Highlight"
     cx="14.222222"
     cy="2.2222221"
     r="1.7777778"
     id="circle907" />
</svg>
