<?xml version="1.0" encoding="UTF-8" standalone="no"?>
<svg
   width="16"
   height="16"
   version="1"
   id="svg9"
   xmlns="http://www.w3.org/2000/svg"
   xmlns:svg="http://www.w3.org/2000/svg">
  <defs
     id="defs3">
    <style
       id="current-color-scheme"
       type="text/css">
   .ColorScheme-Text { color:#dfdfdf; } .ColorScheme-Highlight { color:#4285f4; } .ColorScheme-NeutralText { color:#ff9800; } .ColorScheme-PositiveText { color:#4caf50; } .ColorScheme-NegativeText { color:#f44336; }
  </style>
  </defs>
  <path
     style="fill:#000000;stroke-width:0.888875"
     class="ColorScheme-Text"
     d="M 3.5555,1.333 A 3.5555,3.5555 0 0 0 0,4.8885 3.5555,3.5555 0 0 0 0.9912734,7.3506837 6.222125,6.222125 0 0 0 0.888875,8.444 6.222125,6.222125 0 0 0 7.111,14.666125 6.222125,6.222125 0 0 0 8.2114272,14.565682 3.5555,3.5555 0 0 0 10.6665,15.555 3.5555,3.5555 0 0 0 14.222,11.9995 3.5555,3.5555 0 0 0 13.230904,9.5373162 6.222125,6.222125 0 0 0 13.333125,8.444 6.222125,6.222125 0 0 0 7.111,2.221875 6.222125,6.222125 0 0 0 6.0105727,2.3225845 3.5555,3.5555 0 0 0 3.5555,1.333 Z m 3.6683871,3.5555 c 1.7542837,0 2.6596919,0.9265633 2.6596919,1.4704656 0,0.5457253 -0.262138,0.6267286 -0.692701,0.6267286 -0.8367065,0 -0.4935025,-1.0069176 -2.0607669,-1.0069176 -0.5186142,0 -1.1666487,0.2359605 -1.1666487,0.8419954 0,0.4871927 0.5739462,0.6667009 1.5868196,0.9166079 1.527087,0.4088825 2.671958,0.8168762 2.671958,2.218632 0,1.3608681 -1.108427,2.0435241 -2.8630661,2.0435241 -1.7537504,0 -2.8747103,-1.049762 -2.8747103,-1.593753 0,-0.5439026 0.2065829,-0.6805405 0.6371449,-0.6805405 0.8380404,0 0.7261844,1.1458485 2.2933867,1.1458485 0.520436,0 1.2881577,-0.237614 1.2881577,-0.845471 0,-0.4853701 -0.040953,-0.653288 -1.1527823,-0.9531408 -1.187537,-0.1608863 -3.1057293,-0.547547 -3.1057293,-2.0293016 0,-1.3609568 1.0266507,-2.1528554 2.7812899,-2.1528554 l -0.00181,-0.00178 z"
     id="path5" />
  <path
     style="fill:currentColor"
     class="ColorScheme-Text"
     d="M -22.069,-4.0812"
     id="path7" />
</svg>
