<?xml version="1.0" encoding="UTF-8" standalone="no"?>
<svg
   height="16px"
   viewBox="0 0 16 16"
   width="16px"
   version="1.1"
   id="svg83965"
   xmlns="http://www.w3.org/2000/svg"
   xmlns:svg="http://www.w3.org/2000/svg">
  <defs
     id="defs1" />
  <path
     d="M 6.00781,2.06822 C 2.72619,2.06774 0.04445,4.74947 0.04492,8.03111 0.04445,11.31274 2.72619,13.99448 6.00781,13.994 L 7,14 V 12 L 6.01367,11.994 c -0.003,-10e-6 -0.005,-10e-6 -0.008,0 C 3.80513,11.99432 2.04442,10.23167 2.04473,8.03111 2.04442,5.83055 3.80513,4.0679 6.00567,4.06822 c 1.6155,9.6e-4 3.06291,0.97559 3.66992,2.47266 0.0814,0.18763 0.21846,0.34578 0.39258,0.45312 h 5.05664 c 0.048,0 0.0953,0.004 0.14258,0.008 -0.81266,-1.18728 -2.17688,-1.9707 -3.71485,-1.9707 -0.14861,0 -0.29047,0.0476 -0.4375,0.0625 C 10.06222,3.26798 8.15478,2.06968 6.00762,2.06841 Z"
     id="path124616-1"
     style="" />
  <path
     d="m 11.731,8.028 c -0.961,0.066 -1.863,0.48 -2.543,1.16 -1.562,1.562 -1.562,4.094 0,5.656 1.563,1.563 4.094,1.563 5.657,0 1.562,-1.562 1.562,-4.094 0,-5.656 -0.821,-0.82 -1.957,-1.246 -3.114,-1.16 z m -2.0517084,3.093311 c 0.254,0 0.5120004,0.102 0.7070004,0.297 l 0.707,0.707 2.165024,-2.1510049 c 0.392268,-0.3897279 1.024,-0.391 1.415,0 0.39,0.3899999 0.39,1.0229999 0,1.4139999 l -0.708,0.707 -1.414,1.414 -0.707,0.707 c -0.39,0.391 -1.023,0.391 -1.414,0 l -0.7510244,-0.676995 -0.707,-0.707 c -0.39,-0.391 -0.39,-1.024 0,-1.414 0.196,-0.195 0.453,-0.297 0.707,-0.297 z"
     class="success"
     fill="#e01b24"
     style="fill:#26a269"
     id="path1" />
</svg>
