<?xml version="1.0" encoding="UTF-8" standalone="no"?>
<svg
   height="16px"
   viewBox="0 0 16 16"
   width="16px"
   version="1.1"
   id="svg83965"
   xmlns="http://www.w3.org/2000/svg"
   xmlns:svg="http://www.w3.org/2000/svg">
  <defs
     id="defs1" />
  <path
     d="M 6.00781,2.06822 C 2.72619,2.06774 0.04445,4.74947 0.04492,8.03111 0.04445,11.31274 2.72619,13.99448 6.00781,13.994 L 7,14 V 12 L 6.01367,11.994 c -0.003,-10e-6 -0.005,-10e-6 -0.008,0 C 3.80513,11.99432 2.04442,10.23167 2.04473,8.03111 2.04442,5.83055 3.80513,4.0679 6.00567,4.06822 c 1.6155,9.6e-4 3.06291,0.97559 3.66992,2.47266 0.0814,0.18763 0.21846,0.34578 0.39258,0.45312 h 5.05664 c 0.048,0 0.0953,0.004 0.14258,0.008 -0.81266,-1.18728 -2.17688,-1.9707 -3.71485,-1.9707 -0.14861,0 -0.29047,0.0476 -0.4375,0.0625 C 10.06222,3.26798 8.15478,2.06968 6.00762,2.06841 Z"
     id="path124616-1"
     style="" />
  <path
     id="path1"
     style="fill:#26a269"
     class="success"
     d="M 12.164062 8.0195312 C 12.020668 8.0145117 11.875094 8.0165938 11.730469 8.0273438 C 10.769469 8.0933438 9.8675 8.5075 9.1875 9.1875 C 7.6255 10.7495 7.6255 13.28175 9.1875 14.84375 C 10.7505 16.40675 13.282703 16.40675 14.845703 14.84375 C 16.407703 13.28175 16.407703 10.7495 14.845703 9.1875 C 14.127328 8.47 13.167824 8.054668 12.164062 8.0195312 z M 11.96875 8.7636719 C 12.476143 8.7636719 12.96875 9.155478 12.96875 9.78125 L 12.96875 11.894531 L 13.460938 11.404297 C 13.749596 11.10828 14.374698 10.92308 14.875 11.404297 C 15.290386 11.81969 15.237879 12.458682 14.867188 12.880859 L 12.753906 14.939453 C 12.205106 15.391602 11.752668 15.392102 11.167969 14.851562 L 9.0546875 12.792969 C 8.7501343 12.494506 8.8325336 11.685222 9.1738281 11.404297 C 9.5202404 11.075426 10.050033 10.915715 10.589844 11.404297 L 10.957031 11.769531 L 10.957031 9.78125 C 10.957031 9.198993 11.440327 8.7636719 11.96875 8.7636719 z " />
</svg>
