<?xml version="1.0" encoding="UTF-8" standalone="no"?>
<svg
   width="16"
   height="16"
   version="1.1"
   id="svg10191"
   xmlns="http://www.w3.org/2000/svg"
   xmlns:svg="http://www.w3.org/2000/svg">
  <defs
     id="defs10195" />
  <path
     id="path1052"
     style="color:#000000;font-style:normal;font-variant:normal;font-weight:normal;font-stretch:normal;font-size:medium;line-height:normal;font-family:sans-serif;text-indent:0;text-align:start;text-decoration:none;text-decoration-line:none;text-decoration-style:solid;text-decoration-color:#000000;letter-spacing:normal;word-spacing:normal;text-transform:none;writing-mode:lr-tb;direction:ltr;baseline-shift:baseline;text-anchor:start;white-space:normal;clip-rule:nonzero;display:inline;overflow:visible;visibility:visible;isolation:auto;mix-blend-mode:normal;color-interpolation:sRGB;color-interpolation-filters:linearRGB;solid-color:#000000;solid-opacity:1;fill:#000000;fill-opacity:1;fill-rule:nonzero;stroke:none;stroke-width:0.781919;stroke-linecap:butt;stroke-linejoin:miter;stroke-miterlimit:10;stroke-dasharray:none;stroke-dashoffset:0;stroke-opacity:1;color-rendering:auto;image-rendering:auto;shape-rendering:auto;text-rendering:auto;enable-background:accumulate"
     d="M 8.0117188 4.3574219 C 6.3532697 4.3574219 4.9473827 5.4825344 4.5117188 7.0058594 C 4.1330808 6.1978644 3.3122865 5.6308594 2.3671875 5.6308594 C 1.0674545 5.6308594 0 6.700267 0 8 C 0 9.299732 1.0674545 10.369141 2.3671875 10.369141 C 3.3122865 10.369141 4.1330807 9.8022766 4.5117188 8.9941406 C 4.9032667 10.363315 6.0796856 11.4094 7.5175781 11.607422 C 7.5580473 11.142405 7.6708341 10.682792 7.8554688 10.246094 C 6.6782989 10.16626 5.7597656 9.1989192 5.7597656 8 C 5.7597656 6.748063 6.7597848 5.7480479 8.0117188 5.7480469 C 9.2135121 5.7480469 10.184005 6.6683752 10.259766 7.8496094 C 10.707837 7.6615969 11.187298 7.547042 11.679688 7.5117188 C 12.041721 7.4859344 12.400737 7.504796 12.751953 7.5644531 C 12.909603 7.2406263 13.240009 7.0214844 13.630859 7.0214844 C 14.179367 7.0214844 14.609375 7.451496 14.609375 8 C 14.609375 8.1060948 14.594373 8.2077627 14.564453 8.3027344 C 14.783858 8.4548874 14.989937 8.6265973 15.181641 8.8183594 C 15.335715 8.9724438 15.476461 9.135292 15.603516 9.3046875 C 15.853591 8.9295072 16 8.4807552 16 8 C 16 6.700267 14.930593 5.6308594 13.630859 5.6308594 C 12.699183 5.6308594 11.889539 6.1810541 11.503906 6.9707031 C 11.057098 5.4645621 9.6579027 4.3574219 8.0117188 4.3574219 z M 2.3671875 7.0214844 C 2.9156915 7.0214844 3.3457031 7.451496 3.3457031 8 C 3.3457031 8.548503 2.9156915 8.9785156 2.3671875 8.9785156 C 1.8186855 8.9785156 1.390625 8.548503 1.390625 8 C 1.390625 7.451496 1.8186855 7.0214844 2.3671875 7.0214844 z " />
  <path
     id="path1"
     style="fill:#26a269;stroke-width:1.00011"
     class="error"
     d="M 12.146484 8.0019531 C 12.003048 7.9966431 11.859519 7.9994656 11.714844 8.0097656 C 10.754818 8.0786366 9.8522702 8.4912028 9.171875 9.171875 C 7.6098935 10.733956 7.6098935 13.266044 9.171875 14.828125 C 10.734196 16.389865 13.265804 16.389865 14.828125 14.828125 C 16.390106 13.266044 16.390106 10.733956 14.828125 9.171875 C 14.110371 8.4539058 13.150537 8.0391135 12.146484 8.0019531 z M 14.361328 9.8964844 C 14.383424 9.8957166 14.405363 9.8968396 14.427734 9.8984375 C 14.951852 9.9335925 15.192273 10.572641 14.818359 10.943359 L 11.839844 13.921875 C 11.600155 14.161564 11.210391 14.161564 10.970703 13.921875 L 9.1914062 12.197266 C 8.6129585 11.618818 9.4820992 10.747724 10.060547 11.326172 L 11.404297 12.619141 L 13.949219 10.074219 C 14.061073 9.9651602 14.206654 9.9018587 14.361328 9.8964844 z " />
</svg>
