<?xml version="1.0" encoding="UTF-8" standalone="no"?>
<svg
   height="16px"
   viewBox="0 0 16 16"
   width="16px"
   version="1.1"
   id="svg83965"
   xmlns="http://www.w3.org/2000/svg"
   xmlns:svg="http://www.w3.org/2000/svg">
  <defs
     id="defs1" />
  <path
     d="M 6.00781,2.06822 C 2.72619,2.06774 0.04445,4.74947 0.04492,8.03111 0.04445,11.31274 2.72619,13.99448 6.00781,13.994 L 7,14 V 12 L 6.01367,11.994 c -0.003,-10e-6 -0.005,-10e-6 -0.008,0 C 3.80513,11.99432 2.04442,10.23167 2.04473,8.03111 2.04442,5.83055 3.80513,4.0679 6.00567,4.06822 c 1.6155,9.6e-4 3.06291,0.97559 3.66992,2.47266 0.0814,0.18763 0.21846,0.34578 0.39258,0.45312 h 5.05664 c 0.048,0 0.0953,0.004 0.14258,0.008 -0.81266,-1.18728 -2.17688,-1.9707 -3.71485,-1.9707 -0.14861,0 -0.29047,0.0476 -0.4375,0.0625 C 10.06222,3.26798 8.15478,2.06968 6.00762,2.06841 Z"
     id="path124616-1"
     style="" />
  <path
     d="M 11.731 8.028 C 10.77 8.094 9.868 8.508 9.188 9.188 C 7.626 10.75 7.626 13.282 9.188 14.844 C 10.751 16.407 13.282 16.407 14.845 14.844 C 16.407 13.282 16.407 10.75 14.845 9.188 C 14.024 8.368 12.888 7.942 11.731 8.028 Z M 10.602 9.598 C 10.856 9.598 11.114 9.7 11.309 9.895 L 12.016 10.602 L 12.723 9.895 C 13.114 9.504 13.747 9.504 14.138 9.895 C 14.528 10.285 14.528 10.918 14.138 11.309 L 13.43 12.016 L 14.138 12.723 C 14.528 13.114 14.528 13.746 14.138 14.137 C 13.747 14.528 13.114 14.528 12.723 14.137 L 12.016 13.43 L 11.309 14.137 C 10.919 14.528 10.286 14.528 9.895 14.137 C 9.505 13.746 9.505 13.114 9.895 12.723 L 10.602 12.016 L 9.895 11.309 C 9.505 10.918 9.505 10.285 9.895 9.895 C 10.091 9.7 10.348 9.598 10.602 9.598 Z M 10.602 9.598"
     fill="#e01b24"
     style="fill:#000000;opacity:0.4"
     id="path1" />
</svg>
