<?xml version="1.0" encoding="UTF-8" standalone="no"?>
<svg
   width="16"
   height="16"
   version="1.1"
   id="svg10191"
   xml:space="preserve"
   xmlns="http://www.w3.org/2000/svg"
   xmlns:svg="http://www.w3.org/2000/svg"><defs
     id="defs10195" /><path
     id="path1052"
     style="color:#000000;font-style:normal;font-variant:normal;font-weight:normal;font-stretch:normal;font-size:medium;line-height:normal;font-family:sans-serif;text-indent:0;text-align:start;text-decoration:none;text-decoration-line:none;text-decoration-style:solid;text-decoration-color:#000000;letter-spacing:normal;word-spacing:normal;text-transform:none;writing-mode:lr-tb;direction:ltr;baseline-shift:baseline;text-anchor:start;white-space:normal;clip-rule:nonzero;display:inline;overflow:visible;visibility:visible;isolation:auto;mix-blend-mode:normal;color-interpolation:sRGB;color-interpolation-filters:linearRGB;solid-color:#000000;solid-opacity:1;fill:#000000;fill-opacity:1;fill-rule:nonzero;stroke:none;stroke-width:0.781919;stroke-linecap:butt;stroke-linejoin:miter;stroke-miterlimit:10;stroke-dasharray:none;stroke-dashoffset:0;stroke-opacity:1;color-rendering:auto;image-rendering:auto;shape-rendering:auto;text-rendering:auto;enable-background:accumulate"
     d="M 8.0117188 4.3574219 C 6.3532697 4.3574219 4.9473827 5.4825344 4.5117188 7.0058594 C 4.1330808 6.1978644 3.3122865 5.6308594 2.3671875 5.6308594 C 1.0674545 5.6308594 0 6.700267 0 8 C 0 9.2997321 1.0674545 10.369141 2.3671875 10.369141 C 3.3122865 10.369141 4.1330807 9.8022766 4.5117188 8.9941406 C 4.9017313 10.357946 6.0698068 11.401599 7.5 11.605469 L 7.5 10.193359 C 6.4983509 9.963955 5.7597656 9.0754958 5.7597656 8 C 5.7597656 6.748063 6.7597848 5.7480478 8.0117188 5.7480469 C 9.0916672 5.7480469 9.9841237 6.4920227 10.208984 7.5 L 12.787109 7.5 C 12.955332 7.2115844 13.266214 7.0214844 13.630859 7.0214844 C 13.995511 7.0214844 14.308196 7.2115844 14.476562 7.5 L 15.515625 7.5 C 15.679413 7.5 15.832548 7.5381616 15.966797 7.6054688 C 15.776639 6.4910421 14.796201 5.6308594 13.630859 5.6308594 C 12.699183 5.6308594 11.889539 6.1810541 11.503906 6.9707031 C 11.057098 5.4645621 9.6579027 4.3574219 8.0117188 4.3574219 z M 2.3671875 7.0214844 C 2.9156915 7.0214844 3.3457031 7.451496 3.3457031 8 C 3.3457031 8.5485029 2.9156915 8.9785156 2.3671875 8.9785156 C 1.8186855 8.9785156 1.390625 8.5485029 1.390625 8 C 1.390625 7.451496 1.8186855 7.0214844 2.3671875 7.0214844 z " /><path
     id="path10898-2-5"
     style="fill:#ff7800"
     class="warning"
     d="M 8.875 8 C 8.38255 8 8 8.38256 8 8.875 L 8 15.125 C 8 15.61744 8.38255 16 8.875 16 L 15.125 16 C 15.61745 16 16 15.61744 16 15.125 L 16 8.875 C 16 8.38256 15.61745 8 15.125 8 L 8.875 8 z M 9.5996094 9 L 10.800781 9 C 11.131249 9 11.400391 9.2667964 11.400391 9.5996094 L 11.400391 14.400391 C 11.400391 14.733204 11.131249 15 10.800781 15 L 9.5996094 15 C 9.2667966 15 9 14.733204 9 14.400391 L 9 9.5996094 C 9 9.2667964 9.2667966 9 9.5996094 9 z M 13.199219 9 L 14.400391 9 C 14.730859 9 15 9.2667964 15 9.5996094 L 15 14.400391 C 15 14.733204 14.730859 15 14.400391 15 L 13.199219 15 C 12.866406 15 12.599609 14.733204 12.599609 14.400391 L 12.599609 9.5996094 C 12.599609 9.2667964 12.866406 9 13.199219 9 z " /></svg>
