<?xml version="1.0" encoding="UTF-8" standalone="no"?>
<svg
   height="16px"
   viewBox="0 0 16 16"
   width="16px"
   version="1.1"
   id="svg83965"
   xmlns="http://www.w3.org/2000/svg"
   xmlns:svg="http://www.w3.org/2000/svg">
  <defs
     id="defs1" />
  <path
     id="path124616-1"
     style=""
     d="M 6.00781,2.06822 C 2.72619,2.06774 0.04445,4.74947 0.04492,8.03111 0.04445,11.31274 2.72619,13.99448 6.00781,13.994 L 7,14 V 12 L 6.01367,11.994 c -0.003,-10e-6 -0.005,-10e-6 -0.008,0 C 3.80513,11.99432 2.04442,10.23167 2.04473,8.03111 2.04442,5.83055 3.80513,4.0679 6.00567,4.06822 c 1.6155,9.6e-4 3.06291,0.97559 3.66992,2.47266 0.0814,0.18763 0.21846,0.34578 0.39258,0.45312 h 5.05664 c 0.048,0 0.0953,0.004 0.14258,0.008 -0.81266,-1.18728 -2.17688,-1.9707 -3.71485,-1.9707 -0.14861,0 -0.29047,0.0476 -0.4375,0.0625 C 10.06222,3.26798 8.15478,2.06968 6.00762,2.06841 Z" />
  <path
     class="warning"
     d="M 8.875,16 C 8.382812,16 8,15.617188 8,15.125 V 8.875 C 8,8.382812 8.382812,8 8.875,8 h 6.25 C 15.617188,8 16,8.382812 16,8.875 v 6.25 C 16,15.617188 15.617188,16 15.125,16 Z M 11,15 h 2 v -2.5 c 0,0 0,-0.5 -0.5,-0.5 h -1 C 11,12 11,12.5 11,12.5 Z m 0.5,-4 h 1 c 0.277344,0 0.5,-0.222656 0.5,-0.5 v -1 C 13,9.222656 12.777344,9 12.5,9 h -1 C 11.222656,9 11,9.222656 11,9.5 v 1 c 0,0.277344 0.222656,0.5 0.5,0.5 z m 0,0"
     fill="#ff7800"
     id="path83963" />
</svg>
