<?xml version="1.0" encoding="UTF-8" standalone="no"?>
<svg
   height="16px"
   viewBox="0 0 16 16"
   width="16px"
   version="1.1"
   id="svg83965"
   xmlns="http://www.w3.org/2000/svg"
   xmlns:svg="http://www.w3.org/2000/svg">
  <defs
     id="defs1" />
  <path
     d="M 6.00781,2.06822 C 2.72619,2.06774 0.04445,4.74947 0.04492,8.03111 0.04445,11.31274 2.72619,13.99448 6.00781,13.994 L 7,14 V 12 L 6.01367,11.994 c -0.003,-10e-6 -0.005,-10e-6 -0.008,0 C 3.80513,11.99432 2.04442,10.23167 2.04473,8.03111 2.04442,5.83055 3.80513,4.0679 6.00567,4.06822 c 1.6155,9.6e-4 3.06291,0.97559 3.66992,2.47266 0.0814,0.18763 0.21846,0.34578 0.39258,0.45312 h 5.05664 c 0.048,0 0.0953,0.004 0.14258,0.008 -0.81266,-1.18728 -2.17688,-1.9707 -3.71485,-1.9707 -0.14861,0 -0.29047,0.0476 -0.4375,0.0625 C 10.06222,3.26798 8.15478,2.06968 6.00762,2.06841 Z"
     id="path124616-1"
     style="" />
  <path
     id="path1"
     style="fill:#1a5fb4"
     class="accent"
     d="M 12.164062 8.0195312 C 12.020668 8.0145112 11.875094 8.0165938 11.730469 8.0273438 C 10.769469 8.0933464 9.8675 8.5075 9.1875 9.1875 C 7.6255 10.7495 7.6255 13.28175 9.1875 14.84375 C 10.7505 16.40675 13.282703 16.40675 14.845703 14.84375 C 16.407703 13.28175 16.407703 10.7495 14.845703 9.1875 C 14.127328 8.47 13.167825 8.0546681 12.164062 8.0195312 z M 12.001953 9.4589844 C 12.799944 9.4528456 13.543113 9.8535155 13.980469 10.519531 L 13.980469 9.8554688 C 13.980469 9.6390905 14.156669 9.4628906 14.373047 9.4628906 L 14.765625 9.4628906 L 14.765625 11.820312 L 12.410156 11.820312 L 12.410156 11.427734 C 12.410156 11.211355 12.586356 11.035156 12.802734 11.035156 L 13.367188 11.035156 C 13.264368 10.857142 13.129744 10.694196 12.960938 10.568359 C 12.262695 10.045061 11.288504 10.176758 10.763672 10.875 C 10.550364 11.158901 10.449219 11.489536 10.449219 11.816406 L 9.6621094 11.816406 C 9.6605749 11.3238 9.8088721 10.830218 10.125 10.408203 C 10.502511 9.9063904 11.064035 9.5772873 11.685547 9.4882812 C 11.759208 9.4760043 11.83259 9.4674906 11.90625 9.4628906 C 11.93848 9.4613506 11.971263 9.4589844 12.001953 9.4589844 z M 9.265625 12.212891 L 11.623047 12.212891 L 11.623047 12.605469 C 11.623047 12.821847 11.446847 12.998047 11.230469 12.998047 L 10.666016 12.998047 C 10.768834 13.176061 10.901506 13.339425 11.070312 13.466797 C 11.768555 13.98856 12.746233 13.856446 13.269531 13.158203 C 13.48284 12.874303 13.582484 12.543662 13.583984 12.216797 L 14.371094 12.216797 C 14.372629 12.709403 14.22433 13.202985 13.908203 13.625 C 13.530691 14.126814 12.969168 14.455912 12.347656 14.544922 C 12.273995 14.557192 12.200613 14.565714 12.126953 14.570312 C 12.094723 14.571914 12.06348 14.572266 12.03125 14.572266 C 11.234793 14.578405 10.490094 14.179688 10.052734 13.513672 L 10.052734 14.177734 C 10.052734 14.394112 9.8765345 14.570312 9.6601562 14.570312 L 9.265625 14.570312 L 9.265625 12.212891 z " />
</svg>
