<?xml version="1.0" encoding="UTF-8" standalone="no"?>
<svg
   width="16"
   height="16"
   version="1.1"
   id="svg10191"
   xmlns="http://www.w3.org/2000/svg"
   xmlns:svg="http://www.w3.org/2000/svg">
  <defs
     id="defs10195" />
  <path
     id="path1052"
     style="color:#000000;font-style:normal;font-variant:normal;font-weight:normal;font-stretch:normal;font-size:medium;line-height:normal;font-family:sans-serif;text-indent:0;text-align:start;text-decoration:none;text-decoration-line:none;text-decoration-style:solid;text-decoration-color:#000000;letter-spacing:normal;word-spacing:normal;text-transform:none;writing-mode:lr-tb;direction:ltr;baseline-shift:baseline;text-anchor:start;white-space:normal;clip-rule:nonzero;display:inline;overflow:visible;visibility:visible;isolation:auto;mix-blend-mode:normal;color-interpolation:sRGB;color-interpolation-filters:linearRGB;solid-color:#000000;solid-opacity:1;fill:#000000;fill-opacity:1;fill-rule:nonzero;stroke:none;stroke-width:0.781919;stroke-linecap:butt;stroke-linejoin:miter;stroke-miterlimit:10;stroke-dasharray:none;stroke-dashoffset:0;stroke-opacity:1;color-rendering:auto;image-rendering:auto;shape-rendering:auto;text-rendering:auto;enable-background:accumulate"
     d="M 8.0117188 4.3574219 C 6.3532697 4.3574219 4.9473827 5.4825344 4.5117188 7.0058594 C 4.1330808 6.1978644 3.3122865 5.6308594 2.3671875 5.6308594 C 1.0674545 5.6308594 0 6.700267 0 8 C 0 9.299732 1.0674545 10.369141 2.3671875 10.369141 C 3.3122865 10.369141 4.1330807 9.8022766 4.5117188 8.9941406 C 4.9032667 10.363315 6.0796856 11.4094 7.5175781 11.607422 C 7.5580473 11.142405 7.6708341 10.682792 7.8554688 10.246094 C 6.6782989 10.16626 5.7597656 9.1989192 5.7597656 8 C 5.7597656 6.748063 6.7597848 5.7480479 8.0117188 5.7480469 C 9.2135121 5.7480469 10.184005 6.6683752 10.259766 7.8496094 C 10.707837 7.6615969 11.187298 7.547042 11.679688 7.5117188 C 12.041721 7.4859344 12.400737 7.504796 12.751953 7.5644531 C 12.909603 7.2406263 13.240009 7.0214844 13.630859 7.0214844 C 14.179367 7.0214844 14.609375 7.451496 14.609375 8 C 14.609375 8.1060948 14.594373 8.2077627 14.564453 8.3027344 C 14.783858 8.4548874 14.989937 8.6265973 15.181641 8.8183594 C 15.335715 8.9724438 15.476461 9.135292 15.603516 9.3046875 C 15.853591 8.9295072 16 8.4807552 16 8 C 16 6.700267 14.930593 5.6308594 13.630859 5.6308594 C 12.699183 5.6308594 11.889539 6.1810541 11.503906 6.9707031 C 11.057098 5.4645621 9.6579027 4.3574219 8.0117188 4.3574219 z M 2.3671875 7.0214844 C 2.9156915 7.0214844 3.3457031 7.451496 3.3457031 8 C 3.3457031 8.548503 2.9156915 8.9785156 2.3671875 8.9785156 C 1.8186855 8.9785156 1.390625 8.548503 1.390625 8 C 1.390625 7.451496 1.8186855 7.0214844 2.3671875 7.0214844 z " />
  <path
     id="path1"
     style="fill:#26a269;stroke-width:1.00011"
     class="error"
     d="M 12.146484 8.0019531 C 12.003048 7.9966445 11.859519 7.9994618 11.714844 8.0097656 C 10.754818 8.0786366 9.8522702 8.4912028 9.171875 9.171875 C 7.6098935 10.733956 7.6098935 13.266044 9.171875 14.828125 C 10.734196 16.389865 13.265804 16.389865 14.828125 14.828125 C 16.390106 13.266044 16.390106 10.733956 14.828125 9.171875 C 14.110371 8.4539033 13.150537 8.0391135 12.146484 8.0019531 z M 12 9 C 12.413086 9 12.75 9.336914 12.75 9.75 L 12.75 12.439453 L 13.720703 11.46875 C 14.013672 11.175781 14.488281 11.175781 14.78125 11.46875 C 15.074219 11.761719 15.074219 12.236328 14.78125 12.529297 L 12.53125 14.779297 C 12.51427 14.796277 12.495093 14.812815 12.476562 14.828125 C 12.462393 14.839805 12.446431 14.850848 12.431641 14.861328 C 12.427061 14.864578 12.424622 14.867894 12.419922 14.871094 C 12.410292 14.877594 12.400525 14.884625 12.390625 14.890625 C 12.389695 14.8912 12.387695 14.892089 12.386719 14.892578 C 12.384729 14.893491 12.380806 14.895384 12.378906 14.896484 C 12.361286 14.906834 12.342709 14.916881 12.324219 14.925781 C 12.318949 14.928281 12.313894 14.929241 12.308594 14.931641 C 12.290874 14.939671 12.272316 14.948378 12.253906 14.955078 C 12.246966 14.957578 12.239422 14.960591 12.232422 14.962891 C 12.229072 14.963991 12.226056 14.965697 12.222656 14.966797 C 12.177681 14.980737 12.132368 14.988841 12.085938 14.994141 C 12.082937 14.994541 12.079172 14.99579 12.076172 14.996094 C 12.060062 14.997694 12.043514 14.997449 12.027344 14.998047 C 12.018074 14.998447 12.0093 14.999999 12 15 C 11.998 15 11.996141 15.000015 11.994141 15 C 11.961441 14.9998 11.928934 14.996688 11.896484 14.992188 C 11.861305 14.987288 11.826429 14.980303 11.792969 14.970703 C 11.783559 14.968003 11.774925 14.964037 11.765625 14.960938 L 11.763672 14.960938 C 11.756772 14.958638 11.750941 14.957578 11.744141 14.955078 C 11.737711 14.952778 11.731009 14.949766 11.724609 14.947266 L 11.722656 14.947266 C 11.709866 14.942166 11.697977 14.937441 11.685547 14.931641 C 11.674677 14.926621 11.663004 14.921616 11.652344 14.916016 C 11.644754 14.912036 11.638259 14.906544 11.630859 14.902344 C 11.615479 14.893624 11.600798 14.8849 11.585938 14.875 C 11.568487 14.86339 11.549843 14.851121 11.533203 14.837891 L 11.533203 14.835938 L 11.53125 14.833984 L 11.529297 14.832031 L 11.527344 14.832031 C 11.518484 14.824831 11.510553 14.818247 11.501953 14.810547 C 11.492613 14.802237 11.483509 14.793956 11.474609 14.785156 L 11.46875 14.779297 L 9.21875 12.529297 C 8.9257812 12.236328 8.9257812 11.761719 9.21875 11.46875 C 9.5117187 11.175781 9.9863286 11.175781 10.279297 11.46875 L 11.25 12.439453 L 11.25 9.75 C 11.25 9.336914 11.586914 9 12 9 z " />
</svg>
