<?xml version="1.0" encoding="UTF-8" standalone="no"?>
<svg
   width="16"
   height="16"
   version="1.1"
   id="svg10191"
   xmlns="http://www.w3.org/2000/svg"
   xmlns:svg="http://www.w3.org/2000/svg">
  <defs
     id="defs10195" />
  <path
     id="path1052"
     style="color:#000000;font-style:normal;font-variant:normal;font-weight:normal;font-stretch:normal;font-size:medium;line-height:normal;font-family:sans-serif;text-indent:0;text-align:start;text-decoration:none;text-decoration-line:none;text-decoration-style:solid;text-decoration-color:#000000;letter-spacing:normal;word-spacing:normal;text-transform:none;writing-mode:lr-tb;direction:ltr;baseline-shift:baseline;text-anchor:start;white-space:normal;clip-rule:nonzero;display:inline;overflow:visible;visibility:visible;isolation:auto;mix-blend-mode:normal;color-interpolation:sRGB;color-interpolation-filters:linearRGB;solid-color:#000000;solid-opacity:1;fill:#000000;fill-opacity:1;fill-rule:nonzero;stroke:none;stroke-width:0.781919;stroke-linecap:butt;stroke-linejoin:miter;stroke-miterlimit:10;stroke-dasharray:none;stroke-dashoffset:0;stroke-opacity:1;color-rendering:auto;image-rendering:auto;shape-rendering:auto;text-rendering:auto;enable-background:accumulate"
     d="M 8.0117188 4.3574219 C 6.3532697 4.3574219 4.9473827 5.4825344 4.5117188 7.0058594 C 4.1330808 6.1978644 3.3122865 5.6308594 2.3671875 5.6308594 C 1.0674545 5.6308594 0 6.700267 0 8 C 0 9.299732 1.0674545 10.369141 2.3671875 10.369141 C 3.3122865 10.369141 4.1330807 9.8022766 4.5117188 8.9941406 C 4.9032667 10.363315 6.0796856 11.4094 7.5175781 11.607422 C 7.5580473 11.142405 7.6708341 10.682792 7.8554688 10.246094 C 6.6782989 10.16626 5.7597656 9.1989192 5.7597656 8 C 5.7597656 6.748063 6.7597848 5.7480479 8.0117188 5.7480469 C 9.2135121 5.7480469 10.184005 6.6683752 10.259766 7.8496094 C 10.707837 7.6615969 11.187298 7.547042 11.679688 7.5117188 C 12.041721 7.4859344 12.400737 7.504796 12.751953 7.5644531 C 12.909603 7.2406263 13.240009 7.0214844 13.630859 7.0214844 C 14.179367 7.0214844 14.609375 7.451496 14.609375 8 C 14.609375 8.1060948 14.594373 8.2077627 14.564453 8.3027344 C 14.783858 8.4548874 14.989937 8.6265973 15.181641 8.8183594 C 15.335715 8.9724438 15.476461 9.135292 15.603516 9.3046875 C 15.853591 8.9295072 16 8.4807552 16 8 C 16 6.700267 14.930593 5.6308594 13.630859 5.6308594 C 12.699183 5.6308594 11.889539 6.1810541 11.503906 6.9707031 C 11.057098 5.4645621 9.6579027 4.3574219 8.0117188 4.3574219 z M 2.3671875 7.0214844 C 2.9156915 7.0214844 3.3457031 7.451496 3.3457031 8 C 3.3457031 8.548503 2.9156915 8.9785156 2.3671875 8.9785156 C 1.8186855 8.9785156 1.390625 8.548503 1.390625 8 C 1.390625 7.451496 1.8186855 7.0214844 2.3671875 7.0214844 z " />
  <path
     id="path1"
     style="fill:#e01b24;stroke-width:1.00011"
     class="error"
     d="m 11.714647,8.0101098 a 4.0007542,4.0001388 0 0 0 -2.543437,1.16215 4.0007542,4.0001388 0 0 0 0,5.6564352 4.0007542,4.0001388 0 0 0 5.657304,0 4.0007542,4.0001388 0 0 0 0,-5.6564352 4.0007542,4.0001388 0 0 0 -3.113867,-1.16215 z m -1.129112,1.574265 c 0.255667,0 0.511256,0.0991 0.707162,0.294939 l 0.707164,0.7070542 0.707163,-0.7070542 c 0.391805,-0.391753 1.022513,-0.391753 1.414327,0 0.391814,0.3917532 0.391814,1.0223652 0,1.4141092 l -0.707162,0.707054 0.707162,0.707054 c 0.391814,0.391743 0.391814,1.022356 0,1.414109 -0.391814,0.391754 -1.022522,0.391754 -1.414327,0 l -0.707163,-0.707054 -0.707164,0.707054 c -0.391803,0.391754 -1.022512,0.391754 -1.4143236,0 -0.391814,-0.391753 -0.391814,-1.022366 0,-1.414109 L 10.585535,12.000477 9.8783734,11.293423 c -0.391814,-0.391744 -0.391814,-1.022356 0,-1.4141092 0.1959046,-0.195876 0.4514916,-0.294939 0.7071616,-0.294939 z" />
</svg>
