<?xml version="1.0" encoding="UTF-8" standalone="no"?>
<svg
   width="16"
   height="16"
   version="1"
   id="svg566"
   xmlns="http://www.w3.org/2000/svg"
   xmlns:svg="http://www.w3.org/2000/svg">
  <defs
     id="defs570" />
  <text
     style="font-style:normal;font-weight:400;font-size:1.88241px;font-family:Arial;fill:#ffffff;fill-opacity:1;fill-rule:evenodd;stroke:none;stroke-width:0.134459;stroke-linecap:square;stroke-linejoin:bevel;stroke-opacity:1"
     id="text1476"
     font-style="normal"
     font-weight="400"
     font-size="14"
     y="-9.5688715"
     x="-25.547142"
     xml:space="preserve"
     transform="scale(1.008439,0.99163165)" />
  <path
     id="path1"
     style="fill:#000000;stroke-width:0.0660155"
     class="st0"
     d="M 7.390625 0.91796875 C 4.3291594 1.7816705 2.4885231 4.7565447 2.1171875 5.3671875 C 1.7458505 5.9778302 0.73389167 8.8234439 2.1367188 11.001953 C 3.4809892 13.089526 5.8912379 13.302052 8.1425781 12.396484 L 8.1425781 11.4375 C 4.9111324 12.473243 1.7940818 10.253263 2.484375 6.4511719 C 3.1775377 2.6332795 7.390625 0.91796875 7.390625 0.91796875 z M 13.445312 6.0957031 C 13.31631 6.459686 13.170942 6.8209087 13.003906 7.1738281 C 13.068739 7.1403066 13.13559 7.1102621 13.205078 7.0859375 C 13.309573 6.7542411 13.387437 6.4169871 13.445312 6.0957031 z " />
  <path
     id="path2"
     style="fill:#000000;fill-opacity:0.8;stroke-width:0.0660155"
     class="st1"
     d="M 7.390625 0.91796875 C 7.390625 0.91796875 4.6754307 1.1596301 1.8945312 4.9472656 C -0.88636913 8.7349014 0.03853731 14.131936 4.15625 14.808594 C 5.579722 15.042511 6.9327746 14.760683 8.1425781 14.189453 L 8.1425781 12.396484 C 5.8912573 13.302012 3.4809768 13.089507 2.1367188 11.001953 C 0.73389168 8.8234443 1.7458505 5.9778302 2.1171875 5.3671875 C 2.4885231 4.7565448 4.3291594 1.7816706 7.390625 0.91796875 z M 13.613281 4.2285156 C 13.613281 4.2285156 13.639379 5.707414 13.205078 7.0859375 C 13.365293 7.0298429 13.537052 7 13.714844 7 L 13.767578 7 C 13.988187 5.8075566 13.840516 4.9172112 13.613281 4.2285156 z " />
  <path
     id="path3"
     style="fill:#000000;fill-opacity:0.4;stroke-width:0.0660155"
     class="st2"
     d="M 9.8632812 0.12109375 C 8.9813564 0.11163884 8.1542461 0.26679752 7.5683594 0.46484375 C 7.0405913 0.6432443 6.5947745 0.83032424 6.1484375 1.0605469 C 6.0934162 1.0892091 6.0475498 1.1194698 5.9941406 1.1484375 C 5.558946 1.3824114 5.1201816 1.6523039 4.5957031 2.0117188 C 5.2643592 1.5669593 7.339239 0.30859375 9.4453125 0.30859375 C 12.00341 0.30859375 13.603712 2.1734422 13.966797 3.7578125 C 14.184156 4.7062885 14.283371 5.8006313 14.080078 7 L 14.847656 7 C 15.021494 6.0092649 15.010617 5.1376607 14.894531 4.4824219 C 14.646973 3.0850954 14.09075 1.6823864 12.484375 0.76367188 C 11.681188 0.30431459 10.745207 0.13054907 9.8632812 0.12109375 z M 8.1425781 14.492188 C 8.090509 14.51792 8.0375082 14.542747 7.984375 14.568359 C 5.2282313 15.896919 2.3984375 14.75 2.3984375 14.75 C 2.3984375 14.75 3.0086197 15.357689 4.1328125 15.716797 C 4.1349295 15.717305 6.1719252 16.20351 8.1425781 15.40625 L 8.1425781 14.492188 z M 4.6894531 15.859375 C 4.7312421 15.867975 4.7735557 15.875072 4.8164062 15.882812 C 4.7738973 15.875113 4.7312257 15.867895 4.6894531 15.859375 z " />
  <path
     id="path4-0"
     style="fill:#000000;fill-opacity:0.6;stroke-width:0.0660155"
     class="st3"
     d="M 9.8125 0 C 6.6808935 0 4.3710938 2.1660156 4.3710938 2.1660156 C 5.623324 1.2933741 6.3965861 0.86093636 7.5683594 0.46484375 C 8.7401327 0.06875127 10.877999 -0.15504284 12.484375 0.76367188 C 14.09075 1.6823865 14.646973 3.0850954 14.894531 4.4824219 C 15.01062 5.137679 15.021483 6.0092303 14.847656 7 L 15.427734 7 C 15.505881 7 15.582884 7.0061777 15.658203 7.0175781 C 15.835151 5.2104363 15.398997 3.7277356 15.019531 2.9492188 C 14.380006 1.637162 12.944107 0 9.8125 0 z M 8.1425781 15.40625 C 6.1708013 16.203936 4.1328125 15.716797 4.1328125 15.716797 C 5.2339664 16.079826 6.7808629 16.079393 8.0351562 15.798828 C 8.0817283 15.788411 8.1292747 15.776029 8.1796875 15.763672 C 8.155346 15.655038 8.1425781 15.542957 8.1425781 15.427734 L 8.1425781 15.40625 z " />
  <g
     fill="#2e3436"
     id="g2"
     transform="matrix(0.57142857,0,0,0.57142857,8,7.4285715)"
     style="fill:#000000">
    <path
       d="m 3,1 h 3 c 0.550781,0 1,0.449219 1,1 v 12 c 0,0.550781 -0.449219,1 -1,1 H 3 C 2.449219,15 2,14.550781 2,14 V 2 C 2,1.449219 2.449219,1 3,1 Z m 0,0"
       id="path1-9"
       style="fill:#000000" />
    <path
       d="m 10,1 h 3 c 0.550781,0 1,0.449219 1,1 v 12 c 0,0.550781 -0.449219,1 -1,1 H 10 C 9.449219,15 9,14.550781 9,14 V 2 C 9,1.449219 9.449219,1 10,1 Z m 0,0"
       id="path2-2"
       style="fill:#000000" />
  </g>
</svg>
