<?xml version="1.0" encoding="UTF-8" standalone="no"?>
<svg
   width="16"
   height="16"
   version="1"
   id="svg566"
   xmlns="http://www.w3.org/2000/svg"
   xmlns:svg="http://www.w3.org/2000/svg">
  <defs
     id="defs570" />
  <text
     style="font-style:normal;font-weight:400;font-size:1.88241px;font-family:Arial;fill:#ffffff;fill-opacity:1;fill-rule:evenodd;stroke:none;stroke-width:0.134459;stroke-linecap:square;stroke-linejoin:bevel;stroke-opacity:1"
     id="text1476"
     font-style="normal"
     font-weight="400"
     font-size="14"
     y="-9.5688715"
     x="-25.547142"
     xml:space="preserve"
     transform="scale(1.008439,0.99163165)" />
  <path
     id="path1"
     style="fill:#000000;stroke-width:0.0660155"
     class="st0"
     d="M 7.3904994,0.91737282 C 4.3290338,1.7810746 2.4890591,4.7572068 2.1177235,5.3678496 1.7463865,5.9784923 0.73396482,8.8228148 2.1367919,11.001324 3.5396203,13.179834 6.1032405,13.317225 8.4357855,12.271981 10.76833,11.226735 11.80818,9.7030261 12.732396,8.1681673 13.106106,7.5475416 13.321566,6.7845879 13.445584,6.0961333 12.656715,8.3219382 11.239351,10.419776 8.1828723,11.424788 4.937114,12.492038 1.790293,10.269428 2.483455,6.4515359 3.1766177,2.6336435 7.3904994,0.91737282 7.3904994,0.91737282 Z" />
  <path
     class="st1"
     d="m 7.3906032,0.91733933 c 0,0 -2.7148846,0.24205657 -5.4957841,4.02969207 -2.78090038,3.7876358 -1.85668479,9.1843976 2.2610279,9.8610556 4.1177126,0.676657 7.649538,-2.962443 8.81306,-5.4380213 1.163523,-2.4755787 1.001234,-4.0571984 0.64365,-5.1409516 0,0 0.04401,2.4040621 -0.880205,3.9389208 C 11.808136,9.7028937 10.768393,11.226749 8.4358481,12.271995 6.103303,13.317239 3.5397031,13.179707 2.1368746,11.001197 0.73404753,8.8226882 1.7462848,5.978523 2.1176218,5.3678803 2.4889574,4.7572376 4.3291376,1.7810412 7.3906032,0.91733933 Z"
     id="path2"
     style="fill:#000000;fill-opacity:0.8;stroke-width:0.0660155" />
  <path
     id="path3"
     style="fill:#000000;fill-opacity:0.4;stroke-width:0.0660155"
     class="st2"
     d="M 9.8634867,0.12076265 C 8.9815618,0.11130774 8.1538226,0.26620157 7.5679359,0.4642478 7.0401678,0.64264835 6.593987,0.83095316 6.14765,1.0611758 6.0926287,1.089838 6.046663,1.1185429 5.9932538,1.1475106 5.5580592,1.3814845 5.1202216,1.6517079 4.5957431,2.0111228 5.2643992,1.5663633 7.3392459,0.30932197 9.4453194,0.30932197 c 2.5580976,0 4.1588956,1.86504703 4.5219806,3.44941733 0.363085,1.5843705 0.396265,3.5731764 -0.759004,5.7846928 -1.15527,2.2115169 -2.467373,3.6968629 -5.2235168,5.0254239 -2.7561437,1.32856 -5.5866001,0.181409 -5.5866001,0.181409 0,0 0.6104474,0.607788 1.7346402,0.966896 0.00226,5.42e-4 2.3236018,0.55374 4.4075742,-0.490996 C 10.625381,14.180922 11.951173,13.10277 13.431018,10.682203 14.910864,8.2616372 15.14203,5.8795828 14.894472,4.4822563 14.646914,3.0849298 14.091154,1.681956 12.484779,0.76324143 11.681592,0.30388414 10.745412,0.13021797 9.8634867,0.12076265 Z M 4.5936245,2.012447 c -0.00296,0.00203 -0.00498,0.00273 -0.00794,0.00477 C 4.5369435,2.05065 4.4865315,2.085667 4.4363201,2.120501 4.479012,2.0894763 4.5466033,2.046063 4.593625,2.0124475 Z m 0.095604,13.846928 c 0.041789,0.0086 0.084268,0.01583 0.1271186,0.02357 -0.042509,-0.0077 -0.085346,-0.01505 -0.1271186,-0.02357 z m 0.5815678,0.08157 c 0.093602,0.009 0.1863703,0.0173 0.2841631,0.02172 -0.095152,-0.0069 -0.1909463,-0.01137 -0.2841631,-0.02172 z" />
  <path
     class="st3"
     d="m 4.3703972,2.1661313 c 0,0 2.3105401,-2.16613136 5.4421466,-2.16613136 3.1316072,0 4.5674422,1.63800786 5.2069672,2.95006466 0.639525,1.3120567 1.439962,4.6210805 -0.804563,8.1198974 -2.244525,3.498818 -4.9264018,4.447791 -6.1806949,4.728357 -1.2542933,0.280565 -2.8011108,0.281829 -3.9022647,-0.0812 0,0 2.3233959,0.554309 4.4083832,-0.490936 C 10.625359,14.180941 11.951169,13.102688 13.431014,10.682122 14.91086,8.2615557 15.141915,5.8794995 14.894357,4.4821729 14.646799,3.0848464 14.091169,1.682018 12.484794,0.7633034 10.878418,-0.15541131 8.739793,0.06807831 7.5680197,0.46417079 6.3962464,0.8602634 5.6226275,1.2934898 4.3703972,2.1661313 Z"
     id="path4-0"
     style="fill:#000000;fill-opacity:0.6;stroke-width:0.0660155" />
</svg>
