<?xml version="1.0" encoding="UTF-8" standalone="no"?>
<svg
   height="16"
   viewBox="0 0 16 16"
   width="16"
   version="1.1"
   id="svg4"
   xmlns="http://www.w3.org/2000/svg"
   xmlns:svg="http://www.w3.org/2000/svg">
  <defs
     id="defs8" />
  <path
     d="M 2.133333,0 C 0.970833,0 0,0.9708331 0,2.1333333 v 3.2 c 0,1.1625003 0.970833,2.1333334 2.133333,2.1333334 h 3.2 c 1.162501,0 2.133334,-0.9708331 2.133334,-2.1333334 v -3.2 C 7.466667,0.9708331 6.495834,0 5.333333,0 Z m 8.533334,0 C 9.504166,0 8.533333,0.9708331 8.533333,2.1333333 v 3.2 c 0,1.1625003 0.970833,2.1333334 2.133334,2.1333334 h 3.2 C 15.029167,7.4666667 16,6.4958336 16,5.3333333 v -3.2 C 16,0.9708331 15.029167,0 13.866667,0 Z M 2.133333,2.1333333 h 3.2 v 3.2 h -3.2 z m 8.533334,0 h 3.2 v 3.2 h -3.2 z m -8.533334,6.4 C 0.970833,8.5333333 0,9.5041664 0,10.666667 v 3.2 C 0,15.029167 0.970833,16 2.133333,16 h 3.2 c 1.162501,0 2.133334,-0.970833 2.133334,-2.133333 v -3.2 c 0,-1.1625006 -0.970833,-2.1333337 -2.133334,-2.1333337 z m 8.533334,0 c -1.162501,0 -2.133334,0.9708331 -2.133334,2.1333337 v 3.2 C 8.533333,15.029167 9.504166,16 10.666667,16 h 3.2 C 15.029167,16 16,15.029167 16,13.866667 v -3.2 C 16,9.5041664 15.029167,8.5333333 13.866667,8.5333333 Z M 2.133333,10.666667 h 3.2 v 3.2 h -3.2 z m 8.533334,0 h 3.2 v 3.2 h -3.2 z m 0,0"
     fill="#2e3436"
     id="path1"
     style="fill:#000000;stroke-width:1.06667" />
</svg>
