<?xml version="1.0" encoding="UTF-8" standalone="no"?>
<svg
   height="16px"
   viewBox="0 0 16 16"
   width="16px"
   version="1.1"
   id="svg17"
   xmlns="http://www.w3.org/2000/svg"
   xmlns:svg="http://www.w3.org/2000/svg">
  <defs
     id="defs17" />
  <filter
     id="a"
     height="1"
     width="1"
     x="0"
     y="0">
    <feColorMatrix
       in="SourceGraphic"
       type="matrix"
       values="0 0 0 0 1 0 0 0 0 1 0 0 0 0 1 0 0 0 1 0"
       id="feColorMatrix1" />
  </filter>
  <mask
     id="b">
    <g
       filter="url(#a)"
       id="g1">
      <rect
         fill-opacity="0.4"
         height="16"
         width="16"
         id="rect1" />
    </g>
  </mask>
  <clipPath
     id="c">
    <rect
       height="152"
       width="192"
       id="rect2" />
  </clipPath>
  <mask
     id="d">
    <g
       filter="url(#a)"
       id="g3">
      <rect
         fill-opacity="0.4"
         height="16"
         width="16"
         id="rect3" />
    </g>
  </mask>
  <clipPath
     id="e">
    <rect
       height="152"
       width="192"
       id="rect4" />
  </clipPath>
  <mask
     id="f">
    <g
       filter="url(#a)"
       id="g5">
      <rect
         fill-opacity="0.4"
         height="16"
         width="16"
         id="rect5" />
    </g>
  </mask>
  <clipPath
     id="g">
    <rect
       height="152"
       width="192"
       id="rect6" />
  </clipPath>
  <g
     clip-path="url(#c)"
     mask="url(#b)"
     transform="matrix(1 0 0 1 -168 -16)"
     id="g6">
    <path
       d="m 96 96 h 6 c 0.550781 0 1 0.449219 1 1 s -0.449219 1 -1 1 h -6 c -0.550781 0 -1 -0.449219 -1 -1 s 0.449219 -1 1 -1 z m 0 0"
       fill="#8f3200"
       id="path6" />
  </g>
  <g
     clip-path="url(#e)"
     mask="url(#d)"
     transform="matrix(1 0 0 1 -168 -16)"
     id="g7">
    <path
       d="m 96 100 h 6 c 0.550781 0 1 0.449219 1 1 s -0.449219 1 -1 1 h -6 c -0.550781 0 -1 -0.449219 -1 -1 s 0.449219 -1 1 -1 z m 0 0"
       fill="#8f3200"
       id="path7" />
  </g>
  <g
     clip-path="url(#g)"
     mask="url(#f)"
     transform="matrix(1 0 0 1 -168 -16)"
     id="g8">
    <path
       d="m 96 104 h 6 c 0.550781 0 1 0.449219 1 1 s -0.449219 1 -1 1 h -6 c -0.550781 0 -1 -0.449219 -1 -1 s 0.449219 -1 1 -1 z m 0 0"
       fill="#8f3200"
       id="path8" />
  </g>
  <path
     d="M 7.1321727,2.4075325 0,6.2664855 7.1666276,10.780084 13.562326,6.8866745 h 0.228263 v 3.1655485 c -0.0043,0.03445 -0.0086,0.07322 -0.0086,0.111978 0,0.03877 0.0043,0.07752 0.0086,0.116286 v 1.007807 c 0.03014,0.766622 0.486677,1.335129 0.882909,1.714133 0.396232,0.374698 0.788157,0.590041 0.788157,0.590041 L 16,12.627729 c 0,0 -0.279947,-0.155047 -0.568507,-0.42638 -0.279946,-0.267025 -0.50821,-0.607268 -0.534051,-0.930283 0.607268,-0.0043 1.09825,-0.499596 1.09825,-1.106865 -0.0043,-0.6115745 -0.495275,-1.1068645 -1.102545,-1.1068645 v -3.27322 h -1.451414 z m 0.034455,3.342129 c 0.6072681,0 1.1025581,0.245491 1.1025581,0.551279 0,0.305788 -0.49529,0.551279 -1.1025581,0.551279 -0.607268,0 -1.1025581,-0.245491 -1.1025581,-0.551279 0,-0.305788 0.4952901,-0.551279 1.1025581,-0.551279 z m -4.3757774,3.772816 c -0.012921,0.09906 -0.034455,0.198116 -0.034455,0.30148 0,2.0113085 1.9725447,3.6436115 4.4102323,3.6436115 2.4376876,0 4.4102324,-1.632303 4.4102324,-3.6436115 0,-0.07752 -0.03015,-0.150739 -0.03445,-0.228263 L 7.1666326,12.365011 Z m 0,0"
     fill="#222222"
     id="path1"
     style="fill:#000000;stroke-width:1.10256" />
</svg>
