<?xml version="1.0" encoding="UTF-8" standalone="no"?>
<svg
   width="16"
   height="16"
   viewBox="0 0 16 16"
   version="1.1"
   id="svg5"
   xmlns="http://www.w3.org/2000/svg"
   xmlns:svg="http://www.w3.org/2000/svg">
  <defs
     id="defs5" />
  <path
     d="m 10.819225,1.3981643 c 0.561783,0.5146402 1.229636,1.2139216 2.192131,2.1803453 0.282856,0.2828555 0.392855,0.7503535 0.176785,1.2532075 -0.09822,0.251427 -0.03928,0.534283 0.153213,0.722853 0.263214,0.255356 0.683568,0.255356 0.950709,0 0.263213,-0.263213 0.797496,-0.08643 0.927138,0.04322 l 0.483212,0.483212 v -0.0039 c 0.396783,0.392855 0.396783,1.033209 0,1.426064 l -2.376773,2.3807 c -0.392855,0.3928549 -1.033209,0.3928549 -1.426063,0 l -0.463569,-0.526421 c -0.263213,-0.263213 -0.263213,-0.687496 0,-0.950709 0.263212,-0.263213 0.263212,-0.687496 0,-0.950709 -0.263213,-0.255356 -0.750353,-0.29857 -1.017494,-0.04322 l -1.1785651,1.11178 -2.455344,-2.459273 c 0,0 0.844638,-0.832852 1.092137,-1.072494 0.62071,-0.628568 0.06286,-1.158922 -0.212141,-1.4260634 C 6.9967469,2.9028321 5.6138969,2.639619 4.6710449,2.678905 4.3764039,2.690691 4.1092619,2.5099771 4.0071209,2.2349782 3.9089009,1.9560519 4.0032209,1.6456962 4.2428339,1.4689117 7.0124609,0.30212118 9.7270889,0.30212118 10.819225,1.3981867 Z M 8.3560249,9.4791911 3.0367689,14.786661 c -0.373213,0.377141 -0.675711,0.628568 -1.025352,0.628568 -1.09606503,-0.0275 -1.98391703,-0.915352 -2.011417025,-2.011417 0,-0.534283 0.129642005,-0.73071 0.506782995,-1.103922 L 5.8338959,6.9963481 Z m 0,0"
     fill="#222222"
     id="path1-6"
     style="fill:#000000;stroke-width:1.00571" />
</svg>
