<?xml version="1.0" encoding="UTF-8" standalone="no"?>
<svg
   height="16px"
   viewBox="0 0 16 16"
   width="16px"
   version="1.1"
   id="svg17"
   xmlns="http://www.w3.org/2000/svg"
   xmlns:svg="http://www.w3.org/2000/svg">
  <defs
     id="defs17" />
  <filter
     id="a"
     height="1"
     width="1"
     x="0"
     y="0">
    <feColorMatrix
       in="SourceGraphic"
       type="matrix"
       values="0 0 0 0 1 0 0 0 0 1 0 0 0 0 1 0 0 0 1 0"
       id="feColorMatrix1" />
  </filter>
  <mask
     id="b">
    <g
       filter="url(#a)"
       id="g1">
      <rect
         fill-opacity="0.4"
         height="16"
         width="16"
         id="rect1" />
    </g>
  </mask>
  <clipPath
     id="c">
    <rect
       height="152"
       width="192"
       id="rect2" />
  </clipPath>
  <mask
     id="d">
    <g
       filter="url(#a)"
       id="g3">
      <rect
         fill-opacity="0.4"
         height="16"
         width="16"
         id="rect3" />
    </g>
  </mask>
  <clipPath
     id="e">
    <rect
       height="152"
       width="192"
       id="rect4" />
  </clipPath>
  <mask
     id="f">
    <g
       filter="url(#a)"
       id="g5">
      <rect
         fill-opacity="0.4"
         height="16"
         width="16"
         id="rect5" />
    </g>
  </mask>
  <clipPath
     id="g">
    <rect
       height="152"
       width="192"
       id="rect6" />
  </clipPath>
  <g
     clip-path="url(#c)"
     mask="url(#b)"
     transform="matrix(1 0 0 1 -168 -16)"
     id="g6">
    <path
       d="m 96 96 h 6 c 0.550781 0 1 0.449219 1 1 s -0.449219 1 -1 1 h -6 c -0.550781 0 -1 -0.449219 -1 -1 s 0.449219 -1 1 -1 z m 0 0"
       fill="#8f3200"
       id="path6" />
  </g>
  <g
     clip-path="url(#e)"
     mask="url(#d)"
     transform="matrix(1 0 0 1 -168 -16)"
     id="g7">
    <path
       d="m 96 100 h 6 c 0.550781 0 1 0.449219 1 1 s -0.449219 1 -1 1 h -6 c -0.550781 0 -1 -0.449219 -1 -1 s 0.449219 -1 1 -1 z m 0 0"
       fill="#8f3200"
       id="path7" />
  </g>
  <g
     clip-path="url(#g)"
     mask="url(#f)"
     transform="matrix(1 0 0 1 -168 -16)"
     id="g8">
    <path
       d="m 96 104 h 6 c 0.550781 0 1 0.449219 1 1 s -0.449219 1 -1 1 h -6 c -0.550781 0 -1 -0.449219 -1 -1 s 0.449219 -1 1 -1 z m 0 0"
       fill="#8f3200"
       id="path8" />
  </g>
  <path
     id="path15"
     style="fill:#000000;stroke-width:1.024"
     d="M 0.768,0.832 0,3.904 H 1.024 V 8 C 0.4600003,8 0,8.4600003 0,9.024 v 5.12 c 0,0.564 0.4600003,1.024 1.024,1.024 h 1.024 c 0.5639997,0 1.024,-0.46 1.024,-1.024 V 9.024 C 3.072,8.4600003 2.6119997,8 2.048,8 V 3.904 H 3.072 L 2.304,0.832 Z m 8.448,5.12 h 2.048 v 9.216 H 9.216 Z m 0,0 M 4.608,0.832 C 4.3239997,0.832 4.096,1.0879995 4.096,1.4 v 2.96 c 0,0.3120005 0.2279997,0.568 0.512,0.568 h 2.048 c 0.2840003,0 0.512,-0.2559995 0.512,-0.568 V 3.904 h 1.024 v 0.64 c 0,0.2119997 0.1720003,0.384 0.384,0.384 h 3.328 c 0.212,0 0.384,-0.1720003 0.384,-0.384 V 3.1239999 C 13.456887,3.0898289 14.195521,3.0354129 15.47,3.87 c 0.04816,0.031534 0.09625,0.063875 0.146,0.098 L 16,3.776 C 15.36,1.216 13.228,0.832 12.148,0.832 H 11.904 10.24 8.576 c -0.2119997,0 -0.384,0.1720003 -0.384,0.384 v 0.64 H 7.168 V 1.4 C 7.168,1.0879995 6.9400003,0.832 6.656,0.832 Z" />
</svg>
