<?xml version="1.0" encoding="UTF-8" standalone="no"?>
<svg
   width="16"
   height="16.004"
   version="1.1"
   id="svg3"
   xmlns="http://www.w3.org/2000/svg"
   xmlns:svg="http://www.w3.org/2000/svg">
  <defs
     id="defs3" />
  <path
     id="path2"
     style="color:#000000;line-height:normal;-inkscape-font-specification:Sans;text-indent:0;text-align:start;text-decoration-line:none;text-transform:none;fill:#000000;stroke-width:1.06717;marker:none"
     d="M 7.1015527,0.05812639 C 3.0185676,0.54795655 0.08172095,4.2809106 0.59929748,8.3606942 0.7390965,9.4652132 0.91197773,9.8365877 0.91197773,9.8365877 L 2.6994843,8.0949694 A 5.3273032,5.3273032 0 0 1 7.3683447,2.157246 5.3273032,5.3273032 0 0 1 13.305001,6.8261065 C 13.640092,9.6092809 11.82057,12.188626 9.0694107,12.72968 l 0.033082,2.134337 c 0,0 0.5559946,-0.11312 0.6659129,-0.139799 C 13.413852,13.834199 15.857667,10.318948 15.406255,6.5603816 14.915358,2.4763293 11.185605,-0.43490527 7.1015525,0.05599205 Z M 8.0022426,4.0952233 V 15.172428 l -2.501442,-2.44168 -1.4300053,2.917637 c -0.348964,0.789705 -2.1695527,0.15474 -1.6519762,-0.90069 L 3.833884,11.718005 H 0.67720075 Z" />
  <path
     d="M 3.8541602,7.2636454 V 7.0438088 L 3.6428609,7.064085 3.6962193,6.6446879 H 3.5713606 L 3.4486363,6.8047631 3.3248448,6.8645245 3.1487621,6.7652779 3.1306202,6.5454413 3.1658368,6.3053284 3.4304944,6.1068352 H 3.6428609 L 3.6780774,5.9862452 3.941668,6.0460066 4.1358926,6.2861194 4.1711091,5.8869986 4.5061999,5.6074005 4.6299914,5.3085934 4.8765072,5.2082796 5.0184406,5.0087192 5.3353895,4.9489578 5.4943976,4.708845 H 5.0184406 L 5.3172477,4.5701131 H 5.5296141 L 5.8284212,4.4697993 5.8647049,4.3502765 5.7579881,4.2499627 5.6352637,4.2104775 5.6704803,4.0909546 5.5819053,3.9106032 5.3706061,3.9906408 5.4058226,3.8305656 5.1593068,3.6918338 4.9650822,4.0301261 4.983224,4.1507161 4.7889994,4.2307537 4.6652079,4.4900755 4.6118495,4.2499627 4.2778259,4.1112308 4.2244675,3.9308794 4.6652079,3.6715576 4.8594325,3.4922733 4.8775744,3.2724367 4.7708576,3.2126753 4.6299914,3.1923991 4.5424836,3.4122357 c 0,0 -0.1483364,0.028814 -0.1856872,0.038418 C 3.872302,3.89673 2.8947761,4.8593157 2.6664021,6.6777701 c 0.00854,0.042687 0.165411,0.2860011 0.165411,0.2860011 l 0.3703074,0.2198366 0.3703073,0.099247 M 7.8048165,2.6940316 7.3459342,2.5147474 6.8166188,2.5745088 6.1645791,2.753793 6.0407876,2.8733158 6.4463115,3.1529139 V 3.3129891 L 6.2873035,3.4730643 6.4996699,3.8913942 6.6405361,3.8113566 6.8166188,3.5317586 A 5.8800962,5.8800962 0 0 0 7.59245,3.2329515 L 7.8048165,2.6940316 M 10.503685,3.0590031 10.103497,3.1593169 9.8697868,3.3257951 v 0.133396 L 9.4695987,3.7259831 9.5699125,4.093089 9.8036223,3.9255436 9.9370184,4.093089 10.103497,4.1923356 10.20381,3.8935285 10.136579,3.7259831 10.20381,3.6256693 10.436453,3.4261089 h 0.100314 l -0.100314,0.2326427 v 0.2006276 c 0.09605,-0.025612 0.170747,-0.054426 0.266792,-0.067232 l -0.266792,0.2006276 v 0.133396 L 10.103497,4.359881 9.8036223,4.2926494 V 4.1261712 l -0.133396,0.066164 0.066165,0.1675454 H 9.5026809 L 9.3692849,4.5925236 9.2028067,4.760069 9.1024929,4.7920841 v 0.2006276 l 0.034149,0.1675454 H 9.1014249 V 5.7258562 L 9.1686569,5.6938412 9.2689707,5.4601314 9.4695983,5.3267354 9.5026803,5.2264216 9.8036217,5.1602576 9.9701,5.359818 l 0.19956,0.1003138 -0.09925,0.1995604 0.166479,-0.032015 0.06616,-0.234777 -0.19956,-0.2326426 h 0.06616 l 0.234777,0.1664782 0.03201,0.2337098 0.167545,0.2337098 0.06616,-0.3340236 0.100314,-0.033082 c 0.102448,0.1067168 0.180351,0.2465158 0.266792,0.3671058 h 0.299874 l 0.200628,0.133396 -0.100314,0.099247 -0.166479,0.1675454 h -0.26677 L 10.637081,6.0940292 H 10.436453 L 10.303057,6.2605074 9.9370184,5.8603193 9.6702263,5.7941549 9.2700383,5.8603193 9.1024929,5.9606332 v 2.5676064 l 0.034149,0.033082 0.266792,-0.1664782 0.099247,0.1003138 h 0.2998743 l 0.133396,0.1664782 -0.099247,0.3329565 0.1995608,0.2006276 v 0.400188 l 0.133396,0.266792 -0.09925,0.2667925 c -0.01067,0.171814 0,0.32762 0,0.500502 0.08537,0.233709 0.152605,0.464218 0.232643,0.700062 l 0.06723,0.367106 v 0.19956 h 0.133396 l 0.233709,-0.133396 h 0.266792 l 0.400188,-0.466352 -0.03415,-0.167546 0.266792,-0.232642 -0.19956,-0.200628 0.23371,-0.19956 0.232642,-0.133396 0.100314,-0.133396 -0.06616,-0.2667927 V 9.3286157 L 12.137519,8.9284276 12.338147,8.6616356 12.604939,8.06082 V 7.8943417 c -0.124859,0.016008 -0.245449,0.024545 -0.367106,0.033082 -0.07684,0.00534 -0.15474,0 -0.23371,0 A 7.941865,7.941865 0 0 1 11.671167,7.0950328 l -0.167546,-0.2006276 -0.09925,-0.3340236 0.06616,-0.066164 0.23371,0.266792 0.266792,0.5997485 0.166478,0.1664782 -0.06616,0.234777 0.166478,0.1654111 0.266792,-0.2667921 0.332956,-0.2326426 0.167546,-0.2006276 V 6.9936519 C 12.96244,6.9157486 12.946432,6.8389125 12.904813,6.7610092 L 12.738335,6.9605697 12.604939,6.7940914 12.404311,6.6606954 V 6.3608212 l 0.23371,0.2326426 0.23371,-0.032015 c 0.107784,0.097112 0.204896,0.2209038 0.298807,0.3329564 l 0.167545,-0.2016947 c 0,-0.1856873 -0.213434,-1.0885115 -0.66698,-1.8675442 C 12.217557,4.0461336 11.438524,3.3257951 11.438524,3.3257951 L 11.371292,3.4261089 11.13865,3.6587516 10.871858,3.3919595 h 0.266792 l 0.133396,-0.133396 -0.501569,-0.099247 z"
     style="color:#000000;fill:#000000;stroke-width:1.06717;marker:none"
     overflow="visible"
     opacity="0.3"
     id="path3" />
</svg>
