<?xml version="1.0" encoding="UTF-8" standalone="no"?>
<svg
   height="16px"
   viewBox="0 0 16 16"
   width="16px"
   version="1.1"
   id="svg3"
   xmlns="http://www.w3.org/2000/svg"
   xmlns:svg="http://www.w3.org/2000/svg">
  <defs
     id="defs3" />
  <path
     d="M 0,0 V 2 H 0.08594 C 0.585938,2 1,2.414062 1,2.914062 V 16 h 2 v -2.007812 h 1 c 0,1.109374 0.890625,2 2,2 h 5 c 1.109375,0 2,-0.890626 2,-2 1.660156,0 3,-1.339844 3,-3 v -6 c 0,-1.660157 -1.339844,-3 -3,-3 H 2.847656 C 2.464844,0.832031 1.378906,0 0.085938,0 Z m 3,3.992188 h 10 c 0.546875,0 1,0.453124 1,1 v 6 c 0,0.546874 -0.453125,1 -1,1 h -2 v 2 h -1 v -2 H 9 v 2 H 8 v -2 H 7 v 2 H 6 v -2 H 3 Z m 3,1 v 1 H 5 v 3 h 1 v 1 h 1 v -1 h 1 v 1 h 1 v -1 h 1 v 1 h 1 v -1 h 1 v -3 h -1 v -1 h -1 v 1 H 9 v -1 H 8 v 1 H 7 v -1 z m 0,0"
     fill="#222222"
     id="path1-6"
     style="fill:#000000" />
</svg>
