<?xml version="1.0" encoding="UTF-8" standalone="no"?>
<svg
   width="16"
   height="16"
   version="1"
   id="svg566"
   xmlns="http://www.w3.org/2000/svg"
   xmlns:svg="http://www.w3.org/2000/svg">
  <defs
     id="defs570" />
  <path
     id="path3852"
     d="m 8.7723142,3.2675988 c -0.540942,-0.0012 -0.989244,0.09215 -1.424176,0.310591 -0.402998,0.202407 -0.892658,0.604711 -1.136312,0.924199 -0.411999,0.540232 -0.396025,0.524901 -0.59088,0.446949 -0.614378,-0.245778 -1.321429,-0.288096 -1.886273,-0.113631 -1.045525,0.322927 -1.796086,1.328393 -1.840824,2.46958 -0.0072,0.183749 -0.02531,0.35387 -0.04545,0.386346 -0.02014,0.032474 -0.152228,0.08705 -0.287867,0.1212062 C 0.91784223,7.9746687 0.41127623,8.3863299 0.14393423,8.9567248 0.01711223,9.2272959 -7.736638e-7,9.3208479 -7.736638e-7,9.8657728 c 0,0.5729112 0.007300003664,0.6155102 0.1666580036638,0.9393502 0.277057,0.563224 1.04540597,1.196913 1.77264397,1.196913 h 1.409024 c -0.004,-0.04241 -0.03337,-0.121447 -0.07575,-0.204536 -0.149932,-0.293886 -0.257407,-0.807862 -0.257565,-1.227215 -4.33e-4,-1.1521642 0.689823,-2.0493873 1.878699,-2.4392792 0.384001,-0.125931 0.47725,-0.1843939 0.47725,-0.2954401 0,-0.1565237 0.285114,-0.7907918 0.507553,-1.1287349 0.312012,-0.474024 0.72075,-0.837495 1.234792,-1.090858 1.28669,-0.634188 2.799672,-0.427451 3.7270968,0.499976 l 0.333317,0.3257431 0.356044,-0.090905 c 0.198264,-0.051675 0.42831,-0.09682 0.507551,-0.09848 0.181581,-0.0038 0.191821,-0.13733 0.03788,-0.598457 -0.481817,-1.443251 -1.790997,-2.382542 -3.3028738,-2.386251 z m -0.09848,2.590787 c -0.640972,-0.0034 -0.909461,0.06028 -1.439325,0.325742 -0.506282,0.253644 -0.978889,0.8697749 -1.234791,1.6135609 -0.05633,0.1637251 -0.106056,0.3470521 -0.106056,0.4090711 0,0.1976541 -0.120313,0.2840861 -0.507551,0.3636192 -0.778219,0.1598378 -1.367456,0.5986069 -1.590834,1.174188 -0.09113,0.2348101 -0.121753,0.407619 -0.121208,0.772691 0.0017,1.141878 0.661087,2.212017 1.659015,2.212017 0.242412,0 1.222449,0.0071 4.8861318,0 h 4.567968 c 0.727239,0 1.156723,-0.961208 1.204489,-1.477204 C 16.064253,10.30997 15.661739,9.6709989 14.80991,9.3657969 L 14.51447,9.2597409 14.47659,8.8506686 C 14.354874,7.3594666 12.847479,6.4629319 11.332798,6.9871206 L 11.022206,7.1007518 10.666162,6.7295567 C 10.030956,6.0624628 9.5841482,5.8632748 8.6738312,5.8583858 Z"
     style="display:inline;fill:#000000;fill-opacity:1;stroke:none;stroke-width:0.0999999;enable-background:new" />
</svg>
