<?xml version="1.0" encoding="UTF-8" standalone="no"?>
<svg
   width="16"
   height="16"
   version="1"
   id="svg566"
   xml:space="preserve"
   xmlns="http://www.w3.org/2000/svg"
   xmlns:svg="http://www.w3.org/2000/svg"><defs
     id="defs570" /><path
     id="path35"
     style="display:inline;fill:#000000;fill-opacity:1;stroke:none;stroke-width:0.0256432;stroke-linecap:butt;stroke-linejoin:miter;stroke-miterlimit:4;stroke-dasharray:none;stroke-dashoffset:0;stroke-opacity:1;marker:none;marker-start:none;marker-mid:none;marker-end:none;paint-order:normal;enable-background:new"
     d="M 0.810096,0 C 0.361286,0 0,0.37067 0,0.831137 V 3.9479 c 0,0.460467 0.361286,0.831444 0.810096,0.831444 h 3.443209 c 0.44881,0 0.810096,-0.370977 0.810096,-0.831444 V 0.831137 C 5.063401,0.37067 4.702115,0 4.253305,0 Z m 5.46845,0 C 5.829736,0 5.46845,0.37067 5.46845,0.831137 V 3.9479 c 0,0.460467 0.361286,0.831444 0.810096,0.831444 h 3.442908 c 0.44881,0 0.810096,-0.370977 0.810096,-0.831444 V 0.831137 C 10.53155,0.37067 10.170264,0 9.721454,0 Z m 5.468149,0 c -0.44881,0 -0.810096,0.37067 -0.810096,0.831137 V 3.9479 c 0,0.460467 0.361286,0.831444 0.810096,0.831444 h 3.443209 C 15.638713,4.779344 16,4.408367 16,3.9479 V 0.831137 C 16,0.37067 15.638713,0 15.189904,0 Z M 0.810096,5.610482 C 0.361286,5.610482 0,5.981152 0,6.441619 v 3.116762 c 0,0.460467 0.361286,0.831137 0.810096,0.831137 h 3.443209 c 0.44881,0 0.810096,-0.37067 0.810096,-0.831137 V 6.441619 c 0,-0.460467 -0.361286,-0.831137 -0.810096,-0.831137 z m 5.46845,0 c -0.44881,0 -0.810096,0.37067 -0.810096,0.831137 v 3.116762 c 0,0.460467 0.361286,0.831137 0.810096,0.831137 h 3.442908 c 0.44881,0 0.810096,-0.37067 0.810096,-0.831137 V 6.441619 c 0,-0.460467 -0.361286,-0.831137 -0.810096,-0.831137 z m 5.468149,0 c -0.44881,0 -0.810096,0.37067 -0.810096,0.831137 v 3.116762 c 0,0.460467 0.361286,0.831137 0.810096,0.831137 h 3.443209 C 15.638713,10.389518 16,10.018848 16,9.558381 V 6.441619 C 16,5.981152 15.638713,5.610482 15.189904,5.610482 Z M 0.810096,11.220656 C 0.361286,11.220656 0,11.591325 0,12.051792 v 3.117071 C 0,15.629329 0.361286,16 0.810096,16 h 3.443209 c 0.44881,0 0.810096,-0.370671 0.810096,-0.831137 v -3.117071 c 0,-0.460467 -0.361286,-0.831136 -0.810096,-0.831136 z m 5.46845,0 c -0.44881,0 -0.810096,0.370669 -0.810096,0.831136 v 3.117071 C 5.46845,15.629329 5.829736,16 6.278546,16 h 3.442908 c 0.44881,0 0.810096,-0.370671 0.810096,-0.831137 v -3.117071 c 0,-0.460467 -0.361286,-0.831136 -0.810096,-0.831136 z m 5.468149,0 c -0.44881,0 -0.810096,0.370669 -0.810096,0.831136 v 3.117071 C 10.936599,15.629329 11.297885,16 11.746695,16 h 3.443209 C 15.638713,16 16,15.629329 16,15.168863 v -3.117071 c 0,-0.460467 -0.361287,-0.831136 -0.810096,-0.831136 z" /></svg>
