<?xml version="1.0" encoding="UTF-8" standalone="no"?>
<svg
   width="16px"
   height="16px"
   version="1.1"
   viewBox="0 0 16 16"
   id="svg1"
   xml:space="preserve"
   xmlns="http://www.w3.org/2000/svg"
   xmlns:svg="http://www.w3.org/2000/svg"><defs
     id="defs1" /><path
     id="path2"
     style="fill:#000000"
     d="M 2.007812,1.9374999 C 0.894512,1.9374999 0,2.8359586 0,3.9492186 V 14.0625 H 16 V 3.9492186 c 0,-1.1133 -0.894543,-2.0117188 -2.007813,-2.0117187 z m 0.085938,1.125 h 1.8125 c 0.27344,0 0.49609,0.22266 0.5,0.5 0,0.28125 -0.22266,0.5078124 -0.5,0.5078124 h -1.8125 c -0.27734,0 -0.5,-0.2265624 -0.5,-0.5078124 0.0039,-0.27734 0.22656,-0.5 0.5,-0.5 z m 9.867187,0 h 1.8125 c 0.27344,0 0.49609,0.22266 0.5,0.5 0,0.28125 -0.22266,0.5078124 -0.5,0.5078124 h -1.8125 c -0.27734,0 -0.500003,-0.2265624 -0.496093,-0.5078124 0,-0.27734 0.222663,-0.5 0.496093,-0.5 z M 1,5.0624999 9,13.0625 H 1 Z m 10.679687,0.1757812 h 1.205079 v 1.203125 L 12.777344,6.548828 c 0.4183,0.188741 0.708984,0.6085335 0.708984,1.0976562 0,0.2224779 -0.05912,0.4325841 -0.164062,0.6113281 l 0.736328,2.2089847 0.0625,0.191406 h 1.171875 v 0.601562 h -0.970703 l 0.33789,1.013672 c 0.02308,0.06896 0.03325,0.140295 0.03125,0.208985 v 0.583984 h -0.576172 c -0.261824,0.01165 -0.510046,-0.151242 -0.597656,-0.412109 l -0.412109,-1.234375 -0.05274,-0.160157 h -1.541015 l -0.464844,1.394532 c -0.0877,0.261159 -0.337463,0.424169 -0.599609,0.412109 H 9.873047 v -0.601563 c 3e-5,-0.06303 0.00814,-0.128356 0.029297,-0.191406 l 0.33789,-1.013672 H 9.269531 v -0.601562 h 1.171875 l 0.04687,-0.146484 0.619141,-1.8515629 0.134765,-0.4023438 c -0.1049,-0.1787108 -0.166015,-0.3889107 -0.166015,-0.6113281 0,-0.4891227 0.292636,-0.9089152 0.710937,-1.0976562 L 11.679687,6.4414061 Z m 0.601563,1.8066406 c -0.331712,0 -0.601563,0.2698506 -0.601563,0.6015625 0,0.3317121 0.269851,0.6015625 0.601563,0.6015625 0.331713,0 0.603516,-0.2698504 0.603516,-0.6015625 0,-0.3317119 -0.271803,-0.6015625 -0.603516,-0.6015625 z M 2,8.0624999 V 12.0625 h 4 z m 10.28125,0.8867192 -0.0293,0.0918 -0.539063,1.6171879 h 1.138672 z" /></svg>
