<?xml version="1.0" encoding="UTF-8" standalone="no"?>
<svg
   height="16px"
   viewBox="0 0 16 16"
   width="16px"
   version="1.1"
   id="svg3"
   xmlns="http://www.w3.org/2000/svg"
   xmlns:svg="http://www.w3.org/2000/svg">
  <defs
     id="defs3" />
  <g
     fill="#2e3434"
     id="g3"
     transform="matrix(1.1425384,0,0,1.1457342,-1.1380758,-1.1412586)"
     style="fill:#000000">
    <path
       d="m 4.023438,0.996094 c -1.660157,0 -3.027344,1.367187 -3.027344,3.027344 v 7.910156 c 0,1.660156 1.367187,3.027344 3.027344,3.027344 h 7.949218 C 13.632812,14.960938 15,13.59375 15,11.933594 V 4.023438 C 15,2.363281 13.632812,0.996094 11.972656,0.996094 Z m 0,2 h 7.949218 C 12.558594,2.996094 13,3.4375 13,4.023438 v 7.910156 c 0,0.585937 -0.441406,1.027344 -1.027344,1.027344 H 4.023438 c -0.585938,0 -1.027344,-0.441407 -1.027344,-1.027344 V 4.023438 c 0,-0.585938 0.441406,-1.027344 1.027344,-1.027344 z m 0,0"
       id="path1"
       style="fill:#000000" />
    <path
       d="M 4.023438,1 C 2.363281,1 0.996094,2.367188 0.996094,4.027344 v 0.945312 c 0,0 1.390625,2.03125 3.027344,2.03125 h 7.949218 C 13.441406,7.003906 15,4.972656 15,4.972656 V 4.027344 C 15,2.367188 13.632812,1 11.972656,1 Z m 0,2 h 7.949218 C 12.558594,3 13,3.441406 13,4.027344 V 4.972656 C 13,5.558594 12.558594,6 11.972656,6 H 4.023438 C 3.4375,6 2.996094,5.558594 2.996094,4.972656 V 4.027344 C 2.996094,3.441406 3.4375,3 4.023438,3 Z m 0,0"
       id="path2"
       style="fill:#000000" />
    <path
       d="m 7,0.996094 h 2 v 10.03125 L 7,10.039062 Z m 0,0"
       id="path3"
       style="fill:#000000" />
  </g>
</svg>
