<?xml version="1.0" encoding="UTF-8" standalone="no"?>
<svg
   height="16"
   viewBox="0 0 16 16"
   width="16"
   version="1.1"
   id="svg4"
   xmlns="http://www.w3.org/2000/svg"
   xmlns:svg="http://www.w3.org/2000/svg">
  <defs
     id="defs8" />
  <path
     id="circle1124"
     style="display:inline;vector-effect:none;fill:#000000;stroke-width:2.28571;stroke-linecap:round;stroke-linejoin:round;marker:none;marker-start:none;marker-mid:none;marker-end:none;enable-background:new"
     d="M 9.142858,4.5714286 A 1.1428571,1.1428571 0 0 0 10.285715,5.7142857 1.1428571,1.1428571 0 0 0 11.428573,4.5714286 1.1428571,1.1428571 0 0 0 10.285715,3.4285714 1.1428571,1.1428571 0 0 0 9.142858,4.5714286 Z M 6.857143,11.428573 A 1.1428571,1.1428571 0 0 1 5.714286,12.57143 1.1428571,1.1428571 0 0 1 4.571429,11.428573 1.1428571,1.1428571 0 0 1 5.714286,10.285715 1.1428571,1.1428571 0 0 1 6.857143,11.428573 Z M 2.285714,0 C 1.019429,0 0,1.0194286 0,2.2857143 V 13.714286 C 0,14.980571 1.019429,16 2.285714,16 H 13.714286 C 14.980571,16 16,14.980571 16,13.714286 V 2.2857143 C 16,1.0194286 14.980571,0 13.714286,0 Z m 3.428572,2.2857143 h 4.571428 c 1.266286,0 2.285715,1.0194286 2.285715,2.2857143 0,1.2662857 -1.019429,2.2857143 -2.285715,2.2857143 H 5.714286 c -1.266286,0 -2.285715,-1.0194286 -2.285715,-2.2857143 0,-1.2662857 1.019429,-2.2857143 2.285715,-2.2857143 z m 0,6.8571428 h 4.571428 c 1.266286,0 2.285715,1.0194289 2.285715,2.2857139 0,1.266286 -1.019429,2.285715 -2.285715,2.285715 H 5.714286 c -1.266286,0 -2.285715,-1.019429 -2.285715,-2.285715 0,-1.266285 1.019429,-2.2857139 2.285715,-2.2857139 z" />
</svg>
