<?xml version="1.0" encoding="UTF-8" standalone="no"?>
<svg
   height="16px"
   viewBox="0 0 16 16"
   width="16px"
   version="1.1"
   id="svg3"
   xmlns="http://www.w3.org/2000/svg"
   xmlns:svg="http://www.w3.org/2000/svg">
  <defs
     id="defs3" />
  <path
     id="path1"
     style="opacity:0.7;fill:#000000;stroke-width:1.14414"
     d="M 3.4589844,0 C 1.7992904,0 0.39523396,1.199355 0.0703125,2.7734375 v 0.00195 0.00195 C 0.04748441,2.8885651 0.02934922,3.0005705 0.01757813,3.1152344 v 0.00195 0.00195 0.00195 C 0.00605973,3.235187 0,3.3518344 0,3.46875 -1.4987071e-6,3.47007 0,3.47134 0,3.47266 V 4.5566406 12.53125 C 0,14.433348 1.5621913,16 3.4589844,16 H 10.0625 C 9.9900842,15.863479 9.93829,15.713569 9.9101562,15.556641 9.85033,15.533331 9.7908409,15.510125 9.7324219,15.484375 9.21126,15.846465 8.4987612,15.862043 8.0371094,15.400391 L 7.5839844,14.945312 C 7.2480396,14.609378 7.1641809,14.140362 7.2832031,13.708984 H 3.4589844 c -0.6694566,0 -1.1738282,-0.506406 -1.1738282,-1.177734 V 6.5976562 C 2.6538054,6.7718338 3.0496838,6.8828125 3.4589844,6.8828125 H 6.859375 V 7.6454106 L 9.1445312,8.6786137 V 6.8828125 h 0.9824218 c 0.225856,-0.3493547 0.594322,-0.5878906 1.039063,-0.5878906 h 0.642578 c 0.434904,0 0.799247,0.2275912 1.027344,0.5644531 0.296692,-0.04511 0.592987,-0.1534987 0.878906,-0.3007812 V 7.2890625 C 14.142281,7.1746911 14.60466,7.2589483 14.9375,7.5917969 l 0.455078,0.4550781 c 0.461568,0.4615545 0.445823,1.1722129 0.08398,1.6933594 0.02606,0.058753 0.05076,0.1178854 0.07422,0.1777344 C 15.709846,9.9468875 15.861829,9.9998736 16,10.074219 V 4.5566406 3.46875 C 15.99973,3.231046 15.976347,2.9982215 15.929688,2.7734375 15.604764,1.199355 14.200709,0 12.541016,0 H 9.1445312 6.859375 Z m 0,2.296875 H 6.859375 V 5.7324219 H 3.4589844 c -0.6694566,0 -1.1738282,-0.5044521 -1.1738282,-1.1757813 V 3.46875 c 1.27e-4,-0.042607 0.00175,-0.083822 0.00586,-0.125 0.00367,-0.038628 0.010558,-0.076048 0.017578,-0.1132812 0.00755,-0.039039 0.016269,-0.077905 0.027344,-0.1152344 C 2.4799098,2.6299501 2.9150509,2.296875 3.4589844,2.296875 Z m 5.6855468,0 h 3.3964848 c 0.543933,0 0.979076,0.3330751 1.123046,0.8183594 0.01107,0.03733 0.0198,0.076196 0.02734,0.1152344 0.01486,0.07684 0.02319,0.1557749 0.02344,0.2382812 v 1.0878906 c 0,0.6713292 -0.504371,1.1757813 -1.173828,1.1757813 H 9.1445312 Z m 6.8320308,10.632813 c -0.132533,0.0683 -0.276746,0.117303 -0.427734,0.144531 -0.02308,0.05929 -0.0467,0.117741 -0.07227,0.175781 0.131452,0.189327 0.218147,0.404398 0.251954,0.623047 0.125547,-0.296226 0.209666,-0.613147 0.248046,-0.943359 z m -2.734374,2.554687 c -0.05748,0.02546 -0.115309,0.0493 -0.173829,0.07227 -0.02674,0.148647 -0.07569,0.291245 -0.142578,0.421875 0.326176,-0.03699 0.64038,-0.121313 0.933594,-0.244141 -0.216593,-0.03445 -0.429499,-0.119285 -0.617187,-0.25 z" />
  <path
     id="path1-4"
     style="fill:#000000;stroke-width:0.644656"
     d="M 11.166016 6.9960938 C 10.810953 6.9960938 10.525391 7.2836012 10.525391 7.6386719 L 10.525391 7.9296875 C 10.245021 8.006154 9.9722592 8.1170446 9.7167969 8.2578125 L 9.7167969 9.5644531 L 7.9355469 8.7597656 C 7.8435151 8.9908923 7.8924182 9.263512 8.0800781 9.4511719 L 8.2851562 9.6582031 C 8.126513 9.9326842 8.0069306 10.226548 7.9238281 10.53125 L 7.6308594 10.53125 C 7.2757958 10.53125 6.9882813 10.818765 6.9882812 11.173828 L 6.9882812 11.818359 C 6.9882812 12.173422 7.2757958 12.460938 7.6308594 12.460938 L 7.9199219 12.460938 C 8.0055449 12.76564 8.126513 13.059503 8.2851562 13.333984 L 8.0800781 13.541016 C 7.8282562 13.792838 7.8282562 14.197404 8.0800781 14.449219 L 8.5332031 14.90625 C 8.785025 15.158072 9.1895845 15.158072 9.4414062 14.90625 L 9.6484375 14.699219 C 9.9254394 14.855349 10.218166 14.978012 10.525391 15.058594 L 10.525391 15.353516 C 10.525391 15.708587 10.810953 15.996094 11.166016 15.996094 L 11.808594 15.996094 C 12.166178 15.996094 12.453125 15.708587 12.453125 15.353516 L 12.453125 15.060547 C 12.757828 14.977437 13.053644 14.855917 13.328125 14.697266 L 13.533203 14.90625 C 13.785025 15.158072 14.191545 15.158072 14.443359 14.90625 L 14.898438 14.449219 C 15.15026 14.197404 15.150259 13.792838 14.898438 13.541016 L 14.691406 13.333984 C 14.847536 13.059503 14.972152 12.765641 15.052734 12.460938 L 15.34375 12.460938 C 15.701335 12.460938 15.988281 12.173422 15.988281 11.818359 L 15.988281 11.173828 C 15.988281 10.818765 15.701335 10.53125 15.34375 10.53125 L 15.054688 10.53125 C 14.971588 10.226548 14.848104 9.9326842 14.689453 9.6582031 L 14.898438 9.4511719 C 15.15026 9.1993501 15.150259 8.7928302 14.898438 8.5410156 L 14.443359 8.0859375 C 14.191544 7.8341157 13.785025 7.8341157 13.533203 8.0859375 L 13.328125 8.2929688 C 13.053644 8.1368394 12.757828 8.0147367 12.453125 7.9316406 L 12.453125 7.6386719 C 12.453125 7.2836012 12.166178 6.9960938 11.808594 6.9960938 L 11.166016 6.9960938 z M 11.498047 9.5585938 C 12.56828 9.5585938 13.433594 10.42643 13.433594 11.494141 C 13.433594 12.561853 12.56828 13.427734 11.498047 13.427734 C 10.430337 13.427734 9.5644531 12.561852 9.5644531 11.494141 C 9.5644531 10.42643 10.430337 9.5585938 11.498047 9.5585938 z " />
</svg>
