<?xml version="1.0" encoding="UTF-8" standalone="no"?>
<svg
   width="128"
   height="128"
   version="1"
   id="svg22"
   xmlns:xlink="http://www.w3.org/1999/xlink"
   xmlns="http://www.w3.org/2000/svg"
   xmlns:svg="http://www.w3.org/2000/svg">
  <defs
     id="defs26">
    <linearGradient
       id="linearGradient2599"
       gradientUnits="userSpaceOnUse">
      <stop
         offset="0"
         stop-color="#ec666d"
         id="stop2595"
         style="stop-color:#8f8f8f;stop-opacity:1;" />
      <stop
         offset="1"
         stop-color="#e01b24"
         id="stop2597"
         style="stop-color:#636363;stop-opacity:1;" />
    </linearGradient>
    <linearGradient
       id="linearGradient2593"
       gradientUnits="userSpaceOnUse">
      <stop
         offset="0"
         stop-color="#ec666d"
         id="stop2589"
         style="stop-color:#8f8f8f;stop-opacity:1;" />
      <stop
         offset="1"
         stop-color="#e01b24"
         id="stop2591"
         style="stop-color:#636363;stop-opacity:1;" />
    </linearGradient>
    <linearGradient
       id="linearGradient2587"
       gradientUnits="userSpaceOnUse"
       x1="11.99984"
       x2="115.99984"
       y1="66.000885"
       y2="66.000885"
       gradientTransform="translate(-280.61019,191.11177)">
      <stop
         offset="0"
         stop-color="#c01c28"
         id="stop2575"
         style="stop-color:#545454;stop-opacity:1;" />
      <stop
         offset="0.0358087"
         stop-color="#961720"
         id="stop2577"
         style="stop-color:#3d3d3d;stop-opacity:1;" />
      <stop
         offset="0.52132899"
         stop-color="#a81922"
         id="stop2579"
         style="stop-color:#474747;stop-opacity:1;" />
      <stop
         offset="0.74583298"
         stop-color="#c01c28"
         id="stop2581"
         style="stop-color:#545454;stop-opacity:1;" />
      <stop
         offset="0.89525402"
         stop-color="#e02432"
         id="stop2583"
         style="stop-color:#696969;stop-opacity:1;" />
      <stop
         offset="1"
         stop-color="#c01c28"
         id="stop2585"
         style="stop-color:#545454;stop-opacity:1;" />
    </linearGradient>
    <linearGradient
       id="a"
       gradientUnits="userSpaceOnUse"
       x1="11.99984"
       x2="115.99984"
       y1="66.000885"
       y2="66.000885"
       gradientTransform="translate(-291.60646,-132.07565)">
      <stop
         offset="0"
         stop-color="#c01c28"
         id="stop2"
         style="stop-color:#a1a1a1;stop-opacity:1;" />
      <stop
         offset="0.0358087"
         stop-color="#961720"
         id="stop4"
         style="stop-color:#8a8a8a;stop-opacity:1;" />
      <stop
         offset="0.52132899"
         stop-color="#a81922"
         id="stop6"
         style="stop-color:#939393;stop-opacity:1;" />
      <stop
         offset="0.74583298"
         stop-color="#c01c28"
         id="stop8"
         style="stop-color:#a0a0a0;stop-opacity:1;" />
      <stop
         offset="0.89525402"
         stop-color="#e02432"
         id="stop10"
         style="stop-color:#b4b4b4;stop-opacity:1;" />
      <stop
         offset="1"
         stop-color="#c01c28"
         id="stop12"
         style="stop-color:#a1a1a1;stop-opacity:1;" />
    </linearGradient>
    <radialGradient
       id="f"
       cx="17.692747"
       cy="185.88631"
       gradientTransform="matrix(4.4659593,0,0,3.0428008,-65.943554,-520.00425)"
       r="11.30078"
       xlink:href="#linearGradient2851" />
    <linearGradient
       id="linearGradient2851"
       gradientUnits="userSpaceOnUse">
      <stop
         offset="0"
         stop-color="#ec666d"
         id="stop2847"
         style="stop-color:#dcdcdc;stop-opacity:1;" />
      <stop
         offset="1"
         stop-color="#e01b24"
         id="stop2849"
         style="stop-color:#afafaf;stop-opacity:1;" />
    </linearGradient>
    <radialGradient
       id="e"
       cx="110.56763"
       cy="186.67276"
       gradientTransform="matrix(2.7898981,0,0,1.6219496,-228.44304,-256.50714)"
       r="11.299807"
       xlink:href="#d" />
    <linearGradient
       id="d"
       gradientUnits="userSpaceOnUse">
      <stop
         offset="0"
         stop-color="#ec666d"
         id="stop25"
         style="stop-color:#dbdbdb;stop-opacity:1;" />
      <stop
         offset="1"
         stop-color="#e01b24"
         id="stop27"
         style="stop-color:#b0b0b0;stop-opacity:1;" />
    </linearGradient>
    <radialGradient
       id="c"
       cx="119.52649"
       cy="111.18848"
       gradientTransform="matrix(2.1929372,2.8716538e-7,-2.7277632e-7,2.0056822,-178.47439,-119.54255)"
       gradientUnits="userSpaceOnUse"
       r="11.78418">
      <stop
         offset="0"
         stop-color="#e8434a"
         id="stop20"
         style="stop-color:#c7c7c7;stop-opacity:1;" />
      <stop
         offset="1"
         stop-color="#730e13"
         stop-opacity="0.988235"
         id="stop22"
         style="stop-color:#737373;stop-opacity:0.988235;" />
    </radialGradient>
    <radialGradient
       id="b"
       cx="67.983978"
       cy="103.53068"
       gradientTransform="matrix(2.4216608,3.2306106e-7,-2.943113e-7,2.214875,-155.64911,-133.46666)"
       gradientUnits="userSpaceOnUse"
       r="11.78418">
      <stop
         offset="0"
         stop-color="#e8434a"
         id="stop15"
         style="stop-color:#c7c7c7;stop-opacity:1;" />
      <stop
         offset="1"
         stop-color="#c01720"
         stop-opacity="0.988235"
         id="stop17"
         style="stop-color:#9d9d9d;stop-opacity:0.988235;" />
    </radialGradient>
    <linearGradient
       id="a-5"
       gradientUnits="userSpaceOnUse"
       x1="11.99984"
       x2="115.99984"
       y1="66.000885"
       y2="66.000885"
       gradientTransform="matrix(0.71783243,0,0,0.71791346,0.37110543,36.754552)">
      <stop
         offset="0"
         stop-color="#c01c28"
         id="stop2-3"
         style="stop-color:#a1a1a1;stop-opacity:1;" />
      <stop
         offset="0.0358087"
         stop-color="#961720"
         id="stop4-5"
         style="stop-color:#8a8a8a;stop-opacity:1;" />
      <stop
         offset="0.52132899"
         stop-color="#a81922"
         id="stop6-6"
         style="stop-color:#939393;stop-opacity:1;" />
      <stop
         offset="0.74583298"
         stop-color="#c01c28"
         id="stop8-2"
         style="stop-color:#a0a0a0;stop-opacity:1;" />
      <stop
         offset="0.89525402"
         stop-color="#e02432"
         id="stop10-9"
         style="stop-color:#b4b4b4;stop-opacity:1;" />
      <stop
         offset="1"
         stop-color="#c01c28"
         id="stop12-1"
         style="stop-color:#a1a1a1;stop-opacity:1;" />
    </linearGradient>
    <radialGradient
       id="b-6"
       cx="67.983978"
       cy="103.53068"
       gradientTransform="matrix(2.4216608,3.2306106e-7,-2.943113e-7,2.214875,-120.28226,-166.86868)"
       gradientUnits="userSpaceOnUse"
       r="11.78418">
      <stop
         offset="0"
         stop-color="#e8434a"
         id="stop15-1"
         style="stop-color:#7a7a7a;stop-opacity:1;" />
      <stop
         offset="1"
         stop-color="#c01720"
         stop-opacity="0.988235"
         id="stop17-8"
         style="stop-color:#525252;stop-opacity:0.99000001;" />
    </radialGradient>
    <radialGradient
       id="c-7"
       cx="119.52649"
       cy="111.18848"
       gradientTransform="matrix(2.1929372,2.8716538e-7,-2.7277632e-7,2.0056822,-143.10755,-152.94457)"
       gradientUnits="userSpaceOnUse"
       r="11.78418">
      <stop
         offset="0"
         stop-color="#e8434a"
         id="stop20-9"
         style="stop-color:#7a7a7a;stop-opacity:1;" />
      <stop
         offset="1"
         stop-color="#730e13"
         stop-opacity="0.988235"
         id="stop22-2"
         style="stop-color:#262626;stop-opacity:0.988235;" />
    </radialGradient>
    <radialGradient
       id="e-0"
       cx="110.56763"
       cy="186.67276"
       gradientTransform="matrix(2.7898981,0,0,1.6219496,-193.0762,-289.90916)"
       r="11.299807"
       xlink:href="#linearGradient2593" />
    <radialGradient
       id="f-7"
       cx="17.692747"
       cy="185.88631"
       gradientTransform="matrix(4.4659593,0,0,3.0428008,-30.57671,-553.40627)"
       r="11.30078"
       xlink:href="#linearGradient2599" />
    <linearGradient
       xlink:href="#linearGradient2587"
       id="linearGradient2546"
       gradientUnits="userSpaceOnUse"
       gradientTransform="matrix(0.71783243,0,0,0.71791346,35.73795,3.35253)"
       x1="11.99984"
       y1="66.000885"
       x2="115.99984"
       y2="66.000885" />
  </defs>
  <path
     d="m 50.094597,14.83915 h 63.169253 c 3.17136,0 5.74266,2.57158 5.74266,5.74331 v 60.30473 c 0,3.17172 -2.5713,5.7433 -5.74266,5.7433 H 50.094597 c -3.171367,0 -5.742657,-2.57158 -5.742657,-5.7433 V 20.58246 c 0,-3.17173 2.57129,-5.74331 5.742657,-5.74331 z m 0,0"
     fill="url(#a)"
     id="path42-2-2"
     style="fill:url(#linearGradient2546);stroke-width:0.717873" />
  <path
     d="m 50.094597,11.96749 h 63.169253 c 3.17136,0 5.74266,2.57159 5.74266,5.74331 v 54.56142 c 0,3.17172 -2.5713,5.74331 -5.74266,5.74331 H 50.094597 c -3.171367,0 -5.742657,-2.57159 -5.742657,-5.74331 V 17.7108 c 0,-3.17172 2.57129,-5.74331 5.742657,-5.74331 z m 0,0"
     fill="#ed333b"
     id="path44-7-8"
     style="fill:#4f4f4f;fill-opacity:1;stroke-width:0.717873" />
  <path
     d="m 44.35194,59.10861 v 13.16361 c 0,0.0561 0.006,0.11218 0.008,0.16826 v 8.44671 c 0,3.18293 2.56008,5.7433 5.742656,5.7433 h 0.950568 c 2.904974,-3.41569 6.396002,-6.32942 10.327254,-8.61496 H 61.262643 C 53.602429,73.68281 47.655072,67.0337 44.35192,59.10861 Z m 0,0"
     fill="url(#b)"
     id="path46-9"
     style="fill:url(#b-6);stroke-width:0.717873" />
  <path
     d="m 119.00651,59.10581 c -3.30035,7.92509 -9.2477,14.5742 -16.90832,18.90972 4.68554,1.25635 8.35882,5.19646 11.2638,8.60936 3.13771,-0.0449 5.65293,-2.58561 5.65293,-5.7377 v -8.61497 c 0,2.58842 -1.69644,4.76459 -4.0378,5.48812 -0.36173,0.10937 -0.73746,0.18789 -1.12442,0.22434 0.38696,-0.0365 0.76269,-0.11497 1.12442,-0.22434 2.33856,-0.72633 4.02939,-2.90251 4.02939,-5.48812 z m 0,0"
     fill="url(#c)"
     id="path48-7"
     style="fill:url(#c-7);stroke-width:0.717873" />
  <path
     d="m 102.78518,11.96749 c 7.33535,4.34113 13.02193,10.8304 16.22133,18.51152 V 17.7108 c 0,-3.18293 -2.56008,-5.74331 -5.74266,-5.74331 z m 0,0"
     fill="url(#e)"
     id="path50-3"
     style="fill:url(#e-0);stroke-width:0.717873" />
  <path
     d="m 50.094597,11.96749 c -3.182577,0 -5.742657,2.56038 -5.742657,5.74331 v 12.76821 c 3.199398,-7.68112 8.88878,-14.17039 16.22413,-18.51152 z m 0,0"
     fill="url(#f)"
     id="path52-6"
     style="fill:url(#f-7);stroke-width:0.717873" />
  <path
     style="fill:#ffffff;stroke-width:1.96482"
     d="m 79.092876,26.13449 v 5.89447 h 5.894474 v -5.89447 z m 11.788949,0 v 5.89447 h 5.894473 v -5.89447 z m -2.459869,9.97762 c -4.676676,0 -8.398173,1.50263 -11.163428,4.50912 -2.746511,2.98811 -4.121554,7.42577 -4.121527,12.5296 0,4.93682 1.448935,9.04728 4.344106,11.94245 2.913831,2.89505 6.857403,4.3441 11.83116,4.3441 1.985967,0 3.945121,-0.20572 5.875286,-0.61401 1.930165,-0.40828 3.681048,-1.00113 5.518397,-1.78062 V 62.5912 c -1.818959,0.96508 -3.524428,1.68953 -5.380245,2.17205 -1.83715,0.48252 -3.739251,0.7253 -5.706434,0.7253 -3.396396,0 -6.051375,-0.91802 -7.962912,-2.75536 -1.89303,-1.85598 -2.950842,-5.565 -3.173653,-9.09116 h 23.551034 v -2.07995 c 0,-4.63973 -1.22666,-8.69498 -3.676371,-11.386 -2.431276,-2.70961 -5.741298,-4.06394 -9.935413,-4.06397 z m 0.05371,4.34027 c 2.523817,4e-5 4.549165,0.83566 6.071,2.50592 1.540305,1.67049 2.326598,3.93638 2.363929,6.73874 l -18.262889,0.0307 c 0.259827,-2.93223 1.243641,-5.23921 2.951074,-6.85387 1.725901,-1.61461 4.018813,-2.42146 6.876886,-2.42149 z"
     id="path10-1" />
  <path
     d="m 14.727754,48.241167 h 63.169254 c 3.171362,0 5.742659,2.571588 5.742659,5.743308 v 60.304735 c 0,3.17172 -2.571297,5.7433 -5.742659,5.7433 H 14.727754 c -3.171362,0 -5.7426594,-2.57158 -5.7426594,-5.7433 V 53.984475 c 0,-3.17172 2.5712974,-5.743308 5.7426594,-5.743308 z m 0,0"
     fill="url(#a)"
     id="path42-2"
     style="fill:url(#a-5);stroke-width:0.717873" />
  <path
     d="m 14.727754,45.369514 h 63.169254 c 3.171362,0 5.742659,2.571587 5.742659,5.743307 v 54.561419 c 0,3.17172 -2.571297,5.74331 -5.742659,5.74331 H 14.727754 c -3.171362,0 -5.7426594,-2.57159 -5.7426594,-5.74331 V 51.112821 c 0,-3.17172 2.5712974,-5.743307 5.7426594,-5.743307 z m 0,0"
     fill="#ed333b"
     id="path44-7"
     style="fill:#bfbfbf;fill-opacity:1;stroke-width:0.717873" />
  <path
     d="m 8.9850946,92.510626 v 13.163614 c 0,0.0561 0.00574,0.11218 0.0084,0.16826 v 8.44671 c 0,3.18293 2.5600844,5.7433 5.7426594,5.7433 h 0.950568 c 2.904974,-3.41569 6.396002,-6.32942 10.327254,-8.61496 H 25.8962 C 18.235586,107.08483 12.288229,100.43572 8.9850802,92.510626 Z m 0,0"
     fill="url(#b)"
     id="path46"
     style="fill:url(#b);stroke-width:0.717873" />
  <path
     d="m 83.639667,92.507826 c -3.300349,7.925094 -9.247698,14.574204 -16.90832,18.909724 4.685543,1.25635 8.358821,5.19646 11.263803,8.60936 3.13771,-0.0449 5.65293,-2.58561 5.65293,-5.7377 v -8.61497 c 0,2.58842 -1.696439,4.76459 -4.037807,5.48812 -0.361723,0.10937 -0.737458,0.18789 -1.12442,0.22434 0.386962,-0.0365 0.762697,-0.11497 1.12442,-0.22434 2.338562,-0.72633 4.029394,-2.90251 4.029394,-5.48812 z m 0,0"
     fill="url(#c)"
     id="path48"
     style="fill:url(#c);stroke-width:0.717873" />
  <path
     d="m 67.418334,45.369514 c 7.33535,4.341129 13.021933,10.830399 16.221333,18.511513 V 51.112821 c 0,-3.182934 -2.560084,-5.743307 -5.742659,-5.743307 z m 0,0"
     fill="url(#e)"
     id="path50"
     style="fill:url(#e);stroke-width:0.717873" />
  <path
     d="m 14.727754,45.369514 c -3.182575,0 -5.7426594,2.560373 -5.7426594,5.743307 V 63.881027 C 12.184495,56.199913 17.873877,49.710643 25.209227,45.369514 Z m 0,0"
     fill="url(#f)"
     id="path52"
     style="fill:url(#f);stroke-width:0.717873" />
  <path
     style="fill:#3f3f3f;stroke-width:1.96482"
     d="m 55.99236,85.50204 c -4.32301,4e-5 -7.31779,0.48091 -8.98514,1.44269 -1.66716,0.96182 -2.50071,3.19101 -2.50071,5.5108 0,1.84816 0.62033,3.31915 1.861,4.413 1.26,1.07496 2.9659,1.61242 5.11758,1.61242 2.9659,0 5.34039,-1.01837 7.12406,-3.05507 1.80277,-2.0556 2.31068,-5.36934 2.31071,-8.76377 v -1.1598 H 55.99224 M 66.66517,83.3528 v 19.48593 h -5.89436 v -5.63052 c -1.21819,1.92553 -2.19875,3.34806 -4.01818,4.27154 -1.82336,0.90774 -4.05147,1.35965 -6.68827,1.35965 -3.33627,0 -5.98878,-0.90382 -7.96932,-2.71539 -1.95697,-1.83121 -2.93545,-4.27153 -2.93545,-7.32487 0,-3.56427 1.22125,-6.8402 3.66381,-8.65059 2.46192,-1.81039 6.1272,-2.84302 10.99123,-2.71562 h 7.10858 v -0.50921 c -5e-5,-2.395 -0.81419,-3.65471 -2.44252,-4.95582 -4.99474,-2.94575 -12.47102,-2.32997 -17.35812,0.0338 v -4.22057 c 1.95791,-0.73547 4.27911,-1.28232 6.12066,-1.6407 1.84159,-0.37713 3.63473,-0.56572 5.3793,-0.56576 4.71047,4e-5 8.22908,1.18813 10.55504,3.56427 2.32619,2.37621 3.48929,5.38965 3.48933,10.21761 m -18.0253,-27.67421 8.2,9.82472 h -4.44876 l -9.47831,-9.82354 h 5.72825"
     id="path20-0" />
</svg>
