<?xml version="1.0" encoding="UTF-8" standalone="no"?>
<!-- Created with Inkscape (http://www.inkscape.org/) -->

<svg
   version="1.0"
   width="128"
   height="128"
   id="svg4292"
   xml:space="preserve"
   xmlns:xlink="http://www.w3.org/1999/xlink"
   xmlns="http://www.w3.org/2000/svg"
   xmlns:svg="http://www.w3.org/2000/svg"><defs
     id="defs4294"><linearGradient
       id="linearGradient1571"><stop
         style="stop-color:#19191a;stop-opacity:1;"
         offset="0"
         id="stop1567" /><stop
         style="stop-color:#57575c;stop-opacity:1;"
         offset="0.03567462"
         id="stop1575" /><stop
         style="stop-color:#19191a;stop-opacity:1;"
         offset="0.07302466"
         id="stop1577" /><stop
         style="stop-color:#19191a;stop-opacity:0.99607843;"
         offset="0.92681795"
         id="stop1579" /><stop
         style="stop-color:#57575c;stop-opacity:1;"
         offset="0.96064132"
         id="stop1581" /><stop
         style="stop-color:#19191a;stop-opacity:0.99607843;"
         offset="1"
         id="stop1569" /></linearGradient><linearGradient
       xlink:href="#linearGradient1571"
       id="linearGradient1573"
       x1="12"
       y1="66"
       x2="116"
       y2="66"
       gradientUnits="userSpaceOnUse" /><mask
       id="mask1_2489_28656"
       maskUnits="userSpaceOnUse"
       x="209"
       y="16"
       width="367"
       height="354"><path
         d="m 575.262,143.166 c 0.188,0.12 0.173,0.401 -0.028,0.501 -1.568,0.781 -3.119,1.602 -4.724,2.314 -12.327,5.473 -24.123,11.847 -34.145,21.005 -3.427,3.13 -6.525,6.683 -9.426,10.32 -2.752,3.446 -3.671,7.668 -3.629,12.05 0.007,0.676 0.106,1.352 0.218,2.094 0.113,0.754 0.76,1.322 1.523,1.322 h 13.328 c 0.835,0 1.517,0.68 1.469,1.514 -0.309,5.332 -2.198,9.93 -5.441,13.785 -4.394,5.217 -6.185,11.418 -8.256,17.643 -3.02,9.074 -3.223,18.429 -2.507,27.712 0.746,9.677 -2.836,17.392 -8.614,24.589 -4.537,5.652 -8.93,11.423 -13.443,17.099 -4.626,5.819 -6.352,12.39 -5.856,19.777 0.639,9.468 2.859,18.596 4.931,27.814 1.689,7.524 2.244,15.299 3.265,22.966 0.029,0.217 0.032,0.436 0.02,0.686 -0.052,1.06 -1.22,1.736 -2.204,1.342 -1.486,-0.594 -2.84,-1.124 -3.988,-1.944 -5.761,-4.108 -9.307,-9.963 -12.208,-16.253 -1.399,-3.036 -2.755,-6.093 -4.114,-9.111 -0.164,-0.363 -0.466,-0.646 -0.836,-0.792 -3.896,-1.543 -5.048,-2.528 -6.159,-5.161 -0.24,-0.569 -0.781,-0.961 -1.398,-0.968 -6.073,-0.062 -12.115,0.548 -17.931,2.563 -10.422,3.607 -20.863,7.179 -31.136,11.167 -11.45,4.448 -23.299,5.348 -35.226,3.912 -11.419,-1.378 -22.707,-3.858 -34.061,-5.784 -3.809,-0.644 -7.665,-1.025 -11.491,-1.604 -0.95,-0.143 -1.893,-0.512 -2.764,-0.936 -6.877,-3.35 -13.67,-6.88 -20.613,-10.088 -7.527,-3.476 -13.341,-0.996 -16.129,6.72 -1.146,3.172 -1.827,6.504 -2.937,9.688 -1.695,4.86 -3.468,9.707 -5.42,14.465 -1.345,3.282 -3.867,5.008 -7.572,5.567 -0.914,0.138 -1.668,-0.653 -1.592,-1.574 0.25,-3.046 0.418,-5.991 0.914,-8.876 1.063,-6.159 2.854,-12.217 3.504,-18.412 0.645,-6.189 0.329,-12.485 0.257,-18.727 -0.012,-0.906 -0.848,-1.956 -1.558,-2.683 -5.092,-5.175 -10.184,-10.351 -15.401,-15.395 -5.522,-5.342 -10.888,-10.863 -14.577,-17.612 -3.355,-6.135 -8.596,-7.012 -14.405,-5.879 -9.348,1.824 -18.582,4.197 -27.865,6.356 -2.32,0.54 -4.624,1.143 -6.932,1.72 -0.286,0.072 -0.585,-0.062 -0.722,-0.323 -0.128,-0.243 -0.087,-0.54 0.101,-0.739 1.108,-1.176 2.143,-2.282 3.386,-3.317 7.026,-5.843 14.214,-11.502 21.156,-17.44 4.143,-3.547 8.005,-7.435 11.837,-11.322 0.77,-0.781 1.254,-2.278 1.176,-3.399 -1.922,-27.772 4.537,-53.833 16.082,-78.844 4.853,-10.518 9.892,-20.951 14.98,-31.689 0.262,-0.552 0.836,-0.874 1.445,-0.931 4.165,-0.389 4.842,-4.712 6.539,-7.876 1.112,-2.072 1.94,-4.296 2.849,-6.622 0.385,-0.987 1.642,-1.258 2.411,-0.528 0.551,0.523 1.088,1.034 1.653,1.572 0.592,0.563 1.525,0.555 2.128,0.004 1.438,-1.311 2.905,-2.537 3.961,-4.049 4.322,-6.177 8.572,-12.413 12.506,-18.835 1.814,-2.963 3.832,-4.8232 7.306,-5.795 11.576,-3.2382 23.043,-6.8516 34.462,-10.3062 0.361,-0.1091 0.719,-0.319 0.881,-0.6591 0.02,-0.042 0.034,-0.0829 0.038,-0.1245 0.847,-6.8327 1.403,-7.4051 8.315,-8.5379 7.361,-1.2044 11.999,-5.1395 13.24,-12.5804 1.236,-7.423 1.6,-14.995 2.322,-22.5074 0.603,-6.326 1.051,-12.6698 1.797,-18.9779 0.444,-3.7628 1.456,-5.6289 3.86,-7.1719 0.714,-0.4582 1.648,-0.1343 2.036,0.6203 1.286,2.5056 2.701,4.9668 3.554,7.607 2.405,7.4587 4.316,15.0725 6.656,22.5551 2.011,6.4273 4.131,12.8367 6.566,19.115 3.259,8.4127 9.927,11.9781 18.678,12.1272 3.385,0.0596 6.77,0.1788 10.148,0.0298 4.137,-0.1789 7.981,0.7274 11.294,3.1004 8.961,6.4273 18.004,12.7532 26.624,19.6155 6.461,5.148 12.367,10.995 18.794,16.837 0.384,0.35 0.921,0.464 1.434,0.378 3.105,-0.517 5.866,1.063 8.649,2.965 0.613,0.42 0.82,1.228 0.495,1.895 -0.86,1.763 -1.713,3.511 -2.605,5.345 -0.389,0.798 -0.006,1.754 0.802,2.12 6.403,2.905 10.923,7.985 15.942,12.422 1.785,1.575 3.701,3.011 5.593,4.46 3.564,2.731 7.51,3.297 11.844,2.206 8.381,-2.11 16.756,-4.251 25.197,-6.081 6.546,-1.421 12.744,-2.206 19.631,-1.254 0.042,0.006 0.081,0.02 0.116,0.043 z M 398.164,325.244 c 0.002,-0.001 0.004,-0.003 0.007,-0.003 6.858,0 13.715,0.078 20.572,-0.047 1.833,-0.036 3.851,-0.304 5.457,-1.115 8.595,-4.335 17.245,-8.586 25.561,-13.415 8.578,-4.979 9.3,-7.453 6.757,-17.154 -2.292,-8.734 -6.525,-16.634 -11.002,-24.361 -5.295,-9.146 -9.425,-18.513 -9.688,-29.341 -0.137,-5.682 -1.773,-11.131 -4.477,-16.229 -2.394,-4.513 -6.101,-6.648 -11.097,-6.713 -13.819,-0.179 -27.352,1.472 -40.515,5.926 -34.025,11.525 -54.751,39.512 -55.324,74.457 -0.137,8.43 3.516,14.154 10.888,17.493 5.14,2.331 10.494,4.269 15.891,5.926 15.31,4.704 31.115,5.14 46.963,4.58 0.002,-10e-4 0.005,-0.002 0.007,-0.004 z M 276.748,235.237 c 0.001,-0.001 0.002,-0.002 0.003,-0.002 1.39,-0.113 2.368,-0.119 3.317,-0.274 12.082,-1.973 23.341,-6.391 34.217,-11.793 3.444,-1.711 6.668,-3.929 9.796,-6.189 1.193,-0.864 2.202,-2.373 2.656,-3.792 9.115,-28.327 18.141,-56.683 27.173,-85.033 0.093,-0.296 0.167,-0.597 0.234,-0.908 0.173,-0.81 -0.353,-1.626 -1.177,-1.713 -3.277,-0.346 -6.126,0.735 -8.853,2.346 -10.56,6.243 -20.386,13.493 -29.322,21.882 -13.097,12.288 -24.17,26.043 -30.736,43.017 -5.228,13.513 -7.139,27.562 -7.313,42.458 0,0.002 0.004,0.003 0.005,0.001 z m 221.237,-46.486 c 10e-4,0.001 0,0.003 -0.001,0.003 -0.96,-0.001 -1.848,-0.131 -2.689,0.024 -4.292,0.763 -8.62,1.401 -12.846,2.456 -9.085,2.272 -17.825,5.509 -25.973,10.201 -4.561,2.63 -5.378,4.359 -4.465,9.492 0.328,1.855 0.663,3.727 1.254,5.509 3.659,11.108 7.043,22.323 11.204,33.24 3.63,9.522 8.095,18.733 12.351,28.005 0.539,1.169 1.434,2.173 2.43,3.298 0.711,0.803 2.033,0.687 2.548,-0.254 4.644,-8.488 8.126,-16.658 10.321,-25.373 5.409,-21.458 6.274,-43.334 6.083,-65.31 0,-0.369 -0.118,-0.743 -0.22,-1.289 0,-0.002 0.002,-0.003 0.003,-0.002 z m -141.347,13.633 c 0,0.003 0.002,0.006 0.005,0.006 0.624,0.084 1.094,0.202 1.565,0.202 9.658,0.006 19.251,-0.662 28.647,-3.1 6.387,-1.658 12.446,-4.061 17.944,-7.781 4.286,-2.904 6.262,-6.886 5.504,-11.99 -0.496,-3.321 -1.075,-6.696 -2.155,-9.856 -5.313,-15.484 -13.718,-29.453 -21.872,-43.536 -1.248,-2.158 -3.409,-2.093 -4.746,0 -0.686,1.079 -1.247,2.272 -1.671,3.482 -2.006,5.706 -4.053,11.4 -5.892,17.159 -5.683,17.851 -11.276,35.738 -16.893,53.607 -0.174,0.542 -0.269,1.114 -0.436,1.806 z m 59.909,-81.226 c 0,-0.001 -0.002,-0.002 -0.003,-0.001 l -0.705,0.738 c -0.105,0.109 -0.141,0.267 -0.094,0.41 4.133,12.73 8.087,25.524 12.49,38.164 1.647,4.734 4.184,9.194 6.626,13.606 2.226,4.03 5.766,5.509 10.512,5.08 11.725,-1.054 21.317,-7.171 31.225,-12.109 0.451,-0.225 0.768,-0.659 0.813,-1.161 0.374,-4.207 -0.821,-7.665 -3.242,-10.717 -1.665,-2.092 -3.342,-4.239 -5.33,-6.004 -13.133,-11.68 -28.015,-20.486 -44.556,-26.418 -2.453,-0.882 -5.151,-1.073 -7.735,-1.586 -10e-4,0 -10e-4,-10e-4 -10e-4,-0.002 z M 298.104,289.713 c 0.372,-0.164 0.633,-0.501 0.745,-0.891 2.604,-9.135 5.212,-18.164 7.717,-27.228 0.323,-1.161 0.416,-2.385 0.531,-3.737 0.081,-0.941 -0.691,-1.755 -1.632,-1.682 -7.793,0.607 -14.881,2.095 -20.8,7.166 -2.257,1.932 -4.131,4.466 -3.576,7.501 1.355,7.441 4.537,13.94 11.175,18.221 1.795,1.157 3.686,1.597 5.84,0.65 z"
         fill="#ffffff"
         id="path28" /></mask></defs><rect
     style="display:inline;fill:url(#linearGradient1573);fill-opacity:1;stroke:none;stroke-width:0.25;stroke-linecap:butt;stroke-linejoin:miter;stroke-miterlimit:4;stroke-dasharray:none;stroke-dashoffset:0;stroke-opacity:1;marker:none;marker-start:none;marker-mid:none;marker-end:none;paint-order:normal;enable-background:new"
     id="rect1711-5"
     width="104"
     height="100"
     x="12"
     y="16"
     rx="8"
     ry="8" /><rect
     style="display:inline;fill:#212122;fill-opacity:0.99607843;stroke:none;stroke-width:0.25;stroke-linecap:butt;stroke-linejoin:miter;stroke-miterlimit:4;stroke-dasharray:none;stroke-dashoffset:0;stroke-opacity:1;marker:none;marker-start:none;marker-mid:none;marker-end:none;paint-order:normal;enable-background:new"
     id="rect1711"
     width="104"
     height="100"
     x="12"
     y="12"
     rx="8"
     ry="8" /><g
     mask="url(#mask1_2489_28656)"
     id="g54"
     transform="matrix(0.22556186,0,0,0.22556186,-24.499576,14.047905)"><path
       d="m 346.086,303.933 c -0.333,4.599 -1.552,9.365 -0.831,13.742 1.828,11.083 -6.428,10.196 -12.579,10.806 -6.705,0.665 -12.301,7.37 -19.727,3.546 0.333,-0.443 0.61,-0.831 0.942,-1.274 8.7,-5.985 13.41,-16.846 24.936,-19.783 2.216,-0.498 2.106,-7.148 7.259,-7.037 z"
       fill="#f3ac49"
       id="path29" /><path
       d="m 205.729,195.765 c 0,-62.125 0,-124.2496 -0.053,-186.37425 0,-1.79307 0.369,-2.16223 2.163,-2.16223 124.407,0.05273 248.867,0.05273 373.275,0 1.793,0 2.162,0.36916 2.162,2.16223 -0.053,124.40725 -0.053,248.86825 0,373.27525 0,1.793 -0.369,2.162 -2.162,2.162 -124.408,-0.052 -248.868,-0.052 -373.275,0 -1.794,0 -2.163,-0.369 -2.163,-2.162 0.053,-62.336 0.053,-124.618 0.053,-186.901 z m 3.428,17.139 c 0,54.056 -0.053,108.112 -0.053,162.115 1.055,2.057 -2.795,6.434 2.268,6.434 110.538,0.106 221.075,0.106 331.613,0.053 0.949,0 2.795,-1.319 2.689,-1.635 -1.951,-8.596 3.428,-8.016 9.071,-7.752 6.118,0.316 12.288,-0.053 18.458,0.105 2.215,0.053 2.743,-0.58 2.743,-2.795 -0.106,-24.998 -0.053,-49.942 -0.053,-74.94 -0.053,-93.662 -0.053,-187.323 -0.106,-280.9847 -0.422,-0.3692 -0.791,-1.002 -1.213,-1.002 -11.338,0 -22.624,0 -33.962,0.1582 -0.581,0 -1.688,1.793 -1.688,2.6896 -0.106,31.8006 0,63.5485 0.422,95.2969 0.105,7.594 -4.061,10.6 -10.02,12.393 -2.004,0.527 -3.797,0.791 -5.801,1.318 -7.647,0 -15.558,-2.373 -18.775,9.018 -2.057,7.12 -8.702,12.921 -13.29,19.302 -2.162,1.582 -4.113,3.586 -6.486,4.694 -10.917,5.274 -21.254,-2.953 -32.909,-1.319 -12.868,1.794 -21.321,5.326 -21.743,18.88 0,0.633 6.548,13.639 -5.575,6.183 -0.528,-0.317 -1.265,-0.012 -1.951,-0.012 -8.807,-5.854 -19.354,0.158 -28.373,-4.272 -0.369,-0.686 -0.738,-1.371 -1.16,-2.057 0.053,-3.533 0.369,-7.067 0.053,-10.547 -0.475,-4.905 0.211,-7.7 6.328,-6.645 3.639,0.633 9.546,1.846 10.864,-2.162 4.799,-14.503 12.024,-27.74 18.247,-41.505 3.587,-7.963 -4.693,-15.61 -5.695,-23.7316 -1.002,-7.8051 -7.436,-14.45 -4.957,-22.7825 3.48,-11.4968 11.76,-20.1457 18.458,-29.7439 0.685,-0.6856 1.371,-1.3712 2.109,-2.1095 5.749,-8.5435 12.446,-15.9267 22.783,-18.9855 1.582,-0.8438 5.062,0.6856 4.535,-2.6368 -0.422,-2.8479 -3.428,-1.3712 -5.115,-1.3712 -80.794,0.0527 -161.588,0.2109 -242.434,-0.2637 -9.44,-0.0527 -10.917,3.217 -9.388,10.8639 0,61.1227 0,122.2978 0,183.4208 0.053,2.109 0.106,4.219 0.106,6.328 z M 488.718,58.542 c -0.106,0 -0.211,0 -0.369,0 0,-13.8699 0,-27.7399 0,-41.6098 0,-1.5294 0.685,-3.4807 -2.215,-3.4279 -2.901,0.0527 -2.057,2.1095 -2.057,3.5334 -0.211,27.0543 -0.369,54.1085 -0.58,81.1628 0,3.0065 1.266,4.9575 4.008,6.0125 0.211,0.105 1.16,-0.791 1.16,-1.161 0.053,-14.8716 0.053,-29.6908 0.053,-44.51 z"
       fill="#f4acba"
       id="path30" /><path
       d="m 575.691,13.6094 c 0.053,93.6616 0.053,187.3236 0.106,280.9846 0,24.998 0,49.943 0.052,74.94 0,2.162 -0.527,2.848 -2.742,2.795 -6.17,-0.158 -12.288,0.158 -18.458,-0.105 -5.696,-0.264 -11.075,-0.844 -9.071,7.752 0.106,0.369 -1.74,1.635 -2.689,1.635 -110.538,0.053 -221.076,0.053 -331.613,-0.053 -5.063,0 -1.266,-4.377 -2.268,-6.434 0.58,-0.58 1.16,-1.16 1.688,-1.74 5.748,-6.381 11.497,-12.763 17.192,-19.144 20.41,-0.316 40.872,-0.422 61.281,-1.371 2.373,-0.105 2.901,7.541 5.801,1.108 1.002,-2.215 2.848,-4.009 4.272,-6.013 -0.317,1.477 -1.371,3.376 -0.844,4.378 1.582,2.9 2.795,-0.37 3.586,-0.95 5.116,-4.113 9.493,0.528 13.765,1.582 2.795,0.686 4.641,5.538 6.75,8.597 1.846,2.689 3.428,5.59 5.116,8.385 0.105,-2.321 0.316,-4.641 0.369,-6.909 0.052,-2.109 -0.211,-4.219 0.052,-6.328 0.844,-6.645 -0.58,-12.868 7.911,-17.878 6.803,-4.008 16.982,-9.282 15.136,-21.464 -0.791,-5.169 0,-10.548 0.105,-15.874 5.274,-3.797 10.6,-7.647 15.874,-11.444 7.436,-6.381 16.032,-10.495 25.314,-13.343 0.264,0 0.527,0 0.791,0 0.422,-0.158 0.897,-0.369 1.319,-0.527 10.442,1.055 9.229,-7.542 11.074,-13.501 13.448,-5.115 28.742,4.746 41.663,-5.274 3.586,-2.795 8.385,-4.271 11.286,-7.488 4.852,-5.38 9.914,-9.44 17.35,-10.706 4.114,-0.686 10.759,2.004 11.919,-3.27 1.213,-5.484 -0.949,-11.655 -1.635,-17.561 2.532,-3.165 5.01,-6.276 7.542,-9.44 2.109,-6.54 6.381,-1.53 9.545,-1.635 10.6,-0.475 12.288,-10.179 17.245,-16.296 9.124,-11.286 14.608,-24.734 19.091,-38.235 4.272,-12.709 0.264,-26.157 0.264,-39.342 0.053,-32.3278 0,-64.603 0.053,-96.9311 0,-0.8438 0.421,-1.7403 0.632,-2.5841 0.633,0.3164 1.266,0.5801 1.846,0.8965 -0.422,0.1582 -0.896,0.3165 -1.318,0.4747 0.158,0.1582 0.263,0.3164 0.422,0.5273 0.263,-0.3164 0.58,-0.6328 0.844,-1.002 11.233,-0.5273 22.307,-0.8965 33.382,-1.2129 z"
       fill="#f18928"
       stroke="#f18928"
       stroke-width="0.755388"
       id="path31" /><path
       d="m 208.957,206.575 c 0,-61.122 0,-122.2977 0,-183.4203 0.263,0 0.58,-0.0527 0.843,-0.0527 32.065,0 64.129,0.3164 96.193,-0.211 8.755,-0.1582 14.82,2.2677 20.673,8.6489 5.591,6.0121 12.657,10.653 19.091,15.874 5.696,5.0101 3.059,12.3933 2.901,17.7198 -0.422,15.3465 -0.422,30.9568 -5.379,45.9343 -1.213,3.744 -1.055,8.016 -2.321,11.76 -2.637,7.911 2.11,16.718 -3.955,24.418 -4.852,6.17 -8.28,13.501 -12.341,20.304 -3.586,5.748 -8.807,10.6 -9.492,17.878 -0.37,0.105 -0.739,0.158 -1.108,0.263 -7.805,-1.529 -17.139,6.962 -23.521,-3.744 0,0 -0.422,0.158 -0.474,0.264 -1.899,5.959 -8.122,6.17 -12.183,7.225 -17.93,4.693 -36.494,4.482 -54.794,3.164 -11.813,-0.844 -15.557,2.848 -13.395,13.923 -0.211,0.052 -0.475,0.052 -0.738,0.052 z"
       fill="#66bcb2"
       stroke="#66bcb2"
       stroke-width="0.755388"
       id="path32" /><path
       d="m 324.715,167.498 c 4.061,-6.804 7.489,-14.134 12.34,-20.304 6.065,-7.7 1.319,-16.507 3.956,-24.418 1.265,-3.744 1.054,-7.963 2.32,-11.76 4.905,-14.9248 4.905,-30.5878 5.379,-45.9344 0.159,-5.3792 2.743,-12.7097 -2.9,-17.7198 7.699,3.5334 18.036,-0.8438 23.679,9.7564 4.746,8.9126 11.708,-2.2677 17.772,-0.1582 1.108,-3.5861 4.167,-6.0648 4.272,-10.5475 0.106,-3.5334 1.108,-11.2858 5.379,-10.1783 13.237,3.4807 26.475,-0.791 39.501,1.5821 -6.698,9.5982 -15.03,18.2472 -18.458,29.7439 -2.479,8.2798 3.955,14.9774 4.957,22.7826 1.002,8.1215 9.282,15.7682 5.696,23.7322 -6.223,13.764 -13.449,27.054 -18.248,41.504 -1.318,4.008 -7.225,2.795 -10.864,2.162 -6.17,-1.055 -6.803,1.688 -6.328,6.645 0.316,3.481 0,7.014 -0.053,10.548 -7.436,-0.37 -14.872,-0.528 -22.255,-1.213 -2.215,-0.211 -4.324,-1.688 -6.487,-2.585 1.055,-2.109 0.053,-5.431 3.639,-6.117 0.369,-0.053 1.002,-1.371 0.844,-1.635 -2.057,-2.848 -4.219,-5.59 -6.434,-8.28 -0.053,-0.052 -1.318,0.633 -1.793,1.161 -9.598,11.074 -20.568,18.194 -35.914,11.233 z"
       fill="#7ebad2"
       stroke="#7ebad2"
       stroke-width="0.755388"
       id="path33" /><path
       d="m 436.465,37.8166 c -13.026,-2.3204 -26.263,1.8986 -39.5,-1.5821 -4.325,-1.1075 -5.274,6.6449 -5.379,10.1783 -0.159,4.4827 -3.165,6.9614 -4.272,10.5475 -6.065,-2.1095 -13.026,9.0708 -17.773,0.1582 -5.643,-10.6002 -15.979,-6.223 -23.679,-9.7564 -6.434,-5.221 -13.553,-9.8619 -19.091,-15.874 -5.854,-6.3812 -11.971,-8.8071 -20.673,-8.6489 -32.17,0.5801 -64.234,0.2637 -96.298,0.2637 1.687,-2.9533 -3.692,-9.3345 3.111,-9.3873 79.581,-0.2636 159.214,-0.2109 238.795,0 3.217,0 6.381,1.9513 9.598,3.0061 -10.336,3.006 -17.034,10.442 -22.782,18.9854 -0.686,0.6856 -1.371,1.3712 -2.057,2.1095 z"
       fill="#6e9aca"
       stroke="#87add4"
       stroke-width="0.755388"
       id="path34" /><path
       d="m 426.866,236.003 c 0.528,-5.432 3.164,-8.121 8.913,-8.543 6.012,-0.422 2.215,-6.118 3.797,-9.177 3.639,-7.119 6.117,-14.977 5.748,-23.309 2.321,-0.844 4.799,-1.372 6.856,-2.637 7.172,-4.43 12.288,-11.128 21.517,-13.659 5.063,-1.424 10.231,-1.055 14.977,-2.69 8.702,-3.006 8.28,-12.446 12.13,-18.933 4.746,-3.797 6.909,-9.018 9.651,-14.291 2.531,-4.8 -1.318,-13.976 8.332,-14.451 2.848,-0.158 3.903,-1.582 4.378,-4.008 2.004,-0.527 4.051,-1.014 6.055,-1.541 4.746,23.31 -5.106,42.307 -22.193,55.334 -11.813,8.965 -11.444,19.46 -13.343,30.745 -2.531,3.165 -5.01,6.276 -7.541,9.44 -2.69,5.116 -7.489,2.532 -11.391,3.006 -3.481,0.422 -6.962,-0.58 -10.179,2.11 -10.811,9.124 -23.362,13.712 -37.707,12.604 z"
       fill="#f3ac49"
       stroke="#f3ac49"
       stroke-width="0.755388"
       id="path35" /><path
       d="m 500.965,156.968 c -3.85,6.487 -3.503,15.959 -12.204,19.018 -4.747,1.635 -9.937,1.252 -15,2.676 -9.229,2.531 -14.358,9.247 -21.53,13.677 -2.057,1.265 -4.63,1.803 -6.897,2.647 -7.542,-4.588 -15.08,-9.316 -22.674,-13.904 0.686,0 1.582,-0.317 2.057,0 11.708,7.225 5.432,-5.538 5.432,-6.171 0.422,-13.553 8.965,-17.086 21.78,-18.88 11.655,-1.634 21.939,6.593 32.909,1.319 2.373,-1.16 4.324,-3.112 6.486,-4.694 3.217,1.424 6.477,2.888 9.641,4.312 z"
       fill="#fbcf67"
       stroke="#fbcf67"
       stroke-width="0.755388"
       stroke-linejoin="bevel"
       id="path36" /><path
       d="m 405.542,262.558 c -1.902,6.023 -0.634,14.581 -11.094,13.525 -0.226,-0.621 -1.177,0.043 -1.321,0.581 -0.264,0 -0.661,-0.188 -0.925,-0.188 -1.585,-30.166 -0.29,-60.355 -5.256,-90.309 0.423,-4.702 3.381,-7.449 7.396,-9.403 9.034,4.49 19.6,-1.532 28.422,4.279 7.555,4.596 14.958,9.33 22.565,13.927 0.37,8.347 -1.961,16.027 -5.606,23.212 -1.585,3.064 2.218,8.769 -3.804,9.192 -5.758,0.37 -8.4,3.117 -8.928,8.558 -7.238,8.876 -14.37,17.751 -21.449,26.626 z"
       fill="#8d888c"
       stroke="#8d888c"
       stroke-width="0.755388"
       id="path37" /><path
       d="m 208.957,206.576 c 0.263,0 0.527,-0.053 0.791,-0.053 32.38,1.161 64.761,2.69 97.089,-1.002 -9.387,11.972 -18.669,21.939 -36.863,20.357 -19.671,-1.687 -39.712,0.633 -59.541,1.266 -0.474,-4.747 -0.896,-9.493 -1.371,-14.239 -0.053,-2.11 -0.105,-4.219 -0.105,-6.329 z"
       fill="#5e5f97"
       stroke="#5e5f97"
       stroke-width="0.755388"
       id="path38" /><path
       d="m 493.685,208.843 c 1.898,-11.286 1.529,-21.78 13.342,-30.746 17.087,-13.026 26.949,-32.011 22.15,-55.321 5.959,-1.793 9.862,-4.377 9.756,-11.972 -0.422,-31.7475 -0.158,-63.5481 -0.105,-95.296 0,-0.9493 1.055,-2.6896 1.687,-2.6896 11.339,-0.211 22.625,-0.211 33.963,-0.1582 0.422,0 0.791,0.6328 1.213,1.002 -11.075,0.3164 -22.149,0.6856 -33.224,1.002 -0.633,-0.3164 -1.266,-0.5801 -1.846,-0.8966 -0.211,0.8438 -0.633,1.7404 -0.633,2.5842 -0.053,32.328 0,64.6033 -0.053,96.9312 -0.052,13.132 4.008,26.633 -0.263,39.342 -4.536,13.501 -9.968,26.949 -19.091,38.235 -4.958,6.117 -6.645,15.874 -17.245,16.296 -3.27,0.158 -7.542,-4.852 -9.651,1.687 z"
       fill="#f6a453"
       id="path39" /><path
       d="m 394.498,176.706 c -3.955,1.951 -7.08,4.925 -7.554,9.619 -2.11,1.424 -4.272,2.901 -6.382,4.324 -10.547,-0.316 -21.042,-0.685 -31.589,-1.002 -2.11,-0.316 -4.219,-0.685 -6.329,-1.002 -8.702,-5.01 -18.247,-2.531 -27.423,-3.269 0.685,-7.278 5.906,-12.13 9.492,-17.878 15.347,6.908 26.264,-0.211 35.967,-11.286 0.475,-0.527 1.741,-1.213 1.793,-1.16 2.215,2.689 4.378,5.432 6.434,8.279 0.159,0.264 -0.422,1.53 -0.843,1.635 -3.587,0.686 -2.532,4.008 -3.639,6.118 2.162,0.896 4.271,2.373 6.486,2.584 7.384,0.633 15.029,0.732 22.465,1.101 0.369,0.686 0.753,1.251 1.122,1.937 z"
       fill="#87add4"
       id="path40" /><path
       d="m 488.816,58.4798 c 0,14.8809 -0.079,30.1702 -0.132,45.0512 0,0.423 -0.953,1.271 -1.165,1.165 -2.701,-1.059 -4.025,-2.966 -4.025,-6.0372 0.212,-27.1667 0.301,-54.3592 0.513,-81.526 0,-1.4298 -0.799,-3.6052 2.114,-3.6582 2.86,-0.0529 2.313,1.9144 2.366,3.4501 0,13.9276 -0.042,27.5746 -0.042,41.5022 0.106,0.0529 0.212,0.0529 0.371,0.0529 z"
       fill="#ddc4e0"
       id="path41" /><path
       d="m 500.805,157.108 c -3.164,-1.424 -6.434,-3.111 -9.598,-4.535 4.588,-6.381 11.128,-12.13 13.184,-19.249 3.27,-11.339 11.628,-9.082 19.222,-9.135 -0.475,2.426 -1.871,4.019 -4.719,4.125 -9.651,0.474 -5.643,9.703 -8.174,14.502 -2.69,5.327 -5.169,10.495 -9.915,14.292 z"
       fill="#f8c9d1"
       stroke="#f8c9d1"
       stroke-width="0.755388"
       id="path42" /><path
       d="m 461.304,16.7208 c -3.217,-1.0547 -6.381,-3.006 -9.598,-3.006 -79.581,-0.1582 -159.214,-0.2637 -238.795,0 -6.803,0 -1.477,6.3812 -3.112,9.3873 -0.263,0 -0.58,0.0527 -0.843,0.0527 -1.583,-7.6469 -0.106,-10.9166 9.334,-10.8639 80.794,0.4746 161.64,0.2637 242.434,0.3692 1.74,0 4.694,-1.4767 5.115,1.3711 0.581,3.3752 -2.9,1.8458 -4.535,2.6896 z"
       fill="#7ebad2"
       stroke="#7ebad2"
       stroke-width="0.755388"
       id="path43" /><path
       d="m 209.009,212.904 c 0.475,4.747 0.897,9.493 1.371,14.239 -0.21,3.217 -0.632,6.434 -0.632,9.651 -0.053,44.511 -0.053,89.021 0,133.531 0,1.002 0.58,2.004 0.896,3.006 -0.58,0.581 -1.16,1.161 -1.687,1.741 0,-54.056 0.052,-108.112 0.052,-162.168 z"
       fill="#9b8bc1"
       id="path44" /><path
       d="m 436.466,37.8165 c 0.685,-0.6856 1.371,-1.3711 2.109,-2.1095 -0.738,0.6856 -1.424,1.3712 -2.109,2.1095 z"
       fill="#7ebad2"
       id="path45" /><path
       d="m 210.643,373.331 c -0.316,-1.002 -0.896,-2.004 -0.896,-3.006 -0.053,-44.51 -0.053,-89.021 0,-133.531 0,-3.217 0.421,-6.434 0.632,-9.651 19.882,-0.58 39.87,-2.953 59.541,-1.266 18.194,1.583 27.476,-8.385 36.863,-20.356 0.264,-0.053 0.581,-0.106 0.844,-0.211 3.692,-1.371 5.432,0.738 8.649,2.637 12.499,7.278 26.105,3.533 38.077,-2.268 8.016,-3.85 13.5,-1.582 16.295,4.377 7.278,15.769 4.114,33.119 6.012,49.732 2.163,18.669 -9.123,14.186 -18.774,14.239 -6.434,0.052 -12.815,0.105 -19.249,-0.053 -1.371,-0.053 -2.953,-0.633 -4.008,-1.529 -7.12,-5.696 -15.505,1.213 -22.783,-2.374 -7.805,-3.849 -13.026,5.854 -20.198,3.745 -2.215,-0.633 -3.85,-4.905 -5.749,-4.852 -11.391,0.211 -22.888,0.264 -32.539,8.174 -4.166,3.428 -11.18,4.166 -11.496,11.022 -0.528,10.601 -0.422,21.253 -0.369,31.854 0.052,9.756 0.158,9.756 5.748,11.76 0.316,0.106 0.395,0.906 0.553,1.381 -6.644,7.014 -13.263,14.018 -19.908,20.98 -5.748,6.434 -11.497,12.815 -17.245,19.196 z"
       fill="#513f92"
       stroke="#513f92"
       stroke-width="0.755388"
       id="path46" /><path
       d="m 247.77,333.198 c -0.159,-0.474 -0.211,-1.265 -0.528,-1.371 -5.59,-2.004 -5.695,-1.951 -5.748,-11.76 -0.053,-10.601 -0.106,-21.253 0.369,-31.854 0.316,-6.856 7.33,-7.594 11.497,-11.022 9.651,-7.91 21.147,-8.016 32.539,-8.174 1.845,-0.053 3.533,4.219 5.748,4.852 7.172,2.109 12.393,-7.594 20.198,-3.745 7.226,3.587 15.663,-3.322 22.783,2.374 1.055,0.843 2.637,1.476 4.008,1.529 6.434,0.158 12.815,0.105 19.249,0.053 9.651,-0.053 20.884,4.43 18.775,-14.239 -1.899,-16.613 1.265,-33.963 -6.012,-49.732 -2.743,-5.959 -8.28,-8.227 -16.296,-4.377 -11.972,5.801 -25.578,9.546 -38.077,2.268 -3.217,-1.899 -4.957,-4.008 -8.649,-2.637 2.163,-6.54 4.318,-13.179 6.481,-19.718 0.369,-0.106 0.749,-0.165 1.118,-0.27 9.177,0.738 18.714,-1.753 27.416,3.257 2.109,0.316 4.233,0.691 6.342,1.007 1.424,2.426 28.957,3.24 31.55,1.022 2.11,-1.424 4.308,-2.949 6.417,-4.373 4.958,29.902 3.738,60.316 5.32,90.429 -9.282,2.795 -17.931,6.908 -25.314,13.342 -8.86,-0.369 -17.931,0.158 -26.58,-1.371 -12.34,-2.162 -21.833,3.164 -31.378,9.229 -3.956,2.479 -8.28,3.112 -12.446,1.899 -14.292,-4.061 -27.318,4.64 -26.58,19.091 0.527,9.703 -0.738,15.452 -12.341,12.182 -2.373,-0.686 -5.273,0.422 -7.91,0.685 -0.633,0.422 -1.319,0.897 -1.951,1.424 z"
       fill="#5e5f97"
       stroke="#5e5f97"
       stroke-width="0.755388"
       id="path47" /><path
       d="m 249.774,331.722 c 2.637,-0.264 5.537,-1.372 7.911,-0.686 11.655,3.27 12.867,-2.426 12.34,-12.182 -0.738,-14.45 12.235,-23.152 26.58,-19.091 4.166,1.213 8.49,0.58 12.446,-1.899 9.545,-6.012 19.038,-11.391 31.379,-9.229 8.648,1.529 17.719,1.002 26.579,1.371 -5.274,3.797 -10.6,7.647 -15.874,11.444 -1.846,1.108 -3.639,2.215 -5.484,3.27 -4.852,-0.105 -4.8,6.223 -6.962,6.75 -10.969,2.795 -15.452,13.132 -23.732,18.828 -0.843,-1.53 -1.424,-1.952 -3.428,-0.844 -3.111,1.687 -6.697,3.217 -10.178,3.375 -15.927,0.686 -31.801,0.897 -47.727,1.055 -1.319,0.053 -2.584,-1.424 -3.85,-2.162 z"
       fill="#8d888c"
       stroke="#8d888c"
       stroke-width="0.755388"
       id="path48" /><path
       d="m 426.867,236.003 c 14.345,1.16 26.897,-3.481 37.76,-12.604 3.217,-2.69 6.698,-1.688 10.179,-2.11 3.902,-0.474 8.701,2.11 11.391,-3.006 0.686,5.907 2.795,12.077 1.635,17.562 -1.16,5.326 -7.805,2.584 -11.919,3.269 -7.436,1.266 -12.499,5.274 -17.35,10.706 -2.954,3.27 -7.753,4.747 -11.286,7.489 -12.921,10.073 -28.215,0.158 -41.663,5.274 7.014,-8.86 14.134,-17.72 21.253,-26.58 z"
       fill="#f6a453"
       id="path49" /><path
       d="m 249.774,331.722 c 1.296,0.766 2.578,2.207 3.844,2.154 15.927,-0.211 31.853,-0.417 47.727,-1.05 3.481,-0.159 7.057,-1.671 10.169,-3.412 2.004,-1.107 2.663,-0.677 3.507,0.853 -0.317,0.422 -0.644,0.875 -0.96,1.297 -4.957,5.432 -9.862,10.916 -14.819,16.348 -1.477,2.004 -3.27,3.797 -4.272,6.012 -2.901,6.434 -3.375,-1.213 -5.801,-1.107 -20.409,1.002 -40.911,1.036 -61.32,1.353 6.645,-7.014 13.257,-14.016 19.902,-20.978 0.633,-0.527 1.337,-0.995 2.023,-1.47 z"
       fill="#b59259"
       stroke="#b59259"
       stroke-width="0.755388"
       id="path50" /><path
       d="m 299.242,347.859 c 4.957,-5.432 9.862,-10.917 14.819,-16.349 7.067,3.639 12.393,-2.742 18.775,-3.375 5.853,-0.58 13.711,0.264 11.971,-10.283 -0.686,-4.219 0.475,-8.702 0.791,-13.079 1.846,-1.108 3.639,-2.215 5.485,-3.27 -0.053,5.274 -0.897,10.706 -0.106,15.874 1.846,12.182 -8.332,17.456 -15.135,21.464 -8.491,5.01 -7.067,11.233 -7.911,17.878 -0.264,2.057 0,4.219 -0.053,6.328 -0.053,2.321 -0.263,4.641 -0.369,6.909 -1.688,-2.795 -3.27,-5.696 -5.115,-8.385 -2.11,-3.112 -3.956,-7.911 -6.751,-8.596 -4.272,-1.055 -8.649,-5.643 -13.764,-1.583 -0.739,0.581 -1.952,3.85 -3.586,0.95 -0.422,-1.055 0.632,-2.954 0.949,-4.483 z"
       fill="#f8b570"
       id="path51" /><path
       d="m 314.114,185.639 c -2.163,6.539 -4.272,13.131 -6.434,19.671 -0.264,0.053 -0.58,0.105 -0.844,0.211 -32.328,3.744 -64.709,2.162 -97.09,1.002 -2.162,-11.022 1.635,-14.714 13.396,-13.923 18.3,1.266 36.863,1.477 54.794,-3.164 4.061,-1.055 10.284,-1.318 12.182,-7.225 0.053,-0.158 0.475,-0.264 0.475,-0.264 6.381,10.653 15.768,2.215 23.521,3.692 z"
       fill="#8d888c"
       stroke="#8d888c"
       stroke-width="0.755388"
       id="path52" /><path
       d="m 380.562,190.649 c -2.267,2.32 -30.113,1.423 -31.589,-1.003 10.547,0.317 21.095,0.686 31.589,1.003 z"
       fill="#7d89c1"
       stroke="#7d89c1"
       stroke-width="0.755388"
       id="path53" /><path
       d="m 348.971,189.648 c -2.109,-0.317 -4.219,-0.686 -6.328,-1.002 2.109,0.316 4.219,0.685 6.328,1.002 z"
       fill="#7d89c1"
       id="path54" /></g></svg>
