<?xml version="1.0" encoding="UTF-8" standalone="no"?>
<svg
   viewBox="0 0 128 128"
   style="display:inline;enable-background:new"
   version="1.0"
   id="svg11300"
   height="128"
   width="128"
   xml:space="preserve"
   xmlns:xlink="http://www.w3.org/1999/xlink"
   xmlns="http://www.w3.org/2000/svg"
   xmlns:svg="http://www.w3.org/2000/svg"
   xmlns:rdf="http://www.w3.org/1999/02/22-rdf-syntax-ns#"
   xmlns:cc="http://creativecommons.org/ns#"
   xmlns:dc="http://purl.org/dc/elements/1.1/"><title
     id="title4162">Adwaita Icon Template</title><defs
     id="defs3"><linearGradient
       id="linearGradient33"><stop
         style="stop-color:#4d4d4d;stop-opacity:1;"
         offset="0"
         id="stop28" /><stop
         id="stop29"
         offset="0.04166667"
         style="stop-color:#969696;stop-opacity:1;" /><stop
         style="stop-color:#4d4d4d;stop-opacity:1;"
         offset="0.08333334"
         id="stop30" /><stop
         id="stop31"
         offset="0.91666669"
         style="stop-color:#4d4d4d;stop-opacity:1;" /><stop
         style="stop-color:#969696;stop-opacity:1;"
         offset="0.95833331"
         id="stop32" /><stop
         style="stop-color:#4d4d4d;stop-opacity:1;"
         offset="1"
         id="stop33" /></linearGradient><linearGradient
       id="linearGradient3769"><stop
         id="stop3771"
         offset="0"
         style="stop-color:#3c3c3c;stop-opacity:1" /><stop
         id="stop3773"
         offset="1"
         style="stop-color:#9e9e9e;stop-opacity:1" /></linearGradient><linearGradient
       id="linearGradient4825"><stop
         id="stop4827"
         offset="0"
         style="stop-color:#0084dd;stop-opacity:1" /><stop
         id="stop4829"
         offset="1"
         style="stop-color:white;stop-opacity:1" /></linearGradient><clipPath
       clipPathUnits="userSpaceOnUse"
       id="clipPath23"><rect
         style="opacity:1;fill:#d533e4;fill-opacity:0.540984;stroke:none;stroke-width:3.33332;stroke-miterlimit:4;stroke-dasharray:none;stroke-opacity:1"
         id="rect23"
         width="76.666664"
         height="100"
         x="-82.912109"
         y="11.999998"
         ry="15.395729"
         rx="15.395729" /></clipPath><clipPath
       clipPathUnits="userSpaceOnUse"
       id="clipPath24"><rect
         style="opacity:1;fill:#d533e4;fill-opacity:0.540984;stroke:none;stroke-width:3.33332;stroke-miterlimit:4;stroke-dasharray:none;stroke-opacity:1"
         id="rect24"
         width="76.666664"
         height="100"
         x="-82.912109"
         y="11.999998"
         ry="15.395729"
         rx="15.395729" /></clipPath><clipPath
       clipPathUnits="userSpaceOnUse"
       id="clipPath25"><rect
         style="opacity:1;fill:#d533e4;fill-opacity:0.540984;stroke:none;stroke-width:3.33333;stroke-miterlimit:4;stroke-dasharray:none;stroke-opacity:1"
         id="rect25"
         width="76.666664"
         height="100"
         x="-82.912109"
         y="11.999999"
         ry="15.395729"
         rx="15.395729" /></clipPath><clipPath
       clipPathUnits="userSpaceOnUse"
       id="clipPath26"><rect
         style="opacity:1;fill:#d533e4;fill-opacity:0.540984;stroke:none;stroke-width:3.33333;stroke-miterlimit:4;stroke-dasharray:none;stroke-opacity:1"
         id="rect26"
         width="76.666664"
         height="100"
         x="-82.912109"
         y="11.999999"
         ry="15.395729"
         rx="15.395729" /></clipPath><linearGradient
       xlink:href="#linearGradient3769"
       id="linearGradient35"
       x1="-133.19781"
       y1="29.309116"
       x2="-170.9883"
       y2="103.30395"
       gradientUnits="userSpaceOnUse"
       gradientTransform="matrix(1.1828623,0,0,1.1828623,224.85544,-6.1943425)" /><linearGradient
       xlink:href="#linearGradient4825"
       id="linearGradient42"
       gradientUnits="userSpaceOnUse"
       gradientTransform="matrix(0.25025073,0.00146614,-0.00146614,0.25025073,-107.47184,-34.413267)"
       x1="253.74718"
       y1="412.82977"
       x2="188.00023"
       y2="542.33295" /><linearGradient
       xlink:href="#linearGradient4825"
       id="linearGradient43"
       gradientUnits="userSpaceOnUse"
       gradientTransform="matrix(0.10437917,-0.08407887,0.08407887,0.10437917,-91.84261,9.3560629)"
       x1="253.74718"
       y1="412.82977"
       x2="188.00023"
       y2="542.33295" /><linearGradient
       xlink:href="#linearGradient33"
       id="linearGradient45"
       x1="-163.07236"
       y1="66"
       x2="-86.405357"
       y2="66"
       gradientUnits="userSpaceOnUse"
       gradientTransform="matrix(1.08,0,0,1.08,198.71797,-5.279997)" /></defs><metadata
     id="metadata4"><rdf:RDF><cc:Work
         rdf:about=""><dc:format>image/svg+xml</dc:format><dc:type
           rdf:resource="http://purl.org/dc/dcmitype/StillImage" /><dc:creator><cc:Agent><dc:title>GNOME Design Team</dc:title></cc:Agent></dc:creator><dc:source /><cc:license
           rdf:resource="http://creativecommons.org/licenses/by-sa/4.0/" /><dc:title>Adwaita Icon Template</dc:title><dc:subject><rdf:Bag /></dc:subject><dc:date /><dc:rights><cc:Agent><dc:title /></cc:Agent></dc:rights><dc:publisher><cc:Agent><dc:title /></cc:Agent></dc:publisher><dc:identifier /><dc:relation /><dc:language /><dc:coverage /><dc:description /><dc:contributor><cc:Agent><dc:title /></cc:Agent></dc:contributor></cc:Work><cc:License
         rdf:about="http://creativecommons.org/licenses/by-sa/4.0/"><cc:permits
           rdf:resource="http://creativecommons.org/ns#Reproduction" /><cc:permits
           rdf:resource="http://creativecommons.org/ns#Distribution" /><cc:requires
           rdf:resource="http://creativecommons.org/ns#Notice" /><cc:requires
           rdf:resource="http://creativecommons.org/ns#Attribution" /><cc:permits
           rdf:resource="http://creativecommons.org/ns#DerivativeWorks" /><cc:requires
           rdf:resource="http://creativecommons.org/ns#ShareAlike" /></cc:License></rdf:RDF></metadata><path
     id="path43"
     style="display:inline;fill:url(#linearGradient45);fill-opacity:1;stroke-width:0.270063;marker:none;marker-start:none;marker-mid:none;marker-end:none;enable-background:new"
     d="m 31.243816,12.000002 h 65.512369 c 4.788775,0 8.643995,3.85344 8.643995,8.64 V 111.36 c 0,4.78656 -3.85522,8.64 -8.643995,8.64 H 31.243816 c -4.788774,0 -8.643996,-3.85344 -8.643996,-8.64 V 20.640002 c 0,-4.78656 3.855222,-8.64 8.643996,-8.64 z" /><path
     id="rect33"
     style="display:inline;fill:#000000;fill-opacity:1;stroke-width:0.270063;marker:none;marker-start:none;marker-mid:none;marker-end:none;enable-background:new"
     d="m 31.243816,8.0000019 h 65.51237 c 4.788774,0 8.643994,3.8534401 8.643994,8.6400001 V 107.36 c 0,4.78656 -3.85522,8.64 -8.643994,8.64 h -65.51237 c -4.788774,0 -8.643996,-3.85344 -8.643996,-8.64 V 16.640002 c 0,-4.78656 3.855222,-8.6400001 8.643996,-8.6400001 z" /><path
     id="path34"
     style="display:inline;fill:url(#linearGradient35);stroke-width:0.270063;marker:none;marker-start:none;marker-mid:none;marker-end:none;enable-background:new"
     d="m 33.447567,11.626686 h 60.348469 c 4.788785,0 8.003974,2.282451 8.003974,7.06901 v 85.646174 c 0,4.78656 -2.516969,8.05814 -7.305754,8.05814 H 33.505757 c -4.788774,0 -7.305746,-2.68973 -7.305746,-7.47629 V 19.335728 c 0,-4.786559 2.458782,-7.709042 7.247556,-7.709042 z" /><path
     style="fill:url(#linearGradient42);stroke-width:0.250255"
     d="m -34.54829,97.012858 c -2.285306,2.192234 -11.379101,-4.513757 -14.516513,-4.083471 -3.137415,0.430289 -10.089974,9.336993 -12.88111,7.840973 -2.791139,-1.496017 0.776501,-12.216993 -0.60224,-15.067887 -1.378741,-2.85089 -11.997977,-6.710845 -11.43769,-9.827668 0.560288,-3.116824 11.859004,-3.036761 14.144308,-5.228998 2.285305,-2.192234 2.674816,-13.484518 5.81223,-13.914806 3.137412,-0.430287 6.552766,10.340172 9.343902,11.836188 2.791137,1.496016 13.651105,-1.623045 15.029846,1.227849 1.378741,2.850891 -7.809174,9.427337 -8.369459,12.544162 -0.560287,3.116823 5.762029,12.481421 3.476726,14.673658 z"
     id="path39"
     clip-path="url(#clipPath24)"
     transform="matrix(1.08,0,0,1.08,113.37174,-4.959997)" /><path
     style="fill:#ffffff;stroke-width:0.250255"
     d="m -53.587142,54.73031 c -0.231813,-0.01873 -0.470553,-0.01407 -0.713743,0.01927 -0.972753,0.13341 -1.753753,0.693044 -2.278912,1.282914 -0.525161,0.58987 -0.878641,1.240145 -1.186858,1.932556 -0.616431,1.384823 -1.0349,2.978185 -1.43017,4.584759 -0.395267,1.606576 -0.755463,3.219977 -1.131448,4.489242 -0.375986,1.269262 -0.925069,2.18958 -0.89787,2.163489 0.0272,-0.02609 -0.914618,0.484389 -2.198411,0.807308 -1.28379,0.322916 -2.911069,0.61552 -4.532679,0.943687 -1.621614,0.328167 -3.231233,0.679931 -4.640474,1.238284 -0.704621,0.279178 -1.368532,0.605576 -1.979715,1.10577 -0.611183,0.500196 -1.203025,1.256881 -1.376744,2.223251 -0.173715,0.96637 0.117087,1.882043 0.515805,2.56378 0.398716,0.681738 0.908124,1.219123 1.471402,1.726221 1.126557,1.014194 2.512673,1.904406 3.918471,2.776788 1.405801,0.872381 2.828867,1.713184 3.919825,2.462993 1.090954,0.749807 1.796448,1.556664 1.780039,1.522738 -0.01639,-0.03393 0.178048,1.019599 0.08845,2.340346 -0.0896,1.320744 -0.314533,2.958752 -0.503533,4.602407 -0.189001,1.643654 -0.351419,3.283142 -0.255874,4.795952 0.04778,0.756406 0.152737,1.488766 0.439585,2.224605 0.286849,0.73584 0.823895,1.53249 1.689285,1.99633 0.865392,0.46384 1.826025,0.47018 2.597606,0.30165 0.771581,-0.16854 1.439767,-0.48707 2.096108,-0.86608 1.312682,-0.75801 2.588221,-1.8007 3.85232,-2.868115 1.2641,-1.067413 2.503531,-2.16128 3.553763,-2.967138 1.050235,-0.805859 2.035334,-1.227605 1.997995,-1.222483 -0.03734,0.0051 1.024573,0.14599 2.252988,0.639335 1.228416,0.493349 2.716961,1.213036 4.221766,1.900703 1.504804,0.687665 3.013556,1.349158 4.481848,1.725772 0.734147,0.188306 1.46327,0.31474 2.251735,0.269317 0.788465,-0.04542 1.712339,-0.310084 2.420899,-0.989787 0.708557,-0.679702 1.011115,-1.591539 1.08926,-2.377436 0.07815,-0.785897 -0.01779,-1.519846 -0.175425,-2.261182 -0.315274,-1.482674 -0.91341,-3.017768 -1.537953,-4.549848 -0.624543,-1.53208 -1.281831,-3.048911 -1.723709,-4.296768 -0.441874,-1.247854 -0.53818,-2.315101 -0.544849,-2.278009 -0.0067,0.03709 0.45544,-0.929716 1.304243,-1.945556 0.848802,-1.01584 1.993128,-2.208578 3.11215,-3.427232 1.11902,-1.218653 2.214029,-2.44927 3.025937,-3.729317 0.405954,-0.640025 0.751548,-1.294663 0.952,-2.058574 0.200451,-0.763911 0.234535,-1.723916 -0.192945,-2.607836 -0.427477,-0.883918 -1.201452,-1.453733 -1.924735,-1.770913 -0.723283,-0.317176 -1.450974,-0.452355 -2.204741,-0.531519 -1.507531,-0.158327 -3.152091,-0.06411 -4.802182,0.05643 -1.650087,0.120535 -3.295586,0.277029 -4.618915,0.311667 -1.323326,0.03464 -2.368045,-0.203535 -2.334827,-0.185732 0.03322,0.01781 -0.743438,-0.72026 -1.447265,-1.841431 -0.703828,-1.121171 -1.484985,-2.578245 -2.298197,-4.01908 -0.81321,-1.440837 -1.644934,-2.862964 -2.611438,-4.030693 -0.483254,-0.583863 -0.99902,-1.114904 -1.663602,-1.541606 -0.498433,-0.320026 -1.130823,-0.585019 -1.826264,-0.641235 z m -0.140919,4.196884 c 0.152161,0.125896 0.311384,0.249171 0.549187,0.536485 0.643494,0.777465 1.427963,2.061196 2.20966,3.446191 0.781694,1.384995 1.573944,2.873872 2.393547,4.179472 0.819603,1.305597 1.516724,2.474999 2.94551,3.240812 1.428786,0.765811 2.788237,0.698682 4.329245,0.658342 1.541011,-0.04034 3.219549,-0.204975 4.805688,-0.320839 1.586136,-0.115865 3.08931,-0.173324 4.093016,-0.06791 0.370951,0.03896 0.562223,0.103315 0.751305,0.160326 -0.07273,0.183617 -0.141081,0.373286 -0.340806,0.688171 -0.540563,0.852249 -1.518811,1.994898 -2.594462,3.166319 -1.075653,1.171423 -2.247236,2.385317 -3.235661,3.568258 -0.988428,1.18294 -1.884669,2.207249 -2.171481,3.802754 -0.28681,1.595504 0.196728,2.86753 0.71129,4.320652 0.514563,1.453122 1.189801,2.998951 1.790139,4.471653 0.600338,1.472702 1.119395,2.8845 1.329303,3.871654 0.07759,0.364865 0.07539,0.566511 0.0796,0.763955 -0.197106,-0.01244 -0.398325,-0.01888 -0.759412,-0.111495 -0.97758,-0.250746 -2.366623,-0.828176 -3.813108,-1.489192 -1.446482,-0.661016 -2.962901,-1.400034 -4.393386,-1.974536 -1.430482,-0.5745 -2.681762,-1.110539 -4.287808,-0.890275 -1.606043,0.220266 -2.666346,1.073132 -3.889338,2.011549 -1.222989,0.938417 -2.484509,2.058525 -3.699618,3.084571 -1.21511,1.026044 -2.397236,1.956262 -3.271213,2.460943 -0.322908,0.186468 -0.515287,0.246614 -0.701769,0.311645 -0.0491,-0.191288 -0.105495,-0.384666 -0.129003,-0.756909 -0.06362,-1.007218 0.05636,-2.506873 0.238032,-4.086827 0.181675,-1.579954 0.415925,-3.250536 0.520262,-4.788537 0.10434,-1.538003 0.227338,-2.893152 -0.478439,-4.352525 -0.705778,-1.459373 -1.844685,-2.204425 -3.115099,-3.077573 -1.270413,-0.873147 -2.725294,-1.727009 -4.076611,-2.56558 -1.351317,-0.838572 -2.601478,-1.675421 -3.351533,-2.350663 -0.277112,-0.249475 -0.393827,-0.413724 -0.513303,-0.570981 0.16674,-0.105821 0.333177,-0.21931 0.68004,-0.35674 0.938263,-0.371749 2.401599,-0.721041 3.960365,-1.03649 1.558764,-0.315449 3.219784,-0.60911 4.714751,-0.985145 1.49497,-0.376037 2.822361,-0.677584 3.992211,-1.79979 1.16985,-1.122206 1.526069,-2.435407 1.963904,-3.913459 0.437834,-1.478051 0.800459,-3.125493 1.180408,-4.669805 0.37995,-1.544311 0.789517,-2.99202 1.199934,-3.914025 0.151635,-0.340656 0.272016,-0.502231 0.384657,-0.664453 z"
     id="path40"
     clip-path="url(#clipPath23)"
     transform="matrix(1.08,0,0,1.08,113.37174,-4.959997)" /><path
     style="fill:url(#linearGradient43);stroke-width:0.134031"
     d="m -17.09491,39.235015 c -0.206792,1.683403 -6.251147,1.977076 -7.407923,3.217428 -1.156775,1.240354 -1.028771,7.290485 -2.693684,7.614015 -1.664913,0.323531 -3.812021,-5.334242 -5.34913,-6.051112 -1.537109,-0.716869 -7.25157,1.274464 -8.073752,-0.208985 -0.822182,-1.48345 3.895187,-5.273819 4.101977,-6.957222 0.206791,-1.683403 -3.452945,-6.502822 -2.296169,-7.743175 1.156775,-1.240352 6.219379,2.074843 7.884291,1.751312 1.664912,-0.32353 5.117533,-5.293429 6.654642,-4.576559 1.537109,0.71687 -0.0514,6.556143 0.770784,8.039593 0.822181,1.483449 6.615753,3.231302 6.408964,4.914705 z"
     id="path41"
     clip-path="url(#clipPath26)"
     transform="matrix(1.08,0,0,1.08,113.37174,-4.959997)" /><path
     style="fill:#ffffff;stroke-width:0.134031"
     d="m -39.647982,27.63836 c -0.135379,0.09322 -0.265122,0.202889 -0.384541,0.330931 -0.477665,0.512178 -0.648586,1.16767 -0.671053,1.684105 -0.02247,0.516435 0.06513,0.957574 0.181385,1.385701 0.232513,0.856254 0.610752,1.677152 0.994442,2.486456 0.383689,0.809303 0.777366,1.596633 1.038318,2.220852 0.171778,0.41091 0.23767,0.761709 0.274175,0.894137 -0.06747,0.119663 -0.216191,0.444183 -0.48231,0.801294 -0.404272,0.542502 -0.976815,1.211298 -1.544972,1.903676 -0.568157,0.692378 -1.133925,1.397135 -1.566764,2.171657 -0.21642,0.38726 -0.408146,0.794138 -0.51134,1.300656 -0.103193,0.506518 -0.09607,1.184016 0.243433,1.796574 0.339503,0.61256 0.909986,0.977745 1.394202,1.1587 0.484215,0.180953 0.931108,0.233717 1.374205,0.25545 0.886197,0.04346 1.78348,-0.06245 2.671739,-0.177276 0.88826,-0.114821 1.758914,-0.24617 2.433219,-0.301455 0.443909,-0.03639 0.798092,0.0098 0.935298,0.01604 0.09318,0.101321 0.355769,0.343133 0.61296,0.706288 0.391023,0.552128 0.850025,1.303171 1.332946,2.057478 0.482921,0.754304 0.97827,1.510105 1.581129,2.1611 0.301429,0.325497 0.629229,0.633829 1.079067,0.888495 0.449839,0.254666 1.096431,0.45701 1.783921,0.323415 0.687491,-0.133595 1.211091,-0.563546 1.532818,-0.968145 0.32173,-0.404599 0.510288,-0.813059 0.667881,-1.227755 0.315187,-0.829392 0.491345,-1.715608 0.656631,-2.595875 0.165285,-0.880268 0.309603,-1.748826 0.465396,-2.407213 0.102493,-0.433141 0.255529,-0.755402 0.303947,-0.884179 0.124891,-0.05713 0.436045,-0.232528 0.861289,-0.365032 0.645937,-0.201268 1.502205,-0.405588 2.368823,-0.63178 0.866618,-0.226191 1.738468,-0.464149 2.543894,-0.836334 0.402714,-0.186093 0.797062,-0.402333 1.178271,-0.75146 0.381209,-0.349125 0.773406,-0.901546 0.858795,-1.596672 0.08539,-0.695125 -0.161359,-1.325839 -0.446735,-1.756849 -0.285376,-0.43101 -0.615719,-0.736495 -0.961419,-1.014524 -0.6914,-0.556055 -1.479724,-0.997822 -2.265832,-1.427035 -0.786108,-0.429214 -1.567586,-0.834772 -2.145606,-1.186392 -0.38044,-0.231428 -0.639819,-0.47678 -0.747229,-0.562501 -0.0158,-0.13665 -0.08619,-0.486489 -0.0808,-0.931581 0.0082,-0.676519 0.07848,-1.554142 0.131161,-2.448242 0.05268,-0.8941 0.09581,-1.79664 -0.0093,-2.677658 -0.05254,-0.440507 -0.136375,-0.882481 -0.350614,-1.352918 -0.214237,-0.470437 -0.618414,-1.014301 -1.253131,-1.310316 -0.634716,-0.296016 -1.310927,-0.256194 -1.809028,-0.117974 -0.498103,0.138219 -0.890602,0.358097 -1.26185,0.600962 -0.742495,0.48573 -1.406258,1.099061 -2.057385,1.714061 -0.651126,0.614998 -1.278258,1.232765 -1.791287,1.673837 -0.337672,0.290312 -0.651156,0.461253 -0.765864,0.536912 -0.134772,-0.0272 -0.489406,-0.06827 -0.911137,-0.210968 -0.640876,-0.216843 -1.453695,-0.554901 -2.287756,-0.881295 -0.83406,-0.326392 -1.679197,-0.646327 -2.549567,-0.818641 -0.435183,-0.08616 -0.881399,-0.143113 -1.395015,-0.08473 -0.385213,0.04378 -0.842701,0.176381 -1.248845,0.456029 z m 2.530269,3.049378 c 0.42159,0.125553 0.905175,0.289744 1.448338,0.5023 0.784301,0.306921 1.621569,0.659317 2.434336,0.934318 0.812768,0.275003 1.529005,0.581728 2.623693,0.369005 1.094689,-0.212722 1.644081,-0.765333 2.294709,-1.324707 0.650629,-0.559374 1.294684,-1.199801 1.906964,-1.77811 0.424065,-0.400535 0.811019,-0.733982 1.154923,-1.008292 0.01088,0.439769 0.004,0.950388 -0.03031,1.532692 -0.04954,0.840758 -0.12602,1.746097 -0.136405,2.604065 -0.01038,0.857968 -0.08086,1.633886 0.459733,2.609262 0.540589,0.975377 1.235985,1.327076 1.969036,1.773004 0.73305,0.445929 1.541368,0.860625 2.280577,1.264231 0.511901,0.279497 0.948344,0.54452 1.315481,0.786802 -0.414862,0.146222 -0.902622,0.29753 -1.466953,0.444823 -0.814916,0.212696 -1.699495,0.419592 -2.51868,0.674842 -0.819184,0.255251 -1.578834,0.428206 -2.339419,1.243745 -0.760587,0.815538 -0.880085,1.585413 -1.077662,2.420386 -0.197578,0.834972 -0.342413,1.731982 -0.497837,2.559733 -0.107629,0.573201 -0.224752,1.070088 -0.341722,1.49412 -0.267252,-0.349362 -0.561969,-0.766291 -0.876419,-1.257451 -0.45411,-0.709304 -0.924194,-1.486733 -1.420094,-2.186948 -0.4959,-0.700214 -0.895236,-1.369328 -1.905894,-1.840673 -1.010657,-0.471345 -1.779752,-0.347051 -2.634913,-0.276938 -0.855161,0.07011 -1.752722,0.209579 -2.587989,0.31755 -0.578481,0.07478 -1.087406,0.116982 -1.526858,0.136764 0.249687,-0.362153 0.555148,-0.771316 0.925138,-1.2222 0.534261,-0.651071 1.128342,-1.338436 1.641045,-2.026443 0.512701,-0.688006 1.025719,-1.274327 1.161684,-2.381174 0.135967,-1.106846 -0.219861,-1.800063 -0.550801,-2.591703 -0.330941,-0.791641 -0.740917,-1.602384 -1.101716,-2.363405 -0.249846,-0.526994 -0.44738,-0.997795 -0.601989,-1.409598 z"
     id="path42"
     clip-path="url(#clipPath25)"
     transform="matrix(1.08,0,0,1.08,113.37174,-4.959997)" /></svg>
