<?xml version="1.0" encoding="UTF-8" standalone="no"?>
<svg
   viewBox="0 0 128 128"
   style="display:inline;enable-background:new"
   version="1.0"
   id="svg11300"
   height="128"
   width="128"
   xml:space="preserve"
   xmlns:xlink="http://www.w3.org/1999/xlink"
   xmlns="http://www.w3.org/2000/svg"
   xmlns:svg="http://www.w3.org/2000/svg"
   xmlns:rdf="http://www.w3.org/1999/02/22-rdf-syntax-ns#"
   xmlns:cc="http://creativecommons.org/ns#"
   xmlns:dc="http://purl.org/dc/elements/1.1/"><title
     id="title4162">Adwaita Icon Template</title><defs
     id="defs3"><linearGradient
       id="linearGradient64"><stop
         style="stop-color:#2ce766;stop-opacity:1;"
         offset="0"
         id="stop65" /><stop
         style="stop-color:#b6f6ca;stop-opacity:1;"
         offset="0.41"
         id="stop67" /><stop
         style="stop-color:#2ce766;stop-opacity:1;"
         offset="0.81"
         id="stop68" /><stop
         style="stop-color:#9ff4b9;stop-opacity:1;"
         offset="1"
         id="stop66" /></linearGradient><linearGradient
       id="linearGradient60"><stop
         style="stop-color:#e7c90e;stop-opacity:1;"
         offset="0"
         id="stop61" /><stop
         style="stop-color:#faf0ad;stop-opacity:1;"
         offset="0.41"
         id="stop63" /><stop
         style="stop-color:#e7c90e;stop-opacity:1;"
         offset="0.81"
         id="stop64" /><stop
         style="stop-color:#f8eb96;stop-opacity:1;"
         offset="1"
         id="stop62" /></linearGradient><linearGradient
       id="linearGradient56"><stop
         style="stop-color:#096aec;stop-opacity:1;"
         offset="0"
         id="stop57" /><stop
         style="stop-color:#93bffb;stop-opacity:1;"
         offset="0.41"
         id="stop59" /><stop
         style="stop-color:#096aec;stop-opacity:1;"
         offset="0.81"
         id="stop60" /><stop
         style="stop-color:#7ab1fa;stop-opacity:1;"
         offset="1"
         id="stop58" /></linearGradient><linearGradient
       id="linearGradient53"><stop
         style="stop-color:#7ca6c6;stop-opacity:1;"
         offset="0"
         id="stop53" /><stop
         style="stop-color:#c3d6e5;stop-opacity:1;"
         offset="0.36000001"
         id="stop55" /><stop
         style="stop-color:#7ca6c6;stop-opacity:1;"
         offset="0.75999999"
         id="stop56" /><stop
         style="stop-color:#b1cadd;stop-opacity:1;"
         offset="1"
         id="stop54" /></linearGradient><linearGradient
       id="linearGradient42"><stop
         style="stop-color:#7ca6c6;stop-opacity:1;"
         offset="0"
         id="stop43" /><stop
         style="stop-color:#c3d6e5;stop-opacity:1;"
         offset="0.04"
         id="stop45" /><stop
         style="stop-color:#7ca6c6;stop-opacity:1;"
         offset="0.09"
         id="stop49" /><stop
         style="stop-color:#7ca6c6;stop-opacity:1;"
         offset="0.44999999"
         id="stop50" /><stop
         style="stop-color:#c3d6e5;stop-opacity:1;"
         offset="0.5"
         id="stop51" /><stop
         style="stop-color:#7ca6c6;stop-opacity:1;"
         offset="0.55000001"
         id="stop46" /><stop
         style="stop-color:#7ca6c6;stop-opacity:1;"
         offset="0.91000003"
         id="stop47" /><stop
         style="stop-color:#c3d6e5;stop-opacity:1;"
         offset="0.95999998"
         id="stop48" /><stop
         style="stop-color:#7ca6c6;stop-opacity:1;"
         offset="1"
         id="stop44" /></linearGradient><linearGradient
       id="linearGradient40"><stop
         style="stop-color:#94bad1;stop-opacity:1;"
         offset="0"
         id="stop40" /><stop
         style="stop-color:#dbe8f0;stop-opacity:1;"
         offset="0.03"
         id="stop42" /><stop
         style="stop-color:#94bad1;stop-opacity:1;"
         offset="0.07"
         id="stop41" /></linearGradient><linearGradient
       id="linearGradient33"><stop
         style="stop-color:#aa225c;stop-opacity:1;"
         offset="0"
         id="stop34" /><stop
         style="stop-color:#ea94b9;stop-opacity:1;"
         offset="0.41"
         id="stop36" /><stop
         style="stop-color:#aa225c;stop-opacity:1;"
         offset="0.81"
         id="stop37" /><stop
         style="stop-color:#e580ab;stop-opacity:1;"
         offset="1"
         id="stop35" /></linearGradient><linearGradient
       id="linearGradient30"><stop
         style="stop-color:#1b3141;stop-opacity:1;"
         offset="0.61000001"
         id="stop31" /><stop
         style="stop-color:#689bc0;stop-opacity:1;"
         offset="0.75999999"
         id="stop33" /><stop
         style="stop-color:#1b3141;stop-opacity:1;"
         offset="0.89999998"
         id="stop32" /></linearGradient><linearGradient
       id="linearGradient28"><stop
         style="stop-color:#20394b;stop-opacity:1;"
         offset="0"
         id="stop28" /><stop
         style="stop-color:#73a2c4;stop-opacity:1;"
         offset="0.09914063"
         id="stop30" /><stop
         style="stop-color:#20394b;stop-opacity:1;"
         offset="0.2"
         id="stop29" /></linearGradient><linearGradient
       xlink:href="#linearGradient33"
       id="linearGradient35"
       x1="39.82979"
       y1="71.731982"
       x2="61.07543"
       y2="71.731982"
       gradientUnits="userSpaceOnUse" /><linearGradient
       xlink:href="#linearGradient33"
       id="linearGradient39"
       x1="66.95285"
       y1="71.731979"
       x2="88.198494"
       y2="71.731979"
       gradientUnits="userSpaceOnUse" /><linearGradient
       xlink:href="#linearGradient40"
       id="linearGradient41"
       x1="25.94657"
       y1="50.305521"
       x2="47.04526"
       y2="50.305521"
       gradientUnits="userSpaceOnUse" /><linearGradient
       xlink:href="#linearGradient42"
       id="linearGradient44"
       x1="32.53463"
       y1="53.599312"
       x2="47.04573"
       y2="53.599312"
       gradientUnits="userSpaceOnUse" /><linearGradient
       xlink:href="#linearGradient53"
       id="linearGradient54"
       x1="59.18965"
       y1="48.357864"
       x2="69.3102"
       y2="48.357864"
       gradientUnits="userSpaceOnUse" /><linearGradient
       xlink:href="#linearGradient56"
       id="linearGradient58"
       x1="81.867085"
       y1="50.330248"
       x2="87.785761"
       y2="50.330248"
       gradientUnits="userSpaceOnUse" /><linearGradient
       xlink:href="#linearGradient60"
       id="linearGradient62"
       x1="88.443418"
       y1="43.753915"
       x2="94.36186"
       y2="43.753915"
       gradientUnits="userSpaceOnUse" /><linearGradient
       xlink:href="#linearGradient64"
       id="linearGradient66"
       x1="88.443418"
       y1="56.906581"
       x2="94.36186"
       y2="56.906581"
       gradientUnits="userSpaceOnUse" /><linearGradient
       xlink:href="#linearGradient33"
       id="linearGradient70"
       x1="95.019745"
       y1="50.33025"
       x2="100.93819"
       y2="50.33025"
       gradientUnits="userSpaceOnUse" /><linearGradient
       xlink:href="#linearGradient28"
       id="linearGradient71"
       gradientUnits="userSpaceOnUse"
       x1="0.00034633441"
       y1="255.99989"
       x2="511.99961"
       y2="255.99989"
       gradientTransform="matrix(0.23437517,0,0,0.23437517,3.99992,14.763332)" /><linearGradient
       xlink:href="#linearGradient30"
       id="linearGradient72"
       gradientUnits="userSpaceOnUse"
       x1="274.982"
       y1="255.99989"
       x2="511.99997"
       y2="255.99989"
       gradientTransform="matrix(0.23437517,0,0,0.23437517,3.99992,14.763332)" /></defs><metadata
     id="metadata4"><rdf:RDF><cc:Work
         rdf:about=""><dc:format>image/svg+xml</dc:format><dc:type
           rdf:resource="http://purl.org/dc/dcmitype/StillImage" /><dc:creator><cc:Agent><dc:title>GNOME Design Team</dc:title></cc:Agent></dc:creator><dc:source /><cc:license
           rdf:resource="http://creativecommons.org/licenses/by-sa/4.0/" /><dc:title>Adwaita Icon Template</dc:title><dc:subject><rdf:Bag /></dc:subject><dc:date /><dc:rights><cc:Agent><dc:title /></cc:Agent></dc:rights><dc:publisher><cc:Agent><dc:title /></cc:Agent></dc:publisher><dc:identifier /><dc:relation /><dc:language /><dc:coverage /><dc:description /><dc:contributor><cc:Agent><dc:title /></cc:Agent></dc:contributor></cc:Work><cc:License
         rdf:about="http://creativecommons.org/licenses/by-sa/4.0/"><cc:permits
           rdf:resource="http://creativecommons.org/ns#Reproduction" /><cc:permits
           rdf:resource="http://creativecommons.org/ns#Distribution" /><cc:requires
           rdf:resource="http://creativecommons.org/ns#Notice" /><cc:requires
           rdf:resource="http://creativecommons.org/ns#Attribution" /><cc:permits
           rdf:resource="http://creativecommons.org/ns#DerivativeWorks" /><cc:requires
           rdf:resource="http://creativecommons.org/ns#ShareAlike" /></cc:License></rdf:RDF></metadata><path
     d="M 122.26446,84.470492 109.26297,48.073669 C 106.14671,39.34999 97.883113,33.526705 88.619435,33.526705 H 39.380258 c -9.263678,0 -17.527278,5.823051 -20.64353,14.546964 L 5.7354681,84.470492 c -3.2629711,9.134303 -1.8719544,19.285558 3.7277371,27.205568 4.0589088,5.74055 12.5650868,5.77032 16.6640748,0.0584 L 39.039945,93.74003 c 1.601252,-2.231486 4.179613,-3.554768 6.926021,-3.554768 h 36.067761 c 2.746642,0 5.324769,1.323282 6.92602,3.554768 l 12.912663,17.99439 c 4.09899,5.71196 12.60517,5.68219 16.66408,-0.0584 5.59992,-7.92001 6.99094,-18.071265 3.72797,-27.205568 z"
     fill="#407093"
     id="path5"
     style="fill:url(#linearGradient71);fill-opacity:1;stroke-width:0.234375" /><path
     d="M 122.26469,84.470492 109.2632,48.073669 C 106.14695,39.34999 97.883347,33.526705 88.619669,33.526705 H 68.448873 c 9.263679,0 17.527278,5.823051 20.643531,14.546964 L 102.0939,84.470492 c 2.77654,7.772931 -2.105629,20.637758 -2.105629,20.637758 v 3.99999 l 1.884609,2.62618 c 4.09899,5.71196 12.60517,5.68219 16.66408,-0.0584 5.59945,-7.92001 6.99047,-18.071265 3.72773,-27.205568 z"
     fill="#2b4d66"
     id="path15"
     style="fill:url(#linearGradient72);fill-opacity:1;stroke-width:0.234375" /><path
     d="M 122.26446,80.470492 109.26297,44.073669 C 106.14671,35.34999 97.883113,29.526705 88.619435,29.526705 H 39.380258 c -9.263678,0 -17.527278,5.823051 -20.64353,14.546964 L 5.7354681,80.470492 c -3.2629711,9.134303 -1.8719544,19.285561 3.7277371,27.205568 4.0589088,5.74055 12.5650868,5.77032 16.6640748,0.0584 L 39.039945,89.74003 c 1.601252,-2.231486 4.179613,-3.554768 6.926021,-3.554768 h 36.067761 c 2.746642,0 5.324769,1.323282 6.92602,3.554768 l 12.912663,17.99439 c 4.09899,5.71196 12.60517,5.68219 16.66408,-0.0584 5.59992,-7.920007 6.99094,-18.071265 3.72797,-27.205568 z"
     fill="#407093"
     id="path1"
     style="stroke-width:0.234375" /><path
     d="M 122.26469,80.470492 109.2632,44.073669 C 106.14695,35.34999 97.883347,29.526705 88.619669,29.526705 H 68.448873 c 9.263679,0 17.527278,5.823051 20.643531,14.546964 L 102.0939,80.470492 c 2.92008,8.174771 2.10984,17.162356 -2.105629,24.637748 l 1.884609,2.62618 c 4.09899,5.71196 12.60517,5.68219 16.66408,-0.0584 5.59945,-7.920007 6.99047,-18.071265 3.72773,-27.205568 z"
     fill="#2b4d66"
     id="path2"
     style="stroke-width:0.234375" /><path
     d="m 45.58417,46.34376 h -4.63922 c -0.26907,0 -0.48704,-0.218203 -0.48704,-0.487031 v -4.639223 c 0,-0.807188 -0.65437,-1.461329 -1.46133,-1.461329 h -5.00085 c -0.8072,0 -1.46134,0.654375 -1.46134,1.461329 v 4.639223 c 0,0.269062 -0.2182,0.487031 -0.48703,0.487031 h -4.63945 c -0.80719,0 -1.46134,0.654375 -1.46134,1.461329 v 5.000863 c 0,0.807188 0.65438,1.461329 1.46134,1.461329 h 4.63922 c 0.26906,0 0.48703,0.218204 0.48703,0.487032 v 4.639223 c 0,0.807187 0.65437,1.461328 1.46133,1.461328 h 5.00086 c 0.80719,0 1.46133,-0.654375 1.46133,-1.461328 v -4.639223 c 0,-0.269063 0.2182,-0.487032 0.48703,-0.487032 h 4.63922 c 0.80719,0 1.46133,-0.654375 1.46133,-1.461329 V 47.805089 C 47.0455,46.998135 46.39112,46.34376 45.58417,46.34376 Z"
     fill="#dae7ef"
     id="path20"
     style="fill:url(#linearGradient41);fill-opacity:1;stroke-width:0.234375" /><path
     d="m 45.58417,46.34376 h -1.71469 v 3.286175 c 0,0.807187 -0.65438,1.461329 -1.46133,1.461329 h -3.42117 c -0.94173,0 -1.70485,0.763359 -1.70485,1.704845 v 3.421408 c 0,0.807189 -0.65438,1.46133 -1.46133,1.46133 h -3.28617 v 1.714689 c 0,0.807187 0.65437,1.461328 1.46133,1.461328 h 5.00085 c 0.8072,0 1.46134,-0.654375 1.46134,-1.461328 v -4.639223 c 0,-0.269063 0.2182,-0.487032 0.48703,-0.487032 h 4.63922 c 0.80719,0 1.46133,-0.654375 1.46133,-1.461329 V 47.805089 C 47.0455,46.998135 46.39112,46.34376 45.58417,46.34376 Z"
     fill="#c1d5e4"
     id="path22"
     style="fill:url(#linearGradient44);fill-opacity:1;stroke-width:0.234375" /><path
     d="m 77.57568,82.354802 c -5.85751,0 -10.62283,-4.765316 -10.62283,-10.62282 0,-5.857504 4.76532,-10.62282 10.62283,-10.62282 5.8575,0 10.622816,4.76555 10.622816,10.62282 0,5.85727 -4.765082,10.62282 -10.622816,10.62282 z m 0,-17.730013 c -3.91899,0 -7.1072,3.18844 -7.1072,7.107193 0,3.918753 3.18844,7.107193 7.1072,7.107193 3.91875,0 7.107188,-3.188206 7.107188,-7.107193 0,-3.918987 -3.188208,-7.107193 -7.107188,-7.107193 z"
     fill="#dd5790"
     id="path25"
     style="fill:url(#linearGradient39);fill-opacity:1;stroke-width:0.234375" /><path
     id="circle5"
     style="fill:#dae7ef;stroke-width:0.234375"
     d="m 86.440919,70.08252 a 8.8650064,8.8650064 0 0 1 -8.865007,8.865006 8.8650064,8.8650064 0 0 1 -8.865006,-8.865006 8.8650064,8.8650064 0 0 1 8.865006,-8.865007 8.8650064,8.8650064 0 0 1 8.865007,8.865007 z" /><path
     d="m 50.45261,82.354802 c -5.85751,0 -10.62282,-4.76555 -10.62282,-10.62282 0,-5.85727 4.76531,-10.62282 10.62282,-10.62282 5.8575,0 10.62282,4.76555 10.62282,10.62282 0,5.85727 -4.76532,10.62282 -10.62282,10.62282 z m 0,-17.730013 c -3.91899,0 -7.10719,3.18844 -7.10719,7.107193 0,3.918753 3.18844,7.107193 7.10719,7.107193 3.91875,0 7.10719,-3.18844 7.10719,-7.107193 0,-3.918753 -3.18844,-7.107193 -7.10719,-7.107193 z"
     fill="#dd5790"
     id="path24"
     style="fill:url(#linearGradient35);fill-opacity:1;stroke-width:0.234375" /><path
     id="circle6"
     style="fill:#dae7ef;stroke-width:0.234375"
     d="M 59.317616,70.08252 A 8.8650064,8.8650064 0 0 1 50.45261,78.947526 8.8650064,8.8650064 0 0 1 41.587604,70.08252 8.8650064,8.8650064 0 0 1 50.45261,61.217513 8.8650064,8.8650064 0 0 1 59.317616,70.08252 Z" /><path
     d="m 79.76544,61.490557 c 0.17789,0.700313 0.27305,1.433907 0.27305,2.189533 0,4.896097 -3.96891,8.865006 -8.86501,8.865006 -0.75562,0 -1.48922,-0.09516 -2.18953,-0.273047 0.975,3.836956 4.45172,6.675474 8.59196,6.675474 4.896097,0 8.865007,-3.968909 8.865007,-8.865007 0,-4.140237 -2.838518,-7.617193 -6.675477,-8.591959 z"
     fill="#c1d5e4"
     id="path7"
     style="stroke-width:0.234375" /><path
     d="m 52.64214,61.490557 c 0.17789,0.700313 0.27305,1.433907 0.27305,2.189533 0,4.896097 -3.96891,8.865006 -8.86501,8.865006 -0.75562,0 -1.48922,-0.09516 -2.18953,-0.273047 0.97477,3.836956 4.45172,6.675474 8.59196,6.675474 4.89609,0 8.865,-3.968909 8.865,-8.865007 0,-4.140237 -2.83851,-7.616958 -6.67547,-8.591959 z"
     fill="#c1d5e4"
     id="path8"
     style="stroke-width:0.234375" /><path
     id="circle22"
     style="fill:#94bad1;stroke-width:0.234375"
     d="m 69.310209,48.146576 a 5.2715664,5.2715664 0 0 1 -5.271566,5.271566 5.2715664,5.2715664 0 0 1 -5.271567,-5.271566 5.2715664,5.2715664 0 0 1 5.271567,-5.271566 5.2715664,5.2715664 0 0 1 5.271566,5.271566 z" /><path
     d="m 66.10911,43.297586 c 0.27187,0.635626 0.42257,1.335469 0.42257,2.07047 0,2.911409 -5.814838,2.740406 -7.34203,3.199523 v 1.649466 c 0.80461,1.882032 2.67258,3.201096 4.84898,3.201096 2.91141,0 5.27157,-2.360158 5.27157,-5.271567 0,-2.176408 -1.31906,-4.044378 -3.20109,-4.848988 z"
     fill="#c1d5e4"
     id="path23"
     style="fill:url(#linearGradient54);fill-opacity:1;stroke-width:0.234375" /><path
     id="circle9"
     style="fill:#dae7ef;stroke-width:0.234375"
     d="m 69.310209,46.497112 a 5.2715664,5.2715664 0 0 1 -5.271566,5.271567 5.2715664,5.2715664 0 0 1 -5.271567,-5.271567 5.2715664,5.2715664 0 0 1 5.271567,-5.271566 5.2715664,5.2715664 0 0 1 5.271566,5.271566 z" /><path
     d="m 66.10911,41.64812 c 0.27187,0.635626 0.42257,1.335469 0.42257,2.070471 0,2.911408 -2.36016,5.271566 -5.27156,5.271566 -0.73501,0 -1.43485,-0.150938 -2.07047,-0.422578 0.80461,1.882032 2.67258,3.201096 4.84898,3.201096 2.91141,0 5.27157,-2.360158 5.27157,-5.271567 0,-2.176408 -1.31906,-4.044378 -3.20109,-4.848988 z"
     fill="#c1d5e4"
     id="path9"
     style="stroke-width:0.234375" /><path
     d="m 91.402638,40.794693 c -1.634297,0 -2.95922,1.324924 -2.95922,2.959222 0,1.634297 1.324923,2.959221 2.95922,2.959221 1.634534,0 2.959222,-1.324924 2.959222,-2.959221 0,-1.634298 -1.324688,-2.959222 -2.959222,-2.959222 z"
     fill="#f6e266"
     id="path27"
     style="fill:url(#linearGradient62);fill-opacity:1;stroke-width:0.234375" /><path
     d="m 91.402638,39.145227 c -1.634297,0 -2.95922,1.324924 -2.95922,2.959222 0,1.634297 1.324923,2.959221 2.95922,2.959221 1.634534,0 2.959222,-1.324924 2.959222,-2.959221 0,-1.634298 -1.324688,-2.959222 -2.959222,-2.959222 z"
     fill="#f6e266"
     id="path10"
     style="stroke-width:0.234375" /><path
     d="m 91.402638,59.865802 c 1.634534,0 2.959222,-1.324924 2.959222,-2.959222 0,-1.634298 -1.324923,-2.959221 -2.959222,-2.959221 -1.634297,0 -2.95922,1.324923 -2.95922,2.959221 0,1.634298 1.324923,2.959222 2.95922,2.959222 z"
     fill="#86f1a7"
     id="path28"
     style="fill:url(#linearGradient66);fill-opacity:1;stroke-width:0.234375" /><path
     d="m 91.402638,58.216336 c 1.634534,0 2.959222,-1.324924 2.959222,-2.959222 0,-1.634298 -1.324923,-2.959221 -2.959222,-2.959221 -1.634297,0 -2.95922,1.324923 -2.95922,2.959221 0,1.634298 1.324923,2.959222 2.95922,2.959222 z"
     fill="#86f1a7"
     id="path11"
     style="stroke-width:0.234375" /><path
     id="circle27"
     style="fill:url(#linearGradient70);stroke-width:0.234375"
     d="m 100.93819,50.33025 a 2.9592211,2.9592211 0 0 1 -2.959224,2.959221 2.9592211,2.9592211 0 0 1 -2.959221,-2.959221 2.9592211,2.9592211 0 0 1 2.959221,-2.959221 2.9592211,2.9592211 0 0 1 2.959224,2.959221 z" /><path
     id="circle11"
     style="fill:#dd5790;stroke-width:0.234375"
     d="m 100.93819,48.680782 a 2.9592211,2.9592211 0 0 1 -2.959224,2.959221 2.9592211,2.9592211 0 0 1 -2.959221,-2.959221 2.9592211,2.9592211 0 0 1 2.959221,-2.959221 2.9592211,2.9592211 0 0 1 2.959224,2.959221 z" /><path
     d="m 87.785761,50.330247 c 0,-1.634298 -1.324923,-2.95922 -2.959455,-2.95922 -1.634298,0 -2.959221,1.324922 -2.959221,2.95922 0,1.634299 1.324923,2.959221 2.959221,2.959221 1.634532,2.34e-4 2.959455,-1.324922 2.959455,-2.959221 z"
     fill="#61a2f9"
     id="path26"
     style="fill:url(#linearGradient58);fill-opacity:1;stroke-width:0.234375" /><path
     d="m 87.785761,48.680782 c 0,-1.634299 -1.324923,-2.959221 -2.959455,-2.959221 -1.634298,0 -2.959221,1.324922 -2.959221,2.959221 0,1.634298 1.324923,2.95922 2.959221,2.95922 1.634532,2.35e-4 2.959455,-1.324922 2.959455,-2.95922 z"
     fill="#61a2f9"
     id="path12"
     style="stroke-width:0.234375" /><path
     d="m 77.57568,80.705336 c -5.85751,0 -10.62283,-4.765315 -10.62283,-10.62282 0,-5.857504 4.76532,-10.62282 10.62283,-10.62282 5.8575,0 10.622816,4.765551 10.622816,10.62282 0,5.85727 -4.765082,10.62282 -10.622816,10.62282 z m 0,-17.730013 c -3.91899,0 -7.1072,3.18844 -7.1072,7.107193 0,3.918753 3.18844,7.107193 7.1072,7.107193 3.91875,0 7.107188,-3.188206 7.107188,-7.107193 0,-3.918987 -3.188208,-7.107193 -7.107188,-7.107193 z"
     fill="#dd5790"
     id="path13"
     style="stroke-width:0.234375" /><path
     d="m 50.45261,80.705336 c -5.85751,0 -10.62282,-4.76555 -10.62282,-10.62282 0,-5.857269 4.76531,-10.62282 10.62282,-10.62282 5.8575,0 10.62282,4.765551 10.62282,10.62282 0,5.85727 -4.76532,10.62282 -10.62282,10.62282 z m 0,-17.730013 c -3.91899,0 -7.10719,3.18844 -7.10719,7.107193 0,3.918753 3.18844,7.107193 7.10719,7.107193 3.91875,0 7.10719,-3.18844 7.10719,-7.107193 0,-3.918753 -3.18844,-7.107193 -7.10719,-7.107193 z"
     fill="#dd5790"
     id="path14"
     style="stroke-width:0.234375" /><path
     d="m 45.58417,44.694294 h -4.63922 c -0.26907,0 -0.48704,-0.218203 -0.48704,-0.487031 v -4.639222 c 0,-0.807189 -0.65437,-1.46133 -1.46133,-1.46133 h -5.00085 c -0.8072,0 -1.46134,0.654376 -1.46134,1.46133 v 4.639222 c 0,0.269063 -0.2182,0.487031 -0.48703,0.487031 h -4.63945 c -0.80719,0 -1.46134,0.654375 -1.46134,1.46133 v 5.000862 c 0,0.807189 0.65438,1.46133 1.46134,1.46133 h 4.63922 c 0.26906,0 0.48703,0.218203 0.48703,0.487032 v 4.639222 c 0,0.807187 0.65437,1.461328 1.46133,1.461328 h 5.00086 c 0.80719,0 1.46133,-0.654375 1.46133,-1.461328 v -4.639222 c 0,-0.269064 0.2182,-0.487032 0.48703,-0.487032 h 4.63922 c 0.80719,0 1.46133,-0.654376 1.46133,-1.46133 v -5.000862 c 2.4e-4,-0.806955 -0.65414,-1.46133 -1.46109,-1.46133 z"
     fill="#dae7ef"
     id="path18"
     style="stroke-width:0.234375" /><path
     d="m 45.58417,44.694294 h -1.71469 v 3.286175 c 0,0.807187 -0.65438,1.461329 -1.46133,1.461329 h -3.42117 c -0.94173,0 -1.70485,0.76336 -1.70485,1.704845 v 3.421409 c 0,0.807188 -0.65438,1.461329 -1.46133,1.461329 h -3.28617 v 1.714689 c 0,0.807187 0.65437,1.461328 1.46133,1.461328 h 5.00085 c 0.8072,0 1.46134,-0.654375 1.46134,-1.461328 v -4.639222 c 0,-0.269064 0.2182,-0.487032 0.48703,-0.487032 h 4.63922 c 0.80719,0 1.46133,-0.654376 1.46133,-1.46133 v -5.000862 c -2.3e-4,-0.806955 -0.65461,-1.46133 -1.46156,-1.46133 z"
     fill="#c1d5e4"
     id="path21"
     style="stroke-width:0.234375" /></svg>
