<?xml version="1.0" encoding="UTF-8" standalone="no"?>
<!-- Created with Inkscape (http://www.inkscape.org/) -->

<svg
   version="1.0"
   width="128"
   height="128"
   id="svg4292"
   xml:space="preserve"
   xmlns:xlink="http://www.w3.org/1999/xlink"
   xmlns="http://www.w3.org/2000/svg"
   xmlns:svg="http://www.w3.org/2000/svg"><defs
     id="defs4294"><linearGradient
       id="linearGradient19"><stop
         style="stop-color:#1b5492;stop-opacity:1;"
         offset="0"
         id="stop18" /><stop
         style="stop-color:#64a3e2;stop-opacity:1;"
         offset="0.40946969"
         id="stop20" /><stop
         style="stop-color:#1b5492;stop-opacity:1;"
         offset="0.81034565"
         id="stop21" /><stop
         style="stop-color:#4f94de;stop-opacity:1;"
         offset="1"
         id="stop19" /></linearGradient><linearGradient
       id="linearGradient11"><stop
         style="stop-color:#dcebfb;stop-opacity:1;"
         offset="0"
         id="stop11" /><stop
         style="stop-color:#c2d1e1;stop-opacity:1;"
         offset="1"
         id="stop12" /></linearGradient><linearGradient
       id="linearGradient5"><stop
         style="stop-color:#5da8f9;stop-opacity:1;"
         offset="0"
         id="stop9" /><stop
         style="stop-color:#236dbe;stop-opacity:1;"
         offset="1"
         id="stop10" /></linearGradient><linearGradient
       xlink:href="#linearGradient5"
       id="linearGradient10"
       x1="23.999998"
       y1="151.39212"
       x2="122.03805"
       y2="191.59729"
       gradientUnits="userSpaceOnUse"
       gradientTransform="translate(-11.999998,-109.11772)" /><linearGradient
       xlink:href="#linearGradient11"
       id="linearGradient12"
       x1="44.616956"
       y1="170.91718"
       x2="107.19257"
       y2="170.91718"
       gradientUnits="userSpaceOnUse"
       gradientTransform="translate(-11.999998,-109.11772)" /><linearGradient
       xlink:href="#linearGradient19"
       id="linearGradient13"
       gradientUnits="userSpaceOnUse"
       x1="23.999998"
       y1="174.55403"
       x2="128"
       y2="174.55403"
       gradientTransform="translate(-11.999998,-105.11772)" /></defs><path
     style="fill:url(#linearGradient13);stroke-width:0.0885052"
     d="m 28.517529,111.90791 c 0,0 6.215243,-3.52001 7.983283,-6.998 0.50429,-0.992 0.64424,-1.3708 0.55594,-1.50474 -0.0649,-0.0985 -0.94111,-0.63467 -1.94712,-1.19158 -9.04851,-5.00906 -16.15296,-12.49491 -19.875059,-20.94205 -2.36447,-5.36604 -3.38042,-10.46864 -3.2178,-16.16133 0.13938,-4.8788 1.159,-9.3568 3.16662,-13.90724 6.169549,-13.98385 20.896199,-24.50679 38.41549,-27.44983 8.87004,-1.49006 18.04696,-1.06166 26.4898,1.23661 7.960529,2.16699 15.014209,5.7993 21.045847,10.83763 1.48455,1.24007 4.53381,4.32036 5.75183,5.81037 5.06083,6.19091 7.90442,12.66659 8.95991,20.40428 0.20449,1.49911 0.20512,6.75863 10e-4,8.3785 -1.08905,8.6429 -4.91323,16.39073 -11.40855,23.11383 -6.239968,6.45879 -15.077518,11.49895 -24.545447,13.99855 -9.34039,2.46593 -18.51216,2.70966 -28.36702,0.75382 -1.17142,-0.23249 -1.9606,-0.33308 -2.2246,-0.28355 -0.22503,0.0422 -1.16048,0.52956 -2.07878,1.08298 -4.86361,2.9311 -11.111231,5.3707 -16.833531,6.57323 -1.202015,0.2526 -1.862208,0.43495 -1.862544,0.28821 z"
     id="path13" /><path
     style="fill:url(#linearGradient10);stroke-width:0.0885052"
     d="m 29.685462,110.53128 c 3.03905,-3.30829 5.04731,-6.14338 6.81535,-9.62137 0.50429,-0.992 0.64424,-1.3708 0.55594,-1.50474 -0.0649,-0.0985 -0.94111,-0.63467 -1.94712,-1.19158 -9.04851,-5.00906 -16.15296,-12.49491 -19.875059,-20.94205 -2.36447,-5.36604 -3.38042,-10.46864 -3.2178,-16.16133 0.13938,-4.8788 1.159,-9.3568 3.16662,-13.90724 6.169549,-13.98385 20.896199,-24.50679 38.41549,-27.44983 8.87004,-1.49006 18.04696,-1.06166 26.4898,1.23661 7.960529,2.16699 15.014209,5.7993 21.045847,10.83763 1.48455,1.24007 4.53381,4.32036 5.75183,5.81037 5.06083,6.19091 7.90442,12.66659 8.95991,20.40428 0.20449,1.49911 0.20512,6.75863 10e-4,8.3785 -1.08905,8.6429 -4.91323,16.39073 -11.40855,23.11383 -6.239968,6.45879 -15.077518,11.49895 -24.545447,13.99855 -9.34039,2.46593 -18.51216,2.70966 -28.36702,0.75382 -1.17142,-0.23249 -1.9606,-0.33308 -2.2246,-0.28355 -0.22503,0.0422 -1.16048,0.52956 -2.07878,1.08298 -4.86361,2.9311 -11.111231,5.3707 -16.833531,6.57323 -2.40749,0.50593 -2.32557,0.63724 -0.70388,-1.12811 z"
     id="path1" /><path
     d="m 42.950532,70.7777 c 4.67159,-0.56052 8.38799,-5.16749 7.80478,-9.86006 -0.33226,-4.70557 -4.83115,-8.61418 -9.55091,-8.17149 -4.93966,0.10289 -9.087,4.89449 -8.5386,9.79658 0.31146,5.04158 5.27821,9.06654 10.28473,8.23497 z m 23.05673,-0.18279 c 5.15464,-1.04467 8.4108,-7.14224 6.38698,-12.00409 -1.38526,-3.72888 -5.41505,-6.30682 -9.39436,-5.79131 -5.00585,0.29184 -8.94483,5.46234 -8.04981,10.3723 0.63824,5.14372 6.0853,8.69922 11.05719,7.4231 z m 22.8551,-0.17149 c 4.40185,-1.32338 7.26583,-6.30248 6.04901,-10.76889 -0.92939,-4.20125 -5.18893,-7.41095 -9.51027,-6.84986 -4.59594,0.0724 -8.52521,4.45219 -8.38862,9.00814 -0.12338,4.95369 4.42297,9.34054 9.36161,9.04315 0.84415,-0.0278 1.68422,-0.17398 2.48827,-0.43254 z"
     style="fill:url(#linearGradient12);stroke-width:0.0885052"
     id="path1-3" /></svg>
