<?xml version="1.0" encoding="UTF-8" standalone="no"?>
<!-- Created with Inkscape (http://www.inkscape.org/) -->

<svg
   width="128"
   height="128"
   viewBox="0 0 33.866667 33.866667"
   version="1.1"
   id="svg12870"
   xmlns:xlink="http://www.w3.org/1999/xlink"
   xmlns="http://www.w3.org/2000/svg"
   xmlns:svg="http://www.w3.org/2000/svg">
  <defs
     id="defs12867">
    <linearGradient
       id="linearGradient5529">
      <stop
         style="stop-color:#0c0cff;stop-opacity:1;"
         offset="0"
         id="stop5525" />
      <stop
         style="stop-color:#0000ed;stop-opacity:0.98431373;"
         offset="1"
         id="stop5527" />
    </linearGradient>
    <linearGradient
       id="linearGradient5517">
      <stop
         style="stop-color:#000093;stop-opacity:1;"
         offset="0"
         id="stop5513" />
      <stop
         style="stop-color:#0000ed;stop-opacity:0.96078432;"
         offset="1"
         id="stop5515" />
    </linearGradient>
    <linearGradient
       id="linearGradient5511">
      <stop
         style="stop-color:#0000d4;stop-opacity:1;"
         offset="0"
         id="stop5489" />
      <stop
         id="stop5491"
         offset="0.07799384"
         style="stop-color:#0000d5;stop-opacity:1;" />
      <stop
         style="stop-color:#3838ff;stop-opacity:1;"
         offset="0.10368115"
         id="stop5493" />
      <stop
         style="stop-color:#0000d7;stop-opacity:1;"
         offset="0.11958282"
         id="stop5495" />
      <stop
         id="stop5497"
         offset="0.28471547"
         style="stop-color:#000086;stop-opacity:1;" />
      <stop
         id="stop5499"
         offset="0.49999952"
         style="stop-color:#0000b2;stop-opacity:1;" />
      <stop
         style="stop-color:#0000fd;stop-opacity:1;"
         offset="0.76176536"
         id="stop5501" />
      <stop
         id="stop5503"
         offset="0.87430018"
         style="stop-color:#0000d6;stop-opacity:1;" />
      <stop
         style="stop-color:#2e2eff;stop-opacity:1;"
         offset="0.90488034"
         id="stop5505" />
      <stop
         id="stop5507"
         offset="0.94891572"
         style="stop-color:#0000d6;stop-opacity:1;" />
      <stop
         style="stop-color:#0000d5;stop-opacity:1;"
         offset="1"
         id="stop5509" />
    </linearGradient>
    <linearGradient
       id="linearGradient5289">
      <stop
         style="stop-color:#4848ff;stop-opacity:1;"
         offset="0"
         id="stop5281" />
      <stop
         id="stop5283"
         offset="0.31057373"
         style="stop-color:#1111ff;stop-opacity:1;" />
      <stop
         style="stop-color:#000086;stop-opacity:1;"
         offset="0.68832356"
         id="stop5285" />
      <stop
         style="stop-color:#6060ff;stop-opacity:1;"
         offset="1"
         id="stop5287" />
    </linearGradient>
    <linearGradient
       id="linearGradient5279">
      <stop
         style="stop-color:#8383ff;stop-opacity:1;"
         offset="0"
         id="stop5273" />
      <stop
         id="stop5275"
         offset="0.64924306"
         style="stop-color:#0000ed;stop-opacity:1;" />
      <stop
         style="stop-color:#8484ff;stop-opacity:1;"
         offset="1"
         id="stop5277" />
    </linearGradient>
    <linearGradient
       id="linearGradient3819">
      <stop
         style="stop-color:#0000ed;stop-opacity:1;"
         offset="0"
         id="stop3815" />
      <stop
         style="stop-color:#0000cc;stop-opacity:0.94901961;"
         offset="1"
         id="stop3817" />
    </linearGradient>
    <linearGradient
       id="linearGradient8223">
      <stop
         style="stop-color:#f3e517;stop-opacity:1;"
         offset="0"
         id="stop8219" />
      <stop
         style="stop-color:#ff7901;stop-opacity:1;"
         offset="1"
         id="stop8221" />
    </linearGradient>
    <filter
       style="color-interpolation-filters:sRGB"
       id="filter10359"
       y="0"
       height="1"
       x="0"
       width="1">
      <feComposite
         in2="SourceGraphic"
         operator="arithmetic"
         k1="0"
         k2="1.00448"
         result="composite1"
         id="feComposite10345"
         k3="0"
         k4="0" />
      <feColorMatrix
         in="composite1"
         values="0"
         type="saturate"
         result="colormatrix1"
         id="feColorMatrix10347" />
      <feFlood
         flood-opacity="0.8"
         flood-color="rgb(33,150,243)"
         result="flood1"
         id="feFlood10349" />
      <feBlend
         in="flood1"
         in2="colormatrix1"
         mode="darken"
         result="blend1"
         id="feBlend10351" />
      <feBlend
         in2="blend1"
         mode="multiply"
         result="blend2"
         id="feBlend10353" />
      <feColorMatrix
         in="blend2"
         values="1"
         type="saturate"
         result="colormatrix2"
         id="feColorMatrix10355" />
      <feComposite
         in="colormatrix2"
         in2="SourceGraphic"
         operator="in"
         result="composite2"
         id="feComposite10357" />
    </filter>
    <linearGradient
       id="linearGradient5980">
      <stop
         id="stop5978"
         offset="0"
         style="stop-color:#3d3846;stop-opacity:0;" />
      <stop
         id="stop5976"
         offset="1"
         style="stop-color:#3d3846;stop-opacity:0.25210086" />
    </linearGradient>
    <linearGradient
       id="linearGradient6142">
      <stop
         style="stop-color:#ffffff;stop-opacity:1;"
         offset="0"
         id="stop6138" />
      <stop
         style="stop-color:#ffffff;stop-opacity:0;"
         offset="1"
         id="stop6140" />
    </linearGradient>
    <linearGradient
       xlink:href="#linearGradient8223"
       id="linearGradient8225"
       x1="225.79828"
       y1="161.37148"
       x2="225.82959"
       y2="213.58566"
       gradientUnits="userSpaceOnUse"
       spreadMethod="pad"
       gradientTransform="matrix(0.24866917,0,0,0.214173,-38.877871,-18.001791)" />
    <radialGradient
       xlink:href="#linearGradient5529"
       id="radialGradient5648-7"
       cx="281.38574"
       cy="-269.13684"
       fx="281.38574"
       fy="-269.13684"
       r="144.51788"
       gradientTransform="matrix(0.07208287,0,0,0.02631252,-3.3903458,11.841727)"
       gradientUnits="userSpaceOnUse" />
    <radialGradient
       xlink:href="#linearGradient5517"
       id="radialGradient5640-3"
       cx="282.1377"
       cy="-218.9213"
       fx="282.1377"
       fy="-218.9213"
       r="128.51855"
       gradientTransform="matrix(0.07932172,0.00261262,-0.00134234,0.0407549,-5.7265669,14.68089)"
       gradientUnits="userSpaceOnUse" />
    <radialGradient
       xlink:href="#linearGradient3819"
       id="radialGradient5898-62"
       gradientUnits="userSpaceOnUse"
       gradientTransform="matrix(0.06598139,0,0,0.06598139,-2.1294819,18.828992)"
       cx="81.936386"
       cy="33.185158"
       fx="81.936386"
       fy="33.185158"
       r="57.27565" />
    <radialGradient
       xlink:href="#linearGradient5980"
       id="radialGradient6134-8"
       gradientUnits="userSpaceOnUse"
       gradientTransform="matrix(0.26413128,-4.8927269e-8,4.32809e-8,0.23364964,-16.98481,6.0800853)"
       cx="76"
       cy="65.976921"
       fx="76"
       fy="65.976921"
       r="13.220703" />
    <radialGradient
       xlink:href="#linearGradient5279"
       id="radialGradient5900-2"
       gradientUnits="userSpaceOnUse"
       gradientTransform="matrix(0.18904176,7.425234e-4,-7.0323363e-4,0.17903842,-18.289933,10.851463)"
       cx="134.30902"
       cy="55.279427"
       fx="134.30902"
       fy="55.279427"
       r="58.46003" />
    <radialGradient
       xlink:href="#linearGradient5289"
       id="radialGradient5902-7"
       gradientUnits="userSpaceOnUse"
       gradientTransform="matrix(0.3290908,0.01010182,-0.01584991,0.51634825,-44.89464,-147.92335)"
       cx="183.52466"
       cy="320.79443"
       fx="183.52466"
       fy="320.79443"
       r="20.486324" />
    <radialGradient
       xlink:href="#linearGradient6142"
       id="radialGradient6953-8"
       gradientUnits="userSpaceOnUse"
       gradientTransform="matrix(37.758633,0,0,19.739207,-7268.8978,-1304.0032)"
       cx="197.71869"
       cy="68.10688"
       fx="197.71869"
       fy="68.10688"
       r="2.5002501" />
    <filter
       style="color-interpolation-filters:sRGB"
       id="filter7035-3"
       x="-1.4681916"
       width="3.9363832"
       y="-0.058004519"
       height="1.116009">
      <feGaussianBlur
         stdDeviation="3.0590383"
         id="feGaussianBlur7037-6" />
    </filter>
    <radialGradient
       xlink:href="#linearGradient6142"
       id="radialGradient6690-1"
       gradientUnits="userSpaceOnUse"
       gradientTransform="matrix(2.5356383,0,0,1.3255641,-497.31902,-69.833913)"
       cx="197.74678"
       cy="69.253197"
       fx="197.74678"
       fy="69.253197"
       r="2.5002501" />
    <linearGradient
       xlink:href="#linearGradient5511"
       id="linearGradient1734"
       gradientUnits="userSpaceOnUse"
       gradientTransform="matrix(0.07208287,0,0,0.07208287,-3.3903458,18.079225)"
       x1="137.61646"
       y1="-138.58612"
       x2="426.65503"
       y2="-138.58612" />
    <linearGradient
       xlink:href="#linearGradient5511"
       id="linearGradient1736"
       gradientUnits="userSpaceOnUse"
       gradientTransform="matrix(0.07208287,0,0,0.07208287,-3.4407118,17.995282)"
       x1="137.61646"
       y1="-138.58612"
       x2="426.65503"
       y2="-138.58612" />
    <linearGradient
       xlink:href="#linearGradient5511"
       id="linearGradient1738"
       gradientUnits="userSpaceOnUse"
       gradientTransform="matrix(0.07208287,0,0,0.07208287,-3.3903458,18.079225)"
       x1="137.61646"
       y1="-138.58612"
       x2="426.65503"
       y2="-138.58612" />
    <radialGradient
       xlink:href="#linearGradient3819"
       id="radialGradient5898-62-1"
       gradientUnits="userSpaceOnUse"
       gradientTransform="matrix(0.06598139,0,0,0.06598139,-35.996149,18.828992)"
       cx="81.936386"
       cy="33.185158"
       fx="81.936386"
       fy="33.185158"
       r="57.27565" />
    <radialGradient
       xlink:href="#linearGradient5980"
       id="radialGradient6134-8-2"
       gradientUnits="userSpaceOnUse"
       gradientTransform="matrix(-0.26413128,-4.8927269e-8,-4.32809e-8,0.23364964,50.851477,6.0800853)"
       cx="76"
       cy="65.976921"
       fx="76"
       fy="65.976921"
       r="13.220703" />
    <radialGradient
       xlink:href="#linearGradient5279"
       id="radialGradient5900-2-8"
       gradientUnits="userSpaceOnUse"
       gradientTransform="matrix(-0.18904176,7.425234e-4,7.0323363e-4,0.17903842,52.1566,10.851463)"
       cx="134.30902"
       cy="55.279427"
       fx="134.30902"
       fy="55.279427"
       r="58.46003" />
    <radialGradient
       xlink:href="#linearGradient5289"
       id="radialGradient5902-7-6"
       gradientUnits="userSpaceOnUse"
       gradientTransform="matrix(-0.3290908,0.01010182,0.01584991,0.51634825,78.761307,-147.92335)"
       cx="183.52466"
       cy="320.79443"
       fx="183.52466"
       fy="320.79443"
       r="20.486324" />
    <radialGradient
       xlink:href="#linearGradient6142"
       id="radialGradient6953-8-4"
       gradientUnits="userSpaceOnUse"
       gradientTransform="matrix(37.758633,0,0,19.739207,-7268.8978,-1304.0032)"
       cx="197.71869"
       cy="68.10688"
       fx="197.71869"
       fy="68.10688"
       r="2.5002501" />
    <filter
       style="color-interpolation-filters:sRGB"
       id="filter7035-3-1"
       x="-1.4681916"
       width="3.9363832"
       y="-0.058004519"
       height="1.116009">
      <feGaussianBlur
         stdDeviation="3.0590383"
         id="feGaussianBlur7037-6-7" />
    </filter>
    <radialGradient
       xlink:href="#linearGradient6142"
       id="radialGradient6690-1-2"
       gradientUnits="userSpaceOnUse"
       gradientTransform="matrix(-2.5356383,0,0,1.3255641,531.18569,-69.833913)"
       cx="197.74678"
       cy="69.253197"
       fx="197.74678"
       fy="69.253197"
       r="2.5002501" />
  </defs>
  <path
     style="opacity:0.9216;fill:#ca6000;stroke-linecap:round;stroke-miterlimit:34;paint-order:stroke fill markers"
     d="m 17.473867,17.672456 c -0.613219,1.687384 -1.232592,3.218256 -1.803825,4.916387 -0.211211,-1.510688 -0.424734,-2.996008 -0.625576,-4.414829 -0.842867,1.542157 -1.674128,3.231028 -2.467246,4.803014 l -1.338249,-0.924528 -0.848486,0.05354 0.06265,0.730773 c 0.628787,0.476401 1.906252,1.399835 2.554291,1.856508 0.465335,-0.884355 0.930154,-1.813035 1.37944,-2.70349 0.203675,1.858249 0.392273,3.819445 0.663237,5.671018 0.738864,-1.937803 1.481231,-3.908846 2.126035,-5.825371 0.389831,2.249794 0.861527,4.483902 1.394096,6.710912 0.538018,-1.913275 1.009761,-3.809632 1.440344,-5.729168 0.307547,1.0082 0.605117,2.018386 0.889826,3.031503 0.892516,-0.847837 2.131606,-1.982939 3.027974,-2.871139 l -0.05925,-0.730776 -0.848971,0.05103 -1.501534,1.409523 c -0.562746,-1.842256 -1.136097,-3.63164 -1.709255,-5.42187 -0.384258,1.670354 -0.757441,3.342554 -1.132471,5.014446 -0.432879,-1.989561 -0.730811,-3.709395 -1.203031,-5.627489 z"
     id="path4" />
  <g
     id="g4">
    <path
       style="opacity:0.9216;fill:#cb6100;stroke-linecap:round;stroke-miterlimit:34;paint-order:stroke fill markers"
       d="m 17.623047,14.898438 -0.908203,2.498046 c -0.233282,0.641918 -0.460761,1.275582 -0.695313,1.896485 -0.0577,-0.405398 -0.119772,-0.836757 -0.175781,-1.232422 l -0.339844,-2.410156 -1.167968,2.136718 c -0.708721,1.296716 -1.389272,2.672465 -2.056641,4.001953 l -0.8125,-0.560546 -1.951172,0.123046 0.1640625,1.91211 0.2851563,0.216797 c 0.6480582,0.491001 1.9195542,1.408952 2.5781252,1.873047 l 0.751953,0.529296 0.427734,-0.8125 c 0.05824,-0.110682 0.113784,-0.224243 0.171875,-0.335937 0.113015,1.023141 0.208628,2.039566 0.355469,3.042969 l 0.449219,3.068359 1.105469,-2.896484 c 0.400916,-1.051475 0.76966,-2.112202 1.158203,-3.173828 0.267904,1.320533 0.508497,2.646918 0.822265,3.958984 l 0.722656,3.021484 0.839844,-2.990234 c 0.270339,-0.961366 0.482547,-1.919722 0.722656,-2.876953 0.01679,0.0594 0.03604,0.118317 0.05273,0.177734 l 0.361328,1.291016 0.972656,-0.923828 c 0.882868,-0.838672 2.122736,-1.974836 3.039063,-2.882813 l 0.267578,-0.263672 -0.154297,-1.894531 -1.929688,0.117188 -0.777343,0.728515 C 21.46271,20.826309 21.021205,19.423 20.578125,18.039062 l -0.896484,-2.800781 -0.660157,2.865235 c -0.109982,0.478087 -0.215819,0.955581 -0.324218,1.433593 -0.141886,-0.673977 -0.264536,-1.348101 -0.439454,-2.058593 z"
       id="path3" />
    <path
       style="opacity:0.9216;fill:url(#linearGradient8225);stroke-linecap:round;stroke-miterlimit:34;paint-order:stroke fill markers"
       d="m 17.416016,14.03125 -0.908204,2.498047 c -0.233311,0.642 -0.460731,1.275501 -0.695312,1.896484 -0.05766,-0.405153 -0.117852,-0.836991 -0.173828,-1.232422 l -0.341797,-2.408203 -1.167969,2.134766 c -0.708696,1.296672 -1.387339,2.6725 -2.054687,4.001953 l -0.8125,-0.560547 -1.9531252,0.125 0.1640625,1.910156 0.2871093,0.216797 c 0.6480574,0.491005 1.9175994,1.40895 2.5761724,1.873047 l 0.751953,0.53125 0.427734,-0.814453 c 0.069,-0.13114 0.134337,-0.265917 0.203125,-0.398438 0.132543,0.999357 0.250945,2.003537 0.396484,2.998047 l 0.449219,3.06836 1.105469,-2.898438 c 0.392042,-1.0282 0.731141,-2.029209 1.091797,-3.035156 0.266352,1.311072 0.504869,2.626955 0.816406,3.929687 l 0.722656,3.021485 0.841797,-2.990235 c 0.269972,-0.960061 0.480883,-1.917113 0.720703,-2.873046 0.01661,0.05877 0.03622,0.116999 0.05273,0.175781 L 20.279297,26.490234 21.25,25.568359 c 0.882869,-0.838675 2.124689,-1.97483 3.041016,-2.882812 l 0.267578,-0.265625 -0.154297,-1.892578 -1.929688,0.115234 -0.779297,0.730469 C 21.25565,19.960971 20.816156,18.555904 20.373047,17.171875 l -0.898438,-2.800781 -0.658203,2.867187 c -0.109871,0.477605 -0.215927,0.95411 -0.324219,1.431641 -0.141823,-0.673645 -0.264623,-1.346507 -0.439453,-2.056641 z"
       id="path1" />
    <path
       style="opacity:0.9216;fill:#ff0101;stroke-linecap:round;stroke-miterlimit:34;paint-order:stroke fill markers"
       d="m 17.267711,16.805934 c -0.613219,1.687385 -1.232592,3.21826 -1.803825,4.9164 -0.211211,-1.510697 -0.424734,-2.99602 -0.625577,-4.414841 -0.842866,1.542157 -1.674127,3.231034 -2.467245,4.803027 l -1.338249,-0.924533 -0.848486,0.05354 0.06265,0.730777 c 0.628787,0.476404 1.906252,1.399844 2.554291,1.856518 0.465335,-0.88436 0.930154,-1.813045 1.37944,-2.703505 0.203675,1.85826 0.463074,3.710422 0.734039,5.561995 0.738863,-1.937802 1.410429,-3.799813 2.055233,-5.716348 0.389831,2.249806 0.861527,4.483921 1.394096,6.71093 0.538018,-1.913275 1.009761,-3.809635 1.440344,-5.729182 0.307547,1.008207 0.605117,2.0184 0.889826,3.03152 0.892516,-0.847839 2.131606,-1.98295 3.027974,-2.871155 l -0.05925,-0.730778 -0.848971,0.05103 -1.501534,1.409531 c -0.562746,-1.842267 -1.136097,-3.631659 -1.709255,-5.421889 -0.384258,1.670354 -0.757441,3.342561 -1.132471,5.014462 -0.432879,-1.989571 -0.730811,-3.709411 -1.203031,-5.627506 z"
       id="path2" />
  </g>
  <path
     style="fill:#70727b;stroke-linejoin:bevel;filter:url(#filter10359)"
     d="m 424.25586,-35.673828 v 74.953125 h 10 v -74.953125 z"
     id="path1309"
     transform="matrix(0.06715387,0,0,0.06715387,-2.0418868,17.734946)" />
  <g
     id="g9">
    <path
       style="fill:#000086;stroke-linejoin:bevel"
       d="m 16.931641,5.1738281 c -5.636309,0 -10.2128909,4.5765824 -10.212891,10.2128909 h 0.671875 c 1e-7,-5.273382 4.267633,-9.5410159 9.541016,-9.5410159 5.273381,6e-7 9.541015,4.2676339 9.541015,9.5410159 h 0.671875 c 0,-5.6363081 -4.576583,-10.2128902 -10.21289,-10.2128909 z"
       id="path1307-9" />
    <path
       style="fill:#000084;stroke-linejoin:bevel"
       d="m 26.476562,15.339844 v 5.033203 h 0.671875 v -5.033203 z"
       id="path1309-31" />
    <path
       style="fill:#000086;stroke-linejoin:bevel"
       d="m 6.7167969,15.339844 v 5.033203 h 0.6699218 v -5.033203 z"
       id="path1311-9" />
  </g>
  <g
     id="g5">
    <path
       style="color:#000000;font-style:normal;font-variant:normal;font-weight:normal;font-stretch:normal;font-size:medium;line-height:normal;font-family:sans-serif;font-variant-ligatures:normal;font-variant-position:normal;font-variant-caps:normal;font-variant-numeric:normal;font-variant-alternates:normal;font-feature-settings:normal;text-indent:0;text-align:start;text-decoration:none;text-decoration-line:none;text-decoration-style:solid;text-decoration-color:#000000;letter-spacing:normal;word-spacing:normal;text-transform:none;writing-mode:lr-tb;direction:ltr;text-orientation:mixed;dominant-baseline:auto;baseline-shift:baseline;text-anchor:start;white-space:normal;shape-padding:0;clip-rule:nonzero;display:inline;overflow:visible;visibility:visible;isolation:auto;mix-blend-mode:normal;color-interpolation:sRGB;color-interpolation-filters:linearRGB;solid-color:#000000;solid-opacity:1;fill:url(#linearGradient1734);fill-opacity:1;fill-rule:nonzero;stroke:none;stroke-width:1.34308;stroke-linecap:butt;stroke-linejoin:bevel;stroke-miterlimit:4;stroke-dasharray:none;stroke-dashoffset:0;stroke-opacity:1;marker:none;paint-order:normal;color-rendering:auto;image-rendering:auto;shape-rendering:auto;text-rendering:auto;enable-background:accumulate"
       d="m 16.946736,4.3031009 c -3.828047,0 -7.4346657,1.3636848 -9.6733578,4.316017 C 6.7959415,9.2500005 6.533601,10.787898 7.5100001,11.351623 l 0.8031484,0.444487 c 0.2849524,0.164438 0.6492508,0.06682 0.8138085,-0.218058 1.614091,-2.7956886 4.505836,-4.8140179 7.819779,-4.8140179 3.313942,0 6.205835,2.0183394 7.819921,4.8140179 0.164555,0.284883 0.528856,0.382496 0.813808,0.218058 l 0.757037,-0.385398 C 27.484981,10.748215 26.95444,9.202566 26.656178,8.6859638 24.422262,5.6916091 20.800129,4.3031009 16.946736,4.3031009 Z"
       id="path5655-2" />
    <path
       style="color:#000000;font-style:normal;font-variant:normal;font-weight:normal;font-stretch:normal;font-size:medium;line-height:normal;font-family:sans-serif;font-variant-ligatures:normal;font-variant-position:normal;font-variant-caps:normal;font-variant-numeric:normal;font-variant-alternates:normal;font-feature-settings:normal;text-indent:0;text-align:start;text-decoration:none;text-decoration-line:none;text-decoration-style:solid;text-decoration-color:#000000;letter-spacing:normal;word-spacing:normal;text-transform:none;writing-mode:lr-tb;direction:ltr;text-orientation:mixed;dominant-baseline:auto;baseline-shift:baseline;text-anchor:start;white-space:normal;shape-padding:0;clip-rule:nonzero;display:inline;overflow:visible;visibility:visible;isolation:auto;mix-blend-mode:normal;color-interpolation:sRGB;color-interpolation-filters:linearRGB;solid-color:#000000;solid-opacity:1;fill:url(#linearGradient1736);fill-opacity:1;fill-rule:nonzero;stroke:none;stroke-width:1.34308;stroke-linecap:butt;stroke-linejoin:bevel;stroke-miterlimit:4;stroke-dasharray:none;stroke-dashoffset:0;stroke-opacity:1;marker:none;paint-order:normal;color-rendering:auto;image-rendering:auto;shape-rendering:auto;text-rendering:auto;enable-background:accumulate"
       d="m 24.196356,9.3168896 c 0.559237,0.6734363 1.035682,1.4182234 1.411671,2.2197854 0.180616,-0.161141 0.421761,-0.291559 0.664091,-0.343379 -0.314039,-0.664995 -0.693856,-1.2925168 -1.129109,-1.8764064 z"
       id="path5632-4" />
    <path
       id="path5653-7"
       d="M 9.7297225,9.2104341 C 9.1512237,9.9070661 8.6583681,10.677506 8.2694323,11.506678 8.0825927,11.339985 7.8331407,11.205075 7.5824654,11.151471 7.9073217,10.463572 8.3002194,9.8144331 8.7504655,9.2104341 Z"
       style="color:#000000;font-style:normal;font-variant:normal;font-weight:normal;font-stretch:normal;font-size:medium;line-height:normal;font-family:sans-serif;font-variant-ligatures:normal;font-variant-position:normal;font-variant-caps:normal;font-variant-numeric:normal;font-variant-alternates:normal;font-feature-settings:normal;text-indent:0;text-align:start;text-decoration:none;text-decoration-line:none;text-decoration-style:solid;text-decoration-color:#000000;letter-spacing:normal;word-spacing:normal;text-transform:none;writing-mode:lr-tb;direction:ltr;text-orientation:mixed;dominant-baseline:auto;baseline-shift:baseline;text-anchor:start;white-space:normal;shape-padding:0;clip-rule:nonzero;display:inline;overflow:visible;visibility:visible;isolation:auto;mix-blend-mode:normal;color-interpolation:sRGB;color-interpolation-filters:linearRGB;solid-color:#000000;solid-opacity:1;fill:url(#linearGradient1738);fill-opacity:1;fill-rule:nonzero;stroke:none;stroke-width:1.34308;stroke-linecap:butt;stroke-linejoin:bevel;stroke-miterlimit:4;stroke-dasharray:none;stroke-dashoffset:0;stroke-opacity:1;marker:none;paint-order:normal;color-rendering:auto;image-rendering:auto;shape-rendering:auto;text-rendering:auto;enable-background:accumulate" />
    <path
       style="color:#000000;font-style:normal;font-variant:normal;font-weight:normal;font-stretch:normal;font-size:medium;line-height:normal;font-family:sans-serif;font-variant-ligatures:normal;font-variant-position:normal;font-variant-caps:normal;font-variant-numeric:normal;font-variant-alternates:normal;font-feature-settings:normal;text-indent:0;text-align:start;text-decoration:none;text-decoration-line:none;text-decoration-style:solid;text-decoration-color:#000000;letter-spacing:normal;word-spacing:normal;text-transform:none;writing-mode:lr-tb;direction:ltr;text-orientation:mixed;dominant-baseline:auto;baseline-shift:baseline;text-anchor:start;white-space:normal;shape-padding:0;clip-rule:nonzero;display:inline;overflow:visible;visibility:visible;isolation:auto;mix-blend-mode:normal;color-interpolation:sRGB;color-interpolation-filters:linearRGB;solid-color:#000000;solid-opacity:1;fill:url(#radialGradient5648-7);fill-opacity:1;fill-rule:nonzero;stroke:none;stroke-width:1.34308;stroke-linecap:butt;stroke-linejoin:bevel;stroke-miterlimit:4;stroke-dasharray:none;stroke-dashoffset:0;stroke-opacity:1;marker:none;paint-order:normal;color-rendering:auto;image-rendering:auto;shape-rendering:auto;text-rendering:auto;enable-background:accumulate"
       d="m 16.946736,3.6244982 c -3.781237,0 -7.3113217,1.7919723 -9.5475975,4.7739092 0,0 -1.0717428,1.7353976 0.2597668,2.5041516 l 0.4248752,0.245308 c 0.2925235,0.168806 0.6665023,0.0686 0.8354305,-0.223853 1.65697,-2.8699581 4.713582,-4.6347034 8.027525,-4.6347034 3.313942,0 6.370702,1.764758 8.027667,4.6347034 0.168928,0.292452 0.542907,0.392659 0.83543,0.223853 l 0.437231,-0.25244 c 1.273425,-0.689116 0.244691,-2.5006389 0.244691,-2.5006389 -2.236446,-2.979775 -5.76531,-4.7702899 -9.545019,-4.7702899 z"
       id="path1318-8" />
    <path
       style="color:#000000;font-style:normal;font-variant:normal;font-weight:normal;font-stretch:normal;font-size:medium;line-height:normal;font-family:sans-serif;font-variant-ligatures:normal;font-variant-position:normal;font-variant-caps:normal;font-variant-numeric:normal;font-variant-alternates:normal;font-feature-settings:normal;text-indent:0;text-align:start;text-decoration:none;text-decoration-line:none;text-decoration-style:solid;text-decoration-color:#000000;letter-spacing:normal;word-spacing:normal;text-transform:none;writing-mode:lr-tb;direction:ltr;text-orientation:mixed;dominant-baseline:auto;baseline-shift:baseline;text-anchor:start;white-space:normal;shape-padding:0;clip-rule:nonzero;display:inline;overflow:visible;visibility:visible;isolation:auto;mix-blend-mode:normal;color-interpolation:sRGB;color-interpolation-filters:linearRGB;solid-color:#000000;solid-opacity:1;fill:url(#radialGradient5640-3);fill-opacity:1;fill-rule:nonzero;stroke:none;stroke-width:1.34308;stroke-linecap:butt;stroke-linejoin:bevel;stroke-miterlimit:4;stroke-dasharray:none;stroke-dashoffset:0;stroke-opacity:1;marker:none;paint-order:normal;color-rendering:auto;image-rendering:auto;shape-rendering:auto;text-rendering:auto;enable-background:accumulate"
       d="m 16.946736,5.2220062 c -4.501583,1.55e-5 -7.3246568,2.3207039 -9.227028,5.6157048 -0.014315,0.02523 -0.026607,0.05153 -0.036747,0.0787 l 0.4008191,0.231455 c 0.2925235,0.168806 0.6665023,0.0686 0.8354305,-0.223853 1.6569704,-2.8699581 4.7135824,-4.6347034 8.0275254,-4.6347034 3.313942,0 6.370702,1.764758 8.027667,4.6347034 0.168928,0.292452 0.542907,0.392659 0.83543,0.223853 l 0.401101,-0.231594 c -0.01023,-0.02713 -0.02261,-0.0534 -0.03703,-0.07856 C 24.27153,7.5427 21.448321,5.2219915 16.946736,5.2220062 Z"
       id="path1328-4" />
  </g>
  <g
     id="g8">
    <circle
       r="3.8462815"
       cy="22.495983"
       cx="5.9629478"
       id="path1278-0"
       style="opacity:0.96;fill:url(#radialGradient5898-62);stroke-width:0.253736;stroke-linejoin:bevel" />
    <path
       style="opacity:0.96;fill:url(#radialGradient6134-8);stroke-width:0.253736;stroke-linejoin:bevel"
       d="m 3.7626768,19.346772 a 3.8462814,3.8462814 0 0 0 -0.1295877,0.0926 0.13430774,0.13430774 0 0 0 -0.0067,0.04158 0.13430774,0.13430774 0 0 0 0.1343086,0.134306 0.13430774,0.13430774 0 0 0 0.1343061,-0.134306 0.13430774,0.13430774 0 0 0 -0.1323391,-0.134177 z m -0.2705842,0.268483 a 0.13430774,0.13430774 0 0 0 -0.134306,0.134308 0.13430774,0.13430774 0 0 0 0.134306,0.134309 0.13430774,0.13430774 0 0 0 0.1343086,-0.134309 0.13430774,0.13430774 0 0 0 -0.1343086,-0.134308 z M 3.223478,19.883872 A 0.13430774,0.13430774 0 0 0 3.0891694,20.018178 0.13430774,0.13430774 0 0 0 3.223478,20.152486 0.13430774,0.13430774 0 0 0 3.3577866,20.018178 0.13430774,0.13430774 0 0 0 3.223478,19.883872 Z m 0.5372318,0 a 0.13430774,0.13430774 0 0 0 -0.1343086,0.134306 0.13430774,0.13430774 0 0 0 0.1343086,0.134308 0.13430774,0.13430774 0 0 0 0.134306,-0.134308 0.13430774,0.13430774 0 0 0 -0.134306,-0.134306 z m -0.8058464,0.268614 a 0.13430774,0.13430774 0 0 0 -0.040792,0.0065 3.8462814,3.8462814 0 0 0 -0.093255,0.122504 0.13430774,0.13430774 0 0 0 -2.538e-4,0.0053 0.13430774,0.13430774 0 0 0 0.1343086,0.134309 0.13430774,0.13430774 0 0 0 0.134306,-0.134309 0.13430774,0.13430774 0 0 0 -0.134306,-0.134306 z m 0.5372292,0 a 0.13430774,0.13430774 0 0 0 -0.134306,0.134309 0.13430774,0.13430774 0 0 0 0.134306,0.134306 0.13430774,0.13430774 0 0 0 0.1343086,-0.134306 0.13430774,0.13430774 0 0 0 -0.1343086,-0.134309 z M 3.223478,20.421101 A 0.13430774,0.13430774 0 0 0 3.0891694,20.55541 0.13430774,0.13430774 0 0 0 3.223478,20.689718 0.13430774,0.13430774 0 0 0 3.3577866,20.55541 0.13430774,0.13430774 0 0 0 3.223478,20.421101 Z m 0.5372318,0 a 0.13430774,0.13430774 0 0 0 -0.1343086,0.134309 0.13430774,0.13430774 0 0 0 0.1343086,0.134308 0.13430774,0.13430774 0 0 0 0.134306,-0.134308 0.13430774,0.13430774 0 0 0 -0.134306,-0.134309 z m -1.0353769,0.0059 a 3.8462814,3.8462814 0 0 0 -0.1357502,0.221528 0.13430774,0.13430774 0 0 0 0.096664,0.04118 0.13430774,0.13430774 0 0 0 0.1343086,-0.134308 0.13430774,0.13430774 0 0 0 -0.095222,-0.128405 z m 0.2295305,0.262713 a 0.13430774,0.13430774 0 0 0 -0.1343086,0.134306 0.13430774,0.13430774 0 0 0 0.1343086,0.134309 0.13430774,0.13430774 0 0 0 0.134306,-0.134309 0.13430774,0.13430774 0 0 0 -0.134306,-0.134306 z m 0.5372292,0 a 0.13430774,0.13430774 0 0 0 -0.134306,0.134306 0.13430774,0.13430774 0 0 0 0.134306,0.134309 0.13430774,0.13430774 0 0 0 0.1343086,-0.134309 0.13430774,0.13430774 0 0 0 -0.1343086,-0.134306 z m -0.9566806,0.07004 a 3.8462814,3.8462814 0 0 0 -0.094958,0.196609 0.13430774,0.13430774 0 0 0 0.1114859,-0.132342 0.13430774,0.13430774 0 0 0 -0.016523,-0.06427 z M 2.6862462,20.95833 A 0.13430774,0.13430774 0 0 0 2.5519401,21.092639 0.13430774,0.13430774 0 0 0 2.6862462,21.226945 0.13430774,0.13430774 0 0 0 2.8205548,21.092639 0.13430774,0.13430774 0 0 0 2.6862462,20.95833 Z m 0.5372318,0 A 0.13430774,0.13430774 0 0 0 3.0891694,21.092652 0.13430774,0.13430774 0 0 0 3.223478,21.226958 0.13430774,0.13430774 0 0 0 3.3577866,21.092652 0.13430774,0.13430774 0 0 0 3.223478,20.958343 Z m 0.5372318,0 a 0.13430774,0.13430774 0 0 0 -0.1343086,0.134309 0.13430774,0.13430774 0 0 0 0.1343086,0.134306 0.13430774,0.13430774 0 0 0 0.134306,-0.134306 0.13430774,0.13430774 0 0 0 -0.134306,-0.134309 z m -1.3430782,0.268615 a 0.13430774,0.13430774 0 0 0 -0.095483,0.04001 3.8462814,3.8462814 0 0 0 -0.037906,0.1086 0.13430774,0.13430774 0 0 0 0.1333898,0.120012 0.13430774,0.13430774 0 0 0 0.1343085,-0.134309 0.13430774,0.13430774 0 0 0 -0.1343085,-0.134308 z m 0.5372318,0 a 0.13430774,0.13430774 0 0 0 -0.1343086,0.134308 0.13430774,0.13430774 0 0 0 0.1343086,0.134309 0.13430774,0.13430774 0 0 0 0.134306,-0.134309 0.13430774,0.13430774 0 0 0 -0.134306,-0.134308 z m 0.5372292,0 a 0.13430774,0.13430774 0 0 0 -0.134306,0.134308 0.13430774,0.13430774 0 0 0 0.134306,0.134309 0.13430774,0.13430774 0 0 0 0.1343086,-0.134309 0.13430774,0.13430774 0 0 0 -0.1343086,-0.134308 z m -0.8058464,0.268617 a 0.13430774,0.13430774 0 0 0 -0.1343061,0.134306 0.13430774,0.13430774 0 0 0 0.1343061,0.134308 0.13430774,0.13430774 0 0 0 0.1343086,-0.134308 0.13430774,0.13430774 0 0 0 -0.1343086,-0.134306 z m 0.5372318,0 A 0.13430774,0.13430774 0 0 0 3.0891694,21.629881 0.13430774,0.13430774 0 0 0 3.223478,21.764189 0.13430774,0.13430774 0 0 0 3.3577866,21.629881 0.13430774,0.13430774 0 0 0 3.223478,21.495575 Z m 0.5372318,0 a 0.13430774,0.13430774 0 0 0 -0.1343086,0.134306 0.13430774,0.13430774 0 0 0 0.1343086,0.134308 0.13430774,0.13430774 0 0 0 0.134306,-0.134308 0.13430774,0.13430774 0 0 0 -0.134306,-0.134306 z m -1.5169964,0.03908 a 3.8462814,3.8462814 0 0 0 -0.0543,0.223104 0.13430774,0.13430774 0 0 0 0.09391,-0.127882 0.13430774,0.13430774 0 0 0 -0.03961,-0.09522 z m 0.1739182,0.22953 A 0.13430774,0.13430774 0 0 0 2.283323,21.898498 0.13430774,0.13430774 0 0 0 2.4176316,22.032804 0.13430774,0.13430774 0 0 0 2.5519401,21.898498 0.13430774,0.13430774 0 0 0 2.4176316,21.764189 Z m 0.5372318,0 a 0.13430774,0.13430774 0 0 0 -0.1343086,0.134309 0.13430774,0.13430774 0 0 0 0.1343086,0.134306 0.13430774,0.13430774 0 0 0 0.134306,-0.134306 0.13430774,0.13430774 0 0 0 -0.134306,-0.134309 z m 0.5372292,0 a 0.13430774,0.13430774 0 0 0 -0.134306,0.134309 0.13430774,0.13430774 0 0 0 0.134306,0.134306 0.13430774,0.13430774 0 0 0 0.1343086,-0.134306 0.13430774,0.13430774 0 0 0 -0.1343086,-0.134309 z m -1.3442559,0.268615 a 3.8462814,3.8462814 0 0 0 -0.021371,0.266648 0.13430774,0.13430774 0 0 0 0.022564,0.002 0.13430774,0.13430774 0 0 0 0.1343061,-0.134308 0.13430774,0.13430774 0 0 0 -0.1343061,-0.134309 0.13430774,0.13430774 0 0 0 -0.00127,0 z m 0.5384095,0 a 0.13430774,0.13430774 0 0 0 -0.1343061,0.134309 0.13430774,0.13430774 0 0 0 0.1343061,0.134308 0.13430774,0.13430774 0 0 0 0.1343086,-0.134308 0.13430774,0.13430774 0 0 0 -0.1343086,-0.134309 z m 0.5372318,0 A 0.13430774,0.13430774 0 0 0 3.0891694,22.167113 0.13430774,0.13430774 0 0 0 3.223478,22.301421 0.13430774,0.13430774 0 0 0 3.3577866,22.167113 0.13430774,0.13430774 0 0 0 3.223478,22.032804 Z m 0.5372318,0 a 0.13430774,0.13430774 0 0 0 -0.1343086,0.134309 0.13430774,0.13430774 0 0 0 0.1343086,0.134308 0.13430774,0.13430774 0 0 0 0.134306,-0.134308 0.13430774,0.13430774 0 0 0 -0.134306,-0.134309 z M 2.4176316,22.301421 A 0.13430774,0.13430774 0 0 0 2.283323,22.435727 0.13430774,0.13430774 0 0 0 2.4176316,22.570036 0.13430774,0.13430774 0 0 0 2.5519401,22.435727 0.13430774,0.13430774 0 0 0 2.4176316,22.301421 Z m 0.5372318,0 a 0.13430774,0.13430774 0 0 0 -0.1343086,0.134306 0.13430774,0.13430774 0 0 0 0.1343086,0.134309 0.13430774,0.13430774 0 0 0 0.134306,-0.134309 0.13430774,0.13430774 0 0 0 -0.134306,-0.134306 z m 0.5372292,0 a 0.13430774,0.13430774 0 0 0 -0.134306,0.134306 0.13430774,0.13430774 0 0 0 0.134306,0.134309 0.13430774,0.13430774 0 0 0 0.1343086,-0.134309 0.13430774,0.13430774 0 0 0 -0.1343086,-0.134306 z m -1.3430757,0.268615 a 0.13430774,0.13430774 0 0 0 -0.029642,0.0034 3.8462814,3.8462814 0 0 0 0.015482,0.264419 0.13430774,0.13430774 0 0 0 0.014163,7.61e-4 0.13430774,0.13430774 0 0 0 0.134306,-0.134306 0.13430774,0.13430774 0 0 0 -0.134306,-0.134308 z m 0.5372293,0 A 0.13430774,0.13430774 0 0 0 2.5519401,22.704344 0.13430774,0.13430774 0 0 0 2.6862462,22.83865 0.13430774,0.13430774 0 0 0 2.8205548,22.704344 0.13430774,0.13430774 0 0 0 2.6862462,22.570036 Z m 0.5372318,0 A 0.13430774,0.13430774 0 0 0 3.0891694,22.704344 0.13430774,0.13430774 0 0 0 3.223478,22.83865 0.13430774,0.13430774 0 0 0 3.3577866,22.704344 0.13430774,0.13430774 0 0 0 3.223478,22.570036 Z m 0.5372318,0 a 0.13430774,0.13430774 0 0 0 -0.1343086,0.134308 0.13430774,0.13430774 0 0 0 0.1343086,0.134306 0.13430774,0.13430774 0 0 0 0.134306,-0.134306 0.13430774,0.13430774 0 0 0 -0.134306,-0.134308 z M 2.4176316,22.83865 A 0.13430774,0.13430774 0 0 0 2.283323,22.972959 0.13430774,0.13430774 0 0 0 2.4176316,23.107268 0.13430774,0.13430774 0 0 0 2.5519401,22.972959 0.13430774,0.13430774 0 0 0 2.4176316,22.83865 Z m 0.5372318,0 a 0.13430774,0.13430774 0 0 0 -0.1343086,0.134309 0.13430774,0.13430774 0 0 0 0.1343086,0.134309 0.13430774,0.13430774 0 0 0 0.134306,-0.134309 0.13430774,0.13430774 0 0 0 -0.134306,-0.134309 z m 0.5372292,0 a 0.13430774,0.13430774 0 0 0 -0.134306,0.134309 0.13430774,0.13430774 0 0 0 0.134306,0.134309 0.13430774,0.13430774 0 0 0 0.1343086,-0.134309 0.13430774,0.13430774 0 0 0 -0.1343086,-0.134309 z m -0.8058464,0.268618 a 0.13430774,0.13430774 0 0 0 -0.1343061,0.134306 0.13430774,0.13430774 0 0 0 0.1343061,0.134308 0.13430774,0.13430774 0 0 0 0.1343086,-0.134308 0.13430774,0.13430774 0 0 0 -0.1343086,-0.134306 z m 0.5372318,0 A 0.13430774,0.13430774 0 0 0 3.0891694,23.241574 0.13430774,0.13430774 0 0 0 3.223478,23.375882 0.13430774,0.13430774 0 0 0 3.3577866,23.241574 0.13430774,0.13430774 0 0 0 3.223478,23.107268 Z m 0.5372318,0 a 0.13430774,0.13430774 0 0 0 -0.1343086,0.134306 0.13430774,0.13430774 0 0 0 0.1343086,0.134308 0.13430774,0.13430774 0 0 0 0.134306,-0.134308 0.13430774,0.13430774 0 0 0 -0.134306,-0.134306 z m -1.5930683,0.0015 a 3.8462814,3.8462814 0 0 0 0.051282,0.247368 0.13430774,0.13430774 0 0 0 0.064399,-0.114504 0.13430774,0.13430774 0 0 0 -0.115681,-0.132864 z m 0.2499901,0.267173 A 0.13430774,0.13430774 0 0 0 2.283323,23.510272 0.13430774,0.13430774 0 0 0 2.4176316,23.644578 0.13430774,0.13430774 0 0 0 2.5519401,23.510272 0.13430774,0.13430774 0 0 0 2.4176316,23.375964 Z m 0.5372318,0 a 0.13430774,0.13430774 0 0 0 -0.1343086,0.134308 0.13430774,0.13430774 0 0 0 0.1343086,0.134306 0.13430774,0.13430774 0 0 0 0.134306,-0.134306 0.13430774,0.13430774 0 0 0 -0.134306,-0.134308 z m 0.5372292,0 a 0.13430774,0.13430774 0 0 0 -0.134306,0.134308 0.13430774,0.13430774 0 0 0 0.134306,0.134306 0.13430774,0.13430774 0 0 0 0.1343086,-0.134306 0.13430774,0.13430774 0 0 0 -0.1343086,-0.134308 z m -0.8058464,0.268614 a 0.13430774,0.13430774 0 0 0 -0.1343061,0.134309 0.13430774,0.13430774 0 0 0 0.1343061,0.134308 0.13430774,0.13430774 0 0 0 0.1343086,-0.134308 0.13430774,0.13430774 0 0 0 -0.1343086,-0.134309 z m 0.5372318,0 A 0.13430774,0.13430774 0 0 0 3.0891694,23.778887 0.13430774,0.13430774 0 0 0 3.223478,23.913195 0.13430774,0.13430774 0 0 0 3.3577866,23.778887 0.13430774,0.13430774 0 0 0 3.223478,23.644578 Z m 0.5372318,0 a 0.13430774,0.13430774 0 0 0 -0.1343086,0.134309 0.13430774,0.13430774 0 0 0 0.1343086,0.134308 0.13430774,0.13430774 0 0 0 0.134306,-0.134308 0.13430774,0.13430774 0 0 0 -0.134306,-0.134309 z m -1.3430782,0.268617 a 0.13430774,0.13430774 0 0 0 -0.027805,0.003 3.8462814,3.8462814 0 0 0 0.107288,0.239365 0.13430774,0.13430774 0 0 0 0.054825,-0.108075 0.13430774,0.13430774 0 0 0 -0.134308,-0.134262 z m 0.5372318,0 a 0.13430774,0.13430774 0 0 0 -0.1343086,0.134306 0.13430774,0.13430774 0 0 0 0.1343086,0.134309 0.13430774,0.13430774 0 0 0 0.134306,-0.134309 0.13430774,0.13430774 0 0 0 -0.134306,-0.134306 z m 0.5372292,0 a 0.13430774,0.13430774 0 0 0 -0.134306,0.134306 0.13430774,0.13430774 0 0 0 0.134306,0.134309 0.13430774,0.13430774 0 0 0 0.1343086,-0.134309 0.13430774,0.13430774 0 0 0 -0.1343086,-0.134306 z M 2.6862462,24.18181 a 0.13430774,0.13430774 0 0 0 -0.1290598,0.09745 3.8462814,3.8462814 0 0 0 0.095745,0.166834 0.13430774,0.13430774 0 0 0 0.033315,0.0043 0.13430774,0.13430774 0 0 0 0.1343086,-0.134309 0.13430774,0.13430774 0 0 0 -0.1343086,-0.134306 z m 0.5372318,0 A 0.13430774,0.13430774 0 0 0 3.0891694,24.316119 0.13430774,0.13430774 0 0 0 3.223478,24.450425 0.13430774,0.13430774 0 0 0 3.3577866,24.316119 0.13430774,0.13430774 0 0 0 3.223478,24.18181 Z m 0.5372318,0 a 0.13430774,0.13430774 0 0 0 -0.1343086,0.134309 0.13430774,0.13430774 0 0 0 0.1343086,0.134306 0.13430774,0.13430774 0 0 0 0.134306,-0.134306 0.13430774,0.13430774 0 0 0 -0.134306,-0.134309 z m -0.8058464,0.268615 a 0.13430774,0.13430774 0 0 0 -0.1343086,0.134308 0.13430774,0.13430774 0 0 0 0.1343086,0.134309 0.13430774,0.13430774 0 0 0 0.134306,-0.134309 0.13430774,0.13430774 0 0 0 -0.134306,-0.134308 z m 0.5372292,0 a 0.13430774,0.13430774 0 0 0 -0.134306,0.134308 0.13430774,0.13430774 0 0 0 0.134306,0.134309 0.13430774,0.13430774 0 0 0 0.1343086,-0.134309 0.13430774,0.13430774 0 0 0 -0.1343086,-0.134308 z M 3.223478,24.719042 A 0.13430774,0.13430774 0 0 0 3.0891694,24.853348 0.13430774,0.13430774 0 0 0 3.223478,24.987656 0.13430774,0.13430774 0 0 0 3.3577866,24.853348 0.13430774,0.13430774 0 0 0 3.223478,24.719042 Z m 0.5372318,0 a 0.13430774,0.13430774 0 0 0 -0.1343086,0.134306 0.13430774,0.13430774 0 0 0 0.1343086,0.134308 0.13430774,0.13430774 0 0 0 0.134306,-0.134308 0.13430774,0.13430774 0 0 0 -0.134306,-0.134306 z m -0.2686172,0.268614 a 0.13430774,0.13430774 0 0 0 -0.134306,0.134309 0.13430774,0.13430774 0 0 0 0.134306,0.134306 0.13430774,0.13430774 0 0 0 0.1343086,-0.134306 0.13430774,0.13430774 0 0 0 -0.1343086,-0.134309 z m 0.2686172,0.268615 a 0.13430774,0.13430774 0 0 0 -0.1343086,0.134309 0.13430774,0.13430774 0 0 0 0.1343086,0.134308 0.13430774,0.13430774 0 0 0 0.134306,-0.134308 0.13430774,0.13430774 0 0 0 -0.134306,-0.134309 z"
       id="circle5826-3" />
    <path
       id="path1273-6"
       d="m 7.648547,16.219976 c -1.1485786,-7e-6 -2.2951369,0.336227 -3.2617491,0.956625 -0.3613593,0.231967 -0.5798592,0.63186 -0.5798693,1.061268 v 8.438522 c 1.27e-5,0.428395 0.2174922,0.827491 0.5774784,1.059725 0.9658203,0.622951 2.1124522,0.961794 3.2617466,0.963954 0.00127,0 0.00256,0 0.00386,0 1.3856472,-0.0015 2.4807654,-0.498069 3.5498384,-1.379604 0.290468,-0.239566 0.458706,-0.596387 0.458711,-0.972904 v -7.77639 c -5e-6,-0.376727 -0.168429,-0.733726 -0.459175,-0.97329 -1.069302,-0.880946 -2.1643896,-1.376766 -3.5498389,-1.377906 h -0.00102 z"
       style="opacity:0.96;fill:url(#radialGradient5900-2);stroke-width:0.253736;stroke-linejoin:bevel" />
    <path
       id="path1280-1"
       d="m 8.9070304,16.372196 v 12.175312 c 0.8310726,-0.20947 1.5680706,-0.629401 2.2928046,-1.227001 0.29047,-0.239569 0.458662,-0.596428 0.458667,-0.972945 v -7.776339 c -5e-6,-0.376728 -0.168314,-0.733775 -0.459061,-0.973338 C 10.474743,17.00084 9.7377807,16.581343 8.9070304,16.372196 Z"
       style="opacity:0.96;fill:url(#radialGradient5902-7);stroke-width:0.253736;stroke-linejoin:bevel" />
    <path
       style="color:#000000;opacity:0.44352;fill:url(#radialGradient6953-8);fill-opacity:0.987395;stroke-width:3.77842;stroke-linecap:round;stroke-linejoin:bevel;filter:url(#filter7035-3)"
       d="M 196.96289,5.2148438 A 2.50025,2.50025 0 0 0 194.5,7.75 v 121.5 a 2.50025,2.50025 0 1 0 5,0 V 7.75 a 2.50025,2.50025 0 0 0 -2.53711,-2.5351562 z"
       id="path6136-0"
       transform="matrix(0.06715387,0,0,0.06715387,-2.0145238,17.734947)" />
    <path
       style="opacity:0.17952;fill:url(#radialGradient6690-1);fill-opacity:0.987395;stroke-width:0.253736;stroke-linecap:round;stroke-linejoin:bevel"
       d="m 4.0450429,18.128718 a 0.12686771,0.12686771 0 0 0 -0.126905,0.126905 v 8.159097 a 0.12686771,0.12686771 0 0 0 0.126905,0.126905 0.12686771,0.12686771 0 0 0 0.1269049,-0.126905 V 18.255623 A 0.12686771,0.12686771 0 0 0 4.0450429,18.128718 Z"
       id="path6614-6" />
  </g>
  <g
     id="g7">
    <circle
       r="3.8462815"
       cy="22.495983"
       cx="-27.903719"
       id="path1278-0-2"
       style="opacity:0.96;fill:url(#radialGradient5898-62-1);stroke-width:0.0671538;stroke-linejoin:bevel"
       transform="scale(-1,1)" />
    <path
       style="opacity:0.96;fill:url(#radialGradient6134-8-2);stroke-width:1.34308;stroke-linejoin:bevel"
       d="m 30.10399,19.346772 a 3.8462814,3.8462814 0 0 1 0.129588,0.0926 0.13430774,0.13430774 0 0 1 0.0067,0.04158 0.13430774,0.13430774 0 0 1 -0.134308,0.134306 0.13430774,0.13430774 0 0 1 -0.134306,-0.134306 0.13430774,0.13430774 0 0 1 0.132339,-0.134177 z m 0.270584,0.268483 a 0.13430774,0.13430774 0 0 1 0.134306,0.134308 0.13430774,0.13430774 0 0 1 -0.134306,0.134309 0.13430774,0.13430774 0 0 1 -0.134308,-0.134309 0.13430774,0.13430774 0 0 1 0.134308,-0.134308 z m 0.268615,0.268617 a 0.13430774,0.13430774 0 0 1 0.134309,0.134306 0.13430774,0.13430774 0 0 1 -0.134309,0.134308 0.13430774,0.13430774 0 0 1 -0.134309,-0.134308 0.13430774,0.13430774 0 0 1 0.134309,-0.134306 z m -0.537232,0 a 0.13430774,0.13430774 0 0 1 0.134309,0.134306 0.13430774,0.13430774 0 0 1 -0.134309,0.134308 0.13430774,0.13430774 0 0 1 -0.134306,-0.134308 0.13430774,0.13430774 0 0 1 0.134306,-0.134306 z m 0.805847,0.268614 a 0.13430774,0.13430774 0 0 1 0.04079,0.0065 3.8462814,3.8462814 0 0 1 0.09325,0.122504 0.13430774,0.13430774 0 0 1 2.54e-4,0.0053 0.13430774,0.13430774 0 0 1 -0.134309,0.134309 0.13430774,0.13430774 0 0 1 -0.134306,-0.134309 0.13430774,0.13430774 0 0 1 0.134306,-0.134306 z m -0.53723,0 a 0.13430774,0.13430774 0 0 1 0.134306,0.134309 0.13430774,0.13430774 0 0 1 -0.134306,0.134306 0.13430774,0.13430774 0 0 1 -0.134308,-0.134306 0.13430774,0.13430774 0 0 1 0.134308,-0.134309 z m 0.268615,0.268615 a 0.13430774,0.13430774 0 0 1 0.134309,0.134309 0.13430774,0.13430774 0 0 1 -0.134309,0.134308 0.13430774,0.13430774 0 0 1 -0.134309,-0.134308 0.13430774,0.13430774 0 0 1 0.134309,-0.134309 z m -0.537232,0 a 0.13430774,0.13430774 0 0 1 0.134309,0.134309 0.13430774,0.13430774 0 0 1 -0.134309,0.134308 0.13430774,0.13430774 0 0 1 -0.134306,-0.134308 0.13430774,0.13430774 0 0 1 0.134306,-0.134309 z m 1.035377,0.0059 a 3.8462814,3.8462814 0 0 1 0.13575,0.221528 0.13430774,0.13430774 0 0 1 -0.09666,0.04118 0.13430774,0.13430774 0 0 1 -0.134309,-0.134308 0.13430774,0.13430774 0 0 1 0.09522,-0.128405 z m -0.22953,0.262713 a 0.13430774,0.13430774 0 0 1 0.134308,0.134306 0.13430774,0.13430774 0 0 1 -0.134308,0.134309 0.13430774,0.13430774 0 0 1 -0.134306,-0.134309 0.13430774,0.13430774 0 0 1 0.134306,-0.134306 z m -0.53723,0 a 0.13430774,0.13430774 0 0 1 0.134306,0.134306 0.13430774,0.13430774 0 0 1 -0.134306,0.134309 0.13430774,0.13430774 0 0 1 -0.134308,-0.134309 0.13430774,0.13430774 0 0 1 0.134308,-0.134306 z m 0.956681,0.07004 a 3.8462814,3.8462814 0 0 1 0.09496,0.196609 0.13430774,0.13430774 0 0 1 -0.111486,-0.132342 0.13430774,0.13430774 0 0 1 0.01652,-0.06427 z m -0.150834,0.198576 a 0.13430774,0.13430774 0 0 1 0.134306,0.134309 0.13430774,0.13430774 0 0 1 -0.134306,0.134306 0.13430774,0.13430774 0 0 1 -0.134309,-0.134306 0.13430774,0.13430774 0 0 1 0.134309,-0.134309 z m -0.537232,0 a 0.13430774,0.13430774 0 0 1 0.134309,0.134309 0.13430774,0.13430774 0 0 1 -0.134309,0.134306 0.13430774,0.13430774 0 0 1 -0.134309,-0.134306 0.13430774,0.13430774 0 0 1 0.134309,-0.134309 z m -0.537232,0 a 0.13430774,0.13430774 0 0 1 0.134309,0.134309 0.13430774,0.13430774 0 0 1 -0.134309,0.134306 0.13430774,0.13430774 0 0 1 -0.134306,-0.134306 0.13430774,0.13430774 0 0 1 0.134306,-0.134309 z m 1.343078,0.268615 a 0.13430774,0.13430774 0 0 1 0.09548,0.04001 3.8462814,3.8462814 0 0 1 0.03791,0.1086 0.13430774,0.13430774 0 0 1 -0.13339,0.120012 0.13430774,0.13430774 0 0 1 -0.134308,-0.134309 0.13430774,0.13430774 0 0 1 0.134308,-0.134308 z m -0.537231,0 a 0.13430774,0.13430774 0 0 1 0.134308,0.134308 0.13430774,0.13430774 0 0 1 -0.134308,0.134309 0.13430774,0.13430774 0 0 1 -0.134306,-0.134309 0.13430774,0.13430774 0 0 1 0.134306,-0.134308 z m -0.53723,0 a 0.13430774,0.13430774 0 0 1 0.134306,0.134308 0.13430774,0.13430774 0 0 1 -0.134306,0.134309 0.13430774,0.13430774 0 0 1 -0.134308,-0.134309 0.13430774,0.13430774 0 0 1 0.134308,-0.134308 z m 0.805847,0.268617 a 0.13430774,0.13430774 0 0 1 0.134306,0.134306 0.13430774,0.13430774 0 0 1 -0.134306,0.134308 0.13430774,0.13430774 0 0 1 -0.134309,-0.134308 0.13430774,0.13430774 0 0 1 0.134309,-0.134306 z m -0.537232,0 a 0.13430774,0.13430774 0 0 1 0.134309,0.134306 0.13430774,0.13430774 0 0 1 -0.134309,0.134308 0.13430774,0.13430774 0 0 1 -0.134309,-0.134308 0.13430774,0.13430774 0 0 1 0.134309,-0.134306 z m -0.537232,0 a 0.13430774,0.13430774 0 0 1 0.134309,0.134306 0.13430774,0.13430774 0 0 1 -0.134309,0.134308 0.13430774,0.13430774 0 0 1 -0.134306,-0.134308 0.13430774,0.13430774 0 0 1 0.134306,-0.134306 z m 1.516997,0.03908 a 3.8462814,3.8462814 0 0 1 0.0543,0.223104 0.13430774,0.13430774 0 0 1 -0.09391,-0.127882 0.13430774,0.13430774 0 0 1 0.03961,-0.09522 z m -0.173919,0.22953 a 0.13430774,0.13430774 0 0 1 0.134309,0.134309 0.13430774,0.13430774 0 0 1 -0.134309,0.134306 0.13430774,0.13430774 0 0 1 -0.134308,-0.134306 0.13430774,0.13430774 0 0 1 0.134308,-0.134309 z m -0.537231,0 a 0.13430774,0.13430774 0 0 1 0.134308,0.134309 0.13430774,0.13430774 0 0 1 -0.134308,0.134306 0.13430774,0.13430774 0 0 1 -0.134306,-0.134306 0.13430774,0.13430774 0 0 1 0.134306,-0.134309 z m -0.53723,0 a 0.13430774,0.13430774 0 0 1 0.134306,0.134309 0.13430774,0.13430774 0 0 1 -0.134306,0.134306 0.13430774,0.13430774 0 0 1 -0.134308,-0.134306 0.13430774,0.13430774 0 0 1 0.134308,-0.134309 z m 1.344256,0.268615 a 3.8462814,3.8462814 0 0 1 0.02137,0.266648 0.13430774,0.13430774 0 0 1 -0.02256,0.002 0.13430774,0.13430774 0 0 1 -0.134306,-0.134308 0.13430774,0.13430774 0 0 1 0.134306,-0.134309 0.13430774,0.13430774 0 0 1 0.0013,0 z m -0.538409,0 a 0.13430774,0.13430774 0 0 1 0.134306,0.134309 0.13430774,0.13430774 0 0 1 -0.134306,0.134308 0.13430774,0.13430774 0 0 1 -0.134309,-0.134308 0.13430774,0.13430774 0 0 1 0.134309,-0.134309 z m -0.537232,0 a 0.13430774,0.13430774 0 0 1 0.134309,0.134309 0.13430774,0.13430774 0 0 1 -0.134309,0.134308 0.13430774,0.13430774 0 0 1 -0.134309,-0.134308 0.13430774,0.13430774 0 0 1 0.134309,-0.134309 z m -0.537232,0 a 0.13430774,0.13430774 0 0 1 0.134309,0.134309 0.13430774,0.13430774 0 0 1 -0.134309,0.134308 0.13430774,0.13430774 0 0 1 -0.134306,-0.134308 0.13430774,0.13430774 0 0 1 0.134306,-0.134309 z m 1.343078,0.268617 a 0.13430774,0.13430774 0 0 1 0.134309,0.134306 0.13430774,0.13430774 0 0 1 -0.134309,0.134309 0.13430774,0.13430774 0 0 1 -0.134308,-0.134309 0.13430774,0.13430774 0 0 1 0.134308,-0.134306 z m -0.537231,0 a 0.13430774,0.13430774 0 0 1 0.134308,0.134306 0.13430774,0.13430774 0 0 1 -0.134308,0.134309 0.13430774,0.13430774 0 0 1 -0.134306,-0.134309 0.13430774,0.13430774 0 0 1 0.134306,-0.134306 z m -0.53723,0 a 0.13430774,0.13430774 0 0 1 0.134306,0.134306 0.13430774,0.13430774 0 0 1 -0.134306,0.134309 0.13430774,0.13430774 0 0 1 -0.134308,-0.134309 0.13430774,0.13430774 0 0 1 0.134308,-0.134306 z m 1.343076,0.268615 a 0.13430774,0.13430774 0 0 1 0.02964,0.0034 3.8462814,3.8462814 0 0 1 -0.01548,0.264419 0.13430774,0.13430774 0 0 1 -0.01416,7.61e-4 0.13430774,0.13430774 0 0 1 -0.134307,-0.134306 0.13430774,0.13430774 0 0 1 0.134307,-0.134308 z m -0.537229,0 a 0.13430774,0.13430774 0 0 1 0.134306,0.134308 0.13430774,0.13430774 0 0 1 -0.134306,0.134306 0.13430774,0.13430774 0 0 1 -0.134309,-0.134306 0.13430774,0.13430774 0 0 1 0.134309,-0.134308 z m -0.537232,0 a 0.13430774,0.13430774 0 0 1 0.134309,0.134308 0.13430774,0.13430774 0 0 1 -0.134309,0.134306 0.13430774,0.13430774 0 0 1 -0.134309,-0.134306 0.13430774,0.13430774 0 0 1 0.134309,-0.134308 z m -0.537232,0 a 0.13430774,0.13430774 0 0 1 0.134309,0.134308 0.13430774,0.13430774 0 0 1 -0.134309,0.134306 0.13430774,0.13430774 0 0 1 -0.134306,-0.134306 0.13430774,0.13430774 0 0 1 0.134306,-0.134308 z m 1.343078,0.268614 a 0.13430774,0.13430774 0 0 1 0.134309,0.134309 0.13430774,0.13430774 0 0 1 -0.134309,0.134309 0.13430774,0.13430774 0 0 1 -0.134308,-0.134309 0.13430774,0.13430774 0 0 1 0.134308,-0.134309 z m -0.537231,0 a 0.13430774,0.13430774 0 0 1 0.134308,0.134309 0.13430774,0.13430774 0 0 1 -0.134308,0.134309 0.13430774,0.13430774 0 0 1 -0.134306,-0.134309 0.13430774,0.13430774 0 0 1 0.134306,-0.134309 z m -0.53723,0 a 0.13430774,0.13430774 0 0 1 0.134306,0.134309 0.13430774,0.13430774 0 0 1 -0.134306,0.134309 0.13430774,0.13430774 0 0 1 -0.134308,-0.134309 0.13430774,0.13430774 0 0 1 0.134308,-0.134309 z m 0.805847,0.268618 a 0.13430774,0.13430774 0 0 1 0.134306,0.134306 0.13430774,0.13430774 0 0 1 -0.134306,0.134308 0.13430774,0.13430774 0 0 1 -0.134309,-0.134308 0.13430774,0.13430774 0 0 1 0.134309,-0.134306 z m -0.537232,0 a 0.13430774,0.13430774 0 0 1 0.134309,0.134306 0.13430774,0.13430774 0 0 1 -0.134309,0.134308 0.13430774,0.13430774 0 0 1 -0.134309,-0.134308 0.13430774,0.13430774 0 0 1 0.134309,-0.134306 z m -0.537232,0 a 0.13430774,0.13430774 0 0 1 0.134309,0.134306 0.13430774,0.13430774 0 0 1 -0.134309,0.134308 0.13430774,0.13430774 0 0 1 -0.134306,-0.134308 0.13430774,0.13430774 0 0 1 0.134306,-0.134306 z m 1.593068,0.0015 a 3.8462814,3.8462814 0 0 1 -0.05128,0.247368 0.13430774,0.13430774 0 0 1 -0.0644,-0.114504 0.13430774,0.13430774 0 0 1 0.115681,-0.132864 z m -0.24999,0.267173 a 0.13430774,0.13430774 0 0 1 0.134309,0.134308 0.13430774,0.13430774 0 0 1 -0.134309,0.134306 0.13430774,0.13430774 0 0 1 -0.134308,-0.134306 0.13430774,0.13430774 0 0 1 0.134308,-0.134308 z m -0.537231,0 a 0.13430774,0.13430774 0 0 1 0.134308,0.134308 0.13430774,0.13430774 0 0 1 -0.134308,0.134306 0.13430774,0.13430774 0 0 1 -0.134306,-0.134306 0.13430774,0.13430774 0 0 1 0.134306,-0.134308 z m -0.53723,0 a 0.13430774,0.13430774 0 0 1 0.134306,0.134308 0.13430774,0.13430774 0 0 1 -0.134306,0.134306 0.13430774,0.13430774 0 0 1 -0.134308,-0.134306 0.13430774,0.13430774 0 0 1 0.134308,-0.134308 z m 0.805847,0.268614 a 0.13430774,0.13430774 0 0 1 0.134306,0.134309 0.13430774,0.13430774 0 0 1 -0.134306,0.134308 0.13430774,0.13430774 0 0 1 -0.134309,-0.134308 0.13430774,0.13430774 0 0 1 0.134309,-0.134309 z m -0.537232,0 a 0.13430774,0.13430774 0 0 1 0.134309,0.134309 0.13430774,0.13430774 0 0 1 -0.134309,0.134308 0.13430774,0.13430774 0 0 1 -0.134309,-0.134308 0.13430774,0.13430774 0 0 1 0.134309,-0.134309 z m -0.537232,0 a 0.13430774,0.13430774 0 0 1 0.134309,0.134309 0.13430774,0.13430774 0 0 1 -0.134309,0.134308 0.13430774,0.13430774 0 0 1 -0.134306,-0.134308 0.13430774,0.13430774 0 0 1 0.134306,-0.134309 z m 1.343078,0.268617 a 0.13430774,0.13430774 0 0 1 0.02781,0.003 3.8462814,3.8462814 0 0 1 -0.107288,0.239365 0.13430774,0.13430774 0 0 1 -0.05482,-0.108075 0.13430774,0.13430774 0 0 1 0.134308,-0.134306 z m -0.537231,0 a 0.13430774,0.13430774 0 0 1 0.134308,0.134306 0.13430774,0.13430774 0 0 1 -0.134308,0.134309 0.13430774,0.13430774 0 0 1 -0.134306,-0.134309 0.13430774,0.13430774 0 0 1 0.134306,-0.134306 z m -0.53723,0 a 0.13430774,0.13430774 0 0 1 0.134306,0.134306 0.13430774,0.13430774 0 0 1 -0.134306,0.134309 0.13430774,0.13430774 0 0 1 -0.134308,-0.134309 0.13430774,0.13430774 0 0 1 0.134308,-0.134306 z m 0.805847,0.268615 a 0.13430774,0.13430774 0 0 1 0.12906,0.09745 3.8462814,3.8462814 0 0 1 -0.09575,0.166834 0.13430774,0.13430774 0 0 1 -0.03332,0.0043 0.13430774,0.13430774 0 0 1 -0.134309,-0.134309 0.13430774,0.13430774 0 0 1 0.134309,-0.134306 z m -0.537232,0 a 0.13430774,0.13430774 0 0 1 0.134309,0.134309 0.13430774,0.13430774 0 0 1 -0.134309,0.134306 0.13430774,0.13430774 0 0 1 -0.134309,-0.134306 0.13430774,0.13430774 0 0 1 0.134309,-0.134309 z m -0.537232,0 a 0.13430774,0.13430774 0 0 1 0.134309,0.134309 0.13430774,0.13430774 0 0 1 -0.134309,0.134306 0.13430774,0.13430774 0 0 1 -0.134306,-0.134306 0.13430774,0.13430774 0 0 1 0.134306,-0.134309 z m 0.805847,0.268615 a 0.13430774,0.13430774 0 0 1 0.134308,0.134308 0.13430774,0.13430774 0 0 1 -0.134308,0.134309 0.13430774,0.13430774 0 0 1 -0.134306,-0.134309 0.13430774,0.13430774 0 0 1 0.134306,-0.134308 z m -0.53723,0 a 0.13430774,0.13430774 0 0 1 0.134306,0.134308 0.13430774,0.13430774 0 0 1 -0.134306,0.134309 0.13430774,0.13430774 0 0 1 -0.134308,-0.134309 0.13430774,0.13430774 0 0 1 0.134308,-0.134308 z m 0.268615,0.268617 a 0.13430774,0.13430774 0 0 1 0.134309,0.134306 0.13430774,0.13430774 0 0 1 -0.134309,0.134308 0.13430774,0.13430774 0 0 1 -0.134309,-0.134308 0.13430774,0.13430774 0 0 1 0.134309,-0.134306 z m -0.537232,0 a 0.13430774,0.13430774 0 0 1 0.134309,0.134306 0.13430774,0.13430774 0 0 1 -0.134309,0.134308 0.13430774,0.13430774 0 0 1 -0.134306,-0.134308 0.13430774,0.13430774 0 0 1 0.134306,-0.134306 z m 0.268617,0.268614 a 0.13430774,0.13430774 0 0 1 0.134306,0.134309 0.13430774,0.13430774 0 0 1 -0.134306,0.134306 0.13430774,0.13430774 0 0 1 -0.134308,-0.134306 0.13430774,0.13430774 0 0 1 0.134308,-0.134309 z m -0.268617,0.268615 a 0.13430774,0.13430774 0 0 1 0.134309,0.134309 0.13430774,0.13430774 0 0 1 -0.134309,0.134308 0.13430774,0.13430774 0 0 1 -0.134306,-0.134308 0.13430774,0.13430774 0 0 1 0.134306,-0.134309 z"
       id="circle5826-3-2" />
    <path
       id="path1273-6-6"
       d="m 26.21812,16.219976 c 1.148579,-7e-6 2.295137,0.336227 3.261749,0.956625 0.361359,0.231967 0.579859,0.63186 0.579869,1.061268 v 8.438522 c -1.2e-5,0.428395 -0.217492,0.827491 -0.577478,1.059725 -0.96582,0.622951 -2.112452,0.961794 -3.261747,0.963954 -0.0013,0 -0.0026,0 -0.0039,0 -1.385648,-0.0015 -2.480766,-0.498069 -3.549839,-1.379604 -0.290468,-0.239566 -0.458706,-0.596387 -0.458711,-0.972904 v -7.77639 c 5e-6,-0.376727 0.168429,-0.733726 0.459175,-0.97329 1.069302,-0.880946 2.16439,-1.376766 3.549839,-1.377906 h 0.001 z"
       style="opacity:0.96;fill:url(#radialGradient5900-2-8);stroke-width:0.0671538;stroke-linejoin:bevel" />
    <path
       id="path1280-1-1"
       d="m 24.959637,16.372196 v 12.175312 c -0.831073,-0.20947 -1.568071,-0.629401 -2.292805,-1.227001 -0.29047,-0.239569 -0.458662,-0.596428 -0.458667,-0.972945 v -7.776339 c 5e-6,-0.376728 0.168314,-0.733775 0.459061,-0.973338 0.724698,-0.597045 1.46166,-1.016542 2.292411,-1.225689 z"
       style="opacity:0.96;fill:url(#radialGradient5902-7-6);stroke-width:0.0671538;stroke-linejoin:bevel" />
    <path
       style="color:#000000;opacity:0.44352;fill:url(#radialGradient6953-8-4);fill-opacity:0.987395;stroke-width:5;stroke-linecap:round;stroke-linejoin:bevel;filter:url(#filter7035-3-1)"
       d="M 196.96289,5.2148438 A 2.50025,2.50025 0 0 0 194.5,7.75 v 121.5 a 2.50025,2.50025 0 1 0 5,0 V 7.75 a 2.50025,2.50025 0 0 0 -2.53711,-2.5351562 z"
       id="path6136-0-0"
       transform="matrix(-0.06715387,0,0,0.06715387,35.881191,17.734947)" />
    <path
       style="opacity:0.17952;fill:url(#radialGradient6690-1-2);fill-opacity:0.987395;stroke-width:0.25381;stroke-linecap:round;stroke-linejoin:bevel"
       d="m 29.821624,18.087573 a 0.16788509,0.16788509 0 0 1 0.168048,0.16805 v 8.159097 a 0.16788509,0.16788509 0 0 1 -0.168048,0.167553 0.16788509,0.16788509 0 0 1 -0.167555,-0.167553 v -8.159097 a 0.16788509,0.16788509 0 0 1 0.167555,-0.16805 z"
       id="path6614-6-6" />
  </g>
</svg>
