<?xml version="1.0" encoding="UTF-8" standalone="no"?>
<svg
   width="128"
   height="128"
   version="1"
   id="svg20"
   xml:space="preserve"
   xmlns:xlink="http://www.w3.org/1999/xlink"
   xmlns="http://www.w3.org/2000/svg"
   xmlns:svg="http://www.w3.org/2000/svg"><defs
     id="defs24"><linearGradient
       id="linearGradient100"><stop
         style="stop-color:#005570;stop-opacity:1;"
         offset="0"
         id="stop99" /><stop
         style="stop-color:#006b85;stop-opacity:1;"
         offset="1"
         id="stop100" /></linearGradient><linearGradient
       id="linearGradient96"><stop
         style="stop-color:#005570;stop-opacity:1;"
         offset="0"
         id="stop95" /><stop
         style="stop-color:#006b85;stop-opacity:1;"
         offset="1"
         id="stop96" /></linearGradient><linearGradient
       id="linearGradient94"><stop
         style="stop-color:#005570;stop-opacity:1;"
         offset="0"
         id="stop93" /><stop
         style="stop-color:#006b85;stop-opacity:1;"
         offset="1"
         id="stop94" /></linearGradient><linearGradient
       id="linearGradient92"><stop
         style="stop-color:#333333;stop-opacity:1;"
         offset="0"
         id="stop81" /><stop
         style="stop-color:#666666;stop-opacity:1;"
         offset="0.01880069"
         id="stop82" /><stop
         style="stop-color:#333333;stop-opacity:1;"
         offset="0.04592577"
         id="stop83" /><stop
         style="stop-color:#333333;stop-opacity:1;"
         offset="0.15462986"
         id="stop84" /><stop
         style="stop-color:#666666;stop-opacity:1;"
         offset="0.19824456"
         id="stop85" /><stop
         style="stop-color:#333333;stop-opacity:1;"
         offset="0.21859363"
         id="stop86" /><stop
         style="stop-color:#333333;stop-opacity:1;"
         offset="0.76214409"
         id="stop87" /><stop
         style="stop-color:#666666;stop-opacity:1;"
         offset="0.78282362"
         id="stop88" /><stop
         style="stop-color:#333333;stop-opacity:1;"
         offset="0.8250488"
         id="stop89" /><stop
         style="stop-color:#333333;stop-opacity:1;"
         offset="0.95213604"
         id="stop90" /><stop
         style="stop-color:#666666;stop-opacity:1;"
         offset="0.98650259"
         id="stop91" /><stop
         style="stop-color:#333333;stop-opacity:1;"
         offset="1"
         id="stop92" /></linearGradient><linearGradient
       id="linearGradient57"><stop
         style="stop-color:#007199;stop-opacity:1;"
         offset="0"
         id="stop56" /><stop
         style="stop-color:#0096cc;stop-opacity:1;"
         offset="1"
         id="stop57" /></linearGradient><linearGradient
       id="linearGradient1"><stop
         style="stop-color:#00a2d6;stop-opacity:1;"
         offset="0"
         id="stop1" /><stop
         style="stop-color:#00bdeb;stop-opacity:1;"
         offset="1"
         id="stop2" /></linearGradient><linearGradient
       xlink:href="#linearGradient1"
       id="linearGradient2"
       x1="-130.55963"
       y1="62.360351"
       x2="-23.469122"
       y2="62.360351"
       gradientUnits="userSpaceOnUse"
       gradientTransform="translate(141.01346)" /><linearGradient
       xlink:href="#linearGradient1"
       id="linearGradient38"
       x1="-130.30978"
       y1="62.479492"
       x2="-25.030046"
       y2="62.479492"
       gradientUnits="userSpaceOnUse"
       gradientTransform="translate(141.01346)" /><linearGradient
       xlink:href="#linearGradient57"
       id="linearGradient55"
       gradientUnits="userSpaceOnUse"
       x1="-130.55963"
       y1="62.360351"
       x2="-23.469122"
       y2="62.360351"
       gradientTransform="translate(141.01346,4)" /><linearGradient
       xlink:href="#linearGradient94"
       id="linearGradient93"
       gradientUnits="userSpaceOnUse"
       x1="-130.30978"
       y1="62.479492"
       x2="-25.030046"
       y2="62.479492"
       gradientTransform="translate(141.01346,4)" /><linearGradient
       xlink:href="#linearGradient96"
       id="linearGradient95"
       gradientUnits="userSpaceOnUse"
       x1="-130.30978"
       y1="62.479492"
       x2="-25.030046"
       y2="62.479492"
       gradientTransform="translate(141.01346,4)" /><linearGradient
       xlink:href="#linearGradient100"
       id="linearGradient99"
       gradientUnits="userSpaceOnUse"
       x1="-130.30978"
       y1="62.479492"
       x2="-25.030046"
       y2="62.479492"
       gradientTransform="translate(141.01346,4)" /><linearGradient
       xlink:href="#linearGradient1"
       id="linearGradient101"
       gradientUnits="userSpaceOnUse"
       x1="-130.30978"
       y1="62.479492"
       x2="-25.030046"
       y2="62.479492"
       gradientTransform="translate(141.01346)" /><linearGradient
       xlink:href="#linearGradient1"
       id="linearGradient104"
       gradientUnits="userSpaceOnUse"
       x1="-130.30978"
       y1="62.479492"
       x2="-25.030046"
       y2="62.479492"
       gradientTransform="translate(141.01346)" /><linearGradient
       xlink:href="#linearGradient92"
       id="linearGradient105"
       gradientUnits="userSpaceOnUse"
       x1="91.095695"
       y1="243.59801"
       x2="349.75037"
       y2="243.59801"
       gradientTransform="matrix(0.30398463,0,0,0.30398463,-2.36936,-1.1620578)" /></defs><g
     id="layer4"
     style="display:inline"
     transform="translate(-173.85041,104.70951)" /><g
     id="layer5"
     style="display:inline"
     transform="translate(-173.85041,104.70951)" /><rect
     style="opacity:0.577869;fill:#ffffff;fill-opacity:1;fill-rule:nonzero;stroke:none;stroke-width:3.632;stroke-linecap:round;stroke-linejoin:round;stroke-miterlimit:4;stroke-dasharray:none;stroke-dashoffset:4;stroke-opacity:1"
     id="rect1327"
     width="1"
     height="0"
     x="-260.31979"
     y="43.176838" /><rect
     style="opacity:0.577869;fill:#ffffff;fill-opacity:1;fill-rule:nonzero;stroke:none;stroke-width:3.632;stroke-linecap:round;stroke-linejoin:round;stroke-miterlimit:4;stroke-dasharray:none;stroke-dashoffset:4;stroke-opacity:1"
     id="rect2482"
     width="1"
     height="0"
     x="-295.44662"
     y="15.649226" /><g
     style="opacity:0.401639"
     transform="matrix(-0.782995,0,0,0.650879,-2777.2426,628.95083)"
     id="g4640" /><g
     id="g4646"
     transform="matrix(-0.782995,0,0,0.650879,-2777.2426,628.95083)"
     style="opacity:0.401639" /><g
     id="g4730"
     transform="matrix(1,0,0,0.650879,423.72039,636.27863)"
     style="opacity:0.401639" /><g
     style="opacity:0.401639"
     transform="matrix(1,0,0,0.650879,423.72039,636.27863)"
     id="g4748" /><g
     id="g2777"
     style="display:inline"
     transform="translate(-312.06761,94.106617)" /><g
     id="g2779"
     style="display:inline"
     transform="translate(-312.06761,94.106617)" /><rect
     style="opacity:0.577869;fill:#ffffff;fill-opacity:1;fill-rule:nonzero;stroke:none;stroke-width:3.632;stroke-linecap:round;stroke-linejoin:round;stroke-miterlimit:4;stroke-dasharray:none;stroke-dashoffset:4;stroke-opacity:1"
     id="rect2823"
     width="1"
     height="0"
     x="-398.53699"
     y="32.573948" /><rect
     style="opacity:0.577869;fill:#ffffff;fill-opacity:1;fill-rule:nonzero;stroke:none;stroke-width:3.632;stroke-linecap:round;stroke-linejoin:round;stroke-miterlimit:4;stroke-dasharray:none;stroke-dashoffset:4;stroke-opacity:1"
     id="rect2547"
     width="1"
     height="0"
     x="-227.91158"
     y="-93.532982" /><rect
     y="-130.51389"
     x="-25.371443"
     height="0"
     width="1"
     id="rect3367"
     style="opacity:0.577869;fill:#ffffff;fill-opacity:1;fill-rule:nonzero;stroke:none;stroke-width:3.632;stroke-linecap:round;stroke-linejoin:round;stroke-miterlimit:4;stroke-dasharray:none;stroke-dashoffset:4;stroke-opacity:1" /><path
     id="path96"
     style="fill:#006b85;fill-opacity:1;stroke-width:0.303985"
     d="m 71.556429,96.128906 c 3.571212,2.374424 7.057897,4.526444 10.416015,6.429684 l -0.234375,-0.69921 -1.917968,-5.730474 h -5.992188 -1.416015 z" /><path
     id="path95"
     style="fill:url(#linearGradient95);stroke-width:0.303985"
     d="m 61.59549,82.791016 h 1.32227 10.49218 0.58789 c 0.4648,-0.397916 0.9284,-0.801389 1.39258,-1.205078 l -0.12695,-0.384766 -2.21094,-6.648438 -0.42187,-1.261718 c -0.33712,0.304897 -0.66961,0.609165 -1.00977,0.914062 -3.35447,3.008232 -6.71409,5.879866 -10.02539,8.585938 z" /><path
     id="path94"
     style="fill:#006b85;fill-opacity:1;stroke-width:0.303985"
     d="m 54.75174,73.207031 -0.25781,0.777344 h -0.002 l -2.08203,6.261719 -0.41406,1.238281 c 0.52437,0.435914 1.04901,0.871943 1.58007,1.306641 h 0.71875 1.21485 9.94531 1.25781 C 64.06645,80.784717 61.3861,78.679319 58.6931,76.482422 57.34645,75.383517 56.03816,74.292864 54.75169,73.207031 Z" /><path
     id="path92"
     style="fill:url(#linearGradient93);stroke-width:0.303985"
     d="m 56.845491,96.128906 h -0.662109 -8.449219 l -2.234375,6.890624 -0.173828,0.54102 c 3.710437,-2.18018 7.573507,-4.668727 11.519531,-7.431644 z" /><path
     id="path43"
     style="fill:url(#linearGradient104);stroke-width:0.303985"
     d="m 56.845491,92.128906 h -0.662109 -8.449219 l -2.234375,6.890625 -0.173828,0.541016 c 3.710437,-2.180178 7.573507,-4.668724 11.519531,-7.431641 z" /><path
     id="path47"
     style="fill:url(#linearGradient101);stroke-width:0.303985"
     d="m 61.59549,78.791016 h 1.32227 10.49218 0.58789 c 0.4648,-0.397916 0.9284,-0.801389 1.39258,-1.205078 l -0.12695,-0.384766 -2.21094,-6.648438 -0.42187,-1.261718 c -0.33712,0.304897 -0.66961,0.609165 -1.00977,0.914062 -3.35447,3.008232 -6.71409,5.879866 -10.02539,8.585938 z" /><path
     id="path11-2"
     style="fill:#00bdeb;fill-opacity:1;stroke-width:0.303985"
     d="m 54.75174,69.207031 -0.25781,0.777344 h -0.002 l -2.08204,6.261719 -0.41406,1.238281 c 0.52438,0.435914 1.04902,0.871943 1.58008,1.306641 h 0.71875 1.21484 9.94532 1.25781 C 64.06644,76.784717 61.3861,74.679319 58.6931,72.482422 57.34644,71.383517 56.03815,70.292864 54.75169,69.207031 Z" /><path
     id="path12-0"
     style="fill:#00bdeb;fill-opacity:1;stroke-width:0.303985"
     d="m 71.556429,92.128906 c 3.571212,2.374424 7.057897,4.52644 10.416015,6.429688 l -0.234375,-0.699219 -1.917968,-5.730469 h -5.992188 -1.416015 z" /><path
     d="m 102.92696,109.13451 c 0.41711,1.25059 1.02242,0.5849 1.02242,0.5849 l -0.0149,3.17661 c -0.006,0.90353 -0.061,1.61689 -0.5449,2.08259 -0.48577,0.46024 -1.34362,0.74568 -2.57506,0.85542 C 99.582513,115.94285 97.886279,116 95.731028,116 c -2.244319,0 -3.993446,-0.0328 -5.248599,-0.10001 -1.253329,-0.066 -2.212704,-0.19698 -2.871743,-0.39548 -0.662686,-0.19638 -1.123223,-0.47148 -1.387386,-0.82593 -0.264162,-0.34989 -0.484551,-0.81407 -0.659646,-1.38404 L 79.820472,96.128527 H 47.734299 l -5.413967,16.701823 c -0.176615,0.6177 -0.407947,1.13326 -0.691869,1.55093 -0.288177,0.42041 -0.75145,0.74902 -1.388905,0.99251 -0.638368,0.23863 -1.540594,0.40491 -2.705768,0.49216 -1.166997,0.0894 -2.697863,0.13375 -4.588952,0.13375 -2.023017,0 -3.609209,-0.0663 -4.753103,-0.19881 -1.146326,-0.1298 -1.938206,-0.44989 -2.376552,-0.95573 C 25.375317,114.33751 25.329385,112.69 25.329385,112.69 l -0.0071,-3.07017 c 0,0 0.654524,0.45226 1.020569,-0.61847 L 52.6856,33.211004 c 0.264163,-0.74993 0.571491,-1.355771 0.924722,-1.816916 0.351102,-0.46388 0.911649,-0.812551 1.682858,-1.057562 0.767866,-0.240452 1.837588,-0.395484 3.200655,-0.462361 1.363979,-0.06597 3.169343,-0.09819 5.415486,-0.09819 2.594509,0 4.663732,0.03222 6.205542,0.09819 1.539986,0.06688 2.740118,0.222213 3.597962,0.462361 0.858453,0.245315 1.474934,0.608577 1.849443,1.089784 0.372989,0.487288 0.692173,1.143591 0.956335,1.981068 z M 63.711123,46.479629 h -0.06718 L 51.562377,82.791809 H 75.79208 Z"
     id="path14"
     style="fill:url(#linearGradient105);fill-opacity:1;stroke-width:0.303985" /><path
     d="m 102.92696,105.13451 c 0.52833,1.58406 0.85967,2.8383 0.99099,3.76151 0.13193,0.92563 -0.0444,1.61689 -0.52832,2.08259 -0.48577,0.46024 -1.34361,0.74568 -2.57506,0.85542 C 99.582525,111.94285 97.886291,112 95.73104,112 c -2.244319,0 -3.993446,-0.0328 -5.248599,-0.10001 -1.253328,-0.066 -2.212704,-0.19698 -2.871743,-0.39548 -0.662686,-0.19638 -1.123223,-0.47148 -1.387385,-0.82593 -0.264163,-0.34989 -0.484552,-0.81407 -0.659647,-1.38404 L 79.820484,92.128527 H 47.734299 l -5.413967,16.701823 c -0.176615,0.6177 -0.407947,1.13326 -0.691869,1.55093 -0.288177,0.42041 -0.75145,0.74902 -1.388905,0.99251 -0.638368,0.23863 -1.540594,0.40491 -2.705768,0.49216 -1.166997,0.0894 -2.697863,0.13375 -4.588952,0.13375 -2.023017,0 -3.609209,-0.0663 -4.753103,-0.19881 -1.146326,-0.1298 -1.938206,-0.44989 -2.376552,-0.95573 -0.439866,-0.50765 -0.593682,-1.22201 -0.462361,-2.14734 0.132234,-0.92442 0.462361,-2.15282 0.990078,-3.69646 L 52.6856,29.211004 c 0.264163,-0.74993 0.571491,-1.355771 0.924722,-1.816916 0.351102,-0.46388 0.911649,-0.812551 1.682858,-1.057562 0.767866,-0.240452 1.837588,-0.395484 3.200655,-0.462361 1.363979,-0.06597 3.169343,-0.09819 5.415486,-0.09819 2.594509,0 4.663732,0.03222 6.205542,0.09819 1.539986,0.06688 2.740118,0.222213 3.597962,0.462361 0.858453,0.245315 1.474934,0.608577 1.849443,1.089784 0.372989,0.487288 0.692173,1.143591 0.956335,1.981068 z M 63.711123,42.479629 h -0.06718 L 51.562377,78.791809 H 75.79208 Z"
     id="path1"
     style="stroke-width:0.303985" /><path
     id="path99"
     style="fill:url(#linearGradient99);stroke-width:0.303985"
     d="m 90.491976,16 c -2.687224,0 -5.265736,0.828402 -7.458985,2.394531 -2.796963,1.995963 -4.648521,4.961093 -5.214843,8.34961 -0.26712,1.598852 -0.221288,3.198692 0.101562,4.738281 -0.567611,0.353867 -1.147419,0.734476 -1.720703,1.101562 -8.897193,5.69707 -18.437825,12.948479 -27.691406,21.248047 -1.49886,1.344219 -2.961705,2.695022 -4.396485,4.048828 C 24.08809,76.773855 10.5568,96.243533 10.70487,106.32617 c 0.0347,2.3653 0.79794,4.1962 2.26953,5.43945 1.40228,1.18432 3.40069,1.78516 5.9414,1.78516 1.88531,0 4.01088,-0.35884 6.41328,-0.99478 l -0.002,-0.97866 -4.2e-4,-0.18142 -0.002,-0.99786 c -0.001,-0.49037 0.013,-0.44556 -0.002,-0.77823 -0.0199,-0.44625 0.0525,-1.04171 0.0525,-1.04171 l 0.46875,-1.96093 0.26842,-0.90799 0.23094,-0.70783 c -2.42854,0.94327 -3.05266,1.3404 -4.62244,1.3404 -0.97944,0 -1.72009,-0.20668 -2.20312,-0.61524 -0.48212,-0.40795 -0.72295,-1.02362 -0.73633,-1.88086 -0.0736,-5.066559 7.47281,-15.951124 19.24804,-28.464841 4.764494,-5.063275 10.201108,-10.385459 16.136724,-15.708984 2.390164,-2.143785 4.781557,-4.217629 7.15625,-6.210937 1.238357,-1.039474 2.471157,-2.053314 3.697265,-3.046876 4.769381,-3.864809 9.42067,-7.364621 13.800782,-10.408203 0.948277,-0.658923 1.889762,-1.30523 2.810547,-1.919921 2.370003,2.291529 5.537034,3.613281 8.896484,3.613281 2.687224,0 5.266472,-0.8281 7.460937,-2.394531 2.795751,-1.995051 4.648521,-4.959141 5.214841,-8.347657 0.1897,-1.134178 0.15947,-2.265439 0.0156,-3.376953 0.29364,-0.02864 0.57519,-0.04492 0.8418,-0.04492 0.97974,0 1.72114,0.208025 2.20508,0.617188 0.48212,0.407948 0.72191,1.02167 0.73437,1.878906 0.0778,5.325507 -8.235736,17.069889 -21.060544,30.388672 l 0.310547,0.892578 0.140625,0.404297 2.367188,6.785156 0.132812,0.382813 C 105.38892,52.047637 116.11448,35.614922 115.98256,26.632784 c -0.0356,-2.366216 -0.7996,-4.195852 -2.27149,-5.439453 -1.40106,-1.184932 -3.39844,-1.785156 -5.93945,-1.785156 -2.11638,0 -4.61174,0.446324 -7.37305,1.244141 C 97.966933,17.724591 94.331475,16 90.491976,16 Z" /><path
     id="path45"
     style="fill:url(#linearGradient38);stroke-width:0.303985"
     d="m 90.491976,12 c -2.687224,0 -5.265736,0.828402 -7.458985,2.394531 -2.796963,1.995963 -4.648521,4.961093 -5.214843,8.34961 -0.26712,1.598852 -0.221288,3.198692 0.101562,4.738281 -0.567611,0.353867 -1.147419,0.734476 -1.720703,1.101562 -8.897193,5.69707 -18.437825,12.948479 -27.691406,21.248047 -1.49886,1.344219 -2.961705,2.695022 -4.396485,4.048828 C 24.08809,72.773855 10.5568,92.243533 10.70487,102.32617 c 0.0347,2.3653 0.79794,4.1962 2.26953,5.43945 1.40228,1.18432 3.40069,1.78516 5.9414,1.78516 1.88531,0 4.05659,-0.33672 6.45899,-0.97266 0.0453,-0.28986 0.1286,-0.63713 0.21094,-0.98437 0.006,-0.0236 0.0138,-0.0523 0.0195,-0.0762 0.0682,-0.28311 0.14598,-0.57964 0.23828,-0.90039 0.1379,-0.49225 0.29531,-1.01677 0.5,-1.61524 l 0.92383,-2.66015 0.17187,-0.49414 0.33008,-0.95508 c -2.42854,0.94327 -4.47905,1.44922 -6.04883,1.44922 -0.97944,0 -1.72009,-0.20668 -2.20312,-0.61524 -0.48212,-0.40795 -0.72295,-1.02362 -0.73633,-1.880857 -0.0736,-5.066562 7.47281,-15.951127 19.24804,-28.464844 4.764494,-5.063275 10.201108,-10.385459 16.136724,-15.708984 2.390164,-2.143785 4.781557,-4.217629 7.15625,-6.210937 1.238357,-1.039474 2.471157,-2.053314 3.697265,-3.046876 4.769381,-3.864809 9.42067,-7.364621 13.800782,-10.408203 0.948277,-0.658923 1.889762,-1.30523 2.810547,-1.919921 2.370003,2.291529 5.537034,3.613281 8.896484,3.613281 2.687224,0 5.266472,-0.8281 7.460937,-2.394531 2.795741,-1.995051 4.648521,-4.959141 5.214841,-8.347657 0.1897,-1.134178 0.15947,-2.265439 0.0156,-3.376953 0.29364,-0.02864 0.57519,-0.04492 0.8418,-0.04492 0.97974,0 1.72113,0.208025 2.20508,0.617188 0.48212,0.407948 0.72191,1.02167 0.73437,1.878906 0.0778,5.325507 -8.235736,17.069889 -21.060544,30.388672 l 0.310547,0.892578 0.140625,0.404297 2.367188,6.785156 0.132812,0.382813 C 105.38855,48.047637 116.11411,31.614922 115.98219,22.632784 c -0.0356,-2.366216 -0.7996,-4.195852 -2.27149,-5.439453 -1.40106,-1.184932 -3.39844,-1.785156 -5.93945,-1.785156 -2.11638,0 -4.61174,0.446324 -7.37305,1.244141 C 97.966933,13.724591 94.331475,12 90.491976,12 Z" /><path
     id="path53"
     style="fill:url(#linearGradient55);fill-opacity:1;stroke-width:0.303985"
     d="m 18.85916,20.332031 c -3.58459,0 -6.07295,1.100427 -7.39258,3.271485 -2.49914,4.107151 -0.25132,11.489829 5.54883,20.511718 -2.07137,3.229703 -2.43584,7.418091 -0.59375,11.095704 1.92057,3.832334 5.77897,6.21289 10.07032,6.21289 h 0.002 c 1.2622,0 2.4903,-0.21343 3.66797,-0.626953 1.70488,1.864171 1.55101,1.784525 3.43718,3.685981 l 0.85742,-0.875 c -0.004,-0.004 -0.0117,-0.01172 -0.0117,-0.01172 l 3.79423,-3.967877 c 0.005,0.0045 0.009,0.0091 0.0137,0.01367 L 39.077,58.802085 c -1.7091,-1.660002 -1.3458,-1.249233 -2.87009,-2.829433 1.92073,-3.194994 2.13271,-7.258749 0.33594,-10.845703 -1.92058,-3.832638 -5.77762,-6.21289 -10.06836,-6.212891 -1.31398,0 -2.59041,0.227934 -3.8125,0.673829 -3.00321,-4.665329 -4.15499,-8.085547 -3.16992,-9.705079 0.4426,-0.727434 1.36969,-1.095703 2.75586,-1.095703 5.18733,0 15.38774,4.930641 27.478511,12.935547 4.010276,2.655074 8.221055,5.638463 12.537109,8.908203 1.261737,0.955863 2.529297,1.934472 3.804688,2.935547 1.422853,1.116823 2.850792,2.253138 4.283203,3.421875 8.158773,6.657925 15.205451,13.107991 21.019531,19.009766 13.427818,13.630352 20.183338,24.299657 18.181638,27.589847 -0.4429,0.72774 -1.37103,1.0957 -2.75781,1.0957 -1.53867,0 -4.07615,-1.19086 -4.07615,-1.19086 l 1.12851,4.97513 0.11107,0.87147 -0.0163,1.96838 c 0.0192,0.0693 -0.0156,0.0864 -6.9e-4,0.14901 1.99444,0.43379 3.56716,0.93195 5.19925,0.93195 h 0.002 c 3.58246,0 6.06816,-1.10073 7.38867,-3.27148 4.8783,-8.01864 -8.28187,-28.495428 -30.822262,-49.355475 C 82.09456,56.416938 78.26329,53.062786 74.20096,49.748047 66.786881,43.698243 59.404276,38.395734 52.411898,33.998047 38.75109,25.406414 26.6115,20.332031 18.85916,20.332031 Z" /><path
     id="path50"
     style="fill:url(#linearGradient2);fill-opacity:1;stroke-width:0.303985"
     d="m 18.85916,16.332031 c -3.58459,0 -6.07295,1.100427 -7.39258,3.271485 -2.49914,4.107151 -0.25132,11.489829 5.54883,20.511718 -2.07137,3.229703 -2.43584,7.418091 -0.59375,11.095704 1.92057,3.832334 5.77897,6.21289 10.07032,6.21289 h 0.002 c 1.2622,0 2.4903,-0.21343 3.66797,-0.626953 1.70488,1.864171 3.47906,3.746981 5.36523,5.648437 l 0.85742,-0.875 c -0.004,-0.004 -0.008,-0.0077 -0.0117,-0.01172 l 3.83007,-3.904297 c 0.005,0.0045 0.009,0.0091 0.0137,0.01367 l 0.824224,-0.839844 C 39.33179,55.168119 37.7312,53.552852 36.20691,51.972652 c 1.92073,-3.194994 2.13271,-7.258749 0.33594,-10.845703 -1.92058,-3.832638 -5.77762,-6.21289 -10.06836,-6.212891 -1.31398,0 -2.59041,0.227934 -3.8125,0.673829 -3.00321,-4.665329 -4.15499,-8.085547 -3.16992,-9.705079 0.4426,-0.727434 1.36969,-1.095703 2.75586,-1.095703 5.18733,0 15.38774,4.930641 27.478511,12.935547 4.010276,2.655074 8.221055,5.638463 12.537109,8.908203 1.261737,0.955863 2.529297,1.934472 3.804688,2.935547 1.422853,1.116823 2.850792,2.253138 4.283203,3.421875 8.158773,6.657925 15.205451,13.107991 21.019531,19.009766 13.427818,13.630352 20.183338,24.299654 18.181638,27.589844 -0.4429,0.727743 -1.37103,1.095703 -2.75781,1.095703 -1.53867,0 -3.51924,-0.43646 -5.85547,-1.251953 l 1.98828,5.703133 c 0.30527,0.91529 0.52607,1.68799 0.69922,2.38281 0.0192,0.0693 0.0398,0.14245 0.0547,0.20508 1.99444,0.43379 3.82689,0.66601 5.45898,0.66601 h 0.002 c 3.58246,0 6.06817,-1.10073 7.38868,-3.27148 C 121.40947,97.098547 108.2493,76.621762 85.708911,55.761715 82.09456,52.416938 78.26329,49.062786 74.20096,45.748047 66.786881,39.698243 59.404276,34.395734 52.411898,29.998047 38.75109,21.406414 26.6115,16.332031 18.85916,16.332031 Z" /><path
     fill="#ffffff"
     d="m 96.194008,30.745411 h -9.976775 v -1.950669 l 4.604759,-5.208169 c 0.687613,-0.810119 1.175509,-1.496212 1.465206,-2.057976 0.290305,-0.56146 0.434698,-1.076713 0.434698,-1.546674 0,-0.612833 -0.1526,-1.10316 -0.460233,-1.470677 -0.3052,-0.367518 -0.765433,-0.551428 -1.377962,-0.551428 -0.646575,0 -1.146934,0.235284 -1.50138,0.705244 -0.353838,0.469048 -0.530757,1.065162 -0.530757,1.786822 h -2.900318 l -0.02006,-0.06201 c -0.03374,-1.32051 0.401868,-2.438565 1.30683,-3.354471 0.905571,-0.915601 2.120901,-1.373402 3.645992,-1.373402 1.525091,0 2.709111,0.389708 3.553276,1.169429 0.843558,0.779416 1.2664,1.825731 1.2664,3.139553 0,0.892803 -0.236804,1.705962 -0.710108,2.440996 -0.473304,0.735035 -1.288287,1.75308 -2.446164,3.053526 l -2.451028,2.940443 0.02189,0.05107 h 6.075436 v 2.288396 z"
     id="path101"
     style="fill:#006b85;fill-opacity:1;stroke-width:0.303985" /><path
     fill="#ffffff"
     d="m 96.194008,31.745573 h -9.976775 v -1.950669 l 4.604759,-5.208169 c 0.687613,-0.810119 1.175509,-1.496212 1.465206,-2.057976 0.290305,-0.561459 0.434698,-1.076713 0.434698,-1.546673 0,-0.612833 -0.1526,-1.103161 -0.460233,-1.470678 -0.3052,-0.367517 -0.765433,-0.551428 -1.377962,-0.551428 -0.646575,0 -1.146934,0.235284 -1.50138,0.705244 -0.353838,0.469048 -0.530757,1.065162 -0.530757,1.786822 h -2.900318 l -0.02006,-0.06201 c -0.03374,-1.320509 0.401868,-2.438565 1.30683,-3.35447 0.905571,-0.915602 2.120901,-1.373403 3.645992,-1.373403 1.525091,0 2.709111,0.389708 3.553276,1.169429 0.843558,0.779416 1.2664,1.825732 1.2664,3.139553 0,0.892803 -0.236804,1.705962 -0.710108,2.440997 -0.473304,0.735035 -1.288287,1.753079 -2.446164,3.053525 l -2.451028,2.940444 0.02189,0.05107 h 6.075436 v 2.288396 z"
     id="path21"
     style="stroke-width:0.303985" /></svg>
