<?xml version="1.0" encoding="UTF-8" standalone="no"?>
<svg
   viewBox="0 0 128 128"
   style="display:inline;enable-background:new"
   version="1.0"
   id="svg11300"
   height="128"
   width="128"
   xml:space="preserve"
   xmlns:xlink="http://www.w3.org/1999/xlink"
   xmlns="http://www.w3.org/2000/svg"
   xmlns:svg="http://www.w3.org/2000/svg"
   xmlns:rdf="http://www.w3.org/1999/02/22-rdf-syntax-ns#"
   xmlns:cc="http://creativecommons.org/ns#"
   xmlns:dc="http://purl.org/dc/elements/1.1/"><title
     id="title4162">Adwaita Icon Template</title><defs
     id="defs3"><linearGradient
       id="linearGradient15"><stop
         style="stop-color:#1c61de;stop-opacity:1;"
         offset="0.47437942"
         id="stop15" /><stop
         style="stop-color:#1752bb;stop-opacity:1;"
         offset="1"
         id="stop16" /></linearGradient><linearGradient
       id="linearGradient13"><stop
         style="stop-color:#1c61de;stop-opacity:1;"
         offset="0.55582809"
         id="stop13" /><stop
         style="stop-color:#1752bb;stop-opacity:1;"
         offset="1"
         id="stop14" /></linearGradient><linearGradient
       id="linearGradient11"><stop
         style="stop-color:#1b5fda;stop-opacity:1;"
         offset="0.67122495"
         id="stop11" /><stop
         style="stop-color:#1752bc;stop-opacity:1;"
         offset="1"
         id="stop12" /></linearGradient><linearGradient
       id="linearGradient974"><stop
         style="stop-color:#0f3a84;stop-opacity:1;"
         offset="0"
         id="stop962" /><stop
         id="stop964"
         offset="0.04166667"
         style="stop-color:#4d8af4;stop-opacity:1;" /><stop
         style="stop-color:#103a84;stop-opacity:1;"
         offset="0.08333334"
         id="stop966" /><stop
         id="stop968"
         offset="0.91666669"
         style="stop-color:#103a84;stop-opacity:1;" /><stop
         style="stop-color:#4d8af4;stop-opacity:1;"
         offset="0.95833331"
         id="stop970" /><stop
         style="stop-color:#103a84;stop-opacity:1;"
         offset="1"
         id="stop972" /></linearGradient><linearGradient
       y2="44"
       x2="464"
       y1="44"
       x1="48"
       gradientTransform="matrix(0.25,0,0,0.25,0,53)"
       gradientUnits="userSpaceOnUse"
       id="linearGradient1747"
       xlink:href="#linearGradient974" /><linearGradient
       xlink:href="#linearGradient11"
       id="linearGradient12"
       x1="-149.70703"
       y1="139.33008"
       x2="-45.710938"
       y2="139.33008"
       gradientUnits="userSpaceOnUse"
       gradientTransform="translate(161.72658,-104.37305)" /><linearGradient
       xlink:href="#linearGradient13"
       id="linearGradient14"
       x1="-130.03418"
       y1="165.61328"
       x2="-130.03418"
       y2="205.0332"
       gradientUnits="userSpaceOnUse"
       gradientTransform="translate(161.76169,-104.373)" /><linearGradient
       xlink:href="#linearGradient15"
       id="linearGradient16"
       x1="-148.65235"
       y1="200.13416"
       x2="-46.83594"
       y2="200.13416"
       gradientUnits="userSpaceOnUse"
       gradientTransform="translate(161.72658,-104.37305)" /></defs><metadata
     id="metadata4"><rdf:RDF><cc:Work
         rdf:about=""><dc:format>image/svg+xml</dc:format><dc:type
           rdf:resource="http://purl.org/dc/dcmitype/StillImage" /><dc:creator><cc:Agent><dc:title>GNOME Design Team</dc:title></cc:Agent></dc:creator><dc:source /><cc:license
           rdf:resource="http://creativecommons.org/licenses/by-sa/4.0/" /><dc:title>Adwaita Icon Template</dc:title><dc:subject><rdf:Bag /></dc:subject><dc:date /><dc:rights><cc:Agent><dc:title /></cc:Agent></dc:rights><dc:publisher><cc:Agent><dc:title /></cc:Agent></dc:publisher><dc:identifier /><dc:relation /><dc:language /><dc:coverage /><dc:description /><dc:contributor><cc:Agent><dc:title /></cc:Agent></dc:contributor></cc:Work><cc:License
         rdf:about="http://creativecommons.org/licenses/by-sa/4.0/"><cc:permits
           rdf:resource="http://creativecommons.org/ns#Reproduction" /><cc:permits
           rdf:resource="http://creativecommons.org/ns#Distribution" /><cc:requires
           rdf:resource="http://creativecommons.org/ns#Notice" /><cc:requires
           rdf:resource="http://creativecommons.org/ns#Attribution" /><cc:permits
           rdf:resource="http://creativecommons.org/ns#DerivativeWorks" /><cc:requires
           rdf:resource="http://creativecommons.org/ns#ShareAlike" /></cc:License></rdf:RDF></metadata><path
     id="rect1709"
     style="display:inline;fill:url(#linearGradient1747);stroke-width:0.25;marker:none;marker-start:none;marker-mid:none;marker-end:none;enable-background:new"
     d="m 20,64 h 88 c 4.432,0 8,3.568 8,8 v 35.99999 c 0,4.432 -3.568,8 -8,8 H 20 c -4.432,0 -8,-3.568 -8,-8 V 72 c 0,-4.432 3.568,-8 8,-8 z" /><style
     type="text/css"
     id="style1">
	.st0{fill:#0061FF;}
	.st1{display:none;}
	.st2{display:inline;}
	.st3{fill:none;}
</style><path
     id="path11"
     style="fill:url(#linearGradient12);fill-opacity:1;stroke-width:0.821659"
     d="M 12.01955,53.88867 64.018551,62.45075 116.01755,53.89067 67.441424,17.12109 c -0.962436,-0.73003 -2.216625,-1.0957 -3.472656,-1.0957 -1.256029,0 -2.512168,0.36567 -3.474608,1.0957 z" /><path
     id="rect2"
     style="fill:#154fb4;fill-opacity:1;stroke-width:0.821659"
     d="m 12.01955,53.88867 -0.002,0.002 -0.0351,47.88601 h 104.0015 l 0.0336,-47.88601 -0.002,-0.002 z" /><path
     id="rect5"
     style="fill:#ffffff;stroke-width:1.18465"
     d="m 44.091258,41.796352 h 39.797556 c 4.429421,0 7.995345,3.565924 7.995345,7.995345 v 39.546775 c 0,4.429421 -3.565924,7.995345 -7.995345,7.995345 H 44.091258 c -4.429421,0 -7.995345,-3.565924 -7.995345,-7.995345 V 49.791697 c 0,-4.429421 3.565924,-7.995345 7.995345,-7.995345 z" /><path
     d="M 62.395962,76.32401 C 60.81236,76.03734 58.98957,75.40769 58.20818,74.87742 58.00809,74.74164 57.8116,74.63048 57.77154,74.63041 c -0.0401,-7e-5 -0.20783,-0.11621 -0.3728,-0.25809 -0.16498,-0.14188 -0.33322,-0.25796 -0.37387,-0.25796 -0.10192,0 -1.85546,-1.76175 -1.85546,-1.86415 0,-0.0454 -0.0581,-0.14398 -0.12922,-0.21901 -0.6327,-0.66794 -1.48685,-2.66704 -1.84604,-4.32055 -0.23106,-1.06366 -0.2354,-1.2103 -0.27154,-9.18821 l -0.0367,-8.10729 0.31051,-0.27667 c 0.78164,-0.69644 2.48595,-1.71115 3.86207,-2.29939 0.69165,-0.29566 2.35131,-0.66938 2.97264,-0.66938 h 0.60254 l 0.0337,9.31707 c 0.0364,10.06146 0.016,9.68622 0.58644,10.80204 0.28952,0.56632 0.577341,0.85657 1.154138,1.1639 0.382948,0.20405 0.603579,0.24117 1.433361,0.24117 1.134476,0 1.608029,-0.18641 2.32909,-0.91684 0.607766,-0.61565 0.806532,-1.10408 0.852583,-2.09502 0.03629,-0.78097 0.01505,-0.89208 -0.28242,-1.47747 -0.176916,-0.34815 -0.427828,-0.73916 -0.557583,-0.86891 -0.921849,-0.92185 -2.167248,-1.14027 -3.339517,-0.58569 -0.350087,0.16562 -0.663667,0.27398 -0.696845,0.2408 -0.120059,-0.12006 -0.06659,-8.26875 0.05475,-8.34374 0.23963,-0.1481 3.426269,-0.0799 4.174557,0.0893 1.165906,0.26368 2.476693,0.76909 3.193287,1.23125 0.112623,0.0726 0.414589,0.268 0.671035,0.43415 0.575096,0.3726 2.640261,2.43712 2.734317,2.73347 0.03777,0.11901 0.106381,0.21638 0.152463,0.21638 0.15168,0 1.229549,2.3068 1.444843,3.09218 0.467753,1.70634 0.489976,4.08366 0.05439,5.81839 -0.553259,2.20336 -1.756253,4.06361 -3.651006,5.64574 -0.666676,0.55667 -0.768211,0.62944 -1.301101,0.93252 -1.912933,1.08798 -3.253749,1.45192 -5.523136,1.49916 -0.823309,0.0171 -1.613066,0.0101 -1.755016,-0.0156 z"
     style="fill:#1d62e1;fill-opacity:1"
     id="path1-2" /><path
     id="path10"
     style="fill:url(#linearGradient14);fill-opacity:1;stroke-width:1.94478"
     d="m 12.01755,53.89067 v 50.10938 c 0,1.47484 0.40317,2.84935 1.09375,4.0332 L 54.08912,87.6404 Z" /><path
     id="path9"
     style="fill:#1f6bf1;fill-opacity:1;stroke-width:1.95018"
     d="m 114.89064,108.0332 c 0.69037,-1.18372 1.0918,-2.5586 1.0918,-4.0332 l 0.035,-50.10957 -41.937277,33.20728 z" /><path
     id="path8"
     style="fill:url(#linearGradient16);stroke-width:0.775254"
     d="m 13.1113,108.03325 c 1.38454,2.37417 3.91362,3.96674 6.87114,3.96675 h 88 c 2.9574,-1e-5 5.52363,-1.59278 6.9082,-3.9668 L 67.714859,80.42969 c -2.067796,-1.20996 -5.397044,-1.20997 -7.464849,0 z" /></svg>
