<?xml version="1.0" encoding="UTF-8" standalone="no"?>
<svg
   viewBox="0 0 128 128"
   style="display:inline;enable-background:new"
   version="1.0"
   id="svg11300"
   height="128"
   width="128"
   xml:space="preserve"
   xmlns:xlink="http://www.w3.org/1999/xlink"
   xmlns="http://www.w3.org/2000/svg"
   xmlns:svg="http://www.w3.org/2000/svg"
   xmlns:rdf="http://www.w3.org/1999/02/22-rdf-syntax-ns#"
   xmlns:cc="http://creativecommons.org/ns#"
   xmlns:dc="http://purl.org/dc/elements/1.1/"><title
     id="title4162">Adwaita Icon Template</title><defs
     id="defs3"><linearGradient
       id="linearGradient21"><stop
         style="stop-color:#cdab8f;stop-opacity:1;"
         offset="0"
         id="stop21" /><stop
         style="stop-color:#dcc4b2;stop-opacity:1;"
         offset="0.10444498"
         id="stop20" /><stop
         style="stop-color:#cdaa8e;stop-opacity:1;"
         offset="0.20303553"
         id="stop19" /></linearGradient><linearGradient
       id="linearGradient7"><stop
         style="stop-color:#cdaa8e;stop-opacity:1;"
         offset="0.79696447"
         id="stop9" /><stop
         style="stop-color:#dcc4b2;stop-opacity:1;"
         offset="0.89555502"
         id="stop17" /><stop
         style="stop-color:#cdab8f;stop-opacity:1;"
         offset="1"
         id="stop16" /></linearGradient><linearGradient
       gradientUnits="userSpaceOnUse"
       y2="268"
       x2="115.82323"
       y1="268"
       x1="11.823223"
       id="linearGradient1329"
       xlink:href="#linearGradient1357"
       gradientTransform="translate(0.176777,-172)" /><linearGradient
       id="linearGradient1357"><stop
         id="stop1345"
         offset="0"
         style="stop-color:#b5835a;stop-opacity:1;" /><stop
         style="stop-color:#cdab8f;stop-opacity:1"
         offset="0.02884588"
         id="stop1347" /><stop
         id="stop1349"
         offset="0.05769204"
         style="stop-color:#b5835a;stop-opacity:1" /><stop
         style="stop-color:#b5835a;stop-opacity:1"
         offset="0.94230765"
         id="stop1351" /><stop
         id="stop1353"
         offset="0.97133332"
         style="stop-color:#cdab8f;stop-opacity:1" /><stop
         id="stop1355"
         offset="1"
         style="stop-color:#986a44;stop-opacity:1" /></linearGradient><linearGradient
       xlink:href="#linearGradient7"
       id="linearGradient16"
       x1="12"
       y1="24.111328"
       x2="62.748047"
       y2="24.111328"
       gradientUnits="userSpaceOnUse" /><linearGradient
       xlink:href="#linearGradient21"
       id="linearGradient19"
       x1="65.251953"
       y1="24"
       x2="116"
       y2="24"
       gradientUnits="userSpaceOnUse" /></defs><metadata
     id="metadata4"><rdf:RDF><cc:Work
         rdf:about=""><dc:format>image/svg+xml</dc:format><dc:type
           rdf:resource="http://purl.org/dc/dcmitype/StillImage" /><dc:creator><cc:Agent><dc:title>GNOME Design Team</dc:title></cc:Agent></dc:creator><dc:source /><cc:license
           rdf:resource="http://creativecommons.org/licenses/by-sa/4.0/" /><dc:title>Adwaita Icon Template</dc:title><dc:subject><rdf:Bag /></dc:subject><dc:date /><dc:rights><cc:Agent><dc:title /></cc:Agent></dc:rights><dc:publisher><cc:Agent><dc:title /></cc:Agent></dc:publisher><dc:identifier /><dc:relation /><dc:language /><dc:coverage /><dc:description /><dc:contributor><cc:Agent><dc:title /></cc:Agent></dc:contributor></cc:Work><cc:License
         rdf:about="http://creativecommons.org/licenses/by-sa/4.0/"><cc:permits
           rdf:resource="http://creativecommons.org/ns#Reproduction" /><cc:permits
           rdf:resource="http://creativecommons.org/ns#Distribution" /><cc:requires
           rdf:resource="http://creativecommons.org/ns#Notice" /><cc:requires
           rdf:resource="http://creativecommons.org/ns#Attribution" /><cc:permits
           rdf:resource="http://creativecommons.org/ns#DerivativeWorks" /><cc:requires
           rdf:resource="http://creativecommons.org/ns#ShareAlike" /></cc:License></rdf:RDF></metadata><path
     id="rect1000-3-4"
     style="display:inline;fill:url(#linearGradient1329);stroke-width:32;stroke-linejoin:round;stroke-dasharray:4, 2;enable-background:new"
     d="m 20.176777,24.699556 h 88.000003 c 4.432,0 8,3.568 8,8 l 0,75.300444 c 0,4.432 -3.568,8 -8,8 H 20.176777 c -4.432,0 -8,-3.568 -8,-8 l 0,-75.300444 c 0,-4.432 3.568,-8 8,-8 z" /><path
     d="m 20.176779,14 h 88.000001 c 4.41797,0 8,3.58203 8,8 v 16 c 0,4.41797 -3.58203,8 -8,8 H 20.176779 c -4.41797,0 -8,-3.58203 -8,-8 V 22 c 0,-4.41797 3.58203,-8 8,-8 z"
     fill="#f6f5f4"
     id="path7"
     style="display:inline;opacity:0.1;fill:#000000;fill-opacity:1;enable-background:new" /><path
     d="m 20.176779,12 h 88.000001 c 4.41797,0 8,3.58203 8,8 v 16 c 0,4.41797 -3.58203,8 -8,8 H 20.176779 c -4.41797,0 -8,-3.58203 -8,-8 V 20 c 0,-4.41797 3.58203,-8 8,-8 z"
     fill="#f6f5f4"
     id="path3"
     style="display:inline;opacity:1;fill:#865e3c;fill-opacity:1;enable-background:new" /><path
     id="path16-0-2"
     style="stroke-width:1.77471;stroke-linecap:round;stroke-linejoin:round"
     d="M 51.04578,78.755856 A 6.9856303,6.895866 0 0 1 44.06015,85.65173 6.9856303,6.895866 0 0 1 37.07452,78.755856 6.9856303,6.895866 0 0 1 44.06015,71.86 a 6.9856303,6.895866 0 0 1 6.98563,6.895856 z" /><path
     id="path17-9-9"
     style="fill:#ffffff;stroke-width:2.91355;stroke-linecap:round;stroke-linejoin:round"
     d="m 44.36544,76.264051 a 2.4414813,2.491802 0 0 1 -2.44149,2.491805 2.4414813,2.491802 0 0 1 -2.44148,-2.491805 2.4414813,2.491802 0 0 1 2.44148,-2.491806 2.4414813,2.491802 0 0 1 2.44149,2.491806 z" /><path
     id="path18-3-3"
     style="fill:#ffffff;stroke-width:1.77471;stroke-linecap:round;stroke-linejoin:round"
     d="m 48.26856,81.555005 a 1.1090681,1.1486377 0 0 1 -1.10907,1.148632 1.1090681,1.1486377 0 0 1 -1.10906,-1.148632 1.1090681,1.1486377 0 0 1 1.10906,-1.148649 1.1090681,1.1486377 0 0 1 1.10907,1.148649 z" /><path
     id="ellipse19-06-1"
     style="stroke-width:1.77471;stroke-linecap:round;stroke-linejoin:round"
     d="m 90.925476,78.755856 a 6.9856303,6.895866 0 0 1 -6.985629,6.895874 6.9856303,6.895866 0 0 1 -6.98563,-6.895874 6.9856303,6.895866 0 0 1 6.98563,-6.895856 6.9856303,6.895866 0 0 1 6.985629,6.895856 z" /><path
     id="ellipse20-2-9"
     style="fill:#ffffff;stroke-width:2.91355;stroke-linecap:round;stroke-linejoin:round"
     d="m 84.245136,76.264051 a 2.4414813,2.491802 0 0 1 -2.441481,2.491805 2.4414813,2.491802 0 0 1 -2.441481,-2.491805 2.4414813,2.491802 0 0 1 2.441481,-2.491806 2.4414813,2.491802 0 0 1 2.441481,2.491806 z" /><path
     id="ellipse21-6-4"
     style="fill:#ffffff;stroke-width:1.77471;stroke-linecap:round;stroke-linejoin:round"
     d="m 88.148262,81.555005 a 1.1090681,1.1486377 0 0 1 -1.109067,1.148632 1.1090681,1.1486377 0 0 1 -1.10907,-1.148632 1.1090681,1.1486377 0 0 1 1.10907,-1.148649 1.1090681,1.1486377 0 0 1 1.109067,1.148649 z" /><path
     style="stroke-linecap:round;stroke-linejoin:round"
     d="m 54.171875,80.828125 a 1.7747051,1.7747051 0 0 0 -1.146484,0.728516 1.7747051,1.7747051 0 0 0 0.433593,2.472656 c 6.994366,4.907033 14.428759,4.447232 21.048828,0.02344 a 1.7747051,1.7747051 0 0 0 0.490235,-2.46289 1.7747051,1.7747051 0 0 0 -2.460938,-0.488282 c -5.784532,3.865456 -11.016969,4.247772 -17.041015,0.02148 a 1.7747051,1.7747051 0 0 0 -1.324219,-0.294922 z"
     id="path21-1-7" /><path
     id="path22-8-8"
     style="fill:#f66151;fill-opacity:1;stroke-width:3.54941;stroke-linecap:round;stroke-linejoin:round"
     d="m 39.03246,87.553009 a 4.6499906,2.588181 0 0 1 -4.64999,2.588194 4.6499906,2.588181 0 0 1 -4.64999,-2.588194 4.6499906,2.588181 0 0 1 4.64999,-2.588176 4.6499906,2.588181 0 0 1 4.64999,2.588176 z" /><path
     id="ellipse22-7-4"
     style="fill:#f66151;fill-opacity:1;stroke-width:3.54941;stroke-linecap:round;stroke-linejoin:round"
     d="m 98.267511,87.553009 a 4.6499906,2.588181 0 0 1 -4.649982,2.588194 4.6499906,2.588181 0 0 1 -4.65,-2.588194 4.6499906,2.588181 0 0 1 4.65,-2.588176 4.6499906,2.588181 0 0 1 4.649982,2.588176 z" /><path
     id="path6"
     style="display:inline;fill:url(#linearGradient19);fill-opacity:1;enable-background:new"
     d="m 67.251953,4 v 8 8 16 c 0,4.41797 3.582031,8 8,8 H 108 c 4.41797,0 8,-3.58203 8,-8 V 20 c 0,-4.41797 -3.58203,-8 -8,-8 H 99.861328 75.251953 c -4.41797,0 -8,-3.58203 -8,-8 z" /><path
     id="path23-0"
     style="display:inline;fill:url(#linearGradient16);fill-opacity:1;enable-background:new"
     d="M 60.748047,4.2226562 C 60.629075,8.5367719 57.102609,12 52.759766,12 H 28.138672 20 c -4.417969,0 -8,3.58203 -8,8 v 16 c 0,4.41797 3.582031,8 8,8 h 32.748047 c 4.41797,0 8,-3.635905 8,-8 V 20 12 Z" /></svg>
