<?xml version="1.0" encoding="UTF-8" standalone="no"?>
<svg
   width="128"
   height="128"
   version="1.1"
   id="svg12"
   xml:space="preserve"
   xmlns:xlink="http://www.w3.org/1999/xlink"
   xmlns="http://www.w3.org/2000/svg"
   xmlns:svg="http://www.w3.org/2000/svg"><defs
     id="defs16"><linearGradient
       id="linearGradient17"><stop
         style="stop-color:#cc4400;stop-opacity:1;"
         offset="0.19896883"
         id="stop16" /><stop
         style="stop-color:#cc1900;stop-opacity:1;"
         offset="0.804308"
         id="stop17" /></linearGradient><linearGradient
       id="linearGradient3"><stop
         style="stop-color:#000000;stop-opacity:1;"
         offset="0.12742332"
         id="stop2" /><stop
         style="stop-color:#ffffff;stop-opacity:1;"
         offset="0.15835986"
         id="stop4" /><stop
         style="stop-color:#000000;stop-opacity:1;"
         offset="0.19797795"
         id="stop5" /><stop
         style="stop-color:#000000;stop-opacity:1;"
         offset="0.46795276"
         id="stop6" /><stop
         style="stop-color:#ffffff;stop-opacity:1;"
         offset="0.50178176"
         id="stop7" /><stop
         style="stop-color:#000000;stop-opacity:1;"
         offset="0.53193039"
         id="stop8" /><stop
         style="stop-color:#000000;stop-opacity:1;"
         offset="0.80339247"
         id="stop9" /><stop
         style="stop-color:#ffffff;stop-opacity:1;"
         offset="0.84350598"
         id="stop10" /><stop
         style="stop-color:#000000;stop-opacity:1;"
         offset="0.87419569"
         id="stop3" /></linearGradient><linearGradient
       id="linearGradient892"><stop
         style="stop-color:#ff5500;stop-opacity:1;"
         offset="0.19896883"
         id="stop888" /><stop
         style="stop-color:#ff2000;stop-opacity:1;"
         offset="0.804308"
         id="stop890" /></linearGradient><linearGradient
       xlink:href="#linearGradient892"
       id="linearGradient894"
       x1="8"
       y1="32"
       x2="56"
       y2="32"
       gradientUnits="userSpaceOnUse"
       gradientTransform="matrix(2.1071428,0,0,2.1071428,-4.285713,-5.4285707)" /><linearGradient
       xlink:href="#linearGradient17"
       id="linearGradient1004"
       gradientUnits="userSpaceOnUse"
       gradientTransform="matrix(2.1071428,0,0,2.1071428,-4.2855552,-1.4285699)"
       x1="8"
       y1="32"
       x2="56"
       y2="32" /><linearGradient
       xlink:href="#linearGradient3"
       id="linearGradient10"
       gradientUnits="userSpaceOnUse"
       gradientTransform="matrix(2.1071428,0,0,2.1071428,-4.28586,-1.4285715)"
       x1="8"
       y1="32"
       x2="56"
       y2="32" /></defs><path
     style="fill:url(#linearGradient1004);fill-opacity:1;stroke-width:2.10715"
     d="m 44.482159,7.000001 -9.928858,10.101221 c -0.130643,0.0434 -1.102035,-0.766579 -2.159822,-1.077594 -2.836213,-0.832953 -6.437321,-0.690931 -8.883712,0.420587 -1.599323,0.727175 -2.220931,1.238788 -6.02643,4.979178 -2.059917,2.023199 -4.914608,0.94982 -4.911907,1.853643 l 0.0062,2.066294 c 0,0 -0.006,1.692044 -0.006,1.933706 0,0.22125 1.482375,2.385285 2.212077,4.079428 l 1.323918,3.080642 -1.701307,4.667322 c -0.495087,1.35845 -1.799692,0.409879 -1.800096,0.9855 l -0.0014,2.05396 c 0,0 0.01585,1.902079 0.0016,1.94604 -0.144971,0.448821 13.136982,51.599717 13.830232,53.247499 1.260073,2.992143 3.240787,5.674533 5.805179,7.870173 2.317856,1.98493 25.827249,18.03083 28.155642,19.21715 0.689036,0.34978 1.797393,0.55207 2.745607,0.57525 0.948215,-0.0232 2.056573,-0.22547 2.745607,-0.57525 2.328393,-1.18632 25.837782,-17.23222 28.155647,-19.21715 2.564385,-2.19564 4.545097,-4.87803 5.80517,-7.870173 0.693264,-1.647782 13.974584,-52.798678 13.829184,-53.247499 -0.0104,-0.03247 0.003,-1.9559 0.003,-1.9559 l -0.003,-2.0441 c -7.6e-4,-0.495013 -1.23159,0.572857 -1.79967,-0.9855 l -1.70046,-4.667322 1.32328,-3.080642 c 0.73118,-1.694143 2.2125,-3.858178 2.2125,-4.079428 0,-0.186703 -0.004,-1.952899 -0.004,-1.952899 l 0.004,-2.047101 c 10e-4,-0.736111 -2.52513,0.489907 -4.91158,-1.853643 -3.8055,-3.74039 -4.42711,-4.252003 -6.02643,-4.979178 -2.4464,-1.111518 -6.047505,-1.25354 -8.883723,-0.420587 -1.057782,0.311015 -2.029177,1.121 -2.159824,1.077594 L 81.803871,7.000001 H 63.143015 Z"
     id="path4-7" /><path
     style="opacity:0.2;fill:url(#linearGradient10);fill-opacity:1;stroke-width:2.10715"
     d="M 44.481859,6.9999985 34.553001,17.101221 c -0.130643,0.0434 -1.102035,-0.766582 -2.159822,-1.077592 -2.836213,-0.83296 -6.437321,-0.69093 -8.883712,0.42058 -1.599323,0.72718 -2.220931,1.238793 -6.02643,4.979183 -2.059917,2.023199 -4.914607,0.94982 -4.911907,1.853643 l 0.006,2.066294 c 0,0 -0.006,1.692044 -0.006,1.933706 0,0.22125 1.48237,2.385285 2.212077,4.079428 l 1.323918,3.080642 -1.701305,4.667322 c -0.49509,1.35845 -1.79969,0.409879 -1.8001,0.9855 l -10e-4,2.05396 c 0,0 0.0159,1.902079 0.002,1.94604 -0.14497,0.448821 13.136984,51.599715 13.830234,53.247495 1.260073,2.992148 3.240787,5.674538 5.805179,7.870178 2.317856,1.98493 25.827249,18.03083 28.155642,19.21715 0.689036,0.34978 1.797393,0.55207 2.745607,0.57525 0.948215,-0.0232 2.056573,-0.22547 2.745607,-0.57525 2.328393,-1.18632 25.837782,-17.23222 28.155647,-19.21715 2.564385,-2.19564 4.545097,-4.87803 5.80517,-7.870178 0.693264,-1.64778 13.974584,-52.798676 13.829184,-53.247496 -0.0104,-0.03247 0.003,-1.9559 0.003,-1.9559 l -0.003,-2.0441 c -7.6e-4,-0.495013 -1.23159,0.572857 -1.79967,-0.9855 l -1.70046,-4.667322 1.32328,-3.080641 c 0.73118,-1.694144 2.2125,-3.858179 2.2125,-4.079428 0,-0.186703 -0.004,-1.9529 -0.004,-1.9529 l 0.004,-2.0471 c 10e-4,-0.736111 -2.52513,0.489907 -4.91158,-1.853643 -3.8055,-3.740391 -4.42711,-4.252004 -6.02643,-4.979184 -2.4464,-1.111509 -6.047505,-1.25354 -8.883723,-0.42058 -1.057782,0.31101 -2.029177,1.120998 -2.159824,1.077592 L 81.803571,6.9999985 H 63.142715 Z"
     id="path4-7-1" /><path
     style="fill:url(#linearGradient894);fill-opacity:1;stroke-width:2.10715"
     d="M 44.482001,3.0000006 34.553144,13.101222 c -0.130643,0.0434 -1.102036,-0.766579 -2.159822,-1.077594 -2.836214,-0.832953 -6.437321,-0.690931 -8.883714,0.420587 -1.599322,0.727175 -2.220929,1.238788 -6.026428,4.979178 -4.101975,4.028857 -4.91175,4.996035 -4.91175,5.853643 0,0.22125 1.482375,2.385285 2.212078,4.079428 l 1.323918,3.080643 -1.701307,4.667321 c -0.935361,2.5665 -1.742608,4.8085 -1.799921,4.9855 -0.144972,0.448821 13.136981,51.599714 13.830231,53.2475 1.260072,2.992143 3.240787,5.674531 5.805179,7.870182 2.317857,1.98492 25.827249,18.03082 28.155642,19.21714 0.689036,0.34978 1.797393,0.55207 2.745608,0.57525 0.948214,-0.0232 2.056571,-0.22547 2.745607,-0.57525 2.328393,-1.18632 25.837785,-17.23222 28.155642,-19.21714 2.564392,-2.195651 4.545105,-4.878039 5.805178,-7.870182 0.693245,-1.647786 13.974575,-52.798679 13.829175,-53.2475 -0.0569,-0.177 -0.86392,-2.419 -1.7995,-4.9855 l -1.70046,-4.667321 1.32329,-3.080643 c 0.73117,-1.694143 2.2125,-3.858178 2.2125,-4.079428 0,-0.857608 -0.80915,-1.824786 -4.91175,-5.853643 -3.80551,-3.74039 -4.42711,-4.252003 -6.02643,-4.979178 -2.4464,-1.111518 -6.047503,-1.25354 -8.883717,-0.420587 -1.057786,0.311015 -2.029179,1.121 -2.159822,1.077594 L 81.803714,3.0000006 H 63.142858 Z"
     id="path4" /><path
     style="fill:#ffffff;stroke-width:2.10715"
     d="m 67.898678,92.540928 c 0,0 5.17093,-3.40725 9.775037,-6.700715 2.589678,-1.854285 2.998464,-2.326285 2.574928,-2.981607 -0.33925,-0.522571 -8.696178,-4.631499 -12.689215,-6.239249 -4.201642,-1.689929 -4.644142,-1.692037 -8.719356,-0.03372 -3.655893,1.483432 -11.877965,5.548112 -12.569107,6.213968 -0.712214,0.686929 -0.354,1.316964 1.441285,2.530679 3.700144,2.501178 10.792787,7.313893 10.792787,7.313893 4.821142,4.108928 4.448178,4.111035 9.393641,-0.101143 z M 48.512965,77.843607 c 5.015,-2.355787 5.765142,-2.842537 9.600142,-6.237143 3.221822,-2.853072 3.818143,-3.70225 3.360893,-4.783215 -0.155928,-0.364535 -2.577035,-2.598107 -5.381643,-4.962321 -6.62907,-5.586036 -6.353035,-4.797964 -3.830785,-10.860214 1.498178,-3.601107 1.890107,-4.806393 1.883785,-5.805178 -0.0085,-1.506608 -0.56682,-2.638143 -1.692035,-3.419893 -0.45725,-0.318179 -4.462928,-1.93225 -8.900571,-3.588465 -4.43975,-1.656214 -8.047179,-3.122785 -8.015572,-3.255535 0.06953,-0.307643 4.966536,-0.84075 8.521286,-0.927143 l 2.686607,-0.06743 4.943357,1.723643 c 4.311214,1.506607 4.987608,1.81425 5.312108,2.425322 0.204392,0.385607 0.36875,0.903963 0.364535,1.1505 -0.0021,0.246535 -0.802822,3.824463 -1.776322,7.95025 -1.704678,7.223285 -1.753143,7.516178 -1.308535,7.956571 0.701678,0.701678 7.59625,2.326285 9.747643,2.161928 2.459035,-0.187536 7.480357,-1.685714 7.988178,-2.187214 0.408786,-0.408786 0.330822,-0.868143 -1.338036,-7.931285 -0.975607,-4.125787 -1.776322,-7.703715 -1.778428,-7.95025 -0.0042,-0.246537 0.16225,-0.767 0.366643,-1.154715 0.3245,-0.611072 0.960857,-0.910285 4.800071,-2.252535 6.192893,-2.166143 6.066464,-2.14718 11.692535,-1.647786 2.623393,0.231786 4.873822,0.520464 5.002358,0.640571 0.139071,0.130643 -0.01685,0.316072 -0.3835,0.453036 -0.33925,0.128536 -3.959321,1.487643 -8.042965,3.017429 -4.083643,1.531892 -7.853321,3.061678 -8.377999,3.400928 -1.232679,0.794393 -1.829,1.93225 -1.837429,3.493643 -0.0063,0.98825 0.381392,2.183 1.839535,5.668214 1.015644,2.429536 1.847965,4.64625 1.847965,4.924393 0,1.127321 -0.84075,2.037607 -5.50175,5.954785 -2.678178,2.252536 -5.055036,4.425 -5.282607,4.829571 -0.227571,0.404572 -0.356107,1.024072 -0.288679,1.373858 0.118,0.600536 3.325072,3.698036 6.591143,6.367785 1.37175,1.121 9.680215,6.319322 11.011928,6.530037 1.114679,0.177 2.305215,-1.485537 4.256429,-3.099608 1.911179,-1.584572 3.051143,-3.169143 3.824464,-5.320535 0.726965,-2.02075 0.543643,-3.379858 -0.893428,-6.65225 -1.095715,-2.496965 -1.3865,-3.868715 -1.019857,-4.804286 0.08639,-0.214929 3.05325,-3.021642 6.59325,-6.237143 7.714251,-7.004142 9.555891,-8.257892 9.979431,-9.509536 0.46989,-1.388606 0.13907,-5.324749 -0.91661,-7.166393 -2.52014,-4.40393 -12.992643,-18.188858 -13.881857,-18.188858 -4.580929,0.733285 -8.413822,2.353678 -13.241285,3.0975 -0.379287,0 -1.993358,-0.394036 -3.58425,-0.878678 -6.79975,-2.060787 -9.003822,-2.218822 -10.320786,-2.218822 -1.316964,0 -3.521035,0.158035 -10.320785,2.218822 -1.590893,0.482535 -3.221822,0.878678 -3.62218,0.878678 -4.75582,-0.686928 -8.28107,-2.537 -13.205463,-3.0975 -0.767,0.507822 -7.577286,9.846678 -10.396643,13.928214 -3.314535,4.795857 -4.252215,7.520392 -4.521928,9.347286 -0.377179,2.555964 0.581571,2.985821 10.487249,11.962249 3.331393,3.017429 6.125464,5.661893 6.20975,5.872607 0.370857,0.946108 0.07797,2.372643 -1.003,4.871715 -1.483428,3.432535 -1.616178,4.384964 -0.89975,6.458393 0.777536,2.252535 2.098714,4.075213 4.092072,5.647143 1.854285,1.462357 2.570713,2.928928 3.666428,2.952106 0.389822,0.0085 2.593893,-1.972286 4.894893,-3.053249 z"
     id="path8" /></svg>
