<?xml version="1.0" encoding="UTF-8" standalone="no"?>
<svg
   height="128px"
   viewBox="0 0 128 128"
   width="128px"
   version="1.1"
   id="svg286"
   xmlns:xlink="http://www.w3.org/1999/xlink"
   xmlns="http://www.w3.org/2000/svg"
   xmlns:svg="http://www.w3.org/2000/svg">
  <defs
     id="defs290">
    <pattern
       xlink:href="#red-stripes"
       id="pattern1870"
       patternTransform="matrix(0.87499998,0,0,0.87499998,42.5625,25)" />
    <pattern
       id="red-stripes"
       width="341"
       height="90"
       patternUnits="userSpaceOnUse">
      <rect
         width="341"
         height="16"
         fill="#f00"
         id="rect2" />
      <rect
         y="16"
         width="341"
         height="16"
         fill="#d70000"
         id="rect4" />
      <rect
         y="32"
         width="341"
         height="16"
         fill="#af0000"
         id="rect6" />
      <rect
         y="48"
         width="341"
         height="16"
         fill="#870000"
         id="rect8" />
      <rect
         y="64"
         width="341"
         height="16"
         fill="#5f0000"
         id="rect10" />
    </pattern>
  </defs>
  <linearGradient
     id="a"
     gradientUnits="userSpaceOnUse"
     x1="11.999989"
     x2="115.999989"
     y1="64"
     y2="64">
    <stop
       offset="0"
       stop-color="#3d3846"
       id="stop252" />
    <stop
       offset="0.05"
       stop-color="#77767b"
       id="stop254" />
    <stop
       offset="0.1"
       stop-color="#5e5c64"
       id="stop256" />
    <stop
       offset="0.899999"
       stop-color="#504e56"
       id="stop258" />
    <stop
       offset="0.95"
       stop-color="#77767b"
       id="stop260" />
    <stop
       offset="1"
       stop-color="#3d3846"
       id="stop262" />
  </linearGradient>
  <linearGradient
     id="b"
     gradientUnits="userSpaceOnUse"
     x1="12"
     x2="112.041023"
     y1="60"
     y2="80.988281">
    <stop
       offset="0"
       stop-color="#77767b"
       id="stop265" />
    <stop
       offset="0.384443"
       stop-color="#9a9996"
       id="stop267" />
    <stop
       offset="0.720567"
       stop-color="#77767b"
       id="stop269" />
    <stop
       offset="1"
       stop-color="#68666f"
       id="stop271" />
  </linearGradient>
  <path
     d="m 20 22 h 88 c 4.417969 0 8 3.582031 8 8 v 78 c 0 4.417969 -3.582031 8 -8 8 h -88 c -4.417969 0 -8 -3.582031 -8 -8 v -78 c 0 -4.417969 3.582031 -8 8 -8 z m 0 0"
     fill="url(#a)"
     id="path274" />
  <path
     d="m 20 12 h 88 c 4.417969 0 8 3.582031 8 8 v 80 c 0 4.417969 -3.582031 8 -8 8 h -88 c -4.417969 0 -8 -3.582031 -8 -8 v -80 c 0 -4.417969 3.582031 -8 8 -8 z m 0 0"
     fill="url(#b)"
     id="path276" />
  <path
     d="m 20 14 h 88 c 3.3125 0 6 2.6875 6 6 v 80 c 0 3.3125 -2.6875 6 -6 6 h -88 c -3.3125 0 -6 -2.6875 -6 -6 v -80 c 0 -3.3125 2.6875 -6 6 -6 z m 0 0"
     fill="#241f31"
     id="path278" />
  <path
     d="m 42.5625,25 v 70 h 36.75 V 80.999999 h 6.125 V 67 h -6.125 V 53 h 6.125 V 39.000001 h -6.125 v -14 z m 12.25,14.000001 h 18.375 V 53 H 54.8125 Z M 54.8125,67 h 18.375 v 13.999999 h -18.375 z"
     id="path56"
     style="fill:url(#pattern1870);stroke-width:0.875" />
</svg>
