<?xml version="1.0" encoding="UTF-8" standalone="no"?>
<svg
   width="128"
   height="128"
   viewBox="0 0 128 128"
   version="1.1"
   id="svg29"
   xml:space="preserve"
   xmlns:xlink="http://www.w3.org/1999/xlink"
   xmlns="http://www.w3.org/2000/svg"
   xmlns:svg="http://www.w3.org/2000/svg"><defs
     id="defs15"><linearGradient
       id="linearGradient7"><stop
         style="stop-color:#989898;stop-opacity:1;"
         offset="0"
         id="stop7" /><stop
         style="stop-color:#7a7a7a;stop-opacity:1;"
         offset="1"
         id="stop8" /></linearGradient><linearGradient
       id="linearGradient5"><stop
         style="stop-color:#95d3ff;stop-opacity:1;"
         offset="0"
         id="stop5" /><stop
         style="stop-color:#b3e0ff;stop-opacity:1;"
         offset="1"
         id="stop6" /></linearGradient><linearGradient
       id="linearGradient16"
       gradientUnits="userSpaceOnUse"
       x1="0"
       y1="269.46301"
       x2="118.926"
       y2="269.46301"
       gradientTransform="matrix(1,0,0,0.98333333,120.00001,-168.03333)"><stop
         offset="0"
         stop-color="#e5a50a"
         id="stop13"
         style="stop-color:#525252;stop-opacity:1;" /><stop
         offset="0.414"
         stop-color="#fbdf9b"
         id="stop14"
         style="stop-color:#c4c4c4;stop-opacity:1;" /><stop
         offset="0.81300002"
         stop-color="#e5a50a"
         id="stop15"
         style="stop-color:#525252;stop-opacity:1;" /><stop
         offset="1"
         stop-color="#f8ca5b"
         id="stop16"
         style="stop-color:#b8b8b8;stop-opacity:1;" /></linearGradient><linearGradient
       xlink:href="#linearGradient16"
       id="linearGradient27"
       x1="13.982065"
       y1="127.25"
       x2="242.19914"
       y2="127.25"
       gradientUnits="userSpaceOnUse"
       gradientTransform="matrix(0.46365422,0,0,0.46365422,4.57653,6.9999992)" /><linearGradient
       xlink:href="#linearGradient5"
       id="linearGradient6"
       x1="74.006248"
       y1="25.189894"
       x2="63.565746"
       y2="4.1513743"
       gradientUnits="userSpaceOnUse" /><linearGradient
       xlink:href="#linearGradient7"
       id="linearGradient8"
       x1="67.356361"
       y1="102.36076"
       x2="56.033298"
       y2="66.650475"
       gradientUnits="userSpaceOnUse" /></defs><path
     id="path18"
     clip-path="none"
     mask="none"
     style="fill:url(#linearGradient27);fill-opacity:1;stroke-width:0.463654"
     d="M 69.48842,7 C 49.48262,6.99743 30.86547,17.231792 20.14858,34.125 9.43169,51.018209 8.10472,72.220439 16.631,90.318361 c -0.0363,-0.466816 -0.0628,-0.936572 -0.082,-1.410158 0.0332,0.488344 0.0756,0.97405 0.12891,1.457034 1.0664,2.22554 2.27259,4.403787 3.61719,6.490231 3.97065,11.213832 3.62186,20.644002 -4.94108,24.988842 L 15.28725,125 c 11.17407,-0.41729 16.36626,-2.54994 22.85742,-10.29297 25.6749,16.40443 59.64994,10.28391 77.98633,-14.04883 L 116.1988,97.502464 92.67006,77.011717 C 88.12419,86.872154 77.83322,92.77297 67.02748,91.714846 56.22178,90.656727 47.27191,82.871184 44.72475,72.316406 42.1776,61.761633 46.59296,50.752864 55.72671,44.882813 c 9.03431,-5.80615 20.7258,-5.324536 29.24609,1.171874 0.0783,0.07173 0.15481,0.144023 0.23242,0.216797 3.14876,2.471951 5.67471,5.648406 7.37305,9.273437 l 24.36199,-24.304502 3.7e-4,-3.146992 C 116.66528,27.916549 88.48971,7 69.48842,7 Z" /><path
     fill="#989898"
     d="M 31.25733,50.163368 C 47.85615,33.564547 71.87344,30.550794 85.31941,43.115824 a 25.500982,25.500982 0 1 0 7.41847,30.740275 l 23.4609,23.646365 A 58.327701,58.327701 0 0 1 38.21214,111.55119 c -6.49116,7.74302 -11.68409,9.87583 -22.85815,10.29312 8.99489,-7.65029 9.22672,-16.2279 5.00746,-28.143811 -1.34459,-2.086444 -2.5501,-4.265619 -3.6165,-6.491159 -1.3446,-12.194106 3.70923,-26.196463 14.55874,-37.045972 z"
     id="path2-2"
     mask="none"
     style="stroke-width:0.463654;fill:url(#linearGradient8)" /><path
     fill="#8dd0ff"
     d="m 69.55517,3.8443113 c 19.47347,0 36.76777,9.5512767 47.38546,24.2491157 L 92.64515,52.388908 A 25.593713,25.593713 0 0 0 85.27304,43.115824 C 71.87344,30.550794 47.85615,33.564547 31.25733,50.209733 20.40782,61.012877 15.77128,75.247061 16.69858,87.162975 A 58.420432,58.420432 0 0 1 69.55517,3.8443113 Z"
     id="path3-8"
     style="stroke-width:0.463654;fill:url(#linearGradient6)" /></svg>
