<?xml version="1.0" encoding="UTF-8" standalone="no"?>
<svg
   viewBox="0 0 128 128"
   style="display:inline;enable-background:new"
   version="1.0"
   id="svg11300"
   height="128"
   width="128"
   xml:space="preserve"
   xmlns:xlink="http://www.w3.org/1999/xlink"
   xmlns="http://www.w3.org/2000/svg"
   xmlns:svg="http://www.w3.org/2000/svg"
   xmlns:rdf="http://www.w3.org/1999/02/22-rdf-syntax-ns#"
   xmlns:cc="http://creativecommons.org/ns#"
   xmlns:dc="http://purl.org/dc/elements/1.1/"><title
     id="title4162">Adwaita Icon Template</title><defs
     id="defs3"><linearGradient
       id="linearGradient1"><stop
         style="stop-color:#3a3a3a;stop-opacity:1;"
         offset="0"
         id="stop1" /><stop
         style="stop-color:#000000;stop-opacity:1;"
         offset="1"
         id="stop2" /></linearGradient><linearGradient
       id="linearGradient974"><stop
         style="stop-color:#3a3a3a;stop-opacity:1;"
         offset="0"
         id="stop962" /><stop
         id="stop964"
         offset="0.04166667"
         style="stop-color:#919191;stop-opacity:1;" /><stop
         style="stop-color:#3a3a3a;stop-opacity:1;"
         offset="0.08333334"
         id="stop966" /><stop
         id="stop968"
         offset="0.91666669"
         style="stop-color:#3a3a3a;stop-opacity:1;" /><stop
         style="stop-color:#929292;stop-opacity:1;"
         offset="0.95833331"
         id="stop970" /><stop
         style="stop-color:#3a3a3a;stop-opacity:1;"
         offset="1"
         id="stop972" /></linearGradient><linearGradient
       y2="44"
       x2="464"
       y1="44"
       x1="48"
       gradientTransform="matrix(0.25,0,0,0.25,0,53)"
       gradientUnits="userSpaceOnUse"
       id="linearGradient1747"
       xlink:href="#linearGradient974" /><linearGradient
       xlink:href="#linearGradient1"
       id="linearGradient3"
       x1="64"
       y1="10"
       x2="64"
       y2="114"
       gradientUnits="userSpaceOnUse" /></defs><metadata
     id="metadata4"><rdf:RDF><cc:Work
         rdf:about=""><dc:format>image/svg+xml</dc:format><dc:type
           rdf:resource="http://purl.org/dc/dcmitype/StillImage" /><dc:creator><cc:Agent><dc:title>GNOME Design Team</dc:title></cc:Agent></dc:creator><dc:source /><cc:license
           rdf:resource="http://creativecommons.org/licenses/by-sa/4.0/" /><dc:title>Adwaita Icon Template</dc:title><dc:subject><rdf:Bag /></dc:subject><dc:date /><dc:rights><cc:Agent><dc:title /></cc:Agent></dc:rights><dc:publisher><cc:Agent><dc:title /></cc:Agent></dc:publisher><dc:identifier /><dc:relation /><dc:language /><dc:coverage /><dc:description /><dc:contributor><cc:Agent><dc:title /></cc:Agent></dc:contributor></cc:Work><cc:License
         rdf:about="http://creativecommons.org/licenses/by-sa/4.0/"><cc:permits
           rdf:resource="http://creativecommons.org/ns#Reproduction" /><cc:permits
           rdf:resource="http://creativecommons.org/ns#Distribution" /><cc:requires
           rdf:resource="http://creativecommons.org/ns#Notice" /><cc:requires
           rdf:resource="http://creativecommons.org/ns#Attribution" /><cc:permits
           rdf:resource="http://creativecommons.org/ns#DerivativeWorks" /><cc:requires
           rdf:resource="http://creativecommons.org/ns#ShareAlike" /></cc:License></rdf:RDF></metadata><rect
     ry="8"
     rx="8"
     y="32"
     x="12"
     height="83.999992"
     width="104"
     id="rect1709"
     style="display:inline;fill:url(#linearGradient1747);fill-opacity:1;stroke:none;stroke-width:0.25;stroke-linecap:butt;stroke-linejoin:miter;stroke-miterlimit:4;stroke-dasharray:none;stroke-dashoffset:0;stroke-opacity:1;marker:none;marker-start:none;marker-mid:none;marker-end:none;paint-order:normal;enable-background:new" /><rect
     style="display:inline;fill:url(#linearGradient3);fill-opacity:1;stroke:none;stroke-width:0.25;stroke-linecap:butt;stroke-linejoin:miter;stroke-miterlimit:4;stroke-dasharray:none;stroke-dashoffset:0;stroke-opacity:1;marker:none;marker-start:none;marker-mid:none;marker-end:none;paint-order:normal;enable-background:new"
     id="rect1711"
     width="104"
     height="100"
     x="12"
     y="12"
     rx="8"
     ry="8" /><path
     id="path3"
     style="display:inline;fill:#ff2654;fill-opacity:1;fill-rule:nonzero;stroke-width:0.570981;stroke-dasharray:none"
     d="m 64.243892,40.595743 c -5.566294,-0.05327 -11.121216,2.175485 -15.108822,6.059496 -3.987606,3.884012 -6.360447,9.377022 -6.455079,14.94278 -0.09669,5.686832 2.190441,11.377121 6.196731,15.414317 4.006289,4.037195 9.679793,6.368664 15.36717,6.314233 5.61924,-0.05378 11.179849,-2.434047 15.099788,-6.460572 3.919941,-4.026524 6.149539,-9.649275 6.054009,-15.267978 -0.09347,-5.497627 -2.406843,-10.92607 -6.308742,-14.800054 -3.901898,-3.873985 -9.3469,-6.149599 -14.845055,-6.202222 z m -5.342197,13.978031 c 0.105766,0.0048 0.212144,0.04462 2.195054,1.185162 1.982908,1.14054 5.843107,3.381586 7.790175,4.514811 1.947069,1.133226 1.980943,1.1585 2.023422,1.194195 0.04247,0.0357 0.09304,0.08186 0.135498,0.148145 0.04245,0.06628 0.07708,0.151601 0.09575,0.234863 0.01868,0.08326 0.02115,0.165315 0.01265,0.236671 -0.0085,0.07136 -0.0282,0.132481 -0.07408,0.198732 -0.04587,0.06625 -0.117027,0.137379 -2.113752,1.311626 -1.996724,1.174247 -5.918597,3.451744 -9.840698,5.728879 l -0.505855,-0.05059 -0.168017,-0.0831 -0.131884,-0.182472 c -0.03652,-0.06966 -0.07266,-0.139112 -0.09575,-2.45704 -0.02309,-2.317929 -0.0343,-6.883888 -0.0271,-9.195836 0.0072,-2.311946 0.03138,-2.370428 0.05781,-2.420907 0.02643,-0.05048 0.05672,-0.09404 0.11201,-0.144532 0.05529,-0.05049 0.135695,-0.108498 0.229441,-0.151759 0.09375,-0.04326 0.199555,-0.07168 0.30532,-0.06685 z M 64.243892,25.000763 C 54.583996,24.937273 44.955847,28.838428 38.065866,35.609397 31.175885,42.380366 27.107017,51.93846 27.002081,61.598019 26.895689,71.391552 30.869862,81.1666 37.780418,88.106957 44.690974,95.047314 54.45002,99.063608 64.243892,98.999238 73.956707,98.935408 83.581425,94.86133 90.389399,87.933519 97.197375,81.005709 101.10343,71.310497 100.99792,61.598019 100.89386,52.019515 96.895456,42.53994 90.107566,35.781028 83.319677,29.022117 73.82273,25.063722 64.243892,25.000763 Z m 0,11.428852 c 6.589562,0.05376 13.118907,2.77695 17.793471,7.421708 4.674563,4.644757 7.439259,11.157601 7.535441,17.746696 0.09799,6.713354 -2.580344,13.425907 -7.27348,18.227266 -4.693137,4.80136 -11.341605,7.6307 -18.055432,7.68548 C 57.460606,87.566115 50.698579,84.785616 45.917467,79.973431 41.136356,75.161247 38.39864,68.380826 38.49765,61.598019 38.59484,54.93947 41.419259,48.361811 46.181234,43.70679 50.943209,39.051771 57.584872,36.375283 64.243892,36.429615 Z" /></svg>
