<?xml version="1.0" encoding="UTF-8" standalone="no"?>
<svg
   viewBox="0 0 128 128"
   style="display:inline;enable-background:new"
   version="1.0"
   id="svg11300"
   height="128"
   width="128"
   xml:space="preserve"
   xmlns:xlink="http://www.w3.org/1999/xlink"
   xmlns="http://www.w3.org/2000/svg"
   xmlns:svg="http://www.w3.org/2000/svg"
   xmlns:rdf="http://www.w3.org/1999/02/22-rdf-syntax-ns#"
   xmlns:cc="http://creativecommons.org/ns#"
   xmlns:dc="http://purl.org/dc/elements/1.1/"><title
     id="title4162">Adwaita Icon Template</title><defs
     id="defs3"><linearGradient
       id="linearGradient974"><stop
         style="stop-color:#333333;stop-opacity:1;"
         offset="0"
         id="stop962" /><stop
         id="stop964"
         offset="0.04166667"
         style="stop-color:#666666;stop-opacity:1;" /><stop
         style="stop-color:#333333;stop-opacity:1;"
         offset="0.08333334"
         id="stop966" /><stop
         id="stop968"
         offset="0.91666669"
         style="stop-color:#333333;stop-opacity:1;" /><stop
         style="stop-color:#666666;stop-opacity:1;"
         offset="0.95833331"
         id="stop970" /><stop
         style="stop-color:#333333;stop-opacity:1;"
         offset="1"
         id="stop972" /></linearGradient><linearGradient
       y2="44"
       x2="464"
       y1="44"
       x1="48"
       gradientTransform="matrix(0.25,0,0,0.25,0,53)"
       gradientUnits="userSpaceOnUse"
       id="linearGradient1747"
       xlink:href="#linearGradient974" /></defs><metadata
     id="metadata4"><rdf:RDF><cc:Work
         rdf:about=""><dc:format>image/svg+xml</dc:format><dc:type
           rdf:resource="http://purl.org/dc/dcmitype/StillImage" /><dc:creator><cc:Agent><dc:title>GNOME Design Team</dc:title></cc:Agent></dc:creator><dc:source /><cc:license
           rdf:resource="http://creativecommons.org/licenses/by-sa/4.0/" /><dc:title>Adwaita Icon Template</dc:title><dc:subject><rdf:Bag /></dc:subject><dc:date /><dc:rights><cc:Agent><dc:title /></cc:Agent></dc:rights><dc:publisher><cc:Agent><dc:title /></cc:Agent></dc:publisher><dc:identifier /><dc:relation /><dc:language /><dc:coverage /><dc:description /><dc:contributor><cc:Agent><dc:title /></cc:Agent></dc:contributor></cc:Work><cc:License
         rdf:about="http://creativecommons.org/licenses/by-sa/4.0/"><cc:permits
           rdf:resource="http://creativecommons.org/ns#Reproduction" /><cc:permits
           rdf:resource="http://creativecommons.org/ns#Distribution" /><cc:requires
           rdf:resource="http://creativecommons.org/ns#Notice" /><cc:requires
           rdf:resource="http://creativecommons.org/ns#Attribution" /><cc:permits
           rdf:resource="http://creativecommons.org/ns#DerivativeWorks" /><cc:requires
           rdf:resource="http://creativecommons.org/ns#ShareAlike" /></cc:License></rdf:RDF></metadata><rect
     ry="8"
     rx="8"
     y="32"
     x="12"
     height="83.999992"
     width="104"
     id="rect1709"
     style="display:inline;fill:url(#linearGradient1747);fill-opacity:1;stroke:none;stroke-width:0.25;stroke-linecap:butt;stroke-linejoin:miter;stroke-miterlimit:4;stroke-dasharray:none;stroke-dashoffset:0;stroke-opacity:1;marker:none;marker-start:none;marker-mid:none;marker-end:none;paint-order:normal;enable-background:new" /><rect
     style="display:inline;fill:#000000;fill-opacity:1;stroke:none;stroke-width:0.25;stroke-linecap:butt;stroke-linejoin:miter;stroke-miterlimit:4;stroke-dasharray:none;stroke-dashoffset:0;stroke-opacity:1;marker:none;marker-start:none;marker-mid:none;marker-end:none;paint-order:normal;enable-background:new"
     id="rect1711"
     width="104"
     height="100"
     x="12"
     y="12"
     rx="8"
     ry="8" /><path
     d="m 63.81744,78.290039 c 0,0 -7.557108,0.81315 -11.118293,0.81315 -7.627188,0 -9.562071,-6.140969 -9.562071,-17.399508 0,-12.450272 2.677952,-16.964941 9.267661,-16.964941 3.855595,0 11.412703,0.883318 11.412703,0.883318 l 0.434659,-8.005679 c 0,0 -8.286181,-1.780635 -13.557913,-1.780635 -12.730679,0 -18.072494,7.41686 -18.072494,25.867937 0,16.65644 3.63135,26.288595 18.072494,26.288595 6.309301,0 13.487836,-1.626388 13.487836,-1.626388 z"
     id="path1"
     style="fill:#ffffff;stroke-width:0.431034" /><path
     d="m 84.189754,49.253409 c -9.702232,0 -14.52531,6.225138 -14.52531,19.264225 0,12.296107 3.631349,19.474642 14.300983,19.474642 5.482069,0 10.809883,-1.69647 10.809883,-1.69647 l -0.2945,-7.33278 c 0,0 -4.893155,0.434569 -7.557021,0.434569 -5.916724,0 -7.17853,-3.841591 -7.17853,-10.879961 0,-7.192531 1.472137,-10.669634 7.17853,-10.669634 2.663866,0 7.557021,0.518828 7.557021,0.518828 l 0.2945,-7.557112 c 0,0 -5.103487,-1.556307 -10.585556,-1.556307 z"
     id="path2"
     style="fill:#ffffff;stroke-width:0.431034" /><rect
     x="15.448"
     y="15.448277"
     width="9.0517244"
     height="10.344828"
     ry="0.86206895"
     id="rect2"
     style="fill:#ffffff;stroke-width:0.431034" /><rect
     x="33.058399"
     y="15.448277"
     width="9.0517244"
     height="10.344828"
     ry="0.86206895"
     id="rect3"
     style="fill:#ffffff;stroke-width:0.431034" /><rect
     x="50.6688"
     y="15.448277"
     width="9.0517244"
     height="10.344828"
     ry="0.86206895"
     id="rect4"
     style="fill:#ffffff;stroke-width:0.431034" /><rect
     x="68.279198"
     y="15.448277"
     width="9.0517244"
     height="10.344828"
     ry="0.86206895"
     id="rect5"
     style="fill:#ffffff;stroke-width:0.431034" /><rect
     x="85.889603"
     y="15.448277"
     width="9.0517244"
     height="10.344828"
     ry="0.86206895"
     id="rect6"
     style="fill:#ffffff;stroke-width:0.431034" /><rect
     x="103.5"
     y="15.448277"
     width="9.0517244"
     height="10.344828"
     ry="0.86206895"
     id="rect7"
     style="fill:#ffffff;stroke-width:0.431034" /><rect
     x="15.448"
     y="98.206894"
     width="9.0517244"
     height="10.344828"
     ry="0.86206895"
     id="rect8"
     style="fill:#ffffff;stroke-width:0.431034" /><rect
     x="33.058399"
     y="98.206894"
     width="9.0517244"
     height="10.344828"
     ry="0.86206895"
     id="rect9"
     style="fill:#ffffff;stroke-width:0.431034" /><rect
     x="50.6688"
     y="98.206894"
     width="9.0517244"
     height="10.344828"
     ry="0.86206895"
     id="rect10"
     style="fill:#ffffff;stroke-width:0.431034" /><rect
     x="68.279198"
     y="98.206894"
     width="9.0517244"
     height="10.344828"
     ry="0.86206895"
     id="rect11"
     style="fill:#ffffff;stroke-width:0.431034" /><rect
     x="85.889603"
     y="98.206894"
     width="9.0517244"
     height="10.344828"
     ry="0.86206895"
     id="rect12"
     style="fill:#ffffff;stroke-width:0.431034" /><rect
     x="103.5"
     y="98.206894"
     width="9.0517244"
     height="10.344828"
     ry="0.86206895"
     id="rect13"
     style="fill:#ffffff;stroke-width:0.431034" /></svg>
