<?xml version="1.0" encoding="UTF-8" standalone="no"?>
<svg
   viewBox="0 0 128 128"
   style="display:inline;enable-background:new"
   version="1.0"
   id="svg11300"
   height="128"
   width="128"
   xml:space="preserve"
   xmlns:xlink="http://www.w3.org/1999/xlink"
   xmlns="http://www.w3.org/2000/svg"
   xmlns:svg="http://www.w3.org/2000/svg"
   xmlns:rdf="http://www.w3.org/1999/02/22-rdf-syntax-ns#"
   xmlns:cc="http://creativecommons.org/ns#"
   xmlns:dc="http://purl.org/dc/elements/1.1/"><title
     id="title4162">Adwaita Icon Template</title><defs
     id="defs3"><linearGradient
       id="linearGradient20"><stop
         style="stop-color:#0616fd;stop-opacity:1;"
         offset="0"
         id="stop18" /><stop
         style="stop-color:#0385f3;stop-opacity:1;"
         offset="0.5"
         id="stop21" /><stop
         style="stop-color:#00f5ea;stop-opacity:1;"
         offset="1"
         id="stop20" /></linearGradient><linearGradient
       id="linearGradient16"><stop
         style="stop-color:#ff0103;stop-opacity:1;"
         offset="0"
         id="stop15" /><stop
         style="stop-color:#fc7801;stop-opacity:1;"
         offset="0.5"
         id="stop17" /><stop
         style="stop-color:#f9ef00;stop-opacity:1;"
         offset="1"
         id="stop16" /></linearGradient><linearGradient
       id="linearGradient11"><stop
         style="stop-color:#fdef00;stop-opacity:1;"
         offset="0"
         id="stop9" /><stop
         style="stop-color:#0aee00;stop-opacity:1;"
         offset="0.5"
         id="stop10" /><stop
         style="stop-color:#00f5f2;stop-opacity:1;"
         offset="1"
         id="stop11" /></linearGradient><linearGradient
       id="linearGradient1"><stop
         style="stop-color:#ff0100;stop-opacity:1;"
         offset="0.25"
         id="stop4" /><stop
         style="stop-color:#e900ff;stop-opacity:1;"
         offset="0.44999999"
         id="stop6" /><stop
         style="stop-color:#0017fd;stop-opacity:1;"
         offset="0.75"
         id="stop5" /></linearGradient><linearGradient
       id="linearGradient974"><stop
         style="stop-color:#000000;stop-opacity:1;"
         offset="0"
         id="stop962" /><stop
         id="stop964"
         offset="0.04166667"
         style="stop-color:#ffffff;stop-opacity:1;" /><stop
         style="stop-color:#000000;stop-opacity:1;"
         offset="0.08333334"
         id="stop966" /><stop
         id="stop968"
         offset="0.91666669"
         style="stop-color:#000000;stop-opacity:1;" /><stop
         style="stop-color:#ffffff;stop-opacity:1;"
         offset="0.95833331"
         id="stop970" /><stop
         style="stop-color:#000000;stop-opacity:1;"
         offset="1"
         id="stop972" /></linearGradient><linearGradient
       y2="44"
       x2="464"
       y1="44"
       x1="48"
       gradientTransform="matrix(0.25,0,0,0.25,0,29.257744)"
       gradientUnits="userSpaceOnUse"
       id="linearGradient1747"
       xlink:href="#linearGradient974" /><linearGradient
       xlink:href="#linearGradient1"
       id="linearGradient5"
       x1="12"
       y1="85.742256"
       x2="116"
       y2="85.742256"
       gradientUnits="userSpaceOnUse"
       gradientTransform="translate(0,-19.742256)" /><linearGradient
       xlink:href="#linearGradient11"
       id="linearGradient6"
       gradientUnits="userSpaceOnUse"
       x1="12"
       y1="85.742256"
       x2="116"
       y2="85.742256"
       gradientTransform="translate(0,6.257744)" /><linearGradient
       xlink:href="#linearGradient11"
       id="linearGradient12"
       gradientUnits="userSpaceOnUse"
       gradientTransform="translate(0,10.257744)"
       x1="12"
       y1="85.742256"
       x2="116"
       y2="85.742256" /><linearGradient
       xlink:href="#linearGradient16"
       id="linearGradient14"
       x1="14"
       y1="72.742256"
       x2="14"
       y2="108.74226"
       gradientUnits="userSpaceOnUse"
       gradientTransform="translate(0,-24.742256)" /><linearGradient
       xlink:href="#linearGradient20"
       id="linearGradient18"
       gradientUnits="userSpaceOnUse"
       gradientTransform="translate(100,-24.742256)"
       x1="14"
       y1="72.742256"
       x2="14"
       y2="108.74226" /></defs><metadata
     id="metadata4"><rdf:RDF><cc:Work
         rdf:about=""><dc:format>image/svg+xml</dc:format><dc:type
           rdf:resource="http://purl.org/dc/dcmitype/StillImage" /><dc:creator><cc:Agent><dc:title>GNOME Design Team</dc:title></cc:Agent></dc:creator><dc:source /><cc:license
           rdf:resource="http://creativecommons.org/licenses/by-sa/4.0/" /><dc:title>Adwaita Icon Template</dc:title><dc:subject><rdf:Bag /></dc:subject><dc:date /><dc:rights><cc:Agent><dc:title /></cc:Agent></dc:rights><dc:publisher><cc:Agent><dc:title /></cc:Agent></dc:publisher><dc:identifier /><dc:relation /><dc:language /><dc:coverage /><dc:description /><dc:contributor><cc:Agent><dc:title /></cc:Agent></dc:contributor></cc:Work><cc:License
         rdf:about="http://creativecommons.org/licenses/by-sa/4.0/"><cc:permits
           rdf:resource="http://creativecommons.org/ns#Reproduction" /><cc:permits
           rdf:resource="http://creativecommons.org/ns#Distribution" /><cc:requires
           rdf:resource="http://creativecommons.org/ns#Notice" /><cc:requires
           rdf:resource="http://creativecommons.org/ns#Attribution" /><cc:permits
           rdf:resource="http://creativecommons.org/ns#DerivativeWorks" /><cc:requires
           rdf:resource="http://creativecommons.org/ns#ShareAlike" /></cc:License></rdf:RDF></metadata><rect
     style="display:inline;fill:url(#linearGradient12);fill-opacity:1;stroke:none;stroke-width:0.25;stroke-linecap:butt;stroke-linejoin:miter;stroke-miterlimit:4;stroke-dasharray:none;stroke-dashoffset:0;stroke-opacity:1;marker:none;marker-start:none;marker-mid:none;marker-end:none;paint-order:normal;enable-background:new"
     id="rect11"
     width="104"
     height="26"
     x="12"
     y="70"
     ry="8"
     rx="8" /><rect
     ry="8"
     rx="8"
     y="44"
     x="12"
     height="52"
     width="104"
     id="rect1709"
     style="display:inline;opacity:0.5;fill:url(#linearGradient1747);fill-opacity:1;stroke:none;stroke-width:0.25;stroke-linecap:butt;stroke-linejoin:miter;stroke-miterlimit:4;stroke-dasharray:none;stroke-dashoffset:0;stroke-opacity:1;marker:none;marker-start:none;marker-mid:none;marker-end:none;paint-order:normal;enable-background:new" /><rect
     style="display:inline;fill:url(#linearGradient5);stroke:none;stroke-width:0.25;stroke-linecap:butt;stroke-linejoin:miter;stroke-miterlimit:4;stroke-dasharray:none;stroke-dashoffset:0;stroke-opacity:1;marker:none;marker-start:none;marker-mid:none;marker-end:none;paint-order:normal;enable-background:new"
     id="rect1711"
     width="104"
     height="26"
     x="12"
     y="40"
     rx="8"
     ry="8" /><rect
     style="display:inline;fill:url(#linearGradient6);fill-opacity:1;stroke:none;stroke-width:0.25;stroke-linecap:butt;stroke-linejoin:miter;stroke-miterlimit:4;stroke-dasharray:none;stroke-dashoffset:0;stroke-opacity:1;marker:none;marker-start:none;marker-mid:none;marker-end:none;paint-order:normal;enable-background:new"
     id="rect6"
     width="104"
     height="26"
     x="12"
     y="66"
     rx="8"
     ry="8" /><rect
     style="fill:url(#linearGradient14);stroke-width:0;stroke-linecap:round;stroke-linejoin:round"
     id="rect12"
     width="4"
     height="28"
     x="12"
     y="52" /><rect
     style="fill:url(#linearGradient18);stroke-width:0;stroke-linecap:round;stroke-linejoin:round"
     id="rect18"
     width="4"
     height="28"
     x="112"
     y="52" /><rect
     style="display:inline;fill:#181818;fill-opacity:1;stroke:none;stroke-width:0.25;stroke-linecap:butt;stroke-linejoin:miter;stroke-miterlimit:4;stroke-dasharray:none;stroke-dashoffset:0;stroke-opacity:1;marker:none;marker-start:none;marker-mid:none;marker-end:none;paint-order:normal;enable-background:new"
     id="rect1"
     width="100"
     height="48"
     x="14"
     y="42"
     rx="6"
     ry="6" /><path
     d="m 48.120783,78.540259 q -1.10064,0.472845 -2.001156,0.886585 -0.88051,0.41374 -2.321354,0.866883 -1.220703,0.374337 -2.661536,0.630461 -1.420828,0.275827 -3.141828,0.275827 -3.241884,0 -5.903431,-0.886586 -2.641531,-0.906287 -4.602666,-2.817372 -1.921114,-1.871679 -3.001739,-4.748156 -1.080635,-2.89618 -1.080635,-6.718349 0,-3.625149 1.040604,-6.481924 1.040604,-2.856775 3.001749,-4.826965 1.901099,-1.911084 4.582661,-2.915881 2.701567,-1.004797 5.983473,-1.004797 2.401385,0 4.782775,0.571355 2.401386,0.571355 5.323083,2.009593 v 4.629947 h -0.300172 q -2.461432,-2.029296 -4.882832,-2.955285 -2.421411,-0.925989 -5.183005,-0.925989 -2.261317,0 -4.082374,0.72897 -1.801042,0.709268 -3.22187,2.226315 -1.380796,1.477641 -2.161249,3.74336 -0.760448,2.246016 -0.760448,5.201301 0,3.093198 0.840489,5.319514 0.860495,2.226314 2.201281,3.625149 1.400812,1.45794 3.26189,2.167209 1.881094,0.689566 3.962302,0.689566 2.861661,0 5.363114,-0.965392 2.501452,-0.965394 4.682718,-2.89618 h 0.280156 z M 77.67794,80.668064 H 72.534956 L 60.74812,67.605705 l -2.961729,3.1129 v 9.949459 H 53.8241 V 51.331936 h 3.962291 V 66.640311 L 72.25479,51.331936 h 4.802791 L 63.749859,65.123265 Z m 26.91562,-9.02347 q 0,2.186911 -0.84049,3.861572 -0.84048,1.674662 -2.26131,2.758266 -1.680969,1.300326 -3.702151,1.851979 -2.001156,0.551653 -5.102963,0.551653 H 82.120523 V 51.331936 h 8.825118 q 3.261891,0 4.882833,0.236423 1.620942,0.236423 3.101796,0.985095 1.64096,0.847181 2.38139,2.186911 0.74042,1.320027 0.74042,3.172005 0,2.088402 -1.08062,3.566044 -1.080627,1.45794 -2.881669,2.344526 v 0.157615 q 3.021749,0.610759 4.762759,2.620353 1.74101,1.989891 1.74101,5.043686 z M 97.929697,58.424619 q 0,-1.063902 -0.360208,-1.792873 -0.360208,-0.728969 -1.160677,-1.182113 -0.940546,-0.531952 -2.281322,-0.650163 -1.340776,-0.137913 -3.321927,-0.137913 h -4.722749 v 8.471817 h 5.122978 q 1.861078,0 2.961719,-0.177317 1.10064,-0.19702 2.041187,-0.788077 0.940546,-0.591056 1.32076,-1.517045 0.400239,-0.945692 0.400239,-2.226316 z m 2.541473,13.37759 q 0,-1.773171 -0.540316,-2.817372 -0.540308,-1.0442 -1.961136,-1.77317 -0.960562,-0.492548 -2.341359,-0.630461 -1.360791,-0.157616 -3.321926,-0.157616 h -6.223619 v 10.914852 h 5.243051 q 2.60151,0 4.262473,-0.256124 1.660964,-0.275827 2.721573,-0.985095 1.120656,-0.768374 1.640958,-1.753469 0.520301,-0.985095 0.520301,-2.541545 z"
     id="text1"
     style="font-size:40.6654px;line-height:1;font-family:Verdana;-inkscape-font-specification:Verdana;letter-spacing:0px;fill:#ffffff;stroke-width:0;stroke-linecap:round;stroke-linejoin:round"
     aria-label="CKB" /></svg>
