<?xml version="1.0" encoding="UTF-8" standalone="no"?>
<svg
   height="128"
   viewBox="0 0 128 128"
   width="128"
   version="1.1"
   id="svg19"
   xml:space="preserve"
   xmlns:xlink="http://www.w3.org/1999/xlink"
   xmlns="http://www.w3.org/2000/svg"
   xmlns:svg="http://www.w3.org/2000/svg"><defs
     id="defs19"><linearGradient
       id="linearGradient65839"><stop
         style="stop-color:#000000;stop-opacity:1;"
         offset="0.22369835"
         id="stop65839" /><stop
         style="stop-color:#ffffff;stop-opacity:1;"
         offset="0.41999999"
         id="stop65841" /><stop
         style="stop-color:#000000;stop-opacity:1;"
         offset="0.72000003"
         id="stop65842" /><stop
         style="stop-color:#b2b2b2;stop-opacity:1;"
         offset="0.88269454"
         id="stop65844" /><stop
         style="stop-color:#000000;stop-opacity:1;"
         offset="1"
         id="stop65840" /></linearGradient><linearGradient
       xlink:href="#linearGradient65839"
       id="linearGradient65840"
       x1="-140.00013"
       y1="71.00009"
       x2="-38.999105"
       y2="71.00009"
       gradientUnits="userSpaceOnUse"
       gradientTransform="translate(153.49961,-5.0000422)" /></defs><linearGradient
     id="a"
     gradientTransform="matrix(1.1999802,0,0,-1.1999802,181.47906,335.86367)"
     gradientUnits="userSpaceOnUse"
     x1="2.9999969"
     x2="93.000366"
     y1="186.25204"
     y2="186.25204"><stop
       offset="0.43"
       stop-color="#456f2a"
       id="stop1" /><stop
       offset="0.5"
       stop-color="#5c913b"
       id="stop2" /><stop
       offset="0.57"
       stop-color="#456f2a"
       id="stop3" /></linearGradient><g
     id="l6OT3s1GZVNW60APpPOtxPl"
     fill="#121212"
     transform="matrix(0.1,0,0,0.1,352.83772,-74.135539)"><g
       id="g2" /></g><path
     id="path65790-6"
     style="fill:#0f314d;fill-opacity:0.996078;stroke-width:0.997166"
     d="m 113.2966,63.519474 c 0.27961,-1.23288 0.39007,-2.78152 0.58531,-4.01296 l 0.287,-6.073831 -2.56967,7.238481 z" /><path
     style="fill:#6e3c35;fill-opacity:1;stroke-width:0.997166"
     d="m 111.59957,60.671129 1.69703,-1.151607 v 4 l -2.25607,1.752821 -5.76343,2.648538 -5.279479,1.633265 -5.367468,1.103558 -5.895417,0.706277 -6.115393,-0.04414 -4.79552,-0.485565 -5.279476,-0.926989 -3.959612,-0.97113 -4.135587,-1.235984 -1.592096,-3.40341 -2.193969,-3.789419 -1.560688,-2.234949 -1.799619,-2.257865 2.603462,2.029732 1.825731,1.10704 1.91252,1.017714 2.124523,1.130525 2.265775,1.169771 2.265775,1.169772 4.465251,1.454077 3.541956,0.819251 2.99171,0.640063 4.355565,0.331067 5.873415,-0.143464 6.137395,-0.827668 4.939296,-1.186681 3.0234,-0.962544 3.54217,-1.602871 z"
     id="path65807" /><path
     id="path65797-1"
     style="fill:#275908;fill-opacity:1;stroke-width:0.997166"
     d="m 14.06088,45.530754 c -1.519543,9.27844 0.153198,18.88184 3.752596,27.99054 l 1.936571,-5.02729 1.714921,-4.01677 2.640425,-4.36986 3.783706,-5.12093 2.90292,-3.35349 2.552929,-2.91454 -1.804357,-0.57355 -3.630099,-1.08076 -3.519279,-0.79594 -4.024808,-0.50721 -5.368354,-0.13266 z" /><path
     id="path65798-0"
     style="fill:#39701a;fill-opacity:1;stroke-width:0.997166"
     d="m 17.813476,73.521294 c 5.199735,13.15857 14.422148,25.28489 23.857182,33.907416 3.870494,3.53719 8.563456,7.71095 13.732948,10.24773 l 1.149115,-1.10028 2.42655,-2.93405 2.39544,-3.46468 0.711629,-1.97229 C 65.039205,94.704114 64.925817,82.104614 58.269583,70.183424 l -1.112171,-1.88646 c -0.590973,-0.9517 -1.223966,-1.89914 -1.90352,-2.84236 -1.233922,-1.71267 -2.640823,-3.22733 -4.005365,-4.79124 l -3.126512,-3.11158 c 0,0 -2.131695,-2.02976 -3.317061,-2.89504 -0.816528,-0.59603 -2.595707,-1.56847 -2.595707,-1.56847 l -5.212806,-2.80139 -3.651493,-1.56847 -2.552929,2.91454 c -2.131004,2.16933 -3.766215,4.52008 -3.766215,4.52008 l -2.920411,3.95434 c -2.837715,4.01695 -3.497886,6.37922 -3.497886,6.37922 -1.099886,2.22919 -1.382431,3.37104 -1.382431,3.37104 l -1.4116,-0.336292 z" /><path
     id="path65802-6"
     style="fill:#336222;fill-opacity:1;stroke-width:0.997166"
     d="m 55.403606,117.67644 c 0.648205,0.31807 1.30524,0.60984 1.967691,0.87201 l 1.401874,-2.46779 1.870459,-3.70853 0.731081,-2.19469 -1.197715,1.73233 -1.197725,1.73235 -1.775775,-0.0955 -1.79989,0.12984 z" /><path
     id="path65803-3"
     style="fill:#743d2f;fill-opacity:1;stroke-width:0.997166"
     d="m 57.371297,118.54845 c 2.888057,1.143 5.903968,1.71213 8.99262,1.33632 11.063196,-1.3461 21.307737,-12.65027 28.023932,-20.639796 8.014471,-9.53396 15.829981,-22.66835 18.908751,-35.7255 l -2.25539,1.7537 -4.40978,2.02497 -3.9937,1.43971 -5.323641,1.36754 -4.24841,0.73936 -4.330057,0.51892 -3.058468,-0.0214 -7.853231,-0.50721 -7.260208,-1.41241 -6.114567,-1.72247 c 0.339488,0.62382 0.579514,1.53537 0.836734,2.10392 0.184278,0.37622 0.861213,2.36595 1.100683,3.37479 0.52283,2.18834 1.015069,4.36964 1.392128,6.59774 0.101671,0.761 0.202705,1.60844 0.268329,2.3732 0,0 -0.03395,-0.067 0.103473,1.42279 0.008,1.70414 0.09477,3.56578 0.01055,5.26442 -0.730991,6.07894 -1.853008,10.4613 -3.984798,16.392336 l -1.324085,2.66964 c -0.279867,0.51131 -0.470009,0.84981 -0.703555,1.25622 l -0.773848,1.02224 -1.666311,4.04798 -2.337151,0.32304 z" /><path
     id="path65786-7"
     style="opacity:0.4;fill:url(#linearGradient65840);fill-opacity:1;stroke-width:0.997166"
     d="m 62.323834,12.035114 c -7.680342,0.30505 -15.217699,2.443236 -22.484379,5.132813 -4.25024,1.573181 -8.28404,3.555438 -11.85742,6.080078 -5.45946,3.857173 -9.84792,8.980379 -12.29101,15.835937 l 4.3125,-0.06055 -4.31446,0.06836 c -0.38635,1.085041 -0.72219,2.212963 -1.00781,3.386719 -0.24652,1.013071 -0.45372,2.030681 -0.62109,3.052734 -1.51954,9.278435 0.1545,18.881535 3.7539,27.990234 5.19973,13.158559 14.42043,25.285679 23.85547,33.908211 3.87049,3.53719 8.56488,7.70932 13.734377,10.24609 0.648205,0.31808 1.304346,0.61088 1.966797,0.87305 2.888057,1.143 5.903535,1.71175 8.992187,1.33594 11.063196,-1.34611 21.309199,-12.65112 28.025391,-20.640632 8.014473,-9.53397 15.829433,-22.66746 18.908203,-35.724612 l -2.25586,1.753907 -4.41016,2.02539 4.41016,-2.027344 2.25586,-1.751953 c 0.27961,-1.232883 0.3907,-2.782235 0.58594,-4.013672 C 116.06913,45.71338 112.75027,32.185375 99.144146,22.810505 93.991119,19.259977 88.481023,16.842155 82.528912,14.986286 76.44198,13.088377 69.124754,11.764992 62.323834,12.035114 Z m -22.365239,8.642578 c 0.01255,0.180849 0.02651,0.36257 0.04102,0.544922 l -0.03125,-0.242187 z m 0.72461,5.84961 c 0.04043,0.224704 0.08359,0.448438 0.12696,0.671875 l -0.08203,-0.324219 z m 18.384769,3.550781 c 9.027684,0.09373 17.943635,2.057399 26.94336,6.572266 4.891826,2.454056 6.042845,3.206815 11.46875,7.380859 -0.09822,-0.06081 -0.153523,-0.08601 -0.173828,-0.08398 h -0.002 l -0.002,0.002 h -0.002 v 0.002 h -0.002 v 0.002 0.002 0.002 0.002 c 0.0072,0.09471 0.682918,0.732821 0.689453,0.835938 v 0.002 0.002 l -0.002,0.002 v 0.002 l -0.002,0.002 h -0.002 l -0.002,0.002 h -0.002 c -0.02046,0.004 -0.07344,-0.01808 -0.171875,-0.07617 -0.198202,-0.128093 -0.292969,-0.167969 -0.292969,-0.167969 l -1.857422,-1.076172 -3.335938,-1.808594 -4.191406,-1.949218 -6.90625,-2.558594 -5.289062,-1.310547 -6.84375,-0.5 -6.222656,0.375 -5.53711,0.810547 -5.785158,1.748047 -6.03515,2.435547 1.38476,2.140625 1.86719,4.199218 8.541014,8.945313 1.798828,2.257812 1.560547,2.236328 2.195313,3.789063 1.591797,3.402344 c 0.339488,0.623824 0.578717,1.536924 0.835937,2.105469 0.184278,0.376225 0.862093,2.366158 1.101563,3.375 0.52283,2.188338 1.015519,4.36955 1.392578,6.597656 0.101671,0.760993 0.201954,1.608279 0.267578,2.373047 0,0 -0.03391,-0.06793 0.103516,1.421875 0.008,1.704137 0.09398,3.566987 0.0098,5.265627 -0.730991,6.07894 -1.852585,10.4596 -3.984375,16.39063 l -1.324219,2.66992 c -0.279866,0.51132 -0.469579,0.84945 -0.703124,1.25586 l -0.773438,1.02343 0.710938,-1.97265 C 65.038418,94.704011 64.92538,82.104739 58.269146,70.183552 l -1.111328,-1.886719 c -0.590973,-0.9517 -1.224743,-1.89858 -1.904297,-2.841797 -1.233922,-1.712675 -2.641316,-3.2271 -4.005856,-4.791016 l -3.12696,-3.111328 c 0,0 -1.08945,-1.038441 -2.14257,-1.945312 l -5.46875,-5.90625 -3.45313,-4.283203 -2.01172,-2.972657 -1.04687,-2.029296 -2.58203,-5.587891 0.70703,-0.228516 c 0.86555,-0.348012 2.13176,-0.590738 3.18359,-0.972656 l 1.63477,-0.458984 2.4082,-0.626953 2.6543,-0.619141 c 0.16896,-0.03185 0.46367,-0.102355 0.65234,-0.138672 5.53931,-1.143729 10.995499,-1.761316 16.412109,-1.705078 z m -31.462889,9.185547 0.60156,0.04687 c 0.16223,0.01897 0.19872,0.02934 0.33985,0.04687 -0.41597,-0.04146 -0.61926,-0.06591 -0.94141,-0.09375 z m -6.01563,1.058594 c -0.77405,0.442076 -1.35107,0.834199 -1.91406,1.214843 l 0.07422,-0.05859 z m -5.44922,3.982422 h 0.002 l -1.14453,1.324218 z m 20.23829,5.716796 c 0.31697,0.127089 0.52281,0.209844 0.61718,0.263672 0.0052,0.003 0.01048,0.0068 0.01563,0.0098 l -0.01563,-0.0078 z m -8.46875,4.939454 c -0.02688,0.03473 -0.05233,0.06996 -0.07813,0.103515 l 0.05664,-0.07813 z m 34.427731,4.511718 3.43164,1.826172 -2.125,-1.128906 z m 7.96289,4.166016 4.480469,1.458984 -0.01563,-0.0039 z m 35.328124,0.125 -3.02344,0.96289 -0.0176,0.0039 z m -27.904296,7.052734 0.09961,0.01758 0.05273,0.0059 -0.05273,-0.0039 z" /><path
     style="fill:#af6d63;fill-opacity:1;stroke-width:0.997166"
     d="m 45.508808,36.727849 6.035265,-2.434639 5.786388,-1.747946 5.537512,-0.811546 6.221923,-0.37456 6.844115,0.499413 5.288634,1.310959 6.906335,2.559493 4.191406,1.949261 3.336115,1.808266 1.856931,1.076915 c 0,0 0.552178,0.223867 1.781003,1.394367 0,0 1.507635,0.992941 2.300925,2.038587 0,0 1.6678,1.338092 2.32773,2.309222 0,0 1.41787,1.110499 2.3982,2.774599 0,0 2.46096,2.819855 3.5498,4.879934 0,0 0.61759,0.647302 1.72848,2.710955 l -2.42885,1.489182 -3.0137,1.434624 -4.57556,1.456697 -3.915606,0.860775 -4.465559,0.77249 -3.343671,0.110356 -4.20158,0.08829 -4.355565,-0.331067 -5.98341,-1.280127 -5.015507,-1.633264 -4.53155,-2.339543 -5.433461,-2.89132 -3.032775,-2.393687 -8.541465,-8.946448 -1.866428,-4.197955 z"
     id="path65786" /><path
     id="path65790"
     style="fill:#1f67a3;fill-opacity:0.996078;stroke-width:0.997166"
     d="m 113.2966,59.519522 c 0.27961,-1.232883 0.39007,-2.781523 0.58531,-4.01296 l -2.28267,1.164647 z" /><path
     id="path65793"
     style="fill:#2093cd;fill-opacity:1;stroke-width:0.997166"
     d="M 113.88191,55.506562 C 116.06861,41.714125 112.74985,28.186274 99.143725,18.811404 93.990698,15.260876 88.48136,12.842484 82.529249,10.986615 76.442317,9.0887053 69.12447,7.764884 62.32355,8.0350055 54.643208,8.3400561 47.105761,10.478068 39.839083,13.167645 c -0.01513,4.512664 0.693202,10.191144 2.164144,14.754906 0.168958,-0.03185 0.464126,-0.103459 0.652794,-0.139776 14.771502,-3.049945 28.956541,-2.355529 43.356101,4.868258 4.891826,2.454056 6.041597,3.205578 11.467502,7.379622 -0.739523,-0.457885 1.067841,1.136683 0.326686,0.699284 1.782934,1.440661 3.5233,2.955497 5.12695,4.554261 2.6579,2.649791 4.87217,5.597892 6.93745,8.675352 0.60432,0.900504 1.72853,2.711657 1.72853,2.711657 z" /><path
     id="path65795"
     style="fill:#2068a4;fill-opacity:1;stroke-width:0.997166"
     d="M 39.848799,13.163743 C 35.594895,14.737511 31.5586,16.721781 27.982427,19.24839 l 1.4116,5.743251 2.022125,5.836891 0.707149,-0.22895 c 0.865554,-0.348012 2.132089,-0.590132 3.183922,-0.97205 l 1.633997,-0.459925 2.408282,-0.62718 2.653725,-0.617876 -1.275574,-5.047564 -0.758298,-5.895415 z" /><path
     id="path65794"
     style="fill:#606f6f;fill-opacity:1;stroke-width:0.997166"
     d="m 27.982427,19.24839 c -5.459453,3.857173 -9.847143,8.979349 -12.290239,15.834907 l 4.311146,-0.06002 3.750127,-0.05898 3.738987,-2.296129 3.923704,-1.839635 -2.022125,-5.836892 z" /><path
     id="path65796"
     style="fill:#888e53;fill-opacity:1;stroke-width:0.997166"
     d="m 15.690247,35.0911 c -0.386347,1.085041 -0.723505,2.212889 -1.009126,3.386645 -0.246518,1.013071 -0.452867,2.031001 -0.620241,3.053054 l 0.937171,0.09754 1.143281,-1.322665 3.608715,-2.826756 4.003414,-2.514623 z" /><path
     style="fill:#854a1b;fill-opacity:1;stroke-width:0.997166"
     d="m 31.416152,30.828532 2.582098,5.587184 c 0,0 -1.69952,-0.389768 -2.628329,-0.582728 -0.928809,-0.192958 -1.326544,-0.308022 -3.162011,-0.522613 l -4.454728,-0.346842 1.869813,-1.1477 1.869812,-1.1477 z"
     id="path65780" /><path
     style="fill:#a37114;fill-opacity:1;stroke-width:0.997166"
     d="m 23.753182,34.963533 2.338219,0.148645 c 0,0 2.108734,0.155278 3.747857,0.376479 1.711029,0.269216 4.158992,0.927059 4.158992,0.927059 l 1.046253,2.030539 2.011777,2.971533 -1.600258,1.447217 -2.11179,1.853976 -3.618691,-1.114448 -3.574688,-0.938351 -3.597407,-0.62957 -2.187927,-0.275165 -3.066661,-0.07625 -2.300807,-0.05617 1.143888,-1.324269 1.718266,-1.490587 c 0,0 1.570413,-1.290378 3.891181,-2.592576 z"
     id="path65781" /><path
     style="fill:#ca853b;fill-opacity:1;stroke-width:0.997166"
     d="m 37.05628,41.417788 3.453069,4.283769 5.766473,6.226387 c 0,0 -3.27576,-2.414632 -4.066575,-2.839621 -1.26258,-0.678519 -1.397046,-0.750782 -2.85416,-1.533846 -0.951516,-0.511352 -1.040725,-0.516399 -2.359224,-1.268445 -0.274177,-0.156385 -1.483932,-0.561322 -3.651631,-1.567051 z"
     id="path65782" /><path
     id="path65797"
     style="fill:#51b710;fill-opacity:1;stroke-width:0.997166"
     d="m 14.06088,41.530799 c -1.519543,9.278435 0.153198,18.881844 3.752596,27.990543 0,0 1.209594,-3.253612 1.839346,-4.882268 0.525047,-1.357869 1.255396,-2.790973 1.904977,-4.128836 0.743338,-1.530962 1.612525,-2.988375 2.547594,-4.402819 1.174628,-1.776816 2.508854,-3.454133 3.834995,-5.11119 0.923801,-1.154321 1.883696,-2.257131 2.851631,-3.363226 1.37661,-1.573103 2.552929,-2.914544 2.552929,-2.914544 l -1.804357,-0.573545 -3.630099,-1.080761 -3.519279,-0.79594 -4.024808,-0.507217 -5.368354,-0.132656 z" /><path
     id="path65798"
     style="fill:#64c22e;fill-opacity:1;stroke-width:0.997166"
     d="m 17.813476,69.521342 c 5.199735,13.158563 14.422148,25.284886 23.857182,33.907418 3.870494,3.53719 8.563456,7.71095 13.732948,10.24772 l 1.149115,-1.10027 2.42655,-2.93405 2.39544,-3.46468 0.711629,-1.97229 C 65.039205,90.704158 64.925817,78.104655 58.269583,66.183468 l -1.112171,-1.886455 c -0.590973,-0.9517 -1.223966,-1.899146 -1.90352,-2.842363 -1.233922,-1.712675 -2.640823,-3.22733 -4.005365,-4.791245 l -3.126512,-3.111577 c 0,0 -2.131695,-2.029762 -3.317061,-2.895036 -0.816528,-0.596036 -2.595707,-1.568469 -2.595707,-1.568469 l -5.212806,-2.801396 -3.651493,-1.568468 c -1.347922,1.458408 -2.441026,2.572397 -2.441026,2.572397 -2.004923,2.286357 -2.745477,3.116307 -3.956243,4.6591 -1.011635,1.289054 -2.952771,4.080123 -2.952771,4.080123 -2.713918,4.414891 -2.856841,5.359325 -3.394224,6.448463 -1.099886,2.229187 -1.081815,2.279986 -1.510189,3.416426 -0.553232,1.467679 -1.277019,3.626374 -1.277019,3.626374 z" /><path
     id="path65802"
     style="fill:#5baf3d;fill-opacity:1;stroke-width:0.997166"
     d="m 55.403606,113.67648 c 0.648205,0.31808 1.30524,0.60985 1.967691,0.87202 l 1.401874,-2.4678 1.870459,-3.70853 0.731081,-2.19469 -1.197715,1.73233 -1.197725,1.73235 -1.213275,1.46702 -1.213275,1.46703 z" /><path
     style="fill:#b0655b;fill-opacity:1;stroke-width:0.997166"
     d="m 111.59957,56.671129 1.69703,2.848393 -2.25607,1.752821 -5.76343,2.648538 -5.279479,1.633265 -5.367468,1.103558 -5.895417,0.706277 -6.115393,-0.04414 -4.79552,-0.485565 -5.279476,-0.926989 -3.959612,-0.97113 -4.135587,-1.235984 -1.592096,-3.40341 -2.193969,-3.789419 -1.560688,-2.234949 -1.799619,-2.257865 2.603462,2.029732 1.825731,1.10704 1.91252,1.017714 2.124523,1.130525 2.265775,1.169771 2.265775,1.169772 4.465251,1.454077 3.541956,0.819251 2.99171,0.640063 4.355565,0.331067 5.873415,-0.143464 6.137395,-0.827668 4.939296,-1.186681 3.0234,-0.962544 3.54217,-1.602871 z"
     id="path65787" /><path
     id="path65803"
     style="fill:#b86652;fill-opacity:1;stroke-width:0.997166"
     d="m 57.371297,114.5485 c 2.888057,1.143 5.903968,1.71213 8.99262,1.33632 11.063196,-1.34611 21.307737,-12.65028 28.023929,-20.639798 8.014474,-9.533966 15.829984,-22.668348 18.908754,-35.7255 l -2.25539,1.753701 -4.40978,2.024964 -3.9937,1.439715 -5.323639,1.367533 -4.248408,0.739366 -4.330061,0.518921 -3.058468,-0.02145 -7.853231,-0.507217 -7.260208,-1.412402 -6.114567,-1.722474 c 0.339488,0.623824 0.579514,1.535374 0.836734,2.103919 0.184278,0.376225 0.861213,2.365955 1.100683,3.374796 0.52283,2.188339 1.015069,4.369632 1.392128,6.597738 0.101671,0.760993 0.202705,1.608433 0.268329,2.373201 0,0 -0.03395,-0.06702 0.103473,1.422785 0.008,1.70414 0.09477,3.565783 0.01055,5.264422 -0.730991,6.078944 -1.853008,10.461304 -3.984798,16.39234 l -1.324085,2.66963 c -0.279867,0.51132 -0.470009,0.84982 -0.703555,1.25623 l -0.773848,1.02224 -1.666311,4.04798 -0.935229,1.85524 z" /><path
     d="m 58.796506,26.056799 c -9.049006,-0.05663 -18.168274,1.759153 -27.380354,4.771733 4.484135,13.212862 15.674129,20.274394 23.462483,31.08457 9.786757,13.583967 10.075265,28.599671 6.496076,44.264378 l 0.773858,-1.02224 C 70.89728,90.115989 70.034135,71.090417 60.663083,56.507345 56.174866,49.522843 49.110793,44.429059 45.784902,36.684929 c 4.803404,-1.630384 9.317822,-3.493125 14.368759,-4.307438 14.738432,-2.376167 27.3591,2.411047 39.665058,10.030463 C 96.565887,37.870406 90.638973,34.972012 85.747148,32.517956 76.823427,28.041217 67.845501,26.113472 58.796506,26.056799 Z"
     style="fill:#ffffff;fill-opacity:1;stroke-width:0.997166"
     id="path1" /></svg>
