<?xml version="1.0" encoding="UTF-8" standalone="no"?>
<!-- Created with Inkscape (http://www.inkscape.org/) -->

<svg
   version="1.0"
   width="128"
   height="128"
   id="svg4292"
   xml:space="preserve"
   xmlns:xlink="http://www.w3.org/1999/xlink"
   xmlns="http://www.w3.org/2000/svg"
   xmlns:svg="http://www.w3.org/2000/svg"><defs
     id="defs4294"><radialGradient
       id="radialGradient5"
       cx="0"
       cy="0"
       r="1"
       gradientUnits="userSpaceOnUse"
       gradientTransform="matrix(0,373,-432,0,256,-9)"><stop
         stop-color="#0083FF"
         id="stop4" /><stop
         offset="0.78"
         stop-color="#19181A"
         id="stop5" /></radialGradient><linearGradient
       id="linearGradient1571"><stop
         style="stop-color:#003466;stop-opacity:1;"
         offset="0"
         id="stop1567" /><stop
         style="stop-color:#008eff;stop-opacity:1;"
         offset="0.03567462"
         id="stop1575" /><stop
         style="stop-color:#003966;stop-opacity:1;"
         offset="0.07302466"
         id="stop1577" /><stop
         style="stop-color:#003966;stop-opacity:1;"
         offset="0.92681795"
         id="stop1579" /><stop
         style="stop-color:#008eff;stop-opacity:1;"
         offset="0.96064132"
         id="stop1581" /><stop
         style="stop-color:#003966;stop-opacity:1;"
         offset="1"
         id="stop1569" /></linearGradient><linearGradient
       xlink:href="#linearGradient1571"
       id="linearGradient1573"
       x1="12"
       y1="66"
       x2="116"
       y2="66"
       gradientUnits="userSpaceOnUse" /><filter
       id="filter0_d_3_44"
       x="23.9618"
       y="154"
       width="452.076"
       height="182.684"
       filterUnits="userSpaceOnUse"
       color-interpolation-filters="sRGB"><feFlood
         flood-opacity="0"
         result="BackgroundImageFix"
         id="feFlood14" /><feColorMatrix
         in="SourceAlpha"
         type="matrix"
         values="0 0 0 0 0 0 0 0 0 0 0 0 0 0 0 0 0 0 127 0"
         result="hardAlpha"
         id="feColorMatrix14" /><feOffset
         dy="12"
         id="feOffset14" /><feGaussianBlur
         stdDeviation="4.2"
         id="feGaussianBlur14" /><feColorMatrix
         type="matrix"
         values="0 0 0 0 0.0588235 0 0 0 0 0.0588235 0 0 0 0 0.0588235 0 0 0 0.75 0"
         id="feColorMatrix15" /><feBlend
         mode="normal"
         in2="BackgroundImageFix"
         result="effect1_dropShadow_3_44"
         id="feBlend15" /><feBlend
         mode="normal"
         in="SourceGraphic"
         in2="effect1_dropShadow_3_44"
         result="shape"
         id="feBlend16" /></filter><radialGradient
       xlink:href="#radialGradient5"
       id="radialGradient4"
       cx="28.298664"
       cy="47.701336"
       fx="28.298664"
       fy="47.701336"
       r="52"
       gradientTransform="matrix(0,1.3731283,-1.6650811,0,143.42659,-26.857696)"
       gradientUnits="userSpaceOnUse" /></defs><rect
     style="display:inline;fill:url(#linearGradient1573);fill-opacity:1;stroke:none;stroke-width:0.25;stroke-linecap:butt;stroke-linejoin:miter;stroke-miterlimit:4;stroke-dasharray:none;stroke-dashoffset:0;stroke-opacity:1;marker:none;marker-start:none;marker-mid:none;marker-end:none;paint-order:normal;enable-background:new"
     id="rect1711-5"
     width="104"
     height="100"
     x="12"
     y="16"
     rx="8"
     ry="8" /><rect
     style="display:inline;fill:url(#radialGradient4);stroke:none;stroke-width:0.25;stroke-linecap:butt;stroke-linejoin:miter;stroke-miterlimit:4;stroke-dasharray:none;stroke-dashoffset:0;stroke-opacity:1;marker:none;marker-start:none;marker-mid:none;marker-end:none;paint-order:normal;enable-background:new"
     id="rect2"
     width="104"
     height="100"
     x="12"
     y="12"
     rx="8"
     ry="8" /><path
     id="path8"
     style="stroke-width:0.195382;fill:#0083ff;fill-opacity:1"
     d="m 91.8514,80.100707 c 0.896805,0.868669 1.480998,2.121656 1.480998,3.588196 0,1.26725 -0.455436,2.563025 -1.480998,3.559866 -0.882933,0.854212 -2.078868,1.395616 -3.673774,1.395616 -1.779738,0 -2.990327,-0.711973 -3.702104,-1.395616 -0.911459,-0.854211 -1.481194,-2.135724 -1.481194,-3.53134 0,-1.395616 0.612328,-2.748053 1.46654,-3.602655 0.641049,-0.641049 1.822526,-1.395616 3.716367,-1.395616 1.481194,0 2.719918,0.455436 3.673774,1.381158 z m -5.7671,1.452472 c -0.412843,0.39858 -0.840144,1.096485 -0.840144,2.150182 0,0.86867 0.284672,1.566576 0.868865,2.136115 0.612328,0.583803 1.29558,0.783288 2.036079,0.783288 0.968315,0 1.651958,-0.355987 2.107589,-0.811423 0.370054,-0.355986 0.825881,-1.025171 0.825881,-2.121656 0,-0.982383 -0.39858,-1.708814 -0.825881,-2.135725 -0.47009,-0.455631 -1.224852,-0.811423 -2.093521,-0.811423 -0.86867,0 -1.566576,0.299131 -2.078868,0.811423 z m -6.194206,-2.620468 v 9.498121 h -2.192972 v -9.498121 z m -10.409189,1.95e-4 c 1.252987,0 2.577093,0.185027 3.745088,1.310039 0.839949,0.811423 1.366895,1.922562 1.366895,3.403169 0,1.480608 -0.512683,2.577093 -1.29558,3.360381 -1.310234,1.324301 -2.947734,1.423946 -3.745089,1.423946 h -3.075708 v -9.497925 h 3.004394 z m -0.811814,7.646679 h 0.583607 c 0.455632,0 1.452472,-0.04259 2.164446,-0.640854 0.512683,-0.427302 0.925526,-1.23892 0.925526,-2.292617 0,-1.053697 -0.412843,-1.680288 -0.783288,-2.050342 -0.711973,-0.711778 -1.637499,-0.811423 -2.306684,-0.811423 h -0.583607 v 5.795626 z m -5.695786,-2.022012 c 0,0.911458 -0.114103,2.036079 -1.053697,3.004394 -0.911458,0.939789 -1.96535,1.082418 -2.9618,1.082418 -0.99645,0 -2.050342,-0.142238 -2.961801,-1.082418 -0.939594,-0.968315 -1.053697,-2.093326 -1.053697,-3.004394 v -5.624862 h 2.192971 v 5.567615 c 0,0.412843 0.02872,1.110553 0.498225,1.59471 0.384708,0.412843 0.911459,0.498225 1.324302,0.498225 0.412843,0 0.939593,-0.08538 1.324301,-0.498225 0.47009,-0.484157 0.498225,-1.181867 0.498225,-1.59471 v -5.567615 h 2.192971 z M 50.300417,80.783959 v 7.646873 h -2.192972 v -7.646873 h -2.0648 v -1.851248 h 6.322181 v 1.851248 h -2.0648 z m -7.689467,0.470089 c -0.711974,-0.641049 -1.324302,-0.683642 -1.594711,-0.683642 -0.29913,0 -0.669184,0.04259 -0.925526,0.327265 -0.142434,0.142238 -0.241883,0.355987 -0.241883,0.598261 0,0.22762 0.07131,0.39858 0.213553,0.52675 0.227815,0.213749 0.555472,0.299131 1.19613,0.541014 l 0.711778,0.270605 c 0.412843,0.156696 0.925722,0.370054 1.295776,0.72604 0.555472,0.526751 0.69771,1.210003 0.69771,1.765671 0,0.982382 -0.341919,1.836984 -0.840144,2.349277 -0.839949,0.882932 -2.064801,0.968315 -2.691196,0.968315 -0.683252,0 -1.281513,-0.09964 -1.879774,-0.398776 -0.484157,-0.241688 -1.039629,-0.683643 -1.395616,-1.039629 l 1.139275,-1.56638 c 0.241883,0.241688 0.626395,0.569539 0.882932,0.725845 0.370055,0.227816 0.754567,0.341919 1.195936,0.341919 0.285063,0 0.683642,-0.05686 0.997036,-0.327265 0.185027,-0.156892 0.341723,-0.412843 0.341723,-0.76883 0,-0.313198 -0.12817,-0.512683 -0.327265,-0.683252 -0.256342,-0.213748 -0.840144,-0.427301 -1.110553,-0.526946 l -0.783288,-0.270409 c -0.441369,-0.156892 -0.954247,-0.355987 -1.324301,-0.754567 -0.498225,-0.526946 -0.56954,-1.19613 -0.56954,-1.652153 0,-0.839948 0.256342,-1.551921 0.825881,-2.135724 0.669185,-0.683643 1.46654,-0.86867 2.349473,-0.86867 0.655117,0 1.708814,0.114104 2.819367,0.939594 l -0.982383,1.594906 z" /><g
     filter="url(#filter0_d_3_44)"
     id="g14"
     transform="matrix(0.19538233,0,0,0.19538233,15.154457,12)"
     style="fill:none"><path
       d="m 460.051,264.536 c -2.246,-0.272 -8.521,7.614 -13.598,1.994 -4.215,-4.667 6.209,-14.12 7.795,-17.766 3.529,-8.116 -8.338,-8.702 -13.052,-14.866 -3.041,-4.053 4.852,-16.505 -5.028,-19.798 -3.226,-1.074 -13.203,4.928 -9.655,22.155 -4.534,17.042 -35.626,47.559 -43.659,34.838 -1.675,-2.652 1.841,-7.808 9.755,-9.455 13.052,-2.72 12.027,-10.798 5.801,-11.602 -9.791,-1.27 -12.509,-1.27 -24.178,-4.001 -4.602,-0.486 -4.451,-6.599 0.972,-6.514 2.244,-0.091 7.786,0.639 19.76,1.087 10.339,0.386 13.84,-6.149 14.466,-11.829 0.259,-2.391 -2.074,-3.024 -5.104,-2.33 -9.591,1.956 -11.991,2.461 -21.69,2.374 -11.577,-0.106 -25.846,3.23 -26.107,13.416 -0.259,10.118 12.974,12.385 19.851,14.322 1.905,0.452 2.629,1.994 1.361,2.992 -2.94,2.348 -9.57,5.446 -10.359,10.977 -1.122,7.838 6.004,13.978 15.044,13.789 12.035,-0.25 25.331,-5.365 38.101,-20.69 3.608,-4.329 7.657,-11.642 10.152,-14.865 0.601,-1.162 2.321,-1.716 3.081,-1.633 2.282,0.507 5.512,2.234 5.077,4.714 -0.663,3.792 -10.984,15.611 -4.111,22.73 4.221,4.372 14.855,7.545 23.327,1.383 7.931,-5.767 5.136,-11.04 1.994,-11.422 z"
       fill="#ffffff"
       id="path9" /><path
       d="m 286.55,273.783 c -6.79,-1.567 10.43,-31.621 1.994,-38.252 -10.895,-8.566 -21.716,6.232 -29.551,16.679 -3.089,4.121 -5.378,2.312 -7.385,-3.489 -2.234,-6.451 -15.632,-1.737 -23.323,2.234 -12.269,6.332 -34.933,27.514 -37.046,16.949 -0.365,-1.824 2.593,-5.893 8.109,-7.899 6.468,-2.353 13.779,-4.449 13.779,-8.341 0,-3.009 -1.824,-5.121 -3.761,-5.015 -9.026,0.501 -19.511,2.888 -31.525,-0.416 -3.192,-0.788 -3.905,-6.908 4.204,-6.007 2.147,0.238 6.926,0.917 25.1,0.923 9.438,0.002 12.152,-7.045 10.702,-12.177 -0.442,-1.2 -1.453,-1.452 -2.778,-1.136 -8.582,2.208 -12.616,1.709 -23.879,1.709 -11.818,0 -27.737,1.631 -27.058,13.021 0.574,9.578 14.021,12.209 20.985,12.997 1.994,-0.181 2.629,1.722 1.179,2.72 -3.143,3.183 -6.767,7.586 -7.251,11.149 -1.051,7.708 2.907,14.698 12.691,14.322 14.878,-0.571 33.685,-27.582 45.068,-26.936 0.966,0 2.376,0.295 2.287,2.153 -1.486,7.015 -3.119,11.729 -1.306,17.713 1.276,4.215 6.861,6.847 10.878,3.807 6.708,-5.077 6.797,-7.967 15.492,-19.403 1.44,-1.892 6.723,-10.577 9.162,-9.424 2.028,0.958 1.465,3.771 1.087,5.984 -1.828,10.708 -6.469,27.631 14.686,25.019 5.032,-0.62 9.081,-4.013 5.257,-7.614 -2.31,-2.176 -4.894,-0.599 -7.795,-1.27 z"
       fill="#ffffff"
       id="path10" /><path
       d="m 183.213,215.043 c 1.393,-7.457 0.017,-7.432 -3.674,-6.36 0,0 -19.328,6.063 -23.7,7.267 -3.971,1.095 -3.846,0.59 -3.081,-2.357 0,0 0.42,-1.565 1.813,-7.795 7.03,-31.466 2.96,-39.819 -2.72,-44.599 -14.379,-11.887 -66.8793,12.783 -104.4287,42.422 -12.5086,10.878 -19.762,13.416 -11.602,22.117 5.198,5.128 9.7738,3.739 11.9651,1.814 8.0008,-7.479 20.932,-19.684 31.5445,-27.92 14.3199,-11.112 33.1771,-25.2 50.2191,-29.188 13.522,-3.427 17.586,0.544 15.773,14.322 -1.066,11.827 -10.152,38.435 -10.152,38.435 0,0 -13.961,6.245 -18.129,7.797 -3.396,1.263 -6.952,2.507 -7.122,8.049 -0.365,8.165 5.451,5.043 7.933,3.905 2.682,-1.231 8.413,-4.153 10.61,-5.064 3.463,-1.435 3.4,-0.52 2.538,2.174 -1.631,5.258 -4.574,13.775 -10.152,26.107 -7.071,16.862 -19.762,39.885 -21.3929,45.686 0.1805,3.807 4.3509,4.351 9.8399,4.429 5.051,-0.388 7.383,-3.885 7.383,-3.885 0,0 6.571,-14.099 16.674,-38.966 7.339,-18.061 12.127,-32.984 14.146,-39.715 1.276,-4.238 1.465,-3.954 6.527,-5.621 7.181,-1.996 10.42,-2.841 15.04,-4.077 9.999,-2.467 12.855,-2.046 14.15,-8.975 z"
       fill="#ffffff"
       id="path11" /><path
       d="m 359.007,271.677 c -3.562,-2.79 -5.96,2.688 -11.903,1.924 -12.689,-1.631 1.535,-38.492 8.884,-61.459 6.268,-19.588 13.205,-33.655 19.159,-49.533 3.831,-10.214 -8.41,-9.712 -12.855,-6.748 -4.289,2.858 -20.012,51.788 -26.578,76.95 0,0 -1.414,5.279 -3.295,17.333 -0.302,1.956 -1.312,9.547 -1.748,11.918 -1.63,8.884 -7.994,13.673 -13.479,12.63 -6.847,-1.306 -7.816,-11.472 -5.983,-19.036 2.008,-8.291 8.884,-17.609 16.742,-15.339 3.786,0.883 5.678,0.378 5.931,-2.144 0.327,-3.258 -3.533,-5.175 -3.533,-5.175 -15.063,-7.58 -28.555,4.784 -32.012,22.295 -4.034,20.437 8.614,36.734 29.134,25.081 6.422,-3.648 6.105,4.814 20.54,4.289 10.493,-1.023 16.443,-8.718 10.996,-12.984 z"
       fill="#ffffff"
       id="path12" /><path
       d="m 463.549,225.727 c -0.013,-0.21 -0.019,-0.407 -0.019,-0.592 v -0.582 c 0,-0.401 -0.147,-0.811 -0.436,-1.233 -0.288,-0.421 -0.745,-0.68 -1.369,-0.78 0.492,-0.078 0.877,-0.206 1.153,-0.384 0.52,-0.335 0.779,-0.858 0.779,-1.567 0,-1 -0.412,-1.669 -1.234,-2.011 -0.46,-0.191 -1.182,-0.286 -2.17,-0.286 h -2.781 v 7.947 h 1.401 v -3.136 h 1.104 c 0.743,0 1.262,0.085 1.557,0.257 0.501,0.295 0.749,0.904 0.749,1.824 v 0.631 l 0.03,0.256 c 0.006,0.034 0.013,0.062 0.021,0.09 0.007,0.027 0.013,0.053 0.019,0.078 h 1.313 l -0.051,-0.097 c -0.032,-0.066 -0.058,-0.204 -0.068,-0.415 z m -2.081,-3.777 c -0.295,0.119 -0.739,0.178 -1.332,0.178 h -1.261 v -2.879 h 1.194 c 0.775,0 1.337,0.098 1.686,0.295 0.354,0.198 0.53,0.586 0.53,1.164 0,0.611 -0.271,1.025 -0.817,1.242 z"
       fill="#ffffff"
       id="path13" /><path
       d="m 465.521,217.177 c -1.414,-1.408 -3.123,-2.111 -5.128,-2.111 -1.992,0 -3.692,0.703 -5.098,2.111 -1.414,1.414 -2.121,3.115 -2.121,5.107 0,1.991 0.701,3.724 2.1,5.138 1.405,1.421 3.111,2.13 5.117,2.13 2.007,0 3.714,-0.709 5.128,-2.13 1.412,-1.42 2.119,-3.132 2.119,-5.138 0,-1.998 -0.707,-3.701 -2.119,-5.107 z m -0.72,9.547 c -1.21,1.223 -2.679,1.834 -4.408,1.834 -1.728,0 -3.198,-0.611 -4.408,-1.834 -1.204,-1.223 -1.805,-2.703 -1.805,-4.438 0,-1.735 0.605,-3.192 1.816,-4.408 1.214,-1.223 2.682,-1.835 4.397,-1.835 1.716,0 3.192,0.612 4.408,1.835 1.208,1.216 1.814,2.686 1.814,4.408 0,1.722 -0.606,3.215 -1.814,4.438 z"
       fill="#ffffff"
       id="path14" /></g></svg>
