<?xml version="1.0" encoding="UTF-8" standalone="no"?>
<svg
   width="128"
   height="128"
   viewBox="0 0 128 128"
   version="1.1"
   id="svg29"
   xml:space="preserve"
   xmlns:xlink="http://www.w3.org/1999/xlink"
   xmlns="http://www.w3.org/2000/svg"
   xmlns:svg="http://www.w3.org/2000/svg"><defs
     id="defs15"><linearGradient
       id="linearGradient14"><stop
         style="stop-color:#b3bfd5;stop-opacity:0.698"
         offset="0"
         id="stop14" /><stop
         style="stop-color:#b3bfd5;stop-opacity:0;"
         offset="1"
         id="stop15" /></linearGradient><linearGradient
       id="linearGradient12"><stop
         style="stop-color:#b0bfcd;stop-opacity:0.8"
         offset="0"
         id="stop12" /><stop
         style="stop-color:#b0bfcd;stop-opacity:0;"
         offset="1"
         id="stop13" /></linearGradient><linearGradient
       id="linearGradient10"><stop
         style="stop-color:#bac4d3;stop-opacity:1;"
         offset="0"
         id="stop10" /><stop
         style="stop-color:#bac4d3;stop-opacity:0;"
         offset="1"
         id="stop11" /></linearGradient><linearGradient
       id="linearGradient2"><stop
         style="stop-color:#794dc9;stop-opacity:1;"
         offset="0.49056208"
         id="stop2" /><stop
         style="stop-color:#353178;stop-opacity:1;"
         offset="1"
         id="stop3" /></linearGradient><linearGradient
       id="a-9"
       gradientUnits="userSpaceOnUse"
       x1="0"
       y1="269.46301"
       x2="118.926"
       y2="269.46301"
       gradientTransform="matrix(1,0,0,0.98333333,5e-6,-168.03333)"><stop
         offset="0"
         stop-color="#e5a50a"
         id="stop1-5"
         style="stop-color:#787878;stop-opacity:1;" /><stop
         offset="0.414"
         stop-color="#fbdf9b"
         id="stop2-1"
         style="stop-color:#cbcbcb;stop-opacity:1;" /><stop
         offset="0.81300002"
         stop-color="#e5a50a"
         id="stop3-6"
         style="stop-color:#787878;stop-opacity:1;" /><stop
         offset="1"
         stop-color="#f8ca5b"
         id="stop4-6"
         style="stop-color:#a9a9a9;stop-opacity:1;" /></linearGradient><linearGradient
       xlink:href="#linearGradient2"
       id="linearGradient3"
       x1="90.179161"
       y1="12.515294"
       x2="28.181448"
       y2="101.72628"
       gradientUnits="userSpaceOnUse"
       gradientTransform="translate(5,5)" /><linearGradient
       xlink:href="#linearGradient10"
       id="linearGradient11"
       x1="64.880928"
       y1="54.111328"
       x2="76.281052"
       y2="50.268692"
       gradientUnits="userSpaceOnUse" /><linearGradient
       xlink:href="#linearGradient12"
       id="linearGradient13"
       x1="62.402412"
       y1="60.767281"
       x2="81.376007"
       y2="78.562531"
       gradientUnits="userSpaceOnUse" /><linearGradient
       xlink:href="#linearGradient14"
       id="linearGradient15"
       x1="49.270145"
       y1="75.861656"
       x2="65.851632"
       y2="75.634811"
       gradientUnits="userSpaceOnUse" /><filter
       style="color-interpolation-filters:sRGB;"
       id="filter20"
       x="-0.17777724"
       y="-0.17777747"
       width="1.3555545"
       height="1.3555549"><feFlood
         result="flood"
         in="SourceGraphic"
         flood-opacity="0.400000"
         flood-color="rgb(0,0,0)"
         id="feFlood19" /><feGaussianBlur
         result="blur"
         in="SourceGraphic"
         stdDeviation="4.000000"
         id="feGaussianBlur19" /><feOffset
         result="offset"
         in="blur"
         dx="0.000000"
         dy="0.000000"
         id="feOffset19" /><feComposite
         result="comp1"
         operator="in"
         in="flood"
         in2="offset"
         id="feComposite19" /><feComposite
         result="comp2"
         operator="over"
         in="SourceGraphic"
         in2="comp1"
         id="feComposite20" /></filter></defs><path
     d="M 124.00001,65.999999 C 124.00001,98.584719 97.137005,125 64.000005,125 c -33.137,0 -60,-26.415281 -60,-59.000001 0,-32.584717 26.863,-58.9999996 60,-58.9999996 33.137,0 60.000005,26.4152826 60.000005,58.9999996 z m 0,0"
     fill="url(#a)"
     id="path4"
     style="fill:url(#a-9);stroke-width:0.991632" /><text
     style="font-style:normal;font-weight:400;font-size:13.8828px;font-family:Arial;fill:#ffffff;fill-opacity:1;fill-rule:evenodd;stroke:none;stroke-width:0.991632;stroke-linecap:square;stroke-linejoin:bevel;stroke-opacity:1"
     id="text1476"
     font-style="normal"
     font-weight="400"
     font-size="14"
     y="-67.545097"
     x="-183.452"
     xml:space="preserve"
     transform="scale(1.008439,0.99163165)" /><ellipse
     style="display:inline;fill:#ffffff;fill-opacity:1;stroke-width:2.12492"
     cx="64"
     cy="62"
     id="circle2"
     rx="60"
     ry="59" /><ellipse
     style="display:inline;fill:url(#linearGradient3);stroke-width:1.94634"
     cx="64"
     cy="62"
     id="ellipse1"
     rx="55"
     ry="54" /><path
     id="path20"
     style="fill:#d7d4eb;fill-opacity:1;stroke:none;stroke-width:1.30663;filter:url(#filter20)"
     d="m -67.794712,9.5999997 c -2.269844,2e-6 -2.494129,5.5253883 -2.494129,5.5253883 -1.47488,10.788661 -6.678027,17.215339 -19.021495,19.021484 0,0 -5.518417,0.316594 -5.484373,2.453125 0.03832,2.405065 5.484373,2.453125 5.484373,2.453125 12.263129,1.588295 17.433194,7.835851 19.021495,19.021484 0,0 0.202545,5.551266 2.494129,5.525396 2.400127,-0.0271 2.494143,-5.525396 2.494143,-5.525396 1.815142,-11.185633 6.928496,-17.66003 19.021494,-19.021484 0,0 5.484373,-0.124706 5.484373,-2.453125 0,-2.366742 -5.484373,-2.453125 -5.484373,-2.453125 -10.67524,-1.418164 -17.546614,-8.119403 -19.021494,-19.021484 0,0 -0.03268,-5.5253903 -2.494143,-5.5253883 z"
     transform="matrix(0.19334148,0,0,0.19334148,54.367284,16.200866)" /><path
     id="path21"
     style="fill:#c7c6ea;fill-opacity:1;stroke:none;stroke-width:1.30663;filter:url(#filter20)"
     d="m -67.794712,9.5999997 c -2.269844,2e-6 -2.494129,5.5253883 -2.494129,5.5253883 -1.47488,10.788661 -6.678027,17.215339 -19.021495,19.021484 0,0 -5.518417,0.316594 -5.484373,2.453125 0.03832,2.405065 5.484373,2.453125 5.484373,2.453125 12.263129,1.588295 17.433194,7.835851 19.021495,19.021484 0,0 0.202545,5.551266 2.494129,5.525396 2.400127,-0.0271 2.494143,-5.525396 2.494143,-5.525396 1.815142,-11.185633 6.928496,-17.66003 19.021494,-19.021484 0,0 5.484373,-0.124706 5.484373,-2.453125 0,-2.366742 -5.484373,-2.453125 -5.484373,-2.453125 -10.67524,-1.418164 -17.546614,-8.119403 -19.021494,-19.021484 0,0 -0.03268,-5.5253903 -2.494143,-5.5253883 z"
     transform="matrix(0.19334148,0,0,0.19334148,87.871805,20.105383)" /><path
     id="path22"
     style="fill:#a7aeda;fill-opacity:1;stroke:none;stroke-width:1.30663;filter:url(#filter20)"
     d="m -67.794712,9.5999997 c -2.269844,2e-6 -2.494129,5.5253883 -2.494129,5.5253883 -1.47488,10.788661 -6.678027,17.215339 -19.021495,19.021484 0,0 -5.518417,0.316594 -5.484373,2.453125 0.03832,2.405065 5.484373,2.453125 5.484373,2.453125 12.263129,1.588295 17.433194,7.835851 19.021495,19.021484 0,0 0.202545,5.551266 2.494129,5.525396 2.400127,-0.0271 2.494143,-5.525396 2.494143,-5.525396 1.815142,-11.185633 6.928496,-17.66003 19.021494,-19.021484 0,0 5.484373,-0.124706 5.484373,-2.453125 0,-2.366742 -5.484373,-2.453125 -5.484373,-2.453125 -10.67524,-1.418164 -17.546614,-8.119403 -19.021494,-19.021484 0,0 -0.03268,-5.5253903 -2.494143,-5.5253883 z"
     transform="matrix(0.19334148,0,0,0.19334148,89.664297,43.680966)" /><path
     id="path23"
     style="fill:#7886de;fill-opacity:1;stroke:none;stroke-width:1.30663;filter:url(#filter20)"
     d="m -67.794712,9.5999997 c -2.269844,2e-6 -2.494129,5.5253883 -2.494129,5.5253883 -1.47488,10.788661 -6.678027,17.215339 -19.021495,19.021484 0,0 -5.518417,0.316594 -5.484373,2.453125 0.03832,2.405065 5.484373,2.453125 5.484373,2.453125 12.263129,1.588295 17.433194,7.835851 19.021495,19.021484 0,0 0.202545,5.551266 2.494129,5.525396 2.400127,-0.0271 2.494143,-5.525396 2.494143,-5.525396 1.815142,-11.185633 6.928496,-17.66003 19.021494,-19.021484 0,0 5.484373,-0.124706 5.484373,-2.453125 0,-2.366742 -5.484373,-2.453125 -5.484373,-2.453125 -10.67524,-1.418164 -17.546614,-8.119403 -19.021494,-19.021484 0,0 -0.03268,-5.5253903 -2.494143,-5.5253883 z"
     transform="matrix(0.19334148,0,0,0.19334148,103.21818,83.745028)" /><path
     id="path24"
     style="fill:#818fe1;fill-opacity:1;stroke:none;stroke-width:1.30663;filter:url(#filter20)"
     d="m -67.794712,9.5999997 c -2.269844,2e-6 -2.494129,5.5253883 -2.494129,5.5253883 -1.47488,10.788661 -6.678027,17.215339 -19.021495,19.021484 0,0 -5.518417,0.316594 -5.484373,2.453125 0.03832,2.405065 5.484373,2.453125 5.484373,2.453125 12.263129,1.588295 17.433194,7.835851 19.021495,19.021484 0,0 0.202545,5.551266 2.494129,5.525396 2.400127,-0.0271 2.494143,-5.525396 2.494143,-5.525396 1.815142,-11.185633 6.928496,-17.66003 19.021494,-19.021484 0,0 5.484373,-0.124706 5.484373,-2.453125 0,-2.366742 -5.484373,-2.453125 -5.484373,-2.453125 -10.67524,-1.418164 -17.546614,-8.119403 -19.021494,-19.021484 0,0 -0.03268,-5.5253903 -2.494143,-5.5253883 z"
     transform="matrix(0.19334148,0,0,0.19334148,66.869734,91.986859)" /><path
     id="path25"
     style="fill:#8f97c6;fill-opacity:1;stroke:none;stroke-width:1.30663;filter:url(#filter20)"
     d="m -67.794712,9.5999997 c -2.269844,2e-6 -2.494129,5.5253883 -2.494129,5.5253883 -1.47488,10.788661 -6.678027,17.215339 -19.021495,19.021484 0,0 -5.518417,0.316594 -5.484373,2.453125 0.03832,2.405065 5.484373,2.453125 5.484373,2.453125 12.263129,1.588295 17.433194,7.835851 19.021495,19.021484 0,0 0.202545,5.551266 2.494129,5.525396 2.400127,-0.0271 2.494143,-5.525396 2.494143,-5.525396 1.815142,-11.185633 6.928496,-17.66003 19.021494,-19.021484 0,0 5.484373,-0.124706 5.484373,-2.453125 0,-2.366742 -5.484373,-2.453125 -5.484373,-2.453125 -10.67524,-1.418164 -17.546614,-8.119403 -19.021494,-19.021484 0,0 -0.03268,-5.5253903 -2.494143,-5.5253883 z"
     transform="matrix(0.19334148,0,0,0.19334148,60.211216,63.772109)" /><path
     id="path208"
     style="fill:#dceafa;fill-opacity:1;stroke:none;stroke-width:1.30663;filter:url(#filter20)"
     d="m 64.000068,34.49805 c -2.269844,2e-6 -2.494129,5.525388 -2.494129,5.525388 -1.47488,10.788661 -6.678027,17.215339 -19.021495,19.021484 0,0 -5.518417,0.316594 -5.484373,2.453125 0.03832,2.405065 5.484373,2.453125 5.484373,2.453125 12.263129,1.588295 17.433194,7.835851 19.021495,19.021484 0,0 0.202545,5.551266 2.494129,5.525396 2.400127,-0.0271 2.494143,-5.525396 2.494143,-5.525396 1.815142,-11.185633 6.928496,-17.66003 19.021494,-19.021484 0,0 5.484373,-0.124706 5.484373,-2.453125 0,-2.366742 -5.484373,-2.453125 -5.484373,-2.453125 -10.67524,-1.418164 -17.546614,-8.119403 -19.021494,-19.021484 0,0 -0.03268,-5.52539 -2.494143,-5.525388 z" /><path
     id="path10"
     style="fill:url(#linearGradient15);fill-opacity:1;stroke:none;stroke-width:1.31903"
     d="m 37.701242,62.771484 c 1.479206,1.14932 4.783203,1.179688 4.783203,1.179688 12.263129,1.588295 17.433183,7.835851 19.021484,19.021484 0,0 0.202557,5.551261 2.494141,5.525391 0.907112,-0.01024 1.483844,-0.802135 1.851562,-1.783203 v -8.705078 c 0,-8.441904 -5.083769,-15.238282 -11.398437,-15.238282 z" /><path
     id="rect3"
     style="opacity:0.8;fill:url(#linearGradient11);fill-opacity:1;stroke:none;stroke-width:1.31903"
     d="M 90.798898,60.767578 C 89.809831,59.112447 85.515695,59.044922 85.515695,59.044922 74.840455,57.626758 67.969091,50.925519 66.494211,40.023438 c 0,0 -0.02429,-4.11685 -1.613282,-5.244141 v 19.332031 c 0,3.687779 2.901488,6.65625 6.50586,6.65625 z" /><path
     id="path9"
     style="fill:url(#linearGradient13);fill-opacity:1;stroke:none;stroke-width:1.31903"
     d="m 62.402414,87.222656 c 0.365819,0.74388 0.880111,1.283491 1.597656,1.275391 2.400127,-0.0271 2.494141,-5.525391 2.494141,-5.525391 1.815142,-11.185633 6.928486,-17.66003 19.021484,-19.021484 0,0 5.484375,-0.124706 5.484375,-2.453125 0,-0.27216 -0.07281,-0.515282 -0.201172,-0.730469 -0.05497,-6.73e-4 -0.11088,0 -0.166016,0 H 75.486398 c -7.247718,0 -13.083984,5.834313 -13.083984,13.082031 z" /></svg>
