<?xml version="1.0" encoding="UTF-8" standalone="no"?>
<svg
   viewBox="0 0 128 128"
   style="display:inline;enable-background:new"
   version="1.0"
   id="svg11300"
   height="128"
   width="128"
   xml:space="preserve"
   xmlns:xlink="http://www.w3.org/1999/xlink"
   xmlns="http://www.w3.org/2000/svg"
   xmlns:svg="http://www.w3.org/2000/svg"
   xmlns:rdf="http://www.w3.org/1999/02/22-rdf-syntax-ns#"
   xmlns:cc="http://creativecommons.org/ns#"
   xmlns:dc="http://purl.org/dc/elements/1.1/"><title
     id="title4162">Adwaita Icon Template</title><defs
     id="defs3"><linearGradient
       id="linearGradient10"><stop
         style="stop-color:#000000;stop-opacity:1;"
         offset="0"
         id="stop5" /><stop
         id="stop6"
         offset="0.04166667"
         style="stop-color:#ffffff;stop-opacity:1;" /><stop
         style="stop-color:#000000;stop-opacity:1;"
         offset="0.08333334"
         id="stop7" /><stop
         id="stop8"
         offset="0.91666669"
         style="stop-color:#000000;stop-opacity:1;" /><stop
         style="stop-color:#ffffff;stop-opacity:1;"
         offset="0.95833331"
         id="stop9" /><stop
         style="stop-color:#000000;stop-opacity:1;"
         offset="1"
         id="stop10" /></linearGradient><linearGradient
       id="a-6"
       gradientTransform="matrix(1.2165615,0,0,1.1746111,-132.33154,12.633423)"
       x1="0"
       y1="0"
       x2="85.486841"
       y2="0"
       gradientUnits="userSpaceOnUse"><stop
         offset="0"
         stop-color="#6d7cff"
         id="stop1-0" /><stop
         offset="1"
         stop-color="#ff51ff"
         id="stop2-6" /></linearGradient><linearGradient
       xlink:href="#a-6"
       id="linearGradient4"
       gradientUnits="userSpaceOnUse"
       gradientTransform="matrix(1.2165615,0,0,1.1746111,12,15.999993)"
       x1="0"
       y1="0"
       x2="85.486841"
       y2="0" /><linearGradient
       xlink:href="#linearGradient10"
       id="linearGradient5"
       gradientUnits="userSpaceOnUse"
       gradientTransform="matrix(1.2165615,0,0,1.1746111,12,15.999993)"
       x1="0"
       y1="0"
       x2="85.486839"
       y2="0" /><linearGradient
       xlink:href="#a-6"
       id="linearGradient11"
       gradientUnits="userSpaceOnUse"
       gradientTransform="matrix(1.2165615,0,0,1.1746111,12,11.999993)"
       x1="0"
       y1="0"
       x2="85.486841"
       y2="0" /></defs><metadata
     id="metadata4"><rdf:RDF><cc:Work
         rdf:about=""><dc:format>image/svg+xml</dc:format><dc:type
           rdf:resource="http://purl.org/dc/dcmitype/StillImage" /><dc:creator><cc:Agent><dc:title>GNOME Design Team</dc:title></cc:Agent></dc:creator><dc:source /><cc:license
           rdf:resource="http://creativecommons.org/licenses/by-sa/4.0/" /><dc:title>Adwaita Icon Template</dc:title><dc:subject><rdf:Bag /></dc:subject><dc:date /><dc:rights><cc:Agent><dc:title /></cc:Agent></dc:rights><dc:publisher><cc:Agent><dc:title /></cc:Agent></dc:publisher><dc:identifier /><dc:relation /><dc:language /><dc:coverage /><dc:description /><dc:contributor><cc:Agent><dc:title /></cc:Agent></dc:contributor></cc:Work><cc:License
         rdf:about="http://creativecommons.org/licenses/by-sa/4.0/"><cc:permits
           rdf:resource="http://creativecommons.org/ns#Reproduction" /><cc:permits
           rdf:resource="http://creativecommons.org/ns#Distribution" /><cc:requires
           rdf:resource="http://creativecommons.org/ns#Notice" /><cc:requires
           rdf:resource="http://creativecommons.org/ns#Attribution" /><cc:permits
           rdf:resource="http://creativecommons.org/ns#DerivativeWorks" /><cc:requires
           rdf:resource="http://creativecommons.org/ns#ShareAlike" /></cc:License></rdf:RDF></metadata><rect
     width="104"
     height="100"
     fill="url(#a)"
     rx="8"
     ry="8"
     id="rect4"
     x="11.999997"
     y="15.999992"
     style="fill:url(#linearGradient4);stroke-width:1.1954" /><rect
     width="104"
     height="100"
     fill="url(#a)"
     rx="8"
     ry="8"
     id="rect5"
     x="11.999997"
     y="15.999992"
     style="opacity:0.3;fill:url(#linearGradient5);stroke-width:1.1954" /><rect
     width="104"
     height="100"
     fill="url(#a)"
     rx="8"
     ry="8"
     id="rect2"
     x="11.999997"
     y="11.999992"
     style="fill:url(#linearGradient11);stroke-width:1.1954" /><path
     fill="#48466d"
     d="m 35.90805,44.788683 c 0,-4.877242 4.0022,-8.880644 8.88064,-8.880644 1.18823,0 2.188781,1.000552 2.188781,2.188782 0,1.188229 -1.000551,2.188781 -2.188781,2.188781 -2.50198,0 -4.50308,2.001104 -4.50308,4.503081 0,2.501977 2.0011,4.50308 4.50308,4.50308 a 4.4827586,4.4827586 0 0 0 4.50308,-4.50308 c 0,-1.18823 1.000552,-2.188782 2.187586,-2.188782 1.187035,0 2.189977,1.000552 2.189977,2.188782 0,4.127724 -2.877333,7.630253 -6.691862,8.630804 v 32.646437 c 0,1.187035 -1.000551,2.187586 -2.188781,2.187586 -1.18823,0 -2.18878,-1.000551 -2.18878,-2.187586 V 53.419487 c -3.81453,-1.000551 -6.69186,-4.50308 -6.69186,-8.630804 m 25.641375,-6.691862 v 32.646436 a 8.9177012,8.9177012 0 0 0 -6.691862,8.630805 c 0,4.877241 4.002207,8.879448 8.880644,8.879448 4.878437,0 8.880644,-4.002207 8.880644,-8.880643 0,-1.18823 -1.000552,-2.187587 -2.188782,-2.187587 -1.18823,0 -2.188782,0.999357 -2.188782,2.187587 0,2.501977 -2.001103,4.50308 -4.50308,4.50308 -2.501977,0 -4.503081,-2.001103 -4.503081,-4.50308 0,-2.501977 2.001104,-4.503081 4.503081,-4.503081 1.18823,0 2.188782,-1.000552 2.188782,-2.187586 V 38.095625 c 0,-1.18823 -1.000552,-2.188781 -2.188782,-2.188781 -1.18823,0 -2.188782,0.93839 -2.188782,2.188781 m 21.20046,2.188782 c 1.18823,0 2.188782,-1.000552 2.188782,-2.187586 0,-1.187035 -0.999357,-2.188782 -2.187586,-2.188782 -4.878437,0 -8.88184,4.002207 -8.88184,8.880644 0,4.127724 2.877334,7.630253 6.691863,8.630804 v 32.646437 c 0,1.187035 1.000551,2.187586 2.188781,2.187586 1.18823,0 2.188782,-1.000551 2.188782,-2.187586 V 53.419487 c 3.877885,-1.000551 6.754023,-4.50308 6.754023,-8.630804 0,-1.18823 -0.999357,-2.188782 -2.187586,-2.188782 -1.18823,0 -2.189977,1.000552 -2.189977,2.188782 0,2.501977 -2.001104,4.50308 -4.501886,4.50308 -2.500781,0 -4.50308,-2.001103 -4.50308,-4.50308 0,-2.501977 2.001103,-4.503081 4.439724,-4.503081"
     id="path2"
     style="stroke-width:1.1954" /></svg>
