<?xml version="1.0" encoding="UTF-8" standalone="no"?>
<svg
   viewBox="0 0 128 128"
   style="display:inline;enable-background:new"
   version="1.0"
   id="svg11300"
   height="128"
   width="128"
   xml:space="preserve"
   xmlns:xlink="http://www.w3.org/1999/xlink"
   xmlns="http://www.w3.org/2000/svg"
   xmlns:svg="http://www.w3.org/2000/svg"
   xmlns:rdf="http://www.w3.org/1999/02/22-rdf-syntax-ns#"
   xmlns:cc="http://creativecommons.org/ns#"
   xmlns:dc="http://purl.org/dc/elements/1.1/"><title
     id="title4162">Adwaita Icon Template</title><defs
     id="defs3"><linearGradient
       id="linearGradient974"><stop
         style="stop-color:#575757;stop-opacity:1;"
         offset="0"
         id="stop962" /><stop
         id="stop964"
         offset="0.04166667"
         style="stop-color:#8a8a8a;stop-opacity:1;" /><stop
         style="stop-color:#575757;stop-opacity:1;"
         offset="0.08333334"
         id="stop966" /><stop
         id="stop968"
         offset="0.91666669"
         style="stop-color:#575757;stop-opacity:1;" /><stop
         style="stop-color:#8a8a8a;stop-opacity:1;"
         offset="0.95833331"
         id="stop970" /><stop
         style="stop-color:#575757;stop-opacity:1;"
         offset="1"
         id="stop972" /></linearGradient><linearGradient
       y2="44"
       x2="464"
       y1="44"
       x1="48"
       gradientTransform="matrix(0.25,0,0,0.25,0,53)"
       gradientUnits="userSpaceOnUse"
       id="linearGradient1747"
       xlink:href="#linearGradient974" /></defs><metadata
     id="metadata4"><rdf:RDF><cc:Work
         rdf:about=""><dc:format>image/svg+xml</dc:format><dc:type
           rdf:resource="http://purl.org/dc/dcmitype/StillImage" /><dc:creator><cc:Agent><dc:title>GNOME Design Team</dc:title></cc:Agent></dc:creator><dc:source /><cc:license
           rdf:resource="http://creativecommons.org/licenses/by-sa/4.0/" /><dc:title>Adwaita Icon Template</dc:title><dc:subject><rdf:Bag /></dc:subject><dc:date /><dc:rights><cc:Agent><dc:title /></cc:Agent></dc:rights><dc:publisher><cc:Agent><dc:title /></cc:Agent></dc:publisher><dc:identifier /><dc:relation /><dc:language /><dc:coverage /><dc:description /><dc:contributor><cc:Agent><dc:title /></cc:Agent></dc:contributor></cc:Work><cc:License
         rdf:about="http://creativecommons.org/licenses/by-sa/4.0/"><cc:permits
           rdf:resource="http://creativecommons.org/ns#Reproduction" /><cc:permits
           rdf:resource="http://creativecommons.org/ns#Distribution" /><cc:requires
           rdf:resource="http://creativecommons.org/ns#Notice" /><cc:requires
           rdf:resource="http://creativecommons.org/ns#Attribution" /><cc:permits
           rdf:resource="http://creativecommons.org/ns#DerivativeWorks" /><cc:requires
           rdf:resource="http://creativecommons.org/ns#ShareAlike" /></cc:License></rdf:RDF></metadata><rect
     ry="8"
     rx="8"
     y="32"
     x="12"
     height="83.999992"
     width="104"
     id="rect1709"
     style="display:inline;fill:url(#linearGradient1747);fill-opacity:1;stroke:none;stroke-width:0.25;stroke-linecap:butt;stroke-linejoin:miter;stroke-miterlimit:4;stroke-dasharray:none;stroke-dashoffset:0;stroke-opacity:1;marker:none;marker-start:none;marker-mid:none;marker-end:none;paint-order:normal;enable-background:new" /><path
     id="path18"
     style="fill:#969696"
     d="M 20.830078,12 C 15.955697,12 12,15.952372 12,20.824219 V 103.17578 C 12,108.04763 15.955697,112 20.830078,112 H 107.16992 C 112.0443,112 116,108.04763 116,103.17578 V 20.824219 C 116,15.952372 112.0443,12 107.16992,12 Z" /><path
     style="fill:#1b1b1b;stroke-width:0.980023"
     d="m 21.692307,13.960031 h 84.615383 c 4.26154,0 7.69231,3.428132 7.69231,7.686395 v 80.707144 c 0,4.25826 -3.43077,7.6864 -7.69231,7.6864 H 21.692307 c -4.261539,0 -7.692309,-3.42814 -7.692309,-7.6864 V 21.646426 c 0,-4.258263 3.43077,-7.686395 7.692309,-7.686395 z"
     id="path17" /><style
     id="style1">.st2{fill:#494949}.st3{fill:#3c3c3c;stroke:#969696}.st4{fill:#bcbcbc}.st6,.st7{fill:none;stroke:#111;stroke-width:.75;stroke-miterlimit:10}.st7{stroke:#595959}.st9{fill:#1b1b1b}.st12{opacity:.5}</style><path
     d="m 103.7509,32.438181 c 0,4.640787 -3.767398,8.446232 -8.500799,8.446232 -4.7334,0 -8.5008,-3.805445 -8.5008,-8.446232"
     class="st2"
     id="path1"
     style="stroke-width:0.94689" /><ellipse
     cx="95.153496"
     cy="32.066917"
     class="st3"
     id="circle1"
     rx="8.0178013"
     ry="7.7037058"
     style="stroke-width:0.94689" /><path
     d="m 93.028301,29.746525 c -0.1932,0.185632 -0.482999,0.09282 -0.6762,-0.09282 l -1.6422,-2.041946 c -0.1932,-0.185631 -0.0966,-0.464078 0.0966,-0.64971 0.193201,-0.185631 0.483,-0.09282 0.6762,0.09282 l 1.6422,2.041946 c 0.0966,0.278447 0.0966,0.556895 -0.0966,0.64971"
     class="st4"
     id="path2"
     style="stroke-width:0.94689" /><path
     d="m 86.652701,59.540375 c 0,4.640787 3.7674,8.446232 8.5008,8.446232 4.733401,0 8.500799,-3.805445 8.500799,-8.446232"
     class="st2"
     id="path3"
     style="stroke-width:0.94689" /><ellipse
     cx="95.153496"
     cy="59.169109"
     class="st3"
     id="circle3"
     rx="8.0178013"
     ry="7.7037058"
     style="stroke-width:0.94689" /><path
     d="m 97.375302,56.848719 c 0.1932,0.185631 0.483,0.09281 0.6762,-0.09281 l 1.642201,-2.041946 c 0.193199,-0.185632 0.0966,-0.464078 -0.0966,-0.64971 -0.1932,-0.185632 -0.483,-0.09281 -0.676199,0.09281 l -1.642201,2.041946 c -0.1932,0.278447 -0.1932,0.556894 0.0966,0.64971"
     class="st4"
     id="path4"
     style="stroke-width:0.94689" /><path
     d="M 73.708299,102.60687 H 21.83409 c -0.77279,0 -1.449,-0.64971 -1.449,-1.39223 V 76.804102 c 0,-0.742526 0.67621,-1.392237 1.449,-1.392237 h 51.874209 c 0.7728,0 1.449,0.649711 1.449,1.392237 v 24.410538 c 0,0.74252 -0.6762,1.39223 -1.449,1.39223"
     style="fill:#0a0a0a;stroke-width:0.94689"
     id="path5" /><path
     d="M 20.28849,82.001782 H 75.157299 M 20.28849,95.924142 H 75.157299 M 34.2955,75.31905 v 27.28782"
     class="st6"
     id="path6" /><path
     d="m 47.8195,75.31905 v 27.28782"
     class="st7"
     id="path7" /><path
     d="m 61.343497,75.31905 v 27.28782"
     class="st6"
     id="path8" /><path
     d="M 20.28849,88.962962 H 75.157299"
     class="st7"
     id="path9" /><path
     d="m 19.9021,99.729587 6.47219,-12.437308 5.0232,6.404285 3.96061,-15.87149 7.14839,22.182956 5.31301,-15.593039 4.733396,11.509151 7.824601,-17.263726 8.307601,17.263726 7.245001,-12.437308"
     style="fill:none;stroke:#db4040;stroke-width:0.94689"
     id="path10" /><path
     d="M 75.157299,83.11557 H 76.6063 v 2.784473 H 75.157299 Z M 18.8395,97.594825 h 1.44899 v 2.877285 H 18.8395 Z"
     class="st9"
     id="path11"
     style="stroke-width:0.94689" /><path
     d="m 68.395298,51.001328 c -3.574201,0 -6.472201,2.784471 -6.472201,6.218654 q 0,0.974565 0.289801,1.94913 l -4.636802,5.01205 H 33.71589 l -7.14839,-6.96118 -0.0966,-21.997329 0.38639,-0.371262 2.3184,-2.227578 4.9266,-4.826418 h 23.763607 l 4.6368,5.012049 q -0.289799,0.835342 -0.289799,1.949131 c 0,3.434182 2.898,6.218654 6.3756,6.218654 3.670801,0.09282 6.665401,-2.877288 6.568801,-6.31147 -0.0966,-3.434182 -2.994601,-6.125838 -6.472201,-6.125838 -0.3864,0 -0.7728,0 -1.1592,0.09282 L 60.184297,21.300298 H 31.1077 l -10.52941,10.673809 -0.2898,0.278447 v 27.844719 l 10.5294,10.673809 h 29.076607 l 7.341601,-7.332442 c 0.3864,0.09281 0.7728,0.09281 1.1592,0.09281 3.5742,0 6.472201,-2.784473 6.472201,-6.218654 0,-3.526999 -2.898001,-6.31147 -6.472201,-6.31147 z m 0.2898,-18.284699 c 1.2558,0 2.318401,1.020973 2.318401,2.227577 0,1.206605 -1.062601,2.227578 -2.318401,2.227578 -1.1592,0 -2.318401,-1.020973 -2.318401,-2.227578 0.0966,-1.113789 1.062601,-2.227577 2.318401,-2.227577 z m -0.3864,26.73093 c -1.2558,0 -2.3184,-0.928157 -2.3184,-2.227577 0,-1.113789 0.966,-2.134762 2.3184,-2.227577 1.2558,0 2.415,0.928156 2.415,2.227577 0,1.206604 -1.0626,2.227577 -2.415,2.227577 z"
     style="fill:none;stroke:#191919;stroke-width:2.84067"
     id="path12" /><ellipse
     cx="95.153496"
     cy="88.962959"
     style="fill:#141414;stroke:#92ef30;stroke-width:1.89378"
     id="circle12"
     rx="4.7334003"
     ry="4.5479708" /><ellipse
     cx="95.153496"
     cy="88.962959"
     class="st12"
     id="circle13"
     rx="2.8014004"
     ry="2.6916564"
     style="stroke-width:0.94689" /><ellipse
     cx="95.153496"
     cy="88.962959"
     class="st12"
     id="circle14"
     rx="1.6422002"
     ry="1.5778674"
     style="stroke-width:0.94689" /><path
     d="m 68.395298,51.001328 c -3.574201,0 -6.472201,2.784471 -6.472201,6.218654 q 0,0.974565 0.289801,1.94913 l -4.636802,5.01205 H 33.71589 l -7.14839,-6.96118 -0.0966,-21.997329 0.38639,-0.371262 2.3184,-2.227578 4.9266,-4.826418 h 23.763607 l 4.6368,5.012049 q -0.289799,0.835342 -0.289799,1.949131 c 0,3.434182 2.898,6.218654 6.3756,6.218654 3.670801,0.09282 6.665401,-2.877288 6.568801,-6.31147 -0.0966,-3.434182 -2.994601,-6.125838 -6.472201,-6.125838 -0.3864,0 -0.7728,0 -1.1592,0.09282 L 60.184297,21.300298 H 31.1077 l -10.52941,10.673809 -0.2898,0.278447 v 27.844719 l 10.5294,10.673809 h 29.076607 l 7.341601,-7.332442 c 0.3864,0.09281 0.7728,0.09281 1.1592,0.09281 3.5742,0 6.472201,-2.784473 6.472201,-6.218654 0,-3.526999 -2.898001,-6.31147 -6.472201,-6.31147 m 0.2898,-18.284699 c 1.2558,0 2.318401,1.020973 2.318401,2.227577 0,1.206605 -1.062601,2.227578 -2.318401,2.227578 -1.1592,0 -2.318401,-1.020973 -2.318401,-2.227578 0.0966,-1.113789 1.062601,-2.227577 2.318401,-2.227577 m -0.3864,26.730934 c -1.2558,0 -2.3184,-0.928157 -2.3184,-2.227577 0,-1.113789 0.966,-2.134762 2.3184,-2.227577 1.2558,0 2.415,0.928156 2.415,2.227577 0,1.206604 -1.0626,2.227577 -2.415,2.227577"
     style="fill:#969696;stroke-width:0.94689"
     id="path14" /></svg>
