<?xml version="1.0" encoding="UTF-8" standalone="no"?>
<!-- Created with Inkscape (http://www.inkscape.org/) -->

<svg
   version="1.0"
   width="128"
   height="128"
   id="svg4292"
   xml:space="preserve"
   xmlns:xlink="http://www.w3.org/1999/xlink"
   xmlns="http://www.w3.org/2000/svg"
   xmlns:svg="http://www.w3.org/2000/svg"><defs
     id="defs4294"><linearGradient
       id="linearGradient1571"><stop
         style="stop-color:#545454;stop-opacity:1;"
         offset="0"
         id="stop1567" /><stop
         style="stop-color:#a1a1a1;stop-opacity:1;"
         offset="0.03567462"
         id="stop1575" /><stop
         style="stop-color:#545454;stop-opacity:1;"
         offset="0.07302466"
         id="stop1577" /><stop
         style="stop-color:#545454;stop-opacity:1;"
         offset="0.92681795"
         id="stop1579" /><stop
         style="stop-color:#a1a1a1;stop-opacity:1;"
         offset="0.96064132"
         id="stop1581" /><stop
         style="stop-color:#545454;stop-opacity:1;"
         offset="1"
         id="stop1569" /></linearGradient><linearGradient
       xlink:href="#linearGradient1571"
       id="linearGradient1573"
       x1="12"
       y1="66"
       x2="116"
       y2="66"
       gradientUnits="userSpaceOnUse" /></defs><rect
     style="display:inline;fill:url(#linearGradient1573);fill-opacity:1;stroke:none;stroke-width:0.25;stroke-linecap:butt;stroke-linejoin:miter;stroke-miterlimit:4;stroke-dasharray:none;stroke-dashoffset:0;stroke-opacity:1;marker:none;marker-start:none;marker-mid:none;marker-end:none;paint-order:normal;enable-background:new"
     id="rect1711-5"
     width="104"
     height="100"
     x="12"
     y="16"
     rx="8"
     ry="8" /><rect
     style="display:inline;fill:#878787;fill-opacity:1;stroke:none;stroke-width:0.25;stroke-linecap:butt;stroke-linejoin:miter;stroke-miterlimit:4;stroke-dasharray:none;stroke-dashoffset:0;stroke-opacity:1;marker:none;marker-start:none;marker-mid:none;marker-end:none;paint-order:normal;enable-background:new"
     id="rect1711"
     width="104"
     height="100"
     x="12"
     y="12"
     rx="8"
     ry="8" /><path
     d="m 75.344037,93.194077 c 1.84636,-0.495768 3.31216,-1.316402 4.51995,-2.530502 1.49759,-1.505414 2.40492,-3.349521 2.65975,-5.405816 0.15384,-1.241353 1.4833,-1.110271 -11.26054,-1.110271 -12.26462,0 -11.74753,0.02655 -13.24129,-0.679863 -0.99636,-0.471182 -2.21141,-1.668331 -2.75183,-2.711269 -0.78601,-1.516906 -0.72762,-0.02458 -0.72762,-18.594923 0,-18.57034 -0.0584,-17.078018 0.72762,-18.594923 0.54042,-1.042938 1.75547,-2.240087 2.75183,-2.711269 1.49376,-0.706413 0.97667,-0.679864 13.24129,-0.679864 10.39224,0 11.04243,-0.01028 11.19333,-0.177023 0.3938,-0.435144 -0.2965,-3.070751 -1.20003,-4.581824 -0.97108,-1.62403 -2.76156,-3.14652 -4.47948,-3.80902 -1.7407,-0.671287 -1.37853,-0.643916 -9.07318,-0.68571 -7.2777,-0.03953 -8.50199,0.0055 -10.19676,0.375435 -4.57541,0.998597 -8.46497,4.036837 -10.52658,8.222595 -0.71719,1.456125 -1.05373,2.405988 -1.38987,3.92279 l -0.22583,1.01903 v 17.699783 17.699783 l 0.22502,1.015055 c 1.39402,6.288365 6.0304,10.951144 12.12952,12.198604 1.49291,0.305345 2.21056,0.328189 9.68194,0.308182 6.48913,-0.01738 7.38286,-0.03864 7.94276,-0.18898 z"
     style="fill:#ffb33b;fill-opacity:1"
     id="path1" /></svg>
