<?xml version="1.0" encoding="UTF-8" standalone="no"?>
<svg
   height="128px"
   viewBox="0 0 128 128"
   width="128px"
   version="1.1"
   id="svg19"
   xml:space="preserve"
   xmlns:xlink="http://www.w3.org/1999/xlink"
   xmlns="http://www.w3.org/2000/svg"
   xmlns:svg="http://www.w3.org/2000/svg"><defs
     id="defs19"><linearGradient
       id="linearGradient11"
       gradientTransform="matrix(1.1999802,0,0,-1.1999802,181.47906,335.86367)"
       gradientUnits="userSpaceOnUse"
       x1="2.999997"
       x2="93.000366"
       y1="186.252045"
       y2="186.252045"><stop
         offset="0"
         stop-color="#456f2a"
         id="stop17"
         style="stop-color:#90c75b;stop-opacity:1;" /><stop
         offset="0.06947768"
         stop-color="#456f2a"
         id="stop14"
         style="stop-color:#3b3b3b;stop-opacity:1;" /><stop
         offset="0.4387742"
         stop-color="#456f2a"
         id="stop12"
         style="stop-color:#3b3b3b;stop-opacity:1;" /><stop
         offset="0.5"
         stop-color="#5c913b"
         id="stop10"
         style="stop-color:#aad482;stop-opacity:1;" /><stop
         offset="0.56176525"
         stop-color="#5c913b"
         id="stop15"
         style="stop-color:#3b3b3b;stop-opacity:1;" /><stop
         offset="0.92762065"
         stop-color="#5c913b"
         id="stop16"
         style="stop-color:#3b3b3b;stop-opacity:1;" /><stop
         offset="1"
         stop-color="#5c913b"
         id="stop18"
         style="stop-color:#91c75c;stop-opacity:1;" /></linearGradient><radialGradient
       id="Gradient_3-7"
       gradientUnits="userSpaceOnUse"
       cx="256"
       cy="128"
       r="256"
       gradientTransform="matrix(0.421875,0,0,0.31640625,-44,-5.500012)"><stop
         offset="0"
         stop-color="#404040"
         id="stop5-36" /><stop
         offset="1"
         stop-color="#000000"
         id="stop6-1" /></radialGradient><radialGradient
       id="Gradient_1-1"
       gradientUnits="userSpaceOnUse"
       cx="256"
       cy="128"
       r="256"
       gradientTransform="matrix(0.421875,0,0,0.31640625,-44,-5.500012)"><stop
         offset="0"
         stop-color="#606060"
         id="stop1-6-94" /><stop
         offset="1"
         stop-color="#202020"
         id="stop2-2-7" /></radialGradient><linearGradient
       xlink:href="#linearGradient11"
       id="linearGradient1"
       x1="156"
       y1="82.000008"
       x2="264"
       y2="82.000008"
       gradientUnits="userSpaceOnUse"
       gradientTransform="translate(-146,-16.000012)" /></defs><linearGradient
     id="a"
     gradientTransform="matrix(1.1999802,0,0,-1.1999802,181.47906,335.86367)"
     gradientUnits="userSpaceOnUse"
     x1="2.999997"
     x2="93.000366"
     y1="186.252045"
     y2="186.252045"><stop
       offset="0.43"
       stop-color="#456f2a"
       id="stop1" /><stop
       offset="0.5"
       stop-color="#5c913b"
       id="stop2" /><stop
       offset="0.57"
       stop-color="#456f2a"
       id="stop3" /></linearGradient><path
     id="path2988-8-6"
     style="fill:url(#linearGradient1);stroke-width:0.210938"
     d="m 64,11.99999 c -13.03527,0 -48.48048,38.466705 -54,49.999999 0,0 0,3.53527 0,4.000002 C 10,79.499991 50.5,120 64,120 c 13.5,0 54,-40.500009 54,-54.000009 0,-0.301919 0,-4.000002 0,-4.000002 C 112.69455,50.386732 77.19808,11.99999 64,11.99999 Z" /><path
     d="m 64,9.687488 c -2.53125,0 -7.57983,2.299851 -13.16377,6.229195 -5.58393,3.929555 -11.85616,9.36457 -17.70567,15.213867 -5.84929,5.849508 -11.28431,12.121735 -15.21386,17.705672 -3.92935,5.583939 -6.2292,10.632517 -6.2292,13.163767 0,2.53125 2.29985,7.579828 6.2292,13.163765 3.92955,5.583938 9.36457,11.856164 15.21386,17.705674 5.84951,5.84929 12.12174,11.284322 17.70567,15.213872 5.58394,3.92934 10.63252,6.2292 13.16377,6.2292 2.53125,0 7.57983,-2.29986 13.16377,-6.2292 5.58393,-3.92955 11.85616,-9.364582 17.70567,-15.213872 5.84929,-5.84951 11.28431,-12.121736 15.21386,-17.705674 3.92935,-5.583937 6.2292,-10.632515 6.2292,-13.163765 0,-2.53125 -2.29985,-7.579828 -6.2292,-13.163766 C 106.15375,43.252285 100.71873,36.980058 94.86944,31.13055 89.01993,25.281253 82.7477,19.846238 77.16377,15.916683 71.57983,11.987339 66.53125,9.687488 64,9.687488 Z"
     fill="url(#Gradient_1)"
     id="path2988-1"
     style="fill:url(#Gradient_1-1);stroke-width:0.210938" /><path
     d="m 64,7.999988 c -13.5,0 -54,40.500001 -54,54.000001 C 10,75.499989 50.5,116 64,116 c 13.5,0 54,-40.500011 54,-54.000011 0,-13.5 -40.5,-54.000001 -54,-54.000001 z m 0,3.375 c 1.6875,0 6.71583,2.074992 12.18818,5.926078 5.47256,3.850875 11.69543,9.229992 17.48819,15.022548 5.79256,5.792764 11.17168,12.015632 15.02255,17.488194 3.85109,5.472352 5.92608,10.50068 5.92608,12.18818 0,1.6875 -2.07499,6.715829 -5.92608,12.18818 -3.85087,5.472562 -9.22999,11.69543 -15.02255,17.4882 C 87.88361,97.468918 81.66074,102.84804 76.18818,106.69892 70.71583,110.55 65.6875,112.625 64,112.625 c -1.6875,0 -6.71583,-2.075 -12.18818,-5.92608 C 46.33926,102.84804 40.11639,97.468918 34.32362,91.676368 28.53107,85.883598 23.15195,79.660731 19.30108,74.188168 15.44999,68.715817 13.375,63.687489 13.375,61.999989 c 0,-1.6875 2.07499,-6.715829 5.92608,-12.18818 3.85087,-5.472562 9.22999,-11.69543 15.02254,-17.488195 C 40.11639,26.531059 46.33926,21.151942 51.81182,17.301067 57.28417,13.449981 62.3125,11.374989 64,11.374988 Z"
     fill="url(#Gradient_3)"
     id="path3043-6"
     style="fill:url(#Gradient_3-7);stroke-width:0.210938" /><path
     d="m 48.8125,28.249988 v 8.4375 25.3125 l 18.98437,-12.65625 18.98438,12.65625 -37.96875,25.3125 v 8.4375 l 50.625,-33.75 -25.3125,-16.875 z"
     fill="#abd582"
     id="path9-8-3"
     style="stroke-width:0.210938" /></svg>
