<?xml version="1.0" encoding="UTF-8" standalone="no"?>
<svg
   viewBox="0 0 128 128"
   style="display:inline;enable-background:new"
   version="1.0"
   id="svg11300"
   height="128"
   width="128"
   xml:space="preserve"
   xmlns:xlink="http://www.w3.org/1999/xlink"
   xmlns="http://www.w3.org/2000/svg"
   xmlns:svg="http://www.w3.org/2000/svg"
   xmlns:rdf="http://www.w3.org/1999/02/22-rdf-syntax-ns#"
   xmlns:cc="http://creativecommons.org/ns#"
   xmlns:dc="http://purl.org/dc/elements/1.1/"><title
     id="title4162">Adwaita Icon Template</title><defs
     id="defs3"><linearGradient
       id="linearGradient974"><stop
         style="stop-color:#333333;stop-opacity:1;"
         offset="0"
         id="stop962" /><stop
         id="stop964"
         offset="0.04166667"
         style="stop-color:#9e6acd;stop-opacity:1;" /><stop
         style="stop-color:#333333;stop-opacity:1;"
         offset="0.08333334"
         id="stop966" /><stop
         id="stop968"
         offset="0.91666669"
         style="stop-color:#333333;stop-opacity:1;" /><stop
         style="stop-color:#9f6acd;stop-opacity:1;"
         offset="0.95833331"
         id="stop970" /><stop
         style="stop-color:#333333;stop-opacity:1;"
         offset="1"
         id="stop972" /></linearGradient><linearGradient
       y2="44"
       x2="464"
       y1="44"
       x1="48"
       gradientTransform="matrix(0.25,0,0,0.25,0,53)"
       gradientUnits="userSpaceOnUse"
       id="linearGradient1747"
       xlink:href="#linearGradient974" /><style
       id="style1">
      .cls-1 {
        fill: #a238ff;
      }

      .cls-1, .cls-2 {
        stroke-width: 0px;
      }
    </style></defs><metadata
     id="metadata4"><rdf:RDF><cc:Work
         rdf:about=""><dc:format>image/svg+xml</dc:format><dc:type
           rdf:resource="http://purl.org/dc/dcmitype/StillImage" /><dc:creator><cc:Agent><dc:title>GNOME Design Team</dc:title></cc:Agent></dc:creator><dc:source /><cc:license
           rdf:resource="http://creativecommons.org/licenses/by-sa/4.0/" /><dc:title>Adwaita Icon Template</dc:title><dc:subject><rdf:Bag /></dc:subject><dc:date /><dc:rights><cc:Agent><dc:title /></cc:Agent></dc:rights><dc:publisher><cc:Agent><dc:title /></cc:Agent></dc:publisher><dc:identifier /><dc:relation /><dc:language /><dc:coverage /><dc:description /><dc:contributor><cc:Agent><dc:title /></cc:Agent></dc:contributor></cc:Work><cc:License
         rdf:about="http://creativecommons.org/licenses/by-sa/4.0/"><cc:permits
           rdf:resource="http://creativecommons.org/ns#Reproduction" /><cc:permits
           rdf:resource="http://creativecommons.org/ns#Distribution" /><cc:requires
           rdf:resource="http://creativecommons.org/ns#Notice" /><cc:requires
           rdf:resource="http://creativecommons.org/ns#Attribution" /><cc:permits
           rdf:resource="http://creativecommons.org/ns#DerivativeWorks" /><cc:requires
           rdf:resource="http://creativecommons.org/ns#ShareAlike" /></cc:License></rdf:RDF></metadata><rect
     ry="8"
     rx="8"
     y="32"
     x="12"
     height="83.999992"
     width="104"
     id="rect1709"
     style="display:inline;fill:url(#linearGradient1747);fill-opacity:1;stroke:none;stroke-width:0.25;stroke-linecap:butt;stroke-linejoin:miter;stroke-miterlimit:4;stroke-dasharray:none;stroke-dashoffset:0;stroke-opacity:1;marker:none;marker-start:none;marker-mid:none;marker-end:none;paint-order:normal;enable-background:new" /><rect
     style="display:inline;fill:#000000;fill-opacity:1;stroke:none;stroke-width:0.25;stroke-linecap:butt;stroke-linejoin:miter;stroke-miterlimit:4;stroke-dasharray:none;stroke-dashoffset:0;stroke-opacity:1;marker:none;marker-start:none;marker-mid:none;marker-end:none;paint-order:normal;enable-background:new"
     id="rect1711"
     width="104"
     height="100"
     x="12"
     y="12"
     rx="8"
     ry="8" /><path
     d="m 92.874738,60.263672 c -0.78907,0.0293 -0.86524,-0.873047 -1.05664,-1.470703 -0.33985,-1.052735 -0.50977,-2.146485 -0.60352,-3.25 0.004,-2.371094 -0.1543,-4.554688 0.40625,-6.695313 0.10352,-0.398437 0.20703,-0.800781 0.35156,-1.185547 0.17774,-0.470703 0.26953,-1.130859 0.92383,-1.085937 0.58789,0.03906 0.76563,0.658203 0.93359,1.136719 0.63868,1.822265 0.71094,3.746093 0.70899,5.632812 0,1.779297 0.0234,3.603516 -0.5625,5.335938 -0.21485,0.636718 -0.29102,1.550781 -1.10156,1.582031 z m -56.17188,-4.113281 c -0.19531,1.242187 -0.28125,2.322265 -0.74414,3.30664 -0.16797,0.357422 -0.32031,0.828125 -0.83594,0.822266 -0.55273,-0.0078 -0.73242,-0.476563 -0.90234,-0.888672 -0.38477,-0.939453 -0.51172,-1.935547 -0.59961,-2.939453 -0.25195,-2.875 -0.29102,-5.738281 0.52539,-8.546875 0.084,-0.294922 0.19922,-0.59375 0.36328,-0.84961 0.44531,-0.691406 0.88086,-0.666015 1.29297,0.105469 0.61524,1.152344 0.74219,2.4375 0.9082,3.707031 0.23047,1.761719 0.22852,3.523438 -0.008,5.283204 z m 48.39063,12.054687 c -0.2461,1.519531 -0.4375,2.865234 -0.68555,4.199219 -0.41211,2.21289 -0.91602,4.408203 -2.06445,6.378906 -1.11719,1.917969 -2.28516,1.900391 -3.44727,-0.01172 -0.73047,-1.201172 -1.08984,-2.544922 -1.43359,-3.890625 -0.15235,-0.597656 -0.21485,-1.220703 -0.57813,-1.898437 -0.60547,1.341797 -0.375,2.703125 -0.57617,3.988281 -0.47656,3.041016 -0.74609,6.121094 -1.87109,9.021484 -0.33594,0.867188 -0.64844,1.996094 -1.69922,2.025391 -1.16406,0.03125 -1.4375,-1.181641 -1.75196,-2.070312 -0.45703,-1.292969 -0.77929,-2.632813 -1.16406,-3.97461 -0.52929,0.234375 -0.35742,0.671875 -0.40039,1.015625 -0.46289,3.761719 -1.15039,7.464844 -2.87695,10.888672 -0.53906,1.070313 -1.17969,2.238281 -2.49805,2.251953 -1.41797,0.01367 -2.08984,-1.193359 -2.6582,-2.339844 -0.83594,-1.683593 -1.4375,-3.451171 -1.85156,-5.283203 -0.58985,-2.208984 -0.73047,-4.322265 -1.08789,-6.501953 -0.66602,0.382813 -0.56055,1.003906 -0.67969,1.482422 -0.32031,1.28125 -0.65625,2.552734 -1.32227,3.701172 -0.69336,1.199219 -1.54297,1.222656 -2.28711,0.05078 -1.00586,-1.585937 -1.33984,-3.40625 -1.67968,-5.208984 -0.51368,-2.722656 -0.8711,-5.46875 -1.05274,-8.234375 -0.0117,-0.199219 0.004,-0.431641 -0.39453,-0.546875 -0.46289,0.787109 -0.47461,1.736328 -0.74023,2.59375 -0.39063,1.265625 -0.81446,2.507812 -1.64454,3.560547 -0.86523,1.097656 -1.81445,1.105468 -2.63476,-0.0332 -1.32813,-1.845704 -1.83008,-4.019532 -2.27344,-6.19336 -0.27734,-1.355469 -0.44336,-2.732422 -0.66211,-4.099609 -0.043,-0.263672 -0.01,-0.566406 -0.42187,-0.738281 -0.25,0.554687 -0.47266,1.125 -0.75977,1.664062 -0.57031,1.068359 -1.3418,1.097656 -1.91016,0.02734 -0.87304,-1.646485 -1.16992,-3.476563 -1.43554,-5.28711 -0.82227,-5.582031 -0.86914,-11.177734 -0.30078,-16.792968 0.23828,-2.351563 0.5625,-4.675782 1.32617,-6.91211 0.24805,-0.720703 0.41015,-1.771484 1.36328,-1.751953 0.91211,0.01953 1.11133,1.039063 1.37891,1.765625 0.32617,0.890625 0.54687,1.81836 0.93359,2.734375 0.58594,-0.976562 0.55469,-2.097656 0.85547,-3.123047 0.44922,-1.533203 0.87109,-3.070312 1.7539,-4.419922 0.91211,-1.396484 2.01368,-1.421875 2.95118,-0.03125 1.37304,2.033204 1.79101,4.41211 2.26172,6.75586 0.28515,1.416015 0.48828,2.847656 0.7539,4.414062 0.57422,-0.707031 0.4961,-1.455078 0.62695,-2.130859 0.31055,-1.597656 0.59571,-3.208984 1.31446,-4.683594 0.32422,-0.662109 0.63086,-1.55664 1.51367,-1.546875 0.92773,0.01172 1.26953,0.910156 1.55859,1.636719 1.06055,2.654297 1.5586,5.453125 1.92578,8.271484 0.20118,1.542969 0.3086,3.09961 0.46875,4.648438 0.0293,0.296875 -0.0371,0.636719 0.36915,0.90625 0.40429,-1.146485 0.7832,-2.267578 1.19335,-3.378906 0.31055,-0.847657 0.7129,-1.65625 1.22071,-2.404297 1.17383,-1.71875 2.74414,-1.763672 3.95117,-0.06055 1.03516,1.458984 1.58984,3.146484 2.08789,4.849609 0.11133,0.378906 0.0664,0.837891 0.55469,1.19336 0.18164,-1.697266 0.32812,-3.322266 0.5332,-4.941407 0.39258,-3.089843 0.85938,-6.169922 2.05078,-9.080078 0.29492,-0.722656 0.55274,-1.669922 1.50781,-1.654297 0.97071,0.01758 1.28321,0.96875 1.61329,1.716797 0.70507,1.595703 1.06445,3.294922 1.3457,5.009766 0.0762,0.46289 0.0957,0.941406 0.37305,1.365234 0.43164,-0.242187 0.35351,-0.61914 0.39843,-0.949219 0.38282,-2.814453 0.8418,-5.613281 1.8711,-8.28125 0.25,-0.65039 0.57031,-1.267578 1.00586,-1.8125 0.9375,-1.171875 1.91992,-1.148437 2.77148,0.09961 0.99414,1.453125 1.49023,3.121094 1.91211,4.80664 0.23828,0.953125 0.42187,1.919922 0.84375,2.884766 0.28711,-0.939453 0.5332,-1.890625 0.875,-2.808594 0.26953,-0.720703 0.43945,-1.751953 1.39062,-1.728515 0.92774,0.02344 1.11329,1.052734 1.36915,1.777343 0.75195,2.134766 1.09375,4.369141 1.31054,6.607422 0.37696,3.900391 0.53711,7.814453 0.22461,11.734375 -0.26953,3.38086 -0.50781,6.767578 -1.72851,9.982422 -0.0606,0.16211 -0.11719,0.332031 -0.20704,0.476563 -0.2539,0.40625 -0.46484,0.914062 -1.05468,0.875 -0.50782,-0.0332 -0.72657,-0.466797 -0.9668,-0.857422 -0.29883,-0.484375 -0.31445,-1.123047 -0.95898,-1.699219 z"
     style="fill:#a238ff;fill-opacity:1;stroke-width:0px"
     id="path1-9" /></svg>
