<?xml version="1.0" encoding="UTF-8" standalone="no"?>
<svg
   viewBox="0 0 128 128.24545"
   version="1.1"
   id="svg745"
   width="128"
   height="128.24545"
   xml:space="preserve"
   xmlns:xlink="http://www.w3.org/1999/xlink"
   xmlns="http://www.w3.org/2000/svg"
   xmlns:svg="http://www.w3.org/2000/svg"><defs
     id="defs733"><linearGradient
       id="linearGradient5"><stop
         style="stop-color:#7a9eae;stop-opacity:1;"
         offset="0"
         id="stop2" /><stop
         style="stop-color:#f0f0f0;stop-opacity:1;"
         offset="0.40999869"
         id="stop3" /><stop
         style="stop-color:#7a9eae;stop-opacity:1;"
         offset="0.81230253"
         id="stop4" /><stop
         style="stop-color:#ebebeb;stop-opacity:1;"
         offset="1"
         id="stop5" /></linearGradient><linearGradient
       id="linearGradient4375"><stop
         style="stop-color:#364e59;stop-opacity:1;"
         offset="0"
         id="stop4377" /><stop
         style="stop-color:#364e59;stop-opacity:0;"
         offset="1"
         id="stop4379" /></linearGradient><linearGradient
       xlink:href="#linearGradient4375"
       id="linearGradient4381"
       x1="31.957268"
       y1="29.751493"
       x2="-45.041405"
       y2="-18.591616"
       gradientUnits="userSpaceOnUse"
       gradientTransform="matrix(2.3832435,0,0,2.3832435,5.6495,4.2231295)" /><linearGradient
       xlink:href="#linearGradient5"
       id="linearGradient2"
       x1="-118.04321"
       y1="66.122719"
       x2="-0.043212399"
       y2="66.122719"
       gradientUnits="userSpaceOnUse"
       gradientTransform="translate(123.04321)" /></defs><g
     style="font-style:normal;font-weight:normal;font-size:40px;line-height:125%;font-family:Sans;letter-spacing:0px;word-spacing:0px;fill:#000000;fill-opacity:1;stroke:none"
     id="text4383"
     transform="translate(-65.603105,30.145741)" /><g
     style="font-style:normal;font-weight:normal;font-size:40px;line-height:125%;font-family:Sans;letter-spacing:0px;word-spacing:0px;fill:#000000;fill-opacity:1;stroke:none"
     id="text4421"
     transform="translate(-65.603105,30.145741)" /><path
     style="fill:url(#linearGradient2);stroke:none;stroke-width:1.45906;stroke-linejoin:round;stroke-miterlimit:4;stroke-dasharray:none;stroke-opacity:0.439216"
     d="M 62.768346,7.1227236 C 30.871709,7.1227236 5,32.994431 5,64.891071 5,96.787711 30.871709,122.65942 62.768346,122.65942 99.210327,121.78794 87.204971,110.70664 123,125.12272 v -4 c -22.55972,-17.30615 -2.74781,-30.313542 -2.4633,-56.231649 0,-31.89664 -25.871714,-57.7683474 -57.768354,-57.7683474 z"
     id="path1"
     clip-path="none"
     mask="none" /><path
     style="fill:#ffffff;fill-opacity:1;stroke:none;stroke-width:1.45906;stroke-linejoin:round;stroke-miterlimit:4;stroke-dasharray:none;stroke-opacity:0.439216"
     d="M 62.768346,3.1227236 C 30.871709,3.1227236 5,28.994431 5,60.891071 5,92.787711 30.871709,118.65942 62.768346,118.65942 99.210327,117.78794 87.204971,106.70664 123,121.12272 103.82186,88.076904 120.24742,87.243016 120.5367,60.891071 120.5367,28.994431 94.664986,3.1227236 62.768346,3.1227236 Z"
     id="path3769"
     clip-path="none"
     mask="none" /><path
     id="path3799"
     d="M 62.684038,13.349412 C 36.412128,13.669115 15.1027,35.25712 15.1027,61.55276 c 0,26.295642 21.309428,47.36501 47.581338,47.0453 24.97895,-0.10042 19.105237,-13.953056 46.716322,-1.12644 -15.125164,-23.627765 0.51279,-26.773229 0.86503,-47.076896 0,-26.295648 -21.309436,-47.365015 -47.581352,-47.045312 z"
     style="fill:url(#linearGradient4381);fill-opacity:1;stroke:none;stroke-width:2.54168" /><path
     d="m 63.042169,53.865021 q -2.906037,-2.631023 -8.078784,-6.29566 -5.695836,-4.040499 -7.671943,-6.342643 -1.976107,-2.349127 -1.976107,-5.121098 0,-4.134463 4.765903,-6.483589 4.765905,-2.39611 12.437848,-2.39611 7.67194,0 13.367778,2.114214 5.753954,2.114212 5.753954,5.825835 0,1.785336 -1.394898,2.959901 -1.394898,1.174562 -3.254764,1.174562 -2.673554,0 -6.277042,-3.241796 -3.661608,-3.288776 -6.218924,-4.60429 -2.499192,-1.362491 -5.870197,-1.362491 -4.300938,0 -7.090734,1.550423 -2.731678,1.550423 -2.731678,3.946533 0,2.255163 2.26671,4.228429 2.266713,1.973265 11.682277,7.188329 10.054894,5.590923 14.181468,8.738752 4.184699,3.14783 6.80013,7.658154 2.615434,4.510324 2.615434,9.537456 0,8.832719 -7.730061,15.598204 -7.671942,6.718504 -17.959319,6.718504 -9.357444,0 -15.808853,-5.402993 -6.451404,-5.402991 -6.451404,-14.423642 0,-8.691769 7.090734,-14.517604 7.148854,-5.825835 17.552472,-7.04738 z m 2.557316,2.161197 q -16.680662,2.208178 -16.680662,18.511121 0,8.409876 4.126575,13.061147 4.184697,4.65127 9.70617,4.65127 5.753957,0 9.473685,-4.463341 3.719729,-4.510324 3.719729,-12.168478 0,-11.087881 -10.345497,-19.591719 z"
     style="font-style:normal;font-weight:normal;font-size:42.1059px;line-height:125%;font-family:'Times New Roman';-inkscape-font-specification:'Times New Roman';letter-spacing:0px;word-spacing:0px;fill:#ffffff;fill-opacity:1;stroke:none;stroke-width:2.54168"
     id="path4161" /></svg>
