<?xml version="1.0" encoding="UTF-8" standalone="no"?>
<svg
   viewBox="0 0 128 128"
   style="display:inline;enable-background:new"
   version="1.0"
   id="svg11300"
   height="128"
   width="128"
   xml:space="preserve"
   xmlns:xlink="http://www.w3.org/1999/xlink"
   xmlns="http://www.w3.org/2000/svg"
   xmlns:svg="http://www.w3.org/2000/svg"
   xmlns:rdf="http://www.w3.org/1999/02/22-rdf-syntax-ns#"
   xmlns:cc="http://creativecommons.org/ns#"
   xmlns:dc="http://purl.org/dc/elements/1.1/"><title
     id="title4162">Adwaita Icon Template</title><defs
     id="defs3"><linearGradient
       id="linearGradient18"><stop
         style="stop-color:#1c962c;stop-opacity:1;"
         offset="0"
         id="stop13" /><stop
         style="stop-color:#52d262;stop-opacity:1;"
         offset="0.03164148"
         id="stop14" /><stop
         style="stop-color:#1c962c;stop-opacity:1;"
         offset="0.07182212"
         id="stop15" /><stop
         style="stop-color:#1c962c;stop-opacity:1;"
         offset="0.78242534"
         id="stop16" /><stop
         style="stop-color:#52d262;stop-opacity:1;"
         offset="0.8244403"
         id="stop17" /><stop
         style="stop-color:#1c962c;stop-opacity:1;"
         offset="0.86031747"
         id="stop18" /></linearGradient><linearGradient
       id="linearGradient11"><stop
         style="stop-color:#66d673;stop-opacity:1;"
         offset="0"
         id="stop8" /><stop
         style="stop-color:#42cd53;stop-opacity:1;"
         offset="0.50289881"
         id="stop9" /><stop
         style="stop-color:#20a932;stop-opacity:1;"
         offset="0.50421178"
         id="stop10" /><stop
         style="stop-color:#3eca4f;stop-opacity:1;"
         offset="1"
         id="stop11" /></linearGradient><linearGradient
       xlink:href="#linearGradient11"
       id="linearGradient8"
       x1="190.33211"
       y1="24.009766"
       x2="153"
       y2="112.00977"
       gradientUnits="userSpaceOnUse"
       gradientTransform="translate(-108)" /><linearGradient
       xlink:href="#linearGradient18"
       id="linearGradient13"
       x1="8"
       y1="72.009766"
       x2="120"
       y2="72.009766"
       gradientUnits="userSpaceOnUse" /></defs><metadata
     id="metadata4"><rdf:RDF><cc:Work
         rdf:about=""><dc:format>image/svg+xml</dc:format><dc:type
           rdf:resource="http://purl.org/dc/dcmitype/StillImage" /><dc:creator><cc:Agent><dc:title>GNOME Design Team</dc:title></cc:Agent></dc:creator><dc:source /><cc:license
           rdf:resource="http://creativecommons.org/licenses/by-sa/4.0/" /><dc:title>Adwaita Icon Template</dc:title><dc:subject><rdf:Bag /></dc:subject><dc:date /><dc:rights><cc:Agent><dc:title /></cc:Agent></dc:rights><dc:publisher><cc:Agent><dc:title /></cc:Agent></dc:publisher><dc:identifier /><dc:relation /><dc:language /><dc:coverage /><dc:description /><dc:contributor><cc:Agent><dc:title /></cc:Agent></dc:contributor></cc:Work><cc:License
         rdf:about="http://creativecommons.org/licenses/by-sa/4.0/"><cc:permits
           rdf:resource="http://creativecommons.org/ns#Reproduction" /><cc:permits
           rdf:resource="http://creativecommons.org/ns#Distribution" /><cc:requires
           rdf:resource="http://creativecommons.org/ns#Notice" /><cc:requires
           rdf:resource="http://creativecommons.org/ns#Attribution" /><cc:permits
           rdf:resource="http://creativecommons.org/ns#DerivativeWorks" /><cc:requires
           rdf:resource="http://creativecommons.org/ns#ShareAlike" /></cc:License></rdf:RDF></metadata><path
     id="path11"
     d="M 28.25781,28.009766 8,48.269531 v 59.712889 c 0,4.445 3.56328,8.02735 7.98828,8.02735 h 84.28906 L 120,96.287109 v -60.25 c 0,-4.445 -3.56328,-8.027343 -7.98828,-8.027343 z"
     style="fill:url(#linearGradient13);fill-opacity:1" /><path
     id="path1482"
     d="M 28.25781,24.009766 8,44.269531 v 59.712889 c 0,4.445 3.56328,8.02735 7.98828,8.02735 h 84.28906 L 120,92.287109 v -60.25 c 0,-4.445 -3.56328,-8.027343 -7.98828,-8.027343 z"
     style="fill:url(#linearGradient8)" /><path
     d="M 62.717334,91.756422 H 46.285342 V 44.263114 h 16.431992 q 5.47733,0 9.151995,1.386665 3.674665,1.317333 5.823997,4.159999 2.218665,2.842665 3.119998,7.141329 0.901334,4.298665 0.901334,10.261328 0,5.26933 -0.693334,9.775995 -0.693333,4.506664 -2.703998,7.765329 -2.010666,3.258665 -5.754664,5.130664 -3.743998,1.871999 -9.845328,1.871999 z M 73.741328,67.212435 q 0,-4.298665 -0.485333,-7.34933 -0.416,-3.050665 -1.663999,-4.991997 -1.248,-2.010666 -3.397332,-2.911999 -2.149332,-0.970666 -5.47733,-0.970666 h -8.735996 v 33.973316 h 8.735996 q 3.951997,0 6.170663,-1.594666 2.218666,-1.663999 3.258665,-4.159998 1.109333,-2.565332 1.317333,-5.68533 0.277333,-3.189332 0.277333,-6.30933 z"
     id="text1"
     style="font-size:69.3333px;line-height:1;font-family:Sunflower;-inkscape-font-specification:Sunflower;letter-spacing:0px;fill:#ffffff"
     aria-label="D" /></svg>
