<?xml version="1.0" encoding="UTF-8" standalone="no"?>
<svg
   height="128px"
   viewBox="0 0 128 128"
   width="128px"
   version="1.1"
   id="svg143"
   xml:space="preserve"
   xmlns:xlink="http://www.w3.org/1999/xlink"
   xmlns="http://www.w3.org/2000/svg"
   xmlns:svg="http://www.w3.org/2000/svg"><defs
     id="defs147"><linearGradient
       id="linearGradient1638"><stop
         style="stop-color:#af6f04;stop-opacity:1;"
         offset="0"
         id="stop1634" /><stop
         style="stop-color:#fbbc50;stop-opacity:1;"
         offset="0.41237375"
         id="stop1642" /><stop
         style="stop-color:#af6f04;stop-opacity:1;"
         offset="0.81330508"
         id="stop1646" /><stop
         style="stop-color:#fab338;stop-opacity:1;"
         offset="1"
         id="stop1648" /></linearGradient><linearGradient
       xlink:href="#linearGradient1638"
       id="linearGradient1640"
       x1="52.930689"
       y1="39.445545"
       x2="160.9307"
       y2="39.445545"
       gradientUnits="userSpaceOnUse"
       gradientTransform="matrix(1.1111111,0,0,1.0925926,-54.811879,22.90209)" /></defs><path
     d="M 124,66.000001 C 124,98.58444 97.136712,125 63.999996,125 30.863278,125 3.9999978,98.58444 3.9999978,66.000001 3.9999978,33.415561 30.863278,7.0000003 63.999996,7.0000003 97.136712,7.0000003 124,33.415561 124,66.000001 Z m 0,0"
     fill="#f5c211"
     id="path139-3"
     style="fill:url(#linearGradient1640);fill-opacity:1;stroke-width:0.991631" /><path
     d="M 124,62.000002 C 124,94.584443 97.13672,121 64,121 30.86328,121 3.9999994,94.584443 3.9999994,62.000002 3.9999994,29.415561 30.86328,2.9999998 64,2.9999998 c 33.13672,0 60,26.4155612 60,59.0000022 z m 0,0"
     fill="#f5c211"
     id="path139"
     style="fill:#faa81f;fill-opacity:0.996078;stroke-width:0.991632" /><path
     d="m 90.089844,38.184897 c -4.867187,-2.235548 -10.070313,-3.864194 -15.507812,-4.789909 -0.66797,1.186915 -1.44922,2.784831 -1.988282,4.05625 -5.78125,-0.856576 -11.507812,-0.856576 -17.183594,0 -0.539062,-1.271419 -1.335938,-2.869335 -2.011718,-4.05625 -5.441408,0.925715 -10.652344,2.558204 -15.515627,4.801433 -9.812499,14.584831 -12.472656,28.804753 -11.144531,42.821094 6.507814,4.778386 12.816407,7.682292 19.019531,9.58366 1.53125,-2.070378 2.894534,-4.275196 4.070314,-6.595248 -2.238281,-0.837369 -4.386719,-1.870639 -6.414064,-3.069077 0.539064,-0.391795 1.066408,-0.802798 1.574219,-1.225324 12.367189,5.688738 25.804689,5.688738 38.023439,0 0.515625,0.422526 1.039063,0.833529 1.574219,1.225324 -2.035157,1.202281 -4.1875,2.235548 -6.425781,3.072918 1.175781,2.316211 2.535155,4.524871 4.070313,6.599089 6.207031,-1.901368 12.523436,-4.805274 19.03125,-9.591342 1.55859,-16.248047 -2.667969,-30.33737 -11.171876,-42.832618 z M 51.515625,72.397985 c -3.714844,0 -6.757814,-3.407097 -6.757814,-7.559376 0,-4.148438 2.980469,-7.563217 6.757814,-7.563217 3.777344,0 6.820313,3.407097 6.757813,7.563217 0.004,4.152279 -2.980469,7.559376 -6.757813,7.559376 z m 24.968751,0 c -3.710937,0 -6.757814,-3.407097 -6.757814,-7.559376 0,-4.148438 2.98047,-7.563217 6.757814,-7.563217 3.777343,0 6.824218,3.407097 6.757813,7.563217 0,4.152279 -2.98047,7.559376 -6.757813,7.559376 z m 0,0"
     fill="#ffffff"
     id="path141"
     style="stroke-width:0.991632" /></svg>
