<?xml version="1.0" encoding="UTF-8" standalone="no"?>
<svg
   width="128"
   height="128"
   version="1"
   id="svg44"
   xml:space="preserve"
   xmlns:xlink="http://www.w3.org/1999/xlink"
   xmlns="http://www.w3.org/2000/svg"
   xmlns:svg="http://www.w3.org/2000/svg"><defs
     id="defs48"><linearGradient
       id="linearGradient1"><stop
         style="stop-color:#2e93ff;stop-opacity:1;"
         offset="0.25"
         id="stop1" /><stop
         style="stop-color:#37eb00;stop-opacity:1;"
         offset="0.25"
         id="stop3" /><stop
         style="stop-color:#37eb00;stop-opacity:1;"
         offset="0.5"
         id="stop4" /><stop
         style="stop-color:#ffef0a;stop-opacity:1;"
         offset="0.5"
         id="stop5" /><stop
         style="stop-color:#ffef0a;stop-opacity:1;"
         offset="0.75"
         id="stop6" /><stop
         style="stop-color:#ff291a;stop-opacity:1;"
         offset="0.75"
         id="stop2" /></linearGradient><linearGradient
       xlink:href="#linearGradient1571"
       id="linearGradient1573"
       x1="12"
       y1="66"
       x2="116"
       y2="66"
       gradientUnits="userSpaceOnUse" /><linearGradient
       id="linearGradient1571"><stop
         style="stop-color:#ffffff;stop-opacity:0;"
         offset="0"
         id="stop1567" /><stop
         style="stop-color:#ffffff;stop-opacity:1;"
         offset="0.03567462"
         id="stop1575" /><stop
         style="stop-color:#ffffff;stop-opacity:0;"
         offset="0.07302466"
         id="stop1577" /><stop
         style="stop-color:#ffffff;stop-opacity:0;"
         offset="0.92681795"
         id="stop1579" /><stop
         style="stop-color:#ffffff;stop-opacity:1;"
         offset="0.96064132"
         id="stop1581" /><stop
         style="stop-color:#ffffff;stop-opacity:0;"
         offset="1"
         id="stop1569" /></linearGradient><linearGradient
       xlink:href="#linearGradient1"
       id="linearGradient2"
       x1="12.000004"
       y1="65.999996"
       x2="116"
       y2="65.999996"
       gradientUnits="userSpaceOnUse" /></defs><rect
     style="display:inline;fill:url(#linearGradient2);fill-opacity:1;stroke:none;stroke-width:0.25;stroke-linecap:butt;stroke-linejoin:miter;stroke-miterlimit:4;stroke-dasharray:none;stroke-dashoffset:0;stroke-opacity:1;marker:none;marker-start:none;marker-mid:none;marker-end:none;paint-order:normal;enable-background:new"
     id="rect1"
     width="104"
     height="100"
     x="12.000004"
     y="15.999996"
     rx="8"
     ry="8" /><rect
     style="display:inline;fill:url(#linearGradient1573);fill-opacity:1;stroke:none;stroke-width:0.25;stroke-linecap:butt;stroke-linejoin:miter;stroke-miterlimit:4;stroke-dasharray:none;stroke-dashoffset:0;stroke-opacity:1;marker:none;marker-start:none;marker-mid:none;marker-end:none;paint-order:normal;enable-background:new;opacity:0.7"
     id="rect1711-5"
     width="104"
     height="100"
     x="12.000004"
     y="15.999996"
     rx="8"
     ry="8" /><rect
     style="display:inline;fill:#ffffff;fill-opacity:1;stroke:none;stroke-width:0.25;stroke-linecap:butt;stroke-linejoin:miter;stroke-miterlimit:4;stroke-dasharray:none;stroke-dashoffset:0;stroke-opacity:1;marker:none;marker-start:none;marker-mid:none;marker-end:none;paint-order:normal;enable-background:new"
     id="rect1711"
     width="104"
     height="100"
     x="12.000004"
     y="11.999996"
     rx="8"
     ry="8" /><path
     id="text7"
     style="font-weight:600;font-size:50.87px;line-height:1;font-family:Akshar;-inkscape-font-specification:'Akshar Semi-Bold';text-align:center;letter-spacing:0px;text-anchor:middle;stroke-width:0.794844;stroke-linecap:round;stroke-linejoin:round"
     d="M 91.417969 20.521484 C 89.247515 20.521484 87.297939 20.928267 85.568359 21.742188 C 83.872693 22.556108 82.534268 23.658381 81.550781 25.048828 C 80.571252 26.43368 80.07816 28.054331 80.074219 29.910156 C 80.07757 31.898868 80.433766 33.601907 81.142578 35.019531 C 81.888671 36.409978 82.839134 37.630327 83.992188 38.681641 C 85.145241 39.699041 86.36559 40.613814 87.654297 41.427734 C 88.976917 42.207741 90.214134 42.970704 91.367188 43.716797 C 92.520241 44.46289 93.470704 45.261542 94.216797 46.109375 C 94.96289 46.957208 95.335938 47.956322 95.335938 49.109375 C 95.335938 50.296342 94.96289 51.229936 94.216797 51.908203 C 93.470704 52.552556 92.452769 52.875 91.164062 52.875 C 89.705789 52.875 88.519176 52.33132 87.603516 51.246094 C 86.721769 50.126954 86.213778 48.567293 86.078125 46.566406 L 79.617188 47.736328 C 79.956321 51.127661 81.142934 53.772728 83.177734 55.671875 C 85.212534 57.571022 87.874469 58.521484 91.164062 58.521484 C 93.334516 58.521484 95.267224 58.114701 96.962891 57.300781 C 98.692471 56.486861 100.04972 55.384587 101.0332 53.994141 C 102.01669 52.569781 102.50781 50.940695 102.50781 49.109375 C 102.50781 47.108488 102.13477 45.413884 101.38867 44.023438 C 100.64258 42.599078 99.694068 41.376775 98.541016 40.359375 C 97.387962 39.308062 96.148792 38.393288 94.826172 37.613281 C 93.537465 36.799361 92.317116 36.019531 91.164062 35.273438 C 90.011009 34.527344 89.0625 33.730646 88.316406 32.882812 C 87.609532 32.007635 87.253313 31.015297 87.248047 29.90625 C 87.253438 28.731598 87.626525 27.808096 88.367188 27.134766 C 89.113281 26.456499 90.129262 26.117187 91.417969 26.117188 C 92.401455 26.117187 93.233843 26.473367 93.912109 27.185547 C 94.590376 27.897727 95.014027 28.930576 95.183594 30.287109 L 101.54102 29.117188 C 101.26971 27.319781 100.67738 25.793856 99.761719 24.539062 C 98.846059 23.250356 97.676313 22.26811 96.251953 21.589844 C 94.827593 20.877664 93.215375 20.521484 91.417969 20.521484 z M 63.695312 20.572266 C 61.565618 20.585849 59.647825 21.026584 57.945312 21.894531 C 56.249646 22.776278 54.911221 23.996627 53.927734 25.556641 C 52.944248 27.116654 52.453125 28.880683 52.453125 30.847656 L 52.453125 48.193359 C 52.461397 50.173566 52.95259 51.937594 53.927734 53.484375 C 54.911221 55.010475 56.249646 56.230824 57.945312 57.146484 C 59.647825 58.014432 61.565618 58.455167 63.695312 58.46875 L 63.695312 58.470703 C 63.712283 58.470703 63.729152 58.470757 63.746094 58.470703 C 63.763037 58.470757 63.779904 58.470703 63.796875 58.470703 L 63.796875 58.46875 C 65.926042 58.455165 67.825014 58.01443 69.494141 57.146484 C 71.223721 56.230824 72.579013 55.010475 73.5625 53.484375 C 74.545986 51.924362 75.039063 50.143465 75.039062 48.142578 L 75.039062 30.796875 C 75.03065 28.850355 74.5375 27.103194 73.5625 25.556641 C 72.579013 23.996627 71.223721 22.776278 69.494141 21.894531 C 67.811732 21.019679 65.895893 20.579106 63.746094 20.572266 C 63.729124 20.57232 63.712255 20.572158 63.695312 20.572266 z M 25.490234 21.333984 L 25.490234 57.707031 L 32.664062 57.707031 L 35.5625 57.707031 C 37.732953 57.707031 39.667615 57.266512 41.363281 56.384766 C 43.058948 55.469106 44.397373 54.246803 45.380859 52.720703 C 46.347646 51.18718 46.839052 49.441972 46.855469 47.482422 L 46.857422 47.482422 L 46.857422 31.611328 C 46.857422 29.644355 46.364346 27.880326 45.380859 26.320312 C 44.397373 24.760299 43.058948 23.53995 41.363281 22.658203 C 39.667615 21.776456 37.732953 21.333984 35.5625 21.333984 L 32.664062 21.333984 L 25.490234 21.333984 z M 63.746094 26.167969 C 65.010731 26.178566 66.009845 26.585491 66.746094 27.388672 C 67.492187 28.202592 67.865234 29.35547 67.865234 30.847656 L 67.865234 48.142578 C 67.865234 49.634765 67.492187 50.806464 66.746094 51.654297 C 66.009845 52.457478 65.010731 52.864402 63.746094 52.875 C 62.481456 52.864402 61.48039 52.457478 60.744141 51.654297 C 59.998047 50.806464 59.625 49.634765 59.625 48.142578 L 59.625 30.847656 C 59.625 29.35547 59.998047 28.202592 60.744141 27.388672 C 61.48039 26.585491 62.481456 26.178566 63.746094 26.167969 z M 32.664062 26.929688 L 35.5625 26.929688 C 36.851207 26.929687 37.852273 27.338424 38.564453 28.152344 C 39.310546 28.966264 39.683594 30.119141 39.683594 31.611328 L 39.683594 47.380859 C 39.683594 48.873046 39.310546 50.042792 38.564453 50.890625 C 37.852273 51.704545 36.851207 52.111328 35.5625 52.111328 L 32.664062 52.111328 L 32.664062 26.929688 z M 25.490234 65.478516 L 25.490234 102.69922 L 32.830078 102.69922 L 35.798828 102.69922 C 38.019833 102.69922 39.997262 102.24798 41.732422 101.3457 C 43.467582 100.40872 44.837357 99.1593 45.84375 97.597656 C 46.850143 96.001309 47.353516 94.178348 47.353516 92.130859 L 47.353516 91.142578 C 47.344101 89.324575 46.840638 87.710175 45.84375 86.300781 C 45.031364 85.124222 43.971983 84.152337 42.662109 83.382812 C 43.735419 82.677428 44.6223 81.828306 45.324219 80.835938 C 46.330611 79.378403 46.833984 77.745972 46.833984 75.941406 C 46.825376 73.94955 46.321928 72.162651 45.324219 70.580078 C 44.317826 68.983731 42.946098 67.734315 41.210938 66.832031 C 39.475778 65.929749 37.498348 65.478516 35.277344 65.478516 L 32.830078 65.478516 L 25.490234 65.478516 z M 65.640625 65.478516 C 63.731949 65.478516 62.047378 65.877608 60.589844 66.675781 C 59.13231 67.439251 58.005205 68.532247 57.207031 69.955078 C 56.408857 71.343206 56.009766 72.975637 56.009766 74.849609 L 56.009766 94.109375 C 56.009766 95.983348 56.408857 97.631857 57.207031 99.054688 C 58.005205 100.44282 59.13231 101.53581 60.589844 102.33398 C 62.047378 103.09746 63.731949 103.47852 65.640625 103.47852 C 67.584004 103.47852 69.266622 103.09746 70.689453 102.33398 C 72.146988 101.53581 73.274092 100.44282 74.072266 99.054688 C 74.870439 97.631857 75.269531 95.983348 75.269531 94.109375 L 75.269531 74.796875 C 75.2622 72.944737 74.86304 71.330338 74.072266 69.955078 C 73.274092 68.532247 72.146988 67.439251 70.689453 66.675781 C 69.266622 65.877608 67.584004 65.478516 65.640625 65.478516 z M 83.144531 66.259766 L 91.109375 84.478516 L 83.144531 102.69922 L 86.580078 102.69922 L 92.826172 88.408203 L 99.074219 102.69922 L 102.50977 102.69922 L 94.544922 84.478516 L 102.50977 66.259766 L 99.074219 66.259766 L 92.826172 80.548828 L 86.580078 66.259766 L 83.144531 66.259766 z M 65.640625 68.757812 C 67.584004 68.757812 69.09217 69.297248 70.167969 70.373047 C 71.278471 71.414143 71.833984 72.906231 71.833984 74.849609 L 71.833984 94.109375 C 71.833984 96.01805 71.278471 97.510138 70.167969 98.585938 C 69.09217 99.661735 67.584004 100.19922 65.640625 100.19922 C 63.697246 100.19922 62.169096 99.661735 61.058594 98.585938 C 59.982794 97.510138 59.445312 96.01805 59.445312 94.109375 L 59.445312 74.849609 C 59.445312 72.906231 59.982794 71.414143 61.058594 70.373047 C 62.169096 69.297248 63.697246 68.757812 65.640625 68.757812 z M 32.830078 71.205078 L 35.277344 71.205078 C 36.596065 71.205078 37.620842 71.622201 38.349609 72.455078 C 39.108785 73.28327 39.48987 74.454281 39.494141 75.96875 C 39.48987 77.517727 39.108785 78.723238 38.349609 79.585938 C 37.620842 80.418814 36.596065 80.835938 35.277344 80.835938 L 32.830078 80.835938 L 32.830078 71.205078 z M 32.830078 86.248047 L 35.798828 86.248047 C 37.117549 86.248047 38.140373 86.683201 38.869141 87.550781 C 39.632611 88.418361 40.013672 89.631715 40.013672 91.193359 L 40.013672 92.130859 C 40.013672 93.6578 39.632611 94.855076 38.869141 95.722656 C 38.140373 96.555533 37.117549 96.972656 35.798828 96.972656 L 32.830078 96.972656 L 32.830078 86.248047 z " /></svg>
