<?xml version="1.0" encoding="UTF-8" standalone="no"?>
<svg
   width="128"
   height="128"
   version="1"
   id="svg20"
   xml:space="preserve"
   xmlns:xlink="http://www.w3.org/1999/xlink"
   xmlns="http://www.w3.org/2000/svg"
   xmlns:svg="http://www.w3.org/2000/svg"><defs
     id="defs24"><linearGradient
       id="a"
       gradientUnits="userSpaceOnUse"
       x1="37.000977"
       x2="123.27344"
       y1="121.84668"
       y2="121.84668"
       gradientTransform="matrix(0.99850482,0,0,0.98183124,0.1854,3.37566)"><stop
         offset="0"
         stop-color="#deddda"
         id="stop1-2"
         style="stop-color:#005d85;stop-opacity:1;" /><stop
         offset="0.36981499"
         stop-color="#deddda"
         id="stop2"
         style="stop-color:#1fbaff;stop-opacity:1;" /><stop
         offset="0.78840399"
         stop-color="#deddda"
         id="stop3-6"
         style="stop-color:#005c85;stop-opacity:1;" /><stop
         offset="1"
         stop-color="#f6f5f4"
         id="stop4"
         style="stop-color:#05b2ff;stop-opacity:1;" /></linearGradient><linearGradient
       xlink:href="#linearGradient924"
       id="linearGradient926"
       x1="6.4195237"
       y1="0.59797412"
       x2="6.3958426"
       y2="12.191067"
       gradientUnits="userSpaceOnUse"
       spreadMethod="pad"
       gradientTransform="matrix(10.111899,0,0,10.174881,-0.4679,-3.0633944)" /><linearGradient
       id="linearGradient924"><stop
         style="stop-color:#3daee9;stop-opacity:1;"
         offset="0"
         id="stop920" /><stop
         style="stop-color:#0082ba;stop-opacity:1;"
         offset="1"
         id="stop922" /></linearGradient></defs><path
     d="M 64,7 C 30.86213,7 3.99611,33.41356 4,65.99808 4,98.58261 30.86213,125 64,125 97.13788,124.996 124,98.58261 124,65.99808 124,33.4174 97.13788,7 64,7 Z"
     fill="url(#a)"
     id="path12"
     style="fill:url(#a);stroke-width:0.990133" /><path
     id="path1730"
     style="fill:url(#linearGradient926);stroke-width:10.1434"
     d="M 124.00001,62 A 60,59 0 0 1 64.000008,121 60,59 0 0 1 4.0000076,62 60,59 0 0 1 64.000008,3 60,59 0 0 1 124.00001,62 Z" /><path
     id="path839"
     style="baseline-shift:baseline;display:inline;overflow:visible;vector-effect:none;fill:#ffffff;fill-rule:evenodd;stroke-width:8.01335;stroke-linecap:round;enable-background:accumulate;stop-color:#000000"
     d="m 69.824219,21.947266 a 3.2053392,3.2053392 0 0 0 -2.949219,2.003906 3.2053392,3.2053392 0 0 0 1.769531,4.179687 c 11.551768,4.69631 19.883515,16.930719 17.294922,29.298829 -0.954213,4.559162 -3.758361,8.984767 -7.435547,11.785156 -3.677185,2.800388 -8.030386,4.028508 -12.691406,2.738281 -2.366838,-0.655171 -4.817942,-2.384975 -6.230469,-4.445313 -1.412526,-2.060338 -1.877152,-4.177399 -0.970703,-6.49414 0.297877,-0.761325 1.186973,-1.827215 1.988281,-2.285156 0.563086,-0.321799 0.868206,-0.444179 1.195313,-0.365235 a 3.2053392,3.2053392 0 0 1 0.3125,-0.683593 c -0.09297,0.23078 -0.16943,0.468632 -0.228516,0.708984 -0.02851,-0.0097 -0.05597,-0.01863 -0.08398,-0.02539 a 3.2053392,3.2053392 0 0 0 0.01172,2.001953 c 0.178737,0.989695 0.617102,1.753376 1.080078,2.355469 1.023608,1.331187 2.13184,2.097358 3.662109,2.535156 3.392875,0.970676 6.708382,-0.478525 8.716797,-2.550781 2.008416,-2.072258 3.163357,-4.710665 3.412109,-7.433594 0.489977,-5.363456 -2.076082,-10.001062 -5.71289,-12.990234 -3.636807,-2.989173 -8.32791,-4.609327 -12.958985,-4.554688 -7.988513,0.09425 -14.614147,4.264545 -18.890625,10.03125 -4.276479,5.766705 -6.414021,13.131693 -5.86914,20.332032 1.405966,18.579138 17.66842,31.890032 35.214844,33.726565 a 3.2053392,3.2053392 0 0 0 3.521484,-2.847659 3.2053392,3.2053392 0 0 0 -2.863281,-3.537109 C 56.359875,93.88683 42.787642,82.657544 41.648438,67.603516 41.226407,62.026585 42.959133,56.021206 46.265625,51.5625 c 3.306491,-4.458707 7.973046,-7.366587 13.818359,-7.435547 3.013436,-0.03555 6.44454,1.153332 8.8125,3.099609 2.367959,1.946278 3.679183,4.370285 3.396485,7.464844 -0.09981,1.092518 -0.793582,2.674736 -1.644531,3.552735 -0.776687,0.801384 -1.293074,1.073389 -2.105469,0.90625 0.0085,-0.04154 0.01655,-0.08371 0.02344,-0.125 0.180858,-1.084274 -0.04441,-1.983437 -0.328125,-2.707032 -0.567426,-1.447192 -1.318918,-2.383725 -2.583984,-3.177734 -2.709392,-1.700531 -5.987158,-1.267524 -8.232422,0.01563 -2.245263,1.28315 -3.879024,3.223788 -4.773437,5.509766 -1.736597,4.438464 -0.696717,9.057667 1.644531,12.472656 2.341249,3.414989 5.886542,5.90934 9.8125,6.996094 3.363344,0.931015 6.688275,0.916844 9.796875,0.203125 3.108598,-0.713719 5.998028,-2.127988 8.484375,-4.021485 4.972695,-3.786995 8.540395,-9.419581 9.828125,-15.572265 3.312802,-15.828323 -7.012342,-30.80883 -21.160156,-36.560547 a 3.2053392,3.2053392 0 0 0 -1.230469,-0.236328 z" /></svg>
