<?xml version="1.0" encoding="UTF-8" standalone="no"?>
<!-- Generator: Adobe Illustrator 23.0.1, SVG Export Plug-In . SVG Version: 6.00 Build 0)  -->

<svg
   version="1.1"
   id="Livello_1"
   x="0px"
   y="0px"
   viewBox="0 0 128 128"
   enable-background="new 0 0 240.1 240.1"
   xml:space="preserve"
   width="128"
   height="128"
   xmlns:xlink="http://www.w3.org/1999/xlink"
   xmlns="http://www.w3.org/2000/svg"
   xmlns:svg="http://www.w3.org/2000/svg"><defs
   id="defs13"><linearGradient
     id="linearGradient17"
     gradientUnits="userSpaceOnUse"
     x1="0"
     y1="269.46301"
     x2="118.926"
     y2="269.46301"
     gradientTransform="matrix(1,0,0,0.98333333,-118,-175.03333)"><stop
       offset="0"
       stop-color="#e5a50a"
       id="stop14"
       style="stop-color:#4e2371;stop-opacity:1;" /><stop
       offset="0.414"
       stop-color="#fbdf9b"
       id="stop15"
       style="stop-color:#a774d3;stop-opacity:1;" /><stop
       offset="0.81300002"
       stop-color="#e5a50a"
       id="stop16"
       style="stop-color:#4e2371;stop-opacity:1;" /><stop
       offset="1"
       stop-color="#f8ca5b"
       id="stop17"
       style="stop-color:#a168cf;stop-opacity:1;" /></linearGradient><linearGradient
     xlink:href="#linearGradient17"
     id="linearGradient5"
     x1="-104.64275"
     y1="176.5119"
     x2="3.3572464"
     y2="176.5119"
     gradientUnits="userSpaceOnUse"
     gradientTransform="matrix(1.1111111,0,0,1.0925926,120.26972,-126.85559)" /><linearGradient
     id="linearGradient4284"><stop
       offset="0"
       style="stop-color:#8381c5;stop-opacity:1"
       id="stop4286" /><stop
       id="stop4290"
       style="stop-color:#7e55b3;stop-opacity:0.99607843"
       offset="0.56639391" /><stop
       offset="1"
       style="stop-color:#a52ecb;stop-opacity:0.99215686"
       id="stop4288" /></linearGradient><linearGradient
     xlink:href="#linearGradient4284"
     id="linearGradient2"
     x1="25.639597"
     y1="26.952381"
     x2="113.02857"
     y2="128"
     gradientUnits="userSpaceOnUse" /></defs>

<path
   id="circle2-6"
   style="fill:url(#linearGradient5);stroke-width:0.343027"
   d="M 124,66.000001 A 59.999999,58.999999 0 0 1 63.999999,125 59.999999,58.999999 0 0 1 4.0000011,66.000001 59.999999,58.999999 0 0 1 63.999999,7.0000021 59.999999,58.999999 0 0 1 124,66.000001 Z" /><path
   id="circle2"
   style="fill:url(#linearGradient2);fill-opacity:1;stroke-width:0.343026"
   d="M 124,62.000003 A 59.999999,59 0 0 1 64.000002,121 59.999999,59 0 0 1 4.0000011,62.000003 59.999999,59 0 0 1 64.000002,3.000002 59.999999,59 0 0 1 124,62.000003 Z" /><rect
   style="display:none;fill:none;stroke-width:0.230314"
   id="rect4772"
   y="1.3328474"
   x="-135.86746"
   height="117.92091"
   width="117.92091" /><g
   style="display:none"
   id="g4788"
   transform="matrix(0.23031428,0,0,0.23031428,-135.90685,1.2865542)"><g
     style="display:inline"
     id="g4790" /></g><g
   style="display:none"
   id="g4806"
   transform="matrix(0.23031428,0,0,0.23031428,-135.90685,1.2865542)"><g
     style="display:inline"
     id="g4808"><path
       style="display:none;fill:#050505"
       id="path4810"
       d="m 349.098,256.651 c -0.265,-0.254 37.637,27.605 39.421,25.012 6.362,-9.252 82.046,-93.137 84.784,-116.236 0.242,-2.003 -0.516,-4.096 -0.516,-4.096 0,0 -1.19,-0.144 -6.325,-4.314 -2.692,-2.192 -5.483,-4.581 -5.483,-4.581 -16.054,0.998 -57.885,41.559 -111.062,103.568" /></g></g><path
   d="m 44.008821,104.26912 c 0,0 4.924893,0.3484 11.260552,-0.20998 2.565782,-0.22613 12.307363,-1.18298 19.590526,-2.78023 0,0 8.879934,-1.900422 13.6306,-3.651128 4.970806,-1.831844 7.675738,-3.38657 8.893257,-5.589566 -0.05309,-0.451375 0.374861,-2.052042 -1.917462,-3.013517 C 89.605696,86.566557 82.808798,87.011181 69.359415,86.726027 54.444578,86.213562 49.483003,83.717044 46.839999,81.706348 44.305531,79.66658 45.579988,74.023389 56.439587,69.052596 61.90988,66.40558 83.354045,61.52073 83.354045,61.52073 76.132037,57.950969 62.665264,51.675445 59.897032,50.320297 c -2.427904,-1.188523 -6.313279,-2.978105 -7.15549,-5.14326 -0.954889,-2.078617 2.25512,-3.869171 4.048203,-4.381934 5.774793,-1.665715 13.927039,-2.70101 21.346532,-2.81724 3.729434,-0.05842 4.334787,-0.298375 4.334787,-0.298375 5.14591,-0.853604 8.533494,-4.374298 7.122082,-9.950035 -1.267073,-5.691373 -7.949721,-9.035565 -14.300202,-7.877841 -5.980237,1.090236 -20.394164,5.277093 -20.394164,5.277093 17.816681,-0.154203 20.798715,0.143163 22.130534,2.005228 0.786522,1.099683 -0.357393,2.60752 -5.109033,3.383565 -5.173031,0.844871 -15.926339,1.862319 -15.926339,1.862319 -10.315847,0.612639 -17.582311,0.653643 -19.761711,5.267878 -1.42381,3.014535 1.51835,5.679606 2.8079,7.347811 5.44941,6.060291 13.320737,9.328769 18.387379,11.7357 1.90636,0.905618 7.499835,2.61585 7.499835,2.61585 -16.43708,-0.904051 -28.294184,4.143191 -35.249464,9.954391 -7.86667,7.276279 -4.38669,15.949379 11.72992,21.289645 9.519125,3.154169 14.24,4.637576 28.439201,3.358945 8.363479,-0.450792 9.681899,-0.182527 9.765284,0.503735 0.117394,0.966196 -9.289424,3.366263 -11.857577,4.107036 -6.533418,1.884542 -23.660158,5.689862 -23.745888,5.708312 z"
   id="path4237"
   style="fill:#ffffff;fill-opacity:1;fill-rule:evenodd;stroke:#000000;stroke-width:0;stroke-linecap:butt;stroke-linejoin:miter;stroke-miterlimit:4;stroke-dasharray:none;stroke-opacity:1" /></svg>
