<?xml version="1.0" encoding="UTF-8" standalone="no"?>
<svg
   viewBox="0 0 128 128"
   style="display:inline;enable-background:new"
   version="1.0"
   id="svg11300"
   height="128"
   width="128"
   xmlns:xlink="http://www.w3.org/1999/xlink"
   xmlns="http://www.w3.org/2000/svg"
   xmlns:svg="http://www.w3.org/2000/svg"
   xmlns:rdf="http://www.w3.org/1999/02/22-rdf-syntax-ns#"
   xmlns:cc="http://creativecommons.org/ns#"
   xmlns:dc="http://purl.org/dc/elements/1.1/">
  <title
     id="title4162">Adwaita Icon Template</title>
  <defs
     id="defs3">
    <linearGradient
       id="linearGradient67">
      <stop
         style="stop-color:#8c8c8c;stop-opacity:1;"
         offset="0.01504205"
         id="stop67" />
      <stop
         style="stop-color:#d9d9d9;stop-opacity:1;"
         offset="0.02669105"
         id="stop69" />
      <stop
         style="stop-color:#8c8c8c;stop-opacity:1;"
         offset="0.06661551"
         id="stop77" />
      <stop
         style="stop-color:#8c8c8c;stop-opacity:1;"
         offset="0.13392857"
         id="stop78" />
      <stop
         style="stop-color:#d9d9d9;stop-opacity:1;"
         offset="0.15767498"
         id="stop79" />
      <stop
         style="stop-color:#8c8c8c;stop-opacity:1;"
         offset="0.18505859"
         id="stop80" />
      <stop
         style="stop-color:#8c8c8c;stop-opacity:1;"
         offset="0.51644713"
         id="stop81" />
      <stop
         style="stop-color:#d9d9d9;stop-opacity:1;"
         offset="0.5486089"
         id="stop82" />
      <stop
         style="stop-color:#8c8c8c;stop-opacity:1;"
         offset="0.57567859"
         id="stop83" />
      <stop
         style="stop-color:#737373;stop-opacity:1;"
         offset="0.7590332"
         id="stop84" />
      <stop
         style="stop-color:#d9d9d9;stop-opacity:1;"
         offset="0.81741273"
         id="stop85" />
      <stop
         style="stop-color:#8c8c8c;stop-opacity:1;"
         offset="0.85778564"
         id="stop75" />
    </linearGradient>
    <linearGradient
       id="linearGradient61">
      <stop
         style="stop-color:#d51f0b;stop-opacity:1;"
         offset="0"
         id="stop61" />
      <stop
         style="stop-color:#f9a39a;stop-opacity:1;"
         offset="0.32723811"
         id="stop63" />
      <stop
         style="stop-color:#d51f0b;stop-opacity:1;"
         offset="0.73091221"
         id="stop64" />
      <stop
         style="stop-color:#f88d81;stop-opacity:1;"
         offset="1"
         id="stop62" />
    </linearGradient>
    <linearGradient
       id="linearGradient56">
      <stop
         style="stop-color:#444346;stop-opacity:1;"
         offset="0.85015744"
         id="stop56" />
      <stop
         style="stop-color:#908f94;stop-opacity:1;"
         offset="0.98965138"
         id="stop58" />
      <stop
         style="stop-color:#444346;stop-opacity:1;"
         offset="1"
         id="stop57" />
    </linearGradient>
    <linearGradient
       id="linearGradient55">
      <stop
         style="stop-color:#4a4a4a;stop-opacity:1;"
         offset="0"
         id="stop53" />
      <stop
         style="stop-color:#969696;stop-opacity:1;"
         offset="0.06143874"
         id="stop54" />
      <stop
         style="stop-color:#4a4a4a;stop-opacity:1;"
         offset="0.29575393"
         id="stop55" />
    </linearGradient>
    <linearGradient
       id="linearGradient44">
      <stop
         style="stop-color:#4a4a4a;stop-opacity:1;"
         offset="0"
         id="stop45" />
      <stop
         style="stop-color:#969696;stop-opacity:1;"
         offset="0.06143874"
         id="stop47" />
      <stop
         style="stop-color:#4a4a4a;stop-opacity:1;"
         offset="0.28155392"
         id="stop46" />
    </linearGradient>
    <linearGradient
       xlink:href="#linearGradient41"
       id="linearGradient43"
       x1="59.796871"
       y1="61.183723"
       x2="68.79496"
       y2="61.183723"
       gradientUnits="userSpaceOnUse"
       gradientTransform="matrix(0.74683558,0.74683558,-0.74683558,0.74683558,56.343929,-27.546227)" />
    <linearGradient
       id="linearGradient41">
      <stop
         style="stop-color:#000000;stop-opacity:1;"
         offset="0"
         id="stop42" />
      <stop
         style="stop-color:#323232;stop-opacity:1;"
         offset="0.48897651"
         id="stop44" />
      <stop
         style="stop-color:#000000;stop-opacity:1;"
         offset="1"
         id="stop43" />
    </linearGradient>
    <linearGradient
       xlink:href="#linearGradient39"
       id="linearGradient40"
       x1="58.099609"
       y1="40.079063"
       x2="70.490219"
       y2="40.079063"
       gradientUnits="userSpaceOnUse"
       gradientTransform="matrix(0.74683558,0.74683558,-0.74683558,0.74683558,56.343929,-27.546227)" />
    <linearGradient
       id="linearGradient39">
      <stop
         style="stop-color:#939393;stop-opacity:1;"
         offset="0"
         id="stop39" />
      <stop
         style="stop-color:#c0c0c0;stop-opacity:1;"
         offset="0.48510742"
         id="stop41" />
      <stop
         style="stop-color:#939393;stop-opacity:1;"
         offset="1"
         id="stop40" />
    </linearGradient>
    <linearGradient
       xlink:href="#linearGradient44"
       id="linearGradient46"
       x1="28.211686"
       y1="23.621274"
       x2="46.872899"
       y2="23.621274"
       gradientUnits="userSpaceOnUse" />
    <linearGradient
       xlink:href="#linearGradient44"
       id="linearGradient49"
       x1="45.790825"
       y1="41.201031"
       x2="64.453911"
       y2="41.201031"
       gradientUnits="userSpaceOnUse" />
    <linearGradient
       xlink:href="#linearGradient44"
       id="linearGradient51"
       x1="78.211342"
       y1="73.709198"
       x2="96.874428"
       y2="73.709198"
       gradientUnits="userSpaceOnUse" />
    <linearGradient
       xlink:href="#linearGradient55"
       id="linearGradient53"
       x1="95.849327"
       y1="91.347183"
       x2="114.51242"
       y2="91.347183"
       gradientUnits="userSpaceOnUse" />
    <linearGradient
       xlink:href="#linearGradient56"
       id="linearGradient57"
       x1="63.686691"
       y1="35.153888"
       x2="73.921314"
       y2="35.153888"
       gradientUnits="userSpaceOnUse" />
    <linearGradient
       xlink:href="#linearGradient56"
       id="linearGradient60"
       x1="86.695236"
       y1="58.162563"
       x2="96.928345"
       y2="58.162563"
       gradientUnits="userSpaceOnUse" />
    <linearGradient
       xlink:href="#linearGradient61"
       id="linearGradient62"
       x1="95.04774"
       y1="47.465219"
       x2="108.31675"
       y2="47.465219"
       gradientUnits="userSpaceOnUse" />
    <linearGradient
       xlink:href="#linearGradient61"
       id="linearGradient66"
       x1="72.006401"
       y1="24.418751"
       x2="85.274979"
       y2="24.418751"
       gradientUnits="userSpaceOnUse" />
    <linearGradient
       xlink:href="#linearGradient67"
       id="linearGradient68"
       x1="12.057714"
       y1="78.593889"
       x2="88.421884"
       y2="78.593889"
       gradientUnits="userSpaceOnUse" />
  </defs>
  <metadata
     id="metadata4">
    <rdf:RDF>
      <cc:Work
         rdf:about="">
        <dc:format>image/svg+xml</dc:format>
        <dc:type
           rdf:resource="http://purl.org/dc/dcmitype/StillImage" />
        <dc:creator>
          <cc:Agent>
            <dc:title>GNOME Design Team</dc:title>
          </cc:Agent>
        </dc:creator>
        <dc:source />
        <cc:license
           rdf:resource="http://creativecommons.org/licenses/by-sa/4.0/" />
        <dc:title>Adwaita Icon Template</dc:title>
        <dc:subject>
          <rdf:Bag />
        </dc:subject>
        <dc:date />
        <dc:rights>
          <cc:Agent>
            <dc:title />
          </cc:Agent>
        </dc:rights>
        <dc:publisher>
          <cc:Agent>
            <dc:title />
          </cc:Agent>
        </dc:publisher>
        <dc:identifier />
        <dc:relation />
        <dc:language />
        <dc:coverage />
        <dc:description />
        <dc:contributor>
          <cc:Agent>
            <dc:title />
          </cc:Agent>
        </dc:contributor>
      </cc:Work>
      <cc:License
         rdf:about="http://creativecommons.org/licenses/by-sa/4.0/">
        <cc:permits
           rdf:resource="http://creativecommons.org/ns#Reproduction" />
        <cc:permits
           rdf:resource="http://creativecommons.org/ns#Distribution" />
        <cc:requires
           rdf:resource="http://creativecommons.org/ns#Notice" />
        <cc:requires
           rdf:resource="http://creativecommons.org/ns#Attribution" />
        <cc:permits
           rdf:resource="http://creativecommons.org/ns#DerivativeWorks" />
        <cc:requires
           rdf:resource="http://creativecommons.org/ns#ShareAlike" />
      </cc:License>
    </rdf:RDF>
  </metadata>
  <g
     id="g85"
     transform="matrix(0.97602615,0,0,0.97746733,2.2328854,1.8542541)">
    <path
       id="path43"
       style="display:inline;fill:url(#linearGradient46);fill-opacity:1;stroke-width:2.22222;enable-background:new"
       d="m 29.295097,31.957428 c 1.484766,0.975391 3.838884,1.439275 5.329225,-0.05107 L 45.740044,20.79064 c 1.490342,-1.490342 1.513119,-3.867178 0.05107,-5.329228 -1.46205,-1.46205 -3.838886,-1.439273 -5.329228,0.05107 L 29.346163,26.628203 c -0.404954,0.404954 -1.127813,-1.093869 -1.127813,-1.093869 0,0 -0.01104,3.387633 -0.0047,3.856286 0.01551,1.14469 0.305463,2.057043 1.081441,2.566808 z" />
    <path
       id="path42"
       style="display:inline;fill:#d51f0b;fill-opacity:1;stroke-width:12.1895"
       d="m 34.28125,27.761719 -0.539534,0.807862 0.0025,3.960733 13.417904,13.426717 1.658203,-1.658203 -1,-1 1,-1 z" />
    <path
       id="path30"
       style="fill:url(#linearGradient68);fill-opacity:1"
       d="M 72.464844,40.412109 C 72.233827,40.39984 71.998841,40.469499 71.806641,40.625 L 55.927734,53.496094 c -0.442413,0.358439 -0.777723,0.832747 -0.96875,1.36914 l -2.005859,5.638672 c -0.27105,0.761857 -0.763051,2.125001 -1.505859,2.365235 -0.06823,0.02206 -0.761814,0.185348 -1.548828,0.371093 l -2.75586,0.650391 c -0.787016,0.185746 -2.111021,0.472398 -2.71875,0.994141 -0.09732,0.08358 -0.633285,0.621565 -1.205078,1.193359 l -8.001953,8.001953 c -0.571793,0.571793 -1.549076,1.512672 -1.779297,2.279297 -0.0364,0.121193 -0.197097,0.862221 -0.369141,1.652344 l -0.558593,2.564453 c -0.172044,0.790124 -0.433959,2.111726 -0.919922,2.75 -0.07999,0.105058 -0.584272,0.676729 -1.119141,1.283203 L 13.666016,103.66406 c -0.347735,0.39428 -1.606831,-2.72983 -1.606831,-2.72983 v 5.06187 c 0.0016,0.041 -0.004,0.0814 0,0.12109 0.0086,0.0843 0.248683,0.82864 0.399972,1.62299 l 1.238109,5.94927 c 0.127298,0.66837 0.773117,1.31359 1.441406,1.44141 1.603272,0.30664 4.373333,0.8351 6.447266,1.23047 v 0.0391 h 0.201171 c 0.243845,0.0465 0.562033,0.10746 0.777344,0.14844 0.01685,0.003 0.0339,0.001 0.05078,0.004 0.163421,0.0325 0.316966,0.0632 0.59961,0.10938 0.209065,0.0342 0.434043,0.093 0.685547,0.10937 0.117507,0.008 0.236349,0.007 0.353515,-0.002 h 0.002 c 0.350633,-0.0293 0.704029,-0.14187 1.017579,-0.38672 l 0.0039,-0.002 L 45.9375,99.011719 c 1.043258,-0.736852 2.113028,-0.905847 3.318359,-1.220703 1.429622,-0.376704 3.007557,-0.477898 4.470703,-1.019532 0.426325,-0.157818 0.92052,-0.511878 1.226563,-0.808593 1.74869,-1.695662 3.441381,-3.445068 5.167969,-5.150391 l 0.002,-0.0039 0.002,-0.002 c 1.655523,-1.727993 3.469248,-3.346102 5.085938,-5.150391 0.337462,-0.376621 0.672454,-0.987421 0.804687,-1.474609 0.474347,-1.747633 1.444304,-5.600684 2.083984,-8.216797 L 73.96875,73.875 c 0.536392,-0.191027 1.008749,-0.526336 1.367188,-0.96875 L 88.421884,57.027344 v -1.291016 -3.269726 l -3.177741,0.377148 0.785156,-3.003906 -3.509766,-3.519532 -33.261719,33.25586 33.25586,-33.261719 -3.519531,-3.511719 -3.003907,0.78711 -2.892578,-2.896485 c -0.17465,-0.174984 -0.401796,-0.26898 -0.632812,-0.28125 z" />
    <path
       style="display:inline;fill:#908e89;fill-opacity:1;stroke-width:11.6173"
       d="m 74.69668,69.489019 0.0079,4.007949 4.876006,4.878769 12.628792,-12.628792 -7.397579,-7.39758 z"
       id="path24" />
    <path
       id="path44"
       style="display:inline;fill:url(#linearGradient49);fill-opacity:1;stroke-width:2.22222;enable-background:new"
       d="m 46.876107,49.538436 c 1.218026,0.791589 3.010934,1.250968 4.438979,0.577283 0.318352,-0.150184 0.890246,-0.628353 0.890246,-0.628353 L 63.321054,38.371648 c 1.490342,-1.490342 1.513119,-3.867178 0.05107,-5.329228 -1.46205,-1.46205 -3.838886,-1.439273 -5.329228,0.05107 L 46.927173,44.209211 c -0.429306,0.429306 -1.125034,-1.046134 -1.125034,-1.046134 0,0 -0.02098,3.420385 -0.0058,3.881616 0.03717,1.127239 0.320225,2.000137 1.079741,2.493743 z" />
    <path
       id="path44-1"
       style="display:inline;fill:url(#linearGradient51);fill-opacity:1;stroke-width:2.22222;enable-background:new"
       d="m 79.296624,82.046606 c 1.218026,0.791589 3.010934,1.250968 4.438979,0.577283 0.318352,-0.150184 0.890246,-0.628353 0.890246,-0.628353 L 95.741571,70.879818 c 1.490342,-1.490342 1.513119,-3.867178 0.05107,-5.329228 -1.46205,-1.46205 -3.838886,-1.439273 -5.329228,0.05107 L 79.34769,76.717381 c -0.429306,0.429306 -1.125034,-1.046134 -1.125034,-1.046134 0,0 -0.02098,3.420385 -0.0058,3.881616 0.03717,1.127239 0.320225,2.000137 1.079741,2.493743 z" />
    <path
       id="path42-1"
       style="display:inline;fill:#d51f0b;fill-opacity:1;stroke-width:12.1895;enable-background:new"
       d="m 84.298644,77.754453 -0.539534,0.807862 v 4.061574 l 13.420393,13.325876 1.658207,-1.658203 -1.000004,-1 1.000004,-1 z" />
    <path
       style="display:inline;fill:#908e89;fill-opacity:1;stroke-width:11.6173"
       d="m 56.258509,55.05033 -4.918887,-4.937619 v -3.978486 l 11.746727,-9.510333 7.397579,7.397579 z"
       id="path23" />
    <path
       id="path7"
       style="color:#000000;font-style:normal;font-variant:normal;font-weight:normal;font-stretch:normal;font-size:medium;line-height:normal;font-family:sans-serif;font-variant-ligatures:normal;font-variant-position:normal;font-variant-caps:normal;font-variant-numeric:normal;font-variant-alternates:normal;font-variant-east-asian:normal;font-feature-settings:normal;font-variation-settings:normal;text-indent:0;text-align:start;text-decoration-line:none;text-decoration-style:solid;text-decoration-color:#000000;letter-spacing:normal;word-spacing:normal;text-transform:none;writing-mode:lr-tb;direction:ltr;text-orientation:mixed;dominant-baseline:auto;baseline-shift:baseline;text-anchor:start;white-space:normal;shape-padding:0;shape-margin:0;inline-size:0;clip-rule:nonzero;display:inline;overflow:visible;visibility:visible;isolation:auto;mix-blend-mode:normal;color-interpolation:sRGB;color-interpolation-filters:linearRGB;solid-color:#000000;solid-opacity:1;vector-effect:none;fill:url(#linearGradient60);fill-opacity:1;fill-rule:nonzero;stroke:none;stroke-linecap:butt;stroke-linejoin:miter;stroke-miterlimit:4;stroke-dasharray:none;stroke-dashoffset:0;stroke-opacity:1;-inkscape-stroke:none;color-rendering:auto;image-rendering:auto;shape-rendering:auto;text-rendering:auto;enable-background:accumulate;stop-color:#000000"
       d="m 96.752435,57.057059 -5.14334,6.201932 -2.45693,-2.45693 -2.456931,-2.456933 6.201933,-5.143336 c 0.303658,-0.251826 0.663826,-0.103674 1.028054,0.04786 l 3.002013,1.248958 c 0,0 3.55e-4,1.872487 0.0011,2.067786 6.94e-4,0.173538 -0.02797,0.392021 -0.175941,0.490667 z" />
    <path
       id="path3-2"
       style="color:#000000;font-style:normal;font-variant:normal;font-weight:normal;font-stretch:normal;font-size:medium;line-height:normal;font-family:sans-serif;font-variant-ligatures:normal;font-variant-position:normal;font-variant-caps:normal;font-variant-numeric:normal;font-variant-alternates:normal;font-variant-east-asian:normal;font-feature-settings:normal;font-variation-settings:normal;text-indent:0;text-align:start;text-decoration-line:none;text-decoration-style:solid;text-decoration-color:#000000;letter-spacing:normal;word-spacing:normal;text-transform:none;writing-mode:lr-tb;direction:ltr;text-orientation:mixed;dominant-baseline:auto;baseline-shift:baseline;text-anchor:start;white-space:normal;shape-padding:0;shape-margin:0;inline-size:0;clip-rule:nonzero;display:inline;overflow:visible;visibility:visible;isolation:auto;mix-blend-mode:normal;color-interpolation:sRGB;color-interpolation-filters:linearRGB;solid-color:#000000;solid-opacity:1;vector-effect:none;fill:url(#linearGradient57);fill-opacity:1;fill-rule:nonzero;stroke:none;stroke-linecap:butt;stroke-linejoin:miter;stroke-miterlimit:4;stroke-dasharray:none;stroke-dashoffset:0;stroke-opacity:1;-inkscape-stroke:none;color-rendering:auto;image-rendering:auto;shape-rendering:auto;text-rendering:auto;enable-background:accumulate;stop-color:#000000"
       d="m 69.888623,30.193242 -6.201932,5.143341 2.456929,2.45693 2.456932,2.456931 5.14334,-6.201934 c 0.113869,-0.137307 0.17201,-0.303604 0.175748,-0.470389 0.0045,-0.202067 -0.0015,-2.079329 -0.0015,-2.079329 l -3.001486,-1.25769 c -0.363843,-0.152458 -0.724397,-0.299687 -1.028055,-0.04786 z" />
    <path
       id="path2-3"
       style="color:#000000;font-style:normal;font-variant:normal;font-weight:normal;font-stretch:normal;font-size:medium;line-height:normal;font-family:sans-serif;font-variant-ligatures:normal;font-variant-position:normal;font-variant-caps:normal;font-variant-numeric:normal;font-variant-alternates:normal;font-variant-east-asian:normal;font-feature-settings:normal;font-variation-settings:normal;text-indent:0;text-align:start;text-decoration-line:none;text-decoration-style:solid;text-decoration-color:#000000;letter-spacing:normal;word-spacing:normal;text-transform:none;writing-mode:lr-tb;direction:ltr;text-orientation:mixed;dominant-baseline:auto;baseline-shift:baseline;text-anchor:start;white-space:normal;shape-padding:0;shape-margin:0;inline-size:0;clip-rule:nonzero;display:inline;overflow:visible;visibility:visible;isolation:auto;mix-blend-mode:normal;color-interpolation:sRGB;color-interpolation-filters:linearRGB;solid-color:#000000;solid-opacity:1;vector-effect:none;fill:url(#linearGradient62);fill-opacity:1;fill-rule:nonzero;stroke:none;stroke-linecap:butt;stroke-linejoin:miter;stroke-miterlimit:4;stroke-dasharray:none;stroke-dashoffset:0;stroke-opacity:1;-inkscape-stroke:none;color-rendering:auto;image-rendering:auto;shape-rendering:auto;text-rendering:auto;enable-background:accumulate;stop-color:#000000"
       d="m 107.78698,41.72785 c -2.58329,0.695794 -5.19475,1.53682 -7.6906,2.792984 -0.359634,0.181 -0.935769,0.49569 -1.285259,0.704147 -1.3247,0.790159 -2.637072,1.770617 -3.373984,3.151969 -0.147886,0.280611 -0.382082,-0.348018 -0.382082,-0.348018 0,0 -0.0091,1.683161 -0.007,1.92439 0.0074,0.838745 0.332909,1.619953 0.771143,2.234514 0.76536,1.036402 1.703697,2.010064 2.938462,2.511556 0.314117,0.127587 0.859448,0.276857 1.221722,0.284293 0.747728,0.01536 1.555158,-0.257813 2.252138,-0.740088 0.33671,-0.232992 0.82346,-0.7019 1.10179,-1.007707 1.14857,-1.261972 1.94826,-2.773294 2.63292,-4.274064 0.16597,-0.363821 0.42131,-0.957268 0.56895,-1.325423 0.7159,-1.785154 1.29326,-3.597524 1.75969,-5.410678 0.0162,-0.06285 0.0231,-0.121477 0.0217,-0.175052 -0.007,-0.265206 1.4e-4,-2.104534 1.4e-4,-2.104534 z" />
    <path
       id="path1"
       style="color:#000000;font-style:normal;font-variant:normal;font-weight:normal;font-stretch:normal;font-size:medium;line-height:normal;font-family:sans-serif;font-variant-ligatures:normal;font-variant-position:normal;font-variant-caps:normal;font-variant-numeric:normal;font-variant-alternates:normal;font-variant-east-asian:normal;font-feature-settings:normal;font-variation-settings:normal;text-indent:0;text-align:start;text-decoration-line:none;text-decoration-style:solid;text-decoration-color:#000000;letter-spacing:normal;word-spacing:normal;text-transform:none;writing-mode:lr-tb;direction:ltr;text-orientation:mixed;dominant-baseline:auto;baseline-shift:baseline;text-anchor:start;white-space:normal;shape-padding:0;shape-margin:0;inline-size:0;clip-rule:nonzero;display:inline;overflow:visible;visibility:visible;isolation:auto;mix-blend-mode:normal;color-interpolation:sRGB;color-interpolation-filters:linearRGB;solid-color:#000000;solid-opacity:1;vector-effect:none;fill:url(#linearGradient66);fill-opacity:1;fill-rule:nonzero;stroke:none;stroke-linecap:butt;stroke-linejoin:miter;stroke-miterlimit:4;stroke-dasharray:none;stroke-dashoffset:0;stroke-opacity:1;-inkscape-stroke:none;color-rendering:auto;image-rendering:auto;shape-rendering:auto;text-rendering:auto;enable-background:accumulate;stop-color:#000000"
       d="m 84.745429,18.686298 c -2.583283,0.695788 -5.194745,1.536812 -7.690604,2.79298 -0.359622,0.180998 -0.93577,0.495691 -1.285254,0.704152 -1.324701,0.790159 -2.637074,1.770615 -3.373987,3.151967 -0.142657,0.270688 -0.389086,-0.539924 -0.389086,-0.539924 0,0 7.38e-4,1.837833 -7.8e-5,2.075621 -0.0029,0.854148 0.325943,1.650705 0.771254,2.27519 0.765361,1.036403 1.703694,2.01006 2.938463,2.511556 0.314114,0.127586 0.859445,0.276854 1.221716,0.284289 0.747737,0.01536 1.555162,-0.257812 2.252132,-0.740081 0.336718,-0.232997 0.823476,-0.701905 1.101799,-1.007712 1.148573,-1.261973 1.948256,-2.773298 2.632909,-4.274065 0.165974,-0.363816 0.421314,-0.95727 0.568953,-1.325426 0.715901,-1.785147 1.293297,-3.597513 1.75969,-5.410677 0.01713,-0.06659 0.02135,-0.128395 0.02136,-0.184579 l 2.85e-4,-2.104832 z" />
    <path
       style="display:inline;fill:#c0bfbc;stroke-width:11.6173"
       d="m 73.782987,68.574808 5.797644,5.800929 12.628792,-12.628792 -7.397579,-7.39758 z"
       id="path5-1" />
    <path
       id="path19"
       style="fill:#ffbe6f"
       d="m 68.226562,68.570312 c -0.123071,0.0033 -0.236023,0.04391 -0.351562,0.103516 -0.231077,0.119204 -0.480423,0.326246 -0.779297,0.644531 l -0.0332,0.03711 -0.01953,0.04492 c -0.477203,1.178732 -0.996123,3.275421 -1.53711,5.371093 -0.53777,2.083211 -1.098304,4.154901 -1.599609,5.234375 -3.103856,3.28459 -6.38645,6.42372 -9.572266,9.65625 l -0.01172,0.01367 -0.01172,0.01563 c -0.968654,1.315827 -2.549193,1.669585 -4.152344,1.947266 l -0.01563,0.0039 -0.01563,0.0039 c -1.484071,0.447231 -3.187339,0.381136 -4.722656,1.083985 l -0.03516,0.01758 -0.0293,0.02539 c -6.372188,5.603864 -12.721635,11.232252 -19.083985,16.845702 -1.369061,1.06174 -2.520166,2.25195 -4.404297,2.25195 h -0.263671 l 0.0025,0.49206 0.261138,0.0372 c 0.215182,0.0307 0.08205,-0.0183 0.207032,0.0234 0.124982,0.0418 0.380984,0.11151 1.15625,0.23828 0.209065,0.0342 0.434043,0.093 0.685547,0.10937 0.117507,0.008 0.236349,0.007 0.353515,-0.002 h 0.002 c 0.350633,-0.0293 0.70403,-0.14187 1.017579,-0.38672 l 0.0039,-0.002 L 45.9375,95.011719 c 1.043258,-0.736852 2.113028,-0.905847 3.318359,-1.220703 1.429622,-0.376704 3.007557,-0.477898 4.470703,-1.019532 0.426325,-0.157818 0.92052,-0.511878 1.226563,-0.808593 1.74869,-1.695662 3.441381,-3.445068 5.167969,-5.150391 l 0.002,-0.0039 0.002,-0.002 c 1.655523,-1.727993 3.469248,-3.346102 5.085938,-5.150391 0.337462,-0.376621 0.672454,-0.987421 0.804687,-1.474609 0.575419,-2.120012 2.012096,-7.830415 2.515625,-9.970703 0.119906,-0.316741 0.195923,-0.598811 0.21875,-0.841797 0.02372,-0.252466 0.01222,-0.489007 -0.171875,-0.666016 -0.09205,-0.0885 -0.228489,-0.136122 -0.351563,-0.132813 z" />
    <path
       id="path17"
       style="fill:#ffbe6f"
       d="m 53.673828,56.740234 c -0.05351,0.0035 -0.0946,0.01235 -0.142578,0.02539 -0.09195,0.02499 -0.209447,0.06661 -0.361328,0.125 -2.036644,0.478493 -6.204074,1.320543 -8.246094,1.853516 -0.640401,0.167147 -1.465351,0.620072 -1.955078,1.066406 -1.720709,1.568239 -3.280486,3.305183 -4.941406,4.896484 l -0.002,0.0039 -0.0039,0.002 c -1.69667,1.717815 -3.435455,3.401383 -5.123046,5.140625 -0.311242,0.320692 -0.68641,0.841566 -0.84961,1.289062 -0.52993,1.453069 -0.63224,3.015675 -1.005859,4.433594 v 0.002 c -0.320295,1.226152 -0.397556,2.411596 -1.205078,3.300781 l -0.0039,0.0039 -17.380859,20.671876 -0.002,0.0039 c -0.427806,0.547792 -0.441797,1.200722 -0.347656,1.798822 0.09358,0.59457 0.282884,1.169 0.330078,1.64063 l 0.125053,0.7084 0.410103,-0.66348 -0.0059,-0.0605 c 0,-1.65973 1.196815,-3.046426 2.25,-4.404291 l 0.002,-0.002 C 20.827974,92.214187 26.457008,85.86596 32.060547,79.494141 l 0.02539,-0.0293 0.01758,-0.03516 c 0.702849,-1.535318 0.636753,-3.240541 1.083984,-4.72461 l 0.0039,-0.01563 0.0039,-0.01563 c 0.277682,-1.603153 0.631439,-3.181737 1.947266,-4.15039 l 0.01563,-0.01172 0.01367,-0.01367 c 3.231216,-3.184521 6.369205,-6.465617 9.652344,-9.568359 2.173867,-1.010605 4.751232,-1.086479 7.080078,-2.029297 l 0.04492,-0.01758 0.03516,-0.0332 c 0.596428,-0.560052 1.263684,-1.053071 1.640625,-1.357421 0.09423,-0.07609 0.169832,-0.139239 0.230469,-0.199219 0.03032,-0.02999 0.05828,-0.05774 0.08789,-0.103516 0.01481,-0.02289 0.0306,-0.05038 0.04297,-0.101562 0.01237,-0.05119 0.01436,-0.145111 -0.03711,-0.222657 -0.05147,-0.07755 -0.125792,-0.10634 -0.171875,-0.117187 -0.04608,-0.01085 -0.07676,-0.0096 -0.103516,-0.0078 z m -41.203125,46.105466 0.0039,0.002 c -6.93e-4,0.0192 -0.01519,0.0334 -0.01563,0.0527 z" />
    <path
       style="display:inline;fill:#c0bfbc;stroke-width:11.6173"
       d="m 56.258509,51.05033 -5.80093,-5.797644 12.628792,-12.628794 7.397579,7.397579 z"
       id="path5-7" />
    <path
       style="display:inline;fill:#dadada;fill-opacity:1;stroke-width:10.5618"
       d="m 82.513455,42.314254 -3.519785,-3.510972 -3.00339,0.78622 -2.892493,-2.895481 c -0.3493,-0.349969 -0.906517,-0.379562 -1.290917,-0.06856 L 55.927861,49.496707 c -0.442413,0.358439 -0.777524,0.831835 -0.968551,1.368228 l -2.00645,5.639623 c -0.27105,0.761857 -0.762144,2.123924 -1.504952,2.364158 -0.06823,0.02206 -0.763049,0.185487 -1.550063,0.371232 l -2.755609,0.650362 c -0.787016,0.185746 -2.109953,0.472105 -2.717682,0.993848 -0.09732,0.08358 -0.633924,0.621377 -1.205717,1.193171 l -8.002807,8.002807 c -0.571793,0.571793 -1.548538,1.512839 -1.778759,2.279464 -0.0364,0.121193 -0.196837,0.862337 -0.368881,1.65246 l -0.558493,2.564937 c -0.172044,0.790124 -0.434003,2.111336 -0.919966,2.74961 -0.07999,0.105058 -0.585109,0.676566 -1.119978,1.28304 L 13.665982,99.66322 c -0.53487,0.60647 -1.483034,1.67121 -1.40339,2.45312 0.0086,0.0843 0.144766,0.79576 0.296055,1.59011 l 1.139411,5.98247 c 0.127298,0.66837 0.772244,1.31386 1.440533,1.44168 1.846638,0.35319 5.36989,1.02679 7.426701,1.41828 0.539061,0.10245 1.095219,-0.05 1.506803,-0.41281 L 44.223782,94.36363 c 0.606475,-0.534869 1.600493,-1.443822 2.370334,-1.669427 0.126709,-0.03714 0.872188,-0.198472 1.662309,-0.370514 l 2.564939,-0.558495 c 0.790121,-0.172042 2.12051,-0.435997 2.728471,-0.956672 0.09608,-0.08234 0.631691,-0.619144 1.203483,-1.190937 l 9.038206,-9.038206 c 0.402363,-0.402514 0.684705,-0.909112 0.815392,-1.46304 l 1.323009,-5.605641 c 0.125342,-0.527892 0.509759,-0.956243 1.02106,-1.137762 l 7.017628,-2.49869 c 0.536392,-0.191027 1.009787,-0.526139 1.368226,-0.968553 L 88.208077,53.026679 c 0.311003,-0.384403 0.281412,-0.941618 -0.06856,-1.290918 l -2.895483,-2.892494 0.786221,-3.003388 -3.510972,-3.519784 -33.262146,33.25647 c -1.16e-4,1.18e-4 -2.93e-4,-5.7e-5 -1.76e-4,-1.75e-4 z"
       id="path4-5" />
    <path
       id="path27"
       style="display:inline;fill:#000000;fill-opacity:1;stroke-width:10.6828"
       d="M 45.49731,77.643815 25.824058,97.949004 A 0.501265,0.501265 0 0 0 25.6843,98.25908 l -0.06028,0.777956 c -0.0077,0.09954 0.06686,0.176643 0.166358,0.170839 0.247579,-0.01483 0.524143,-0.03717 0.784991,-0.05749 0.0995,-0.0077 0.238335,-0.07015 0.310037,-0.139632 L 47.189149,79.336056 45.938724,78.894433 Z" />
    <path
       id="rect6-5"
       style="display:inline;fill:#9f9f9f;fill-opacity:1;stroke-width:8.9886"
       d="M 45.252526,14.790049 59.790651,29.328172 47.161856,41.956966 32.623734,27.418841 Z" />
    <path
       id="path38"
       style="color:#000000;font-style:normal;font-variant:normal;font-weight:normal;font-stretch:normal;font-size:medium;line-height:normal;font-family:sans-serif;font-variant-ligatures:normal;font-variant-position:normal;font-variant-caps:normal;font-variant-numeric:normal;font-variant-alternates:normal;font-variant-east-asian:normal;font-feature-settings:normal;font-variation-settings:normal;text-indent:0;text-align:start;text-decoration-line:none;text-decoration-style:solid;text-decoration-color:#000000;letter-spacing:normal;word-spacing:normal;text-transform:none;writing-mode:lr-tb;direction:ltr;text-orientation:mixed;dominant-baseline:auto;baseline-shift:baseline;text-anchor:start;white-space:normal;shape-padding:0;shape-margin:0;inline-size:0;clip-rule:nonzero;display:inline;overflow:visible;visibility:visible;isolation:auto;mix-blend-mode:normal;color-interpolation:sRGB;color-interpolation-filters:linearRGB;solid-color:#000000;solid-opacity:1;vector-effect:none;fill:url(#linearGradient40);fill-opacity:1;fill-rule:nonzero;stroke:none;stroke-linecap:butt;stroke-linejoin:miter;stroke-miterlimit:4;stroke-dasharray:none;stroke-dashoffset:0;stroke-opacity:1;-inkscape-stroke:none;color-rendering:auto;image-rendering:auto;shape-rendering:auto;text-rendering:auto;enable-background:accumulate;stop-color:#000000"
       d="m 80.414791,40.214515 -0.0032,0.0032 -1.41793,-1.414794 -3.003381,0.786581 -14.275559,14.27519 4.623964,4.623964 0.0016,-0.0016 0.0058,0.0058 -0.0016,0.0016 4.623962,4.623962 14.275587,-14.275151 0.786131,-3.003735 -1.201829,-1.204965 0.0032,-0.0032 -2.311981,-2.31198 z" />
    <path
       id="path6-9"
       style="display:inline;fill:#9a9996;stroke-width:11.0795"
       d="m 63.02169,52.557724 -7.688613,4.98717 c -0.493411,0.320297 -0.89704,0.761071 -1.172763,1.28071 l -9.158945,17.245775 c -0.267655,0.504308 -0.309516,1.098299 -0.115234,1.635161 l 0.368062,1.017373 c 0.124603,0.344418 0.503678,0.72775 0.847884,0.852963 0.340779,0.123991 0.68571,0.24755 1.024569,0.370144 0.536862,0.194285 1.130856,0.152426 1.635167,-0.115229 l 17.247234,-9.157488 c 0.519274,-0.276336 0.959548,-0.680465 1.279246,-1.174225 L 72.27545,61.811484 67.651486,57.18752 56.564191,68.26899 67.645661,57.181694 Z" />
    <path
       id="rect13"
       style="display:inline;fill:#f66151;stroke-width:12.1895"
       d="M 34.281704,25.760871 48.819828,40.298996 47.161863,41.956962 32.623738,27.418837 Z" />
    <path
       id="path35"
       style="display:inline;fill:url(#linearGradient43);stroke-width:9.51342"
       d="m 64.290727,53.823843 -6.262041,6.262042 c -0.314036,0.313551 -0.597336,0.65644 -0.846025,1.023982 l -7.646313,11.322144 c -0.239616,0.354867 -0.330722,0.789464 -0.253806,1.21069 l 0.212905,1.163604 c 0.04514,0.246739 0.281407,0.485278 0.528003,0.53114 0.386512,0.07186 0.78134,0.142707 1.167041,0.213231 0.421226,0.07691 0.855822,-0.0142 1.21069,-0.253808 l 11.322144,-7.646313 c 0.367986,-0.248148 0.711364,-0.530966 1.02544,-0.844565 l 6.262055,-6.262055 -1.678921,-1.678921 -1.678923,-1.678922 -0.0044,-0.0044 -0.844565,-0.844566 z" />
    <path
       id="path26"
       style="display:inline;fill:#77767b;fill-opacity:1;stroke-width:14.1371"
       d="m 69.888623,28.080872 -6.201932,5.143341 2.456929,2.45693 2.456932,2.456931 5.14334,-6.201934 a 0.76409047,0.76409047 0 0 0 -0.04786,-1.028054 l -2.779354,-2.779354 a 0.76409038,0.76409038 0 0 0 -1.028055,-0.04786 z" />
    <path
       id="path26-6"
       style="display:inline;fill:#77767b;fill-opacity:1;stroke-width:14.1371"
       d="m 96.752435,54.944689 -5.14334,6.201932 -2.45693,-2.45693 -2.456931,-2.456933 6.201933,-5.143336 a 0.76409047,0.76409047 0 0 1 1.028054,0.04785 l 2.779358,2.779354 a 0.76409038,0.76409038 0 0 1 0.04785,1.028057 z" />
    <path
       id="path4-22"
       style="display:inline;fill:#f66151;fill-opacity:1;stroke:none;stroke-width:0.591629;stroke-dasharray:none;stroke-opacity:1"
       d="m 84.745429,16.573928 c -2.583283,0.695788 -5.194745,1.536812 -7.690604,2.79298 -0.359622,0.180998 -0.93577,0.495691 -1.285254,0.704152 -1.324701,0.790159 -2.637074,1.770615 -3.373987,3.151967 -0.737124,1.398676 -0.323805,2.82097 0.38209,3.810887 0.765361,1.036403 1.703694,2.01006 2.938463,2.511556 0.314114,0.127586 0.859445,0.276854 1.221716,0.284289 0.747737,0.01536 1.555162,-0.257812 2.252132,-0.740081 0.336718,-0.232997 0.823476,-0.701905 1.101799,-1.007712 1.148573,-1.261973 1.948256,-2.773298 2.632909,-4.274065 0.165974,-0.363816 0.421314,-0.95727 0.568953,-1.325426 0.715901,-1.785147 1.293347,-3.5975 1.75969,-5.410677 0.09619,-0.373951 -0.134089,-0.598562 -0.508117,-0.497663 z" />
    <path
       id="path4-93"
       style="display:inline;fill:#f9f06b;fill-opacity:1;stroke:none;stroke-width:0.359533;stroke-dasharray:none;stroke-opacity:1"
       d="m 80.37744,21.074177 c -1.569861,0.422831 -3.156844,0.933918 -4.673584,1.697298 -0.218539,0.109994 -0.56866,0.301224 -0.781041,0.427906 -0.805021,0.480179 -1.602552,1.076004 -2.050377,1.915454 -0.447951,0.849975 -0.196776,1.714302 0.2322,2.315871 0.465112,0.62982 1.035331,1.221517 1.785698,1.526278 0.190897,0.07752 0.522288,0.168243 0.742436,0.172765 0.454405,0.0093 0.945073,-0.156673 1.368627,-0.449754 0.204625,-0.141592 0.500424,-0.426547 0.66956,-0.612383 0.697985,-0.766903 1.183952,-1.68533 1.600025,-2.597355 0.100855,-0.221086 0.256028,-0.581728 0.345747,-0.805455 0.435051,-1.084833 0.785967,-2.1862 1.069361,-3.288067 0.05845,-0.227256 -0.08148,-0.363743 -0.308593,-0.302618 z" />
    <path
       id="path4-2"
       style="display:inline;fill:#f66151;fill-opacity:1;stroke:none;stroke-width:0.591629;stroke-dasharray:none;stroke-opacity:1"
       d="m 107.78698,39.61548 c -2.58329,0.695794 -5.19475,1.53682 -7.6906,2.792984 -0.359634,0.181 -0.935769,0.49569 -1.285259,0.704147 -1.3247,0.790159 -2.637072,1.770617 -3.373984,3.151969 -0.737124,1.398676 -0.323805,2.82097 0.382089,3.810886 0.76536,1.036402 1.703697,2.010064 2.938462,2.511556 0.314117,0.127587 0.859448,0.276857 1.221722,0.284293 0.74773,0.01536 1.55516,-0.257813 2.25214,-0.740088 0.33671,-0.232992 0.82346,-0.7019 1.10179,-1.007707 1.14857,-1.261972 1.94826,-2.773294 2.63292,-4.274064 0.16597,-0.363821 0.42131,-0.957268 0.56895,-1.325423 0.7159,-1.785154 1.29334,-3.597503 1.75969,-5.410678 0.0962,-0.373957 -0.13409,-0.598562 -0.50812,-0.497662 z" />
    <path
       id="path4-93-8"
       style="display:inline;fill:#f9f06b;fill-opacity:1;stroke:none;stroke-width:0.359533;stroke-dasharray:none;stroke-opacity:1"
       d="m 103.41899,44.115729 c -1.56985,0.422833 -3.15686,0.933924 -4.673572,1.697293 -0.218554,0.109994 -0.568677,0.301237 -0.78105,0.427913 -0.805029,0.480185 -1.60255,1.076005 -2.050377,1.915453 -0.447953,0.849974 -0.196777,1.714302 0.232191,2.315878 0.465112,0.629819 1.035339,1.22151 1.785705,1.526269 0.1909,0.07753 0.522287,0.168242 0.742436,0.172764 0.454405,0.0093 0.945074,-0.156672 1.368627,-0.449752 0.20463,-0.141592 0.50041,-0.42654 0.66956,-0.612382 0.69799,-0.766896 1.18396,-1.685335 1.60002,-2.597346 0.10086,-0.221093 0.25604,-0.581736 0.34576,-0.805463 0.43504,-1.084834 0.78596,-2.186203 1.06936,-3.288069 0.0584,-0.227254 -0.0815,-0.36374 -0.3086,-0.302617 z" />
    <path
       id="rect6-2"
       style="display:inline;fill:#9f9f9f;fill-opacity:1;stroke-width:8.9886"
       d="M 95.505143,65.042662 110.04327,79.580781 97.414468,92.209574 82.876348,77.671455 Z" />
    <path
       id="rect13-9"
       style="display:inline;fill:#f66151;stroke-width:12.1895"
       d="M 84.534318,76.013485 99.07244,90.551608 97.414474,92.209573 82.876352,77.671451 Z" />
    <path
       id="rect5-3"
       style="display:inline;fill:#7c7c7c;fill-opacity:1;stroke-width:2.22222;enable-background:new"
       d="m 29.295097,27.957428 c 1.46205,1.46205 3.838884,1.439275 5.329225,-0.05107 L 45.740044,16.79064 c 1.490342,-1.490342 1.513119,-3.867178 0.05107,-5.329228 -1.46205,-1.4620497 -3.838886,-1.439273 -5.329228,0.05107 L 29.346163,22.628203 c -1.49034,1.490341 -1.513115,3.867175 -0.05107,5.329225 z" />
    <path
       id="path33"
       style="display:inline;fill:#7c7c7c;fill-opacity:1;stroke-width:2.22222;enable-background:new"
       d="m 46.876107,45.538436 c 1.46205,1.46205 3.838884,1.439275 5.329225,-0.05107 L 63.321054,34.371648 c 1.490342,-1.490342 1.513119,-3.867178 0.05107,-5.329228 -1.46205,-1.46205 -3.838886,-1.439273 -5.329228,0.05107 L 46.927173,40.209211 c -1.49034,1.490341 -1.513115,3.867175 -0.05107,5.329225 z" />
    <path
       id="path36"
       style="display:inline;fill:#7c7c7c;fill-opacity:1;stroke-width:2.22222;enable-background:new"
       d="m 79.294877,77.957207 c 1.46205,1.46205 3.838884,1.439275 5.329225,-0.05107 L 95.739824,66.790419 c 1.490342,-1.490342 1.513119,-3.867178 0.05107,-5.329228 -1.46205,-1.46205 -3.838886,-1.439273 -5.329228,0.05107 L 79.345943,72.627982 c -1.49034,1.490341 -1.513115,3.867175 -0.05107,5.329225 z" />
    <path
       id="path44-9"
       style="display:inline;fill:url(#linearGradient53);fill-opacity:1;stroke-width:2.22222;enable-background:new"
       d="m 96.93461,99.684587 c 1.218029,0.791593 3.010939,1.250973 4.43898,0.577293 0.31835,-0.15019 0.89025,-0.628363 0.89025,-0.628363 l 11.11572,-11.115716 c 1.49034,-1.490342 1.51312,-3.867178 0.0511,-5.329228 -1.46205,-1.46205 -3.83889,-1.439273 -5.32923,0.05107 L 96.985676,94.355364 C 96.55637,94.78467 95.860642,93.30923 95.860642,93.30923 c 0,0 -0.02098,3.420385 -0.0058,3.881617 0.03717,1.12724 0.320225,2.00014 1.079741,2.49374 z" />
    <path
       id="path39"
       style="display:inline;fill:#7c7c7c;fill-opacity:1;stroke-width:2.22222;enable-background:new"
       d="m 96.932864,95.59519 c 1.46205,1.46205 3.838886,1.439275 5.329226,-0.05107 l 11.11572,-11.115718 c 1.49034,-1.490342 1.51312,-3.867178 0.0511,-5.329228 -1.46205,-1.46205 -3.83888,-1.439273 -5.32923,0.05107 L 96.98393,90.265965 c -1.49034,1.490341 -1.513115,3.867175 -0.05107,5.329225 z" />
    <path
       id="path41"
       style="display:inline;fill:#f9f06b;fill-opacity:1;stroke:none;stroke-width:0.359533;stroke-dasharray:none;stroke-opacity:1"
       d="m 103.41899,44.115729 c -1.56985,0.422833 -3.15686,0.933924 -4.673572,1.697293 -0.218554,0.109994 -0.568677,0.301237 -0.78105,0.427913 -0.805029,0.480185 -1.60255,1.076005 -2.050377,1.915453 -0.447953,0.849974 -0.196777,1.714302 0.232191,2.315878 0.465112,0.629819 1.035339,1.22151 1.785705,1.526269 0.1909,0.07753 0.522287,0.168242 0.742436,0.172764 0.454405,0.0093 0.945074,-0.156672 1.368627,-0.449752 0.20463,-0.141592 0.50041,-0.42654 0.66956,-0.612382 0.69799,-0.766896 1.18396,-1.685335 1.60002,-2.597346 0.10086,-0.221093 0.25604,-0.581736 0.34576,-0.805463 0.43504,-1.084834 0.78596,-2.186203 1.06936,-3.288069 0.0584,-0.227254 -0.0815,-0.36374 -0.3086,-0.302617 z" />
  </g>
</svg>
