<?xml version="1.0" encoding="UTF-8" standalone="no"?>
<svg
   viewBox="0 0 128 128"
   style="display:inline;enable-background:new"
   version="1.0"
   id="svg11300"
   height="128"
   width="128"
   xml:space="preserve"
   sodipodi:docname="ente-auth.svg"
   inkscape:version="1.4.2 (ebf0e940d0, 2025-05-08)"
   xmlns:inkscape="http://www.inkscape.org/namespaces/inkscape"
   xmlns:sodipodi="http://sodipodi.sourceforge.net/DTD/sodipodi-0.dtd"
   xmlns:xlink="http://www.w3.org/1999/xlink"
   xmlns="http://www.w3.org/2000/svg"
   xmlns:svg="http://www.w3.org/2000/svg"
   xmlns:rdf="http://www.w3.org/1999/02/22-rdf-syntax-ns#"
   xmlns:cc="http://creativecommons.org/ns#"
   xmlns:dc="http://purl.org/dc/elements/1.1/"><sodipodi:namedview
     id="namedview1"
     pagecolor="#ffffff"
     bordercolor="#000000"
     borderopacity="0.25"
     inkscape:showpageshadow="2"
     inkscape:pageopacity="0.0"
     inkscape:pagecheckerboard="0"
     inkscape:deskcolor="#d1d1d1"
     inkscape:zoom="4.671875"
     inkscape:cx="2.1404682"
     inkscape:cy="72.133779"
     inkscape:window-width="2560"
     inkscape:window-height="1403"
     inkscape:window-x="0"
     inkscape:window-y="0"
     inkscape:window-maximized="1"
     inkscape:current-layer="svg11300" /><title
     id="title4162">Adwaita Icon Template</title><defs
     id="defs3"><linearGradient
       id="linearGradient9"><stop
         style="stop-color:#b350e8;stop-opacity:1;"
         offset="0"
         id="stop10" /><stop
         style="stop-color:#9619de;stop-opacity:1;"
         offset="1"
         id="stop11" /></linearGradient><linearGradient
       id="linearGradient7"><stop
         style="stop-color:#591880;stop-opacity:1;"
         offset="0"
         id="stop2" /><stop
         id="stop3"
         offset="0.05258933"
         style="stop-color:#9d43d8;stop-opacity:1;" /><stop
         style="stop-color:#591880;stop-opacity:1;"
         offset="0.104504"
         id="stop4" /><stop
         style="stop-color:#9d43d8;stop-opacity:1;"
         offset="0.49886328"
         id="stop9" /><stop
         id="stop5"
         offset="0.90273505"
         style="stop-color:#591880;stop-opacity:1;" /><stop
         style="stop-color:#9d43d8;stop-opacity:1;"
         offset="0.9503994"
         id="stop6" /><stop
         style="stop-color:#591880;stop-opacity:1;"
         offset="1"
         id="stop7" /></linearGradient><linearGradient
       xlink:href="#linearGradient7"
       id="linearGradient2"
       x1="12"
       y1="66"
       x2="116"
       y2="66"
       gradientUnits="userSpaceOnUse" /><linearGradient
       xlink:href="#linearGradient9"
       id="linearGradient11"
       x1="116"
       y1="12"
       x2="47.933109"
       y2="105.66555"
       gradientUnits="userSpaceOnUse" /></defs><metadata
     id="metadata4"><rdf:RDF><cc:Work
         rdf:about=""><dc:format>image/svg+xml</dc:format><dc:type
           rdf:resource="http://purl.org/dc/dcmitype/StillImage" /><dc:creator><cc:Agent><dc:title>GNOME Design Team</dc:title></cc:Agent></dc:creator><dc:source /><cc:license
           rdf:resource="http://creativecommons.org/licenses/by-sa/4.0/" /><dc:title>Adwaita Icon Template</dc:title><dc:subject><rdf:Bag /></dc:subject><dc:date /><dc:rights><cc:Agent><dc:title /></cc:Agent></dc:rights><dc:publisher><cc:Agent><dc:title /></cc:Agent></dc:publisher><dc:identifier /><dc:relation /><dc:language /><dc:coverage /><dc:description /><dc:contributor><cc:Agent><dc:title /></cc:Agent></dc:contributor></cc:Work><cc:License
         rdf:about="http://creativecommons.org/licenses/by-sa/4.0/"><cc:permits
           rdf:resource="http://creativecommons.org/ns#Reproduction" /><cc:permits
           rdf:resource="http://creativecommons.org/ns#Distribution" /><cc:requires
           rdf:resource="http://creativecommons.org/ns#Notice" /><cc:requires
           rdf:resource="http://creativecommons.org/ns#Attribution" /><cc:permits
           rdf:resource="http://creativecommons.org/ns#DerivativeWorks" /><cc:requires
           rdf:resource="http://creativecommons.org/ns#ShareAlike" /></cc:License></rdf:RDF></metadata><rect
     style="display:inline;fill:url(#linearGradient2);fill-opacity:1;stroke:none;stroke-width:0.25;stroke-linecap:butt;stroke-linejoin:miter;stroke-miterlimit:4;stroke-dasharray:none;stroke-dashoffset:0;stroke-opacity:1;marker:none;marker-start:none;marker-mid:none;marker-end:none;paint-order:normal;enable-background:new"
     id="rect1"
     width="104"
     height="100"
     x="12"
     y="16"
     rx="8"
     ry="8" /><rect
     style="display:inline;fill:url(#linearGradient11);fill-opacity:1;stroke:none;stroke-width:0.25;stroke-linecap:butt;stroke-linejoin:miter;stroke-miterlimit:4;stroke-dasharray:none;stroke-dashoffset:0;stroke-opacity:1;marker:none;marker-start:none;marker-mid:none;marker-end:none;paint-order:normal;enable-background:new"
     id="rect1711"
     width="104"
     height="100"
     x="12"
     y="12"
     rx="8"
     ry="8" /><path
     d="m 64.062799,33.809518 -12.915817,5.739586 -12.915692,5.739719 0.03791,9.787765 c 0.04041,10.439193 0.04165,10.470801 0.514274,13.268575 0.800148,4.736472 2.947128,9.874413 5.920126,14.167045 4.498006,6.49455 11.005658,11.33848 17.958214,13.36736 0.578017,0.16868 1.199349,0.30856 1.380783,0.31089 0.181421,0.002 0.822751,-0.13895 1.425289,-0.31405 9.769923,-2.8392 18.248584,-11.02914 22.193264,-21.43758 0.94399,-2.490808 1.56053,-4.970167 1.94366,-7.816239 0.15013,-1.115226 0.1639,-2.061671 0.1639,-11.301937 V 45.235863 L 76.91576,39.522691 Z"
     id="path2-3"
     style="display:inline;fill:#d7a4f4;fill-opacity:1;stroke-width:0.0676193;enable-background:new" /><path
     d="M 64.062799,31.80952 51.146982,37.549106 38.23129,43.288825 38.2692,53.07659 c 0.04041,10.439193 0.04165,10.470801 0.514274,13.268575 0.800148,4.736472 2.947128,9.874413 5.920126,14.167043 4.498006,6.494553 11.005658,11.338478 17.958214,13.367365 0.578017,0.168673 1.199349,0.308555 1.380783,0.310886 0.181421,0.0018 0.822751,-0.138952 1.425289,-0.314049 9.769923,-2.839202 18.248584,-11.029143 22.193269,-21.43758 0.943984,-2.490808 1.56053,-4.970167 1.943656,-7.816239 0.150127,-1.115226 0.163899,-2.061671 0.163899,-11.301937 V 43.235865 L 76.91576,37.522693 Z"
     id="path2"
     style="fill:#ffffff;fill-opacity:1;stroke-width:0.0676193" /><path
     d="m 64,50.276617 c -3.953308,0 -7.190385,3.237077 -7.190385,7.190384 v 3.595193 c -1.994208,0 -3.595193,1.600986 -3.595193,3.595194 v 8.987982 c 0,0.997105 0.800491,1.797596 1.797597,1.797596 h 17.975963 c 0.997103,0 1.797596,-0.800491 1.797596,-1.797596 v -8.987981 c 0,-1.994209 -1.600983,-3.595194 -3.595192,-3.595194 v -3.595194 c 0,-3.953307 -3.237077,-7.190384 -7.190386,-7.190384 z m 0,3.595193 c 2.022296,0 3.595194,1.572896 3.595194,3.595191 v 3.595193 h -7.190386 v -3.595193 c 0,-2.022295 1.572897,-3.595191 3.595192,-3.595191 z m 0,0"
     fill="#222222"
     id="path1-2"
     style="display:inline;fill:#9e22df;fill-opacity:1;stroke-width:1.7976;enable-background:new" /><path
     d="m 64,48.558 c -3.953308,0 -7.190385,3.237077 -7.190385,7.190385 v 3.595193 c -1.994208,0 -3.595193,1.600984 -3.595193,3.595193 v 8.987981 c 0,0.997105 0.800491,1.797597 1.797597,1.797597 h 17.975963 c 0.997103,0 1.797596,-0.800492 1.797596,-1.797597 v -8.987981 c 0,-1.994209 -1.600983,-3.595193 -3.595192,-3.595193 V 55.748385 C 71.190386,51.795077 67.953309,48.558 64,48.558 Z m 0,3.595193 c 2.022296,0 3.595194,1.572896 3.595194,3.595192 v 3.595193 h -7.190386 v -3.595193 c 0,-2.022296 1.572897,-3.595192 3.595192,-3.595192 z m 0,0"
     fill="#222222"
     id="path1"
     style="display:inline;fill:#b350e8;fill-opacity:1;stroke-width:1.7976;enable-background:new" /></svg>
