<?xml version="1.0" encoding="UTF-8" standalone="no"?>
<svg
   viewBox="0 0 128 128"
   style="display:inline;enable-background:new"
   version="1.0"
   id="svg11300"
   height="128"
   width="128"
   xml:space="preserve"
   xmlns:xlink="http://www.w3.org/1999/xlink"
   xmlns="http://www.w3.org/2000/svg"
   xmlns:svg="http://www.w3.org/2000/svg"
   xmlns:rdf="http://www.w3.org/1999/02/22-rdf-syntax-ns#"
   xmlns:cc="http://creativecommons.org/ns#"
   xmlns:dc="http://purl.org/dc/elements/1.1/"><title
     id="title4162">Adwaita Icon Template</title><defs
     id="defs3"><linearGradient
       id="linearGradient7"><stop
         style="stop-color:#7316a6;stop-opacity:1;"
         offset="0"
         id="stop2" /><stop
         id="stop3"
         offset="0.04166667"
         style="stop-color:#be6aec;stop-opacity:1;" /><stop
         style="stop-color:#7416a7;stop-opacity:1;"
         offset="0.08333334"
         id="stop4" /><stop
         id="stop5"
         offset="0.91666669"
         style="stop-color:#7416a7;stop-opacity:1;" /><stop
         style="stop-color:#be6aec;stop-opacity:1;"
         offset="0.95833331"
         id="stop6" /><stop
         style="stop-color:#7416a7;stop-opacity:1;"
         offset="1"
         id="stop7" /></linearGradient><linearGradient
       xlink:href="#linearGradient7"
       id="linearGradient2"
       x1="12"
       y1="66"
       x2="116"
       y2="66"
       gradientUnits="userSpaceOnUse" /><linearGradient
       id="linearGradient9"><stop
         style="stop-color:#b350e8;stop-opacity:1;"
         offset="0"
         id="stop10" /><stop
         style="stop-color:#9619de;stop-opacity:1;"
         offset="1"
         id="stop11" /></linearGradient><linearGradient
       xlink:href="#linearGradient9"
       id="linearGradient8"
       x1="116"
       y1="12"
       x2="51.398304"
       y2="101.23306"
       gradientUnits="userSpaceOnUse" /></defs><metadata
     id="metadata4"><rdf:RDF><cc:Work
         rdf:about=""><dc:format>image/svg+xml</dc:format><dc:type
           rdf:resource="http://purl.org/dc/dcmitype/StillImage" /><dc:creator><cc:Agent><dc:title>GNOME Design Team</dc:title></cc:Agent></dc:creator><dc:source /><cc:license
           rdf:resource="http://creativecommons.org/licenses/by-sa/4.0/" /><dc:title>Adwaita Icon Template</dc:title><dc:subject><rdf:Bag /></dc:subject><dc:date /><dc:rights><cc:Agent><dc:title /></cc:Agent></dc:rights><dc:publisher><cc:Agent><dc:title /></cc:Agent></dc:publisher><dc:identifier /><dc:relation /><dc:language /><dc:coverage /><dc:description /><dc:contributor><cc:Agent><dc:title /></cc:Agent></dc:contributor></cc:Work><cc:License
         rdf:about="http://creativecommons.org/licenses/by-sa/4.0/"><cc:permits
           rdf:resource="http://creativecommons.org/ns#Reproduction" /><cc:permits
           rdf:resource="http://creativecommons.org/ns#Distribution" /><cc:requires
           rdf:resource="http://creativecommons.org/ns#Notice" /><cc:requires
           rdf:resource="http://creativecommons.org/ns#Attribution" /><cc:permits
           rdf:resource="http://creativecommons.org/ns#DerivativeWorks" /><cc:requires
           rdf:resource="http://creativecommons.org/ns#ShareAlike" /></cc:License></rdf:RDF></metadata><rect
     style="display:inline;fill:url(#linearGradient2);fill-opacity:1;stroke:none;stroke-width:0.25;stroke-linecap:butt;stroke-linejoin:miter;stroke-miterlimit:4;stroke-dasharray:none;stroke-dashoffset:0;stroke-opacity:1;marker:none;marker-start:none;marker-mid:none;marker-end:none;paint-order:normal;enable-background:new"
     id="rect1"
     width="104"
     height="100"
     x="12"
     y="16"
     rx="8"
     ry="8" /><rect
     style="display:inline;fill:url(#linearGradient8);fill-opacity:1;stroke:none;stroke-width:0.25;stroke-linecap:butt;stroke-linejoin:miter;stroke-miterlimit:4;stroke-dasharray:none;stroke-dashoffset:0;stroke-opacity:1;marker:none;marker-start:none;marker-mid:none;marker-end:none;paint-order:normal;enable-background:new"
     id="rect1711"
     width="104"
     height="100"
     x="12"
     y="12"
     rx="8"
     ry="8" /><path
     id="path2-2"
     style="display:inline;fill:#ffffff;fill-opacity:1;stroke-width:0.0676193;enable-background:new"
     d="m 64.063477,30.80956 -12.916015,5.74023 -12.916016,5.73829 0.03711,9.78906 c 0.0404,10.43919 0.04295,10.46981 0.515625,13.26758 0.80015,4.73648 2.946922,9.87533 5.919922,14.16796 4.498009,6.49456 11.004481,11.33831 17.957032,13.36719 0.578019,0.16868 1.199419,0.30822 1.380859,0.31055 0.18142,0.002 0.823241,-0.13935 1.425781,-0.31445 9.76992,-2.8392 18.248679,-11.02906 22.19336,-21.4375 0.943989,-2.49081 1.560228,-4.97034 1.943359,-7.81641 0.15013,-1.11523 0.164062,-2.06051 0.164062,-11.30078 V 42.23534 L 76.91504,36.52245 Z m -0.0625,16.74805 c 3.95331,0 7.189453,3.2381 7.189453,7.1914 v 3.59375 c 1.99421,0 3.595704,1.6015 3.595704,3.59571 v 8.98828 c -10e-7,0.99711 -0.801729,1.79687 -1.798829,1.79687 H 55.012696 c -0.997111,0 -1.798828,-0.79976 -1.798828,-1.79687 v -8.98828 c 0,-1.99421 1.601493,-3.59571 3.595703,-3.59571 v -3.59375 c 0,-3.9533 3.238096,-7.1914 7.191406,-7.1914 z m 0,3.5957 c -2.02229,0 -3.595703,1.57341 -3.595703,3.5957 v 3.59375 h 7.189453 v -3.59375 c 0,-2.02229 -1.57145,-3.5957 -3.59375,-3.5957 z" /></svg>
