<?xml version="1.0" encoding="UTF-8"?>
<svg height="128px" viewBox="0 0 128 128" width="128px" xmlns="http://www.w3.org/2000/svg" xmlns:xlink="http://www.w3.org/1999/xlink">
    <linearGradient id="a" gradientUnits="userSpaceOnUse" x1="60.621" x2="24.621004" y1="65.989601" y2="65.989601">
        <stop offset="0" stop-color="#4500d9"/>
        <stop offset="0.410588" stop-color="#874fff"/>
        <stop offset="0.810386" stop-color="#4500d9"/>
        <stop offset="1" stop-color="#874fff"/>
    </linearGradient>
    <linearGradient id="b" gradientUnits="userSpaceOnUse" x1="60.621" x2="24.621004" y1="29.989599" y2="29.989599">
        <stop offset="0" stop-color="#c90000"/>
        <stop offset="0.410588" stop-color="#ff3737"/>
        <stop offset="0.810386" stop-color="#c90000"/>
        <stop offset="1" stop-color="#ff3737"/>
    </linearGradient>
    <linearGradient id="c" gradientUnits="userSpaceOnUse" x1="96.621" x2="60.621" y1="28.989599" y2="28.989599">
        <stop offset="0" stop-color="#ff7237"/>
        <stop offset="0.189614" stop-color="#c93b00"/>
        <stop offset="0.589412" stop-color="#ff7237"/>
        <stop offset="1" stop-color="#c93b00"/>
    </linearGradient>
    <linearGradient id="d" gradientUnits="userSpaceOnUse" x1="60.621" x2="24.621004" y1="99.988403" y2="99.988403">
        <stop offset="0" stop-color="#178449"/>
        <stop offset="0.410588" stop-color="#24cb71"/>
        <stop offset="0.810386" stop-color="#178449"/>
        <stop offset="1" stop-color="#24cb71"/>
    </linearGradient>
    <linearGradient id="e" gradientUnits="userSpaceOnUse" x1="42.621" x2="42.621" y1="80" y2="116">
        <stop offset="0" stop-color="#24cb71"/>
        <stop offset="1" stop-color="#1b9855"/>
    </linearGradient>
    <linearGradient id="f" gradientUnits="userSpaceOnUse" x1="78.621" x2="78.621" y1="8" y2="44">
        <stop offset="0" stop-color="#ff7237"/>
        <stop offset="1" stop-color="#e84500"/>
    </linearGradient>
    <linearGradient id="g" gradientUnits="userSpaceOnUse" x1="96.470998" x2="60.471101" y1="65.440498" y2="65.440498">
        <stop offset="0" stop-color="#0076a6"/>
        <stop offset="0.410588" stop-color="#00b6ff"/>
        <stop offset="0.810386" stop-color="#0076a6"/>
        <stop offset="1" stop-color="#00b6ff"/>
    </linearGradient>
    <linearGradient id="h" gradientUnits="userSpaceOnUse" x1="78.471101" x2="78.471101" y1="44" y2="80">
        <stop offset="0" stop-color="#00b6ff"/>
        <stop offset="1" stop-color="#0089bf"/>
    </linearGradient>
    <linearGradient id="i" gradientUnits="userSpaceOnUse" x1="42.621" x2="42.621" y1="8" y2="44">
        <stop offset="0" stop-color="#ff3737"/>
        <stop offset="1" stop-color="#e80000"/>
    </linearGradient>
    <linearGradient id="j" gradientUnits="userSpaceOnUse" x1="42.621" x2="42.621" y1="44" y2="80">
        <stop offset="0" stop-color="#874fff"/>
        <stop offset="1" stop-color="#5000fa"/>
    </linearGradient>
    <path d="m 24.621094 62 c 0 -7.730469 6.269531 -14 14 -14 h 22 v 36 h -18 c -9.941406 0 -18 -8.058594 -18 -18 z m 0 0" fill="url(#a)"/>
    <path d="m 24.621094 26 c 0 -7.730469 6.269531 -14 14 -14 h 22 v 36 h -18 c -9.941406 0 -18 -8.058594 -18 -18 z m 0 0" fill="url(#b)"/>
    <path d="m 60.621094 11 h 21 c 8.285156 0 15 6.714844 15 15 v 3 c 0 9.941406 -8.058594 18 -18 18 h -18 z m 0 0" fill="url(#c)"/>
    <path d="m 24.621094 98.023438 c 0 -9.953126 8.070312 -18.023438 18.023437 -18.023438 h 17.976563 v 22 c 0 9.941406 -8.058594 18 -18 18 s -18 -8.058594 -18 -18 z m 0 0" fill="url(#d)"/>
    <path d="m 24.621094 98 c 0 -9.941406 8.058594 -18 18 -18 h 18 v 18 c 0 9.941406 -8.058594 18 -18 18 s -18 -8.058594 -18 -18 z m 0 0" fill="url(#e)"/>
    <path d="m 60.621094 8 v 36 h 18 c 9.941406 0 18 -8.058594 18 -18 s -8.058594 -18 -18 -18 z m 0 0" fill="url(#f)"/>
    <path d="m 60.472656 61.765625 c 0 -7.90625 6.40625 -14.316406 14.3125 -14.316406 h 7.371094 c 7.90625 0 14.316406 6.410156 14.316406 14.316406 v 3.683594 c 0 9.941406 -8.058594 18 -18 18 s -18 -8.058594 -18 -18 z m 0 0" fill="url(#g)"/>
    <path d="m 78.472656 80 c 9.941406 0 18 -8.058594 18 -18 s -8.058594 -18 -18 -18 s -18 8.058594 -18 18 s 8.058594 18 18 18 z m 0 0" fill="url(#h)"/>
    <path d="m 24.621094 26 c 0 9.941406 8.058594 18 18 18 h 18 v -36 h -18 c -9.941406 0 -18 8.058594 -18 18 z m 0 0" fill="url(#i)"/>
    <path d="m 24.621094 62 c 0 9.941406 8.058594 18 18 18 h 18 v -36 h -18 c -9.941406 0 -18 8.058594 -18 18 z m 0 0" fill="url(#j)"/>
</svg>
