<?xml version="1.0" encoding="UTF-8" standalone="no"?>
<svg
   viewBox="0 0 128 128"
   style="display:inline;enable-background:new"
   version="1.0"
   id="svg11300"
   height="128"
   width="128"
   xml:space="preserve"
   xmlns:xlink="http://www.w3.org/1999/xlink"
   xmlns="http://www.w3.org/2000/svg"
   xmlns:svg="http://www.w3.org/2000/svg"
   xmlns:rdf="http://www.w3.org/1999/02/22-rdf-syntax-ns#"
   xmlns:cc="http://creativecommons.org/ns#"
   xmlns:dc="http://purl.org/dc/elements/1.1/"><title
     id="title4162">Adwaita Icon Template</title><defs
     id="defs3"><linearGradient
       id="linearGradient7"><stop
         style="stop-color:#b3b3b3;stop-opacity:1;"
         offset="0"
         id="stop2" /><stop
         id="stop3"
         offset="0.05258933"
         style="stop-color:#656565;stop-opacity:1;" /><stop
         style="stop-color:#b3b3b3;stop-opacity:1;"
         offset="0.104504"
         id="stop4" /><stop
         style="stop-color:#585858;stop-opacity:1;"
         offset="0.50150877"
         id="stop1" /><stop
         id="stop5"
         offset="0.9007647"
         style="stop-color:#b3b3b3;stop-opacity:1;" /><stop
         style="stop-color:#656565;stop-opacity:1;"
         offset="0.9503994"
         id="stop6" /><stop
         style="stop-color:#b3b3b3;stop-opacity:1;"
         offset="1"
         id="stop7" /></linearGradient><linearGradient
       xlink:href="#linearGradient7"
       id="linearGradient2"
       x1="12"
       y1="66"
       x2="116"
       y2="66"
       gradientUnits="userSpaceOnUse" /></defs><metadata
     id="metadata4"><rdf:RDF><cc:Work
         rdf:about=""><dc:format>image/svg+xml</dc:format><dc:type
           rdf:resource="http://purl.org/dc/dcmitype/StillImage" /><dc:creator><cc:Agent><dc:title>GNOME Design Team</dc:title></cc:Agent></dc:creator><dc:source /><cc:license
           rdf:resource="http://creativecommons.org/licenses/by-sa/4.0/" /><dc:title>Adwaita Icon Template</dc:title><dc:subject><rdf:Bag /></dc:subject><dc:date /><dc:rights><cc:Agent><dc:title /></cc:Agent></dc:rights><dc:publisher><cc:Agent><dc:title /></cc:Agent></dc:publisher><dc:identifier /><dc:relation /><dc:language /><dc:coverage /><dc:description /><dc:contributor><cc:Agent><dc:title /></cc:Agent></dc:contributor></cc:Work><cc:License
         rdf:about="http://creativecommons.org/licenses/by-sa/4.0/"><cc:permits
           rdf:resource="http://creativecommons.org/ns#Reproduction" /><cc:permits
           rdf:resource="http://creativecommons.org/ns#Distribution" /><cc:requires
           rdf:resource="http://creativecommons.org/ns#Notice" /><cc:requires
           rdf:resource="http://creativecommons.org/ns#Attribution" /><cc:permits
           rdf:resource="http://creativecommons.org/ns#DerivativeWorks" /><cc:requires
           rdf:resource="http://creativecommons.org/ns#ShareAlike" /></cc:License></rdf:RDF></metadata><rect
     style="display:inline;fill:url(#linearGradient2);fill-opacity:1;stroke:none;stroke-width:0.25;stroke-linecap:butt;stroke-linejoin:miter;stroke-miterlimit:4;stroke-dasharray:none;stroke-dashoffset:0;stroke-opacity:1;marker:none;marker-start:none;marker-mid:none;marker-end:none;paint-order:normal;enable-background:new"
     id="rect1"
     width="104"
     height="100"
     x="12"
     y="16"
     rx="8"
     ry="8" /><rect
     style="display:inline;fill:#ffffff;fill-opacity:1;stroke:none;stroke-width:0.25;stroke-linecap:butt;stroke-linejoin:miter;stroke-miterlimit:4;stroke-dasharray:none;stroke-dashoffset:0;stroke-opacity:1;marker:none;marker-start:none;marker-mid:none;marker-end:none;paint-order:normal;enable-background:new"
     id="rect1711"
     width="104"
     height="100"
     x="12"
     y="12"
     rx="8"
     ry="8" /><style
     type="text/css"
     id="style1">
	.st0{fill-rule:evenodd;clip-rule:evenodd;}
</style><path
     id="Ellipse-Copy-Difference-Union-2"
     class="st0"
     d="M 64,36.966419 C 50.176457,36.966419 38.966419,48.176457 38.966419,62 38.966419,75.823543 50.176457,87.033581 64,87.033581 77.823543,87.033581 89.033581,75.823543 89.033581,62 89.033581,48.176457 77.823543,36.966419 64,36.966419 Z m -13.337892,7.740383 h 15.610941 c 0.540725,-0.861155 1.497009,-1.43192 2.588473,-1.43192 1.687263,0 3.054096,1.366833 3.054096,3.054096 0,1.687264 -1.366833,3.054097 -3.054096,3.054097 -1.111492,0 -2.082795,-0.590793 -2.618513,-1.481988 H 48.979851 v 29.860055 c 0,0.03004 0,0.05508 -0.005,0.08512 1.537062,1.456954 3.284407,2.693613 5.186959,3.654903 V 68.603859 c 0,-0.02504 0,-0.05007 0,-0.0751 0,-0.02503 0.005,-0.05007 0.005,-0.0751 0,-0.02504 0.005,-0.05007 0.01001,-0.0751 0.005,-0.02504 0.01001,-0.05007 0.01502,-0.0751 0.005,-0.02504 0.01001,-0.05007 0.01502,-0.0751 0.005,-0.02504 0.01502,-0.05007 0.02003,-0.0751 0.005,-0.02504 0.01502,-0.05007 0.02504,-0.0751 0.01001,-0.02504 0.02003,-0.05007 0.02504,-0.0701 0.01001,-0.02504 0.02003,-0.05007 0.03004,-0.07009 0.01001,-0.02003 0.02503,-0.04506 0.03505,-0.07009 0.01001,-0.02504 0.02503,-0.04506 0.04006,-0.06508 0.01502,-0.02003 0.02504,-0.04506 0.04006,-0.06508 0.01502,-0.02003 0.03004,-0.04006 0.04506,-0.06508 0.01502,-0.02003 0.03004,-0.04006 0.04506,-0.06008 0.01502,-0.02003 0.03004,-0.04006 0.05007,-0.06009 0.01502,-0.02003 0.03505,-0.04006 0.05007,-0.05507 0.01502,-0.01502 0.03505,-0.03505 0.05508,-0.05508 0.02003,-0.01502 0.04006,-0.03505 0.06008,-0.05007 0.02003,-0.01502 0.04006,-0.03505 0.06008,-0.05006 0.02003,-0.01502 0.04006,-0.03004 0.06008,-0.04506 0.02003,-0.01502 0.04506,-0.03004 0.06508,-0.04006 0.02003,-0.01502 0.04506,-0.02504 0.06508,-0.04006 0.02504,-0.01001 0.04506,-0.02504 0.07009,-0.03505 0.02503,-0.01001 0.04506,-0.02003 0.07009,-0.03505 0.02504,-0.01001 0.05007,-0.02003 0.0701,-0.03004 0.02503,-0.01001 0.05007,-0.01502 0.0751,-0.02504 0.02504,-0.01001 0.05006,-0.01502 0.0751,-0.02003 0.02503,-0.005 0.05007,-0.01502 0.0751,-0.02003 0.02503,-0.005 0.05007,-0.01001 0.0751,-0.01502 0.02504,-0.005 0.05007,-0.01001 0.0751,-0.01001 0.02504,0 0.05007,-0.005 0.0751,-0.01001 0.02503,0 0.05007,-0.005 0.0751,-0.005 h 5.39724 c 0.540725,-0.861155 1.497008,-1.431921 2.588472,-1.431921 1.687263,0 3.054097,1.366834 3.054097,3.054097 0,1.687263 -1.366834,3.054097 -3.054097,3.054097 -1.111491,0 -2.082794,-0.590793 -2.618513,-1.476981 h -3.73501 v 12.391622 c 0,0.0701 -0.005,0.140188 -0.01502,0.210282 2.112834,0.665893 4.350836,1.026377 6.668946,1.026377 2.077787,0 4.090487,-0.29039 5.99304,-0.831115 v -16.54719 c -0.851142,-0.540725 -1.416901,-1.492001 -1.416901,-2.578459 0,-1.687263 1.366834,-3.054096 3.054096,-3.054096 1.687264,0 3.054098,1.366833 3.054098,3.054096 0,1.116498 -0.600806,2.092808 -1.497008,2.628526 v 15.305532 c 1.466967,-0.680913 2.848821,-1.522042 4.120527,-2.503358 V 63.902553 c 0,-0.02504 0,-0.05007 0,-0.0751 0,-0.02503 0.005,-0.05007 0.005,-0.0751 0,-0.02504 0.005,-0.05007 0.01001,-0.0751 0.005,-0.02504 0.01001,-0.05007 0.01502,-0.0751 0.005,-0.02503 0.01001,-0.05007 0.01502,-0.0751 0.005,-0.02504 0.01502,-0.05007 0.02003,-0.0751 0.01001,-0.02504 0.01502,-0.05007 0.02504,-0.0751 0.01001,-0.02503 0.01502,-0.05007 0.02504,-0.0751 0.01001,-0.02504 0.02003,-0.05007 0.03004,-0.07009 0.01001,-0.02003 0.02504,-0.04506 0.03505,-0.07009 0.01001,-0.02504 0.02504,-0.04506 0.04006,-0.06508 0.01502,-0.02003 0.02504,-0.04506 0.04006,-0.06508 0.01502,-0.02003 0.03004,-0.04506 0.04506,-0.06508 0.01502,-0.02003 0.03004,-0.04006 0.04506,-0.06008 0.01502,-0.02003 0.03505,-0.04006 0.05007,-0.06008 0.01502,-0.02003 0.03505,-0.04006 0.05507,-0.05508 0.02003,-0.01502 0.03505,-0.03505 0.05508,-0.05508 0.02003,-0.01502 0.04006,-0.03505 0.06008,-0.05007 0.02003,-0.01502 0.04006,-0.03505 0.06009,-0.05007 0.02003,-0.01502 0.04006,-0.03004 0.06508,-0.04506 0.02003,-0.01502 0.04506,-0.03004 0.06508,-0.04006 0.02003,-0.01001 0.04506,-0.02504 0.06508,-0.04006 0.02003,-0.01502 0.04506,-0.02504 0.07009,-0.03505 0.02504,-0.01001 0.04506,-0.02003 0.0701,-0.03004 0.02504,-0.01001 0.05006,-0.02003 0.07009,-0.03004 0.02504,-0.01001 0.05007,-0.02003 0.0751,-0.02504 0.02504,-0.01001 0.05007,-0.01502 0.0751,-0.02003 0.02504,-0.005 0.05007,-0.01001 0.0751,-0.02003 0.02504,-0.005 0.05007,-0.01001 0.0751,-0.01502 0.02504,-0.005 0.05007,-0.005 0.0751,-0.01001 0.02504,-0.005 0.05007,-0.005 0.0751,-0.005 0.02504,0 0.05007,-0.005 0.0751,-0.005 h 6.959336 c 0,-0.100134 0,-0.205276 0,-0.305409 0,-5.467334 -2.007694,-10.464038 -5.327147,-14.294175 v 6.794113 c 0,0.02504 0,0.05007 0,0.08011 0,0.02504 -0.005,0.05006 -0.005,0.08011 0,0.03004 -0.005,0.05007 -0.01001,0.0751 -0.005,0.02504 -0.01001,0.05007 -0.01502,0.0751 -0.005,0.02504 -0.01001,0.05007 -0.01502,0.0751 -0.005,0.02504 -0.01502,0.05007 -0.02003,0.0751 -0.01001,0.02503 -0.01502,0.05007 -0.02504,0.0751 -0.01002,0.02504 -0.02003,0.05007 -0.03004,0.0751 -0.01001,0.02504 -0.02003,0.05007 -0.03004,0.0701 -0.01001,0.02504 -0.02504,0.04506 -0.03505,0.07009 -0.01001,0.02504 -0.02504,0.04506 -0.04006,0.07009 -0.01502,0.02503 -0.02504,0.04506 -0.04006,0.06508 -0.01502,0.02003 -0.03004,0.04506 -0.04506,0.06508 -0.01502,0.02003 -0.03004,0.04006 -0.05006,0.06008 -0.01502,0.02003 -0.03505,0.04006 -0.05007,0.06008 -0.01502,0.02003 -0.03505,0.04006 -0.05508,0.05507 -0.02003,0.01502 -0.04006,0.03505 -0.05508,0.05508 -0.02003,0.02003 -0.04006,0.03505 -0.06009,0.05007 -0.02003,0.01502 -0.04006,0.03004 -0.06008,0.05007 -0.02003,0.01502 -0.04006,0.03004 -0.06508,0.04506 -0.02003,0.01502 -0.04506,0.03004 -0.06508,0.04006 -0.02504,0.01502 -0.04506,0.02504 -0.07009,0.04006 -0.02504,0.01001 -0.04506,0.02504 -0.0701,0.03505 -0.02504,0.01001 -0.05007,0.02003 -0.07009,0.03004 -0.02504,0.01001 -0.05007,0.02003 -0.0751,0.03004 -0.02504,0.01001 -0.05007,0.01502 -0.0751,0.02504 -0.02504,0.01001 -0.05007,0.01502 -0.0751,0.02003 -0.02504,0.005 -0.05007,0.01001 -0.0751,0.01502 -0.02504,0.005 -0.05007,0.01001 -0.0751,0.01502 -0.02504,0.005 -0.05007,0.005 -0.08011,0.01001 -0.03004,0.005 -0.05007,0.005 -0.08011,0.005 -0.02503,0 -0.05007,0 -0.08011,0 v 0 c -0.01502,0 -0.03004,0 -0.04506,0 h -21.49884 v 3.244353 c 0.891195,0.530712 1.486995,1.507022 1.486995,2.623519 0,1.687263 -1.366834,3.054097 -3.054097,3.054097 -1.687263,0 -3.054097,-1.366834 -3.054097,-3.054097 0,-1.086457 0.565759,-2.04274 1.421907,-2.583465 V 54.50496 c 0,-0.02503 0,-0.05006 0,-0.0751 0,-0.02504 0.005,-0.05007 0.005,-0.0751 0,-0.02504 0.005,-0.05007 0.01001,-0.0751 0.005,-0.02504 0.01001,-0.05007 0.01502,-0.0751 0.005,-0.02504 0.01002,-0.05007 0.01502,-0.0751 0.005,-0.02504 0.01502,-0.05007 0.02003,-0.0751 0.005,-0.02504 0.01502,-0.05007 0.02503,-0.0751 0.01001,-0.02504 0.02003,-0.05007 0.02504,-0.07009 0.01001,-0.02503 0.02003,-0.05007 0.03004,-0.07009 0.01001,-0.02003 0.02504,-0.04506 0.03505,-0.0701 0.01001,-0.02503 0.02504,-0.04506 0.04006,-0.07009 0.01502,-0.02504 0.02504,-0.04506 0.04006,-0.06508 0.01502,-0.02003 0.03004,-0.04506 0.04506,-0.06508 0.01502,-0.02003 0.03004,-0.04006 0.04506,-0.06008 0.01502,-0.02003 0.03004,-0.04006 0.05007,-0.06009 0.01502,-0.02003 0.03505,-0.04006 0.05007,-0.05508 0.01502,-0.01502 0.03505,-0.03505 0.05508,-0.05508 0.02003,-0.02003 0.04006,-0.03505 0.06008,-0.05007 0.02003,-0.01502 0.04006,-0.03004 0.06008,-0.05006 0.02003,-0.01502 0.04006,-0.03004 0.06008,-0.04506 0.02003,-0.01502 0.04506,-0.03004 0.06508,-0.04006 0.02003,-0.01502 0.04506,-0.02504 0.06508,-0.04006 0.02503,-0.01001 0.04506,-0.02504 0.07009,-0.03505 0.02504,-0.01001 0.04506,-0.02003 0.07009,-0.03004 0.02504,-0.01001 0.05007,-0.02003 0.0701,-0.03004 0.02504,-0.01001 0.05007,-0.02003 0.0751,-0.02504 0.02503,-0.005 0.05006,-0.01502 0.0751,-0.02003 0.02503,-0.005 0.05007,-0.01502 0.0751,-0.02003 0.02504,-0.005 0.05007,-0.01001 0.0751,-0.01502 0.02504,-0.005 0.05007,-0.01001 0.0751,-0.01001 0.02504,0 0.05007,-0.005 0.0751,-0.005 0.02504,0 0.05007,-0.005 0.0751,-0.005 v 0 h 21.603994 v -8.060756 c 0,-0.05007 0,-0.100134 0.005,-0.145195 -3.684967,-2.858835 -8.306166,-4.551105 -13.322896,-4.551105 -5.016729,0 -9.647942,1.697277 -13.337892,4.546098 z M 42.160704,62 c 0,-4.455977 1.331787,-8.596532 3.619855,-12.046159 V 74.051166 C 43.492491,70.596532 42.160704,66.455978 42.160704,62 Z m 43.398217,3.499695 h -5.056784 v 10.799486 c 2.603492,-2.994016 4.395896,-6.703992 5.056784,-10.799486 z"
     style="fill:#000000;fill-opacity:1;stroke-width:0.0500671" /></svg>
