<?xml version="1.0" encoding="UTF-8" standalone="no"?>
<svg
   width="128"
   height="128"
   version="1"
   id="svg44"
   xml:space="preserve"
   xmlns:xlink="http://www.w3.org/1999/xlink"
   xmlns="http://www.w3.org/2000/svg"
   xmlns:svg="http://www.w3.org/2000/svg"><defs
     id="defs48"><linearGradient
       xlink:href="#linearGradient1571"
       id="linearGradient1573"
       x1="12"
       y1="66"
       x2="116"
       y2="66"
       gradientUnits="userSpaceOnUse" /><linearGradient
       id="linearGradient1571"><stop
         style="stop-color:#8c8c8c;stop-opacity:1;"
         offset="0"
         id="stop1567" /><stop
         style="stop-color:#e4e4e4;stop-opacity:1;"
         offset="0.03567462"
         id="stop1575" /><stop
         style="stop-color:#8c8c8c;stop-opacity:1;"
         offset="0.07302466"
         id="stop1577" /><stop
         style="stop-color:#8c8c8c;stop-opacity:0.99000001;"
         offset="0.92681795"
         id="stop1579" /><stop
         style="stop-color:#e4e4e4;stop-opacity:1;"
         offset="0.96064132"
         id="stop1581" /><stop
         style="stop-color:#8c8c8c;stop-opacity:1;"
         offset="1"
         id="stop1569" /></linearGradient></defs><rect
     style="display:inline;fill:url(#linearGradient1573);fill-opacity:1;stroke:none;stroke-width:0.25;stroke-linecap:butt;stroke-linejoin:miter;stroke-miterlimit:4;stroke-dasharray:none;stroke-dashoffset:0;stroke-opacity:1;marker:none;marker-start:none;marker-mid:none;marker-end:none;paint-order:normal;enable-background:new"
     id="rect1711-5"
     width="104"
     height="100"
     x="12.000004"
     y="15.999996"
     rx="8"
     ry="8" /><rect
     style="display:inline;fill:#ffffff;fill-opacity:1;stroke:none;stroke-width:0.25;stroke-linecap:butt;stroke-linejoin:miter;stroke-miterlimit:4;stroke-dasharray:none;stroke-dashoffset:0;stroke-opacity:1;marker:none;marker-start:none;marker-mid:none;marker-end:none;paint-order:normal;enable-background:new"
     id="rect1711"
     width="104"
     height="100"
     x="12.000004"
     y="11.999996"
     rx="8"
     ry="8" /><path
     id="Ellipse-Copy-Difference-Union-2"
     class="st0"
     d="m 64.000004,36.999996 c -13.805,0 -25,11.195 -25,25 0,13.805 11.195,25 25,25 13.805,0 25,-11.195 25,-25 0,-13.805 -11.195,-25 -25,-25 z m -13.32,7.73 h 15.59 c 0.539999,-0.86 1.495001,-1.429999 2.585001,-1.429999 1.684999,0 3.049999,1.364999 3.049999,3.049999 0,1.685 -1.365,3.05 -3.049999,3.05 -1.110001,0 -2.080001,-0.590001 -2.615001,-1.48 h -17.24 v 29.819999 c 0,0.03 0,0.05501 -0.005,0.08501 1.535,1.455 3.280001,2.69 5.180001,3.65 V 68.594996 c 0,-0.02501 0,-0.05 0,-0.075 0,-0.025 0.005,-0.05 0.005,-0.075 0,-0.02501 0.005,-0.05 0.01,-0.075 0.005,-0.02501 0.01,-0.05 0.015,-0.075 0.005,-0.02501 0.01,-0.05 0.015,-0.075 0.005,-0.02501 0.015,-0.05 0.02,-0.075 0.005,-0.02501 0.015,-0.05 0.02501,-0.075 0.01,-0.02501 0.02,-0.05 0.02501,-0.07001 0.01,-0.02501 0.02,-0.05 0.03,-0.07 0.01,-0.02 0.025,-0.045 0.035,-0.07 0.01,-0.02501 0.025,-0.045 0.04001,-0.06499 0.015,-0.02 0.02501,-0.045 0.04001,-0.06499 0.015,-0.02 0.03,-0.04001 0.045,-0.06499 0.015,-0.02 0.03,-0.04001 0.045,-0.06 0.015,-0.02 0.03,-0.04001 0.05,-0.06001 0.015,-0.02 0.035,-0.04001 0.05,-0.055 0.015,-0.015 0.035,-0.035 0.05501,-0.05501 0.02,-0.015 0.04001,-0.035 0.06,-0.05 0.02,-0.015 0.04001,-0.035 0.06,-0.04999 0.02,-0.015 0.04001,-0.03 0.06,-0.045 0.02,-0.015 0.045,-0.03 0.06499,-0.04001 0.02,-0.015 0.045,-0.02501 0.06499,-0.04001 0.02501,-0.01 0.045,-0.02501 0.07,-0.035 0.025,-0.01 0.045,-0.02 0.07,-0.035 0.02501,-0.01 0.05,-0.02 0.07001,-0.03 0.025,-0.01 0.05,-0.015 0.075,-0.02501 0.02501,-0.01 0.04999,-0.015 0.075,-0.02 0.025,-0.005 0.05,-0.015 0.075,-0.02 0.025,-0.005 0.05,-0.01 0.075,-0.015 0.02501,-0.005 0.05,-0.01 0.075,-0.01 0.02501,0 0.05,-0.005 0.075,-0.01 0.025,0 0.05,-0.005 0.075,-0.005 h 5.39 c 0.54,-0.86 1.495,-1.43 2.585,-1.43 1.685,0 3.05,1.365 3.05,3.05 0,1.685 -1.365,3.05 -3.05,3.05 -1.11,0 -2.08,-0.59 -2.615,-1.475 h -3.73 v 12.375 c 0,0.07001 -0.005,0.14 -0.015,0.21 2.11,0.664999 4.345,1.025 6.66,1.025 2.075,0 4.085,-0.290001 5.985001,-0.83 V 66.455009 c -0.850001,-0.54 -1.415001,-1.49 -1.415001,-2.575 0,-1.685 1.365001,-3.049999 3.049999,-3.049999 1.685001,0 3.050002,1.364999 3.050002,3.049999 0,1.115 -0.6,2.09 -1.495,2.625 v 15.285 c 1.464999,-0.679999 2.844999,-1.52 4.114999,-2.5 V 63.899997 c 0,-0.02501 0,-0.05 0,-0.075 0,-0.025 0.005,-0.05 0.005,-0.075 0,-0.02501 0.005,-0.05 0.01,-0.075 0.005,-0.02501 0.01,-0.05 0.015,-0.075 0.005,-0.025 0.01,-0.05 0.015,-0.075 0.005,-0.02501 0.015,-0.05 0.02,-0.075 0.01,-0.02501 0.015,-0.05 0.02501,-0.075 0.01,-0.025 0.015,-0.05 0.02501,-0.075 0.01,-0.02501 0.02,-0.05 0.03,-0.07 0.01,-0.02 0.02501,-0.045 0.035,-0.07 0.01,-0.02501 0.02501,-0.045 0.04001,-0.06499 0.015,-0.02 0.02501,-0.045 0.04001,-0.06499 0.015,-0.02 0.03,-0.045 0.045,-0.06499 0.015,-0.02 0.03,-0.04001 0.045,-0.06 0.015,-0.02 0.035,-0.04001 0.05,-0.06 0.015,-0.02 0.035,-0.04001 0.055,-0.05501 0.02,-0.015 0.035,-0.035 0.05501,-0.05501 0.02,-0.015 0.04001,-0.035 0.06,-0.05 0.02,-0.015 0.04001,-0.035 0.06001,-0.05 0.02,-0.015 0.04001,-0.03 0.06499,-0.045 0.02,-0.015 0.045,-0.03 0.06499,-0.04001 0.02,-0.01 0.045,-0.02501 0.06499,-0.04001 0.02,-0.015 0.045,-0.02501 0.07,-0.035 0.02501,-0.01 0.045,-0.02 0.07001,-0.03 0.02501,-0.01 0.04999,-0.02 0.07,-0.03 0.02501,-0.01 0.05,-0.02 0.075,-0.02501 0.02501,-0.01 0.05,-0.015 0.075,-0.02 0.02501,-0.005 0.05,-0.01 0.075,-0.02 0.02501,-0.005 0.05,-0.01 0.075,-0.015 0.02501,-0.005 0.05,-0.005 0.075,-0.01 0.02501,-0.005 0.05,-0.005 0.075,-0.005 0.02501,0 0.05,-0.005 0.075,-0.005 h 6.95 c 0,-0.1 0,-0.205001 0,-0.304999 0,-5.46 -2.005,-10.450002 -5.320001,-14.275001 v 6.784999 c 0,0.02501 0,0.05 0,0.08 0,0.02501 -0.005,0.04999 -0.005,0.08 0,0.03 -0.005,0.05 -0.01,0.075 -0.005,0.02501 -0.01,0.05 -0.015,0.075 -0.005,0.02501 -0.01,0.05 -0.015,0.075 -0.005,0.02501 -0.015,0.05 -0.02,0.075 -0.01,0.025 -0.015,0.05 -0.02501,0.075 -0.01001,0.02501 -0.02,0.05 -0.03,0.075 -0.01,0.02501 -0.02,0.05 -0.03,0.07001 -0.01,0.02501 -0.02501,0.045 -0.035,0.07 -0.01,0.02501 -0.02501,0.045 -0.04001,0.07 -0.015,0.025 -0.02501,0.045 -0.04001,0.06499 -0.015,0.02 -0.03,0.045 -0.045,0.06499 -0.015,0.02 -0.03,0.04001 -0.04999,0.06 -0.015,0.02 -0.035,0.04001 -0.05,0.06 -0.015,0.02 -0.035,0.04001 -0.05501,0.055 -0.02,0.015 -0.04001,0.035 -0.05501,0.05501 -0.02,0.02 -0.04001,0.035 -0.06001,0.05 -0.02,0.015 -0.04001,0.03 -0.06,0.05 -0.02,0.015 -0.04001,0.03 -0.06499,0.045 -0.02,0.015 -0.045,0.03 -0.06499,0.04001 -0.02501,0.015 -0.045,0.02501 -0.07,0.04001 -0.02501,0.01 -0.045,0.02501 -0.07001,0.035 -0.02501,0.01 -0.05,0.02 -0.07,0.03 -0.02501,0.01 -0.05,0.02 -0.075,0.03 -0.02501,0.01 -0.05,0.015 -0.075,0.02501 -0.02501,0.01 -0.05,0.015 -0.075,0.02 -0.02501,0.005 -0.05,0.01 -0.075,0.015 -0.02501,0.005 -0.05,0.01 -0.075,0.015 -0.02501,0.005 -0.05,0.005 -0.08,0.01 -0.03,0.005 -0.05,0.005 -0.08,0.005 -0.025,0 -0.05,0 -0.08,0 v 0 c -0.015,0 -0.03,0 -0.045,0 h -21.47 v 3.240001 c 0.889999,0.53 1.485,1.505 1.485,2.619999 0,1.685 -1.365001,3.05 -3.05,3.05 -1.685,0 -3.05,-1.365 -3.05,-3.05 0,-1.084999 0.565,-2.04 1.419999,-2.579999 v -4.875001 c 0,-0.025 0,-0.04999 0,-0.075 0,-0.02501 0.005,-0.05 0.005,-0.075 0,-0.02501 0.005,-0.05 0.01,-0.075 0.005,-0.02501 0.01,-0.05 0.015,-0.075 0.005,-0.02501 0.01001,-0.05 0.015,-0.075 0.005,-0.02501 0.015,-0.05 0.02,-0.075 0.005,-0.02501 0.015,-0.05 0.025,-0.075 0.01,-0.02501 0.02,-0.05 0.02501,-0.07 0.01,-0.025 0.02,-0.05 0.03,-0.07 0.01,-0.02 0.02501,-0.045 0.035,-0.07001 0.01,-0.025 0.02501,-0.045 0.04001,-0.07 0.015,-0.02501 0.02501,-0.045 0.04001,-0.06499 0.015,-0.02 0.03,-0.045 0.045,-0.06499 0.015,-0.02 0.03,-0.04001 0.045,-0.06 0.015,-0.02 0.03,-0.04001 0.05,-0.06001 0.015,-0.02 0.035,-0.04001 0.05,-0.05501 0.015,-0.015 0.035,-0.035 0.05501,-0.05501 0.02,-0.02 0.04001,-0.035 0.06,-0.05 0.02,-0.015 0.04001,-0.03 0.06,-0.04999 0.02,-0.015 0.04001,-0.03 0.06,-0.045 0.02,-0.015 0.045,-0.03 0.06499,-0.04001 0.02,-0.015 0.045,-0.02501 0.06499,-0.04001 0.025,-0.01 0.045,-0.02501 0.07,-0.035 0.02501,-0.01 0.045,-0.02 0.07,-0.03 0.02501,-0.01 0.05,-0.02 0.07001,-0.03 0.02501,-0.01 0.05,-0.02 0.075,-0.02501 0.025,-0.005 0.04999,-0.015 0.075,-0.02 0.025,-0.005 0.05,-0.015 0.075,-0.02 0.02501,-0.005 0.05,-0.01 0.075,-0.015 0.02501,-0.005 0.05,-0.01 0.075,-0.01 0.02501,0 0.05,-0.005 0.075,-0.005 0.02501,0 0.05,-0.005 0.075,-0.005 v 0 h 21.575014 v -8.049943 c 0,-0.05 0,-0.1 0.005,-0.145 -3.680024,-2.855 -8.295024,-4.545 -13.305024,-4.545 -5.009999,0 -9.635,1.695 -13.32,4.54 z m -8.49,17.27 c 0,-4.45 1.330001,-8.585 3.614999,-12.03 v 24.065 c -2.284998,-3.45 -3.614999,-7.584999 -3.614999,-12.035 z m 43.340001,3.495 h -5.050001 v 10.785 c 2.6,-2.99 4.39,-6.694999 5.050001,-10.785 z"
     style="clip-rule:evenodd;display:inline;fill:#000000;fill-opacity:1;fill-rule:evenodd;stroke-width:0.0499999;enable-background:new" /></svg>
