<?xml version="1.0" encoding="UTF-8" standalone="no"?>
<svg
   width="128"
   height="128"
   version="1"
   id="svg23"
   xmlns:xlink="http://www.w3.org/1999/xlink"
   xmlns="http://www.w3.org/2000/svg"
   xmlns:svg="http://www.w3.org/2000/svg">
  <defs
     id="defs27">
    <linearGradient
       id="linearGradient80"
       x1="74.803001"
       y1="20.542999"
       x2="7.7420001"
       y2="62.785999"
       gradientUnits="userSpaceOnUse"
       gradientTransform="matrix(1.4750335,0,0,1.4756091,-132.46039,2.9939727)">
      <stop
         offset="0.04957933"
         stop-color="#3fe1b0"
         id="stop76"
         style="stop-color:#20cb97;stop-opacity:1;" />
      <stop
         offset="0.36970314"
         stop-color="#00b3f4"
         id="stop77"
         style="stop-color:#008ec2;stop-opacity:1;" />
      <stop
         offset="0.38124457"
         stop-color="#03b0f4"
         id="stop78"
         style="stop-color:#028bc0;stop-opacity:1;" />
      <stop
         offset="0.53040314"
         stop-color="#5561e9"
         id="stop79"
         style="stop-color:#591fd6;stop-opacity:1;" />
      <stop
         offset="0.69921875"
         stop-color="#7542e5"
         id="stop80"
         style="stop-color:#4618aa;stop-opacity:1;" />
    </linearGradient>
    <linearGradient
       id="linearGradient19">
      <stop
         style="stop-color:#000000;stop-opacity:1;"
         offset="0"
         id="stop11" />
      <stop
         style="stop-color:#ffffff;stop-opacity:1;"
         offset="0.41075096"
         id="stop12" />
      <stop
         style="stop-color:#000000;stop-opacity:1;"
         offset="0.81443155"
         id="stop13" />
      <stop
         style="stop-color:#b2b2b2;stop-opacity:1;"
         offset="1"
         id="stop15" />
    </linearGradient>
    <linearGradient
       id="n"
       x1="70.013"
       y1="12.061"
       x2="15.267"
       y2="66.806"
       gradientUnits="userSpaceOnUse"
       gradientTransform="matrix(1.4750335,0,0,1.4756091,4.98501,2.9939468)">
      <stop
         offset=".167"
         stop-color="#54ffbd"
         stop-opacity=".8"
         id="stop67" />
      <stop
         offset=".236"
         stop-color="#43f8ca"
         stop-opacity=".639"
         id="stop68" />
      <stop
         offset=".361"
         stop-color="#27ede1"
         stop-opacity=".368"
         id="stop69" />
      <stop
         offset=".466"
         stop-color="#12e4f1"
         stop-opacity=".169"
         id="stop70" />
      <stop
         offset=".545"
         stop-color="#05dffb"
         stop-opacity=".046"
         id="stop71" />
      <stop
         offset=".589"
         stop-color="#0df"
         stop-opacity="0"
         id="stop72" />
    </linearGradient>
    <radialGradient
       id="m"
       cx="56.077"
       cy="20.139"
       r="80.685997"
       gradientUnits="userSpaceOnUse"
       gradientTransform="matrix(1.4750335,0,0,1.4756091,4.98501,2.9939468)">
      <stop
         offset=".094"
         stop-color="#54ffbd"
         id="stop63" />
      <stop
         offset=".242"
         stop-color="#41f7cc"
         id="stop64" />
      <stop
         offset=".543"
         stop-color="#0fe3f3"
         id="stop65" />
      <stop
         offset=".626"
         stop-color="#0df"
         id="stop66" />
    </radialGradient>
    <radialGradient
       id="l-9"
       cx="36.617001"
       cy="15.824"
       r="73.720001"
       gradientUnits="userSpaceOnUse"
       gradientTransform="matrix(1.4750335,0,0,1.4756091,4.98501,2.9939468)">
      <stop
         offset=".137"
         stop-color="#3fe1b0"
         id="stop58" />
      <stop
         offset=".435"
         stop-color="#0df"
         id="stop59" />
      <stop
         offset=".484"
         stop-color="#1ec1ff"
         id="stop60" />
      <stop
         offset=".622"
         stop-color="#7077ff"
         id="stop61" />
      <stop
         offset=".685"
         stop-color="#9059ff"
         id="stop62" />
    </radialGradient>
    <radialGradient
       id="k-3"
       cx="47.834999"
       cy="1.141"
       r="86.499001"
       gradientTransform="matrix(0.15487852,1.4682311,-0.96319685,0.10181703,69.255162,-65.636633)"
       gradientUnits="userSpaceOnUse">
      <stop
         offset="0"
         stop-color="#54ffbd"
         id="stop51" />
      <stop
         offset=".095"
         stop-color="#4cf3b8"
         id="stop52" />
      <stop
         offset=".197"
         stop-color="#3fe1b0"
         id="stop53" />
      <stop
         offset=".257"
         stop-color="#33d8bd"
         id="stop54" />
      <stop
         offset=".369"
         stop-color="#12c0e1"
         id="stop55" />
      <stop
         offset=".423"
         stop-color="#00b3f4"
         id="stop56" />
      <stop
         offset=".737"
         stop-color="#0060df"
         id="stop57" />
    </radialGradient>
    <radialGradient
       id="j-6"
       cx="59.022999"
       cy="-11.981"
       r="118.081"
       gradientUnits="userSpaceOnUse"
       gradientTransform="matrix(1.4750335,0,0,1.4756091,4.98501,2.9939468)">
      <stop
         offset=".126"
         stop-color="#3fe1b0"
         id="stop45" />
      <stop
         offset=".429"
         stop-color="#0df"
         id="stop46" />
      <stop
         offset=".479"
         stop-color="#1ec1ff"
         id="stop47" />
      <stop
         offset=".624"
         stop-color="#7077ff"
         id="stop48" />
      <stop
         offset=".69"
         stop-color="#9059ff"
         id="stop49" />
      <stop
         offset=".904"
         stop-color="#b833e1"
         id="stop50" />
    </radialGradient>
    <radialGradient
       id="i-0"
       cx="37.269001"
       cy="5.573"
       r="27.676001"
       gradientUnits="userSpaceOnUse"
       gradientTransform="matrix(1.4750335,0,0,1.4756091,4.98501,2.9939468)">
      <stop
         offset="0"
         stop-color="#0df"
         id="stop41" />
      <stop
         offset=".235"
         stop-color="#00d6fd"
         id="stop42" />
      <stop
         offset=".572"
         stop-color="#00c3f8"
         id="stop43" />
      <stop
         offset=".792"
         stop-color="#00b3f4"
         id="stop44" />
    </radialGradient>
    <radialGradient
       id="h-6"
       cx="31.52"
       cy="57.250999"
       r="0.22400001"
       gradientTransform="matrix(1.4337325,-0.34676814,0.4056342,1.6792432,-16.97087,2.2325325)"
       gradientUnits="userSpaceOnUse">
      <stop
         offset=".206"
         stop-color="#9059ff"
         stop-opacity="0"
         id="stop37" />
      <stop
         offset=".278"
         stop-color="#8c4ff3"
         stop-opacity=".064"
         id="stop38" />
      <stop
         offset=".747"
         stop-color="#7716a8"
         stop-opacity=".45"
         id="stop39" />
      <stop
         offset=".975"
         stop-color="#6e008b"
         stop-opacity=".6"
         id="stop40" />
    </radialGradient>
    <radialGradient
       id="g-2"
       cx="31.355"
       cy="57.478001"
       r="0.62599999"
       gradientUnits="userSpaceOnUse"
       gradientTransform="matrix(1.4750335,0,0,1.4756091,4.98501,2.9939468)">
      <stop
         offset=".353"
         stop-color="#3a8ee6"
         id="stop33" />
      <stop
         offset=".472"
         stop-color="#5c79f0"
         id="stop34" />
      <stop
         offset=".669"
         stop-color="#9059ff"
         id="stop35" />
      <stop
         offset="1"
         stop-color="#c139e6"
         id="stop36" />
    </radialGradient>
    <radialGradient
       id="f-6"
       cx="39.380001"
       cy="32.453999"
       r="20.396999"
       gradientTransform="matrix(1.4337325,-0.34676814,0.4056342,1.6792432,-6.57188,10.0267)"
       gradientUnits="userSpaceOnUse">
      <stop
         offset=".206"
         stop-color="#45278d"
         stop-opacity="0"
         id="stop29" />
      <stop
         offset=".251"
         stop-color="#44268a"
         stop-opacity=".055"
         id="stop30" />
      <stop
         offset=".725"
         stop-color="#371f6f"
         stop-opacity=".591"
         id="stop31" />
      <stop
         offset=".956"
         stop-color="#321c64"
         stop-opacity=".8"
         id="stop32" />
    </radialGradient>
    <radialGradient
       id="e-1"
       cx="29.351999"
       cy="63.015999"
       r="38.471001"
       gradientUnits="userSpaceOnUse"
       gradientTransform="matrix(1.4750335,0,0,1.4756091,4.98501,2.9939468)">
      <stop
         offset=".287"
         stop-color="#0060df"
         id="stop24" />
      <stop
         offset=".417"
         stop-color="#2357e1"
         id="stop25" />
      <stop
         offset=".604"
         stop-color="#4f4ce3"
         id="stop26" />
      <stop
         offset=".748"
         stop-color="#6b45e4"
         id="stop27" />
      <stop
         offset=".833"
         stop-color="#7542e5"
         id="stop28" />
    </radialGradient>
    <radialGradient
       id="d-8"
       cx="48.030998"
       cy="-9.4569998"
       r="58.534"
       gradientUnits="userSpaceOnUse"
       gradientTransform="matrix(1.4750335,0,0,1.4756091,4.98501,2.9939468)">
      <stop
         offset=".132"
         stop-color="#3fe1b0"
         id="stop21" />
      <stop
         offset=".289"
         stop-color="#28d0c8"
         id="stop22" />
      <stop
         offset=".526"
         stop-color="#00b3f4"
         id="stop23" />
    </radialGradient>
    <radialGradient
       id="c-7"
       cx="38.289001"
       cy="41.910999"
       r="80.796997"
       gradientUnits="userSpaceOnUse"
       gradientTransform="matrix(1.4750335,0,0,1.4756091,4.98501,2.9939468)">
      <stop
         offset=".3"
         stop-color="#45278d"
         id="stop16" />
      <stop
         offset=".341"
         stop-color="#562896"
         stop-opacity=".787"
         id="stop17" />
      <stop
         offset=".43"
         stop-color="#782aa9"
         stop-opacity=".364"
         id="stop18" />
      <stop
         offset=".495"
         stop-color="#8d2bb5"
         stop-opacity=".1"
         id="stop19" />
      <stop
         offset=".53"
         stop-color="#952bb9"
         stop-opacity="0"
         id="stop20" />
    </radialGradient>
    <radialGradient
       id="b-9"
       cx="67.813004"
       cy="8.8789997"
       r="80.796997"
       gradientUnits="userSpaceOnUse"
       gradientTransform="matrix(1.4750335,0,0,1.4756091,4.98501,2.9939468)">
      <stop
         offset=".108"
         stop-color="#3fe1b0"
         id="stop6" />
      <stop
         offset=".122"
         stop-color="#3bdcb3"
         id="stop7" />
      <stop
         offset=".254"
         stop-color="#1bb3d3"
         id="stop8" />
      <stop
         offset=".358"
         stop-color="#0799e6"
         id="stop9" />
      <stop
         offset=".42"
         stop-color="#0090ed"
         id="stop10" />
      <stop
         offset=".487"
         stop-color="#2482f1"
         id="stop11-2" />
      <stop
         offset=".64"
         stop-color="#7165fb"
         id="stop12-0" />
      <stop
         offset=".71"
         stop-color="#9059ff"
         id="stop13-2" />
      <stop
         offset=".795"
         stop-color="#7d49ed"
         id="stop14" />
      <stop
         offset=".86"
         stop-color="#7542e5"
         id="stop15-3" />
    </radialGradient>
    <linearGradient
       id="a-7"
       x1="74.803001"
       y1="20.542999"
       x2="7.7420001"
       y2="62.785999"
       gradientUnits="userSpaceOnUse"
       gradientTransform="matrix(1.4750335,0,0,1.4756091,4.98501,2.9939468)">
      <stop
         offset="0"
         stop-color="#3fe1b0"
         id="stop1" />
      <stop
         offset=".406"
         stop-color="#00b3f4"
         id="stop2" />
      <stop
         offset=".421"
         stop-color="#03b0f4"
         id="stop3" />
      <stop
         offset=".818"
         stop-color="#5561e9"
         id="stop4" />
      <stop
         offset="1"
         stop-color="#7542e5"
         id="stop5" />
    </linearGradient>
    <linearGradient
       xlink:href="#linearGradient80"
       id="linearGradient4"
       gradientUnits="userSpaceOnUse"
       gradientTransform="matrix(1.4750335,0,0,1.4756091,4.98506,6.9939471)"
       x1="74.803001"
       y1="20.542999"
       x2="7.7420001"
       y2="62.785999" />
    <linearGradient
       xlink:href="#linearGradient19"
       id="linearGradient5"
       gradientUnits="userSpaceOnUse"
       gradientTransform="matrix(1.4750335,0,0,1.4756091,4.98506,6.9939376)"
       x1="1.2999231"
       y1="41.246044"
       x2="78.717628"
       y2="41.248798" />
    <radialGradient
       id="j-6-4"
       cx="59.022999"
       cy="-11.981"
       r="118.081"
       gradientUnits="userSpaceOnUse"
       gradientTransform="matrix(1.4750335,0,0,1.4756091,4.985,4.9939461)">
      <stop
         offset=".126"
         stop-color="#3fe1b0"
         id="stop45-3" />
      <stop
         offset=".429"
         stop-color="#0df"
         id="stop46-0" />
      <stop
         offset=".479"
         stop-color="#1ec1ff"
         id="stop47-7" />
      <stop
         offset="0.62400001"
         stop-color="#7077ff"
         id="stop48-8"
         style="stop-color:#000670;stop-opacity:1;" />
      <stop
         offset="0.69"
         stop-color="#9059ff"
         id="stop49-6"
         style="stop-color:#9e1bc5;stop-opacity:1;" />
      <stop
         offset="0.90399998"
         stop-color="#b833e1"
         id="stop50-8"
         style="stop-color:#32093e;stop-opacity:1;" />
    </radialGradient>
    <linearGradient
       xlink:href="#linearGradient19"
       id="linearGradient81"
       x1="-96"
       y1="161.9557"
       x2="11.053454"
       y2="161.9557"
       gradientUnits="userSpaceOnUse"
       gradientTransform="translate(103.14733,-92.924955)" />
  </defs>
  <path
     d="m 116.96369,46.586014 c -2.48395,-5.979168 -7.52267,-12.434957 -11.46838,-14.475725 a 59.393698,59.416876 0 0 1 5.78951,17.359066 l 0.0103,0.09591 C 104.83151,33.44424 93.87054,26.944182 84.91856,12.790139 a 69.472601,69.499713 0 0 1 -1.3467,-2.189804 18.054409,18.061455 0 0 1 -0.62984,-1.1804869 10.403411,10.407471 0 0 1 -0.85257,-2.26506 0.14750335,0.14756091 0 0 0 -0.1298,-0.147561 0.20355462,0.20363406 0 0 0 -0.10768,0 c -0.007,0 -0.0192,0.01328 -0.028,0.01623 -0.009,0.0029 -0.028,0.01623 -0.0413,0.02213 l 0.0221,-0.03837 C 67.44532,15.418189 62.57328,30.988816 62.12487,38.777081 A 28.596474,28.607634 0 0 0 46.39216,44.84331 17.091213,17.097883 0 0 0 44.91713,43.724798 26.503401,26.513744 0 0 1 44.75635,29.746353 42.340835,42.357359 0 0 0 30.99577,40.385495 h -0.0266 C 28.70351,37.512484 28.86282,28.039074 28.99262,26.060282 a 10.219032,10.22302 0 0 0 -1.9087,1.013743 41.63282,41.649067 0 0 0 -5.58743,4.788352 49.922508,49.94199 0 0 0 -5.34404,6.414473 v 0.0089 -0.01033 A 48.282271,48.301113 0 0 0 8.48227,55.603498 l -0.0767,0.377756 a 91.289821,91.325447 0 0 0 -0.56198,3.570974 c 0,0.04279 -0.009,0.08263 -0.0133,0.125426 a 54.483311,54.504573 0 0 0 -0.9278,7.88418 v 0.295122 a 57.170822,57.193133 0 0 0 113.50972,9.671142 c 0.0959,-0.737805 0.17406,-1.468231 0.25961,-2.213414 a 58.790409,58.813352 0 0 0 -3.70816,-28.72868 z M 51.07395,91.353046 c 0.26698,0.12837 0.51774,0.26708 0.79209,0.38956 l 0.0398,0.0251 q -0.41596,-0.19921 -0.83191,-0.41465 z M 64.1693,56.859205 Z m 47.13027,-7.280655 v -0.0546 l 0.0103,0.0605 z"
     fill="url(#a)"
     id="path72-4"
     style="fill:url(#linearGradient4);stroke-width:1.47532" />
  <path
     d="m 116.96369,46.586007 c -2.48395,-5.97917 -7.52267,-12.43496 -11.46838,-14.47573 a 59.393698,59.416876 0 0 1 5.78951,17.35907 l 0.0103,0.0959 C 104.83151,33.444217 93.87054,26.944157 84.91856,12.790117 a 69.472601,69.499713 0 0 1 -1.3467,-2.1898 18.054409,18.061455 0 0 1 -0.62984,-1.1804894 10.403411,10.407471 0 0 1 -0.85257,-2.26506 0.14750335,0.14756091 0 0 0 -0.1298,-0.14756 0.20355462,0.20363406 0 0 0 -0.10768,0 c -0.007,0 -0.0192,0.0133 -0.028,0.0162 -0.009,0.003 -0.028,0.0162 -0.0413,0.0221 l 0.0221,-0.0384 C 67.44532,15.418077 62.57328,30.988707 62.12487,38.776967 a 28.596474,28.607634 0 0 0 -15.73271,6.06623 17.091213,17.097883 0 0 0 -1.47503,-1.11851 26.503401,26.513744 0 0 1 -0.16078,-13.97845 42.340835,42.357359 0 0 0 -13.76058,10.63915 h -0.0266 c -2.26566,-2.87301 -2.10635,-12.34642 -1.97655,-14.32522 a 10.219032,10.22302 0 0 0 -1.9087,1.01375 41.63282,41.649067 0 0 0 -5.58743,4.78835 49.922508,49.94199 0 0 0 -5.34404,6.41447 v 0.009 -0.0103 a 48.282271,48.301113 0 0 0 -7.67018,17.32808 l -0.0767,0.37776 a 91.289821,91.325447 0 0 0 -0.56198,3.57097 c 0,0.0428 -0.009,0.0826 -0.0133,0.12543 a 54.483311,54.504573 0 0 0 -0.9278,7.88418 v 0.29512 a 57.170822,57.193133 0 0 0 113.50972,9.67114 c 0.0959,-0.73781 0.17406,-1.46823 0.25961,-2.21341 a 58.790409,58.813352 0 0 0 -3.70816,-28.72868 z m -65.88974,44.76703 c 0.26698,0.12837 0.51774,0.26708 0.79209,0.38956 l 0.0398,0.0251 q -0.41596,-0.19921 -0.83191,-0.41465 z M 64.1693,56.859197 Z m 47.13027,-7.28066 v -0.0546 l 0.0103,0.0605 z"
     fill="url(#a)"
     id="path4"
     style="opacity:0.5;fill:url(#linearGradient5);stroke-width:1.47532" />
  <path
     d="m 116.96364,42.586014 c -2.48395,-5.979168 -7.52267,-12.434957 -11.46838,-14.475725 a 59.393698,59.416876 0 0 1 5.78951,17.359066 l 0.0103,0.09591 C 104.83149,29.44424 93.870521,22.944182 84.918542,8.7901393 a 69.472601,69.499713 0 0 1 -1.346705,-2.1898039 18.054409,18.061455 0 0 1 -0.62984,-1.1804873 10.403411,10.407471 0 0 1 -0.852569,-2.2650599 0.14750335,0.14756091 0 0 0 -0.129802,-0.147561 0.20355462,0.20363406 0 0 0 -0.107678,0 c -0.0074,0 -0.01917,0.013281 -0.02803,0.016232 -0.0089,0.00295 -0.02803,0.016232 -0.0413,0.022134 l 0.02213,-0.038366 C 67.445296,11.418199 62.57326,26.988826 62.12485,34.777091 A 28.596474,28.607634 0 0 0 46.392143,40.84332 17.091213,17.097883 0 0 0 44.91711,39.724808 26.503401,26.513744 0 0 1 44.756331,25.746363 42.340835,42.357359 0 0 0 30.99575,36.385505 h -0.0266 C 28.70349,33.512494 28.8628,24.039084 28.9926,22.060292 a 10.219032,10.22302 0 0 0 -1.9087,1.013743 41.63282,41.649067 0 0 0 -5.58743,4.788352 49.922508,49.94199 0 0 0 -5.34404,6.414473 v 0.0089 -0.01033 A 48.282271,48.301113 0 0 0 8.48225,51.603508 l -0.0767,0.377756 a 91.289821,91.325447 0 0 0 -0.56198,3.570974 c 0,0.04279 -0.009,0.08263 -0.0133,0.125426 a 54.483311,54.504573 0 0 0 -0.9278,7.88418 v 0.295122 a 57.170822,57.193133 0 0 0 113.50972,9.671142 c 0.0959,-0.737805 0.17406,-1.468231 0.25961,-2.213414 a 58.790409,58.813352 0 0 0 -3.70816,-28.72868 z M 51.0739,87.353043 c 0.266981,0.128378 0.517736,0.267086 0.792093,0.389561 l 0.03982,0.02508 Q 51.489854,87.568477 51.073895,87.353038 Z M 64.169247,52.859205 Z M 111.29952,45.57855 v -0.0546 l 0.0103,0.0605 z"
     fill="url(#a)"
     id="path72"
     style="fill:url(#a-7);stroke-width:1.47532" />
  <path
     d="m 111.30247,45.584452 -0.0103,-0.0605 v 0.0546 z"
     fill="none"
     id="path73"
     style="stroke-width:1.47532" />
  <path
     d="m 116.96364,42.586014 c -2.48395,-5.979168 -7.52267,-12.434957 -11.46838,-14.475725 a 59.393698,59.416876 0 0 1 5.78951,17.359066 v 0.0546 l 0.0103,0.0605 a 51.773674,51.793879 0 0 1 -1.77889,38.598983 C 102.96411,98.247468 87.104547,112.66269 62.279734,111.96177 35.45625,111.20183 11.83359,91.289971 7.41734,65.210056 c -0.8039,-4.112522 0,-6.197558 0.40415,-9.539813 a 42.593066,42.609688 0 0 0 -0.91894,7.891558 v 0.295122 a 57.170822,57.193133 0 0 0 113.50973,9.671142 c 0.0959,-0.737805 0.17405,-1.468231 0.2596,-2.213414 a 58.790409,58.813352 0 0 0 -3.70824,-28.728637 z"
     fill="url(#b)"
     id="path74"
     style="fill:url(#b-9);stroke-width:1.47532" />
  <path
     d="m 116.96364,42.586014 c -2.48395,-5.979168 -7.52267,-12.434957 -11.46838,-14.475725 a 59.393698,59.416876 0 0 1 5.78951,17.359066 v 0.0546 l 0.0103,0.0605 a 51.773674,51.793879 0 0 1 -1.77889,38.598983 C 102.96411,98.247468 87.104547,112.66269 62.279734,111.96177 35.45625,111.20183 11.83359,91.289971 7.41734,65.210056 c -0.8039,-4.112522 0,-6.197558 0.40415,-9.539813 a 42.593066,42.609688 0 0 0 -0.91894,7.891558 v 0.295122 a 57.170822,57.193133 0 0 0 113.50973,9.671142 c 0.0959,-0.737805 0.17405,-1.468231 0.2596,-2.213414 a 58.790409,58.813352 0 0 0 -3.70824,-28.728637 z"
     fill="url(#c)"
     id="path75"
     style="fill:url(#c-7);stroke-width:1.47532" />
  <path
     d="m 89.182864,49.308889 c 0.123903,0.08706 0.238956,0.174122 0.355483,0.261183 a 31.123206,31.135352 0 0 0 -5.31012,-6.927984 C 66.459974,24.863949 79.571546,4.0947511 81.782621,3.0396906 l 0.02213,-0.032463 C 67.4453,11.418199 62.573264,26.988826 62.124854,34.777091 c 0.666715,-0.04574 1.32753,-0.101817 2.008996,-0.101817 a 28.851655,28.862914 0 0 1 25.049018,14.633615 z"
     fill="url(#d)"
     id="path76"
     style="fill:url(#d-8);stroke-width:1.47532" />
  <path
     d="m 64.170722,52.859205 c -0.0944,1.422487 -5.118367,6.328887 -6.875131,6.328887 -16.256344,0 -18.895179,9.837886 -18.895179,9.837886 0.719816,8.28407 6.490147,15.107286 13.465581,18.716626 0.318607,0.165268 0.64164,0.314305 0.964671,0.46039 q 0.839295,0.371854 1.678588,0.687634 a 25.422202,25.432123 0 0 0 7.438594,1.435768 C 90.441068,91.663297 95.960643,56.239825 75.398676,45.960732 A 19.735948,19.74365 0 0 1 89.182864,49.308889 28.851655,28.862914 0 0 0 64.133846,34.675274 c -0.678516,0 -1.342281,0.05607 -2.008996,0.101817 A 28.596474,28.607634 0 0 0 46.392143,40.84332 c 0.871745,0.737805 1.855593,1.723512 3.928014,3.76723 3.879338,3.823303 13.82844,7.783838 13.850565,8.248655 z"
     fill="url(#e)"
     id="path77"
     style="fill:url(#e-1);stroke-width:1.47532" />
  <path
     d="m 64.170722,52.859205 c -0.0944,1.422487 -5.118367,6.328887 -6.875131,6.328887 -16.256344,0 -18.895179,9.837886 -18.895179,9.837886 0.719816,8.28407 6.490147,15.107286 13.465581,18.716626 0.318607,0.165268 0.64164,0.314305 0.964671,0.46039 q 0.839295,0.371854 1.678588,0.687634 a 25.422202,25.432123 0 0 0 7.438594,1.435768 C 90.441068,91.663297 95.960643,56.239825 75.398676,45.960732 A 19.735948,19.74365 0 0 1 89.182864,49.308889 28.851655,28.862914 0 0 0 64.133846,34.675274 c -0.678516,0 -1.342281,0.05607 -2.008996,0.101817 A 28.596474,28.607634 0 0 0 46.392143,40.84332 c 0.871745,0.737805 1.855593,1.723512 3.928014,3.76723 3.879338,3.823303 13.82844,7.783838 13.850565,8.248655 z"
     fill="url(#f)"
     id="path78"
     style="fill:url(#f-6);stroke-width:1.47532" />
  <path
     d="m 51.0739,87.353043 q 0.415959,0.213964 0.831918,0.414646 l -0.03982,-0.02508 c -0.269932,-0.122475 -0.525112,-0.261183 -0.792093,-0.389561 z"
     fill="url(#g)"
     id="path79"
     style="fill:url(#g-2);stroke-width:1.47532" />
  <path
     d="m 51.0739,87.353043 q 0.415959,0.213964 0.831918,0.414646 l -0.03982,-0.02508 c -0.269932,-0.122475 -0.525112,-0.261183 -0.792093,-0.389561 z"
     fill="url(#h)"
     id="path80"
     style="fill:url(#h-6);stroke-width:1.47532" />
  <path
     d="m 43.726758,38.94126 c 0.463161,0.295122 0.845194,0.551878 1.180027,0.783548 A 26.503401,26.513744 0 0 1 44.746007,25.746363 42.340835,42.357359 0 0 0 30.98542,36.385505 c 0.27878,-0.0074 8.571419,-0.156415 12.741338,2.555755 z"
     fill="url(#i)"
     id="path81"
     style="fill:url(#i-0);stroke-width:1.47532" />
  <path
     d="m 7.4247,67.210056 c 4.41182,26.07991 28.03891,45.991774 54.862388,46.751714 24.82482,0.70239 40.684382,-13.71431 47.236482,-27.778334 a 51.773674,51.793879 0 0 0 1.77889,-38.59898 v -0.0546 c 0,-0.0428 -0.009,-0.0679 0,-0.0546 l 0.0103,0.0959 c 2.02817,13.24654 -4.70684,26.07991 -15.235632,34.75797 l -0.0324,0.0738 c -20.51476,16.71422 -40.14746,10.08431 -44.1212,7.37805 q -0.41596,-0.19921 -0.83192,-0.41465 C 39.130558,83.646866 34.1892,72.745066 35.24828,63.395606 a 14.681008,14.686737 0 0 1 -13.54229,-8.52164 21.562039,21.570454 0 0 1 21.017758,-0.84405 28.468146,28.479256 0 0 0 21.46468,0.84405 c -0.0221,-0.46482 -9.97122,-4.42683 -13.85056,-8.24866 -2.07242,-2.04372 -3.05627,-3.02795 -3.92802,-3.76723 a 17.091213,17.097883 0 0 0 -1.47503,-1.11851 c -0.33926,-0.23167 -0.72129,-0.48252 -1.18003,-0.78355 -4.16992,-2.71217 -12.462558,-2.56313 -12.736908,-2.55575 h -0.0266 c -2.26566,-2.87301 -2.10635,-12.34642 -1.97655,-14.32522 a 10.219032,10.22302 0 0 0 -1.90868,1.01375 41.63282,41.649067 0 0 0 -5.58743,4.78835 49.922508,49.94199 0 0 0 -5.36618,6.39972 v 0.009 -0.0103 a 48.282271,48.301113 0 0 0 -7.67018,17.32807 c -0.028,0.11658 -2.05914,8.99974 -1.05759,13.60659 z"
     fill="url(#j)"
     id="path82-4"
     style="fill:url(#j-6-4);stroke-width:1.47532" />
  <path
     d="m 7.42471,67.210045 c 4.41182,26.07992 28.03891,45.991785 54.862394,46.751725 24.824813,0.70239 40.684376,-13.71431 47.236476,-27.778335 a 51.773674,51.793879 0 0 0 1.77889,-38.59899 v -0.0546 c 0,-0.0428 -0.009,-0.0679 0,-0.0546 l 0.0103,0.0959 c 2.02817,13.24655 -4.70684,26.07992 -15.235626,34.75798 l -0.03245,0.0738 c -20.514766,16.71422 -40.147461,10.08431 -44.121202,7.37804 q -0.415958,-0.19921 -0.831918,-0.41464 C 39.130554,83.646865 34.18919,72.745055 35.24827,63.395605 a 14.681008,14.686737 0 0 1 -13.54229,-8.52165 21.562039,21.570454 0 0 1 21.017755,-0.84405 28.468146,28.479256 0 0 0 21.464687,0.84405 c -0.02212,-0.46481 -9.971226,-4.42682 -13.850564,-8.24865 -2.072422,-2.04372 -3.056269,-3.02795 -3.928014,-3.76723 a 17.091213,17.097883 0 0 0 -1.475033,-1.11851 c -0.339259,-0.23167 -0.721292,-0.48253 -1.180028,-0.78355 -4.169919,-2.71217 -12.462563,-2.56314 -12.736913,-2.55576 h -0.0266 c -2.26566,-2.87301 -2.10635,-12.34642 -1.97655,-14.32521 a 10.219032,10.22302 0 0 0 -1.90868,1.01374 41.63282,41.649067 0 0 0 -5.58743,4.78836 49.922508,49.94199 0 0 0 -5.36618,6.39971 v 0.009 -0.0103 a 48.282271,48.301113 0 0 0 -7.67018,17.32808 c -0.028,0.11657 -2.05914,8.99974 -1.05759,13.60659 z"
     fill="url(#j)"
     id="path82-9"
     style="opacity:0.4;fill:url(#linearGradient81);stroke-width:1.47532" />
  <path
     d="m 7.42471,65.210053 c 4.41182,26.079915 28.03891,45.991777 54.862394,46.751717 24.824813,0.70239 40.684376,-13.714305 47.236476,-27.778335 a 51.773674,51.793879 0 0 0 1.77889,-38.598983 v -0.0546 c 0,-0.04279 -0.009,-0.06788 0,-0.0546 l 0.0103,0.09592 c 2.02817,13.246543 -4.70684,26.079915 -15.235626,34.757972 l -0.03245,0.07378 C 75.529958,97.117149 55.897263,90.487237 51.923522,87.78097 Q 51.507564,87.581763 51.091604,87.366324 C 39.130554,81.646863 34.18919,70.745063 35.24827,61.395604 a 14.681008,14.686737 0 0 1 -13.54229,-8.521643 21.562039,21.570454 0 0 1 21.017755,-0.844048 28.468146,28.479256 0 0 0 21.464687,0.844048 c -0.02212,-0.464817 -9.971226,-4.426827 -13.850564,-8.248655 -2.072422,-2.043718 -3.056269,-3.02795 -3.928014,-3.76723 A 17.091213,17.097883 0 0 0 44.934811,39.739564 C 44.595552,39.507894 44.213519,39.25704 43.754783,38.956016 39.584864,36.243847 31.29222,36.392883 31.01787,36.400261 h -0.0266 C 28.72561,33.52725 28.88492,24.05384 29.01472,22.075048 a 10.219032,10.22302 0 0 0 -1.90868,1.013743 41.63282,41.649067 0 0 0 -5.58743,4.788352 49.922508,49.94199 0 0 0 -5.36618,6.399717 v 0.0089 -0.01033 A 48.282271,48.301113 0 0 0 8.48225,51.603508 c -0.028,0.116573 -2.05914,8.99974 -1.05759,13.606591 z"
     fill="url(#j)"
     id="path82"
     style="fill:url(#j-6);stroke-width:1.47532" />
  <path
     fill="#ff4aa2"
     d="m 64.170722,52.859205 h -0.0015 z"
     id="path83"
     style="stroke-width:1.47532" />
  <path
     d="m 84.231177,42.642088 a 31.123206,31.135352 0 0 1 5.31012,6.935362 c 0.314182,0.237573 0.607714,0.473671 0.856995,0.70239 12.961118,11.952434 6.170065,28.848158 5.664128,30.05078 10.52879,-8.678058 17.25789,-21.51143 15.23562,-34.757973 C 104.83149,29.44424 93.870521,22.944182 84.918542,8.7901393 a 69.472601,69.499713 0 0 1 -1.346705,-2.1898039 18.054409,18.061455 0 0 1 -0.62984,-1.1804873 10.403411,10.407471 0 0 1 -0.852569,-2.2650599 0.14750335,0.14756091 0 0 0 -0.129802,-0.147561 0.20355462,0.20363406 0 0 0 -0.107678,0 c -0.0074,0 -0.01917,0.013281 -0.02803,0.016232 -0.0089,0.00295 -0.02803,0.016232 -0.0413,0.022134 -2.211075,1.049158 -15.322647,21.8183558 2.448556,39.5964948 z"
     fill="url(#k)"
     id="path84"
     style="fill:url(#k-3);stroke-width:1.47532" />
  <path
     d="m 90.389442,50.272462 a 11.922695,11.927348 0 0 0 -0.856994,-0.70239 C 89.41592,49.483012 89.300867,49.39595 89.176964,49.308889 A 19.735948,19.74365 0 0 0 75.392777,45.960732 C 95.954743,56.245728 90.438118,91.663297 61.941946,90.326396 A 25.422202,25.432123 0 0 1 54.503353,88.890628 Q 53.664058,88.576323 52.824765,88.202994 C 52.501732,88.055433 52.1787,87.907872 51.860092,87.742604 l 0.03982,0.02508 c 3.97374,2.713646 23.600535,9.343557 44.1212,-7.378045 l 0.03245,-0.07378 c 0.511836,-1.195244 7.302888,-18.095395 -5.664129,-30.043402 z"
     fill="url(#l)"
     id="path85"
     style="fill:url(#l-9);stroke-width:1.47532" />
  <path
     d="m 38.400412,69.025978 c 0,0 2.638835,-9.837886 18.895179,-9.837886 1.756764,0 6.785154,-4.9064 6.875131,-6.328887 A 28.468146,28.479256 0 0 1 42.706035,52.015157 21.562039,21.570454 0 0 0 21.68828,52.859205 14.681008,14.686737 0 0 0 35.23056,61.380848 c -1.05907,9.350934 3.882293,20.252734 15.84334,25.97072 0.266981,0.128378 0.517736,0.267085 0.792093,0.38956 -6.981334,-3.607864 -12.745765,-10.43108 -13.465581,-18.71515 z"
     fill="url(#m)"
     id="path86"
     style="fill:url(#m);stroke-width:1.47532" />
  <path
     fill="#ff4aa2"
     d="m 77.93721,59.744397 -0.0015,0.0015 z"
     id="path87"
     style="stroke-width:1.47532" />
  <path
     d="m 116.96364,42.586014 c -2.48395,-5.979168 -7.52267,-12.434957 -11.46838,-14.475725 a 59.393698,59.416876 0 0 1 5.78951,17.359066 l 0.0103,0.09591 C 104.83149,29.44424 93.870521,22.944182 84.918542,8.7901393 a 69.472601,69.499713 0 0 1 -1.346705,-2.1898039 18.054409,18.061455 0 0 1 -0.62984,-1.1804873 10.403411,10.407471 0 0 1 -0.852569,-2.2650599 0.14750335,0.14756091 0 0 0 -0.129802,-0.147561 0.20355462,0.20363406 0 0 0 -0.107678,0 c -0.0074,0 -0.01917,0.013281 -0.02803,0.016232 -0.0089,0.00295 -0.02803,0.016232 -0.0413,0.022134 l 0.02213,-0.038366 C 67.445297,11.418199 62.573261,26.988826 62.124851,34.777091 c 0.666715,-0.04574 1.32753,-0.101817 2.008996,-0.101817 A 28.851655,28.862914 0 0 1 89.182865,49.308889 19.735948,19.74365 0 0 0 75.398677,45.960732 C 95.960644,56.245728 90.444019,91.663297 61.947847,90.326396 A 25.422202,25.432123 0 0 1 54.509253,88.890628 Q 53.66996,88.576323 52.830665,88.202994 c -0.323031,-0.147561 -0.646064,-0.295122 -0.964671,-0.46039 l 0.03982,0.02508 q -0.415959,-0.199207 -0.831918,-0.414646 c 0.266981,0.128378 0.517736,0.267086 0.792093,0.389561 -6.981334,-3.60934 -12.745765,-10.432556 -13.465581,-18.716626 0,0 2.638835,-9.837886 18.895179,-9.837886 1.756764,0 6.785154,-4.9064 6.875131,-6.328887 -0.02212,-0.464817 -9.971227,-4.426827 -13.850565,-8.248655 -2.072421,-2.043718 -3.056269,-3.02795 -3.928014,-3.76723 A 17.091213,17.097883 0 0 0 44.917106,39.724803 26.503401,26.513744 0 0 1 44.756327,25.746358 42.340835,42.357359 0 0 0 30.99575,36.3855 h -0.0266 C 28.70349,33.512489 28.8628,24.039079 28.9926,22.060287 a 10.219032,10.22302 0 0 0 -1.9087,1.013743 41.63282,41.649067 0 0 0 -5.58743,4.788352 49.922508,49.94199 0 0 0 -5.34404,6.414473 v 0.0089 -0.01033 A 48.282271,48.301113 0 0 0 8.48225,51.603503 l -0.0767,0.377756 c -0.10767,0.503182 -0.59001,3.058937 -0.65933,3.607864 0,0.04132 0,-0.04279 0,0 A 66.515159,66.541117 0 0 0 6.9025,63.561839 v 0.295122 a 57.170822,57.193133 0 0 0 113.50972,9.671142 c 0.0959,-0.737805 0.17405,-1.468231 0.2596,-2.213414 a 58.790409,58.813352 0 0 0 -3.70818,-28.728675 z m -5.6715,2.937938 0.0103,0.0605 z"
     fill="url(#n)"
     id="path88"
     style="fill:url(#n);stroke-width:1.47532" />
</svg>
