<?xml version="1.0" encoding="UTF-8" standalone="no"?>
<svg
   viewBox="0 0 128 128"
   style="display:inline;enable-background:new"
   version="1.0"
   id="svg11300"
   height="128"
   width="128"
   xml:space="preserve"
   xmlns:xlink="http://www.w3.org/1999/xlink"
   xmlns="http://www.w3.org/2000/svg"
   xmlns:svg="http://www.w3.org/2000/svg"
   xmlns:rdf="http://www.w3.org/1999/02/22-rdf-syntax-ns#"
   xmlns:cc="http://creativecommons.org/ns#"
   xmlns:dc="http://purl.org/dc/elements/1.1/"><title
     id="title4162">Adwaita Icon Template</title><defs
     id="defs3"><linearGradient
       id="linearGradient9"><stop
         style="stop-color:#040986;stop-opacity:1;"
         offset="0.16168155"
         id="stop9" /><stop
         style="stop-color:#2a32f9;stop-opacity:1;"
         offset="0.25216705"
         id="stop11" /><stop
         style="stop-color:#040986;stop-opacity:1;"
         offset="0.33637461"
         id="stop12" /><stop
         style="stop-color:#040986;stop-opacity:1;"
         offset="0.65781248"
         id="stop13" /><stop
         style="stop-color:#2a32f9;stop-opacity:1;"
         offset="0.74744231"
         id="stop14" /><stop
         style="stop-color:#040986;stop-opacity:1;"
         offset="0.8391369"
         id="stop10" /></linearGradient><linearGradient
       id="linearGradient6"><stop
         style="stop-color:#7204e8;stop-opacity:1;"
         offset="0.09843081"
         id="stop5" /><stop
         style="stop-color:#0710e8;stop-opacity:1;"
         offset="0.90442228"
         id="stop6" /></linearGradient><linearGradient
       xlink:href="#linearGradient6"
       id="linearGradient37"
       gradientUnits="userSpaceOnUse"
       gradientTransform="matrix(0,1.0176674,1,0,-143.91879,218.04923)"
       x1="-202.47208"
       y1="207.91878"
       x2="-104.20814"
       y2="207.91878" /><linearGradient
       id="linearGradient41007"><stop
         style="stop-color:#2d0793;stop-opacity:1"
         offset="0"
         id="stop41003" /><stop
         style="stop-color:#1c056c;stop-opacity:1"
         offset="1"
         id="stop41005" /></linearGradient><linearGradient
       id="linearGradient33056"><stop
         style="stop-color:#f8f2ff;stop-opacity:1"
         offset="0"
         id="stop33058" /><stop
         style="stop-color:#c1c3e5;stop-opacity:1"
         offset="1"
         id="stop35124" /></linearGradient><linearGradient
       id="linearGradient31352"><stop
         style="stop-color:#ffffff;stop-opacity:1;"
         offset="0"
         id="stop31350" /></linearGradient><filter
       style="color-interpolation-filters:sRGB"
       id="filter16363"
       x="-0.026366812"
       y="-0.060160136"
       width="1.0527336"
       height="1.1203203"><feGaussianBlur
         stdDeviation="3.5408214"
         id="feGaussianBlur16365" /></filter><filter
       style="color-interpolation-filters:sRGB"
       id="filter17243"
       x="-0.12431146"
       y="-0.087629295"
       width="1.2486229"
       height="1.1752586"><feGaussianBlur
         stdDeviation="5.5255376"
         id="feGaussianBlur17245" /></filter><linearGradient
       xlink:href="#linearGradient41007"
       id="linearGradient41009"
       x1="44.491547"
       y1="29.87673"
       x2="90.553719"
       y2="104.66171"
       gradientUnits="userSpaceOnUse"
       gradientTransform="matrix(0.92855149,0,0,0.92855149,10.11308,12)" /><filter
       style="color-interpolation-filters:sRGB"
       id="filter56934"
       x="-0.072575207"
       y="-0.05439755"
       width="1.1451504"
       height="1.1087951"><feGaussianBlur
         stdDeviation="0.94930096"
         id="feGaussianBlur56936" /></filter><filter
       style="color-interpolation-filters:sRGB"
       id="filter59166"
       x="-0.22283328"
       y="-0.088717683"
       width="1.4456666"
       height="1.1774354"><feGaussianBlur
         stdDeviation="0.72999998"
         id="feGaussianBlur59168" /></filter><filter
       style="color-interpolation-filters:sRGB"
       id="filter84277"
       x="-0.0781947"
       y="-0.1319032"
       width="1.1563894"
       height="1.2638064"><feGaussianBlur
         stdDeviation="7.9744242"
         id="feGaussianBlur84279" /></filter><linearGradient
       xlink:href="#linearGradient33056"
       id="linearGradient86330"
       gradientUnits="userSpaceOnUse"
       x1="91.133186"
       y1="33.858837"
       x2="44.77869"
       y2="163.04298"
       gradientTransform="matrix(0.92855149,0,0,0.92855149,10.11308,12)" /><linearGradient
       xlink:href="#linearGradient9"
       id="linearGradient10"
       x1="-108.00001"
       y1="65.999991"
       x2="3.6234084e-08"
       y2="65.999991"
       gradientUnits="userSpaceOnUse"
       gradientTransform="translate(118)" /></defs><metadata
     id="metadata4"><rdf:RDF><cc:Work
         rdf:about=""><dc:format>image/svg+xml</dc:format><dc:type
           rdf:resource="http://purl.org/dc/dcmitype/StillImage" /><dc:creator><cc:Agent><dc:title>GNOME Design Team</dc:title></cc:Agent></dc:creator><dc:source /><cc:license
           rdf:resource="http://creativecommons.org/licenses/by-sa/4.0/" /><dc:title>Adwaita Icon Template</dc:title><dc:subject><rdf:Bag /></dc:subject><dc:date /><dc:rights><cc:Agent><dc:title /></cc:Agent></dc:rights><dc:publisher><cc:Agent><dc:title /></cc:Agent></dc:publisher><dc:identifier /><dc:relation /><dc:language /><dc:coverage /><dc:description /><dc:contributor><cc:Agent><dc:title /></cc:Agent></dc:contributor></cc:Work><cc:License
         rdf:about="http://creativecommons.org/licenses/by-sa/4.0/"><cc:permits
           rdf:resource="http://creativecommons.org/ns#Reproduction" /><cc:permits
           rdf:resource="http://creativecommons.org/ns#Distribution" /><cc:requires
           rdf:resource="http://creativecommons.org/ns#Notice" /><cc:requires
           rdf:resource="http://creativecommons.org/ns#Attribution" /><cc:permits
           rdf:resource="http://creativecommons.org/ns#DerivativeWorks" /><cc:requires
           rdf:resource="http://creativecommons.org/ns#ShareAlike" /></cc:License></rdf:RDF></metadata><path
     id="path7"
     d="m 97.46564,107.0117 18.16777,-32.023421 a 17.664472,17.976558 0 0 0 0,-17.976556 L 97.46564,24.988262 A 17.664472,17.976558 0 0 0 82.16776,15.999992 H 45.83223 a 17.664472,17.976558 0 0 0 -15.29788,8.98827 L 12.36658,57.011723 a 17.664472,17.976558 0 0 0 0,17.976556 L 30.53435,107.0117 a 17.664472,17.976558 0 0 0 15.29788,8.98829 h 36.33553 a 17.664472,17.976558 0 0 0 15.29788,-8.98829 z"
     style="display:inline;fill:url(#linearGradient10);fill-opacity:1;stroke:none;stroke-width:0;stroke-linecap:square;stroke-linejoin:round;stroke-miterlimit:1.5;stroke-dasharray:none;stroke-opacity:1;paint-order:stroke fill markers;enable-background:new" /><path
     id="path998-3-9"
     d="m 97.46564,103.01171 18.16777,-32.023423 a 17.664472,17.976558 0 0 0 0,-17.976556 L 97.46564,20.98827 A 17.664472,17.976558 0 0 0 82.16776,12 H 45.83223 A 17.664472,17.976558 0 0 0 30.53435,20.98827 L 12.36658,53.011731 a 17.664472,17.976558 0 0 0 0,17.976556 L 30.53435,103.01171 A 17.664472,17.976558 0 0 0 45.83223,112 h 36.33553 a 17.664472,17.976558 0 0 0 15.29788,-8.98829 z"
     style="display:inline;fill:url(#linearGradient37);fill-opacity:1;stroke:none;stroke-width:0;stroke-linecap:square;stroke-linejoin:round;stroke-miterlimit:1.5;stroke-dasharray:none;stroke-opacity:1;paint-order:stroke fill markers;enable-background:new" /><path
     id="path16163"
     style="mix-blend-mode:normal;fill:#1f0774;fill-opacity:1;stroke:none;stroke-width:0.693967;filter:url(#filter16363)"
     d="m 63.853516,203.4668 c -1.49e-4,0.0195 -0.002,0.0391 -0.002,0.0586 0,0.0601 0.0015,0.11963 0.002,0.17969 4.53e-4,0.0653 2.5e-5,0.13015 0.002,0.19531 0.0076,0.15575 0.016,0.31227 0.02734,0.46875 0.0033,0.0492 0.0099,0.0975 0.01367,0.14648 1.14e-4,0.001 -1.13e-4,0.003 0,0.004 0.0076,0.0626 0.01197,0.12499 0.01953,0.1875 0.01512,0.15799 0.03781,0.31781 0.05859,0.47656 0.0076,0.0465 0.01588,0.0923 0.02344,0.13868 0.0076,0.0607 0.01405,0.1212 0.02539,0.18164 0.03024,0.16924 0.05986,0.33849 0.09766,0.50781 0.0189,0.0956 0.04373,0.193 0.06641,0.28711 0.04157,0.17272 0.08525,0.34605 0.134766,0.51953 0.03024,0.0994 0.06156,0.19823 0.0918,0.29687 0.05065,0.16184 0.101574,0.32263 0.160157,0.48438 0.04687,0.13122 0.09892,0.26143 0.148437,0.39258 0.05027,0.12816 0.09798,0.25701 0.154297,0.38476 0.07257,0.17443 0.15469,0.34598 0.236328,0.51758 0.0446,0.0922 0.08588,0.18594 0.13086,0.2793 0.133039,0.26766 0.274033,0.53066 0.425781,0.79297 l 54.042968,93.60351 15.16602,26.26953 0.008,-0.004 4.86914,8.43359 v 0.002 c 0.062,0.10715 0.13068,0.20762 0.19531,0.3125 0.13493,0.22103 0.27214,0.43815 0.41406,0.64649 0.0113,0.014 0.0199,0.0287 0.0312,0.043 0.10961,0.1593 0.22104,0.31846 0.33594,0.47265 0.0707,0.0942 0.14108,0.18401 0.21289,0.27539 0.0227,0.028 0.0461,0.0561 0.0684,0.084 0.0801,0.10016 0.16175,0.19936 0.24414,0.29687 0.0971,0.11407 0.1971,0.22273 0.29688,0.33204 0.0113,0.0125 0.0219,0.0269 0.0332,0.0391 0.0779,0.085 0.15847,0.16767 0.23633,0.25195 0.10658,0.1098 0.21499,0.21566 0.32422,0.32031 0.008,0.009 0.0198,0.0186 0.0273,0.0273 0.0779,0.0741 0.15463,0.14851 0.23438,0.2207 0.0151,0.0129 0.0301,0.0246 0.043,0.0371 0.10016,0.0897 0.20265,0.17607 0.30469,0.26172 0.0151,0.0117 0.0263,0.0234 0.041,0.0351 0.0858,0.0714 0.1717,0.14253 0.25976,0.21094 0.008,0.006 0.0139,0.0115 0.0215,0.0176 0.0975,0.076 0.1959,0.1502 0.29492,0.22266 0.0151,0.0113 0.0302,0.0238 0.0469,0.0351 0.0983,0.0741 0.19993,0.14486 0.30273,0.21289 0.0189,0.0125 0.0377,0.0231 0.0547,0.0352 0.076,0.0508 0.15141,0.10156 0.22851,0.15039 0.0265,0.0174 0.0544,0.0359 0.082,0.0527 0.11301,0.0711 0.2281,0.14014 0.34375,0.20704 0.0302,0.0185 0.064,0.0363 0.0957,0.0547 0.034,0.0197 0.0687,0.0395 0.10351,0.0586 0.0427,0.0242 0.0858,0.049 0.12891,0.0723 0.13871,0.0714 0.27665,0.14253 0.41797,0.21094 0.0378,0.0178 0.0731,0.0336 0.10937,0.0508 0.0227,0.0102 0.0433,0.0191 0.0645,0.0293 0.045,0.0208 0.0894,0.0422 0.13476,0.0625 0.14476,0.0654 0.29253,0.12778 0.44141,0.1875 0.0265,0.0106 0.0532,0.0207 0.0801,0.0312 0.034,0.0136 0.0703,0.0276 0.10546,0.041 0.0389,0.0151 0.0783,0.0302 0.11719,0.0449 0.16101,0.0597 0.32278,0.11814 0.48828,0.16992 0.0302,0.0102 0.0652,0.0191 0.0977,0.0293 0.008,0.002 0.0159,0.005 0.0234,0.008 0.0537,0.0166 0.10686,0.0336 0.16015,0.0488 0.17046,0.0503 0.3424,0.0987 0.51758,0.14257 0.0302,0.007 0.0584,0.0127 0.0879,0.0195 0.004,9.6e-4 0.008,0.003 0.0117,0.004 0.0677,0.0155 0.1339,0.0298 0.20117,0.0449 0.16555,0.037 0.33072,0.0752 0.5,0.10547 0.1372,0.025 0.27592,0.0437 0.41407,0.0664 0.13606,0.0204 0.27137,0.0435 0.41015,0.0586 0.0265,0.003 0.0512,0.005 0.0762,0.008 0.0151,0.002 0.0263,0.002 0.041,0.004 0.14929,0.0166 0.29894,0.031 0.44922,0.043 0.10242,0.008 0.20308,0.0198 0.30664,0.0273 0.2982,0.0189 0.59727,0.0254 0.90039,0.0254 h 108.08594 30.33203 v -0.002 h 9.74023 c 0.15799,0 0.3137,-0.0103 0.47071,-0.0156 0.14437,-0.005 0.28989,-0.005 0.43359,-0.0137 0.0949,-0.006 0.18985,-0.0155 0.2832,-0.0234 h 0.002 c 0.008,-5.8e-4 0.0159,-10e-4 0.0234,-0.002 0.18482,-0.0147 0.37003,-0.031 0.55274,-0.0527 0.004,-5.5e-4 0.008,-10e-4 0.0156,-0.002 0.13871,-0.0166 0.27364,-0.038 0.41016,-0.0586 0.0113,-0.001 0.018,-0.003 0.0293,-0.004 0.12661,-0.0193 0.25323,-0.0398 0.3789,-0.0625 0.002,-3.5e-4 0.004,3.4e-4 0.008,0 0.0661,-0.0121 0.12993,-0.0272 0.19532,-0.041 0.0952,-0.0189 0.19066,-0.0363 0.28515,-0.0586 0.008,-10e-4 0.012,-0.005 0.0195,-0.006 0.10092,-0.0227 0.20258,-0.0433 0.30274,-0.0684 0.16554,-0.0414 0.32843,-0.0871 0.49023,-0.13477 0.008,-0.003 0.0178,-0.005 0.0254,-0.008 0.0941,-0.028 0.1879,-0.0559 0.28125,-0.0859 0.16517,-0.0532 0.32731,-0.11036 0.48828,-0.16992 0.1013,-0.0374 0.20258,-0.077 0.30274,-0.11719 0.002,-7.6e-4 0.004,-0.001 0.004,-0.002 0.14212,-0.0571 0.28306,-0.11579 0.42188,-0.17774 0.004,-0.002 0.008,-0.006 0.0156,-0.008 0.082,-0.0367 0.16289,-0.075 0.24415,-0.11328 0.0227,-0.0102 0.0433,-0.0191 0.0645,-0.0293 0.003,-0.002 0.008,-0.004 0.0117,-0.006 0.13115,-0.0639 0.26081,-0.1308 0.38867,-0.19921 0.008,-0.003 0.01,-0.005 0.0176,-0.008 0.11036,-0.059 0.21927,-0.12093 0.32812,-0.18359 0.002,-10e-4 0.004,-0.003 0.008,-0.004 0.10886,-0.0627 0.21607,-0.12526 0.32227,-0.1914 0.004,-0.003 0.0118,-0.008 0.0156,-0.0117 0.10885,-0.0678 0.21688,-0.13755 0.32421,-0.20899 0.0151,-0.009 0.0301,-0.0179 0.043,-0.0273 0.004,-0.003 0.008,-0.005 0.0117,-0.008 0.0189,-0.0121 0.0342,-0.025 0.0527,-0.0371 0.0801,-0.0552 0.15929,-0.11094 0.23828,-0.16797 0.12321,-0.0891 0.24466,-0.1809 0.36523,-0.27539 10e-4,-10e-4 0.003,-0.003 0.004,-0.004 0.0567,-0.0447 0.11361,-0.0911 0.16992,-0.13672 0.0265,-0.023 0.0564,-0.0453 0.084,-0.0684 l 0.002,-0.002 c 0.13077,-0.10862 0.26119,-0.21871 0.38867,-0.33398 0.0726,-0.0657 0.14417,-0.13337 0.21484,-0.20118 0.008,-0.006 0.01,-0.0131 0.0176,-0.0195 0.11868,-0.11319 0.23591,-0.22837 0.35156,-0.34765 0.004,-0.004 0.008,-0.006 0.0117,-0.01 0.0718,-0.0745 0.14064,-0.15217 0.21094,-0.22851 0.004,-0.005 0.008,-0.009 0.0156,-0.0137 0.11036,-0.12007 0.21921,-0.24136 0.32617,-0.36718 0.001,-10e-4 0.003,-0.003 0.004,-0.004 0.0828,-0.0973 0.16402,-0.19683 0.24414,-0.29687 0.0949,-0.11853 0.19099,-0.23598 0.28321,-0.35938 0.11036,-0.14729 0.21524,-0.30021 0.32031,-0.45312 0.004,-0.006 0.008,-0.0127 0.0156,-0.0195 0.0522,-0.0761 0.10681,-0.14866 0.15821,-0.22656 l 0.002,-0.002 c 7.9e-4,-0.001 0.001,-0.003 0.002,-0.004 0.16555,-0.24873 0.32317,-0.50528 0.47461,-0.76758 l 0.002,-0.002 25.45507,-44.08789 40.90235,-70.8418 h -0.004 l 2.85352,-4.9414 0.002,-0.002 4.86719,-8.43359 0.002,-0.002 c 0.004,-0.009 0.006,-0.0186 0.0137,-0.0273 0.26608,-0.46306 0.49595,-0.92557 0.70118,-1.38867 0.0189,-0.0444 0.0416,-0.0883 0.0605,-0.13281 0.20032,-0.46461 0.36661,-0.92934 0.50781,-1.39258 0.0189,-0.0632 0.0405,-0.12603 0.0586,-0.18945 0.13682,-0.47498 0.24163,-0.94797 0.31836,-1.41992 0.008,-0.0553 0.0198,-0.11061 0.0273,-0.16602 0.0722,-0.4862 0.11366,-0.96985 0.125,-1.45117 0.001,-0.0599 0.003,-0.11971 0.004,-0.17969 3.8e-4,-0.0491 -0.008,-0.0974 -0.008,-0.14648 z"
     transform="matrix(0.24567925,0,0,0.24567925,10.11308,12)" /><path
     id="path16367"
     style="fill:url(#linearGradient41009);fill-opacity:1;stroke:none;stroke-width:0.170493"
     d="m 49.58479,27.309602 v 0.0015 h -2.39345 c -1.26375,0 -2.18292,0.61294 -2.74326,1.583481 l -1.19673,2.071959 -5.05705,8.75904 -10.04885,17.40436 h 9.2e-4 l -1.8973,3.286439 -4.8e-4,4.82e-4 c -0.009,0.01566 -0.0167,0.03174 -0.0254,0.04751 -0.0395,0.0706 -0.0758,0.141002 -0.1094,0.211609 -0.006,0.01086 -0.01,0.02176 -0.0149,0.03263 -0.0152,0.03206 -0.0306,0.06396 -0.0447,0.09645 -6.9e-4,0.0016 -9.3e-4,0.0032 -0.002,0.0048 -0.01,0.0235 -0.0189,0.04704 -0.0283,0.07053 -0.004,0.0097 -0.007,0.01957 -0.0115,0.02927 -0.0115,0.02934 -0.0226,0.05876 -0.0332,0.08829 -6e-5,1.45e-4 4e-5,3.37e-4 0,4.79e-4 -0.012,0.03363 -0.0229,0.06717 -0.0336,0.100769 -0.002,0.0048 -0.004,0.0096 -0.005,0.01439 -0.008,0.02702 -0.0166,0.05446 -0.025,0.08157 -4.6e-4,0.0016 -9.3e-4,0.0032 -0.002,0.0048 -0.009,0.03217 -0.017,0.06432 -0.025,0.09645 -9.3e-4,0.0054 -0.003,0.01088 -0.005,0.01631 -0.007,0.02563 -0.0126,0.05077 -0.0182,0.07677 -9.2e-4,0.0058 -0.002,0.0115 -0.004,0.01727 -0.006,0.03204 -0.0122,0.06399 -0.0177,0.09597 -6.3e-4,0.0035 -9.2e-4,0.0071 -0.002,0.01056 -0.005,0.02702 -0.009,0.05398 -0.013,0.08109 -2.5e-4,0.0018 -2.3e-4,0.0035 -4.9e-4,0.0053 -0.004,0.02902 -0.007,0.0579 -0.011,0.08686 -7.1e-4,0.0065 -0.002,0.01314 -0.003,0.01968 -0.004,0.02999 -0.006,0.05994 -0.008,0.09021 -9.3e-4,0.01234 -9.3e-4,0.02462 -0.002,0.03695 -5.2e-4,0.0091 -9.3e-4,0.01824 -0.002,0.02736 -6.6e-4,0.01424 -0.002,0.02844 -0.002,0.0427 -9.3e-4,0.03279 -0.002,0.06597 -0.002,0.09885 0,0.01477 3.8e-4,0.02939 4.9e-4,0.04414 1.1e-4,0.01605 10e-6,0.03198 4.8e-4,0.04799 0.002,0.03827 0.004,0.07672 0.006,0.115162 8e-4,0.01208 0.003,0.02397 0.004,0.03599 3e-5,3.17e-4 -2e-5,6.41e-4 0,9.29e-4 0.002,0.01539 0.003,0.03071 0.005,0.04606 0.004,0.03881 0.009,0.07808 0.0144,0.117084 0.002,0.01142 0.004,0.02269 0.006,0.03407 0.002,0.0149 0.004,0.02978 0.006,0.04463 0.007,0.04158 0.0147,0.08316 0.024,0.124758 0.005,0.02349 0.0108,0.04742 0.0163,0.07054 0.0102,0.04243 0.021,0.08502 0.0332,0.127639 0.007,0.02442 0.0151,0.0487 0.0226,0.07294 0.0125,0.03976 0.025,0.07926 0.0394,0.119 0.0115,0.03224 0.0243,0.06423 0.0365,0.09645 0.0123,0.03149 0.024,0.06314 0.0379,0.09453 0.0178,0.04285 0.038,0.085 0.058,0.127159 0.011,0.02266 0.0211,0.04568 0.0321,0.06862 0.0327,0.06576 0.0673,0.130374 0.1046,0.194816 l 13.27724,22.996442 3.72598,6.453878 0.002,-9.28e-4 1.19624,2.07196 v 4.83e-4 c 0.0152,0.02637 0.0321,0.05098 0.048,0.07679 0.0332,0.05432 0.0669,0.107638 0.10172,0.158829 0.003,0.0037 0.005,0.0074 0.007,0.01059 0.0269,0.03918 0.0543,0.07828 0.0825,0.116125 0.0174,0.02312 0.0351,0.04522 0.0527,0.06769 0.006,0.0065 0.0109,0.01384 0.0163,0.02061 0.0197,0.02461 0.0397,0.04903 0.06,0.07298 0.0239,0.02804 0.0485,0.05469 0.073,0.08153 0.003,0.0028 0.006,0.0065 0.008,0.0096 0.0191,0.02089 0.0389,0.04123 0.058,0.06193 0.0262,0.02693 0.0528,0.05302 0.0797,0.07865 0.002,0.0019 0.005,0.0046 0.006,0.0065 0.0191,0.0182 0.038,0.03649 0.0576,0.05423 0.004,0.0028 0.007,0.0065 0.0106,0.0093 0.0246,0.02201 0.0498,0.04327 0.0748,0.06426 0.004,0.0028 0.006,0.0056 0.0101,0.0084 0.0211,0.01755 0.0422,0.03501 0.0638,0.05181 0.002,0.0019 0.004,0.0028 0.006,0.0046 0.024,0.01866 0.0481,0.03686 0.0724,0.05469 0.004,0.0028 0.007,0.0056 0.0115,0.0084 0.0241,0.0182 0.0491,0.03556 0.0744,0.05228 0.005,0.0028 0.009,0.0056 0.0135,0.0084 0.0187,0.01244 0.0372,0.02498 0.0562,0.03696 0.006,0.0046 0.0134,0.0084 0.0201,0.01291 0.0278,0.01746 0.056,0.03445 0.0844,0.05088 0.007,0.0046 0.0157,0.0093 0.0235,0.01346 0.008,0.0046 0.0169,0.0097 0.0254,0.01439 0.0105,0.0056 0.0211,0.01207 0.0317,0.01774 0.0341,0.01755 0.068,0.03501 0.10269,0.05181 0.009,0.0046 0.0179,0.0084 0.0268,0.01244 0.006,0.0028 0.0106,0.0046 0.0158,0.0074 0.0111,0.0046 0.022,0.0104 0.0332,0.01532 0.0356,0.01606 0.0719,0.03139 0.10845,0.04606 0.006,0.0028 0.0131,0.0046 0.0197,0.0074 0.008,0.0037 0.0173,0.0065 0.0259,0.01012 0.01,0.0037 0.0192,0.0074 0.0288,0.01105 0.0395,0.01467 0.0793,0.02906 0.11995,0.04179 0.007,0.0028 0.016,0.0046 0.024,0.0074 0.002,6.04e-4 0.004,9.29e-4 0.006,0.0019 0.0132,0.0037 0.0263,0.0084 0.0394,0.01198 0.0419,0.01235 0.0841,0.02424 0.12717,0.03501 0.007,0.0019 0.0144,0.0028 0.0216,0.0046 9.3e-4,2.41e-4 0.002,7.24e-4 0.003,9.28e-4 0.0166,0.0037 0.0333,0.0074 0.0499,0.01105 0.0407,0.0093 0.0813,0.01848 0.12284,0.02591 0.0337,0.0065 0.0678,0.01077 0.10172,0.01634 0.0334,0.0046 0.0667,0.01068 0.10077,0.01439 0.006,8.17e-4 0.0125,9.28e-4 0.0187,0.0019 0.004,3.9e-4 0.007,5.85e-4 0.0101,9.28e-4 0.0367,0.0037 0.0734,0.0074 0.11036,0.01059 0.0252,0.0019 0.0499,0.0046 0.0753,0.0065 0.0733,0.0046 0.14674,0.0065 0.22121,0.0065 h 26.55447 7.45195 v -4.74e-4 h 2.39297 c 0.0388,0 0.0771,-0.0028 0.11564,-0.0037 0.0355,-9.29e-4 0.0712,-9.29e-4 0.10653,-0.0037 0.0233,-9.29e-4 0.0466,-0.0037 0.0695,-0.0056 0,0 4.8e-4,0 4.8e-4,0 0.002,-1.48e-4 0.004,-3.43e-4 0.006,-4.82e-4 0.0454,-0.0037 0.0909,-0.0074 0.13579,-0.01291 9.3e-4,-1.4e-4 0.002,-3.44e-4 0.004,-4.83e-4 0.0341,-0.0037 0.0672,-0.0094 0.10076,-0.01439 0.003,-3.62e-4 0.005,-5.94e-4 0.007,-9.28e-4 0.0311,-0.0046 0.0622,-0.0097 0.0931,-0.01532 4.7e-4,-8.4e-5 9.3e-4,8.3e-5 0.002,0 0.0162,-0.0028 0.0319,-0.0065 0.048,-0.01012 0.0234,-0.0046 0.0469,-0.0093 0.0701,-0.01439 0.002,-3.62e-4 0.003,-9.29e-4 0.005,-9.29e-4 0.0248,-0.0056 0.0498,-0.01068 0.0744,-0.01681 0.0407,-0.01022 0.0807,-0.02145 0.12044,-0.03315 0.002,-6.5e-4 0.005,-9.28e-4 0.006,-0.0019 0.0231,-0.0065 0.0462,-0.01374 0.0691,-0.02108 0.0406,-0.01309 0.0804,-0.02711 0.11996,-0.04179 0.0249,-0.0093 0.0498,-0.01894 0.0744,-0.02878 4.7e-4,-1.86e-4 9.3e-4,-2.88e-4 9.3e-4,-4.73e-4 0.0349,-0.01402 0.0695,-0.02841 0.10365,-0.04364 9.3e-4,-5.3e-4 0.002,-0.0019 0.004,-0.0019 0.0202,-0.0093 0.04,-0.01839 0.06,-0.02786 0.006,-0.0028 0.0106,-0.0046 0.0158,-0.0074 7.7e-4,-3.81e-4 0.002,-9.29e-4 0.003,-0.0019 0.0322,-0.01569 0.0641,-0.03213 0.0955,-0.04893 0.002,-7.43e-4 0.003,-9.29e-4 0.005,-0.0019 0.0271,-0.01449 0.0539,-0.02971 0.0806,-0.04513 5e-4,-2.88e-4 9.2e-4,-6.78e-4 0.002,-9.28e-4 0.0267,-0.01541 0.0531,-0.03073 0.0792,-0.04698 9.3e-4,-8.45e-4 0.003,-0.0019 0.004,-0.0028 0.0267,-0.01662 0.0533,-0.0338 0.0797,-0.05135 0.004,-0.0019 0.007,-0.0046 0.0106,-0.0065 9.3e-4,-6.5e-4 0.002,-9.28e-4 0.003,-0.0019 0.005,-0.0028 0.008,-0.0065 0.0129,-0.0093 0.0197,-0.01356 0.0392,-0.02721 0.0586,-0.04123 0.0303,-0.02191 0.0601,-0.04448 0.0897,-0.06769 3.5e-4,-2.79e-4 6e-4,-6.87e-4 9.3e-4,-9.29e-4 0.0139,-0.01096 0.028,-0.02238 0.0418,-0.03361 0.007,-0.0056 0.0138,-0.01114 0.0206,-0.01681 0,0 4.8e-4,-4.83e-4 4.8e-4,-4.83e-4 0.0321,-0.02665 0.0642,-0.05376 0.0955,-0.08208 0.0178,-0.01616 0.0354,-0.03278 0.0527,-0.0494 0.002,-0.0019 0.003,-0.0028 0.005,-0.0046 0.0292,-0.02776 0.0579,-0.05608 0.0864,-0.08543 8.8e-4,-9.01e-4 0.002,-0.0019 0.003,-0.0028 0.0176,-0.01829 0.0345,-0.03742 0.0518,-0.05618 9.3e-4,-9.29e-4 0.002,-0.0019 0.004,-0.0037 0.0271,-0.02953 0.0538,-0.05933 0.0801,-0.09016 3e-4,-3.44e-4 6.8e-4,-6.22e-4 9.3e-4,-9.29e-4 0.0203,-0.02386 0.0403,-0.04838 0.06,-0.07289 0.0233,-0.02916 0.0469,-0.05794 0.0695,-0.08831 0.0271,-0.03621 0.0528,-0.07373 0.0786,-0.111324 9.3e-4,-0.0019 0.002,-0.0028 0.004,-0.0046 0.0128,-0.01876 0.0263,-0.03649 0.0389,-0.05571 0,0 4.8e-4,-4.83e-4 4.8e-4,-4.83e-4 2e-4,-2.97e-4 2.9e-4,-6.59e-4 4.9e-4,-9.28e-4 0.0407,-0.0611 0.0794,-0.124129 0.11659,-0.188571 l 4.9e-4,-4.82e-4 6.25378,-10.831479 10.04886,-17.404362 h -9.3e-4 l 0.70106,-1.214002 4.7e-4,-4.79e-4 1.19577,-2.071961 c 0,0 4.9e-4,-4.79e-4 4.9e-4,-4.79e-4 9.2e-4,-0.0022 0.002,-0.0046 0.004,-0.0067 0.0654,-0.113765 0.12184,-0.227396 0.17227,-0.34117 0.005,-0.0109 0.0102,-0.02169 0.0148,-0.03263 0.0492,-0.114145 0.0901,-0.228319 0.12476,-0.342127 0.005,-0.01553 0.01,-0.03096 0.0144,-0.04654 0.0336,-0.116693 0.0593,-0.232895 0.0782,-0.348845 0.002,-0.01358 0.005,-0.02718 0.006,-0.04079 0.0177,-0.119449 0.028,-0.238272 0.0307,-0.356522 3.6e-4,-0.01472 8.3e-4,-0.02941 9.3e-4,-0.04414 9.3e-4,-0.117948 -0.006,-0.235392 -0.0192,-0.351724 -0.002,-0.01825 -0.005,-0.03643 -0.006,-0.0547 -0.016,-0.119149 -0.0392,-0.237144 -0.0696,-0.354124 -0.004,-0.01586 -0.008,-0.03163 -0.0124,-0.04751 -0.0343,-0.123683 -0.0766,-0.245886 -0.1262,-0.366601 -0.005,-0.01155 -0.009,-0.02299 -0.0139,-0.03455 -0.0571,-0.134797 -0.12242,-0.267894 -0.19769,-0.398271 l -4.8e-4,-4.79e-4 -1.19577,-2.071957 -0.70105,-1.214482 h 4.8e-4 L 92.5913,39.724984 86.33751,28.893505 c -0.0376,-0.06514 -0.0775,-0.12827 -0.11852,-0.190019 -0.0123,-0.01941 -0.0255,-0.03738 -0.0384,-0.05614 -0.0269,-0.03917 -0.0538,-0.07833 -0.0821,-0.116123 -0.0226,-0.03036 -0.0463,-0.05914 -0.0695,-0.08829 -0.0197,-0.02461 -0.0397,-0.04898 -0.06,-0.07294 -0.0266,-0.03129 -0.0533,-0.06164 -0.0811,-0.09117 -0.0191,-0.02089 -0.0388,-0.04147 -0.058,-0.0619 -0.0284,-0.02934 -0.0573,-0.05765 -0.0864,-0.08541 -0.019,-0.0182 -0.0379,-0.03676 -0.0576,-0.05423 -0.0314,-0.02832 -0.0634,-0.05541 -0.0955,-0.08206 -0.0211,-0.01755 -0.0423,-0.03492 -0.0638,-0.05182 -0.0296,-0.02321 -0.0595,-0.04574 -0.0897,-0.06765 -0.0245,-0.01774 -0.0492,-0.03531 -0.0744,-0.05231 -0.0297,-0.02006 -0.0599,-0.03921 -0.0902,-0.05806 -0.0279,-0.01746 -0.056,-0.03443 -0.0845,-0.05087 -0.0267,-0.01541 -0.0535,-0.03062 -0.0806,-0.0451 -0.0338,-0.01801 -0.068,-0.0355 -0.10269,-0.05231 -0.0252,-0.01207 -0.0504,-0.0236 -0.0758,-0.03503 -0.0357,-0.01606 -0.0719,-0.03139 -0.10845,-0.04607 -0.0247,-0.0098 -0.0495,-0.0195 -0.0744,-0.02879 -0.0396,-0.01467 -0.0794,-0.02866 -0.11996,-0.04175 -0.0229,-0.0073 -0.046,-0.01461 -0.0691,-0.02112 -0.0419,-0.01235 -0.0841,-0.02425 -0.12715,-0.03502 -0.0247,-0.0061 -0.0495,-0.01123 -0.0744,-0.0168 -0.0407,-0.0091 -0.0813,-0.01849 -0.12284,-0.02592 -0.0337,-0.0062 -0.0677,-0.01074 -0.10173,-0.01631 -0.0334,-0.005 -0.0667,-0.01068 -0.10077,-0.01439 -0.046,-0.006 -0.0927,-0.0097 -0.13915,-0.01344 -0.0252,-0.0019 -0.0499,-0.0044 -0.0753,-0.0062 -0.0733,-0.0046 -0.14681,-0.0067 -0.22121,-0.0067 H 57.03976 Z" /><path
     id="path6"
     style="mix-blend-mode:normal;fill:#1f0774;fill-opacity:1;stroke:none;stroke-width:0.693967;filter:url(#filter56934)"
     d="m 376.125,202.80078 -11.83984,41.88281 h 4.35351 c 6.07646,0 8.58166,-3.06959 11.29883,-7.21875 l 11.89453,-20.60546 c 2.83476,-4.90993 3.83459,-7.90022 3.8457,-14.0586 z"
     transform="matrix(0.24567925,0,0,0.24567925,10.11308,12)" /><path
     id="path16393"
     style="mix-blend-mode:normal;fill:#1f0774;fill-opacity:1;stroke:none;stroke-width:0.693967;filter:url(#filter17243)"
     d="m 53.986328,203.4668 c -0.1321,5.81462 2.92644,11.53577 9.207031,22.41406 l 12.398438,21.47266 54.519533,94.43359 c 0.70322,1.21805 7.60223,13.01367 21.86133,13.01367 6.40221,0 8.6875,-3.708 8.6875,-7.40234 v -88.0625 -8.25 -47.61914 z"
     transform="matrix(0.24567925,0,0,0.24567925,10.11308,12)" /><path
     id="path55280"
     style="fill:#1f0774;fill-opacity:1;stroke:none;stroke-width:0.693967;filter:url(#filter59166)"
     d="m 335.70898,93.171875 v 19.677735 0.0703 h 3.23243 c 3.33915,0 6.91873,-2.16554 2.73828,-9.40625 z"
     transform="matrix(0.24567925,0,0,0.24567925,10.11308,12)" /><path
     id="path15001"
     style="fill:#1f0774;fill-opacity:1;stroke:none;stroke-width:0.693967;filter:url(#filter84277)"
     d="m 190.99805,62.3125 -30.33203,0.002 v 0.0059 h -9.74219 c -5.14393,0 -8.88524,2.494873 -11.16602,6.445313 l -4.87109,8.433594 -20.58399,35.652343 -40.902339,70.8418 h 0.0039 l -7.722656,13.37695 -0.002,0.002 c -0.0368,0.0638 -0.06791,0.12916 -0.103516,0.19335 -0.16048,0.28735 -0.308293,0.57394 -0.445313,0.86133 -0.0211,0.0442 -0.04005,0.0886 -0.06055,0.13282 -0.0618,0.13049 -0.12484,0.26031 -0.18164,0.39257 -0.003,0.007 -0.0048,0.013 -0.0078,0.0195 -0.0408,0.0957 -0.077,0.19145 -0.115234,0.2871 -0.0154,0.0395 -0.03137,0.0797 -0.04687,0.11914 -0.0469,0.11944 -0.0917,0.23919 -0.134766,0.35938 0,0 0,0.002 0,0.002 -0.0488,0.13691 -0.093,0.2734 -0.136718,0.41016 -0.006,0.0196 -0.01363,0.0389 -0.01953,0.0586 -0.0348,0.10998 -0.0676,0.22166 -0.101562,0.33203 -0.002,0.007 -0.0039,0.0129 -0.0059,0.0195 -0.037,0.13097 -0.0691,0.26178 -0.101562,0.39257 -0.005,0.0221 -0.01218,0.0443 -0.01758,0.0664 -0.0253,0.10432 -0.05152,0.20668 -0.07422,0.3125 -0.005,0.0235 -0.009,0.0468 -0.01367,0.0703 -0.0272,0.13044 -0.04957,0.26045 -0.07227,0.39063 -0.003,0.0143 -0.0048,0.0287 -0.0078,0.043 -0.0189,0.10998 -0.03763,0.2197 -0.05273,0.33007 -10e-4,0.007 -8.83e-4,0.0144 -0.002,0.0215 -0.0165,0.1181 -0.03202,0.23567 -0.04492,0.35351 -0.003,0.0266 -0.0068,0.0535 -0.0098,0.0801 -0.0151,0.12208 -0.02766,0.24398 -0.03516,0.36719 -0.004,0.0502 -0.0048,0.10021 -0.0078,0.15039 -0.002,0.0371 -0.0058,0.0742 -0.0078,0.11133 -0.003,0.058 -0.0058,0.11577 -0.0078,0.17383 -0.005,0.13345 -0.0078,0.26855 -0.0078,0.40234 0,0.0601 0.002,0.11961 0.002,0.17969 4.5e-4,0.0653 3e-6,0.13016 0.002,0.19531 0.008,0.15576 0.01399,0.31228 0.02539,0.46875 0.003,0.0492 0.009,0.0976 0.01367,0.14648 1.1e-4,0.001 -1.1e-4,0.003 0,0.004 0.006,0.0626 0.01128,0.125 0.01758,0.1875 0.0155,0.15799 0.03589,0.31782 0.05859,0.47656 0.007,0.0465 0.01449,0.0923 0.02148,0.13868 0.009,0.0607 0.01664,0.12122 0.02734,0.18164 0.0287,0.16925 0.05986,0.33849 0.09766,0.50781 0.0208,0.0956 0.04371,0.193 0.06641,0.28711 0.0416,0.17272 0.0853,0.34605 0.134766,0.51953 0.0287,0.0994 0.0616,0.19822 0.0918,0.29687 0.03063,0.098 0.06515,0.19533 0.09766,0.29297 L 308.61328,66.476562 c -0.0643,-0.07306 -0.12695,-0.148096 -0.19336,-0.21875 -0.0779,-0.085 -0.15786,-0.168803 -0.23633,-0.251953 -0.11573,-0.11943 -0.23307,-0.234646 -0.35156,-0.347656 -0.0777,-0.0741 -0.15413,-0.149643 -0.23437,-0.220703 -0.12762,-0.11527 -0.25802,-0.225514 -0.38868,-0.333984 -0.0857,-0.0714 -0.17211,-0.142148 -0.25976,-0.210938 -0.12042,-0.0945 -0.24225,-0.18619 -0.36524,-0.27539 -0.0998,-0.0722 -0.20038,-0.143721 -0.30273,-0.212891 -0.12091,-0.0816 -0.24394,-0.159598 -0.36719,-0.236328 -0.11331,-0.0711 -0.2279,-0.140131 -0.34375,-0.207031 -0.10866,-0.0627 -0.21772,-0.124634 -0.32812,-0.183594 -0.13754,-0.0733 -0.27681,-0.144481 -0.41797,-0.212891 -0.10258,-0.0491 -0.20538,-0.0961 -0.3086,-0.142578 -0.14513,-0.0654 -0.2926,-0.12778 -0.4414,-0.1875 -0.10042,-0.0401 -0.20156,-0.0794 -0.30274,-0.117187 -0.16102,-0.0597 -0.32319,-0.116632 -0.48828,-0.169922 -0.0932,-0.0299 -0.18698,-0.05954 -0.28125,-0.08594 -0.17052,-0.0503 -0.34258,-0.09871 -0.51757,-0.142578 -0.10043,-0.0249 -0.20149,-0.04566 -0.30274,-0.06836 -0.16551,-0.037 -0.33064,-0.0752 -0.5,-0.105469 -0.13727,-0.0253 -0.27569,-0.04371 -0.41406,-0.06641 -0.13617,-0.0204 -0.27137,-0.04349 -0.41016,-0.05859 -0.18717,-0.0246 -0.37701,-0.03959 -0.5664,-0.05469 -0.10262,-0.008 -0.20324,-0.01779 -0.30664,-0.02539 -0.29813,-0.0189 -0.59754,-0.02734 -0.9004,-0.02734 z"
     transform="matrix(0.24567925,0,0,0.24567925,10.11308,12)" /><path
     id="path78321"
     style="fill:url(#linearGradient86330);fill-opacity:1;stroke:none;stroke-width:0.170493"
     d="m 48.65434,24.856603 c -3.03906,-0.0312 -4.91106,0.450029 -6.77525,3.678903 L 36.74328,37.43127 25.63855,56.664898 c -3.01461,5.22148 -3.02484,5.589952 0,10.829141 l 3.04561,5.275716 13.39475,23.200108 c 0.17277,0.299249 1.8677,3.197144 5.37087,3.197144 1.57288,0 2.13425,-0.91086 2.13425,-1.818482 V 75.713509 73.686744 c 0,-1.193354 0.54488,-1.560155 1.84174,-1.560155 v -0.01302 l 49.2541,3.47e-4 c 1.49286,0 2.1081,-0.754013 2.77565,-1.773375 l 2.92262,-5.062502 c 0.69644,-1.206265 0.94211,-1.941072 0.94484,-3.454058 0.008,-4.01105 -2.66842,-4.677664 -3.4812,-4.677664 H 51.42577 c -1.29686,0 -1.84174,-0.366802 -1.84174,-1.560155 V 53.559388 43.329009 41.302244 c 0,-1.193361 0.54488,-1.560162 1.84174,-1.560162 h 41.95832 c 0.82036,0 1.69982,-0.531914 0.67277,-2.310812 l -5.1358,-8.895764 c -1.98847,-3.444134 -3.9863,-3.762201 -7.3994,-3.66657 H 49.27813 c -0.21332,-0.0063 -0.42118,-0.01024 -0.62379,-0.01233 z" /></svg>
