<?xml version="1.0" encoding="UTF-8" standalone="no"?>
<svg
   height="128px"
   viewBox="0 0 128 128"
   width="128px"
   version="1.1"
   id="svg286"
   xml:space="preserve"
   xmlns="http://www.w3.org/2000/svg"
   xmlns:svg="http://www.w3.org/2000/svg"><defs
     id="defs290" /><linearGradient
     id="a"
     gradientUnits="userSpaceOnUse"
     x1="11.999989"
     x2="115.999989"
     y1="64"
     y2="64"><stop
       offset="0"
       stop-color="#3d3846"
       id="stop252"
       style="stop-color:#42413e;stop-opacity:1;" /><stop
       offset="0.05"
       stop-color="#77767b"
       id="stop254"
       style="stop-color:#7c7a74;stop-opacity:1;" /><stop
       offset="0.1"
       stop-color="#5e5c64"
       id="stop256"
       style="stop-color:#64625e;stop-opacity:1;" /><stop
       offset="0.89999902"
       stop-color="#504e56"
       id="stop258"
       style="stop-color:#54534f;stop-opacity:1;" /><stop
       offset="0.94999999"
       stop-color="#77767b"
       id="stop260"
       style="stop-color:#7c7a74;stop-opacity:1;" /><stop
       offset="1"
       stop-color="#3d3846"
       id="stop262"
       style="stop-color:#42413e;stop-opacity:1;" /></linearGradient><linearGradient
     id="b"
     gradientUnits="userSpaceOnUse"
     x1="12"
     x2="112.041023"
     y1="60"
     y2="80.988281"><stop
       offset="0"
       stop-color="#77767b"
       id="stop265"
       style="stop-color:#77756f;stop-opacity:1;" /><stop
       offset="0.38444301"
       stop-color="#9a9996"
       id="stop267"
       style="stop-color:#c0bfbc;stop-opacity:1;" /><stop
       offset="0.72056699"
       stop-color="#77767b"
       id="stop269"
       style="stop-color:#76756f;stop-opacity:1;" /><stop
       offset="1"
       stop-color="#68666f"
       id="stop271"
       style="stop-color:#a8a7a3;stop-opacity:1;" /></linearGradient><path
     d="m 20 22 h 88 c 4.417969 0 8 3.582031 8 8 v 78 c 0 4.417969 -3.582031 8 -8 8 h -88 c -4.417969 0 -8 -3.582031 -8 -8 v -78 c 0 -4.417969 3.582031 -8 8 -8 z m 0 0"
     fill="url(#a)"
     id="path274" /><path
     d="m 20 12 h 88 c 4.417969 0 8 3.582031 8 8 v 80 c 0 4.417969 -3.582031 8 -8 8 h -88 c -4.417969 0 -8 -3.582031 -8 -8 v -80 c 0 -4.417969 3.582031 -8 8 -8 z m 0 0"
     fill="url(#b)"
     id="path276" /><path
     d="m 20 14 h 88 c 3.3125 0 6 2.6875 6 6 v 80 c 0 3.3125 -2.6875 6 -6 6 h -88 c -3.3125 0 -6 -2.6875 -6 -6 v -80 c 0 -3.3125 2.6875 -6 6 -6 z m 0 0"
     fill="#241f31"
     id="path278"
     style="fill:#282828;fill-opacity:1" /><g
     transform="matrix(0.86538385,0,0,0.86538385,2.8461,-148.01908)"
     id="foot"><path
       style="fill:#fbf1c7"
       id="main"
       d="m 37.0057,207.12866 c -0.9539,-0.24232 -1.8766,-0.41748 -2.7117,-0.49721 -4.1121,-0.39258 -5.433,-0.0326 -7.5067,2.04908 -2.8434,2.85385 -2.2667,6.90676 1.4644,10.38038 8.0896,7.53109 8.2202,12.581 0.4808,18.2752 -3.1863,2.34409 -5.492,7.85321 -4.4994,10.73911 1.2501,3.63469 6.0098,5.02447 10.1635,2.97341 3.8964,-1.92373 8.3104,-8.49971 11.3208,-16.36234 0.2509,-0.65526 0.4966,-1.31942 0.7268,-1.9912 0.6909,-2.01525 1.2796,-4.09527 1.7466,-6.17933 1.4109,-6.29466 1.0666,-11.19321 -0.9956,-14.13789 -1.287,-1.83788 -6.056,-4.19923 -10.1892,-5.24924 z" /><g
       transform="translate(-1890.6933,-335.56903)"
       id="toes"
       style="fill:#fbf1c7"><ellipse
         id="toe3"
         style="fill:#fbf1c7"
         cx="1934.6934"
         cy="540.29291"
         rx="2"
         ry="2.2761035" /><ellipse
         id="toe4"
         style="fill:#fbf1c7"
         cx="1939.0691"
         cy="543.35553"
         rx="1.6242591"
         ry="1.7864922" /><ellipse
         id="toe5"
         style="fill:#fbf1c7"
         cx="1941.3607"
         cy="547.06903"
         rx="1.33263"
         ry="1.5" /><ellipse
         id="toe1"
         style="fill:#fbf1c7"
         cx="1921.8835"
         cy="536.06903"
         rx="3.8097539"
         ry="4.5" /><ellipse
         id="toe2"
         style="fill:#fbf1c7"
         cx="1929.1934"
         cy="537.56903"
         rx="2.5"
         ry="3" /></g></g><rect
     id="cursor"
     y="64"
     x="47.846165"
     height="4.0384617"
     width="22.211538"
     style="fill:#fbf1c7;stroke-width:1.00962" /></svg>
