<?xml version="1.0" encoding="UTF-8" standalone="no"?>
<!-- Created with Inkscape (http://www.inkscape.org/) -->

<svg
   version="1.0"
   width="128"
   height="128"
   id="svg4292"
   xml:space="preserve"
   xmlns:xlink="http://www.w3.org/1999/xlink"
   xmlns="http://www.w3.org/2000/svg"
   xmlns:svg="http://www.w3.org/2000/svg"><defs
     id="defs4294"><linearGradient
       id="linearGradient1571"><stop
         style="stop-color:#b2b2b2;stop-opacity:1;"
         offset="0"
         id="stop1567" /><stop
         style="stop-color:#e5e5e5;stop-opacity:1;"
         offset="0.03567462"
         id="stop1575" /><stop
         style="stop-color:#b2b2b2;stop-opacity:1;"
         offset="0.07302466"
         id="stop1577" /><stop
         style="stop-color:#b2b2b2;stop-opacity:1;"
         offset="0.92681795"
         id="stop1579" /><stop
         style="stop-color:#e5e5e5;stop-opacity:1;"
         offset="0.96064132"
         id="stop1581" /><stop
         style="stop-color:#b2b2b2;stop-opacity:1;"
         offset="1"
         id="stop1569" /></linearGradient><linearGradient
       xlink:href="#linearGradient1571"
       id="linearGradient1573"
       x1="12"
       y1="66"
       x2="116"
       y2="66"
       gradientUnits="userSpaceOnUse" /></defs><rect
     style="display:inline;fill:url(#linearGradient1573);fill-opacity:1;stroke:none;stroke-width:0.25;stroke-linecap:butt;stroke-linejoin:miter;stroke-miterlimit:4;stroke-dasharray:none;stroke-dashoffset:0;stroke-opacity:1;marker:none;marker-start:none;marker-mid:none;marker-end:none;paint-order:normal;enable-background:new"
     id="rect1711-5"
     width="104"
     height="100"
     x="12"
     y="16"
     rx="8"
     ry="8" /><rect
     style="display:inline;fill:#ffffff;fill-opacity:1;stroke:none;stroke-width:0.25;stroke-linecap:butt;stroke-linejoin:miter;stroke-miterlimit:4;stroke-dasharray:none;stroke-dashoffset:0;stroke-opacity:1;marker:none;marker-start:none;marker-mid:none;marker-end:none;paint-order:normal;enable-background:new"
     id="rect1711"
     width="104"
     height="100"
     x="12"
     y="12"
     rx="8"
     ry="8" /><path
     d="m 19.0576,66.067404 v -5.210495 h 5.89062 6.14065 v 1.655805 1.714634 h -4.21096 -3.73215 v 3.363496 3.863533 H 20.98729 19.0576 Z m 0,-12.28906 v -1.523442 h 6.29687 6.55687 v 1.523442 1.78342 H 25.35447 19.0576 Z"
     style="fill:#2490ef;fill-opacity:1"
     id="path1-9" /><path
     d="m 37.63115,71.452417 v -2.993376 h 5.386209 q 1.703667,0 2.60792,-0.691802 0.904254,-0.705106 0.904254,-2.035495 v -0.02661 q 0,-0.878057 -0.419364,-1.476732 -0.419364,-0.611979 -1.244987,-0.917968 -0.812518,-0.30599 -2.01819,-0.30599 H 37.63115 v -2.727297 h 4.744058 q 1.677456,0 2.542394,-0.678499 0.878044,-0.691802 0.878044,-1.929064 v -0.02661 q 0,-1.144134 -0.773203,-1.769417 Q 44.249241,55.23497 42.860098,55.23497 H 37.63115 v -2.980072 h 6.251147 q 1.795403,0 3.09281,0.585372 1.297408,0.58537 2.005085,1.67629 0.707677,1.077615 0.707677,2.554347 v 0.02661 q 0,1.051007 -0.48489,1.955672 -0.471785,0.891362 -1.297408,1.490036 -0.825623,0.585371 -1.874033,0.731714 v 0.07982 q 1.323618,0.09313 2.345818,0.718411 1.0222,0.611979 1.598826,1.623074 0.58973,0.997792 0.58973,2.261662 v 0.02661 q 0,1.676291 -0.799413,2.900249 -0.786307,1.223958 -2.254081,1.902456 -1.454669,0.665195 -3.485964,0.665195 z m -1.97887,0 V 52.254902 h 3.95775 v 19.197515 z m 23.187809,0.292685 q -2.136136,0 -3.695646,-0.89136 -1.55951,-0.891361 -2.411344,-2.554348 -0.851833,-1.662985 -0.851833,-3.977863 v -0.02661 q 0,-2.301573 0.864939,-3.951256 0.864938,-1.662985 2.424448,-2.554346 1.55951,-0.89136 3.65633,-0.89136 2.109926,0 3.669436,0.89136 1.572615,0.878056 2.437554,2.541043 0.864938,1.649682 0.864938,3.964559 v 0.02661 q 0,2.328181 -0.864938,3.991168 -0.851834,1.662985 -2.411344,2.554347 -1.55951,0.878056 -3.68254,0.878056 z m 0.0131,-3.046591 q 0.930464,0 1.61193,-0.505548 0.694572,-0.518852 1.061516,-1.490035 0.380048,-0.984488 0.380048,-2.381397 v -0.02661 q 0,-1.383604 -0.380048,-2.354788 -0.380049,-0.971185 -1.074621,-1.476732 -0.694572,-0.518851 -1.625036,-0.518851 -0.917358,0 -1.61193,0.518851 -0.681467,0.505547 -1.061515,1.476732 -0.380049,0.971184 -0.380049,2.354788 v 0.02661 q 0,1.396909 0.366943,2.381397 0.380049,0.971183 1.074621,1.490035 0.694572,0.505548 1.638141,0.505548 z m 15.259209,3.046591 q -2.136136,0 -3.695646,-0.89136 -1.55951,-0.891361 -2.411344,-2.554348 -0.851833,-1.662985 -0.851833,-3.977863 v -0.02661 q 0,-2.301573 0.864939,-3.951256 0.864938,-1.662985 2.424448,-2.554346 1.55951,-0.89136 3.656331,-0.89136 2.109925,0 3.669435,0.89136 1.572615,0.878056 2.437554,2.541043 0.864938,1.649682 0.864938,3.964559 v 0.02661 q 0,2.328181 -0.864938,3.991168 -0.851834,1.662985 -2.411344,2.554347 -1.55951,0.878056 -3.68254,0.878056 z m 0.01311,-3.046591 q 0.930464,0 1.61193,-0.505548 0.694572,-0.518852 1.061516,-1.490035 0.380048,-0.984488 0.380048,-2.381397 v -0.02661 q 0,-1.383604 -0.380048,-2.354788 -0.380049,-0.971185 -1.074621,-1.476732 -0.694571,-0.518851 -1.625035,-0.518851 -0.917359,0 -1.611931,0.518851 -0.681467,0.505547 -1.061515,1.476732 -0.380049,0.971184 -0.380049,2.354788 v 0.02661 q 0,1.396909 0.366943,2.381397 0.380049,0.971183 1.074621,1.490035 0.694572,0.505548 1.638141,0.505548 z m 8.942539,2.753906 V 52.254902 h 3.826697 v 19.197515 z m 8.832856,0 -4.337797,-6.306045 2.424448,-2.953463 6.329777,9.259508 z m -5.477943,-4.20403 v -4.350372 h 0.550415 l 4.744056,-5.70737 h 4.337797 l -6.487038,7.490091 h -0.851833 z m 16.37314,4.496715 q -1.93956,0 -3.302489,-0.572067 -1.362933,-0.572068 -2.136135,-1.583163 -0.760098,-1.0244 -0.917359,-2.368093 l -0.01311,-0.119735 h 3.734963 l 0.0262,0.119735 q 0.18347,0.838145 0.82562,1.303782 0.64215,0.465636 1.7823,0.465636 0.73389,0 1.24498,-0.172951 0.5111,-0.186254 0.78631,-0.518852 0.28832,-0.332597 0.28832,-0.798233 v -0.01331 q 0,-0.572068 -0.40626,-0.917969 -0.40626,-0.345901 -1.44157,-0.585372 l -2.38513,-0.505548 q -1.362933,-0.292685 -2.280292,-0.838145 -0.904254,-0.558763 -1.362933,-1.370301 -0.45868,-0.82484 -0.45868,-1.889152 v -0.0133 q 0,-1.3703 0.720782,-2.368092 0.720782,-0.997792 2.0444,-1.543251 1.336723,-0.558763 3.119023,-0.558763 1.86092,0 3.15833,0.611978 1.31051,0.598675 2.00509,1.623075 0.70767,1.0244 0.74699,2.274966 v 0.133038 h -3.52528 l -0.0131,-0.106431 q -0.0917,-0.771626 -0.70768,-1.277173 -0.60283,-0.518852 -1.66435,-0.518852 -0.65525,0 -1.14014,0.186254 -0.48489,0.186254 -0.747,0.532156 -0.2621,0.332597 -0.2621,0.798233 v 0.0133 q 0,0.359205 0.17037,0.651891 0.18347,0.279381 0.60283,0.492243 0.41937,0.212863 1.12704,0.37251 l 2.38514,0.518852 q 2.21476,0.465635 3.17144,1.396908 0.96978,0.931272 0.96978,2.501131 v 0.01331 q 0,1.396908 -0.78631,2.434612 -0.78631,1.037704 -2.17545,1.623075 -1.37604,0.572067 -3.18455,0.572067 z"
     id="text1"
     style="font-weight:bold;font-size:26.8393px;line-height:1;font-family:'SF Pro';-inkscape-font-specification:'SF Pro Bold';letter-spacing:-0.1px;fill:#505a62;fill-opacity:1;stroke-width:1.01407"
     aria-label="Books" /></svg>
