<?xml version="1.0" encoding="UTF-8" standalone="no"?>
<svg
   width="128"
   height="128"
   version="1"
   id="svg12"
   xml:space="preserve"
   xmlns:xlink="http://www.w3.org/1999/xlink"
   xmlns="http://www.w3.org/2000/svg"
   xmlns:svg="http://www.w3.org/2000/svg"><defs
     id="defs16"><linearGradient
       id="c-2"
       gradientUnits="userSpaceOnUse"
       x1="203.99998"
       x2="268"
       y1="-64"
       y2="-64"
       gradientTransform="matrix(0,0.40983607,-0.40983607,0,-71.51429,-38.611082)"><stop
         offset="0"
         stop-color="#d5d3cf"
         id="stop3927-9"
         style="stop-color:#858dad;stop-opacity:1;" /><stop
         offset="1"
         stop-color="#f6f5f4"
         id="stop3929-1"
         style="stop-color:#e1e2ea;stop-opacity:1;" /></linearGradient><radialGradient
       id="b-2"
       cx="-243.06659"
       cy="-74.599976"
       gradientUnits="userSpaceOnUse"
       r="28.266657"
       gradientTransform="matrix(0,-0.44778386,-0.45537342,0,5.5607301,-45.225972)"><stop
         offset="0"
         stop-color="#d5d3cf"
         id="stop3922-7"
         style="stop-color:#e1e3ea;stop-opacity:1;" /><stop
         offset="1"
         stop-color="#949390"
         id="stop3924-0"
         style="stop-color:#868cac;stop-opacity:1;" /></radialGradient><linearGradient
       id="a-9"
       gradientUnits="userSpaceOnUse"
       x1="64"
       x2="64"
       y1="262.5"
       y2="232"
       gradientTransform="matrix(0.40983607,0,0,0.40983607,-71.514294,-38.611081)"><stop
         offset="0"
         stop-color="#9a9996"
         id="stop3917-3"
         style="stop-color:#a5aac2;stop-opacity:1;" /><stop
         offset="1"
         stop-color="#77767b"
         id="stop3919-6"
         style="stop-color:#676f98;stop-opacity:1;" /></linearGradient><radialGradient
       xlink:href="#linearGradient36369"
       id="radialGradient36371-3"
       cx="312.65726"
       cy="2706.5786"
       fx="312.65726"
       fy="2706.5786"
       r="14.806045"
       gradientTransform="matrix(0.85879051,0.01351892,-0.01176593,0.72272607,-151.06157,-1905.2386)"
       gradientUnits="userSpaceOnUse" /><linearGradient
       id="linearGradient36369"><stop
         style="stop-color:#8fbbf0;stop-opacity:1;"
         offset="0"
         id="stop36365" /><stop
         style="stop-color:#8fbbf0;stop-opacity:0;"
         offset="1"
         id="stop36367" /></linearGradient><radialGradient
       id="b-2-2"
       cx="-243.06659"
       cy="-74.599976"
       gradientUnits="userSpaceOnUse"
       r="28.266657"
       gradientTransform="matrix(0,-0.32240436,-0.32786884,0,51.090591,12.757087)"><stop
         offset="0"
         stop-color="#d5d3cf"
         id="stop3922-7-0"
         style="stop-color:#e1e3ea;stop-opacity:1;" /><stop
         offset="1"
         stop-color="#949390"
         id="stop3924-0-6"
         style="stop-color:#868cac;stop-opacity:1;" /></radialGradient><linearGradient
       xlink:href="#a-9"
       id="linearGradient12743"
       gradientUnits="userSpaceOnUse"
       gradientTransform="matrix(0.32786884,0,0,0.32240436,51.090591,12.757087)"
       x1="64"
       y1="262.5"
       x2="64"
       y2="232" /><linearGradient
       xlink:href="#c-2"
       id="linearGradient12745"
       gradientUnits="userSpaceOnUse"
       gradientTransform="matrix(0,0.32240436,-0.32786884,0,51.090594,12.757086)"
       x1="203.99998"
       y1="-64"
       x2="268"
       y2="-64" /><linearGradient
       xlink:href="#a-9"
       id="linearGradient12776"
       gradientUnits="userSpaceOnUse"
       gradientTransform="matrix(0.45537342,0,0,0.44778386,5.5607301,-45.225972)"
       x1="64"
       y1="262.5"
       x2="64"
       y2="232" /><linearGradient
       xlink:href="#c-2"
       id="linearGradient12778"
       gradientUnits="userSpaceOnUse"
       gradientTransform="matrix(0,0.44778386,-0.45537342,0,5.5607346,-45.225973)"
       x1="203.99998"
       y1="-64"
       x2="268"
       y2="-64" /><clipPath
       clipPathUnits="userSpaceOnUse"
       id="clipPath2"><path
         id="path2"
         d="M 63.785715,2.9999933 A 59.785711,58.999994 0 0 0 3.9999986,61.999993 59.785711,58.999994 0 0 0 63.785715,120.99999 59.785711,58.999994 0 0 0 123.57143,61.999993 59.785711,58.999994 0 0 0 63.785715,2.9999933 Z m 0,47.1999997 a 11.957215,11.800071 0 0 1 11.957143,11.8 11.957215,11.800071 0 0 1 -11.957143,11.799999 11.957215,11.800071 0 0 1 -11.957144,-11.799999 11.957215,11.800071 0 0 1 11.957144,-11.8 z"
         style="display:inline;opacity:1;fill:#dc8add;fill-opacity:1;stroke:none;stroke-width:0.0111836px;stroke-linecap:butt;stroke-linejoin:miter;stroke-miterlimit:4;stroke-dasharray:none;stroke-dashoffset:0;stroke-opacity:1;marker:none;marker-start:none;marker-mid:none;marker-end:none;paint-order:normal;enable-background:new" /></clipPath><clipPath
       clipPathUnits="userSpaceOnUse"
       id="clipPath3"><path
         id="path3"
         d="M 63.785715,2.9999933 A 59.785711,58.999994 0 0 0 3.9999986,61.999993 59.785711,58.999994 0 0 0 63.785715,120.99999 59.785711,58.999994 0 0 0 123.57143,61.999993 59.785711,58.999994 0 0 0 63.785715,2.9999933 Z m 0,47.1999997 a 11.957215,11.800071 0 0 1 11.957143,11.8 11.957215,11.800071 0 0 1 -11.957143,11.799999 11.957215,11.800071 0 0 1 -11.957144,-11.799999 11.957215,11.800071 0 0 1 11.957144,-11.8 z"
         style="display:inline;opacity:1;fill:#dc8add;fill-opacity:1;stroke:none;stroke-width:0.0111836px;stroke-linecap:butt;stroke-linejoin:miter;stroke-miterlimit:4;stroke-dasharray:none;stroke-dashoffset:0;stroke-opacity:1;marker:none;marker-start:none;marker-mid:none;marker-end:none;paint-order:normal;enable-background:new" /></clipPath><clipPath
       clipPathUnits="userSpaceOnUse"
       id="clipPath4"><path
         id="path4"
         d="M 63.785715,2.9999933 A 59.785711,58.999994 0 0 0 3.9999986,61.999993 59.785711,58.999994 0 0 0 63.785715,120.99999 59.785711,58.999994 0 0 0 123.57143,61.999993 59.785711,58.999994 0 0 0 63.785715,2.9999933 Z m 0,47.1999997 a 11.957215,11.800071 0 0 1 11.957143,11.8 11.957215,11.800071 0 0 1 -11.957143,11.799999 11.957215,11.800071 0 0 1 -11.957144,-11.799999 11.957215,11.800071 0 0 1 11.957144,-11.8 z"
         style="display:inline;opacity:1;fill:#dc8add;fill-opacity:1;stroke:none;stroke-width:0.0111836px;stroke-linecap:butt;stroke-linejoin:miter;stroke-miterlimit:4;stroke-dasharray:none;stroke-dashoffset:0;stroke-opacity:1;marker:none;marker-start:none;marker-mid:none;marker-end:none;paint-order:normal;enable-background:new" /></clipPath><clipPath
       clipPathUnits="userSpaceOnUse"
       id="clipPath5"><path
         id="path5"
         d="M 63.785715,2.9999933 A 59.785711,58.999994 0 0 0 3.9999986,61.999993 59.785711,58.999994 0 0 0 63.785715,120.99999 59.785711,58.999994 0 0 0 123.57143,61.999993 59.785711,58.999994 0 0 0 63.785715,2.9999933 Z m 0,47.1999997 a 11.957215,11.800071 0 0 1 11.957143,11.8 11.957215,11.800071 0 0 1 -11.957143,11.799999 11.957215,11.800071 0 0 1 -11.957144,-11.799999 11.957215,11.800071 0 0 1 11.957144,-11.8 z"
         style="display:inline;opacity:1;fill:#dc8add;fill-opacity:1;stroke:none;stroke-width:0.0111836px;stroke-linecap:butt;stroke-linejoin:miter;stroke-miterlimit:4;stroke-dasharray:none;stroke-dashoffset:0;stroke-opacity:1;marker:none;marker-start:none;marker-mid:none;marker-end:none;paint-order:normal;enable-background:new" /></clipPath><clipPath
       clipPathUnits="userSpaceOnUse"
       id="clipPath6"><path
         id="path6"
         d="M 63.785715,2.9999933 A 59.785711,58.999994 0 0 0 3.9999986,61.999993 59.785711,58.999994 0 0 0 63.785715,120.99999 59.785711,58.999994 0 0 0 123.57143,61.999993 59.785711,58.999994 0 0 0 63.785715,2.9999933 Z m 0,47.1999997 a 11.957215,11.800071 0 0 1 11.957143,11.8 11.957215,11.800071 0 0 1 -11.957143,11.799999 11.957215,11.800071 0 0 1 -11.957144,-11.799999 11.957215,11.800071 0 0 1 11.957144,-11.8 z"
         style="display:inline;opacity:1;fill:#dc8add;fill-opacity:1;stroke:none;stroke-width:0.0111836px;stroke-linecap:butt;stroke-linejoin:miter;stroke-miterlimit:4;stroke-dasharray:none;stroke-dashoffset:0;stroke-opacity:1;marker:none;marker-start:none;marker-mid:none;marker-end:none;paint-order:normal;enable-background:new" /></clipPath><linearGradient
       id="a-9-6"
       gradientUnits="userSpaceOnUse"
       x1="0"
       y1="269.46301"
       x2="118.926"
       y2="269.46301"
       gradientTransform="matrix(1,0,0,0.98333333,2.15e-6,-168.03334)"><stop
         offset="0"
         stop-color="#e5a50a"
         id="stop1"
         style="stop-color:#787878;stop-opacity:1;" /><stop
         offset="0.414"
         stop-color="#fbdf9b"
         id="stop2"
         style="stop-color:#cbcbcb;stop-opacity:1;" /><stop
         offset="0.81300002"
         stop-color="#e5a50a"
         id="stop3"
         style="stop-color:#787878;stop-opacity:1;" /><stop
         offset="1"
         stop-color="#f8ca5b"
         id="stop4"
         style="stop-color:#a9a9a9;stop-opacity:1;" /></linearGradient><linearGradient
       id="linearGradient36369-2"><stop
         style="stop-color:#8ff0f0;stop-opacity:1;"
         offset="0"
         id="stop36365-4" /><stop
         style="stop-color:#8ff0f0;stop-opacity:0;"
         offset="1"
         id="stop36367-0" /></linearGradient><linearGradient
       id="linearGradient5602"><stop
         style="stop-color:#4d91e5;stop-opacity:1;"
         offset="0"
         id="stop5598" /><stop
         style="stop-color:#619eeb;stop-opacity:1;"
         offset="1"
         id="stop5600" /></linearGradient><linearGradient
       id="linearGradient4282"><stop
         style="stop-color:#1a3468;stop-opacity:1;"
         offset="0"
         id="stop4270" /><stop
         style="stop-color:#2d5dbd;stop-opacity:1;"
         offset="0.12353748"
         id="stop4272" /><stop
         style="stop-color:#264fa2;stop-opacity:1;"
         offset="0.26763391"
         id="stop4274" /><stop
         style="stop-color:#264fa2;stop-opacity:1;"
         offset="0.61405945"
         id="stop4276" /><stop
         style="stop-color:#3876f3;stop-opacity:1;"
         offset="0.86428529"
         id="stop4278" /><stop
         style="stop-color:#2d5fc4;stop-opacity:1;"
         offset="1"
         id="stop4280" /></linearGradient><linearGradient
       id="linearGradient3639"><stop
         style="stop-color:#1a3468;stop-opacity:1;"
         offset="0"
         id="stop3635" /><stop
         style="stop-color:#2c5dbe;stop-opacity:1;"
         offset="0.12353748"
         id="stop3730" /><stop
         style="stop-color:#264fa2;stop-opacity:1;"
         offset="0.26763391"
         id="stop3732" /><stop
         style="stop-color:#264fa2;stop-opacity:1;"
         offset="0.78990275"
         id="stop3734" /><stop
         style="stop-color:#264fa2;stop-opacity:1;"
         offset="0.86428529"
         id="stop3736" /><stop
         style="stop-color:#2d5fc4;stop-opacity:1;"
         offset="1"
         id="stop3637" /></linearGradient><linearGradient
       xlink:href="#linearGradient3639"
       id="linearGradient3641-8"
       x1="324.99957"
       y1="2432.0002"
       x2="380.99957"
       y2="2432.0002"
       gradientUnits="userSpaceOnUse"
       gradientTransform="matrix(0.70370238,0,0,0.70370238,-124.95716,-1696.552)" /><radialGradient
       xlink:href="#linearGradient5602"
       id="radialGradient5606-4"
       cx="290.12616"
       cy="2488.8789"
       fx="290.12616"
       fy="2488.8789"
       r="25.000025"
       gradientUnits="userSpaceOnUse"
       gradientTransform="matrix(0.51542066,0.34266097,-0.38959482,0.58601443,902.74101,-1503.3505)" /><radialGradient
       xlink:href="#linearGradient36369-2"
       id="radialGradient36371-0"
       cx="312.65726"
       cy="2706.5786"
       fx="312.65726"
       fy="2706.5786"
       r="14.806045"
       gradientTransform="matrix(0.74225598,0.01188249,-0.01016935,0.6352423,-124.29858,-1670.0301)"
       gradientUnits="userSpaceOnUse" /><linearGradient
       xlink:href="#linearGradient4282"
       id="linearGradient8"
       gradientUnits="userSpaceOnUse"
       gradientTransform="matrix(0.70370238,0,0,0.70370238,-378.30077,-1696.5524)"
       x1="684.81891"
       y1="2494.0002"
       x2="634.99957"
       y2="2494.0002" /></defs><path
     d="m 124,65.999993 c 0,32.584717 -26.862998,58.999997 -59.999998,58.999997 -33.137,0 -59.9999999,-26.41528 -59.9999999,-58.999997 0,-32.584717 26.8629999,-59.0000003 59.9999999,-59.0000003 C 97.137002,6.9999927 124,33.415276 124,65.999993 Z m 0,0"
     fill="url(#a)"
     id="path4-8"
     style="fill:url(#a-9-6);stroke-width:0.991632" /><rect
     style="display:inline;fill:#d5d3cf;fill-opacity:1;stroke:none;stroke-width:0.0111836px;stroke-linecap:butt;stroke-linejoin:miter;stroke-miterlimit:4;stroke-dasharray:none;stroke-dashoffset:0;stroke-opacity:1;marker:none;marker-start:none;marker-mid:none;marker-end:none;paint-order:normal;enable-background:new"
     id="rect978-4"
     width="111.60001"
     height="112.1"
     x="7.9857025"
     y="6.9338093"
     rx="55.800003"
     ry="55.066666"
     clip-path="url(#clipPath6)"
     transform="matrix(1.0035842,0,0,1,-0.01433682,0)" /><path
     id="path981-8"
     d="M 63.785715,2.9999954 C 30.766974,2.9999924 3.9999956,29.415194 3.9999986,61.999995 c -2e-6,32.584802 26.7669764,58.999995 59.7857164,58.999995 33.018744,0 59.785715,-26.415193 59.785715,-58.999995 0,-32.584801 -26.766971,-59.0000026 -59.785715,-58.9999996 z m 0,48.0296926 c 6.139403,3.6e-5 11.116363,4.911589 11.1164,10.970307 -3.7e-5,6.058717 -4.976997,10.97027 -11.1164,10.970306 -6.139404,-3.6e-5 -11.116364,-4.911589 -11.116401,-10.970306 3.7e-5,-6.058718 4.976997,-10.970271 11.116401,-10.970307 z"
     style="display:inline;fill:#f6f5f4;fill-opacity:1;stroke:none;stroke-width:0.0111836px;stroke-linecap:butt;stroke-linejoin:miter;stroke-miterlimit:4;stroke-dasharray:none;stroke-dashoffset:0;stroke-opacity:1;marker:none;marker-start:none;marker-mid:none;marker-end:none;paint-order:normal;enable-background:new"
     clip-path="url(#clipPath5)"
     transform="matrix(1.0035842,0,0,1,-0.01433682,0)" /><ellipse
     cy="62.000011"
     cx="63.786263"
     id="path1402"
     style="fill:none;fill-opacity:1;fill-rule:nonzero;stroke:#000000;stroke-width:9.19845;stroke-linecap:butt;stroke-linejoin:miter;stroke-miterlimit:4;stroke-dasharray:none;stroke-dashoffset:0;stroke-opacity:0.130831;marker:none;marker-start:none;marker-mid:none;marker-end:none;paint-order:normal"
     rx="21.277189"
     ry="20.43058"
     clip-path="url(#clipPath4)"
     transform="matrix(1.0035842,0,0,1,-0.01433682,0)" /><path
     style="vector-effect:none;fill:#000000;fill-opacity:0.0515292;fill-rule:nonzero;stroke:none;stroke-width:5.93916;stroke-linecap:round;stroke-linejoin:miter;stroke-miterlimit:4;stroke-dasharray:none;stroke-dashoffset:0;stroke-opacity:0.948819;marker:none;marker-start:none;marker-mid:none;marker-end:none;paint-order:normal"
     d="M 127.55715,35.743125 63.785715,61.999993 137.18663,84.763303"
     id="path1894"
     clip-path="url(#clipPath3)"
     transform="matrix(1.0035842,0,0,1,-0.01433682,0)" /><path
     id="path1896"
     d="M 9.0956778,103.81669 63.807871,62.166166 -13.062008,58.926378"
     style="vector-effect:none;fill:#000000;fill-opacity:0.0515292;fill-rule:nonzero;stroke:none;stroke-width:5.93916;stroke-linecap:round;stroke-linejoin:miter;stroke-miterlimit:4;stroke-dasharray:none;stroke-dashoffset:0;stroke-opacity:0.948819;marker:none;marker-start:none;marker-mid:none;marker-end:none;paint-order:normal"
     clip-path="url(#clipPath2)"
     transform="matrix(1.0035842,0,0,1,-0.01433682,0)" /><ellipse
     style="display:inline;fill:url(#radialGradient36371-3);fill-opacity:1;stroke:none;stroke-width:0.403685;stroke-linecap:butt;stroke-linejoin:miter;stroke-miterlimit:4;stroke-dasharray:none;stroke-dashoffset:0;stroke-opacity:1;marker:none;marker-start:none;marker-mid:none;marker-end:none;paint-order:normal;enable-background:new"
     id="path35820-8"
     cx="86.719574"
     cy="56.203709"
     rx="12.054845"
     ry="11.85393" /><path
     d="m 36.070749,86.422482 h -2.73224 l -0.910747,-7.164543 h 4.553734 z m 0,0"
     fill="#9a9996"
     stroke="#9a9996"
     stroke-linecap="round"
     stroke-linejoin="round"
     id="path3932-6"
     style="fill:#676f98;fill-opacity:1;stroke:#676f98;stroke-width:3.61251;stroke-opacity:1" /><path
     d="m 33.338509,36.270689 h 2.73224 l 0.910747,7.164542 h -4.553734 z m 0,0"
     fill="#9a9996"
     stroke="#9a9996"
     stroke-linecap="round"
     stroke-linejoin="round"
     id="path3934-2"
     style="fill:#0a0b0f;fill-opacity:1;stroke:#676f98;stroke-width:3.61251;stroke-opacity:1" /><path
     d="m 9.2037168,62.689942 v -2.686704 l 7.2859762,-0.895567 v 4.477839 z m 0,0"
     fill="#9a9996"
     stroke="#9a9996"
     stroke-linecap="round"
     stroke-linejoin="round"
     id="path3936-6"
     style="fill:#676f98;fill-opacity:1;stroke:#676f98;stroke-width:3.61251;stroke-opacity:1" /><path
     d="m 60.205539,60.003238 v 2.686704 l -7.285974,0.895568 v -4.477839 z m 0,0"
     fill="#9a9996"
     stroke="#9a9996"
     stroke-linecap="round"
     stroke-linejoin="round"
     id="path3938-1"
     style="fill:#676f98;fill-opacity:1;stroke:#676f98;stroke-width:3.61251;stroke-opacity:1" /><path
     d="m 11.937735,49.971719 1.36612,-2.326376 6.76478,2.805648 -2.276862,3.877878 z m 0,0"
     fill="#9a9996"
     stroke="#9a9996"
     stroke-linecap="round"
     stroke-linejoin="round"
     id="path3940-8"
     style="fill:#676f98;fill-opacity:1;stroke:#676f98;stroke-width:3.61251;stroke-opacity:1" /><path
     d="m 57.471514,72.721248 -1.36612,2.326375 -6.764787,-2.805648 2.276829,-3.879646 z m 0,0"
     fill="#9a9996"
     stroke="#9a9996"
     stroke-linecap="round"
     stroke-linejoin="round"
     id="path3942-7"
     style="fill:#676f98;fill-opacity:1;stroke:#676f98;stroke-width:3.61251;stroke-opacity:1" /><path
     d="m 20.77134,40.302535 2.365809,-1.343353 4.432777,5.756471 -3.945406,2.238883 z m 0,0"
     fill="#9a9996"
     stroke="#9a9996"
     stroke-linecap="round"
     stroke-linejoin="round"
     id="path3944-9"
     style="fill:#676f98;fill-opacity:1;stroke:#676f98;stroke-width:3.61251;stroke-opacity:1" /><path
     d="m 48.638069,82.390713 -2.365809,1.343354 -4.432776,-5.756471 3.945406,-2.238883 z m 0,0"
     fill="#9a9996"
     stroke="#9a9996"
     stroke-linecap="round"
     stroke-linejoin="round"
     id="path3946-2"
     style="fill:#676f98;fill-opacity:1;stroke:#676f98;stroke-width:3.61251;stroke-opacity:1" /><path
     d="m 23.136854,83.734151 -2.365809,-1.343354 2.853203,-6.652039 3.945406,2.238883 z m 0,0"
     fill="#9a9996"
     stroke="#9a9996"
     stroke-linecap="round"
     stroke-linejoin="round"
     id="path3948-0"
     style="fill:#676f98;fill-opacity:1;stroke:#676f98;stroke-width:3.61251;stroke-opacity:1" /><path
     d="m 46.271966,38.959266 2.36581,1.343353 -2.8532,6.652036 -3.945406,-2.238884 z m 0,0"
     fill="#9a9996"
     stroke="#9a9996"
     stroke-linecap="round"
     stroke-linejoin="round"
     id="path3950-2"
     style="fill:#676f98;fill-opacity:1;stroke:#676f98;stroke-width:3.61251;stroke-opacity:1" /><path
     d="m 13.303832,75.047676 -1.36612,-2.326377 5.854037,-4.358896 2.276829,3.879645 z m 0,0"
     fill="#9a9996"
     stroke="#9a9996"
     stroke-linecap="round"
     stroke-linejoin="round"
     id="path3952-3"
     style="fill:#676f98;fill-opacity:1;stroke:#676f98;stroke-width:3.61251;stroke-opacity:1" /><path
     d="m 56.105371,47.645393 1.366115,2.326379 -5.854034,4.357147 -2.276867,-3.877876 z m 0,0"
     fill="#9a9996"
     stroke="#9a9996"
     stroke-linecap="round"
     stroke-linejoin="round"
     id="path3954-7"
     style="fill:#676f98;fill-opacity:1;stroke:#676f98;stroke-width:3.61251;stroke-opacity:1" /><path
     d="m 36.070749,85.526913 h -2.73224 l -0.910747,-7.164542 h 4.553734 z m 0,0"
     fill="#f6f5f4"
     stroke="#f6f5f4"
     stroke-linecap="round"
     stroke-linejoin="round"
     id="path3956-5"
     style="fill:#a5aac2;fill-opacity:1;stroke:#a5aac2;stroke-width:3.61251;stroke-opacity:1" /><path
     d="m 33.338509,35.375122 h 2.73224 l 0.910747,7.164541 h -4.553734 z m 0,0"
     fill="#f6f5f4"
     stroke="#f6f5f4"
     stroke-linecap="round"
     stroke-linejoin="round"
     id="path3958-9"
     style="fill:#a5aac2;fill-opacity:1;stroke:#a5aac2;stroke-width:3.61251;stroke-opacity:1" /><path
     d="m 9.2037168,61.794366 v -2.686704 l 7.2859762,-0.895567 v 4.477839 z m 0,0"
     fill="#f6f5f4"
     stroke="#f6f5f4"
     stroke-linecap="round"
     stroke-linejoin="round"
     id="path3960-2"
     style="fill:#a5aac2;fill-opacity:1;stroke:#a5aac2;stroke-width:3.61251;stroke-opacity:1" /><path
     d="m 60.205539,59.107662 v 2.686704 l -7.285974,0.895568 v -4.477839 z m 0,0"
     fill="#f6f5f4"
     stroke="#f6f5f4"
     stroke-linecap="round"
     stroke-linejoin="round"
     id="path3962-2"
     style="fill:#a5aac2;fill-opacity:1;stroke:#a5aac2;stroke-width:3.61251;stroke-opacity:1" /><path
     d="m 11.937735,49.076153 1.36612,-2.326375 6.76478,2.805648 -2.276862,3.877877 z m 0,0"
     fill="#f6f5f4"
     stroke="#f6f5f4"
     stroke-linecap="round"
     stroke-linejoin="round"
     id="path3964-8"
     style="fill:#a5aac2;fill-opacity:1;stroke:#a5aac2;stroke-width:3.61251;stroke-opacity:1" /><path
     d="m 57.471514,71.825683 -1.36612,2.326375 -6.764787,-2.805649 2.276829,-3.879645 z m 0,0"
     fill="#f6f5f4"
     stroke="#f6f5f4"
     stroke-linecap="round"
     stroke-linejoin="round"
     id="path3966-9"
     style="fill:#a5aac2;fill-opacity:1;stroke:#a5aac2;stroke-width:3.61251;stroke-opacity:1" /><path
     d="m 20.771329,39.406969 2.365809,-1.343354 4.432777,5.756472 -3.945406,2.238883 z m 0,0"
     fill="#f6f5f4"
     stroke="#f6f5f4"
     stroke-linecap="round"
     stroke-linejoin="round"
     id="path3968-7"
     style="fill:#a5aac2;fill-opacity:1;stroke:#a5aac2;stroke-width:3.61251;stroke-opacity:1" /><path
     d="m 48.638058,81.495147 -2.365809,1.343353 -4.432776,-5.75647 3.945405,-2.238883 z m 0,0"
     fill="#f6f5f4"
     stroke="#f6f5f4"
     stroke-linecap="round"
     stroke-linejoin="round"
     id="path3970-3"
     style="fill:#a5aac2;fill-opacity:1;stroke:#a5aac2;stroke-width:3.61251;stroke-opacity:1" /><path
     d="m 23.136854,82.838575 -2.365809,-1.343354 2.853203,-6.652039 3.945406,2.238883 z m 0,0"
     fill="#f6f5f4"
     stroke="#f6f5f4"
     stroke-linecap="round"
     stroke-linejoin="round"
     id="path3972-6"
     style="fill:#a5aac2;fill-opacity:1;stroke:#a5aac2;stroke-width:3.61251;stroke-opacity:1" /><path
     d="m 46.271966,38.06369 2.36581,1.343353 -2.8532,6.652036 -3.945406,-2.238884 z m 0,0"
     fill="#f6f5f4"
     stroke="#f6f5f4"
     stroke-linecap="round"
     stroke-linejoin="round"
     id="path3974-1"
     style="fill:#a5aac2;fill-opacity:1;stroke:#a5aac2;stroke-width:3.61251;stroke-opacity:1" /><path
     d="m 13.303832,74.152111 -1.36612,-2.326377 5.854037,-4.358896 2.276829,3.879644 z m 0,0"
     fill="#f6f5f4"
     stroke="#f6f5f4"
     stroke-linecap="round"
     stroke-linejoin="round"
     id="path3976-2"
     style="fill:#a5aac2;fill-opacity:1;stroke:#a5aac2;stroke-width:3.61251;stroke-opacity:1" /><path
     d="m 56.105371,46.749828 1.366115,2.326379 -5.854034,4.357147 -2.276867,-3.877876 z m 0,0"
     fill="#f6f5f4"
     stroke="#f6f5f4"
     stroke-linecap="round"
     stroke-linejoin="round"
     id="path3978-9"
     style="fill:#a5aac2;fill-opacity:1;stroke:#a5aac2;stroke-width:3.61251;stroke-opacity:1" /><path
     d="m 51.098072,61.346585 c 0,8.903201 -7.339341,16.120219 -16.393443,16.120219 -9.054103,0 -16.393443,-7.217018 -16.393443,-16.120219 0,-8.903201 7.33934,-16.120219 16.393443,-16.120219 9.054102,0 16.393443,7.217018 16.393443,16.120219 z m 0,0"
     fill="none"
     stroke="url(#a)"
     stroke-width="10.8375"
     id="path3982-3"
     style="stroke:url(#linearGradient12776)" /><path
     d="m 52.008819,60.451018 c 0,9.398213 -7.746685,17.015786 -17.30419,17.015786 -9.557504,0 -17.30419,-7.617573 -17.30419,-17.015786 0,-9.398214 7.746686,-17.015787 17.30419,-17.015787 9.557505,0 17.30419,7.617573 17.30419,17.015787 z m 0,0"
     fill="none"
     stroke="#f6f5f4"
     stroke-width="9.03125"
     id="path3984-1"
     style="stroke:#a5aac2;stroke-opacity:1" /><path
     d="m 34.704629,48.584745 c -6.665174,0 -12.067395,5.312186 -12.067395,11.866273 0,6.554086 5.402221,11.866271 12.067395,11.866271 6.665173,0 12.067396,-5.312185 12.067396,-11.866271 0,-6.554087 -5.402223,-11.866273 -12.067396,-11.866273 z m 0,0"
     fill="none"
     stroke="url(#b)"
     stroke-linecap="square"
     stroke-linejoin="round"
     stroke-width="2.25782"
     id="path3986-9"
     style="stroke:url(#b-2)" /><path
     d="m 34.704629,74.780101 c -8.0473,0 -14.57195,-6.415906 -14.57195,-14.329083 0,-7.913183 6.52465,-14.329084 14.57195,-14.329084 8.047305,0 14.57195,6.415901 14.57195,14.329084 0,7.913177 -6.524645,14.329083 -14.57195,14.329083 z m 0,0"
     fill="none"
     stroke="url(#c)"
     stroke-linecap="square"
     stroke-linejoin="round"
     stroke-width="3.61251"
     id="path3988-4"
     style="stroke:url(#linearGradient12778)" /><path
     d="M 73.057804,107.54397 H 71.09059 l -0.655738,-5.15847 h 3.27869 z m 0,0"
     fill="#9a9996"
     stroke="#9a9996"
     stroke-linecap="round"
     stroke-linejoin="round"
     id="path3932-6-4"
     style="fill:#676f98;fill-opacity:1;stroke:#676f98;stroke-width:2.601;stroke-opacity:1" /><path
     d="m 71.09059,71.43468 h 1.967214 l 0.655738,5.15847 h -3.27869 z m 0,0"
     fill="#9a9996"
     stroke="#9a9996"
     stroke-linecap="round"
     stroke-linejoin="round"
     id="path3934-2-7"
     style="fill:#0a0b0f;fill-opacity:1;stroke:#676f98;stroke-width:2.601;stroke-opacity:1" /><path
     d="m 53.713542,90.456542 v -1.934427 l 5.245902,-0.644809 v 3.224044 z m 0,0"
     fill="#9a9996"
     stroke="#9a9996"
     stroke-linecap="round"
     stroke-linejoin="round"
     id="path3936-6-6"
     style="fill:#676f98;fill-opacity:1;stroke:#676f98;stroke-width:2.601;stroke-opacity:1" /><path
     d="m 90.434852,88.522115 v 1.934427 l -5.245901,0.644808 v -3.224044 z m 0,0"
     fill="#9a9996"
     stroke="#9a9996"
     stroke-linecap="round"
     stroke-linejoin="round"
     id="path3938-1-5"
     style="fill:#676f98;fill-opacity:1;stroke:#676f98;stroke-width:2.601;stroke-opacity:1" /><path
     d="m 55.682034,81.299421 0.983607,-1.67499 4.870642,2.020066 -1.639342,2.792072 z m 0,0"
     fill="#9a9996"
     stroke="#9a9996"
     stroke-linecap="round"
     stroke-linejoin="round"
     id="path3940-8-6"
     style="fill:#676f98;fill-opacity:1;stroke:#676f98;stroke-width:2.601;stroke-opacity:1" /><path
     d="m 88.466354,97.679081 -0.983607,1.674991 -4.870646,-2.020067 1.639317,-2.793345 z m 0,0"
     fill="#9a9996"
     stroke="#9a9996"
     stroke-linecap="round"
     stroke-linejoin="round"
     id="path3942-7-9"
     style="fill:#676f98;fill-opacity:1;stroke:#676f98;stroke-width:2.601;stroke-opacity:1" /><path
     d="m 62.04223,74.337609 1.703382,-0.967214 3.191599,4.144659 -2.840691,1.611996 z m 0,0"
     fill="#9a9996"
     stroke="#9a9996"
     stroke-linecap="round"
     stroke-linejoin="round"
     id="path3944-9-3"
     style="fill:#676f98;fill-opacity:1;stroke:#676f98;stroke-width:2.601;stroke-opacity:1" /><path
     d="m 82.106274,104.6411 -1.703383,0.96721 -3.191598,-4.14466 2.840691,-1.611994 z m 0,0"
     fill="#9a9996"
     stroke="#9a9996"
     stroke-linecap="round"
     stroke-linejoin="round"
     id="path3946-2-7"
     style="fill:#676f98;fill-opacity:1;stroke:#676f98;stroke-width:2.601;stroke-opacity:1" /><path
     d="m 63.745401,105.60837 -1.703384,-0.96721 2.054307,-4.789471 2.840691,1.611991 z m 0,0"
     fill="#9a9996"
     stroke="#9a9996"
     stroke-linecap="round"
     stroke-linejoin="round"
     id="path3948-0-4"
     style="fill:#676f98;fill-opacity:1;stroke:#676f98;stroke-width:2.601;stroke-opacity:1" /><path
     d="m 80.402679,73.370455 1.703384,0.967215 -2.054304,4.789465 -2.840693,-1.611996 z m 0,0"
     fill="#9a9996"
     stroke="#9a9996"
     stroke-linecap="round"
     stroke-linejoin="round"
     id="path3950-2-5"
     style="fill:#676f98;fill-opacity:1;stroke:#676f98;stroke-width:2.601;stroke-opacity:1" /><path
     d="m 56.665624,99.35411 -0.983607,-1.674992 4.214907,-3.138405 1.639317,2.793344 z m 0,0"
     fill="#9a9996"
     stroke="#9a9996"
     stroke-linecap="round"
     stroke-linejoin="round"
     id="path3952-3-2"
     style="fill:#676f98;fill-opacity:1;stroke:#676f98;stroke-width:2.601;stroke-opacity:1" /><path
     d="m 87.48273,79.624467 0.983604,1.674993 -4.214905,3.137145 -1.639344,-2.79207 z m 0,0"
     fill="#9a9996"
     stroke="#9a9996"
     stroke-linecap="round"
     stroke-linejoin="round"
     id="path3954-7-5"
     style="fill:#676f98;fill-opacity:1;stroke:#676f98;stroke-width:2.601;stroke-opacity:1" /><path
     d="M 73.057804,106.89916 H 71.09059 l -0.655738,-5.15847 h 3.27869 z m 0,0"
     fill="#f6f5f4"
     stroke="#f6f5f4"
     stroke-linecap="round"
     stroke-linejoin="round"
     id="path3956-5-4"
     style="fill:#a5aac2;fill-opacity:1;stroke:#a5aac2;stroke-width:2.601;stroke-opacity:1" /><path
     d="m 71.09059,70.789872 h 1.967214 l 0.655738,5.158469 h -3.27869 z m 0,0"
     fill="#f6f5f4"
     stroke="#f6f5f4"
     stroke-linecap="round"
     stroke-linejoin="round"
     id="path3958-9-7"
     style="fill:#a5aac2;fill-opacity:1;stroke:#a5aac2;stroke-width:2.601;stroke-opacity:1" /><path
     d="M 53.713542,89.811727 V 87.8773 l 5.245902,-0.644809 v 3.224044 z m 0,0"
     fill="#f6f5f4"
     stroke="#f6f5f4"
     stroke-linecap="round"
     stroke-linejoin="round"
     id="path3960-2-4"
     style="fill:#a5aac2;fill-opacity:1;stroke:#a5aac2;stroke-width:2.601;stroke-opacity:1" /><path
     d="m 90.434852,87.8773 v 1.934427 l -5.245901,0.644808 v -3.224044 z m 0,0"
     fill="#f6f5f4"
     stroke="#f6f5f4"
     stroke-linecap="round"
     stroke-linejoin="round"
     id="path3962-2-4"
     style="fill:#a5aac2;fill-opacity:1;stroke:#a5aac2;stroke-width:2.601;stroke-opacity:1" /><path
     d="m 55.682034,80.654614 0.983607,-1.67499 4.870642,2.020066 -1.639342,2.792072 z m 0,0"
     fill="#f6f5f4"
     stroke="#f6f5f4"
     stroke-linecap="round"
     stroke-linejoin="round"
     id="path3964-8-3"
     style="fill:#a5aac2;fill-opacity:1;stroke:#a5aac2;stroke-width:2.601;stroke-opacity:1" /><path
     d="m 88.466354,97.034274 -0.983607,1.674991 -4.870646,-2.020067 1.639317,-2.793345 z m 0,0"
     fill="#f6f5f4"
     stroke="#f6f5f4"
     stroke-linecap="round"
     stroke-linejoin="round"
     id="path3966-9-0"
     style="fill:#a5aac2;fill-opacity:1;stroke:#a5aac2;stroke-width:2.601;stroke-opacity:1" /><path
     d="m 62.042222,73.692801 1.703382,-0.967214 3.191599,4.144659 -2.840691,1.611996 z m 0,0"
     fill="#f6f5f4"
     stroke="#f6f5f4"
     stroke-linecap="round"
     stroke-linejoin="round"
     id="path3968-7-7"
     style="fill:#a5aac2;fill-opacity:1;stroke:#a5aac2;stroke-width:2.601;stroke-opacity:1" /><path
     d="m 82.106266,103.99629 -1.703383,0.96721 -3.191598,-4.14466 2.840691,-1.611991 z m 0,0"
     fill="#f6f5f4"
     stroke="#f6f5f4"
     stroke-linecap="round"
     stroke-linejoin="round"
     id="path3970-3-8"
     style="fill:#a5aac2;fill-opacity:1;stroke:#a5aac2;stroke-width:2.601;stroke-opacity:1" /><path
     d="m 63.745401,104.96356 -1.703384,-0.96722 2.054307,-4.789466 2.840691,1.611996 z m 0,0"
     fill="#f6f5f4"
     stroke="#f6f5f4"
     stroke-linecap="round"
     stroke-linejoin="round"
     id="path3972-6-6"
     style="fill:#a5aac2;fill-opacity:1;stroke:#a5aac2;stroke-width:2.601;stroke-opacity:1" /><path
     d="m 80.402679,72.72564 1.703384,0.967215 -2.054304,4.789466 -2.840693,-1.611997 z m 0,0"
     fill="#f6f5f4"
     stroke="#f6f5f4"
     stroke-linecap="round"
     stroke-linejoin="round"
     id="path3974-1-8"
     style="fill:#a5aac2;fill-opacity:1;stroke:#a5aac2;stroke-width:2.601;stroke-opacity:1" /><path
     d="m 56.665624,98.709302 -0.983607,-1.674991 4.214907,-3.138405 1.639317,2.793344 z m 0,0"
     fill="#f6f5f4"
     stroke="#f6f5f4"
     stroke-linecap="round"
     stroke-linejoin="round"
     id="path3976-2-8"
     style="fill:#a5aac2;fill-opacity:1;stroke:#a5aac2;stroke-width:2.601;stroke-opacity:1" /><path
     d="m 87.48273,78.97966 0.983604,1.674993 -4.214905,3.137145 -1.639344,-2.79207 z m 0,0"
     fill="#f6f5f4"
     stroke="#f6f5f4"
     stroke-linecap="round"
     stroke-linejoin="round"
     id="path3978-9-4"
     style="fill:#a5aac2;fill-opacity:1;stroke:#a5aac2;stroke-width:2.601;stroke-opacity:1" /><path
     d="m 83.877475,89.489325 c 0,6.410304 -5.284324,11.606555 -11.803278,11.606555 -6.518954,0 -11.803278,-5.196251 -11.803278,-11.606555 0,-6.410305 5.284324,-11.606558 11.803278,-11.606558 6.518954,0 11.803278,5.196253 11.803278,11.606558 z m 0,0"
     fill="none"
     stroke="url(#a)"
     stroke-width="7.80301"
     id="path3982-3-3"
     style="stroke:url(#linearGradient12743)" /><path
     d="m 84.533213,88.844516 c 0,6.766713 -5.577613,12.251364 -12.459016,12.251364 -6.881402,0 -12.459016,-5.484651 -12.459016,-12.251364 0,-6.766714 5.577614,-12.251366 12.459016,-12.251366 6.881403,0 12.459016,5.484652 12.459016,12.251366 z m 0,0"
     fill="none"
     stroke="#f6f5f4"
     stroke-width="6.5025"
     id="path3984-1-1"
     style="stroke:#a5aac2;stroke-opacity:1" /><path
     d="m 72.074197,80.3008 c -4.798924,0 -8.688524,3.824774 -8.688524,8.543716 0,4.718942 3.8896,8.543715 8.688524,8.543715 4.798925,0 8.688525,-3.824773 8.688525,-8.543715 0,-4.718942 -3.8896,-8.543716 -8.688525,-8.543716 z m 0,0"
     fill="none"
     stroke="url(#b)"
     stroke-linecap="square"
     stroke-linejoin="round"
     stroke-width="1.62563"
     id="path3986-9-4"
     style="stroke:url(#b-2-2)" /><path
     d="m 72.074197,99.161456 c -5.794055,0 -10.491803,-4.619452 -10.491803,-10.31694 0,-5.697491 4.697748,-10.31694 10.491803,-10.31694 5.79406,0 10.491804,4.619449 10.491804,10.31694 0,5.697488 -4.697744,10.31694 -10.491804,10.31694 z m 0,0"
     fill="none"
     stroke="url(#c)"
     stroke-linecap="square"
     stroke-linejoin="round"
     stroke-width="2.601"
     id="path3988-4-9"
     style="stroke:url(#linearGradient12745)" /><path
     id="rect499-6"
     style="display:inline;fill:url(#linearGradient3641-8);fill-opacity:1;fill-rule:evenodd;stroke:none;stroke-width:1.39404;stroke-linecap:round;enable-background:new;stop-color:#000000"
     d="m 103.74621,11.962886 a 7.1181114,7.1181114 0 0 0 -7.11914,7.119146 v 7.029283 h 7.11914 v -2.814457 a 7.0370238,7.0370238 0 0 1 7.0371,-7.037095 h 14.62891 v -4.222636 h -21.66601 z" /><path
     id="path18891-7"
     style="display:inline;vector-effect:none;fill:#62a0ea;fill-opacity:1;stroke:none;stroke-width:1.14646;stroke-linecap:butt;stroke-linejoin:miter;stroke-miterlimit:4;stroke-dasharray:none;stroke-dashoffset:0;stroke-opacity:1;marker:none;marker-start:none;marker-mid:none;marker-end:none;paint-order:normal;enable-background:new"
     d="M 109.34093,2.9999999 A 16.94729,16.94729 0 0 0 92.393663,19.947266 v 28.892578 l 9.800777,9.025391 a 0.92565897,0.92565897 0 0 0 1.55274,-0.679689 V 21.304688 a 7.0464319,7.0464319 0 0 1 7.04687,-7.044923 h 14.60742 V 2.9999999 Z" /><path
     id="circle5319-9"
     style="display:inline;vector-effect:none;fill:url(#linearGradient8);fill-rule:evenodd;stroke-width:1.39404;stroke-linecap:round;marker:none;marker-start:none;marker-mid:none;marker-end:none;enable-background:new;stop-color:#000000"
     d="M 103.73506,60.592619 A 17.592577,17.592577 0 0 1 86.14249,78.185196 17.592577,17.592577 0 0 1 68.54991,60.592619 17.592577,17.592577 0 0 1 86.14249,43.000042 17.592577,17.592577 0 0 1 103.73506,60.592619 Z" /><path
     id="circle5315-8"
     style="display:inline;vector-effect:none;fill:url(#radialGradient5606-4);fill-rule:evenodd;stroke-width:1.24468;stroke-linecap:round;marker:none;marker-start:none;marker-mid:none;marker-end:none;enable-background:new;stop-color:#000000"
     d="M 103.73506,58.592619 A 17.592577,17.592577 0 0 1 86.14249,76.185196 17.592577,17.592577 0 0 1 68.54991,58.592619 17.592577,17.592577 0 0 1 86.14249,41.000042 17.592577,17.592577 0 0 1 103.73506,58.592619 Z" /><path
     id="path35820-7"
     style="display:inline;vector-effect:none;fill:url(#radialGradient36371-0);stroke-width:0.351851;marker:none;marker-start:none;marker-mid:none;marker-end:none;enable-background:new"
     d="M 91.63563,53.985731 A 10.419049,10.419048 0 0 1 81.21658,64.404779 10.419049,10.419048 0 0 1 70.79753,53.985731 10.419049,10.419048 0 0 1 81.21658,43.566683 10.419049,10.419048 0 0 1 91.63563,53.985731 Z" /></svg>
