<?xml version="1.0" encoding="UTF-8" standalone="no"?>
<svg
   height="128px"
   viewBox="0 0 128 128"
   width="128px"
   version="1.1"
   id="svg286"
   xmlns:xlink="http://www.w3.org/1999/xlink"
   xmlns="http://www.w3.org/2000/svg"
   xmlns:svg="http://www.w3.org/2000/svg">
  <defs
     id="defs290">
    <linearGradient
       xlink:href="#linearGradient6"
       id="linearGradient7"
       x1="-122"
       y1="193.85156"
       x2="-2"
       y2="193.85156"
       gradientUnits="userSpaceOnUse"
       gradientTransform="matrix(0.58333335,0,0,0.57377049,100.16667,-43.852459)" />
    <linearGradient
       id="linearGradient6">
      <stop
         style="stop-color:#c6a40f;stop-opacity:1;"
         offset="0.5"
         id="stop6" />
      <stop
         style="stop-color:#d2cd0f;stop-opacity:1;"
         offset="0.64999998"
         id="stop8" />
      <stop
         style="stop-color:#c6a40f;stop-opacity:1;"
         offset="0.80000001"
         id="stop7" />
    </linearGradient>
    <linearGradient
       xlink:href="#linearGradient19"
       id="linearGradient12"
       gradientUnits="userSpaceOnUse"
       gradientTransform="matrix(0.58333335,0,0,0.57377049,100.16667,-41.557377)"
       x1="-122"
       y1="193.85156"
       x2="-2"
       y2="193.85156" />
    <linearGradient
       id="linearGradient19">
      <stop
         style="stop-color:#987d0c;stop-opacity:1;"
         offset="0.5"
         id="stop13" />
      <stop
         style="stop-color:#a29e0c;stop-opacity:1;"
         offset="0.64999998"
         id="stop18" />
      <stop
         style="stop-color:#987e0b;stop-opacity:1;"
         offset="0.80000001"
         id="stop19" />
    </linearGradient>
    <radialGradient
       xlink:href="#linearGradient26"
       id="radialGradient27"
       cx="-55.309723"
       cy="159.40503"
       fx="-55.309723"
       fy="159.40503"
       r="48"
       gradientTransform="matrix(0.9583564,0.06339328,-0.03629295,0.54866435,128.26888,-35.514174)"
       gradientUnits="userSpaceOnUse" />
    <linearGradient
       id="linearGradient26">
      <stop
         style="stop-color:#d1cb0f;stop-opacity:1;"
         offset="0"
         id="stop26" />
      <stop
         style="stop-color:#2c0000;stop-opacity:1;"
         offset="1"
         id="stop27" />
    </linearGradient>
    <linearGradient
       xlink:href="#linearGradient3"
       id="linearGradient4"
       x1="-92.000023"
       y1="127.03845"
       x2="-31.999989"
       y2="230.96155"
       gradientUnits="userSpaceOnUse"
       gradientTransform="matrix(0.58333335,0,0,0.57377049,100.16667,-43.852459)" />
    <linearGradient
       id="linearGradient3">
      <stop
         style="stop-color:#b79f11;stop-opacity:1;"
         offset="0"
         id="stop3" />
      <stop
         style="stop-color:#603204;stop-opacity:1;"
         offset="1"
         id="stop4" />
    </linearGradient>
    <linearGradient
       xlink:href="#linearGradient20"
       id="linearGradient24"
       x1="-191.62593"
       y1="130.63799"
       x2="-183.84776"
       y2="130.63799"
       gradientUnits="userSpaceOnUse"
       gradientTransform="matrix(0.49208003,0.49208003,-0.33271493,0.33271493,175.15759,132.57509)" />
    <linearGradient
       id="linearGradient20">
      <stop
         style="stop-color:#777977;stop-opacity:0.99607843;"
         offset="0"
         id="stop20" />
      <stop
         style="stop-color:#ccd3d3;stop-opacity:1;"
         offset="0.5"
         id="stop22" />
      <stop
         style="stop-color:#777977;stop-opacity:0.99607843;"
         offset="1"
         id="stop21" />
    </linearGradient>
    <linearGradient
       xlink:href="#linearGradient20"
       id="linearGradient25"
       gradientUnits="userSpaceOnUse"
       gradientTransform="matrix(0.39275971,0.39275971,-0.2655605,0.2655605,197.18806,73.15335)"
       x1="-191.62593"
       y1="130.63799"
       x2="-183.84776"
       y2="130.63799" />
    <linearGradient
       xlink:href="#linearGradient20"
       id="linearGradient21"
       x1="7.751297"
       y1="89.311188"
       x2="11.616228"
       y2="89.311188"
       gradientUnits="userSpaceOnUse"
       gradientTransform="matrix(0.405717,0.405717,-0.405717,0.405717,96.306204,18.688518)" />
    <linearGradient
       xlink:href="#linearGradient10"
       id="linearGradient8"
       gradientUnits="userSpaceOnUse"
       x1="-92.000023"
       y1="127.03845"
       x2="-31.999989"
       y2="230.96155"
       gradientTransform="matrix(0.58333335,0,0,0.57377049,100.16667,-41.557377)" />
    <linearGradient
       id="linearGradient10">
      <stop
         style="stop-color:#311a02;stop-opacity:1;"
         offset="0"
         id="stop12" />
      <stop
         style="stop-color:#edd440;stop-opacity:1;"
         offset="0.41"
         id="stop14" />
      <stop
         style="stop-color:#311a02;stop-opacity:1;"
         offset="0.81"
         id="stop15" />
      <stop
         style="stop-color:#ebcf28;stop-opacity:1;"
         offset="1"
         id="stop16" />
    </linearGradient>
  </defs>
  <linearGradient
     id="a"
     gradientUnits="userSpaceOnUse"
     x1="11.999989"
     x2="115.999989"
     y1="64"
     y2="64">
    <stop
       offset="0"
       stop-color="#3d3846"
       id="stop252" />
    <stop
       offset="0.05"
       stop-color="#77767b"
       id="stop254" />
    <stop
       offset="0.1"
       stop-color="#5e5c64"
       id="stop256" />
    <stop
       offset="0.899999"
       stop-color="#504e56"
       id="stop258" />
    <stop
       offset="0.95"
       stop-color="#77767b"
       id="stop260" />
    <stop
       offset="1"
       stop-color="#3d3846"
       id="stop262" />
  </linearGradient>
  <linearGradient
     id="b"
     gradientUnits="userSpaceOnUse"
     x1="12"
     x2="112.041023"
     y1="60"
     y2="80.988281">
    <stop
       offset="0"
       stop-color="#77767b"
       id="stop265" />
    <stop
       offset="0.384443"
       stop-color="#9a9996"
       id="stop267" />
    <stop
       offset="0.720567"
       stop-color="#77767b"
       id="stop269" />
    <stop
       offset="1"
       stop-color="#68666f"
       id="stop271" />
  </linearGradient>
  <path
     d="m 20 22 h 88 c 4.417969 0 8 3.582031 8 8 v 78 c 0 4.417969 -3.582031 8 -8 8 h -88 c -4.417969 0 -8 -3.582031 -8 -8 v -78 c 0 -4.417969 3.582031 -8 8 -8 z m 0 0"
     fill="url(#a)"
     id="path274" />
  <path
     d="m 20 12 h 88 c 4.417969 0 8 3.582031 8 8 v 80 c 0 4.417969 -3.582031 8 -8 8 h -88 c -4.417969 0 -8 -3.582031 -8 -8 v -80 c 0 -4.417969 3.582031 -8 8 -8 z m 0 0"
     fill="url(#b)"
     id="path276" />
  <path
     d="m 20 14 h 88 c 3.3125 0 6 2.6875 6 6 v 80 c 0 3.3125 -2.6875 6 -6 6 h -88 c -3.3125 0 -6 -2.6875 -6 -6 v -80 c 0 -3.3125 2.6875 -6 6 -6 z m 0 0"
     fill="#241f31"
     id="path278" />
  <path
     id="path3"
     style="fill:#c29e0e;fill-opacity:1;stroke-width:0.154095"
     d="m 29.000002,61.06237 c -0.0011,-6.971369 15.669391,-12.622951 35,-12.622951 19.330603,0 35.000906,5.651582 35,12.622951 H 93.206859 C 92.256678,56.710579 79.425569,53.318689 64.000002,53.318764 48.574429,53.318689 35.74332,56.710579 34.793139,61.06237 Z" />
  <path
     id="path8"
     style="fill:url(#linearGradient8);stroke-width:0.120744"
     d="m 64.000002,27.295082 a 34.999996,33.852453 0 0 0 -35,33.852453 34.999996,33.852453 0 0 0 35,33.852465 34.999996,33.852453 0 0 0 35,-33.852465 34.999996,33.852453 0 0 0 -35,-33.852453 z m 0,5.516878 A 29.296294,28.335758 0 0 1 93.296109,61.147535 29.296294,28.335758 0 0 1 64.000002,89.483116 29.296294,28.335758 0 0 1 34.703889,61.147535 29.296294,28.335758 0 0 1 64.000002,32.81196 Z" />
  <path
     id="rect19"
     style="fill:url(#linearGradient21);stroke-width:0.114041"
     d="m 91.120457,30.163934 1.568069,1.568063 -55.808974,55.808981 -1.568069,-1.568069 z" />
  <path
     id="rect24"
     style="fill:url(#linearGradient25);stroke-width:0.091346"
     d="m 87.749223,32.066293 3.054955,3.054955 -1.032793,1.032787 -3.054949,-3.054949 z" />
  <path
     id="rect22"
     style="fill:url(#linearGradient24);stroke-width:0.114445"
     d="m 38.044059,81.098017 3.827485,3.827485 -1.333505,1.342342 c -2.679962,-2.335923 -3.788125,-3.876089 -3.788125,-3.876089 z" />
  <path
     id="path1"
     style="fill:url(#linearGradient4);stroke-width:0.120744"
     d="m 64.000002,25 a 34.999996,33.852453 0 0 0 -35,33.852453 34.999996,33.852453 0 0 0 35,33.852465 34.999996,33.852453 0 0 0 35,-33.852465 34.999996,33.852453 0 0 0 -35,-33.852453 z m 0,5.516878 A 29.296294,28.335758 0 0 1 93.296109,58.852453 29.296294,28.335758 0 0 1 64.000002,87.188034 29.296294,28.335758 0 0 1 34.703889,58.852453 29.296294,28.335758 0 0 1 64.000002,30.516878 Z" />
  <ellipse
     style="fill:url(#radialGradient27);stroke-width:0.157232"
     id="path25"
     cx="64"
     cy="58.852459"
     rx="27.540983"
     ry="26.393442" />
  <path
     id="path186"
     style="opacity:0.2;fill:#764e07;fill-opacity:1;stroke-width:1.04392"
     d="m 89.800521,62.903456 a 26.393443,27.540984 15 0 0 -0.0949,-10.388137 c -0.415978,-0.01561 -0.802992,-0.297914 -1.064746,-0.858424 -0.189758,-0.406103 -0.550447,-0.794873 -0.803715,-0.862733 -0.77412,-0.207429 -2.15658,0.19658 -2.483744,0.726692 -0.43486,0.703856 -1.157599,0.233972 -1.33125,-0.868344 -0.08068,-0.50956 -0.514695,-1.226716 -0.963235,-1.5923 -0.449469,-0.367264 -0.862635,-0.83942 -0.917975,-1.051136 -0.05698,-0.210734 -0.414894,-0.468506 -0.798281,-0.571234 -0.535701,-0.14354 -0.863513,0.03993 -1.407144,0.783134 -0.390146,0.531787 -0.747812,1.198153 -0.795831,1.48062 -0.280235,1.624155 -1.205429,1.494052 -2.58452,-0.360712 -0.732166,-0.985164 -0.870938,-1.402106 -0.619001,-1.872483 0.233633,-0.438183 0.174133,-0.727455 -0.218108,-1.060833 -0.416402,-0.351268 -0.479465,-0.761646 -0.281004,-1.765675 0.194199,-0.988056 0.119517,-1.473047 -0.298154,-1.974459 -0.304305,-0.366881 -0.506593,-0.832828 -0.452016,-1.036499 0.05474,-0.2042 -0.06916,-0.751548 -0.273941,-1.216176 -0.417619,-0.945683 -0.399803,-1.266174 0.08249,-1.429279 0.63875,-0.21521 0.573897,-1.066416 -0.191243,-2.511979 -0.675776,-1.278234 -0.897423,-1.469845 -1.763645,-1.536454 -1.541325,-0.118512 -3.063802,0.353167 -3.76935,1.168822 -0.615473,0.71182 -0.661959,0.716209 -1.037653,0.08393 -0.216587,-0.363782 -0.398942,-0.937271 -0.406981,-1.273862 -0.02444,-0.972438 -0.49354,-0.554027 -1.123202,1.000753 -0.643673,1.591548 -1.358998,1.94845 -1.941696,0.968238 -0.325294,-0.546717 -0.414836,-0.545828 -1.017445,0.03018 -1.178656,1.125187 -0.963722,2.328745 0.231545,1.296469 0.76852,-0.663382 0.840936,-0.03529 0.121823,1.047802 -0.57315,0.863686 -0.60605,1.056111 -0.283758,1.743121 0.658322,1.410529 -1.107182,2.27862 -1.904189,0.93652 -0.508613,-0.853932 -1.391141,-0.873721 -1.738588,-0.03661 -0.153047,0.369893 -0.712428,1.072532 -1.243848,1.563605 -0.530135,0.491423 -1.008694,1.054011 -1.060776,1.248358 -0.0521,0.194353 -0.577064,0.64213 -1.166865,0.994861 -1.194826,0.715658 -1.45728,1.219733 -0.870777,1.669368 0.704848,0.539838 1.148734,0.518178 2.318509,-0.114312 0.931499,-0.502291 3.21207,-1.113947 3.685827,-0.987006 0.291733,0.07817 -0.266098,1.171106 -0.87002,1.705533 -0.378579,0.333716 -0.902472,0.89783 -1.166601,1.253648 -0.28124,0.37835 -0.920678,0.678329 -1.545101,0.726451 -0.979673,0.07278 -1.089969,0.17531 -1.386729,1.282836 l -0.322528,1.203696 -2.146538,-0.380249 c -2.582117,-0.457892 -3.148663,-0.385609 -3.595826,0.451918 -0.329814,0.616431 -1.506153,1.053609 -2.278081,0.846771 -0.205243,-0.05503 -0.581356,-0.661948 -0.83576,-1.349313 -0.315413,-0.852095 -0.663801,-1.276869 -1.098747,-1.342049 -0.544009,-0.08156 -0.593704,-0.2275 -0.331674,-0.983368 0.169176,-0.486845 0.231178,-1.394573 0.13689,-2.013355 -0.11072,-0.733044 -0.01182,-1.468348 0.283041,-2.104131 0.338416,-0.731128 0.356495,-1.004328 0.06605,-1.082155 -0.214281,-0.05741 -0.542552,-0.43365 -0.731059,-0.83514 -0.463411,-0.991624 -0.913115,-0.754674 -1.02939,0.54674 -0.07262,0.808047 -0.212605,1.092798 -0.570993,1.13944 -0.761417,0.09988 -1.549404,-0.881426 -1.209353,-1.505103 0.216701,-0.395638 0.130033,-0.636037 -0.318719,-0.897527 -0.02083,-0.01188 -0.0412,-0.02421 -0.06081,-0.03718 a 26.393443,27.540984 15 0 0 -1.945833,3.282834 c 0.655819,-0.524989 1.729281,0.255127 1.696203,1.2469 -0.03328,1.022614 0.612477,1.033763 1.00901,0.01859 0.346442,-0.8902 1.508821,-1.624683 1.887607,-1.195038 0.253234,0.288997 -0.02634,1.153979 -0.909684,2.819118 -0.398025,0.752242 -0.175913,1.397854 1.296354,3.782645 0.853283,1.380004 1.106648,2.334414 0.863742,3.240937 -0.09274,0.346104 -0.113882,1.662408 -0.04871,2.926843 0.125312,2.387689 -0.131347,3.240008 -0.887967,2.950236 -1.573789,-0.60146 -1.806855,0.486776 -0.579709,2.691747 0.510633,0.91867 0.842439,1.722436 0.739223,1.787513 -0.400618,0.250767 -1.752995,-0.75592 -2.177826,-1.623065 -0.538472,-1.09877 -1.017209,-1.274166 -1.615847,-0.594231 -0.329126,0.371224 -0.811007,0.437357 -1.801209,0.244799 l -1.351172,-0.265747 -0.298166,1.112765 c -0.03816,0.142461 -0.08016,0.275088 -0.12709,0.396372 a 26.393443,27.540984 15 0 0 17.612339,19.139061 c 0.910665,-0.165125 1.404142,-0.0046 1.863704,0.50054 a 26.393443,27.540984 15 0 0 1.50232,0.281888 c 0.07571,-0.236256 0.151751,-0.476958 0.215595,-0.761319 0.305332,-1.35633 1.125904,-2.367882 1.779078,-2.192865 0.138118,0.03701 0.834658,-0.287527 1.546891,-0.720168 0.806848,-0.491468 1.454749,-0.679883 1.717502,-0.503902 0.23909,0.161063 0.716283,0.08087 1.096165,-0.185437 0.370932,-0.258719 0.896448,-0.411818 1.167532,-0.339179 0.432433,0.115868 0.562134,-0.153282 1.064023,-2.217399 l 0.570419,-2.349659 -2.242473,-0.559105 c -3.927258,-0.978118 -5.10335,-0.648808 -4.945029,1.378197 0.07356,0.92855 -0.711803,2.950752 -1.326202,3.421026 -0.222646,0.170037 -0.904056,0.320141 -1.515896,0.331685 -0.610922,0.0132 -1.75634,0.359347 -2.543788,0.773259 -1.596551,0.836288 -2.12127,0.794495 -3.442629,-0.284354 -1.153497,-0.941116 -0.83199,-1.537206 0.556643,-1.029586 l 1.033705,0.376755 0.08665,-1.046465 c 0.04607,-0.579767 -0.162801,-1.378369 -0.470824,-1.793332 -0.437942,-0.591023 -0.464903,-0.819275 -0.121783,-1.082595 0.240198,-0.183888 0.666922,-0.270286 0.94574,-0.195576 0.27883,0.07471 0.664989,-0.127245 0.859709,-0.446026 0.195065,-0.320107 0.829162,-0.65932 1.411797,-0.752884 0.931539,-0.151304 1.182897,-0.07417 2.075712,0.631595 0.905577,0.714906 1.074282,0.764767 1.561287,0.460112 0.445826,-0.280023 0.509629,-0.470739 0.355606,-1.037044 -0.153312,-0.568974 -0.07068,-0.796153 0.467072,-1.27983 0.358807,-0.321885 0.751725,-0.947983 0.870146,-1.38993 0.24076,-0.898536 0.736698,-1.056753 2.138569,-0.681123 1.294724,0.346919 1.978068,-0.32367 2.316879,-2.264557 0.234936,-1.346663 0.397405,-1.613919 1.474275,-2.462486 0.665074,-0.525172 2.11925,-1.245868 3.235974,-1.602942 1.116729,-0.357069 2.288839,-0.749551 2.603896,-0.872011 0.454989,-0.174845 0.802097,-0.0084 1.693478,0.811105 l 1.119971,1.033326 0.198072,-1.496927 c 0.352203,-2.662083 0.168981,-3.268105 -0.703144,-2.316168 -0.338881,0.371459 -0.458621,0.359094 -0.7425,-0.07365 -0.184186,-0.283339 -0.542884,-0.489242 -0.796691,-0.455952 -0.252517,0.03362 -0.757659,-0.230449 -1.120729,-0.58454 -0.364006,-0.355773 -0.909805,-0.71785 -1.216181,-0.808506 -0.954904,-0.282978 -1.265996,-2.186553 -0.656813,-4.052151 0.921906,-2.826158 0.940829,-3.070929 0.297185,-4.334842 -0.805281,-1.579733 -1.294621,-1.88557 -2.517011,-1.578213 -1.186414,0.297024 -1.871524,1.205555 -2.25929,2.993498 -0.346867,1.599168 -0.530428,1.741147 -1.445793,1.109231 -0.777315,-0.537858 -0.831393,-1.656034 -0.107151,-2.211002 0.558474,-0.426765 0.735665,-2.366751 0.281268,-3.097724 -0.189167,-0.306072 -0.761055,-0.83934 -1.266989,-1.181777 -0.8738,-0.590823 -0.90701,-0.703242 -0.646937,-2.231503 0.25807,-1.525937 0.343665,-1.657778 1.586963,-2.471734 1.386189,-0.908354 2.255842,-0.891313 3.506202,0.06007 0.553706,0.4223 0.605248,0.638273 0.301287,1.287311 -0.600479,1.285814 -0.289519,1.939976 1.108473,2.314567 0.677709,0.181593 1.348022,0.215853 1.488125,0.07505 0.139754,-0.139467 0.534835,-0.179218 0.879482,-0.08687 0.344658,0.09235 0.834681,0.04108 1.084896,-0.11305 0.364947,-0.226077 0.505297,-0.142089 0.706633,0.428342 0.137441,0.390652 0.144676,0.974521 0.01675,1.296934 -0.127549,0.321076 -0.233966,1.27587 -0.23765,2.120937 -0.0075,1.220702 0.128376,1.617287 0.669177,1.927691 1.026499,0.588929 1.721805,1.541033 1.561299,2.140055 -0.253601,0.946457 1.899272,1.54467 5.285091,1.466023 0.499795,-0.01159 0.894692,-0.306766 1.230382,-0.924476 0.272472,-0.50054 0.781791,-0.987436 1.133266,-1.081592 0.351102,-0.09282 0.684761,-0.347355 0.742901,-0.564337 0.05814,-0.216977 0.423683,-0.573656 0.811678,-0.790708 0.390773,-0.219157 0.807904,-0.776604 0.935241,-1.251829 0.301395,-1.124831 1.057809,-0.942309 1.154948,0.2793 0.103089,1.290283 -0.937323,2.977031 -1.95957,3.178224 -1.386011,0.272076 -1.052937,1.076445 0.740595,1.786721 2.218345,0.878333 2.65705,1.869579 1.969008,4.437397 l -0.494527,1.845591 1.001447,-0.598317 C 89.1977,63.094465 89.504725,62.975093 89.80048,62.903417 Z M 59.048489,85.649497 a 26.393443,27.540984 15 0 1 -0.250962,-0.02898 26.727804,27.562406 15 0 0 0.248351,0.03873 c 0.0011,-0.0029 0.0017,-0.0067 0.0023,-0.0098 z m -0.250962,-0.02898 a 26.393443,27.540984 15 0 1 -1.251353,-0.252924 c 0.0072,0.0079 0.01417,0.01624 0.02134,0.02427 a 26.727804,27.562406 15 0 0 1.230015,0.228642 z M 86.490979,72.11136 c -0.01119,-0.02318 -0.02301,-0.04642 -0.03689,-0.07021 -0.445848,-0.781469 -0.455258,-1.095678 -0.0583,-2.012287 0.692995,-1.600585 -0.01589,-1.56057 -1.295992,0.07388 -0.691973,0.883205 -1.347454,1.394675 -1.895962,1.481682 -2.646103,0.418106 -4.113923,0.80185 -4.340384,1.130672 -0.458936,0.664587 -0.0498,1.242827 1.250624,1.766766 1.492027,0.600955 1.674968,1.226354 0.572836,1.966845 -0.427821,0.287705 -0.83646,0.740301 -0.907441,1.0052 -0.221504,0.826654 -0.706105,1.351516 -1.140736,1.235058 -0.228992,-0.06136 -0.856118,0.07104 -1.394286,0.293506 -0.792227,0.328455 -1.042007,0.628434 -1.294541,1.570904 -0.309428,1.154799 -0.7086,1.807537 -1.867875,3.043846 A 26.393443,27.540984 15 0 0 86.490979,72.11136 Z M 70.813475,31.921875 a 26.727804,27.562406 15 0 0 -0.100594,-0.03161 26.393443,27.540984 15 0 0 -5.127448,-0.785681 c -0.618066,0.842422 -0.531553,1.145918 0.303008,1.475721 0.436634,0.172475 0.881851,0.552156 0.99264,0.84607 0.170324,0.45383 0.327571,0.422789 1.052967,-0.219054 0.469654,-0.415456 1.187303,-0.756826 1.592918,-0.757721 0.393131,-5.74e-4 0.882683,-0.228894 1.286509,-0.527737 z m -10.763636,6.046939 c 0.0046,-0.01572 0.0084,-0.03242 0.01199,-0.049 0.04877,-0.232073 -0.01314,-0.533704 -0.206178,-0.897532 -0.464519,-0.879068 -1.80518,-1.124252 -2.537902,-0.465397 -0.840092,0.754927 -0.762208,1.153181 0.303989,1.562997 1.314652,0.504924 2.210658,0.425508 2.412401,-0.10539 0.0059,-0.01509 0.01113,-0.02995 0.01572,-0.04567 z m -5.129715,3.517964 c 0.06379,-0.273958 -0.04481,-0.62378 -0.362158,-1.02982 -0.33557,-0.430907 -0.855997,-0.663164 -1.713314,-0.763046 -1.054917,-0.121444 -1.253906,-0.244988 -1.379688,-0.865085 -0.159847,-0.79757 -1.156882,-1.225924 -1.845745,-0.792733 -0.685214,0.429903 -0.692099,1.013015 -0.01687,1.405107 0.962942,0.55763 0.664707,2.156527 -0.554061,2.977059 -0.519923,0.350058 -0.821841,0.669642 -0.669522,0.710455 0.152319,0.0408 0.83358,-0.286914 1.510595,-0.72757 1.038243,-0.673435 1.423237,-0.746338 2.453339,-0.47032 1.453498,0.389464 2.434956,0.159818 2.577394,-0.444047 z m -7.721339,-0.314736 c 0.0081,-0.03104 0.0113,-0.06018 0.0096,-0.08791 -0.0091,-0.146558 -0.157655,-0.247593 -0.445516,-0.324725 -0.291734,-0.07817 -0.546746,-0.352496 -0.566587,-0.608926 -0.02691,-0.333337 -0.342495,-0.499094 -1.165534,-0.603509 a 26.393443,27.540984 15 0 0 -0.904486,1.007151 c 0.339236,0.127045 0.709777,0.32445 1.124016,0.615593 1.008379,0.708193 1.283639,0.798086 1.569016,0.517868 0.216747,-0.213179 0.344096,-0.380898 0.379457,-0.515539 z" />
  <path
     id="path12"
     style="fill:url(#linearGradient12);stroke-width:0.154095"
     d="m 29.000002,63.357452 c -0.0011,6.971369 15.669391,12.622951 35,12.622951 19.330603,0 35.000906,-5.651582 35,-12.622951 V 61.06237 l -5.860389,2.295082 C 92.189432,67.709243 79.425569,71.101133 64.000002,71.101059 48.574429,71.101133 35.810571,67.709243 34.86039,63.357452 L 29.000002,61.06237 Z" />
  <path
     id="path2"
     style="fill:url(#linearGradient7);stroke-width:0.154095"
     d="m 29.000002,61.06237 c -0.0011,6.971369 15.669391,12.622951 35,12.622951 19.330603,0 35.000906,-5.651582 35,-12.622951 h -5.793143 c -0.950181,4.351791 -13.78129,7.743681 -29.206857,7.743607 -15.425573,7.4e-5 -28.256688,-3.391816 -29.206863,-7.743607 z" />
</svg>
