<?xml version="1.0" encoding="UTF-8" standalone="no"?>
<svg
   width="128"
   height="128"
   version="1"
   id="svg198"
   xml:space="preserve"
   xmlns:xlink="http://www.w3.org/1999/xlink"
   xmlns="http://www.w3.org/2000/svg"
   xmlns:svg="http://www.w3.org/2000/svg"><defs
     id="defs202"><linearGradient
       id="linearGradient26"><stop
         style="stop-color:#d1cb0f;stop-opacity:1;"
         offset="0"
         id="stop26" /><stop
         style="stop-color:#2c0000;stop-opacity:1;"
         offset="1"
         id="stop27" /></linearGradient><linearGradient
       id="linearGradient20"><stop
         style="stop-color:#777977;stop-opacity:0.99607843;"
         offset="0"
         id="stop20" /><stop
         style="stop-color:#ccd3d3;stop-opacity:1;"
         offset="0.5"
         id="stop22" /><stop
         style="stop-color:#777977;stop-opacity:0.99607843;"
         offset="1"
         id="stop21" /></linearGradient><linearGradient
       id="linearGradient19"><stop
         style="stop-color:#987d0c;stop-opacity:1;"
         offset="0.5"
         id="stop13" /><stop
         style="stop-color:#a29e0c;stop-opacity:1;"
         offset="0.64999998"
         id="stop18" /><stop
         style="stop-color:#987e0b;stop-opacity:1;"
         offset="0.80000001"
         id="stop19" /></linearGradient><linearGradient
       id="linearGradient10"><stop
         style="stop-color:#311a02;stop-opacity:1;"
         offset="0"
         id="stop9" /><stop
         style="stop-color:#edd440;stop-opacity:1;"
         offset="0.41"
         id="stop11" /><stop
         style="stop-color:#311a02;stop-opacity:1;"
         offset="0.81"
         id="stop12" /><stop
         style="stop-color:#ebcf28;stop-opacity:1;"
         offset="1"
         id="stop10" /></linearGradient><linearGradient
       id="linearGradient6"><stop
         style="stop-color:#c6a40f;stop-opacity:1;"
         offset="0.5"
         id="stop6" /><stop
         style="stop-color:#d2cd0f;stop-opacity:1;"
         offset="0.64999998"
         id="stop8" /><stop
         style="stop-color:#c6a40f;stop-opacity:1;"
         offset="0.80000001"
         id="stop7" /></linearGradient><linearGradient
       id="linearGradient3"><stop
         style="stop-color:#b79f11;stop-opacity:1;"
         offset="0"
         id="stop3" /><stop
         style="stop-color:#603204;stop-opacity:1;"
         offset="1"
         id="stop4" /></linearGradient><linearGradient
       xlink:href="#linearGradient3"
       id="linearGradient4"
       x1="-92.000023"
       y1="127.03845"
       x2="-31.999989"
       y2="230.96155"
       gradientUnits="userSpaceOnUse"
       gradientTransform="matrix(1.0166667,0,0,1,127.03333,-117)" /><linearGradient
       xlink:href="#linearGradient6"
       id="linearGradient7"
       x1="-122"
       y1="193.85156"
       x2="-2"
       y2="193.85156"
       gradientUnits="userSpaceOnUse"
       gradientTransform="matrix(1.0166667,0,0,1,127.03333,-117)" /><linearGradient
       xlink:href="#linearGradient10"
       id="linearGradient8"
       gradientUnits="userSpaceOnUse"
       x1="-92.000023"
       y1="127.03845"
       x2="-31.999989"
       y2="230.96155"
       gradientTransform="matrix(1.0166667,0,0,1,127.03333,-113)" /><linearGradient
       xlink:href="#linearGradient19"
       id="linearGradient12"
       gradientUnits="userSpaceOnUse"
       gradientTransform="matrix(1.0166667,0,0,1,127.03333,-113)"
       x1="-122"
       y1="193.85156"
       x2="-2"
       y2="193.85156" /><linearGradient
       xlink:href="#linearGradient20"
       id="linearGradient21"
       x1="7.751297"
       y1="89.311186"
       x2="11.616228"
       y2="89.311186"
       gradientUnits="userSpaceOnUse"
       gradientTransform="rotate(45,69.809415,141.22109)" /><linearGradient
       xlink:href="#linearGradient20"
       id="linearGradient24"
       x1="-191.62593"
       y1="130.63799"
       x2="-183.84776"
       y2="130.63799"
       gradientUnits="userSpaceOnUse"
       gradientTransform="matrix(0.85762519,0.85762519,-0.5798746,0.5798746,257.73179,190.48802)" /><linearGradient
       xlink:href="#linearGradient20"
       id="linearGradient25"
       gradientUnits="userSpaceOnUse"
       gradientTransform="matrix(0.68452406,0.68452406,-0.46283401,0.46283401,296.12776,86.92441)"
       x1="-191.62593"
       y1="130.63799"
       x2="-183.84776"
       y2="130.63799" /><radialGradient
       xlink:href="#linearGradient26"
       id="radialGradient27"
       cx="-55.309723"
       cy="159.40503"
       fx="-55.309723"
       fy="159.40503"
       r="48"
       gradientTransform="matrix(1.6702783,0.11048543,-0.06325342,0.95624358,176.01148,-102.46756)"
       gradientUnits="userSpaceOnUse" /></defs><path
     id="path3"
     style="fill:#c29e0e;fill-opacity:1;stroke-width:0.268565"
     d="m 3,65.85156 c -0.002,-12.1501 27.309513,-22 60.999998,-22 33.690486,0 61.001582,9.8499 61.000002,22 H 114.90338 C 113.24735,58.26701 90.884563,52.35543 63.999998,52.35556 37.115434,52.35543 14.75264,58.26701 13.09661,65.85156 Z" /><path
     id="path8"
     style="fill:url(#linearGradient8);stroke-width:0.210439"
     d="M 63.999998,7 A 60.999994,58.99999 0 0 0 3,65.99999 60.999994,58.99999 0 0 0 63.999998,125 60.999994,58.99999 0 0 0 125,65.99999 60.999994,58.99999 0 0 0 63.999998,7 Z m 0,9.61513 A 51.059255,49.385178 0 0 1 115.05893,65.99999 51.059255,49.385178 0 0 1 63.999998,115.38486 51.059255,49.385178 0 0 1 12.94106,65.99999 51.059255,49.385178 0 0 1 63.999998,16.61513 Z" /><path
     id="rect19"
     style="fill:url(#linearGradient21);stroke-width:0.198758"
     d="M 111.26708,12 114,14.73291 16.73293,111.99999 14.00001,109.26707 Z" /><path
     id="rect24"
     style="fill:url(#linearGradient25);stroke-width:0.159203"
     d="m 105.3915,15.31554 5.32435,5.32435 -1.80001,1.8 -5.32434,-5.32434 z" /><path
     id="rect22"
     style="fill:url(#linearGradient24);stroke-width:0.199461"
     d="m 18.7625,100.77083 6.670757,6.67076 -2.324107,2.33951 c -4.67079,-4.07118 -6.60216,-6.75547 -6.60216,-6.75547 z" /><path
     id="path1"
     style="fill:url(#linearGradient4);stroke-width:0.210439"
     d="M 63.999998,3 A 60.999994,58.99999 0 0 0 3,61.99999 60.999994,58.99999 0 0 0 63.999998,121 60.999994,58.99999 0 0 0 125,61.99999 60.999994,58.99999 0 0 0 63.999998,3 Z m 0,9.61513 A 51.059255,49.385178 0 0 1 115.05893,61.99999 51.059255,49.385178 0 0 1 63.999998,111.38486 51.059255,49.385178 0 0 1 12.94106,61.99999 51.059255,49.385178 0 0 1 63.999998,12.61513 Z" /><ellipse
     style="fill:url(#radialGradient27);stroke-width:0.274033"
     id="path25"
     cx="64"
     cy="62"
     rx="48"
     ry="46" /><path
     id="path186"
     style="opacity:0.2;fill:#764e07;fill-opacity:1;stroke-width:1.8194"
     d="m 108.96662,69.06031 a 46,48 15 0 0 -0.1654,-18.10504 c -0.72499,-0.0272 -1.3995,-0.51922 -1.8557,-1.49611 -0.33072,-0.70778 -0.95935,-1.38535 -1.40076,-1.50362 -1.34918,-0.36152 -3.75861,0.34261 -4.32881,1.26652 -0.7579,1.22672 -2.017525,0.40778 -2.32018,-1.5134 -0.140607,-0.88809 -0.897043,-2.13799 -1.678781,-2.77515 -0.783357,-0.64009 -1.503449,-1.46299 -1.599895,-1.83198 -0.09932,-0.36728 -0.723103,-0.81654 -1.391292,-0.99558 -0.933654,-0.25017 -1.504978,0.0696 -2.452455,1.36489 -0.67997,0.92683 -1.303327,2.08821 -1.387015,2.58051 -0.488413,2.83067 -2.10089,2.60392 -4.504455,-0.62867 -1.276058,-1.717 -1.517912,-2.44367 -1.078823,-3.26347 0.407182,-0.76369 0.303487,-1.26785 -0.380136,-1.84888 -0.725728,-0.61221 -0.835638,-1.32744 -0.489749,-3.07732 0.338459,-1.72204 0.208306,-2.56731 -0.519638,-3.4412 -0.530357,-0.63942 -0.882918,-1.4515 -0.787805,-1.80647 0.09536,-0.35589 -0.120536,-1.30984 -0.47744,-2.11962 -0.727849,-1.64819 -0.696792,-2.20676 0.143765,-2.49103 1.113249,-0.37508 1.000215,-1.85861 -0.333313,-4.37802 -1.177779,-2.22778 -1.564079,-2.56173 -3.073776,-2.67782 -2.686313,-0.20655 -5.339767,0.61552 -6.569445,2.03709 -1.072681,1.2406 -1.153692,1.24825 -1.808474,0.14628 -0.377485,-0.63402 -0.695301,-1.63353 -0.709309,-2.22016 -0.0426,-1.69482 -0.860176,-0.96559 -1.957588,1.74417 -1.121827,2.77384 -2.36854,3.39587 -3.384095,1.6875 -0.566944,-0.95285 -0.723003,-0.9513 -1.773258,0.0526 -2.054229,1.96104 -1.679634,4.05867 0.403543,2.25956 1.339422,-1.15618 1.465636,-0.0615 0.212328,1.82617 -0.998923,1.50528 -1.056266,1.84065 -0.494558,3.03801 1.14736,2.45835 -1.929652,3.97131 -3.31873,1.63222 -0.88644,-1.48828 -2.424555,-1.52277 -3.030105,-0.0638 -0.266741,0.64467 -1.24166,1.86927 -2.167854,2.72514 -0.923947,0.85648 -1.758011,1.83699 -1.848773,2.17571 -0.09076,0.33873 -1.005743,1.11914 -2.033681,1.7339 -2.08241,1.24729 -2.539836,2.12582 -1.517639,2.90947 1.228444,0.94086 2.002077,0.90311 4.040822,-0.19923 1.623475,-0.87542 5.598189,-1.94145 6.423872,-1.72021 0.508454,0.13624 -0.463771,2.04107 -1.516318,2.9725 -0.659806,0.58162 -1.572881,1.56479 -2.033223,2.18493 -0.490158,0.65941 -1.604606,1.18223 -2.692886,1.2661 -1.70743,0.12684 -1.89966,0.30554 -2.416873,2.2358 l -0.562122,2.09787 -3.741109,-0.66272 c -4.500256,-0.79804 -5.487667,-0.67206 -6.267007,0.78763 -0.57482,1.07435 -2.625012,1.83629 -3.970373,1.4758 -0.357711,-0.0959 -1.013221,-1.15368 -1.456608,-2.35166 -0.549714,-1.48508 -1.156906,-2.2254 -1.914954,-2.339 -0.948134,-0.14215 -1.034747,-0.3965 -0.578064,-1.71387 0.294854,-0.8485 0.402909,-2.43054 0.238582,-3.50899 -0.192969,-1.27759 -0.02062,-2.55912 0.493301,-3.6672 0.589807,-1.27425 0.621317,-1.7504 0.115114,-1.88604 -0.373456,-0.10006 -0.945585,-0.75579 -1.274124,-1.45553 -0.807664,-1.72826 -1.591435,-1.31529 -1.794088,0.95289 -0.12657,1.40831 -0.37054,1.90459 -0.995154,1.98588 -1.32704,0.17407 -2.700396,-1.5362 -2.107729,-2.62318 0.377674,-0.68954 0.226628,-1.10852 -0.555478,-1.56426 -0.03627,-0.0207 -0.07181,-0.0422 -0.105981,-0.0648 a 46,48 15 0 0 -3.391314,5.72151 c 1.143,-0.91498 3.013893,0.44465 2.956245,2.17317 -0.05799,1.78227 1.067457,1.8017 1.758559,0.0324 0.603797,-1.55149 2.629652,-2.83159 3.289831,-2.08278 0.441346,0.50368 -0.04586,2.01122 -1.585454,4.91332 -0.693703,1.31105 -0.306587,2.43626 2.259364,6.59261 1.487142,2.40515 1.928721,4.06855 1.505376,5.64849 -0.161628,0.60321 -0.19848,2.89734 -0.08486,5.10107 0.218403,4.1614 -0.228918,5.64687 -1.5476,5.14184 -2.742891,-1.04826 -3.149089,0.84838 -1.010351,4.69133 0.889965,1.60111 1.468255,3.00196 1.288358,3.11538 -0.698217,0.43705 -3.055221,-1.31746 -3.795633,-2.82877 -0.93848,-1.915 -1.772851,-2.22069 -2.816192,-1.03566 -0.573623,0.64699 -1.413473,0.76225 -3.139253,0.42665 l -2.3549,-0.46316 -0.51966,1.93939 c -0.0665,0.24829 -0.13971,0.47944 -0.2215,0.69082 a 46,48 15 0 0 30.695789,33.35665 c 1.587158,-0.28779 2.447225,-0.008 3.248174,0.87237 a 46,48 15 0 0 2.618323,0.49129 c 0.131956,-0.41176 0.264489,-0.83127 0.375751,-1.32687 0.532153,-2.36389 1.96229,-4.12688 3.100682,-3.82185 0.240718,0.0645 1.454696,-0.50112 2.696009,-1.25515 1.406219,-0.85656 2.535418,-1.18494 2.99336,-0.87823 0.416705,0.28071 1.248386,0.14095 1.910465,-0.32319 0.646482,-0.45091 1.562381,-0.71774 2.034835,-0.59114 0.753673,0.20194 0.979725,-0.26715 1.854443,-3.86461 l 0.99416,-4.09512 -3.908309,-0.97444 c -6.844653,-1.70472 -8.894412,-1.13078 -8.618482,2.402 0.128204,1.61833 -1.24057,5.14274 -2.311379,5.96236 -0.388045,0.29635 -1.575641,0.55796 -2.641994,0.57808 -1.064743,0.023 -3.061047,0.62629 -4.43346,1.34768 -2.782561,1.45753 -3.697069,1.38469 -6.000009,-0.49559 -2.010378,-1.64023 -1.450038,-2.67913 0.970149,-1.79442 l 1.801599,0.65663 0.151011,-1.82384 c 0.08026,-1.01045 -0.283737,-2.4023 -0.820576,-3.12552 -0.763267,-1.03007 -0.810259,-1.42788 -0.212252,-1.88681 0.418633,-0.32049 1.162349,-0.47107 1.648296,-0.34086 0.485958,0.13021 1.15898,-0.22177 1.498341,-0.77736 0.339978,-0.5579 1.445119,-1.1491 2.460565,-1.31217 1.623542,-0.2637 2.061616,-0.12927 3.617666,1.10078 1.578298,1.24598 1.872323,1.33288 2.7211,0.80191 0.777012,-0.48804 0.888209,-0.82043 0.619775,-1.80742 -0.2672,-0.99164 -0.123177,-1.38758 0.814036,-2.23056 0.625348,-0.561 1.310155,-1.6522 1.516543,-2.42245 0.419612,-1.56602 1.283955,-1.84177 3.727216,-1.1871 2.256519,0.60463 3.447492,-0.56411 4.037998,-3.9468 0.40946,-2.34704 0.692615,-2.81283 2.569441,-4.29176 1.159134,-0.9153 3.693557,-2.17137 5.639846,-2.7937 1.946297,-0.62232 3.989116,-1.30636 4.538215,-1.51979 0.792981,-0.30473 1.397945,-0.0147 2.951495,1.41364 l 1.951952,1.80094 0.345203,-2.60893 c 0.613841,-4.63963 0.294517,-5.69584 -1.225478,-4.03675 -0.590614,0.6474 -0.799307,0.62585 -1.29407,-0.12837 C 83.12336,68.61274 82.4982,68.25388 82.055848,68.3119 81.615749,68.3705 80.735357,67.91026 80.10258,67.29313 79.468168,66.67307 78.516922,66.04202 77.982951,65.88402 76.318689,65.39083 75.776499,62.07317 76.838216,58.8217 c 1.606756,-4.92559 1.639733,-5.35219 0.517951,-7.55501 -1.403489,-2.75325 -2.256341,-3.28628 -4.386791,-2.7506 -2.067749,0.51767 -3.261798,2.10111 -3.93762,5.21724 -0.604538,2.78712 -0.924456,3.03457 -2.519808,1.93323 -1.354751,-0.93741 -1.449002,-2.88623 -0.186743,-3.85346 0.973332,-0.74379 1.282154,-4.12491 0.490208,-5.39889 -0.32969,-0.53344 -1.326413,-1.46285 -2.208181,-2.05967 -1.522911,-1.02972 -1.580792,-1.22565 -1.127523,-3.88919 0.449785,-2.65949 0.598959,-2.88927 2.765847,-4.30788 2.415934,-1.58313 3.931614,-1.55343 6.110815,0.10469 0.965029,0.73601 1.054858,1.11242 0.525094,2.2436 -1.046549,2.24099 -0.504585,3.3811 1.931915,4.03396 1.181153,0.31649 2.349406,0.3762 2.593589,0.1308 0.243571,-0.24307 0.932136,-0.31235 1.532816,-0.1514 0.60069,0.16095 1.454725,0.0716 1.890811,-0.19703 0.636053,-0.39402 0.880662,-0.24764 1.231568,0.74654 0.239534,0.68085 0.25215,1.69845 0.02925,2.26037 -0.222308,0.55959 -0.40777,2.22366 -0.414195,3.69649 -0.01306,2.12751 0.223741,2.8187 1.166278,3.35969 1.789043,1.02642 3.000867,2.6858 2.721125,3.72981 -0.441993,1.64954 3.310153,2.69214 9.211162,2.55507 0.871066,-0.0202 1.559319,-0.53465 2.144373,-1.61123 0.474888,-0.87237 1.362556,-1.72096 1.975121,-1.88506 0.611922,-0.16178 1.193442,-0.60539 1.294772,-0.98356 0.10133,-0.37816 0.73842,-0.9998 1.41464,-1.37809 0.68106,-0.38196 1.40806,-1.35351 1.62999,-2.18176 0.52529,-1.96042 1.84361,-1.64231 2.01291,0.48678 0.17967,2.24878 -1.63362,5.18854 -3.41525,5.53919 -2.415619,0.47419 -1.835117,1.87609 1.29075,3.114 3.86626,1.53081 4.63086,3.25841 3.4317,7.73375 l -0.86189,3.2166 1.74538,-1.04278 c 0.47779,-0.28469 1.01289,-0.49274 1.52835,-0.61766 z m -53.596399,39.6431 a 46,48 15 0 1 -0.437391,-0.0505 46.582745,48.037336 15 0 0 0.432841,0.0675 c 0.0017,-0.005 0.0029,-0.0117 0.0045,-0.017 z m -0.437391,-0.0505 a 46,48 15 0 1 -2.180932,-0.44081 c 0.01246,0.0137 0.02471,0.0283 0.03719,0.0423 a 46.582745,48.037336 15 0 0 2.143738,0.39849 z m 48.26573,-23.54454 c -0.0195,-0.0404 -0.0401,-0.0809 -0.0643,-0.12237 -0.77705,-1.36199 -0.79345,-1.90961 -0.10161,-3.50713 1.20779,-2.78959 -0.0277,-2.71985 -2.25873,0.12877 -1.206015,1.5393 -2.348417,2.43072 -3.304389,2.58236 -4.611783,0.7287 -7.169983,1.39751 -7.564667,1.9706 -0.79986,1.15828 -0.08679,2.16607 2.17966,3.07922 2.600382,1.04738 2.91923,2.13736 0.998364,3.42793 -0.745627,0.50143 -1.457833,1.29024 -1.581542,1.75192 -0.386043,1.44074 -1.23064,2.3555 -1.988139,2.15253 -0.399101,-0.10694 -1.492085,0.12381 -2.430037,0.51154 -1.380739,0.57245 -1.816069,1.09527 -2.256198,2.73786 -0.53929,2.01265 -1.234996,3.15028 -3.255439,5.30499 A 46,48 15 0 0 103.19856,85.10837 Z M 75.874908,15.06384 a 46.582745,48.037336 15 0 0 -0.17532,-0.0551 46,48 15 0 0 -8.936412,-1.36933 c -1.077198,1.46822 -0.926412,1.99717 0.5281,2.57197 0.760998,0.3006 1.53694,0.96233 1.73003,1.47458 0.296849,0.79096 0.570919,0.73686 1.835174,-0.38178 0.818537,-0.72408 2.069303,-1.31904 2.776233,-1.3206 0.68517,-10e-4 1.53839,-0.39893 2.242195,-0.91977 z M 57.115433,25.60279 c 0.008,-0.0274 0.01468,-0.0565 0.02087,-0.0854 0.08498,-0.40447 -0.02287,-0.93017 -0.35934,-1.56427 -0.809593,-1.53209 -3.146173,-1.95941 -4.423205,-0.81112 -1.464154,1.31573 -1.328418,2.00983 0.529808,2.72408 2.291251,0.88001 3.852863,0.7416 4.204475,-0.18368 0.01016,-0.0263 0.01939,-0.0522 0.0274,-0.0796 z m -8.940365,6.13131 c 0.111168,-0.47747 -0.07813,-1.08716 -0.63119,-1.79483 -0.584852,-0.75101 -1.491882,-1.1558 -2.986059,-1.32988 -1.838566,-0.21166 -2.185384,-0.42698 -2.404599,-1.50772 -0.27859,-1.39005 -2.016278,-2.13661 -3.216873,-1.38162 -1.194223,0.74926 -1.206225,1.76554 -0.02935,2.4489 1.678277,0.97187 1.158497,3.75852 -0.965649,5.18859 -0.906152,0.6101 -1.432352,1.16709 -1.166877,1.23822 0.265465,0.0711 1.452807,-0.50005 2.632745,-1.26805 1.809514,-1.1737 2.480502,-1.30076 4.27582,-0.8197 2.533247,0.67878 4.24378,0.27854 4.492032,-0.77391 z M 34.717879,31.18556 c 0.01422,-0.0541 0.01966,-0.10489 0.01679,-0.15322 -0.01593,-0.25543 -0.274767,-0.43152 -0.776468,-0.56595 -0.508454,-0.13624 -0.952904,-0.61435 -0.987481,-1.06127 -0.0469,-0.58096 -0.596917,-0.86985 -2.031363,-1.05183 a 46,48 15 0 0 -1.576386,1.75532 c 0.591238,0.22142 1.237037,0.56547 1.958999,1.07289 1.757457,1.23428 2.237205,1.39095 2.734574,0.90257 0.377755,-0.37154 0.599702,-0.66385 0.661337,-0.89851 z" /><path
     id="path12"
     style="fill:url(#linearGradient12);stroke-width:0.268565"
     d="m 3,69.85156 c -0.002,12.1501 27.309513,22 60.999998,22 33.690486,0 61.001582,-9.8499 61.000002,-22 v -4 l -10.21382,4 C 113.13015,77.43611 90.884563,83.34769 63.999998,83.34756 37.115434,83.34769 14.86985,77.43611 13.21382,69.85156 L 3,65.85156 Z" /><path
     id="path2"
     style="fill:url(#linearGradient7);stroke-width:0.268565"
     d="m 3,65.85156 c -0.002,12.1501 27.309513,22 60.999998,22 33.690486,0 61.001582,-9.8499 61.000002,-22 h -10.09662 c -1.65603,7.58455 -24.018817,13.49613 -50.903382,13.496 -26.884564,1.3e-4 -49.247368,-5.91145 -50.903388,-13.496 z" /></svg>
