<?xml version="1.0" encoding="UTF-8" standalone="no"?>
<svg
   height="128px"
   viewBox="0 0 128 128"
   width="128px"
   version="1.1"
   id="svg34"
   sodipodi:docname="freecad.svg"
   inkscape:version="1.3.2 (091e20ef0f, 2023-11-25)"
   xmlns:inkscape="http://www.inkscape.org/namespaces/inkscape"
   xmlns:sodipodi="http://sodipodi.sourceforge.net/DTD/sodipodi-0.dtd"
   xmlns="http://www.w3.org/2000/svg"
   xmlns:svg="http://www.w3.org/2000/svg">
  <defs
     id="defs34" />
  <sodipodi:namedview
     id="namedview34"
     pagecolor="#ffffff"
     bordercolor="#000000"
     borderopacity="0.25"
     inkscape:showpageshadow="2"
     inkscape:pageopacity="0.0"
     inkscape:pagecheckerboard="0"
     inkscape:deskcolor="#d1d1d1"
     inkscape:zoom="4"
     inkscape:cx="49.75"
     inkscape:cy="70"
     inkscape:window-width="1920"
     inkscape:window-height="1011"
     inkscape:window-x="0"
     inkscape:window-y="0"
     inkscape:window-maximized="1"
     inkscape:current-layer="g32" />
  <linearGradient
     id="a"
     gradientUnits="userSpaceOnUse"
     x1="38.29454289981"
     x2="106.47098605018"
     y1="77.71742747492"
     y2="77.71742747492">
    <stop
       offset="0"
       stop-color="#2271c3"
       id="stop1" />
    <stop
       offset="0.27553"
       stop-color="#4392dd"
       id="stop2" />
    <stop
       offset="0.336101"
       stop-color="#2271c3"
       id="stop3" />
    <stop
       offset="0.421776"
       stop-color="#398bdd"
       id="stop4" />
    <stop
       offset="0.507477"
       stop-color="#2271c3"
       id="stop5" />
    <stop
       offset="0.579554"
       stop-color="#398bdd"
       id="stop6" />
    <stop
       offset="0.653607"
       stop-color="#2271c3"
       id="stop7" />
    <stop
       offset="0.68443"
       stop-color="#3285dc"
       id="stop8" />
    <stop
       offset="0.781744"
       stop-color="#2271c3"
       id="stop9" />
    <stop
       offset="0.920562"
       stop-color="#3083db"
       id="stop10" />
    <stop
       offset="0.957836"
       stop-color="#2271c3"
       id="stop11" />
    <stop
       offset="1"
       stop-color="#3285dc"
       id="stop12" />
  </linearGradient>
  <linearGradient
     id="b"
     gradientUnits="userSpaceOnUse"
     x1="38.29347889981"
     x2="106.46992205018"
     y1="77.71742847492"
     y2="77.71742847492">
    <stop
       offset="0"
       stop-color="#2271c3"
       id="stop13" />
    <stop
       offset="0.27553"
       stop-color="#4392dd"
       id="stop14" />
    <stop
       offset="0.336101"
       stop-color="#2271c3"
       id="stop15" />
    <stop
       offset="0.421776"
       stop-color="#398bdd"
       id="stop16" />
    <stop
       offset="0.515716"
       stop-color="#2271c3"
       id="stop17" />
    <stop
       offset="0.80956"
       stop-color="#3083db"
       id="stop18" />
    <stop
       offset="0.885113"
       stop-color="#2271c3"
       id="stop19" />
    <stop
       offset="0.923619"
       stop-color="#2271c3"
       id="stop20" />
    <stop
       offset="1"
       stop-color="#3285dc"
       id="stop21" />
  </linearGradient>
  <linearGradient
     id="c"
     gradientUnits="userSpaceOnUse"
     x1="21.25087006318"
     x2="38.29554070834"
     y1="103.28317367179"
     y2="103.28403071464">
    <stop
       offset="0"
       stop-color="#b30006"
       id="stop22" />
    <stop
       offset="0.0001"
       stop-color="#e10006"
       id="stop23" />
    <stop
       offset="1"
       stop-color="#b30006"
       id="stop24" />
  </linearGradient>
  <g
     fill-rule="evenodd"
     id="g32">
    <path
       d="M 106.47266,35.105469 89.429688,52.152344 H 55.339844 v 12.78125 H 72.382812 V 81.980469 L 55.339844,90.5 l -17.042969,17.04688 -0.0039,12.78125 h 17.261719 c 1.289062,0 2.433593,-0.83204 2.835937,-2.0625 l 3.082031,-9.49219 c 0.296875,-0.91016 1.007813,-1.6211 1.917969,-1.91406 l 2.371094,-0.76954 c 0.90625,-0.29687 1.902343,-0.14062 2.675781,0.42188 l 8.074219,5.86719 c 1.046875,0.76172 2.460937,0.76172 3.507812,0 l 7.238281,-5.26172 c 0.769532,-0.5586 1.226563,-1.4375 1.226563,-2.35547 0.0039,-3.76172 0.0039,-6.962195 0.0039,-10.391882 -0.296875,-0.910157 -3.367187,-1.983119 -2.808593,-2.756557 l 1.46875,-2.015625 c 0.558593,-0.773437 1.453124,-1.230468 2.410156,-1.230468 h 9.984375 c 1.289061,0 2.433591,-0.832032 2.835941,-2.0625 l 2.76562,-8.507813 c 0.11328,-0.347656 0.14063,-0.707031 0.14063,-1.058594 0.004,-1.160156 0.004,-5.586562 0.004,-10.235 0,-2.960938 -7.117365,3.680313 -9.304865,2.090469 -0.773437,-0.5625 -1.230469,-1.457031 -1.230469,-2.410156 V 63.6875 c 0,-0.953125 0.457032,-1.851562 1.230469,-2.414062 l 9.257815,-6.726563 c 0.77344,-0.5625 1.22656,-1.457031 1.22656,-2.414063 z"
       fill="#1e65ae"
       id="path24"
       sodipodi:nodetypes="cccccccccsccccccccccccsscccscsscccc" />
    <path
       d="m 72.382812 22.324219 v 12.785156 h 17.042969 v 17.042969 l 17.046875 -17.042969 v -8.148437 c 0 -2.253907 -0.96875 -4.398438 -2.65625 -5.886719 c -1.691406 -1.492188 -3.9375 -2.1875 -6.175781 -1.90625 z m 0 0"
       fill="#aa0006"
       id="path25" />
    <path
       d="m 38.292969 18.0625 l -17.042969 17.042969 v 68.179687 l 17.042969 -17.046875 v -51.132812 h 34.089843 v -12.78125 z m 0 0"
       fill="#821f25"
       id="path26" />
    <path
       d="M 72.382812,64.933594 V 81.980469 L 55.339844,90.5 l -17.042969,17.04688 -0.0039,12.78125 h 17.261719 c 1.289062,0 2.433593,-0.83204 2.835937,-2.0625 l 3.082031,-9.49219 c 0.296875,-0.91016 1.007813,-1.6211 1.917969,-1.91406 l 2.371094,-0.76954 c 0.90625,-0.29687 1.902343,-0.14062 2.675781,0.42188 l 8.074219,5.86719 c 1.046875,0.76172 2.460937,0.76172 3.507812,0 l 7.238281,-5.26172 c 0.769532,-0.5586 1.226563,-1.4375 1.226563,-2.35547 0.0039,-3.76172 0.0039,-6.962195 0.0039,-10.391882 -0.296875,-0.910157 -3.367149,-1.983119 -2.808555,-2.756557 l 1.46875,-2.015625 c 0.558593,-0.773437 1.453124,-1.230468 2.410156,-1.230468 h 9.984375 c 1.289063,0 2.433593,-0.832032 2.835943,-2.0625 l 2.76562,-8.507813 c 0.11328,-0.347656 0.14063,-0.707031 0.14063,-1.058594 0.004,-1.160156 0.004,-5.586562 0.004,-10.235 0,-2.960938 -7.117147,3.680313 -9.304647,2.090469 -0.773437,-0.5625 -1.230469,-1.457031 -1.230469,-2.410156 V 63.6875 c 0,-0.953125 0.457032,-1.851562 1.230469,-2.414062 z"
       fill="url(#a)"
       id="path27"
       sodipodi:nodetypes="cccccsccccccccccccsscccscsscc" />
    <path
       d="m 106.46875 35.105469 l -17.042969 17.046875 l -17.042969 12.78125 l 22.371094 1.25 v -2.496094 c 0 -0.953125 0.457032 -1.851562 1.226563 -2.414062 l 9.261719 -6.726563 c 0.769531 -0.5625 1.226562 -1.457031 1.226562 -2.414063 z m 0 0"
       fill="url(#b)"
       id="path28" />
    <path
       d="M 106.47266,24.714844 89.429688,41.761719 H 55.339844 v 12.78125 H 72.382812 V 71.585937 H 55.339844 V 92.890625 L 38.296875,109.93751 h 17.257813 c 1.292968,0 2.4375,-0.83205 2.835937,-2.0625 l 3.085937,-9.4961 c 0.292969,-0.90625 1.007813,-1.61719 1.914063,-1.91016 l 2.371094,-0.773437 c 0.910156,-0.292969 1.902343,-0.136719 2.675781,0.425777 l 8.074219,5.86719 c 1.046875,0.75781 2.464843,0.75781 3.507812,0 l 7.238281,-5.26172 c 1.046876,-0.75781 1.484376,-2.105466 1.082032,-3.332029 l -3.082032,-9.496094 c -0.296874,-0.90625 -0.136718,-1.902343 0.421876,-2.675781 l 1.46875,-2.015625 c 0.5625,-0.773437 1.457031,-1.230468 2.410156,-1.230468 h 9.984375 c 1.292971,0 2.437501,-0.832032 2.835941,-2.0625 l 2.76562,-8.507813 c 0.39844,-1.230469 -0.0391,-2.578125 -1.08203,-3.335937 l -8.078125,-5.867188 c -0.773437,-0.5625 -1.230469,-1.457031 -1.230469,-2.414062 v -2.492188 c 0,-0.957031 0.457032,-1.851562 1.230469,-2.414062 l 9.257815,-6.726563 c 0.77344,-0.5625 1.23047,-1.460937 1.23047,-2.414063 z m 0,0"
       fill="#418fde"
       id="path29"
       style="display:inline" />
    <path
       d="M 38.296875,81.019531 21.25,98.066406 v 13.363284 c 0,4.91406 3.984375,8.89844 8.898438,8.89844 h 8.144531 l 0.0039,-12.78125 -0.0039,-4.26172 z m 0,0"
       fill="url(#c)"
       id="path30"
       style="display:inline" />
    <path
       d="M 89.429688,7.671875 72.382812,24.714844 H 89.429688 V 41.761719 L 106.47266,24.714844 v -8.144531 c 0,-4.914063 -3.98438,-8.898438 -8.898441,-8.898438 z M 38.296875,75.847656 21.25,92.890625 v 8.148435 c 0,4.91407 3.984375,8.89845 8.898438,8.89845 h 8.148437 L 55.339844,92.890625 H 38.296875 Z m 0,0"
       fill="#ff585d"
       id="path31"
       style="display:inline" />
    <path
       d="M 38.296875,7.671875 21.253906,24.714844 V 92.890625 L 38.296875,75.847656 V 24.714844 H 72.382812 L 89.429688,7.671875 Z m 0,0"
       fill="#cb333b"
       id="path32"
       style="display:inline" />
  </g>
  <path
     d="M 38.296875,24.714844 H 89.429688 V 41.761719 H 55.339844 v 12.78125 H 72.382812 V 71.585937 H 55.339844 V 92.890625 H 38.296875 Z"
     fill="#ffffff"
     fill-rule="evenodd"
     id="path34" />
</svg>
