<?xml version="1.0" encoding="UTF-8" standalone="no"?>
<svg
   height="128px"
   viewBox="0 0 128 128"
   width="128px"
   version="1.1"
   id="svg4817"
   xmlns="http://www.w3.org/2000/svg"
   xmlns:svg="http://www.w3.org/2000/svg">
  <defs
     id="defs4821">
    <linearGradient
       id="a-6"
       gradientUnits="userSpaceOnUse"
       x1="9.1972656"
       x2="119.48238"
       y1="112.65527"
       y2="112.65527">
      <stop
         offset="0"
         stop-color="#5e5c64"
         id="stop1-1"
         style="stop-color:#606060;stop-opacity:1;" />
      <stop
         offset="0.0378502"
         stop-color="#77767b"
         id="stop2-8"
         style="stop-color:#797979;stop-opacity:1;" />
      <stop
         offset="0.0732786"
         stop-color="#3d3846"
         id="stop3-7"
         style="stop-color:#333333;stop-opacity:1;" />
      <stop
         offset="0.92921001"
         stop-color="#241f31"
         id="stop4-9"
         style="stop-color:#000000;stop-opacity:1;" />
      <stop
         offset="0.97104001"
         stop-color="#5e5c64"
         id="stop5-2"
         style="stop-color:#606060;stop-opacity:1;" />
      <stop
         offset="1"
         stop-color="#5e5c64"
         id="stop6-0"
         style="stop-color:#606060;stop-opacity:1;" />
    </linearGradient>
  </defs>
  <linearGradient
     id="a"
     gradientUnits="userSpaceOnUse"
     x1="11.999989"
     x2="115.999989"
     y1="64"
     y2="64">
    <stop
       offset="0"
       stop-color="#3d3846"
       id="stop4783" />
    <stop
       offset="0.05"
       stop-color="#77767b"
       id="stop4785" />
    <stop
       offset="0.1"
       stop-color="#5e5c64"
       id="stop4787" />
    <stop
       offset="0.899999"
       stop-color="#504e56"
       id="stop4789" />
    <stop
       offset="0.95"
       stop-color="#77767b"
       id="stop4791" />
    <stop
       offset="1"
       stop-color="#3d3846"
       id="stop4793" />
  </linearGradient>
  <linearGradient
     id="b"
     gradientUnits="userSpaceOnUse"
     x1="12"
     x2="112.041023"
     y1="60"
     y2="80.988281">
    <stop
       offset="0"
       stop-color="#77767b"
       id="stop4796" />
    <stop
       offset="0.384443"
       stop-color="#9a9996"
       id="stop4798" />
    <stop
       offset="0.720567"
       stop-color="#77767b"
       id="stop4800" />
    <stop
       offset="1"
       stop-color="#68666f"
       id="stop4802" />
  </linearGradient>
  <path
     d="m 16.9375,34 h 94.125 C 116,34 120,38 120,42.9375 v 64.125 C 120,112 116,116 111.0625,116 H 16.9375 C 12,116 8,112 8,107.0625 V 42.9375 C 8,38 12,34 16.9375,34 Z m 0,0"
     fill="url(#a)"
     id="path12-6"
     style="fill:url(#a-6)" />
  <path
     d="m 16.34375,24 h 95.3125 C 116.26563,24 120,27.734375 120,32.34375 v 67.3125 C 120,104.26563 116.26563,108 111.65625,108 H 16.34375 C 11.73437,108 8,104.26563 8,99.65625 V 32.34375 C 8,27.734375 11.73437,24 16.34375,24 Z m 0,0"
     fill="#5e5c64"
     id="path13"
     style="fill:#36343d;fill-opacity:1" />
  <path
     d="m 101.96094,27.917969 c 1.125,0 2.03906,0.914062 2.03906,2.042969 0,1.125 -0.91406,2.039062 -2.03906,2.039062 -1.12891,0 -2.04297,-0.914062 -2.04297,-2.039062 0,-1.128907 0.91406,-2.042969 2.04297,-2.042969 z m 0,0"
     fill="#f9f06b"
     id="path16"
     style="fill:#ff7800;fill-opacity:1" />
  <path
     d="m 110,28 c 1.10547,0 2,0.894531 2,2 0,1.105469 -0.89453,2 -2,2 -1.10547,0 -2,-0.894531 -2,-2 0,-1.105469 0.89453,-2 2,-2 z m 0,0"
     fill="#f9f06b"
     id="path17" />
  <path
     style="fill:#ffffff;stroke-width:0.53919"
     d="m 20.71183,28.382431 2.69595,4.313518 -2.69595,4.313519 h 2.15676 l 1.61757,-2.588651 1.61757,2.588651 h 2.15676 l -2.69595,-4.313519 2.69595,-4.313518 h -2.15675 l -1.61758,2.58865 -1.61756,-2.58865 z m -8.62704,0 h 7.54866 v 1.078379 l -4.85271,5.931089 h 4.85271 v 1.617569 h -7.54866 v -1.07838 L 16.9375,30 h -4.85271 z"
     id="path18-2" />
  <path
     style="fill:#f24c3d;stroke-width:0.852459"
     d="m 76.13859,108.00782 h 8.80343 L 120,73.000135 v -9.010726 z"
     id="path8-5" />
  <path
     style="fill:#e6df15;stroke-width:0.852459"
     d="m 84.66318,108.00782 h 8.74664 L 120,81.524725 V 72.67201 Z"
     id="path10-9" />
  <path
     style="fill:#66dd23;stroke-width:0.852459"
     d="M 93.18777,108.00782 H 101.947 L 120,89.907501 v -8.723464 z"
     id="path12-2" />
  <path
     style="fill:#24f0ff;stroke-width:0.852459"
     d="m 101.71236,108.00782 h 8.52459 L 120,98.203863 V 89.70137 Z"
     id="path14-2" />
  <path
     id="rect453-8"
     style="fill:#ba1c0e;stroke-width:0.814846;stroke-miterlimit:0.5;paint-order:stroke fill markers"
     d="m 76.145,108 h 8.79702 v 8 H 76.145 Z" />
  <path
     id="rect453-3-9"
     style="fill:#817c0d;stroke-width:0.814846;stroke-miterlimit:0.5;paint-order:stroke fill markers"
     d="m 84.67265,108 h 8.73717 v 8 h -8.73717 z" />
  <path
     id="rect453-3-6-73"
     style="fill:#3c8515;stroke-width:0.814846;stroke-miterlimit:0.5;paint-order:stroke fill markers"
     d="m 93.2003,108 h 8.7467 v 8 h -8.7467 z" />
  <path
     id="rect453-3-6-7-6"
     style="fill:#00b2bf;stroke-width:0.814846;stroke-miterlimit:0.5;paint-order:stroke fill markers"
     d="m 101.72795,108 h 8.52765 v 8 h -8.52765 z" />
  <path
     d="m 107,92 h 6 c 1.66016,0 3,1.339844 3,3 v 6 c 0,1.66016 -1.33984,3 -3,3 h -6 c -1.66016,0 -3,-1.33984 -3,-3 v -6 c 0,-1.660156 1.33984,-3 3,-3 z m -42,0 h 34 c 1.66016,0 3,1.339844 3,3 v 6 c 0,1.66016 -1.33984,3 -3,3 H 65 c -1.66406,0 -3,-1.33984 -3,-3 v -6 c 0,-1.660156 1.33594,-3 3,-3 z m -14,0 h 6 c 1.66016,0 3,1.339844 3,3 v 6 c 0,1.66016 -1.33984,3 -3,3 h -6 c -1.66016,0 -3,-1.33984 -3,-3 v -6 c 0,-1.660156 1.33984,-3 3,-3 z m -14,0 h 6 c 1.66016,0 3,1.339844 3,3 v 6 c 0,1.66016 -1.33984,3 -3,3 h -6 c -1.66016,0 -3,-1.33984 -3,-3 v -6 c 0,-1.660156 1.33984,-3 3,-3 z m -22,0 h 14 c 1.66406,0 3,1.339844 3,3 v 6 c 0,1.66016 -1.33594,3 -3,3 H 15 c -1.66406,0 -3,-1.33984 -3,-3 v -6 c 0,-1.660156 1.33594,-3 3,-3 z m 97.96094,-22.921875 h 0.0391 c 1.66016,0 3,1.339844 3,3 v 15.84375 c 0,1.660156 -1.33984,3 -3,3 h -0.0391 c -1.66406,0 -3,-1.339844 -3,-3 v -15.84375 c 0,-1.660156 1.33594,-3 3,-3 z M 107,64 h 6 c 1.66016,0 3,1.339844 3,3 v 6 c 0,1.660156 -1.33984,3 -3,3 h -6 c -1.66016,0 -3,-1.339844 -3,-3 v -6 c 0,-1.660156 1.33984,-3 3,-3 z m -8,14 h 6 c 1.66016,0 3,1.339844 3,3 v 6 c 0,1.660156 -1.33984,3 -3,3 h -6 c -1.66016,0 -3,-1.339844 -3,-3 v -6 c 0,-1.660156 1.33984,-3 3,-3 z m -14,0 h 6 c 1.66016,0 3,1.339844 3,3 v 6 c 0,1.660156 -1.33984,3 -3,3 h -6 c -1.66016,0 -3,-1.339844 -3,-3 v -6 c 0,-1.660156 1.33984,-3 3,-3 z m -70,0 h 6 c 1.66016,0 3,1.339844 3,3 v 6 c 0,1.660156 -1.33984,3 -3,3 h -6 c -1.66016,0 -3,-1.339844 -3,-3 v -6 c 0,-1.660156 1.33984,-3 3,-3 z m 56,0 h 6 c 1.66016,0 3,1.339844 3,3 v 6 c 0,1.660156 -1.33984,3 -3,3 h -6 c -1.66016,0 -3,-1.339844 -3,-3 v -6 c 0,-1.660156 1.33984,-3 3,-3 z m -14,0 h 6 c 1.66016,0 3,1.339844 3,3 v 6 c 0,1.660156 -1.33984,3 -3,3 h -6 c -1.66016,0 -3,-1.339844 -3,-3 v -6 c 0,-1.660156 1.33984,-3 3,-3 z m -14,0 h 6 c 1.66016,0 3,1.339844 3,3 v 6 c 0,1.660156 -1.33984,3 -3,3 h -6 c -1.66016,0 -3,-1.339844 -3,-3 v -6 c 0,-1.660156 1.33984,-3 3,-3 z m -14,0 h 6 c 1.66016,0 3,1.339844 3,3 v 6 c 0,1.660156 -1.33984,3 -3,3 h -6 c -1.66016,0 -3,-1.339844 -3,-3 v -6 c 0,-1.660156 1.33984,-3 3,-3 z M 93,64 h 6 c 1.66016,0 3,1.339844 3,3 v 6 c 0,1.660156 -1.33984,3 -3,3 h -6 c -1.66016,0 -3,-1.339844 -3,-3 v -6 c 0,-1.660156 1.33984,-3 3,-3 z m -14,0 h 6 c 1.66016,0 3,1.339844 3,3 v 6 c 0,1.660156 -1.33984,3 -3,3 h -6 c -1.66016,0 -3,-1.339844 -3,-3 v -6 c 0,-1.660156 1.33984,-3 3,-3 z m -14,0 h 6 c 1.66016,0 3,1.339844 3,3 v 6 c 0,1.660156 -1.33984,3 -3,3 h -6 c -1.66016,0 -3,-1.339844 -3,-3 v -6 c 0,-1.660156 1.33984,-3 3,-3 z m -14,0 h 6 c 1.66016,0 3,1.339844 3,3 v 6 c 0,1.660156 -1.33984,3 -3,3 h -6 c -1.66016,0 -3,-1.339844 -3,-3 v -6 c 0,-1.660156 1.33984,-3 3,-3 z m -14,0 h 6 c 1.66016,0 3,1.339844 3,3 v 6 c 0,1.660156 -1.33984,3 -3,3 h -6 c -1.66016,0 -3,-1.339844 -3,-3 v -6 c 0,-1.660156 1.33984,-3 3,-3 z m -22,0 h 14 c 1.66406,0 3,1.339844 3,3 v 6 c 0,1.660156 -1.33594,3 -3,3 H 15 c -1.66406,0 -3,-1.339844 -3,-3 v -6 c 0,-1.660156 1.33594,-3 3,-3 z M 99,49.941406 h 14 c 1.66406,0 3,1.339844 3,3 v 6 c 0,1.660156 -1.33594,3 -3,3 H 99 c -1.66016,0 -3,-1.339844 -3,-3 v -6 c 0,-1.660156 1.33984,-3 3,-3 z m -14,0 h 6 c 1.66016,0 3,1.339844 3,3 v 6 c 0,1.660156 -1.33984,3 -3,3 h -6 c -1.66016,0 -3,-1.339844 -3,-3 v -6 c 0,-1.660156 1.33984,-3 3,-3 z m -70,0 h 6 c 1.66016,0 3,1.339844 3,3 v 6 c 0,1.660156 -1.33984,3 -3,3 h -6 c -1.66016,0 -3,-1.339844 -3,-3 v -6 c 0,-1.660156 1.33984,-3 3,-3 z m 56,0 h 6 c 1.66016,0 3,1.339844 3,3 v 6 c 0,1.660156 -1.33984,3 -3,3 h -6 c -1.66016,0 -3,-1.339844 -3,-3 v -6 c 0,-1.660156 1.33984,-3 3,-3 z m -14,0 h 6 c 1.66016,0 3,1.339844 3,3 v 6 c 0,1.660156 -1.33984,3 -3,3 h -6 c -1.66016,0 -3,-1.339844 -3,-3 v -6 c 0,-1.660156 1.33984,-3 3,-3 z m -14,0 h 6 c 1.66016,0 3,1.339844 3,3 v 6 c 0,1.660156 -1.33984,3 -3,3 h -6 c -1.66016,0 -3,-1.339844 -3,-3 v -6 c 0,-1.660156 1.33984,-3 3,-3 z m -14,0 h 6 c 1.66016,0 3,1.339844 3,3 v 6 c 0,1.660156 -1.33984,3 -3,3 h -6 c -1.66016,0 -3,-1.339844 -3,-3 v -6 c 0,-1.660156 1.33984,-3 3,-3 z M 107,40 h 6 c 1.66016,0 3,1.339844 3,3 0,1.660156 -1.33984,3 -3,3 h -6 c -1.66016,0 -3,-1.339844 -3,-3 0,-1.660156 1.33984,-3 3,-3 z m -14,0 h 6 c 1.66016,0 3,1.339844 3,3 0,1.660156 -1.33984,3 -3,3 h -6 c -1.66016,0 -3,-1.339844 -3,-3 0,-1.660156 1.33984,-3 3,-3 z m -22,0 h 6 c 1.66016,0 3,1.339844 3,3 0,1.660156 -1.33984,3 -3,3 h -6 c -1.66016,0 -3,-1.339844 -3,-3 0,-1.660156 1.33984,-3 3,-3 z m -14,0 h 6 c 1.66016,0 3,1.339844 3,3 0,1.660156 -1.33984,3 -3,3 h -6 c -1.66016,0 -3,-1.339844 -3,-3 0,-1.660156 1.33984,-3 3,-3 z m -14,0 h 6 c 1.66016,0 3,1.339844 3,3 0,1.660156 -1.33984,3 -3,3 h -6 c -1.66016,0 -3,-1.339844 -3,-3 0,-1.660156 1.33984,-3 3,-3 z m -14,0 h 6 c 1.66016,0 3,1.339844 3,3 0,1.660156 -1.33984,3 -3,3 h -6 c -1.66016,0 -3,-1.339844 -3,-3 0,-1.660156 1.33984,-3 3,-3 z m -13.87891,0 h 5.75782 C 22.60937,40 24,41.339844 24,43 c 0,1.660156 -1.39063,3 -3.12109,3 H 15.12109 C 13.39062,46 12,44.660156 12,43 c 0,-1.660156 1.39062,-3 3.12109,-3 z m 0,0"
     fill="#241f31"
     id="path14-1"
     style="fill:#5e5c64;fill-opacity:1" />
  <path
     d="m 107,92 h 6 c 1.66016,0 3,1.339844 3,3 v 5 c 0,1.66016 -1.33984,3 -3,3 h -6 c -1.66016,0 -3,-1.33984 -3,-3 v -5 c 0,-1.660156 1.33984,-3 3,-3 z m -42,0 h 34 c 1.66016,0 3,1.339844 3,3 v 5 c 0,1.66016 -1.33984,3 -3,3 H 65 c -1.66406,0 -3,-1.33984 -3,-3 v -5 c 0,-1.660156 1.33594,-3 3,-3 z m -14,0 h 6 c 1.66016,0 3,1.339844 3,3 v 5 c 0,1.66016 -1.33984,3 -3,3 h -6 c -1.66016,0 -3,-1.33984 -3,-3 v -5 c 0,-1.660156 1.33984,-3 3,-3 z m -14,0 h 6 c 1.66016,0 3,1.339844 3,3 v 5 c 0,1.66016 -1.33984,3 -3,3 h -6 c -1.66016,0 -3,-1.33984 -3,-3 v -5 c 0,-1.660156 1.33984,-3 3,-3 z m -22,0 h 14 c 1.66016,0 3,1.339844 3,3 v 5 c 0,1.66016 -1.33984,3 -3,3 H 15 c -1.66406,0 -3,-1.33984 -3,-3 v -5 c 0,-1.660156 1.33594,-3 3,-3 z m 97.96094,-23.84375 h 0.0391 c 1.66016,0 3,1.339844 3,3 V 87 c 0,1.660156 -1.33984,3 -3,3 h -0.0391 c -1.66406,0 -3,-1.339844 -3,-3 V 71.15625 c 0,-1.660156 1.33594,-3 3,-3 z M 107,64 h 6 c 1.66016,0 3,1.339844 3,3 v 5 c 0,1.660156 -1.33984,3 -3,3 h -6 c -1.66016,0 -3,-1.339844 -3,-3 v -5 c 0,-1.660156 1.33984,-3 3,-3 z m -8,14 h 6 c 1.66016,0 3,1.339844 3,3 v 5 c 0,1.660156 -1.33984,3 -3,3 h -6 c -1.66016,0 -3,-1.339844 -3,-3 v -5 c 0,-1.660156 1.33984,-3 3,-3 z m -14,0 h 6 c 1.66016,0 3,1.339844 3,3 v 5 c 0,1.660156 -1.33984,3 -3,3 h -6 c -1.66016,0 -3,-1.339844 -3,-3 v -5 c 0,-1.660156 1.33984,-3 3,-3 z m -70,0 h 6 c 1.66016,0 3,1.339844 3,3 v 5 c 0,1.660156 -1.33984,3 -3,3 h -6 c -1.66016,0 -3,-1.339844 -3,-3 v -5 c 0,-1.660156 1.33984,-3 3,-3 z m 56,0 h 6 c 1.66016,0 3,1.339844 3,3 v 5 c 0,1.660156 -1.33984,3 -3,3 h -6 c -1.66016,0 -3,-1.339844 -3,-3 v -5 c 0,-1.660156 1.33984,-3 3,-3 z m -14,0 h 6 c 1.66016,0 3,1.339844 3,3 v 5 c 0,1.660156 -1.33984,3 -3,3 h -6 c -1.66016,0 -3,-1.339844 -3,-3 v -5 c 0,-1.660156 1.33984,-3 3,-3 z m -14,0 h 6 c 1.66016,0 3,1.339844 3,3 v 5 c 0,1.660156 -1.33984,3 -3,3 h -6 c -1.66016,0 -3,-1.339844 -3,-3 v -5 c 0,-1.660156 1.33984,-3 3,-3 z m -14,0 h 6 c 1.66016,0 3,1.339844 3,3 v 5 c 0,1.660156 -1.33984,3 -3,3 h -6 c -1.66016,0 -3,-1.339844 -3,-3 v -5 c 0,-1.660156 1.33984,-3 3,-3 z M 93,64 h 6 c 1.66016,0 3,1.339844 3,3 v 5 c 0,1.660156 -1.33984,3 -3,3 h -6 c -1.66016,0 -3,-1.339844 -3,-3 v -5 c 0,-1.660156 1.33984,-3 3,-3 z m -14,0 h 6 c 1.66016,0 3,1.339844 3,3 v 5 c 0,1.660156 -1.33984,3 -3,3 h -6 c -1.66016,0 -3,-1.339844 -3,-3 v -5 c 0,-1.660156 1.33984,-3 3,-3 z m -14,0 h 6 c 1.66016,0 3,1.339844 3,3 v 5 c 0,1.660156 -1.33984,3 -3,3 h -6 c -1.66016,0 -3,-1.339844 -3,-3 v -5 c 0,-1.660156 1.33984,-3 3,-3 z m -14,0 h 6 c 1.66016,0 3,1.339844 3,3 v 5 c 0,1.660156 -1.33984,3 -3,3 h -6 c -1.66016,0 -3,-1.339844 -3,-3 v -5 c 0,-1.660156 1.33984,-3 3,-3 z m -14,0 h 6 c 1.66016,0 3,1.339844 3,3 v 5 c 0,1.660156 -1.33984,3 -3,3 h -6 c -1.66016,0 -3,-1.339844 -3,-3 v -5 c 0,-1.660156 1.33984,-3 3,-3 z m -22,0 h 14 c 1.66016,0 3,1.339844 3,3 v 5 c 0,1.660156 -1.33984,3 -3,3 H 15 c -1.66406,0 -3,-1.339844 -3,-3 v -5 c 0,-1.660156 1.33594,-3 3,-3 z M 99,49.941406 h 14 c 1.66016,0 3,1.339844 3,3 v 5 c 0,1.660156 -1.33984,3 -3,3 H 99 c -1.66016,0 -3,-1.339844 -3,-3 v -5 c 0,-1.660156 1.33984,-3 3,-3 z m -14,0 h 6 c 1.66016,0 3,1.339844 3,3 v 5 c 0,1.660156 -1.33984,3 -3,3 h -6 c -1.66016,0 -3,-1.339844 -3,-3 v -5 c 0,-1.660156 1.33984,-3 3,-3 z m -70,0 h 6 c 1.66016,0 3,1.339844 3,3 v 5 c 0,1.660156 -1.33984,3 -3,3 h -6 c -1.66016,0 -3,-1.339844 -3,-3 v -5 c 0,-1.660156 1.33984,-3 3,-3 z m 56,0 h 6 c 1.66016,0 3,1.339844 3,3 v 5 c 0,1.660156 -1.33984,3 -3,3 h -6 c -1.66016,0 -3,-1.339844 -3,-3 v -5 c 0,-1.660156 1.33984,-3 3,-3 z m -14,0 h 6 c 1.66016,0 3,1.339844 3,3 v 5 c 0,1.660156 -1.33984,3 -3,3 h -6 c -1.66016,0 -3,-1.339844 -3,-3 v -5 c 0,-1.660156 1.33984,-3 3,-3 z m -14,0 h 6 c 1.66016,0 3,1.339844 3,3 v 5 c 0,1.660156 -1.33984,3 -3,3 h -6 c -1.66016,0 -3,-1.339844 -3,-3 v -5 c 0,-1.660156 1.33984,-3 3,-3 z m -14,0 h 6 c 1.66016,0 3,1.339844 3,3 v 5 c 0,1.660156 -1.33984,3 -3,3 h -6 c -1.66016,0 -3,-1.339844 -3,-3 v -5 c 0,-1.660156 1.33984,-3 3,-3 z M 107,40 h 6 c 1.66016,0 3,1.113281 3,2.5 0,1.386719 -1.33984,2.5 -3,2.5 h -6 c -1.66016,0 -3,-1.113281 -3,-2.5 0,-1.386719 1.33984,-2.5 3,-2.5 z m -14,0 h 6 c 1.66016,0 3,1.113281 3,2.5 0,1.386719 -1.33984,2.5 -3,2.5 h -6 c -1.66016,0 -3,-1.113281 -3,-2.5 0,-1.386719 1.33984,-2.5 3,-2.5 z m -22,0 h 6 c 1.66016,0 3,1.113281 3,2.5 0,1.386719 -1.33984,2.5 -3,2.5 h -6 c -1.66016,0 -3,-1.113281 -3,-2.5 0,-1.386719 1.33984,-2.5 3,-2.5 z m -14,0 h 6 c 1.66016,0 3,1.113281 3,2.5 0,1.386719 -1.33984,2.5 -3,2.5 h -6 c -1.66016,0 -3,-1.113281 -3,-2.5 0,-1.386719 1.33984,-2.5 3,-2.5 z m -14,0 h 6 c 1.66016,0 3,1.113281 3,2.5 0,1.386719 -1.33984,2.5 -3,2.5 h -6 c -1.66016,0 -3,-1.113281 -3,-2.5 0,-1.386719 1.33984,-2.5 3,-2.5 z m -14,0 h 6 c 1.66016,0 3,1.113281 3,2.5 0,1.386719 -1.33984,2.5 -3,2.5 h -6 c -1.66016,0 -3,-1.113281 -3,-2.5 0,-1.386719 1.33984,-2.5 3,-2.5 z m -14,0 h 6 c 1.66016,0 3,1.113281 3,2.5 0,1.386719 -1.33984,2.5 -3,2.5 h -6 c -1.66016,0 -3,-1.113281 -3,-2.5 0,-1.386719 1.33984,-2.5 3,-2.5 z m 0,0"
     fill="#3d3846"
     id="path15"
     style="fill:#9a9996;fill-opacity:1" />
</svg>
