<?xml version="1.0" encoding="UTF-8" standalone="no"?>
<svg
   viewBox="0 0 128 128"
   style="display:inline;enable-background:new"
   version="1.0"
   id="svg11300"
   height="128"
   width="128"
   xml:space="preserve"
   xmlns:xlink="http://www.w3.org/1999/xlink"
   xmlns="http://www.w3.org/2000/svg"
   xmlns:svg="http://www.w3.org/2000/svg"
   xmlns:rdf="http://www.w3.org/1999/02/22-rdf-syntax-ns#"
   xmlns:cc="http://creativecommons.org/ns#"
   xmlns:dc="http://purl.org/dc/elements/1.1/"><title
     id="title4162">Adwaita Icon Template</title><defs
     id="defs3"><linearGradient
       id="linearGradient7"><stop
         style="stop-color:#2e1778;stop-opacity:1;"
         offset="0"
         id="stop2" /><stop
         id="stop3"
         offset="0.04166667"
         style="stop-color:#9076e4;stop-opacity:1;" /><stop
         style="stop-color:#2e1777;stop-opacity:1;"
         offset="0.08333334"
         id="stop4" /><stop
         id="stop5"
         offset="0.91666669"
         style="stop-color:#2e1777;stop-opacity:1;" /><stop
         style="stop-color:#9076e4;stop-opacity:1;"
         offset="0.95833331"
         id="stop6" /><stop
         style="stop-color:#2e1778;stop-opacity:1;"
         offset="1"
         id="stop7" /></linearGradient><linearGradient
       xlink:href="#linearGradient7"
       id="linearGradient2"
       x1="12"
       y1="66"
       x2="116"
       y2="66"
       gradientUnits="userSpaceOnUse" /></defs><metadata
     id="metadata4"><rdf:RDF><cc:Work
         rdf:about=""><dc:format>image/svg+xml</dc:format><dc:type
           rdf:resource="http://purl.org/dc/dcmitype/StillImage" /><dc:creator><cc:Agent><dc:title>GNOME Design Team</dc:title></cc:Agent></dc:creator><dc:source /><cc:license
           rdf:resource="http://creativecommons.org/licenses/by-sa/4.0/" /><dc:title>Adwaita Icon Template</dc:title><dc:subject><rdf:Bag /></dc:subject><dc:date /><dc:rights><cc:Agent><dc:title /></cc:Agent></dc:rights><dc:publisher><cc:Agent><dc:title /></cc:Agent></dc:publisher><dc:identifier /><dc:relation /><dc:language /><dc:coverage /><dc:description /><dc:contributor><cc:Agent><dc:title /></cc:Agent></dc:contributor></cc:Work><cc:License
         rdf:about="http://creativecommons.org/licenses/by-sa/4.0/"><cc:permits
           rdf:resource="http://creativecommons.org/ns#Reproduction" /><cc:permits
           rdf:resource="http://creativecommons.org/ns#Distribution" /><cc:requires
           rdf:resource="http://creativecommons.org/ns#Notice" /><cc:requires
           rdf:resource="http://creativecommons.org/ns#Attribution" /><cc:permits
           rdf:resource="http://creativecommons.org/ns#DerivativeWorks" /><cc:requires
           rdf:resource="http://creativecommons.org/ns#ShareAlike" /></cc:License></rdf:RDF></metadata><rect
     style="display:inline;fill:url(#linearGradient2);fill-opacity:1;stroke:none;stroke-width:0.25;stroke-linecap:butt;stroke-linejoin:miter;stroke-miterlimit:4;stroke-dasharray:none;stroke-dashoffset:0;stroke-opacity:1;marker:none;marker-start:none;marker-mid:none;marker-end:none;paint-order:normal;enable-background:new"
     id="rect1"
     width="104"
     height="100"
     x="12"
     y="16"
     rx="8"
     ry="8" /><rect
     style="display:inline;fill:#4f28cd;fill-opacity:1;stroke:none;stroke-width:0.25;stroke-linecap:butt;stroke-linejoin:miter;stroke-miterlimit:4;stroke-dasharray:none;stroke-dashoffset:0;stroke-opacity:1;marker:none;marker-start:none;marker-mid:none;marker-end:none;paint-order:normal;enable-background:new"
     id="rect1711"
     width="104"
     height="100"
     x="12"
     y="12"
     rx="8"
     ry="8" /><path
     d="m 61.864819,95.49479 c -7.01105,-0.62469 -13.508,-2.35263 -18.78853,-4.99701 -7.00058,-3.50576 -12.73425,-9.18074 -16.11283,-15.94791 -2.76262,-5.53341 -3.53242,-9.44785 -3.76337,-19.13686 l -0.13577,-5.69577 h 5.35069 5.35069 v 4.87357 c 0,7.49809 0.58065,11.35067 2.25785,14.98076 3.9836,8.62196 12.41761,14.08359 24.47351,15.84834 1.22963,0.17999 4.04206,0.38653 6.24985,0.45896 8.41192,0.27599 15.08101,-0.83396 19.18246,-3.19256 l 1.49846,-0.86171 6.9405,0.0572 6.940491,0.0572 -1.316591,1.74711 c -4.9185,6.52686 -12.0614,10.12268 -22.8302,11.493 -3.20629,0.408 -12.18216,0.59322 -15.29721,0.31567 z m -0.19539,-17.91222 c -5.07545,-0.78909 -10.12328,-2.93305 -13.46749,-5.72004 -3.1813,-2.65122 -5.51553,-7.06402 -6.43445,-12.16414 -0.17731,-0.98405 -0.28628,-3.08552 -0.27568,-5.31605 0.0647,-13.59821 5.55644,-20.52021 18.20056,-22.9405 2.29935,-0.44014 3.13922,-0.46054 22.27627,-0.54111 l 19.886841,-0.0837 0.33372,1.04208 c 1.34888,4.21206 2.74648,8.69973 2.74648,8.8189 0,0.0787 -8.909811,0.14492 -19.799571,0.14725 -15.843359,0.003 -20.25482,0.0656 -22.07789,0.31153 -6.23809,0.8414 -8.97066,3.10687 -10.394319,8.18911 -0.3132,1.11807 -0.523121,2.16449 -0.547861,5.38195 -0.0212,2.75783 0.43648,5.26859 1.73011,7.47599 1.80792,3.08499 5.57033,4.93224 11.81585,5.56062 2.22654,0.22401 7.71665,0.14931 7.97447,-0.10851 0.2667,-0.2667 2.65608,-8.33834 2.6066,-8.80545 l -0.0575,-0.54246 -5.64152,-0.1128 c -6.28444,-0.12567 -6.81529,-0.11628 -8.04199,-1.51341 -0.84159,-0.95852 -1.00436,-1.74325 -0.87715,-3.27725 0.11716,-1.41285 1.01331,-2.50352 2.35446,-3.20811 1.22707,-0.64465 0.9793,-0.52746 11.51461,-0.59328 5.84765,-0.0365 11.14192,-1.1e-4 11.66852,0.0765 0.63651,0.0926 1.33627,0.47976 1.74557,0.88906 1.09412,1.09412 1.15349,1.66083 -3.24869,14.31099 l -3.90268,11.56676 -1.22527,0.2613 c -5.60276,1.19484 -14.40393,1.58789 -18.86204,0.89478 z"
     style="fill:#ffffff"
     id="path1-5" /></svg>
