<?xml version="1.0" encoding="UTF-8" standalone="no"?>
<svg
   width="128"
   height="128"
   viewBox="0 0 128 128"
   version="1.1"
   id="svg29"
   xml:space="preserve"
   xmlns="http://www.w3.org/2000/svg"
   xmlns:svg="http://www.w3.org/2000/svg"><defs
     id="defs15"><linearGradient
       id="a-9"
       gradientUnits="userSpaceOnUse"
       x1="0"
       y1="269.46301"
       x2="118.926"
       y2="269.46301"
       gradientTransform="matrix(1,0,0,0.98333333,5e-6,-168.03333)"><stop
         offset="0"
         stop-color="#e5a50a"
         id="stop1-5"
         style="stop-color:#787878;stop-opacity:1;" /><stop
         offset="0.414"
         stop-color="#fbdf9b"
         id="stop2-1"
         style="stop-color:#cbcbcb;stop-opacity:1;" /><stop
         offset="0.81300002"
         stop-color="#e5a50a"
         id="stop3-6"
         style="stop-color:#787878;stop-opacity:1;" /><stop
         offset="1"
         stop-color="#f8ca5b"
         id="stop4-6"
         style="stop-color:#a9a9a9;stop-opacity:1;" /></linearGradient></defs><path
     d="M 124.00001,65.999999 C 124.00001,98.584719 97.137005,125 64.000005,125 c -33.137,0 -60,-26.415281 -60,-59.000001 0,-32.584717 26.863,-58.9999996 60,-58.9999996 33.137,0 60.000005,26.4152826 60.000005,58.9999996 z m 0,0"
     fill="url(#a)"
     id="path4"
     style="fill:url(#a-9);stroke-width:0.991632" /><path
     style="fill:#ffffff;fill-opacity:1;fill-rule:evenodd;stroke:none;stroke-width:11.1733;stroke-linecap:square;stroke-linejoin:bevel"
     id="path94"
     d="M 124.00001,61.999998 C 124.00001,94.584668 97.136958,121 64,121 30.86291,121 4,94.584668 4,61.999998 4,29.415192 30.86291,2.9999992 64,2.9999992 c 33.136958,0 60.00001,26.4151928 60.00001,58.9999988"
     vector-effect="none" /><text
     style="font-style:normal;font-weight:400;font-size:13.8828px;font-family:Arial;fill:#ffffff;fill-opacity:1;fill-rule:evenodd;stroke:none;stroke-width:0.991632;stroke-linecap:square;stroke-linejoin:bevel;stroke-opacity:1"
     id="text1476"
     font-style="normal"
     font-weight="400"
     font-size="14"
     y="-67.545097"
     x="-183.452"
     xml:space="preserve"
     transform="scale(1.008439,0.99163165)" /><path
     d="m 82.314489,20.960844 c -0.665732,-0.669662 -1.331463,-0.960843 -1.910411,-0.960843 -0.781755,0 -1.41848,0.494971 -1.794855,1.135533 1.53427,4.687698 1.505264,6.25998 0.23158,7.54108 -0.318363,0.320281 -0.781521,0.524094 -1.389475,0.524094 -0.781521,0 -1.881638,-0.349404 -3.300119,-1.2811 -3.32889,-2.62047 -7.497314,-4.163605 -12.042111,-4.163605 -10.826439,0 -19.597485,8.82218 -19.597485,19.711567 0,5.502927 2.257826,10.481877 5.876307,14.063165 0.144796,0.174737 0.260585,0.349474 0.434153,0.523977 9.552754,9.579187 10.47907,10.569127 2.865966,18.401417 -3.242107,2.88257 -5.297547,7.07532 -5.297547,11.79205 0,8.70574 7.03439,15.751821 15.660828,15.751821 8.655209,0 15.689599,-7.046081 15.689599,-15.751821 0,-4.71673 -2.05544,-8.90948 -5.297547,-11.82106 -7.584331,-7.80328 -6.629009,-8.79322 2.894739,-18.372407 0.173801,-0.174503 0.28959,-0.34924 0.434386,-0.523977 3.618247,-3.552282 5.87626,-8.560238 5.87626,-14.063165 0,-2.03813 -0.318362,-3.959769 -0.868538,-5.764963 0.550176,-0.320281 1.042106,-0.727883 1.563276,-1.222878 4.081639,-4.134481 4.313218,-11.122345 -0.02901,-15.518885 z M 62.080092,39.42048 c 2.229007,0 4.023862,1.805217 4.023862,4.04709 0,2.241872 -1.794855,4.047253 -4.023862,4.047253 -2.228773,0 -4.023628,-1.805381 -4.023628,-4.047253 0,-2.241873 1.794855,-4.04709 4.023628,-4.04709 z m 0,51.826769 c -1.678832,0 -3.010528,-1.33942 -3.010528,-3.05732 0,-1.65965 1.360702,-3.02807 3.010528,-3.02807 1.679065,0 3.010762,1.36842 3.010762,3.02807 0,1.68889 -1.360703,3.05732 -3.010762,3.05732 z"
     id="path7"
     fill="#dc5c00"
     style="fill-rule:nonzero;stroke:none;stroke-width:2.33918" /></svg>
