<?xml version="1.0" encoding="UTF-8" standalone="no"?>
<svg
   width="128"
   height="128"
   viewBox="0 0 128 128"
   version="1.1"
   id="svg29"
   xmlns:xlink="http://www.w3.org/1999/xlink"
   xmlns="http://www.w3.org/2000/svg"
   xmlns:svg="http://www.w3.org/2000/svg">
  <defs
     id="defs15">
    <linearGradient
       id="a-9"
       gradientUnits="userSpaceOnUse"
       x1="0"
       y1="269.46301"
       x2="118.926"
       y2="269.46301"
       gradientTransform="matrix(1,0,0,0.98333333,5e-6,-168.03333)">
      <stop
         offset="0"
         stop-color="#e5a50a"
         id="stop1-5"
         style="stop-color:#000000;stop-opacity:1;" />
      <stop
         offset="0.414"
         stop-color="#fbdf9b"
         id="stop2-1"
         style="stop-color:#999999;stop-opacity:1;" />
      <stop
         offset="0.81300002"
         stop-color="#e5a50a"
         id="stop3-6"
         style="stop-color:#000000;stop-opacity:1;" />
      <stop
         offset="1"
         stop-color="#f8ca5b"
         id="stop4-6"
         style="stop-color:#808080;stop-opacity:1;" />
    </linearGradient>
    <clipPath
       id="clip-path">
      <circle
         class="cls-1"
         cx="230.53999"
         cy="84.580002"
         r="22.98"
         id="circle1" />
    </clipPath>
    <linearGradient
       id="linear-gradient"
       x1="-155.03999"
       y1="232.49001"
       x2="25.139999"
       y2="122.49"
       gradientTransform="rotate(-0.72,-1284.1074,964.39391)"
       gradientUnits="userSpaceOnUse">
      <stop
         offset="0"
         stop-color="#ce0e2d"
         id="stop2-12" />
      <stop
         offset="0.53"
         stop-color="#ff9e18"
         id="stop3-9" />
      <stop
         offset="0.99"
         stop-color="#f7be00"
         id="stop4-3" />
    </linearGradient>
    <linearGradient
       id="linear-gradient-2"
       x1="-166.11"
       y1="235.52"
       x2="7.8099999"
       y2="129.33"
       xlink:href="#linear-gradient"
       gradientTransform="translate(-207.55999,-21.469087)" />
    <linearGradient
       id="linear-gradient-3"
       x1="-172.52"
       y1="242.02"
       x2="1.41"
       y2="135.84"
       xlink:href="#linear-gradient"
       gradientTransform="translate(-207.55999,-21.469087)" />
    <linearGradient
       id="linear-gradient-4"
       x1="-166.11"
       y1="242.02"
       x2="7.8099999"
       y2="135.84"
       xlink:href="#linear-gradient"
       gradientTransform="translate(-207.55999,-21.469087)" />
    <linearGradient
       id="linear-gradient-5"
       x1="-166.11"
       y1="248.52"
       x2="7.8099999"
       y2="142.34"
       xlink:href="#linear-gradient"
       gradientTransform="translate(-207.55999,-21.469087)" />
    <linearGradient
       id="linear-gradient-6"
       x1="-159.91"
       y1="242.02"
       x2="14.02"
       y2="135.84"
       xlink:href="#linear-gradient"
       gradientTransform="translate(-207.55999,-21.469087)" />
    <linearGradient
       id="linear-gradient-10"
       x1="-172.52"
       y1="254.67"
       x2="1.41"
       y2="148.48"
       xlink:href="#linear-gradient"
       gradientTransform="translate(-207.55999,-21.469087)" />
    <linearGradient
       id="linear-gradient-11"
       x1="-159.91"
       y1="235.52"
       x2="14.02"
       y2="129.33"
       xlink:href="#linear-gradient"
       gradientTransform="translate(-207.55999,-21.469087)" />
    <linearGradient
       id="linear-gradient-12"
       x1="-171.91"
       y1="244.25"
       x2="8.2700005"
       y2="134.25"
       xlink:href="#linear-gradient"
       gradientTransform="translate(-207.55999,-21.469087)" />
    <linearGradient
       id="linear-gradient-13"
       x1="-188.7"
       y1="248.00999"
       x2="-14.77"
       y2="141.82001"
       xlink:href="#linear-gradient"
       gradientTransform="translate(-207.55999,-21.469087)" />
    <linearGradient
       id="linear-gradient-14"
       x1="-188.7"
       y1="254.5"
       x2="-14.77"
       y2="148.32001"
       xlink:href="#linear-gradient"
       gradientTransform="translate(-207.55999,-21.469087)" />
    <linearGradient
       id="linear-gradient-15"
       x1="-181.97"
       y1="254.5"
       x2="-8.04"
       y2="148.32001"
       xlink:href="#linear-gradient"
       gradientTransform="translate(-207.55999,-21.469087)" />
    <linearGradient
       xlink:href="#linear-gradient"
       id="linearGradient55"
       gradientUnits="userSpaceOnUse"
       gradientTransform="rotate(-0.72,-3096.3206,17470.541)"
       x1="-155.03999"
       y1="232.49001"
       x2="25.139999"
       y2="122.49" />
    <clipPath
       clipPathUnits="userSpaceOnUse"
       id="clipPath48">
      <circle
         class="cls-1"
         cx="-132.64"
         cy="52.750916"
         r="71.75"
         id="circle48" />
    </clipPath>
    <clipPath
       clipPathUnits="userSpaceOnUse"
       id="clipPath49">
      <circle
         class="cls-1"
         cx="-132.64"
         cy="52.750916"
         r="71.75"
         id="circle49" />
    </clipPath>
    <clipPath
       clipPathUnits="userSpaceOnUse"
       id="clipPath50">
      <circle
         class="cls-1"
         cx="-132.64"
         cy="52.750916"
         r="71.75"
         id="circle50" />
    </clipPath>
    <clipPath
       clipPathUnits="userSpaceOnUse"
       id="clipPath51">
      <circle
         class="cls-1"
         cx="-132.64"
         cy="52.750916"
         r="71.75"
         id="circle51" />
    </clipPath>
    <clipPath
       clipPathUnits="userSpaceOnUse"
       id="clipPath52">
      <circle
         class="cls-1"
         cx="-132.64"
         cy="52.750916"
         r="71.75"
         id="circle52" />
    </clipPath>
    <clipPath
       clipPathUnits="userSpaceOnUse"
       id="clipPath53">
      <circle
         class="cls-1"
         cx="-132.64"
         cy="52.750916"
         r="71.75"
         id="circle53" />
    </clipPath>
    <clipPath
       clipPathUnits="userSpaceOnUse"
       id="clipPath57">
      <circle
         class="cls-1"
         cx="-132.64"
         cy="52.750916"
         r="71.75"
         id="circle57" />
    </clipPath>
    <clipPath
       clipPathUnits="userSpaceOnUse"
       id="clipPath58">
      <circle
         class="cls-1"
         cx="-132.64"
         cy="52.750916"
         r="71.75"
         id="circle58" />
    </clipPath>
    <clipPath
       clipPathUnits="userSpaceOnUse"
       id="clipPath59">
      <circle
         class="cls-1"
         cx="-132.64"
         cy="52.750916"
         r="71.75"
         id="circle59" />
    </clipPath>
    <clipPath
       clipPathUnits="userSpaceOnUse"
       id="clipPath60">
      <circle
         class="cls-1"
         cx="-132.64"
         cy="52.750916"
         r="71.75"
         id="circle60" />
    </clipPath>
    <clipPath
       clipPathUnits="userSpaceOnUse"
       id="clipPath61">
      <circle
         class="cls-1"
         cx="-132.64"
         cy="52.750916"
         r="71.75"
         id="circle61" />
    </clipPath>
    <clipPath
       clipPathUnits="userSpaceOnUse"
       id="clipPath62">
      <circle
         class="cls-1"
         cx="-132.64"
         cy="52.750916"
         r="71.75"
         id="circle62" />
    </clipPath>
    <clipPath
       clipPathUnits="userSpaceOnUse"
       id="clipPath63">
      <circle
         class="cls-1"
         cx="-132.64"
         cy="52.750916"
         r="71.75"
         id="circle63" />
    </clipPath>
    <clipPath
       clipPathUnits="userSpaceOnUse"
       id="clipPath64">
      <circle
         class="cls-1"
         cx="74.919991"
         cy="74.220001"
         r="71.75"
         id="circle64" />
    </clipPath>
    <clipPath
       clipPathUnits="userSpaceOnUse"
       id="clipPath65">
      <circle
         class="cls-1"
         cx="-132.64"
         cy="52.750916"
         r="71.75"
         id="circle65" />
    </clipPath>
    <clipPath
       clipPathUnits="userSpaceOnUse"
       id="clipPath66">
      <circle
         class="cls-1"
         cx="-132.64"
         cy="52.750916"
         r="71.75"
         id="circle66" />
    </clipPath>
    <clipPath
       clipPathUnits="userSpaceOnUse"
       id="clipPath67">
      <circle
         class="cls-1"
         cx="-132.64"
         cy="52.750916"
         r="71.75"
         id="circle67" />
    </clipPath>
    <clipPath
       clipPathUnits="userSpaceOnUse"
       id="clipPath68">
      <circle
         class="cls-1"
         cx="-132.64"
         cy="52.750916"
         r="71.75"
         id="circle68" />
    </clipPath>
    <clipPath
       clipPathUnits="userSpaceOnUse"
       id="clipPath69">
      <circle
         class="cls-1"
         cx="-132.64"
         cy="52.750916"
         r="71.75"
         id="circle69" />
    </clipPath>
    <clipPath
       clipPathUnits="userSpaceOnUse"
       id="clipPath70">
      <circle
         class="cls-1"
         cx="-132.64"
         cy="52.750916"
         r="71.75"
         id="circle70" />
    </clipPath>
    <clipPath
       clipPathUnits="userSpaceOnUse"
       id="clipPath71">
      <circle
         class="cls-1"
         cx="-132.64"
         cy="52.750916"
         r="71.75"
         id="circle71" />
    </clipPath>
    <clipPath
       clipPathUnits="userSpaceOnUse"
       id="clipPath72">
      <circle
         class="cls-1"
         cx="-132.64"
         cy="52.750916"
         r="71.75"
         id="circle72" />
    </clipPath>
    <clipPath
       clipPathUnits="userSpaceOnUse"
       id="clipPath73">
      <circle
         class="cls-1"
         cx="-132.64"
         cy="52.750916"
         r="71.75"
         id="circle73" />
    </clipPath>
    <clipPath
       clipPathUnits="userSpaceOnUse"
       id="clipPath74">
      <circle
         class="cls-1"
         cx="-132.64"
         cy="52.750916"
         r="71.75"
         id="circle74" />
    </clipPath>
    <clipPath
       clipPathUnits="userSpaceOnUse"
       id="clipPath75">
      <circle
         class="cls-1"
         cx="-132.64"
         cy="52.750916"
         r="71.75"
         id="circle75" />
    </clipPath>
    <clipPath
       clipPathUnits="userSpaceOnUse"
       id="clipPath77">
      <circle
         class="cls-1"
         cx="-132.64"
         cy="52.750916"
         r="71.75"
         id="circle77" />
    </clipPath>
    <clipPath
       clipPathUnits="userSpaceOnUse"
       id="clipPath78">
      <circle
         class="cls-1"
         cx="-132.64"
         cy="52.750916"
         r="71.75"
         id="circle78" />
    </clipPath>
    <clipPath
       clipPathUnits="userSpaceOnUse"
       id="clipPath79">
      <circle
         class="cls-1"
         cx="74.919991"
         cy="74.220001"
         r="71.75"
         id="circle79" />
    </clipPath>
  </defs>
  <path
     d="M 124.00001,65.999999 C 124.00001,98.584719 97.137005,125 64.000005,125 c -33.137,0 -60,-26.415281 -60,-59.000001 0,-32.584717 26.863,-58.9999996 60,-58.9999996 33.137,0 60.000005,26.4152826 60.000005,58.9999996 z m 0,0"
     fill="url(#a)"
     id="path4"
     style="fill:url(#a-9);stroke-width:0.991632" />
  <path
     style="fill:#ffffff;fill-opacity:1;fill-rule:evenodd;stroke:none;stroke-width:11.1733;stroke-linecap:square;stroke-linejoin:bevel"
     id="path94"
     d="M 124.00001,61.999998 C 124.00001,94.584668 97.136958,121 64,121 30.86291,121 4,94.584668 4,61.999998 4,29.415192 30.86291,2.9999992 64,2.9999992 c 33.136958,0 60.00001,26.4151928 60.00001,58.9999988"
     vector-effect="none" />
  <text
     style="font-style:normal;font-weight:400;font-size:13.8828px;font-family:Arial;fill:#ffffff;fill-opacity:1;fill-rule:evenodd;stroke:none;stroke-width:0.991632;stroke-linecap:square;stroke-linejoin:bevel;stroke-opacity:1"
     id="text1476"
     font-style="normal"
     font-weight="400"
     font-size="14"
     y="-67.545097"
     x="-183.452"
     xml:space="preserve"
     transform="scale(1.008439,0.99163165)" />
  <g
     class="cls-2"
     clip-path="url(#clip-path)"
     id="g4"
     transform="translate(-207.55999,-21.469087)" />
  <g
     id="g127"
     transform="translate(205.84907,19.46874)">
    <path
       class="cls-4"
       d="m -118.77663,32.10197 c 0,0 0.71511,-6.099969 -0.52556,-10.412309 -1.24068,-4.312339 -1.72316,-4.176784 -1.72316,-4.176784 0,0 1.9644,2.380682 3.18784,7.345379 0.91327,3.685399 0.12923,5.269696 0.12923,5.269696 z"
       id="path5"
       style="fill:#ffffff;stroke-width:0.854368" />
    <path
       id="path6"
       clip-path="none"
       style="fill:#672f25;stroke-width:0.854368"
       class="cls-6"
       d="m -121.59333,-9.0986157 c -4.54887,0.1470092 -9.03417,1.0941283 -13.24338,2.7964811 -8.02458,3.2156594 -14.83668,8.8006814 -19.49656,15.9846206 -0.94896,-0.2159051 -1.96138,-0.4727646 -3.02562,-0.6751277 -1.69849,-0.3682373 -3.45251,-0.4170828 -5.16947,-0.1439601 -0.96925,0.1789934 -1.89569,0.5354231 -2.73113,1.0507485 -0.80702,0.5216573 -1.51778,1.1746843 -2.10177,1.9310613 -1.06187,1.404528 -1.79717,3.021199 -2.15395,4.735816 -0.0948,0.474442 -0.16309,0.71206 -0.24064,1.042475 l -0.22381,0.939882 c -0.19678,0.608705 -0.42997,1.205445 -0.69834,1.787101 l -0.42238,0.847218 c -0.14647,0.31347 -0.34449,0.567636 -0.50819,0.847218 -0.34601,0.539009 -0.72888,1.054265 -1.14597,1.542201 -1.80517,1.977487 -3.99715,3.576908 -6.44501,4.702722 -2.56913,1.188564 -5.25692,2.111341 -8.02007,2.753458 l -1.08707,0.253173 -0.55026,0.127414 -0.68153,0.211804 c -0.80495,0.282607 -1.58547,0.628457 -2.33399,1.034202 -1.52864,0.772147 -2.90802,1.801476 -4.07567,3.04138 -0.58613,0.662329 -1.09995,1.383326 -1.533,2.151139 -0.22254,0.398169 -0.42144,0.808675 -0.5957,1.229459 -0.15508,0.406664 -0.28324,0.778911 -0.40386,1.151687 -0.51773,1.525487 -0.86199,3.102681 -1.0265,4.702721 -0.19184,1.700733 -0.0779,3.421392 0.33656,5.083308 0.42428,1.677686 1.16706,3.26145 2.18928,4.667973 l 3.05759,4.236089 0.86158,-5.083307 c 0.23599,-1.608042 0.75172,-3.164138 1.52459,-4.60013 0.0755,-0.137404 0.15685,-0.271559 0.244,-0.402097 0.23888,0.780552 0.62728,1.509014 1.14428,2.146175 0.74956,0.890891 1.68722,1.61079 2.74796,2.109772 0.93763,0.439124 1.92751,0.760992 2.94653,0.958084 l 5.76349,1.126866 -3.4968,-4.659699 c -0.58717,-0.81481 -0.84673,-1.814545 -0.72864,-2.806409 0.2426,0.225311 0.49705,0.437959 0.7623,0.637068 0.81138,0.599879 1.73307,1.039836 2.7143,1.295648 0.98991,0.264979 2.02346,0.334159 3.04076,0.20353 l 5.67767,-0.694983 -4.64277,-3.388872 c -0.16219,-0.09725 -0.29609,-0.234044 -0.38872,-0.397133 -0.0522,-0.243324 -0.0522,-0.494682 0,-0.738006 0.0616,-0.240903 0.12893,-0.480351 0.20194,-0.71815 0.49509,0.230798 1.00296,0.434097 1.52122,0.608938 0.92116,0.358599 1.90549,0.534072 2.89605,0.516273 2.12322,-0.215361 4.02862,-1.37663 5.16946,-3.150591 0.44543,-0.743816 0.79799,-1.53775 1.05005,-2.364599 0.15461,-0.52411 0.35388,-1.034469 0.5957,-1.525654 0.12162,-0.233145 0.28922,-0.440149 0.49305,-0.608938 0.19076,-0.08375 0.38439,-0.161011 0.58055,-0.231661 -0.014,0.04043 -0.0276,0.08014 -0.0404,0.120795 -0.11201,0.355831 -0.17279,0.737741 -0.26757,1.102045 -0.0948,0.364304 -0.0942,0.737543 -0.0942,1.110319 0.0111,1.332841 0.28606,2.6508 0.80942,3.880324 0.91327,2.194295 2.10333,3.990265 2.82705,5.583034 0.33542,0.708134 0.54759,1.466605 0.62767,2.243804 0.10294,0.888642 0.13164,1.784087 0.0858,2.677341 -0.0862,1.90624 -0.38656,3.880391 -0.55026,6.066213 -0.0775,1.118328 -0.087,2.134592 -0.18174,2.98181 -0.0323,0.700493 -0.20197,1.388244 -0.49978,2.025381 -0.0802,0.160368 -0.19787,0.299838 -0.34328,0.407062 -0.0431,0.0593 -0.14668,0.06811 -0.20699,0.127413 -0.0561,0.01262 -0.11122,0.02922 -0.1649,0.04964 -0.0665,0.02929 -0.13588,0.05201 -0.20699,0.06784 -0.84716,0.204052 -1.71315,0.323248 -2.58473,0.355766 -1.95993,0.04705 -3.92071,-0.04919 -5.86613,-0.287922 l -5.91157,-0.584117 3.83503,4.439621 c 1.80838,2.118051 3.90064,3.985057 6.21951,5.549939 2.30686,1.592373 4.93073,2.685901 7.69867,3.208507 0.16019,0.07115 0.32884,0.139271 0.49642,0.205186 0.36743,0.117486 0.74473,0.202761 1.12746,0.254827 0.89871,0.08226 1.80135,-0.110166 2.58473,-0.551023 0.62996,-0.373889 1.17336,-0.87329 1.59526,-1.466083 0.33336,-0.437011 0.62197,-0.905371 0.86158,-1.398241 0.43079,-0.864162 0.71356,-1.65181 0.99788,-2.270279 l 1.0349,-2.15114 c 1.41299,-2.973735 2.66988,-5.930791 3.91917,-8.955359 1.24929,-3.024568 2.42965,-5.998633 3.6617,-9.023202 l 2.77489,-7.231137 c 1.04403,0.129154 2.10306,0.07594 3.12826,-0.157199 1.63331,-0.400445 3.15694,-1.149562 4.46271,-2.194162 1.21961,-0.957975 2.3034,-2.072111 3.2225,-3.312755 0.91751,-1.228311 1.67293,-2.566069 2.24818,-3.981262 0.47276,-1.200439 0.85796,-2.432462 1.1527,-3.686722 3.7431,-0.528216 7.55743,-0.273918 11.19377,0.74628 3.79946,1.092517 7.39954,2.768451 10.66707,4.965822 6.599688,4.380117 12.363641,10.301641 17.231555,16.613415 0.668349,0.933767 1.29712,1.894328 1.884701,2.879218 0.385686,-1.444574 0.717903,-2.91084 0.992833,-4.396599 -0.0857,-0.1273 -0.172075,-0.254162 -0.259112,-0.380584 -0.620336,-0.847218 -1.266923,-1.71138 -1.921722,-2.541654 -0.654799,-0.830273 -1.32582,-1.567023 -1.980618,-2.414241 l -2.068123,-2.356325 -2.162358,-2.286825 c -2.94374,-3.045231 -6.197917,-5.784949 -9.711256,-8.175985 -3.56575,-2.453405 -7.50627,-4.332456 -11.67337,-5.566487 -3.47746,-1.01947 -7.11177,-1.421783 -10.7327,-1.18809 -0.005,-0.253466 -0.0174,-0.50674 -0.037,-0.759519 -0.0761,-1.039801 -0.24046,-2.071528 -0.49136,-3.084402 -0.243,-1.014624 -0.57461,-2.006727 -0.99115,-2.965263 -0.4114,-0.95806 -0.93069,-1.867767 -1.54815,-2.712091 -0.0123,-0.01934 -0.0246,-0.03865 -0.037,-0.05792 l -0.002,0.0017 c -0.0167,-0.02598 -0.0336,-0.05191 -0.0505,-0.07777 l -3.24775,2.38942 c 0.0668,0.0914 0.12157,0.193549 0.18342,0.289577 0.0987,0.158015 0.19407,0.318005 0.28607,0.479869 0.81963,1.56266 1.09631,3.588864 0.98611,5.626057 -0.15423,2.453008 -0.70347,4.866393 -1.62724,7.150056 -0.90604,2.134463 -2.34276,4.010963 -4.17832,5.457275 -0.8179,0.64989 -1.77088,1.115337 -2.7917,1.363491 -0.8986,0.202027 -1.839,0.122171 -2.68907,-0.228351 l -2.04961,-0.847218 -0.85317,2.134592 -3.60113,9.006655 c -1.2062,2.956791 -2.42211,5.947668 -3.68862,8.887515 -1.26652,2.939846 -2.55828,5.878501 -3.90234,8.733626 l -1.07697,2.212364 c -0.3791,0.847218 -0.65446,1.566757 -0.9474,2.142866 -0.12187,0.264853 -0.2792,0.512496 -0.46781,0.736351 -0.0415,-0.01925 -0.0842,-0.03583 -0.12789,-0.04964 l -0.75725,-0.246554 c -2.20765,-0.391783 -4.29957,-1.259814 -6.12528,-2.541654 -0.24815,-0.167876 -0.49331,-0.339993 -0.73536,-0.516273 h 0.0202 c 1.20261,-0.04287 2.39753,-0.207561 3.56579,-0.491453 0.18134,-0.04345 0.36,-0.09703 0.53512,-0.160508 l 0.57719,-0.203531 c 0.39966,-0.176419 0.77832,-0.395614 1.12914,-0.653615 0.7103,-0.495198 1.29904,-1.140275 1.72315,-1.888039 0.63325,-1.20038 1.01114,-2.515042 1.11063,-3.863776 0.12062,-1.16069 0.12964,-2.212034 0.19857,-3.143974 0.14646,-1.923185 0.46518,-3.964583 0.57718,-6.158877 0.0751,-1.149355 0.052,-2.302883 -0.069,-3.448442 -0.0644,-0.631835 -0.17971,-1.257637 -0.34497,-1.871491 -0.17609,-0.607116 -0.39481,-1.201486 -0.65459,-1.778828 -0.99081,-2.143461 -2.1289,-3.813406 -2.76647,-5.397704 -0.63757,-1.584298 -0.56864,-2.770337 0,-3.532833 0.38374,-0.454101 0.88827,-0.794398 1.45727,-0.982905 0.63234,-0.224029 1.28915,-0.374529 1.95707,-0.44843 0.0423,1.94e-4 0.0854,0 0.12789,0 v -0.01324 c 0.0829,-0.0084 0.16593,-0.01553 0.24905,-0.02151 v -1.199674 c -0.0121,0.01948 -0.0244,0.03879 -0.037,0.05792 l -0.0724,-2.62108 0.002,0.0017 c 0.0383,0.05367 0.0742,0.108876 0.1077,0.165473 v -1.131906 h -0.13463 l -0.003,-0.100939 c -0.0715,-7.51e-4 -0.14329,-0.0019 -0.2154,-0.0033 v -0.02151 c -0.0803,0.0047 -0.16047,0.0103 -0.24063,0.01655 -1.4869,-0.03826 -3.10259,-0.173492 -4.85984,-0.127414 -2.10565,-0.001 -4.18441,0.465078 -6.08152,1.363492 l -0.14809,0.07777 -0.1363,0.09267 c -0.86597,0.610762 -1.579,1.407552 -2.08495,2.329849 -0.37143,0.728079 -0.67447,1.487995 -0.90533,2.27028 -0.13874,0.480512 -0.33237,0.944029 -0.57719,1.381693 -0.17104,0.274871 -0.40792,0.504387 -0.68994,0.668508 -0.6219,0.405627 -1.40482,0.49069 -2.10177,0.228352 -1.05219,-0.368322 -2.03612,-0.903226 -2.91287,-1.58357 l -3.00543,-2.237185 -0.64618,3.651973 c -0.11172,0.549879 -0.25556,1.092976 -0.43079,1.626592 -0.23301,0.703911 -0.42903,1.419145 -0.58729,2.142866 -0.008,0.0468 -0.0152,0.09368 -0.0219,0.140651 -0.36585,-0.447062 -0.64997,-0.953205 -0.8397,-1.495869 l -1.31761,-3.72809 -2.58473,3.000012 c -0.46913,0.544504 -0.87913,1.135687 -1.22338,1.763935 l 0.34497,-1.095427 -3.33524,0.364039 c -1.37331,0.160408 -2.67101,0.704832 -3.73912,1.568677 -0.93361,0.75951 -1.71832,1.680301 -2.31549,2.717055 -0.0316,-0.539102 -0.0176,-1.079856 0.042,-1.616664 0.13122,-1.303621 0.40254,-2.589902 0.80941,-3.837302 0.10339,-0.313471 0.20605,-0.63548 0.31806,-0.915062 0.0998,-0.253971 0.21784,-0.500602 0.35337,-0.738006 0.28246,-0.509514 0.61741,-0.989145 0.99957,-1.431335 0.82068,-0.915749 1.79724,-1.683982 2.88595,-2.270279 0.55321,-0.298196 1.12936,-0.553254 1.72315,-0.762827 l 0.3803,-0.127414 0.52503,-0.125759 1.07697,-0.254827 c 3.01922,-0.740266 5.95268,-1.784967 8.75376,-3.117498 2.93157,-1.375388 5.55329,-3.314248 7.71045,-5.702174 0.51206,-0.63267 0.98143,-1.297636 1.40511,-1.990631 0.21539,-0.347359 0.45664,-0.686246 0.64618,-1.059022 l 0.53344,-1.110319 c 0.33409,-0.747212 0.62181,-1.513651 0.86158,-2.2951 l 0.31131,-1.153342 c 0.0862,-0.381248 0.24064,-0.854896 0.24064,-1.092117 0.21468,-1.165709 0.68183,-2.272374 1.36977,-3.244911 0.30424,-0.410233 0.68101,-0.763341 1.11231,-1.042475 0.41864,-0.268269 0.88697,-0.452706 1.37819,-0.542749 1.22895,-0.18694 2.48275,-0.143709 3.69536,0.127414 1.36129,0.237221 2.76573,0.627205 4.37688,0.906787 l 1.30078,0.228352 0.69835,-1.126866 c 4.20452,-7.0625527 10.64325,-12.57864006 18.33377,-15.7066266 3.80263,-1.5755155 7.86175,-2.4677415 11.98467,-2.6343183 1.75268,-0.071135 3.50833,0.0086 5.24688,0.2382801 -0.85814,0.3312585 -1.69789,0.7068521 -2.51574,1.1252113 -1.55308,0.7789501 -3.00039,1.7468318 -4.30789,2.880872 -1.38611,1.18565349 -2.50152,2.6461942 -3.27299,4.2857314 l -1.95706,4.3635036 4.30789,-2.2537323 c 7.52237,-3.8363493 16.05379,-5.33112769 24.460725,-4.28573139 l 0.03197,0.003313 c -1.207275,-1.18360348 -2.465215,-2.31764171 -3.771085,-3.39714541 -3.12806,-0.1073061 -6.25924,0.090016 -9.34778,0.5890812 -1.79847,0.2867893 -3.57633,0.6869539 -5.32259,1.19801916 0.2485,-0.14003676 0.50043,-0.27410886 0.75556,-0.40209756 1.31955,-0.6623818 2.70215,-1.1955617 4.12783,-1.5918431 1.38467,-0.3992344 2.81392,-0.6298615 4.25572,-0.6867099 l 4.2877,-0.1075569 c -1.73383,-1.3573129 -3.54592,-2.6212277 -5.42861,-3.7860053 -3.76135,-1.2198715 -7.71138,-1.7805175 -11.67001,-1.6563773 z M -154.5066,33.139833 v 2.396038 c 0.021,-0.03425 0.0413,-0.06902 0.0606,-0.104247 l 0.12117,-0.271375 c 0.0605,-0.158942 0.10388,-0.32365 0.12957,-0.491453 0.0744,-0.529589 -0.0353,-1.068364 -0.31131,-1.528963 z M -94.064914,6.8280892 c -0.237319,0.1037706 -0.471863,0.2135709 -0.703397,0.3292899 -0.21449,-0.032474 -0.433536,-0.020071 -0.642818,0.036405 -0.126946,0.041971 -0.250667,0.092848 -0.370208,0.152234 l -0.190154,0.11914 -0.180056,0.1191401 -0.121159,0.1092114 -0.240636,0.2118045 c -0.275705,0.2626376 -0.491167,0.5252091 -0.715177,0.7793745 l -0.0202,0.023163 -3.666761,2.7385654 4.927154,-0.491452 c 0.0953,-0.008 0.190193,-0.0201 0.284388,-0.03641 1.543816,-0.0082 3.087411,0.03984 4.627614,0.143961 -0.934519,-1.4557525 -1.931881,-2.8685079 -2.988597,-4.2344351 z" />
    <path
       id="path7"
       clip-path="none"
       style="fill:#e1251b;stroke-width:0.854368"
       class="cls-7"
       d="m -119.27447,-7.0947467 c -3.85792,-0.1129348 -8.58367,0.3023509 -13.83068,1.9194782 -11.26082,3.490538 -17.98146,13.215475 -20.16125,16.8500405 -3.86848,-0.423609 -6.35749,-0.769446 -6.35749,-0.769446 -1.55946,-0.313471 -5.08419,-1.297435 -7.14336,4.497536 -2.05917,5.794971 -1.92098,8.794254 -6.76305,12.843956 -4.84206,4.049702 -17.57564,4.566968 -20.12591,8.099867 -2.55026,3.532899 -4.16148,9.099253 -3.73069,11.57313 0.46989,1.954741 1.20572,3.838241 2.18759,5.599581 0.32732,-2.034907 1.02505,-3.995116 2.05972,-5.786565 0.83399,-1.543161 2.36823,-2.60102 4.12782,-2.846122 0,0 -0.97506,2.744059 0.2053,4.557105 1.18036,1.813047 4.79084,2.457264 4.79084,2.457264 -0.85221,-1.202459 -1.26234,-2.65456 -1.16279,-4.11695 -0.0623,-1.733065 0.61921,-3.412046 1.87797,-4.626605 1.85239,5.303585 6.58299,4.499191 6.58299,4.499191 -0.95408,-0.989413 -1.49264,-2.296835 -1.50776,-3.660246 -0.12924,-1.813046 0.5681,-2.33713 1.3866,-3.438514 0,0 4.38496,2.787347 7.05585,1.906241 2.67089,-0.881107 2.3696,-7.253642 6.9532,-7.846695 2.00926,-0.230793 3.99707,-0.615865 5.94522,-1.151687 -1.5853,0.609997 -4.93731,2.423043 -4.14466,6.777744 1.0339,5.650944 4.22287,7.795067 3.97301,10.845051 -0.24984,3.049985 -0.17325,13.318466 -1.61208,15.665259 -1.43884,2.346794 -11.54548,1.260899 -11.54548,1.260899 0,0 3.68028,4.405732 7.62631,6.134056 3.94602,1.728325 7.09953,3.109621 8.53837,0.762828 1.43883,-2.346794 13.64725,-31.770674 13.64725,-31.770674 0,0 2.79043,1.389239 7.72727,-1.474357 4.93684,-2.863597 6.03104,-10.911242 6.03104,-10.911242 l 0.15482,-0.05957 c 0.25843,-2.352745 0.16888,-4.729896 -0.26587,-7.057391 -0.21091,-1.060821 -0.49884,-2.105419 -0.86158,-3.125771 -0.12886,-0.240188 -0.27273,-0.472294 -0.43079,-0.694984 h 0.002 0.002 c 0.0236,0.0055 0.16195,0.0654 0.42742,0.694984 1.01672,1.89161 1.72052,3.930399 2.08495,6.039737 0.28997,1.271245 0.33392,2.58481 0.12958,3.87205 2.97244,-0.593052 11.37275,-1.084703 24.48596,7.565392 l -0.12116,-0.236625 c 7.606323,5.326699 13.578401,11.287435 17.682535,17.978561 0.984625,-4.243097 1.504395,-8.661496 1.504395,-13.199722 -1e-6,-12.228338 -3.775068,-23.583685 -10.243012,-33.0001326 -2.55774,-0.1274843 -3.998259,0.016546 -3.998259,0.016546 0,0 0.622841,-0.9559507 2.776568,-1.7275299 -2.394324,-3.2330094 -5.115123,-6.2169167 -8.114307,-8.905717 -12.53,-0.7183416 -23.31812,4.6696271 -23.31813,4.6696271 0,0 0.76694,-2.3125741 5.95364,-5.5913076 2.96728,-1.939008 6.40929,-3.0596043 9.96704,-3.244911 0,0 -4.01846,-1.6551362 -10.44831,-1.8433609 z" />
    <polygon
       class="cls-6"
       points="17.26,69.88 23.74,67.09 23.59,69.26 "
       id="polygon7"
       style="fill:#672f25"
       transform="matrix(0.86157753,0,0,0.84721796,-206.76954,-20.705125)"
       clip-path="url(#clipPath79)" />
    <path
       class="cls-6"
       d="m -115.19999,25.030913 c 0,0 4.76,3.68 7,7.11 a 25.08,25.08 0 0 1 2.92,7.66 l -10.09,3.29 a 24,24 0 0 0 0.86,-10.8 c -0.55,-3.51 -5.89,-10.48 -5.89,-10.48 z"
       id="path8"
       style="fill:#672f25"
       clip-path="url(#clipPath78)"
       transform="matrix(0.86157753,0,0,0.84721796,-27.940521,-2.5161293)" />
    <path
       class="cls-6"
       d="m -104.55999,0.270913 c 0,0 -9.22,5.88 -11.44,8 a 29.34,29.34 0 0 0 -4,5.06 c 0,0 4.38,-3.27 7,-5 2.62,-1.73 11.24,-4.95 11.24,-4.95 l -5.78,0.72 z"
       id="path9"
       style="fill:#672f25"
       clip-path="url(#clipPath77)"
       transform="matrix(0.86157753,0,0,0.84721796,-27.940521,-2.5161293)" />
    <path
       class="cls-8"
       d="m -120.01999,28.270913 c 0,0 4.46,6.45 3.56,11.89 -0.9,5.44 -3,9.54 -6.53,10.65 a 30.77,30.77 0 0 1 -7.36,1.2 18.91,18.91 0 0 0 9.32,-10.1 23.37,23.37 0 0 0 1.01,-13.64 z"
       id="path11"
       style="fill:#ff7f40"
       clip-path="url(#clipPath75)"
       transform="matrix(0.86157753,0,0,0.84721796,-27.940521,-2.5161293)" />
    <path
       class="cls-6"
       d="m -153.71999,53.430913 c -0.84,-4.18 -1.68,-9.9 2.76,-10.27 a 36.31,36.31 0 0 1 8.25,0.29 13,13 0 0 0 -7.57,-1.55 26.65,26.65 0 0 0 -7.6,2.63 l 2.32,3.51 c 0,0 2.1,6.64 1.84,5.39 z"
       id="path12"
       style="fill:#672f25"
       clip-path="url(#clipPath74)"
       transform="matrix(0.86157753,0,0,0.84721796,-27.940521,-2.5161293)" />
    <path
       class="cls-6"
       d="m -172.81999,50.840913 c 0,0 6.34,1.74 7.46,1.25 1.12,-0.49 4.73,-5.28 4.73,-5.28 l -1.93,7.61 -5,0.39 z"
       id="path13"
       style="fill:#672f25"
       clip-path="url(#clipPath73)"
       transform="matrix(0.86157753,0,0,0.84721796,-27.940521,-2.5161293)" />
    <path
       class="cls-6"
       d="m -154.61999,82.900913 c 0,0 -6.16,0.3 -6.64,1.72 -0.48,1.42 5.63,7.32 5.63,7.32 l -11.93,-9.47 z"
       id="path14"
       style="fill:#672f25"
       clip-path="url(#clipPath72)"
       transform="matrix(0.86157753,0,0,0.84721796,-27.940521,-2.5161293)" />
    <path
       class="cls-8"
       d="m -158.14999,85.530913 c 0,0 0.56,1.21 4.47,3.43 3.91,2.22 5.32,1.89 6.47,0.56 1.15,-1.33 13.65,-35.17 13.65,-35.17 0,0 -12.25,31.36 -16.64,31.82 a 25.33,25.33 0 0 1 -7.95,-0.64 z"
       id="path15"
       style="fill:#ff7f40"
       clip-path="url(#clipPath71)"
       transform="matrix(0.86157753,0,0,0.84721796,-27.940521,-2.5161293)" />
    <path
       class="cls-6"
       d="m -120.08999,13.450913 c 0,0 2.41,-8.49 12,-14.18 5,-3 14.2,-2.49 14.2,-2.49 0,0 -8.08,2.64 -11.64,5.39 z"
       id="path16"
       style="fill:#672f25"
       clip-path="url(#clipPath70)"
       transform="matrix(0.86157753,0,0,0.84721796,-27.940521,-2.5161293)" />
    <path
       id="path17"
       clip-path="url(#clipPath69)"
       style="fill:#672f25"
       class="cls-6"
       d="m -76.421875,11.460938 c -1.724347,1.428595 -2.677734,2.820312 -2.677734,2.820312 0,0 1.812505,-0.191795 4.345703,-0.492188 -0.540794,-0.78787 -1.096048,-1.564115 -1.667969,-2.328124 z"
       transform="matrix(0.86157753,0,0,0.84721796,-27.940521,-2.5161293)" />
    <path
       class="cls-8"
       d="m -139.20999,8.530913 c 0,0 12.5,-13.45 24.25,-13.85 11.75,-0.4 17.72,0.64 17.72,0.64 0,0 -13.79,-0.26 -23.92,3.21 a 66.33,66.33 0 0 0 -18.05,10 z"
       id="path18"
       style="fill:#ff7f40"
       clip-path="url(#clipPath68)"
       transform="matrix(0.86157753,0,0,0.84721796,-27.940521,-2.5161293)" />
    <path
       id="path19"
       clip-path="url(#clipPath67)"
       style="fill:#ff7f40"
       class="cls-8"
       d="M -90.091797,1.5859375 C -105.5611,1.6738281 -120.08984,13.451172 -120.08984,13.451172 l -0.0508,0.599609 c 0,0 7.47132,-5.7705466 24.861323,-8.5605466 4.528813,-0.7265893 9.160062,-0.7252255 13.533203,-0.328125 -1.052376,-1.1058842 -2.141132,-2.178077 -3.263672,-3.2128906 -0.659082,-0.082329 -1.319306,-0.1552532 -1.980468,-0.21875 -1.035625,-0.105 -2.070276,-0.1503907 -3.101563,-0.1445313 z"
       transform="matrix(0.86157753,0,0,0.84721796,-27.940521,-2.5161293)" />
    <path
       id="path20"
       clip-path="url(#clipPath66)"
       style="fill:#ff7f40"
       class="cls-8"
       d="m -74.554688,14.080078 c -2.86899,-0.04563 -4.544921,0.201172 -4.544921,0.201172 0,0 2.105104,0.402004 5.4375,1.148438 -0.292937,-0.453752 -0.589459,-0.903201 -0.892579,-1.34961 z"
       transform="matrix(0.86157753,0,0,0.84721796,-27.940521,-2.5161293)" />
    <path
       class="cls-6"
       d="m -184.69999,65.720913 c 0,0 4.35,1.34 6.14,1.71 a 12.58,12.58 0 0 0 3.7,0.09 c 0,0 -4.51,-3.08 -5,-4.25 -0.49,-1.17 -2,1.26 -2,1.26 z"
       id="path21"
       style="fill:#672f25"
       clip-path="url(#clipPath65)"
       transform="matrix(0.86157753,0,0,0.84721796,-27.940521,-2.5161293)" />
    <polygon
       class="cls-6"
       points="33.86,83.01 39.44,81.45 36.25,78.58 "
       id="polygon21"
       style="fill:#672f25"
       transform="matrix(0.86157753,0,0,0.84721796,-206.76954,-20.705125)"
       clip-path="url(#clipPath64)" />
    <path
       class="cls-6"
       d="m -161.01999,32.410913 a 35.63,35.63 0 0 0 4.16,-6.14 67.32,67.32 0 0 0 2.8,-6.89 l 0.42,10 z"
       id="path22"
       style="fill:#672f25"
       clip-path="url(#clipPath63)"
       transform="matrix(0.86157753,0,0,0.84721796,-27.940521,-2.5161293)" />
    <path
       class="cls-9"
       d="m -162.70999,68.170913 a 1.8,1.8 0 0 1 -0.9,-0.19 2.16,2.16 0 0 1 -0.7,-0.54 2.41,2.41 0 0 1 -0.45,-0.82 3.29,3.29 0 0 1 -0.17,-1 v 0 a 3.11,3.11 0 0 1 0.15,-1 2.62,2.62 0 0 1 0.43,-0.83 2.08,2.08 0 0 1 0.69,-0.56 1.93,1.93 0 0 1 0.9,-0.22 2,2 0 0 1 0.9,0.19 1.94,1.94 0 0 1 0.69,0.55 2.67,2.67 0 0 1 0.46,0.81 3.68,3.68 0 0 1 0.15,0.97 v 0 a 3.38,3.38 0 0 1 -0.15,1 2.61,2.61 0 0 1 -0.43,0.83 2.11,2.11 0 0 1 -0.69,0.57 1.93,1.93 0 0 1 -0.88,0.24 z m 0,-0.79 a 1,1 0 0 0 0.53,-0.14 1.32,1.32 0 0 0 0.39,-0.39 2,2 0 0 0 0.25,-0.58 2.24,2.24 0 0 0 0.08,-0.7 v 0 a 2.34,2.34 0 0 0 -0.1,-0.71 1.87,1.87 0 0 0 -0.27,-0.57 1.21,1.21 0 0 0 -0.4,-0.38 1,1 0 0 0 -0.54,-0.14 1,1 0 0 0 -0.52,0.15 1.15,1.15 0 0 0 -0.4,0.39 1.86,1.86 0 0 0 -0.25,0.57 3.13,3.13 0 0 0 -0.08,0.7 v 0 a 3.11,3.11 0 0 0 0.1,0.7 1.88,1.88 0 0 0 0.27,0.57 1.38,1.38 0 0 0 0.41,0.39 1,1 0 0 0 0.53,0.14 z"
       id="path23"
       style="fill:url(#linearGradient55)"
       clip-path="url(#clipPath62)"
       transform="matrix(0.86157753,0,0,0.84721796,-27.940521,-2.5161293)" />
    <path
       class="cls-10"
       d="m -180.99999,75.810913 a 1.92,1.92 0 0 1 -0.87,-0.19 1.9,1.9 0 0 1 -0.67,-0.52 2.44,2.44 0 0 1 -0.44,-0.79 3.14,3.14 0 0 1 -0.16,-1 v 0 a 2.87,2.87 0 0 1 0.14,-1 2.43,2.43 0 0 1 0.44,-0.78 2,2 0 0 1 0.66,-0.55 1.81,1.81 0 0 1 0.87,-0.21 2.05,2.05 0 0 1 0.87,0.18 2.16,2.16 0 0 1 0.67,0.53 2.74,2.74 0 0 1 0.44,0.79 3.08,3.08 0 0 1 0.16,1 v 0 a 3.18,3.18 0 0 1 -0.14,1 2.65,2.65 0 0 1 -0.42,0.8 1.93,1.93 0 0 1 -1.53,0.76 z m 0,-0.77 a 1,1 0 0 0 0.51,-0.14 1.15,1.15 0 0 0 0.38,-0.38 1.61,1.61 0 0 0 0.24,-0.55 2.49,2.49 0 0 0 0.08,-0.68 v 0 a 2.48,2.48 0 0 0 -0.1,-0.68 1.86,1.86 0 0 0 -0.26,-0.55 1.15,1.15 0 0 0 -0.39,-0.37 1,1 0 0 0 -0.52,-0.16 1,1 0 0 0 -0.5,0.15 1.12,1.12 0 0 0 -0.38,0.37 1.61,1.61 0 0 0 -0.24,0.55 2.53,2.53 0 0 0 -0.08,0.68 v 0 a 2.48,2.48 0 0 0 0.09,0.68 1.86,1.86 0 0 0 0.26,0.55 1.28,1.28 0 0 0 0.4,0.37 1,1 0 0 0 0.51,0.16 z"
       id="path24"
       style="fill:url(#linear-gradient-2)"
       clip-path="url(#clipPath61)"
       transform="matrix(0.86157753,0,0,0.84721796,-27.940521,-2.5161293)" />
    <path
       class="cls-11"
       d="m -187.32999,82.390913 a 1.92,1.92 0 0 1 -0.87,-0.19 2,2 0 0 1 -0.67,-0.52 2.64,2.64 0 0 1 -0.44,-0.79 3.4,3.4 0 0 1 -0.16,-1 v 0 a 3.14,3.14 0 0 1 0.14,-1 2.54,2.54 0 0 1 0.42,-0.8 2.22,2.22 0 0 1 0.67,-0.55 2.06,2.06 0 0 1 0.86,-0.21 1.92,1.92 0 0 1 0.87,0.19 1.9,1.9 0 0 1 0.67,0.52 2.64,2.64 0 0 1 0.44,0.79 3.09,3.09 0 0 1 0.17,1 v 0 a 3.46,3.46 0 0 1 -0.14,1 2.47,2.47 0 0 1 -0.43,0.8 1.93,1.93 0 0 1 -1.53,0.76 z m 0,-0.77 a 1,1 0 0 0 0.51,-0.14 1.25,1.25 0 0 0 0.38,-0.38 2.13,2.13 0 0 0 0.24,-0.55 2.49,2.49 0 0 0 0.07,-0.68 v 0 a 2.48,2.48 0 0 0 -0.09,-0.68 2.15,2.15 0 0 0 -0.26,-0.55 1.24,1.24 0 0 0 -0.39,-0.37 1,1 0 0 0 -1,0 1.25,1.25 0 0 0 -0.39,0.37 2.06,2.06 0 0 0 -0.24,0.56 2.88,2.88 0 0 0 -0.08,0.68 v 0 a 2.93,2.93 0 0 0 0.1,0.68 1.64,1.64 0 0 0 0.26,0.55 1.24,1.24 0 0 0 0.39,0.37 0.94,0.94 0 0 0 0.51,0.14 z"
       id="path25"
       style="fill:url(#linear-gradient-3)"
       clip-path="url(#clipPath60)"
       transform="matrix(0.86157753,0,0,0.84721796,-27.940521,-2.5161293)" />
    <path
       class="cls-12"
       d="m -180.91999,82.310913 a 1.92,1.92 0 0 1 -0.87,-0.19 1.9,1.9 0 0 1 -0.67,-0.52 2.44,2.44 0 0 1 -0.44,-0.79 3.1,3.1 0 0 1 -0.16,-1 v 0 a 2.87,2.87 0 0 1 0.14,-1 2.54,2.54 0 0 1 0.42,-0.8 1.93,1.93 0 0 1 1.53,-0.76 1.92,1.92 0 0 1 0.87,0.19 2,2 0 0 1 0.67,0.52 2.64,2.64 0 0 1 0.44,0.79 3.08,3.08 0 0 1 0.16,1 v 0 a 2.91,2.91 0 0 1 -0.14,1 2.65,2.65 0 0 1 -0.42,0.8 1.93,1.93 0 0 1 -1.53,0.76 z m 0,-0.77 a 1,1 0 0 0 0.51,-0.14 1.15,1.15 0 0 0 0.38,-0.38 1.61,1.61 0 0 0 0.24,-0.55 2.49,2.49 0 0 0 0.08,-0.68 v 0 a 2.48,2.48 0 0 0 -0.1,-0.68 2.14,2.14 0 0 0 -0.25,-0.55 1.18,1.18 0 0 0 -0.4,-0.37 0.88,0.88 0 0 0 -0.51,-0.13 1,1 0 0 0 -0.51,0.14 1.22,1.22 0 0 0 -0.38,0.37 1.58,1.58 0 0 0 -0.24,0.56 2.44,2.44 0 0 0 -0.08,0.68 v 0 a 2.15,2.15 0 0 0 0.1,0.68 1.85,1.85 0 0 0 0.25,0.55 1.27,1.27 0 0 0 0.4,0.37 0.88,0.88 0 0 0 0.51,0.12 z"
       id="path26"
       style="fill:url(#linear-gradient-4)"
       clip-path="url(#clipPath59)"
       transform="matrix(0.86157753,0,0,0.84721796,-27.940521,-2.5161293)" />
    <path
       class="cls-13"
       d="m -180.83999,88.800913 a 1.79,1.79 0 0 1 -0.87,-0.18 2.12,2.12 0 0 1 -0.67,-0.52 2.44,2.44 0 0 1 -0.44,-0.79 3.14,3.14 0 0 1 -0.16,-1 v 0 a 3.1,3.1 0 0 1 0.14,-1 2.59,2.59 0 0 1 0.42,-0.81 2,2 0 0 1 0.66,-0.54 1.81,1.81 0 0 1 0.87,-0.21 1.89,1.89 0 0 1 1.54,0.71 2.52,2.52 0 0 1 0.44,0.79 3,3 0 0 1 0.16,1 v 0 a 2.91,2.91 0 0 1 -0.14,1 2.65,2.65 0 0 1 -0.42,0.8 2.07,2.07 0 0 1 -0.66,0.55 1.92,1.92 0 0 1 -0.87,0.2 z m 0,-0.76 a 0.94,0.94 0 0 0 0.5,-0.14 1.15,1.15 0 0 0 0.38,-0.38 1.61,1.61 0 0 0 0.24,-0.55 2.15,2.15 0 0 0 0.08,-0.68 v 0 a 2.15,2.15 0 0 0 -0.1,-0.68 2,2 0 0 0 -0.25,-0.55 1.18,1.18 0 0 0 -0.4,-0.37 1,1 0 0 0 -1,0 1.12,1.12 0 0 0 -0.38,0.37 1.61,1.61 0 0 0 -0.24,0.55 2.53,2.53 0 0 0 -0.08,0.68 v 0 a 2.48,2.48 0 0 0 0.1,0.68 1.85,1.85 0 0 0 0.25,0.55 1.4,1.4 0 0 0 0.4,0.37 1,1 0 0 0 0.51,0.15 z"
       id="path27"
       style="fill:url(#linear-gradient-5)"
       clip-path="url(#clipPath58)"
       transform="matrix(0.86157753,0,0,0.84721796,-27.940521,-2.5161293)" />
    <path
       class="cls-14"
       d="m -174.70999,82.230913 a 1.89,1.89 0 0 1 -1.54,-0.71 2.34,2.34 0 0 1 -0.44,-0.79 3.08,3.08 0 0 1 -0.16,-1 v 0 a 2.91,2.91 0 0 1 0.14,-1 2.65,2.65 0 0 1 0.42,-0.8 1.93,1.93 0 0 1 1.53,-0.76 1.92,1.92 0 0 1 0.87,0.19 2,2 0 0 1 0.67,0.52 2.88,2.88 0 0 1 0.44,0.79 3.1,3.1 0 0 1 0.16,1 v 0 a 2.87,2.87 0 0 1 -0.14,1 2.43,2.43 0 0 1 -0.42,0.8 1.93,1.93 0 0 1 -1.53,0.76 z m 0,-0.76 a 1,1 0 0 0 0.51,-0.15 1.22,1.22 0 0 0 0.38,-0.37 1.67,1.67 0 0 0 0.24,-0.56 2.41,2.41 0 0 0 0.08,-0.67 v 0 a 2.48,2.48 0 0 0 -0.1,-0.68 1.86,1.86 0 0 0 -0.26,-0.55 1.25,1.25 0 0 0 -0.39,-0.37 1,1 0 0 0 -1,0 1.22,1.22 0 0 0 -0.38,0.37 1.67,1.67 0 0 0 -0.24,0.56 2.49,2.49 0 0 0 -0.08,0.68 v 0 a 2.48,2.48 0 0 0 0.09,0.68 1.86,1.86 0 0 0 0.26,0.55 1.18,1.18 0 0 0 0.4,0.37 1,1 0 0 0 0.49,0.14 z"
       id="path28"
       style="fill:url(#linear-gradient-6)"
       clip-path="url(#clipPath57)"
       transform="matrix(0.86157753,0,0,0.84721796,-27.940521,-2.5161293)" />
    <path
       id="path32"
       clip-path="url(#clipPath53)"
       style="fill:url(#linear-gradient-10)"
       class="cls-18"
       d="m -187.2207,89.970703 a 1.81,1.81 0 0 0 -0.86914,0.210938 1.92,1.92 0 0 0 -0.66016,0.539062 2.59,2.59 0 0 0 -0.41992,0.810547 3.1,3.1 0 0 0 -0.14063,1 3.34,3.34 0 0 0 0.0645,0.628906 c 0.40349,0.574715 0.81607,1.143321 1.23632,1.705078 a 1.79,1.79 0 0 0 0.83985,0.166016 1.81,1.81 0 0 0 0.86914,-0.210938 1.92,1.92 0 0 0 0.66016,-0.539062 2.23,2.23 0 0 0 0.41992,-0.810547 2.84,2.84 0 0 0 0.14062,-1 3,3 0 0 0 -0.16015,-1 2.42,2.42 0 0 0 -0.43946,-0.789062 1.89,1.89 0 0 0 -1.54101,-0.710938 z m -0.01,0.820313 a 1,1 0 0 1 0.50977,0.130859 1.32,1.32 0 0 1 0.40039,0.378906 1.74,1.74 0 0 1 0.25,0.550781 2.09,2.09 0 0 1 0.0996,0.669922 2.15,2.15 0 0 1 -0.0801,0.679688 1.61,1.61 0 0 1 -0.23828,0.548828 1.25,1.25 0 0 1 -0.38086,0.380859 0.92,0.92 0 0 1 -0.49024,0.140625 1,1 0 0 1 -0.52929,-0.130859 1.31,1.31 0 0 1 -0.40039,-0.378906 1.74,1.74 0 0 1 -0.25,-0.550781 2.85,2.85 0 0 1 -0.0996,-0.669922 2.49,2.49 0 0 1 0.0801,-0.679688 2,2 0 0 1 0.24024,-0.550781 1.25,1.25 0 0 1 0.37891,-0.378906 1,1 0 0 1 0.50976,-0.140625 z"
       transform="matrix(0.86157753,0,0,0.84721796,-27.940521,-2.5161293)" />
    <path
       class="cls-19"
       d="m -174.78999,75.730913 a 1.92,1.92 0 0 1 -0.87,-0.2 2,2 0 0 1 -0.68,-0.52 2.62,2.62 0 0 1 -0.43,-0.79 2.82,2.82 0 0 1 -0.16,-1 v 0 a 2.87,2.87 0 0 1 0.14,-1 2.19,2.19 0 0 1 0.42,-0.8 1.93,1.93 0 0 1 1.53,-0.76 1.92,1.92 0 0 1 0.87,0.19 2,2 0 0 1 0.67,0.52 2.62,2.62 0 0 1 0.43,0.79 3.1,3.1 0 0 1 0.17,1 v 0 a 3.14,3.14 0 0 1 -0.14,1 2.54,2.54 0 0 1 -0.42,0.8 1.93,1.93 0 0 1 -1.53,0.76 z m 0,-0.77 a 1,1 0 0 0 0.51,-0.14 1.15,1.15 0 0 0 0.38,-0.38 2,2 0 0 0 0.24,-0.55 2.44,2.44 0 0 0 0.08,-0.68 v 0 a 2.93,2.93 0 0 0 -0.1,-0.68 1.86,1.86 0 0 0 -0.26,-0.55 1.24,1.24 0 0 0 -0.39,-0.37 0.92,0.92 0 0 0 -0.52,-0.13 1,1 0 0 0 -0.5,0.14 1.22,1.22 0 0 0 -0.38,0.37 1.58,1.58 0 0 0 -0.24,0.56 2.15,2.15 0 0 0 -0.08,0.68 v 0 a 2.48,2.48 0 0 0 0.09,0.68 1.86,1.86 0 0 0 0.26,0.55 1.18,1.18 0 0 0 0.4,0.37 0.88,0.88 0 0 0 0.51,0.13 z"
       id="path33"
       style="fill:url(#linear-gradient-11)"
       clip-path="url(#clipPath52)"
       transform="matrix(0.86157753,0,0,0.84721796,-27.940521,-2.5161293)" />
    <path
       class="cls-20"
       d="m -169.65999,69.530913 -0.93,0.27 -0.2,-0.74 1.38,-0.46 h 0.64 l 0.07,5.21 h -0.86 z"
       id="path34"
       style="fill:url(#linear-gradient-12)"
       clip-path="url(#clipPath51)"
       transform="matrix(0.86157753,0,0,0.84721796,-27.940521,-2.5161293)" />
    <path
       class="cls-21"
       d="m -193.99999,78.340913 -0.89,0.26 -0.19,-0.71 1.33,-0.45 h 0.62 l 0.06,5 h -0.87 z"
       id="path35"
       style="fill:url(#linear-gradient-13)"
       clip-path="url(#clipPath50)"
       transform="matrix(0.86157753,0,0,0.84721796,-27.940521,-2.5161293)" />
    <path
       id="path36"
       clip-path="url(#clipPath49)"
       style="fill:url(#linear-gradient-14)"
       class="cls-22"
       d="m -193.66992,83.941406 -0.89453,0.294922 c 0.11396,0.228501 0.22931,0.456534 0.3457,0.683594 l 0.30859,-0.08984 0.008,0.701172 c 2.6e-4,5.07e-4 -2.7e-4,0.0014 0,0.002 0.28936,0.550936 0.58705,1.096583 0.89062,1.638672 l -0.0391,-3.230469 z"
       transform="matrix(0.86157753,0,0,0.84721796,-27.940521,-2.5161293)" />
    <path
       class="cls-23"
       d="m -187.18999,84.750913 -0.89,0.26 -0.2,-0.71 1.34,-0.44 h 0.62 l 0.06,5 h -0.87 z"
       id="path37"
       style="fill:url(#linear-gradient-15)"
       clip-path="url(#clipPath48)"
       transform="matrix(0.86157753,0,0,0.84721796,-27.940521,-2.5161293)" />
    <path
       id="path41"
       style="fill:#e1251b;stroke-width:0.854368"
       class="cls-7"
       d="m -111.94433,20.732723 -4.36006,7.133509 c 0,0 15.63798,7.726828 15.63798,26.467287 0,15.732838 -8.36505,32.533371 -36.36632,37.904733 -24.94516,4.791238 -44.06211,-7.137769 -52.4317,-13.785497 1.37049,1.754559 2.8384,3.431529 4.39708,5.022087 1.55797,1.589787 3.20562,3.094006 4.93555,4.504149 8.6e-4,7.63e-4 0.003,8.47e-4 0.003,0.0017 1.73,1.410016 3.54102,2.726957 5.42693,3.941546 8.6e-4,6.69e-4 0.003,8.47e-4 0.003,0.0017 1.88599,1.21447 3.84705,2.327706 5.87287,3.330956 1.14793,0.568543 2.36184,1.018983 3.55064,1.515732 0.91033,0.380359 1.78657,0.823183 2.71935,1.15996 4.9e-4,1.7e-4 8.6e-4,-1.78e-4 0.002,0 2.15036,0.776323 4.35848,1.43573 6.61664,1.969121 4.51749,1.067174 9.23403,1.631554 14.08645,1.631554 8.10652,0 15.83582,-1.5779 22.88734,-4.437963 1.76295,-0.715086 3.48411,-1.510336 5.15769,-2.381149 1.67359,-0.870847 3.30014,-1.817172 4.87498,-2.834537 3.14967,-2.034738 6.09238,-4.352887 8.79078,-6.918399 4.047259,-3.847948 7.546353,-8.252522 10.367537,-13.087201 2.48e-4,-4.24e-4 -2.48e-4,-0.0013 0,-0.0017 0.481425,-0.825065 0.884618,-1.697058 1.326022,-2.546618 0.420884,-0.810073 0.88206,-1.596232 1.265442,-2.427478 0.785218,-1.702474 1.490942,-3.447798 2.111874,-5.232233 1.74e-4,-4.99e-4 -1.73e-4,-0.0012 0,-0.0017 0.179178,-0.514965 0.297769,-1.055654 0.462762,-1.57695 0.87263,-2.757051 1.556534,-5.592244 2.012591,-8.506929 0.05538,-0.353981 0.149602,-0.694713 0.198567,-1.050749 7.4e-5,-5.39e-4 -7.4e-5,-0.0011 0,-0.0017 0.264104,-1.920763 0.434799,-3.871047 0.506514,-5.846135 v -0.0017 l -4.208803,-12.855456 z" />
    <path
       id="path42"
       style="fill:#672f25;stroke-width:0.854368"
       class="cls-6"
       d="m -122.10152,31.5513 0.0168,0.524546 a 27.234466,26.78056 0 0 1 8.88165,1.509107 13.707699,13.479238 0 0 1 6.98854,5.015464 22.056385,21.68878 0 0 1 2.74796,8.157782 41.355721,40.666462 0 0 1 0.2928,8.786578 40.56307,39.887022 0 0 1 -4.91031,16.664711 27.139692,26.687366 0 0 1 -5.33438,6.658603 28.569911,28.093748 0 0 1 -3.44631,2.609498 c -0.60311,0.432081 -1.22209,0.838284 -1.85105,1.219532 -0.62895,0.381248 -1.25049,0.789039 -1.88806,1.153343 a 47.240296,46.452961 0 0 1 -16.36998,5.930526 55.192657,54.272783 0 0 1 -17.33419,-0.152237 71.588477,70.39534 0 0 1 -8.61578,-2.008838 c -1.41299,-0.415137 -2.86044,-0.838941 -4.30789,-1.26255 l -4.30788,-1.380042 c -5.77951,-1.880273 -11.54177,-3.896784 -17.37291,-5.827929 0.32908,0.408538 0.66318,0.813262 1.00293,1.212912 a 137.27515,134.98724 0 0 0 15.00861,7.977414 c 2.82598,1.296243 5.68642,2.474672 8.61578,3.567584 a 64.971562,63.888706 0 0 0 9.10714,2.702159 45.766998,45.004218 0 0 0 19.19534,-0.09266 53.969216,53.069733 0 0 0 17.57655,-7.35359 c 0.67203,-0.415136 1.30899,-0.881767 1.96379,-1.313848 0.6548,-0.432081 1.27594,-0.88885 1.90489,-1.371765 0.62895,-0.482914 1.25764,-0.915986 1.87797,-1.441262 0.62034,-0.525275 1.24875,-1.042012 1.81739,-1.626593 a 30.594618,30.08471 0 0 0 5.66925,-7.709352 42.363767,41.657707 0 0 0 4.37688,-18.028203 43.285655,42.56423 0 0 0 -0.86158,-9.210186 23.33152,22.942662 0 0 0 -3.44631,-8.657508 14.741592,14.495899 0 0 0 -7.75419,-5.134604 28.078812,27.610833 0 0 0 -9.24345,-1.118592 z" />
    <path
       id="path43"
       style="fill:#ff9e18;stroke-width:0.854368"
       class="cls-27"
       d="m -109.85097,32.635142 c 3.15338,2.541654 8.848,10.964126 8.848,21.698377 0,15.732839 -8.36504,32.533371 -36.36631,37.904733 -17.99323,3.443611 -40.81069,-6.760799 -51.14607,-12.600715 0.19682,0.23911 0.39686,0.477189 0.59738,0.713186 8.92443,7.822315 32.26562,21.146637 54.54695,16.884785 26.18334,-4.998586 34.410663,-20.629158 35.642719,-35.396166 1.456066,-17.520468 -7.271979,-25.417136 -12.122669,-29.2042 z" />
  </g>
</svg>
