<?xml version="1.0" encoding="UTF-8" standalone="no"?>
<svg
   width="128"
   height="128"
   version="1.1"
   id="svg198"
   xml:space="preserve"
   xmlns:xlink="http://www.w3.org/1999/xlink"
   xmlns="http://www.w3.org/2000/svg"
   xmlns:svg="http://www.w3.org/2000/svg"><defs
     id="defs202"><linearGradient
       id="linearGradient18"><stop
         style="stop-color:#000000;stop-opacity:1;"
         offset="0"
         id="stop15" /><stop
         style="stop-color:#544d45;stop-opacity:1;"
         offset="0.20516109"
         id="stop16" /><stop
         style="stop-color:#000000;stop-opacity:1;"
         offset="0.51489538"
         id="stop17" /><stop
         style="stop-color:#8c8073;stop-opacity:1;"
         offset="1"
         id="stop18" /></linearGradient><linearGradient
       id="linearGradient13"><stop
         id="stop12"
         offset="0"
         style="stop-color:#bbbbbb;stop-opacity:1;" /><stop
         id="stop13"
         offset="1"
         style="stop-color:#ededed;stop-opacity:1;" /></linearGradient><linearGradient
       id="linearGradient11"><stop
         id="stop10"
         offset="0"
         style="stop-color:#f7b56e;stop-opacity:1;" /><stop
         id="stop11"
         offset="1"
         style="stop-color:#f2840d;stop-opacity:1;" /></linearGradient><linearGradient
       id="linearGradient5"><stop
         style="stop-color:#2f271e;stop-opacity:1;"
         offset="0"
         id="stop2" /><stop
         style="stop-color:#bab3ab;stop-opacity:1;"
         offset="0.40958613"
         id="stop3" /><stop
         style="stop-color:#2f251e;stop-opacity:1;"
         offset="0.80656409"
         id="stop4" /><stop
         style="stop-color:#aea69d;stop-opacity:1;"
         offset="1"
         id="stop5" /></linearGradient><linearGradient
       id="linearGradient27897"><stop
         id="stop27893"
         offset="0"
         style="stop-color:#505050;stop-opacity:1" /><stop
         id="stop27895"
         offset="1"
         style="stop-color:#000000;stop-opacity:1" /></linearGradient><linearGradient
       xlink:href="#linearGradient5"
       id="linearGradient2"
       x1="-112.53496"
       y1="55.681618"
       x2="-12.163499"
       y2="55.681618"
       gradientUnits="userSpaceOnUse"
       gradientTransform="translate(129.19534,10.678851)" /><radialGradient
       r="39.999989"
       fy="225.39462"
       fx="450.94806"
       cy="225.39462"
       cx="450.94806"
       gradientTransform="matrix(0.36287767,-0.09525052,0.09525052,0.36287767,-75.20165,63.850165)"
       gradientUnits="userSpaceOnUse"
       id="radialGradient1425-9"
       xlink:href="#linearGradient27897" /><linearGradient
       xlink:href="#linearGradient11"
       id="linearGradient6"
       gradientUnits="userSpaceOnUse"
       gradientTransform="matrix(0.22039581,-0.05785094,0.05785094,0.22039581,-142.99814,70.074123)"
       x1="953.27502"
       y1="350.85599"
       x2="944.20746"
       y2="359.92355" /><linearGradient
       xlink:href="#linearGradient13"
       id="linearGradient7"
       gradientUnits="userSpaceOnUse"
       gradientTransform="matrix(0.22039581,-0.05785094,0.05785094,0.22039581,1.50374,82.08747)"
       x1="418.83841"
       y1="227"
       x2="428.91922"
       y2="216.9192" /><linearGradient
       xlink:href="#linearGradient18"
       id="linearGradient15"
       x1="-133.13693"
       y1="33.158848"
       x2="-111.8989"
       y2="33.158848"
       gradientUnits="userSpaceOnUse"
       gradientTransform="translate(124.37746,36.853509)" /></defs><ellipse
     style="fill:url(#linearGradient15);fill-opacity:1;stroke:none;stroke-width:2.55307;stroke-linecap:round;stroke-linejoin:round"
     id="ellipse13"
     cx="1.8595347"
     cy="70.01236"
     rx="10.61902"
     ry="13.693076"
     transform="matrix(0.97889982,-0.20434075,0.20194198,0.97939749,0,0)" /><path
     d="m 112.95894,23.735296 h 0.35367 c 0.43227,0.06986 0.9488,0.533561 1.12782,1.058389 0.17901,0.524829 7.29913,36.541061 -2.86036,57.272651 C 101.42058,102.79793 78.945966,109.07447 66.001221,108.98453 44.245735,109.30326 25.35104,101.53694 16.66038,83.835558 v -4 c 5.875,3.420114 12.578706,-5.776018 12.725553,-13.06696 0.04803,-2.348192 3.727067,-27.894492 4.571508,-29.018813 0.231414,-0.283809 0.570674,-0.139721 0.737467,0.11789 3.536696,5.527726 6.790894,8.382844 11.563687,10.992577 7.583376,3.276029 12.522525,4.478505 23.710712,2.488786 11.189496,-1.989719 29.615684,-8.630849 41.698523,-26.767116 0.46326,-0.595125 0.91387,-0.81213 1.29286,-0.85492 z"
     style="color:#000000;fill:url(#linearGradient2);stroke-width:4.36624;stroke-linecap:round;-inkscape-stroke:none;paint-order:stroke fill markers"
     id="path1" /><path
     d="m 112.95894,19.735296 c 0.12663,0 0.24452,0 0.35367,0 0.43227,0.06986 0.9488,0.533561 1.12782,1.058389 0.17901,0.524829 7.29913,36.541061 -2.86036,57.272651 C 101.42058,98.797927 78.945966,105.07447 66.001221,104.98453 44.245735,105.30326 25.35104,97.536942 16.66038,79.835558 c 9.43468,-0.31874 12.572297,-9.457825 12.725553,-17.066962 0.04803,-2.348192 3.727067,-27.894492 4.571508,-29.018813 0.231414,-0.283809 0.570674,-0.139721 0.737467,0.11789 3.536696,5.527726 6.790894,8.382844 11.563687,10.992577 7.583376,3.276029 12.522525,4.478505 23.710712,2.488786 11.189496,-1.989719 29.615684,-8.630849 41.698523,-26.767116 0.46326,-0.595125 0.91387,-0.81213 1.29286,-0.85492 z"
     style="color:#000000;fill:#8c8073;fill-opacity:1;stroke-width:4.36624;stroke-linecap:round;-inkscape-stroke:none;paint-order:stroke fill markers"
     id="path429-0" /><ellipse
     style="fill:#ffffff;fill-opacity:1;stroke:none;stroke-width:1.69821;stroke-linecap:round;stroke-linejoin:round"
     id="ellipse430-9"
     cx="45.979534"
     cy="62.946602"
     rx="12.471629"
     ry="13.974092" /><ellipse
     style="fill:#000000;fill-opacity:1;stroke:none;stroke-width:1.75172;stroke-linecap:round;stroke-linejoin:round"
     id="ellipse431-4"
     cx="48.670094"
     cy="63.464676"
     rx="7.5037484"
     ry="9.1224337" /><ellipse
     style="fill:#ffffff;fill-opacity:1;stroke:none;stroke-width:1.69245;stroke-linecap:round;stroke-linejoin:round"
     id="circle431-6"
     cx="48.696743"
     cy="58.423611"
     rx="3.4186726"
     ry="3.4187577" /><ellipse
     style="fill:#000000;fill-opacity:1;stroke:none;stroke-width:2.55307;stroke-linecap:round;stroke-linejoin:round"
     id="ellipse432-9"
     cx="2.6672969"
     cy="66.096748"
     rx="10.61902"
     ry="13.693076"
     transform="matrix(0.97889982,-0.20434075,0.20194198,0.97939749,0,0)" /><ellipse
     style="fill:#ffffff;stroke:none;stroke-width:2.6015;stroke-linecap:round;paint-order:stroke fill markers"
     id="circle432-2"
     cx="14.667699"
     cy="57.240894"
     rx="5.7801147"
     ry="5.7802591" /><path
     d="m 86.168686,82.563617 c -0.762354,-0.530068 0.148454,-1.357044 1.79542,-1.415115 0.987218,-0.04366 2.238597,0.209582 3.550668,0.957091 3.530584,2.017227 3.651093,4.4999 2.491843,5.039137 -0.81082,0.375502 -3.940142,-1.961775 -3.940142,-1.961775 0,0 -2.280078,-1.494145 -3.897789,-2.619338 z"
     style="fill:#000000;fill-opacity:1;stroke:none;stroke-width:0.382825;stroke-linecap:round;stroke-linejoin:round;stroke-dasharray:none"
     id="path432-2" /><path
     style="color:#000000;fill:#000000;stroke-width:4.36624;-inkscape-stroke:none"
     d="m 89.635085,83.162236 c -6.958559,9.660857 -17.600522,15.48811 -34.969195,13.027705 -2.267415,-0.301274 -3.988171,2.686579 6.343349,3.108363 12.949985,0.526575 24.1242,-3.334537 31.729843,-13.893104 z"
     id="path433-4" /><ellipse
     style="fill:#ffffff;fill-opacity:1;stroke:none;stroke-width:1.58752;stroke-linecap:round;stroke-linejoin:round"
     id="ellipse435-8"
     cx="73.457008"
     cy="62.978584"
     rx="16.373186"
     ry="16.713234" /><ellipse
     style="fill:#000000;fill-opacity:1;stroke:none;stroke-width:2.24734;stroke-linecap:round;stroke-linejoin:round"
     id="ellipse436-1"
     cx="77.417694"
     cy="63.591526"
     rx="10.137828"
     ry="11.113472" /><ellipse
     style="fill:#ffffff;fill-opacity:1;stroke:none;stroke-width:1.64806;stroke-linecap:round;stroke-linejoin:round"
     id="circle436-2"
     cx="77.416626"
     cy="57.535908"
     rx="4.3524241"
     ry="4.3525567" /><path
     id="path1899-2"
     d="m 82.464146,92.989565 30.050644,17.554845 c 1.30688,0.79936 3.0154,0.36935 3.78813,-0.95344 0.77277,-1.32279 0.30824,-3.02226 -1.02988,-3.76807 L 89.809054,90.947514 c -2.803352,-1.361935 -5.965864,-0.318617 -7.344908,2.042051 z"
     style="color:#000000;font-style:normal;font-variant:normal;font-weight:normal;font-stretch:normal;font-size:medium;line-height:normal;font-family:sans-serif;font-variant-ligatures:normal;font-variant-position:normal;font-variant-caps:normal;font-variant-numeric:normal;font-variant-alternates:normal;font-feature-settings:normal;text-indent:0;text-align:start;text-decoration:none;text-decoration-line:none;text-decoration-style:solid;text-decoration-color:#000000;letter-spacing:normal;word-spacing:normal;text-transform:none;writing-mode:lr-tb;direction:ltr;text-orientation:mixed;dominant-baseline:auto;baseline-shift:baseline;text-anchor:start;white-space:normal;shape-padding:0;clip-rule:nonzero;display:inline;overflow:visible;visibility:visible;isolation:auto;mix-blend-mode:normal;color-interpolation:sRGB;color-interpolation-filters:linearRGB;solid-color:#000000;solid-opacity:1;fill:url(#linearGradient6);fill-opacity:1;fill-rule:nonzero;stroke:none;stroke-width:0.906262;stroke-linecap:round;stroke-linejoin:miter;stroke-miterlimit:4;stroke-dasharray:none;stroke-dashoffset:0;stroke-opacity:1;color-rendering:auto;image-rendering:auto;shape-rendering:auto;text-rendering:auto;enable-background:accumulate" /><path
     id="path1899-3-9"
     d="m 97.340055,95.528802 a 3.646155,3.646155 0 0 0 -0.867092,6.700548 l 15.581817,9.10252 a 3.646155,3.646155 0 1 0 3.67821,-6.29642 l -15.58182,-9.102512 a 3.646155,3.646155 0 0 0 -2.811115,-0.404136 z"
     style="color:#000000;font-style:normal;font-variant:normal;font-weight:normal;font-stretch:normal;font-size:medium;line-height:normal;font-family:sans-serif;font-variant-ligatures:normal;font-variant-position:normal;font-variant-caps:normal;font-variant-numeric:normal;font-variant-alternates:normal;font-feature-settings:normal;text-indent:0;text-align:start;text-decoration:none;text-decoration-line:none;text-decoration-style:solid;text-decoration-color:#000000;letter-spacing:normal;word-spacing:normal;text-transform:none;writing-mode:lr-tb;direction:ltr;text-orientation:mixed;dominant-baseline:auto;baseline-shift:baseline;text-anchor:start;white-space:normal;shape-padding:0;clip-rule:nonzero;display:inline;overflow:visible;visibility:visible;isolation:auto;mix-blend-mode:normal;color-interpolation:sRGB;color-interpolation-filters:linearRGB;solid-color:#000000;solid-opacity:1;fill:url(#linearGradient7);fill-opacity:1;fill-rule:nonzero;stroke:none;stroke-width:1.20835;stroke-linecap:round;stroke-linejoin:miter;stroke-miterlimit:4;stroke-dasharray:none;stroke-dashoffset:0;stroke-opacity:1;color-rendering:auto;image-rendering:auto;shape-rendering:auto;text-rendering:auto;enable-background:new" /><path
     id="path1901-3"
     d="m 109.35382,98.067484 c -4.86885,1.278007 -7.7798,6.261016 -6.5018,11.129876 1.27801,4.86884 6.26103,7.77979 11.12988,6.50178 l 8.81583,-2.31404 -2.31404,-8.81582 c -1.278,-4.868853 -6.26102,-7.779804 -11.12987,-6.501796 z"
     style="fill:url(#radialGradient1425-9);fill-opacity:1;stroke:none;stroke-width:0.906262;stroke-linecap:round;stroke-linejoin:miter;stroke-miterlimit:4;stroke-dasharray:none;stroke-dashoffset:0;stroke-opacity:1;marker:none;marker-start:none;marker-mid:none;marker-end:none;paint-order:normal" /><path
     id="path8"
     style="fill:#8c8073;fill-opacity:1;stroke:none;stroke-width:0.906262;stroke-linecap:round;stroke-linejoin:miter;stroke-miterlimit:4;stroke-dasharray:none;stroke-dashoffset:0;stroke-opacity:1;marker:none;marker-start:none;marker-mid:none;marker-end:none;paint-order:normal"
     d="m 104.10403,111.96851 c 0.1494,0.21593 0.30068,0.42398 0.45703,0.6211 0.0369,0.0458 0.0737,0.0917 0.11133,0.13672 0.0294,0.0359 0.0602,0.0703 0.0898,0.10546 0.48597,0.56331 1.03554,1.06286 1.63672,1.48829 -0.66251,-1.26399 -2.20279,-3.54345 -1.36914,-4.44727 0.8307,-0.90329 3.66683,2.85557 5.27734,1.32812 1.60993,-1.52733 -2.4063,-4.21554 -0.89062,-6.10351 1.59079,-1.90272 4.75452,2.03622 5.99804,-0.2207 1.05565,-1.97968 -3.64678,-3.80246 -3.15625,-5.126954 v 0 c 0.54122,-1.446485 4.29577,-0.345506 5.30078,0.181641 -2.19102,-1.853575 -5.2184,-2.647242 -8.20507,-1.863282 -4.86885,1.278008 -7.77997,6.260055 -6.50196,11.128905 0.26683,1.01656 0.69686,1.94593 1.25196,2.77148 z" /></svg>
