<?xml version="1.0" encoding="UTF-8" standalone="no"?>
<svg
   width="128"
   height="128"
   version="1"
   id="svg44"
   xml:space="preserve"
   xmlns:xlink="http://www.w3.org/1999/xlink"
   xmlns="http://www.w3.org/2000/svg"
   xmlns:svg="http://www.w3.org/2000/svg"><defs
     id="defs48"><linearGradient
       id="linearGradient72"
       gradientUnits="userSpaceOnUse"><stop
         offset="0"
         stop-color="#f8df5b"
         id="stop70"
         style="stop-color:#6b6a66;stop-opacity:1;" /><stop
         offset="0.68666202"
         stop-color="#f8e053"
         id="stop71"
         style="stop-color:#1c1c1c;stop-opacity:1;" /><stop
         offset="1"
         stop-color="#f8df5b"
         id="stop72"
         style="stop-color:#6a6a67;stop-opacity:1;" /></linearGradient><linearGradient
       id="linearGradient70"
       gradientUnits="userSpaceOnUse"><stop
         offset="0"
         stop-color="#cd9509"
         id="stop50"
         style="stop-color:#393937;stop-opacity:1;" /><stop
         offset="0.426213"
         stop-color="#cd9509"
         id="stop51"
         style="stop-color:#393938;stop-opacity:1;" /><stop
         offset="0.563353"
         stop-color="#f3b315"
         id="stop52"
         style="stop-color:#535250;stop-opacity:1;" /><stop
         offset="0.70495403"
         stop-color="#c08d09"
         id="stop68"
         style="stop-color:#32312f;stop-opacity:1;" /><stop
         offset="0.95525903"
         stop-color="#c08d09"
         id="stop69"
         style="stop-color:#313130;stop-opacity:1;" /></linearGradient><linearGradient
       id="linearGradient50"
       gradientUnits="userSpaceOnUse"><stop
         offset="0"
         stop-color="#cd9509"
         id="stop42"
         style="stop-color:#383838;stop-opacity:1;" /><stop
         offset="0.426213"
         stop-color="#cd9509"
         id="stop43"
         style="stop-color:#383838;stop-opacity:1;" /><stop
         offset="0.563353"
         stop-color="#f3b315"
         id="stop44"
         style="stop-color:#525252;stop-opacity:1;" /><stop
         offset="0.70495403"
         stop-color="#c08d09"
         id="stop45"
         style="stop-color:#333333;stop-opacity:1;" /><stop
         offset="0.95525903"
         stop-color="#c08d09"
         id="stop49"
         style="stop-color:#333333;stop-opacity:1;" /></linearGradient><linearGradient
       id="linearGradient14"><stop
         style="stop-color:#ffffff;stop-opacity:1;"
         offset="0.20236236"
         id="stop14" /><stop
         style="stop-color:#dadada;stop-opacity:1;"
         offset="1"
         id="stop15" /></linearGradient><linearGradient
       xlink:href="#linearGradient1571"
       id="linearGradient1573"
       x1="12"
       y1="66"
       x2="116"
       y2="66"
       gradientUnits="userSpaceOnUse" /><linearGradient
       id="linearGradient1571"><stop
         style="stop-color:#8c8c8c;stop-opacity:1;"
         offset="0"
         id="stop1567" /><stop
         style="stop-color:#e4e4e4;stop-opacity:1;"
         offset="0.03567462"
         id="stop1575" /><stop
         style="stop-color:#8c8c8c;stop-opacity:1;"
         offset="0.07302466"
         id="stop1577" /><stop
         style="stop-color:#8c8c8c;stop-opacity:0.99000001;"
         offset="0.92681795"
         id="stop1579" /><stop
         style="stop-color:#e4e4e4;stop-opacity:1;"
         offset="0.96064132"
         id="stop1581" /><stop
         style="stop-color:#8c8c8c;stop-opacity:1;"
         offset="1"
         id="stop1569" /></linearGradient><linearGradient
       xlink:href="#linearGradient72"
       id="linearGradient13"
       gradientTransform="matrix(0.41798943,0,0,0.41798943,32.258204,48.242465)"
       x1="8"
       y1="51.019424"
       x2="48"
       y2="51.019424" /><linearGradient
       xlink:href="#linearGradient70"
       id="linearGradient12"
       gradientTransform="matrix(-0.41798943,0,0,0.41798943,-121.75333,-45.829587)"
       x1="-394.48373"
       y1="291.07791"
       x2="-360.76169"
       y2="277.62363" /><linearGradient
       xlink:href="#linearGradient50"
       id="linearGradient11"
       gradientTransform="matrix(0.41798943,0,0,0.41798943,32.258204,48.242465)"
       x1="29.974213"
       y1="66.019455"
       x2="63.696259"
       y2="52.565174" /><linearGradient
       xlink:href="#linearGradient14"
       id="linearGradient15"
       x1="64"
       y1="113.99999"
       x2="64"
       y2="9.9999981"
       gradientUnits="userSpaceOnUse"
       gradientTransform="translate(-3.8146973e-6)" /><linearGradient
       xlink:href="#linearGradient50"
       id="linearGradient93"
       gradientTransform="matrix(0.41798943,0,0,0.41798943,32.258204,48.242465)"
       x1="29.974213"
       y1="66.019455"
       x2="63.696259"
       y2="52.565174" /><linearGradient
       xlink:href="#linearGradient70"
       id="linearGradient94"
       gradientTransform="matrix(-0.41798943,0,0,0.41798943,-121.75333,-45.829587)"
       x1="-394.48373"
       y1="291.07791"
       x2="-360.76169"
       y2="277.62363" /><linearGradient
       xlink:href="#linearGradient72"
       id="linearGradient95"
       gradientTransform="matrix(0.41798943,0,0,0.41798943,32.258204,48.242465)"
       x1="8"
       y1="51.019424"
       x2="48"
       y2="51.019424" /></defs><rect
     style="display:inline;fill:url(#linearGradient1573);fill-opacity:1;stroke:none;stroke-width:0.25;stroke-linecap:butt;stroke-linejoin:miter;stroke-miterlimit:4;stroke-dasharray:none;stroke-dashoffset:0;stroke-opacity:1;marker:none;marker-start:none;marker-mid:none;marker-end:none;paint-order:normal;enable-background:new"
     id="rect1711-5"
     width="104"
     height="100"
     x="12.000004"
     y="15.999996"
     rx="8"
     ry="8" /><rect
     style="display:inline;fill:url(#linearGradient15);stroke:none;stroke-width:0.25;stroke-linecap:butt;stroke-linejoin:miter;stroke-miterlimit:4;stroke-dasharray:none;stroke-dashoffset:0;stroke-opacity:1;marker:none;marker-start:none;marker-mid:none;marker-end:none;paint-order:normal;enable-background:new"
     id="rect1711"
     width="104"
     height="100"
     x="12"
     y="11.999996"
     rx="8"
     ry="8" /><path
     id="rect9"
     d="m 45.979893,75.52815 h 1.19071 V 112 h -1.19071 z"
     style="fill:#1c1c1c;fill-opacity:1" /><path
     d="m 32.149857,12 v 61.075291 c 0,2.1604 2.113572,3.925782 4.273972,3.925782 h 15.07617 c 2.1604,0 4.214842,-1.765382 4.214842,-3.925782 V 12 Z"
     style="baseline-shift:baseline;display:inline;overflow:visible;vector-effect:none;fill:#1c1c1c;enable-background:accumulate;stop-color:#000000;stop-opacity:1"
     id="path77" /><path
     id="path74"
     style="fill:url(#linearGradient11)"
     d="M 54.830078 12 L 43.542969 12 L 43.542969 75.837891 L 51.5 75.837891 C 53.338497 75.837891 54.830078 74.34631 54.830078 72.507812 L 54.830078 12 z " /><path
     id="path72"
     style="fill:url(#linearGradient12)"
     d="M 44.380859 12 L 33.09375 12 L 33.09375 72.507812 C 33.09375 74.34631 34.58533 75.837891 36.423828 75.837891 L 44.380859 75.837891 L 44.380859 12 z " /><path
     id="path9"
     style="fill:#1c1c1c;fill-opacity:1;stroke-width:0.417989"
     d="M 52.322266 12 L 35.601562 12 L 35.601562 69.150391 C 35.601562 70.07454 36.349291 70.822266 37.273438 70.822266 L 50.650391 70.822266 C 51.574539 70.822266 52.322266 70.07454 52.322266 69.150391 L 52.322266 12 z " /><path
     d="M 35.602119,68.314121 V 69.1501 c 0,0.925779 0.746178,1.671959 1.671957,1.671959 H 50.64974 c 0.92578,0 1.671957,-0.74618 1.671957,-1.671959 v -0.835979 c 0,0.925779 -0.746177,1.671958 -1.671957,1.671958 H 37.274076 c -0.925779,0 -1.671957,-0.746179 -1.671957,-1.671958 z"
     fill="url(#j)"
     id="path10"
     style="fill:url(#linearGradient13);stroke-width:0.417989" /><path
     id="path11"
     d="m 81.144507,75.837891 h 1.19071 V 112 h -1.19071 z"
     style="fill:#1c1c1c;fill-opacity:1;stroke:none" /><path
     d="m 72.255594,12 v 61.075291 c 0,2.1604 2.113572,3.925782 4.273972,3.925782 h 15.07617 c 2.1604,0 4.214842,-1.765382 4.214842,-3.925782 V 12 Z"
     style="baseline-shift:baseline;display:inline;overflow:visible;vector-effect:none;fill:#1c1c1c;enable-background:accumulate;stop-color:#000000;stop-opacity:1"
     id="path95" /><path
     id="path15"
     d="m 81.144507,112 h 1.19071 l 0,4 h -1.19071 z"
     style="fill:#000000" /><path
     id="path16"
     d="m 45.979893,112 h 1.19071 v 4 h -1.19071 z"
     style="fill:#000000" /><g
     id="g91"
     transform="translate(40.076172)"><path
       id="path88-2"
       style="fill:url(#linearGradient93)"
       d="M 54.830078,12 H 43.542969 V 75.837891 H 51.5 c 1.838497,0 3.330078,-1.491581 3.330078,-3.330079 z" /><path
       id="path89"
       style="fill:url(#linearGradient94)"
       d="M 44.380859,12 H 33.09375 v 60.507812 c 0,1.838498 1.49158,3.330079 3.330078,3.330079 h 7.957031 z" /><path
       id="path90"
       style="fill:#1c1c1c;fill-opacity:1;stroke-width:0.417989"
       d="M 52.322266,12 H 35.601562 v 57.150391 c 0,0.924149 0.747729,1.671875 1.671876,1.671875 h 13.376953 c 0.924148,0 1.671875,-0.747726 1.671875,-1.671875 z" /><path
       d="M 35.602119,68.314121 V 69.1501 c 0,0.925779 0.746178,1.671959 1.671957,1.671959 H 50.64974 c 0.92578,0 1.671957,-0.74618 1.671957,-1.671959 v -0.835979 c 0,0.925779 -0.746177,1.671958 -1.671957,1.671958 H 37.274076 c -0.925779,0 -1.671957,-0.746179 -1.671957,-1.671958 z"
       fill="url(#j)"
       id="path91"
       style="fill:url(#linearGradient95);stroke-width:0.417989" /></g></svg>
