<?xml version="1.0" encoding="UTF-8" standalone="no"?>
<!-- Created with Inkscape (http://www.inkscape.org/) -->

<svg
   version="1.0"
   width="128"
   height="128"
   id="svg4292"
   xml:space="preserve"
   xmlns:xlink="http://www.w3.org/1999/xlink"
   xmlns="http://www.w3.org/2000/svg"
   xmlns:svg="http://www.w3.org/2000/svg"><defs
     id="defs4294"><linearGradient
       id="linearGradient61"><stop
         style="stop-color:#023068;stop-opacity:1;"
         offset="0"
         id="stop69" /><stop
         style="stop-color:#0a77fa;stop-opacity:1;"
         offset="0.03"
         id="stop70" /><stop
         style="stop-color:#023068;stop-opacity:1;"
         offset="0.07"
         id="stop71" /><stop
         style="stop-color:#023069;stop-opacity:1;"
         offset="0.31999999"
         id="stop72" /><stop
         style="stop-color:#0a76fa;stop-opacity:1;"
         offset="0.37"
         id="stop73" /><stop
         style="stop-color:#023068;stop-opacity:1;"
         offset="0.43000001"
         id="stop74" /><stop
         style="stop-color:#023068;stop-opacity:1;"
         offset="0.56999999"
         id="stop75" /><stop
         style="stop-color:#0a76fa;stop-opacity:1;"
         offset="0.62"
         id="stop76" /><stop
         style="stop-color:#023068;stop-opacity:1;"
         offset="0.68000001"
         id="stop62" /></linearGradient><linearGradient
       id="linearGradient59"><stop
         style="stop-color:#0d0e13;stop-opacity:1;"
         offset="0"
         id="stop59" /><stop
         style="stop-color:#023068;stop-opacity:1;"
         offset="1"
         id="stop60" /></linearGradient><linearGradient
       xlink:href="#linearGradient59"
       id="linearGradient60"
       x1="-108.3664"
       y1="59.757439"
       x2="-108.3664"
       y2="134.85327"
       gradientUnits="userSpaceOnUse"
       gradientTransform="matrix(1.2658806,0,0,1.2658806,199.55111,-51.625085)" /><linearGradient
       xlink:href="#linearGradient61"
       id="linearGradient62"
       x1="11.999937"
       y1="74.077437"
       x2="116.00003"
       y2="74.077437"
       gradientUnits="userSpaceOnUse" /></defs><style
     type="text/css"
     id="style1">
	.st0{fill-rule:evenodd;clip-rule:evenodd;fill:url(#SVGID_1_);}
	.st1{fill-rule:evenodd;clip-rule:evenodd;fill:#FFFFFF;}
</style><style
     type="text/css"
     id="style1-9">
	.st0{fill-rule:evenodd;clip-rule:evenodd;fill:url(#SVGID_1_);}
	.st1{fill-rule:evenodd;clip-rule:evenodd;fill:#FFFFFF;}
</style><path
     id="path60"
     style="fill:url(#linearGradient62);stroke-width:1.26588"
     d="m 74.582487,32.155063 c 0,0 -0.909764,0.540548 -3.79022,4.853365 -1.87582,2.808607 -3.47526,5.105554 -3.552871,5.105554 -0.0776,0 -1.653328,-2.285388 -3.503426,-5.078357 -1.792284,-2.705687 -3.382686,-4.800247 -3.612215,-4.769304 l -0.0025,0.0025 h -0.0025 -0.0025 l -0.0025,0.0025 -0.0025,0.0025 h -0.0025 v 0.0025 c -0.145222,0.175127 -1.239006,2.825879 -2.430389,5.889311 -1.191384,3.063431 -2.293156,5.567897 -2.447694,5.567897 -0.154526,0 -2.145415,-1.74591 -4.423164,-3.881704 -2.224368,-2.085737 -4.150089,-3.706672 -4.351465,-3.669076 h -0.0025 l -0.0025,0.0025 h -0.0025 l -0.0025,0.0025 c -0.120765,0.120727 -0.697728,3.128709 -1.283185,6.68296 l -1.065606,6.460442 -5.365169,-2.566376 c -3.255884,-1.557226 -5.234112,-6.188093 -5.234112,-6.188093 v 4 c 0.01013,0.373977 0.219503,3.851382 0.608217,7.360403 l 0.707108,6.381323 H 28.8223 c -2.397152,0 -5.990679,-3.787371 -5.990679,-3.787371 v 4 c 0,0.11722 1.550324,3.129387 3.444082,6.695322 1.893757,3.565946 3.442878,6.616853 3.444081,6.776911 0.0012,0.16007 -0.552405,1.67003 -1.231259,3.35755 l -1.23374,3.068277 -2.539179,1.120006 c -0.929384,0.409943 -1.823438,0.809404 -2.375995,0.979083 -1.104264,-0.771075 -2.418669,-1.184471 -3.765501,-1.184295 -3.22729,7.38e-4 -6.572956,2.704117 -6.572956,2.704117 0,0 -0.0013,3.468379 -0.0012,3.872525 -5.4e-4,3.631441 2.942732,6.575824 6.574173,6.576655 0.367007,1.12e-4 0.733379,-0.0305 1.095278,-0.09152 0.310128,0.408968 0.8559,1.077277 1.913657,2.279572 2.994947,3.404232 11.209867,9.48314 18.540695,12.03575 l 3.973194,1.38456 0.04456,1.41176 c 0.06975,2.32023 0.93841,3.84026 2.835877,4.95226 3.272022,1.91753 7.681528,2.0423 11.33358,0.32141 h 0.0025 c 1.417571,-0.66861 2.300143,-1.41686 2.82599,-2.3933 l 0.763972,-1.41917 3.856986,0.0101 3.856974,0.008 0.642826,1.3079 c 1.681254,3.42255 8.912478,4.80094 13.474712,2.56885 2.740378,-1.34074 3.650972,-2.8807 3.446557,-5.82997 -0.144259,-2.08127 -0.126698,-2.11658 1.268353,-2.67269 1.389583,-0.55395 1.514492,-0.51509 6.98954,2.22766 l 5.572839,2.79135 c 0.006,-1.09558 0,-4 0,-4 0,0 -0.37155,-2.11112 -0.52515,-3.51446 -0.32762,-2.89634 -0.677035,-5.570348 -0.68139,-5.960239 -0.0076,-0.642916 0.53765,-0.709577 5.86459,-0.709577 3.23053,0 5.87448,-0.11798 5.87448,-0.262088 v -4 c 0,0 -2.08936,-0.270417 -3.12515,-2.257691 -1.71908,-3.298254 -3.04106,-6.066644 -2.93724,-6.151394 0.10381,-0.08481 2.51216,-1.568616 5.3528,-3.298214 2.84064,-1.729611 5.16489,-3.292249 5.16489,-3.473751 v -4 c 0,0 -3.20489,1.725137 -5.16489,0.536135 -2.84064,-1.723231 -5.24897,-3.207778 -5.3528,-3.298213 -0.1038,-0.09038 1.21815,-2.863025 2.93724,-6.161277 1.71909,-3.298341 3.12515,-6.113634 3.12515,-6.257702 v -4 c 0,0 -3.41189,3.737922 -5.87448,3.737922 -5.32527,0 -5.797835,-0.267021 -5.797835,-0.267021 0.0013,-0.389892 0.201255,-3.430734 0.531575,-6.215673 0.31499,-2.560218 0.60821,-7.701597 0.60821,-7.701597 v -4 l -5.276149,6.643021 c -3.608139,1.808044 -5.326679,2.48284 -5.43933,2.131227 -0.09064,-0.282772 -0.579446,-3.295225 -1.085393,-6.692848 -0.505948,-3.397624 -1.039499,-6.176113 -1.184291,-6.176113 -0.144778,0 -2.182894,1.82128 -4.531952,4.047356 L 79.222738,44.13487 77.09151,38.769712 c -1.172231,-2.950162 -2.30107,-6.20017 -2.509509,-6.613731 z" /><g
     id="Layer_5"
     transform="matrix(0.27778426,0,0,0.27778426,13.998833,127.37221)">
</g><g
     id="g4"
     transform="matrix(0.27778426,0,0,0.27778426,13.998833,127.37221)">
</g><g
     id="g5"
     transform="matrix(0.27778426,0,0,0.27778426,13.998833,127.37221)">
</g><g
     id="g6"
     transform="matrix(0.27778426,0,0,0.27778426,13.998833,127.37221)">
</g><g
     id="g7"
     transform="matrix(0.27778426,0,0,0.27778426,13.998833,127.37221)">
</g><g
     id="g8"
     transform="matrix(0.27778426,0,0,0.27778426,13.998833,127.37221)">
</g><g
     id="g9"
     transform="matrix(0.27778426,0,0,0.27778426,13.998833,127.37221)">
</g><path
     id="path1"
     style="fill:#ffffff;fill-opacity:1;stroke-width:1.26588"
     d="m 74.582487,28.155063 c 0,0 -0.909764,0.540548 -3.79022,4.853365 -1.87582,2.808607 -3.47526,5.105554 -3.552871,5.105554 -0.0776,0 -1.653328,-2.285388 -3.503426,-5.078357 -1.792284,-2.705687 -3.382686,-4.800247 -3.612215,-4.769304 l -0.0025,0.0025 h -0.0025 -0.0025 l -0.0025,0.0025 -0.0025,0.0025 h -0.0025 v 0.0025 c -0.145222,0.175127 -1.239006,2.825879 -2.430389,5.889311 -1.191384,3.063431 -2.293156,5.567897 -2.447694,5.567897 -0.154526,0 -2.145415,-1.74591 -4.423164,-3.881704 -2.224368,-2.085737 -4.150089,-3.706672 -4.351465,-3.669076 h -0.0025 l -0.0025,0.0025 h -0.0025 l -0.0025,0.0025 c -0.120765,0.120727 -0.697728,3.128709 -1.283185,6.68296 l -1.065606,6.460442 -5.365169,-2.566376 c -4.245067,-2.030333 -5.234112,-2.188093 -5.234112,-2.188093 0.01013,0.373977 0.219503,3.851382 0.608217,7.360403 l 0.707108,6.381323 H 28.8223 c -3.295113,0 -5.990679,0.09547 -5.990679,0.212629 0,0.11722 1.550324,3.129387 3.444082,6.695322 1.893757,3.565946 3.442878,6.616853 3.444081,6.776911 0.0012,0.16007 -0.552405,1.67003 -1.231259,3.35755 l -1.23374,3.068277 -2.539179,1.120006 c -0.929384,0.409943 -1.823438,0.809404 -2.375995,0.979083 a 6.5756772,6.5756772 0 0 0 -3.765501,-1.184295 6.5756772,6.5756772 0 0 0 -6.574173,6.576642 6.5756772,6.5756772 0 0 0 6.574173,6.576655 6.5756772,6.5756772 0 0 0 1.095278,-0.09152 c 0.310128,0.408968 0.8559,1.077277 1.913657,2.279572 2.994947,3.404232 11.209867,9.48314 18.540695,12.03575 l 3.973194,1.38456 0.04456,1.41176 c 0.06975,2.32023 0.93841,3.84026 2.835877,4.95226 3.272022,1.91753 7.681528,2.0423 11.33358,0.32141 h 0.0025 c 1.417571,-0.66861 2.300143,-1.41686 2.82599,-2.3933 l 0.763972,-1.41917 3.856986,0.0101 3.856974,0.008 0.642826,1.3079 c 1.681254,3.42255 8.912478,4.80094 13.474712,2.56885 2.740378,-1.34074 3.650972,-2.8807 3.446557,-5.82997 -0.144259,-2.08127 -0.126698,-2.11658 1.268353,-2.67269 1.389583,-0.55395 1.514492,-0.51509 6.98954,2.22766 l 5.572839,2.79135 c 0.0134,-2.50963 -0.33067,-5.0082 -0.60327,-7.498844 -0.32762,-2.896335 -0.598915,-5.585964 -0.60327,-5.975855 -0.0076,-0.642916 0.53765,-0.709577 5.86459,-0.709577 3.23053,0 5.87448,-0.11798 5.87448,-0.262088 0,-0.14407 -1.40606,-2.959426 -3.12515,-6.257691 -1.71909,-3.298251 -3.04106,-6.066644 -2.93724,-6.151394 0.10381,-0.08481 2.51216,-1.568616 5.3528,-3.298214 2.84064,-1.729611 5.16489,-3.292249 5.16489,-3.473751 0,-0.18149 -2.32425,-1.740634 -5.16489,-3.463865 -2.84064,-1.723231 -5.24897,-3.207778 -5.3528,-3.298213 -0.1038,-0.09038 1.21815,-2.863025 2.93724,-6.161277 1.71909,-3.298341 3.12515,-6.113634 3.12515,-6.257702 0,-0.144072 -2.64395,-0.262078 -5.87448,-0.262078 -5.32527,0 -5.797835,-0.267021 -5.797835,-0.267021 0.0013,-0.389892 0.201255,-3.430734 0.531575,-6.215673 0.31499,-2.560218 0.60821,-7.701597 0.60821,-7.701597 l -5.276149,2.643021 c -3.608139,1.808044 -5.326679,2.48284 -5.43933,2.131227 -0.09064,-0.282772 -0.579446,-3.295225 -1.085393,-6.692848 -0.505948,-3.397624 -1.039499,-6.176113 -1.184291,-6.176113 -0.144778,0 -2.182894,1.82128 -4.531952,4.047356 L 79.222738,40.13487 77.09151,34.769712 c -1.172231,-2.950162 -2.30107,-6.20017 -2.509509,-6.613731 z" /><path
     id="path51"
     style="fill:url(#linearGradient60);fill-opacity:1;stroke-width:1.26588"
     d="m 73.50451,35.058066 c -0.129487,0.0039 -1.49401,1.925502 -3.033662,4.269875 -1.539653,2.344386 -2.93316,4.345033 -3.095471,4.445417 h -0.0025 l -0.0025,0.0024 h -0.0025 c -0.201212,0.03361 -1.700825,-1.973695 -3.367445,-4.514644 -3.057406,-4.661339 -3.080938,-4.685283 -3.515781,-3.54051 -2.331119,6.137015 -3.736905,9.457018 -4.005322,9.457018 -0.177084,0 -1.992686,-1.573461 -4.034995,-3.496006 -2.042308,-1.922544 -3.772577,-3.424676 -3.844618,-3.340244 -0.07203,0.08449 -0.454768,2.329242 -0.85052,4.989351 -1.120887,7.534078 -0.442172,7.01658 -5.829975,4.450361 C 39.381219,46.572232 37.276464,45.5831 37.2414,45.5831 c -0.03506,0 0.228326,2.655104 0.585963,5.899201 0.354788,3.218739 0.499884,5.945888 0.326357,6.096995 h -0.0025 l -0.0025,0.0024 c -0.17997,0.111183 -2.52909,0.07343 -5.221757,-0.08407 l -4.895401,-0.2868 2.754278,5.244009 2.751809,5.244009 -1.832071,4.408331 c -1.007844,2.42449 -2.093058,4.545636 -2.413085,4.712441 -0.320027,0.166806 -2.067993,0.998249 -3.884177,1.849363 -2.055512,0.963285 -2.835345,1.326745 -3.377332,1.278249 a 3.9043333,3.4784058 0 0 0 -0.09646,-0.116208 3.9043333,3.4784058 0 0 0 -0.150817,-0.182958 3.9043333,3.4784058 0 0 0 -0.155754,-0.158235 3.9043333,3.4784058 0 0 0 -0.175552,-0.165653 3.9043333,3.4784058 0 0 0 -0.21263,-0.165653 3.9043333,3.4784058 0 0 0 -0.155754,-0.113676 3.9043333,3.4784058 0 0 0 -0.304115,-0.18049 3.9043333,3.4784058 0 0 0 -0.103803,-0.05937 3.9043333,3.4784058 0 0 0 -0.31152,-0.13845 3.9043333,3.4784058 0 0 0 -0.155767,-0.06431 3.9043333,3.4784058 0 0 0 -0.264543,-0.07912 3.9043333,3.4784058 0 0 0 -0.215099,-0.06177 3.9043333,3.4784058 0 0 0 -0.294229,-0.0519 3.9043333,3.4784058 0 0 0 -0.180476,-0.03215 3.9043333,3.4784058 0 0 0 -0.02228,-0.0025 3.9043333,3.4784058 0 0 0 -0.487072,-0.02722 3.9043333,3.4784058 0 0 0 -0.509315,0.02962 3.9043333,3.4784058 0 0 0 -2.588624,1.330162 3.9043333,3.4784058 0 0 0 0,0.0025 3.9043333,3.4784058 0 0 0 -0.28433,0.375802 3.9043333,3.4784058 0 0 0 0,0.0025 3.9043333,3.4784058 0 0 0 -0.521682,1.738118 3.9043333,3.4784058 0 0 0 3.903951,3.478703 3.9043333,3.4784058 0 0 0 0.956828,-0.106334 3.9043333,3.4784058 0 0 0 0.46235,-0.131044 3.9043333,3.4784058 0 0 0 0.848039,-0.410424 l 0.449983,-0.03709 1.194181,1.997724 c 3.584138,5.998882 15.198567,12.60017 26.262073,14.928488 3.124598,0.65758 3.507603,0.99808 1.696077,1.49828 -3.041848,0.83989 -3.897925,2.58922 -2.000193,4.08198 0.883433,0.6949 1.641442,0.83815 4.400923,0.83815 2.802571,0 3.510667,-0.13748 4.445418,-0.87278 0.956816,-0.75269 1.083113,-1.09178 0.904902,-2.42049 l -0.20768,-1.54279 6.947507,0.0148 c 4.804371,0.0101 7.991084,-0.19051 10.332254,-0.64531 1.832965,-0.35602 3.434095,-0.55268 3.597376,-0.44503 l 0.0025,0.003 0.0025,0.003 h 0.0025 c 0.261886,0.26188 -0.420335,0.49699 -2.390833,0.82331 -1.788816,0.29622 -3.585013,1.6251 -3.585013,2.65291 0,0.41324 0.4786,1.13048 1.065614,1.59223 1.558046,1.22557 7.246253,1.22557 8.804299,0 1.27183,-1.00041 1.343843,-2.09479 0.299163,-4.53194 l -0.768924,-1.79004 2.084253,-0.73431 c 1.14647,-0.403512 2.752289,-1.067327 3.567706,-1.47356 l 1.483454,-0.736781 3.782807,1.772727 c 2.080919,0.974874 3.80396,1.744584 3.829784,1.710914 0.02581,-0.0337 -0.190803,-2.157707 -0.482122,-4.719849 -0.291316,-2.562143 -0.540783,-5.275975 -0.553823,-6.030238 l -0.02225,-1.372202 5.115444,0.291748 5.11544,0.291747 -2.68505,-5.07589 c -1.47725,-2.792203 -2.68149,-5.223656 -2.67516,-5.402234 v -0.0025 c 0.0371,-0.19497 2.02634,-1.517689 4.44542,-2.954552 2.43811,-1.448164 4.43111,-2.724468 4.43058,-2.835865 -5.4e-4,-0.111398 -1.99739,-1.387715 -4.438,-2.83587 -2.44061,-1.44818 -4.43915,-2.744455 -4.44294,-2.880372 -0.003,-0.135918 1.18001,-2.49853 2.62818,-5.251427 1.44817,-2.752898 2.63313,-5.081359 2.63313,-5.174781 0,-0.09345 -2.27858,-0.03999 -5.06352,0.118676 l -5.063524,0.286801 0.0025,-0.941993 c 0.0019,-0.518378 0.271513,-3.208982 0.598326,-5.980792 0.326799,-2.77181 0.527572,-5.10708 0.445037,-5.189615 -0.08246,-0.08247 -2.194926,0.873631 -4.69266,2.126283 -2.497722,1.252652 -4.587006,2.220378 -4.64321,2.151008 -0.05615,-0.06933 -0.495269,-2.666089 -0.976608,-5.770635 -0.481326,-3.10456 -0.94422,-5.713525 -1.028528,-5.797832 -0.08431,-0.08431 -1.89545,1.511961 -4.025104,3.547926 l -3.871815,3.703691 -0.556295,-1.347471 C 77.102747,43.557466 76.152885,41.174643 75.29696,39.002392 74.461095,36.881053 73.671449,35.13828 73.514343,35.06135 l -0.0025,-0.0025 h -0.0025 -0.0025 z m -1.152146,15.638077 7.832634,11.941803 13.759034,-3.819893 -8.935337,11.138265 7.882085,11.904719 -13.353558,-5.056104 -8.885885,11.177827 0.682385,-14.263414 0.398057,-8.757323 -3.243819,4.116585 2.855649,4.391023 -4.801447,-1.824648 -3.142448,4.222894 0.128576,-5.216808 -4.979468,-2.074363 5.048686,-1.129897 0.103803,-5.214341 2.974325,4.089388 5.056105,-1.359833 z m -21.45322,14.315329 c 0.77368,0.01063 1.56721,0.243958 2.351272,0.707114 1.487903,0.878926 2.535217,3.030313 2.205404,4.531951 -0.285988,1.302047 -2.230798,3.288074 -4.183343,4.272347 -0.735553,0.370776 -1.440711,0.942835 -1.567515,1.273294 -0.126815,0.330458 0.235492,1.644315 0.806012,2.917462 0.570507,1.273159 1.412229,4.029779 1.869149,6.12666 0.456919,2.09688 1.131254,4.270954 1.498296,4.831119 2.547028,3.887253 7.644058,5.809215 17.972036,6.774436 2.590246,0.242074 2.89081,0.344661 2.027391,0.692285 -1.633981,0.657853 -14.66507,0.727311 -19.297256,0.103802 -5.042572,-0.678575 -10.90922,-2.209329 -15.027395,-3.923736 -5.609864,-2.335398 -13.093978,-7.956313 -12.53518,-9.412519 0.130322,-0.339585 1.239588,-0.908927 2.46748,-1.26588 1.227879,-0.356953 2.601637,-0.956209 3.050962,-1.332631 0.449337,-0.376422 1.824412,-3.127434 3.055924,-6.111836 2.457378,-5.955078 3.64918,-8.144158 4.433051,-8.144158 0.282595,0 1.26788,0.548048 2.190568,1.216433 2.1861,1.583601 3.036873,1.543669 4.111631,-0.195322 1.256146,-2.032499 2.869435,-3.084198 4.571513,-3.060859 z m -12.886273,13.09395 c -1.548577,5.19e-4 -2.803697,1.218005 -2.803723,2.719669 2.6e-5,1.501663 1.255146,2.719149 2.803723,2.719668 1.549578,8.11e-4 2.806179,-1.217081 2.806205,-2.719668 -2.6e-5,-1.502626 -1.256615,-2.720479 -2.806205,-2.719669 z" /></svg>
