<?xml version="1.0" encoding="UTF-8"?>
<svg height="128px" viewBox="0 0 128 128" width="128px" xmlns="http://www.w3.org/2000/svg" xmlns:xlink="http://www.w3.org/1999/xlink">
    <linearGradient id="a" gradientUnits="userSpaceOnUse" x1="12" x2="116" y1="54.0952" y2="54.0952">
        <stop offset="0" stop-color="#25326a"/>
        <stop offset="0.0416667" stop-color="#596dc5"/>
        <stop offset="0.0833333" stop-color="#30418a"/>
        <stop offset="0.916667" stop-color="#30418a"/>
        <stop offset="0.958333" stop-color="#596dc5"/>
        <stop offset="1" stop-color="#25326a"/>
    </linearGradient>
    <linearGradient id="b" gradientUnits="userSpaceOnUse" x1="64" x2="64" y1="12" y2="112">
        <stop offset="0" stop-color="#162775"/>
        <stop offset="1" stop-color="#596dc5"/>
    </linearGradient>
    <radialGradient id="c" cx="0" cy="0" gradientTransform="matrix(0 50 -52 0 64 62)" gradientUnits="userSpaceOnUse" r="1">
        <stop offset="0" stop-color="#ffffff" stop-opacity="0.3"/>
        <stop offset="1" stop-color="#ffffff" stop-opacity="0"/>
    </radialGradient>
    <path d="m 37 16 h 54 c 13.808594 0 25 11.191406 25 25 v 50 c 0 13.808594 -11.191406 25 -25 25 h -54 c -13.808594 0 -25 -11.191406 -25 -25 v -50 c 0 -13.808594 11.191406 -25 25 -25 z m 0 0" fill="url(#a)"/>
    <path d="m 37 12 h 54 c 13.808594 0 25 11.191406 25 25 v 50 c 0 13.808594 -11.191406 25 -25 25 h -54 c -13.808594 0 -25 -11.191406 -25 -25 v -50 c 0 -13.808594 11.191406 -25 25 -25 z m 0 0" fill="url(#b)"/>
    <path d="m 37 12 h 54 c 13.808594 0 25 11.191406 25 25 v 50 c 0 13.808594 -11.191406 25 -25 25 h -54 c -13.808594 0 -25 -11.191406 -25 -25 v -50 c 0 -13.808594 11.191406 -25 25 -25 z m 0 0" fill="url(#c)"/>
    <path d="m 63.738281 26.003906 c -0.585937 0.039063 -1.132812 0.300782 -1.53125 0.730469 c -0.402343 0.429687 -0.625 0.992187 -0.625 1.578125 v 28.203125 l -26.199219 -26.28125 c -0.886718 -0.882813 -2.3125 -0.882813 -3.195312 0 c -0.425781 0.425781 -0.664062 1.003906 -0.664062 1.605469 c 0 0.601562 0.238281 1.175781 0.664062 1.601562 l 26.269531 26.351563 h -28.039062 c -0.300781 -0.003907 -0.601563 0.058593 -0.882813 0.171875 c -0.28125 0.117187 -0.539062 0.289062 -0.753906 0.503906 s -0.386719 0.46875 -0.5 0.75 c -0.117188 0.28125 -0.179688 0.582031 -0.179688 0.886719 c 0 0.304687 0.0625 0.605469 0.179688 0.886719 c 0.113281 0.28125 0.285156 0.535156 0.5 0.75 c 0.214844 0.214843 0.472656 0.386718 0.753906 0.503906 c 0.28125 0.113281 0.582032 0.175781 0.882813 0.175781 h 27.941406 l -26.167969 26.246094 c -0.425781 0.425781 -0.664062 1.003906 -0.664062 1.605469 c 0 0.601562 0.238281 1.175781 0.664062 1.601562 c 0.207032 0.210938 0.457032 0.378906 0.730469 0.492188 c 0.273437 0.113281 0.570313 0.171874 0.867187 0.171874 c 0.296876 0 0.589844 -0.058593 0.863282 -0.171874 c 0.273437 -0.113282 0.523437 -0.28125 0.734375 -0.492188 l 26.195312 -26.273438 v 28.082032 c 0 0.304687 0.058594 0.605468 0.175781 0.886718 c 0.117188 0.28125 0.285157 0.535157 0.5 0.75 c 0.214844 0.214844 0.472657 0.386719 0.753907 0.503907 c 0.28125 0.117187 0.582031 0.175781 0.886719 0.175781 c 0.300781 0 0.605468 -0.058594 0.882812 -0.175781 c 0.28125 -0.117188 0.539062 -0.289063 0.753906 -0.503907 c 0.214844 -0.214843 0.382813 -0.46875 0.5 -0.75 c 0.117188 -0.28125 0.175782 -0.582031 0.175782 -0.886718 v -28.117188 l 26.230468 26.308594 l 0.003906 0.003906 c 0.425782 0.421875 1 0.660156 1.597657 0.660156 c 0.597656 0 1.171875 -0.238281 1.59375 -0.664062 c 0.425781 -0.425781 0.664062 -1 0.664062 -1.601562 c 0 -0.601563 -0.238281 -1.179688 -0.664062 -1.605469 l -26.171875 -26.246094 h 28.121094 c 0.613281 0 1.199218 -0.246094 1.632812 -0.679687 c 0.433594 -0.433594 0.679688 -1.019532 0.679688 -1.632813 l -0.007813 -0.007813 c 0 -0.300781 -0.058594 -0.601562 -0.175781 -0.882812 c -0.117188 -0.28125 -0.285156 -0.535156 -0.5 -0.75 s -0.472656 -0.386719 -0.753906 -0.503906 c -0.28125 -0.113282 -0.582032 -0.175782 -0.886719 -0.171875 h -28.203125 l 26.269531 -26.351563 c 0.425781 -0.425781 0.664063 -1 0.664063 -1.601562 c 0 -0.601563 -0.238282 -1.179688 -0.664063 -1.605469 h -0.007813 c -0.882812 -0.882813 -2.3125 -0.882813 -3.195312 0 l -26.226562 26.308594 v -28.226563 c 0 -0.316406 -0.066407 -0.632812 -0.191407 -0.925781 c -0.125 -0.289063 -0.3125 -0.550781 -0.542969 -0.769531 c -0.230468 -0.214844 -0.507812 -0.382813 -0.804687 -0.488282 c -0.300781 -0.105468 -0.617187 -0.148437 -0.933594 -0.128906 z m 0 0" fill="#ffffff" fill-opacity="0.9"/>
</svg>
