<?xml version="1.0" encoding="UTF-8" standalone="no"?>
<svg
   viewBox="0 0 128 128"
   style="display:inline;enable-background:new"
   version="1.0"
   id="svg11300"
   height="128"
   width="128"
   xml:space="preserve"
   xmlns:xlink="http://www.w3.org/1999/xlink"
   xmlns="http://www.w3.org/2000/svg"
   xmlns:svg="http://www.w3.org/2000/svg"
   xmlns:rdf="http://www.w3.org/1999/02/22-rdf-syntax-ns#"
   xmlns:cc="http://creativecommons.org/ns#"
   xmlns:dc="http://purl.org/dc/elements/1.1/"><title
     id="title4162">Adwaita Icon Template</title><defs
     id="defs3"><linearGradient
       id="linearGradient974"><stop
         style="stop-color:#262845;stop-opacity:1;"
         offset="0"
         id="stop962" /><stop
         id="stop964"
         offset="0.04166667"
         style="stop-color:#5f62a5;stop-opacity:1;" /><stop
         style="stop-color:#272844;stop-opacity:1;"
         offset="0.08333334"
         id="stop966" /><stop
         id="stop968"
         offset="0.91666669"
         style="stop-color:#272844;stop-opacity:1;" /><stop
         style="stop-color:#5f62a5;stop-opacity:1;"
         offset="0.95833331"
         id="stop970" /><stop
         style="stop-color:#272844;stop-opacity:1;"
         offset="1"
         id="stop972" /></linearGradient><linearGradient
       y2="44"
       x2="464"
       y1="44"
       x1="48"
       gradientTransform="matrix(0.25,0,0,0.25,0,53)"
       gradientUnits="userSpaceOnUse"
       id="linearGradient1747"
       xlink:href="#linearGradient974" /></defs><metadata
     id="metadata4"><rdf:RDF><cc:Work
         rdf:about=""><dc:format>image/svg+xml</dc:format><dc:type
           rdf:resource="http://purl.org/dc/dcmitype/StillImage" /><dc:creator><cc:Agent><dc:title>GNOME Design Team</dc:title></cc:Agent></dc:creator><dc:source /><cc:license
           rdf:resource="http://creativecommons.org/licenses/by-sa/4.0/" /><dc:title>Adwaita Icon Template</dc:title><dc:subject><rdf:Bag /></dc:subject><dc:date /><dc:rights><cc:Agent><dc:title /></cc:Agent></dc:rights><dc:publisher><cc:Agent><dc:title /></cc:Agent></dc:publisher><dc:identifier /><dc:relation /><dc:language /><dc:coverage /><dc:description /><dc:contributor><cc:Agent><dc:title /></cc:Agent></dc:contributor></cc:Work><cc:License
         rdf:about="http://creativecommons.org/licenses/by-sa/4.0/"><cc:permits
           rdf:resource="http://creativecommons.org/ns#Reproduction" /><cc:permits
           rdf:resource="http://creativecommons.org/ns#Distribution" /><cc:requires
           rdf:resource="http://creativecommons.org/ns#Notice" /><cc:requires
           rdf:resource="http://creativecommons.org/ns#Attribution" /><cc:permits
           rdf:resource="http://creativecommons.org/ns#DerivativeWorks" /><cc:requires
           rdf:resource="http://creativecommons.org/ns#ShareAlike" /></cc:License></rdf:RDF></metadata><rect
     ry="8"
     rx="8"
     y="32"
     x="12"
     height="83.999992"
     width="104"
     id="rect1709"
     style="display:inline;fill:url(#linearGradient1747);fill-opacity:1;stroke:none;stroke-width:0.25;stroke-linecap:butt;stroke-linejoin:miter;stroke-miterlimit:4;stroke-dasharray:none;stroke-dashoffset:0;stroke-opacity:1;marker:none;marker-start:none;marker-mid:none;marker-end:none;paint-order:normal;enable-background:new" /><rect
     style="display:inline;fill:#383a64;fill-opacity:1;stroke:none;stroke-width:0.25;stroke-linecap:butt;stroke-linejoin:miter;stroke-miterlimit:4;stroke-dasharray:none;stroke-dashoffset:0;stroke-opacity:1;marker:none;marker-start:none;marker-mid:none;marker-end:none;paint-order:normal;enable-background:new"
     id="rect1711"
     width="104"
     height="100"
     x="12"
     y="12"
     rx="8"
     ry="8" /><path
     id="path43"
     style="display:inline;opacity:1;fill:#4f61ba;fill-opacity:1;stroke-width:0.722633;enable-background:new"
     d="m 48.07617,116 h 1.96289 v -4.09766 h -1.96289 z m 9.08203,0 h 5.85938 v -4.09766 H 57.1582 Z m 8.91797,0 h 5.98828 v -4.09766 h -5.98828 z m 9.00391,0 h 6.02148 v -4.09766 h -6.02148 z" /><path
     id="path17"
     style="display:inline;opacity:1;fill:#dce1fa;fill-opacity:1;stroke-width:0.722633;enable-background:new"
     d="m 48.07617,112 h 1.96289 L 54.9043,98.230467 53.39648,97.156248 Z m 9.08203,0 h 5.85938 l 3.25586,-9.08399 -5.02735,-2.33203 z m 8.91797,0 h 5.98828 l 1.9961,-5.57617 -5.10547,-2.46094 z m 9.00391,0 h 6.02148 l 0.7207,-2.01367 -5.15234,-2.42188 z M 116,76.933592 v -6.015625 l -3.18945,1.128906 2.35937,5.181641 z m 0,-9.025391 v -5.980469 l -6.68164,2.363282 2.28515,5.173828 z m 0,-9.035156 v -5.853516 l -10.14453,3.589844 2.26953,5.048828 z m 0,-13.023437 v -1.894532 l -13.7461,4.863282 0.81055,1.673828 z M 51.6914,30.509764 35.23828,46.707029 36.35937,47.843748 52.8125,31.648436 Z m 5.60743,6.662109 -15.42383,15.183594 4.30664,3.652344 14.75195,-14.654297 z m 33.68554,1.302735 -15.90625,9.855468 0.91211,1.445313 15.90625,-9.853516 z m 2.32813,5.259765 -14.71094,9.09375 3.20313,4.576172 14.09375,-8.800781 z m -30.5586,0.04883 -14.35351,14.128907 4.15234,3.515624 13.72852,-13.638671 z m 5.45508,6.541016 -13.17968,12.974609 4.02539,3.609375 12.60547,-12.521484 z m 28.98242,0.966797 -13.49023,8.339844 3.19727,4.52539 12.84961,-8.023437 z m -23.48437,5.380859 -12.32617,12.132813 4.14062,3.75 11.78711,-11.708985 z m 27.48437,2.193359 -12.31835,7.615235 3.28906,4.455078 11.50586,-7.113281 z m -22.02734,4.314454 -11.30078,11.125 4.12109,3.703125 10.74805,-10.675782 z m 25.94922,3.134765 -11.22656,6.939453 3.32812,4.572266 10.35547,-6.40625 z m -56.75586,0.652344 -10.06055,15.775391 1.44922,0.908203 10.06055,-15.777344 z m 36.39063,2.710937 -10.32032,10.160157 4.19532,3.611328 9.64062,-9.488281 z m -27.0918,4.13086 -9.31445,14.574219 4.87109,2.734375 8.88477,-14.041018 z m 51.24219,0.128906 -9.95508,6.154297 3.4043,4.564453 9.07031,-5.611328 z m -18.67383,2.13086 -9.4043,9.259765 4.25977,3.71875 8.67382,-8.544922 z m -25.79883,2.86914 -8.53906,13.363281 4.84179,2.69336 8.10157,-12.802735 z m 31.18359,3.72461 -8.34179,8.210937 4.33398,3.695313 7.59766,-7.486329 z m -24.29297,1.367187 -7.79882,12.203125 4.89453,2.587891 7.28515,-11.398438 z m 6.76172,5.011719 -7.10742,11.121094 4.98242,2.67773 6.55274,-10.26367 z m 6.7168,5.228515 -6.30273,9.861329 5.04687,2.63867 5.74219,-8.990233 z" /></svg>
