<?xml version="1.0" encoding="UTF-8" standalone="no"?>
<svg
   viewBox="0 0 128 128"
   style="display:inline;enable-background:new"
   version="1.0"
   id="svg11300"
   height="128"
   width="128"
   xml:space="preserve"
   xmlns:xlink="http://www.w3.org/1999/xlink"
   xmlns="http://www.w3.org/2000/svg"
   xmlns:svg="http://www.w3.org/2000/svg"
   xmlns:rdf="http://www.w3.org/1999/02/22-rdf-syntax-ns#"
   xmlns:cc="http://creativecommons.org/ns#"
   xmlns:dc="http://purl.org/dc/elements/1.1/"><title
     id="title4162">Adwaita Icon Template</title><defs
     id="defs3"><linearGradient
       id="linearGradient47"><stop
         style="stop-color:#ee9bb3;stop-opacity:1;"
         offset="0"
         id="stop47" /><stop
         style="stop-color:#b957f2;stop-opacity:1;"
         offset="1"
         id="stop48" /></linearGradient><linearGradient
       id="linearGradient7"><stop
         style="stop-color:#1a283d;stop-opacity:1;"
         offset="0"
         id="stop2" /><stop
         id="stop3"
         offset="0.04166667"
         style="stop-color:#476ea9;stop-opacity:1;" /><stop
         style="stop-color:#1a283d;stop-opacity:1;"
         offset="0.08333334"
         id="stop4" /><stop
         id="stop5"
         offset="0.91666669"
         style="stop-color:#1a283d;stop-opacity:1;" /><stop
         style="stop-color:#476da8;stop-opacity:1;"
         offset="0.95833331"
         id="stop6" /><stop
         style="stop-color:#1a283d;stop-opacity:1;"
         offset="1"
         id="stop7" /></linearGradient><linearGradient
       xlink:href="#linearGradient7"
       id="linearGradient2"
       x1="12"
       y1="66"
       x2="116"
       y2="66"
       gradientUnits="userSpaceOnUse" /><linearGradient
       xlink:href="#linearGradient47"
       id="linearGradient48"
       x1="48.696541"
       y1="77.756508"
       x2="84.892693"
       y2="36.25354"
       gradientUnits="userSpaceOnUse" /></defs><metadata
     id="metadata4"><rdf:RDF><cc:Work
         rdf:about=""><dc:format>image/svg+xml</dc:format><dc:type
           rdf:resource="http://purl.org/dc/dcmitype/StillImage" /><dc:creator><cc:Agent><dc:title>GNOME Design Team</dc:title></cc:Agent></dc:creator><dc:source /><cc:license
           rdf:resource="http://creativecommons.org/licenses/by-sa/4.0/" /><dc:title>Adwaita Icon Template</dc:title><dc:subject><rdf:Bag /></dc:subject><dc:date /><dc:rights><cc:Agent><dc:title /></cc:Agent></dc:rights><dc:publisher><cc:Agent><dc:title /></cc:Agent></dc:publisher><dc:identifier /><dc:relation /><dc:language /><dc:coverage /><dc:description /><dc:contributor><cc:Agent><dc:title /></cc:Agent></dc:contributor></cc:Work><cc:License
         rdf:about="http://creativecommons.org/licenses/by-sa/4.0/"><cc:permits
           rdf:resource="http://creativecommons.org/ns#Reproduction" /><cc:permits
           rdf:resource="http://creativecommons.org/ns#Distribution" /><cc:requires
           rdf:resource="http://creativecommons.org/ns#Notice" /><cc:requires
           rdf:resource="http://creativecommons.org/ns#Attribution" /><cc:permits
           rdf:resource="http://creativecommons.org/ns#DerivativeWorks" /><cc:requires
           rdf:resource="http://creativecommons.org/ns#ShareAlike" /></cc:License></rdf:RDF></metadata><rect
     style="display:inline;fill:url(#linearGradient2);fill-opacity:1;stroke:none;stroke-width:0.25;stroke-linecap:butt;stroke-linejoin:miter;stroke-miterlimit:4;stroke-dasharray:none;stroke-dashoffset:0;stroke-opacity:1;marker:none;marker-start:none;marker-mid:none;marker-end:none;paint-order:normal;enable-background:new"
     id="rect1"
     width="104"
     height="100"
     x="12"
     y="16"
     rx="8"
     ry="8" /><rect
     style="display:inline;fill:#294062;fill-opacity:1;stroke:none;stroke-width:0.25;stroke-linecap:butt;stroke-linejoin:miter;stroke-miterlimit:4;stroke-dasharray:none;stroke-dashoffset:0;stroke-opacity:1;marker:none;marker-start:none;marker-mid:none;marker-end:none;paint-order:normal;enable-background:new"
     id="rect1711"
     width="104"
     height="100"
     x="12"
     y="12"
     rx="8"
     ry="8" /><path
     id="circle30"
     style="opacity:0.839429;fill:url(#linearGradient48);stroke-width:0.757813"
     d="m 47.510107,85.889359 a 3.45,3.45 0 0 1 -3.45,3.45 3.45,3.45 0 0 1 -3.45,-3.45 3.45,3.45 0 0 1 3.45,-3.450001 3.45,3.45 0 0 1 3.45,3.450001 z M 84.973803,46.759468 a 3.45,3.45 0 0 1 -3.45,3.45 3.45,3.45 0 0 1 -3.45,-3.45 3.45,3.45 0 0 1 3.45,-3.45 3.45,3.45 0 0 1 3.45,3.45 z M 73.907451,58.523911 A 10.277939,10.277939 0 0 1 63.629512,68.801849 10.277939,10.277939 0 0 1 53.351573,58.523911 10.277939,10.277939 0 0 1 63.629512,48.245972 10.277939,10.277939 0 0 1 73.907451,58.523911 Z M 50.946149,84.50538 53.005252,84.278386 c 7.979695,-0.879678 16.722332,-4.150948 24.14112,-9.032987 7.654672,-5.037267 13.075159,-10.557046 16.075922,-16.370399 1.559107,-3.020446 2.182599,-5.049611 2.316441,-7.538906 0.18173,-3.379939 -0.549812,-5.396613 -2.763534,-7.618356 C 90.438589,41.372661 87.13931,40.103633 82.473787,39.755423 64.156302,38.3883 39.338064,53.591029 34.362572,69.226562 c -0.709278,2.228913 -0.884394,5.265089 -0.400366,6.941607 0.674341,2.335708 2.051901,4.315838 3.813514,5.481618 l 0.752569,0.498027 -1.16905,3.325361 -0.100086,-0.03306 C 35.032902,84.70481 32.25221,81.40463 31.345872,79.508134 30.2719,77.260866 29.898713,75.095516 29.893441,72.811369 c -0.0041,-1.763989 0.427631,-3.211993 1.097789,-5.176863 1.658571,-4.86285 4.532411,-9.210534 9.086871,-13.747056 9.072579,-9.036848 22.677864,-15.863685 34.652374,-17.38781 3.15305,-0.401323 9.199251,-0.295586 11.388567,0.199165 5.693558,1.286654 9.509696,3.896362 11.436131,7.820723 1.092621,2.225788 1.356838,3.464984 1.356838,6.363647 0,2.765122 -0.430294,4.899597 -1.55538,7.715473 -2.777533,6.951637 -9.755877,14.426058 -18.697654,20.026832 -7.679573,4.81018 -16.248534,8.022725 -24.141735,9.050852 -1.237702,0.274202 -3.691106,0.325416 -3.691106,0.325416 z m 0.407247,-5.987745 c -2.79444,-0.552816 -4.931626,-1.635279 -6.435282,-3.259407 -2.730173,-2.948913 -3.152553,-6.678116 -1.268873,-11.202917 0.68487,-1.645132 2.452263,-4.437593 3.587742,-5.668592 l 0.591909,-0.706729 -0.01056,0.706729 -0.0461,5.196309 c 0,0 -0.204302,0.536921 -0.917631,2.225566 -1.271274,3.009456 -1.00373,5.388747 0.810214,7.205311 1.688116,1.690553 4.294826,2.379701 8.353354,2.208412 3.991406,-0.168455 7.534735,-1.127193 11.763603,-3.182941 3.815452,-1.854777 6.661767,-3.889427 9.645852,-6.895207 3.934735,-3.963341 5.489254,-6.85217 5.496395,-10.214189 l 0.0032,-1.503614 0.638244,-0.21064 c 0.351035,-0.115851 1.042113,-0.466765 1.53573,-0.779807 l 0.96934,-0.583539 0.179646,0.735292 c 0.26602,1.088824 0.306193,4.193167 -0.112628,5.603734 -1.48175,4.990462 -5.551545,9.914975 -11.496306,13.910703 -4.309328,2.896482 -9.489232,5.136895 -13.986385,6.12099 -3.883105,0.849725 -7.355287,0.679539 -9.301449,0.294536 z" /><path
     id="circle47"
     style="opacity:0.839429;fill:#d2d2d2;stroke-width:0.329484;fill-opacity:1"
     d="m 22.540377,67.008652 a 1.5,1.5 0 0 1 -1.5,1.5 1.5,1.5 0 0 1 -1.5,-1.5 1.5,1.5 0 0 1 1.5,-1.5 1.5,1.5 0 0 1 1.5,1.5 z m 19.340364,32.862106 a 1.5,1.5 0 0 1 -1.5,1.500002 1.5,1.5 0 0 1 -1.5,-1.500002 1.5,1.5 0 0 1 1.5,-1.5 1.5,1.5 0 0 1 1.5,1.5 z m 24.093746,-0.29026 a 1.5,1.5 0 0 1 -1.5,1.500002 1.5,1.5 0 0 1 -1.5,-1.500002 1.5,1.5 0 0 1 1.5,-1.5 1.5,1.5 0 0 1 1.5,1.5 z m 12.5625,5.410102 a 1.5,1.5 0 0 1 -1.5,1.5 1.5,1.5 0 0 1 -1.5,-1.5 1.5,1.5 0 0 1 1.5,-1.5 1.5,1.5 0 0 1 1.5,1.5 z m 5.199128,-15.904449 a 1.5,1.5 0 0 1 -1.5,1.5 1.5,1.5 0 0 1 -1.5,-1.5 1.5,1.5 0 0 1 1.5,-1.5 1.5,1.5 0 0 1 1.5,1.5 z M 102.2323,82.338272 a 1.5,1.5 0 0 1 -1.5,1.5 1.5,1.5 0 0 1 -1.5,-1.5 1.5,1.5 0 0 1 1.5,-1.5 1.5,1.5 0 0 1 1.5,1.5 z m 6.83594,13.002251 a 1.5,1.5 0 0 1 -1.5,1.5 1.5,1.5 0 0 1 -1.5,-1.5 1.5,1.5 0 0 1 1.5,-1.5 1.5,1.5 0 0 1 1.5,1.5 z M 103.4823,23.209644 a 1.5,1.5 0 0 1 -1.5,1.5 1.5,1.5 0 0 1 -1.5,-1.5 1.5,1.5 0 0 1 1.5,-1.5 1.5,1.5 0 0 1 1.5,1.5 z M 88.37822,17.40625 a 1.5,1.5 0 0 1 -1.5,1.5 1.5,1.5 0 0 1 -1.5,-1.5 1.5,1.5 0 0 1 1.5,-1.5 1.5,1.5 0 0 1 1.5,1.5 z M 82.310425,21.375 a 1.5,1.5 0 0 1 -1.5,1.5 1.5,1.5 0 0 1 -1.5,-1.5 1.5,1.5 0 0 1 1.5,-1.5 1.5,1.5 0 0 1 1.5,1.5 z m -60.37866,12.145885 a 1.5,1.5 0 0 1 -1.5,1.5 1.5,1.5 0 0 1 -1.5,-1.5 1.5,1.5 0 0 1 1.5,-1.5 1.5,1.5 0 0 1 1.5,1.5 z m 15.953554,5.224267 a 1.5,1.5 0 0 1 -1.5,1.5 1.5,1.5 0 0 1 -1.5,-1.5 1.5,1.5 0 0 1 1.5,-1.5 1.5,1.5 0 0 1 1.5,1.5 z M 61.452641,19.687744 a 1.5,1.5 0 0 1 -1.5,1.5 1.5,1.5 0 0 1 -1.5,-1.5 1.5,1.5 0 0 1 1.5,-1.5 1.5,1.5 0 0 1 1.5,1.5 z M 55.392093,18.79958 a 2.45,2.45 0 0 1 -2.45,2.45 2.45,2.45 0 0 1 -2.45,-2.45 2.45,2.45 0 0 1 2.45,-2.45 2.45,2.45 0 0 1 2.45,2.45 z m -4.872074,85.67443 a 2.45,2.45 0 0 1 -2.45,2.45 2.45,2.45 0 0 1 -2.45,-2.45 2.45,2.45 0 0 1 2.45,-2.45 2.45,2.45 0 0 1 2.45,2.45 z m 35.300815,-4.86964 a 2.45,2.45 0 0 1 -2.45,2.45 2.45,2.45 0 0 1 -2.45,-2.45 2.45,2.45 0 0 1 2.45,-2.45 2.45,2.45 0 0 1 2.45,2.45 z M 28.244191,39.925751 a 2.45,2.45 0 0 1 -2.45,2.45 2.45,2.45 0 0 1 -2.45,-2.45 2.45,2.45 0 0 1 2.45,-2.45 2.45,2.45 0 0 1 2.45,2.45 z" /></svg>
