<?xml version="1.0" encoding="UTF-8" standalone="no"?>
<svg
   viewBox="0 0 128 128.24545"
   version="1.1"
   id="svg745"
   width="128"
   height="128.24545"
   xml:space="preserve"
   xmlns:xlink="http://www.w3.org/1999/xlink"
   xmlns="http://www.w3.org/2000/svg"
   xmlns:svg="http://www.w3.org/2000/svg"><defs
     id="defs733"><linearGradient
       id="linearGradient153"><stop
         style="stop-color:#000000;stop-opacity:1;"
         offset="0"
         id="stop150" /><stop
         style="stop-color:#ffffff;stop-opacity:1;"
         offset="0.4121199"
         id="stop151" /><stop
         style="stop-color:#000000;stop-opacity:1;"
         offset="0.81004661"
         id="stop152" /><stop
         style="stop-color:#ffffff;stop-opacity:1;"
         offset="1"
         id="stop153" /></linearGradient><linearGradient
       xlink:href="#linearGradient153"
       id="linearGradient92"
       gradientUnits="userSpaceOnUse"
       gradientTransform="matrix(1.1111112,0,0,1.0925926,-62.73268,-37.035326)"
       x1="60.059406"
       y1="94.41584"
       x2="168.0594"
       y2="94.41584" /><clipPath
       clipPathUnits="userSpaceOnUse"
       id="clipPath123"><rect
         width="120"
         height="118"
         x="-140.37213"
         y="166.99709"
         fill="#ffffff"
         rx="60"
         id="rect124"
         style="stroke-width:1.06246" /></clipPath><clipPath
       clipPathUnits="userSpaceOnUse"
       id="clipPath125"><rect
         width="120"
         height="118"
         x="-140.37213"
         y="166.99709"
         fill="#ffffff"
         rx="60"
         id="rect126"
         style="stroke-width:1.06246" /></clipPath><clipPath
       clipPathUnits="userSpaceOnUse"
       id="clipPath127"><rect
         width="120"
         height="118"
         x="-140.37213"
         y="166.99709"
         fill="#ffffff"
         rx="60"
         id="rect128"
         style="stroke-width:1.06246" /></clipPath><clipPath
       clipPathUnits="userSpaceOnUse"
       id="clipPath129"><rect
         width="120"
         height="118"
         x="-140.37213"
         y="166.99709"
         fill="#ffffff"
         rx="60"
         id="rect130"
         style="stroke-width:1.06246" /></clipPath><clipPath
       clipPathUnits="userSpaceOnUse"
       id="clipPath131"><rect
         width="120"
         height="118"
         x="-140.37213"
         y="166.99709"
         fill="#ffffff"
         rx="60"
         id="rect132"
         style="stroke-width:1.06246" /></clipPath><clipPath
       clipPathUnits="userSpaceOnUse"
       id="clipPath133"><rect
         width="120"
         height="118"
         x="-140.37213"
         y="166.99709"
         fill="#ffffff"
         rx="60"
         id="rect134"
         style="stroke-width:1.06246" /></clipPath><clipPath
       clipPathUnits="userSpaceOnUse"
       id="clipPath135"><rect
         width="120"
         height="118"
         x="-140.37213"
         y="166.99709"
         fill="#ffffff"
         rx="60"
         id="rect136"
         style="stroke-width:1.06246" /></clipPath><clipPath
       clipPathUnits="userSpaceOnUse"
       id="clipPath137"><rect
         width="120"
         height="118"
         x="-140.37213"
         y="166.99709"
         fill="#ffffff"
         rx="60"
         id="rect138"
         style="stroke-width:1.06246" /></clipPath><clipPath
       clipPathUnits="userSpaceOnUse"
       id="clipPath139"><rect
         width="120"
         height="118"
         x="-140.37213"
         y="166.99709"
         fill="#ffffff"
         rx="60"
         id="rect140"
         style="stroke-width:1.06246" /></clipPath><clipPath
       clipPathUnits="userSpaceOnUse"
       id="clipPath140"><rect
         width="120"
         height="118"
         x="-140.37213"
         y="166.99709"
         fill="#ffffff"
         rx="60"
         id="rect141"
         style="stroke-width:1.06246" /></clipPath><clipPath
       clipPathUnits="userSpaceOnUse"
       id="clipPath141"><rect
         width="120"
         height="118"
         x="-140.37213"
         y="166.99709"
         fill="#ffffff"
         rx="60"
         id="rect142"
         style="stroke-width:1.06246" /></clipPath><clipPath
       clipPathUnits="userSpaceOnUse"
       id="clipPath143"><rect
         width="120"
         height="118"
         x="-140.37213"
         y="166.99709"
         fill="#ffffff"
         rx="60"
         id="rect144"
         style="stroke-width:1.06246" /></clipPath><clipPath
       clipPathUnits="userSpaceOnUse"
       id="clipPath144"><rect
         width="120"
         height="118"
         x="-140.37213"
         y="166.99709"
         fill="#ffffff"
         rx="60"
         id="rect145"
         style="stroke-width:1.06246" /></clipPath><clipPath
       clipPathUnits="userSpaceOnUse"
       id="clipPath145"><rect
         width="120"
         height="118"
         x="-140.37213"
         y="166.99709"
         fill="#ffffff"
         rx="60"
         id="rect146"
         style="stroke-width:1.06246" /></clipPath><clipPath
       clipPathUnits="userSpaceOnUse"
       id="clipPath146"><rect
         width="120"
         height="118"
         x="-140.37213"
         y="166.99709"
         fill="#ffffff"
         rx="60"
         id="rect147"
         style="stroke-width:1.06246" /></clipPath><clipPath
       clipPathUnits="userSpaceOnUse"
       id="clipPath153"><rect
         width="120"
         height="118"
         x="3.7640898"
         y="146.68295"
         fill="#ffffff"
         rx="60"
         id="rect154"
         style="stroke-width:1.06246" /></clipPath><clipPath
       clipPathUnits="userSpaceOnUse"
       id="clipPath155"><rect
         width="120"
         height="118"
         x="3.7640898"
         y="146.68295"
         fill="#ffffff"
         rx="60"
         id="rect156"
         style="stroke-width:1.06246" /></clipPath><clipPath
       clipPathUnits="userSpaceOnUse"
       id="clipPath157"><rect
         width="120"
         height="118"
         x="3.7640898"
         y="146.68295"
         fill="#ffffff"
         rx="60"
         id="rect158"
         style="stroke-width:1.06246" /></clipPath><clipPath
       clipPathUnits="userSpaceOnUse"
       id="clipPath161"><rect
         width="120"
         height="118"
         x="3.7640898"
         y="146.68295"
         fill="#ffffff"
         rx="60"
         id="rect162"
         style="stroke-width:1.06246" /></clipPath><clipPath
       clipPathUnits="userSpaceOnUse"
       id="clipPath163"><rect
         width="120"
         height="118"
         x="3.7640898"
         y="146.68295"
         fill="#ffffff"
         rx="60"
         id="rect164"
         style="stroke-width:1.06246" /></clipPath><clipPath
       clipPathUnits="userSpaceOnUse"
       id="clipPath165"><rect
         width="120"
         height="118"
         x="3.7640898"
         y="146.68295"
         fill="#ffffff"
         rx="60"
         id="rect166"
         style="stroke-width:1.06246" /></clipPath><clipPath
       clipPathUnits="userSpaceOnUse"
       id="clipPath167"><rect
         width="120"
         height="118"
         x="3.7640898"
         y="146.68295"
         fill="#ffffff"
         rx="60"
         id="rect168"
         style="stroke-width:1.06246" /></clipPath><clipPath
       clipPathUnits="userSpaceOnUse"
       id="clipPath169"><rect
         width="120"
         height="118"
         x="3.7640898"
         y="146.68295"
         fill="#ffffff"
         rx="60"
         id="rect170"
         style="stroke-width:1.06246" /></clipPath><clipPath
       clipPathUnits="userSpaceOnUse"
       id="clipPath170"><rect
         width="120"
         height="118"
         x="3.7640898"
         y="146.68295"
         fill="#ffffff"
         rx="60"
         id="rect171"
         style="stroke-width:1.06246" /></clipPath><clipPath
       clipPathUnits="userSpaceOnUse"
       id="clipPath171"><rect
         width="120"
         height="118"
         x="3.7640898"
         y="146.68295"
         fill="#ffffff"
         rx="60"
         id="rect172"
         style="stroke-width:1.06246" /></clipPath><clipPath
       clipPathUnits="userSpaceOnUse"
       id="clipPath173"><rect
         width="120"
         height="118"
         x="3.7640898"
         y="146.68295"
         fill="#ffffff"
         rx="60"
         id="rect174"
         style="stroke-width:1.06246" /></clipPath><clipPath
       clipPathUnits="userSpaceOnUse"
       id="clipPath174"><rect
         width="120"
         height="118"
         x="3.7640898"
         y="146.68295"
         fill="#ffffff"
         rx="60"
         id="rect175"
         style="stroke-width:1.06246" /></clipPath><clipPath
       clipPathUnits="userSpaceOnUse"
       id="clipPath175"><rect
         width="120"
         height="118"
         x="3.7640898"
         y="146.68295"
         fill="#ffffff"
         rx="60"
         id="rect176"
         style="stroke-width:1.06246" /></clipPath><clipPath
       clipPathUnits="userSpaceOnUse"
       id="clipPath176"><rect
         width="120"
         height="118"
         x="3.7640898"
         y="146.68295"
         fill="#ffffff"
         rx="60"
         id="rect177"
         style="stroke-width:1.06246" /></clipPath></defs><g
     id="g30"
     transform="translate(75.267251,-139.61936)"><rect
       width="120"
       height="118"
       x="-48.73275"
       y="-264.7421"
       fill="#ffffff"
       rx="60"
       id="rect60"
       style="stroke-width:1.06246"
       transform="scale(-1)" /><rect
       width="120"
       height="118"
       x="-48.73275"
       y="-264.7421"
       fill="#cef9dd"
       rx="60"
       id="rect61"
       style="fill:#4db371;fill-opacity:1;stroke-width:1.06246"
       transform="scale(-1)" /><path
       fill="#d9d9d9"
       d="m 30.549805,143.52224 -17.142858,-16.85714 -17.1428574,16.85714 8.5714288,8.42857 8.5714286,-8.42857 8.571429,8.42857 z"
       id="path61"
       style="stroke-width:1.06246"
       clip-path="url(#clipPath176)"
       transform="rotate(180,26.248419,205.71252)" /><path
       stroke="#81d49f"
       stroke-width="2.12492"
       d="m 29.034805,162.48653 -7.056429,6.93882 -8.571429,-8.42857 -8.5714286,8.42857 -7.0564288,-6.93882 15.6278574,-15.3674 z"
       id="path62"
       clip-path="url(#clipPath175)"
       style="stroke:#367e50;stroke-opacity:1"
       transform="rotate(180,26.248419,205.71252)" /><path
       id="path63"
       clip-path="url(#clipPath174)"
       style="fill:#367e50;fill-opacity:1;stroke-width:1.06246"
       d="m 87.334729,283.12035 3.214843,-3.16015 -3.214843,-3.16211 9.644531,-9.48047 -9.644531,-9.48242 9.644531,-9.48243 -9.644531,-9.48242 9.644531,-9.48242 -9.644531,-9.48242 9.644531,-9.48242 -9.644531,-9.48047 9.644531,-9.48242 -9.644531,-9.48243 9.644531,-9.48242 -9.644531,-9.48242 9.644531,-9.48242 -9.644531,-9.48242 9.644531,-9.48047 -6.429688,-6.32227 -3.214843,3.16016 3.214843,3.16211 -9.642578,9.48047 9.642578,9.48242 -9.642578,9.48242 9.642578,9.48242 -9.642578,9.48242 9.642578,9.48243 -9.642578,9.48242 9.642578,9.48047 -9.642578,9.48242 9.642578,9.48242 -9.642578,9.48242 9.642578,9.48242 -9.642578,9.48243 9.642578,9.48242 -9.642578,9.48047 z m -47.142579,0 6.429688,-6.32226 -9.642578,-9.48047 9.642578,-9.48242 -9.642578,-9.48243 9.642578,-9.48242 -9.642578,-9.48242 9.642578,-9.48242 -9.642578,-9.48242 9.642578,-9.48047 -9.642578,-9.48242 9.642578,-9.48243 -9.642578,-9.48242 9.642578,-9.48242 -9.642578,-9.48242 9.642578,-9.48242 -9.642578,-9.48047 3.21289,-3.16211 -3.21289,-3.16016 -6.429688,6.32227 9.642578,9.48047 -9.642578,9.48242 9.642578,9.48242 -9.642578,9.48242 9.642578,9.48242 -9.642578,9.48243 9.642578,9.48242 -9.642578,9.48047 9.642578,9.48242 -9.642578,9.48242 9.642578,9.48242 -9.642578,9.48242 9.642578,9.48243 -9.642578,9.48242 9.642578,9.48047 -3.21289,3.16211 z m 32.142579,-1.05273 8.572265,-8.42969 -17.142578,-16.85742 -17.142578,16.85742 8.570312,8.42969 8.572266,-8.42969 z m 41.787111,-26.86719 17.14258,-16.85742 -8.57227,-8.42774 -8.57031,8.42774 -8.57227,-8.42774 -8.57031,8.42774 z m -41.787111,-1.58008 8.572265,-8.42773 -17.142578,-16.85742 -17.142578,16.85742 8.570312,8.42773 8.572266,-8.42773 z m -50.355469,-25.8125 8.570312,-8.42773 -17.142578,-16.85742 -17.1425779,16.85742 8.5703125,8.42773 8.5722654,-8.42773 z m 50.355469,-2.63476 8.572265,-8.42774 -17.142578,-16.85742 -17.142578,16.85742 8.570312,8.42774 8.572266,-8.42774 z m 41.787111,-7.90039 17.14258,-16.85743 -8.57227,-8.42968 -8.57031,8.42968 -8.57227,-8.42968 -8.57031,8.42968 z m -41.787111,-20.54493 8.572265,-8.42968 -17.142578,-16.85547 -17.142578,16.85547 8.570312,8.42968 8.572266,-8.42968 z m -50.355469,-6.84765 8.570312,-8.42969 -17.142578,-16.85742 -17.1425779,16.85742 8.5703125,8.42969 8.5722654,-8.42969 z m 92.14258,-10.53711 17.14258,-16.85742 -8.57227,-8.42774 -8.57031,8.42774 -8.57227,-8.42774 -8.57031,8.42774 z m -41.787111,-11.0625 8.572265,-8.42774 -17.142578,-16.85742 -17.142578,16.85742 8.570312,8.42774 8.572266,-8.42774 z"
       transform="rotate(180,26.248419,205.71252)" /><path
       stroke="#81d49f"
       stroke-width="2.12492"
       d="m 29.034805,200.4151 -7.056429,6.93882 -8.571429,-8.42857 -8.5714286,8.42857 -7.0564288,-6.93882 15.6278574,-15.3674 z"
       id="path64"
       clip-path="url(#clipPath173)"
       style="stroke:#367e50;stroke-opacity:1"
       transform="rotate(180,26.248419,205.71252)" /><path
       stroke="#81d49f"
       stroke-width="2.12492"
       d="m 29.034805,238.34367 -7.056429,6.93882 -8.571429,-8.42857 -8.5714286,8.42857 -7.0564288,-6.93882 15.6278574,-15.3674 z"
       id="path66"
       clip-path="url(#clipPath171)"
       style="stroke:#367e50;stroke-opacity:1"
       transform="rotate(180,26.248419,205.71252)" /><path
       fill="#81d49f"
       d="m 30.549805,257.30795 -17.142858,-16.85714 -17.1428574,16.85714 8.5714288,8.42857 8.5714286,-8.42857 8.571429,8.42857 z"
       id="path67"
       style="stroke-width:1.06246"
       clip-path="url(#clipPath170)"
       transform="rotate(180,26.248419,205.71252)" /><path
       fill="#d9d9d9"
       d="m 30.549805,276.27224 -17.142858,-16.85714 -17.1428574,16.85714 8.5714288,8.42857 8.5714286,-8.42857 8.571429,8.42857 z"
       id="path68"
       style="stroke-width:1.06246"
       clip-path="url(#clipPath169)"
       transform="rotate(180,26.248419,205.71252)" /><path
       fill="#cef9dd"
       stroke="#81d49f"
       stroke-width="2.12492"
       d="m 79.391949,250.98652 -7.056429,-6.93882 -8.571429,8.42857 -8.571428,-8.42857 -7.056429,6.93882 15.627857,15.3674 z"
       id="path70"
       clip-path="url(#clipPath167)"
       style="fill:#4db371;fill-opacity:1;stroke:#367e50;stroke-opacity:1"
       transform="rotate(180,26.248419,205.71252)" /><path
       fill="#cef9dd"
       stroke="#81d49f"
       stroke-width="2.12492"
       d="m 79.391949,222.5401 -7.056429,-6.93882 -8.571429,8.42857 -8.571428,-8.42857 -7.056429,6.93882 15.627857,15.36739 z"
       id="path72"
       clip-path="url(#clipPath165)"
       style="fill:#4db371;fill-opacity:1;stroke:#367e50;stroke-opacity:1"
       transform="rotate(180,26.248419,205.71252)" /><path
       fill="#cef9dd"
       stroke="#81d49f"
       stroke-width="2.12492"
       d="m 79.391949,194.09367 -7.056429,-6.93882 -8.571429,8.42857 -8.571428,-8.42857 -7.056429,6.93882 15.627857,15.36739 z"
       id="path74"
       clip-path="url(#clipPath163)"
       style="fill:#4db371;fill-opacity:1;stroke:#367e50;stroke-opacity:1"
       transform="rotate(180,26.248419,205.71252)" /><path
       fill="#cef9dd"
       stroke="#81d49f"
       stroke-width="2.12492"
       d="m 79.391949,165.64724 -7.056429,-6.93882 -8.571429,8.42857 -8.571428,-8.42857 -7.056429,6.93882 15.627857,15.36739 z"
       id="path76"
       clip-path="url(#clipPath161)"
       style="fill:#4db371;fill-opacity:1;stroke:#367e50;stroke-opacity:1"
       transform="rotate(180,26.248419,205.71252)" /><path
       stroke="#81d49f"
       stroke-width="2.12492"
       d="m 129.74909,219.37938 -7.05643,-6.93882 -8.57142,8.42857 -8.57143,-8.42857 -7.056432,6.93882 15.627862,15.36739 z"
       id="path80"
       clip-path="url(#clipPath157)"
       style="stroke:#367e50;stroke-opacity:1"
       transform="rotate(180,26.248419,205.71252)" /><path
       stroke="#81d49f"
       stroke-width="2.12492"
       d="m 129.74909,181.45081 -7.05643,-6.93882 -8.57142,8.42857 -8.57143,-8.42857 -7.056432,6.93882 15.627862,15.36739 z"
       id="path82"
       clip-path="url(#clipPath155)"
       style="stroke:#367e50;stroke-opacity:1"
       transform="rotate(180,26.248419,205.71252)" /><path
       fill="#d9d9d9"
       d="m 131.26409,143.52224 -17.14285,16.85714 -17.142862,-16.85714 8.571432,-8.42857 8.57143,8.42857 8.57142,-8.42857 z"
       id="path84"
       style="stroke-width:1.06246"
       clip-path="url(#clipPath153)"
       transform="rotate(180,26.248419,205.71252)" /></g><path
     d="M 123.99999,66.122727 C 123.99999,98.707167 97.13671,125.12273 64,125.12273 30.86328,125.12273 4.0000102,98.707167 4.0000102,66.122727 4.0000102,33.538287 30.86329,7.1227273 64,7.1227273 c 33.13671,0 59.99999,26.4155597 59.99999,58.9999997 z m 0,0"
     fill="#1c71d8"
     id="path92"
     style="opacity:0.3;fill:url(#linearGradient92);fill-opacity:1;stroke-width:0.991631" /><g
     id="g29"><rect
       width="120"
       height="118"
       x="3.9999986"
       y="3.1227255"
       fill="#cef9dd"
       rx="60"
       id="rect93"
       style="stroke-width:1.06246" /><path
       fill="#d9d9d9"
       d="m -113.58642,163.83637 -17.14285,-16.85714 -17.14286,16.85714 8.57143,8.42857 8.57143,-8.42857 8.57143,8.42857 z"
       id="path93"
       style="stroke-width:1.06246"
       clip-path="url(#clipPath146)"
       transform="translate(144.37213,-163.87436)" /><path
       stroke="#81d49f"
       stroke-width="2.12492"
       d="m -115.10142,182.80066 -7.05642,6.93882 -8.57143,-8.42857 -8.57143,8.42857 -7.05643,-6.93882 15.62786,-15.3674 z"
       id="path94"
       clip-path="url(#clipPath145)"
       transform="translate(144.37213,-163.87436)" /><path
       id="path95"
       clip-path="url(#clipPath144)"
       style="stroke-width:1.06246;fill:#81d49f;fill-opacity:1"
       d="M -107.15729 148.55991 L -113.58697 154.88022 L -103.9444 164.36264 L -113.58697 173.84506 L -103.9444 183.32748 L -113.58697 192.80991 L -103.9444 202.29233 L -113.58697 211.77475 L -103.9444 221.25522 L -113.58697 230.73764 L -103.9444 240.22006 L -113.58697 249.70248 L -103.9444 259.18491 L -113.58697 268.66733 L -103.9444 278.14975 L -113.58697 287.63022 L -103.9444 297.11264 L -107.15729 300.27475 L -103.9444 303.43491 L -97.514708 297.11264 L -107.15729 287.63022 L -97.514708 278.14975 L -107.15729 268.66733 L -97.514708 259.18491 L -107.15729 249.70248 L -97.514708 240.22006 L -107.15729 230.73764 L -97.514708 221.25522 L -107.15729 211.77475 L -97.514708 202.29233 L -107.15729 192.80991 L -97.514708 183.32748 L -107.15729 173.84506 L -97.514708 164.36264 L -107.15729 154.88022 L -103.9444 151.72006 L -107.15729 148.55991 z M -53.586974 148.55991 L -56.799864 151.72006 L -53.586974 154.88022 L -63.229552 164.36264 L -53.586974 173.84506 L -63.229552 183.32748 L -53.586974 192.80991 L -63.229552 202.29233 L -53.586974 211.77475 L -63.229552 221.25522 L -53.586974 230.73764 L -63.229552 240.22006 L -53.586974 249.70248 L -63.229552 259.18491 L -53.586974 268.66733 L -63.229552 278.14975 L -53.586974 287.63022 L -63.229552 297.11264 L -56.799864 303.43491 L -53.586974 300.27475 L -56.799864 297.11264 L -47.157286 287.63022 L -56.799864 278.14975 L -47.157286 268.66733 L -56.799864 259.18491 L -47.157286 249.70248 L -56.799864 240.22006 L -47.157286 230.73764 L -56.799864 221.25522 L -47.157286 211.77475 L -56.799864 202.29233 L -47.157286 192.80991 L -56.799864 183.32748 L -47.157286 173.84506 L -56.799864 164.36264 L -47.157286 154.88022 L -53.586974 148.55991 z M -80.37213 163.30991 L -97.514708 180.16733 L -88.944396 188.59506 L -80.37213 180.16733 L -71.799864 188.59506 L -63.229552 180.16733 L -80.37213 163.30991 z M -38.586974 174.37241 L -47.157286 182.80014 L -30.014708 199.65756 L -12.87213 182.80014 L -21.444396 174.37241 L -30.014708 182.80014 L -38.586974 174.37241 z M -130.72955 184.90756 L -147.87213 201.76498 L -139.29986 210.19272 L -130.72955 201.76498 L -122.15729 210.19272 L -113.58697 201.76498 L -130.72955 184.90756 z M -80.37213 191.75522 L -97.514708 208.61264 L -88.944396 217.04233 L -80.37213 208.61264 L -71.799864 217.04233 L -63.229552 208.61264 L -80.37213 191.75522 z M -38.586974 212.30014 L -47.157286 220.72983 L -30.014708 237.58725 L -12.87213 220.72983 L -21.444396 212.30014 L -30.014708 220.72983 L -38.586974 212.30014 z M -80.37213 220.20248 L -97.514708 237.05991 L -88.944396 245.48764 L -80.37213 237.05991 L -71.799864 245.48764 L -63.229552 237.05991 L -80.37213 220.20248 z M -130.72955 222.83725 L -147.87213 239.69272 L -139.29986 248.12241 L -130.72955 239.69272 L -122.15729 248.12241 L -113.58697 239.69272 L -130.72955 222.83725 z M -80.37213 248.64975 L -97.514708 265.50522 L -88.944396 273.93491 L -80.37213 265.50522 L -71.799864 273.93491 L -63.229552 265.50522 L -80.37213 248.64975 z M -38.586974 250.22983 L -47.157286 258.65756 L -30.014708 275.51499 L -12.87213 258.65756 L -21.444396 250.22983 L -30.014708 258.65756 L -38.586974 250.22983 z M -80.37213 277.09506 L -97.514708 293.95249 L -88.944396 302.38022 L -80.37213 293.95249 L -71.799864 302.38022 L -63.229552 293.95249 L -80.37213 277.09506 z "
       transform="translate(144.37213,-163.87436)" /><path
       stroke="#81d49f"
       stroke-width="2.12492"
       d="m -115.10142,220.72923 -7.05642,6.93882 -8.57143,-8.42857 -8.57143,8.42857 -7.05643,-6.93882 15.62786,-15.3674 z"
       id="path96"
       clip-path="url(#clipPath143)"
       transform="translate(144.37213,-163.87436)" /><path
       stroke="#81d49f"
       stroke-width="2.12492"
       d="m -115.10142,258.6578 -7.05642,6.93882 -8.57143,-8.42857 -8.57143,8.42857 -7.05643,-6.93882 15.62786,-15.3674 z"
       id="path98"
       clip-path="url(#clipPath141)"
       transform="translate(144.37213,-163.87436)" /><path
       fill="#81d49f"
       d="m -113.58642,277.62208 -17.14285,-16.85714 -17.14286,16.85714 8.57143,8.42857 8.57143,-8.42857 8.57143,8.42857 z"
       id="path99"
       style="stroke-width:1.06246"
       clip-path="url(#clipPath140)"
       transform="translate(144.37213,-163.87436)" /><path
       fill="#d9d9d9"
       d="m -113.58642,296.58637 -17.14285,-16.85714 -17.14286,16.85714 8.57143,8.42857 8.57143,-8.42857 8.57143,8.42857 z"
       id="path100"
       style="stroke-width:1.06246"
       clip-path="url(#clipPath139)"
       transform="translate(144.37213,-163.87436)" /><path
       fill="#cef9dd"
       stroke="#81d49f"
       stroke-width="2.12492"
       d="m -64.744272,271.30065 -7.056429,-6.93882 -8.571429,8.42857 -8.571428,-8.42857 -7.056429,6.93882 15.627857,15.3674 z"
       id="path102"
       clip-path="url(#clipPath137)"
       transform="translate(144.37213,-163.87436)" /><path
       fill="#cef9dd"
       stroke="#81d49f"
       stroke-width="2.12492"
       d="m -64.744272,242.85423 -7.056429,-6.93882 -8.571429,8.42857 -8.571428,-8.42857 -7.056429,6.93882 15.627857,15.36739 z"
       id="path104"
       clip-path="url(#clipPath135)"
       transform="translate(144.37213,-163.87436)" /><path
       fill="#cef9dd"
       stroke="#81d49f"
       stroke-width="2.12492"
       d="m -64.744272,214.4078 -7.056429,-6.93882 -8.571429,8.42857 -8.571428,-8.42857 -7.056429,6.93882 15.627857,15.36739 z"
       id="path106"
       clip-path="url(#clipPath133)"
       transform="translate(144.37213,-163.87436)" /><path
       fill="#cef9dd"
       stroke="#81d49f"
       stroke-width="2.12492"
       d="m -64.744272,185.96137 -7.056429,-6.93882 -8.571429,8.42857 -8.571428,-8.42857 -7.056429,6.93882 15.627857,15.36739 z"
       id="path108"
       clip-path="url(#clipPath131)"
       transform="translate(144.37213,-163.87436)" /><path
       stroke="#81d49f"
       stroke-width="2.12492"
       d="m -14.387128,277.62208 -7.056429,-6.93882 -8.571428,8.42857 -8.571429,-8.42857 -7.056429,6.93882 15.627858,15.3674 z"
       id="path110"
       clip-path="url(#clipPath129)"
       transform="translate(144.37213,-163.87436)" /><path
       stroke="#81d49f"
       stroke-width="2.12492"
       d="m -14.387128,239.69351 -7.056429,-6.93882 -8.571428,8.42857 -8.571429,-8.42857 -7.056429,6.93882 15.627858,15.36739 z"
       id="path112"
       clip-path="url(#clipPath127)"
       transform="translate(144.37213,-163.87436)" /><path
       stroke="#81d49f"
       stroke-width="2.12492"
       d="m -14.387128,201.76494 -7.056429,-6.93882 -8.571428,8.42857 -8.571429,-8.42857 -7.056429,6.93882 15.627858,15.36739 z"
       id="path114"
       clip-path="url(#clipPath125)"
       transform="translate(144.37213,-163.87436)" /><path
       fill="#d9d9d9"
       d="m -12.872128,163.83637 -17.142857,16.85714 -17.142858,-16.85714 8.571429,-8.42857 8.571429,8.42857 8.571428,-8.42857 z"
       id="path116"
       style="stroke-width:1.06246"
       clip-path="url(#clipPath123)"
       transform="translate(144.37213,-163.87436)" /></g><g
     id="g28"
     transform="translate(-6.2390708e-5,-0.53790609)"><path
       id="path147"
       d="m 68.544005,26.5983 c -9.08469,0.38334 -17.558226,11.08373 -19.544922,15.47851 -5.713933,12.64285 1.428616,22.007 8.929688,22.125 8.929286,0.14012 15.714765,-10.88499 3.572266,-15.45117 2.856428,4.91702 1.099364,8.42773 -2.857422,8.42773 -7.856787,0 -7.857623,-17.20703 6.427734,-17.20703 16.428214,0 16.427734,19.20666 8.927734,27.04102 -5.713929,5.97059 -14.640747,9.12963 -25.71289,2.10547 C 38.23549,62.74188 35.4008,46.72702 39.24127,36.694 c -6.11408,6.27596 -9.52728,14.63123 -9.52734,23.32226 -1.6e-4,5.87157 1.5591,11.64138 4.52343,16.73829 L 29.9776,92.39126 c -0.0555,0.20357 -0.075,0.60026 -0.075,0.60026 l 0.002,4.05726 c 0,0 1.52902,-1.76805 2.6979,-2.07548 l 16.835936,-4.43555 c 4.556479,2.10179 9.527652,3.19138 14.560547,3.19141 18.935472,7.6e-4 34.286331,-15.09302 34.287109,-33.7129 C 98.286613,43.12279 85.572189,28.83702 68.543905,26.5983 Z m -9.076172,0.004 c -0.06448,0.01 -0.128934,0.0194 -0.193359,0.0293 0.0648,-0.009 0.12844,-0.0208 0.193359,-0.0293 z m -4.46289,0.88867 c -0.06646,0.0167 -0.132865,0.0337 -0.19922,0.0508 0.06602,-0.0181 0.133041,-0.0331 0.19922,-0.0508 z m -8.525391,3.54883 c -0.04434,0.0272 -0.08861,0.0546 -0.132813,0.082 0.04484,-0.0266 0.08784,-0.0557 0.132813,-0.082 z m -3.605472,2.44336 c -0.12303,0.0923 -0.24543,0.18539 -0.36718,0.2793 0.12039,-0.0955 0.24546,-0.18536 0.36718,-0.2793 z"
       style="fill:#1a6d37;fill-opacity:1;stroke-width:1.06246" /><path
       id="path117"
       d="m 68.544005,30.5983 c -9.08469,0.38334 -17.558226,11.08373 -19.544922,15.47851 -5.713933,12.64285 1.428616,22.007 8.929688,22.125 8.929286,0.14012 15.714765,-10.88499 3.572266,-15.45117 2.856428,4.91702 1.099364,8.42773 -2.857422,8.42773 -7.856787,0 -7.857623,-17.20703 6.427734,-17.20703 16.428214,0 16.427734,19.20666 8.927734,27.04102 -5.713929,5.97059 -14.640747,9.12963 -25.71289,2.10547 C 38.23549,66.74188 35.4008,50.72702 39.24127,40.694 a 34.285715,33.714285 0 0 0 -9.52734,23.32226 34.285715,33.714285 0 0 0 4.52343,16.73829 L 29.9776,96.39126 c -0.4275,1.56667 1.03071,3.00136 2.625,2.58204 L 49.438536,94.53775 A 34.285715,33.714285 0 0 0 63.999083,97.72916 34.285715,33.714285 0 0 0 98.286192,64.01626 34.285715,33.714285 0 0 0 68.544005,30.5983 Z m -9.076172,0.004 a 34.285715,33.714285 0 0 0 -0.193359,0.0293 c 0.0648,-0.009 0.12844,-0.0208 0.193359,-0.0293 z m -4.46289,0.88867 a 34.285715,33.714285 0 0 0 -0.19922,0.0508 c 0.06602,-0.0181 0.133041,-0.0331 0.19922,-0.0508 z m -8.525391,3.54883 a 34.285715,33.714285 0 0 0 -0.132813,0.082 c 0.04484,-0.0266 0.08784,-0.0557 0.132813,-0.082 z m -3.605472,2.44336 a 34.285715,33.714285 0 0 0 -0.36718,0.2793 c 0.12039,-0.0955 0.24546,-0.18536 0.36718,-0.2793 z"
       style="fill:#38a45e;fill-opacity:1;stroke-width:1.06246" /><path
       fill="#cef9dd"
       d="m 58.642857,57.17855 c 3.956786,0 5.713929,-3.51155 2.8575,-8.42857 12.1425,4.56618 5.357143,15.59286 -3.572143,15.45274 -7.501072,-0.118 -14.642144,-9.48215 -8.928215,-22.125 2.000358,-4.425 10.576072,-15.24308 19.731429,-15.4854 A 34.285715,33.714285 0 0 0 64,26.27414 c -9.723215,0 -18.501429,3.9804 -24.74143,10.37347 -3.86679,10.03 -1.03929,26.08537 9.026787,32.47107 11.072143,7.02416 20.000357,3.86345 25.714286,-2.10714 7.5,-7.83436 7.5,-27.04097 -8.928215,-27.04097 -14.285357,0 -14.285357,17.20798 -6.428571,17.20798"
       id="path123"
       style="stroke-width:1.06246" /></g></svg>
