<?xml version="1.0" encoding="UTF-8" standalone="no"?>
<!-- Created with Inkscape (http://www.inkscape.org/) -->

<svg
   version="1.0"
   width="128"
   height="128"
   id="svg4292"
   xml:space="preserve"
   xmlns:xlink="http://www.w3.org/1999/xlink"
   xmlns="http://www.w3.org/2000/svg"
   xmlns:svg="http://www.w3.org/2000/svg"><defs
     id="defs4294"><linearGradient
       id="linearGradient13"><stop
         style="stop-color:#000000;stop-opacity:1;"
         offset="0"
         id="stop13" /><stop
         style="stop-color:#ffffff;stop-opacity:1;"
         offset="0.0164615"
         id="stop15" /><stop
         style="stop-color:#000000;stop-opacity:1;"
         offset="0.07047822"
         id="stop16" /><stop
         style="stop-color:#000000;stop-opacity:1;"
         offset="0.92800665"
         id="stop17" /><stop
         style="stop-color:#ffffff;stop-opacity:1;"
         offset="0.9832781"
         id="stop18" /><stop
         style="stop-color:#000000;stop-opacity:1;"
         offset="1"
         id="stop14" /></linearGradient><linearGradient
       id="linearGradient12"
       gradientUnits="userSpaceOnUse"
       x1="110.25"
       y1="213.3"
       x2="496.14"
       y2="436.09"><stop
         offset="0"
         style="stop-color:#a95bc3;stop-opacity:1;"
         id="stop11" /><stop
         offset="1"
         style="stop-color:#00a3db;stop-opacity:1;"
         id="stop12" /></linearGradient><linearGradient
       id="linearGradient10"
       gradientUnits="userSpaceOnUse"
       x1="110.25"
       y1="213.3"
       x2="496.14"
       y2="436.09"><stop
         offset="0"
         style="stop-color:#aa5bc3;stop-opacity:1;"
         id="stop9" /><stop
         offset="1"
         style="stop-color:#00a3db;stop-opacity:1;"
         id="stop10" /></linearGradient><linearGradient
       id="linear-gradient"
       gradientUnits="userSpaceOnUse"
       x1="110.25"
       y1="213.3"
       x2="496.14"
       y2="436.09"><stop
         offset="0"
         style="stop-color:#AA5CC3"
         id="stop1-3" /><stop
         offset="1"
         style="stop-color:#00A4DC"
         id="stop2-6" /></linearGradient><linearGradient
       xlink:href="#linear-gradient"
       id="linearGradient5"
       gradientUnits="userSpaceOnUse"
       x1="110.25"
       y1="213.3"
       x2="496.14"
       y2="436.09"
       gradientTransform="matrix(0.21488607,0,0,0.21488607,8.995,6.9931514)" /><linearGradient
       xlink:href="#linear-gradient"
       id="linearGradient6"
       gradientUnits="userSpaceOnUse"
       x1="110.25"
       y1="213.3"
       x2="496.14"
       y2="436.09"
       gradientTransform="matrix(0.21488607,0,0,0.21488607,8.995,6.9931514)" /><linearGradient
       xlink:href="#linearGradient10"
       id="linearGradient7"
       gradientUnits="userSpaceOnUse"
       gradientTransform="matrix(0.21488607,0,0,0.21488607,8.995,10.993151)"
       x1="110.25"
       y1="213.3"
       x2="496.14"
       y2="436.09" /><linearGradient
       xlink:href="#linearGradient12"
       id="linearGradient11"
       gradientUnits="userSpaceOnUse"
       gradientTransform="matrix(0.21488607,0,0,0.21488607,8.995,10.993151)"
       x1="110.25"
       y1="213.3"
       x2="496.14"
       y2="436.09" /><linearGradient
       xlink:href="#linearGradient13"
       id="linearGradient14"
       x1="-160.35874"
       y1="65.999997"
       x2="-60.358264"
       y2="65.999997"
       gradientUnits="userSpaceOnUse"
       gradientTransform="translate(174.3585)" /><linearGradient
       xlink:href="#linearGradient13"
       id="linearGradient26"
       x1="-126.94417"
       y1="70.903397"
       x2="-93.758125"
       y2="70.903397"
       gradientUnits="userSpaceOnUse"
       gradientTransform="translate(174.3585)" /></defs><path
     id="path10"
     d="m 64.00583,15.999997 c -13.23698,0 -55.8274,77.230054 -49.33784,90.273633 6.48956,13.04359 92.25059,12.89317 98.67569,0 C 119.76877,93.380471 77.242816,15.999997 64.00583,15.999997 Z m 32.340357,78.970631 c -4.211767,8.445022 -60.404477,8.552462 -64.659217,0 -4.25475,-8.552466 23.65896,-59.158135 32.31886,-59.158135 8.65991,0 36.55212,50.691624 32.340357,59.158135 z"
     fill="url(#linear-gradient)"
     style="fill:url(#linearGradient11);stroke-width:0.214886" /><path
     id="path12"
     d="m 64.00583,15.999997 c -13.23698,0 -55.8274,77.230054 -49.33784,90.273633 6.48956,13.04359 92.25059,12.89317 98.67569,0 C 119.76877,93.380471 77.242816,15.999997 64.00583,15.999997 Z m 32.340357,78.970631 c -4.211767,8.445022 -60.404477,8.552462 -64.659217,0 -4.25475,-8.552466 23.65896,-59.158135 32.31886,-59.158135 8.65991,0 36.55212,50.691624 32.340357,59.158135 z"
     fill="url(#linear-gradient)"
     style="opacity:0.4;fill:url(#linearGradient14);fill-opacity:1;stroke-width:0.214886" /><path
     id="path6"
     d="m 64.00583,54.314183 c -3.82524,0 -15.20799,17.214768 -16.58531,25.058039 0,0 -0.0627,4.346863 0.211,4.89708 2.14887,4.319206 30.62126,4.276232 32.748632,0 0.263558,-0.529778 0.217055,-5.151289 0.217055,-5.151289 C 79.287604,71.358554 67.86525,54.314183 64.00583,54.314183 Z"
     fill="url(#linear-gradient)"
     style="fill:url(#linearGradient7);stroke-width:0.214886" /><path
     id="path25"
     d="m 64.00583,54.314183 c -3.82524,0 -15.20799,17.214768 -16.58531,25.058039 0,0 -0.0627,4.346863 0.211,4.89708 2.14887,4.319206 30.62126,4.276232 32.748632,0 0.263558,-0.529778 0.217055,-5.151289 0.217055,-5.151289 C 79.287604,71.358554 67.86525,54.314183 64.00583,54.314183 Z"
     fill="url(#linear-gradient)"
     style="opacity:0.4;fill:url(#linearGradient26);fill-opacity:1;stroke-width:0.214886" /><path
     id="inner-shape"
     d="m 64.00583,50.314183 c -4.38367,0 -18.52318,25.635909 -16.37431,29.955119 2.14886,4.31921 30.62126,4.276232 32.748632,0 C 82.507525,75.993069 68.411,50.314183 64.00583,50.314183 Z"
     fill="url(#linear-gradient)"
     style="fill:url(#linearGradient5);stroke-width:0.214886" /><path
     id="outer-shape"
     d="m 64.00583,11.999997 c -13.23698,0 -55.8274,77.230054 -49.33784,90.273633 6.48956,13.04359 92.25059,12.89317 98.67569,0 C 119.76877,89.380471 77.242816,11.999997 64.00583,11.999997 Z m 32.340357,78.970631 c -4.211767,8.445022 -60.404477,8.552465 -64.659217,0 -4.25475,-8.552466 23.65896,-59.158135 32.31886,-59.158135 8.65991,0 36.55212,50.691624 32.340357,59.158135 z"
     fill="url(#linear-gradient)"
     style="fill:url(#linearGradient6);stroke-width:0.214886" /></svg>
