<?xml version="1.0" encoding="UTF-8" standalone="no"?>
<svg
   height="128px"
   viewBox="0 0 128 128"
   width="128px"
   version="1.1"
   id="svg19"
   xmlns:xlink="http://www.w3.org/1999/xlink"
   xmlns="http://www.w3.org/2000/svg"
   xmlns:svg="http://www.w3.org/2000/svg">
  <defs
     id="defs19">
    <linearGradient
       id="linearGradient25">
      <stop
         style="stop-color:#262626;stop-opacity:1;"
         offset="0"
         id="stop20" />
      <stop
         style="stop-color:#b2b2b2;stop-opacity:1;"
         offset="0.41046613"
         id="stop21" />
      <stop
         style="stop-color:#262626;stop-opacity:1;"
         offset="0.80823582"
         id="stop22" />
      <stop
         style="stop-color:#808080;stop-opacity:1;"
         offset="1"
         id="stop24" />
    </linearGradient>
    <linearGradient
       id="e-3"
       x1="63.999802"
       y1="-3.3139999"
       x2="63.999802"
       y2="118.486"
       gradientUnits="userSpaceOnUse"
       gradientTransform="matrix(0.98522167,0,0,0.96880132,0.94601064,-0.00328285)">
      <stop
         offset="0"
         stop-color="#414141"
         id="stop1-6" />
      <stop
         offset=".196"
         stop-color="#3e3e3e"
         id="stop2-7" />
      <stop
         offset="1"
         stop-color="#3a3a3a"
         id="stop3" />
    </linearGradient>
    <radialGradient
       id="g"
       cx="302.80139"
       cy="-375.53009"
       fx="302.80139"
       fy="-375.53009"
       r="207.2339"
       gradientTransform="matrix(0.34866995,0,0,0.34285879,-45.358422,179.736)"
       gradientUnits="userSpaceOnUse">
      <stop
         offset=".6733"
         stop-color="#fcfcfc"
         stop-opacity="0"
         id="stop4" />
      <stop
         offset="1"
         stop-color="#fcfcfc"
         id="stop5" />
    </radialGradient>
    <radialGradient
       id="n"
       cx="316.8927"
       cy="-451.59729"
       fx="316.8927"
       fy="-451.59729"
       r="334.8364"
       gradientTransform="matrix(0.34866995,0,0,0.19627915,-45.358422,114.24319)"
       gradientUnits="userSpaceOnUse">
      <stop
         offset="0"
         stop-color="#2e6b26"
         id="stop10" />
      <stop
         offset="1"
         stop-color="#6ab536"
         id="stop11" />
    </radialGradient>
    <radialGradient
       id="p"
       cx="314.38751"
       cy="-453.36301"
       fx="314.38751"
       fy="-453.36301"
       r="65.392502"
       gradientTransform="matrix(0.34866995,0,0,0.34285879,-45.358422,179.736)"
       gradientUnits="userSpaceOnUse">
      <stop
         offset="0"
         stop-color="#6ab536"
         id="stop12" />
      <stop
         offset="1"
         stop-color="#2e6b26"
         id="stop13" />
    </radialGradient>
    <radialGradient
       id="u"
       cx="312.9946"
       cy="-473.01779"
       fx="312.9946"
       fy="-473.01779"
       r="223.5101"
       gradientTransform="matrix(0.34866995,0,0,0.34285879,-45.358422,179.736)"
       gradientUnits="userSpaceOnUse">
      <stop
         offset="0"
         stop-color="#f5f5f5"
         id="stop16" />
      <stop
         offset=".5481"
         stop-color="#f2f2f2"
         id="stop17" />
    </radialGradient>
    <linearGradient
       xlink:href="#linearGradient25"
       id="linearGradient20"
       x1="-304.8869"
       y1="-3.8238089"
       x2="-196.8869"
       y2="-3.8238089"
       gradientUnits="userSpaceOnUse"
       gradientTransform="matrix(1.1111111,0,0,1.0925926,342.76322,70.177868)" />
    <linearGradient
       id="linearGradient1062"
       x1="399.57001"
       x2="399.57001"
       y1="545.79999"
       y2="517.79999"
       gradientTransform="matrix(2.3810169,0,0,2.3413333,-1263.8729,-1287.5933)"
       gradientUnits="userSpaceOnUse">
      <stop
         stop-color="#3889e9"
         offset="0"
         id="stop5635" />
      <stop
         stop-color="#5ea5fb"
         offset="1"
         id="stop5637" />
    </linearGradient>
  </defs>
  <clipPath
     id="a">
    <rect
       height="152"
       width="192"
       id="rect1" />
  </clipPath>
  <linearGradient
     id="b"
     gradientTransform="matrix(0.5592362,0.5592362,-0.5592362,0.5592362,680.7709,225.18215)"
     gradientUnits="userSpaceOnUse"
     x1="-750.371094"
     x2="-642.371094"
     y1="406.509888"
     y2="406.509888">
    <stop
       offset="0"
       stop-color="#26a269"
       id="stop1" />
    <stop
       offset="1"
       stop-color="#33d17b"
       id="stop2" />
  </linearGradient>
  <filter
     id="c"
     height="1"
     width="1"
     x="0"
     y="0">
    <feColorMatrix
       in="SourceGraphic"
       type="matrix"
       values="0 0 0 0 1 0 0 0 0 1 0 0 0 0 1 0 0 0 1 0"
       id="feColorMatrix2" />
  </filter>
  <mask
     id="d">
    <g
       filter="url(#c)"
       id="g2">
      <rect
         fill-opacity="0.1"
         height="128"
         width="128"
         id="rect2" />
    </g>
  </mask>
  <clipPath
     id="e">
    <rect
       height="152"
       width="192"
       id="rect3" />
  </clipPath>
  <path
     id="j-7"
     d="M 64.000098,125 C 30.915865,125 3.9999985,98.532548 3.9999985,65.999998 3.9999985,33.467461 30.915865,7.000002 64.000098,7.000002 97.084331,7.000002 124,33.46717 124,65.999998 124,98.532828 97.084431,125 64.000098,125 Z"
     style="isolation:isolate;fill:url(#linearGradient20);stroke-width:0.976977" />
  <path
     id="f"
     d="M 64.000099,121 C 30.915866,121 3.9999995,94.532543 3.9999995,62.000001 3.9999995,29.46746 30.915866,3.0000013 64.000099,3.0000013 97.084335,3.0000013 124,29.467169 124,62.000001 124,94.532834 97.084434,121 64.000099,121 Z m 0,-113.0357634 c -30.287189,0 -54.9275884,24.2403774 -54.9275884,54.0357644 0,29.795388 24.6403994,54.035769 54.9275884,54.035769 30.287192,0 54.927291,-24.240574 54.927291,-54.035769 0,-29.795194 -24.640099,-54.0357644 -54.927291,-54.0357644 z"
     style="isolation:isolate;fill:url(#e-3);stroke-width:0.976976" />
  <path
     id="h"
     d="m 64.000099,3.0230588 c -33.071333,0 -59.9766551,26.4568982 -59.9766551,58.9769422 0,32.520045 26.9053221,58.976939 59.9766551,58.976939 33.07133,0 59.976451,-26.457087 59.976451,-58.976939 0,-32.519851 -26.905023,-58.9769422 -59.976451,-58.9769422 z"
     style="opacity:0.32;isolation:isolate;mix-blend-mode:lighten;fill:url(#g);stroke-width:0.976976" />
  <path
     id="j"
     d="M 64.000099,121 C 30.915866,121 3.9999995,94.532543 3.9999995,62.000001 3.9999995,29.46746 30.915866,3.0000013 64.000099,3.0000013 97.084335,3.0000013 124,29.467169 124,62.000001 124,94.532834 97.084434,121 64.000099,121 Z m 0,-113.0357634 c -30.287189,0 -54.9275884,24.2403774 -54.9275884,54.0357644 0,29.795388 24.6403994,54.035769 54.9275884,54.035769 30.287192,0 54.927291,-24.240574 54.927291,-54.035769 0,-29.795194 -24.640099,-54.0357644 -54.927291,-54.0357644 z"
     style="isolation:isolate;fill:#1e1e1d;fill-opacity:1;stroke-width:0.976976" />
  <path
     id="o"
     d="m 64.000099,7.9642366 c -30.300589,0 -54.9517218,24.2402804 -54.9517218,54.0357644 0,29.795485 24.6511328,54.035769 54.9517218,54.035769 30.300591,0 54.951521,-24.240477 54.951521,-54.035769 0,-29.795291 -24.65093,-54.0357644 -54.951521,-54.0357644 z"
     style="isolation:isolate;fill:url(#n);stroke-width:0.976976" />
  <path
     id="q"
     d="m 63.999999,12.456761 c -9.025422,0 -16.368078,7.220282 -16.368078,16.095182 0,8.874898 7.342656,16.09518 16.368078,16.09518 9.025422,0 16.367978,-7.220282 16.367978,-16.09518 0,-8.8749 -7.342556,-16.095182 -16.367978,-16.095182 z"
     style="opacity:0.7;isolation:isolate;mix-blend-mode:lighten;fill:url(#p);stroke-width:0.976976" />
  <path
     id="t"
     d="M 34.557933,97.295274 C 24.806499,88.955735 18.63281,76.66281 18.63281,62.905927 c 0,-16.007213 8.5132,-30.78308 22.534778,-39.033005 -0.250344,1.600751 -0.500789,3.07827 -0.500789,4.679021 0,9.481173 5.633689,17.731001 13.896456,21.548175 v 43.219487 l 10.391033,10.219985 10.391033,-10.219985 -0.626011,-8.988636 4.882567,-4.802154 -4.882567,-4.802154 7.3864,-7.264849 -7.3864,-7.264847 0.626011,-10.096847 c 8.137533,-3.817077 13.896455,-12.067002 13.896455,-21.548175 0,-1.600751 -0.125222,-3.07827 -0.500788,-4.679021 5.087977,3.020529 9.450441,6.918792 12.947682,11.429143 C 93.231432,23.880964 79.492321,16.450451 63.977732,16.450451 c -25.705511,0 -46.543944,20.393268 -46.543944,45.549647 0,14.234598 6.6735,26.942462 17.124045,35.295176 z M 61.574088,89.871931 H 58.068666 V 55.764214 h 3.505422 z M 56.566399,18.208922 c 2.754289,-0.492538 5.6337,-0.738807 8.387989,-0.738807 2.879411,-0.123136 5.633689,0.246269 8.387977,0.738807 0.125223,0.615673 0.250445,1.231347 0.250445,1.846923 0,4.679019 -3.880989,8.496194 -8.638322,8.496194 -4.757345,0 -8.638333,-3.817077 -8.638333,-8.496194 0,-0.615673 0.125222,-1.23125 0.250444,-1.846923 z"
     style="opacity:0.2;isolation:isolate;mix-blend-mode:multiply;fill:#0f0f0d;stroke-width:0.976976" />
  <path
     id="v"
     d="m 64.000099,7.9642366 c -30.287189,0 -54.9274884,24.2402804 -54.9274884,54.0357644 0,29.795485 24.6403994,54.035769 54.9274884,54.035769 30.287093,0 54.927291,-24.240574 54.927291,-54.035769 0,-29.795194 -24.640099,-54.0357644 -54.927291,-54.0357644 z m -8.387978,9.2890604 c 2.754278,-0.492539 5.633689,-0.738809 8.387978,-0.738809 2.879411,-0.123134 5.6337,0.24627 8.387978,0.738809 0.125222,0.615673 0.250444,1.231347 0.250444,1.846922 0,4.67902 -3.880989,8.496195 -8.638322,8.496195 -4.757344,0 -8.638322,-3.817078 -8.638322,-8.496195 0,-0.615673 0.125222,-1.231249 0.250444,-1.846922 z m 5.007678,37.55539 V 88.916402 H 57.114388 V 54.808687 Z m 3.3802,52.700663 c -25.539411,0 -46.321477,-20.316833 -46.321477,-45.558952 0,-16.007213 8.5132,-30.783079 22.534777,-39.033005 -0.250344,1.600751 -0.500789,3.07827 -0.500789,4.679021 0,9.481174 5.6337,17.731001 13.896456,21.548175 v 43.219487 l 10.391033,10.219984 10.391033,-10.219984 -0.626011,-8.988636 4.882567,-4.802154 -4.882567,-4.802154 7.386411,-7.264848 -7.386411,-7.264848 0.626011,-10.096847 c 8.137544,-3.817077 13.896456,-12.067001 13.896456,-21.548175 0,-1.600751 -0.125223,-3.07827 -0.500789,-4.679021 13.896451,8.249926 22.409551,23.025792 22.534781,39.033005 0,25.118985 -20.656948,45.558952 -46.321481,45.558952 z"
     style="isolation:isolate;fill:url(#u);stroke-width:0.976976" />
  <g
     id="g15"
     transform="matrix(1.0221465,0,0,1.0051107,321.77776,114.44445)" />
  <g
     id="g21"
     transform="matrix(1.0221465,0,0,1.0051107,321.77776,114.44445)" />
  <circle
     cx="-310.11057"
     cy="-42.5271"
     r="0"
     fill="url(#linearGradient1062)"
     stroke-width="1.73151"
     id="circle5662"
     style="display:inline;fill:url(#linearGradient1062);enable-background:new" />
</svg>
