<?xml version="1.0" encoding="UTF-8" standalone="no"?>
<svg
   viewBox="0 0 128 128"
   style="display:inline;enable-background:new"
   version="1.0"
   id="svg11300"
   height="128"
   width="128"
   xml:space="preserve"
   xmlns:xlink="http://www.w3.org/1999/xlink"
   xmlns="http://www.w3.org/2000/svg"
   xmlns:svg="http://www.w3.org/2000/svg"
   xmlns:rdf="http://www.w3.org/1999/02/22-rdf-syntax-ns#"
   xmlns:cc="http://creativecommons.org/ns#"
   xmlns:dc="http://purl.org/dc/elements/1.1/"><title
     id="title4162">Adwaita Icon Template</title><defs
     id="defs3"><linearGradient
       y2="44"
       x2="464"
       y1="44"
       x1="48"
       gradientTransform="matrix(0.25,0,0,0.25,0,53)"
       gradientUnits="userSpaceOnUse"
       id="linearGradient1747"
       xlink:href="#linearGradient974-3" /><linearGradient
       id="linearGradient974-3"><stop
         style="stop-color:#1d2d68;stop-opacity:1;"
         offset="0"
         id="stop962-2" /><stop
         id="stop964-9"
         offset="0.04166667"
         style="stop-color:#314cb0;stop-opacity:1;" /><stop
         style="stop-color:#1d2d68;stop-opacity:1;"
         offset="0.08333334"
         id="stop966-5" /><stop
         id="stop968-4"
         offset="0.91666669"
         style="stop-color:#1d2d68;stop-opacity:1;" /><stop
         style="stop-color:#314cb0;stop-opacity:1;"
         offset="0.95833331"
         id="stop970-6" /><stop
         style="stop-color:#1d2d68;stop-opacity:1;"
         offset="1"
         id="stop972-6" /></linearGradient></defs><metadata
     id="metadata4"><rdf:RDF><cc:Work
         rdf:about=""><dc:format>image/svg+xml</dc:format><dc:type
           rdf:resource="http://purl.org/dc/dcmitype/StillImage" /><dc:creator><cc:Agent><dc:title>GNOME Design Team</dc:title></cc:Agent></dc:creator><dc:source /><cc:license
           rdf:resource="http://creativecommons.org/licenses/by-sa/4.0/" /><dc:title>Adwaita Icon Template</dc:title><dc:subject><rdf:Bag /></dc:subject><dc:date /><dc:rights><cc:Agent><dc:title /></cc:Agent></dc:rights><dc:publisher><cc:Agent><dc:title /></cc:Agent></dc:publisher><dc:identifier /><dc:relation /><dc:language /><dc:coverage /><dc:description /><dc:contributor><cc:Agent><dc:title /></cc:Agent></dc:contributor></cc:Work><cc:License
         rdf:about="http://creativecommons.org/licenses/by-sa/4.0/"><cc:permits
           rdf:resource="http://creativecommons.org/ns#Reproduction" /><cc:permits
           rdf:resource="http://creativecommons.org/ns#Distribution" /><cc:requires
           rdf:resource="http://creativecommons.org/ns#Notice" /><cc:requires
           rdf:resource="http://creativecommons.org/ns#Attribution" /><cc:permits
           rdf:resource="http://creativecommons.org/ns#DerivativeWorks" /><cc:requires
           rdf:resource="http://creativecommons.org/ns#ShareAlike" /></cc:License></rdf:RDF></metadata><rect
     ry="8"
     rx="8"
     y="32"
     x="12"
     height="83.999992"
     width="104"
     id="rect1709"
     style="display:inline;fill:url(#linearGradient1747);fill-opacity:1;stroke:none;stroke-width:0.25;stroke-linecap:butt;stroke-linejoin:miter;stroke-miterlimit:4;stroke-dasharray:none;stroke-dashoffset:0;stroke-opacity:1;marker:none;marker-start:none;marker-mid:none;marker-end:none;paint-order:normal;enable-background:new" /><rect
     style="display:inline;fill:#314cb0;fill-opacity:1;stroke:none;stroke-width:0.25;stroke-linecap:butt;stroke-linejoin:miter;stroke-miterlimit:4;stroke-dasharray:none;stroke-dashoffset:0;stroke-opacity:1;marker:none;marker-start:none;marker-mid:none;marker-end:none;paint-order:normal;enable-background:new"
     id="rect1711"
     width="104"
     height="100"
     x="12"
     y="12"
     rx="8"
     ry="8" /><g
     id="g1"><path
       id="path3010"
       style="font-style:normal;font-weight:normal;font-size:120.794px;line-height:122%;font-family:Sans;letter-spacing:0px;word-spacing:0px;fill:#ffffff;fill-opacity:1;stroke:none;stroke-width:0.858844"
       d="m 107.33592,45.299099 v 46.501898 c -3e-5,2.431483 0.0675,4.018687 0.20263,4.76163 0.27013,1.519673 0.97931,2.904259 2.12753,4.153793 H 87.37759 c 1.148188,-1.249534 1.857362,-2.63412 2.127537,-4.153793 0.135071,-0.742943 0.20261,-2.330147 0.202619,-4.76163 V 54.113186 c -9e-6,-2.431423 -0.06759,-4.001751 -0.202619,-4.710984 -0.270175,-1.485844 -0.962464,-2.853545 -2.076883,-4.103103 H 107.33592 M 39.30536,53.70794 53.843535,35.31993 c 2.971756,-3.748451 4.457651,-6.551393 4.457702,-8.408841 -5.1e-5,-0.675335 -0.08451,-1.215659 -0.253281,-1.620982 h 25.378486 c -1.924979,1.080726 -4.339568,3.360236 -7.243758,6.838513 -0.776782,0.911877 -2.144483,2.583506 -4.103103,5.014911 L 53.033044,60.850389 75.777438,92.155588 c 1.384526,1.891149 3.140587,4.018687 5.268194,6.38263 0.574025,0.60789 1.401401,1.333957 2.482128,2.178202 H 57.490746 c 0.202576,-0.77674 0.303885,-1.469054 0.303937,-2.076944 -5.2e-5,-1.857337 -1.283328,-4.542084 -3.84983,-8.054216 L 39.30536,70.626931 v 20.211611 c -2e-5,4.694099 0.94555,7.986702 2.83672,9.877878 H 18.33392 c 1.31703,-1.317039 2.16129,-2.819853 2.53278,-4.508375 0.20261,-0.945571 0.30393,-2.718517 0.30394,-5.318848 V 35.117312 C 21.17063,32.517049 21.06931,30.744103 20.8667,29.798464 20.49521,28.11001 19.65095,26.60723 18.33392,25.290107 h 23.80816 c -1.89117,1.891218 -2.83674,5.166953 -2.83672,9.827205 V 53.70794" /><path
       style="fill:#ff7700;fill-opacity:1;fill-rule:nonzero;stroke:none;stroke-width:0.858844"
       d="m 108.78486,13.981885 c 0,5.670467 -4.61042,10.267242 -10.297674,10.267242 -5.68724,0 -10.297671,-4.596775 -10.297671,-10.267242 0,-5.6704676 4.610431,-10.2673112 10.297671,-10.2673112 5.687254,0 10.297674,4.5968436 10.297674,10.2673112 z"
       id="path3552-6-3-7" /></g></svg>
