<?xml version="1.0" encoding="UTF-8" standalone="no"?>
<svg
   viewBox="0 0 128 128"
   style="display:inline;enable-background:new"
   version="1.0"
   id="svg11300"
   height="128"
   width="128"
   xml:space="preserve"
   xmlns:xlink="http://www.w3.org/1999/xlink"
   xmlns="http://www.w3.org/2000/svg"
   xmlns:svg="http://www.w3.org/2000/svg"
   xmlns:rdf="http://www.w3.org/1999/02/22-rdf-syntax-ns#"
   xmlns:cc="http://creativecommons.org/ns#"
   xmlns:dc="http://purl.org/dc/elements/1.1/"><title
     id="title4162">Adwaita Icon Template</title><defs
     id="defs3"><linearGradient
       id="linearGradient8"><stop
         style="stop-color:#8d48fe;stop-opacity:1;"
         offset="0"
         id="stop10" /><stop
         style="stop-color:#723acc;stop-opacity:1;"
         offset="1"
         id="stop11" /></linearGradient><linearGradient
       id="linearGradient974"><stop
         style="stop-color:#44217d;stop-opacity:1;"
         offset="0"
         id="stop962" /><stop
         id="stop964"
         offset="0.04166667"
         style="stop-color:#ab8ae1;stop-opacity:1;" /><stop
         style="stop-color:#44217d;stop-opacity:1;"
         offset="0.08333334"
         id="stop966" /><stop
         id="stop968"
         offset="0.91666669"
         style="stop-color:#44217d;stop-opacity:1;" /><stop
         style="stop-color:#ab8ae1;stop-opacity:1;"
         offset="0.95833331"
         id="stop970" /><stop
         style="stop-color:#44217d;stop-opacity:1;"
         offset="1"
         id="stop972" /></linearGradient><linearGradient
       y2="44"
       x2="464"
       y1="44"
       x1="48"
       gradientTransform="matrix(0.25,0,0,0.25,0,53)"
       gradientUnits="userSpaceOnUse"
       id="linearGradient1747"
       xlink:href="#linearGradient974" /><linearGradient
       xlink:href="#linearGradient8"
       id="linearGradient11"
       x1="64"
       y1="10"
       x2="64"
       y2="114"
       gradientUnits="userSpaceOnUse" /></defs><metadata
     id="metadata4"><rdf:RDF><cc:Work
         rdf:about=""><dc:format>image/svg+xml</dc:format><dc:type
           rdf:resource="http://purl.org/dc/dcmitype/StillImage" /><dc:creator><cc:Agent><dc:title>GNOME Design Team</dc:title></cc:Agent></dc:creator><dc:source /><cc:license
           rdf:resource="http://creativecommons.org/licenses/by-sa/4.0/" /><dc:title>Adwaita Icon Template</dc:title><dc:subject><rdf:Bag /></dc:subject><dc:date /><dc:rights><cc:Agent><dc:title /></cc:Agent></dc:rights><dc:publisher><cc:Agent><dc:title /></cc:Agent></dc:publisher><dc:identifier /><dc:relation /><dc:language /><dc:coverage /><dc:description /><dc:contributor><cc:Agent><dc:title /></cc:Agent></dc:contributor></cc:Work><cc:License
         rdf:about="http://creativecommons.org/licenses/by-sa/4.0/"><cc:permits
           rdf:resource="http://creativecommons.org/ns#Reproduction" /><cc:permits
           rdf:resource="http://creativecommons.org/ns#Distribution" /><cc:requires
           rdf:resource="http://creativecommons.org/ns#Notice" /><cc:requires
           rdf:resource="http://creativecommons.org/ns#Attribution" /><cc:permits
           rdf:resource="http://creativecommons.org/ns#DerivativeWorks" /><cc:requires
           rdf:resource="http://creativecommons.org/ns#ShareAlike" /></cc:License></rdf:RDF></metadata><rect
     ry="8"
     rx="8"
     y="32"
     x="12"
     height="83.999992"
     width="104"
     id="rect1709"
     style="display:inline;fill:url(#linearGradient1747);fill-opacity:1;stroke:none;stroke-width:0.25;stroke-linecap:butt;stroke-linejoin:miter;stroke-miterlimit:4;stroke-dasharray:none;stroke-dashoffset:0;stroke-opacity:1;marker:none;marker-start:none;marker-mid:none;marker-end:none;paint-order:normal;enable-background:new" /><rect
     style="display:inline;fill:url(#linearGradient11);fill-opacity:1;stroke:none;stroke-width:0.25;stroke-linecap:butt;stroke-linejoin:miter;stroke-miterlimit:4;stroke-dasharray:none;stroke-dashoffset:0;stroke-opacity:1;marker:none;marker-start:none;marker-mid:none;marker-end:none;paint-order:normal;enable-background:new"
     id="rect1711"
     width="104"
     height="100"
     x="12"
     y="12"
     rx="8"
     ry="8" /><path
     d="m 372.822,663.777 c -57.019,126.269 64.427,157.966 154.004,84.065 26.356,82.859 125.063,21.016 160.55,-43.238 78.035,-141.601 46.511,-285.958 38.414,-315.759 -55.468,-203.099 -332.813,-203.444 -380.53,1.033 -11.197,35.831 -11.369,76.485 -17.571,118.69 -3.1,21.36 -5.512,34.969 -13.609,57.364 -4.823,12.919 -11.197,24.289 -21.532,43.582 -15.849,29.974 -9.13,87.682 72.867,57.709 l 7.752,-3.446 z"
     fill="#ffffff"
     id="path6"
     transform="matrix(0.12019231,0,0,0.12019231,2.437934,0.46153824)"
     mask="none"
     clip-path="none" /><path
     d="m 537.506,476.873 c -22.738,0 -26.184,-27.218 -26.184,-43.411 0,-14.642 2.584,-26.184 7.58,-33.591 4.306,-6.546 10.68,-9.819 18.604,-9.819 7.924,0 14.815,3.273 19.638,9.991 5.513,7.58 8.441,19.122 8.441,33.419 0,27.218 -10.508,43.411 -27.906,43.411 z m 93.539,0 c -22.738,0 -26.184,-27.218 -26.184,-43.411 0,-14.642 2.584,-26.184 7.58,-33.591 4.307,-6.546 10.68,-9.819 18.604,-9.819 7.925,0 14.815,3.273 19.638,9.991 5.513,7.58 8.441,19.122 8.441,33.419 0,27.218 -10.508,43.411 -27.906,43.411 z"
     fill="#000000"
     id="path7"
     transform="matrix(0.12019231,0,0,0.12019231,2.437934,0.46153824)"
     mask="none"
     clip-path="none" /></svg>
