<?xml version="1.0" encoding="UTF-8" standalone="no"?>
<!-- Created with Inkscape (http://www.inkscape.org/) -->

<svg
   version="1.0"
   width="128"
   height="128"
   id="svg4292"
   xml:space="preserve"
   xmlns:xlink="http://www.w3.org/1999/xlink"
   xmlns="http://www.w3.org/2000/svg"
   xmlns:svg="http://www.w3.org/2000/svg"><defs
     id="defs4294"><linearGradient
       id="linearGradient1571"><stop
         style="stop-color:#b2b2b2;stop-opacity:1;"
         offset="0"
         id="stop1567" /><stop
         style="stop-color:#e5e5e5;stop-opacity:1;"
         offset="0.03567462"
         id="stop1575" /><stop
         style="stop-color:#b2b2b2;stop-opacity:1;"
         offset="0.07302466"
         id="stop1577" /><stop
         style="stop-color:#b2b2b2;stop-opacity:1;"
         offset="0.92681795"
         id="stop1579" /><stop
         style="stop-color:#e5e5e5;stop-opacity:1;"
         offset="0.96064132"
         id="stop1581" /><stop
         style="stop-color:#b2b2b2;stop-opacity:1;"
         offset="1"
         id="stop1569" /></linearGradient><linearGradient
       xlink:href="#linearGradient1571"
       id="linearGradient1573"
       x1="12"
       y1="66"
       x2="116"
       y2="66"
       gradientUnits="userSpaceOnUse" /></defs><rect
     style="display:inline;fill:url(#linearGradient1573);fill-opacity:1;stroke:none;stroke-width:0.25;stroke-linecap:butt;stroke-linejoin:miter;stroke-miterlimit:4;stroke-dasharray:none;stroke-dashoffset:0;stroke-opacity:1;marker:none;marker-start:none;marker-mid:none;marker-end:none;paint-order:normal;enable-background:new"
     id="rect1711-5"
     width="104"
     height="100"
     x="12"
     y="16"
     rx="8"
     ry="8" /><rect
     style="display:inline;fill:#ffffff;fill-opacity:1;stroke:none;stroke-width:0.25;stroke-linecap:butt;stroke-linejoin:miter;stroke-miterlimit:4;stroke-dasharray:none;stroke-dashoffset:0;stroke-opacity:1;marker:none;marker-start:none;marker-mid:none;marker-end:none;paint-order:normal;enable-background:new"
     id="rect1711"
     width="104"
     height="100"
     x="12"
     y="12"
     rx="8"
     ry="8" /><path
     class="st0"
     d="M 106.75528,74.83363 C 106.09445,71.935542 101.30145,63.583639 91.500506,56.171216 89.709105,54.809754 88.092867,53.679179 86.747318,52.7795 88.705917,44.395744 78.522803,34.284285 68.586499,39.045429 61.452748,32.333643 53.498922,29.594796 46.182051,29.706261 26.811036,29.976958 11.866769,50.160075 27.941611,69.419625 c 0.0077,0.0077 0.01595,0.01595 0.03181,0.03181 0.246819,0.294586 0.501594,0.589171 0.756369,0.883757 1.042998,1.249997 1.735669,2.356684 2.32484,4.307326 l 4.792997,15.708593 H 34.15176 c -1.560505,0 -2.83439,1.265919 -2.83439,2.83439 h 6.433115 L 48.562623,98.297 c 0.668792,-1.417195 0.06371,-3.105088 -1.34554,-3.765925 l -2.834398,-1.337574 h 8.152868 c 0,-1.560514 -1.265928,-2.834399 -2.834398,-2.834399 H 42.31262 c -1.289807,0 -2.436304,-0.843946 -2.810502,-2.078021 L 35.704343,75.804972 c -0.947446,-3.280259 1.226118,-5.421979 3.272294,-5.676754 1.863056,-0.230887 2.802545,0.971343 3.678345,3.885353 l 3.375793,11.066871 h -1.695858 c -1.560513,0 -2.834398,1.265928 -2.834398,2.834398 h 6.433123 l 10.812095,5.111463 c 0.668792,-1.417195 0.06371,-3.105097 -1.34554,-3.765923 l -2.83439,-1.337583 h 5.979297 c 0.605093,1.027076 1.34554,1.998409 2.229296,2.874209 5.573246,5.573248 14.625794,5.573248 20.199039,0 5.573246,-5.573254 5.573246,-14.625793 0,-20.199039 -5.573245,-5.573246 -14.625793,-5.573246 -20.199039,0 -3.917198,3.917198 -5.087574,9.554133 -3.495224,14.49044 h -6.76751 c -1.289808,0 -2.436305,-0.843946 -2.810511,-2.078029 l -5.605091,-18.423561 0.955412,-0.50955 c 13.304133,-5.581211 27.531841,4.386938 37.436292,-5.191083 0.02392,-0.02392 0.04776,-0.04776 0.06371,-0.06371 1.226109,-1.114652 2.452227,-2.253184 6.074839,0.01595 3.901267,2.444262 12.507953,8.821652 16.409223,19.729291 0.008,0 2.37261,-0.843947 1.71975,-3.734078 z M 79.382672,50.669626 c -0.03181,-1.48885 -1.242032,-2.683123 -2.746813,-2.683123 -1.512738,0 -2.746812,1.226117 -2.746812,2.746821 0,0.828024 0.36624,1.560505 0.939489,2.062098 -1.990444,-0.382162 -3.487259,-2.117831 -3.487259,-4.211783 0,-2.372606 1.918788,-4.291395 4.291404,-4.291395 2.372606,0 4.291395,1.918789 4.291395,4.291395 0,0.756369 -0.199043,1.464971 -0.541404,2.085987 z"
     id="path1"
     style="fill:#010101;stroke-width:0.0796178" /></svg>
