<?xml version="1.0" encoding="UTF-8" standalone="no"?>
<svg
   width="128"
   height="128"
   version="1"
   id="svg44"
   xml:space="preserve"
   xmlns:xlink="http://www.w3.org/1999/xlink"
   xmlns="http://www.w3.org/2000/svg"
   xmlns:svg="http://www.w3.org/2000/svg"><defs
     id="defs48"><linearGradient
       id="linearGradient22"><stop
         style="stop-color:#e4e4e4;stop-opacity:1;"
         offset="0"
         id="stop13" /><stop
         style="stop-color:#8c8c8c;stop-opacity:1;"
         offset="0.03655991"
         id="stop19" /><stop
         style="stop-color:#8c8c8c;stop-opacity:1;"
         offset="0.43135989"
         id="stop23" /><stop
         style="stop-color:#e3e3e3;stop-opacity:1;"
         offset="0.50146359"
         id="stop24" /><stop
         style="stop-color:#8c8c8c;stop-opacity:1;"
         offset="0.56836194"
         id="stop25" /><stop
         style="stop-color:#8c8c8c;stop-opacity:1;"
         offset="0.96065289"
         id="stop20" /><stop
         style="stop-color:#e4e4e4;stop-opacity:1;"
         offset="1"
         id="stop21" /></linearGradient><linearGradient
       id="Kodi_00000070798206131893957420000016692771746482146463_"
       gradientUnits="userSpaceOnUse"
       x1="-351.49521"
       y1="450.36801"
       x2="-351.49521"
       y2="348.63199"
       gradientTransform="matrix(2,0,0,-2,506,661)">
	<stop
   offset="0"
   style="stop-color:#33ADDD"
   id="stop3" />
	<stop
   offset="1"
   style="stop-color:#148FBF"
   id="stop4-8" />
</linearGradient><linearGradient
       id="Border_00000015318469695191313500000001378236376235353531_"
       gradientUnits="userSpaceOnUse"
       x1="-351.5"
       y1="457.52869"
       x2="-351.5"
       y2="341.47049"
       gradientTransform="matrix(2,0,0,-2,506,661)">
	<stop
   offset="0"
   style="stop-color:#FEFEFE"
   id="stop1" />
	<stop
   offset="1"
   style="stop-color:#DFDFDF"
   id="stop2" />
</linearGradient><linearGradient
       xlink:href="#Border_00000015318469695191313500000001378236376235353531_"
       id="linearGradient8"
       x1="64"
       y1="9.999999"
       x2="64"
       y2="118"
       gradientUnits="userSpaceOnUse"
       gradientTransform="translate(0,-1.9999977)" /><linearGradient
       xlink:href="#Kodi_00000070798206131893957420000016692771746482146463_"
       id="linearGradient9"
       gradientUnits="userSpaceOnUse"
       gradientTransform="matrix(0.93023256,0,0,-0.93023256,390.95348,433.65116)"
       x1="-351.49521"
       y1="450.36801"
       x2="-351.49521"
       y2="348.63199" /><linearGradient
       xlink:href="#linearGradient22"
       id="linearGradient10"
       gradientUnits="userSpaceOnUse"
       x1="10"
       y1="64"
       x2="118"
       y2="64"
       gradientTransform="translate(0,2.0000023)" /></defs><path
     id="path10"
     style="display:inline;fill:url(#linearGradient10);stroke-width:0.192218;marker:none;marker-start:none;marker-mid:none;marker-end:none;enable-background:new"
     d="M 11.807177,61.650594 59.650595,13.807176 c 2.409568,-2.409568 6.289235,-2.409568 8.698803,0 l 47.843412,47.843423 c 0.85647,0.856468 1.80641,-0.678711 1.80645,0.444814 l 1.4e-4,3.990293 c 5e-5,1.54377 -0.62369,3.080803 -1.80659,4.263696 L 68.349403,118.19282 c -2.409569,2.40957 -6.289235,2.40957 -8.698803,0 L 11.807177,70.349398 C 10.632491,69.174712 9.9984286,67.650914 10.001128,66.11783 l 0.0067,-3.807414 c 0.002,-1.144229 0.926671,0.212852 1.799345,-0.659822 z" /><path
     id="rect1711"
     style="display:inline;fill:url(#linearGradient8);stroke-width:0.192218;marker:none;marker-start:none;marker-mid:none;marker-end:none;enable-background:new"
     d="M 11.807177,57.650594 59.650595,9.8071763 c 2.409568,-2.4095681 6.289235,-2.4095681 8.698803,0 L 116.19281,57.650599 c 2.40958,2.409568 2.40958,6.289234 0,8.698803 L 68.349403,114.19282 c -2.409569,2.40957 -6.289235,2.40957 -8.698803,0 L 11.807177,66.349398 c -2.4095691,-2.409568 -2.4095691,-6.289235 0,-8.698804 z" /><path
     id="path9"
     style="clip-rule:evenodd;fill:url(#linearGradient9);fill-rule:evenodd;stroke-width:0.465116"
     d="m 33.093023,47.186048 c 0,-2.046512 -0.97675,-2.976744 -1.86047,-2.046512 l -14.55814,14.55814 c -1.30232,1.302326 -1.30232,3.395349 0,4.697674 l 14.55814,14.55814 c 0.88372,0.883721 1.86047,0 1.86047,-2.046512 z M 75.37209,59.697676 90.999997,44.069769 c 1.302326,-1.302326 3.395349,-1.302326 4.697674,0 l 15.627909,15.627907 c 1.30232,1.302326 1.30232,3.395349 0,4.697674 L 95.697671,80.023257 c -1.302325,1.302326 -3.395348,1.302326 -4.697674,0 L 75.37209,64.348839 c -1.302326,-1.255814 -1.302326,-3.395349 0,-4.651163 z M 46.023253,89.046513 61.651163,73.418606 c 1.30232,-1.302325 3.395346,-1.302325 4.697671,0 l 15.627907,15.627907 c 1.302326,1.302326 1.302326,3.395349 0,4.697675 L 66.302323,109.32558 c -1.302326,1.30232 -3.39535,1.30232 -4.69767,0 L 45.976743,93.697676 c -1.25582,-1.255814 -1.25582,-3.395349 0.0465,-4.651163 z m -0.4186,-55.953488 c 0,-1.627907 0.46511,-2.790698 1.58139,-3.953489 4.83721,-4.837209 9.62791,-9.627907 14.41861,-14.465116 1.30232,-1.302326 3.395344,-1.302326 4.69767,0 L 81.93023,30.302327 c 1.302325,1.302326 1.302325,3.395349 0,4.697674 -11.534884,11.534884 -23.023257,23.023256 -34.558137,34.55814 -0.88372,0.883721 -1.76744,0 -1.76744,-2.046512 z" /></svg>
