<?xml version="1.0" encoding="UTF-8" standalone="no"?>
<!-- Generator: Adobe Illustrator 26.0.2, SVG Export Plug-In . SVG Version: 6.00 Build 0)  -->

<svg
   version="1.0"
   id="Layer_1"
   x="0px"
   y="0px"
   viewBox="0 0 128 128"
   xml:space="preserve"
   width="128"
   height="128"
   xmlns:xlink="http://www.w3.org/1999/xlink"
   xmlns="http://www.w3.org/2000/svg"
   xmlns:svg="http://www.w3.org/2000/svg"><defs
   id="defs76"><linearGradient
     id="linearGradient48"
     gradientUnits="userSpaceOnUse"
     x1="0"
     y1="269.46301"
     x2="118.926"
     y2="269.46301"
     gradientTransform="matrix(1,0,0,0.98333333,-118,-175.03333)"><stop
       offset="0"
       stop-color="#e5a50a"
       id="stop44"
       style="stop-color:#563e25;stop-opacity:1;" /><stop
       offset="0.414"
       stop-color="#fbdf9b"
       id="stop46"
       style="stop-color:#d1b98f;stop-opacity:1;" /><stop
       offset="0.81300002"
       stop-color="#e5a50a"
       id="stop47"
       style="stop-color:#564024;stop-opacity:1;" /><stop
       offset="1"
       stop-color="#f8ca5b"
       id="stop48"
       style="stop-color:#caae7d;stop-opacity:1;" /></linearGradient><linearGradient
     id="linearGradient42"
     gradientTransform="matrix(1.937142,0,0,1.928556,237.93385,-1180.1077)"
     gradientUnits="userSpaceOnUse"
     x1="-87"
     x2="-87"
     y1="616"
     y2="672"><stop
       offset="0"
       stop-color="#997657"
       id="stop41"
       style="stop-color:#b98b59;stop-opacity:1;" /><stop
       offset="1"
       stop-color="#d4ba94"
       id="stop42"
       style="stop-color:#d1b98f;stop-opacity:1;" /></linearGradient><linearGradient
     xlink:href="#linearGradient42"
     id="linearGradient3"
     gradientUnits="userSpaceOnUse"
     gradientTransform="matrix(-1.937142,0,0,-1.928556,-113.97674,1304.1077)"
     x1="-87"
     y1="616"
     x2="-87"
     y2="672" /><linearGradient
     id="linearGradient27905"><stop
       id="stop27901"
       offset="0"
       style="stop-color:#e9b96e;stop-opacity:1;" /><stop
       id="stop27903"
       offset="1"
       style="stop-color:#dc9321;stop-opacity:1" /></linearGradient><linearGradient
     id="linearGradient27913"><stop
       id="stop27909"
       offset="0"
       style="stop-color:#bcbcb4;stop-opacity:1" /><stop
       id="stop27911"
       offset="1"
       style="stop-color:#eeeeec;stop-opacity:1" /></linearGradient><linearGradient
     id="linearGradient27897"><stop
       id="stop27893"
       offset="0"
       style="stop-color:#505050;stop-opacity:1" /><stop
       id="stop27895"
       offset="1"
       style="stop-color:#000000;stop-opacity:1" /></linearGradient><radialGradient
     r="39.999989"
     fy="225.39462"
     fx="450.94806"
     cy="225.39462"
     cx="450.94806"
     gradientTransform="matrix(-0.61603235,0,0,0.60562159,332.95268,-75.610145)"
     gradientUnits="userSpaceOnUse"
     id="radialGradient1425-6"
     xlink:href="#linearGradient27897" /><linearGradient
     xlink:href="#linearGradient27905"
     id="linearGradient14"
     gradientUnits="userSpaceOnUse"
     gradientTransform="matrix(-0.37415074,0,0,0.36782771,443.22205,-93.6778)"
     x1="953.27502"
     y1="350.85599"
     x2="944.20746"
     y2="359.92355" /><linearGradient
     xlink:href="#linearGradient27913"
     id="linearGradient15"
     gradientUnits="userSpaceOnUse"
     gradientTransform="matrix(-0.37415074,0,0,0.36782771,218.73161,-15.69833)"
     x1="418.83841"
     y1="227"
     x2="428.91922"
     y2="216.9192" /><linearGradient
     xlink:href="#linearGradient48"
     id="linearGradient39"
     gradientUnits="userSpaceOnUse"
     gradientTransform="matrix(-1.937142,0,0,-1.928556,-113.97674,1308.1077)"
     x1="-59"
     y1="644"
     x2="-115"
     y2="644" /></defs>
<style
   type="text/css"
   id="style2">
	.st0{fill:url(#SVGID_1_);}
	.st1{fill:url(#SVGID_00000062171159965967627490000013605884846004172698_);}
	.st2{fill:url(#SVGID-2_00000085966066984138215510000013018799571900533434_);}
	.st3{clip-path:url(#SVGID_00000023257072852279316340000004281102206337855156_);}
	.st4{fill:url(#SVGID_00000177446033621631838710000001370584907163434138_);}
	.st5{clip-path:url(#SVGID_00000136385553608229244970000014654043435100792964_);}
	.st6{fill:url(#SVGID_00000126306410582640054500000000964390405037519506_);}
	.st7{fill:url(#SVGID_00000109020757643166282930000006684795936706346369_);}
</style>
<radialGradient
   id="SVGID_1_"
   cx="514.5"
   cy="477.5"
   r="496.5"
   gradientTransform="matrix(1,0,0,-1,-18,974)"
   gradientUnits="userSpaceOnUse">
	<stop
   offset="0.9134"
   style="stop-color:#000000"
   id="stop4" />
	<stop
   offset="1"
   style="stop-color:#000000;stop-opacity:0"
   id="stop6" />
</radialGradient>

<radialGradient
   id="SVGID_00000163033830155146975860000008434547654242457221_"
   cx="512.05908"
   cy="481.87881"
   r="486.27271"
   gradientTransform="matrix(0.11104257,0,0,-0.11104257,7.1350999,117.51141)"
   gradientUnits="userSpaceOnUse">
	<stop
   offset="0.99"
   style="stop-color:#FFFFFF"
   id="stop11" />
	<stop
   offset="0.9951"
   style="stop-color:#FDFDFD"
   id="stop13" />
	<stop
   offset="0.9969"
   style="stop-color:#F6F6F6"
   id="stop15" />
	<stop
   offset="0.9982"
   style="stop-color:#EBEBEB"
   id="stop17" />
	<stop
   offset="0.9992"
   style="stop-color:#DADADA"
   id="stop19" />
	<stop
   offset="1"
   style="stop-color:#C7C7C7"
   id="stop21" />
</radialGradient>

<radialGradient
   id="SVGID-2_00000052072577768947982130000002178866272689676469_"
   cx="512.06152"
   cy="481.87881"
   r="444.12241"
   gradientTransform="matrix(1,0,0,-1,-18,974)"
   gradientUnits="userSpaceOnUse">
	<stop
   offset="0.99"
   style="stop-color:#000000;stop-opacity:0.5"
   id="stop26" />
	<stop
   offset="1"
   style="stop-color:#000000;stop-opacity:0"
   id="stop28" />
</radialGradient>



<radialGradient
   id="SVGID_00000092427181212153090570000016417065628950216588_"
   cx="578.89008"
   cy="482.3703"
   r="353.94269"
   gradientTransform="matrix(0.11104257,0,0,-0.1218248,7.1350999,118.45626)"
   gradientUnits="userSpaceOnUse">
	<stop
   offset="0"
   style="stop-color:#C2C0C2"
   id="stop66" />
	<stop
   offset="1"
   style="stop-color:#EBEBEB"
   id="stop68" />
</radialGradient>

		
	
		
	
<path
   d="m 64.239459,119.99973 c 15.66837,-0.027 30.564,-6.77538 40.853701,-18.53982 21.13452,-21.04083 -35.043301,-34.7922 -22.299841,-47.4795 4.69152,-4.67073 6.61797,-10.6461 6.62877,-16.90902 -0.005,-0.30024 -0.0162,-0.60021 -0.034,-0.90018 0.0108,-0.34155 0.034,-0.6804 0.034,-1.02816 l -0.0907,-0.0567 C 88.291759,22.05507 77.369849,12.00621 64.239479,12 c -0.71374,0 -1.42692,0.0405 -2.13767,0.1053 C 33.02551,13.24686 10.03501,37.02873 9.99991,66 c 0,29.8242 24.28407,54 54.240299,54 z m 0,-71.3556 a 11.62296,11.57139 0 0 1 -11.62269,-11.57139 11.62296,11.57139 0 0 1 11.62269,-11.57112 11.62296,11.57139 0 0 1 11.62269,11.57112 11.62296,11.57139 0 0 1 -11.62269,11.57139 z"
   fill="url(#a)"
   id="path39"
   style="fill:url(#linearGradient39);stroke-width:0.999999" /><path
   d="m 64.239459,115.99973 c 15.66837,-0.027 30.564,-6.77538 40.853701,-18.53982 21.13452,-21.04083 -35.043301,-34.7922 -22.299841,-47.4795 4.69152,-4.67073 6.61797,-10.6461 6.62877,-16.90902 -0.005,-0.30024 -0.0162,-0.60021 -0.034,-0.90018 0.0108,-0.34155 0.034,-0.6804 0.034,-1.02816 l -0.0907,-0.0567 C 88.291759,18.05507 77.369849,8.00621 64.239479,8 63.525739,8 62.812559,8.0405 62.101809,8.1053 33.02551,9.24686 10.03501,33.02873 9.99991,62 c 0,29.8242 24.28407,54 54.240299,54 z m 0,-71.3556 c -6.419078,-1.48e-4 -11.62269,-5.180793 -11.62269,-11.57139 1.5e-4,-6.390492 5.203718,-11.570972 11.62269,-11.57112 6.418972,1.48e-4 11.62254,5.180628 11.62269,11.57112 0,6.390597 -5.203612,11.571242 -11.62269,11.57139 z"
   fill="url(#a)"
   id="path24-1-2"
   style="fill:url(#linearGradient3);stroke-width:0.999999" /><path
   d="m 46.72712,68.483264 c 1.01404,-0.5427 0.97801,-2.72616 -0.0557,-3.37776 -1.58604,-0.99974 -2.39587,-0.50645 -2.21742,1.35072 0.0865,0.9003 0.25957,1.30042 0.74194,1.71533 0.70047,0.60252 0.90865,0.6449 1.53122,0.31171 z m 15.08653,-4.75403 c 2.07201,-4.13414 1.36475,-7.23999 -2.02176,-8.87828 -1.94876,-0.94275 -3.31637,-2.34004 -3.67401,-3.75374 -0.45567,-1.80116 -0.95755,-2.96457 -1.34264,-3.11234 -0.51487,-0.19758 -2.55982,0.4265 -5.00449,1.52728 -1.12289,0.50561 -2.16048,0.91929 -2.30576,0.91929 -0.14528,0 -0.59134,-0.31269 -0.99124,-0.69486 -1.06821,-1.02084 -2.363454,-2.392222 -4.149673,-2.572647 -0.693865,-0.07009 -1.659765,-1.031133 -1.659765,-1.031133 l 0.05613,1.627375 c 0.011,0.319044 -0.0025,0.705087 0.194164,1.136795 0.188968,0.414741 0.45725,0.59766 0.87891,0.59926 0.88913,0.003 2.9867,1.04878 3.30769,1.64856 0.20296,0.37922 0.20929,0.66671 0.0237,1.0741 -0.36676,0.80494 -1.45828,0.7373 -2.71961,-0.16852 -0.85003,-0.61045 -1.969925,-1.947155 -1.969925,-1.947155 l -8.7e-5,2.001647 c -1e-5,0.208722 0.0934,0.504827 0.300112,0.999578 0.451031,1.079498 3.11542,3.1336 5.46626,4.21423 1.05942,0.48699 3.52507,1.34233 5.47923,1.90076 1.95416,0.55843 3.71866,1.18097 3.92111,1.38342 0.91498,0.91498 -0.69288,2.55047 -2.79108,2.83904 -1.27013,0.17469 -1.5736,0.49988 -1.17009,1.25384 0.17136,0.32019 0.59959,0.52476 1.32675,0.63381 0.88809,0.13317 1.19024,0.0749 1.74771,-0.3373 0.3707,-0.27407 0.8907,-0.4983 1.15555,-0.4983 0.26485,0 1.06424,-0.47461 1.77642,-1.05469 0.71218,-0.58008 1.498,-1.05469 1.74626,-1.05469 0.59351,0 0.97973,0.76038 0.93069,1.83234 -0.0934,2.04059 0.28428,1.91695 1.48947,-0.48767 z"
   style="fill:#b99813;fill-opacity:1"
   id="path51" /><path
   d="m 46.72712,66.483264 c 1.01404,-0.5427 0.97801,-2.72616 -0.0557,-3.37776 -1.58604,-0.99974 -2.39587,-0.50645 -2.21742,1.35072 0.0865,0.9003 0.25957,1.30042 0.74194,1.71533 0.70047,0.60252 0.90865,0.6449 1.53122,0.31171 z m 15.08653,-4.75403 c 2.07201,-4.13414 1.36475,-7.23999 -2.02176,-8.87828 -1.94876,-0.94275 -3.31637,-2.34004 -3.67401,-3.75374 -0.45567,-1.80116 -0.95755,-2.96457 -1.34264,-3.11234 -0.51487,-0.19758 -2.55982,0.4265 -5.00449,1.52728 -1.12289,0.50561 -2.16048,0.91929 -2.30576,0.91929 -0.14528,0 -0.59134,-0.31269 -0.99124,-0.69486 -1.06821,-1.02084 -2.46289,-1.60778 -4.24911,-1.7882 -1.69767,-0.17148 -1.78993,-0.10468 -1.31003,0.94859 0.18897,0.41474 0.45725,0.59766 0.87891,0.59926 0.88913,0.003 2.9867,1.04878 3.30769,1.64856 0.20296,0.37922 0.20929,0.66671 0.0237,1.0741 -0.36676,0.80494 -1.45828,0.7373 -2.71961,-0.16852 -0.85003,-0.61045 -1.08722,-0.68311 -1.50316,-0.4605 -0.5824,0.31168 -0.60052,0.47636 -0.16674,1.51457 0.45105,1.07949 3.11542,3.1336 5.46626,4.21423 1.05942,0.48699 3.52507,1.34233 5.47923,1.90076 1.95416,0.55843 3.71866,1.18097 3.92111,1.38342 0.91498,0.91498 -0.69288,2.55047 -2.79108,2.83904 -1.27013,0.17469 -1.5736,0.49988 -1.17009,1.25384 0.17136,0.32019 0.59959,0.52476 1.32675,0.63381 0.88809,0.13317 1.19024,0.0749 1.74771,-0.3373 0.3707,-0.27407 0.8907,-0.4983 1.15555,-0.4983 0.26485,0 1.06424,-0.47461 1.77642,-1.05469 0.71218,-0.58008 1.498,-1.05469 1.74626,-1.05469 0.59351,0 0.97973,0.76038 0.93069,1.83234 -0.0934,2.04059 0.28428,1.91695 1.48947,-0.48767 z"
   style="fill:#e7bf1a;fill-opacity:1"
   id="path1-1" /><path
   id="path1899-9"
   d="M 118.00009,10.49139 54.28652,74.2298 c -1.74235,1.78371 -4.6351,1.81251 -6.41381,0.0639 -1.77875,-1.74866 -1.74945,-4.59254 0.0649,-6.30543 l 57.54596,-57.675 c 3.88453,-3.2754 9.34218,-2.94251 12.51651,0.17817 z"
   style="color:#000000;font-style:normal;font-variant:normal;font-weight:normal;font-stretch:normal;font-size:medium;line-height:normal;font-family:sans-serif;font-variant-ligatures:normal;font-variant-position:normal;font-variant-caps:normal;font-variant-numeric:normal;font-variant-alternates:normal;font-feature-settings:normal;text-indent:0;text-align:start;text-decoration:none;text-decoration-line:none;text-decoration-style:solid;text-decoration-color:#000000;letter-spacing:normal;word-spacing:normal;text-transform:none;writing-mode:lr-tb;direction:ltr;text-orientation:mixed;dominant-baseline:auto;baseline-shift:baseline;text-anchor:start;white-space:normal;shape-padding:0;clip-rule:nonzero;display:inline;overflow:visible;visibility:visible;isolation:auto;mix-blend-mode:normal;color-interpolation:sRGB;color-interpolation-filters:linearRGB;solid-color:#000000;solid-opacity:1;fill:url(#linearGradient14);fill-opacity:1;fill-rule:nonzero;stroke:none;stroke-width:1.47546;stroke-linecap:round;stroke-linejoin:miter;stroke-miterlimit:4;stroke-dasharray:none;stroke-dashoffset:0;stroke-opacity:1;color-rendering:auto;image-rendering:auto;shape-rendering:auto;text-rendering:auto;enable-background:accumulate" /><path
   id="path1899-3-0"
   d="m 72.12736,44.56579 a 5.9870105,5.8858319 0 0 1 4.17047,10.10664 L 55.34539,75.27078 A 5.9870105,5.8858319 0 1 1 46.87877,66.94724 L 67.83121,46.34889 a 5.9870105,5.8858319 0 0 1 4.29615,-1.7831 z"
   style="color:#000000;font-style:normal;font-variant:normal;font-weight:normal;font-stretch:normal;font-size:medium;line-height:normal;font-family:sans-serif;font-variant-ligatures:normal;font-variant-position:normal;font-variant-caps:normal;font-variant-numeric:normal;font-variant-alternates:normal;font-feature-settings:normal;text-indent:0;text-align:start;text-decoration:none;text-decoration-line:none;text-decoration-style:solid;text-decoration-color:#000000;letter-spacing:normal;word-spacing:normal;text-transform:none;writing-mode:lr-tb;direction:ltr;text-orientation:mixed;dominant-baseline:auto;baseline-shift:baseline;text-anchor:start;white-space:normal;shape-padding:0;clip-rule:nonzero;display:inline;overflow:visible;visibility:visible;isolation:auto;mix-blend-mode:normal;color-interpolation:sRGB;color-interpolation-filters:linearRGB;solid-color:#000000;solid-opacity:1;fill:url(#linearGradient15);fill-opacity:1;fill-rule:nonzero;stroke:none;stroke-width:1.96728;stroke-linecap:round;stroke-linejoin:miter;stroke-miterlimit:4;stroke-dasharray:none;stroke-dashoffset:0;stroke-opacity:1;color-rendering:auto;image-rendering:auto;shape-rendering:auto;text-rendering:auto;enable-background:new" /><path
   id="path1901-9"
   d="m 54.10538,53.45328 c 8.2655,0 14.96603,6.58729 14.96603,14.71311 0,8.12582 -6.70053,14.71311 -14.96603,14.71311 H 39.13935 V 68.16639 c 0,-8.12582 6.70052,-14.71311 14.96603,-14.71311 z"
   style="fill:url(#radialGradient1425-6);fill-opacity:1;stroke:none;stroke-width:1.47546;stroke-linecap:round;stroke-linejoin:miter;stroke-miterlimit:4;stroke-dasharray:none;stroke-dashoffset:0;stroke-opacity:1;marker:none;marker-start:none;marker-mid:none;marker-end:none;paint-order:normal" /><ellipse
   transform="scale(-1)"
   cy="-60.940357"
   cx="-55.602001"
   id="circle21711-7-41-9-1"
   style="color:#000000;display:inline;overflow:visible;visibility:visible;fill:#7a8599;fill-opacity:1;fill-rule:nonzero;stroke:none;stroke-width:0.440463;marker:none;enable-background:new"
   rx="2.3776841"
   ry="2.337502" /><path
   d="m 70.909126,108.65231 c 0.92661,-0.42079 1.73027,-1.25005 1.73027,-1.78539 0,-0.68588 -0.71568,-1.06062 -2.92968,-1.53403 -2.81306,-0.60151 -3.32744,-0.88867 -3.53047,-1.97092 -0.32388,-1.72644 0.16711,-2.31428 2.33504,-2.7957 0.63645,-0.14134 1.204171,-0.3979 1.26158,-0.570145 0.0099,-0.02976 0.0047,-0.05538 0.0046,-0.08036 l -0.0046,-1.919637 c 0,0 -8.81409,1.86589 -9.7971,0.61621 -0.54598,-0.6941 -0.61054,-1.98904 -0.11948,-2.39659 0.18969,-0.15742 1.53442,-0.381034 2.98828,-0.49691 2.149332,-0.171306 3.200258,-0.313745 3.199456,-0.556625 l -0.0065,-1.973687 -4.154257,0.02216 c -0.7111,0.0038 -1.237834,-0.830324 -0.857983,-2.141037 0.100399,-0.346434 0.50757,-1.386023 0.38767,-1.460093 -0.11986,-0.0741 -0.793739,-0.02993 -1.130289,0.190636 -1.06031,0.69474 -2.951058,0.339464 -4.904938,-0.821316 -2.92825,-1.73964 -3.98082,-1.64475 -6.31776,0.56953 -0.89038,0.84364 -1.88254,1.64208 -2.20481,1.7743 -0.36328,0.14906 -1.43201,0.17743 -2.8125,0.0747 -3.10594,-0.23122 -5.38423,-0.36441 -6.21093,-0.36309 -1.07618,0.002 -3.873515,-0.456871 -3.873515,-0.456871 l 2e-5,2.000001 0.46846,0.76172 c 0.39419,0.64096 0.60834,0.76193 1.35081,0.76303 1.139265,0.002 2.648355,0.41719 3.157185,0.86929 0.44939,0.39927 0.78072,2.11357 0.54939,2.84245 -0.0835,0.26295 -0.832148,0.907813 -1.66377,1.43303 -0.392903,0.248141 -1.51202,-0.8496 -1.51202,-0.8496 v 2.000004 c 0,0.35583 1.27867,2.09589 1.8935,2.57674 1.3569,1.06122 1.67359,0.95931 8.13705,-2.6184 1.32735,-0.734734 2.79042,-1.493414 3.25128,-1.685974 0.94534,-0.39499 2.71069,-0.46258 3.33634,-0.12775 0.22851,0.1223 1.1612,1.15062 2.07265,2.285164 2.82428,3.51558 5.14276,5.47778 8.37949,7.09181 2.34704,1.17038 5.82014,1.50875 7.52754,0.73339 z"
   style="fill:#8b9e1f;fill-opacity:1"
   id="path52" /><path
   d="m 70.909126,106.65231 c 0.92661,-0.42079 1.73027,-1.25005 1.73027,-1.78539 0,-0.68588 -0.71568,-1.06062 -2.92968,-1.53403 -2.81306,-0.60151 -3.32744,-0.88867 -3.53047,-1.97092 -0.32388,-1.726435 0.16711,-2.314275 2.33504,-2.795695 0.63645,-0.14134 1.20416,-0.3979 1.26158,-0.57015 0.0847,-0.25413 -0.39775,-0.2882 -2.55901,-0.18071 -5.03036,0.25019 -6.25508,0.0466 -7.23809,-1.20308 -0.54598,-0.6941 -0.61054,-1.98904 -0.11948,-2.39659 0.18969,-0.15742 1.53442,-0.38103 2.98828,-0.49691 3.90994,-0.31163 4.10962,-0.53102 1.29115,-1.41866 -0.93205,-0.29354 -1.94566,-0.78381 -2.25247,-1.08949 -0.50376,-0.5019 -0.54612,-0.70182 -0.43693,-2.06209 0.0665,-0.82847 0.0229,-1.56692 -0.097,-1.64099 -0.11986,-0.0741 -0.49328,0.0457 -0.82983,0.26627 -1.06031,0.69474 -3.1879,0.36578 -5.14178,-0.795 -2.92825,-1.73964 -3.98082,-1.64475 -6.31776,0.56953 -0.89038,0.84364 -1.88254,1.64208 -2.20481,1.7743 -0.36328,0.14906 -1.43201,0.17743 -2.8125,0.0747 -3.10594,-0.23122 -5.38423,-0.36441 -6.21093,-0.36309 -1.07618,0.002 -2.551186,0.47224 -3.247046,1.03579 l -0.62645,0.50734 0.46846,0.76172 c 0.39419,0.64096 0.60834,0.76193 1.35081,0.76303 1.139266,0.002 2.648356,0.41719 3.157186,0.86929 0.44939,0.39927 0.78072,2.11357 0.54939,2.84245 -0.0835,0.26295 -0.83215,0.90781 -1.66377,1.43303 -0.83161,0.52521 -1.51202,1.04289 -1.51202,1.1504 0,0.35583 1.27867,2.095895 1.8935,2.576745 1.3569,1.06122 1.67359,0.95931 8.13705,-2.618405 1.32735,-0.73473 2.79042,-1.49341 3.25128,-1.68597 0.94534,-0.39499 2.71069,-0.46258 3.33634,-0.12775 0.22851,0.1223 1.1612,1.15062 2.07265,2.28516 2.82428,3.515585 5.14276,5.477785 8.37949,7.091815 2.34704,1.17038 5.82014,1.50875 7.52754,0.73339 z"
   style="fill:#b1c927;fill-opacity:1"
   id="path1" /><path
   d="m 23.07539,43.423893 c 0.53507,-0.27297 1.91159,-1.17551 3.05894,-2.00564 3.40191,-2.46135 4.76563,-3.01241 4.76563,-1.92574 0,1.33425 0.58682,1.67923 1.62249,0.95382 0.98393,-0.68918 1.91778,-0.82491 2.91903,-0.42429 0.876598,0.35074 0.957378,0.34403 1.559546,-0.12964 0.859557,-0.67613 1.000157,-0.63606 1.182716,0.33707 0.223449,1.19108 0.437969,1.21601 1.833936,0.21311 0.9271,-0.66605 1.54484,-0.91992 2.43618,-1.00116 1.48541,-0.13539 1.67251,-0.28387 2.00085,-1.5878 0.17913,-0.71139 0.49394,-1.21203 0.97959,-1.55785 0.43292,-0.30826 0.71565,-0.72175 0.71565,-1.04661 0,-0.29537 0.307558,-0.949531 0.68347,-1.45369 0.390674,-0.523956 0.551543,-1.034545 0.551856,-1.436224 l 0.0015,-1.944858 c 0,0 -0.39803,1.20489 -0.723002,1.157372 -0.522519,-0.0764 -0.52146,-0.0833 0.14668,-0.95313 1.035264,-1.347744 1.554291,-2.548859 1.554128,-3.388194 l -3.7e-4,-1.899253 c 0,0 -0.233633,1.116833 -0.392618,0.984887 -2.877407,-2.388044 -5.69829,-1.62512 -6.50172,1.75843 -0.51587,2.17253 -0.37058,2.07921 -3.328596,2.13774 -2.560456,0.0507 -2.562036,0.0511 -2.946206,0.74358 -1.2697,2.28881 -2.17029,3.38994 -3.14976,3.85114 -0.56443,0.26577 -1.63359,0.77115 -2.3759,1.12308 -0.74232,0.35193 -1.53633,0.84613 -1.76447,1.09822 -0.22814,0.25209 -0.6733,0.45835 -0.98924,0.45835 -1.60942,0 -5.77042,3.558137 -5.77042,3.558137 l -6.2e-4,1.950564 c -3e-5,0.09371 0.0108,0.179601 0.0376,0.256479 0.27848,0.798828 0.60618,0.82862 1.89307,0.1721 z"
   style="fill:#5531af;fill-opacity:1"
   id="path49" /><path
   d="m 23.07539,41.423893 c 0.53507,-0.27297 1.91159,-1.17551 3.05894,-2.00564 3.40191,-2.46135 4.76563,-3.01241 4.76563,-1.92574 0,1.33425 0.58682,1.67923 1.62249,0.95382 0.98393,-0.68918 1.91778,-0.82491 2.91903,-0.42429 0.876598,0.35074 0.957378,0.34403 1.559546,-0.12964 0.859557,-0.67613 1.000157,-0.63606 1.182716,0.33707 0.223449,1.19108 0.437969,1.21601 1.833936,0.21311 0.9271,-0.66605 1.54484,-0.91992 2.43618,-1.00116 1.48541,-0.13539 1.67251,-0.28387 2.00085,-1.5878 0.17913,-0.71139 0.49394,-1.21203 0.97959,-1.55785 0.43292,-0.30826 0.71565,-0.72175 0.71565,-1.04661 0,-0.29537 0.30756,-0.94953 0.68347,-1.45369 0.8005,-1.0736 0.72271,-2.09323 -0.16963,-2.22371 -0.52252,-0.0764 -0.52146,-0.0833 0.14668,-0.95313 1.51698,-1.97486 1.9651,-3.63533 1.16114,-4.30256 -2.87741,-2.38804 -5.69829,-1.62512 -6.50172,1.75843 -0.51587,2.17253 -0.37058,2.07921 -3.328596,2.13774 -2.560452,0.0507 -2.562032,0.0511 -2.946202,0.74358 -1.2697,2.28881 -2.17029,3.38994 -3.14976,3.85114 -0.56443,0.26577 -1.63359,0.77115 -2.3759,1.12308 -0.74232,0.35193 -1.53633,0.84613 -1.76447,1.09822 -0.22814,0.25209 -0.6733,0.45835 -0.98924,0.45835 -1.87449,0 -6.21993,4.36953 -5.7334,5.76518 0.27847,0.79883 0.60618,0.82862 1.89307,0.1721 z"
   style="fill:#6c46cb;fill-opacity:1"
   id="path1-5" /><path
   d="m 86.765353,101.28071 c 2.95291,-3.437141 5.21752,-9.192551 4.80403,-12.209271 -0.13163,-0.96034 -0.10257,-1.026929 0.50724,-1.16247 1.512883,-0.336266 3.272832,-2.795905 3.271792,-4.190225 l -0.0016,-2.109695 c -0.734831,-0.470648 -3.738969,0.59034 -4.693819,1.67901 -0.51853,0.5912 -0.80554,-0.37117 -1.00737,-3.37777 -0.082,-1.22196 -0.2525,-2.08472 -0.4348,-2.20045 -0.16493,-0.10471 -0.20283,-0.19202 -0.0842,-0.19403 0.34688,-0.006 -0.62957,-0.97375 -1.36716,-1.35518 -1.70704,-0.88274 -3.34619,-0.31602 -4.59828,1.58982 -1.11245,1.69328 -1.24999,2.19529 -1.30749,4.77221 -0.0346,1.55135 -0.159941,2.522869 -0.34806,2.6981 -2.329657,2.170045 -3.686427,3.827209 -3.686427,3.827209 0,0 -0.01176,1.678148 -0.0019,1.954094 0.0201,0.56213 0.143413,1.162599 0.349631,1.847807 0.184824,0.614119 0.33986,1.17007 0.34454,1.23546 0.01,0.13929 1.82835,3.79849 2.26457,4.55704 0.6112,1.062839 2.70453,2.968971 3.61776,3.294251 1.34849,0.48032 1.41001,0.4633 2.37154,-0.65591 z"
   style="fill:#a53158;fill-opacity:1"
   id="path53" /><path
   d="m 86.765353,99.280713 c 2.95291,-3.437144 5.21752,-9.192554 4.80403,-12.209274 -0.13163,-0.96034 -0.10257,-1.02693 0.50724,-1.16247 1.86536,-0.41461 4.06432,-4.05766 2.98826,-4.95071 -1.12448,-0.93323 -3.45701,-0.75887 -4.41186,0.3298 -0.51853,0.5912 -0.80554,-0.37117 -1.00737,-3.37777 -0.082,-1.22196 -0.2525,-2.08472 -0.4348,-2.20045 -0.16493,-0.10471 -0.20283,-0.19202 -0.0842,-0.19403 0.34688,-0.006 -0.62957,-0.97375 -1.36716,-1.35518 -1.70704,-0.88274 -3.34619,-0.31602 -4.59828,1.58982 -1.11245,1.69328 -1.24999,2.19529 -1.30749,4.77221 -0.0346,1.55135 -0.15994,2.52287 -0.34806,2.6981 -3.6034,3.35652 -4.20846,4.7391 -3.33869,7.62911 0.18482,0.61412 0.33986,1.17007 0.34454,1.23546 0.01,0.13929 1.82835,3.79849 2.26457,4.55704 0.6112,1.062839 2.70453,2.968973 3.61776,3.294252 1.34849,0.480319 1.41001,0.463299 2.37154,-0.655908 z"
   style="fill:#c74470;fill-opacity:1"
   id="path1-73" /><path
   d="m 27.10607,85.954595 c 0.0105,-1.620343 0.91055,-4.102044 3.34247,-9.216329 4.17081,-8.771146 4.5655,-12.089806 1.51353,-12.72633 -1.29354,-0.269783 -1.35576,-0.400324 -0.98242,-2.061185 0.16982,-0.755477 0.24865,-1.929178 0.17519,-2.608207 -0.0735,-0.679029 -0.15811,-1.525332 -0.18808,-1.880662 -0.03,-0.355339 0.30031,-1.474642 0.73397,-2.487338 0.43047,-1.005247 0.56501,-1.791213 0.56474,-2.366318 l -7.8e-4,-1.677676 c 0,0 -0.99684,0.403419 -2.24128,0.602701 -1.25278,0.200617 -1.80169,0.930275 -3.48538,4.632786 -1.21777,2.677949 -1.27101,2.629986 -0.49327,-0.444267 0.72425,-2.862807 0.72425,-2.862807 0.0712,-3.450902 -1.44381,-1.300188 -1.55138,-1.28232 -1.97343,0.327788 -0.20833,0.794813 -0.54987,1.717313 -0.75896,2.049999 -0.2091,0.332691 -0.29851,0.648822 -0.19872,0.702517 0.0998,0.05368 0.0167,0.260392 -0.1846,0.459309 -0.20701,0.2045 -0.249,0.424663 -0.0967,0.506629 0.14812,0.07975 0.17808,0.163644 0.0665,0.186458 -0.11155,0.02284 -0.17575,0.130802 -0.14263,0.239968 0.0331,0.109148 -0.15008,0.542463 -0.40707,0.96292 -0.25699,0.420448 -0.37381,0.899366 -0.25958,1.064253 0.13447,0.194102 0.07,0.321625 -0.18287,0.361695 -0.28605,0.04534 -0.30236,0.133343 -0.061,0.328824 0.18128,0.146786 0.25756,0.295304 0.16952,0.330023 -0.49528,0.195307 -0.63479,0.457833 -0.39665,0.746395 0.14801,0.179364 0.14545,0.368734 -0.006,0.42081 -0.28,0.09654 -0.69946,2.182697 -0.65139,3.239957 0.0146,0.320901 0.2417,0.932667 0.50469,1.359483 0.85514,1.387949 0.61098,7.441096 -0.34985,8.671886 -1.38345,1.772136 -1.43528,1.756879 -1.64312,-0.483933 -0.1033,-1.113631 -0.15537,-2.382824 -0.11572,-2.820436 0.26024,-2.872657 -3.5813,-3.947946 -4.06933,-1.139039 -0.53005,3.050792 1.03884,6.020657 3.30802,6.262021 0.80039,0.08513 0.80039,0.08513 -0.14013,1.111392 -0.75784,0.826918 -0.87944,1.088064 -0.62607,1.344507 0.17298,0.175016 0.26243,0.67973 0.19886,1.121515 -0.16304,1.133013 0.39017,1.949394 1.66276,2.453762 1.30029,0.515358 1.21943,0.371182 1.00393,1.790058 -0.42103,2.772382 0.99817,4.04441 4.33781,3.887964 1.66402,-0.07795 1.99214,-0.373533 2.00141,-1.802983 z M 21.45162,63.082684 c -0.0328,-0.05672 -0.0132,-0.129978 0.0436,-0.162748 0.0567,-0.03275 0.12998,-0.01315 0.16275,0.04361 0.0328,0.05673 0.0132,0.129979 -0.0436,0.162749 -0.0567,0.03275 -0.12998,0.01315 -0.16275,-0.04361 z m 3.58674,-4.271951 c -0.0327,-0.05672 -0.0131,-0.129978 0.0436,-0.162753 0.0567,-0.03275 0.12998,-0.01315 0.16275,0.04361 0.0328,0.05673 0.0131,0.129979 -0.0436,0.162749 -0.0567,0.03275 -0.12998,0.01316 -0.16275,-0.0436 z m -5.2094,4.80704 0.007,-1.747958 c -0.0828,-0.356478 -0.36678,0.161577 -0.65651,-0.340251 -0.32717,-0.566669 -0.62361,-1.32869 -0.65875,-1.6934 -0.12802,-1.328526 -3.07813,-3.86493 -4.17672,-3.230661 0,0 -0.003,1.24272 -0.0178,1.514913 -0.0625,1.146496 0.80354,3.72768 1.83296,5.087746 1.48746,1.96522 3.66306,2.221726 3.67007,0.409611 z"
   style="fill:#39abcb;fill-opacity:1"
   id="path50" /><path
   d="m 27.10607,83.954595 c 0.20624,-2.794273 1.61478,-5.313544 2.69835,-7.845891 1.58595,-3.496226 3.46651,-6.958582 4.10943,-10.784086 0.36073,-1.510488 -0.47817,-3.291829 -2.18008,-3.362042 -1.79695,-0.290041 -0.41422,-2.345007 -0.56483,-3.521203 0.11663,-1.510102 -0.54915,-3.07118 0.16335,-4.512761 0.39076,-1.269504 1.39996,-2.683873 0.67991,-4.005394 -1.12902,-0.929718 -3.09947,-0.408841 -3.76197,0.885695 -1.10016,1.656573 -1.66673,3.619364 -2.70715,5.292066 0.15345,-1.770929 1.01779,-3.449367 1.0283,-5.234626 -0.51547,-1.09395 -2.39687,-2.322738 -2.42885,-0.267697 -0.40361,1.28043 -0.88353,2.496837 -1.31723,3.633472 0.40424,0.715376 -1.01238,1.927298 -0.69324,2.854152 -0.88728,0.113513 0.57593,0.804169 -0.519,1.043198 0.33325,1.186363 -0.84444,2.464683 -0.58436,3.859378 0.23445,1.443535 1.21054,2.712865 1.01608,4.268765 0.0169,1.958022 0.0303,4.021552 -0.76959,5.842936 -0.4172,0.784619 -1.75314,2.238907 -1.65756,0.382129 -0.18729,-1.431983 -0.18728,-2.879638 -0.21807,-4.316097 -0.1527,-1.607183 -2.43956,-2.778303 -3.59457,-1.420364 -0.87994,1.411604 -0.60863,3.286003 -0.0535,4.776135 0.53548,1.396056 1.81176,2.568493 3.36361,2.591286 0.20427,0.905648 -2.0841,1.693217 -1.02609,2.851367 -0.21931,1.296313 0.25789,2.752158 1.67348,3.114558 1.90325,0.228636 0.64316,2.194605 0.99264,3.394803 0.23464,1.75532 2.21541,2.369452 3.7454,2.295795 1.29586,0.05275 2.84102,-0.07437 2.60554,-1.815574 z M 21.45162,61.082684 c 0.0376,-0.576119 0.4752,0.261265 0,0 z m 3.58674,-4.271951 c 0.0249,-0.549924 0.48855,0.253517 0,0 z m -5.2094,4.80704 c -0.18609,-1.619616 -1.20114,-2.998614 -1.62944,-4.537322 -0.85245,-1.02105 -2.30591,-1.940495 -3.66179,-1.498477 -0.56349,1.229205 0.23324,2.673008 0.63799,3.874432 0.65552,1.54841 1.83751,3.286935 3.67993,3.381059 0.64717,0.01548 1.05666,-0.618939 0.97331,-1.219692 z"
   style="fill:#61bcd5;fill-opacity:1"
   id="path1-7" /></svg>
