<?xml version="1.0" encoding="UTF-8" standalone="no"?>
<!-- Created with Inkscape (http://www.inkscape.org/) -->

<svg
   version="1.0"
   width="128"
   height="128"
   id="svg4292"
   xml:space="preserve"
   xmlns:xlink="http://www.w3.org/1999/xlink"
   xmlns="http://www.w3.org/2000/svg"
   xmlns:svg="http://www.w3.org/2000/svg"><defs
     id="defs4294"><linearGradient
       id="linearGradient1571"><stop
         style="stop-color:#b2b2b2;stop-opacity:1;"
         offset="0"
         id="stop1567" /><stop
         style="stop-color:#e5e5e5;stop-opacity:1;"
         offset="0.03567462"
         id="stop1575" /><stop
         style="stop-color:#b2b2b2;stop-opacity:1;"
         offset="0.07302466"
         id="stop1577" /><stop
         style="stop-color:#b2b2b2;stop-opacity:1;"
         offset="0.92681795"
         id="stop1579" /><stop
         style="stop-color:#e5e5e5;stop-opacity:1;"
         offset="0.96064132"
         id="stop1581" /><stop
         style="stop-color:#b2b2b2;stop-opacity:1;"
         offset="1"
         id="stop1569" /></linearGradient><linearGradient
       xlink:href="#linearGradient1571"
       id="linearGradient1573"
       x1="12"
       y1="66"
       x2="116"
       y2="66"
       gradientUnits="userSpaceOnUse" /></defs><rect
     style="display:inline;fill:url(#linearGradient1573);fill-opacity:1;stroke:none;stroke-width:0.25;stroke-linecap:butt;stroke-linejoin:miter;stroke-miterlimit:4;stroke-dasharray:none;stroke-dashoffset:0;stroke-opacity:1;marker:none;marker-start:none;marker-mid:none;marker-end:none;paint-order:normal;enable-background:new"
     id="rect1711-5"
     width="104"
     height="100"
     x="12"
     y="16"
     rx="8"
     ry="8" /><rect
     style="display:inline;fill:#ffffff;fill-opacity:1;stroke:none;stroke-width:0.25;stroke-linecap:butt;stroke-linejoin:miter;stroke-miterlimit:4;stroke-dasharray:none;stroke-dashoffset:0;stroke-opacity:1;marker:none;marker-start:none;marker-mid:none;marker-end:none;paint-order:normal;enable-background:new"
     id="rect1711"
     width="104"
     height="100"
     x="12"
     y="12"
     rx="8"
     ry="8" /><path
     d="m 56.723126,60.703931 c -4.53533,-0.316477 -9.17075,1.44884 -13.84766,5.28125 -1.64299,1.346316 -5.66097,5.978235 -5.39258,6.216795 0.0997,0.0886 2.31637,1.96674 4.92774,4.17383 2.61136,2.20709 8.84659,7.48033 13.85546,11.71875 5.00888,4.23841 9.12638,7.70703 9.14844,7.70703 0.0221,0 0.89735,-1.0279 1.94532,-2.28516 2.13899,-2.56619 3.56445,-4.81464 4.55468,-7.18164 2.60235,-6.22057 2.34316,-11.79192 -0.76758,-16.488277 -2.19123,-3.308137 -6.46236,-6.807231 -9.92382,-8.130859 -1.48695,-0.568596 -2.98823,-0.906227 -4.5,-1.011719 z"
     style="display:inline;fill:#9538e6;fill-opacity:1;stroke:none;stroke-width:0.25;stroke-linecap:butt;stroke-linejoin:miter;stroke-miterlimit:4;stroke-dasharray:none;stroke-dashoffset:0;stroke-opacity:1;marker:none;marker-start:none;marker-mid:none;marker-end:none;paint-order:normal;enable-background:new"
     id="path1-2" /><path
     d="m 39.10646,77.194006 c -0.35466,0.0524 -4.69114,5.45776 -5.32226,6.63672 -0.76379,1.42677 -0.74061,2.11325 0.0977,2.8789 0.86763,0.79246 1.5296,0.77448 2.77539,-0.0781 1.0053,-0.68802 5.83509,-6.03176 5.85547,-6.47852 0.0124,-0.27144 -3.08916,-2.96889 -3.40234,-2.95898 -10e-4,4e-5 -0.003,-2.1e-4 -0.004,0 z"
     style="display:inline;fill:#cdc6fd;fill-opacity:1;stroke:none;stroke-width:0.25;stroke-linecap:butt;stroke-linejoin:miter;stroke-miterlimit:4;stroke-dasharray:none;stroke-dashoffset:0;stroke-opacity:1;marker:none;marker-start:none;marker-mid:none;marker-end:none;paint-order:normal;enable-background:new"
     id="path1-23" /><path
     d="m 56.497908,91.899572 c -0.0379,0.0402 -0.92939,1.098 -1.98047,2.34961 -3.28823,3.91558 -4.30847,5.795688 -3.65235,6.732418 0.52522,0.74986 1.42593,1.25255 2.00391,1.1211 0.28446,-0.0647 0.88862,-0.37759 1.34375,-0.69727 0.75641,-0.53128 5.23663,-5.453818 5.69531,-6.257808 0.15816,-0.27724 -0.1426,-0.62647 -1.57422,-1.83203 -0.97259,-0.81901 -1.79803,-1.45623 -1.83593,-1.41602 z"
     style="display:inline;fill:#cdc6fd;fill-opacity:1;stroke:none;stroke-width:0.25;stroke-linecap:butt;stroke-linejoin:miter;stroke-miterlimit:4;stroke-dasharray:none;stroke-dashoffset:0;stroke-opacity:1;marker:none;marker-start:none;marker-mid:none;marker-end:none;paint-order:normal;enable-background:new"
     id="path1-5" /><path
     style="fill:#000000"
     d="m 51.006808,104.36719 c -1.606975,-0.69498 -2.899953,-2.5099 -2.891384,-4.05858 0.01022,-1.846169 1.067271,-3.685667 4.41114,-7.676307 1.995184,-2.381092 2.043214,-2.462379 1.663796,-2.815867 -0.214883,-0.200198 -2.2526,-1.928542 -4.52826,-3.840765 -2.27566,-1.912222 -4.330489,-3.649775 -4.566287,-3.861228 -0.425314,-0.381403 -0.443637,-0.366765 -2.304463,1.841015 -4.255692,5.049175 -6.291229,6.416977 -8.661437,5.820152 -1.031837,-0.25982 -2.611911,-1.538419 -3.123339,-2.527413 -0.436511,-0.844118 -0.415675,-2.48922 0.04627,-3.653241 0.508976,-1.282532 2.015807,-3.423333 4.222803,-5.999467 l 1.860961,-2.172221 -1.074493,-0.930952 C 35.471145,73.980293 34.68084,73.282079 34.305883,72.94073 l -0.68174,-0.620634 2.779968,-3.333213 c 3.771338,-4.521874 6.461454,-6.787711 10.361694,-8.727472 2.227224,-1.107695 4.678993,-1.852752 7.059618,-2.145313 4.160266,-0.511267 8.626548,0.695285 12.593809,3.402176 l 1.241269,0.846927 2.329927,0.0875 c 10.782209,0.40492 20.210514,-6.639702 21.898403,-16.362005 0.55376,-3.189681 0.09163,-6.203231 -1.388247,-9.052753 -3.221701,-6.203426 -10.386901,-9.74648 -16.927924,-8.370534 -4.767384,1.00285 -8.984783,5.155971 -10.571518,10.410395 -0.63623,2.106854 -0.530356,5.004649 0.243347,6.660448 1.667874,3.56941 5.149208,5.792588 9.070771,5.792588 3.877147,0 6.843072,-2.047493 7.449283,-5.14253 0.340234,-1.73708 0.597063,-2.257802 1.340079,-2.717011 1.298792,-0.802697 3.030725,-0.313435 3.739019,1.056255 0.408065,0.78911 0.297761,2.092242 -0.3428,4.04983 -1.203221,3.677109 -4.630739,6.657273 -8.772092,7.627173 -2.026702,0.474651 -5.162784,0.432401 -7.196612,-0.09695 -2.688007,-0.699622 -4.73559,-1.901871 -6.888132,-4.044399 -1.531937,-1.524812 -2.037781,-2.194939 -2.739079,-3.628657 -1.156956,-2.365251 -1.485189,-3.782439 -1.483445,-6.404969 0.0054,-8.192072 6.070532,-16.135335 14.066266,-18.422168 1.983333,-0.567247 5.557975,-0.759858 7.886526,-0.424947 7.241459,1.041527 13.936038,6.314137 16.598609,13.072965 3.035662,7.705905 0.793541,16.864587 -5.708937,23.320033 -4.472532,4.440183 -9.238548,6.685811 -16.529252,7.788172 l -0.752787,0.113822 0.911678,1.598248 c 1.792448,3.142311 2.426626,5.519229 2.413501,9.045861 -0.01671,4.490144 -1.478142,9.12606 -4.206464,13.343642 -0.828475,1.2807 -5.304745,6.752551 -6.121889,7.483476 -0.367873,0.329059 -0.468862,0.275672 -2.042038,-1.079494 -0.910264,-0.78412 -1.722889,-1.405376 -1.805832,-1.38057 -0.08294,0.02481 -1.186147,1.255153 -2.451565,2.734102 -3.499895,4.090486 -5.073354,5.270596 -7.017464,5.263176 -0.512023,-0.002 -1.256785,-0.14447 -1.655025,-0.3167 z m 3.206612,-2.96166 c 0.75641,-0.53128 5.235584,-5.453545 5.694257,-6.257535 0.158167,-0.277245 -0.141364,-0.626017 -1.572984,-1.831574 -0.972595,-0.819015 -1.799369,-1.456219 -1.837276,-1.416009 -0.03791,0.04021 -0.928897,1.097157 -1.979979,2.34877 -3.288229,3.915574 -4.308023,5.795558 -3.651911,6.732288 0.525221,0.74986 1.425202,1.25436 2.003184,1.12291 0.284458,-0.0647 0.889577,-0.37917 1.344709,-0.69885 z m 13.14532,-7.890688 c 2.138991,-2.566197 3.565237,-4.814668 4.555468,-7.181676 2.602353,-6.220566 2.342927,-11.791315 -0.767822,-16.487671 -2.191228,-3.308137 -6.462372,-6.807878 -9.923831,-8.131506 -5.947808,-2.274384 -12.112393,-0.839707 -18.348278,4.270173 -1.642987,1.346316 -5.66076,5.97872 -5.392368,6.217283 0.09969,0.08861 2.31783,1.966914 4.929197,4.174006 2.611368,2.207091 8.846109,7.480689 13.85498,11.719105 5.008872,4.238417 9.125093,7.706212 9.147158,7.706212 0.02206,0 0.897538,-1.028667 1.945496,-2.285926 z M 36.657905,86.630755 c 1.005291,-0.688029 5.835715,-6.032331 5.856099,-6.479093 0.01239,-0.271438 -3.089514,-2.968346 -3.402691,-2.958427 -0.324569,0.01028 -4.693516,5.453912 -5.327113,6.637491 -0.763786,1.426778 -0.740455,2.113413 0.09783,2.879064 0.86763,0.792458 1.530086,0.773596 2.77588,-0.07904 z"
     id="path1" /></svg>
