<?xml version="1.0" encoding="UTF-8" standalone="no"?>
<!-- Created with Inkscape (http://www.inkscape.org/) -->

<svg
   width="128"
   height="128"
   viewBox="0 0 128 128"
   version="1.1"
   id="svg1"
   xmlns:xlink="http://www.w3.org/1999/xlink"
   xmlns="http://www.w3.org/2000/svg"
   xmlns:svg="http://www.w3.org/2000/svg">
  <defs
     id="defs1">
    <linearGradient
       xlink:href="#linearGradient1"
       id="linearGradient2-3"
       x1="-133"
       y1="144"
       x2="-12.999992"
       y2="144"
       gradientUnits="userSpaceOnUse"
       gradientTransform="matrix(1,0,0,0.98333332,137,-75.6)" />
    <linearGradient
       id="linearGradient1">
      <stop
         style="stop-color:#005d8a;stop-opacity:1;"
         offset="0"
         id="stop1" />
      <stop
         style="stop-color:#66cdff;stop-opacity:1;"
         offset="0.41190839"
         id="stop3" />
      <stop
         style="stop-color:#005d8a;stop-opacity:1;"
         offset="0.81191468"
         id="stop5" />
      <stop
         style="stop-color:#008acc;stop-opacity:1;"
         offset="1"
         id="stop6" />
    </linearGradient>
  </defs>
  <path
     style="fill:url(#linearGradient2-3);fill-rule:evenodd;stroke:none;stroke-width:11.1733;stroke-linecap:square;stroke-linejoin:bevel"
     id="path94-6"
     d="M 124.00001,65.999998 C 124.00001,98.584667 97.13696,125 64,125 30.86291,125 4,98.584667 4,65.999998 4,33.415193 30.86291,6.9999987 64,6.9999987 c 33.13696,0 60.00001,26.4151943 60.00001,58.9999993"
     vector-effect="none" />
  <path
     style="fill:#00acff;fill-opacity:1;fill-rule:evenodd;stroke:none;stroke-width:11.1733;stroke-linecap:square;stroke-linejoin:bevel"
     id="path94"
     d="M 124.00001,61.999999 C 124.00001,94.584667 97.13696,121 64,121 30.86291,121 4,94.584667 4,61.999999 4,29.415193 30.86291,3 64,3 c 33.13696,0 60.00001,26.415193 60.00001,58.999999"
     vector-effect="none" />
  <path
     id="path847-5"
     style="fill:#ffffff;stroke-width:0.232442"
     d="m 64.15142,14.87375 c -7.8492,0 -14.02867,1.333918 -20.78138,4.481757 -14.51792,6.767629 -24.628,20.320284 -26.94547,36.121083 -0.46336,3.16077 -0.46678,9.518234 -0.006,12.976541 1.07664,8.07807 4.33956,15.72233 9.58795,22.456813 1.87423,2.404913 6.16886,6.654305 8.45708,8.369914 7.01573,5.260142 15.0542,8.555902 23.45912,9.616662 2.70628,0.34161 9.67006,0.29356 12.61727,-0.0864 8.529726,-1.09976 17.125336,-4.77859 23.869276,-10.216029 2.45858,-1.982272 6.163984,-5.816036 8.060604,-8.339176 6.38233,-8.490773 9.45514,-17.617496 9.45514,-28.083503 0,-7.950323 -1.38385,-13.975944 -4.80081,-20.902701 -2.5261,-5.120775 -5.47593,-9.080409 -9.875064,-13.25509 C 88.117296,19.347742 76.846846,14.873792 64.15128,14.873792 Z m -0.15625,7.138538 c 6.96908,0.007 12.274936,1.241866 18.466906,4.295418 4.08071,2.012386 7.25228,4.331172 10.73639,7.849319 5.58846,5.643082 9.136684,12.236638 10.783274,20.044003 0.62156,2.947204 0.85638,9.736366 0.44922,12.945804 -0.84532,6.663478 -3.71713,13.564645 -7.939504,19.073883 -1.55675,2.031227 -5.26989,5.719399 -7.41802,7.367142 -4.03984,3.098805 -8.22449,5.23716 -13.35945,6.829253 -1.762056,0.54627 -2.058816,0.55219 -1.900396,0.0385 0.359736,-1.166774 0.613766,-2.740672 0.701166,-4.356893 0.13852,-2.560552 1.78668,-6.622448 3.43752,-8.471731 1.45207,-1.626641 1.72922,-2.923785 1.75782,-8.206631 0.0236,-4.373262 0.0711,-4.883745 0.64259,-6.844621 0.97275,-3.337968 1.98132,-5.694657 3.15822,-7.38443 0.59811,-0.858757 1.5535,-2.391687 2.12306,-3.405983 0.56956,-1.014312 1.39693,-2.379959 1.8379,-3.035222 1.15201,-1.711799 3.61221,-4.075184 4.82816,-4.637362 1.35892,-0.628254 2.8581,-2.321207 3.35353,-3.788266 0.50925,-1.508044 0.35288,-3.887087 -0.3125,-4.760306 -0.39212,-0.514571 -0.64183,-0.607046 -1.64649,-0.607046 -0.92013,0 -1.314,-0.119722 -1.7715,-0.541729 -0.6293,-0.580491 -1.0918,-0.502751 -1.0918,0.184418 0,0.538949 -0.838,1.568532 -1.08204,1.329352 -0.10165,-0.09962 0.005,-0.670171 0.23829,-1.267879 0.85356,-2.19056 1.13238,-3.590822 0.99609,-5.006198 -0.22472,-2.333708 -1.70435,-5.902433 -2.50978,-6.055078 -0.19367,-0.03668 -1.24599,0.671562 -2.33791,1.575242 -5.6941,4.712585 -10.02025,7.946327 -13.033276,9.737689 -1.43779,0.854772 -1.44236,0.854746 -3.86721,0.80299 -2.87097,-0.06121 -3.27578,0.08764 -8.0645,2.943014 -1.65859,0.988977 -3.52888,1.988884 -4.15432,2.22263 -0.6286,0.234928 -2.62264,0.574884 -4.46096,0.760726 -3.77553,0.381668 -4.78662,0.613237 -6.19926,1.415796 -1.39704,0.793675 -1.7484,1.382896 -1.45118,2.441627 0.29102,1.036654 1.83767,3.075907 3.69729,4.873647 l 1.40039,1.354325 -1.08203,1.642478 c -0.59522,0.903836 -1.4893,2.574438 -1.98829,3.711426 -0.99171,2.259669 -1.26535,2.683954 -3.24221,5.077275 -1.71255,2.073303 -3.60618,5.059573 -5.37894,8.475576 -1.51599,2.92122 -2.24255,3.678388 -5.02543,5.244404 -1.55568,0.875453 -1.50016,0.905104 -3.26369,-1.709715 -3.22945,-4.788364 -5.45661,-10.498629 -6.34964,-16.274945 -0.44626,-2.886285 -0.43751,-8.870967 0.0176,-11.885398 0.69407,-4.597509 2.47203,-9.628324 4.90238,-13.867899 3.29989,-5.756435 9.32605,-11.690555 15.15438,-14.922543 6.40232,-3.550278 12.87083,-5.212967 20.24817,-5.205985 z m 7.58012,26.13366 -2.16408,2.725938 -3.48244,0.480257 2.16408,-2.725938 z" />
</svg>
