<?xml version="1.0" encoding="UTF-8" standalone="no"?>
<svg
   width="128"
   height="128"
   version="1.0"
   id="svg276"
   xmlns:xlink="http://www.w3.org/1999/xlink"
   xmlns="http://www.w3.org/2000/svg"
   xmlns:svg="http://www.w3.org/2000/svg">
  <defs
     id="defs236">
    <linearGradient
       id="linearGradient3494">
      <stop
         offset="0"
         stop-color="#c0bfbc"
         id="stop3482"
         style="stop-color:#551b7e;stop-opacity:1;" />
      <stop
         offset="0.045"
         stop-color="#f6f5f4"
         id="stop3484"
         style="stop-color:#df03e3;stop-opacity:1;" />
      <stop
         offset="0.091"
         stop-color="#deddda"
         id="stop3486"
         style="stop-color:#551b7e;stop-opacity:1;" />
      <stop
         offset="0.90899998"
         stop-color="#deddda"
         id="stop3488"
         style="stop-color:#551b7e;stop-opacity:1;" />
      <stop
         offset="0.95499998"
         stop-color="#f6f5f4"
         id="stop3490"
         style="stop-color:#df03e3;stop-opacity:1;" />
      <stop
         offset="1"
         stop-color="#c0bfbc"
         id="stop3492"
         style="stop-color:#551b7e;stop-opacity:1;" />
    </linearGradient>
    <linearGradient
       id="a">
      <stop
         offset="0"
         stop-color="#d5d3cf"
         id="stop207" />
      <stop
         offset="1"
         stop-color="#f6f5f4"
         id="stop209" />
    </linearGradient>
    <linearGradient
       id="b">
      <stop
         offset="0"
         stop-color="#d5d3cf"
         id="stop212" />
      <stop
         offset="1"
         stop-color="#949390"
         id="stop214" />
    </linearGradient>
    <linearGradient
       id="c">
      <stop
         offset="0"
         stop-color="#9a9996"
         id="stop217" />
      <stop
         offset="1"
         stop-color="#77767b"
         id="stop219" />
    </linearGradient>
    <linearGradient
       xlink:href="#d"
       id="e"
       x1="28"
       y1="-274"
       x2="116"
       y2="-274"
       gradientUnits="userSpaceOnUse"
       gradientTransform="translate(-156,447.55859)" />
    <linearGradient
       id="d">
      <stop
         offset="0"
         stop-color="#c0bfbc"
         id="stop223"
         style="stop-color:#8c289a;stop-opacity:1;" />
      <stop
         offset="0.045"
         stop-color="#f6f5f4"
         id="stop225"
         style="stop-color:#c254d2;stop-opacity:1;" />
      <stop
         offset="0.091"
         stop-color="#deddda"
         id="stop227"
         style="stop-color:#8c289a;stop-opacity:1;" />
      <stop
         offset="0.90899998"
         stop-color="#deddda"
         id="stop229"
         style="stop-color:#8c289a;stop-opacity:1;" />
      <stop
         offset="0.95499998"
         stop-color="#f6f5f4"
         id="stop231"
         style="stop-color:#c254d2;stop-opacity:1;" />
      <stop
         offset="1"
         stop-color="#c0bfbc"
         id="stop233"
         style="stop-color:#8c289a;stop-opacity:1;" />
    </linearGradient>
    <linearGradient
       y2="72"
       x2="340"
       y1="76"
       x1="344"
       gradientTransform="matrix(0.25,0,0,0.25,180,83)"
       gradientUnits="userSpaceOnUse"
       id="linearGradient1574"
       xlink:href="#linearGradient1351-3" />
    <linearGradient
       id="linearGradient1351-3">
      <stop
         id="stop1347"
         offset="0"
         style="stop-color:#d5d3cf;stop-opacity:1" />
      <stop
         id="stop1349-6"
         offset="1"
         style="stop-color:#ffffff;stop-opacity:1" />
    </linearGradient>
    <clipPath
       id="clipPath1609"
       clipPathUnits="userSpaceOnUse">
      <path
         style="fill:#e74747;stroke:none;stroke-width:0.25px;stroke-linecap:butt;stroke-linejoin:miter;stroke-opacity:1"
         d="m 252,116 28,-28 v -8 h -36 v 36 z"
         id="path1611" />
    </clipPath>
    <linearGradient
       id="a-5"
       gradientUnits="userSpaceOnUse"
       x1="117.00134"
       x2="12.00134"
       xlink:href="#b-6"
       y1="128"
       y2="-0.082061999"
       gradientTransform="translate(1.483026,-11.321289)" />
    <linearGradient
       id="b-6">
      <stop
         offset="0"
         stop-color="#535353"
         id="stop20460" />
      <stop
         offset="1"
         stop-color="#7e7e7e"
         id="stop20462" />
    </linearGradient>
    <linearGradient
       id="linearGradient3898"
       x1="4"
       x2="28"
       y1="31"
       y2="1"
       gradientUnits="userSpaceOnUse"
       gradientTransform="translate(-166.50919,50.183727)">
      <stop
         stop-color="#7324a9"
         offset="0"
         id="stop1183" />
      <stop
         stop-color="#fa51fd"
         offset="1"
         id="stop1185" />
    </linearGradient>
    <linearGradient
       xlink:href="#linearGradient3898"
       id="linearGradient3363"
       x1="-426.42407"
       y1="-120.55017"
       x2="-338.42407"
       y2="-228.55017"
       gradientUnits="userSpaceOnUse"
       gradientTransform="translate(446.42345,236.55093)" />
    <linearGradient
       xlink:href="#linearGradient3494"
       id="linearGradient3479"
       gradientUnits="userSpaceOnUse"
       gradientTransform="translate(446.42345,240.55093)"
       x1="-426.42343"
       y1="-174.55093"
       x2="-338.42346"
       y2="-174.55093" />
  </defs>
  <path
     id="rect3354-2"
     style="fill:url(#linearGradient3479);fill-opacity:1;stroke-width:4;stroke-linecap:square;stroke-linejoin:round;stroke-miterlimit:1.5;stroke-opacity:0.3;paint-order:stroke fill markers"
     d="m 28.000003,12 c -4.431999,0 -8,3.568005 -8,8 v 92 c 0,4.432 3.568001,8 8,8 H 99.999999 C 104.43199,120 108,116.432 108,112 V 52.488281 L 67.513673,12 Z M 77.259763,12 108,42.740234 V 12 L 77.259761,8 Z" />
  <g
     id="g7083"
     transform="matrix(4,0,0,4,21.000006,-8299)" />
  <g
     style="stroke-width:2.62472"
     transform="matrix(0.0952482,0,0,0.0952482,703.75966,-132.2908)"
     id="g7643" />
  <g
     id="g7629"
     transform="matrix(0.2156013,0,0,0.2156013,8.1772423,49.661969)"
     style="stroke-width:0.25" />
  <path
     id="rect3354"
     style="fill:url(#linearGradient3363);fill-opacity:1;stroke-width:4;stroke-linecap:square;stroke-linejoin:round;stroke-miterlimit:1.5;stroke-opacity:0.3;paint-order:stroke fill markers"
     d="m 28.000001,8 c -4.431999,0 -8,3.568005 -8,8 v 92 c 0,4.432 3.568001,8 8,8 H 99.999998 C 104.43199,116 108,112.432 108,108 V 48.488281 L 67.513671,8 Z M 77.259761,8 108,38.740234 V 8 Z" />
  <g
     id="g1202"
     style="fill-rule:evenodd"
     transform="matrix(3.5,0,0,3.5,8.0000005,8.495361)">
    <path
       d="m 12,13 a 4,1 0 0 0 -4,1 v 1 a 4,1 0 0 0 4,1 4,1 0 0 0 4,-1 v -1 a 4,1 0 0 0 -4,-1 z m -4,3 v 2 a 4,1 0 0 0 4,1 4,1 0 0 0 4,-1 v -2 a 4,1 0 0 1 -4,1 4,1 0 0 1 -4,-1 z m 0,3 v 2 a 4,1 0 0 0 4,1 4,1 0 0 0 4,-1 v -2 a 4,1 0 0 1 -4,1 4,1 0 0 1 -4,-1 z m 0,3 v 2 a 4,1 0 0 0 4,1 4,1 0 0 0 4,-1 v -2 a 4,1 0 0 1 -4,1 4,1 0 0 1 -4,-1 z"
       fill="#fa9bfd"
       id="path1198" />
    <path
       d="m 18,15 c -0.554,0 -1,0.446 -1,1 v 8 c 0,0.554 0.446,1 1,1 h 5 c 0.554,0 1,-0.446 1,-1 v -8 c 0,-0.554 -0.446,-1 -1,-1 z m 0,1 h 2 v 2 h -2 z m 3,0 h 2 v 2 h -2 z m -3,3 h 2 v 2 h -2 z m 3,0 h 2 v 2 h -2 z m -3,3 h 2 v 2 h -2 z m 3,0 h 2 v 2 h -2 z"
       fill="#fafafa"
       id="path1200" />
  </g>
</svg>
