<?xml version="1.0" encoding="UTF-8" standalone="no"?>
<svg
   viewBox="0 0 128 128"
   style="display:inline;enable-background:new"
   version="1.0"
   id="svg11300"
   height="128"
   width="128"
   xml:space="preserve"
   xmlns:xlink="http://www.w3.org/1999/xlink"
   xmlns="http://www.w3.org/2000/svg"
   xmlns:svg="http://www.w3.org/2000/svg"
   xmlns:rdf="http://www.w3.org/1999/02/22-rdf-syntax-ns#"
   xmlns:cc="http://creativecommons.org/ns#"
   xmlns:dc="http://purl.org/dc/elements/1.1/"><title
     id="title4162">Adwaita Icon Template</title><defs
     id="defs3"><linearGradient
       id="linearGradient39"><stop
         style="stop-color:#510607;stop-opacity:1;"
         offset="0"
         id="stop39" /><stop
         style="stop-color:#f3494f;stop-opacity:1;"
         offset="0.41175473"
         id="stop41" /><stop
         style="stop-color:#f11922;stop-opacity:1;"
         offset="0.8144781"
         id="stop42" /><stop
         style="stop-color:#69070a;stop-opacity:1;"
         offset="1"
         id="stop40" /></linearGradient><linearGradient
       id="linearGradient37"><stop
         style="stop-color:#525252;stop-opacity:1;"
         offset="0"
         id="stop32" /><stop
         id="stop33"
         offset="0.04166667"
         style="stop-color:#d6d6d6;stop-opacity:1;" /><stop
         style="stop-color:#525252;stop-opacity:1;"
         offset="0.08333334"
         id="stop34" /><stop
         id="stop35"
         offset="0.91666669"
         style="stop-color:#525252;stop-opacity:1;" /><stop
         style="stop-color:#d6d6d6;stop-opacity:1;"
         offset="0.95833331"
         id="stop36" /><stop
         style="stop-color:#525252;stop-opacity:1;"
         offset="1"
         id="stop37" /></linearGradient><linearGradient
       id="linearGradient27"><stop
         style="stop-color:#320101;stop-opacity:1;"
         offset="0"
         id="stop19" /><stop
         id="stop20"
         offset="0.04166667"
         style="stop-color:#ff474b;stop-opacity:1;" /><stop
         style="stop-color:#960303;stop-opacity:1;"
         offset="0.08333334"
         id="stop21" /><stop
         id="stop23"
         offset="0.91666669"
         style="stop-color:#960303;stop-opacity:1;" /><stop
         style="stop-color:#ff474b;stop-opacity:1;"
         offset="0.95833331"
         id="stop25" /><stop
         style="stop-color:#320101;stop-opacity:1;"
         offset="1"
         id="stop26" /></linearGradient><linearGradient
       id="linearGradient16"><stop
         style="stop-color:#e00003;stop-opacity:1;"
         offset="0"
         id="stop16" /><stop
         style="stop-color:#5c0102;stop-opacity:1;"
         offset="1"
         id="stop17" /></linearGradient><linearGradient
       id="linearGradient974"><stop
         style="stop-color:#320101;stop-opacity:1;"
         offset="0"
         id="stop962" /><stop
         id="stop964"
         offset="0.04166667"
         style="stop-color:#ff1418;stop-opacity:1;" /><stop
         style="stop-color:#320101;stop-opacity:1;"
         offset="0.08333334"
         id="stop966" /><stop
         id="stop968"
         offset="0.91666669"
         style="stop-color:#320101;stop-opacity:1;" /><stop
         style="stop-color:#ff1418;stop-opacity:1;"
         offset="0.95833331"
         id="stop970" /><stop
         style="stop-color:#320101;stop-opacity:1;"
         offset="1"
         id="stop972" /></linearGradient><linearGradient
       xlink:href="#linearGradient16"
       id="linearGradient17"
       x1="12"
       y1="12"
       x2="75.631775"
       y2="72.973328"
       gradientUnits="userSpaceOnUse" /><linearGradient
       xlink:href="#linearGradient974"
       id="linearGradient29"
       x1="12"
       y1="62"
       x2="116"
       y2="62"
       gradientUnits="userSpaceOnUse"
       gradientTransform="translate(0,4)" /><linearGradient
       xlink:href="#linearGradient37"
       id="linearGradient32"
       x1="12"
       y1="64"
       x2="116"
       y2="64"
       gradientUnits="userSpaceOnUse"
       gradientTransform="matrix(1,0,0,0.98039216,0,0.23529412)" /><linearGradient
       xlink:href="#linearGradient27"
       id="linearGradient38"
       gradientUnits="userSpaceOnUse"
       x1="12"
       y1="64"
       x2="116"
       y2="64"
       gradientTransform="translate(0,2)" /><linearGradient
       xlink:href="#linearGradient39"
       id="linearGradient40"
       x1="19.483663"
       y1="62.42871"
       x2="116"
       y2="62.42871"
       gradientUnits="userSpaceOnUse" /></defs><metadata
     id="metadata4"><rdf:RDF><cc:Work
         rdf:about=""><dc:format>image/svg+xml</dc:format><dc:type
           rdf:resource="http://purl.org/dc/dcmitype/StillImage" /><dc:creator><cc:Agent><dc:title>GNOME Design Team</dc:title></cc:Agent></dc:creator><dc:source /><cc:license
           rdf:resource="http://creativecommons.org/licenses/by-sa/4.0/" /><dc:title>Adwaita Icon Template</dc:title><dc:subject><rdf:Bag /></dc:subject><dc:date /><dc:rights><cc:Agent><dc:title /></cc:Agent></dc:rights><dc:publisher><cc:Agent><dc:title /></cc:Agent></dc:publisher><dc:identifier /><dc:relation /><dc:language /><dc:coverage /><dc:description /><dc:contributor><cc:Agent><dc:title /></cc:Agent></dc:contributor></cc:Work><cc:License
         rdf:about="http://creativecommons.org/licenses/by-sa/4.0/"><cc:permits
           rdf:resource="http://creativecommons.org/ns#Reproduction" /><cc:permits
           rdf:resource="http://creativecommons.org/ns#Distribution" /><cc:requires
           rdf:resource="http://creativecommons.org/ns#Notice" /><cc:requires
           rdf:resource="http://creativecommons.org/ns#Attribution" /><cc:permits
           rdf:resource="http://creativecommons.org/ns#DerivativeWorks" /><cc:requires
           rdf:resource="http://creativecommons.org/ns#ShareAlike" /></cc:License></rdf:RDF></metadata><rect
     style="display:inline;fill:url(#linearGradient29);stroke:none;stroke-width:0.25;stroke-linecap:butt;stroke-linejoin:miter;stroke-miterlimit:4;stroke-dasharray:none;stroke-dashoffset:0;stroke-opacity:1;marker:none;marker-start:none;marker-mid:none;marker-end:none;paint-order:normal;enable-background:new"
     id="rect27"
     width="104"
     height="100"
     x="12"
     y="16"
     rx="8"
     ry="8" /><path
     id="path37"
     style="display:inline;fill:url(#linearGradient38);stroke-width:1.82108;enable-background:new"
     d="m 20,16 c -4.431999,0 -8,3.568 -8,8 v 84 c 0,4.432 3.568001,8 8,8 H 32.027344 V 99.92969 h 29.166015 5.613282 28.011718 V 116 H 108 c 4.432,0 8,-3.568 8,-8 V 24 c 0,-4.432 -3.568,-8 -8,-8 H 94.818359 V 30.285156 H 66.806641 61.193359 32.027344 V 16 Z m -3.484375,7.142578 h 11 v 10.714844 h -11 z m 83.119141,0 H 110.63477 V 33.857422 H 99.634766 Z m -67.607422,12.5 h 29.166015 5.613282 28.011718 V 94.57227 H 66.806641 61.193359 32.027344 Z m -15.511719,6.25 h 11 v 10.714844 h -11 z m 83.119141,0 H 110.63477 V 52.607422 H 99.634766 Z M 16.515625,60.64258 h 11 v 10.71484 h -11 z m 83.119141,0 H 110.63477 V 71.35742 H 99.634766 Z m -83.119141,18.75 h 11 v 10.71484 h -11 z m 83.119141,0 H 110.63477 V 90.10742 H 99.634766 Z m -83.119141,18.75 h 11 v 10.71484 h -11 z m 83.119141,0 h 11.000004 v 10.71484 H 99.634766 Z" /><rect
     style="display:inline;fill:url(#linearGradient17);fill-opacity:1;stroke:none;stroke-width:0.25;stroke-linecap:butt;stroke-linejoin:miter;stroke-miterlimit:4;stroke-dasharray:none;stroke-dashoffset:0;stroke-opacity:1;marker:none;marker-start:none;marker-mid:none;marker-end:none;paint-order:normal;enable-background:new"
     id="rect1711"
     width="104"
     height="100"
     x="12"
     y="12"
     rx="8"
     ry="8" /><path
     id="path6-7"
     style="display:inline;fill:#ffffff;stroke-width:1.93234;enable-background:new"
     d="m 16.515924,19.00277 v 10.504205 h 11 V 19.00277 Z m 0,18.382366 v 10.504206 h 11 V 37.385136 Z m 0,18.382363 v 10.504216 h 11 V 55.767499 Z m 0,18.382372 v 10.504205 h 11 V 74.149871 Z m 0,18.382359 v 10.50422 h 11 V 92.53223 Z" /><path
     id="path6-7-9"
     style="display:inline;fill:#ffffff;stroke-width:1.38772;enable-background:new"
     d="M 110.6344,19.00277 V 29.506975 H 99.634396 V 19.00277 Z m 0,18.382366 V 47.889342 H 99.634396 V 37.385136 Z m 0,18.382363 V 66.271715 H 99.634396 V 55.767499 Z m 0,18.382372 V 84.654076 H 99.634396 V 74.149871 Z m 0,18.382359 v 10.50422 H 99.634396 V 92.53223 Z" /><path
     id="path31"
     style="display:inline;fill:url(#linearGradient32);stroke-width:1.80314;enable-background:new"
     d="m 20,13.960784 c -4.431999,0 -8,3.49804 -8,7.843138 V 104.15686 C 12,108.50196 15.568001,112 20,112 H 32.027344 V 96.244794 h 29.166015 5.613282 28.011718 V 112 H 108 c 4.432,0 8,-3.49804 8,-7.84314 V 21.803922 c 0,-4.345098 -3.568,-7.843138 -8,-7.843138 H 94.818359 V 27.965839 H 66.806641 61.193359 32.027344 V 13.960784 Z m -3.484375,7.002528 h 11 v 10.504749 h -11 z m 83.119141,0 H 110.63477 V 31.468061 H 99.634766 Z M 32.027344,33.218214 h 29.166015 5.613282 28.011718 V 90.992422 H 66.806641 61.193359 32.027344 Z m -15.511719,6.127451 h 11 v 10.504749 h -11 z m 83.119141,0 H 110.63477 V 49.850414 H 99.634766 Z M 16.515625,57.72802 h 11 v 10.504745 h -11 z m 83.119141,0 H 110.63477 V 68.232765 H 99.634766 Z M 16.515625,76.110373 h 11 v 10.504745 h -11 z m 83.119141,0 H 110.63477 V 86.615118 H 99.634766 Z M 16.515625,94.492725 h 11 v 10.504745 h -11 z m 83.119141,0 H 110.63477 V 104.99747 H 99.634766 Z" /><path
     id="path4"
     style="display:inline;fill:#858585;stroke-width:1.80314;enable-background:new"
     d="m 20,12 c -4.431999,0 -8,3.498039 -8,7.843137 v 82.352943 c 0,4.3451 3.568001,7.84314 8,7.84314 H 32.027344 V 94.284008 h 29.166015 5.613282 28.011718 V 110.03922 H 108 c 4.432,0 8,-3.49804 8,-7.84314 V 19.843137 C 116,15.498039 112.432,12 108,12 H 94.818359 V 26.005055 H 66.806641 61.193359 32.027344 V 12 Z m -3.484375,7.002527 h 11 v 10.504749 h -11 z m 83.119141,0 H 110.63477 V 29.507276 H 99.634766 Z M 32.027344,31.257429 h 29.166015 5.613282 28.011718 V 89.031633 H 66.806641 61.193359 32.027344 Z M 16.515625,37.38488 h 11 v 10.504749 h -11 z m 83.119141,0 H 110.63477 V 47.889629 H 99.634766 Z M 16.515625,55.767233 h 11 v 10.504749 h -11 z m 83.119141,0 H 110.63477 V 66.271982 H 99.634766 Z M 16.515625,74.149586 h 11 v 10.504749 h -11 z m 83.119141,0 H 110.63477 V 84.654335 H 99.634766 Z M 16.515625,92.531939 h 11 v 10.504751 h -11 z m 83.119141,0 H 110.63477 V 103.03669 H 99.634766 Z" /><path
     style="display:inline;fill:#000000;fill-rule:evenodd;stroke-width:1.82108;enable-background:new"
     d="m 116,61.84287 c -10.56654,5.45687 -21.069584,8.93145 -30.150555,11.16057 -0.376425,0.10872 -0.797458,0.24904 -1.160697,0.34875 -11.918446,3.27307 -20.334002,15.05674 -20.334002,15.05674 l -0.660159,5.67097 c 1.069511,0.44721 11.085238,4.39461 24.378324,0.0139 C 101.41094,89.69841 114.65917,74.0314 116,72.25002 Z"
     id="path9-3" /><path
     style="display:inline;fill:#ffffff;fill-rule:evenodd;stroke-width:1.82108;enable-background:new"
     d="m 99.890291,78.05403 -1.077274,6.86375 -5.284801,-3.59231 -0.250269,7.97982 -6.938811,-4.70837 -0.99385,8.8587 -7.515529,-6.2255 -2.150925,7.26484 -5.948582,-6.6266 -3.551027,5.66748 -3.057713,-6.78354 -2.622455,5.09899 c 0.325557,0.33415 -0.836346,2.06201 -0.505329,2.37622 0.826429,0.61595 0.296289,2.1771 0.296289,2.1771 0,0 15.236029,5.40703 29.282094,0.77822 7.125212,-2.34808 14.162321,-11.23499 19.434471,-16.61403 -0.20268,-0.0765 -1.87374,-0.37084 -2.09404,-0.43961 z"
     id="path13-1" /><path
     id="path38"
     style="display:inline;fill:url(#linearGradient40);fill-opacity:1;stroke-width:1.82108;enable-background:new"
     d="M 116,99.58398 V 76 c 0,0 -22.493038,25.07615 -44.367188,25.71484 -4.652276,0.077 -8.758782,-2.05125 -11.136722,-5.86132 0,0 -1.127074,-2.592342 -1.557884,-1.666715 0,0 0.004,3.349283 -0.003,3.781312 -0.0032,0.197617 0.01008,0.413427 0.04335,0.649073 1.79228,8.80396 17.230748,10.19158 21.007808,10.24023 C 88.520964,108.83352 100.23156,106.55969 116,99.58398 Z M 116,66.3418 V 24 c 0,-4.432 -3.568,-8 -8,-8 h -3.23828 c -4.06822,1.26882 -50.98761,15.97374 -68.21484,24.83398 -11.838287,6.088604 -16.168284,7.502617 -17.038115,10.631007 0,0 -0.02809,3.061259 -0.02484,3.518412 0.008,1.129248 0.378865,2.244721 0.891071,3.454101 2.10325,4.96603 8.45677,7.64079 11.72852,15.08984 3.27173,7.44903 26.64062,6.75782 26.64062,6.75782 0,0 28.437341,0.93932 57.25586,-13.94336 z" /><path
     style="display:inline;fill:#cccccc;fill-opacity:1;fill-rule:evenodd;stroke-width:1.82108;enable-background:new"
     d="m 102.96253,69.42685 c 0,0 -0.25889,-1.232425 -0.25964,-1.232025 -25.817502,4.55212 -43.959431,7.765575 -43.959431,7.765575 0,0 -15.694837,-8.200082 -15.694837,-0.94032 v 2 l 7.399457,10.34423 2.335916,-6.43477 5.143342,7.11138 3.619946,-7.33808 8.179309,7.78799 2.923516,-8.91451 7.711383,7.11138 3.739638,-9.70621 5.843393,6.09297 3.619945,-8.91451 6.427372,4.28636 2.803801,-8.53805 z"
     id="path42" /><path
     style="display:inline;fill:#ffffff;fill-rule:evenodd;stroke-width:1.82108;enable-background:new"
     d="m 102.96253,67.42685 c 0,0 -0.1443,0.0207 -0.14505,0.0211 -25.817513,4.55212 -44.074021,6.51245 -44.074021,6.51245 0,0 -8.29499,2.57144 -15.694837,1.05968 l 7.399457,10.34423 2.335916,-6.43477 5.143342,7.11138 3.619946,-7.33808 8.179309,7.78799 2.923516,-8.91451 7.711383,7.11138 3.739638,-9.70621 5.843393,6.09297 3.619945,-8.91451 6.427372,4.28636 2.803801,-8.53805 z"
     id="path12-6" /><path
     id="path15-0"
     style="display:inline;fill:#ca0d13;fill-opacity:1;stroke-width:1.82108;enable-background:new"
     d="M 116,95.58398 V 72 c 0,0 -22.493038,25.07615 -44.367188,25.71484 -4.652276,0.077 -8.758782,-2.05125 -11.136722,-5.86132 0,0 -1.8681,0.28064 -1.51757,2.76367 1.79228,8.80396 17.230748,10.19158 21.007808,10.24023 C 88.520964,104.83352 100.23156,102.55969 116,95.58398 Z M 116,62.3418 V 20 c 0,-4.432 -3.568,-8 -8,-8 h -3.23828 C 100.6935,13.26882 53.77411,27.97374 36.54688,36.83398 18.55231,46.08885 18.27175,49.47147 20.375,54.4375 c 2.10325,4.96603 8.45677,7.64079 11.72852,15.08984 3.27173,7.44903 26.64062,6.75782 26.64062,6.75782 0,0 28.437341,0.93932 57.25586,-13.94336 z" /><ellipse
     style="display:inline;fill:#000000;stroke-width:1.82108;enable-background:new"
     cx="97.428558"
     cy="47.71431"
     id="circle14-6"
     rx="7.4285769"
     ry="7.1428623" /><ellipse
     style="display:inline;fill:#f8fcf9;stroke-width:1.82108;enable-background:new"
     cx="94.642845"
     cy="45.035736"
     id="circle15-3"
     rx="2.7857163"
     ry="2.6785734" /></svg>
