<?xml version="1.0" encoding="UTF-8" standalone="no"?>
<svg
   width="128"
   height="128"
   viewBox="0 0 128 128"
   version="1.1"
   id="svg29"
   xml:space="preserve"
   xmlns:xlink="http://www.w3.org/1999/xlink"
   xmlns="http://www.w3.org/2000/svg"
   xmlns:svg="http://www.w3.org/2000/svg"><defs
     id="defs15"><linearGradient
       id="linearGradient44"><stop
         style="stop-color:#004d4d;stop-opacity:1;"
         offset="0.05648674"
         id="stop44" /><stop
         style="stop-color:#00b2b2;stop-opacity:1;"
         offset="0.1346591"
         id="stop46" /><stop
         style="stop-color:#004d4d;stop-opacity:1;"
         offset="0.26787406"
         id="stop47" /><stop
         style="stop-color:#004d4d;stop-opacity:1;"
         offset="0.73443019"
         id="stop48" /><stop
         style="stop-color:#00b2b2;stop-opacity:1;"
         offset="0.86766887"
         id="stop49" /><stop
         style="stop-color:#004d4d;stop-opacity:1;"
         offset="0.94434977"
         id="stop45" /></linearGradient><linearGradient
       id="linearGradient43"><stop
         style="stop-color:#004d4d;stop-opacity:1;"
         offset="0.58547983"
         id="stop43" /><stop
         style="stop-color:#00b2b2;stop-opacity:1;"
         offset="0.73015308"
         id="stop42" /><stop
         style="stop-color:#004d4d;stop-opacity:1;"
         offset="0.86611426"
         id="stop41" /></linearGradient><linearGradient
       id="linearGradient39"><stop
         style="stop-color:#004d4d;stop-opacity:1;"
         offset="0.13388574"
         id="stop37" /><stop
         style="stop-color:#00b2b2;stop-opacity:1;"
         offset="0.26984692"
         id="stop38" /><stop
         style="stop-color:#004d4d;stop-opacity:1;"
         offset="0.41452017"
         id="stop39" /></linearGradient><linearGradient
       id="linearGradient35"><stop
         style="stop-color:#004d4d;stop-opacity:1;"
         offset="0.3626973"
         id="stop35" /><stop
         style="stop-color:#00b2b2;stop-opacity:1;"
         offset="0.73015308"
         id="stop34" /><stop
         style="stop-color:#004d4d;stop-opacity:1;"
         offset="0.78264678"
         id="stop33" /></linearGradient><linearGradient
       id="linearGradient27"><stop
         style="stop-color:#004d4d;stop-opacity:1;"
         offset="0.21735322"
         id="stop27" /><stop
         style="stop-color:#00b2b2;stop-opacity:1;"
         offset="0.26984692"
         id="stop29" /><stop
         style="stop-color:#004d4d;stop-opacity:1;"
         offset="0.6373027"
         id="stop30" /></linearGradient><linearGradient
       id="linearGradient23"
       gradientUnits="userSpaceOnUse"
       x1="0"
       y1="269.46301"
       x2="118.926"
       y2="269.46301"
       gradientTransform="matrix(1,0,0,0.98333333,5e-6,-168.03333)"><stop
         offset="0"
         stop-color="#e5a50a"
         id="stop20"
         style="stop-color:#004d4d;stop-opacity:1;" /><stop
         offset="0.414"
         stop-color="#fbdf9b"
         id="stop21"
         style="stop-color:#00b2b2;stop-opacity:1;" /><stop
         offset="0.81300002"
         stop-color="#e5a50a"
         id="stop22"
         style="stop-color:#004d4d;stop-opacity:1;" /><stop
         offset="1"
         stop-color="#f8ca5b"
         id="stop23"
         style="stop-color:#009999;stop-opacity:1;" /></linearGradient><linearGradient
       xlink:href="#linearGradient23"
       id="linearGradient20"
       x1="-112.1715"
       y1="67.593956"
       x2="-47.491905"
       y2="67.593956"
       gradientUnits="userSpaceOnUse"
       gradientTransform="translate(143.86961,-1.6074978)" /><linearGradient
       xlink:href="#linearGradient23"
       id="linearGradient26"
       x1="-132.45996"
       y1="109.28104"
       x2="-27.203459"
       y2="109.28104"
       gradientUnits="userSpaceOnUse"
       gradientTransform="translate(143.86961,-1.6074978)" /><linearGradient
       xlink:href="#linearGradient27"
       id="linearGradient28"
       x1="-139.86961"
       y1="67.679026"
       x2="-130.22788"
       y2="67.679026"
       gradientUnits="userSpaceOnUse"
       gradientTransform="translate(143.86961,-1.6074978)" /><linearGradient
       xlink:href="#linearGradient35"
       id="linearGradient33"
       x1="-29.435385"
       y1="67.580444"
       x2="-19.869606"
       y2="67.580444"
       gradientUnits="userSpaceOnUse"
       gradientTransform="translate(143.86961,-1.6074978)" /><linearGradient
       xlink:href="#linearGradient39"
       id="linearGradient37"
       x1="-132.45996"
       y1="28.337938"
       x2="-107.03864"
       y2="28.337938"
       gradientUnits="userSpaceOnUse"
       gradientTransform="translate(143.86961,-1.6074978)" /><linearGradient
       xlink:href="#linearGradient43"
       id="linearGradient41"
       x1="-52.533108"
       y1="28.340708"
       x2="-27.203459"
       y2="28.340708"
       gradientUnits="userSpaceOnUse"
       gradientTransform="translate(143.86961,-1.6074978)" /><linearGradient
       xlink:href="#linearGradient44"
       id="linearGradient45"
       x1="-96.753054"
       y1="12.59591"
       x2="-63.03267"
       y2="12.59591"
       gradientUnits="userSpaceOnUse"
       gradientTransform="translate(143.86961,-1.6074978)" /></defs><text
     style="font-style:normal;font-weight:400;font-size:13.8828px;font-family:Arial;fill:#ffffff;fill-opacity:1;fill-rule:evenodd;stroke:none;stroke-width:0.991632;stroke-linecap:square;stroke-linejoin:bevel;stroke-opacity:1"
     id="text1476"
     font-style="normal"
     font-weight="400"
     font-size="14"
     y="-67.545097"
     x="-183.452"
     xml:space="preserve"
     transform="scale(1.008439,0.99163165)" /><path
     style="fill:url(#linearGradient45);fill-opacity:1;stroke-width:1.22093"
     d="m 53.881566,16.400225 c -1.574744,-0.502481 -3.264989,-1.530527 -4.36883,-2.657237 -1.040098,-1.061639 -2.378863,-3.416235 -2.395291,-4.2128508 -0.002,-0.09831 0,-4.0000004 0,-4.0000004 1.559364,-0.5217173 5.990018,2.3138077 9.226276,1.8883715 3.832275,-0.5037881 11.126338,-0.5633889 14.780907,-0.1207833 2.560684,0.310125 7.922179,-2.1579425 9.712307,-1.6219587 0,0 -0.168076,3.6180799 -0.0974,3.6875949 0.500809,0.492591 -1.017429,3.2982888 -2.545614,4.7042728 -2.381575,2.191128 -3.217337,2.441596 -7.692895,2.305495 -6.11329,-0.185905 -8.843044,-0.173396 -12.464588,0.05712 -1.861988,0.118523 -3.731692,0.105011 -4.154871,-0.03002 z"
     id="path11" /><path
     style="fill:url(#linearGradient41);fill-opacity:1;stroke-width:1.22093"
     d="m 109.36147,38.915074 c -2.27832,-0.616253 -3.80943,-1.715526 -5.84548,-4.196818 -2.24999,-2.742005 -4.874746,-5.323695 -7.662492,-7.536764 -3.371162,-2.676218 -4.542894,-4.81988 -4.516562,-8.263004 0.01391,-1.822402 0.96953,-4.671396 1.566857,-4.671396 0.502598,0 5.61491,3.287889 8.173857,5.256872 3.20878,2.46898 7.73378,6.919726 10.24394,10.075849 1.58982,1.998941 4.40935,2.401933 5.34456,4.039753 0,0 0,3.898255 0,4 0,0.441787 -2.48799,1.376523 -4.15486,1.560977 -0.92782,0.102672 -2.1785,-0.0028 -3.14982,-0.265469 z"
     id="path10" /><path
     style="fill:url(#linearGradient37);fill-opacity:1;stroke-width:1.22093"
     d="m 14.58778,39.062946 c -1.44127,-0.28753 -3.17813,-1.089899 -3.17813,-1.468175 0,-0.121973 0,-4 0,-4 1.05902,-1.758569 3.89386,-2.190932 5.34457,-4.014958 2.51017,-3.156123 7.03515,-7.606869 10.24392,-10.075849 2.49791,-1.922018 7.66726,-5.256872 8.14867,-5.256872 0.43327,0 1.20173,1.756882 1.52817,3.493691 0.24402,1.29841 0.20941,2.057785 -0.15812,3.468862 -0.63515,2.438538 -1.68805,3.902662 -4.29456,5.971847 -1.20598,0.95739 -3.02521,2.559552 -4.04273,3.560363 -1.01751,1.00081 -2.64639,2.79019 -3.61975,3.976401 -0.97336,1.186211 -2.28752,2.493102 -2.92039,2.904206 -2.03295,1.320611 -4.80949,1.887794 -7.05165,1.440484 z"
     id="path9" /><path
     style="fill:url(#linearGradient33);fill-opacity:1;stroke-width:1.22093"
     d="m 119.58995,81.947225 c -1.73721,-0.799036 -3.8642,-2.91327 -4.66673,-4.63875 -0.44488,-0.956469 -0.517,-1.807736 -0.41856,-4.939595 0.15652,-4.979666 0.1538,-8.118835 -0.0108,-12.714141 -0.13058,-3.640337 -0.10464,-3.841885 0.68309,-5.309711 1.04118,-1.940089 3.11516,-3.825883 4.97674,-4.525157 0.79788,-0.299716 1.50323,-0.491217 1.56746,-0.425556 0.29951,0.306264 1.71996,7.419663 2.04613,10.246665 0.4569,3.960205 0.20802,12.839414 -0.45858,16.360512 -0.66483,3.511677 -1.50064,6.439092 -1.87192,6.556339 -0.16927,0.05346 -1.00024,-0.221317 -1.84661,-0.610606 z"
     id="path8" /><path
     style="fill:url(#linearGradient28);fill-opacity:1;stroke-width:1.22093"
     d="M 5.59003,79.709782 C 4.09484,73.322964 3.59492,65.028108 4.34437,59.041363 c 0.38668,-3.088834 1.71721,-9.08055 2.1001,-9.457139 0.5008,-0.492593 3.3533,1.000736 4.78272,2.503845 2.22768,2.342492 2.48234,3.164538 2.34395,7.56667 -0.15653,4.979668 -0.1538,8.118835 0.0108,12.714141 0.13072,3.643801 0.10536,3.84004 -0.68403,5.297559 -0.45088,0.832473 -1.35109,2.016971 -2.00047,2.632216 -1.0799,1.023104 -3.47393,2.339812 -4.28365,2.355977 -0.18316,0.0036 -0.64396,-1.321526 -1.02399,-2.94485 z"
     id="path7" /><path
     style="fill:url(#linearGradient20);fill-opacity:1;stroke-width:1.22093"
     d="M 58.075053,97.326782 C 45.076178,94.786326 34.9553,85.002192 32.3578,72.465204 28.78764,55.233526 40.06885,38.34084 57.476854,34.851522 c 17.519133,-3.511592 34.693628,7.584525 38.241153,24.706894 3.570176,17.231678 -7.711048,34.124372 -25.11905,37.613676 -3.65662,0.732956 -9.213868,0.801586 -12.523904,0.15469 z"
     id="path6" /><path
     id="path2"
     style="fill:url(#linearGradient26);fill-opacity:1;stroke-width:1.22093"
     d="m 57.882549,124.84821 c -0.423179,-0.0612 -1.808132,-0.25757 -3.077669,-0.4366 -2.719374,-0.38348 -7.123558,-1.42881 -7.487863,-1.77723 -0.248617,-0.23778 -0.08169,-4.17434 -0.08169,-4.17434 0.51444,-0.92076 1.921864,0.1627 2.646562,-0.50405 2.381559,-2.19113 3.217325,-2.4416 7.692895,-2.30549 5.062741,0.15396 8.254265,0.15128 12.926239,-0.0108 3.704584,-0.12857 3.904083,-0.10368 5.385924,0.67282 0.846358,0.44348 2.05062,1.32893 2.676126,1.96766 0.49669,0.50719 1.93893,-0.57288 2.395279,0.21336 0,0 -0.0086,3.58387 0,4 0.0084,0.41207 -4.976005,1.55289 -9.226264,2.11162 -2.877557,0.37829 -11.825409,0.53534 -13.849541,0.2431 z M 32.20022,116.11312 c -7.54621,-4.6599 -14.36177,-11.36363 -19.09942,-18.786019 -0.93013,-1.457229 -1.69115,-2.761432 -1.69115,-2.898247 0,-0.131315 0,-4 0,-4 0.64291,-0.385206 2.33028,2.719042 3.55198,2.496909 1.32007,-0.240019 2.09211,-0.205982 3.52673,0.155524 2.47921,0.624725 3.96775,1.660346 6.07146,4.224075 2.24998,2.742008 4.87473,5.323698 7.66248,7.536758 3.37118,2.67623 4.54291,4.8199 4.51657,8.26301 -0.0139,1.8224 -0.96953,4.6714 -1.56684,4.6714 -0.15297,0 -1.49028,-0.74854 -2.97181,-1.66341 z m 59.994452,0.74773 c -0.909996,-1.73088 -1.154387,-4.05554 -0.635724,-6.04687 0.635146,-2.43853 1.688042,-3.90267 4.29455,-5.97186 2.787746,-2.21306 5.412502,-4.79475 7.662492,-7.536758 2.72086,-3.315849 4.90029,-4.468345 8.40085,-4.442443 1.35413,0.01 3.8184,-2.959206 4.74931,-2.458865 0,0 0,3.841874 0,4 0,0.49435 -3.34274,5.522788 -5.34456,8.039766 -2.51016,3.15611 -7.03516,7.60685 -10.24394,10.07584 -2.497909,1.92201 -7.667259,5.25687 -8.148657,5.25687 -0.139087,0 -0.46953,-0.41206 -0.734321,-0.91568 z" /><path
     style="fill:#008080;fill-opacity:1;stroke-width:1.22093"
     d="M 53.881566,12.400225 C 52.306822,11.897744 50.616577,10.869698 49.512736,9.7429882 48.472638,8.6813492 47.133873,6.3267528 47.117445,5.5301368 47.109045,5.1180578 52.09345,3.9772458 56.343721,3.4185083 60.175996,2.9147195 67.47006,2.8551132 71.124628,3.297725 c 3.140369,0.3803308 9.232035,1.6890468 9.614906,2.0656358 0.500807,0.492593 -1.017429,3.2982894 -2.545614,4.7042732 -2.381575,2.191128 -3.217337,2.441596 -7.692895,2.305495 -6.11329,-0.185905 -8.843044,-0.173396 -12.464588,0.05712 -1.861988,0.118523 -3.731692,0.105011 -4.154871,-0.03002 z"
     id="path19" /><path
     style="fill:#008080;fill-opacity:1;stroke-width:1.22093"
     d="m 109.36147,34.915074 c -2.27832,-0.616253 -3.80943,-1.715526 -5.84548,-4.196818 -2.24999,-2.742005 -4.874746,-5.323695 -7.662492,-7.536764 -3.371162,-2.676218 -4.542894,-4.81988 -4.516562,-8.263004 0.01391,-1.822402 0.96953,-4.671396 1.566857,-4.671396 0.502598,0 5.61491,3.287889 8.173857,5.256872 3.20878,2.46898 7.73378,6.919728 10.24394,10.075849 2.00182,2.516968 5.34456,7.5454 5.34456,8.039753 0,0.441787 -2.48799,1.376523 -4.15486,1.560977 -0.92782,0.102672 -2.1785,-0.0028 -3.14982,-0.265469 z"
     id="path18" /><path
     style="fill:#008080;fill-opacity:1;stroke-width:1.22093"
     d="m 14.58778,35.062946 c -1.44127,-0.28753 -3.17813,-1.089899 -3.17813,-1.468175 0,-0.473496 3.39049,-5.558024 5.34457,-8.014958 2.51017,-3.156121 7.03515,-7.606869 10.24392,-10.075849 2.49791,-1.922018 7.66726,-5.256872 8.14867,-5.256872 0.43327,0 1.20173,1.756882 1.52817,3.493691 0.24402,1.29841 0.20941,2.057785 -0.15812,3.468862 -0.63515,2.438538 -1.68805,3.902662 -4.29456,5.971847 -1.20598,0.95739 -3.02521,2.559552 -4.04273,3.560363 -1.01751,1.00081 -2.64639,2.79019 -3.61975,3.976401 -0.97336,1.186211 -2.28752,2.493102 -2.92039,2.904206 -2.03295,1.320611 -4.80949,1.887794 -7.05165,1.440484 z"
     id="path17" /><path
     style="fill:#008080;fill-opacity:1;stroke-width:1.22093"
     d="m 119.58995,77.947225 c -1.73721,-0.799036 -3.8642,-2.91327 -4.66673,-4.63875 -0.44488,-0.956469 -0.517,-1.807736 -0.41856,-4.939595 0.15652,-4.979666 0.1538,-8.118835 -0.0108,-12.714141 -0.13058,-3.640337 -0.10464,-3.841885 0.68309,-5.309711 1.04118,-1.940089 3.11516,-3.825883 4.97674,-4.525157 0.79788,-0.299716 1.50323,-0.491217 1.56746,-0.425556 0.29951,0.306264 1.71996,7.419663 2.04613,10.246665 0.4569,3.960205 0.20802,12.839414 -0.45858,16.360512 -0.66483,3.511677 -1.50064,6.439092 -1.87192,6.556339 -0.16927,0.05346 -1.00024,-0.221317 -1.84661,-0.610606 z"
     id="path16" /><path
     style="fill:#008080;fill-opacity:1;stroke-width:1.22093"
     d="M 5.59003,75.709782 C 4.09484,69.322964 3.59492,61.028108 4.34437,55.041363 c 0.38668,-3.088834 1.71721,-9.08055 2.1001,-9.457139 0.5008,-0.492593 3.3533,1.000736 4.78272,2.503845 2.22768,2.342492 2.48234,3.164538 2.34395,7.56667 -0.15653,4.979668 -0.1538,8.118835 0.0108,12.714141 0.13072,3.643801 0.10536,3.84004 -0.68403,5.297559 -0.45088,0.832473 -1.35109,2.016971 -2.00047,2.632216 -1.0799,1.023104 -3.47393,2.339812 -4.28365,2.355977 -0.18316,0.0036 -0.64396,-1.321526 -1.02399,-2.94485 z"
     id="path15" /><path
     style="fill:#008080;fill-opacity:1;stroke-width:1.22093"
     d="M 58.075053,93.326782 C 45.076178,90.786326 34.9553,81.002192 32.3578,68.465204 28.78764,51.233526 40.06885,34.34084 57.476854,30.851522 c 17.519133,-3.511592 34.693628,7.584525 38.241153,24.706894 3.570176,17.231678 -7.711048,34.124372 -25.11905,37.613676 -3.65662,0.732956 -9.213868,0.801586 -12.523904,0.15469 z"
     id="path14" /><path
     style="fill:#008080;fill-opacity:1;stroke-width:1.22093"
     d="m 92.194672,112.86085 c -0.909996,-1.73088 -1.154387,-4.05554 -0.635724,-6.04687 0.635146,-2.43853 1.688042,-3.90267 4.29455,-5.97186 2.787746,-2.213058 5.412502,-4.794752 7.662492,-7.536758 2.72086,-3.315849 4.90029,-4.468345 8.40085,-4.442443 1.85281,0.01368 4.74931,0.95362 4.74931,1.541135 0,0.49435 -3.34274,5.522784 -5.34456,8.039768 -2.51016,3.156108 -7.03516,7.606848 -10.24394,10.075838 -2.497909,1.92201 -7.667259,5.25687 -8.148657,5.25687 -0.139087,0 -0.46953,-0.41206 -0.734321,-0.91568 z"
     id="path13" /><path
     style="fill:#008080;fill-opacity:1;stroke-width:1.22093"
     d="m 32.20022,112.11312 c -7.54621,-4.6599 -14.36177,-11.36363 -19.09942,-18.786019 -0.93013,-1.457229 -1.69115,-2.761432 -1.69115,-2.898247 0,-0.426166 1.78618,-1.182029 3.55198,-1.503091 1.32007,-0.24003 2.09211,-0.205982 3.52673,0.155524 2.47921,0.624725 3.96775,1.660346 6.07146,4.224075 2.24998,2.742006 4.87473,5.3237 7.66248,7.536758 3.37118,2.67623 4.54291,4.8199 4.51657,8.26301 -0.0139,1.8224 -0.96953,4.6714 -1.56684,4.6714 -0.15297,0 -1.49028,-0.74854 -2.97181,-1.66341 z"
     id="path12" /><path
     style="fill:#008080;fill-opacity:1;stroke-width:1.22093"
     d="m 57.882549,120.84821 c -0.423179,-0.0612 -1.808132,-0.25757 -3.077669,-0.4366 -2.719374,-0.38348 -7.123568,-1.4288 -7.487863,-1.77723 -0.484235,-0.46312 1.075497,-3.3081 2.564874,-4.67839 2.381563,-2.19113 3.217325,-2.4416 7.692895,-2.30549 5.062741,0.15396 8.254265,0.15128 12.926239,-0.0108 3.704584,-0.12857 3.904083,-0.10368 5.385924,0.67282 0.846358,0.44348 2.050616,1.32893 2.676126,1.96766 1.040182,1.06218 2.378851,3.41693 2.395279,4.21336 0.0084,0.41207 -4.976005,1.55289 -9.226264,2.11162 -2.877557,0.37829 -11.825409,0.53534 -13.849541,0.2431 z"
     id="path1-0" /></svg>
