<?xml version="1.0" encoding="UTF-8" standalone="no"?>
<svg
   viewBox="0 0 128 128"
   style="display:inline;enable-background:new"
   version="1.0"
   id="svg11300"
   height="128"
   width="128"
   xml:space="preserve"
   xmlns:xlink="http://www.w3.org/1999/xlink"
   xmlns="http://www.w3.org/2000/svg"
   xmlns:svg="http://www.w3.org/2000/svg"
   xmlns:rdf="http://www.w3.org/1999/02/22-rdf-syntax-ns#"
   xmlns:cc="http://creativecommons.org/ns#"
   xmlns:dc="http://purl.org/dc/elements/1.1/"><title
     id="title4162">Adwaita Icon Template</title><defs
     id="defs3"><linearGradient
       id="linearGradient974"><stop
         style="stop-color:#002229;stop-opacity:1;"
         offset="0"
         id="stop962" /><stop
         id="stop964"
         offset="0.04166667"
         style="stop-color:#006980;stop-opacity:1;" /><stop
         style="stop-color:#002229;stop-opacity:1;"
         offset="0.08333334"
         id="stop966" /><stop
         id="stop968"
         offset="0.91666669"
         style="stop-color:#002229;stop-opacity:1;" /><stop
         style="stop-color:#006980;stop-opacity:1;"
         offset="0.95833331"
         id="stop970" /><stop
         style="stop-color:#002229;stop-opacity:1;"
         offset="1"
         id="stop972" /></linearGradient><linearGradient
       y2="44"
       x2="464"
       y1="44"
       x1="48"
       gradientTransform="matrix(0.25,0,0,0.25,0,53)"
       gradientUnits="userSpaceOnUse"
       id="linearGradient1747"
       xlink:href="#linearGradient974" /></defs><metadata
     id="metadata4"><rdf:RDF><cc:Work
         rdf:about=""><dc:format>image/svg+xml</dc:format><dc:type
           rdf:resource="http://purl.org/dc/dcmitype/StillImage" /><dc:creator><cc:Agent><dc:title>GNOME Design Team</dc:title></cc:Agent></dc:creator><dc:source /><cc:license
           rdf:resource="http://creativecommons.org/licenses/by-sa/4.0/" /><dc:title>Adwaita Icon Template</dc:title><dc:subject><rdf:Bag /></dc:subject><dc:date /><dc:rights><cc:Agent><dc:title /></cc:Agent></dc:rights><dc:publisher><cc:Agent><dc:title /></cc:Agent></dc:publisher><dc:identifier /><dc:relation /><dc:language /><dc:coverage /><dc:description /><dc:contributor><cc:Agent><dc:title /></cc:Agent></dc:contributor></cc:Work><cc:License
         rdf:about="http://creativecommons.org/licenses/by-sa/4.0/"><cc:permits
           rdf:resource="http://creativecommons.org/ns#Reproduction" /><cc:permits
           rdf:resource="http://creativecommons.org/ns#Distribution" /><cc:requires
           rdf:resource="http://creativecommons.org/ns#Notice" /><cc:requires
           rdf:resource="http://creativecommons.org/ns#Attribution" /><cc:permits
           rdf:resource="http://creativecommons.org/ns#DerivativeWorks" /><cc:requires
           rdf:resource="http://creativecommons.org/ns#ShareAlike" /></cc:License></rdf:RDF></metadata><rect
     ry="8"
     rx="8"
     y="32"
     x="12"
     height="83.999992"
     width="104"
     id="rect1709"
     style="display:inline;fill:url(#linearGradient1747);fill-opacity:1;stroke:none;stroke-width:0.25;stroke-linecap:butt;stroke-linejoin:miter;stroke-miterlimit:4;stroke-dasharray:none;stroke-dashoffset:0;stroke-opacity:1;marker:none;marker-start:none;marker-mid:none;marker-end:none;paint-order:normal;enable-background:new" /><rect
     style="display:inline;fill:#002b34;fill-opacity:1;stroke:none;stroke-width:0.25;stroke-linecap:butt;stroke-linejoin:miter;stroke-miterlimit:4;stroke-dasharray:none;stroke-dashoffset:0;stroke-opacity:1;marker:none;marker-start:none;marker-mid:none;marker-end:none;paint-order:normal;enable-background:new"
     id="rect1711"
     width="104"
     height="100"
     x="12"
     y="12"
     rx="8"
     ry="8" /><path
     d="m 78.842269,103.21411 c 12.03772,-1.42634 21.786531,-7.387764 26.167521,-16.001524 2.99509,-5.88883 3.01342,-12.62674 0.0508,-18.69221 -5.215181,-10.67739 -18.844771,-17.68218 -33.484911,-17.20924 -10.11603,0.3268 -19.05455,3.91978 -25.13528,10.10354 -6.9663,7.08432 -8.62979,16.55504 -4.39014,24.99436 2.41313,4.80349 6.76306,9.12413 12.21208,12.129865 4.44664,2.452799 10.08,4.165269 15.35453,4.667589 0.76457,0.0728 1.6176,0.15482 1.89562,0.18224 0.90335,0.0891 6.16134,-0.0362 7.32973,-0.17462 z M 38.537129,51.390166 c 8.07769,-1.43073 11.7966,-10.1896 7.74618,-18.24399 -0.87754,-1.74502 -1.61229,-2.73618 -3.19447,-4.30923 -2.12302,-2.11078 -4.03544,-3.32377 -6.45571,-4.09467 -2.49151,-0.79359 -5.20921,-0.92055 -7.4192,-0.3466 -4.36588,1.13387 -7.45813,4.463 -8.3315,8.96974 -0.20427,1.05408 -0.20193,3.59775 0.004,4.76186 0.57081,3.22066 2.16587,6.21331 4.61764,8.6636 1.25779,1.25704 2.93589,2.4932 4.35871,3.2108 1.0314,0.52019 2.82917,1.12818 3.92039,1.32584 1.16032,0.21017 3.72953,0.24404 4.75358,0.0626 z m 31.33254,-11.37188 c 3.52692,-0.33179 6.99406,-1.51533 9.79404,-3.34328 1.15835,-0.75623 3.07439,-2.63901 3.73067,-3.66591 1.47062,-2.30116 1.59352,-5.01876 0.31694,-7.00814 -0.507,-0.7901 -1.76374,-1.96056 -2.70857,-2.52264 -4.96208,-2.9519 -13.60291,-2.24072 -19.39978,1.59669 -1.30093,0.86119 -3.19718,2.7302 -3.78371,3.72934 -0.92757,1.58009 -1.09256,2.15881 -1.09256,3.83218 0,1.50908 0.004,1.53198 0.48069,2.49567 1.72811,3.49658 6.76636,5.44073 12.66228,4.88609 z"
     style="fill:#86c8c8;fill-opacity:1;stroke-width:0.126375"
     id="path1-4" /></svg>
