<?xml version="1.0" encoding="UTF-8" standalone="no"?>
<svg
   height="128px"
   viewBox="0 0 128 128"
   width="128px"
   version="1.1"
   id="svg12937"
   xml:space="preserve"
   xmlns:xlink="http://www.w3.org/1999/xlink"
   xmlns="http://www.w3.org/2000/svg"
   xmlns:svg="http://www.w3.org/2000/svg"><defs
     id="defs12941"><linearGradient
       id="linearGradient14170"
       gradientUnits="userSpaceOnUse"><stop
         offset="0"
         stop-color="#613583"
         id="stop14166"
         style="stop-color:#333333;stop-opacity:1;" /><stop
         offset="1"
         stop-color="#1a5fb4"
         id="stop14168"
         style="stop-color:#4c0905;stop-opacity:1;" /></linearGradient><linearGradient
       id="c-6"
       gradientUnits="userSpaceOnUse"
       x1="203.99998"
       x2="268"
       y1="-64"
       y2="-64"
       gradientTransform="matrix(0,0.6557377,-0.6557377,0,42.68805,-73.409835)"><stop
         offset="0"
         stop-color="#d5d3cf"
         id="stop5"
         style="stop-color:#807e81;stop-opacity:1;" /><stop
         offset="1"
         stop-color="#f6f5f4"
         id="stop6"
         style="stop-color:#737274;stop-opacity:1;" /></linearGradient><radialGradient
       id="b-2"
       cx="-243.06659"
       cy="-74.599976"
       gradientUnits="userSpaceOnUse"
       r="28.266657"
       gradientTransform="matrix(0,-0.6557377,-0.6557377,0,42.68805,-73.409835)"><stop
         offset="0"
         stop-color="#d5d3cf"
         id="stop3"
         style="stop-color:#a09fa1;stop-opacity:1;" /><stop
         offset="1"
         stop-color="#949390"
         id="stop4"
         style="stop-color:#444446;stop-opacity:1;" /></radialGradient><linearGradient
       id="a-6"
       gradientUnits="userSpaceOnUse"
       x1="64"
       x2="64"
       y1="262.5"
       y2="232"
       gradientTransform="matrix(0.6557377,0,0,0.6557377,42.68805,-73.409835)"><stop
         offset="0"
         stop-color="#9a9996"
         id="stop1" /><stop
         offset="1"
         stop-color="#77767b"
         id="stop2" /></linearGradient></defs><linearGradient
     id="a"
     gradientUnits="userSpaceOnUse"><stop
       offset="0"
       stop-color="#613583"
       id="stop12797"
       style="stop-color:#333333;stop-opacity:1;" /><stop
       offset="1"
       stop-color="#1a5fb4"
       id="stop12799"
       style="stop-color:#4b0905;stop-opacity:1;" /></linearGradient><linearGradient
     id="b"
     x1="20"
     x2="96"
     xlink:href="#linearGradient14170"
     y1="94.062744"
     y2="94.062744"
     gradientTransform="matrix(1.08,0,0,1.08,-9.6001846,-11.6)" /><linearGradient
     id="c"
     gradientUnits="userSpaceOnUse"
     x1="100"
     x2="108"
     y1="83"
     y2="83"
     gradientTransform="matrix(1.08,0,0,1.08,-9.6001846,-11.6)"><stop
       offset="0"
       stop-color="#f6f5f4"
       id="stop12803" /><stop
       offset="0.5"
       stop-color="#f6f5f4"
       id="stop12805" /><stop
       offset="1"
       stop-color="#c0bfbc"
       id="stop12807" /></linearGradient><linearGradient
     id="d"
     x1="20"
     x2="96"
     xlink:href="#a"
     y1="92"
     y2="92"
     gradientTransform="matrix(1.08,0,0,1.08,-9.6001846,-11.6)" /><linearGradient
     id="e"
     gradientUnits="userSpaceOnUse"
     x1="20"
     x2="96"
     y1="66"
     y2="66"
     gradientTransform="matrix(1.08,0,0,1.08,-9.6001846,-11.6)"><stop
       offset="0"
       stop-color="#613583"
       id="stop12811"
       style="stop-color:#323232;stop-opacity:1;" /><stop
       offset="0.0227273"
       stop-color="#c061cb"
       id="stop12813"
       style="stop-color:#4d4d4d;stop-opacity:1;" /><stop
       offset="0.0909091"
       stop-color="#9141ac"
       id="stop12815"
       style="stop-color:#63292a;stop-opacity:1;" /><stop
       offset="1"
       stop-color="#3584e4"
       id="stop12817"
       style="stop-color:#8d2e2d;stop-opacity:1;" /></linearGradient><linearGradient
     id="f"
     gradientUnits="userSpaceOnUse"
     x1="20"
     x2="108.099617"
     y1="57"
     y2="57"><stop
       offset="0"
       stop-color="#c061cb"
       id="stop12820" /><stop
       offset="0.0227273"
       stop-color="#dc8add"
       id="stop12822" /><stop
       offset="0.0909091"
       stop-color="#c061cb"
       id="stop12824" /><stop
       offset="1"
       stop-color="#c061cb"
       id="stop12826" /></linearGradient><filter
     id="g"
     height="1"
     width="1"
     x="0"
     y="0"><feColorMatrix
       in="SourceGraphic"
       type="matrix"
       values="0 0 0 0 1 0 0 0 0 1 0 0 0 0 1 0 0 0 1 0"
       id="feColorMatrix12829" /></filter><mask
     id="h"><g
       filter="url(#g)"
       id="g12834"><rect
         fill-opacity="0.1"
         height="128"
         width="128"
         id="rect12832" /></g></mask><linearGradient
     id="i"
     gradientUnits="userSpaceOnUse"><stop
       offset="0"
       stop-opacity="0"
       id="stop12837" /><stop
       offset="0.2"
       id="stop12839" /><stop
       offset="0.8"
       stop-opacity="0.94902"
       id="stop12841" /><stop
       offset="1"
       stop-opacity="0"
       id="stop12843" /></linearGradient><linearGradient
     id="j"
     gradientTransform="matrix(0.980392,0,0,1,4.823524,-148)"
     x1="42"
     x2="93"
     xlink:href="#i"
     y1="273"
     y2="273" /><clipPath
     id="k"><rect
       height="152"
       width="192"
       id="rect12847" /></clipPath><mask
     id="l"><g
       filter="url(#g)"
       id="g12852"><rect
         fill-opacity="0.1"
         height="128"
         width="128"
         id="rect12850" /></g></mask><linearGradient
     id="m"
     gradientTransform="matrix(0.627451,0,0,1,35.647058,-144)"
     x1="42"
     x2="93"
     xlink:href="#i"
     y1="273"
     y2="273" /><clipPath
     id="n"><rect
       height="152"
       width="192"
       id="rect12856" /></clipPath><mask
     id="o"><g
       filter="url(#g)"
       id="g12861"><rect
         fill-opacity="0.15"
         height="128"
         width="128"
         id="rect12859" /></g></mask><clipPath
     id="p"><rect
       height="152"
       width="192"
       id="rect12864" /></clipPath><clipPath
     id="q"><path
       d="m 84 8 h 20 v 20 h -20 z m 0 0"
       id="path12867" /></clipPath><clipPath
     id="r"><path
       d="m 104 28 l -20 -20 h -5.714844 v 25.714844 h 25.714844 z m 0 0"
       id="path12870" /></clipPath><linearGradient
     id="s"
     gradientTransform="matrix(0 -0.178571 0.178571 0 80.428574 79.428574)"
     gradientUnits="userSpaceOnUse"
     x1="344"
     x2="340"
     y1="76"
     y2="72"><stop
       offset="0"
       stop-color="#d5d3cf"
       id="stop12873" /><stop
       offset="1"
       stop-color="#ffffff"
       id="stop12875" /></linearGradient><linearGradient
     id="t"
     gradientTransform="matrix(1.4222219,0,0,1.0666667,-365.78938,-207.80264)"
     gradientUnits="userSpaceOnUse"
     x1="34"
     x2="34"
     y1="278"
     y2="272"><stop
       offset="0"
       stop-color="#c061cb"
       id="stop12878" /><stop
       offset="1"
       stop-color="#9141ac"
       id="stop12880" /></linearGradient><linearGradient
     id="u"
     gradientUnits="userSpaceOnUse"
     x1="64.857857"
     x2="112.192848"
     y1="48"
     y2="81.075584"><stop
       offset="0"
       stop-color="#9141ac"
       id="stop12883" /><stop
       offset="1"
       stop-color="#1a5fb4"
       id="stop12885" /></linearGradient><linearGradient
     id="v"
     gradientUnits="userSpaceOnUse"
     x1="63.250687"
     x2="112.48423"
     y1="38.587048"
     y2="82"><stop
       offset="0"
       stop-color="#c061cb"
       id="stop12888" /><stop
       offset="1"
       stop-color="#3584e4"
       id="stop12890" /></linearGradient><path
     d="m 20.639816,61.975002 h 64.800001 c 4.771407,0 8.64,3.868593 8.64,8.64 v 38.745008 c 0,4.7714 -3.868593,8.63999 -8.64,8.63999 H 20.639816 c -4.771407,0 -8.64,-3.86859 -8.64,-8.63999 V 70.615002 c 0,-4.771407 3.868593,-8.64 8.64,-8.64 z m 0,0"
     fill="url(#b)"
     id="path12893"
     style="fill:url(#b);stroke-width:1.08" /><path
     d="m 22.799816,40.240001 v 75.600009 h 62.640001 c 4.788281,0 8.64,-3.85173 8.64,-8.64001 V 48.880002 c 0,-4.788282 -3.851719,-8.640001 -8.64,-8.640001 z m 0,0"
     fill="url(#c)"
     id="path12895"
     style="fill:url(#c);stroke-width:1.08" /><path
     d="m 11.999816,72.640002 v 30.240008 h 73.440001 c 4.788281,0 8.64,-3.851731 8.64,-8.640008 v -12.96 c 0,-4.788281 -3.851719,-8.64 -8.64,-8.64 z m 0,0"
     fill="url(#d)"
     id="path12897"
     style="fill:url(#d);stroke-width:1.08" /><path
     d="m 11.999816,18.640001 v 90.720009 c 0,-4.78828 3.851718,-8.64001 8.64,-8.64001 h 64.800001 c 4.788281,0 8.64,-3.85172 8.64,-8.639998 V 18.640001 c 0,-4.788282 -3.851719,-8.64 -8.64,-8.64 H 20.639816 c -4.771407,0 -8.64,3.868593 -8.64,8.64 z m 0,0"
     fill="url(#e)"
     id="path12899"
     style="fill:url(#e);stroke-width:1.08" /><path
     d="m 20.639816,102.88001 h 4.32 c 3.5775,0 6.48,2.90249 6.48,6.48 0,3.57749 -2.9025,6.48 -6.48,6.48 h -4.32 c -3.5775,0 -6.48,-2.90251 -6.48,-6.48 0,-3.57751 2.9025,-6.48 6.48,-6.48 z m 0,0"
     fill="#f6f5f4"
     id="path12903"
     style="stroke-width:1.08" /><g
     clip-path="url(#k)"
     mask="url(#h)"
     transform="matrix(1.08,0,0,1.08,-18.240185,-28.880001)"
     id="g12907"><path
       d="m 46,124 h 50 v 2 H 46 Z m 0,0"
       fill="url(#j)"
       id="path12905"
       style="fill:url(#j)" /></g><g
     clip-path="url(#n)"
     mask="url(#l)"
     transform="matrix(1.08,0,0,1.08,-20.314916,-34.955)"
     id="g12911"><path
       d="m 62,128 h 32 v 2 H 62 Z m 0,0"
       fill="url(#m)"
       id="path12909"
       style="fill:url(#m)" /></g><path
     d="M 86.622476,119.37705 H 82.68805 l -1.311476,-10.4918 h 6.557377 z m 0,0"
     fill="#9a9996"
     stroke="#9a9996"
     stroke-linecap="round"
     stroke-linejoin="round"
     id="path6"
     style="stroke-width:5.2459;stroke:#232428;stroke-opacity:1" /><path
     d="m 82.68805,45.934426 h 3.934426 l 1.311475,10.491803 h -6.557377 z m 0,0"
     fill="#9a9996"
     stroke="#9a9996"
     stroke-linecap="round"
     stroke-linejoin="round"
     id="path7"
     style="stroke-width:5.2459" /><path
     d="m 47.933951,84.622955 v -3.934426 l 10.491803,-1.311476 v 6.557377 z m 0,0"
     fill="#9a9996"
     stroke="#9a9996"
     stroke-linecap="round"
     stroke-linejoin="round"
     id="path8"
     style="stroke-width:5.2459;stroke:#232428;stroke-opacity:1" /><path
     d="m 121.37657,80.688529 v 3.934426 l -10.4918,1.311475 v -6.557377 z m 0,0"
     fill="#9a9996"
     stroke="#9a9996"
     stroke-linecap="round"
     stroke-linejoin="round"
     id="path9"
     style="stroke-width:5.2459;stroke:#232428;stroke-opacity:1" /><path
     d="m 51.870934,65.998306 1.967213,-3.40676 9.741285,4.108608 -3.278682,5.678791 z m 0,0"
     fill="#9a9996"
     stroke="#9a9996"
     stroke-linecap="round"
     stroke-linejoin="round"
     id="path10"
     style="stroke-width:5.2459;stroke:#232428;stroke-opacity:1" /><path
     d="m 117.43957,99.31287 -1.96721,3.40676 -9.74129,-4.108612 3.27863,-5.681378 z m 0,0"
     fill="#9a9996"
     stroke="#9a9996"
     stroke-linecap="round"
     stroke-linejoin="round"
     id="path11"
     style="stroke-width:5.2459;stroke:#232428;stroke-opacity:1" /><path
     d="m 64.591324,51.838685 3.406766,-1.967216 6.383198,8.429815 -5.681385,3.278636 z m 0,0"
     fill="#9a9996"
     stroke="#9a9996"
     stroke-linecap="round"
     stroke-linejoin="round"
     id="path12"
     style="stroke-width:5.2459;stroke:#232428;stroke-opacity:1" /><path
     d="m 104.71941,113.4729 -3.40676,1.96721 -6.383199,-8.42981 5.681379,-3.27864 z m 0,0"
     fill="#9a9996"
     stroke="#9a9996"
     stroke-linecap="round"
     stroke-linejoin="round"
     id="path13"
     style="stroke-width:5.2459;stroke:#232428;stroke-opacity:1" /><path
     d="m 67.997664,115.44023 -3.406766,-1.96722 4.108612,-9.74129 5.681384,3.27864 z m 0,0"
     fill="#9a9996"
     stroke="#9a9996"
     stroke-linecap="round"
     stroke-linejoin="round"
     id="path14"
     style="stroke-width:5.2459;stroke:#232428;stroke-opacity:1" /><path
     d="m 101.31222,49.871587 3.40677,1.967217 -4.10861,9.741285 -5.681383,-3.278636 z m 0,0"
     fill="#9a9996"
     stroke="#9a9996"
     stroke-linecap="round"
     stroke-linejoin="round"
     id="path15"
     style="stroke-width:5.2459;stroke:#232428;stroke-opacity:1" /><path
     d="m 53.838117,102.71971 -1.967213,-3.406759 8.429815,-6.383198 3.278633,5.681379 z m 0,0"
     fill="#9a9996"
     stroke="#9a9996"
     stroke-linecap="round"
     stroke-linejoin="round"
     id="path16"
     style="stroke-width:5.2459;stroke:#232428;stroke-opacity:1" /><path
     d="m 115.47233,62.591625 1.96721,3.406764 -8.42981,6.380635 -3.27869,-5.678787 z m 0,0"
     fill="#9a9996"
     stroke="#9a9996"
     stroke-linecap="round"
     stroke-linejoin="round"
     id="path17"
     style="stroke-width:5.2459;stroke:#232428;stroke-opacity:1" /><path
     d="M 86.622476,118.06557 H 82.68805 l -1.311476,-10.4918 h 6.557377 z m 0,0"
     fill="#f6f5f4"
     stroke="#f6f5f4"
     stroke-linecap="round"
     stroke-linejoin="round"
     id="path18"
     style="stroke-width:5.2459;stroke:#878688;stroke-opacity:1" /><path
     d="m 82.68805,44.622951 h 3.934426 l 1.311475,10.491803 h -6.557377 z m 0,0"
     fill="#f6f5f4"
     stroke="#f6f5f4"
     stroke-linecap="round"
     stroke-linejoin="round"
     id="path19"
     style="stroke-width:5.2459;stroke:#878688;stroke-opacity:1" /><path
     d="m 47.933951,83.311475 v -3.934426 l 10.491803,-1.311476 v 6.557377 z m 0,0"
     fill="#f6f5f4"
     stroke="#f6f5f4"
     stroke-linecap="round"
     stroke-linejoin="round"
     id="path20"
     style="stroke-width:5.2459;stroke:#878688;stroke-opacity:1" /><path
     d="m 121.37657,79.377049 v 3.934426 l -10.4918,1.311475 v -6.557377 z m 0,0"
     fill="#f6f5f4"
     stroke="#f6f5f4"
     stroke-linecap="round"
     stroke-linejoin="round"
     id="path21"
     style="stroke-width:5.2459;stroke:#878688;stroke-opacity:1" /><path
     d="m 51.870934,64.686826 1.967213,-3.40676 9.741285,4.108608 -3.278682,5.678791 z m 0,0"
     fill="#f6f5f4"
     stroke="#f6f5f4"
     stroke-linecap="round"
     stroke-linejoin="round"
     id="path22"
     style="stroke-width:5.2459;stroke:#878688;stroke-opacity:1" /><path
     d="m 117.43957,98.00139 -1.96721,3.40676 -9.74129,-4.108612 3.27863,-5.681378 z m 0,0"
     fill="#f6f5f4"
     stroke="#f6f5f4"
     stroke-linecap="round"
     stroke-linejoin="round"
     id="path23"
     style="stroke-width:5.2459;stroke:#878688;stroke-opacity:1" /><path
     d="m 64.591314,50.527212 3.406766,-1.967217 6.383198,8.429815 -5.681385,3.278636 z m 0,0"
     fill="#f6f5f4"
     stroke="#f6f5f4"
     stroke-linecap="round"
     stroke-linejoin="round"
     id="path24"
     style="stroke-width:5.2459;stroke:#878688;stroke-opacity:1" /><path
     d="m 104.7194,112.16142 -3.40676,1.96722 -6.383199,-8.42982 5.681379,-3.27863 z m 0,0"
     fill="#f6f5f4"
     stroke="#f6f5f4"
     stroke-linecap="round"
     stroke-linejoin="round"
     id="path25"
     style="stroke-width:5.2459;stroke:#878688;stroke-opacity:1" /><path
     d="m 67.997664,114.12876 -3.406766,-1.96722 4.108612,-9.74129 5.681384,3.27864 z m 0,0"
     fill="#f6f5f4"
     stroke="#f6f5f4"
     stroke-linecap="round"
     stroke-linejoin="round"
     id="path26"
     style="stroke-width:5.2459;stroke:#878688;stroke-opacity:1" /><path
     d="m 101.31222,48.560117 3.40677,1.967217 -4.10861,9.741285 -5.681383,-3.278636 z m 0,0"
     fill="#f6f5f4"
     stroke="#f6f5f4"
     stroke-linecap="round"
     stroke-linejoin="round"
     id="path27"
     style="stroke-width:5.2459;stroke:#878688;stroke-opacity:1" /><path
     d="m 53.838117,101.40823 -1.967213,-3.406759 8.429815,-6.383198 3.278632,5.681379 z m 0,0"
     fill="#f6f5f4"
     stroke="#f6f5f4"
     stroke-linecap="round"
     stroke-linejoin="round"
     id="path28"
     style="stroke-width:5.2459;stroke:#878688;stroke-opacity:1" /><path
     d="m 115.47233,61.280145 1.96721,3.406764 -8.42981,6.380635 -3.27869,-5.678787 z m 0,0"
     fill="#f6f5f4"
     stroke="#f6f5f4"
     stroke-linecap="round"
     stroke-linejoin="round"
     id="path29"
     style="stroke-width:5.2459;stroke:#878688;stroke-opacity:1" /><path
     d="m 108.26182,82.655737 c 0,13.037908 -10.56865,23.606553 -23.606558,23.606553 -13.037908,0 -23.606557,-10.568645 -23.606557,-23.606553 0,-13.037908 10.568649,-23.606557 23.606557,-23.606557 13.037908,0 23.606558,10.568649 23.606558,23.606557 z m 0,0"
     fill="none"
     stroke="url(#a)"
     stroke-width="15.7377"
     id="path30"
     style="stroke:url(#a-6)" /><path
     d="m 109.5733,81.344262 c 0,13.762806 -11.155231,24.918028 -24.918038,24.918028 -13.762806,0 -24.918032,-11.155222 -24.918032,-24.918028 0,-13.762807 11.155226,-24.918033 24.918032,-24.918033 13.762807,0 24.918038,11.155226 24.918038,24.918033 z m 0,0"
     fill="none"
     stroke="#f6f5f4"
     stroke-width="13.1148"
     id="path31"
     style="stroke:#a09fa1;stroke-opacity:1" /><path
     d="m 84.655262,63.967213 c -9.597849,0 -17.377049,7.7792 -17.377049,17.377049 0,9.597849 7.7792,17.377049 17.377049,17.377049 9.59785,0 17.377048,-7.7792 17.377048,-17.377049 0,-9.597849 -7.779198,-17.377049 -17.377048,-17.377049 z m 0,0"
     fill="none"
     stroke="url(#b)"
     stroke-linecap="square"
     stroke-linejoin="round"
     stroke-width="3.27869"
     id="path32"
     style="stroke:url(#b-2)" /><path
     id="path4"
     style="fill:#232428;fill-opacity:1;stroke-width:0.642917"
     d="m 81.798828,66.224609 v 8.335938 L 73.875,82.486328 h -8.419922 v 5.714844 H 73.875 l 7.923828,7.925781 v 8.345707 h 5.712891 V 96.125 l 7.923828,-7.923828 H 103.7793 V 82.486328 H 95.435547 L 87.511719,74.5625 v -8.337891 z m 2.81836,10.416016 c 0.831,0 1.5,0.669 1.5,1.5 v 5.708984 h 6 c 0.831,0 1.499999,0.669 1.5,1.5 0,0.831 -0.669,1.5 -1.5,1.5 h -6 v 6.291016 c 0,0.831 -0.669,1.5 -1.5,1.5 -0.831002,0 -1.5,-0.669 -1.5,-1.5 v -6.291016 h -6 c -0.831002,0 -1.5,-0.669 -1.5,-1.5 0,-0.831 0.668999,-1.5 1.5,-1.5 h 6 v -5.708984 c 0,-0.831 0.668998,-1.5 1.5,-1.5 z" /><path
     id="path2"
     style="fill:#232428;fill-opacity:1;opacity:0.6"
     d="m 84.617188,76.640625 c -0.831,0 -1.5,0.669 -1.5,1.5 v 5.708984 h -6 c -0.831,0 -1.5,0.669 -1.5,1.5 0,0.831 0.669,1.5 1.5,1.5 h 6 v 6.291016 c 0,0.831 0.669,1.5 1.5,1.5 0.831,0 1.5,-0.669 1.5,-1.5 v -6.291016 h 6 c 0.831,0 1.5,-0.669 1.5,-1.5 0,-0.831 -0.669,-1.5 -1.5,-1.5 h -6 v -5.708984 c 0,-0.831 -0.669,-1.5 -1.5,-1.5 z" /><path
     id="rect1"
     style="fill:#58585a;stroke-width:0.642917;fill-opacity:1"
     d="M 81.798828 62.224609 L 81.798828 70.560547 L 73.875 78.486328 L 65.455078 78.486328 L 65.455078 84.201172 L 73.875 84.201172 L 81.798828 92.126953 L 81.798828 100.47266 L 87.511719 100.47266 L 87.511719 92.125 L 95.435547 84.201172 L 103.7793 84.201172 L 103.7793 78.486328 L 95.435547 78.486328 L 87.511719 70.5625 L 87.511719 62.224609 L 81.798828 62.224609 z M 84.617188 72.640625 C 85.448188 72.640625 86.117188 73.309625 86.117188 74.140625 L 86.117188 79.849609 L 92.117188 79.849609 C 92.948188 79.849609 93.617187 80.518609 93.617188 81.349609 C 93.617188 82.180609 92.948188 82.849609 92.117188 82.849609 L 86.117188 82.849609 L 86.117188 89.140625 C 86.117188 89.971625 85.448188 90.640625 84.617188 90.640625 C 83.786186 90.640625 83.117188 89.971625 83.117188 89.140625 L 83.117188 82.849609 L 77.117188 82.849609 C 76.286186 82.849609 75.617188 82.180609 75.617188 81.349609 C 75.617188 80.518609 76.286187 79.849609 77.117188 79.849609 L 83.117188 79.849609 L 83.117188 74.140625 C 83.117188 73.309625 83.786186 72.640625 84.617188 72.640625 z " /><path
     d="m 84.655262,102.32787 c -11.588118,0 -20.983606,-9.395497 -20.983606,-20.983608 0,-11.588118 9.395488,-20.983607 20.983606,-20.983607 11.588112,0 20.983608,9.395489 20.983608,20.983607 0,11.588111 -9.395496,20.983608 -20.983608,20.983608 z m 0,0"
     fill="none"
     stroke="url(#c)"
     stroke-linecap="square"
     stroke-linejoin="round"
     stroke-width="5.2459"
     id="path33"
     style="stroke:url(#c-6)" /></svg>
