<?xml version="1.0" encoding="UTF-8" standalone="no"?>
<!-- Created with Inkscape (http://www.inkscape.org/) -->

<svg
   width="128"
   height="128"
   viewBox="0 0 128 128"
   version="1.1"
   id="svg1"
   inkscape:version="1.4 (e7c3feb100, 2024-10-09)"
   sodipodi:docname="lunarclient.svg"
   xmlns:inkscape="http://www.inkscape.org/namespaces/inkscape"
   xmlns:sodipodi="http://sodipodi.sourceforge.net/DTD/sodipodi-0.dtd"
   xmlns:xlink="http://www.w3.org/1999/xlink"
   xmlns="http://www.w3.org/2000/svg"
   xmlns:svg="http://www.w3.org/2000/svg">
  <sodipodi:namedview
     id="namedview1"
     pagecolor="#ffffff"
     bordercolor="#000000"
     borderopacity="0.25"
     inkscape:showpageshadow="2"
     inkscape:pageopacity="0.0"
     inkscape:pagecheckerboard="0"
     inkscape:deskcolor="#d1d1d1"
     inkscape:document-units="px"
     inkscape:zoom="6.140625"
     inkscape:cx="64.081425"
     inkscape:cy="64"
     inkscape:window-width="1920"
     inkscape:window-height="1011"
     inkscape:window-x="0"
     inkscape:window-y="0"
     inkscape:window-maximized="1"
     inkscape:current-layer="layer1" />
  <defs
     id="defs1">
    <linearGradient
       id="linearGradient1"
       inkscape:collect="always">
      <stop
         style="stop-color:#404040;stop-opacity:1;"
         offset="0"
         id="stop1" />
      <stop
         style="stop-color:#707070;stop-opacity:1;"
         offset="0.0567307"
         id="stop3" />
      <stop
         style="stop-color:#3f3f3f;stop-opacity:1;"
         offset="0.10987032"
         id="stop4" />
      <stop
         style="stop-color:#404040;stop-opacity:1;"
         offset="0.90989172"
         id="stop6" />
      <stop
         style="stop-color:#6c6c6c;stop-opacity:1;"
         offset="0.95609128"
         id="stop5" />
      <stop
         style="stop-color:#404040;stop-opacity:1;"
         offset="1"
         id="stop2" />
    </linearGradient>
    <linearGradient
       inkscape:collect="always"
       xlink:href="#linearGradient1"
       id="linearGradient2"
       x1="15"
       y1="66"
       x2="113"
       y2="66"
       gradientUnits="userSpaceOnUse"
       gradientTransform="matrix(1.0204082,0,0,1.037037,-1.3061223,-2.4444444)" />
  </defs>
  <g
     inkscape:label="Layer 1"
     inkscape:groupmode="layer"
     id="layer1">
    <path
       d="m 64.298395,10 v 0.0055 c -2.32653,-0.05736 -4.623924,0.529152 -6.640625,1.695311 L 20.342232,33.335076 C 16.417143,35.609969 13.999355,39.814995 14,44.365511 v 43.268601 c 0.0013,4.548564 2.418829,8.751042 6.342232,11.024968 l 37.315538,21.63429 c 3.924475,2.27551 8.759988,2.27551 12.684463,0 L 107.65778,98.65908 C 111.58117,96.385154 113.99869,92.182676 114,87.634112 V 44.365511 c 6.4e-4,-4.550515 -2.41714,-8.755541 -6.34222,-11.030435 L 70.342233,11.700776 C 68.501371,10.634338 66.423112,10.049503 64.298395,10 Z"
       style="fill:url(#linearGradient2);stroke-width:2.78885"
       id="path1"
       sodipodi:nodetypes="ccccccccccccccc"
       inkscape:label="path1" />
    <path
       d="M 64.298394,6 V 6.0055 C 61.971865,5.9481378 59.67447,6.5346476 57.657769,7.7008071 L 20.342232,29.335076 C 16.417142,31.609969 13.999356,35.814995 14,40.365511 v 43.268601 c 0.0013,4.548564 2.418829,8.751042 6.342232,11.024964 l 37.315537,21.634294 c 3.924475,2.27551 8.759989,2.27551 12.684463,0 L 107.65777,94.659076 c 3.92341,-2.273922 6.34092,-6.4764 6.34223,-11.024964 V 40.365511 c 6.4e-4,-4.550515 -2.41714,-8.755541 -6.34223,-11.030435 L 70.342232,7.700776 C 68.501371,6.6343379 66.423112,6.049503 64.298394,6 Z"
       style="fill:#303030;fill-opacity:1;stroke-width:2.78886"
       id="path2" />
    <path
       d="m 63.970702,14.000177 c -0.48696,0.0042 -0.96558,0.12687 -1.394529,0.357423 0,0 -9.776181,5.268033 -19.576173,10.921875 -4.899996,2.826918 -9.800424,5.741802 -13.546875,8.191404 -1.873227,1.224804 -3.452793,2.326356 -4.664061,3.304689 -0.605637,0.489165 -1.11333,0.936201 -1.582032,1.458984 C 22.73833,38.757335 22,39.187676 22,41.000177 v 36.181641 h 6 V 41.943536 c 0.1611,-0.15213 0.27132,-0.26874 0.5625,-0.503907 0.921543,-0.744321 2.388852,-1.775583 4.171875,-2.941404 C 36.300424,36.166577 41.149996,33.268961 46,30.470879 54.989545,25.284605 62.728465,21.120356 64,20.43377 c 1.271535,0.686586 9.010455,4.850835 18,10.037109 4.85,2.798082 9.69958,5.695698 13.26563,8.027346 1.78302,1.165821 3.25033,2.197083 4.17187,2.941404 0.29117,0.23517 0.40142,0.35178 0.56251,0.503907 v 35.056641 h 6 v -36 c 0,-1.812501 -0.73834,-2.242842 -1.20705,-2.765625 -0.46868,-0.522783 -0.97638,-0.969819 -1.58203,-1.458984 -1.21127,-0.978333 -2.79084,-2.079885 -4.66405,-3.304689 C 94.80042,31.021277 89.9,28.106393 85,25.279475 75.200008,19.625633 65.423827,14.3576 65.423827,14.3576 64.977415,14.117639 64.477492,13.994672 63.970702,14.000177 Z m -1.429686,11.238282 -0.796875,1.458984 -1.453125,0.791016 1.453125,0.796875 0.796875,1.453125 0.791016,-1.453125 1.458984,-0.796875 -1.458984,-0.791016 z m -8.595702,5.707032 C 43.709998,35.052479 37.001353,44.971622 37,56.000177 c 0,10.462833 5.963889,19.517601 14.666016,24 H 19 v 1.5 h 9 v 1.5 h -9 v 1.5 h 15 v 1.500002 H 22 v 1.5 h 18 v 1.5 h -9 v 1.5 h 21 v 1.5 h -3 v 1.5 h 30 v -1.5 h -3 v -1.5 h 21 v -1.5 h -9 v -1.5 h 18.00001 v -1.5 H 97 v -1.500002 h 12.00001 v -1.5 h -9 v -1.5 h 9 v -1.5 H 76.269532 C 81.95283,77.091818 86.57464,72.235568 89.05469,66.054863 85.85792,67.338812 82.44498,67.999124 79,68.000177 c -14.911689,0 -27,-12.088311 -27,-27 0.0011,-3.444975 0.661365,-6.857922 1.945314,-10.054686 z m 29.583986,6.140622 -0.79688,1.458987 -1.45312,0.791013 1.45312,0.796878 0.79688,1.453122 0.79687,-1.453122 1.45313,-0.796878 -1.45313,-0.791013 z m -24.052736,2.542971 -1.060548,1.939452 -1.939452,1.060548 1.939452,1.060545 1.060548,1.939455 1.060545,-1.939455 1.939455,-1.060545 -1.939455,-1.060548 z m -24.275391,0.773436 -0.796875,1.453125 -1.453125,0.796875 1.453125,0.791016 0.796875,1.458984 0.796875,-1.458984 1.453125,-0.791016 -1.453125,-0.796875 z m 36.011718,5.859375 -0.796875,1.453125 -1.453125,0.796875 1.453125,0.796875 0.796875,1.453125 0.796875,-1.453125 1.453125,-0.796875 -1.453125,-0.796875 z M 89.5,50.000177 87.90625,52.906427 85,54.500177 87.90625,56.093927 89.5,59.000177 91.09375,56.093927 94,54.500177 91.09375,52.906427 Z m -15,4.5 -1.060548,1.939452 L 71.5,57.500177 73.439452,58.560725 74.5,60.500177 75.560548,58.560725 77.5,57.500177 75.560548,56.439629 Z M 35.59375,65.093927 34,68.000177 31.09375,69.593927 34,71.181818 l 1.59375,2.912109 1.587891,-2.912109 2.912109,-1.587891 -2.912109,-1.59375 z"
       style="opacity:1;fill:#ffffff;fill-opacity:1;stroke-width:3"
       id="path1-2" />
  </g>
</svg>
