<?xml version="1.0" encoding="UTF-8" standalone="no"?>
<svg
   width="128"
   height="128"
   version="1"
   id="svg23"
   xmlns:xlink="http://www.w3.org/1999/xlink"
   xmlns="http://www.w3.org/2000/svg"
   xmlns:svg="http://www.w3.org/2000/svg">
  <defs
     id="defs27">
    <linearGradient
       id="linearGradient22">
      <stop
         id="stop21"
         offset="0"
         style="stop-color:#55362a;stop-opacity:1;" />
      <stop
         id="stop22"
         offset="1"
         style="stop-color:#3a251c;stop-opacity:1;" />
    </linearGradient>
    <linearGradient
       id="linearGradient20">
      <stop
         style="stop-color:#000000;stop-opacity:1;"
         offset="0"
         id="stop17" />
      <stop
         style="stop-color:#ffffff;stop-opacity:1;"
         offset="0.41075096"
         id="stop18" />
      <stop
         style="stop-color:#000000;stop-opacity:1;"
         offset="0.81443155"
         id="stop19" />
      <stop
         style="stop-color:#e5e5e5;stop-opacity:1;"
         offset="1"
         id="stop20" />
    </linearGradient>
    <linearGradient
       id="linearGradient10">
      <stop
         id="stop9"
         offset="0"
         style="stop-color:#997000;stop-opacity:1;" />
      <stop
         id="stop10"
         offset="1"
         style="stop-color:#994c00;stop-opacity:1;" />
    </linearGradient>
    <linearGradient
       id="linearGradient8">
      <stop
         id="stop7"
         offset="0"
         style="stop-color:#56372a;stop-opacity:1;" />
      <stop
         id="stop8"
         offset="1"
         style="stop-color:#3a241d;stop-opacity:1;" />
    </linearGradient>
    <linearGradient
       id="linearGradient6">
      <stop
         id="stop5"
         offset="0"
         style="stop-color:#b8a8a3;stop-opacity:1;" />
      <stop
         id="stop6"
         offset="1"
         style="stop-color:#cccccc;stop-opacity:1;" />
    </linearGradient>
    <radialGradient
       id="radialGradient4544-0"
       cx="365.896"
       cy="-121.309"
       r="77.056999"
       fx="365.896"
       fy="-121.309"
       gradientTransform="matrix(0.71344872,0.00811113,-0.00893578,0.80177148,-197.94632,159.76652)"
       gradientUnits="userSpaceOnUse"
       xlink:href="#linearGradient4146" />
    <linearGradient
       id="linearGradient4146">
      <stop
         id="stop4148"
         offset="0"
         style="stop-color:#ffba00;stop-opacity:1" />
      <stop
         id="stop4150"
         offset="1"
         style="stop-color:#ff7f02;stop-opacity:1" />
    </linearGradient>
    <linearGradient
       id="linearGradient1049"
       x1="332.25"
       x2="332.25"
       y1="369.85699"
       y2="522.875"
       gradientUnits="userSpaceOnUse"
       xlink:href="#linearGradient4520"
       gradientTransform="matrix(0.56275516,0,0,0.56851327,-142.06389,-185.16397)" />
    <linearGradient
       id="linearGradient4520">
      <stop
         id="stop4522"
         offset="0"
         style="stop-color:#794d3b;stop-opacity:1" />
      <stop
         id="stop4524"
         offset="1"
         style="stop-color:#5e3c2e;stop-opacity:1" />
    </linearGradient>
    <linearGradient
       id="linearGradient4550-5"
       x1="369.23901"
       x2="369.23901"
       y1="-117.549"
       y2="-183.117"
       gradientTransform="matrix(0.56275516,0,0,0.56851327,-142.06389,135.85598)"
       gradientUnits="userSpaceOnUse"
       xlink:href="#linearGradient4214" />
    <linearGradient
       id="linearGradient4214">
      <stop
         id="stop4216"
         offset="0"
         style="stop-color:#e5dfdd;stop-opacity:1" />
      <stop
         id="stop4218"
         offset="1"
         style="stop-color:#fff;stop-opacity:1" />
    </linearGradient>
    <linearGradient
       xlink:href="#linearGradient4520"
       id="linearGradient2"
       gradientUnits="userSpaceOnUse"
       x1="332.25"
       y1="369.85699"
       x2="332.25"
       y2="522.875"
       gradientTransform="matrix(0.56275516,0,0,0.56851327,-142.06389,-185.16397)" />
    <linearGradient
       xlink:href="#linearGradient4520"
       id="linearGradient4"
       gradientUnits="userSpaceOnUse"
       x1="332.25"
       y1="369.85699"
       x2="332.25"
       y2="522.875"
       gradientTransform="matrix(0.56275516,0,0,0.56851327,-142.06389,-185.16397)" />
    <linearGradient
       xlink:href="#linearGradient6"
       id="linearGradient5"
       gradientUnits="userSpaceOnUse"
       gradientTransform="matrix(0.56275516,0,0,0.56851327,-142.06389,139.85598)"
       x1="369.23901"
       y1="-117.549"
       x2="369.23901"
       y2="-183.117" />
    <linearGradient
       xlink:href="#linearGradient8"
       id="linearGradient7"
       gradientUnits="userSpaceOnUse"
       gradientTransform="matrix(0.56275516,0,0,0.56851327,-142.06389,-181.16397)"
       x1="332.25"
       y1="369.85699"
       x2="332.25"
       y2="522.875" />
    <radialGradient
       xlink:href="#linearGradient10"
       id="radialGradient8"
       gradientUnits="userSpaceOnUse"
       gradientTransform="matrix(0.71344872,0.00811113,-0.00893578,0.80177148,-197.94632,163.76652)"
       cx="365.896"
       cy="-121.309"
       fx="365.896"
       fy="-121.309"
       r="77.056999" />
    <linearGradient
       xlink:href="#linearGradient20"
       id="linearGradient17"
       x1="-118.0293"
       y1="63.000439"
       x2="-5.7109375"
       y2="63.000439"
       gradientUnits="userSpaceOnUse"
       gradientTransform="matrix(1,0,0,0.99999254,123.01465,3.0000262)" />
    <linearGradient
       xlink:href="#linearGradient22"
       id="linearGradient21"
       gradientUnits="userSpaceOnUse"
       gradientTransform="matrix(0.56275516,0,0,0.56851327,-142.06389,-181.16397)"
       x1="332.25"
       y1="369.85699"
       x2="332.25"
       y2="522.875" />
  </defs>
  <path
     style="fill:url(#radialGradient8);fill-opacity:1;stroke:none;stroke-width:0.565627"
     id="path8"
     d="m 94.926709,29.524514 -0.124881,4.51217 -33.241413,2.641995 -25.050432,16.430835 -5.935706,27.466355 c 0,0 4.035169,17.75277 7.478403,21.351171 3.443223,3.59841 10.563635,13.91919 19.349802,15.71839 8.786167,1.79921 16.26628,3.83265 23.390198,2.03345 7.123923,-1.7992 11.878754,-3.95557 11.878754,-3.95557 l 2.967852,-1.43974 c 0,0 -0.730405,0.6463 -1.902658,1.47684 14.176502,-9.1817 23.566512,-25.243666 23.566512,-43.518701 0,-17.758354 -8.86705,-33.420855 -22.376431,-42.717195 z" />
  <path
     style="fill:url(#linearGradient7);fill-opacity:1;stroke:none;stroke-width:0.565627"
     id="path6"
     d="m 62.931349,7.0000015 c -32.002147,0 -57.945509,26.2088135 -57.945509,58.5384015 0,32.329598 26.062328,59.429797 57.945509,59.433377 20.800528,0.62457 40.096301,-9.16011 46.456481,-25.10102 v -4 c 0,-2.44503 -5.16922,7.94293 -6.87448,9.45412 -3.669848,3.25219 -7.651347,3.91128 -12.712688,6.57455 -9.810612,5.16233 -20.421209,4.47668 -30.319616,2.27968 C 51.435369,112.39333 42.610524,108.41864 37.87503,102.06058 33.139535,95.702529 30.359609,80.603709 30.359609,80.603709 l 5.965086,-27.60232 25.174442,-16.512172 33.405968,-2.655077 0.1255,-4.534507 c 5.043005,3.470296 9.440545,7.826949 12.978495,12.8428 h 8.04696 C 107.11789,21.459943 86.698255,7.0000015 62.931349,7.0000015 Z" />
  <path
     id="path10"
     style="opacity:0.4;fill:url(#linearGradient17);fill-opacity:1;stroke:none;stroke-width:0.565625"
     d="m 62.930666,6.9999963 c -32.002147,0 -57.945316,26.2092777 -57.945316,58.5386247 0,32.329358 26.062135,59.429579 57.945316,59.433159 20.800528,0.62456 40.096854,-9.16059 46.457034,-25.101383 v -0.0039 c 5.01322,-7.989782 7.91601,-17.465172 7.91601,-27.624794 0,-17.716193 -8.82578,-33.347718 -22.281248,-42.652026 l 0.0078,-0.291013 c 5.043008,3.47027 9.440568,7.82784 12.978518,12.843654 h 8.04687 C 107.11749,21.459976 86.697572,6.9999963 62.930666,6.9999963 Z m 31.876953,26.8415967 -0.0059,0.19531 -33.242187,2.640605 -25.048828,16.431519 -5.935547,27.466592 c 0,0 4.033328,17.753024 7.476562,21.351401 0.898307,0.93879 2.046998,2.33475 3.410157,3.91794 -1.353691,-1.15192 -2.564131,-2.41322 -3.585938,-3.78513 C 33.140443,95.701828 30.360313,80.602963 30.360313,80.602963 L 36.325157,53.001606 61.498985,36.488057 Z" />
  <path
     style="fill:url(#radialGradient4544-0);fill-opacity:1;stroke:none;stroke-width:0.565627"
     id="path2996-71-2"
     d="m 94.926709,25.524514 -0.124881,4.51217 -33.241413,2.641995 -25.050432,16.430835 -5.935706,27.466355 c 0,0 4.035169,17.75277 7.478403,21.351175 3.443223,3.598406 10.563635,13.919186 19.349802,15.718386 8.786167,1.79921 16.26628,3.83265 23.390198,2.03345 7.123923,-1.7992 11.878754,-3.95557 11.878754,-3.95557 l 2.967852,-1.43974 c 0,0 -0.730405,0.6463 -1.902658,1.47684 14.176502,-9.1817 23.566512,-25.243666 23.566512,-43.518701 0,-17.758354 -8.86705,-33.420855 -22.376431,-42.717195 z" />
  <path
     style="fill:url(#linearGradient2);fill-opacity:1;stroke:none;stroke-width:0.565627"
     id="path3970-2-2"
     d="m 87.3914,9.0202614 c 0,0 1.252856,-3.122002 2.422189,-3.2063808 1.169332,-0.084379 1.837525,0.67503 2.589236,1.5188117 0.751717,0.8437874 2.255146,2.1094628 2.255146,2.1094628 0,0 6.848959,-2.3625934 14.533149,1.8563269 7.68419,4.218919 8.77,5.4846 10.27343,8.437845 1.50343,2.953244 0.83524,10.378545 0.83524,10.378545 l 0.89788,4.429867 -1.90017,2.489167 -13.36381,-2.278215 -15.953053,-11.897362 z" />
  <path
     style="fill:url(#linearGradient5);fill-opacity:1;stroke:none;stroke-width:0.565627"
     id="path5"
     d="M 84.665527,24.533928 C 73.443722,24.591788 66.908525,25.90583 55.26408,30.928276 40.491346,37.870721 25.659253,50.869953 25.575729,72.116658 c -0.09734,24.760703 19.873676,44.830472 44.38379,44.830472 12.665413,0 26.304054,-4.67401 34.389031,-13.27015 -8.701115,7.36053 -23.041017,9.69218 -29.81144,9.69349 -21.151316,0 -38.44127,-15.895999 -38.44127,-37.263741 0,-13.500775 6.550537,-23.446948 17.223448,-29.892189 3.719665,-2.246258 11.618125,-4.801043 22.57579,-3.132389 5.557038,0.846238 10.108641,2.057296 17.127481,4.318222 8.145981,2.624002 12.683571,6.289531 18.950961,7.018047 7.1379,0.829705 14.67859,-5.965393 9.11005,-16.534544 0,0 -1.0093,1.017491 -1.85302,1.528903 -0.84372,0.511412 -2.02176,-0.164079 -5.39663,-1.357371 -3.37488,-1.193287 -3.88321,-2.563443 -8.60804,-5.802377 -4.72482,-3.238934 -4.72271,-6.814547 -18.559685,-7.666896 -0.648609,-0.03997 -1.319549,-0.05912 -2.000668,-0.05219 z" />
  <path
     style="fill:url(#linearGradient4);fill-opacity:1;stroke:none;stroke-width:0.565627"
     id="path2996-7-5-8"
     d="m 62.931349,3.0000015 c -32.002147,0 -57.945509,26.2088135 -57.945509,58.5384015 0,32.329598 26.062328,59.429797 57.945509,59.433377 20.800528,0.62457 40.096301,-9.16011 46.456481,-25.10102 -2.34674,1.09403 -4.92816,3.729293 -6.87448,5.45411 -3.669854,3.25219 -7.651347,3.91129 -12.712688,6.57456 -9.810612,5.16233 -20.421209,4.47668 -30.319616,2.27968 C 51.435369,108.39333 42.610524,104.41864 37.87503,98.060582 33.139535,91.702529 30.359609,76.603709 30.359609,76.603709 l 5.965086,-27.60232 25.174442,-16.512172 33.405968,-2.655077 0.1255,-4.534507 c 5.043005,3.470296 9.440545,7.826949 12.978495,12.8428 h 8.04696 C 107.11789,17.459943 86.698255,3.0000015 62.931349,3.0000015 Z" />
  <path
     style="fill:url(#linearGradient21);fill-opacity:1;stroke:none;stroke-width:0.565627"
     id="path20"
     d="m 46.060731,35.560846 c -2.851649,0.701528 -9.800848,2.406471 -13.929541,8.067095 -3.965274,5.436556 -3.643479,11.775234 -3.731826,13.463173 1.148291,-1.867378 4.291891,-1.602524 6.459185,-1.263811 1.680704,0.262667 4.778241,-2.429774 6.488854,-2.386299 0.02764,7.02e-4 0.05544,4.022043 0.05544,4.022043 2.73761,1.093499 5.225567,2.84051 7.082578,5.854112 0.276149,0.402149 0.472224,0.866658 0.779933,1.247022 1.515061,1.872814 3.15247,2.353145 4.802046,2.429729 3.524935,0.10368 5.189295,-2.554409 5.346326,-6.128817 0.0045,-0.280391 0.0195,-3.754516 3e-6,-4 -0.116473,-2.48894 -3.91685,-8.375118 -10.155053,-8.667283 -0.06952,-0.0023 -0.139962,-0.0017 -0.208877,-0.0061 -3.460365,-0.21359 -6.149721,-3.191258 -6.048915,-6.745387 0.347417,-2.302581 1.41148,-4.123478 3.499476,-5.601169 z" />
  <path
     style="fill:url(#linearGradient4550-5);fill-opacity:1;stroke:none;stroke-width:0.565627"
     id="path3004-7-2"
     d="M 84.665527,20.533928 C 73.443722,20.591788 66.908525,21.90583 55.26408,26.928276 40.491346,33.870721 25.659253,46.869953 25.575729,68.116658 c -0.09734,24.760703 19.873676,44.830472 44.38379,44.830472 12.665413,0 26.304054,-4.67401 34.389031,-13.270151 -8.701115,7.360531 -23.041017,9.692181 -29.81144,9.693491 -21.151316,0 -38.44127,-15.895999 -38.44127,-37.263741 0,-13.500775 6.550537,-23.446948 17.223448,-29.892189 3.719665,-2.246258 11.618125,-4.801043 22.57579,-3.132389 5.557038,0.846238 10.108641,2.057296 17.127481,4.318222 8.145981,2.624002 12.683571,6.289531 18.950961,7.018047 7.1379,0.829705 14.67859,-5.965393 9.11005,-16.534544 0,0 -1.0093,1.017491 -1.85302,1.528903 -0.84372,0.511412 -2.02176,-0.164079 -5.39663,-1.357371 -3.37488,-1.193287 -3.88321,-2.563443 -8.60804,-5.802377 -4.72482,-3.238934 -4.72271,-6.814547 -18.559685,-7.666896 -0.648609,-0.03997 -1.319549,-0.05912 -2.000668,-0.05219 z" />
  <ellipse
     style="fill:#3f3f3f;fill-opacity:1;stroke:none;stroke-width:0.246344"
     id="path3026-6-2"
     cx="103.92043"
     cy="28.227549"
     rx="4.3766241"
     ry="4.4214058" />
  <ellipse
     style="fill:#3f3f3f;fill-opacity:1;stroke:none;stroke-width:0.142427"
     id="path3026-4-1-7"
     cx="120.11"
     cy="31.335047"
     rx="2.268765"
     ry="2.8510797" />
  <path
     style="fill:url(#linearGradient1049);fill-opacity:1;stroke:none;stroke-width:0.565627"
     id="path3889-4-8"
     d="m 46.060731,31.560846 c -2.851649,0.701528 -9.800848,2.406471 -13.929541,8.067095 -3.965274,5.436556 -3.643479,11.775234 -3.731826,13.463173 1.148291,-1.867378 4.291891,-1.602525 6.459185,-1.263811 5.110273,0.798654 10.350559,2.172972 13.626875,7.489856 0.276149,0.402149 0.472224,0.866658 0.779933,1.247022 1.515061,1.872814 3.15247,2.353145 4.802046,2.429729 3.524935,0.10368 5.189295,-2.554409 5.346326,-6.128817 0.0045,-0.280391 0.0011,-0.146074 -0.0184,-0.391558 -0.116473,-2.48894 -3.898447,-11.98356 -10.13665,-12.275725 -0.06952,-0.0023 -0.139962,-0.0017 -0.208877,-0.0061 -3.460365,-0.21359 -6.149721,-3.191258 -6.048915,-6.745387 0.347417,-2.302581 1.41148,-4.123478 3.499476,-5.601169 z" />
  <path
     style="fill:#3f3f3f;fill-opacity:1;stroke:none;stroke-width:0.565627"
     id="path3950-2-5"
     d="m 118.95858,35.525953 c 0,0 -0.56813,0.99197 -1.79349,1.586442 -0.50315,0.244102 -1.38676,-0.368226 -2.21609,0.482946 -1.76094,3.570838 2.54075,6.552127 4.54533,6.467748 2.00457,-0.08438 3.58602,-2.124812 3.50251,-3.896766 -0.0835,-2.742298 -4.03826,-4.64037 -4.03826,-4.64037 z" />
</svg>
