<?xml version="1.0" encoding="UTF-8" standalone="no"?>
<!-- Generator: Adobe Illustrator 26.0.2, SVG Export Plug-In . SVG Version: 6.00 Build 0)  -->

<svg
   version="1.0"
   id="Layer_1"
   x="0px"
   y="0px"
   viewBox="0 0 128 128"
   xml:space="preserve"
   width="128"
   height="128"
   xmlns:xlink="http://www.w3.org/1999/xlink"
   xmlns="http://www.w3.org/2000/svg"
   xmlns:svg="http://www.w3.org/2000/svg"><defs
   id="defs76"><linearGradient
     id="a-9"
     gradientUnits="userSpaceOnUse"
     x1="0"
     y1="269.46301"
     x2="118.926"
     y2="269.46301"
     gradientTransform="matrix(1,0,0,0.98333333,-1.3e-6,-168.03333)"><stop
       offset="0"
       stop-color="#e5a50a"
       id="stop1"
       style="stop-color:#787878;stop-opacity:1;" /><stop
       offset="0.414"
       stop-color="#fbdf9b"
       id="stop2"
       style="stop-color:#cbcbcb;stop-opacity:1;" /><stop
       offset="0.81300002"
       stop-color="#e5a50a"
       id="stop3"
       style="stop-color:#787878;stop-opacity:1;" /><stop
       offset="1"
       stop-color="#f8ca5b"
       id="stop4-8"
       style="stop-color:#a9a9a9;stop-opacity:1;" /></linearGradient><radialGradient
     fx="0"
     fy="0"
     cx="0"
     cy="0"
     r="1"
     gradientUnits="userSpaceOnUse"
     gradientTransform="matrix(58.252414,0,0,58.252692,63.999849,61.999665)"
     spreadMethod="pad"
     id="radialGradient44"><stop
       style="stop-opacity:1;stop-color:#3681bc"
       offset="0"
       id="stop38" /><stop
       style="stop-opacity:1;stop-color:#225083"
       offset="0.539877"
       id="stop40" /><stop
       style="stop-opacity:1;stop-color:#193352"
       offset="1"
       id="stop42" /></radialGradient><radialGradient
     xlink:href="#radialGradient44"
     id="radialGradient1"
     gradientUnits="userSpaceOnUse"
     gradientTransform="matrix(58.252414,0,0,58.252692,63.999849,65.999665)"
     cx="0"
     cy="0"
     fx="0"
     fy="0"
     r="1"
     spreadMethod="pad" /></defs>
<style
   type="text/css"
   id="style2">
	.st0{fill:url(#SVGID_1_);}
	.st1{fill:url(#SVGID_00000062171159965967627490000013605884846004172698_);}
	.st2{fill:url(#SVGID-2_00000085966066984138215510000013018799571900533434_);}
	.st3{clip-path:url(#SVGID_00000023257072852279316340000004281102206337855156_);}
	.st4{fill:url(#SVGID_00000177446033621631838710000001370584907163434138_);}
	.st5{clip-path:url(#SVGID_00000136385553608229244970000014654043435100792964_);}
	.st6{fill:url(#SVGID_00000126306410582640054500000000964390405037519506_);}
	.st7{fill:url(#SVGID_00000109020757643166282930000006684795936706346369_);}
</style>
<radialGradient
   id="SVGID_1_"
   cx="514.5"
   cy="477.5"
   r="496.5"
   gradientTransform="matrix(1,0,0,-1,-18,974)"
   gradientUnits="userSpaceOnUse">
	<stop
   offset="0.9134"
   style="stop-color:#000000"
   id="stop4" />
	<stop
   offset="1"
   style="stop-color:#000000;stop-opacity:0"
   id="stop6" />
</radialGradient>

<radialGradient
   id="SVGID_00000163033830155146975860000008434547654242457221_"
   cx="512.05908"
   cy="481.87881"
   r="486.27271"
   gradientTransform="matrix(0.11104257,0,0,-0.11104257,7.1350999,117.51141)"
   gradientUnits="userSpaceOnUse">
	<stop
   offset="0.99"
   style="stop-color:#FFFFFF"
   id="stop11" />
	<stop
   offset="0.9951"
   style="stop-color:#FDFDFD"
   id="stop13" />
	<stop
   offset="0.9969"
   style="stop-color:#F6F6F6"
   id="stop15" />
	<stop
   offset="0.9982"
   style="stop-color:#EBEBEB"
   id="stop17" />
	<stop
   offset="0.9992"
   style="stop-color:#DADADA"
   id="stop19" />
	<stop
   offset="1"
   style="stop-color:#C7C7C7"
   id="stop21" />
</radialGradient>

<radialGradient
   id="SVGID-2_00000052072577768947982130000002178866272689676469_"
   cx="512.06152"
   cy="481.87881"
   r="444.12241"
   gradientTransform="matrix(1,0,0,-1,-18,974)"
   gradientUnits="userSpaceOnUse">
	<stop
   offset="0.99"
   style="stop-color:#000000;stop-opacity:0.5"
   id="stop26" />
	<stop
   offset="1"
   style="stop-color:#000000;stop-opacity:0"
   id="stop28" />
</radialGradient>



<radialGradient
   id="SVGID_00000092427181212153090570000016417065628950216588_"
   cx="578.89008"
   cy="482.3703"
   r="353.94269"
   gradientTransform="matrix(0.11104257,0,0,-0.1218248,7.1350999,118.45626)"
   gradientUnits="userSpaceOnUse">
	<stop
   offset="0"
   style="stop-color:#C2C0C2"
   id="stop66" />
	<stop
   offset="1"
   style="stop-color:#EBEBEB"
   id="stop68" />
</radialGradient>

		
	
		
	
<path
   d="M 124,65.999998 C 124,98.584718 97.136999,125 63.999999,125 30.862999,125 3.9999987,98.584718 3.9999987,65.999998 c 0,-32.58472 26.8630003,-59 60.0000003,-59 33.137,0 60.000001,26.41528 60.000001,59 z m 0,0"
   fill="url(#a)"
   id="path4"
   style="fill:url(#a-9);stroke-width:0.991632" /><path
   d="m 121.48149,90.501786 c -0.007,-0.013 -0.0172,-0.02771 -0.0284,-0.04374 v -4 c -2.44399,-1.47575 -9.52805,-2.356235 -14.07248,-7.922439 -0.12933,-0.157044 -0.24577,-0.316397 -0.35027,-0.474405 -0.73152,-1.106618 -0.97517,-2.371053 -0.70746,-3.656658 0.68339,-3.281369 4.42414,-5.794649 4.84889,-6.070631 l 0.0535,-0.03445 0.0541,-0.02868 c 0.48787,-0.252502 1.02694,-0.662239 1.2629,-0.938221 -0.42995,-0.267514 -1.91244,-0.887798 -6.59985,-1.117014 l -0.67437,-0.03157 c -16.036111,-0.754042 -17.901181,-1.66147 -18.593631,-2.709584 -0.27579,-0.434373 -1.11643,-1.758276 2.36431,-6.632024 0.82928,-1.163009 11.124841,-16.141646 12.125421,-17.733834 2.14105,-3.409353 2.20417,-4.874517 2.06965,-5.106812 -0.004,-0.0031 -0.12861,-0.08795 -0.51654,-0.08795 -0.78406,0 -2.64165,0.34873 -6.747081,2.433411 -0.28792,0.146651 -0.58256,0.218051 -0.86912,0.218051 -0.60817,0 -1.17956,-0.321016 -1.57872,-0.924748 -1.0073,-1.526753 -1.15915,-5.285605 -1.34044,-11.799847 -0.15473,-5.560238 -0.3472,-12.479598 -1.61027,-14.392802 -0.0699,-0.1060478 -0.12341,-0.1601226 -0.13222,-0.1737874 -0.001,-0.00289 -0.003,-0.00447 -7.7e-4,-0.00447 v 0 c -0.0686,-0.022517 -0.14742,-0.033098 -0.23768,-0.033098 -1.95765,0 -8.78286,5.1354884 -12.52689,7.9522724 -6.26075,4.710737 -9.31596,6.857774 -11.20356,6.857774 -0.32024,0 -0.60681,-0.06159 -0.86989,-0.183411 -1.19149,-0.550231 -2.08833,-1.819285 -2.95515,-3.045419 -0.47209,-0.66763 -1.35104,-1.911085 -1.68783,-2.001347 -0.007,0.0016 -0.68417,0.260971 -1.75018,3.104118 -1.28098,3.413202 -2.50481,8.08468 -3.58524,12.205927 -2.27558,8.684565 -3.21747,11.780408 -4.85044,12.412625 -0.20208,0.0791 -0.41108,0.117394 -0.62009,0.117394 -0.3264,0 -0.64877,-0.09469 -0.93688,-0.281178 -0.73055,-0.472864 -1.73498,-1.820824 -4.41952,-5.554272 -2.57871,-3.586606 -8.54404,-11.881832 -10.53768,-12.262125 -0.0406,0.09083 -0.0977,0.255581 -0.14434,0.535219 -0.88856,5.327752 -1.29387,7.759816 -5.23612,8.101233 -0.63374,0.05485 -1.93955,0.06081 -3.74536,0.06986 C 15.501842,37.30908 6.5185094,35.052875 6.5185094,35.052875 v 4 c 0.0173,0.177444 0.14961,0.75712 1.01641,2.070439 1.31259,1.986912 3.5889696,4.588144 5.7916696,7.10431 2.2012,2.515397 4.28062,4.89107 5.50602,6.747113 0.68262,1.033104 1.04798,1.819478 1.15623,2.499808 0.18268,0.454773 0.24658,1.081024 -0.013,1.751539 -0.59917,1.538877 -2.67406,2.756736 -6.33973,3.718438 0.0115,0.04041 0.0413,0.112009 0.1097,0.215741 0.32927,0.498269 1.66442,1.859893 6.95618,3.739224 1.73135,0.615858 3.07635,1.069091 4.12657,1.423979 2.98151,1.006543 3.88143,1.311009 4.5481,2.321402 0.25866,0.391647 0.40453,0.802924 0.58949,1.322363 l 0.15107,0.421864 c 0.84796,2.304849 -1.7088,4.276751 -4.41587,6.365279 -1.60276,1.235951 -3.41986,2.63722 -3.92355,3.726525 -0.65104,1.410306 -0.59843,2.187643 -0.55107,2.442638 l 0.0593,-0.03161 0.0436,0.31042 c 0.006,0.01154 0.013,0.02252 0.0218,0.03522 0.11273,0.170713 0.48565,0.591802 1.52228,0.825635 0.47748,0.108112 1.42993,0.232881 2.53348,0.378753 4.59947,0.608169 13.15986,1.738842 17.65329,5.289651 0.8293,0.655499 1.43957,1.286951 1.86451,1.930528 0.83506,1.264434 0.95919,2.621435 0.36007,3.915314 l -9.854403,19.620062 0.02786,2.06573 0.33679,3.29355 c 0.11274,0.16991 0.19631,0.19997 0.34354,0.20372 0.0677,0.001 0.13524,0.003 0.20226,0.003 1.86586,0 3.49345,-0.58563 4.19418,-0.88035 l 0.609134,-1.29432 0.01855,-4.01406 9.795668,-16.839742 0.17974,-0.166859 c 0.0963,-0.08877 1.96593,-1.787919 4.62181,-1.787919 0.6172,0 1.27809,0.09252 1.96823,0.318129 0.86143,0.23076 11.21415,3.164931 17.52398,12.545671 l 0.0336,0.0496 0.0264,0.0503 c 0.0101,0.018 0.0849,0.15035 0.20669,0.33604 0.5052,0.76531 0.93746,1.09609 1.11201,1.16451 0.15858,-0.13237 0.86066,-0.89989 1.36142,-4.42573 -0.18418,-4.88965 0.0662,-10.880596 2.26577,-11.938333 0.76616,-0.367596 1.70207,-0.477295 2.54638,-0.477295 0.92916,0 1.7471,0.132939 2.10487,0.201501 1.20747,0.22845 3.95591,1.844111 8.01093,4.284252 0.94496,0.568515 1.83294,1.102185 2.56215,1.526945 1.77117,1.03003 2.71689,1.45324 3.21149,1.62394 -7.6e-4,-0.112 -0.003,-0.2271 -0.004,-0.32851 -0.004,-0.17977 -0.007,-0.36626 -0.006,-0.55948 0.003,-0.51117 -0.0308,-1.23807 -0.066,-2.00712 -0.18571,-3.959773 -0.21362,-6.051184 1.2779,-6.601416 0.265402,-0.09772 0.584102,-0.135248 1.194572,-0.135248 0.47364,0 1.12317,0.02251 2.05984,0.05774 1.21035,0.04518 2.76808,0.103204 4.45802,0.103204 2.9788,0 9.93646,-7.99825 10.02132,-5.270597 l 0.12298,3.953052 c 0,0 3.22725,-1.243617 3.72824,-1.749039"
   style="fill:url(#radialGradient1);fill-opacity:1;fill-rule:nonzero;stroke:none;stroke-width:0.192455"
   id="path1" /><path
   style="fill:#ffffff;fill-opacity:1;stroke-width:0.122349"
   d="m 64,2.9999974 c 33.140038,0 60,26.4122976 60,59.0000016 C 124,94.587704 97.1277,121 64,121 30.872301,121 3.9999988,94.587704 3.9999988,61.999999 3.9999988,29.412295 30.859963,2.9999974 64,2.9999974"
   id="path24" /><path
   d="m 121.48149,86.501786 c -0.007,-0.013 -0.0172,-0.02771 -0.0284,-0.04374 -0.24134,-0.366051 -0.81562,-0.892999 -1.70418,-1.565055 -0.43092,-0.3264 -1.0127,-0.677439 -1.68629,-1.084094 -2.44399,-1.47575 -6.13758,-3.707086 -10.68201,-9.27329 -0.12933,-0.157044 -0.24577,-0.316397 -0.35027,-0.474405 -0.73152,-1.106618 -0.97517,-2.371053 -0.70746,-3.656658 0.68339,-3.281369 4.42414,-5.794649 4.84889,-6.070631 l 0.0535,-0.03445 0.0541,-0.02868 c 0.48787,-0.252502 1.02694,-0.662239 1.2629,-0.938221 -0.42995,-0.267514 -1.91244,-0.887798 -6.59985,-1.117014 l -0.67437,-0.03157 c -16.036111,-0.754042 -17.901181,-1.66147 -18.593631,-2.709584 -0.27579,-0.434373 -1.11643,-1.758276 2.36431,-6.632024 0.82928,-1.163009 11.124841,-16.141646 12.125421,-17.733834 2.14105,-3.409353 2.20417,-4.874517 2.06965,-5.106812 -0.004,-0.0031 -0.12861,-0.08795 -0.51654,-0.08795 -0.78406,0 -2.64165,0.34873 -6.747081,2.433411 -0.28792,0.146651 -0.58256,0.218051 -0.86912,0.218051 -0.60817,0 -1.17956,-0.321016 -1.57872,-0.924748 -1.0073,-1.526753 -1.15915,-5.285605 -1.34044,-11.799847 -0.15473,-5.560238 -0.3472,-12.4795982 -1.61027,-14.392802 -0.0699,-0.1060478 -0.12341,-0.1601226 -0.13222,-0.1737874 -0.001,-0.00289 -0.003,-0.00447 -7.7e-4,-0.00447 v 0 c -0.0686,-0.022517 -0.14742,-0.033098 -0.23768,-0.033098 -1.95765,0 -8.78286,5.1354884 -12.52689,7.9522724 -6.26075,4.710737 -9.31596,6.857774 -11.20356,6.857774 -0.32024,0 -0.60681,-0.06159 -0.86989,-0.183411 -1.19149,-0.550231 -2.08833,-1.819285 -2.95515,-3.045419 -0.47209,-0.66763 -1.35104,-1.911085 -1.68783,-2.001347 -0.007,0.0016 -0.68417,0.260971 -1.75018,3.104118 -1.28098,3.413202 -2.50481,8.08468 -3.58524,12.205927 -2.27558,8.684565 -3.21747,11.780408 -4.85044,12.412625 -0.20208,0.0791 -0.41108,0.117394 -0.62009,0.117394 -0.3264,0 -0.64877,-0.09469 -0.93688,-0.281178 -0.73055,-0.472864 -1.73498,-1.820824 -4.41952,-5.554272 -2.57871,-3.586606 -8.54404,-11.881832 -10.53768,-12.262125 -0.0406,0.09083 -0.0977,0.255581 -0.14434,0.535219 -0.88856,5.327752 -1.29387,7.759816 -5.23612,8.101233 -0.63374,0.05485 -1.93955,0.06081 -3.74536,0.06986 -11.34961,0.05177 -17.6096496,0.653195 -18.6132796,1.787721 0.0173,0.177444 0.14961,0.75712 1.01641,2.070439 1.31259,1.986912 3.5889696,4.588144 5.7916696,7.10431 2.2012,2.515397 4.28062,4.89107 5.50602,6.747113 0.68262,1.033104 1.04798,1.819478 1.15623,2.499808 0.18268,0.454773 0.24658,1.081024 -0.013,1.751539 -0.59917,1.538877 -2.67406,2.756736 -6.33973,3.718438 0.0115,0.04041 0.0413,0.112009 0.1097,0.215741 0.32927,0.498269 1.66442,1.859893 6.95618,3.739224 1.73135,0.615858 3.07635,1.069091 4.12657,1.423979 2.98151,1.006543 3.88143,1.311009 4.5481,2.321402 0.25866,0.391647 0.40453,0.802924 0.58949,1.322363 l 0.15107,0.421864 c 0.84796,2.304849 -1.7088,4.276751 -4.41587,6.365279 -1.60276,1.235951 -3.41986,2.63722 -3.92355,3.726525 -0.65104,1.410306 -0.59843,2.187643 -0.55107,2.442638 l 0.0593,-0.03161 0.0436,0.31042 c 0.006,0.01154 0.013,0.02252 0.0218,0.03522 0.11273,0.170713 0.48565,0.591802 1.52228,0.825635 0.47748,0.108112 1.42993,0.232881 2.53348,0.378753 4.59947,0.608169 13.15986,1.738842 17.65329,5.289651 0.8293,0.655499 1.43957,1.286951 1.86451,1.930528 0.83506,1.264434 0.95919,2.621435 0.36007,3.915314 l -9.82654,21.685792 c -0.12254,1.00588 -0.0993,2.63274 0.33679,3.29355 0.11274,0.16991 0.19631,0.19997 0.34354,0.20372 0.0677,0.001 0.13524,0.003 0.20226,0.003 1.86586,0 3.49345,-0.58563 4.19418,-0.88035 l 10.42335,-22.148122 0.17974,-0.166859 c 0.0963,-0.08877 1.96593,-1.787919 4.62181,-1.787919 0.6172,0 1.27809,0.09252 1.96823,0.318129 0.86143,0.23076 11.21415,3.164935 17.52398,12.545671 l 0.0336,0.0496 0.0264,0.0503 c 0.0101,0.018 0.0849,0.15035 0.20669,0.33604 0.5052,0.76531 0.93746,1.09609 1.11201,1.16451 0.15858,-0.13237 0.86066,-0.89989 1.36142,-4.42573 -0.18418,-4.889646 0.0662,-10.880596 2.26577,-11.938333 0.76616,-0.367596 1.70207,-0.477295 2.54638,-0.477295 0.92916,0 1.7471,0.132939 2.10487,0.201501 1.20747,0.22845 3.95591,1.844111 8.01093,4.284252 0.94496,0.568519 1.83294,1.102189 2.56215,1.526949 1.77117,1.03003 2.71689,1.45324 3.21149,1.62394 -7.6e-4,-0.112 -0.003,-0.2271 -0.004,-0.32851 -0.004,-0.17977 -0.007,-0.36626 -0.006,-0.55948 0.003,-0.51117 -0.0308,-1.23807 -0.066,-2.007125 -0.18571,-3.959772 -0.21362,-6.051183 1.2779,-6.601415 0.265401,-0.09772 0.584101,-0.135248 1.194571,-0.135248 0.47364,0 1.12317,0.02251 2.05984,0.05774 1.21035,0.04518 2.76808,0.103204 4.45802,0.103204 3.38529,0 7.30213,-0.233068 10.02132,-1.270597 1.0202,-0.389333 3.33024,-1.270395 3.85122,-1.795987"
   style="fill:url(#radialGradient44);fill-opacity:1;fill-rule:nonzero;stroke:none;stroke-width:0.192455"
   id="path46" /></svg>
