<?xml version="1.0" encoding="UTF-8" standalone="no"?>
<svg
   height="128px"
   viewBox="0 0 128 128"
   width="128px"
   version="1.1"
   id="svg8"
   xml:space="preserve"
   xmlns:xlink="http://www.w3.org/1999/xlink"
   xmlns="http://www.w3.org/2000/svg"
   xmlns:svg="http://www.w3.org/2000/svg"><defs
     id="defs12"><linearGradient
       id="linearGradient872"><stop
         style="stop-color:#00c0fb;stop-opacity:1;"
         offset="0"
         id="stop868" /><stop
         style="stop-color:#0460f4;stop-opacity:1;"
         offset="1"
         id="stop870" /></linearGradient><linearGradient
       xlink:href="#linearGradient872"
       id="linearGradient874"
       x1="81.777061"
       y1="7.7693095"
       x2="46.423931"
       y2="115.66105"
       gradientUnits="userSpaceOnUse"
       gradientTransform="matrix(1.1106506,0,0,1.0921397,-6.4021874,-5.737118)" /><linearGradient
       xlink:href="#linearGradient872"
       id="linearGradient1"
       gradientUnits="userSpaceOnUse"
       gradientTransform="matrix(1.1106506,0,0,1.0921397,-6.40219,-1.737118)"
       x1="81.777061"
       y1="7.7693095"
       x2="46.423931"
       y2="115.66105" /><linearGradient
       xlink:href="#linearGradient17"
       id="linearGradient5"
       x1="-104.64275"
       y1="176.5119"
       x2="3.3572464"
       y2="176.5119"
       gradientUnits="userSpaceOnUse"
       gradientTransform="matrix(1.1111111,0,0,1.0925926,120.26973,-126.85559)" /><linearGradient
       id="linearGradient17"
       gradientUnits="userSpaceOnUse"
       x1="0"
       y1="269.46301"
       x2="118.926"
       y2="269.46301"
       gradientTransform="matrix(1,0,0,0.98333333,-118,-175.03333)"><stop
         offset="0"
         stop-color="#e5a50a"
         id="stop14"
         style="stop-color:#000000;stop-opacity:1;" /><stop
         offset="0.414"
         stop-color="#fbdf9b"
         id="stop15"
         style="stop-color:#ffffff;stop-opacity:1;" /><stop
         offset="0.81300002"
         stop-color="#e5a50a"
         id="stop16"
         style="stop-color:#000000;stop-opacity:1;" /><stop
         offset="1"
         stop-color="#f8ca5b"
         id="stop17"
         style="stop-color:#b2b2b2;stop-opacity:1;" /></linearGradient></defs><path
     d="m 124.00001,66 c 0,32.58445 -26.86328,59 -60,59 C 30.86329,125 4,98.58445 4,66 4,33.41556 30.86329,7 64.00001,7 c 33.13672,0 60,26.41556 60,59 z m 0,0"
     fill="#1c71d8"
     id="path4-3"
     style="fill:url(#linearGradient1);fill-opacity:1;stroke-width:0.991631" /><path
     id="circle2-6"
     style="opacity:0.4;fill:url(#linearGradient5);stroke-width:0.343027"
     d="M 124.00001,66 A 59.999999,58.999999 0 0 1 64.000009,125 59.999999,58.999999 0 0 1 4,66 59.999999,58.999999 0 0 1 64.000009,7 59.999999,58.999999 0 0 1 124.00001,66 Z" /><path
     d="m 124.00001,62 c 0,32.58445 -26.86328,59 -60,59 C 30.863289,121 4.000005,94.58445 4.000005,62 c 0,-32.58444 26.863284,-59 60.000005,-59 33.13672,0 60,26.41556 60,59 z m 0,0"
     fill="#1c71d8"
     id="path4"
     style="fill:url(#linearGradient874);fill-opacity:1;stroke-width:0.991631" /><path
     id="XMLID_5_"
     style="clip-rule:evenodd;fill:#ffffff;fill-rule:evenodd;stroke:none;stroke-width:0.596661"
     class="st0"
     d="M 80.96556,53.12086 80.60454,38.68417 80.303694,30.40083 80.123183,23.182481 c 0,0 0.0602,-3.49084 -0.0602,-4.260007 0,-0.1775 -0.0602,-0.295834 -0.120337,-0.414167 v -0.118331 c -0.120349,-0.236666 -0.36102,-0.414167 -0.601704,-0.5325 -0.300847,-0.118331 -0.601695,-0.05917 -0.842368,0.05917 0,0 -0.0602,0 -0.0602,0.05917 -0.120336,0.05917 -0.240673,0.118331 -0.36102,0.236667 -0.601694,0.591669 -2.707624,3.372507 -2.707624,3.372507 l -4.572888,5.62085 -5.355102,6.44917 -9.205943,11.24169 c 0,0 -4.211878,5.14751 -3.309328,11.53752 0.902541,6.39001 5.776278,9.46668 9.506801,10.70918 3.730511,1.24251 9.506787,1.65667 14.139849,-2.84 4.512715,-4.55584 4.392379,-11.18252 4.392379,-11.18252 z m 12.0941,-30.411712 0.54152,10.295012 c 8.48391,9.23002 11.85342,22.30587 7.64154,34.61256 C 94.92491,85.95842 74.106232,95.60261 54.671452,89.15343 35.236671,82.70425 24.706985,62.58755 31.024793,44.24585 35.296834,31.88 46.067195,23.478316 58.582475,21.289144 l 6.738991,-7.86918 C 44.201938,12.887462 24.345975,25.72665 17.185789,46.43502 c -8.724596,25.44171 5.114419,53.01342 30.987345,61.5926 25.872926,8.57919 53.911956,-5.02916 62.636556,-30.47088 7.1,-20.59004 -0.72203,-42.71841 -17.75003,-54.847592 z" /></svg>
