<?xml version="1.0" encoding="UTF-8" standalone="no"?>
<svg
   viewBox="0 0 128 128"
   style="display:inline;enable-background:new"
   version="1.0"
   id="svg11300"
   height="128"
   width="128"
   xml:space="preserve"
   xmlns:xlink="http://www.w3.org/1999/xlink"
   xmlns="http://www.w3.org/2000/svg"
   xmlns:svg="http://www.w3.org/2000/svg"
   xmlns:rdf="http://www.w3.org/1999/02/22-rdf-syntax-ns#"
   xmlns:cc="http://creativecommons.org/ns#"
   xmlns:dc="http://purl.org/dc/elements/1.1/"><title
     id="title4162">Adwaita Icon Template</title><defs
     id="defs3"><linearGradient
       id="linearGradient974"><stop
         style="stop-color:#6f2a30;stop-opacity:1;"
         offset="0"
         id="stop962" /><stop
         id="stop964"
         offset="0.04166667"
         style="stop-color:#c76b74;stop-opacity:1;" /><stop
         style="stop-color:#6f2a31;stop-opacity:1;"
         offset="0.08333334"
         id="stop966" /><stop
         id="stop968"
         offset="0.91666669"
         style="stop-color:#6f2a31;stop-opacity:1;" /><stop
         style="stop-color:#c76b74;stop-opacity:1;"
         offset="0.95833331"
         id="stop970" /><stop
         style="stop-color:#6f2a31;stop-opacity:1;"
         offset="1"
         id="stop972" /></linearGradient><linearGradient
       y2="44"
       x2="464"
       y1="44"
       x1="48"
       gradientTransform="matrix(0.25,0,0,0.25,0,53)"
       gradientUnits="userSpaceOnUse"
       id="linearGradient1747"
       xlink:href="#linearGradient974" /></defs><metadata
     id="metadata4"><rdf:RDF><cc:Work
         rdf:about=""><dc:format>image/svg+xml</dc:format><dc:type
           rdf:resource="http://purl.org/dc/dcmitype/StillImage" /><dc:creator><cc:Agent><dc:title>GNOME Design Team</dc:title></cc:Agent></dc:creator><dc:source /><cc:license
           rdf:resource="http://creativecommons.org/licenses/by-sa/4.0/" /><dc:title>Adwaita Icon Template</dc:title><dc:subject><rdf:Bag /></dc:subject><dc:date /><dc:rights><cc:Agent><dc:title /></cc:Agent></dc:rights><dc:publisher><cc:Agent><dc:title /></cc:Agent></dc:publisher><dc:identifier /><dc:relation /><dc:language /><dc:coverage /><dc:description /><dc:contributor><cc:Agent><dc:title /></cc:Agent></dc:contributor></cc:Work><cc:License
         rdf:about="http://creativecommons.org/licenses/by-sa/4.0/"><cc:permits
           rdf:resource="http://creativecommons.org/ns#Reproduction" /><cc:permits
           rdf:resource="http://creativecommons.org/ns#Distribution" /><cc:requires
           rdf:resource="http://creativecommons.org/ns#Notice" /><cc:requires
           rdf:resource="http://creativecommons.org/ns#Attribution" /><cc:permits
           rdf:resource="http://creativecommons.org/ns#DerivativeWorks" /><cc:requires
           rdf:resource="http://creativecommons.org/ns#ShareAlike" /></cc:License></rdf:RDF></metadata><rect
     ry="8"
     rx="8"
     y="32"
     x="12"
     height="83.999992"
     width="104"
     id="rect1709"
     style="display:inline;fill:url(#linearGradient1747);fill-opacity:1;stroke:none;stroke-width:0.25;stroke-linecap:butt;stroke-linejoin:miter;stroke-miterlimit:4;stroke-dasharray:none;stroke-dashoffset:0;stroke-opacity:1;marker:none;marker-start:none;marker-mid:none;marker-end:none;paint-order:normal;enable-background:new" /><rect
     style="display:inline;fill:#b84550;fill-opacity:1;stroke:none;stroke-width:0.25;stroke-linecap:butt;stroke-linejoin:miter;stroke-miterlimit:4;stroke-dasharray:none;stroke-dashoffset:0;stroke-opacity:1;marker:none;marker-start:none;marker-mid:none;marker-end:none;paint-order:normal;enable-background:new"
     id="rect1711"
     width="104"
     height="100"
     x="12"
     y="12"
     rx="8"
     ry="8" /><path
     d="m 41.092896,86.049513 c 0.20069,-0.20069 0.31446,-0.79735 0.25282,-1.32592 -0.0884,-0.75819 -0.34518,-1.02101 -1.21655,-1.24525 l -1.10448,-0.28422 -0.0908,-19.8284 c -0.0686,-14.97083 0.008,-19.91073 0.31425,-20.16447 0.58407,-0.48458 1.54339,0.12318 2.89138,1.83179 2.64036,3.34674 2.58161,3.32244 8.05878,3.33371 6.47114,0.0133 6.46531,0.45713 0.0854,-6.49799 -1.59656,-1.7405 -3.08237,-3.40868 -3.30179,-3.70707 -0.34575,-0.47016 -1.7446,-0.55642 -10.4886,-0.64679 -10.44918,-0.10798 -11.48139,0.006 -11.48139,1.26976 0,0.78585 0.60067,1.29539 1.70755,1.4485 l 0.85378,0.1181 v 21.51516 21.51517 l -0.85378,0.1181 c -1.74283,0.24108 -2.30283,1.64604 -1.01548,2.54773 0.55134,0.38618 2.14909,0.47277 7.85805,0.42587 4.55032,-0.0374 7.29918,-0.19207 7.53089,-0.42378 z m 61.451594,0.0204 c 0.21186,-0.21191 0.33477,-0.81647 0.27312,-1.34348 -0.0851,-0.72762 -0.3516,-1.02177 -1.10749,-1.2224 -0.54749,-0.14532 -1.12258,-0.46283 -1.278,-0.70559 -0.15541,-0.24275 -0.27939,-9.67719 -0.27551,-20.96541 0.007,-21.84268 -0.0195,-21.48872 1.65798,-21.71373 1.07368,-0.14402 1.57146,-1.4293 0.83773,-2.16303 -0.46798,-0.46798 -1.83297,-0.52356 -10.723854,-0.43666 l -10.18763,0.0996 -0.77095,0.85377 c -0.42402,0.46958 -2.35361,2.56233 -4.28798,4.65055 -3.29288,3.5548 -4.27009,5.22171 -3.09014,5.27114 2.03291,0.0852 9.2562,-0.0908 9.57866,-0.23335 0.22579,-0.0998 1.40831,-1.32159 2.62784,-2.71508 2.17407,-2.48421 2.88102,-2.96081 3.12493,-2.10673 0.0671,0.23479 0.0811,9.28036 0.0311,20.10128 l -0.0908,19.67439 -1.06887,0.30655 c -2.02462,0.58065 -2.18337,2.38757 -0.25397,2.89062 1.48696,0.38768 14.585474,0.17605 15.003854,-0.24242 z m -41.597494,-13.48628 3.21223,-3.45549 3.19633,3.45549 3.19632,3.45549 h 6.06464 c 5.72578,0 6.07651,-0.0374 6.27732,-0.67012 0.39527,-1.24539 -0.38514,-2.06188 -1.97161,-2.06276 -1.08911,-6.9e-4 -1.69264,-0.22916 -2.47996,-0.93916 -2.13102,-1.9217 -8.35099,-8.89078 -8.35099,-9.35675 0,-0.26584 2.06711,-2.70665 4.59356,-5.42401 4.50254,-4.84277 4.62603,-4.94405 6.23257,-5.11142 1.39023,-0.14484 1.65595,-0.29024 1.7506,-0.95795 0.23091,-1.62887 -0.28385,-1.77414 -6.28683,-1.77414 h -5.57933 l -2.19764,2.3052 c -1.20869,1.26786 -2.61167,2.80465 -3.11772,3.4151 -0.50605,0.61045 -1.09853,1.1088 -1.31662,1.10744 -0.21809,-10e-4 -1.53538,-1.26921 -2.92731,-2.81746 -3.72168,-4.13962 -3.40545,-4.00539 -9.4422,-4.00803 -5.61776,-0.002 -6.45597,0.22901 -6.24489,1.72444 0.10353,0.73348 0.31445,0.84726 1.74021,0.93874 1.61774,0.1038 1.63606,0.11895 6.38248,5.2756 2.92173,3.17426 4.66921,5.3324 4.52479,5.58812 -0.12941,0.22913 -1.79218,2.08131 -3.69505,4.11593 -1.90286,2.03464 -3.84381,4.15436 -4.3132,4.71051 -0.69346,0.82162 -1.19727,1.0457 -2.68744,1.19529 -1.59404,0.16002 -1.84868,0.28788 -1.94636,0.97734 -0.24728,1.74532 -0.16718,1.76809 6.21779,1.76809 h 5.95608 z"
     style="fill:#ffffff;stroke-width:0.341511"
     id="path1-3" /></svg>
