<?xml version="1.0" encoding="UTF-8" standalone="no"?>
<svg
   height="128px"
   viewBox="0 0 128 128"
   width="128px"
   version="1.1"
   id="svg2885"
   xmlns="http://www.w3.org/2000/svg"
   xmlns:svg="http://www.w3.org/2000/svg">
  <defs
     id="defs2889" />
  <linearGradient
     id="a"
     gradientUnits="userSpaceOnUse"
     x1="11.999989"
     x2="115.999989"
     y1="64"
     y2="64">
    <stop
       offset="0"
       stop-color="#3d3846"
       id="stop2851" />
    <stop
       offset="0.05"
       stop-color="#77767b"
       id="stop2853" />
    <stop
       offset="0.1"
       stop-color="#5e5c64"
       id="stop2855" />
    <stop
       offset="0.899999"
       stop-color="#504e56"
       id="stop2857" />
    <stop
       offset="0.95"
       stop-color="#77767b"
       id="stop2859" />
    <stop
       offset="1"
       stop-color="#3d3846"
       id="stop2861" />
  </linearGradient>
  <linearGradient
     id="b"
     gradientUnits="userSpaceOnUse"
     x1="12"
     x2="112.041023"
     y1="60"
     y2="80.988281">
    <stop
       offset="0"
       stop-color="#77767b"
       id="stop2864" />
    <stop
       offset="0.384443"
       stop-color="#9a9996"
       id="stop2866" />
    <stop
       offset="0.720567"
       stop-color="#77767b"
       id="stop2868" />
    <stop
       offset="1"
       stop-color="#68666f"
       id="stop2870" />
  </linearGradient>
  <path
     d="m 20 22 h 88 c 4.417969 0 8 3.582031 8 8 v 78 c 0 4.417969 -3.582031 8 -8 8 h -88 c -4.417969 0 -8 -3.582031 -8 -8 v -78 c 0 -4.417969 3.582031 -8 8 -8 z m 0 0"
     fill="url(#a)"
     id="path2873" />
  <path
     d="m 20 12 h 88 c 4.417969 0 8 3.582031 8 8 v 80 c 0 4.417969 -3.582031 8 -8 8 h -88 c -4.417969 0 -8 -3.582031 -8 -8 v -80 c 0 -4.417969 3.582031 -8 8 -8 z m 0 0"
     fill="url(#b)"
     id="path2875" />
  <path
     d="m 20 14 h 88 c 3.3125 0 6 2.6875 6 6 v 80 c 0 3.3125 -2.6875 6 -6 6 h -88 c -3.3125 0 -6 -2.6875 -6 -6 v -80 c 0 -3.3125 2.6875 -6 6 -6 z m 0 0"
     fill="#241f31"
     id="path2877" />
  <path
     d="M 64,25 C 44.668604,25 29,40.668604 29,60 29,79.331395 44.668604,95 64,95 83.331396,95 99,79.331395 99,60 99,40.668604 83.331396,25 64,25 Z m 16.618224,39.748062 c -0.33915,1.356589 -0.88179,2.441861 -1.62792,3.323644 -0.678286,0.881783 -1.356586,1.424418 -2.102702,1.695736 -0.74613,0.271318 -1.49226,0.406977 -2.306206,0.406977 -0.81396,0 -1.492246,-0.13566 -2.034886,-0.474806 -0.54264,-0.271319 -0.949606,-0.746124 -1.288756,-1.28876 -0.33915,-0.542636 -0.54264,-1.22093 -0.6783,-1.967055 -0.13566,-0.746124 -0.20349,-1.560077 -0.20349,-2.44186 0,-0.339147 0,-0.678295 0.0679,-1.1531 0.0679,-0.474808 0.13566,-1.085272 0.20349,-1.085272 h -0.13566 c -1.085266,2.713178 -2.577512,4.680232 -4.476738,6.24031 -1.899226,1.560077 -4.001942,2.306201 -6.308148,2.306201 -1.560076,0 -2.848832,-0.610464 -3.730608,-1.763566 -0.94962,-1.1531 -1.42443,-2.916666 -1.42443,-5.222868 0,-0.339147 0,-0.678294 0.0679,-1.085271 0.0679,-0.339147 0.0679,-0.474806 0.13566,-1.1531 h -0.474796 c -0.61047,1.356588 -1.15311,3.255813 -1.56009,4.951549 -0.406966,1.695737 -0.746116,3.255815 -0.949606,4.680234 -0.27132,1.424418 -0.40698,2.713177 -0.54264,3.798449 -0.13566,1.085271 -0.20349,1.831396 -0.27132,2.238372 0.06776,0.339147 0.13566,0.678294 0.20349,1.085271 0.13566,0.406977 0.20349,0.813953 0.33915,1.153102 0.13566,0.339146 0.20349,0.746123 0.27132,1.08527 0.0679,0.339147 0.13566,0.610466 0.13566,0.813954 0,0.949612 -0.20349,1.695736 -0.61047,2.170542 -0.40698,0.474806 -0.881776,0.746125 -1.356586,0.746125 -0.61047,0 -1.153096,-0.203489 -1.560076,-0.542636 -0.47481,-0.406977 -0.6783,-1.017442 -0.6783,-1.831395 0,-1.153101 0.20349,-2.645349 0.61047,-4.408915 0.40698,-1.763566 1.017436,-4.001938 1.763566,-6.647287 0.40698,-1.22093 0.74613,-2.44186 1.153096,-3.66279 0.40698,-1.22093 0.74613,-2.374032 1.08528,-3.391474 0.339136,-1.017441 0.610456,-1.967054 0.881776,-2.781007 0.27132,-0.813953 0.40698,-1.424419 0.47481,-1.899225 0.0679,-0.203488 0.13566,-0.678294 0.20349,-1.356589 0.0679,-0.678295 0.13566,-1.424418 0.27132,-2.306201 0.13566,-0.881783 0.20349,-1.831396 0.339136,-2.781008 0.13566,-1.017443 0.27132,-1.899226 0.33915,-2.713179 0.13566,-0.610464 0.20349,-1.28876 0.33915,-2.034883 0.13566,-0.746125 0.33915,-1.492249 0.61047,-2.102713 0.27132,-0.678295 0.678286,-1.220931 1.153096,-1.695738 0.47481,-0.474806 1.085266,-0.678294 1.831396,-0.678294 0.81396,0 1.356586,0.271318 1.627906,0.746124 0.27132,0.474806 0.40698,1.085272 0.33915,1.763566 -0.0679,0.678295 -0.13566,1.424419 -0.33915,2.170543 -0.20349,0.746123 -0.40698,1.424418 -0.61047,1.967054 -0.542626,1.695737 -1.085266,3.255814 -1.695736,4.544573 -0.610456,1.28876 -1.153096,2.713179 -1.627906,4.205427 -0.406966,1.017441 -0.542626,1.967054 -0.542626,2.781007 0,1.492249 0.474796,2.577521 1.356586,3.391474 0.949606,0.813953 2.034886,1.1531 3.323642,1.1531 1.017436,0 2.034886,-0.339147 2.984492,-1.08527 0.94962,-0.746125 1.831396,-1.627908 2.645356,-2.645349 0.813946,-1.017442 1.492246,-2.102714 2.034886,-3.323644 0.542626,-1.153101 0.949606,-2.238372 1.220926,-3.120155 0.0679,-0.13566 0.13566,-0.406977 0.20349,-0.949613 0.13566,-0.542635 0.20349,-1.1531 0.33915,-1.831396 0.13566,-0.678294 0.271306,-1.356588 0.406966,-2.102713 0.13566,-0.746123 0.27132,-1.356589 0.33915,-1.831394 0.13566,-0.542636 0.20349,-1.085272 0.33915,-1.763566 0.13566,-0.678295 0.33915,-1.288761 0.61047,-1.899225 0.271306,-0.610466 0.678286,-1.085272 1.085266,-1.492249 0.47481,-0.406976 1.017436,-0.610464 1.763566,-0.610464 0.881776,0 1.424416,0.271317 1.763566,0.746124 0.27132,0.474806 0.40698,1.08527 0.40698,1.763566 -0.0679,0.678295 -0.13566,1.356589 -0.33915,2.034883 -0.20349,0.678295 -0.33915,1.220931 -0.47481,1.627908 -0.54264,1.695736 -1.085266,3.187983 -1.627906,4.544573 -0.54264,1.356589 -1.017436,2.577519 -1.492246,3.527132 -0.40698,1.017442 -0.74613,1.763565 -1.017436,2.374031 -0.27132,0.610464 -0.40698,1.017441 -0.40698,1.22093 0,1.763566 0.40698,3.052325 1.153096,3.798449 0.74613,0.746125 1.560076,1.153102 2.441866,1.153102 1.492246,0 2.645342,-0.474807 3.527132,-1.35659 0.881776,-0.949612 1.560076,-2.645349 1.967056,-4.680233 h 0.542626 c 0.13566,1.967055 -0.0679,3.594962 -0.406966,4.951551 z"
     id="path3"
     style="fill:#2e3192;stroke-width:0.678294" />
</svg>
