<?xml version="1.0" encoding="UTF-8" standalone="no"?>
<svg
   height="128px"
   viewBox="0 0 128 128"
   width="128px"
   version="1.1"
   id="svg286"
   xml:space="preserve"
   xmlns:xlink="http://www.w3.org/1999/xlink"
   xmlns="http://www.w3.org/2000/svg"
   xmlns:svg="http://www.w3.org/2000/svg"><defs
     id="defs290"><linearGradient
       id="linearGradient5"><stop
         style="stop-color:#f1f1f1;stop-opacity:1;"
         offset="0"
         id="stop5" /><stop
         style="stop-color:#b8b8b8;stop-opacity:1;"
         offset="1"
         id="stop6" /></linearGradient><linearGradient
       id="linearGradient3468"><stop
         id="stop3470"
         style="stop-color:#ffffff;stop-opacity:0"
         offset="0" /><stop
         id="stop3476"
         style="stop-color:#ffffff;stop-opacity:1"
         offset="0.5" /><stop
         id="stop3472"
         style="stop-color:#ffffff;stop-opacity:0"
         offset="1" /></linearGradient><linearGradient
       id="linearGradient3992"><stop
         id="stop3994"
         style="stop-color:#6b6d68;stop-opacity:1"
         offset="0" /><stop
         id="stop3996"
         style="stop-color:#4d4e4b;stop-opacity:1"
         offset="0.10344828" /><stop
         id="stop3998"
         style="stop-color:#454643;stop-opacity:1"
         offset="1" /></linearGradient><linearGradient
       id="linearGradient6330"><stop
         id="stop6332"
         style="stop-color:#6b6d68;stop-opacity:1"
         offset="0" /><stop
         id="stop6334"
         style="stop-color:#4d4e4b;stop-opacity:1"
         offset="0.58620691" /><stop
         id="stop6336"
         style="stop-color:#454643;stop-opacity:1"
         offset="1" /></linearGradient><linearGradient
       xlink:href="#linearGradient5"
       id="linearGradient6"
       x1="64"
       y1="8"
       x2="64"
       y2="112"
       gradientUnits="userSpaceOnUse" /><linearGradient
       xlink:href="#linearGradient3992"
       id="linearGradient8"
       gradientUnits="userSpaceOnUse"
       gradientTransform="matrix(0,1.5485896,1.0859947,0,37.936124,10.540205)"
       x1="12.979203"
       y1="10.432049"
       x2="12.979203"
       y2="42.633118" /><linearGradient
       xlink:href="#linearGradient6330"
       id="linearGradient10"
       gradientUnits="userSpaceOnUse"
       gradientTransform="matrix(0,1.2316716,0.89655162,0,42.48274,12.571644)"
       x1="24.985714"
       y1="37.923729"
       x2="24.985714"
       y2="9" /><linearGradient
       xlink:href="#linearGradient3468"
       id="linearGradient18"
       x1="152.84291"
       y1="-14"
       x2="165.90225"
       y2="29.259018"
       gradientUnits="userSpaceOnUse"
       gradientTransform="translate(-118,26)" /></defs><linearGradient
     id="a"
     gradientUnits="userSpaceOnUse"
     x1="11.999989"
     x2="115.999989"
     y1="64"
     y2="64"><stop
       offset="0"
       stop-color="#3d3846"
       id="stop252"
       style="stop-color:#888a85;stop-opacity:1;" /><stop
       offset="0.05"
       stop-color="#77767b"
       id="stop254"
       style="stop-color:#b8b8b8;stop-opacity:1;" /><stop
       offset="0.1"
       stop-color="#5e5c64"
       id="stop256"
       style="stop-color:#888a85;stop-opacity:1;" /><stop
       offset="0.89999902"
       stop-color="#504e56"
       id="stop258"
       style="stop-color:#888a85;stop-opacity:1;" /><stop
       offset="0.94999999"
       stop-color="#77767b"
       id="stop260"
       style="stop-color:#b8b8b8;stop-opacity:1;" /><stop
       offset="1"
       stop-color="#3d3846"
       id="stop262"
       style="stop-color:#888a85;stop-opacity:1;" /></linearGradient><linearGradient
     id="b"
     gradientUnits="userSpaceOnUse"
     x1="12"
     x2="112.041023"
     y1="60"
     y2="80.988281"><stop
       offset="0"
       stop-color="#77767b"
       id="stop265"
       style="stop-color:#77756f;stop-opacity:1;" /><stop
       offset="0.38444301"
       stop-color="#9a9996"
       id="stop267"
       style="stop-color:#c0bfbc;stop-opacity:1;" /><stop
       offset="0.72056699"
       stop-color="#77767b"
       id="stop269"
       style="stop-color:#76756f;stop-opacity:1;" /><stop
       offset="1"
       stop-color="#68666f"
       id="stop271"
       style="stop-color:#a8a7a3;stop-opacity:1;" /></linearGradient><path
     d="m 20 22 h 88 c 4.417969 0 8 3.582031 8 8 v 78 c 0 4.417969 -3.582031 8 -8 8 h -88 c -4.417969 0 -8 -3.582031 -8 -8 v -78 c 0 -4.417969 3.582031 -8 8 -8 z m 0 0"
     fill="url(#a)"
     id="path274" /><path
     d="m 20 12 h 88 c 4.417969 0 8 3.582031 8 8 v 80 c 0 4.417969 -3.582031 8 -8 8 h -88 c -4.417969 0 -8 -3.582031 -8 -8 v -80 c 0 -4.417969 3.582031 -8 8 -8 z m 0 0"
     fill="url(#b)"
     id="path276"
     style="fill:url(#linearGradient6);fill-opacity:1" /><path
     d="m 20,12 h 88 c 4.41797,0 8,3.582031 8,8 v 80 c 0,4.41797 -3.58203,8 -8,8 H 20 c -4.41797,0 -8,-3.58203 -8,-8 V 20 c 0,-4.417969 3.58203,-8 8,-8 z m 0,0"
     fill="url(#b)"
     id="path276-5"
     style="fill:url(#linearGradient18)" /><path
     id="rect3840-5-7"
     style="display:inline;overflow:visible;fill:#676a65;stroke-width:2.89485;marker:none;enable-background:accumulate;fill-opacity:1"
     transform="matrix(0,-1,-1,0,0,0)"
     d="m -91.8004,-97.681816 h 14.181816 v 3.545454 H -91.8004 Z m 4.727272,10.63636 h 9.454544 v 3.545455 h -9.454544 z m 2.36364,10.636368 h 7.090913 v 3.545454 h -7.090913 z m -7.090912,10.63636 h 14.181818 v 3.545455 H -91.8004 Z m 7.090912,10.636364 h 7.090913 v 3.545455 h -7.090913 z M -87.428841,-44.5 h 9.810274 v 3.545455 h -9.810274 z m -4.371559,10.636364 h 14.181816 v 3.545454 H -91.8004 Z" /><path
     id="path13"
     style="fill:#676a65;fill-opacity:1;stroke-width:0.735498;stroke-linecap:round"
     d="m 25.985882,44.254883 c -2.469001,0 -4.485883,1.70837 -4.485883,4 v 2 c 0,0 2.154886,2 4.485883,2 h 76.028228 c 2.37001,0 4.48589,-2 4.48589,-2 v -2 c 0,-2.29163 -2.01689,-4 -4.48589,-4 z" /><path
     id="path14"
     style="fill:#a3a5a1;fill-opacity:1;stroke-width:0.735499;stroke-linecap:round"
     d="m 25.995402,46.254883 c -2.469001,0 -4.495403,1.70837 -4.495403,4 0,2.29163 2.026402,4 4.495403,4 h 76.018708 c 2.469,0 4.48589,-1.70837 4.48589,-4 0,-2.29163 -2.01689,-4 -4.48589,-4 z" /><path
     id="path16"
     style="fill:url(#linearGradient8);stroke-linecap:round"
     d="M 48.341797 25.619141 C 45.252286 25.619141 42.726562 28.142911 42.726562 31.232422 L 42.726562 67.277344 C 42.726564 70.366855 45.252286 72.890625 48.341797 72.890625 L 79.658203 72.890625 C 82.747714 72.890625 85.273438 70.366855 85.273438 67.277344 L 85.273438 31.232422 C 85.273438 28.142911 82.747714 25.619141 79.658203 25.619141 L 48.341797 25.619141 z " /><path
     id="path15"
     style="fill:url(#linearGradient10);stroke-linecap:round"
     d="m 55.431641,27.982422 c -3.089511,0 -5.613282,2.52377 -5.613282,5.613281 v 19.5 c 0,3.089511 2.523771,5.613281 5.613282,5.613281 h 17.136718 c 3.089511,0 5.613282,-2.52377 5.613282,-5.613281 v -19.5 c 0,-3.089511 -2.523771,-5.613281 -5.613282,-5.613281 z" /><rect
     ry="1.604004"
     rx="1.604004"
     y="-66.363617"
     x="32.709492"
     height="4.727273"
     width="21.272728"
     id="rect3852-4-4"
     style="color:#000000;display:inline;overflow:visible;visibility:visible;fill:#cc0000;fill-opacity:1;fill-rule:nonzero;stroke:none;stroke-width:2.36364;marker:none;enable-background:accumulate"
     transform="rotate(90)" /></svg>
