<?xml version="1.0" encoding="UTF-8" standalone="no"?>
<svg
   viewBox="0 0 128 128"
   style="display:inline;enable-background:new"
   version="1.0"
   id="svg11300"
   height="128"
   width="128"
   xml:space="preserve"
   xmlns:xlink="http://www.w3.org/1999/xlink"
   xmlns="http://www.w3.org/2000/svg"
   xmlns:svg="http://www.w3.org/2000/svg"
   xmlns:rdf="http://www.w3.org/1999/02/22-rdf-syntax-ns#"
   xmlns:cc="http://creativecommons.org/ns#"
   xmlns:dc="http://purl.org/dc/elements/1.1/"><title
     id="title4162">Adwaita Icon Template</title><defs
     id="defs3"><linearGradient
       id="linearGradient974"><stop
         style="stop-color:#333333;stop-opacity:1;"
         offset="0"
         id="stop962" /><stop
         id="stop964"
         offset="0.04166667"
         style="stop-color:#666666;stop-opacity:1;" /><stop
         style="stop-color:#333333;stop-opacity:1;"
         offset="0.08333334"
         id="stop966" /><stop
         id="stop968"
         offset="0.91666669"
         style="stop-color:#333333;stop-opacity:1;" /><stop
         style="stop-color:#666666;stop-opacity:1;"
         offset="0.95833331"
         id="stop970" /><stop
         style="stop-color:#333333;stop-opacity:1;"
         offset="1"
         id="stop972" /></linearGradient><linearGradient
       y2="44"
       x2="464"
       y1="44"
       x1="48"
       gradientTransform="matrix(0.25,0,0,0.25,0,53)"
       gradientUnits="userSpaceOnUse"
       id="linearGradient1747"
       xlink:href="#linearGradient974" /></defs><metadata
     id="metadata4"><rdf:RDF><cc:Work
         rdf:about=""><dc:format>image/svg+xml</dc:format><dc:type
           rdf:resource="http://purl.org/dc/dcmitype/StillImage" /><dc:creator><cc:Agent><dc:title>GNOME Design Team</dc:title></cc:Agent></dc:creator><dc:source /><cc:license
           rdf:resource="http://creativecommons.org/licenses/by-sa/4.0/" /><dc:title>Adwaita Icon Template</dc:title><dc:subject><rdf:Bag /></dc:subject><dc:date /><dc:rights><cc:Agent><dc:title /></cc:Agent></dc:rights><dc:publisher><cc:Agent><dc:title /></cc:Agent></dc:publisher><dc:identifier /><dc:relation /><dc:language /><dc:coverage /><dc:description /><dc:contributor><cc:Agent><dc:title /></cc:Agent></dc:contributor></cc:Work><cc:License
         rdf:about="http://creativecommons.org/licenses/by-sa/4.0/"><cc:permits
           rdf:resource="http://creativecommons.org/ns#Reproduction" /><cc:permits
           rdf:resource="http://creativecommons.org/ns#Distribution" /><cc:requires
           rdf:resource="http://creativecommons.org/ns#Notice" /><cc:requires
           rdf:resource="http://creativecommons.org/ns#Attribution" /><cc:permits
           rdf:resource="http://creativecommons.org/ns#DerivativeWorks" /><cc:requires
           rdf:resource="http://creativecommons.org/ns#ShareAlike" /></cc:License></rdf:RDF></metadata><rect
     ry="8"
     rx="8"
     y="32"
     x="12"
     height="83.999992"
     width="104"
     id="rect1709"
     style="display:inline;fill:url(#linearGradient1747);fill-opacity:1;stroke:none;stroke-width:0.25;stroke-linecap:butt;stroke-linejoin:miter;stroke-miterlimit:4;stroke-dasharray:none;stroke-dashoffset:0;stroke-opacity:1;marker:none;marker-start:none;marker-mid:none;marker-end:none;paint-order:normal;enable-background:new" /><rect
     style="display:inline;fill:#161617;fill-opacity:1;stroke:none;stroke-width:0.25;stroke-linecap:butt;stroke-linejoin:miter;stroke-miterlimit:4;stroke-dasharray:none;stroke-dashoffset:0;stroke-opacity:1;marker:none;marker-start:none;marker-mid:none;marker-end:none;paint-order:normal;enable-background:new"
     id="rect1711"
     width="104"
     height="100"
     x="12"
     y="12"
     rx="8"
     ry="8" /><path
     fill-rule="evenodd"
     clip-rule="evenodd"
     d="m 63.999998,33.037362 c -3.124239,0 -5.656951,2.532713 -5.656951,5.656952 0,3.124241 2.532712,5.656952 5.656951,5.656952 3.124241,0 5.656953,-2.532711 5.656953,-5.656952 0,-3.124239 -2.532712,-5.656952 -5.656953,-5.656952 z m -13.199554,5.656952 c 0,-7.289915 5.909631,-13.199554 13.199554,-13.199554 7.289926,0 13.199555,5.909639 13.199555,13.199554 0,7.289926 -5.909629,13.199555 -13.199555,13.199555 -2.273151,0 -4.412137,-0.574653 -6.279591,-1.586587 l -5.678071,5.678072 c 0.428606,0.790841 0.778678,1.630426 1.039935,2.508291 h 21.835457 c 1.622695,-5.452357 6.673505,-9.428252 12.652902,-9.428252 7.289927,0 13.19956,5.909628 13.19956,13.199553 0,7.289925 -5.909633,13.199555 -13.19956,13.199555 -2.27315,0 -4.412138,-0.574653 -6.27959,-1.586586 l -5.678072,5.678071 c 1.011933,1.867454 1.586585,4.006441 1.586585,6.279591 0,7.289927 -5.909628,13.199556 -13.199555,13.199556 -7.289923,0 -13.199553,-5.909629 -13.199553,-13.199556 0,-7.289924 5.90963,-13.199552 13.199553,-13.199552 2.273153,0 4.412142,0.574651 6.279595,1.586491 L 75.95757,68.54454 C 75.529056,67.753602 75.178891,66.914112 74.917728,66.036249 H 53.082271 c -1.622601,5.452357 -6.673505,9.428252 -12.652904,9.428252 -7.289916,0 -13.199552,-5.90963 -13.199552,-13.199555 0,-7.289925 5.909636,-13.199553 13.199552,-13.199553 2.273151,0 4.41214,0.574651 6.279594,1.586492 l 5.677977,-5.677977 c -1.011841,-1.867453 -1.586493,-4.006443 -1.586494,-6.279594 z m 7.542603,47.141263 c 0,-3.124238 2.532712,-5.656949 5.656951,-5.656949 3.124241,0 5.656953,2.532711 5.656953,5.656949 0,3.124242 -2.532712,5.656954 -5.656953,5.656954 -3.124239,0 -5.656951,-2.532712 -5.656951,-5.656954 z M 40.429367,56.607995 c -3.12424,0 -5.656953,2.532711 -5.656953,5.656951 0,3.12424 2.532713,5.656953 5.656953,5.656953 3.12424,0 5.656951,-2.532713 5.656951,-5.656953 0,-3.12424 -2.532711,-5.656951 -5.656951,-5.656951 z m 41.484312,5.656951 c 0,-3.12424 2.532711,-5.656951 5.656951,-5.656951 3.12424,0 5.656953,2.532711 5.656953,5.656951 0,3.12424 -2.532713,5.656953 -5.656953,5.656953 -3.12424,0 -5.65695,-2.532713 -5.656951,-5.656953 z"
     fill="#000000"
     id="path1"
     style="fill:#ffffff;fill-opacity:1;stroke-width:0.942825" /></svg>
