<?xml version="1.0" encoding="UTF-8" standalone="no"?>
<svg
   width="128"
   height="128"
   version="1"
   id="svg12"
   xml:space="preserve"
   xmlns="http://www.w3.org/2000/svg"
   xmlns:svg="http://www.w3.org/2000/svg"><defs
     id="defs16"><linearGradient
       id="a-9"
       gradientUnits="userSpaceOnUse"
       x1="0"
       y1="269.46301"
       x2="118.926"
       y2="269.46301"
       gradientTransform="matrix(1,0,0,0.98333333,0,-168.03333)"><stop
         offset="0"
         stop-color="#e5a50a"
         id="stop1"
         style="stop-color:#000042;stop-opacity:1;" /><stop
         offset="0.414"
         stop-color="#fbdf9b"
         id="stop2-8"
         style="stop-color:#0000db;stop-opacity:1;" /><stop
         offset="0.81300002"
         stop-color="#e5a50a"
         id="stop3-3"
         style="stop-color:#000042;stop-opacity:1;" /><stop
         offset="1"
         stop-color="#f8ca5b"
         id="stop4-0"
         style="stop-color:#0000a8;stop-opacity:1;" /></linearGradient></defs><path
     d="M 124,66 C 124,98.584717 97.137,125 64,125 30.863,125 4,98.584717 4,66 4,33.415283 30.863,7 64,7 c 33.137,0 60,26.415283 60,59 z m 0,0"
     fill="url(#a)"
     id="path4"
     style="fill:url(#a-9);stroke-width:0.991632" /><ellipse
     cy="62"
     cx="64"
     id="circle1050"
     style="fill:#000076;fill-opacity:1;fill-rule:evenodd;stroke:none;stroke-width:0.0746296;stroke-miterlimit:4;stroke-dasharray:none;stroke-opacity:1"
     rx="60"
     ry="59" /><path
     id="path3-2"
     d="M 81.390971,55.043353 H 62.260572 L 46.608368,68.956385 h 19.130475 z m 9.56567,19.101435 c 0,-1.773053 -0.174341,-3.507335 -0.507565,-5.188151 H 69.184603 c 2.72559,3.137623 4.381065,7.26782 4.381065,11.793325 0,9.815016 -7.786534,17.771836 -17.391429,17.771836 -3.871322,0 -7.447203,-1.292602 -10.336923,-3.478447 4.757215,-0.05271 8.597369,-3.925449 8.597369,-8.695234 0,-4.802472 -3.89319,-8.695739 -8.695664,-8.695739 -4.802472,0 -8.695662,3.893267 -8.695662,8.695739 0,2.219801 0.83172,4.245242 2.20058,5.781871 C 44.622482,98.16729 52.657679,102 61.635202,102 77.828901,102 90.956641,89.528818 90.956641,74.144788 Z M 39.935129,55.043607 c -0.74961,-2.352331 -1.15264,-4.847579 -1.15264,-7.432279 0,-14.144741 12.070081,-25.61133 26.959395,-25.61133 8.596407,0 16.252945,3.822315 21.189468,9.775535 v 0 c 1.419557,1.547577 2.285939,3.610826 2.285939,5.876442 0,4.802498 -3.893015,8.695663 -8.695488,8.695663 -4.802725,0 -8.695739,-3.893165 -8.695739,-8.695663 0,-4.802472 3.893014,-8.695664 8.695739,-8.695664 0.06614,0 0.132276,7.6e-4 0.198161,0.0022 -2.871551,-2.183818 -6.454907,-3.480145 -10.341078,-3.480145 -9.443732,0 -17.099435,7.655702 -17.099435,17.099484 0,4.915363 2.074019,9.346349 5.394674,12.465727 z"
     style="fill:#19f3ff;fill-opacity:1;stroke-width:2.53401" /></svg>
