<?xml version="1.0" encoding="UTF-8" standalone="no"?>
<!-- Generator: Adobe Illustrator 23.0.1, SVG Export Plug-In . SVG Version: 6.00 Build 0)  -->

<svg
   version="1.1"
   id="Livello_1"
   x="0px"
   y="0px"
   viewBox="0 0 128 128"
   enable-background="new 0 0 240.1 240.1"
   xml:space="preserve"
   width="128"
   height="128"
   sodipodi:docname="musescore.svg"
   inkscape:version="1.4 (e7c3feb100, 2024-10-09)"
   xmlns:inkscape="http://www.inkscape.org/namespaces/inkscape"
   xmlns:sodipodi="http://sodipodi.sourceforge.net/DTD/sodipodi-0.dtd"
   xmlns:xlink="http://www.w3.org/1999/xlink"
   xmlns="http://www.w3.org/2000/svg"
   xmlns:svg="http://www.w3.org/2000/svg"><sodipodi:namedview
   id="namedview1"
   pagecolor="#505050"
   bordercolor="#ffffff"
   borderopacity="1"
   inkscape:showpageshadow="0"
   inkscape:pageopacity="0"
   inkscape:pagecheckerboard="1"
   inkscape:deskcolor="#505050"
   inkscape:zoom="2.8284271"
   inkscape:cx="-0.53033008"
   inkscape:cy="132.93607"
   inkscape:window-width="2560"
   inkscape:window-height="1403"
   inkscape:window-x="0"
   inkscape:window-y="0"
   inkscape:window-maximized="1"
   inkscape:current-layer="Livello_1" /><defs
   id="defs13"><linearGradient
     id="linearGradient17"
     gradientUnits="userSpaceOnUse"
     x1="0"
     y1="269.46301"
     x2="118.926"
     y2="269.46301"
     gradientTransform="matrix(1,0,0,0.98333333,-118,-175.03333)"><stop
       offset="0"
       stop-color="#e5a50a"
       id="stop14"
       style="stop-color:#02023a;stop-opacity:1;" /><stop
       offset="0.414"
       stop-color="#fbdf9b"
       id="stop15"
       style="stop-color:#2830e1;stop-opacity:1;" /><stop
       offset="0.81300002"
       stop-color="#e5a50a"
       id="stop16"
       style="stop-color:#02093a;stop-opacity:1;" /><stop
       offset="1"
       stop-color="#f8ca5b"
       id="stop17"
       style="stop-color:#1d2bd3;stop-opacity:1;" /></linearGradient><linearGradient
     xlink:href="#linearGradient17"
     id="linearGradient5"
     x1="-104.64275"
     y1="176.5119"
     x2="3.3572464"
     y2="176.5119"
     gradientUnits="userSpaceOnUse"
     gradientTransform="matrix(1.1111111,0,0,1.0925926,120.26972,-126.85559)" /><linearGradient
     id="paint0_linear_1_170-3"
     x1="277.5"
     y1="57"
     x2="751"
     y2="966"
     gradientUnits="userSpaceOnUse"
     gradientTransform="matrix(0.11523437,0,0,0.11523437,-234.65926,3.0000004)"><stop
       stop-color="#5328E1"
       id="stop3-7" /><stop
       offset="1"
       stop-color="#0F023A"
       id="stop4-5" /></linearGradient><linearGradient
     xlink:href="#paint0_linear_1_170-3"
     id="linearGradient13"
     gradientUnits="userSpaceOnUse"
     gradientTransform="matrix(0.1171875,0,0,0.11523437,3.999996,2.9999986)"
     x1="277.5"
     y1="57"
     x2="751"
     y2="966" /></defs>

<path
   id="circle2-6"
   style="display:inline;fill:url(#linearGradient5);stroke-width:0.343027"
   d="M 124,66.000001 A 59.999999,58.999999 0 0 1 63.999999,125 59.999999,58.999999 0 0 1 4.0000011,66.000001 59.999999,58.999999 0 0 1 63.999999,7.0000021 59.999999,58.999999 0 0 1 124,66.000001 Z" /><path
   id="path7"
   style="fill:#000076;fill-opacity:1;stroke-width:0.704;stroke-linecap:square;paint-order:markers stroke fill"
   d="M 64.947266 2.8085938 C 54.522948 2.6975484 44.169516 5.2173187 35.015625 10.222656 C 17.532027 19.782666 6.0002788 37.151145 4.2402344 56.580078 C 2.1474889 79.681671 13.842327 101.64611 34.394531 113.21289 C 43.016879 118.06555 52.746665 120.7118 62.931641 120.97266 C 90.841651 121.68747 115.89463 103.02009 122.73438 76.412109 C 125.57722 65.352858 125.112 53.678883 121.39844 42.927734 C 114.8617 24.003191 98.826954 9.4753298 79.099609 4.6035156 C 74.439099 3.4525678 69.685592 2.8590688 64.947266 2.8085938 z " /><path
   d="m 80.390625,68.820312 c -5.942245,0 -10.802734,0.01086 -10.802734,0.02539 0,0.01454 0.188233,0.255991 0.417968,0.535156 6.386155,7.760256 4.920852,19.465727 -3.183593,25.439453 -3.238057,2.386748 -6.791145,3.506784 -10.871094,3.425782 -3.574393,-0.07101 -6.730141,-1.068952 -9.59961,-3.03711 l -0.46875,-0.324218 0.646485,-0.06836 c 4.14219,-0.442854 7.356584,-3.441661 7.957031,-7.423828 0.680948,-4.516017 -2.397389,-8.761018 -7.070312,-9.751953 -0.852164,-0.180709 -2.563878,-0.179779 -3.429688,0.002 -5.797218,1.217246 -8.808493,7.29469 -6.171875,12.455078 0.465976,0.912007 1.122132,1.735533 2.351563,2.945313 6.218176,6.11882 14.915631,9.287405 23.826171,8.681645 10.856865,-0.73806 20.32188,-6.81227 24.951172,-16.013677 2.471582,-4.912649 3.324649,-10.510167 2.433594,-15.966796 -0.06481,-0.396901 -0.132823,-0.768655 -0.150391,-0.824219 -0.03028,-0.09573 -0.59777,-0.09961 -10.835937,-0.09961 z"
   style="display:inline;fill:#19f3ff;fill-opacity:1;stroke-width:0.0437342"
   id="path4" /><path
   d="m 62.482422,54.964844 -7.859375,6.845703 c -4.322723,3.764992 -7.956362,7.005074 -7.956362,7.005074 0,0 1.234275,0.0047 9.673159,0.0047 h 9.75 l 7.859375,-6.845703 c 4.322724,-3.764997 7.945312,-7.02539 7.945312,-7.02539 0,0 -1.223227,0.01563 -9.662109,0.01563 z"
   style="display:inline;fill:#19f3ff;fill-opacity:1;stroke-width:0.0437342"
   id="path3"
   sodipodi:nodetypes="cccscccsc" /><path
   d="m 65.908203,21.990234 c -7.290869,0.03793 -14.511102,2.778823 -19.84375,8.0625 -6.585103,6.524635 -9.04632,15.890092 -6.421875,24.435547 l 0.144531,0.476563 h 9.548828 9.546875 L 58.271484,54.34375 c -7.93526,-8.060863 -5.867218,-21.359585 4.160157,-26.755859 5.71835,-3.077352 12.916929,-2.71059 18.228515,0.927734 l 0.560547,0.382812 -0.619141,0.04297 c -5.742953,0.388194 -9.617847,5.781549 -8.003906,11.140625 0.805387,2.674272 3.035908,4.926987 5.732422,5.78711 1.74407,0.556314 3.71719,0.563078 5.449219,0.01953 5.11158,-1.604111 7.629199,-7.312945 5.302734,-12.025391 -0.995182,-2.015822 -3.897425,-4.955282 -6.890625,-6.980469 -4.900189,-3.315448 -10.612527,-4.922075 -16.283203,-4.892578 z"
   style="display:inline;fill:#19f3ff;fill-opacity:1;stroke-width:0.0437342"
   id="path2" /></svg>
