<?xml version="1.0" encoding="UTF-8" standalone="no"?>
<svg
   viewBox="0 0 128 128"
   style="display:inline;enable-background:new"
   version="1.0"
   id="svg11300"
   height="128"
   width="128"
   xml:space="preserve"
   xmlns:xlink="http://www.w3.org/1999/xlink"
   xmlns="http://www.w3.org/2000/svg"
   xmlns:svg="http://www.w3.org/2000/svg"
   xmlns:rdf="http://www.w3.org/1999/02/22-rdf-syntax-ns#"
   xmlns:cc="http://creativecommons.org/ns#"
   xmlns:dc="http://purl.org/dc/elements/1.1/"><title
     id="title4162">Adwaita Icon Template</title><defs
     id="defs3"><linearGradient
       id="linearGradient22"><stop
         style="stop-color:#e7e7e7;stop-opacity:1;"
         offset="0"
         id="stop22" /><stop
         style="stop-color:#c8c8c8;stop-opacity:1;"
         offset="1"
         id="stop23" /></linearGradient><linearGradient
       id="linearGradient1"><stop
         style="stop-color:#325f83;stop-opacity:1;"
         offset="0"
         id="stop1" /><stop
         style="stop-color:#224763;stop-opacity:1;"
         offset="1"
         id="stop2" /></linearGradient><linearGradient
       id="linearGradient974"><stop
         style="stop-color:#1b3950;stop-opacity:1;"
         offset="0"
         id="stop962" /><stop
         id="stop964"
         offset="0.04166667"
         style="stop-color:#4583b5;stop-opacity:1;" /><stop
         style="stop-color:#1b3950;stop-opacity:1;"
         offset="0.08333334"
         id="stop966" /><stop
         id="stop968"
         offset="0.91666669"
         style="stop-color:#1b3950;stop-opacity:1;" /><stop
         style="stop-color:#4583b5;stop-opacity:1;"
         offset="0.95833331"
         id="stop970" /><stop
         style="stop-color:#1b3950;stop-opacity:1;"
         offset="1"
         id="stop972" /></linearGradient><linearGradient
       y2="44"
       x2="464"
       y1="44"
       x1="48"
       gradientTransform="matrix(0.25,0,0,0.25,0,53)"
       gradientUnits="userSpaceOnUse"
       id="linearGradient1747"
       xlink:href="#linearGradient974" /><linearGradient
       xlink:href="#linearGradient1"
       id="linearGradient2"
       x1="64"
       y1="10"
       x2="64"
       y2="114"
       gradientUnits="userSpaceOnUse" /><clipPath
       clipPathUnits="userSpaceOnUse"
       id="clipPath904"><rect
         y="4"
         x="208"
         height="48"
         width="96"
         id="rect906"
         style="opacity:1;fill:#949390;fill-opacity:1;stroke:none;stroke-width:16;stroke-linecap:round;stroke-linejoin:round;stroke-miterlimit:4;stroke-dasharray:none;stroke-dashoffset:11.2;stroke-opacity:1" /></clipPath><linearGradient
       gradientTransform="matrix(0.61788896,0,0,0.61788896,24.455106,-100.32349)"
       xlink:href="#a-6"
       id="linearGradient1640"
       x1="8"
       y1="264"
       x2="120"
       y2="264"
       gradientUnits="userSpaceOnUse" /><linearGradient
       id="a-6"
       gradientUnits="userSpaceOnUse"
       x1="9.1972656"
       x2="119.48238"
       y1="112.65527"
       y2="112.65527"
       gradientTransform="translate(-147,5)"><stop
         offset="0"
         stop-color="#5e5c64"
         id="stop1-1"
         style="stop-color:#606060;stop-opacity:1;" /><stop
         offset="0.0378502"
         stop-color="#77767b"
         id="stop2-8"
         style="stop-color:#797979;stop-opacity:1;" /><stop
         offset="0.0732786"
         stop-color="#3d3846"
         id="stop3-7"
         style="stop-color:#333333;stop-opacity:1;" /><stop
         offset="0.92921001"
         stop-color="#241f31"
         id="stop4-9"
         style="stop-color:#000000;stop-opacity:1;" /><stop
         offset="0.97104001"
         stop-color="#5e5c64"
         id="stop5-2"
         style="stop-color:#606060;stop-opacity:1;" /><stop
         offset="1"
         stop-color="#5e5c64"
         id="stop6-0"
         style="stop-color:#606060;stop-opacity:1;" /></linearGradient><linearGradient
       xlink:href="#linearGradient22"
       id="linearGradient23"
       x1="142.63669"
       y1="89.051254"
       x2="142.63669"
       y2="98.818176"
       gradientUnits="userSpaceOnUse"
       gradientTransform="translate(-108.9902)" /><linearGradient
       xlink:href="#linearGradient22"
       id="linearGradient24"
       gradientUnits="userSpaceOnUse"
       x1="142.63669"
       y1="98.818169"
       x2="142.63669"
       y2="89.051262"
       gradientTransform="matrix(0.7792558,0,0,0.7792558,-77.503976,20.735547)" /><linearGradient
       xlink:href="#linearGradient22"
       id="linearGradient27"
       gradientUnits="userSpaceOnUse"
       x1="142.63669"
       y1="89.051254"
       x2="142.63669"
       y2="98.818176"
       gradientTransform="translate(-88.5925,-5.5625)" /><linearGradient
       xlink:href="#linearGradient22"
       id="linearGradient28"
       gradientUnits="userSpaceOnUse"
       gradientTransform="matrix(0.7792558,0,0,0.7792558,-57.106271,15.173047)"
       x1="142.63669"
       y1="98.818169"
       x2="142.63669"
       y2="89.051262" /><linearGradient
       xlink:href="#linearGradient22"
       id="linearGradient30"
       gradientUnits="userSpaceOnUse"
       x1="142.63669"
       y1="89.051254"
       x2="142.63669"
       y2="98.818176"
       gradientTransform="translate(-68.769254,-2.8125)" /><linearGradient
       xlink:href="#linearGradient22"
       id="linearGradient31"
       gradientUnits="userSpaceOnUse"
       gradientTransform="matrix(0.7792558,0,0,0.7792558,-37.283025,17.923047)"
       x1="142.63669"
       y1="98.818169"
       x2="142.63669"
       y2="89.051262" /><linearGradient
       xlink:href="#linearGradient22"
       id="linearGradient33"
       gradientUnits="userSpaceOnUse"
       x1="142.63669"
       y1="89.051254"
       x2="142.63669"
       y2="98.818176"
       gradientTransform="translate(-48.28317,-8.4375)" /><linearGradient
       xlink:href="#linearGradient22"
       id="linearGradient34"
       gradientUnits="userSpaceOnUse"
       gradientTransform="matrix(0.7792558,0,0,0.7792558,-16.796941,12.298047)"
       x1="142.63669"
       y1="98.818169"
       x2="142.63669"
       y2="89.051262" /></defs><metadata
     id="metadata4"><rdf:RDF><cc:Work
         rdf:about=""><dc:format>image/svg+xml</dc:format><dc:type
           rdf:resource="http://purl.org/dc/dcmitype/StillImage" /><dc:creator><cc:Agent><dc:title>GNOME Design Team</dc:title></cc:Agent></dc:creator><dc:source /><cc:license
           rdf:resource="http://creativecommons.org/licenses/by-sa/4.0/" /><dc:title>Adwaita Icon Template</dc:title><dc:subject><rdf:Bag /></dc:subject><dc:date /><dc:rights><cc:Agent><dc:title /></cc:Agent></dc:rights><dc:publisher><cc:Agent><dc:title /></cc:Agent></dc:publisher><dc:identifier /><dc:relation /><dc:language /><dc:coverage /><dc:description /><dc:contributor><cc:Agent><dc:title /></cc:Agent></dc:contributor></cc:Work><cc:License
         rdf:about="http://creativecommons.org/licenses/by-sa/4.0/"><cc:permits
           rdf:resource="http://creativecommons.org/ns#Reproduction" /><cc:permits
           rdf:resource="http://creativecommons.org/ns#Distribution" /><cc:requires
           rdf:resource="http://creativecommons.org/ns#Notice" /><cc:requires
           rdf:resource="http://creativecommons.org/ns#Attribution" /><cc:permits
           rdf:resource="http://creativecommons.org/ns#DerivativeWorks" /><cc:requires
           rdf:resource="http://creativecommons.org/ns#ShareAlike" /></cc:License></rdf:RDF></metadata><rect
     ry="8"
     rx="8"
     y="32"
     x="12"
     height="83.999992"
     width="104"
     id="rect1709"
     style="display:inline;fill:url(#linearGradient1747);fill-opacity:1;stroke:none;stroke-width:0.25;stroke-linecap:butt;stroke-linejoin:miter;stroke-miterlimit:4;stroke-dasharray:none;stroke-dashoffset:0;stroke-opacity:1;marker:none;marker-start:none;marker-mid:none;marker-end:none;paint-order:normal;enable-background:new" /><rect
     style="display:inline;fill:url(#linearGradient2);fill-opacity:1;stroke:none;stroke-width:0.25;stroke-linecap:butt;stroke-linejoin:miter;stroke-miterlimit:4;stroke-dasharray:none;stroke-dashoffset:0;stroke-opacity:1;marker:none;marker-start:none;marker-mid:none;marker-end:none;paint-order:normal;enable-background:new"
     id="rect1711"
     width="104"
     height="100"
     x="12"
     y="12"
     rx="8"
     ry="8" /><rect
     style="display:inline;fill:url(#linearGradient1640);fill-opacity:1;stroke:none;stroke-width:0.154472;stroke-linejoin:round;stroke-miterlimit:4;stroke-dasharray:0.617889, 0.308944;stroke-dashoffset:0;stroke-opacity:1;enable-background:new"
     id="rect1025"
     width="69.20356"
     height="14.829335"
     x="29.398218"
     y="55.384609"
     rx="4.9431119"
     ry="4.9431119" /><rect
     ry="5.4634395"
     rx="4.9431119"
     y="26.422453"
     x="29.398218"
     height="41.79538"
     width="69.20356"
     id="rect927-7"
     style="display:inline;fill:#dfdfdf;fill-opacity:1;stroke:none;stroke-width:0.162399;stroke-linejoin:round;stroke-miterlimit:4;stroke-dasharray:0.649593, 0.324798;stroke-dashoffset:0;stroke-opacity:1;enable-background:new" /><path
     id="path9"
     style="baseline-shift:baseline;display:inline;overflow:visible;fill:#eeeeee;stroke-linecap:round;stroke-linejoin:round;enable-background:new;stop-color:#000000;stroke-width:0.3;stroke-dasharray:none;stroke:#000000;stroke-opacity:1"
     d="M 49.169922,58.599609 A 2.4718022,2.4718022 0 0 0 46.875,60.154297 l -2.470703,6.177734 A 2.4718022,2.4718022 0 0 0 44.230469,67.25 2.4718022,2.4718022 0 0 0 45.0625,69.103516 h 37.875 A 2.4718022,2.4718022 0 0 0 83.769531,67.25 2.4718022,2.4718022 0 0 0 83.595703,66.332031 L 81.125,60.154297 a 2.4718022,2.4718022 0 0 0 -2.294922,-1.554688 z" /><path
     id="path1203-6"
     d="m 39.284441,31.365559 h 49.431117 l 4.943112,4.943112 0,21.494461 H 34.341329 l 0,-21.494461 z"
     style="display:inline;fill:#dfdfdf;fill-opacity:1;stroke:none;stroke-width:0.154472;stroke-linejoin:round;stroke-miterlimit:4;stroke-dasharray:0.617889, 0.308944;stroke-dashoffset:0;stroke-opacity:1;enable-background:new" /><rect
     style="display:inline;fill:#3f3f3f;fill-opacity:1;stroke:none;stroke-width:0.660548;stroke-linecap:butt;stroke-linejoin:round;stroke-miterlimit:4;stroke-dasharray:none;stroke-dashoffset:0;stroke-opacity:1;enable-background:new"
     id="rect1050"
     width="59.317341"
     height="5.6799426"
     x="34.341328"
     y="40.719067" /><circle
     r="3.7073338"
     cy="46.384598"
     cx="78.82933"
     id="circle1062-6"
     style="display:inline;fill:#f6f5f4;fill-opacity:1;stroke:none;stroke-width:0.154472;stroke-linejoin:round;stroke-miterlimit:4;stroke-dasharray:0.617889, 0.308944;stroke-dashoffset:0;stroke-opacity:1;enable-background:new" /><rect
     style="display:inline;fill:#626262;fill-opacity:1;stroke:none;stroke-width:2.16275;stroke-linecap:round;stroke-linejoin:round;stroke-miterlimit:4;stroke-dasharray:none;stroke-dashoffset:11.2;stroke-opacity:1;enable-background:new"
     id="rect1271-3"
     width="17.040255"
     height="5.6775589"
     x="56.585327"
     y="40.721451" /><path
     id="path19"
     clip-path="url(#clipPath904)"
     style="display:inline;opacity:1;fill:#545454;fill-opacity:1;stroke:none;stroke-width:1;stroke-linejoin:round;stroke-miterlimit:4;stroke-dasharray:4, 2;stroke-dashoffset:0;stroke-opacity:1;enable-background:new"
     d="M 254.89733,3.9998889 208.00394,3.99505 v 36.755693 h 63.28251 c 0.4745,-4.185864 -0.78977,-15.331767 -3.92488,-22.043189 C 264.6094,12.81591 256.58537,3.9998889 254.89733,3.9998889 Z"
     transform="matrix(-0.16216537,0,0,0.15447224,114.9611,40.103579)" /><path
     id="ellipse900"
     clip-path="url(#clipPath904)"
     style="display:inline;opacity:1;fill:#545454;fill-opacity:1;stroke:none;stroke-width:1;stroke-linejoin:round;stroke-miterlimit:4;stroke-dasharray:4, 2;stroke-dashoffset:0;stroke-opacity:1;enable-background:new"
     d="m 269.00843,3.9844546 -61.00449,0.010594 V 40.750743 h 63.28251 c 0.4745,-4.185864 0.70805,-8.432252 0.70805,-12.745009 0,-8.238033 -1.29803,-16.289501 -2.98607,-24.0212794 z"
     transform="matrix(0.22355152,0,0,0.15447224,5.6659199,40.103579)" /><path
     id="path14"
     style="opacity:1;fill:#f6f5f4;fill-opacity:1;stroke:none;stroke-opacity:1"
     d="M 52.447266 40.71875 L 45.769531 40.71875 A 6.5849319 6.5849319 0 0 0 42.523438 46.394531 A 6.5849319 6.5849319 0 0 0 42.523438 46.398438 L 55.693359 46.398438 A 6.5849319 6.5849319 0 0 0 55.693359 46.394531 A 6.5849319 6.5849319 0 0 0 52.447266 40.71875 z " /><circle
     style="display:inline;fill:#f6f5f4;fill-opacity:1;stroke:none;stroke-width:0.154472;stroke-linejoin:round;stroke-miterlimit:4;stroke-dasharray:0.617889, 0.308944;stroke-dashoffset:0;stroke-opacity:1;enable-background:new"
     id="path1060-5"
     cx="49.170658"
     cy="46.384598"
     r="3.7073338" /><rect
     y="67.25058"
     x="44.227554"
     height="2.9633646"
     width="39.544891"
     id="rect915"
     style="display:inline;opacity:1;fill:#111113;fill-opacity:1;stroke:none;stroke-width:0.436835;stroke-linecap:butt;stroke-linejoin:round;stroke-miterlimit:4;stroke-dasharray:none;stroke-dashoffset:0;stroke-opacity:1;enable-background:new" /><path
     id="path1"
     style="-inkscape-font-specification:Inter;fill:#313131;stroke-width:0.561717"
     d="m 48.347596,43.305578 0.07131,1.902375 -1.608354,-1.024695 -0.758099,1.341759 1.682958,0.877686 -1.684055,0.877681 0.761391,1.326397 1.606159,-1.023595 -0.07131,1.901282 h 1.521683 l -0.07241,-1.901282 1.607257,1.023595 0.76139,-1.326397 -1.685152,-0.878781 1.682958,-0.876586 -0.758098,-1.341759 -1.608355,1.024695 0.07241,-1.902375 z" /><path
     id="path16"
     style="opacity:1;fill:#f6f5f4;fill-opacity:1;stroke:none;stroke-opacity:1"
     d="M 82.167969 40.71875 L 75.490234 40.71875 A 6.5849319 6.5849319 0 0 0 72.244141 46.394531 A 6.5849319 6.5849319 0 0 0 72.244141 46.398438 L 85.414062 46.398438 A 6.5849319 6.5849319 0 0 0 85.414062 46.394531 A 6.5849319 6.5849319 0 0 0 82.167969 40.71875 z " /><path
     id="path2-3"
     style="-inkscape-font-specification:Inter;fill:#313131;stroke-width:0.561717"
     d="m 78.068488,43.312807 0.07131,1.902382 -1.608355,-1.024695 -0.758099,1.341758 1.682958,0.877681 -1.684055,0.877686 0.761391,1.326398 1.60616,-1.023601 -0.07131,1.901281 h 1.521683 l -0.07241,-1.901281 1.607257,1.023601 0.76139,-1.326398 -1.685151,-0.87878 1.682957,-0.876587 -0.758098,-1.341758 -1.608355,1.024695 0.07241,-1.902382 z" /><circle
     style="opacity:1;fill:#626262;fill-opacity:1;stroke:none;stroke-width:0.5;stroke-opacity:1"
     id="path10"
     cx="32.730274"
     cy="29.920992"
     r="1" /><circle
     style="opacity:1;fill:#626262;fill-opacity:1;stroke:none;stroke-width:0.5;stroke-opacity:1"
     id="circle10"
     cx="95.247292"
     cy="29.920992"
     r="1" /><circle
     style="opacity:1;fill:#626262;fill-opacity:1;stroke:none;stroke-width:0.5;stroke-opacity:1"
     id="circle11"
     cx="32.730274"
     cy="64.79599"
     r="1" /><circle
     style="opacity:1;fill:#626262;fill-opacity:1;stroke:none;stroke-width:0.5;stroke-opacity:1"
     id="circle12"
     cx="95.247292"
     cy="64.79599"
     r="1" /><path
     d="M 47.40296,39.819413 V 36.76615 h 0.71134 l 1.18556,2.147134 0.008,0.02463 0.008,0.0049 v -2.176681 h 0.70317 v 3.053263 h -0.7277 l -1.16922,-1.989546 -0.0164,-0.03447 v 0 2.024017 z m 3.99005,-2.718389 H 50.50997 V 36.76615 h 2.47742 v 0.334874 h -0.89122 v 2.718389 h -0.70316 z m 3.20511,2.743012 q -0.39246,0 -0.67046,-0.05909 -0.26982,-0.0591 -0.40881,-0.182211 -0.139,-0.12804 -0.139,-0.329949 v -0.374272 l 0.67045,0.03939 v 0.206835 q 0,0.18221 0.13083,0.270854 0.13082,0.08372 0.41699,0.08372 0.3107,0 0.43334,-0.08372 0.13083,-0.08864 0.13083,-0.270854 v -0.689448 q -0.0409,0.103417 -0.23712,0.177286 -0.19623,0.07387 -0.59687,0.07387 -0.36794,0 -0.58052,-0.08372 -0.20441,-0.08372 -0.29435,-0.221608 -0.0899,-0.13789 -0.0899,-0.300402 v -0.605726 q 0,-0.251156 0.0899,-0.398895 0.0981,-0.147738 0.26982,-0.221607 0.17171,-0.07879 0.39247,-0.103417 0.22893,-0.02463 0.49875,-0.02463 0.25347,0 0.47423,0.02463 0.22894,0.02462 0.40064,0.103417 0.17171,0.07387 0.26165,0.226532 0.0981,0.147739 0.0981,0.39397 v 1.684219 q 0,0.236382 -0.12266,0.38412 -0.12267,0.142814 -0.40064,0.211759 -0.26982,0.06895 -0.7277,0.06895 z m 0.008,-1.403516 q 0.29435,0 0.42516,-0.103417 0.13083,-0.108341 0.13083,-0.300401 v -0.438291 q 0,-0.206835 -0.0736,-0.315176 -0.0655,-0.108341 -0.18805,-0.147738 -0.11442,-0.03939 -0.27799,-0.03939 -0.18807,0 -0.31889,0.03939 -0.12267,0.03939 -0.18805,0.147738 -0.0655,0.108341 -0.0655,0.315176 v 0.438291 q 0,0.108341 0.0408,0.201909 0.0409,0.08864 0.16353,0.147738 0.12267,0.05417 0.35159,0.05417 z m 1.80696,0.472764 v -1.516783 q 0,-0.201909 0.0981,-0.329949 0.0981,-0.128041 0.26982,-0.196985 0.17989,-0.07387 0.40882,-0.09849 0.23711,-0.02463 0.50693,-0.02463 0.26982,0 0.50693,0.02463 0.23712,0.02462 0.40881,0.09849 0.17989,0.06895 0.278,0.20191 0.1063,0.128039 0.1063,0.329949 v 1.511858 H 58.29363 V 37.48022 q 0,-0.167437 -0.0818,-0.251156 -0.0818,-0.08372 -0.22076,-0.108342 -0.13082,-0.02954 -0.29435,-0.02954 -0.13899,0 -0.278,0.02954 -0.13081,0.02955 -0.21258,0.113267 -0.0818,0.08372 -0.0818,0.241306 v 1.437989 z m 1.28368,0.935677 q -0.26981,0 -0.50693,-0.02463 -0.22893,-0.02463 -0.40882,-0.09357 -0.1717,-0.07387 -0.26982,-0.20191 -0.0981,-0.12804 -0.0981,-0.329949 v -1.516783 h 0.71135 v 1.433064 q 0,0.162513 0.0818,0.246231 0.0818,0.08372 0.21258,0.113267 0.13901,0.02954 0.278,0.02954 0.16352,0 0.29435,-0.02462 0.13899,-0.02955 0.22076,-0.113266 0.0818,-0.08864 0.0818,-0.25608 v -1.42814 h 0.70316 v 1.511859 q 0,0.201909 -0.1063,0.334873 -0.0981,0.128041 -0.278,0.20191 -0.17169,0.06895 -0.40881,0.09357 -0.23711,0.02463 -0.50693,0.02463 z"
     id="text16"
     style="font-weight:600;font-size:6.34549px;line-height:1;font-family:'Smooch Sans';-inkscape-font-specification:'Smooch Sans Semi-Bold';letter-spacing:0px;fill:#3f3f3f;stroke-width:0.793189"
     aria-label="NT90" /><circle
     style="fill:#3f3f3f;fill-opacity:1;stroke:none;stroke-width:0.343867;stroke-dasharray:none;stroke-opacity:1"
     id="path17"
     cx="49.723511"
     cy="61.714844"
     r="1.342398" /><circle
     style="fill:#3f3f3f;fill-opacity:1;stroke:none;stroke-width:0.343867;stroke-dasharray:none;stroke-opacity:1"
     id="circle17"
     cx="78.151489"
     cy="61.714844"
     r="1.342398" /><circle
     style="fill:#3f3f3f;fill-opacity:1;stroke:none;stroke-width:0.26782;stroke-dasharray:none;stroke-opacity:1"
     id="circle18"
     cx="71.612427"
     cy="64.410156"
     r="1.045523" /><circle
     style="fill:#3f3f3f;fill-opacity:1;stroke:none;stroke-width:0.26782;stroke-dasharray:none;stroke-opacity:1"
     id="circle19"
     cx="56.346802"
     cy="64.410156"
     r="1.045523" /><rect
     style="fill:#262a2e;fill-opacity:1;stroke:none;stroke-width:0.3;stroke-dasharray:none;stroke-opacity:1"
     id="rect19"
     width="2.7621403"
     height="34.38308"
     x="32.265415"
     y="72.611023"
     ry="1.1932427" /><rect
     style="fill:#262a2e;fill-opacity:1;stroke:none;stroke-width:0.3;stroke-dasharray:none;stroke-opacity:1"
     id="rect20"
     width="2.7621403"
     height="34.38308"
     x="52.66312"
     y="72.611023"
     ry="1.1932427" /><rect
     style="fill:#262a2e;fill-opacity:1;stroke:none;stroke-width:0.3;stroke-dasharray:none;stroke-opacity:1"
     id="rect21"
     width="2.7621403"
     height="34.38308"
     x="72.486366"
     y="72.611023"
     ry="1.1932427" /><rect
     style="fill:#262a2e;fill-opacity:1;stroke:none;stroke-width:0.3;stroke-dasharray:none;stroke-opacity:1"
     id="rect22"
     width="2.7621403"
     height="34.38308"
     x="92.97245"
     y="72.611023"
     ry="1.1932427" /><path
     style="fill:url(#linearGradient23);stroke:none;stroke-width:0.3;stroke-dasharray:none;stroke-opacity:1"
     d="m 29.514335,84.587649 h 8.37637 l 0.63924,8.706257 v 1.003522 l -0.63924,8.984362 h -8.37637 l -0.75131,-8.984362 v -1.003522"
     id="path22" /><path
     style="fill:url(#linearGradient24);stroke:none;stroke-width:0.233776;stroke-dasharray:none;stroke-opacity:1"
     d="m 30.426475,86.65096 h 6.52734 l 0.49814,6.784401 v 0.782 l -0.49814,7.001119 h -6.52734 l -0.58546,-7.001119 v -0.782"
     id="path24" /><path
     id="rect24"
     style="fill:#878787;stroke-width:0.303686"
     d="m 28.763025,93.293906 h 9.76692 v 1.003522 h -9.76692 z" /><path
     style="fill:url(#linearGradient27);stroke:none;stroke-width:0.3;stroke-dasharray:none;stroke-opacity:1"
     d="m 49.91204,79.025149 h 8.37637 l 0.63924,8.706257 v 1.003522 l -0.63924,8.984362 h -8.37637 l -0.75131,-8.984362 v -1.003522"
     id="path25" /><path
     style="fill:url(#linearGradient28);stroke:none;stroke-width:0.233776;stroke-dasharray:none;stroke-opacity:1"
     d="m 50.82418,81.08846 h 6.52734 l 0.49814,6.784401 v 0.782 l -0.49814,7.001119 h -6.52734 l -0.58546,-7.001119 v -0.782"
     id="path26" /><path
     id="path27"
     style="fill:#878787;stroke-width:0.303686"
     d="m 49.16073,87.731406 h 9.76692 v 1.003522 h -9.76692 z" /><path
     style="fill:url(#linearGradient30);stroke:none;stroke-width:0.3;stroke-dasharray:none;stroke-opacity:1"
     d="m 69.735286,81.775149 h 8.37637 l 0.63924,8.706257 v 1.003522 l -0.63924,8.984362 h -8.37637 l -0.75131,-8.984362 v -1.003522"
     id="path28" /><path
     style="fill:url(#linearGradient31);stroke:none;stroke-width:0.233776;stroke-dasharray:none;stroke-opacity:1"
     d="m 70.647426,83.83846 h 6.52734 l 0.49814,6.784401 v 0.782 l -0.49814,7.001119 h -6.52734 l -0.58546,-7.001119 v -0.782"
     id="path29" /><path
     id="path30"
     style="fill:#878787;stroke-width:0.303686"
     d="m 68.983976,90.481406 h 9.76692 v 1.003522 h -9.76692 z" /><path
     style="fill:url(#linearGradient33);stroke:none;stroke-width:0.3;stroke-dasharray:none;stroke-opacity:1"
     d="m 90.22137,76.150149 h 8.37637 l 0.63924,8.706257 v 1.003522 l -0.63924,8.984362 h -8.37637 l -0.75131,-8.984362 v -1.003522"
     id="path31" /><path
     style="fill:url(#linearGradient34);stroke:none;stroke-width:0.233776;stroke-dasharray:none;stroke-opacity:1"
     d="m 91.13351,78.21346 h 6.52734 l 0.49814,6.784401 v 0.782 l -0.49814,7.001119 h -6.52734 l -0.58546,-7.001119 v -0.782"
     id="path32" /><path
     id="path33"
     style="fill:#878787;stroke-width:0.303686"
     d="m 89.47006,84.856406 h 9.76692 v 1.003522 h -9.76692 z" /></svg>
