<?xml version="1.0" encoding="UTF-8" standalone="no"?>
<!-- Created with Inkscape (http://www.inkscape.org/) -->

<svg
   version="1.0"
   width="128"
   height="128"
   id="svg4292"
   xml:space="preserve"
   xmlns:xlink="http://www.w3.org/1999/xlink"
   xmlns="http://www.w3.org/2000/svg"
   xmlns:svg="http://www.w3.org/2000/svg"><defs
     id="defs4294"><linearGradient
       id="linearGradient46"><stop
         style="stop-color:#13beec;stop-opacity:1;"
         offset="0"
         id="stop46" /><stop
         style="stop-color:#009dd5;stop-opacity:1;"
         offset="1"
         id="stop47" /></linearGradient><linearGradient
       id="linearGradient1571"><stop
         style="stop-color:#0079a3;stop-opacity:1;"
         offset="0"
         id="stop1567" /><stop
         style="stop-color:#3dccff;stop-opacity:1;"
         offset="0.03567462"
         id="stop1575" /><stop
         style="stop-color:#0079a3;stop-opacity:1;"
         offset="0.07302466"
         id="stop1577" /><stop
         style="stop-color:#0079a3;stop-opacity:1;"
         offset="0.92681795"
         id="stop1579" /><stop
         style="stop-color:#3dccff;stop-opacity:1;"
         offset="0.96064132"
         id="stop1581" /><stop
         style="stop-color:#0078a3;stop-opacity:1;"
         offset="1"
         id="stop1569" /></linearGradient><linearGradient
       xlink:href="#linearGradient1571"
       id="linearGradient1573"
       x1="12"
       y1="66"
       x2="116"
       y2="66"
       gradientUnits="userSpaceOnUse" /><radialGradient
       xlink:href="#linearGradient46"
       id="radialGradient47"
       cx="64"
       cy="62"
       fx="64"
       fy="62"
       r="52"
       gradientTransform="matrix(1,0,0,0.96153846,0,2.3846154)"
       gradientUnits="userSpaceOnUse" /></defs><rect
     style="display:inline;fill:url(#linearGradient1573);fill-opacity:1;stroke:none;stroke-width:0.25;stroke-linecap:butt;stroke-linejoin:miter;stroke-miterlimit:4;stroke-dasharray:none;stroke-dashoffset:0;stroke-opacity:1;marker:none;marker-start:none;marker-mid:none;marker-end:none;paint-order:normal;enable-background:new"
     id="rect1711-5"
     width="104"
     height="100"
     x="12"
     y="16"
     rx="8"
     ry="8" /><rect
     style="display:inline;fill:url(#radialGradient47);fill-opacity:1;stroke:none;stroke-width:0.25;stroke-linecap:butt;stroke-linejoin:miter;stroke-miterlimit:4;stroke-dasharray:none;stroke-dashoffset:0;stroke-opacity:1;marker:none;marker-start:none;marker-mid:none;marker-end:none;paint-order:normal;enable-background:new"
     id="rect1711"
     width="104"
     height="100"
     x="12"
     y="12"
     rx="8"
     ry="8" /><g
     id="g57"
     style="fill:#ffffff"><path
       id="rect47"
       style="fill:#ffffff;stroke-width:1.07415;stroke-linecap:round;stroke-linejoin:round"
       d="m 12.017181,96.365625 h 82.6 v 0.4 h -82.6 z" /><path
       id="path47"
       style="fill:#ffffff;stroke-width:1.07415;stroke-linecap:round;stroke-linejoin:round"
       d="m 94.617181,12 0,84.765625 h -0.4 l 0,-84.765625 z" /><path
       id="path48"
       style="fill:#ffffff;stroke-width:1.07415;stroke-linecap:round;stroke-linejoin:round"
       d="m 26.648431,12 v 84.765625 h -0.4 V 12 Z" /><path
       id="path49"
       style="fill:#ffffff;stroke-width:1.07415;stroke-linecap:round;stroke-linejoin:round"
       d="m 52.648431,54.371194 0,42.394431 h -0.4 l 0,-42.394431 z" /><path
       id="path50"
       style="fill:#ffffff;stroke-width:1.07415;stroke-linecap:round;stroke-linejoin:round"
       d="m 42.648431,54.371194 0,16.417868 h -0.4 l 0,-16.417868 z" /><path
       id="path51"
       style="fill:#ffffff;stroke-width:0.759539;stroke-linecap:round;stroke-linejoin:round"
       d="m 46.448431,64.216242 0,6.57282 h -0.2 l 0,-6.57282 z" /><path
       id="path52"
       style="fill:#ffffff;stroke-width:0.759539;stroke-linecap:round;stroke-linejoin:round"
       d="m 44.448431,64.216242 0,2.861883 h -0.2 l 0,-2.861883 z" /><path
       id="path53"
       style="fill:#ffffff;stroke-width:1.07415;stroke-linecap:round;stroke-linejoin:round"
       d="m 52.525963,64.59367 h -9.994465 v -0.4 h 9.994465 z" /><path
       id="path54"
       style="fill:#ffffff;stroke-width:0.759539;stroke-linecap:round;stroke-linejoin:round"
       d="m 46.448431,67.082633 -4.193575,0 v -0.2 l 4.193575,0 z" /><path
       id="path55"
       style="fill:#ffffff;stroke-width:0.759539;stroke-linecap:round;stroke-linejoin:round"
       d="m 52.625,70.784295 -26.066413,0 v -0.2 l 26.066413,0 z" /><path
       id="path56"
       style="fill:#ffffff;stroke-width:1.07415;stroke-linecap:round;stroke-linejoin:round"
       d="m 26.45037,54.373437 68.104311,0 v 0.4 l -68.104311,0 z" /></g><path
     id="path57"
     style="baseline-shift:baseline;display:inline;overflow:visible;opacity:1;vector-effect:none;fill:#ffffff;stroke-linecap:round;stroke-linejoin:round;enable-background:accumulate;stop-color:#000000;stop-opacity:1"
     d="m 78.773438,12 c 17.062387,20.943462 18.21817,47.324308 9.03125,63.291016 C 74.149748,99.021639 46.141657,99.380364 34.689453,88.765625 23.167955,78.0864 25.986254,62.6049 33.3125,57.59375 c 7.405578,-5.065173 15.911037,-1.542597 17.734375,3.09375 1.868007,4.750109 -0.912083,8.879326 -3.621094,9.291016 -2.822344,0.428759 -4.566904,-1.673361 -4.458984,-3.134766 0.05672,-0.768498 0.434968,-1.286427 0.90625,-1.603516 0.471282,-0.317088 1.042244,-0.398889 1.388672,-0.292968 0.01518,0.0046 0.02968,0.0072 0.04492,0.0098 0.0095,0.0057 0.01925,0.01096 0.0293,0.01563 0.27892,0.124888 0.513998,0.377423 0.605468,0.660156 0.0136,0.05905 0.0013,0.165739 -0.02344,0.306641 -0.0395,0.172849 -0.130468,0.322779 -0.242188,0.408203 -0.229718,0.103964 -0.468218,0.1571 -0.638672,0.08984 -0.05092,-0.02521 -0.128336,-0.102975 -0.240234,-0.208984 l -0.002,-0.0039 c -0.07871,-0.08687 -0.137105,-0.217949 -0.177734,-0.375 -0.04171,-0.16005 -0.205082,-0.256153 -0.365235,-0.214843 -0.16005,0.04171 -0.256153,0.205081 -0.214844,0.365234 0.05373,0.207707 0.138306,0.441286 0.31836,0.636719 0.005,0.0047 0.01026,0.0093 0.01563,0.01367 0.08758,0.08235 0.202935,0.235999 0.419922,0.335937 0.0039,0.002 0.0078,0.004 0.01172,0.0059 0.419869,0.171822 0.842515,0.0444 1.160157,-0.107422 0.01427,-0.0067 0.02798,-0.01456 0.04102,-0.02344 0.286079,-0.196858 0.436394,-0.501754 0.501953,-0.792969 7.56e-4,-0.0045 0.0014,-0.0091 0.002,-0.01367 0.0259,-0.144663 0.07555,-0.34613 0.01367,-0.582032 -0.0012,-0.0046 -0.0025,-0.0091 -0.0039,-0.01367 -0.130701,-0.414893 -0.423984,-0.753738 -0.792969,-0.960937 -0.0318,-0.118517 -0.122105,-0.219074 -0.248047,-0.257813 -0.627048,-0.191722 -1.376122,-0.04224 -2.013671,0.386719 -0.637549,0.428956 -1.157285,1.17052 -1.230469,2.162109 -0.152031,2.058736 2.084586,4.409107 5.304687,3.919922 C 50.870547,70.2024 53.7464,65.534299 51.734375,60.417969 49.677677,55.188239 40.649097,51.681842 32.896484,56.984375 25.064692,62.341319 22.361836,78.345485 34.1875,89.306641 46.082603,100.33189 74.574772,99.76351 88.445312,75.658203 97.831592,59.345015 96.681541,32.862373 79.523438,12 Z" /></svg>
