<?xml version="1.0" encoding="UTF-8" standalone="no"?>
<!-- Generator: Adobe Illustrator 23.0.1, SVG Export Plug-In . SVG Version: 6.00 Build 0)  -->

<svg
   version="1.1"
   id="Livello_1"
   x="0px"
   y="0px"
   viewBox="0 0 128 128"
   enable-background="new 0 0 240.1 240.1"
   xml:space="preserve"
   width="128"
   height="128"
   xmlns:xlink="http://www.w3.org/1999/xlink"
   xmlns="http://www.w3.org/2000/svg"
   xmlns:svg="http://www.w3.org/2000/svg"
   xmlns:sketch="http://www.bohemiancoding.com/sketch/ns"><defs
   id="defs13"><linearGradient
     id="linearGradient16"><stop
       style="stop-color:#333333;stop-opacity:1;"
       offset="0"
       id="stop13" /><stop
       style="stop-color:#808080;stop-opacity:1;"
       offset="0.4099519"
       id="stop14" /><stop
       style="stop-color:#333333;stop-opacity:1;"
       offset="0.81499934"
       id="stop15" /><stop
       style="stop-color:#666666;stop-opacity:1;"
       offset="1"
       id="stop16" /></linearGradient><linearGradient
     id="linearGradient5"><stop
       style="stop-color:#333333;stop-opacity:1;"
       offset="0"
       id="stop5" /><stop
       style="stop-color:#808080;stop-opacity:1;"
       offset="0.4099519"
       id="stop7" /><stop
       style="stop-color:#333333;stop-opacity:1;"
       offset="0.81499934"
       id="stop8" /><stop
       style="stop-color:#666666;stop-opacity:1;"
       offset="1"
       id="stop6" /></linearGradient><linearGradient
     x1="103.88479"
     y1="-0.11508822"
     x2="103.88479"
     y2="178.55785"
     id="linearGradient4"
     gradientTransform="matrix(0.41627219,0,0,0.58702386,-117.87822,6.9998992)"
     gradientUnits="userSpaceOnUse"><stop
       stop-color="#88C649"
       stop-opacity="0.8"
       offset="0"
       id="stop3"
       style="stop-color:#558028;stop-opacity:0.80000001;" /><stop
       stop-color="#439240"
       stop-opacity="0.84"
       offset="1"
       id="stop4"
       style="stop-color:#224a21;stop-opacity:0.83999997;" /></linearGradient><linearGradient
     x1="49.021549"
     y1="-0.079835393"
     x2="49.021549"
     y2="97.845657"
     id="linearGradient-1"
     gradientTransform="matrix(0.23203448,0,0,1.0709729,20.109787,7.3734022)"
     gradientUnits="userSpaceOnUse"><stop
       stop-color="#16B0ED"
       stop-opacity="0.800235524"
       offset="0%"
       id="stop197" /><stop
       stop-color="#0F59B2"
       stop-opacity="0.83700023"
       offset="100%"
       id="stop199" /></linearGradient><linearGradient
     x1="326.17365"
     y1="-0.069164939"
     x2="326.17365"
     y2="98.851547"
     id="linearGradient-2"
     gradientTransform="matrix(-0.2344199,0,0,1.0600748,172.94275,7.3734022)"
     gradientUnits="userSpaceOnUse"><stop
       stop-color="#7DB643"
       offset="0%"
       id="stop202" /><stop
       stop-color="#367533"
       offset="100%"
       id="stop204" /></linearGradient><linearGradient
     x1="103.88479"
     y1="-0.11508822"
     x2="103.88479"
     y2="178.55785"
     id="linearGradient-3"
     gradientTransform="matrix(0.4233263,0,0,0.58702386,20.109787,7.3734022)"
     gradientUnits="userSpaceOnUse"><stop
       stop-color="#88C649"
       stop-opacity="0.8"
       offset="0%"
       id="stop207" /><stop
       stop-color="#439240"
       stop-opacity="0.84"
       offset="100%"
       id="stop209" /></linearGradient><linearGradient
     xlink:href="#linearGradient4"
     id="linearGradient3"
     gradientUnits="userSpaceOnUse"
     gradientTransform="matrix(0.4233263,0,0,0.58702386,20.109787,11.373402)"
     x1="103.88479"
     y1="-0.11508822"
     x2="103.88479"
     y2="178.55785" /><linearGradient
     xlink:href="#linearGradient16"
     id="linearGradient6"
     x1="4.0777777"
     y1="95.554619"
     x2="123.92888"
     y2="95.554619"
     gradientUnits="userSpaceOnUse" /><linearGradient
     xlink:href="#linearGradient5"
     id="linearGradient10"
     x1="4.0778217"
     y1="36.766357"
     x2="123.9956"
     y2="36.766357"
     gradientUnits="userSpaceOnUse" /></defs>

<path
   id="path1"
   style="fill:url(#linearGradient10);fill-opacity:1;stroke-width:1.13805"
   d="m 64.004277,7.0000017 c -0.58018,0 -1.160537,0.2516128 -1.475016,0.7537738 L 59.406618,12.712814 57.936089,12.853871 53.89212,8.589098 C 53.07264,7.726957 51.418202,8.047333 50.998133,9.1577343 l -2.0713,5.4483297 -1.427941,0.425375 -4.803889,-3.398594 c -0.975573,-0.692872 -2.535288,-0.05374 -2.728107,1.110825 l -0.952708,5.745873 -1.311379,0.692061 -5.386722,-2.415602 c -1.094935,-0.492008 -2.500527,0.432973 -2.454622,1.613339 l 0.206236,5.829626 -1.138765,0.919075 -5.772287,-1.337839 c -0.939668,-0.21515 -2.129058,-2.3162 -2.129058,-2.3162 l 0.03986,4.370345 c 0.0959,0.269374 1.360694,5.677548 1.360694,5.677548 l -0.934777,1.117436 -5.929212,-0.20277 c -0.459354,-0.013 -1.772089,-2.336046 -1.772089,-2.336046 l 0.0031,3.965015 c 0,0 0.01129,0.531601 0.128044,0.784429 l 2.45686,5.298458 -0.70388,1.28935 -7.23619,-1.008895 -0.024915,3.742372 c -0.00203,0.311332 0.09661,0.619092 0.2895042,0.883315 l 3.4566498,4.7188 -0.434887,1.406163 -6.6017785,-0.07637 -0.010678,3.629219 c -0.00102,0.488477 0.1198776,0.984462 0.4972255,1.331256 l 4.3353828,3.976047 -0.1434708,1.443633 -5.7251613,1.049399 -5.09e-5,4.000005 H 20.08775 C 20.0489,64.6822 20.13046,62.829573 20.334339,60.982997 l 7.682193,-3.356717 c 1.641249,-0.716574 2.383151,-2.608026 1.654347,-4.225101 l -0.531283,-1.181356 h 0.0071 l -3.490281,-7.722875 c 1.722391,-3.015838 3.80353,-5.825793 6.213896,-8.359836 l 0.03142,0.02865 c 6.3725,-6.717719 14.758571,-11.275025 23.954456,-12.983864 l 5.492083,5.666527 c 1.241846,1.278542 3.298419,1.325697 4.597654,0.103593 l 6.146648,-5.778933 c 12.680233,2.335358 23.674799,10.034168 30.065218,21.05277 l -4.207607,9.342828 c -0.726514,1.617079 0.01425,3.508531 1.654349,4.2251 l 8.101378,3.537447 c 0.14434,1.428205 0.21615,2.862597 0.2152,4.297836 h 0.0448 c 1e-5,0.302011 -0.0138,0.602252 -0.0202,0.903645 l 15.98339,-0.423463 0.0665,-3.999709 -5.79653,-0.626232 -0.14347,-1.443629 4.33314,-3.976047 c 0.36755,-0.33691 0.50062,-0.815195 0.50059,-1.289569 l -2.8e-4,-3.80884 -6.61333,0.214308 -0.43713,-1.406163 3.45665,-4.718801 c 0.23441,-0.319072 0.28368,-0.699877 0.28422,-1.076764 l 0.005,-3.752904 -7.25898,1.212876 -0.70388,-1.28935 2.45462,-5.298457 c 0.11974,-0.256949 0.1303,-0.529622 0.13074,-0.798742 l 0.006,-3.916606 c 0,0 -1.17783,2.279679 -1.77356,2.301949 l -5.93145,0.20277 -0.93478,-1.117436 c 0,0 1.36294,-5.468024 1.36294,-5.677548 l 0.0396,-4.382892 c 0,0 -1.19279,2.112634 -2.12879,2.328748 l -5.774532,1.337838 -1.138763,-0.919075 0.208471,-5.829625 c 0.04589,-1.180366 -1.359685,-2.10309 -2.45462,-1.61334 L 90.301594,19.18161 88.990218,18.489549 88.037511,12.743676 C 87.84469,11.579107 86.284977,10.94224 85.309404,11.632852 l -4.801653,3.398591 -1.427895,-0.42538 -2.071301,-5.4483297 C 76.588107,8.047333 74.931428,7.726957 74.111944,8.589098 L 70.07022,12.853871 68.601931,12.712814 65.479292,7.7537755 C 65.163666,7.2516122 64.584452,7.0000017 64.004277,7.0000017 Z M 63.824943,17.396351 c 1.965186,0.0064 3.554923,1.574396 3.555279,3.50659 0,4.676921 -7.135218,4.676921 -7.135218,0 3.55e-4,-1.941662 1.60512,-3.51355 3.579939,-3.50659 z M 21.269167,49.149623 c 1.966936,0.0052 3.558395,1.574884 3.557521,3.508795 0,4.676922 -7.135218,4.676922 -7.135218,0 -8.95e-4,-1.941659 1.602879,-3.514534 3.577697,-3.508795 z m 85.109313,0.165302 c 1.96519,0.0064 3.55492,1.574397 3.55528,3.506591 0,4.676927 -7.13522,4.676927 -7.13522,0 3.5e-4,-1.941662 1.60513,-3.51355 3.57994,-3.506591 z" /><path
   d="M 42.830378,11.305844 101.90543,99.938189 85.374456,116.19112 26.268473,27.754971 Z"
   id="path3"
   fill="url(#linearGradient-3)"
   sketch:type="MSShapeGroup"
   style="fill:url(#linearGradient3);stroke-width:0.498499" /><path
   id="path434"
   style="fill:#1a1a1a;fill-opacity:1;stroke-width:1.13805"
   d="m 64.004277,3.0000017 c -0.58018,0 -1.160537,0.2516128 -1.475016,0.7537738 L 59.406618,8.7128141 57.936089,8.8538711 53.89212,4.589098 C 53.07264,3.726957 51.418202,4.047333 50.998133,5.1577343 l -2.0713,5.4483297 -1.427941,0.425375 -4.803889,-3.3985937 C 41.71943,6.939973 40.159715,7.5791072 39.966896,8.7436701 l -0.952708,5.7458729 -1.311379,0.692061 -5.386722,-2.415602 c -1.094935,-0.492008 -2.500527,0.432973 -2.454622,1.613339 l 0.206236,5.829626 -1.138765,0.919075 -5.772287,-1.337839 c -1.172986,-0.268572 -2.364694,0.900865 -2.089234,2.054145 l 1.360694,5.677548 -0.934777,1.117436 -5.929211,-0.20277 c -1.195929,-0.03385 -2.139014,1.334594 -1.640893,2.413398 l 2.45686,5.298458 -0.70388,1.28935 -5.8417843,0.934503 c -1.1867453,0.189581 -1.8299128,1.7231 -1.1297964,2.682289 l 3.4566497,4.7188 -0.434886,1.406163 -5.5413997,2.038714 C 5.0602187,49.631256 4.7319689,51.25565 5.6111288,52.063623 L 9.9465115,56.03967 9.8030408,57.483303 4.7592942,60.553497 C 4.0870014,60.961984 3.865175,61.816632 4.0778286,62.532707 H 20.087801 c -0.03885,-1.850512 0.04271,-3.703139 0.246589,-5.549715 l 7.682193,-3.356717 c 1.641249,-0.716574 2.383151,-2.608026 1.654347,-4.225101 l -0.531283,-1.181356 h 0.0071 l -3.49028,-7.722875 c 1.722391,-3.015838 3.80353,-5.825793 6.213895,-8.359836 l 0.03142,0.02865 c 6.3725,-6.717719 14.75857,-11.275025 23.954456,-12.983864 l 5.492083,5.666527 c 1.241846,1.278542 3.298419,1.325697 4.597654,0.103593 l 6.146648,-5.778933 c 12.680233,2.335358 23.674799,10.034168 30.065217,21.05277 l -4.207607,9.342828 c -0.726513,1.617079 0.01425,3.508531 1.65435,4.2251 l 8.101377,3.537447 c 0.14434,1.428205 0.21615,2.862597 0.2152,4.297836 h 0.0448 c 1e-5,0.302011 -0.0138,0.602252 -0.0202,0.903645 h 15.97635 c 0.21266,-0.716071 -0.009,-1.570723 -0.68147,-1.979206 l -5.0415,-3.070198 -0.14346,-1.443629 4.33314,-3.976047 c 0.88146,-0.807977 0.55096,-2.432371 -0.57612,-2.845385 l -5.5369,-2.038716 -0.43713,-1.406163 3.45664,-4.718801 c 0.70471,-0.959188 0.0569,-2.490451 -1.12979,-2.682289 l -5.83954,-0.934503 -0.70389,-1.28935 2.45463,-5.298457 c 0.50271,-1.078805 -0.429,-2.458536 -1.63642,-2.413399 l -5.93145,0.20277 -0.93477,-1.117436 1.36293,-5.677548 c 0.27546,-1.153282 -0.91625,-2.324974 -2.08923,-2.054144 l -5.774531,1.337838 -1.138764,-0.919075 0.208471,-5.829625 c 0.0459,-1.180366 -1.359684,-2.10309 -2.45462,-1.61334 L 90.301674,15.181605 88.990298,14.489544 88.037591,8.7436714 C 87.844771,7.5791017 86.285058,6.9422346 85.309484,7.6328466 L 80.507798,11.031438 79.079859,10.606063 77.008557,5.1577333 C 76.588107,4.047333 74.931428,3.726957 74.111944,4.589098 L 70.07022,8.8538711 68.601931,8.7128141 65.479292,3.7537755 C 65.163666,3.2516122 64.584452,3.0000017 64.004277,3.0000017 Z M 63.824943,13.396351 c 1.965186,0.0064 3.554923,1.574396 3.555279,3.50659 0,4.676921 -7.135218,4.676921 -7.135218,0 3.55e-4,-1.941662 1.60512,-3.51355 3.579939,-3.50659 z M 21.269167,45.149623 c 1.966936,0.0052 3.558395,1.574884 3.557521,3.508795 0,4.676922 -7.135218,4.676922 -7.135218,0 -8.95e-4,-1.941659 1.602879,-3.514534 3.577697,-3.508795 z m 85.109313,0.165302 c 1.96519,0.0064 3.55492,1.574397 3.55528,3.506591 0,4.676927 -7.13522,4.676927 -7.13522,0 3.5e-4,-1.941662 1.60513,-3.51355 3.57994,-3.506591 z" /><path
   d="M 20.123435,29.843403 42.845527,7.2879014 V 112.19008 L 20.123435,89.895086 Z"
   id="Left---green"
   fill="url(#linearGradient-1)"
   sketch:type="MSShapeGroup"
   style="fill:url(#linearGradient-1);stroke-width:0.498499" /><path
   d="M 107.92001,30.015608 84.886666,7.2593352 85.353554,112.16344 108.07565,89.868453 Z"
   id="Right---blue"
   fill="url(#linearGradient-2)"
   sketch:type="MSShapeGroup"
   style="fill:url(#linearGradient-2);stroke-width:0.498499" /><path
   d="M 42.830378,7.3058437 101.90543,95.938189 85.374456,112.19112 26.268473,23.754971 Z"
   id="Cross---blue"
   fill="url(#linearGradient-3)"
   sketch:type="MSShapeGroup"
   style="fill:url(#linearGradient-3);stroke-width:0.498499" /><path
   d="M 42.850706,48.415887 42.819272,51.906858 24.57958,25.431096 26.268463,23.739525 Z"
   id="Shadow"
   fill-opacity="0.13"
   fill="#000000"
   sketch:type="MSShapeGroup"
   style="stroke-width:0.498499" /><path
   id="path2"
   style="fill:url(#linearGradient6);fill-opacity:1;stroke-width:1.13805"
   d="m 4.0777777,66.532712 c 0.029898,0.533637 0.2026773,0.631392 0.6815165,0.921271 l 5.0437466,3.070199 0.1434707,1.443628 -4.8181575,1.439639 0.00203,4.016252 c 3.661e-4,0.59971 0.4620189,1.146894 1.0542272,1.365542 l 5.5413988,2.036514 0.434887,1.406163 -3.7350693,1.841252 0.020136,4.132651 c 0.00305,0.69956 0.6576183,1.311883 1.3880905,1.427186 l 5.8417848,0.934501 0.703879,1.291556 -2.579585,2.132721 -0.002,3.987351 c -4.17e-4,0.852923 0.863631,1.625325 1.765591,1.589577 l 5.926964,-0.202766 0.937024,1.119641 -1.393226,2.16641 0.0051,4.04923 c 0.001,0.95307 1.12701,1.7401 2.116468,1.51164 l 5.772287,-1.33563 1.138766,0.91687 -0.206237,5.83182 c -0.04586,1.18038 1.359687,2.10315 2.454623,1.61114 l 5.386721,-2.4134 1.31138,0.69206 0.952707,5.74147 c 0.192819,1.16907 1.752535,1.80138 2.728107,1.11302 l 4.801648,-3.40079 1.430182,0.42758 2.0713,5.44612 c 0.420069,1.10589 2.074507,1.43089 2.893987,0.56423 l 4.043969,-4.26036 1.470529,0.14326 3.120398,4.95903 c 0.628963,0.99981 2.321023,1.00207 2.952277,0 l 3.120397,-4.95903 1.470531,-0.14326 4.041723,4.26036 c 0.819484,0.86666 2.473923,0.54166 2.893992,-0.56423 l 2.071296,-5.44612 1.430185,-0.42758 4.801648,3.40079 c 0.975569,0.68836 2.533043,0.0538 2.725862,-1.11302 l 0.952708,-5.74147 1.313621,-0.69206 5.386722,2.4134 c 1.094935,0.49201 2.498237,-0.42848 2.45462,-1.61114 l -0.02411,-3.67696 -0.184362,-2.15486 1.138768,-0.91687 5.774531,1.33563 c 1.17299,0.27083 2.11062,-0.87746 2.08699,-2.04753 l 0.0306,-3.49 -1.39124,-2.18975 0.93478,-1.119641 5.92921,0.202766 c 0.88505,0.03508 1.75491,-0.704817 1.75816,-1.542027 l 0.0162,-4.157578 -2.59028,-2.010044 0.70164,-1.291556 5.83954,-0.934501 c 0.80766,-0.12724 1.41883,-0.937916 1.4195,-1.64219 l 0.004,-4.083408 -3.74796,-1.675491 0.43263,-1.406163 5.5414,-2.036514 c 0.65223,-0.240316 1.07751,-0.927078 1.07452,-1.542726 l -0.0214,-4.402657 -4.81013,-0.87605 0.14347,-1.443628 5.0415,-3.070199 c 0.47885,-0.289879 0.65901,-0.811103 0.68892,-1.34474 l -15.97484,2.91e-4 c -0.11205,9.905672 -3.6787,19.479357 -10.125603,27.109412 l -0.0157,-0.01323 c -0.793043,0.927383 -1.625441,1.821537 -2.494975,2.680084 l -6.809369,-2.052849 c -1.757179,-0.370137 -4.222013,1.185775 -4.59847,2.916825 l -1.788847,8.216574 c -11.651737,5.18978 -25.025765,5.12701 -36.626571,-0.17191 l -1.78885,-8.216579 c -0.376457,-1.728793 -2.375302,-3.628742 -4.131334,-3.257475 l -7.106124,2.356033 C 31.334185,94.528555 30.26625,93.319627 29.269023,92.05522 l -0.0359,0.02646 C 25.456269,87.292254 22.747226,81.775915 21.28194,75.890965 l 0.04485,-0.01106 C 20.531667,72.675749 20.123364,69.396367 20.08714,66.109496 Z M 37.395702,98.5725 h 0.002 c 1.966064,0.0065 3.556165,1.57574 3.555283,3.50879 0,4.67693 -7.135218,4.67693 -7.135218,0 -8.95e-4,-1.94165 1.60287,-3.514528 3.577697,-3.50879 z m 52.856237,0.165302 c 1.965186,0.0068 3.554922,1.574408 3.555278,3.506588 0,4.67693 -7.135219,4.67693 -7.135219,0 3.52e-4,-1.94165 1.605121,-3.513548 3.579941,-3.506588 z" /><path
   id="path849"
   style="fill:#1a1a1a;fill-opacity:1;stroke-width:1.13805"
   d="m 4.0038559,62.109534 c 0.029898,0.533637 0.2765991,1.05457 0.7554383,1.344449 l 5.0437466,3.070199 0.1434707,1.443628 -4.3353827,3.976047 c -0.8791599,0.805719 -0.5509101,2.430113 0.5738625,2.845386 l 5.5413997,2.036514 0.434886,1.406163 -3.4566497,4.721005 c -0.7024147,0.961442 -0.056949,2.492759 1.1297964,2.680084 l 5.8417843,0.934501 0.70388,1.291556 -2.45686,5.296254 c -0.500409,1.076548 0.444964,2.460794 1.640893,2.413395 l 5.926964,-0.202766 0.937024,1.11964 -1.360694,5.679751 c -0.27546,1.15102 0.916248,2.31836 2.089234,2.04753 l 5.772287,-1.33563 1.138765,0.91687 -0.206236,5.83182 c -0.04586,1.18038 1.359687,2.10315 2.454622,1.61114 l 5.386722,-2.4134 1.311379,0.69206 0.952708,5.74147 c 0.192819,1.16907 1.752534,1.80138 2.728107,1.11302 l 4.801648,-3.40079 1.430182,0.42758 2.0713,5.44612 c 0.420069,1.10589 2.074507,1.43089 2.893987,0.56423 l 4.043969,-4.26036 1.470529,0.14326 3.120398,4.95903 c 0.628963,0.99981 2.321022,1.00207 2.952276,0 l 3.120398,-4.95903 1.47053,-0.14326 4.041724,4.26036 c 0.819484,0.86666 2.473923,0.54166 2.893992,-0.56423 l 2.071296,-5.44612 1.430185,-0.42758 4.801648,3.40079 c 0.975568,0.68836 2.533042,0.0538 2.725861,-1.11302 l 0.952709,-5.74147 1.313621,-0.69206 5.386721,2.4134 c 1.094936,0.49201 2.498238,-0.42848 2.454621,-1.61114 l -0.208476,-5.83182 1.138768,-0.91687 5.77453,1.33563 c 1.17298,0.27083 2.36244,-0.89651 2.08699,-2.04753 l -1.36069,-5.679751 0.93477,-1.11964 5.92921,0.202766 c 1.19594,0.0474 2.14137,-1.336847 1.63866,-2.413395 l -2.45463,-5.296254 0.70164,-1.291556 5.83955,-0.934501 c 1.18905,-0.187325 1.83674,-1.718642 1.13203,-2.680084 l -3.45664,-4.721005 0.43264,-1.406163 5.54139,-2.036514 c 1.12708,-0.415273 1.45533,-2.039667 0.57387,-2.845386 l -4.33089,-3.976047 0.14346,-1.443628 5.04151,-3.070199 c 0.47884,-0.289879 0.72554,-0.810812 0.75545,-1.344449 h -16.04137 c -0.11205,9.905672 -3.6787,19.479357 -10.125605,27.109412 l -0.0157,-0.01323 c -0.793043,0.927383 -1.625442,1.821537 -2.494975,2.680084 l -7.545445,-1.595706 c -1.757179,-0.370137 -3.485937,0.728632 -3.862394,2.459682 l -1.788848,8.216574 c -11.651737,5.18978 -25.025764,5.12701 -36.62657,-0.17191 l -1.788851,-8.216579 c -0.376456,-1.728793 -2.104116,-2.828742 -3.860147,-2.457475 l -7.377306,1.556033 C 31.334826,90.528555 30.266891,89.319627 29.269663,88.05522 l -0.0359,0.02646 C 25.456909,83.292254 22.747867,77.775915 21.28258,71.890965 l 0.04485,-0.01106 C 20.53231,68.675749 20.124006,65.396367 20.087783,62.109496 Z M 37.395702,94.5725 h 0.002 c 1.966064,0.0065 3.556165,1.575738 3.555283,3.508795 0,4.676925 -7.135218,4.676925 -7.135218,0 -8.95e-4,-1.941658 1.60287,-3.514533 3.577697,-3.508795 z m 52.856237,0.165302 c 1.965186,0.0068 3.554922,1.574406 3.555278,3.506591 0,4.676927 -7.135219,4.676927 -7.135219,0 3.52e-4,-1.941658 1.605121,-3.513551 3.579941,-3.506591 z" /></svg>
