<?xml version="1.0" encoding="UTF-8" standalone="no"?>
<svg
   width="128px"
   height="128px"
   viewBox="0 0 128 128"
   version="1.1"
   id="svg78"
   xmlns:xlink="http://www.w3.org/1999/xlink"
   xmlns="http://www.w3.org/2000/svg"
   xmlns:svg="http://www.w3.org/2000/svg"
   xmlns:rdf="http://www.w3.org/1999/02/22-rdf-syntax-ns#"
   xmlns:cc="http://creativecommons.org/ns#"
   xmlns:dc="http://purl.org/dc/elements/1.1/">
  <title
     id="title2">Linux/128x128</title>
  <defs
     id="defs55">
    <linearGradient
       id="linearGradient1301">
      <stop
         style="stop-color:#e26c00;stop-opacity:1;"
         offset="0"
         id="stop1297" />
      <stop
         style="stop-color:#ffb822;stop-opacity:1;"
         offset="0.04407027"
         id="stop1305" />
      <stop
         style="stop-color:#e26c00;stop-opacity:1;"
         offset="0.07"
         id="stop1307" />
      <stop
         style="stop-color:#e26c00;stop-opacity:1;"
         offset="0.92731786"
         id="stop1309" />
      <stop
         style="stop-color:#ffb822;stop-opacity:1;"
         offset="0.95959532"
         id="stop1311" />
      <stop
         style="stop-color:#e26c00;stop-opacity:1;"
         offset="1"
         id="stop1299" />
    </linearGradient>
    <path
       d="M25.1013686,11 L102.898631,11 C107.801984,11 109.580059,11.5105409 111.372651,12.4692299 C113.165244,13.4279189 114.572081,14.834756 115.53077,16.6273486 C116.489459,18.4199412 117,20.1980155 117,25.1013686 L117,102.898631 C117,107.801984 116.489459,109.580059 115.53077,111.372651 C114.572081,113.165244 113.165244,114.572081 111.372651,115.53077 C109.580059,116.489459 107.801984,117 102.898631,117 L25.1013686,117 C20.1980155,117 18.4199412,116.489459 16.6273486,115.53077 C14.834756,114.572081 13.4279189,113.165244 12.4692299,111.372651 C11.5105409,109.580059 11,107.801984 11,102.898631 L11,25.1013686 C11,20.1980155 11.5105409,18.4199412 12.4692299,16.6273486 C13.4279189,14.834756 14.834756,13.4279189 16.6273486,12.4692299 C18.4199412,11.5105409 20.1980155,11 25.1013686,11 Z"
       id="path-2" />
    <linearGradient
       x1="18"
       y1="18"
       x2="110"
       y2="110"
       id="linearGradient-5"
       gradientUnits="userSpaceOnUse">
      <stop
         stop-color="#FFFFFF"
         offset="0%"
         id="stop42" />
      <stop
         stop-color="#ECECEC"
         offset="100%"
         id="stop44" />
    </linearGradient>
    <path
       d="M23.1277704,18 L104.87223,18 C106.655267,18 107.30184,18.1856512 107.953691,18.5342654 C108.605543,18.8828796 109.11712,19.3944567 109.465735,20.0463086 C109.814349,20.6981604 110,21.3447329 110,23.1277704 L110,104.87223 C110,106.655267 109.814349,107.30184 109.465735,107.953691 C109.11712,108.605543 108.605543,109.11712 107.953691,109.465735 C107.30184,109.814349 106.655267,110 104.87223,110 L23.1277704,110 C21.3447329,110 20.6981604,109.814349 20.0463086,109.465735 C19.3944567,109.11712 18.8828796,108.605543 18.5342654,107.953691 C18.1856512,107.30184 18,106.655267 18,104.87223 L18,23.1277704 C18,21.3447329 18.1856512,20.6981604 18.5342654,20.0463086 C18.8828796,19.3944567 19.3944567,18.8828796 20.0463086,18.5342654 C20.6981604,18.1856512 21.3447329,18 23.1277704,18 Z"
       id="path-6" />
    <linearGradient
       xlink:href="#linearGradient1301"
       id="linearGradient1303"
       x1="11"
       y1="64"
       x2="117"
       y2="64"
       gradientUnits="userSpaceOnUse" />
  </defs>
  <use
     fill="url(#linearGradient-1)"
     fill-rule="evenodd"
     xlink:href="#path-2"
     id="use59-6"
     style="fill:url(#linearGradient1303);fill-opacity:1;stroke:none;stroke-width:1"
     transform="matrix(0.98113208,0,0,0.94339623,1.2075469,5.660377)" />
  <use
     fill="url(#linearGradient-1)"
     fill-rule="evenodd"
     xlink:href="#path-2"
     id="use59"
     style="fill:#ffb822;fill-opacity:1;stroke:none;stroke-width:1"
     transform="matrix(0.98113208,0,0,0.94339623,1.2075469,1.6603771)" />
  <use
     fill="url(#linearGradient-5)"
     fill-rule="evenodd"
     xlink:href="#path-6"
     id="use68"
     style="fill:url(#linearGradient-5);stroke:none;stroke-width:1"
     transform="matrix(0.98113208,0,0,0.94339623,1.2075469,1.6603771)" />
  <rect
     id="Separator"
     fill-opacity="0.1"
     fill="#000000"
     x="18.867924"
     y="46.943398"
     width="90.264153"
     height="0.94339621"
     style="fill-rule:evenodd;stroke:none;stroke-width:0.962079" />
  <rect
     id="rect72"
     fill-opacity="0.1"
     fill="#000000"
     x="18.867924"
     y="76.188675"
     width="90.264153"
     height="0.94339621"
     style="fill-rule:evenodd;stroke:none;stroke-width:0.962079" />
  <path
     d="m 37.839731,86.226971 c -0.028,0 -0.05686,-0.0049 -0.0857,-0.01475 l -4.738288,-1.629164 c -0.140011,-0.04835 -0.243533,-0.123745 -0.313962,-0.22864 -0.06619,-0.09834 -0.09928,-0.220446 -0.09928,-0.362219 0,-0.059 0.0042,-0.109812 0.01528,-0.155704 0.0068,-0.0295 0.04667,-0.122105 0.06279,-0.14669 l 0.289354,-0.500714 c 0.07722,-0.122925 0.164618,-0.217168 0.264747,-0.283546 0.10946,-0.0754 0.235892,-0.113091 0.365721,-0.113091 0.02206,0 0.11031,0.0098 0.133222,0.01557 0.04158,0.0098 0.0857,0.0254 0.12813,0.04671 l 4.342861,2.4503 c 0.114554,0.06473 0.158679,0.205693 0.09928,0.321243 l -0.235897,0.463837 c -0.04242,0.08359 -0.131524,0.136856 -0.228258,0.136856 z m -1.444226,3.259964 c -0.06958,8.19e-4 -0.131525,0.04343 -0.156133,0.107354 l -1.174388,3.096065 c -0.01867,0.04917 -0.01103,0.105715 0.02037,0.149148 0.03225,0.04426 0.084,0.07048 0.139162,0.07048 h 2.47521 c 0.056,0 0.109463,-0.02705 0.140859,-0.07293 0.0314,-0.04426 0.03733,-0.102437 0.01697,-0.152427 L 36.555884,89.58938 c -0.02546,-0.06228 -0.08825,-0.102436 -0.156981,-0.102436 z m 2.479453,8.399853 c -0.534585,0 -0.853638,-0.05654 -1.034379,-0.181106 -0.199409,-0.139317 -0.300386,-0.372875 -0.300386,-0.69575 0,-0.385163 0.178196,-0.578564 0.32754,-0.67363 0.18668,-0.118831 0.494702,-0.176189 0.943584,-0.176189 h 0.212985 c 0.056,0 0.108614,-0.02708 0.140859,-0.07292 0.0314,-0.04424 0.03733,-0.102443 0.01612,-0.152432 l -0.534585,-1.265305 c -0.0263,-0.06146 -0.08825,-0.102438 -0.156981,-0.102438 h -4.02805 c -0.07128,0 -0.135768,0.04261 -0.159527,0.108174 L 33.8278,95.940494 c -0.01867,0.04999 -0.01103,0.105714 0.02037,0.149968 0.0314,0.04339 0.084,0.06963 0.139162,0.06963 h 0.276626 c 0.453124,0 0.76454,0.05651 0.954615,0.175368 0.221471,0.137679 0.334328,0.364679 0.334328,0.674458 0,0.400721 -0.16377,0.599865 -0.301235,0.69574 -0.178197,0.122962 -0.498099,0.181144 -1.006378,0.181144 h -2.386962 c -0.459913,0 -0.744175,-0.05654 -0.92237,-0.183567 -0.196015,-0.1385 -0.294446,-0.372058 -0.294446,-0.693298 0,-0.38599 0.161224,-0.578562 0.296992,-0.671987 0.156981,-0.109 0.408151,-0.166358 0.767085,-0.176198 0.06873,-0.0028 0.129829,-0.04425 0.153588,-0.106528 l 2.766262,-7.075552 c 0.01951,-0.04999 0.01273,-0.106535 -0.01951,-0.149968 -0.0314,-0.04508 -0.08316,-0.07129 -0.139162,-0.07129 h -0.711083 c -0.431061,0 -0.722961,-0.059 -0.918976,-0.186027 -0.22147,-0.144232 -0.334327,-0.377788 -0.334327,-0.690018 0,-0.317145 0.104371,-0.557258 0.301234,-0.694934 0.128979,-0.09014 0.375058,-0.181929 1.215119,-0.181929 h 2.58637 c 0.397969,0 0.661018,0.05655 0.828181,0.175372 0.15783,0.113911 0.290204,0.300757 0.406455,0.572011 l 3.44425,8.306431 c 0.02461,0.05981 0.084,0.100802 0.151042,0.103254 0.318204,0.01151 0.545615,0.06963 0.696657,0.177831 0.187526,0.136859 0.283412,0.361405 0.283412,0.66954 0,0.316317 -0.08995,0.546605 -0.266444,0.685913 -0.165466,0.130298 -0.420879,0.190942 -0.80527,0.190942 z"
     id="3"
     fill="#e3450d"
     style="fill-rule:evenodd;stroke:none;stroke-width:0.962079" />
  <path
     d="m 39.226259,56.73311 c -0.698178,0 -1.283015,0.304874 -1.738189,0.904551 -0.569424,0.815744 -0.833281,2.217434 -0.833281,4.416555 0,1.896079 0.296499,3.439675 0.833281,4.345141 0.425253,0.60334 1.060866,0.943004 1.75451,0.943004 1.743631,0 2.555149,-1.685505 2.555149,-5.304625 0,-2.206446 -0.256604,-3.608134 -0.806984,-4.410145 C 40.530129,57.0389 39.922623,56.73311 39.226259,56.73311 m -0.01632,11.908399 c -3.123664,0 -4.937113,-2.133203 -5.10667,-6.006843 -0.0036,-0.09796 -0.08433,-0.175783 -0.181345,-0.175783 h -1.302962 c -0.09974,0 -0.181344,0.08239 -0.181344,0.184023 v 3.49003 c 0,0.736092 0.05894,0.861521 0.124221,0.93568 0.07979,0.07141 0.191319,0.126343 0.783409,0.126343 0.150516,0 0.272017,0.123598 0.272017,0.274662 v 0.652778 c 0,0.151064 -0.121501,0.274662 -0.272017,0.274662 h -4.393985 c -0.150515,0 -0.272017,-0.123598 -0.272017,-0.274662 v -0.652778 c 0,-0.151064 0.121502,-0.274662 0.272017,-0.274662 0.904911,0 0.98833,-0.0888 0.98833,-1.062023 v -8.189485 c 0,-0.738839 -0.05712,-0.85969 -0.126035,-0.932933 -0.07707,-0.07324 -0.194039,-0.130921 -0.862295,-0.130921 -0.150515,0 -0.272017,-0.122683 -0.272017,-0.274662 v -0.651863 c 0,-0.151979 0.121502,-0.274662 0.272017,-0.274662 h 4.393985 c 0.150516,0 0.272017,0.122683 0.272017,0.274662 v 0.651863 c 0,0.151979 -0.121501,0.274662 -0.272017,0.274662 -0.585743,0 -0.699084,0.05127 -0.764368,0.103454 -0.08795,0.101625 -0.143262,0.228886 -0.143262,0.9604 v 2.984652 c 0,0.10071 0.0816,0.183108 0.181344,0.183108 h 1.337418 c 0.0943,0 0.172278,-0.07325 0.180438,-0.167543 0.301939,-3.501931 2.157096,-5.509706 5.089442,-5.509706 3.273273,0 5.151099,2.406034 5.151099,6.603774 0,2.231165 -0.48419,3.937727 -1.438064,5.071163 -0.911257,1.001598 -2.201525,1.53261 -3.729356,1.53261"
     id="2"
     fill="#1595e0"
     style="fill-rule:evenodd;stroke:none;stroke-width:0.962079" />
  <path
     d="m 35.725224,27.327261 c -0.01997,0 -0.03903,0.0035 -0.05809,0.0096 -0.398452,0.129906 -0.876774,0.267659 -1.506672,0.432439 -0.07896,0.02092 -0.13433,0.0898 -0.13433,0.168266 v 2.293839 c 0,0.07585 0.05264,0.142982 0.127977,0.165652 0.01815,0.0062 0.0363,0.0087 0.05445,0.0087 0.05809,0 0.114362,-0.02703 0.148852,-0.07585 l 0.62899,-0.870978 c 0.04266,-0.05929 0.109824,-0.09852 0.183342,-0.109853 h 0.01906 c 0.09076,0 0.144314,0.01918 0.190603,0.05406 l 0.962091,0.734099 c 0.03267,0.02441 0.07261,0.03836 0.112547,0.03836 0.02723,0 0.05355,-0.0062 0.07896,-0.01743 0.06263,-0.02964 0.102563,-0.09067 0.102563,-0.157805 v -2.163059 c 0,-0.06626 0.02541,-0.129034 0.07261,-0.176986 0.05355,-0.05667 0.06354,-0.139496 0.02269,-0.205756 -0.03267,-0.05492 -0.09258,-0.08719 -0.156113,-0.08719 -0.01362,0 -0.02723,0.0017 -0.04084,0.0043 -0.08441,0.01831 -0.176081,0.02789 -0.273198,0.02789 -0.150667,0 -0.311319,-0.02179 -0.489215,-0.06627 -0.01543,-0.0043 -0.03086,-0.0062 -0.04629,-0.0062 z m -1.516656,4.018357 c -0.100748,0 -0.182435,0.07846 -0.182435,0.17437 v 0.958162 c 0,0.0776 0.05355,0.144728 0.129792,0.167396 0.990229,0.28771 1.71815,0.6783 2.161983,1.160432 0.0354,0.03836 0.08532,0.05928 0.136145,0.05928 0.02178,0 0.04356,-0.0035 0.06444,-0.01133 0.0708,-0.02528 0.117086,-0.09067 0.117086,-0.163035 V 31.48773 c 0,-0.05144 -0.0236,-0.100263 -0.06535,-0.133393 -0.03267,-0.02615 -0.07352,-0.04097 -0.116177,-0.04097 -0.01,0 -0.02178,0.0017 -0.03177,0.0035 -0.133423,0.02354 -0.270475,0.02877 -0.403897,0.02877 z m 4.867638,-2.19096 c -0.09984,0 -0.181527,0.07847 -0.181527,0.17437 v 7.905937 c 0,0.0959 0.08169,0.17437 0.181527,0.17437 h 2.149275 c 0.09984,0 0.181527,-0.07846 0.181527,-0.17437 v -7.905937 c 0,-0.0959 -0.08169,-0.17437 -0.181527,-0.17437 z m -7.0033,11.184965 c -0.150666,0 -0.272289,-0.116828 -0.272289,-0.261555 v -4.330479 c 0,-0.07498 -0.05083,-0.142112 -0.125254,-0.165652 -0.01906,-0.0062 -0.03812,-0.0087 -0.05628,-0.0087 -0.05718,0 -0.111638,0.02615 -0.147037,0.07236 -0.619913,0.816052 -1.343297,1.5641 -2.150183,2.22409 -0.04902,0.04011 -0.111639,0.06278 -0.176988,0.06278 -0.07624,0 -0.147944,-0.03051 -0.199679,-0.08457 L 28.750962,37.6465 c -0.08622,-0.09067 -0.09621,-0.228426 -0.02178,-0.328687 1.055577,-1.43681 1.938704,-3.482169 2.486915,-5.75857 0.01271,-0.05144 0,-0.106366 -0.03449,-0.147343 -0.03449,-0.04185 -0.08713,-0.06627 -0.142499,-0.06627 H 29.12854 c -0.125254,0 -0.233261,-0.08109 -0.264121,-0.19791 l -0.08078,-0.31125 c -0.01997,-0.07847 -0.0019,-0.160421 0.04992,-0.224066 0.05174,-0.06364 0.129791,-0.100262 0.21511,-0.100262 h 2.570417 c 0.09984,0 0.181527,-0.07847 0.181527,-0.174371 V 28.50427 c 0,-0.05144 -0.02451,-0.101134 -0.06535,-0.134264 -0.03358,-0.02616 -0.07443,-0.04011 -0.116177,-0.04011 -0.0118,0 -0.02178,8.71e-4 -0.03358,0.0026 -0.803256,0.142112 -1.653708,0.265043 -2.457872,0.354844 h -0.0045 c -0.148851,0 -0.251414,-0.07411 -0.286812,-0.183089 l -0.06535,-0.202269 c -0.04266,-0.13601 0.03267,-0.27812 0.172451,-0.323457 1.921459,-0.630348 4.412005,-1.809088 5.669985,-2.683555 0.04718,-0.03233 0.102544,-0.04977 0.159725,-0.04977 0.06263,0 0.121622,0.02006 0.170635,0.05754 l 1.94052,1.490863 c 0.05991,0.04621 0.09711,0.115956 0.101655,0.190063 0.0045,0.0741 -0.02451,0.146471 -0.07987,0.198782 -0.02814,0.0279 -0.059,0.05318 -0.09258,0.07411 -0.06535,0.0436 -0.09439,0.12206 -0.0717,0.195295 0.02269,0.07237 0.09167,0.12293 0.171542,0.123802 0.0354,8.72e-4 0.06989,0.0078 0.102562,0.02179 l 1.709075,0.709686 2.564064,0.01395 c 0.05718,0 0.111639,-0.02616 0.146128,-0.06974 l 0.57544,-0.741944 c 0.05174,-0.06627 0.131606,-0.104623 0.21874,-0.104623 0.05808,0 0.113454,0.01743 0.159743,0.0497 l 1.876986,1.320853 c 0.117992,0.08282 0.146129,0.239759 0.06535,0.355716 -0.09802,0.141239 -0.276828,0.261554 -0.532781,0.356586 -0.0708,0.02529 -0.117084,0.09067 -0.117084,0.162164 v 9.372388 c 0,0.335663 -0.855899,0.71143 -2.00224,0.71143 -0.150666,0 -0.27229,-0.116828 -0.27229,-0.260684 V 38.41714 c 0,-0.0959 -0.08169,-0.17437 -0.181526,-0.17437 h -2.149275 c -0.09984,0 -0.181528,0.07846 -0.181528,0.17437 v 0.698352 c 0,0.192678 -0.336731,0.913699 -1.986809,0.913699 -0.149759,0 -0.272289,-0.116829 -0.272289,-0.261556 v -3.828293 c 0,-0.06626 -0.03903,-0.126419 -0.100748,-0.156062 -0.02541,-0.01221 -0.05355,-0.01831 -0.08078,-0.01831 -0.03903,0 -0.07806,0.01221 -0.109824,0.03662 -0.182434,0.133393 -0.401174,0.204012 -0.632621,0.204012 -0.296795,0 -0.587239,-0.128161 -0.83956,-0.371407 -0.04175,-0.04011 -0.06898,-0.09241 -0.07715,-0.149088 -0.04902,-0.33479 -0.196049,-0.732354 -0.426588,-1.149098 -0.03177,-0.05841 -0.09439,-0.09328 -0.159743,-0.09328 -0.01452,0 -0.02995,0.0017 -0.04447,0.0052 -0.08078,0.01918 -0.137961,0.0898 -0.137961,0.169138 v 5.195402 c -0.05265,0.376639 -0.823229,0.727123 -1.646453,0.727123 z"
     id="1"
     fill="#c057ea"
     style="fill-rule:evenodd;stroke:none;stroke-width:0.962079" />
  <metadata
     id="metadata82">
    <rdf:RDF>
      <cc:Work
         rdf:about="">
        <dc:title>Linux/128x128</dc:title>
      </cc:Work>
    </rdf:RDF>
  </metadata>
</svg>
