<?xml version="1.0" encoding="UTF-8" standalone="no"?>
<svg
   height="128px"
   viewBox="0 0 128 128"
   width="128px"
   version="1.1"
   id="svg19"
   xmlns:xlink="http://www.w3.org/1999/xlink"
   xmlns="http://www.w3.org/2000/svg"
   xmlns:svg="http://www.w3.org/2000/svg">
  <defs
     id="defs19">
    <linearGradient
       xlink:href="#a"
       id="linearGradient20"
       x1="38"
       y1="108"
       x2="146.00002"
       y2="108"
       gradientUnits="userSpaceOnUse"
       gradientTransform="translate(-28.000005,-42.000002)" />
  </defs>
  <linearGradient
     id="a"
     gradientTransform="matrix(1.1999802,0,0,-1.1999802,181.47906,335.86367)"
     gradientUnits="userSpaceOnUse"
     x1="2.999997"
     x2="93.000366"
     y1="186.252045"
     y2="186.252045">
    <stop
       offset="0.43"
       stop-color="#456f2a"
       id="stop1" />
    <stop
       offset="0.5"
       stop-color="#5c913b"
       id="stop2" />
    <stop
       offset="0.57"
       stop-color="#456f2a"
       id="stop3" />
  </linearGradient>
  <path
     d="m 74.725995,115.57301 c -5.899126,5.90265 -15.552875,5.90265 -21.451998,0 L 14.426974,76.725998 c -5.9026388,-5.89913 -5.9026388,-15.55287 0,-21.451998 L 53.273998,16.426976 c 5.899123,-5.902637 15.552871,-5.902637 21.451997,0 L 113.57302,55.274 c 5.90265,5.899128 5.90265,15.552868 0,21.451998 z m 0,0"
     fill="#5c913b"
     id="path4-6"
     style="fill:url(#linearGradient20);stroke-width:0.899985" />
  <path
     d="m 74.725994,111.57301 c -5.899123,5.90265 -15.552872,5.90265 -21.451994,0 L 14.426976,72.725997 c -5.9026389,-5.899123 -5.9026389,-15.552872 0,-21.451995 L 53.274,12.426979 c 5.899123,-5.9026384 15.552872,-5.9026384 21.451994,0 l 38.847026,38.847023 c 5.90265,5.899123 5.90265,15.552872 0,21.451995 z m 0,0"
     fill="#5c913b"
     id="path4"
     style="stroke-width:0.899985" />
  <path
     d="m 72.778369,103.93369 c -4.83039,4.82687 -12.726355,4.82687 -17.556745,0 L 22.066304,70.778372 c -4.826874,-4.83039 -4.826874,-12.729871 0,-17.556745 l 33.15532,-33.15532 c 4.83039,-4.826874 12.726355,-4.826874 17.556745,0 l 33.155321,33.15532 c 4.82688,4.826874 4.82688,12.726355 0,17.556745 z m 0,0"
     fill="#456f2a"
     id="path5"
     style="stroke-width:0.899985" />
  <path
     d="m 72.778369,103.0337 c -4.83039,4.82687 -12.726355,4.82687 -17.556745,0 L 22.066304,69.878386 c -4.826874,-4.830389 -4.826874,-12.72987 0,-17.556745 L 55.221625,19.166322 c 4.830389,-4.826874 12.726354,-4.826874 17.556745,0 l 33.15532,33.155319 c 4.82688,4.826875 4.82688,12.726356 0,17.556745 z m 0,0"
     fill="#ffe8b6"
     id="path6"
     style="stroke-width:0.899985" />
  <path
     d="m 103.89467,61.100014 v -0.899985 l -79.46942,-1.455446 -0.319917,2.355431 c -0.414836,3.037451 1.160138,6.127635 3.483928,8.451425 l 27.95931,27.955799 c 4.647581,4.647582 12.255269,4.647582 16.90285,0 L 100.40722,69.551439 c 2.3273,-2.32379 3.48745,-5.38585 3.48745,-8.451425 z m 0,0"
     fill="#ffd589"
     id="path7"
     style="stroke-width:0.899985" />
  <path
     d="m 72.451421,97.507238 c -4.647581,4.651092 -12.255269,4.651092 -16.90285,0 L 27.592776,69.551439 c -4.651096,-4.647581 -4.651096,-12.255269 0,-16.90285 L 55.548572,24.692794 c 4.647581,-4.651096 12.255269,-4.651096 16.902849,0 l 27.955799,27.955795 c 4.65109,4.647581 4.65109,12.255269 0,16.90285 z m 0,0"
     fill="#ebce99"
     id="path8"
     style="stroke-width:0.899985" />
  <path
     d="m 72.451421,96.607253 c -4.647581,4.651087 -12.255269,4.651087 -16.90285,0 L 27.592776,68.651454 c -4.651096,-4.647581 -4.651096,-12.255269 0,-16.90285 L 55.548572,23.792809 c 4.647581,-4.651097 12.255269,-4.651097 16.902849,0 l 27.955799,27.955795 c 4.65109,4.647581 4.65109,12.255269 0,16.90285 z m 0,0"
     fill="#dd2e44"
     id="path9"
     style="stroke-width:0.899985" />
  <path
     d="M 75.56973,40.231604 64.256634,28.922022 C 62.112138,26.77401 58.19931,28.085317 55.527479,30.757148 L 34.560632,51.723995 c -2.671832,2.671831 -3.983139,6.584659 -1.835127,8.729155 l 11.313098,11.313096 c 2.144497,2.144497 6.057324,0.83319 8.72564,-1.838641 L 73.731088,48.960759 c 2.671831,-2.668316 3.983138,-6.581143 1.838642,-8.729155"
     fill="#b21a31"
     id="path10"
     style="stroke-width:0.899985" />
  <path
     d="M 75.56973,39.331618 64.256634,28.022037 C 62.112138,25.874025 58.19931,27.185331 55.527479,29.857163 L 34.560632,50.824009 c -2.671832,2.671832 -3.983139,6.584659 -1.835127,8.729155 l 11.313098,11.313097 c 2.144497,2.144497 6.057324,0.83319 8.72564,-1.838641 L 73.731088,48.060773 c 2.671831,-2.668316 3.983138,-6.581143 1.838642,-8.729155"
     fill="#ff554d"
     id="path11"
     style="stroke-width:0.899985" />
  <path
     d="m 66.580425,43.673345 -6.665518,-6.665517 c -1.262089,-1.265604 -3.536662,-0.523819 -5.079996,1.019514 L 42.730812,50.131443 c -1.543334,1.543334 -2.285119,3.817907 -1.019514,5.079995 l 6.665515,6.665516 c 1.265605,1.265605 3.540177,0.52382 5.079995,-1.015999 L 65.564424,48.75334 c 1.53982,-1.539819 2.281604,-3.814391 1.016001,-5.079995"
     fill="#a33a33"
     id="path12"
     style="stroke-width:0.899985" />
  <path
     d="m 66.580425,42.773359 -6.665518,-6.665516 c -1.262089,-1.265604 -3.536662,-0.523819 -5.079996,1.019514 l -12.104099,12.1041 c -1.543334,1.543335 -2.285119,3.817907 -1.019514,5.079995 l 6.665515,6.665517 c 1.265605,1.265604 3.540177,0.523819 5.079995,-1.015999 L 65.564424,47.853355 c 1.53982,-1.53982 2.281604,-3.814391 1.016001,-5.079996"
     fill="#31352e"
     id="path13"
     style="stroke-width:0.899985" />
  <path
     d="M 95.274488,59.946908 83.964906,48.633811 c -2.148012,-2.144497 -6.060839,-0.83319 -8.729155,1.838641 L 54.268906,71.435783 c -2.671832,2.671832 -3.983138,6.584658 -1.838642,8.729155 l 11.313097,11.313097 c 2.144495,2.144497 6.057322,0.83319 8.729153,-1.835126 L 93.439361,68.676063 c 2.671832,-2.671832 3.983139,-6.584659 1.835127,-8.729155"
     fill="#b21a31"
     id="path14"
     style="stroke-width:0.899985" />
  <path
     d="M 95.274488,59.046922 83.964906,47.733826 c -2.148012,-2.144497 -6.060839,-0.83319 -8.729155,1.838641 L 54.268906,70.535798 c -2.671832,2.671831 -3.983139,6.584658 -1.838642,8.729155 L 63.743361,90.57805 c 2.144495,2.144496 6.057322,0.83319 8.729153,-1.835126 L 93.439361,67.776077 c 2.671832,-2.671831 3.983139,-6.584659 1.835127,-8.729155"
     fill="#ff554d"
     id="path15"
     style="stroke-width:0.899985" />
  <path
     d="m 85.905499,63.381617 3.835484,-3.839 v -1.297244 l -3.96556,-3.965561 H 84.60474 l -3.965561,3.965561 v 1.297244 l 3.835485,3.839 z m 0,0"
     fill="#a33a33"
     id="path16"
     style="stroke-width:0.899985" />
  <path
     d="m 85.905499,62.481632 3.835484,-3.839 v -1.297244 l -3.96556,-3.965561 H 84.60474 l -3.965561,3.965561 v 1.297244 l 3.835485,3.839 z m 0,0"
     fill="#31352e"
     id="path17"
     style="stroke-width:0.899985" />
  <path
     d="m 64.305851,84.981266 3.835485,-3.839 v -1.30076 l -3.965562,-3.962045 h -1.170683 l -3.965561,3.962045 v 1.30076 l 3.835485,3.839 z m 0,0"
     fill="#a33a33"
     id="path18"
     style="stroke-width:0.899985" />
  <path
     d="m 64.305851,84.08128 3.835485,-3.839 v -1.300759 l -3.965562,-3.962045 h -1.170683 l -3.965561,3.962045 v 1.300759 l 3.835485,3.839 z m 0,0"
     fill="#31352e"
     id="path19"
     style="stroke-width:0.899985" />
</svg>
