<?xml version="1.0" encoding="UTF-8" standalone="no"?>
<svg
   viewBox="0 0 128 128"
   style="display:inline;enable-background:new"
   version="1.0"
   id="svg11300"
   height="128"
   width="128"
   xml:space="preserve"
   xmlns:xlink="http://www.w3.org/1999/xlink"
   xmlns="http://www.w3.org/2000/svg"
   xmlns:svg="http://www.w3.org/2000/svg"
   xmlns:rdf="http://www.w3.org/1999/02/22-rdf-syntax-ns#"
   xmlns:cc="http://creativecommons.org/ns#"
   xmlns:dc="http://purl.org/dc/elements/1.1/"><title
     id="title4162">Adwaita Icon Template</title><defs
     id="defs3"><linearGradient
       id="linearGradient974"><stop
         style="stop-color:#333333;stop-opacity:1;"
         offset="0"
         id="stop962" /><stop
         id="stop964"
         offset="0.04166667"
         style="stop-color:#999999;stop-opacity:1;" /><stop
         style="stop-color:#333333;stop-opacity:1;"
         offset="0.08333334"
         id="stop966" /><stop
         id="stop968"
         offset="0.91666669"
         style="stop-color:#333333;stop-opacity:1;" /><stop
         style="stop-color:#999999;stop-opacity:1;"
         offset="0.95833331"
         id="stop970" /><stop
         style="stop-color:#333333;stop-opacity:1;"
         offset="1"
         id="stop972" /></linearGradient><linearGradient
       y2="44"
       x2="464"
       y1="44"
       x1="48"
       gradientTransform="matrix(0.25,0,0,0.25,0,53)"
       gradientUnits="userSpaceOnUse"
       id="linearGradient1747"
       xlink:href="#linearGradient974" /><defs
       id="defs2"><clipPath
         id="clipPath4"><rect
           width="1024"
           height="1024"
           fill="#ffffff"
           rx="200"
           id="rect4"
           x="0"
           y="0" /></clipPath></defs><clipPath
       clipPathUnits="userSpaceOnUse"
       id="clipPath5"><rect
         width="113.07845"
         height="113.07845"
         fill="#ffffff"
         rx="22.085636"
         id="rect5"
         x="7.460772"
         y="5.4555311"
         style="stroke-width:0.110428" /></clipPath></defs><metadata
     id="metadata4"><rdf:RDF><cc:Work
         rdf:about=""><dc:format>image/svg+xml</dc:format><dc:type
           rdf:resource="http://purl.org/dc/dcmitype/StillImage" /><dc:creator><cc:Agent><dc:title>GNOME Design Team</dc:title></cc:Agent></dc:creator><dc:source /><cc:license
           rdf:resource="http://creativecommons.org/licenses/by-sa/4.0/" /><dc:title>Adwaita Icon Template</dc:title><dc:subject><rdf:Bag /></dc:subject><dc:date /><dc:rights><cc:Agent><dc:title /></cc:Agent></dc:rights><dc:publisher><cc:Agent><dc:title /></cc:Agent></dc:publisher><dc:identifier /><dc:relation /><dc:language /><dc:coverage /><dc:description /><dc:contributor><cc:Agent><dc:title /></cc:Agent></dc:contributor></cc:Work><cc:License
         rdf:about="http://creativecommons.org/licenses/by-sa/4.0/"><cc:permits
           rdf:resource="http://creativecommons.org/ns#Reproduction" /><cc:permits
           rdf:resource="http://creativecommons.org/ns#Distribution" /><cc:requires
           rdf:resource="http://creativecommons.org/ns#Notice" /><cc:requires
           rdf:resource="http://creativecommons.org/ns#Attribution" /><cc:permits
           rdf:resource="http://creativecommons.org/ns#DerivativeWorks" /><cc:requires
           rdf:resource="http://creativecommons.org/ns#ShareAlike" /></cc:License></rdf:RDF></metadata><rect
     ry="8"
     rx="8"
     y="32"
     x="12"
     height="83.999992"
     width="104"
     id="rect1709"
     style="display:inline;fill:url(#linearGradient1747);fill-opacity:1;stroke:none;stroke-width:0.25;stroke-linecap:butt;stroke-linejoin:miter;stroke-miterlimit:4;stroke-dasharray:none;stroke-dashoffset:0;stroke-opacity:1;marker:none;marker-start:none;marker-mid:none;marker-end:none;paint-order:normal;enable-background:new" /><rect
     style="display:inline;fill:#000000;fill-opacity:1;stroke:none;stroke-width:0.25;stroke-linecap:butt;stroke-linejoin:miter;stroke-miterlimit:4;stroke-dasharray:none;stroke-dashoffset:0;stroke-opacity:1;marker:none;marker-start:none;marker-mid:none;marker-end:none;paint-order:normal;enable-background:new"
     id="rect1711"
     width="104"
     height="100"
     x="12"
     y="12"
     rx="8"
     ry="8" /><path
     d="m 87.519546,80.869033 c -1.905438,5.566795 -5.724045,10.276999 -10.776465,13.292461 -5.05231,3.015462 -11.010794,4.140615 -16.814789,3.175141 -5.804105,-0.965473 -11.077492,-3.95885 -14.881633,-8.447534 -3.80414,-4.488685 -5.892337,-10.181368 -5.893,-16.065313 V 60.649081 l 8.737188,3.649983 v 8.519755 c -7.73e-4,2.294587 0.489639,4.562671 1.438217,6.651862 0.948578,2.089301 2.333458,3.951231 4.061549,5.460784 0.327971,0.285678 0.668421,0.563957 1.019914,0.823684 2.579271,1.920125 5.67623,3.020431 8.888806,3.157915 0.109324,0 0.214893,0.0087 0.323003,0.01115 0.108109,0.0025 0.248463,0 0.372695,0 h 0.372695 c 0.124232,0 0.213678,0 0.323002,-0.01115 3.211362,-0.137815 6.307216,-1.237127 8.886266,-3.155486 0.350389,-0.259616 0.690729,-0.536681 1.020025,-0.822358 2.269962,-1.985499 3.937428,-4.567972 4.812681,-7.453903 z M 88.84634,51.172797 v 21.651102 c 0,0.279493 0,0.560312 -0.01745,0.839806 l -8.719741,-3.646228 v -18.84468 c -0.0014,-4.161375 -1.613024,-8.160753 -4.497187,-11.160534 -2.884274,-2.999671 -6.817284,-4.766964 -10.975347,-4.931723 -4.158173,-0.164758 -8.218727,1.285826 -11.331146,4.047966 -3.112528,2.76214 -5.035525,6.621495 -5.366147,10.769619 -0.03103,0.419958 -0.04848,0.846101 -0.04848,1.274672 v 5.379178 L 39.153659,52.899563 V 26.326457 H 64 c 6.589691,0 12.909385,2.6177 17.569013,7.277327 4.659627,4.659628 7.277327,10.979322 7.277327,17.569013 z"
     id="path1-7"
     style="fill:#ffffff;stroke-width:0.110428"
     clip-path="url(#clipPath5)" /></svg>
