<?xml version="1.0" encoding="UTF-8" standalone="no"?>
<svg
   height="128px"
   viewBox="0 0 128 128"
   width="128px"
   version="1.1"
   id="svg286"
   xmlns="http://www.w3.org/2000/svg"
   xmlns:svg="http://www.w3.org/2000/svg">
  <defs
     id="defs290" />
  <linearGradient
     id="a"
     gradientUnits="userSpaceOnUse"
     x1="11.999989"
     x2="115.999989"
     y1="64"
     y2="64">
    <stop
       offset="0"
       stop-color="#3d3846"
       id="stop252" />
    <stop
       offset="0.05"
       stop-color="#77767b"
       id="stop254" />
    <stop
       offset="0.1"
       stop-color="#5e5c64"
       id="stop256" />
    <stop
       offset="0.899999"
       stop-color="#504e56"
       id="stop258" />
    <stop
       offset="0.95"
       stop-color="#77767b"
       id="stop260" />
    <stop
       offset="1"
       stop-color="#3d3846"
       id="stop262" />
  </linearGradient>
  <linearGradient
     id="b"
     gradientUnits="userSpaceOnUse"
     x1="12"
     x2="112.041023"
     y1="60"
     y2="80.988281">
    <stop
       offset="0"
       stop-color="#77767b"
       id="stop265" />
    <stop
       offset="0.384443"
       stop-color="#9a9996"
       id="stop267" />
    <stop
       offset="0.720567"
       stop-color="#77767b"
       id="stop269" />
    <stop
       offset="1"
       stop-color="#68666f"
       id="stop271" />
  </linearGradient>
  <path
     d="m 20 22 h 88 c 4.417969 0 8 3.582031 8 8 v 78 c 0 4.417969 -3.582031 8 -8 8 h -88 c -4.417969 0 -8 -3.582031 -8 -8 v -78 c 0 -4.417969 3.582031 -8 8 -8 z m 0 0"
     fill="url(#a)"
     id="path274" />
  <path
     d="m 20 12 h 88 c 4.417969 0 8 3.582031 8 8 v 80 c 0 4.417969 -3.582031 8 -8 8 h -88 c -4.417969 0 -8 -3.582031 -8 -8 v -80 c 0 -4.417969 3.582031 -8 8 -8 z m 0 0"
     fill="url(#b)"
     id="path276" />
  <path
     d="m 20 14 h 88 c 3.3125 0 6 2.6875 6 6 v 80 c 0 3.3125 -2.6875 6 -6 6 h -88 c -3.3125 0 -6 -2.6875 -6 -6 v -80 c 0 -3.3125 2.6875 -6 6 -6 z m 0 0"
     fill="#241f31"
     id="path278" />
  <g
     id="path2552"
     style="stroke-width:0.9625;fill:#77767b;fill-opacity:1"
     transform="matrix(1.038961,0,0,1.038961,-0.41558131,-1.267246)">
    <path
       style="color:#000000;fill:#77767b;stroke-width:0.9625;stroke-linecap:round;stroke-linejoin:round;-inkscape-stroke:none;fill-opacity:1"
       d="m 57.055134,41.140818 a 0.64318063,0.64318063 0 0 0 -0.64318,0.64318 0.64318063,0.64318063 0 0 0 0.64318,0.643181 h 7.048188 v 33.726785 a 0.64318063,0.64318063 0 0 0 0.643181,0.64318 0.64318063,0.64318063 0 0 0 0.64318,-0.64318 V 42.427179 h 8.327014 v 33.726785 a 0.64324495,0.64324495 0 0 0 0.643181,0.64318 H 85.89693 a 0.64324495,0.64324495 0 0 0 0.643181,-0.64318 V 57.464039 h 12.816714 a 0.64324495,0.64324495 0 0 0 0.643185,-0.643181 v -15.03686 a 0.64324495,0.64324495 0 0 0 -0.643185,-0.64318 H 85.89693 74.359878 64.746503 Z m 17.947924,1.286361 H 85.25375 V 56.820858 75.510783 H 75.003058 Z m 11.537053,0 H 98.713644 V 56.177678 H 86.540111 Z"
       id="path1" />
    <path
       style="color:#000000;fill:#77767b;stroke-width:0.9625;stroke-linecap:round;stroke-linejoin:round;-inkscape-stroke:none;fill-opacity:1"
       d="m 57.054687,40.640625 c -0.625437,10e-7 -1.142577,0.517141 -1.142578,1.142578 0,0.625438 0.51714,1.144531 1.142578,1.144531 h 6.548829 v 33.226563 c 0,0.625438 0.51714,1.142578 1.142578,1.142578 0.625437,-10e-7 1.14453,-0.517141 1.144531,-1.142578 V 42.927734 h 7.326172 v 33.226563 c 6.3e-5,0.625388 0.51719,1.142516 1.142578,1.142578 h 11.537109 c 0.625388,-6.2e-5 1.144468,-0.51719 1.144532,-1.142578 V 57.964844 h 12.316406 c 0.625391,-5.9e-5 1.142518,-0.51914 1.142578,-1.144532 V 41.783203 c -6e-5,-0.625391 -0.517187,-1.14252 -1.142578,-1.142578 H 85.896484 74.359375 64.746094 Z m 0,1 h 7.691407 9.613281 11.537109 13.460938 c 0.08502,8e-6 0.142569,0.05756 0.142578,0.142578 v 15.037109 c -8e-6,0.08502 -0.05756,0.144524 -0.142578,0.144532 H 86.541016 a 0.50005,0.50005 0 0 0 -0.5,0.5 v 18.689453 c -9e-6,0.08502 -0.05951,0.14257 -0.144532,0.142578 H 74.359375 c -0.08502,-8e-6 -0.14257,-0.05756 -0.142578,-0.142578 V 42.427734 a 0.50005,0.50005 0 0 0 -0.5,-0.5 h -8.326172 a 0.50005,0.50005 0 0 0 -0.5,0.5 v 33.726563 c 0,0.085 -0.05953,0.142578 -0.144531,0.142578 -0.085,0 -0.142578,-0.05758 -0.142578,-0.142578 V 42.427734 a 0.50005,0.50005 0 0 0 -0.5,-0.5 h -7.048829 c -0.085,0 -0.142578,-0.05953 -0.142578,-0.144531 0,-0.085 0.05758,-0.142578 0.142578,-0.142578 z m 17.949219,0.287109 a 0.50005,0.50005 0 0 0 -0.5,0.5 v 33.083985 a 0.50005,0.50005 0 0 0 0.5,0.5 h 10.25 a 0.50005,0.50005 0 0 0 0.5,-0.5 V 56.820312 42.427734 a 0.50005,0.50005 0 0 0 -0.5,-0.5 z m 11.53711,0 a 0.50005,0.50005 0 0 0 -0.5,0.5 v 13.75 a 0.50005,0.50005 0 0 0 0.5,0.5 h 12.171875 a 0.50005,0.50005 0 0 0 0.5,-0.5 v -13.75 a 0.50005,0.50005 0 0 0 -0.5,-0.5 z m -11.03711,1 h 9.25 v 13.892578 18.191407 h -9.25 z m 11.53711,0 h 11.171875 v 12.75 H 87.041016 Z"
       id="path2" />
  </g>
  <g
     id="rect1102"
     style="stroke-width:0.9625;fill:#77767b;fill-opacity:1"
     transform="matrix(1.038961,0,0,1.038961,-0.41558131,-1.267246)">
    <path
       style="color:#000000;fill:#77767b;stroke-width:0.9625;stroke-linecap:round;stroke-linejoin:round;-inkscape-stroke:none;fill-opacity:1"
       d="m 24.285587,39.387983 a 0.28588594,0.28588594 0 0 0 -0.285581,0.285579 V 78.2644 a 0.28588594,0.28588594 0 0 0 0.285581,0.286416 H 56.444619 A 0.28588594,0.28588594 0 0 0 56.731031,78.2644 V 39.673562 A 0.28588594,0.28588594 0 0 0 56.444619,39.387983 Z M 24.572,39.959978 H 56.159038 V 77.978821 H 24.572 Z"
       id="path3" />
    <path
       style="color:#000000;fill:#77767b;stroke-width:0.9625;stroke-linecap:round;stroke-linejoin:round;-inkscape-stroke:none;fill-opacity:1"
       d="M 24.285156,38.888672 C 23.857663,38.889128 23.500459,39.246335 23.5,39.673828 v 38.589844 c -7.94e-4,0.428337 0.356819,0.786653 0.785156,0.787109 h 32.160156 c 0.428469,-1.01e-4 0.785952,-0.358466 0.785157,-0.787109 V 39.673828 c -4.59e-4,-0.427799 -0.357532,-0.785054 -0.785157,-0.785156 z m 0.78711,1.572265 H 55.658203 V 77.478516 H 25.072266 Z"
       id="path4" />
  </g>
  <g
     id="path5382"
     style="stroke-width:0.9625"
     transform="matrix(1.038961,0,0,1.038961,-0.41558131,-1.267246)">
    <path
       style="color:#000000;fill:#a347ba;stroke-width:0.9625;stroke-linecap:round;stroke-linejoin:bevel;-inkscape-stroke:none"
       d="m 26.429522,41.258064 a 0.53598386,0.53598386 0 0 0 -0.114734,0.04774 0.53598386,0.53598386 0 0 0 -0.04439,-0.02345 0.53598386,0.53598386 0 0 0 -0.02847,0.0536 0.53598386,0.53598386 0 0 0 -0.348389,0.458098 v 34.349866 a 0.53598386,0.53598386 0 0 0 0.535983,0.535984 0.53598386,0.53598386 0 0 0 0.535984,-0.535984 V 45.311442 l 9.671996,30.99243 a 0.53598386,0.53598386 0 0 0 0.0536,0.02848 0.53598386,0.53598386 0 0 0 0.458099,0.347552 0.53598386,0.53598386 0 0 0 0.115571,-0.04774 0.53598386,0.53598386 0 0 0 0.04438,0.02345 0.53598386,0.53598386 0 0 0 0.205184,-0.126459 0.53598386,0.53598386 0 0 0 0.02427,-0.03015 0.53598386,0.53598386 0 0 0 0.140694,-0.341689 0.53598386,0.53598386 0 0 0 0.0059,-0.0134 V 46.150592 l 7.519686,30.099681 a 0.53598386,0.53598386 0 0 0 0.04271,0.02596 0.53598386,0.53598386 0 0 0 0.347553,0.364302 0.53598386,0.53598386 0 0 0 0.208532,-0.03099 0.53598386,0.53598386 0 0 0 0.05109,0.03099 0.53598386,0.53598386 0 0 0 0.09547,-0.05276 0.53598386,0.53598386 0 0 0 0.07705,-0.04271 0.53598386,0.53598386 0 0 0 0.213557,-0.288929 0.53598386,0.53598386 0 0 0 0.0043,-0.005 L 54.82089,41.948169 a 0.53598386,0.53598386 0 0 0 -0.389429,-0.650718 0.53598386,0.53598386 0 0 0 -0.650714,0.390263 L 45.724941,73.909531 37.669271,41.66424 a 0.53598386,0.53598386 0 0 0 -0.01089,-0.0067 0.53598386,0.53598386 0 0 0 -0.509185,-0.399476 0.53598386,0.53598386 0 0 0 -0.09212,0.03852 0.53598386,0.53598386 0 0 0 -0.03769,-0.02261 0.53598386,0.53598386 0 0 0 -0.116407,0.08626 0.53598386,0.53598386 0 0 0 -0.158283,0.118084 0.53598386,0.53598386 0 0 0 -0.07621,0.181732 0.53598386,0.53598386 0 0 0 -0.05527,0.133996 V 72.627357 L 26.94122,41.634928 a 0.53598386,0.53598386 0 0 0 -0.0075,-0.0042 0.53598386,0.53598386 0 0 0 -0.504159,-0.372677 z"
       id="path8" />
    <path
       style="color:#000000;fill:#a347ba;stroke-width:0.9625;stroke-linecap:round;stroke-linejoin:bevel;-inkscape-stroke:none"
       d="m 26.435547,40.757812 -0.152344,0.02344 c -0.07364,0.02184 -0.145858,0.05035 -0.212891,0.08789 l 0.273438,0.0039 -0.363281,0.109375 c -0.299955,0.165683 -0.556863,0.421947 -0.585938,0.769531 l -0.002,0.04297 v 34.349609 c 0,0.566235 0.470875,1.035156 1.037109,1.035156 0.566236,10e-7 1.035157,-0.46892 1.035157,-1.035156 V 48.589844 l 8.695312,27.863281 0.21875,0.277344 c 0.03347,0.02029 0.06797,0.04026 0.103516,0.05664 l -0.259766,-0.28125 c 0.139479,0.375587 0.485491,0.638719 0.884766,0.671875 l 0.177734,-0.01563 c 0.03213,-0.0091 0.06074,-0.02697 0.0918,-0.03906 l 0.0918,0.0059 c 0.149028,-0.05031 0.284567,-0.133621 0.396484,-0.24414 l 0.02734,-0.02734 c 0.01633,-0.01885 0.03195,-0.03861 0.04687,-0.05859 l -0.0332,0.03906 c 0.165574,-0.180413 0.263533,-0.415521 0.273437,-0.660157 l 0.0059,-0.0332 V 50.21875 l 6.535156,26.152344 0.205078,0.292968 c 0.02672,0.018 0.05375,0.03535 0.08203,0.05078 l -0.242187,-0.304688 c 0.09273,0.33128 0.345323,0.59687 0.671875,0.705078 l 0.132812,0.02539 c 0.107693,0.0054 0.21256,-0.01917 0.316407,-0.04687 l 0.164062,0.0059 c 0.03668,-0.01564 0.07087,-0.03691 0.105469,-0.05664 l 0.08008,-0.04492 c 0.0227,-0.01279 0.04667,-0.02264 0.06836,-0.03711 l 0.002,-0.002 c 0.19209,-0.129313 0.328942,-0.321143 0.40039,-0.541015 l 0.02344,-0.04492 8.576172,-34.302735 c 0.138295,-0.549455 -0.204324,-1.120025 -0.753907,-1.257812 -0.549929,-0.13819 -1.120749,0.203695 -1.257812,0.753906 l -7.56836,30.28125 -7.572265,-30.304687 -0.21875,-0.300782 c -0.007,-0.0044 -0.01246,-0.0094 -0.01953,-0.01367 l 0.226562,0.300781 c -0.09924,-0.377041 -0.461813,-0.566018 -0.832031,-0.650391 h 0.02148 c -0.02367,-0.01556 -0.0474,-0.0294 -0.07227,-0.04297 -5.51e-4,-8.5e-5 -0.0014,8.5e-5 -0.002,0 -0.04533,-0.007 -0.05288,-0.07733 -0.09961,-0.07813 L 37,40.78125 c -0.04531,0.01416 -0.08795,0.03448 -0.130859,0.05469 h -0.08984 c -0.0822,0.04514 -0.157502,0.100513 -0.22461,0.166016 l 0.128907,-0.08984 c -0.115232,0.05647 -0.219681,0.132194 -0.306641,0.226563 l -0.05078,0.06445 c -0.07039,0.106973 -0.119516,0.226382 -0.146485,0.351562 l 0.05664,-0.146484 c -0.04717,0.0811 -0.0837,0.168996 -0.107422,0.259766 l -0.01563,0.126953 v 27.554687 l -8.695312,-27.863281 -0.0078,-0.0078 c -0.135291,-0.42303 -0.530503,-0.71544 -0.974609,-0.720704 z m 0.974609,0.720704 -0.220703,-0.277344 c -0.0048,-0.0027 -0.01077,-0.0051 -0.01563,-0.0078 z m -1.484375,-0.480469 -0.08203,0.02539 c -0.02029,0.03347 -0.04027,0.06797 -0.05664,0.103516 z m 11.302735,0.736328 0.04883,0.0039 -0.06641,0.0098 z m -10.744141,0.0078 h 0.04297 l -0.05273,0.0078 z m -0.03711,0.0332 c 0.0026,0.0035 0.0082,0.0029 0.0098,0.0078 l 0.01172,0.01563 9.667969,30.976563 0.976562,-0.148438 V 41.880859 l 0.03516,-0.08984 0.01758,-0.01367 c 0.0023,0.0036 0.0084,0.0028 0.0098,0.0078 l 0.01172,0.01563 8.052734,32.230469 h 0.970703 l 8.054688,-32.222656 c 0.0063,-0.0251 0.01984,-0.03169 0.04492,-0.02539 0.02505,0.0063 0.03169,0.01792 0.02539,0.04297 l -8.570312,34.277344 -0.0039,0.0078 c -0.0022,0.0071 -0.006,0.01303 -0.01172,0.01758 -3.79e-4,2.53e-4 -0.0016,-2.38e-4 -0.002,0 -4.48e-4,3.32e-4 4.66e-4,0.0016 0,0.002 -0.0011,6.09e-4 -0.0028,0.0015 -0.0039,0.002 l -0.01563,0.0078 -0.05273,-0.06641 -7.505859,-30.044922 -0.984375,0.121094 v 29.96289 l -0.0059,0.02539 c -3.34e-4,0.0086 -0.0039,0.01512 -0.0098,0.02148 l -0.002,0.0039 c -0.002,-0.0028 -0.0065,-0.0023 -0.0078,-0.0059 l -0.06641,-0.07031 -9.650391,-30.925782 -0.978515,0.148438 v 30.833984 c 0,0.0258 -0.0094,0.03516 -0.03516,0.03516 -0.0258,0 -0.03711,-0.0094 -0.03711,-0.03516 V 41.835937 c 0.0013,-0.0151 0.0092,-0.026 0.02344,-0.03125 z m 10.728515,34.408203 0.302735,0.01758 -0.337891,-0.0039 h -0.002 l -0.08984,-0.002 0.09961,-0.0098 -0.0078,0.01172 0.0098,-0.01172 z m 1.001953,0.002 -0.04297,0.179687 c 0.0039,-0.0086 0.008,-0.01671 0.01172,-0.02539 z m 8.498047,0.292969 -0.05859,0.105468 c 0.0028,-0.0032 0.007,-0.0065 0.0098,-0.0098 z"
       id="path7" />
  </g>
</svg>
