<?xml version="1.0" encoding="UTF-8" standalone="no"?>
<svg
   viewBox="0 0 128 128"
   style="display:inline;enable-background:new"
   version="1.0"
   id="svg11300"
   height="128"
   width="128"
   xml:space="preserve"
   xmlns:xlink="http://www.w3.org/1999/xlink"
   xmlns="http://www.w3.org/2000/svg"
   xmlns:svg="http://www.w3.org/2000/svg"
   xmlns:rdf="http://www.w3.org/1999/02/22-rdf-syntax-ns#"
   xmlns:cc="http://creativecommons.org/ns#"
   xmlns:dc="http://purl.org/dc/elements/1.1/"><title
     id="title4162">Adwaita Icon Template</title><defs
     id="defs3"><linearGradient
       id="linearGradient8037"><stop
         style="stop-color:#000000;stop-opacity:1;"
         offset="0"
         id="stop8037" /><stop
         style="stop-color:#ffffff;stop-opacity:1;"
         offset="0.21057852"
         id="stop8039" /><stop
         style="stop-color:#000000;stop-opacity:1;"
         offset="0.40597621"
         id="stop8040" /><stop
         style="stop-color:#e5e5e5;stop-opacity:1;"
         offset="1"
         id="stop8038" /></linearGradient><linearGradient
       id="linearGradient8016"><stop
         style="stop-color:#0a00ff;stop-opacity:1;"
         offset="0"
         id="stop8016" /><stop
         style="stop-color:#00fffe;stop-opacity:1;"
         offset="1"
         id="stop8017" /></linearGradient><linearGradient
       id="linearGradient8014"><stop
         style="stop-color:#00fffe;stop-opacity:1;"
         offset="0"
         id="stop8014" /><stop
         style="stop-color:#37ff00;stop-opacity:1;"
         offset="1"
         id="stop8015" /></linearGradient><linearGradient
       id="linearGradient8012"><stop
         style="stop-color:#37ff00;stop-opacity:1;"
         offset="0"
         id="stop8012" /><stop
         style="stop-color:#fff800;stop-opacity:1;"
         offset="0.74915588"
         id="stop8018" /><stop
         style="stop-color:#fff800;stop-opacity:1;"
         offset="1"
         id="stop8013" /></linearGradient><linearGradient
       id="linearGradient8010"><stop
         style="stop-color:#fff800;stop-opacity:1;"
         offset="0"
         id="stop8010" /><stop
         style="stop-color:#ff0005;stop-opacity:1;"
         offset="1"
         id="stop8011" /></linearGradient><linearGradient
       id="linearGradient8008"><stop
         style="stop-color:#ff0005;stop-opacity:1;"
         offset="0"
         id="stop8008" /><stop
         style="stop-color:#e600ff;stop-opacity:1;"
         offset="1"
         id="stop8009" /></linearGradient><linearGradient
       id="linearGradient7829"><stop
         style="stop-color:#1a1a1a;stop-opacity:1;"
         offset="0"
         id="stop7818" /><stop
         style="stop-color:#4d4d4d;stop-opacity:1;"
         offset="0"
         id="stop7819" /><stop
         style="stop-color:#1a1a1a;stop-opacity:1;"
         offset="0.08230937"
         id="stop7820" /><stop
         style="stop-color:#1a1a1a;stop-opacity:1;"
         offset="0.15348782"
         id="stop7821" /><stop
         style="stop-color:#4d4d4d;stop-opacity:1;"
         offset="0.33814347"
         id="stop7822" /><stop
         style="stop-color:#1a1a1a;stop-opacity:1;"
         offset="0.54131901"
         id="stop7823" /><stop
         style="stop-color:#1a1a1a;stop-opacity:1;"
         offset="0.63013881"
         id="stop7824" /><stop
         style="stop-color:#4d4d4d;stop-opacity:1;"
         offset="0.75398844"
         id="stop7825" /><stop
         style="stop-color:#1a1a1a;stop-opacity:1;"
         offset="0.78036511"
         id="stop7826" /><stop
         style="stop-color:#1a1a1a;stop-opacity:1;"
         offset="0.92984551"
         id="stop7827" /><stop
         style="stop-color:#4d4d4d;stop-opacity:1;"
         offset="1"
         id="stop7828" /><stop
         style="stop-color:#1a1a1a;stop-opacity:1;"
         offset="1"
         id="stop7829" /></linearGradient><linearGradient
       xlink:href="#linearGradient7829"
       id="linearGradient7721"
       x1="-92.413147"
       y1="100.33725"
       x2="-63.00716"
       y2="100.33725"
       gradientUnits="userSpaceOnUse"
       gradientTransform="translate(141.70988)" /><linearGradient
       xlink:href="#linearGradient8008"
       id="linearGradient8009"
       x1="183.05692"
       y1="57.300236"
       x2="196.79843"
       y2="70.043533"
       gradientUnits="userSpaceOnUse" /><linearGradient
       xlink:href="#linearGradient8010"
       id="linearGradient8011"
       x1="195.23128"
       y1="37.584656"
       x2="187.12279"
       y2="47.621712"
       gradientUnits="userSpaceOnUse" /><linearGradient
       xlink:href="#linearGradient8012"
       id="linearGradient8013"
       x1="202.28001"
       y1="26.957338"
       x2="191.10541"
       y2="31.796114"
       gradientUnits="userSpaceOnUse" /><linearGradient
       xlink:href="#linearGradient8014"
       id="linearGradient8015"
       x1="219.41783"
       y1="50.980469"
       x2="211.25957"
       y2="31.559273"
       gradientUnits="userSpaceOnUse" /><linearGradient
       xlink:href="#linearGradient8016"
       id="linearGradient8017"
       x1="215.57693"
       y1="71.332596"
       x2="216.76367"
       y2="51.154297"
       gradientUnits="userSpaceOnUse" /><linearGradient
       xlink:href="#linearGradient8008"
       id="linearGradient8022"
       gradientUnits="userSpaceOnUse"
       x1="183.05692"
       y1="57.300236"
       x2="196.79843"
       y2="70.043533"
       gradientTransform="translate(-140.00011,4)" /><linearGradient
       xlink:href="#linearGradient8010"
       id="linearGradient8023"
       gradientUnits="userSpaceOnUse"
       x1="195.23128"
       y1="37.584656"
       x2="187.12279"
       y2="47.621712"
       gradientTransform="translate(-140.00011,4)" /><linearGradient
       xlink:href="#linearGradient8012"
       id="linearGradient8024"
       gradientUnits="userSpaceOnUse"
       x1="202.28001"
       y1="26.957338"
       x2="191.10541"
       y2="31.796114"
       gradientTransform="translate(-140.00011,4)" /><linearGradient
       xlink:href="#linearGradient8014"
       id="linearGradient8025"
       gradientUnits="userSpaceOnUse"
       x1="219.41783"
       y1="50.980469"
       x2="211.25957"
       y2="31.559273"
       gradientTransform="translate(-140.00011,4)" /><linearGradient
       xlink:href="#linearGradient8016"
       id="linearGradient8026"
       gradientUnits="userSpaceOnUse"
       x1="215.57693"
       y1="71.332596"
       x2="216.76367"
       y2="51.154297"
       gradientTransform="translate(-140.00011,4)" /><linearGradient
       xlink:href="#linearGradient8037"
       id="linearGradient8038"
       x1="25.05859"
       y1="53.717773"
       x2="102.94142"
       y2="53.717773"
       gradientUnits="userSpaceOnUse" /></defs><metadata
     id="metadata4"><rdf:RDF><cc:Work
         rdf:about=""><dc:format>image/svg+xml</dc:format><dc:type
           rdf:resource="http://purl.org/dc/dcmitype/StillImage" /><dc:creator><cc:Agent><dc:title>GNOME Design Team</dc:title></cc:Agent></dc:creator><dc:source /><cc:license
           rdf:resource="http://creativecommons.org/licenses/by-sa/4.0/" /><dc:title>Adwaita Icon Template</dc:title><dc:subject><rdf:Bag /></dc:subject><dc:date /><dc:rights><cc:Agent><dc:title /></cc:Agent></dc:rights><dc:publisher><cc:Agent><dc:title /></cc:Agent></dc:publisher><dc:identifier /><dc:relation /><dc:language /><dc:coverage /><dc:description /><dc:contributor><cc:Agent><dc:title /></cc:Agent></dc:contributor></cc:Work><cc:License
         rdf:about="http://creativecommons.org/licenses/by-sa/4.0/"><cc:permits
           rdf:resource="http://creativecommons.org/ns#Reproduction" /><cc:permits
           rdf:resource="http://creativecommons.org/ns#Distribution" /><cc:requires
           rdf:resource="http://creativecommons.org/ns#Notice" /><cc:requires
           rdf:resource="http://creativecommons.org/ns#Attribution" /><cc:permits
           rdf:resource="http://creativecommons.org/ns#DerivativeWorks" /><cc:requires
           rdf:resource="http://creativecommons.org/ns#ShareAlike" /></cc:License></rdf:RDF></metadata><path
     id="path8018"
     style="fill:url(#linearGradient8022);fill-opacity:1;stroke-width:0.834517"
     d="M 51.24403,54.980469 H 25.05848 c 0.0603,16.263199 10.22205,30.778264 25.48633,36.398437 l 8.79297,-24.375 0,-4 c 0,0 -8.090412,-2.8776 -8.10351,-7.849609 0,-0.05872 0.009,-0.115298 0.01,-0.173828 z" /><path
     id="path8019"
     style="fill:url(#linearGradient8023);fill-opacity:1;stroke-width:0.834517"
     d="m 45.00952,20.898234 c -11.91146,6.660038 -19.95109,19.42639 -19.95104,34.043172 4e-5,0.01306 -4e-5,0.03773 0,0.05078 h 26.18555 c 0.0665,-4.891063 2.88205,-9.127064 6.9707,-11.21289 z" /><path
     id="path8020"
     style="fill:url(#linearGradient8024);fill-opacity:1;stroke-width:0.834517"
     d="m 44.94263,20.935547 13.1988,22.881445 c 1.73665,-0.885951 3.77429,-1.426468 5.85846,-1.426367 0.004,0 0.008,-4e-6 0.0117,0 V 16 h -0.0117 c -6.88999,-2.3e-5 -13.44248,1.796168 -19.05726,4.935547 z" /><path
     id="path8021"
     style="fill:url(#linearGradient8025);fill-opacity:1;stroke-width:0.834517"
     d="m 63.86073,16 v 26.390625 c 6.98484,0.0071 12.79845,5.625944 12.89307,12.589844 h 26.1875 c 4e-5,-0.01305 -4e-5,-0.02601 0,-0.03906 C 102.94138,33.438555 85.36209,16.006289 63.86073,16 Z" /><path
     id="path8022"
     style="fill:url(#linearGradient8026);fill-opacity:1;stroke-width:0.834517"
     d="M 102.9413,54.917969 H 76.7538 c 7.9e-4,0.05849 0,0.115149 0,0.173828 -9.55e-4,4.986067 -8.02711,7.916015 -8.02711,7.916015 v 4 l 8.57422,24.427735 c 15.34448,-5.576295 25.58021,-20.194154 25.64063,-36.517578 z" /><path
     id="path8026"
     style="opacity:0.4;fill:url(#linearGradient8038);fill-opacity:1;stroke-width:0.834517"
     d="m 63.861328,16 v 0.002 c -6.811932,0.02389 -13.289407,1.801087 -18.851562,4.896485 -0.01044,0.0058 -0.02082,0.01173 -0.03125,0.01758 -0.0117,0.0065 -0.02346,0.01299 -0.03516,0.01953 v 0.002 c -11.874464,6.670435 -19.884815,19.414646 -19.884765,34.003906 3.1e-5,0.01005 2e-6,0.02585 0,0.03906 -1e-6,0.004 -9e-6,0.0087 0,0.01172 0.06515,16.258439 10.225725,30.767899 25.486328,36.386718 l 8.792969,-24.375 -1.11e-4,-4 c 0,0 -8.089896,-2.721656 -8.103405,-7.849609 0,-0.05477 0.0079,-0.10774 0.0098,-0.162109 1.34e-4,-0.0039 -6.8e-5,-0.0078 0,-0.01172 0.07072,-4.875819 2.873857,-9.098741 6.945312,-11.1875 1.708684,-0.862682 3.704868,-1.389878 5.748047,-1.400391 6.950675,0.04794 12.722133,5.649477 12.816406,12.587891 -2.5e-5,0.03693 0,0.07375 0,0.111328 -9.48e-4,4.949733 -8.027216,7.916015 -8.027216,7.916015 l -1.28e-4,4 8.574219,24.427735 C 92.62561,85.866393 102.85309,71.278613 102.93945,54.980469 h 0.002 c 4e-5,-0.01305 -4e-5,-0.02601 0,-0.03906 8e-5,-21.452423 -17.497187,-38.849752 -38.929691,-38.9375 V 16 H 64 c -0.0281,0 -0.05589,0.0019 -0.08398,0.002 -0.01834,-3.1e-5 -0.03635,-0.0019 -0.05469,-0.002 z" /><path
     id="path7719"
     style="fill:url(#linearGradient7721);stroke-width:0.934021"
     d="m 63.99986,84.6742 c -6.495567,-1e-5 -12.757599,-1.627005 -14.70319,-0.06255 0,0 6e-5,3.564944 6e-5,4.00005 0.01,0.704253 0.01,3.295747 0,4 0.01,0.704253 0.01,3.295747 0,4 0.01,0.704253 0.01,3.295747 0,4 0.01,0.70425 0.01,3.29575 0,4 0,0 0.01079,-3.90591 0,4 0.0108,1.38085 2.72178,2.65929 7.14453,3.36915 -0.004,0.0273 -0.007,0.0546 -0.01,0.082 0,2.17465 3.38412,3.93754 7.5586,3.9375 4.17372,-5.2e-4 7.55665,-1.76325 7.55665,-3.9375 -1.5e-4,-0.0267 -8.1e-4,-0.0534 -0.002,-0.0801 4.43023,-0.70932 7.14712,-1.98881 7.15821,-3.3711 -5.9e-4,-0.35877 0,-4 0,-4 -0.001,-0.70585 -0.009,-3.29812 0,-4 -0.001,-0.70585 -0.009,-3.298122 0,-4 -0.001,-0.70585 -0.009,-3.298122 0,-4 -0.001,-0.70585 -0.009,-3.298122 0,-4 v -4 c -1.260151,-1.831819 -7.498386,0.06249 -14.70312,0.0625 z" /><path
     id="path53"
     style="fill:#333333;stroke-width:0.934021"
     d="m 63.99986,80.6742 c -8.120301,-1.2e-5 -14.70313,1.76287 -14.70313,3.9375 0.0098,0.704253 0.724746,1.394912 2.07031,2 -1.345564,0.605088 -2.060504,1.295747 -2.07031,2 0.0098,0.704253 0.724746,1.394912 2.07031,2 -1.345564,0.605088 -2.060504,1.295747 -2.07031,2 0.0098,0.704253 0.724746,1.394912 2.07031,2 -1.345564,0.605088 -2.060504,1.295747 -2.07031,2 0.0098,0.704253 0.724746,1.394912 2.07031,2 -1.345564,0.605088 -2.060504,1.295747 -2.07031,2 0.0098,0.70425 0.724746,1.39491 2.07031,2 -1.345564,0.60509 -2.060504,1.29575 -2.07031,2 0.01076,1.38085 2.721776,2.65929 7.14453,3.36915 -0.0039,0.0273 -0.0072,0.0546 -0.01,0.082 0,2.17465 3.384121,3.93754 7.5586,3.9375 4.173717,-5.2e-4 7.55665,-1.76325 7.55665,-3.9375 -1.45e-4,-0.0267 -8.12e-4,-0.0534 -0.002,-0.0801 4.430226,-0.70932 7.147117,-1.98881 7.15821,-3.3711 -0.0012,-0.70585 -0.710826,-1.39864 -2.05469,-2.00585 1.336335,-0.60379 2.045715,-1.29227 2.05469,-1.99415 -0.0012,-0.70585 -0.710826,-1.398639 -2.05469,-2.00585 1.336335,-0.603793 2.045715,-1.292272 2.05469,-1.99415 -0.0012,-0.70585 -0.710826,-1.398639 -2.05469,-2.00585 1.336335,-0.603793 2.045715,-1.292272 2.05469,-1.99415 -0.0012,-0.70585 -0.710826,-1.398639 -2.05469,-2.00585 1.336335,-0.603793 2.045715,-1.292272 2.05469,-1.99415 -0.0012,-0.70585 -0.710826,-1.398639 -2.05469,-2.00585 1.336335,-0.603793 2.045715,-1.292272 2.05469,-1.99415 0,-2.174629 -6.582823,-3.937511 -14.70312,-3.9375 z" /><g
     id="g8017"
     transform="translate(-140.00011)"><path
       id="path7830"
       style="fill:url(#linearGradient8009);fill-opacity:1;stroke-width:0.834517"
       d="m 191.24414,50.980469 h -26.18555 c 0.0603,16.263199 10.22205,30.778264 25.48633,36.398437 l 8.79297,-24.375 c -4.87675,-1.912946 -8.08971,-6.611176 -8.10351,-11.849609 0,-0.05872 0.009,-0.115298 0.01,-0.173828 z" /><path
       id="path8006"
       style="fill:url(#linearGradient8011);fill-opacity:1;stroke-width:0.834517"
       d="m 185.00963,16.898234 c -11.91146,6.660038 -19.95109,19.42639 -19.95104,34.043172 4e-5,0.01306 -4e-5,0.03773 0,0.05078 h 26.18555 c 0.0665,-4.891063 2.88205,-9.127064 6.9707,-11.21289 z" /><path
       id="path8008"
       style="fill:url(#linearGradient8013);fill-opacity:1;stroke-width:0.834517"
       d="m 184.94274,16.935547 13.1988,22.881445 c 1.73665,-0.885951 3.77429,-1.426468 5.85846,-1.426367 0.004,0 0.008,-4e-6 0.0117,0 V 12 H 204 c -6.88999,-2.3e-5 -13.44248,1.796168 -19.05726,4.935547 z" /><path
       id="path8007"
       style="fill:url(#linearGradient8015);fill-opacity:1;stroke-width:0.834517"
       d="m 203.86084,12 v 26.390625 c 6.98484,0.0071 12.79845,5.625944 12.89307,12.589844 h 26.1875 c 4e-5,-0.01305 -4e-5,-0.02601 0,-0.03906 C 242.94149,29.438555 225.3622,12.006289 203.86084,12 Z" /><path
       id="path8003"
       style="fill:url(#linearGradient8017);fill-opacity:1;stroke-width:0.834517"
       d="m 242.94141,50.917969 h -26.1875 c 7.9e-4,0.05849 0,0.115149 0,0.173828 -10e-4,5.223394 -3.17514,9.98138 -8.02711,11.916015 l 8.57422,24.427735 c 15.34448,-5.576295 25.58021,-20.194154 25.64063,-36.517578 z" /></g></svg>
