<?xml version="1.0" encoding="UTF-8"?>
<svg height="128px" viewBox="0 0 128 128" width="128px" xmlns="http://www.w3.org/2000/svg" xmlns:xlink="http://www.w3.org/1999/xlink">
    <radialGradient id="a" cx="40.469364" cy="222.65947" gradientTransform="matrix(1.071486 0 0 1.045991 -5.389689 -185.626126)" gradientUnits="userSpaceOnUse" r="51.504765">
        <stop offset="0" stop-color="#f8ed98"/>
        <stop offset="1" stop-color="#e5c009"/>
    </radialGradient>
    <linearGradient id="b" gradientUnits="userSpaceOnUse" x1="40.19576889244" x2="86.17448464809" y1="22.65396919677" y2="22.65396919677">
        <stop offset="0" stop-color="#b4db86"/>
        <stop offset="0.38258" stop-color="#85b164"/>
        <stop offset="1" stop-color="#aee97c"/>
    </linearGradient>
    <linearGradient id="c" gradientTransform="matrix(-0.535743 0.927934 -0.927934 -0.535743 -5.389691 -191.642905)" gradientUnits="userSpaceOnUse" x1="150.97319" x2="193.884354" y1="-209.506485" y2="-209.506485">
        <stop offset="0" stop-color="#85b164"/>
        <stop offset="0.52327" stop-color="#aed682"/>
        <stop offset="1" stop-color="#86b164"/>
    </linearGradient>
    <linearGradient id="d" gradientTransform="matrix(-0.535743 -0.927934 0.927934 -0.535743 -5.389689 -191.642904)" gradientUnits="userSpaceOnUse" x1="-257.884094" x2="-213.793045" y1="-101.693069" y2="-101.693069">
        <stop offset="0" stop-color="#ffa348"/>
        <stop offset="0.275259" stop-color="#ffbe6f"/>
        <stop offset="0.970587" stop-color="#ffa348"/>
    </linearGradient>
    <path d="m 123.425781 59.308594 c -0.949219 0.476562 -2.742187 1.375 -6.878906 3.449218 c -4.660156 2.335938 -8.261719 -9.464843 -13.195313 -18.730468 c -4.773437 -8.96875 -14.046874 -18.957032 -9.402343 -21.285156 c 1.722656 -0.863282 6.882812 -3.449219 7.945312 -3.984376 c 5.230469 -2.621093 14.183594 4.109376 20.152344 15.316407 c 5.964844 11.207031 6.609375 22.613281 1.378906 25.234375 z m 0 0" fill="#ffb15c"/>
    <path d="m 63.183594 7.355469 c -30.476563 0 -55.183594 24.121093 -55.183594 53.871093 c 0 29.753907 24.707031 53.875 55.183594 53.875 c 30.480468 0 55.1875 -24.121093 55.1875 -53.875 c 0 -29.75 -24.707032 -53.871093 -55.1875 -53.871093 z m 0 4.710937 c 12.699218 0 22.992187 4.738282 22.992187 10.589844 c 0 5.847656 -10.292969 10.585938 -22.992187 10.585938 c -12.695313 0 -22.988282 -4.738282 -22.988282 -10.585938 c 0 -5.851562 10.292969 -10.589844 22.988282 -10.589844 z m 42.1875 47.933594 c 1.035156 -0.003906 1.964844 0.230469 2.765625 0.691406 c 5.0625 2.925782 4.023437 14.207032 -2.328125 25.203125 c -6.347656 10.996094 -15.597656 17.539063 -20.660156 14.617188 c -5.066407 -2.925781 -4.023438 -14.207031 2.324218 -25.203125 c 5.203125 -9.011719 12.542969 -15.289063 17.898438 -15.308594 z m 0 0" fill="url(#a)"/>
    <path d="m 86.175781 22.652344 c 0 5.851562 -10.292969 10.589844 -22.992187 10.589844 c -12.695313 0 -22.988282 -4.738282 -22.988282 -10.589844 c 0 -5.847656 10.292969 -10.585938 22.988282 -10.585938 c 12.699218 0 22.992187 4.738282 22.992187 10.585938 z m 0 0" fill="url(#b)"/>
    <path d="m 85.144531 100.511719 c -5.0625 -2.925781 -4.023437 -14.210938 2.328125 -25.203125 c 6.347656 -10.996094 15.597656 -17.539063 20.664063 -14.617188 c 5.0625 2.925782 4.023437 14.207032 -2.324219 25.203125 c -6.351562 10.996094 -15.601562 17.539063 -20.667969 14.617188 z m 0 0" fill="url(#c)"/>
    <path d="m 18.234375 60.691406 c 5.226563 -2.621094 14.316406 3.621094 20.664063 14.617188 c 6.347656 10.992187 7.554687 22.582031 2.324218 25.203125 c -1.054687 0.527343 -0.265625 0.132812 -14.519531 7.277343 c -4.640625 2.328126 2.375 -17.019531 -2.699219 -25.800781 c -5.570312 -9.652343 -24.710937 -11.800781 -20.292968 -14.019531 c 13.03125 -6.527344 13.515624 -6.769531 14.523437 -7.277344 z m 0 0" fill="url(#d)"/>
    <path d="m 3.710938 67.96875 c 5.066406 -2.921875 14.316406 3.621094 20.667968 14.617188 c 6.347656 10.996093 7.386719 22.28125 2.324219 25.203124 c -5.066406 2.925782 -14.316406 -3.617187 -20.664063 -14.613281 c -6.351562 -10.996093 -7.390624 -22.28125 -2.328124 -25.207031 z m 0 0" fill="#f49e47"/>
</svg>
