<?xml version="1.0" encoding="UTF-8" standalone="no"?>
<svg
   width="128"
   height="128"
   x="0"
   y="0"
   version="1.1"
   id="svg6"
   xml:space="preserve"
   xmlns:xlink="http://www.w3.org/1999/xlink"
   xmlns="http://www.w3.org/2000/svg"
   xmlns:svg="http://www.w3.org/2000/svg"><defs
     id="defs10"><linearGradient
       id="a"
       gradientTransform="matrix(0,114.35884,-116.29775,0,53.995504,4.9258557)"
       gradientUnits="userSpaceOnUse"
       x2="1"><stop
         offset="0"
         stop-color="#ff1b2d"
         id="stop139" /><stop
         offset=".3"
         stop-color="#ff1b2d"
         id="stop141" /><stop
         offset=".614"
         stop-color="#ff1b2d"
         id="stop143" /><stop
         offset="1"
         stop-color="#a70014"
         id="stop145" /></linearGradient><linearGradient
       id="b"
       gradientTransform="matrix(0,101.14421,-102.85908,0,84.124038,11.667416)"
       gradientUnits="userSpaceOnUse"
       x2="1"><stop
         offset="0"
         stop-color="#9c0000"
         id="stop148" /><stop
         offset=".7"
         stop-color="#ff4b4b"
         id="stop150" /><stop
         offset="1"
         stop-color="#ff4b4b"
         id="stop152" /></linearGradient><linearGradient
       id="linearGradient17"
       gradientUnits="userSpaceOnUse"
       x1="0"
       y1="269.46301"
       x2="118.926"
       y2="269.46301"
       gradientTransform="matrix(1,0,0,0.98333333,-118,-175.03333)"><stop
         offset="0"
         stop-color="#e5a50a"
         id="stop14"
         style="stop-color:#000000;stop-opacity:1;" /><stop
         offset="0.414"
         stop-color="#fbdf9b"
         id="stop15"
         style="stop-color:#ffffff;stop-opacity:1;" /><stop
         offset="0.81300002"
         stop-color="#e5a50a"
         id="stop16"
         style="stop-color:#000000;stop-opacity:1;" /><stop
         offset="1"
         stop-color="#f8ca5b"
         id="stop17"
         style="stop-color:#b2b2b2;stop-opacity:1;" /></linearGradient><linearGradient
       xlink:href="#linearGradient17"
       id="linearGradient3"
       x1="-208"
       y1="52"
       x2="-88"
       y2="52"
       gradientUnits="userSpaceOnUse"
       gradientTransform="translate(212,13.999971)" /><linearGradient
       id="a-7"
       gradientTransform="matrix(0,114.35884,-116.29775,0,53.9955,8.925886)"
       gradientUnits="userSpaceOnUse"
       x2="1"><stop
         offset="0"
         stop-color="#ff1b2d"
         id="stop139-7"
         style="stop-color:#e50012;stop-opacity:1;" /><stop
         offset="0.30000001"
         stop-color="#ff1b2d"
         id="stop141-4"
         style="stop-color:#e50012;stop-opacity:1;" /><stop
         offset="0.61400002"
         stop-color="#ff1b2d"
         id="stop143-0"
         style="stop-color:#e50012;stop-opacity:1;" /><stop
         offset="1"
         stop-color="#a70014"
         id="stop145-6"
         style="stop-color:#75000e;stop-opacity:1;" /></linearGradient><linearGradient
       id="b-4"
       gradientTransform="matrix(0,101.14421,-102.85908,0,84.12404,15.667446)"
       gradientUnits="userSpaceOnUse"
       x2="1"><stop
         offset="0"
         stop-color="#9c0000"
         id="stop148-7"
         style="stop-color:#6b0000;stop-opacity:1;" /><stop
         offset="0.69999999"
         stop-color="#ff4b4b"
         id="stop150-4"
         style="stop-color:#ff1a1a;stop-opacity:1;" /><stop
         offset="1"
         stop-color="#ff4b4b"
         id="stop152-8"
         style="stop-color:#ff1a1a;stop-opacity:1;" /></linearGradient></defs><path
     d="M 63.99884,7.002699 C 30.86253,7.002699 4,33.417376 4,66.00124 c 0,31.641 25.33218,57.46456 57.14135,58.92985 0.94928,0.044 1.90004,0.0689 2.85833,0.0689 15.36145,0 29.37077,-5.67985 39.98582,-15.01439 l 6.3e-4,-3.99566 c 0,0 -18.13357,11.22115 -24.04376,11.22115 -14.28831,0 -27.08478,-6.97009 -35.69112,-17.96161 C 37.61679,91.5487 33.31976,80.16526 33.02702,67.39002 V 64.61159 C 33.31957,51.836766 37.61658,40.451042 44.24955,32.752051 52.85716,21.760533 65.65322,14.790438 79.94067,14.790438 c 8.78964,0 17.01371,2.638971 24.04737,7.228394 C 93.42506,12.726969 79.50041,7.058771 64.22447,7.00299 c -0.0761,0 -0.15075,-0.003 -0.22686,-0.003 z"
     fill="url(#a)"
     id="path155-8"
     style="fill:url(#a-7);stroke-width:2.09895" /><path
     d="m 44.2504,32.755499 c 5.50607,-6.39168 12.61677,-10.245963 20.38555,-10.245963 17.46752,0 31.62501,19.473305 31.62501,43.494404 0,24.0211 -14.15854,43.49441 -31.62501,43.49441 -7.76878,0 -14.87948,-3.85262 -20.38407,-10.24451 8.60613,10.99151 21.40155,17.96161 35.69112,17.96161 6.9099,0 24.04313,-17.817835 24.04313,-11.22551 v 4.00003 C 116.26699,99.18641 124,83.48371 124,66.00436 124,48.527088 116.26847,32.825226 103.99058,22.022911 96.95608,17.433489 88.73201,14.794518 79.94321,14.794518 c -11.615939,0 -35.700743,2.76171 -35.693655,13.957503 l 0.0025,4.004103"
     fill="url(#b)"
     id="path157-2"
     style="fill:url(#b-4);stroke-width:2.09895" /><path
     id="path155-0-5"
     style="opacity:0.3;fill:url(#linearGradient3);fill-opacity:1;stroke-width:2.09895"
     d="m 63.99805,6.999971 v 0.0019 C 30.86174,7.001924 4,33.418063 4,66.001919 c 0,31.641 25.33146,57.464401 57.14062,58.929691 0.94928,0.044 1.90109,0.0684 2.85938,0.0684 15.35394,0 29.35753,-5.6736 39.9707,-15 0.005,-0.003 0.0105,-0.006 0.0156,-0.01 C 116.26719,99.186639 124,83.483229 124,66.003879 c 0,-17.47727 -7.73188,-33.178156 -20.00977,-43.980471 -0.87931,-0.573678 -1.77614,-1.117525 -2.6914,-1.628906 -6.40687,-3.57967 -13.66527,-5.599609 -21.35547,-5.599609 -14.27693,0 -27.06378,6.959186 -35.66992,17.935547 5.5029,-6.375927 12.60519,-10.220704 20.36328,-10.220704 17.46753,0 31.625,19.473039 31.625,43.494143 0,24.0211 -14.15853,43.494141 -31.625,43.494141 -7.75082,0 -14.84643,-3.83576 -20.3457,-10.201171 -0.0126,-0.0161 -0.0265,-0.0308 -0.0391,-0.0469 -6.63446,-7.70081 -10.93188,-19.08413 -11.22461,-31.85937 v -2.7793 C 33.31985,51.836469 37.617,40.450915 44.24997,32.751924 52.85758,21.760406 65.65393,14.790986 79.94138,14.790986 c 7.6928,0 14.94996,2.022215 21.35742,5.603516 0.91357,0.510618 1.81174,1.0523 2.68945,1.625 C 93.4253,12.727639 79.50055,7.059658 64.22461,7.003877 c -0.0761,0 -0.15045,-0.0039 -0.22656,-0.0039 z M 44.27344,32.73044 c -0.008,0.0088 -0.0159,0.01661 -0.0234,0.02539 h 0.002 c 0.007,-0.0088 0.0146,-0.01665 0.0215,-0.02539 z" /><path
     d="m 63.998838,3.0026694 c -33.136309,0 -59.9988377,26.4146766 -59.9988377,58.9985376 0,31.641 25.3321837,57.464563 57.1413467,58.929853 0.94928,0.044 1.90004,0.0689 2.858337,0.0689 15.361448,0 29.370771,-5.67985 39.985816,-15.01439 -7.033021,4.58652 -15.25561,7.22549 -24.043134,7.22549 -14.288301,0 -27.084779,-6.97009 -35.691118,-17.961608 C 37.616791,87.548667 33.319759,76.165234 33.027025,63.389987 v -2.778423 c 0.292543,-12.774828 4.589553,-24.160552 11.22253,-31.859543 8.607609,-10.991518 21.403663,-17.961613 35.691117,-17.961613 8.789642,0 17.013711,2.638971 24.047368,7.228394 C 93.425064,8.7269388 79.500408,3.0587413 64.224473,3.0029598 c -0.07611,0 -0.150749,-0.00297 -0.226863,-0.00297 z"
     fill="url(#a)"
     id="path155"
     style="fill:url(#a);stroke-width:2.09895" /><path
     d="m 44.250402,28.755469 c 5.506067,-6.39168 12.616773,-10.245963 20.38555,-10.245963 17.467523,0 31.625013,19.473305 31.625013,43.494407 0,24.021101 -14.158549,43.494407 -31.625013,43.494407 -7.768777,0 -14.879483,-3.85262 -20.384069,-10.244508 8.606127,10.991508 21.401547,17.961608 35.691118,17.961608 8.788159,0 17.010747,-2.63897 24.043129,-7.22548 C 116.26699,95.186376 124,79.483682 124,62.004329 124,44.527058 116.26847,28.825196 103.99058,18.022881 96.956076,13.433459 88.732006,10.794488 79.943212,10.794488 c -14.2883,0 -27.084778,6.970096 -35.691117,17.961606"
     fill="url(#b)"
     id="path157"
     style="fill:url(#b);stroke-width:2.09895" /></svg>
