<?xml version="1.0" encoding="UTF-8" standalone="no"?>
<svg
   width="128"
   height="128"
   x="0"
   y="0"
   version="1.1"
   id="svg6"
   xml:space="preserve"
   xmlns:xlink="http://www.w3.org/1999/xlink"
   xmlns="http://www.w3.org/2000/svg"
   xmlns:svg="http://www.w3.org/2000/svg"><defs
     id="defs10"><linearGradient
       id="linearGradient1"><stop
         style="stop-color:#ff0013;stop-opacity:1;"
         offset="0"
         id="stop1" /><stop
         style="stop-color:#a8000d;stop-opacity:1;"
         offset="0.1901184"
         id="stop7" /><stop
         style="stop-color:#ff1a2b;stop-opacity:1;"
         offset="0.5884136"
         id="stop8" /><stop
         style="stop-color:#a8000d;stop-opacity:1;"
         offset="1"
         id="stop6" /></linearGradient><linearGradient
       id="linearGradient37"
       gradientTransform="matrix(116.29718,0,0,118.23605,5.9585083,74.171239)"
       gradientUnits="userSpaceOnUse"
       x2="1"><stop
         offset="0"
         stop-color="#ff1b2d"
         id="stop37"
         style="stop-color:#a8000d;stop-opacity:1;" /><stop
         offset="0.41177273"
         stop-color="#ff1b2d"
         id="stop36"
         style="stop-color:#ff1a2b;stop-opacity:1;" /><stop
         offset="0.80777866"
         stop-color="#ff1b2d"
         id="stop35"
         style="stop-color:#a8000d;stop-opacity:1;" /><stop
         offset="1"
         stop-color="#a70014"
         id="stop34"
         style="stop-color:#ff001e;stop-opacity:1;" /></linearGradient><linearGradient
       xlink:href="#linearGradient37"
       id="linearGradient34"
       gradientUnits="userSpaceOnUse"
       gradientTransform="matrix(0,116.29718,-118.23605,0,53.828746,5.958523)"
       x2="1" /><linearGradient
       xlink:href="#linearGradient1"
       id="linearGradient6"
       x1="11.926612"
       y1="43.539379"
       x2="116.08355"
       y2="43.539379"
       gradientUnits="userSpaceOnUse"
       gradientTransform="rotate(90,63.999985,64)" /></defs><path
     d="m 43.921225,30.192041 c 5.597835,-6.500017 12.827053,-10.419629 20.72531,-10.419629 17.758649,0 32.152098,19.803372 32.152098,44.231624 0,24.428251 -14.394526,44.231624 -32.152098,44.231624 -7.898257,0 -15.127475,-3.91793 -20.723804,-10.418149 8.749563,11.177799 21.75824,18.266049 36.285971,18.266049 8.934629,0 17.29426,-2.6837 24.443848,-7.34795 12.48554,-10.986678 20.34744,-26.955528 20.34744,-44.73115 0,-17.773506 -7.86039,-33.74151 -20.34292,-44.726921 -7.151741,-4.667211 -15.512879,-7.350912 -24.448153,-7.350912 -14.526439,0 -27.536192,7.088237 -36.285971,18.26605"
     fill="url(#b)"
     id="path157"
     style="fill:url(#linearGradient6);fill-opacity:1;stroke-width:2.13423" /><path
     d="m 63.998802,4.0027392 c -33.688581,0 -60.9988175,26.8623968 -60.9988175,59.9985458 0,32.177304 25.7543855,58.438565 58.0937015,59.928695 0.965102,0.0448 1.931708,0.07 2.905977,0.07 15.617472,0 29.860284,-5.77612 40.652247,-15.26887 -7.150238,4.66425 -15.509871,7.34795 -24.443854,7.34795 -14.526439,0 -27.536192,-7.08823 -36.285971,-18.266042 C 37.177054,89.981736 32.808404,78.405357 32.510792,65.413573 V 62.588087 C 32.80821,49.59673 37.176837,38.018021 43.920364,30.188535 52.671433,19.010714 64.342186,11.946811 78.867765,11.946811 c 7.272778,0 17.424799,4.53854 25.786725,7.32658 C 93.915467,9.8240333 79.758732,4.0597616 64.228198,4.0030346 c -0.07738,0 -0.153261,-0.00302 -0.230644,-0.00302 z"
     fill="url(#a)"
     id="path155"
     style="fill:url(#linearGradient34);stroke-width:2.13423" /><path
     id="path1"
     style="fill:#a80000;fill-opacity:1;stroke-width:2.96146"
     d="m 78.698353,11.926627 c -25.57169,-3e-6 -46.30164,23.350172 -46.30164,52.154069 0,28.803896 20.72995,52.154064 46.30164,52.154064 9.093247,0 18.063203,-1.93265 25.217547,-7.03319 12.96484,-9.24301 21.08409,-26.559595 21.08409,-45.120874 0,-18.345609 -7.62935,-35.506171 -20.34292,-44.803157 -7.24762,-5.299934 -16.674001,-7.350911 -25.958717,-7.350912 z m 0,3.476938 c 8.652015,10e-7 17.490132,1.836667 24.247997,6.768882 11.88396,8.673487 18.96686,24.770224 18.96686,41.908249 0,17.475018 -7.68617,33.819276 -19.96354,42.405124 -6.610189,4.62266 -14.898479,6.27201 -23.251317,6.27201 -23.866911,0 -43.214866,-21.793495 -43.214863,-48.677134 0,-26.883637 19.347954,-48.677133 43.214863,-48.677131 z" /></svg>
