<?xml version="1.0" encoding="UTF-8" standalone="no"?>
<svg
   width="128"
   height="128"
   version="1"
   id="svg12"
   xmlns:xlink="http://www.w3.org/1999/xlink"
   xmlns="http://www.w3.org/2000/svg"
   xmlns:svg="http://www.w3.org/2000/svg">
  <defs
     id="defs16">
    <linearGradient
       id="linearGradient4374">
      <stop
         style="stop-color:#343434;stop-opacity:1;"
         offset="0"
         id="stop4370" />
      <stop
         style="stop-color:#666666;stop-opacity:1;"
         offset="0.07185834"
         id="stop4378" />
      <stop
         style="stop-color:#333333;stop-opacity:1;"
         offset="0.15463936"
         id="stop4380" />
      <stop
         style="stop-color:#333333;stop-opacity:1;"
         offset="0.25415617"
         id="stop4382" />
      <stop
         style="stop-color:#666666;stop-opacity:1;"
         offset="0.31681353"
         id="stop4384" />
      <stop
         style="stop-color:#333333;stop-opacity:1;"
         offset="0.39934"
         id="stop4386" />
      <stop
         style="stop-color:#333333;stop-opacity:1;"
         offset="0.59867215"
         id="stop4388" />
      <stop
         style="stop-color:#666666;stop-opacity:1;"
         offset="0.67273009"
         id="stop4390" />
      <stop
         style="stop-color:#333333;stop-opacity:1;"
         offset="0.75"
         id="stop4392" />
      <stop
         style="stop-color:#333333;stop-opacity:1;"
         offset="0.85000002"
         id="stop4394" />
      <stop
         style="stop-color:#666666;stop-opacity:1;"
         offset="0.93000001"
         id="stop4396" />
      <stop
         style="stop-color:#333333;stop-opacity:1;"
         offset="0.99890584"
         id="stop4372" />
    </linearGradient>
    <linearGradient
       gradientUnits="userSpaceOnUse"
       id="linearGradient5785">
      <stop
         id="stop5787"
         offset="0"
         style="stop-color:#c0cdf9;stop-opacity:1" />
      <stop
         id="stop5789"
         offset="1"
         style="stop-color:#07092d;stop-opacity:0.28804347" />
    </linearGradient>
    <clipPath
       clipPathUnits="userSpaceOnUse"
       id="clipPath9086">
      <path
         id="use9088"
         d="m 54.100001,12.5 -41.2,42.2 c -15.6,15.6 10.1,14.3 19.4,20.2 4.3,2.8 -13.8,6.4 -10.1,10.1 3.6,3.7 21.7,7.1 25.3,10.7 3.6,3.7 -7.3,7.6 -3.7,11.3 3.5,3.7 11.9,0.2 13.4,8.6 1.1,6.2 15.4,3.1 21.8,-2.2 4,-3.4 -6.9,-3.4 -3.3,-7.1 9,-9.1 17,-4.1 20.3,-12.5 1.8,-4.5 -13.6,-7.7 -9.5,-10.6 C 96.300001,76.3 132.3,72.8 115.7,56.2 L 73.000001,12.5 c -5.3,-5 -14,-5 -18.9,0 z m -9.9,64.7 c 0.9,0 30.8,4 19.3,7.1 -4.4,1.2 -24.6,-7.1 -19.3,-7.1 z M 101.4,93.8 c 0,2.1 16.3,3.3 15.4,-0.5 -1.3,-6.4 -13.6,-5.9 -15.4,0.5 z m -69.499999,11.1 c 3.7,3.2 9.3,-0.7 11.1,-5.2 -3.6,-4.7 -16.9,0.3 -11.1,5.2 z m 67.5,-6.7 c -4.6,4.2 0.799999,8.6 5.299999,5.7 1.2,-0.8 -0.1,-4.7 -5.299999,-5.7 z"
         style="fill:#ffffff;fill-opacity:1" />
    </clipPath>
    <linearGradient
       gradientUnits="userSpaceOnUse"
       y2="60"
       x2="58"
       y1="35"
       x1="33"
       xlink:href="#WhiteTransparent-4"
       id="shinySpecular-4"
       gradientTransform="matrix(1.1497873,0,0,1.1494277,-471.41938,114.29929)" />
    <linearGradient
       gradientUnits="userSpaceOnUse"
       id="WhiteTransparent-4">
      <stop
         id="stop7606-4"
         offset="0"
         style="stop-color:white;stop-opacity:1" />
      <stop
         id="stop7608-7"
         offset="1"
         style="stop-color:white;stop-opacity:0" />
    </linearGradient>
    <linearGradient
       gradientUnits="userSpaceOnUse"
       y2="50"
       x2="90"
       y1="20"
       x1="60"
       xlink:href="#WhiteTransparent-4"
       id="IcecapTip-6"
       gradientTransform="matrix(1.1393238,0,0,1.1389674,-425.86542,-44.888374)" />
    <linearGradient
       xlink:href="#linearGradient4374"
       id="linearGradient4376"
       x1="11.381379"
       y1="67.567407"
       x2="116.44457"
       y2="67.567407"
       gradientUnits="userSpaceOnUse" />
  </defs>
  <path
     id="use42-3"
     style="fill:url(#linearGradient4376);fill-opacity:1;stroke:none;stroke-width:0.943456;stroke-opacity:1"
     d="M 54.734352,18.700632 16.168109,58.827987 c -2.540953,2.581162 -4.579528,3.95109 -4.579528,3.95109 -2.3260705,11.559306 15.548671,10.622776 22.739392,15.256785 3.049526,2.017156 -9.871387,4.454051 -9.871387,4.454051 0,0 -0.422429,4.297143 0.417043,5.149897 3.369854,3.518275 20.312772,6.751279 23.682615,10.174478 2.570484,2.683642 -4.139266,5.085722 -4.139266,5.085722 0.134379,4.63815 -0.123618,4.82464 0.675806,5.65927 3.276246,3.51827 11.139271,0.19019 12.54343,8.17762 1.029645,5.89548 14.415496,2.94773 20.406379,-2.09195 0.895096,-0.77288 0.784541,-1.23051 0.824281,-5.57554 0,0 -6.477623,1.50146 -3.913367,-1.17575 8.424688,-8.653049 15.913274,-3.89863 19.002359,-11.886064 0.299047,-0.759449 0.08868,-5.177298 0.08868,-5.177298 0,0 -12.138204,-2.633937 -8.981465,-4.902083 7.868591,-5.62781 33.178229,-7.604846 31.280199,-22.119113 0,0 -1.73647,-1.309441 -3.94684,-3.554781 L 72.426117,18.700632 c -4.961238,-4.754423 -13.105019,-4.754423 -17.691807,0 z m 44.276285,77.306964 c 0,1.996855 15.258003,3.137929 14.415493,-0.475444 -0.10958,-0.548037 0.0121,-3.77187 0.0121,-3.77187 L 99.057052,91.630665 c 0,0 0.121977,3.768701 -0.04641,4.376931 z M 33.953523,106.56242 c 3.463461,3.04283 8.705456,-0.66557 10.390447,-4.9446 -0.129462,-0.17169 -0.02427,-4.265062 -0.02427,-4.265062 -2.868211,-2.41045 -11.689789,2.539709 -11.689789,2.539709 -0.216766,3.976133 -0.426709,5.167813 1.323636,6.669953 z m 63.184973,-6.37093 c -0.558875,0.51835 -1.64606,-1.153535 -1.64606,-1.153535 -1.595749,6.931745 3.031961,8.491395 6.607214,6.573585 0.45583,-0.30868 0.32792,-4.83781 0.32792,-4.83781 0,0 -2.39657,-0.0172 -5.289074,-0.58224 z" />
  <path
     id="use42"
     style="fill:#000000;fill-opacity:1;stroke:none;stroke-width:0.943456;stroke-opacity:1"
     d="M 54.734352,14.442378 16.168109,54.569733 c -14.6027212,14.833811 9.454333,13.597658 18.159864,19.207879 4.025124,2.66248 -12.917805,6.085667 -9.454344,9.603943 3.369854,3.518271 20.312772,6.751284 23.682615,10.174479 3.369918,3.51827 -6.833304,7.226716 -3.46346,10.744986 3.276246,3.51828 11.139271,0.1902 12.54343,8.17762 1.029645,5.89549 14.415496,2.94775 20.406379,-2.09195 3.744293,-3.23301 -6.458929,-3.23301 -3.089086,-6.75128 8.424688,-8.653057 15.913274,-3.898634 19.002359,-11.886064 1.684927,-4.278985 -12.730644,-7.321818 -8.892744,-10.079387 9.173502,-6.56111 42.872198,-9.8892 27.333368,-25.673892 L 72.42616,14.442378 c -4.961238,-4.754423 -13.105019,-4.754423 -17.691808,0 z m 44.276285,77.306968 c 0,1.996854 15.258003,3.137923 14.415493,-0.475451 -1.21687,-6.085659 -12.73057,-5.610222 -14.415493,0.475451 z M 33.953523,102.30417 c 3.463461,3.04283 8.705456,-0.66558 10.390447,-4.944603 -3.369918,-4.469159 -15.819656,0.285258 -10.390447,4.944603 z m 63.184973,-6.370935 c -4.305957,3.993722 0.748813,8.177625 4.961154,5.420055 1.12334,-0.76072 -0.0934,-4.469166 -4.961154,-5.420055 z" />
  <path
     d="M 54.225992,11.761446 13.543961,54.090272 c -15.4038695,15.647623 9.973073,14.343654 19.156124,20.261664 4.245947,2.808543 -13.626517,6.419533 -9.972999,10.130832 3.554715,3.711293 21.427179,7.121675 24.981894,10.732665 3.554715,3.711292 -7.208233,7.623197 -3.653443,11.334487 3.455988,3.7113 11.750362,0.20064 13.231532,8.62625 1.086142,6.21893 15.20636,3.10947 21.525906,-2.20671 3.9497,-3.41038 -6.813248,-3.41038 -3.258532,-7.12167 8.886868,-9.127782 16.786321,-4.11252 20.04479,-12.538159 C 97.37667,88.795893 82.170246,85.586123 86.218663,82.67727 95.89549,75.756208 131.44289,72.245522 115.0516,55.594847 L 72.888404,11.761446 c -5.233351,-5.0152605 -13.823972,-5.0152605 -18.662412,0 z m -9.775481,64.89751 c 0.888676,0 30.412775,4.012209 19.057323,7.121676 -4.344675,1.203658 -24.290748,-7.121676 -19.057323,-7.121676 z m 56.480879,16.650675 c 0,2.106408 16.09503,3.310073 15.20635,-0.501516 -1.28365,-6.419532 -13.42899,-5.918009 -15.20635,0.501516 z M 32.3051,104.44352 c 3.653518,3.20976 9.183126,-0.70212 10.960478,-5.215879 -3.55479,-4.714352 -16.68753,0.300951 -10.960478,5.215879 z m 66.651404,-6.720461 c -4.54213,4.212821 0.789948,8.626261 5.233426,5.717401 1.18486,-0.80244 -0.0989,-4.714348 -5.233426,-5.717401 z"
     id="use32"
     style="opacity:0.1;fill:none;stroke-width:0.995212" />
  <path
     class="full-specularity"
     d="M 70.085951,17.295037 85.343954,33.07973 c 1.404095,1.426326 1.404095,4.374068 0.561387,5.229867 l -7.582129,-6.27584 -1.497766,9.223582 -6.27164,-3.423187 -10.203233,6.561117 -3.369843,-13.787838 -5.42922,11.981151 -13.573065,-0.09507 c -2.62104,0 -2.24659,-2.757562 0.468046,-5.515131 5.335613,-5.990582 15.725985,-16.165053 19.002296,-19.683324 3.369843,-3.518277 9.267119,-3.423186 12.636962,0 z"
     id="icecap"
     style="fill:#ffffff;fill-opacity:1;stroke-width:0.943456" />
  <path
     style="fill:#ffffff;fill-opacity:0.983141;stroke:none;stroke-width:0.943456;stroke-opacity:1"
     d="m 45.467233,75.964647 c 0.842421,0 28.831068,3.803541 18.066182,6.751291 C 59.414748,83.857 40.50607,75.964647 45.467233,75.964647 Z"
     id="path858" />
</svg>
