<?xml version="1.0" encoding="UTF-8" standalone="no"?>
<svg
   height="128px"
   viewBox="0 0 128 128"
   width="128px"
   version="1.1"
   id="svg15"
   xmlns="http://www.w3.org/2000/svg"
   xmlns:svg="http://www.w3.org/2000/svg">
  <defs
     id="defs15" />
  <linearGradient
     id="a"
     gradientTransform="matrix(0.85724829,0,0,0.85725172,9.1432401,31.396081)"
     gradientUnits="userSpaceOnUse"
     x1="0.999993"
     x2="66.951172"
     y1="66.9254"
     y2="66.9254">
    <stop
       offset="0"
       stop-color="#85b4e0"
       id="stop1" />
    <stop
       offset="0.0767149"
       stop-color="#0057ab"
       id="stop2" />
    <stop
       offset="0.554668"
       stop-color="#0057ab"
       id="stop3" />
    <stop
       offset="0.554668"
       stop-color="#85b4e0"
       id="stop4" />
    <stop
       offset="0.649676"
       stop-color="#0057ab"
       id="stop5" />
  </linearGradient>
  <linearGradient
     id="b"
     gradientTransform="matrix(0.85724829,0,0,0.85725172,9.1432401,31.396081)"
     gradientUnits="userSpaceOnUse"
     x1="6.550781"
     x2="126.986328"
     y1="66.154655"
     y2="66.154655">
    <stop
       offset="0.385737"
       stop-color="#0057ab"
       id="stop6" />
    <stop
       offset="0.557136"
       stop-color="#006acc"
       id="stop7" />
    <stop
       offset="0.765282"
       stop-color="#0057ab"
       id="stop8" />
  </linearGradient>
  <linearGradient
     id="c"
     gradientTransform="matrix(0.85724829,0,0,0.85725172,9.1432401,31.396081)"
     gradientUnits="userSpaceOnUse"
     x1="77.189453"
     x2="99.4375"
     y1="36.926357"
     y2="36.926357">
    <stop
       offset="0.366042"
       stop-color="#85b4e0"
       id="stop9" />
    <stop
       offset="0.798056"
       stop-color="#0057ab"
       id="stop10" />
  </linearGradient>
  <linearGradient
     id="d"
     gradientTransform="matrix(0.05274,0,0,0.05274017,9.9983764,29.835385)"
     gradientUnits="userSpaceOnUse"
     x1="0"
     x2="0"
     y1="506"
     y2="1588">
    <stop
       offset="0"
       stop-color="#46d4ff"
       id="stop11" />
    <stop
       offset="1"
       stop-color="#1792ff"
       id="stop12" />
  </linearGradient>
  <path
     d="m 9.9999999,86.508146 v 2.404019 c 0.00335,0.378348 0.1138391,0.733259 0.3683041,1.047991 1.114955,1.369419 4.821428,-0.488839 7.811384,-1.720982 3.147321,-1.292411 3.39174,-1.995536 11.97991,-3.277902 3.954241,-0.589286 8.116071,-0.756697 11.209821,-0.783483 1.205358,2.544643 4.20201,7.777902 9.398438,10.285715 7.011161,3.388393 15.766741,3.344866 15.766741,3.344866 V 95.387612 C 22.609375,77.685602 57.584821,75.432254 9.9999999,86.508146 Z m 0,0"
     fill="url(#a)"
     id="path12"
     style="fill:url(#a);stroke-width:0.857143" />
  <path
     d="m 28.043526,78.974665 c 0.5625,-1.6875 2.340402,-4.972098 8.383929,-7.808036 7.366072,-3.455357 18.954241,-4.034598 32.253349,-0.642857 C 87.470982,75.321763 93.876116,83.48471 101.96205,91.915513 110.56362,100.89208 118,116.00257 118,116.00257 v -2.42076 C 91.214286,48.000334 21.387276,61.43337 28.043526,78.974665 Z m 27.646207,6.508928 0.01674,0.0033 c 5.075892,0.964286 9.505579,1.657366 20.102678,5.715402 9.274553,3.552455 15.606027,8.715402 15.606027,8.715402 V 97.496986 C 81.68192,88.108593 47.52009,76.969084 55.689733,85.483593 Z m 0,0"
     fill="url(#b)"
     id="path13"
     style="fill:url(#b);stroke-width:0.857143" />
  <path
     d="m 94.385045,57.475781 c -5.625,-0.669643 -11.979911,4.828125 -9.371652,7.908482 1.389509,-3.629465 9.371652,-5.484375 9.371652,-5.484375 z m 0,0"
     fill="url(#c)"
     id="path14"
     style="fill:url(#c);stroke-width:0.857143" />
  <path
     d="M 111.57478,97.975781 C 106.60603,88.801674 102.33036,82.24587 95.205357,75.582924 92.915179,73.443415 90.742188,71.528236 88.482143,69.810602 h 0.0033 c 0,0 -0.01674,-0.0134 -0.05022,-0.03683 -0.04017,-0.03348 -0.08036,-0.06362 -0.123884,-0.09375 -0.837053,-0.646205 -4.399553,-3.642857 -3.133928,-6.950893 1.389509,-3.629464 9.207589,-5.253348 9.207589,-5.253348 0,0 -3.833706,-1.302455 -10.53683,-0.870536 -6.294643,0.405134 -11.949777,4.084822 -13.007813,4.600446 -3.388393,-0.970981 -7.25558,-1.824776 -11.779018,-2.591517 -15.642857,-2.655134 -28.881696,1.577009 -35.524553,6.1875 -8.708706,6.043527 -8.467635,11.675223 -9.184152,14.491071 -0.515626,2.02567 -5.7689737,6.053572 -3.984375,8.246652 1.114955,1.36942 4.821429,-0.488839 7.811384,-1.720982 3.143973,-1.292411 3.388393,-1.995536 11.97991,-3.277902 3.954241,-0.589286 8.112724,-0.760044 11.209822,-0.783482 1.205357,2.544643 4.202009,7.774553 9.395089,10.285714 7.011161,3.388393 15.770089,3.344867 15.770089,3.344867 0,0 -5.032365,-2.089286 -8.129464,-5.186385 -2.106027,-2.109374 -2.611607,-5.306919 -2.71875,-7.138393 h 0.02009 c 5.072545,0.964286 9.502232,1.660715 20.099331,5.71875 9.274553,3.552456 15.609375,8.715402 15.609375,8.715402 0,0 -6.512277,-8.119419 -17.504465,-13.540178 C 64.887277,79.50703 57.477679,77.307254 47.212053,76.808369 35.992188,76.265959 27.725447,77.70569 27.725447,77.70569 c 0,0 0.231026,-4.98549 8.702008,-8.959821 7.366072,-3.455357 18.954241,-4.034598 32.253349,-0.639509 18.78683,4.791295 25.195312,12.954242 33.277906,21.388394 C 110.56027,98.471317 118,113.58181 118,113.58181 c 0,0 -2.29353,-7.98215 -6.42522,-15.606029 z m 0,0"
     fill="url(#d)"
     id="path15"
     style="fill:url(#d);stroke-width:0.857143" />
</svg>
