<?xml version="1.0" encoding="UTF-8" standalone="no"?>
<!-- Generator: Adobe Illustrator 26.0.2, SVG Export Plug-In . SVG Version: 6.00 Build 0)  -->

<svg
   version="1.0"
   id="Layer_1"
   x="0px"
   y="0px"
   viewBox="0 0 128 128"
   xml:space="preserve"
   width="128"
   height="128"
   xmlns:xlink="http://www.w3.org/1999/xlink"
   xmlns="http://www.w3.org/2000/svg"
   xmlns:svg="http://www.w3.org/2000/svg"><defs
   id="defs76"><radialGradient
     id="radialGradient262"
     cx="55.734493"
     cy="69.732521"
     gradientTransform="matrix(1.3089204,1.5359882,-0.48302678,0.39801325,10.834812,-71.803348)"
     gradientUnits="userSpaceOnUse"
     r="18.540045"
     fx="55.734493"
     fy="69.732521"
     fr="0"
     spreadMethod="pad"><stop
       offset="0"
       stop-color="#ffffff"
       id="stop260" /><stop
       offset="0.37094101"
       stop-color="#ffffff"
       id="stop261"
       style="stop-color:#fcfcfc;stop-opacity:1;" /><stop
       offset="1"
       stop-color="#deddda"
       id="stop262" /></radialGradient><radialGradient
     id="radialGradient254"
     cx="66.320023"
     cy="67.443039"
     gradientTransform="matrix(2.6222888,2.2278893,-16.346087,18.60377,999.3282,-1354.1297)"
     gradientUnits="userSpaceOnUse"
     r="3.6710241"
     fx="66.320023"
     fy="67.443039"
     fr="0"
     spreadMethod="pad"><stop
       offset="0"
       stop-color="#ffffff"
       id="stop252" /><stop
       offset="0.456886"
       stop-color="#f2f1f0"
       id="stop253" /><stop
       offset="1"
       stop-color="#c0bfbc"
       id="stop254"
       style="stop-color:#c1c0bd;stop-opacity:1;" /></radialGradient><linearGradient
     id="a-9"
     gradientUnits="userSpaceOnUse"
     x1="0"
     y1="269.46301"
     x2="118.926"
     y2="269.46301"
     gradientTransform="matrix(1,0,0,0.98333333,0,-168.03333)"><stop
       offset="0"
       stop-color="#e5a50a"
       id="stop1-7"
       style="stop-color:#787878;stop-opacity:1;" /><stop
       offset="0.414"
       stop-color="#fbdf9b"
       id="stop2-0"
       style="stop-color:#cbcbcb;stop-opacity:1;" /><stop
       offset="0.81300002"
       stop-color="#e5a50a"
       id="stop3"
       style="stop-color:#787878;stop-opacity:1;" /><stop
       offset="1"
       stop-color="#f8ca5b"
       id="stop4-4"
       style="stop-color:#a9a9a9;stop-opacity:1;" /></linearGradient><radialGradient
     id="h"
     cx="55.734493"
     cy="69.732521"
     gradientTransform="matrix(1.3089204,1.5359882,-0.48302678,0.39801325,10.83481,-71.803348)"
     gradientUnits="userSpaceOnUse"
     r="18.540045"
     xlink:href="#radialGradient262"><stop
       offset="0"
       stop-color="#ffffff"
       id="stop9" /><stop
       offset="0.370941"
       stop-color="#ffffff"
       id="stop10" /><stop
       offset="1"
       stop-color="#deddda"
       id="stop11-1" /></radialGradient><radialGradient
     id="g"
     cx="66.2463"
     cy="88.106583"
     gradientTransform="matrix(-0.0061685,1.1069326,-2.1886423,-0.01179331,234.5064,1.5919906)"
     gradientUnits="userSpaceOnUse"
     r="8.7285156"><stop
       offset="0"
       stop-color="#ffffff"
       id="stop6-0" /><stop
       offset="0.488048"
       stop-color="#fbfbfb"
       id="stop7" /><stop
       offset="1"
       stop-color="#deddda"
       id="stop8" /></radialGradient><radialGradient
     id="c"
     cx="77.536842"
     cy="-172.40347"
     fx="76.588287"
     fy="-172.15646"
     gradientTransform="matrix(0,-2.0531234,4.6291418,9.1005981e-5,862.47422,280.4521)"
     gradientUnits="userSpaceOnUse"
     r="60"><stop
       offset="0"
       stop-color="#62a0ea"
       id="stop1-2" /><stop
       offset="0.253849"
       stop-color="#1c71d8"
       id="stop2-4" /><stop
       offset="0.554184"
       stop-color="#1c71d8"
       id="stop3-3" /><stop
       offset="1"
       stop-color="#1a5fb4"
       id="stop4-3" /></radialGradient><radialGradient
     xlink:href="#radialGradient254"
     id="radialGradient255"
     gradientUnits="userSpaceOnUse"
     gradientTransform="matrix(2.6222888,2.2278893,-16.346087,18.60377,999.3282,-1354.1297)"
     cx="66.320023"
     cy="67.443039"
     r="3.6710241" /></defs>
<style
   type="text/css"
   id="style2">
	.st0{fill:url(#SVGID_1_);}
	.st1{fill:url(#SVGID_00000062171159965967627490000013605884846004172698_);}
	.st2{fill:url(#SVGID-2_00000085966066984138215510000013018799571900533434_);}
	.st3{clip-path:url(#SVGID_00000023257072852279316340000004281102206337855156_);}
	.st4{fill:url(#SVGID_00000177446033621631838710000001370584907163434138_);}
	.st5{clip-path:url(#SVGID_00000136385553608229244970000014654043435100792964_);}
	.st6{fill:url(#SVGID_00000126306410582640054500000000964390405037519506_);}
	.st7{fill:url(#SVGID_00000109020757643166282930000006684795936706346369_);}
</style>
<radialGradient
   id="SVGID_1_"
   cx="514.5"
   cy="477.5"
   r="496.5"
   gradientTransform="matrix(1,0,0,-1,-18,974)"
   gradientUnits="userSpaceOnUse">
	<stop
   offset="0.9134"
   style="stop-color:#000000"
   id="stop4" />
	<stop
   offset="1"
   style="stop-color:#000000;stop-opacity:0"
   id="stop6" />
</radialGradient>

<radialGradient
   id="SVGID_00000163033830155146975860000008434547654242457221_"
   cx="512.05908"
   cy="481.87881"
   r="486.27271"
   gradientTransform="matrix(0.11104257,0,0,-0.11104257,7.1350999,117.51141)"
   gradientUnits="userSpaceOnUse">
	<stop
   offset="0.99"
   style="stop-color:#FFFFFF"
   id="stop11" />
	<stop
   offset="0.9951"
   style="stop-color:#FDFDFD"
   id="stop13" />
	<stop
   offset="0.9969"
   style="stop-color:#F6F6F6"
   id="stop15" />
	<stop
   offset="0.9982"
   style="stop-color:#EBEBEB"
   id="stop17" />
	<stop
   offset="0.9992"
   style="stop-color:#DADADA"
   id="stop19" />
	<stop
   offset="1"
   style="stop-color:#C7C7C7"
   id="stop21" />
</radialGradient>

<radialGradient
   id="SVGID-2_00000052072577768947982130000002178866272689676469_"
   cx="512.06152"
   cy="481.87881"
   r="444.12241"
   gradientTransform="matrix(1,0,0,-1,-18,974)"
   gradientUnits="userSpaceOnUse">
	<stop
   offset="0.99"
   style="stop-color:#000000;stop-opacity:0.5"
   id="stop26" />
	<stop
   offset="1"
   style="stop-color:#000000;stop-opacity:0"
   id="stop28" />
</radialGradient>



<radialGradient
   id="SVGID_00000092427181212153090570000016417065628950216588_"
   cx="578.89008"
   cy="482.3703"
   r="353.94269"
   gradientTransform="matrix(0.11104257,0,0,-0.1218248,7.1350999,118.45626)"
   gradientUnits="userSpaceOnUse">
	<stop
   offset="0"
   style="stop-color:#C2C0C2"
   id="stop66" />
	<stop
   offset="1"
   style="stop-color:#EBEBEB"
   id="stop68" />
</radialGradient>

		
	
		
	
<path
   d="M 124,65.999998 C 124,98.584718 97.137001,125 64,125 30.863,125 4,98.584718 4,65.999998 4,33.415288 30.863,7.000002 64,7.000002 c 33.137001,0 60,26.415286 60,58.999996 z m 0,0"
   fill="url(#a)"
   id="path4"
   style="fill:url(#a-9);stroke-width:0.991632" /><ellipse
   style="fill:#ffffff;fill-opacity:1;stroke:none;stroke-width:0.170805;stroke-linecap:round;stroke-linejoin:round;stroke-miterlimit:1.5;paint-order:stroke fill markers"
   id="path365"
   cx="64"
   cy="62"
   rx="60"
   ry="59" /><path
   d="m 103.0856,24.046494 c 21.48014,21.122109 21.48014,55.36151 0,76.483616 -21.48015,21.12211 -56.29995,21.12211 -77.78008,0 -21.48015,-21.122106 -21.48015,-55.361507 0,-76.483616 21.48013,-21.122108 56.29993,-21.122108 77.78008,0 z"
   fill="url(#c)"
   id="path18"
   style="fill:url(#c);stroke-width:0.991617" /><path
   d="m 55.04725,73.257229 -19.66767,-1.444247 -3.05855,1.007567 v 2 l 9.41002,6.775667 2.79683,2.035779 2.07028,2.750209 6.89053,9.249325 3.00386,-2.95763 0.0508,-0.04612 v -2 l -1.46873,-17.339847 -0.0235,-0.0038 z"
   fill="url(#g)"
   id="path263"
   style="fill:#999999;fill-opacity:1;stroke-width:0.991616" /><path
   d="M 90.94125,37.2202 C 88.21083,35.399528 82.06638,37.934641 76.7774,43.162353 L 51.64105,67.879714 c -5.30851,5.18546 -7.87878,11.215959 -5.19914,13.866305 2.67965,2.646503 8.81628,0.111392 14.10136,-5.112479 L 85.67961,51.916179 c 4.19487,-4.100726 6.64053,-8.726496 6.64119,-11.814623 l 4.1e-4,-1.875733 c 0,0 -0.3095,0.180526 -0.59873,-0.237407 -0.0234,-0.03841 -0.21874,-0.295763 -0.35155,-0.42636 C 91.24203,37.4353 90.94125,37.2202 90.94125,37.2202 Z"
   fill="url(#i)"
   id="path264"
   style="fill:#999999;fill-opacity:1;stroke-width:0.991616" /><path
   d="m 55.04725,71.257229 -19.66767,-1.444247 -3.05855,3.007567 9.41002,6.775667 2.79683,2.035779 2.07028,2.750209 6.89053,9.249325 3.00386,-2.95763 0.0508,-0.04612 -1.46873,-19.339847 -0.0235,-0.0038 z m 0,0"
   fill="url(#g)"
   id="path20"
   style="fill:url(#g);stroke-width:0.991616" /><path
   d="m 74.71103,53.951952 -33.65575,-11.11609 -5.25774,3.346785 v 2 l 25.4215,19.036401 19.35518,24.993921 5.43742,-5.170094 v -2 z"
   fill="url(#h)"
   id="path257"
   style="fill:#999999;fill-opacity:1;stroke-width:0.991616" /><path
   d="m 74.71103,51.951952 -33.65575,-11.11609 -5.25774,5.346785 25.4215,19.036401 19.35518,24.993921 5.43742,-5.170094 z m 0,0"
   fill="url(#h)"
   id="path21"
   style="fill:url(#h);stroke-width:0.991616" /><path
   d="M 90.94125,35.2202 C 88.21083,33.399528 82.06638,35.934641 76.7774,41.162353 L 51.64105,65.879714 c -5.30851,5.18546 -7.87878,11.215959 -5.19914,13.866305 2.67965,2.646503 8.81628,0.111392 14.10136,-5.112479 L 85.67961,49.916179 c 5.32023,-5.200825 7.89832,-11.246687 6.04287,-13.927763 -0.0234,-0.03841 -0.21874,-0.295763 -0.35155,-0.42636 C 91.24203,35.4353 90.94125,35.2202 90.94125,35.2202 Z m 0,0"
   fill="url(#i)"
   id="path2"
   style="fill:url(#radialGradient255);stroke-width:0.991616" /></svg>
