<?xml version="1.0" encoding="UTF-8" standalone="no"?>
<!-- Generator: Adobe Illustrator 23.0.1, SVG Export Plug-In . SVG Version: 6.00 Build 0)  -->

<svg
   version="1.1"
   id="Livello_1"
   x="0px"
   y="0px"
   viewBox="0 0 128 128"
   enable-background="new 0 0 240.1 240.1"
   xml:space="preserve"
   width="128"
   height="128"
   xmlns:xlink="http://www.w3.org/1999/xlink"
   xmlns="http://www.w3.org/2000/svg"
   xmlns:svg="http://www.w3.org/2000/svg"><defs
   id="defs13"><linearGradient
     id="linearGradient1"><stop
       style="stop-color:#fa64a8;stop-opacity:1;"
       offset="0"
       id="stop1" /><stop
       style="stop-color:#cf538b;stop-opacity:1;"
       offset="1"
       id="stop2" /></linearGradient><linearGradient
     id="a-9"
     gradientUnits="userSpaceOnUse"
     x1="0"
     y1="269.46301"
     x2="118.926"
     y2="269.46301"
     gradientTransform="matrix(1,0,0,0.98333333,0,-168.03333)"><stop
       offset="0"
       stop-color="#e5a50a"
       id="stop1-5"
       style="stop-color:#787878;stop-opacity:1;" /><stop
       offset="0.414"
       stop-color="#fbdf9b"
       id="stop2-1"
       style="stop-color:#cbcbcb;stop-opacity:1;" /><stop
       offset="0.81300002"
       stop-color="#e5a50a"
       id="stop3-6"
       style="stop-color:#787878;stop-opacity:1;" /><stop
       offset="1"
       stop-color="#f8ca5b"
       id="stop4-6"
       style="stop-color:#a9a9a9;stop-opacity:1;" /></linearGradient><linearGradient
     xlink:href="#linearGradient1"
     id="linearGradient2"
     x1="62.000004"
     y1="7.2764974"
     x2="62.000004"
     y2="101.99411"
     gradientUnits="userSpaceOnUse"
     gradientTransform="matrix(1.0344828,0,0,1.0344828,-0.1379319,-0.1034517)" /></defs>

<path
   d="M 124,66 C 124,98.58472 97.137,125 64,125 30.863,125 4,98.58472 4,66 4,33.41528 30.863,7 64,7 c 33.137,0 60,26.41528 60,59 z m 0,0"
   fill="url(#a)"
   id="path4-3"
   style="fill:url(#a-9);stroke-width:0.991632" /><path
   id="path1"
   style="fill:url(#linearGradient2);stroke-width:0.343027"
   d="M 124,62 A 60.000002,59.000001 0 0 1 64.000004,121 60.000002,59.000001 0 0 1 4.0000005,62 60.000002,59.000001 0 0 1 64.000004,2.9999985 60.000002,59.000001 0 0 1 124,62 Z" /><path
   style="fill:#bf3b77;fill-opacity:1;stroke-width:1.09651"
   d="m 31.998151,75.339698 -9.397544,-6.845597 m 0,0 -0.572496,-0.168379 -4.72993,-0.06437 -4.729928,-0.06437 -0.224905,0.252887 -0.224905,0.252877 -0.683255,1.302103 -0.683246,1.302103 -0.246001,0.666754 -0.246,0.666763 -0.18097,-0.247503 -0.180977,-0.247494 v -0.452835 -0.452835 l 0.651051,-0.81135 0.651051,-0.811361 0.257405,-0.483933 0.257406,-0.483945 -0.08553,-0.223017 -0.08563,-0.223019 -0.788608,0.09682 -0.78861,0.09682 -0.305891,0.114366 -0.305895,0.114366 -0.13957,-0.260788 -0.139563,-0.260772 v -0.23057 -0.230585 l 0.376925,0.083 0.376926,0.083 1.096507,0.08685 1.096508,0.08684 0.219061,-0.256692 0.21907,-0.256692 1.108077,-1.850357 1.108076,-1.850357 0.221461,-0.274128 0.221451,-0.274125 -0.232285,0.479722 -0.232283,0.479722 -0.94825,1.694147 -0.948249,1.69416 0.07314,0.190464 0.07302,0.190473 h 4.040928 4.040927 l 0.690833,-0.148159 0.690832,-0.14816 0.07993,-0.129343 0.07994,-0.129356 m 44.498269,6.093293 0.07605,0.468691 0.07606,0.468702 0.672413,1.182398 0.672411,1.182409 h 0.185266 0.185265 l 1.414514,-2.398611 1.414513,-2.398611 0.752765,-1.317344 0.752768,-1.317334 0.282859,-0.804793 10.081243,6.427104 0.593627,0.223358 v 0.223358 l 0.468703,0.97802 0.468702,0.978019 -0.08036,0.08038 -0.08036,0.08038 h -7.850208 -7.850218 l -0.07244,0.117217 -0.07245,0.117217 1.759304,3.000977 1.759302,3.000977 0.404864,0.685317 0.404864,0.685318 h 13.07793 13.077926 l 2.228883,-3.769246 2.22889,-3.769246 0.61724,-1.186815 0.61723,-1.186805 c 0,0 2.69115,-4.608918 3.20194,-5.713902 l 0.48929,-0.566818 0.48927,-0.566818 1.54196,-2.546607 1.54197,-2.546606 v -0.20032 -0.200311 l -0.23985,-0.06272 -0.23987,-0.06272 0.34266,-0.01798 0.34265,-0.01798 0.19319,-0.122282 0.19315,-0.122283 0.19164,0.07358 0.19166,0.07358 -0.31254,0.155813 -0.31252,0.155815 -0.87136,1.574046 -0.87135,1.574049 -0.75431,1.403563 -0.75428,1.403551 -0.89558,1.954504 -0.89558,1.954492 0.008,0.251078 0.008,0.251067 0.40931,0.874641 0.4093,0.874652 2.55788,4.356819 2.55788,4.35682 0.39854,0.505951 0.39855,0.505951 v 0.274521 0.274522 l -0.30839,0.35699 -0.30839,0.356989 -7.05265,0.02753 -7.052681,0.02753 -1.064903,1.850357 -1.064904,1.850356 -0.0036,0.173765 -0.0036,0.173751 6.817258,-0.0077 6.8173,-0.0077 0.0405,0.121328 0.0405,0.121329 -0.24817,0.306463 -0.24817,0.306474 -7.19075,-0.01711 -7.190677,-0.01711 -0.122008,-0.122007 -0.122007,-0.122009 1.319953,-2.260626 1.319952,-2.260627 v -0.07906 -0.07906 H 86.516986 74.044211 v 0.06063 0.06062 l 3.268484,5.59322 3.268484,5.593231 3.173499,5.387705 3.173499,5.38762 v 0.20202 0.20201 l -0.171329,0.0639 -0.171329,0.064 -23.369322,0.0347 -23.369322,0.0345 -0.866635,-0.28624 -0.866639,-0.28793 -0.294594,-0.29459 -0.294596,-0.2946 h 23.879504 23.879502 v -0.0636 -0.0635 l -3.201757,-5.6588 -3.201759,-5.658832 -1.953992,-3.426586 -1.953992,-3.426587 -0.696053,-1.233572 -0.696052,-1.233571 -0.256854,-0.376924 -0.256856,-0.376926 -4.548026,-0.0022 -4.548028,-0.0022 -0.189114,-0.119784 -0.189113,-0.119771 2.359166,-4.006145 2.359166,-4.006135 -0.122201,-0.122196 -0.1222,-0.122204 -7.112487,0.03553 -7.112487,0.03553 -4.76119,8.360872 -4.76119,8.360871 -0.0084,0.271122 -0.0084,0.271124 0.903161,1.560132 0.903164,1.560133 -0.117829,0.117809 -0.117828,0.117845 -1.89778,0.03842 -1.897782,0.03842 -2.261802,3.974905 -2.261804,3.97486 -0.210192,0.51398 -0.210192,0.51398 h -0.238151 -0.238152 l -0.312168,-0.25276 -0.312168,-0.2528 0.09716,-0.19267 0.09716,-0.19268 2.375011,-3.97483 2.37501,-3.974927 -0.06396,-0.111181 -0.06396,-0.111189 -7.943953,0.02672 -7.943961,0.02672 -0.403635,-0.386703 -0.403647,-0.386714 -4.4e-5,-0.07719 -4.4e-5,-0.0772 h 8.727683 8.727687 l 0.727375,-1.233571 0.727375,-1.23357 0.0025,-0.230475 0.0025,-0.230475 -2.715506,-4.772343 -2.715506,-4.772341 -2.52314,-4.439102 -2.523143,-4.439103 -0.591907,-0.658343 m 12.575429,21.906724 -0.0012,-0.17133 -0.422346,-0.736513 -0.422345,-0.736514 -0.171383,0.18826 -0.171384,0.188259 -0.359631,0.633004 -0.359632,0.633012 0.08658,0.08664 0.08658,0.08651 h 0.868093 0.868068 z m 0.54598,-5.895584 1.298546,-2.225428 3.328054,-5.665808 3.328055,-5.66582 -0.07732,-0.125111 -0.07732,-0.125124 h -9.312271 -9.312227 v 0.142337 0.142339 l 3.516561,5.991253 3.516561,5.991253 1.107026,1.884622 1.107027,1.884623 0.139367,-0.0022 0.139369,-0.0022 z M 72.536614,85.09548 V 84.971958 L 70.718047,81.771691 68.899479,78.571433 H 68.70793 68.517038 l -1.827577,3.220993 -1.827577,3.220992 -7.42e-4,0.102743 -7.4e-4,0.102745 h 3.837777 3.837776 z m 41.119136,-0.05537 v -0.178851 l -2.72997,-4.817112 -2.72998,-4.817112 -0.42908,-0.623639 -0.42908,-0.623628 -0.16474,0.0033 -0.16476,0.0033 -0.76891,1.127298 -0.76889,1.127287 -2.41562,4.266171 -2.41559,4.266161 -0.0854,0.222669 -0.0854,0.222656 h 6.59376 6.59375 z m -80.602876,-9.722712 0.108466,0.378186 0.369303,0.728793 0.369303,0.728783 0.220147,-0.181801 0.220145,-0.181789 0.320487,-0.723488 0.320498,-0.723496 v -0.201682 m 19.874094,-0.921275 -19.110659,1.421184 -0.626374,0.833258 v 0.260553 0.26054 h 9.173919 9.173919 l 0.282336,-0.396497 0.282332,-0.396498 0.412211,-0.871338 0.412209,-0.87134 1.07e-4,-0.239862 m 1.339767,0.177733 -0.245241,0.131252 -0.245243,0.131252 -0.474365,0.653397 -0.474367,0.653399 -0.16637,0.319106 -0.166371,0.319105 0.07478,0.194882 0.07478,0.194883 h 6.583349 6.583346 l 7e-6,-0.247395 v -0.247875 l -0.488917,-0.814309 -0.488923,-0.814322 -0.367723,-0.386948 -0.367722,-0.386956 m 0,0 c -3.188259,0.880846 -6.616251,1.212012 -9.831017,0.300585 m 18.032072,-5.213598 -0.159812,-10e-4 -0.405939,0.513988 -0.40594,0.513988 -1.811384,3.191606 -1.811383,3.191604 0.07702,0.200716 0.07702,0.200717 h 7.067371 7.067372 l 0.08033,-0.209446 0.08031,-0.20929 -0.361328,-0.521399 -0.361328,-0.521401"
   id="path14" /><path
   id="circle2"
   style="fill:#ffffff;fill-opacity:1;stroke-width:0.343026"
   d="M 64 3 A 59.999999 59 0 0 0 4 62 A 59.999999 59 0 0 0 64 121 A 59.999999 59 0 0 0 124 62 A 59.999999 59 0 0 0 64 3 z M 64 8.9003906 A 54.000001 53.100002 0 0 1 118 62 A 54.000001 53.100002 0 0 1 64 115.09961 A 54.000001 53.100002 0 0 1 10 62 A 54.000001 53.100002 0 0 1 64 8.9003906 z " /><path
   id="path5"
   style="fill:#ffffff"
   d="m 36.005922,50.218285 c -0.20251,0.0016 -0.40602,0.0066 -0.61132,0.01758 -3.09755,0.16534 -5.68025,1.304081 -7.63868,3.369141 -1.44457,1.52323 -2.21203,2.870436 -2.88475,5.060546 -0.49497,1.611283 -0.53534,5.600995 0,7.34961 0.66951,2.18685 1.57926,3.767672 2.96678,5.164062 1.5336,1.5434 3.42545,2.57396 5.68165,3.09375 1.18874,0.27388 4.60842,0.162457 5.81054,-0.189453 2.17753,-0.63746 4.36602,-2.090991 5.67578,-3.769531 0.84971,-1.08896 1.83562,-3.046399 2.19336,-4.355469 0.8038,-2.94129 0.51676,-6.536927 -0.73633,-9.210937 -0.66723,-1.42383 -1.40609,-2.432888 -2.60156,-3.554688 -2.10331,-1.973681 -4.81777,-2.99867 -7.85547,-2.974609 z m -0.0391,5.361328 c 1.03279,-0.0061 2.07564,0.222087 2.99024,0.685547 2.04328,1.0354 3.38162,3.78194 3.19921,6.5625 -0.20704,3.15593 -1.85332,5.364644 -4.51757,6.058594 v -0.002 c -0.90264,0.235411 -2.39979,0.235821 -3.2754,0 -2.09726,-0.564819 -3.64554,-2.190575 -4.23828,-4.447265 -0.25663,-0.97713 -0.28592,-3.027965 -0.0566,-3.984375 0.42465,-1.77134 1.59755,-3.414044 2.96485,-4.152344 0.87788,-0.474015 1.9008,-0.714617 2.93359,-0.720703 z m 23.97856,-5.253906 c -1.02619,0.0013 -2.05357,0.08269 -2.83594,0.24414 -3.82117,0.78851 -6.14744,3.487233 -6.14844,7.132813 -8.8e-4,2.2025 0.87544,3.853525 2.66406,5.015625 0.97335,0.63241 2.14214,1.069265 5.14258,1.921875 2.7698,0.78707 4.12549,1.345324 4.53906,1.871094 0.35268,0.4483 0.37077,1.345388 0.0371,1.892578 -0.51964,0.85216 -2.36714,1.31934 -4.20312,1.0625 -1.82047,-0.25467 -2.9381,-0.764331 -4.36133,-1.988282 -1.22631,-1.05459 -2.01835,-1.256091 -3.02344,-0.769531 -1.02065,0.49409 -1.80083,1.628851 -1.79882,2.619141 8.4e-4,0.51182 0.5449,1.521984 1.1582,2.152344 1.26581,1.30101 3.48361,2.350666 5.8789,2.785156 1.47599,0.26777 4.63406,0.233091 6.11329,-0.06836 3.74819,-0.763829 5.87627,-3.085344 6.06445,-6.615234 0.11955,-2.24251 -0.47772,-3.909854 -1.85352,-5.183594 -1.28425,-1.18899 -2.47548,-1.690574 -6.42578,-2.708984 -3.67794,-0.94818 -4.51046,-1.473507 -4.39844,-2.773438 0.0959,-1.112279 1.0898,-1.71289 2.83399,-1.71289 1.52513,0 2.71684,0.426631 4.50586,1.613281 1.03778,0.6883 1.21045,0.761719 1.80078,0.761719 0.83872,0 1.67016,-0.524311 2.26172,-1.425781 0.56032,-0.85387 0.64964,-1.39927 0.33984,-2.09961 -0.69429,-1.56957 -2.85907,-2.952004 -5.46679,-3.490234 -0.77282,-0.159535 -1.79804,-0.2376 -2.82422,-0.236328 z m 29.75976,0.376953 c -0.74633,0 -0.9161,0.0477 -1.45117,0.40625 -0.36107,0.24196 -0.73478,0.63373 -0.92187,0.96875 l -0.3125,0.5625 -0.0742,6.3125 c -0.0603,5.17337 -0.10934,6.427518 -0.26758,6.955078 -0.7018,2.33973 -2.10415,3.257217 -4.8125,3.148438 -1.11515,-0.04479 -1.33098,-0.09279 -2.10742,-0.482422 -1.03597,-0.51985 -1.54591,-1.133984 -1.94922,-2.345704 -0.26985,-0.81063 -0.28186,-1.04761 -0.34766,-7.15039 -0.0676,-6.26796 -0.07,-6.316895 -0.35547,-6.896484 -0.51871,-1.05299 -1.43102,-1.534485 -2.76758,-1.458985 -0.72121,0.04075 -0.96429,0.114121 -1.4082,0.425781 -0.29515,0.20722 -0.67578,0.627274 -0.84765,0.933594 l -0.3125,0.558594 -0.0391,6 c -0.0438,6.78914 0.0198,7.719067 0.67188,9.679687 0.52605,1.58173 1.46263,2.982569 2.61719,3.917969 0.93521,0.75769 2.72296,1.627546 3.875,1.884766 0.48125,0.10745 0.9875,0.221206 1.125,0.253906 0.1375,0.0323 1.26249,0.04334 2.5,0.02344 2.02549,-0.03251 2.36058,-0.07054 3.36914,-0.375 2.27957,-0.68814 3.88249,-1.808106 4.97656,-3.478516 0.79108,-1.2078 1.114,-1.940938 1.48633,-3.367188 0.25761,-0.987 0.27456,-1.363282 0.32226,-7.445312 0.0566,-7.21751 0.0407,-7.39094 -0.78711,-8.21875 -0.59672,-0.59671 -1.17814,-0.8125 -2.18164,-0.8125 z m 10.15625,-7.486328 c -0.11729,-0.0017 -0.23183,9.37e-4 -0.33984,0.0078 -0.9826,0.06257 -1.65661,0.47499 -2.15235,1.31836 l -0.3496,0.597656 -0.0371,8.5625 c -0.0317,7.66957 -0.0127,8.617386 0.16992,9.097656 0.3468,0.91206 0.94729,1.469996 1.92773,1.791016 0.965328,0.31607 2.483608,-0.237105 3.058598,-1.115235 0.56561,-0.86384 0.57951,-1.114527 0.54101,-9.898437 -0.0363,-8.28106 -0.0377,-8.316272 -0.31055,-8.826172 -0.34308,-0.64113 -1.00163,-1.227791 -1.60156,-1.425781 -0.18999,-0.06269 -0.55438,-0.104149 -0.906248,-0.109375 z m -0.10156,23.929687 c -0.5356,9.26e-4 -1.06323,0.09855 -1.46484,0.292969 -1.7171,0.83123 -2.57068,2.705502 -2.02344,4.445312 0.28123,0.89413 1.13515,1.870901 1.99414,2.28125 0.54347,0.26002 0.77151,0.29376 1.69922,0.25586 0.898958,-0.03671 1.167528,-0.100448 1.666008,-0.392578 1.08341,-0.63492 1.59396,-1.352266 1.82422,-2.566406 0.31017,-1.63554 -0.60212,-3.316854 -2.18554,-4.027344 -0.42989,-0.193125 -0.97417,-0.289989 -1.509768,-0.289063 z" /></svg>
