<?xml version="1.0" encoding="UTF-8" standalone="no"?>
<svg
   viewBox="0 0 128 128"
   style="display:inline;enable-background:new"
   version="1.0"
   id="svg11300"
   height="128"
   width="128"
   xml:space="preserve"
   xmlns:xlink="http://www.w3.org/1999/xlink"
   xmlns="http://www.w3.org/2000/svg"
   xmlns:svg="http://www.w3.org/2000/svg"
   xmlns:rdf="http://www.w3.org/1999/02/22-rdf-syntax-ns#"
   xmlns:cc="http://creativecommons.org/ns#"
   xmlns:dc="http://purl.org/dc/elements/1.1/"><title
     id="title4162">Adwaita Icon Template</title><defs
     id="defs3"><linearGradient
       id="linearGradient10"><stop
         style="stop-color:#136a77;stop-opacity:1;"
         offset="0"
         id="stop11" /><stop
         style="stop-color:#6ed8e8;stop-opacity:1;"
         offset="0.41105348"
         id="stop13" /><stop
         style="stop-color:#136a77;stop-opacity:1;"
         offset="0.80693358"
         id="stop18" /><stop
         style="stop-color:#58d2e4;stop-opacity:1;"
         offset="1"
         id="stop12" /></linearGradient><linearGradient
       id="linearGradient9"><stop
         style="stop-color:#000000;stop-opacity:1;"
         offset="0.19312948"
         id="stop10" /><stop
         style="stop-color:#4a4f5e;stop-opacity:1;"
         offset="0.69428509"
         id="stop8" /><stop
         id="stop7"
         offset="1"
         style="stop-color:#000000;stop-opacity:1;" /></linearGradient><linearGradient
       xlink:href="#linearGradient9"
       id="linearGradient4"
       x1="141.66055"
       y1="63.810619"
       x2="241.66014"
       y2="63.810619"
       gradientUnits="userSpaceOnUse"
       gradientTransform="translate(-127.66035,2.1893324)" /><linearGradient
       xlink:href="#linearGradient10"
       id="linearGradient12"
       x1="166.66125"
       y1="63.272135"
       x2="218.76685"
       y2="63.272135"
       gradientUnits="userSpaceOnUse"
       gradientTransform="translate(-127.66035,2.1893324)" /></defs><metadata
     id="metadata4"><rdf:RDF><cc:Work
         rdf:about=""><dc:format>image/svg+xml</dc:format><dc:type
           rdf:resource="http://purl.org/dc/dcmitype/StillImage" /><dc:creator><cc:Agent><dc:title>GNOME Design Team</dc:title></cc:Agent></dc:creator><dc:source /><cc:license
           rdf:resource="http://creativecommons.org/licenses/by-sa/4.0/" /><dc:title>Adwaita Icon Template</dc:title><dc:subject><rdf:Bag /></dc:subject><dc:date /><dc:rights><cc:Agent><dc:title /></cc:Agent></dc:rights><dc:publisher><cc:Agent><dc:title /></cc:Agent></dc:publisher><dc:identifier /><dc:relation /><dc:language /><dc:coverage /><dc:description /><dc:contributor><cc:Agent><dc:title /></cc:Agent></dc:contributor></cc:Work><cc:License
         rdf:about="http://creativecommons.org/licenses/by-sa/4.0/"><cc:permits
           rdf:resource="http://creativecommons.org/ns#Reproduction" /><cc:permits
           rdf:resource="http://creativecommons.org/ns#Distribution" /><cc:requires
           rdf:resource="http://creativecommons.org/ns#Notice" /><cc:requires
           rdf:resource="http://creativecommons.org/ns#Attribution" /><cc:permits
           rdf:resource="http://creativecommons.org/ns#DerivativeWorks" /><cc:requires
           rdf:resource="http://creativecommons.org/ns#ShareAlike" /></cc:License></rdf:RDF></metadata><path
     style="fill:url(#linearGradient4);fill-opacity:1;stroke-width:0.390809"
     d="m 14.00021,88.496086 c 0,-29.788714 0.0494,-30.634455 2.1879,-37.443837 4.67526,-14.887123 16.96204,-27.288136 32.04415,-32.342061 7.6794,-2.57332 6.60512,-2.488608 33.76236,-2.662315 17.5235,-0.112085 25.24651,-0.03082 26.28594,0.276623 1.8714,0.553512 4.01891,2.432389 5.01724,4.389654 0.75629,1.482727 0.77312,2.198307 0.63548,27.005407 -0.15359,27.677855 -0.10855,27.055813 -2.48189,34.276366 -4.82503,14.679499 -16.78308,26.777817 -31.26333,31.630077 -6.2774,2.10352 -9.24912,2.37025 -26.42675,2.37199 l -15.53321,0.002 V 104.66031 93.321061 l 2.84357,2.260104 c 5.14334,4.087992 11.90327,6.722515 19.39255,7.557775 15.70163,1.75116 31.22107,-6.754515 38.29051,-20.985741 9.27772,-18.676636 1.5122,-41.327427 -17.34626,-50.596287 -6.22021,-3.057211 -8.92777,-3.644451 -16.80322,-3.644451 -5.6014,0 -7.12011,0.132101 -9.68482,0.84241 -12.8397,3.556019 -23.06674,13.299059 -26.96236,25.686382 -1.67874,5.338085 -1.84163,8.508007 -1.84281,35.860156 l -9.6e-4,25.698151 h -6.05697 -6.05698 z"
     id="path3" /><path
     style="fill:url(#linearGradient12);fill-opacity:1;stroke-width:0.39411"
     d="M 59.25664,90.918053 C 54.75531,89.952032 50.41762,87.503041 46.80274,83.886806 41.33897,78.42099 38.99287,72.900753 39.00092,65.529509 c 0.008,-7.443565 2.43694,-13.330941 7.66293,-18.574744 2.4536,-2.461958 3.68228,-3.338199 6.71379,-4.787982 4.64281,-2.220378 7.05634,-2.784643 11.79292,-2.757103 7.12671,0.04143 13.09131,2.530827 18.16955,7.583251 4.85381,4.829139 7.31923,10.307308 7.72175,17.157728 0.99868,16.996565 -14.91747,30.391652 -31.80522,26.767394 z"
     id="path9" /><path
     style="fill:#21bbd1;fill-opacity:1;stroke-width:0.39411"
     d="M 59.25664,86.918053 C 54.75531,85.952032 50.41762,83.503041 46.80274,79.886806 41.33897,74.42099 38.99287,68.900753 39.00092,61.529509 c 0.008,-7.443565 2.43694,-13.330941 7.66293,-18.574744 2.4536,-2.461958 3.68228,-3.338199 6.71379,-4.787982 4.64281,-2.220378 7.05634,-2.784643 11.79292,-2.757103 7.12671,0.04143 13.09131,2.530827 18.16955,7.583251 4.85381,4.829139 7.31923,10.307308 7.72175,17.157728 0.99868,16.996565 -14.91747,30.391652 -31.80522,26.767394 z"
     id="path2" /><path
     style="fill:#20222d;fill-opacity:1;stroke-width:0.390809"
     d="m 14.00021,84.496086 c 0,-29.788714 0.0494,-30.634455 2.1879,-37.443837 4.67526,-14.887123 16.96204,-27.288136 32.04415,-32.342061 7.6794,-2.573319 6.60512,-2.488608 33.76236,-2.662314 17.5235,-0.112085 25.24651,-0.03082 26.28594,0.276622 1.8714,0.553512 4.01891,2.432389 5.01724,4.389654 0.75629,1.482727 0.77312,2.198307 0.63548,27.005407 -0.15359,27.677855 -0.10855,27.055813 -2.48189,34.276366 -4.82503,14.679499 -16.78308,26.777817 -31.26333,31.630077 -6.2774,2.10352 -9.24912,2.37025 -26.42675,2.37199 l -15.53321,0.002 V 100.66031 89.321061 l 2.84357,2.260104 c 5.14334,4.087992 11.90327,6.722512 19.39255,7.557774 15.70163,1.751171 31.22107,-6.754514 38.29051,-20.98574 9.27772,-18.676636 1.5122,-41.327427 -17.34626,-50.596287 -6.22021,-3.057211 -8.92777,-3.644451 -16.80322,-3.644451 -5.6014,0 -7.12011,0.132101 -9.68482,0.84241 -12.8397,3.556019 -23.06674,13.299059 -26.96236,25.686382 -1.67874,5.338085 -1.84163,8.508007 -1.84281,35.860156 l -9.6e-4,25.698151 h -6.05697 -6.05698 z"
     id="path1" /><rect
     style="display:none;fill:none;stroke-width:0.230314"
     id="rect4772"
     y="-126.66715"
     x="-246.86746"
     height="117.92091"
     width="117.92091" /><g
     style="display:none"
     id="g4788"
     transform="matrix(0.23031428,0,0,0.23031428,-246.90685,-126.71345)"><g
       style="display:inline"
       id="g4790" /></g><g
     style="display:none"
     id="g4806"
     transform="matrix(0.23031428,0,0,0.23031428,-246.90685,-126.71345)"><g
       style="display:inline"
       id="g4808"><path
         style="display:none;fill:#050505"
         id="path4810"
         d="m 349.098,256.651 c -0.265,-0.254 37.637,27.605 39.421,25.012 6.362,-9.252 82.046,-93.137 84.784,-116.236 0.242,-2.003 -0.516,-4.096 -0.516,-4.096 0,0 -1.19,-0.144 -6.325,-4.314 -2.692,-2.192 -5.483,-4.581 -5.483,-4.581 -16.054,0.998 -57.885,41.559 -111.062,103.568" /></g></g></svg>
