<?xml version="1.0" encoding="UTF-8" standalone="no"?>
<svg
   viewBox="0 0 128 128"
   style="display:inline;enable-background:new"
   version="1.0"
   id="svg11300"
   height="128"
   width="128"
   xmlns:xlink="http://www.w3.org/1999/xlink"
   xmlns="http://www.w3.org/2000/svg"
   xmlns:svg="http://www.w3.org/2000/svg"
   xmlns:rdf="http://www.w3.org/1999/02/22-rdf-syntax-ns#"
   xmlns:cc="http://creativecommons.org/ns#"
   xmlns:dc="http://purl.org/dc/elements/1.1/">
  <title
     id="title4162">Adwaita Icon Template</title>
  <defs
     id="defs3">
    <linearGradient
       id="linearGradient38">
      <stop
         style="stop-color:#666666;stop-opacity:1;"
         offset="0"
         id="stop38" />
      <stop
         style="stop-color:#ffffff;stop-opacity:1;"
         offset="0.03683373"
         id="stop40" />
      <stop
         style="stop-color:#666666;stop-opacity:1;"
         offset="0.13417496"
         id="stop41" />
      <stop
         style="stop-color:#595959;stop-opacity:1;"
         offset="0.86769938"
         id="stop42" />
      <stop
         style="stop-color:#ffffff;stop-opacity:1;"
         offset="0.95517266"
         id="stop43" />
      <stop
         style="stop-color:#666666;stop-opacity:1;"
         offset="1"
         id="stop39" />
    </linearGradient>
    <linearGradient
       id="linearGradient2">
      <stop
         style="stop-color:#ffffff;stop-opacity:1;"
         offset="0"
         id="stop2" />
      <stop
         style="stop-color:#808080;stop-opacity:1;"
         offset="1"
         id="stop4" />
    </linearGradient>
    <linearGradient
       xlink:href="#linearGradient9"
       id="linearGradient10"
       x1="142.10864"
       y1="101.56121"
       x2="175.23656"
       y2="101.56121"
       gradientUnits="userSpaceOnUse"
       gradientTransform="matrix(0.90492899,0,0,0.90786554,-49.7042,-57.312532)" />
    <linearGradient
       id="linearGradient9">
      <stop
         style="stop-color:#6f9ccd;stop-opacity:1;"
         offset="0"
         id="stop9" />
      <stop
         style="stop-color:#3f76b3;stop-opacity:1;"
         offset="1"
         id="stop10-7" />
    </linearGradient>
    <linearGradient
       xlink:href="#linearGradient3"
       id="linearGradient4"
       x1="135.23257"
       y1="142.90083"
       x2="182.00491"
       y2="142.90083"
       gradientUnits="userSpaceOnUse"
       gradientTransform="matrix(0.90492899,0,0,0.90786554,-49.054918,-57.312653)" />
    <linearGradient
       id="linearGradient3">
      <stop
         style="stop-color:#f2f2f2;stop-opacity:1;"
         offset="0"
         id="stop3" />
      <stop
         style="stop-color:#c3c3c3;stop-opacity:1;"
         offset="1"
         id="stop4-5" />
    </linearGradient>
    <linearGradient
       xlink:href="#linearGradient5"
       id="linearGradient6"
       x1="139.17999"
       y1="136.83136"
       x2="178.05748"
       y2="136.83136"
       gradientUnits="userSpaceOnUse"
       gradientTransform="matrix(0.90492899,0,0,0.90786554,-49.05491,-57.312652)" />
    <linearGradient
       id="linearGradient5">
      <stop
         style="stop-color:#729fcf;stop-opacity:1;"
         offset="0"
         id="stop6-3" />
      <stop
         style="stop-color:#325c89;stop-opacity:1;"
         offset="1"
         id="stop5" />
    </linearGradient>
    <linearGradient
       xlink:href="#linearGradient7"
       id="linearGradient8"
       x1="156.55907"
       y1="156.12584"
       x2="159.06311"
       y2="173.48943"
       gradientUnits="userSpaceOnUse"
       gradientTransform="matrix(0.90492899,0,0,0.90786554,-49.7042,-57.312533)" />
    <linearGradient
       id="linearGradient7">
      <stop
         style="stop-color:#aeaeae;stop-opacity:1;"
         offset="0"
         id="stop7" />
      <stop
         style="stop-color:#d6d6d6;stop-opacity:1;"
         offset="1"
         id="stop8-5" />
    </linearGradient>
    <linearGradient
       gradientUnits="userSpaceOnUse"
       y2="359.92355"
       x2="944.20746"
       y1="350.85599"
       x1="953.27502"
       id="linearGradient1492"
       xlink:href="#linearGradient27905"
       gradientTransform="matrix(-0.37415073,0,0,0.36841441,412.08266,-60.918859)" />
    <linearGradient
       id="linearGradient27905">
      <stop
         id="stop27901"
         offset="0"
         style="stop-color:#e9b96e;stop-opacity:1;" />
      <stop
         id="stop27903"
         offset="1"
         style="stop-color:#dc9321;stop-opacity:1" />
    </linearGradient>
    <linearGradient
       y2="216.9192"
       x2="428.91922"
       y1="227"
       x1="418.83841"
       gradientUnits="userSpaceOnUse"
       id="linearGradient1506"
       xlink:href="#linearGradient27913"
       gradientTransform="matrix(-0.37415073,0,0,0.36841441,187.59223,17.184995)" />
    <linearGradient
       id="linearGradient27913">
      <stop
         id="stop27909"
         offset="0"
         style="stop-color:#bcbcb4;stop-opacity:1" />
      <stop
         id="stop27911"
         offset="1"
         style="stop-color:#eeeeec;stop-opacity:1" />
    </linearGradient>
    <radialGradient
       r="39.999989"
       fy="225.39462"
       fx="450.94806"
       cy="225.39462"
       cx="450.94806"
       gradientTransform="matrix(-0.61603231,0,0,0.60658759,301.8133,-42.82238)"
       gradientUnits="userSpaceOnUse"
       id="radialGradient1425"
       xlink:href="#linearGradient27897" />
    <linearGradient
       id="linearGradient27897">
      <stop
         id="stop27893"
         offset="0"
         style="stop-color:#505050;stop-opacity:1" />
      <stop
         id="stop27895"
         offset="1"
         style="stop-color:#000000;stop-opacity:1" />
    </linearGradient>
    <linearGradient
       xlink:href="#linearGradient2"
       id="linearGradient23"
       x1="-150.51106"
       y1="110.9742"
       x2="-150.51106"
       y2="145.00363"
       gradientUnits="userSpaceOnUse"
       gradientTransform="matrix(1.0006358,0,0,1.0038829,245.31401,-23.741721)" />
    <linearGradient
       xlink:href="#linearGradient38"
       id="linearGradient39"
       x1="-176.13737"
       y1="122.92583"
       x2="-125.10495"
       y2="122.92583"
       gradientUnits="userSpaceOnUse"
       gradientTransform="matrix(1,0,0,0.99923129,245.10497,-12.352647)" />
  </defs>
  <metadata
     id="metadata4">
    <rdf:RDF>
      <cc:Work
         rdf:about="">
        <dc:format>image/svg+xml</dc:format>
        <dc:type
           rdf:resource="http://purl.org/dc/dcmitype/StillImage" />
        <dc:creator>
          <cc:Agent>
            <dc:title>GNOME Design Team</dc:title>
          </cc:Agent>
        </dc:creator>
        <dc:source />
        <cc:license
           rdf:resource="http://creativecommons.org/licenses/by-sa/4.0/" />
        <dc:title>Adwaita Icon Template</dc:title>
        <dc:subject>
          <rdf:Bag />
        </dc:subject>
        <dc:date />
        <dc:rights>
          <cc:Agent>
            <dc:title />
          </cc:Agent>
        </dc:rights>
        <dc:publisher>
          <cc:Agent>
            <dc:title />
          </cc:Agent>
        </dc:publisher>
        <dc:identifier />
        <dc:relation />
        <dc:language />
        <dc:coverage />
        <dc:description />
        <dc:contributor>
          <cc:Agent>
            <dc:title />
          </cc:Agent>
        </dc:contributor>
      </cc:Work>
      <cc:License
         rdf:about="http://creativecommons.org/licenses/by-sa/4.0/">
        <cc:permits
           rdf:resource="http://creativecommons.org/ns#Reproduction" />
        <cc:permits
           rdf:resource="http://creativecommons.org/ns#Distribution" />
        <cc:requires
           rdf:resource="http://creativecommons.org/ns#Notice" />
        <cc:requires
           rdf:resource="http://creativecommons.org/ns#Attribution" />
        <cc:permits
           rdf:resource="http://creativecommons.org/ns#DerivativeWorks" />
        <cc:requires
           rdf:resource="http://creativecommons.org/ns#ShareAlike" />
      </cc:License>
    </rdf:RDF>
  </metadata>
  <path
     id="path38"
     style="display:inline;fill:url(#linearGradient39);stroke-width:0.249842;marker:none;marker-start:none;marker-mid:none;marker-end:none;enable-background:new"
     d="m 72.96612,104.95734 h 43.03539 c 2.21516,0 3.99851,1.78241 3.99851,3.9964 v 3.0499 c 0,2.214 -1.78335,3.99641 -3.99851,3.99641 H 72.96612 c -2.21519,0 -3.99852,-1.78241 -3.99852,-3.99641 v -3.0499 c 0,-2.21399 1.78333,-3.9964 3.99852,-3.9964 z" />
  <path
     id="path1899"
     d="M 117.25131,14.402707 23.14714,107.25657 c -1.74235,1.78655 -4.6351,1.8154 -6.41381,0.064 -1.77875,-1.75145 -1.74945,-4.59986 0.0649,-6.31548 l 87.93656,-86.602383 c 3.88453,-3.280623 9.34218,-3.125658 12.51651,0 z"
     style="color:#000000;font-style:normal;font-variant:normal;font-weight:normal;font-stretch:normal;font-size:medium;line-height:normal;font-family:sans-serif;font-variant-ligatures:normal;font-variant-position:normal;font-variant-caps:normal;font-variant-numeric:normal;font-variant-alternates:normal;font-feature-settings:normal;text-indent:0;text-align:start;text-decoration:none;text-decoration-line:none;text-decoration-style:solid;text-decoration-color:#000000;letter-spacing:normal;word-spacing:normal;text-transform:none;writing-mode:lr-tb;direction:ltr;text-orientation:mixed;dominant-baseline:auto;baseline-shift:baseline;text-anchor:start;white-space:normal;shape-padding:0;clip-rule:nonzero;display:inline;overflow:visible;visibility:visible;isolation:auto;mix-blend-mode:normal;color-interpolation:sRGB;color-interpolation-filters:linearRGB;solid-color:#000000;solid-opacity:1;fill:url(#linearGradient1492);fill-opacity:1;fill-rule:nonzero;stroke:none;stroke-width:1.47663;stroke-linecap:round;stroke-linejoin:miter;stroke-miterlimit:4;stroke-dasharray:none;stroke-dashoffset:0;stroke-opacity:1;color-rendering:auto;image-rendering:auto;shape-rendering:auto;text-rendering:auto;enable-background:accumulate" />
  <path
     id="path1899-3"
     d="m 54.35169,64.109348 c 6.13962,-0.895747 8.02422,6.434724 4.17045,10.122757 L 24.20601,108.29921 c -5.64422,5.65043 -14.20503,-2.77914 -8.46662,-8.336822 L 50.05553,65.895294 c 1.12806,-1.142588 2.44717,-1.516377 4.29616,-1.785946 z"
     style="color:#000000;font-style:normal;font-variant:normal;font-weight:normal;font-stretch:normal;font-size:medium;line-height:normal;font-family:sans-serif;font-variant-ligatures:normal;font-variant-position:normal;font-variant-caps:normal;font-variant-numeric:normal;font-variant-alternates:normal;font-feature-settings:normal;text-indent:0;text-align:start;text-decoration:none;text-decoration-line:none;text-decoration-style:solid;text-decoration-color:#000000;letter-spacing:normal;word-spacing:normal;text-transform:none;writing-mode:lr-tb;direction:ltr;text-orientation:mixed;dominant-baseline:auto;baseline-shift:baseline;text-anchor:start;white-space:normal;shape-padding:0;clip-rule:nonzero;display:inline;overflow:visible;visibility:visible;isolation:auto;mix-blend-mode:normal;color-interpolation:sRGB;color-interpolation-filters:linearRGB;solid-color:#000000;solid-opacity:1;fill:url(#linearGradient1506);fill-opacity:1;fill-rule:nonzero;stroke:none;stroke-width:1.96885;stroke-linecap:round;stroke-linejoin:miter;stroke-miterlimit:4;stroke-dasharray:none;stroke-dashoffset:0;stroke-opacity:1;color-rendering:auto;image-rendering:auto;shape-rendering:auto;text-rendering:auto;enable-background:new" />
  <path
     id="path1901"
     d="m 22.966,86.446907 c 8.2655,0 14.96603,6.597781 14.96603,14.736583 0,8.13878 -6.70053,14.73656 -14.96603,14.73656 H 7.99997 v -14.73656 c 0,-8.138802 6.70052,-14.736583 14.96603,-14.736583 z"
     style="fill:url(#radialGradient1425);fill-opacity:1;stroke:none;stroke-width:1.47663;stroke-linecap:round;stroke-linejoin:miter;stroke-miterlimit:4;stroke-dasharray:none;stroke-dashoffset:0;stroke-opacity:1;marker:none;marker-start:none;marker-mid:none;marker-end:none;paint-order:normal" />
  <path
     id="circle21711-7-41-9"
     style="display:inline;overflow:visible;fill:#7a8599;stroke-width:0.440814;marker:none;enable-background:new"
     d="m 22.08493,93.945938 a 2.3776841,2.3412304 0 0 1 2.37769,-2.34123 2.3776841,2.3412304 0 0 1 2.37768,2.34123 2.3776841,2.3412304 0 0 1 -2.37768,2.34123 2.3776841,2.3412304 0 0 1 -2.37769,-2.34123 z" />
  <path
     id="rect1711-4"
     style="display:inline;fill:url(#linearGradient23);stroke-width:0.249842;marker:none;marker-start:none;marker-mid:none;marker-end:none;enable-background:new"
     d="m 72.96612,102.95888 h 43.03539 c 2.21516,0 3.99851,1.7824 3.99851,3.9964 v 3.04989 c 0,2.21401 -1.78335,3.99642 -3.99851,3.99642 H 72.96612 c -2.21519,0 -3.99852,-1.78241 -3.99852,-3.99642 v -3.04989 c 0,-2.214 1.78333,-3.9964 3.99852,-3.9964 z" />
  <path
     id="path8"
     style="display:inline;fill:url(#linearGradient10);stroke-width:0.119909"
     d="m 93.752663,25.763588 c -1.423371,-0.0132 -4.808693,0.09263 -9.118888,1.150831 -4.330311,1.119576 -5.398127,2.823775 -5.657815,3.512474 -0.06144,0.162949 -0.0819,0.446165 -0.0819,0.620856 v 9.966904 c 0,0.157878 0.04308,0.406588 0.109126,0.549813 0.259253,0.561896 1.012905,1.872545 2.601752,2.455722 l 12.949624,-0.861519 12.808178,0.861519 c 1.47731,-0.542232 2.23257,-1.713379 2.53973,-2.326823 0.10595,-0.211588 0.17116,-0.585047 0.17116,-0.822127 v -9.674214 c 0,-0.257133 -0.0332,-0.674955 -0.13942,-0.907988 -0.34551,-0.757753 -1.53571,-2.323729 -5.60034,-3.374617 -5.746926,-1.410934 -9.850263,-1.128781 -9.850263,-1.128781 0,0 -0.256457,-0.01765 -0.730911,-0.02205 z" />
  <path
     id="path10"
     style="display:inline;fill:#3465a4;stroke-width:0.178638"
     d="m 106.66727,41.747076 a 12.183698,1.5490608 0 0 1 -12.1837,1.549061 12.183698,1.5490608 0 0 1 -12.1837,-1.549061 12.183698,1.5490608 0 0 1 12.1837,-1.549061 12.183698,1.5490608 0 0 1 12.1837,1.549061 z" />
  <path
     id="path2"
     style="display:inline;fill:url(#linearGradient4);stroke-width:0.126184"
     d="m 89.68384,42.310586 -6.121672,0.542232 c -0.787271,0.06972 -1.501404,0.4914 -1.94443,1.148014 l -5.009769,7.427157 c -0.458111,0.678965 -0.722495,1.470661 -0.764583,2.289464 L 73.32096,102.95876 h 21.162823 21.162827 l -2.52243,-49.241307 c -0.0421,-0.818803 -0.30647,-1.610499 -0.76458,-2.289464 l -5.00977,-7.427157 c -0.44313,-0.656732 -1.15746,-1.078381 -1.9449,-1.148014 l -6.121205,-0.542214 a 54.576211,54.753314 0 0 0 -9.599885,-1.8e-5 z" />
  <path
     id="rect2"
     style="display:inline;fill:url(#linearGradient6);stroke-width:0.129853"
     d="m 78.230022,58.262363 c 1.797759,-0.280903 6.897694,-0.936791 15.505913,-0.973078 0.413018,-0.0018 1.083164,-0.0018 1.496798,0 8.624807,0.03622 13.712737,0.691775 15.506057,0.972823 0.40801,0.06391 0.74816,0.462458 0.76183,0.877207 l 0.54908,16.645633 c 0.0137,0.41475 -0.29792,0.659111 -0.69947,0.559463 -1.95052,-0.484037 -7.73881,-1.723119 -16.119724,-1.793579 -0.412394,-0.0036 -1.082059,-0.0036 -1.495675,3.45e-4 -8.041453,0.07454 -14.100016,1.328997 -16.116496,1.804229 -0.401743,0.09468 -0.714143,-0.155708 -0.70046,-0.570458 l 0.549111,-16.645633 c 0.01366,-0.414749 0.354379,-0.813102 0.763036,-0.876952 z" />
  <path
     id="rect6"
     style="display:inline;fill:#ffffff;stroke-width:0.132083"
     d="m 82.933419,43.015876 c 1.526084,-0.27129 5.486009,-0.867492 11.032892,-0.914974 0.38946,-0.003 1.021323,-0.003 1.411242,2.7e-4 5.357937,0.0498 9.462597,0.653434 11.031567,0.921114 0.38403,0.0655 0.86305,0.394414 1.0716,0.724977 l 5.1505,8.139819 c 0.20855,0.330563 0.0657,0.5468 -0.32015,0.489948 -1.96891,-0.29012 -9.10945,-2.877718 -17.127226,-2.921279 -0.38952,-0.002 -1.021403,-0.002 -1.411342,4e-5 -7.942437,0.0441 -15.167204,2.624493 -17.14776,2.913233 -0.385513,0.0562 -0.518935,-0.154705 -0.299,-0.477757 l 5.51595,-8.157605 c 0.219934,-0.323052 0.707779,-0.649534 1.091727,-0.717786 z" />
  <path
     id="path7"
     style="display:inline;opacity:0.900635;fill:url(#linearGradient8);stroke-width:0.11991"
     d="m 94.48357,82.37246 c -15.46551,0 -18.3673,20.58642 -18.3673,20.58642 h 18.3673 18.36778 c 0,0 -2.90225,-20.58642 -18.36778,-20.58642 z" />
</svg>
