<?xml version="1.0" encoding="UTF-8" standalone="no"?>
<svg
   viewBox="0 0 128 128"
   style="display:inline;enable-background:new"
   version="1.0"
   id="svg11300"
   height="128"
   width="128"
   xml:space="preserve"
   xmlns:xlink="http://www.w3.org/1999/xlink"
   xmlns="http://www.w3.org/2000/svg"
   xmlns:svg="http://www.w3.org/2000/svg"
   xmlns:rdf="http://www.w3.org/1999/02/22-rdf-syntax-ns#"
   xmlns:cc="http://creativecommons.org/ns#"
   xmlns:dc="http://purl.org/dc/elements/1.1/"><title
     id="title4162">Adwaita Icon Template</title><defs
     id="defs3"><linearGradient
       id="linearGradient974"><stop
         style="stop-color:#2e114a;stop-opacity:1;"
         offset="0"
         id="stop962" /><stop
         id="stop964"
         offset="0.04166667"
         style="stop-color:#61249e;stop-opacity:1;" /><stop
         style="stop-color:#2e114a;stop-opacity:1;"
         offset="0.08333334"
         id="stop966" /><stop
         id="stop968"
         offset="0.91666669"
         style="stop-color:#2e114a;stop-opacity:1;" /><stop
         style="stop-color:#62249e;stop-opacity:1;"
         offset="0.95833331"
         id="stop970" /><stop
         style="stop-color:#2e114a;stop-opacity:1;"
         offset="1"
         id="stop972" /></linearGradient><linearGradient
       y2="44"
       x2="464"
       y1="44"
       x1="48"
       gradientTransform="matrix(0.25,0,0,0.25,0,53)"
       gradientUnits="userSpaceOnUse"
       id="linearGradient1747"
       xlink:href="#linearGradient974" /><linearGradient
       xlink:href="#paint0_linear_1_2"
       id="linearGradient1455"
       x1="64"
       y1="12"
       x2="64"
       y2="112"
       gradientUnits="userSpaceOnUse" /><filter
       id="filter0_d_1_2"
       x="189"
       y="194.416"
       width="645"
       height="642.167"
       filterUnits="userSpaceOnUse"
       color-interpolation-filters="sRGB"><feFlood
         flood-opacity="0"
         result="BackgroundImageFix"
         id="feFlood8" /><feColorMatrix
         in="SourceAlpha"
         type="matrix"
         values="0 0 0 0 0 0 0 0 0 0 0 0 0 0 0 0 0 0 127 0"
         result="hardAlpha"
         id="feColorMatrix8" /><feOffset
         dy="4"
         id="feOffset8" /><feGaussianBlur
         stdDeviation="2"
         id="feGaussianBlur8" /><feComposite
         in2="hardAlpha"
         operator="out"
         id="feComposite8" /><feColorMatrix
         type="matrix"
         values="0 0 0 0 0 0 0 0 0 0 0 0 0 0 0 0 0 0 0.25 0"
         id="feColorMatrix9" /><feBlend
         mode="normal"
         in2="BackgroundImageFix"
         result="effect1_dropShadow_1_2"
         id="feBlend9" /><feBlend
         mode="normal"
         in="SourceGraphic"
         in2="effect1_dropShadow_1_2"
         result="shape"
         id="feBlend10" /></filter><filter
       id="filter1_i_1_2"
       x="225"
       y="227"
       width="573"
       height="568.5"
       filterUnits="userSpaceOnUse"
       color-interpolation-filters="sRGB"><feFlood
         flood-opacity="0"
         result="BackgroundImageFix"
         id="feFlood10" /><feBlend
         mode="normal"
         in="SourceGraphic"
         in2="BackgroundImageFix"
         result="shape"
         id="feBlend11" /><feColorMatrix
         in="SourceAlpha"
         type="matrix"
         values="0 0 0 0 0 0 0 0 0 0 0 0 0 0 0 0 0 0 127 0"
         result="hardAlpha"
         id="feColorMatrix11" /><feOffset
         id="feOffset11" /><feGaussianBlur
         stdDeviation="8"
         id="feGaussianBlur11" /><feComposite
         in2="hardAlpha"
         operator="arithmetic"
         k2="-1"
         k3="1"
         id="feComposite11" /><feColorMatrix
         type="matrix"
         values="0 0 0 0 0 0 0 0 0 0 0 0 0 0 0 0 0 0 1 0"
         id="feColorMatrix12" /><feBlend
         mode="normal"
         in2="shape"
         result="effect1_innerShadow_1_2"
         id="feBlend12" /></filter><filter
       id="filter2_dd_1_2"
       x="286.091"
       y="392.017"
       width="450.579"
       height="237.289"
       filterUnits="userSpaceOnUse"
       color-interpolation-filters="sRGB"><feFlood
         flood-opacity="0"
         result="BackgroundImageFix"
         id="feFlood12" /><feColorMatrix
         in="SourceAlpha"
         type="matrix"
         values="0 0 0 0 0 0 0 0 0 0 0 0 0 0 0 0 0 0 127 0"
         result="hardAlpha"
         id="feColorMatrix13" /><feOffset
         dy="-4"
         id="feOffset13" /><feGaussianBlur
         stdDeviation="5.5"
         id="feGaussianBlur13" /><feComposite
         in2="hardAlpha"
         operator="out"
         id="feComposite13" /><feColorMatrix
         type="matrix"
         values="0 0 0 0 1 0 0 0 0 1 0 0 0 0 1 0 0 0 0.14 0"
         id="feColorMatrix14" /><feBlend
         mode="normal"
         in2="BackgroundImageFix"
         result="effect1_dropShadow_1_2"
         id="feBlend14" /><feColorMatrix
         in="SourceAlpha"
         type="matrix"
         values="0 0 0 0 0 0 0 0 0 0 0 0 0 0 0 0 0 0 127 0"
         result="hardAlpha"
         id="feColorMatrix15" /><feOffset
         dy="4"
         id="feOffset15" /><feGaussianBlur
         stdDeviation="2"
         id="feGaussianBlur15" /><feComposite
         in2="hardAlpha"
         operator="out"
         id="feComposite15" /><feColorMatrix
         type="matrix"
         values="0 0 0 0 0 0 0 0 0 0 0 0 0 0 0 0 0 0 0.25 0"
         id="feColorMatrix16" /><feBlend
         mode="normal"
         in2="effect1_dropShadow_1_2"
         result="effect2_dropShadow_1_2"
         id="feBlend16" /><feBlend
         mode="normal"
         in="SourceGraphic"
         in2="effect2_dropShadow_1_2"
         result="shape"
         id="feBlend17" /></filter><linearGradient
       id="paint0_linear_1_2"
       x1="512"
       y1="100"
       x2="512"
       y2="924"
       gradientUnits="userSpaceOnUse"
       gradientTransform="matrix(0.12135922,0,0,0.12135922,-112.13592,-0.135922)"><stop
         stop-color="#2E114A"
         id="stop17" /><stop
         offset="0.943398"
         stop-color="#07051B"
         id="stop18" /></linearGradient><linearGradient
       id="paint1_linear_1_2"
       x1="511.5"
       y1="210.416"
       x2="511.5"
       y2="812.584"
       gradientUnits="userSpaceOnUse"
       gradientTransform="matrix(0.12135922,0,0,0.12135922,1.92476,-0.135922)"><stop
         stop-color="#2E114A"
         id="stop19" /><stop
         offset="0.943398"
         stop-color="#07051B"
         id="stop20" /></linearGradient><linearGradient
       id="paint2_linear_1_2"
       x1="271.391"
       y1="814"
       x2="271.391"
       y2="209"
       gradientUnits="userSpaceOnUse"><stop
         stop-opacity="0.73"
         id="stop21" /><stop
         offset="1"
         stop-color="#F1F1F1"
         stop-opacity="0.94"
         id="stop22" /></linearGradient><linearGradient
       id="paint3_linear_1_2"
       x1="172.133"
       y1="251.539"
       x2="814"
       y2="814"
       gradientUnits="userSpaceOnUse"><stop
         stop-color="#6AD2FA"
         id="stop23" /><stop
         offset="0.494792"
         stop-color="#7669FA"
         id="stop24" /><stop
         offset="0.744792"
         stop-color="#8850E4"
         id="stop25" /><stop
         offset="1"
         stop-color="#CE0EBB"
         id="stop26" /></linearGradient><linearGradient
       id="paint4_linear_1_2"
       x1="284.297"
       y1="792"
       x2="284.297"
       y2="227"
       gradientUnits="userSpaceOnUse"><stop
         stop-opacity="0.73"
         id="stop27" /><stop
         offset="1"
         stop-color="#F1F1F1"
         stop-opacity="0.94"
         id="stop28" /></linearGradient><linearGradient
       id="paint5_linear_1_2"
       x1="513.915"
       y1="230"
       x2="513.915"
       y2="395.12"
       gradientUnits="userSpaceOnUse"
       gradientTransform="matrix(0.12135922,0,0,0.12135922,1.92476,-0.135922)"><stop
         stop-color="#621EA6"
         stop-opacity="0.89"
         id="stop29" /><stop
         offset="1"
         stop-color="#CCCAD1"
         stop-opacity="0"
         id="stop30" /></linearGradient><linearGradient
       id="paint6_linear_1_2"
       x1="512.464"
       y1="585.234"
       x2="512.464"
       y2="586.234"
       gradientUnits="userSpaceOnUse"
       gradientTransform="matrix(0.12135922,0,0,0.12135922,1.92476,-0.135922)"><stop
         stop-opacity="0"
         id="stop31" /><stop
         offset="0.229167"
         stop-opacity="0.37"
         id="stop32" /><stop
         offset="0.645833"
         stop-opacity="0.046875"
         id="stop33" /><stop
         offset="1"
         stop-opacity="0"
         id="stop34" /></linearGradient><linearGradient
       id="paint7_linear_1_2"
       x1="511.38"
       y1="407.017"
       x2="511.38"
       y2="621.306"
       gradientUnits="userSpaceOnUse"><stop
         stop-color="#E9E9E9"
         id="stop35" /><stop
         offset="1"
         stop-color="#A59ADE"
         id="stop36" /></linearGradient></defs><metadata
     id="metadata4"><rdf:RDF><cc:Work
         rdf:about=""><dc:format>image/svg+xml</dc:format><dc:type
           rdf:resource="http://purl.org/dc/dcmitype/StillImage" /><dc:creator><cc:Agent><dc:title>GNOME Design Team</dc:title></cc:Agent></dc:creator><dc:source /><cc:license
           rdf:resource="http://creativecommons.org/licenses/by-sa/4.0/" /><dc:title>Adwaita Icon Template</dc:title><dc:subject><rdf:Bag /></dc:subject><dc:date /><dc:rights><cc:Agent><dc:title /></cc:Agent></dc:rights><dc:publisher><cc:Agent><dc:title /></cc:Agent></dc:publisher><dc:identifier /><dc:relation /><dc:language /><dc:coverage /><dc:description /><dc:contributor><cc:Agent><dc:title /></cc:Agent></dc:contributor></cc:Work><cc:License
         rdf:about="http://creativecommons.org/licenses/by-sa/4.0/"><cc:permits
           rdf:resource="http://creativecommons.org/ns#Reproduction" /><cc:permits
           rdf:resource="http://creativecommons.org/ns#Distribution" /><cc:requires
           rdf:resource="http://creativecommons.org/ns#Notice" /><cc:requires
           rdf:resource="http://creativecommons.org/ns#Attribution" /><cc:permits
           rdf:resource="http://creativecommons.org/ns#DerivativeWorks" /><cc:requires
           rdf:resource="http://creativecommons.org/ns#ShareAlike" /></cc:License></rdf:RDF></metadata><rect
     ry="8"
     rx="8"
     y="32"
     x="12"
     height="83.999992"
     width="104"
     id="rect1709"
     style="display:inline;fill:url(#linearGradient1747);fill-opacity:1;stroke:none;stroke-width:0.25;stroke-linecap:butt;stroke-linejoin:miter;stroke-miterlimit:4;stroke-dasharray:none;stroke-dashoffset:0;stroke-opacity:1;marker:none;marker-start:none;marker-mid:none;marker-end:none;paint-order:normal;enable-background:new" /><rect
     style="display:inline;fill:url(#linearGradient1455);fill-opacity:1;stroke:none;stroke-width:0.25;stroke-linecap:butt;stroke-linejoin:miter;stroke-miterlimit:4;stroke-dasharray:none;stroke-dashoffset:0;stroke-opacity:1;marker:none;marker-start:none;marker-mid:none;marker-end:none;paint-order:normal;enable-background:new"
     id="rect1711"
     width="104"
     height="100"
     x="12"
     y="12"
     rx="8"
     ry="8" /><path
     fill-rule="evenodd"
     clip-rule="evenodd"
     d="m 64.651336,25.553762 c -0.410073,-0.204976 -0.892597,-0.204976 -1.30267,0 L 28.093813,43.181188 c -0.493326,0.246724 -0.804976,0.750971 -0.804976,1.302549 v 34.911164 c 0,0.551578 0.31165,1.055825 0.804976,1.302549 l 35.254853,17.627426 c 0.410073,0.204976 0.892597,0.204976 1.30267,0 L 99.906189,80.69745 c 0.493331,-0.246724 0.804981,-0.750971 0.804981,-1.302549 V 44.483737 c 0,-0.551578 -0.31165,-1.055825 -0.804981,-1.302549 z"
     fill="url(#paint1_linear_1_2)"
     id="path1"
     style="fill:url(#paint1_linear_1_2);stroke-width:0.121359" /><g
     filter="url(#filter0_d_1_2)"
     id="g3"
     transform="matrix(0.12135922,0,0,0.12135922,1.92476,-0.135922)"
     style="fill:none"><path
       d="m 506.133,211.683 c 3.379,-1.689 7.355,-1.689 10.734,0 l 290.5,145.25 c 4.065,2.033 6.633,6.188 6.633,10.733 v 287.668 c 0,4.545 -2.568,8.7 -6.633,10.733 l -290.5,145.25 c -3.379,1.689 -7.355,1.689 -10.734,0 l -290.5,-145.25 C 211.568,664.034 209,659.879 209,655.334 V 367.666 c 0,-4.545 2.568,-8.7 6.633,-10.733 z"
       fill="url(#paint2_linear_1_2)"
       fill-opacity="0.2"
       shape-rendering="crispEdges"
       id="path2"
       style="fill:url(#paint2_linear_1_2)" /><path
       d="m 506.133,211.683 c 3.379,-1.689 7.355,-1.689 10.734,0 l 290.5,145.25 c 4.065,2.033 6.633,6.188 6.633,10.733 v 287.668 c 0,4.545 -2.568,8.7 -6.633,10.733 l -290.5,145.25 c -3.379,1.689 -7.355,1.689 -10.734,0 l -290.5,-145.25 C 211.568,664.034 209,659.879 209,655.334 V 367.666 c 0,-4.545 2.568,-8.7 6.633,-10.733 z"
       stroke="url(#paint3_linear_1_2)"
       stroke-width="32"
       stroke-linecap="square"
       stroke-linejoin="round"
       shape-rendering="crispEdges"
       id="path3"
       style="stroke:url(#paint3_linear_1_2)" /></g><g
     filter="url(#filter1_i_1_2)"
     id="g4"
     transform="matrix(0.12135922,0,0,0.12135922,1.92476,-0.135922)"
     style="fill:none"><path
       d="M 512.5,227 798,371 V 653.5 L 510.5,795.5 225,653.5 V 371 Z"
       fill="url(#paint4_linear_1_2)"
       fill-opacity="0.2"
       id="path4"
       style="fill:url(#paint4_linear_1_2)" /></g><path
     d="M 63.939321,27.53398 29.230585,44.827669 63.939321,62.485436 98.769418,44.827669 Z"
     fill="url(#paint5_linear_1_2)"
     fill-opacity="0.3"
     id="path5"
     style="fill:url(#paint5_linear_1_2);stroke-width:0.121359" /><path
     d="M 37.958011,70.88762 H 89.927306"
     stroke="url(#paint6_linear_1_2)"
     id="path6"
     style="fill:none;stroke:url(#paint6_linear_1_2);stroke-width:0.121359" /><g
     filter="url(#filter2_dd_1_2)"
     id="g7"
     transform="matrix(0.12135922,0,0,0.12135922,1.92476,-0.135922)"
     style="fill:none"><path
       fill-rule="evenodd"
       clip-rule="evenodd"
       d="m 297.091,421.017 c 0,-7.732 6.268,-14 14,-14 h 400.578 c 7.732,0 14,6.268 14,14 v 186.289 c 0,7.732 -6.268,14 -14,14 H 311.091 c -7.732,0 -14,-6.268 -14,-14 z m 35.714,26.715 c 0,-2.762 2.239,-5 5,-5 h 25.715 c 2.762,0 5,2.238 5,5 v 97.145 c 0,2.761 -2.238,5 -5,5 h -25.715 c -2.761,0 -5,-2.239 -5,-5 z m 76.43,-5 c -2.761,0 -5,2.238 -5,5 v 97.145 c 0,2.761 2.239,5 5,5 h 25.715 c 2.761,0 5,-2.239 5,-5 v -97.145 c 0,-2.762 -2.239,-5 -5,-5 z m 66.43,5 c 0,-2.762 2.239,-5 5,-5 h 25.715 c 2.761,0 5,2.238 5,5 v 97.145 c 0,2.761 -2.239,5 -5,5 h -25.715 c -2.761,0 -5,-2.239 -5,-5 z m 76.601,-5.161 c -2.762,0 -5,2.238 -5,5 v 97.145 c 0,2.761 2.238,5 5,5 h 25.715 c 2.761,0 5,-2.239 5,-5 v -97.145 c 0,-2.762 -2.239,-5 -5,-5 z"
       fill="url(#paint7_linear_1_2)"
       id="path7"
       style="fill:url(#paint7_linear_1_2)" /></g><path
     d="m 37.979492,70.931066 h 52.011892 v 2.877913 c 0,0.804369 -0.651942,1.456311 -1.456311,1.456311 h -49.09927 c -0.804369,0 -1.456311,-0.651942 -1.456311,-1.456311 z"
     fill="#472ea8"
     id="path8"
     style="stroke-width:0.121359" /></svg>
