<?xml version="1.0" encoding="UTF-8" standalone="no"?>
<svg
   width="128"
   height="128"
   viewBox="0 0 128 128"
   fill="none"
   version="1.1"
   id="svg24"
   xmlns:xlink="http://www.w3.org/1999/xlink"
   xmlns="http://www.w3.org/2000/svg"
   xmlns:svg="http://www.w3.org/2000/svg">
  <defs
     id="defs28">
    <linearGradient
       id="linearGradient943">
      <stop
         style="stop-color:#9e2a00;stop-opacity:1;"
         offset="0"
         id="stop939" />
      <stop
         style="stop-color:#ff926b;stop-opacity:1;"
         offset="0.40828678"
         id="stop947" />
      <stop
         style="stop-color:#9e2a00;stop-opacity:1;"
         offset="0.80692893"
         id="stop949" />
      <stop
         style="stop-color:#ff8052;stop-opacity:1;"
         offset="1"
         id="stop953" />
    </linearGradient>
    <linearGradient
       xlink:href="#linearGradient943"
       id="linearGradient945"
       x1="43.137015"
       y1="101.03553"
       x2="151.13709"
       y2="101.03553"
       gradientUnits="userSpaceOnUse"
       gradientTransform="matrix(1.1111103,0,0,1.0925926,-43.929982,-44.390675)" />
  </defs>
  <path
     d="M 71.64209,7.4805944 C 59.871597,5.9942484 47.917354,7.9735724 37.290684,13.16827 26.664201,18.362962 17.842893,26.539664 11.942345,36.664362 6.0418213,46.789244 3.3270922,58.407085 4.1414783,70.048897 c 0.814385,11.641804 5.121306,22.785069 12.3760907,32.019673 7.254783,9.23498 17.131604,16.14683 28.381411,19.86198 11.24962,3.71479 23.36699,4.06584 34.819859,1.00891 11.452492,-3.05731 21.726361,-9.38542 29.521481,-18.18417 7.79512,-8.799121 12.76163,-19.673192 14.27175,-31.247889 2.02462,-15.519216 -2.3025,-31.193788 -12.02999,-43.575973 C 101.75496,17.549205 87.424334,9.4735074 71.64209,7.4805944 Z"
     fill="#ff6c37"
     id="path2-3"
     style="fill:url(#linearGradient945);fill-opacity:1;stroke-width:3.71862" />
  <path
     d="M 71.642091,3.4805934 C 59.871596,1.9942467 47.917353,3.9735717 37.290683,9.1682683 26.6642,14.362962 17.842892,22.539663 11.942344,32.664361 6.0418199,42.789243 3.3270916,54.407083 4.1414779,66.048893 4.9558618,77.690702 9.2627842,88.833961 16.517568,98.068569 c 7.254783,9.234971 17.131604,16.146821 28.381411,19.861981 11.24962,3.71479 23.366989,4.06584 34.819858,1.00891 11.452494,-3.05732 21.726363,-9.38544 29.521483,-18.18418 7.79512,-8.799113 12.76163,-19.673184 14.27175,-31.247881 2.02462,-15.519216 -2.3025,-31.193787 -12.03,-43.575972 C 101.75495,13.549204 87.424333,5.4735069 71.642091,3.4805934 Z"
     fill="#ff6c37"
     id="path2"
     style="stroke-width:3.71862" />
  <path
     d="m 47.377727,65.728448 c 0.02326,0.04683 0.06262,0.08407 0.110623,0.105457 0.048,0.02175 0.102377,0.02618 0.153374,0.01254 l 9.599995,-2.0355 -4.037998,-4.023801 -5.753997,5.658101 c -0.04538,0.03024 -0.07762,0.0756 -0.09112,0.127957 -0.01312,0.05236 -0.0063,0.107675 0.01912,0.155243 z"
     fill="#ffffff"
     id="path4"
     style="stroke-width:3.71862" />
  <path
     d="m 92.330456,25.196176 c -1.337999,0.0013 -2.658374,0.297729 -3.864373,0.867337 -1.206,0.569609 -2.266499,1.397932 -3.103874,2.424016 -0.837374,1.026047 -1.429874,2.22371 -1.733999,3.504785 -0.3045,1.281074 -0.31275,2.612926 -0.02438,3.897541 0.288751,1.284614 0.866625,2.489247 1.690874,3.525214 0.824625,1.035929 1.875,1.876679 3.073874,2.460779 1.198874,0.584101 2.515499,0.896064 3.853498,0.913395 1.337625,0.01733 2.662124,-0.260706 3.876374,-0.813463 l -6.083998,-5.982601 c -0.06976,-0.06852 -0.12525,-0.149897 -0.163124,-0.239504 -0.03788,-0.0896 -0.05738,-0.185628 -0.05738,-0.282646 0,-0.09702 0.0195,-0.193078 0.05738,-0.282684 0.03788,-0.08957 0.09338,-0.170953 0.163124,-0.239467 l 7.949999,-7.811601 C 96.367704,25.874971 94.37908,25.18976 92.330456,25.196176 Z"
     fill="#ffffff"
     id="path6"
     style="stroke-width:3.71862" />
  <path
     d="m 99.056078,28.151707 -7.451997,7.298303 5.843997,5.746601 c 0.4305,-0.297213 0.832125,-0.633143 1.2,-1.003 1.601622,-1.585625 2.533872,-3.708446 2.609622,-5.942149 0.0757,-2.233667 -0.711,-4.412796 -2.201622,-6.099755 z"
     fill="#ffffff"
     id="path8"
     style="stroke-width:3.71862" />
  <path
     d="m 84.14571,41.62178 h -0.132 c -0.154875,-0.0014 -0.30975,0.01254 -0.462,0.0413 h -0.054 c -0.16725,0.0354 -0.3315,0.0826 -0.492,0.1416 l -0.126,0.059 c -0.120749,0.04942 -0.236999,0.108407 -0.347999,0.177 l -0.132,0.0826 c -0.145126,0.09845 -0.281626,0.209082 -0.408,0.3304 l -22.097989,21.735236 2.735999,2.690402 23.399987,-20.195337 c 0.132376,-0.114312 0.252751,-0.240794 0.360001,-0.3776 l 0.102,-0.1298 c 0.07988,-0.115419 0.15225,-0.235632 0.216,-0.3599 0.036,-0.0708 0.066,-0.1416 0.096,-0.2124 0.0405,-0.0944 0.07462,-0.191012 0.102,-0.2891 0,-0.0708 0.042,-0.1416 0.06,-0.2124 0.02962,-0.146394 0.04988,-0.293894 0.06,-0.4425 V 44.46558 c 0,-0.1062 0,-0.2124 0,-0.3186 0,-0.1062 0,-0.1416 -0.03,-0.2124 -0.111,-0.556812 -0.387376,-1.069006 -0.79425,-1.471312 -0.406875,-0.401938 -0.925875,-0.676657 -1.49175,-0.788388 h -0.114 c -0.1485,-0.0284 -0.298874,-0.0461 -0.449999,-0.0531 z"
     fill="#ffffff"
     id="path10"
     style="stroke-width:3.71862" />
  <path
     d="m 54.235725,58.743215 4.535998,4.436801 22.157988,-21.788705 c 0.721125,-0.69325 1.660874,-1.12395 2.663999,-1.2213 -3.917998,-2.950001 -8.189996,-2.1771 -29.357985,18.573204 z"
     fill="#ffffff"
     id="path12"
     style="stroke-width:3.71862" />
  <path
     d="m 87.278083,47.533581 -0.27,0.2596 -23.399988,20.189806 3.977998,3.9058 c 9.863995,-9.174502 18.617991,-17.912404 19.69199,-24.355206 z"
     fill="#ffffff"
     id="path14"
     style="stroke-width:3.71862" />
  <path
     d="m 28.910374,94.833155 c 0.01215,0.04204 0.03712,0.07892 0.07143,0.106571 0.03435,0.02729 0.07642,0.04388 0.120562,0.04683 l 10.199958,0.690301 -5.71796,-5.622702 -4.625998,4.543001 c -0.03,0.03097 -0.05043,0.06933 -0.05896,0.110994 -0.0084,0.04204 -0.0047,0.08518 0.011,0.125006 z"
     fill="#ffffff"
     id="path16"
     style="stroke-width:3.71862" />
  <path
     d="m 34.651847,89.009854 6.029959,5.929501 c 0.07159,0.07522 0.167363,0.1239 0.271163,0.137912 0.1038,0.01401 0.209362,-0.0078 0.298836,-0.06122 0.09349,-0.04573 0.167964,-0.121688 0.210638,-0.21535 0.04279,-0.09367 0.05103,-0.199125 0.02337,-0.29795 l -1.014,-4.259802 c -0.06567,-0.276193 -0.03581,-0.56603 0.08482,-0.823418 0.1206,-0.257387 0.325125,-0.467944 0.581174,-0.598482 C 51.709728,83.611344 60.235724,78.248243 66.49372,72.891042 l -4.199998,-4.130001 -8.999994,1.9057 z"
     fill="#ffffff"
     id="path18"
     style="stroke-width:3.71862" />
  <path
     d="m 61.004471,67.510618 -2.255998,-2.2184 -3.119999,3.0621 c -0.0225,0.02655 -0.03488,0.0601 -0.03488,0.0944 0,0.03467 0.01238,0.06785 0.03488,0.0944 0.01424,0.03135 0.04012,0.05678 0.072,0.0708 0.03224,0.01402 0.06824,0.01623 0.102,0.0059 z"
     fill="#ffffff"
     id="path20"
     style="stroke-width:3.71862" />
  <path
     d="m 99.266077,32.907515 c -0.03074,-0.09285 -0.08138,-0.178144 -0.1485,-0.25016 -0.06676,-0.07201 -0.148875,-0.1291 -0.240375,-0.167376 -0.09112,-0.03827 -0.18975,-0.0569 -0.289124,-0.05461 -0.09938,0.0023 -0.196876,0.02548 -0.2865,0.06796 -0.08926,0.04248 -0.168375,0.103283 -0.232125,0.178328 -0.06338,0.07508 -0.109878,0.162618 -0.136125,0.256797 -0.02624,0.09418 -0.03188,0.192783 -0.01612,0.28921 0.01576,0.09643 0.05212,0.188469 0.106878,0.269852 0.17925,0.354848 0.2505,0.753098 0.20475,1.146702 -0.04576,0.393641 -0.206626,0.765857 -0.46275,1.071698 -0.084,0.09993 -0.137625,0.221324 -0.154125,0.350018 -0.01688,0.128694 0.0041,0.259416 0.06,0.376899 0.05588,0.117522 0.144749,0.216937 0.256125,0.286704 0.111,0.06977 0.240374,0.107009 0.372,0.10738 0.102,-0.0011 0.2025,-0.02374 0.294749,-0.06652 0.09226,-0.04277 0.173625,-0.104615 0.23925,-0.181277 0.424874,-0.507732 0.6915,-1.125131 0.768,-1.778187 0.0765,-0.65302 -0.04012,-1.313931 -0.336,-1.903414 z"
     fill="#ff6c37"
     id="path22"
     style="stroke-width:3.71862" />
</svg>
