<?xml version="1.0" encoding="UTF-8" standalone="no"?>
<svg
   viewBox="0 0 128 128"
   style="display:inline;enable-background:new"
   version="1.0"
   id="svg11300"
   height="128"
   width="128"
   xml:space="preserve"
   xmlns:xlink="http://www.w3.org/1999/xlink"
   xmlns="http://www.w3.org/2000/svg"
   xmlns:svg="http://www.w3.org/2000/svg"
   xmlns:rdf="http://www.w3.org/1999/02/22-rdf-syntax-ns#"
   xmlns:cc="http://creativecommons.org/ns#"
   xmlns:dc="http://purl.org/dc/elements/1.1/"><title
     id="title4162">Adwaita Icon Template</title><defs
     id="defs3"><linearGradient
       id="linearGradient13"><stop
         style="stop-color:#446c83;stop-opacity:1;"
         offset="0"
         id="stop12" /><stop
         style="stop-color:#35606e;stop-opacity:1;"
         offset="1"
         id="stop13" /></linearGradient><linearGradient
       id="linearGradient3800-7-2"><stop
         style="stop-color:#5ca2b8;stop-opacity:1;"
         offset="0"
         id="stop3802-4-8" /><stop
         style="stop-color:#aedce8;stop-opacity:1;"
         offset="1"
         id="stop3804-0-6" /></linearGradient><linearGradient
       xlink:href="#linearGradient3800-7-2"
       id="linearGradient5901"
       gradientUnits="userSpaceOnUse"
       spreadMethod="pad"
       x1="396.35013"
       y1="-224.8987"
       x2="378.80692"
       y2="-368.20535"
       gradientTransform="matrix(0.23492182,0,0,0.23481352,7.3708245,109.48165)" /><linearGradient
       xlink:href="#linearGradient3800-7-2"
       id="linearGradient5903"
       gradientUnits="userSpaceOnUse"
       spreadMethod="pad"
       x1="450.1077"
       y1="-143.3038"
       x2="433.4119"
       y2="-242.45497"
       gradientTransform="matrix(0.23492182,0,0,0.23481352,7.3708245,109.48165)" /><linearGradient
       xlink:href="#linearGradient3800-7-2"
       id="linearGradient5905"
       gradientUnits="userSpaceOnUse"
       spreadMethod="pad"
       x1="489.50595"
       y1="-113.46021"
       x2="442.4953"
       y2="-202.20998"
       gradientTransform="matrix(0.23492182,0,0,0.23481352,7.3708245,109.48165)" /><linearGradient
       xlink:href="#linearGradient3800-7-2"
       id="linearGradient5579-3"
       gradientUnits="userSpaceOnUse"
       spreadMethod="pad"
       x1="446.69247"
       y1="-139.79538"
       x2="425.41571"
       y2="-267.90073"
       gradientTransform="matrix(0.23492182,0,0,0.23481352,7.3708245,109.48165)" /><linearGradient
       xlink:href="#linearGradient3800-7-2"
       id="linearGradient35"
       gradientUnits="userSpaceOnUse"
       gradientTransform="matrix(0.22748442,0,0,0.22737955,9.1638,107.97841)"
       x1="489.50595"
       y1="-113.46021"
       x2="442.4953"
       y2="-202.20998"
       spreadMethod="pad" /><linearGradient
       xlink:href="#linearGradient13"
       id="linearGradient42"
       gradientUnits="userSpaceOnUse"
       x1="13.731661"
       y1="66"
       x2="18.361658"
       y2="86.81131" /><linearGradient
       xlink:href="#linearGradient13"
       id="linearGradient43"
       gradientUnits="userSpaceOnUse"
       x1="13.731661"
       y1="66"
       x2="18.361658"
       y2="86.81131" /><linearGradient
       xlink:href="#linearGradient13"
       id="linearGradient44"
       gradientUnits="userSpaceOnUse"
       x1="13.731661"
       y1="66"
       x2="18.361658"
       y2="86.81131" /><linearGradient
       xlink:href="#linearGradient13"
       id="linearGradient45"
       gradientUnits="userSpaceOnUse"
       x1="13.731661"
       y1="66"
       x2="18.361658"
       y2="86.81131" /></defs><metadata
     id="metadata4"><rdf:RDF><cc:Work
         rdf:about=""><dc:format>image/svg+xml</dc:format><dc:type
           rdf:resource="http://purl.org/dc/dcmitype/StillImage" /><dc:creator><cc:Agent><dc:title>GNOME Design Team</dc:title></cc:Agent></dc:creator><dc:source /><cc:license
           rdf:resource="http://creativecommons.org/licenses/by-sa/4.0/" /><dc:title>Adwaita Icon Template</dc:title><dc:subject><rdf:Bag /></dc:subject><dc:date /><dc:rights><cc:Agent><dc:title /></cc:Agent></dc:rights><dc:publisher><cc:Agent><dc:title /></cc:Agent></dc:publisher><dc:identifier /><dc:relation /><dc:language /><dc:coverage /><dc:description /><dc:contributor><cc:Agent><dc:title /></cc:Agent></dc:contributor></cc:Work><cc:License
         rdf:about="http://creativecommons.org/licenses/by-sa/4.0/"><cc:permits
           rdf:resource="http://creativecommons.org/ns#Reproduction" /><cc:permits
           rdf:resource="http://creativecommons.org/ns#Distribution" /><cc:requires
           rdf:resource="http://creativecommons.org/ns#Notice" /><cc:requires
           rdf:resource="http://creativecommons.org/ns#Attribution" /><cc:permits
           rdf:resource="http://creativecommons.org/ns#DerivativeWorks" /><cc:requires
           rdf:resource="http://creativecommons.org/ns#ShareAlike" /></cc:License></rdf:RDF></metadata><style
     type="text/css"
     id="style1">
	.st0{fill:#0061FF;}
	.st1{display:none;}
	.st2{display:inline;}
	.st3{fill:none;}
</style><path
     id="path39"
     style="fill:url(#linearGradient42);fill-opacity:1;stroke:none;stroke-width:0.234868"
     d="m 65.308865,115.82146 c 0.004,-8.5e-4 0.0081,-0.001 0.0121,-0.002 l 18.521933,-4.25174 c 3.785297,-0.86873 6.41648,-4.17839 6.415815,-7.88726 L 90.258003,99.716541 85.611792,82.341596 64.465767,68.866149 51.163779,86.232025 v 4 l 4.511986,19.784565 c 1.18776,4.15376 5.37224,6.69886 9.6331,5.80487 z" /><path
     id="path38"
     style="fill:url(#linearGradient43);fill-opacity:1;stroke:none;stroke-width:0.234868"
     d="m 108.29476,74.1224 0.008,-0.0021 c 3.59118,-1.034665 5.97112,-4.310882 5.96532,-7.935869 l -0.006,-3.66828 -4.62441,-17.428222 c -1.36467,-3.942474 -5.48667,-6.288201 -9.64924,-5.332896 l -19.395286,4.451475 -13.481498,17.12989 v 4 l 21.377978,13.297954 z" /><path
     id="path37"
     style="fill:url(#linearGradient44);fill-opacity:1;stroke:none;stroke-width:0.234868"
     d="m 19.700899,57.778805 -0.004,0.0021 c -3.167545,0.913404 -5.971065,0.927855 -5.963849,4.065759 l 0.0079,3.456776 c 0.0017,0.741737 0.02902,1.499686 0.203472,2.259821 l 4.417188,19.248046 c 1.363981,3.943625 5.485999,6.290372 9.649235,5.334913 L 47.406145,87.694662 60.88966,66.564773 v -4 L 39.509665,53.26682 Z" /><path
     id="path36"
     style="fill:url(#linearGradient45);fill-opacity:1;stroke:none;stroke-width:0.234868"
     d="M 71.890273,21.979416 C 70.68687,17.776719 66.417194,15.222968 62.103882,16.212868 l -19.342843,4.439375 c -2.940393,1.04975 -5.466065,0.928613 -5.466975,3.942395 l -0.0012,3.937325 c -1.74e-4,0.57536 0.07779,1.158898 0.211912,1.743294 l 4.447442,19.383184 21.148042,13.475448 13.29997,-21.365876 v -4 z" /><path
     id="path29"
     style="fill:url(#linearGradient35);fill-opacity:1;stroke:none;stroke-width:0.227432"
     d="m 83.214844,106.125 -17.935547,4.11719 c 0.04643,-0.01 0.09222,-0.0206 0.138672,-0.0312 z" /><path
     id="path23"
     style="fill:url(#linearGradient5901);fill-opacity:1;stroke:none;stroke-width:0.234868"
     d="M 71.890273,17.979416 C 70.68687,13.776719 66.417194,11.222968 62.103882,12.212868 l -19.342843,4.439375 c -3.896521,1.391098 -6.205406,5.487247 -5.256252,9.623014 l 4.447442,19.383184 21.148042,13.475448 13.29997,-21.365876 z" /><path
     id="path27"
     style="fill:url(#linearGradient5903);fill-opacity:1;stroke:none;stroke-width:0.234868"
     d="m 19.700899,53.778805 -0.004,0.0021 c -4.193695,1.209308 -6.74114,5.474223 -5.752428,9.782356 l 4.417188,19.248046 c 1.363981,3.943625 5.485999,6.290372 9.649235,5.334913 L 47.406145,83.694662 60.88966,62.564773 39.509665,49.26682 Z" /><path
     id="path30"
     style="fill:url(#linearGradient5905);fill-opacity:1;stroke:none;stroke-width:0.234868"
     d="m 65.308865,111.82146 c 0.004,-8.5e-4 0.0081,-0.001 0.0121,-0.002 l 18.521933,-4.25174 c 4.460929,-1.02379 7.228011,-5.43842 6.204232,-9.899346 L 85.611792,78.341596 64.465767,64.866149 51.163779,86.232025 55.675765,106.01659 c 1.18776,4.15376 5.37224,6.69886 9.6331,5.80487 z" /><path
     id="path33"
     style="fill:url(#linearGradient5579-3);fill-opacity:1;stroke:none;stroke-width:0.234868"
     d="m 108.29476,70.1224 0.008,-0.0021 c 4.19481,-1.208578 6.74129,-5.475599 5.75243,-9.784373 l -4.41738,-19.247998 c -1.36467,-3.942474 -5.48667,-6.288201 -9.64924,-5.332896 l -19.395286,4.451475 -13.481498,21.12989 21.377978,13.297954 z" /></svg>
