<?xml version="1.0" encoding="UTF-8" standalone="no"?>
<svg
   width="128"
   height="128"
   version="1"
   id="svg44"
   xml:space="preserve"
   xmlns:xlink="http://www.w3.org/1999/xlink"
   xmlns="http://www.w3.org/2000/svg"
   xmlns:svg="http://www.w3.org/2000/svg"><defs
     id="defs48"><linearGradient
       id="linearGradient22"><stop
         style="stop-color:#e4e4e4;stop-opacity:1;"
         offset="0"
         id="stop13" /><stop
         style="stop-color:#000000;stop-opacity:1;"
         offset="0.03655991"
         id="stop19" /><stop
         style="stop-color:#000000;stop-opacity:1;"
         offset="0.43135989"
         id="stop23" /><stop
         style="stop-color:#e3e3e3;stop-opacity:1;"
         offset="0.50146359"
         id="stop24" /><stop
         style="stop-color:#000000;stop-opacity:1;"
         offset="0.56836194"
         id="stop25" /><stop
         style="stop-color:#000000;stop-opacity:1;"
         offset="0.96065289"
         id="stop20" /><stop
         style="stop-color:#e4e4e4;stop-opacity:1;"
         offset="1"
         id="stop21" /></linearGradient><radialGradient
       id="paint0_radial_1_680"
       cx="0"
       cy="0"
       r="1"
       gradientUnits="userSpaceOnUse"
       gradientTransform="matrix(47.584493,-76.572743,119.74406,74.412386,-75.405512,118.10484)"><stop
         stop-color="#FFD580"
         id="stop13-7" /><stop
         offset="0.09375"
         stop-color="#F6C592"
         id="stop14" /><stop
         offset="0.205"
         stop-color="#EBB6A2"
         id="stop15" /><stop
         offset="0.324466"
         stop-color="#DFA5AF"
         id="stop16" /><stop
         offset="0.42875"
         stop-color="#D397BE"
         id="stop17" /><stop
         offset="0.53375"
         stop-color="#C486CB"
         id="stop18" /><stop
         offset="0.64875"
         stop-color="#B578D9"
         id="stop19-5" /><stop
         offset="0.77125"
         stop-color="#A166E5"
         id="stop20-9" /><stop
         offset="0.89125"
         stop-color="#8B57F2"
         id="stop21-2" /><stop
         offset="1"
         stop-color="#704CFF"
         id="stop22" /></radialGradient><linearGradient
       id="paint1_linear_1_680"
       x1="18.458"
       y1="-4.2273302"
       x2="31.8839"
       y2="77.726501"
       gradientUnits="userSpaceOnUse"
       gradientTransform="matrix(1.5643517,0,0,1.5643517,-108.00003,-6.8314839)"><stop
         stop-color="#6D4AFF"
         id="stop23-2" /><stop
         offset="0.392009"
         stop-color="#B39FFB"
         stop-opacity="0.978022"
         id="stop24-8" /><stop
         offset="1"
         stop-color="#FFE8DB"
         stop-opacity="0.8"
         id="stop25-9" /></linearGradient><radialGradient
       id="paint2_radial_1_680"
       cx="0"
       cy="0"
       r="1"
       gradientUnits="userSpaceOnUse"
       gradientTransform="matrix(38.274429,-61.591034,96.315837,59.853414,-83.324886,107.12653)"><stop
         stop-color="#FFD580"
         id="stop26" /><stop
         offset="0.09375"
         stop-color="#F6C592"
         id="stop27" /><stop
         offset="0.205"
         stop-color="#EBB6A2"
         id="stop28" /><stop
         offset="0.324466"
         stop-color="#DFA5AF"
         id="stop29" /><stop
         offset="0.42875"
         stop-color="#D397BE"
         id="stop30" /><stop
         offset="0.53375"
         stop-color="#C486CB"
         id="stop31" /><stop
         offset="0.64875"
         stop-color="#B578D9"
         id="stop32" /><stop
         offset="0.77125"
         stop-color="#A166E5"
         id="stop33" /><stop
         offset="0.89125"
         stop-color="#8B57F2"
         id="stop34" /><stop
         offset="1"
         stop-color="#704CFF"
         id="stop35" /></radialGradient><radialGradient
       xlink:href="#paint0_radial_1_680"
       id="radialGradient20"
       gradientUnits="userSpaceOnUse"
       gradientTransform="matrix(47.584493,-76.572743,119.74406,74.412386,42.795658,122.10484)"
       cx="0"
       cy="0"
       r="1" /><linearGradient
       xlink:href="#paint1_linear_1_680"
       id="linearGradient20"
       gradientUnits="userSpaceOnUse"
       gradientTransform="matrix(1.5643517,0,0,1.5643517,10.20114,-2.8314839)"
       x1="18.458"
       y1="-4.2273302"
       x2="31.8839"
       y2="77.726501" /><radialGradient
       xlink:href="#paint2_radial_1_680"
       id="radialGradient21"
       gradientUnits="userSpaceOnUse"
       gradientTransform="matrix(38.274429,-61.591034,96.315837,59.853414,34.876284,111.12653)"
       cx="0"
       cy="0"
       r="1" /><radialGradient
       xlink:href="#paint0_radial_1_680"
       id="radialGradient22"
       gradientUnits="userSpaceOnUse"
       gradientTransform="matrix(47.584493,-76.572743,119.74406,74.412386,42.795658,118.10484)"
       cx="0"
       cy="0"
       r="1" /><linearGradient
       xlink:href="#paint1_linear_1_680"
       id="linearGradient23"
       gradientUnits="userSpaceOnUse"
       gradientTransform="matrix(1.5643517,0,0,1.5643517,10.20114,-6.8314839)"
       x1="18.458"
       y1="-4.2273302"
       x2="31.8839"
       y2="77.726501" /><radialGradient
       xlink:href="#paint2_radial_1_680"
       id="radialGradient23"
       gradientUnits="userSpaceOnUse"
       gradientTransform="matrix(38.274429,-61.591034,96.315837,59.853414,34.876284,107.12653)"
       cx="0"
       cy="0"
       r="1" /><linearGradient
       xlink:href="#linearGradient22"
       id="linearGradient37"
       x1="-108.20138"
       y1="62.000103"
       x2="-0.20096686"
       y2="62.000103"
       gradientUnits="userSpaceOnUse"
       gradientTransform="translate(118.20117,4)" /></defs><path
     id="path18"
     style="fill:url(#radialGradient20);stroke-width:0.550266"
     d="m 33.574217,92.882812 24.765625,24.765628 c 3.135684,3.13569 8.184627,3.13569 11.320312,0 L 115.64844,71.660156 c 3.13569,-3.135685 3.13569,-8.184627 0,-11.320312 L 69.660154,14.351562 c -3.135686,-3.135685 -8.184627,-3.135685 -11.320312,0 L 33.574217,39.117188 c -0.215696,1.359345 -0.230469,2.923199 -0.230469,5.691406 v 42.382812 c 0,2.768208 0.01467,4.332061 0.230469,5.691406 z" /><path
     id="path19"
     style="fill:url(#linearGradient20);stroke-width:0.550266"
     d="m 33.574217,92.882812 24.765625,24.765628 c 3.135684,3.13569 8.184627,3.13569 11.320312,0 L 115.64844,71.660156 c 1.57052,-1.570513 2.35268,-3.62097 2.35176,-5.670612 l -0.002,-4.162854 c -8.3e-4,-1.854306 -0.92981,-0.06676 -2.34989,-1.486846 L 69.660154,14.351562 c -3.135686,-3.135685 -8.184627,-3.135685 -11.320312,0 L 33.574217,39.117188 c -0.215696,1.359345 -0.230469,2.923199 -0.230469,5.691406 v 42.382812 c 0,2.768208 0.01467,4.332061 0.230469,5.691406 z" /><path
     id="path20"
     style="fill:url(#radialGradient21);stroke-width:0.550266"
     d="M 52.494139,20.197266 12.35156,60.339844 c -1.398226,1.398224 -2.344551,0.120677 -2.346639,1.946751 l -0.0044,3.823483 c -0.0023,2.0095 0.811282,4.010351 2.351011,5.550078 l 40.140626,40.140624 2.8e-5,-4 c 2.171787,-0.70567 6.596294,0.97595 10.363253,-2.79101 l 28.25,-28.250004 c 3.766959,-3.766954 5.64979,-5.650321 6.355469,-7.822266 0.620733,-1.910388 0.620733,-3.968519 0,-5.878906 -0.705679,-2.171946 -2.58851,-4.055307 -6.355469,-7.822266 l -28.25,-28.248047 C 59.08832,23.221321 57.20496,21.336537 55.033173,20.630859 54.206727,20.362348 53.351835,20.233477 52.494111,20.197266 Z" /><path
     id="path24"
     style="opacity:0.3;fill:url(#linearGradient37);fill-opacity:1;stroke-width:0.550266"
     d="m 63.999998,12 c -2.046156,0 -4.092314,0.78372 -5.660156,2.351562 L 52.494139,20.197266 33.574217,39.117188 12.35156,60.339844 c -1.522889,1.522887 -2.343994,-0.04083 -2.346639,1.946751 l -0.0049,3.646981 c -0.00275,2.068311 0.766681,4.141772 2.351492,5.72658 l 21.222657,21.222656 18.917969,18.917968 5.847656,5.84766 c 3.135684,3.13569 8.184627,3.13569 11.320312,0 L 115.64844,71.660156 c 1.59879,-1.598785 2.35085,-5.781298 2.35085,-5.781298 l -0.001,-4.052168 c 0,0 -0.83578,0.02713 -2.34976,-1.486846 L 69.660154,14.351562 C 68.092311,12.78372 66.046155,12 63.999998,12 Z" /><path
     id="path11"
     style="fill:url(#radialGradient22);stroke-width:0.550266"
     d="m 33.574217,88.882812 24.765625,24.765628 c 3.135684,3.13569 8.184627,3.13569 11.320312,0 L 115.64844,67.660156 c 3.13569,-3.135685 3.13569,-8.184627 0,-11.320312 L 69.660154,10.351562 c -3.135686,-3.1356847 -8.184627,-3.135685 -11.320312,0 L 33.574217,35.117188 c -0.215696,1.359345 -0.230469,2.923199 -0.230469,5.691406 v 42.382812 c 0,2.768208 0.01467,4.332061 0.230469,5.691406 z" /><path
     id="path12"
     style="fill:url(#linearGradient23);stroke-width:0.550266"
     d="m 33.574217,88.882812 24.765625,24.765628 c 3.135684,3.13569 8.184627,3.13569 11.320312,0 L 115.64844,67.660156 c 3.13569,-3.135685 3.13569,-8.184627 0,-11.320312 L 69.660154,10.351562 c -3.135686,-3.1356847 -8.184627,-3.135685 -11.320312,0 L 33.574217,35.117188 c -0.215696,1.359345 -0.230469,2.923199 -0.230469,5.691406 v 42.382812 c 0,2.768208 0.01467,4.332061 0.230469,5.691406 z" /><path
     id="path17"
     style="fill:url(#radialGradient23);stroke-width:0.550266"
     d="M 52.494139,16.197266 12.35156,56.339844 c -3.13569,3.135685 -3.13569,8.184627 0,11.320312 l 40.140626,40.140624 c 0.858378,-0.0361 1.713944,-0.16488 2.541015,-0.43359 2.171787,-0.70567 4.055307,-2.59046 7.822266,-6.35742 l 28.25,-28.250004 c 3.766959,-3.766954 5.64979,-5.650321 6.355469,-7.822266 0.620733,-1.910388 0.620733,-3.968519 0,-5.878906 -0.705679,-2.171946 -2.58851,-4.055307 -6.355469,-7.822266 l -28.25,-28.248047 c -3.767119,-3.76696 -5.650479,-5.651744 -7.822266,-6.357422 -0.826446,-0.268511 -1.681338,-0.397382 -2.539062,-0.433593 z" /></svg>
