<?xml version="1.0" encoding="UTF-8" standalone="no"?>
<!-- Generator: Adobe Illustrator 26.0.2, SVG Export Plug-In . SVG Version: 6.00 Build 0)  -->

<svg
   version="1.0"
   id="Layer_1"
   x="0px"
   y="0px"
   viewBox="0 0 128 128"
   xml:space="preserve"
   width="128"
   height="128"
   xmlns:xlink="http://www.w3.org/1999/xlink"
   xmlns="http://www.w3.org/2000/svg"
   xmlns:svg="http://www.w3.org/2000/svg"><defs
   id="defs76"><linearGradient
     id="linearGradient23"
     gradientUnits="userSpaceOnUse"
     x1="0"
     y1="269.46301"
     x2="118.926"
     y2="269.46301"
     gradientTransform="matrix(1,0,0,0.98333333,0,-168.03333)"><stop
       offset="0"
       stop-color="#e5a50a"
       id="stop18"
       style="stop-color:#1a1d23;stop-opacity:1;" /><stop
       offset="0.414"
       stop-color="#fbdf9b"
       id="stop20"
       style="stop-color:#51596c;stop-opacity:1;" /><stop
       offset="0.81300002"
       stop-color="#e5a50a"
       id="stop22"
       style="stop-color:#1a1d23;stop-opacity:1;" /><stop
       offset="1"
       stop-color="#f8ca5b"
       id="stop23"
       style="stop-color:#454d5e;stop-opacity:1;" /></linearGradient><linearGradient
     id="a-9"
     gradientUnits="userSpaceOnUse"
     x1="0"
     y1="269.46301"
     x2="118.926"
     y2="269.46301"
     gradientTransform="matrix(1,0,0,0.98333333,0,-168.03333)"><stop
       offset="0"
       stop-color="#e5a50a"
       id="stop1-7"
       style="stop-color:#3f4388;stop-opacity:1;" /><stop
       offset="0.414"
       stop-color="#fbdf9b"
       id="stop2-0"
       style="stop-color:#b6b9dd;stop-opacity:1;" /><stop
       offset="0.81300002"
       stop-color="#e5a50a"
       id="stop3"
       style="stop-color:#3f4488;stop-opacity:1;" /><stop
       offset="1"
       stop-color="#f8ca5b"
       id="stop4-4"
       style="stop-color:#a4a8d5;stop-opacity:1;" /></linearGradient><linearGradient
     xlink:href="#linearGradient23"
     id="linearGradient18"
     x1="117"
     y1="120.39062"
     x2="157.78125"
     y2="120.39062"
     gradientUnits="userSpaceOnUse"
     gradientTransform="translate(-33.781242,-17.781235)" /></defs>
<style
   type="text/css"
   id="style2">
	.st0{fill:url(#SVGID_1_);}
	.st1{fill:url(#SVGID_00000062171159965967627490000013605884846004172698_);}
	.st2{fill:url(#SVGID-2_00000085966066984138215510000013018799571900533434_);}
	.st3{clip-path:url(#SVGID_00000023257072852279316340000004281102206337855156_);}
	.st4{fill:url(#SVGID_00000177446033621631838710000001370584907163434138_);}
	.st5{clip-path:url(#SVGID_00000136385553608229244970000014654043435100792964_);}
	.st6{fill:url(#SVGID_00000126306410582640054500000000964390405037519506_);}
	.st7{fill:url(#SVGID_00000109020757643166282930000006684795936706346369_);}
</style>
<radialGradient
   id="SVGID_1_"
   cx="514.5"
   cy="477.5"
   r="496.5"
   gradientTransform="matrix(1,0,0,-1,-18,974)"
   gradientUnits="userSpaceOnUse">
	<stop
   offset="0.9134"
   style="stop-color:#000000"
   id="stop4" />
	<stop
   offset="1"
   style="stop-color:#000000;stop-opacity:0"
   id="stop6" />
</radialGradient>

<radialGradient
   id="SVGID_00000163033830155146975860000008434547654242457221_"
   cx="512.05908"
   cy="481.87881"
   r="486.27271"
   gradientTransform="matrix(0.11104257,0,0,-0.11104257,7.1350999,117.51141)"
   gradientUnits="userSpaceOnUse">
	<stop
   offset="0.99"
   style="stop-color:#FFFFFF"
   id="stop11" />
	<stop
   offset="0.9951"
   style="stop-color:#FDFDFD"
   id="stop13" />
	<stop
   offset="0.9969"
   style="stop-color:#F6F6F6"
   id="stop15" />
	<stop
   offset="0.9982"
   style="stop-color:#EBEBEB"
   id="stop17" />
	<stop
   offset="0.9992"
   style="stop-color:#DADADA"
   id="stop19" />
	<stop
   offset="1"
   style="stop-color:#C7C7C7"
   id="stop21" />
</radialGradient>

<radialGradient
   id="SVGID-2_00000052072577768947982130000002178866272689676469_"
   cx="512.06152"
   cy="481.87881"
   r="444.12241"
   gradientTransform="matrix(1,0,0,-1,-18,974)"
   gradientUnits="userSpaceOnUse">
	<stop
   offset="0.99"
   style="stop-color:#000000;stop-opacity:0.5"
   id="stop26" />
	<stop
   offset="1"
   style="stop-color:#000000;stop-opacity:0"
   id="stop28" />
</radialGradient>



<radialGradient
   id="SVGID_00000092427181212153090570000016417065628950216588_"
   cx="578.89008"
   cy="482.3703"
   r="353.94269"
   gradientTransform="matrix(0.11104257,0,0,-0.1218248,7.1350999,118.45626)"
   gradientUnits="userSpaceOnUse">
	<stop
   offset="0"
   style="stop-color:#C2C0C2"
   id="stop66" />
	<stop
   offset="1"
   style="stop-color:#EBEBEB"
   id="stop68" />
</radialGradient>

		
	
		
	
<path
   d="M 124,65.999998 C 124,98.584718 97.137001,125 64,125 30.863,125 4,98.584718 4,65.999998 4,33.415288 30.863,7.000002 64,7.000002 c 33.137001,0 60,26.415286 60,58.999996 z m 0,0"
   fill="url(#a)"
   id="path4"
   style="fill:url(#a-9);stroke-width:0.991632" /><ellipse
   style="fill:#9397cd;fill-opacity:1;stroke:none;stroke-width:0.170805;stroke-linecap:round;stroke-linejoin:round;stroke-miterlimit:1.5;paint-order:stroke fill markers"
   id="path365"
   cx="64"
   cy="62"
   rx="60"
   ry="59" /><circle
   class="st1"
   cx="103.60938"
   cy="102.60938"
   r="20.390625"
   id="circle2-4"
   style="fill:url(#linearGradient18);stroke-width:0.117188" /><circle
   class="st1"
   cx="103.60938"
   cy="100.60938"
   r="20.390625"
   id="circle2"
   style="fill:#262a33;stroke-width:0.117188" /><path
   id="rect3"
   style="fill:#ffffff;stroke-width:0.117188"
   class="st2"
   d="m 105.36658,94.515007 v 14.882813 h -5.32031 l 7.3125,6.79688 7.3125,-6.79688 h -5.32031 V 94.515007 Z m -5.976561,-9.492187 -7.3125,6.796875 h 5.320312 v 14.882815 h 3.984379 V 91.819695 h 5.32031 z" /><path
   id="path5-0"
   style="fill:#ffffff;stroke-width:0.116207"
   class="st2"
   d="m 63.98828,80.518983 c 0,0 -2.47265,-0.241993 -4.41797,-1.555664 C 57.63672,77.638123 44.72266,68.569178 44.72266,68.569178 v 17.965039 c 0,0 0.10547,2.085742 2.44922,2.085742 2.34375,0 16.8164,0 16.8164,0 0,0 14.47266,0 16.81641,0 2.34375,0 2.44922,-2.085742 2.44922,-2.085742 V 68.569178 c 0,0 -12.91407,9.080468 -14.85938,10.394141 -1.93359,1.325195 -4.40625,1.555664 -4.40625,1.555664 z m 0,-45.137305 c 0,0 -15.97265,-0.518555 -19.26562,16.904882 v 11.869141 c 0,0 0.14062,1.267578 3.77344,3.848828 3.63281,2.58125 13.03125,9.841016 15.5039,9.841016 2.46094,0 11.8711,-7.259766 15.50391,-9.841016 3.63281,-2.58125 3.77343,-3.848828 3.77343,-3.848828 V 52.28656 C 79.96094,34.863123 63.98828,35.381678 63.98828,35.381678 Z m 10.9336,23.381055 H 63.98828 53.05469 v -6.464649 c 2.21484,-8.654101 10.93359,-8.769336 10.93359,-8.769336 0,0 8.71875,0.115235 10.9336,8.769336 z" /></svg>
