<?xml version="1.0" encoding="UTF-8" standalone="no"?>
<svg
   width="128"
   height="128"
   viewBox="0 0 128 128"
   version="1.1"
   id="svg29"
   xml:space="preserve"
   xmlns="http://www.w3.org/2000/svg"
   xmlns:svg="http://www.w3.org/2000/svg"><defs
     id="defs15"><linearGradient
       id="a-9"
       gradientUnits="userSpaceOnUse"
       x1="0"
       y1="269.46301"
       x2="118.926"
       y2="269.46301"
       gradientTransform="matrix(1,0,0,0.98333333,5e-6,-168.03333)"><stop
         offset="0"
         stop-color="#e5a50a"
         id="stop1-5"
         style="stop-color:#787878;stop-opacity:1;" /><stop
         offset="0.414"
         stop-color="#fbdf9b"
         id="stop2-1"
         style="stop-color:#cbcbcb;stop-opacity:1;" /><stop
         offset="0.81300002"
         stop-color="#e5a50a"
         id="stop3-6"
         style="stop-color:#787878;stop-opacity:1;" /><stop
         offset="1"
         stop-color="#f8ca5b"
         id="stop4-6"
         style="stop-color:#a9a9a9;stop-opacity:1;" /></linearGradient></defs><path
     d="M 124.00001,65.999999 C 124.00001,98.584719 97.137005,125 64.000005,125 c -33.137,0 -60,-26.415281 -60,-59.000001 0,-32.584717 26.863,-58.9999996 60,-58.9999996 33.137,0 60.000005,26.4152826 60.000005,58.9999996 z m 0,0"
     fill="url(#a)"
     id="path4"
     style="fill:url(#a-9);stroke-width:0.991632" /><path
     style="fill:#ffffff;fill-opacity:1;fill-rule:evenodd;stroke:none;stroke-width:11.1733;stroke-linecap:square;stroke-linejoin:bevel"
     id="path94"
     d="M 124.00001,61.999998 C 124.00001,94.584668 97.136958,121 64,121 30.86291,121 4,94.584668 4,61.999998 4,29.415192 30.86291,2.9999992 64,2.9999992 c 33.136958,0 60.00001,26.4151928 60.00001,58.9999988"
     vector-effect="none" /><text
     style="font-style:normal;font-weight:400;font-size:13.8828px;font-family:Arial;fill:#ffffff;fill-opacity:1;fill-rule:evenodd;stroke:none;stroke-width:0.991632;stroke-linecap:square;stroke-linejoin:bevel;stroke-opacity:1"
     id="text1476"
     font-style="normal"
     font-weight="400"
     font-size="14"
     y="-67.545097"
     x="-183.452"
     xml:space="preserve"
     transform="scale(1.008439,0.99163165)" /><g
     id="g1"
     transform="translate(118.8525,0.0516246)"><path
       d="m -25.60325,30.553 c -13.85025,-13.85025 -36.29975,-13.85025 -50.15,0 -13.85025,13.85025 -13.85025,36.29975 0,50.15 z"
       fill="#363636"
       id="path1"
       style="stroke-width:0.1475" /><path
       d="m -84.10175,93.34375 c 13.85025,13.85025 36.29975,13.85025 50.15,0 13.85025,-13.85025 13.85025,-36.29975 0,-50.15"
       fill="#ed6b21"
       id="path2"
       style="stroke-width:0.1475" /></g></svg>
