<?xml version="1.0" encoding="UTF-8" standalone="no"?>
<svg
   width="128"
   height="128"
   viewBox="0 0 128 128"
   version="1.1"
   id="svg29"
   xml:space="preserve"
   xmlns="http://www.w3.org/2000/svg"
   xmlns:svg="http://www.w3.org/2000/svg"><defs
     id="defs15"><linearGradient
       id="a-9"
       gradientUnits="userSpaceOnUse"
       x1="0"
       y1="269.46301"
       x2="118.926"
       y2="269.46301"
       gradientTransform="matrix(1,0,0,0.98333333,5e-6,-168.03333)"><stop
         offset="0"
         stop-color="#e5a50a"
         id="stop1-5"
         style="stop-color:#787878;stop-opacity:1;" /><stop
         offset="0.414"
         stop-color="#fbdf9b"
         id="stop2-1"
         style="stop-color:#cbcbcb;stop-opacity:1;" /><stop
         offset="0.81300002"
         stop-color="#e5a50a"
         id="stop3-6"
         style="stop-color:#787878;stop-opacity:1;" /><stop
         offset="1"
         stop-color="#f8ca5b"
         id="stop4-6"
         style="stop-color:#a9a9a9;stop-opacity:1;" /></linearGradient></defs><path
     d="M 124.00001,65.999999 C 124.00001,98.584719 97.137005,125 64.000005,125 c -33.137,0 -60,-26.415281 -60,-59.000001 0,-32.584717 26.863,-58.9999996 60,-58.9999996 33.137,0 60.000005,26.4152826 60.000005,58.9999996 z m 0,0"
     fill="url(#a)"
     id="path4"
     style="fill:url(#a-9);stroke-width:0.991632" /><path
     style="fill:#ffffff;fill-opacity:1;fill-rule:evenodd;stroke:none;stroke-width:11.1733;stroke-linecap:square;stroke-linejoin:bevel"
     id="path94"
     d="M 124.00001,61.999998 C 124.00001,94.584668 97.136958,121 64,121 30.86291,121 4,94.584668 4,61.999998 4,29.415192 30.86291,2.9999992 64,2.9999992 c 33.136958,0 60.00001,26.4151928 60.00001,58.9999988"
     vector-effect="none" /><text
     style="font-style:normal;font-weight:400;font-size:13.8828px;font-family:Arial;fill:#ffffff;fill-opacity:1;fill-rule:evenodd;stroke:none;stroke-width:0.991632;stroke-linecap:square;stroke-linejoin:bevel;stroke-opacity:1"
     id="text1476"
     font-style="normal"
     font-weight="400"
     font-size="14"
     y="-67.545097"
     x="-183.452"
     xml:space="preserve"
     transform="scale(1.008439,0.99163165)" /><path
     id="rect20"
     style="opacity:1;fill:#82f6a1;fill-opacity:1"
     d="m 63.750977,14.134766 c -2.07046,0 -3.88926,1.038617 -4.96679,2.625 l -39.44141,39.441406 c -2.35042,2.350423 -2.35042,6.135905 0,8.486328 l 0.35352,0.353516 c 2.35042,2.350423 6.13591,2.350423 8.48633,0 l 29.56835,-29.570313 v 67.607417 c 0,3.324 2.676,6 6,6 h 0.5 c 3.324,0 6,-2.676 6,-6 V 35.474609 l 29.566411,29.566407 c 2.350422,2.350423 6.135902,2.350423 8.486332,0 l 0.35351,-0.353516 c 2.35042,-2.350423 2.35042,-6.135905 0,-8.486328 L 69.215827,16.759766 c -1.07754,-1.586383 -2.89438,-2.625 -4.96485,-2.625 h -0.13476 -0.23242 z" /><path
     id="rect8"
     style="fill:#fc9002;fill-opacity:1;stroke-width:0.986969"
     d="m 54.11488,73.999215 -0.57812,0.576171 v 0.002 l -6.26562,6.265624 0.57617,0.578124 6.26562,-6.267576 5.68555,5.697268 0.57617,0.576172 6.26758,-6.267582 5.6836,5.69727 0.57617,0.576172 0.57812,-0.576172 6.267577,-6.267575 -0.576171,-0.576172 -6.267576,6.265624 -5.68555,-5.695319 -0.57617,-0.578124 -0.57617,0.576172 -5.69141,5.693363 z" /><path
     d="m 30.856646,63.47673 h -4.347657 v -2.742187 h 4.347657 q 1.007812,0 1.640625,-0.328125 0.632812,-0.339844 0.925781,-0.9375 0.292969,-0.597656 0.292969,-1.347656 0,-0.761719 -0.292969,-1.417969 -0.292969,-0.65625 -0.925781,-1.054688 -0.632813,-0.398437 -1.640625,-0.398437 h -3.128907 v 14.308594 h -3.515625 v -17.0625 h 6.644532 q 2.003906,0 3.433593,0.726562 1.441407,0.714844 2.203125,1.980469 0.761719,1.265625 0.761719,2.894531 0,1.652344 -0.761719,2.859375 -0.761718,1.207031 -2.203125,1.863281 -1.429687,0.65625 -3.433593,0.65625 z M 48.482739,52.496262 h 3.503907 v 11.273437 q 0,1.96875 -0.84375,3.316406 -0.832032,1.347657 -2.308594,2.027344 -1.464844,0.679688 -3.375,0.679688 -1.910156,0 -3.398438,-0.679688 -1.476562,-0.679687 -2.320312,-2.027344 -0.832031,-1.347656 -0.832031,-3.316406 V 52.496262 h 3.515625 v 11.273437 q 0,1.148438 0.363281,1.875 0.363281,0.726563 1.042969,1.066406 0.691406,0.339844 1.628906,0.339844 0.960937,0 1.628906,-0.339844 0.679688,-0.339843 1.03125,-1.066406 0.363281,-0.726562 0.363281,-1.875 z M 60.905708,63.47673 h -4.347656 v -2.742187 h 4.347656 q 1.007813,0 1.640625,-0.328125 0.632813,-0.339844 0.925782,-0.9375 0.292968,-0.597656 0.292968,-1.347656 0,-0.761719 -0.292968,-1.417969 -0.292969,-0.65625 -0.925782,-1.054688 -0.632812,-0.398437 -1.640625,-0.398437 h -3.128906 v 14.308594 h -3.515625 v -17.0625 h 6.644531 q 2.003907,0 3.433594,0.726562 1.441406,0.714844 2.203125,1.980469 0.761719,1.265625 0.761719,2.894531 0,1.652344 -0.761719,2.859375 -0.761719,1.207031 -2.203125,1.863281 -1.429687,0.65625 -3.433594,0.65625 z m 21.727656,-2.835937 v 6.761719 q -0.398438,0.480468 -1.230469,1.042968 -0.832031,0.550782 -2.144531,0.949219 -1.3125,0.398438 -3.175782,0.398438 -1.652343,0 -3.011718,-0.539063 -1.359375,-0.550781 -2.34375,-1.605469 -0.972657,-1.054687 -1.5,-2.578125 -0.527344,-1.535156 -0.527344,-3.503906 v -1.066406 q 0,-1.96875 0.503906,-3.503906 0.515625,-1.535157 1.464844,-2.589844 0.949219,-1.054688 2.261719,-1.605469 1.3125,-0.550781 2.917968,-0.550781 2.226563,0 3.65625,0.726562 1.429688,0.714844 2.179688,1.992188 0.761719,1.265625 0.9375,2.90625 h -3.410156 q -0.128907,-0.867188 -0.492188,-1.511719 -0.363281,-0.644531 -1.042969,-1.007812 -0.667968,-0.363282 -1.734375,-0.363282 -0.878906,0 -1.570312,0.363282 -0.679688,0.351562 -1.148438,1.042968 -0.46875,0.691407 -0.714843,1.710938 -0.246094,1.019531 -0.246094,2.367187 v 1.089844 q 0,1.335938 0.257812,2.367188 0.257813,1.019531 0.761719,1.722656 0.515625,0.691406 1.265625,1.042969 0.75,0.351562 1.746094,0.351562 0.832031,0 1.382812,-0.140625 0.5625,-0.140625 0.902344,-0.339844 0.351563,-0.210937 0.539063,-0.398437 v -3.023438 h -3.210938 v -2.507812 z m 11.637813,-8.144531 h 3.503907 v 11.273437 q 0,1.96875 -0.84375,3.316406 -0.832032,1.347657 -2.308594,2.027344 -1.464844,0.679688 -3.375,0.679688 -1.910156,0 -3.398438,-0.679688 Q 86.37274,68.433762 85.52899,67.086105 84.696959,65.738449 84.696959,63.769699 V 52.496262 h 3.515625 v 11.273437 q 0,1.148438 0.363281,1.875 0.363281,0.726563 1.042969,1.066406 0.691406,0.339844 1.628906,0.339844 0.960937,0 1.628906,-0.339844 0.679688,-0.339843 1.03125,-1.066406 0.363281,-0.726562 0.363281,-1.875 z m 9.516723,0 v 17.0625 h -3.50391 v -17.0625 z"
     id="text12"
     style="font-weight:bold;font-size:24px;line-height:1;font-family:Roboto;-inkscape-font-specification:'Roboto Bold';letter-spacing:-0.62px"
     aria-label="PUPGUI" /></svg>
