<?xml version="1.0" encoding="UTF-8" standalone="no"?>
<svg
   height="128px"
   viewBox="0 0 128 128"
   width="128px"
   version="1.1"
   id="svg286"
   xml:space="preserve"
   xmlns:xlink="http://www.w3.org/1999/xlink"
   xmlns="http://www.w3.org/2000/svg"
   xmlns:svg="http://www.w3.org/2000/svg"><defs
     id="defs290"><linearGradient
       id="b-1"><stop
         stop-color="#565656"
         offset="0"
         id="stop3" /><stop
         stop-color="#a4a4a4"
         offset="1"
         id="stop4" /></linearGradient><linearGradient
       id="c"><stop
         stop-color="#f5f500"
         offset="0"
         id="stop5" /><stop
         stop-color="#616100"
         offset="1"
         id="stop6" /></linearGradient><linearGradient
       id="o"
       x1="462.79"
       x2="616.18"
       y1="407.82"
       y2="636.61"
       gradientUnits="userSpaceOnUse"
       gradientTransform="matrix(0.10156151,0,0,0.10156151,151.84831,16.126294)"><stop
         stop-color="#fff"
         offset="0"
         id="stop7" /><stop
         stop-color="#738494"
         offset="1"
         id="stop8" /></linearGradient><linearGradient
       id="i"
       x1="505.71"
       x2="517.49"
       y1="6.8571"
       y2="914.23"
       gradientUnits="userSpaceOnUse"
       gradientTransform="matrix(0.10156151,0,0,0.10156151,151.84831,16.126294)"><stop
         stop-color="#9d9d9e"
         offset="0"
         id="stop11" /><stop
         stop-color="#3a566f"
         offset="1"
         id="stop12" /></linearGradient><linearGradient
       xlink:href="#i"
       id="linearGradient15"
       gradientUnits="userSpaceOnUse"
       x1="64"
       y1="8"
       x2="64"
       y2="112"
       gradientTransform="translate(1.93e-4)" /><linearGradient
       xlink:href="#c"
       id="linearGradient22"
       gradientUnits="userSpaceOnUse"
       gradientTransform="matrix(0.10156151,0,0,0.10156151,8.714213,12.07266)"
       x1="152.59"
       y1="711.47"
       x2="250.03"
       y2="867.73" /><linearGradient
       xlink:href="#c"
       id="linearGradient23"
       gradientUnits="userSpaceOnUse"
       gradientTransform="matrix(0.10156151,0,0,0.10156151,8.714213,12.07266)"
       x1="748.24"
       y1="318.05"
       x2="836.48"
       y2="468.8" /><linearGradient
       xlink:href="#b-1"
       id="linearGradient24"
       gradientUnits="userSpaceOnUse"
       gradientTransform="matrix(0.10156151,0,0,0.10156151,8.714213,12.07266)"
       x1="379.6"
       y1="720.45"
       x2="350.11"
       y2="682.67" /><linearGradient
       xlink:href="#b-1"
       id="linearGradient25"
       gradientUnits="userSpaceOnUse"
       gradientTransform="matrix(0.10156151,0,0,0.10156151,8.714213,12.07266)"
       x1="743.83"
       y1="467.8"
       x2="722.4"
       y2="432.99" /><linearGradient
       xlink:href="#o"
       id="linearGradient28"
       gradientUnits="userSpaceOnUse"
       gradientTransform="matrix(0.10156151,0,0,0.10156151,8.714213,12.07266)"
       x1="462.79"
       y1="407.82"
       x2="616.18"
       y2="636.61" /><linearGradient
       xlink:href="#b-1"
       id="linearGradient29"
       gradientUnits="userSpaceOnUse"
       gradientTransform="matrix(0.10156151,0,0,0.10156151,8.714213,12.07266)"
       x1="442"
       y1="343.76"
       x2="485.13"
       y2="323.07" /><linearGradient
       xlink:href="#b-1"
       id="linearGradient30"
       gradientUnits="userSpaceOnUse"
       gradientTransform="matrix(0.10156151,0,0,0.10156151,8.714213,12.07266)"
       x1="703.83"
       y1="706.73"
       x2="737.58"
       y2="673.51" /><linearGradient
       xlink:href="#c"
       id="linearGradient31"
       gradientUnits="userSpaceOnUse"
       gradientTransform="matrix(0.10156151,0,0,0.10156151,8.714213,12.07266)"
       x1="303.34"
       y1="29.415"
       x2="408.13"
       y2="205.9" /><linearGradient
       xlink:href="#c"
       id="linearGradient32"
       gradientUnits="userSpaceOnUse"
       gradientTransform="matrix(0.10156151,0,0,0.10156151,8.714213,12.07266)"
       x1="788.68"
       y1="711.47"
       x2="906.34"
       y2="904.5" /></defs><linearGradient
     id="a"
     gradientUnits="userSpaceOnUse"
     x1="11.999989"
     x2="115.999989"
     y1="64"
     y2="64"><stop
       offset="0"
       stop-color="#3d3846"
       id="stop252"
       style="stop-color:#2e2e44;stop-opacity:1;" /><stop
       offset="0.05"
       stop-color="#77767b"
       id="stop254"
       style="stop-color:#63788d;stop-opacity:1;" /><stop
       offset="0.1"
       stop-color="#5e5c64"
       id="stop256"
       style="stop-color:#2e2e44;stop-opacity:1;" /><stop
       offset="0.89999902"
       stop-color="#504e56"
       id="stop258"
       style="stop-color:#2e2e44;stop-opacity:1;" /><stop
       offset="0.94999999"
       stop-color="#77767b"
       id="stop260"
       style="stop-color:#63798d;stop-opacity:1;" /><stop
       offset="1"
       stop-color="#3d3846"
       id="stop262"
       style="stop-color:#2e2e44;stop-opacity:1;" /></linearGradient><linearGradient
     id="b"
     gradientUnits="userSpaceOnUse"
     x1="12"
     x2="112.041023"
     y1="60"
     y2="80.988281"><stop
       offset="0"
       stop-color="#77767b"
       id="stop265" /><stop
       offset="0.384443"
       stop-color="#9a9996"
       id="stop267" /><stop
       offset="0.720567"
       stop-color="#77767b"
       id="stop269" /><stop
       offset="1"
       stop-color="#68666f"
       id="stop271" /></linearGradient><path
     d="m 20 22 h 88 c 4.417969 0 8 3.582031 8 8 v 78 c 0 4.417969 -3.582031 8 -8 8 h -88 c -4.417969 0 -8 -3.582031 -8 -8 v -78 c 0 -4.417969 3.582031 -8 8 -8 z m 0 0"
     fill="url(#a)"
     id="path274" /><path
     d="m 20 12 h 88 c 4.417969 0 8 3.582031 8 8 v 80 c 0 4.417969 -3.582031 8 -8 8 h -88 c -4.417969 0 -8 -3.582031 -8 -8 v -80 c 0 -4.417969 3.582031 -8 8 -8 z m 0 0"
     fill="url(#b)"
     id="path276"
     style="fill:#2c2c2c;fill-opacity:1" /><path
     id="path21"
     style="fill:#515151;fill-opacity:1"
     d="m 19.999999,20 c -4.41797,0 -8,3.58203 -8,8 v 10.91211 h 10 V 35 c 0,-2.77 2.23,-5 5,-5 H 101 c 2.77,0 5,2.23 5,5 v 3.91211 h 10 V 28 c 0,-4.41797 -3.58203,-8 -8,-8 z" /><circle
     cx="31.202995"
     cy="94.743729"
     r="13.202996"
     fill="url(#p)"
     id="circle15-6"
     style="fill:url(#linearGradient22);stroke-width:0.101562" /><path
     id="path14"
     style="fill:url(#linearGradient15);fill-opacity:1"
     d="m 20,12 c -4.41797,0 -8,3.58203 -8,8 v 80 c 0,4.41797 3.58203,8 8,8 h 88 c 4.41797,0 8,-3.58203 8,-8 V 20 c 0,-4.41797 -3.58203,-8 -8,-8 z m 7,10 h 74 c 2.77,0 5,2.23 5,5 v 66 c 0,2.77 -2.23,5 -5,5 H 27 c -2.77,0 -5,-2.23 -5,-5 V 27 c 0,-2.77 2.23,-5 5,-5 z" /><circle
     cx="89.95327"
     cy="53.984055"
     r="11.327155"
     fill="url(#t)"
     id="circle16-1"
     style="fill:url(#linearGradient23);stroke-width:0.101562" /><path
     d="m 50.538263,75.08853 -13.49042,10.64263 c -0.82816,2.05662 2.31631,6.54686 4.66777,5.74138 l 13.86314,-11.0631 z"
     fill="url(#k)"
     id="path17-0"
     style="fill:url(#linearGradient24);stroke-width:0.101562" /><path
     d="m 77.611513,57.81698 5.78809,-3.92098 c 2.75384,0.12245 4.73581,2.28737 3.73421,5.60142 l -6.0682,4.15437 z"
     fill="url(#l)"
     id="path18-6"
     style="fill:url(#linearGradient25);stroke-width:0.101562" /><circle
     cx="65.736931"
     cy="68.050323"
     r="17.849436"
     fill="url(#o)"
     id="circle19-6"
     style="fill:url(#linearGradient28);stroke-width:0.101562" /><path
     d="m 47.737193,37.7921 8.30875,17.73772 c 1.99588,0.6842 6.19525,-1.12967 6.02148,-3.1741 l -9.28892,-20.49207 z"
     fill="url(#n)"
     id="path19-1"
     style="fill:url(#linearGradient29);stroke-width:0.101562" /><path
     d="M 90.120843,85.35742 78.404703,74.52791 c -2.27101,-0.65436 -5.98512,1.7752 -5.13464,4.85454 l 11.48254,10.78279 z"
     fill="url(#m)"
     id="path20-5"
     style="fill:url(#linearGradient30);stroke-width:0.101562" /><circle
     cx="46.43721"
     cy="26.407061"
     r="13.638695"
     fill="url(#q)"
     id="circle21-7"
     style="fill:url(#linearGradient31);stroke-width:0.101562" /><circle
     cx="96.409523"
     cy="95.904587"
     r="13.990098"
     fill="url(#v)"
     id="circle22-6"
     style="fill:url(#linearGradient32);stroke-width:0.101562" /></svg>
