<?xml version="1.0" encoding="UTF-8" standalone="no"?>
<svg
   viewBox="0 0 128 128"
   style="display:inline;enable-background:new"
   version="1.0"
   id="svg11300"
   height="128"
   width="128"
   xmlns="http://www.w3.org/2000/svg"
   xmlns:svg="http://www.w3.org/2000/svg"
   xmlns:rdf="http://www.w3.org/1999/02/22-rdf-syntax-ns#"
   xmlns:cc="http://creativecommons.org/ns#"
   xmlns:dc="http://purl.org/dc/elements/1.1/">
  <title
     id="title4162">Adwaita Icon Template</title>
  <defs
     id="defs3">
    <linearGradient
       id="c"
       gradientUnits="userSpaceOnUse"
       x1="203.99998"
       x2="268"
       y1="-64"
       y2="-64"
       gradientTransform="rotate(90,86.500003,-86.5)">
      <stop
         offset="0"
         stop-color="#d5d3cf"
         id="stop12"
         style="stop-color:#31be43;stop-opacity:1;" />
      <stop
         offset="1"
         stop-color="#f6f5f4"
         id="stop14"
         style="stop-color:#7adc87;stop-opacity:1;" />
    </linearGradient>
    <radialGradient
       id="b"
       cx="-243.06659"
       cy="-74.599976"
       gradientUnits="userSpaceOnUse"
       r="28.266657"
       gradientTransform="matrix(0,-1,-1,0,0,-173)">
      <stop
         offset="0"
         stop-color="#d5d3cf"
         id="stop7"
         style="stop-color:#79dc86;stop-opacity:1;" />
      <stop
         offset="1"
         stop-color="#949390"
         id="stop9"
         style="stop-color:#51d261;stop-opacity:1;" />
    </radialGradient>
    <linearGradient
       id="a"
       gradientUnits="userSpaceOnUse"
       x1="64"
       x2="64"
       y1="262.5"
       y2="232"
       gradientTransform="translate(0,-173)">
      <stop
         offset="0"
         stop-color="#9a9996"
         id="stop2"
         style="stop-color:#52d262;stop-opacity:1;" />
      <stop
         offset="1"
         stop-color="#77767b"
         id="stop4"
         style="stop-color:#279635;stop-opacity:1;" />
    </linearGradient>
  </defs>
  <metadata
     id="metadata4">
    <rdf:RDF>
      <cc:Work
         rdf:about="">
        <dc:format>image/svg+xml</dc:format>
        <dc:type
           rdf:resource="http://purl.org/dc/dcmitype/StillImage" />
        <dc:creator>
          <cc:Agent>
            <dc:title>GNOME Design Team</dc:title>
          </cc:Agent>
        </dc:creator>
        <dc:source />
        <cc:license
           rdf:resource="http://creativecommons.org/licenses/by-sa/4.0/" />
        <dc:title>Adwaita Icon Template</dc:title>
        <dc:subject>
          <rdf:Bag />
        </dc:subject>
        <dc:date />
        <dc:rights>
          <cc:Agent>
            <dc:title />
          </cc:Agent>
        </dc:rights>
        <dc:publisher>
          <cc:Agent>
            <dc:title />
          </cc:Agent>
        </dc:publisher>
        <dc:identifier />
        <dc:relation />
        <dc:language />
        <dc:coverage />
        <dc:description />
        <dc:contributor>
          <cc:Agent>
            <dc:title />
          </cc:Agent>
        </dc:contributor>
      </cc:Work>
      <cc:License
         rdf:about="http://creativecommons.org/licenses/by-sa/4.0/">
        <cc:permits
           rdf:resource="http://creativecommons.org/ns#Reproduction" />
        <cc:permits
           rdf:resource="http://creativecommons.org/ns#Distribution" />
        <cc:requires
           rdf:resource="http://creativecommons.org/ns#Notice" />
        <cc:requires
           rdf:resource="http://creativecommons.org/ns#Attribution" />
        <cc:permits
           rdf:resource="http://creativecommons.org/ns#DerivativeWorks" />
        <cc:requires
           rdf:resource="http://creativecommons.org/ns#ShareAlike" />
      </cc:License>
    </rdf:RDF>
  </metadata>
  <path
     d="m 67,121 h -6 l -2,-16 h 10 z m 0,0"
     fill="#9a9996"
     stroke="#9a9996"
     stroke-linecap="round"
     stroke-linejoin="round"
     id="path17"
     style="stroke:#279635;stroke-width:8;stroke-opacity:1" />
  <path
     d="m 61,9 h 6 l 2,16 H 59 Z m 0,0"
     fill="#9a9996"
     stroke="#9a9996"
     stroke-linecap="round"
     stroke-linejoin="round"
     id="path19"
     style="stroke-width:8" />
  <path
     d="m 8,68 v -6 l 16,-2 v 10 z m 0,0"
     fill="#9a9996"
     stroke="#9a9996"
     stroke-linecap="round"
     stroke-linejoin="round"
     id="path21"
     style="stroke:#279635;stroke-width:8;stroke-opacity:1" />
  <path
     d="m 120,62 v 6 l -16,2 V 60 Z m 0,0"
     fill="#9a9996"
     stroke="#9a9996"
     stroke-linecap="round"
     stroke-linejoin="round"
     id="path23"
     style="stroke:#279635;stroke-width:8;stroke-opacity:1" />
  <path
     d="m 14.0039,39.597413 3,-5.195309 14.85546,6.265628 -4.99999,8.660155 z m 0,0"
     fill="#9a9996"
     stroke="#9a9996"
     stroke-linecap="round"
     stroke-linejoin="round"
     id="path25"
     style="stroke:#279635;stroke-width:8;stroke-opacity:1" />
  <path
     d="m 113.99608,90.402122 -3,5.19531 -14.855469,-6.265633 4.999909,-8.664102 z m 0,0"
     fill="#9a9996"
     stroke="#9a9996"
     stroke-linecap="round"
     stroke-linejoin="round"
     id="path27"
     style="stroke:#279635;stroke-width:8;stroke-opacity:1" />
  <path
     d="m 33.40249,18.003998 5.195315,-3.000005 9.734376,12.855468 -8.664111,4.99992 z m 0,0"
     fill="#9a9996"
     stroke="#9a9996"
     stroke-linecap="round"
     stroke-linejoin="round"
     id="path29"
     style="stroke:#279635;stroke-width:8;stroke-opacity:1" />
  <path
     d="m 94.597824,111.99617 -5.195318,3.00001 -9.734376,-12.85547 8.664111,-4.999921 z m 0,0"
     fill="#9a9996"
     stroke="#9a9996"
     stroke-linecap="round"
     stroke-linejoin="round"
     id="path31"
     style="stroke:#279635;stroke-width:8;stroke-opacity:1" />
  <path
     d="m 38.597167,114.99636 -5.195317,-3 6.265632,-14.855473 8.664111,4.999923 z m 0,0"
     fill="#9a9996"
     stroke="#9a9996"
     stroke-linecap="round"
     stroke-linejoin="round"
     id="path33"
     style="stroke:#279635;stroke-width:8;stroke-opacity:1" />
  <path
     d="m 89.40187,15.004179 5.195319,3.000005 -6.265629,14.85546 -8.664111,-4.999919 z m 0,0"
     fill="#9a9996"
     stroke="#9a9996"
     stroke-linecap="round"
     stroke-linejoin="round"
     id="path35"
     style="stroke:#279635;stroke-width:8;stroke-opacity:1" />
  <path
     d="m 17.00386,95.597549 -3,-5.19531 12.85546,-9.734376 4.99992,8.664102 z m 0,0"
     fill="#9a9996"
     stroke="#9a9996"
     stroke-linecap="round"
     stroke-linejoin="round"
     id="path37"
     style="stroke:#279635;stroke-width:8;stroke-opacity:1" />
  <path
     d="m 110.99603,34.402217 2.99999,5.195315 -12.85546,9.730469 -4.999997,-8.66015 z m 0,0"
     fill="#9a9996"
     stroke="#9a9996"
     stroke-linecap="round"
     stroke-linejoin="round"
     id="path39"
     style="stroke:#279635;stroke-width:8;stroke-opacity:1" />
  <path
     d="m 67,119 h -6 l -2,-16 h 10 z m 0,0"
     fill="#f6f5f4"
     stroke="#f6f5f4"
     stroke-linecap="round"
     stroke-linejoin="round"
     id="path41"
     style="fill:#52d262;fill-opacity:1;stroke:#52d262;stroke-width:8;stroke-opacity:1" />
  <path
     d="m 61,7 h 6 l 2,16 H 59 Z m 0,0"
     fill="#f6f5f4"
     stroke="#f6f5f4"
     stroke-linecap="round"
     stroke-linejoin="round"
     id="path43"
     style="fill:#52d262;fill-opacity:1;stroke:#52d262;stroke-width:8;stroke-opacity:1" />
  <path
     d="m 8,66 v -6 l 16,-2 v 10 z m 0,0"
     fill="#f6f5f4"
     stroke="#f6f5f4"
     stroke-linecap="round"
     stroke-linejoin="round"
     id="path45"
     style="fill:#52d262;fill-opacity:1;stroke:#52d262;stroke-width:8;stroke-opacity:1" />
  <path
     d="m 120,60 v 6 l -16,2 V 58 Z m 0,0"
     fill="#f6f5f4"
     stroke="#f6f5f4"
     stroke-linecap="round"
     stroke-linejoin="round"
     id="path47"
     style="fill:#52d262;fill-opacity:1;stroke:#52d262;stroke-width:8;stroke-opacity:1" />
  <path
     d="m 14.0039,37.597413 3,-5.195309 14.85546,6.265628 -4.99999,8.660155 z m 0,0"
     fill="#f6f5f4"
     stroke="#f6f5f4"
     stroke-linecap="round"
     stroke-linejoin="round"
     id="path49"
     style="fill:#52d262;fill-opacity:1;stroke:#52d262;stroke-width:8;stroke-opacity:1" />
  <path
     d="m 113.99608,88.402123 -3,5.195309 -14.855469,-6.265633 4.999909,-8.664102 z m 0,0"
     fill="#f6f5f4"
     stroke="#f6f5f4"
     stroke-linecap="round"
     stroke-linejoin="round"
     id="path51"
     style="fill:#52d262;fill-opacity:1;stroke:#52d262;stroke-width:8;stroke-opacity:1" />
  <path
     d="m 33.40247,16.004001 5.195317,-3.000005 9.734376,12.855468 -8.664111,4.999919 z m 0,0"
     fill="#f6f5f4"
     stroke="#f6f5f4"
     stroke-linecap="round"
     stroke-linejoin="round"
     id="path53"
     style="fill:#52d262;fill-opacity:1;stroke:#52d262;stroke-width:8;stroke-opacity:1" />
  <path
     d="m 94.597806,109.99617 -5.195318,3.00001 -9.734376,-12.85547 8.664111,-4.999918 z m 0,0"
     fill="#f6f5f4"
     stroke="#f6f5f4"
     stroke-linecap="round"
     stroke-linejoin="round"
     id="path55"
     style="fill:#52d262;fill-opacity:1;stroke:#52d262;stroke-width:8;stroke-opacity:1" />
  <path
     d="m 38.597167,112.99636 -5.195317,-3 6.265632,-14.855474 8.664111,4.999924 z m 0,0"
     fill="#f6f5f4"
     stroke="#f6f5f4"
     stroke-linecap="round"
     stroke-linejoin="round"
     id="path57"
     style="fill:#52d262;fill-opacity:1;stroke:#52d262;stroke-width:8;stroke-opacity:1" />
  <path
     d="m 89.40187,13.004179 5.195319,3.000005 -6.265629,14.85546 -8.664111,-4.99992 z m 0,0"
     fill="#f6f5f4"
     stroke="#f6f5f4"
     stroke-linecap="round"
     stroke-linejoin="round"
     id="path59"
     style="fill:#52d262;fill-opacity:1;stroke:#52d262;stroke-width:8;stroke-opacity:1" />
  <path
     d="m 17.00386,93.59755 -3,-5.19531 12.85546,-9.734376 4.99992,8.664102 z m 0,0"
     fill="#f6f5f4"
     stroke="#f6f5f4"
     stroke-linecap="round"
     stroke-linejoin="round"
     id="path61"
     style="fill:#52d262;fill-opacity:1;stroke:#52d262;stroke-width:8;stroke-opacity:1" />
  <path
     d="m 110.99603,32.402218 2.99999,5.195315 -12.85546,9.730469 -4.999997,-8.66015 z m 0,0"
     fill="#f6f5f4"
     stroke="#f6f5f4"
     stroke-linecap="round"
     stroke-linejoin="round"
     id="path63"
     style="fill:#52d262;fill-opacity:1;stroke:#52d262;stroke-width:8;stroke-opacity:1" />
  <path
     d="M 100,65.000001 C 100,84.882811 83.882815,101 64.000005,101 44.117195,101 28,84.882811 28,65.000001 c 0,-19.88281 16.117195,-36 36.000005,-36 19.88281,0 35.999995,16.11719 35.999995,36 z m 0,0"
     fill="none"
     stroke="url(#a)"
     stroke-width="24"
     id="path67"
     style="stroke:url(#a)" />
  <path
     id="path2204"
     style="fill:#52d262;stroke-width:3.02607;stroke-linecap:square;stroke-linejoin:round;stroke-miterlimit:1.5;paint-order:stroke fill markers"
     d="m 89.000003,63.000001 a 24.999998,24.999998 0 0 1 -25,24.999997 24.999998,24.999998 0 0 1 -25,-24.999997 24.999998,24.999998 0 0 1 25,-24.999999 24.999998,24.999998 0 0 1 25,24.999999 z" />
  <path
     d="M 102,63 C 102,83.988281 84.988285,101 64.000005,101 43.011725,101 26,83.988281 26,63 26,42.011719 43.011725,25 64.000005,25 84.988285,25 102,42.011719 102,63 Z m 0,0"
     fill="none"
     stroke="#f6f5f4"
     stroke-width="20"
     id="path69"
     style="stroke:#52d262;stroke-opacity:1" />
  <path
     d="m 64.000005,36.500001 c -14.63672,0 -26.500005,11.86328 -26.500005,26.5 0,14.63672 11.863285,26.5 26.500005,26.5 14.63672,0 26.5,-11.86328 26.5,-26.5 0,-14.63672 -11.86328,-26.5 -26.5,-26.5 z m 0,0"
     fill="none"
     stroke="url(#b)"
     stroke-linecap="square"
     stroke-linejoin="round"
     stroke-width="5"
     id="path71"
     style="stroke:url(#b)" />
  <path
     d="M 64.000005,95.000001 C 46.328135,95.000001 32,80.671871 32,63 32,45.32812 46.328135,31 64.000005,31 c 17.67188,0 32,14.32812 32,32 0,17.671871 -14.32812,32.000001 -32,32.000001 z m 0,0"
     fill="none"
     stroke="url(#c)"
     stroke-linecap="square"
     stroke-linejoin="round"
     stroke-width="8"
     id="path73"
     style="stroke:url(#c)" />
  <path
     d="m 52.97783,85.6592 q -4.992,0 -8.448,-1.28 -3.392,-1.344 -5.504,-4.096 -2.048,-2.752 -3.008,-6.976 -0.896,-4.224 -0.896,-10.048 0,-5.824 0.96,-10.112 0.96,-4.288 3.072,-7.104 2.112,-2.88 5.504,-4.224 3.392,-1.408 8.32,-1.408 4.928,0 8.32,1.408 3.392,1.344 5.504,4.224 2.112,2.816 3.008,7.104 0.96,4.288 0.96,10.112 0,7.744 -1.664,12.48 -1.6,4.672 -5.312,7.168 l 5.376,8.64 -6.592,3.072 -5.696,-9.344 q -1.216,0.384 -3.904,0.384 z m -8.32,-9.984 q 2.24,3.776 8.32,3.776 3.072,0 5.056,-0.832 2.048,-0.896 3.2,-2.816 1.216,-1.92 1.664,-4.992 0.512,-3.072 0.512,-7.488 0,-4.416 -0.512,-7.552 -0.512,-3.136 -1.728,-5.184 -1.152,-2.048 -3.2,-3.008 -1.984,-0.96 -4.992,-0.96 -3.008,0 -5.056,0.96 -1.984,0.96 -3.2,3.008 -1.216,2.048 -1.728,5.184 -0.512,3.136 -0.512,7.488 0,8.704 2.176,12.416 z m 50.652011,-22.72 v 5.952 h -8.832 v 14.08 q 0,1.92 0.064,3.2 0.128,1.28 0.512,1.984 0.384,0.704 1.088,1.024 0.704,0.256 1.856,0.256 l 5.248,-0.192 0.32,5.568 q -4.16,0.832 -6.528,0.832 -2.688,0 -4.544,-0.576 -1.792,-0.576 -2.944,-1.92 -1.088,-1.344 -1.536,-3.648 -0.448,-2.304 -0.448,-5.76 v -14.848 h -4.096 v -5.952 h 4.096 v -9.28 h 6.912 v 9.28 z"
     id="text1"
     style="font-size:64px;line-height:1;font-family:Sunflower;-inkscape-font-specification:Sunflower;letter-spacing:-0.1px;fill:#ffffff;opacity:1"
     aria-label="Qt" />
</svg>
