<?xml version="1.0" encoding="UTF-8" standalone="no"?>
<svg
   viewBox="0 0 128 128"
   style="display:inline;enable-background:new"
   version="1.0"
   id="svg11300"
   height="128"
   width="128"
   xml:space="preserve"
   xmlns:xlink="http://www.w3.org/1999/xlink"
   xmlns="http://www.w3.org/2000/svg"
   xmlns:svg="http://www.w3.org/2000/svg"
   xmlns:rdf="http://www.w3.org/1999/02/22-rdf-syntax-ns#"
   xmlns:cc="http://creativecommons.org/ns#"
   xmlns:dc="http://purl.org/dc/elements/1.1/"><title
     id="title4162">Adwaita Icon Template</title><defs
     id="defs3"><linearGradient
       xlink:href="#linearGradient26"
       id="linearGradient2"
       x1="88.118774"
       y1="40.590107"
       x2="19.486467"
       y2="104.45753"
       gradientUnits="userSpaceOnUse"
       gradientTransform="translate(0,0.008978)" /><linearGradient
       id="linearGradient26"
       spreadMethod="pad"
       gradientTransform="matrix(-89.129422,-89.129422,89.129422,-89.129422,-76.387771,103.73604)"
       gradientUnits="userSpaceOnUse"
       y2="0"
       x2="1"
       y1="0"
       x1="0">
      <stop
   id="stop22"
   offset="0"
   style="stop-color:#1a8550;stop-opacity:1;" />
      <stop
   id="stop24"
   offset="1"
   style="stop-color:#2cde85;stop-opacity:1;" />
    </linearGradient><linearGradient
       y2="44"
       x2="464"
       y1="44"
       x1="48"
       gradientTransform="matrix(0.25,0,0,0.25,0,53.008978)"
       gradientUnits="userSpaceOnUse"
       id="linearGradient1747"
       xlink:href="#linearGradient974" /><linearGradient
       id="linearGradient974"><stop
         style="stop-color:#1a8550;stop-opacity:1;"
         offset="0"
         id="stop962" /><stop
         id="stop964"
         offset="0.04166667"
         style="stop-color:#2cde85;stop-opacity:1;" /><stop
         style="stop-color:#1a8550;stop-opacity:1;"
         offset="0.08333334"
         id="stop966" /><stop
         id="stop968"
         offset="0.83993912"
         style="stop-color:#1a8550;stop-opacity:1;" /><stop
         style="stop-color:#1db96b;stop-opacity:1;"
         offset="0.87721819"
         id="stop970" /><stop
         style="stop-color:#1a8550;stop-opacity:1;"
         offset="0.91694832"
         id="stop972" /></linearGradient></defs><metadata
     id="metadata4"><rdf:RDF><cc:Work
         rdf:about=""><dc:format>image/svg+xml</dc:format><dc:type
           rdf:resource="http://purl.org/dc/dcmitype/StillImage" /><dc:creator><cc:Agent><dc:title>GNOME Design Team</dc:title></cc:Agent></dc:creator><dc:source /><cc:license
           rdf:resource="http://creativecommons.org/licenses/by-sa/4.0/" /><dc:title>Adwaita Icon Template</dc:title><dc:subject><rdf:Bag /></dc:subject><dc:date /><dc:rights><cc:Agent><dc:title /></cc:Agent></dc:rights><dc:publisher><cc:Agent><dc:title /></cc:Agent></dc:publisher><dc:identifier /><dc:relation /><dc:language /><dc:coverage /><dc:description /><dc:contributor><cc:Agent><dc:title /></cc:Agent></dc:contributor></cc:Work><cc:License
         rdf:about="http://creativecommons.org/licenses/by-sa/4.0/"><cc:permits
           rdf:resource="http://creativecommons.org/ns#Reproduction" /><cc:permits
           rdf:resource="http://creativecommons.org/ns#Distribution" /><cc:requires
           rdf:resource="http://creativecommons.org/ns#Notice" /><cc:requires
           rdf:resource="http://creativecommons.org/ns#Attribution" /><cc:permits
           rdf:resource="http://creativecommons.org/ns#DerivativeWorks" /><cc:requires
           rdf:resource="http://creativecommons.org/ns#ShareAlike" /></cc:License></rdf:RDF></metadata><path
     id="path6"
     style="display:inline;fill:url(#linearGradient1747);fill-opacity:1;stroke:none;stroke-width:0.25;stroke-linecap:butt;stroke-linejoin:miter;stroke-miterlimit:4;stroke-dasharray:none;stroke-dashoffset:0;stroke-opacity:1;marker:none;marker-start:none;marker-mid:none;marker-end:none;paint-order:normal;enable-background:new"
     d="m 12,40.009366 v 68.000004 c 0,4.432 3.568,8 8,8 h 83.18359 L 116,103.68515 V 40.009366 c 0,-4.432 -3.568,-8 -8,-8 H 20 c -4.432,0 -8,3.568 -8,8 z" /><path
     id="path5"
     style="display:inline;fill:url(#linearGradient2);fill-opacity:1;stroke:none;stroke-width:0.25;stroke-linecap:butt;stroke-linejoin:miter;stroke-miterlimit:4;stroke-dasharray:none;stroke-dashoffset:0;stroke-opacity:1;marker:none;marker-start:none;marker-mid:none;marker-end:none;paint-order:normal;enable-background:new"
     d="M 24.78125,12.009366 12,24.298428 v 79.710942 c 0,4.432 3.568,8 8,8 h 83.18359 L 116,99.685147 V 20.009366 c 0,-4.432 -3.568,-8 -8,-8 z" /><path
     style="font-weight:bold;font-size:54.6667px;line-height:1;font-family:Sunflower;-inkscape-font-specification:'Sunflower Bold';letter-spacing:0px;fill:#ffffff;stroke-width:1.191"
     d="m 40.749963,93.019991 q -4.264002,0 -7.216004,-1.093334 -2.952002,-1.148 -4.756003,-3.498669 -1.804001,-2.350668 -2.624001,-5.95867 -0.820001,-3.608002 -0.820001,-8.528005 0,-4.920002 0.820001,-8.528005 0.82,-3.662668 2.624001,-6.068003 1.858668,-2.460002 4.756003,-3.608002 2.952002,-1.202668 7.216004,-1.202668 4.264003,0 7.161338,1.202668 2.952001,1.148 4.756002,3.608002 1.858668,2.405335 2.678669,6.068003 0.82,3.662669 0.82,8.582672 0,12.136007 -5.740003,16.345343 l 4.537336,7.325338 -6.888004,3.225339 -4.920003,-8.036009 q -0.546667,0.164 -2.405335,0.164 z m -6.013337,-9.402672 q 1.530668,2.842668 6.013337,2.842668 2.241335,0 3.662669,-0.656 1.476001,-0.710667 2.350668,-2.186668 0.929334,-1.476001 1.257334,-3.826669 0.382667,-2.405335 0.382667,-5.79467 0,-3.389335 -0.382667,-5.79467 -0.382667,-2.460001 -1.257334,-4.045336 -0.874667,-1.585334 -2.350668,-2.296001 -1.476001,-0.765334 -3.662669,-0.765334 -2.186668,0 -3.662669,0.765334 -1.476001,0.710667 -2.350668,2.296001 -0.874667,1.585335 -1.257334,4.045336 -0.382667,2.405335 -0.382667,5.79467 0,6.724004 1.640001,9.621339 z m 51.277388,1.968001 0.164,6.177337 q -2.952002,0.601334 -5.521337,0.929334 -2.569335,0.328 -4.920003,0.328 -4.646669,0 -7.434671,-1.148001 -2.788001,-1.148 -4.373336,-3.662668 -1.585334,-2.514668 -2.186667,-5.904004 -0.601334,-3.389335 -0.601334,-8.528005 0,-5.412003 0.656,-9.074672 0.710667,-3.662668 2.350668,-5.904003 1.640001,-2.296001 4.373336,-3.280002 2.733335,-0.984001 6.833337,-0.984001 4.756003,0 10.878673,1.476001 l -0.218666,6.013337 q -5.412003,-0.82 -8.965339,-0.82 -1.804001,0 -3.061335,0.218666 -1.202667,0.218667 -2.077335,0.765334 -0.82,0.492001 -1.366667,1.421334 -0.492,0.874668 -0.874667,2.186668 -0.382667,1.366668 -0.601334,3.608002 -0.164,2.241335 -0.164,5.521337 0,3.225335 0.328,5.412003 0.328,2.186668 1.148001,3.553336 0.874667,1.312 2.350668,1.913334 1.476001,0.546667 3.717335,0.546667 2.296002,0 4.64667,-0.164 2.350668,-0.218667 4.920003,-0.601334 z"
     id="text1"
     aria-label="QC" /></svg>
