<?xml version="1.0" encoding="UTF-8" standalone="no"?>
<svg
   viewBox="0 0 128 128"
   style="display:inline;enable-background:new"
   version="1.0"
   id="svg11300"
   height="128"
   width="128"
   xml:space="preserve"
   xmlns:xlink="http://www.w3.org/1999/xlink"
   xmlns="http://www.w3.org/2000/svg"
   xmlns:svg="http://www.w3.org/2000/svg"
   xmlns:rdf="http://www.w3.org/1999/02/22-rdf-syntax-ns#"
   xmlns:cc="http://creativecommons.org/ns#"
   xmlns:dc="http://purl.org/dc/elements/1.1/"><title
     id="title4162">Adwaita Icon Template</title><defs
     id="defs3"><linearGradient
       id="linearGradient160"><stop
         style="stop-color:#7a0000;stop-opacity:1;"
         offset="0.38232324"
         id="stop161" /><stop
         style="stop-color:#ff1414;stop-opacity:1;"
         offset="0.76197129"
         id="stop163" /><stop
         style="stop-color:#7a0000;stop-opacity:1;"
         offset="0.95269096"
         id="stop162" /></linearGradient><linearGradient
       id="linearGradient158"><stop
         style="stop-color:#7a0000;stop-opacity:1;"
         offset="0.04635416"
         id="stop158" /><stop
         style="stop-color:#ff1414;stop-opacity:1;"
         offset="0.24196653"
         id="stop160" /><stop
         style="stop-color:#7a0000;stop-opacity:1;"
         offset="0.6208728"
         id="stop159" /></linearGradient><linearGradient
       xlink:href="#linearGradient158"
       id="linearGradient159"
       x1="12"
       y1="109.5"
       x2="25"
       y2="109.5"
       gradientUnits="userSpaceOnUse" /><linearGradient
       xlink:href="#linearGradient160"
       id="linearGradient162"
       x1="103"
       y1="109.5"
       x2="116"
       y2="109.5"
       gradientUnits="userSpaceOnUse" /></defs><metadata
     id="metadata4"><rdf:RDF><cc:Work
         rdf:about=""><dc:format>image/svg+xml</dc:format><dc:type
           rdf:resource="http://purl.org/dc/dcmitype/StillImage" /><dc:creator><cc:Agent><dc:title>GNOME Design Team</dc:title></cc:Agent></dc:creator><dc:source /><cc:license
           rdf:resource="http://creativecommons.org/licenses/by-sa/4.0/" /><dc:title>Adwaita Icon Template</dc:title><dc:subject><rdf:Bag /></dc:subject><dc:date /><dc:rights><cc:Agent><dc:title /></cc:Agent></dc:rights><dc:publisher><cc:Agent><dc:title /></cc:Agent></dc:publisher><dc:identifier /><dc:relation /><dc:language /><dc:coverage /><dc:description /><dc:contributor><cc:Agent><dc:title /></cc:Agent></dc:contributor></cc:Work><cc:License
         rdf:about="http://creativecommons.org/licenses/by-sa/4.0/"><cc:permits
           rdf:resource="http://creativecommons.org/ns#Reproduction" /><cc:permits
           rdf:resource="http://creativecommons.org/ns#Distribution" /><cc:requires
           rdf:resource="http://creativecommons.org/ns#Notice" /><cc:requires
           rdf:resource="http://creativecommons.org/ns#Attribution" /><cc:permits
           rdf:resource="http://creativecommons.org/ns#DerivativeWorks" /><cc:requires
           rdf:resource="http://creativecommons.org/ns#ShareAlike" /></cc:License></rdf:RDF></metadata><path
     id="path150"
     style="fill:url(#linearGradient159);fill-opacity:1;stroke:none;stroke-width:1.0203"
     d="m 12,103 v 5 c 0,4.432 3.568,8 8,8 h 5 v -13 z" /><path
     id="path151"
     style="fill:url(#linearGradient162);fill-opacity:1;stroke:none;stroke-width:1.0203"
     d="m 103,116 h 5 c 4.432,0 8,-3.568 8,-8 v -5 h -13 z" /><path
     id="rect151"
     style="fill:#610000;stroke-width:0.51015"
     d="M 83.5,109.5 H 90 v 6.5 h -6.5 z" /><path
     id="rect152"
     style="fill:#610000;stroke-width:0.51015"
     d="m 38.000004,109.5 h 6.5 v 6.5 h -6.5 z" /><path
     id="rect153"
     style="fill:#6f581b;stroke-width:0.51015"
     d="m 90,109.5 h 6.5 V 116 H 90 Z" /><path
     id="rect154"
     style="fill:#6f581b;stroke-width:0.51015"
     d="m 31.500004,109.5 h 6.5 v 6.5 h -6.5 z" /><path
     id="rect155"
     style="fill:#940000;stroke-width:1.24961"
     d="M 44.500004,109.5 H 83.5 V 116 H 44.500004 Z" /><path
     id="rect156"
     style="fill:#ffff00;stroke-width:0.51015"
     d="m 25.000004,109.5 h 6.5 v 6.5 h -6.5 z" /><path
     id="rect157"
     style="fill:#999900;stroke-width:0.51015"
     d="m 25.000004,109.5 h 6.5 v 6.5 h -6.5 z" /><path
     id="rect158"
     style="fill:#999900;stroke-width:0.51015"
     d="M 96.5,109.5 H 103 V 116 H 96.5 Z" /><path
     id="path146"
     style="display:inline;fill:#ffcb97;fill-opacity:1;stroke:none;stroke-width:1.0203;enable-background:new"
     d="M 51 8 L 51 12 L 77 12 L 77 8 L 51 8 z " /><path
     id="rect1"
     style="fill:#ffffff;stroke-width:1.0203"
     d="m 51,8 h 26 v 6.5 H 51 Z" /><path
     id="rect2"
     style="fill:#ffffff;stroke-width:0.721461"
     d="M 38,14.5 H 51 V 21 H 38 Z" /><path
     id="rect3"
     style="fill:#ffffff;stroke-width:0.721461"
     d="M 77,14.5 H 90 V 21 H 77 Z" /><path
     id="rect4"
     style="fill:#ffffff;stroke-width:0.721461"
     d="m 103,34 h 13 v 6.5 h -13 z" /><path
     id="rect5"
     style="fill:#ffffff;stroke-width:0.721461"
     d="m 12.000004,34 h 13 v 6.5 h -13 z" /><path
     id="rect7"
     style="fill:#ffffff;stroke-width:0.51015"
     d="m 31.500002,21 h 6.5 v 6.5 h -6.5 z" /><path
     id="rect8"
     style="fill:#ffffff;stroke-width:0.51015"
     d="m 25.000004,27.5 h 6.5 V 34 h -6.5 z" /><path
     id="rect9"
     style="fill:#ffffff;stroke-width:0.51015"
     d="m 90,21 h 6.5 v 6.5 H 90 Z" /><path
     id="rect10"
     style="fill:#ffffff;stroke-width:0.51015"
     d="M 96.5,27.5 H 103 V 34 h -6.5 z" /><path
     id="rect11"
     style="fill:#ffffff;stroke-width:0.721461"
     d="m 57.5,27.5 h 13 V 34 h -13 z" /><path
     id="rect12"
     style="fill:#b37347;stroke-width:1.0203"
     d="M 51,14.5 H 77 V 21 H 51 Z" /><path
     id="rect13"
     style="fill:#b37347;stroke-width:0.51015"
     d="M 83.5,21 H 90 v 6.5 h -6.5 z" /><path
     id="rect14"
     style="fill:#b37347;stroke-width:0.51015"
     d="m 38,21 h 6.5 v 6.5 H 38 Z" /><path
     id="rect15"
     style="fill:#b37347;stroke-width:0.51015"
     d="m 31.500004,34 h 6.5 v 6.5 h -6.5 z" /><path
     id="rect16"
     style="fill:#b37347;stroke-width:0.51015"
     d="m 90,34 h 6.5 v 6.5 H 90 Z" /><path
     id="rect17"
     style="fill:#b37347;stroke-width:0.51015"
     d="M 83.5,47 H 90 v 6.5 h -6.5 z" /><path
     id="rect18"
     style="fill:#b37347;stroke-width:0.51015"
     d="m 38,47 h 6.5 v 6.5 H 38 Z" /><path
     id="rect19"
     style="fill:#b37347;stroke-width:0.51015"
     d="m 90,79.5 h 6.5 V 86 H 90 Z" /><path
     id="rect20"
     style="fill:#b37347;stroke-width:0.51015"
     d="m 31.500004,79.5 h 6.5 V 86 h -6.5 z" /><path
     id="rect21"
     style="fill:#b37347;stroke-width:0.51015"
     d="m 77,92.5 h 6.5 V 99 H 77 Z" /><path
     id="rect22"
     style="fill:#b37347;stroke-width:0.51015"
     d="M 44.5,92.5 H 51 V 99 h -6.5 z" /><path
     id="rect23"
     style="fill:#e39767;stroke-width:0.51015"
     d="M 44.5,21 H 51 v 6.5 h -6.5 z" /><path
     id="rect24"
     style="fill:#e39767;stroke-width:0.51015"
     d="m 77,21 h 6.5 v 6.5 H 77 Z" /><path
     id="rect25"
     style="fill:#e39767;stroke-width:0.51015"
     d="M 83.5,27.5 H 90 V 34 h -6.5 z" /><path
     id="rect26"
     style="fill:#e39767;stroke-width:0.51015"
     d="m 38.000004,27.5 h 6.5 V 34 h -6.5 z" /><path
     id="rect27"
     style="fill:#e39767;stroke-width:0.51015"
     d="M 31.5,40.5 H 38 V 47 h -6.5 z" /><path
     id="rect28"
     style="fill:#e39767;stroke-width:0.51015"
     d="m 90,40.5 h 6.5 V 47 H 90 Z" /><path
     id="rect29"
     style="fill:#e39767;stroke-width:0.721461"
     d="m 57.5,47 h 13 v 6.5 h -13 z" /><path
     id="rect30"
     style="fill:#533f1f;stroke-width:0.51015"
     d="m 96.5,34 h 6.5 v 6.5 h -6.5 z" /><path
     id="rect31"
     style="fill:#533f1f;stroke-width:0.51015"
     d="m 25.000004,34 h 6.5 v 6.5 h -6.5 z" /><path
     id="rect32"
     style="fill:#7f532f;stroke-width:0.51015"
     d="M 31.5,27.5 H 38 V 34 h -6.5 z" /><path
     id="rect33"
     style="fill:#7f532f;stroke-width:0.51015"
     d="m 90,27.5 h 6.5 V 34 H 90 Z" /><path
     id="rect34"
     style="fill:#ffcfb3;stroke-width:0.51015"
     d="M 70.5,27.5 H 77 V 34 h -6.5 z" /><path
     id="rect35"
     style="fill:#ffcfb3;stroke-width:0.51015"
     d="m 51,27.5 h 6.5 V 34 H 51 Z" /><path
     id="rect36"
     style="fill:#ffcfb3;stroke-width:0.721461"
     d="m 57.5,34 h 13 v 6.5 h -13 z" /><path
     id="rect37"
     style="fill:#ffcb97;stroke-width:1.0203"
     d="m 51,21 h 26 v 6.5 H 51 Z" /><path
     id="rect38"
     style="fill:#ffcb97;stroke-width:0.51015"
     d="M 77 27.5 L 77 34 L 70.5 34 L 70.5 40.5 L 83.5 40.5 L 83.5 47 L 90 47 L 90 40.5 L 90 34 L 83.5 34 L 83.5 27.5 L 77 27.5 z " /><path
     id="rect39"
     style="fill:#ffcb97;stroke-width:0.51015"
     d="M 44.5 27.5 L 44.5 34 L 38 34 L 38 40.5 L 38 47 L 44.5 47 L 44.5 40.5 L 57.5 40.5 L 57.5 34 L 51 34 L 51 27.5 L 44.5 27.5 z " /><path
     id="rect44"
     style="fill:#ffcb97;stroke-width:0.721461"
     d="m 57.5,40.5 h 13 V 47 h -13 z" /><path
     id="rect45"
     style="fill:#414183;stroke-width:0.721461"
     d="m 44.5,40.5 h 13 V 47 h -13 z" /><path
     id="rect46"
     style="fill:#414183;stroke-width:0.721461"
     d="m 70.5,40.5 h 13 V 47 h -13 z" /><path
     id="rect47"
     style="fill:#5f0000;stroke-width:0.51015"
     d="m 25.000004,40.5 h 6.5 V 47 h -6.5 z" /><path
     id="rect48"
     style="fill:#5f0000;stroke-width:0.51015"
     d="M 96.5,40.5 H 103 V 47 h -6.5 z" /><path
     id="rect49"
     style="fill:#752900;stroke-width:0.51015"
     d="m 103,40.5 h 6.5 V 47 H 103 Z" /><path
     id="rect50"
     style="fill:#752900;stroke-width:0.51015"
     d="m 18.500004,40.5 h 6.5 V 47 h -6.5 z" /><path
     id="rect51"
     style="fill:#874307;stroke-width:0.51015"
     d="m 12.000004,40.5 h 6.5 V 47 h -6.5 z" /><path
     id="rect52"
     style="fill:#874307;stroke-width:0.51015"
     d="M 109.5,40.5 H 116 V 47 h -6.5 z" /><path
     id="rect53"
     style="fill:#5252ff;stroke-width:0.721461"
     d="m 44.5,47 h 13 v 6.5 h -13 z" /><path
     id="rect54"
     style="fill:#5252ff;stroke-width:0.721461"
     d="m 70.5,47 h 13 v 6.5 h -13 z" /><path
     id="rect55"
     style="fill:#752900;stroke-width:0.51015"
     d="m 90,47 h 6.5 v 6.5 H 90 Z" /><path
     id="rect56"
     style="fill:#752900;stroke-width:0.51015"
     d="M 31.5,47 H 38 v 6.5 h -6.5 z" /><path
     id="rect57"
     style="fill:#874307;stroke-width:0.51015"
     d="m 25,47 h 6.5 v 6.5 H 25 Z" /><path
     id="rect58"
     style="fill:#874307;stroke-width:0.51015"
     d="m 96.5,47 h 6.5 v 6.5 h -6.5 z" /><path
     id="rect59"
     style="fill:#874307;stroke-width:0.51015"
     d="m 90,53.5 h 6.5 V 60 H 90 Z" /><path
     id="rect60"
     style="fill:#874307;stroke-width:0.51015"
     d="m 103,53.5 h 6.5 V 60 H 103 Z" /><path
     id="rect61"
     style="fill:#874307;stroke-width:0.51015"
     d="M 31.5,53.5 H 38 V 60 h -6.5 z" /><path
     id="rect62"
     style="fill:#874307;stroke-width:0.51015"
     d="M 18.5,53.5 H 25 V 60 h -6.5 z" /><path
     id="rect63"
     style="fill:#752900;stroke-width:0.51015"
     d="m 12.000004,53.5 h 6.5 V 60 h -6.5 z" /><path
     id="rect64"
     style="fill:#752900;stroke-width:0.51015"
     d="M 109.5,53.5 H 116 V 60 h -6.5 z" /><path
     id="rect65"
     style="fill:#752900;stroke-width:0.51015"
     d="M 83.5,53.5 H 90 V 60 h -6.5 z" /><path
     id="rect66"
     style="fill:#752900;stroke-width:0.51015"
     d="m 38,53.5 h 6.5 V 60 H 38 Z" /><path
     id="rect67"
     style="fill:#21224e;stroke-width:0.721461"
     d="m 44.5,53.5 h 13 V 60 h -13 z" /><path
     id="rect68"
     style="fill:#21224e;stroke-width:0.721461"
     d="m 70.5,53.5 h 13 V 60 h -13 z" /><path
     id="rect69"
     style="fill:#ff3f3f;stroke-width:0.721461"
     d="m 57.5,53.5 h 13 V 60 h -13 z" /><path
     id="rect70"
     style="fill:#874307;stroke-width:0.51015"
     d="m 77,60 h 6.5 v 6.5 H 77 Z" /><path
     id="rect71"
     style="fill:#874307;stroke-width:0.51015"
     d="M 44.5,60 H 51 v 6.5 h -6.5 z" /><path
     id="rect72"
     style="fill:#9b5b13;stroke-width:0.51015"
     d="M 25 53.5 L 25 60 L 12 60 L 12 66.5 L 44.5 66.5 L 44.5 60 L 31.5 60 L 31.5 53.5 L 25 53.5 z " /><path
     id="rect73"
     style="fill:#9b5b13;stroke-width:0.51015"
     d="M 96.5 53.5 L 96.5 60 L 83.5 60 L 83.5 66.5 L 116 66.5 L 116 60 L 103 60 L 103 53.5 L 96.5 53.5 z " /><path
     id="rect76"
     style="fill:#af0000;stroke-width:0.51015"
     d="m 51,60 h 6.5 v 6.5 H 51 Z" /><path
     id="rect77"
     style="fill:#af0000;stroke-width:0.51015"
     d="M 70.5,60 H 77 v 6.5 h -6.5 z" /><path
     id="rect78"
     style="fill:#ff5f5f;stroke-width:1.0203"
     d="m 57.5,60 h 13 v 13 h -13 z" /><path
     id="rect79"
     style="fill:#752900;stroke-width:1.34973"
     d="M 12 66.5 L 12 73 L 25 73 L 25 79.5 L 31.5 79.5 L 31.5 73 L 57.5 73 L 57.5 66.5 L 12 66.5 z " /><path
     id="rect80"
     style="fill:#752900;stroke-width:1.34973"
     d="M 70.5 66.5 L 70.5 73 L 96.5 73 L 96.5 79.5 L 103 79.5 L 103 73 L 116 73 L 116 66.5 L 70.5 66.5 z " /><path
     id="rect83"
     style="fill:#5f0000;stroke-width:0.51015"
     d="m 103,73 h 6.5 v 6.5 H 103 Z" /><path
     id="rect84"
     style="fill:#5f0000;stroke-width:0.51015"
     d="m 18.500004,73 h 6.5 v 6.5 h -6.5 z" /><path
     id="rect85"
     style="fill:#470000;stroke-width:0.51015"
     d="m 12.000004,73 h 6.5 v 6.5 h -6.5 z" /><path
     id="rect86"
     style="fill:#470000;stroke-width:0.51015"
     d="m 109.5,73 h 6.5 v 6.5 h -6.5 z" /><path
     id="rect87"
     style="fill:#7f0000;stroke-width:1.0203"
     d="m 103,79.5 h 13 v 13 h -13 z" /><path
     id="rect88"
     style="fill:#7f0000;stroke-width:1.0203"
     d="m 12.000004,79.5 h 13 v 13 h -13 z" /><path
     id="rect89"
     style="fill:#ffb78b;stroke-width:0.51015"
     d="M 31.5,73 H 38 v 6.5 h -6.5 z" /><path
     id="rect90"
     style="fill:#ffb78b;stroke-width:0.51015"
     d="m 90,73 h 6.5 v 6.5 H 90 Z" /><path
     id="rect91"
     style="fill:#bfbfbf;stroke-width:0.51015"
     d="M 83.5,73 H 90 v 6.5 h -6.5 z" /><path
     id="rect92"
     style="fill:#bfbfbf;stroke-width:0.51015"
     d="m 38,73 h 6.5 v 6.5 H 38 Z" /><path
     id="rect93"
     style="fill:#e4e4e4;stroke-width:0.51015"
     d="M 44.5,73 H 51 v 6.5 h -6.5 z" /><path
     id="rect94"
     style="fill:#e4e4e4;stroke-width:0.51015"
     d="m 77,73 h 6.5 v 6.5 H 77 Z" /><path
     id="rect95"
     style="fill:#979797;stroke-width:0.51015"
     d="M 70.5,73 H 77 v 6.5 h -6.5 z" /><path
     id="rect96"
     style="fill:#979797;stroke-width:0.51015"
     d="m 51,73 h 6.5 v 6.5 H 51 Z" /><path
     id="rect97"
     style="fill:#e4e4e4;stroke-width:0.721461"
     d="m 57.5,73 h 13 v 6.5 h -13 z" /><path
     id="rect98"
     style="fill:#ffffff;stroke-width:0.721461"
     d="m 57.5,79.5 h 13 V 86 h -13 z" /><path
     id="rect99"
     style="fill:#bfbfbf;stroke-width:0.51015"
     d="M 70.5,79.5 H 77 V 86 h -6.5 z" /><path
     id="rect100"
     style="fill:#bfbfbf;stroke-width:0.51015"
     d="m 51,79.5 h 6.5 V 86 H 51 Z" /><path
     id="rect101"
     style="fill:#ffffff;stroke-width:0.51015"
     d="m 77,79.5 h 6.5 V 86 H 77 Z" /><path
     id="rect102"
     style="fill:#ffffff;stroke-width:0.51015"
     d="M 44.5,79.5 H 51 V 86 h -6.5 z" /><path
     id="rect103"
     style="fill:#ffb78b;stroke-width:0.51015"
     d="m 38,79.5 h 6.5 V 86 H 38 Z" /><path
     id="rect104"
     style="fill:#ffb78b;stroke-width:0.51015"
     d="M 83.5,79.5 H 90 V 86 h -6.5 z" /><path
     id="rect105"
     style="fill:#c39b2f;stroke-width:0.51015"
     d="M 96.5 79.5 L 96.5 86 L 90 86 L 90 92.5 L 103 92.5 L 103 86 L 103 79.5 L 96.5 79.5 z " /><path
     id="rect106"
     style="fill:#c39b2f;stroke-width:0.51015"
     d="M 25 79.5 L 25 86 L 25 92.5 L 38 92.5 L 38 86 L 31.5 86 L 31.5 79.5 L 25 79.5 z " /><path
     id="rect109"
     style="fill:#752900;stroke-width:0.51015"
     d="M 83.5,86 H 90 v 6.5 h -6.5 z" /><path
     id="rect110"
     style="fill:#752900;stroke-width:0.51015"
     d="m 38.000004,86 h 6.5 v 6.5 h -6.5 z" /><path
     id="rect111"
     style="fill:#ffb78b;stroke-width:0.51015"
     d="m 51,86 h 6.5 v 6.5 H 51 Z" /><path
     id="rect112"
     style="fill:#ffb78b;stroke-width:0.51015"
     d="M 70.5,86 H 77 v 6.5 h -6.5 z" /><path
     id="rect113"
     style="fill:#e39767;stroke-width:0.51015"
     d="m 77,86 h 6.5 v 6.5 H 77 Z" /><path
     id="rect114"
     style="fill:#e39767;stroke-width:0.51015"
     d="M 44.5,86 H 51 v 6.5 h -6.5 z" /><path
     id="rect115"
     style="fill:#ffcb97;stroke-width:0.721461"
     d="m 57.5,86 h 13 v 6.5 h -13 z" /><path
     id="rect116"
     style="fill:#af0000;stroke-width:0.51015"
     d="m 12.000004,92.5 h 6.5 V 99 h -6.5 z" /><path
     id="rect117"
     style="fill:#af0000;stroke-width:0.51015"
     d="M 109.5,92.5 H 116 V 99 h -6.5 z" /><path
     id="rect118"
     style="fill:#df0000;stroke-width:0.51015"
     d="M 103 92.5 L 103 99 L 103 112 L 108 112 C 112.432 112 116 108.432 116 104 L 116 99 L 109.5 99 L 109.5 92.5 L 103 92.5 z " /><path
     id="rect119"
     style="fill:#df0000;stroke-width:0.51015"
     d="M 18.5 92.5 L 18.5 99 L 12 99 L 12 104 C 12 108.432 15.568 112 20 112 L 25 112 L 25 99 L 25 92.5 L 18.5 92.5 z " /><path
     id="rect122"
     style="fill:#af0000;stroke-width:0.51015"
     d="M 83.5,105.5 H 90 v 6.5 h -6.5 z" /><path
     id="rect123"
     style="fill:#af0000;stroke-width:0.51015"
     d="m 38.000004,105.5 h 6.5 v 6.5 h -6.5 z" /><path
     id="rect124"
     style="fill:#ebdb57;stroke-width:0.51015"
     d="m 25.000004,92.5 h 6.5 V 99 h -6.5 z" /><path
     id="rect125"
     style="fill:#ebdb57;stroke-width:0.51015"
     d="M 96.5,92.5 H 103 V 99 h -6.5 z" /><path
     id="rect126"
     style="fill:#af0000;stroke-width:1.24961"
     d="M 44.500004,99 H 83.5 v 6.5 H 44.500004 Z" /><path
     id="rect127"
     style="fill:#c39b2f;stroke-width:0.51015"
     d="M 83.5,99 H 90 v 6.5 h -6.5 z" /><path
     id="rect128"
     style="fill:#c39b2f;stroke-width:0.51015"
     d="m 90,105.5 h 6.5 V 112 H 90 Z" /><path
     id="rect129"
     style="fill:#c39b2f;stroke-width:0.51015"
     d="m 31.500004,105.5 h 6.5 v 6.5 h -6.5 z" /><path
     id="rect130"
     style="fill:#c39b2f;stroke-width:0.51015"
     d="m 38.000004,99 h 6.5 v 6.5 h -6.5 z" /><path
     id="rect131"
     style="fill:#df0000;stroke-width:1.24961"
     d="M 44.500004,105.5 H 83.5 V 112 H 44.500004 Z" /><path
     id="rect132"
     style="fill:#752900;stroke-width:1.0203"
     d="M 51,92.5 H 77 V 99 H 51 Z" /><path
     id="rect133"
     style="fill:#ffff00;stroke-width:0.721461"
     d="M 83.5 92.5 L 83.5 99 L 90 99 L 90 105.5 L 96.5 105.5 L 96.5 112 L 103 112 L 103 105.5 L 103 99 L 96.5 99 L 96.5 92.5 L 83.5 92.5 z " /><path
     id="rect135"
     style="fill:#ffff00;stroke-width:0.721461"
     d="M 31.5 92.5 L 31.5 99 L 25 99 L 25 105.5 L 25 112 L 31.5 112 L 31.5 105.5 L 38 105.5 L 38 99 L 44.5 99 L 44.5 92.5 L 31.5 92.5 z " /><path
     id="rect140"
     style="fill:#9b5b13;stroke-width:0.721461"
     d="m 103,47 h 13 v 6.5 h -13 z" /><path
     id="rect141"
     style="fill:#9b5b13;stroke-width:0.721461"
     d="m 12.000004,47 h 13 v 6.5 h -13 z" /></svg>
