<?xml version="1.0" encoding="UTF-8" standalone="no"?>
<svg
   height="128px"
   viewBox="0 0 128 128"
   width="128px"
   version="1.1"
   id="svg36"
   xml:space="preserve"
   xmlns:xlink="http://www.w3.org/1999/xlink"
   xmlns="http://www.w3.org/2000/svg"
   xmlns:svg="http://www.w3.org/2000/svg"><defs
     id="defs40"><linearGradient
       id="linearGradient10"><stop
         style="stop-color:#ff42ff;stop-opacity:1;"
         offset="0"
         id="stop11" /><stop
         style="stop-color:#d092f6;stop-opacity:1;"
         offset="0.47999999"
         id="stop14" /><stop
         style="stop-color:#71c7ea;stop-opacity:1;"
         offset="0.81"
         id="stop16" /><stop
         style="stop-color:#00dae5;stop-opacity:1;"
         offset="1"
         id="stop13" /></linearGradient><linearGradient
       id="a-6"
       x1="24"
       x2="24"
       y1="5"
       y2="43"
       gradientUnits="userSpaceOnUse"
       gradientTransform="matrix(62.5,0,0,62.5,-2789.4777,-1631.9275)"><stop
         stop-color="#fb43fe"
         id="stop3" /><stop
         offset=".484"
         stop-color="#cf91f6"
         id="stop4-1" /><stop
         offset=".813"
         stop-color="#73c9ea"
         id="stop5" /><stop
         offset="1"
         stop-color="#00dbe5"
         id="stop6-8" /></linearGradient><linearGradient
       xlink:href="#a-6"
       id="linearGradient9"
       x1="64"
       y1="12"
       x2="64"
       y2="108"
       gradientUnits="userSpaceOnUse" /><linearGradient
       xlink:href="#linearGradient10"
       id="linearGradient13"
       x1="64"
       y1="8"
       x2="64"
       y2="112"
       gradientUnits="userSpaceOnUse" /></defs><linearGradient
     id="a"
     gradientUnits="userSpaceOnUse"
     x1="11.999989"
     x2="115.999989"
     y1="64"
     y2="64"><stop
       offset="0"
       stop-color="#3d3846"
       id="stop2"
       style="stop-color:#007780;stop-opacity:1;" /><stop
       offset="0.05"
       stop-color="#77767b"
       id="stop4"
       style="stop-color:#00efef;stop-opacity:1;" /><stop
       offset="0.1"
       stop-color="#5e5c64"
       id="stop6"
       style="stop-color:#00c2c2;stop-opacity:1;" /><stop
       offset="0.89999902"
       stop-color="#504e56"
       id="stop8"
       style="stop-color:#00a4a4;stop-opacity:1;" /><stop
       offset="0.94999999"
       stop-color="#77767b"
       id="stop10"
       style="stop-color:#00efef;stop-opacity:1;" /><stop
       offset="1"
       stop-color="#3d3846"
       id="stop12"
       style="stop-color:#007780;stop-opacity:1;" /></linearGradient><linearGradient
     id="b"
     gradientUnits="userSpaceOnUse"
     x1="12"
     x2="112.04102"
     y1="60"
     y2="80.988281"
     xlink:href="#a-6"><stop
       offset="0"
       stop-color="#77767b"
       id="stop15" /><stop
       offset="0.384443"
       stop-color="#9a9996"
       id="stop17" /><stop
       offset="0.720567"
       stop-color="#77767b"
       id="stop19" /><stop
       offset="1"
       stop-color="#68666f"
       id="stop21" /></linearGradient><path
     d="m 20 22 h 88 c 4.417969 0 8 3.582031 8 8 v 78 c 0 4.417969 -3.582031 8 -8 8 h -88 c -4.417969 0 -8 -3.582031 -8 -8 v -78 c 0 -4.417969 3.582031 -8 8 -8 z m 0 0"
     fill="url(#a)"
     id="path24" /><path
     d="m 20 12 h 88 c 4.417969 0 8 3.582031 8 8 v 80 c 0 4.417969 -3.582031 8 -8 8 h -88 c -4.417969 0 -8 -3.582031 -8 -8 v -80 c 0 -4.417969 3.582031 -8 8 -8 z m 0 0"
     fill="url(#b)"
     id="path26"
     style="fill:url(#linearGradient13);fill-opacity:1" /><path
     d="m 20 14 h 88 c 3.3125 0 6 2.6875 6 6 v 80 c 0 3.3125 -2.6875 6 -6 6 h -88 c -3.3125 0 -6 -2.6875 -6 -6 v -80 c 0 -3.3125 2.6875 -6 6 -6 z m 0 0"
     fill="#241f31"
     id="path28" /><path
     fill="#fefefe"
     d="m 61.847601,27.398692 -6.055579,6.204631 -0.0076,0.0051 -0.02274,0.02526 6.659368,1.338947 c -0.947368,4.183579 -3.910736,7.237895 -7.419789,7.237895 -4.277052,0 -7.738105,-4.522105 -7.738105,-10.105263 C 47.263156,26.522105 50.726735,22 55.001261,22 c 2.970947,0 5.552842,2.187789 6.846316,5.398736 z m -25.263157,0 -6.055578,6.204631 -0.0076,0.0051 -0.02274,0.02526 6.659368,1.338947 c -0.947368,4.183579 -3.910737,7.237895 -7.419789,7.237895 C 25.461053,42.210525 22,37.68842 22,32.105262 22,26.522105 25.463579,22 29.738105,22 c 2.970947,0 5.552842,2.187789 6.846315,5.398736 z"
     id="path3-0"
     style="stroke-width:2.52632" /></svg>
