<?xml version="1.0" encoding="UTF-8" standalone="no"?>
<svg
   viewBox="0 0 128 128"
   style="display:inline;enable-background:new"
   version="1.0"
   id="svg11300"
   height="128"
   width="128"
   xml:space="preserve"
   xmlns:xlink="http://www.w3.org/1999/xlink"
   xmlns="http://www.w3.org/2000/svg"
   xmlns:svg="http://www.w3.org/2000/svg"
   xmlns:rdf="http://www.w3.org/1999/02/22-rdf-syntax-ns#"
   xmlns:cc="http://creativecommons.org/ns#"
   xmlns:dc="http://purl.org/dc/elements/1.1/"><title
     id="title4162">Adwaita Icon Template</title><defs
     id="defs3"><linearGradient
       id="linearGradient1"><stop
         style="stop-color:#f4435a;stop-opacity:1;"
         offset="0"
         id="stop1" /><stop
         style="stop-color:#db0c27;stop-opacity:1;"
         offset="1"
         id="stop2" /></linearGradient><linearGradient
       id="linearGradient974"><stop
         style="stop-color:#95091b;stop-opacity:1;"
         offset="0"
         id="stop962" /><stop
         id="stop964"
         offset="0.04166667"
         style="stop-color:#f34057;stop-opacity:1;" /><stop
         style="stop-color:#95091b;stop-opacity:1;"
         offset="0.08333334"
         id="stop966" /><stop
         id="stop968"
         offset="0.91666669"
         style="stop-color:#95091b;stop-opacity:1;" /><stop
         style="stop-color:#f23f56;stop-opacity:1;"
         offset="0.95833331"
         id="stop970" /><stop
         style="stop-color:#950a1b;stop-opacity:1;"
         offset="1"
         id="stop972" /></linearGradient><linearGradient
       y2="44"
       x2="464"
       y1="44"
       x1="48"
       gradientTransform="matrix(0.25,0,0,0.25,0,53)"
       gradientUnits="userSpaceOnUse"
       id="linearGradient1747"
       xlink:href="#linearGradient974" /><linearGradient
       xlink:href="#linearGradient1"
       id="linearGradient2"
       x1="64"
       y1="10"
       x2="64"
       y2="114"
       gradientUnits="userSpaceOnUse" /></defs><metadata
     id="metadata4"><rdf:RDF><cc:Work
         rdf:about=""><dc:format>image/svg+xml</dc:format><dc:type
           rdf:resource="http://purl.org/dc/dcmitype/StillImage" /><dc:creator><cc:Agent><dc:title>GNOME Design Team</dc:title></cc:Agent></dc:creator><dc:source /><cc:license
           rdf:resource="http://creativecommons.org/licenses/by-sa/4.0/" /><dc:title>Adwaita Icon Template</dc:title><dc:subject><rdf:Bag /></dc:subject><dc:date /><dc:rights><cc:Agent><dc:title /></cc:Agent></dc:rights><dc:publisher><cc:Agent><dc:title /></cc:Agent></dc:publisher><dc:identifier /><dc:relation /><dc:language /><dc:coverage /><dc:description /><dc:contributor><cc:Agent><dc:title /></cc:Agent></dc:contributor></cc:Work><cc:License
         rdf:about="http://creativecommons.org/licenses/by-sa/4.0/"><cc:permits
           rdf:resource="http://creativecommons.org/ns#Reproduction" /><cc:permits
           rdf:resource="http://creativecommons.org/ns#Distribution" /><cc:requires
           rdf:resource="http://creativecommons.org/ns#Notice" /><cc:requires
           rdf:resource="http://creativecommons.org/ns#Attribution" /><cc:permits
           rdf:resource="http://creativecommons.org/ns#DerivativeWorks" /><cc:requires
           rdf:resource="http://creativecommons.org/ns#ShareAlike" /></cc:License></rdf:RDF></metadata><rect
     ry="8"
     rx="8"
     y="32"
     x="12"
     height="83.999992"
     width="104"
     id="rect1709"
     style="display:inline;fill:url(#linearGradient1747);fill-opacity:1;stroke:none;stroke-width:0.25;stroke-linecap:butt;stroke-linejoin:miter;stroke-miterlimit:4;stroke-dasharray:none;stroke-dashoffset:0;stroke-opacity:1;marker:none;marker-start:none;marker-mid:none;marker-end:none;paint-order:normal;enable-background:new" /><rect
     style="display:inline;fill:url(#linearGradient2);fill-opacity:1;stroke:none;stroke-width:0.25;stroke-linecap:butt;stroke-linejoin:miter;stroke-miterlimit:4;stroke-dasharray:none;stroke-dashoffset:0;stroke-opacity:1;marker:none;marker-start:none;marker-mid:none;marker-end:none;paint-order:normal;enable-background:new"
     id="rect1711"
     width="104"
     height="100"
     x="12"
     y="12"
     rx="8"
     ry="8" /><path
     d="m 45.08251,91.090257 c 3.32125,-0.8531 7.06696,-2.87571 9.52985,-5.14592 l 0.9968,-0.91882 1.42788,0.29862 c 0.90776,0.18985 3.45697,0.29305 6.9982,0.28332 5.0845,-0.014 5.85274,-0.0731 8.80871,-0.67808 12.41926,-2.54169 21.04849,-9.00501 23.80381,-17.82913 0.81817,-2.62028 0.81793,-7.31471 -5.2e-4,-9.92115 -1.158,-3.68775 -2.99195,-6.59221 -5.91686,-9.37058 -4.86682,-4.623 -11.25388,-7.53022 -19.6717,-8.95402 -2.94411,-0.49796 -10.41719,-0.56649 -13.38674,-0.12275 l -2.00392,0.29945 -1.98197,-1.58577 c -4.88127,-3.9055 -10.8683,-5.69932 -16.71902,-5.0093 -2.56559,0.30257 -5.28915,1.05998 -5.85834,1.62917 -0.5485,0.5485 -0.47391,1.86986 0.13666,2.42124 0.75399,0.68089 2.68541,3.19134 3.52252,4.57855 0.94212,1.56124 1.67784,3.55159 1.88939,5.11142 0.20777,1.53193 -0.12954,2.33414 -1.8223,4.3339 -1.55796,1.84052 -3.21558,5.25414 -3.75035,7.72333 -0.55739,2.57361 -0.38026,6.86026 0.37638,9.1087 0.8031,2.3865 2.27993,5.06247 3.82118,6.92388 1.38553,1.67336 1.38587,1.67417 1.35753,3.24799 -0.0478,2.65212 -1.67445,5.90488 -4.65157,9.30136 -1.2682,1.44683 -1.49697,2.14307 -1.00576,3.06089 0.27619,0.51609 2.63442,1.31272 4.95912,1.67525 2.18349,0.3405 6.95682,0.0995 9.14102,-0.46155 z m -4.16245,-6.15811 c 1.01546,-1.72107 1.97187,-4.83336 2.10245,-6.84165 0.22467,-3.45527 0.0576,-3.94919 -2.08158,-6.15554 -9.62728,-9.92938 -2.77616,-22.3177 14.41599,-26.06729 2.87361,-0.62674 3.5007,-0.67737 8.31504,-0.67139 5.73556,0.007 8.00127,0.33981 12.46663,1.83059 8.96525,2.99307 14.4683,8.86108 14.50956,15.47182 0.0212,3.39011 -1.14656,6.06221 -3.9464,9.0306 -6.34831,6.73046 -18.74187,9.83702 -30.60528,7.67149 l -2.85283,-0.52075 -1.70081,1.60445 c -2.08617,1.96799 -3.30985,2.8724 -5.15252,3.80817 -1.35053,0.68584 -4.58124,1.65604 -5.51455,1.65604 -0.41307,0 -0.4106,-0.0455 0.0443,-0.81654 z m 11.19901,-18.88567 c 1.00946,-0.42178 2.25672,-1.84626 2.47106,-2.82217 0.56137,-2.5559 -1.98217,-5.23145 -4.51786,-4.75235 -2.0999,0.39677 -3.49656,2.20981 -3.29758,4.28068 0.13835,1.43986 0.93746,2.57668 2.22096,3.15958 1.18539,0.53833 2.06576,0.57618 3.12342,0.13426 z m 13.25788,-0.23049 c 1.19599,-0.63245 2.17001,-2.17579 2.17001,-3.4384 0,-1.2626 -0.97402,-2.80594 -2.17001,-3.4384 -1.33373,-0.70529 -2.31844,-0.70529 -3.65217,0 -1.19137,0.63002 -2.17001,2.17471 -2.17001,3.42518 0,1.29445 0.95931,2.83035 2.15723,3.4538 1.35082,0.70303 2.33249,0.70244 3.66495,-0.002 z m 12.84871,-0.005 c 2.86024,-1.50889 2.80494,-5.51738 -0.0955,-6.92146 -1.35095,-0.65398 -2.26227,-0.6412 -3.56946,0.0501 -1.19599,0.63246 -2.17,2.1758 -2.17,3.4384 0,1.26261 0.97401,2.80595 2.17,3.4384 1.33627,0.70663 2.31798,0.70519 3.66495,-0.005 z"
     style="fill:#ffffff"
     id="path1-1" /></svg>
