<?xml version="1.0" encoding="UTF-8"?>
<svg height="128px" viewBox="0 0 128 128" width="128px" xmlns="http://www.w3.org/2000/svg" xmlns:xlink="http://www.w3.org/1999/xlink">
    <linearGradient id="a" gradientUnits="userSpaceOnUse" x1="20.36775914721" x2="107.84371735503" y1="111.27717157613" y2="111.27717157613">
        <stop offset="0" stop-color="#b5835a"/>
        <stop offset="0.0909568" stop-color="#986a44"/>
        <stop offset="0.143781" stop-color="#865e3c"/>
        <stop offset="0.839303" stop-color="#865e3c"/>
        <stop offset="0.904233" stop-color="#986a44"/>
        <stop offset="1" stop-color="#b5835a"/>
    </linearGradient>
    <linearGradient id="b" gradientTransform="matrix(1.089149 0 0 1.386188 -14.255792 -59.415199)" gradientUnits="userSpaceOnUse" x1="71.850121" x2="71.850121" y1="76" y2="129.723602">
        <stop offset="0" stop-color="#cdab8f"/>
        <stop offset="1" stop-color="#b5835a"/>
    </linearGradient>
    <linearGradient id="c" gradientTransform="matrix(1.089149 0 0 0.834562 -14.418722 -4.582686)" gradientUnits="userSpaceOnUse" x1="70.710678" x2="70.710678" y1="50.178642" y2="87.858017">
        <stop offset="0" stop-color="#986a44"/>
        <stop offset="1" stop-color="#b5835a"/>
    </linearGradient>
    <path d="m 51.21875 8.988281 h 5.363281 c 0.96875 0 1.753907 0.785157 1.753907 1.75 v 5.363281 c 0 0.96875 -0.785157 1.753907 -1.753907 1.753907 h -5.363281 c -0.96875 0 -1.753906 -0.785157 -1.753906 -1.753907 v -5.363281 c 0 -0.964843 0.785156 -1.75 1.753906 -1.75 z m 0 0" fill="#2ec27e"/>
    <path d="m 51.21875 24.148438 h 23.097656 c 0.964844 0 1.75 0.785156 1.75 1.75 v 5.363281 c 0 0.96875 -0.785156 1.75 -1.75 1.75 h -23.097656 c -0.96875 0 -1.753906 -0.78125 -1.753906 -1.75 v -5.363281 c 0 -0.964844 0.785156 -1.75 1.753906 -1.75 z m 0 0" fill="#3584e4"/>
    <path d="m 80.03125 9.949219 h 9.800781 c 0.964844 0 1.75 0.785156 1.75 1.753906 v 5.359375 c 0 0.96875 -0.785156 1.753906 -1.75 1.753906 h -9.800781 c -0.96875 0 -1.753906 -0.785156 -1.753906 -1.753906 v -5.359375 c 0 -0.96875 0.785156 -1.753906 1.753906 -1.753906 z m 0 0" fill="#3584e4"/>
    <path d="m 95.839844 23.992188 h 5.550781 c 1 0 1.8125 0.8125 1.8125 1.8125 v 5.546874 c 0 1.003907 -0.8125 1.8125 -1.8125 1.8125 h -5.550781 c -1 0 -1.8125 -0.808593 -1.8125 -1.8125 v -5.546874 c 0 -1 0.8125 -1.8125 1.8125 -1.8125 z m 0 0" fill="#9a9996"/>
    <path d="m 82.71875 28.578125 h 4.417969 c 1.230469 0 2.226562 0.996094 2.226562 2.226563 v 17.714843 c 0 1.226563 -0.996093 2.222657 -2.226562 2.222657 h -4.417969 c -1.230469 0 -2.226562 -0.996094 -2.226562 -2.222657 v -17.714843 c 0 -1.230469 0.996093 -2.226563 2.226562 -2.226563 z m 0 0" fill="#e66100"/>
    <path d="m 32.210938 17.785156 h 9.953124 c 1.589844 0 2.882813 1.289063 2.882813 2.882813 v 18.460937 c 0 1.59375 -1.292969 2.882813 -2.882813 2.882813 h -9.953124 c -1.589844 0 -2.882813 -1.289063 -2.882813 -2.882813 v -18.460937 c 0 -1.59375 1.292969 -2.882813 2.882813 -2.882813 z m 0 0" fill="#8ff0a4"/>
    <path d="m 51.21875 19.714844 h 23.097656 c 0.964844 0 1.75 0.785156 1.75 1.753906 v 5.359375 c 0 0.96875 -0.785156 1.753906 -1.75 1.753906 h -23.097656 c -0.96875 0 -1.753906 -0.785156 -1.753906 -1.753906 v -5.359375 c 0 -0.96875 0.785156 -1.753906 1.753906 -1.753906 z m 0 0" fill="#99c1f1"/>
    <path d="m 80.03125 7.378906 h 9.800781 c 0.964844 0 1.75 0.785156 1.75 1.753906 v 5.359376 c 0 0.96875 -0.785156 1.753906 -1.75 1.753906 h -9.800781 c -0.96875 0 -1.753906 -0.785156 -1.753906 -1.753906 v -5.359376 c 0 -0.96875 0.785156 -1.753906 1.753906 -1.753906 z m 0 0" fill="#99c1f1"/>
    <path d="m 51.21875 6.417969 h 5.363281 c 0.96875 0 1.753907 0.78125 1.753907 1.75 v 5.363281 c 0 0.964844 -0.785157 1.75 -1.753907 1.75 h -5.363281 c -0.96875 0 -1.753906 -0.785156 -1.753906 -1.75 v -5.363281 c 0 -0.96875 0.785156 -1.75 1.753906 -1.75 z m 0 0" fill="#8ff0a4"/>
    <path d="m 82.71875 24.148438 h 4.421875 c 1.230469 0 2.226563 0.996093 2.226563 2.222656 v 17.714844 c 0 1.230468 -0.996094 2.226562 -2.226563 2.226562 h -4.421875 c -1.226562 0 -2.222656 -0.996094 -2.222656 -2.226562 v -17.714844 c 0 -1.226563 0.996094 -2.222656 2.222656 -2.222656 z m 0 0" fill="#62a0ea"/>
    <path d="m 95.84375 22.160156 h 5.546875 c 1 0 1.8125 0.8125 1.8125 1.8125 v 5.546875 c 0 1 -0.8125 1.8125 -1.8125 1.8125 h -5.546875 c -1.003906 0 -1.8125 -0.8125 -1.8125 -1.8125 v -5.546875 c 0 -1 0.808594 -1.8125 1.8125 -1.8125 z m 0 0" fill="#f6f5f4"/>
    <path d="m 66.042969 7.125 h 5.367187 c 0.964844 0 1.75 0.785156 1.75 1.753906 v 5.359375 c 0 0.96875 -0.785156 1.753907 -1.75 1.753907 h -5.367187 c -0.96875 0 -1.753907 -0.785157 -1.753907 -1.753907 v -5.359375 c 0 -0.96875 0.785157 -1.753906 1.753907 -1.753906 z m 0 0" fill="#9a9996"/>
    <path d="m 66.042969 4.554688 h 5.367187 c 0.964844 0 1.75 0.785156 1.75 1.753906 v 5.359375 c 0 0.96875 -0.785156 1.753906 -1.75 1.753906 h -5.367187 c -0.96875 0 -1.753907 -0.785156 -1.753907 -1.753906 v -5.359375 c 0 -0.96875 0.785157 -1.753906 1.753907 -1.753906 z m 0 0" fill="#f6f5f4"/>
    <path d="m 20.144531 72.121094 h 87.492188 l 0.21875 38.664062 c 0.011719 2.5 -0.96875 4.898438 -2.730469 6.671875 c -1.761719 1.769531 -4.15625 2.765625 -6.652344 2.765625 h -69.109375 c -4.949219 0 -8.96875 -3.996094 -8.996093 -8.945312 z m 0 0" fill="url(#a)"/>
    <path d="m 124.914062 45.902344 l 0.0625 16.300781 c 0.011719 2.222656 -1.234374 4.257813 -3.210937 5.265625 l -19.507813 9.914062 l -13.929687 -15.144531 z m -121.921874 0 l -0.066407 16.300781 c -0.007812 2.222656 1.238281 4.257813 3.214844 5.265625 l 19.507813 9.914062 l 13.929687 -15.144531 z m 0 0" fill="#865e3c"/>
    <path d="m 122.773438 42.621094 c -5.410157 2.148437 -18.773438 7.53125 -20.996094 9.1875 l -37.777344 -2.914063 v 58.257813 h 34.472656 c 5.199219 -0.003906 9.410156 -5.390625 9.378906 -12.007813 v -39.164062 l 17.140626 -7.527344 l 0.03125 -3.699219 c 0.015624 -1.671875 -0.992188 -2.632812 -2.25 -2.132812 z m -117.550782 0 c 5.414063 2.148437 18.777344 7.53125 21 9.1875 l 37.777344 -2.914063 v 58.257813 h -34.472656 c -5.203125 -0.003906 -9.410156 -5.390625 -9.378906 -12.007813 v -39.164062 l -17.140626 -7.527344 l -0.03125 -3.699219 c -0.015624 -1.671875 0.992188 -2.632812 2.246094 -2.132812 z m 0 0" fill="url(#b)"/>
    <path d="m 55.949219 107.152344 h 16.101562 c 0.265625 0 0.480469 0.214844 0.480469 0.480468 v 12.109376 c 0 0.265624 -0.214844 0.480468 -0.480469 0.480468 h -16.101562 c -0.265625 0 -0.480469 -0.214844 -0.480469 -0.480468 v -12.109376 c 0 -0.265624 0.214844 -0.480468 0.480469 -0.480468 z m 0 0" fill="#9a9996"/>
    <path d="m 55.949219 93.871094 l 8.050781 -3.609375 l 8.050781 3.609375 c 0.21875 0.101562 0.480469 0.144531 0.480469 0.328125 v 12.625 c 0 0.183593 -0.214844 0.328125 -0.480469 0.328125 h -16.101562 c -0.265625 0 -0.480469 -0.144532 -0.480469 -0.328125 v -12.625 c 0 -0.183594 0.214844 -0.328125 0.480469 -0.328125 z m 0 0" fill="#deddda"/>
    <path d="m 124.945312 54.054688 l -17.089843 7.871093 v 6.199219 l 17.089843 -7.542969 z m -121.984374 0 l 17.085937 7.871093 l 0.003906 6.199219 l -17.089843 -7.542969 z m 0 0" fill="#9a9996" fill-opacity="0.46898"/>
    <path d="m 29.15625 35.230469 h 69.773438 c 4.929687 0 8.925781 3.058593 8.925781 6.835937 v 15.429688 h -87.710938 v -15.363282 c 0 -3.8125 4.035157 -6.902343 9.011719 -6.902343 z m 0 0" fill="url(#c)"/>
    <path d="m 20.109375 57.496094 h 87.746094" fill="none" stroke="#986a44" stroke-linejoin="round" stroke-width="2.78557"/>
    <path d="m 24.75 35.230469 h 77.441406 c 3.128906 0 5.664063 2.070312 5.664063 4.625 v 1.574219 h -87.710938 v -2.4375 c 0 -2.078126 2.0625 -3.761719 4.605469 -3.761719 z m 0 0" fill="#cdab8f"/>
    <path d="m 56.023438 68.125 h 15.609374 c 2.453126 0 4.4375 1.988281 4.4375 4.4375 v 0.28125 c 0 2.449219 -1.984374 4.433594 -4.4375 4.433594 h -15.609374 c -2.449219 0 -4.433594 -1.984375 -4.433594 -4.433594 v -0.28125 c 0 -2.449219 1.984375 -4.4375 4.433594 -4.4375 z m 0 0" fill="#986a44"/>
    <path d="m 55.566406 70.761719 h 16.527344 c 2.195312 0 3.976562 1.78125 3.976562 3.980469 v 0.25 c 0 2.195312 -1.78125 3.976562 -3.976562 3.976562 h -16.527344 c -2.195312 0 -3.976562 -1.78125 -3.976562 -3.976562 v -0.25 c 0 -2.199219 1.78125 -3.980469 3.976562 -3.980469 z m 0 0" fill="#63452c"/>
    <path d="m 20.378906 111.367188 c 0.035156 1.644531 0.523438 3.25 1.40625 4.640624 h 84.503906 c 0.914063 -1.382812 1.445313 -2.984374 1.539063 -4.640624 z m 0 0" fill="#9a9996"/>
</svg>
