<?xml version="1.0" encoding="UTF-8" standalone="no"?>
<svg
   viewBox="0 0 128 128"
   style="display:inline;enable-background:new"
   version="1.0"
   id="svg11300"
   height="128"
   width="128"
   xmlns:xlink="http://www.w3.org/1999/xlink"
   xmlns="http://www.w3.org/2000/svg"
   xmlns:svg="http://www.w3.org/2000/svg"
   xmlns:rdf="http://www.w3.org/1999/02/22-rdf-syntax-ns#"
   xmlns:cc="http://creativecommons.org/ns#"
   xmlns:dc="http://purl.org/dc/elements/1.1/">
  <title
     id="title4162">Adwaita Icon Template</title>
  <defs
     id="defs3">
    <linearGradient
       id="linearGradient14">
      <stop
         style="stop-color:#016d7e;stop-opacity:1;"
         offset="0"
         id="stop14" />
      <stop
         style="stop-color:#4ee6fe;stop-opacity:1;"
         offset="0.08568466"
         id="stop16" />
      <stop
         style="stop-color:#016d7e;stop-opacity:1;"
         offset="0.20308708"
         id="stop15" />
    </linearGradient>
    <linearGradient
       id="linearGradient13">
      <stop
         id="stop11"
         offset="0.80165356"
         style="stop-color:#bd0b00;stop-opacity:1;" />
      <stop
         style="stop-color:#ff918a;stop-opacity:1;"
         offset="0.90818417"
         id="stop12" />
      <stop
         style="stop-color:#bd0b00;stop-opacity:1;"
         offset="1"
         id="stop13" />
    </linearGradient>
    <linearGradient
       xlink:href="#linearGradient13"
       id="linearGradient8"
       x1="-94.453217"
       y1="72.570541"
       x2="-63.056732"
       y2="72.570541"
       gradientUnits="userSpaceOnUse"
       gradientTransform="translate(179.05699,1.141152)" />
    <linearGradient
       xlink:href="#linearGradient14"
       id="linearGradient15"
       x1="-167.05724"
       y1="57.147144"
       x2="-135.66076"
       y2="57.147144"
       gradientUnits="userSpaceOnUse"
       gradientTransform="translate(179.05699,1.141152)" />
  </defs>
  <metadata
     id="metadata4">
    <rdf:RDF>
      <cc:Work
         rdf:about="">
        <dc:format>image/svg+xml</dc:format>
        <dc:type
           rdf:resource="http://purl.org/dc/dcmitype/StillImage" />
        <dc:creator>
          <cc:Agent>
            <dc:title>GNOME Design Team</dc:title>
          </cc:Agent>
        </dc:creator>
        <dc:source />
        <cc:license
           rdf:resource="http://creativecommons.org/licenses/by-sa/4.0/" />
        <dc:title>Adwaita Icon Template</dc:title>
        <dc:subject>
          <rdf:Bag />
        </dc:subject>
        <dc:date />
        <dc:rights>
          <cc:Agent>
            <dc:title />
          </cc:Agent>
        </dc:rights>
        <dc:publisher>
          <cc:Agent>
            <dc:title />
          </cc:Agent>
        </dc:publisher>
        <dc:identifier />
        <dc:relation />
        <dc:language />
        <dc:coverage />
        <dc:description />
        <dc:contributor>
          <cc:Agent>
            <dc:title />
          </cc:Agent>
        </dc:contributor>
      </cc:Work>
      <cc:License
         rdf:about="http://creativecommons.org/licenses/by-sa/4.0/">
        <cc:permits
           rdf:resource="http://creativecommons.org/ns#Reproduction" />
        <cc:permits
           rdf:resource="http://creativecommons.org/ns#Distribution" />
        <cc:requires
           rdf:resource="http://creativecommons.org/ns#Notice" />
        <cc:requires
           rdf:resource="http://creativecommons.org/ns#Attribution" />
        <cc:permits
           rdf:resource="http://creativecommons.org/ns#DerivativeWorks" />
        <cc:requires
           rdf:resource="http://creativecommons.org/ns#ShareAlike" />
      </cc:License>
    </rdf:RDF>
  </metadata>
  <path
     id="path17"
     style="fill:#bd0b00;fill-opacity:1;stroke-width:0.436059"
     class="cls-2"
     d="m 72.23668,48.510292 -2.4336,9.822268 H 65.0941 l -0.77149,4 h 4.71094 l -1.75943,7.380857 h -4.71094 l -0.87338,4 h 4.70703 l -2.26562,5.777343 v 4 h 3.10351 l 2.26563,-9.777343 h 7.56445 l 1.06835,-4 v -3.318358 l -7.75553,3.318358 1.76139,-7.380857 h 6.88672 l 1.068369,-4 v -3.318363 l -7.185559,3.318363 2.43359,-9.822268 z" />
  <path
     id="path16"
     style="fill:#016d7e;fill-opacity:1;stroke-width:0.436059"
     class="cls-1"
     d="m 61.79722,48.510292 -2.27169,9.822268 h -9.64062 v 4 h 8.70919 l -1.7123,7.380857 h -8.96484 v 4 h 8.04042 l -2.26562,5.777343 v 4 h 3.03125 l 2.26562,-9.777343 h 2.70117 l 0.92052,-4 h -2.69727 l 1.7123,-7.380857 h 2.69726 l 0.93339,-4 h -2.69922 l 2.27169,-9.822268 z" />
  <path
     id="path7"
     style="display:inline;fill:url(#linearGradient8);fill-opacity:1;stroke:none;stroke-width:0.25;stroke-linecap:butt;stroke-linejoin:miter;stroke-miterlimit:4;stroke-dasharray:none;stroke-dashoffset:0;stroke-opacity:1;marker:none;marker-start:none;marker-mid:none;marker-end:none;paint-order:normal;enable-background:new"
     d="m 84.603773,25.660206 v 96.102974 h 23.396487 c 4.432,0 8,-3.568 8,-8 V 33.660206 c 0,-4.432 -3.568,-8 -8,-8 z" />
  <path
     id="path6"
     style="display:inline;fill:url(#linearGradient15);fill-opacity:1;stroke:none;stroke-width:0.25;stroke-linecap:butt;stroke-linejoin:miter;stroke-miterlimit:4;stroke-dasharray:none;stroke-dashoffset:0;stroke-opacity:1;marker:none;marker-start:none;marker-mid:none;marker-end:none;paint-order:normal;enable-background:new"
     d="m 11.99975,18.23681 v 80.102968 c 0,4.432002 3.568,8.000002 8,8.000002 H 43.39623 V 10.23681 H 19.99975 c -4.432,0 -8,3.568 -8,8 z" />
  <path
     id="path5"
     style="display:inline;fill:#ff5f55;fill-opacity:1;stroke:none;stroke-width:0.25;stroke-linecap:butt;stroke-linejoin:miter;stroke-miterlimit:4;stroke-dasharray:none;stroke-dashoffset:0;stroke-opacity:1;marker:none;marker-start:none;marker-mid:none;marker-end:none;paint-order:normal;enable-background:new"
     d="m 84.603773,21.660206 v 96.102974 h 23.396487 c 4.432,0 8,-3.568 8,-8 V 29.660206 c 0,-4.432 -3.568,-8 -8,-8 z" />
  <path
     id="path4"
     style="display:inline;fill:#02c5e5;fill-opacity:1;stroke:none;stroke-width:0.25;stroke-linecap:butt;stroke-linejoin:miter;stroke-miterlimit:4;stroke-dasharray:none;stroke-dashoffset:0;stroke-opacity:1;marker:none;marker-start:none;marker-mid:none;marker-end:none;paint-order:normal;enable-background:new"
     d="m 11.99975,14.23681 v 80.102968 c 0,4.432 3.568,8.000002 8,8.000002 H 43.39623 V 6.2368103 H 19.99975 c -4.432,0 -8,3.568 -8,7.9999997 z" />
  <path
     id="polygon2"
     style="fill:#02c5e5;stroke-width:0.436059"
     class="cls-1"
     d="M 61.797224,44.510292 59.363629,55.014197 H 50.705428 L 49.88491,58.33256 h 8.709188 l -1.867186,8.062499 h -7.984375 l -0.825579,3.318358 h 8.040424 l -2.265626,9.777343 h 3.031249 l 2.265626,-9.777343 h 2.70117 l 0.765628,-3.318358 h -2.697268 l 1.867186,-8.062499 h 2.697268 l 0.771483,-3.318363 h -2.699216 l 2.433591,-10.503905 z" />
  <path
     id="polygon3"
     style="fill:#ff5f55;stroke-width:0.436059"
     class="cls-2"
     d="m 72.236679,44.510292 -2.433596,10.503905 h -4.708985 l -0.771483,3.318363 h 4.710938 l -1.867186,8.062499 h -4.710938 l -0.765628,3.318358 h 4.707031 l -2.265625,9.777343 h 3.103517 l 2.265625,-9.777343 h 7.564455 l 1.068356,-3.318358 h -7.86328 l 1.869139,-8.062499 h 6.886723 l 1.068357,-3.318363 h -7.185545 l 2.433591,-10.503905 z" />
</svg>
