<?xml version="1.0" encoding="UTF-8" standalone="no"?>
<svg
   height="128px"
   viewBox="0 0 128 128"
   width="128px"
   version="1.1"
   id="svg31"
   xml:space="preserve"
   xmlns:xlink="http://www.w3.org/1999/xlink"
   xmlns="http://www.w3.org/2000/svg"
   xmlns:svg="http://www.w3.org/2000/svg"><defs
     id="defs31"><linearGradient
       id="linearGradient55"><stop
         style="stop-color:#cad2d9;stop-opacity:1;"
         offset="0"
         id="stop55" /><stop
         style="stop-color:#7a86d1;stop-opacity:1;"
         offset="0.56999999"
         id="stop57" /><stop
         style="stop-color:#bbb2eb;stop-opacity:1;"
         offset="1"
         id="stop56" /></linearGradient><mask
       maskUnits="userSpaceOnUse"
       id="mask2"><g
         id="g4"
         transform="translate(8,-3)"><g
           filter="url(#a)"
           id="g3"
           transform="translate(-8,3)"
           style="filter:url(#a-9)"><rect
             fill-opacity="0.1"
             height="128"
             width="128"
             id="rect3"
             x="0"
             y="0" /></g></g></mask><filter
       id="a-9"
       height="1"
       width="1"
       x="0"
       y="0"><feColorMatrix
         in="SourceGraphic"
         type="matrix"
         values="0 0 0 0 1 0 0 0 0 1 0 0 0 0 1 0 0 0 1 0"
         id="feColorMatrix1" /></filter><linearGradient
       xlink:href="#linearGradient20"
       id="linearGradient22-7"
       x1="17"
       y1="39"
       x2="111"
       y2="39"
       gradientUnits="userSpaceOnUse" /><linearGradient
       id="linearGradient20"><stop
         style="stop-color:#be915f;stop-opacity:1;"
         offset="0"
         id="stop21" /><stop
         style="stop-color:#cdab8f;stop-opacity:1;"
         offset="0.05"
         id="stop23" /><stop
         style="stop-color:#bd9573;stop-opacity:1;"
         offset="0.09"
         id="stop24" /><stop
         style="stop-color:#bd9573;stop-opacity:1;"
         offset="0.91000003"
         id="stop25" /><stop
         style="stop-color:#cdab8f;stop-opacity:1;"
         offset="0.94999999"
         id="stop26" /><stop
         style="stop-color:#be915f;stop-opacity:1;"
         offset="1"
         id="stop22-3" /></linearGradient><linearGradient
       xlink:href="#linearGradient15"
       id="linearGradient16-6"
       x1="20"
       y1="64"
       x2="108"
       y2="64"
       gradientUnits="userSpaceOnUse" /><linearGradient
       id="linearGradient15"><stop
         style="stop-color:#986a44;stop-opacity:1;"
         offset="0"
         id="stop15-1" /><stop
         style="stop-color:#cdab8f;stop-opacity:1;"
         offset="0.05"
         id="stop17-2" /><stop
         style="stop-color:#b5835a;stop-opacity:1;"
         offset="0.09"
         id="stop18-9" /><stop
         style="stop-color:#b5835a;stop-opacity:1;"
         offset="0.91000003"
         id="stop19-3" /><stop
         style="stop-color:#cdab8f;stop-opacity:1;"
         offset="0.94999999"
         id="stop20-1" /><stop
         style="stop-color:#986a44;stop-opacity:1;"
         offset="1"
         id="stop16-9" /></linearGradient><linearGradient
       xlink:href="#linearGradient55"
       id="linearGradient56"
       x1="332.04834"
       y1="203.62578"
       x2="332.04834"
       y2="375.68542"
       gradientUnits="userSpaceOnUse"
       gradientTransform="matrix(0.33425968,0,0,0.33425968,-46.990515,-6.8202997)" /></defs><linearGradient
     id="a"
     gradientTransform="matrix(-1 0 0 -1 135.999985 -173.999998)"
     gradientUnits="userSpaceOnUse"
     x1="27.99999"
     x2="115.999992"
     y1="-276"
     y2="-276"><stop
       offset="0"
       stop-color="#c0bfbc"
       id="stop1" /><stop
       offset="0.0454545"
       stop-color="#ffffff"
       id="stop2" /><stop
       offset="0.0909091"
       stop-color="#deddda"
       id="stop3" /><stop
       offset="0.909091"
       stop-color="#deddda"
       id="stop4" /><stop
       offset="0.954545"
       stop-color="#ffffff"
       id="stop5" /><stop
       offset="1"
       stop-color="#c0bfbc"
       id="stop6" /></linearGradient><clipPath
     id="b"><path
       d="m 88 94 h 20 v 20 h -20 z m 0 0"
       id="path6" /></clipPath><clipPath
     id="c"><path
       d="m 108 94 l -20 20 h -5.714844 v -25.714844 h 25.714844 z m 0 0"
       id="path7" /></clipPath><linearGradient
     id="d"
     gradientTransform="matrix(0 0.178571 0.178571 0 84.428574 42.571447)"
     gradientUnits="userSpaceOnUse"
     x1="344"
     x2="340"
     y1="76"
     y2="72"><stop
       offset="0"
       stop-color="#d5d3cf"
       id="stop7" /><stop
       offset="1"
       stop-color="#ffffff"
       id="stop8" /></linearGradient><linearGradient
     id="e"
     gradientUnits="userSpaceOnUse"><stop
       offset="0"
       stop-color="#fc9a91"
       id="stop9" /><stop
       offset="1"
       stop-color="#cb2b31"
       id="stop10" /></linearGradient><linearGradient
     id="f"
     gradientTransform="matrix(0.6 0.6 0.707107 -0.707107 295.740141 128.474214)"
     x1="-253.630356"
     x2="-230.060135"
     xlink:href="#e"
     y1="-56.517502"
     y2="-56.517502" /><linearGradient
     id="g"
     gradientTransform="matrix(0.6 0.6 0.707107 -0.707107 294.325928 129.888428)"
     x1="-253.630356"
     x2="-230.060135"
     xlink:href="#e"
     y1="-56.517502"
     y2="-56.517502" /><linearGradient
     id="h"
     gradientTransform="matrix(0.390307 -0.130102 0.130102 -0.390307 -2.964383 65.147882)"
     gradientUnits="userSpaceOnUse"
     x1="181.677414"
     x2="143.24614"
     y1="-139.479385"
     y2="-101.048103"><stop
       offset="0"
       stop-color="#d0bb8e"
       id="stop11" /><stop
       offset="1"
       stop-color="#ffffff"
       id="stop12" /></linearGradient><linearGradient
     id="i"
     gradientTransform="matrix(0.6 0.6 0.707107 -0.707107 294.32593 129.888425)"
     gradientUnits="userSpaceOnUse"
     x1="-230.060135"
     x2="-253.630356"
     y1="-64.517509"
     y2="-64.517509"><stop
       offset="0"
       stop-color="#c0bfbc"
       id="stop13" /><stop
       offset="0.223152"
       stop-color="#9a9996"
       id="stop14" /><stop
       offset="0.743841"
       stop-color="#d6d5d2"
       id="stop15" /><stop
       offset="1"
       stop-color="#f6f5f4"
       id="stop16" /></linearGradient><path
     id="path2-7"
     d="M 27.9961,8 C 23.564665,8 20,11.566406 20,16 v 96 c 0,4.43359 3.564665,8 7.9961,8 H 99.96096 C 104.39238,120 108,116.41016 108,111.97656 V 37.921875 37.917969 15.921875 C 108,11.488281 104.39238,8 99.96096,8 L 77.9756,8.0039 77.9716,8 Z"
     style="fill:url(#linearGradient16-6);fill-opacity:1;stroke:none;stroke-width:0.999756" /><path
     d="m 25.54331,16 h 76.91338 C 107.17634,16 111,19.16936 111,23.078108 V 54.921892 C 111,58.830641 107.17634,62 102.45669,62 H 25.54331 C 20.82366,62 17,58.830641 17,54.921892 V 23.078108 C 17,19.16936 20.82366,16 25.54331,16 Z m 0,0"
     fill="#cdab8f"
     id="path16"
     style="fill:url(#linearGradient22-7);fill-opacity:1;stroke-width:0.995887" /><path
     d="m 25.54331,8 h 76.91338 C 107.17634,8 111,11.16936 111,15.078108 V 46.921892 C 111,50.830641 107.17634,54 102.45669,54 H 25.54331 C 20.82366,54 17,50.830641 17,46.921892 V 15.078108 C 17,11.16936 20.82366,8 25.54331,8 Z m 0,0"
     fill="#cdab8f"
     id="path14"
     style="stroke-width:0.995887" /><path
     d="m 64,30 v 2 h -4 v 4 h 4 v -2 h 4 v -4 z m 0,6 v 2 h -4 v 4 h 4 v -2 h 4 v -4 z m 0,6 v 2 h -4 v 4 h 4 v -2 h 4 v -4 z m 0,6 v 2 h -4 v 4 h 4 v -2 h 4 v -4 z m 0,6 v 2 h -4 v 4 h 4 v -2 h 4 v -4 z m 0,6 H 67.9891 68 v 2 h -4"
     fill="#ffffff"
     id="path4"
     style="fill:#d5b7a0;fill-opacity:1" /><path
     d="m 64,32 v 2 h -4 v 4 h 4 v -2 h 4 v -4 z m 0,6 v 2 h -4 v 4 h 4 v -2 h 4 v -4 z m 0,6 v 2 h -4 v 4 h 4 v -2 h 4 v -4 z m 0,6 v 2 h -4 v 4 h 4 v -2 h 4 v -4 z m 0,6 v 2 h -4 v 4 h 4 v -2 h 4 v -4 z"
     fill="#c0bfbc"
     id="path6-8"
     style="fill:#755233;fill-opacity:1" /><path
     d="m 68,67 c -2.214844,0 -4,1.785156 -4,4 v 10 c 0,2.214844 1.785156,4 4,4 v 8 c 0,1.109375 0.890625,2 2,2 h 4 c 1.109375,0 2,-0.890625 2,-2 v -8 c 2.214844,0 4,-1.785156 4,-4 V 71 c 0,-2.214844 -1.785156,-4 -4,-4 z m 2,22 h 4 v 4 h -4 z m 0,0"
     id="path5"
     transform="translate(-8,-55)"
     mask="url(#mask2)" /><path
     d="m 62,18 c -1.10938,0 -2,0.890625 -2,2 v 16 c 0,1.109375 0.89062,2 2,2 h 4 c 1.10937,0 2,-0.890625 2,-2 V 20 c 0,-1.109375 -0.89063,-2 -2,-2 z m 0,14 h 4 v 4 h -4 z m 0,0"
     fill="#77767b"
     id="path7-4"
     style="fill:#875e3b;fill-opacity:1" /><path
     d="M 58.50391,10 H 69.49609 C 70.87891,10 72,11.121094 72,12.503906 V 25.496094 C 72,26.878906 70.87891,28 69.49609,28 H 58.50391 C 57.12109,28 56,26.878906 56,25.496094 V 12.503906 C 56,11.121094 57.12109,10 58.50391,10 Z m 0,0"
     fill="#77767b"
     id="path8"
     style="fill:#875e3b;fill-opacity:1" /><path
     d="M 58.94531,8 H 69.05469 C 70.68359,8 72,9.316406 72,10.945312 V 23.054688 C 72,24.683594 70.68359,26 69.05469,26 H 58.94531 C 57.31641,26 56,24.683594 56,23.054688 V 10.945312 C 56,9.316406 57.31641,8 58.94531,8 Z m 0,0"
     fill="#9a9996"
     id="path9"
     style="fill:#a9764c;fill-opacity:1" /><path
     d="m 62,14 c -1.10938,0 -2,0.890625 -2,2 v 18 c 0,1.109375 0.89062,2 2,2 h 4 c 1.10937,0 2,-0.890625 2,-2 V 16 c 0,-1.109375 -0.89063,-2 -2,-2 z m 0,16 h 4 v 4 h -4 z m 0,0"
     fill="#ffffff"
     id="path10-5" /><path
     d="m 64,20 c 1.10547,0 2,-0.894531 2,-2 v -6 c 0,-1.105469 -0.89453,-2 -2,-2 -1.10547,0 -2,0.894531 -2,2 v 6 c 0,1.105469 0.89453,2 2,2 z m 0,0"
     fill="#77767b"
     id="path11"
     style="fill:#875e3b;fill-opacity:1" /><path
     d="m 64,18 c 1.10547,0 2,-0.894531 2,-2 v -4 c 0,-1.105469 -0.89453,-2 -2,-2 -1.10547,0 -2,0.894531 -2,2 v 4 c 0,1.105469 0.89453,2 2,2 z m 0,0"
     fill="#9a9996"
     id="path12"
     style="fill:#a9764c;fill-opacity:1" /><rect
     style="fill:#0b0705;fill-opacity:0.2;stroke:none"
     id="rect1"
     width="8"
     height="8"
     x="60"
     y="54" /><path
     id="rect45"
     style="fill:url(#linearGradient56);stroke:none;stroke-width:0.343953;stroke-opacity:1"
     d="m 63.989575,66 c -1.721905,0.01096 -3.439144,0.716282 -4.762549,2.106097 -0.655533,0.688434 -0.998808,1.019652 -1.232582,1.103317 -0.116887,0.04183 -0.211055,0.03997 -0.359069,-0.0059 -0.14801,-0.04583 -0.340289,-0.141555 -0.599317,-0.275503 -1.10648,-0.572186 -2.634902,-0.648063 -4.099902,-0.359065 -1.465,0.289001 -2.870435,0.94412 -3.719291,1.899143 -0.3943,0.443616 -0.959142,1.524164 -1.320065,2.474956 -0.295148,0.777538 -0.483871,1.183332 -0.710957,1.393184 -0.227089,0.209851 -0.527024,0.2742 -1.137917,0.33687 -1.818657,0.186571 -3.140243,0.910955 -4.496839,2.456027 -1.301226,1.482017 -1.720053,3.195502 -1.419952,5.729421 0.09886,0.8347 0.123636,1.273041 0.04766,1.487192 -0.03799,0.107076 -0.0901,0.169275 -0.197812,0.240249 -0.107715,0.07098 -0.272388,0.141024 -0.498779,0.226541 -1.248683,0.47167 -2.89285,1.990463 -3.532576,3.251849 -0.9322,1.838073 -0.936656,3.812726 -0.04113,5.830611 0.895529,2.017889 2.679041,4.086292 5.322695,6.175971 l 0.0085,0.007 5.957918,3.62136 0.0033,0.002 c 1.49148,0.81936 3.154085,1.75528 3.680771,2.07149 l 1.023019,0.64502 -1.209081,0.74686 -0.0059,0.005 c -0.841392,0.63033 -1.392499,1.36082 -1.637351,2.1061 -0.244855,0.74528 -0.177238,1.50732 0.209564,2.16224 0.756242,1.28043 2.079476,2.06761 3.949749,2.38943 1.870273,0.32183 4.296795,0.19042 7.323028,-0.35384 0.914973,-0.16456 1.612964,-0.25449 2.110666,-0.27289 0.497706,-0.0184 0.790658,0.0542 0.873518,0.12208 0.171538,0.14052 0.357658,0.22445 0.551659,0.22458 0.193997,1.3e-4 0.379428,-0.083 0.551003,-0.22327 0.08621,-0.0705 0.362645,-0.14008 0.830428,-0.12078 0.467783,0.0193 1.121518,0.11079 1.974222,0.27681 3.018231,0.58764 6.657961,0.657 8.527539,0.13775 l 0.0027,-6.7e-4 0.0027,-6.7e-4 c 1.85836,-0.57897 2.788478,-1.66717 2.948929,-2.86275 0.160311,-1.19452 -0.432759,-2.45914 -1.49764,-3.4229 l -6.69e-4,-6.7e-4 c -0.37042,-0.35124 -0.818331,-0.59621 -1.142489,-0.77493 -0.140102,-0.0772 -0.239043,-0.13644 -0.309451,-0.1841 0.01618,-0.0109 0.0134,-0.01 0.03262,-0.0222 0.07956,-0.0507 0.187613,-0.11652 0.318592,-0.19455 0.26196,-0.15606 0.614744,-0.35975 1.017143,-0.58952 0.80479,-0.45955 1.808602,-1.02293 2.691051,-1.51788 l 0.0013,-6.7e-4 6.68e-4,-6.7e-4 c 2.139048,-1.23561 4.263399,-2.24279 6.26998,-3.69709 1.843816,-1.335656 3.452842,-2.965513 4.605864,-4.580402 1.153019,-1.614885 1.856703,-3.211847 1.861275,-4.515771 0.0041,-1.177209 -0.503809,-2.509408 -1.277627,-3.672287 -0.773818,-1.16288 -1.814298,-2.15757 -2.915634,-2.632295 -0.264052,-0.113819 -0.454643,-0.199222 -0.57973,-0.28856 -0.125086,-0.08934 -0.191186,-0.172708 -0.241556,-0.331649 -0.100736,-0.317878 -0.08417,-0.952259 -0.02611,-2.208594 C 87.81667,79.932539 87.693501,79.29793 86.921139,77.979998 85.877727,76.199547 83.832843,74.892969 81.76166,74.68049 81.159357,74.6187 80.844752,74.546656 80.634837,74.37365 80.424925,74.200641 80.275508,73.8864 80.066856,73.279471 79.36568,71.239902 78.40829,70.101952 76.617193,69.186749 74.822158,68.26953 72.646723,68.144547 70.95567,68.87338 c -0.252714,0.108919 -0.443954,0.184629 -0.5954,0.218051 -0.151447,0.03343 -0.258173,0.03035 -0.382571,-0.01501 -0.248796,-0.09074 -0.584239,-0.399387 -1.19798,-1.027588 -1.341197,-1.372798 -3.066765,-2.056365 -4.788664,-2.045382 l 0.09271,0.06202 -0.154726,0.10315 c -0.0027,4.3e-5 -0.0052,-4.7e-5 -0.0078,0 z" /><path
     id="path44"
     style="baseline-shift:baseline;display:inline;overflow:visible;vector-effect:none;fill:#080706;stroke-width:0.33426;enable-background:accumulate;stop-color:#000000"
     d="m 63.989632,66.00017 c -1.721905,0.01096 -3.439144,0.716282 -4.762549,2.106097 -0.655533,0.688435 -0.998808,1.019653 -1.232582,1.103318 -0.116888,0.04183 -0.211055,0.03996 -0.359069,-0.0059 -0.14801,-0.04583 -0.340289,-0.141556 -0.599317,-0.275504 -1.10648,-0.572185 -2.634903,-0.648066 -4.099903,-0.359068 -1.465,0.289001 -2.870435,0.94412 -3.71929,1.899143 -0.3943,0.443616 -0.959142,1.524167 -1.320065,2.474959 -0.295148,0.777538 -0.483868,1.183333 -0.710954,1.393184 -0.227089,0.209852 -0.527027,0.2742 -1.13792,0.336871 -1.818657,0.18657 -3.140243,0.910954 -4.496839,2.456026 -1.301226,1.482017 -1.720054,3.195499 -1.419949,5.729418 0.09886,0.8347 0.123633,1.273045 0.04766,1.487195 -0.03798,0.107077 -0.0901,0.169276 -0.197812,0.240249 -0.107715,0.07098 -0.272388,0.141024 -0.498779,0.226541 -1.248684,0.471671 -2.89285,1.990463 -3.532576,3.251849 -0.9322,1.838074 -0.936656,3.812726 -0.04113,5.830612 0.895529,2.017889 2.679041,4.086288 5.322694,6.17597 l 0.0085,0.007 5.957918,3.62137 0.0033,0.002 c 1.49148,0.81937 3.154088,1.75529 3.680774,2.0715 l 1.023015,0.64501 -1.209077,0.74687 -0.0059,0.005 c -0.841392,0.63032 -1.392499,1.36081 -1.637351,2.10609 -0.244855,0.74529 -0.177238,1.50733 0.209564,2.16225 0.756243,1.28043 2.079476,2.0676 3.949749,2.38943 1.870274,0.32183 4.296795,0.19042 7.323028,-0.35384 0.914973,-0.16456 1.612967,-0.25449 2.11067,-0.2729 0.497706,-0.0184 0.790658,0.0542 0.873514,0.12209 0.171542,0.14052 0.357658,0.22444 0.551659,0.22458 0.193997,1.3e-4 0.379428,-0.083 0.551003,-0.22328 0.08621,-0.0705 0.362645,-0.14008 0.830429,-0.12078 0.467783,0.0193 1.121518,0.11079 1.974221,0.27681 3.018231,0.58765 6.657961,0.657 8.527539,0.13776 l 0.0027,-6.7e-4 0.0027,-6.7e-4 c 1.85836,-0.57897 2.788478,-1.66717 2.948929,-2.86275 0.160311,-1.19453 -0.432759,-2.45915 -1.49764,-3.4229 l -6.69e-4,-6.7e-4 c -0.370419,-0.35124 -0.818331,-0.59621 -1.142489,-0.77493 -0.140102,-0.0772 -0.239043,-0.13645 -0.309451,-0.18411 0.01618,-0.0109 0.0134,-0.01 0.03262,-0.0222 0.07956,-0.0507 0.187613,-0.11652 0.318593,-0.19455 0.261959,-0.15606 0.614743,-0.35975 1.017142,-0.58952 0.80479,-0.45955 1.808602,-1.02294 2.691051,-1.51788 l 0.0013,-6.7e-4 6.68e-4,-6.7e-4 c 2.139049,-1.23561 4.263399,-2.24279 6.26998,-3.6971 1.843817,-1.335649 3.452842,-2.965509 4.605864,-4.580398 1.153019,-1.614885 1.856703,-3.211844 1.861279,-4.515768 0.0041,-1.177209 -0.503813,-2.509408 -1.277631,-3.672287 -0.773818,-1.162879 -1.814298,-2.157569 -2.915634,-2.632295 -0.264051,-0.113819 -0.454643,-0.199222 -0.57973,-0.28856 -0.125086,-0.08934 -0.191186,-0.172708 -0.241556,-0.331649 -0.100735,-0.317877 -0.08416,-0.952259 -0.02611,-2.208594 0.10101,-2.186533 -0.02216,-2.821142 -0.794519,-4.139074 -1.043412,-1.780451 -3.088299,-3.087032 -5.159482,-3.299511 -0.602302,-0.06179 -0.916908,-0.133831 -1.126823,-0.306837 -0.209911,-0.173009 -0.359326,-0.48725 -0.567977,-1.094179 -0.701177,-2.039569 -1.65857,-3.177519 -3.449667,-4.092722 -1.795035,-0.917219 -3.97047,-1.042202 -5.661523,-0.313369 -0.252714,0.108919 -0.443954,0.184629 -0.5954,0.218051 -0.151447,0.03343 -0.258172,0.03035 -0.382571,-0.01501 -0.248796,-0.09073 -0.584239,-0.399387 -1.19798,-1.027588 -1.341196,-1.372797 -3.066762,-2.056365 -4.788661,-2.045381 l 0.0927,0.06202 -0.154725,0.10315 c -0.0027,4.3e-5 -0.0052,-4.7e-5 -0.0078,0 z m 0.0235,1.985319 c 1.069765,-0.001 1.900297,0.216323 2.608142,0.707691 0.707841,0.491369 1.300083,1.26646 1.858664,2.403795 0.458919,0.934427 0.688074,1.454411 0.806926,2.367241 0.11885,0.912826 0.121925,2.22524 0.105108,4.691385 -0.03895,5.711431 -0.643393,9.47326 -3.548898,22.062449 -0.440498,1.90862 -0.876733,3.67968 -1.224096,4.99365 -0.173681,0.65699 -0.325736,1.20003 -0.443937,1.58708 -0.0591,0.19353 -0.10945,0.34817 -0.149504,0.45635 -0.02002,0.0541 -0.03799,0.0971 -0.05092,0.12469 -0.0048,0.0103 -0.01,0.0191 -0.01371,0.0248 -0.0085,-0.009 -0.02019,-0.0227 -0.03395,-0.0431 -0.08465,-0.12597 -0.215568,-0.45024 -0.379308,-1.01191 -0.327475,-1.12334 -0.813231,-3.21243 -1.622333,-6.836661 C 59.20123,87.310913 58.766402,84.42446 58.736793,78.334466 c -0.0125,-2.571871 3.34e-4,-4.037355 0.101842,-5.036745 0.101441,-0.99939 0.285077,-1.529402 0.632613,-2.281713 0.933715,-2.021215 2.44876,-3.02858 4.541884,-3.030536 z m 9.365799,2.186399 c 1.771393,-0.07501 3.611218,0.949903 4.559513,2.740666 0.463154,0.874634 0.637025,2.624159 0.500738,4.637201 -0.136291,2.013042 -0.569682,4.29769 -1.260005,6.28826 -1.844255,5.318008 -4.331682,10.666708 -7.308013,15.716081 -0.7937,1.346514 -1.546433,2.570544 -2.119153,3.456194 -0.286361,0.44283 -0.52794,0.80128 -0.705081,1.04587 -0.08857,0.12229 -0.161832,0.21672 -0.21283,0.2755 -0.02062,0.0238 -0.03364,0.0367 -0.04439,0.047 -0.002,2e-4 -0.0033,-1.9e-4 -0.0052,0 -3.35e-4,-0.004 -6.69e-4,-0.006 -6.69e-4,-0.007 v -6.7e-4 l 6.69e-4,-6.7e-4 c 3.34e-4,-0.001 6.68e-4,-0.003 0.0013,-0.0157 0.0037,-0.0776 0.01989,-0.20272 0.05158,-0.38388 0.126755,-0.7246 0.502352,-2.34445 1.301133,-5.852802 2.387974,-10.48831 2.986697,-14.339924 3.019434,-19.425582 0.0082,-1.277637 -0.01775,-2.606911 -0.06594,-3.720597 -0.04819,-1.113684 -0.115925,-2.002788 -0.202384,-2.440357 -0.1418,-0.717632 -0.185177,-1.072659 -0.103153,-1.271751 0.04101,-0.09955 0.112121,-0.181282 0.252654,-0.28138 0.140536,-0.100101 0.346721,-0.2117 0.624126,-0.355151 0.542657,-0.280621 1.125235,-0.426769 1.715692,-0.451772 z m -19.06912,0.110985 c 1.053908,-0.01939 2.039813,0.234463 2.497154,0.691369 0.300148,0.299861 0.438007,0.492742 0.481802,0.72662 0.0438,0.233885 -0.008,0.546532 -0.157336,1.067412 -0.545288,1.901319 -0.565902,5.089003 -0.111636,9.380817 0.454265,4.291811 1.389434,9.681214 2.781144,15.949147 0.355107,1.599323 0.662285,3.100482 0.870248,4.228512 0.103985,0.56402 0.183054,1.03542 0.231111,1.37687 0.02403,0.17072 0.04007,0.30908 0.04766,0.40803 v 6.7e-4 6.7e-4 c -0.01491,-0.0123 -0.01404,-0.008 -0.03069,-0.0235 -0.150157,-0.14323 -0.374177,-0.41914 -0.641101,-0.79191 -0.533839,-0.74554 -1.250859,-1.88513 -2.036894,-3.22639 -1.572067,-2.682505 -3.422482,-6.174358 -4.66919,-8.968211 -2.45219,-5.49533 -3.847533,-9.911659 -4.192606,-13.24504 -0.34507,-3.333385 0.349619,-5.555212 2.044726,-6.76223 0.715734,-0.50966 1.831707,-0.793406 2.885604,-0.8128 z m -7.874038,6.259534 c 0.271171,-3.35e-4 0.465209,0.0034 0.588872,0.03786 0.123663,0.03448 0.186801,0.07991 0.265058,0.227844 0.156517,0.295877 0.274066,1.009682 0.480498,2.425994 0.76382,5.240563 4.29622,13.852904 8.649624,21.133445 0.690674,1.15507 1.319063,2.2289 1.773796,3.02662 0.227364,0.39884 0.411541,0.72848 0.537948,0.96425 0.06321,0.11788 0.111856,0.213 0.143628,0.27877 0.01474,0.0305 0.02484,0.0528 0.03132,0.0686 -0.01728,-0.008 -0.02621,-0.009 -0.05158,-0.0248 -0.197896,-0.11968 -0.594117,-0.47189 -1.224096,-1.12421 -1.259955,-1.30465 -3.492392,-3.817175 -7.354365,-8.218091 -3.229473,-3.680149 -5.432863,-6.539293 -6.773328,-8.851353 -1.340465,-2.312058 -1.813606,-4.068268 -1.617111,-5.559026 0.316995,-2.404999 2.38766,-4.383298 4.549715,-4.385852 z m 34.016799,0.180186 1.384697,0.03002 c 0.625219,0.01334 1.035112,0.07571 1.423869,0.259182 0.388754,0.183472 0.768978,0.497395 1.306354,1.034767 0.613517,0.613521 0.918877,0.954763 1.078509,1.387308 0.159632,0.432546 0.1828,0.9944 0.1828,2.045382 0,1.993732 -0.380017,3.553906 -2.008172,6.042135 -1.628152,2.488232 -4.508027,5.88532 -9.481353,11.471244 -2.288405,2.570279 -3.729158,4.143009 -4.58889,4.978639 -0.429865,0.41781 -0.724207,0.65204 -0.865028,0.72205 -0.002,0.001 -0.004,0.002 -0.0059,0.003 6.69e-4,-0.002 0.0017,-0.004 0.0027,-0.006 0.01367,-0.032 0.03603,-0.0798 0.06594,-0.13775 0.05981,-0.11598 0.148736,-0.27502 0.25853,-0.46417 0.219585,-0.37832 0.523982,-0.87612 0.858499,-1.39906 5.043508,-7.884328 9.418466,-18.204686 10.139427,-23.976662 z m 6.35681,9.648485 h 6.68e-4 c 0.14893,0.0067 0.375006,0.07233 0.703122,0.186715 0.535414,0.186647 1.519244,0.906325 2.091734,1.558355 1.259183,1.434128 1.409426,3.561269 0.365596,5.607336 -1.540649,3.01993 -5.443144,5.855261 -16.230527,11.697126 -1.287825,0.69742 -2.506807,1.3312 -3.431382,1.79012 -0.462292,0.22946 -0.851169,0.41522 -1.136614,0.54252 -0.142725,0.0637 -0.259626,0.11298 -0.344705,0.14493 -0.03447,0.0129 -0.02514,0.0106 -0.04962,0.017 0.09167,-0.17672 0.352307,-0.53411 0.849358,-1.12747 0.997691,-1.19101 2.94471,-3.35553 6.452779,-7.2251 5.476885,-6.041269 8.690057,-10.021079 9.950754,-12.349979 0.173932,-0.321307 0.304477,-0.541498 0.415214,-0.669175 0.110556,-0.127466 0.180888,-0.164268 0.302923,-0.171699 0.01972,-0.001 0.03986,-0.0013 0.06071,-6.69e-4 z m -45.964624,0.0346 c 0.09509,-0.0034 0.169894,0.01337 0.264406,0.0692 0.09451,0.05585 0.207031,0.156016 0.34405,0.316635 0.274043,0.32124 0.641719,0.877572 1.207123,1.751597 1.741235,2.691673 5.696784,7.366071 12.324522,14.57751 1.188821,1.29353 2.269757,2.49173 3.05273,3.37916 0.391485,0.44371 0.708416,0.81023 0.926394,1.07067 0.108988,0.13022 0.193001,0.23413 0.248084,0.30619 0.0082,0.0108 0.01073,0.0148 0.01761,0.0242 -0.01895,0.002 -0.01688,0.006 -0.06398,-0.001 -0.172989,-0.0257 -0.505875,-0.14025 -1.006696,-0.3669 -1.001643,-0.45331 -2.69513,-1.34713 -5.419968,-2.83468 -9.856612,-5.380938 -13.842291,-8.437519 -15.106318,-11.46276 -1.180451,-2.825223 -0.04073,-5.647404 2.687134,-6.684538 0.230265,-0.08755 0.398157,-0.140393 0.524891,-0.144935 z m 12.968885,21.156292 c 0.06846,-1.5e-4 0.273969,0.0446 0.534685,0.13383 0.260716,0.0892 0.587284,0.21899 0.953813,0.37669 0.733068,0.31543 1.625579,0.74213 2.483446,1.18167 0.857871,0.43953 1.682052,0.8928 2.279103,1.25869 0.298527,0.18295 0.540936,0.34454 0.697245,0.46744 0.06775,0.0533 0.110704,0.0943 0.141015,0.12666 -0.01337,0.0143 -0.01066,0.0156 -0.05157,0.0424 -0.07132,0.0468 -0.178873,0.10085 -0.309451,0.15342 -0.261161,0.10515 -0.615566,0.20589 -0.989071,0.27224 -1.128113,0.2004 -2.794398,0.27884 -4.288579,0.24547 -0.747087,-0.0167 -1.452335,-0.0611 -2.025794,-0.13057 -0.573459,-0.0694 -1.022808,-0.17227 -1.217568,-0.27028 -0.304834,-0.1534 -0.593391,-0.32208 -0.808229,-0.53664 -0.214839,-0.21456 -0.360005,-0.46889 -0.394975,-0.82847 -0.04425,-0.45498 0.03467,-0.73264 0.236983,-0.99233 0.202318,-0.2597 0.549487,-0.50077 1.045217,-0.80301 0.315678,-0.19247 0.674065,-0.36976 0.991027,-0.49682 0.316961,-0.12706 0.605284,-0.20019 0.722706,-0.20042 z m 19.989641,0.004 c 0.425245,-0.003 1.083316,0.2283 1.668688,0.56602 0.585376,0.33771 1.104234,0.78726 1.293297,1.14053 0.24415,0.4562 0.276045,0.88209 0.133835,1.25543 -0.142211,0.37334 -0.466115,0.70434 -0.979274,0.93815 -0.344405,0.15692 -1.106834,0.2762 -2.023187,0.32838 -0.916353,0.0522 -1.996771,0.0471 -3.029228,-0.006 -1.032455,-0.053 -2.018621,-0.15372 -2.741321,-0.28921 -0.361351,-0.0678 -0.657292,-0.1453 -0.852623,-0.22393 -0.09767,-0.0393 -0.169884,-0.0797 -0.20826,-0.11033 -0.0064,-0.005 -0.01143,-0.01 -0.01568,-0.0137 0.001,-10e-4 0.002,-0.003 0.0033,-0.004 0.03236,-0.0362 0.09115,-0.0906 0.169741,-0.15342 0.157179,-0.12561 0.393474,-0.28926 0.681579,-0.47331 0.576207,-0.36812 1.362255,-0.82097 2.175298,-1.26066 0.813043,-0.43969 1.654245,-0.86613 2.342429,-1.18166 0.344093,-0.15776 0.6498,-0.28846 0.892446,-0.378 0.242649,-0.0895 0.434946,-0.13406 0.488985,-0.13449 z" /></svg>
