<?xml version="1.0" encoding="UTF-8" standalone="no"?>
<svg
   width="128"
   height="128"
   version="1"
   id="svg457"
   xml:space="preserve"
   xmlns:xlink="http://www.w3.org/1999/xlink"
   xmlns="http://www.w3.org/2000/svg"
   xmlns:svg="http://www.w3.org/2000/svg"><defs
     id="defs461"><linearGradient
       id="linearGradient871"><stop
         style="stop-color:#0a3385;stop-opacity:1;"
         offset="0"
         id="stop867" /><stop
         style="stop-color:#749cf1;stop-opacity:1;"
         offset="0.40895775"
         id="stop875" /><stop
         style="stop-color:#0a3385;stop-opacity:1;"
         offset="0.8090083"
         id="stop877" /><stop
         style="stop-color:#598cf2;stop-opacity:1;"
         offset="1"
         id="stop881" /></linearGradient><linearGradient
       xlink:href="#linearGradient871"
       id="linearGradient873"
       x1="9.9565323"
       y1="65.964918"
       x2="118.04347"
       y2="65.964918"
       gradientUnits="userSpaceOnUse"
       gradientTransform="matrix(1.1102174,0,0,1.0918831,-7.053916,-6.025979)" /></defs><path
     style="color:#000000;fill:url(#linearGradient873);fill-opacity:1;stroke-width:0.850149;stroke-linecap:round;stroke-linejoin:round;stroke-miterlimit:1.5"
     d="M 63.974509,7.000588 C 43.509066,6.90769 23.389496,17.825533 12.838256,35.132582 2.266293,51.806314 1.023275,73.830384 9.948908,91.448894 c -1.393726,6.4687 -3.3262,12.848606 -4.330489,19.380546 -0.504183,8.13123 8.44741,14.67626 16.209269,12.04851 5.41753,-1.22186 10.83085,-2.46146 16.241564,-3.71214 19.441489,9.53301 44.071271,7.18804 61.438761,-5.60464 C 118.50582,100.18378 127.94593,75.243804 122.4462,52.907512 118.62569,38.132894 109.64335,24.292791 96.225533,16.277845 86.737953,10.136459 75.286747,7.092574 63.974509,7.000588 Z"
     id="path4-3-7" /><path
     style="color:#000000;fill:#3a76f0;stroke-width:0.85015;stroke-linecap:round;stroke-linejoin:round;stroke-miterlimit:1.5"
     d="M 63.974509,3.0005879 C 43.509066,2.9076897 23.389495,13.825532 12.838256,31.132581 2.2662917,47.806314 1.0232736,69.830381 9.9489071,87.448897 8.5551812,93.917592 6.6227068,100.2975 5.6184186,106.82943 c -0.504183,8.13124 8.4474104,14.67627 16.2092684,12.04851 5.41753,-1.22184 10.83085,-2.46145 16.241565,-3.71214 19.441489,9.53303 44.071269,7.18805 61.438761,-5.60463 C 118.50583,96.183783 127.94594,71.243807 122.4462,48.907511 118.6257,34.132893 109.64335,20.292791 96.22554,12.277845 86.737957,6.1364596 75.286748,3.0925744 63.974509,3.0005879 Z"
     id="path4-3" /><path
     id="path4-6"
     style="fill:#ffffff;stroke-width:0.147874"
     d="m 64.000807,10.384009 c -2.630319,0 -5.256951,0.194872 -7.857614,0.58293 l 0.730044,4.780309 c 4.724769,-0.70403 9.530459,-0.70403 14.255239,0 l 0.729946,-4.780309 c -2.600576,-0.388058 -5.227208,-0.58293 -7.857615,-0.58293 z M 51.401539,11.890718 C 46.2832,13.123153 41.385864,15.116056 36.878404,17.800653 l 2.519903,4.14964 c 4.094692,-2.429663 8.537854,-4.239332 13.180327,-5.368184 z m 25.198635,0 -1.177105,4.691391 c 4.642461,1.128852 9.085677,2.938521 13.18037,5.368184 l 2.550007,-4.14964 C 86.634064,15.118384 81.727163,13.125739 76.600174,11.890718 Z m -12.644545,8.111545 c -14.459176,0.06404 -28.62672,7.684665 -36.177181,19.858961 -8.416805,13.076599 -8.744953,30.787101 -0.333211,43.953165 0.781984,1.441403 -0.469607,3.209439 -0.592708,4.796786 l -3.082442,12.936315 c 5.794807,-1.336 11.58969,-2.67201 17.384573,-4.008017 12.099578,7.360577 27.945804,8.710647 40.858615,2.585287 C 97.158766,93.371048 107.32623,77.302924 106.67114,60.942021 106.47293,44.262646 95.039655,28.477003 79.136776,22.732463 74.301777,20.920969 69.128571,19.998585 63.955629,20.002263 Z M 32.836612,20.44028 c -4.229104,3.073621 -7.968292,6.750512 -11.094101,10.909261 l 3.966443,2.904742 c 2.834255,-3.784218 6.232935,-7.126182 10.081163,-9.913009 z m 62.328521,0 -2.953516,3.900994 c 3.848217,2.786827 7.246865,6.128791 10.081143,9.913009 l 3.96481,-2.904742 C 103.1322,27.190909 99.393594,23.514029 95.165133,20.44028 Z M 19.058527,35.309792 c -2.726599,4.439644 -4.752124,9.260598 -6.007489,14.298125 l 4.770121,1.157612 c 1.147863,-4.565753 2.987886,-8.935604 5.458325,-12.962664 z m 89.882993,0 -4.21932,2.493073 c 2.47289,4.02116 4.31314,8.387031 5.45832,12.949502 l 4.77016,-1.159265 c -1.25599,-5.032925 -3.28217,-9.848977 -6.00916,-14.28331 z M 12.110023,54.256495 c -0.79022,5.12756 -0.79022,10.342989 0,15.470551 l 4.862278,-0.717945 c -0.357391,-2.320116 -0.537069,-4.663349 -0.537494,-7.009919 -8.8e-5,-2.34659 0.179503,-4.689877 0.537494,-7.009918 z m 103.779967,0 -4.86058,0.732769 c 0.35795,2.320041 0.53761,4.663328 0.53746,7.009918 -4.1e-4,2.34657 -0.18007,4.689803 -0.53746,7.009919 l 4.86058,0.717945 c 0.7902,-5.127562 0.7902,-10.342991 0,-15.470551 z m -98.068831,18.961516 -4.770121,1.157612 c 1.073026,4.276771 2.696243,8.401504 4.830385,12.27435 l -1.207188,5.104711 4.80038,1.085161 1.640789,-6.922642 C 20.719888,81.965866 18.93559,77.68592 17.821159,73.218011 Z m 92.359361,0 c -1.14508,4.571299 -2.98525,8.946438 -5.45832,12.977479 l 4.21932,2.493072 c 2.72979,-4.443505 4.75605,-9.269759 6.00916,-14.312939 z m -7.88776,16.527723 c -2.834583,3.77968 -6.233285,7.116719 -10.081143,9.898194 l 2.92338,3.900982 c 4.237436,-3.06829 7.986163,-6.740674 11.122573,-10.896075 z m -86.633174,6.319952 -2.370833,9.987124 c -0.623314,2.60402 1.019886,5.21143 3.668464,5.821 0.736642,0.16137 1.50028,0.16137 2.236922,0 l 10.153098,-2.30206 -1.11838,-4.7375 -10.153185,2.31689 2.370832,-9.98547 z m 72.943853,5.982394 c -4.088159,2.43189 -8.526773,4.24175 -13.165286,5.36817 l 1.177105,4.69305 c 5.112036,-1.24434 10.003372,-3.24185 14.50804,-5.92476 z m -48.922238,0.14655 -0.04549,0.0297 -7.037137,1.61375 1.118378,4.72102 5.173719,-1.18724 c 3.934887,2.10523 8.129709,3.70199 12.480452,4.75066 l 1.177018,-4.69139 c -4.528544,-1.11053 -8.864803,-2.8752 -12.867164,-5.23645 z m 17.192036,6.0565 -0.730044,4.78194 c 5.208611,0.77722 10.506629,0.77722 15.715229,0 l -0.729946,-4.78194 c -4.72478,0.70403 -9.53047,0.70403 -14.255239,0 z" /></svg>
