<?xml version="1.0" encoding="UTF-8" standalone="no"?>
<svg
   viewBox="0 0 128 128"
   style="display:inline;enable-background:new"
   version="1.0"
   id="svg11300"
   height="128"
   width="128"
   xml:space="preserve"
   xmlns:xlink="http://www.w3.org/1999/xlink"
   xmlns="http://www.w3.org/2000/svg"
   xmlns:svg="http://www.w3.org/2000/svg"
   xmlns:rdf="http://www.w3.org/1999/02/22-rdf-syntax-ns#"
   xmlns:cc="http://creativecommons.org/ns#"
   xmlns:dc="http://purl.org/dc/elements/1.1/"><title
     id="title4162">Adwaita Icon Template</title><defs
     id="defs3"><linearGradient
       id="linearGradient46"><stop
         style="stop-color:#b1b6b9;stop-opacity:0.99607843;"
         offset="0"
         id="stop46" /><stop
         style="stop-color:#d1d2d6;stop-opacity:1;"
         offset="1"
         id="stop47" /></linearGradient><linearGradient
       id="linearGradient40"><stop
         style="stop-color:#faa29e;stop-opacity:1;"
         offset="0"
         id="stop41" /><stop
         style="stop-color:#c32222;stop-opacity:1;"
         offset="0.5"
         id="stop42" /><stop
         style="stop-color:#c32222;stop-opacity:1;"
         offset="1"
         id="stop40" /></linearGradient><linearGradient
       id="linearGradient26"><stop
         style="stop-color:#aebcc9;stop-opacity:1;"
         offset="0"
         id="stop25" /><stop
         style="stop-color:#eff1f5;stop-opacity:1;"
         offset="1"
         id="stop26" /></linearGradient><linearGradient
       id="linearGradient14"><stop
         style="stop-color:#032f57;stop-opacity:1;"
         offset="0"
         id="stop13" /><stop
         style="stop-color:#179345;stop-opacity:1;"
         offset="1"
         id="stop14" /></linearGradient><linearGradient
       id="linearGradient1"><stop
         style="stop-color:#8698a3;stop-opacity:0.99607843;"
         offset="0"
         id="stop1" /><stop
         style="stop-color:#ececec;stop-opacity:1;"
         offset="1"
         id="stop8" /></linearGradient><linearGradient
       id="linearGradient7"><stop
         style="stop-color:#54646e;stop-opacity:0.99607843;"
         offset="0"
         id="stop2" /><stop
         id="stop3"
         offset="0.04166667"
         style="stop-color:#bfc9cf;stop-opacity:1;" /><stop
         style="stop-color:#54646e;stop-opacity:1;"
         offset="0.08333334"
         id="stop4" /><stop
         id="stop5"
         offset="0.91666669"
         style="stop-color:#54646e;stop-opacity:1;" /><stop
         style="stop-color:#bfc9cf;stop-opacity:1;"
         offset="0.95833331"
         id="stop6" /><stop
         style="stop-color:#54646e;stop-opacity:1;"
         offset="1"
         id="stop7" /></linearGradient><linearGradient
       xlink:href="#linearGradient7"
       id="linearGradient2"
       x1="12"
       y1="66"
       x2="116"
       y2="66"
       gradientUnits="userSpaceOnUse" /><linearGradient
       xlink:href="#linearGradient1"
       id="linearGradient8"
       x1="66"
       y1="112"
       x2="66"
       y2="12"
       gradientUnits="userSpaceOnUse" /><linearGradient
       xlink:href="#linearGradient14"
       id="linearGradient13"
       x1="-48.838997"
       y1="183.07701"
       x2="-48.838997"
       y2="101.9977"
       gradientUnits="userSpaceOnUse"
       gradientTransform="matrix(0.99902176,0,0,0.99902176,112.79123,-81.397918)" /><linearGradient
       xlink:href="#linearGradient26"
       id="linearGradient25"
       x1="64"
       y1="106.11669"
       x2="64"
       y2="17.883308"
       gradientUnits="userSpaceOnUse"
       gradientTransform="matrix(0.99735502,0,0,0.99735502,0.16927874,-0.83601122)" /><linearGradient
       xlink:href="#linearGradient31"
       id="linearGradient32"
       x1="-60.864475"
       y1="54.491154"
       x2="-30.709278"
       y2="47.427055"
       gradientUnits="userSpaceOnUse"
       gradientTransform="translate(129.21557,-0.5038155)" /><linearGradient
       id="linearGradient31"><stop
         style="stop-color:#acd9b5;stop-opacity:1;"
         offset="0"
         id="stop31" /><stop
         style="stop-color:#d1d7de;stop-opacity:0;"
         offset="1"
         id="stop32" /></linearGradient><linearGradient
       xlink:href="#linearGradient34"
       id="linearGradient35"
       x1="-43.032703"
       y1="75.659576"
       x2="-7.4507999"
       y2="52.85305"
       gradientUnits="userSpaceOnUse"
       gradientTransform="translate(107.53661,-15.02872)" /><linearGradient
       id="linearGradient34"><stop
         style="stop-color:#ffffff;stop-opacity:1;"
         offset="0"
         id="stop34" /><stop
         style="stop-color:#ffffff;stop-opacity:0;"
         offset="1"
         id="stop35" /></linearGradient><linearGradient
       id="a-9"
       gradientUnits="userSpaceOnUse"
       x1="0"
       y1="269.46301"
       x2="118.926"
       y2="269.46301"
       gradientTransform="matrix(1,0,0,0.98333333,5e-6,-168.03333)"><stop
         offset="0"
         stop-color="#e5a50a"
         id="stop1-5"
         style="stop-color:#5a7187;stop-opacity:1;" /><stop
         offset="0.414"
         stop-color="#fbdf9b"
         id="stop2-1"
         style="stop-color:#dee4e8;stop-opacity:1;" /><stop
         offset="0.81300002"
         stop-color="#e5a50a"
         id="stop3-6"
         style="stop-color:#5a7287;stop-opacity:1;" /><stop
         offset="1"
         stop-color="#f8ca5b"
         id="stop4-6"
         style="stop-color:#aebcc9;stop-opacity:1;" /></linearGradient><linearGradient
       xlink:href="#a-9"
       id="linearGradient39"
       x1="20"
       y1="64"
       x2="108"
       y2="64"
       gradientUnits="userSpaceOnUse"
       gradientTransform="translate(0,-1)" /><radialGradient
       xlink:href="#linearGradient40"
       id="radialGradient41"
       cx="-65.319679"
       cy="61.804634"
       fx="-65.319679"
       fy="61.804634"
       r="2.5"
       gradientUnits="userSpaceOnUse"
       gradientTransform="matrix(1.5124505,0.01239715,-0.0125,1.5249974,35.034089,-153.81714)" /><radialGradient
       xlink:href="#linearGradient40"
       id="radialGradient42"
       gradientUnits="userSpaceOnUse"
       gradientTransform="matrix(1.0587154,0.00867801,-0.00875,1.0674982,44.073869,-89.722002)"
       cx="-65.319679"
       cy="61.804634"
       fx="-65.319679"
       fy="61.804634"
       r="2.5" /><radialGradient
       xlink:href="#linearGradient40"
       id="radialGradient43"
       gradientUnits="userSpaceOnUse"
       gradientTransform="matrix(1.0587154,0.00867801,-0.00875,1.0674982,-33.426129,-89.722002)"
       cx="-65.319679"
       cy="61.804634"
       fx="-65.319679"
       fy="61.804634"
       r="2.5" /><radialGradient
       xlink:href="#linearGradient40"
       id="radialGradient44"
       gradientUnits="userSpaceOnUse"
       gradientTransform="matrix(1.0587154,0.00867801,-0.00875,1.0674982,-33.426129,-164.222)"
       cx="-65.319679"
       cy="61.804634"
       fx="-65.319679"
       fy="61.804634"
       r="2.5" /><radialGradient
       xlink:href="#linearGradient40"
       id="radialGradient45"
       gradientUnits="userSpaceOnUse"
       gradientTransform="matrix(1.0587154,0.00867801,-0.00875,1.0674982,44.073871,-164.222)"
       cx="-65.319679"
       cy="61.804634"
       fx="-65.319679"
       fy="61.804634"
       r="2.5" /><linearGradient
       xlink:href="#linearGradient46"
       id="linearGradient47"
       x1="64"
       y1="109"
       x2="64"
       y2="15"
       gradientUnits="userSpaceOnUse"
       gradientTransform="matrix(1.0212766,0,0,1.0222223,-1.3617021,-1.3777785)" /></defs><metadata
     id="metadata4"><rdf:RDF><cc:Work
         rdf:about=""><dc:format>image/svg+xml</dc:format><dc:type
           rdf:resource="http://purl.org/dc/dcmitype/StillImage" /><dc:creator><cc:Agent><dc:title>GNOME Design Team</dc:title></cc:Agent></dc:creator><dc:source /><cc:license
           rdf:resource="http://creativecommons.org/licenses/by-sa/4.0/" /><dc:title>Adwaita Icon Template</dc:title><dc:subject><rdf:Bag /></dc:subject><dc:date /><dc:rights><cc:Agent><dc:title /></cc:Agent></dc:rights><dc:publisher><cc:Agent><dc:title /></cc:Agent></dc:publisher><dc:identifier /><dc:relation /><dc:language /><dc:coverage /><dc:description /><dc:contributor><cc:Agent><dc:title /></cc:Agent></dc:contributor></cc:Work><cc:License
         rdf:about="http://creativecommons.org/licenses/by-sa/4.0/"><cc:permits
           rdf:resource="http://creativecommons.org/ns#Reproduction" /><cc:permits
           rdf:resource="http://creativecommons.org/ns#Distribution" /><cc:requires
           rdf:resource="http://creativecommons.org/ns#Notice" /><cc:requires
           rdf:resource="http://creativecommons.org/ns#Attribution" /><cc:permits
           rdf:resource="http://creativecommons.org/ns#DerivativeWorks" /><cc:requires
           rdf:resource="http://creativecommons.org/ns#ShareAlike" /></cc:License></rdf:RDF></metadata><rect
     style="display:inline;fill:url(#linearGradient2);fill-opacity:1;stroke:none;stroke-width:0.25;stroke-linecap:butt;stroke-linejoin:miter;stroke-miterlimit:4;stroke-dasharray:none;stroke-dashoffset:0;stroke-opacity:1;marker:none;marker-start:none;marker-mid:none;marker-end:none;paint-order:normal;enable-background:new"
     id="rect1"
     width="104"
     height="100"
     x="12"
     y="16"
     rx="8"
     ry="8" /><rect
     style="display:inline;fill:url(#linearGradient8);fill-opacity:1;stroke:none;stroke-width:0.25;stroke-linecap:butt;stroke-linejoin:miter;stroke-miterlimit:4;stroke-dasharray:none;stroke-dashoffset:0;stroke-opacity:1;marker:none;marker-start:none;marker-mid:none;marker-end:none;paint-order:normal;enable-background:new"
     id="rect1711"
     width="104"
     height="100"
     x="12"
     y="12"
     rx="8"
     ry="8" /><circle
     style="fill:url(#linearGradient39);fill-opacity:1;stroke-width:1.0462"
     id="circle35"
     cx="64"
     cy="63"
     r="44" /><circle
     style="fill:url(#linearGradient25);stroke-width:1.0462"
     id="path12"
     cx="64"
     cy="61"
     r="44" /><circle
     style="fill:url(#linearGradient13);stroke-width:0.962975"
     id="circle12"
     cx="64"
     cy="61"
     r="40.5" /><path
     id="path24"
     style="baseline-shift:baseline;display:inline;overflow:visible;vector-effect:none;fill:#ffffff;stroke-width:1.00618;enable-background:accumulate;stop-color:#000000"
     d="m 63.849609,20.5 v 7.75 c -8.92958,0.04005 -17.015158,3.654419 -22.90039,9.486328 l -5.480469,-5.480469 -0.212891,0.212891 5.480469,5.480469 C 34.904421,43.834452 31.290052,51.92003 31.25,60.849609 H 23.5 v 0.300782 h 7.75 c 0.04005,8.929578 3.654421,17.015158 9.486328,22.90039 l -5.480469,5.480469 0.212891,0.212891 5.480469,-5.480469 c 5.885232,5.831908 13.97081,9.446275 22.90039,9.486328 v 7.75 h 0.300782 v -7.75 c 8.929579,-0.04005 17.015157,-3.654421 22.90039,-9.486328 l 5.480469,5.480469 0.212891,-0.212891 -5.480469,-5.480469 C 93.095581,78.165549 96.709947,70.079971 96.75,61.150391 h 7.75 V 60.849609 H 96.75 C 96.709948,51.920028 93.095581,43.834452 87.263672,37.949219 L 92.744141,32.46875 92.53125,32.255859 87.050781,37.736328 C 81.165548,31.90442 73.079971,28.290052 64.150391,28.25 V 20.5 Z m 0,8.048828 v 6.628906 c -7.014731,0.04003 -13.364825,2.88629 -17.986328,7.472657 l -4.703125,-4.703125 c 5.830826,-5.776983 13.841323,-9.358406 22.689453,-9.398438 z m 0.300782,0 c 8.84813,0.04003 16.858627,3.621456 22.689453,9.398438 l -4.703125,4.703125 C 77.515216,38.064025 71.165122,35.217763 64.150391,35.177734 Z m -0.300782,6.929688 V 43 c -4.85659,0.03966 -9.255026,2.00315 -12.470703,5.166016 l -5.304687,-5.304688 c 4.566744,-4.531599 10.841536,-7.342814 17.77539,-7.382812 z m 0.300782,0 c 6.933853,0.04 13.208646,2.851214 17.77539,7.382812 l -5.304687,5.304688 C 73.405416,45.003151 69.00698,43.039657 64.150391,43 Z m -23.203125,2.68164 4.703125,4.703125 C 41.090485,47.494505 38.270713,53.842964 38.25,60.849609 h -6.701172 c 0.04003,-8.84813 3.621456,-16.858627 9.398438,-22.689453 z m 46.105468,0 c 5.776985,5.830826 9.358407,13.841321 9.398438,22.689453 H 89.75 C 89.729287,53.842962 86.909516,47.494505 82.349609,42.863281 Z m -41.191406,4.914063 5.304688,5.304687 C 48.003152,51.594584 46.039657,55.99302 46,60.849609 h -7.449219 c 0.0207,-6.925766 2.80542,-13.198928 7.310547,-17.77539 z m 36.277344,0 c 4.505129,4.576462 7.28985,10.849623 7.310547,17.77539 H 82 C 81.96034,55.993018 79.99685,51.594584 76.833984,48.378906 Z m -18.289063,0.224609 v 7.203125 c -2.785242,0.03904 -5.307986,1.162711 -7.166015,2.96875 l -5.09375,-5.09375 c 3.161358,-3.108037 7.484513,-5.038512 12.259765,-5.078125 z m 0.300782,0 c 4.775252,0.03961 9.098407,1.970089 12.259765,5.078125 l -5.09375,5.09375 c -1.858029,-1.806038 -4.380773,-2.929707 -7.166015,-2.96875 z m -12.773438,5.291016 5.09375,5.09375 c -1.806038,1.858029 -2.929707,4.380774 -2.96875,7.166015 h -7.203125 c 0.03961,-4.775252 1.970089,-9.098407 5.078125,-12.259765 z m 25.246094,0 c 3.108025,3.161356 5.038513,7.484522 5.078125,12.259765 h -7.203125 c -0.03904,-2.785243 -1.162711,-5.307985 -2.96875,-7.166015 z m -12.773438,2.214844 v 9.832031 l -6.953125,-6.953125 c 1.802685,-1.750205 4.250084,-2.839975 6.953125,-2.878906 z m 0.300782,0 c 2.703041,0.03893 5.15044,1.128702 6.953125,2.878906 l -6.953125,6.953125 z m -7.466797,3.091796 6.953125,6.953125 h -9.832031 c 0.03893,-2.703041 1.128703,-5.15044 2.878906,-6.953125 z m 14.632812,0 c 1.750221,1.802688 2.839976,4.250069 2.878906,6.953125 H 64.363281 Z M 31.548828,61.150391 H 38.25 c 0.05909,6.986077 2.902046,13.308435 7.472656,17.914062 l -4.77539,4.775391 C 35.170284,78.009019 31.58886,69.99852 31.548828,61.150391 Z m 7.001953,0 H 46 c 0.03966,4.856588 2.003152,9.255026 5.166016,12.470703 l -5.232422,5.232422 C 41.417745,74.302642 38.609825,68.055578 38.550781,61.150391 Z m 7.748047,0 h 7.203125 c 0.03904,2.78524 1.162713,5.307986 2.96875,7.166015 l -5.09375,5.09375 C 48.268929,70.2488 46.338441,65.925632 46.298828,61.150391 Z m 7.50586,0 h 9.832031 l -6.953125,6.953125 c -1.750203,-1.802684 -2.839975,-4.250085 -2.878906,-6.953125 z m 10.558593,0 h 9.832031 c -0.03893,2.703041 -1.128701,5.15044 -2.878906,6.953125 z m 10.134766,0 h 7.203125 c -0.03961,4.775252 -1.970088,9.098407 -5.078125,12.259765 l -5.09375,-5.09375 c 1.806039,-1.858029 2.929706,-4.380773 2.96875,-7.166015 z m 7.501953,0 h 7.449219 c -0.05904,6.905188 -2.866962,13.152251 -7.382813,17.703125 L 76.833984,73.621094 C 79.99685,70.405417 81.960342,66.006981 82,61.150391 Z m 7.75,0 h 6.701172 c -0.04003,8.84813 -3.621455,16.858627 -9.398438,22.689453 l -4.77539,-4.775391 C 86.847956,74.458826 89.690908,68.136469 89.75,61.150391 Z m -25.900391,0.21289 v 9.832031 c -2.703041,-0.03893 -5.15044,-1.128702 -6.953125,-2.878906 z m 0.300782,0 6.953125,6.953125 c -1.802685,1.750203 -4.250084,2.839976 -6.953125,2.878906 z m -7.466797,7.166016 c 1.858029,1.806039 4.380773,2.929706 7.166015,2.96875 v 7.203125 c -4.775255,-0.03961 -9.098407,-1.970085 -12.259765,-5.078125 z m 14.632812,0 5.09375,5.09375 c -3.161358,3.108036 -7.484513,5.038513 -12.259765,5.078125 v -7.203125 c 2.785241,-0.03904 5.307986,-1.162712 7.166015,-2.96875 z m -19.9375,5.304687 C 54.594583,76.996849 58.99302,78.960342 63.849609,79 v 7.376953 C 56.952472,86.337166 50.707023,83.55586 46.146484,79.066406 Z m 25.242188,0 5.232422,5.232422 c -4.56054,4.489453 -10.805988,7.270761 -17.703125,7.310547 V 79 c 4.856589,-0.03966 9.255025,-2.003152 12.470703,-5.166016 z m -30.685547,5.44336 c 4.615296,4.544224 10.936034,7.36057 17.914062,7.40039 v 6.773438 C 55.001479,93.41114 46.990982,89.829717 41.160156,84.052734 Z m 36.128906,0 4.775391,4.77539 c -5.830826,5.776982 -13.841323,9.358407 -22.689453,9.398438 v -6.773438 c 6.978028,-0.03982 13.298765,-2.856167 17.914062,-7.40039 z" /><path
     style="baseline-shift:baseline;display:inline;overflow:visible;vector-effect:none;fill:#ffffff;stroke-dasharray:2.73, 3.073;enable-background:accumulate;stop-color:#000000"
     d="m 82.377687,28.601989 -0.345466,0.607928 c 0.784355,0.44328 1.552026,0.917479 2.301411,1.418533 l 0.389761,-0.58308 C 83.9599,29.534873 83.177774,29.054119 82.377695,28.601993 Z m -2.75784,-1.41926 c -0.83344,-0.386779 -1.679703,-0.742528 -2.539412,-1.066083 l -0.247211,0.656321 c 0.843637,0.317506 1.675767,0.665287 2.493212,1.044649 z m 7.607591,4.690434 -0.435339,0.548559 c 0.705684,0.560302 1.390063,1.149066 2.050734,1.761636 l 0.476554,-0.514242 C 88.645519,33.044309 87.947032,32.44451 87.227438,31.873163 Z M 74.135035,25.147552 c -0.883774,-0.25187 -1.778342,-0.470726 -2.678822,-0.653854 l -0.139395,0.687683 c 0.882914,0.179558 1.759708,0.393054 2.626141,0.639981 z m 17.369885,10.721591 -0.515652,0.472158 c 0.60862,0.66431 1.192231,1.352845 1.747875,2.062033 l 0.54964,-0.432941 C 92.720025,37.247022 92.125686,36.546707 91.50492,35.869143 Z M 68.395421,24.001811 C 67.483007,23.89256 66.565207,23.818099 65.647114,23.779256 l -0.02885,0.69819 c 0.900176,0.03808 1.799683,0.112 2.694257,0.219109 z m 26.704155,16.485793 -0.584914,0.384042 c 0.496266,0.752132 0.96467,1.523698 1.401972,2.311411 l 0.611672,-0.339921 C 96.08227,42.03969 95.605592,41.254514 95.099576,40.487604 Z M 62.546586,23.773423 c -0.918183,0.03548 -1.834258,0.104962 -2.747041,0.210361 l 0.07968,0.696356 c 0.895109,-0.103348 1.795825,-0.172704 2.696188,-0.207534 z m 35.37499,21.839796 -0.636313,0.288031 c 0.372455,0.820544 0.714834,1.65603 1.023866,2.502422 l 0.656799,-0.240713 c -0.31515,-0.863135 -0.664595,-1.713105 -1.044352,-2.54974 z M 56.737053,24.465079 c -0.901428,0.178352 -1.796483,0.390595 -2.681626,0.636707 l 0.188282,0.674411 c 0.868251,-0.241415 1.744779,-0.451231 2.628653,-0.626107 z m 43.174448,26.651289 -0.675162,0.185615 c 0.240206,0.868436 0.448803,1.746855 0.622494,2.631112 l 0.685007,-0.135313 c -0.17708,-0.901527 -0.38738,-1.795794 -0.632339,-2.681414 z M 51.104472,26.050971 c -0.862755,0.316514 -1.712975,0.666293 -2.548994,1.047015 l 0.289738,0.637264 c 0.820239,-0.373531 1.655839,-0.716226 2.501669,-1.026526 z m 49.915348,30.810802 -0.69635,0.07968 c 0.10195,0.895172 0.16948,1.795425 0.2032,2.695985 l 0.69993,-0.02619 c -0.0345,-0.918065 -0.10269,-1.836435 -0.2067,-2.74949 z M 45.788595,28.497528 c -0.80274,0.447416 -1.587865,0.927177 -2.354034,1.434045 l 0.384999,0.583208 c 0.75166,-0.497267 1.522011,-0.96697 2.30896,-1.405587 z m 55.426065,34.213104 -0.69893,-0.03151 c -0.0395,0.900056 -0.11342,1.800462 -0.22177,2.695002 l 0.69474,0.0829 c 0.11044,-0.912156 0.18566,-1.828299 0.22596,-2.746396 z M 40.920757,31.746277 c -0.722428,0.568001 -1.422152,1.163838 -2.098802,1.785482 l 0.473861,0.516607 c 0.663556,-0.609613 1.348689,-1.1939 2.056925,-1.750748 z M 100.48979,68.51836 99.804772,68.378215 c -0.180875,0.88259 -0.396691,1.757273 -0.645087,2.623269 l 0.672857,0.193788 c 0.253368,-0.883349 0.472768,-1.776677 0.657248,-2.676912 z M 36.626084,35.721858 c -0.62379,0.674798 -1.220816,1.374079 -1.790843,2.094821 l 0.548563,0.435332 c 0.558903,-0.706675 1.14592,-1.393733 1.757479,-2.055301 z M 98.85833,74.137804 98.203718,73.891553 c -0.317956,0.842974 -0.669551,1.672822 -1.049758,2.490337 l 0.635617,0.296101 c 0.38727,-0.832701 0.744399,-1.680245 1.068739,-2.540161 z M 33.009899,40.324338 c -0.508622,0.764485 -0.990656,1.545888 -1.441676,2.34666 l 0.61056,0.344765 c 0.442143,-0.784987 0.913944,-1.553535 1.413421,-2.304275 z m 62.865669,38.55626 c -0.441504,0.786423 -0.910471,1.556354 -1.408304,2.307145 l 0.582355,0.387074 c 0.507885,-0.766056 0.98637,-1.551607 1.435794,-2.352149 z M 30.790663,45.726071 30.155047,45.42997 c -0.385968,0.834015 -0.739925,1.68374 -1.061928,2.543981 l 0.65557,0.244554 c 0.316004,-0.844207 0.663582,-1.674795 1.041987,-2.492461 z M 92.683999,83.65631 c -0.556628,0.708468 -1.140439,1.393606 -1.749717,2.057419 l 0.515204,0.474855 c 0.621326,-0.676949 1.217253,-1.377752 1.784978,-2.100348 z M 28.80218,51.111664 28.127415,50.921287 c -0.250159,0.884212 -0.464932,1.777608 -0.646835,2.678287 l 0.685985,0.138436 c 0.178374,-0.883234 0.390328,-1.759363 0.635615,-2.626346 z m 59.985877,36.759552 c -0.662328,0.611343 -1.348545,1.198877 -2.054682,1.758725 l 0.435602,0.548887 c 0.720019,-0.570855 1.417143,-1.170581 2.092193,-1.79366 z M 27.687803,56.743463 26.992105,56.662273 c -0.107847,0.912667 -0.179685,1.828774 -0.217242,2.746817 l 0.69819,0.02884 c 0.03684,-0.900346 0.109022,-1.799798 0.21475,-2.694465 z m 56.584614,34.674838 c -0.750136,0.499487 -1.519606,0.972331 -2.305011,1.414521 l 0.343536,0.609219 c 0.800504,-0.45069 1.5861,-0.931112 2.350835,-1.440321 z m -56.79984,-28.9373 -0.699179,0.02886 c 0.03688,0.918253 0.108146,1.834758 0.214722,2.747252 l 0.697314,-0.08138 c -0.104549,-0.89512 -0.176699,-1.794483 -0.212853,-2.694688 z m 51.784738,31.733953 c -0.81949,0.375672 -1.652933,0.721813 -2.497723,1.035459 l 0.243372,0.656044 c 0.861405,-0.319805 1.710114,-0.673194 2.54504,-1.055938 z M 28.159744,68.182753 27.473777,68.319767 c 0.179791,0.901244 0.394908,1.795451 0.642021,2.680132 l 0.67271,-0.189234 C 28.546015,69.942528 28.336,69.066285 28.159744,68.182753 Z m 45.706978,28.00911 c -0.868068,0.243468 -1.744898,0.455271 -2.628115,0.633128 l 0.13701,0.685968 c 0.900934,-0.18143 1.795122,-0.39667 2.67938,-0.644675 z M 29.72635,73.705994 29.070303,73.949361 c 0.318047,0.862221 0.669056,1.711092 1.050626,2.546537 l 0.637266,-0.289731 C 30.383682,75.386158 30.038144,74.551271 29.72635,73.705994 Z m 38.505727,23.600338 c -0.895178,0.105613 -1.793829,0.177825 -2.693945,0.215505 l 0.02886,0.69918 c 0.918235,-0.03848 1.836196,-0.113163 2.748412,-0.220788 z M 32.136715,78.918705 31.525789,79.261288 c 0.44895,0.801865 0.927366,1.586835 1.435004,2.352332 l 0.584167,-0.386703 c -0.498192,-0.751256 -0.968091,-1.522059 -1.408245,-2.308212 z m 30.35814,18.607024 c -0.900532,-0.03572 -1.800773,-0.104537 -2.695628,-0.208681 l -0.08024,0.693995 c 0.912883,0.106242 1.829806,0.179125 2.747768,0.215534 z M 35.332364,83.68958 34.781769,84.124227 c 0.569373,0.721309 1.166687,1.420535 1.789094,2.096343 l 0.514901,-0.474814 c -0.610506,-0.662893 -1.195153,-1.34896 -1.7534,-2.056176 z m 21.461203,13.15307 c -0.883558,-0.177334 -1.760603,-0.388738 -2.628256,-0.632214 l -0.188671,0.675719 c 0.884635,0.248246 1.779358,0.462628 2.680193,0.643425 z m -17.554884,-8.946518 -0.47485,0.515199 c 0.675826,0.622644 1.376702,1.219577 2.098428,1.788396 l 0.431935,-0.550473 c -0.707603,-0.557685 -1.392906,-1.14265 -2.055513,-1.753122 z m 12.033289,7.37217 c -0.8447,-0.314075 -1.677156,-0.659634 -2.495332,-1.036876 l -0.293407,0.634882 c 0.834547,0.384751 1.684786,0.738347 2.545891,1.058526 z m -7.513781,-3.831628 -0.387095,0.582331 c 0.765267,0.508245 1.549517,0.989063 2.350268,1.439223 l 0.344762,-0.610559 c -0.785714,-0.441713 -1.557058,-0.912355 -2.307891,-1.41097 z"
     id="path38" /><path
     id="path30"
     style="display:inline;fill:url(#linearGradient32);fill-opacity:1;stroke:url(#linearGradient35);stroke-width:0.5;stroke-dasharray:none;stroke-dashoffset:0;enable-background:new"
     d="M 103.39258,51.59375 A 40.5,40.5 0 0 0 84.513672,26.078125 L 64.503906,60.630859 Z" /><circle
     style="fill:url(#radialGradient41);stroke:none;stroke-width:0.777777;stroke-dasharray:3.03333, 3.41445;stroke-dashoffset:0;stroke-opacity:1"
     id="path39"
     cx="-64"
     cy="-61"
     r="2.5"
     transform="scale(-1)" /><circle
     style="opacity:1;fill:url(#radialGradient42);stroke:none;stroke-width:0.544444;stroke-dasharray:2.12333, 2.39012;stroke-dashoffset:0;stroke-opacity:1"
     id="circle42"
     cx="-25.25"
     cy="-24.75"
     r="1.75"
     transform="scale(-1)" /><circle
     style="opacity:1;fill:url(#radialGradient43);stroke:none;stroke-width:0.544444;stroke-dasharray:2.12333, 2.39012;stroke-dashoffset:0;stroke-opacity:1"
     id="circle43"
     cx="-102.75"
     cy="-24.75"
     r="1.75"
     transform="scale(-1)" /><circle
     style="opacity:1;fill:url(#radialGradient44);stroke:none;stroke-width:0.544444;stroke-dasharray:2.12333, 2.39012;stroke-dashoffset:0;stroke-opacity:1"
     id="circle44"
     cx="-102.75"
     cy="-99.25"
     r="1.75"
     transform="scale(-1)" /><circle
     style="opacity:1;fill:url(#radialGradient45);stroke:none;stroke-width:0.544444;stroke-dasharray:2.12333, 2.39012;stroke-dashoffset:0;stroke-opacity:1"
     id="circle45"
     cx="-25.25"
     cy="-99.25"
     r="1.75"
     transform="scale(-1)" /><path
     style="baseline-shift:baseline;display:inline;overflow:visible;vector-effect:none;fill:url(#linearGradient47);stroke-width:1.02175;marker:none;enable-background:new;stop-color:#000000"
     d="M 22.217421,16 C 18.775216,16 16,18.776099 16,22.22118 v 79.55764 C 16,105.2239 18.775216,108 22.217421,108 H 105.78258 C 109.22478,108 112,105.2239 112,101.77882 V 22.22118 C 112,18.776099 109.22478,16 105.78258,16 Z m 0,0.203646 h 83.565159 c 3.33282,0 6.01396,2.681951 6.01396,6.017534 v 79.55764 c 0,3.33558 -2.68114,6.01753 -6.01396,6.01753 H 22.217421 c -3.332829,0 -6.013963,-2.68195 -6.013963,-6.01753 V 22.22118 c 0,-3.335583 2.681134,-6.017534 6.013963,-6.017534 z"
     id="path46" /></svg>
