<?xml version="1.0" encoding="UTF-8" standalone="no"?>
<svg
   width="128"
   height="128"
   version="1"
   id="svg566"
   xmlns:xlink="http://www.w3.org/1999/xlink"
   xmlns="http://www.w3.org/2000/svg"
   xmlns:svg="http://www.w3.org/2000/svg">
  <defs
     id="defs570">
    <linearGradient
       id="linearGradient873">
      <stop
         style="stop-color:#0b5124;stop-opacity:1;"
         offset="0"
         id="stop869" />
      <stop
         style="stop-color:#43e57d;stop-opacity:1;"
         offset="0.4086079"
         id="stop877" />
      <stop
         style="stop-color:#0b5124;stop-opacity:1;"
         offset="0.80541694"
         id="stop881" />
      <stop
         style="stop-color:#2ce26d;stop-opacity:1;"
         offset="1"
         id="stop883" />
    </linearGradient>
    <linearGradient
       xlink:href="#linearGradient873"
       id="linearGradient875"
       x1="9.9999964"
       y1="66.000001"
       x2="118"
       y2="66.000001"
       gradientUnits="userSpaceOnUse"
       gradientTransform="matrix(1.1111111,0,0,1.0925926,-7.1111091,-6.111112)" />
  </defs>
  <path
     fill="#1ed760"
     d="m 124,66.000004 v 0 C 124,33.339289 97.214282,7.000003 63.999994,7.000003 v 0 c -33.214283,0 -59.999996,26.339286 -59.999996,59.000001 v 0 C 3.999998,98.66072 30.785711,125 63.999993,125 v 0 C 97.214282,125 124,98.66072 124,66.000004 Z"
     id="path550-3"
     style="fill:url(#linearGradient875);fill-opacity:1;stroke-width:2.12492" />
  <path
     fill="#1ed760"
     d="m 124,62.000001 v 0 C 124,29.339287 97.214282,3.0000009 63.999998,3.0000009 v 0 c -33.214286,0 -59.9999995,26.3392861 -59.9999995,59.0000001 v 0 C 3.9999985,94.660713 30.785712,121 63.999998,121 v 0 C 97.214282,121 124,94.660713 124,62.000001 Z"
     id="path550"
     style="stroke-width:2.12492" />
  <path
     style="fill:none;stroke:#191515;stroke-width:10.6247;stroke-linecap:round;stroke-opacity:1"
     d="m 28.642855,44.089287 c 16.071427,-6.321429 50.357142,-6.321429 72.857135,6.321428"
     id="path556" />
  <path
     style="fill:none;stroke:#191515;stroke-width:8.4997;stroke-linecap:round;stroke-opacity:1"
     d="M 31.857139,62.000001 C 46.85714,57.785715 81.142853,59.892858 93.999996,68.321428"
     id="path560" />
  <path
     style="fill:none;stroke:#191515;stroke-width:8.4997;stroke-linecap:round;stroke-opacity:1"
     d="m 33.999998,80.964286 c 12.857143,-3.160715 38.571428,-3.160715 53.571426,4.214285"
     id="path564" />
</svg>
