<?xml version="1.0" encoding="UTF-8" standalone="no"?>
<!-- Created with Inkscape (http://www.inkscape.org/) -->

<svg
   width="128"
   height="128"
   viewBox="0 0 128 128"
   version="1.1"
   id="svg1"
   inkscape:version="1.4.2 (ebf0e940d0, 2025-05-08)"
   sodipodi:docname="stardew-valley.svg"
   xmlns:inkscape="http://www.inkscape.org/namespaces/inkscape"
   xmlns:sodipodi="http://sodipodi.sourceforge.net/DTD/sodipodi-0.dtd"
   xmlns:xlink="http://www.w3.org/1999/xlink"
   xmlns="http://www.w3.org/2000/svg"
   xmlns:svg="http://www.w3.org/2000/svg">
  <sodipodi:namedview
     id="namedview1"
     pagecolor="#ffffff"
     bordercolor="#000000"
     borderopacity="0.25"
     inkscape:showpageshadow="2"
     inkscape:pageopacity="0.0"
     inkscape:pagecheckerboard="0"
     inkscape:deskcolor="#d1d1d1"
     inkscape:document-units="px"
     inkscape:zoom="6.2265625"
     inkscape:cx="64"
     inkscape:cy="64"
     inkscape:window-width="1920"
     inkscape:window-height="1011"
     inkscape:window-x="0"
     inkscape:window-y="0"
     inkscape:window-maximized="1"
     inkscape:current-layer="svg1" />
  <defs
     id="defs1">
    <linearGradient
       id="linearGradient1"
       inkscape:collect="always">
      <stop
         style="stop-color:#136eb3;stop-opacity:1;"
         offset="0"
         id="stop1" />
      <stop
         style="stop-color:#13a5dc;stop-opacity:1;"
         offset="0.04320312"
         id="stop9" />
      <stop
         style="stop-color:#136eb3;stop-opacity:1;"
         offset="0.08"
         id="stop10" />
      <stop
         style="stop-color:#136eb3;stop-opacity:1;"
         offset="0.92000002"
         id="stop11" />
      <stop
         style="stop-color:#13a5dc;stop-opacity:1;"
         offset="0.95999998"
         id="stop12" />
      <stop
         style="stop-color:#136eb3;stop-opacity:1;"
         offset="1"
         id="stop8" />
    </linearGradient>
    <linearGradient
       inkscape:collect="always"
       xlink:href="#linearGradient1"
       id="linearGradient3"
       x1="5.4604769"
       y1="55.008781"
       x2="109.46048"
       y2="55.008781"
       gradientUnits="userSpaceOnUse"
       gradientTransform="translate(6.5395231,18.991217)" />
    <linearGradient
       inkscape:collect="always"
       xlink:href="#linearGradient7115"
       id="linearGradient9"
       x1="64"
       y1="12"
       x2="64"
       y2="112"
       gradientUnits="userSpaceOnUse" />
    <radialGradient
       inkscape:collect="always"
       xlink:href="#linearGradient113843"
       id="radialGradient113845"
       cx="-11.406412"
       cy="1.633051"
       fx="-11.406412"
       fy="1.633051"
       r="0.46302083"
       gradientUnits="userSpaceOnUse"
       gradientTransform="matrix(6.4771726,-4.7054516e-7,-2.4317311e-6,6.4792647,102.61757,16.354075)" />
    <linearGradient
       inkscape:collect="always"
       id="linearGradient113843">
      <stop
         style="stop-color:#f9fafb;stop-opacity:1;"
         offset="0"
         id="stop113839" />
      <stop
         style="stop-color:#f9fafb;stop-opacity:0;"
         offset="1"
         id="stop113841" />
    </linearGradient>
    <radialGradient
       inkscape:collect="always"
       xlink:href="#linearGradient113843"
       id="radialGradient113845-2"
       cx="-11.406412"
       cy="1.633051"
       fx="-11.406412"
       fy="1.633051"
       r="0.46302083"
       gradientUnits="userSpaceOnUse"
       gradientTransform="matrix(6.4771726,-4.7054516e-7,-2.4317311e-6,6.4792647,178.44839,44.904393)" />
    <linearGradient
       inkscape:collect="always"
       id="linearGradient7115">
      <stop
         style="stop-color:#160c4c;stop-opacity:1;"
         offset="0"
         id="stop7111" />
      <stop
         style="stop-color:#02519e;stop-opacity:1;"
         offset="0.40000001"
         id="stop8765" />
      <stop
         style="stop-color:#0578e3;stop-opacity:1;"
         offset="0.75"
         id="stop8767" />
      <stop
         style="stop-color:#55d0ee;stop-opacity:1;"
         offset="1"
         id="stop7113" />
    </linearGradient>
  </defs>
  <rect
     style="fill:url(#linearGradient3)"
     id="rect1"
     width="104"
     height="84"
     x="12"
     y="32"
     ry="8" />
  <rect
     style="fill:url(#linearGradient9)"
     id="rect2"
     width="104"
     height="100"
     x="12"
     y="12"
     ry="8" />
  <path
     id="rect103835"
     style="fill:#f9fafb;fill-opacity:1;stroke-width:5.10258;stroke-linecap:round;stroke-linejoin:round"
     d="M 92.453125 29.298828 L 92.453125 30.048828 L 93.203125 30.048828 L 93.203125 29.298828 L 92.453125 29.298828 z M 36.451172 41 L 36.451172 41.75 L 37.201172 41.75 L 37.201172 41 L 36.451172 41 z " />
  <path
     id="rect110957"
     style="opacity:0.3;fill:#f9fafb;fill-opacity:1;stroke-width:13.5001;stroke-linecap:round;stroke-linejoin:round"
     d="M 101.55078 38.150391 L 101.55078 38.900391 L 102.30078 38.900391 L 102.30078 38.150391 L 101.55078 38.150391 z M 90.050781 47 L 90.050781 47.75 L 90.800781 47.75 L 90.800781 47 L 90.050781 47 z M 33.951172 92 L 33.951172 92.75 L 34.701172 92.75 L 34.701172 92 L 33.951172 92 z M 63.400391 95 L 63.400391 95.75 L 64.150391 95.75 L 64.150391 95 L 63.400391 95 z " />
  <g
     id="g113500"
     transform="matrix(5.6693592,0,0,5.6693592,94.709103,18.299464)">
    <rect
       style="opacity:0.3;fill:#f9fafb;fill-opacity:1;stroke-width:2.38125;stroke-linecap:round;stroke-linejoin:round"
       id="rect113653"
       width="0.39687499"
       height="0.39687499"
       x="-11.842221"
       y="1.3229166" />
    <path
       id="rect111635"
       style="opacity:0.2;fill:#f9fafb;fill-opacity:1;stroke-width:2.38125;stroke-linecap:round;stroke-linejoin:round"
       d="m -11.710051,1.0583333 v 0.396875 h -0.396875 v 0.1322916 h 0.396875 v 0.396875 h 0.132291 v -0.396875 h 0.396875 V 1.4552083 h -0.396875 v -0.396875 z" />
    <path
       id="rect112153"
       style="opacity:0.2;fill:#f9fafb;fill-opacity:1;stroke-width:14.2303;stroke-linecap:round;stroke-linejoin:round"
       d="m -44.257812,4.5 v 1 h -1 V 6 h 1 v 1 h 0.5 V 6 h 1 V 5.5 h -1 v -1 z"
       transform="scale(0.26458334)" />
    <rect
       style="opacity:1;fill:#f9fafb;fill-opacity:1;stroke-width:2.38125;stroke-linecap:round;stroke-linejoin:round"
       id="rect111777"
       width="0.13229167"
       height="0.13229167"
       x="-11.710051"
       y="1.4552083" />
    <path
       id="rect112031"
       style="opacity:0.3;fill:#f9fafb;stroke-width:2.38125;stroke-linecap:round;stroke-linejoin:round"
       d="m -11.710051,1.3229166 h 0.132293 l -2e-6,0.1322917 h 0.132414 V 1.5875 l -0.132414,-10e-8 v 0.1322918 h -0.132293 l 2e-6,-0.1322918 -0.13217,10e-8 V 1.4552083 h 0.13217 z"
       sodipodi:nodetypes="ccccccccccccc" />
  </g>
  <g
     id="g113383"
     transform="matrix(5.6693592,0,0,5.6693592,102.00148,19.999899)">
    <path
       id="rect112153-7"
       style="opacity:0.2;fill:#f9fafb;fill-opacity:1;stroke-width:3.7651;stroke-linecap:round;stroke-linejoin:round"
       d="m -14.022745,10.212917 v 0.264584 h -0.264584 v 0.132291 h 0.264584 v 0.264584 h 0.132291 v -0.264584 h 0.264584 v -0.132291 h -0.264584 v -0.264584 z" />
    <rect
       style="fill:#f9fafb;fill-opacity:1;stroke-width:2.38125;stroke-linecap:round;stroke-linejoin:round"
       id="rect111777-9"
       width="0.13229167"
       height="0.13229167"
       x="-14.022917"
       y="10.4775" />
    <path
       id="rect112031-2"
       style="opacity:0.3;fill:#f9fafb;stroke-width:2.38125;stroke-linecap:round;stroke-linejoin:round"
       d="m -14.022917,10.345209 h 0.132293 l -2e-6,0.132292 h 0.132414 v 0.132291 h -0.132414 v 0.132292 h -0.132293 l 2e-6,-0.132292 h -0.13217 v -0.132291 h 0.13217 z"
       sodipodi:nodetypes="ccccccccccccc" />
  </g>
  <g
     id="g113378"
     transform="matrix(5.6693592,0,0,5.6693592,106.00053,20.029929)">
    <rect
       style="opacity:0.3;fill:#f9fafb;fill-opacity:1;stroke-width:2.38125;stroke-linecap:round;stroke-linejoin:round"
       id="rect113273"
       width="0.397046"
       height="0.39687502"
       x="-3.2278254"
       y="13.488453" />
    <path
       id="rect111635-0"
       style="opacity:0.2;fill:#f9fafb;fill-opacity:1;stroke-width:2.38125;stroke-linecap:round;stroke-linejoin:round"
       d="m -3.0954579,13.22387 v 0.396875 h -0.396875 v 0.132291 h 0.396875 v 0.396875 h 0.132291 v -0.396875 h 0.396875 v -0.132291 h -0.396875 V 13.22387 Z" />
    <path
       id="rect112153-2"
       style="opacity:0.2;fill:#f9fafb;fill-opacity:1;stroke-width:3.7651;stroke-linecap:round;stroke-linejoin:round"
       d="m -3.0952869,13.356161 v 0.264584 h -0.264583 v 0.132291 h 0.264583 v 0.264584 h 0.132292 v -0.264584 h 0.264583 v -0.132291 h -0.264583 v -0.264584 z" />
    <rect
       style="fill:#f9fafb;fill-opacity:1;stroke-width:2.38125;stroke-linecap:round;stroke-linejoin:round"
       id="rect111777-3"
       width="0.13229167"
       height="0.13229167"
       x="-3.0954573"
       y="13.620745" />
    <path
       id="rect112031-7"
       style="opacity:0.3;fill:#f9fafb;stroke-width:2.38125;stroke-linecap:round;stroke-linejoin:round"
       d="m -3.0954579,13.488453 h 0.132293 l -2e-6,0.132292 h 0.132414 v 0.132291 h -0.132414 v 0.132292 h -0.132293 l 2e-6,-0.132292 h -0.13217 v -0.132291 h 0.13217 z"
       sodipodi:nodetypes="ccccccccccccc" />
  </g>
  <rect
     style="opacity:0.3;fill:url(#radialGradient113845);fill-opacity:1;stroke-width:17.3573;stroke-linecap:round;stroke-linejoin:round"
     id="rect113757"
     width="6.7500815"
     height="6.7500815"
     x="25.320555"
     y="23.549965" />
  <rect
     style="opacity:0.3;fill:url(#radialGradient113845-2);fill-opacity:1;stroke-width:17.3573;stroke-linecap:round;stroke-linejoin:round"
     id="rect113757-1"
     width="6.7500815"
     height="6.7500815"
     x="101.15137"
     y="52.100285" />
  <g
     id="g113494"
     transform="matrix(5.6693592,0,0,5.6693592,110.15024,19.849897)">
    <path
       id="rect112153-9"
       style="opacity:0.2;fill:#f9fafb;fill-opacity:1;stroke-width:3.7651;stroke-linecap:round;stroke-linejoin:round"
       d="m -1.0581144,5.9531251 v 0.2645834 h -0.2645834 v 0.1322916 h 0.2645834 v 0.2645834 h 0.13229163 V 6.3500001 h 0.26458334 V 6.2177085 H -0.92582277 V 5.9531251 Z" />
    <rect
       style="fill:#f9fafb;fill-opacity:1;stroke-width:2.38125;stroke-linecap:round;stroke-linejoin:round"
       id="rect111777-2"
       width="0.13229167"
       height="0.13229167"
       x="-1.0582852"
       y="6.2177086" />
    <path
       id="rect112031-28"
       style="opacity:0.3;fill:#f9fafb;stroke-width:2.38125;stroke-linecap:round;stroke-linejoin:round"
       d="m -1.0582857,6.0854167 h 0.13229298 l -2e-6,0.1322917 h 0.132414 v 0.1322917 l -0.132414,-1e-7 V 6.4822918 H -1.0582877 l 2e-6,-0.1322918 -0.13217,1e-7 V 6.2177084 h 0.13217 z"
       sodipodi:nodetypes="ccccccccccccc" />
  </g>
  <g
     id="g5275"
     transform="matrix(2.0000001,0,0,2.0000001,16,14)">
    <path
       id="rect1106"
       style="fill:#cd0000;fill-opacity:1;stroke-width:3.99999;stroke-linecap:round;stroke-linejoin:round"
       d="m 17.999998,12.000001 2,-2.000001 h 6 v 2 l -4,2 h -4 z"
       sodipodi:nodetypes="ccccccc" />
    <path
       id="rect2738"
       style="fill:#e2a052;fill-opacity:1;stroke-width:3.99999;stroke-linecap:round;stroke-linejoin:round"
       d="m 15.999998,14.000001 -3,3 v 2.999997 h 4 v -3.999997 h 1 v -2 z m 4,0 v 2 h 3 v 3.999997 h 4 v -2.999997 l -3,-3 z m 10,4 v 1.999997 h 2 v -1.999997 z m 0,1.999997 h -2 v 2.000001 h 2 z m -2,2.000001 h -2 v 2.000002 h 2 z m -2,2.000002 h -4 v 1.999998 l 2,2.000001 h 2 z m -8,-4.000002 V 22 h 2 v -2.000001 z m 16,0 V 22 h 4 V 19.999999 Z M 15.978514,22 v 2.000001 h -3.978516 l -3,3 V 31 l 2,2.000001 3,-1.000002 v -1.999997 h 2 V 28 h -2 v -2.000001 h 2 v -1.999998 h 1.978516 v -2.000002 z m 0.02148,8.000002 v 1.999997 h 2 l 1,-0.999999 1,0.999999 h 2 v -1.999997 l -2,-2.000002 h -2 z m 0,1.999997 h -2 V 34 h 2 z m 0,2.000001 v 2.000001 h 2 V 34 Z m 16,-9.999999 -2,1.999998 V 28 l 2,2.000002 h 2 V 28 l -1,-0.999999 1,-1.000002 v -1.999998 z m 4,0 V 28 h 2 v -3.999999 z m -4,7.999998 V 34 h 2 v -2.000001 z m 0,2.000001 h -4 v 2.000001 h 4 z m -12,0 v 2.000001 h 2 V 34 Z m 4,0 v 2.000001 h 2 V 34 Z"
       sodipodi:nodetypes="ccccccccccccccccccccccccccccccccccccccccccccccccccccccccccccccccccccccccccccccccccccccccccccccccccccccccccccccccccccccc" />
    <path
       id="rect2265"
       style="fill:#ffde00;fill-opacity:1;stroke-width:3.99999;stroke-linecap:round;stroke-linejoin:round"
       d="m 11.999998,19.999998 v 2.000001 h 6 v -2.000001 z m 2,18 v 2.000001 h 4 v -2.000001 z m 10,0 v 2.000001 h 4 v -2.000001 z" />
    <path
       d="m 17.999998,37.999998 v 2.000001 h 2 v -2.000001 z m 4,0 v 2.000001 h 2 v -2.000001 z"
       style="fill:#e9922c;fill-opacity:1;stroke-width:3.99999;stroke-linecap:round;stroke-linejoin:round"
       id="path4304" />
    <path
       id="rect632"
       style="fill:#703404;fill-opacity:1;stroke-width:3.99999;stroke-linecap:round;stroke-linejoin:round"
       d="m 19.999998,8 v 2 h 6 v 2 h 2 V 8 Z m 6,4 h -4 v 2 h 2 v 2 h 2 z m 0,4 v 5.999999 h 2 v -2.000001 h 2 V 18 h -2 v -2 z m 4,2 h 8 v -2 h -8 z m 8,0 v 3.999999 h 2 V 18 Z m 0,3.999999 h -2 V 24 h 2 z m 0,2.000001 v 3.999999 h 2 V 24 Z m 0,3.999999 h -2 v 3.999999 h 2 z m -2,3.999999 h -2 v 4.000003 h 2 z m -2,4.000003 h -4 v 1.999997 h 4 z m -4,1.999997 h -2 v 2.000001 h 2 z m -2,0 v -1.999997 h -4 v 1.999997 z M 23.999998,16 h -2 v 5.999999 h 2 z m -4,-6 h -2 v 2 h 2 z m -2,2 h -2 v 2 h 2 z m -2,2 h -2 v 2 h 2 z m 0,2 v 3.999998 h 2 V 16 Z m -2,0 h -2 v 3.999998 h 2 z m -2,3.999998 H 9.9999977 v 2.000001 h 2.0000003 z m 0,2.000001 V 24 h 2 v -2.000001 z m 0,2.000001 H 9.9999977 v 1.999998 H 11.999998 Z M 9.9999977,25.999998 H 8 v 6 h 1.9999977 z m 0,6 V 34 H 11.999998 V 31.999998 Z M 11.999998,34 v 2.000001 h 2 V 34 Z m 2,2.000001 v 1.999998 h 4 v -1.999998 z m 0,1.999998 h -2 V 40 h 2 z m 12,-12 V 28 h 2 v -2.000001 z m 2,2.000001 v 2.000002 h 4 V 28 Z m 4,0 h 2 v -2.000001 h -2 z m -12,9.999999 V 40 h 2 v -2.000001 z" />
    <path
       id="rect3409"
       style="fill:#9f4b00;fill-opacity:1;stroke-width:3.99999;stroke-linecap:round;stroke-linejoin:round"
       d="m 13.999998,21.999999 v 2.000002 h 2 v -2.000002 z m 20,8.000003 v 1.999997 h 2 v -1.999997 z m -22,1.999997 V 34 h 2 v -2.000001 z m 2,2.000001 v 2.000001 h 2 V 34 Z m 18,0 v 2.000001 h 2 V 34 Z m -14,2.000001 v 1.999998 h 6 v -1.999998 z m 10,0 v 1.999998 h 2 v -1.999998 z" />
    <path
       id="rect4039"
       style="fill:#ffe2ac;fill-opacity:1;stroke-width:3.99999;stroke-linecap:round;stroke-linejoin:round"
       d="m 17.999998,14.000001 v 5.999997 h 2 v 2.000001 h -2.021484 v 2.000002 h -1.978516 v 1.999998 h -2 V 28 h 2 v 2.000002 h 2 V 28 h 2 v 2.000002 h 2 v 1.999997 h -2 v -1.999997 h -2 v 1.999997 h -2 V 34 h 2 v 2.000001 h 2 V 34 h 2 v 2.000001 h 2 V 34 h 2 v 2.000001 h 2 V 34 h 4 v -2.000001 h 2 v -1.999997 h -6 V 28 h -4 v -2.000001 h -2 v -1.999998 h 4 v -2.000002 -2.000001 h -2 v 2.000001 h -2 v -5.999998 h -2 v -2 z m 8,9.999999 v 1.999998 h 2 v 2.000001 h 2 v -2.000001 h 2 V 24 h 2 v 6.000001 h 2 V 24 21.999999 19.999998 h 2 V 18 h -6 v 1.999998 h -2 v 2.000001 h -2 V 24 Z m -10,7.999998 v -1.999997 h -2 v 1.999997 z" />
  </g>
</svg>
