<?xml version="1.0" encoding="UTF-8" standalone="no"?>
<svg
   viewBox="0 0 128 128"
   style="display:inline;enable-background:new"
   version="1.0"
   id="svg11300"
   height="128"
   width="128"
   xml:space="preserve"
   xmlns:xlink="http://www.w3.org/1999/xlink"
   xmlns="http://www.w3.org/2000/svg"
   xmlns:svg="http://www.w3.org/2000/svg"
   xmlns:rdf="http://www.w3.org/1999/02/22-rdf-syntax-ns#"
   xmlns:cc="http://creativecommons.org/ns#"
   xmlns:dc="http://purl.org/dc/elements/1.1/"><title
     id="title4162">Adwaita Icon Template</title><defs
     id="defs3"><radialGradient
       xlink:href="#linearGradient113843"
       id="radialGradient113845-2"
       cx="-11.406412"
       cy="1.633051"
       fx="-11.406412"
       fy="1.633051"
       r="0.46302083"
       gradientUnits="userSpaceOnUse"
       gradientTransform="matrix(6.4771726,-4.7054516e-7,-2.4317311e-6,6.4792647,52.673539,42.17625)" /><linearGradient
       id="linearGradient113843"><stop
         style="stop-color:#f9fafb;stop-opacity:1;"
         offset="0"
         id="stop113839" /><stop
         style="stop-color:#f9fafb;stop-opacity:0;"
         offset="1"
         id="stop113841" /></linearGradient><radialGradient
       xlink:href="#linearGradient113843"
       id="radialGradient113845"
       cx="-11.406412"
       cy="1.633051"
       fx="-11.406412"
       fy="1.633051"
       r="0.46302083"
       gradientUnits="userSpaceOnUse"
       gradientTransform="matrix(6.4771726,-4.7054516e-7,-2.4317311e-6,6.4792647,-23.157281,13.625932)" /><linearGradient
       xlink:href="#linearGradient7115"
       id="linearGradient9"
       x1="64"
       y1="12"
       x2="64"
       y2="112"
       gradientUnits="userSpaceOnUse"
       gradientTransform="translate(0)" /><linearGradient
       id="linearGradient7115"><stop
         style="stop-color:#160c4c;stop-opacity:1;"
         offset="0"
         id="stop7111" /><stop
         style="stop-color:#02519e;stop-opacity:1;"
         offset="0.40000001"
         id="stop8765" /><stop
         style="stop-color:#0578e3;stop-opacity:1;"
         offset="0.75"
         id="stop8767" /><stop
         style="stop-color:#55d0ee;stop-opacity:1;"
         offset="1"
         id="stop7113" /></linearGradient><linearGradient
       xlink:href="#linearGradient1"
       id="linearGradient3"
       x1="5.4604769"
       y1="55.008781"
       x2="109.46048"
       y2="55.008781"
       gradientUnits="userSpaceOnUse"
       gradientTransform="translate(6.53952,18.991219)" /><linearGradient
       id="linearGradient1"><stop
         style="stop-color:#136eb3;stop-opacity:1;"
         offset="0"
         id="stop3" /><stop
         style="stop-color:#13a5dc;stop-opacity:1;"
         offset="0.04320312"
         id="stop9" /><stop
         style="stop-color:#136eb3;stop-opacity:1;"
         offset="0.08"
         id="stop10" /><stop
         style="stop-color:#136eb3;stop-opacity:1;"
         offset="0.92000002"
         id="stop11" /><stop
         style="stop-color:#13a5dc;stop-opacity:1;"
         offset="0.95999998"
         id="stop12" /><stop
         style="stop-color:#136eb3;stop-opacity:1;"
         offset="1"
         id="stop8" /></linearGradient></defs><metadata
     id="metadata4"><rdf:RDF><cc:Work
         rdf:about=""><dc:format>image/svg+xml</dc:format><dc:type
           rdf:resource="http://purl.org/dc/dcmitype/StillImage" /><dc:creator><cc:Agent><dc:title>GNOME Design Team</dc:title></cc:Agent></dc:creator><dc:source /><cc:license
           rdf:resource="http://creativecommons.org/licenses/by-sa/4.0/" /><dc:title>Adwaita Icon Template</dc:title><dc:subject><rdf:Bag /></dc:subject><dc:date /><dc:rights><cc:Agent><dc:title /></cc:Agent></dc:rights><dc:publisher><cc:Agent><dc:title /></cc:Agent></dc:publisher><dc:identifier /><dc:relation /><dc:language /><dc:coverage /><dc:description /><dc:contributor><cc:Agent><dc:title /></cc:Agent></dc:contributor></cc:Work><cc:License
         rdf:about="http://creativecommons.org/licenses/by-sa/4.0/"><cc:permits
           rdf:resource="http://creativecommons.org/ns#Reproduction" /><cc:permits
           rdf:resource="http://creativecommons.org/ns#Distribution" /><cc:requires
           rdf:resource="http://creativecommons.org/ns#Notice" /><cc:requires
           rdf:resource="http://creativecommons.org/ns#Attribution" /><cc:permits
           rdf:resource="http://creativecommons.org/ns#DerivativeWorks" /><cc:requires
           rdf:resource="http://creativecommons.org/ns#ShareAlike" /></cc:License></rdf:RDF></metadata><path
     id="rect1"
     style="fill:url(#linearGradient3)"
     d="m 20,31.999999 h 88 c 4.432,0 8,3.568 8,8 v 67.999991 c 0,4.432 -3.568,8 -8,8 H 20 c -4.432,0 -8,-3.568 -8,-8 V 39.999999 c 0,-4.432 3.568,-8 8,-8 z" /><path
     id="rect2"
     style="fill:url(#linearGradient9)"
     d="m 20,12 h 88 c 4.432,0 8,3.568 8,8 v 84 c 0,4.432 -3.568,8 -8,8 H 20 c -4.432,0 -8,-3.568 -8,-8 V 20 c 0,-4.432 3.568,-8 8,-8 z" /><path
     id="rect110957"
     style="opacity:0.3;fill:#f9fafb;fill-opacity:1;stroke-width:13.5001;stroke-linecap:round;stroke-linejoin:round"
     d="m 101.55078,38.150393 v 0.75 h 0.75 v -0.75 z m -11.500001,8.849609 v 0.75 h 0.75 v -0.75 z m -56.09961,45 v 0.75 h 0.75 v -0.75 z m 29.44922,3 v 0.75 h 0.75 v -0.75 z" /><g
     id="g238"><path
       id="rect103835"
       style="fill:#f9fafb;fill-opacity:1;stroke-width:5.10258;stroke-linecap:round;stroke-linejoin:round"
       d="m 92.453129,25.29883 v 0.75 h 0.75 v -0.75 z m -56.00196,11.701172 v 0.75 h 0.75 v -0.75 z" /><g
       id="g236"
       transform="translate(121.77485,4.7281446)"><path
         id="rect112153-7"
         style="opacity:0.2;fill:#f9fafb;fill-opacity:1;stroke-width:21.3457;stroke-linecap:round;stroke-linejoin:round"
         d="m -103.27335,75.172451 v 1.500022 h -1.50002 v 0.750005 h 1.50002 V 78.9225 h 0.75001 v -1.500022 h 1.50002 v -0.750005 h -1.50002 v -1.500022 z" /><path
         id="rect111777-9"
         style="fill:#f9fafb;stroke-width:13.5002;stroke-linecap:round;stroke-linejoin:round"
         d="m -103.27432,76.67247 h 0.75001 v 0.750009 h -0.75001 z" /><path
         id="rect112031-2"
         style="opacity:0.3;fill:#f9fafb;stroke-width:13.5002;stroke-linecap:round;stroke-linejoin:round"
         d="m -103.27432,75.922462 h 0.75001 l -1e-5,0.750011 h 0.7507 v 0.750005 h -0.7507 v 0.750011 h -0.75002 l 2e-5,-0.750011 h -0.74932 v -0.750005 h 0.74932 z" /></g><g
       id="g233"
       transform="translate(131.31808,7.1424559)"><path
         id="rect113273"
         style="opacity:0.3;fill:#f9fafb;stroke-width:13.5002;stroke-linecap:round;stroke-linejoin:round"
         d="m -38.074024,93.772667 h 2.250996 v 2.250027 h -2.250996 z" /><path
         id="rect111635-0"
         style="opacity:0.2;fill:#f9fafb;fill-opacity:1;stroke-width:13.5002;stroke-linecap:round;stroke-linejoin:round"
         d="m -37.323584,92.272655 v 2.250027 h -2.250027 v 0.750005 h 2.250027 v 2.250027 h 0.750005 v -2.250027 h 2.250027 v -0.750005 h -2.250027 v -2.250027 z" /><path
         id="rect112153-2"
         style="opacity:0.2;fill:#f9fafb;fill-opacity:1;stroke-width:21.3457;stroke-linecap:round;stroke-linejoin:round"
         d="m -37.322614,93.02266 v 1.500022 h -1.500016 v 0.750005 h 1.500016 v 1.500022 h 0.750011 v -1.500022 h 1.500016 v -0.750005 h -1.500016 V 93.02266 Z" /><path
         id="rect111777-3"
         style="fill:#f9fafb;stroke-width:13.5002;stroke-linecap:round;stroke-linejoin:round"
         d="m -37.323582,94.522682 h 0.750009 v 0.750009 h -0.750009 z" /><path
         id="rect112031-7"
         style="opacity:0.3;fill:#f9fafb;stroke-width:13.5002;stroke-linecap:round;stroke-linejoin:round"
         d="m -37.323584,93.772671 h 0.750017 l -1.2e-5,0.750011 h 0.750703 v 0.750005 h -0.750703 v 0.750011 h -0.750016 l 1.1e-5,-0.750011 h -0.749319 v -0.750005 h 0.749319 z" /></g><g
       id="g234"
       transform="translate(125.77485,2.7281446)"><path
         id="rect113653"
         style="opacity:0.3;fill:#f9fafb;stroke-width:13.5002;stroke-linecap:round;stroke-linejoin:round"
         d="m -98.20356,23.071411 h 2.250027 v 2.250027 h -2.250027 z" /><path
         id="rect111635"
         style="opacity:0.2;fill:#f9fafb;fill-opacity:1;stroke-width:13.5002;stroke-linecap:round;stroke-linejoin:round"
         d="m -97.454236,21.571393 v 2.250027 h -2.250027 v 0.750008 h 2.250027 v 2.250027 h 0.750005 v -2.250027 h 2.250027 V 23.82142 h -2.250027 v -2.250027 z" /><path
         id="rect112153"
         style="opacity:0.2;fill:#f9fafb;fill-opacity:1;stroke-width:21.3457;stroke-linecap:round;stroke-linejoin:round"
         d="m -97.453266,22.321402 v 1.500018 h -1.500018 v 0.750009 h 1.500018 v 1.500018 h 0.750009 v -1.500018 h 1.500018 V 23.82142 h -1.500018 v -1.500018 z" /><path
         id="rect111777"
         style="fill:#f9fafb;stroke-width:13.5002;stroke-linecap:round;stroke-linejoin:round"
         d="m -97.454231,23.821419 h 0.750009 v 0.750009 h -0.750009 z" /><path
         id="rect112031"
         style="opacity:0.3;fill:#f9fafb;stroke-width:13.5002;stroke-linecap:round;stroke-linejoin:round"
         d="m -97.454236,23.07141 h 0.750016 l -1.1e-5,0.75001 h 0.750702 v 0.750009 l -0.750702,-10e-7 v 0.75001 h -0.750017 l 1.2e-5,-0.75001 -0.74932,10e-7 V 23.82142 h 0.74932 z" /><path
         id="rect113757"
         style="opacity:0.3;fill:url(#radialGradient113845);stroke-width:17.3573;stroke-linecap:round;stroke-linejoin:round"
         d="m -100.45429,20.821819 h 6.750079 v 6.750082 h -6.750079 z" /></g><g
       id="g237"
       transform="translate(130.57759,0.2536616)"><path
         id="rect113757-1"
         style="opacity:0.3;fill:url(#radialGradient113845-2);stroke-width:17.3573;stroke-linecap:round;stroke-linejoin:round"
         d="m -24.623484,49.372143 h 6.750082 v 6.750081 h -6.750082 z" /><g
         id="g235"><path
           id="rect112153-9"
           style="opacity:0.2;fill:#f9fafb;fill-opacity:1;stroke-width:21.3457;stroke-linecap:round;stroke-linejoin:round"
           d="m -21.623442,50.872159 v 1.500018 h -1.500018 v 0.750008 h 1.500018 v 1.500019 h 0.750009 v -1.500019 h 1.500018 v -0.750008 h -1.500018 v -1.500018 z" /><path
           id="rect111777-2"
           style="fill:#f9fafb;stroke-width:13.5002;stroke-linecap:round;stroke-linejoin:round"
           d="m -21.624411,52.372177 h 0.750009 v 0.750009 h -0.750009 z" /><path
           id="rect112031-28"
           style="opacity:0.3;fill:#f9fafb;stroke-width:13.5002;stroke-linecap:round;stroke-linejoin:round"
           d="m -21.624413,51.622167 h 0.750017 l -1.2e-5,0.750009 h 0.750703 v 0.750009 h -0.750703 v 0.75001 h -0.750016 l 1.1e-5,-0.75001 h -0.749319 v -0.750009 h 0.749319 z" /></g></g></g><g
     id="g232"
     transform="matrix(0.93749999,0,0,0.93749999,121.91392,6.3477488)"><path
       id="rect60"
       style="fill:#fee1af;fill-opacity:1;stroke-width:0.3;stroke-linecap:round;stroke-linejoin:round"
       d="m -76.775391,29.271484 v 5 h -5 v 5 5 5 h 5 v 5 h -5 v 5 h -5 v 5 h -5 v 5 h 5 v 5 h -5 v 5 h 5 v 5 h 5 v 5 h 5 5 5 5 5 5 5 5 v -5 h 5 v -5 h 5 v -5 -5 h 5 v -5 -5 -5 -5 -5 h -5 -5 -5 -5 v 5 h -5 -5 v -5 h -5 v -5 h -5 v -5 h -5 v -5 z" /><path
       id="rect3"
       style="fill:#6a3610;fill-opacity:1;stroke-width:0.292788;stroke-linecap:round;stroke-linejoin:round"
       d="m -71.774849,19.271856 v 5 h 15 v 4.999998 h 5 v -4.999998 -5 z m 15,9.999998 h -5 -5 v 5 h 5 v 5 h 5 v -5 z m 0,10 v 5 5 5 h 5 v -5 h 5 v -5 h -5 v -5 z m 10,5 h 5 5 5 5 v -5 h -5 -5 -5 -5 z m 20,0 v 5 5 h 5 v -5 -5 z m 0,10 h -5 v 5 h 5 z m 0,5 v 5 5 h 5 v -5 -5 z m 0,10 h -5 v 5 5 h 5 v -5 z m -5,10 h -5 v 5 5 h 5 v -5 z m -5,10 h -5 -5 v 5 h 5 5 z m -10,5 h -5 v 5 h 5 z m -5,0 v -5 h -5 -5 v 5 h 5 z m -10,-55 h -5 v 5 5 5 h 5 v -5 -5 z m -10,-14.999998 h -5 v 4.999998 h 5 z m -5,4.999998 h -5 v 5 h 5 z m -5,5 h -5 v 5 h 5 z m 0,5 v 5 5 h 5 v -5 -5 z m -5,0 h -5 v 5 5 h 5 v -5 z m -5,10 h -5 v 5 h 5 z m 0,5 v 5 h 5 v -5 z m 0,5 h -5 v 5 h 5 z m -5,5 h -5.000001 v 5 5 5 h 5.000001 v -5 -5 z m 0,15 v 5 h 5 v -5 z m 5,5 v 5 h 5 v -5 z m 5,5 v 5 h 5 5 v -5 h -5 z m 0,5 h -5 v 5 h 5 z m 30,-30 v 5 h 5 v -5 z m 5,5 v 5 h 5 5 v -5 h -5 z m 10,0 h 5 v -5 h -5 z m -30,25 v 5 h 5 v -5 z" /><path
       id="rect61"
       style="fill:#c22223;fill-opacity:1;stroke-width:0.3;stroke-linecap:round;stroke-linejoin:round"
       d="m -61.774849,24.271856 v 4.999998 h 5 v -4.999998 z m -15,4.999998 v 5 h 5 v -5 z" /><path
       id="rect62"
       style="fill:#fe4e23;fill-opacity:1;stroke-width:0.3;stroke-linecap:round;stroke-linejoin:round"
       d="m -71.774849,24.271856 v 4.999998 5 h 5 v -5 h 5 v -4.999998 h -5 z" /><path
       id="rect64"
       style="fill:#ffd920;fill-opacity:1;stroke-width:0.3;stroke-linecap:round;stroke-linejoin:round"
       d="m -91.774849,49.271854 v 5 h 5 5 5 v -5 h -5 -5 z m 5,45 v 5 h 5 5 v -5 h -5 z m 25,0 v 5 h 5 5 v -5 h -5 z" /><path
       id="rect70"
       style="fill:#994f16;fill-opacity:1;stroke-width:0.3;stroke-linecap:round;stroke-linejoin:round"
       d="m -86.774849,54.271854 v 5 h 5 v -5 z m 50,20 v 5 h 5 v -5 z m -55,5 v 5 h 5 v -5 z m 5,5 v 5 h 5 v -5 z m 45,0 v 5 h 5 v -5 z m -35,5 v 5 h 5 5 5 v -5 h -5 -5 z m 25,0 v 5 h 5 v -5 z" /><path
       id="rect78"
       style="fill:#dda059;fill-opacity:1;stroke-width:0.3;stroke-linecap:round;stroke-linejoin:round"
       d="m -81.774849,34.271854 v 5 h 5 v -5 z m 0,5 h -5 v 5 5 h 5 v -5 z m 10,-5 v 5 h 5 5 v -5 h -5 z m 10,5 v 5 5 h 5 v -5 -5 z m 15,5 v 5 h 5 v -5 z m 0,5 h -5 v 5 h 5 z m -5,5 h -5 v 5 h 5 z m -5,5 h -5 -5 v 5 h 5 v 5 h 5 v -5 z m 0,10 v 5 h 5 v -5 z m -20,-20 v 5 h 5 v -5 z m 0,5 h -5 v 5 h 5 z m -5,5 h -5 -5 v 5 h -5 v 5 5 5 h 5 5 v -5 h 5 v -5 h -5 v -5 h 5 z m 0,15 v 5 h 5 v -5 z m 5,0 h 5 v -5 h -5 z m 5,0 v 5 h 5 v -5 z m -10,5 h -5 v 5 h 5 z m 0,5 v 5 h 5 v -5 z m 45,-35 v 5 h 5 5 v -5 h -5 z m -5,10 v 5 h 5 v -5 z m 0,5 h -5 v 5 h 5 z m 0,5 v 5 h 5 v -5 z m 10,-10 v 5 5 h 5 v -5 -5 z m -10,20 v 5 h 5 v -5 z m 0,5 h -5 -5 v 5 h 5 5 z m -30,0 v 5 h 5 v -5 z m 10,0 v 5 h 5 v -5 z" /><path
       id="rect121"
       style="fill:#e2943a;fill-opacity:1;stroke-width:0.3;stroke-linecap:round;stroke-linejoin:round"
       d="m -76.774849,94.271854 v 5 h 5 v -5 z m 10,0 v 5 h 5 v -5 z" /></g></svg>
