<?xml version="1.0" encoding="UTF-8" standalone="no"?>
<svg
   height="128"
   viewBox="0 0 128 128"
   width="128"
   version="1.1"
   id="svg21"
   xml:space="preserve"
   xmlns:xlink="http://www.w3.org/1999/xlink"
   xmlns="http://www.w3.org/2000/svg"
   xmlns:svg="http://www.w3.org/2000/svg"><defs
     id="defs25"><linearGradient
       id="linearGradient4"><stop
         style="stop-color:#ffffff;stop-opacity:1;"
         offset="0.00443058"
         id="stop5" /><stop
         style="stop-color:#ffffff;stop-opacity:0;"
         offset="1"
         id="stop6" /></linearGradient><linearGradient
       id="linearGradient1"><stop
         style="stop-color:#0d1b33;stop-opacity:1;"
         offset="0"
         id="stop1" /><stop
         style="stop-color:#176fa0;stop-opacity:1;"
         offset="1"
         id="stop3" /></linearGradient><linearGradient
       xlink:href="#linearGradient1"
       id="linearGradient3"
       x1="64"
       y1="31.160488"
       x2="64"
       y2="122"
       gradientUnits="userSpaceOnUse" /><linearGradient
       xlink:href="#linearGradient4"
       id="linearGradient6"
       x1="64"
       y1="102.16949"
       x2="64"
       y2="-8.9724579"
       gradientUnits="userSpaceOnUse" /><linearGradient
       xlink:href="#linearGradient1"
       id="linearGradient9"
       x1="63.999996"
       y1="54.895298"
       x2="63.999996"
       y2="73.034615"
       gradientUnits="userSpaceOnUse" /></defs><linearGradient
     id="a"
     gradientUnits="userSpaceOnUse"
     x1="10.000004"
     x2="118"
     y1="66"
     y2="66"
     gradientTransform="matrix(1.1111111,0,0,1.0925926,-7.1111109,-6.1111114)"><stop
       offset="0"
       stop-color="#429aea"
       id="stop2"
       style="stop-color:#0a3147;stop-opacity:1;" /><stop
       offset="0.40958059"
       stop-color="#75aadb"
       id="stop4"
       style="stop-color:#3ba6e3;stop-opacity:1;" /><stop
       offset="0.81051815"
       stop-color="#429aea"
       id="stop8"
       style="stop-color:#0a3147;stop-opacity:1;" /><stop
       offset="1"
       stop-color="#75aadb"
       id="stop10"
       style="stop-color:#249ce0;stop-opacity:1;" /></linearGradient><path
     d="M 124,66.000003 C 124,98.585723 97.138019,125 64,125 30.861979,125 4.0000004,98.585723 4.0000004,66.000003 4.0000004,33.414279 30.861979,6.9999996 64,6.9999996 c 33.138019,0 60,26.4142794 60,59.0000034 z m 0,0"
     fill="url(#a)"
     id="path15"
     style="fill:url(#a);stroke-width:1.10181" /><path
     d="M 124,62 C 124,94.585721 97.138021,121 64,121 30.861979,121 4.0000008,94.585721 4.0000008,62 4.0000008,29.414279 30.861979,2.9999994 64,2.9999994 97.138021,2.9999994 124,29.414279 124,62 Z m 0,0"
     fill="#75aadb"
     id="path17"
     style="stroke-width:1.10181;fill:url(#linearGradient3)" /><path
     d="M 104.16949,62 C 104.16949,83.815865 86.185625,101.5 64,101.5 41.814376,101.5 23.830509,83.815865 23.830509,62 23.830509,40.184136 41.814376,22.5 64,22.5 c 22.185625,0 40.16949,17.684136 40.16949,39.5 z m 0,0"
     fill="#75aadb"
     id="path4"
     style="fill:url(#linearGradient6);fill-opacity:1;stroke-width:0.737652" /><path
     d="M 46.609151,77.520844 35.52581,46.479154 h 5.958338 l 5.60417,16.312512 q 0.750001,2.375002 1.687502,5.437504 0.9375,3.041669 2.125001,6.916672 h -1.583334 q 1.145834,-3.875003 2.062501,-6.916672 0.916668,-3.062502 1.645835,-5.437504 l 5.416671,-16.312512 h 5.895837 l -10.875008,31.04169 z m 22.073349,0 v -31.04169 h 12.104176 q 3.416669,0 5.895838,1.208334 2.500002,1.208334 3.854169,3.437503 1.354168,2.229168 1.354168,5.270837 0,3.020835 -1.437501,5.22917 -1.416668,2.208335 -4.000003,3.41667 -2.562502,1.1875 -6.020838,1.1875 h -8.500006 v -4.54167 h 8.583339 q 1.833335,0 3.166669,-0.645833 1.333335,-0.645834 2.062502,-1.833335 0.729167,-1.187501 0.729167,-2.812502 0,-1.625001 -0.729167,-2.791669 -0.729167,-1.166668 -2.062502,-1.812501 -1.333334,-0.645834 -3.208335,-0.645834 h -6.291672 v 26.37502 z m 17.72918,0 -7.229172,-14.000011 h 5.916671 l 7.375006,14.000011 z"
     id="text6"
     style="font-weight:600;font-size:42.6667px;line-height:1;font-family:'Adwaita Sans';-inkscape-font-specification:'Adwaita Sans Semi-Bold';text-align:center;letter-spacing:1.49px;text-anchor:middle;fill:url(#linearGradient9);stroke-width:0.5;stroke-linecap:round;stroke-linejoin:round"
     aria-label="VR" /></svg>
