<?xml version="1.0" encoding="UTF-8" standalone="no"?>
<svg
   width="128"
   height="128"
   version="1"
   id="svg566"
   xmlns:xlink="http://www.w3.org/1999/xlink"
   xmlns="http://www.w3.org/2000/svg"
   xmlns:svg="http://www.w3.org/2000/svg">
  <defs
     id="defs570">
    <linearGradient
       id="linearGradient1365"
       x2="50%"
       x1="50%"
       y2="100%"
       y1="0%">
      <stop
         stop-color="#111d2e"
         offset="0"
         id="stop1351"
         style="stop-color:#0a101a;stop-opacity:1;" />
      <stop
         stop-color="#051839"
         offset="0.212"
         id="stop1353"
         style="stop-color:#030e21;stop-opacity:1;" />
      <stop
         stop-color="#0a1b48"
         offset="0.40700001"
         id="stop1355"
         style="stop-color:#071231;stop-opacity:1;" />
      <stop
         stop-color="#132e62"
         offset="0.58099997"
         id="stop1357"
         style="stop-color:#0b1a38;stop-opacity:1;" />
      <stop
         stop-color="#144b7e"
         offset="0.73799998"
         id="stop1359"
         style="stop-color:#0d3254;stop-opacity:1;" />
      <stop
         stop-color="#136497"
         offset="0.87300003"
         id="stop1361"
         style="stop-color:#0d4568;stop-opacity:1;" />
      <stop
         stop-color="#1387b8"
         offset="1"
         id="stop1363"
         style="stop-color:#0e668b;stop-opacity:1;" />
    </linearGradient>
    <linearGradient
       id="A"
       x2="50%"
       x1="50%"
       y2="100%"
       y1="0%">
      <stop
         stop-color="#111d2e"
         offset="0%"
         id="stop435" />
      <stop
         stop-color="#051839"
         offset="21.2%"
         id="stop437" />
      <stop
         stop-color="#0a1b48"
         offset="40.7%"
         id="stop439" />
      <stop
         stop-color="#132e62"
         offset="58.1%"
         id="stop441" />
      <stop
         stop-color="#144b7e"
         offset="73.8%"
         id="stop443" />
      <stop
         stop-color="#136497"
         offset="87.3%"
         id="stop445" />
      <stop
         stop-color="#1387b8"
         offset="100%"
         id="stop447" />
    </linearGradient>
    <linearGradient
       xlink:href="#A"
       id="linearGradient698"
       x1="32.01076"
       y1="0"
       x2="32.01076"
       y2="63.965491"
       gradientTransform="matrix(1.8754651,0,0,1.8447447,3.9824141,3.0000004)"
       gradientUnits="userSpaceOnUse" />
    <linearGradient
       xlink:href="#linearGradient1365"
       id="linearGradient1523"
       x1="-736.94873"
       y1="3.2184236"
       x2="-736.94873"
       y2="110.89648"
       gradientUnits="userSpaceOnUse"
       gradientTransform="matrix(1.111111,0,0,1.0925926,882.63454,3.2895466)" />
    <linearGradient
       xlink:href="#linearGradient17"
       id="linearGradient5"
       x1="-104.64275"
       y1="176.5119"
       x2="3.3572464"
       y2="176.5119"
       gradientUnits="userSpaceOnUse"
       gradientTransform="matrix(1.1111111,0,0,1.0925926,120.26972,-126.85559)" />
    <linearGradient
       id="linearGradient17"
       gradientUnits="userSpaceOnUse"
       x1="0"
       y1="269.46301"
       x2="118.926"
       y2="269.46301"
       gradientTransform="matrix(1,0,0,0.98333333,-118,-175.03333)">
      <stop
         offset="0"
         stop-color="#e5a50a"
         id="stop14"
         style="stop-color:#000000;stop-opacity:1;" />
      <stop
         offset="0.414"
         stop-color="#fbdf9b"
         id="stop15"
         style="stop-color:#ffffff;stop-opacity:1;" />
      <stop
         offset="0.81300002"
         stop-color="#e5a50a"
         id="stop16"
         style="stop-color:#000000;stop-opacity:1;" />
      <stop
         offset="1"
         stop-color="#f8ca5b"
         id="stop17"
         style="stop-color:#b2b2b2;stop-opacity:1;" />
    </linearGradient>
  </defs>
  <ellipse
     style="fill:url(#linearGradient1523);fill-opacity:1;stroke-width:0.250145;stroke-linecap:round;stroke-linejoin:round;stroke-miterlimit:1.5;paint-order:stroke fill markers"
     id="path1515"
     cx="64"
     cy="66"
     rx="60"
     ry="59" />
  <path
     id="circle2-6"
     style="opacity:0.5;fill:url(#linearGradient5);stroke-width:0.343027"
     d="M 124,66 A 59.999999,58.999999 0 0 1 64.000005,125 59.999999,58.999999 0 0 1 3.999995,66 59.999999,58.999999 0 0 1 64.000005,7 59.999999,58.999999 0 0 1 124,66 Z" />
  <path
     d="m 60.833658,51.592713 0.0056,0.291318 -14.686411,20.972654 c -2.378345,-0.106965 -4.764178,0.304221 -7.029978,1.220557 -0.986333,0.394022 -1.928033,0.888376 -2.809733,1.475 L 4.0611252,62.485588 c 0,0 -0.5520333,12.074328 2.5578111,21.068136 L 6.5062141,79.184249 29.225014,92.796838 c 1.125389,5.029751 4.651633,9.440002 9.8322,11.560322 8.4866,3.46626 18.225633,-0.47925 21.763266,-8.816822 0.906389,-2.13286 1.343611,-4.430047 1.282956,-6.74075 l 20.994255,-14.759221 0.515811,0.0087 c 12.576289,0 22.798638,-10.077932 22.798638,-22.456876 0,-12.378932 -10.203605,-22.420002 -22.798638,-22.445809 -12.570677,0 -22.798644,10.066877 -22.798644,22.445809 z m -3.526244,42.498443 c -2.7272,6.453124 -10.252345,9.489784 -16.792767,6.810804 -2.902367,-1.199029 -5.2549,-3.405236 -6.609822,-6.198679 l 7.421978,3.02375 c 4.822111,1.97307 10.3582,-0.271891 12.362466,-5.013164 2.009389,-4.74313 -0.269589,-10.189748 -5.092411,-12.170586 l -7.690211,-3.125164 c 2.9598,-1.10625 6.324733,-1.143125 9.472089,0.141971 3.188611,1.296154 5.626966,3.737279 6.932433,6.85875 1.305456,3.121472 1.297956,6.56375 -0.01878,9.672318 M 83.634147,66.554742 C 75.243902,66.532453 68.452269,59.84394 68.445058,51.596406 c 0.0089,-8.246102 6.8003,-14.932323 15.189089,-14.954656 8.390255,0.02032 15.183566,6.707123 15.192844,14.954656 -0.0067,8.248976 -6.801133,14.938025 -15.192844,14.958336 M 72.252658,51.572435 c -0.0056,-6.197699 5.099044,-11.227482 11.404,-11.237654 6.292844,0 11.4115,5.033432 11.4115,11.237654 0.0033,6.199141 -5.105089,11.227864 -11.4115,11.233971 -6.304222,-0.0087 -11.408989,-5.036994 -11.405878,-11.233971 z"
     id="path692-9"
     style="fill:#cccccc;fill-opacity:1;stroke-width:1.85963" />
  <path
     d="M 6.431203,78.966189 C 13.850803,103.27419 36.798236,121 63.952736,121 97.115713,121 124,94.584593 124,61.999996 124,29.415407 97.115713,3.0000004 63.952736,3.0000004 c -31.821311,0 -57.8611664,24.3245946 -59.9177886,55.0801886 3.8918222,6.410722 5.4023778,10.376625 2.3925111,20.886 z"
     fill="url(#A)"
     id="path690"
     style="fill:url(#linearGradient698);stroke-width:1.86004" />
  <path
     d="m 60.833658,47.222343 0.0056,0.291318 -14.686411,20.972653 c -2.378345,-0.106964 -4.764178,0.304222 -7.029978,1.220557 -0.986333,0.394022 -1.928033,0.888377 -2.809733,1.475 L 4.0611252,58.115218 c 0,0 -0.6717,12.08827 2.4381444,21.082077 l 22.7257114,9.229173 c 1.125388,5.02975 4.651633,9.44 9.832199,11.560318 8.4866,3.466264 18.225634,-0.479244 21.763267,-8.816818 0.906389,-2.132861 1.343611,-4.430048 1.282955,-6.74075 l 20.994256,-14.759222 0.515811,0.0087 c 12.576289,0 22.798631,-10.077932 22.798631,-22.456875 0,-12.378935 -10.203598,-22.419998 -22.798631,-22.445812 -12.570678,0 -22.798644,10.066877 -22.798644,22.445812 z m -3.526244,42.498443 c -2.7272,6.453125 -10.252345,9.489779 -16.792767,6.810807 -2.902367,-1.199033 -5.2549,-3.40524 -6.609822,-6.198682 l 7.421978,3.02375 c 4.822111,1.973069 10.3582,-0.271892 12.362466,-5.013164 2.009389,-4.743131 -0.269589,-10.189748 -5.092411,-12.170586 l -7.690211,-3.125165 c 2.9598,-1.10625 6.324733,-1.143125 9.472089,0.141972 3.188611,1.296153 5.626966,3.737279 6.932433,6.85875 1.305456,3.121472 1.297956,6.56375 -0.01878,9.672318 M 83.634147,62.184371 c -8.390245,-0.02229 -15.181878,-6.710802 -15.189089,-14.958335 0.0089,-8.246103 6.8003,-14.932323 15.189089,-14.95466 8.390255,0.02031 15.183566,6.707122 15.192844,14.95466 -0.0067,8.248976 -6.801133,14.938024 -15.192844,14.958335 M 72.252658,47.202064 c -0.0056,-6.197698 5.099044,-11.227478 11.404,-11.237657 6.292844,0 11.4115,5.033436 11.4115,11.237657 0.0033,6.199141 -5.105089,11.227864 -11.4115,11.233972 -6.304222,-0.0087 -11.408989,-5.036994 -11.405878,-11.233972 z"
     id="path692"
     style="fill:#ffffff;stroke-width:1.85963" />
</svg>
