<?xml version="1.0" encoding="UTF-8" standalone="no"?>
<svg
   viewBox="0 0 128 128"
   style="display:inline;enable-background:new"
   version="1.0"
   id="svg11300"
   height="128"
   width="128"
   xml:space="preserve"
   xmlns="http://www.w3.org/2000/svg"
   xmlns:svg="http://www.w3.org/2000/svg"
   xmlns:rdf="http://www.w3.org/1999/02/22-rdf-syntax-ns#"
   xmlns:cc="http://creativecommons.org/ns#"
   xmlns:dc="http://purl.org/dc/elements/1.1/"><title
     id="title4162">Adwaita Icon Template</title><defs
     id="defs3"><linearGradient
       id="a"
       gradientUnits="userSpaceOnUse"
       x1="16"
       x2="112"
       y1="238"
       y2="238"
       gradientTransform="translate(0,-173)"><stop
         offset="0"
         stop-color="#9a9996"
         id="stop2"
         style="stop-color:#1d814a;stop-opacity:1;" /><stop
         offset="0.40622094"
         stop-color="#9a9996"
         id="stop5"
         style="stop-color:#72dfa3;stop-opacity:1;" /><stop
         offset="0.80841935"
         stop-color="#9a9996"
         id="stop6"
         style="stop-color:#1d814a;stop-opacity:1;" /><stop
         offset="1"
         stop-color="#77767b"
         id="stop4"
         style="stop-color:#5dda95;stop-opacity:1;" /></linearGradient></defs><metadata
     id="metadata4"><rdf:RDF><cc:Work
         rdf:about=""><dc:format>image/svg+xml</dc:format><dc:type
           rdf:resource="http://purl.org/dc/dcmitype/StillImage" /><dc:creator><cc:Agent><dc:title>GNOME Design Team</dc:title></cc:Agent></dc:creator><dc:source /><cc:license
           rdf:resource="http://creativecommons.org/licenses/by-sa/4.0/" /><dc:title>Adwaita Icon Template</dc:title><dc:subject><rdf:Bag /></dc:subject><dc:date /><dc:rights><cc:Agent><dc:title /></cc:Agent></dc:rights><dc:publisher><cc:Agent><dc:title /></cc:Agent></dc:publisher><dc:identifier /><dc:relation /><dc:language /><dc:coverage /><dc:description /><dc:contributor><cc:Agent><dc:title /></cc:Agent></dc:contributor></cc:Work><cc:License
         rdf:about="http://creativecommons.org/licenses/by-sa/4.0/"><cc:permits
           rdf:resource="http://creativecommons.org/ns#Reproduction" /><cc:permits
           rdf:resource="http://creativecommons.org/ns#Distribution" /><cc:requires
           rdf:resource="http://creativecommons.org/ns#Notice" /><cc:requires
           rdf:resource="http://creativecommons.org/ns#Attribution" /><cc:permits
           rdf:resource="http://creativecommons.org/ns#DerivativeWorks" /><cc:requires
           rdf:resource="http://creativecommons.org/ns#ShareAlike" /></cc:License></rdf:RDF></metadata><path
     style="fill:url(#a)"
     d="m 64,17 c -26.367684,0 -48,21.632314 -48,48 0,26.367686 21.632316,48 48,48 26.367684,0 48,-21.632318 48,-48 C 112,38.632318 90.367684,17 64,17 Z m 0,24 C 77.397936,41 88,51.602062 88,65 88,78.397938 77.397936,89 64,89 50.602064,89 40,78.397934 40,65 40,51.602066 50.602064,41 64,41 Z"
     id="path67" /><g
     id="path17"
     style="fill:#1d814a;fill-opacity:1"><path
       style="fill:#1d814a;stroke-linecap:round;stroke-linejoin:round;fill-opacity:1"
       d="m 67,121 h -6 l -2,-16 h 10 z m 0,0"
       id="path50" /><path
       style="fill:#1d814a;fill-opacity:1;stroke-linecap:round;stroke-linejoin:round"
       d="m 59,101 c -2.405702,4.9e-4 -4.266841,2.10893 -3.96875,4.49609 l 0.849609,4.79688 0.0015,2.01229 1.148853,9.19083 C 57.281593,123.4976 58.982896,124.99964 61,125 h 6 c 2.017104,-3.6e-4 3.718407,-1.5024 3.96875,-3.50391 l 1.148575,-9.1886 0.0018,-2.01452 0.849609,-4.79688 C 73.266841,103.10893 71.405702,101.00049 69,101 Z m 4.53125,8 h 0.9375 L 64,112.75195 Z"
       id="path51" /></g><path
     d="m 61,9 h 6 l 2,16 H 59 Z m 0,0"
     fill="#9a9996"
     stroke="#9a9996"
     stroke-linecap="round"
     stroke-linejoin="round"
     id="path19"
     style="stroke-width:8" /><g
     id="path21"
     style="fill:#1d814a;fill-opacity:1"><path
       style="fill:#1d814a;stroke-linecap:round;stroke-linejoin:round;fill-opacity:1"
       d="m 8,68 v -6 l 16,-2 v 10 z m 0,0"
       id="path44" /><path
       style="fill:#1d814a;stroke-linecap:round;stroke-linejoin:round;fill-opacity:1"
       d="m 23.503906,56.03125 -15.9999998,2 A 4.0004,4.0004 0 0 0 4,62 v 6 a 4.0004,4.0004 0 0 0 3.5039062,3.96875 l 15.9999998,2 A 4.0004,4.0004 0 0 0 28,70 V 60 A 4.0004,4.0004 0 0 0 23.503906,56.03125 Z M 20,64.53125 v 0.9375 L 16.248047,65 Z"
       id="path45" /></g><g
     id="path23"
     style="fill:#1d814a;fill-opacity:1"><path
       style="fill:#1d814a;stroke-linecap:round;stroke-linejoin:round;fill-opacity:1"
       d="m 120,62 v 6 l -16,2 V 60 Z m 0,0"
       id="path56" /><path
       style="fill:#1d814a;fill-opacity:1;stroke-linecap:round;stroke-linejoin:round"
       d="M 104.49609,56.03125 C 102.10893,55.733159 100.00049,57.594298 100,60 v 10 c 4.9e-4,2.405702 2.10893,4.266841 4.49609,3.96875 l 6.79688,-2.849609 0.0173,1.997839 9.18584,-1.14823 C 122.4976,71.718407 123.99964,70.017104 124,68 v -6 c -3.6e-4,-2.017104 -1.5024,-3.718407 -3.50391,-3.96875 z M 108,64.53125 111.75195,65 108,65.46875 Z"
       id="path57" /></g><g
     id="path25"
     style="fill:#1d814a;fill-opacity:1"><path
       style="fill:#1d814a;stroke-linecap:round;stroke-linejoin:round;fill-opacity:1"
       d="m 14.0039,39.597413 3,-5.195309 14.85546,6.265628 -4.99999,8.660155 z m 0,0"
       id="path42" /><path
       style="fill:#1d814a;stroke-linecap:round;stroke-linejoin:round;fill-opacity:1"
       d="m 15.730469,30.609375 a 4.0004,4.0004 0 0 0 -2.191406,1.792969 l -3,5.195312 a 4.0004,4.0004 0 0 0 1.050781,5.189453 l 12.855468,9.730469 a 4.0004,4.0004 0 0 0 5.878907,-1.189453 l 5,-8.660156 A 4.0004,4.0004 0 0 0 33.414062,36.982422 L 18.558594,30.716797 a 4.0004,4.0004 0 0 0 -2.828125,-0.107422 z m 6.916015,10.513672 3.482422,1.46875 -0.46875,0.8125 z"
       id="path43" /></g><g
     id="path27"
     style="fill:#1d814a;fill-opacity:1"><path
       style="fill:#1d814a;stroke-linecap:round;stroke-linejoin:round;fill-opacity:1"
       d="m 113.99608,90.402122 -3,5.19531 -14.855469,-6.265633 4.999909,-8.664102 z m 0,0"
       id="path54" /><path
       style="fill:#1d814a;fill-opacity:1;stroke-linecap:round;stroke-linejoin:round"
       d="m 100.34766,76.748047 c -1.124762,0.227156 -2.097826,0.926367 -2.671879,1.919922 l -5,8.664062 c -1.202694,2.083976 -0.306839,4.750474 1.910156,5.685547 l 6.263673,0.642578 -0.003,1.997868 8.59511,3.625179 c 1.85883,0.784277 4.01077,0.06166 5.01953,-1.685547 l 3,-5.195312 c 1.00837,-1.747314 0.55789,-3.972047 -1.05078,-5.189453 l -12.85547,-9.734375 c -0.91484,-0.692029 -2.08273,-0.958042 -3.20703,-0.730469 z m 1.99218,9.845703 3.01563,2.283203 -3.48438,-1.470703 z"
       id="path55" /></g><g
     id="path29"
     style="fill:#1d814a;fill-opacity:1"><path
       style="fill:#1d814a;stroke-linecap:round;stroke-linejoin:round;fill-opacity:1"
       d="m 33.40249,18.003998 5.195315,-3.000005 9.734376,12.855468 -8.664111,4.99992 z m 0,0"
       id="path62" /><path
       style="fill:#1d814a;stroke-linecap:round;stroke-linejoin:round;fill-opacity:1"
       d="m 39.390625,11.083984 a 4.0004,4.0004 0 0 0 -2.792969,0.455079 l -5.195312,3 a 4.0004,4.0004 0 0 0 -1.685547,5.019531 l 6.265625,14.855468 a 4.0004,4.0004 0 0 0 5.685547,1.910157 l 8.664062,-5 a 4.0004,4.0004 0 0 0 1.189453,-5.878907 L 41.787109,12.589844 a 4.0004,4.0004 0 0 0 -2.396484,-1.50586 z m 0.730469,12.558594 2.285156,3.017578 -0.814453,0.46875 z"
       id="path63" /></g><g
     id="path31"
     style="fill:#1d814a;fill-opacity:1"><path
       style="fill:#1d814a;stroke-linecap:round;stroke-linejoin:round;fill-opacity:1"
       d="m 94.597824,111.99617 -5.195318,3.00001 -9.734376,-12.85547 8.664111,-4.999921 z m 0,0"
       id="path52" /><path
       style="fill:#1d814a;fill-opacity:1;stroke-linecap:round;stroke-linejoin:round"
       d="m 89.605469,93.349609 c -1.087435,-0.365704 -2.279546,-0.246919 -3.273438,0.326172 l -8.664062,5 c -2.083873,1.203098 -2.641737,3.960359 -1.189453,5.878909 l 4.132812,3.45898 0.0074,2.00866 5.594186,7.38783 c 1.217406,1.60867 3.442139,2.05915 5.189453,1.05078 l 5.195312,-3 c 1.747206,-1.00876 2.469822,-3.1607 1.685547,-5.01953 L 92.017578,95.585937 c -0.446204,-1.056808 -1.324621,-1.87121 -2.412109,-2.236328 z m -3.197266,9.521481 1.470703,3.48633 -2.285156,-3.01758 z"
       id="path53" /></g><g
     id="path33"
     style="fill:#1d814a;fill-opacity:1"><path
       style="fill:#1d814a;stroke-linecap:round;stroke-linejoin:round;fill-opacity:1"
       d="m 38.597167,114.99636 -5.195317,-3 6.265632,-14.855473 8.664111,4.999923 z m 0,0"
       id="path48" /><path
       style="fill:#1d814a;fill-opacity:1;stroke-linecap:round;stroke-linejoin:round"
       d="m 38.394531,93.349609 c -1.087488,0.365118 -1.965905,1.17952 -2.412109,2.236328 l -6.265625,14.855473 c -0.784275,1.85883 -0.06166,4.01077 1.685547,5.01953 l 5.195312,3 c 1.746867,1.0072 3.970286,0.55682 5.1875,-1.05078 l 5.604569,-7.40006 -0.0011,-1.99838 4.132812,-3.45703 c 1.451954,-1.9191 0.893142,-4.676512 -1.191406,-5.878909 l -8.664062,-5 c -0.993367,-0.572514 -2.184635,-0.691285 -3.271485,-0.326172 z m 3.197266,9.521481 0.814453,0.46875 -2.285156,3.01758 z"
       id="path49" /></g><g
     id="path35"
     style="fill:#1d814a;fill-opacity:1"><path
       style="fill:#1d814a;stroke-linecap:round;stroke-linejoin:round;fill-opacity:1"
       d="m 89.40187,15.004179 5.195319,3.000005 -6.265629,14.85546 -8.664111,-4.999919 z m 0,0"
       id="path60" /><path
       style="fill:#1d814a;stroke-linecap:round;stroke-linejoin:round;fill-opacity:1"
       d="m 88.609375,11.083984 a 4.0004,4.0004 0 0 0 -2.396484,1.50586 l -9.734375,12.855468 a 4.0004,4.0004 0 0 0 1.189453,5.878907 l 8.664062,5 a 4.0004,4.0004 0 0 0 5.685547,-1.910157 l 6.265625,-14.855468 a 4.0004,4.0004 0 0 0 -1.685547,-5.017578 l -5.195312,-3 a 4.0004,4.0004 0 0 0 -2.792969,-0.457032 z m -0.730469,12.556641 -1.472656,3.490234 -0.814453,-0.470703 z"
       id="path61" /></g><g
     id="path37"
     style="fill:#1d814a;fill-opacity:1"><path
       style="fill:#1d814a;stroke-linecap:round;stroke-linejoin:round;fill-opacity:1"
       d="m 17.00386,95.597549 -3,-5.19531 12.85546,-9.734376 4.99992,8.664102 z m 0,0"
       id="path46" /><path
       style="fill:#1d814a;fill-opacity:1;stroke-linecap:round;stroke-linejoin:round"
       d="m 27.652344,76.748047 c -1.124298,-0.227574 -2.292193,0.03844 -3.207032,0.730469 l -12.855468,9.734375 c -1.6086749,1.217406 -2.0591477,3.442139 -1.050781,5.189453 l 3,5.195312 c 1.008764,1.747207 3.160701,2.469824 5.019531,1.685547 l 8.622362,-3.636673 -0.03056,-1.986374 6.263671,-0.642578 c 2.216995,-0.935073 3.112851,-3.601571 1.910157,-5.685547 l -5,-8.664062 c -0.574052,-0.993554 -1.547115,-1.692765 -2.671875,-1.919922 z m -1.992188,9.845703 0.46875,0.814453 -3.486328,1.470703 z"
       id="path47" /></g><g
     id="path39"
     style="fill:#1d814a;fill-opacity:1"><path
       style="fill:#1d814a;stroke-linecap:round;stroke-linejoin:round;fill-opacity:1"
       d="m 110.99603,34.402217 2.99999,5.195315 -12.85546,9.730469 -4.999997,-8.66015 z m 0,0"
       id="path58" /><path
       style="fill:#1d814a;stroke-linecap:round;stroke-linejoin:round;fill-opacity:1"
       d="m 112.26953,30.611328 a 4.0004,4.0004 0 0 0 -2.82812,0.105469 l -14.855473,6.265625 a 4.0004,4.0004 0 0 0 -1.910156,5.685547 l 5,8.660156 a 4.0004,4.0004 0 0 0 5.878909,1.189453 l 12.85547,-9.730469 a 4.0004,4.0004 0 0 0 1.05078,-5.189453 l -3,-5.195312 a 4.0004,4.0004 0 0 0 -2.19141,-1.791016 z m -6.91992,10.513672 -3.00977,2.279297 -0.46875,-0.8125 z"
       id="path59" /></g><path
     id="path8"
     style="fill:#33d17a;fill-opacity:1;stroke-linecap:round;stroke-linejoin:round"
     d="M 61 3 A 4.0004 4.0004 0 0 0 57.03125 6.5039062 L 55.880859 15.707031 C 52.953929 16.211677 50.112655 16.972785 47.388672 17.986328 L 41.787109 10.589844 A 4.0004 4.0004 0 0 0 39.390625 9.0839844 A 4.0004 4.0004 0 0 0 36.597656 9.5390625 L 31.402344 12.541016 A 4.0004 4.0004 0 0 0 29.716797 17.558594 L 33.339844 26.150391 C 31.095315 28.023062 29.023062 30.095315 27.150391 32.339844 L 18.558594 28.716797 A 4.0004 4.0004 0 0 0 15.730469 28.609375 A 4.0004 4.0004 0 0 0 13.539062 30.402344 L 10.539062 35.597656 A 4.0004 4.0004 0 0 0 11.589844 40.787109 L 18.988281 46.386719 C 17.974302 49.111428 17.211823 51.953076 16.707031 54.880859 L 7.5039062 56.03125 A 4.0004 4.0004 0 0 0 4 60 L 4 66 A 4.0004 4.0004 0 0 0 7.5039062 69.96875 L 16.707031 71.119141 C 17.211676 74.046071 17.972785 76.887345 18.986328 79.611328 L 11.589844 85.212891 A 4.0004 4.0004 0 0 0 10.539062 90.402344 L 13.539062 95.597656 A 4.0004 4.0004 0 0 0 18.558594 97.283203 L 27.150391 93.660156 C 29.023062 95.904685 31.095315 97.976938 33.339844 99.849609 L 29.716797 108.44141 A 4.0004 4.0004 0 0 0 31.402344 113.46094 L 36.597656 116.46094 A 4.0004 4.0004 0 0 0 41.785156 115.41016 L 47.388672 108.01172 C 50.112861 109.02539 52.953687 109.78828 55.880859 110.29297 L 57.03125 119.49609 A 4.0004 4.0004 0 0 0 61 123 L 67 123 A 4.0004 4.0004 0 0 0 70.96875 119.49609 L 72.119141 110.29297 C 75.046071 109.78832 77.887345 109.02722 80.611328 108.01367 L 86.212891 115.41016 A 4.0004 4.0004 0 0 0 91.402344 116.46094 L 96.597656 113.46094 A 4.0004 4.0004 0 0 0 98.283203 108.44141 L 94.660156 99.849609 C 96.904685 97.976938 98.976938 95.904685 100.84961 93.660156 L 109.44141 97.283203 A 4.0004 4.0004 0 0 0 114.46094 95.597656 L 117.46094 90.402344 A 4.0004 4.0004 0 0 0 116.41016 85.212891 L 109.01367 79.611328 C 110.02722 76.887346 110.78832 74.046071 111.29297 71.119141 L 120.49609 69.96875 A 4.0004 4.0004 0 0 0 124 66 L 124 60 A 4.0004 4.0004 0 0 0 120.49609 56.03125 L 111.29297 54.880859 C 110.78818 51.953077 110.0257 49.111428 109.01172 46.386719 L 116.41016 40.787109 A 4.0004 4.0004 0 0 0 117.46094 35.597656 L 114.46094 30.402344 A 4.0004 4.0004 0 0 0 112.26953 28.611328 A 4.0004 4.0004 0 0 0 109.44141 28.716797 L 100.84961 32.339844 C 98.976938 30.095315 96.904685 28.023062 94.660156 26.150391 L 98.283203 17.558594 A 4.0004 4.0004 0 0 0 96.597656 12.541016 L 91.402344 9.5410156 A 4.0004 4.0004 0 0 0 88.609375 9.0839844 A 4.0004 4.0004 0 0 0 86.212891 10.589844 L 80.611328 17.986328 C 77.887345 16.972784 75.046071 16.211677 72.119141 15.707031 L 70.96875 6.5039062 A 4.0004 4.0004 0 0 0 67 3 L 61 3 z " /><path
     id="circle1"
     style="stroke-width:1"
     d="M 64,23.815429 A 39.184093,39.184093 0 0 0 24.816406,63.000976 39.184093,39.184093 0 0 0 64,102.18457 39.184093,39.184093 0 0 0 103.18359,63.000976 39.184093,39.184093 0 0 0 64,23.815429 Z M 48.875,49.961913 A 13.028492,13.028492 0 0 1 61.904297,62.99121 13.028492,13.028492 0 0 1 48.875,76.020507 13.028492,13.028492 0 0 1 35.847656,62.99121 13.028492,13.028492 0 0 1 48.875,49.961913 Z m 43.263672,0.216797 c -0.02265,20.397204 -0.0098,25.681641 -0.0098,25.681641 C 88.076411,73.249216 73.399129,64.615474 69.845669,62.571288 70.448537,62.298169 91.223818,50.76378 92.138638,50.17871 Z" /></svg>
