<?xml version="1.0" encoding="UTF-8" standalone="no"?>
<svg
   viewBox="0 0 128 128"
   style="display:inline;enable-background:new"
   version="1.0"
   id="svg11300"
   height="128"
   width="128"
   xml:space="preserve"
   xmlns:xlink="http://www.w3.org/1999/xlink"
   xmlns="http://www.w3.org/2000/svg"
   xmlns:svg="http://www.w3.org/2000/svg"
   xmlns:rdf="http://www.w3.org/1999/02/22-rdf-syntax-ns#"
   xmlns:cc="http://creativecommons.org/ns#"
   xmlns:dc="http://purl.org/dc/elements/1.1/"><title
     id="title4162">Adwaita Icon Template</title><defs
     id="defs3"><linearGradient
       id="linearGradient974"><stop
         style="stop-color:#1a1a1a;stop-opacity:1;"
         offset="0"
         id="stop962" /><stop
         id="stop964"
         offset="0.04166667"
         style="stop-color:#808080;stop-opacity:1;" /><stop
         style="stop-color:#1a1a1a;stop-opacity:1;"
         offset="0.08333334"
         id="stop966" /><stop
         id="stop968"
         offset="0.91666669"
         style="stop-color:#1a1a1a;stop-opacity:1;" /><stop
         style="stop-color:#808080;stop-opacity:1;"
         offset="0.95833331"
         id="stop970" /><stop
         style="stop-color:#1a1a1a;stop-opacity:1;"
         offset="1"
         id="stop972" /></linearGradient><linearGradient
       y2="44"
       x2="464"
       y1="44"
       x1="48"
       gradientTransform="matrix(0.25,0,0,0.25,0,53)"
       gradientUnits="userSpaceOnUse"
       id="linearGradient1747"
       xlink:href="#linearGradient974" /><linearGradient
       xlink:href="#a-9"
       id="linearGradient12743"
       gradientUnits="userSpaceOnUse"
       gradientTransform="matrix(0.1800254,0,0,0.17702498,51.938298,54.517035)"
       x1="64"
       y1="262.5"
       x2="64"
       y2="232" /><linearGradient
       id="a-9"
       gradientUnits="userSpaceOnUse"
       x1="64"
       x2="64"
       y1="262.5"
       y2="232"
       gradientTransform="matrix(0.40983607,0,0,0.40983607,-71.514294,-38.611081)"><stop
         offset="0"
         stop-color="#9a9996"
         id="stop3917-3"
         style="stop-color:#929496;stop-opacity:1;" /><stop
         offset="1"
         stop-color="#77767b"
         id="stop3919-6"
         style="stop-color:#5f6163;stop-opacity:1;" /></linearGradient><radialGradient
       id="b-2-2"
       cx="-243.06659"
       cy="-74.599976"
       gradientUnits="userSpaceOnUse"
       r="28.266657"
       gradientTransform="matrix(0,-0.17702498,-0.1800254,0,51.938298,54.517035)"><stop
         offset="0"
         stop-color="#d5d3cf"
         id="stop3922-7-0"
         style="stop-color:#acadaf;stop-opacity:1;" /><stop
         offset="1"
         stop-color="#949390"
         id="stop3924-0-6"
         style="stop-color:#78797d;stop-opacity:1;" /></radialGradient><linearGradient
       xlink:href="#c-2"
       id="linearGradient12745"
       gradientUnits="userSpaceOnUse"
       gradientTransform="matrix(0,0.17702498,-0.1800254,0,51.938299,54.517034)"
       x1="203.99998"
       y1="-64"
       x2="268"
       y2="-64" /><linearGradient
       id="c-2"
       gradientUnits="userSpaceOnUse"
       x1="203.99998"
       x2="268"
       y1="-64"
       y2="-64"
       gradientTransform="matrix(0,0.40983607,-0.40983607,0,-71.51429,-38.611082)"><stop
         offset="0"
         stop-color="#d5d3cf"
         id="stop3927-9"
         style="stop-color:#929496;stop-opacity:1;" /><stop
         offset="1"
         stop-color="#f6f5f4"
         id="stop3929-1"
         style="stop-color:#acadaf;stop-opacity:1;" /></linearGradient></defs><metadata
     id="metadata4"><rdf:RDF><cc:Work
         rdf:about=""><dc:format>image/svg+xml</dc:format><dc:type
           rdf:resource="http://purl.org/dc/dcmitype/StillImage" /><dc:creator><cc:Agent><dc:title>GNOME Design Team</dc:title></cc:Agent></dc:creator><dc:source /><cc:license
           rdf:resource="http://creativecommons.org/licenses/by-sa/4.0/" /><dc:title>Adwaita Icon Template</dc:title><dc:subject><rdf:Bag /></dc:subject><dc:date /><dc:rights><cc:Agent><dc:title /></cc:Agent></dc:rights><dc:publisher><cc:Agent><dc:title /></cc:Agent></dc:publisher><dc:identifier /><dc:relation /><dc:language /><dc:coverage /><dc:description /><dc:contributor><cc:Agent><dc:title /></cc:Agent></dc:contributor></cc:Work><cc:License
         rdf:about="http://creativecommons.org/licenses/by-sa/4.0/"><cc:permits
           rdf:resource="http://creativecommons.org/ns#Reproduction" /><cc:permits
           rdf:resource="http://creativecommons.org/ns#Distribution" /><cc:requires
           rdf:resource="http://creativecommons.org/ns#Notice" /><cc:requires
           rdf:resource="http://creativecommons.org/ns#Attribution" /><cc:permits
           rdf:resource="http://creativecommons.org/ns#DerivativeWorks" /><cc:requires
           rdf:resource="http://creativecommons.org/ns#ShareAlike" /></cc:License></rdf:RDF></metadata><rect
     ry="8"
     rx="8"
     y="32"
     x="12"
     height="83.999992"
     width="104"
     id="rect1709"
     style="display:inline;fill:url(#linearGradient1747);fill-opacity:1;stroke:none;stroke-width:0.25;stroke-linecap:butt;stroke-linejoin:miter;stroke-miterlimit:4;stroke-dasharray:none;stroke-dashoffset:0;stroke-opacity:1;marker:none;marker-start:none;marker-mid:none;marker-end:none;paint-order:normal;enable-background:new" /><rect
     style="display:inline;fill:#4d4d4d;fill-opacity:1;stroke:none;stroke-width:0.25;stroke-linecap:butt;stroke-linejoin:miter;stroke-miterlimit:4;stroke-dasharray:none;stroke-dashoffset:0;stroke-opacity:1;marker:none;marker-start:none;marker-mid:none;marker-end:none;paint-order:normal;enable-background:new"
     id="rect1711"
     width="104"
     height="100"
     x="12"
     y="12"
     rx="8"
     ry="8" /><path
     style="fill:#cccccc;stroke-width:0.378513"
     d="M 56.757676,63.760856 H 44.711419 v -0.654298 -0.654294 l 1.142322,-7.1e-4 c 0.62827,-3.55e-4 1.38095,-0.0704 1.672609,-0.155455 0.408668,-0.119159 0.575397,-0.267978 0.726929,-0.648811 0.165211,-0.41514 0.196637,-2.710726 0.196637,-14.362736 0,-9.972786 -0.04417,-14.001636 -0.157206,-14.342149 -0.106554,-0.320984 -0.305854,-0.538763 -0.618635,-0.675998 -0.278747,-0.122297 -0.956566,-0.202456 -1.712048,-0.202456 h -1.250612 v -0.726997 -0.727001 h 1.246171 1.246159 l -0.0025,-0.617938 c -0.0014,-0.339876 -0.09295,-1.330095 -0.203268,-2.200491 -0.110307,-0.87041 -0.301511,-1.9472 -0.424895,-2.392886 -0.123393,-0.44568 -0.371542,-1.115397 -0.551469,-1.488246 -0.179933,-0.372855 -0.532702,-0.860365 -0.78395,-1.083356 -0.251245,-0.222989 -0.733765,-0.534648 -1.072267,-0.692573 -0.338497,-0.157937 -1.179661,-0.376124 -1.869246,-0.484873 -0.689584,-0.108749 -2.316702,-0.198193 -3.615813,-0.198761 -1.822482,-7.1e-4 -2.423411,0.04611 -2.630793,0.205327 -0.262469,0.201521 -0.26963,0.542142 -0.305382,14.524976 -0.02307,9.010475 0.01328,14.456333 0.09792,14.690111 0.07397,0.204323 0.33968,0.488064 0.590452,0.630538 0.363514,0.206522 0.870015,0.269589 2.498282,0.311092 l 2.042325,0.05206 v 0.640966 0.64096 H 34.119236 27.265327 V 52.492555 51.83826 l 1.765396,-0.0035 c 0.97097,-0.0018 2.00887,-0.06277 2.306443,-0.135247 0.29757,-0.07249 0.702576,-0.301404 0.900008,-0.508723 l 0.35897,-0.376944 V 36.43784 c 0,-13.932912 -0.0081,-14.38539 -0.263775,-14.682034 -0.248592,-0.288458 -0.400172,-0.306068 -2.634423,-0.306068 -1.303863,0 -2.887362,0.06803 -3.518883,0.151182 -0.631527,0.08315 -1.494782,0.287347 -1.918345,0.453761 -0.423565,0.166423 -1.015718,0.535569 -1.315886,0.820344 -0.300164,0.284767 -0.669701,0.772881 -0.821189,1.084693 -0.15149,0.311811 -0.389276,1.036002 -0.528431,1.609311 -0.139135,0.57331 -0.319298,1.631244 -0.400335,2.350975 -0.08102,0.719722 -0.185898,1.684813 -0.233066,2.144636 l -0.08564,0.836048 h -0.487646 -0.487646 l 0.07986,-0.690649 c 0.04388,-0.37985 0.20722,-2.555393 0.362771,-4.834527 0.155492,-2.279135 0.316162,-4.421955 0.356921,-4.761828 l 0.07409,-0.617948 h 13.353186 c 7.344245,0 13.354151,0.04907 13.355352,0.109057 0.0011,0.05996 0.156474,2.235515 0.345041,4.834528 0.188574,2.59901 0.343371,4.938122 0.34398,5.198023 l 0.0011,0.472546 h 9.963044 9.963046 l 0.07278,0.472553 c 0.04005,0.259899 0.292158,2.631726 0.560277,5.270719 0.268117,2.638998 0.487421,4.847253 0.487335,4.907228 -8.1e-5,0.05998 -0.207416,0.109056 -0.460739,0.109056 H 68.2983 l -0.229288,-1.708438 c -0.126107,-0.939644 -0.326787,-2.101021 -0.44595,-2.580841 -0.11916,-0.479818 -0.363903,-1.211008 -0.543882,-1.62486 -0.179971,-0.413857 -0.590968,-1.052929 -0.913324,-1.420163 -0.339792,-0.387098 -0.945195,-0.847665 -1.440571,-1.095926 -0.469957,-0.235527 -1.403817,-0.528825 -2.075235,-0.651781 -0.933553,-0.170946 -2.304189,-0.223548 -5.825787,-0.223548 -4.327042,0 -4.62476,0.01674 -4.931908,0.277833 l -0.326885,0.277836 -0.04349,6.628633 -0.04349,6.628637 2.189672,-0.0011 c 1.204322,-7.1e-4 2.739755,-0.06737 3.412079,-0.148257 0.672319,-0.08088 1.451175,-0.270268 1.730786,-0.420857 0.27961,-0.150585 0.6456,-0.428267 0.813315,-0.617071 0.167712,-0.188804 0.410641,-0.604107 0.53984,-0.922898 0.147006,-0.362725 0.259892,-1.137289 0.301682,-2.069954 l 0.06678,-1.490346 h 0.466474 0.466468 v 6.324875 6.32487 h -0.484615 -0.484625 l -0.0021,-1.126843 C 60.493146,51.10948 60.408106,50.227735 60.3055,49.76981 60.202871,49.31188 59.957828,48.715451 59.760959,48.444407 59.564081,48.173357 59.103824,47.796546 58.73816,47.607043 58.105221,47.279029 57.915095,47.260091 54.776632,47.212381 l -3.296673,-0.05011 0.0428,7.367248 0.0428,7.367244 0.339237,0.28835 c 0.327633,0.278488 0.519432,0.286482 5.607746,0.233765 5.17806,-0.05365 5.288065,-0.06093 6.407686,-0.423933 0.626556,-0.203141 1.475282,-0.603683 1.886073,-0.890099 0.410791,-0.28641 0.972428,-0.809775 1.248083,-1.163024 0.275655,-0.353255 0.683854,-1.06532 0.907114,-1.582375 0.223259,-0.517053 0.503388,-1.335067 0.622509,-1.817812 0.119122,-0.482741 0.310847,-1.394968 0.42605,-2.027176 0.115195,-0.632204 0.209474,-1.198538 0.209484,-1.258512 1.9e-5,-0.05998 -0.626641,-0.109057 -1.392565,-0.109057 h -1.392589 l 0.04259,-0.617946 c 0.04199,-0.609864 0.04982,-0.618402 0.596429,-0.652562 0.304617,-0.01905 0.896547,-0.108711 1.315396,-0.19926 0.418852,-0.09056 1.112347,-0.350039 1.541104,-0.576627 0.428748,-0.226582 1.097362,-0.725781 1.485803,-1.109328 0.451496,-0.445811 2.180636,-2.970556 4.793571,-6.999179 2.248027,-3.466029 4.087323,-6.360988 4.087323,-6.433275 0,-0.0723 -1.996212,-3.223291 -4.436027,-7.002227 -2.439809,-3.77893 -4.675021,-7.110791 -4.967134,-7.404118 -0.29211,-0.293334 -0.772653,-0.603759 -1.067874,-0.689836 -0.295222,-0.08608 -1.01965,-0.156878 -1.609848,-0.157321 l -1.073085,-7.1e-4 V 20.65024 19.995942 h 4.98466 4.984659 v 0.654298 c 0,0.603196 -0.02738,0.654295 -0.350603,0.654295 -0.19283,0 -0.561836,0.09268 -0.820011,0.205954 -0.258168,0.113271 -0.572136,0.370604 -0.697703,0.571849 -0.187631,0.300703 -0.198413,0.425909 -0.06052,0.702788 0.09227,0.185302 1.700595,2.706958 3.574053,5.603693 2.648797,4.09557 3.442698,5.227253 3.570015,5.08898 0.09006,-0.0978 1.570417,-2.330531 3.289693,-4.961614 2.762076,-4.22693 3.125962,-4.849782 3.125962,-5.350647 0,-0.311768 -0.09451,-0.758782 -0.210037,-0.993366 -0.115522,-0.234586 -0.392816,-0.525769 -0.616206,-0.647076 -0.223392,-0.121315 -0.533882,-0.220561 -0.689973,-0.220561 -0.244046,0 -0.283797,-0.09164 -0.283797,-0.654295 v -0.654298 h 4.292343 4.292346 v 0.654298 0.654295 h -0.593991 c -0.326696,0 -0.950825,0.09761 -1.386951,0.216887 -0.436134,0.119294 -1.113829,0.387623 -1.505988,0.596302 -0.392164,0.208686 -1.029774,0.718201 -1.41692,1.132269 -0.387142,0.414064 -2.261596,3.132538 -4.165464,6.041047 -1.903862,2.908507 -3.479852,5.336048 -3.502204,5.394532 -0.02232,0.05848 2.243627,3.631001 5.035505,7.938932 2.791876,4.307928 5.291176,8.068944 5.554003,8.35781 0.262823,0.28887 0.714484,0.599659 1.003691,0.690643 0.289202,0.09099 0.892448,0.166327 1.34054,0.167424 0.448095,0.0011 0.954907,0.04143 1.126254,0.08966 0.259363,0.07299 0.311542,0.188323 0.311542,0.688663 v 0.600984 h -4.990832 -4.990835 l 0.04078,-0.638932 c 0.04022,-0.629885 0.05,-0.641377 0.690756,-0.811513 0.357483,-0.09491 0.753881,-0.263129 0.880882,-0.373811 0.126992,-0.110673 0.278884,-0.334369 0.337519,-0.497086 0.05864,-0.162709 0.0417,-0.426705 -0.0377,-0.586641 -0.07934,-0.159938 -1.918226,-3.038846 -4.086388,-6.397572 -2.168153,-3.358723 -3.985895,-6.158031 -4.039408,-6.220681 -0.05352,-0.06264 -1.765438,2.448606 -3.804269,5.580572 -2.03884,3.131962 -3.799947,5.928118 -3.91357,6.213688 -0.162921,0.40948 -0.174717,0.630918 -0.05579,1.047777 0.08294,0.290711 0.271841,0.643589 0.419763,0.784165 0.147929,0.140579 0.506734,0.341054 0.797357,0.445498 0.48429,0.174063 0.531954,0.23966 0.570977,0.785874 l 0.04257,0.59596 h -2.500289 c -1.37516,0 -2.500761,0.04907 -2.501348,0.109056 -3.54e-4,0.05998 -0.312082,2.399092 -0.692234,5.198027 -0.380149,2.798939 -0.691218,5.138053 -0.691261,5.198027 -4.2e-5,0.05998 -5.420893,0.109057 -12.046336,0.109057 z"
     id="path3887-6" /><path
     style="font-style:oblique;font-weight:bold;font-size:20.3595px;line-height:1;font-family:'Bitstream Vera Sans';fill:#cccccc;stroke-width:0.23829"
     d="m 23.481432,68.392235 h 4.702169 l 1.908704,7.883341 5.010346,-7.883341 h 4.891051 L 37.100824,83.23439 H 33.4723 l 2.117467,-10.955161 -5.149522,8.102048 h -2.05782 L 26.334545,72.279229 24.217078,83.23439 H 20.588553 Z M 50.421983,80.530394 H 44.49705 l -1.471292,2.703996 h -3.92676 L 47.48934,68.392235 h 4.374111 l 2.624467,14.842155 h -3.638465 z m -4.483465,-2.694055 h 3.986406 L 49.03022,72.120171 Z m 13.559744,-9.444104 h 3.827348 l -1.043823,5.338404 6.312639,-5.338404 h 4.62264 l -8.509635,7.207342 6.41205,7.634813 h -4.493406 l -4.990463,-6.193344 -1.202881,6.193344 h -3.827347 z m 15.776627,0 h 10.318926 l -0.566646,2.892878 H 78.53559 l -0.536823,2.763643 h 6.113815 l -0.576587,2.892878 h -6.103874 l -0.656117,3.399878 h 6.700344 L 82.929584,83.23439 H 72.38201 Z m 18.06309,6.581049 q 1.302292,0 1.96835,-0.606411 0.675999,-0.606411 0.675999,-1.779468 0,-0.735646 -0.467235,-1.073645 -0.457293,-0.347941 -1.451409,-0.347941 h -1.580645 l -0.755529,3.807465 z m -2.117468,2.644349 -1.103469,5.616757 h -3.827347 l 2.892878,-14.842155 h 5.656521 q 2.445526,0 3.708054,0.914587 1.262528,0.914586 1.262528,2.694055 0,1.79935 -0.994117,2.962466 -0.994116,1.163116 -2.694055,1.332116 0.775411,0.159058 1.292351,0.795293 0.516941,0.626293 0.904646,1.928585 l 1.262528,4.215053 H 95.773564 L 94.660153,79.546219 Q 94.322154,78.44275 93.835037,78.035162 93.357861,77.617633 92.443274,77.617633 Z"
     id="text1441"
     aria-label="MAKER" /><g
     id="g52"
     transform="translate(33.843191)"><path
       style="fill:#676f98;stroke-linecap:round;stroke-linejoin:round"
       d="m 64,106.56238 h -1.080153 l -0.360051,-2.8324 h 1.800255 z m 0,0"
       id="path3" /><path
       style="fill:#808080;fill-opacity:1;stroke-linecap:round;stroke-linejoin:round"
       d="m 62.560547,103.01563 a 0.71414644,0.71414644 0 0 0 -0.708985,0.80468 l 0.359375,2.83203 a 0.71414644,0.71414644 0 0 0 0.708985,0.625 H 64 a 0.71414644,0.71414644 0 0 0 0.708984,-0.625 l 0.359375,-2.83203 a 0.71414644,0.71414644 0 0 0 -0.708984,-0.80468 z m 0.808594,1.42773 h 0.18164 l -0.0918,0.70508 z"
       id="path4" /><path
       style="fill:#0a0b0f;stroke-linecap:round;stroke-linejoin:round"
       d="M 62.919847,86.735581 H 64 l 0.360051,2.8324 h -1.800255 z m 0,0"
       id="path5" /><path
       style="fill:#676f98;stroke-linecap:round;stroke-linejoin:round"
       d="m 62.919922,86.021484 a 0.71414644,0.71414644 0 0 0 -0.708985,0.625 l -0.359375,2.832032 a 0.71414644,0.71414644 0 0 0 0.708985,0.802734 h 1.798828 a 0.71414644,0.71414644 0 0 0 0.708984,-0.802734 L 64.708984,86.646484 A 0.71414644,0.71414644 0 0 0 64,86.021484 Z m 0.541015,2.126953 0.08984,0.705079 H 63.37109 Z"
       id="path6" /><path
       style="fill:#676f98;stroke-linecap:round;stroke-linejoin:round"
       d="m 53.378501,97.180057 v -1.06215 l 2.880407,-0.35405 v 1.77025 z m 0,0"
       id="path8" /><path
       style="fill:#808080;fill-opacity:1;stroke-linecap:round;stroke-linejoin:round"
       d="m 56.171875,95.054687 -2.880859,0.353516 a 0.71414644,0.71414644 0 0 0 -0.626954,0.708984 v 1.0625 a 0.71414644,0.71414644 0 0 0 0.626954,0.708985 l 2.880859,0.353515 a 0.71414644,0.71414644 0 0 0 0.800781,-0.708984 v -1.769531 a 0.71414644,0.71414644 0 0 0 -0.800781,-0.708985 z m -0.626953,1.515625 v 0.15625 l -0.632813,-0.07813 z"
       id="path9" /><path
       style="fill:#676f98;stroke-linecap:round;stroke-linejoin:round"
       d="m 73.541346,96.117907 v 1.06215 l -2.880406,0.35405 v -1.77025 z m 0,0"
       id="path10" /><path
       style="fill:#808080;fill-opacity:1;stroke-linecap:round;stroke-linejoin:round"
       d="m 70.748047,95.054687 a 0.71414644,0.71414644 0 0 0 -0.800781,0.708985 v 1.769531 a 0.71414644,0.71414644 0 0 0 0.800781,0.708984 l 2.880859,-0.353515 a 0.71414644,0.71414644 0 0 0 0.626953,-0.708985 v -1.0625 a 0.71414644,0.71414644 0 0 0 -0.626953,-0.708984 z m 0.626953,1.515625 0.636719,0.07813 -0.636719,0.08008 z"
       id="path11" /><path
       style="fill:#676f98;stroke-linecap:round;stroke-linejoin:round"
       d="m 54.459356,92.152088 0.540076,-0.919699 2.67436,1.109173 -0.900126,1.533064 z m 0,0"
       id="path12" /><path
       style="fill:#808080;fill-opacity:1;stroke-linecap:round;stroke-linejoin:round"
       d="m 55.273437,90.572266 a 0.71414644,0.71414644 0 0 0 -0.890625,0.298828 l -0.539062,0.919922 a 0.71414644,0.71414644 0 0 0 0.189453,0.933593 l 2.314453,1.722657 a 0.71414644,0.71414644 0 0 0 1.041016,-0.210938 l 0.90039,-1.533203 a 0.71414644,0.71414644 0 0 0 -0.341796,-1.021484 z m 0.759766,1.861328 0.609375,0.253906 -0.08203,0.140625 z"
       id="path13" /><path
       style="fill:#676f98;stroke-linecap:round;stroke-linejoin:round"
       d="m 72.460488,101.14579 -0.540076,0.9197 -2.674363,-1.10917 0.900112,-1.533764 z m 0,0"
       id="path14" /><path
       style="fill:#808080;fill-opacity:1;stroke-linecap:round;stroke-linejoin:round"
       d="m 70.003906,98.722656 a 0.71414644,0.71414644 0 0 0 -0.472656,0.337891 l -0.900391,1.535153 a 0.71414644,0.71414644 0 0 0 0.341797,1.01953 l 2.673828,1.10938 a 0.71414644,0.71414644 0 0 0 0.890625,-0.29688 l 0.539063,-0.91992 a 0.71414644,0.71414644 0 0 0 -0.189453,-0.93554 l -2.314453,-1.722661 a 0.71414644,0.71414644 0 0 0 -0.56836,-0.126953 z m 0.353516,1.750004 0.52539,0.39062 -0.607421,-0.25195 z"
       id="path15" /><path
       style="fill:#676f98;stroke-linecap:round;stroke-linejoin:round"
       d="m 57.951596,88.329514 0.935289,-0.531076 1.752435,2.275739 -1.55976,0.885111 z m 0,0"
       id="path16" /><path
       style="fill:#808080;fill-opacity:1;stroke-linecap:round;stroke-linejoin:round"
       d="m 58.535156,87.177734 -0.935547,0.53125 a 0.71414644,0.71414644 0 0 0 -0.304687,0.902344 l 1.128906,2.628906 a 0.71414644,0.71414644 0 0 0 1.007813,0.339844 l 1.560546,-0.884766 a 0.71414644,0.71414644 0 0 0 0.212891,-1.05664 l -1.751953,-2.275391 a 0.71414644,0.71414644 0 0 0 -0.917969,-0.185547 z m 0.613281,2.132813 0.423829,0.548828 -0.150391,0.08398 z"
       id="path17" /><path
       style="fill:#676f98;stroke-linecap:round;stroke-linejoin:round"
       d="m 68.968311,104.96848 -0.935289,0.53107 -1.752435,-2.27574 1.55976,-0.88511 z m 0,0"
       id="path18" /><path
       style="fill:#808080;fill-opacity:1;stroke-linecap:round;stroke-linejoin:round"
       d="m 68.068359,101.66211 a 0.71414644,0.71414644 0 0 0 -0.580078,0.0547 l -1.560547,0.88672 a 0.71414644,0.71414644 0 0 0 -0.21289,1.05664 l 1.751953,2.27539 a 0.71414644,0.71414644 0 0 0 0.917969,0.18554 l 0.935546,-0.53125 A 0.71414644,0.71414644 0 0 0 69.625,104.6875 l -1.128906,-2.63086 a 0.71414644,0.71414644 0 0 0 -0.427735,-0.39453 z m -0.570312,1.69141 0.273437,0.63476 -0.423828,-0.54883 z"
       id="path19" /><path
       style="fill:#676f98;stroke-linecap:round;stroke-linejoin:round"
       d="m 58.886769,105.49959 -0.93529,-0.53108 1.127974,-2.62979 1.559759,0.88511 z m 0,0"
       id="path20" /><path
       style="fill:#808080;fill-opacity:1;stroke-linecap:round;stroke-linejoin:round"
       d="m 58.851562,101.66211 a 0.71414644,0.71414644 0 0 0 -0.427734,0.39453 l -1.128906,2.63086 a 0.71414644,0.71414644 0 0 0 0.304687,0.90234 l 0.933594,0.53125 a 0.71414644,0.71414644 0 0 0 0.919922,-0.18554 l 1.751953,-2.27539 a 0.71414644,0.71414644 0 0 0 -0.212891,-1.05664 l -1.560546,-0.88672 a 0.71414644,0.71414644 0 0 0 -0.580079,-0.0547 z m 0.570313,1.69141 0.150391,0.0859 -0.423829,0.55078 z"
       id="path21" /><path
       style="fill:#676f98;stroke-linecap:round;stroke-linejoin:round"
       d="m 68.032906,87.798471 0.935289,0.531076 -1.127972,2.629788 -1.55976,-0.885111 z m 0,0"
       id="path22" /><path
       style="fill:#808080;fill-opacity:1;stroke-linecap:round;stroke-linejoin:round"
       d="m 68.384766,87.177734 a 0.71414644,0.71414644 0 0 0 -0.917969,0.185547 l -1.751953,2.275391 a 0.71414644,0.71414644 0 0 0 0.21289,1.05664 l 1.560547,0.884766 a 0.71414644,0.71414644 0 0 0 1.007813,-0.339844 L 69.625,88.611328 a 0.71414644,0.71414644 0 0 0 -0.304688,-0.902344 z m -0.613282,2.13086 -0.273437,0.634765 -0.150391,-0.08398 z"
       id="path23" /><path
       style="fill:#676f98;stroke-linecap:round;stroke-linejoin:round"
       d="m 54.999423,102.06551 -0.540077,-0.9197 2.314311,-1.723227 0.900112,1.533757 z m 0,0"
       id="path24" /><path
       style="fill:#808080;fill-opacity:1;stroke-linecap:round;stroke-linejoin:round"
       d="m 56.916016,98.722656 a 0.71414644,0.71414644 0 0 0 -0.56836,0.126953 l -2.314453,1.722661 a 0.71414644,0.71414644 0 0 0 -0.189453,0.93554 l 0.539062,0.91992 a 0.71414644,0.71414644 0 0 0 0.890625,0.29688 l 2.673829,-1.10938 a 0.71414644,0.71414644 0 0 0 0.341796,-1.01953 l -0.90039,-1.535153 a 0.71414644,0.71414644 0 0 0 -0.472656,-0.337891 z m -0.355469,1.748044 0.08398,0.14063 -0.613281,0.2539 z"
       id="path25" /><path
       style="fill:#676f98;stroke-linecap:round;stroke-linejoin:round"
       d="m 71.920402,91.232409 0.540075,0.919701 -2.314309,1.722535 -0.900127,-1.533062 z m 0,0"
       id="path26" /><path
       style="fill:#808080;fill-opacity:1;stroke-linecap:round;stroke-linejoin:round"
       d="m 71.646484,90.572266 -2.673828,1.109375 a 0.71414644,0.71414644 0 0 0 -0.341797,1.021484 l 0.900391,1.533203 a 0.71414644,0.71414644 0 0 0 1.041016,0.210938 l 2.314453,-1.722657 a 0.71414644,0.71414644 0 0 0 0.189453,-0.933593 L 72.537109,90.871094 A 0.71414644,0.71414644 0 0 0 71.646484,90.572266 Z M 70.880859,92.4375 70.359375,92.826172 70.277344,92.6875 Z"
       id="path27" /><path
       style="fill:#a5aac2;stroke-linecap:round;stroke-linejoin:round"
       d="m 64,106.20833 h -1.080153 l -0.360051,-2.8324 h 1.800255 z m 0,0"
       id="path28" /><path
       style="fill:#c7c8c9;fill-opacity:1;stroke-linecap:round;stroke-linejoin:round"
       d="m 62.560547,102.66211 a 0.71414644,0.71414644 0 0 0 -0.708985,0.80469 l 0.359375,2.83203 a 0.71414644,0.71414644 0 0 0 0.708985,0.62305 H 64 a 0.71414644,0.71414644 0 0 0 0.708984,-0.62305 l 0.359375,-2.83203 a 0.71414644,0.71414644 0 0 0 -0.708984,-0.80469 z m 0.808594,1.42773 h 0.179687 l -0.08984,0.70508 z"
       id="path29" /><path
       style="fill:#a5aac2;stroke-linecap:round;stroke-linejoin:round"
       d="M 62.919847,86.381531 H 64 l 0.360051,2.8324 h -1.800255 z m 0,0"
       id="path30" /><path
       style="fill:#c7c8c9;fill-opacity:1;stroke-linecap:round;stroke-linejoin:round"
       d="m 62.919922,85.667969 a 0.71414644,0.71414644 0 0 0 -0.708985,0.623047 l -0.359375,2.832031 a 0.71414644,0.71414644 0 0 0 0.708985,0.804687 h 1.798828 a 0.71414644,0.71414644 0 0 0 0.708984,-0.804687 L 64.708984,86.291016 A 0.71414644,0.71414644 0 0 0 64,85.667969 Z M 63.460937,87.794922 63.550777,88.5 H 63.37109 Z"
       id="path31" /><path
       style="fill:#a5aac2;stroke-linecap:round;stroke-linejoin:round"
       d="m 53.378501,96.826004 v -1.06215 l 2.880407,-0.354051 v 1.77025 z m 0,0"
       id="path32" /><path
       style="fill:#c7c8c9;fill-opacity:1;stroke-linecap:round;stroke-linejoin:round"
       d="m 56.171875,94.701172 -2.880859,0.353515 a 0.71414644,0.71414644 0 0 0 -0.626954,0.708985 v 1.0625 a 0.71414644,0.71414644 0 0 0 0.626954,0.708984 l 2.880859,0.353516 a 0.71414644,0.71414644 0 0 0 0.800781,-0.708985 v -1.769531 a 0.71414644,0.71414644 0 0 0 -0.800781,-0.708984 z m -0.626953,1.515625 v 0.15625 l -0.628906,-0.07813 z"
       id="path33" /><path
       style="fill:#a5aac2;stroke-linecap:round;stroke-linejoin:round"
       d="m 73.541346,95.763854 v 1.06215 l -2.880406,0.354049 v -1.77025 z m 0,0"
       id="path34" /><path
       style="fill:#c7c8c9;fill-opacity:1;stroke-linecap:round;stroke-linejoin:round"
       d="m 70.748047,94.701172 a 0.71414644,0.71414644 0 0 0 -0.800781,0.708984 v 1.769531 a 0.71414644,0.71414644 0 0 0 0.800781,0.708985 l 2.880859,-0.353516 a 0.71414644,0.71414644 0 0 0 0.626953,-0.708984 v -1.0625 a 0.71414644,0.71414644 0 0 0 -0.626953,-0.708985 z m 0.626953,1.515625 0.628906,0.07813 -0.628906,0.07813 z"
       id="path35" /><path
       style="fill:#a5aac2;stroke-linecap:round;stroke-linejoin:round"
       d="m 54.459356,91.798039 0.540076,-0.919699 2.67436,1.109173 -0.900126,1.533064 z m 0,0"
       id="path36" /><path
       style="fill:#c7c8c9;fill-opacity:1;stroke-linecap:round;stroke-linejoin:round"
       d="m 55.273437,90.21875 a 0.71414644,0.71414644 0 0 0 -0.890625,0.298828 l -0.539062,0.917969 a 0.71414644,0.71414644 0 0 0 0.189453,0.935547 l 2.314453,1.722656 a 0.71414644,0.71414644 0 0 0 1.041016,-0.210938 l 0.90039,-1.533203 a 0.71414644,0.71414644 0 0 0 -0.341796,-1.021484 z m 0.759766,1.859375 0.609375,0.253906 -0.08203,0.140625 z"
       id="path37" /><path
       style="fill:#a5aac2;stroke-linecap:round;stroke-linejoin:round"
       d="m 72.460488,100.79174 -0.540076,0.9197 -2.674363,-1.10917 0.900112,-1.533765 z m 0,0"
       id="path38" /><path
       style="fill:#c7c8c9;fill-opacity:1;stroke-linecap:round;stroke-linejoin:round"
       d="m 70.003906,98.369141 a 0.71414644,0.71414644 0 0 0 -0.472656,0.33789 l -0.900391,1.533199 a 0.71414644,0.71414644 0 0 0 0.341797,1.02149 l 2.673828,1.10937 a 0.71414644,0.71414644 0 0 0 0.890625,-0.29882 l 0.539063,-0.91797 a 0.71414644,0.71414644 0 0 0 -0.189453,-0.93555 l -2.314453,-1.722656 a 0.71414644,0.71414644 0 0 0 -0.56836,-0.126953 z m 0.353516,1.748049 0.527344,0.39258 -0.609375,-0.25196 z"
       id="path39" /><path
       style="fill:#a5aac2;stroke-linecap:round;stroke-linejoin:round"
       d="m 57.951592,87.975464 0.935288,-0.531075 1.752436,2.275739 -1.55976,0.885111 z m 0,0"
       id="path40" /><path
       style="fill:#c7c8c9;fill-opacity:1;stroke-linecap:round;stroke-linejoin:round"
       d="m 58.535156,86.824219 -0.935547,0.53125 a 0.71414644,0.71414644 0 0 0 -0.304687,0.902343 l 1.128906,2.628907 a 0.71414644,0.71414644 0 0 0 1.007813,0.339843 l 1.560546,-0.884765 a 0.71414644,0.71414644 0 0 0 0.212891,-1.056641 l -1.751953,-2.277344 a 0.71414644,0.71414644 0 0 0 -0.917969,-0.183593 z m 0.613281,2.130859 0.423829,0.548828 -0.150391,0.08594 z"
       id="path41" /><path
       style="fill:#a5aac2;stroke-linecap:round;stroke-linejoin:round"
       d="m 68.968307,104.61443 -0.935289,0.53107 -1.752435,-2.27574 1.559759,-0.8851 z m 0,0"
       id="path42" /><path
       style="fill:#c7c8c9;fill-opacity:1;stroke-linecap:round;stroke-linejoin:round"
       d="m 68.068359,101.30859 a 0.71414644,0.71414644 0 0 0 -0.580078,0.0547 l -1.560547,0.88477 a 0.71414644,0.71414644 0 0 0 -0.21289,1.05664 l 1.751953,2.27734 a 0.71414644,0.71414644 0 0 0 0.917969,0.1836 l 0.935546,-0.5293 a 0.71414644,0.71414644 0 0 0 0.304688,-0.9043 l -1.128906,-2.6289 A 0.71414644,0.71414644 0 0 0 68.068359,101.3086 Z M 67.498047,103 l 0.273437,0.63477 -0.423828,-0.54883 z"
       id="path43" /><path
       style="fill:#a5aac2;stroke-linecap:round;stroke-linejoin:round"
       d="m 58.886769,105.14554 -0.93529,-0.53108 1.127974,-2.62979 1.559759,0.88511 z m 0,0"
       id="path44" /><path
       style="fill:#c7c8c9;fill-opacity:1;stroke-linecap:round;stroke-linejoin:round"
       d="m 58.851562,101.30859 a 0.71414644,0.71414644 0 0 0 -0.427734,0.39454 l -1.128906,2.6289 a 0.71414644,0.71414644 0 0 0 0.304687,0.9043 l 0.933594,0.5293 a 0.71414644,0.71414644 0 0 0 0.919922,-0.1836 l 1.751953,-2.27734 a 0.71414644,0.71414644 0 0 0 -0.212891,-1.05664 l -1.560546,-0.88477 a 0.71414644,0.71414644 0 0 0 -0.580079,-0.0547 z M 59.421875,103 l 0.150391,0.084 -0.423829,0.55079 z"
       id="path45" /><path
       style="fill:#a5aac2;stroke-linecap:round;stroke-linejoin:round"
       d="m 68.032906,87.444418 0.935289,0.531076 -1.127972,2.629788 -1.55976,-0.885111 z m 0,0"
       id="path46" /><path
       style="fill:#c7c8c9;fill-opacity:1;stroke-linecap:round;stroke-linejoin:round"
       d="m 68.384766,86.824219 a 0.71414644,0.71414644 0 0 0 -0.917969,0.183593 l -1.751953,2.277344 a 0.71414644,0.71414644 0 0 0 0.21289,1.056641 l 1.560547,0.884765 a 0.71414644,0.71414644 0 0 0 1.007813,-0.339843 L 69.625,88.257812 a 0.71414644,0.71414644 0 0 0 -0.304688,-0.902343 z m -0.613282,2.130859 -0.273437,0.634766 -0.150391,-0.08398 z"
       id="path47" /><path
       style="fill:#a5aac2;stroke-linecap:round;stroke-linejoin:round"
       d="m 54.999423,101.71146 -0.540077,-0.9197 2.314311,-1.723228 0.900112,1.533768 z m 0,0"
       id="path48" /><path
       style="fill:#c7c8c9;fill-opacity:1;stroke-linecap:round;stroke-linejoin:round"
       d="m 56.916016,98.369141 a 0.71414644,0.71414644 0 0 0 -0.56836,0.126953 l -2.314453,1.722656 a 0.71414644,0.71414644 0 0 0 -0.189453,0.93555 l 0.539062,0.91797 a 0.71414644,0.71414644 0 0 0 0.890625,0.29882 l 2.673829,-1.10937 a 0.71414644,0.71414644 0 0 0 0.341796,-1.02149 l -0.90039,-1.533199 a 0.71414644,0.71414644 0 0 0 -0.472656,-0.33789 z m -0.355469,1.746089 0.08398,0.14258 -0.615234,0.25391 z"
       id="path49" /><path
       style="fill:#a5aac2;stroke-linecap:round;stroke-linejoin:round"
       d="m 71.920402,90.87836 0.540075,0.919701 -2.314309,1.722535 -0.900127,-1.533063 z m 0,0"
       id="path50" /><path
       style="fill:#c7c8c9;fill-opacity:1;stroke-linecap:round;stroke-linejoin:round"
       d="m 71.646484,90.21875 -2.673828,1.109375 a 0.71414644,0.71414644 0 0 0 -0.341797,1.021484 l 0.900391,1.533203 a 0.71414644,0.71414644 0 0 0 1.041016,0.210938 l 2.314453,-1.722656 a 0.71414644,0.71414644 0 0 0 0.189453,-0.935547 L 72.537109,90.517578 A 0.71414644,0.71414644 0 0 0 71.646484,90.21875 Z m -0.761718,1.861328 -0.527344,0.392578 -0.08203,-0.140625 z"
       id="path51" /><path
       style="fill:url(#linearGradient12743)"
       d="m 63.458984,88.134766 c -4.717791,0 -8.623046,3.816622 -8.623047,8.513671 0,4.697053 3.905259,8.515623 8.623047,8.515623 4.717789,0 8.625,-3.81857 8.625,-8.515623 0,-4.69705 -3.907209,-8.513671 -8.625,-8.513671 z m 0,4.283203 c 2.441031,0 4.339844,1.888011 4.339844,4.230468 0,2.342466 -1.89881,4.230473 -4.339844,4.230473 -2.441033,0 -4.33789,-1.888006 -4.33789,-4.230473 0,-2.342458 1.896859,-4.230468 4.33789,-4.230468 z"
       id="path3982-3-3" /><path
       style="fill:#c7c8c9;fill-opacity:1"
       d="m 63.458984,87.783203 c -4.726984,0 -8.625,3.815281 -8.625,8.511719 0,4.696438 3.898016,8.511718 8.625,8.511718 4.726986,0 8.626953,-3.81528 8.626953,-8.511718 0,-4.696438 -3.899967,-8.511719 -8.626953,-8.511719 z m 0,3.570313 c 2.829863,0 5.056641,2.206944 5.056641,4.941406 0,2.734462 -2.226778,4.941408 -5.056641,4.941408 -2.829861,0 -5.054687,-2.206946 -5.054687,-4.941408 0,-2.734462 2.224826,-4.941406 5.054687,-4.941406 z"
       id="path3984-1-1" /><path
       style="fill:url(#b-2-2);stroke-linecap:square;stroke-linejoin:round"
       d="m 63.458984,91.158203 c -2.872116,0 -5.216796,2.300412 -5.216797,5.136719 0,2.836308 2.344682,5.136718 5.216797,5.136718 2.872117,0 5.21875,-2.30041 5.21875,-5.136718 0,-2.836307 -2.346633,-5.136719 -5.21875,-5.136719 z m 0,0.892578 c 2.397847,0 4.326172,1.898318 4.326172,4.244141 0,2.345825 -1.928324,4.244138 -4.326172,4.244138 -2.397846,0 -4.324218,-1.898313 -4.324218,-4.244138 0,-2.345823 1.926373,-4.244141 4.324218,-4.244141 z"
       id="path3986-9-4" /><path
       style="fill:url(#linearGradient12745);stroke-linecap:square;stroke-linejoin:round"
       d="m 63.458984,89.916016 c -3.560927,0 -6.474609,2.858025 -6.474609,6.378906 0,3.520878 2.913682,6.378908 6.474609,6.378908 3.560931,0 6.476563,-2.85803 6.476563,-6.378908 0,-3.520881 -2.915633,-6.378906 -6.476563,-6.378906 z m 0,1.427734 c 2.801846,0 5.046875,2.215325 5.046875,4.951172 0,2.735844 -2.245029,4.951168 -5.046875,4.951168 -2.801842,0 -5.044921,-2.215325 -5.044922,-4.951168 0,-2.735847 2.24308,-4.951172 5.044922,-4.951172 z"
       id="path3988-4-9" /></g></svg>
