<?xml version="1.0" encoding="UTF-8" standalone="no"?>
<!-- Created with Inkscape (http://www.inkscape.org/) -->

<svg
   width="128"
   height="128"
   viewBox="0 0 128 128"
   version="1.1"
   id="svg1"
   inkscape:version="1.4.2 (ebf0e940d0, 2025-05-08)"
   sodipodi:docname="the-sims-4.svg"
   xmlns:inkscape="http://www.inkscape.org/namespaces/inkscape"
   xmlns:sodipodi="http://sodipodi.sourceforge.net/DTD/sodipodi-0.dtd"
   xmlns:xlink="http://www.w3.org/1999/xlink"
   xmlns="http://www.w3.org/2000/svg"
   xmlns:svg="http://www.w3.org/2000/svg">
  <sodipodi:namedview
     id="namedview1"
     pagecolor="#ffffff"
     bordercolor="#000000"
     borderopacity="0.25"
     inkscape:showpageshadow="2"
     inkscape:pageopacity="0.0"
     inkscape:pagecheckerboard="0"
     inkscape:deskcolor="#d1d1d1"
     inkscape:document-units="px"
     inkscape:zoom="6.2265625"
     inkscape:cx="64"
     inkscape:cy="64"
     inkscape:window-width="1920"
     inkscape:window-height="1011"
     inkscape:window-x="0"
     inkscape:window-y="0"
     inkscape:window-maximized="1"
     inkscape:current-layer="svg1" />
  <defs
     id="defs1">
    <linearGradient
       id="linearGradient3"
       inkscape:collect="always">
      <stop
         style="stop-color:#aaaaaa;stop-opacity:1;"
         offset="0"
         id="stop3" />
      <stop
         style="stop-color:#d2d2d2;stop-opacity:1;"
         offset="0.40000001"
         id="stop5" />
      <stop
         style="stop-color:#a9a9a9;stop-opacity:1;"
         offset="0.80000001"
         id="stop6" />
      <stop
         style="stop-color:#d8d8d8;stop-opacity:1;"
         offset="1"
         id="stop4" />
    </linearGradient>
    <linearGradient
       inkscape:collect="always"
       xlink:href="#linearGradient3"
       id="linearGradient4"
       x1="1.0583333"
       y1="17.4625"
       x2="32.808334"
       y2="17.4625"
       gradientUnits="userSpaceOnUse"
       gradientTransform="scale(3.7795274)" />
  </defs>
  <path
     d="m 124,66.000017 v 0 C 124,33.339299 97.214285,6.9999997 63.999994,6.9999997 v 0 C 30.785711,6.9999997 4,33.339299 4,66.000017 v 0 c 0,32.660711 26.785711,58.999973 59.999994,58.999973 v 0 C 97.214285,124.99999 124,98.660728 124,66.000017 Z"
     style="fill:url(#linearGradient4);stroke-width:2.12492"
     id="path1" />
  <path
     d="m 124,61.999999 v 0 C 124,29.339285 97.214277,3 63.999998,3 V 3 C 30.785711,3 4,29.339285 4,61.999999 v 0 C 4,94.66071 30.785711,121 63.999998,121 v 0 C 97.214277,121 124,94.66071 124,61.999999 Z"
     style="fill:#ececec;fill-opacity:1;stroke-width:2.12492"
     id="path2" />
  <g
     id="g1">
    <path
       id="path3"
       style="fill:#35b82a;fill-opacity:1;stroke-width:0.114713"
       d="m 63.999996,21.999999 20,39.999996 H 43.999999 Z" />
    <path
       id="path4"
       style="fill:#4d8019;fill-opacity:1;stroke-width:0.114713"
       d="m 63.999996,102 20,-40.000005 H 43.999999 Z" />
    <path
       id="path5"
       style="fill:#c6ffbb;fill-opacity:1;stroke-width:0.999999"
       d="m 63.999996,21.999999 10.000002,39.999996 h -20 z" />
    <path
       id="path6"
       style="fill:#77fe84;fill-opacity:1;stroke-width:0.999999"
       d="m 63.999996,21.999999 20,39.999996 h -9.999998 z" />
    <path
       id="path7"
       style="fill:#134402;fill-opacity:1;stroke-width:0.999999"
       d="m 56.220701,53.119137 c -3.668001,1.684849 -7.421598,3.13592 -9.783201,4.007811 h -0.002 l -2.435501,4.873047 h 9.999999 z" />
    <path
       id="path8"
       style="fill:#f6f6f4;fill-opacity:1;stroke-width:0.999999"
       d="m 69.744137,44.976561 c -2.063645,1.61342 -4.589972,3.335577 -7.886717,5.261718 -1.699306,0.992829 -3.654871,1.970843 -5.636719,2.880858 l -2.220703,8.880858 h 20 z" />
    <path
       id="path9"
       style="fill:#35b82a;fill-opacity:1;stroke-width:0.999999"
       d="m 71.759763,53.03906 c -2.403999,3.173295 -5.166478,6.271336 -8.259764,8.960935 h 10.499999 z" />
    <path
       id="path10"
       style="fill:#5eea03;fill-opacity:1;stroke-width:0.999999"
       d="m 73.742185,41.486326 c -1.159574,1.129028 -2.448189,2.278507 -3.998048,3.490235 l 4.255861,17.023434 h 9.999998 z" />
    <path
       id="path11"
       style="fill:#4d8019;fill-opacity:1;stroke-width:0.999999"
       d="m 76.226559,46.453124 c -1.311156,2.157657 -2.803113,4.389861 -4.466796,6.585936 l 2.240235,8.960935 h 9.999998 z" />
    <path
       id="path12"
       style="fill:#5eea03;fill-opacity:1;stroke-width:0.999999"
       d="M 63.999996,102 73.999998,61.999995 h -20 z"
       sodipodi:nodetypes="cccc" />
    <path
       id="path13"
       style="fill:#74fd8c;fill-opacity:1;stroke-width:0.999999"
       d="m 63.999996,102 20,-40.000005 h -9.999998 z"
       sodipodi:nodetypes="cccc" />
    <path
       id="path14"
       style="fill:#35b82a;fill-opacity:1;stroke-width:0.999999"
       d="M 57.408202,75.630857 52.080077,78.162104 63.999996,102 Z" />
    <path
       id="path15"
       style="fill:#238401;fill-opacity:1;stroke-width:0.999999"
       d="M 72.36914,68.525387 57.408202,75.630857 63.999996,102 Z" />
    <path
       id="path16"
       style="fill:#c8f9bd;fill-opacity:1;stroke-width:0.999999"
       d="M 83.343746,63.310542 72.36914,68.525387 63.999996,102 Z" />
    <path
       id="path17"
       style="fill:#5eea03;fill-opacity:1;stroke-width:0.999999"
       d="m 80.419919,69.160151 c -3.464542,3.069558 -8.778607,7.808953 -12.88086,11.609378 -2.547137,2.359725 -6.015281,6.032938 -9.322265,9.664058 L 63.999996,102 Z" />
    <path
       id="path18"
       style="fill:#124600;fill-opacity:1;stroke-width:0.999999"
       d="m 69.835934,78.658198 c -0.79276,0.724032 -1.564063,1.432433 -2.296875,2.111331 -1.966613,1.821917 -4.482452,4.427621 -7.048827,7.191405 L 63.999996,102 Z" />
  </g>
</svg>
