<?xml version="1.0" encoding="UTF-8" standalone="no"?>
<svg
   width="128"
   height="128"
   version="1"
   id="svg566"
   xml:space="preserve"
   xmlns:xlink="http://www.w3.org/1999/xlink"
   xmlns="http://www.w3.org/2000/svg"
   xmlns:svg="http://www.w3.org/2000/svg"><defs
     id="defs570"><linearGradient
       id="linearGradient43"><stop
         style="stop-color:#925437;stop-opacity:0.95294118;"
         offset="0.01512897"
         id="stop45" /><stop
         style="stop-color:#462a15;stop-opacity:1;"
         offset="0.15177193"
         id="stop46" /><stop
         style="stop-color:#925437;stop-opacity:0.95294118;"
         offset="0.39499283"
         id="stop49" /><stop
         style="stop-color:#462a15;stop-opacity:1;"
         offset="0.54376793"
         id="stop50" /><stop
         style="stop-color:#925437;stop-opacity:0.95294118;"
         offset="0.85287148"
         id="stop47" /><stop
         style="stop-color:#462a15;stop-opacity:1;"
         offset="0.92670435"
         id="stop48" /><stop
         style="stop-color:#925437;stop-opacity:0.95294118;"
         offset="1"
         id="stop44" /></linearGradient><linearGradient
       id="linearGradient13"><stop
         style="stop-color:#2f2520;stop-opacity:1;"
         offset="0"
         id="stop13" /><stop
         style="stop-color:#000000;stop-opacity:1;"
         offset="1"
         id="stop14" /></linearGradient><linearGradient
       id="linearGradient7"><stop
         style="stop-color:#a0694b;stop-opacity:1;"
         offset="0"
         id="stop11" /><stop
         style="stop-color:#bf7949;stop-opacity:1;"
         offset="1"
         id="stop12" /></linearGradient><linearGradient
       id="linearGradient10"><stop
         style="stop-color:#422a24;stop-opacity:1;"
         offset="0"
         id="stop5" /><stop
         style="stop-color:#a7685a;stop-opacity:1;"
         offset="0.05246727"
         id="stop6" /><stop
         style="stop-color:#422a24;stop-opacity:1;"
         offset="0.20240276"
         id="stop7" /><stop
         style="stop-color:#422a24;stop-opacity:1;"
         offset="0.8000766"
         id="stop8" /><stop
         style="stop-color:#a7685a;stop-opacity:1;"
         offset="0.94585586"
         id="stop9" /><stop
         style="stop-color:#422a24;stop-opacity:1;"
         offset="1"
         id="stop10" /></linearGradient><linearGradient
       xlink:href="#linearGradient10"
       id="linearGradient5"
       x1="-104.64275"
       y1="176.5119"
       x2="3.3572464"
       y2="176.5119"
       gradientUnits="userSpaceOnUse"
       gradientTransform="matrix(1.1111003,0,0,1.0926539,120.26859,-126.86979)" /><linearGradient
       xlink:href="#linearGradient7"
       id="linearGradient12"
       x1="13.249702"
       y1="97.471466"
       x2="119.13086"
       y2="38.476562"
       gradientUnits="userSpaceOnUse" /><linearGradient
       xlink:href="#linearGradient13"
       id="linearGradient14"
       x1="26.839005"
       y1="89.846748"
       x2="101.36363"
       y2="33.966564"
       gradientUnits="userSpaceOnUse" /><linearGradient
       xlink:href="#linearGradient43"
       id="linearGradient44"
       x1="34.093185"
       y1="64.352524"
       x2="109.64448"
       y2="64.352524"
       gradientUnits="userSpaceOnUse" /><linearGradient
       xlink:href="#linearGradient43"
       id="linearGradient2"
       gradientUnits="userSpaceOnUse"
       x1="34.093185"
       y1="64.352524"
       x2="109.64448"
       y2="64.352524" /><linearGradient
       xlink:href="#linearGradient43"
       id="linearGradient3"
       gradientUnits="userSpaceOnUse"
       x1="34.093185"
       y1="64.352524"
       x2="109.64448"
       y2="64.352524" /><linearGradient
       xlink:href="#linearGradient43"
       id="linearGradient4"
       gradientUnits="userSpaceOnUse"
       x1="34.093185"
       y1="64.352524"
       x2="109.64448"
       y2="64.352524" /><linearGradient
       xlink:href="#linearGradient43"
       id="linearGradient6"
       gradientUnits="userSpaceOnUse"
       x1="34.093185"
       y1="64.352524"
       x2="109.64448"
       y2="64.352524" /><linearGradient
       xlink:href="#linearGradient43"
       id="linearGradient8"
       gradientUnits="userSpaceOnUse"
       x1="34.093185"
       y1="64.352524"
       x2="109.64448"
       y2="64.352524" /><linearGradient
       xlink:href="#linearGradient43"
       id="linearGradient9"
       gradientUnits="userSpaceOnUse"
       x1="34.093185"
       y1="64.352524"
       x2="109.64448"
       y2="64.352524" /></defs><path
     id="circle2-6"
     style="fill:url(#linearGradient5);stroke-width:0.343034"
     d="M 123.99883,65.996624 A 59.999416,59.003311 0 0 1 63.999413,124.99994 59.999416,59.003311 0 0 1 3.9999977,65.996624 59.999416,59.003311 0 0 1 63.999413,6.9933138 59.999416,59.003311 0 0 1 123.99883,65.996624 Z" /><path
     id="circle2"
     style="fill:#000000;fill-opacity:1;stroke-width:0.343034"
     d="M 123.99942,61.626012 A 59.999416,59.003311 0 0 1 64.000002,120.62932 59.999416,59.003311 0 0 1 4.0005839,61.626012 59.999416,59.003311 0 0 1 64.000002,2.6227007 59.999416,59.003311 0 0 1 123.99942,61.626012 Z" /><path
     d="m 64,15.623047 c 25.853203,5.3e-4 46.81197,20.662576 46.8125,46.15039 C 110.81428,87.262868 89.854841,107.9272 64,107.92773 38.145147,107.92722 17.1855,87.262879 17.1875,61.773437 17.18803,36.285611 38.146785,15.623561 64,15.623047 Z"
     style="display:inline;fill:url(#linearGradient14);stroke-width:2.11255"
     id="path1" /><g
     id="g43"
     style="fill:url(#linearGradient44)"><path
       id="path5-1-9"
       style="font-variation-settings:normal;opacity:1;vector-effect:none;fill:url(#linearGradient2);fill-opacity:1;stroke-width:2.84633;stroke-linecap:butt;stroke-linejoin:miter;stroke-miterlimit:4;stroke-dasharray:none;stroke-dashoffset:0;stroke-opacity:1;-inkscape-stroke:none;stop-color:#000000;stop-opacity:1"
       d="m 96.488281,23.365234 -1.3125,4.828125 c -0.883038,-0.0024 -1.762581,0.120357 -2.613281,0.359375 l -2.511719,-4.326172 -2.054687,1.175782 -2.056641,-0.822266 v 2 l 2.521485,4.333984 c -0.630509,0.614474 -1.172951,1.310282 -1.609376,2.072266 l -4.875,-1.283203 -0.644531,2.357422 -0.59375,0.175781 v 2 l 4.867188,1.28711 c -0.0069,0.875658 0.108818,1.739618 0.345703,2.582031 l -2.189453,1.259765 -2.191407,-0.738281 v 2 l 2.359376,4.054688 4.376953,-2.511719 c 0.616613,0.622242 1.315673,1.158838 2.082031,1.58789 l -0.716797,2.632813 -0.601563,0.207031 v 2 l 4.576172,1.203125 1.310547,-4.830078 c 0.883054,0.0024 1.764525,-0.120351 2.615235,-0.359375 l 2.511714,4.328125 4.11133,-2.353515 v -2 L 102.97266,46.476562 101.68164,44.25 c 0.63052,-0.614473 1.16519,-1.308294 1.60156,-2.070312 l 4.875,1.283203 1.23828,-4.535157 -4.86718,-1.285156 c 0.007,-0.875661 -0.10105,-1.7435 -0.33789,-2.585937 l 4.37304,-2.519532 -2.35937,-4.052734 -4.37696,2.509766 c -0.6166,-0.622242 -1.31572,-1.156867 -2.082026,-1.585938 l 1.318356,-4.841797 z m -1.332031,9.486328 a 4.6920658,4.7379271 75.00004 0 1 4.564453,3.470704 4.6920658,4.7379271 75.00004 0 1 -3.363281,5.757812 4.6920658,4.7379271 75.00004 0 1 -5.789063,-3.30664 4.6920658,4.7379271 75.00004 0 1 3.361329,-5.757813 4.6920658,4.7379271 75.00004 0 1 1.226562,-0.164063 z" /><path
       id="path3-1"
       style="fill:url(#linearGradient3);fill-opacity:1;stroke-width:2.84633"
       d="m 59.111328,44.015625 -4.180708,0.02554 0.03422,4.285003 c -1.059606,0.128147 -2.125857,0.34507 -3.148437,0.648437 l -1.685547,-3.955078 -1.708984,0.714844 -2.15625,-1.099609 v 2 l 1.681641,3.947265 c -0.931934,0.516541 -1.817926,1.110469 -2.648438,1.775391 l -3.080078,-3.009766 -1.322266,1.328125 -1.623046,-0.371093 v 2 l 3.076171,3.003906 c -0.658352,0.835349 -1.243794,1.72462 -1.75,2.658203 l -4.013671,-1.617188 -0.763672,1.859375 -0.816407,-0.0098 v 2 L 39,61.806641 c -0.283107,1.022782 -0.47782,2.067567 -0.582031,3.123047 l -4.324782,0.101313 0.02595,4.072518 4.314453,-0.02343 c 0.129187,1.049669 0.348071,2.086592 0.654297,3.09961 l -3.019532,1.261718 0.400391,-0.816406 -1.375,-0.777344 v 2 l 1.630859,3.828125 3.986329,-1.666015 c 0.521649,0.923006 1.121457,1.800503 1.792968,2.623046 L 41.125,80.015625 39.462891,79.683594 v 2 l 2.986328,2.917968 3.033203,-3.046874 c 0.844046,0.651149 1.742464,1.230056 2.685547,1.730468 l -0.767578,1.871094 -0.865235,0.105469 v 2 l 3.886719,1.564453 1.623047,-3.955078 c 1.032385,0.280223 2.09939,0.478718 3.164767,0.581915 l 0.02402,4.280083 4.184264,-0.01629 -0.0293,-4.285156 c 1.060207,-0.127401 2.107584,-0.343672 3.130859,-0.646485 l 1.683594,3.953125 3.865234,-1.613281 v -2 L 67.152341,84.97266 66.386716,83.177738 c 0.93268,-0.51707 1.81933,-1.111655 2.65039,-1.777343 l 3.078125,3.011718 2.947266,-2.957031 v -2 c 0,0 -1.825668,-0.04854 -1.962891,0.06055 l -0.002,0.002 -0.002,0.002 v 0.002 l -0.002,0.002 v 0.002 0.002 0.002 l 0.002,0.002 v 0.002 l -1.109375,-1.082031 c 0.657678,-0.835422 1.242465,-1.72469 1.748047,-2.658203 l 4.013672,1.615234 1.580078,-3.847656 v -2 L 77.609375,72 77.474609,72.814453 75.335938,71.953125 c 0.283107,-1.022782 0.47782,-2.067567 0.582031,-3.123047 l 4.33789,-0.02539 -0.02734,-4.154297 -4.328125,0.0293 c -0.128549,-1.049613 -0.346779,-2.086534 -0.652344,-3.09961 l 3.992187,-1.667969 v -2 l -0.86914,-0.04102 -0.761719,-1.78711 L 73.625,57.748047 C 73.102727,56.82497 72.502264,55.94747 71.830078,55.125 l 3.041016,-3.048828 v -2 l -2.091797,-0.04492 -0.894531,-0.873047 -3.033204,3.046875 c -0.84335,-0.651731 -1.741112,-1.231291 -2.683593,-1.732422 l 1.630859,-3.974609 v -2 l -1.408203,0.423828 -0.0098,1.005859 -2.466797,-0.99414 -1.623046,3.953125 c -1.033023,-0.28033 -2.088263,-0.473083 -3.154297,-0.576172 z m -1.90625,8.318359 c 1.957551,0.0069 3.893954,0.401312 5.695313,1.160157 2.844765,1.199987 5.234369,3.258765 6.828125,5.882812 l -11.44336,4.78125 -4.826172,-11.326172 c 1.202484,-0.318101 2.440932,-0.483489 3.685547,-0.492187 l 0.03516,-0.0039 z m -7.613281,2.105469 4.828125,11.333985 -11.4375,4.777343 c -0.320783,-1.190419 -0.487483,-2.416388 -0.496094,-3.648437 l -0.0078,-0.05859 c 0.0067,-1.939435 0.405167,-3.857939 1.171875,-5.642578 1.212059,-2.817269 3.291354,-5.183646 5.941406,-6.761719 z m 21.759765,8.767578 c 0.321608,1.190967 0.488966,2.417605 0.498047,3.650391 l 0.0039,0.0332 0.002,0.02539 c -0.007,1.938777 -0.405425,3.856592 -1.171875,5.640625 -1.211197,2.817712 -3.289813,5.184778 -5.939453,6.763671 L 59.916016,67.986328 Z M 56.050781,69.601562 60.875,80.925781 c -1.202484,0.318101 -2.440932,0.48349 -3.685547,0.492188 -0.01953,0.0026 -0.03905,0.0052 -0.05859,0.0078 -1.958209,-0.0066 -3.8953,-0.401059 -5.697265,-1.160156 -2.844765,-1.199987 -5.234369,-3.258765 -6.828125,-5.882813 z" /><path
       id="path4-3"
       style="fill:url(#linearGradient4);fill-opacity:1;stroke-width:2.84633"
       d="m 76.363281,81.384766 -0.08398,4.324218 c -1.148201,0.138838 -2.275811,0.411562 -3.359375,0.8125 l -2.105469,-3.773437 -2.238281,1.220703 -1.439453,-1.214844 v 2 l 2.105469,3.783203 c -0.926319,0.686581 -1.767441,1.479189 -2.50586,2.361329 l -3.716797,-2.222657 -1.083984,1.78125 -1.083985,-0.21875 v 2 l 3.726563,2.230469 c -0.449624,1.05638 -0.771521,2.161713 -0.958984,3.292969 l -4.398325,-0.0073 -0.06875,4.077601 4.394808,0.082 c 0.139423,1.13743 0.414115,2.25456 0.818359,3.32813 l -1.904296,1.04297 -1.904297,-0.95704 v 2 l 2.02539,3.64258 3.81836,-2.08593 c 0.694081,0.91708 1.495214,1.74968 2.386718,2.48046 l -1.457031,2.39063 c 4.081188,-0.62284 8.069486,-1.74062 11.875,-3.32813 -0.43619,0.0513 -0.875206,0.0755 -1.314453,0.0723 -2.053879,-0.0426 -4.049887,-0.68171 -5.740234,-1.83789 l 5.886718,-5.60938 5.302735,5.45899 c 4.997115,-2.60534 9.51593,-6.02483 13.367187,-10.115232 l -4.064453,-0.07813 C 92.503002,97.18159 92.228312,96.06513 91.824219,94.992188 l 3.810547,-2.085938 v -2 l -1.123047,-0.01953 -0.904297,-1.623047 -3.81836,2.085937 c -0.693473,-0.916974 -1.493946,-1.749571 -2.384765,-2.480468 l 1.498047,-2.458985 0.74414,0.476563 v -1.699219 -2 l -1.402343,1.162109 -2.19336,-1.308593 -2.251953,3.689453 c -1.066427,-0.445038 -2.182245,-0.763656 -3.324219,-0.94922 l 0.08398,-4.316406 z m 1.935547,8.347656 c 2.054083,0.04322 4.050108,0.682975 5.740234,1.839844 l -5.886718,5.607422 -5.664063,-5.830079 c 1.734985,-1.091284 3.755525,-1.653639 5.810547,-1.617187 z m -8.832031,4.498047 5.662109,5.830081 -5.886718,5.60742 c -1.101439,-1.71754 -1.669209,-3.71764 -1.632813,-5.751954 0.04335,-2.034459 0.689225,-4.011488 1.857422,-5.685547 z m 17.480469,0.333984 c 1.101811,1.718098 1.669596,3.71893 1.632812,5.753907 -0.04335,2.03446 -0.689224,4.01149 -1.857422,5.68555 l -5.662109,-5.83008 z" /><path
       id="path5-2"
       style="fill:url(#linearGradient6);fill-opacity:1;stroke-width:2.84633"
       d="m 91.660156,63.777344 v 2 l 1.16211,4.285156 c -0.680046,0.38103 -1.303699,0.85068 -1.851563,1.402344 l -3.875,-2.214844 -0.960937,1.648438 -1.136719,-0.05273 v 2 l 3.867187,2.214844 c -0.206516,0.747329 -0.304473,1.512361 -0.294922,2.287109 L 86.408203,77.923828 84.244141,76.5 v 2 l 1.089843,4.007812 4.31836,-1.142578 c 0.384758,0.673466 0.860872,1.291424 1.417968,1.833985 l -0.861328,1.476562 -1.375,0.361328 v 2 l 3.636719,2.076172 2.228516,-3.830078 c 0.754649,0.204495 1.536032,0.302429 2.318359,0.292969 l 1.15625,4.27539 3.201172,-0.845703 0.85352,-0.224609 v -2 l -0.91016,-1.380859 -0.002,-0.002 -0.24219,-0.902344 c 0.68005,-0.381031 1.29593,-0.850638 1.84375,-1.402344 l 3.875,2.214844 2.09765,-3.595703 -3.86718,-2.214844 c 0.2065,-0.747336 0.31222,-1.512352 0.30273,-2.287109 l 4.31836,-1.152344 -1.08984,-4.007813 -4.31836,1.142578 c -0.38476,-0.673469 -0.86091,-1.291419 -1.41797,-1.833984 l 2.23828,-3.837891 v -2 l -2.52734,0.558594 -1.11133,-0.634766 -2.228517,3.830079 c -0.754634,-0.204495 -1.536037,-0.30243 -2.318359,-0.292969 l -1.15625,-4.275391 -3.359375,0.886719 0.488281,-1.40625 z m 5.357422,9.335937 a 4.1949925,4.1543866 0 0 1 4.195312,4.154297 4.1949925,4.1543866 0 0 1 -4.195312,4.154297 4.1949925,4.1543866 0 0 1 -4.195312,-4.154297 4.1949925,4.1543866 0 0 1 4.195312,-4.154297 z" /><path
       id="path6-7"
       style="display:inline;fill:url(#linearGradient8);fill-opacity:1;stroke-width:2.84633"
       d="m 59.265625,14.949219 a 50.339912,49.852641 0 0 0 -15.617187,2.523437 l 1.638671,1.623047 a 14.682474,14.540354 0 0 0 -1.746093,2.960938 l -4.19336,-1.111329 -0.527344,1.955079 -0.52539,-0.04883 -0.0293,2.111329 4.203125,1.11914 a 14.682474,14.540354 0 0 0 0,3.423828 L 39.650391,30.253906 39.640625,29.25 38.257812,28.625 v 2 l 1.089844,4.009766 4.21875,-1.121094 a 14.682474,14.540354 0 0 0 1.720703,2.970703 l -0.880859,0.873047 -2.199219,0.177734 v 2 l 2.964844,2.945313 3.089844,-3.050781 a 14.682474,14.540354 0 0 0 2.982422,1.728515 l -0.5625,2.076172 -0.457032,0.0039 -0.271484,0.605469 0.521484,0.160156 -0.353515,1.308594 4.05664,1.070312 1.13086,-4.162109 a 14.682474,14.540354 0 0 0 3.464844,-0.0078 l 1.123046,4.169921 4.054688,-1.070312 -0.146484,-0.542969 0.109374,0.164063 0.44336,-1.126953 -0.541016,-0.638672 -0.421875,0.08789 -0.574219,-2.123047 a 14.682474,14.540354 0 0 0 3,-1.705078 l 3.080079,3.052735 2.974609,-2.945313 v -2 l -1.544922,0.472656 -1.544922,-1.52539 A 14.682474,14.540354 0 0 0 70.53125,33.52149 l 4.195312,1.119141 1.089844,-4.023437 v -2 l -0.996094,1.015624 0.166016,0.765626 -3.382812,-0.892579 a 14.682474,14.540354 0 0 0 0,-3.433593 l 4.21289,-1.111328 v -2 l -0.5625,-0.07422 -0.527344,-1.941407 -4.21289,1.119141 a 14.682474,14.540354 0 0 0 -1.71875,-2.96875 l 2.628906,-2.613281 0.126953,-1.236328 -2.90625,0.02344 0.105469,0.628907 a 50.339912,49.852641 0 0 0 -2.298828,-0.38086 L 65.8125,16.150391 A 14.682474,14.540354 0 0 0 64.369141,15.208984 50.339912,49.852641 0 0 0 59.265625,14.949219 Z M 57.4375,17.416016 a 10.487482,10.385967 0 0 1 2.917969,0.527343 l -4.089844,7.011719 -7.070313,-4.048828 a 10.487482,10.385967 0 0 1 5.128907,-3.148438 10.487482,10.385967 0 0 1 3.113281,-0.341796 z m 6.546875,2.605468 a 10.487482,10.385967 0 0 1 3.1875,5.078125 10.487482,10.385967 0 0 1 -0.197266,5.972657 L 59.904297,27.03125 Z m -16.886719,4.486328 7.070313,4.041016 -4.080078,7.009766 a 10.487482,10.385967 0 0 1 -3.179688,-5.078125 10.487482,10.385967 0 0 1 0.189453,-5.972657 z m 10.708985,6.119141 7.070312,4.048828 a 10.487482,10.385967 0 0 1 -5.128906,3.148438 10.487482,10.385967 0 0 1 -6.03125,-0.1875 z" /><path
       id="path59-3"
       style="font-variation-settings:normal;opacity:1;vector-effect:none;fill:url(#linearGradient9);fill-opacity:1;stroke-width:2.84633;stroke-linecap:butt;stroke-linejoin:miter;stroke-miterlimit:4;stroke-dasharray:none;stroke-dashoffset:0;stroke-opacity:1;-inkscape-stroke:none;stop-color:#000000;stop-opacity:1"
       d="m 20.957031,59.294922 -1.800781,0.173828 -0.201172,0.785156 -1.564453,-0.8125 -4.220703,5.226563 3.623047,21.433593 9.439453,4.947266 a 21.875637,21.66389 86.13662 0 0 0.779297,-4.099609 L 33.4375,86.642578 v -2 l -0.09766,-0.03125 -0.205078,-4.210937 v -0.002 l -6.435547,0.308593 a 21.875637,21.66389 86.13662 0 0 -1.544922,-4.912109 l 5.398437,-3.509766 v -2 L 29.037105,69.90425 27.201168,67.019484 21.791012,70.52925 A 21.875637,21.66389 86.13662 0 0 18.02734,67.042922 l 2.929687,-5.748047 z" /></g><g
     id="g11"
     transform="matrix(2.2263471,0,0,2.2047969,-12.241315,-6.9384433)"><path
       style="fill:#ca9159;stroke-width:1.28471"
       d="m 26.279593,23.391321 0.755299,1.790227 a 8.4791213,8.4791213 0 0 0 -1.189932,0.805609 l -1.383049,-1.365722 -1.323437,1.341243 1.381614,1.362318 a 8.4791213,8.4791213 0 0 0 -0.785307,1.206069 l -1.803177,-0.73311 -0.709581,1.745313 1.793522,0.729183 a 8.4791213,8.4791213 0 0 0 -0.261211,1.416342 l -1.948479,0.01131 0.01208,1.884215 1.943667,-0.0131 a 8.4791213,8.4791213 0 0 0 0.293608,1.405948 l -1.793696,0.75677 0.73245,1.736062 1.790226,-0.755303 a 8.4791213,8.4791213 0 0 0 0.805611,1.189935 l -1.365719,1.383047 1.341239,1.323439 1.362318,-1.381613 a 8.4791213,8.4791213 0 0 0 1.206068,0.785307 l -0.733111,1.803175 1.745315,0.709584 0.729184,-1.793523 a 8.4791213,8.4791213 0 0 0 1.416341,0.26121 l 0.01131,1.94848 1.884214,-0.01208 -0.0131,-1.943668 a 8.4791213,8.4791213 0 0 0 1.405953,-0.293612 l 0.756766,1.793698 1.736064,-0.73245 -0.755302,-1.790227 a 8.4791213,8.4791213 0 0 0 1.189936,-0.80561 l 1.383048,1.365721 1.323436,-1.341243 -1.381614,-1.362318 a 8.4791213,8.4791213 0 0 0 0.785252,-1.206011 l 1.803174,0.733111 0.709582,-1.745313 -1.793521,-0.729186 a 8.4791213,8.4791213 0 0 0 0.261211,-1.416339 l 1.948476,-0.01131 -0.01208,-1.884215 -1.943667,0.0131 a 8.4791213,8.4791213 0 0 0 -0.293541,-1.405975 l 1.793698,-0.756766 -0.732452,-1.736062 -1.790226,0.755302 a 8.4791213,8.4791213 0 0 0 -0.805693,-1.18997 l 1.365718,-1.383046 -1.34124,-1.323436 -1.362317,1.381609 a 8.4791213,8.4791213 0 0 0 -1.20601,-0.785305 l 0.733109,-1.803174 -1.745317,-0.709584 -0.729181,1.793522 A 8.4791213,8.4791213 0 0 0 32.06078,24.151687 l -0.01131,-1.948476 -1.884215,0.01208 0.0131,1.943667 a 8.4791213,8.4791213 0 0 0 -1.40595,0.293613 l -0.75675,-1.79364 z m 1.493538,3.540002 2.168713,5.140307 -5.13701,2.16732 a 6.5948721,6.5948721 0 0 1 -0.223103,-1.655383 6.5948721,6.5948721 0 0 1 -0.0033,-0.02665 6.5948721,6.5948721 0 0 1 0.526188,-2.558717 6.5948721,6.5948721 0 0 1 2.668366,-3.067027 z m 1.737529,-0.728974 a 6.5948721,6.5948721 0 0 1 1.655386,-0.223103 6.5948721,6.5948721 0 0 1 0.01516,-0.0022 l 0.01156,-8.49e-4 a 6.5948721,6.5948721 0 0 1 2.55861,0.525945 6.5948721,6.5948721 0 0 1 3.067032,2.668366 l -5.140307,2.16871 z m -3.976674,9.774056 5.140308,-2.168713 2.167319,5.137011 a 6.5948721,6.5948721 0 0 1 -1.655384,0.223104 6.5948721,6.5948721 0 0 1 -0.02665,0.0033 6.5948721,6.5948721 0 0 1 -2.558713,-0.526191 6.5948721,6.5948721 0 0 1 -3.067027,-2.668362 z m 6.876368,-2.901163 5.137011,-2.16732 a 6.5948721,6.5948721 0 0 1 0.223104,1.655387 6.5948721,6.5948721 0 0 1 0.0022,0.01516 l 8.49e-4,0.01157 a 6.5948721,6.5948721 0 0 1 -0.526014,2.55864 6.5948721,6.5948721 0 0 1 -2.668364,3.067031 z"
       id="path3" /><path
       style="fill:#ca9159;stroke-width:1.28471"
       d="m 39.798421,39.15277 -0.03802,1.961135 a 6.5948721,6.5948721 0 0 0 -1.508944,0.368278 l -0.945919,-1.711544 -1.651961,0.910266 0.945848,1.715219 a 6.5948721,6.5948721 0 0 0 -1.125043,1.071403 l -1.669962,-1.007815 -0.973627,1.615429 1.673583,1.011562 a 6.5948721,6.5948721 0 0 0 -0.430174,1.493461 l -1.957554,-0.03798 -0.03654,1.883897 1.961133,0.03802 a 6.5948721,6.5948721 0 0 0 0.368276,1.508944 l -1.711543,0.945917 0.910267,1.651959 1.715217,-0.945849 a 6.5948721,6.5948721 0 0 0 1.071404,1.125043 l -0.654133,1.084213 a 22.61099,22.61099 0 0 0 5.333475,-1.508796 4.7106229,4.7106229 0 0 1 -0.589577,0.03276 4.7106229,4.7106229 0 0 1 -2.578922,-0.834043 l 2.644427,-2.543817 2.381437,2.47562 a 22.61099,22.61099 0 0 0 6.004168,-4.587726 l -1.825023,-0.03541 A 6.5948721,6.5948721 0 0 0 46.742435,45.32398 l 1.711547,-0.945915 -0.910267,-1.651961 -1.715219,0.945846 A 6.5948721,6.5948721 0 0 0 44.75709,42.546919 l 1.007818,-1.669968 -1.615429,-0.973627 -1.011564,1.673589 a 6.5948721,6.5948721 0 0 0 -1.493459,-0.430174 l 0.03798,-1.957557 -1.883894,-0.03654 z m 0.868883,3.786059 a 4.7106229,4.7106229 0 0 1 2.57893,0.83404 l -2.644432,2.543821 -2.543816,-2.644428 a 4.7106229,4.7106229 0 0 1 2.609318,-0.733433 z m -3.967059,2.03948 2.543819,2.64443 -2.644428,2.543816 A 4.7106229,4.7106229 0 0 1 35.8662,47.557234 4.7106229,4.7106229 0 0 1 36.700245,44.978309 Z m 7.852073,0.152265 a 4.7106229,4.7106229 0 0 1 0.733432,2.609321 4.7106229,4.7106229 0 0 1 -0.834042,2.578924 L 41.90789,47.674394 Z"
       id="path4" /><path
       style="fill:#ca9159;stroke-width:1.28471"
       d="m 48.490441,31.587994 -1.82169,0.485779 0.522577,1.94304 c -0.305454,0.172819 -0.585643,0.386458 -0.831725,0.636669 l -1.740728,-1.004683 -0.942123,1.630329 1.737051,1.004681 c -0.09276,0.338956 -0.136771,0.686413 -0.132481,1.037805 l -1.943035,0.522579 0.48947,1.817998 1.939458,-0.518902 c 0.17282,0.305455 0.38644,0.585643 0.636669,0.831725 l -1.004681,1.740727 1.634002,0.942123 1.001005,-1.737032 c 0.338963,0.09275 0.690088,0.13677 1.041483,0.132479 l 0.518902,1.939458 1.821693,-0.485779 -0.518904,-1.943037 c 0.305456,-0.172819 0.581971,-0.386439 0.828035,-0.636669 l 1.740725,1.004681 0.942126,-1.630327 -1.737054,-1.004681 c 0.09275,-0.338959 0.140445,-0.686413 0.136181,-1.037809 l 1.939456,-0.522575 -0.489472,-1.818001 -1.939456,0.518904 C 52.145104,35.13202 51.931467,34.851834 51.681256,34.60575 l 1.004683,-1.740726 -1.634004,-0.942126 -1.001006,1.737055 c -0.338956,-0.09275 -0.690087,-0.136772 -1.04148,-0.132481 l -0.518904,-1.939454 z m 0.585155,3.81259 a 1.8842491,1.8842491 0 0 1 1.884248,1.884252 1.8842491,1.8842491 0 0 1 -1.884248,1.884248 1.8842491,1.8842491 0 0 1 -1.884248,-1.884248 1.8842491,1.8842491 0 0 1 1.884248,-1.884252 z"
       id="path5" /><path
       style="fill:#ca9159;stroke-width:1.45098"
       d="m 45.94627,13.227627 -1.846729,1.06767 1.132586,1.965489 c -0.283203,0.278698 -0.527028,0.594469 -0.723055,0.940072 l -2.189873,-0.582232 -0.55584,2.056681 2.185861,0.583315 c -0.0031,0.397161 0.0495,0.789207 0.155901,1.171289 l -1.968455,1.143635 1.06027,1.838849 1.965616,-1.138569 c 0.276962,0.282222 0.59112,0.524835 0.935342,0.719435 l -0.592129,2.195584 2.055331,0.545486 0.589188,-2.190469 c 0.396638,0.0011 0.792438,-0.05448 1.174548,-0.162891 l 1.127538,1.962666 1.846732,-1.067672 -1.128577,-1.96657 c 0.283205,-0.278698 0.523026,-0.593364 0.719029,-0.938982 l 2.189869,0.582231 0.555845,-2.056681 -2.185864,-0.583314 c 0.003,-0.397162 -0.04549,-0.790291 -0.151867,-1.172384 l 1.964551,-1.142576 -1.060272,-1.838851 -1.965614,1.13857 C 50.959239,16.015186 50.645063,15.77258 50.30086,15.577972 l 0.592131,-2.195583 -2.055334,-0.545488 -0.589183,2.190494 c -0.396631,-0.0011 -0.792438,0.05448 -1.174544,0.162888 l -1.12754,-1.962661 z m 1.742064,3.986584 a 2.1227662,2.1334813 37.499661 0 1 2.601069,1.499427 2.1227662,2.1334813 37.499661 0 1 -1.510136,2.611782 2.1227662,2.1334813 37.499661 0 1 -2.601068,-1.499421 2.1227662,2.1334813 37.499661 0 1 1.510135,-2.611788 z"
       id="path5-1" /><path
       style="display:inline;fill:#ca9159;stroke-width:1.28471"
       d="m 32.118202,9.0203438 a 22.61099,22.61099 0 0 0 -7.014494,1.1445312 l 0.736023,0.736026 a 6.5948721,6.5948721 0 0 0 -0.783884,1.343262 l -1.884248,-0.504187 -0.485778,1.821691 1.888017,0.507862 a 6.5948721,6.5948721 0 0 0 0,1.553034 l -1.891597,0.507863 0.489451,1.817997 1.895366,-0.50786 a 6.5948721,6.5948721 0 0 0 0.772844,1.346936 l -1.383754,1.383755 1.332222,1.335895 1.387427,-1.383753 a 6.5948721,6.5948721 0 0 0 1.339589,0.783884 l -0.504188,1.884248 1.821691,0.485779 0.507863,-1.888017 a 6.5948721,6.5948721 0 0 0 1.556711,-0.0039 l 0.504186,1.891599 1.821693,-0.485778 -0.507863,-1.895367 a 6.5948721,6.5948721 0 0 0 1.346936,-0.772843 l 1.383757,1.383754 1.335895,-1.335891 -1.387431,-1.383758 a 6.5948721,6.5948721 0 0 0 0.783887,-1.343264 l 1.884249,0.507864 0.489453,-1.825367 -1.891598,-0.504188 a 6.5948721,6.5948721 0 0 0 0,-1.556709 l 1.891598,-0.504103 -0.489453,-1.821691 -1.891597,0.507862 A 6.5948721,6.5948721 0 0 0 36.398331,10.900619 L 37.57966,9.7155945 A 22.61099,22.61099 0 0 0 35.345882,9.2776569 L 35.058836,9.5647034 A 6.5948721,6.5948721 0 0 0 34.411126,9.1378079 22.61099,22.61099 0 0 0 32.118372,9.0200381 Z m -0.820685,1.1187742 a 4.7106229,4.7106229 0 0 1 1.310137,0.239206 l -1.83641,3.17967 -3.175899,-1.836407 a 4.7106229,4.7106229 0 0 1 2.303871,-1.427904 4.7106229,4.7106229 0 0 1 1.39847,-0.154564 z m 2.94037,1.18133 a 4.7106229,4.7106229 0 0 1 1.431596,2.303871 4.7106229,4.7106229 0 0 1 -0.08832,2.708606 l -3.175909,-1.832733 1.832733,-3.17967 z m -7.584856,2.035177 3.175901,1.832733 -1.832733,3.179669 a 4.7106229,4.7106229 0 0 1 -1.427903,-2.303868 4.7106229,4.7106229 0 0 1 0.08462,-2.708609 z m 4.809925,2.774932 3.175899,1.836408 a 4.7106229,4.7106229 0 0 1 -2.303869,1.427904 4.7106229,4.7106229 0 0 1 -2.708607,-0.08463 l 1.836405,-3.17967 z"
       id="path6" /><path
       id="path59"
       style="fill:#ca9159;stroke-width:1.91411"
       d="m 17.390625,57.441406 -4.220703,5.226563 3.623047,21.433593 9.439453,4.947266 a 21.875637,21.66389 86.13662 0 0 0.779297,-4.099609 L 33.4375,84.642578 33.134766,78.400391 v -0.002 l -6.435547,0.308593 a 21.875637,21.66389 86.13662 0 0 -1.544922,-4.912109 l 5.398437,-3.509766 -3.351562,-5.265625 -5.410156,3.509766 a 21.875637,21.66389 86.13662 0 0 -3.763672,-3.486328 l 2.929687,-5.748047 z"
       transform="matrix(0.44916626,0,0,0.45355652,5.4983857,3.1469762)" /></g><path
     id="path7"
     style="display:inline;fill:url(#linearGradient12);stroke-width:2.12764"
     d="M 64,2.6230469 C 30.863237,2.6230517 3.9999998,29.105002 4,61.773438 c -2.8e-6,32.668439 26.863235,59.152342 60,59.152342 0.142026,0 0.283979,-9.2e-4 0.425781,-0.002 a 59.151443,59.151443 0 0 0 0.0039,0 c 0.753803,-0.005 1.487424,-0.0868 2.234374,-0.11914 a 59.151443,59.151443 0 0 0 4.007813,-0.26563 c 1.638367,-0.1789 3.263507,-0.40268 4.859375,-0.70898 a 59.151443,59.151443 0 0 0 0.208984,-0.043 c 16.071288,-3.14359 29.816053,-12.62239 38.482423,-25.677735 a 59.151443,59.151443 0 0 0 0.56054,-0.857422 c 0.81858,-1.280811 1.59534,-2.589035 2.31446,-3.933594 a 59.151443,59.151443 0 0 0 2.0332,-4.248047 c 0.44177,-1.014618 0.828,-2.054711 1.21289,-3.097656 a 59.151443,59.151443 0 0 0 1.45313,-4.46875 c 0.20207,-0.722976 0.39761,-1.447854 0.57226,-2.18164 a 59.151443,59.151443 0 0 0 1.23633,-6.732422 C 123.8657,66.35357 124,64.078459 124,61.773438 c 0,-2.305808 -0.13412,-4.579366 -0.39453,-6.816407 a 59.151443,59.151443 0 0 0 -1.24219,-6.753906 C 122.19223,47.485803 122,46.777301 121.80273,46.070312 A 59.151443,59.151443 0 0 0 120.33984,41.5625 c -0.3837,-1.038937 -0.76883,-2.075118 -1.20898,-3.085938 a 59.151443,59.151443 0 0 0 -2.0332,-4.248046 c -0.72412,-1.353815 -1.50711,-2.671773 -2.33204,-3.960938 a 59.151443,59.151443 0 0 0 -0.52343,-0.802734 C 105.58083,16.401132 91.834968,6.9157613 75.761719,3.765625 A 59.151443,59.151443 0 0 0 75.515625,3.7148438 C 73.926657,3.4102931 72.308821,3.1860842 70.677734,3.0078125 A 59.151443,59.151443 0 0 0 66.640625,2.7421875 C 65.901456,2.7104307 65.175562,2.6301545 64.429688,2.625 64.286656,2.6240116 64.143267,2.6230469 64,2.6230469 Z m 0,13.0000001 c 25.853215,5.14e-4 46.81197,20.662565 46.8125,46.150391 C 110.8145,87.262879 89.854853,107.92722 64,107.92773 38.145159,107.9272 17.185716,87.262869 17.1875,61.773438 17.188032,36.285623 38.146797,15.623577 64,15.623047 Z" /></svg>
