<?xml version="1.0" encoding="UTF-8" standalone="no"?>
<svg
   height="128px"
   viewBox="0 0 128 128"
   width="128px"
   version="1.1"
   id="svg26"
   sodipodi:docname="org.altlinux.timeshift-ver3.svg"
   inkscape:version="1.4 (e7c3feb100, 2024-10-09)"
   xmlns:inkscape="http://www.inkscape.org/namespaces/inkscape"
   xmlns:sodipodi="http://sodipodi.sourceforge.net/DTD/sodipodi-0.dtd"
   xmlns:xlink="http://www.w3.org/1999/xlink"
   xmlns="http://www.w3.org/2000/svg"
   xmlns:svg="http://www.w3.org/2000/svg">
  <defs
     id="defs26">
    <linearGradient
       id="linearGradient17"
       gradientUnits="userSpaceOnUse"
       x1="36.00789"
       x2="36.00789"
       y1="-3.13704"
       y2="147.100723">
      <stop
         offset="0"
         stop-color="#dc8add"
         id="stop15"
         style="stop-color:#ffffff;stop-opacity:1" />
      <stop
         offset="0.08468997"
         stop-color="#dc8add"
         id="stop20"
         style="stop-color:#dc8add;stop-opacity:1" />
      <stop
         offset="0.20468383"
         stop-color="#99c1f1"
         id="stop16"
         style="stop-color:#9141ac;stop-opacity:1" />
      <stop
         offset="0.65550447"
         stop-color="#99c1f1"
         id="stop18"
         style="stop-color:#9141ac;stop-opacity:1" />
      <stop
         offset="0.9071517"
         stop-color="#99c1f1"
         id="stop19"
         style="stop-color:#c061cb;stop-opacity:1" />
      <stop
         offset="1"
         stop-color="#9141ac"
         id="stop17"
         style="stop-color:#ffffff;stop-opacity:1" />
    </linearGradient>
    <linearGradient
       inkscape:collect="always"
       xlink:href="#linearGradient17"
       id="linearGradient15"
       x1="36.007812"
       y1="87.25415"
       x2="92.023438"
       y2="87.25415"
       gradientUnits="userSpaceOnUse"
       gradientTransform="matrix(1.022062,0,0,1.022062,-1.9808293,-2.5268445)" />
  </defs>
  <sodipodi:namedview
     id="namedview26"
     pagecolor="#505050"
     bordercolor="#eeeeee"
     borderopacity="1"
     inkscape:showpageshadow="0"
     inkscape:pageopacity="0"
     inkscape:pagecheckerboard="0"
     inkscape:deskcolor="#505050"
     inkscape:zoom="4.9552718"
     inkscape:cx="52.570275"
     inkscape:cy="58.220822"
     inkscape:window-width="1920"
     inkscape:window-height="1128"
     inkscape:window-x="0"
     inkscape:window-y="0"
     inkscape:window-maximized="1"
     inkscape:current-layer="svg26"
     showgrid="true">
    <inkscape:grid
       id="grid20"
       units="px"
       originx="0"
       originy="0"
       spacingx="1"
       spacingy="1"
       empcolor="#0099e5"
       empopacity="0.30196078"
       color="#0099e5"
       opacity="0.14901961"
       empspacing="5"
       enabled="true"
       visible="true" />
  </sodipodi:namedview>
  <linearGradient
     id="a"
     gradientTransform="matrix(1 0 0 1.024014 -7.999999 -17.16906)"
     gradientUnits="userSpaceOnUse"
     x1="16"
     x2="128.03156"
     y1="88.934387"
     y2="88.93438">
    <stop
       offset="0"
       stop-color="#a51d2d"
       id="stop1"
       style="stop-color:#c061cb;stop-opacity:1" />
    <stop
       offset="0.06248239"
       stop-color="#a51d2d"
       id="stop21"
       style="stop-color:#a51d2d;stop-opacity:1" />
    <stop
       offset="0.95508802"
       stop-color="#a51d2d"
       id="stop22"
       style="stop-color:#813d9c;stop-opacity:1" />
    <stop
       offset="1"
       stop-color="#813d9c"
       id="stop2"
       style="stop-color:#c061cb;stop-opacity:1" />
  </linearGradient>
  <linearGradient
     id="b"
     gradientUnits="userSpaceOnUse"
     x1="64.015779"
     x2="64.015779"
     y1="13.918212"
     y2="164.310318">
    <stop
       offset="0"
       stop-color="#f66151"
       id="stop3" />
    <stop
       offset="1"
       stop-color="#9141ac"
       id="stop4" />
  </linearGradient>
  <linearGradient
     id="c"
     gradientTransform="matrix(1,0,0,1.024654,-7.998562,-13.289348)"
     gradientUnits="userSpaceOnUse"
     x1="7.9985619"
     x2="72.998566"
     y1="88.843346"
     y2="88.843346">
    <stop
       offset="0"
       stop-color="#3584e4"
       id="stop5"
       style="stop-color:#c061cb;stop-opacity:1" />
    <stop
       offset="0.30769229"
       stop-color="#3584e4"
       id="stop13"
       style="stop-color:#1c71d8;stop-opacity:1" />
    <stop
       offset="1"
       stop-color="#813d9c"
       id="stop6" />
  </linearGradient>
  <linearGradient
     id="d"
     gradientUnits="userSpaceOnUse"
     x1="36.00789"
     x2="36.00789"
     y1="-3.13704"
     y2="147.100723"
     gradientTransform="translate(0.00143796)">
    <stop
       offset="0"
       stop-color="#dc8add"
       id="stop7" />
    <stop
       offset="0.402353"
       stop-color="#99c1f1"
       id="stop8" />
    <stop
       offset="1"
       stop-color="#9141ac"
       id="stop9" />
  </linearGradient>
  <linearGradient
     id="e"
     gradientUnits="userSpaceOnUse"
     x1="65.01577554126"
     x2="65.015778"
     y1="40.97219769083"
     y2="219.82774"
     gradientTransform="matrix(0.92382738,0,0,0.92382738,3.3833841,6.6149342)">
    <stop
       offset="0"
       stop-color="#f6f5f4"
       id="stop10" />
    <stop
       offset="0.111757"
       stop-color="#ffffff"
       id="stop11" />
    <stop
       offset="1"
       stop-color="#dc8add"
       id="stop12" />
  </linearGradient>
  <path
     d="m 14.363281 29.867188 h 99.304688 c 3.515625 0 6.363281 2.851562 6.363281 6.363281 v 75.339843 c 0 3.515626 -2.847656 6.363282 -6.363281 6.363282 h -99.304688 c -3.515625 0 -6.363281 -2.847656 -6.363281 -6.363282 v -75.339843 c 0 -3.511719 2.847656 -6.363281 6.363281 -6.363281 z m 0 0"
     fill="url(#a)"
     id="path12"
     style="fill:url(#a)" />
  <path
     d="m 14.078125 27.867188 h 99.875 c 3.355469 0 6.078125 2.722656 6.078125 6.078124 v 71.976563 c 0 3.355469 -2.722656 6.078125 -6.078125 6.078125 h -99.875 c -3.355469 0 -6.078125 -2.722656 -6.078125 -6.078125 v -71.976563 c 0 -3.355468 2.722656 -6.078124 6.078125 -6.078124 z m 0 0"
     fill="url(#b)"
     id="path13" />
  <path
     d="m 8.001438,37.55469 h 55.617188 c 0.21875,0 0.398437,0.183593 0.398437,0.40625 v 79.97265 h -49.9375 c -3.355469,0 -6.078125,-2.78906 -6.078125,-6.22656 z m 0,0"
     fill="url(#c)"
     id="path14"
     style="fill:url(#c)" />
  <path
     d="m 8.001438,33.554684 h 55.617188 c 0.21875,0 0.398437,0.179687 0.398437,0.398437 V 112 h -49.9375 c -3.355469,0 -6.078125,-2.72266 -6.078125,-6.07813 z m 0,0"
     fill="url(#d)"
     id="path15"
     style="fill:url(#d)" />
  <path
     d="m 13.6875,24.870533 h 100.52734 c 3.19532,0 5.78516,2.589843 5.78516,5.789062 v 4.258374 H 8 v -4.359936 c 0,-3.140626 2.546875,-5.6875 5.6875,-5.6875 z"
     fill="#241f31"
     id="path16"
     sodipodi:nodetypes="sssccss" />
  <path
     d="m 62.114989,45.137814 c -5.355312,0.06857 -10.624015,1.587828 -15.199848,4.399006 -0.64235,0.393349 -1.587828,0.295913 -1.930655,-0.371696 -0.407783,-0.793915 -0.761436,-1.692482 -1.403784,-2.049743 -2.179656,-1.201697 -5.521313,0.902175 -6.621967,3.269483 -2.064176,4.442311 -3.316396,10.55545 -0.501609,18.801331 0.270653,0.797523 1.082611,1.94148 2.558568,1.99922 6.398228,0.115478 11.47567,-0.855262 15.968502,-4.828441 1.288306,-1.136741 2.468351,-3.150397 2.320394,-4.543355 h 0.0036 v -1.678045 l -0.588219,0.559348 c -0.0072,-0.0073 -0.01444,-0.01443 -0.01804,-0.02166 -0.588218,-0.541305 -1.450697,-0.945479 -2.197698,-1.414611 -0.64235,-0.400565 -0.523263,-1.169218 0.169608,-1.486784 4.727399,-2.168829 10.281189,-2.324004 15.326152,-0.09382 8.065446,3.569004 12.511366,12.197406 10.735885,20.836637 -1.104263,5.387789 -4.420659,9.960013 -9.324882,12.298451 -2.291526,1.396568 -3.720572,3.132352 -3.72418,5.810009 -0.03609,3.565396 1.72135,5.178496 4.669659,5.232616 1.356871,0.0613 3.594266,-0.63152 4.698528,-1.19087 C 84.568324,96.597885 89.6602,89.514006 91.46816,80.715995 94.264902,67.093149 87.152153,53.286259 74.431484,47.660296 70.458305,45.902858 66.257777,45.087291 62.114989,45.137814 Z m -21.980597,29.46865 c -0.108262,-0.0036 -0.22013,-0.0036 -0.335609,0.0036 -2.060568,0.06495 -3.63757,1.382132 -4.225789,3.081831 l -0.249,0.01082 v 1.681655 c 0.108261,2.370917 1.955916,3.706136 5.41666,3.283918 2.670438,-0.324784 3.615917,-1.782699 3.785527,-3.283918 h 0.0036 l 0.0036,-0.166 c 0.01804,-0.220132 0.02166,-0.436653 0.01082,-0.653176 l 0.01443,-1.309957 -0.285087,0.01444 c -0.422218,-1.057349 -1.519262,-2.623525 -4.13918,-2.663221 z m 2.16522,9.010924 c -2.082219,-0.03248 -4.251048,0.559349 -5.24705,2.194091 h -0.559348 v 1.681654 h 0.01082 c -0.147955,1.309959 0.191263,2.91944 1.08622,3.799962 1.660003,1.515654 3.756658,1.667221 5.734226,0.840827 1.743002,-0.779479 3.154005,-2.27348 3.215352,-4.586657 v -1.735786 h -0.339218 c -0.501609,-1.154784 -1.58422,-1.952308 -3.410222,-2.172438 -0.162391,-0.01082 -0.324782,-0.01804 -0.490784,-0.02166 z m 7.621577,6.575054 c -2.259046,-0.0397 -4.886181,1.512046 -5.687313,3.803571 -0.671218,1.829611 -0.180434,4.157224 1.255828,5.557396 1.432654,1.461521 3.987614,1.833221 5.799183,0.988791 2.006437,-1.255829 3.110699,-3.879358 3.002439,-6.181708 -0.01804,-1.804351 -1.068176,-2.825613 -2.605483,-3.742223 -0.526869,-0.277871 -1.133131,-0.415001 -1.764654,-0.425827 z m 10.898276,3.085439 c -3.013266,0 -5.459964,2.490003 -5.459964,5.564614 0,3.074615 2.446698,5.564625 5.459964,5.564625 3.016873,0.004 5.463573,-2.49001 5.463573,-5.564625 0,-3.074611 -2.4467,-5.564614 -5.463573,-5.564614 z m 0,0"
     fill="#9a9996"
     id="path17"
     style="fill:url(#linearGradient15);fill-opacity:1;stroke-width:0.999996" />
  <path
     d="m 62.114989,43.459767 c -5.355312,0.06857 -10.624015,1.587829 -15.199848,4.395398 -0.64235,0.396957 -1.587828,0.299523 -1.930655,-0.368087 -0.407783,-0.797524 -0.761436,-1.69609 -1.403784,-2.049742 -2.179656,-1.205306 -5.521313,0.898567 -6.621967,3.265874 -2.064176,4.445919 -3.316396,10.555449 -0.501609,18.804939 0.270653,0.793915 1.082611,1.937872 2.558568,1.995612 6.398228,0.119086 11.47567,-0.855262 15.968502,-4.824834 1.457915,-1.288306 2.778699,-3.698918 2.19409,-5.059398 C 57.091676,59.417442 56.86072,59.139573 56.701938,58.991615 56.113719,58.453918 55.251239,58.046136 54.504239,57.580613 53.86189,57.176439 53.980977,56.407786 54.673847,56.09022 59.401245,53.92139 64.958645,53.766217 70,56 c 8.065446,3.565396 12.511365,12.197408 10.739493,20.833029 -1.107871,5.38779 -4.424268,9.960013 -9.328492,12.298451 -2.291525,1.396568 -3.72057,3.132354 -3.724179,5.813618 -0.03608,3.561789 1.721351,5.174882 4.669658,5.232612 1.356872,0.0613 3.594266,-0.631511 4.69853,-1.19447 C 84.568324,94.919841 89.6602,87.835961 91.46816,79.037948 94.264902,65.415103 87.152153,51.608214 74.431484,45.982249 70.458305,44.221203 66.257777,43.405638 62.114989,43.459767 Z M 40.134392,72.924809 c -0.108262,-0.0036 -0.22013,0 -0.335609,0.0036 -2.706525,0.09022 -4.590266,2.331221 -4.474789,4.774312 0.108261,2.370916 1.955916,3.706136 5.41666,3.283917 3.482396,-0.422218 4.041745,-2.771482 3.756657,-4.63718 -0.115478,-0.732567 -0.963522,-3.370526 -4.362919,-3.424657 z m 2.16522,9.010926 c -2.450307,-0.0397 -5.023311,0.783087 -5.665659,3.161221 -0.400566,1.378524 -0.108261,3.464353 0.956305,4.514485 1.660003,1.515654 3.756658,1.670829 5.734226,0.844435 1.743002,-0.783087 3.154005,-2.277089 3.215352,-4.586658 0.01082,-2.08222 -1.107871,-3.590656 -3.74944,-3.911831 -0.162391,-0.01082 -0.324782,-0.01804 -0.490784,-0.02166 z m 7.621577,6.575052 c -2.259046,-0.0397 -4.886181,1.515654 -5.687313,3.803571 -0.671218,1.83322 -0.180434,4.160831 1.255828,5.557398 1.432654,1.461525 3.987614,1.833223 5.799183,0.988782 2.006437,-1.255823 3.110699,-3.87935 3.002439,-6.181701 -0.01804,-1.804352 -1.068176,-2.825613 -2.605483,-3.738615 -0.526869,-0.281478 -1.133131,-0.418609 -1.764654,-0.429435 z m 10.898276,3.085439 c -3.013266,0 -5.459964,2.493612 -5.459964,5.564617 0,3.074607 2.446698,5.568217 5.459964,5.568217 3.016873,0 5.463573,-2.49361 5.463573,-5.568217 0,-3.074613 -2.4467,-5.564617 -5.463573,-5.564617 z m 0,0"
     fill="url(#e)"
     id="path18"
     style="fill:url(#e);stroke-width:0.999996" />
  <g
     fill="#f6f5f4"
     id="g25"
     style="fill:#f6f5f4"
     transform="translate(0,0.0212045)">
    <path
       d="m 109.29,29.84434 c 0,0.690144 -0.55868,1.248831 -1.24882,1.248831 -0.69015,0 -1.24884,-0.558687 -1.24884,-1.248831 0,-0.690144 0.55869,-1.248831 1.24884,-1.248831 0.69014,0 1.24882,0.558687 1.24882,1.248831 z m 0,0"
       id="path19"
       style="fill:#f6f5f4;stroke-width:0.999995" />
    <path
       d="m 112.05975,28.266869 h 0.88089 c 0.39005,0 0.7021,0.318781 0.7021,0.709862 v 1.738505 c 0,0.391081 -0.31205,0.706575 -0.7021,0.706575 h -0.88089 c -0.3868,0 -0.69884,-0.315494 -0.69884,-0.706575 v -1.738505 c 0,-0.391081 0.31204,-0.709862 0.69884,-0.709862 z m 0,0"
       id="path20"
       style="fill:#f6f5f4;stroke-width:0.999997" />
    <path
       d="m 96.730163,28.985129 h 7.103357 c 0.49119,0 0.88791,0.396729 0.88791,0.887917 0,0.491189 -0.39672,0.887918 -0.88791,0.887918 h -7.103357 c -0.491188,0 -0.887918,-0.396729 -0.887918,-0.887918 0,-0.491188 0.39673,-0.887917 0.887918,-0.887917 z m 0,0"
       id="path21"
       style="fill:#f6f5f4;stroke-width:1" />
    <path
       d="m 57.559542,28.845984 h 12.880917 c 0.686648,0 1.247994,0.457846 1.247994,1.027063 0,0.56509 -0.561346,1.027062 -1.247994,1.027062 H 57.559542 c -0.691659,0 -1.247995,-0.461972 -1.247995,-1.027062 0,-0.569216 0.556336,-1.027063 1.247995,-1.027063 z m 0,0"
       id="path22"
       style="fill:#f6f5f4;stroke-width:0.999995" />
    <path
       d="m 23.196092,29.844492 c 0,0.420543 -0.340013,0.760559 -0.760558,0.760559 -0.417561,0 -0.757575,-0.340016 -0.757575,-0.760559 0,-0.417562 0.340014,-0.757575 0.757575,-0.757575 0.420545,0 0.760558,0.340013 0.760558,0.757575 z m 0,0"
       id="path24"
       style="fill:#9a9996;stroke-width:0.999997" />
    <path
       d="m 25.566177,29.845983 c 0,0.423528 -0.342997,0.763541 -0.763541,0.763541 -0.423527,0 -0.763541,-0.340013 -0.763541,-0.763541 0,-0.420543 0.340014,-0.76354 0.763541,-0.76354 0.420544,0 0.763541,0.342997 0.763541,0.76354 z m 0,0"
       id="path25"
       style="fill:#9a9996;stroke-width:0.999997" />
    <rect
       style="fill:#f6f5f4;stroke:none;stroke-width:2.4;stroke-linecap:round;stroke-linejoin:round;stroke-dasharray:2.4, 4.8"
       id="rect1"
       width="6.3896384"
       height="1.4513705"
       x="13.739218"
       y="29.141502"
       ry="0.71987367" />
  </g>
  <path
     d="M 61.685723,26.792448 H 64 v 6.368229 h -2.314277 z m 0,0"
     fill="#241f31"
     id="path26"
     style="stroke-width:0.999997" />
</svg>
