<?xml version="1.0" encoding="UTF-8" standalone="no"?>
<svg
   width="128"
   height="128"
   viewBox="0 0 128 128"
   version="1.1"
   id="svg29"
   xml:space="preserve"
   xmlns="http://www.w3.org/2000/svg"
   xmlns:svg="http://www.w3.org/2000/svg"><defs
     id="defs15"><linearGradient
       id="a-9"
       gradientUnits="userSpaceOnUse"
       x1="0"
       y1="269.46301"
       x2="118.926"
       y2="269.46301"
       gradientTransform="matrix(1,0,0,0.98333333,5e-6,-168.03333)"><stop
         offset="0"
         stop-color="#e5a50a"
         id="stop1-5"
         style="stop-color:#be2718;stop-opacity:1;" /><stop
         offset="0.414"
         stop-color="#fbdf9b"
         id="stop2-1"
         style="stop-color:#ec756a;stop-opacity:1;" /><stop
         offset="0.81300002"
         stop-color="#e5a50a"
         id="stop3-6"
         style="stop-color:#a82215;stop-opacity:1;" /><stop
         offset="1"
         stop-color="#f8ca5b"
         id="stop4-6"
         style="stop-color:#e43725;stop-opacity:1;" /></linearGradient></defs><path
     d="M 124.00001,65.999999 C 124.00001,98.584719 97.137005,125 64.000005,125 c -33.137,0 -60,-26.415281 -60,-59.000001 0,-32.584717 26.863,-58.9999996 60,-58.9999996 33.137,0 60.000005,26.4152826 60.000005,58.9999996 z m 0,0"
     fill="url(#a)"
     id="path4"
     style="fill:url(#a-9);stroke-width:0.991632" /><path
     style="fill:#e74c3c;fill-opacity:1;fill-rule:evenodd;stroke:none;stroke-width:11.1733;stroke-linecap:square;stroke-linejoin:bevel"
     id="path94"
     d="M 124.00001,61.999998 C 124.00001,94.584668 97.136958,121 64,121 30.86291,121 4,94.584668 4,61.999998 4,29.415192 30.86291,2.9999992 64,2.9999992 c 33.136958,0 60.00001,26.4151928 60.00001,58.9999988"
     vector-effect="none" /><text
     style="font-style:normal;font-weight:400;font-size:13.8828px;font-family:Arial;fill:#ffffff;fill-opacity:1;fill-rule:evenodd;stroke:none;stroke-width:0.991632;stroke-linecap:square;stroke-linejoin:bevel;stroke-opacity:1"
     id="text1476"
     font-style="normal"
     font-weight="400"
     font-size="14"
     y="-67.545097"
     x="-183.452"
     xml:space="preserve"
     transform="scale(1.008439,0.99163165)" /><path
     d="m 69.35341,95.880405 c -0.88684,-0.3365 -4.0311,-1.68621 -6.98725,-2.99934 -8.75845,-3.89054 -10.3903,-3.98038 -16.54961,-0.91106 -3.07885,1.53425 -5.87301,2.51445 -6.20924,2.17822 -0.33623,-0.33623 1.98642,-3.03402 5.16147,-5.99508 5.05374,-4.71313 6.35216,-5.38883 10.42408,-5.4247 3.676,-0.0324 5.31013,-0.69983 7.79347,-3.18318 1.78844,-1.78844 3.1422,-4.29405 3.1422,-5.81576 0,-1.4732 -1.84317,-5.00941 -4.10527,-7.87616 -7.75187,-9.82393 -7.95205,-10.29532 -6.17647,-14.54487 0.86467,-2.06946 3.50903,-6.21302 5.87636,-9.20791 4.85787,-6.14567 4.7784,-6.26978 -4.73029,-7.38734 -7.60694,-0.894046 -12.67617,0.17323 -16.63177,3.50165 -4.18283,3.51962 -4.36029,7.99281 -0.4714,11.88169 l 2.78512,2.78514 -2.84815,2.80956 -2.84815,2.80956 -2.0869,-2.53776 c -2.57628,-3.13286 -2.73932,-9.73695 -0.36395,-14.74266 0.94761,-1.99696 3.5739,-5.30307 5.8362,-7.346911 6.87487,-6.211032 14.62613,-7.305453 31.13948,-4.396639 12.0875,2.129198 15.96714,2.028009 20.15553,-0.525705 1.92149,-1.171552 3.49363,-1.719992 3.49363,-1.218757 0,1.0859 -6.09223,8.890832 -7.88326,10.099472 -0.68965,0.4654 -4.68481,0.72623 -8.87811,0.57962 -8.89635,-0.31103 -12.03,1.18816 -14.83383,7.0968 -2.10382,4.43347 -1.90064,4.99504 5.39125,14.90036 2.58759,3.515 4.70471,7.22222 4.70471,8.23827 0,2.36454 -5.99479,11.45003 -8.89557,13.48181 -2.13376,1.49455 -2.02339,1.63751 2.89019,3.74371 7.78457,3.33686 11.84393,2.77554 17.55698,-2.42775 1.32793,-1.20944 2.72373,-1.88968 3.10176,-1.51165 1.1981,1.1981 -2.38488,5.52531 -8.44852,10.20338 -5.75155,4.43729 -7.26033,4.97503 -10.50469,3.74399 z"
     style="fill:#000000;stroke-width:0.806221"
     id="path1-1" /></svg>
