<?xml version="1.0" encoding="UTF-8" standalone="no"?>
<svg
   viewBox="0 0 128 128"
   style="display:inline;enable-background:new"
   version="1.0"
   id="svg11300"
   height="128"
   width="128"
   xml:space="preserve"
   xmlns:xlink="http://www.w3.org/1999/xlink"
   xmlns="http://www.w3.org/2000/svg"
   xmlns:svg="http://www.w3.org/2000/svg"
   xmlns:rdf="http://www.w3.org/1999/02/22-rdf-syntax-ns#"
   xmlns:cc="http://creativecommons.org/ns#"
   xmlns:dc="http://purl.org/dc/elements/1.1/"><title
     id="title4162">Adwaita Icon Template</title><defs
     id="defs3"><linearGradient
       id="linearGradient974"><stop
         style="stop-color:#510115;stop-opacity:1;"
         offset="0"
         id="stop962" /><stop
         id="stop964"
         offset="0.04166667"
         style="stop-color:#b6012f;stop-opacity:1;" /><stop
         style="stop-color:#510115;stop-opacity:1;"
         offset="0.08333334"
         id="stop966" /><stop
         id="stop968"
         offset="0.91666669"
         style="stop-color:#510115;stop-opacity:1;" /><stop
         style="stop-color:#b7012f;stop-opacity:1;"
         offset="0.95833331"
         id="stop970" /><stop
         style="stop-color:#510115;stop-opacity:1;"
         offset="1"
         id="stop972" /></linearGradient><linearGradient
       y2="44"
       x2="464"
       y1="44"
       x1="48"
       gradientTransform="matrix(0.25,0,0,0.25,0,53)"
       gradientUnits="userSpaceOnUse"
       id="linearGradient1747"
       xlink:href="#linearGradient974" /></defs><metadata
     id="metadata4"><rdf:RDF><cc:Work
         rdf:about=""><dc:format>image/svg+xml</dc:format><dc:type
           rdf:resource="http://purl.org/dc/dcmitype/StillImage" /><dc:creator><cc:Agent><dc:title>GNOME Design Team</dc:title></cc:Agent></dc:creator><dc:source /><cc:license
           rdf:resource="http://creativecommons.org/licenses/by-sa/4.0/" /><dc:title>Adwaita Icon Template</dc:title><dc:subject><rdf:Bag /></dc:subject><dc:date /><dc:rights><cc:Agent><dc:title /></cc:Agent></dc:rights><dc:publisher><cc:Agent><dc:title /></cc:Agent></dc:publisher><dc:identifier /><dc:relation /><dc:language /><dc:coverage /><dc:description /><dc:contributor><cc:Agent><dc:title /></cc:Agent></dc:contributor></cc:Work><cc:License
         rdf:about="http://creativecommons.org/licenses/by-sa/4.0/"><cc:permits
           rdf:resource="http://creativecommons.org/ns#Reproduction" /><cc:permits
           rdf:resource="http://creativecommons.org/ns#Distribution" /><cc:requires
           rdf:resource="http://creativecommons.org/ns#Notice" /><cc:requires
           rdf:resource="http://creativecommons.org/ns#Attribution" /><cc:permits
           rdf:resource="http://creativecommons.org/ns#DerivativeWorks" /><cc:requires
           rdf:resource="http://creativecommons.org/ns#ShareAlike" /></cc:License></rdf:RDF></metadata><rect
     ry="8"
     rx="8"
     y="32"
     x="12"
     height="83.999992"
     width="104"
     id="rect1709"
     style="display:inline;fill:url(#linearGradient1747);fill-opacity:1;stroke:none;stroke-width:0.25;stroke-linecap:butt;stroke-linejoin:miter;stroke-miterlimit:4;stroke-dasharray:none;stroke-dashoffset:0;stroke-opacity:1;marker:none;marker-start:none;marker-mid:none;marker-end:none;paint-order:normal;enable-background:new" /><rect
     style="display:inline;fill:#850122;fill-opacity:1;stroke:none;stroke-width:0.25;stroke-linecap:butt;stroke-linejoin:miter;stroke-miterlimit:4;stroke-dasharray:none;stroke-dashoffset:0;stroke-opacity:1;marker:none;marker-start:none;marker-mid:none;marker-end:none;paint-order:normal;enable-background:new"
     id="rect1711"
     width="104"
     height="100"
     x="12"
     y="12"
     rx="8"
     ry="8" /><path
     style="fill:#ffffff"
     d="m 34.465309,94.862815 c 0,-0.3769 14.0067,-46.03844 14.28952,-46.58352 0.16744,-0.32271 1.52286,-0.34179 24.280044,-0.34179 13.90022,0 24.148242,0.0737 24.210296,0.1741 0.09391,0.15194 -14.172778,46.46381 -14.45334,46.91777 -0.06177,0.1 -10.348763,0.17375 -24.216953,0.17375 -22.791047,0 -24.109567,-0.0186 -24.109567,-0.34031 z m -3.47517,-13.17392 c -0.18154,-0.18154 -0.23577,-5.64164 -0.23577,-23.73799 0,-21.37458 0.0283,-23.5131 0.31285,-23.62228 0.22574,-0.0866 1.89193,1.45902 5.98385,5.55095 l 5.671,5.671 -5.5084,17.94151 c -3.02963,9.86783 -5.61626,18.052 -5.74808,18.18704 -0.18721,0.19178 -0.2913,0.19392 -0.47545,0.01 z m 10.94542,-46.30065 c -3.24926,-3.25058 -5.90775,-6.06342 -5.90775,-6.25075 0,-0.32214 1.32764,-0.34062 24.467172,-0.34062 h 24.467173 l 5.926474,5.9382 c 3.432992,3.43978 5.889596,6.04884 5.838822,6.20117 -0.07273,0.2182 -4.241958,0.27142 -24.485892,0.31255 l -24.398249,0.0496 z"
     id="path1" /></svg>
