<?xml version="1.0" encoding="UTF-8" standalone="no"?>
<svg
   width="128"
   height="128"
   version="1"
   id="svg566"
   xml:space="preserve"
   xmlns:xlink="http://www.w3.org/1999/xlink"
   xmlns="http://www.w3.org/2000/svg"
   xmlns:svg="http://www.w3.org/2000/svg"><defs
     id="defs570"><linearGradient
       id="linearGradient10"><stop
         style="stop-color:#db1f53;stop-opacity:1;"
         offset="0"
         id="stop7" /><stop
         style="stop-color:#f2a1b8;stop-opacity:1;"
         offset="0.40895775"
         id="stop8" /><stop
         style="stop-color:#db1f53;stop-opacity:1;"
         offset="0.8090083"
         id="stop9" /><stop
         style="stop-color:#f1a2b9;stop-opacity:1;"
         offset="1"
         id="stop10" /></linearGradient><linearGradient
       id="a-9"
       gradientUnits="userSpaceOnUse"
       x1="0"
       y1="269.46301"
       x2="118.926"
       y2="269.46301"
       gradientTransform="matrix(1,0,0,0.98333333,-80,-353.03333)"><stop
         offset="0"
         stop-color="#e5a50a"
         id="stop1-5"
         style="stop-color:#787878;stop-opacity:1;" /><stop
         offset="0.414"
         stop-color="#fbdf9b"
         id="stop2-1"
         style="stop-color:#cbcbcb;stop-opacity:1;" /><stop
         offset="0.81300002"
         stop-color="#e5a50a"
         id="stop3-6"
         style="stop-color:#787878;stop-opacity:1;" /><stop
         offset="1"
         stop-color="#f8ca5b"
         id="stop4-6"
         style="stop-color:#a9a9a9;stop-opacity:1;" /></linearGradient><linearGradient
       xlink:href="#a-9"
       id="linearGradient24"
       x1="-71.497528"
       y1="88.789986"
       x2="-1.0286919"
       y2="88.789986"
       gradientUnits="userSpaceOnUse"
       gradientTransform="translate(124,-0.99999995)" /><linearGradient
       xlink:href="#linearGradient10"
       id="linearGradient26"
       x1="-116.54346"
       y1="65.878822"
       x2="9.3672543e-07"
       y2="65.878822"
       gradientUnits="userSpaceOnUse"
       gradientTransform="translate(124,-0.99999995)" /><linearGradient
       xlink:href="#a-9"
       id="linearGradient28"
       x1="-120"
       y1="52.620682"
       x2="-48.346516"
       y2="52.620682"
       gradientUnits="userSpaceOnUse"
       gradientTransform="translate(124,-0.99999995)" /></defs><path
     d="m 61.980022,11.538912 c -0.527904,0.01901 -1.05868,0.06898 -1.588909,0.136323 -9.861059,0.883248 -16.017487,8.563225 -17.525181,15.844553 l -2.435389,11.74604 -4.861346,-10.425853 v -2.71e-4 C 32.362255,21.964222 24.98444,16.531264 16.15417,17.72246 11.73992,18.31799 8.2168,16.187918 6.09547,19.740596 4.2193,22.882541 3.26034,27.456945 4.69873,35.011032 v 0.218334 l 21.520086,45.62704 C 29.618271,88.066585 37.348979,92.685 45.829637,91.539697 54.234958,90.404578 60.797193,84.429995 62.772085,76.59387 L 75.235887,27.136074 C 76.24562,23.129484 75.460531,18.567011 72.4837,15.414475 69.879042,12.656108 66.000494,11.394035 61.980022,11.538912"
     style="baseline-shift:baseline;display:inline;overflow:visible;isolation:isolate;vector-effect:none;fill:url(#linearGradient28);stroke-width:0.136253;stop-color:#000000"
     id="path27" /><path
     fill="#eb7396"
     d="m 40.328407,117.06535 c 7.666309,4.29336 20.533732,6.97908 33.788093,5.06458 31.82332,-4.59886 53.9007,-33.988395 49.26974,-65.592503 C 118.75802,24.936034 89.164725,3.0116683 57.340039,7.6091725 25.51672,12.206677 3.43934,41.596216 8.0703,73.198967 c 0.93795,6.408807 2.90272,12.418421 4.05396,14.665577 0.91198,1.778716 1.23465,4.790312 0.72193,6.721101 l -3.6643,13.772145 c -2.29019,8.6098 2.87538,13.70426 11.52886,11.36885 l 12.933051,-3.48955 c 1.938796,-0.52411 4.935862,-0.15207 6.685974,0.82826 z"
     style="display:inline;isolation:isolate;fill:url(#linearGradient26);stroke-width:0.136252"
     id="path24" /><path
     d="M 90.276729,50.58647 C 85.57225,50.4987 80.89521,51.316965 76.504171,52.996018 l -5.46e-4,2.72e-4 h -2.74e-4 c -4.060255,1.553245 -7.81429,3.802518 -11.091059,6.645335 -3.295529,2.857883 -6.063496,6.265028 -8.179311,10.068073 v 2.72e-4 c -2.192948,3.942219 -3.655079,8.24353 -4.316759,12.699078 v 8.15e-4 l -2.74e-4,8.14e-4 c -0.271267,1.830312 -0.413327,3.684521 -0.413464,5.552444 v 0.0019 c -0.0062,8.765796 3.091775,17.254619 8.751926,23.981019 l 5.47e-4,5.5e-4 2.73e-4,5.4e-4 c 2.799781,3.32523 9.780904,3.92261 13.56875,6.07623 l -0.0056,3.99672 c 0,0 5.97743,2.12082 9.125317,2.58446 l 0.0023,2.7e-4 c 5.254629,0.77777 10.616995,0.40419 15.710807,-1.09452 l 0.0027,-8.1e-4 0.0027,-8.2e-4 c 3.265196,-0.96438 6.380446,-2.37244 9.257266,-4.18419 l 5.5e-4,-2.7e-4 c 4.72735,-2.9691 7.00454,-6.13856 6.28058,-17.71706 -0.96147,-5.470555 -5.22122,-6.130221 -10.67979,-7.334588 -3.58298,-0.792511 -7.336207,-0.142454 -10.437497,1.807772 l -0.0033,0.0022 -0.0031,0.002 c -0.714872,0.451117 -1.48929,0.801599 -2.301124,1.041431 -0.797088,0.23415 -1.623985,0.353047 -2.455215,0.353027 h -0.01108 c -1.520933,0.0028 -3.016229,-0.388931 -4.337816,-1.136477 -0.932534,-0.532419 -1.763355,-1.22378 -2.454394,-2.0424 l -8.21e-4,-0.0011 c -1.490181,-1.772093 -2.305153,-4.008283 -2.302217,-6.31702 v -0.0022 c 0.0014,-1.738652 0.441779,-3.449203 1.280726,-4.975244 0.556409,-0.994294 1.282143,-1.885297 2.144981,-2.633449 l 0.0016,-0.0016 0.0015,-0.0015 c 0.833026,-0.7228 1.787071,-1.295157 2.81891,-1.691138 2.683139,-1.02471 5.702017,-0.674667 8.075261,0.936338 1.104448,0.754985 2.032784,1.736665 2.722244,2.878667 h 2.73e-4 v 2.72e-4 c 3.900699,6.463798 12.509059,8.601651 19.014419,4.722422 l 0.001,-8.15e-4 0.001,-8.15e-4 c 2.14409,-1.2755 4.49717,-8.65325 5.25928,-9.710202 0,0 0.007,3.986898 0.0132,3.973081 1.78264,-4.065585 2.16374,-12.66877 -0.31651,-16.784245 l -0.002,-0.0034 -0.002,-0.0035 c -2.74034,-4.531981 -6.63225,-4.774924 -11.01978,-7.768268 l -0.004,-0.0027 -0.004,-0.0023 c -4.56253,-3.102122 -9.77617,-5.132382 -15.245929,-5.936972 -1.549699,-0.229265 -3.112697,-0.358842 -4.679225,-0.387923"
     style="baseline-shift:baseline;display:inline;overflow:visible;isolation:isolate;vector-effect:none;fill:url(#linearGradient24);stroke-width:0.136253;stop-color:#000000"
     id="path10" /><path
     fill="#eb7396"
     d="m 40.328407,113.06535 c 7.666309,4.29336 20.533732,6.97908 33.788093,5.06458 31.82332,-4.59886 53.9007,-33.988395 49.26974,-65.592503 C 118.75802,20.936034 89.164725,-0.98833171 57.340039,3.6091725 25.51672,8.206677 3.43934,37.596216 8.0703,69.198967 c 0.93795,6.408807 2.90272,12.418421 4.05396,14.665577 0.91198,1.778716 1.23465,4.790312 0.72193,6.721101 l -3.6643,13.772145 c -2.29019,8.6098 2.87538,13.70426 11.52886,11.36885 l 12.933051,-3.48955 c 1.938796,-0.52411 4.935862,-0.15207 6.685974,0.82826 z"
     style="display:inline;isolation:isolate;stroke-width:0.136252"
     id="path1" /><path
     d="M 61.980022,7.5389119 C 61.452118,7.557921 60.921342,7.6078879 60.391113,7.6752348 50.530054,8.5584826 44.373626,16.23846 42.865932,23.519788 l -2.435389,11.74604 -4.861346,-10.425853 v -2.71e-4 C 32.362255,17.964222 24.98444,12.531264 16.15417,13.72246 11.73992,14.31799 7.86739,16.739488 5.74606,20.292166 3.86989,23.434111 3.48131,27.412324 4.69873,31.011032 v 0.218334 l 21.520086,45.62704 C 29.618271,84.066585 37.348979,88.685 45.829637,87.539697 54.234958,86.404578 60.797193,80.429995 62.772085,72.59387 L 75.235887,23.136074 C 76.24562,19.129484 75.460531,14.567011 72.4837,11.414475 69.879042,8.6561082 66.000494,7.3940349 61.980022,7.5389119"
     style="baseline-shift:baseline;display:inline;overflow:visible;isolation:isolate;vector-effect:none;fill:#1d2021;stroke-width:0.136253;stop-color:#000000"
     id="path2-9" /><path
     fill="#fff"
     d="m 10.55737,29.934162 20.967155,44.45431 c 2.18764,4.640954 8.000882,8.130902 13.515784,7.38615 5.514903,-0.744752 10.795728,-5.623728 12.048152,-10.593269 L 69.552537,21.723557 c 1.252423,-4.969541 -1.995264,-9.151288 -8.511696,-8.271434 -7.029159,0.568781 -11.397191,6.221159 -12.43632,11.239581 l -5.173767,24.953613 c -0.467608,2.256661 -1.637996,2.391083 -2.611495,0.301431 L 30.25296,27.285098 c -2.168498,-4.649101 -7.59371,-8.568792 -13.31028,-7.797563 -5.71658,0.77123 -8.57432,5.805673 -6.38531,10.445269 z"
     style="display:inline;isolation:isolate;fill:#ededed;fill-opacity:1;stroke-width:0.136253"
     id="path3-3" /><path
     d="m 90.276729,46.58647 a 36.424198,36.171741 0 0 0 -13.772558,2.409548 l -5.46e-4,2.72e-4 h -2.74e-4 a 37.162526,36.904952 0 0 0 -11.091059,6.645335 37.600054,37.339448 0 0 0 -8.179311,10.068073 v 2.72e-4 a 37.873509,37.611007 0 0 0 -4.316759,12.699078 v 8.15e-4 l -2.74e-4,8.14e-4 c -0.271267,1.830312 -0.413327,3.684521 -0.413464,5.552444 v 0.0019 a 37.617829,37.357099 0 0 0 8.751926,23.981019 l 5.47e-4,5.5e-4 2.73e-4,5.4e-4 a 36.848053,36.592659 0 0 0 9.960049,8.28366 l 0.0027,0.001 0.0027,0.002 a 36.437871,36.185319 0 0 0 12.723038,4.37075 l 0.0023,2.7e-4 a 36.410525,36.158163 0 0 0 15.710807,-1.09452 l 0.0027,-8.1e-4 0.0027,-8.2e-4 a 36.957435,36.701283 0 0 0 9.257266,-4.18419 l 5.5e-4,-2.7e-4 c 4.72735,-2.9691 7.2028,-8.51774 6.24093,-13.98967 -0.96147,-5.470565 -5.18157,-9.857611 -10.64014,-11.061978 a 13.872369,13.77622 0 0 0 -10.437497,1.807772 l -0.0033,0.0022 -0.0031,0.002 a 9.1607405,9.0972473 0 0 1 -2.301124,1.041431 8.6548489,8.594862 0 0 1 -2.455215,0.353027 h -0.01108 a 8.7314162,8.6708987 0 0 1 -4.337816,-1.136477 9.1607405,9.0972473 0 0 1 -2.454394,-2.0424 l -8.21e-4,-0.0011 a 9.9045379,9.8358894 0 0 1 -2.302217,-6.31702 v -0.0022 a 10.473324,10.400733 0 0 1 1.280726,-4.975244 9.9127416,9.8440362 0 0 1 2.144981,-2.633449 l 0.0016,-0.0016 0.0015,-0.0015 a 9.4752137,9.4095408 0 0 1 2.81891,-1.691138 8.7464563,8.6858344 0 0 1 8.075261,0.936338 9.3658317,9.300917 0 0 1 2.722244,2.878667 h 2.73e-4 v 2.72e-4 c 3.900699,6.463798 12.509059,8.601651 19.014419,4.722422 l 0.001,-8.15e-4 0.001,-8.15e-4 c 6.49583,-3.877993 8.64505,-12.411482 4.75283,-18.869849 l -0.002,-0.0034 -0.002,-0.0035 A 37.162526,36.904952 0 0 0 110.20913,52.916389 l -0.004,-0.0027 -0.004,-0.0023 A 36.437871,36.185319 0 0 0 94.955901,46.974417 36.369507,36.117429 0 0 0 90.276676,46.586494"
     style="baseline-shift:baseline;display:inline;overflow:visible;isolation:isolate;vector-effect:none;fill:#ededed;stroke-width:0.136253;stop-color:#000000"
     id="path4-1" /><path
     fill="#1d2021"
     d="m 97.127733,96.851884 a 8.1763027,8.1196326 0 0 1 6.156837,-1.065872 c 3.22773,0.711079 5.70482,3.285468 6.27333,6.519878 0.56838,3.23441 -0.88394,6.48986 -3.67824,8.24482 a 31.269572,31.052843 0 0 1 -7.838588,3.54385 30.722663,30.509723 0 0 1 -13.258462,0.9233 30.750008,30.536879 0 0 1 -10.74131,-3.68913 31.16019,30.944219 0 0 1 -8.422413,-7.00488 31.925864,31.704586 0 0 1 -7.428403,-20.358828 c 0,-1.58455 0.12032,-3.16367 0.352757,-4.731926 a 32.185646,31.962567 0 0 1 3.668398,-10.79178 31.912191,31.691008 0 0 1 6.943021,-8.545981 31.474664,31.256512 0 0 1 9.393177,-5.628073 30.736335,30.523301 0 0 1 15.574626,-1.705394 c 4.614552,0.678899 9.015807,2.39244 12.866057,5.010275 a 31.467827,31.249723 0 0 1 9.16074,9.671595 c 2.31561,3.842433 1.06169,8.821207 -2.80291,11.128514 -3.86857,2.306899 -8.88797,1.06044 -11.20756,-2.783486 a 15.053694,14.949357 0 0 0 -4.386213,-4.635523 14.452094,14.351926 0 0 0 -13.333663,-1.54789 15.163076,15.057981 0 0 0 -4.518842,2.710165 15.586932,15.478898 0 0 0 -3.389474,4.167082 16.161187,16.049174 0 0 0 -1.983916,7.693284 15.596503,15.488403 0 0 0 3.624645,9.944514 14.848603,14.745687 0 0 0 3.997911,3.326605 14.424748,14.32477 0 0 0 7.171356,1.880547 c 1.378213,0 2.750957,-0.196877 4.074479,-0.586565 a 14.848603,14.745687 0 0 0 3.73266,-1.689101"
     style="display:inline;isolation:isolate;stroke-width:0.136253"
     id="path5-9" /></svg>
