<?xml version="1.0" encoding="UTF-8" standalone="no"?>
<svg
   viewBox="0 0 128 128"
   style="display:inline;enable-background:new"
   version="1.0"
   id="svg11300"
   height="128"
   width="128"
   xml:space="preserve"
   xmlns:xlink="http://www.w3.org/1999/xlink"
   xmlns="http://www.w3.org/2000/svg"
   xmlns:svg="http://www.w3.org/2000/svg"
   xmlns:rdf="http://www.w3.org/1999/02/22-rdf-syntax-ns#"
   xmlns:cc="http://creativecommons.org/ns#"
   xmlns:dc="http://purl.org/dc/elements/1.1/"><title
     id="title4162">Adwaita Icon Template</title><defs
     id="defs3"><linearGradient
       id="linearGradient15"><stop
         style="stop-color:#ebaec5;stop-opacity:1;"
         offset="0.1"
         id="stop15" /><stop
         style="stop-color:#f8dbc3;stop-opacity:1;"
         offset="0.89999998"
         id="stop16" /></linearGradient><linearGradient
       id="linearGradient1"><stop
         style="stop-color:#da606e;stop-opacity:1;"
         offset="0"
         id="stop17" /><stop
         style="stop-color:#da606e;stop-opacity:1;"
         offset="0.16506046"
         id="stop30" /><stop
         style="stop-color:#ed955c;stop-opacity:1;"
         offset="0.16630207"
         id="stop18" /><stop
         style="stop-color:#ed955c;stop-opacity:1;"
         offset="0.33051369"
         id="stop22" /><stop
         style="stop-color:#e1c268;stop-opacity:1;"
         offset="0.33418012"
         id="stop23" /><stop
         style="stop-color:#e1c268;stop-opacity:1;"
         offset="0.49694258"
         id="stop24" /><stop
         style="stop-color:#7fbe93;stop-opacity:1;"
         offset="0.50123411"
         id="stop25" /><stop
         style="stop-color:#7fbe93;stop-opacity:1;"
         offset="0.66165316"
         id="stop26" /><stop
         style="stop-color:#719bd5;stop-opacity:1;"
         offset="0.66380447"
         id="stop27" /><stop
         style="stop-color:#719bd5;stop-opacity:1;"
         offset="0.82836109"
         id="stop28" /><stop
         style="stop-color:#a85cd0;stop-opacity:1;"
         offset="0.83199167"
         id="stop29" /><stop
         style="stop-color:#a85cd0;stop-opacity:1;"
         offset="1"
         id="stop11" /></linearGradient><linearGradient
       id="linearGradient974"><stop
         style="stop-color:#742d9a;stop-opacity:1;"
         offset="0"
         id="stop962" /><stop
         id="stop964"
         offset="0.04166667"
         style="stop-color:#bd84db;stop-opacity:1;" /><stop
         style="stop-color:#742d9a;stop-opacity:1;"
         offset="0.08333334"
         id="stop966" /><stop
         id="stop968"
         offset="0.91666669"
         style="stop-color:#742d9a;stop-opacity:1;" /><stop
         style="stop-color:#bd85db;stop-opacity:1;"
         offset="0.95833331"
         id="stop970" /><stop
         style="stop-color:#742d9a;stop-opacity:1;"
         offset="1"
         id="stop972" /></linearGradient><linearGradient
       y2="44"
       x2="464"
       y1="44"
       x1="48"
       gradientTransform="matrix(0.25,0,0,0.25,0,53)"
       gradientUnits="userSpaceOnUse"
       id="linearGradient1747"
       xlink:href="#linearGradient974" /><linearGradient
       xlink:href="#linearGradient1"
       id="linearGradient11"
       x1="64"
       y1="12"
       x2="64"
       y2="112"
       gradientUnits="userSpaceOnUse" /><linearGradient
       xlink:href="#linearGradient15"
       id="linearGradient16"
       x1="1400.8262"
       y1="30.195677"
       x2="1940.8262"
       y2="-329.80432"
       gradientUnits="userSpaceOnUse"
       gradientTransform="matrix(0.0676722,0,0,0.0676722,-38.37628,81.239499)" /></defs><metadata
     id="metadata4"><rdf:RDF><cc:Work
         rdf:about=""><dc:format>image/svg+xml</dc:format><dc:type
           rdf:resource="http://purl.org/dc/dcmitype/StillImage" /><dc:creator><cc:Agent><dc:title>GNOME Design Team</dc:title></cc:Agent></dc:creator><dc:source /><cc:license
           rdf:resource="http://creativecommons.org/licenses/by-sa/4.0/" /><dc:title>Adwaita Icon Template</dc:title><dc:subject><rdf:Bag /></dc:subject><dc:date /><dc:rights><cc:Agent><dc:title /></cc:Agent></dc:rights><dc:publisher><cc:Agent><dc:title /></cc:Agent></dc:publisher><dc:identifier /><dc:relation /><dc:language /><dc:coverage /><dc:description /><dc:contributor><cc:Agent><dc:title /></cc:Agent></dc:contributor></cc:Work><cc:License
         rdf:about="http://creativecommons.org/licenses/by-sa/4.0/"><cc:permits
           rdf:resource="http://creativecommons.org/ns#Reproduction" /><cc:permits
           rdf:resource="http://creativecommons.org/ns#Distribution" /><cc:requires
           rdf:resource="http://creativecommons.org/ns#Notice" /><cc:requires
           rdf:resource="http://creativecommons.org/ns#Attribution" /><cc:permits
           rdf:resource="http://creativecommons.org/ns#DerivativeWorks" /><cc:requires
           rdf:resource="http://creativecommons.org/ns#ShareAlike" /></cc:License></rdf:RDF></metadata><rect
     ry="8"
     rx="8"
     y="32"
     x="12"
     height="83.999992"
     width="104"
     id="rect1709"
     style="display:inline;fill:url(#linearGradient1747);fill-opacity:1;stroke:none;stroke-width:0.25;stroke-linecap:butt;stroke-linejoin:miter;stroke-miterlimit:4;stroke-dasharray:none;stroke-dashoffset:0;stroke-opacity:1;marker:none;marker-start:none;marker-mid:none;marker-end:none;paint-order:normal;enable-background:new" /><rect
     style="display:inline;fill:url(#linearGradient11);fill-opacity:1;stroke:none;stroke-width:0.25;stroke-linecap:butt;stroke-linejoin:miter;stroke-miterlimit:4;stroke-dasharray:none;stroke-dashoffset:0;stroke-opacity:1;marker:none;marker-start:none;marker-mid:none;marker-end:none;paint-order:normal;enable-background:new"
     id="rect1711"
     width="104"
     height="100"
     x="12"
     y="12"
     rx="8"
     ry="8" /><path
     style="fill:#ffffff;stroke-width:0.0676722"
     d="M 73.947815,52.45822 V 52.086023 H 71.64696 69.346105 v -0.372197 -0.372197 h -0.372197 -0.372197 v -1.894822 -1.894821 h 0.372197 0.372197 v -0.406033 -0.406034 h 0.372198 0.372197 v -0.744394 -0.744394 h 0.77823 0.77823 v -0.372197 -0.372197 h 0.744394 0.744395 v 0.372197 0.372197 h 0.406033 0.406033 v -0.77823 -0.778231 h 0.372197 0.372197 v -0.372197 -0.372197 h 0.372197 0.372197 v -0.372197 -0.372197 h 0.372198 0.372197 v 0.744394 0.744394 h 0.406033 0.406033 v 0.406034 0.406033 h 0.372197 0.372197 V 44.100704 43.69467 h 0.372197 0.372197 v 0.406034 0.406033 h -0.372197 -0.372197 v 0.372197 0.372197 h 0.744394 0.744395 v -0.77823 -0.778231 h 0.406033 0.406033 v -0.744394 -0.744394 h 0.372197 0.372197 v -0.372197 -0.372197 h 0.372197 0.372197 v -0.406033 -0.406034 h 0.372198 0.372197 v 1.928658 1.928658 h 0.406033 0.406033 V 44.100704 43.69467 h 0.372197 0.372197 v 0.406034 0.406033 h 0.372197 0.372197 v 0.372197 0.372197 h -0.372197 -0.372197 v 1.150427 1.150428 h -0.372197 -0.372197 v 0.372197 0.372197 h 0.372197 0.372197 v 0.744394 0.744394 h 0.372197 0.372197 v -1.116591 -1.116591 h 0.372198 0.372197 v 1.116591 1.116591 h 0.406033 0.406033 v 1.150428 1.150427 h -0.406033 -0.406033 v 0.372197 0.372197 H 84.57235 83.827956 V 52.45822 52.086023 h 0.372197 0.372197 v -0.372197 -0.372197 h 0.372198 0.372197 v -0.77823 -0.778231 H 84.944548 84.57235 v 0.406034 0.406033 h -0.372197 -0.372197 v 0.372197 0.372197 h -0.372197 -0.372197 v 0.744394 0.744394 h -0.77823 -0.778231 V 52.086023 51.341629 H 81.154904 80.782707 V 50.969432 50.597235 H 80.41051 80.038313 v 0.372197 0.372197 h -2.300855 -2.300855 v 0.372197 0.372197 h 1.522625 1.522624 v 0.372197 0.372197 h -2.267018 -2.267019 z"
     id="path7" /><path
     d="m 75.436601,39.53283 v -0.372197 h 0.77823 0.77823 V 38.7546 38.348567 h 0.3722 0.372197 V 37.97637 37.604172 h -1.15043 -1.150427 v -0.372197 -0.372197 h 1.894824 1.894822 v 0.372197 0.372197 H 78.85405 78.481852 v 0.372198 0.372197 h -0.372197 -0.372197 v 0.406033 0.406033 h 0.744394 0.744395 v 0.372197 0.372197 H 77.331425 75.436601 Z M 67.857313,38.7546 v -0.406033 h 0.372197 0.372197 V 37.97637 37.604172 h 0.372197 0.372197 v -0.372197 -0.372197 h 0.372198 0.372197 v -0.372197 -0.372197 h -0.372197 -0.372198 v -0.406033 -0.406033 h 0.372198 0.372197 v 0.406033 0.406033 h 0.406033 0.406033 v -0.406033 -0.406033 h 0.372197 0.372197 v -0.372197 -0.372198 h -1.894821 -1.894822 v -0.372197 -0.372197 h 2.639216 2.639216 v 0.372197 0.372197 H 72.763548 72.39135 v 0.372198 0.372197 h -0.372197 -0.372197 v 0.406033 0.406033 h -0.372197 -0.372197 v 0.372197 0.372197 h 0.372197 0.372197 v 0.372197 0.372197 h -0.372197 -0.372197 v -0.372197 -0.372197 h -0.406033 -0.406033 v 0.372197 0.372197 h -0.372197 -0.372198 v 0.372198 0.372197 h 1.894822 1.894822 v 0.406033 0.406033 h -2.639216 -2.639216 z"
     style="fill:#ffffff;stroke-width:0.0676722"
     id="path1-9" /><path
     style="fill:#ffffff;stroke-width:0.0676722"
     d="m 47.284964,70.357515 v -0.744394 h -0.77823 -0.77823 v -0.77823 -0.778231 h -0.744395 -0.744394 v -0.744394 -0.744394 h -0.77823 -0.77823 v -0.77823 -0.778231 H 41.93886 41.194466 v -0.744394 -0.744394 h -0.77823 -0.77823 v -0.77823 -0.778231 h -0.744395 -0.744394 v -0.744391 -0.744394 h -0.77823 -0.77823 v -0.778231 -0.77823 H 35.848362 35.103968 V 46.739919 34.558923 h 3.045249 3.045249 v 10.658372 10.658371 h 0.744394 0.744395 v 0.778228 0.77823 h 0.77823 0.77823 v 0.744394 0.744398 h 0.744394 0.744395 v 0.77823 0.778231 h 0.77823 0.77823 v 0.744394 0.744391 h 0.744394 0.744395 v 0.778231 0.77823 h 1.522624 1.522625 v -0.77823 -0.778231 h 0.77823 0.77823 v -0.744391 -0.744394 h 0.744394 0.744395 v 4.56787 4.567874 h -0.744395 -0.744394 v 0.744394 0.744394 h -3.045249 -3.045249 z"
     id="path6" /><path
     style="fill:url(#linearGradient16);stroke-width:0.0676722"
     d="m 67.823477,52.830417 h 5.312268 v 0.406033 0.406033 h 3.045249 3.045246 V 53.23645 52.830417 h 0.77823 0.778231 v 0.406033 0.406033 h 2.673051 2.673052 V 53.23645 52.830417 h 0.372197 0.372198 v 3.045249 3.045249 h 3.045249 3.045249 v 3.045249 3.045249 h -6.090498 -6.090498 v -3.045249 -3.045249 h -6.090496 -6.090498 v 12.180996 12.180996 h 6.090498 6.090496 v -3.045249 -3.045249 h 6.090498 6.090498 v 3.045249 3.045249 h -3.045249 -3.045249 v 3.045249 3.045249 H 74.692205 62.511209 V 86.328156 83.282907 H 59.46596 56.420711 V 71.101911 58.920915 h 3.045249 3.045249 v -3.045249 -3.045249"
     id="path5" /><path
     d="m 62.511209,52.830417 v 0 h -0.77823 -0.77823 v 2.300855 2.300852 H 59.432124 57.9095 v -0.77823 -0.778228 h 0.77823 0.77823 V 45.217295 34.558923 h 3.045249 3.045249 v 8.391353 8.391353 h -1.522624 -1.522625 v 0.744394 0.744394"
     style="fill:#ffffff;stroke-width:0.0676722"
     id="path1-3" /><path
     style="fill:#000000;stroke-width:0.0676722"
     d="m 62.511209,90.151635 v -0.77823 h -0.77823 -0.77823 V 87.106386 84.839367 H 58.68773 56.420711 v -0.77823 -0.77823 h -0.77823 -0.77823 v -6.090498 -6.090498 h -0.744395 -0.744394 v 0.778231 0.77823 h -3.045249 -3.045249 v -0.77823 -0.778231 h -0.77823 -0.77823 v -0.744394 -0.744395 h -0.744395 -0.744394 v -0.77823 -0.77823 h -0.77823 -0.77823 V 67.312268 66.567873 H 41.93886 41.194466 v -0.77823 -0.77823 h -0.77823 -0.77823 v -0.744394 -0.744395 h -0.744395 -0.744393 v -0.77823 -0.77823 h -0.77823 -0.778231 V 61.22177 60.477376 h -0.744394 -0.744394 v -0.77823 -0.778231 h -0.77823 -0.778231 V 46.739919 34.558923 h 0.778231 0.77823 v -0.744394 -0.744394 h 3.045249 3.045248 v 0.744394 0.744394 h 0.744394 0.744395 v 10.658372 10.658371 h 0.77823 0.77823 v 0.778231 0.77823 h 0.744394 0.744395 v 0.744394 0.744394 h 0.77823 0.77823 v 0.778231 0.77823 h 0.744394 0.744395 v 0.744394 0.744394 h 1.522624 1.522625 V 61.22177 60.477376 h 0.77823 0.77823 v -0.77823 -0.778231 h 0.744394 0.744395 v -0.744394 -0.744394 h 0.77823 0.77823 v -0.77823 -0.778231 H 57.165105 57.9095 V 45.217295 34.558923 h 0.77823 0.77823 v -0.744394 -0.744394 h 3.045249 3.045249 v 0.744394 0.744394 h 0.744394 0.744395 v 8.391353 8.391353 h 0.406033 0.406033 v -1.894822 -1.894821 h 0.372197 0.372197 v -0.406033 -0.406034 h 0.372197 0.372197 v -0.744394 -0.744394 h 0.372198 0.372197 v -0.372197 -0.372197 h 0.77823 0.77823 V 44.100704 43.69467 h 1.150428 1.150427 v -0.372197 -0.372197 h 0.372197 0.372197 v -0.372197 -0.372197 h 0.372197 0.372199 v -0.372197 -0.372197 h 0.372197 0.372197 v 0.372197 0.372197 h 0.406033 0.406033 v 0.372197 0.372197 h 1.116594 1.116592 v -0.372197 -0.372197 h 0.406033 0.406033 v -0.372197 -0.372197 h 0.372197 0.372197 v -0.406033 -0.406034 h 0.372197 0.372197 v -0.372197 -0.372197 h 0.372198 0.372197 v 0.372197 0.372197 h 0.406033 0.406033 v 1.150428 1.150427 h 0.372197 0.372197 v 0.372197 0.372197 h 0.372197 0.372197 v 0.406034 0.406033 h 0.372198 0.372197 v 1.116591 1.116591 h 0.406033 0.406033 v 1.150428 1.150427 h 0.372197 0.372197 v 1.894822 1.894821 h 0.744394 0.744395 v 2.300855 2.300855 h 2.300854 2.300855 v 0.744394 0.744394 h 0.744394 0.744395 v 3.045249 3.045249 h -0.744395 -0.744394 v 0.77823 0.77823 h -6.090498 -6.090498 v -0.77823 -0.77823 h -0.77823 -0.77823 v -2.267019 -2.267018 h -4.567878 -4.567873 v 10.658372 10.658371 h 4.567873 4.567878 v -2.300855 -2.300855 h 0.77823 0.77823 v -0.744394 -0.744394 h 6.090498 6.090498 v 0.744394 0.744394 h 0.744394 0.744395 v 3.045249 3.045249 h -0.744395 -0.744394 v 0.77823 0.77823 h -2.300855 -2.300854 v 2.267019 2.267019 h -0.744395 -0.744394 v 0.77823 0.77823 h -12.181 -12.180996 z m 24.361996,-3.823479 v -3.045249 h 3.045249 3.045249 v -3.045249 -3.045249 h -6.090498 -6.090498 v 3.045249 3.045249 H 74.692205 68.601707 V 71.101911 58.920915 h 6.090498 6.090502 v 3.045249 3.045249 h 6.090498 6.090498 v -3.045249 -3.045249 h -3.045249 -3.045249 v -3.045249 -3.045249 h -0.372197 -0.372197 v 0.406034 0.406033 h -2.673052 -2.673052 v -0.406033 -0.406034 h -0.77823 -0.77823 v 0.406034 0.406033 h -3.045252 -3.04525 v -0.406033 -0.406034 h -5.312268 -5.312268 v -0.744394 -0.744394 h 1.522625 1.522624 V 42.950276 34.558923 H 62.511209 59.46596 V 45.217295 55.875666 H 58.68773 57.9095 v 0.778231 0.77823 h 1.522624 1.522625 v -2.300855 -2.300855 h 0.77823 0.77823 v 3.045249 3.045249 H 59.46596 56.420711 v 12.180996 12.180996 h 3.045249 3.045249 v 3.045249 3.045249 h 12.180996 12.181 z M 53.375462,70.357517 v -0.744395 h 0.744394 0.744395 v -4.567873 -4.567873 h -0.744395 -0.744394 v 0.744394 0.744394 h -0.77823 -0.77823 v 0.77823 0.77823 h -1.522625 -1.522624 v -0.77823 -0.77823 H 48.029358 47.284964 V 61.22177 60.477376 h -0.77823 -0.77823 v -0.77823 -0.778231 h -0.744395 -0.744394 v -0.744394 -0.744394 h -0.77823 -0.77823 v -0.77823 -0.778231 H 41.93886 41.194466 V 45.217295 34.558923 h -3.045248 -3.045249 v 12.180996 12.180996 h 0.744394 0.744394 v 0.778231 0.77823 h 0.778231 0.77823 v 0.744394 0.744394 h 0.744393 0.744395 v 0.77823 0.77823 h 0.77823 0.77823 v 0.744395 0.744394 h 0.744394 0.744395 v 0.77823 0.77823 h 0.77823 0.77823 v 0.744395 0.744394 h 0.744394 0.744395 v 0.77823 0.77823 h 0.77823 0.77823 v 0.744395 0.744394 h 3.045249 3.045249 z M 78.481852,52.45822 v -0.372197 h -1.522627 -1.522624 v -0.372197 -0.372197 h 2.300857 2.300855 v -0.372197 -0.372197 h 0.372197 0.372197 v 0.372197 0.372197 h 0.372197 0.372197 v 0.744394 0.744394 h 0.778231 0.77823 v -0.744394 -0.744394 h 0.372197 0.372197 v -0.372197 -0.372197 h 0.372197 0.372197 v -0.406033 -0.406034 h 0.372198 0.372197 v 0.778231 0.77823 H 84.944548 84.57235 v 0.372197 0.372197 h -0.372197 -0.372197 v 0.372197 0.372197 h 0.744394 0.744395 V 52.45822 52.086023 h 0.406033 0.406033 V 50.935596 49.785168 H 85.722778 85.316745 V 48.668577 47.551986 H 84.944548 84.57235 v 1.116591 1.116591 H 84.200153 83.827956 V 49.040774 48.29638 h -0.372197 -0.372197 v -0.372197 -0.372197 h 0.372197 0.372197 v -1.150428 -1.150427 h 0.372197 0.372197 V 44.878934 44.506737 H 84.200153 83.827956 V 44.100704 43.69467 h -0.372197 -0.372197 v 0.406034 0.406033 h -0.406033 -0.406033 v -1.928658 -1.928658 h -0.372197 -0.372198 v 0.406034 0.406033 h -0.372197 -0.372197 v 0.372197 0.372197 H 80.41051 80.038313 v 0.744394 0.744394 H 79.63228 79.226247 v 0.778231 0.77823 h -0.744395 -0.744394 v -0.372197 -0.372197 h 0.372197 0.372197 V 44.100704 43.69467 h -0.372197 -0.372197 v 0.406034 0.406033 h -0.372197 -0.3722 V 44.100704 43.69467 h -0.406033 -0.406033 v -0.744394 -0.744394 h -0.372197 -0.372197 v 0.372197 0.372197 h -0.372199 -0.372197 v 0.372197 0.372197 h -0.372197 -0.372197 v 0.778231 0.77823 H 73.541778 73.135745 V 44.878934 44.506737 H 72.39135 71.646956 v 0.372197 0.372197 h -0.77823 -0.77823 v 0.744394 0.744394 h -0.372197 -0.372198 v 0.406034 0.406033 h -0.372197 -0.372197 v 1.894821 1.894822 h 0.372197 0.372197 v 0.372197 0.372197 h 2.300855 2.300855 v 0.372197 0.372197 h 2.26702 2.267021 z M 74.692205,50.969432 V 50.597235 H 74.320008 73.947811 V 50.191202 49.785168 H 73.541778 73.135745 V 49.040774 48.29638 H 72.763548 72.39135 v -1.522624 -1.522625 h 0.372198 0.372197 v 1.522625 1.522624 h 0.406033 0.406033 v 0.744394 0.744394 h 0.372197 0.372197 v 0.406034 0.406033 h 0.372197 0.372199 v 0.372197 0.372197 h -0.372199 -0.372197 z m 6.834896,0 v -0.372197 h 0.778231 0.77823 v -0.406033 -0.406034 h 0.372197 0.372197 v 0.406034 0.406033 h -0.372197 -0.372197 v 0.372197 0.372197 h -0.77823 -0.778231 z m -3.045249,-0.77823 v -0.406034 h -1.150427 -1.15043 V 49.412971 49.040774 H 75.436601 74.692205 V 48.668577 48.29638 h 0.744396 0.744394 v 0.372197 0.372197 h 1.15043 1.150427 v 0.372197 0.372197 h 0.372198 0.372197 v 0.406034 0.406033 H 78.85405 78.481852 Z m 2.300855,-0.778231 v -0.372197 h 0.372197 0.372197 V 48.668577 48.29638 h 0.778231 0.77823 v 0.372197 0.372197 h -0.77823 -0.778231 v 0.372197 0.372197 h -0.372197 -0.372197 z m 2.300855,-4.534037 v -0.372197 h 0.372197 0.372197 v 0.372197 0.372197 h -0.372197 -0.372197 z m -7.646961,-6.090498 v -0.372197 h 0.77823 0.77823 v -0.406033 -0.406034 h 0.3722 0.372197 v -0.372197 -0.372197 h -1.15043 -1.150427 v -0.372197 -0.372197 h 1.894824 1.894822 v 0.372197 0.372197 H 78.85405 78.481852 v 0.372197 0.372197 h -0.372197 -0.372197 v 0.406034 0.406033 h 0.744394 0.744395 v 0.372197 0.372197 h -1.894822 -1.894824 z m -7.579288,-0.77823 v -0.406034 h 0.372197 0.372197 v -0.372197 -0.372197 h 0.372197 0.372197 v -0.372197 -0.372197 h 0.372198 0.372197 V 35.743187 35.37099 h -0.372197 -0.372198 v -0.406033 -0.406034 h 0.372198 0.372197 v 0.406034 0.406033 h 0.406033 0.406033 v -0.406033 -0.406034 h 0.372197 0.372197 v -0.372197 -0.372197 h -1.894821 -1.894822 v -0.372197 -0.372197 h 2.639216 2.639216 v 0.372197 0.372197 H 72.763548 72.39135 v 0.372197 0.372197 h -0.372197 -0.372197 v 0.406034 0.406033 h -0.372197 -0.372197 v 0.372197 0.372197 h 0.372197 0.372197 v 0.372197 0.372197 h -0.372197 -0.372197 v -0.372197 -0.372197 h -0.406033 -0.406033 v 0.372197 0.372197 h -0.372197 -0.372198 v 0.372197 0.372197 h 1.894822 1.894822 v 0.406034 0.406033 h -2.639216 -2.639216 z"
     id="path1" /></svg>
