<?xml version="1.0" encoding="UTF-8" standalone="no"?>
<svg
   viewBox="0 0 128 128"
   style="display:inline;enable-background:new"
   version="1.0"
   id="svg11300"
   height="128"
   width="128"
   xml:space="preserve"
   xmlns:xlink="http://www.w3.org/1999/xlink"
   xmlns="http://www.w3.org/2000/svg"
   xmlns:svg="http://www.w3.org/2000/svg"
   xmlns:rdf="http://www.w3.org/1999/02/22-rdf-syntax-ns#"
   xmlns:cc="http://creativecommons.org/ns#"
   xmlns:dc="http://purl.org/dc/elements/1.1/"><title
     id="title4162">Adwaita Icon Template</title><defs
     id="defs3"><linearGradient
       id="linearGradient36"><stop
         style="stop-color:#ff0000;stop-opacity:1;"
         offset="0"
         id="stop28" /><stop
         style="stop-color:#ff9999;stop-opacity:1;"
         offset="0.03"
         id="stop29" /><stop
         style="stop-color:#ff0000;stop-opacity:1;"
         offset="0.1"
         id="stop30" /><stop
         style="stop-color:#ff0000;stop-opacity:1;"
         offset="0.89999998"
         id="stop34" /><stop
         style="stop-color:#ff9999;stop-opacity:1;"
         offset="0.99000001"
         id="stop35" /><stop
         style="stop-color:#ff0000;stop-opacity:1;"
         offset="1"
         id="stop36" /></linearGradient><linearGradient
       id="linearGradient25"><stop
         style="stop-color:#001d54;stop-opacity:1;"
         offset="0"
         id="stop12" /><stop
         style="stop-color:#0051eb;stop-opacity:1;"
         offset="0.03"
         id="stop13" /><stop
         style="stop-color:#001d54;stop-opacity:1;"
         offset="0.07"
         id="stop14" /><stop
         style="stop-color:#001d54;stop-opacity:1;"
         offset="0.47"
         id="stop26" /><stop
         style="stop-color:#0051eb;stop-opacity:1;"
         offset="0.56"
         id="stop22" /><stop
         style="stop-color:#001d54;stop-opacity:1;"
         offset="0.62"
         id="stop27" /><stop
         style="stop-color:#001d54;stop-opacity:1;"
         offset="0.89999998"
         id="stop23" /><stop
         style="stop-color:#0051eb;stop-opacity:1;"
         offset="0.99000001"
         id="stop24" /><stop
         style="stop-color:#001d54;stop-opacity:1;"
         offset="1"
         id="stop25" /></linearGradient><linearGradient
       id="linearGradient11"><stop
         style="stop-color:#585858;stop-opacity:1;"
         offset="0"
         id="stop5" /><stop
         style="stop-color:#cccccc;stop-opacity:1;"
         offset="0.05168528"
         id="stop6" /><stop
         style="stop-color:#989898;stop-opacity:1;"
         offset="0.10430834"
         id="stop7" /><stop
         style="stop-color:#cdcdcd;stop-opacity:1;"
         offset="0.40238532"
         id="stop8" /><stop
         style="stop-color:#989898;stop-opacity:1;"
         offset="0.93000001"
         id="stop9" /><stop
         style="stop-color:#cccccc;stop-opacity:1;"
         offset="0.98000002"
         id="stop10" /><stop
         style="stop-color:#585858;stop-opacity:1;"
         offset="1"
         id="stop11" /></linearGradient><linearGradient
       xlink:href="#linearGradient11"
       id="linearGradient3"
       x1="11.999997"
       y1="65.957512"
       x2="77.534241"
       y2="65.957512"
       gradientUnits="userSpaceOnUse"
       gradientTransform="translate(0,14.595201)" /><linearGradient
       xlink:href="#linearGradient25"
       id="linearGradient5"
       x1="82.214844"
       y1="65.958008"
       x2="115.99937"
       y2="65.958008"
       gradientUnits="userSpaceOnUse"
       gradientTransform="translate(1.56e-4,14.595201)" /><linearGradient
       xlink:href="#linearGradient36"
       id="linearGradient27"
       gradientUnits="userSpaceOnUse"
       x1="82.214844"
       y1="65.958008"
       x2="115.99937"
       y2="65.958008"
       gradientTransform="translate(1.56e-4,14.595201)" /></defs><metadata
     id="metadata4"><rdf:RDF><cc:Work
         rdf:about=""><dc:format>image/svg+xml</dc:format><dc:type
           rdf:resource="http://purl.org/dc/dcmitype/StillImage" /><dc:creator><cc:Agent><dc:title>GNOME Design Team</dc:title></cc:Agent></dc:creator><dc:source /><cc:license
           rdf:resource="http://creativecommons.org/licenses/by-sa/4.0/" /><dc:title>Adwaita Icon Template</dc:title><dc:subject><rdf:Bag /></dc:subject><dc:date /><dc:rights><cc:Agent><dc:title /></cc:Agent></dc:rights><dc:publisher><cc:Agent><dc:title /></cc:Agent></dc:publisher><dc:identifier /><dc:relation /><dc:language /><dc:coverage /><dc:description /><dc:contributor><cc:Agent><dc:title /></cc:Agent></dc:contributor></cc:Work><cc:License
         rdf:about="http://creativecommons.org/licenses/by-sa/4.0/"><cc:permits
           rdf:resource="http://creativecommons.org/ns#Reproduction" /><cc:permits
           rdf:resource="http://creativecommons.org/ns#Distribution" /><cc:requires
           rdf:resource="http://creativecommons.org/ns#Notice" /><cc:requires
           rdf:resource="http://creativecommons.org/ns#Attribution" /><cc:permits
           rdf:resource="http://creativecommons.org/ns#DerivativeWorks" /><cc:requires
           rdf:resource="http://creativecommons.org/ns#ShareAlike" /></cc:License></rdf:RDF></metadata><path
     style="fill:url(#linearGradient27);fill-opacity:1;stroke-width:1.17026"
     d="m 83.838047,82.894029 c -0.89588,-6.24e-4 -1.622592,0.725214 -1.623047,1.621094 V 97.38817 c 9.6e-5,1.043045 0.845627,1.888576 1.888672,1.888672 h 30.960938 c 0.56247,-3.02e-4 0.93545,-0.459653 0.93539,-0.939443 l -5e-4,-4.00337 c 0,0 -1.15763,0.837271 -1.24903,0.745548 l -12.50586,-10.88086 c -0.83546,-0.835624 -1.96876,-1.304965 -3.150394,-1.304688 z"
     id="path27" /><path
     style="fill:url(#linearGradient5);fill-opacity:1;stroke-width:1.17026"
     d="m 84.103672,61.829576 c -1.043045,9.6e-5 -1.888576,0.845627 -1.888672,1.888672 v 12.873047 c 4.55e-4,0.89588 0.727167,1.621718 1.623047,1.621094 h 15.255859 c 1.181634,2.77e-4 2.314934,-0.469064 3.150394,-1.304688 l 13.48242,-13.482422 c 0.18995,-0.190619 0.27347,-0.42473 0.27328,-0.6543 -1e-4,-0.135824 0,-4.03662 0,-4.03662 -0.14098,-0.311362 -1.82787,1.126684 -2.23189,1.126467 z"
     id="path3" /><path
     d="M 58.810169,45.835332 V 99.277206 C 43.3043,99.148478 30.724066,84.498065 30.724066,66.510086 c 0,-8.11525 2.544182,-15.547399 6.748528,-21.275819 0.308698,-0.420601 0.46185,-0.805116 0.467633,-1.128142 0.0023,-0.130228 0.04427,-3.954401 -7.71e-4,-4.062976 -0.166026,-0.400263 -0.954815,1.535725 -1.727383,1.604602 L 19.866576,43.105 c -1.501964,0.133904 -3.253599,1.105795 -3.820803,2.5028 -2.594846,6.391027 -4.045776,13.461868 -4.045776,20.902286 0,28.316643 20.980319,51.363634 46.810172,51.485334 l 15.993737,0.005 c 1.507795,4.7e-4 2.730349,-1.22172 2.730332,-2.72951 V 45.835332 c 0,-1.507921 -1.222411,-2.730332 -2.730332,-2.730332 H 61.540501 c -1.507921,0 -2.730332,1.222411 -2.730332,2.730332 z"
     id="path2"
     style="fill:url(#linearGradient3);stroke-width:1.17025" /><path
     d="M 58.810169,41.835332 V 95.277206 C 43.3043,95.148478 30.724066,80.498065 30.724066,62.510086 c 0,-8.11525 2.544178,-15.547402 6.748528,-21.275819 C 38.364532,40.019002 37.957912,39.105 36.449991,39.105 H 19.866576 c -1.507921,0 -3.253599,1.105795 -3.820803,2.5028 -2.594846,6.391027 -4.045776,13.461868 -4.045776,20.902286 0,28.316643 20.980319,51.363634 46.810172,51.485334 l 15.993737,0.005 a 2.7294794,2.7294794 0 0 0 2.730332,-2.72951 V 41.835332 A 2.7303325,2.7303325 0 0 0 74.803906,39.105 H 61.540501 a 2.7303325,2.7303325 0 0 0 -2.730332,2.730332 z"
     id="path1"
     style="fill:#000000;fill-opacity:1;stroke-width:1.17025" /><path
     id="polygon1"
     style="fill:#000000;fill-opacity:1;stroke-width:1.17026"
     d="M 84.103672,57.829576 A 1.8888454,1.8888454 0 0 0 82.215,59.718248 v 12.873047 a 1.6219178,1.6219178 0 0 0 1.623047,1.621094 h 15.255859 a 4.4533993,4.4533993 0 0 0 3.150394,-1.304688 l 13.48242,-13.482422 a 0.93542558,0.93542558 0 0 0 -0.66211,-1.595703 z M 83.838047,78.894029 A 1.6219178,1.6219178 0 0 0 82.215,80.515123 V 93.38817 a 1.8888454,1.8888454 0 0 0 1.888672,1.888672 h 30.960938 a 0.93542558,0.93542558 0 0 0 0.66211,-1.595703 L 102.2443,80.198717 a 4.4533993,4.4533993 0 0 0 -3.150394,-1.304688 z" /></svg>
