<?xml version="1.0" encoding="UTF-8" standalone="no"?>
<svg
   height="128px"
   viewBox="0 0 128 128"
   width="128px"
   version="1.1"
   id="svg286"
   xmlns:xlink="http://www.w3.org/1999/xlink"
   xmlns="http://www.w3.org/2000/svg"
   xmlns:svg="http://www.w3.org/2000/svg">
  <defs
     id="defs290">
    <pattern
       xlink:href="#red-stripes"
       id="pattern1870"
       patternTransform="matrix(0.87499998,0,0,0.87499998,42.5625,25)" />
    <pattern
       id="red-stripes"
       width="341"
       height="90"
       patternUnits="userSpaceOnUse">
      <rect
         width="341"
         height="16"
         fill="#f00"
         id="rect2" />
      <rect
         y="16"
         width="341"
         height="16"
         fill="#d70000"
         id="rect4" />
      <rect
         y="32"
         width="341"
         height="16"
         fill="#af0000"
         id="rect6" />
      <rect
         y="48"
         width="341"
         height="16"
         fill="#870000"
         id="rect8" />
      <rect
         y="64"
         width="341"
         height="16"
         fill="#5f0000"
         id="rect10" />
    </pattern>
    <linearGradient
       x1="49.021477"
       y1="-0.079846866"
       x2="49.021477"
       y2="97.846107"
       id="a-3"
       gradientTransform="matrix(0.15223313,0,0,0.71463712,35.139391,25.057063)"
       gradientUnits="userSpaceOnUse">
      <stop
         stop-color="#16B0ED"
         stop-opacity=".8"
         offset="0%"
         id="stop2010" />
      <stop
         stop-color="#0F59B2"
         stop-opacity=".837"
         offset="100%"
         id="stop2012" />
    </linearGradient>
    <linearGradient
       x1="326.17334"
       y1="-0.069476359"
       x2="326.17334"
       y2="98.850868"
       id="b-6"
       gradientTransform="matrix(-0.15379709,0,0,0.70736996,135.40938,25.057063)"
       gradientUnits="userSpaceOnUse">
      <stop
         stop-color="#7DB643"
         offset="0%"
         id="stop2015" />
      <stop
         stop-color="#367533"
         offset="100%"
         id="stop2017" />
    </linearGradient>
    <linearGradient
       x1="103.88464"
       y1="-0.11535945"
       x2="103.88464"
       y2="178.55791"
       id="c"
       gradientTransform="matrix(0.2777346,0,0,0.39171008,35.139391,25.057063)"
       gradientUnits="userSpaceOnUse">
      <stop
         stop-color="#88C649"
         stop-opacity=".8"
         offset="0%"
         id="stop2020" />
      <stop
         stop-color="#439240"
         stop-opacity=".84"
         offset="100%"
         id="stop2022" />
    </linearGradient>
    <filter
       id="g"
       x="-0.053572174"
       y="-0.068180587"
       width="1.1071443"
       height="1.1363612"
       color-interpolation-filters="sRGB">
      <feGaussianBlur
         stdDeviation="0.81521739"
         id="feGaussianBlur7" />
    </filter>
    <linearGradient
       id="c-7"
       x1="32"
       x2="32"
       y1="17.652"
       y2="46.348"
       gradientUnits="userSpaceOnUse"
       gradientTransform="translate(348.19857,156.83168)">
      <stop
         stop-color="#fbfbfb"
         offset="0"
         id="stop2" />
      <stop
         stop-color="#c4e4de"
         offset="1"
         id="stop4" />
    </linearGradient>
  </defs>
  <linearGradient
     id="a"
     gradientUnits="userSpaceOnUse"
     x1="11.999989"
     x2="115.999989"
     y1="64"
     y2="64">
    <stop
       offset="0"
       stop-color="#3d3846"
       id="stop252" />
    <stop
       offset="0.05"
       stop-color="#77767b"
       id="stop254" />
    <stop
       offset="0.1"
       stop-color="#5e5c64"
       id="stop256" />
    <stop
       offset="0.899999"
       stop-color="#504e56"
       id="stop258" />
    <stop
       offset="0.95"
       stop-color="#77767b"
       id="stop260" />
    <stop
       offset="1"
       stop-color="#3d3846"
       id="stop262" />
  </linearGradient>
  <linearGradient
     id="b"
     gradientUnits="userSpaceOnUse"
     x1="12"
     x2="112.041023"
     y1="60"
     y2="80.988281">
    <stop
       offset="0"
       stop-color="#77767b"
       id="stop265" />
    <stop
       offset="0.384443"
       stop-color="#9a9996"
       id="stop267" />
    <stop
       offset="0.720567"
       stop-color="#77767b"
       id="stop269" />
    <stop
       offset="1"
       stop-color="#68666f"
       id="stop271" />
  </linearGradient>
  <path
     d="m 20 22 h 88 c 4.417969 0 8 3.582031 8 8 v 78 c 0 4.417969 -3.582031 8 -8 8 h -88 c -4.417969 0 -8 -3.582031 -8 -8 v -78 c 0 -4.417969 3.582031 -8 8 -8 z m 0 0"
     fill="url(#a)"
     id="path274" />
  <path
     d="m 20 12 h 88 c 4.417969 0 8 3.582031 8 8 v 80 c 0 4.417969 -3.582031 8 -8 8 h -88 c -4.417969 0 -8 -3.582031 -8 -8 v -80 c 0 -4.417969 3.582031 -8 8 -8 z m 0 0"
     fill="url(#b)"
     id="path276" />
  <path
     d="m 20 14 h 88 c 3.3125 0 6 2.6875 6 6 v 80 c 0 3.3125 -2.6875 6 -6 6 h -88 c -3.3125 0 -6 -2.6875 -6 -6 v -80 c 0 -3.3125 2.6875 -6 6 -6 z m 0 0"
     fill="#241f31"
     id="path278" />
  <path
     d="m 64.00017,25 35,35 -35,35 -35,-35 z"
     opacity="0.25"
     id="path33"
     style="fill:#019833;fill-opacity:1;stroke-width:1.91665;opacity:1" />
  <path
     d="m 30.24983,32.49986 -1.24999,1.24999 v 2.49989 l 1.24999,1.24998 h 3.74993 v 48.75007 l 1.25,1.24998 h 3.74993 L 93.99996,36.25039 V 33.7505 L 92.74998,32.50051 H 70.25039 l -1.25,1.24999 v 2.49989 l 1.25,1.24998 h 3.74993 v 2.49989 L 46.50019,64.99917 V 37.49903 h 3.74993 l 1.25,-1.24998 v -2.49989 l -1.25,-1.24999 z m 38.48639,29.99946 -1.7725,1.24998 -0.84,2.49989 0.9375,1.24998 h 2.70497 l 1.77248,-1.24998 0.83499,-2.49989 -0.93249,-1.24998 m -9.18997,7.49986 -0.75249,2.49989 h 2.24995 L 58.99862,84.9989 h 7.49987 l 0.9225,-2.49989 h -2.17253 l 4.75005,-12.49983 m 2.99745,0 -0.87499,2.49989 h 1.87498 L 69.24591,84.9989 h 6.37747 l 0.87501,-2.49989 h -1.3775 l 2.62754,-7.49986 h 5.31239 l -3.56497,9.99995 h 6.25001 l 0.99999,-2.49989 h -1.37249 l 2.62256,-7.49987 h 4.99997 l -3.5,9.99995 h 6.55246 l 1.14748,-2.49989 h -1.74749 l 3.55003,-9.99995 -2.00252,-2.49989 h -2.99746 l -2.50008,2.49989 H 89.37332 L 87.24583,69.99956 H 84.8734 l -2.37492,2.49989 h -2.50009 l -2.24996,-2.49989"
     fill="url(#c)"
     id="path37"
     style="fill:#cccccc;fill-opacity:1;stroke-width:1.91665" />
</svg>
