<?xml version="1.0" encoding="UTF-8" standalone="no"?>
<svg
   width="128"
   height="128"
   version="1"
   id="svg8"
   xml:space="preserve"
   xmlns:xlink="http://www.w3.org/1999/xlink"
   xmlns="http://www.w3.org/2000/svg"
   xmlns:svg="http://www.w3.org/2000/svg"><defs
     id="defs12"><linearGradient
       id="linearGradient1119"><stop
         style="stop-color:#b40e0e;stop-opacity:1;"
         offset="0"
         id="stop1115" /><stop
         style="stop-color:#ef3939;stop-opacity:1;"
         offset="0.03756294"
         id="stop1123" /><stop
         style="stop-color:#b40e0e;stop-opacity:1;"
         offset="0.06949793"
         id="stop1125" /><stop
         style="stop-color:#b40e0e;stop-opacity:1;"
         offset="0.92579979"
         id="stop1127" /><stop
         style="stop-color:#ef3939;stop-opacity:1;"
         offset="0.95588344"
         id="stop1129" /><stop
         style="stop-color:#b40e0e;stop-opacity:1;"
         offset="1"
         id="stop1117" /></linearGradient><linearGradient
       xlink:href="#linearGradient1119"
       id="linearGradient1121"
       x1="-142.51593"
       y1="88.360815"
       x2="-22.51593"
       y2="88.360815"
       gradientUnits="userSpaceOnUse"
       gradientTransform="matrix(0.86666667,0,0,0.83333333,135.51381,-7.6340129)" /></defs><rect
     style="display:inline;fill:url(#linearGradient1121);fill-opacity:1;stroke:none;stroke-width:0.25;stroke-linecap:butt;stroke-linejoin:miter;stroke-miterlimit:4;stroke-dasharray:none;stroke-dashoffset:0;stroke-opacity:1;marker:none;marker-start:none;marker-mid:none;marker-end:none;paint-order:normal;enable-background:new"
     id="rect1711-3"
     width="104"
     height="100"
     x="12"
     y="16"
     rx="8"
     ry="8" /><rect
     style="display:inline;fill:#ef3939;fill-opacity:1;stroke:none;stroke-width:0.25;stroke-linecap:butt;stroke-linejoin:miter;stroke-miterlimit:4;stroke-dasharray:none;stroke-dashoffset:0;stroke-opacity:1;marker:none;marker-start:none;marker-mid:none;marker-end:none;paint-order:normal;enable-background:new"
     id="rect1711"
     width="104"
     height="100"
     x="12"
     y="12"
     rx="8"
     ry="8.000001" /><circle
     style="fill:#ffffff;stroke-width:6.25"
     cx="64"
     cy="62"
     r="37.5"
     id="circle4" /><path
     style="fill:#e33636;fill-opacity:1;stroke-width:6.25"
     d="m 82.873684,37.001149 c -1.002581,8.09e-4 -2.017702,0.228345 -2.830262,0.671459 -1.187409,0.647515 -2.382574,2.019164 -2.912763,3.342873 -0.563433,1.406736 -0.644363,3.886685 -0.169625,5.204895 0.200748,0.557431 0.547253,1.515234 0.769808,2.128427 0.502564,1.384825 0.683509,4.430793 0.364872,6.141641 -0.358811,1.926372 -1.473521,4.151681 -2.780272,5.550475 -3.921421,4.196975 -9.850009,4.270502 -13.744707,0.170379 -1.343943,-1.414883 -1.534548,-1.7527 -7.601354,-13.481197 -2.058317,-3.982273 -3.905534,-7.316323 -4.288864,-7.747198 -1.20555,-1.382031 -2.881932,-1.876138 -4.416922,-1.884373 -3.299984,-0.05799 -5.587192,2.739239 -6.129971,5.741942 -0.40092,2.402952 -0.585331,1.989284 10.074676,22.567486 6.728575,12.988863 9.926615,18.976382 10.451052,19.564908 1.857519,2.085011 4.503872,2.601824 6.980249,1.3632 0.651101,-0.325688 1.388183,-0.911013 1.859014,-1.476263 0.922243,-1.107182 19.993789,-37.784534 20.303233,-39.046273 0.324374,-1.322355 0.243812,-3.201112 -0.192626,-4.501379 -0.542875,-1.617322 -2.040795,-3.276699 -3.518039,-3.897569 -0.663064,-0.278644 -1.435302,-0.415256 -2.215069,-0.414576 z"
     id="path6" /></svg>
