<?xml version="1.0" encoding="UTF-8" standalone="no"?>
<svg
   height="128px"
   viewBox="0 0 128 128"
   width="128px"
   version="1.1"
   id="svg286"
   xml:space="preserve"
   xmlns:xlink="http://www.w3.org/1999/xlink"
   xmlns="http://www.w3.org/2000/svg"
   xmlns:svg="http://www.w3.org/2000/svg"><defs
     id="defs290"><linearGradient
       id="linearGradient1113"><stop
         style="stop-color:#2b383f;stop-opacity:1"
         offset="0"
         id="stop1109" /><stop
         style="stop-color:#172024;stop-opacity:1"
         offset="1"
         id="stop1111" /></linearGradient><linearGradient
       xlink:href="#linearGradient1113"
       id="linearGradient2"
       x1="64"
       y1="14"
       x2="64"
       y2="106"
       gradientUnits="userSpaceOnUse" /></defs><linearGradient
     id="a"
     gradientUnits="userSpaceOnUse"
     x1="11.999989"
     x2="115.999989"
     y1="64"
     y2="64"><stop
       offset="0"
       stop-color="#3d3846"
       id="stop252" /><stop
       offset="0.05"
       stop-color="#77767b"
       id="stop254" /><stop
       offset="0.1"
       stop-color="#5e5c64"
       id="stop256" /><stop
       offset="0.899999"
       stop-color="#504e56"
       id="stop258" /><stop
       offset="0.95"
       stop-color="#77767b"
       id="stop260" /><stop
       offset="1"
       stop-color="#3d3846"
       id="stop262" /></linearGradient><linearGradient
     id="b"
     gradientUnits="userSpaceOnUse"
     x1="12"
     x2="112.041023"
     y1="60"
     y2="80.988281"><stop
       offset="0"
       stop-color="#77767b"
       id="stop265" /><stop
       offset="0.384443"
       stop-color="#9a9996"
       id="stop267" /><stop
       offset="0.720567"
       stop-color="#77767b"
       id="stop269" /><stop
       offset="1"
       stop-color="#68666f"
       id="stop271" /></linearGradient><path
     d="m 20 22 h 88 c 4.417969 0 8 3.582031 8 8 v 78 c 0 4.417969 -3.582031 8 -8 8 h -88 c -4.417969 0 -8 -3.582031 -8 -8 v -78 c 0 -4.417969 3.582031 -8 8 -8 z m 0 0"
     fill="url(#a)"
     id="path274" /><path
     d="m 20 12 h 88 c 4.417969 0 8 3.582031 8 8 v 80 c 0 4.417969 -3.582031 8 -8 8 h -88 c -4.417969 0 -8 -3.582031 -8 -8 v -80 c 0 -4.417969 3.582031 -8 8 -8 z m 0 0"
     fill="url(#b)"
     id="path276" /><path
     d="m 20 14 h 88 c 3.3125 0 6 2.6875 6 6 v 80 c 0 3.3125 -2.6875 6 -6 6 h -88 c -3.3125 0 -6 -2.6875 -6 -6 v -80 c 0 -3.3125 2.6875 -6 6 -6 z m 0 0"
     fill="#241f31"
     id="path278"
     style="fill:url(#linearGradient2)" /><path
     d="m 50.059181,52.443965 -0.0208,2.329622 -11.96644,-17.66698 1.108253,-1.128695 z"
     fill-opacity="0.13"
     fill="#000000"
     id="path2033"
     style="fill-rule:evenodd;stroke-width:0.329836" /><path
     id="path856"
     style="font-style:normal;font-variant:normal;font-weight:normal;font-stretch:normal;font-size:47.9778px;line-height:1.25;font-family:'Operator Mono';-inkscape-font-specification:'Operator Mono';fill:#4e49ee;fill-opacity:1;stroke-width:0.405231"
     d="m 89.214011,82.829865 h 8.211822 c 1.026478,-8.616433 2.492875,-25.996585 3.446037,-45.659724 h -7.845228 c -0.219959,4.639617 -1.026478,32.256385 -1.319757,34.539371 h -0.21996 C 89.50729,64.271397 87.894252,58.232529 85.914617,50.868058 h -4.472511 c -1.906316,7.364471 -3.226073,12.887825 -5.20571,20.841454 H 75.943117 C 75.723158,69.426526 74.47672,41.809758 74.330081,37.170141 h -8.138503 c 0.953157,19.663139 2.346235,37.043291 3.372713,45.659724 h 8.065184 l 5.645627,-21.87248 z M 37.172956,49.32152 c 0,-1.914763 1.906316,-3.093079 6.525467,-3.093079 l -1.539718,8.469143 C 39.299231,52.782821 37.172956,51.015348 37.172956,49.32152 Z M 49.49069,70.236618 c 0,1.988408 -1.979636,3.314012 -6.525466,3.534947 l 1.613036,-8.984656 c 2.859475,1.914763 4.91243,3.608591 4.91243,5.449709 z m -8.065183,18.41118 1.393077,-8.321853 c 11.071298,-1.031027 15.397169,-5.523354 15.397169,-10.457551 0,-5.081485 -6.158868,-9.058299 -11.804497,-12.5196 l 2.052957,-10.89942 c 2.346234,0.220935 5.132389,0.662804 8.431783,1.325606 l 0.953157,-7.585405 c -2.492874,-0.368224 -4.83911,-0.515514 -7.038706,-0.662804 l 1.686358,-8.100919 -7.258665,-0.07365 -1.393079,8.248208 c -11.071299,0.883737 -15.397169,5.523353 -15.397169,10.457549 0,5.007841 6.15887,8.837366 11.804497,12.151378 l -2.052955,11.414932 c -2.639515,-0.147296 -5.865592,-0.589157 -9.604902,-1.251961 l -1.4664,7.585407 c 3.15276,0.368223 6.08555,0.589157 8.725066,0.662802 l -1.613036,7.953629 z" /></svg>
