<?xml version="1.0" encoding="UTF-8" standalone="no"?>
<svg
   viewBox="0 0 128 128.24545"
   version="1.1"
   id="svg745"
   width="128"
   height="128.24545"
   xmlns:xlink="http://www.w3.org/1999/xlink"
   xmlns="http://www.w3.org/2000/svg"
   xmlns:svg="http://www.w3.org/2000/svg">
  <defs
     id="defs733">
    <linearGradient
       id="linearGradient894">
      <stop
         style="stop-color:#b2b2b2;stop-opacity:1;"
         offset="0"
         id="stop882" />
      <stop
         style="stop-color:#f0f0f0;stop-opacity:1;"
         offset="0.40999869"
         id="stop884" />
      <stop
         style="stop-color:#b2b2b2;stop-opacity:1;"
         offset="0.81230253"
         id="stop886" />
      <stop
         style="stop-color:#ebebeb;stop-opacity:1;"
         offset="1"
         id="stop890" />
    </linearGradient>
    <linearGradient
       id="b"
       x1="85.915001"
       x2="86.535004"
       y1="32.567001"
       y2="137.092"
       gradientUnits="userSpaceOnUse"
       gradientTransform="matrix(0.79852198,0,0,0.79495533,-5.5992675,-6.5486348)">
      <stop
         offset="0"
         stop-color="#57d163"
         id="stop725" />
      <stop
         offset="1"
         stop-color="#23b33a"
         id="stop727" />
    </linearGradient>
    <linearGradient
       xlink:href="#linearGradient894"
       id="linearGradient2547"
       x1="10.241195"
       y1="66.122726"
       x2="117.7588"
       y2="66.122726"
       gradientUnits="userSpaceOnUse"
       gradientTransform="matrix(1.0974945,0,0,1.0925925,-6.2396555,-6.1224801)" />
  </defs>
  <path
     fill="#ffffff"
     d="M 5.0000004,125.12273 5.0009557,120.7578 13.335775,94.823781 C 8.1860391,85.935424 5.4810511,75.852588 5.4934906,65.591686 5.5070713,33.351476 31.861486,7.1227192 64.247144,7.1227192 79.962855,7.1307192 94.713952,13.219231 105.80782,24.271497 116.90168,35.323761 123.00558,50.014536 123,65.638591 122.98563,97.876404 96.627203,124.10996 64.246345,124.10996 h -0.02555 c -9.832202,-0.004 -19.49352,-2.4596 -28.075236,-7.11804 z"
     id="path737-5"
     style="fill:url(#linearGradient2547);fill-opacity:1;stroke-width:0.796736" />
  <path
     fill="#ffffff"
     d="M 5.0000024,121.12272 13.335773,90.823786 A 58.627483,58.36562 0 0 1 5.4934886,61.591688 C 5.5070647,29.351479 31.861483,3.1227236 64.247139,3.1227236 79.96285,3.1307036 94.713946,9.2192352 105.80782,20.2715 c 11.09386,11.052264 17.19776,25.743038 17.19217,41.36709 -0.0144,32.237824 -26.372784,58.47136 -58.753649,58.47136 h -0.02555 c -9.832201,-0.004 -19.493519,-2.4596 -28.075235,-7.11803 z"
     id="path737"
     style="stroke-width:0.796736" />
  <path
     fill="url(#b)"
     d="m 64.019073,13.505703 c -26.936543,0 -48.842396,21.80006 -48.851978,48.595619 a 48.693871,48.476377 0 0 0 7.465382,25.863873 l 1.16185,1.838731 -4.934068,17.932604 18.48259,-4.82458 1.784696,1.05251 c 7.495725,4.42871 16.090218,6.77064 24.854796,6.77541 h 0.01836 c 26.91578,0 48.821629,-21.802445 48.832009,-48.599595 A 48.510211,48.293537 0 0 0 98.543171,27.757662 48.510211,48.293537 0 0 0 64.019073,13.505703 Z"
     id="path741"
     style="fill:url(#b);stroke-width:0.796736" />
  <path
     fill="#ffffff"
     fill-rule="evenodd"
     d="m 49.337516,37.13676 c -1.100364,-2.433357 -2.258221,-2.482645 -3.303485,-2.524778 l -2.813993,-0.03419 c -0.978987,0 -2.569643,0.36568 -3.914355,1.828397 -1.34471,1.462718 -5.138487,4.997884 -5.138487,12.188256 0,7.190371 5.260662,14.13828 5.993705,15.114485 0.733043,0.976205 10.155603,16.201984 25.077582,22.060011 12.400249,4.868306 14.923578,3.90005 17.616193,3.656794 2.692617,-0.243257 8.685525,-3.535167 9.908061,-6.94791 1.222538,-3.412743 1.223336,-6.336589 0.856814,-6.947909 C 93.25303,74.918595 92.274042,74.5553 90.804763,73.823942 89.335482,73.092583 82.119238,69.557416 80.773729,69.069313 79.42822,68.581211 78.45003,68.338749 77.470243,69.801467 c -0.979786,1.462718 -3.789785,4.753039 -4.646599,5.728449 -0.856814,0.97541 -1.712032,1.097833 -3.181312,0.367269 -1.46928,-0.730564 -6.19653,-2.274367 -11.805348,-7.253172 -4.363924,-3.873817 -7.30967,-8.657859 -8.167283,-10.119782 -0.857613,-1.461922 -0.09104,-2.253698 0.645205,-2.981877 0.658781,-0.655043 1.467684,-1.706769 2.203122,-2.559756 0.735439,-0.852987 0.977391,-1.462718 1.466087,-2.436538 0.488696,-0.97382 0.245146,-1.829193 -0.122174,-2.559757 -0.36732,-0.730564 -3.21964,-7.958297 -4.524425,-10.848755"
     id="path743"
     style="stroke-width:0.796736" />
</svg>
