<?xml version="1.0" encoding="UTF-8" standalone="no"?>
<svg
   height="128"
   viewBox="0 0 128 128"
   width="128"
   version="1.1"
   id="svg58"
   xmlns="http://www.w3.org/2000/svg"
   xmlns:svg="http://www.w3.org/2000/svg"
   xmlns:rdf="http://www.w3.org/1999/02/22-rdf-syntax-ns#"
   xmlns:cc="http://creativecommons.org/ns#"
   xmlns:dc="http://purl.org/dc/elements/1.1/">
  <defs
     id="defs58" />
  <linearGradient
     id="a"
     gradientUnits="userSpaceOnUse"
     x1="43.223911"
     x2="85.194962"
     y1="112.23877"
     y2="112.23877">
    <stop
       offset="0"
       stop-color="#9a9996"
       id="stop1" />
    <stop
       offset="0.0410189"
       stop-color="#deddda"
       id="stop2" />
    <stop
       offset="0.112943"
       stop-color="#9a9996"
       id="stop3" />
    <stop
       offset="0.880127"
       stop-color="#9a9996"
       id="stop4" />
    <stop
       offset="0.952051"
       stop-color="#deddda"
       id="stop5" />
    <stop
       offset="1"
       stop-color="#9a9996"
       id="stop6" />
  </linearGradient>
  <linearGradient
     id="b"
     gradientTransform="matrix(0.865635,0,0,1.344782,1.738141,-54.862427)"
     gradientUnits="userSpaceOnUse"
     x1="72.000046"
     x2="72.000046"
     y1="113.32155"
     y2="126.88042">
    <stop
       offset="0"
       stop-color="#77767b"
       id="stop7" />
    <stop
       offset="1"
       stop-color="#deddda"
       stop-opacity="0"
       id="stop8" />
  </linearGradient>
  <linearGradient
     id="c"
     gradientUnits="userSpaceOnUse"
     x1="65.311623"
     x2="65.723244"
     y1="7.7423668"
     y2="90.904022">
    <stop
       offset="0"
       stop-color="#ffffff"
       stop-opacity="0.576443"
       id="stop9" />
    <stop
       offset="1"
       stop-color="#e01b67"
       id="stop10" />
  </linearGradient>
  <radialGradient
     id="d"
     cx="71.500832"
     cy="96.842064"
     gradientTransform="matrix(1.590423,-0.0110517,0.00527292,0.758814,-51.230804,-1.81146)"
     gradientUnits="userSpaceOnUse"
     r="32.206825">
    <stop
       offset="0"
       stop-color="#27000b"
       id="stop11" />
    <stop
       offset="1"
       stop-color="#dd000d"
       id="stop12" />
  </radialGradient>
  <linearGradient
     id="e"
     gradientUnits="userSpaceOnUse"
     x1="64.064964"
     x2="64.064964"
     y1="1.1098651"
     y2="106.46884">
    <stop
       offset="0"
       stop-color="#ffffff"
       id="stop13" />
    <stop
       offset="1"
       stop-color="#deddda"
       id="stop14" />
  </linearGradient>
  <linearGradient
     id="f"
     gradientUnits="userSpaceOnUse"
     x1="73.350212"
     x2="97.270523"
     y1="19.974056"
     y2="19.974056">
    <stop
       offset="0"
       stop-color="#ffa348"
       id="stop15" />
    <stop
       offset="0.194706"
       stop-color="#e66100"
       id="stop16" />
    <stop
       offset="0.740009"
       stop-color="#ff7800"
       id="stop17" />
    <stop
       offset="1"
       stop-color="#ffbe6f"
       id="stop18" />
  </linearGradient>
  <linearGradient
     id="g"
     gradientUnits="userSpaceOnUse"
     x1="48.517864"
     x2="64.410805"
     y1="32.306488"
     y2="32.306488">
    <stop
       offset="0"
       stop-color="#ffa348"
       id="stop19" />
    <stop
       offset="0.289146"
       stop-color="#e66100"
       id="stop20" />
    <stop
       offset="0.722673"
       stop-color="#e66100"
       id="stop21" />
    <stop
       offset="1"
       stop-color="#ffbe6f"
       id="stop22" />
  </linearGradient>
  <linearGradient
     id="h"
     gradientTransform="matrix(0.805777,0.240496,-0.285998,0.95823,-91.928324,-75.558111)"
     gradientUnits="userSpaceOnUse"
     x1="177.75"
     x2="187.75"
     y1="107.5"
     y2="107.5">
    <stop
       offset="0"
       stop-color="#241f31"
       id="stop23" />
    <stop
       offset="0.5"
       stop-color="#3d3846"
       id="stop24" />
    <stop
       offset="1"
       stop-color="#241f31"
       id="stop25" />
  </linearGradient>
  <linearGradient
     id="i"
     gradientTransform="matrix(0.805777,0.240496,-0.285998,0.95823,-91.928324,-75.558111)"
     gradientUnits="userSpaceOnUse"
     x1="177.75"
     x2="187.75"
     y1="60.268555"
     y2="60.268555">
    <stop
       offset="0"
       stop-color="#c0bfbc"
       id="stop26" />
    <stop
       offset="0.4875"
       stop-color="#f6f5f4"
       id="stop27" />
    <stop
       offset="1"
       stop-color="#9a9996"
       id="stop28" />
  </linearGradient>
  <linearGradient
     id="j"
     gradientUnits="userSpaceOnUse"
     x1="64.777946"
     x2="112.82085"
     y1="76.368774"
     y2="76.368774">
    <stop
       offset="0"
       stop-color="#ffa348"
       id="stop29" />
    <stop
       offset="0.0986334"
       stop-color="#e66100"
       id="stop30" />
    <stop
       offset="0.908136"
       stop-color="#ff7800"
       id="stop31" />
    <stop
       offset="1"
       stop-color="#ffbe6f"
       id="stop32" />
  </linearGradient>
  <linearGradient
     id="k"
     gradientUnits="userSpaceOnUse"
     x1="89.482407"
     x2="89.482407"
     y1="61.678871"
     y2="104.81239">
    <stop
       offset="0"
       stop-color="#f9f06b"
       id="stop33" />
    <stop
       offset="1"
       stop-color="#ffa348"
       id="stop34" />
  </linearGradient>
  <path
     d="m 64.0625,100.66406 c -9.351562,-0.004 -17.558594,3.48047 -20.074219,8.51953 h -0.765625 v 3.13282 c 0,6.43359 9.328125,11.65234 20.839844,11.65234 11.507812,0 20.839844,-5.21875 20.839844,-11.65234 0,-0.0273 0,-0.0547 0,-0.0781 v -3.05469 h -0.769532 c -2.511718,-5.03906 -10.71875,-8.51953 -20.070312,-8.51953 z m 0,0"
     fill="url(#a)"
     id="path34"
     style="fill:url(#a)" />
  <path
     d="m 84.902344,109.18359 c 0,6.4336 -9.332032,11.65235 -20.839844,11.65235 -11.511719,0 -20.839844,-5.21875 -20.839844,-11.65235 0,-6.4375 9.328125,-11.65234 20.839844,-11.65234 11.507812,0 20.839844,5.21484 20.839844,11.65234 z m 0,0"
     fill="#deddda"
     id="path35" />
  <path
     d="m 64.0625,87.816406 -6.660156,0.07422 -3.386719,3.199219 c 3.472656,5.527344 11.070313,7.015625 1.792969,16.632815 1.339844,2.07812 5.015625,4.32031 8.253906,4.02343 3.238281,0.29688 6.910156,-1.94531 8.253906,-4.02343 -9.277344,-9.61719 -1.679687,-11.105471 1.792969,-16.632815 l -3.386719,-3.199219 z m 0,0"
     fill="url(#b)"
     id="path36"
     style="fill:url(#b)" />
  <path
     d="m 64.207031,4.855469 c -18.09375,0.00391 -33.515625,7.335937 -36.417969,17.316406 -0.01562,0.03906 -0.03125,0.07813 -0.04687,0.121094 -2.886719,9.863281 -6.691407,25.109375 -8.40625,36.132812 C 17.394531,70.9375 35.925781,96.039062 64.0625,96.113281 92.195312,96.039062 110.73047,70.9375 108.78516,58.425781 107.20703,48.273438 103.85938,34.542969 101.08594,24.726562 100.36328,13.636719 84.0625,4.855469 64.207031,4.855469 Z M 29.371094,32.164062 c 0.535156,0.875 1.171875,1.726563 1.90625,2.550782 -0.429688,-0.453125 -0.832032,-0.914063 -1.203125,-1.386719 -0.253907,-0.382813 -0.488281,-0.769531 -0.703125,-1.164063 z m 0,0"
     fill="url(#c)"
     id="path37"
     style="fill:url(#c)" />
  <path
     d="m 20.359375,53.699219 c -2.328125,16.402343 14.058594,38.28125 43.703125,38.28125 29.640625,0 46.03125,-21.878907 43.70313,-38.28125 L 64.0625,68.671875 Z m 0,0"
     fill="url(#d)"
     id="path38"
     style="fill:url(#d)" />
  <path
     d="m 107.76563,53.699219 c 0,13.628906 -19.566411,24.679687 -43.70313,24.679687 -24.136719,0 -43.703125,-11.050781 -43.703125,-24.679687 0,-13.632813 19.566406,-24.683594 43.703125,-24.683594 24.136719,0 43.70313,11.050781 43.70313,24.683594 z m 0,0"
     fill="#a51d2d"
     id="path39" />
  <path
     d="m 27.839844,53.875 c 0,0 2.011718,-14.085938 18.109375,-18.109375 19.910156,-4.980469 37.089843,2.941406 37.089843,2.941406 -16.964843,-0.929687 -43.125,3.09375 -55.199218,15.167969 z m 0,0"
     fill="#e72545"
     id="path40" />
  <path
     d="m 27.289062,22.542969 c -8.09375,23.574219 -8.089843,32.015625 -8.089843,37.664062 0,17.335938 24.023437,35.90625 44.863281,35.90625 20.839844,0 44.86328,-18.570312 44.86328,-35.90625 0,-5.648437 0,-14.089843 -8.08984,-37.664062 1.8164,20.433593 -28.77344,24.015625 -36.77344,23.625 -8,0.390625 -38.589844,-3.191407 -36.773438,-23.625 z m 0,0"
     fill="#ffffff"
     fill-opacity="0.26277"
     id="path41" />
  <path
     d="M 26.058594,21.898438 C 17.921875,45.59375 17.46875,54.558594 17.46875,60.207031 c 0,9.46875 6.390625,18.789063 15.273438,25.8125 8.886718,7.027344 20.386718,11.828125 31.320312,11.828125 10.9375,0 22.4375,-4.800781 31.320312,-11.828125 8.886718,-7.023437 15.277348,-16.34375 15.277348,-25.8125 0,-5.648437 -0.41016,-14.484375 -8.54297,-38.179687 l -3.003909,0.671875 c 1.355469,5.472656 -0.96875,8.183593 -3.449219,11.085937 -2.480468,2.902344 -6.140624,5.140625 -10.183593,6.773438 -8.078125,3.265625 -17.695313,4.054687 -21.332031,3.878906 l -0.08594,-0.0039 -0.08594,0.0039 C 60.34375,44.613281 50.726562,43.824219 42.644531,40.558594 38.605469,38.925781 34.945312,36.6875 32.460938,33.785156 29.980469,30.882812 27.785156,28.65625 29.015625,22.699219 Z M 26.625,30.503906 c 0.753906,2.054688 1.828125,3.925782 3.203125,5.53125 2.992187,3.503906 7.140625,5.96875 11.519531,7.738282 8.71875,3.523437 18.324219,4.324218 22.714844,4.121093 4.394531,0.203125 13.996094,-0.597656 22.71875,-4.121093 4.378906,-1.769532 8.523438,-4.234376 11.519531,-7.738282 1.375,-1.605468 2.445309,-3.476562 3.203129,-5.53125 5.39843,17.359375 5.6914,24.757813 5.6914,29.703125 0,7.867188 -5.62109,16.503907 -13.960935,23.097657 -8.335937,6.59375 -19.265625,11.078124 -29.171875,11.078124 -9.902344,0 -20.832031,-4.484374 -29.171875,-11.078124 -8.335937,-6.59375 -13.957031,-15.230469 -13.957031,-23.097657 0,-4.945312 0.289062,-12.34375 5.691406,-29.703125 z m 0,0"
     fill="url(#e)"
     id="path42"
     style="fill:url(#e)" />
  <path
     d="m 68.972656,86.09375 c 0,1.878906 -2.199218,3.40625 -4.910156,3.40625 -2.710938,0 -4.910156,-1.527344 -4.910156,-3.40625 0,-1.878906 2.199218,-3.40625 4.910156,-3.40625 2.710938,0 4.910156,1.527344 4.910156,3.40625 z m 0,0"
     fill="#891726"
     fill-opacity="0.477127"
     id="path43" />
  <path
     d="m 99.300781,25.480469 c -0.02734,0.941406 -0.207031,2.15625 -0.773437,3.53125 -0.421875,1.03125 -1.058594,2.148437 -2.007813,3.316406 -1.582031,1.945313 -3.988281,3.96875 -7.433593,5.796875 -3.074219,1.628906 -6.84375,3.027344 -11.203126,4.007812 -4.277343,0.960938 -8.941406,1.476563 -13.808593,1.476563 -4.570313,0 -9.261719,-0.453125 -13.8125,-1.472656 C 46.191406,41.222656 42.359375,39.878906 39.0625,38.125 c -3.109375,-1.652344 -5.652344,-3.621094 -7.421875,-5.808594 -0.859375,-1.0625 -1.53125,-2.171875 -1.996094,-3.3125 -0.464843,-1.132812 -0.730469,-2.308594 -0.777343,-3.523437 -0.04297,-1.21875 0.128906,-2.425781 0.519531,-3.621094 0.390625,-1.203125 1,-2.390625 1.820312,-3.546875 1.6875,-2.378906 4.207031,-4.550781 7.34375,-6.390625 3.320313,-1.949219 7.21875,-3.457031 11.382813,-4.496094 4.632812,-1.152343 9.449218,-1.683593 14.140625,-1.6875 0.351562,0 0.703125,0 1.046875,0.00781 4.609375,0.070312 9.035156,0.652344 13.097656,1.65625 4.453125,1.101562 8.289062,2.667968 11.394531,4.488281 3.476563,2.042969 5.84375,4.28125 7.34375,6.410156 0.898438,1.269531 1.464844,2.472657 1.816407,3.554688 0.46875,1.445312 0.550781,2.6875 0.527343,3.625 z m 3.359379,0 c -0.0273,-1.265625 -0.25,-2.882813 -0.97266,-4.691407 -0.54297,-1.347656 -1.33984,-2.761718 -2.488281,-4.1875 -1.90625,-2.375 -4.6875,-4.6875 -8.472657,-6.703124 C 87.347656,8.09375 83.28125,6.589844 78.660156,5.546875 74.4375,4.59375 69.882812,4.050781 65.148438,3.976562 64.792969,3.972656 64.4375,3.96875 64.074219,3.96875 59.261719,3.964844 54.304688,4.4375 49.484375,5.519531 45.15625,6.492188 41.019531,7.933594 37.402344,9.867188 34,11.683594 31.050781,13.933594 28.929688,16.589844 c -1.039063,1.296875 -1.882813,2.699218 -2.480469,4.195312 -0.59375,1.488282 -0.9375,3.058594 -0.984375,4.695313 -0.04297,1.632812 0.207031,3.238281 0.726562,4.789062 0.519532,1.554688 1.304688,3.039063 2.304688,4.429688 2.042968,2.847656 4.96875,5.300781 8.398437,7.304687 3.648438,2.125 7.851563,3.738282 12.257813,4.828125 4.925781,1.21875 10.007812,1.769531 14.921875,1.769531 5.234375,0 10.285156,-0.621093 14.921875,-1.765624 4.722656,-1.167969 8.855468,-2.84375 12.257812,-4.832032 3.816406,-2.230468 6.5625,-4.761718 8.386719,-7.316406 1.093755,-1.53125 1.824215,-3.027344 2.289065,-4.429688 0.625,-1.878906 0.75781,-3.519531 0.73047,-4.777343 z m 0,0"
     fill="#f6f5f4"
     id="path44" />
  <path
     d="m 59.433594,102.99609 c 0,0 -8.523438,0.96875 -11.457032,4.59375 -2.058593,2.54688 0.550782,7.3086 6.382813,8.19922 5.828125,0.89063 6.789063,-1.33203 6.789063,-1.33203 0,0 -5.011719,-2.98047 -1.648438,-6.24219 1.410156,-1.36718 -0.06641,-5.21875 -0.06641,-5.21875 z m 0,0"
     fill="#ffffff"
     id="path45" />
  <path
     d="m 103.92188,67.773438 c 0,0 -2.60938,9.339843 -13.949224,16.53125 C 82.175781,89.25 74.109375,89.5 74.109375,89.5 86.648438,85.03125 98.234375,77.125 103.92188,67.773438 Z m 0,0"
     fill="#a11c3d"
     id="path46" />
  <path
     d="m 23.996094,66.957031 c 0,0 3,9.519531 11.046875,14.820313 10.574219,6.964844 17.769531,8.09375 17.769531,8.09375 C 39.175781,84.722656 28.398438,74.945312 23.996094,66.957031 Z m 0,0"
     fill="#981a2b"
     id="path47" />
  <path
     d="m 30.808594,43.980469 c 0,0 -8.421875,13.867187 -0.957032,25.996093 8.046876,13.082032 22.304688,13.921876 22.304688,13.921876 0,0 -11.238281,-3.859376 -16.269531,-12.917969 -4.890625,-8.804688 -5.078125,-27 -5.078125,-27 z m 0,0"
     fill="#ffffff"
     id="path48" />
  <path
     d="m 70.101562,102.17578 c 0,0 7.042969,1.00781 8.046876,4.02344 1.007812,3.01953 -1.003907,4.02734 -1.003907,4.02734 0,0 6.035157,-2.01172 3.019531,-5.03125 -3.019531,-3.01953 -10.0625,-3.01953 -10.0625,-3.01953 z m 0,0"
     fill="#f6f5f4"
     id="path49" />
  <path
     d="m 85.257812,8.480469 c -0.25,0.015625 -0.460937,0.1875 -0.535156,0.425781 l -1.949218,6.503906 c -0.359376,1.195313 -1.292969,2.132813 -2.488282,2.492188 l -3.851562,1.152344 v -0.660157 l -3.082032,0.5 v 1.511719 c -0.0078,0.273438 0.167969,0.515625 0.425782,0.59375 l 6.507812,1.949219 c 1.195313,0.359375 2.128906,1.292969 2.488282,2.488281 l 1.949218,6.503906 c 0.171875,0.566406 0.972656,0.566406 1.148438,0 L 87.820312,25.4375 c 0.359376,-1.195312 1.292969,-2.128906 2.488282,-2.488281 L 96.816406,21 c 0.261719,-0.07813 0.4375,-0.328125 0.425782,-0.605469 v -1.5 L 94.921875,18.386719 V 19.28125 L 90.308594,17.902344 C 89.113281,17.542969 88.175781,16.609375 87.820312,15.410156 L 85.871094,8.90625 C 85.789062,8.636719 85.535156,8.460938 85.257812,8.480469 Z m 0,0"
     fill="url(#f)"
     id="path50"
     style="fill:url(#f)" />
  <path
     d="m 85.871094,7.386719 1.949218,6.503906 c 0.359376,1.195313 1.292969,2.132813 2.488282,2.492187 l 6.507812,1.949219 c 0.253906,0.07422 0.425782,0.308594 0.425782,0.574219 0,0.265625 -0.171876,0.496094 -0.425782,0.574219 l -6.507812,1.949219 c -1.195313,0.355468 -2.128906,1.292968 -2.488282,2.488281 l -1.949218,6.507812 c -0.07813,0.253907 -0.308594,0.425781 -0.574219,0.425781 -0.265625,0 -0.5,-0.171874 -0.574219,-0.425781 L 82.773438,23.917969 C 82.414062,22.722656 81.480469,21.785156 80.28125,21.429688 l -6.503906,-1.949219 c -0.253906,-0.07813 -0.425782,-0.308594 -0.425782,-0.574219 0,-0.265625 0.171876,-0.5 0.425782,-0.574219 l 6.503906,-1.949219 c 1.199219,-0.359374 2.132812,-1.296874 2.492188,-2.492187 l 1.949218,-6.503906 c 0.07422,-0.253907 0.308594,-0.425781 0.574219,-0.425781 0.265625,0 0.496094,0.171874 0.574219,0.425781 z m 0,0"
     fill="#f9f06b"
     id="path51" />
  <path
     d="m 56.425781,24.363281 c -0.25,0.01563 -0.464843,0.183594 -0.535156,0.425781 l -1.027344,3.425782 c -0.328125,1.089844 -1.136719,1.96875 -2.195312,2.386718 V 30.34375 l -4.148438,0.351562 v 1.589844 c -0.01172,0.273438 0.164063,0.515625 0.425781,0.59375 L 52.375,33.90625 c 1.195312,0.359375 2.128906,1.296875 2.488281,2.492188 l 1.027344,3.425781 c 0.167969,0.570312 0.976563,0.570312 1.148437,0 l 1.027344,-3.425781 c 0.355469,-1.199219 1.292969,-2.132813 2.488282,-2.492188 l 3.429687,-1.027344 c 0.261719,-0.07813 0.4375,-0.328125 0.425781,-0.605468 v -1.558594 l -3.71875,-0.429688 v 0.460938 l -0.136718,-0.03906 c -1.195313,-0.359375 -2.132813,-1.296875 -2.488282,-2.492187 l -1.027344,-3.425782 c -0.08203,-0.269531 -0.335937,-0.445312 -0.613281,-0.425781 z m 0,0"
     fill="url(#g)"
     id="path52"
     style="fill:url(#g)" />
  <path
     d="m 57.039062,23.199219 1.027344,3.429687 c 0.355469,1.195313 1.292969,2.132813 2.488282,2.488282 l 3.429687,1.027343 c 0.253906,0.07813 0.425781,0.308594 0.425781,0.574219 0,0.265625 -0.171875,0.5 -0.425781,0.574219 l -3.429687,1.027343 c -1.195313,0.359376 -2.132813,1.292969 -2.488282,2.488282 l -1.027344,3.429687 c -0.07812,0.253907 -0.308593,0.425781 -0.574218,0.425781 -0.265625,0 -0.5,-0.171874 -0.574219,-0.425781 l -1.027344,-3.429687 c -0.359375,-1.195313 -1.292969,-2.128906 -2.492187,-2.488282 l -3.425782,-1.027343 c -0.253906,-0.07422 -0.425781,-0.308594 -0.425781,-0.574219 0,-0.265625 0.171875,-0.496094 0.425781,-0.574219 l 3.425782,-1.027343 c 1.199218,-0.355469 2.132812,-1.292969 2.492187,-2.488282 l 1.027344,-3.429687 c 0.07422,-0.253907 0.308594,-0.425781 0.574219,-0.425781 0.265625,0 0.496094,0.171874 0.574218,0.425781 z m 0,0"
     fill="#f9f06b"
     id="path53" />
  <path
     d="M 32.851562,28.996094 6.550781,117.11719 c -0.363281,1.21484 0.167969,2.4375 1.1875,2.74219 l 4.371094,1.30468 c 1.023437,0.30469 2.136719,-0.42578 2.5,-1.64062 L 40.910156,31.402344 Z m 0,0"
     fill="url(#h)"
     id="path55"
     style="fill:url(#h)" />
  <path
     d="m 31.136719,34.746094 8.058593,2.402344 5.851563,-19.605469 c 0.363281,-1.214844 -0.167969,-2.4375 -1.191406,-2.742188 l -4.371094,-1.304687 c -1.019531,-0.304688 -2.132813,0.425781 -2.496094,1.640625 z m 0,0"
     fill="url(#i)"
     id="path56"
     style="fill:url(#i)" />
  <path
     d="m 88.738281,53.347656 c -0.375,0.02734 -0.691406,0.28125 -0.800781,0.640625 l -4.332031,14.453125 c -0.535157,1.796875 -1.941407,3.199219 -3.734375,3.734375 l -13.003906,3.898438 v -0.707031 h -2.089844 v 2.042968 c 0.01953,0.382813 0.277344,0.710938 0.640625,0.820313 L 79.871094,82.5625 c 1.792968,0.539062 3.199218,1.941406 3.734375,3.734375 L 87.9375,100.75 c 0.113281,0.38281 0.464844,0.64453 0.863281,0.64453 0.394531,0 0.746094,-0.26172 0.859375,-0.64453 l 4.332032,-14.453125 c 0.535156,-1.792969 1.9375,-3.195313 3.734374,-3.734375 l 14.453128,-4.332031 c 0.38281,-0.113281 0.64062,-0.464844 0.64062,-0.863281 v -1.984376 h -1.25 v 0.941407 L 97.726562,72.175781 c -1.796874,-0.535156 -3.199218,-1.9375 -3.734374,-3.734375 L 89.660156,53.988281 C 89.539062,53.585938 89.15625,53.320312 88.738281,53.347656 Z m 0,0"
     fill="url(#j)"
     id="path57"
     style="fill:url(#j)" />
  <path
     d="m 89.660156,51.988281 4.332032,14.453125 c 0.535156,1.796875 1.941406,3.199219 3.734374,3.738282 l 14.453128,4.328124 c 0.3789,0.113282 0.64062,0.464844 0.64062,0.863282 0,0.394531 -0.26172,0.746094 -0.64062,0.859375 L 97.726562,80.5625 c -1.792968,0.535156 -3.199218,1.941406 -3.734374,3.734375 L 89.660156,98.75 c -0.113281,0.382812 -0.464844,0.640625 -0.859375,0.640625 -0.398437,0 -0.75,-0.257813 -0.863281,-0.640625 L 83.605469,84.296875 C 83.070312,82.503906 81.664062,81.097656 79.871094,80.5625 L 65.417969,76.230469 c -0.378907,-0.113281 -0.640625,-0.464844 -0.640625,-0.859375 0,-0.398438 0.261718,-0.75 0.640625,-0.863282 l 14.453125,-4.328124 c 1.792968,-0.539063 3.199218,-1.941407 3.734375,-3.738282 L 87.9375,51.988281 c 0.113281,-0.378906 0.464844,-0.640625 0.863281,-0.640625 0.394531,0 0.746094,0.261719 0.859375,0.640625 z m 0,0"
     fill="url(#k)"
     id="path58"
     style="fill:url(#k)" />
  <metadata
     id="metadata58">
    <rdf:RDF>
      <cc:Work
         rdf:about="">
        <dc:creator>
          <cc:Agent>
            <dc:title>Viktoria &quot;gingercat&quot; Zubacheva | gingercat@alt-gnome.ru</dc:title>
          </cc:Agent>
        </dc:creator>
        <cc:license
           rdf:resource="http://creativecommons.org/licenses/by-nc-sa/4.0/" />
      </cc:Work>
      <cc:License
         rdf:about="http://creativecommons.org/licenses/by-nc-sa/4.0/">
        <cc:permits
           rdf:resource="http://creativecommons.org/ns#Reproduction" />
        <cc:permits
           rdf:resource="http://creativecommons.org/ns#Distribution" />
        <cc:requires
           rdf:resource="http://creativecommons.org/ns#Notice" />
        <cc:requires
           rdf:resource="http://creativecommons.org/ns#Attribution" />
        <cc:prohibits
           rdf:resource="http://creativecommons.org/ns#CommercialUse" />
        <cc:permits
           rdf:resource="http://creativecommons.org/ns#DerivativeWorks" />
        <cc:requires
           rdf:resource="http://creativecommons.org/ns#ShareAlike" />
      </cc:License>
    </rdf:RDF>
  </metadata>
</svg>
