<?xml version="1.0" encoding="UTF-8" standalone="no"?>
<svg
   height="128"
   viewBox="0 0 128 128"
   width="128"
   version="1.1"
   id="svg50"
   xmlns:xlink="http://www.w3.org/1999/xlink"
   xmlns="http://www.w3.org/2000/svg"
   xmlns:svg="http://www.w3.org/2000/svg"
   xmlns:rdf="http://www.w3.org/1999/02/22-rdf-syntax-ns#"
   xmlns:cc="http://creativecommons.org/ns#"
   xmlns:dc="http://purl.org/dc/elements/1.1/">
  <defs
     id="defs50" />
  <linearGradient
     id="a"
     gradientUnits="userSpaceOnUse">
    <stop
       offset="0"
       stop-color="#deddda"
       id="stop1" />
    <stop
       offset="0.154971"
       stop-color="#9a9996"
       id="stop2" />
    <stop
       offset="1"
       stop-color="#c0bfbc"
       id="stop3" />
  </linearGradient>
  <linearGradient
     id="b"
     spreadMethod="reflect"
     x1="30.99828"
     x2="44.113949"
     xlink:href="#a"
     y1="96.353401"
     y2="96.353401" />
  <linearGradient
     id="c"
     gradientUnits="userSpaceOnUse"
     spreadMethod="reflect"
     x1="2.9962997"
     x2="42.768505"
     y1="48.545464"
     y2="48.545464">
    <stop
       offset="0"
       stop-color="#865e3c"
       id="stop4" />
    <stop
       offset="0.0312669"
       stop-color="#b5835a"
       id="stop5" />
    <stop
       offset="0.0893881"
       stop-color="#63452c"
       id="stop6" />
    <stop
       offset="1"
       stop-color="#63452c"
       id="stop7" />
  </linearGradient>
  <linearGradient
     id="d"
     spreadMethod="reflect"
     x1="30.99828"
     x2="42.969028"
     xlink:href="#a"
     y1="64.548027"
     y2="64.548027" />
  <linearGradient
     id="e"
     gradientUnits="userSpaceOnUse"
     x1="57.680134"
     x2="99.651176"
     y1="112.24304"
     y2="112.24304">
    <stop
       offset="0"
       stop-color="#9a9996"
       id="stop8" />
    <stop
       offset="0.0410189"
       stop-color="#deddda"
       id="stop9" />
    <stop
       offset="0.112943"
       stop-color="#9a9996"
       id="stop10" />
    <stop
       offset="0.880127"
       stop-color="#9a9996"
       id="stop11" />
    <stop
       offset="0.952051"
       stop-color="#deddda"
       id="stop12" />
    <stop
       offset="1"
       stop-color="#9a9996"
       id="stop13" />
  </linearGradient>
  <linearGradient
     id="f"
     gradientTransform="matrix(0.865635,0,0,1.344782,16.19436,-54.858153)"
     gradientUnits="userSpaceOnUse"
     x1="72.000046"
     x2="72.000046"
     y1="113.32155"
     y2="126.88042">
    <stop
       offset="0"
       stop-color="#77767b"
       id="stop14" />
    <stop
       offset="1"
       stop-color="#deddda"
       stop-opacity="0"
       id="stop15" />
  </linearGradient>
  <linearGradient
     id="g"
     gradientUnits="userSpaceOnUse"
     x1="79.767838"
     x2="80.179459"
     y1="7.7466421"
     y2="90.908302">
    <stop
       offset="0"
       stop-color="#ffffff"
       stop-opacity="0.576443"
       id="stop16" />
    <stop
       offset="1"
       stop-color="#e01b67"
       id="stop17" />
  </linearGradient>
  <radialGradient
     id="h"
     cx="71.500832"
     cy="96.842064"
     gradientTransform="matrix(1.590423,-0.0110517,0.00527292,0.758814,-36.774585,-1.807185)"
     gradientUnits="userSpaceOnUse"
     r="32.206825">
    <stop
       offset="0"
       stop-color="#27000b"
       id="stop18" />
    <stop
       offset="1"
       stop-color="#dd000d"
       id="stop19" />
  </radialGradient>
  <linearGradient
     id="i"
     gradientUnits="userSpaceOnUse"
     x1="78.521179"
     x2="78.521179"
     y1="1.1141391"
     y2="106.47311">
    <stop
       offset="0"
       stop-color="#ffffff"
       id="stop20" />
    <stop
       offset="1"
       stop-color="#deddda"
       id="stop21" />
  </linearGradient>
  <path
     d="m 7.398438,79.035156 h 73.140624 v 1.828125 H 7.398438 Z m 0,0"
     fill="#63452c"
     id="path21" />
  <path
     d="m 7.398438,80.828125 h 74.6875 v 24.625005 c 0,2.52734 -2.046876,4.57421 -4.570313,4.57421 H 10.425781 c -2.527343,0 -4.574219,-2.04687 -4.574219,-4.57421 V 82.375 c 0,-0.855469 0.695313,-1.546875 1.546876,-1.546875 z m 0,0"
     fill="#865e3c"
     id="path22" />
  <path
     d="m 7.398438,80.828125 h 73.15625 c 0.84375,0 1.53125,0.683594 1.53125,1.527344 V 82.65625 H 5.851562 V 82.375 c 0,-0.855469 0.695313,-1.546875 1.546876,-1.546875 z m 0,0"
     fill="#986a44"
     id="path23" />
  <path
     d="m 33.054688,95.4375 h 21.800781 c 1.132812,0 2.054687,0.921875 2.054687,2.058594 v 1.648437 c 0,1.136719 -0.921875,2.058599 -2.054687,2.058599 H 33.054688 C 31.917969,101.20313 31,100.28125 31,99.144531 V 97.496094 C 31,96.359375 31.917969,95.4375 33.054688,95.4375 Z m 0,0"
     fill="#63452c"
     fill-opacity="0.5"
     id="path24" />
  <path
     d="m 33.742188,99.097656 h 20.453124 c 1.519532,0 2.746094,-0.914062 2.746094,-2.746094 V 91.78125 H 53.3125 l -0.03125,3.65625 h -18.625 l 0.02734,-3.65625 H 31 v 4.570312 c 0,1.519532 1.222656,2.746094 2.742188,2.746094 z m 0,0"
     fill="url(#b)"
     id="path25"
     style="fill:url(#b)" />
  <path
     d="M 33.742188,95.4375 C 32.222656,95.4375 31,94.214844 31,92.695312 V 91.78125 h 3.65625 v 1.828125 H 53.285156 V 91.78125 h 3.65625 v 0.914062 c 0,1.519532 -1.222656,2.742188 -2.742187,2.742188 z m 0,0"
     fill="#f6f5f4"
     id="path26" />
  <path
     d="m 7.683594,48.886719 h 71.601562 c 1.546875,0 2.800782,1.253906 2.800782,2.800781 V 79.058594 H 7.746094 c -1.046875,0 -1.894532,-0.847656 -1.894532,-1.894532 V 50.714844 c 0,-1.007813 0.820313,-1.828125 1.832032,-1.828125 z m 0,0"
     fill="#865e3c"
     id="path27" />
  <path
     d="m 6.683594,49.628906 h 74.464844 c 0.515624,0 0.9375,0.417969 0.9375,0.9375 v 0.890625 H 5.851562 v -1 c 0,-0.457031 0.375,-0.828125 0.832032,-0.828125 z m 0,0"
     fill="#cdab8f"
     id="path28" />
  <path
     d="m 5.851562,51.457031 h 59.761719 v 7.492188 H 5.851562 Z m 0,0"
     fill="#63452c"
     fill-opacity="0.5"
     id="path29" />
  <path
     d="m 2.996094,45.230469 h 81.945312 v 3.886719 c 0,1.515624 -1.226562,2.742187 -2.742187,2.742187 H 5.738281 c -1.515625,0 -2.742187,-1.226563 -2.742187,-2.742187 z m 0,0"
     fill="url(#c)"
     id="path30"
     style="fill:url(#c)" />
  <path
     d="m 33.054688,64.546875 h 19.828124 c 1.136719,0 2.058594,0.921875 2.058594,2.058594 v 1.292969 c 0,1.136718 -0.921875,2.058593 -2.058594,2.058593 H 33.054688 C 31.917969,69.957031 31,69.035156 31,67.898438 v -1.292969 c 0,-1.136719 0.917969,-2.058594 2.054688,-2.058594 z m 0,0"
     fill="#63452c"
     fill-opacity="0.5"
     id="path31" />
  <path
     d="m 33.742188,68.128906 h 18.453124 c 1.519532,0 2.746094,-0.914062 2.746094,-2.742187 V 60.8125 H 51.3125 l -0.03125,3.660156 h -16.625 L 34.683594,60.8125 H 31 v 4.574219 c 0,1.519531 1.222656,2.742187 2.742188,2.742187 z m 0,0"
     fill="url(#d)"
     id="path32"
     style="fill:url(#d)" />
  <path
     d="M 33.742188,64.46875 C 32.222656,64.46875 31,63.246094 31,61.726562 V 60.8125 h 3.65625 v 1.828125 H 51.285156 V 60.8125 h 3.65625 v 0.914062 c 0,1.519532 -1.222656,2.742188 -2.742187,2.742188 z m 0,0"
     fill="#deddda"
     id="path33" />
  <path
     d="m 6.925781,16.363281 h 74.085938 c 2.171875,0 3.929687,1.5625 3.929687,3.492188 v 26.507812 c 0,1.933594 -1.757812,3.496094 -3.929687,3.496094 H 6.925781 c -2.167969,0 -3.929687,-1.5625 -3.929687,-3.496094 V 19.855469 c 0,-1.929688 1.761718,-3.492188 3.929687,-3.492188 z m 0,0"
     fill="#b5835a"
     id="path34" />
  <path
     d="m 78.519531,100.66797 c -9.351562,-0.004 -17.558593,3.48047 -20.074219,8.51953 h -0.765624 v 3.13281 c 0,6.4336 9.328124,11.65235 20.839843,11.65235 11.507813,0 20.839844,-5.21875 20.839844,-11.65235 0,-0.0273 0,-0.0547 0,-0.0781 v -3.05469 h -0.769531 c -2.511719,-5.03906 -10.71875,-8.51953 -20.070313,-8.51953 z m 0,0"
     fill="url(#e)"
     id="path35"
     style="fill:url(#e)" />
  <path
     d="m 99.359375,109.1875 c 0,6.43359 -9.332031,11.65234 -20.839844,11.65234 -11.511719,0 -20.839843,-5.21875 -20.839843,-11.65234 0,-6.4375 9.328124,-11.652344 20.839843,-11.652344 11.507813,0 20.839844,5.214844 20.839844,11.652344 z m 0,0"
     fill="#deddda"
     id="path36" />
  <path
     d="m 78.519531,87.820312 -6.660156,0.07422 -3.386719,3.199219 c 3.472656,5.527344 11.070313,7.015625 1.792969,16.632809 1.339844,2.07813 5.015625,4.32032 8.253906,4.02344 3.238281,0.29688 6.910157,-1.94531 8.253907,-4.02344 -9.277344,-9.617184 -1.679688,-11.105465 1.792968,-16.632809 l -3.386718,-3.199219 z m 0,0"
     fill="url(#f)"
     id="path37"
     style="fill:url(#f)" />
  <path
     d="m 78.664062,4.859375 c -18.09375,0.00391 -33.515624,7.335937 -36.417968,17.316406 -0.01563,0.03906 -0.03125,0.07813 -0.04687,0.121094 -2.886719,9.863281 -6.691407,25.109375 -8.40625,36.132813 -1.941407,12.511718 16.589843,37.613281 44.726562,37.6875 C 106.65234,96.042969 125.1875,70.941406 123.24219,58.429688 121.66406,48.277344 118.31641,34.546875 115.54297,24.730469 114.82031,13.640625 98.519531,4.859375 78.664062,4.859375 Z M 43.828125,32.167969 C 44.363281,33.042969 45,33.894531 45.734375,34.71875 45.304688,34.265625 44.902344,33.804688 44.53125,33.332031 44.277344,32.949219 44.042969,32.5625 43.828125,32.167969 Z m 0,0"
     fill="url(#g)"
     id="path38"
     style="fill:url(#g)" />
  <path
     d="m 34.816406,53.703125 c -2.328125,16.402344 14.058594,38.28125 43.703125,38.28125 29.640629,0 46.031249,-21.878906 43.703129,-38.28125 L 78.519531,68.675781 Z m 0,0"
     fill="url(#h)"
     id="path39"
     style="fill:url(#h)" />
  <path
     d="m 122.22266,53.703125 c 0,13.628906 -19.56641,24.679687 -43.703129,24.679687 -24.136719,0 -43.703125,-11.050781 -43.703125,-24.679687 0,-13.632813 19.566406,-24.683594 43.703125,-24.683594 24.136719,0 43.703129,11.050781 43.703129,24.683594 z m 0,0"
     fill="#a51d2d"
     id="path40" />
  <path
     d="m 42.296875,53.878906 c 0,0 2.011719,-14.085937 18.109375,-18.109375 19.910156,-4.980469 37.089844,2.941407 37.089844,2.941407 -16.964844,-0.929688 -43.125,3.09375 -55.199219,15.167968 z m 0,0"
     fill="#e72545"
     id="path41" />
  <path
     d="M 41.746094,22.546875 C 33.652344,46.121094 33.65625,54.5625 33.65625,60.210938 c 0,17.335937 24.023438,35.90625 44.863281,35.90625 20.839844,0 44.863279,-18.570313 44.863279,-35.90625 0,-5.648438 0,-14.089844 -8.08984,-37.664063 1.81641,20.433594 -28.773439,24.015625 -36.773439,23.625 -8,0.390625 -38.589843,-3.191406 -36.773437,-23.625 z m 0,0"
     fill="#ffffff"
     fill-opacity="0.26277"
     id="path42" />
  <path
     d="m 40.515625,21.90625 c -8.136719,23.691406 -8.589844,32.660156 -8.589844,38.304688 0,9.46875 6.390625,18.789062 15.273438,25.8125 8.882812,7.027343 20.386719,11.828124 31.320312,11.828124 10.933594,0 22.437499,-4.800781 31.320309,-11.828124 8.88672,-7.023438 15.27735,-16.34375 15.27735,-25.8125 0,-5.648438 -0.41016,-14.484376 -8.54297,-38.179688 l -3.00781,0.671875 c 1.35547,5.472656 -0.96485,8.183594 -3.44532,11.085937 -2.48046,2.902344 -6.14062,5.144532 -10.18359,6.773438 -8.082031,3.265625 -17.699219,4.058594 -21.332031,3.878906 l -0.08594,-0.0039 -0.08594,0.0039 C 74.800781,44.621094 65.183594,43.828125 57.101562,40.5625 53.0625,38.933594 49.398438,36.691406 46.917969,33.789062 44.4375,30.886719 42.242188,28.660156 43.472656,22.703125 Z m 0.566406,8.601562 c 0.753907,2.054688 1.828125,3.925782 3.203125,5.535157 2.992188,3.5 7.136719,5.964843 11.519532,7.734375 8.71875,3.523437 18.324218,4.324218 22.714843,4.121094 4.390625,0.203124 13.996094,-0.597657 22.718749,-4.121094 4.37891,-1.769532 8.52344,-4.234375 11.51563,-7.734375 1.3789,-1.609375 2.44922,-3.480469 3.20703,-5.535157 5.39844,17.359376 5.6875,24.757813 5.6875,29.703126 0,7.867187 -5.6211,16.503906 -13.95703,23.097656 -8.335941,6.59375 -19.265629,11.078125 -29.171879,11.078125 -9.90625,0 -20.835937,-4.484375 -29.171875,-11.078125 -8.335937,-6.59375 -13.957031,-15.230469 -13.957031,-23.097656 0,-4.945313 0.289063,-12.34375 5.691406,-29.703126 z m 0,0"
     fill="url(#i)"
     id="path43"
     style="fill:url(#i)" />
  <path
     d="m 83.429688,86.097656 c 0,1.878906 -2.199219,3.40625 -4.910157,3.40625 -2.710937,0 -4.910156,-1.527344 -4.910156,-3.40625 0,-1.878906 2.199219,-3.40625 4.910156,-3.40625 2.710938,0 4.910157,1.527344 4.910157,3.40625 z m 0,0"
     fill="#891726"
     fill-opacity="0.477127"
     id="path44" />
  <path
     d="m 113.75781,25.484375 c -0.0273,0.941406 -0.20703,2.15625 -0.77343,3.53125 -0.42188,1.03125 -1.0586,2.148437 -2.00782,3.316406 -1.58203,1.945313 -3.98828,3.96875 -7.43359,5.796875 -3.07422,1.628906 -6.843751,3.027344 -11.203126,4.007813 -4.277344,0.960937 -8.941406,1.476562 -13.808594,1.476562 -4.570312,0 -9.261719,-0.453125 -13.8125,-1.472656 -4.070312,-0.914063 -7.902344,-2.257813 -11.199219,-4.011719 -3.109375,-1.652344 -5.652343,-3.621094 -7.421875,-5.808594 -0.859375,-1.0625 -1.53125,-2.171874 -1.996094,-3.3125 -0.464843,-1.132812 -0.730468,-2.308593 -0.777343,-3.523437 -0.04297,-1.21875 0.128906,-2.425781 0.519531,-3.621094 0.390625,-1.203125 1,-2.390625 1.820312,-3.546875 1.6875,-2.378906 4.207032,-4.550781 7.34375,-6.390625 3.320313,-1.949219 7.21875,-3.457031 11.382813,-4.496093 4.632813,-1.152344 9.449219,-1.683594 14.140625,-1.6875 0.351562,0 0.703125,0 1.046875,0.00781 4.609375,0.070312 9.035156,0.652344 13.097656,1.65625 4.453125,1.101562 8.289059,2.667969 11.394529,4.488281 3.47657,2.042969 5.84375,4.28125 7.34375,6.410157 0.89844,1.269531 1.46485,2.472656 1.81641,3.554687 0.46875,1.445313 0.55078,2.6875 0.52734,3.625 z m 3.35938,0 c -0.0273,-1.265625 -0.25,-2.882813 -0.97266,-4.691406 -0.54297,-1.347657 -1.33984,-2.761719 -2.48828,-4.1875 -1.90625,-2.375 -4.6875,-4.6875 -8.47266,-6.703125 C 101.80469,8.097656 97.738281,6.59375 93.117188,5.550781 88.894531,4.597656 84.339844,4.054688 79.605469,3.980469 79.25,3.976562 78.894531,3.972656 78.53125,3.972656 73.71875,3.96875 68.761719,4.441406 63.941406,5.523438 59.613281,6.496094 55.476562,7.9375 51.859375,9.871094 48.457031,11.6875 45.507812,13.9375 43.386719,16.59375 c -1.039063,1.296875 -1.882813,2.699219 -2.480469,4.195312 -0.59375,1.488282 -0.9375,3.058594 -0.984375,4.695313 -0.04297,1.632813 0.207031,3.238281 0.726563,4.789063 0.519531,1.554687 1.304687,3.039062 2.304687,4.429687 2.042969,2.847656 4.96875,5.300781 8.398437,7.304687 3.648438,2.125 7.851563,3.738282 12.257813,4.828126 4.925781,1.21875 10.007813,1.769531 14.921875,1.769531 5.234375,0 10.285156,-0.621094 14.921875,-1.765625 4.722656,-1.167969 8.855465,-2.84375 12.257815,-4.832032 3.8164,-2.230468 6.5625,-4.761718 8.38672,-7.316406 1.09375,-1.53125 1.82422,-3.027344 2.28906,-4.429687 0.625,-1.878907 0.75781,-3.519531 0.73047,-4.777344 z m 0,0"
     fill="#f6f5f4"
     id="path45" />
  <path
     d="m 73.890625,103 c 0,0 -8.523437,0.96875 -11.457031,4.59375 -2.058594,2.54688 0.550781,7.30859 6.382812,8.19922 5.828125,0.89062 6.789063,-1.33203 6.789063,-1.33203 0,0 -5.011719,-2.98047 -1.648438,-6.24219 C 75.367188,106.85156 73.890625,103 73.890625,103 Z m 0,0"
     fill="#ffffff"
     id="path46" />
  <path
     d="m 118.37891,67.777344 c 0,0 -2.60938,9.339844 -13.94922,16.53125 -7.796878,4.945312 -15.863284,5.195312 -15.863284,5.195312 12.539064,-4.46875 24.125004,-12.375 29.812504,-21.726562 z m 0,0"
     fill="#a11c3d"
     id="path47" />
  <path
     d="m 38.453125,66.960938 c 0,0 3,9.519531 11.046875,14.820312 C 60.074219,88.746094 67.269531,89.875 67.269531,89.875 53.632812,84.726562 42.855469,74.949219 38.453125,66.960938 Z m 0,0"
     fill="#981a2b"
     id="path48" />
  <path
     d="m 45.265625,43.984375 c 0,0 -8.421875,13.867187 -0.957031,25.996094 8.046875,13.082031 22.304687,13.921875 22.304687,13.921875 0,0 -11.238281,-3.859375 -16.269531,-12.917969 -4.890625,-8.804687 -5.078125,-27 -5.078125,-27 z m 0,0"
     fill="#ffffff"
     id="path49" />
  <path
     d="m 84.558594,102.17969 c 0,0 7.042968,1.00781 8.046875,4.02344 1.007812,3.01953 -1.003907,4.02734 -1.003907,4.02734 0,0 6.035157,-2.01172 3.019532,-5.03125 -3.019532,-3.01953 -10.0625,-3.01953 -10.0625,-3.01953 z m 0,0"
     fill="#f6f5f4"
     id="path50" />
  <metadata
     id="metadata50">
    <rdf:RDF>
      <cc:Work
         rdf:about="">
        <dc:creator>
          <cc:Agent>
            <dc:title>Viktoria &quot;gingercat&quot; Zubacheva | gingercat@alt-gnome.ru</dc:title>
          </cc:Agent>
        </dc:creator>
        <cc:license
           rdf:resource="http://creativecommons.org/licenses/by-nc-sa/4.0/" />
      </cc:Work>
      <cc:License
         rdf:about="http://creativecommons.org/licenses/by-nc-sa/4.0/">
        <cc:permits
           rdf:resource="http://creativecommons.org/ns#Reproduction" />
        <cc:permits
           rdf:resource="http://creativecommons.org/ns#Distribution" />
        <cc:requires
           rdf:resource="http://creativecommons.org/ns#Notice" />
        <cc:requires
           rdf:resource="http://creativecommons.org/ns#Attribution" />
        <cc:prohibits
           rdf:resource="http://creativecommons.org/ns#CommercialUse" />
        <cc:permits
           rdf:resource="http://creativecommons.org/ns#DerivativeWorks" />
        <cc:requires
           rdf:resource="http://creativecommons.org/ns#ShareAlike" />
      </cc:License>
    </rdf:RDF>
  </metadata>
</svg>
