<?xml version="1.0" encoding="UTF-8" standalone="no"?>
<svg
   height="128px"
   viewBox="0 0 128 128"
   width="128px"
   version="1.1"
   id="svg286"
   xml:space="preserve"
   xmlns:xlink="http://www.w3.org/1999/xlink"
   xmlns="http://www.w3.org/2000/svg"
   xmlns:svg="http://www.w3.org/2000/svg"><defs
     id="defs290"><linearGradient
       id="linearGradient16"><stop
         style="stop-color:#999999;stop-opacity:1;"
         offset="0"
         id="stop9" /><stop
         style="stop-color:#f5f5f5;stop-opacity:1;"
         offset="0.02925029"
         id="stop12" /><stop
         style="stop-color:#999999;stop-opacity:1;"
         offset="0.06928756"
         id="stop13" /><stop
         style="stop-color:#808080;stop-opacity:1;"
         offset="0.92560208"
         id="stop14" /><stop
         style="stop-color:#f5f5f5;stop-opacity:1;"
         offset="0.96775371"
         id="stop15" /><stop
         style="stop-color:#808080;stop-opacity:1;"
         offset="1"
         id="stop16" /></linearGradient><linearGradient
       xlink:href="#b"
       id="linearGradient8"
       x1="116"
       y1="60"
       x2="12"
       y2="60"
       gradientUnits="userSpaceOnUse"
       gradientTransform="matrix(1,0,0,1.0416667,0,-0.5)" /><linearGradient
       xlink:href="#linearGradient16"
       id="linearGradient18"
       x1="-18"
       y1="145"
       x2="86"
       y2="145"
       gradientUnits="userSpaceOnUse"
       gradientTransform="translate(30,-79)" /></defs><linearGradient
     id="a"
     gradientUnits="userSpaceOnUse"
     x1="11.999989"
     x2="115.999989"
     y1="64"
     y2="64"
     gradientTransform="translate(-140)"><stop
       offset="0"
       stop-color="#3d3846"
       id="stop252" /><stop
       offset="0.05"
       stop-color="#77767b"
       id="stop254" /><stop
       offset="0.1"
       stop-color="#5e5c64"
       id="stop256" /><stop
       offset="0.899999"
       stop-color="#504e56"
       id="stop258" /><stop
       offset="0.95"
       stop-color="#77767b"
       id="stop260" /><stop
       offset="1"
       stop-color="#3d3846"
       id="stop262" /></linearGradient><linearGradient
     id="b"
     gradientUnits="userSpaceOnUse"
     x1="12"
     x2="112.041023"
     y1="60"
     y2="80.988281"><stop
       offset="0.38444301"
       stop-color="#9a9996"
       id="stop267"
       style="stop-color:#ee4444;stop-opacity:1;" /><stop
       offset="0.72056699"
       stop-color="#77767b"
       id="stop269"
       style="stop-color:#ccd420;stop-opacity:1;" /></linearGradient><path
     d="m 20,16 h 88 c 4.41797,0 8,3.731283 8,8.33333 v 83.33334 C 116,112.26872 112.41797,116 108,116 H 20 c -4.41797,0 -8,-3.73128 -8,-8.33333 V 24.33333 C 12,19.731283 15.58203,16 20,16 Z m 0,0"
     fill="url(#b)"
     id="path276-4-5"
     style="fill:url(#linearGradient18);stroke-width:1" /><path
     d="m 20,12 h 88 c 4.41797,0 8,3.731283 8,8.333334 V 103.66667 C 116,108.26872 112.41797,112 108,112 H 20 c -4.417969,0 -8,-3.73128 -8,-8.33333 V 20.333334 C 12,15.731283 15.582031,12 20,12 Z m 0,0"
     fill="url(#b)"
     id="path276"
     style="fill:url(#linearGradient8);fill-opacity:1;stroke-width:1" /><path
     d="m 20,12 h 88 c 4.41797,0 8,3.731283 8,8.333334 V 103.66667 C 116,108.26872 112.41797,112 108,112 H 20 c -4.41797,0 -8,-3.73128 -8,-8.33333 V 20.333334 C 12,15.731283 15.58203,12 20,12 Z m 0,0"
     fill="url(#b)"
     id="path276-4"
     style="fill:#ffffff;fill-opacity:1;stroke-width:1" /><path
     d="m 21.76,15.999999 h 84.48 c 3.18,0 5.76,2.6875 5.76,6 V 102 c 0,3.3125 -2.58,6 -5.76,6 H 21.76 C 18.58,108 16,105.3125 16,102 V 21.999999 c 0,-3.3125 2.58,-6 5.76,-6 z m 0,0"
     fill="#241f31"
     id="path278"
     style="stroke-width:0.999999;fill:#4a4a4a;fill-opacity:1" /><path
     id="rect6"
     style="fill:#ffffff;stroke-width:1.55157"
     d="m 76.395,24.999999 v 3.89398 c 0,2.142883 -1.79847,3.86802 -4.03244,3.86802 H 55.63744 c -2.23398,0 -4.03244,-1.725137 -4.03244,-3.86802 v -3.89398 z" /><path
     id="rect6-4"
     style="fill:#fecb44;stroke-width:1.22636;fill-opacity:1"
     d="m 74.3505,34.677992 v 2.91321 c 0,1.60316 -1.50182,2.89379 -3.36731,2.89379 H 57.01681 c -1.86549,0 -3.36731,-1.29063 -3.36731,-2.89379 v -2.91321 z" /><path
     style="fill:#ffffff;stroke-width:0.24208"
     d="m 73.475219,82.406455 7.96205,-16.032087 -1.41405,-2.954838 C 77.34174,57.816234 75.605389,52.14636 74.808689,46.392043 74.589919,44.811927 74.364239,43.273999 74.30718,42.974425 L 74.203429,42.429746 H 63.95093 53.69843 l -0.1697,1.755078 c -0.59492,6.152815 -2.52303,12.837803 -5.50762,19.095544 l -1.45838,3.057756 8.05603,16.248109 c 6.27317,12.652294 7.93723,16.364413 8.50593,16.409737 0.60264,0.04803 0.43645,-0.783974 0.43645,-15.117503 V 68.922592 l -0.714261,-0.269604 c -0.88351,-0.333489 -1.70442,-1.629616 -1.70563,-2.693002 -0.002,-2.193062 2.198281,-3.609677 4.10719,-2.643761 0.77275,0.391019 1.70182,1.774367 1.70182,2.533958 0,1.059867 -0.74312,2.238798 -1.72787,2.741179 l -0.93501,0.477003 v 14.713534 c 0,15.130747 -0.24004,15.81266 0.90512,14.977317 0.20151,-0.146992 3.90359,-7.535113 8.28272,-16.352761 z"
     id="path1-8" /><path
     id="rect18"
     style="fill:#5b5b5b;stroke-width:1.01966"
     d="m 24.996869,30.813733 h 21.406284 v 0.902136 H 24.996869 Z" /><path
     id="rect18-6"
     style="fill:#5b5b5b;stroke-width:1.08091"
     d="m 24.996869,43.145535 h 24.055476 v 0.902136 H 24.996869 Z" /><path
     id="rect18-0"
     style="fill:#5b5b5b;stroke-width:0.992935"
     d="m 24.996869,55.301785 h 20.299002 v 0.902136 H 24.996869 Z" /><path
     id="rect18-3"
     style="fill:#5b5b5b;stroke-width:0.838415"
     d="m 24.996869,67.69444 h 14.472784 v 0.902136 H 24.996869 Z" /><path
     id="rect18-06"
     style="fill:#5b5b5b;stroke-width:1.00771"
     d="m 24.996869,79.88248 h 20.907559 v 0.902136 H 24.996869 Z" /><path
     id="rect18-5"
     style="fill:#5b5b5b;stroke-width:1.16212"
     d="m 24.996869,92.28413 h 27.80563 v 0.902136 h -27.80563 z" /><path
     id="rect18-7"
     style="fill:#5b5b5b;stroke-width:1.01966"
     d="M 103.00313,30.813733 H 81.596848 v 0.902136 h 21.406282 z" /><path
     id="rect18-6-6"
     style="fill:#5b5b5b;stroke-width:1.08091"
     d="M 103.00313,43.145535 H 78.947656 v 0.902136 h 24.055474 z" /><path
     id="rect18-0-5"
     style="fill:#5b5b5b;stroke-width:0.992935"
     d="m 103.00313,55.301785 h -20.299 v 0.902136 h 20.299 z" /><path
     id="rect18-3-6"
     style="fill:#5b5b5b;stroke-width:0.838415"
     d="M 103.00313,67.69444 H 88.530348 v 0.902136 h 14.472782 z" /><path
     id="rect18-06-9"
     style="fill:#5b5b5b;stroke-width:1.00771"
     d="M 103.00313,79.88248 H 82.095573 v 0.902136 h 20.907557 z" /><path
     id="rect18-5-3"
     style="fill:#5b5b5b;stroke-width:1.16212"
     d="M 103.00313,92.28413 H 75.197502 v 0.902136 h 27.805628 z" /></svg>
