<?xml version="1.0" encoding="UTF-8" standalone="no"?>
<svg
   width="128"
   height="128"
   viewBox="0 0 128 128"
   version="1.1"
   id="svg29"
   xmlns="http://www.w3.org/2000/svg"
   xmlns:svg="http://www.w3.org/2000/svg">
  <defs
     id="defs15">
    <linearGradient
       id="a-9"
       gradientUnits="userSpaceOnUse"
       x1="0"
       y1="269.46301"
       x2="118.926"
       y2="269.46301"
       gradientTransform="matrix(1,0,0,0.98333333,5e-6,-168.03333)">
      <stop
         offset="0"
         stop-color="#e5a50a"
         id="stop1-5"
         style="stop-color:#787878;stop-opacity:1;" />
      <stop
         offset="0.414"
         stop-color="#fbdf9b"
         id="stop2-1"
         style="stop-color:#cbcbcb;stop-opacity:1;" />
      <stop
         offset="0.81300002"
         stop-color="#e5a50a"
         id="stop3-6"
         style="stop-color:#787878;stop-opacity:1;" />
      <stop
         offset="1"
         stop-color="#f8ca5b"
         id="stop4-6"
         style="stop-color:#a9a9a9;stop-opacity:1;" />
    </linearGradient>
    <linearGradient
       id="paint0_linear_14620_7506"
       x1="11"
       y1="36.417198"
       x2="52.604801"
       y2="32.820999"
       gradientUnits="userSpaceOnUse"
       gradientTransform="matrix(1.84375,0,0,1.84375,4.9999493,2.999999)">
      <stop
         offset="0.3"
         stop-color="#FF6A16"
         id="stop2" />
      <stop
         offset="0.542948"
         stop-color="#FF3227"
         id="stop3" />
      <stop
         offset="0.89"
         stop-color="#FF66DD"
         id="stop4" />
    </linearGradient>
  </defs>
  <path
     d="M 124.00001,65.999999 C 124.00001,98.584719 97.137005,125 64.000005,125 c -33.137,0 -60,-26.415281 -60,-59.000001 0,-32.584717 26.863,-58.9999996 60,-58.9999996 33.137,0 60.000005,26.4152826 60.000005,58.9999996 z m 0,0"
     fill="url(#a)"
     id="path4"
     style="fill:url(#a-9);stroke-width:0.991632" />
  <path
     style="fill:#ffffff;fill-opacity:1;fill-rule:evenodd;stroke:none;stroke-width:11.1733;stroke-linecap:square;stroke-linejoin:bevel"
     id="path94"
     d="M 124.00001,61.999998 C 124.00001,94.584668 97.136958,121 64,121 30.86291,121 4,94.584668 4,61.999998 4,29.415192 30.86291,2.9999992 64,2.9999992 c 33.136958,0 60.00001,26.4151928 60.00001,58.9999988"
     vector-effect="none" />
  <text
     style="font-style:normal;font-weight:400;font-size:13.8828px;font-family:Arial;fill:#ffffff;fill-opacity:1;fill-rule:evenodd;stroke:none;stroke-width:0.991632;stroke-linecap:square;stroke-linejoin:bevel;stroke-opacity:1"
     id="text1476"
     font-style="normal"
     font-weight="400"
     font-size="14"
     y="-67.545097"
     x="-183.452"
     xml:space="preserve"
     transform="scale(1.008439,0.99163165)" />
  <path
     fill-rule="evenodd"
     clip-rule="evenodd"
     d="m 102.52271,38.813737 c -0.17258,-0.450244 -0.47274,-0.997838 -0.86288,-1.590788 -0.78046,-1.192906 -1.958428,-2.656106 -3.263987,-4.036891 v -0.0074 c -1.395719,-1.403278 -2.821307,-2.618862 -3.976785,-3.421631 -0.577831,-0.397697 -1.103115,-0.712794 -1.53824,-0.885369 -0.217563,-0.09016 -0.43531,-0.150081 -0.645313,-0.1652 -0.202628,-0.01493 -0.457803,0.02249 -0.652872,0.217563 l -27.0574,26.352534 c -0.300162,0.292603 -0.787834,0.292603 -1.087997,0 L 36.379649,28.924046 c -0.19507,-0.187509 -0.45024,-0.224938 -0.65268,-0.217563 -0.20263,0.01512 -0.42775,0.07504 -0.64532,0.1652 -0.43531,0.172575 -0.96797,0.487672 -1.53824,0.885369 -1.15548,0.802769 -2.58125,2.025913 -3.97678,3.421631 v 0.0074 c -1.30575,1.380785 -2.48372,2.843985 -3.26399,4.036891 -0.39032,0.59295 -0.69786,1.140544 -0.86306,1.590788 -0.0824,0.225121 -0.14252,0.450243 -0.15746,0.652871 -0.007,0.202629 0.0301,0.465178 0.2325,0.660247 l 30.231599,29.421457 c 0.270109,0.26255 0.42019,0.622634 0.42019,0.997837 l -0.03005,35.987046 c 0,0.27011 0.157456,0.47274 0.292603,0.60014 0.142522,0.13515 0.330216,0.24762 0.540219,0.34515 0.420191,0.20263 0.998022,0.39032 1.680763,0.54778 1.3806,0.31528 3.26399,0.5404 5.350009,0.5404 2.086019,0 3.969409,-0.22512 5.350009,-0.5404 0.682741,-0.15746 1.260572,-0.34515 1.680763,-0.54778 0.210003,-0.0975 0.397697,-0.21756 0.540219,-0.34515 0.135147,-0.1274 0.292603,-0.33003 0.292603,-0.60014 l -0.03005,-35.987046 c 0,-0.375203 0.150081,-0.735288 0.42019,-0.997838 L 102.48529,40.12688 c 0.20244,-0.195069 0.24005,-0.457618 0.23249,-0.660247 -0.008,-0.210187 -0.075,-0.435309 -0.15745,-0.652871 z"
     fill="url(#paint0_linear_14620_7506)"
     id="path2"
     style="fill:url(#paint0_linear_14620_7506);stroke-width:1.84375" />
</svg>
