<?xml version="1.0" encoding="UTF-8" standalone="no"?>
<svg
   viewBox="0 0 128 128"
   style="display:inline;enable-background:new"
   version="1.0"
   id="svg11300"
   height="128"
   width="128"
   xml:space="preserve"
   xmlns:xlink="http://www.w3.org/1999/xlink"
   xmlns="http://www.w3.org/2000/svg"
   xmlns:svg="http://www.w3.org/2000/svg"
   xmlns:rdf="http://www.w3.org/1999/02/22-rdf-syntax-ns#"
   xmlns:cc="http://creativecommons.org/ns#"
   xmlns:dc="http://purl.org/dc/elements/1.1/"><title
     id="title4162">Adwaita Icon Template</title><defs
     id="defs3"><linearGradient
       y2="44"
       x2="464"
       y1="44"
       x1="48"
       gradientTransform="matrix(0.24038462,0,0,0.23809525,2.4615382,55.999983)"
       gradientUnits="userSpaceOnUse"
       id="linearGradient1747"
       xlink:href="#linearGradient974-3" /><linearGradient
       id="linearGradient974-3"><stop
         style="stop-color:#2b2b2b;stop-opacity:1;"
         offset="0"
         id="stop962-2" /><stop
         id="stop964-9"
         offset="0.04166667"
         style="stop-color:#686466;stop-opacity:1;" /><stop
         style="stop-color:#2b2b2b;stop-opacity:1;"
         offset="0.08333334"
         id="stop966-5" /><stop
         id="stop968-4"
         offset="0.91666669"
         style="stop-color:#2b2b2b;stop-opacity:1;" /><stop
         style="stop-color:#686466;stop-opacity:1;"
         offset="0.95833331"
         id="stop970-6" /><stop
         style="stop-color:#2b2b2b;stop-opacity:1;"
         offset="1"
         id="stop972-6" /></linearGradient></defs><metadata
     id="metadata4"><rdf:RDF><cc:Work
         rdf:about=""><dc:format>image/svg+xml</dc:format><dc:type
           rdf:resource="http://purl.org/dc/dcmitype/StillImage" /><dc:creator><cc:Agent><dc:title>GNOME Design Team</dc:title></cc:Agent></dc:creator><dc:source /><cc:license
           rdf:resource="http://creativecommons.org/licenses/by-sa/4.0/" /><dc:title>Adwaita Icon Template</dc:title><dc:subject><rdf:Bag /></dc:subject><dc:date /><dc:rights><cc:Agent><dc:title /></cc:Agent></dc:rights><dc:publisher><cc:Agent><dc:title /></cc:Agent></dc:publisher><dc:identifier /><dc:relation /><dc:language /><dc:coverage /><dc:description /><dc:contributor><cc:Agent><dc:title /></cc:Agent></dc:contributor></cc:Work><cc:License
         rdf:about="http://creativecommons.org/licenses/by-sa/4.0/"><cc:permits
           rdf:resource="http://creativecommons.org/ns#Reproduction" /><cc:permits
           rdf:resource="http://creativecommons.org/ns#Distribution" /><cc:requires
           rdf:resource="http://creativecommons.org/ns#Notice" /><cc:requires
           rdf:resource="http://creativecommons.org/ns#Attribution" /><cc:permits
           rdf:resource="http://creativecommons.org/ns#DerivativeWorks" /><cc:requires
           rdf:resource="http://creativecommons.org/ns#ShareAlike" /></cc:License></rdf:RDF></metadata><rect
     y="36"
     x="14"
     height="80"
     width="100"
     id="rect1709"
     style="display:inline;fill:url(#linearGradient1747);fill-opacity:1;stroke:none;stroke-width:0.956848;stroke-linecap:butt;stroke-linejoin:miter;stroke-miterlimit:4;stroke-dasharray:none;stroke-dashoffset:0;stroke-opacity:1;marker:none;marker-start:none;marker-mid:none;marker-end:none;paint-order:normal;enable-background:new"
     rx="17.788462"
     ry="17.619049" /><rect
     style="display:inline;fill:#1f1f1f;fill-opacity:1;stroke:none;stroke-width:0.961437;stroke-linecap:butt;stroke-linejoin:miter;stroke-miterlimit:4;stroke-dasharray:none;stroke-dashoffset:0;stroke-opacity:1;marker:none;marker-start:none;marker-mid:none;marker-end:none;paint-order:normal;enable-background:new"
     id="rect1711"
     width="100"
     height="100"
     x="14"
     y="12"
     rx="17.78846"
     ry="17.78846" /><path
     id="path4"
     style="display:inline;fill:#f2f0e3;fill-opacity:1;stroke-width:0.962;stroke-dasharray:none;enable-background:new"
     d="M 64.000002,47.68831 A 14.31169,14.311689 0 0 0 49.688312,62 14.31169,14.311689 0 0 0 64.000002,76.31169 14.31169,14.311689 0 0 0 78.31169,62 14.31169,14.311689 0 0 0 64.000002,47.68831 Z m 0,2.467534 A 11.844156,11.844155 0 0 1 75.844157,62 11.844156,11.844155 0 0 1 64.000002,73.844157 11.844156,11.844155 0 0 1 52.155845,62 11.844156,11.844155 0 0 1 64.000002,50.155844 Z m 0,-13.324677 A 25.168834,25.168834 0 0 0 38.831169,62 25.168834,25.168834 0 0 0 64.000002,87.168835 25.168834,25.168834 0 0 0 89.168835,62 25.168834,25.168834 0 0 0 64.000002,36.831167 Z m 0,4.441561 A 20.727274,20.727274 0 0 1 84.727275,62 20.727274,20.727274 0 0 1 64.000002,82.727273 20.727274,20.727274 0 0 1 43.272728,62 20.727274,20.727274 0 0 1 64.000002,41.272728 Z M 64.000002,24 A 38.000008,38.000006 0 0 0 26,62 38.000008,38.000006 0 0 0 64.000002,100 38.000008,38.000006 0 0 0 102,62 38.000008,38.000006 0 0 0 64.000002,24 Z m 0,6.909092 A 31.090915,31.090915 0 0 1 95.090914,62 31.090915,31.090915 0 0 1 64.000002,93.090908 31.090915,31.090915 0 0 1 32.909092,62 31.090915,31.090915 0 0 1 64.000002,30.909092 Z" /></svg>
