<?xml version="1.0" encoding="UTF-8" standalone="no"?>
<svg
   viewBox="0 0 128 128"
   style="display:inline;enable-background:new"
   version="1.0"
   id="svg11300"
   height="128"
   width="128"
   xml:space="preserve"
   xmlns:xlink="http://www.w3.org/1999/xlink"
   xmlns="http://www.w3.org/2000/svg"
   xmlns:svg="http://www.w3.org/2000/svg"
   xmlns:rdf="http://www.w3.org/1999/02/22-rdf-syntax-ns#"
   xmlns:cc="http://creativecommons.org/ns#"
   xmlns:dc="http://purl.org/dc/elements/1.1/"><title
     id="title4162">Adwaita Icon Template</title><defs
     id="defs3"><linearGradient
       id="linearGradient974"><stop
         style="stop-color:#ca1003;stop-opacity:1;"
         offset="0"
         id="stop962" /><stop
         id="stop964"
         offset="0.04166667"
         style="stop-color:#fc4236;stop-opacity:1;" /><stop
         style="stop-color:#ca1003;stop-opacity:1;"
         offset="0.08333334"
         id="stop966" /><stop
         id="stop968"
         offset="0.91666669"
         style="stop-color:#ca1003;stop-opacity:1;" /><stop
         style="stop-color:#fc4236;stop-opacity:1;"
         offset="0.95833331"
         id="stop970" /><stop
         style="stop-color:#ca1003;stop-opacity:1;"
         offset="1"
         id="stop972" /></linearGradient><linearGradient
       y2="44"
       x2="464"
       y1="44"
       x1="48"
       gradientTransform="matrix(0.25,0,0,0.25,0,53)"
       gradientUnits="userSpaceOnUse"
       id="linearGradient1747"
       xlink:href="#linearGradient974" /><filter
       style="color-interpolation-filters:sRGB"
       id="filter5"
       x="0"
       y="0"
       width="1"
       height="1"><feColorMatrix
         values="0.21 0.72 0.07 -0.1 0 0.21 0.72 0.07 -0.1 0 0.21 0.72 0.07 -0.1 0 0 0 0 1 0 "
         id="feColorMatrix5"
         result="fbSourceGraphic" /><feColorMatrix
         result="fbSourceGraphicAlpha"
         in="fbSourceGraphic"
         values="0 0 0 -1 0 0 0 0 -1 0 0 0 0 -1 0 0 0 0 1 0"
         id="feColorMatrix64" /><feColorMatrix
         id="feColorMatrix65"
         values="0.85 0 0 -0.023125 0.075 0 0.85 0 -0.023125 0.075 0 0 0.85 -0.023125 0.075 0 0 0 1 0"
         in="fbSourceGraphic" /></filter></defs><metadata
     id="metadata4"><rdf:RDF><cc:Work
         rdf:about=""><dc:format>image/svg+xml</dc:format><dc:type
           rdf:resource="http://purl.org/dc/dcmitype/StillImage" /><dc:creator><cc:Agent><dc:title>GNOME Design Team</dc:title></cc:Agent></dc:creator><dc:source /><cc:license
           rdf:resource="http://creativecommons.org/licenses/by-sa/4.0/" /><dc:title>Adwaita Icon Template</dc:title><dc:subject><rdf:Bag /></dc:subject><dc:date /><dc:rights><cc:Agent><dc:title /></cc:Agent></dc:rights><dc:publisher><cc:Agent><dc:title /></cc:Agent></dc:publisher><dc:identifier /><dc:relation /><dc:language /><dc:coverage /><dc:description /><dc:contributor><cc:Agent><dc:title /></cc:Agent></dc:contributor></cc:Work><cc:License
         rdf:about="http://creativecommons.org/licenses/by-sa/4.0/"><cc:permits
           rdf:resource="http://creativecommons.org/ns#Reproduction" /><cc:permits
           rdf:resource="http://creativecommons.org/ns#Distribution" /><cc:requires
           rdf:resource="http://creativecommons.org/ns#Notice" /><cc:requires
           rdf:resource="http://creativecommons.org/ns#Attribution" /><cc:permits
           rdf:resource="http://creativecommons.org/ns#DerivativeWorks" /><cc:requires
           rdf:resource="http://creativecommons.org/ns#ShareAlike" /></cc:License></rdf:RDF></metadata><rect
     ry="8"
     rx="8"
     y="32"
     x="12"
     height="83.999992"
     width="104"
     id="rect1709"
     style="display:inline;fill:url(#linearGradient1747);fill-opacity:1;stroke:none;stroke-width:0.25;stroke-linecap:butt;stroke-linejoin:miter;stroke-miterlimit:4;stroke-dasharray:none;stroke-dashoffset:0;stroke-opacity:1;marker:none;marker-start:none;marker-mid:none;marker-end:none;paint-order:normal;filter:url(#filter5);enable-background:new" /><rect
     style="display:inline;fill:#000000;fill-opacity:1;stroke:none;stroke-width:0.25;stroke-linecap:butt;stroke-linejoin:miter;stroke-miterlimit:4;stroke-dasharray:none;stroke-dashoffset:0;stroke-opacity:1;marker:none;marker-start:none;marker-mid:none;marker-end:none;paint-order:normal;enable-background:new"
     id="rect1711"
     width="104"
     height="100"
     x="12"
     y="12"
     rx="8"
     ry="8" /><path
     id="path5"
     d="m 57.508278,34.334128 c -8.753374,0.0013 -15.251435,0.177068 -16.193626,0.438738 -4.986861,1.384986 -6.822884,7.605741 -3.376045,11.437745 2.063282,2.293835 3.373425,2.498163 15.357462,2.390334 l 10.042588,-0.09041 A 2.1640606,2.1640606 159.47854 0 0 64.7254,47.991464 l 1.769974,-1.513151 c 2.633136,-2.250372 6.400618,-7.553209 6.863638,-9.661314 0.541312,-2.464585 0.406333,-2.4855 -15.850734,-2.482874 z m 27.450423,0.318932 c -1.97603,0.04478 -3.979031,0.782123 -5.114471,2.067271 -0.380785,0.430997 -1.358965,2.116682 -2.173856,3.745381 -3.633865,7.262898 -8.094995,11.485932 -16.377053,15.502884 -6.834247,3.314736 -10.320429,5.651307 -14.356879,9.622477 -4.834228,4.756046 -9.387191,11.709602 -10.625544,16.226674 -0.891711,3.25264 1.034773,7.34971 4.462564,8.142666 2.057596,0.475987 2.422796,0.478065 4.575757,0.02227 2.297336,-0.819331 3.13283,-1.716524 4.94344,-5.309461 3.874396,-7.688281 7.991304,-11.539071 17.189254,-16.075468 6.652157,-3.280818 11.639831,-6.772022 14.981524,-10.488388 5.348064,-5.947698 9.465461,-13.254661 9.41344,-16.703421 -0.03661,-2.429062 -1.56392,-5.009586 -3.583438,-6.053916 -0.972959,-0.503136 -2.149117,-0.72587 -3.334738,-0.699005 z m -21.444936,42.149566 -1.927127,1.645685 c -2.633669,2.249704 -6.401236,7.553065 -6.864467,9.662133 -0.540289,2.459925 -0.380634,2.485355 15.557419,2.485355 9.376388,0 14.992274,-0.168137 16.253941,-0.485838 6.209004,-1.563445 7.324665,-9.578187 1.787173,-12.83988 -1.341083,-0.789923 -2.197199,-0.846078 -12.900202,-0.846078 H 64.540181 a 1.5805758,1.5805758 159.75204 0 0 -1.026416,0.378623 z"
     style="fill:#ffffff;fill-opacity:1;stroke-width:0.423038" /></svg>
