<?xml version="1.0" encoding="UTF-8" standalone="no"?>
<svg
   viewBox="0 0 128 128"
   style="display:inline;enable-background:new"
   version="1.0"
   id="svg11300"
   height="128"
   width="128"
   xml:space="preserve"
   xmlns:xlink="http://www.w3.org/1999/xlink"
   xmlns="http://www.w3.org/2000/svg"
   xmlns:svg="http://www.w3.org/2000/svg"
   xmlns:rdf="http://www.w3.org/1999/02/22-rdf-syntax-ns#"
   xmlns:cc="http://creativecommons.org/ns#"
   xmlns:dc="http://purl.org/dc/elements/1.1/"><title
     id="title4162">Adwaita Icon Template</title><defs
     id="defs3"><linearGradient
       id="linearGradient1"><stop
         style="stop-color:#1a1a1a;stop-opacity:1;"
         offset="0"
         id="stop1" /><stop
         style="stop-color:#050505;stop-opacity:1;"
         offset="1"
         id="stop2" /></linearGradient><linearGradient
       y2="44"
       x2="464"
       y1="44"
       x1="48"
       gradientTransform="matrix(0.25,0,0,0.25,0,53)"
       gradientUnits="userSpaceOnUse"
       id="linearGradient1747"
       xlink:href="#linearGradient974-3" /><linearGradient
       xlink:href="#linearGradient1"
       id="linearGradient2"
       x1="64"
       y1="10"
       x2="64"
       y2="114"
       gradientUnits="userSpaceOnUse" /><linearGradient
       id="linearGradient974-3"><stop
         style="stop-color:#262626;stop-opacity:1;"
         offset="0"
         id="stop962-2" /><stop
         id="stop964-9"
         offset="0.04166667"
         style="stop-color:#686466;stop-opacity:1;" /><stop
         style="stop-color:#262626;stop-opacity:1;"
         offset="0.08333334"
         id="stop966-5" /><stop
         id="stop968-4"
         offset="0.91666669"
         style="stop-color:#262626;stop-opacity:1;" /><stop
         style="stop-color:#686466;stop-opacity:1;"
         offset="0.95833331"
         id="stop970-6" /><stop
         style="stop-color:#262626;stop-opacity:1;"
         offset="1"
         id="stop972-6" /></linearGradient></defs><metadata
     id="metadata4"><rdf:RDF><cc:Work
         rdf:about=""><dc:format>image/svg+xml</dc:format><dc:type
           rdf:resource="http://purl.org/dc/dcmitype/StillImage" /><dc:creator><cc:Agent><dc:title>GNOME Design Team</dc:title></cc:Agent></dc:creator><dc:source /><cc:license
           rdf:resource="http://creativecommons.org/licenses/by-sa/4.0/" /><dc:title>Adwaita Icon Template</dc:title><dc:subject><rdf:Bag /></dc:subject><dc:date /><dc:rights><cc:Agent><dc:title /></cc:Agent></dc:rights><dc:publisher><cc:Agent><dc:title /></cc:Agent></dc:publisher><dc:identifier /><dc:relation /><dc:language /><dc:coverage /><dc:description /><dc:contributor><cc:Agent><dc:title /></cc:Agent></dc:contributor></cc:Work><cc:License
         rdf:about="http://creativecommons.org/licenses/by-sa/4.0/"><cc:permits
           rdf:resource="http://creativecommons.org/ns#Reproduction" /><cc:permits
           rdf:resource="http://creativecommons.org/ns#Distribution" /><cc:requires
           rdf:resource="http://creativecommons.org/ns#Notice" /><cc:requires
           rdf:resource="http://creativecommons.org/ns#Attribution" /><cc:permits
           rdf:resource="http://creativecommons.org/ns#DerivativeWorks" /><cc:requires
           rdf:resource="http://creativecommons.org/ns#ShareAlike" /></cc:License></rdf:RDF></metadata><rect
     ry="8"
     rx="8"
     y="32"
     x="12"
     height="83.999992"
     width="104"
     id="rect1709"
     style="display:inline;fill:url(#linearGradient1747);fill-opacity:1;stroke:none;stroke-width:0.25;stroke-linecap:butt;stroke-linejoin:miter;stroke-miterlimit:4;stroke-dasharray:none;stroke-dashoffset:0;stroke-opacity:1;marker:none;marker-start:none;marker-mid:none;marker-end:none;paint-order:normal;enable-background:new" /><rect
     style="display:inline;fill:url(#linearGradient2);fill-opacity:1;stroke:none;stroke-width:0.25;stroke-linecap:butt;stroke-linejoin:miter;stroke-miterlimit:4;stroke-dasharray:none;stroke-dashoffset:0;stroke-opacity:1;marker:none;marker-start:none;marker-mid:none;marker-end:none;paint-order:normal;enable-background:new"
     id="rect1711"
     width="104"
     height="100"
     x="12"
     y="12"
     rx="8"
     ry="8" /><path
     id="path5-2"
     style="fill:#fef9fe;stroke-width:0px"
     class="i"
     d="m 41.146975,92.468742 c -0.97149,0 -1.95845,-0.18694 -2.91174,-0.58175 -3.88648,-1.60979 -5.73209,-6.06541 -4.1223,-9.95163 2.47585,-5.97701 6.02446,-11.33548 10.54768,-15.92643 4.68572,-4.75605 10.21163,-8.47236 16.42459,-11.04584 8.53983,-3.53743 15.19089,-10.18849 18.72793,-18.72793 1.60979,-3.88648 6.06554,-5.7317 9.95163,-4.1223 3.88648,1.60979 5.73209,6.06541 4.1223,9.95163 -2.47585,5.97701 -6.02446,11.33548 -10.54768,15.92643 -4.68572,4.75605 -10.21163,8.47236 -16.42459,11.04584 -8.53983,3.53743 -15.19089,10.18849 -18.72793,18.72793 -1.21485,2.93306 -4.05132,4.70405 -7.03989,4.70405 z m 30.485,-58.09401 c -1.90164,3.34594 -5.61626,8.81777 -11.11877,11.90007 -0.57278,0.32084 -1.21758,0.49179 -1.87408,0.49179 h -17.36371 c -4.1769,0 -7.6713,-3.31032 -7.74098,-7.48657 -0.0711,-4.26621 3.3657,-7.74683 7.61566,-7.74683 h 28.82438 c 1.45873,0 2.37835,1.57339 1.65763,2.84167 z m 22.83385,50.60536 c -0.06968,4.17625 -3.56408,7.48657 -7.74098,7.48657 h -28.69906 c -1.45873,0 -2.37835,-1.57339 -1.65763,-2.84167 1.90164,-3.34594 5.61626,-8.81777 11.11877,-11.90007 0.57278,-0.32084 1.21758,-0.49179 1.87408,-0.49179 h 17.48916 c 4.24996,0 7.68677,3.48062 7.61566,7.74683 z" /></svg>
