<?xml version="1.0" encoding="UTF-8" standalone="no"?>
<!-- Created with Inkscape (http://www.inkscape.org/) -->

<svg
   version="1.0"
   width="128"
   height="128"
   id="svg4292"
   xmlns:xlink="http://www.w3.org/1999/xlink"
   xmlns="http://www.w3.org/2000/svg"
   xmlns:svg="http://www.w3.org/2000/svg">
  <defs
     id="defs4294">
    <linearGradient
       id="linearGradient30">
      <stop
         style="stop-color:#700000;stop-opacity:1;"
         offset="0"
         id="stop31" />
      <stop
         style="stop-color:#a30000;stop-opacity:1;"
         offset="0.03245253"
         id="stop33" />
      <stop
         style="stop-color:#700000;stop-opacity:1;"
         offset="0.06940864"
         id="stop34" />
      <stop
         style="stop-color:#700000;stop-opacity:1;"
         offset="0.92692089"
         id="stop35" />
      <stop
         style="stop-color:#a30000;stop-opacity:1;"
         offset="0.96731168"
         id="stop36" />
      <stop
         style="stop-color:#700000;stop-opacity:1;"
         offset="1"
         id="stop32" />
    </linearGradient>
    <linearGradient
       id="linearGradient27">
      <stop
         style="stop-color:#b8a400;stop-opacity:1;"
         offset="0"
         id="stop27" />
      <stop
         style="stop-color:#fff185;stop-opacity:1;"
         offset="0.41054922"
         id="stop29" />
      <stop
         style="stop-color:#b8a400;stop-opacity:1;"
         offset="0.80959976"
         id="stop30" />
      <stop
         style="stop-color:#ffef6b;stop-opacity:1;"
         offset="1"
         id="stop28" />
    </linearGradient>
    <linearGradient
       id="linearGradient2">
      <stop
         style="stop-color:#4e9a06;stop-opacity:1;"
         offset="0"
         id="stop2" />
      <stop
         style="stop-color:#418005;stop-opacity:1;"
         offset="0.5"
         id="stop4" />
      <stop
         style="stop-color:#346704;stop-opacity:1;"
         offset="1"
         id="stop3" />
    </linearGradient>
    <linearGradient
       id="linearGradient3717">
      <stop
         style="stop-color:#ffef52;stop-opacity:1;"
         offset="0"
         id="stop3719" />
      <stop
         style="stop-color:#ebd400;stop-opacity:1;"
         offset="0.5"
         id="stop12" />
      <stop
         style="stop-color:#857600;stop-opacity:1;"
         offset="1"
         id="stop3721" />
    </linearGradient>
    <linearGradient
       xlink:href="#linearGradient2"
       id="linearGradient3"
       x1="-73.224403"
       y1="51.66777"
       x2="-64.238495"
       y2="61.896767"
       gradientUnits="userSpaceOnUse"
       gradientTransform="translate(145.20215,-1.8418001)" />
    <linearGradient
       xlink:href="#linearGradient3717"
       id="linearGradient12"
       x1="-104.15035"
       y1="78.165443"
       x2="-94.08519"
       y2="89.326164"
       gradientUnits="userSpaceOnUse"
       gradientTransform="translate(145.20215,-1.8418001)" />
    <linearGradient
       xlink:href="#linearGradient27"
       id="linearGradient28"
       x1="-129.76191"
       y1="97.139642"
       x2="-94.448406"
       y2="97.139642"
       gradientUnits="userSpaceOnUse"
       gradientTransform="translate(145.20215,-1.8418001)" />
    <linearGradient
       xlink:href="#linearGradient30"
       id="linearGradient32"
       x1="-84.835938"
       y1="109.69531"
       x2="-56.255859"
       y2="109.69531"
       gradientUnits="userSpaceOnUse"
       gradientTransform="translate(145.20215,-1.8418001)" />
    <linearGradient
       xlink:href="#linearGradient30"
       id="linearGradient38"
       x1="-60.033203"
       y1="91.09375"
       x2="-31.453125"
       y2="91.09375"
       gradientUnits="userSpaceOnUse"
       gradientTransform="translate(145.20215,-1.8418001)" />
    <linearGradient
       xlink:href="#linearGradient30"
       id="linearGradient40"
       x1="-98.515625"
       y1="26.545898"
       x2="-65.046875"
       y2="26.545898"
       gradientUnits="userSpaceOnUse"
       gradientTransform="translate(145.20215,-1.8418001)" />
    <linearGradient
       xlink:href="#linearGradient30"
       id="linearGradient42"
       x1="-130.95117"
       y1="45.081055"
       x2="-97.482422"
       y2="45.081055"
       gradientUnits="userSpaceOnUse"
       gradientTransform="translate(145.20215,-1.8418001)" />
  </defs>
  <path
     id="path27"
     style="-inkscape-font-specification:'Andale Mono';fill:#990000;fill-opacity:1"
     d="m 75.875978,56.808591 -6.259766,6.515625 29.498047,28.263672 6.261721,-6.515626 z" />
  <path
     id="path26"
     style="-inkscape-font-specification:'Andale Mono';fill:#990000;fill-opacity:1"
     d="m 72.506838,71.076169 -8.791016,2.199219 8.037109,33.330082 8.796875,-2.11329 z" />
  <path
     id="path24"
     style="fill:url(#linearGradient38);fill-opacity:1;stroke-linejoin:round"
     d="m 87.250978,81.105466 a 2.0835132,2.0835132 0 0 0 -2.082031,2.082031 v 12.128906 a 2.0835132,2.0835132 0 0 0 2.082031,2.082031 h 24.414062 a 2.0835132,2.0835132 0 0 0 2.08398,-2.082031 V 83.187497 a 2.0835132,2.0835132 0 0 0 -2.08398,-2.082031 z" />
  <path
     id="path23"
     style="fill:url(#linearGradient40);fill-opacity:1;stroke-linejoin:round"
     d="m 48.770509,15.999997 a 2.0835132,2.0835132 0 0 0 -2.083984,2.083984 v 13.242188 a 2.0835132,2.0835132 0 0 0 2.083984,2.082031 h 29.300782 a 2.0835132,2.0835132 0 0 0 2.083984,-2.082031 V 18.083981 a 2.0835132,2.0835132 0 0 0 -2.083984,-2.083984 z" />
  <path
     id="path21"
     style="fill:url(#linearGradient42);fill-opacity:1;stroke-linejoin:round"
     d="m 16.33496,34.535153 a 2.0835132,2.0835132 0 0 0 -2.08398,2.083985 v 13.242187 a 2.0835132,2.0835132 0 0 0 2.08398,2.082031 h 29.300784 a 2.0835132,2.0835132 0 0 0 2.083984,-2.082031 V 36.619138 a 2.0835132,2.0835132 0 0 0 -2.083984,-2.083985 z" />
  <path
     id="path22"
     style="-inkscape-font-specification:'Andale Mono';fill:#990000;fill-opacity:1"
     d="m 28.93653,35.650388 -6.26172,6.515624 10.24502,5.777344 -0.0329,3.984144 19.354282,18.500231 6.259766,-6.515625 z" />
  <path
     id="path12"
     style="fill:url(#linearGradient28);fill-opacity:1;fill-rule:evenodd"
     d="m 44.74121,81.789059 -0.80859,0.658203 -0.008,0.0078 -0.79883,0.650391 c 0.0114,0.01399 0.0218,0.03076 0.0332,0.04492 L 18.79376,105.31053 c -1.04252,0.56725 -2.15212,1.20878 -3.35352,1.93555 l 0.54688,0.61719 0.83203,0.94336 c 4.96146,-3.00134 8.07151,-4.25272 10.27539,-4.35352 4.08909,-0.18703 9.48889,0.49747 13.37304,0.0508 2.52281,-0.29011 5.02286,-1.17957 6.937505,-2.91992 1.914645,-1.74035 3.17672,-4.344774 3.21875,-7.746087 0.0034,-0.282611 0.101963,-0.752594 0.126953,-1.322266 0.02499,-0.569672 -0.09829,-1.417554 -0.763672,-1.960938 -0.720836,-0.588677 -1.554128,-2.062991 -2.376953,-3.74414 -0.822825,-1.68115 -1.673422,-3.554124 -2.869143,-5.021485 z" />
  <path
     id="path18"
     style="-inkscape-font-specification:'Andale Mono';fill:#cc0000"
     d="m 75.875978,52.808591 -6.259766,6.515625 29.498047,28.263672 6.261721,-6.515626 z" />
  <path
     id="path16"
     style="fill:#a40000;fill-opacity:1;stroke-linejoin:round"
     d="m 87.250978,77.105466 a 2.0835132,2.0835132 0 0 0 -2.082031,2.082031 v 12.128906 a 2.0835132,2.0835132 0 0 0 2.082031,2.082031 h 24.414062 a 2.0835132,2.0835132 0 0 0 2.08398,-2.082031 V 79.187497 a 2.0835132,2.0835132 0 0 0 -2.08398,-2.082031 z" />
  <path
     id="path19"
     style="-inkscape-font-specification:'Andale Mono';fill:#cc0000"
     d="m 59.043947,22.835934 0.06836,30.271485 h 9.050782 l -0.07031,-30.271485 z" />
  <path
     id="path14"
     style="fill:#a40000;fill-opacity:1;stroke-linejoin:round"
     d="m 48.770509,11.999997 a 2.0835132,2.0835132 0 0 0 -2.083984,2.083984 v 13.242188 a 2.0835132,2.0835132 0 0 0 2.083984,2.082031 h 29.300782 a 2.0835132,2.0835132 0 0 0 2.083984,-2.082031 V 14.083981 a 2.0835132,2.0835132 0 0 0 -2.083984,-2.083984 z" />
  <path
     id="path17"
     style="-inkscape-font-specification:'Andale Mono';fill:#cc0000"
     d="m 72.506838,67.076169 -8.791016,2.199219 8.037109,33.330082 8.796875,-2.11329 z" />
  <path
     id="path20"
     style="-inkscape-font-specification:'Andale Mono';fill:#cc0000"
     d="m 28.93653,31.650388 -6.26172,6.515624 29.566402,28.261719 6.259766,-6.515625 z" />
  <path
     id="path13"
     style="fill:#a40000;fill-opacity:1;stroke-linejoin:round"
     d="m 16.33496,30.535153 a 2.0835132,2.0835132 0 0 0 -2.08398,2.083985 v 13.242187 a 2.0835132,2.0835132 0 0 0 2.08398,2.082031 h 29.300784 a 2.0835132,2.0835132 0 0 0 2.083984,-2.082031 V 32.619138 a 2.0835132,2.0835132 0 0 0 -2.083984,-2.083985 z" />
  <path
     id="path6"
     style="fill:#edd400;fill-rule:evenodd"
     d="m 44.74121,79.789059 -0.80859,0.658203 -0.008,0.0078 -0.79883,0.650391 c 0.0114,0.01399 0.0218,0.03076 0.0332,0.04492 L 18.79376,103.31053 c -1.04252,0.56725 -2.15212,1.20878 -3.35352,1.93555 l 0.54688,0.61719 0.83203,0.94336 c 4.96146,-3.00134 8.07151,-4.25272 10.27539,-4.35352 4.08909,-0.18703 9.48889,0.49747 13.37304,0.0508 2.52281,-0.29011 5.02286,-1.17957 6.937505,-2.91992 1.914645,-1.740342 3.17672,-4.344774 3.21875,-7.746087 0.0034,-0.282611 0.101963,-0.752594 0.126953,-1.322266 0.02499,-0.569672 -0.09829,-1.417554 -0.763672,-1.960938 -0.720836,-0.588677 -1.554128,-2.062991 -2.376953,-3.74414 -0.822825,-1.68115 -1.673422,-3.554124 -2.869143,-5.021485 z" />
  <path
     id="path8"
     style="fill:#fcec86;fill-rule:evenodd"
     d="m 32.98926,73.519528 c -2.54839,0.03849 -4.6683,0.878655 -6.2832,2.22461 -1.98759,1.656559 -3.21267,4.011955 -3.84766,6.470703 -0.97765,3.78554 -1.04426,9.227644 -1.79297,13.251953 -0.40352,2.168957 -1.96861,5.278756 -5.625,9.779296 l 0.68945,0.78125 0.68946,0.7793 c 1.27071,-1.56409 2.32557,-2.98734 3.20703,-4.31055 L 43.07715,81.605466 c 0.003,0.0031 0.005,0.0067 0.008,0.0098 l 0.76367,-0.708984 0.76368,-0.708985 c -1.26383,-1.359845 -2.69911,-2.262326 -3.91407,-3.078124 -1.21495,-0.815798 -2.18128,-1.541545 -2.71093,-2.41211 -0.44647,-0.73381 -1.27013,-0.973521 -1.83789,-1.027344 -0.56777,-0.05382 -1.04737,-0.01915 -1.32813,-0.05469 -0.63275,-0.08008 -1.24394,-0.11435 -1.83203,-0.105469 z" />
  <path
     id="path10"
     style="fill:#ac7f00;fill-opacity:1;fill-rule:evenodd"
     d="m 35.31934,86.181638 c -0.38706,-0.007 -0.75619,0.07606 -1.09961,0.197265 -0.91578,0.32322 -1.73164,0.938187 -2.47266,1.630859 -0.85352,0.797826 -1.25258,1.742638 -1.58594,2.621094 -0.32262,0.850175 -0.62007,1.679577 -1.18164,2.580078 -0.64591,0.603133 -3.96921,3.56013 -7.17578,6.402346 -3.26146,2.89087 -6.36328,5.63281 -6.36328,5.63281 l 1.37891,1.56055 c 0,0 3.10411,-2.74247 6.36719,-5.63477 3.26308,-2.8923 6.63063,-5.88027 7.3457,-6.554686 0.25628,-0.241792 1.15991,-0.613884 2.19531,-0.966796 1.0354,-0.352912 2.21272,-0.723929 3.13281,-1.583985 0.59089,-0.552327 1.15987,-1.252619 1.5,-2.095703 0.34014,-0.843084 0.40906,-1.967721 -0.24609,-2.859375 -0.34232,-0.465891 -0.87118,-0.793692 -1.40234,-0.890625 -0.13279,-0.02423 -0.26356,-0.03673 -0.39258,-0.03906 z" />
  <path
     id="path1"
     style="fill:url(#linearGradient3);fill-rule:evenodd"
     d="m 107.62598,23.019528 c -0.47109,0.01174 -0.96599,0.103772 -1.50391,0.220703 -1.07584,0.233863 -2.32,0.648922 -3.70117,1.191407 -2.762342,1.08497 -6.055945,2.68086 -9.287109,4.355468 -3.231165,1.674609 -6.396443,3.427474 -8.869141,4.822266 -2.472698,1.394791 -4.330386,2.470445 -4.669922,2.646484 -1.096268,0.568399 -6.587841,3.755675 -12.798828,7.8125 -6.210987,4.056825 -12.977951,8.854443 -16.380859,12.708985 -3.229874,3.658552 -5.189888,5.911697 -6.478511,8.367187 -1.28862,2.45549 -1.82454,5.019175 -2.26758,9.083984 l -0.0449,0.410157 0.24609,0.328125 c 2.23013,2.96604 5.981088,7.915432 9.623046,10.867187 l 0.271484,0.222657 0.351562,0.0098 c 8.364498,0.262018 10.563864,-0.808085 18.876954,-6.046875 4.374787,-2.756922 10.180903,-8.644262 15.152343,-14.091797 4.971441,-5.447534 8.956095,-10.313866 9.6875,-11.300781 0.24605,-0.331995 1.538228,-1.953542 3.240235,-4.140625 1.702006,-2.187083 3.851266,-4.992085 5.951176,-7.875 2.0999,-2.882915 4.14915,-5.840431 5.6582,-8.361328 0.75452,-1.260449 1.37484,-2.407871 1.80469,-3.412109 0.42984,-1.004237 0.7255,-1.824614 0.60546,-2.726563 -0.19983,-1.501486 -0.95575,-2.386122 -1.39648,-2.839844 l 0.0117,-0.0098 c 0,0 -0.12856,-0.121988 -0.15039,-0.146485 -0.0674,-0.06423 -0.25586,-0.287109 -0.25586,-0.287109 l -0.0195,0.01953 c -0.4025,-0.401073 -1.09257,-1.019468 -2.29297,-1.568359 -0.44469,-0.203339 -0.89219,-0.271507 -1.36328,-0.259766 z" />
  <path
     id="path4"
     style="fill:url(#linearGradient12);fill-rule:evenodd"
     d="m 39.94434,70.822262 c -0.58799,0.01604 -1.1393,0.142546 -1.63867,0.392579 -0.99876,0.500065 -1.67099,1.413061 -2.15625,2.496093 -0.35286,0.787486 -0.11077,1.431402 0.17382,1.992188 0.24348,0.479747 0.5759,0.93412 1.10743,1.236328 -0.0432,-0.05442 -0.0856,-0.112571 -0.12891,-0.166016 l 0.41406,0.306641 c -0.10181,-0.04167 -0.19537,-0.08958 -0.28515,-0.140625 2.51956,3.176338 4.78099,8.003194 10.699214,13.259766 -0.04351,-0.110431 -0.08355,-0.223829 -0.113281,-0.345704 l 0.324219,0.53711 c -0.07311,-0.06409 -0.138918,-0.127438 -0.210938,-0.191406 0.214802,0.545104 0.583135,0.958715 0.998047,1.289062 0.498968,0.397271 1.077219,0.758638 1.910157,0.601563 1.181365,-0.222844 2.232057,-0.653989 2.957031,-1.501953 0.724974,-0.847965 0.999582,-2.019663 0.904297,-3.351563 -0.07134,-0.997586 -0.589261,-1.76028 -1.113282,-2.234375 -0.26201,-0.237048 -0.526411,-0.412041 -0.773437,-0.541016 -0.08932,-0.04663 -0.189145,-0.05791 -0.271485,-0.09375 -3.718637,-3.598112 -6.919698,-8.065525 -8.560542,-10.511718 0.009,0.130126 0.007,0.266339 -0.008,0.414062 l -0.16992,-0.677734 c 0.0525,0.0789 0.12152,0.179862 0.17774,0.263672 -0.0272,-0.405528 -0.16666,-0.753068 -0.42579,-1.214844 -0.34229,-0.609952 -0.98518,-1.269673 -1.94726,-1.550781 -0.64987,-0.189884 -1.2753,-0.283619 -1.86328,-0.267579 z" />
  <path
     id="path25"
     style="fill:url(#linearGradient32);fill-opacity:1;stroke-linejoin:round"
     d="m 62.450197,99.70703 a 2.0835132,2.0835132 0 0 0 -2.083985,2.08203 v 12.12891 A 2.0835132,2.0835132 0 0 0 62.450197,116 h 24.414062 a 2.0835132,2.0835132 0 0 0 2.082032,-2.08203 v -12.12891 a 2.0835132,2.0835132 0 0 0 -2.082032,-2.08203 z" />
  <path
     id="path15"
     style="fill:#a40000;fill-opacity:1;stroke-linejoin:round"
     d="m 62.450197,95.707028 a 2.0835132,2.0835132 0 0 0 -2.083985,2.082031 V 109.91797 A 2.0835132,2.0835132 0 0 0 62.450197,112 h 24.414062 a 2.0835132,2.0835132 0 0 0 2.082032,-2.08203 V 97.789059 a 2.0835132,2.0835132 0 0 0 -2.082032,-2.082031 z" />
  <path
     id="rect12"
     style="fill:#7a5b00;fill-opacity:1;stroke-width:0.908736"
     d="m 15.44043,105.24609 1.37872,1.56055 v 1.99999 l -1.37891,-1.56055 z" />
</svg>
