<?xml version="1.0" encoding="UTF-8" standalone="no"?>
<svg
   height="16px"
   viewBox="0 0 16 16"
   width="16px"
   version="1.1"
   id="svg15572"
   xmlns="http://www.w3.org/2000/svg"
   xmlns:svg="http://www.w3.org/2000/svg">
  <defs
     id="defs15576" />
  <g
     id="path18262"
     style="stroke:#000000;stroke-width:0.4"
     transform="matrix(0.94247226,0,0,0.94247226,80.126762,19.699116)">
    <g
       id="path18272">
      <path
         style="color:#000000;fill:#000000;stroke:none;stroke-linecap:round;-inkscape-stroke:none"
         d="m -75.246911,-18.001663 c -0.617414,0.194079 -0.542151,0.957918 -0.74207,1.455923 -0.809083,3.019806 -1.618165,6.039612 -2.427248,9.0594176 -0.123704,1.0830633 1.37642,0.5719722 1.210166,-0.2594406 0.854566,-3.188899 1.709132,-6.377797 2.563698,-9.566696 0.114662,-0.359362 -0.234023,-0.754614 -0.604546,-0.689204 z m -4.732954,1.201136 c -0.648474,0.352672 -1.07747,0.984565 -1.620567,1.47188 -0.976288,0.976418 -1.952577,1.952837 -2.928865,2.929256 1.415341,1.415341 2.830682,2.8306821 4.246023,4.2460231 0.746732,0.6645562 1.315704,-0.7734202 0.494166,-1.0643087 -1.060744,-1.0605714 -2.121489,-2.1211434 -3.182234,-3.1817144 1.178323,-1.191041 2.382626,-2.35636 3.544622,-3.563531 0.263624,-0.36921 -0.110674,-0.938805 -0.553145,-0.837605 z m 6.728409,0 c -0.842505,0.216517 -0.263025,1.155692 0.209653,1.447153 0.984661,0.984661 1.969322,1.969322 2.953983,2.953983 -1.155682,1.155682 -2.311363,2.311364 -3.467045,3.4670459 -0.648149,0.8759845 0.906054,1.1831272 1.177732,0.3802761 1.282612,-1.2824407 2.565224,-2.564881 3.847836,-3.847322 -1.429321,-1.420196 -2.842553,-2.860801 -4.281928,-4.268242 -0.133133,-0.114129 -0.270166,-0.13163 -0.440231,-0.132894 z"
         id="path18278" />
      <path
         style="color:#000000;fill:#000000;stroke:none;stroke-linecap:round;-inkscape-stroke:none"
         d="m -75.277344,-18.199219 c -0.730227,0.189302 -0.712771,1.046788 -0.913979,1.632894 -0.806124,3.023697 -1.627083,6.045442 -2.423941,9.0703589 -0.18345,0.9307534 1.141431,1.1322753 1.465524,0.3354088 0.168211,-0.4025222 0.08752,-0.4851637 0.232565,-0.892929 0.828034,-3.0996057 1.665777,-6.1968087 2.487734,-9.2979187 0.08201,-0.474438 -0.371958,-0.933214 -0.847903,-0.847814 z m 0.07031,0.404297 c 0.538792,0.0189 0.351907,0.586832 0.244329,0.908146 -0.819148,3.07654 -1.658523,6.150416 -2.465032,9.228619 0.0644,0.7267082 -1.108721,0.7855952 -0.733505,-0.0068 0.869207,-3.252414 1.745461,-6.504195 2.610498,-9.756874 0.04635,-0.169877 0.162666,-0.332492 0.34371,-0.373091 z m 1.935547,0.792969 c -1.007521,0.153443 -0.553253,1.443574 3e-6,1.701207 0.966797,0.967448 1.933593,1.934895 2.90039,2.902343 -1.115724,1.120934 -2.24315,2.232732 -3.351563,3.3593752 -0.623957,0.7146163 0.424406,1.5485287 1.102417,1.0216699 0.347149,-0.264845 0.318011,-0.3755725 0.647743,-0.6564404 1.242134,-1.2415349 2.484268,-2.4830697 3.726402,-3.7246047 -1.481918,-1.473373 -2.94763,-2.967325 -4.439659,-4.427859 -0.178962,-0.148001 -0.359312,-0.17494 -0.585733,-0.175691 z m -6.746094,0.0059 c -0.699985,0.313103 -1.127272,0.993992 -1.689543,1.492307 -1.035124,1.035124 -2.070247,2.070247 -3.105371,3.105371 1.46999,1.46738 2.935278,2.9404969 4.408204,4.4042949 0.695871,0.6850909 1.671411,-0.4501049 1.039955,-1.1221176 -0.243307,-0.202234 -0.328786,-0.2787772 -0.60646,-0.5654804 -0.906217,-0.9062179 -1.812435,-1.8124349 -2.718652,-2.7186529 1.140877,-1.151333 2.307919,-2.277587 3.42777,-3.449218 0.364205,-0.504417 -0.145809,-1.287458 -0.755903,-1.146504 z m 6.802734,0.398438 c 0.393233,0.01993 0.585294,0.445938 0.871103,0.666286 1.177081,1.177642 2.354161,2.355285 3.531241,3.532927 -1.264699,1.272537 -2.54716,2.531505 -3.800786,3.8125007 -0.311056,0.6621446 -1.353155,0.1207091 -0.628829,-0.3769508 1.145808,-1.1451829 2.291615,-2.2903669 3.437423,-3.4355499 -1.16181,-1.162148 -2.325709,-2.325645 -3.48696,-3.485987 -0.202777,-0.227347 -0.351403,-0.629925 0.07681,-0.713226 z m -6.716797,0.0098 c 0.974907,0.291813 -0.347665,1.121293 -0.642313,1.510226 -0.890147,0.896245 -1.79341,1.77939 -2.679952,2.679227 1.146697,1.136233 2.276165,2.297064 3.433597,3.4179694 0.63668,0.3467153 -0.120227,1.185416 -0.488331,0.5214119 -1.312499,-1.3131271 -2.624999,-2.6262543 -3.937498,-3.9393813 1.34324,-1.33333 2.663926,-2.691052 4.02739,-4.002586 0.08907,-0.07168 0.184256,-0.136512 0.287107,-0.186867 z"
         id="path18280" />
    </g>
    <g
       id="path18274">
      <path
         style="color:#000000;fill:#000000;stroke:none;stroke-linecap:round;-inkscape-stroke:none"
         d="m -75.265625,-18.146484 c -0.663545,0.106434 -0.645815,0.905119 -0.822021,1.407482 -0.829328,3.100763 -1.663954,6.200172 -2.489972,9.3017814 -0.178159,0.9379301 1.466838,1.028647 1.41925,0.076943 0.890709,-3.3341894 1.791076,-6.6660074 2.675745,-10.0016794 0.06924,-0.431644 -0.348641,-0.858512 -0.783002,-0.784527 z m 0.03711,0.289062 c 0.951076,0.280865 0.01184,1.518191 -0.006,2.187928 -0.760773,2.83658 -1.510761,5.6760785 -2.286825,8.5085359 -0.501689,0.6446938 -1.009429,-0.3511772 -0.617464,-0.7981244 0.857458,-3.2004765 1.714917,-6.4009535 2.572375,-9.6014305 0.03883,-0.155166 0.178963,-0.278446 0.33789,-0.296909 z m -4.773437,0.914063 c -0.597797,0.231321 -0.940871,0.820291 -1.414503,1.225512 -1.105973,1.106469 -2.211946,2.212939 -3.317919,3.319409 1.495323,1.4832 2.96777,2.9920835 4.477473,4.4591401 0.777287,0.4926727 1.511011,-0.8656833 0.683518,-1.2687511 -1.06408,-1.063463 -2.128161,-2.126926 -3.192241,-3.190389 1.160251,-1.196924 2.401064,-2.326399 3.509163,-3.567235 0.237898,-0.470601 -0.224084,-1.090908 -0.745491,-0.977686 z m 6.728516,0 c -0.763235,0.09968 -0.693277,1.176108 -0.09845,1.466003 1.026306,1.026306 2.052612,2.052612 3.078918,3.078918 -1.14808,1.160639 -2.32283,2.29488 -3.454019,3.4722019 -0.572479,0.7971405 0.883361,1.5435603 1.274491,0.6742138 1.382759,-1.3821386 2.765519,-2.7642767 4.148278,-4.1464157 -1.471678,-1.467052 -2.934117,-2.94337 -4.411568,-4.404628 -0.149323,-0.118793 -0.349304,-0.171108 -0.53765,-0.140293 z m -6.683594,0.287109 c 0.786975,0.05426 0.312093,0.907634 -0.110611,1.14772 -1.036697,1.036697 -2.073395,2.073395 -3.110092,3.110092 1.205622,1.212685 2.426747,2.4099513 3.622641,3.6323 0.307678,0.7562098 -0.80664,0.7004143 -0.997949,0.1370986 -1.257059,-1.2564662 -2.514118,-2.5129326 -3.771177,-3.7693986 1.406692,-1.394436 2.790811,-2.815304 4.21159,-4.193246 0.04104,-0.04199 0.104679,-0.04171 0.155598,-0.06457 z m 6.728515,0 c 0.538182,0.08744 0.810388,0.645356 1.21048,0.974151 1.094554,1.094554 2.189107,2.189107 3.283661,3.283661 -1.404716,1.396375 -2.794117,2.8081501 -4.208387,4.1949075 -0.75624,0.3059526 -0.697355,-0.808912 -0.135142,-0.9998156 1.065031,-1.0650309 2.130061,-2.1300609 3.195092,-3.1950919 -1.205026,-1.213315 -2.425369,-2.411411 -3.620782,-3.634265 -0.168028,-0.227483 -0.0054,-0.593455 0.275078,-0.623547 z"
         id="path18284" />
      <path
         style="color:#000000;fill:#000000;stroke:none;stroke-linecap:round;-inkscape-stroke:none"
         d="m -75.294922,-18.34375 c -0.768141,0.116566 -0.817016,0.988129 -0.995067,1.58687 -0.826903,3.094787 -1.661558,6.18761 -2.483615,9.2836249 -0.203293,0.877683 1.116182,1.3622687 1.616482,0.679984 0.210421,-0.3385006 0.177493,-0.5649788 0.310093,-0.955662 0.852506,-3.1948119 1.716989,-6.3866699 2.562,-9.5833299 0.09525,-0.563552 -0.444596,-1.109505 -1.009893,-1.011487 z m 0.08789,0.6875 c 0.533078,0.375292 -0.230382,1.348882 -0.219748,1.928455 -0.756832,2.822385 -1.502519,5.647784 -2.274389,8.4661163 -0.510729,0.3630812 -0.326972,-0.5239489 -0.199408,-0.8124228 0.842339,-3.1458975 1.686057,-6.2916135 2.527533,-9.4376245 l 0.06284,-0.09473 0.103178,-0.0498 z m -4.832031,0.515625 c -0.679022,0.223957 -1.051124,0.885618 -1.57232,1.334248 -1.135417,1.136007 -2.270834,2.272014 -3.406251,3.408021 1.522678,1.519271 3.039941,3.0441066 4.566004,4.559901 0.657687,0.6173834 1.737677,-0.2834731 1.398978,-1.0579251 -0.187841,-0.3510813 -0.400214,-0.436311 -0.672345,-0.745977 -0.91981,-0.9186659 -1.839621,-1.8373329 -2.759431,-2.7559989 1.110344,-1.121126 2.247572,-2.217968 3.335926,-3.359407 0.452662,-0.599204 -0.159091,-1.545699 -0.890561,-1.382862 z m 6.736328,0.002 c -0.965111,0.07146 -0.850841,1.521128 -0.269512,1.744136 0.999343,0.998698 1.998686,1.997397 2.998029,2.996095 -1.110388,1.120585 -2.247281,2.215958 -3.335926,3.3574229 -0.492862,0.6194075 0.199123,1.5080227 0.916015,1.3808594 0.471997,-0.092745 0.529744,-0.3671621 0.838073,-0.6269033 1.371683,-1.3704597 2.743366,-2.740919 4.115049,-4.111379 -1.553191,-1.532708 -3.068586,-3.108571 -4.645621,-4.614138 -0.181029,-0.115191 -0.404455,-0.1601 -0.616107,-0.126093 z m -6.63086,0.683594 c 0.541535,0.141199 -0.130102,0.652446 -0.341874,0.871171 -1.061824,1.061824 -2.123647,2.123647 -3.185471,3.185471 1.24032,1.247956 2.497154,2.4794712 3.728515,3.7363286 0.06236,0.6259775 -0.615091,0.025045 -0.801004,-0.230393 -1.169847,-1.1686456 -2.339694,-2.3372906 -3.509541,-3.5059356 1.354647,-1.343546 2.689912,-2.709446 4.056641,-4.039057 l 0.03931,-0.01311 z m 6.72461,0.0078 c 0.474021,0.164785 0.660922,0.579128 1.019689,0.876941 1.05724,1.056643 2.114479,2.113286 3.171718,3.169929 -1.344524,1.338414 -2.675087,2.6908601 -4.029297,4.0195316 -0.625743,0.059478 -0.02307,-0.6163511 0.232499,-0.8028095 1.07159,-1.0715901 2.143179,-2.1431791 3.214769,-3.2147691 -1.243561,-1.253576 -2.508132,-2.48841 -3.740235,-3.751999 -0.07104,-0.109549 0.0096,-0.268803 0.130857,-0.296824 z m -6.265625,0.423829 c 0.02888,0.06226 -0.148317,0.148737 0,0 z m 6.027343,7.0781245 c -0.17664,0.3553875 -0.312303,0.4634094 -0.06939,0.070268 z m -6.884765,0.6679687 c 0.19764,0.1826655 0.731449,0.3306581 0.185756,0.1741099 -0.06803,-0.051517 -0.125199,-0.114623 -0.185756,-0.1741099 z m 2,0.6933594 c -0.0561,0.2617227 0.07521,0.7885648 -0.05834,0.2425372 0.0093,-0.083718 0.03811,-0.1614323 0.05834,-0.2425372 z"
         id="path18286" />
    </g>
  </g>
</svg>
