<?xml version="1.0" encoding="UTF-8" standalone="no"?>
<svg
   version="1.1"
   viewBox="0 0 16 16"
   id="svg1"
   width="16"
   height="16"
   xmlns="http://www.w3.org/2000/svg"
   xmlns:svg="http://www.w3.org/2000/svg">
  <defs
     id="defs1" />
  <path
     d="M 7.89453,0 C 3.51563,0 0,3.625 0,8 c 0,4.417969 3.58203,8 8,8 4.41797,0 8,-3.582031 8,-8 C 16,3.582031 12.41797,0 8,0 7.9648,0 7.9297,0 7.89453,0 Z M 5.92578,2.460938 c 0.23438,0.01953 0.4375,0.171874 0.52344,0.390624 0.0117,0.226563 -0.16016,0.421876 -0.38672,0.4375 -0.22656,0 -0.41016,0.183594 -0.41016,0.410157 v 1.183593 c 0,0.441407 -0.35546,0.800782 -0.79687,0.800782 -0.44141,0 -0.79688,0.355468 -0.80078,0.796875 0,0.4375 -0.35547,0.796875 -0.79688,0.796875 -0.4414,0 -0.79687,0.355468 -0.79687,0.796875 0,0.441406 0.35547,0.796875 0.79687,0.796875 0.44141,0 0.80078,0.355468 0.79688,0.800781 v 2.855469 C 2.77344,11.390625 2.03906,9.761719 2.03906,8.050781 c 0,-1.492187 0.5625,-2.929687 1.56641,-4.027343 l 0.0547,-0.05078 c 0.23437,-0.25 0.48828,-0.480468 0.76172,-0.683594 l 0.0391,-0.03125 C 4.91021,2.925783 5.40239,2.656252 5.92974,2.46094 Z m 4.53125,0.433593 h 0.59375 c 0.48047,0.28125 0.91797,0.628907 1.30469,1.035157 -0.0352,0.0078 -0.0703,0.01172 -0.10547,0.01172 h -1.79297 c -0.28906,0 -0.51953,-0.234375 -0.51953,-0.523437 0,-0.292969 0.23047,-0.523438 0.51953,-0.523438 z M 8.40625,3.765625 c 0.32031,0 0.57812,0.257813 0.57812,0.582031 V 4.980469 C 8.98437,5.300781 8.72656,5.5625 8.40625,5.5625 8.08594,5.5625 7.82422,5.300781 7.82422,4.980469 V 4.347656 c 0,-0.324218 0.26172,-0.582031 0.58203,-0.582031 z M 10.69531,4.4375 h 2.08594 c 0.76172,1 1.1875,2.21875 1.21484,3.476562 -0.125,0.105469 -0.27734,0.164063 -0.4414,0.167969 l -1.12891,-0.0078 c -0.67187,0 -1.21484,0.546875 -1.21875,1.21875 v 1.347656 c 0.004,0.441406 -0.35547,0.796875 -0.79297,0.796875 -0.44531,0.0039 -0.80078,-0.355469 -0.80078,-0.796875 V 9.769541 C 9.70308,9.457041 9.52348,9.132822 9.21484,9.039072 8.8125,9.039072 8.48828,8.714854 8.48828,8.31251 V 7.074229 C 8.44918,6.601572 8.80469,6.191416 9.27344,6.15626 c 0.39453,0 0.71093,-0.316406 0.71484,-0.710938 V 5.144541 c 0,-0.390625 0.31641,-0.707031 0.70703,-0.710937 z m 0,0"
     fill="#222222"
     id="path1"
     style="fill:#000000;fill-opacity:1;stroke-width:1" />
</svg>
