<?xml version="1.0" encoding="UTF-8" standalone="no"?>
<svg
   height="16"
   viewBox="0 0 16 16"
   width="16"
   version="1.1"
   id="svg4"
   xmlns="http://www.w3.org/2000/svg"
   xmlns:svg="http://www.w3.org/2000/svg">
  <defs
     id="defs8" />
  <path
     id="path6-7"
     style="fill:#000000;stroke-width:0.451095"
     d="m 9.0895578,0.736582 c -0.1312892,1.3e-4 -0.2631938,0.0058 -0.394092,0.0018 H 6.7571736 6.7566966 C 6.2764617,0.727302 5.8098351,1.072151 5.7073984,1.546611 5.6431684,1.811143 5.6773964,2.084816 5.6685244,2.354232 V 2.914708 H 2.3281343 c -0.6953108,0 -1.307331,0.375231 -1.7069369,0.898706 C 0.2215915,4.336901 0,5.016492 0,5.754145 v 7.40643 C 0,13.89823 0.2215867,14.578428 0.6211974,15.101902 1.0208033,15.625376 1.6328235,15.999999 2.3281343,16 H 13.672476 c 0.695301,0 1.306716,-0.374624 1.706322,-0.898098 C 15.778409,14.578428 16,13.89823 16,13.160575 V 5.754154 C 16,5.016501 15.778409,4.33691 15.378798,3.813435 14.979192,3.28996 14.367782,2.914729 13.672476,2.914729 h -3.339789 c -0.0033,-0.399168 0.0059,-0.798554 -0.0055,-1.197465 C 10.293479,1.259161 9.9355711,0.847961 9.4813317,0.766337 9.3520028,0.741586 9.220952,0.7364537 9.0896628,0.736582 Z M 6.8118214,1.6699 c 0.030908,-2.78e-4 0.061807,0.0011 0.089267,0.0012 H 9.2444003 C 9.3931948,1.667 9.4104949,1.827339 9.3998534,1.939497 V 2.914714 H 6.6011146 c 0.00191,-0.3734 -0.00334,-0.747183 0.00382,-1.120346 C 6.6246336,1.686343 6.7193244,1.670718 6.812002,1.669885 Z M 1.353398,11.599993 H 14.64696 v 1.353524 H 8.7009225 c 9.54e-4,0.0139 0.00191,0.02771 0.00191,0.0419 V 13.1199 c 0,0.293972 -0.2367452,0.530722 -0.5307187,0.530722 H 7.8284177 c -0.2939735,0 -0.5307235,-0.23675 -0.5307235,-0.530722 v -0.124483 c 0,-0.0142 4.77e-4,-0.02798 0.00191,-0.0419 H 1.3535717 Z" />
</svg>
