<?xml version="1.0" encoding="UTF-8" standalone="no"?>
<svg
   height="16px"
   viewBox="0 0 16 16"
   width="16px"
   version="1.1"
   id="svg15572"
   xmlns="http://www.w3.org/2000/svg"
   xmlns:svg="http://www.w3.org/2000/svg">
  <defs
     id="defs15576" />
  <path
     id="path2"
     style="fill:#000000"
     d="M 7,3 V 3.929688 C 5.535156,4.191406 4.679688,5.0625 4.679688,6.363281 c 0,1.1875 0.726562,1.984375 2.042968,2.214844 L 8.5,8.890625 c 0.804688,0.136719 1.117188,0.355469 1.117188,0.808594 0,0.496093 -0.542969,0.785156 -1.453126,0.785156 -0.933593,0 -1.707031,-0.324219 -2.6875,-1.121094 L 4.367188,10.804688 C 5.109375,11.4375 6.039062,11.871094 7,12.058594 V 13 h 2 v -0.921875 c 1.605469,-0.265625 2.558594,-1.199219 2.558594,-2.574219 0,-1.25 -0.820313,-2.042968 -2.378906,-2.296875 L 7.507812,6.929688 C 6.824219,6.8125 6.550781,6.613281 6.550781,6.210938 c 0,-0.4375 0.492188,-0.703126 1.300781,-0.703126 0.855469,0 1.628907,0.300782 2.484376,0.957032 L 11.382812,5 C 10.738281,4.480469 9.882812,4.109375 9,3.945312 V 3 Z M 7,3 M 8,0 C 3.582031,0 0,3.582031 0,8 c 0,4.417969 3.582031,8 8,8 4.417969,0 8,-3.582031 8,-8 C 16,3.582031 12.417969,0 8,0 Z m 0,2 c 3.3125,0 6,2.6875 6,6 0,3.3125 -2.6875,6 -6,6 C 4.6875,14 2,11.3125 2,8 2,4.6875 4.6875,2 8,2 Z m 0,0" />
</svg>
