<?xml version="1.0" encoding="UTF-8" standalone="no"?>
<svg
   viewBox="0 0 16 16"
   version="1.1"
   id="svg1"
   width="16"
   height="16"
   xmlns="http://www.w3.org/2000/svg"
   xmlns:svg="http://www.w3.org/2000/svg">
  <defs
     id="defs1">
    <style
       id="style1">.cls-1{fill:#fff;}</style>
  </defs>
  <path
     class="cls-1"
     d="m 15.734224,6.3953737 -0.0225,-0.057486 -2.177803,-5.68361719 A 0.56736197,0.56736197 0 0 0 13.309809,0.38433621 0.58319143,0.58319143 0 0 0 12.643305,0.42016061 0.58319143,0.58319143 0 0 0 12.450018,0.7134227 L 10.979544,5.2123282 H 5.0251625 L 3.5546868,0.71342275 A 0.57152762,0.57152762 0 0 0 3.3614005,0.41932751 0.58319143,0.58319143 0 0 0 2.694896,0.38350305 0.57236075,0.57236075 0 0 0 2.4707839,0.65343735 L 0.28881486,6.3345551 0.2671548,6.3920412 a 4.0440158,4.0440158 0 0 0 1.3413403,4.6738628 l 0.0075,0.0059 0.019995,0.01416 3.3175264,2.484396 1.6412673,1.242199 0.999754,0.754788 a 0.6723364,0.6723364 0 0 0 0.8131355,0 l 0.9997568,-0.754817 1.6412679,-1.242197 3.33752,-2.499393 0.0084,-0.0066 a 4.0456822,4.0456822 0 0 0 1.339673,-4.668864 z"
     id="path1"
     style="fill:#000000;fill-opacity:1;stroke-width:0.0833131" />
</svg>
