<?xml version="1.0" encoding="UTF-8" standalone="no"?>
<svg
   height="16px"
   viewBox="0 0 16 16"
   width="16px"
   version="1.1"
   id="svg15572"
   xmlns="http://www.w3.org/2000/svg"
   xmlns:svg="http://www.w3.org/2000/svg">
  <defs
     id="defs15576" />
  <g
     fill="#222222"
     id="g2"
     transform="matrix(1.0666667,0,0,1.0666667,-0.01666692,-0.5291672)"
     style="fill:#000000">
    <path
       d="m 0.015625,0.996094 v 2 h 2 v 2.46875 l 3,2.5 v 0.0625 l -3,2.5 v 2.46875 h -2 v 2 h 15 v -2 h -2 v -2.46875 l -3,-2.5 v -0.0625 l 3,-2.5 v -2.46875 h 2 v -2 z m 4,2 h 7 v 1.53125 l -3,2.5 v 1.9375 l 3,2.5 v 1.53125 h -1 l -2.5,-2.1875 -2.5,2.1875 h -1 v -1.53125 l 3,-2.5 v -1.9375 l -3,-2.5 z m 0,0"
       id="path1-9"
       style="fill:#000000" />
    <path
       d="m 6.015625,4.996094 h 3 l -1.5,1.3125 z m 0,0"
       id="path2"
       style="fill:#000000" />
  </g>
</svg>
