<?xml version="1.0" encoding="UTF-8" standalone="no"?>
<svg
   height="16"
   viewBox="0 0 16 16"
   width="16"
   version="1.1"
   id="svg4"
   xmlns="http://www.w3.org/2000/svg"
   xmlns:svg="http://www.w3.org/2000/svg">
  <defs
     id="defs8" />
  <path
     id="path5"
     style="fill:#000000;fill-opacity:1;stroke:none;stroke-width:0.321474;stroke-linecap:round;stroke-linejoin:round"
     d="M 10.330392,5.8464072 A 1.4501789,1.5897411 0 0 0 8.8802378,7.436012 1.4501789,1.5897411 0 0 0 10.330392,9.0259352 1.4501789,1.5897411 0 0 0 11.780547,7.436012 1.4501789,1.5897411 0 0 0 10.330392,5.8464072 Z M 10.33008,5.9471086 A 0.6225982,0.62261715 0 0 1 10.952663,6.5697168 0.6225982,0.62261715 0 0 1 10.33008,7.1926499 0.6225982,0.62261715 0 0 1 9.7074965,6.5697168 0.6225982,0.62261715 0 0 1 10.33008,5.9471086 Z M 1.3405281,5.5791674 a 1.9587528,1.5190002 78.561234 0 0 -0.19723,0.024171 1.9587528,1.5190002 78.561234 0 0 -1.091595,2.2286707 1.9587528,1.5190002 78.561234 0 0 1.882671,1.6079924 1.9587528,1.5190002 78.561234 0 0 1.091276,-2.2286707 1.9587528,1.5190002 78.561234 0 0 -1.685128,-1.6322012 z m 0.01362,0.1216623 a 0.82684467,0.82682406 89.982015 0 1 0.826909,0.8269215 0.82684467,0.82682406 89.982015 0 1 -0.82689,0.826909 0.82684467,0.82682406 89.982015 0 1 -0.826909,-0.8269153 0.82684467,0.82682406 89.982015 0 1 0.82689,-0.8269152 z M 6.2180862,6.11301 A 1.0733835,1.3049305 0 0 0 5.1446172,7.4179366 1.0733835,1.3049305 0 0 0 6.2180862,8.7228631 1.0733835,1.3049305 0 0 0 7.2913053,7.4179366 1.0733835,1.3049305 0 0 0 6.2180862,6.11301 Z m 0.00625,0.094893 A 0.48902848,0.48904065 0 0 1 6.7133172,6.6968879 0.48902848,0.48904065 0 0 1 6.224332,7.1858669 0.48902848,0.48904065 0 0 1 5.7350345,6.6968879 0.48902848,0.48904065 0 0 1 6.224332,6.2079028 Z M 15.414552,1.1615243 c -0.05434,0.00625 -0.118671,0.037163 -0.184939,0.1223244 -1.503431,2.2566395 -3.693028,3.268431 -5.2910212,3.6810985 A 2.3421238,2.3907664 0 0 1 12.105891,7.3485393 2.3421238,2.3907664 0 0 1 9.7636465,9.739239 2.3421238,2.3907664 0 0 1 7.5136525,8.0092345 1.7840205,1.9989423 0 0 1 5.8330274,9.3428856 1.7840205,1.9989423 0 0 1 4.049159,7.3436987 1.7840205,1.9989423 0 0 1 5.8330274,5.3448367 1.7840205,1.9989423 0 0 1 7.5107794,6.7023718 2.3421238,2.3907664 0 0 1 8.7627539,5.1892658 C 7.5049708,5.3530562 6.8364183,5.1729018 5.8730631,4.7567678 5.1903326,4.3834552 4.7248317,3.9749911 4.2189204,3.1842704 4.1951863,3.1474201 4.1464689,3.1268713 4.113366,3.1674691 3.9925721,3.328299 3.4662991,6.982603 3.4594291,7.3185031 c -0.02186,1.0884589 -0.470748,2.3954528 -1.820344,2.4410473 1.243167,2.5321166 3.9461082,3.6430986 7.0581502,3.5975036 0.9354988,0.0065 2.2187027,-0.220946 3.4470677,-0.828533 -0.401481,-0.2519 -0.856614,-0.542755 -1.045113,-0.663593 -1.87e-4,-1.44e-4 -4.37e-4,-1.81e-4 -6.24e-4,-3.25e-4 -0.897462,0.52548 -1.9563161,0.726233 -3.1156026,0.679089 -1.4778858,-0.06033 -1.2316131,-0.487536 -0.9072677,-0.44444 2.3832797,0.337618 3.8808403,-0.416252 4.8775473,-1.69805 -0.111862,-0.07444 -0.252206,-0.168344 -0.371189,-0.251107 -0.109052,-0.07582 0.02124,-0.1943884 0.256953,-0.2026953 0.0087,-3.935e-4 0.01749,-5.934e-4 0.02686,-6.246e-4 0.136659,-6.246e-4 0.304921,0.0376 0.480866,0.1378139 0.505037,0.288557 0.522525,0.643594 0.356699,0.72073 -0.05309,0.02455 -0.17532,-0.0321 -0.292429,-0.100702 -0.170074,0.21931 -0.352889,0.41436 -0.545136,0.591298 h 0.0062 c 0.445515,0.193333 1.04555,0.456195 1.336543,0.593559 0.79503,-0.5789 1.50874,-1.35706 2.011466,-2.382948 1.453277,-2.9655774 0.434897,-8.1175851 0.409289,-8.1926599 -0.02561,-0.075075 -0.09956,-0.1413803 -0.161392,-0.1513737 h -0.05055 z M 14.474634,11.815665 c -0.417196,0 -0.79451,0.170413 -1.066406,0.445313 -0.02524,-0.0041 -0.04892,-0.0096 -0.07031,-0.02149 -0.09699,-0.05408 -0.130627,-0.211966 -0.257813,-0.21875 h -0.002 -0.002 c -0.01773,-4.6e-5 -0.03684,0.0017 -0.05859,0.0078 -0.185251,0.05309 -0.429481,0.49028 -0.376953,0.675781 0.05246,0.185438 0.237496,0.101855 0.349609,0.164063 0.01605,0.0089 0.02974,0.02167 0.04297,0.03516 -0.0374,0.131049 -0.05859,0.269056 -0.05859,0.412109 0,0.828426 0.671573,1.5 1.5,1.5 h 0.763672 c 0.01741,0.03166 0.03714,0.02918 0.05859,0 h 0.677734 v -1.5 c 0,-0.828427 -0.671573,-1.5 -1.5,-1.5 z" />
</svg>
