<?xml version="1.0" encoding="UTF-8" standalone="no"?>
<svg
   height="16"
   viewBox="0 0 16 16"
   width="16"
   version="1.1"
   id="svg4"
   xmlns="http://www.w3.org/2000/svg"
   xmlns:svg="http://www.w3.org/2000/svg">
  <defs
     id="defs8" />
  <path
     id="1-6"
     style="fill:#000000;fill-opacity:1;fill-rule:evenodd;stroke:none;stroke-width:0.262689"
     d="m 12.322205,1.757174 c -0.0085,0 -0.01657,0.0015 -0.02469,0.0043 -0.169372,0.05743 -0.372695,0.118326 -0.640449,0.191172 -0.03358,0.0092 -0.0571,0.0397 -0.0571,0.07439 v 1.014057 c 0,0.03353 0.02236,0.06321 0.0544,0.07323 0.0077,0.0027 0.01542,0.0038 0.02316,0.0038 0.02469,0 0.04861,-0.01195 0.06327,-0.03353 l 0.267369,-0.385041 c 0.01815,-0.02621 0.04669,-0.04355 0.07793,-0.04856 h 0.0081 c 0.0386,0 0.06135,0.0085 0.08102,0.0239 l 0.40896,0.324529 c 0.0139,0.01079 0.03086,0.01696 0.04784,0.01696 0.01157,0 0.02279,-0.0027 0.03358,-0.0077 0.02661,-0.01311 0.0436,-0.04008 0.0436,-0.06976 V 1.982679 c 0,-0.02929 0.01079,-0.05704 0.03086,-0.07824 0.02279,-0.02506 0.02699,-0.06167 0.0096,-0.09096 -0.0139,-0.02428 -0.03936,-0.03854 -0.06636,-0.03854 -0.0058,0 -0.01157,7.76e-4 -0.01735,0.0019 -0.03588,0.0081 -0.07485,0.01233 -0.116127,0.01233 -0.06405,0 -0.132333,-0.0096 -0.207954,-0.0293 -0.0066,-0.0019 -0.01315,-0.0027 -0.01968,-0.0027 z m -0.64469,1.77643 c -0.04283,0 -0.07755,0.03469 -0.07755,0.07709 v 0.423583 c 0,0.0343 0.02279,0.06398 0.05517,0.074 0.420918,0.127191 0.730343,0.299862 0.919007,0.513003 0.01505,0.01696 0.03626,0.02621 0.05787,0.02621 0.0093,0 0.01853,-0.0015 0.02737,-0.005 0.0301,-0.01118 0.04977,-0.04008 0.04977,-0.07207 V 3.596448 c 0,-0.02274 -0.01004,-0.04432 -0.02776,-0.05897 -0.0139,-0.01156 -0.03124,-0.01811 -0.04938,-0.01811 -0.0043,0 -0.0093,7.77e-4 -0.01352,0.0015 -0.05672,0.01041 -0.114971,0.01272 -0.171686,0.01272 z m 2.069114,-0.968576 c -0.04242,0 -0.07717,0.03469 -0.07717,0.07709 v 3.495045 c 0,0.0424 0.03473,0.07709 0.07717,0.07709 h 0.913601 c 0.04242,0 0.07717,-0.03469 0.07717,-0.07709 V 2.642118 c 0,-0.0424 -0.03473,-0.07709 -0.07717,-0.07709 z m -2.976932,4.944633 c -0.06405,0 -0.115744,-0.05165 -0.115744,-0.115628 V 5.479621 c 0,-0.03315 -0.02161,-0.06282 -0.05325,-0.07323 -0.0081,-0.0027 -0.0162,-0.0038 -0.02394,-0.0038 -0.02431,0 -0.04745,0.01156 -0.0625,0.03199 -0.263513,0.360759 -0.5710055,0.691455 -0.9139948,0.983222 -0.02083,0.01773 -0.047454,0.02775 -0.075233,0.02775 -0.032391,0 -0.062887,-0.01349 -0.084877,-0.03739 L 9.3575922,6.319133 C 9.3209522,6.279053 9.3167002,6.218151 9.3483322,6.173827 9.7970336,5.538644 10.17243,4.634435 10.405461,3.628086 c 0.0054,-0.02274 0,-0.04702 -0.01467,-0.06514 -0.01467,-0.0185 -0.03703,-0.0293 -0.06057,-0.0293 H 9.5180861 c -0.05324,0 -0.099152,-0.03585 -0.1122691,-0.08749 L 9.371471,3.308559 c -0.00851,-0.03469 -8.032e-4,-0.07092 0.021205,-0.09905 0.021982,-0.02814 0.055171,-0.04432 0.091439,-0.04432 h 1.092621 c 0.04242,0 0.07716,-0.03469 0.07716,-0.07709 V 2.277547 c 0,-0.02274 -0.01042,-0.04471 -0.02776,-0.05936 -0.01427,-0.01157 -0.03163,-0.01773 -0.04938,-0.01773 -0.005,0 -0.0093,3.75e-4 -0.01427,0.0012 -0.341448,0.06282 -0.7029511,0.11717 -1.0447865,0.156869 h -0.00214 c -0.063273,0 -0.1068687,-0.03276 -0.1219158,-0.08094 L 9.3658847,2.188166 C 9.3477317,2.128036 9.3797807,2.065215 9.4391897,2.045173 10.255954,1.76651 11.314628,1.245414 11.849365,0.858831 c 0.02029,-0.01429 0.04383,-0.02201 0.06813,-0.02201 0.02661,0 0.0517,0.0089 0.07254,0.02543 l 0.824867,0.659079 c 0.02546,0.02043 0.04128,0.05126 0.04321,0.08402 0.0016,0.03276 -0.01042,0.06475 -0.03397,0.08788 -0.01194,0.01233 -0.02509,0.02351 -0.03936,0.03276 -0.02776,0.01927 -0.04013,0.05396 -0.03048,0.08634 0.0096,0.03199 0.03898,0.05435 0.07292,0.05473 0.01505,3.75e-4 0.02971,0.0034 0.0436,0.0096 l 0.726485,0.313738 1.089922,0.0062 c 0.02431,0 0.04746,-0.01157 0.06211,-0.03083 L 14.993944,1.83777 c 0.02198,-0.0293 0.05594,-0.04625 0.09298,-0.04625 0.02469,0 0.04823,0.0077 0.06791,0.02197 l 0.797857,0.583921 c 0.05016,0.03661 0.06212,0.105992 0.02776,0.157254 -0.04166,0.06244 -0.11767,0.115628 -0.226471,0.15764 -0.03009,0.01118 -0.04977,0.04008 -0.04977,0.07169 v 4.143332 c 0,0.148389 -0.363823,0.314508 -0.851103,0.314508 -0.06405,0 -0.115744,-0.05165 -0.115744,-0.115243 V 6.659851 c 0,-0.0424 -0.03473,-0.07709 -0.07716,-0.07709 h -0.913606 c -0.04242,0 -0.07716,0.03469 -0.07716,0.07709 v 0.308726 c 0,0.08518 -0.143137,0.403927 -0.844545,0.403927 -0.06366,0 -0.115744,-0.05165 -0.115744,-0.115628 v -1.69246 c 0,-0.02929 -0.01657,-0.05589 -0.04283,-0.06899 -0.01079,-0.0054 -0.02278,-0.0081 -0.03435,-0.0081 -0.01657,0 -0.0332,0.0054 -0.04668,0.01619 -0.07755,0.05897 -0.170527,0.09019 -0.268911,0.09019 -0.126162,0 -0.24962,-0.05666 -0.356877,-0.164192 C 11.94172,5.411784 11.93017,5.388664 11.92669,5.363604 11.90586,5.2156 11.84335,5.039846 11.745357,4.855612 c -0.01352,-0.02582 -0.04013,-0.04124 -0.0679,-0.04124 -0.0062,0 -0.01272,7.76e-4 -0.01893,0.0023 -0.03435,0.0085 -0.05864,0.0397 -0.05864,0.07477 v 2.296776 c -0.02236,0.166517 -0.349935,0.321458 -0.699872,0.321458 z M 9.9194115,12.277024 9.5739108,11.221198 7.1658369,13.874452 10.665835,14.985378 10.461544,14.0086 c 3.452972,-1.739891 3.813375,-3.263443 4.288693,-4.795028 L 12.885543,8.883696 c -0.439981,1.860012 -1.601342,2.809529 -2.9661315,3.393328 z M 5.7306983,3.483642 6.076199,4.539469 8.4842701,1.886212 4.9842718,0.775286 5.1885634,1.752067 C 1.735591,3.491958 1.3751905,5.015507 0.89987295,6.547095 L 2.7645643,6.87697 C 3.2045454,5.016958 4.3659058,4.067439 5.7306983,3.483642 Z M 4.2582472,13.972399 H 1.8108744 L 1.3716028,15.224714 H -1.0478024e-6 L 2.321863,9.014246 h 1.488146 l 2.2591136,6.210468 H 4.6885548 Z M 3.8906927,12.907502 3.0390441,10.479541 2.1873929,12.907502 Z" />
</svg>
