<?xml version="1.0" encoding="UTF-8" standalone="no"?>
<svg
   height="16"
   viewBox="0 0 16 16"
   width="16"
   version="1.1"
   id="svg15572"
   xmlns="http://www.w3.org/2000/svg"
   xmlns:svg="http://www.w3.org/2000/svg">
  <defs
     id="defs15576" />
  <path
     d="M 8.0000001,0 C 3.5958338,0 0,3.5958333 0,7.9999995 0,12.404166 3.5958338,16 8.0000001,16 12.404171,16 16,12.404166 16,7.9999995 16,3.5958333 12.404171,0 8.0000001,0 Z m 0,2.1333337 c 0.2749977,0 0.5375039,0.024999 0.7999998,0.058336 0.2041706,0.279166 0.4083307,0.6333335 0.5874984,1.0958326 0.1125019,0.2958334 0.2166725,0.6250004 0.3083314,0.9791669 H 6.3041665 C 6.3958358,3.9125023 6.5000005,3.5833353 6.6125014,3.2875019 6.7916696,2.8250028 6.9958292,2.4708353 7.1999999,2.1916693 7.4624961,2.1583356 7.7250029,2.1333337 8.0000001,2.1333337 Z M 5.7749997,2.5666664 C 5.7208358,2.6833332 5.6625003,2.7833336 5.6166667,2.9041661 5.4583341,3.3166662 5.3291674,3.7791668 5.2125002,4.2666663 H 3.4874997 c 0.6083341,-0.7374998 1.3833334,-1.3291666 2.2875,-1.6999999 z m 4.4500023,0 c 0.90416,0.3708333 1.679169,0.9625001 2.287499,1.6999999 H 10.787498 C 10.670837,3.7791668 10.541664,3.3166662 10.383339,2.9041661 10.337474,2.7833336 10.279125,2.6833332 10.225002,2.5666664 Z M 2.7791672,5.3333332 H 4.9999999 C 4.8958296,6.0041662 4.8416663,6.7208329 4.8208336,7.4666658 H 2.1749995 C 2.2416667,6.704166 2.4458339,5.9833331 2.7791672,5.3333332 Z m 3.3,0 H 9.920832 c 0.108331,0.6583335 0.166666,1.3791665 0.191669,2.1333326 H 5.8874996 C 5.9125035,6.7124997 5.9708386,5.9916667 6.0791672,5.3333332 Z m 4.9208328,0 h 2.220832 c 0.333333,0.6499999 0.537503,1.3708328 0.60417,2.1333326 H 11.179167 C 11.158366,6.7208329 11.104181,6.0041662 11,5.3333332 Z M 2.1749995,8.5333327 h 2.6458341 c 0.020831,0.7458334 0.074997,1.4666659 0.1791663,2.1333333 H 2.7791672 C 2.4458339,10.016667 2.2416667,9.2958335 2.1749995,8.5333327 Z m 3.7125001,0 h 4.2250014 c -0.02497,0.7541661 -0.08331,1.4749983 -0.191669,2.1333333 H 6.0791672 C 5.9708332,10.008331 5.9125006,9.2874988 5.8874996,8.5333327 Z m 5.2916674,0 h 2.645835 c -0.06667,0.7625008 -0.270837,1.4833343 -0.60417,2.1333333 H 11 C 11.104213,9.9999986 11.158335,9.2791661 11.179167,8.5333327 Z M 3.4874997,11.733333 h 1.7250005 c 0.1166672,0.4875 0.2458339,0.95 0.4041665,1.358334 0.045836,0.124999 0.1041706,0.225 0.158333,0.341666 -0.9041666,-0.370834 -1.6791659,-0.962501 -2.2875,-1.7 z m 2.8166668,0 h 3.3916632 c -0.091627,0.354166 -0.1958295,0.683334 -0.3083314,0.979167 -0.1791677,0.4625 -0.3833278,0.816666 -0.5874984,1.095832 -0.2624959,0.03333 -0.529163,0.05834 -0.7999998,0.05834 -0.2708374,0 -0.537504,-0.02501 -0.8000002,-0.05834 C 6.9958292,13.529166 6.7916696,13.175 6.6125014,12.7125 6.5000005,12.416668 6.3958338,12.087501 6.3041665,11.733335 Z m 4.4833315,0 h 1.725003 c -0.60833,0.737499 -1.383339,1.329166 -2.287499,1.7 0.05419,-0.116666 0.112502,-0.216667 0.158337,-0.341666 0.158325,-0.408334 0.287498,-0.870834 0.404159,-1.358334 z m 0,0"
     fill="#222222"
     id="path1"
     style="fill:#000000;fill-opacity:1;stroke-width:1.06666" />
</svg>
