<?xml version="1.0" encoding="UTF-8" standalone="no"?>
<svg
   height="16px"
   viewBox="0 0 16 16"
   width="16px"
   version="1.1"
   id="svg15572"
   xmlns="http://www.w3.org/2000/svg"
   xmlns:svg="http://www.w3.org/2000/svg">
  <defs
     id="defs15576" />
  <path
     id="path2317"
     style="display:inline;overflow:visible;visibility:visible;fill:#000000;fill-opacity:1;fill-rule:nonzero;stroke:none;stroke-width:0.500893;marker:none;enable-background:accumulate"
     d="M 6.5000097,0 V 2.999981 H 4.9062684 L 8.000001,6.499952 11.093732,2.999981 H 9.4999903 V 0 Z M 7.453125,7 C 7.366765,7 7.3125,7.147408 7.3125,7.328125 V 8.46875 C 6.964483,8.54793 6.6367184,8.689937 6.34375,8.875 L 5.5312501,8.0625 C 5.4035024,7.934753 5.2642584,7.876272 5.2031251,7.9375 l -0.765625,0.765625 c -0.061228,0.06123 -0.0018,0.200378 0.125,0.328125 l 0.8125,0.8125 c -0.185005,0.292987 -0.327013,0.620733 -0.40625,0.96875 h -1.140625 c -0.180661,0 -0.328125,0.05426 -0.328125,0.140625 v 1.09375 c 0,0.08636 0.147389,0.140625 0.328125,0.140625 h 1.140625 c 0.07918,0.348016 0.2211866,0.675782 0.40625,0.96875 l -0.8125,0.8125 c -0.1277477,0.127748 -0.1862284,0.266991 -0.125,0.328125 l 0.765625,0.765625 c 0.061228,0.06104 0.2003773,0.0018 0.328125,-0.125 L 6.34375,14.125 c 0.2929687,0.185006 0.620733,0.327013 0.96875,0.40625 v 1.140625 C 7.3125,15.852535 7.366765,16 7.453125,16 h 1.09375 C 8.633235,16 8.6875,15.852611 8.6875,15.671875 V 14.53125 C 9.0355353,14.452069 9.3632833,14.310063 9.65625,14.125 l 0.8125,0.8125 c 0.127748,0.127748 0.266992,0.186227 0.328125,0.125 L 11.5625,14.296875 c 0.06104,-0.06104 0.0018,-0.200377 -0.125,-0.328125 l -0.8125,-0.8125 c 0.185007,-0.292968 0.326993,-0.620734 0.40625,-0.96875 h 1.140625 C 12.352536,12.1875 12.5,12.13324 12.5,12.046875 v -1.09375 C 12.5,10.866765 12.352593,10.8125 12.171875,10.8125 H 11.03125 C 10.95207,10.464483 10.810063,10.136737 10.625,9.84375 l 0.8125,-0.8125 c 0.127748,-0.127747 0.186228,-0.266991 0.125,-0.328125 L 10.796875,7.9375 C 10.735645,7.87627 10.596498,7.9357 10.46875,8.0625 L 9.65625,8.875 C 9.3632816,8.689993 9.0355353,8.548006 8.6875,8.46875 V 7.328125 C 8.6875,7.147465 8.6332353,7 8.546875,7 Z M 8,10.109375 c 0.7643103,0 1.390625,0.626315 1.390625,1.390625 0,0.764291 -0.6263147,1.390625 -1.390625,1.390625 -0.7642903,0 -1.390625,-0.626334 -1.390625,-1.390625 0,-0.76431 0.6263347,-1.390625 1.390625,-1.390625 z" />
</svg>
