<?xml version="1.0" encoding="UTF-8" standalone="no"?>
<svg
   height="16"
   viewBox="0 0 16 16"
   width="16"
   version="1.1"
   id="svg4"
   xmlns="http://www.w3.org/2000/svg"
   xmlns:svg="http://www.w3.org/2000/svg">
  <defs
     id="defs8" />
  <path
     id="path3-8"
     style="color:#bebebe;fill:#000000;marker:none"
     d="m 8,11 h 3 v 1 H 8 Z M 4.494,6.895 A 0.6,0.6 0 0 0 4.076,7.924 L 5.652,9.5 4.076,11.076 a 0.6,0.6 0 1 0 0.848,0.848 l 2,-2 a 0.6,0.6 0 0 0 0,-0.848 l -2,-2 A 0.6,0.6 0 0 0 4.494,6.895 Z M 2.2,1 C 0.993,1 0,2.007 0,3.209 V 13.791 C 0,14.993 0.994,16 2.2,16 H 13.8 C 15.006,16 16,14.993 16,13.791 V 3.209 C 16,2.007 15.006,1 13.8,1 Z m 0,2 H 13.8 C 13.924,3 14,3.071 14,3.209 V 13.791 C 14,13.929 13.924,14 13.8,14 H 2.2 C 2.076,14 2,13.929 2,13.791 V 3.209 C 2,3.071 2.076,3 2.2,3 Z" />
</svg>
