<?xml version="1.0" encoding="UTF-8" standalone="no"?>
<svg
   height="16"
   viewBox="0 0 16 16"
   width="16"
   version="1.1"
   id="svg4"
   xmlns="http://www.w3.org/2000/svg"
   xmlns:svg="http://www.w3.org/2000/svg">
  <defs
     id="defs8" />
  <path
     id="path1-8"
     style="fill:#000000;stroke-width:0.475533"
     d="M 9.148887,2.7104426e-6 C 9.0104852,1.3975044e-4 8.8709712,0.00627835 8.7329817,0.00206165 H 6.6905165 6.6884576 C 6.1822055,-0.00961862 5.6907952,0.35429725 5.5828085,0.85446145 5.5150988,1.1333247 5.5509804,1.4207906 5.5416298,1.7048023 V 2.2957172 H 1.6749466 c -0.5847386,0 -1.0541756,0.4694371 -1.0541756,1.0541756 v 5.2708781 c 0,0.5847381 0.469437,1.0541751 1.0541756,1.0541751 H 5.891649 V 7.5665952 c 0,-0.5847385 0.4694371,-1.0541756 1.0541756,-1.0541756 h 2.1083512 c 0.5847382,0 1.0541752,0.4694371 1.0541752,1.0541756 V 9.674946 h 4.216703 c 0.584738,0 1.054175,-0.469437 1.054175,-1.0541751 V 3.3498928 c 0,-0.5847385 -0.469437,-1.0541756 -1.054175,-1.0541756 H 10.45837 C 10.454892,1.874924 10.464212,1.4541113 10.452194,1.033589 10.416658,0.55066795 10.039522,0.11693279 9.5606743,0.03088676 9.4243388,0.00479486 9.2872885,-1.3222956e-4 9.148887,2.7104426e-6 Z M 6.7111059,0.98417445 c 0.01212,-7.569e-4 0.024849,1.098e-4 0.037061,0 0.032585,-2.93e-4 0.063705,-1.054e-4 0.092652,0 H 9.311543 C 9.4683991,0.97985445 9.4874765,1.1500735 9.476258,1.2683078 V 2.2957172 H 6.5258015 c 0.002,-0.3936292 -0.00337,-0.7884503 0.00412,-1.1818297 0.018171,-0.099643 0.096346,-0.12441515 0.1811864,-0.12971305 z M 6.9458246,7.5665952 V 10.729122 H 9.0541758 V 7.5665952 Z m -5.270878,3.1625268 v 4.216702 C 1.6749466,15.530563 2.1443838,16 2.7291222,16 H 13.270878 c 0.584739,0 1.054176,-0.469437 1.054176,-1.054176 v -4.216702 h -4.216703 c 0,0.584739 -0.469437,1.054176 -1.0541752,1.054176 H 6.9458246 c -0.5847386,0 -1.0541756,-0.469437 -1.0541756,-1.054176 z" />
</svg>
