<?xml version="1.0" encoding="UTF-8" standalone="no"?>
<svg
   height="16"
   viewBox="0 0 16 16"
   width="16"
   version="1.1"
   id="svg135"
   xml:space="preserve"
   xmlns="http://www.w3.org/2000/svg"
   xmlns:svg="http://www.w3.org/2000/svg"><defs
     id="defs139" /><path
     id="path3-2"
     d="m 11.478194,6.608671 h -3.82608 l -3.13044,2.782606 h 3.826095 z m 1.913134,3.820287 c 0,-0.354611 -0.03487,-0.701467 -0.101513,-1.03763 H 9.036921 c 0.545118,0.627524 0.876213,1.453564 0.876213,2.358665 0,1.963003 -1.557307,3.554367 -3.478286,3.554367 -0.774264,0 -1.489441,-0.258521 -2.067385,-0.69569 0.951443,-0.01054 1.719474,-0.78509 1.719474,-1.739047 0,-0.960494 -0.778638,-1.739147 -1.739133,-1.739147 -0.960494,0 -1.739132,0.778653 -1.739132,1.739147 0,0.443961 0.166344,0.849049 0.440116,1.156375 C 4.124497,15.233458 5.731536,16 7.52704,16 c 3.23874,0 5.864288,-2.494236 5.864288,-5.571042 z M 3.187026,6.608722 C 3.037104,6.138255 2.956498,5.639206 2.956498,5.122266 2.956498,2.293318 5.370514,0 8.348377,0 c 1.719281,0 3.250589,0.764463 4.237893,1.955107 v 0 c 0.283912,0.309515 0.457188,0.722165 0.457188,1.175288 0,0.9605 -0.778603,1.739133 -1.739097,1.739133 -0.960545,0 -1.739148,-0.778633 -1.739148,-1.739133 0,-0.960494 0.778603,-1.739132 1.739148,-1.739132 0.01323,0 0.02645,1.52e-4 0.03963,4.4e-4 -0.57431,-0.436764 -1.290982,-0.696029 -2.068216,-0.696029 -1.888746,0 -3.419887,1.53114 -3.419887,3.419896 0,0.983073 0.414804,1.86927 1.078935,2.493146 z"
     style="fill:#000000;fill-opacity:1;stroke-width:0.506802" /></svg>
