<?xml version="1.0" encoding="UTF-8" standalone="no"?>
<svg
   height="16"
   viewBox="0 0 16 16"
   width="16"
   version="1.1"
   id="svg4"
   xmlns="http://www.w3.org/2000/svg"
   xmlns:svg="http://www.w3.org/2000/svg">
  <defs
     id="defs8" />
  <path
     id="path9"
     style="fill:#000000;stroke-width:0.0925939"
     class="cls-3"
     d="m 2.0977698,4.6042043 q 0.0865,-0.0047 0.17316,-0.0047 a 3.2805837,3.2805837 0 0 1 1.72388,0.49091 5.544011,5.544011 0 0 1 4.46404,-2.387459 3.2960571,3.2960571 0 0 1 0.68962,-1.84351405 7.4719103,7.4719103 0 0 0 -7.0507,3.74476505 z M 14.39106,12.891905 a 7.4370153,7.4370153 0 0 0 0.37268,-8.7258937 3.2763735,3.2763735 0 0 1 -1.27828,1.497059 5.5729198,5.5729198 0 0 1 -0.18215,5.5352917 3.2597464,3.2597464 0 0 1 1.08775,1.693543 z m -0.89005,0.834941 A 2.2731534,2.2731534 0 0 1 11.22786,16 2.2731534,2.2731534 0 0 1 8.9547098,13.726846 2.2731534,2.2731534 0 0 1 11.22786,11.453693 a 2.2731534,2.2731534 0 0 1 2.27315,2.273153 z m -6.1011102,-0.01254 a 5.5360507,5.5360507 0 0 1 -3.77524,-2.879273 3.2722864,3.2722864 0 0 1 -1.94357,0.2389 7.4002083,7.4002083 0 0 0 5.32781,4.465216 7.4893485,7.4893485 0 0 0 1.61416,0.166108 3.2525842,3.2525842 0 0 1 -0.66557,-1.900526 c -0.18721,-0.0208 -0.37421,-0.05118 -0.55759,-0.09042 z M 14.01315,2.8797013 A 2.2731534,2.2731534 0 0 1 11.73999,5.1528553 2.2731534,2.2731534 0 0 1 9.4668398,2.8797013 2.2731534,2.2731534 0 0 1 11.73999,0.60654825 2.2731534,2.2731534 0 0 1 14.01315,2.8797013 Z M 4.5463098,7.864124 A 2.2731534,2.2731534 0 0 1 2.2731498,10.137277 2.2731534,2.2731534 0 0 1 -2.246878e-7,7.864124 2.2731534,2.2731534 0 0 1 2.2731498,5.5909703 2.2731534,2.2731534 0 0 1 4.5463098,7.864124 Z" />
</svg>
