<?xml version="1.0" encoding="UTF-8" standalone="no"?>
<svg
   version="1.1"
   viewBox="0 0 16 16"
   id="svg1"
   width="16"
   height="16"
   xmlns="http://www.w3.org/2000/svg"
   xmlns:svg="http://www.w3.org/2000/svg">
  <defs
     id="defs1" />
  <path
     id="path12"
     style="fill:#000000;stroke-width:0.5"
     class="cls-2"
     d="m 8,2 c 3.31,0 6,2.69 6,6 0,3.31 -2.69,6 -6,6 C 4.69,14 2,11.31 2,8 2,4.69 4.69,2 8,2 M 8,0 C 3.58,0 0,3.58 0,8 c 0,4.42 3.58,8 8,8 4.42,0 8,-3.58 8,-8 C 16,3.58 12.42,0 8,0 Z m 0.03516,3.359375 a 0.5,0.5 0 0 0 -0.5,0.5 0.5,0.5 0 0 0 0.5,0.5 c 1.085014,0 2.047098,0.4697439 2.716797,1.21875 a 0.5,0.5 0 0 0 0.707031,0.039063 0.5,0.5 0 0 0 0.03906,-0.7050781 C 10.647747,3.9611159 9.410144,3.3593755 8.035157,3.3593755 Z M 11.125,5.245 C 10.365,4.395 9.265,3.86 8.035,3.86 m -2.925625,6.565781 a 0.5,0.5 0 0 0 -0.353516,0.146485 0.5,0.5 0 0 0 0,0.707031 c 0.840353,0.840352 2.004794,1.355469 3.279297,1.355469 a 0.5,0.5 0 0 0 0.5,-0.5 0.5,0.5 0 0 0 -0.5,-0.5 c -1.005497,0 -1.912618,-0.402853 -2.572265,-1.0625 A 0.5,0.5 0 0 0 5.109375,10.425781 Z M 5.11,10.925 c 0.75,0.75 1.785,1.21 2.925,1.21 M 8.015,6.615 C 8.78,6.615 9.4,7.235 9.4,8 9.4,8.765 8.78,9.385 8.015,9.385 7.25,9.385 6.63,8.765 6.63,8 6.63,7.235 7.25,6.615 8.015,6.615 m 0,-1 C 6.695,5.615 5.63,6.685 5.63,8 5.63,9.315 6.7,10.385 8.015,10.385 9.33,10.385 10.4,9.315 10.4,8 10.4,6.685 9.33,5.615 8.015,5.615 Z" />
</svg>
