<?xml version="1.0" encoding="UTF-8" standalone="no"?>
<svg
   height="16px"
   viewBox="0 0 16 16"
   width="16px"
   version="1.1"
   id="svg15572"
   xmlns="http://www.w3.org/2000/svg"
   xmlns:svg="http://www.w3.org/2000/svg">
  <defs
     id="defs15576" />
  <path
     style="fill:#000000;fill-opacity:1;stroke-width:0.142363"
     d="m 7.905769,1.308e-4 c -0.65254,0.00305 -1.2757,0.058685 -1.82402,0.155709 -1.61528,0.2853665 -1.90855,0.8826635 -1.90855,1.98418 v 1.4547685 h 3.8171 v 0.4849231 h -3.8171 -1.432525 c -1.109355,0 -2.08074,0.6667865 -2.384575,1.935243 -0.35047,1.453945 -0.366015,2.3612305 0,3.879383 0.27133,1.1300536 0.919315,1.9352426 2.02867,1.9352426 h 1.312405 v -1.743943 c 0,-1.2598956 1.09009,-2.3712281 2.384575,-2.3712281 h 3.81265 c 1.061305,0 1.90855,-0.8738455 1.90855,-1.9396915 V 2.1400198 c 0,-1.034456 -0.87268,-1.8115335 -1.90855,-1.98418 -0.65572,-0.109153 -1.336085,-0.158741 -1.98863,-0.155709 z m -2.06426,1.170043 c 0.394285,0 0.716265,0.3272415 0.716265,0.729609 0,0.400941 -0.32198,0.72516 -0.716265,0.72516 -0.39569,-5e-7 -0.71626,-0.324219 -0.71626,-0.72516 0,-0.4023675 0.32057,-0.729609 0.71626,-0.729609 z"
     id="path1948" />
  <path
     style="fill:#000000;fill-opacity:1;stroke-width:0.142363"
     d="m 12.278974,4.0797114 v 1.695006 c 0,1.314115 -1.114115,2.4201655 -2.384575,2.4201655 h -3.81265 c -1.04435,0 -1.90855,0.8938215 -1.90855,1.9396911 v 3.634697 c 0,1.034456 0.89953,1.642912 1.90855,1.939693 1.20828,0.355279 2.366955,0.41949 3.81265,0 0.96097,-0.278234 1.90855,-0.838177 1.90855,-1.939693 V 12.314503 H 7.990299 V 11.82958 h 3.81265 1.90855 c 1.109355,0 1.522745,-0.773799 1.90855,-1.9352426 0.39852,-1.195688 0.381565,-2.345536 0,-3.879383 -0.27416,-1.10437 -0.797785,-1.935243 -1.90855,-1.935243 z m -2.14434,9.2046366 c 0.395695,1e-6 0.716265,0.32422 0.716265,0.72516 0,0.402368 -0.32057,0.72961 -0.716265,0.72961 -0.39428,0 -0.71626,-0.327242 -0.71626,-0.72961 0,-0.40094 0.32198,-0.72516 0.71626,-0.72516 z"
     id="path1950" />
</svg>
