<?xml version="1.0" encoding="UTF-8" standalone="no"?>
<svg
   version="1.1"
   viewBox="0 0 16 16"
   id="svg1"
   width="16"
   height="16"
   xmlns="http://www.w3.org/2000/svg"
   xmlns:svg="http://www.w3.org/2000/svg">
  <defs
     id="defs1" />
  <path
     id="path3"
     style="display:inline;fill:#000000;fill-opacity:1;stroke-width:0.0905265"
     d="m 4.618303,1.082e-5 c -0.5159118,0 -0.934144,0.41823319 -0.934144,0.93423582 0,0.51437166 0.4156986,0.93142796 0.9294359,0.93396156 L 5.0696684,3.5840498 C 3.2945327,4.1733786 1.3684878,5.4617532 1.3684878,8.2805723 1.4079488,12.353726 6.7574007,15.996786 7.9923207,15.999377 L 7.9938296,16 c 1.2324297,0 6.6244664,-3.723631 6.6376824,-7.7192053 0,-2.8628137 -1.903141,-4.1483812 -3.671307,-4.7252169 l 0.465759,-1.6780932 c 0.476533,-0.042549 0.850227,-0.4423118 0.850227,-0.92997876 0,-0.51600231 -0.418234,-0.93423483 -0.934235,-0.93423483 -0.516002,0 -0.934234,0.41823252 -0.934234,0.93423483 0,0.33992676 0.182229,0.63640216 0.453538,0.79998306 L 10.404101,3.3946006 C 9.0971548,3.0622537 7.9938168,3.0876017 7.9938168,3.0876017 v -1.915e-4 c 0,0 -1.1091321,-0.0056 -2.4196865,0.3455401 h -8.82e-5 L 5.1193263,1.7219067 C 5.3794997,1.5560624 5.5525873,1.2656524 5.5525873,0.93423319 5.5525873,0.41823253 5.1343542,0 4.6183515,0 Z M 4.0858974,5.6041517 c 0.097839,-0.00422 0.1946395,0.00131 0.2887987,0.016391 2.7474821,0.5590024 3.1919684,4.4692093 2.14032,6.1491113 v -9.6e-5 C 5.7783112,12.692936 1.7410955,9.4267359 2.4273772,7.0943179 2.6651683,6.1323015 3.4010176,5.6331391 4.0858974,5.6041592 Z m 8.0052866,5.41e-5 C 12.77602,5.633124 13.51192,6.1322959 13.749631,7.0943107 14.436004,9.4268185 10.398789,12.692929 9.6620838,11.769647 8.6104361,10.089746 9.0550122,6.1795389 11.802404,5.6206278 c 0.09415,-0.015089 0.190946,-0.020551 0.28878,-0.016417 z m -0.780067,2.5668284 a 0.85085966,0.85085966 0 0 0 -0.850861,0.8508592 0.85085966,0.85085966 0 0 0 0.850951,0.8508605 0.85085966,0.85085966 0 0 0 0.850769,-0.8509504 0.85085966,0.85085966 0 0 0 -0.850859,-0.8507693 z m -6.4998124,0.026245 v 8.93e-5 A 0.85085966,0.85085966 0 0 0 3.9604461,9.0481389 0.85085966,0.85085966 0 0 0 4.8113962,9.899089 0.85085966,0.85085966 0 0 0 5.6621652,9.0481389 0.85085966,0.85085966 0 0 0 4.8113046,8.1972792 Z m 6.7541904,0.3288834 a 0.21495573,0.21495573 0 0 1 0,0.4299113 0.21495573,0.21495573 0 0 1 0,-0.4299113 z m -7.008569,0.02634 a 0.2149102,0.2149102 0 0 1 0,0.4298202 0.2149102,0.2149102 0 0 1 0,-0.4298202 z" />
</svg>
