<?xml version="1.0" encoding="UTF-8" standalone="no"?>
<svg
   height="16px"
   viewBox="0 0 16 16"
   width="16px"
   version="1.1"
   id="svg15572"
   xmlns="http://www.w3.org/2000/svg"
   xmlns:svg="http://www.w3.org/2000/svg">
  <defs
     id="defs15576" />
  <path
     style="fill:#000000;fill-opacity:1;stroke-width:0.491695"
     d="m 12.657814,8.8510957 c -0.215883,-0.010335 -0.448416,0.022529 -0.687979,0.1067558 -0.168361,0.059771 -0.256513,0.1972037 -0.256513,0.1972037 0,0 0.105066,-0.042502 0.34251,-0.091927 0.968752,-0.2019529 2.356837,1.2973408 -0.644986,2.8572038 -0.01386,0.03713 -0.06079,0.07863 -0.06079,0.07858 3.507954,-0.922183 2.818976,-3.0754558 1.307761,-3.1478185 z"
     id="path485" />
  <path
     style="fill:#000000;fill-opacity:1;stroke-width:0.491695"
     d="M 5.9959473,8.6929558 C 5.6132415,8.703006 4.718627,8.7854829 3.6769712,9.2890101 2.0346952,10.08341 7.7387651,10.445219 10.691728,9.6685868 c 0.307004,-0.2096292 0.730983,-0.3914384 0.730983,-0.3914384 0,0 -1.20747,0.2157873 -2.4109083,0.3173026 C 7.5392697,9.717833 5.9571575,9.7421395 5.164142,9.63597 3.2859754,9.3851564 6.1946314,8.694442 6.1946314,8.694442 c 0,0 -0.071119,-0.00482 -0.1986841,-0.00148 z"
     id="path487" />
  <path
     style="fill:#000000;fill-opacity:1;stroke-width:0.491695"
     d="m 5.5170266,10.770499 c -2.7101244,0.899494 1.5078515,1.919887 5.2948024,0.812532 -0.402526,-0.141925 -0.65833,-0.401818 -0.65833,-0.401818 C 8.3027196,11.537595 7.2331847,11.527035 5.8788108,11.387311 4.8314858,11.27898 5.5170266,10.770499 5.5170266,10.770499 Z"
     id="path489" />
  <path
     style="fill:#000000;fill-opacity:1;stroke-width:0.491695"
     d="M 5.9010551,12.711482 C 3.4409183,13.39889 7.3964815,14.818953 10.528628,13.476567 10.015618,13.277071 9.6493738,13.046578 9.6493738,13.046578 8.2521782,13.311018 7.6033572,13.330593 6.3354922,13.185953 5.2889391,13.065636 5.9010551,12.711482 5.9010551,12.711482 Z"
     id="path491" />
  <path
     style="fill:#000000;fill-opacity:1;stroke-width:0.491695"
     d="m 4.3100924,13.807938 c -1.0572425,-0.04074 -3.45754991,1.015657 -1.4085832,1.347793 6.3860754,1.03564 11.6411098,-0.467169 9.9846488,-1.214349 0,0 0.452575,0.372877 -0.498196,0.661295 -1.807918,0.547683 -7.524698,0.713488 -9.1128088,0.02224 -0.5708874,-0.248354 0.4994932,-0.593423 0.8362551,-0.665742 0.3512079,-0.07616 0.5530536,-0.06079 0.5530536,-0.06079 -0.07936,-0.0559 -0.2033355,-0.08463 -0.3543695,-0.09044 z"
     id="path493" />
  <path
     style="fill:#000000;fill-opacity:1;stroke-width:0.491695"
     d="m 13.900337,14.48471 c 0,0 -0.201383,0.516239 -2.381249,0.926702 -2.4593155,0.462813 -5.4929949,0.409296 -7.2920281,0.112685 4.42e-5,-4.3e-5 0.3688991,0.304103 2.2626328,0.425542 2.8813768,0.184444 7.3058503,-0.101542 7.4106443,-1.464929 z"
     id="path495" />
  <path
     style="fill:#000000;fill-opacity:1;stroke-width:0.491695"
     d="M 9.7322244,-2.9111161e-8 C 10.40299,2.6416027 7.3672207,3.4404851 6.2715522,5.0857359 5.5250658,6.2065457 6.6369062,7.4097115 8.1531263,8.7777132 7.5618729,7.4413639 5.5570801,6.272664 8.1546014,4.2213086 11.393829,1.6640571 9.7322195,-2.9111161e-8 9.7322195,-2.9111161e-8 Z"
     id="path497" />
  <path
     style="fill:#000000;fill-opacity:1;stroke-width:0.491695"
     d="m 11.568145,3.2679179 c 0,0 -5.4762877,1.368511 -2.8601704,4.3829263 0.7717595,0.888541 -0.203134,1.6888203 -0.203134,1.6888203 0,0 1.9601174,-1.0121556 1.0601485,-2.2789433 C 8.7244464,5.879363 8.0786247,5.2917167 11.568145,3.2679179 Z"
     id="path499" />
</svg>
