<?xml version="1.0" encoding="UTF-8" standalone="no"?>
<svg
   height="16"
   viewBox="0 0 16 16"
   width="16"
   version="1.1"
   id="svg4"
   xmlns="http://www.w3.org/2000/svg"
   xmlns:svg="http://www.w3.org/2000/svg">
  <defs
     id="defs8" />
  <path
     id="path3"
     d="M 14.230816,9.3842045 A 0.83077897,0.83077897 0 0 0 13.815427,8.6780424 V 5.6456989 h -0.830778 v 3.0323435 a 0.83077897,0.83077897 0 0 0 -0.41539,0.7061621 0.83077897,0.83077897 0 0 0 0.373851,0.6729315 l -0.373851,2.234795 c 0,0.307389 0.373851,0.556622 0.830779,0.556622 0.45693,0 0.830779,-0.249233 0.830779,-0.556622 L 13.856968,10.057136 A 0.83077897,0.83077897 0 0 0 14.230816,9.3842045 Z M 15.584986,5.2469256 8.1079751,3.1699774 a 0.3240038,0.3240038 0 0 0 -0.216002,0 L 0.41496215,5.2469256 a 0.41538952,0.41538952 0 0 0 0,0.8307786 l 7.47701095,2.0769473 0.108002,-0.016622 h 0.108 L 15.584986,6.0610823 a 0.41538952,0.41538952 0 0 0 0,-0.8307787 z M 8.1079751,8.9688148 h -0.108 -0.108002 L 3.8460801,7.8306481 v 2.7997249 c 0,0.913857 1.860945,1.661558 4.153895,1.661558 2.2929489,0 4.1538959,-0.747701 4.1538959,-1.661558 V 7.8306481 Z"
     style="fill:#000000;fill-opacity:1;stroke-width:0.830779" />
</svg>
