<?xml version="1.0" encoding="UTF-8" standalone="no"?>
<svg
   height="16"
   viewBox="0 0 16 16"
   width="16"
   version="1.1"
   id="svg4"
   xmlns="http://www.w3.org/2000/svg"
   xmlns:svg="http://www.w3.org/2000/svg">
  <defs
     id="defs8" />
  <path
     id="path8"
     d="M 9.1595034,-1.1176848e-5 C 9.0197714,1.2682315e-4 8.8788054,0.00618882 8.7394884,0.00198882 h -2.060636 -0.002 c -0.511118,-0.01179 -1.0070701,0.356749 -1.116094,0.861721 -0.06836,0.28154398 -0.03394,0.57103498 -0.04338,0.85777598 v 0.595514 h -3.90239 c -0.83442705,-1.25e-4 -1.52033605,0.68597 -1.52033605,1.520334 v 5.322159 c 0,0.673244 0.454038,1.2362492 1.06482705,1.4335722 v 3.886615 c 0,0.834067 0.684213,1.520334 1.518362,1.520334 H 13.322158 c 0.83415,0 1.518364,-0.686267 1.518364,-1.520334 v -3.839289 c 0.611212,-0.162649 1.064826,-0.8100752 1.064826,-1.4808982 v -5.322187 c 0,-0.833415 -0.68396,-1.520334 -1.518363,-1.520334 h -3.904363 c -0.0035,-0.424838 0.0063,-0.849284 -0.0059,-1.273848 C 10.440842,0.55551282 10.059015,0.11841282 9.5755644,0.03153882 9.4379094,0.00519882 9.2992254,-1.5117685e-4 9.1594934,-1.1176848e-5 Z M 6.6985724,0.99382682 c 0.01224,-7.64e-4 0.02514,1.11e-4 0.03747,0 0.03289,-2.96e-4 0.06542,-1.06e-4 0.09465,0 h 2.494453 c 0.158364,-0.0043 0.176966,0.16655498 0.16564,0.28592498 v 1.03722 h -2.979541 c 0.002,-0.397413 -0.0036,-0.795839 0.0039,-1.193 0.01834,-0.100598 0.09773,-0.12479598 0.183387,-0.13014498 z M 1.6150144,3.2279898 H 14.387011 c 0.348271,0 0.607345,0.259987 0.607345,0.609316 v 5.322159 c 0,0.349329 -0.259075,0.609317 -0.607345,0.609317 h -3.801824 v -1.674143 c 0,-0.834366 -0.6859686,-1.520335 -1.5203346,-1.520335 h -2.129652 c -0.834405,0 -1.518362,0.68692 -1.518364,1.520335 v 1.674143 h -3.801822 c -0.348194,0 -0.609318,-0.261127 -0.609318,-0.609317 v -5.322159 c 0,-0.348186 0.261189,-0.609369 0.609318,-0.609316 z m 5.320186,4.257332 h 2.129652 c 0.34819,0 0.609317,0.261128 0.609317,0.609317 v 1.725413 0.4022672 c 0,0.348465 -0.260854,0.609319 -0.609317,0.609318 h -2.129652 c -0.348464,0 -0.609318,-0.260853 -0.609318,-0.609318 V 9.8200518 l 0.002,-1.725413 c 3.99e-4,-0.349396 0.259074,-0.609317 0.607346,-0.609317 z m -4.864678,3.1925062 h 3.539561 c 0.204491,0.584574 0.666227,1.064827 1.325117,1.064826 h 2.129652 c 0.658798,0 1.1205416,-0.480389 1.3251166,-1.064826 h 3.541533 v 3.801824 c -10e-7,0.348466 -0.260853,0.609317 -0.609318,0.609317 H 2.6778674 c -0.348464,0 -0.607345,-0.260674 -0.607345,-0.609317 z"
     style="stroke-width:1.00961" />
</svg>
