<?xml version="1.0" encoding="UTF-8" standalone="no"?>
<svg
   height="16"
   viewBox="0 0 16 16"
   width="16"
   version="1.1"
   id="svg4"
   xmlns="http://www.w3.org/2000/svg"
   xmlns:svg="http://www.w3.org/2000/svg">
  <defs
     id="defs8" />
  <path
     id="path5625"
     style="fill:#000000"
     d="m 8,5.0000002 c -2.19729,0 -4,1.80271 -4,3.9999998 0,2.19729 1.80271,4 4,4 2.19729,0 4,-1.80271 4,-4 C 12,6.8027102 10.19729,5.0000002 8,5.0000002 Z m 0,2 C 9.11641,7.0000002 10,7.88359 10,9 10,10.11641 9.11641,11 8,11 6.88359,11 6,10.11641 6,9 6,7.88359 6.88359,7.0000002 8,7.0000002 Z m -1.5,-6 c -0.2652,5e-5 -0.51952,0.10543 -0.70703,0.29297 l -1.70703,1.70703 H 3 c -1.6447,0 -3,1.3553 -3,3 V 13 c 0,1.6447 1.3553,3 3,3 h 10 c 1.6447,0 3,-1.3553 3,-3 V 6.0000002 c 0,-1.6447 -1.3553,-3 -3,-3 h -1.08594 l -1.70703,-1.70703 C 10.01952,1.1054302 9.7652,1.0000502 9.5,1.0000002 Z m 0.41406,2 h 2.17188 l 1.70703,1.70703 c 0.18751,0.18754 0.44183,0.29292 0.70703,0.29297 H 13 c 0.5713,0 1,0.4287 1,1 V 13 c 0,0.5713 -0.4287,1 -1,1 H 3 C 2.4287,14 2,13.5713 2,13 V 6.0000002 c 0,-0.5713 0.4287,-1 1,-1 h 1.5 c 0.2652,-5e-5 0.51952,-0.10543 0.70703,-0.29297 z" />
</svg>
