<?xml version="1.0" encoding="UTF-8" standalone="no"?>
<svg
   height="16"
   viewBox="0 0 16 16"
   width="16"
   version="1.1"
   id="svg4"
   xmlns="http://www.w3.org/2000/svg"
   xmlns:svg="http://www.w3.org/2000/svg">
  <defs
     id="defs8" />
  <path
     d="m 13.370364,6.0382892 c 0.009,-0.252505 0.1151,-0.486861 0.2997,-0.658757 0.1847,-0.172483 0.42573,-0.26158 0.67851,-0.253573 0.52107,0.01863 0.93048,0.458514 0.91286,0.97906 -0.01,0.252505 -0.11552,0.486861 -0.2997,0.658223 -0.18471,0.173497 -0.42515,0.262648 -0.67904,0.254107 -0.52044,-0.01917 -0.92941,-0.458034 -0.9118,-0.97906 z m 2.52772,0.931014 c 0.043,-0.0284 0.0745,-0.05189 0.0878,-0.05712 l 0.0144,-0.02237 c -0.0363,-0.228483 -0.37689,-1.336198 -0.6342,-1.602583 -0.071,-0.0726 -0.1278,-0.144137 -0.24284,-0.211454 -0.93208,-0.542913 -3.14217,-0.87069 -3.24574,-0.885637 l -0.0176,0.0049 -0.007,0.01602 c 0,0 -0.009,0.458033 -0.01,0.509228 -0.22576,-0.07586 -1.8668304,-0.605907 -3.4053504,-0.65929 -1.3047,-0.04586 -3.20464,-0.214603 -5.72275,1.333528 l -0.0745,0.04634 c -1.18459,0.738832 -2.00242998,1.650095 -2.43002998,2.708696 -0.1341,0.333115 -0.31443,1.08476 -0.13571,1.792096 0.077,0.3091458 0.22053,0.6197858 0.41405,0.8979158 0.43743,0.628328 1.17123998,1.045255 1.96185998,1.115722 1.11572,0.09983 1.96078,-0.401393 2.26133,-1.339934 0.20665,-0.6475458 0,-1.5977788 -0.79221,-2.0825038 -0.64434,-0.39456 -1.33727,-0.304875 -1.73925,-0.03897 -0.3487,0.231205 -0.54611,0.590425 -0.54291,0.984932 0.008,0.6998618 0.61071,1.0719468 1.04419,1.0730148 0.12593,0 0.2524,-0.02189 0.39498,-0.06833 0.0508,-0.01548 0.0985,-0.03465 0.15113,-0.06721 l 0.0165,-0.0097 0.0104,-0.0069 -0.003,0.0021 c 0.0988,-0.06732 0.15823,-0.176807 0.15823,-0.294198 0,-0.03203 -0.004,-0.06449 -0.0137,-0.09716 -0.0512,-0.1772338 -0.22629,-0.2844828 -0.40774,-0.2514378 l -0.0245,0.0058 -0.0332,0.01014 -0.0481,0.01655 c -0.0998,0.02456 -0.17456,0.02669 -0.19052,0.02723 -0.0508,-0.0033 -0.30029,-0.07799 -0.30029,-0.351266 v -0.0037 c 0,-0.100362 0.0402,-0.170775 0.0625,-0.209265 0.0776,-0.121715 0.29014,-0.241188 0.57708,-0.216204 0.37684,0.03262 0.64861,0.225867 0.82852,0.590425 0.16704,0.338934 0.12331,0.7559148 -0.11264,1.0612708 -0.23436,0.302633 -0.65129,0.431234 -1.20648,0.371498 -0.55946,-0.06187 -1.03244,-0.38383 -1.29722,-0.885104 -0.25923998,-0.4899568 -0.27337998,-1.0708798 -0.0366,-1.5171688 0.5664,-1.069278 1.63621,-1.058068 2.2229,-0.956638 0.86802,0.150596 1.85562,0.9513 2.20582,1.875908 0.0566,0.147393 0.0854,0.264197 0.11061,0.371071 l 0.0378,0.1596178 0.98066,0.478799 0.0128,0.0097 0.0238,-0.0022 0.004,-0.02824 c -0.006,-0.02194 -0.0203,-0.04212 -0.043,-0.316566 -0.0186,-0.243537 -0.0566,-0.9101948 0.27909,-1.2406408 0.13031,-0.129135 0.3289,-0.244391 0.48574,-0.281279 0.64274,-0.157002 1.39652,-0.04869 2.1092,0.776201 0.3689304,0.426056 0.5487804,0.6203198 0.6390004,0.7073358 l 0.0315,0.0284 0.0371,0.02771 c 0.0296,0.01607 1.22569,0.566936 1.22569,0.566936 l 0.0246,-0.0059 4.8e-4,-0.02557 c -0.008,-0.0091 -0.75805,-0.9785248 -0.62459,-1.7766138 0.10511,-0.635801 0.61124,-0.578147 1.3111,-0.499139 0.22849,0.02669 0.48857,0.05659 0.75805,0.06257 0.75165,0.0048 1.56148,-0.134047 2.06062,-0.352387 0.32292,-0.140399 0.52898,-0.233821 0.65822,-0.351212 0.0464,-0.03849 0.0705,-0.100949 0.0956,-0.168159 l 0.0176,-0.04436 c 0.0209,-0.0545 0.0516,-0.169276 0.0651,-0.232215 0.005,-0.02771 0.009,-0.05701 -0.0111,-0.07255 l -0.0691,0.01281 c -0.2192,0.131912 -0.76713,0.381695 -1.27908,0.392371 -0.6358,0.01287 -1.91648,-0.639538 -2.04994,-0.708937 l -0.0129,-0.01489 c -0.0314,-0.07687 -0.22368,-0.531116 -0.26479,-0.62726 0.92194,0.607508 1.6864,0.943292 2.27202,0.995075 0.65181,0.05803 1.15949,-0.297562 1.37677,-0.449599 h -5e-5 z m -1.44937,-0.843464 c -0.1618,0 -0.29249,-0.08755 -0.29249,-0.194851 0,-0.108316 0.13069,-0.195385 0.29249,-0.195385 0.16181,0 0.29287,0.08707 0.29287,0.195385 -9e-5,0.107301 -0.13117,0.194851 -0.29287,0.194851 m -0.10789,-0.721216 c -0.17675,-0.0064 -0.34432,0.05611 -0.47244,0.17622 -0.12807,0.120114 -0.20361,0.282828 -0.20895,0.459048 -0.0123,0.364131 0.27285,0.670501 0.63634,0.683847 0.17665,0.0053 0.34507,-0.05712 0.47394,-0.177235 0.1286,-0.120701 0.20259,-0.283521 0.2082,-0.459047 0.0123,-0.364025 -0.27274,-0.669968 -0.63687,-0.68278 z"
     style="fill:#000000;stroke-width:0.0533838"
     id="path2" />
</svg>
