<?xml version="1.0" encoding="UTF-8" standalone="no"?>
<svg
   version="1.1"
   viewBox="0 0 16 16"
   id="svg1"
   width="16"
   height="16"
   xmlns="http://www.w3.org/2000/svg"
   xmlns:svg="http://www.w3.org/2000/svg">
  <defs
     id="defs1" />
  <path
     d="M 10,2.5 C 8.4375,2.503906 7.019531,3.414062 6.367188,4.832031 5.945312,4.617188 5.476562,4.5 5,4.5 3.34375,4.5 2,5.84375 2,7.5 2,7.847656 2.0625,8.195312 2.179688,8.523438 0.933594,8.683594 0,9.742188 0,11 c 0,1.378906 1.117188,2.5 2.5,2.5 H 13 c 1.65625,0 3,-1.34375 3,-3 C 16,9.167969 15.117188,7.996094 13.835938,7.625 13.945312,7.257812 14,6.878906 14,6.5 c 0,-2.210938 -1.792969,-4 -4,-4 z m 0,0"
     fill="#222222"
     id="path1-8"
     style="fill:#000000" />
</svg>
