<?xml version="1.0" encoding="UTF-8" standalone="no"?>
<svg
   height="16px"
   viewBox="0 0 16 16"
   width="16px"
   version="1.1"
   id="svg15572"
   xmlns="http://www.w3.org/2000/svg"
   xmlns:svg="http://www.w3.org/2000/svg">
  <defs
     id="defs15576" />
  <g
     id="g2"
     transform="matrix(0.28361726,0,0,0.28361726,30.531551,-9.3139997)"
     style="fill:#000000">
    <path
       id="path32"
       style="fill:#000000;fill-opacity:1;stroke-width:0.635293"
       class="st1"
       d="m -54.857656,64.668236 c -1.969414,0 -3.621173,-1.588235 -3.621173,-3.621176 0,-1.969412 1.588233,-3.621176 3.621173,-3.621176 1.969405,0 3.621172,1.588234 3.621172,3.621176 0,2.032941 -1.651767,3.621176 -3.621172,3.621176 z m 0,9.847059 c -1.969414,0 -3.621173,-1.588235 -3.621173,-3.621177 0,-1.969411 1.588233,-3.621176 3.621173,-3.621176 1.969405,0 3.621172,1.588236 3.621172,3.621176 0,1.969412 -1.651767,3.621177 -3.621172,3.621177 z m -9.847052,-19.694117 c -1.969406,0 -3.621173,-1.588236 -3.621173,-3.621177 0,-1.969412 1.588233,-3.621177 3.621173,-3.621177 1.969413,0 3.621172,1.588236 3.621172,3.621177 0,2.032941 -1.588233,3.621177 -3.621172,3.621177 z m 0,9.847058 c -1.969406,0 -3.621173,-1.588235 -3.621173,-3.621176 0,-1.969412 1.588233,-3.621176 3.621173,-3.621176 1.969413,0 3.621172,1.588234 3.621172,3.621176 0,2.032941 -1.588233,3.621176 -3.621172,3.621176 z m 0,9.847059 c -1.969406,0 -3.621173,-1.588235 -3.621173,-3.621177 0,-1.969411 1.588233,-3.621176 3.621173,-3.621176 1.969413,0 3.621172,1.588236 3.621172,3.621176 0,1.969412 -1.588233,3.621177 -3.621172,3.621177 z m -9.783518,-19.694117 c -1.969405,0 -3.621172,-1.588236 -3.621172,-3.621177 0,-1.969412 1.588232,-3.621177 3.621172,-3.621177 1.969414,0 3.621173,1.588236 3.621173,3.621177 -0.06354,2.032941 -1.651759,3.621177 -3.621173,3.621177 z m 0,9.847058 c -1.969405,0 -3.621172,-1.588235 -3.621172,-3.621176 0,-1.969412 1.588232,-3.621176 3.621172,-3.621176 1.969414,0 3.621173,1.588234 3.621173,3.621176 -0.06354,2.032941 -1.651759,3.621176 -3.621173,3.621176 z m -9.847043,-9.847058 c -1.969414,0 -3.621173,-1.588236 -3.621173,-3.621177 0,-1.969412 1.588233,-3.621177 3.621173,-3.621177 1.969405,0 3.621172,1.588236 3.621172,3.621177 0,2.032941 -1.651767,3.621177 -3.621172,3.621177 z m 0,9.847058 c -1.969414,0 -3.621173,-1.588235 -3.621173,-3.621176 0,-1.969412 1.588233,-3.621176 3.621173,-3.621176 1.969405,0 3.621172,1.588234 3.621172,3.621176 0,2.032941 -1.651767,3.621176 -3.621172,3.621176 z m -9.847052,-9.847058 c -1.969406,0 -3.621173,-1.588236 -3.621173,-3.621177 0,-1.969412 1.588233,-3.621177 3.621173,-3.621177 1.969413,0 3.621172,1.588236 3.621172,3.621177 0,2.032941 -1.588233,3.621177 -3.621172,3.621177 z m 0,9.847058 c -1.969406,0 -3.621173,-1.588235 -3.621173,-3.621176 0,-1.969412 1.588233,-3.621176 3.621173,-3.621176 1.969413,0 3.621172,1.588234 3.621172,3.621176 0,2.032941 -1.588233,3.621176 -3.621172,3.621176 z m 0,9.847059 c -1.969406,0 -3.621173,-1.588235 -3.621173,-3.621177 0,-1.969411 1.588233,-3.621176 3.621173,-3.621176 1.969413,0 3.621172,1.588236 3.621172,3.621176 0,1.969412 -1.588233,3.621177 -3.621172,3.621177 z m -9.847039,-9.847059 c -1.96942,0 -3.62118,-1.588235 -3.62118,-3.621176 0,-1.969412 1.58824,-3.621176 3.62118,-3.621176 1.9694,0 3.62117,1.588234 3.62117,3.621176 0,2.032941 -1.58824,3.621176 -3.62117,3.621176 z m 0,9.847059 c -1.96942,0 -3.62118,-1.588235 -3.62118,-3.621177 0,-1.969411 1.58824,-3.621176 3.62118,-3.621176 1.9694,0 3.62117,1.588236 3.62117,3.621176 0,1.969412 -1.58824,3.621177 -3.62117,3.621177 z" />
  </g>
</svg>
