<?xml version="1.0" encoding="UTF-8" standalone="no"?>
<svg
   height="16"
   viewBox="0 0 16 16"
   width="16"
   version="1.1"
   id="svg15572"
   xmlns="http://www.w3.org/2000/svg"
   xmlns:svg="http://www.w3.org/2000/svg">
  <defs
     id="defs15576" />
  <path
     d="M 7.8945317,0 C 3.5156248,0 0,3.6249999 0,7.9999995 0,12.417968 3.5820309,16 7.9999975,16 12.417972,16 16.000002,12.417968 16.000002,7.9999995 16.000002,3.5820309 12.417972,0 7.9999975,0 7.9647821,0 7.9297021,0 7.8945317,0 Z M 5.9257797,2.460938 C 6.16016,2.480468 6.3632796,2.6328119 6.4492194,2.8515619 6.4609161,3.0781248 6.2890595,3.2734378 6.0624995,3.2890615 5.8359396,3.2890615 5.65234,3.4726557 5.65234,3.6992187 v 1.1835929 c 0,0.4414073 -0.3554605,0.8007824 -0.7968701,0.8007824 -0.4414103,0 -0.7968801,0.3554678 -0.8007804,0.7968744 0,0.4375003 -0.3554708,0.7968751 -0.7968778,0.7968751 -0.4414059,0 -0.7968737,0.3554682 -0.7968737,0.7968748 0,0.4414062 0.3554678,0.796875 0.7968737,0.796875 0.441407,0 0.8007781,0.3554685 0.7968778,0.8007815 V 12.527343 C 2.7734381,11.390624 2.0390621,9.7617186 2.0390621,8.0507806 c 0,-1.4921871 0.5624998,-2.929687 1.5664068,-4.0273428 l 0.05469,-0.05078 c 0.2343753,-0.25 0.488284,-0.480468 0.7617244,-0.6835942 L 4.460981,3.2578167 C 4.9102013,2.925786 5.402381,2.6562549 5.929731,2.4609433 Z m 4.5312513,0.4335926 h 0.593747 c 0.480471,0.2812504 0.917971,0.6289072 1.304689,1.0351571 -0.03522,0.0078 -0.0703,0.011717 -0.105466,0.011717 h -1.79297 c -0.289063,0 -0.5195342,-0.2343746 -0.5195342,-0.5234367 0,-0.2929687 0.2304712,-0.523438 0.5195342,-0.5234387 z M 8.4062501,3.7656244 c 0.3203104,0 0.5781307,0.2578134 0.5781307,0.5820315 v 0.6328128 c 0,0.3203121 -0.2578203,0.5820312 -0.5781307,0.5820312 -0.3203108,0 -0.5820292,-0.2617191 -0.5820292,-0.5820312 V 4.3476559 c 0,-0.3242181 0.2617184,-0.5820315 0.5820292,-0.5820315 z m 2.2890569,0.6718753 h 2.085942 c 0.761723,1 1.187499,2.2187496 1.214839,3.476562 -0.125,0.1054688 -0.27734,0.1640629 -0.441398,0.1679689 l -1.128912,-0.0078 c -0.671869,0 -1.214839,0.5468751 -1.218747,1.21875 v 1.3476564 c 0.004,0.441406 -0.355471,0.796874 -0.792971,0.796874 -0.4453105,0.0039 -0.8007813,-0.355468 -0.8007813,-0.796874 V 9.7695406 c 0.089799,-0.3124998 -0.0898,-0.6367192 -0.3984369,-0.730469 -0.4023445,0 -0.726563,-0.3242178 -0.726563,-0.726562 V 7.0742289 C 8.4492008,6.6015716 8.8046916,6.1914161 9.2734389,6.1562597 c 0.3945292,0 0.7109416,-0.3164058 0.7148396,-0.7109377 V 5.1445406 c 0,-0.3906245 0.3164125,-0.7070309 0.7070285,-0.7109366 z m 0,0"
     fill="#222222"
     id="path1"
     style="fill:#000000;fill-opacity:1;stroke-width:0.999998" />
</svg>
