<?xml version="1.0" encoding="UTF-8" standalone="no"?>
<svg
   height="16"
   viewBox="0 0 16 16"
   width="16"
   version="1.1"
   id="svg4"
   xmlns="http://www.w3.org/2000/svg"
   xmlns:svg="http://www.w3.org/2000/svg">
  <defs
     id="defs8" />
  <path
     id="path20"
     style="fill:#000000;fill-opacity:1;stroke-width:1.26989"
     d="M 5.1466922,0 C 5.0197039,0 4.8937352,0.25449636 4.8937352,0.50847291 L 4.0033982,7.239848 c -0.1269882,1.6508478 1.2709391,3.428104 2.2868467,3.936058 0.2539759,0.126988 0.7623312,0.379564 1.1432953,0.379564 0.2539779,0 0.2539779,2.033135 0,2.795063 -1.1428938,0 -1.9047263,0.380464 -1.9047263,0.761431 0,0.507951 1.0163268,0.888036 2.4131985,0.888036 1.3968711,0 2.5398036,-0.380085 2.5398036,-0.888036 0,-0.380967 -0.8909939,-0.634443 -2.033889,-0.761431 -0.2539759,-0.761928 -0.2539759,-2.795063 0,-2.795063 0.380965,0 1.0159239,-0.252576 1.2699028,-0.379564 C 11.241687,10.159998 11.877689,8.7637069 12.004676,7.239848 L 11.11664,0.50847291 C 11.11664,0.25449636 10.988751,0 10.734773,0 Z m 0.3810992,0.50744972 h 4.8417416 c 0.220052,0 0.330712,0.22038377 0.330712,0.44043706 l 0.279813,2.28403382 c 0.01413,0.115336 -0.06278,0.1766248 -0.172135,0.1373483 C 9.5617719,2.9216929 9.1044063,2.81229 8.2264288,3.9524266 8.0976253,4.1196893 7.7462209,4.3432168 7.5525572,4.4271371 6.0409631,5.0821596 5.2763593,4.4099476 5.0065298,4.0214849 4.9503453,3.9405987 4.9334635,3.7846549 4.9464241,3.6866815 L 5.3085947,0.94788678 c 0,-0.22005329 0.1091711,-0.44043706 0.2191967,-0.44043706 z" />
</svg>
