<?xml version="1.0" encoding="UTF-8" standalone="no"?>
<svg
   height="16"
   viewBox="0 0 16 16"
   width="16"
   version="1.1"
   id="svg4"
   xmlns="http://www.w3.org/2000/svg"
   xmlns:svg="http://www.w3.org/2000/svg">
  <defs
     id="defs8" />
  <path
     id="path1"
     d="m 8.004365,0.300022 c -4.417962,0 -7.995059,3.51146 -8.002874,7.846582 H 0 v 6.073915 H 0.0015 C 0.0036,15.203678 0.816611,16 1.81931,16 H 8.005014 C 12.423749,15.997198 16,12.486407 16,8.153631 16.000006,3.818508 12.419211,0.307049 7.997339,0.307049 Z m 1.62617,3.228491 -8.61e-4,0.0026 c 1.343441,0 2.611836,1.008924 2.611836,2.40082 0,0.129109 8.61e-4,0.258193 -0.02066,0.404573 C 12.18363,6.706792 11.838701,6.973 11.463021,6.920794 11.087343,6.867974 10.832251,6.517959 10.90173,6.151893 c 0.0064,-0.04178 0.0087,-0.107399 0.0087,-0.220173 0,-0.78934 -0.658519,-1.09405 -1.281005,-1.09405 -0.622328,0 -1.183124,0.51322 -1.183907,1.09405 0.01075,0.671565 0,1.338048 0,2.008597 l 1.154948,-0.0085 c 0.901882,-0.01832 0.912076,1.313881 0.01043,1.307622 l -1.16517,0.0083 c -0.0028,0.540191 0.0043,0.442555 0.0015,0.714603 0,0 0.0097,0.660693 -0.01043,1.161337 -0.139423,1.470831 -1.416052,2.646331 -2.950187,2.646331 -1.626355,0 -2.965944,-1.303703 -2.965944,-2.902702 0.04882,-1.644329 1.385664,-2.937782 3.069851,-2.922932 l 0.939461,-0.0068 v 1.305066 l -0.939461,0.0085 h -0.0049 c -0.925325,0.02685 -1.718638,0.64346 -1.733488,1.615523 0,0.885469 0.729425,1.595081 1.6349,1.595081 0.904226,0 1.627873,-0.645366 1.627873,-1.593591 l -0.0015,-4.94324 c 5.78e-4,-0.09175 0.0036,-0.164533 0.01384,-0.26574 0.152631,-1.20902 1.255144,-2.130608 2.50324,-2.130608 z"
     style="stroke-width:0.412051;fill:#000000" />
</svg>
