<?xml version="1.0" encoding="UTF-8" standalone="no"?>
<svg
   height="16"
   viewBox="0 0 16 16"
   width="16"
   version="1.1"
   id="svg4"
   xmlns="http://www.w3.org/2000/svg"
   xmlns:svg="http://www.w3.org/2000/svg">
  <defs
     id="defs8" />
  <path
     d="M 1.0331343,14.318004 C 0.88470433,14.091476 0.17327433,12.492158 0.05954433,12.129355 c -0.0582,-0.185668 -0.0752,-0.422445 -0.0449,-0.624509 0.0464,-0.309307 0.0653,-0.331094 0.38208,-0.439017 0.52628,-0.179323 0.63175997,-0.156045 0.70895997,0.156466 l 0.0667,0.270024 0.57606,0.02269 c 0.31683,0.01248 0.74777,0.0019 0.95765,-0.02363 l 0.38161,-0.04632 -0.0434,-0.336405 c -0.0239,-0.185021 -0.0607,-0.457915 -0.0819,-0.606428 l -0.0385,-0.270025 h 1.44646 c 1.33038,0 1.44629,-0.01011 1.44436,-0.126011 -0.001,-0.06931 -0.0331,-0.5472498 -0.071,-1.0620968 -0.0379,-0.514848 -0.071,-1.602685 -0.0736,-2.417417 -0.004,-1.375795 -0.0148,-1.489888 -0.14505,-1.601441 -0.1036,-0.0887 -0.14028,-0.2123481 -0.14028,-0.4728351 0,-0.346103 0.005,-0.353611 0.25202,-0.400004 l 0.25203,-0.04728 v -0.820564 c 0,-0.4693689 -0.0308,-0.8396099 -0.072,-0.8650659 -0.0396,-0.02448 -0.072,-0.237007 -0.072,-0.472292 v -0.427786 h 0.97209 0.97209 v 0.417638 c 0,0.229701 -0.0287,0.448421 -0.0638,0.486045 -0.081,0.08687 -0.18294,1.5445409 -0.10802,1.5445409 0.0307,0 0.91094,-0.0834 1.95616,-0.185335 1.0452297,-0.101935 1.9462097,-0.167757 2.0021997,-0.146274 0.14712,0.05645 0.14172,0.804927 -0.006,0.861694 -0.0846,0.03245 -0.10821,0.17873 -0.10893,0.6737651 -10e-4,0.708305 -0.1909,3.091138 -0.25452,3.194079 -0.0756,0.122367 0.19524,0.06854 1.14674,-0.227864 0.51967,-0.1618891 1.17169,-0.3583171 1.44891,-0.436507 0.27723,-0.07819 0.87269,-0.253564 1.32325,-0.3897201 0.45055,-0.1361549 0.84398,-0.247555 0.87427,-0.247555 0.12227,0 0.13372,0.372443 0.0323,1.0497991 -0.19812,1.3227359 -0.52328,2.2611398 -1.06418,3.0711388 -0.42177,0.6316 -1.45925,1.692067 -2.49596,2.551255 l -0.8983,0.744484 h -5.1665897 -5.16659 z m 7.11186,-3.584355 c 0.78997,-0.196958 0.95139,-0.267092 1.04077,-0.452188 0.0418,-0.0865 0.12387,-0.9349378 0.18245,-1.8854248 0.0989,-1.605461 0.0979,-1.743494 -0.0148,-1.944177 -0.18814,-0.335146 -0.53633,-0.479844 -1.08885,-0.452503 -0.50397,0.02494 -0.78959,0.17036 -0.93077,0.473892 -0.0491,0.105533 -0.0769,0.933069 -0.0769,2.286209 0,2.4537688 -0.10442,2.2216458 0.88809,1.9741918 z M 14.561274,8.8915862 c 0.026,-0.103683 0.0278,-0.208053 0.004,-0.231936 -0.0584,-0.05839 -0.17713,0.137462 -0.17851,0.294437 -0.002,0.193522 0.12142,0.149456 0.17461,-0.0625 z"
     style="fill:#000000;stroke-width:0.0720066"
     id="path1-9" />
</svg>
