<?xml version="1.0" encoding="UTF-8" standalone="no"?>
<svg
   height="16px"
   viewBox="0 0 16 16"
   width="16px"
   version="1.1"
   id="svg15572"
   xmlns="http://www.w3.org/2000/svg"
   xmlns:svg="http://www.w3.org/2000/svg">
  <defs
     id="defs15576" />
  <path
     id="path313222"
     style="fill:#000000;fill-opacity:1;fill-rule:nonzero;stroke-width:1.14286"
     d="M 8,0 C 5.487205,0 3.428711,2.058489 3.428711,4.571289 v 2.286133 c -1.266285,0 -2.286133,1.018864 -2.286133,2.285156 v 3.428711 1.142578 1.143555 C 1.142578,15.490565 1.652994,16 2.286133,16 h 11.427734 c 0.633139,0 1.143555,-0.509435 1.143555,-1.142578 V 13.713867 12.571289 9.142578 c 0,-1.266292 -1.019845,-2.285156 -2.286133,-2.285156 V 4.571289 C 12.571289,2.058489 10.512795,0 8,0 Z m 0,2.286133 c 1.286052,0 2.286133,0.999099 2.286133,2.285156 V 6.857422 H 5.713867 V 4.571289 C 5.713867,3.285232 6.713948,2.286133 8,2.286133 Z m 0,6.70996 a 1.5,1.5 0 0 1 1.5,1.5 1.5,1.5 0 0 1 -0.863281,1.337892 l 0.002,1.399414 c 1.47e-4,0.353278 -0.283439,0.637695 -0.636719,0.637694 -0.35328,0 -0.638526,-0.284416 -0.638672,-0.637694 l -0.001,-1.399414 a 1.5,1.5 0 0 1 -0.862278,-1.337892 1.5,1.5 0 0 1 1.5,-1.5 z" />
</svg>
