<?xml version="1.0" encoding="UTF-8" standalone="no"?>
<svg
   version="1.1"
   viewBox="0 0 16 16"
   id="svg1"
   width="16"
   height="16"
   xmlns="http://www.w3.org/2000/svg"
   xmlns:svg="http://www.w3.org/2000/svg">
  <defs
     id="defs1" />
  <path
     id="path8-4-4-2"
     style="fill:#000000;fill-opacity:1;fill-rule:evenodd;stroke:none;stroke-width:0.0881887;stroke-linecap:square"
     d="M 4.0000004,6e-8 1.3339844,2.6660157 V 13.333984 16 h 2.666016 2.701172 c 0.202173,0 0.380892,-0.129985 0.443359,-0.322266 l 0.482422,-1.486328 c 0.04613,-0.14206 0.156768,-0.252668 0.298828,-0.298828 l 0.371094,-0.121094 c 0.142067,-0.0462 0.299063,-0.02139 0.419921,0.06641 l 1.263672,0.917969 c 0.1635536,0.118819 0.3852746,0.118819 0.5488276,0 l 1.13086,-0.822266 c 0.163574,-0.118827 0.232395,-0.329198 0.169922,-0.521484 l -0.482422,-1.486329 c -0.0462,-0.142066 -0.02139,-0.297108 0.06641,-0.417968 l 0.228516,-0.316407 c 0.08779,-0.120847 0.229533,-0.191393 0.378906,-0.191406 h 1.560547 c 0.202187,6e-6 0.382846,-0.131933 0.445313,-0.324219 l 0.43164,-1.3300779 c 0.06247,-0.19228 -0.0064,-0.402651 -0.169922,-0.5214843 L 13.025391,7.90625 C 12.904537,7.8184434 12.833984,7.6767304 12.833984,7.5273438 V 7.1386719 c 1.4e-5,-0.14938 0.07055,-0.2911129 0.191407,-0.3789062 l 1.449218,-1.0527344 c 0.120874,-0.087793 0.191407,-0.2275731 0.191407,-0.3769532 V 2.6660157 6e-8 H 12 Z m 0,2.66601564 H 9.3339844 12 V 5.3339844 H 6.6660154 v 2 h 2.667969 v 2.6660155 h -2.667969 v 3.3339841 h -2.666015 v -2.667968 z" />
</svg>
