<?xml version="1.0" encoding="UTF-8" standalone="no"?>
<svg
   height="16"
   viewBox="0 0 16 16"
   width="16"
   version="1.1"
   id="svg135"
   xml:space="preserve"
   xmlns="http://www.w3.org/2000/svg"
   xmlns:svg="http://www.w3.org/2000/svg"><defs
     id="defs139" /><g
     id="g2"
     transform="matrix(0.45857386,0,0,0.45857386,-59.689635,-21.930853)"
     style="fill:#000000;fill-opacity:1"><g
       style="fill:#000000;fill-opacity:1"
       id="g1"
       transform="matrix(0.05767058,0,0,0.05767058,118.13939,37.897006)"><path
         fill-rule="evenodd"
         clip-rule="evenodd"
         d="m 737.5,227.5 c 15.268,6.925 28.935,16.259 41,28 7.447,9.116 14.114,18.783 20,29 3.411,7.249 6.411,14.582 9,22 1.983,9.233 3.316,18.566 4,28 2.075,10.39 -0.591,19.223 -8,26.5 -11.477,5.416 -20.144,2.583 -26,-8.5 -0.678,-8.335 -1.512,-16.668 -2.5,-25 -0.406,-3.242 -1.239,-6.242 -2.5,-9 -1.656,-7.638 -4.656,-14.638 -9,-21 -6.028,-11.389 -14.362,-20.723 -25,-28 -17.596,-11.291 -36.929,-15.791 -58,-13.5 -32.274,6.11 -53.941,24.61 -65,55.5 -5.055,12.733 -7.388,26.066 -7,40 -5.271,10.761 -13.605,14.094 -25,10 -5.085,-2.801 -8.252,-7.134 -9.5,-13 -0.653,-6.362 -0.487,-12.695 0.5,-19 0.518,-8.592 2.185,-16.925 5,-25 2.412,-7.903 5.412,-15.57 9,-23 35.633,-55.957 85.3,-73.957 149,-54 z"
         fill="#d9d5e5"
         id="path1"
         style="fill:#000000;fill-opacity:1" /><path
         fill-rule="evenodd"
         clip-rule="evenodd"
         d="m 710.5,340.5 c 0.209,1.422 0.709,2.755 1.5,4 2.706,11.246 -0.794,19.746 -10.5,25.5 -14.945,4.532 -24.612,-0.634 -29,-15.5 -0.336,-7.163 1.997,-13.33 7,-18.5 11.533,-7.026 21.866,-5.526 31,4.5 z"
         fill="#d7d4e4"
         id="path2"
         style="fill:#000000;fill-opacity:1" /><path
         d="m 520.5,409.5 c 16.769,3.057 32.103,9.391 46,19 13.209,10.541 23.876,23.208 32,38 3.793,8.379 6.793,17.045 9,26 1.713,5.896 3.046,11.896 4,18 0.776,7.975 1.11,15.975 1,24 0.518,10.326 0.851,20.659 1,31 -0.013,12.345 0.321,24.678 1,37 0.402,12.273 2.402,24.273 6,36 0.941,1.55 1.607,3.216 2,5 5.306,13.964 13.973,25.298 26,34 22.476,16.654 47.142,20.488 74,11.5 26.212,-10.045 43.212,-28.545 51,-55.5 3.506,-14.784 4.839,-29.784 4,-45 v -44 -37 -31 -24 c -0.166,-5.344 10e-4,-10.677 0.5,-16 0.562,-1.123 1.117,-2.234 1.667,-3.334 L 780.5,431.5 c 5.052,-6.455 11.719,-8.789 20,-7 7.097,2.097 11.431,6.764 13,14 v 25 31 37 44 29 c -0.664,4.973 -0.997,9.973 -1,15 -1.656,8.632 -3.323,17.299 -5,26 -3.078,8.834 -6.745,17.501 -11,26 -3.315,5.947 -7.148,11.613 -11.5,17 -5.037,4.869 -9.87,9.869 -14.5,15 -21.702,16.791 -46.368,25.458 -74,26 -14.1,0.705 -27.767,-1.295 -41,-6 -9.723,-3.361 -18.723,-8.027 -27,-14 -6.964,-5.297 -13.298,-11.297 -19,-18 -3.012,-4.038 -6.012,-8.038 -9,-12 -4.293,-8.25 -8.293,-16.583 -12,-25 -0.129,-1.716 -0.462,-3.383 -1,-5 -3.95,-11.032 -6.616,-22.366 -8,-34 -0.564,-12.487 -1.231,-24.821 -2,-37 0.329,-14.843 -0.004,-29.51 -1,-44 0.323,-6.522 -0.01,-12.855 -1,-19 -0.039,-4.233 -0.705,-8.233 -2,-12 -1.207,-8.974 -4.541,-16.974 -10,-24 -10.915,-17.146 -26.582,-27.312 -47,-30.5 -40.429,-4.205 -67.929,12.628 -82.5,50.5 -2.451,6.469 -3.951,13.135 -4.5,20 -0.995,12.155 -1.329,24.489 -1,37 v 20 25 30 38 43 c -2.383,13.537 -10.383,19.037 -24,16.5 -3.097,-1.273 -5.764,-3.107 -8,-5.5 -1.153,-2.307 -2.32,-4.64 -3.5,-7 -0.5,-11.328 -0.667,-22.662 -0.5,-34 v -38 -30 -25 -20 -29 c 1.556,-16.206 -1.111,-31.539 -8,-46 -4.701,-12.019 -12.034,-22.019 -22,-30 -8.983,-8.292 -19.649,-13.459 -32,-15.5 -42.403,-5.15 -69.403,12.683 -81,53.5 -4.143,13.226 -5.81,26.893 -5,41 v 49 29 20 25 31 c 0.339,7.074 -0.161,14.074 -1.5,21 -6.107,11.035 -14.94,13.868 -26.5,8.5 -5.227,-4.287 -7.894,-9.787 -8,-16.5 v -31 -24 -20 -29 -49 c -0.025,-12.679 0.308,-25.345 1,-38 1.009,-8.39 2.343,-16.723 4,-25 4.533,-15.727 11.2,-30.393 20,-44 26.602,-30.765 60.269,-43.432 101,-38 18.184,3.508 35.184,10.175 51,20 9.285,7.285 17.618,15.618 25,25 27.726,-36.19 64.393,-52.19 110,-48 z"
         fill="#d9d5e5"
         id="path3"
         style="fill:#000000;fill-opacity:1" /></g></g></svg>
