<?xml version="1.0" encoding="UTF-8" standalone="no"?>
<svg
   height="16"
   viewBox="0 0 16 16"
   width="16"
   version="1.1"
   id="svg4"
   xmlns="http://www.w3.org/2000/svg"
   xmlns:svg="http://www.w3.org/2000/svg">
  <defs
     id="defs8" />
  <path
     style="display:inline;vector-effect:none;fill:#000000;fill-opacity:1;stroke:none;stroke-width:2.61861;stroke-linecap:butt;stroke-linejoin:round;stroke-miterlimit:4;stroke-dasharray:none;stroke-dashoffset:0;stroke-opacity:0.437008;enable-background:new"
     d="m 1,2.499999 c -0.554001,0 -1,0.4460002 -1,1.0000002 v 9.0000018 c 0,0.554 0.445999,1 1,1 h 14 c 0.554001,0 1,-0.446 1,-1 V 3.4999992 C 16,2.9459992 15.554001,2.499999 15,2.499999 Z M 1,5.4999996 H 15 V 9.5000002 H 1 Z m 2.999998,1.0000003 a 1.0000002,1.0000002 0 0 0 -1,1.0000002 1.0000002,1.0000002 0 0 0 1,0.9999999 1.0000002,1.0000002 0 0 0 1,-0.9999999 1.0000002,1.0000002 0 0 0 -1,-1.0000002 z m 2.000003,0 V 8.5 h 4 V 6.4999999 Z m 6,0 a 1.0000002,1.0000002 0 0 0 -1,1.0000002 1.0000002,1.0000002 0 0 0 1,0.9999999 A 1.0000002,1.0000002 0 0 0 13,7.5000001 1.0000002,1.0000002 0 0 0 12.000001,6.4999999 Z M 4.999998,10.5 h 6.000003 l 1,2.000001 H 3.999998 Z"
     id="rect2029" />
</svg>
