<?xml version="1.0" encoding="UTF-8" standalone="no"?>
<svg
   version="1.1"
   viewBox="0 0 16 16"
   id="svg1"
   width="16"
   height="16"
   xmlns="http://www.w3.org/2000/svg"
   xmlns:svg="http://www.w3.org/2000/svg">
  <defs
     id="defs1" />
  <path
     d="m 1.2096214,13.104238 0.7056129,1.218786 c 0.146621,0.256587 0.3573883,0.45819 0.6048112,0.604811 l 2.5200458,-4.36197 H -4.624828e-7 c 0,0.284078 0.0733104724828,0.568156 0.2199314124828,0.824742 z"
     fill="#0066da"
     id="path1-4"
     style="fill:#000000;fill-opacity:1;stroke-width:0.183276" />
  <path
     d="M 7.9999998,5.434135 5.4799538,1.072165 C 5.2325312,1.2187856 5.0217638,1.4203893 4.8751428,1.6769759 L 0.21993095,9.7411226 A 1.6604811,1.6604811 0 0 0 -4.624828e-7,10.565865 H 5.0400913 Z"
     fill="#00ac47"
     id="path2"
     style="opacity:0.6;fill:#000000;fill-opacity:1;stroke-width:0.183276" />
  <path
     d="m 13.479954,14.927835 c 0.247423,-0.146621 0.45819,-0.348224 0.604811,-0.604811 l 0.293242,-0.504009 1.402062,-2.428408 C 15.926689,11.134021 16,10.849943 16,10.565865 h -5.040458 l 1.072531,2.107675 z"
     fill="#ea4335"
     id="path3-7"
     style="opacity:0.9;fill:#000000;fill-opacity:1;stroke-width:0.183276" />
  <path
     d="M 7.9999998,5.434135 10.520045,1.072165 C 10.272623,0.92554402 9.988545,0.85223355 9.6953031,0.85223355 h -3.390607 c -0.2932416,0 -0.5773197,0.0824742 -0.8247423,0.21993145 z"
     fill="#00832d"
     id="path4-8"
     style="opacity:0.8;fill:#000000;fill-opacity:1;stroke-width:0.183276" />
  <path
     d="M 10.959908,10.565865 H 5.0400913 l -2.5200458,4.36197 c 0.2474227,0.146621 0.5315005,0.219931 0.8247421,0.219931 h 9.3104244 c 0.293241,0 0.577319,-0.08247 0.824742,-0.219931 z"
     fill="#2684fc"
     id="path5"
     style="opacity:0.8;fill:#000000;fill-opacity:1;stroke-width:0.183276" />
  <path
     d="M 13.452463,5.7090491 11.124856,1.6769759 C 10.978236,1.4203893 10.767468,1.2187856 10.520045,1.072165 l -2.5200452,4.36197 2.9599082,5.13173 h 5.030928 c 0,-0.284078 -0.07331,-0.5681558 -0.219931,-0.8247424 z"
     fill="#ffba00"
     id="path6"
     style="opacity:0.7;fill:#000000;fill-opacity:1;stroke-width:0.183276" />
</svg>
