<?xml version="1.0" encoding="UTF-8" standalone="no"?>
<svg
   version="1.1"
   viewBox="0 0 16 16"
   id="svg1"
   width="16"
   height="16"
   xmlns="http://www.w3.org/2000/svg"
   xmlns:svg="http://www.w3.org/2000/svg">
  <defs
     id="defs1" />
  <path
     id="path3"
     d="m 12.314789,8.3741308 h 0.787427 V 7.6186188 H 12.314789 V 6.7993041 H 11.52736 v 0.8193147 h -0.787328 v 0.755512 h 0.787328 v 0.819305 h 0.787429 z M 5.166,7.6185892 H 2.8037733 v 0.755512 H 5.166 Z M 16,7.9963353 c 0,-2.1103947 -1.762816,-3.8111325 -3.937043,-3.8111325 -0.199725,-0.00529 -0.399645,0.00538 -0.59769,0.031899 C 9.764544,4.4689385 8.6296053,5.6660065 8.0000107,6.6112268 7.370424,5.6660065 6.2371547,4.4689385 4.5330613,4.217102 4.3349973,4.190534 4.135136,4.1798681 3.9353707,4.1852028 1.764536,4.1852028 0,5.8859406 0,7.9963353 0,10.10672 1.764536,11.815858 3.9370427,11.815858 c 0.1994266,0.0024 0.398736,-0.01101 0.5960186,-0.0403 1.7024134,-0.251832 2.83568,-1.448892 3.4652667,-2.3924412 0.6295973,0.9435492 1.764536,2.1406092 3.465259,2.3924412 0.198042,0.02653 0.397965,0.0372 0.59769,0.03191 2.142291,-0.0319 3.937043,-1.732644 3.937043,-3.8111327 z M 4.3147973,10.422354 c -0.1350213,0.02507 -0.2724053,0.03521 -0.4096506,0.03023 -1.4169974,0 -2.58216,-1.1013616 -2.58216,-2.4562443 0,-1.3548829 1.1651626,-2.4562541 2.614056,-2.4562541 0.137336,-0.00525 0.2747973,0.00546 0.4096613,0.031906 1.6067147,0.2199339 2.58216,1.794751 2.8977947,2.4243475 C 6.896968,8.625922 5.9215227,10.170523 4.3147973,10.422354 Z M 8.7303387,7.9963353 c 0.335784,-0.6295965 1.2860373,-2.2044136 2.8927303,-2.4243475 0.134371,-0.026459 0.271211,-0.037157 0.408051,-0.031907 1.448893,0 2.614016,1.1013712 2.614016,2.4562541 0,1.3548827 -1.165123,2.4562441 -2.582179,2.4562441 -0.137237,0.005 -0.27457,-0.0052 -0.409632,-0.03023 C 10.016376,10.170523 9.0392587,8.625922 8.7303387,7.9963353 Z"
     style="fill:#000000;fill-opacity:1;stroke-width:0.0988733" />
</svg>
