<?xml version="1.0" encoding="UTF-8" standalone="no"?>
<svg
   height="16"
   viewBox="0 0 16 16"
   width="16"
   version="1.1"
   id="svg4"
   sodipodi:docname="folder-wine-symbolic.svg"
   inkscape:version="1.4 (e7c3feb100, 2024-10-09)"
   xmlns:inkscape="http://www.inkscape.org/namespaces/inkscape"
   xmlns:sodipodi="http://sodipodi.sourceforge.net/DTD/sodipodi-0.dtd"
   xmlns="http://www.w3.org/2000/svg"
   xmlns:svg="http://www.w3.org/2000/svg">
  <sodipodi:namedview
     id="namedview1"
     pagecolor="#505050"
     bordercolor="#ffffff"
     borderopacity="1"
     inkscape:showpageshadow="0"
     inkscape:pageopacity="0"
     inkscape:pagecheckerboard="1"
     inkscape:deskcolor="#505050"
     inkscape:zoom="37.375"
     inkscape:cx="3.826087"
     inkscape:cy="7.1705686"
     inkscape:window-width="2560"
     inkscape:window-height="1403"
     inkscape:window-x="0"
     inkscape:window-y="0"
     inkscape:window-maximized="1"
     inkscape:current-layer="svg4" />
  <defs
     id="defs8" />
  <path
     id="path20"
     style="display:none;fill:#000000;fill-opacity:1;stroke-width:1.26989"
     d="M 5.1466922,0 C 5.0197039,0 4.8937352,0.25449636 4.8937352,0.50847291 L 4.0033982,7.239848 c -0.1269882,1.6508478 1.2709391,3.428104 2.2868467,3.936058 0.2539759,0.126988 0.7623312,0.379564 1.1432953,0.379564 0.2539779,0 0.2539779,2.033135 0,2.795063 -1.1428938,0 -1.9047263,0.380464 -1.9047263,0.761431 0,0.507951 1.0163268,0.888036 2.4131985,0.888036 1.3968711,0 2.5398036,-0.380085 2.5398036,-0.888036 0,-0.380967 -0.8909939,-0.634443 -2.033889,-0.761431 -0.2539759,-0.761928 -0.2539759,-2.795063 0,-2.795063 0.380965,0 1.0159239,-0.252576 1.2699028,-0.379564 C 11.241687,10.159998 11.877689,8.7637069 12.004676,7.239848 L 11.11664,0.50847291 C 11.11664,0.25449636 10.988751,0 10.734773,0 Z m 0.3810992,0.50744972 h 4.8417416 c 0.220052,0 0.330712,0.22038377 0.330712,0.44043706 l 0.279813,2.28403382 c 0.01413,0.115336 -0.06278,0.1766248 -0.172135,0.1373483 C 9.5617719,2.9216929 9.1044063,2.81229 8.2264288,3.9524266 8.0976253,4.1196893 7.7462209,4.3432168 7.5525572,4.4271371 6.0409631,5.0821596 5.2763593,4.4099476 5.0065298,4.0214849 4.9503453,3.9405987 4.9334635,3.7846549 4.9464241,3.6866815 L 5.3085947,0.94788678 c 0,-0.22005329 0.1091711,-0.44043706 0.2191967,-0.44043706 z" />
  <path
     id="path20-6"
     style="display:inline;fill:#000000;fill-opacity:1;stroke-width:1.26109"
     d="m 5.3379919,0.01736242 c -0.1261115,0 -0.8069779,-0.10068894 -0.8069779,0.18288378 L 3.5369287,7.7160233 c -0.1417882,1.8432193 1.7560347,2.9888557 2.7649025,3.4932907 0.2522181,0.126109 0.7570546,0.376937 1.1353793,0.376937 0.2522184,0 0.2522184,2.019053 0,2.775706 -1.1349793,0 -1.891535,0.377829 -1.891535,0.756156 0,0.504434 1.0092877,0.881887 2.3964854,0.881887 1.3871977,0 2.5222171,-0.377453 2.5222171,-0.881887 0,-0.378327 -0.8848262,-0.630047 -2.0198058,-0.756156 -0.2522181,-0.756653 -0.2522181,-2.775706 0,-2.775706 0.3783297,0 1.0088877,-0.250828 1.2611109,-0.376937 C 11.218988,10.200442 12.328803,9.4174568 12.470592,7.7160233 L 11.479069,0.2002462 c 0,-0.28357272 -0.511268,-0.18288378 -0.763486,-0.18288378 z M 5.544658,0.81096527 h 4.808212 c 0.218531,0 0.328423,0.0851106 0.328423,0.30363853 l 0.277876,2.2057385 c 0.01441,0.1144884 -0.06234,0.1754014 -0.170942,0.1363972 C 9.5507031,3.0122633 9.0965058,2.9036175 8.2246105,4.0358585 8.096696,4.201963 7.7477286,4.4239423 7.5554051,4.5072816 6.0542753,5.1577682 5.2949685,4.4902086 5.0270098,4.1044393 4.971214,4.0241098 4.954446,3.8692496 4.9673175,3.7719536 L 5.3269831,1.1146038 c 0,-0.21852982 0.1084153,-0.30363853 0.2176749,-0.30363853 z"
     sodipodi:nodetypes="sccsscssscscccsssscsssssccs" />
</svg>
