<?xml version="1.0" encoding="UTF-8" standalone="no"?>
<svg
   height="16"
   viewBox="0 0 16 16"
   width="16"
   version="1.1"
   id="svg15572"
   xml:space="preserve"
   xmlns="http://www.w3.org/2000/svg"
   xmlns:svg="http://www.w3.org/2000/svg"><defs
     id="defs15576" /><path
     d="M 8,12.546633 C 3.5820001,12.546633 1e-7,10.147966 1e-7,7.1886336 c 0,-2.9593333 3.582,-5.358 7.9999999,-5.358 4.418,0 8,2.3993332 8,5.358 C 16,10.1473 12.418,12.546633 8,12.546633 Z M 9.2246669,3.9253003 c -3.3586668,0 -6.0806668,1.64 -6.0806668,3.6633332 0,2.023333 2.722,3.6626655 6.0799998,3.6626655 3.3580001,0 5.8373331,-1.121333 5.8373331,-3.6626655 0,-2.5413333 -2.478666,-3.6633332 -5.8366661,-3.6633332 z M 12.183333,10.1293 a 6.0253332,6.0253332 0 0 1 0.766,0.288666 1.4806666,1.4806666 0 0 1 0.388,0.277334 1.0486666,1.0486666 0 0 1 0.177334,0.255333 l 1.908666,3.217333 -3.084666,0.0014 -1.442001,-2.708667 a 3.486,3.486 0 0 0 -0.477333,-0.654711 0.502,0.502 0 0 0 -0.366,-0.166666 H 9.3206669 v 3.528 L 6.592,14.167988 V 5.1579669 h 5.480667 c 0,0 2.496,0.044667 2.496,2.4199999 A 2.5479999,2.5479999 0 0 1 12.183333,10.1293 Z M 10.996667,7.1119669 9.3439999,7.1113003 v 1.5319999 h 1.6526671 a 0.75599998,0.75599998 0 0 0 0.765334,-0.78 0.71333332,0.71333332 0 0 0 -0.765334,-0.7513333 z"
     id="path438"
     style="fill:#000000;stroke-width:0.666666" /></svg>
