<?xml version="1.0" encoding="UTF-8" standalone="no"?>
<svg
   height="16"
   viewBox="0 0 16 16"
   width="16"
   version="1.1"
   id="svg4"
   xmlns="http://www.w3.org/2000/svg"
   xmlns:svg="http://www.w3.org/2000/svg">
  <defs
     id="defs8" />
  <path
     d="M 7.132173,2.4075325 0,6.2664855 7.166628,10.780084 13.562326,6.8866745 h 0.228263 v 3.1655485 c -0.0043,0.03446 -0.0086,0.07322 -0.0086,0.111978 0,0.03877 0.0043,0.07752 0.0086,0.116286 v 1.007807 c 0.03014,0.766622 0.486677,1.335129 0.882909,1.714133 0.396232,0.374698 0.788157,0.590041 0.788157,0.590041 L 16,12.627729 c 0,0 -0.279947,-0.155047 -0.568507,-0.42638 -0.279946,-0.267025 -0.50821,-0.607268 -0.534051,-0.930284 0.607268,-0.0043 1.09825,-0.499595 1.09825,-1.106864 -0.0043,-0.6115745 -0.495275,-1.1068645 -1.102545,-1.1068645 v -3.27322 h -1.451414 z m 0.03445,3.342129 c 0.607268,0 1.102558,0.245491 1.102558,0.551279 0,0.305788 -0.49529,0.551279 -1.102558,0.551279 -0.607268,0 -1.1025585,-0.245491 -1.1025585,-0.551279 0,-0.305788 0.4952905,-0.551279 1.1025585,-0.551279 z m -4.3757778,3.772816 c -0.012921,0.09906 -0.034455,0.198116 -0.034455,0.30148 0,2.0113075 1.9725448,3.6436105 4.4102328,3.6436105 2.437687,0 4.410232,-1.632303 4.410232,-3.6436105 0,-0.07752 -0.03014,-0.150739 -0.03445,-0.228263 L 7.166628,12.36501 Z m 0,0"
     fill="#222222"
     id="path1"
     style="fill:#000000;stroke-width:1.10256" />
</svg>
