<?xml version="1.0" encoding="UTF-8" standalone="no"?>
<!-- Generator: Adobe Illustrator 24.0.3, SVG Export Plug-In . SVG Version: 6.00 Build 0)  -->

<svg
   version="1.1"
   id="Layer_1"
   x="0px"
   y="0px"
   viewBox="0 0 16 16"
   xml:space="preserve"
   width="16"
   height="16"
   xmlns="http://www.w3.org/2000/svg"
   xmlns:svg="http://www.w3.org/2000/svg"><defs
   id="defs9" />
<style
   type="text/css"
   id="style2">
	.st0{fill:#175ddc;}
</style>
<path
   class="st0"
   d="M 14.467955,0.197681 C 14.338225,0.067952 14.177605,-2e-6 13.998455,-2e-6 H 2.001545 c -0.17915,0 -0.33977,0.06795 -0.4695,0.197683 -0.12973,0.12973 -0.19768,0.290348 -0.19768,0.469498 v 8 c 0,0.599228 0.11737,1.186101 0.34595,1.772973 0.23474,0.586873 0.51892,1.105791 0.86486,1.562934 0.34595,0.457143 0.75367,0.895754 1.22934,1.328186 0.47568,0.432433 0.91429,0.790733 1.31584,1.074904 0.40154,0.28417 0.82162,0.555984 1.26023,0.809266 0.43861,0.253282 0.74749,0.426255 0.93281,0.512741 0.18533,0.09266 0.33359,0.160618 0.44479,0.210039 0.0803,0.04324 0.17298,0.06178 0.27182,0.06178 0.0988,0 0.18533,-0.01853 0.27181,-0.06178 0.1112,-0.04942 0.25946,-0.117375 0.44479,-0.210039 0.18533,-0.09266 0.49421,-0.259459 0.93282,-0.512741 0.43861,-0.253282 0.85868,-0.525096 1.26023,-0.809266 0.40154,-0.284171 0.84015,-0.642471 1.31583,-1.074904 0.47568,-0.432432 0.8834,-0.871043 1.22934,-1.328186 0.34595,-0.457143 0.63012,-0.976061 0.86487,-1.562934 0.23475,-0.586872 0.34594,-1.179923 0.34594,-1.772973 v -8 c 0,-0.17915 -0.0679,-0.33359 -0.19768,-0.469498 z m -1.5444,8.543629 c 0,2.897297 -4.91738,5.386873 -4.91738,5.386873 V 1.711195 h 4.91738 z"
   id="path4"
   style="fill:#000000;stroke-width:0.061776" />
</svg>
