<?xml version="1.0" encoding="UTF-8" standalone="no"?>
<svg
   width="16"
   height="16"
   version="1.1"
   id="svg2959"
   xmlns="http://www.w3.org/2000/svg"
   xmlns:svg="http://www.w3.org/2000/svg">
  <defs
     id="defs2953">
    <style
       id="current-color-scheme"
       type="text/css">
   .ColorScheme-Text { color:#dfdfdf; } .ColorScheme-Highlight { color:#4285f4; } .ColorScheme-NeutralText { color:#ff9800; } .ColorScheme-PositiveText { color:#4caf50; } .ColorScheme-NegativeText { color:#f44336; }
  </style>
  </defs>
  <path
     style="fill:currentColor;stroke-width:1.14275"
     class="ColorScheme-NeutralText"
     d="m 11.940685,0.50033982 c -0.05776,9.348e-4 -0.11608,0.00322 -0.174109,0.0067 -0.265276,0.015926 -0.534645,0.060225 -0.801346,0.1316695 C 8.8316148,1.2103109 7.5654568,3.4018712 8.1370798,5.5350318 8.7087428,7.6680916 10.90083,8.9341809 13.034445,8.3625801 15.168058,7.7909777 16.434217,5.5994175 15.862593,3.4662571 15.378021,1.6581567 13.731448,0.47134002 11.940685,0.50034122 Z m 0.06026,1.14262388 a 0.57143358,0.57131193 0 0 1 0.571432,0.5713119 v 2.85656 a 0.57143358,0.57131193 0 0 1 -0.571428,0.571312 0.57143358,0.57131193 0 0 1 -0.571434,-0.571312 v -2.85656 a 0.57143358,0.57131193 0 0 1 0.571434,-0.5713119 z m 0,4.570496 a 0.57143358,0.57131193 0 0 1 0.571432,0.571312 0.57143358,0.57131193 0 0 1 -0.571432,0.5713118 0.57143358,0.57131193 0 0 1 -0.571434,-0.5713118 0.57143358,0.57131193 0 0 1 0.571434,-0.571312 z"
     id="path2955" />
  <path
     style="color:#dfdfdf;fill:#000000;stroke-width:0.999898;opacity:0.35"
     class="ColorScheme-Text"
     d="m 1.732078,1.502141 c -0.04178,-9.83e-4 -0.08221,2.35e-4 -0.123034,0.002 C 0.384452,1.556101 -0.427744,2.8229 0.240043,3.87304 l 0.06445,0.06445 6.706348,0.736254 A 4.9994906,4.9994906 0 0 1 6.999121,4.501889 4.9994906,4.9994906 0 0 1 7.610387,2.13299 L 1.859021,1.510006 c -0.0425,-0.0039 -0.08516,-0.0068 -0.126941,-0.0078 z m -0.843664,3.505502 4.659682,8.131985 c 0.584133,-0.09438 0.693079,-0.245267 1.05458,-0.747971 L 9.12195,8.577593 A 4.9994906,4.9994906 0 0 1 7.155354,5.697026 Z M 9.992956,9.075589 7.426812,12.959958 6.844838,13.76847 c -0.25902,0.311153 -0.778291,0.310893 -0.972556,-0.06249 l 0.583924,0.995993 c 0.129511,0.186691 0.259123,0.311041 0.388633,0.435502 0.712306,0.560074 1.877891,0.498219 2.460687,-0.373009 L 12.971167,9.393915 A 4.9994906,4.9994906 0 0 1 11.99861,9.501327 4.9994906,4.9994906 0 0 1 9.992956,9.075589 Z"
     id="path2701" />
</svg>
