<?xml version="1.0" encoding="UTF-8" standalone="no"?>
<svg
   width="16"
   height="16"
   version="1.1"
   id="svg3085"
   xmlns="http://www.w3.org/2000/svg"
   xmlns:svg="http://www.w3.org/2000/svg">
  <defs
     id="defs3081">
    <style
       id="current-color-scheme"
       type="text/css">
   .ColorScheme-Text { color:#dfdfdf; } .ColorScheme-Highlight { color:#4285f4; } .ColorScheme-NeutralText { color:#ff9800; } .ColorScheme-PositiveText { color:#4caf50; } .ColorScheme-NegativeText { color:#f44336; }
  </style>
  </defs>
  <path
     style="fill:#000000;stroke-width:0.999869"
     class="ColorScheme-Text"
     d="m 1.7319777,0.99966656 c -0.04177,-9.8157e-4 -0.082217,2.3264e-4 -0.1230307,0.00195 -1.22442047,0.051961 -2.03665398,1.318721 -1.36896088,2.3688297 l 0.0644445,0.064445 10.74859038,1.1814854 c 0.325084,0.028396 0.566734,0.2007764 0.699125,0.4315846 0.0012,0.00204 0.0028,0.00378 0.0039,0.00589 0.154459,0.2740892 0.153077,0.6291827 -0.05664,0.9315175 L 7.4265676,12.457177 6.8446134,13.265665 c -0.2589839,0.311144 -0.778291,0.310884 -0.972529,-0.0625 l 0.5839079,0.995963 c 0.1294919,0.186685 0.2591288,0.311032 0.3886211,0.43549 0.7122063,0.560057 1.8779006,0.498203 2.4606146,-0.372998 l 6.409315,-9.3952913 c 0.362201,-0.5063528 0.35302,-1.108817 0.09765,-1.5954934 l 0.002,-0.00195 c -0.006,-0.011377 -0.01329,-0.021951 -0.01953,-0.033198 -0.0061,-0.011002 -0.01121,-0.022325 -0.01758,-0.033199 -0.0052,-0.00888 -0.01175,-0.016944 -0.01758,-0.025387 C 15.500552,2.7528498 15.048101,2.4334885 14.48421,2.3764389 L 1.8589142,1.007478 C 1.8164242,1.003588 1.7737482,1.000648 1.7319777,0.99967 Z M 0.88833847,4.5050655 5.5478829,12.636811 c 0.5840512,-0.09438 0.693099,-0.24526 1.0545499,-0.747949 L 10.762043,5.5908607 Z"
     id="path3083" />
</svg>
