<?xml version="1.0" encoding="UTF-8" standalone="no"?>
<svg
   width="16"
   height="16"
   version="1.1"
   id="svg2831"
   xmlns="http://www.w3.org/2000/svg"
   xmlns:svg="http://www.w3.org/2000/svg">
  <defs
     id="defs2825">
    <style
       id="current-color-scheme"
       type="text/css">
   .ColorScheme-Text { color:#dfdfdf; } .ColorScheme-Highlight { color:#4285f4; } .ColorScheme-NeutralText { color:#ff9800; } .ColorScheme-PositiveText { color:#4caf50; } .ColorScheme-NegativeText { color:#f44336; }
  </style>
  </defs>
  <path
     style="fill:#000000;stroke-width:0.999737"
     class="ColorScheme-Text"
     d="m 11.939298,0.50034155 c -0.05776,9.3785e-4 -0.115774,0.004325 -0.173803,0.007806 -0.265274,0.0159237 -0.533968,0.0593661 -0.800666,0.1308092 C 8.8312329,1.2105378 7.5654889,3.4024342 8.1371069,5.5355163 8.7087659,7.6684977 10.901249,8.9341368 13.034845,8.3625565 15.16844,7.7909756 16.434185,5.5990789 15.862566,3.4659974 15.377998,1.6579649 13.730046,0.47134194 11.939298,0.50034155 Z M 10.50005,2.5015267 a 0.49992866,0.49980822 0 0 1 0.353466,0.1464282 l 1.146321,1.1460446 1.14632,-1.1460446 a 0.49992866,0.49980822 0 0 1 0.706931,0 0.49992866,0.49980822 0 0 1 0,0.7067601 l -1.146321,1.1460446 1.146321,1.1460445 a 0.49992866,0.49980822 0 0 1 0,0.7067609 0.49992866,0.49980822 0 0 1 -0.706931,0 L 11.999837,5.2075195 10.853516,6.353565 a 0.49992866,0.49980822 0 0 1 -0.706931,0 0.49992866,0.49980822 0 0 1 0,-0.7067609 L 11.292906,4.5007596 10.146585,3.354715 a 0.49992866,0.49980822 0 0 1 0,-0.7067601 0.49992866,0.49980822 0 0 1 0.353465,-0.1464282 z"
     id="path2829" />
  <path
     style="color:#dfdfdf;fill:#000000;stroke-width:0.999898;opacity:0.35"
     class="ColorScheme-Text"
     d="m 1.7320783,1.5021408 c -0.041777,-9.826e-4 -0.082215,2.357e-4 -0.1230344,0.00195 -1.2245923,0.051963 -2.0367878,1.3187597 -1.3690011,2.3688993 l 0.064446,0.064446 6.7063491,0.7362536 A 4.9994906,4.9994906 0 0 1 6.9991189,4.5018354 4.9994906,4.9994906 0 0 1 7.6103849,2.1329359 L 1.8590184,1.5099525 c -0.042496,-0.00389 -0.085163,-0.00683 -0.1269401,-0.00781 z m -0.843664,3.5055021 4.6596816,8.1319851 c 0.584133,-0.09438 0.693079,-0.245267 1.05458,-0.747971 L 9.1219499,8.577593 A 4.9994906,4.9994906 0 0 1 7.1553539,5.6970259 Z m 9.1045406,4.0679457 -2.566144,3.8843694 -0.581973,0.808512 c -0.25902,0.311153 -0.778291,0.310893 -0.972557,-0.06249 l 0.583925,0.995993 c 0.129511,0.186691 0.259123,0.311041 0.388632,0.435502 0.712307,0.560074 1.877892,0.498219 2.460688,-0.373009 L 12.971167,9.3939152 A 4.9994906,4.9994906 0 0 1 11.99861,9.5013268 4.9994906,4.9994906 0 0 1 9.9929549,9.0755886 Z"
     id="path2701" />
</svg>
