<?xml version="1.0" encoding="UTF-8" standalone="no"?>
<svg
   width="24"
   height="24"
   version="1"
   id="svg141"
   xmlns="http://www.w3.org/2000/svg"
   xmlns:svg="http://www.w3.org/2000/svg">
  <defs
     id="defs137">
    <style
       id="current-color-scheme"
       type="text/css">
   .ColorScheme-Text { color:#dfdfdf; } .ColorScheme-Highlight { color:#4285f4; } .ColorScheme-NeutralText { color:#ff9800; } .ColorScheme-PositiveText { color:#4caf50; } .ColorScheme-NegativeText { color:#f44336; }
  </style>
  </defs>
  <path
     style="fill:#000000;stroke-width:1.375"
     class="ColorScheme-Text"
     d="M 6.5,1 A 5.5,5.5 0 0 0 1,6.5 5.5,5.5 0 0 0 2.5334,10.30875 9.625,9.625 0 0 0 2.375,12 9.625,9.625 0 0 0 12,21.625 9.625,9.625 0 0 0 13.70225,21.469625 5.5,5.5 0 0 0 17.5,23 5.5,5.5 0 0 0 23,17.5 5.5,5.5 0 0 0 21.466875,13.69125 9.625,9.625 0 0 0 21.625,12 9.625,9.625 0 0 0 12,2.375 9.625,9.625 0 0 0 10.29775,2.5307875 5.5,5.5 0 0 0 6.5,1 Z M 12,7.998475 v 2.75 h 5.5 v 2.75 H 12 v 2.75 l -6.875,-4.125 z"
     id="path139" />
</svg>
