<?xml version="1.0" encoding="UTF-8" standalone="no"?>
<svg
   width="16"
   height="16"
   version="1"
   id="svg399"
   xmlns="http://www.w3.org/2000/svg"
   xmlns:svg="http://www.w3.org/2000/svg">
  <defs
     id="defs391">
    <style
       id="current-color-scheme"
       type="text/css">
   .ColorScheme-Text { color:#dfdfdf; } .ColorScheme-Highlight { color:#4285f4; } .ColorScheme-NeutralText { color:#ff9800; } .ColorScheme-PositiveText { color:#4caf50; } .ColorScheme-NegativeText { color:#f44336; }
  </style>
  </defs>
  <path
     style="fill:#000000;stroke-width:0.888887"
     class="ColorScheme-Text"
     d="M 3.5555556,1.3333332 A 3.5555556,3.5555556 0 0 0 1.5454548e-8,4.8888887 3.5555556,3.5555556 0 0 0 0.99128891,7.3506667 6.2222222,6.2222222 0 0 0 0.8888889,8.4444442 6.2222222,6.2222222 0 0 0 7.1111113,14.666666 6.2222222,6.2222222 0 0 0 8.2115557,14.566222 3.5555556,3.5555556 0 0 0 10.666667,15.555556 3.5555556,3.5555556 0 0 0 14.222222,12 3.5555556,3.5555556 0 0 0 13.231111,9.5377773 6.2222222,6.2222222 0 0 0 13.333333,8.4444442 6.2222222,6.2222222 0 0 0 7.1111113,2.2222221 6.2222222,6.2222222 0 0 0 6.0104,2.3229332 3.5555556,3.5555556 0 0 0 3.5555556,1.3333332 Z M 7.224,4.8888887 c 1.7543113,0 2.6597331,0.9265778 2.6597331,1.4704889 0,0.5457335 -0.2621418,0.6267379 -0.6927105,0.6267379 -0.83672,0 -0.4935113,-1.0069334 -2.0608001,-1.0069334 -0.5186225,0 -1.166667,0.2359644 -1.166667,0.842009 0,0.4872 0.5739556,0.6667113 1.5868445,0.9166218 1.5271113,0.4088895 2.672,0.8168895 2.672,2.218667 0,1.3608891 -1.1084443,2.0435561 -2.8631113,2.0435561 -1.7540442,0 -2.8747554,-1.049779 -2.8747554,-1.593779 0,-0.5439102 0.2065867,-0.6805502 0.6371556,-0.6805502 0.8380533,0 0.7261956,1.1458662 2.2934224,1.1458662 0.5204443,0 1.2881774,-0.237617 1.2881774,-0.845484 0,-0.4853779 -0.040953,-0.6532979 -1.1528,-0.953156 C 6.3629334,8.9120442 4.4447111,8.5253773 4.4447111,7.0434224 c 0,-1.3608003 1.0270222,-2.1527114 2.7813333,-2.1527114 l -0.00175,-0.00177 z"
     id="path395" />
  <circle
     style="fill:currentColor;stroke-width:0.888887"
     class="ColorScheme-Highlight"
     cx="14.222222"
     cy="2.2222221"
     r="1.7777778"
     id="circle397" />
</svg>
