<?xml version="1.0" encoding="UTF-8" standalone="no"?>
<svg
   width="16"
   height="16"
   version="1"
   id="svg269"
   xmlns="http://www.w3.org/2000/svg"
   xmlns:svg="http://www.w3.org/2000/svg">
  <defs
     id="defs263">
    <style
       id="current-color-scheme"
       type="text/css">
   .ColorScheme-Text { color:#dfdfdf; } .ColorScheme-Highlight { color:#4285f4; } .ColorScheme-NeutralText { color:#ff9800; } .ColorScheme-PositiveText { color:#4caf50; } .ColorScheme-NegativeText { color:#f44336; }
  </style>
  </defs>
  <path
     style="fill:#000000;stroke-width:0.888887"
     class="ColorScheme-Text"
     d="M 3.5555556,1.3333329 A 3.5555556,3.5555556 0 0 0 0,4.8888885 3.5555556,3.5555556 0 0 0 0.9912889,7.3506665 6.2222222,6.2222222 0 0 0 0.8888889,8.444444 6.2222222,6.2222222 0 0 0 7.1111113,14.666666 6.2222222,6.2222222 0 0 0 8.2115557,14.566222 3.5555556,3.5555556 0 0 0 10.666667,15.555556 3.5555556,3.5555556 0 0 0 14.222222,12 3.5555556,3.5555556 0 0 0 13.231112,9.5377767 6.2222222,6.2222222 0 0 0 13.333333,8.444444 6.2222222,6.2222222 0 0 0 7.1111113,2.2222218 6.2222222,6.2222222 0 0 0 6.0104,2.3229329 3.5555556,3.5555556 0 0 0 3.5555556,1.3333329 Z M 7.1111113,5.8575996 V 7.6355552 H 10.666667 V 9.4133327 H 7.1111113 V 11.191111 L 2.6666667,8.524444 Z"
     id="path265" />
  <circle
     style="fill:currentColor;stroke-width:0.888887"
     class="ColorScheme-Highlight"
     cx="14.222222"
     cy="2.2222221"
     r="1.7777778"
     id="circle267" />
</svg>
