<?xml version="1.0" encoding="UTF-8" standalone="no"?>
<svg
   width="24"
   height="24"
   version="1"
   id="svg655"
   xmlns="http://www.w3.org/2000/svg"
   xmlns:svg="http://www.w3.org/2000/svg">
  <defs
     id="defs649">
    <style
       id="current-color-scheme"
       type="text/css">
   .ColorScheme-Text { color:#dfdfdf; } .ColorScheme-Highlight { color:#4285f4; } .ColorScheme-NeutralText { color:#ff9800; } .ColorScheme-PositiveText { color:#4caf50; } .ColorScheme-NegativeText { color:#f44336; }
  </style>
  </defs>
  <path
     style="fill:#000000;stroke-width:1.375"
     class="ColorScheme-Text"
     d="M 6.5,1 A 5.5,5.5 0 0 0 1,6.5 5.5,5.5 0 0 0 2.5334,10.30875 9.625,9.625 0 0 0 2.375,12 9.625,9.625 0 0 0 12,21.625 9.625,9.625 0 0 0 13.70225,21.469625 5.5,5.5 0 0 0 17.5,23 5.5,5.5 0 0 0 23,17.5 5.5,5.5 0 0 0 21.466875,13.69125 9.625,9.625 0 0 0 21.625,12 9.625,9.625 0 0 0 12,2.375 9.625,9.625 0 0 0 10.29775,2.5307875 5.5,5.5 0 0 0 6.5,1 Z M 12,3.873475 v 1.375 a 6.875,6.875 0 0 1 6.869637,6.746163 1.375,1.375 0 0 1 0.0054,0.128906 1.375,1.375 0 0 1 -1.375,1.375 1.375,1.375 0 0 1 -1.375,-1.375 4.125,4.125 0 0 0 -4.125,-4.125 v 1.375 L 7.875,6.6235438 12,3.8735437 Z M 6.5,10.74875 a 1.375,1.375 0 0 1 1.375,1.375 4.125,4.125 0 0 0 4.125,4.125 v -1.375 l 4.125,2.75 -4.125,2.75 v -1.375 A 6.875,6.875 0 0 1 5.1303625,12.253 1.375,1.375 0 0 1 5.125,12.12375 1.375,1.375 0 0 1 6.5,10.74875 Z"
     id="path651" />
  <path
     style="fill:currentColor"
     class="ColorScheme-Text"
     d="m-22.069-4.0812"
     id="path653" />
</svg>
