<?xml version="1.0" encoding="UTF-8" standalone="no"?>
<svg
   width="16"
   height="16"
   version="1"
   id="svg655"
   xmlns="http://www.w3.org/2000/svg"
   xmlns:svg="http://www.w3.org/2000/svg">
  <defs
     id="defs649">
    <style
       id="current-color-scheme"
       type="text/css">
   .ColorScheme-Text { color:#dfdfdf; } .ColorScheme-Highlight { color:#4285f4; } .ColorScheme-NeutralText { color:#ff9800; } .ColorScheme-PositiveText { color:#4caf50; } .ColorScheme-NegativeText { color:#f44336; }
  </style>
  </defs>
  <path
     style="fill:#000000;stroke-width:0.888875"
     class="ColorScheme-Text"
     d="M 3.5555,1.333 A 3.5555,3.5555 0 0 0 0,4.8885 3.5555,3.5555 0 0 0 0.9912734,7.3506837 6.222125,6.222125 0 0 0 0.888875,8.444 6.222125,6.222125 0 0 0 7.111,14.666125 6.222125,6.222125 0 0 0 8.2114272,14.565682 3.5555,3.5555 0 0 0 10.6665,15.555 3.5555,3.5555 0 0 0 14.222,11.9995 3.5555,3.5555 0 0 0 13.230904,9.5373162 6.222125,6.222125 0 0 0 13.333125,8.444 6.222125,6.222125 0 0 0 7.111,2.221875 6.222125,6.222125 0 0 0 6.0105727,2.3225845 3.5555,3.5555 0 0 0 3.5555,1.333 Z M 7.111,3.190571 v 0.888875 a 4.444375,4.444375 0 0 1 4.440908,4.3610877 0.888875,0.888875 0 0 1 0.0035,0.083332 0.888875,0.888875 0 0 1 -0.888875,0.888875 0.888875,0.888875 0 0 1 -0.888875,-0.888875 2.666625,2.666625 0 0 0 -2.6666251,-2.666625 v 0.888875 L 4.444375,4.9683655 7.111,3.1906154 Z M 3.5555,7.6351237 A 0.888875,0.888875 0 0 1 4.444375,8.5239987 2.666625,2.666625 0 0 0 7.111,11.190624 V 10.301749 L 9.777625,12.079499 7.111,13.857249 V 12.968374 A 4.444375,4.444375 0 0 1 2.6700916,8.607553 0.888875,0.888875 0 0 1 2.666625,8.5239987 0.888875,0.888875 0 0 1 3.5555,7.6351237 Z"
     id="path651" />
  <path
     style="fill:currentColor"
     class="ColorScheme-Text"
     d="M -22.069,-4.0812"
     id="path653" />
</svg>
