<?xml version="1.0" encoding="UTF-8" standalone="no"?>
<svg
   width="16"
   height="16"
   version="1.1"
   id="svg10190"
   xmlns="http://www.w3.org/2000/svg"
   xmlns:svg="http://www.w3.org/2000/svg">
  <defs
     id="defs10184">
    <style
       id="current-color-scheme"
       type="text/css">
   .ColorScheme-Text { color:#dfdfdf; } .ColorScheme-Highlight { color:#4285f4; } .ColorScheme-NeutralText { color:#ff9800; } .ColorScheme-PositiveText { color:#4caf50; } .ColorScheme-NegativeText { color:#f44336; }
  </style>
  </defs>
  <path
     style="fill:#000000;stroke-width:0.812473"
     d="M 5.4378423,5.2693685 V 6.8943159 H 8.6877374 V 5.2693685 L 11.125157,7.7067896 8.6877374,10.14421 V 8.519263 H 5.4378423 v 1.624948 L 3.0004212,7.7067896 Z M 7.0627896,1.207 c -3.5891342,2e-7 -6.4997894,2.9106554 -6.4997896,6.4997896 2e-7,3.5891354 2.9106554,6.4997904 6.4997896,6.4997904 1.3743329,-0.0026 2.7113625,-0.440627 3.8209634,-1.251541 L 9.1640335,11.236945 11.458075,8.9364031 12.954401,10.43273 c 0.396953,-0.8535842 0.605895,-1.7845752 0.608178,-2.7259404 0,-3.5891345 -2.910655,-6.4997899 -6.4997894,-6.4997896 z"
     id="path6453" />
  <path
     style="fill:#ed333b;fill-opacity:1;stroke-width:0.812473"
     d="m 11.450149,10.14421 -1.137465,1.137465 1.707804,1.706194 -1.707804,1.707804 1.137465,1.135855 1.706194,-1.706194 1.707803,1.706194 L 16,14.695673 14.293806,12.987869 16,11.281675 14.864146,10.14421 13.156343,11.852014 Z"
     id="path10186" />
</svg>
