<?xml version="1.0" encoding="UTF-8" standalone="no"?>
<svg
   width="16"
   height="16"
   version="1.1"
   id="svg10062"
   xmlns="http://www.w3.org/2000/svg"
   xmlns:svg="http://www.w3.org/2000/svg">
  <defs
     id="defs10056">
    <style
       id="current-color-scheme"
       type="text/css">
   .ColorScheme-Text { color:#dfdfdf; } .ColorScheme-Highlight { color:#4285f4; } .ColorScheme-NeutralText { color:#ff9800; } .ColorScheme-PositiveText { color:#4caf50; } .ColorScheme-NegativeText { color:#f44336; }
  </style>
  </defs>
  <path
     style="fill:#ff7800;stroke-width:0.81249;fill-opacity:1"
     d="M 12.581857,9.162902 16,12.581857 12.581857,16 11.432916,14.851139 12.889709,13.394346 8.6875958,13.393534 v -1.62498 l 4.2021132,8.14e-4 -1.456793,-1.457607 z"
     id="path6467" />
  <path
     style="fill:#000000;stroke-width:0.81249"
     d="m 13.562532,7.7069206 c -0.0012,0.3949586 -0.04122,0.7892068 -0.113934,1.1774155 l -0.869414,-0.8691702 -2.26661,2.2972101 0.644161,0.644159 -3.0816294,3.42e-4 v 3.192032 c -0.2693142,0.03592 -0.5407966,0.05597 -0.8124892,0.05792 -3.5890063,-2e-6 -6.49991545,-2.91053 -6.49991545,-6.499537 0,-3.5890028 2.91090115,-6.5002113 6.49991545,-6.5002924 3.5890156,-8.05e-5 6.4999156,2.9109098 6.4999156,6.4999161 z M 8.6875958,5.2694524 V 6.8944313 H 5.4376375 L 5.4365675,5.2702123 3.000167,7.7069206 5.437635,10.144389 V 8.5194099 H 8.687592 V 10.144389 L 11.12506,7.7069206 Z"
     id="path10058" />
</svg>
