<?xml version="1.0" encoding="UTF-8" standalone="no"?>
<svg
   width="16"
   height="16"
   version="1"
   id="svg566"
   xmlns="http://www.w3.org/2000/svg"
   xmlns:svg="http://www.w3.org/2000/svg">
  <defs
     id="defs570" />
  <path
     id="path3-8"
     style="fill:#000000;stroke-width:0.15881"
     d="M 8,0 C 3.581328,0 0,3.581327 0,8 c 0,4.418673 3.582973,8 8,8 4.417027,0 8,-3.581327 8,-8 C 16,3.581327 12.418672,0 8,0 Z M 6.967969,1.193749 a 6.8876195,6.8876195 0 0 0 -0.323698,0.07057 6.8876195,6.8876195 0 0 1 0.323698,-0.07057 z m 2.064062,0 A 6.8876195,6.8876195 0 0 1 9.355729,1.264319 6.8876195,6.8876195 0 0 0 9.032031,1.193749 Z M 5.960417,1.428385 A 6.8876195,6.8876195 0 0 0 5.584896,1.568489 6.8876195,6.8876195 0 0 1 5.960417,1.428385 Z m 4.079166,0 a 6.8876195,6.8876195 0 0 1 0.375521,0.140104 6.8876195,6.8876195 0 0 0 -0.375521,-0.140104 z m -1.30625,0.358594 a 6.2577784,6.2577784 0 0 1 5.479688,5.479688 H 8.733333 Z M 7.266667,1.799999 V 7.266666 H 1.8 A 6.2577784,6.2577784 0 0 1 7.266667,1.799999 Z M 4.99974,1.810939 A 6.8876195,6.8876195 0 0 0 4.621615,2.01745 6.8876195,6.8876195 0 0 1 4.99974,1.810939 Z m 6.00052,0 A 6.8876195,6.8876195 0 0 1 11.378385,2.01745 6.8876195,6.8876195 0 0 0 11.00026,1.810939 Z M 4.107292,2.332294 A 6.8876195,6.8876195 0 0 0 3.752083,2.59844 6.8876195,6.8876195 0 0 1 4.107292,2.332294 Z m 7.785416,0 A 6.8876195,6.8876195 0 0 1 12.247917,2.59844 6.8876195,6.8876195 0 0 0 11.892708,2.332294 Z M 3.298177,2.9862 A 6.8876195,6.8876195 0 0 0 2.986198,3.29818 6.8876195,6.8876195 0 0 1 3.298177,2.9862 Z m 9.403646,0 a 6.8876195,6.8876195 0 0 1 0.31198,0.31198 6.8876195,6.8876195 0 0 0 -0.31198,-0.31198 z M 2.598437,3.752085 a 6.8876195,6.8876195 0 0 0 -0.266145,0.35521 6.8876195,6.8876195 0 0 1 0.266145,-0.35521 z m 10.803126,0 a 6.8876195,6.8876195 0 0 1 0.266145,0.35521 6.8876195,6.8876195 0 0 0 -0.266145,-0.35521 z M 2.017448,4.621617 A 6.8876195,6.8876195 0 0 0 1.810937,4.999742 6.8876195,6.8876195 0 0 1 2.017448,4.621617 Z m 11.965104,0 A 6.8876195,6.8876195 0 0 1 14.189063,4.999742 6.8876195,6.8876195 0 0 0 13.982552,4.621617 Z M 1.56849,5.584899 A 6.8876195,6.8876195 0 0 0 1.428385,5.960419 6.8876195,6.8876195 0 0 1 1.56849,5.584899 Z m 12.863021,0 a 6.8876195,6.8876195 0 0 1 0.140104,0.37552 6.8876195,6.8876195 0 0 0 -0.140104,-0.37552 z M 1.264323,6.644272 A 6.8876195,6.8876195 0 0 0 1.193753,6.96797 6.8876195,6.8876195 0 0 1 1.264323,6.644272 Z m 13.471354,0 a 6.8876195,6.8876195 0 0 1 0.07057,0.323698 6.8876195,6.8876195 0 0 0 -0.07057,-0.323698 z M 1.8,8.733333 H 7.266667 V 14.2 A 6.2577784,6.2577784 0 0 1 1.8,8.733333 Z m 6.933333,0 h 5.479688 A 6.2577784,6.2577784 0 0 1 8.733333,14.213021 Z M 1.19375,9.032031 A 6.8876195,6.8876195 0 0 0 1.26432,9.355729 6.8876195,6.8876195 0 0 1 1.19375,9.032031 Z m 13.612501,0 a 6.8876195,6.8876195 0 0 1 -0.07057,0.323698 6.8876195,6.8876195 0 0 0 0.07057,-0.323698 z M 1.428385,10.039584 a 6.8876195,6.8876195 0 0 0 0.140105,0.37552 6.8876195,6.8876195 0 0 1 -0.140105,-0.37552 z m 13.14323,0 a 6.8876195,6.8876195 0 0 1 -0.140104,0.37552 6.8876195,6.8876195 0 0 0 0.140104,-0.37552 z M 1.810937,11.00026 A 6.8876195,6.8876195 0 0 0 2.017448,11.378385 6.8876195,6.8876195 0 0 1 1.810937,11.00026 Z m 12.378126,0 a 6.8876195,6.8876195 0 0 1 -0.206511,0.378125 6.8876195,6.8876195 0 0 0 0.206511,-0.378125 z M 2.332292,11.892708 a 6.8876195,6.8876195 0 0 0 0.266145,0.355209 6.8876195,6.8876195 0 0 1 -0.266145,-0.355209 z m 11.335416,0 a 6.8876195,6.8876195 0 0 1 -0.266145,0.355209 6.8876195,6.8876195 0 0 0 0.266145,-0.355209 z m -10.68151,0.809114 a 6.8876195,6.8876195 0 0 0 0.311979,0.31198 6.8876195,6.8876195 0 0 1 -0.311979,-0.31198 z m 10.027605,0 a 6.8876195,6.8876195 0 0 1 -0.31198,0.31198 6.8876195,6.8876195 0 0 0 0.31198,-0.31198 z m -9.26172,0.69974 a 6.8876195,6.8876195 0 0 0 0.355209,0.266146 6.8876195,6.8876195 0 0 1 -0.355209,-0.266146 z m 8.495834,0 a 6.8876195,6.8876195 0 0 1 -0.355209,0.266146 6.8876195,6.8876195 0 0 0 0.355209,-0.266146 z m -7.626302,0.58099 A 6.8876195,6.8876195 0 0 0 4.99974,14.189063 6.8876195,6.8876195 0 0 1 4.621615,13.982552 Z m 6.75677,0 a 6.8876195,6.8876195 0 0 1 -0.378125,0.206511 6.8876195,6.8876195 0 0 0 0.378125,-0.206511 z m -5.793489,0.448959 a 6.8876195,6.8876195 0 0 0 0.375521,0.140104 6.8876195,6.8876195 0 0 1 -0.375521,-0.140104 z m 4.830208,0 a 6.8876195,6.8876195 0 0 1 -0.375521,0.140104 6.8876195,6.8876195 0 0 0 0.375521,-0.140104 z m -3.770833,0.304166 a 6.8876195,6.8876195 0 0 0 0.323698,0.07057 6.8876195,6.8876195 0 0 1 -0.323698,-0.07057 z m 2.711458,0 a 6.8876195,6.8876195 0 0 1 -0.323698,0.07057 6.8876195,6.8876195 0 0 0 0.323698,-0.07057 z" />
</svg>
