<?xml version="1.0" encoding="UTF-8" standalone="no"?>
<svg
   width="16"
   height="16"
   version="1"
   id="svg566"
   xmlns="http://www.w3.org/2000/svg"
   xmlns:svg="http://www.w3.org/2000/svg">
  <defs
     id="defs570" />
  <path
     id="path25"
     style="display:inline;stroke-width:0.285739"
     d="M 8,0 A 7.9998513,7.9996117 0 0 0 2.98039e-8,7.9980469 7.9998513,7.9996117 0 0 0 2.98039e-8,8 7.9998513,7.9996117 0 0 0 0.00585903,8.1679688 7.9998513,7.9996117 0 0 1 0.00781203,8.1328125 7.9998513,7.9996117 0 0 0 8,16 a 7.9998513,7.9996117 0 0 0 7.992188,-7.8945312 7.9998513,7.9996117 0 0 1 0.002,0.011719 A 7.9998513,7.9996117 0 0 0 16,7.9980469 7.9998513,7.9996117 0 0 0 8,0 Z m 0,1.7148438 c 3.462133,0 6.285156,2.8231267 6.285156,6.2851562 0,3.462029 -2.823023,6.285156 -6.285156,6.285156 C 4.537867,14.285156 1.714844,11.462029 1.714844,8 1.714844,4.5379705 4.537867,1.7148438 8,1.7148438 Z M 8,3.1425781 C 5.307282,3.1425781 3.142578,5.3080167 3.142578,8 c 0,2.691983 2.164704,4.857422 4.857422,4.857422 2.692718,0 4.857422,-2.165439 4.857422,-4.857422 C 12.857422,5.3080167 10.692718,3.1425781 8,3.1425781 Z M 7.238281,4.6152344 h 1.523438 c 0.211095,0 0.380859,0.1686208 0.380859,0.3769531 v 3.2363281 l -0.00391,0.00391 c 0,0 -0.429757,0.3745523 -0.429688,0.6269531 7e-5,0.2521989 0.429688,0.625 0.429688,0.625 l 0.00391,0.00586 v 1.5175773 c 0,0.208333 -0.169764,0.376954 -0.380859,0.376954 H 7.238281 c -0.211095,0 -0.380859,-0.168622 -0.380859,-0.376954 V 7.7148438 c 0,0 0.412109,-0.3578002 0.412109,-0.5996094 0,-0.2418094 -0.412109,-0.5996094 -0.412109,-0.5996094 V 4.9921875 c 0,-0.2083323 0.169764,-0.3769531 0.380859,-0.3769531 z" />
  <g
     id="g4039"
     transform="matrix(0.48106175,0,0,0.48000998,-88.718766,-8.6263699)"
     style="display:inline" />
</svg>
