<?xml version="1.0" encoding="UTF-8" standalone="no"?>
<svg
   width="16"
   height="16"
   version="1"
   id="svg566"
   xmlns="http://www.w3.org/2000/svg"
   xmlns:svg="http://www.w3.org/2000/svg">
  <defs
     id="defs570" />
  <path
     d="m 7.4594894,12.700658 c -1.069316,0 -1.749538,-0.648697 -1.749538,-1.471454 0,-3.520949 9.2589846,-4.225815 9.2589846,-7.96498 C 14.968936,0.9831584 12.326607,0 8.9536354,0 6.9018794,0 4.5819994,0.3797493 2.4274494,1.0592525 V 5.51992 c 3.175088,-2.312588 6.702814,-3.3025247 8.9751486,-3.3025247 1.428837,0 2.398336,0.3986454 2.398336,1.1129597 0,2.942903 -12.7698696,2.476588 -12.7698696,8.835695 0,2.437463 1.676012,3.83395 4.033991,3.83395 3.5666461,0 6.2644286,-3.466113 8.2827076,-7.691209 l 0.408912,0.146846 c -1.062949,2.581947 -3.262579,5.413022 -3.691003,7.232904 h 4.591804 V 6.27336 h -1.060484 c -1.539331,3.345042 -3.7951315,6.4274 -6.1375026,6.4274"
     style="clip-rule:evenodd;display:inline;fill:#000000;fill-rule:nonzero;stroke-width:0.10269;stroke-linejoin:round;stroke-miterlimit:2;enable-background:new"
     id="path1" />
</svg>
