<?xml version="1.0" encoding="UTF-8" standalone="no"?>
<svg
   height="16px"
   viewBox="0 0 16 16"
   width="16px"
   version="1.1"
   id="svg135"
   xmlns="http://www.w3.org/2000/svg"
   xmlns:svg="http://www.w3.org/2000/svg">
  <defs
     id="defs139" />
  <path
     id="rect4107"
     style="fill:#000000;stroke-width:3.1;stroke-linecap:square;stroke-linejoin:round;stroke-miterlimit:1.5;paint-order:stroke fill markers"
     d="m 8.5544415,2.25e-6 c -0.489821,0 -0.888671,0.3968967 -0.888671,0.8867187 V 2.0683616 c -0.727099,0.3361752 -1.232422,1.070438 -1.232422,1.9238281 0,0.3300954 0.077457,0.6400215 0.21289,0.9199219 l -1.771484,3.6445312 c -0.60848,-0.4441992 -1.122486,-0.9846383 -1.533203,-1.6113281 -0.08518,-0.1293278 -0.2194,-0.2191268 -0.373047,-0.2480469 -0.153638,-0.02739 -0.314716,0.00883 -0.439453,0.1015625 l -1.138672,0.8398438 c -0.246439,0.1809627 -0.305135,0.5236965 -0.134766,0.7792968 0.651077,0.9720099 1.509064,1.8175441 2.490235,2.4609381 l -1.279297,2.630859 c -0.109523,0.225155 -0.165785,0.465351 -0.171875,0.714844 l -0.027344,1.142578 c -0.0061,0.24348 0.12861,0.460411 0.347656,0.568359 0.219056,0.106516 0.473473,0.07554 0.66211,-0.07813 l 0.880859,-0.724609 c 0.190145,-0.15672 0.349025,-0.356025 0.457031,-0.578125 l 1.289063,-2.654297 c 0.861006,0.272304 1.75548,0.412109 2.662109,0.41211 0.906629,0 1.7921655,-0.137002 2.6425775,-0.40625 l 1.28711,2.648437 c 0.10957,0.225059 0.261802,0.418446 0.455078,0.578125 l 0.882812,0.724609 c 0.114056,0.09287 0.250181,0.142579 0.388672,0.142579 0.09125,0 0.184726,-0.02178 0.271484,-0.06445 0.219046,-0.106421 0.352143,-0.323447 0.347657,-0.568359 l -0.02734,-1.142578 0.002,0.002 c -0.006,-0.249493 -0.06435,-0.491217 -0.173828,-0.714844 L 10.464598,4.9121116 c 0.135338,-0.2783834 0.21289,-0.5898265 0.21289,-0.9199219 0,-0.8518722 -0.507276,-1.5861259 -1.2343745,-1.923828 V 0.88672095 c 0,-0.489822 -0.398849,-0.8867187 -0.888672,-0.8867187 z m 0.00195,2.86132805 a 1,1 0 0 1 1,1 1,1 0 0 1 -1,1 1,1 0 0 1 -1,-1 1,1 0 0 1 1,-1 z m -1.55664,2.5703125 c 0.00623,0.00674 0.013214,0.012868 0.019531,0.019531 l -0.025391,-0.00781 z m 1.55664,1.015625 1.5214845,3.1308589 c -0.9872795,0.2464391 -2.0381335,0.24658 -3.0390625,-0.0059 z m -6.849609,1.6445314 c 0.00363,0.012779 0.00775,0.026074 0.011719,0.039063 -0.00314,-0.00465 -0.00664,-0.00901 -0.00977,-0.013672 -0.00455,-0.00682 -0.00272,-0.018162 -0.00195,-0.025391 z" />
</svg>
