<?xml version="1.0" encoding="UTF-8" standalone="no"?>
<svg
   width="16"
   height="16"
   version="1"
   id="svg566"
   xml:space="preserve"
   xmlns="http://www.w3.org/2000/svg"
   xmlns:svg="http://www.w3.org/2000/svg"><defs
     id="defs570" /><path
     id="path2"
     style="fill:#000000"
     d="m 9.421875,0.89131846 c -1.3142419,-0.199063 -2.6892137,-0.118392 -3.9375,0.23437504 -0.9370335,0.264808 -1.7858954,0.661376 -2.5625,1.197266 -1.5603934,1.076737 -2.59886084,2.638468 -2.86132813,4.373046 -0.06782782,0.448257 -0.08186843,1.096182 -0.02539062,1.539063 0.20080714,1.574665 1.02319725,3.0264995 2.29687505,4.0937495 0.3433777,0.287727 0.6668348,0.492208 1.0175781,0.705078 -0.177056,0.304888 -0.3696292,0.617139 -0.6796875,0.957031 -0.00725,0.0079 -0.012514,0.01371 -0.019531,0.02149 -0.2490958,0.279031 -0.2905386,0.677437 -0.2207031,0.898441 4.349e-4,7.29e-4 0.068251,0.09519 0.1035156,0.128907 0.035264,0.03372 0.06864,0.05885 0.099609,0.07813 0.061939,0.03855 0.1110311,0.0564 0.1503906,0.06836 0.078719,0.02392 0.1237839,0.02512 0.1621094,0.02734 0.076651,0.0044 0.1226397,-6.79e-4 0.171875,-0.0059 0.028712,-0.003 0.060938,-0.01137 0.089844,-0.01563 0.2390617,-0.02356 0.4682722,-0.110184 0.6972655,-0.164066 0.096197,-0.02693 0.1818005,-0.04311 0.2792968,-0.07422 0.5809054,-0.185329 1.2309536,-0.478242 1.7402344,-0.785156 0.04262,-0.02568 0.078413,-0.04686 0.1152344,-0.06836 1.1706142,0.248107 2.3544362,0.293723 3.5332031,0.0957 1.7882334,-0.300403 3.4151874,-1.118881 4.5976564,-2.335938 0.495189,-0.509673 0.879401,-1.042769 1.183594,-1.644531 0.312117,-0.6174385 0.501627,-1.2292365 0.599609,-1.9316405 0.05742,-0.411178 0.06522,-1.002896 0.0078,-1.419922 -0.07853,-0.570546 -0.2238,-1.1145 -0.435534,-1.605425 C 15.051867,4.1605915 14.300818,3.2329445 13.285156,2.4733495 12.194527,1.6576905 10.837718,1.1057705 9.421875,0.89131846 Z M 9.2421875,2.0846785 c 1.2232335,0.185278 2.4072155,0.672581 3.3203125,1.355468 0.870646,0.65114 1.465678,1.391151 1.855469,2.294922 0.162972,0.377867 0.284635,0.820959 0.349609,1.292969 0.0092,0.06678 0.0063,0.974842 -0.0098,1.089845 -0.0828,0.593553 -0.221293,1.041978 -0.480469,1.554686 -0.250367,0.4952825 -0.549857,0.9105365 -0.972656,1.3457025 -0.98423,1.013019 -2.379871,1.727602 -3.9316411,1.988281 -1.0620036,0.178405 -2.1165808,0.15116 -3.171875,-0.08398 -0.061922,-0.0138 -0.1194394,-0.02664 -0.1875,-0.0332 -0.068061,-0.0066 -0.1200956,-0.04307 -0.3359375,0.03906 -0.1020062,0.03867 -0.084215,0.03818 -0.1074219,0.05078 -0.023206,0.0126 -0.048381,0.02705 -0.076172,0.04297 -0.055583,0.03184 -0.1216571,0.07125 -0.1914062,0.113282 -0.2245562,0.135327 -0.5344317,0.244559 -0.828125,0.373047 0.032914,-0.06031 0.097145,-0.119153 0.1269531,-0.179688 0.031475,-0.06392 0.058767,-0.123704 0.082031,-0.185547 0.011632,-0.03092 0.021841,-0.06154 0.033203,-0.103515 0.011362,-0.04198 0.052008,-0.04648 0.019531,-0.271485 C 4.6885405,12.437451 4.5099105,12.357344 4.4335937,12.303427 4.357277,12.249511 4.2916459,12.212826 4.1953125,12.158896 3.7725589,11.92222 3.4934843,11.73012 3.1054688,11.40499 2.0474745,10.518467 1.390877,9.3405955 1.2304687,8.0827245 1.2087117,7.9121125 1.2201447,7.0988135 1.2539057,6.8756935 1.462103,5.4997725 2.2884612,4.2252855 3.6074214,3.3151465 4.2753969,2.8542155 4.992875,2.5174765 5.8124995,2.2858495 6.8818182,1.9836585 8.1008569,1.9118055 9.2421875,2.0846785 Z M 11.66571,7.5963616 A 1.004688,1.004688 0 0 1 10.661022,8.6010497 1.004688,1.004688 0 0 1 9.6563342,7.5963616 1.004688,1.004688 0 0 1 10.661022,6.5916736 1.004688,1.004688 0 0 1 11.66571,7.5963616 Z m -2.6846431,0 a 1.004688,1.004688 0 0 1 -1.004688,1.0046881 1.004688,1.004688 0 0 1 -1.004688,-1.0046881 1.004688,1.004688 0 0 1 1.004688,-1.004688 1.004688,1.004688 0 0 1 1.004688,1.004688 z m -2.6846437,0 a 1.004688,1.004688 0 0 1 -1.004688,1.0046881 1.004688,1.004688 0 0 1 -1.0046881,-1.0046881 1.004688,1.004688 0 0 1 1.0046881,-1.004688 1.004688,1.004688 0 0 1 1.004688,1.004688 z" /></svg>
