<?xml version="1.0" encoding="UTF-8" standalone="no"?>
<svg
   width="16"
   height="16"
   version="1"
   id="svg566"
   xml:space="preserve"
   xmlns="http://www.w3.org/2000/svg"
   xmlns:svg="http://www.w3.org/2000/svg"><defs
     id="defs570" /><path
     id="path1"
     style="stroke-width:0.399983;opacity:0.2"
     d="m 15.982422,9.6484375 c -0.0021,0.011044 -0.0037,0.022172 -0.0059,0.033203 0.04849,1.4506725 -0.817459,3.5958895 -2.412109,4.7851565 -10e-4,9.42e-4 -0.0029,10e-4 -0.0039,0.002 -0.0041,0.0037 -0.0076,0.008 -0.01172,0.01172 -0.03528,0.03488 -0.07209,0.05106 -0.125,0.08594 -1.148715,0.801364 -2.147205,1.141726 -2.96289,1.132813 -0.06482,0.0092 -0.129394,0.01602 -0.19336,0.01953 h 4.902344 c 0.476219,0 0.8125,-0.349095 0.8125,-0.785156 z m -0.570313,1.9121095 c -0.01716,0.06398 -0.03584,0.128104 -0.05664,0.193359 0.0207,-0.06492 0.03956,-0.129696 0.05664,-0.193359 z m -0.0625,0.207031 c -0.0148,0.04592 -0.03031,0.09224 -0.04687,0.138672 0.01663,-0.04659 0.03202,-0.0926 0.04687,-0.138672 z m -0.492187,1.089844 c -0.03782,0.06528 -0.0765,0.130344 -0.117188,0.195312 0.04073,-0.06498 0.07933,-0.130013 0.117188,-0.195312 z M 14.435547,13.5 c -0.04845,0.06526 -0.09916,0.129219 -0.150391,0.193359 0.05116,-0.06402 0.101998,-0.128218 0.150391,-0.193359 z m -0.689453,0.792969 c -0.05165,0.05095 -0.104728,0.101041 -0.158203,0.15039 0.05356,-0.04943 0.106464,-0.09936 0.158203,-0.15039 z" /><path
     id="path2"
     style="stroke-width:0.399983;opacity:0.6"
     d="M 2.4355469 1.5195312 C 0.35426057 3.071916 -0.51056682 6.2822647 0.30078125 7.4160156 C 1.1297662 8.584685 4.7635026 5.8977906 5.9628906 5.0605469 L 6.1757812 4.9042969 C 4.5530913 5.6194259 1.0954864 7.0845461 0.58398438 5.8984375 C 0.14303537 4.9042406 0.95395487 2.8800483 2.4355469 1.5195312 z " /><path
     id="path3"
     style="stroke-width:0.399983;opacity:0.3"
     d="M 14.945312 8.296875 C 13.576387 8.3627452 10.994034 10.271409 10.019531 10.9375 C 9.9489741 10.989818 9.8791508 11.043383 9.8085938 11.095703 C 11.431324 10.380534 14.888893 8.9154542 15.400391 10.101562 C 15.857726 11.0931 15.051962 13.108326 13.560547 14.46875 C 15.650452 12.912955 16.491444 9.7155159 15.664062 8.5839844 C 15.511939 8.3648589 15.261218 8.2816742 14.945312 8.296875 z " /><path
     id="path4"
     style="stroke-width:0.399983;opacity:0.4"
     d="M 4.7285156 9.875 C 5.4516843 11.514609 6.8457502 14.775253 5.6816406 15.263672 C 4.6233265 15.717172 2.4363113 14.82934 1.0605469 13.224609 C 1.0781861 13.259488 1.1131631 13.310824 1.1484375 13.345703 C 2.6829471 15.508609 6.033156 16.39793 7.1972656 15.578125 C 8.3790144 14.77576 5.6629885 11.182302 4.8339844 10.013672 C 4.798706 9.9613141 4.7637936 9.927318 4.7285156 9.875 z " /><path
     d="M 6.175132,4.9035505 C 4.552442,5.6186795 1.09538,7.083856 0.583878,5.8977474 0.142929,4.9035505 0.954278,2.8801941 2.43587,1.519677 2.47115,1.48479 2.52406,1.467347 2.559337,1.432461 4.83463,-0.15481031 6.527877,0.07194307 7.356881,1.223154 8.132967,2.3045912 7.268681,4.0139612 6.175132,4.9035505 Z"
     fill="#9327ff"
     id="path5"
     style="stroke-width:0.399983;fill:#000000;opacity:0.9" /><path
     id="path6"
     style="stroke-width:0.399983;fill:#000000;opacity:0.8"
     d="M 10.007812 0.12109375 C 9.5043024 0.11918614 9.0761837 0.21692477 8.7851562 0.421875 C 7.6210467 1.2242319 10.336951 4.8177977 11.183594 6.0039062 C 11.218873 6.056224 11.253784 6.0902604 11.289062 6.1425781 C 10.565893 4.4855299 9.173781 1.2227698 10.337891 0.734375 C 11.365383 0.29406112 13.457411 1.1362093 14.853516 2.6542969 C 13.702616 1.0321382 11.518343 0.12681659 10.007812 0.12109375 z M 11.658203 6.5527344 C 11.725932 6.6189705 11.796321 6.6834521 11.869141 6.7460938 C 11.796686 6.6837681 11.725619 6.61862 11.658203 6.5527344 z M 15.361328 7.1503906 C 15.331088 7.1801962 15.299728 7.2100369 15.267578 7.2382812 C 15.300083 7.2097235 15.330779 7.1805443 15.361328 7.1503906 z M 12.511719 7.2070312 C 12.555818 7.2331634 12.599736 7.2588072 12.644531 7.2832031 C 12.599541 7.2587106 12.556007 7.233275 12.511719 7.2070312 z M 12.826172 7.3769531 C 12.911373 7.4178852 12.997448 7.4564396 13.083984 7.4902344 C 12.997448 7.4564396 12.911373 7.4178849 12.826172 7.3769531 z M 14.615234 7.6152344 C 14.496746 7.65131 14.373114 7.6747849 14.248047 7.6855469 C 14.373949 7.6747108 14.496007 7.6517324 14.615234 7.6152344 z M 14.248047 7.6855469 C 14.164669 7.6927215 14.079517 7.6945879 13.994141 7.6914062 C 14.079517 7.6945868 14.164669 7.6927229 14.248047 7.6855469 z M 13.607422 7.6445312 C 13.694406 7.6619053 13.78109 7.6755032 13.867188 7.6835938 C 13.78109 7.6755023 13.694406 7.6619059 13.607422 7.6445312 z " /><path
     d="M 15.064467,7.3977624 C 13.935636,8.1826485 12.171833,7.2756477 11.289951,6.1418968 10.566782,4.4848486 9.1733624,1.2230818 10.337472,0.73468697 c 1.058274,-0.45350476 3.245419,0.45350833 4.638799,2.05822283 1.463977,2.1803176 1.234667,3.8024874 0.0882,4.6048526 z"
     fill="#00c8ff"
     id="path7"
     style="stroke-width:0.399983;fill:#000000" /><path
     d="m 13.548013,14.479536 c -0.03528,0.03488 -0.07056,0.05232 -0.123475,0.0872 -2.275301,1.587291 -3.9685478,1.360541 -4.7975519,0.209311 -0.7760464,-1.081433 0.088196,-2.790799 1.1817488,-3.680361 1.6227301,-0.715169 5.0797801,-2.1803453 5.5912781,-0.994237 0.45858,0.994237 -0.352785,3.01755 -1.852,4.378091 z"
     fill="#ffce00"
     id="path8"
     style="stroke-width:0.399983;fill:#000000;opacity:0.5" /><path
     d="M 5.6809936,15.264462 C 4.6226795,15.717962 2.4355822,14.828401 1.0598178,13.22367 -0.43941333,11.043365 -0.19248162,9.4037556 0.95399033,8.6188296 2.0828215,7.8339036 3.8466251,8.7409443 4.7285149,9.8746952 5.4516836,11.514304 6.8451032,14.776043 5.6809936,15.264462 Z"
     fill="#fb006d"
     id="path9"
     style="stroke-width:0.399983;opacity:0.7;fill:#000000" /></svg>
