<?xml version="1.0" encoding="UTF-8" standalone="no"?>
<svg
   height="16px"
   viewBox="0 0 16 16"
   width="16px"
   version="1.1"
   id="svg135"
   xmlns="http://www.w3.org/2000/svg"
   xmlns:svg="http://www.w3.org/2000/svg">
  <defs
     id="defs139" />
  <path
     id="path24"
     style="display:inline;isolation:isolate;fill:#000000;fill-opacity:1;stroke-width:0.0636019;enable-background:new"
     class="cls-7"
     d="M 2.848019,7.6280515 H 5.218594 V 8.3886342 H 2.848019 Z m 9.4712,0.7661347 h 0.799444 V 7.6280515 H 12.319219 V 6.8286073 h -0.766135 v 0.7994442 h -0.799443 v 0.7661347 h 0.799443 V 9.193631 h 0.766135 z M 16,8.0000155 C 16,5.9014722 14.229005,4.1971012 12.058293,4.1971012 a 3.7002589,3.7002589 0 0 0 -0.60514,0.04441 C 9.765438,4.4802342 8.632891,5.6960562 7.999998,6.6287432 7.367104,5.6960582 6.234558,4.4802352 4.546842,4.2415112 A 4.438074,4.438074 0 0 0 3.941706,4.1971012 C 1.765441,4.1971012 0,5.9014722 0,8.0000145 0,10.098556 1.770993,11.802928 3.941706,11.802928 a 3.8135623,3.8135623 0 0 0 0.610687,-0.04441 C 6.240109,11.514241 7.372656,10.298418 8.00555,9.3657323 8.638443,10.298418 9.770991,11.514241 11.458705,11.758515 a 4.4544338,4.4544338 0 0 0 0.610686,0.04441 C 14.229005,11.802928 16,10.098556 16,8.0000145 M 4.352531,10.426107 a 2.6238851,2.6238851 0 0 1 -0.416377,0.02776 c -1.432339,0 -2.592644,-1.1047875 -2.592644,-2.4538502 0,-1.3546148 1.165856,-2.4538506 2.598195,-2.4538506 a 3.4960033,3.4960033 0 0 1 0.416377,0.02776 C 5.95142,5.8015432 6.922967,7.3726737 7.256069,8.0000164 6.917415,8.6329103 5.940316,10.198488 4.35253,10.426109 M 8.743924,8.0000164 c 0.32755,-0.6273421 1.30465,-2.1984722 2.897987,-2.4260922 a 3.4961427,3.4961427 0 0 1 0.416376,-0.02776 c 1.432339,0 2.592647,1.1047882 2.592647,2.4538512 0,1.3546146 -1.165861,2.4538506 -2.592647,2.4538506 a 3.496009,3.496009 0 0 1 -0.416376,-0.02776 C 10.048574,10.198488 9.071475,8.627357 8.743924,8.0000151" />
</svg>
