<?xml version="1.0" encoding="UTF-8" standalone="no"?>
<svg
   height="16px"
   viewBox="0 0 16 16"
   width="16px"
   version="1.1"
   id="svg135"
   xmlns="http://www.w3.org/2000/svg"
   xmlns:svg="http://www.w3.org/2000/svg">
  <defs
     id="defs139" />
  <path
     id="path133"
     style="fill:#000000"
     d="M 8,0 C 6.7695322,0 5.5624989,0.32421961 4.5,0.9375 2.3359402,2.1874988 1,4.5000025 1,7 v 6 c 0,0 2e-6,2 2,2 h 1 c 0.5546874,0 1,-0.445313 1,-1 V 13.689453 L 7.0092316,15.984604 8.8940467,12.336347 11,13.943359 V 14 c 0,0.554687 0.445313,1 1,1 h 1 c 1.999998,0 2,-2 2,-2 V 7 C 15,4.5000025 13.66406,2.1874988 11.5,0.9375 10.437501,0.32421961 9.2304678,0 8,0 Z M 8,2 C 8.8632804,2 9.7265633,2.2226567 10.5,2.6679688 12.046873,3.5624989 13,5.2148458 13,7 v 1 c 0,0.999999 -1,1 -1,1 -0.499999,0 -1,0.4453126 -1,1 v 1.634766 C 9.9360052,10.480936 8.4489572,8.6218103 8.4489572,8.6218103 L 6.7811097,12.97136 5,11.322266 V 10 C 5,9.4453126 4.4999995,9 4,9 4,9 3,8.999999 3,8 V 7 C 3,5.2148458 3.9531265,3.5624989 5.5,2.6679688 6.2734367,2.2226567 7.1367196,2 8,2 Z" />
</svg>
