<?xml version="1.0" encoding="UTF-8" standalone="no"?>
<svg
   width="16"
   height="16"
   version="1"
   id="svg566"
   xml:space="preserve"
   xmlns="http://www.w3.org/2000/svg"
   xmlns:svg="http://www.w3.org/2000/svg"><defs
     id="defs570" /><path
     id="path1-0"
     style="fill:#000000;fill-opacity:1;stroke-width:0.0238744"
     d="M 9.2528224,-2.2797068e-5 C 8.56847,0.10991772 7.8552871,0.08017685 7.1999754,0.2608778 6.3588415,0.15605265 5.5483491,0.46674172 4.7772661,0.76151232 4.613019,0.99516864 3.7462081,0.97488872 4.2041924,1.3050092 4.1076239,1.6491372 3.6406681,1.1465356 3.6210639,1.6393086 3.6053215,1.7865716 3.7578899,1.7339826 3.8211263,1.8245015 3.7794014,2.0971444 3.315205,2.4333903 3.1610724,2.0685002 2.7987774,2.5224602 3.8631,2.155957 3.4118624,2.5435822 3.204936,2.3643813 2.7216173,2.3663244 3.1090424,2.6576662 3.5632253,2.4764083 3.0423352,3.0199849 3.0870224,2.9649535 3.1067843,3.1274986 3.6195333,3.2941337 3.3417746,3.3456586 3.068883,2.7849752 2.553029,3.8235116 2.9504543,4.1033705 2.9702652,4.695652 3.293317,5.2560707 3.3334732,5.8964722 3.2490117,6.3696717 4.1262347,6.9459881 3.7548552,7.2139109 3.3072089,6.7714386 3.5840927,7.4540584 3.7097362,7.6729928 3.8877791,7.9865982 3.8439337,8.3612825 3.9070224,8.7065312 4.2439521,8.6504336 3.7292145,7.3989096 4.0549606,7.806426 c 0.1515354,0.8714228 -0.103571,1.7928542 0.2626685,2.631835 0.3812313,0.744777 -0.1442355,1.352445 -0.5393656,1.890917 -0.056588,0.56762 0.6070459,1.198683 0.3166437,1.688082 -0.3255135,-0.349446 -0.385056,-0.974853 -0.6169018,-1.42213 0.062439,-0.279284 0.013635,-0.654128 -0.207803,-0.215261 -0.2798205,0.756855 0.7098588,1.394953 0.3099042,2.126585 0.2853707,0.361746 0.6795799,0.37901 0.4963353,0.532731 0.5545426,0.339988 1.1541353,0.462405 1.746822,0.702281 0.4563586,0.01422 1.119037,0.316259 1.4806257,0.223788 -0.2382156,-0.09939 -1.0819483,-0.380689 -0.3337018,-0.173592 0.2733743,0.134911 0.6956282,0.01258 0.2033946,-0.134669 -0.1572643,-0.385249 0.9224007,0.38689 1.2496463,0.05836 0.2799244,-0.174023 0.8111682,-0.136658 0.2268051,0.04458 -0.00895,0.224745 0.5282523,0.159366 0.00741,0.212203 0.6852726,0.01076 1.4030635,0.0059 2.0598535,-0.18508 -1.2500726,-0.971162 -1.243981,-3.155731 0.0024,-4.126313 0.520962,-0.504912 1.3273,-0.168014 1.869211,-0.486683 0.05145,-0.562081 0.138836,-1.133805 0.237327,-1.7078577 C 12.884587,8.8344992 13.0722,8.2268521 13.277762,7.6343408 13.432764,7.3481656 12.78905,6.7705251 13.253416,7.1442847 12.807764,6.6508359 12.545504,5.925425 12.218295,5.3406056 11.964664,4.1825137 12.185218,2.9877033 12.439374,1.8510534 c 0.201435,-0.3521 0.68168,-1.26717718 0.03182,-0.86388943 C 12.225328,0.97327382 11.756683,0.76470062 11.945029,0.57681533 11.569667,0.67605981 10.936316,0.50864641 11.293494,0.32969896 10.616014,0.48306461 10.054601,0.01560367 9.3550534,0.03513121 9.321051,0.02343392 9.2860667,0.01156747 9.2528224,-2.2797068e-5 Z M 9.1425724,0.18239621 l 7.5e-5,0.0651795 z m 0.291869,0.0118 C 9.2849156,0.756883 8.7740559,1.2641435 8.5693858,1.6933212 8.5819645,2.0092281 8.0688615,1.3187072 8.3758724,1.7981882 8.9762642,1.7355215 9.4726482,0.96922579 10.101603,0.74646727 10.241701,0.51991226 9.2025698,0.59078677 9.8896088,0.47099279 10.193354,0.72829136 10.632816,0.19016578 10.295727,0.66530286 10.013678,1.2990348 9.2752642,1.4652891 9.0311094,2.0951626 8.8605162,2.3499792 8.143182,2.9522157 8.8266061,2.6794284 8.9524144,2.2195981 9.1593262,2.5903022 9.4935874,2.6397738 9.2207986,3.047173 8.4581286,3.7131914 8.0690141,3.2141951 8.5468453,2.7435103 7.3079665,3.0755463 7.8087276,3.169359 7.8027037,3.430436 7.1031356,4.1321011 7.6510024,3.6645782 7.7205418,3.4342116 8.1167015,3.1482731 7.8668524,3.5599522 8.7174017,3.5301131 7.8227793,4.6017018 7.3660977,4.6334107 6.9013135,4.7525194 6.0453465,4.8932987 6.0021249,4.3191931 5.0602082,4.5923527 5.7727486,3.4421875 5.868866,2.9915398 5.75891,2.666473 5.7330565,2.1582016 6.1119311,2.458125 6.4812096,2.2812719 6.5310783,2.6867066 6.4041621,2.7583571 6.5757975,2.5178568 6.8467802,2.4633645 6.8364075,2.4264173 6.9719374,2.0596243 6.584785,1.595695 6.9827593,1.8013825 7.1761507,1.5071246 7.3037932,2.2268445 7.1000309,2.3352 7.2391213,2.8622678 6.6286397,3.1265609 6.9449896,3.4887594 7.1273255,3.3637367 7.0059195,2.7265695 7.2789078,2.7983507 7.0873328,3.2450296 7.4361613,2.9498787 7.6874524,2.8220752 6.9119935,2.6670913 8.0860585,1.4795403 7.081498,1.6080878 6.7224453,1.4663113 7.4246007,1.333783 6.9081871,1.3246543 6.3610189,0.9130736 7.9592634,1.2462952 7.7680249,1.4372652 7.7314804,1.9038937 8.4007982,1.1483593 8.6279838,1.0706769 8.7744544,1.1977587 8.7480082,0.64097612 9.0606734,0.74104474 9.250948,0.47475756 9.1343473,0.31402378 9.4344414,0.19419621 Z m -1.441109,0.04963 C 8.2468881,0.35564159 8.5584712,0.98446004 8.3279381,0.84632398 8.3399497,0.60414728 7.9637374,0.43710116 7.9933324,0.24382621 Z m -0.37477,0.0051 c 0.4020812,0.0185193 -0.023293,0.51602154 0,0 z m -0.5773,0.07028 c 0.048194,0.6679045 -1.1108696,-0.0282618 -0.2615516,0.045329 0.1149208,0.11309637 0.1578776,0.0729653 0.2615516,-0.045329 z m 0.16873,0.01637 c 0.1262405,0.0761509 -0.1262286,0.0761577 0,0 z m 1.656,0.05714 c 0.034361,0.22917454 -0.3953161,0.0757915 0,0 z m -0.36404,0.0059 c 0.5076481,0.14256905 -0.310158,0.40984877 0,0 z m -1.18572,0.04319 c 0.1767155,1.5395e-4 -0.065095,0.11181585 0,0 z m -0.5816,0.02253 c -0.1346904,0.14371699 0.2242649,0.044373 0,0 z m -0.88795,0.06277 c 0.1347492,0.143493 -0.2239032,0.0445237 0,0 z m -0.24493,0.02924 c -0.019488,0.14599612 -0.2309229,0.0493264 0,0 z m 3.868369,0.03058 c 0.1725063,0.13540914 -0.2198385,0.10173947 0,0 z m -1.660019,0.03675 C 8.3422743,0.77187123 7.5692981,0.72971869 7.9937238,0.970596 8.3136382,1.4492584 6.8847584,0.96706336 7.7102024,1.0395872 8.2157768,0.85649753 6.9669301,0.99455743 7.2373553,0.96024651 7.3590935,0.76281149 7.555604,0.56928136 7.8101024,0.62367621 Z m 4.5240056,0.03327 c -0.327869,0.0656259 0.107415,0.094687 0,0 z m -4.7007856,0.05553 c -0.300141,0.0581435 0.1772256,0.0742418 0,0 z m 1.9154,2.74e-4 c 0.2116813,0.12193416 -0.205225,0.11376937 0,0 z m 1.2299906,0.0091 c 0.239897,0.26570805 -0.19122,0.37766529 0,0 z m -4.4421806,0.0072 c 0.4060692,0.45383879 -0.1663637,0.35720939 0,0 z m -0.22588,0.01771 c 0.2117873,0.2425427 -0.091033,0.46292449 -0.025511,0.0792261 l -0.010511,-0.0445016 z m -1.12376,0.0287 c 0.1818892,0.10354514 -0.2115407,0.0752878 0,0 z m 6.0571336,0.03675 c 0.250516,0.32215839 0.04991,-0.0549677 0.195425,0.0535874 1.151819,0.33604094 -0.842014,0.24247164 -0.195425,-0.0535874 z m -5.0597236,0.04158 c 0.1260933,0.0423212 -0.1243552,0.12261093 0,0 z m 3.25994,0.0786 c 0.073894,0.0657608 -0.1237709,0.0578643 0,0 z m -1.06635,0.06277 c 0.1261341,0.0763076 -0.1264493,0.0751519 0,0 z m 1.195385,0.03139 c 0.073874,0.065959 -0.1237503,0.058059 0,0 z m -0.230705,0.0059 c 0.1898221,0.3450454 -0.570038,0.5478872 -0.07627,0.1127825 l 0.029977,-0.06178 z m -2.81302,0.03648 c 0.1048626,0.1347757 -0.1798582,0.1073593 0,0 z m -1.70213,0.02066 c 0.1244971,0.057544 -0.073919,0.066089 0,0 z m 1.06393,0.0048 C 5.4453561,1.2038067 4.9956842,1.4766519 5.0737491,1.6371099 4.6200453,1.6272787 4.5816141,3.016439 4.54414,2.1281004 4.5497898,1.5983411 5.025436,1.5143865 5.3000995,1.1289839 5.4199648,1.0672019 5.5623954,1.0638701 5.6913524,1.0943902 Z m 5.0597296,0.03246 c 0.432128,0.053577 0.483465,0.1084179 0.07705,0.3222741 -0.116558,0.3172643 -1.2331235,0.4605591 -0.664503,0.6214528 0.336758,0.1837797 0.151234,1.0908411 0.04762,1.5125075 C 10.022889,4.032521 9.4404225,4.3731074 9.4481371,3.6762101 9.2430012,3.4285695 9.1739968,2.994962 9.6186444,3.3034502 9.8069427,3.960311 9.7468139,3.0662611 9.4936614,2.9348072 9.7891787,3.0602928 10.19739,3.7989192 9.8483242,3.1323066 10.296874,3.2789493 9.5548267,2.5522424 10.150416,2.7367374 10.127811,2.4457341 9.751774,1.9949067 9.8471805,2.5325954 9.5770012,2.7503811 9.3687924,2.2218825 9.7436854,2.2413082 9.1229791,1.9907455 10.152248,1.1637179 10.584293,1.2843272 10.567784,1.1759469 10.67473,1.1448231 10.751082,1.1268502 Z m -4.7828796,0.02549 c 0.2559278,0.1342432 -0.2861851,0.1066785 0,0 z m 3.14513,0 c -0.1258649,0.075728 0.125853,0.075735 0,0 z m 2.8374266,0.03139 c 0.310856,0.023127 0.657327,0.4917077 0.178977,0.2063444 -0.02466,-0.058273 -0.420677,-0.1847132 -0.178977,-0.2063444 z m -6.1448566,0.04158 c 0.012032,0.250507 -0.331873,0.076233 0,0 z m -1.85102,0.02414 c 0.1810111,0.2286255 0.1896247,-0.035885 0,0 z m 0.59152,0.0118 c 0.2076473,0.1384692 -0.2668863,0.043697 0,0 z m 4.06796,0.0016 c -0.1262257,0.165015 0.223606,0.065069 0,0 z m -3.86703,0.0566 c -0.1053235,0.2569971 -0.3867015,0.012213 0,0 z m 0.72727,0.0016 c 0.8125596,0.1774627 -0.6874356,0.520378 -0.065132,0.080016 z m 6.4249176,0.02012 c 0.155985,0.3281223 0.0069,0.2890718 -0.07991,0.049687 z m -5.5087976,0.0024 c 0.026207,0.4971999 -0.6326886,0.2034825 0,0 z m 0.3753,0.0029 c 0.2772288,0.1533229 -0.3651949,0.023872 0,0 z m 1.66055,0.03487 c -0.190112,0.048951 0.056553,0.2031398 0,0 z m -4.62165,0.05365 c 0.2435213,0.088108 -0.2052184,0.1873259 0,0 z m 6.3355906,0.07216 c -0.1581496,0.084956 -0.0244,0.2109785 0,0 z m 1.025305,0.02978 c 0.451562,-0.149046 0.790936,1.024462 0.334492,0.2253741 -0.359703,-0.066241 0.266078,0.2223716 -0.03976,0.3030574 0.192359,0.5817078 -0.773271,1.1131622 -0.941479,1.0000318 0.417208,-0.1853127 0.798532,-0.6779695 0.370132,-1.0984283 0.49353,0.2571144 0.255506,-0.059108 0.191485,-0.2715256 0.17792,0.062073 0.256191,0.0119 0.08512,-0.1585094 z m -4.5274956,0.0668 c 0.076838,0.076237 -0.055325,0.1035212 0,0 z m -0.74201,0.03756 C 6.286364,1.5314134 7.1014472,2.2646624 6.5317972,2.3430176 6.1291977,2.2192644 5.810531,2.1896867 5.5732521,2.0254373 5.8688817,1.7394273 4.9286988,1.8951749 5.5079039,1.7025547 5.6345717,1.6696802 5.7642526,1.637043 5.8963124,1.6412902 Z m -1.36279,0.02012 c 0.098609,0.2132715 -0.3078808,0.070702 0,0 z m 1.93553,0.02468 c 0.1217376,0.08328 -0.081021,0.1361958 0,0 z m 5.6764656,0.03139 c 0.125676,0.075956 -0.125676,0.075956 0,0 z m -8.6118056,0.03166 c -0.2603431,0.1487441 0.154204,0.2494569 0,0 z m 1.43628,0.03139 c 0.063978,0.091058 -0.1240297,0.042503 0,0 z m 5.3368446,0.03139 c 0.07834,0.4604735 0.482134,0.1382578 0.475049,0.084332 0.152675,0.2994028 -0.522057,0.8824127 -0.320528,0.2831897 -0.05711,-0.102546 -0.249708,-0.2376794 -0.154521,-0.367522 z m -7.0759946,0.136815 c -0.183268,0.1358703 -0.019642,0.071605 0,0 z m 9.0265416,0.0032 c 0.04621,0.1697956 -0.04717,0.063829 0,0 z m -4.0473016,0.03246 c -0.1459985,0.1584959 0.1405718,0.04021 0,0 z m -3.8013,0.01583 c 0.1199598,0.2994864 -0.22249,0.5029598 -0.043136,0.081685 z m 0.6382,0.03139 c 0.1275814,0.052992 -0.079581,0.091453 0,0 z m 4.388801,0.06304 c 0.1287938,0.082809 -0.1356059,0.1140056 0,0 z m -1.419381,0.03112 c -0.1265243,0.07674 0.1268219,0.075574 0,0 z m 3.2387476,0.05285 c -0.263628,0.4810726 0.300956,0.3904143 0,0 z m -7.3971076,0.01019 c 0.1811163,0.1040235 -0.2119097,0.074764 0,0 z m 4.61199,0 c -0.1237586,0.057869 0.073931,0.065756 0,0 z m 3.2634326,0.01314 c 0.104466,0.3431223 -0.153789,0.6311537 -0.05131,0.1038098 l 0.01445,-0.057488 z m -6.1024726,0.05392 c 0.212239,0.096435 -0.1198256,0.1197913 0,0 z m -0.87454,0.05848 c 0.1791806,0.051475 -0.1167954,0.09271 0,0 z m 2.50317,0 c 0.1102671,0.2247673 -0.194603,0.2352646 0,0 z m -3.50191,0.02066 c 0.1953643,0.1891466 -0.073442,0.1491321 0,0 z m 1.63265,0.04212 C 5.4289568,2.8873487 5.4321505,3.4904144 4.8960883,3.5529263 4.6482698,3.8541511 4.413719,3.9621716 4.7870797,3.5737542 4.9895896,2.9759108 4.5062416,2.3840377 5.3903624,2.3771352 Z m 5.5007536,0 c 0.167189,0.3038657 -0.197291,0.2589465 0,0 z m -5.3585736,0.06304 c 0.1264493,0.075152 -0.1261341,0.076308 0,0 z m 3.779839,0.0043 c 0.1876134,0.096274 -0.1519625,0.093099 0,0 z m 2.7215386,0.0019 c 0.04674,0.2488243 -0.0436,0.1156851 0,0 z m -8.5026276,0.0102 c 0.180685,0.033408 -0.044426,0.19796 0,0 z m 0.46249,0.02683 c 0.1767156,1.537e-4 -0.065095,0.1118151 0,0 z m -0.30019,0.02092 c 0.1998096,0.1271582 -0.2015253,0.1891119 0,0 z m 1.03818,0.03246 c 0.019248,0.2266507 -0.2502311,0.2747492 0,0 z m 2.4793,0.04078 c 0.1544501,0.1122866 -0.2181438,0.1334349 0,0 z m -1.69463,0.01957 c 0.2378012,0.1618962 -0.2307712,0.1294161 0,0 z m 4.7032086,0.0118 c -0.06586,0.1105278 0.176949,0.00205 0,0 z m -7.3050986,8.1e-4 c -0.3185865,0.123707 0.1028365,0.267752 0,0 z m 0.87615,0.05017 c 0.2255239,0.2227163 -0.2196725,0.2567939 0,0 z m -0.12715,0.03139 c 0.1204594,0.094095 -0.180018,0.048408 0,0 z m 1.99803,0.03139 c 0.1471784,0.1576711 -0.1438064,0.2265684 0,0 z m -1.64017,0.008 c 0.1728149,0.091846 -0.1276274,0.092583 0,0 z m 0.22078,0.02334 c 0.1262705,0.075385 -0.1259544,0.076533 0,0 z m 5.379229,0.0338 c 0.4625966,0.1113857 0.067129,0.4848619 0,0 z m 2.3974756,0.02924 c -0.02112,0.4175453 -0.326409,0.5023455 -0.08648,0.055697 l 0.03885,-0.036267 z m -6.5110346,0.0078 c 0.2132156,0.183864 -0.1771768,0.1932274 0,0 z m -2.6365,0.05499 c -0.2194321,0.1323968 0.2245438,0.1416935 0,0 z m 0.87508,0.0051 c 0.1992484,0.2398433 -0.2830286,0.6069551 0,0 z m -0.29456,0.06814 c 0.2489684,0.1054044 -0.1202078,0.2944475 0,0 z m 0.65054,0.126084 c 0.132039,0.4912536 -0.4116196,0.4489311 0,0 z m 7.1658726,0.0038 c -0.219869,0.142382 -0.555936,0.8590935 -0.407402,0.1921876 0.06852,-0.1591398 0.277651,-0.1278236 0.407402,-0.1921876 z m -5.7700926,0.01905 c 0.2820156,0.2749658 -0.3096506,0.80156 -0.0491,0.188322 0.014661,-0.063474 0.00645,-0.134686 0.0491,-0.188322 z m 1.68148,0.06063 c -0.1237609,0.057876 0.07393,0.06575 0,0 z m -4.43816,0.0013 c -0.1163698,0.2028859 0.2360234,0.052123 0,0 z m 9.4021176,0.0046 c 0.13647,0.062603 -0.229269,0.1163464 0,0 z m -1.330052,0.03434 c 0.03046,0.2312792 -0.238058,0.208806 0,0 z m 0.40481,0.111598 c 0.107661,0.2028909 -0.199815,0.2253473 0,0 z m -6.8479756,0.02173 c 0.1233065,0.089362 -0.1724828,0.015046 0,0 z m 7.7112486,0.02253 c 0.165268,0.2249398 -0.250848,0.2948356 0,0 z m -8.4079286,0.02629 c 0.1202029,0.089904 -0.083267,0.1444943 0,0 z m 3.72726,0.0013 c -0.2722955,-0.00991 0.1229229,0.044568 0,0 z m 1.73969,0.02736 c 0.3814235,0.1112507 0.24774,1.0913724 0.031566,0.4035792 C 9.5629231,3.6199066 8.5272107,3.6303019 9.1406724,3.4137292 Z m -4.8258,0.0161 C 4.9128147,3.595855 3.5938883,4.5734758 4.1792574,3.8371968 4.1847135,3.6993868 4.0935177,3.44858 4.3148924,3.4298172 Z m -0.23715,0.04507 c 0.1297623,0.072461 -0.096667,0.1387472 0,0 z m 4.73352,5.36e-4 C 9.2531461,3.9925827 8.8171621,4.6701502 8.507879,5.0063216 8.7313572,4.8736983 9.1492213,4.8033021 9.1919105,4.8972469 9.1800993,4.6316939 9.1351219,4.0456163 9.5358312,4.3963509 9.8004614,4.4271081 10.65243,3.7254334 10.24272,4.3794762 10.426886,4.8147114 9.64158,4.4036916 9.778264,4.8668746 9.7526963,5.0787746 10.75938,4.3660201 10.999145,4.7108444 10.536402,4.9265814 9.9489268,5.0462218 9.6619544,5.5165552 9.5533902,5.3713476 9.2592169,5.8982538 9.1603916,5.3910586 9.212638,5.2441889 8.8978667,4.6626332 8.8754224,5.2107442 8.6741461,5.4851842 8.071283,6.0635598 7.997749,5.9488703 8.0591711,5.5265349 8.3252599,5.1544258 8.033089,4.8465093 8.0726697,4.3093003 8.4411528,4.1642651 8.484712,3.6622568 8.6644444,3.7480117 8.8578294,3.8052991 8.8112624,3.4754232 Z m -1.28149,0.06948 c -0.2146592,-0.029274 -0.1579221,0.1991035 0,0 z m -2.48091,0.0778 c 0.00961,0.4200439 -0.6437555,0.3842349 0,0 z m 1.43468,8.1e-4 c -0.2491311,-0.042185 0.08474,0.1693811 0,0 z m -3.08692,0.01449 c 0.039556,0.312254 -0.5110569,0.1550441 0,0 z m 7.2627136,0.06277 c 0.482359,0.4491341 -0.189387,0.5742782 0,0 z m -6.6153936,0.03648 c 0.1423895,0.1713322 -0.335686,0.1366983 0,0 z m 3.19825,0.022 c -0.1265224,0.076733 0.1268218,0.075573 0,0 z m -4.19082,0.03165 c 0.1818774,0.1035499 -0.2115503,0.075282 0,0 z m 2.21934,0.02361 c -0.2821468,0.3300903 0.090353,0.306875 -0.1780309,0.5229784 -0.00155,0.2545258 0.2293948,0.3039979 0.011011,0.05218 C 5.7290543,4.5127247 4.6173592,4.9234581 4.7390021,5.2255454 4.6012889,5.6184809 3.8536211,5.7157017 4.3378852,5.1834076 4.5944091,4.7841334 4.8763333,4.2628845 4.9483074,3.9483966 5.0555931,3.9026012 5.1728129,3.8798322 5.2707124,3.8145132 Z m 5.8264306,0.0078 c 0.208014,0.151983 -0.202394,0.1605811 0,0 z m -2.5047806,0.0027 c -0.1163351,0.3048724 0.2392711,0.2385998 0,0 z m -2.47903,0.06009 c -0.125853,0.075735 0.1258649,0.075728 0,0 z m -2.95868,0.0118 c 0.075603,0.077065 -0.054445,0.102344 0,0 z m 4.89421,0.03514 c -0.1468504,0.1582382 0.1409135,0.040628 0,0 z m -5.02673,0.05178 c 0.188105,0.1122002 -0.1400315,0.1288707 0,0 z m 1.61897,0.06197 C 4.9552285,4.1583154 4.6151718,4.4297834 4.5281765,4.4261226 4.6625312,4.1522602 4.3930523,4.4352223 4.6411024,4.0457932 Z m 2.68183,0.02763 c -0.1271476,0.056643 0.1210617,0.061492 0,0 z m 3.1936866,0.06304 c 0.162266,0.076895 -0.154718,0.054049 0,0 z m -7.2546666,0.03139 c 0.086401,0.1149032 -0.1420898,0.1115559 0,0 z m 1.0972,0 c 0.093873,0.339185 -0.6062272,0.492915 -0.1168713,0.062793 l 0.052458,-0.0407 z m 2.51256,0.141375 c -0.455389,0.3547137 0.1061205,0.4953387 0,0 z m -2.41276,0.01583 c -0.00323,0.3541427 -0.3079765,0.2770997 0,0 z m -0.53921,0.03112 c 0.1388988,0.1082446 -0.1363253,0.1207658 0,0 z m -0.33184,0.167665 C 3.2967718,4.7864502 3.6643183,5.934909 3.3751882,5.1211513 3.3489963,4.904191 3.422714,4.671181 3.5879024,4.5238432 Z m 0.37476,0.04802 c 0.052812,0.2499719 0.036996,0.8734685 -0.078925,0.3160841 -0.0067,-0.109117 0.00932,-0.2275562 0.078925,-0.3160841 z m 3.95099,0.112134 c 0.161116,0.3670305 -0.2135017,0.2871163 0,0 z m 1.39712,0.01556 c -0.091664,0.121871 0.1094793,0.1692054 0,0 z m -5.67727,0.0097 c 0.1958322,0.2779091 -0.1470262,0.3784454 0,0 z m -0.42332,0.02388 c 0.1265243,0.07674 -0.1268219,0.075574 0,0 z m 2.56568,0.03729 C 6.3448707,5.2553945 5.2300359,5.6394956 4.9318549,5.9518753 4.6458615,6.1834919 3.9539767,6.2776316 4.4884059,5.7883726 4.710155,5.4906571 5.1441998,5.752739 5.0778224,5.1934446 5.26884,5.0349545 5.1991511,5.1819107 5.2332501,5.0015991 5.4088647,4.9128714 5.6147064,4.8879117 5.7758624,4.7704272 Z m -1.55647,0.0051 c 0.1382597,0.1406935 -0.088635,0.2148013 0,0 z m 2.74863,0.03139 c 0.290462,0.015861 -0.1674282,0.2377825 0,0 z m 2.518194,0.05204 c -0.240898,0.076595 0.1891134,0.1321944 0,0 z m -4.273714,0.0059 c 0.1428256,0.1300423 -0.1490713,0.08106 0,0 z m 1.0127,0.02495 c 0.1355735,0.080558 -0.1755575,0.1239683 0,0 z m 4.9706616,0.07941 c 0.139411,0.1934822 -0.23633,0.1055077 0,0 z m -3.4013216,0.01529 c 0.080986,0.090227 -0.1867545,0.03703 0,0 z m 1.552177,0 c -0.4805163,0.6230554 0.7218746,-0.080747 0,0 z m -2.565677,0.0013 C 7.2342634,4.8259218 7.6191591,5.7502561 7.106765,5.162128 6.4097826,5.1749063 6.2998253,6.2205558 6.4973666,6.7196709 6.7175756,6.5729593 6.6677794,7.6986358 7.1912224,7.3988412 7.1659179,7.2096602 7.3811807,6.797381 7.3921298,6.9186018 7.9512781,7.3137547 7.5462625,8.065162 6.9446508,7.5769468 6.5025382,7.2090536 5.852325,6.7206121 6.0400499,6.0633101 6.1470334,5.6711343 5.5411358,5.9838083 5.9336654,5.5479598 6.290026,5.1429717 5.9311961,5.9699597 6.2800982,5.4849588 6.4233279,5.3028974 6.5354405,5.0465066 6.7810424,4.9858072 Z m -1.00089,0.03112 c -0.2127385,0.081727 0.1083626,0.1117288 0,0 z m -0.38147,0.007 c -0.1730064,0.091956 0.1282715,0.09229 0,0 z m 2.22686,0.02334 c 0.2098126,0.065864 -0.089474,0.08436 0,0 z m -0.20576,0.03139 c 0.1771747,0.1318247 -0.1468767,0.1087586 0,0 z m -3.68783,0.189662 c 0.1521914,0.1445794 -0.1234632,0.2610185 0,0 z m 1.18788,0.03031 c 0.1261341,0.076308 -0.1264493,0.075152 0,0 z m 5.7226026,0.05446 C 10.788509,5.5818075 9.993371,5.934142 9.7652365,6.0164348 10.004071,5.7401254 10.332023,5.5407801 10.642435,5.3530892 Z m -0.589644,0.152105 c 0.02766,0.1870375 -0.1842839,0.084182 0,0 z m 1.903869,0.0083 c 0.512938,0.3791917 0.423125,1.1384085 0.837565,1.5974034 0.363946,0.4042253 0.202679,0.7576571 -0.291249,0.7141733 -0.288169,0.3091088 -0.795718,0.2288004 -1.017178,0.2040637 -0.269355,0.5094526 -0.07409,0.6783533 -0.303203,1.2475 C 10.851469,9.1975907 11.01896,9.8682928 10.767126,9.4251999 10.459546,9.676316 10.288972,9.0887557 10.647195,9.3257327 10.694679,8.9436629 10.004241,9.0797078 10.50525,8.8120772 10.663892,8.4881339 10.244668,8.1867122 10.749684,8.2603772 11.097121,8.0288673 11.14766,7.4764064 10.771655,7.6356987 10.885134,7.0762868 11.2251,6.5369325 11.404633,5.9630875 11.539725,5.7625314 11.744782,5.6226595 11.95666,5.5134942 Z m -4.1739176,0.101672 c 0.1912993,0.219006 -0.3148933,0.00725 0,0 z m -1.19297,0.106501 C 6.7741637,6.000188 6.8289189,7.0908181 6.625457,6.2712987 6.5808031,6.0935243 6.5293588,5.9027402 6.5897724,5.7216672 Z m -2.24698,0.04829 c 0.080939,0.089955 -0.1859302,0.037336 0,0 z m 4.34588,0.08799 C 8.7700845,6.1132808 9.4371796,6.1495211 8.8505451,6.1473466 8.8708627,6.2506525 8.4579924,6.4076506 8.4796492,6.7420126 8.2220226,7.1403347 8.1576913,6.7423766 8.4381536,6.523139 8.5493744,6.1239758 8.3320388,6.1160977 8.2690888,6.5259395 8.0524937,6.8767379 8.1069663,6.7048509 8.0898874,6.512343 8.1039047,6.1976012 7.8668517,6.9003203 7.9108313,6.460803 8.0148552,6.1513935 8.4506788,6.0605986 8.6886724,5.8579472 Z m 1.7954866,0.03756 c 0.162892,0.076351 -0.154287,0.054642 0,0 z m -0.8546896,0.06277 c 0.138829,0.1080656 -0.1362579,0.1204664 0,0 z m 1.8652406,0 c -0.336473,0.1278984 0.163898,0.1206392 0,0 z m -1.268352,0.137351 c 0.05988,0.3266489 0.410165,0.6980489 -0.132021,0.3896863 -0.3860761,0.095601 -0.6332109,-0.2728447 -0.09301,-0.2222368 l 0.121988,-0.055885 0.103048,-0.1115649 z m -4.8298256,0.02066 C 5.9665591,6.4719261 4.0616575,6.9537651 4.7635061,6.3363493 5.2638303,6.3360652 4.9300242,6.1680258 5.3965324,6.1162882 Z m 6.0877146,0.0617 c -0.162147,0.076798 0.154124,0.054798 0,0 z m -5.8553946,0.06304 c 0.2693317,0.1093042 -0.1741404,0.1328492 0,0 z m 2.0101,0.0078 c 0.3890412,0.2421322 -0.1361609,0.7229264 -0.0938,0.147614 0.00455,-0.046563 0.014995,-0.1591429 0.0938,-0.147614 z m 1.695427,0.02361 c 0.059341,0.6521542 0.7860976,0.730527 0.9308186,1.4329031 -0.05324,0.2428414 -0.04127,0.4447408 -0.3393399,0.1751473 0.2938189,0.3040967 -0.3415473,0.453897 -0.221267,0.9104697 -0.1220725,0.3500894 -0.1507052,0.6021818 0.098817,0.4835176 0.2786086,0.2574749 0.1424012,0.4564787 0.5143006,0.3606303 0.357494,0.1595133 0.188694,0.3380305 -0.03624,0.1020131 C 10.058819,9.9744248 9.3659829,9.6051334 9.511542,9.9651113 9.2803765,9.8840201 9.4580932,9.2915898 9.2258024,9.7274782 9.5286144,9.8653291 9.0578973,10.193147 9.2052024,9.8372602 8.8384428,9.9627944 9.1245828,9.6378351 8.7631304,9.5632383 8.6798942,9.112384 8.0696661,9.0849874 8.1132124,8.5902382 7.8837536,8.8693589 7.79668,8.1685862 7.49578,8.526789 7.2336259,8.1467347 8.3906792,7.7520125 8.1009827,8.2850977 7.4740209,8.2483897 8.4312864,8.6842014 8.4657596,8.184289 8.6640271,8.0140997 8.2946318,7.3624397 8.688376,7.6959099 8.841904,7.809837 8.7903814,7.0144825 8.4699216,7.4189081 8.4506034,7.19895 9.0681008,7.0468317 8.7224966,6.7802816 8.4231794,6.9968426 8.986514,6.5079744 8.6924524,6.3687502 8.8909279,6.2418024 9.254145,6.6042447 9.3343794,6.2724382 Z m 0.175176,0.105427 c 0.2397605,0.091252 -0.069349,0.2698182 0,0 z m -4.928543,0.02039 c 0.1598852,0.070482 -0.154492,0.082071 0,0 z m 5.9356066,0 c 0.237728,0.1619913 -0.231789,0.1292033 0,0 z m -3.4622166,0.0043 c 0.1881146,0.1120569 -0.1403034,0.1291377 0,0 z m -2.71537,0.02709 c 0.2501682,0.1228232 -0.2112652,0.1205568 0,0 z m 3,0 c 0.1258542,0.075731 -0.1258542,0.075731 0,0 z m 0.10033,0 c 0.166015,0.1541946 -0.2151537,0.1672977 0,0 z m -1.67772,0.03461 c 0.1919957,0.1115601 -0.1165943,0.1278963 0,0 z m 1.48162,0.06707 c 0.2207211,0.1442152 -0.2247499,0.1439569 0,0 z m 4.3010766,0.0279 c -0.284332,0.034454 0.113352,0.2549482 0,0 z m -1.495572,0.02736 c 0.08043,0.2442152 -0.2461122,0.2241849 0,0 z m 2.087362,0.01127 c -0.15614,0.020539 0.03927,0.14331 0,0 z m -5.0296866,0.08799 c 0.2681493,0.1821469 -0.2291607,0.2943693 0,0 z m -0.23848,0.0083 c 0.1001918,0.1509035 -0.1488276,0.1222056 0,0 z m -1.08915,0.02146 C 5.9424941,7.0781466 6.3190869,7.5957255 5.6227682,7.3942991 5.2620278,7.3230903 5.0055648,6.9017195 5.4289261,6.9777381 5.6567437,6.8396327 5.6638106,6.9208325 5.7788124,6.7156052 Z m 4.4338636,0.02817 c 0.192996,0.1073384 -0.2156296,0.048294 0,0 z m 2.092191,0.0067 c -0.273528,0.069555 0.105658,0.2374772 0,0 z m -4.7399546,0.05607 c 0.1390388,0.1080165 -0.1364426,0.1203329 0,0 z m 1.10095,0.127693 c 0.1703968,0.1382928 -0.2347531,0.1482986 0,0 z m 0.25378,0.07646 c -0.146601,0.1592632 0.1415273,0.039341 0,0 z m 3.6462456,0.01663 c -0.33661,0.1005008 0.202749,0.1114337 0,0 z m -0.314406,0.01073 c -0.329393,0.042158 -0.331226,0.4471474 -0.337797,0.4695791 0.765078,-0.443273 -0.704995,0.6744128 -0.0823,0.2369296 0.30088,-0.2584664 1.282031,-0.1826141 0.49259,-0.5670811 l -0.04265,-0.062295 -0.02984,-0.077133 z m -4.3115396,0.05124 c 0.017912,0.3342214 0.6863365,-0.022357 0.34645,0.323767 C 8.4868718,7.4623214 7.89784,7.6450484 7.9176343,7.4110165 7.55853,7.6782954 8.0003552,7.206953 7.9399424,7.0892982 Z m -3.92229,0.0177 c 0.2637706,0.059783 -0.126484,0.1268872 0,0 z m 1.62783,0.01368 c -0.2162046,0.1801176 0.2118997,0.2107551 0,0 z m -0.83564,0.03139 c 0.5804144,0.388245 -0.1903476,0.4823029 0,0 z m -0.63203,0.03139 c 0.125853,0.075735 -0.1258649,0.075728 0,0 z m 0.95153,0 c 0.195308,0.1830434 -0.1698837,0.1508508 0,0 z m 1.88724,0.01556 c 0.248958,0.1457277 -0.243024,0.1434386 0,0 z m 4.7863626,0.133059 c -0.240261,-0.051163 0.01096,0.1639735 0,0 z m -7.5827526,0.05553 c 0.574115,0.1117197 0.2793461,0.4728836 0,0 z m 0.92578,0.08343 c 0.2939817,0.1863791 -0.3293124,0.1366904 0,0 z m 6.2918656,0.0064 c 7.18e-4,0.3225098 0.650587,-0.052367 0,0 z m -4.1935056,0.01931 c -0.1052252,0.081528 0.1155977,0.1212066 0,0 z m 0.96387,0.02227 c 0.2792494,0.2539191 -0.090077,0.3247373 0,0 z m -1.86899,0.0099 c 0.1261341,0.076308 -0.1264493,0.075152 0,0 z m -0.26773,0.0056 c 0.1852273,0.2693021 -0.6622437,0.2789433 0,0 z m 3.01636,0.0078 c -0.1234537,0.1523752 0.1978822,0.090066 0,0 z m 2.1866226,0.04936 c -0.13943,0.1086408 0.137182,0.1197749 0,0 z m 1.034158,0 c -0.178761,0.051907 0.117665,0.091996 0,0 z m -4.4813506,0.0397 c 0.1198711,0.090286 -0.1776626,0.07589 0,0 z m 0.23098,0.0086 c 0.2098494,0.089944 -0.2213951,0.063629 0,0 z m 1.313147,0.01449 c -0.1258612,0.075731 0.1258576,0.075733 0,0 z m -2.967807,0.03139 c 0.138908,0.1082453 -0.1363126,0.1207656 0,0 z m 5.1758886,0.03246 c -0.447372,0.1209505 0.16927,0.077382 0,0 z m -4.9483986,0.03461 c 0.2113323,0.097047 -0.11955,0.1198319 0,0 z m 0.83886,0.02736 c 0.07393,0.06575 -0.1237609,0.057876 0,0 z m -2.02539,0.0019 C 5.8165961,8.1165096 6.6466181,7.8673535 6.8001823,7.9742738 6.6089507,8.5308852 5.5438201,9.2530293 5.1317126,8.6587121 5.2799697,8.2217323 5.9388674,8.917472 5.3037886,8.6051427 5.0360769,8.7701883 6.0268551,8.9360356 5.633414,8.5089426 5.1613382,8.4270729 5.1443604,7.7709373 5.5864769,8.2987089 5.9225158,8.597768 6.9216638,8.0225209 6.0349736,8.0673765 5.8331654,8.0540015 5.4296105,8.0863774 5.4445524,7.7821872 Z m 2.81731,0.03675 c 0.3271229,0.3965595 -0.2975643,0.2756158 0,0 z m 0.45953,0.04078 c -0.1964667,0.062998 0.041628,0.1127363 0.049209,0.014693 z m -4.47571,0.01475 c 0.1181247,0.1917552 -0.1096749,0.316307 0,0 z m 5.00473,0.0062 c -0.073736,0.1575419 0.1633125,0.1066436 0,0 z m 1.5057666,0.06304 c 0.218827,0.1978123 -0.233603,0.1694037 0,0 z m -0.183224,0.02924 c 0.09985,0.2860456 -0.314327,0.016958 0,0 z m -6.0898626,0.01422 c 0.3861864,0.1226023 -0.061894,0.2774451 0,0 z m 4.32576,0.01288 c -0.1246858,0.042359 0.063984,0.091615 0,0 z m 2.4819766,0 c -0.219432,0.1323993 0.224537,0.1416901 0,0 z m -4.3619766,0.01207 c 0.076063,0.077075 -0.054794,0.1021589 0,0 z m 2.461058,0.03085 c -0.2137678,0.2086387 0.1581492,0.1943122 0,0 z m 1.2718396,0.08289 c 0.146272,0.130522 -0.14948,0.1729628 0,0 z m -1.0666176,0.0032 c -0.112611,0.2519703 0.2158505,0.1214851 0,0 z m -1.06045,0.01851 C 8.2487408,8.4713788 8.6760596,8.8176807 8.6153024,8.34968 8.4714564,8.3212142 8.6720768,8.1029113 8.5346824,8.1475672 Z m -4.2662,0.04105 C 4.4553628,8.520549 4.6969773,9.3370495 4.5468033,9.4395855 4.3002281,9.0788318 4.3186904,8.5778596 4.2684824,8.1886172 Z m 1.40919,0.03139 c 0.1628896,0.076352 -0.1542898,0.05464 0,0 z m -0.91317,0.05687 c 0.2960361,0.079693 0.322848,0.4411099 0.049643,0.076779 z m 6.7344996,0.007 c 0.165603,0.036876 -0.07712,0.148166 0,0 z m -2.7727796,0.03031 c -0.1262393,0.076155 0.1262393,0.076155 0,0 z m 0.627204,0 c -0.1290144,0.078419 0.1622406,0.046354 0,0 z m 0.518018,0 c 0.1599496,0.070724 -0.1550121,0.081856 0,0 z m 2.5978686,0.103818 c 0.304653,0.4514256 -0.850198,0.400732 -0.193715,0.07212 l 0.09669,-0.035115 z m -5.2593206,0.0062 c 0.1260937,0.041939 -0.1244535,0.122858 0,0 z m -1.64687,0.01583 c -0.073927,0.065752 0.1237697,0.057865 0,0 z m 2.71966,0.0091 c -0.2848596,0.1544402 0.1704372,0.1672886 0,0 z m 4.4201886,0.0027 c 0.07579,0.07721 -0.05453,0.1020883 0,0 z m -5.8800786,0.05204 c 0.4595897,0.1554137 0.9869456,0.5656717 0.97671,1.088905 -0.1403193,-0.0329 0.3669619,0.2620344 0.032537,0.3616256 0.1316009,0.4172152 0.780565,-0.019968 0.8112315,0.5558672 0.1110779,-0.128026 0.093455,0.454371 0.3492415,0.101352 0.067416,0.104241 -0.1531478,0.30389 0.2393498,0.292285 0.1010319,0.284756 9.733e-4,0.488746 -0.062941,0.711999 0.1678548,-0.02503 0.066375,0.671758 0.2669675,0.92196 0.1805681,0.463624 -0.4357442,0.62938 -0.2511061,0.297771 -0.2521472,0.03021 -0.079261,0.71572 -0.3753757,0.160076 C 8.4712691,12.759075 9.0302172,12.685209 8.6422599,12.490289 8.3191949,12.395409 8.4295751,11.968687 8.3357872,11.979356 8.0499824,11.96236 7.9189651,11.545689 7.684488,11.564548 7.5733277,11.204382 7.2263124,10.800451 7.1902282,10.827272 6.8182828,11.252641 6.8106188,10.075415 6.9530174,10.752003 7.2031399,10.890399 7.2091029,9.9483297 6.7953057,10.318955 6.9391236,10.026899 7.1736069,10.138773 7.0894311,9.8080349 7.1922794,9.5685116 6.487152,9.5467866 6.9592558,9.4220874 6.9522381,9.2671101 7.3827969,8.7011238 6.9038704,8.9419829 6.8388653,9.3870484 5.9332205,9.2939125 5.9778016,9.0843918 6.2202483,9.2238789 6.8182204,8.6256281 6.7651923,8.6706883 6.5625352,8.748676 6.7296363,8.481154 6.8228924,8.5038752 Z m 3.5483276,0.0617 c 0.126448,0.075153 -0.126135,0.076307 0,0 z m -5.7290476,0.0086 c 0.456028,0.1577646 0.1467419,0.3981852 1.377e-4,0.00256 z m 2.97263,0.004 c 0.2242777,0.082456 -0.098187,0.1297465 0,0 z m 5.1587216,0.03327 c 0.04621,0.1698029 -0.04717,0.06383 0,0 z m -5.3513316,0.04936 c 0.2694871,0.054215 0.079649,0.2137142 0,0 z m 2.9230066,0.03139 c 0.389552,0.128106 -0.162075,0.054615 0,0 z m 0.324599,0.03031 c -0.13726,0.1486748 0.244619,0.2094877 0,0 z m -2.9458056,0.02012 c 0.2370187,0.6440041 -0.3167066,0.2731347 0,0 z m -3.81981,0.0059 C 3.596361,9.6012327 4.1870371,10.508483 3.8191516,11.355013 3.6365435,11.666093 3.4330415,12.406741 3.9476131,11.804292 4.5295494,11.17162 4.0301706,10.380099 3.9760492,9.676 3.9713087,9.3666861 4.0147689,9.0454933 3.9041824,8.7485252 Z m 8.8706826,0.03219 c 0.04288,0.2026618 -0.04264,0.096623 0,0 z m -2.265489,0.04802 c -0.05537,0.1031717 0.07687,0.07589 0,0 z m -4.2616436,0.118304 c 0.188499,0.111435 -0.1393886,0.1295619 0,0 z m -2.0608,0.07028 c 0.076794,0.077415 -0.055664,0.1018374 0,0 z m 6.7999536,0.01931 c -0.23278,0.079095 0.198218,0.09248 0,0 z m 1.727083,0.01046 c 0.142044,0.097356 -0.125666,0.1581728 0,0 z m -2.392914,0.115354 c 0.188841,0.062513 -0.140532,0.082304 0,0 z m -4.8531626,0.033 c 0.4223397,0.1328592 0.129769,0.4506906 0,0 z m 6.8458276,0.03541 c 0.291513,0.6309294 -1.137178,0.1083427 -0.297238,0.080777 0.103442,0.058608 0.240273,0.032728 0.297238,-0.080777 z m -2.3344336,0.0024 c 0.1330106,0.097794 -0.1639228,0.083186 0,0 z m -5.711874,0.0054 c 0.1091385,0.1527678 -0.2104114,0.030388 0,0 z m 5.9264856,0.01797 c 0.204724,0.1608655 -0.171154,0.099492 0,0 z m -4.3126156,0.0083 c 0.2660715,0.1097734 -0.2124175,0.1829424 0,0 z m 3.572206,0.03568 c -0.1115391,0.1537668 0.2259851,0.059837 0,0 z m -1.009476,0.02495 c 0.1449063,0.054914 -0.044542,0.197775 0,0 z m -1.85773,0.03782 c -0.08061,0.3536014 -1.0355975,0.048315 -0.2709239,0.064485 0.092767,-0.00723 0.186124,-0.024604 0.2709239,-0.064485 z m 2.67245,0.04239 c -0.1828704,0.1314939 0.1806916,0.125964 0,0 z m -4.46794,0.0078 c 0.1259544,0.076533 -0.1262705,0.075385 0,0 z m 4.9881,0.01234 c -0.3026093,0.2352212 0.4375546,0.080113 0,0 z m -0.65751,0.01502 c -0.2719432,0.2904736 0.1490584,0.3536527 0,0 z m 1.2399116,0.0086 c 0.345225,0.2190912 -0.3757786,0.00366 0,0 z m -3.0576716,0.01556 c -0.3520806,0.1932065 0.146478,0.1266742 0,0 z m -2.19655,0.01154 c 0.3486217,0.146454 -0.00812,0.3273963 0,0 z m 2.44416,0.03139 c -0.2008766,0.1371541 0.1623774,0.1256679 0,0 z m -3.29563,0.008 C 4.7408895,9.6457841 4.3576829,10.586152 4.2795368,9.7792539 4.2620562,9.692938 4.2450591,9.6045587 4.2556024,9.5160132 Z m 6.9885486,0.02334 c 0.172947,0.1351662 -0.220275,0.1013634 0,0 z m -5.7521186,0.0019 c 0.046316,0.222116 -0.2878562,0.1485816 0,0 z m 2.67781,0.01127 c 0.1286178,0.1131623 -0.172846,0.053672 0,0 z m -3.25189,0.0032 c 0.317776,0.3680107 -0.1117083,0.4659028 0,0 z m 2.48761,0.01502 c -0.1243463,0.057526 0.073951,0.066069 0,0 z m 3.7243086,0.03434 c 0.288578,0.2618872 0.857084,0.5781378 1.015612,0.7059788 -0.408924,0.185601 0.216652,0.243334 -0.234748,0.396725 -0.296242,-0.02864 -0.902184,-0.392313 -0.878115,-0.470159 0.392025,-0.155494 -0.29687,-0.5272782 0.09725,-0.6325448 z m -5.4562186,0.03166 c 0.2429981,-0.00576 -0.016839,0.1802912 0,0 z m 4.180354,0.0048 c -0.1693575,0.1026437 0.2073406,0.063201 0,0 z m -2.402034,0.02334 c -0.091549,0.3050725 0.4612173,0.3758418 0.047175,0.02958 l -0.016997,-0.023664 z m 4.3769946,0.07028 c 0.115485,0.2902538 -0.437159,0.061856 0,0 z m 0.841812,0.0046 c 0.07559,0.077021 -0.05444,0.1023835 0,0 z m -2.363942,0.01958 c 0.12843,0.083527 -0.13553,0.113898 0,0 z m 0.869175,0.03139 c -0.0739,0.06576 0.123767,0.057866 0,0 z m -5.6989996,0.0064 c 0.3452989,0.058929 0.4095925,0.1470948 0.024356,0.1395648 l -0.027006,-0.037532 z m 5.4436126,0.05687 c 0.134306,0.3416088 -0.45196,0.053214 0,0 z m -2.2971426,0.0067 c 0.5831537,0.2693658 -0.088365,0.3754728 0,0 z m 1.120804,0.0083 c 0.058868,0.1405448 -0.1855722,0.00405 0,0 z m 2.8529886,0.04721 c 0.126135,0.076307 -0.126448,0.075153 0,0 z m -0.739068,0.0019 c 0.100669,0.1975278 -0.235229,0.1031748 0,0 z m -6.9751346,0.02978 C 5.2427707,10.002766 5.6124895,10.435896 5.8343952,10.847591 5.5119636,10.426905 5.4836763,10.651992 5.609663,11.064696 5.4888786,10.692775 5.3048403,10.459703 5.4424826,10.987641 c 0.3676865,0.668325 -1.031744,1.041335 -0.4257602,1.580118 0.1773203,0.271603 0.5329625,0.519295 0.3648069,0.04281 0.1891285,0.05388 0.3985772,0.414577 0.4275489,-0.08843 0.399749,-0.310668 0.666271,0.132957 0.6385463,0.502871 0.4116949,0.27557 -0.5258575,0.171152 -0.016479,0.257046 0.4723389,-0.173353 0.1943105,1.010874 0.063472,0.339344 -0.2048834,-0.393045 0.051752,0.474471 -0.2763085,0.09962 C 5.9713597,13.31222 6.02437,13.353798 5.8912519,13.73823 5.3406183,13.801582 5.2498246,12.913949 4.9414746,12.847409 c -0.02182,0.195749 0.5504987,1.098562 0.1087303,0.713533 -0.2820631,-0.512011 -0.6704821,-1.1285 -0.184807,-1.671221 0.6753492,-0.429267 0.4746716,-1.186786 0.020275,-1.677046 -0.032167,-0.08296 -0.04817,-0.18273 -0.0026,-0.2647818 z m 6.1639046,0.06277 c 0.178761,0.05191 -0.117665,0.092 0,0 z m -7.2696846,0.0016 c -0.010335,0.201525 0.151081,0.317261 0,0 z m 6.8077346,0.03327 c 0.278915,0.07775 0.01169,0.214049 0,0 z m 1.697037,0.0011 c 0.193578,0.225581 -0.09953,0.200225 0,0 z m -5.9138816,0.04239 c 0.295717,0.272844 0.1506658,0.686207 0.019163,0.136135 z m 1.48592,0.01583 c -0.2733512,0.189248 0.192624,0.241364 0,0 z m -2.743,0.03139 c -0.093719,0.14872 0.1865242,0.13479 0,0 z m 6.2341846,2.68e-4 c -0.275589,0.306519 0.158013,0.26081 0,0 z m -3.0421146,0.04856 c -0.1837749,0.07322 -0.060358,0.229911 0,0 z m 2.5699696,0.04534 c 0.06399,0.09106 -0.124028,0.04251 0,0 z m 0.677635,0 c -0.189829,0.0625 0.140668,0.08236 0,0 z m 0.433514,0 c -0.125857,0.07573 0.125858,0.07573 0,0 z m -3.0686686,0.02844 c 0.091487,0.196993 -0.4211016,0.08871 -0.088626,0.02239 z m -3.67066,0.06465 c -0.1061297,0.123712 0.1148544,0.161873 0,0 z m 3.17276,0.0013 c -0.1281032,0.07859 0.162451,0.04566 0,0 z m -3.64544,0.04078 c 0.5299505,0.679764 0.016128,1.345159 -0.3361441,1.9496 -0.3377421,0.213193 0.1948454,-0.618518 0.2048993,-0.869359 0.024,-0.337815 0.088987,-0.773336 -0.099632,-0.951742 0.070555,-0.05602 0.1685428,-0.05955 0.2308767,-0.128499 z m -0.0357,0.122597 c -0.072954,0.107232 0.1818393,0.07535 0,0 z m 0.0802,0.13601 c -0.072136,0.278491 0.3159267,0.319799 0,0 z m 1.57176,0.01449 c 0.2251755,0.07532 0.01868,0.205609 0,0 z m -0.0333,0.18859 c 0.2568904,0.358743 0.7022419,0.444901 1.04032,0.842348 0.2928801,0.01409 0.086562,0.507849 0.4239204,0.56091 0.4515258,0.286267 0.7058639,0.593878 0.9008171,0.988847 -0.3438518,0.0752 0.4361192,0.111812 -0.079298,0.231304 0.1062306,0.330601 0.3706423,0.493305 0.3936111,0.837557 0.3769528,-0.398095 0.313458,0.847333 0.7559339,0.969945 -0.5670369,-0.03975 -1.118437,0.174075 -1.6761747,0.114549 -0.5782526,0.143345 -1.6205862,-0.246903 -1.5180403,-0.932753 0.2462194,0.04045 0.7769552,0.72596 0.6699941,0.01178 0.1553583,-0.313086 0.1354751,-0.585109 -0.1808832,-0.673231 -0.049517,-0.324262 0.3232196,0.07365 0.090031,-0.31346 C 6.9584511,12.902829 6.5331841,12.509102 6.5109642,11.963783 6.5060897,11.610154 5.8509422,11.106821 6.3552424,10.827268 Z m -1.59725,0.0067 c -0.1941019,0.164612 0.2318723,0.188894 0,0 z m 1.80676,0.02468 c 0.1264493,0.07515 -0.1261341,0.07631 0,0 z m -2.45891,0.01583 C 4.284007,11.210816 3.732603,11.94628 3.9937769,11.195677 4.0180412,11.084772 4.0505692,10.97438 4.1058424,10.874478 Z m 4.78905,0.02119 c -0.2705603,0.167824 0.1976099,0.284108 0,0 z m 0.18859,0.05768 c -0.00274,0.232696 0.2806723,0.05012 0,0 z m -2.75373,0.07726 c -0.1756653,0.215142 0.1896954,0.28835 0,0 z m -1.40999,0.06358 c -0.1468504,0.158238 0.1409135,0.04063 0,0 z m 3.46945,0.04722 c -0.1240297,0.0425 0.063978,0.09106 0,0 z m -1.69301,0.03595 c -0.2029395,0.0766 0.1223666,0.11233 0,0 z m 1.1589,0.02683 c -0.1258542,0.07573 0.1258542,0.07573 0,0 z m 1.793612,0.01932 c 0.1318983,0.386839 -0.4481242,0.03886 0,0 z m 0.222123,0.0279 c 0.2347756,0.332266 -0.2908521,0.348853 0,0 z m -1.594295,0.04722 c -0.1792116,0.05127 0.1168602,0.09249 0,0 z m 0.75034,0.03675 c -0.413721,0.106241 0.3075271,0.209412 0,0 z m -3.81686,0.01019 c 0.1260846,0.04194 -0.1244678,0.122855 0,0 z m 0.48663,0.01583 c 0.07233,0.179791 0.1545027,1.003523 -0.0123,0.423426 -0.2740045,0.381492 0.031624,-0.403446 0.0123,-0.423426 z m 2.94876,0.09416 c -0.1271717,0.0565 0.1209958,0.06124 0,0 z m 1.4322566,0.02951 c 0.12957,0.07297 -0.096779,0.138598 0,0 z m -2.2547566,0.0019 c -0.138835,0.108066 0.1362577,0.120468 0,0 z m -0.98212,0.06304 c -0.189843,0.06331 0.1416735,0.08182 0,0 z m 2.0533,0.0043 c 0.082231,0.216904 0.2258283,-0.0486 0,0 z m 0.767499,0.01127 c 0.1260109,0.04206 -0.1242067,0.122585 0,0 z m -3.816059,0.0016 c 0.1544996,0.190938 -0.1612738,0.233218 0,0 z m 3.26961,0.07699 c -0.1940907,0.07847 0.151157,0.14895 0,0 z m -0.29214,0.04695 c -0.1473106,0.159005 0.1411717,0.04002 0,0 z m -1.3711,0.07404 c -0.1798491,0.0848 0.1841515,0.09323 0,0 z m 1.854776,0.130108 c 0.1395536,0.107889 -0.1365949,0.121142 0,0 z m -3.652416,0.03917 c 0.2358784,0.25038 -0.2863603,0.808592 -0.0461,0.241706 -0.037355,-0.07867 -0.020684,-0.183578 0.0461,-0.241706 z m -0.0987,0.03327 c 0.059944,0.325532 -0.2997716,0.283418 0,0 z m 2.27649,0.0338 c 0.079773,0.07854 -0.06204,0.100094 0,0 z m -3.70419,0.100599 c -0.021207,0.392595 -0.3989958,0.51808 -0.091728,0.07955 0.02356,-0.03545 0.05415,-0.06033 0.091728,-0.07955 z m 4.4108,0.04453 c -0.2116763,0.118657 0.1043809,0.09615 0,0 z m -1.6839,0.204417 c -0.1553207,0.122799 0.08775,0.03433 0,0 z m -1.41509,0.01556 c -0.04227,0.541251 -0.4271973,0.273193 0,0 z m 0.38335,0 c 0.1261341,0.07631 -0.1264493,0.07515 0,0 z m -1.49584,0.169811 c 0.1191087,0.249243 -0.2648858,0.107439 0,0 z m 4.86711,0.05151 c -0.2590366,0.05994 -0.011289,0.148433 0.049518,0.02035 z m -0.29079,0.218367 c -0.1948232,0.183525 0.1702678,0.150374 0,0 z m -4.63695,0.01314 c 0.1027343,0.241507 -0.1567726,0.202004 0,0 z m 2.4235,0.01824 c 0.2182919,0.189389 -0.1551061,0.196009 0,0 z m -2.32478,0.101404 c 0.135756,0.09399 -0.1578081,0.08453 0,0 z m 1.14442,0.0676 c -0.064834,0.111807 0.1771934,6.8e-5 0,0 z m -1.06474,0.06304 c 0.1970511,0.168112 0.051603,0.321905 0,0 z m -0.0738,0.113744 c 0.1264373,0.07516 -0.126146,0.0763 0,0 z m 4.12911,0 c -0.125853,0.07573 0.1258649,0.07573 0,0 z m 0.6763,0.06277 c 0.2875117,0.573472 -0.3451632,0.500155 0,0 z m -2.22418,0.01878 c 0.1741217,0.286144 -0.2782879,0.137675 0,0 z m -0.77475,0.09121 c -0.1263392,0.04218 0.1249569,0.122148 0,0 z m -1.57953,0.01556 c 0.1163649,0.07844 -0.084264,0.142931 0,0 z m 0.0139,0.172226 c 0.2852668,0.179262 -0.1867996,0.273116 0,0 z m 1.59992,0.01636 c -0.1244978,0.05754 0.073917,0.06608 0,0 z m 3.229364,0.09845 c 0.1876167,0.09628 -0.1519623,0.0931 0,0 z m -2.512294,0.07028 c 0.1772551,0.0012 -0.06469,0.111031 0,0 z m -2.55789,0.08236 c 0.1262598,0.07539 -0.1259556,0.07653 0,0 z m 2.69363,0.06304 c 0.1628998,0.07635 -0.1542791,0.05466 0,0 z m -2.43637,0.0021 c -0.021881,0.327166 0.1773737,0.377792 0.34124,0.388529 -0.042027,0.211595 0.049818,0.303665 0.1051267,0.10734 -0.0802,0.490946 0.1803654,0.658018 0.5694667,0.457433 0.5595123,0.207687 0.1002803,0.545413 -0.2175204,0.223844 C 4.8124347,14.833844 3.963397,14.882477 4.6283624,13.876604 Z m 0.0421,0.07243 c 0.076614,0.07572 -0.055256,0.103477 0,0 z m 3.31547,0.01958 c -0.1237609,0.05788 0.07393,0.06575 0,0 z m -0.83162,0.04346 c 0.2408508,0.07535 -0.068351,0.207207 0,0 z m -0.33184,0.0668 c 0.086945,0.03419 -0.15116,0.120636 0,0 z m 0.17115,0.05848 c 0.1763154,0.0013 -0.065093,0.111639 0,0 z m 0.21622,0.05124 c 0.1258649,0.07573 -0.125853,0.07573 0,0 z m -2.5984,0.255924 c -0.2715528,0.110991 0.1642994,0.08156 0,0 z m 2.91952,0.0027 c -0.2120318,0.284345 0.3275711,0.328122 0.01489,0.01577 l -0.01483,-0.01577 z m -0.43298,0.0043 c 0.1821863,0.130683 -0.034044,0.339579 0,0 z m 1.07976,0.08262 c -0.1456901,0.08386 0.1384875,0.122143 0,0 z m -4.24259,0.06277 c 0.3154327,0.118316 0.8585397,0.580364 0.2185594,0.17965 -0.079363,-0.05048 -0.1652621,-0.09877 -0.2185594,-0.17965 z m 1.01484,0.09416 c -0.073929,0.06575 0.1237593,0.05787 0,0 z m -1.06259,0.125816 c -0.1258649,0.07573 0.125853,0.07573 0,0 z m 3.57354,0.07028 c -0.1594246,0.140861 0.071044,0.146162 0,0 z m -2.79638,0.127962 c 0.2849784,0.08725 -0.2411355,0.11017 0,0 z m 1.42072,0.100599 c 0.309235,0.03809 1.0249704,0.693803 0.3231072,0.370376 C 6.2568973,15.446627 5.9109432,15.3378 6.0852824,15.115725 Z m -1.164,0.02361 c 0.5417108,0.08117 0.1675252,0.311968 0,0 z m 4.02879,0.02307 c -0.1655823,0.06218 0.2134392,0.05785 0,0 z m -2.77438,0.09416 c -0.182551,0.06116 0.2192083,0.03747 0,0 z m 2.32263,0 c -0.1206028,0.09438 0.180672,0.04807 0,0 z m 1.418576,0.0668 c 0.091482,0.05845 -0.1533788,-0.0026 0,0 z m -3.963066,0.153715 c 0.3867824,0.08991 0.5949902,0.302244 0.083171,0.109851 -0.027264,-0.0074 -0.2885285,-0.100994 -0.083171,-0.109851 z m 4.2967876,0.06573 c 0.02733,0.52127 -1.6133829,0.281942 -0.6199887,0.203355 0.2149406,-0.02043 0.4656387,-0.02696 0.6199887,-0.203355 z M 5.6662524,15.5742 c 0.3658755,0.0836 0.039477,0.257972 0,0 z m 1.86632,0.122328 c -0.1264493,0.07515 0.1261341,0.07631 0,0 z m 0.13654,0.06063 c -0.6506162,0.333926 0.9689863,0.299904 0.1702075,0.08437 l -0.098259,-0.04567 z" /></svg>
