<?xml version="1.0" encoding="UTF-8" standalone="no"?>
<svg
   height="16"
   viewBox="0 0 16 16"
   width="16"
   version="1.1"
   id="svg4"
   xml:space="preserve"
   xmlns="http://www.w3.org/2000/svg"
   xmlns:svg="http://www.w3.org/2000/svg"><defs
     id="defs8" /><style
     type="text/css"
     id="style244">&#10;	.st0{fill:#75AADB;}&#10;	.st1{fill:#4D4D4D;}&#10;	.st2{fill:#FFFFFF;}&#10;	.st3{fill:url(#SVGID_1_);}&#10;	.st4{fill:url(#SVGID_2_);}&#10;	.st5{fill:url(#SVGID_3_);}&#10;	.st6{fill:url(#SVGID_4_);}&#10;	.st7{fill:url(#SVGID_5_);}&#10;	.st8{fill:url(#SVGID_6_);}&#10;	.st9{fill:url(#SVGID_7_);}&#10;	.st10{fill:url(#SVGID_8_);}&#10;	.st11{fill:url(#SVGID_9_);}&#10;	.st12{fill:url(#SVGID_10_);}&#10;	.st13{opacity:0.18;fill:url(#SVGID_11_);}&#10;	.st14{opacity:0.3;}&#10;</style><path
     id="circle16"
     style="fill:#000000;fill-opacity:0.851;stroke-width:0.551725"
     d="m 13.241379,10.758622 a 1.1034485,1.1034485 0 0 1 -1.103448,1.103448 1.1034485,1.1034485 0 0 1 -1.103449,-1.103448 1.1034485,1.1034485 0 0 1 1.103449,-1.1034495 1.1034485,1.1034485 0 0 1 1.103448,1.1034495 z m 2.758621,0 A 1.1034485,1.1034485 0 0 1 14.896552,11.86207 1.1034485,1.1034485 0 0 1 13.793103,10.758622 1.1034485,1.1034485 0 0 1 14.896552,9.6551725 1.1034485,1.1034485 0 0 1 16,10.758622 Z m -11.034484,0 A 1.1034485,1.1034485 0 0 1 3.862067,11.86207 1.1034485,1.1034485 0 0 1 2.758619,10.758622 1.1034485,1.1034485 0 0 1 3.862067,9.6551725 1.1034485,1.1034485 0 0 1 4.965516,10.758622 Z m -2.758619,0 A 1.1034485,1.1034485 0 0 1 1.103448,11.86207 1.1034485,1.1034485 0 0 1 0,10.758622 1.1034485,1.1034485 0 0 1 1.103448,9.6551725 1.1034485,1.1034485 0 0 1 2.206897,10.758622 Z m 0,-2.7586215 A 1.1034485,1.1034485 0 0 1 1.103448,9.1034485 1.1034485,1.1034485 0 0 1 0,8.0000005 1.1034485,1.1034485 0 0 1 1.103448,6.8965515 1.1034485,1.1034485 0 0 1 2.206897,8.0000005 Z m 13.793103,0 A 1.1034485,1.1034485 0 0 1 14.896552,9.1034485 1.1034485,1.1034485 0 0 1 13.793103,8.0000005 1.1034485,1.1034485 0 0 1 14.896552,6.8965515 1.1034485,1.1034485 0 0 1 16,8.0000005 Z m -2.758621,0 a 1.1034485,1.1034485 0 0 1 -1.103448,1.103448 1.1034485,1.1034485 0 0 1 -1.103449,-1.103448 1.1034485,1.1034485 0 0 1 1.103449,-1.103449 1.1034485,1.1034485 0 0 1 1.103448,1.103449 z m -2.75862,0 A 1.1034485,1.1034485 0 0 1 9.37931,9.1034485 1.1034485,1.1034485 0 0 1 8.275862,8.0000005 1.1034485,1.1034485 0 0 1 9.37931,6.8965515 a 1.1034485,1.1034485 0 0 1 1.103449,1.103449 z m -2.758623,0 a 1.1034485,1.1034485 0 0 1 -1.103448,1.103448 1.1034485,1.1034485 0 0 1 -1.103449,-1.103448 1.1034485,1.1034485 0 0 1 1.103449,-1.103449 1.1034485,1.1034485 0 0 1 1.103448,1.103449 z m -2.75862,0 a 1.1034485,1.1034485 0 0 1 -1.103449,1.103448 1.1034485,1.1034485 0 0 1 -1.103448,-1.103448 1.1034485,1.1034485 0 0 1 1.103448,-1.103449 1.1034485,1.1034485 0 0 1 1.103449,1.103449 z m 8.275863,-2.758622 a 1.1034485,1.1034485 0 0 1 -1.103448,1.103449 1.1034485,1.1034485 0 0 1 -1.103449,-1.103449 1.1034485,1.1034485 0 0 1 1.103449,-1.103448 1.1034485,1.1034485 0 0 1 1.103448,1.103448 z m -2.75862,0 A 1.1034485,1.1034485 0 0 1 9.37931,6.3448275 1.1034485,1.1034485 0 0 1 8.275862,5.2413785 1.1034485,1.1034485 0 0 1 9.37931,4.1379305 a 1.1034485,1.1034485 0 0 1 1.103449,1.103448 z m -2.758623,0 a 1.1034485,1.1034485 0 0 1 -1.103448,1.103449 1.1034485,1.1034485 0 0 1 -1.103449,-1.103449 1.1034485,1.1034485 0 0 1 1.103449,-1.103448 1.1034485,1.1034485 0 0 1 1.103448,1.103448 z m -2.75862,0 a 1.1034485,1.1034485 0 0 1 -1.103449,1.103449 1.1034485,1.1034485 0 0 1 -1.103448,-1.103449 1.1034485,1.1034485 0 0 1 1.103448,-1.103448 1.1034485,1.1034485 0 0 1 1.103449,1.103448 z" /></svg>
