<?xml version="1.0" encoding="UTF-8" standalone="no"?>
<svg
   width="16"
   height="16"
   version="1"
   id="svg566"
   xmlns="http://www.w3.org/2000/svg"
   xmlns:svg="http://www.w3.org/2000/svg">
  <defs
     id="defs570" />
  <path
     d="m 10.455929,9.0095534 h 3.022143 c 0.270952,0.3010131 0.639167,0.4700434 1.079172,0.4700434 0.80359,0 1.442756,-0.6738061 1.442756,-1.4819097 0,-0.803474 -0.639166,-1.47728 -1.442756,-1.47728 -0.440005,0 -0.80822,0.203763 -1.079172,0.470044 h -3.022143 l 2.14908,-2.14877 c 0,0 0,0 0.03474,0 0.805906,0 1.445071,-0.673806 1.445071,-1.481911 0,-0.803473 -0.639165,-1.442547 -1.445071,-1.442547 -0.808221,0 -1.479809,0.639074 -1.479809,1.4425469 0,0.03473 0,0.03473 0,0.03473 L 9.008543,5.5479 V 2.5215621 C 9.309602,2.252966 9.478656,1.882488 9.478656,1.4471771 9.478656,0.63907205 8.807066,-9.5e-7 8.001162,-9.5e-7 c -0.808219,0 -1.479809,0.639074 -1.479809,1.44717805 0,0.4353109 0.201477,0.805789 0.470113,1.074385 V 5.5479 L 4.84007,3.3944991 c 0,0 0,0 0,-0.03473 0,-0.803473 -0.639168,-1.442547 -1.477495,-1.442547 -0.808222,0 -1.447386,0.639074 -1.447386,1.442547 0,0.808105 0.639164,1.481911 1.447386,1.481911 0.03473,0 0.03473,0 0.03473,0 l 2.149082,2.14877 H 2.521927 C 2.253291,6.7241691 1.88276,6.5204061 1.445069,6.5204061 0.639164,6.5204061 0,7.1942121 0,7.9976861 c 0,0.8081036 0.639164,1.4819097 1.445069,1.4819097 0.437691,0 0.808222,-0.1690303 1.076858,-0.4700434 h 3.02446 L 3.397305,11.158322 c 0,0 0,0 -0.03473,0 -0.808222,0 -1.447386,0.639074 -1.447386,1.479595 0,0.805789 0.639164,1.444862 1.447386,1.444862 0.805906,0 1.477495,-0.639073 1.477495,-1.444862 0,-0.03242 0,-0.03242 0,-0.03242 l 2.151396,-2.153401 v 3.026339 c -0.301059,0.268596 -0.470113,0.639074 -0.470113,1.074385 0,0.808104 0.67159,1.447178 1.479809,1.447178 0.805904,0 1.477494,-0.639074 1.477494,-1.447178 0,-0.435311 -0.19916,-0.805789 -0.470113,-1.074385 V 10.452099 L 11.15994,12.6055 c 0,0 0,0 0,0.03242 0,0.805789 0.639167,1.444862 1.479809,1.444862 0.805906,0 1.445071,-0.639073 1.445071,-1.444862 0,-0.840521 -0.639165,-1.479595 -1.445071,-1.479595 -0.03474,0 -0.03474,0 -0.03474,0 z"
     style="display:inline;fill:#000000;stroke-width:0.231565;enable-background:new"
     id="path8" />
</svg>
