<?xml version="1.0" encoding="UTF-8" standalone="no"?>
<svg
   width="16"
   height="16"
   version="1"
   id="svg14"
   xmlns="http://www.w3.org/2000/svg"
   xmlns:svg="http://www.w3.org/2000/svg">
  <defs
     id="defs18">
    <clipPath
       clipPathUnits="userSpaceOnUse"
       id="clipPath7">
      <rect
         width="100"
         height="100"
         rx="18.066406"
         fill="#ffffff"
         id="rect7"
         x="-88"
         y="12"
         style="stroke-width:0.0976562" />
    </clipPath>
  </defs>
  <path
     id="circle2"
     clip-path="url(#clipPath7)"
     style="display:inline;fill:#000000;stroke-width:0.0976562;enable-background:new"
     transform="matrix(0.2073924,0,0,0.2073924,15.880911,-4.8583289)"
     d="M -14.757813,62.048828 A 23.193359,23.193359 0 0 1 -37.951172,85.242187 23.193359,23.193359 0 0 1 -61.144531,62.048828 23.193359,23.193359 0 0 1 -37.951172,38.855469 23.193359,23.193359 0 0 1 -14.757813,62.048828 Z M -38,23.425781 c -21.262295,0 -38.574219,17.311924 -38.574219,38.574219 0,21.262295 17.311924,38.57422 38.574219,38.57422 C -16.737705,100.57422 0.57421875,83.262295 0.57421875,62 0.57421875,40.737705 -16.737705,23.425781 -38,23.425781 Z m 0,7.03125 c 17.462315,0 31.5429688,14.080654 31.5429688,31.542969 0,17.462315 -14.0806538,31.542969 -31.5429688,31.542969 -17.462315,0 -31.542969,-14.080654 -31.542969,-31.542969 0,-17.462315 14.080654,-31.542969 31.542969,-31.542969 z" />
</svg>
