<?xml version="1.0" encoding="UTF-8" standalone="no"?>
<svg
   height="16px"
   viewBox="0 0 16 16"
   width="16px"
   version="1.1"
   id="svg135"
   xmlns="http://www.w3.org/2000/svg"
   xmlns:svg="http://www.w3.org/2000/svg">
  <defs
     id="defs139" />
  <path
     id="rect506"
     style="stroke-width:0;stroke-linecap:square;stroke-linejoin:round;stroke-miterlimit:1.5;stroke-opacity:0.3;paint-order:stroke fill markers"
     d="M 2 0 C 0.89200664 -2.9605768e-16 0 0.89200664 0 2 L 0 14 C 0 15.107994 0.89200664 16 2 16 L 14 16 C 15.107994 16 16 15.107994 16 14 L 16 2 C 16 0.89200664 15.107994 0 14 0 L 2 0 z M 4 1.9960938 A 2 2 0 0 1 6 3.9960938 A 2 2 0 0 1 4 5.9960938 A 2 2 0 0 1 2 3.9960938 A 2 2 0 0 1 4 1.9960938 z M 6.9960938 1.9960938 L 13.996094 1.9960938 L 13.996094 3.9960938 L 6.9960938 3.9960938 L 6.9960938 1.9960938 z M 6.9960938 4.9960938 L 10.996094 4.9960938 L 10.996094 6.9960938 L 6.9960938 6.9960938 L 6.9960938 4.9960938 z M 6.9960938 8.9960938 L 11.996094 8.9960938 L 11.996094 10.996094 L 6.9960938 10.996094 L 6.9960938 8.9960938 z M 4 9.9980469 A 2 2 0 0 1 6 11.998047 A 2 2 0 0 1 4 13.998047 A 2 2 0 0 1 2 11.998047 A 2 2 0 0 1 4 9.9980469 z M 6.9960938 11.998047 L 13.996094 11.998047 L 13.996094 13.998047 L 6.9960938 13.998047 L 6.9960938 11.998047 z " />
</svg>
