<?xml version="1.0" encoding="UTF-8" standalone="no"?>
<svg
   width="16"
   height="16"
   version="1"
   id="svg566"
   xmlns="http://www.w3.org/2000/svg"
   xmlns:svg="http://www.w3.org/2000/svg">
  <defs
     id="defs570" />
  <path
     d="m 7.9686266,10.799473 c 0,0 -1.2987029,0.139742 -1.9106991,0.139742 -1.3107462,0 -1.6432595,-1.0553374 -1.6432595,-2.990138 0,-2.1396023 0.4602109,-2.9154564 1.5926647,-2.9154564 0.662591,0 1.9612939,0.1517998 1.9612939,0.1517998 l 0.074697,-1.3757907 c 0,0 -1.4239955,-0.3060054 -2.3299524,-0.3060054 -2.1877906,0 -3.1057915,1.2746011 -3.1057915,4.4454527 0,2.86244 0.6240543,4.517743 3.1057915,4.517743 1.084265,0 2.3179094,-0.279497 2.3179094,-0.279497 z"
     id="path1-6"
     style="fill:#000000;stroke-width:0.0740741" />
  <path
     d="m 11.469646,5.8094747 c -1.6673461,0 -2.4962009,1.0698016 -2.4962009,3.3105926 0,2.1131087 0.624054,3.3467527 2.4576499,3.3467527 0.942104,0 1.857699,-0.291541 1.857699,-0.291541 l -0.05061,-1.260152 c 0,0 -0.840897,0.07468 -1.298688,0.07468 -1.0168,0 -1.233643,-0.660185 -1.233643,-1.8697417 0,-1.2360496 0.252989,-1.8335962 1.233643,-1.8335962 0.457791,0 1.298688,0.089162 1.298688,0.089162 l 0.05061,-1.2987036 c 0,0 -0.877044,-0.2674543 -1.819148,-0.2674543 z"
     id="path2"
     style="fill:#000000;stroke-width:0.0740741" />
  <rect
     x="4e-07"
     y="4e-07"
     width="1.5555555"
     height="1.7777777"
     ry="0.14814813"
     id="rect2"
     style="fill:#000000;stroke-width:0.0740741" />
  <rect
     x="2.8888891"
     y="4e-07"
     width="1.5555555"
     height="1.7777777"
     ry="0.14814813"
     id="rect3"
     style="fill:#000000;stroke-width:0.0740741" />
  <rect
     x="5.7777777"
     y="4e-07"
     width="1.5555555"
     height="1.7777777"
     ry="0.14814813"
     id="rect4"
     style="fill:#000000;stroke-width:0.0740741" />
  <rect
     x="8.666667"
     y="4e-07"
     width="1.5555555"
     height="1.7777777"
     ry="0.14814813"
     id="rect5"
     style="fill:#000000;stroke-width:0.0740741" />
  <rect
     x="11.555555"
     y="4e-07"
     width="1.5555555"
     height="1.7777777"
     ry="0.14814813"
     id="rect6"
     style="fill:#000000;stroke-width:0.0740741" />
  <rect
     x="14.444444"
     y="4e-07"
     width="1.5555555"
     height="1.7777777"
     ry="0.14814813"
     id="rect7"
     style="fill:#000000;stroke-width:0.0740741" />
  <rect
     x="4e-07"
     y="14.222221"
     width="1.5555555"
     height="1.7777777"
     ry="0.14814813"
     id="rect8"
     style="fill:#000000;stroke-width:0.0740741" />
  <rect
     x="2.8888891"
     y="14.222221"
     width="1.5555555"
     height="1.7777777"
     ry="0.14814813"
     id="rect9"
     style="fill:#000000;stroke-width:0.0740741" />
  <rect
     x="5.7777777"
     y="14.222221"
     width="1.5555555"
     height="1.7777777"
     ry="0.14814813"
     id="rect10"
     style="fill:#000000;stroke-width:0.0740741" />
  <rect
     x="8.666667"
     y="14.222221"
     width="1.5555555"
     height="1.7777777"
     ry="0.14814813"
     id="rect11"
     style="fill:#000000;stroke-width:0.0740741" />
  <rect
     x="11.555555"
     y="14.222221"
     width="1.5555555"
     height="1.7777777"
     ry="0.14814813"
     id="rect12"
     style="fill:#000000;stroke-width:0.0740741" />
  <rect
     x="14.444444"
     y="14.222221"
     width="1.5555555"
     height="1.7777777"
     ry="0.14814813"
     id="rect13"
     style="fill:#000000;stroke-width:0.0740741" />
</svg>
