<?xml version="1.0" encoding="UTF-8" standalone="no"?>
<svg
   width="16"
   height="16"
   version="1"
   id="svg566"
   xmlns="http://www.w3.org/2000/svg"
   xmlns:svg="http://www.w3.org/2000/svg">
  <defs
     id="defs570" />
  <path
     id="path25"
     style="display:inline;fill:#000000;stroke-width:0.00698701;enable-background:new"
     d="m 8.3982904,0 2e-4,1.731273 2e-4,1.731298 0.961276,0.551523 c 0.5287,0.303363 1.1550456,0.662878 1.3918776,0.798959 0.236834,0.13608 0.64442,0.370216 0.905734,0.520322 0.261316,0.150106 0.566298,0.325414 0.677744,0.389566 0.111442,0.06415 0.3221,0.185233 0.468128,0.269112 0.14603,0.08385 0.41171,0.23646 0.590406,0.339089 0.178692,0.102654 0.430226,0.24711 0.55896,0.321063 0.128736,0.07393 0.351974,0.202209 0.49608,0.285037 0.144108,0.0828 0.35634,0.204784 0.471624,0.271062 l 0.209596,0.120455 0.0018,-1.41606 c 0.0014,-1.229202 4e-4,-1.42666 -0.0087,-1.496413 C 15.086736,4.138124 14.962688,3.893139 14.75884,3.696631 14.71698,3.656281 14.653886,3.603551 14.618618,3.579476 14.555768,3.536576 14.513994,3.512026 14.075078,3.260012 13.955952,3.191632 13.79717,3.100406 13.722234,3.057304 13.647294,3.014204 13.499522,2.929323 13.393844,2.868671 13.288166,2.808021 13.14039,2.72314 13.065454,2.680038 12.775384,2.513256 12.588764,2.406027 12.268932,2.222394 12.086398,2.117589 11.864732,1.990234 11.776346,1.939407 11.619622,1.849257 10.605758,1.266753 10.179812,1.022118 10.062604,0.954818 9.6208484,0.70103 9.1981344,0.458194 8.7754204,0.215359 8.4224884,0.012926 8.4138404,0.00835 Z M 7.5982764,0 6.3021824,0.751732 C 5.5893304,1.165199 4.8394484,1.600092 4.6357764,1.718197 1.2330844,3.691056 1.4206744,3.581726 1.3588624,3.627778 1.1366344,3.79341 0.97409037,4.03392 0.90519437,4.299081 c -0.04032,0.155207 -0.03889,0.09673 -0.03889,1.634694 3e-5,1.563516 -0.0025,1.473812 0.04531,1.616718 0.01308,0.03908 0.03372,0.09095 0.04588,0.11528 0.0604,0.120806 0.17416003,0.253012 0.27909803,0.324415 0.02882,0.01975 0.198606,0.12148 0.3773,0.226384 0.178692,0.104905 0.529266,0.310813 0.779052,0.457595 0.249788,0.146781 0.645952,0.379441 0.880368,0.517046 0.234414,0.137581 0.457648,0.268662 0.496078,0.291263 l 0.06987,0.0411 0.0035,-1.949358 0.0035,-1.949357 0.28647,-0.165182 c 0.157556,-0.09085 0.44053,-0.254086 0.628832,-0.362765 0.75424,-0.435243 1.953254,-1.126473 2.37559,-1.369483 0.245942,-0.141531 0.451106,-0.260886 0.455916,-0.265211 0.007,-0.0063 0.0084,-0.358865 0.007,-1.735023 z m 4.5625276,6.476798 c -0.002,0 -0.0035,0.876487 -0.0035,1.947783 v 1.947807 l -0.64776,0.373641 c -0.356262,0.205509 -0.732776,0.422618 -0.836698,0.48247 -0.306988,0.176783 -0.618786,0.356565 -1.1566376,0.666903 -0.278608,0.160757 -0.64333,0.371191 -0.810494,0.46762 l -0.303938,0.175333 -0.0018,1.731298 c -10e-4,0.952214 4e-4,1.729923 0.0035,1.728247 0.13662,-0.07883 3.9942216,-2.316073 4.2428836,-2.460679 0.09415,-0.05475 0.565776,-0.328263 1.048054,-0.607825 0.48228,-0.279562 0.902024,-0.525972 0.932768,-0.547598 0.07631,-0.05365 0.22776,-0.206434 0.283192,-0.285687 0.114896,-0.164207 0.185018,-0.342215 0.21252,-0.539373 0.0095,-0.06815 0.0108,-0.251886 0.0108,-1.490613 -3.2e-5,-1.565966 0.0026,-1.473412 -0.04606,-1.618993 -0.05525,-0.165257 -0.153238,-0.305438 -0.28595,-0.409067 -0.03184,-0.02475 -0.09985,-0.06983 -0.151136,-0.0999 -0.3618,-0.21216 -2.319337,-1.362334 -2.393726,-1.406461 -0.05091,-0.0302 -0.09414,-0.0549 -0.09607,-0.0549 z m -11.29103563,2.194443 -0.002,1.40936 c -0.0014,0.998042 2e-4,1.429785 0.0057,1.479262 0.02565,0.23121 0.116122,0.449394 0.26103003,0.629552 0.06226,0.0774 0.172488,0.180732 0.246648,0.231209 0.0639,0.0435 0.100612,0.065 0.582094,0.341365 0.15948,0.09153 0.423588,0.24321 0.58691,0.337064 0.163322,0.09383 0.446296,0.256411 0.628832,0.36124 0.182538,0.104854 0.415206,0.238536 0.517042,0.297088 0.101834,0.05855 0.281052,0.161532 0.39826,0.228834 0.117206,0.06733 0.274416,0.157632 0.349352,0.200734 0.07493,0.04308 0.222712,0.128006 0.328388,0.188682 0.10568,0.06068 0.253456,0.145556 0.328392,0.188658 0.07494,0.04308 0.232144,0.133406 0.34935,0.200708 0.117206,0.0673 0.379746,0.218136 0.583416,0.33514 0.203674,0.11703 0.511802,0.294062 0.68473,0.393416 0.172928,0.09935 0.441756,0.253913 0.597392,0.343491 0.155634,0.08955 0.28376,0.162882 0.28472,0.162956 0.001,5.1e-5 0.0018,-0.778857 0.0014,-1.730923 l -1.35e-4,-1.731048 -0.444466,-0.25501 c -0.79776,-0.457744 -0.869786,-0.499096 -1.085432,-0.623127 -0.204164,-0.117404 -0.455562,-0.26186 -0.901326,-0.517871 -0.113364,-0.06513 -0.289438,-0.166307 -0.391274,-0.22486 C 4.6769554,10.858611 4.4757294,10.743004 4.3316234,10.66025 4.0614694,10.505119 3.9429814,10.437041 3.2521274,10.040049 3.0292394,9.911969 2.6928134,9.718711 2.5045134,9.610581 1.9076974,9.267842 1.1114334,8.810422 0.98832937,8.739594 Z" />
</svg>
