<?xml version="1.0" encoding="UTF-8" standalone="no"?>
<svg
   width="16"
   height="16"
   version="1"
   id="svg566"
   xmlns="http://www.w3.org/2000/svg"
   xmlns:svg="http://www.w3.org/2000/svg">
  <defs
     id="defs570" />
  <path
     id="path1"
     style="baseline-shift:baseline;display:inline;overflow:visible;vector-effect:none;marker:none;enable-background:new;stop-color:#000000"
     d="M 1.3554688 3.9257812 C 0.6071481 3.9257812 -1.4802974e-16 4.5329293 0 5.28125 L 0 10.71875 C 0 11.467071 0.60714813 12.074219 1.3554688 12.074219 L 14.644531 12.074219 C 15.392852 12.074219 16 11.467071 16 10.71875 L 16 5.28125 C 16 4.5329294 15.392852 3.9257812 14.644531 3.9257812 L 1.3554688 3.9257812 z M 1.3554688 4.5234375 L 14.644531 4.5234375 C 15.067479 4.5234375 15.404297 4.8583014 15.404297 5.28125 L 15.404297 10.71875 C 15.404297 11.141698 15.067479 11.476563 14.644531 11.476562 L 1.3554688 11.476562 C 0.93252018 11.476562 0.59570312 11.141698 0.59570312 10.71875 L 0.59570312 5.28125 C 0.59570312 4.8583013 0.93252002 4.5234375 1.3554688 4.5234375 z " />
  <path
     d="m 5.5570436,9.9292706 q -0.1693292,0.072745 -0.3078701,0.1363974 -0.1354631,0.06365 -0.3571314,0.133367 -0.1878004,0.05759 -0.409467,0.09699 -0.218589,0.04243 -0.4833582,0.04243 -0.4987514,0 -0.9082201,-0.136398 Q 2.6846074,10.062637 2.3828943,9.7686241 2.0873384,9.4806735 1.9210884,9.0381386 1.7548368,8.5925724 1.7548368,8.0045465 q 0,-0.5577153 0.1600929,-0.9972191 0.160093,-0.4395038 0.4618076,-0.74261 Q 2.669214,5.9707045 3.081762,5.8161204 3.4973877,5.6615362 4.0022963,5.6615362 q 0.3694438,0 0.7358115,0.087901 0.369444,0.087901 0.8189358,0.3091681 v 0.7122995 h -0.04618 Q 5.1321815,6.4587053 4.7596584,6.3162454 4.3871337,6.1737856 3.9622731,6.1737856 q -0.3478949,0 -0.6280575,0.1121492 -0.2770834,0.1091182 -0.4956723,0.34251 -0.2124302,0.2273294 -0.3324999,0.5759015 -0.116992,0.3455409 -0.116992,0.8002002 0,0.4758766 0.129306,0.8183867 0.1323839,0.3425098 0.3386586,0.5577152 0.2155096,0.2242985 0.5018292,0.3334168 0.2893991,0.1060871 0.609585,0.1060871 0.4402555,0 0.8250944,-0.1485219 0.3848388,-0.1485221 0.7204181,-0.4455661 h 0.043101 z M 10.104298,10.256625 H 9.3130702 L 7.4997108,8.2470315 7.0440602,8.7259392 V 10.256625 H 6.434477 V 5.7433748 H 7.0440602 V 8.0985094 L 9.2699677,5.7433748 H 10.008859 L 7.9615168,7.8651177 Z m 4.140865,-1.3882259 q 0,0.3364478 -0.129306,0.5940879 -0.129305,0.2576403 -0.347894,0.4243486 -0.258611,0.2000504 -0.569562,0.2849194 -0.30787,0.08487 -0.785071,0.08487 H 10.787773 V 5.7433748 h 1.35771 q 0.50183,0 0.751205,0.036373 0.249376,0.036373 0.4772,0.1515531 0.252455,0.1303355 0.366367,0.3364478 0.113911,0.2030811 0.113911,0.4880008 0,0.3212926 -0.166249,0.5486221 -0.16625,0.2242985 -0.443334,0.3606963 v 0.024249 q 0.464885,0.093963 0.732732,0.4031312 0.267848,0.3061371 0.267848,0.775951 z m -1.02521,-2.0338423 q 0,-0.1636772 -0.05542,-0.2758266 Q 13.10912,6.4465811 12.985971,6.3768667 12.841272,6.2950279 12.634998,6.2768416 12.428725,6.2556242 12.123933,6.2556242 h -0.726577 v 1.3033564 h 0.78815 q 0.28632,0 0.455649,-0.027279 0.16933,-0.030311 0.314029,-0.1212426 0.1447,-0.090932 0.203194,-0.2333916 0.06157,-0.145491 0.06157,-0.3425101 z m 0.390996,2.0580907 q 0,-0.2727955 -0.08312,-0.4334418 -0.08313,-0.1606462 -0.301714,-0.2727954 -0.147778,-0.075777 -0.360209,-0.096994 -0.209352,-0.024249 -0.511065,-0.024249 h -0.95748 v 1.6792079 h 0.806623 q 0.400232,0 0.655765,-0.039404 0.255533,-0.042435 0.418704,-0.1515531 0.172408,-0.1182114 0.252455,-0.2697645 0.08005,-0.151553 0.08005,-0.3910069 z"
     id="text1"
     style="font-size:40.6654px;line-height:1;font-family:Verdana;-inkscape-font-specification:Verdana;letter-spacing:0px;display:inline;fill:#000000;stroke-width:0;stroke-linecap:round;stroke-linejoin:round;enable-background:new"
     aria-label="CKB" />
</svg>
