<?xml version="1.0" encoding="UTF-8" standalone="no"?>
<svg
   height="16px"
   viewBox="0 0 16 16"
   width="16px"
   version="1.1"
   id="svg364"
   xmlns="http://www.w3.org/2000/svg"
   xmlns:svg="http://www.w3.org/2000/svg">
  <defs
     id="defs368" />
  <path
     id="path2"
     style="fill:#000000;stroke-width:0.285715"
     d="M 13.630629,0 A 5.7142999,5.8611575 0 0 1 11.78554,3.421981 C 10.701539,2.705123 9.402154,2.285714 7.999868,2.285714 c -1.402858,0 -2.704093,0.4198 -3.788093,1.137343 A 5.7142999,5.8611575 0 0 1 2.369376,0.038198 5.7142999,5.8611575 0 0 0 2.285446,0.995847 5.7142999,5.8611575 0 0 0 3.229913,4.215538 C 1.943798,5.460682 1.142723,7.202856 1.142723,9.142857 1.142723,12.941717 4.201007,16 7.999866,16 c 3.798858,0 6.857411,-3.058283 6.857411,-6.857143 0,-1.939429 -0.800703,-3.681099 -2.085845,-4.926243 A 5.7142999,5.8611575 0 0 0 13.714287,0.995847 5.7142999,5.8611575 0 0 0 13.630897,0 Z M 3.18553,8.571496 7.428507,10.85721 C 6.751935,11.950353 5.253544,12.324699 4.082115,11.69327 2.910686,11.062413 2.509244,9.664639 3.18553,8.571496 Z m 9.628676,0 c 0.676401,1.093144 0.275016,2.490916 -0.896585,3.121774 -1.171432,0.631429 -2.669819,0.257085 -3.346392,-0.83606 z" />
</svg>
