<?xml version="1.0" encoding="UTF-8" standalone="no"?>
<svg
   width="16"
   height="16"
   version="1"
   id="svg566"
   xml:space="preserve"
   xmlns="http://www.w3.org/2000/svg"
   xmlns:svg="http://www.w3.org/2000/svg"><defs
     id="defs570" /><path
     id="path2"
     d="m 8.0087888,-9.764e-4 -7.0078121,4.015625 v 7.9707024 l 7.0078121,4.015625 6.9902342,-4.015625 V 4.0146486 Z m -0.00195,0.5566407 6.5078122,3.7363281 0.002,0.00195 v 0.1484375 l -0.002,-0.1503906 -6.6601562,3.6289062 0.152344,7.5234375 -6.523438,-3.738281 V 4.2939455 Z M 12.80957,6.5166018 c 0.109883,-0.00238 0.201091,-4.694e-4 0.207031,0.00977 0.0038,0.0065 -0.05392,0.4632494 -0.126953,1.0136719 -0.204529,1.5414061 -0.422265,3.2792453 -0.412109,3.2910163 0.0024,0.0027 0.103345,-0.03129 0.224609,-0.07422 0.42194,-0.149395 0.757031,-0.226416 0.980469,-0.228516 0.110901,-10e-4 0.144174,0.0038 0.166016,0.02539 0.02303,0.02276 0.02404,0.03309 0.0078,0.06836 -0.08013,0.174123 -0.590564,0.668907 -1.115234,1.080078 -0.502833,0.394058 -1.046409,0.757026 -1.554687,1.039063 -0.732913,0.406685 -1.5767482,0.737049 -2.0917972,0.818359 -0.124755,0.01967 -0.281008,0.01953 -0.330079,0 -0.0588,-0.0234 -0.04677,-0.09239 0.03711,-0.207031 0.154049,-0.210533 0.674342,-0.689235 1.103516,-1.015625 0.1499052,-0.114 0.1733012,-0.125366 0.3906242,-0.197266 0.399294,-0.132112 0.778696,-0.31184 1.115235,-0.529297 0.470718,-0.304156 0.786811,-0.612503 0.707031,-0.689453 -0.0365,-0.03521 -0.107107,-5.36e-4 -0.43164,0.208985 -0.374625,0.24186 -0.576885,0.3574 -0.81836,0.466796 -0.289053,0.130949 -0.825994,0.336646 -0.839844,0.322266 -0.0066,-0.0069 -0.072072,-0.413484 -0.1699222,-1.0625 -0.14128,-0.9370422 -0.233595,-1.5048312 -0.333984,-2.0468751 l -0.064453,-0.34375 0.068359,-0.087891 C 9.6319018,8.244883 9.9726818,7.901467 10.153308,7.7470735 c 0.763793,-0.6528663 1.63363,-1.1038326 2.335938,-1.2089843 0.08093,-0.012117 0.210429,-0.019104 0.320312,-0.021484 z" /></svg>
