<?xml version="1.0" encoding="UTF-8" standalone="no"?>
<svg
   width="16"
   height="16"
   version="1"
   id="svg566"
   xmlns="http://www.w3.org/2000/svg"
   xmlns:svg="http://www.w3.org/2000/svg">
  <defs
     id="defs570" />
  <path
     d="m 8.0948944,15.786199 c 0.207482,-0.130513 0.201426,-0.092 0.468755,-2.981426 0.104478,-1.129261 0.212672,-2.053202 0.240433,-2.053202 0.02776,0 0.199172,0.257179 0.380917,0.57151 0.363835,0.62926 1.2986256,2.059108 1.8756196,2.868932 0.396475,0.556464 0.628645,0.671941 1.053311,0.523901 0.291532,-0.101628 0.352499,-0.255233 0.283618,-0.714569 -0.04026,-0.268425 -0.29182,-0.715365 -0.976643,-1.735133 -0.507332,-0.755468 -0.90542,-1.39058 -0.884638,-1.411362 0.02079,-0.02078 0.386611,0.26181 0.812957,0.627981 1.020515,0.876478 2.178225,1.78393 2.487462,1.949761 0.22986,0.123263 0.256002,0.121795 0.359839,-0.02021 0.272373,-0.372492 0.164548,-0.536959 -1.133831,-1.72946 -0.684478,-0.628661 -1.53456,-1.409725 -1.889073,-1.7356973 -0.354512,-0.325972 -0.617812,-0.603893 -0.585107,-0.617601 0.0327,-0.01371 1.020089,0.20537 2.194184,0.486842 1.174098,0.2814713 2.206251,0.5117653 2.293671,0.5117653 0.08742,0 0.33142,-0.08379 0.54222,-0.186207 0.3071,-0.1492003 0.382897,-0.2291303 0.381389,-0.4021743 -0.0022,-0.247968 -0.184251,-0.494577 -0.54846,-0.742793 -0.292381,-0.199263 -1.83689,-0.361347 -3.462349,-0.363345 -0.517217,-6.5e-4 -1.033289,-0.026 -1.146827,-0.05637 -0.227488,-0.06085 0.156516,-0.167994 2.069132,-0.577328 0.558809,-0.119594 1.426573,-0.314988 1.928366,-0.434207 0.888646,-0.211132 0.915562,-0.224456 1.036065,-0.512858 0.149714,-0.358314 0.06964,-0.552089 -0.28965,-0.700912 -0.291512,-0.120747 -0.617557,-0.07768 -2.956186,0.390476 -0.806717,0.161492 -1.497507,0.281856 -1.535087,0.267477 -0.118792,-0.04545 0.595778,-1.118582 1.63013,-2.448108 1.208104,-1.552858 1.327341,-1.858613 0.948216,-2.431508 -0.221016,-0.333975 -0.256741,-0.35362 -0.643157,-0.35362 -0.337584,0 -0.461895,0.04632 -0.710759,0.264824 -0.358074,0.314392 -1.294156,1.420285 -2.247275,2.654939 -0.3780076,0.489667 -0.7171076,0.890304 -0.7535546,0.890304 -0.03645,0 0.02426,-0.466733 0.134902,-1.037185 0.110642,-0.57045 0.301224,-1.619665 0.423515,-2.331586 0.2487896,-1.44836104 0.2306286,-1.59103904 -0.238879,-1.87656304 -0.258032,-0.15692 -0.283078,-0.157931 -0.52014,-0.02098 -0.333872,0.192886 -0.530523,0.68117304 -0.603715,1.49902604 -0.03332,0.372291 -0.133919,1.416404 -0.223559,2.320251 -0.08964,0.903845 -0.165766,1.723009 -0.169169,1.820363 -0.0034,0.09883 -0.07306,-0.01 -0.157591,-0.246333 -0.08327,-0.232835 -0.47558,-1.07105 -0.871798,-1.862696 C 6.6959314,3.0594687 6.1724374,1.9545507 5.9288314,1.3957407 5.4036284,0.19097466 5.2301414,-0.00180534 4.6727764,1.2656167e-5 4.2140584,0.00151266 4.1860804,0.01700266 3.8652134,0.44734866 c -0.230384,0.308987 -0.235837,0.338194 -0.138731,0.74298204 0.0556,0.231743 0.307556,0.763848 0.559916,1.182453 0.874036,1.449831 1.959444,3.42581 1.895275,3.450335 -0.03545,0.01355 -0.75769,-0.50081 -1.60497,-1.14302 -2.267047,-1.71835 -2.266509,-1.717998 -2.623157,-1.717998 -0.450535,0 -0.790402,0.36217 -0.720398,0.767673 0.10986,0.636379 0.218554,0.727048 3.486684,2.908418 0.896424,0.598333 1.629861,1.121631 1.629861,1.162883 0,0.04125 -0.08573,0.05764 -0.190504,0.03641 -0.338245,-0.06853 -1.159432,-0.138815 -3.524026,-0.301636 C 0.17760235,7.3666267 -8.9664612e-4,7.3807987 3.3538774e-6,7.7450497 2.2035388e-4,7.8386197 0.08846335,8.0252057 0.19606035,8.1596757 c 0.193378,0.241664 0.209268,0.24524 1.37543805,0.309405 0.64889,0.0357 1.970389,0.0918 2.936664,0.124666 1.259856,0.04284 1.756862,0.08802 1.756862,0.159671 0,0.05496 -0.652384,0.460348 -1.449744,0.900868 -0.797359,0.4405203 -1.81528,1.0500153 -2.262046,1.3544343 -0.694072,0.47293 -0.821538,0.596163 -0.875778,0.846681 -0.09014,0.416363 0.177172,0.653219 0.682803,0.604999 0.294059,-0.02804 0.74648,-0.287729 2.477236,-1.421913 1.164613,-0.763182 2.137387,-1.3876033 2.161721,-1.3876033 0.02434,0 -0.07466,0.142877 -0.219999,0.317505 -1.293066,1.5536803 -3.169958,4.0591893 -3.22561,4.3059453 -0.0604,0.267822 -0.04475,0.302543 0.191535,0.424729 0.19122,0.09888 0.30569,0.111022 0.445648,0.04725 0.305271,-0.13909 1.446479,-1.484007 2.582243,-3.043177 0.582094,-0.799095 1.080351,-1.454402 1.107237,-1.456239 0.02689,-0.0018 0.0022,0.215739 -0.05512,0.483502 -0.0572,0.267763 -0.279521,1.393065 -0.494035,2.500672 -0.362259,1.87046 -0.380973,2.031335 -0.262866,2.259732 0.252007,0.487325 0.574165,0.580018 1.026649,0.295391 z"
     style="display:inline;fill:#000000;fill-opacity:1;stroke-width:0.21675;enable-background:new"
     id="path1-9" />
</svg>
