<?xml version="1.0" encoding="UTF-8" standalone="no"?>
<svg
   height="16px"
   viewBox="0 0 16 16"
   width="16px"
   version="1.1"
   id="svg204"
   xml:space="preserve"
   xmlns="http://www.w3.org/2000/svg"
   xmlns:svg="http://www.w3.org/2000/svg"><defs
     id="defs208" /><path
     id="path4"
     style="display:inline;fill:#000000;stroke-width:0.89876;enable-background:new"
     d="M 8.0000002,-1.2e-7 C 3.5817225,5.4274151e-7 8.5169582e-7,3.5817222 2e-7,7.9999999 8.0751305e-7,12.418278 3.5817224,15.999999 8.0000002,16 12.418278,15.999999 15.999999,12.418278 16,7.9999999 15.999999,3.5817222 12.418278,6.5319843e-7 8.0000002,-1.2e-7 Z m 0,1.45454502 c 3.6149548,6e-7 6.5454548,2.9305003 6.5454548,6.545455 0,3.6149551 -2.9305,6.5454541 -6.5454548,6.5454551 -3.6149548,0 -6.5454546,-2.9305 -6.545455,-6.5454551 4e-7,-3.6149548 2.9305002,-6.5454546 6.545455,-6.545455 z" /><path
     id="path208"
     style="fill:#000000;fill-opacity:1;stroke:none;stroke-width:0.290361"
     d="m 8.0000159,2.000008 c -0.504408,0 -0.554249,1.22786 -0.554249,1.22786 -0.32775,2.3974732 -1.484002,3.8256196 -4.226986,4.2269839 0,0 -1.226311,0.070354 -1.218746,0.5451372 0.0085,0.5344573 1.218746,0.5451373 1.218746,0.5451373 2.725131,0.3529533 3.874031,1.7412946 4.226986,4.2269836 0,0 0.04501,1.233611 0.554249,1.227862 0.53336,-0.006 0.554252,-1.227862 0.554252,-1.227862 0.403364,-2.485689 1.5396621,-3.9244392 4.2269861,-4.2269836 0,0 1.218746,-0.027712 1.218746,-0.5451373 C 14,7.4740481 12.781254,7.4548519 12.781254,7.4548519 10.408986,7.1397053 8.8820189,5.6505456 8.5542679,3.227868 c 0,0 -0.0073,-1.22786 -0.554252,-1.22786 z" /></svg>
