<?xml version="1.0" encoding="UTF-8" standalone="no"?>
<svg
   width="16"
   height="16"
   version="1"
   id="svg566"
   xml:space="preserve"
   xmlns="http://www.w3.org/2000/svg"
   xmlns:svg="http://www.w3.org/2000/svg"><defs
     id="defs570" /><path
     d="m 11.241972,0.0012488 c 0.508588,-0.0135 0.916654,0.08197 1.189438,0.307474 0.574696,0.483635 0.986395,1.329294 0.275108,4.512987 -0.140942,0.6303445 -0.183068,0.7889135 -0.183068,0.7889135 -0.0774,0.2981737 -0.09026,0.3484761 0.311519,0.2376851 0.442354,-0.1218192 2.398094,-0.7353074 2.398094,-0.7353074 0.373451,-0.1084638 0.512135,-0.1102116 0.371193,0.6442791 -0.131026,0.7010682 -0.419481,0.6586531 -1.431169,0.9082613 -0.467446,0.1250573 -0.795632,0.2107092 -1.522197,0.4126621 -0.512168,0.168665 -0.531358,0.139626 -0.660462,0.5684218 -0.20428,0.6810352 -0.688618,2.1910082 -1.431169,4.0183997 -1.0222104,2.516014 -1.6870604,3.942542 -1.6870604,3.942542 0,0 -0.235379,0.353176 -0.746434,0.392434 -0.55537,-0.0079 -0.977992,-0.06287 -0.996255,-0.448063 C 7.2945226,14.965 8.5795386,12.635795 9.2949746,10.929717 9.8593506,9.6819796 10.156551,8.82088 10.321574,8.2888818 10.408794,8.0163059 10.415054,7.923199 10.064671,8.0683903 9.8423806,8.1605643 9.2629086,8.4566327 8.9915466,8.5811841 c -0.251126,0.1151415 -0.840003,0.4306575 -0.803073,-0.395468 0.0172,-0.5607333 0.377544,-0.6864099 0.721147,-0.8141989 0.421714,-0.1570294 1.8337184,-0.7889127 1.8337184,-0.7889127 0,0 0.919752,-2.6922947 1.027609,-3.8889367 0.183438,-1.394042 -0.227891,-1.796115 -1.596031,-1.449375 C 8.4506266,1.6477948 6.5423786,3.0733608 5.0935076,4.1976598 4.0197466,5.0309688 2.7119671,6.2658586 1.9024553,7.022575 1.6807425,7.2173443 1.2177054,7.3583519 0.69177791,6.839507 -0.13384169,5.9591497 0.59942691,5.7018427 1.8650329,4.6012188 c 3.0868537,-2.436557 7.1730567,-4.54149 9.3769391,-4.59997 z"
     style="fill:#000000;stroke-width:5.17851"
     id="path1" /></svg>
