<?xml version="1.0" encoding="UTF-8" standalone="no"?>
<svg
   width="16"
   height="16"
   version="1"
   id="svg566"
   xmlns="http://www.w3.org/2000/svg"
   xmlns:svg="http://www.w3.org/2000/svg">
  <defs
     id="defs570" />
  <path
     fill="#48466d"
     d="m 0,3.0405002 c 0,-1.398877 1.1479,-2.547122 2.547121,-2.547122 0.340805,0 0.62778,0.286975 0.62778,0.62778 0,0.340805 -0.286975,0.627781 -0.62778,0.627781 -0.717611,0 -1.291561,0.573951 -1.291561,1.291561 0,0.71761 0.57395,1.291561 1.291561,1.291561 a 1.2857327,1.2857327 0 0 0 1.291561,-1.291561 c 0,-0.340805 0.286976,-0.62778 0.627438,-0.62778 0.340462,0 0.628123,0.286975 0.628123,0.62778 0,1.183903 -0.825269,2.188489 -1.919342,2.475464 v 9.3635628 c 0,0.340462 -0.286975,0.627438 -0.62778,0.627438 -0.340805,0 -0.62778,-0.286976 -0.62778,-0.627438 V 5.5159642 C 0.825268,5.2289892 0,4.2244032 0,3.0405002 m 7.35439,-1.919342 v 9.3635628 a 2.557751,2.557751 0 0 0 -1.919342,2.475464 c 0,1.398878 1.147902,2.54678 2.547123,2.54678 1.39922,0 2.547122,-1.147902 2.547122,-2.547122 0,-0.340805 -0.286976,-0.627438 -0.627781,-0.627438 -0.340805,0 -0.62778,0.286633 -0.62778,0.627438 0,0.71761 -0.573951,1.291561 -1.291561,1.291561 -0.717611,0 -1.291562,-0.573951 -1.291562,-1.291561 0,-0.717611 0.573951,-1.291562 1.291562,-1.291562 0.340805,0 0.62778,-0.286976 0.62778,-0.627438 V 1.1208152 c 0,-0.340805 -0.286975,-0.62778 -0.62778,-0.62778 -0.340805,0 -0.627781,0.269146 -0.627781,0.62778 m 6.080659,0.627781 c 0.340805,0 0.62778,-0.286976 0.62778,-0.627438 0,-0.340462 -0.286633,-0.62778 -0.627437,-0.62778 -1.39922,0 -2.547466,1.147902 -2.547466,2.547122 0,1.183903 0.82527,2.188489 1.919343,2.475464 v 9.3635628 c 0,0.340462 0.286975,0.627438 0.62778,0.627438 0.340805,0 0.62778,-0.286976 0.62778,-0.627438 V 5.5159642 C 15.175074,5.2289892 16,4.2244032 16,3.0405002 c 0,-0.340805 -0.286633,-0.62778 -0.627438,-0.62778 -0.340804,0 -0.628123,0.286975 -0.628123,0.62778 0,0.71761 -0.573951,1.291561 -1.291219,1.291561 -0.717267,0 -1.291561,-0.573951 -1.291561,-1.291561 0,-0.71761 0.573951,-1.291561 1.27339,-1.291561"
     id="path2"
     style="display:inline;fill:#000000;stroke-width:0.342861;enable-background:new" />
</svg>
