<?xml version="1.0" encoding="UTF-8" standalone="no"?>
<svg
   width="16"
   height="16"
   version="1"
   id="svg566"
   xmlns="http://www.w3.org/2000/svg"
   xmlns:svg="http://www.w3.org/2000/svg">
  <defs
     id="defs570" />
  <path
     d="m 14.027588,9.4479446 c -1.042211,0 -1.887246,0.8119314 -1.887246,1.8133134 q 0,0.284176 0.0845,0.568352 l -1.352057,1.461476 H 3.9153255 l -2.084417,-2.029828 -0.02817,-6.4142581 0.112668,-0.108257 0.676029,-0.649545 1.436559,-1.407348 h 6.9292925 l 1.352056,1.461476 q -0.0845,0.24358 -0.0845,0.568353 c 0,1.001382 0.845035,1.813313 1.859078,1.813313 1.070377,0.02707 1.94358,-0.838996 1.915413,-1.840378 -0.02817,-1.001382 -0.873204,-1.786249 -1.887246,-1.786249 -0.112671,0 -0.225342,0 -0.338014,0.02707 L 11.633321,0.78734495 H 3.1548005 L 0.0845035,3.8997479 3.503479e-6,3.9809379 V 12.100252 L 3.0702985,15.212655 h 8.4785225 l 2.140757,-2.138086 c 0.112671,0.02706 0.225342,0.02706 0.338014,0.02706 1.04221,0 1.887245,-0.811931 1.887245,-1.813313 0,-1.028447 -0.845035,-1.8403777 -1.887245,-1.8403777 m 0.0845,-5.3316824 c 0.366182,0 0.676029,0.297708 0.676029,0.649545 0,0.351837 -0.309847,0.649545 -0.676029,0.649545 -0.338014,0 -0.676028,-0.297708 -0.676028,-0.649545 0.02817,-0.324773 0.309846,-0.649545 0.676028,-0.649545 m -0.112671,7.7945421 c -0.366182,0 -0.676028,-0.270644 -0.676028,-0.649545 0,-0.324773 0.281678,-0.622481 0.676028,-0.649545 0.366182,0 0.704196,0.270643 0.704196,0.649545 0,0.351837 -0.309846,0.649545 -0.704196,0.649545"
     style="display:inline;fill:#000000;stroke-width:0.276106;enable-background:new"
     id="path14" />
</svg>
