<?xml version="1.0" encoding="UTF-8" standalone="no"?>
<svg
   height="16px"
   viewBox="0 0 16 16"
   width="16px"
   version="1.1"
   id="svg135"
   xmlns="http://www.w3.org/2000/svg"
   xmlns:svg="http://www.w3.org/2000/svg"
   xmlns:figma="http://www.figma.com/figma/ns">
  <defs
     id="defs139" />
  <g
     id="g8"
     style="mix-blend-mode:normal;fill:#767677;fill-opacity:1;stroke-width:3.12531"
     figma:type="group"
     transform="matrix(0.31996847,0,0,0.31996847,-523.40777,-785.10341)">
    <g
       id="path16 fill"
       style="mix-blend-mode:normal;fill:#767677;fill-opacity:1;stroke-width:3.12531"
       figma:type="vector" />
  </g>
  <g
     id="g9"
     style="mix-blend-mode:normal;stroke-width:2.4631;fill:#000000"
     figma:type="group"
     transform="matrix(0.40599244,0,0,0.40599244,-666.72137,-997.88069)">
    <g
       id="path17 fill"
       style="mix-blend-mode:normal;stroke-width:2.4631;fill:#000000"
       figma:type="vector" />
  </g>
  <path
     d="m 10.905081,15.950239 c 0.472832,-0.126961 0.848207,-0.337116 1.157509,-0.648033 0.383516,-0.38552 0.615873,-0.857775 0.681132,-1.384369 0.0394,-0.317897 0.379856,-0.284328 -2.8836985,-0.284328 -3.1408321,0 -3.0084111,0.0068 -3.3909464,-0.174106 C 6.2139205,13.338739 5.9027598,13.032162 5.7643643,12.765078 5.5630759,12.376615 5.5780289,12.758778 5.5780289,8.0031255 5.5780289,3.2474691 5.5630729,3.629636 5.7643643,3.2411736 5.9027598,2.9740889 6.2139205,2.6675124 6.4690771,2.5468479 6.8516124,2.3659435 6.7191914,2.3727424 9.8600235,2.3727424 c 2.6613365,0 2.8278425,-0.00263 2.8664865,-0.045334 C 12.827358,2.2159732 12.65058,1.5410238 12.419196,1.1540549 12.170513,0.73815891 11.711991,0.34826625 11.272051,0.1786074 10.826277,0.00669831 10.919025,0.01370772 8.9485112,0.00300474 7.0847735,-0.00711845 6.7712466,0.00441323 6.3372349,0.09914944 5.1655236,0.35487897 4.1694508,1.1329383 3.6414955,2.2048641 3.4578312,2.5777614 3.371647,2.8210107 3.2855653,3.2094468 L 3.2277333,3.470409 v 4.5327165 4.5327165 l 0.057625,0.259945 c 0.3569929,1.61038 1.544318,2.804465 3.1062344,3.123926 0.3823176,0.0782 0.5660997,0.08405 2.4794366,0.07892 1.6617937,-0.0045 1.8906687,-0.0099 2.0340527,-0.0484 z"
     style="fill:#000000;fill-opacity:1;stroke-width:0.256089"
     id="path1" />
</svg>
