<?xml version="1.0" encoding="UTF-8" standalone="no"?>
<!-- Created with Inkscape (http://www.inkscape.org/) -->

<svg
   width="16"
   height="16"
   viewBox="0 0 4.2333332 4.2333333"
   version="1.1"
   id="svg2572"
   xmlns="http://www.w3.org/2000/svg"
   xmlns:svg="http://www.w3.org/2000/svg">
  <defs
     id="defs2569" />
  <path
     id="rect1711-61"
     style="display:inline;fill:#000000;fill-opacity:0.980392;stroke:none;stroke-width:0.0100934;stroke-linecap:butt;stroke-linejoin:miter;stroke-miterlimit:4;stroke-dasharray:none;stroke-dashoffset:0;stroke-opacity:1;marker:none;marker-start:none;marker-mid:none;marker-end:none;paint-order:normal;enable-background:new"
     d="M 0.31729332,0.11447872 C 0.14081572,0.11884793 2.4999999e-8,0.2601666 2.4999999e-8,0.43487259 V 3.7984915 C 2.4999999e-8,3.9759708 0.14515692,4.1188854 0.32556152,4.1188854 H 3.9077717 c 0.1804046,0 0.3255615,-0.1429146 0.3255615,-0.3203939 V 0.43487259 c 0,-0.17747909 -0.1451569,-0.32039387 -0.3255615,-0.32039387 H 0.32556152 c -0.002819,0 -0.005467,-6.936e-5 -0.008268,0 z M 3.0685465,0.55734573 c 0.2774135,0 0.4376127,0.0741777 0.5978963,0.20980631 L 3.4566365,1.026051 c -0.11713,-0.098631 -0.2217194,-0.1539958 -0.4004924,-0.1539958 -0.2465919,0 -0.4376993,0.2154748 -0.4376993,0.4743896 v 0.0062 c 0,0.2774136 0.1912563,0.4811076 0.462504,0.4811076 0.1232957,0 0.2278843,-0.030857 0.3141927,-0.092501 V 1.5252453 H 3.0561441 V 1.2358573 H 3.7160522 V 1.8952486 C 3.5681007,2.0308771 3.3521611,2.135544 3.0747476,2.135544 c -0.4808421,0 -0.8077026,-0.3328776 -0.8077026,-0.782898 0,-0.43769752 0.339139,-0.79530027 0.8015015,-0.79530027 z M 0.60048012,0.57336543 H 1.1957926 c 0.4833468,0 0.8097697,0.32325786 0.8097697,0.74672447 0,0.4234569 -0.3264229,0.7575765 -0.8097697,0.7575765 l -0.59531248,0.011369 z m 0.3369303,0.30075683 V 1.7877616 H 1.1957926 c 0.2697732,0 0.4609538,-0.1779999 0.4609538,-0.4454509 0,-0.2674511 -0.1799372,-0.45681963 -0.4609538,-0.45681963 z M 0.60048012,3.4171195 H 2.1177001 V 3.6755016 H 0.60048012 Z" />
</svg>
