<?xml version="1.0" encoding="UTF-8" standalone="no"?>
<svg
   height="16px"
   viewBox="0 0 16 16"
   width="16px"
   version="1.1"
   id="svg135"
   xmlns="http://www.w3.org/2000/svg"
   xmlns:svg="http://www.w3.org/2000/svg">
  <defs
     id="defs139" />
  <path
     d="m 15.564051,6.587658 c -0.206705,0.0077 -0.226659,-0.228704 -0.276798,-0.385266 -0.08903,-0.275776 -0.13354,-0.562295 -0.158099,-0.851373 10e-4,-0.621133 -0.04042,-1.193149 0.106422,-1.753909 0.02712,-0.104375 0.05423,-0.209773 0.09209,-0.310567 0.04656,-0.123306 0.07061,-0.29624 0.242007,-0.284473 0.154004,0.01023 0.200565,0.172424 0.244564,0.297776 0.167309,0.477362 0.186238,0.981329 0.185727,1.475576 0,0.466106 0.0061,0.94398 -0.147352,1.397806 -0.05628,0.166795 -0.07624,0.406244 -0.288566,0.41443 z M 0.84922342,5.51014 c -0.05116,0.325404 -0.07368,0.608342 -0.194935,0.86621 -0.044,0.09363 -0.08391,0.216936 -0.218984,0.215401 -0.144793,-0.002 -0.191865,-0.124841 -0.236377,-0.232797 -0.100795,-0.2461 -0.134051,-0.507037 -0.157075,-0.770021 -0.066,-0.753137 -0.07624,-1.503205 0.137632,-2.238946 0.02201,-0.07726 0.05219,-0.155539 0.09517,-0.222565 0.116654,-0.181121 0.230751,-0.174469 0.338707,0.02763 0.161169,0.301869 0.194425,0.63853 0.237913,0.971097 0.06037,0.461501 0.05986,0.923002 -0.0021,1.383992 z M 13.525669,8.667995 c -0.06447,0.398057 -0.114608,0.750579 -0.179587,1.10003 -0.107957,0.579691 -0.239962,1.154777 -0.540805,1.671023 -0.29266,0.502433 -0.598622,0.497828 -0.90305,-0.0031 -0.191354,-0.31466 -0.285495,-0.66667 -0.375544,-1.019191 -0.03991,-0.156562 -0.05628,-0.319776 -0.151447,-0.497316 -0.15861,0.351498 -0.09824,0.708113 -0.150934,1.044773 -0.12484,0.796627 -0.195446,1.603487 -0.490152,2.363275 -0.088,0.227169 -0.169866,0.522898 -0.445129,0.530573 -0.3049376,0.0082 -0.3765686,-0.309544 -0.4589446,-0.542341 -0.119724,-0.338707 -0.204143,-0.689693 -0.304938,-1.041191 -0.138653,0.0614 -0.09363,0.176004 -0.104887,0.266053 -0.121259,0.985423 -0.301357,1.955497 -0.753647,2.852405 -0.141213,0.28038 -0.309033,0.586342 -0.654392,0.589923 -0.371452,0.0036 -0.547456,-0.312613 -0.696344,-0.612947 -0.218983,-0.441035 -0.376568,-0.904071 -0.485036,-1.383992 -0.154517,-0.578667 -0.191354,-1.132263 -0.284984,-1.703256 -0.174471,0.100282 -0.146842,0.262984 -0.178052,0.388336 -0.08391,0.335637 -0.171912,0.668716 -0.346383,0.969562 -0.181633,0.314148 -0.404198,0.320288 -0.599133,0.0133 -0.263496,-0.415453 -0.350986,-0.892303 -0.44001,-1.364549 -0.134564,-0.713229 -0.228194,-1.432598 -0.275777,-2.157083 -0.0031,-0.05219 10e-4,-0.113073 -0.103351,-0.14326 -0.121259,0.206192 -0.12433,0.45485 -0.193912,0.679461 -0.102329,0.331544 -0.213356,0.656948 -0.430804,0.932723 -0.226657,0.287543 -0.475315,0.28959 -0.690204,-0.0087 -0.347918,-0.483502 -0.479409,-1.052959 -0.595552,-1.622417 -0.07265,-0.35508 -0.116143,-0.715787 -0.173447,-1.073937 -0.01126,-0.06907 -0.0026,-0.148376 -0.110513,-0.1934 -0.06549,0.145306 -0.123819,0.294706 -0.19903,0.435919 -0.149399,0.279868 -0.351499,0.287543 -0.500387,0.0072 C 1.4805904,8.714556 1.4028204,8.235148 1.3332384,7.760855 1.1178354,6.298582 1.1055574,4.832728 1.2544484,3.361757 c 0.06242,-0.616017 0.147353,-1.224871 0.347405,-1.810702 0.06498,-0.188795 0.107443,-0.464059 0.357125,-0.458942 0.238937,0.0051 0.291125,0.272193 0.361221,0.462524 0.08544,0.233309 0.143258,0.476339 0.244564,0.716299 0.153493,-0.255821 0.145307,-0.549504 0.224099,-0.818116 0.117678,-0.401639 0.228192,-0.804301 0.459453,-1.157846 0.238937,-0.365824 0.527505,-0.372475 0.773093,-0.0082 0.359683,0.532619 0.469175,1.155799 0.592482,1.76977 0.0747,0.37094 0.127911,0.745974 0.197493,1.156311 0.150423,-0.185214 0.129958,-0.381173 0.164236,-0.558201 0.08135,-0.418524 0.156052,-0.840628 0.344337,-1.226918 0.08493,-0.173447 0.16526,-0.407779 0.396522,-0.405221 0.243029,0.0031 0.332567,0.238425 0.408289,0.428756 0.277823,0.695322 0.408292,1.428505 0.504479,2.166804 0.0527,0.404198 0.08084,0.811977 0.122794,1.217709 0.0077,0.07777 -0.0097,0.166795 0.0967,0.237402 0.105908,-0.300334 0.205168,-0.594017 0.312611,-0.885141 0.08135,-0.222053 0.186752,-0.433873 0.319778,-0.629831 0.307497,-0.450246 0.718857,-0.462013 1.035051,-0.01586 0.271172,0.382196 0.416476,0.824255 0.546946,1.270407 0.02916,0.09926 0.01739,0.219495 0.145307,0.312613 0.04758,-0.444617 0.08595,-0.870303 0.139677,-1.294454 0.102841,-0.809418 0.225124,-1.616278 0.537224,-2.378624 0.07726,-0.189308 0.1447956,-0.437454 0.3949866,-0.433361 0.254288,0.0046 0.336151,0.253774 0.422619,0.449733 0.1847,0.418012 0.278844,0.863141 0.35252,1.312362 0.01996,0.121259 0.02507,0.246612 0.09772,0.357638 0.113072,-0.06344 0.09261,-0.16219 0.104373,-0.248658 0.100284,-0.737276 0.220518,-1.470459 0.490155,-2.169363 0.06549,-0.170376 0.149398,-0.332055 0.263495,-0.474803 0.245589,-0.306986 0.502944,-0.300846 0.726019,0.02609 0.260426,0.380661 0.390382,0.817604 0.500898,1.259151 0.06242,0.249681 0.110513,0.502944 0.221029,0.755695 0.07521,-0.2461 0.139678,-0.49527 0.229216,-0.735741 0.07061,-0.188796 0.115119,-0.458943 0.364288,-0.452803 0.243031,0.0061 0.291638,0.275775 0.358664,0.465594 0.196981,0.559225 0.286519,1.144543 0.34331,1.730885 0.09875,1.021749 0.140701,2.04708 0.05884,3.073946 -0.07061,0.885652 -0.133027,1.772839 -0.452802,2.615002 -0.01588,0.04247 -0.0307,0.08698 -0.05424,0.124841 C 14.239915,9.214926 14.184656,9.347953 14.030141,9.33772 13.897112,9.32902 13.839808,9.215437 13.776877,9.113109 13.698597,8.986222 13.694507,8.818915 13.525662,8.66798 Z"
     style="display:inline;stroke-width:0px;enable-background:new"
     id="path1-9" />
</svg>
