<?xml version="1.0" encoding="UTF-8" standalone="no"?>
<svg
   width="16"
   height="16"
   version="1"
   id="svg566"
   xmlns="http://www.w3.org/2000/svg"
   xmlns:svg="http://www.w3.org/2000/svg">
  <defs
     id="defs570" />
  <path
     id="path1482-7"
     style="display:inline;fill:#000000;fill-opacity:1;stroke-width:0.142857;enable-background:new"
     d="M 2.893973,1.7142855 0,4.6085375 v 8.5304135 c 0,0.635 0.50904,1.146764 1.141183,1.146764 H 13.182478 L 16,11.468192 V 2.8610485 c 0,-0.635 -0.50904,-1.146763 -1.141183,-1.146763 z m 2.575335,2.893415 h 2.347377 c 0.521651,0 0.95751,0.06604 1.307478,0.198103 0.349968,0.12546 0.627333,0.323578 0.832031,0.594308 0.211302,0.27073 0.35975,0.610693 0.445592,1.020089 0.08584,0.409397 0.128906,0.898087 0.128906,1.46596 0,0.501841 -0.03302,0.967278 -0.09905,1.396484 -0.06603,0.429206 -0.194948,0.7990265 -0.38644,1.1093755 C 9.85371,10.702368 9.579787,10.946714 9.223215,11.125 8.866644,11.303286 8.397765,11.392299 7.816686,11.392299 H 5.469309 Z m 1.09933,0.960659 v 4.8532355 h 1.248047 c 0.376381,0 0.670395,-0.0758 0.881697,-0.227678 0.211301,-0.158476 0.366354,-0.3565935 0.465401,-0.5943075 0.105651,-0.244318 0.168528,-0.515079 0.188338,-0.812221 0.02641,-0.303746 0.03962,-0.604085 0.03962,-0.901228 0,-0.409397 -0.02325,-0.759405 -0.06948,-1.049944 C 9.282641,6.5456765 9.203394,6.3079355 9.084537,6.1230465 8.96568,5.9315545 8.804024,5.7928725 8.599325,5.7070315 8.394627,5.6145915 8.133632,5.5683595 7.81668,5.5683595 Z" />
</svg>
