<?xml version="1.0" encoding="UTF-8" standalone="no"?>
<svg
   width="16"
   height="16"
   version="1"
   id="svg14"
   xmlns="http://www.w3.org/2000/svg"
   xmlns:svg="http://www.w3.org/2000/svg">
  <defs
     id="defs18" />
  <path
     id="use59"
     style="fill:#000000;fill-rule:evenodd;stroke:none;stroke-width:0.150943"
     d="M 2.1289062 0 C 1.3887772 0 1.1201894 0.07795125 0.84960938 0.22265625 C 0.57902938 0.36736325 0.36736425 0.57902938 0.22265625 0.84960938 C 0.07794825 1.1201894 -1.8503717e-17 1.3887772 0 2.1289062 L 0 13.871094 C 0 14.611224 0.07795125 14.879811 0.22265625 15.150391 C 0.36736425 15.420969 0.57902937 15.632637 0.84960938 15.777344 C 1.1201894 15.922052 1.3887772 16 2.1289062 16 L 13.871094 16 C 14.611223 16 14.879811 15.922049 15.150391 15.777344 C 15.420969 15.632637 15.632637 15.420969 15.777344 15.150391 C 15.922052 14.879811 16 14.611223 16 13.871094 L 16 2.1289062 C 16 1.3887772 15.922049 1.1201894 15.777344 0.84960938 C 15.632637 0.57902938 15.420969 0.36736325 15.150391 0.22265625 C 14.879811 0.07794825 14.611223 -1.8503717e-17 13.871094 0 L 2.1289062 0 z M 2.0664062 1.0761719 L 13.933594 1.0761719 C 14.447617 1.0761719 14.856751 1.4465134 14.916016 1.9414062 L 14.923828 1.9414062 L 14.923828 2.0644531 L 14.923828 2.0664062 L 14.923828 7.0117188 L 14.923828 8.9882812 L 14.923828 13.933594 C 14.923828 14.490052 14.490051 14.923828 13.933594 14.923828 L 2.0664062 14.923828 C 1.5099493 14.923828 1.0761719 14.490051 1.0761719 13.933594 L 1.0761719 8.9882812 L 1.0761719 7.0117188 L 1.0761719 2.0664062 L 1.0761719 1.9414062 L 1.0839844 1.9414062 C 1.1432492 1.4465134 1.5523818 1.0761719 2.0664062 1.0761719 z " />
  <g
     id="g10"
     transform="matrix(0.15580821,0,0,0.15580821,-1.9715879,-1.6601093)">
    <path
       style="font-weight:600;font-size:50.87px;line-height:1;font-family:Akshar;-inkscape-font-specification:'Akshar Semi-Bold';text-align:center;letter-spacing:0px;text-anchor:middle;stroke-width:0.864177;stroke-linecap:round;stroke-linejoin:round"
       d="M 79.617,66.259766 89.031975,84.478516 79.617,102.69922 h 4.061045 l 7.383298,-14.291017 7.385606,14.291017 H 102.508 L 93.093019,84.478516 102.508,66.259766 H 98.446949 L 91.061343,80.548828 83.678044,66.259766 Z"
       id="path7" />
    <path
       id="path6"
       style="font-weight:600;font-size:50.87px;line-height:1;font-family:Akshar;-inkscape-font-specification:'Akshar Semi-Bold';text-align:center;letter-spacing:0px;text-anchor:middle;stroke-width:0.860748;stroke-linecap:round;stroke-linejoin:round"
       d="m 64.001145,65.478516 c -2.238311,0 -4.213814,0.399092 -5.92307,1.197265 -1.709256,0.76347 -3.031016,1.856466 -3.967038,3.279297 C 53.175016,71.343206 52.707,72.975637 52.707,74.849609 v 19.259766 c 0,1.873973 0.468016,3.522481 1.404037,4.945313 0.936022,1.388132 2.257782,2.481122 3.967038,3.279292 1.709256,0.76348 3.684759,1.14454 5.92307,1.14454 2.279008,0 4.252221,-0.38106 5.92078,-1.14454 1.709257,-0.79817 3.031016,-1.89116 3.967038,-3.279292 0.93602,-1.422832 1.404037,-3.07134 1.404037,-4.945313 v -19.3125 c -0.0086,-1.852138 -0.476694,-3.466537 -1.404037,-4.841797 -0.936022,-1.422831 -2.257781,-2.515827 -3.967038,-3.279297 -1.668559,-0.798173 -3.641772,-1.197265 -5.92078,-1.197265 z m 0,3.279296 c 2.279008,0 4.04764,0.539436 5.309234,1.615235 1.30229,1.041096 1.953742,2.533184 1.953742,4.476562 v 19.259766 c 0,1.908675 -0.651452,3.400763 -1.953742,4.476563 -1.261594,1.075796 -3.030226,1.613282 -5.309234,1.613282 -2.279008,0 -4.071075,-0.537485 -5.373365,-1.613282 -1.261595,-1.075801 -1.891902,-2.567888 -1.891902,-4.476563 V 74.849609 c 0,-1.943378 0.630307,-3.435466 1.891902,-4.476562 1.30229,-1.075799 3.094357,-1.615234 5.373365,-1.615235 z" />
    <path
       id="path5"
       style="font-weight:600;font-size:50.87px;line-height:1;font-family:Akshar;-inkscape-font-specification:'Akshar Semi-Bold';text-align:center;letter-spacing:0px;text-anchor:middle;stroke-width:0.794844;stroke-linecap:round;stroke-linejoin:round"
       d="m 25.490234,65.478516 v 37.220704 h 7.339844 2.96875 c 2.221005,0 4.198434,-0.45124 5.933594,-1.35352 1.73516,-0.93698 3.104935,-2.1864 4.111328,-3.748044 1.006393,-1.596347 1.509766,-3.419308 1.509766,-5.466797 v -0.988281 c -0.0094,-1.818003 -0.512878,-3.432403 -1.509766,-4.841797 -0.812386,-1.176559 -1.871767,-2.148444 -3.181641,-2.917969 1.07331,-0.705382 1.960191,-1.554507 2.66211,-2.546874 1.006392,-1.457537 1.509765,-3.089966 1.509765,-4.894532 -0.0086,-1.991856 -0.512056,-3.778755 -1.509765,-5.361328 -1.006393,-1.596347 -2.378121,-2.845763 -4.113281,-3.748047 -1.735161,-0.902282 -3.71259,-1.353515 -5.933594,-1.353515 h -2.447266 z m 7.339844,5.726562 h 2.447266 c 1.318721,0 2.343498,0.417123 3.072265,1.25 0.759176,0.828192 1.140261,1.999203 1.144532,3.513672 -0.0043,1.548977 -0.385356,2.754487 -1.144532,3.617188 -0.728767,0.832875 -1.753544,1.25 -3.072265,1.25 h -2.447266 z m 0,15.042969 h 2.96875 c 1.318721,0 2.341545,0.435154 3.070313,1.302734 0.76347,0.86758 1.144531,2.080934 1.144531,3.642578 v 0.9375 c 0,1.526941 -0.381061,2.724217 -1.144531,3.591797 -0.728768,0.832877 -1.751592,1.25 -3.070313,1.25 h -2.96875 z" />
    <path
       id="path2"
       style="font-weight:600;font-size:50.87px;line-height:1;font-family:Akshar;-inkscape-font-specification:'Akshar Semi-Bold';text-align:center;letter-spacing:0px;text-anchor:middle;stroke-width:0.804013;stroke-linecap:round;stroke-linejoin:round"
       d="m 25.490234,21.333984 v 36.373047 h 7.340292 2.965695 c 2.220817,0 4.200371,-0.440519 5.935384,-1.322265 1.735014,-0.91566 3.104496,-2.137963 4.110803,-3.664063 0.989221,-1.533523 1.49203,-3.278731 1.508828,-5.238281 h 0.002 V 31.611328 c 0,-1.966973 -0.504518,-3.731001 -1.510826,-5.291016 -1.006355,-1.560013 -2.375789,-2.780362 -4.110803,-3.662109 -1.735013,-0.881747 -3.714567,-1.324219 -5.935384,-1.324219 h -2.965695 z m 7.340292,5.595704 h 2.965695 c 1.31861,-2e-6 2.342905,0.408736 3.071611,1.222656 0.763406,0.81392 1.14511,1.966797 1.14511,3.458984 v 15.769531 c 0,1.492187 -0.381704,2.661933 -1.14511,3.509766 -0.728706,0.81392 -1.753001,1.220703 -3.071611,1.220703 h -2.965695 z" />
    <path
       id="path1"
       style="font-weight:600;font-size:50.87px;line-height:1;font-family:Akshar;-inkscape-font-specification:'Akshar Semi-Bold';text-align:center;letter-spacing:0px;text-anchor:middle;stroke-width:0.794844;stroke-linecap:round;stroke-linejoin:round"
       d="m 63.949218,20.572266 c -2.129694,0.01358 -4.047486,0.454318 -5.75,1.322265 -1.695666,0.881747 -3.034091,2.102096 -4.017578,3.66211 -0.983486,1.560013 -1.474609,3.324042 -1.474609,5.291015 v 17.345703 c 0.0083,1.980207 0.499465,3.744235 1.474609,5.291016 0.983487,1.5261 2.321912,2.746449 4.017578,3.662109 1.702514,0.867948 3.620307,1.308683 5.75,1.322266 v 0.002 c 0.01697,0 0.03384,5.4e-5 0.05078,0 0.01694,5.4e-5 0.03381,0 0.05078,0 v -0.002 c 2.129167,-0.01358 4.028139,-0.45432 5.697266,-1.322266 1.72958,-0.91566 3.084872,-2.136009 4.068359,-3.662109 0.983486,-1.560013 1.476563,-3.34091 1.476562,-5.341797 V 30.796875 c -0.0084,-1.94652 -0.501562,-3.693681 -1.476562,-5.240234 -0.983487,-1.560014 -2.338779,-2.780363 -4.068359,-3.66211 C 68.065638,21.019679 66.149799,20.579106 64,20.572266 c -0.01697,5.4e-5 -0.03384,-1.08e-4 -0.05078,0 z M 64,26.167969 c 1.264637,0.0106 2.263751,0.417522 3,1.220703 0.746093,0.81392 1.11914,1.966798 1.11914,3.458984 v 17.294922 c 0,1.492187 -0.373047,2.663886 -1.11914,3.511719 -0.736249,0.803181 -1.735363,1.210105 -3,1.220703 -1.264638,-0.0106 -2.265704,-0.417522 -3.001953,-1.220703 -0.746094,-0.847833 -1.119141,-2.019532 -1.119141,-3.511719 V 30.847656 c 0,-1.492186 0.373047,-2.645064 1.119141,-3.458984 C 61.734296,26.585491 62.735362,26.178566 64,26.167969 Z" />
    <path
       style="font-weight:600;font-size:50.87px;line-height:1;font-family:Akshar;-inkscape-font-specification:'Akshar Semi-Bold';text-align:center;letter-spacing:0px;text-anchor:middle;stroke-width:0.794844;stroke-linecap:round;stroke-linejoin:round"
       d="m 91.417969,20.521484 c -2.170454,0 -4.12003,0.406783 -5.84961,1.220704 -1.695666,0.81392 -3.034091,1.916193 -4.017578,3.30664 -0.979529,1.384852 -1.472621,3.005503 -1.476562,4.861328 0.0034,1.988712 0.359547,3.691751 1.068359,5.109375 0.746093,1.390447 1.696556,2.610796 2.84961,3.66211 1.153053,1.0174 2.373402,1.932173 3.662109,2.746093 1.32262,0.780007 2.559837,1.54297 3.712891,2.289063 1.153053,0.746093 2.103516,1.544745 2.849609,2.392578 0.746093,0.847833 1.119141,1.846947 1.119141,3 0,1.186967 -0.373048,2.120561 -1.119141,2.798828 -0.746093,0.644353 -1.764028,0.966797 -3.052735,0.966797 -1.458273,0 -2.644886,-0.54368 -3.560546,-1.628906 -0.881747,-1.11914 -1.389738,-2.678801 -1.525391,-4.679688 l -6.460937,1.169922 c 0.339133,3.391333 1.525746,6.0364 3.560546,7.935547 2.0348,1.899147 4.696735,2.849609 7.986328,2.849609 2.170454,0 4.103162,-0.406783 5.798829,-1.220703 1.72958,-0.81392 3.086829,-1.916194 4.070309,-3.30664 0.98349,-1.42436 1.47461,-3.053446 1.47461,-4.884766 0,-2.000887 -0.37304,-3.695491 -1.11914,-5.085937 -0.74609,-1.42436 -1.694602,-2.646663 -2.847654,-3.664063 -1.153054,-1.051313 -2.392224,-1.966087 -3.714844,-2.746094 -1.288707,-0.81392 -2.509056,-1.59375 -3.66211,-2.339843 -1.153053,-0.746094 -2.101562,-1.542792 -2.847656,-2.390626 -0.706874,-0.875177 -1.063093,-1.867515 -1.068359,-2.976562 0.0054,-1.174652 0.378478,-2.098154 1.119141,-2.771484 0.746093,-0.678267 1.762074,-1.017579 3.050781,-1.017578 0.983486,-10e-7 1.815874,0.356179 2.49414,1.068359 0.678267,0.71218 1.101918,1.745029 1.271485,3.101562 l 6.357426,-1.169921 c -0.27131,-1.797407 -0.86364,-3.323332 -1.779301,-4.578126 -0.91566,-1.288706 -2.085406,-2.270952 -3.509766,-2.949218 -1.42436,-0.71218 -3.036578,-1.06836 -4.833984,-1.06836 z"
       id="text7" />
  </g>
</svg>
