<?xml version="1.0" encoding="UTF-8" standalone="no"?>
<svg
   width="16"
   height="16"
   version="1"
   id="svg566"
   xmlns="http://www.w3.org/2000/svg"
   xmlns:svg="http://www.w3.org/2000/svg">
  <defs
     id="defs570" />
  <path
     id="path839"
     style="baseline-shift:baseline;display:inline;overflow:visible;vector-effect:none;fill:#000000;fill-rule:evenodd;stroke-width:1.605;stroke-linecap:round;enable-background:accumulate;stop-color:#000000"
     d="M 9.1660156 0 A 0.64200006 0.64200006 0 0 0 8.5761719 0.40039062 A 0.64200006 0.64200006 0 0 0 8.9296875 1.2382812 C 11.243401 2.1789091 12.913002 4.6282505 12.394531 7.1054688 C 12.20341 8.0186272 11.640803 8.9059046 10.904297 9.4667969 C 10.16779 10.027689 9.2968408 10.274046 8.3632812 10.015625 C 7.8892253 9.8844001 7.3981505 9.5376666 7.1152344 9.125 C 6.8323183 8.7123333 6.7383683 8.2882409 6.9199219 7.8242188 C 6.9795839 7.6717326 7.1578648 7.4589089 7.3183594 7.3671875 C 7.4311403 7.3027342 7.4930773 7.277157 7.5585938 7.2929688 A 0.64200006 0.64200006 0 0 1 7.6210938 7.15625 C 7.6024736 7.2024727 7.588006 7.2506884 7.5761719 7.2988281 C 7.5704606 7.296885 7.564204 7.2943227 7.5585938 7.2929688 A 0.64200006 0.64200006 0 0 0 7.5605469 7.6953125 C 7.5963466 7.8935383 7.6846144 8.0454223 7.7773438 8.1660156 C 7.9823631 8.4326401 8.2032668 8.5861412 8.5097656 8.6738281 C 9.1893275 8.8682456 9.8535925 8.5791165 10.255859 8.1640625 C 10.658126 7.7490083 10.88963 7.2192057 10.939453 6.6738281 C 11.037591 5.5995769 10.523341 4.6709694 9.7949219 4.0722656 C 9.0665028 3.4735617 8.1267807 3.1492126 7.1992188 3.1601562 C 5.5991929 3.1790338 4.2725549 4.0149038 3.4160156 5.1699219 C 2.5594762 6.32494 2.1310997 7.8000256 2.2402344 9.2421875 C 2.5218363 12.963419 5.7805344 15.628253 9.2949219 15.996094 A 0.64200006 0.64200006 0 0 0 10 15.425781 A 0.64200006 0.64200006 0 0 0 9.4257812 14.71875 C 6.4696356 14.409339 3.7516097 12.159715 3.5234375 9.1445312 C 3.4389085 8.0275231 3.7850057 6.8246786 4.4472656 5.9316406 C 5.1095256 5.0386025 6.0440812 4.4552193 7.2148438 4.4414062 C 7.8184074 4.4342852 8.5061881 4.6726783 8.9804688 5.0625 C 9.4547494 5.4523216 9.7167779 5.9387818 9.6601562 6.5585938 C 9.640166 6.777415 9.5024683 7.0936766 9.3320312 7.2695312 C 9.1764681 7.4300415 9.0728715 7.4846488 8.9101562 7.4511719 C 8.9118527 7.4428524 8.9126832 7.4340506 8.9140625 7.4257812 C 8.9502868 7.2086112 8.9064346 7.0296952 8.8496094 6.8847656 C 8.7359592 6.5949064 8.5854123 6.4070796 8.3320312 6.2480469 C 7.7893648 5.9074463 7.1313464 5.992997 6.6816406 6.25 C 6.231935 6.5070032 5.9057053 6.8956553 5.7265625 7.3535156 C 5.3787382 8.2424993 5.585757 9.1675715 6.0546875 9.8515625 C 6.5236181 10.535554 7.2351511 11.036239 8.0214844 11.253906 C 8.6951314 11.44038 9.361751 11.437874 9.984375 11.294922 C 10.606999 11.151971 11.183648 10.867531 11.681641 10.488281 C 12.677626 9.7297813 13.39247 8.6014669 13.650391 7.3691406 C 14.313914 4.1988729 12.245787 1.1988911 9.4121094 0.046875 A 0.64200006 0.64200006 0 0 0 9.1660156 0 z " />
</svg>
