<?xml version="1.0" encoding="UTF-8" standalone="no"?>
<svg
   height="16px"
   viewBox="0 0 16 16"
   width="16px"
   version="1.1"
   id="svg3"
   xmlns="http://www.w3.org/2000/svg"
   xmlns:svg="http://www.w3.org/2000/svg">
  <defs
     id="defs3" />
  <path
     id="path20"
     style="color:#000000;fill:#000000;stroke-width:0.495522;-inkscape-stroke:none"
     d="M 5.154084,1.8005e-4 V 2.415852 C 4.848421,2.421972 4.547589,2.428091 4.254005,2.428414 V 2.421654 L 2.159649,2.4206619 v 1.6172247 h 0.02577 c 0,0 0.274098,-0.00515 0.545845,-0.00773 0.135922,-0.00134 0.270555,-0.00183 0.37066,-9.92e-4 0.04831,4.219e-4 0.08761,6.957e-4 0.115309,0.00193 l -0.0064,0.0058 h 0.05218 C 3.559336,4.0370975 3.751784,4.1225056 3.878526,4.2420657 4.004786,4.3610778 4.06566,4.5155842 4.09336,4.66113 l 9.99e-4,2.7515051 v 3.8644909 c -0.01288,0.09096 -0.04606,0.20836 -0.125937,0.301959 -0.07956,0.0936 -0.204527,0.165232 -0.409376,0.16549 h -0.06184 l 0.0064,0.0048 c -0.02577,8.92e-4 -0.0612,0.0016 -0.105645,0.0019 -0.10017,7.44e-4 -0.235447,1.19e-4 -0.371659,-9.92e-4 -0.272488,-0.0021 -0.546812,-0.0058 -0.546812,-0.0058 l -0.01932,-9.92e-4 -0.301798,1.803044 h 1.959851 c 0.351947,4.03e-4 0.697614,0.0058 1.037483,0.0087 L 5.157706,16 h 1.529153 l -9.98e-4,-2.418574 c 0.391757,0.0077 0.770824,0.01192 1.141066,0.01159 v 2.40696 h 1.531085 l 9.67e-4,-2.44277 c 1.239272,-0.07221 2.297207,-0.262664 3.073797,-0.72683 0.781615,-0.467181 1.27773,-1.212004 1.386886,-2.378896 0.08793,-0.9389458 -0.0918,-1.6217918 -0.473279,-2.1117771 C 12.971954,7.8588764 12.401534,7.5697012 11.707881,7.3989905 12.551466,6.9576118 13.086747,6.1922851 12.962163,4.9300868 12.876813,4.0525473 12.449976,3.4624212 11.804669,3.0747832 11.16442,2.6901856 10.309111,2.5038987 9.358012,2.4195692 V 2.585e-5 H 7.826927 L 7.825961,2.3527905 c -0.376007,2.834e-4 -0.75807,0.00805 -1.139134,0.01546 V -2.5e-7 Z M 7.609437,4.1308244 c 0.358389,0.00223 0.757265,0.022868 1.132339,0.096788 0.379389,0.074886 0.731562,0.2038183 0.987172,0.4190644 0.255739,0.2152524 0.417042,0.5160487 0.417138,0.9436226 C 10.14599,5.9997268 9.984719,6.2910697 9.728948,6.5029499 9.473209,6.7148204 9.121197,6.8457628 8.741776,6.9249195 7.991564,7.0814228 7.146112,7.0353319 6.720019,7.0342689 V 4.1453347 c 0.213224,-6.958e-4 0.531029,-0.016749 0.889418,-0.014494 z m 0.179082,4.4190531 c 0.431214,0.00287 0.91161,0.026411 1.362665,0.1083832 0.455402,0.082874 0.878435,0.225044 1.185579,0.462614 0.307274,0.2375733 0.50027,0.5684624 0.500366,1.0384683 9.7e-5,0.450204 -0.193253,0.771476 -0.500366,1.005564 -0.307273,0.234094 -0.730016,0.378626 -1.185579,0.466489 -0.902463,0.174057 -1.921845,0.124455 -2.432099,0.123875 l 9.66e-4,-3.1899267 c 0.255417,-6.925e-4 0.637287,-0.018359 1.0685,-0.01546 z" />
</svg>
