<?xml version="1.0" encoding="UTF-8" standalone="no"?>
<svg
   width="16"
   height="16"
   version="1.1"
   id="svg9605"
   xmlns:xlink="http://www.w3.org/1999/xlink"
   xmlns="http://www.w3.org/2000/svg"
   xmlns:svg="http://www.w3.org/2000/svg">
  <defs
     id="defs9601">
    <style
       id="current-color-scheme"
       type="text/css">
   .ColorScheme-Text { color:#444444; } .ColorScheme-Highlight { color:#4285f4; } .ColorScheme-NeutralText { color:#ff9800; } .ColorScheme-PositiveText { color:#4caf50; } .ColorScheme-NegativeText { color:#f44336; }
  </style>
    <linearGradient
       xlink:href="#linearGradient70"
       id="linearGradient71"
       x1="31.548235"
       y1="40.876469"
       x2="71.416985"
       y2="80.745216"
       gradientUnits="userSpaceOnUse"
       gradientTransform="matrix(0.70710678,-0.70789429,0.70710678,0.70789429,-30.701958,-2.6085725)" />
    <linearGradient
       id="linearGradient70">
      <stop
         style="stop-color:#595959;stop-opacity:1;"
         offset="0"
         id="stop70" />
      <stop
         style="stop-color:#808080;stop-opacity:1;"
         offset="0.08774716"
         id="stop72" />
      <stop
         style="stop-color:#a6a6a6;stop-opacity:1;"
         offset="0.53804272"
         id="stop74" />
      <stop
         style="stop-color:#808080;stop-opacity:1;"
         offset="0.86432147"
         id="stop73" />
      <stop
         style="stop-color:#595959;stop-opacity:1;"
         offset="1"
         id="stop71" />
    </linearGradient>
  </defs>
  <path
     id="path66"
     style="display:none;fill:url(#linearGradient71);stroke-width:1.00056"
     d="m 77.087697,-26.485657 c -0.277431,-0.01475 -0.563745,0.07085 -0.794922,0.258099 L 61.259572,-14.02844 c -0.454615,0.368729 -0.79795,0.856319 -0.994141,1.407816 l -1.90039,5.3457907 c -0.07935,0.2232947 -0.206622,0.5160061 -0.328125,0.795807 -0.08117,-0.02627 -0.159497,-0.063259 -0.248048,-0.064525 -0.267702,-0.00383 -0.58967,0.074516 -0.96289,0.2170383 -1.916516,0.4506193 -3.89415,0.752435 -5.826172,1.2572578 -0.606483,0.1584706 -1.389854,0.5878411 -1.853516,1.0108907 -1.629169,1.4864662 -3.107116,3.13550877 -4.679685,4.64383966 l -0.002,0.001982 -0.002,0.001982 C 42.856238,2.217683 41.210858,3.8134884 39.613036,5.4620482 39.318145,5.7661865 38.962775,6.2601969 38.808348,6.6841116 38.3066,8.0614325 38.208963,9.5440378 37.855223,10.888007 c -0.303202,1.162013 -0.377909,2.285545 -1.142577,3.12848 l -0.0039,0.0039 -14.808595,17.632898 -2.011719,0.160335 v 0.230725 c -0.0038,1.326845 -0.06445,2.636884 -0.06445,3.998588 l 2.1e-5,0.01371 0.002,0.01176 c 0.0052,0.05165 0.01352,0.09435 0.0293,0.181844 0.01578,0.08749 0.03674,0.203528 0.0625,0.340222 0.05149,0.273307 0.121769,0.630674 0.193358,1.006979 l 1.078126,5.670371 c 0.143996,0.756894 0.804349,1.419431 1.560547,1.564239 1.664022,0.318616 4.763867,0.912153 6.738282,1.288543 0.182325,0.03476 0.443528,0.06291 0.628906,0.06844 0.754236,0.02247 1.55294,0.03502 2.253906,-0.398882 l 0.01756,-0.0098 19.5625,-16.465583 c 0.990204,-0.702913 2.004618,-0.866239 3.148437,-1.165359 l 0.002,0.002 c 1.35356,-0.357058 2.845162,-0.452528 4.230469,-0.965918 0.403215,-0.14943 0.87017,-0.486973 1.160156,-0.768434 1.655626,-1.607208 3.259764,-3.263971 4.894531,-4.880429 l 0.0039,-0.0019 v -0.002 c 1.56748,-1.637919 3.28574,-3.174154 4.816409,-4.884337 0.160489,-0.179314 0.438174,-0.548286 0.72461,-0.922902 0.286433,-0.374616 0.587379,-0.757447 0.701171,-0.872063 0.811276,-0.817135 1.226276,-2.107648 1.552735,-3.501944 0.317001,-1.3539013 0.547376,-2.8031739 0.892578,-4.0279174 L 78.581835,5.7182578 C 79.133258,5.5216585 79.61805,5.1758777 79.986132,4.7210549 l 9.131001,-14.6794984 c 0.373957,-0.4627325 -1.339641,-2.1366685 -1.759904,-2.5565935 l 2.095705,-2.012002 -1.69336,-2.674851 -0.818359,-3.439373 -0.347643,-0.350012 -3.261714,-3.255578 -2.84375,0.74497 -2.638659,-2.64358 c -0.186901,-0.187469 -0.425335,-0.285773 -0.669922,-0.318714 l -0.02734,-0.0176 z M 73.628712,5.2899258 c -0.167904,0.092418 -0.331006,0.2351151 -0.509764,0.4145252 0.178758,-0.1794101 0.34186,-0.3221075 0.509764,-0.4145252 z m 0.601563,0.058659 c 0.07516,0.092279 0.111568,0.1905375 0.125,0.3011163 -0.01344,-0.1105731 -0.04983,-0.2088402 -0.125,-0.3011163 z" />
  <path
     d=""
     style="baseline-shift:baseline;display:inline;overflow:visible;vector-effect:none;fill:#dadada;stroke-width:1.00056;enable-background:accumulate;stop-color:#000000"
     id="path211" />
  <path
     d=""
     style="baseline-shift:baseline;display:inline;overflow:visible;vector-effect:none;fill:#dadada;stroke-width:1.00056;enable-background:accumulate;stop-color:#000000"
     id="path210" />
  <path
     id="path218"
     style="display:inline;fill:#000000;fill-opacity:1;stroke-width:0.0938768"
     d="m 15.202694,4.3809173 c -0.0066,4.248e-4 -0.01349,0.00161 -0.02094,0.0036 -0.409675,0.1104669 -0.823779,0.2440119 -1.219586,0.4434434 -0.05704,0.028733 -0.14838,0.078591 -0.203808,0.1116831 -0.210085,0.1254424 -0.418341,0.2811211 -0.535203,0.5004324 -0.116895,0.2220622 -0.05143,0.4477431 0.06052,0.6049056 0.03316,0.044944 0.06868,0.088873 0.10632,0.1310029 -0.01906,-0.022058 -0.03719,-0.04459 -0.0543,-0.067809 -0.06803,-0.095504 -0.108007,-0.2328441 -0.03697,-0.3677893 0.07102,-0.1332774 0.197512,-0.22769 0.325174,-0.3039316 0.03367,-0.020118 0.08933,-0.05065 0.12399,-0.068119 0.240532,-0.1211944 0.492018,-0.2024068 0.740977,-0.2695379 0.03601,-0.00971 0.05834,0.012062 0.04905,0.048159 -0.04494,0.1749348 -0.100467,0.3498137 -0.169461,0.5220451 -0.01423,0.035522 -0.03896,0.092635 -0.05496,0.127724 -0.06599,0.1447905 -0.143173,0.2905764 -0.253864,0.4123314 -0.0268,0.029519 -0.07354,0.074784 -0.106033,0.097231 -0.06718,0.046537 -0.145157,0.072874 -0.217222,0.071396 -0.03491,-7.15e-4 -0.0875,-0.01488 -0.117775,-0.027182 -0.0595,-0.024196 -0.111632,-0.059825 -0.158338,-0.101854 0.08397,0.08095 0.179118,0.1503072 0.289519,0.1951955 0.04982,0.020253 0.136216,0.044016 0.193672,0.045194 0.118574,0.00244 0.246708,-0.041008 0.357239,-0.1175763 0.0534,-0.036995 0.130561,-0.1115932 0.174715,-0.1601285 0.182146,-0.2003575 0.308861,-0.439996 0.417434,-0.6782668 0.02633,-0.057771 0.06688,-0.1521392 0.0903,-0.210583 0.113533,-0.2834168 0.205096,-0.5711836 0.279053,-0.8590495 0.01335,-0.051945 -0.01301,-0.085627 -0.05953,-0.082534 z M 4.7344635,1.8643749e-4 C 4.7268268,4.6959521e-4 4.7192183,0.00127659 4.7115674,0.00248001 4.6711775,0.00886522 4.6338422,0.02790758 4.6049131,0.05684063 L 2.8759642,1.7877151 c -0.075622,0.075694 -0.075624,0.1984284 0,0.2741236 l 0.3857005,0.3861301 2.3056999,2.3082677 0.5227761,0.5230256 0.7740217,0.7745524 c -0.024947,0.035876 -0.045389,0.074987 -0.0602,0.1165867 l -0.31831,0.8954034 c -0.00767,0.021697 -0.017847,0.048463 -0.027811,0.074676 C 6.1210363,7.2178384 5.5208624,7.3405575 5.2124104,7.4211534 5.1108487,7.4476924 4.979947,7.5196166 4.9022805,7.5904747 4.6293974,7.8394517 4.3822098,8.1153719 4.1187446,8.3679458 l -6.512e-4,6.519e-4 -3.316e-4,3.32e-4 C 3.8486419,8.6416056 3.5727762,8.9092838 3.3051525,9.1854171 3.2558177,9.2363643 3.1965833,9.3190676 3.1707018,9.3901132 3.0866643,9.620811 3.0703068,9.8688112 3.0110562,10.093925 c -0.050792,0.19467 -0.06299,0.382841 -0.1910518,0.52401 l -0.00101,6.84e-4 -2.7558468,3.281945 -6.5195e-4,6.53e-4 c -0.06784803,0.08697 -0.06989334,0.190625 -0.05496009,0.285585 0.00646366,0.04109 0.01605203,0.08104 0.02519138,0.119869 -0.0012586,-0.01307 -4.0729e-4,-0.02669 0.0019608,-0.04061 -0.0020732,0.01383 -0.0032336,0.02759 -0.0019608,0.04061 2.009e-5,2.1e-4 -2.333e-5,4.51e-4 0,6.65e-4 0.0013789,0.0134 0.02311745,0.126393 0.04710845,0.252507 l 0.18058305,0.94977 c 0.0201914,0.106117 0.12236271,0.208634 0.22834274,0.228929 0.29285251,0.05607 0.85185672,0.162843 1.17804042,0.224998 0.00278,4.74e-4 0.0057,2.41e-4 0.00852,6.73e-4 0.025807,0.005 0.049733,0.0097 0.094217,0.01703 0.033159,0.0054 0.069052,0.01541 0.1089355,0.01801 0.018556,0.0012 0.037115,9.14e-4 0.055938,-6.58e-4 0.055606,-0.0047 0.1122129,-0.02236 0.1619364,-0.06124 l 3.316e-4,-3.32e-4 3.2760045,-2.757279 C 5.538229,13.062572 5.7081107,13.035549 5.8993809,12.98553 l 7e-7,3.32e-4 c 0.2267183,-0.05981 0.4768806,-0.07612 0.708917,-0.162115 0.067614,-0.02506 0.1461151,-0.0816 0.1946524,-0.128709 0.2773562,-0.26917 0.5456778,-0.546713 0.8195042,-0.817444 l 3.203e-4,-6.52e-4 h 3.309e-4 c 0.2625629,-0.274323 0.5503504,-0.531326 0.8067834,-0.817734 0.053514,-0.0598 0.106619,-0.156488 0.1275918,-0.233833 C 8.6327354,10.547811 8.7865,9.9356166 8.8878949,9.520261 L 9.8186164,9.1884958 c 0.041458,-0.014788 0.080384,-0.035324 0.1161374,-0.060258 l 0.7736892,0.7748823 0.522773,0.5233549 2.305702,2.307939 0.41645,0.417245 a 0.14996884,0.15013586 0 0 0 0.211988,0 l 1.790778,-1.792772 a 0.14996884,0.15013586 0 0 0 0,-0.212224 L 15.539684,10.729417 13.233982,8.4214795 12.711209,7.8981241 12.61601,7.8028196 13.431904,6.818334 c 0.04003,-0.048286 0.03682,-0.1190919 -0.0075,-0.1634259 L 12.983437,6.2137102 c -0.0213,-0.021311 -0.04976,-0.033915 -0.07981,-0.035374 -0.03019,-0.00143 -0.05984,0.00851 -0.08309,0.027842 L 11.836818,7.0226535 11.741948,6.9276765 12.07694,6.513707 C 12.12628,6.452701 12.12132,6.3641424 12.06582,6.3086866 L 11.606879,5.849478 11.731519,5.3726277 11.54075,5.1814099 11.541457,5.180702 11.174776,4.8138485 10.841045,4.4795093 10.840338,4.4802172 10.615637,4.2555025 10.139318,4.3802824 9.6806189,3.9208349 c -0.0277,-0.027783 -0.063781,-0.042927 -0.1004396,-0.044869 -0.036635,-0.00195 -0.073886,0.00904 -0.1043619,0.033731 L 9.0623084,4.2450625 8.9673461,4.1499944 9.782928,3.1651669 C 9.822759,3.1169379 9.819551,3.0463589 9.775408,3.0020695 L 9.3344144,2.5605898 c -0.021296,-0.02131 -0.049759,-0.033915 -0.079818,-0.035366 -0.030193,-0.00143 -0.059828,0.0085 -0.083092,0.027842 L 8.188113,3.3695396 8.0929145,3.274235 7.5701385,2.7512095 5.2644294,0.44293255 4.8787282,0.0568017 C 4.8403846,0.01842392 4.7879547,-0.00189194 4.7344614,1.3900857e-4 Z M 6.9573951,5.9532773 c -0.014382,0.011709 -0.027634,0.02455 -0.040574,0.037646 0.012823,-0.013241 0.026123,-0.025949 0.040574,-0.037646 z m -0.058882,0.057643 c -0.00728,0.00829 -0.014234,0.016798 -0.020966,0.02552 0.00664,-0.00877 0.013782,-0.017195 0.020966,-0.02552 z M 8.0762268,6.847701 8.6084845,7.3808841 7.0584788,8.9335887 8.6094561,7.3818568 9.142046,7.9147072 8.3565791,8.7013802 C 8.3067557,8.7511728 8.2520546,8.7959691 8.1936603,8.8353294 L 6.3983077,10.049402 c -0.056272,0.03804 -0.1252357,0.05249 -0.1920318,0.04028 -0.061165,-0.0112 -0.1238689,-0.02265 -0.1851637,-0.03406 -0.019474,-0.0036 -0.038205,-0.01494 -0.05333,-0.03013 l -3.316e-4,-10e-7 C 5.9522946,10.010211 5.9408706,9.991095 5.9373486,9.971458 L 5.903654,9.7867478 C 5.891456,9.7198728 5.905884,9.6508321 5.943892,9.5945014 L 7.1566083,7.7968166 c 0.039449,-0.058352 0.084326,-0.1126649 0.134124,-0.1624475 z M 6.4572005,7.1424547 c -0.011243,0.029505 -0.024424,0.058486 -0.038608,0.089407 0.014199,-0.030723 0.027344,-0.059994 0.038608,-0.089407 z M 6.4006051,7.270837 c -0.00513,0.010095 -0.010486,0.018851 -0.01603,0.028507 0.00534,-0.00959 0.010967,-0.018625 0.01603,-0.028507 z m 0.356584,0.049781 c -0.031261,0.034127 -0.057983,0.072375 -0.07982,0.1136474 0.021864,-0.041256 0.048621,-0.079468 0.07982,-0.1136474 z M 6.3305959,7.379241 c -0.00964,0.011213 -0.019636,0.020678 -0.030107,0.029478 0.010387,-0.00884 0.020485,-0.018242 0.030107,-0.029478 z m -0.04027,0.038616 c -0.013831,0.010165 -0.028086,0.018349 -0.043183,0.023254 0.015118,-0.00494 0.029423,-0.013004 0.043183,-0.023254 z m -0.725929,0.1853682 c -0.062402,0.014746 -0.146241,0.033523 -0.2263831,0.058951 0.080151,-0.025421 0.1639731,-0.04421 0.2263831,-0.058951 z m -0.3405441,0.102523 c -0.035186,0.016381 -0.066518,0.034637 -0.090624,0.055344 0.024091,-0.02072 0.055423,-0.038977 0.090624,-0.055344 z m 4.8116102,1.3290234 c -0.01292,0.015906 -0.02685,0.030843 -0.04155,0.044852 0.014665,-0.014088 0.028649,-0.028942 0.04155,-0.044852 z m -0.049059,0.052087 c -0.012488,0.011411 -0.025746,0.021952 -0.039259,0.032082 0.013527,-0.010144 0.026799,-0.0206 0.039259,-0.032082 z M 3.6728799,9.2211325 c -0.04534,0.04539 -0.1066855,0.1054055 -0.161318,0.1692844 0.054624,-0.063887 0.1159783,-0.1238942 0.161318,-0.1692844 z m -0.2352134,0.26692 c -0.021058,0.032549 -0.037654,0.064553 -0.046781,0.094984 0.00913,-0.030432 0.02571,-0.062436 0.046781,-0.094984 z m 5.218902,0.1218329 c -0.010133,0.00632 -0.018993,0.014059 -0.028115,0.021633 0.00906,-0.00765 0.017982,-0.015312 0.028115,-0.021633 z m -0.043544,0.034673 c -0.00739,0.00723 -0.014156,0.015191 -0.020647,0.023219 0.00646,-0.00816 0.013209,-0.015913 0.020647,-0.023219 z m -0.037668,0.047762 c -0.00417,0.00672 -0.00854,0.013223 -0.012091,0.020317 0.00354,-0.00722 0.00799,-0.013521 0.012091,-0.020317 z m -3.3453582,0.8050116 0.034676,0.09596 c 0.019764,0.05469 0.079862,0.115714 0.1344599,0.135582 0.032202,0.01172 0.064474,0.02342 0.096831,0.03504 l -3.1441694,3.050067 c -0.011371,0.01103 -0.033609,0.02104 -0.049399,0.02227 -0.041366,0.0032 -0.085044,0.0068 -0.1243093,0.0092 -0.015811,8.92e-4 -0.027733,-0.01137 -0.026495,-0.02719 l 0.00948,-0.123464 c 0.00148,-0.01847 0.00935,-0.03583 0.022246,-0.04913 z m 1.3504446,2.014493 c -0.024063,0.02069 -0.055317,0.03871 -0.090618,0.05469 0.035313,-0.01598 0.066517,-0.03403 0.090618,-0.05469 z m -0.205445,0.09662 c -0.08049,0.02425 -0.1647113,0.04169 -0.2273631,0.05535 0.062657,-0.01365 0.1468781,-0.0311 0.2273631,-0.05535 z m -0.9771749,0.23908 c -0.023101,0.01336 -0.046443,0.02843 -0.070011,0.04487 0.023759,-0.01656 0.04669,-0.03196 0.070011,-0.04487 z m -0.07426,0.04748 c -0.032421,0.02283 -0.063732,0.04829 -0.094547,0.07336 0.032018,-0.02667 0.06062,-0.0495 0.094547,-0.07336 z M 11.54884,0.72266618 c -0.0066,4.2474e-4 -0.0138,0.001642 -0.02128,0.003603 -0.409675,0.11046549 -0.823776,0.24401117 -1.219586,0.44344342 -0.05703,0.02874 -0.148387,0.078584 -0.203808,0.111683 C 9.8940808,1.406838 9.6858251,1.5625167 9.5689552,1.7818217 9.4520613,2.0038831 9.5178582,2.2298933 9.6298042,2.387055 9.6621402,2.430895 9.6965822,2.473913 9.7331811,2.515111 9.7150441,2.49398 9.6978471,2.472092 9.6815061,2.449928 9.6134721,2.354423 9.5738251,2.2170846 9.6448651,2.0821387 9.7158821,1.9488614 9.8423784,1.8544474 9.9700394,1.7782072 c 0.033679,-0.020126 0.089003,-0.050664 0.1236646,-0.068119 0.240534,-0.1211964 0.492343,-0.202079 0.741304,-0.2692094 0.03601,-0.00971 0.05802,0.011744 0.04873,0.047832 -0.04494,0.1749426 -0.100467,0.3498144 -0.169459,0.5220465 -0.01423,0.035522 -0.03897,0.092954 -0.05496,0.1280503 -0.06599,0.1447927 -0.142843,0.2905793 -0.253537,0.4123322 -0.0268,0.029519 -0.07387,0.074785 -0.106336,0.097253 -0.06718,0.04653 -0.144839,0.072866 -0.216894,0.071398 -0.03491,-7.15e-4 -0.087497,-0.015206 -0.1177714,-0.027504 -0.059503,-0.024189 -0.1119654,-0.059819 -0.1586634,-0.1018547 0.084081,0.08106 0.1789708,0.1502456 0.2895198,0.1951962 0.04982,0.020253 0.136216,0.044016 0.193671,0.045193 0.118574,0.00244 0.246709,-0.041008 0.357239,-0.1175749 0.0534,-0.036995 0.130554,-0.1112746 0.174701,-0.159817 0.182146,-0.2003575 0.309188,-0.440323 0.417761,-0.6785938 0.02632,-0.057771 0.06655,-0.1521386 0.08996,-0.2105894 0.113531,-0.2834154 0.205095,-0.5711836 0.279051,-0.85904952 0.01334,-0.0519524 -0.0127,-0.0856269 -0.0592,-0.0825461 z" />
</svg>
