<?xml version="1.0" encoding="UTF-8" standalone="no"?>
<svg
   height="16"
   viewBox="0 0 16 16"
   width="16"
   version="1.1"
   id="svg15572"
   xmlns="http://www.w3.org/2000/svg"
   xmlns:svg="http://www.w3.org/2000/svg">
  <defs
     id="defs15576" />
  <path
     d="m 8,5.78125 c -0.4509698,0 -0.8007813,0.3517644 -0.8007813,0.8027344 V 7.3847656 H 8.8007813 V 6.5839844 C 8.8007813,6.1330144 8.4509699,5.78125 8,5.78125 Z"
     style="display:inline;stroke-width:0.0173436;enable-background:new"
     id="path4" />
  <path
     d="m 8.015625,0 -3.3125,1.4726562 -3.3125,1.4707032 0.00977,2.5117187 c 0.010368,2.6775333 0.01159,2.6847468 0.1328125,3.4023438 0.2052288,1.2148511 0.7550382,2.5337551 1.5175782,3.6347661 1.1536869,1.665778 2.8222178,2.907348 4.6054687,3.427734 0.1482547,0.04326 0.308933,0.07948 0.3554688,0.08008 0.046532,4.61e-4 0.2106902,-0.03517 0.3652343,-0.08008 2.5058735,-0.728223 4.6796385,-2.828402 5.6914055,-5.498047 0.242121,-0.6388632 0.39978,-1.2758746 0.498047,-2.0058594 0.03851,-0.2860427 0.04297,-0.5284152 0.04297,-2.8984375 V 2.9316406 L 11.3125,1.4648437 Z M 8,4.9804687 c 0.8815839,10e-8 1.6035156,0.7219319 1.6035156,1.6035157 v 0.8007812 c 0.4447074,0 0.8007814,0.3580278 0.8007814,0.8027344 v 2.003906 c 0,0.222353 -0.178038,0.400391 -0.400391,0.400391 H 5.9960937 c -0.2223536,0 -0.4003906,-0.178038 -0.4003906,-0.400391 V 8.1875 c 0,-0.4447066 0.3560749,-0.8027344 0.8007813,-0.8027344 V 6.5839844 C 6.3964844,5.7024006 7.1184162,4.9804687 8,4.9804687 Z"
     style="display:inline;stroke-width:0.0173436;enable-background:new"
     id="path3" />
</svg>
