<?xml version="1.0" encoding="UTF-8" standalone="no"?>
<svg
   width="16"
   height="16"
   version="1"
   id="svg566"
   xmlns="http://www.w3.org/2000/svg"
   xmlns:svg="http://www.w3.org/2000/svg">
  <defs
     id="defs570" />
  <path
     id="path78321"
     style="display:inline;fill:#000000;fill-opacity:1;stroke:none;stroke-width:0.0324944;enable-background:new"
     d="M 4.8182612,0.91867721 C 4.2390422,0.91274637 3.8822553,1.0044442 3.5269573,1.6198441 L 2.5481156,3.3153001 0.43165047,6.9810634 c -0.57455844,0.9951683 -0.57650854,1.0653965 0,2.0639401 L 1.0121177,10.05051 3.5650412,14.47225 c 0.032929,0.05703 0.3559672,0.609348 1.0236408,0.609348 0.2997774,0 0.4067697,-0.173602 0.4067697,-0.346587 V 10.611564 10.22528 c 0,-0.2274426 0.1038499,-0.2973521 0.3510198,-0.2973521 v -0.00248 l 9.3874065,6.64e-5 c 0.284526,0 0.401785,-0.1437087 0.529015,-0.3379909 L 15.819919,8.622656 C 15.952654,8.3927528 15.999477,8.2527044 15.999997,7.9643426 16.001502,7.1998707 15.49142,7.0728197 15.336511,7.0728197 H 5.3464715 c -0.2471699,0 -0.3510198,-0.069904 -0.3510198,-0.2973519 V 6.3891825 4.4393606 4.0530771 c 0,-0.2274442 0.1038499,-0.2973537 0.3510198,-0.2973537 h 7.9968935 c 0.156354,0 0.323971,-0.1013784 0.128224,-0.4404206 L 12.49275,1.6198467 C 12.113765,0.96342495 11.732996,0.9028038 11.082489,0.92103007 H 4.9371498 c -0.040657,-0.001239 -0.08027,-0.001947 -0.1188886,-0.00239 z" />
</svg>
