<?xml version="1.0" encoding="UTF-8" standalone="no"?>
<svg
   height="16px"
   viewBox="0 0 16 16"
   width="16px"
   version="1.1"
   id="svg135"
   xml:space="preserve"
   xmlns="http://www.w3.org/2000/svg"
   xmlns:svg="http://www.w3.org/2000/svg"><defs
     id="defs139" /><path
     id="path856"
     style="font-style:normal;font-variant:normal;font-weight:normal;font-stretch:normal;font-size:47.9778px;line-height:1.25;font-family:'Operator Mono';-inkscape-font-specification:'Operator Mono';fill:#000000;fill-opacity:1;stroke-width:0.0565816"
     d="M 2.1875,1 C 0.980469,1 0,2.015625 0,3.21875 v 9.5625 C 0,13.984375 0.980469,15 2.1875,15 h 11.625 C 15.019531,15 16,13.984375 16,12.78125 V 3.21875 C 16,2.015625 15.019531,1 13.8125,1 Z m 0,2 h 11.625 C 13.933594,3 14,3.082031 14,3.21875 v 9.5625 C 14,12.917969 13.933594,13 13.8125,13 H 2.1875 C 2.066406,13 2,12.917969 2,12.78125 V 3.21875 C 2,3.082031 2.066406,3 2.1875,3 Z" /><g
     transform="matrix(0.16071426,0,0,0.16071426,-1.2881541,-27.999995)"
     id="foot"
     style="fill:#000000"><path
       style="fill:#000000"
       id="main"
       d="m 37.0057,207.12866 c -0.9539,-0.24232 -1.8766,-0.41748 -2.7117,-0.49721 -4.1121,-0.39258 -5.433,-0.0326 -7.5067,2.04908 -2.8434,2.85385 -2.2667,6.90676 1.4644,10.38038 8.0896,7.53109 8.2202,12.581 0.4808,18.2752 -3.1863,2.34409 -5.492,7.85321 -4.4994,10.73911 1.2501,3.63469 6.0098,5.02447 10.1635,2.97341 3.8964,-1.92373 8.3104,-8.49971 11.3208,-16.36234 0.2509,-0.65526 0.4966,-1.31942 0.7268,-1.9912 0.6909,-2.01525 1.2796,-4.09527 1.7466,-6.17933 1.4109,-6.29466 1.0666,-11.19321 -0.9956,-14.13789 -1.287,-1.83788 -6.056,-4.19923 -10.1892,-5.24924 z" /><g
       transform="translate(-1890.6933,-335.56903)"
       id="toes"
       style="fill:#000000"><ellipse
         id="toe3"
         style="fill:#000000"
         cx="1934.6934"
         cy="540.29291"
         rx="2"
         ry="2.2761035" /><ellipse
         id="toe4"
         style="fill:#000000"
         cx="1939.0691"
         cy="543.35553"
         rx="1.6242591"
         ry="1.7864922" /><ellipse
         id="toe5"
         style="fill:#000000"
         cx="1941.3607"
         cy="547.06903"
         rx="1.33263"
         ry="1.5" /><ellipse
         id="toe1"
         style="fill:#000000"
         cx="1921.8835"
         cy="536.06903"
         rx="3.8097539"
         ry="4.5" /><ellipse
         id="toe2"
         style="fill:#000000"
         cx="1929.1934"
         cy="537.56903"
         rx="2.5"
         ry="3" /></g></g><rect
     id="cursor"
     y="11.375007"
     x="7.0690069"
     height="0.7500006"
     width="4.1250029"
     style="fill:#000000;stroke-width:0.187501" /></svg>
