<?xml version="1.0" encoding="UTF-8" standalone="no"?>
<svg
   width="16"
   height="16"
   version="1"
   id="svg566"
   xmlns="http://www.w3.org/2000/svg"
   xmlns:svg="http://www.w3.org/2000/svg">
  <defs
     id="defs570" />
  <path
     id="path2"
     style="fill:#000000;stroke-width:0.362878"
     d="M 7.9921875 0 C 7.8175666 0.021209205 7.6411042 0.71097021 7.3535156 2.0683594 C 6.7692096 4.8262244 6.5991376 4.8398675 6.0566406 4.7421875 C 5.5141476 4.6445085 5.3003819 3.8983406 5.3886719 2.5566406 C 5.4769619 1.2149406 5.4774005 1.1096526 3.8203125 3.4160156 C 2.1632295 5.7223796 2.1711099 5.3706604 1.4042969 5.0214844 C 0.63748385 4.6723084 0.42931213 4.5789344 0.29882812 4.5214844 C 0.2845559 4.5152001 0.2720283 4.5116764 0.26367188 4.5117188 L 0.26171875 4.5117188 L 0.25976562 4.5117188 L 0.2578125 4.5117188 L 0.25585938 4.5136719 L 0.25390625 4.5136719 L 0.25390625 4.515625 L 0.25195312 4.5175781 L 0.25195312 4.5195312 L 0.25 4.5214844 C 0.24994742 4.5224309 0.24993991 4.5262767 0.25 4.5273438 C 0.26087889 4.6011593 0.49648782 4.9156573 1.2792969 5.8164062 C 2.3136189 7.0065552 2.8349957 8.2634256 2.1210938 8.3222656 C 1.8812685 8.3420315 1.7325898 8.3490572 1.6914062 8.3925781 C 1.6905639 8.3936315 1.6882266 8.3973416 1.6875 8.3984375 C 1.6374401 8.4918926 1.9768696 8.7381576 2.8085938 9.4863281 C 4.1068957 10.654203 5.5983525 13.225242 5.1484375 13.486328 C 4.6985225 13.747414 5.0434261 14.428996 5.5488281 14.675781 C 6.0542331 14.922566 6.2136731 15.1362 6.2832031 15.369141 C 6.3475411 15.58467 6.4482225 15.8396 6.5078125 15.9375 C 6.5816725 16.058827 6.6819797 16.002422 6.8242188 15.759766 C 7.0965198 15.295234 7.0739405 15.30449 7.5703125 15.484375 C 7.9139685 15.608892 8.080771 15.610138 8.40625 15.492188 C 8.958473 15.292059 8.971267 15.294996 9.125 15.701172 C 9.301531 16.167587 9.5536193 16.064884 9.6914062 15.46875 C 9.7697483 15.129819 9.8773826 14.955184 10.433594 14.683594 C 10.989805 14.412003 11.30435 13.749079 10.851562 13.486328 C 10.398779 13.223577 11.893103 10.654203 13.191406 9.4863281 C 14.023132 8.7381294 14.364515 8.4938363 14.314453 8.4003906 C 14.313727 8.3992949 14.311389 8.3955845 14.310547 8.3945312 C 14.269363 8.3510153 14.118732 8.3420322 13.878906 8.3222656 C 13.165007 8.2634286 13.686385 7.0065552 14.720703 5.8164062 C 15.503516 4.9156573 15.73912 4.601044 15.75 4.5273438 C 15.75006 4.5262776 15.750053 4.524384 15.75 4.5234375 L 15.75 4.5214844 L 15.748047 4.5195312 L 15.748047 4.5175781 L 15.746094 4.515625 L 15.746094 4.5136719 L 15.744141 4.5136719 L 15.742188 4.5117188 L 15.740234 4.5117188 L 15.738281 4.5117188 C 15.729925 4.5116767 15.715444 4.5151997 15.701172 4.5214844 C 15.570685 4.5789394 15.362516 4.6723084 14.595703 5.0214844 C 13.82889 5.3706604 13.836774 5.7223796 12.179688 3.4160156 C 10.5226 1.1096526 10.523038 1.2149406 10.611328 2.5566406 C 10.699614 3.8983406 10.485856 4.6445075 9.9433594 4.7421875 C 9.4008624 4.8398655 9.2307914 4.8262294 8.6464844 2.0683594 C 8.3497665 0.6678785 8.1723519 -0.021882513 7.9921875 0 z M 11.380859 7.3808594 C 11.522207 7.3785225 11.53125 7.6275151 11.53125 8.0585938 C 11.53125 9.0099387 11.975086 8.7451171 10.527344 9.3457031 C 9.0796016 9.9462891 8.6552392 10.167105 10.072266 8.6054688 C 10.847201 7.7514495 11.210267 7.3836797 11.380859 7.3808594 z M 4.5742188 7.40625 C 4.7529778 7.4057691 5.1236374 7.7819718 5.8886719 8.625 C 7.2546589 10.13025 6.9987685 9.9984415 5.6171875 9.4296875 C 4.2356075 8.8609335 4.4121094 9.0145719 4.4121094 8.0605469 C 4.4121094 7.6580672 4.4311981 7.4267639 4.5566406 7.4082031 C 4.5620126 7.4074083 4.5684523 7.4062655 4.5742188 7.40625 z M 7.9746094 11.902344 C 8.5921274 11.895833 9.1138352 12.593763 9.5507812 12.875 C 9.9877243 13.156237 10.187887 13.776426 9.4902344 13.578125 C 8.7925814 13.379824 8.3931604 12.732718 7.9746094 12.732422 C 7.5187864 12.732035 7.2147355 13.396987 6.6953125 13.597656 C 6.1758855 13.798326 5.7421903 13.332747 6.2382812 13.025391 C 6.6099063 12.795151 7.0124657 12.284073 7.4804688 12.039062 C 7.6372227 11.956998 7.8017624 11.904144 7.9746094 11.902344 z " />
</svg>
