<?xml version="1.0" encoding="UTF-8" standalone="no"?>
<svg
   height="16px"
   viewBox="0 0 16 16"
   width="16px"
   version="1.1"
   id="svg364"
   xmlns:xlink="http://www.w3.org/1999/xlink"
   xmlns="http://www.w3.org/2000/svg"
   xmlns:svg="http://www.w3.org/2000/svg">
  <defs
     id="defs368">
    <radialGradient
       xlink:href="#linearGradient26"
       id="radialGradient27"
       cx="-55.309723"
       cy="159.40503"
       fx="-55.309723"
       fy="159.40503"
       r="48"
       gradientTransform="matrix(1.6702783,0.11048543,-0.06325342,0.95624358,113.01148,-163.46756)"
       gradientUnits="userSpaceOnUse" />
    <linearGradient
       id="linearGradient26">
      <stop
         style="stop-color:#000000;stop-opacity:1;"
         offset="0"
         id="stop26" />
      <stop
         style="stop-color:#000000;stop-opacity:0.39974245;"
         offset="1"
         id="stop27" />
    </linearGradient>
  </defs>
  <g
     id="g4"
     transform="matrix(0.09836066,0,0,0.10169492,7.9016393,7.8983051)">
    <path
       id="path3"
       style="fill:#000000;fill-opacity:1;stroke-width:0.268565"
       d="m -45.789062,-9.265625 c -1.232381,0.530708 -2.397039,1.0827728 -3.488282,1.6542969 A 51.059255,49.385178 0 0 0 -50.058594,1 51.059255,49.385178 0 0 0 -49.904297,4.8515625 C -49.60035,3.4594968 -48.599017,2.124243 -47,0.87109375 A 48,46 0 0 1 -45.789062,-9.265625 Z m 93.578124,0 A 48,46 0 0 1 49,0.87109375 C 50.599017,2.1242431 51.60035,3.4594967 51.904297,4.8515625 A 51.059255,49.385178 0 0 0 52.058594,1 51.059255,49.385178 0 0 0 51.277344,-7.6113281 C 50.1861,-8.1828608 49.021445,-8.7349109 47.789062,-9.265625 Z M -59.931641,3.796875 C -59.977268,4.1461426 -60.000058,4.4982185 -60,4.8515625 h 0.130859 a 60.999994,58.99999 0 0 1 -0.0625,-1.0546875 z m 121.863282,0 a 60.999994,58.99999 0 0 1 -0.0625,1.0546875 H 62 c 4.6e-5,-0.3532792 -0.02274,-0.7054832 -0.06836,-1.0546875 z" />
    <path
       id="path1"
       style="fill:#000000;fill-opacity:0.8;stroke-width:0.210439"
       d="M 0.999998,-58 A 60.999994,58.99999 0 0 0 -60,0.99999 60.999994,58.99999 0 0 0 0.999998,60 60.999994,58.99999 0 0 0 62,0.99999 60.999994,58.99999 0 0 0 0.999998,-58 Z m 0,9.61513 A 51.059255,49.385178 0 0 1 52.05893,0.99999 51.059255,49.385178 0 0 1 0.999998,50.38486 51.059255,49.385178 0 0 1 -50.05894,0.99999 51.059255,49.385178 0 0 1 0.999998,-48.38487 Z" />
    <ellipse
       style="fill:url(#radialGradient27);stroke-width:0.274033"
       id="path25"
       cx="1"
       cy="1"
       rx="48"
       ry="46" />
    <path
       id="path2"
       style="fill:#000000;stroke-width:0.268565"
       d="m -60,4.85156 c -0.002,12.1501 27.309513,22 60.999998,22 33.690486,0 61.001582,-9.8499 61.000002,-22 H 51.90338 c -1.65603,7.58455 -24.018817,13.49613 -50.903382,13.496 -26.884564,1.3e-4 -49.247368,-5.91145 -50.903388,-13.496 z" />
  </g>
  <path
     id="rect5"
     style="opacity:1;fill:#000000;fill-opacity:1;stroke-width:0.226902"
     d="M 1.9999999,-2.5e-7 C 0.89199994,-2.5e-7 -5.9999998e-8,0.89199975 -5.9999998e-8,1.9999997 V 14 C -5.9999998e-8,15.108 0.89199994,16 1.9999999,16 H 14 c 1.108,0 2,-0.892 2,-2 V 1.9999997 C 16,0.89199975 15.108,-2.5e-7 14,-2.5e-7 Z m 0.5,1 H 13.5 c 0.831,0 1.5,0.66899995 1.5,1.49999995 V 13.5 C 15,14.330999 14.331,15 13.5,15 H 2.4999999 c -0.831,0 -1.49999996,-0.669 -1.49999996,-1.5 V 2.4999997 c 0,-0.831 0.66899996,-1.49999995 1.49999996,-1.49999995 z" />
</svg>
