<?xml version="1.0" encoding="UTF-8" standalone="no"?>
<svg
   height="16px"
   viewBox="0 0 16 16"
   width="16px"
   version="1.1"
   id="svg364"
   xmlns:xlink="http://www.w3.org/1999/xlink"
   xmlns="http://www.w3.org/2000/svg"
   xmlns:svg="http://www.w3.org/2000/svg">
  <defs
     id="defs368">
    <radialGradient
       xlink:href="#linearGradient26"
       id="radialGradient27"
       cx="-55.309723"
       cy="159.40503"
       fx="-55.309723"
       fy="159.40503"
       r="48"
       gradientTransform="matrix(0.16428968,0.01123581,-0.00622165,0.09724511,17.017523,-10.725515)"
       gradientUnits="userSpaceOnUse" />
    <linearGradient
       id="linearGradient26">
      <stop
         style="stop-color:#000000;stop-opacity:1;"
         offset="0"
         id="stop26" />
      <stop
         style="stop-color:#000000;stop-opacity:0.39974245;"
         offset="1"
         id="stop27" />
    </linearGradient>
  </defs>
  <path
     id="path3"
     style="fill:#000000;fill-opacity:1;stroke-width:0.0268602"
     d="M 1.3984375 4.9550781 C 1.2772197 5.0090484 1.1620229 5.0668789 1.0546875 5.125 A 5.022222 5.0222217 0 0 0 0.97851562 6 A 5.022222 5.0222217 0 0 0 0.9921875 6.3925781 C 1.0220839 6.2510121 1.1220165 6.113767 1.2792969 5.9863281 A 4.7213117 4.6779663 0 0 1 1.3984375 4.9550781 z M 10.601562 4.9550781 A 4.7213117 4.6779663 0 0 1 10.611328 5 L 10.699219 5 C 10.667628 4.985192 10.634126 4.9695766 10.601562 4.9550781 z M 0.005859375 6.2851562 C 0.001371465 6.3206749 -5.7049183e-06 6.3566448 0 6.3925781 L 0.013671875 6.3925781 A 5.9999997 5.9999993 0 0 1 0.005859375 6.2851562 z " />
  <path
     id="path1"
     style="fill:#000000;fill-opacity:0.8;stroke-width:0.0210468"
     d="M 6 0 A 5.9999997 5.9999993 0 0 0 0 6 A 5.9999997 5.9999993 0 0 0 5 11.916016 L 5 10.921875 A 5.022222 5.0222217 0 0 1 0.97851562 6 A 5.022222 5.0222217 0 0 1 6 0.97851562 A 5.022222 5.0222217 0 0 1 10.921875 5 L 11.916016 5 A 5.9999997 5.9999993 0 0 0 6 0 z " />
  <path
     id="path25"
     style="fill:url(#radialGradient27);stroke-width:0.0274071"
     d="M 6 1.3222656 A 4.7213116 4.6779661 0 0 0 1.2792969 6 A 4.7213116 4.6779661 0 0 0 5 10.572266 L 5 8.7324219 L 8.7324219 8.7324219 L 8.7324219 5 L 10.611328 5 A 4.7213116 4.6779661 0 0 0 6 1.3222656 z " />
  <path
     id="path2"
     style="fill:#000000;stroke-width:0.0268602"
     d="M 0 6.3925781 C -0.00019672132 7.6281816 2.6861816 8.6289062 6 8.6289062 C 6.9840124 8.6289062 7.9129759 8.5413098 8.7324219 8.3847656 L 8.7324219 7.5273438 C 7.9438573 7.6770264 7.0038353 7.7636769 6 7.7636719 C 3.3556165 7.7636852 1.1550747 7.1638883 0.9921875 6.3925781 L 0 6.3925781 z " />
  <path
     id="path8"
     style="fill:#000000;fill-opacity:1;stroke-width:0.035375"
     d="M 9.3928572,6 V 9.3928572 H 6 V 12.607143 H 9.3928572 V 16 H 12.607143 V 12.607143 H 16 V 9.3928572 H 12.607143 V 6 Z" />
</svg>
