<?xml version="1.0" encoding="UTF-8" standalone="no"?>
<svg
   width="16"
   height="16"
   version="1"
   id="svg566"
   xmlns="http://www.w3.org/2000/svg"
   xmlns:svg="http://www.w3.org/2000/svg">
  <defs
     id="defs570" />
  <path
     d="M 7.582724,14.307023 C 6.212565,14.184941 4.942875,13.847252 3.910909,13.330464 2.542796,12.645339 1.422273,11.536286 0.762002,10.213788 0.222107,9.1324016 0.071667,8.3674076 0.026532,6.4738986 L -1e-6,5.3607826 h 1.045677 1.045678 v 0.952435 c 0,1.465341 0.113476,2.218245 0.441248,2.927668 0.778509,1.6849774 2.426756,2.7523354 4.782822,3.0972184 0.240305,0.03518 0.789934,0.07554 1.221399,0.08969 1.64393,0.05394 2.94726,-0.16298 3.748801,-0.623918 l 0.292841,-0.168402 1.356372,0.01118 1.35637,0.01118 -0.257299,0.341435 c -0.961216,1.275534 -2.357142,1.97826 -4.461673,2.24606 -0.6266,0.07973 -2.380742,0.115932 -2.989511,0.06169 z M 7.544534,10.806464 C 6.552646,10.652253 5.566156,10.233262 4.912602,9.6886046 4.290885,9.1704806 3.83471,8.3080936 3.655127,7.3113846 c -0.03465,-0.192312 -0.05595,-0.602999 -0.05388,-1.038908 0.01265,-2.657478 1.085887,-4.010235 3.556909,-4.483228 0.449359,-0.08602 0.613493,-0.09 4.353419,-0.105749 l 3.886465,-0.016357 0.06522,0.203652 c 0.26361,0.823157 0.536741,1.700176 0.536741,1.723465 0,0.01538 -1.741231,0.02832 -3.869401,0.02878 -3.096245,5.86e-4 -3.95837,0.01282 -4.31465,0.06088 -1.219101,0.164433 -1.753123,0.607171 -2.031346,1.600385 -0.06121,0.218503 -0.102233,0.423003 -0.107068,1.051787 -0.0041,0.538959 0.0853,1.029633 0.338113,1.461022 0.353319,0.602895 1.088601,0.9639 2.309154,1.086703 0.43513,0.04378 1.508054,0.02918 1.558439,-0.02121 0.05212,-0.05212 0.519074,-1.62955 0.509404,-1.720837 l -0.01124,-0.106012 -1.102514,-0.02204 C 8.050733,6.9891576 7.94699,6.9909876 7.707258,6.7179536 7.542787,6.5306316 7.510977,6.3772736 7.535838,6.0774856 c 0.0229,-0.276111 0.198029,-0.489259 0.460128,-0.626956 0.239805,-0.125983 0.191383,-0.103081 2.250284,-0.115944 1.142797,-0.0071 2.177449,-2.1e-5 2.280361,0.01495 0.124393,0.0181 0.261146,0.09376 0.341134,0.173748 0.213823,0.213822 0.225425,0.324574 -0.634886,2.796776 l -0.762695,2.2604754 -0.239453,0.05106 c -1.094939,0.233506 -2.814939,0.310319 -3.686181,0.174866 z"
     style="display:inline;fill:#000000;stroke-width:0.195429;enable-background:new"
     id="path1-5" />
</svg>
