<?xml version="1.0" encoding="UTF-8" standalone="no"?>
<svg
   width="16"
   height="16"
   version="1"
   id="svg566"
   xmlns:xlink="http://www.w3.org/1999/xlink"
   xmlns="http://www.w3.org/2000/svg"
   xmlns:svg="http://www.w3.org/2000/svg">
  <defs
     id="defs570">
    <linearGradient
       xlink:href="#linearGradient955"
       id="linearGradient957"
       x1="-566.03278"
       y1="-81.183174"
       x2="-462.03284"
       y2="-81.183174"
       gradientUnits="userSpaceOnUse"
       gradientTransform="translate(413.66564,76.23812)" />
    <linearGradient
       id="linearGradient955">
      <stop
         style="stop-color:#2ab43c;stop-opacity:1;"
         offset="0"
         id="stop951" />
      <stop
         style="stop-color:#52d262;stop-opacity:1;"
         offset="0.04354872"
         id="stop959" />
      <stop
         style="stop-color:#2ab43c;stop-opacity:1;"
         offset="0.07182212"
         id="stop961" />
      <stop
         style="stop-color:#2ab43c;stop-opacity:1;"
         offset="0.9348731"
         id="stop963" />
      <stop
         style="stop-color:#52d262;stop-opacity:1;"
         offset="0.96238744"
         id="stop965" />
      <stop
         style="stop-color:#2ab43c;stop-opacity:1;"
         offset="1"
         id="stop953" />
    </linearGradient>
    <linearGradient
       id="linearGradient8285">
      <stop
         style="stop-color:#ff6c6c;stop-opacity:1;"
         offset="0"
         id="stop8287" />
      <stop
         style="stop-color:#cc0000;stop-opacity:1;"
         offset="1"
         id="stop8289" />
    </linearGradient>
    <linearGradient
       id="linearGradient14664">
      <stop
         style="stop-color:#ffffff;stop-opacity:1;"
         offset="0"
         id="stop14666" />
      <stop
         style="stop-color:#eeeeec;stop-opacity:1"
         offset="1"
         id="stop14668" />
    </linearGradient>
    <linearGradient
       id="linearGradient2188">
      <stop
         style="stop-color:#c4a000;stop-opacity:1"
         offset="0"
         id="stop2190" />
      <stop
         id="stop3626"
         offset="0.20552924"
         style="stop-color:#edd400;stop-opacity:1" />
      <stop
         id="stop2848"
         offset="0.5"
         style="stop-color:#fce94f;stop-opacity:1" />
      <stop
         style="stop-color:#edd400;stop-opacity:1"
         offset="0.75"
         id="stop2850" />
      <stop
         style="stop-color:#c4a000;stop-opacity:1"
         offset="1"
         id="stop2192" />
    </linearGradient>
    <linearGradient
       id="linearGradient3235">
      <stop
         id="stop3237"
         offset="0"
         style="stop-color:#fce94f;stop-opacity:1" />
      <stop
         style="stop-color:#fce94f;stop-opacity:1"
         offset="0.5"
         id="stop3239" />
      <stop
         id="stop3241"
         offset="0.75"
         style="stop-color:#edd400;stop-opacity:1" />
      <stop
         id="stop3243"
         offset="1"
         style="stop-color:#c4a000;stop-opacity:1" />
    </linearGradient>
    <linearGradient
       id="linearGradient2021">
      <stop
         id="stop2013"
         offset="0"
         style="stop-color:#e2c904;stop-opacity:1;" />
      <stop
         style="stop-color:#e2c904;stop-opacity:1;"
         offset="0.5"
         id="stop2015" />
      <stop
         id="stop2017"
         offset="0.75"
         style="stop-color:#857700;stop-opacity:1;" />
      <stop
         id="stop2019"
         offset="1"
         style="stop-color:#5c4b00;stop-opacity:1;" />
    </linearGradient>
  </defs>
  <path
     id="path1906"
     style="color:#000000;fill:#000000;fill-rule:evenodd;stroke-width:0.340427px;-inkscape-stroke:none"
     d="m 13.617198,3.404174 c -0.665648,0 -1.203251,0.317578 -1.556901,0.7912074 -0.3002,0.4020472 -0.474551,0.9135122 -0.520816,1.4534591 C 11.322383,5.4603612 11.063005,5.2897484 10.770182,5.141059 10.639898,5.0749023 10.500718,5.0141448 10.357246,4.9560833 c 0.35094,0.1527379 0.609271,0.3516097 0.823377,0.570457 0.223976,0.2289355 0.369951,0.5075018 0.369951,0.8172762 0,0.3097745 -0.145975,0.5883413 -0.369951,0.817276 C 10.956648,7.3900271 10.649004,7.5829904 10.275435,7.7445838 9.5282987,8.0677711 8.5155872,8.2617945 7.3979133,8.2617945 6.2802267,8.2617945 5.2678019,8.0677711 4.5206689,7.7445838 4.147101,7.5829904 3.838904,7.3900271 3.6149257,7.1610925 3.3909474,6.9321578 3.2452526,6.653591 3.2452526,6.3438165 c 0,-0.3097744 0.1456948,-0.5883407 0.3696731,-0.8172762 C 3.8251935,5.31162 4.0958298,5.0897295 4.4416315,4.9405531 4.2836943,5.0031133 4.1304839,5.0688122 3.9882054,5.141059 3.1086665,5.5876737 2.5214344,6.2280806 2.5214344,6.9763942 c 0,0.2828877 -0.023286,0.9088061 0.024127,1.629283 C 2.3517589,8.4726359 2.2140269,8.316142 2.1403907,8.1026101 2.052202,7.8468833 2.0239814,7.521152 1.9942402,7.15721 2.0243677,7.1047687 2.0424941,7.0456309 2.0424941,6.9788902 2.0424941,6.7928944 1.9032712,6.6630139 1.7490854,6.585921 1.5948996,6.5088282 1.4023948,6.468058 1.1913845,6.468058 c -0.2110089,0 -0.40323818,0.04077 -0.55742259,0.117863 C 0.47977609,6.663014 0.3405532,6.7928944 0.3405532,6.9788902 c 0,0.1322706 0.0705152,0.2358407 0.16667103,0.312545 0.2319255,2.1387351 1.14874967,3.6948648 2.38610267,4.7217318 0.234974,0.195001 0.4813811,0.370536 0.7362977,0.528303 -0.3189982,0.131839 -0.5877787,0.281887 -0.7959223,0.451485 -0.2734236,0.222789 -0.450653,0.492595 -0.450653,0.794258 0,0.301664 0.1772294,0.571469 0.450653,0.794258 0.2734236,0.22279 0.6510837,0.41179 1.110408,0.57018 0.9186558,0.316777 2.1670584,0.508059 3.5453201,0.508059 1.3782634,0 2.6266656,-0.191282 3.5453196,-0.508059 0.459327,-0.15839 0.836986,-0.34739 1.110409,-0.57018 0.273422,-0.222789 0.450652,-0.492594 0.450652,-0.794258 0,-0.301663 -0.17723,-0.571469 -0.450652,-0.794258 -0.273423,-0.222789 -0.651082,-0.411791 -1.110409,-0.57018 -0.04056,-0.01398 -0.08519,-0.02644 -0.127015,-0.03993 0.802439,-0.19478 1.958834,-0.320925 2.971813,-0.651991 0.538397,-0.175961 1.038985,-0.411103 1.424062,-0.760979 0.385079,-0.349876 0.648904,-0.821098 0.696086,-1.4248948 a 0.17023041,0.17023041 0 0 0 2.83e-4,-0.013034 V 5.7869483 A 0.17023041,0.17023041 0 0 0 15.999696,5.775024 C 15.903361,4.4156997 14.928801,3.4041747 13.617198,3.404174 Z M 7.3790553,4.425561 c -0.023493,0 -0.046195,0.00149 -0.069609,0.00166 0.026192,-2.271e-4 0.0516,-0.00136 0.077928,-0.00139 -0.00281,-2.4e-6 -0.00551,-2.839e-4 -0.00832,-2.839e-4 z M 6.9364449,4.436932 c -0.052834,0.00246 -0.1046318,0.00638 -0.1569659,0.00971 0.05233,-0.00327 0.1039737,-0.00726 0.1569659,-0.00971 z M 6.4780271,4.469934 c -0.04224,0.00409 -0.084057,0.00866 -0.1259055,0.013312 0.041827,-0.00456 0.083576,-0.00929 0.1259055,-0.013312 z M 5.9868847,4.530668 c -0.013844,0.00214 -0.027812,0.00418 -0.041599,0.00638 0.013773,-0.00216 0.027766,-0.00428 0.041599,-0.00638 z M 13.70206,4.7356104 c 0.472692,0 0.759583,0.1756928 0.960376,0.4714521 0.200454,0.2952619 0.301283,0.7266024 0.31615,1.2105226 V 9.488402 c -0.02931,0.358421 -0.178621,0.635332 -0.416265,0.8708 -0.238138,0.235957 -0.567651,0.424685 -0.938744,0.574062 -0.717014,0.288623 -1.57503,0.427855 -2.202513,0.546052 0.0015,-0.0026 0.0032,-0.0049 0.0047,-0.0075 0.51676,-0.884771 0.717172,-1.8473453 0.790653,-2.6695279 0.07348,-0.8221829 0.02024,-1.5152253 0.02024,-1.8259063 0,-0.095573 -0.0098,-0.1893339 -0.02829,-0.2812073 0.0094,-0.4568746 0.156581,-0.9518562 0.412105,-1.3242258 0.264165,-0.3849621 0.626746,-0.635351 1.081566,-0.635351 z M 4.7131325,4.8382206 c -0.010805,0.00369 -0.021147,0.00763 -0.031892,0.01137 0.010678,-0.00378 0.021144,-0.00763 0.031892,-0.01137 z m -3.521748,1.9701151 c 0.165014,0 0.3132135,0.035693 0.405449,0.081811 0.092235,0.046118 0.1051069,0.086727 0.1051069,0.088744 0,0.00202 -0.012864,0.042072 -0.1051069,0.088189 -0.092235,0.046118 -0.240435,0.081811 -0.405449,0.081811 -0.1650154,0 -0.31293662,-0.035693 -0.40517067,-0.081811 -0.0922355,-0.046117 -0.10538377,-0.086172 -0.10538377,-0.088189 0,-0.00202 0.0131625,-0.042626 0.10538377,-0.088744 0.092234,-0.046118 0.24015527,-0.081811 0.40517067,-0.081811 z M 4.4255468,8.3092173 4.9361013,9.3303271 4.4255468,10.351714 3.9149909,9.3303271 Z m 6.1277682,0.03106 0.510554,1.0213868 -0.510554,1.0213879 -0.510833,-1.0213879 z M 7.4894304,9.02111 8.3405402,10.383052 7.4894304,11.744717 6.6383208,10.383052 Z m 2.3264775,4.036739 c 0.035999,0.07055 0.056297,0.143654 0.056297,0.218809 0,0.563747 -1.0673659,1.02111 -2.3827744,1.02111 -1.3154083,0 -2.3830515,-0.457363 -2.3830515,-1.02111 0,-0.01585 0.00114,-0.03147 0.00277,-0.04714 0.742027,0.246572 1.5131794,0.372633 2.2665753,0.3877 h 0.00166 0.00166 c 0.7568819,0 1.6323926,-0.124029 2.4368526,-0.559364 z" />
  <path
     style="color:#000000;fill:#000000;fill-opacity:0.6;stroke-width:0.109363;-inkscape-stroke:none"
     d="m 7.2358717,12.333216 c -0.8910383,0 -1.6849,0.122106 -2.3030277,0.325195 -0.3021738,0.09928 -0.5342413,0.25848 -0.7127983,0.411728 -0.1785585,0.153248 -0.2948045,0.339713 -0.2948045,0.547074 0,0.207362 0.116246,0.393826 0.2948045,0.547074 0.178557,0.153248 0.4241647,0.282444 0.721978,0.390614 0.5956293,0.21634 1.4028097,0.346309 2.293848,0.346309 0.891028,0 1.6982067,-0.129969 2.2938366,-0.346309 0.2978147,-0.10817 0.5432097,-0.237366 0.7217667,-0.390614 0.178557,-0.153248 0.294803,-0.339712 0.294803,-0.547074 0,-0.207361 -0.116246,-0.393826 -0.294803,-0.547074 C 10.072918,12.916891 9.8567036,12.777922 9.5567427,12.674017 8.956349,12.466043 8.1268997,12.333216 7.2358717,12.333216 Z"
     id="path2065-2-0" />
  <path
     style="color:#000000;fill:#000000;fill-opacity:0.6;stroke-width:0.149707;-inkscape-stroke:none"
     d="m 7.3940199,4.4255643 c -1.1176934,0 -2.1134914,0.1824135 -2.8888549,0.485806 C 4.1261277,5.0596844 3.8350291,5.2975127 3.6110508,5.5264487 3.3870725,5.755385 3.241257,6.0339429 3.241257,6.3437189 c 0,0.3097762 0.1458155,0.5883343 0.3697938,0.8172704 0.2239783,0.2289359 0.5320617,0.4219414 0.9056296,0.5835359 0.7471415,0.3231892 1.7596461,0.5173486 2.8773395,0.5173486 1.1176807,0 2.130183,-0.1941594 2.8773241,-0.5173486 0.373571,-0.1615945 0.681387,-0.3546 0.905364,-0.5835359 0.223977,-0.2289361 0.369793,-0.5074942 0.369793,-0.8172704 0,-0.309776 -0.145816,-0.5883339 -0.369793,-0.8172702 C 10.952731,5.2975127 10.681518,5.0899077 10.305256,4.9346846 9.5521385,4.6239941 8.5117006,4.4255643 7.3940199,4.4255643 Z"
     id="path2065-2" />
  <path
     id="path2043"
     style="color:#000000;fill:#000000;fill-rule:evenodd;stroke-width:0.340427px;-inkscape-stroke:none"
     d="m 7.489428,3.7445197 c -0.3617435,0 -0.6925355,0.1034241 -0.9414944,0.2812514 -0.2489594,0.1778274 -0.4203101,0.4406686 -0.4203101,0.7400304 0,0.2993614 0.1456115,0.6876284 0.3775665,1.0363847 0.2319556,0.3487559 0.5637598,0.6659418 0.984238,0.6659418 0.4204782,0 0.7519978,-0.3171859 0.9839526,-0.6659418 0.2319547,-0.3487563 0.3775666,-0.7370234 0.3775666,-1.0363847 0,-0.2993616 -0.1713514,-0.562203 -0.4203099,-0.7400304 C 8.1816787,3.8479438 7.8511715,3.7445197 7.489428,3.7445197 Z" />
  <path
     id="path17708"
     style="color:#000000;display:inline;overflow:visible;visibility:visible;opacity:0.4;fill:#000000;fill-opacity:1;fill-rule:evenodd;stroke:none;stroke-width:0.27234px;marker:none;enable-background:accumulate"
     d="M 1.872218,0.34028995 A 1.5319228,1.5319228 0 0 0 0.3402749,1.8722319 1.5319228,1.5319228 0 0 0 0.52331031,2.5899484 1.1914955,1.1914954 0 0 0 -1.9701684e-6,3.5744514 1.1914955,1.1914954 0 0 0 0.72547891,4.6690522 0.85106827,0.85106834 0 0 0 0.68083006,4.9361159 0.85106827,0.85106834 0 0 0 0.86802437,5.4660835 0.68085464,0.68085464 0 0 0 0.3402749,6.1275031 0.68085464,0.68085464 0 0 0 1.0211083,6.8083354 0.68085464,0.68085464 0 0 0 1.7019404,6.1275031 0.68085464,0.68085464 0 0 0 1.6076489,5.7819564 0.85106827,0.85106834 0 0 0 2.3830493,4.9361159 0.85106827,0.85106834 0 0 0 2.1182048,4.3196229 1.1914955,1.1914954 0 0 0 2.3830493,3.5744514 1.1914955,1.1914954 0 0 0 2.3555941,3.3229178 1.5319228,1.5319228 0 0 0 3.4041596,1.8722319 1.5319228,1.5319228 0 0 0 1.872218,0.34028995 Z" />
</svg>
