<?xml version="1.0" encoding="UTF-8" standalone="no"?>
<svg
   width="16"
   height="16"
   version="1.1"
   id="svg6342"
   xmlns="http://www.w3.org/2000/svg"
   xmlns:svg="http://www.w3.org/2000/svg">
  <defs
     id="defs6338">
    <style
       id="current-color-scheme"
       type="text/css">
   .ColorScheme-Text { color:#dfdfdf; } .ColorScheme-Highlight { color:#4285f4; } .ColorScheme-NeutralText { color:#ff9800; } .ColorScheme-PositiveText { color:#4caf50; } .ColorScheme-NegativeText { color:#f44336; }
  </style>
  </defs>
  <path
     d="m 8.1014223,13.303646 c -0.763637,-0.11553 -1.566223,-0.210934 -1.783522,-0.212007 -0.331335,-0.0016 -0.481991,-0.03193 -0.933601,-0.18773 -1.272134,-0.438865 -2.441312,-1.018464 -3.530821,-1.750341 -0.87072205,-0.584907 -1.90043505,-1.4151386 -1.85182005,-1.4930776 0.01308,-0.02098 0.520604,-0.284311 1.12782505,-0.585186 l 1.104038,-0.547046 0.201653,0.235846 c 0.460455,0.538528 1.469303,1.5150016 1.527848,1.4788186 0.03626,-0.02241 0.04762,-0.01733 0.02892,0.01293 -0.03139,0.05079 0.58418,0.568534 1.18899,1.00002 1.174344,0.837806 2.633686,1.595958 3.947644,2.050865 0.796321,0.275696 0.815983,0.275755 -1.027151,-0.0031 z m 2.9204937,0.07159 c -0.131661,-0.05279 -0.627187,-0.286479 -1.1011687,-0.519299 -3.167712,-1.555978 -5.595994,-3.8116526 -6.885262,-6.3958416 -0.428588,-0.859057 -0.420748,-0.801863 -0.145053,-1.058088 1.451596,-1.349075 3.896886,-2.419733 6.45579,-2.826636 0.6707957,-0.106666 2.7428587,-0.120325 3.3992647,-0.02241 0.536548,0.08004 1.089279,0.198283 1.138071,0.243466 0.03206,0.02969 -0.915649,0.203104 -1.879308,0.343891 -0.231512,0.03382 -0.347045,0.07881 -0.454831,0.177104 -0.07947,0.07247 -0.187576,0.167203 -0.240241,0.210517 -0.05267,0.04331 -0.365062,0.133843 -0.694216,0.201174 -1.2285377,0.251309 -2.3012907,0.678623 -3.4710787,1.382651 -0.524506,0.31567 -1.280853,0.843056 -1.577404,1.099892 l -0.18897,0.163664 0.08674,0.235083 c 0.04771,0.129296 0.222445,0.495882 0.388312,0.814635 0.855043,1.643168 1.874468,2.8368046 3.196109,3.7422976 0.422111,0.2892 0.442269,0.31134 0.550807,0.604975 0.109571,0.296427 0.13424,0.322958 0.8992137,0.967088 0.432604,0.364264 0.786552,0.679117 0.786552,0.699672 0,0.04557 0.02411,0.05142 -0.263323,-0.06384 z M 9.2227383,9.7983054 c -0.434015,-0.439505 -0.868426,-1.0159 -1.170951,-1.553664 -0.234801,-0.417378 -0.50095,-1.008387 -0.50095,-1.112404 0,-0.116164 0.871492,-0.883453 1.444684,-1.271942 1.2606587,-0.854434 2.6588257,-1.380915 4.3244887,-1.628389 0.703101,-0.104462 2.802785,-0.06529 2.674347,0.0499 -0.02261,0.02028 -0.360614,0.109878 -0.751117,0.199108 l -0.71,0.162237 -0.209484,0.292833 -0.209484,0.292833 -0.344531,0.03395 c -1.024772,0.100979 -2.414284,0.632337 -3.359694,1.284768 -0.5210877,0.359605 -1.1356397,0.898328 -1.1356397,0.995514 0,0.212136 0.155379,1.466147 0.244273,1.97144 0.05442,0.309326 0.09174,0.5824066 0.08293,0.6068446 -0.0088,0.02444 -0.179299,-0.120924 -0.378877,-0.3230266 z"
     style="display:inline;fill:#000000;stroke-width:0.196645;enable-background:new"
     id="path1" />
</svg>
