<?xml version="1.0" encoding="UTF-8" standalone="no"?>
<svg
   width="16"
   height="16"
   version="1"
   id="svg566"
   xmlns="http://www.w3.org/2000/svg"
   xmlns:svg="http://www.w3.org/2000/svg">
  <defs
     id="defs570" />
  <path
     d="M 11.488474,0.1830195 C 11.361668,0.0554645 11.234862,1.5e-6 11.124586,1.5e-6 c -0.148905,0 -0.270186,0.09428 -0.341877,0.216292 0.292242,0.892895 0.286717,1.192377 0.04411,1.436396 -0.06064,0.06101 -0.148861,0.09983 -0.264662,0.09983 -0.148861,0 -0.358407,-0.06655 -0.6285937,-0.244019 -0.6340743,-0.499138 -1.4280598,-0.793068 -2.2937355,-0.793068 -2.0621789,0 -3.7328548,1.680415 -3.7328548,3.754584 0,1.048177 0.4300626,1.996548 1.1192971,2.678698 0.02758,0.03328 0.049635,0.06657 0.082696,0.0998 1.8195722,1.824608 1.9960134,2.013168 0.5458983,3.5050325 -0.6175442,0.549061 -1.0090566,1.34768 -1.0090566,2.246105 0,1.658236 1.3398838,3.000347 2.9830149,3.000347 1.6486113,0 2.9884953,-1.342111 2.9884953,-3.000347 0,-0.898425 -0.391513,-1.697044 -1.0090568,-2.25163 C 8.1636267,9.2616825 8.3455928,9.0731225 10.15964,7.2485145 c 0.03311,-0.03324 0.05516,-0.06652 0.08274,-0.0998 0.68919,-0.676625 1.119288,-1.630521 1.119288,-2.678698 0,-0.388215 -0.06064,-0.754242 -0.165436,-1.098088 0.104795,-0.06101 0.198496,-0.138644 0.297767,-0.232929 0.777455,-0.78752 0.821565,-2.118542 -0.0055,-2.955978 z m -3.8541706,3.516121 c 0.4245727,0 0.7664499,0.343851 0.7664499,0.770874 0,0.427023 -0.3418772,0.770906 -0.7664499,0.770906 -0.4245282,0 -0.7664054,-0.343883 -0.7664054,-0.770906 0,-0.427023 0.3418772,-0.770874 0.7664054,-0.770874 z m 0,9.8717655 c -0.3197775,0 -0.5734339,-0.255128 -0.5734339,-0.582347 0,-0.316123 0.2591813,-0.576775 0.5734339,-0.576775 0.3198219,0 0.5734785,0.260652 0.5734785,0.576775 0,0.321694 -0.2591816,0.582347 -0.5734785,0.582347 z"
     id="path7"
     fill="#dc5c00"
     style="fill-rule:nonzero;stroke:none;stroke-width:0.445558;fill:#000000" />
</svg>
