<?xml version="1.0" encoding="UTF-8" standalone="no"?>
<svg
   height="16"
   viewBox="0 0 16 16"
   width="16"
   version="1.1"
   id="svg15572"
   xmlns="http://www.w3.org/2000/svg"
   xmlns:svg="http://www.w3.org/2000/svg">
  <defs
     id="defs15576" />
  <g
     id="g1"
     transform="matrix(0.30188564,0,0,0.29687375,-2.1130278,-2.1254635)">
    <path
       d="M 41.064814,8.2219877 C 39.994326,8.2557997 38.967263,8.4027608 38.024159,8.6946836 34.283085,9.8694608 30.776942,12.529848 28.645162,15.3115 l -1.156652,1.509846 c 0,0 -1.70416,-0.671796 -2.597682,-0.658994 -1.387376,0.02818 -2.199879,0.646162 -3.070733,1.577507 -0.60682,0.649057 -1.021468,1.398586 -1.282434,2.31343 -1.119115,3.923162 -2.84223,5.585284 -8.691751,7.24615 -2.375927,0.6746 -3.8370143,2.088791 -4.5144971,4.370121 -0.4380516,1.47511 -0.443511,3.861305 -0.010938,4.896573 0.4707262,1.126608 1.7414725,2.919189 1.9687691,2.778711 0.104626,-0.06466 0.262343,-0.613895 0.3527378,-1.219741 0.090396,-0.605848 0.3131558,-1.459122 0.4949272,-1.895418 l 0.330863,-0.792461 0.896883,0.877732 c 0.66662,0.650934 1.303837,0.987014 2.477368,1.312426 0.868458,0.240814 1.657321,0.437476 1.755486,0.437476 0.344211,0 0.173636,-0.475224 -0.514068,-1.424576 -0.686819,-0.948124 -0.884909,-1.580288 -0.492192,-1.580288 0.111678,0 0.6009,0.163602 1.085558,0.366108 0.649706,0.271464 1.219761,0.325581 2.16838,0.207615 0.707638,-0.088 1.370226,-0.209948 1.473842,-0.273422 0.10362,-0.06348 -0.239742,-0.481837 -0.762898,-0.929635 -0.523157,-0.447804 -0.884297,-0.881783 -0.803914,-0.962075 0.08037,-0.08028 0.8048,-0.145516 1.610563,-0.145516 1.710836,0 3.222811,-0.484612 3.940273,-2.138254 0.23458,-0.540674 0.521563,-0.98432 0.637115,-0.98432 0.11556,0 0.257917,0.504626 0.317191,1.121494 0.06138,0.638706 0.472036,1.859213 0.954306,2.835249 0.767028,1.552346 0.847479,1.888718 0.836727,3.56283 -0.0066,1.01661 -0.09149,3.366253 -0.188674,4.241287 -0.249062,2.242798 -1.369358,2.305136 -4.906428,2.11879 -1.734313,-0.09136 -3.896522,-0.569089 -3.896522,-0.569089 0,0 4.304684,4.292689 5.490678,5.004089 0.682014,0.409098 1.940521,0.927638 2.794559,1.151154 1.523138,0.398634 1.563446,0.395768 2.195724,-0.06303 0.824234,-0.598108 2.15933,-3.340374 4.492622,-9.233328 1.007424,-2.544346 1.928513,-5.659338 2.048067,-5.942066 0.12258,-0.289886 0.498194,-0.570343 0.861336,-0.645091 1.814644,-0.373522 4.319707,-0.784263 5.332083,-1.782341 2.220326,-1.926576 1.823564,-3.054638 1.684392,-4.681544 0,0 1.27142,-1.209354 3.650426,-0.355912 2.50158,0.878856 3.83968,2.030906 4.656686,5.231168 1.67721,5.430174 0.04234,12.701083 -3.675036,16.521187 -1.996678,2.051848 -5.541995,4.058624 -8.971571,5.07731 -1.681218,0.49937 -2.6129,0.61864 -5.386772,0.68958 -3.396932,0.08688 -5.082407,-0.10701 -7.989921,-0.921294 -4.75206,-1.117322 -9.00823,-3.482462 -13.833338,-3.700004 0.503997,0.609398 1.040946,1.188583 1.594156,1.752683 0.09798,0.09992 0.193113,0.202783 0.292581,0.301227 0.541417,0.535758 1.106134,1.046494 1.689861,1.536726 0.123354,0.10362 0.24672,0.207134 0.371878,0.308642 0.589084,0.477606 1.196323,0.935168 1.823846,1.36433 0.12488,0.08542 0.253752,0.165876 0.380082,0.249324 0.650257,0.429354 1.314563,0.838291 2.001582,1.213253 0.08831,0.04822 0.179078,0.09266 0.267971,0.139955 0.665662,0.354 1.348707,0.681035 2.045333,0.981539 0.09784,0.04222 0.194141,0.08769 0.292581,0.128833 0.739738,0.309042 1.496074,0.582678 2.266818,0.828608 0.12738,0.04068 0.254655,0.08067 0.382817,0.119565 0.749452,0.227258 1.513686,0.423622 2.288694,0.588552 0.257772,0.05488 0.51618,0.107952 0.77657,0.155712 0.19114,0.03504 0.381716,0.06985 0.574224,0.101027 0.269828,0.04372 0.542442,0.07893 0.814852,0.11493 0.235526,0.0311 0.470838,0.06467 0.70821,0.08991 0.341506,0.03636 0.685723,0.06399 1.030869,0.08805 0.14136,0.0098 0.281891,0.02466 0.423833,0.03244 0.518714,0.02831 1.04076,0.04356 1.566812,0.04356 15.512,0 27.999361,-12.487355 27.999361,-27.999355 0,-0.614144 -0.02649,-1.223157 -0.06563,-1.826831 -0.009,-0.1397 -0.0192,-0.279814 -0.03008,-0.418938 -0.04124,-0.516124 -0.09508,-1.026459 -0.164064,-1.533945 -0.0112,-0.08366 -0.02087,-0.167776 -0.03281,-0.251178 -0.08934,-0.615326 -0.196624,-1.225554 -0.325394,-1.82683 -0.0013,-0.0062 -0.0012,-0.01214 -0.0027,-0.01854 -0.14418,-0.679916 -0.32452,-1.347158 -0.516802,-2.007568 -0.13172,-0.447334 -0.278953,-0.888693 -0.432035,-1.326329 -0.08094,-0.233604 -0.167403,-0.463502 -0.254299,-0.694214 -0.627512,-1.652098 -1.397515,-3.232696 -2.307835,-4.719545 -0.0042,-0.007 -0.0067,-0.01532 -0.01094,-0.02224 -1.24878,-0.202926 -2.321507,-0.349424 -2.321507,-0.349425 0,0 0.709101,-0.408322 1.520327,-0.916659 -0.02146,-0.03112 -0.04678,-0.05889 -0.06836,-0.08991 -0.863854,-1.241568 -1.827478,-2.405966 -2.87659,-3.488681 -0.05034,-0.05194 -0.0942,-0.109733 -0.144923,-0.161273 -4.063746,-0.279007 -8.346868,-0.238829 -13.457814,3.015986 2.680588,-4.769657 6.51405,-5.5182042 10.78448,-5.3868804 C 49.03772,9.7773572 48.775264,9.5857683 48.513324,9.3944589 46.45738,8.7611909 44.247143,8.2987066 42.147637,8.2247682 c -0.36532,-0.01286 -0.725991,-0.014041 -1.082823,-0.00278 z m -16.000807,10.7783943 0.03555,3.168916 -2.799115,1.030663 c 1.180932,-1.117007 2.109352,-2.508003 2.763568,-4.199579 z m -12.06418,9.999836 v 1.399551 C 12.066493,29.900297 11.133133,29.921686 10.1998,30.167128 Z"
       style="display:inline;fill:#000000;fill-opacity:1"
       id="path3" />
    <path
       style="fill:#000000;fill-opacity:1"
       d="m 47.826564,28.070702 c 1.146958,0.83677 1.905498,2.044148 2.436326,4.123438 1.677212,5.430176 0.04238,12.700992 -3.675,16.521094 -1.996678,2.05185 -5.541906,4.05905 -8.971484,5.077734 -1.681216,0.49937 -2.612848,0.618122 -5.38672,0.689064 -3.396932,0.08688 -5.082328,-0.1072 -7.989842,-0.921484 -4.752061,-1.117324 -9.008095,-3.482068 -13.833203,-3.699612 0,0 5.478015,3.455282 9.398046,4.708596 11.285045,3.964688 21.054909,3.8642 27.477735,-1.987892 8.983636,-8.941072 5.775456,-22.949102 0.544142,-24.510938 z"
       id="path5" />
    <path
       style="opacity:0.74;fill:#000000;fill-opacity:1"
       d="m 41.064452,8.221875 c -1.070488,0.033812 -2.09752,0.181124 -3.040624,0.4730468 -3.741074,1.1747772 -7.247126,3.8350902 -9.378906,6.6167422 l -1.15664,1.509375 C 34.204036,11.565768 40.852142,8.3619126 49.292186,9.9773436 49.037308,9.7772442 48.77483,9.5862312 48.51289,9.3949218 46.456946,8.7616538 44.246772,8.2985478 42.147266,8.2246094 c -0.36532,-0.01286 -0.725982,-0.014 -1.082814,-0.00274 z m 7.803908,4.022266 c -3.158828,0.04616 -6.527338,0.678809 -10.360546,3.119922 4.368728,-1.357639 9.868534,-1.75771 14.883202,-1.421876 -0.413918,-0.48944 -0.833774,-0.972615 -1.279688,-1.432812 -0.05034,-0.05194 -0.0942,-0.109788 -0.14492,-0.161328 -1.015958,-0.06977 -2.045104,-0.119294 -3.098046,-0.103906 z m -7.576714,10.582031 c -0.09548,4.759632 -2.129752,8.525724 -6.724068,11.035938 -2.863108,2.571962 -7.129304,13.224826 -8.588672,13.165648 -1.698692,-0.06888 -8.922265,-3.516406 -8.922265,-3.516406 0,0 4.304631,4.292502 5.490625,5.003906 0.682012,0.409098 1.940494,0.927656 2.794532,1.151172 1.523136,0.398636 1.563422,0.39591 2.195702,-0.06288 0.824234,-0.598106 2.159286,-3.341028 4.492578,-9.233982 1.007422,-2.544346 1.928492,-5.658704 2.048046,-5.94143 0.12258,-0.289888 0.498188,-0.570564 0.861328,-0.645312 0.843086,-0.17354 2.142584,-0.359412 2.972508,-0.604298 -0.004,-0.0022 -0.004,-0.006 -0.0082,-0.0082 0.478366,-0.14056 0.93532,-0.298934 1.339844,-0.489454 0.19032,-0.08964 0.366116,-0.18746 0.530468,-0.292578 0.0104,-0.0068 0.02262,-0.0124 0.03282,-0.0192 0.0017,-0.0011 0.0038,-0.0015 0.0054,-0.0028 0.17064,-0.1119 0.324994,-0.23392 0.459374,-0.366406 2.220326,-1.926576 1.823552,-3.054344 1.684376,-4.68125 0,0 0.008,-0.0054 0.0082,-0.0054 z"
       id="path6" />
  </g>
</svg>
