<?xml version="1.0" encoding="UTF-8" standalone="no"?>
<svg
   width="16"
   height="16"
   version="1.1"
   id="svg10191"
   xmlns="http://www.w3.org/2000/svg"
   xmlns:svg="http://www.w3.org/2000/svg">
  <defs
     id="defs10195" />
  <path
     style="fill:#000000;stroke-width:0.875"
     d="M 8,1 A 7,7 0 0 0 2.483125,3.695 L 4.57,7.30875 A 3.5,3.5 0 0 1 8,4.5 h 6.055 A 7,7 0 0 0 8,1 Z M 1.94325,4.50875 A 7,7 0 0 0 1,8 7,7 0 0 0 7.033125,14.92125 l 2.086,-3.605 A 3.5,3.5 0 0 1 8,11.5 3.5,3.5 0 0 1 4.973375,9.75 H 4.968125 Z M 8,5.375 A 2.625,2.625 0 0 0 5.375,8 2.625,2.625 0 0 0 8,10.625 2.625,2.625 0 0 0 10.625,8 2.625,2.625 0 0 0 8,5.375 Z m 2.309125,0 A 3.5,3.5 0 0 1 11.5,8 3.5,3.5 0 0 1 11.028375,9.75 h 0.0035 L 8.00175,15 A 7,7 0 0 0 15,8 7,7 0 0 0 14.48375,5.375 Z"
     id="path10189" />
</svg>
