<?xml version="1.0" encoding="UTF-8" standalone="no"?>
<svg
   width="16"
   height="16"
   version="1.1"
   id="svg10191"
   xmlns="http://www.w3.org/2000/svg"
   xmlns:svg="http://www.w3.org/2000/svg">
  <defs
     id="defs10195" />
  <path
     style="fill:#000000;stroke-width:1"
     d="M 10.639,5 A 4,4 0 0 1 12,8 4,4 0 0 1 11.461,10 h 0.004 L 8.002,16 A 8,8 0 0 0 16,8 8,8 0 0 0 15.41,5 Z"
     id="path3" />
  <path
     style="fill:#000000;stroke-width:1;opacity:0.7"
     d="M 8,5 A 3,3 0 0 0 5,8 3,3 0 0 0 8,11 3,3 0 0 0 11,8 3,3 0 0 0 8,5 Z"
     id="path2" />
  <path
     style="fill:#000000;stroke-width:1;opacity:0.8"
     d="M 1.078,4.01 A 8,8 0 0 0 0,8 8,8 0 0 0 6.895,15.91 L 9.279,11.79 A 4,4 0 0 1 8,12 4,4 0 0 1 4.541,10 H 4.535 Z"
     id="path1" />
  <path
     style="fill:#000000;stroke-width:1;opacity:0.6"
     d="M 8,0 A 8,8 0 0 0 1.695,3.08 L 4.08,7.21 A 4,4 0 0 1 8,4 h 6.92 A 8,8 0 0 0 8,0 Z"
     id="path10189" />
</svg>
