<?xml version="1.0" encoding="UTF-8" standalone="no"?>
<svg
   height="16px"
   viewBox="0 0 16 16"
   width="16px"
   version="1.1"
   id="svg1"
   xmlns="http://www.w3.org/2000/svg"
   xmlns:svg="http://www.w3.org/2000/svg">
  <defs
     id="defs1" />
  <path
     d="m 2.9999057,0 c 0.550781,0 1,0.449219 1,1 v 14 h -2 V 12 H -9.4259474e-5 V 9 H 1.9999057 V 8 H -9.4259474e-5 V 5 H 1.9999057 V 2 H -9.4259474e-5 V 0 Z M 12.999906,2 c 1.332031,0 2.273438,0.8125 2.644531,1.550781 C 16.015531,4.292969 15.999906,5 15.999906,5 v 6 c 0,0 0.01563,0.707031 -0.355469,1.449219 C 15.27725,13.1875 14.331937,14 12.999906,14 H 4.9999057 v -2 h 8.0000003 c 0.667969,0 0.726562,-0.1875 0.855469,-0.449219 C 13.984281,11.292969 13.999906,11 13.999906,11 V 5 c 0,0 -0.01563,-0.292969 -0.144531,-0.550781 C 13.726468,4.1875 13.667875,4 12.999906,4 H 4.9999057 V 2 Z M 1.9999057,6 H 0.99990574 V 7 H 1.9999057 Z m 0,4 H 0.99990574 v 1 H 1.9999057 Z"
     fill="#2e3434"
     id="path1"
     style="fill:#000000" />
  <path
     id="path10-9"
     style="fill:#000000;stroke-width:0.258867"
     d="m 10.22811,4.5037651 c -0.09787,0.00294 -0.160481,0.061306 -0.3284352,0.2511727 -0.2410659,0.2725354 -0.6533101,1.0132996 -0.6533101,1.1736711 0,0.040838 -0.095886,0.1172921 -0.220979,0.1790517 A 1.6794146,1.6712486 0 0 0 8.3173396,6.5757174 L 8.2032955,6.4551773 C 8.0053844,6.2455355 7.777754,5.68705 7.7339676,5.3042016 L 7.6934235,4.9486209 7.3710762,5.2224962 C 6.9032589,5.6200068 6.8725513,5.675892 6.9590196,5.9674505 c 0.110684,0.3731856 0.389224,0.859112 0.6852429,1.1958626 0.1397341,0.1589658 0.2156015,0.2681813 0.2539223,0.3767655 a 1.6794146,1.6712486 0 0 0 -0.00658,0.1482852 1.6794146,1.6712486 0 0 0 0.09681,0.5603545 c -0.023996,0.037352 -0.08659,0.056938 -0.2179423,0.092302 -0.3754942,0.101094 -0.9673908,0.04046 -1.3628756,-0.1397061 l -0.3365391,-0.1538348 0.041566,0.302627 c 0.022988,0.1663467 0.072814,0.4087541 0.110488,0.5386629 0.06307,0.2175238 0.091672,0.24214 0.3593466,0.3122086 0.4231573,0.110768 1.3173083,0.058856 1.7374291,-0.100884 l 0.2280783,-0.086744 a 1.6794146,1.6712486 0 0 0 0.5701867,0.2844676 c 0.00104,0.03451 -0.00588,0.077658 -0.016716,0.137186 -0.100002,0.5492287 -0.5639259,1.2261425 -0.9944081,1.4510815 l -0.1723246,0.09029 0.1723246,0.09129 c 0.09471,0.0502 0.3306831,0.1372 0.5240652,0.193177 l 0.3512392,0.101372 0.2463203,-0.26782 c 0.4124865,-0.449507 0.7795149,-1.2667362 0.7795149,-1.7355486 0,-0.02114 5.2e-4,-0.04018 0.0021,-0.057498 A 1.6794146,1.6712486 0 0 0 10.592114,9.01537 c 0.171078,0.1290521 0.528658,0.5729405 0.646725,0.8221292 0.07263,0.1533184 0.145838,0.4426148 0.162186,0.6430758 0.01583,0.194195 0.04648,0.354346 0.06944,0.364157 l 5.2e-4,5.2e-4 h 5.2e-4 5.2e-4 5.21e-4 c 0.02317,0 0.215296,-0.157722 0.426753,-0.35054 l 0.384687,-0.350538 -0.0598,-0.2178874 C 12.112262,9.5157891 11.747363,8.911595 11.406149,8.5720443 L 11.133474,8.3006919 a 1.6794146,1.6712486 0 0 0 0.117082,-0.6123029 1.6794146,1.6712486 0 0 0 -0.0071,-0.151816 c 0.03069,-0.024472 0.07206,-0.037058 0.13279,-0.050946 0.382512,-0.08743 0.947309,-0.03878 1.327398,0.113988 l 0.367457,0.1477785 -0.03446,-0.2859769 C 13.017889,7.3043043 12.971157,7.069814 12.932181,6.9403993 12.872667,6.7427262 12.827265,6.6962 12.650381,6.6473638 12.228432,6.5308557 11.745537,6.5177517 11.302706,6.6110478 l -0.383672,0.080696 a 1.6794146,1.6712486 0 0 0 -0.746062,-0.5638868 1.6794146,1.6712486 0 0 0 -10e-4,-5.194e-4 l -0.06132,-0.03934 0.158135,-0.3101856 c 0.16574,-0.3254847 0.600064,-0.7904237 0.796236,-0.8523849 0.06339,-0.02002 0.115052,-0.05726 0.115052,-0.082712 0,-0.056154 -0.560454,-0.2747432 -0.836786,-0.3263304 -0.04577,-0.00854 -0.08243,-0.01358 -0.115052,-0.0126 z" />
</svg>
