<?xml version="1.0" encoding="UTF-8" standalone="no"?>
<svg
   height="16px"
   viewBox="0 0 16 16"
   width="16px"
   version="1.1"
   id="svg135"
   xml:space="preserve"
   xmlns="http://www.w3.org/2000/svg"
   xmlns:svg="http://www.w3.org/2000/svg"><defs
     id="defs139" /><g
     fill="#241f31"
     id="g9809"
     transform="rotate(180,8,7.5)"
     style="fill:#000000"><path
       id="path9803"
       style="fill:#000000"
       d="M 2.1875,-1 C 0.980469,-1 0,0.015625 0,1.21875 v 11.5625 C 0,13.984375 0.980469,15 2.1875,15 h 11.625 C 15.019531,15 16,13.984375 16,12.78125 V 1.21875 C 16,0.015625 15.019531,-1 13.8125,-1 Z M 1.6891581,0.54285714 H 14.324311 c 0.121094,0 0.1875,0.082031 0.1875,0.21875 V 13.124107 c 0,0.136719 -0.06641,0.21875 -0.1875,0.21875 H 1.6891581 c -0.121094,0 -0.1875,0.184636 -0.1875,-0.21875 V 0.76160714 c 0,-0.136719 0.066406,-0.21875 0.1875,-0.21875 z M 6.6757812,15 V 5.2285156 C 6.6757812,4.882851 6.3378515,4.599609 5.992188,4.599609 H 5.253906 V -1 H 4.455078 v 5.599609 h -0.875 c -0.345664,0 -0.673828,0.283242 -0.673828,0.6289066 V 15 Z M 13.09375,15 V 5.2285156 c 0,-0.3456646 -0.33793,-0.6289066 -0.683594,-0.6289066 H 10.880859 V -1 h -0.800781 v 5.599609 h -0.082031 c -0.345664,0 -0.6738282,0.283242 -0.6738281,0.6289066 V 15 Z" /></g></svg>
