<?xml version="1.0" encoding="UTF-8" standalone="no"?>
<svg
   height="16"
   viewBox="0 0 16 16"
   width="16"
   version="1.1"
   id="svg791"
   xmlns:xlink="http://www.w3.org/1999/xlink"
   xmlns="http://www.w3.org/2000/svg"
   xmlns:svg="http://www.w3.org/2000/svg">
  <defs
     id="defs795">
    <linearGradient
       id="linearGradient1923"
       gradientTransform="matrix(0.344605,0,0,0.344705,-1.120951,-2.652559)"
       gradientUnits="userSpaceOnUse"
       spreadMethod="reflect"
       x1="231.13"
       x2="144.06"
       y1="342.54001"
       y2="34.762001">
      <stop
         offset="0.2054"
         stop-color="#90a0ae"
         id="stop1917"
         style="stop-color:#4c5b68;stop-opacity:1;" />
      <stop
         offset="0.52424"
         stop-color="#bbc6d1"
         id="stop1919" />
      <stop
         offset="0.95265"
         stop-color="#eeeeee"
         id="stop1921" />
    </linearGradient>
  </defs>
  <linearGradient
     id="a"
     gradientTransform="matrix(1.022746,0,0,1.023349,-1.448946,3.563402)"
     gradientUnits="userSpaceOnUse"
     x1="9.2404003"
     x2="118.75"
     y1="60.522999"
     y2="60.522999">
    <stop
       offset="0.6926"
       stop-color="#5b6d7d"
       id="stop773" />
    <stop
       offset="0.77063"
       stop-color="#b7c1ca"
       id="stop775" />
    <stop
       offset="0.83285"
       stop-color="#5b6d7d"
       id="stop777" />
  </linearGradient>
  <linearGradient
     id="b"
     gradientTransform="matrix(0.344605,0,0,0.344705,-1.120951,-2.652559)"
     gradientUnits="userSpaceOnUse"
     spreadMethod="reflect"
     x1="231.13"
     x2="144.06"
     y1="342.54001"
     y2="34.762001"
     xlink:href="#linearGradient1923">
    <stop
       offset="0.2054"
       stop-color="#90a0ae"
       id="stop780" />
    <stop
       offset="0.52424"
       stop-color="#bbc6d1"
       id="stop782" />
    <stop
       offset="0.95265"
       stop-color="#eeeeee"
       id="stop784" />
  </linearGradient>
  <path
     id="path789"
     style="stroke-width:0.142855"
     d="M 3.9511719 0 C 3.5003357 0.018325006 3.0916238 0.32678461 2.96875 0.78515625 C 2.4389413 2.7618052 1.9943279 4.4194991 1.5332031 6.140625 L 5.2871094 7.1464844 C 5.4795672 6.4282038 5.6656365 5.7369435 5.8867188 4.9121094 C 5.9423186 4.7047196 6.1374654 4.571789 6.34375 4.5839844 C 6.37322 4.5856844 6.4020708 4.5897474 6.4316406 4.5976562 C 7.1094753 4.7793095 7.6588955 4.9275431 8.2207031 5.078125 C 9.1024854 5.3144701 9.965262 5.5449654 11.029297 5.8300781 L 11.035156 5.8320312 L 15.240234 6.9589844 C 15.478455 6.0697478 15.732117 5.1275834 15.962891 4.265625 C 16.114676 3.7003596 15.77707 3.1166231 15.212891 2.96875 C 11.066651 1.8577491 8.4132609 1.1461569 4.2675781 0.03515625 C 4.1620043 0.0069068764 4.0552117 -0.004228779 3.9511719 0 z M 10.710938 8.7441406 C 10.509843 9.4945747 10.313605 10.226901 10.113281 10.974609 C 10.049981 11.211626 9.8049188 11.352361 9.5683594 11.289062 C 8.4876487 10.999482 7.6125482 10.765357 6.7148438 10.525391 L 6.7148438 10.529297 L 0.78320312 8.9394531 C 0.54036903 9.8459762 0.29453331 10.765999 0.03515625 11.734375 C -0.11607275 12.299639 0.2229304 12.882819 0.78710938 13.03125 C 4.9333495 14.141693 7.5861811 14.853842 11.732422 15.964844 C 12.295484 16.115508 12.878626 15.778993 13.029297 15.214844 C 13.519369 13.385648 14.000478 11.592705 14.492188 9.7578125 L 10.710938 8.7441406 z " />
</svg>
