<?xml version="1.0" encoding="UTF-8" standalone="no"?>
<svg
   height="16px"
   viewBox="0 0 16 16"
   width="16px"
   version="1.1"
   id="svg204"
   xml:space="preserve"
   xmlns="http://www.w3.org/2000/svg"
   xmlns:svg="http://www.w3.org/2000/svg"><defs
     id="defs208" /><path
     id="rect45"
     style="display:inline;fill:#000000;fill-opacity:0.980392;stroke-width:0.0389085;marker:none;marker-start:none;marker-mid:none;marker-end:none;enable-background:new"
     d="m 1.2755277,4.237216 c -0.69543704,0 -1.40471304,0.5672643 -1.25545004,1.2349421 L 1.1502497,10.527842 c 0.149263,0.667678 0.560013,1.234942 1.255451,1.234942 H 13.62272 c 0.695437,0 1.109661,-0.566497 1.25545,-1.234942 L 15.980702,5.4721581 C 16.126491,4.8037135 15.420689,4.237216 14.725252,4.237216 Z m 2.160926,1.7899974 a 0.84826976,0.84826976 0 0 1 0.847964,0.8484098 0.84826976,0.84826976 0 0 1 -0.847964,0.8479639 0.84826976,0.84826976 0 0 1 -0.84841,-0.8479639 0.84826976,0.84826976 0 0 1 0.84841,-0.8484098 z m 2.304928,0 a 0.84826976,0.84826976 0 0 1 0.84841,0.8484098 0.84826976,0.84826976 0 0 1 -0.84841,0.8479639 0.84826976,0.84826976 0 0 1 -0.84841,-0.8479639 0.84826976,0.84826976 0 0 1 0.84841,-0.8484098 z m 2.266587,0 a 0.84826976,0.84826976 0 0 1 0.84841,0.8484098 0.84826976,0.84826976 0 0 1 -0.84841,0.8479639 0.84826976,0.84826976 0 0 1 -0.84841,-0.8479639 0.84826976,0.84826976 0 0 1 0.84841,-0.8484098 z m 2.2924453,0 A 0.84826976,0.84826976 0 0 1 11.148378,6.8756232 0.84826976,0.84826976 0 0 1 10.300414,7.7235871 0.84826976,0.84826976 0 0 1 9.4520037,6.8756232 0.84826976,0.84826976 0 0 1 10.300414,6.0272134 Z m 2.26302,0 a 0.84826976,0.84826976 0 0 1 0.84841,0.8484098 0.84826976,0.84826976 0 0 1 -0.84841,0.8479639 A 0.84826976,0.84826976 0 0 1 11.71547,6.8756232 0.84826976,0.84826976 0 0 1 12.563434,6.0272134 Z M 4.6049677,8.2759672 a 0.84826976,0.84826976 0 0 1 0.848409,0.8484097 0.84826976,0.84826976 0 0 1 -0.848409,0.8484098 0.84826976,0.84826976 0 0 1 -0.847964,-0.8484098 0.84826976,0.84826976 0 0 1 0.847964,-0.8484097 z m 2.254549,0 a 0.84826976,0.84826976 0 0 1 0.847964,0.8484097 0.84826976,0.84826976 0 0 1 -0.847964,0.8484098 0.84826976,0.84826976 0 0 1 -0.848409,-0.8484098 0.84826976,0.84826976 0 0 1 0.848409,-0.8484097 z m 2.298687,0 a 0.84826976,0.84826976 0 0 1 0.8484103,0.8484097 0.84826976,0.84826976 0 0 1 -0.8484103,0.8484098 0.84826976,0.84826976 0 0 1 -0.84841,-0.8484098 0.84826976,0.84826976 0 0 1 0.84841,-0.8484097 z m 2.2567793,0 a 0.84826976,0.84826976 0 0 1 0.847963,0.8484097 0.84826976,0.84826976 0 0 1 -0.847963,0.8484098 0.84826976,0.84826976 0 0 1 -0.84841,-0.8484098 0.84826976,0.84826976 0 0 1 0.84841,-0.8484097 z" /></svg>
