<?xml version="1.0" encoding="UTF-8" standalone="no"?>
<svg
   width="16"
   height="16"
   version="1"
   id="svg566"
   xmlns="http://www.w3.org/2000/svg"
   xmlns:svg="http://www.w3.org/2000/svg">
  <defs
     id="defs570" />
  <path
     id="path2"
     style="display:inline;fill:#000000;stroke-width:0.0934298;enable-background:new"
     d="m 7.9420486,0.00111004 a 0.51433126,0.51433126 0 0 0 -0.479295,0.5129299 V 6.7808448 L 1.6402076,0.94101414 c -0.196203,-0.1962027 -0.513864,-0.1962027 -0.71006703,0 a 0.50452104,0.50452104 0 0 0 0,0.71286936 L 6.7681026,7.5091308 H 0.53773557 a 0.51433117,0.51433117 0 1 0 0,1.028662 H 6.7461476 L 0.93107457,14.370617 a 0.50452104,0.50452104 0 0 0 0,0.71287 0.50171816,0.50171816 0 0 0 0.71006703,0 l 5.821612,-5.8388972 v 6.2406452 a 0.51433126,0.51433126 0 1 0 1.028662,0 V 9.2371158 l 5.8290874,5.8463712 9.33e-4,9.32e-4 a 0.50171816,0.50171816 0 0 0 0.709132,-9.32e-4 0.50452104,0.50452104 0 0 0 0,-0.71287 L 9.2145626,8.5377928 H 15.46315 a 0.51386403,0.51386403 0 0 0 0.513864,-0.513864 l -9.33e-4,-9.33e-4 a 0.51386403,0.51386403 0 0 0 -0.5148,-0.513865 H 9.1935416 L 15.031504,1.6538835 a 0.50452104,0.50452104 0 0 0 0,-0.71286936 h -0.0019 c -0.196202,-0.1962027 -0.513864,-0.1962027 -0.710066,0 L 8.4913816,6.7869178 v -6.27194366 -9.328e-4 a 0.51433126,0.51433126 0 0 0 -0.549367,-0.5129299 z" />
</svg>
