<?xml version="1.0" encoding="UTF-8" standalone="no"?>
<svg
   height="16"
   viewBox="0 0 16 16"
   width="16"
   version="1.1"
   id="svg15572"
   xmlns="http://www.w3.org/2000/svg"
   xmlns:svg="http://www.w3.org/2000/svg">
  <defs
     id="defs15576" />
  <path
     d="M 3.2961181,0.01296554 12.308794,5.3557085 c 0.240903,0.1687112 0.389289,0.4803886 0.389283,0.8176701 v 2.0989569 c 0,0.168606 -0.0371,0.330872 -0.104266,0.4721367 0,0 -7.1548373,-4.0422379 -8.9116782,-5.2720119 C 3.4432334,3.3052214 3.2960821,2.9961671 3.2961181,2.6617249 Z"
     style="clip-rule:evenodd;display:inline;fill:#000000;fill-opacity:0.69999999;fill-rule:evenodd;stroke-width:0.0179943;stroke-linejoin:round;stroke-miterlimit:2;enable-background:new"
     id="path1" />
  <path
     d="m 12.317883,12.540703 c 0.238892,0.167152 0.38605,0.476147 0.386015,0.810538 V 16 L 3.6855648,10.644311 C 3.4445981,10.47565 3.2961459,10.163965 3.2961181,9.8266415 v -2.098957 c 0,-0.1688042 0.037098,-0.3310702 0.1042664,-0.4721365 0,0 7.1606585,4.055381 8.9174985,5.285155"
     style="clip-rule:evenodd;display:inline;fill:#000000;fill-opacity:0.80000001;fill-rule:evenodd;stroke-width:0.0179943;stroke-linejoin:round;stroke-miterlimit:2;enable-background:new"
     id="path2" />
  <path
     d="m 4.1632948,9.7647466 c -0.087647,0.061134 -0.1603755,0.1493183 -0.2107883,0.2555834 -0.157658,0.330872 -0.032631,0.721985 0.2375302,0.916744 v 0 L 3.6855321,10.644232 C 3.4445325,10.475614 3.2960724,10.163899 3.2961017,9.8265622 v -2.098957 c 0,-0.3374101 0.1484408,-0.6490638 0.3894304,-0.8176698 l 8.1454829,-5.7007071 0.0039,-0.00277 C 11.92083,1.1454794 11.992094,1.0583597 12.041671,0.95372369 12.199379,0.62269308 12.107696,0.19489738 11.837551,0 h 1.69e-4 l 0.470997,0.32972277 c 0.241011,0.168636 0.389476,0.48037246 0.389447,0.81772943 v 2.0989173 c 0,0.3374102 -0.148392,0.649064 -0.389447,0.81767 l -0.484234,0.3389951 0.0065,-0.00515 z"
     style="clip-rule:evenodd;display:inline;fill:#000000;fill-opacity:1;fill-rule:evenodd;stroke-width:0.0179943;stroke-linejoin:round;stroke-miterlimit:2;enable-background:new"
     id="path3" />
  <path
     d="m 4.1632948,14.790831 c -0.087604,0.06111 -0.1603234,0.14922 -0.2107883,0.255386 C 3.7948485,15.377287 3.8865474,15.805043 4.1567087,16 h -9.82e-5 L 3.6855321,15.670317 C 3.4445622,15.501663 3.2961127,15.18997 3.2961017,14.852647 V 12.75369 c 0,-0.33741 0.1484408,-0.649064 0.3894304,-0.81767 l 8.1454829,-5.7007069 0.0039,-0.00277 c 0.08319,-0.059244 0.155257,-0.1444383 0.206736,-0.2528137 0.157708,-0.3310702 0.03198,-0.728602 -0.23817,-0.9235589 v 0 l 0.50521,0.2996572 c 0.241026,0.16859 0.389499,0.4803211 0.389447,0.8176698 v 2.098957 c 0,0.3372121 -0.148392,0.649064 -0.389447,0.81767 l -0.484234,0.338797 0.0065,-0.00495 z"
     style="clip-rule:evenodd;display:inline;fill:#000000;fill-opacity:0.89999998;fill-rule:evenodd;stroke-width:0.0179943;stroke-linejoin:round;stroke-miterlimit:2;enable-background:new"
     id="path4" />
</svg>
