<?xml version="1.0" encoding="UTF-8" standalone="no"?>
<svg
   width="16"
   height="16"
   version="1"
   id="svg12"
   sodipodi:docname="hp_logo-symbolic.svg"
   inkscape:version="1.2.1 (9c6d41e410, 2022-07-14, custom)"
   xmlns:inkscape="http://www.inkscape.org/namespaces/inkscape"
   xmlns:sodipodi="http://sodipodi.sourceforge.net/DTD/sodipodi-0.dtd"
   xmlns="http://www.w3.org/2000/svg"
   xmlns:svg="http://www.w3.org/2000/svg">
  <defs
     id="defs16" />
  <sodipodi:namedview
     id="namedview14"
     pagecolor="#505050"
     bordercolor="#ffffff"
     borderopacity="1"
     inkscape:showpageshadow="0"
     inkscape:pageopacity="0"
     inkscape:pagecheckerboard="1"
     inkscape:deskcolor="#505050"
     showgrid="false"
     inkscape:zoom="2"
     inkscape:cx="-192.25"
     inkscape:cy="44.75"
     inkscape:window-width="2560"
     inkscape:window-height="1408"
     inkscape:window-x="0"
     inkscape:window-y="0"
     inkscape:window-maximized="1"
     inkscape:current-layer="svg12" />
  <path
     id="rect4-56"
     style="fill:#000000;fill-opacity:1;stroke-width:0.285714"
     d="m 7.99996,-5e-7 c -0.16329,0 -0.32501,0.0064 -0.48582,0.01591 -0.4803,1.370225 -0.97132,2.772473 -1.44474,4.113137 0.6492,0.02416 1.65299,0.121824 2.10504,0.707755 0.21299,0.276044 0.19519,0.706979 0.0703,1.043113 -0.58738,1.64779 -1.19107,3.292474 -1.77517,4.9401045 -0.51622,0.0073 -1.03095,-0.0044 -1.54717,0 -0.0722,-0.0015 -0.14073,0.01037 -0.21007,-0.01649 0.6578,-1.8075925 1.30195,-3.6317985 1.9485,-5.4453115 -0.30783,-0.0044 -0.61258,0.0058 -0.92188,0 -0.0468,0.0991 -0.0862,0.209914 -0.12181,0.313368 -0.59575,1.67179 -1.19798,3.336228 -1.7908,5.0092585 -0.0283,0.04247 -0.02,0.139178 -0.0868,0.139178 -0.49337,0.0014 -0.98727,-0.0029 -1.47916,0 -0.0893,-0.0015 -0.1746,0.0089 -0.261,-0.01649 C 3.18792,7.5106715 4.38397,3.7780655 5.5749,0.3738445 5.88138,0.2770245 6.19622,0.1982705 6.51761,0.1383115 2.79905,0.8299475 -4e-5,4.0750345 -4e-5,8.0000015 c 0,3.6603405 2.43477,6.7290725 5.77893,7.6875005 1.29391,-3.598374 2.78818,-7.6606445 4.04717,-11.1924195 0.0126,-0.0267 0.021,-0.09405 0.0336,-0.121238 v -2.89e-4 c 0.8281,0.0087 1.67774,0.01565 2.50579,0.01707 0.27083,0.0058 0.53787,-0.03553 0.8018,0.04687 0.3035,0.0824 0.58516,0.317178 0.67737,0.626447 0.0697,0.241765 0.0167,0.497065 -0.0697,0.729746 -0.52745,1.540028 -1.07351,3.064314 -1.61805,4.5972215 -0.13614,0.399659 -0.75509,0.646144 -1.16493,0.660301 -0.64655,0.01271 -1.28776,0.0058 -1.93287,0.01852 C 8.51884,12.575041 7.72399,14.39109 7.14095,15.95399 7.42317,15.98386 7.70965,16 8.00004,16 c 4.432,0 8,-3.568004 8,-7.9999995 0,-4.431996 -3.568,-8 -8,-8 z m -0.48582,0.01591 c -0.16188,0.0096 -0.32211,0.02467 -0.48119,0.04369 0.15894,-0.01905 0.31939,-0.03408 0.48119,-0.04369 z m -0.5246,0.04919 c -0.15333,0.01918 -0.30527,0.04265 -0.45573,0.07031 0.15048,-0.02775 0.30235,-0.05108 0.45573,-0.07031 z m 4.42882,5.274306 c -0.0262,-0.0029 -0.0525,-0.0046 -0.0781,0.0032 v -0.0014 c -0.0171,0.0044 -0.0397,0.02028 -0.0524,0.03443 -0.56419,1.579749 -1.12156,3.15581 -1.68751,4.7326395 0.31076,0.0014 0.6303,0.02142 0.94069,0 0.54746,-1.5913495 1.1132,-3.1789975 1.66898,-4.7656255 -0.23815,-0.0058 -0.47394,0.0044 -0.71354,0 -0.0256,0.0036 -0.0519,-3.54e-4 -0.0781,-0.0032 z M 5.9065,15.723376 c 0.0452,0.01215 0.0902,0.0248 0.13571,0.03617 -0.0455,-0.01142 -0.0905,-0.024 -0.13571,-0.03617 z m 0.4213,0.101851 c 0.0236,0.005 0.0469,0.01056 0.0706,0.01534 -0.0236,-0.0048 -0.047,-0.01032 -0.0706,-0.01534 z" />
</svg>
