<?xml version="1.0" encoding="UTF-8" standalone="no"?>
<svg
   width="16"
   height="16"
   version="1"
   id="svg566"
   xml:space="preserve"
   xmlns="http://www.w3.org/2000/svg"
   xmlns:svg="http://www.w3.org/2000/svg"><defs
     id="defs570" /><path
     id="path6"
     style="opacity:0.3;fill:#000000"
     d="M 7.453125,2.9492188 A 3.0139392,3.0139392 0 0 0 5.246094,1.9863281 3.0139392,3.0139392 0 0 0 2.882812,3.1386719 L 5.113281,7 Z M 2.34375,4.2011719 A 3.0139392,3.0139392 0 0 0 2.232422,5 3.0139392,3.0139392 0 0 0 4.486328,7.9121094 Z M 8.2597656,5 A 3.0139392,3.0139392 0 0 0 8.0546875,3.90625 L 7.421875,5 Z" /><path
     id="path5"
     style="fill:#000000"
     d="M 8,0 C 5.902344,0 3.890625,0.82421875 2.394531,2.2929688 L 2.882812,3.1386719 A 3.0139392,3.0139392 0 0 1 5.246094,1.9863281 3.0139392,3.0139392 0 0 1 7.453125,2.9492188 L 9.1054688,0.0859375 C 8.7382808,0.03125 8.371094,0.00390625 8,0 Z M 2.34375,4.2011719 1.699219,3.0859375 C 0.601562,4.4882805 0.003906,6.21875 0,8 0,8.675781 0.08984,9.347656 0.261719,10 H 5.691406 L 4.486328,7.9121094 A 3.0139392,3.0139392 0 0 1 2.232422,5 3.0139392,3.0139392 0 0 1 2.34375,4.2011719 Z M 10.886719,9 6.894531,15.914062 C 7.261719,15.96875 7.628906,15.996094 8,16 c 2.097656,0 4.109375,-0.824219 5.605469,-2.296875 z M 8.2597656,5 H 15.410156 C 14.476562,2.699219 12.53125,0.96093825 10.136719,0.30078125 L 8.0546875,3.90625 A 3.0139392,3.0139392 0 0 1 8.2597656,5 Z m 2.0488284,1 3.992187,6.914062 C 15.398438,11.511719 15.996094,9.78125 16,8 16,7.324219 15.910156,6.652344 15.738281,6 Z m -9.71875,5 c 0.933594,2.300781 2.878906,4.039062 5.273437,4.699219 L 8.578125,11 Z" /><path
     id="path2"
     style="opacity:0.5;fill:#000000;stroke-width:3.35203"
     d="M 8.2599702,5 A 3.0139392,3.0139392 0 0 1 5.24603,8.01394 3.0139392,3.0139392 0 0 1 2.23209,5 3.0139392,3.0139392 0 0 1 5.24603,1.98606 3.0139392,3.0139392 0 0 1 8.2599702,5 Z" /></svg>
