<?xml version="1.0" encoding="UTF-8" standalone="no"?>
<svg
   width="16"
   height="16"
   version="1"
   id="svg566"
   xmlns="http://www.w3.org/2000/svg"
   xmlns:svg="http://www.w3.org/2000/svg">
  <defs
     id="defs570">
    <clipPath
       id="clip0_327_415">
      <rect
         width="16"
         height="16"
         id="rect1"
         x="0"
         y="0" />
    </clipPath>
  </defs>
  <g
     clip-path="url(#clip0_327_415)"
     id="g2"
     style="fill:#000000">
    <path
       fill="#6e6e6e"
       d="M 9.104,0 C 12.9998,0.538208 16,3.63381 16,7.68078 c 0,4.42182 -3.5817,8.00652 -8,8.00652 -1.21589,0 -2.36818,-0.272 -3.40015,-0.7577 L 0.673584,15.9824 C 0.301824,16.0821 -0.0383037,15.7417 0.0612793,15.3696 L 1.05493,11.6574 C 0.383733,10.4858 0,9.12813 0,7.68078 0,5.53014 0.847622,3.57788 2.22632,2.13943 1.32486,4.52143 1.98491,8.33296 4.33325,9.84929 6.91653,11.5173 8.99991,10.7666 10.3333,9.34888 12.0832,7.48801 12.0833,2.92693 8.25,2.92693 c -3.33332,1e-5 -3.33332,4.08655 -1.5,4.08656 0.92316,0 1.33341,-0.83401 0.66675,-2.00162 L 7.54639,5.06392 C 10.2004,6.17741 8.63401,8.71457 6.58325,8.68159 4.83291,8.65337 3.16669,6.42971 4.5,3.42734 4.96671,2.37638 6.96781,0.0576461 9.104,0 Z"
       id="path1"
       style="fill:#000000" />
  </g>
</svg>
