<?xml version="1.0" encoding="UTF-8" standalone="no"?>
<svg
   width="16"
   height="16"
   version="1"
   id="svg566"
   xmlns="http://www.w3.org/2000/svg"
   xmlns:svg="http://www.w3.org/2000/svg">
  <defs
     id="defs570" />
  <path
     id="outer-shape"
     style="fill:#000000;stroke-width:0.0343818"
     d="m 8.000933,0 c -2.1179168,0 -8.932384,12.356809 -7.8940544,14.443781 1.0383296,2.086975 14.7600944,2.062907 15.7881104,0 C 16.923003,12.380876 10.118851,0 8.000933,0 Z m 5.174457,12.635301 c -0.673883,1.351203 -9.6647162,1.368394 -10.3454746,0 -0.68076,-1.368395 3.7854336,-9.4653016 5.1710176,-9.4653016 1.3855856,0 5.848339,8.1106596 5.174457,9.4653016 z M 8.000933,6.1302698 c -0.7013872,0 -2.9637088,4.1017452 -2.6198896,4.7928192 0.3438176,0.691073 4.8994016,0.684197 5.2397816,0 C 10.961204,10.238892 8.7057602,6.1302698 8.000933,6.1302698 Z" />
</svg>
