<?xml version="1.0" encoding="UTF-8" standalone="no"?>
<svg
   height="16px"
   viewBox="0 0 16 16"
   width="16px"
   version="1.1"
   id="svg135"
   xmlns="http://www.w3.org/2000/svg"
   xmlns:svg="http://www.w3.org/2000/svg">
  <defs
     id="defs139" />
  <path
     id="path30"
     style="display:inline;fill:#000000;fill-opacity:1;fill-rule:nonzero;stroke:none;stroke-width:0.00426616;enable-background:new"
     d="M 13.979418,4.67e-5 H 8.0434457 c -0.0561,0 -0.101449,0.04539 -0.101449,0.101406 v 1.884959 c 0,0.06344 0.05136,0.114844 0.114844,0.114844 h 0.813856 c 0.329176,0 0.596108,0.253197 0.624693,0.57495 v 1.292347 0.719999 6.8577593 0.04859 h -2.1e-4 c 0.0021,0.07184 -8.4e-4,0.14249 -0.0078,0.212071 -8.4e-4,0.01015 -0.0021,0.02018 -0.0034,0.03025 -0.0047,0.04066 -0.0099,0.0811 -0.01779,0.120689 -0.0043,0.02257 -0.01042,0.04454 -0.01584,0.06677 -0.0073,0.02956 -0.01319,0.0596 -0.02227,0.08852 -0.05367,0.171798 -0.138522,0.331139 -0.255883,0.47141 -0.0043,0.005 -0.0096,0.0096 -0.0139,0.01455 -0.03579,0.04147 -0.07338,0.08187 -0.114974,0.119709 -0.04198,0.03818 -0.08643,0.07368 -0.133146,0.106654 -0.332077,0.235235 -0.779042,0.338732 -1.27844,0.290951 -0.636765,-0.05985 -1.268497,-0.34863 -1.779114,-0.813214 -0.51053,-0.464542 -0.827976,-1.039321 -0.893674,-1.618622 -0.05909,-0.518252 0.0962,-0.9743043 0.436941,-1.2843263 8.4e-4,-6.72e-4 0.0017,-0.0013 0.0024,-0.002 0.01319,-0.01182 0.02769,-0.02218 0.04125,-0.03358 0.243855,-0.204306 0.561725,-0.32811 0.924476,-0.362239 0.0041,-3.78e-4 0.008,-0.001 0.01191,-0.0014 0.03818,-0.0034 0.07709,-0.0049 0.11634,-0.0064 0.02052,-6.93e-4 0.04078,-0.0021 0.0616,-0.0023 0.0069,-8.5e-5 0.01348,-8.19e-4 0.02039,-8.19e-4 0.01237,0 0.02521,0.0016 0.03759,0.0018 0.05717,9.03e-4 0.114758,0.0032 0.173503,0.0083 0.0074,5.88e-4 0.01451,3.36e-4 0.02214,10e-4 0.0054,5.46e-4 0.0108,0.0017 0.01621,0.0023 0.332761,0.03336 0.662235,0.13272 0.974903,0.283272 0.0065,2.95e-4 0.01407,0.0023 0.02351,0.0075 0.09531,0.05264 0.113566,-0.0038 0.11638,-0.04117 v -1.630695 -1.206554 c 0,-0.08127 -0.05653,-0.153155 -0.13579,-0.170604 -1.684109,-0.370643 -3.336475,0.01514 -4.502416,1.076522 -1.018545,0.926524 -1.511243,2.263537 -1.351605,3.6679983 0.142449,1.250964 0.784591,2.452783 1.80834,3.384469 0.997811,0.907795 2.268272,1.475492 3.578793,1.598959 0.180586,0.01672 0.362026,0.02533 0.539069,0.02533 1.251607,0 2.4129823,-0.429167 3.2701813,-1.208939 0.812019,-0.739325 1.298404,-1.754542 1.369777,-2.859007 l 0.0066,-7.2435483 h 7.35e-4 v -1.936707 h 2.52e-4 v -0.03379 c 0.0073,-0.341805 0.286046,-0.616801 0.629728,-0.616801 h 0.813854 c 0.06339,0 0.114845,-0.05141 0.114845,-0.114845 v -1.88496 c 0,-0.05601 -0.04535,-0.101407 -0.101449,-0.101407" />
</svg>
