<?xml version="1.0" encoding="UTF-8" standalone="no"?>
<svg
   height="16px"
   viewBox="0 0 16 16"
   width="16px"
   version="1.1"
   id="svg135"
   xmlns="http://www.w3.org/2000/svg"
   xmlns:svg="http://www.w3.org/2000/svg"
   xmlns:figma="http://www.figma.com/figma/ns">
  <defs
     id="defs139" />
  <g
     id="g8"
     style="mix-blend-mode:normal;fill:#767677;fill-opacity:1;stroke-width:3.12531"
     figma:type="group"
     transform="matrix(0.31996847,0,0,0.31996847,-523.40777,-785.10341)">
    <g
       id="path16 fill"
       style="mix-blend-mode:normal;fill:#767677;fill-opacity:1;stroke-width:3.12531"
       figma:type="vector" />
  </g>
  <g
     id="g9"
     style="mix-blend-mode:normal;stroke-width:2.4631;fill:#000000"
     figma:type="group"
     transform="matrix(0.40599244,0,0,0.40599244,-666.72137,-997.88069)">
    <g
       id="path17 fill"
       style="mix-blend-mode:normal;stroke-width:2.4631;fill:#000000"
       figma:type="vector" />
  </g>
  <path
     id="path2"
     style="display:inline;stroke-width:0.0769231;enable-background:new"
     d="m 8.0000015,0.61756873 c -4.418308,0 -8.0000000000009,2.82407697 -8.0000000000009,6.30769197 0,2.252231 1.4975380000009,4.2283083 3.7500000000009,5.3442313 -0.122538,0.422616 -0.787769,2.718846 -0.814231,2.899231 0,0 -0.01585,0.135615 0.07192,0.187308 0.08777,0.05169 0.191154,0.01154 0.191154,0.01154 0.251693,-0.03515 2.918769,-1.908537 3.380385,-2.233845 0.461154,0.0653 0.935846,0.09923 1.420769,0.09923 4.4183075,0 7.9999995,-2.824 7.9999995,-6.3076933 3e-6,-3.483617 -3.581689,-6.30769397 -7.9999965,-6.30769397 z M 2.3953865,5.0406457 h 2.363076 c 0.24977,0 0.453078,0.202769 0.453078,0.451923 0,0.249154 -0.203385,0.451923 -0.453078,0.451923 h -0.72 v 2.741923 c 0,0.243077 -0.206999,0.440769 -0.461538,0.440769 -0.254538,0 -0.461538,-0.197692 -0.461538,-0.440769 v -2.741923 h -0.72 c -0.24977,0 -0.453077,-0.202769 -0.453077,-0.451923 0,-0.249154 0.203384,-0.451923 0.453077,-0.451923 z m 3.911923,0 c 0.301461,0.0068 0.537846,0.234692 0.615769,0.456154 l 1.103462,2.904615 c 0.140461,0.436308 0.018,0.597615 -0.109231,0.656154 a 0.70584615,0.70584615 0 0 1 -0.293462,0.06346 c -0.192461,0 -0.339461,-0.07815 -0.383846,-0.203847 l -0.228461,-0.598077 h -1.407693 l -0.228461,0.598464 c -0.04423,0.125461 -0.191385,0.203462 -0.383847,0.203462 a 0.70423077,0.70423077 0 0 1 -0.293461,-0.063462 c -0.127231,-0.05869 -0.249385,-0.220077 -0.109231,-0.655385 l 1.103846,-2.905769 c 0.07777,-0.221 0.314,-0.448923 0.614616,-0.455769 z m 2.490769,0 c 0.259769,0 0.471154,0.207 0.471154,0.461538 v 2.711539 h 0.9807685 c 0.243923,0 0.442308,0.189846 0.442308,0.423077 0,0.23323 -0.198385,0.423077 -0.442308,0.423077 H 8.7692325 c -0.243923,0 -0.442308,-0.189847 -0.442308,-0.423077 v -3.134616 c 0,-0.254538 0.211385,-0.461538 0.471154,-0.461538 z m 2.5353835,0 c 0.254539,0 0.461539,0.207 0.461539,0.461538 v 0.991923 l 1.287692,-1.287692 c 0.06623,-0.06623 0.157,-0.102692 0.25577,-0.102692 0.11523,0 0.231,0.04992 0.317692,0.136538 0.08085,0.08077 0.129154,0.184385 0.135769,0.292308 0.0067,0.108846 -0.02961,0.208769 -0.101923,0.281154 l -1.051538,1.051538 1.135769,1.505 a 0.45776924,0.45776924 0 0 1 0.08885,0.341923 0.45815385,0.45815385 0 0 1 -0.179231,0.304616 0.45692308,0.45692308 0 0 1 -0.277692,0.09308 0.45792307,0.45792307 0 0 1 -0.368462,-0.183462 l -1.082311,-1.434234 -0.160385,0.160385 v 1.006923 a 0.46230768,0.46230768 0 0 1 -0.461539,0.461539 c -0.254538,0 -0.461538,-0.207 -0.461538,-0.461539 v -3.157308 c 0,-0.254538 0.207,-0.461538 0.461538,-0.461538 z m -5.0257685,1.151154 -0.461154,1.309615 h 0.922308 z" />
</svg>
