<?xml version="1.0" encoding="UTF-8" standalone="no"?>
<svg
   version="1.1"
   viewBox="0 0 16 16"
   id="svg1"
   width="16"
   height="16"
   xmlns="http://www.w3.org/2000/svg"
   xmlns:svg="http://www.w3.org/2000/svg">
  <defs
     id="defs1" />
  <path
     id="path3552-6-3-7"
     style="display:inline;fill:#000000;fill-opacity:1;fill-rule:nonzero;stroke:none;stroke-width:0.141662;enable-background:new"
     d="m 15.387055,1.693545 c 0,0.935317 -0.760467,1.693533 -1.698553,1.693533 -0.938084,0 -1.698553,-0.758216 -1.698553,-1.693533 C 11.989949,0.758228 12.750418,0 13.688502,0 c 0.938086,0 1.698553,0.758228 1.698553,1.693545 z m -0.238996,5.165628 v 7.67027 c -5e-6,0.401061 0.01113,0.662863 0.03342,0.785408 0.04456,0.250663 0.161532,0.479044 0.350926,0.685149 h -3.676382 c 0.189388,-0.206105 0.306363,-0.434486 0.350927,-0.685149 0.02228,-0.122545 0.03342,-0.384347 0.03342,-0.785408 V 8.313015 C 12.240369,7.911963 12.22922,7.652945 12.20695,7.53596 12.16239,7.290877 12.048196,7.065281 11.864378,6.859173 h 3.283678 M 3.9267335,8.246171 6.3247375,5.213155 c 0.490177,-0.618289 0.735268,-1.080621 0.735277,-1.386999 -9e-6,-0.111393 -0.01394,-0.200517 -0.04178,-0.267373 H 11.204298 C 10.886781,3.737044 10.488506,4.113038 10.009474,4.686764 9.8813465,4.837174 9.6557505,5.112901 9.3326855,5.51395 l -3.141637,3.910335 3.751581,5.163646 c 0.2283715,0.311936 0.5180255,0.662863 0.8689645,1.052785 0.09468,0.100268 0.231155,0.22003 0.409415,0.359284 H 6.9263255 c 0.03341,-0.12812 0.05012,-0.242314 0.05013,-0.342582 -9e-6,-0.306359 -0.211679,-0.749196 -0.635011,-1.328505 L 3.9267285,11.03688 v 3.33381 c -4e-6,0.77427 0.155964,1.317369 0.467903,1.62931 h -3.927036 c 0.217238,-0.217239 0.356495,-0.465122 0.41777,-0.743635 0.03342,-0.155968 0.05013,-0.448407 0.05013,-0.877319 V 5.179734 c -2e-6,-0.428901 -0.01671,-0.72134 -0.05013,-0.877319 -0.06127,-0.278502 -0.200532,-0.526379 -0.41777,-0.743632 h 3.927044 c -0.311939,0.311948 -0.467907,0.852265 -0.467903,1.620951 v 3.066437" />
</svg>
