<?xml version="1.0" encoding="UTF-8" standalone="no"?>
<svg
   width="16"
   height="16"
   version="1"
   id="svg566"
   xmlns="http://www.w3.org/2000/svg"
   xmlns:svg="http://www.w3.org/2000/svg">
  <defs
     id="defs570" />
  <path
     id="path6"
     clip-path="none"
     mask="none"
     style="display:inline;stroke-width:0.0290246;enable-background:new;fill:#000000;fill-opacity:1"
     d="M 8.5898438 0 C 6.2030138 0.0024961125 3.8448301 1.4837278 3.1523438 4.4511719 C 2.8273541 5.4911567 2.8206364 6.671496 2.640625 7.8964844 C 2.5506484 8.5164525 2.4811069 8.9105385 2.2460938 9.5605469 C 2.1061074 9.9355175 1.9210642 10.266198 1.6210938 10.826172 C 1.161081 11.696159 1.356388 13.37191 3.7363281 12.501953 L 3.9492188 12.40625 C 2.3003406 16.066537 5.8232446 16.985666 8.421875 14.841797 C 9.1868505 17.246757 12.052031 15.450893 13.082031 13.585938 C 15.346975 9.4760084 14.430325 5.2868408 14.195312 4.421875 C 13.390341 1.474429 10.976674 -0.0024961125 8.5898438 0 z M 8.7304688 4.4570312 C 8.9604606 4.4570312 9.1607949 4.5511057 9.3007812 4.7460938 C 9.4607945 4.9661012 9.546875 5.3018304 9.546875 5.7167969 C 9.546875 6.5067917 9.2413002 6.9765625 8.7363281 6.9765625 L 8.7304688 6.9765625 C 8.0705047 6.9765625 7.9707031 6.1867942 7.9707031 5.7167969 C 7.9707031 5.2918169 8.0463988 4.9552205 8.1914062 4.7402344 C 8.3163867 4.5502386 8.5004769 4.4570313 8.7304688 4.4570312 z M 11.445312 4.4570312 C 11.675332 4.4570312 11.875639 4.5511057 12.015625 4.7460938 C 12.175638 4.9661012 12.261719 5.3018304 12.261719 5.7167969 C 12.261719 6.5067917 11.956144 6.9765625 11.451172 6.9765625 L 11.445312 6.9765625 C 10.785348 6.9765625 10.685547 6.1867942 10.685547 5.7167969 C 10.685547 5.2918169 10.761242 4.9552205 10.90625 4.7402344 C 11.031259 4.5502386 11.215321 4.4570313 11.445312 4.4570312 z " />
</svg>
