<?xml version="1.0" encoding="UTF-8" standalone="no"?>
<svg
   width="16"
   height="16"
   version="1"
   id="svg566"
   xmlns="http://www.w3.org/2000/svg"
   xmlns:svg="http://www.w3.org/2000/svg">
  <defs
     id="defs570" />
  <path
     class="st0"
     d="m 15.978747,10.021724 c -0.12332,-0.5408242 -1.01776,-2.0994052 -2.846753,-3.4826662 -0.3343,-0.254068 -0.635913,-0.465049 -0.887011,-0.632942 0.365502,-1.564525 -1.534809,-3.451464 -3.3890621,-2.562969 -1.331257,-1.252512 -2.815552,-1.763619 -4.180982,-1.742818 -3.614901,0.05052 -6.403709,3.816966 -3.40392,7.411066 0.0014,0.0014 0.003,0.003 0.0059,0.0059 0.04606,0.05497 0.0936,0.109948 0.141149,0.164922 0.194638,0.233267 0.3239,0.43979 0.433847,0.803807 l 0.89444,2.9314422 h -0.316472 c -0.291212,0 -0.528937,0.236238 -0.528937,0.528937 h 1.200509 l 2.017695,0.953877 c 0.124806,-0.264469 0.01189,-0.579453 -0.251096,-0.702775 l -0.528938,-0.249609 h 1.521438 c 0,-0.291214 -0.236239,-0.528939 -0.528938,-0.528939 h -1.378803 c -0.240696,0 -0.454648,-0.157492 -0.524479,-0.387787 l -0.708718,-2.328216 c -0.176806,-0.6121422 0.228811,-1.0118172 0.610656,-1.0593612 0.347672,-0.04309 0.522994,0.181266 0.68643,0.725061 l 0.62997,2.0652322 h -0.31647 c -0.291214,0 -0.528939,0.23624 -0.528939,0.528938 h 1.200511 l 2.017687,0.95387 c 0.124806,-0.264468 0.01189,-0.579454 -0.251096,-0.702774 l -0.528937,-0.249611 h 1.11582 c 0.112919,0.191666 0.251097,0.372931 0.416018,0.536367 1.040045,1.040046 2.7293771,1.040046 3.7694221,0 1.040045,-1.040047 1.040045,-2.729376 0,-3.7694222 -1.040045,-1.040045 -2.7293771,-1.040045 -3.7694221,0 -0.731004,0.731004 -0.949412,1.7829352 -0.652258,2.7041182 h -1.262911 c -0.240696,0 -0.454649,-0.157492 -0.524481,-0.387789 l -1.045988,-3.4380932 0.178293,-0.09509 c 2.482737,-1.041532 5.137825,0.818664 6.9861341,-0.968728 0.0045,-0.0045 0.0089,-0.0089 0.01189,-0.01189 0.228809,-0.208009 0.45762,-0.420475 1.133649,0.003 0.728031,0.456133 2.334159,1.646243 3.06219,3.6817602 0.0015,0 0.442762,-0.157492 0.320929,-0.696831 z M 10.870638,5.5123838 c -0.0059,-0.27784 -0.231781,-0.500708 -0.512594,-0.500708 -0.282298,0 -0.5125931,0.228811 -0.5125931,0.512595 0,0.154521 0.06835,0.291212 0.1753211,0.384817 -0.3714441,-0.07132 -0.6507711,-0.395217 -0.6507711,-0.785978 0,-0.442761 0.358073,-0.800834 0.8008361,-0.800834 0.442761,0 0.800834,0.358073 0.800834,0.800834 0,0.141149 -0.03714,0.273384 -0.101033,0.389274 z"
     id="path1"
     style="fill:#010101;stroke-width:0.0148578" />
</svg>
