<?xml version="1.0" encoding="UTF-8" standalone="no"?>
<svg
   width="16"
   height="16"
   version="1"
   id="svg566"
   xml:space="preserve"
   xmlns="http://www.w3.org/2000/svg"
   xmlns:svg="http://www.w3.org/2000/svg"><defs
     id="defs570" /><path
     id="path9"
     style="clip-rule:evenodd;fill:#000000;fill-rule:evenodd;stroke-width:0.0770341"
     d="m 2.881079,5.5464615 c 0,-0.33895 -0.161773,-0.493019 -0.308138,-0.33895 l -2.41117,2.41117 c -0.215695,0.215696 -0.215695,0.56235 0,0.778045 l 2.41117,2.4111695 c 0.146365,0.146365 0.308138,0 0.308138,-0.33895 z m 7.002407,2.07222 2.588349,-2.588349 c 0.215696,-0.215696 0.56235,-0.215696 0.778045,0 l 2.588349,2.588349 c 0.215695,0.215696 0.215695,0.56235 0,0.778045 L 13.24988,10.985076 c -0.215695,0.215696 -0.562349,0.215696 -0.778045,0 L 9.883486,8.3890235 c -0.215696,-0.207992 -0.215696,-0.56235 0,-0.770342 z M 5.022629,12.479539 7.610978,9.8911895 c 0.215695,-0.215695 0.562349,-0.215695 0.778045,0 l 2.588349,2.5883495 c 0.215695,0.215696 0.215695,0.562349 0,0.778046 L 8.38132,15.838229 c -0.215696,0.215694 -0.56235,0.215694 -0.778045,0 L 5.014926,13.249881 c -0.207994,-0.207993 -0.207994,-0.56235 0.0077,-0.770342 z M 4.953299,3.2123255 c 0,-0.269619 0.07703,-0.462205 0.261915,-0.65479 0.801156,-0.801156 1.594608,-1.594608 2.388061,-2.395764 0.215695,-0.215695 0.562349,-0.215695 0.778045,0 l 2.588348,2.588349 c 0.215696,0.215696 0.215696,0.56235 0,0.778045 -1.910448,1.910448 -3.813192,3.813193 -5.723639,5.723641 -0.146365,0.146365 -0.29273,0 -0.29273,-0.338951 z" /></svg>
