<?xml version="1.0" encoding="UTF-8" standalone="no"?>
<svg
   width="16"
   height="16"
   version="1"
   id="svg566"
   xmlns="http://www.w3.org/2000/svg"
   xmlns:svg="http://www.w3.org/2000/svg">
  <defs
     id="defs570" />
  <path
     d="M 3.062479,11.320391 C 1.700033,11.012717 0.61727,9.939382 0,8.7261319 0.665836,9.1216199 1.430917,9.5668815 2.234546,9.3172353 3.426693,9.0209493 4.191956,7.9246286 5.342122,7.5479907 5.928913,7.3364031 6.716048,7.5527407 7.105689,6.9353195 7.633293,6.2699474 7.777138,5.3965634 8.005782,4.6148104 c 0.22018,0.937817 0.401788,2.0247946 1.218299,2.6420162 0.539509,0.2378857 1.173003,0.1339765 1.712216,0.3965725 0.920319,0.4316563 1.610854,1.260633 2.590709,1.5904784 C 14.318843,9.6169215 16,8.7156573 16,8.7156573 15.518295,9.6369181 15.159819,10.049509 14.858775,10.298727 14.324297,10.741193 13.409867,11.467342 12.073704,11.377591 10.928566,11.397805 9.904078,10.803306 9.013039,10.143336 8.5183,9.7233136 7.772552,9.5737269 7.223951,9.9820837 6.294208,10.577662 5.370308,11.314993 4.214819,11.359148 c -0.38318,0.03438 -0.773824,0.03831 -1.15234,-0.03876 z"
     style="fill:#000000;fill-opacity:1;stroke-width:0.157119"
     id="path1-0" />
</svg>
