<?xml version="1.0" encoding="UTF-8" standalone="no"?>
<svg
   height="16px"
   viewBox="0 0 16 16"
   width="16px"
   version="1.1"
   id="svg4"
   xmlns="http://www.w3.org/2000/svg"
   xmlns:svg="http://www.w3.org/2000/svg">
  <defs
     id="defs8" />
  <path
     style="line-height:125%;letter-spacing:0;word-spacing:0;display:inline;fill:#000000;stroke-width:0.34783;enable-background:new"
     id="path2987-7"
     d="m 1.7474561,2.4686842 v 0.766929 l 1.019207,0.07767 c 0.189497,0.01444 0.189784,0.101231 0.165046,0.232975 l -1.640605,8.7369368 c -0.03332,0.17741 -0.06968,0.229094 -0.252384,0.242749 L 1.2745355e-7,12.603579 V 13.39955 H 4.5432331 v -0.795901 l -1.009746,-0.06811 c -0.151877,-0.0085 -0.213489,-0.04075 -0.174748,-0.252419 l 0.669813,-3.6597838 h 1.029015 l 1.475559,3.1064568 c 0.603092,1.238765 1.026173,1.769865 2.329855,1.786316 0.374863,0.0049 0.525663,0.03235 1.5369679,0 3.487922,-2.91207 5.268388,-5.1317948 5.549678,-6.1353848 0.170367,-0.607833 -0.100119,-0.980638 -0.679707,-0.980638 -0.282726,0 -0.6064,0.119063 -0.970609,0.359379 l -0.262123,2.086972 c -0.713856,0.93295 -1.665481,1.9491718 -2.82495,3.0093928 l 0.766893,-4.0093518 c 0.207756,-1.086162 0.0878,-1.527637 -0.618234,-1.369313 l -2.0805029,0.466544 -0.126053,0.446472 0.832006,0.129011 c 0.4135819,0.07991 0.3619469,0.392386 0.09005,1.890267 L 9.5424792,12.350844 c -0.0084,0.03026 -0.0137,0.06344 -0.01942,0.09708 -0.34621,-0.186018 -0.564454,-0.517259 -0.815451,-1.019247 L 6.6206362,7.2542802 10.360456,3.4652422 c 0.06229,-0.06311 0.101825,-0.08303 0.163602,-0.08874 l 1.212566,-0.112035 V 2.4683912 H 7.6595141 v 0.796146 l 1.009434,0.07757 c 0.203865,0.01565 0.280221,0.07333 0.09708,0.262123 l -4.086987,4.213147 h -0.485389 l 0.805746,-4.271408 c 0.01953,-0.155128 0.08486,-0.223702 0.213567,-0.232976 l 1.077539,-0.07763 v -0.766997 z" />
</svg>
