<?xml version="1.0" encoding="UTF-8" standalone="no"?>
<svg
   height="16px"
   viewBox="0 0 16 16"
   width="16px"
   version="1.1"
   id="svg135"
   xmlns="http://www.w3.org/2000/svg"
   xmlns:svg="http://www.w3.org/2000/svg"
   xmlns:figma="http://www.figma.com/figma/ns">
  <defs
     id="defs139" />
  <g
     id="g8"
     style="mix-blend-mode:normal;fill:#767677;fill-opacity:1;stroke-width:3.12531"
     figma:type="group"
     transform="matrix(0.31996847,0,0,0.31996847,-523.40777,-785.10341)">
    <g
       id="path16 fill"
       style="mix-blend-mode:normal;fill:#767677;fill-opacity:1;stroke-width:3.12531"
       figma:type="vector" />
  </g>
  <g
     id="g9"
     style="mix-blend-mode:normal;stroke-width:2.4631;fill:#000000"
     figma:type="group"
     transform="matrix(0.40599244,0,0,0.40599244,-666.72137,-997.88069)">
    <g
       id="path17 fill"
       style="mix-blend-mode:normal;stroke-width:2.4631;fill:#000000"
       figma:type="vector" />
  </g>
  <path
     d="m 8.6355293,15.999959 c 2.3212397,-0.004 4.5279997,-1.00376 6.0523997,-2.74664 3.13104,-3.11716 -5.1915997,-5.1544 -3.30368,-7.034 0.69504,-0.6919595 0.98044,-1.5771995 0.98204,-2.5050405 -7.41e-4,-0.04448 -0.0024,-0.08892 -0.005,-0.13336 0.0016,-0.0506 0.005,-0.1008 0.005,-0.15232 l -0.01344,-0.0084 c -0.154019,-1.93056 -1.77208,-3.41928 -3.7173197,-3.4202 -0.10574,0 -0.211396,0.006 -0.316692,0.0156 C 4.0112376,0.1847185 0.60523762,3.7079595 0.60003762,8 c 0,4.4184 3.59763998,8 8.03559968,8 z m 0,-10.5711995 a 1.72192,1.71428 0 0 1 -1.72188,-1.714281 1.72192,1.71428 0 0 1 1.72188,-1.71424 1.72192,1.71428 0 0 1 1.7218797,1.71424 1.72192,1.71428 0 0 1 -1.7218797,1.714281 z"
     fill="url(#a)"
     id="path24-1"
     style="fill:#000000;stroke-width:0.999999" />
</svg>
