<?xml version="1.0" encoding="UTF-8" standalone="no"?>
<svg
   height="16px"
   viewBox="0 0 16 16"
   width="16px"
   version="1.1"
   id="svg239"
   xmlns="http://www.w3.org/2000/svg"
   xmlns:svg="http://www.w3.org/2000/svg">
  <defs
     id="defs243" />
  <path
     d="M 4.8,0 C 3.0458336,0 1.6,1.4458336 1.6,3.2 v 9.6 c 0,1.754166 1.4458336,3.2 3.2,3.2 h 6.4 c 1.754166,0 3.2,-1.445834 3.2,-3.2 v -8 C 14.4,4.5166667 14.2875,4.2458336 14.0875,4.0458336 L 10.354166,0.3125003 C 10.154166,0.1125003 9.883333,0 9.6,0 Z m 0,2.1333333 h 4.2666667 v 1.6 c 0,1.0666667 0.5333333,1.6 1.6000003,1.6 h 1.6 V 10.645834 C 11.174999,10.554164 10.6875,10.170833 10.216667,9.741666 9.945834,9.491667 9.691667,9.208333 9.35,8.9666667 9.0041664,8.7208331 8.5458336,8.5333333 8,8.5333333 c -0.5458336,0 -1.0041664,0.1874998 -1.35,0.4333334 C 6.3083328,9.208333 6.0541664,9.491667 5.7833333,9.741666 c -0.470833,0.429167 -0.9583328,0.8125 -2.05,0.904168 V 3.2 C 3.7333333,2.5916672 4.1916672,2.1333333 4.8,2.1333333 Z m 1.6,2.1333334 c -0.8791669,0 -1.6,0.720833 -1.6,1.6 0,0.8791669 0.7208331,1.6 1.6,1.6 0.8791669,0 1.6,-0.7208331 1.6,-1.6 0,-0.879167 -0.7208331,-1.6 -1.6,-1.6 z m 0,1.0666666 c 0.3,0 0.5333333,0.2333334 0.5333333,0.5333334 C 6.9333333,6.1666667 6.7,6.4 6.4,6.4 6.1,6.4 5.8666667,6.1666667 5.8666667,5.8666667 5.8666667,5.5666667 6.1,5.3333333 6.4,5.3333333 Z M 8,9.6 c 0.3291669,0 0.5125003,0.07917 0.7291669,0.233333 0.2166667,0.158334 0.4541664,0.408333 0.7666667,0.691668 C 10.05,11.0375 10.879167,11.595834 12.266667,11.7125 V 12.8 c 0,0.608333 -0.458334,1.066667 -1.066667,1.066667 H 4.8 C 4.1916672,13.866667 3.7333333,13.408333 3.7333333,12.8 V 11.7125 C 5.1208331,11.595834 5.95,11.0375 6.5041664,10.525001 6.8166667,10.241666 7.0541664,9.991667 7.2708331,9.833333 7.4874997,9.679167 7.6708331,9.6 8,9.6 Z m 0,0"
     fill="#2e3436"
     id="path237"
     style="stroke-width:1.06667;fill:#000000" />
</svg>
