<?xml version="1.0" encoding="UTF-8" standalone="no"?>
<svg
   width="16"
   height="16"
   version="1"
   id="svg566"
   xmlns="http://www.w3.org/2000/svg"
   xmlns:svg="http://www.w3.org/2000/svg">
  <defs
     id="defs570" />
  <path
     id="path3001"
     style="fill:#000000;stroke-width:0.16"
     d="m 7.9999996,0.00244736 c -3.7571208,0 -6.909549,2.58654984 -7.76877225,6.07751704 H 2.2287338 c 0.803255,-2.416693 3.0836502,-4.1575116 5.7712658,-4.1575116 3.0320324,0 5.5456614,2.2155161 6.0050164,5.1175144 h 1.938131 C 15.469891,3.0738418 12.094178,0.00244736 7.9999996,0.00244736 Z M 14.004392,8.9599726 c -0.461181,2.9014984 -2.973878,5.1225144 -6.0043924,5.1225144 -2.686237,0 -4.9656588,-1.745168 -5.7700162,-4.1625117 H 0.23247695 C 1.093297,13.409755 4.2444895,15.997492 7.9999996,15.997492 c 4.0926064,0 7.4675324,-3.072971 7.9428344,-7.0375194 z" />
  <path
     id="_471970800"
     style="fill:#000000;fill-opacity:0.5;stroke-width:0.913928"
     class="fil2"
     d="M 3.8400697,7.0398194 H 16 V 8.9598267 H 3.8400697 v 0.960063 H 4.9188206e-5 V 6.0799026 H 3.8400697 Z" />
  <path
     id="_471970680"
     style="fill:#000000;stroke-width:0.16"
     class="fil1"
     d="m 14.057812,-5.265e-5 h 1.942161 V 1.9421176 h -1.942161 z" />
  <path
     id="_471970560"
     style="fill:#000000;stroke-width:0.16"
     class="fil1"
     d="m 14.057812,14.057882 h 1.942161 v 1.942171 h -1.942161 z" />
  <path
     id="_471970440"
     style="fill:#000000;stroke-width:0.16"
     class="fil1"
     d="M -4.99937e-7,-5.265e-5 H 1.9421602 V 1.9421176 H -4.99937e-7 Z" />
  <path
     id="_471970368"
     style="fill:#000000;stroke-width:0.16"
     class="fil1"
     d="M -4.99937e-7,14.057882 H 1.9421602 v 1.942171 H -4.99937e-7 Z" />
</svg>
