<?xml version="1.0" encoding="UTF-8" standalone="no"?>
<svg
   height="16px"
   viewBox="0 0 16 16"
   width="16px"
   version="1.1"
   id="svg364"
   xmlns="http://www.w3.org/2000/svg"
   xmlns:svg="http://www.w3.org/2000/svg">
  <defs
     id="defs368">
    <linearGradient
       id="linearGradient1571"
       x1="16"
       x2="16"
       y1="26"
       y2="14"
       gradientUnits="userSpaceOnUse"
       gradientTransform="matrix(3.6881737,0,0,3.6881737,-72.286053,-66.108911)">
      <stop
         stop-color="#1a85d1"
         offset="0"
         id="stop9968" />
      <stop
         stop-color="#2dcbfd"
         offset="1"
         id="stop9970" />
    </linearGradient>
  </defs>
  <path
     id="path2"
     style="fill:#000000;stroke-width:1.06667"
     d="M 4.800781,0 C 3.0466168,0 1.5996092,1.4450545 1.5996092,3.1992188 V 12.800781 C 1.5996092,14.554945 3.0466168,16 4.800781,16 h 6.398438 c 1.758332,0 3.201172,-1.445055 3.201172,-3.199219 V 4.8007812 c 0,-0.2833327 -0.108335,-0.5558595 -0.3125,-0.7558593 L 10.353516,0.3125 C 10.153516,0.1125002 9.8829429,0 9.5996092,0 Z m 0,2.1328125 h 4.265625 v 1.5996094 c 0,1.0666659 0.5329435,1.6015625 1.59961,1.6015625 h 1.601562 v 7.4667966 c 0,0.608333 -0.45586,1.066406 -1.068359,1.066407 H 4.800781 c -0.6083323,-1e-6 -1.0683593,-0.458074 -1.0683593,-1.066407 V 3.1992188 c 0,-0.6083324 0.460027,-1.0664063 1.0683593,-1.0664063 z" />
  <path
     d="M 9.4975072,5.524884 8.3242506,6.7392378 a 2.8100279,2.8100279 0 0 0 -0.6462145,0.00213 L 6.5013368,5.52491 5.2844537,6.2276277 5.7483053,7.8500684 A 2.8100279,2.8100279 0 0 0 5.5648244,8.1212065 2.8100279,2.8100279 0 0 0 5.4224334,8.4144894 l -1.6350849,0.4090005 -1.3e-4,1.4052201 1.6382462,0.408768 a 2.8100279,2.8100279 0 0 0 0.3225352,0.566459 l -0.4622916,1.618437 1.2167419,0.702506 1.1711492,-1.210771 a 2.8100279,2.8100279 0 0 0 0.6518352,-0.0042 l 1.1738192,1.21323 1.2162492,-0.701544 -0.464357,-1.624268 a 2.8100279,2.8100279 0 0 0 0.180735,-0.266396 2.8100279,2.8100279 0 0 0 0.147512,-0.296662 l 1.63326,-0.408493 1.28e-4,-1.4052222 -1.63403,-0.4078959 A 2.8100279,2.8100279 0 0 0 10.250589,7.8477017 L 10.71425,6.2268784 Z M 8.700865,8.309692 a 1.4050139,1.4050139 0 0 1 0.5142695,1.919315 1.4050139,1.4050139 0 0 1 -1.8815943,0.531284 l -0.071297,-0.04117 A 1.4050139,1.4050139 0 0 1 6.5987813,9.6263075 l -8e-4,-0.047979 A 1.4050139,1.4050139 0 0 1 6.7815675,8.8240464 1.4050139,1.4050139 0 0 1 8.7008864,8.3097758 Z"
     fill="url(#linearGradient1571)"
     fill-rule="evenodd"
     stroke-linecap="square"
     stroke-width="1.40502"
     id="path9991"
     style="fill:#000000" />
</svg>
