<?xml version="1.0" encoding="UTF-8" standalone="no"?>
<svg
   width="16"
   height="16"
   version="1.1"
   id="svg10191"
   xml:space="preserve"
   xmlns="http://www.w3.org/2000/svg"
   xmlns:svg="http://www.w3.org/2000/svg"><defs
     id="defs10195" /><path
     id="path847-5"
     style="fill:#000000;stroke-width:0.0391285"
     d="m 8.0252734,1.1600001e-6 c -1.310247,0 -2.34177,0.2264419999999 -3.468983,0.7608089999999 -2.42344,1.14885004 -4.11109003,3.44950504 -4.49793903,6.13179704 -0.07735,0.536562 -0.07792,1.615785 -0.001,2.202856 0.179721,1.3713068 0.724392,2.6689708 1.60049303,3.8121948 0.31286,0.408251 1.029752,1.129614 1.411719,1.42085 1.171118,0.892945 2.512959,1.452422 3.915971,1.632494 0.451753,0.05799 1.614199,0.04983 2.106169,-0.01467 1.4238456,-0.186692 2.8586896,-0.811198 3.9844386,-1.73424 0.410404,-0.336504 1.028939,-0.987311 1.345537,-1.415631 1.065386,-1.441366 1.578322,-2.9906888 1.578322,-4.7673648 0,-1.349621 -0.231002,-2.37251 -0.801387,-3.548374 -0.421675,-0.869286 -0.914083,-1.541461 -1.64842,-2.250141 C 12.025839,0.75948916 10.144491,6.1600001e-6 8.0252524,6.1600001e-6 Z M 7.9991934,1.2118162 c 1.163331,0.0012 2.0490236,0.210815 3.0826336,0.729176 0.681183,0.341616 1.210605,0.735246 1.792199,1.332475 0.932867,0.957951 1.525164,2.077252 1.800026,3.402605 0.103755,0.500308 0.142953,1.652814 0.07499,2.197638 -0.141107,1.1311698 -0.620491,2.3026898 -1.325323,3.2379198 -0.259864,0.344814 -0.879689,0.970907 -1.238271,1.250622 -0.67436,0.526043 -1.372893,0.889043 -2.2300586,1.159312 -0.294136,0.09273 -0.343674,0.09374 -0.317229,0.0065 0.06005,-0.198068 0.102455,-0.465248 0.117044,-0.739612 0.02312,-0.434671 0.2982456,-1.124205 0.5738166,-1.438133 0.24239,-0.276134 0.288654,-0.496333 0.293428,-1.393131 0.0039,-0.742391 0.01187,-0.829049 0.107266,-1.1619208 0.162379,-0.566643 0.330737,-0.966707 0.527194,-1.253557 0.09984,-0.14578 0.259322,-0.406005 0.354397,-0.578188 0.09508,-0.172187 0.233186,-0.404015 0.306796,-0.51525 0.192302,-0.290589 0.602977,-0.69179 0.805953,-0.787223 0.226841,-0.106651 0.477095,-0.394041 0.559796,-0.643084 0.08501,-0.256001 0.0589,-0.65986 -0.05217,-0.808094 -0.06546,-0.08735 -0.107139,-0.10305 -0.274844,-0.10305 -0.153595,0 -0.219343,-0.02032 -0.295712,-0.09196 -0.105048,-0.09854 -0.182252,-0.08535 -0.182252,0.03131 0,0.09149 -0.139885,0.266268 -0.180622,0.225666 -0.01697,-0.01691 8.35e-4,-0.113766 0.03978,-0.215231 0.142483,-0.371862 0.189025,-0.609566 0.166275,-0.849836 -0.03751,-0.396163 -0.284503,-1.001978 -0.418951,-1.02789 -0.03233,-0.0062 -0.20799,0.114002 -0.390262,0.267408 -0.950502,0.799993 -1.672655,1.348942 -2.1756116,1.653038 -0.240007,0.145104 -0.24077,0.145099 -0.645544,0.136313 -0.479243,-0.01039 -0.546817,0.01488 -1.346186,0.499597 -0.276865,0.167885 -0.589067,0.337626 -0.69347,0.377306 -0.104931,0.03988 -0.437791,0.09759 -0.744657,0.129138 -0.63024,0.06479 -0.799019,0.104102 -1.034827,0.240341 -0.233204,0.134732 -0.291856,0.234756 -0.242242,0.414483 0.04858,0.175979 0.306758,0.522156 0.617179,0.827335 l 0.233764,0.229905 -0.180621,0.278822 c -0.09936,0.153432 -0.248605,0.437028 -0.3319,0.63004 -0.165543,0.383594 -0.211221,0.455619 -0.541214,0.861902 -0.285871,0.3519568 -0.60197,0.8588958 -0.897893,1.4387858 -0.25306,0.495897 -0.374343,0.624431 -0.838882,0.890273 -0.259686,0.148614 -0.250418,0.153647 -0.544799,-0.290236 -0.539084,-0.812857 -0.910858,-1.7822128 -1.05993,-2.7627818 -0.07449,-0.489966 -0.07303,-1.505906 0.0029,-2.017626 0.11586,-0.780458 0.41265,-1.634473 0.818342,-2.35417 0.550842,-0.977193 1.556774,-1.984551 2.529682,-2.533202 1.068724,-0.602684 2.148496,-0.884937 3.379976,-0.883751 z m 1.26533,4.436365 -0.361244,0.462747 -0.581315,0.08153 0.361244,-0.462746 z" /></svg>
