<?xml version="1.0" encoding="UTF-8" standalone="no"?>
<svg
   height="16px"
   viewBox="0 0 16 16"
   width="16px"
   version="1.1"
   id="svg364"
   xmlns="http://www.w3.org/2000/svg"
   xmlns:svg="http://www.w3.org/2000/svg">
  <defs
     id="defs368" />
  <path
     id="path913"
     style="fill:#000000;stroke-width:1.39996"
     d="M 4.8007812 0 C 3.046617 0 1.5996094 1.4450545 1.5996094 3.1992188 L 1.5996094 12.800781 C 1.5996094 14.554945 3.046617 16 4.8007812 16 L 11.199219 16 C 12.957551 16 14.400391 14.554945 14.400391 12.800781 L 14.400391 4.8007812 C 14.400391 4.5174485 14.292056 4.2449217 14.087891 4.0449219 L 10.353516 0.3125 C 10.153516 0.1125002 9.8829431 0 9.5996094 0 L 4.8007812 0 z M 4.8007812 2.1328125 L 9.0664062 2.1328125 L 9.0664062 3.7324219 C 9.0664062 4.7990878 9.5993497 5.3339844 10.666016 5.3339844 L 12.267578 5.3339844 L 12.267578 12.800781 C 12.267578 13.409114 11.811718 13.867187 11.199219 13.867188 L 4.8007812 13.867188 C 4.1924489 13.867187 3.7324219 13.409114 3.7324219 12.800781 L 3.7324219 3.1992188 C 3.7324219 2.5908864 4.1924489 2.1328125 4.8007812 2.1328125 z M 8.6992188 5.9199219 L 8.6992188 8.7207031 L 11.5 8.7207031 C 11.5 7.1730853 10.241367 5.9199218 8.6992188 5.9199219 z M 7.3007812 7.3203125 C 5.7531642 7.3203125 4.5 8.5734762 4.5 10.121094 C 4.5 11.66324 5.7531642 12.919922 7.3007812 12.919922 C 8.8429314 12.919922 10.099609 11.66324 10.099609 10.121094 L 7.3007812 10.121094 L 7.3007812 7.3203125 z " />
</svg>
