<?xml version="1.0" encoding="UTF-8" standalone="no"?>
<svg
   width="16"
   height="16"
   version="1"
   id="svg566"
   xmlns="http://www.w3.org/2000/svg"
   xmlns:svg="http://www.w3.org/2000/svg">
  <defs
     id="defs570" />
  <path
     id="path2"
     style="baseline-shift:baseline;display:inline;overflow:visible;vector-effect:none;fill:#000000;stroke-width:0.30797;enable-background:accumulate;stop-color:#000000"
     d="M 9.3242188 0 C 4.0309855 0 0.1796875 3.6089933 0.1796875 7.6992188 C 0.1796875 9.8646322 1.2630551 11.788813 2.9472656 13.232422 C 4.6314761 14.676031 6.3165238 14.91675 7.5195312 14.435547 C 8.1210334 14.194946 8.4808962 14.075805 8.8417969 14.316406 C 9.4433022 14.677309 9.3237913 15.398496 8.9628906 16 C 10.887703 16 12.330991 15.397953 13.654297 14.435547 C 14.977607 13.473141 15.820312 11.908819 15.820312 10.224609 C 15.820312 6.134385 11.969014 2.5253906 6.6757812 2.5253906 L 9.3242188 0 z M 8.6015625 3.1269531 A 0.96240598 0.96240598 0 0 1 9.5644531 4.0898438 A 0.96240598 0.96240598 0 0 1 8.6015625 5.0527344 A 0.96240598 0.96240598 0 0 1 7.6386719 4.0898438 A 0.96240598 0.96240598 0 0 1 8.6015625 3.1269531 z M 5.9550781 4.5722656 A 0.96240598 0.96240598 0 0 1 6.9179688 5.5332031 A 0.96240598 0.96240598 0 0 1 5.9550781 6.4960938 A 0.96240598 0.96240598 0 0 1 4.9921875 5.5332031 A 0.96240598 0.96240598 0 0 1 5.9550781 4.5722656 z M 11.248047 4.5722656 A 0.96240598 0.96240598 0 0 1 12.210938 5.5332031 A 0.96240598 0.96240598 0 0 1 11.248047 6.4960938 A 0.96240598 0.96240598 0 0 1 10.285156 5.5332031 A 0.96240598 0.96240598 0 0 1 11.248047 4.5722656 z M 7.8789062 7.21875 A 0.96240598 0.96240598 0 0 1 8.8417969 8.1796875 A 0.96240598 0.96240598 0 0 1 7.8789062 9.1425781 A 0.96240598 0.96240598 0 0 1 6.9179688 8.1796875 A 0.96240598 0.96240598 0 0 1 7.8789062 7.21875 z " />
  <circle
     cx="5.9548874"
     cy="5.5338345"
     r="0.96240598"
     fill="#ff6b6b"
     id="circle2"
     style="stroke-width:0.120301;fill:#000000;fill-opacity:0.80000001" />
  <circle
     cx="8.6015043"
     cy="4.0902257"
     r="0.96240598"
     fill="#ffd166"
     id="circle3"
     style="stroke-width:0.120301;fill:#000000;fill-opacity:0.60000002" />
  <circle
     cx="11.24812"
     cy="5.5338345"
     r="0.96240598"
     fill="#06d6a0"
     id="circle4"
     style="stroke-width:0.120301;fill:#000000;fill-opacity:0.40000001" />
  <circle
     cx="7.8796992"
     cy="8.1804514"
     r="0.96240598"
     fill="#4cc9f0"
     id="circle5"
     style="stroke-width:0.120301;fill:#000000;fill-opacity:0.2" />
</svg>
