<?xml version="1.0" encoding="UTF-8" standalone="no"?>
<svg
   width="16"
   height="16"
   version="1"
   id="svg566"
   sodipodi:docname="linuxthemestore-symbolic.svg"
   inkscape:version="1.4.2 (ebf0e940d0, 2025-05-08)"
   xmlns:inkscape="http://www.inkscape.org/namespaces/inkscape"
   xmlns:sodipodi="http://sodipodi.sourceforge.net/DTD/sodipodi-0.dtd"
   xmlns="http://www.w3.org/2000/svg"
   xmlns:svg="http://www.w3.org/2000/svg">
  <sodipodi:namedview
     id="namedview1"
     pagecolor="#505050"
     bordercolor="#ffffff"
     borderopacity="1"
     inkscape:showpageshadow="0"
     inkscape:pageopacity="0"
     inkscape:pagecheckerboard="1"
     inkscape:deskcolor="#505050"
     inkscape:current-layer="svg566" />
  <defs
     id="defs570" />
  <path
     id="path57"
     style="baseline-shift:baseline;display:inline;overflow:visible;vector-effect:none;fill:#000000;stroke-width:0.190004;stroke-linecap:round;stroke-linejoin:round;enable-background:accumulate;stop-color:#000000"
     d="M 11.523123,-2.4729523e-6 C 14.765041,3.9793365 14.984644,8.9917995 13.239094,12.025536 10.644604,16.534446 5.3229578,16.602605 3.1469948,14.585764 0.95786481,12.55667 1.4933528,9.6151245 2.8853678,8.6629865 c 1.407089,-0.962402 3.023159,-0.293099 3.3696,0.587825 0.354929,0.9025395 -0.173299,1.6871065 -0.688022,1.7653295 -0.536256,0.08146 -0.867729,-0.317945 -0.847224,-0.595618 0.01078,-0.146018 0.08265,-0.244426 0.172191,-0.304674 0.08955,-0.06025 0.198031,-0.07579 0.263853,-0.05566 0.0029,8.74e-4 0.0056,0.0014 0.0085,0.0019 0.0018,0.0011 0.0037,0.0021 0.0056,0.003 0.053,0.02373 0.09766,0.07171 0.115042,0.125433 0.0026,0.01122 2.47e-4,0.03149 -0.0045,0.05826 -0.0075,0.03284 -0.02479,0.06133 -0.04602,0.07756 -0.04365,0.01975 -0.08896,0.02985 -0.12135,0.01707 -0.0097,-0.0048 -0.02438,-0.01957 -0.04565,-0.03971 l -3.8e-4,-7.41e-4 c -0.01496,-0.01651 -0.02605,-0.04141 -0.03377,-0.07125 -0.0079,-0.03041 -0.03897,-0.04867 -0.0694,-0.04082 -0.03041,0.0079 -0.04867,0.03897 -0.04082,0.0694 0.01021,0.03946 0.02628,0.08385 0.06049,0.120979 9.5e-4,8.93e-4 0.0019,0.0018 0.003,0.0026 0.01664,0.01565 0.03856,0.04484 0.07979,0.06383 7.41e-4,3.8e-4 0.0015,7.6e-4 0.0022,0.0011 0.07978,0.03265 0.160081,0.0084 0.220435,-0.02041 0.0027,-0.0013 0.0053,-0.0028 0.0078,-0.0045 0.05436,-0.0374 0.08292,-0.09534 0.09537,-0.150667 1.43e-4,-8.55e-4 2.66e-4,-0.0017 3.8e-4,-0.0026 0.0049,-0.02749 0.01435,-0.06577 0.0026,-0.110588 -2.28e-4,-8.74e-4 -4.75e-4,-0.0017 -7.41e-4,-0.0026 -0.02483,-0.07883 -0.08056,-0.143214 -0.150667,-0.1825825 -0.006,-0.02252 -0.0232,-0.04162 -0.04713,-0.04899 -0.119142,-0.03643 -0.261469,-0.008 -0.382605,0.07348 -0.121137,0.081501 -0.219889,0.2224045 -0.233794,0.4108105 -0.02889,0.391167 0.396079,0.837747 1.007911,0.7448 0.633363,-0.09627 1.179786,-0.983226 0.797494,-1.9553485 -0.390781,-0.993669 -2.106246,-1.659898 -3.579272,-0.652397 -1.488071,1.017841 -2.00162399,4.0586945 0.245298,6.1413565 2.260115,2.09484 7.6737382,1.986845 10.3091932,-2.593256 C 15.1442,8.9957385 14.925686,3.9639345 11.66558,2.5270477e-6 Z"
     sodipodi:nodetypes="cccccccsccccccccccccccccccccscccscccccccc" />
</svg>
