<?xml version="1.0" encoding="UTF-8" standalone="no"?>
<svg
   width="16"
   height="16"
   version="1"
   id="svg14"
   xmlns="http://www.w3.org/2000/svg"
   xmlns:svg="http://www.w3.org/2000/svg">
  <defs
     id="defs18" />
  <path
     style="fill:#000000;fill-opacity:1;stroke-width:0.164164"
     d="m 7.18432,15.979383 c -0.05642,-0.0083 -0.241084,-0.03492 -0.410356,-0.0592 -0.362583,-0.052 -0.949809,-0.193735 -0.998381,-0.24098 -0.06457,-0.0628 0.143399,-0.448556 0.341983,-0.634358 0.317542,-0.297102 0.428977,-0.331063 1.025719,-0.312608 0.675032,0.02088 1.100569,0.02051 1.723499,-0.0014 0.493944,-0.01743 0.520544,-0.01405 0.718123,0.09123 0.112848,0.06013 0.273415,0.180193 0.356817,0.266802 0.138691,0.144023 0.31718,0.463312 0.31937,0.571302 0.0011,0.05587 -0.663467,0.210561 -1.230168,0.286321 -0.383675,0.05129 -1.576721,0.07259 -1.846606,0.03296 z M 3.760011,14.794965 C 2.753849,14.163114 1.845109,13.254137 1.213422,12.247712 1.089405,12.050122 0.98793403,11.873281 0.98793403,11.85473 c 0,-0.05778 0.23815797,-0.160274 0.47359797,-0.203809 0.176009,-0.03254 0.278948,-0.02792 0.470231,0.02109 0.330561,0.08471 0.529034,0.22513 0.809527,0.572755 0.299998,0.371796 0.649965,0.721855 1.021665,1.02193 0.449491,0.362879 0.605721,0.653545 0.602209,1.120408 -0.0019,0.247105 -0.129271,0.633409 -0.208912,0.633409 -0.0204,0 -0.198703,-0.101491 -0.396241,-0.225547 z m 7.999259,0.10139 c -0.121333,-0.234694 -0.153918,-0.549902 -0.08476,-0.819913 0.08469,-0.330649 0.225072,-0.529175 0.572606,-0.809744 0.3717,-0.300075 0.721667,-0.650134 1.021665,-1.02193 0.362782,-0.449606 0.653372,-0.605876 1.120114,-0.602365 0.247041,0.0018 0.633241,0.129305 0.633241,0.208968 0,0.06703 -0.445698,0.74885 -0.712608,1.090134 -0.334688,0.427949 -0.938021,1.031438 -1.365858,1.366214 -0.333055,0.260612 -1.022301,0.712796 -1.086488,0.712796 -0.01855,0 -0.0626,-0.05587 -0.09791,-0.12416 z M 7.209987,12.247672 C 5.476804,11.903203 4.127355,10.576543 3.781021,8.8766161 3.305,6.5401211 4.809161,4.2495901 7.130228,3.7764641 c 2.335884,-0.476148 4.625816,1.028408 5.09882,3.350081 0.476023,2.336496 -1.02814,4.6270269 -3.349207,5.1001519 -0.487549,0.09939 -1.228515,0.10869 -1.669854,0.02097 z M 0.21198403,9.8589301 c -0.199359,-0.866008 -0.266015,-1.990733 -0.166087,-2.802493 0.05156,-0.418825 0.228961,-1.231259 0.280012,-1.282322 0.06677,-0.06679 0.447108,0.135692 0.637698,0.339504 0.29702397,0.317625 0.33097797,0.429089 0.31252697,1.025987 -0.02087,0.675209 -0.02051,1.100857 0.0014,1.723949 0.01743,0.494074 0.01405,0.520682 -0.09121,0.718312 -0.06012,0.112877 -0.180145,0.273487 -0.26672997,0.35691 -0.143987,0.1387259 -0.463191,0.3172619 -0.571154,0.3194539 -0.02442,4.88e-4 -0.08586,-0.17919 -0.136531,-0.3993009 z M 15.411973,10.162311 c -0.231627,-0.108343 -0.515226,-0.3950189 -0.622231,-0.6289819 -0.05932,-0.12969 -0.06893,-0.245116 -0.05581,-0.669774 0.02087,-0.675208 0.02051,-1.100857 -0.0014,-1.723949 -0.01741,-0.493604 -0.01395,-0.520932 0.09108,-0.719959 0.138824,-0.263063 0.415354,-0.518763 0.663565,-0.613581 0.106384,-0.04064 0.20043,-0.0666 0.208995,-0.0577 0.03993,0.04153 0.229327,1.006054 0.272816,1.389376 0.06092,0.536976 0.02774,1.740934 -0.06114,2.218371 -0.08864,0.476159 -0.200086,0.8730959 -0.24959,0.8889939 -0.02257,0.0072 -0.133365,-0.03001 -0.246214,-0.08279 z M 1.411686,4.3475031 c -0.19217,-0.03899 -0.42375197,-0.147783 -0.42375197,-0.199074 0,-0.0642 0.45206697,-0.75363 0.71260997,-1.086773 0.334689,-0.427948 0.93802,-1.031438 1.365856,-1.366214 0.333055,-0.260612 1.022302,-0.71279504 1.086489,-0.71279504 0.05777,0 0.160231,0.23822004 0.203756,0.47372004 0.03254,0.176055 0.02792,0.279021 -0.02108,0.470353 -0.08469,0.330649 -0.225073,0.529174 -0.572607,0.809741 -0.160798,0.129815 -0.403362,0.347058 -0.53903,0.48276 -0.135669,0.135703 -0.352852,0.378331 -0.482635,0.539173 -0.12978,0.160841 -0.305002,0.338047 -0.389384,0.393789 -0.27106,0.179066 -0.641266,0.255972 -0.94022,0.19532 z m 12.63649,-0.02005 c -0.303776,-0.08356 -0.507924,-0.232614 -0.779398,-0.56906 -0.299998,-0.371797 -0.649965,-0.721855 -1.021665,-1.021932 -0.449488,-0.362877 -0.605719,-0.653542 -0.602208,-1.120406 0.0019,-0.247105 0.129271,-0.63340804 0.208914,-0.63340804 0.06701,0 0.748655,0.44581504 1.089848,0.71279504 0.427837,0.334776 1.03117,0.938266 1.365858,1.366214 0.26691,0.341284 0.712608,1.023104 0.712608,1.090135 0,0.05991 -0.331732,0.186647 -0.553981,0.211658 -0.12371,0.01392 -0.290466,-3.74e-4 -0.419976,-0.036 z M 6.650856,1.2745971 C 6.44089,1.2064571 6.215524,1.0670681 6.068345,0.91429406 c -0.138679,-0.143951 -0.317181,-0.463218 -0.319372,-0.571234 -0.0011,-0.05587 0.663467,-0.210561 1.23017,-0.286321 0.51097,-0.06831 1.483512,-0.07639 1.970788,-0.01638 0.418716,0.05157 1.230938,0.229023 1.281987,0.280085 0.06677,0.06679 -0.135657,0.447225 -0.339415,0.637868 C 9.57496,1.2554131 9.463525,1.2893751 8.866784,1.2709201 c -0.815106,-0.02521 -1.179073,-0.02351 -1.661945,0.0077 -0.248265,0.01607 -0.497559,0.01424 -0.553983,-0.0041 z"
     id="path1" />
</svg>
