<?xml version="1.0" encoding="UTF-8" standalone="no"?>
<svg
   width="16"
   height="16"
   version="1"
   id="svg566"
   xmlns="http://www.w3.org/2000/svg"
   xmlns:svg="http://www.w3.org/2000/svg">
  <defs
     id="defs570" />
  <path
     d="m 10.744158,15.962192 c 2.225632,-0.263713 4.028071,-1.36591 4.838065,-2.958492 0.553756,-1.088775 0.557145,-2.334535 0.0094,-3.4559683 -0.964225,-1.974123 -3.484175,-3.269225 -6.1909625,-3.181784 -1.870334,0.06042 -3.52296,0.72472 -4.647215,1.868024 -1.287987,1.309807 -1.595546,3.0608313 -0.811685,4.6211613 0.446159,0.888108 1.250409,1.686943 2.257869,2.242668 0.822131,0.453494 1.863672,0.770109 2.83887,0.862982 0.14136,0.01346 0.299075,0.02862 0.350478,0.03369 0.167019,0.01647 1.1391585,-0.0067 1.3551795,-0.03229 z M 3.2922165,6.3805587 c 1.493469,-0.264525 2.181051,-1.883936 1.432177,-3.373097 -0.162247,-0.322634 -0.298094,-0.505887 -0.59062,-0.796726 -0.392521,-0.390258 -0.746105,-0.614525 -1.193584,-0.757056 -0.460651,-0.146725 -0.963121,-0.170198 -1.371722,-0.06408 -0.80720004,0.209639 -1.37892004,0.825156 -1.54039604,1.658399 -0.03777,0.194887 -0.03733,0.665181 7.4e-4,0.880411 0.105536,0.595462 0.400443,1.148768 0.853747,1.601797 0.23255004,0.232412 0.54281104,0.460963 0.80587304,0.593639 0.190694,0.09618 0.52308,0.208587 0.724834,0.245132 0.214529,0.03886 0.689546,0.04512 0.878881,0.01157 z m 5.793015,-2.102525 c 0.652086,-0.06135 1.2931185,-0.280167 1.8108015,-0.618133 0.214165,-0.139818 0.568418,-0.487922 0.689756,-0.677784 0.271901,-0.425457 0.294623,-0.927909 0.0586,-1.295722 -0.09374,-0.14608 -0.326095,-0.362484 -0.500783,-0.466406 -0.917429,-0.545771 -2.5150155,-0.414282 -3.5867885,0.295209 -0.240526,0.159224 -0.591121,0.504782 -0.699563,0.689511 -0.171497,0.29214 -0.202001,0.399138 -0.202001,0.708525 0,0.279011 7.39e-4,0.283245 0.08887,0.461419 0.319508,0.646477 1.25102,1.005927 2.341106,0.903381 z"
     style="display:inline;fill:#000000;fill-opacity:1;stroke-width:0.0233652;enable-background:new"
     id="path1-4" />
</svg>
