<?xml version="1.0" encoding="UTF-8" standalone="no"?>
<svg
   width="16"
   height="16"
   version="1"
   id="svg566"
   xmlns="http://www.w3.org/2000/svg"
   xmlns:svg="http://www.w3.org/2000/svg">
  <defs
     id="defs570" />
  <path
     id="path1"
     style="fill:#000000;stroke-width:0.203331;stroke-linecap:round;stroke-linejoin:round"
     d="M 7.599891,0 A 0.53338023,0.53338023 0 0 0 7.070516,0.46702601 L 6.917223,1.69416 C 6.526976,1.76145 6.148187,1.863221 5.785003,1.998362 L 5.038,1.011889 A 0.53338023,0.53338023 0 0 0 4.346199,0.87209901 L 3.653603,1.27201 A 0.53338023,0.53338023 0 0 0 3.428827,1.941175 L 3.912135,3.086897 C 3.612853,3.336591 3.336591,3.612853 3.086897,3.912135 L 1.941175,3.428827 A 0.53338023,0.53338023 0 0 0 1.27201,3.653603 L 0.87209901,4.346199 A 0.53338023,0.53338023 0 0 0 1.011889,5.038 L 1.998362,5.784606 C 1.863157,6.147895 1.761473,6.526852 1.69416,6.917223 L 0.46702601,7.070515 A 0.53338023,0.53338023 0 0 0 0,7.599891 V 8.399712 A 0.53338023,0.53338023 0 0 0 0.46702601,8.929087 L 1.694557,9.082777 c 0.06729,0.390095 0.168716,0.768764 0.303805,1.131822 L 1.011889,10.961602 A 0.53338023,0.53338023 0 0 0 0.87209901,11.653404 L 1.27201,12.346397 a 0.53338023,0.53338023 0 0 0 0.669165,0.224379 l 1.145722,-0.482911 c 0.249695,0.299303 0.525956,0.575523 0.825238,0.825238 l -0.483308,1.145722 a 0.53338023,0.53338023 0 0 0 0.224776,0.669165 l 0.692596,0.399911 A 0.53338023,0.53338023 0 0 0 5.038,14.988111 l 0.747003,-0.986473 c 0.363184,0.135157 0.741973,0.236901 1.13222,0.304202 l 0.153293,1.226737 A 0.53338023,0.53338023 0 0 0 7.599891,16 H 8.399712 A 0.53338023,0.53338023 0 0 0 8.929087,15.532577 L 9.08238,14.305443 c 0.390231,-0.0673 0.769042,-0.168656 1.132219,-0.303805 l 0.747003,0.986473 a 0.53338023,0.53338023 0 0 0 0.691802,0.13979 l 0.692993,-0.399911 a 0.53338023,0.53338023 0 0 0 0.224379,-0.669165 l -0.482911,-1.145722 c 0.299303,-0.249716 0.575522,-0.525935 0.825238,-0.825238 l 1.145722,0.482911 a 0.53338023,0.53338023 0 0 0 0.669165,-0.224379 l 0.399911,-0.692993 a 0.53338023,0.53338023 0 0 0 -0.13979,-0.691802 L 14.001638,10.214997 C 14.13685,9.851713 14.238121,9.472735 14.305443,9.08238 L 15.532577,8.929087 A 0.53338023,0.53338023 0 0 0 16,8.399712 V 7.599891 A 0.53338023,0.53338023 0 0 0 15.532577,7.070515 L 14.30584,6.917223 C 14.23852,6.526852 14.136858,6.147895 14.001638,5.784606 L 14.987714,5.038 A 0.53338023,0.53338023 0 0 0 15.127901,4.346199 L 14.72799,3.653603 A 0.53338023,0.53338023 0 0 0 14.058825,3.428827 L 12.913103,3.912135 C 12.663388,3.612853 12.387168,3.336592 12.087865,3.086897 L 12.570776,1.941175 A 0.53338023,0.53338023 0 0 0 12.346,1.27201 L 11.653404,0.87209901 A 0.53338023,0.53338023 0 0 0 10.961602,1.011889 L 10.214599,1.998362 C 9.851541,1.863273 9.472872,1.761851 9.082777,1.694557 L 8.929087,0.46702601 A 0.53338023,0.53338023 0 0 0 8.399712,0 Z M 7.419196,4.310854 V 5.807243 L 5.808037,7.418799 H 4.310854 C 4.557018,5.81074 5.81108,4.556855 7.419196,4.310854 Z m 1.161608,0 c 1.607985,0.246144 2.862143,1.500015 3.108342,3.107945 H 10.191963 L 8.580804,5.80764 Z M 7.992256,6.230187 c 0.168968,0 0.304996,0.136028 0.304996,0.304996 v 1.160813 h 1.219986 c 0.168968,0 0.304996,0.136029 0.304996,0.304997 0,0.168968 -0.136028,0.304996 -0.304996,0.304996 H 8.297252 v 1.279158 c 0,0.168968 -0.136028,0.304997 -0.304996,0.304997 -0.168968,0 -0.304996,-0.136029 -0.304996,-0.304997 V 8.305989 H 6.467274 c -0.168968,0 -0.304996,-0.136028 -0.304996,-0.304996 0,-0.168968 0.136028,-0.304997 0.304996,-0.304997 H 7.68726 V 6.535183 c 0,-0.168968 0.136028,-0.304996 0.304996,-0.304996 z M 4.310854,8.580804 h 1.497183 l 1.611159,1.611556 v 1.496786 C 5.81108,11.443089 4.557017,10.188918 4.310854,8.580804 Z m 5.881109,0 h 1.497183 c -0.246199,1.607985 -1.500357,2.862143 -3.108342,3.108342 v -1.497183 z" />
</svg>
