<?xml version="1.0" encoding="UTF-8" standalone="no"?>
<svg
   height="16px"
   viewBox="0 0 16 16"
   width="16px"
   version="1.1"
   id="svg135"
   xmlns="http://www.w3.org/2000/svg"
   xmlns:svg="http://www.w3.org/2000/svg">
  <defs
     id="defs139" />
  <path
     id="polygon9"
     style="color:#ffffff;display:inline;fill:#000000;stroke-width:0.0936612;enable-background:new"
     class="cls-1"
     d="m 12.578784,8.4203323 -0.180214,0.616404 -0.181168,-0.616404 -0.637903,-0.173881 0.637903,-0.174801 0.181168,-0.615484 0.180214,0.615484 0.638856,0.174801 z M 2.986412,10.826147 2.835757,11.34135 2.684148,10.826147 2.150179,10.679866 l 0.533969,-0.146281 0.151609,-0.515203 0.150655,0.515203 0.534923,0.146281 z m 7.515614,-0.268642 A 4.9411204,4.7674689 0 0 1 6.441001,3.8101843 4.9411204,4.7674689 0 1 0 12.761859,10.234583 4.923957,4.7509089 0 0 1 10.502026,10.557505 Z M 9.918474,8.8619353 9.803099,9.2547773 9.68677,8.8619353 9.279618,8.7506143 9.68677,8.6392933 l 0.116329,-0.392842 0.115375,0.392842 0.407152,0.111321 z M 7.449821,6.1295183 7.334446,6.5223613 7.21907,6.1295183 6.811919,6.0172783 7.21907,5.9059573 l 0.115376,-0.392843 0.115375,0.392843 0.408105,0.111321 z m 1.655304,0.866645 -0.08868,0.301762 -0.08868,-0.301762 -0.313707,-0.08556 0.313707,-0.08556 0.08868,-0.302681 0.08868,0.302681 0.313707,0.08556 z m -1.158522,-3.37274 -0.08868,0.302682 -0.08963,-0.302682 -0.312754,-0.08556 0.312754,-0.08556 0.08963,-0.302682 0.08868,0.302682 0.312753,0.08556 z m 3.642432,1.784811 -0.08868,0.302682 -0.08963,-0.302682 -0.312753,-0.08556 0.312753,-0.08556 0.08963,-0.302682 0.08868,0.302682 0.312753,0.08556 z m -8.849583,0.750724 -0.08868,0.301762 -0.08963,-0.301762 -0.312753,-0.08648 0.312753,-0.08556 0.08963,-0.301762 0.08868,0.301762 0.312753,0.08556 z m 9.493206,7.6250067 h 3.487008 V 13.505203 H 13.594279 V 13.159281 H 16 V 12.881439 H 14.726102 V 12.535517 H 16 V 12.256755 H 0 v 0.278762 h 1.429321 v 0.345922 H 0 v 0.277842 h 2.510608 v 0.345922 H 0.280334 v 0.278762 h 3.532777 v 0.345922 H 2.025268 v 0.277842 H 6.03671 v 0.345922 H 5.467461 v 0.277841 h 5.162336 V 14.753651 H 9.986174 v -0.345922 h 3.988558 v -0.277842 h -1.742074 z m 3.214303,-7.6811267 v 5.7960347 l -1.048868,-0.06256 V 6.3742403 A 1.7668653,1.7047703 0 0 0 13.460787,4.8875113 L 8.984982,2.4246563 a 1.9585221,1.8896915 0 0 0 -1.874613,0 l -4.465315,2.462855 a 1.7649583,1.7029303 0 0 0 -0.937307,1.486729 v 5.4602327 l -1.054588,0.06164 V 6.1000783 a 2.1854589,2.1086528 0 0 1 1.093682,-1.819771 l 5.208105,-3.029578 a 2.1873659,2.1104928 0 0 1 2.185459,0 l 5.209059,3.029578 a 2.1864124,2.1095728 0 0 1 1.097497,1.822531 z" />
</svg>
