<?xml version="1.0" encoding="UTF-8" standalone="no"?>
<svg
   width="16"
   height="16"
   version="1"
   id="svg566"
   xmlns="http://www.w3.org/2000/svg"
   xmlns:svg="http://www.w3.org/2000/svg">
  <defs
     id="defs570" />
  <path
     id="path2996-71-2-2"
     style="opacity:0.8;fill:#000000;fill-opacity:1;stroke:none;stroke-width:0.0766789"
     d="M 8.5803554,4.8202499 C 7.6288869,4.8364994 6.9311375,5.0899281 6.5529464,5.3183128 6.4049546,5.4076836 6.2630821,5.5022426 6.1271517,5.601525 c 0.7714138,0.1508657 1.2350386,1.3279396 1.2500401,1.6484904 0.0027,0.033279 0.0026,0.014725 0.002,0.052736 C 7.3579012,7.7873137 7.132416,8.1488645 6.6545596,8.1348091 6.4308895,8.1244274 6.2094893,8.0586076 6.0041008,7.8047207 5.9623914,7.7531569 5.9360696,7.6912633 5.8986284,7.6367466 5.6459393,7.2266755 5.3065244,6.9879757 4.9337544,6.839846 4.4741866,7.5448221 4.2188874,8.3879651 4.2188874,9.3692241 c 0,2.8967069 2.3437373,5.0528969 5.2111043,5.0528969 0.9164723,-1.78e-4 2.8552163,-0.316249 4.0352863,-1.31059 h 0.002 l 0.002,-0.002 c 0.21633,-0.197408 0.456636,-0.409217 0.683616,-0.515641 0.680462,-1.083599 1.074253,-2.36994 1.074253,-3.7481673 0,-0.8483245 -0.148447,-1.6616635 -0.421889,-2.4141399 -0.09918,0.00989 -0.200755,0.00967 -0.30079,-0.00195 C 13.654738,6.3309157 13.040239,5.8341953 11.935932,5.4784742 10.984428,5.1719729 10.366929,5.0072376 9.6135916,4.8925178 9.2422247,4.8359653 8.8975116,4.8148335 8.5803554,4.8202499 Z M 5.1935277,13.681863 c 0.0094,0.01036 0.01393,0.01499 0.023441,0.02539 0.024091,0.01807 0.051812,0.03111 0.076172,0.04883 -0.033481,-0.02435 -0.066652,-0.0492 -0.099613,-0.07422 z m 3.0625983,1.197303 c 0.1820079,0.01676 0.3665198,0.02734 0.5527528,0.02734 -0.186561,0 -0.3704449,-0.01056 -0.5527528,-0.02734 z" />
  <path
     id="path3970-2-2-2"
     style="opacity:0.6;fill:#000000;fill-opacity:1;stroke:none;stroke-width:0.0766789"
     d="M 7.8557222,0.00173587 C 3.5173689,0.00173587 2.0277424e-6,3.5547945 2.0277424e-6,7.9375375 2.0277424e-6,12.320282 3.5334964,15.993951 7.8557222,15.994437 c 2.8198128,0.08467 5.4368168,-1.241433 6.2990308,-3.402453 -0.240308,0.112029 -0.498838,0.341633 -0.724633,0.548845 0.01391,-0.01141 0.02731,-0.02161 0.04102,-0.0332 -1.096034,1.165331 -2.945278,1.798886 -4.6622582,1.798886 -3.3227017,0 -6.0309726,-2.721649 -6.0177722,-6.07832 0.003,-0.7536709 0.1419546,-1.4314355 0.3828253,-2.0371746 0.155667,-0.2531503 0.5831727,-0.215845 0.8769812,-0.1699274 0.6927712,0.1082691 1.403564,0.2948772 1.8477153,1.0156576 0.037441,0.054517 0.063762,0.1164103 0.1054724,0.1679741 0.2053885,0.2538869 0.4267887,0.3197065 0.6504118,0.3300888 0.4778564,0.014055 0.7033446,-0.3474954 0.7246323,-0.832058 6.1e-4,-0.038011 6.99e-4,-0.019457 -0.002,-0.052736 C 7.3613583,6.9126071 6.8477828,5.62551 6.0021047,5.5859029 c -0.0094,-3.083e-4 -0.017991,6.012e-4 -0.027341,0 C 5.5056618,5.5569479 5.140759,5.1536246 5.1544255,4.671811 5.200807,4.3644389 5.3408235,4.1204506 5.6153773,3.921787 6.0049028,3.6615498 6.4111158,3.4365354 6.8165878,3.2459841 8.3951605,2.5651189 9.281766,2.386609 10.803044,2.3787687 c 0.09233,-9.4e-4 0.18356,4.394e-4 0.271493,0.00586 0.14278,0.00879 0.274349,0.020296 0.396497,0.033204 h 0.002 l 0.05078,0.2753994 1.373091,1.0234704 A 0.59331467,0.59938555 0 0 1 12.818766,3.4217714 0.59331467,0.59938555 0 0 1 13.412536,2.8221429 0.59331467,0.59938555 0 0 1 14.006305,3.4217714 0.59331467,0.59938555 0 0 1 13.412536,4.0214 0.59331467,0.59938555 0 0 1 13.283625,4.0057745 l 0.402357,0.300791 1.810605,0.3086036 0.257821,-0.3379014 -0.01758,-0.083987 a 0.30756385,0.38650505 0 0 1 -0.12891,0.035157 0.30756385,0.38650505 0 0 1 -0.308604,-0.3867312 0.30756385,0.38650505 0 0 1 0.308604,-0.384778 0.30756385,0.38650505 0 0 1 0.03906,0.00195 C 15.661155,3.1394741 15.664206,2.5525945 15.520031,2.2693868 15.316221,1.8690319 15.169112,1.6987075 14.127409,1.1267719 13.085705,0.55483646 12.156642,0.87481075 12.156642,0.87481075 c 0,0 -0.202791,-0.17077789 -0.304698,-0.28516538 C 11.750039,0.47525853 11.658891,0.37116871 11.500371,0.38260747 11.380393,0.39126504 11.253983,0.63530645 11.19958,0.75371316 10.184995,0.27092995 9.0515576,0.00173587 7.8557222,0.00173587 Z" />
  <path
     id="path3004-7-2-8"
     style="fill:#000000;fill-opacity:1;stroke:none;stroke-width:0.0766789"
     d="M 10.803083,2.3787653 C 9.281805,2.3866056 8.3951995,2.5651155 6.8166268,3.2459807 6.415662,3.4344141 6.0145871,3.6553716 5.6290887,3.9120176 c -0.035221,0.02501 -0.070582,0.051633 -0.1015652,0.078127 -0.216911,0.1854609 -0.3319407,0.4091615 -0.373059,0.6816625 -0.01367,0.4818136 0.3512363,0.8851369 0.8203383,0.9140919 0.0093,6.012e-4 0.017941,-3.083e-4 0.027341,0 0.041971,0.00197 0.082733,0.00778 0.1230509,0.015625 C 6.261429,5.5019618 6.4046056,5.4078917 6.5529424,5.3183128 7.0571966,5.0138 8.1281179,4.6663076 9.6135876,4.8925178 c 0.7533374,0.1147198 1.3708364,0.2794551 2.3223404,0.5859564 1.104307,0.3557212 1.718806,0.8524415 2.568442,0.9512024 0.750937,0.087289 1.533746,-0.4493586 1.494189,-1.363325 -0.0054,0.2333182 -0.213216,0.490966 -0.474626,0.5019692 -0.271749,0.011438 -0.853974,-0.3929026 -0.615253,-0.8769812 0.112427,-0.1153888 0.230625,-0.033317 0.298837,-0.066408 0.1615,-0.078353 0.239982,-0.2077331 0.244149,-0.2148506 C 15.33815,4.4431329 15.166225,4.355785 14.756335,4.2108553 14.401374,4.0853487 14.281081,3.9465533 13.945762,3.6854479 a 0.59331467,0.59938555 0 0 1 -0.53322,0.3359482 0.59331467,0.59938555 0 0 1 -0.59377,-0.5996286 0.59331467,0.59938555 0 0 1 0.218758,-0.4648586 c -0.324021,-0.2704233 -0.754656,-0.4978538 -1.962954,-0.572284 -0.08793,-0.00542 -0.179157,-0.0068 -0.271493,-0.00586 z m 4.648587,2.0313152 c 0.01421,0.00689 0.484816,0.2386859 0.541032,0.5761903 -0.02293,-0.2427126 -0.101983,-0.5104868 -0.253914,-0.7988537 0,0 -0.13563,0.1377087 -0.250008,0.2070379 -0.01175,0.00712 -0.02411,0.011793 -0.03711,0.015626 z M 3.6876204,6.5878848 c -0.2091777,2.3e-4 -0.4112102,0.04379 -0.5097824,0.1992251 -0.2418387,0.6069885 -0.3837613,1.285619 -0.3867314,2.0410811 -0.0132,3.356671 2.6950705,6.07832 6.0177722,6.07832 1.7169802,0 3.5662242,-0.633555 4.6622582,-1.798886 -1.17956,0.997826 -3.123317,1.314318 -4.0411453,1.314496 -2.867367,0 -5.2111043,-2.15619 -5.2111043,-5.0528969 0,-0.9811914 0.2551382,-1.8240564 0.714867,-2.5293781 C 4.6513943,6.7276866 4.3494396,6.667744 4.0509131,6.621089 3.9413285,6.6039624 3.8131264,6.5877469 3.6876204,6.5878848 Z" />
</svg>
