<?xml version="1.0" encoding="UTF-8" standalone="no"?>
<svg
   width="16"
   height="16"
   version="1"
   id="svg566"
   xmlns="http://www.w3.org/2000/svg"
   xmlns:svg="http://www.w3.org/2000/svg">
  <defs
     id="defs570" />
  <path
     id="path379"
     style="display:inline;fill:#000000;stroke-width:1.01752;stroke-linejoin:bevel;enable-background:new;fill-opacity:0.89999998"
     d="M 0.57226562 6.1191406 C 0.33586889 6.8904404 0.20703125 7.7658035 0.20703125 8.7480469 C 0.20703125 12.753216 3.5901998 16 7.7617188 16 C 11.933238 16 15.314453 12.753216 15.314453 8.7480469 C 15.314453 7.7658028 15.185616 6.8904409 14.949219 6.1191406 A 7.1907344 4.909503 0 0 1 7.7617188 10.925781 A 7.1907344 4.909503 0 0 1 0.57226562 6.1191406 z " />
  <path
     id="ellipse389"
     style="display:inline;opacity:0.6;stroke-width:0.661129;stroke-linejoin:bevel;enable-background:new"
     d="M 14.951684,6.0153394 A 7.1907344,4.909503 0 0 1 7.7609496,10.924842 7.1907344,4.909503 0 0 1 0.57021523,6.0153394 7.1907344,4.909503 0 0 1 7.7609496,1.1058364 7.1907344,4.909503 0 0 1 14.951684,6.0153394 Z" />
  <path
     id="path384"
     style="baseline-shift:baseline;display:inline;overflow:visible;vector-effect:none;fill:#000000;stroke-width:0.292151;stroke-linejoin:bevel;enable-background:accumulate;stop-color:#000000"
     d="M 7.6621094 0 C 5.8910988 0 4.2859793 0.46209109 3.1132812 1.21875 C 2.5338059 1.5926444 2.079788 1.9937476 1.7695312 2.4472656 C 1.7695312 2.4472656 1.3068852 2.8613816 1.0292969 3.5273438 C 0.75170863 4.1933057 0.45900191 5.0638142 0.46484375 6.5039062 C 0.46522328 6.6007819 0.83540876 7.307581 0.8359375 7.3085938 C 1.1778795 8.1408071 1.8246332 8.8841691 2.6816406 9.4746094 C 3.9853706 10.372822 5.7804734 10.925781 7.7617188 10.925781 C 9.742964 10.925781 11.536114 10.372822 12.839844 9.4746094 C 13.69159 8.8877936 14.33614 8.150218 14.679688 7.3242188 C 14.68541 7.3123501 15.0465 6.5627533 15.046875 6.4667969 C 15.052675 5.0304418 14.76445 4.2437729 14.533203 3.6152344 C 14.301956 2.9866959 14.052734 2.6992187 14.052734 2.6992188 C 14.021834 2.6643228 13.97818 2.6433531 13.931641 2.640625 C 13.885261 2.637905 13.839422 2.6527387 13.804688 2.6835938 C 13.797193 2.6902641 13.789277 2.697505 13.783203 2.7050781 C 13.452544 2.1433079 12.905442 1.6668642 12.210938 1.21875 C 11.038239 0.46209109 9.4331201 -1.4802974e-16 7.6621094 0 z M 7.6621094 0.30078125 C 9.3806676 0.30078125 10.934707 0.75183977 12.048828 1.4707031 C 12.800842 1.955924 13.352009 2.4560726 13.630859 3.0566406 C 13.393793 2.8258926 13.128299 2.610842 12.839844 2.4121094 C 11.536114 1.5138967 9.7429639 0.9609375 7.7617188 0.9609375 C 5.7804734 0.9609375 3.9853706 1.5138967 2.6816406 2.4121094 C 2.315341 2.6644736 1.986973 2.9431196 1.7050781 3.2460938 C 1.9266966 2.5619541 2.4547278 2.0002185 3.2753906 1.4707031 C 4.3895118 0.75183977 5.9435513 0.30078125 7.6621094 0.30078125 z M 7.7617188 1.1054688 C 9.7158779 1.1054688 11.482554 1.6526532 12.757812 2.53125 C 13.136365 2.7920564 13.471956 3.0814292 13.755859 3.3945312 C 13.809057 3.5863598 13.835938 3.7888824 13.835938 4.0039062 C 13.835938 5.0666966 13.065839 6.0465798 12.015625 6.875 C 10.974608 7.6961664 9.3806676 8.1542969 7.6621094 8.1542969 C 5.9435513 8.1542969 4.4676368 7.6153477 3.3535156 6.8964844 C 2.2393941 6.1776207 1.5859375 5.0940403 1.5859375 4.03125 C 1.5859375 3.8655439 1.5990856 3.7074406 1.6269531 3.5546875 C 1.9382363 3.1800331 2.3215976 2.8358198 2.7636719 2.53125 C 4.0389304 1.6526532 5.80756 1.1054688 7.7617188 1.1054688 z M 14.132812 3.8691406 C 14.183902 3.9427518 14.233581 4.018182 14.279297 4.09375 C 14.461916 4.6828752 14.639394 5.5213397 14.634766 6.6621094 C 14.634462 6.7151256 14.617294 6.9081689 14.619141 7.0722656 C 14.313135 7.9478022 13.659545 8.7322613 12.757812 9.3535156 C 11.482553 10.232112 9.7158779 10.779297 7.7617188 10.779297 C 5.8075599 10.779297 4.0389304 10.232112 2.7636719 9.3535156 C 1.8285736 8.7092741 1.1595874 7.889415 0.86914062 6.9746094 C 0.8564281 6.836781 0.83618886 6.7000804 0.8359375 6.65625 C 0.83188155 5.6561529 0.96505905 4.870776 1.1367188 4.2773438 C 1.1824069 4.1919981 1.2327316 4.1084425 1.2851562 4.0253906 C 1.2851523 4.0274452 1.2851562 4.0291935 1.2851562 4.03125 C 1.2851562 5.2200309 2.016755 6.3937317 3.1894531 7.1503906 C 4.3621511 7.9070495 5.8910988 8.4550781 7.6621094 8.4550781 C 9.4331201 8.4550781 11.075496 7.980484 12.179688 7.1269531 C 13.288478 6.2698673 14.136719 5.1926872 14.136719 4.0039062 C 14.136719 3.9584887 14.13499 3.9135553 14.132812 3.8691406 z " />
  <path
     id="rect386"
     style="display:inline;fill:#000000;fill-opacity:1;stroke-width:0.350581;stroke-linecap:round;stroke-linejoin:round;enable-background:new"
     d="M 8.2716952,5.3538751 14.388637,2.6674369e-4 15.792254,1.4483114 11.273012,5.3502954 Z" />
</svg>
