<?xml version="1.0" encoding="UTF-8" standalone="no"?>
<svg
   width="16"
   height="16"
   version="1"
   id="svg566"
   xmlns="http://www.w3.org/2000/svg"
   xmlns:svg="http://www.w3.org/2000/svg">
  <defs
     id="defs570" />
  <path
     d="m 16.000059,11.410092 c -9.74e-4,-0.0018 -0.0024,-0.0039 -0.004,-0.0061 -0.03359,-0.05094 -0.113514,-0.124283 -0.237179,-0.217817 -0.05997,-0.04543 -0.140943,-0.09428 -0.23469,-0.150879 -0.340143,-0.205388 -0.854199,-0.515934 -1.486671,-1.2906124 -0.018,-0.02186 -0.03421,-0.04403 -0.04875,-0.06603 -0.10181,-0.154013 -0.13572,-0.329991 -0.09846,-0.508916 0.09511,-0.456685 0.615731,-0.806472 0.674845,-0.844881 l 0.0074,-0.0048 0.0075,-0.004 c 0.0679,-0.03514 0.142924,-0.09217 0.175764,-0.130577 -0.05984,-0.03723 -0.266164,-0.123559 -0.918536,-0.15546 l -0.09385,-0.0044 c -2.23183,-0.104944 -2.491401,-0.231236 -2.587773,-0.377107 -0.03838,-0.06045 -0.15538,-0.244709 0.329053,-0.923014 0.115415,-0.161862 1.548302,-2.246517 1.687558,-2.46811 0.297982,-0.474498 0.306766,-0.678412 0.288044,-0.710742 -5.56e-4,-4.31e-4 -0.0179,-0.01224 -0.07189,-0.01224 -0.109122,0 -0.367652,0.04853 -0.939027,0.33867 -0.04007,0.02041 -0.08108,0.03035 -0.12096,0.03035 -0.08464,0 -0.164165,-0.04468 -0.219718,-0.128703 -0.140192,-0.212486 -0.161325,-0.735625 -0.186556,-1.642246 -0.02154,-0.773847 -0.04832,-1.736851 -0.22411,-2.003122 -0.0097,-0.01476 -0.01718,-0.02229 -0.0184,-0.02419 -1.39e-4,-4.04e-4 -4.17e-4,-6.27e-4 -1.07e-4,-6.27e-4 v 0 c -0.0095,-0.0031 -0.02052,-0.0046 -0.03308,-0.0046 -0.272457,0 -1.222357,0.714733 -1.7434332,1.106759 -0.8713416,0.655618 -1.2965506,0.954433 -1.5592576,0.954433 -0.04457,0 -0.08445,-0.0086 -0.121067,-0.02553 -0.165826,-0.07658 -0.290644,-0.253199 -0.411284,-0.423847 -0.0657,-0.09292 -0.188031,-0.265975 -0.234904,-0.278537 -9.74e-4,2.22e-4 -0.09522,0.03632 -0.243582,0.432016 -0.178281,0.475033 -0.348607,1.125187 -0.498977,1.698763 -0.316704,1.208676 -0.447792,1.639541 -0.675061,1.72753 -0.02812,0.01101 -0.05721,0.01634 -0.0863,0.01634 -0.04543,0 -0.09029,-0.01318 -0.13039,-0.03913 -0.101675,-0.06581 -0.241467,-0.253414 -0.615088,-0.773017 -0.358893,-0.499167 -1.189119,-1.653657 -1.466584,-1.706584 -0.0057,0.01264 -0.0136,0.03557 -0.02009,0.07449 -0.123665,0.741491 -0.180074,1.079974 -0.728738,1.127491 -0.0882,0.0076 -0.269937,0.0085 -0.521261,0.0097 -1.579585,0.0072 -2.450828,0.09091 -2.590508,0.248806 0.0024,0.0247 0.02082,0.105373 0.141459,0.288154 0.18268,0.276529 0.499496,0.638556 0.806057,0.988744 0.306353,0.350081 0.595756,0.680716 0.766302,0.939031 0.095,0.143783 0.145853,0.253226 0.160918,0.347912 0.02543,0.06329 0.03432,0.150451 -0.0018,0.24377 -0.08339,0.214174 -0.372163,0.38367 -0.882333,0.517515 0.0016,0.0056 0.0057,0.01559 0.01527,0.03003 0.04583,0.06935 0.231646,0.258851 0.968128,0.520407 0.240961,0.08571 0.428152,0.148791 0.574317,0.198183 0.414952,0.140086 0.540198,0.18246 0.632982,0.323081 0.036,0.05451 0.0563,0.111747 0.08204,0.184041 l 0.02102,0.05871 c 0.118015,0.320777 -0.237823,0.595217 -0.61458,0.885889 -0.223064,0.172014 -0.47596,0.3670354 -0.546061,0.5186404 -0.09061,0.196279 -0.08329,0.304465 -0.0767,0.339954 l 0.0083,-0.0044 0.0061,0.0432 c 8.35e-4,0.0016 0.0018,0.0031 0.003,0.0049 0.01569,0.02376 0.06759,0.08236 0.211864,0.114908 0.06645,0.01505 0.199011,0.03241 0.352597,0.05271 0.640133,0.08464 1.831527,0.242003 2.456901,0.736188 0.115418,0.09123 0.200353,0.179112 0.259494,0.268682 0.11622,0.175978 0.133495,0.364839 0.05011,0.544915 l -1.367611,3.018124 c -0.01706,0.139994 -0.01382,0.366412 0.04687,0.458381 0.01569,0.02365 0.02732,0.02783 0.04781,0.02835 0.0094,1.39e-4 0.01882,4.17e-4 0.02815,4.17e-4 0.259682,0 0.486202,-0.08151 0.583726,-0.122523 l 1.450673,-3.082469 0.02501,-0.02322 c 0.0134,-0.01235 0.273609,-0.248834 0.643241,-0.248834 0.0859,0 0.177879,0.01288 0.273929,0.04428 0.11989,0.03212 1.560732,0.44048 2.438904,1.746046 l 0.0047,0.0069 0.0037,0.007 c 0.0014,0.0025 0.01182,0.02093 0.02877,0.04677 0.07031,0.106512 0.130471,0.152549 0.154764,0.162071 0.02207,-0.01842 0.1197826,-0.125242 0.1894756,-0.615952 -0.02563,-0.680517 0.0092,-1.514309 0.3153392,-1.66152 0.106631,-0.05116 0.236886,-0.06643 0.354393,-0.06643 0.129316,0 0.243153,0.0185 0.292946,0.02804 0.16805,0.03179 0.550565,0.256655 1.114923,0.596262 0.131515,0.07912 0.2551,0.153397 0.356588,0.212514 0.246503,0.143354 0.378124,0.202255 0.44696,0.226012 -1.06e-4,-0.01559 -4.18e-4,-0.03161 -5.57e-4,-0.04572 -5.57e-4,-0.02502 -9.74e-4,-0.05097 -8.35e-4,-0.07787 4.18e-4,-0.07114 -0.0043,-0.172309 -0.0092,-0.279343 -0.02585,-0.551102 -0.02973,-0.842174 0.177852,-0.918753 0.03694,-0.0136 0.08129,-0.01882 0.166254,-0.01882 0.06592,0 0.156318,0.0031 0.286679,0.008 0.168451,0.0063 0.385248,0.01436 0.620446,0.01436 0.471149,0 1.016276,-0.03244 1.39472,-0.176835 0.141986,-0.05419 0.463487,-0.176808 0.535994,-0.249957"
     style="fill:#000000;fill-opacity:1;fill-rule:nonzero;stroke:none;stroke-width:0.026785"
     id="path46" />
</svg>
