<?xml version="1.0" encoding="UTF-8" standalone="no"?>
<svg
   width="16"
   height="16"
   version="1"
   id="svg566"
   xml:space="preserve"
   xmlns="http://www.w3.org/2000/svg"
   xmlns:svg="http://www.w3.org/2000/svg"><defs
     id="defs570" /><path
     d="M 2.88304,10.83281 C 2.08639,10.2387 1.09421,9.54107 0,8.74642 L 3.87523,7.25664 5.46703,8.44937 C 4.2743,9.84013 3.48015,10.33772 2.88304,10.83531 Z M 13.51803,6.66003 C 13.21848,5.86588 13.02044,5.06923 12.72139,4.27408 12.42483,3.37792 12.12777,2.58377 11.62968,1.88814 11.42964,1.59158 11.03357,0.89345 10.53598,0.89345 c -0.0995,0 -0.19804,0.0985 -0.29956,0.0985 C 9.93886,1.09397 9.54079,1.68758 9.44177,2.08615 9.14521,2.58375 8.5456,3.3779 8.15003,3.87499 8.05053,4.07303 7.84997,4.27356 7.75145,4.37308 7.4549,4.57062 7.15484,4.87068 6.75927,5.06871 c -0.10202,0 -0.20054,0.0985 -0.29956,0.0985 -0.29755,0 -0.49809,0.19804 -0.69563,0.29656 -0.29756,0.30005 -0.59661,0.69563 -0.89367,0.99568 0,0.0985 -0.10202,0.19754 -0.20053,0.29956 l 1.49228,1.0907 C 7.25636,6.55797 8.5481,5.26573 9.44127,2.78126 c 0,0 -0.29656,2.68501 -2.6825,5.56655 -1.49278,1.69031 -2.68601,2.58598 -2.88404,2.78402 0,0 0.39607,-0.0985 0.79465,0.0995 0.79664,0.29655 1.19272,1.39076 1.49228,2.18491 0.19803,0.59661 0.49459,1.0942 0.69563,1.69031 0.79464,-0.19803 1.29224,-0.49759 1.78983,-0.99468 0.49459,-0.49459 0.99219,-1.09171 1.48978,-1.5888 0.89617,-1.0937 1.98787,-2.48447 3.37863,-1.78883 0.20004,0.0985 0.4976,0.29955 0.59612,0.39807 0.29955,0.19804 0.49759,0.39607 0.79665,0.69563 0.49559,0.39607 0.69563,0.69563 1.0917,0.89367 -0.99219,-1.98687 -1.68782,-3.97475 -2.48447,-6.06364 z"
     id="path1"
     style="fill:#000000;stroke-width:0.500094" /></svg>
