<?xml version="1.0" encoding="UTF-8" standalone="no"?>
<svg
   width="16"
   height="16"
   version="1"
   id="svg566"
   xmlns="http://www.w3.org/2000/svg"
   xmlns:svg="http://www.w3.org/2000/svg">
  <defs
     id="defs570" />
  <path
     d="M 3.935964,0.04711135 C 3.7904843,0.03094694 3.6611689,0.01478252 3.580347,0.01478252 c -0.7273983,0 -1.4547967,0.58191862 -1.5679476,1.24465928 C 1.9154131,1.8575249 2.190208,2.2131419 2.9337707,2.4394437 2.4811673,2.8273893 2.190208,3.3123216 2.0932215,3.845747 1.996235,4.4599944 2.1740435,4.9772556 2.6913045,5.5591742 2.0608926,5.9794488 1.7537689,6.2219149 1.4143163,6.545203 0.71924681,7.2241082 0.20198585,8.210137 0.05650611,9.1476726 -0.16979554,10.424661 0.29897235,11.604663 1.1880147,12.089595 c 0.4849321,0.25863 1.0830153,0.355617 2.0690442,0.355617 0.2909593,0 0.6465763,-0.01616 1.4224677,-0.04849 0.6304119,-0.03233 1.0506865,0.436439 0.9537,1.066851 -0.096986,0.614248 -0.6142474,1.066851 -1.2123305,1.066851 -0.080822,0 -0.3879458,-0.03233 -0.6950695,-0.09699 -0.3717814,-0.04849 -0.5010965,-0.06466 -0.6465763,-0.06466 -0.4041102,0 -0.7273984,0.274795 -0.7920558,0.678905 -0.096986,0.54959 0.3879456,0.937536 1.1800016,0.937536 0.7597272,0 1.3901391,-0.323288 2.0367154,-1.018358 C 6.0696657,14.35261 6.4414471,13.609047 6.5707624,12.865484 6.7000775,12.138088 6.5222691,11.572334 6.0696657,11.184388 5.7463775,10.893429 5.3907606,10.812607 4.6633622,10.812607 H 3.2570589 c -0.6950696,0 -1.2284951,-0.06466 -1.50329,-0.193973 C 1.123357,10.31151 0.76774006,9.5517828 0.9132198,8.7112337 1.1071926,7.5635607 1.9639063,6.5936963 3.4510317,5.8178047 3.8713063,5.9794488 4.1945945,6.0279421 4.695691,6.0279421 c 1.2769882,0 2.101373,-0.3394526 2.1983595,-0.905207 C 6.958708,4.7509539 6.5707624,4.5408165 5.8595284,4.5408165 c -0.6304118,0 -1.2446593,0.1778086 -2.45699,0.6789051 C 2.788291,4.7186251 2.626647,4.395337 2.7074689,3.8780758 2.788291,3.3769793 3.1762368,2.892047 3.8551419,2.4394437 4.6633622,2.4071148 5.2291166,2.3101284 5.7140487,2.0838267 6.2959673,1.8090316 6.7324064,1.4049216 6.7808996,1.0331402 6.8455573,0.72601647 6.6030912,0.54820789 6.1504878,0.54820789 c -0.5980831,0 -1.3254815,0.37178139 -2.5054833,1.29315261 C 3.1277436,1.8251964 2.8367842,1.5180723 2.9176063,1.0977979 2.9660994,0.74218089 3.2893877,0.49971464 3.8874708,0.33807066 Z"
     id="use3"
     style="fill:#000000;stroke-width:0.134703;opacity:0.6" />
  <path
     d="m 9.17862,2.180813 h 2.731785 c 1.875071,0 2.376168,0.3717814 2.650964,1.9720577 h 0.420274 L 14.819999,1.5180723 H 6.8347809 L 10.358622,7.2241082 6.559986,12.396718 h 8.567135 L 16,9.4871252 H 15.579726 C 15.062465,10.780278 14.577533,11.055073 12.702461,11.055073 H 8.3865641 L 11.797254,6.4320521 Z"
     id="use6"
     style="fill:#000000;stroke-width:0.134703;opacity:0.6" />
  <path
     d="m 11.558021,4.4481406 v 5.8579814 c 0,1.073317 -0.155178,1.241426 -1.176769,1.306084 h 3.620827 v 0 c -0.944001,-0.06466 -1.125043,-0.245699 -1.125043,-1.163837 V 4.7067711 c 0,-0.9181384 0.16811,-1.0862482 1.125043,-1.1638372 V 3.2972348 H 11.428706 L 8.5708383,9.8276553 5.5836558,3.2972348 H 3.0232137 v 0.2456991 c 1.0603851,0.064658 1.228495,0.2198358 1.228495,1.1638372 v 5.2501995 c 0,1.3319474 -0.1810414,1.5776464 -1.2543581,1.6552354 h 3.0389086 v 0 C 5.0405318,11.56048 4.8206958,11.263055 4.8206958,9.9569706 V 4.7455657 l 3.245813,7.1123393 h 0.1810414 z"
     id="use9"
     style="fill:#000000;stroke-width:0.134703" />
</svg>
