<?xml version="1.0" encoding="UTF-8" standalone="no"?>
<svg
   height="16px"
   viewBox="0 0 16 16"
   width="16px"
   version="1.1"
   id="svg135"
   xmlns="http://www.w3.org/2000/svg"
   xmlns:svg="http://www.w3.org/2000/svg">
  <defs
     id="defs139" />
  <path
     d="M 0.3874351,2.20338e-4 C 0.17090116,0.01294633 2.0015748e-6,0.22086148 2.0015748e-6,0.47650462 V 15.523707 C 2.0015748e-6,15.787606 0.18222556,16 0.4086377,16 H 0.90336958 V 2.20338e-4 H 0.4086377 c -0.007074,0 -0.014218,-3.5999991e-4 -0.021204,0 z"
     id="path3018"
     style="display:inline;fill:#000000;fill-opacity:1;stroke:none;stroke-width:0.35546" />
  <path
     d="M 1.787462,2.8338051e-5 V 15.999992 h 0.5287852 c 0.2264118,0 0.4086351,-0.21239 0.4086351,-0.476292 V 0.47632682 C 2.7248823,0.21243628 2.542659,2.8338051e-5 2.3162472,2.8338051e-5 Z"
     id="rect3006"
     style="display:inline;fill:#000000;fill-opacity:0.60000002;stroke:none;stroke-width:0.35546" />
  <rect
     width="0.88409227"
     height="15.999959"
     rx="0"
     ry="0"
     x="0.90324426"
     y="3.948712e-05"
     id="rect3010"
     style="display:inline;fill:#000000;fill-opacity:0.30000001;stroke:none;stroke-width:0.35546" />
  <path
     id="path3792"
     style="display:inline;fill:#000000;fill-opacity:1;stroke:none;stroke-width:0.0190783"
     d="M 6.5703125 5.6933594 A 2.2821017 2.3827993 0 0 0 4.2871094 8.078125 A 2.2822266 2.3829298 0 0 0 8.8515625 8.078125 A 2.2821017 2.3827993 0 0 0 6.5703125 5.6933594 z M 6.5664062 6.8144531 C 6.8418545 6.8144566 7.0598889 6.8874746 7.2226562 7.03125 C 7.3854203 7.1750287 7.4667952 7.3422608 7.4667969 7.5332031 C 7.4667952 7.6389076 7.4367081 7.7377003 7.3769531 7.8320312 C 7.3171948 7.9263693 7.1899133 8.0562204 6.9941406 8.21875 C 6.8928373 8.3028583 6.8311113 8.3707296 6.8066406 8.421875 C 6.7821672 8.4730205 6.7711573 8.5634722 6.7734375 8.6953125 L 6.3378906 8.6953125 C 6.3367506 8.6328006 6.3359375 8.5956709 6.3359375 8.5820312 C 6.3359367 8.4410978 6.359581 8.3252995 6.40625 8.234375 C 6.4529185 8.1434504 6.5455445 8.0394387 6.6855469 7.9257812 C 6.825547 7.8121238 6.9101811 7.7383611 6.9375 7.703125 C 6.9796129 7.6474329 6.9999986 7.5865934 7 7.5195312 C 6.9999986 7.426337 6.9632241 7.3457871 6.8886719 7.2792969 C 6.8141171 7.2128101 6.7122788 7.1796875 6.5859375 7.1796875 C 6.4641468 7.1796875 6.3632008 7.2138751 6.28125 7.2832031 C 6.1992971 7.3525351 6.1420594 7.4594924 6.1113281 7.6015625 L 5.671875 7.546875 C 5.6843963 7.3434296 5.7705819 7.1694174 5.9316406 7.0273438 C 6.0926984 6.8852737 6.3046143 6.8144566 6.5664062 6.8144531 z M 6.3378906 8.8613281 L 6.8164062 8.8613281 L 6.8164062 9.3398438 L 6.3378906 9.3398438 L 6.3378906 8.8613281 z " />
  <path
     d="m 7.6746119,3.2733329 c -0.1082608,0 -0.2151468,0.00356 -0.3216543,0.01063 2.1009238,0.1608364 3.7627164,2.2093663 3.7627164,4.7136434 0,2.5042737 -1.6617926,4.5535177 -3.7627164,4.7143577 0.1065075,0.0067 0.2133935,0.01063 0.3216543,0.01063 2.6961431,0 4.8820741,-2.115796 4.8820741,-4.7250579 0,-2.6092441 -2.185931,-4.7243332 -4.8820741,-4.7243332 z"
     id="path3813"
     style="display:inline;fill:#000000;stroke:none;stroke-width:0.35546" />
  <path
     d="M 6.6713721,1.380582e-7 C 10.847716,0.05536132 14.216746,3.6149346 14.216746,7.9979965 c 0,4.3830625 -3.36903,7.9426395 -7.5453739,7.9979935 5.1611609,-0.04495 9.3286259,-3.608394 9.3286259,-7.9979935 0,-4.3895995 -4.167465,-7.95303697 -9.3286259,-7.9979963619418 z"
     id="path3042"
     style="fill:#000000;stroke:none;stroke-width:0.35546" />
</svg>
