<?xml version="1.0" encoding="UTF-8" standalone="no"?>
<svg
   width="16"
   height="16"
   version="1"
   id="svg566"
   xmlns="http://www.w3.org/2000/svg"
   xmlns:svg="http://www.w3.org/2000/svg">
  <defs
     id="defs570" />
  <path
     d="m 3.3010686,12.933223 c 0.0412,-0.04117 0.0645,-0.16356 0.0519,-0.271983 -0.0181,-0.155527 -0.0708,-0.209438 -0.24955,-0.255436 l -0.22656,-0.0583 -0.0186,-4.0673638 c -0.0141,-3.07094 0.002,-4.084253 0.0645,-4.136301 0.11981,-0.0994 0.3166,0.02527 0.59311,0.375752 0.54161,0.68651 0.52956,0.681524 1.65308,0.683836 1.32741,0.0027 1.32622,0.09377 0.0175,-1.33292 -0.3275,-0.357026 -0.63228,-0.699217 -0.67729,-0.760424 -0.0709,-0.09644 -0.35787,-0.114139 -2.15151,-0.132675 -2.14341997,-0.02215 -2.35515997,0.0013 -2.35515997,0.260463 0,0.161199 0.12321,0.26572 0.35027,0.297128 l 0.17513,0.02423 v 4.413367 4.4133668 l -0.17513,0.02423 c -0.35751,0.04945 -0.47238,0.337649 -0.20831,0.522611 0.1131,0.07922 0.44084,0.09698 1.61190997,0.08736 0.9334,-0.0077 1.49727,-0.0394 1.5448,-0.08693 z m 12.6054604,0.0042 c 0.0434,-0.04347 0.0687,-0.167481 0.056,-0.275586 -0.0175,-0.149255 -0.0721,-0.209594 -0.22718,-0.250749 -0.1123,-0.02981 -0.23027,-0.09494 -0.26215,-0.144735 -0.0319,-0.0498 -0.0573,-1.985065 -0.0565,-4.3005968 0.002,-4.480551 -0.004,-4.407942 0.3401,-4.454099 0.22024,-0.02954 0.32235,-0.293189 0.17184,-0.443698 -0.096,-0.096 -0.37599,-0.107398 -2.19976,-0.08957 l -2.08977,0.02043 -0.15814,0.175133 c -0.087,0.09632 -0.4828,0.525605 -0.87959,0.953959 -0.6754604,0.729189 -0.8759204,1.07112 -0.6338804,1.081259 0.4170104,0.01747 1.8987104,-0.01863 1.9648604,-0.04787 0.0463,-0.02047 0.28888,-0.271097 0.53904,-0.556941 0.44597,-0.509581 0.59098,-0.607345 0.64101,-0.432149 0.0138,0.04816 0.0166,1.903664 0.006,4.123339 l -0.0186,4.0357728 -0.21926,0.06288 c -0.4153,0.119109 -0.44787,0.489759 -0.0521,0.592948 0.30502,0.07953 2.9919,0.03611 3.07772,-0.04973 z m -8.5328204,-2.766416 0.65891,-0.7088188 0.65566,0.7088188 0.65566,0.708819 h 1.2440304 c 1.17451,0 1.24646,-0.0077 1.28765,-0.137461 0.0811,-0.255464 -0.079,-0.422949 -0.40443,-0.423131 -0.22341,-1.4e-4 -0.34721,-0.04701 -0.50871,-0.192647 -0.43713,-0.3941958 -1.7130204,-1.8237508 -1.7130204,-1.9193338 0,-0.05453 0.42402,-0.555209 0.9422604,-1.112618 0.9236,-0.993388 0.94893,-1.014164 1.27848,-1.048496 0.28518,-0.02971 0.33968,-0.05954 0.3591,-0.196503 0.0474,-0.334127 -0.0582,-0.363925 -1.28961,-0.363925 H 9.3952086 l -0.45079,0.472861 c -0.24794,0.260073 -0.53573,0.575314 -0.63954,0.700534 -0.1038,0.125221 -0.22534,0.227446 -0.27007,0.227167 -0.0447,-2.8e-4 -0.31495,-0.260352 -0.60048,-0.577941 -0.76342,-0.849153 -0.69855,-0.821618 -1.93686,-0.822159 -1.15236,-4.91e-4 -1.3243,0.04698 -1.281,0.35373 0.0212,0.150458 0.0645,0.173797 0.35696,0.192563 0.33185,0.02129 0.33561,0.0244 1.30923,1.082175 0.59933,0.651129 0.95779,1.093825 0.92816,1.146279 -0.0265,0.047 -0.36762,0.426935 -0.75795,0.844295 -0.39034,0.41736 -0.78848,0.852176 -0.88476,0.9662578 -0.14225,0.168536 -0.2456,0.214502 -0.55127,0.245187 -0.32699,0.03283 -0.37922,0.05905 -0.39926,0.20048 -0.0507,0.358014 -0.0343,0.362686 1.27545,0.362686 h 1.22176 z"
     style="fill:#000000;stroke-width:0.0700534"
     id="path1-9" />
</svg>
