<?xml version="1.0" encoding="UTF-8" standalone="no"?>
<svg
   width="16"
   height="16"
   version="1.1"
   id="svg10191"
   xmlns="http://www.w3.org/2000/svg"
   xmlns:svg="http://www.w3.org/2000/svg">
  <defs
     id="defs10195" />
  <path
     style="opacity:0.25007;fill:#000000;stroke-width:0.250074"
     class="cls-1"
     d="m 13.634589,11.420945 c -0.670989,0.660172 -1.711844,0.816876 -2.540226,0.820945 -2.5883607,0 -4.8430566,-1.990253 -4.8430566,-4.2747222 C 6.2580564,7.3432469 6.601886,6.771805 7.1500123,6.4735388 5.6127997,7.3464004 4.6995465,8.5508553 4.575448,10.146606 c -0.3006166,3.865549 3.3562139,4.743976 4.1586495,4.743976 0.4326695,0 1.08523,-0.12579 1.4768755,-0.249394 l 0.07166,-0.02406 c 1.507093,-0.520943 2.791899,-1.539389 3.642958,-2.887718 0.121549,-0.191479 -0.09273,-0.418615 -0.290998,-0.308461 z"
     id="path413" />
  <path
     style="fill:#000000;stroke-width:0.250074;opacity:0.50001934"
     class="cls-3"
     d="M 6.5685968,14.203655 C 6.0807155,13.900884 5.6579023,13.504155 5.3247399,13.036535 3.7081362,10.821982 4.690187,7.6850882 7.1500123,6.4735388 7.3206735,6.3931424 7.6122193,6.2476623 8.0000362,6.2547729 c 0.5538829,0.00405 1.0739219,0.2671533 1.4052188,0.7109909 0.2208875,0.2948883 0.3426749,0.6521579 0.3478862,1.0205458 0,-0.011484 1.3379398,-4.3534544 -4.3759259,-4.3534544 -2.40129,0 -4.3759267,2.2784535 -4.3759267,4.2774332 -0.009472,1.0574337 0.2168127,2.1036926 0.6624059,3.0627316 1.5073782,3.215767 5.1849609,4.789082 8.5546015,3.665988 -1.1535501,0.363659 -2.6193029,0.208126 -3.6447758,-0.433164 z"
     id="path417" />
  <path
     style="fill:#000000;stroke-width:0.250074;opacity:1"
     class="cls-5"
     d="m 9.3275826,8.8314593 c -0.044307,0.057426 -0.1805074,0.1367284 -0.1805074,0.3095544 0,0.1427448 0.092989,0.2800213 0.2581798,0.3954209 0.786573,0.5469164 2.269465,0.4747234 2.273294,0.4747234 0.582833,-0.0014 1.154619,-0.1591055 1.655741,-0.456676 C 14.362943,8.9539365 14.996342,8.1633302 14.998783,6.9723267 15.013005,5.746687 14.56119,4.931782 14.378495,4.5708168 13.219422,2.3038485 10.717486,0.99999979 7.9967539,0.99999979 4.1680681,0.99962133 1.0547299,4.0835866 1.000889,7.9113727 1.0271444,5.9129405 3.0081979,4.0495389 5.3711984,4.0495389 c 0.191446,0 1.2832404,0.018595 2.297361,0.550745 0.893783,0.4692536 1.3620073,1.2760227 1.6874667,1.8377059 0.4730421,0.892456 0.4934,1.7121542 -0.028443,2.3934695 z"
     id="path421" />
</svg>
