<?xml version="1.0" encoding="UTF-8" standalone="no"?>
<svg
   height="15.453746"
   viewBox="0 0 16.001253 15.453746"
   width="16.001253"
   version="1.1"
   id="svg364"
   xmlns="http://www.w3.org/2000/svg"
   xmlns:svg="http://www.w3.org/2000/svg">
  <defs
     id="defs368" />
  <g
     id="g2"
     transform="matrix(0.37180226,0,0,0.36947397,-1.1020219,-1.537081)">
    <path
       fill="#e9b96e"
       stroke="#573a0d"
       d="m 3.464,22 v 10.592764 a 2.4373903,2.4373903 59.999857 0 0 1.2187057,2.110848 l 16.8636143,9.7361 a 5.8376178,5.8376178 179.70427 0 0 5.889599,-0.0304 L 44.740939,34.17875 A 1.5456631,1.5456631 119.70441 0 0 45.5,32.848212 V 22.970551 A 1.2151092,1.2151092 59.999726 0 0 44.892435,21.91823 L 25.703116,10.839515 a 2.9082744,2.9082744 179.99996 0 0 -2.90823,3e-6 z"
       id="path1"
       style="fill:#000000;fill-opacity:0.501577;stroke:#000000;stroke-opacity:1"
       transform="translate(0,0.26506176)" />
    <path
       fill="#2e3436"
       d="M 8.1785199,30.721345 7.0195816,30.052058 A 0.34636525,0.34636525 150.00322 0 0 6.5,30.352 v 5.4 l 10.492149,6.058123 A 0.21922966,0.21922966 150.00098 0 0 17.321,41.620268 V 40.364381 A 0.63113513,0.63113513 60.000364 0 0 17.005439,39.817806 L 16.009415,39.242734 A 0.84084767,0.84084767 60.000364 0 1 15.589,38.514543 V 37.358631 A 0.62114516,0.62114516 59.999129 0 0 15.278411,36.820694 L 13.864729,36.004561 A 0.72941878,0.72941878 59.999129 0 1 13.5,35.372855 V 32.259232 A 0.80583933,0.80583933 60.001068 0 0 13.097106,31.561369 L 8.7830712,29.070445 A 0.1887101,0.1887101 150.00107 0 0 8.5,29.23387 v 1.301893 a 0.21430619,0.21430619 150.00322 0 1 -0.3214801,0.185582 z"
       id="path2"
       style="fill:#000000;fill-opacity:0.399256;stroke:#000000;stroke-opacity:1"
       transform="translate(0,0.26506176)" />
    <path
       fill="#555753"
       d="m 6.928,36 2.9948283,-1.729116 a 0.93832283,0.93832283 0 0 1 0.9383437,0 L 13.856,36 15.145234,36.744211 A 0.70944033,0.70944033 59.997859 0 1 15.5,37.358631 l 0,1.212564 a 0.65446257,0.65446257 60.003217 0 0 0.327168,0.566744 l 1.289063,0.744435 A 0.76768671,0.76768671 60.003217 0 1 17.5,40.547167 V 42.104 Z"
       id="path3"
       style="fill:#000000;fill-opacity:0.351791;stroke:#000000;stroke-opacity:1"
       transform="translate(0,0.26506176)" />
    <path
       fill="#fce94f"
       stroke="#625802"
       d="m 25.981,19 5.035052,2.90754 A 0.96803325,0.96803325 60.002351 0 1 31.5,22.745841 V 24.187 l 6.594,3.813 3.469,-2 3.938,-2.269 v 2.539 -3.297083 c 0,-0.38821 -0.272442,-0.860447 -0.608576,-1.054667 C 42.408727,20.483158 36.747875,17.216377 32.909,15 Z"
       id="path4"
       style="fill:#000000;fill-opacity:0.501312;stroke:#000000;stroke-linejoin:round;stroke-opacity:1"
       transform="translate(0,0.26506176)" />
    <path
       fill="#73d216"
       stroke="#325b09"
       d="M 23.524483,10.418292 4.3617212,21.48171 a 0.59848389,0.59848389 90.00071 0 0 -1.28e-5,1.036602 l 11.8439246,6.838356 a 2.6156201,2.6156201 0.25639736 0 0 2.59537,0.01162 l 11.65865,-6.592967 a 0.68292018,0.68292018 90.255427 0 0 0.0053,-1.185885 L 24.84,18.342 l 6.928,-4 -6.794524,-3.923637 a 1.4488894,1.4488894 0.00281411 0 0 -1.448993,-7.1e-5 z"
       id="path6"
       style="fill:#000000;fill-opacity:0.501666;stroke:#000000;stroke-linejoin:round;stroke-opacity:1"
       transform="translate(0,0.26506176)" />
    <path
       fill="#729fcf"
       stroke="#19314b"
       d="m 17.5,32.104 v 1.629901 a 0.64080714,0.64080714 59.991352 0 0 0.320571,0.555052 l 0.949302,0.547698 A 0.56595739,0.56595739 59.991352 0 1 19.053,35.32687 v 0.863912 a 1.4016459,1.4016459 60.000683 0 0 0.700794,1.213844 l 2.595114,1.498372 a 4.2580529,4.2580529 179.74455 0 0 4.291024,-0.01913 L 36.278598,33.20348 A 0.44975069,0.44975069 119.74387 0 0 36.5,32.81601 v -1.478809 a 0.7123134,0.7123134 119.99678 0 1 0.356087,-0.616841 l 1.354565,-0.782262 A 0.57880844,0.57880844 119.99678 0 0 38.5,29.436868 V 28.227 l -7,-4.041 -14,7.917 z"
       id="path7"
       style="fill:#000000;fill-opacity:0.595991;stroke:#000000;stroke-opacity:1"
       transform="translate(0,0.26506176)" />
    <path
       fill="#c17d11"
       stroke="#8f5902"
       d="m 12.123999,23.265062 1.732,1 1.732,-1 v -6 l -1.732,-1 -1.732,1 z"
       id="path9"
       style="display:inline;fill:#000000;fill-opacity:0.501334;stroke:#000000;stroke-opacity:1" />
    <path
       fill="#4e9a06"
       stroke="#316004"
       d="m 7.7760806,16.489747 4.8038384,2.773506 a 2.5521314,2.5521314 179.99976 0 0 2.552155,-1.1e-5 l 4.091852,-2.362484 A 2.5521912,2.5521912 119.99973 0 0 20.5,14.690508 l 0,-5.381016 A 2.5521912,2.5521912 60.000274 0 0 19.223926,7.0992418 L 15.132074,4.7367582 a 2.5521314,2.5521314 2.409131e-4 0 0 -2.552155,-1.07e-5 L 7.7760806,7.5102525 A 2.5521664,2.5521664 119.99997 0 0 6.5,9.720492 v 4.559016 a 2.5521664,2.5521664 60.000033 0 0 1.2760806,2.210239 z"
       id="path10"
       style="display:inline;fill:#000000;fill-opacity:1;stroke:#000000;stroke-opacity:1"
       transform="translate(0,0.26506176)" />
    <path
       fill="#4e9a06"
       stroke="#316004"
       d="m 36.789928,23.240454 1.025144,0.592092 a 0.57994566,0.57994566 0.01094013 0 0 0.57992,1.11e-4 l 0.815016,-0.470314 A 0.57976542,0.57976542 120.00622 0 0 39.5,22.860188 v -7.719376 a 0.58012544,0.58012544 60.009184 0 0 -0.289902,-0.502311 l -0.815196,-0.471002 a 0.53808035,0.53808035 178.12711 0 0 -0.568242,0.01858 l -1.04832,0.70084 A 0.62657451,0.62657451 118.11793 0 0 36.5,15.407812 v 7.330376 a 0.58002112,0.58002112 60.004723 0 0 0.289928,0.502266 z"
       id="path12"
       style="fill:#000000;fill-opacity:1;stroke:#000000;stroke-opacity:1"
       transform="translate(0,0.26506176)" />
    <path
       fill="none"
       stroke="#ef2929"
       stroke-dasharray="0.5, 0.5"
       stroke-dashoffset="0.25"
       stroke-width="0.5"
       d="m 12.123999,33.265062 -0.866,-0.5"
       id="path13"
       style="fill:#000000;fill-opacity:1;stroke:#000000;stroke-opacity:1" />
    <path
       fill="#888a85"
       stroke="#2e3436"
       stroke-dashoffset="0.5"
       d="m 45.5,26.731 -3.599834,2.078004 A 0.80022813,0.80022813 120.00215 0 0 41.5,29.502052 v 0.127605 a 0.71082714,0.71082714 119.99678 0 1 -0.355344,0.615554 l -1.126584,0.650602 A 1.0363463,1.0363463 119.99678 0 0 39.5,31.793257 v 1.092097 a 0.53639136,0.53639136 119.99678 0 1 -0.268144,0.464499 l -1.063714,0.614295 a 1.3273346,1.3273346 119.82497 0 0 -0.663515,1.157392 l 0.01993,3.323467 7.573065,-4.476177 A 0.81921482,0.81921482 119.70707 0 0 45.5,33.263594 Z"
       id="path14"
       style="fill:#000000;fill-opacity:0.596035;stroke:#000000;stroke-opacity:1"
       transform="translate(0,0.26506176)" />
  </g>
</svg>
