<?xml version="1.0" encoding="UTF-8" standalone="no"?>
<svg
   height="16px"
   viewBox="0 0 16 16"
   width="16px"
   version="1.1"
   id="svg204"
   xml:space="preserve"
   xmlns="http://www.w3.org/2000/svg"
   xmlns:svg="http://www.w3.org/2000/svg"><defs
     id="defs208" /><path
     id="rect3840-5-7"
     style="display:inline;overflow:visible;fill:#000000;fill-opacity:1;stroke-width:0.544913;marker:none;enable-background:accumulate"
     d="m 14.340107,14.228824 v -2.669518 h -0.66738 v 2.669518 z m -2.002139,-0.889839 v -1.779679 h -0.667379 v 1.779679 z m -2.002139,-0.444921 v -1.33476 H 9.6684491 v 1.33476 z m -2.0021386,1.33476 V 11.559306 H 7.6663106 v 2.669518 z m -2.0021391,-1.33476 v -1.33476 H 5.6641716 v 1.33476 z m -2.0021391,0.511879 v -1.84664 H 3.6620325 v 1.84664 z m -2.002139,0.822881 V 11.559306 H 1.6598936 v 2.669518 z" /><path
     id="path14"
     style="opacity:0.6;fill:#000000;fill-opacity:1;stroke-width:0.138447;stroke-linecap:round"
     d="M 0.84632414,5.4671316 C 0.38157102,5.4671316 5.8e-7,5.7887071 5.8e-7,6.2200728 c 0,0.4313655 0.38157044,0.7529411 0.84632356,0.7529411 H 3.9955886 V 5.4671316 Z m 11.15808786,0 v 1.5058823 h 3.151103 C 15.620268,6.9730139 16,6.6514383 16,6.2200728 16,5.7887071 15.620268,5.4671316 15.155515,5.4671316 Z M 7.5551475,6.808308 c 0,0.027277 0.00468,0.053213 0.011398,0.078309 -0.00675,-0.025038 -0.011398,-0.051023 -0.011398,-0.078309 z m 0.8897058,0 c 0,0.027286 -0.00464,0.05327 -0.011398,0.078309 0.00671,-0.025096 0.011398,-0.051032 0.011398,-0.078309 z M 7.5720591,6.904999 c 0.00785,0.023245 0.017926,0.045521 0.030883,0.065809 -0.013007,-0.02032 -0.022976,-0.042582 -0.030883,-0.065809 z m 0.8558826,0 c -0.00791,0.023227 -0.017877,0.045488 -0.030883,0.065809 0.012956,-0.020288 0.023031,-0.042564 0.030883,-0.065809 z" /><path
     id="path16"
     style="opacity:0.8;fill:#000000;fill-opacity:1;stroke-width:0.188235;stroke-linecap:round"
     d="m 5.052574,1.7711757 c -0.581555,0 -1.0569852,0.4750626 -1.0569854,1.0566176 v 6.7849264 c 4e-7,0.5815553 0.4754304,1.0566173 1.0569854,1.0566173 h 5.894853 c 0.581555,0 1.056985,-0.475062 1.056985,-1.0566173 V 2.8277933 c 0,-0.581555 -0.47543,-1.0566176 -1.056985,-1.0566176 z m 2.8044116,1.3345589 h 0.2860296 c 0.1672692,0 0.3018381,0.1349364 0.3018381,0.3022057 V 6.808308 c 0,0.1672693 -0.1345689,0.3018382 -0.3018381,0.3018382 H 7.8569856 c -0.1672692,0 -0.3018381,-0.1345689 -0.3018381,-0.3018382 V 3.4079403 c 0,-0.1672693 0.1345689,-0.3022057 0.3018381,-0.3022057 z" /><path
     id="path15"
     style="fill:#000000;stroke-width:0.188235;stroke-linecap:round"
     d="m 6.3871329,2.2160286 c -0.581555,0 -1.0566178,0.4750626 -1.0566178,1.0566176 v 3.6705883 c 0,0.5815549 0.4750628,1.0566176 1.0566178,1.0566176 h 3.225735 c 0.5815551,0 1.0566181,-0.4750627 1.0566181,-1.0566176 V 3.2726462 c 0,-0.581555 -0.475063,-1.0566176 -1.0566181,-1.0566176 z m 1.4698527,0.889706 h 0.2860296 c 0.1672692,0 0.3018381,0.1349364 0.3018381,0.3022057 V 6.808308 c 0,0.1672693 -0.1345689,0.3018382 -0.3018381,0.3018382 H 7.8569856 c -0.1672692,0 -0.3018381,-0.1345689 -0.3018381,-0.3018382 V 3.4079403 c 0,-0.1672693 0.1345689,-0.3022057 0.3018381,-0.3022057 z" /></svg>
