<?xml version="1.0" encoding="UTF-8" standalone="no"?>
<svg
   height="16"
   viewBox="0 0 16 16"
   width="16"
   version="1.1"
   id="svg4"
   xml:space="preserve"
   xmlns="http://www.w3.org/2000/svg"
   xmlns:svg="http://www.w3.org/2000/svg"><defs
     id="defs8" /><style
     type="text/css"
     id="style244">&#10;	.st0{fill:#75AADB;}&#10;	.st1{fill:#4D4D4D;}&#10;	.st2{fill:#FFFFFF;}&#10;	.st3{fill:url(#SVGID_1_);}&#10;	.st4{fill:url(#SVGID_2_);}&#10;	.st5{fill:url(#SVGID_3_);}&#10;	.st6{fill:url(#SVGID_4_);}&#10;	.st7{fill:url(#SVGID_5_);}&#10;	.st8{fill:url(#SVGID_6_);}&#10;	.st9{fill:url(#SVGID_7_);}&#10;	.st10{fill:url(#SVGID_8_);}&#10;	.st11{fill:url(#SVGID_9_);}&#10;	.st12{fill:url(#SVGID_10_);}&#10;	.st13{opacity:0.18;fill:url(#SVGID_11_);}&#10;	.st14{opacity:0.3;}&#10;</style><path
     id="path2"
     style="fill:#000000;stroke:none;stroke-width:0.0031392"
     d="m 4.865532,7.447807 c -0.106733,0.100455 -0.11615,0.11929 -0.11615,0.285668 0,0.166377 0.0094,0.185212 0.11615,0.285667 0.100454,0.09104 0.141264,0.106733 0.263693,0.106733 0.3924,0 0.558778,-0.47088 0.251136,-0.70632 C 5.220262,7.297126 5.019353,7.309683 4.865532,7.447805 Z M 3.839013,4.905055 C 3.412082,5.046319 2.238021,5.799727 1.239755,6.578249 0.414146,7.218646 0.184984,7.47606 0.049998,7.915548 c -0.07848,0.257415 -0.06278,0.54936 0.03453,0.756548 0.09418,0.19463 0.282529,0.357868 1.211732,1.064189 0.963734,0.728294 1.324743,0.976291 1.695168,1.148947 0.367287,0.175795 0.5525,0.226022 0.916647,0.244858 C 4.43546,11.16148 4.761937,11.06417 5.129224,10.769082 5.232817,10.687462 5.860658,10.031369 6.529307,9.309353 7.860328,7.871599 7.857189,7.877878 7.857189,7.498035 7.857189,7.19981 7.753595,7.011458 7.395727,6.656729 7.235627,6.499769 7.019023,6.301999 6.915429,6.223519 6.425714,5.843676 5.333272,5.184444 4.86867,4.996092 4.623813,4.892498 4.557889,4.879941 4.2785,4.870524 4.080731,4.867424 3.917492,4.879924 3.839012,4.905054 Z M 5.518486,6.499769 C 6.13063,6.684982 6.532447,7.315961 6.431993,7.940662 6.262476,8.982876 5.013074,9.412947 4.250249,8.690931 3.713445,8.18238 3.713445,7.315961 4.250249,6.80741 4.592422,6.484073 5.075858,6.367922 5.518486,6.499769 Z" /><path
     id="path4"
     style="fill:#000000;stroke:none;stroke-width:0.0031392"
     d="m 10.613408,7.419555 c -0.295085,0.23544 -0.138125,0.70632 0.238579,0.70632 0.379844,0 0.549361,-0.426932 0.273111,-0.681207 -0.147543,-0.134985 -0.357869,-0.144403 -0.51169,-0.02511 z M 11.326007,4.920751 C 11.052896,5.008651 10.779786,5.143634 10.274375,5.441858 9.433069,5.934713 8.987302,6.26119 8.554093,6.697538 8.243312,7.014598 8.139718,7.215506 8.139718,7.498035 c 0,0.379843 -0.0031,0.376704 1.327882,1.811318 0.66865,0.722016 1.29649,1.378109 1.400083,1.459729 0.367287,0.295084 0.693764,0.3924 1.221149,0.361008 0.706321,-0.03767 1.10186,-0.251136 2.611816,-1.393805 0.929202,-0.706321 1.117554,-0.869559 1.21173,-1.064189 0.213467,-0.442628 0.02825,-1.051633 -0.461461,-1.522513 -0.408096,-0.3924 -1.368692,-1.104998 -2.275921,-1.68575 -0.533664,-0.342173 -0.806775,-0.489716 -1.029658,-0.558778 -0.200909,-0.05964 -0.609005,-0.05337 -0.819331,0.0157 z m -0.09418,1.579018 c 0.323337,0.09731 0.624701,0.354729 0.781661,0.662371 0.395539,0.787939 -0.103594,1.751674 -0.970013,1.874103 C 10.004399,9.183785 9.235295,8.125875 9.68734,7.171558 9.954172,6.61278 10.6291,6.320834 11.231827,6.499769 Z" /></svg>
