<?xml version="1.0" encoding="UTF-8" standalone="no"?>
<svg
   width="16"
   height="16"
   version="1"
   id="svg566"
   xmlns="http://www.w3.org/2000/svg"
   xmlns:svg="http://www.w3.org/2000/svg">
  <defs
     id="defs570" />
  <path
     id="circle2"
     style="isolation:isolate;vector-effect:non-scaling-stroke;fill:#000000;stroke-width:0.0834052"
     d="M 7.664639,0 A 8.0069502,8.0068912 0 0 0 2.580712,2.105979 L 7.664639,7.189804 Z M 8.33536,0 V 7.189804 L 13.419287,2.105979 A 8.0069502,8.0068912 0 0 0 8.33536,0 Z M 2.105995,2.580611 A 8.0069502,8.0068912 0 0 0 0,7.664435 h 7.189922 z m 11.78801,0 -5.083927,5.083824 H 16 A 8.0069502,8.0068912 0 0 0 13.894005,2.580611 Z M 0,8.335564 a 8.0069502,8.0068912 0 0 0 2.105995,5.083825 L 7.189922,8.335564 Z m 8.810078,0 5.083927,5.083825 A 8.0069502,8.0068912 0 0 0 16,8.335564 Z M 7.664639,8.810196 2.580712,13.89402 A 8.0069502,8.0068912 0 0 0 7.664639,16 Z m 0.670721,0 V 16 a 8.0069502,8.0068912 0 0 0 5.083927,-2.10598 z" />
</svg>
