<?xml version="1.0" encoding="UTF-8" standalone="no"?>
<svg
   width="16"
   height="16"
   version="1"
   id="svg566"
   xmlns="http://www.w3.org/2000/svg"
   xmlns:svg="http://www.w3.org/2000/svg">
  <defs
     id="defs570" />
  <path
     fill-rule="evenodd"
     clip-rule="evenodd"
     d="m 7.999999,1.641026 c -0.679733,0 -1.230769,0.551036 -1.230769,1.230769 0,0.679733 0.551036,1.230769 1.230769,1.230769 0.679734,0 1.23077,-0.551036 1.23077,-1.230769 0,-0.679733 -0.551036,-1.230769 -1.23077,-1.230769 z M 5.128204,2.871795 C 5.128204,1.285746 6.413948,0 7.999999,0 c 1.586052,0 2.871795,1.285746 2.871795,2.871795 0,1.586051 -1.285743,2.871795 -2.871795,2.871795 -0.494564,0 -0.959938,-0.125026 -1.366235,-0.34519 L 5.3984,6.633764 c 0.09325,0.172062 0.169415,0.354728 0.226256,0.545723 h 4.750687 C 10.728389,5.993231 11.827281,5.128205 13.128204,5.128205 14.714256,5.128205 16,6.413949 16,8 c 0,1.586051 -1.285744,2.871795 -2.871796,2.871795 -0.494563,0 -0.959938,-0.125026 -1.366235,-0.34519 l -1.235364,1.235364 c 0.220164,0.406298 0.345189,0.871672 0.345189,1.366236 C 10.871794,14.714256 9.586051,16 7.999999,16 6.413948,16 5.128205,14.714256 5.128205,13.128205 c 0,-1.586051 1.285743,-2.871795 2.871794,-2.871795 0.494565,0 0.959939,0.125026 1.366236,0.345169 L 10.601579,9.366236 C 10.508349,9.194153 10.432164,9.011508 10.375343,8.820513 H 5.624656 C 5.271631,10.006769 4.172718,10.871795 2.871794,10.871795 1.285745,10.871795 0,9.586051 0,8 0,6.413949 1.285745,5.128205 2.871794,5.128205 c 0.494564,0 0.959939,0.125026 1.366236,0.345169 L 5.473374,4.238031 C 5.25323,3.831734 5.128205,3.366359 5.128204,2.871795 Z m 1.641026,10.25641 c 0,-0.679733 0.551036,-1.230769 1.230769,-1.230769 0.679734,0 1.23077,0.551036 1.23077,1.230769 0,0.679733 -0.551036,1.230769 -1.23077,1.230769 -0.679733,0 -1.230769,-0.551036 -1.230769,-1.230769 z M 2.871794,6.769231 C 2.192061,6.769231 1.641025,7.320267 1.641025,8 c 0,0.679733 0.551036,1.230769 1.230769,1.230769 0.679734,0 1.230769,-0.551036 1.230769,-1.230769 0,-0.679733 -0.551035,-1.230769 -1.230769,-1.230769 z M 11.897435,8 c 0,-0.679733 0.551036,-1.230769 1.230769,-1.230769 0.679734,0 1.23077,0.551036 1.23077,1.230769 0,0.679733 -0.551036,1.230769 -1.23077,1.230769 -0.679733,0 -1.230769,-0.551036 -1.230769,-1.230769 z"
     fill="#000000"
     id="path1"
     style="display:inline;fill:#000000;fill-opacity:1;stroke-width:0.205128;enable-background:new" />
</svg>
