<?xml version="1.0" encoding="UTF-8" standalone="no"?>
<svg
   height="16px"
   viewBox="0 0 16 16"
   width="16px"
   version="1.1"
   id="svg135"
   xmlns="http://www.w3.org/2000/svg"
   xmlns:svg="http://www.w3.org/2000/svg">
  <defs
     id="defs139" />
  <path
     id="path16"
     style="color:#000000;fill:#000000;fill-rule:evenodd;stroke-width:0.999999;-inkscape-stroke:none"
     d="M 5.734375 0 L 5.7519531 0.0234375 L 5.7519531 0 C 5.7461478 -0.00014422315 5.7401803 9.0935149e-05 5.734375 0 z M 6.0097656 0.017578125 C 5.9665657 0.017486275 5.9224213 0.020785557 5.8789062 0.02734375 L 5.8769531 0.02734375 L 5.8144531 0.02734375 L 5.7519531 0.025390625 C 4.5276415 -0.0050881045 3.2855492 0.80626516 2.9765625 2.0175781 C 2.9043854 2.3121291 2.8743785 2.5919609 2.8691406 2.8769531 L 2.8691406 6.03125 C 1.4717387 6.5169069 0.44140625 8.1761491 0.44140625 10.148438 C 0.44140625 12.379755 1.7602957 14.208592 3.4375 14.392578 L 3.4375 6.0410156 L 3.4921875 6.0410156 L 3.4921875 14.212891 C 3.4921875 14.311218 3.5784451 14.390625 3.6835938 14.390625 L 3.953125 14.390625 C 4.0582739 14.390625 4.1445312 14.311221 4.1445312 14.212891 L 4.1445312 5.9472656 C 4.1445312 5.8910162 4.1156597 5.8410664 4.0722656 5.8085938 C 4.0744266 4.7733669 4.068281 3.7417309 4.0820312 2.703125 C 4.1016136 2.3401499 4.2499001 1.968283 4.4921875 1.6875 C 4.7344756 1.406717 5.071717 1.2162527 5.4628906 1.2207031 L 5.4882812 1.2207031 L 5.4882812 1.2460938 C 5.4939012 2.3825884 5.4756118 3.5191465 5.4960938 4.6542969 C 5.5606357 5.5630821 6.4245454 6.3172633 7.3359375 6.2402344 L 7.3378906 6.2402344 C 7.9182033 6.2261501 8.5008975 6.2726438 9.0722656 6.203125 C 9.9333557 6.0412352 10.531347 5.1610796 10.451172 4.3027344 L 10.451172 1.2265625 L 10.474609 1.2246094 C 10.88137 1.1949054 11.238938 1.3787005 11.498047 1.6621094 C 11.757158 1.9455178 11.919532 2.3291666 11.9375 2.7070312 L 11.9375 2.7089844 C 11.950829 3.7219449 11.943704 4.7269218 11.945312 5.7363281 C 11.877962 5.7640593 11.830078 5.8242052 11.830078 5.8964844 L 11.830078 14.162109 C 11.830078 14.260426 11.916148 14.339844 12.023438 14.339844 L 12.300781 14.339844 C 12.302109 14.339844 12.303366 14.339868 12.304688 14.339844 C 12.286146 14.356721 12.266503 14.373982 12.244141 14.390625 C 12.08709 14.507503 11.937116 14.619513 11.777344 14.724609 C 11.633885 14.818979 11.480174 14.920814 11.335938 14.990234 C 11.22244 15.044854 11.128906 15.052734 11.128906 15.052734 L 9.5136719 15.052734 C 9.5090068 15.052734 9.5045807 15.054353 9.5 15.054688 A 1.3786488 0.80212288 0 0 0 8.1445312 14.396484 A 1.3786488 0.80212288 0 0 0 6.765625 15.197266 A 1.3786488 0.80212288 0 0 0 8.1445312 16 A 1.3786488 0.80212288 0 0 0 9.4550781 15.445312 C 9.4737079 15.451611 9.492945 15.455078 9.5136719 15.455078 L 11.212891 15.455078 C 11.251981 15.455078 11.392572 15.413803 11.476562 15.376953 C 11.685958 15.285083 11.823269 15.168841 12.064453 15.025391 C 12.32085 14.861398 12.794922 14.480469 12.794922 14.480469 C 12.859165 14.438845 12.887919 14.364406 12.873047 14.294922 C 14.399845 13.934068 15.558594 12.195376 15.558594 10.103516 C 15.558594 8.1393984 14.537007 6.4854992 13.148438 5.9921875 L 13.148438 2.6894531 C 13.1075 2.3252442 13.049533 1.8825218 12.855469 1.5371094 L 12.855469 1.5351562 C 12.34794 0.5055404 11.156823 -0.052595486 10.035156 0.03125 L 10.033203 0.03125 L 10.03125 0.03125 C 9.7148379 -0.0089376998 9.3707545 0.20754769 9.2832031 0.50585938 C 9.2886431 1.8446406 9.29131 3.184748 9.28125 4.5234375 L 9.28125 4.5253906 C 9.2424605 5.1023721 8.6763593 5.5399909 8.109375 5.4667969 C 7.7186041 5.4835199 7.2697659 5.4686292 6.9960938 5.125 C 6.8119459 4.9299994 6.7500652 4.6921419 6.7324219 4.4472656 C 6.7147605 4.2021347 6.7408936 3.9480708 6.7304688 3.7148438 L 6.7304688 3.7128906 C 6.7314327 2.6266991 6.7265798 1.5416816 6.7363281 0.45703125 C 6.5968935 0.17915889 6.3121654 0.018220314 6.0097656 0.017578125 z M 12.494141 6.0449219 L 12.5625 6.0449219 L 12.5625 14.101562 C 12.536782 14.098953 12.511894 14.099103 12.494141 14.101562 L 12.494141 6.0449219 z " />
</svg>
