<?xml version="1.0" encoding="UTF-8" standalone="no"?>
<svg
   height="16"
   viewBox="0 0 16 16"
   width="16"
   version="1.1"
   id="svg135"
   xml:space="preserve"
   xmlns="http://www.w3.org/2000/svg"
   xmlns:svg="http://www.w3.org/2000/svg"><defs
     id="defs139" /><path
     id="path3-2"
     d="M 11.478195,6.608671 H 7.6521145 l -3.130441,2.782607 h 3.826095 z m 1.913134,3.820288 c 0,-0.354611 -0.03487,-0.701467 -0.101513,-1.03763 H 9.0369205 c 0.545118,0.627524 0.876213,1.453564 0.876213,2.358665 0,1.963003 -1.557306,3.554367 -3.478286,3.554367 -0.774264,0 -1.48944,-0.258521 -2.067384,-0.69569 0.951443,-0.01054 1.719474,-0.785089 1.719474,-1.739046 0,-0.960495 -0.778639,-1.739148 -1.739133,-1.739148 -0.960495,0 -1.739133,0.778653 -1.739133,1.739148 0,0.44396 0.166347,0.849048 0.440117,1.156374 C 4.1244965,15.233459 5.7315355,16 7.5270405,16 10.76578,16 13.391329,13.505765 13.391329,10.428959 Z M 3.1870255,6.608722 C 3.0371035,6.138256 2.9564975,5.639206 2.9564975,5.122266 2.9564975,2.293318 5.3705145,0 8.3483775,0 10.067659,0 11.598967,0.7644629 12.586271,1.955107 v 0 c 0.283912,0.309516 0.457188,0.722165 0.457188,1.175289 0,0.960499 -0.778603,1.739132 -1.739097,1.739132 -0.960546,0 -1.7391485,-0.778633 -1.7391485,-1.739132 0,-0.960495 0.7786025,-1.739133 1.7391485,-1.739133 0.01323,0 0.02646,1.52e-4 0.03963,4.46e-4 -0.57431,-0.4367639 -1.290982,-0.6960295 -2.0682165,-0.6960295 -1.888747,0 -3.419887,1.5311405 -3.419887,3.4198975 0,0.983072 0.414804,1.86927 1.078935,2.493145 z"
     style="fill:#000000;fill-opacity:1;stroke-width:0.506804" /></svg>
