<?xml version="1.0" encoding="UTF-8" standalone="no"?>
<svg
   width="16"
   height="16"
   version="1"
   id="svg566"
   xml:space="preserve"
   xmlns="http://www.w3.org/2000/svg"
   xmlns:svg="http://www.w3.org/2000/svg"><defs
     id="defs570" /><path
     id="path9"
     style="opacity:1;stroke-width:0.4"
     d="m 11.345096,11.333982 h 2 v 1.44 h -2 z M 8.4781879,10.296064 h 2.0000001 v 1.44 H 8.4781879 Z m -3.009662,1.695167 h 2 v 1.44 h -2 z m -2.81956,-1.901362 h 2 v 1.44 h -2 z M 12.025096,9.1878731 h 0.64 v 4.7999999 h -0.64 z m -2.8669081,0 h 0.64 v 4.7999999 h -0.64 z m -3.009662,0 h 0.64 v 4.7999999 h -0.64 z m -2.796538,0 h 0.64 v 4.7999999 h -0.64 z M 2.3999999,2.6031251 V 8.203125 H 13.6 V 2.6031251 Z m 0.8,0.8 H 12.8 V 7.403125 H 3.1999999 Z m -1.6,-3.403125 c -0.8864,0 -1.6,0.7136 -1.6,1.6 V 14.4 c 0,0.8864 0.7136,1.6 1.6,1.6 H 14.4 C 15.2864,16 16,15.2864 16,14.4 V 1.6000001 c 0,-0.8864 -0.7136,-1.6 -1.6,-1.6 z m 0.4,1.2 H 14 c 0.4432,0 0.8,0.3568 0.8,0.8 V 14 c 0,0.4432 -0.3568,0.8 -0.8,0.8 H 1.9999999 c -0.4432,0 -0.8,-0.3568 -0.8,-0.8 V 2.0000001 c 0,-0.4432 0.3568,-0.8 0.8,-0.8 z" /></svg>
