<?xml version="1.0" encoding="UTF-8" standalone="no"?>
<svg
   width="16"
   height="16"
   version="1.1"
   id="svg10191"
   xmlns="http://www.w3.org/2000/svg"
   xmlns:svg="http://www.w3.org/2000/svg"
   xmlns:sketch="http://www.bohemiancoding.com/sketch/ns">
  <defs
     id="defs10195" />
  <g
     id="g1"
     transform="matrix(0.13333333,0,0,0.13559323,11.200002,0.94915238)">
    <path
       id="path434"
       style="fill:#000000;fill-opacity:1;stroke-width:1.13805"
       d="m -23.995723,-7.0000003 c -0.58018,0 -1.160537,0.2516128 -1.475016,0.7537738 l -3.122643,4.9590386 -1.470529,0.141057 -4.043969,-4.2647731 c -0.81948,-0.862141 -2.473918,-0.541765 -2.893987,0.5686363 l -2.0713,5.4483297 -1.427941,0.425375 -4.803889,-3.3985937 c -0.975573,-0.6928723 -2.535288,-0.053738 -2.728107,1.1108248 L -48.985812,4.489541 -50.297191,5.181602 -55.683913,2.766 c -1.094935,-0.492008 -2.500527,0.432973 -2.454622,1.613339 l 0.206236,5.829626 -1.138765,0.919075 -5.772287,-1.337839 c -1.172986,-0.268572 -2.364694,0.900865 -2.089234,2.054145 l 1.360694,5.677548 -0.934777,1.117436 -5.929211,-0.20277 c -1.195929,-0.03385 -2.139014,1.334594 -1.640893,2.413398 l 2.45686,5.298458 -0.70388,1.28935 -5.841784,0.934503 c -1.186746,0.189581 -1.829913,1.7231 -1.129797,2.682289 l 3.45665,4.7188 -0.434886,1.406163 -5.5414,2.038714 c -1.124772,0.413019 -1.453022,2.037413 -0.573862,2.845386 l 4.335383,3.976047 -0.143471,1.443633 -5.043747,3.070194 c -0.672293,0.408487 -0.894119,1.263135 -0.681465,1.97921 h 16.009972 c -0.03885,-1.850512 0.04271,-3.703139 0.246589,-5.549715 l 7.682193,-3.356717 c 1.641249,-0.716574 2.383151,-2.608026 1.654347,-4.225101 l -0.531283,-1.181356 h 0.0071 l -3.49028,-7.722875 c 1.722391,-3.015838 3.80353,-5.825793 6.213895,-8.359836 l 0.03142,0.02865 c 6.3725,-6.717719 14.75857,-11.275025 23.954456,-12.983864 l 5.492083,5.666527 c 1.241846,1.278542 3.298419,1.325697 4.597654,0.103593 l 6.146648,-5.778933 c 12.680233,2.335358 23.674799,10.034168 30.065217,21.05277 l -4.207607,9.342828 c -0.726513,1.617079 0.01425,3.508531 1.65435,4.2251 l 8.101377,3.537447 c 0.14434,1.428205 0.21615,2.862597 0.2152,4.297836 h 0.0448 c 10e-6,0.302011 -0.0138,0.602252 -0.0202,0.903645 h 15.97635 c 0.21266,-0.716071 -0.009,-1.570723 -0.68147,-1.979206 l -5.0415,-3.070198 -0.14346,-1.443629 4.33314,-3.976047 c 0.88146,-0.807977 0.55096,-2.432371 -0.57612,-2.845385 l -5.5369,-2.038716 -0.43713,-1.406163 3.45664,-4.718801 c 0.70471,-0.959188 0.0569,-2.490451 -1.12979,-2.682289 l -5.83954,-0.934503 -0.70389,-1.28935 2.45463,-5.298457 c 0.50271,-1.078805 -0.429,-2.458536 -1.63642,-2.413399 l -5.93145,0.20277 -0.93477,-1.117436 1.36293,-5.677548 C 19.21247,10.691065 18.02076,9.519373 16.84778,9.790203 l -5.774531,1.337838 -1.138764,-0.919075 0.208471,-5.829625 c 0.0459,-1.180366 -1.359684,-2.10309 -2.45462,-1.61334 L 2.301674,5.181603 0.990298,4.489542 0.037591,-1.2563306 c -0.19282,-1.1645697 -1.752533,-1.8014368 -2.728107,-1.1108248 L -7.492202,1.031436 -8.920141,0.606061 -10.991443,-4.8422687 c -0.42045,-1.1104003 -2.077129,-1.4307763 -2.896613,-0.5686353 l -4.041724,4.2647731 -1.468289,-0.141057 -3.122639,-4.9590386 c -0.315626,-0.5021633 -0.89484,-0.7537738 -1.475015,-0.7537738 z M -24.175057,3.396349 c 1.965186,0.0064 3.554923,1.574396 3.555279,3.50659 0,4.676921 -7.135218,4.676921 -7.135218,0 3.55e-4,-1.941662 1.60512,-3.51355 3.579939,-3.50659 z m -42.555776,31.753272 c 1.966936,0.0052 3.558395,1.574884 3.557521,3.508795 0,4.676922 -7.135218,4.676922 -7.135218,0 -8.95e-4,-1.941659 1.602879,-3.514534 3.577697,-3.508795 z m 85.109313,0.165302 c 1.96519,0.0064 3.55492,1.574397 3.55528,3.506591 0,4.676927 -7.13522,4.676927 -7.13522,0 3.5e-4,-1.941662 1.60513,-3.51355 3.57994,-3.506591 z" />
    <path
       d="M -67.876565,19.843401 -45.154473,-2.7121006 V 102.19008 L -67.876565,79.895084 Z"
       id="Left---green"
       fill="url(#linearGradient-1)"
       sketch:type="MSShapeGroup"
       style="opacity:0.6;fill:#000000;fill-opacity:1;stroke-width:0.498499" />
    <path
       d="M 19.92001,20.015606 -3.113334,-2.7406668 -2.646446,102.16344 20.07565,79.868451 Z"
       id="Right---blue"
       fill="url(#linearGradient-2)"
       sketch:type="MSShapeGroup"
       style="opacity:0.8;fill:#000000;stroke-width:0.498499" />
    <path
       d="M -45.169622,-2.6941583 13.90543,85.938187 -2.625544,102.19112 -61.731527,13.754969 Z"
       id="Cross---blue"
       fill="url(#linearGradient-3)"
       sketch:type="MSShapeGroup"
       style="opacity:0.8;fill:#000000;fill-opacity:1;stroke-width:0.498499" />
    <path
       id="path849"
       style="fill:#000000;fill-opacity:1;stroke-width:1.13805"
       d="m -83.996144,52.109532 c 0.0299,0.533637 0.276599,1.05457 0.755438,1.344449 l 5.043747,3.070199 0.143471,1.443628 -4.335383,3.976047 c -0.87916,0.805719 -0.55091,2.430113 0.573862,2.845386 l 5.5414,2.036514 0.434886,1.406163 -3.45665,4.721005 c -0.702414,0.961442 -0.05695,2.492759 1.129797,2.680084 l 5.841784,0.934501 0.70388,1.291556 -2.45686,5.296254 c -0.500409,1.076548 0.444964,2.460794 1.640893,2.413395 l 5.926964,-0.202766 0.937024,1.11964 -1.360694,5.679751 c -0.27546,1.15102 0.916248,2.31836 2.089234,2.04753 l 5.772287,-1.33563 1.138765,0.91687 -0.206236,5.83182 c -0.04586,1.180382 1.359687,2.103152 2.454622,1.611142 l 5.386722,-2.413402 1.311379,0.69206 0.952708,5.741472 c 0.192819,1.16907 1.752534,1.80138 2.728107,1.11302 l 4.801648,-3.40079 1.430182,0.42758 2.0713,5.44612 c 0.420069,1.10589 2.074507,1.43089 2.893987,0.56423 l 4.043969,-4.26036 1.470529,0.14326 3.120398,4.95903 c 0.628963,0.99981 2.321022,1.00207 2.952276,0 l 3.120398,-4.95903 1.47053,-0.14326 4.041724,4.26036 c 0.819484,0.86666 2.473923,0.54166 2.893992,-0.56423 l 2.071296,-5.44612 1.430185,-0.42758 4.801648,3.40079 c 0.975568,0.68836 2.533042,0.0538 2.725861,-1.11302 l 0.952709,-5.741472 1.313621,-0.69206 5.386721,2.413402 c 1.094936,0.49201 2.498238,-0.42848 2.454621,-1.611142 l -0.208476,-5.83182 1.138768,-0.91687 5.77453,1.33563 c 1.17298,0.27083 2.36244,-0.89651 2.08699,-2.04753 l -1.36069,-5.679751 0.93477,-1.11964 5.92921,0.202766 c 1.19594,0.0474 2.14137,-1.336847 1.63866,-2.413395 l -2.45463,-5.296254 0.70164,-1.291556 5.83955,-0.934501 c 1.18905,-0.187325 1.83674,-1.718642 1.13203,-2.680084 l -3.45664,-4.721005 0.43264,-1.406163 5.54139,-2.036514 c 1.12708,-0.415273 1.45533,-2.039667 0.57387,-2.845386 l -4.33089,-3.976047 0.14346,-1.443628 5.04151,-3.070199 c 0.47884,-0.289879 0.72554,-0.810812 0.75545,-1.344449 H 19.95437 c -0.11205,9.905672 -3.6787,19.479357 -10.125605,27.109412 l -0.0157,-0.01323 C 9.020022,80.133097 8.187623,81.027251 7.31809,81.885798 l -7.545445,-1.595706 c -1.757179,-0.370137 -3.485937,0.728632 -3.862394,2.459682 l -1.788848,8.216574 c -11.651737,5.18978 -25.025764,5.12701 -36.62657,-0.17191 l -1.788851,-8.216579 c -0.376456,-1.728793 -2.104116,-2.828742 -3.860147,-2.457475 l -7.377306,1.556033 c -1.133703,-1.147864 -2.201638,-2.356792 -3.198866,-3.621199 l -0.0359,0.02646 c -3.776854,-4.789426 -6.485896,-10.305765 -7.951183,-16.190715 l 0.04485,-0.01106 c -0.79512,-3.204156 -1.203424,-6.483538 -1.239647,-9.770409 z m 33.391846,32.462966 h 0.002 c 1.966064,0.0065 3.556165,1.575738 3.555283,3.508795 0,4.676925 -7.135218,4.676925 -7.135218,0 -8.95e-4,-1.941658 1.60287,-3.514533 3.577697,-3.508795 z M 2.251939,84.7378 c 1.965186,0.0068 3.554922,1.574406 3.555278,3.506591 0,4.676927 -7.135219,4.676927 -7.135219,0 3.52e-4,-1.941658 1.605121,-3.513551 3.579941,-3.506591 z" />
  </g>
</svg>
