<?xml version="1.0" encoding="UTF-8" standalone="no"?>
<svg
   height="16px"
   viewBox="0 0 16 16"
   width="16px"
   version="1.1"
   id="svg364"
   xmlns="http://www.w3.org/2000/svg"
   xmlns:svg="http://www.w3.org/2000/svg">
  <defs
     id="defs368" />
  <g
     id="g495"
     transform="matrix(1.0832852,0,0,1.0832852,-0.22253384,0)">
    <path
       style="fill:#000000;stroke-width:0.410241"
       d="M 4.7419833,0 C 3.8758067,0.5320265 1.6400296,1.2134578 0.20542498,1.6297455 l 0.0448721,0.1265979 C 0.93259647,1.6882024 1.907386,1.591644 2.5915536,1.4759052 V 2.482278 H 0.21504184 L 0.2727299,3.3316036 H 2.2614361 C 1.9198188,4.7363403 1.1292405,5.3272519 0.22946263,6.4118391 L 0.36567488,6.538437 C 1.2094499,5.9270732 2.0551236,5.3840826 2.5899496,4.5785756 V 7.3849434 H 2.80789 c 0.5805621,0 1.1209747,-0.22419 1.131239,-0.2932581 V 4.2324349 c 0.4330879,0.390153 0.5158638,0.8463227 0.5961315,1.3316802 0.1474742,0.1241364 0.3076363,0.1826852 0.4551105,0.1826852 0.3070816,0 0.5688891,-0.2221487 0.5688891,-0.5320307 0,-0.419088 -0.1509916,-0.8066917 -1.6201311,-1.136175 v -0.746991 h 1.9230037 c 0.3080153,0 0.8662644,-0.7050242 0.945605,-0.830096 L 4.7419833,1.6409632 4.3734074,2.4806756 H 3.939129 V 1.2435424 C 4.4524879,1.1268699 4.931531,1.0108694 5.3188844,0.89419692 5.543899,0.89992388 6.7933153,0.82048157 6.7933153,0.82048157 Z"
       id="path10" />
    <path
       style="fill:#000000;stroke-width:0.410241"
       d="M 7.1795184,0.84615403 V 7.3849434 c 1.0705865,-8e-7 1.1934151,-0.3930541 1.2084541,-0.407036 V 6.5965115 h 2.0686655 v 0.6041444 c 0.901645,0 1.219517,-0.2617706 1.219517,-0.2804382 V 1.7756062 c 0.238946,-0.047605 0.422229,-0.1244621 0.490366,-0.2131328 L 11.259491,0.85256445 10.344462,1.640996 H 8.445663 Z M 8.3879725,2.4903216 H 10.456638 V 5.7760299 H 8.3879725 Z"
       id="path12" />
  </g>
  <path
     style="fill:#000000;stroke-width:0.533333"
     d="M 4.8,8.0000001 V 11.2 12.8 16 H 6.4 V 12.8 H 8.0812503 A 4.0000001,4.0000001 0 0 0 12,16 4.0000001,4.0000001 0 0 0 16,12 4.0000001,4.0000001 0 0 0 12,8.0000001 4.0000001,4.0000001 0 0 0 8.0854166,11.2 H 6.4 V 8.0000001 Z M 12,9.6000006 A 2.4000001,2.4000001 0 0 1 14.4,12 2.4000001,2.4000001 0 0 1 12,14.4 2.4000001,2.4000001 0 0 1 9.6000007,12 2.4000001,2.4000001 0 0 1 12,9.6000006 Z"
     id="path16" />
</svg>
