<?xml version="1.0" encoding="UTF-8" standalone="no"?>
<svg
   width="16"
   height="16"
   version="1"
   id="svg566"
   xmlns="http://www.w3.org/2000/svg"
   xmlns:svg="http://www.w3.org/2000/svg">
  <defs
     id="defs570" />
  <path
     style="fill:#000000;fill-opacity:1;stroke-width:0.0723203;opacity:0.6"
     d="M 7.5601444,9.6145094 C 6.1582677,9.4094081 5.2757944,8.9301037 4.098487,7.7343562 3.7035093,7.3331929 2.9354809,6.3740892 2.9354809,6.2820116 c 0,-0.037201 0.3170412,-0.068521 0.7045379,-0.0696 0.3874968,-0.00107 0.9971925,-0.032026 1.354882,-0.068773 C 5.3525903,6.1068913 6.0029329,6.0414612 6.4401079,5.9982372 8.1566271,5.8285246 9.2522568,5.6037618 12.076418,4.8419795 c 0.36224,-0.09771 1.437937,-0.4218728 1.556625,-0.4690915 0.132322,-0.052643 0.329204,0.1930437 0.609551,0.7606481 0.106819,0.2162742 0.227008,0.454527 0.267086,0.5294507 0.04007,0.074924 0.12239,0.27035 0.18292,0.4342809 0.06053,0.1639308 0.188821,0.5097677 0.285092,0.7685266 0.251086,0.6748763 0.469558,1.4373447 0.509166,1.7769922 0.03104,0.2661829 0.01532,0.3019556 -0.170657,0.3882259 -0.468452,0.2173106 -1.223159,0.3802877 -2.547267,0.5500777 -1.762083,0.2259514 -3.8033096,0.2390471 -5.2087896,0.033419 z"
     id="path11" />
  <path
     style="fill:#000000;fill-opacity:1;stroke-width:0.0723203"
     d="M 11.534465,15.506619 C 11.121464,15.460507 10.02505,15.261709 9.3666537,15.113559 7.0903983,14.60136 4.8066043,14.215903 3.5256261,14.127711 2.6864876,14.069938 2.4979079,13.955815 2.1635897,13.303441 1.9604925,12.907124 1.87591,12.813103 1.6511141,12.733776 1.3262432,12.619133 0.94929243,12.345932 0.79902048,12.116209 0.72868864,12.00869 0.66272635,11.624934 0.61667529,11.055353 0.57500125,10.539909 0.45788189,9.825827 0.33940739,9.3648414 -0.023172,7.9540465 -0.07133106,7.4215197 0.08241596,6.5230555 0.2213846,5.7109451 0.44559763,4.9747 0.64831918,4.6647951 0.71396094,4.5644464 0.7676673,4.4631772 0.7676673,4.4397536 c 0,-0.023425 0.17909821,-0.2851655 0.3979935,-0.5816476 C 1.6443533,3.209745 2.380149,2.4598619 2.9730135,2.0161506 3.5537264,1.5815339 3.6035372,1.551423 4.2722973,1.2307419 5.5492369,0.61842758 6.1933687,0.47322721 7.6324039,0.47330384 c 0.9833358,5.218e-5 1.2110485,0.0238552 1.8657304,0.19502853 0.4101311,0.10723322 0.8003377,0.22378205 0.8671247,0.25899702 0.06679,0.0352151 0.267758,0.13481521 0.446602,0.22133411 0.53942,0.260953 1.025581,0.6159913 1.452849,1.0609997 0.471036,0.4905956 0.931744,1.092362 0.931744,1.2170253 0,0.047687 -0.138198,0.1262151 -0.307107,0.1745056 -0.168909,0.04829 -0.534727,0.1532938 -0.812929,0.2333413 -0.278203,0.080048 -0.717184,0.2059063 -0.975515,0.2796848 C 8.8900357,4.7456429 6.9492456,5.047655 4.0916471,5.2049507 3.3563971,5.2454229 2.6358568,5.3142238 2.4904449,5.3578414 2.0595418,5.487098 1.8911029,5.8062359 1.9161783,6.4458889 c 0.00504,0.1283068 0.2074682,0.4465523 0.5900125,0.927527 0.6940337,0.8726166 1.0992204,1.2938349 1.7299767,1.7984223 0.2583287,0.2066584 0.5107911,0.4091832 0.5610224,0.4500556 0.2600267,0.2115794 1.2045623,0.6465592 1.6965945,0.7813202 1.4095768,0.386064 5.1183566,0.406732 7.2084916,0.04017 0.758726,-0.133063 1.941321,-0.4464979 2.069047,-0.5483794 0.112698,-0.089895 0.173241,0.092047 0.220349,0.6621784 0.08874,1.074027 -0.55219,4.121328 -0.948465,4.509449 -0.425356,0.416602 -0.558706,0.44787 -1.955144,0.458408 -0.715378,0.0054 -1.414497,-0.0029 -1.553598,-0.01842 z"
     id="path10" />
</svg>
