<?xml version="1.0" encoding="UTF-8" standalone="no"?>
<svg
   height="16px"
   viewBox="0 0 16 16"
   width="16px"
   version="1.1"
   id="svg135"
   xml:space="preserve"
   xmlns="http://www.w3.org/2000/svg"
   xmlns:svg="http://www.w3.org/2000/svg"><defs
     id="defs139" /><path
     d="M 8,0 V 3.09375 L 3.75,5.5625 1.0625,4 Z"
     fill="#a1c535"
     id="path1"
     style="opacity:0.5;fill:#000000;fill-rule:evenodd;stroke-width:0" /><path
     d="M 14.9375,4 12.25,5.5625 8,3.09375 V 0 Z"
     fill="#add439"
     id="path2"
     style="opacity:0.6;fill:#000000;fill-rule:evenodd;stroke-width:0" /><path
     d="M 14.9375,12 12.25,10.4375 V 5.5625 L 14.9375,4 Z"
     fill="#1b6ac6"
     id="path3"
     style="opacity:0.3;fill:#000000;fill-rule:evenodd;stroke-width:0" /><path
     d="M 8,16 V 12.90625 L 12.25,10.4375 14.9375,12 Z"
     fill="#2e90e8"
     id="path4"
     style="opacity:0.7;fill:#000000;fill-rule:evenodd;stroke-width:0" /><path
     d="M 1.0625,12 3.75,10.4375 8,12.90625 V 16 Z"
     fill="#ea205e"
     id="path5"
     style="opacity:0.4;fill:#000000;fill-rule:evenodd;stroke-width:0" /><path
     d="M 1.0625,4 3.75,5.5625 v 4.875 L 1.0625,12 Z"
     fill="#a5073e"
     id="path6"
     style="opacity:0.2;fill:#000000;fill-rule:evenodd;stroke-width:0" /><path
     d="M 3.75,5.5625 8,3.09375 12.25,5.5625 8,8 Z"
     fill="#f1f6e2"
     id="path7"
     style="opacity:0.8;fill:#000000;fill-rule:evenodd;stroke-width:0" /><path
     d="m 8,8 4.25,-2.4375 v 4.875 L 8,12.90625 Z"
     fill="#cedbe6"
     id="path8"
     style="opacity:0.9;fill:#000000;fill-rule:evenodd;stroke-width:0" /><path
     d="M 3.75,5.5625 8,8 v 4.90625 L 3.75,10.4375 Z"
     fill="#ffffff"
     id="path9"
     style="fill:#000000;fill-rule:evenodd;stroke-width:0" /></svg>
