<?xml version="1.0" encoding="UTF-8" standalone="no"?>
<svg
   width="16"
   height="16"
   version="1"
   id="svg566"
   xmlns="http://www.w3.org/2000/svg"
   xmlns:svg="http://www.w3.org/2000/svg">
  <defs
     id="defs570" />
  <path
     id="path5874"
     style="fill:#000000;fill-opacity:1;stroke:none;stroke-width:0.477513"
     d="M 6.653307,7.9905885e-4 C 5.175338,0.02431906 3.813596,0.56689406 2.805492,1.6620721 1.938864,2.6035531 1.45364,3.8309731 1.319511,5.1763851 H 1.041802 C 0.46921597,5.1763851 -3.2345255e-8,5.6438291 -3.2345255e-8,6.2210371 v 3.16071 C -3.2345255e-8,9.9589551 0.46921597,10.426134 1.041802,10.426134 h 1.383077 c 0.447733,0.86444 1.023257,1.696447 1.72305,2.456682 2.977786,3.234988 7.149776,4.034339 9.724524,2.010638 h 1.382297 c 0.382734,0 0.699484,-0.314492 0.699484,-0.701909 v -1.909457 c 0,-0.171969 -0.0628,-0.329237 -0.165688,-0.451341 0.571917,-2.2915189 -0.02553,-5.1032609 -1.680326,-7.4868529 1.4e-4,-0.0051 7.82e-4,-0.01001 7.82e-4,-0.0151 v -1.341838 c 0,-0.301317 -0.24683,-0.546429 -0.543436,-0.546429 H 12.451081 C 10.666702,0.80892006 8.563466,-0.02960094 6.653307,7.9705885e-4 Z M 8.308102,1.4530881 c 1.144271,0.02507 2.357538,0.445115 3.465639,1.227414 -0.05953,0.08744 -0.09457,0.192991 -0.09457,0.306456 v 1.341838 c 0,0.301317 0.247091,0.546695 0.543697,0.546695 h 1.342696 c 0.100112,0 0.194173,-0.02845 0.275366,-0.07708 1.493929,2.197883 1.814744,4.877501 0.819321,6.7817659 h -1.315342 c -0.382735,0 -0.699485,0.314492 -0.699485,0.701909 v 1.201191 C 10.652102,14.350031 7.973687,13.624671 6.002016,11.482704 5.600789,11.046819 5.257761,10.577677 4.966206,10.090805 5.138765,9.9045641 5.245479,9.6558931 5.245479,9.3817451 v -3.16071 c 0,-0.577208 -0.469478,-1.044652 -1.042062,-1.044652 H 3.918673 c 0.157764,-0.909521 0.532369,-1.7377 1.13689,-2.394437 0.849505,-0.922877 2.009444,-1.356093 3.252537,-1.32886 z m 3.914768,1.345547 h 0.602573 0.740123 c 0.110638,0 0.19122,0.08253 0.19122,0.188323 v 1.341838 c 0,0.06081 -0.02692,0.114186 -0.0706,0.148328 -2.09e-4,1.63e-4 -5.72e-4,1.03e-4 -7.81e-4,2.71e-4 -0.01446,0.01115 -0.03067,0.02038 -0.04846,0.02702 -0.02179,0.0081 -0.04573,0.01271 -0.07138,0.01271 h -1.342696 c -0.110638,0 -0.191219,-0.08253 -0.191219,-0.188323 v -1.341839 c 0,-0.03731 0.01031,-0.07146 0.02814,-0.100386 0.0081,-0.01319 0.01807,-0.02561 0.02918,-0.03629 l 2.6e-4,-2.71e-4 c 0.02234,-0.02129 0.05036,-0.03687 0.08232,-0.04503 h 2.6e-4 2.61e-4 c 0.01602,-0.004 0.03296,-0.0064 0.0508,-0.0064 z m -11.181068,2.73612 h 3.161617 c 0.386617,0 0.689584,0.304595 0.689584,0.686282 v 3.16071 c 0,0.14279 -0.04261,0.275028 -0.115929,0.384328 -0.02925,0.04357 -0.06401,0.08307 -0.102383,0.118662 -0.0035,0.0033 -0.0071,0.0066 -0.01068,0.0098 -0.03923,0.03485 -0.08244,0.06594 -0.129215,0.09112 -0.04666,0.02508 -0.0971,0.04406 -0.149797,0.05801 -0.0069,0.0018 -0.0138,0.0039 -0.02084,0.0056 -0.01887,0.0044 -0.0381,0.0078 -0.05757,0.01059 -0.0067,9.76e-4 -0.01331,0.0021 -0.02006,0.0029 -0.02724,0.0032 -0.05489,0.0053 -0.0831,0.0053 H 1.041802 c -0.38661903,0 -0.68958503,-0.3045939 -0.68958503,-0.6862809 v -3.160711 c 0,-0.381687 0.302966,-0.686282 0.68958503,-0.686282 z m 12.303109,6.4035299 h 1.107451 0.802388 c 0.0246,0 0.04844,0.0024 0.07138,0.0069 0.02294,0.0045 0.04503,0.01124 0.06591,0.01986 0.02088,0.0086 0.04047,0.01925 0.05888,0.03152 0.01841,0.01228 0.03552,0.02609 0.05106,0.04158 0.01554,0.01549 0.02968,0.03259 0.04194,0.05086 0.01226,0.01827 0.02268,0.03792 0.03126,0.05854 0.0086,0.02061 0.01531,0.04211 0.0198,0.06463 0.0045,0.02252 0.0068,0.04594 0.0068,0.06993 v 0.17667 1.732788 c 0,0.191897 -0.150241,0.343803 -0.347007,0.343803 h -0.970682 -0.939157 c -0.0246,0 -0.04844,-0.0024 -0.07138,-0.0069 -0.02294,-0.0045 -0.04503,-0.01125 -0.06591,-0.01986 -0.02088,-0.0086 -0.04047,-0.01925 -0.05888,-0.03152 -0.01841,-0.01227 -0.03552,-0.02609 -0.05106,-0.04158 -0.01554,-0.01549 -0.02968,-0.03259 -0.04194,-0.05086 -0.01226,-0.01827 -0.02268,-0.03792 -0.03126,-0.05854 -0.0086,-0.02061 -0.01531,-0.04211 -0.0198,-0.06463 -0.0045,-0.02252 -0.0068,-0.04594 -0.0068,-0.06993 v -0.881227 -1.02823 c 0,-0.191897 0.150241,-0.343803 0.347008,-0.343803 z" />
</svg>
