<?xml version="1.0" encoding="UTF-8"?>
<svg height="16px" viewBox="0 0 16 16" width="16px" xmlns="http://www.w3.org/2000/svg">
    <path d="m 12.054688 3.109375 c -0.3125 0.605469 -0.207032 1.582031 0.269531 2.476563 c 0.648437 1.21875 1.765625 1.890624 2.496093 1.5 c 0.734376 -0.386719 0.800782 -1.691407 0.152344 -2.910157 c -0.648437 -1.21875 -1.765625 -1.890625 -2.5 -1.503906 c -0.171875 0.09375 -0.316406 0.242187 -0.417968 0.4375 z m 0 0" fill="#8a8891"/>
    <path d="m 8 1 c -3.867188 0 -7 3.132812 -7 7 c 0 0.460938 0.046875 0.90625 0.132812 1.34375 c 0.007813 -0.011719 0.019532 -0.019531 0.03125 -0.027344 l 0.0625 -0.035156 c 0 -0.003906 0.003907 -0.003906 0.003907 -0.003906 l 2.054687 -1.207032 c 0.039063 -0.027343 0.082032 -0.050781 0.128906 -0.070312 h 0.007813 c 0.039063 -0.019531 0.082031 -0.035156 0.121094 -0.042969 c 0.011719 -0.003906 0.023437 -0.007812 0.03125 -0.007812 c 0.003906 -0.003907 0.007812 -0.003907 0.011719 -0.003907 c 0.03125 -0.007812 0.0625 -0.011718 0.097656 -0.019531 c 0.019531 0 0.039062 -0.003906 0.058594 -0.003906 c 0.015624 0 0.03125 -0.003906 0.046874 -0.003906 h 0.082032 c 0.171875 0.003906 0.347656 0.042969 0.527344 0.113281 c 0.089843 0.035156 0.179687 0.078125 0.269531 0.125 c 0.089843 0.050781 0.179687 0.105469 0.269531 0.167969 c 0.085938 0.066406 0.175781 0.132812 0.261719 0.207031 c 0.082031 0.078125 0.167969 0.15625 0.25 0.242188 c 0.082031 0.089843 0.160156 0.179687 0.238281 0.277343 c 0.074219 0.097657 0.144531 0.199219 0.214844 0.304688 c 0.421875 0.652343 0.621094 1.351562 0.589844 1.914062 c -0.003907 0.066407 -0.011719 0.125 -0.019532 0.1875 c -0.007812 0.058594 -0.019531 0.117188 -0.035156 0.171875 c -0.015625 0.054688 -0.03125 0.105469 -0.050781 0.160156 c -0.023438 0.050782 -0.046875 0.097657 -0.074219 0.144532 c -0.023438 0.046875 -0.054688 0.089844 -0.085938 0.128906 s -0.066406 0.078125 -0.105468 0.113281 c -0.039063 0.035157 -0.078125 0.066407 -0.121094 0.09375 l -2.121094 1.246094 c -0.035156 0.023437 -0.070312 0.042969 -0.109375 0.058594 c 1.175781 0.894531 2.640625 1.425781 4.230469 1.425781 c 3.867188 0 7 -3.132812 7 -7 s -3.132812 -7 -7 -7 z m 0 1.5 c 1.378906 0 2.5 0.671875 2.5 1.5 s -1.121094 1.5 -2.5 1.5 s -2.5 -0.671875 -2.5 -1.5 s 1.121094 -1.5 2.5 -1.5 z m 4.128906 5.355469 c 0.222656 -0.007813 0.421875 0.039062 0.589844 0.144531 c 0.699219 0.441406 0.675781 1.742188 -0.054688 2.914062 c -0.734374 1.171876 -1.898437 1.761719 -2.601562 1.324219 c -0.699219 -0.441406 -0.675781 -1.742187 0.054688 -2.914062 c 0.539062 -0.855469 1.332031 -1.4375 2.011718 -1.46875 z m 0 0"/>
    <path d="m 3.789062 7.917969 c -0.1875 0.007812 -0.359374 0.058593 -0.503906 0.152343 l -2.054687 1.207032 s -0.003907 0 -0.003907 0.003906 l -0.0625 0.035156 c -0.695312 0.449219 -0.652343 1.753906 0.097657 2.914063 c 0.75 1.160156 1.921875 1.734375 2.617187 1.285156 l 2.121094 -1.246094 c 0.695312 -0.449219 0.652344 -1.753906 -0.097656 -2.914062 c -0.546875 -0.847657 -1.351563 -1.417969 -2.03125 -1.4375 c -0.027344 0 -0.054688 0 -0.082032 0 z m 0 0" fill="#242032" fill-opacity="0.501961"/>
</svg>
