<?xml version="1.0" encoding="UTF-8" standalone="no"?>
<svg
   width="16"
   height="16"
   version="1"
   id="svg566"
   xmlns="http://www.w3.org/2000/svg"
   xmlns:svg="http://www.w3.org/2000/svg">
  <defs
     id="defs570" />
  <path
     id="path2-1"
     style="display:inline;fill:#000000;fill-opacity:1;stroke-width:0.137931;enable-background:new"
     d="M 9.96309,4.762123 C 9.74294,4.761778 9.52842,4.870324 9.33217,5.087554 9.02939,5.422693 8.94163,5.732634 8.62608,7.586476 8.36731,9.106713 8.2096,9.779615 8.09537,9.850215 8.01707,9.898635 7.8303,9.311098 7.4674,7.875 7.14043,6.581066 7.0246,6.281579 6.77452,6.08486 6.53884,5.89948 6.15637,5.911954 5.94073,6.1118 5.64499,6.385889 5.49679,6.786038 5.28987,7.868535 c -0.4983,2.606892 -0.68746,3.140322 -1.20582,3.401401 -0.49259,0.2481 -1.545,0.325367 -3.0458,0.223599 C 0.66099,11.467955 0.30031,11.438605 0,11.411365 v 1.076509 c 0.20749,0.02181 0.39234,0.04344 0.61288,0.06331 0.8841,0.07963 2.7453,0.02623 3.29849,-0.09456 0.57025,-0.124517 1.06747,-0.39303 1.32139,-0.71363 0.40992,-0.517565 0.79237,-1.65502 0.99434,-2.956897 0.0455,-0.29326 0.1036,-0.556596 0.12904,-0.585129 0.0255,-0.02853 0.15741,0.374424 0.29338,0.895474 0.13596,0.521049 0.33757,1.136868 0.448,1.368265 0.58562,1.227051 1.7243,0.897985 2.19343,-0.63389 0.0749,-0.244624 0.25597,-1.132679 0.40248,-1.97333 0.1465,-0.840651 0.27914,-1.541268 0.29472,-1.556843 0.0565,-0.05647 0.23713,0.710771 0.43615,1.852371 0.32042,1.837919 0.45315,2.200387 0.97441,2.659213 0.44768,0.39407 0.90833,0.519218 1.52424,0.414332 0.25615,-0.04362 0.62781,-0.124277 0.6083,-0.162177 l -0.47117,-0.91514 -0.368,0.04149 C 11.99148,10.269493 11.89263,10.079424 11.49111,7.87985 11.15414,6.033855 10.96711,5.429931 10.62689,5.08971 10.409,4.871828 10.18325,4.76247 9.96309,4.762124 Z M 2.75862,2.827586 c -0.61131,0 -1.10345,0.492138 -1.10345,1.103448 V 10.85237 H 3.17241 V 4.896552 c 0,-0.305656 0.24607,-0.551725 0.55173,-0.551725 h 10.20689 c 0.30566,0 0.55173,0.246069 0.55173,0.551725 v 6.206896 c 0,0.305655 -0.24607,0.551724 -0.55173,0.551724 H 6.07328 l -0.875,1.517242 h 9.69827 C 15.507862,13.172414 16,12.680276 16,12.068966 V 3.931034 C 16,3.319724 15.507862,2.827586 14.89655,2.827586 Z" />
</svg>
