<?xml version="1.0" encoding="UTF-8" standalone="no"?>
<svg
   width="16"
   height="16"
   version="1"
   id="svg14"
   xmlns="http://www.w3.org/2000/svg"
   xmlns:svg="http://www.w3.org/2000/svg">
  <defs
     id="defs18" />
  <path
     id="path2"
     style="fill:#000000"
     d="m 6.0012991,15 c 0,0.554688 0.445312,1 1,1 h 2 c 0.554688,0 0.9999999,-0.445312 0.9999999,-1 V 14 H 6.0012991 Z m 0,0 M 7.9973931,0 c -2.835938,0 -5.292969,2 -5.871094,4.777344 -0.527344,2.535156 0.6875,5.035156 2.871094,6.324218 L 5.0012991,12 c 0,0.554688 0.449219,1 1,1 h 3.9999999 c 0.550781,0 1,-0.445312 1,-1 V 11.101562 C 13.184893,9.808594 14.403643,7.304688 13.872393,4.769531 13.290361,1.996094 10.83333,0 7.9973931,0 Z m 0,2 c 1.898437,0 3.5273439,1.320312 3.9179679,3.179688 0.386719,1.863281 -0.574218,3.726562 -2.3124999,4.484374 -0.363281,0.160157 -0.597656,0.519532 -0.601562,0.914063 V 11 h -2.003906 v -0.417969 c 0,-0.398437 -0.234375,-0.753906 -0.597656,-0.914062 C 4.6575491,8.90625 3.6966111,7.042969 4.0833301,5.183594 4.4700491,3.324219 6.0950491,2 7.9973931,2 Z m 0,0" />
</svg>
