<?xml version="1.0" encoding="UTF-8" standalone="no"?>
<svg
   height="16px"
   viewBox="0 0 16 16"
   width="16px"
   version="1.1"
   id="svg4"
   xmlns="http://www.w3.org/2000/svg"
   xmlns:svg="http://www.w3.org/2000/svg">
  <defs
     id="defs8" />
  <path
     id="path1427-3"
     style="fill:#000000;fill-opacity:1;stroke-width:0.135772"
     d="M 14.923828 0 C 14.71231 0.0086776912 14.518518 0.12029972 14.40625 0.296875 C 14.40625 0.296875 13.6821 1.2332404 12.810547 2.4414062 L 1.4921875 2.4414062 C 0.8931415 2.4414062 0.40625 2.9267142 0.40625 3.5273438 L 0.40625 11.140625 C 0.40625 11.741255 0.8931415 12.228516 1.4921875 12.228516 L 5.9355469 12.228516 L 5.9355469 16 L 9.6953125 12.228516 L 14.507812 12.228516 C 15.106859 12.228516 15.59375 11.741255 15.59375 11.140625 L 15.59375 3.5273438 C 15.59375 2.9888017 15.202195 2.5434483 14.689453 2.4570312 C 15.165788 1.5916667 15.484375 0.98046875 15.484375 0.98046875 C 15.774228 0.55065221 15.447674 -0.021674789 14.923828 0 z M 2.1914062 3.4414062 L 12.101562 3.4414062 C 11.383049 4.4736787 10.664181 5.5688815 10.226562 6.4101562 C 9.8456196 7.1424759 9.3554688 8.7285156 9.3554688 8.7285156 C 9.1511933 9.4814837 9.3861699 9.7039583 9.96875 9.125 C 9.96875 9.125 11.187669 7.9910002 11.679688 7.3496094 C 12.423741 6.379668 13.360504 4.8154852 14.119141 3.4785156 C 14.470355 3.5631302 14.693359 3.799005 14.693359 4.1738281 L 14.693359 10.367188 C 14.693359 10.843552 14.335847 11.205078 13.808594 11.205078 L 9.5878906 11.205078 L 6.7949219 13.841797 L 6.7949219 11.205078 L 2.1914062 11.205078 C 1.6641542 11.205078 1.306548 10.843548 1.3066406 10.367188 L 1.3066406 4.1738281 C 1.3067321 3.6974649 1.6641541 3.4414062 2.1914062 3.4414062 z " />
</svg>
