<?xml version="1.0" encoding="UTF-8" standalone="no"?>
<svg
   height="16px"
   viewBox="0 0 16 16"
   width="16px"
   version="1.1"
   id="svg135"
   xmlns="http://www.w3.org/2000/svg"
   xmlns:svg="http://www.w3.org/2000/svg">
  <defs
     id="defs139" />
  <path
     style="fill:#000000;fill-opacity:1;stroke:none;stroke-width:0.0311034;stroke-opacity:1"
     d="M 2.9702446,15.968774 C 1.5837806,15.769016 0.45406659,14.756914 0.08101759,13.380424 0.00847759,13.112705 -2.41112e-6,13.02491 -2.41112e-6,12.540441 c 0,-0.484469 0.00840000112,-0.572264 0.08102000112,-0.839947 0.171487,-0.632771 0.476189,-1.160672 0.92703601,-1.606077 0.378012,-0.3734732 0.914767,-0.7060182 1.345092,-0.8334252 l 0.120225,-0.03529 0.01897,-0.344251 c 0.0832,-1.510315 1.132594,-2.766095 2.64478,-3.164912 0.267708,-0.0707 0.363897,-0.08013 0.834554,-0.08106 0.300281,-7.04e-4 0.593064,0.01432 0.672238,0.03401 0.140248,0.03529 0.140278,0.03529 0.231534,-0.07908 0.181631,-0.227397 0.59305,-0.596432 0.866223,-0.776926 0.64229,-0.424452 1.294531,-0.637056 2.06685,-0.673686 0.6860874,-0.03226 1.3061254,0.09388 1.9222384,0.391281 0.847623,0.409381 1.448395,1.002924 1.862786,1.840356 0.297967,0.602139 0.427462,1.216274 0.39757,1.885465 l -0.01551,0.348129 0.253832,0.165119 c 0.139604,0.09085 0.403644,0.312001 0.586755,0.491458 1.036293,1.0156422 1.419623,2.4307772 1.04097,3.8429902 -0.154458,0.576026 -0.582987,1.302543 -1.027202,1.741379 -0.424422,0.419315 -1.165932,0.85446 -1.707918,1.002248 -0.573858,0.156525 -0.50245,0.154568 -5.3979524,0.15069 -2.512785,-0.0023 -4.651996,-0.01572 -4.753803,-0.0304 z m 9.7435904,-1.041861 c 0.695618,-0.183766 1.314499,-0.602022 1.731844,-1.170419 0.172144,-0.234489 0.385819,-0.70122 0.465566,-1.016936 0.09839,-0.389499 0.0986,-0.997228 4.73e-4,-1.38554 -0.236759,-0.937025 -0.968602,-1.7490662 -1.860344,-2.0642342 -0.178296,-0.06301 -0.271342,-0.11123 -0.261831,-0.135712 0.294324,-0.757742 0.261943,-1.591831 -0.09031,-2.326478 -0.30848,-0.643416 -0.779525,-1.109029 -1.427651,-1.411234 -0.46477,-0.216716 -0.741105,-0.276453 -1.2788204,-0.276453 -0.371887,0 -0.501725,0.01269 -0.719728,0.07 -0.860994,0.226232 -1.582658,0.799486 -1.957778,1.555133 l -0.0871,0.175438 -0.143212,-0.07151 c -0.266455,-0.133021 -0.659043,-0.235852 -0.972422,-0.254732 -1.085639,-0.06546 -2.141748,0.644918 -2.488838,1.673792 -0.196552,0.58263 -0.176715,1.138961 0.0624,1.7498822 0.01604,0.04076 -0.01037,0.04589 -0.182541,0.03494 -0.242674,-0.01537 -0.637258,0.05858 -0.94717,0.177512 -0.637138,0.244284 -1.215048,0.84428 -1.43134,1.486112 -0.20052701,0.595011 -0.18754901,1.13648 0.04122,1.72017 0.247364,0.631047 0.853971,1.200155 1.509173,1.415846 0.131902,0.04321 0.314964,0.0912 0.406803,0.106687 0.0945,0.01584 2.163559,0.02574 4.766974,0.02271 l 4.5999954,-0.0047 z M 6.0029606,13.294958 c -0.671222,-0.397967 -1.220405,-0.737478 -1.220405,-0.754517 0,-0.01724 0.549183,-0.35655 1.220405,-0.754528 l 1.220408,-0.723466 0.0086,0.491643 0.0086,0.491714 h 2.001936 2.0019434 v 0.494637 0.494637 H 9.2424706 7.2405256 l -0.0086,0.491713 -0.0086,0.491702 z m 2.738094,-2.729536 v -0.498224 h -2.002718 -2.00272 v -0.4946252 -0.49466 h 2.001944 2.001945 l 0.0086,-0.491702 0.0086,-0.49169 1.220388,0.723512 c 0.6712174,0.397955 1.2243394,0.735206 1.2291604,0.74952 0.0048,0.01444 -0.516191,0.336622 -1.157806,0.7163732 -0.6416144,0.379681 -1.1982594,0.710467 -1.2369814,0.735054 l -0.07042,0.04449 z"
     id="path826-6" />
</svg>
