<?xml version="1.0" encoding="UTF-8" standalone="no"?>
<svg
   width="16"
   height="16"
   version="1"
   id="svg566"
   xmlns="http://www.w3.org/2000/svg"
   xmlns:svg="http://www.w3.org/2000/svg">
  <defs
     id="defs570" />
  <path
     id="path4144"
     style="fill:#000000;stroke-width:0.0616194"
     d="M 9.5390625 0.17773438 C -4.3206419 10.319963 24.454182 3.7335658 6.3398438 15.525391 C 6.2518606 15.582665 6.1624714 15.63912 6.0722656 15.697266 C 9.1780136 16.601953 12.442067 15.441678 14.462891 12.683594 C 15.715052 10.974645 16.227907 8.8796725 15.90625 6.7832031 C 15.58441 4.6867337 14.466845 2.8398477 12.759766 1.5839844 C 11.825134 0.89646245 10.643931 0.40628267 9.5390625 0.17773438 z " />
  <path
     style="fill:#000000;stroke-width:0.0616194;opacity:0.6"
     id="path4155"
     d="M 9.548522,0.17124139 C 8.5636829,-0.0385851 7.5380618,-0.05753077 6.5172853,0.12517739 4.4356859,0.49796149 2.6233095,1.6632446 1.4140161,3.4063089 c -0.00693,0.010155 -0.014354,0.019751 -0.0222,0.028976 -0.00577,0.010587 -0.012151,0.021174 -0.019135,0.03139 -2.4404183,3.5879773 -1.53941277,8.5303231 2.0084982,11.0174081 0.8384531,0.587811 1.7517252,0.989386 2.6908763,1.213515 C 24.738312,3.6656046 -4.4005763,10.372437 9.548522,0.17124139 Z" />
</svg>
