<?xml version="1.0" encoding="UTF-8" standalone="no"?>
<svg
   width="16"
   height="16"
   version="1.1"
   id="svg10344"
   xmlns="http://www.w3.org/2000/svg"
   xmlns:svg="http://www.w3.org/2000/svg">
  <defs
     id="defs10348" />
  <path
     style="fill:#000000;stroke-width:1.00503"
     d="m 8,0.02871702 c -0.4522613,0 -0.9045226,0.1708543 -1.2462312,0.5326633 L 0.5326633,6.9734407 C 0.1909547,7.3251994 0.0100503,7.7875109 0,8.2498225 c 0,0.010046 0,0.020101 0,0.030151 0,1.3768838 3.6683417,0.040201 4,1.7185928 0.1809046,0.9145727 -2,0.4924617 -2,1.4070357 0,1.075377 3.0854271,0.341708 3.9698493,1.21608 0.361809,0.884422 -1.1859298,0.743718 -0.9045227,1.56784 0.5125629,0.532662 1.678392,0.231155 1.8994975,1.095476 0.2613065,0.984925 1.9296482,0.814071 2.9045229,0.09046 0.522613,-0.532667 -0.79397,-0.773874 -0.281407,-1.316587 0.522613,-0.532663 3.075377,-0.422111 3.095477,-1.58794 -0.241206,-0.733668 -1.20603,-0.854272 -1.21608,-1.718594 -0.05025,-0.733668 0.783919,-0.522612 3.437185,-1.2462297 C 15.959799,9.0035913 16,8.7422849 16,8.2799732 c 0,-0.010046 0,-0.0201 0,-0.030151 C 15.989943,7.7875108 15.778895,7.3251993 15.437186,6.9734405 L 9.246231,0.56138032 C 8.8944723,0.19957132 8.4522613,0.02871702 8,0.02871702 Z M 8.120603,1.3754507 c 0.4723618,0 1.758794,1.5879397 2.904523,2.7839196 0.331658,0.4321608 -0.120604,0.8743718 -0.120604,0.8743718 L 8.5025126,3.7171592 7.4371859,5.1543451 6.5025126,3.7473099 5.9396985,5.9382648 4.2814071,4.9432899 4.7236181,4.3804757 7.316583,1.7171592 C 7.5075377,1.5161541 7.6683417,1.3754507 8.120603,1.3754507 Z m 7.125628,9.6281403 c -0.130653,-0.01006 -0.251256,0 -0.341709,0.03015 -0.170853,0.05025 -0.974874,0.0804 -0.904522,0.683417 0.723618,0.311558 1.829146,0.552763 1.959799,-0.0603 0.100503,-0.452262 -0.331658,-0.643216 -0.713568,-0.653266 z M 2.8442211,13.033742 c -0.070352,0.01006 -0.120603,0.03015 -0.1809045,0.0603 -0.5527638,0.211055 -0.9246231,0.653267 -0.4120604,0.844221 0.5125629,0.190955 0.8643217,-0.01006 1.316583,-0.251256 C 4.0201005,13.445803 4,13.405602 3.9698493,13.315149 c -0.060302,0.01006 -0.4723619,-0.241206 -0.9045227,-0.281407 -0.070352,-0.01006 -0.1507537,-0.01006 -0.2211055,0 z"
     id="path10342" />
</svg>
