<?xml version="1.0" encoding="UTF-8" standalone="no"?>
<svg
   width="16"
   height="16"
   version="1"
   id="svg566"
   xml:space="preserve"
   xmlns="http://www.w3.org/2000/svg"
   xmlns:svg="http://www.w3.org/2000/svg"><defs
     id="defs570" /><path
     style="fill:#000000;fill-opacity:0.4;stroke-width:0.038204"
     d="M 10.040118,3.7449197 C 9.9711136,3.7411337 9.88515,3.7410596 9.7988066,3.7455921 9.5481176,3.7587499 9.450344,3.7822702 9.3137949,3.8622935 8.9168709,4.0949063 8.7488515,4.3701539 8.7481218,4.7888153 c -8.061e-4,0.4636068 0.1921685,0.755195 0.5847751,0.8833932 0.098112,0.032036 0.2842512,0.04765 0.486355,0.040816 0.2740631,-0.00927 0.3558691,-0.027753 0.5021741,-0.113493 0.498093,-0.2919023 0.69055,-0.9195526 0.429198,-1.3997441 -0.151515,-0.278382 -0.322234,-0.3642722 -0.202735,-0.1020017 0.06099,0.1338592 -0.03733,0.2781027 -0.211913,0.3108554 -0.180465,0.033856 -0.280698,-0.00644 -0.3501787,-0.1408028 -0.094832,-0.183385 -0.05909,-0.3079813 0.1124477,-0.3917401 0.127804,-0.062404 0.138901,-0.077354 0.08126,-0.1096127 -0.01835,-0.010264 -0.07038,-0.01778 -0.139385,-0.021565 z"
     id="path50" /><path
     id="path28"
     style="fill:#000000;stroke-width:0.038204"
     d="M 3.3364291e-7,8.9153699 C 0.01158902,8.9728211 0.02375226,9.0301548 0.03648814,9.0873626 c 0.0027786,-4.034e-4 0.005828,-5.971e-4 0.0090287,-5.971e-4 0.05642427,0 0.37286216,0.2286704 0.37286216,0.2694427 0,0.013143 -0.0437816,0.04389 -0.0973008,0.068275 -0.0905153,0.041242 -0.15092269,0.053353 -0.19542249,0.02634 0.0286763,0.1070249 0.0593743,0.2134979 0.0920776,0.3193617 0.0418962,-0.034922 0.15597711,-0.018514 0.39315807,0.040517 C 0.9993064,9.9073729 1.3164998,10.084861 1.633744,10.383016 l 0.2410883,0.226612 -0.2736958,0.260489 c -0.1505296,0.143256 -0.3002476,0.31203 -0.3327184,0.3751 -0.046104,0.08955 -0.00126,0.06029 0.2048988,-0.133639 0.3637374,-0.342157 0.7428377,-0.62061 1.0969476,-0.805717 0.3297946,-0.172395 0.3632013,-0.23419 0.069469,-0.128565 L 2.4505041,10.245347 1.9024408,9.9733671 C 1.2013071,9.6253882 0.11787613,9.0263501 0.01193909,8.9280547 0.0078942,8.9243015 0.00393435,8.9200668 3.3364291e-7,8.9153697 Z M 2.9646911,13.254808 c 0.068932,-0.0016 0.064779,0.03502 -0.015296,0.09581 -0.092249,0.07003 -0.1320656,0.06539 -0.1169998,-0.01365 0.00701,-0.03677 0.051208,-0.07238 0.098271,-0.07909 0.012822,-0.0018 0.024178,-0.0028 0.034025,-0.0031 z m 1.0201666,1.39094 c -0.025217,-0.05535 0.025929,-0.136429 0.1722909,-0.312124 0.1021793,-0.122658 0.1981543,-0.266011 0.2132563,-0.318541 0.015102,-0.05253 0.072192,-0.186384 0.1268492,-0.297499 0.1657065,-0.336872 0.2107203,-0.274585 0.3324941,0.459866 0.057214,0.345072 0.1738129,-0.01654 0.171769,-0.532692 -0.00215,-0.544053 -0.076432,-0.850434 -0.3363744,-1.38706 -0.2596169,-0.535952 -0.5948624,-1.135882 -0.6831206,-1.222528 -0.052155,-0.0512 -0.055782,-0.04645 -0.034622,0.04425 0.013025,0.05583 0.034084,0.128701 0.04686,0.161994 0.042066,0.109622 -0.095712,0.117098 -0.2066149,0.01119 -0.1464707,-0.139871 -0.8648119,-0.32772 -0.9453254,-0.247207 -0.011037,0.01104 0.034668,0.134642 0.1015539,0.274666 0.102943,0.215509 0.1150189,0.269022 0.078721,0.348686 -0.053258,0.116888 -0.099821,0.116516 -0.2928727,-0.0024 -0.1915503,-0.117979 -0.2483261,-0.11887 -0.2483261,-0.0037 0,0.04996 -0.027013,0.113296 -0.060067,0.140728 -0.062671,0.05201 -0.1566479,0.221479 -0.2584742,0.465985 l -0.059768,0.143489 0.090063,-0.02261 c 0.069222,-0.01737 0.09597,-0.004 0.1155821,0.05783 l 0.025519,0.08036 0.071185,-0.08671 c 0.094038,-0.114531 0.1838736,-0.06157 0.2628019,0.154905 0.057295,0.157139 0.056105,0.165069 -0.064171,0.408977 -0.1331879,0.270091 -0.155692,0.3604 -0.072528,0.29138 0.037835,-0.0314 0.084717,-0.01316 0.1910201,0.07447 0.077483,0.06387 0.1408772,0.138428 0.1408772,0.16565 0,0.02928 0.065768,0.05833 0.1610242,0.07111 0.088565,0.01188 0.1805495,0.04823 0.2043766,0.08081 0.023827,0.03259 0.052632,0.04997 0.064021,0.03858 0.011389,-0.01139 0.057304,0.03065 0.1020016,0.09342 0.049901,0.07008 0.066266,0.123355 0.042382,0.138116 -0.069923,0.04322 -0.0409,0.101586 0.047009,0.09447 0.1629936,-0.0132 0.1875443,-0.0014 0.162367,0.0779 -0.0166,0.0523 -0.00683,0.07641 0.030892,0.07641 0.033948,0 0.055067,0.03832 0.055067,0.09984 0,0.05492 0.023639,0.116252 0.052531,0.136251 0.072494,0.05018 0.051509,0.143443 0.1997504,0.241759 z M 8.6637296,0.95065473 C 8.6075089,0.9498983 8.4193026,1.0180787 8.2455003,1.1021275 7.9822537,1.2294305 7.8904548,1.2549436 7.6953473,1.2549436 c -0.2302869,0 -0.6105066,0.1199262 -0.7991499,0.252057 -0.1017713,0.071283 -0.074613,0.067846 0.1923629,-0.024325 0.1548355,-0.053455 0.2736018,-0.070746 0.3784584,-0.055068 0.2043055,0.03055 0.4626327,0.1617604 0.5345578,0.271532 0.1022198,0.1560068 0.2671374,0.2145193 0.5298568,0.1878862 0.5466218,-0.055414 1.0124169,0.020963 1.1735794,0.1925126 0.047683,0.050756 0.1162269,0.092301 0.1522938,0.092301 0.036067,0 0.1404632,0.034025 0.2320595,0.075587 0.106593,0.048368 0.250607,0.075873 0.400023,0.076408 0.353092,0.00127 0.587909,0.041532 0.587909,0.1008078 0,0.1255984 -0.374993,0.1361965 -0.744979,0.021042 C 9.7258179,2.2569171 9.6043176,2.2472778 9.0841975,2.3465189 8.5411864,2.4501274 8.364813,2.4607779 8.364813,2.39017 8.364813,2.363182 8.416388,2.310705 8.479425,2.2734686 8.6409592,2.1780468 8.6217602,2.1382145 8.43167,2.1744514 8.2796723,2.2034265 7.276796,2.4186942 7.0658766,2.4676225 6.9814129,2.4872158 6.9762646,2.4826451 7.0214049,2.4280007 7.0494806,2.3940156 7.0613743,2.3483045 7.0478195,2.326372 7.002296,2.2527139 6.8493615,2.2854727 6.5211711,2.4392679 6.0549061,2.6577673 6.0031622,2.6400105 6.2922454,2.360696 6.5305877,2.1304083 6.5759656,2.0572278 6.48043,2.0572278 c -0.082332,0 -0.4193035,0.2569899 -0.5224696,0.398456 C 5.9054298,2.5277159 5.747946,2.7177063 5.607931,2.8778679 5.467916,3.0380294 5.2892691,3.2620982 5.2109677,3.3757884 5.0725633,3.5767457 5.0703872,3.5852212 5.1322464,3.6796298 5.2347944,3.8361379 5.6017443,4.1875353 5.692771,4.216426 c 0.052935,0.016801 0.095157,0.00814 0.1147611,-0.023579 0.022833,-0.036944 0.083074,0.00196 0.2285524,0.1474438 0.1086663,0.1086664 0.3001792,0.2711904 0.4256167,0.361222 0.1254376,0.090032 0.3084176,0.2254835 0.4065893,0.3010056 0.1986532,0.1528206 0.6465337,0.4155469 0.8375033,0.4912798 0.1327823,0.052657 0.168074,0.1677653 0.063723,0.2078089 -0.033237,0.012754 -0.2039858,0.023206 -0.379503,0.023206 -0.4209796,0 -0.5153377,0.036581 -0.5144858,0.1996011 8.94e-4,0.1711073 0.1314982,0.6609955 0.2069137,0.7760934 0.064978,0.099169 0.1723349,0.127125 0.1775887,0.046263 0.00171,-0.026265 0.023331,-0.00478 0.048054,0.047755 0.024723,0.05253 0.095627,0.1728732 0.1575916,0.2674281 0.061965,0.094555 0.1079794,0.202455 0.1022255,0.2397451 -0.011736,0.076054 0.1920462,0.3691879 0.3777869,0.5434371 0.067194,0.063037 0.1640396,0.1800666 0.2151959,0.260041 0.056062,0.087644 0.1567869,0.1746778 0.2535493,0.2191507 0.088294,0.040581 0.1862892,0.089204 0.2178076,0.1080458 0.2067646,0.1236067 0.2628283,0.1290516 1.0474764,0.1010316 0.5596094,-0.019984 0.7863164,-0.016082 0.7863164,0.01358 0,0.04429 -0.07782,0.067163 -0.324735,0.09551 -0.08405,0.00965 -0.281754,0.063431 -0.4393456,0.1194622 -0.2361141,0.083952 -0.3285789,0.098209 -0.5257529,0.081034 -0.1316009,-0.011461 -0.2648374,-0.011019 -0.296081,9.7e-4 -0.08176,0.031374 -0.07011,0.1281924 0.015446,0.1281924 0.039777,0 0.081566,0.024015 0.092824,0.053351 0.019489,0.050789 0.54005,0.3640195 0.9024953,0.5430641 0.1493172,0.073761 0.1700372,0.099315 0.1719172,0.2117636 0.0017,0.1001924 0.01957,0.130356 0.08282,0.139385 0.08901,0.012704 0.177415,0.1666857 0.144683,0.2519827 -0.01263,0.0329 0.01038,0.06417 0.05835,0.07939 0.04354,0.01382 0.07917,0.04569 0.07917,0.07081 0,0.02512 0.03846,0.06268 0.08544,0.08342 0.04698,0.02074 0.100922,0.08926 0.11991,0.152294 0.06696,0.222292 0.147526,0.344486 0.266533,0.404351 0.08634,0.04343 0.123948,0.09196 0.133191,0.171918 0.0071,0.06127 0.04612,0.142549 0.08678,0.180573 0.04066,0.03802 0.06339,0.08616 0.05052,0.107001 -0.01288,0.02084 0.01685,0.07788 0.06604,0.126775 0.225152,0.223855 0.337718,0.369357 0.337718,0.436362 0,0.04002 0.02579,0.09413 0.05731,0.120282 0.03152,0.02616 0.05731,0.07013 0.05731,0.09767 0,0.02755 0.04716,0.05551 0.104763,0.06216 0.06633,0.0077 0.109702,0.03843 0.118343,0.08394 0.01903,0.10025 0.343495,0.534419 0.420393,0.562539 0.03484,0.01274 0.06328,0.06425 0.06328,0.114612 0,0.06367 0.02032,0.08988 0.06686,0.08618 0.03677,-0.0029 0.06686,0.0087 0.06686,0.02589 0,0.01718 0.02968,0.06094 0.06596,0.09723 0.0625,0.0625 0.06217,0.06821 -0.0063,0.107822 -0.03974,0.023 -0.124898,0.08737 -0.189304,0.143041 l -0.117074,0.101181 0.08514,0.264444 c 0.09369,0.290898 0.104894,0.371214 0.04671,0.335255 -0.08277,-0.05115 -0.07698,0.102827 0.01679,0.444942 0.0539,0.196625 0.09803,0.376406 0.09805,0.399501 3e-6,0.0043 -0.0046,0.01037 -0.01336,0.01806 a 8.7869223,8.7869223 0 0 0 3.374787,-2.948275 c -0.02298,0.0025 -0.03768,-0.02572 -0.03768,-0.08656 0,-0.169599 -0.262637,-0.627825 -0.446658,-0.779302 -0.09537,-0.07851 -0.264927,-0.283556 -0.376817,-0.455687 l -0.203407,-0.312945 -0.489414,-0.02059 c -0.269165,-0.01133 -0.670866,-0.02645 -0.892646,-0.03358 -0.461613,-0.01484 -0.514567,-0.03244 -0.451583,-0.15013 0.03528,-0.06592 0.03045,-0.08988 -0.02634,-0.131401 -0.03819,-0.02793 -0.09135,-0.05081 -0.118119,-0.05081 -0.06486,0 -0.319204,-0.2253698 -0.317049,-0.2809342 9.32e-4,-0.024088 0.129872,-0.1428336 0.28653,-0.263921 0.156658,-0.1210875 0.284814,-0.2416046 0.284814,-0.2678012 0,-0.121392 -0.233346,-0.1939641 -0.878692,-0.2732482 C 11.876867,8.9515834 11.703373,8.9070594 11.402028,8.7833648 11.191906,8.6971148 10.938327,8.6159589 10.838519,8.603015 10.738709,8.590071 10.65705,8.566743 10.65705,8.551231 c 0,-0.075804 0.134916,-0.1069392 0.57306,-0.1322964 0.488798,-0.028289 1.238445,-0.1899888 1.365644,-0.2945887 0.04322,-0.035543 0.205211,-0.049993 0.560524,-0.049993 h 0.499786 l 0.08857,-0.1853491 C 13.877636,7.610469 13.982716,7.1616239 14.007884,6.764821 14.028374,6.4417079 14.023394,6.4028831 13.951254,6.3254749 13.90773,6.27878 13.791764,6.051457 13.693601,5.8203228 13.595437,5.5891885 13.483572,5.3399073 13.444976,5.2663646 c -0.0386,-0.073543 -0.09764,-0.2214274 -0.131251,-0.3286141 -0.03361,-0.1071871 -0.08608,-0.2275297 -0.116553,-0.267428 -0.04805,-0.062919 -0.06046,-0.064925 -0.09372,-0.015222 -0.02109,0.031518 -0.03864,0.1045834 -0.03895,0.162367 -3.05e-4,0.057784 -0.01474,0.105061 -0.03209,0.105061 -0.04968,0 -0.36884,-0.5337455 -0.445465,-0.7449782 -0.03811,-0.105061 -0.14408,-0.3608552 -0.235492,-0.568434 -0.09141,-0.2075784 -0.166247,-0.3923903 -0.166247,-0.4106931 0,-0.018302 0.149412,-0.033279 0.332047,-0.033279 0.321239,0 0.340852,0.00524 0.601713,0.1596064 0.148307,0.087763 0.326472,0.2038073 0.395919,0.2578771 0.127028,0.098902 0.386239,0.5536387 0.341224,0.5986537 C 13.842831,4.1945634 13.720854,4.1432994 13.585027,4.067341 13.4492,3.991382 13.329138,3.9292244 13.318271,3.9292244 c -0.01087,0 0.169993,0.1848119 0.401888,0.4106931 0.231894,0.2258812 0.654965,0.6420623 0.940176,0.9248805 0.285211,0.2828181 0.525072,0.4948152 0.532991,0.4710581 0.02463,-0.073901 -0.201548,-0.5582886 -0.425467,-0.9112253 -0.11769,-0.1854999 -0.214002,-0.3643065 -0.214002,-0.3973366 0,-0.03303 -0.07736,-0.1407699 -0.171918,-0.2394466 -0.09455,-0.098677 -0.171918,-0.188975 -0.171918,-0.2006456 0,-0.011671 0.04728,-0.00972 0.105061,0.00433 0.102199,0.024854 0.10324,0.023459 0.0382,-0.050068 -0.03677,-0.041572 -0.06686,-0.095038 -0.06686,-0.1188649 0,-0.023828 -0.103151,-0.1133895 -0.229225,-0.1990043 -0.149431,-0.1014767 -0.229224,-0.181759 -0.229224,-0.2306418 0,-0.041241 0.01719,-0.07499 0.0382,-0.07499 0.02101,0 0.0382,-0.026883 0.0382,-0.059768 0,-0.037326 -0.110862,-0.1110407 -0.295111,-0.1961688 C 13.273714,2.9069805 12.886142,2.6700827 12.414886,2.332043 12.114891,2.116852 12.078839,2.101005 11.934948,2.120727 11.764949,2.144028 11.19191,2.0332028 11.19191,1.9770143 c 0,-0.018903 0.08696,-0.034399 0.193259,-0.034399 0.258954,0 0.207727,-0.062281 -0.07857,-0.09551 -0.126111,-0.014637 -0.229299,-0.039963 -0.229299,-0.056336 0,-0.016372 0.159024,-0.08777 0.353387,-0.158636 L 11.784072,1.5032696 11.28742,1.4773027 C 10.665517,1.4447613 10.268778,1.3875558 10.218379,1.3231438 10.191621,1.2889447 10.104646,1.277558 9.9393106,1.2867304 9.7810437,1.2955105 9.6787284,1.2831622 9.6394241,1.2505413 9.5957458,1.2142911 9.4488346,1.2040665 9.0911369,1.2121879 8.5466083,1.2245515 8.4696478,1.1944242 8.6560441,1.041986 L 8.7659551,0.9520725 Z M 10.523713,1.5605756 c 0.141736,0 0.400769,0.1159091 0.400769,0.1793052 0,0.055674 -0.16486,0.063603 -0.28653,0.013804 -0.04203,-0.0172 -0.109132,-0.067645 -0.14916,-0.1121498 -0.0724,-0.080497 -0.07221,-0.08096 0.03492,-0.08096 z m 1.244391,1.0775472 c 0.02515,-0.00124 0.04935,-8.978e-4 0.07178,0.00134 0.190008,0.018989 0.765572,0.2445587 0.765572,0.3000356 0,0.093504 -1.219243,-0.042691 -1.229094,-0.1372957 -0.0071,-0.068326 0.215695,-0.1553902 0.39174,-0.1640832 z M 9.9487127,3.6031473 c 0.1062923,-5.272e-4 0.2124233,0.013019 0.3165263,0.041039 0.532874,0.143429 0.775918,0.4454454 0.805045,1.000393 0.01616,0.3079011 0.01335,0.3206188 -0.124313,0.5517198 -0.09475,0.1590597 -0.133933,0.2643145 -0.119611,0.3213764 0.01744,0.069477 -0.01177,0.1060826 -0.160874,0.2017649 -0.100167,0.064277 -0.293479,0.1430507 -0.429572,0.1751264 -0.3049494,0.071874 -0.719997,0.07532 -0.8103426,0.00672 -0.036445,-0.027675 -0.056473,-0.06008 -0.044547,-0.072005 0.011926,-0.011926 -0.054368,-0.0553 -0.1472945,-0.096406 C 8.839293,5.558393 8.6435471,5.1924379 8.6791754,4.69614 8.7015974,4.383808 8.802919,4.1782846 9.0351742,3.9738454 9.3092291,3.7326127 9.629836,3.6047339 9.9487127,3.6031473 Z m -2.683384,0.2928723 c 0.072936,-0.00231 0.2207921,0.041306 0.2207921,0.074468 0,0.019343 -0.02149,0.03409 -0.047755,0.032757 -0.081401,-0.00413 -0.2319545,-0.074498 -0.2088533,-0.097599 0.00611,-0.00611 0.018985,-0.00909 0.035816,-0.00963 z m 0.2783219,2.267617 c 1.911e-4,-1.45e-5 3.859e-4,-6.1e-6 5.96e-4,0 0.018698,5.196e-4 0.051292,0.079278 0.1007333,0.2390734 0.036902,0.1192668 0.06115,0.2227684 0.053948,0.2299702 -0.0072,0.0072 -0.049374,-0.033144 -0.093794,-0.089615 -0.051884,-0.065959 -0.080811,-0.1577314 -0.080811,-0.2566832 0,-0.080529 0.00612,-0.1218353 0.019326,-0.1227453 z m 7.4045644,2.579293 c -0.190489,0 0.168978,0.7157174 0.443226,0.8824977 0.06329,0.038487 0.210859,0.1994707 0.327943,0.3577895 0.203048,0.2745622 0.31446,0.3653052 0.271457,0.2210162 -0.01096,-0.03677 -0.08296,-0.33333 -0.160054,-0.6590192 -0.0771,-0.3256892 -0.155333,-0.6211858 -0.173784,-0.6566315 -0.02533,-0.048667 -0.06556,-0.05924 -0.164381,-0.043203 -0.07602,0.012336 -0.206902,-0.00466 -0.312348,-0.040592 -0.09984,-0.034018 -0.204284,-0.061858 -0.232059,-0.061858 z m -1.481376,2.8316484 c 0.0623,0.0025 0.09372,0.01036 0.09372,0.02343 0,0.02172 -0.03328,0.04824 -0.07395,0.05887 -0.05164,0.0135 -0.06794,0.04221 -0.0541,0.09514 0.01614,0.06174 -0.0038,0.07984 -0.107523,0.0979 -0.616346,0.107294 -1.705609,-0.0064 -1.53898,-0.16065 0.01996,-0.01848 0.259757,-0.04453 0.532916,-0.0579 0.273159,-0.01337 0.664272,-0.03524 0.869141,-0.04858 0.123293,-0.008 0.216471,-0.01076 0.27877,-0.0082 z M 2.9834202,3.6051618 c -0.2238499,0.00672 -0.4862259,0.032865 -0.9222689,0.082377 -0.4880291,0.055415 -0.650092,0.094613 -0.6489459,0.1570693 2.674e-4,0.01502 0.1493017,0.096077 0.3311512,0.1801258 0.18185,0.084049 0.5383335,0.2706487 0.792211,0.414648 0.2538775,0.1439997 0.6592877,0.3642561 0.9009281,0.4894889 0.2416404,0.1252327 0.4737297,0.2593544 0.5157541,0.298021 0.042024,0.038667 0.1881548,0.1303777 0.3247341,0.2037795 C 4.4135632,5.5040734 4.6886321,5.668173 4.8882481,5.7954008 5.282267,6.0465337 5.3800705,6.069223 5.6536715,5.972691 5.8770458,5.89388 6.8357701,5.7267023 7.3715087,5.6731777 7.8672955,5.6236443 7.8678472,5.6316335 7.3524067,5.3977654 6.9828139,5.2300719 5.837981,4.551984 5.5086155,4.3056682 5.3980603,4.2229898 5.2777177,4.0925949 5.2411874,4.0159294 5.1810895,3.8898038 5.1511444,3.8707515 4.9264521,3.8159555 4.7898727,3.7826473 4.6586091,3.743181 4.6347736,3.7282055 4.6109382,3.7132299 4.5077873,3.6992296 4.4055496,3.6970902 4.3033118,3.6949508 3.9743726,3.6688586 3.6745246,3.6391126 3.392618,3.6111465 3.2072697,3.598444 2.9834202,3.6051618 Z m 0.075811,0.1102843 c 0.09459,-0.00699 0.2414929,0.00257 0.534931,0.021788 0.3230424,0.021155 0.6818667,0.056326 0.7974338,0.078199 0.1155672,0.021873 0.2917832,0.050013 0.3915911,0.062529 0.099808,0.012516 0.1814691,0.035415 0.1814691,0.050814 0,0.015399 -0.097009,0.037981 -0.2155692,0.050218 -0.272181,0.028092 -0.3237121,0.074727 -0.1800513,0.1628892 0.28665,0.1759138 0.4255361,0.2719774 0.5485859,0.3792791 0.073594,0.064175 0.2670021,0.1897223 0.4297951,0.2790685 0.162793,0.089346 0.2959317,0.1792066 0.2959317,0.1996755 0,0.020469 -0.0043,0.035377 -0.00955,0.03313 C 5.6921418,4.9724184 4.4393001,4.5605769 4.2196779,4.5024338 3.8269441,4.3984608 2.6261317,4.048995 2.6144379,4.0352553 c -0.00491,-0.00577 -0.021618,-0.05177 -0.037159,-0.1022255 -0.022801,-0.074026 -0.016663,-0.087343 0.031861,-0.068723 0.033074,0.012691 0.1361071,-0.019308 0.2289257,-0.071185 0.084312,-0.047123 0.1265752,-0.070689 0.2211656,-0.077676 z m 7.1368378,0.1854235 c -0.03791,3.439e-4 -0.07547,0.00877 -0.109837,0.027161 -0.1058084,0.056626 -0.1071012,0.2783712 -0.0022,0.383234 0.09101,0.091012 0.08371,0.090361 0.245864,0.022609 0.07084,-0.0296 0.140483,-0.090608 0.154756,-0.1355795 0.0472,-0.1487065 -0.124261,-0.2989353 -0.288544,-0.2974244 z m 4.574407,2.7449432 c -0.003,2.293e-4 -0.0054,0.00119 -0.007,0.00283 -0.04541,0.045407 0.09041,0.5726452 0.18229,0.7076696 0.362349,0.5325219 0.495858,0.7164193 0.657378,0.9054798 0.174658,0.2044393 0.249669,0.2573897 0.249669,0.1762459 0,-0.060929 -0.29182,-0.7750337 -0.375474,-0.9188363 -0.04239,-0.072866 -0.105031,-0.230175 -0.139235,-0.3495071 -0.07841,-0.2735629 -0.185318,-0.4133793 -0.316004,-0.4133793 -0.0546,0 -0.130827,-0.028533 -0.169381,-0.063424 -0.03253,-0.02944 -0.06616,-0.048266 -0.08223,-0.047084 z m -10.0554887,1.28558 c -0.028727,6.2e-6 -0.061182,0.034852 -0.1169253,0.083795 -0.072979,0.064076 -0.1736915,0.1164775 -0.223777,0.1164775 -0.1244117,0 -0.8874585,0.3879648 -1.0524012,0.53508 L 3.1881696,8.7859837 3.3982917,8.7644193 C 3.5138588,8.7525623 3.672883,8.732069 3.7516788,8.7188282 3.8597216,8.7006725 3.8949094,8.7076971 3.8947948,8.7474812 3.8947184,8.776496 3.7475745,8.9863899 3.567822,9.2139134 3.2767196,9.5823786 3.2495765,9.6298621 3.3196453,9.6481855 c 0.092777,0.024262 0.1000062,0.083468 0.022609,0.1857969 -0.03085,0.040787 -0.056637,0.094777 -0.057306,0.1199098 -0.00159,0.059705 0.3134337,-0.029374 0.6290974,-0.1778128 0.1260733,-0.059285 0.323779,-0.1191665 0.4393461,-0.1331171 0.3557309,-0.042942 0.4193697,-0.062939 0.4635969,-0.1455782 0.034258,-0.064011 0.030211,-0.089008 -0.02052,-0.126103 -0.057549,-0.04208 -0.057755,-0.048406 -0.00209,-0.069767 0.033658,-0.012916 0.09325,-0.00631 0.1323712,0.014625 0.039121,0.020937 0.104209,0.038055 0.1446824,0.038055 0.040474,0 0.1373514,0.043304 0.2152708,0.096182 0.07792,0.052878 0.1568897,0.086716 0.1754996,0.075214 0.01861,-0.011502 -0.0587,-0.1966383 -0.171768,-0.4113653 C 5.1773665,8.8994978 5.0215289,8.5691013 4.9440615,8.3799915 4.8055857,8.0419505 4.766195,7.9313819 4.7149873,7.9313928 Z M 3.2645776,13.289207 c 0.031518,0 0.057306,0.01619 0.057306,0.03597 0,0.04818 -0.059615,0.08268 -0.090137,0.05216 -0.043025,-0.04303 -0.026248,-0.08812 0.032831,-0.08812 z" /></svg>
