<?xml version="1.0" encoding="UTF-8" standalone="no"?>
<svg
   viewBox="0 0 16 16"
   style="display:inline;enable-background:new"
   version="1.0"
   id="svg11300"
   height="16"
   width="16"
   xmlns:xlink="http://www.w3.org/1999/xlink"
   xmlns="http://www.w3.org/2000/svg"
   xmlns:svg="http://www.w3.org/2000/svg"
   xmlns:rdf="http://www.w3.org/1999/02/22-rdf-syntax-ns#"
   xmlns:cc="http://creativecommons.org/ns#"
   xmlns:dc="http://purl.org/dc/elements/1.1/">
  <title
     id="title4162">Adwaita Icon Template</title>
  <defs
     id="defs3">
    <linearGradient
       id="linearGradient974">
      <stop
         style="stop-color:#ca1003;stop-opacity:1;"
         offset="0"
         id="stop962" />
      <stop
         id="stop964"
         offset="0.04166667"
         style="stop-color:#fc4236;stop-opacity:1;" />
      <stop
         style="stop-color:#ca1003;stop-opacity:1;"
         offset="0.08333334"
         id="stop966" />
      <stop
         id="stop968"
         offset="0.91666669"
         style="stop-color:#ca1003;stop-opacity:1;" />
      <stop
         style="stop-color:#fc4236;stop-opacity:1;"
         offset="0.95833331"
         id="stop970" />
      <stop
         style="stop-color:#ca1003;stop-opacity:1;"
         offset="1"
         id="stop972" />
    </linearGradient>
    <linearGradient
       y2="44"
       x2="464"
       y1="44"
       x1="48"
       gradientTransform="matrix(0.25,0,0,0.25,0,53)"
       gradientUnits="userSpaceOnUse"
       id="linearGradient1747"
       xlink:href="#linearGradient974" />
    <clipPath
       id="clipPath1784"
       clipPathUnits="userSpaceOnUse">
      <rect
         ry="14"
         rx="14"
         y="202"
         x="36"
         height="28"
         width="59.999996"
         id="rect1786"
         style="opacity:1;vector-effect:none;fill:#3584e4;fill-opacity:1;stroke:none;stroke-width:0.853913;stroke-linecap:square;stroke-linejoin:round;stroke-miterlimit:4;stroke-dasharray:none;stroke-dashoffset:0;stroke-opacity:1" />
    </clipPath>
  </defs>
  <metadata
     id="metadata4">
    <rdf:RDF>
      <cc:Work
         rdf:about="">
        <dc:format>image/svg+xml</dc:format>
        <dc:type
           rdf:resource="http://purl.org/dc/dcmitype/StillImage" />
        <dc:creator>
          <cc:Agent>
            <dc:title>GNOME Design Team</dc:title>
          </cc:Agent>
        </dc:creator>
        <dc:source />
        <cc:license
           rdf:resource="http://creativecommons.org/licenses/by-sa/4.0/" />
        <dc:title>Adwaita Icon Template</dc:title>
        <dc:subject>
          <rdf:Bag />
        </dc:subject>
        <dc:date />
        <dc:rights>
          <cc:Agent>
            <dc:title />
          </cc:Agent>
        </dc:rights>
        <dc:publisher>
          <cc:Agent>
            <dc:title />
          </cc:Agent>
        </dc:publisher>
        <dc:identifier />
        <dc:relation />
        <dc:language />
        <dc:coverage />
        <dc:description />
        <dc:contributor>
          <cc:Agent>
            <dc:title />
          </cc:Agent>
        </dc:contributor>
      </cc:Work>
      <cc:License
         rdf:about="http://creativecommons.org/licenses/by-sa/4.0/">
        <cc:permits
           rdf:resource="http://creativecommons.org/ns#Reproduction" />
        <cc:permits
           rdf:resource="http://creativecommons.org/ns#Distribution" />
        <cc:requires
           rdf:resource="http://creativecommons.org/ns#Notice" />
        <cc:requires
           rdf:resource="http://creativecommons.org/ns#Attribution" />
        <cc:permits
           rdf:resource="http://creativecommons.org/ns#DerivativeWorks" />
        <cc:requires
           rdf:resource="http://creativecommons.org/ns#ShareAlike" />
      </cc:License>
    </rdf:RDF>
  </metadata>
  <path
     id="path2368"
     style="fill:#000000;fill-opacity:0.4;stroke-width:0.342655"
     d="m 1.2307378,0.30766965 c -0.062666,0 -0.1237969,0.006077 -0.1838938,0.0150308 -0.042652,0.006354 -0.0827153,0.01948 -0.12379838,0.0300477 V 7.8461332 7.8644716 C 0.93298407,12.04147 4.2811983,15.384592 8.460903,15.384592 h 0.00123 7.121392 c 0.0014,-0.0015 0.0031,-0.0023 0.0045,-0.0035 0.03614,-0.03214 0.07034,-0.06632 0.102464,-0.102462 0.03212,-0.03614 0.06212,-0.0744 0.08984,-0.114184 0.02772,-0.03979 0.05308,-0.08135 0.07602,-0.1244 0.02294,-0.04305 0.04322,-0.08748 0.061,-0.133416 0.01778,-0.04594 0.03314,-0.09337 0.04537,-0.141815 0.01223,-0.04846 0.02134,-0.09783 0.02764,-0.148446 0.0063,-0.05062 0.0096,-0.102354 0.0096,-0.154739 V 7.8462101 1.5385123 c 0,-0.042615 -0.0021,-0.084726 -0.0063,-0.1262015 -0.0042,-0.041475 -0.01046,-0.082165 -0.01863,-0.1222953 -0.0082,-0.040132 -0.0181,-0.079805 -0.03005,-0.1183892 -0.01195,-0.038586 -0.02594,-0.076145 -0.04147,-0.1129815 -0.01553,-0.036837 -0.03278,-0.0726877 -0.05168,-0.1075723 -0.0189,-0.0348831 -0.03923,-0.0688338 -0.0613,-0.10156304 -0.02207,-0.0327277 -0.04587,-0.0642815 -0.07091,-0.0946507 -0.02504,-0.0303692 -0.05152,-0.0596323 -0.07933,-0.08744 -0.02781,-0.0278077 -0.05677,-0.0542846 -0.08714,-0.0793261 -0.03037,-0.0250431 -0.06222,-0.0485384 -0.09495,-0.0706138 -0.03273,-0.0220738 -0.06638,-0.0426954 -0.101261,-0.0615984 -0.03489,-0.0189031 -0.07074,-0.0361538 -0.107572,-0.0516831 -0.03684,-0.0155277 -0.0747,-0.0292138 -0.113282,-0.0411646 -0.03859,-0.0119538 -0.07796,-0.0221784 -0.118088,-0.0303492 -0.04013,-0.008169 -0.08112,-0.0144461 -0.122597,-0.0186292 -0.04148,-0.004185 -0.08359,-0.006308 -0.126201,-0.006308 h -6.3070893 -0.00123 z" />
  <path
     id="path2393"
     style="fill:#000000;fill-opacity:0.4;stroke-width:0.342655"
     d="m 1.2307686,0.30768349 c -0.062666,0 -0.1237954,0.006077 -0.1838938,0.0150308 -0.037112,0.005523 -0.0734384,0.0126 -0.10937534,0.0213338 -0.004892,0.001231 -0.009554,0.002969 -0.0144154,0.0042 V 5.2196418 7.8644716 c 0.001708,0.7193536 0.10749384,1.4114457 0.29447064,2.068507 0.021655,-0.030569 0.045385,-0.057492 0.0625,-0.091046 C 1.4309731,9.5461018 1.6319454,9.4141172 1.8572776,9.4636249 2.0212437,9.4996403 2.0387991,9.4845172 2.1784929,9.1793788 2.3707851,8.7593328 2.5441897,8.644256 2.9026511,8.6980098 3.4132709,8.774579 3.7401339,8.4865022 3.6628662,8.0291331 3.6260924,7.8114563 3.6270631,7.8108563 3.9399092,7.6811794 4.112306,7.6097179 4.2982721,7.5516717 4.3530706,7.5516717 c 0.054797,0 0.1473599,-0.052 0.2061291,-0.1150769 0.058772,-0.063092 0.1331061,-0.096231 0.1646646,-0.073631 0.088592,0.063446 0.2043261,0.2936461 0.2043261,0.4056614 0,0.068477 -0.1795861,0.2699845 -0.4011414,0.4777537 0.2195137,-0.2016615 0.4011414,-0.3951076 0.4011414,-0.4528153 0,-0.1243538 0.2527953,-0.2968614 0.4381014,-0.2989845 0.019943,-1.538e-4 0.045649,-0.012461 0.068809,-0.017431 -0.012785,-0.010769 -0.017548,-0.025062 -0.00631,-0.043261 0.020011,-0.032385 0.076415,-0.058892 0.1249999,-0.058892 0.034026,0 0.048737,0.015077 0.051683,0.033954 0.027172,-0.016354 0.058323,-0.029861 0.079026,-0.048677 0.080189,-0.072892 0.1272938,-0.099385 0.1039677,-0.058892 -0.021483,0.037292 -0.015435,0.056415 0.00571,0.0652 -0.017682,-0.018708 0.015642,-0.069369 0.115083,-0.1553538 0.2453445,-0.2121538 0.314603,-0.3633383 0.314603,-0.6829844 0,-0.1459845 0.028228,-0.282323 0.0625,-0.3034922 0.034266,-0.021185 0.1656723,0.029831 0.2926692,0.1138769 0.1269984,0.084046 0.2595614,0.1529538 0.2944706,0.1529538 0.034903,0 0.1406308,-0.083938 0.2346753,-0.1869076 0.15042,-0.1646923 0.1879984,-0.1792923 0.3131015,-0.1222923 0.1065768,0.048554 0.1781399,0.045292 0.2851552,-0.010154 0.2114277,-0.1096923 0.6992029,-0.1641692 0.7905644,-0.088338 0.042352,0.035139 0.2334168,0.1477538 0.4242798,0.2502922 0.2353538,0.1264615 0.476406,0.3337692 0.7490982,0.6433383 0.079995,0.1130922 0.1546369,0.1887384 0.227163,0.2493999 C 9.8719456,7.1990269 9.8488346,7.1784109 9.8230226,7.1475959 9.6007104,6.8820422 9.5944734,6.8637499 9.7274686,6.8891807 9.8665901,6.9157657 9.8701932,6.9066887 9.863587,6.5715654 9.854847,6.1286886 9.949472,5.5679965 10.069716,5.3477043 c 0.05178,-0.094846 0.07953,-0.1963384 0.0616,-0.2253538 -0.01792,-0.029031 0.02819,-0.118323 0.103064,-0.1980153 0.220314,-0.234523 0.348049,-0.5582921 0.275242,-0.6983228 -0.0085,-0.016415 -0.0065,-0.021877 0.0045,-0.017431 0.03286,0.013231 0.146562,0.1142307 0.295674,0.2659384 0.141148,0.1435845 0.231157,0.2453229 0.286057,0.3284152 C 11.041987,4.7205343 10.954722,4.6201651 10.817914,4.479919 10.399507,4.0509806 10.370867,3.894673 10.63943,3.4898424 10.82037,3.2170732 10.813634,3.1724117 10.572122,3.0526425 10.466413,3.0002272 10.430638,2.9272733 10.416773,2.7371349 10.402696,2.5438427 10.361901,2.4642274 10.230776,2.3708428 10.138522,2.3051505 9.9994624,2.2512582 9.9215809,2.2512582 9.7073625,2.2512582 9.6180364,2.1446736 9.4311965,1.6677215 9.2770258,1.2743339 9.2362119,1.2210016 9.0186366,1.124754 8.8662951,1.0573663 8.6734506,0.88741252 8.4933968,0.66291414 L 8.20794,0.30774657 Z M 10.624696,1.2932601 c -0.05824,0.00603 -0.07034,0.040845 -0.06641,0.1334138 0.0087,0.2038984 0.175255,0.8005997 0.311898,1.1189842 0.06255,0.1457692 0.144468,0.3484922 0.182393,0.4507229 0.03793,0.1022461 0.206679,0.3341384 0.375299,0.5153229 0.262296,0.2818614 0.337483,0.3296307 0.518329,0.3296307 0.257943,0 0.357085,-0.1077077 0.364483,-0.3975384 0.0045,-0.1734768 -0.09459,-0.3964306 -0.465744,-1.0453688 C 11.417999,1.6519323 11.347819,1.5618831 11.109671,1.4432 10.964999,1.3711062 10.781093,1.3048493 10.700116,1.2959647 c -0.03084,-0.00343 -0.05601,-0.00474 -0.07542,-0.00271 z m -3.0609973,0.071514 c 0.041515,0.00466 0.1135999,0.065229 0.2109384,0.1896045 0.080351,0.1026785 0.234906,0.2153153 0.3431475,0.2503 C 8.2541169,1.8487506 8.3146,1.9045691 8.3146,1.9861691 8.3146,2.0745752 8.2705246,2.1078582 8.1379169,2.118689 7.8967647,2.1383505 7.7759724,2.0532121 7.6373171,1.7662168 7.5107141,1.5041662 7.4945095,1.35696 7.5636987,1.3647741 Z m 0.8807089,1.615084 c 0.016926,0.00169 0.032635,0.013846 0.046875,0.036954 0.023506,0.038046 0.015854,0.095308 -0.016526,0.1277076 -0.039255,0.039261 -0.072469,0.036185 -0.1009615,-0.00985 -0.023506,-0.038031 -0.016791,-0.095615 0.015625,-0.128 0.019632,-0.019631 0.038046,-0.028462 0.054988,-0.026738 z M 10.42157,3.9221653 c 0.0061,-0.00569 0.01417,0.00277 0.02344,0.025846 0.017,0.042508 0.01512,0.093708 -0.0045,0.1132769 -0.01957,0.019569 -0.03292,-0.015446 -0.03035,-0.077523 0.0014,-0.034308 0.0052,-0.055415 0.01142,-0.0616 z M 9.804684,4.8425342 c 0.073394,0 0.1887015,0.1329846 0.1887015,0.2178461 0,0.095785 -0.073386,0.098169 -0.1658645,0.00569 C 9.747641,4.9861957 9.7331995,4.8425188 9.804684,4.8425188 Z M 6.3076899,7.1688565 c -0.1040184,0.058185 -0.190823,0.100523 -0.2668276,0.134323 0.076406,-0.033754 0.1643584,-0.077015 0.2668276,-0.134323 z M 5.9525223,7.3371333 c -0.032586,0.011846 -0.065915,0.023123 -0.088342,0.027646 0.023643,-0.00492 0.055854,-0.015969 0.088342,-0.027646 z M 9.4281811,0.30768349 c -0.3046337,0 -0.553786,0.0158692 -0.553786,0.0357569 0,0.0199092 0.13758,0.19568917 0.3061907,0.39032448 0.299623,0.34587063 0.3077614,0.35083683 0.366286,0.214243 0.090794,-0.21189223 0.1599969,-0.23194299 0.3626799,-0.10667073 0.2038833,0.12600919 0.3783043,0.14871533 0.3783043,0.0504815 0,-0.0347215 -0.06979,-0.18048763 -0.153846,-0.32391835 L 9.9813671,0.30768349 Z m 1.7935699,0 0.01863,0.1259015 c 0.01035,0.0695723 0.06471,0.14908148 0.121394,0.17668301 0.05669,0.0275846 0.149449,0.0733 0.206131,0.1012615 0.06673,0.0329292 0.09741,0.10396151 0.08564,0.20072147 -0.01319,0.10860463 0.05338,0.23001843 0.244591,0.44531213 0.175087,0.1971476 0.294353,0.405546 0.357272,0.6219952 0.09953,0.3423614 0.258238,0.5072075 0.48768,0.5072075 0.09431,0 0.165823,0.064169 0.245792,0.2208615 0.06199,0.1214615 0.167892,0.2698306 0.234675,0.3302306 0.127962,0.1157231 0.135762,0.1161538 0.869592,-0.028554 0.320176,-0.063123 0.396404,-0.058969 0.677282,0.041462 0.27285,0.097585 0.336976,0.1514307 0.463042,0.3900306 0.08042,0.1522154 0.199689,0.3010153 0.265023,0.330523 0.177766,0.080292 0.258178,0.023154 0.326623,-0.2310615 0.03399,-0.1262307 0.08664,-0.2289691 0.117789,-0.2289691 0.03476,0 0.05709,-0.5799998 0.05709,-1.5018026 v -0.271034 c 0,-0.042615 -0.0021,-0.084726 -0.0063,-0.1262015 -0.0042,-0.041475 -0.01046,-0.082465 -0.01863,-0.1225969 -0.0082,-0.040132 -0.0184,-0.079503 -0.03035,-0.1180892 -0.01191,-0.03846 -0.0254,-0.076255 -0.04087,-0.1129799 -5.1e-5,-1.185e-4 -3.08e-4,-1.539e-4 -3.08e-4,-3.077e-4 -0.01553,-0.036837 -0.03278,-0.0726892 -0.05168,-0.10757229 -0.01884,-0.0347631 -0.03931,-0.06864 -0.0613,-0.10126151 -7.7e-5,-1.1384e-4 -1.54e-4,-1.5384e-4 -3.08e-4,-3.0769e-4 -0.02207,-0.0327277 -0.04557,-0.0642815 -0.07061,-0.0946507 -0.02504,-0.0303708 -0.05152,-0.0593323 -0.07933,-0.08714 -0.02781,-0.0278077 -0.05707,-0.0542831 -0.08744,-0.0793261 -0.03037,-0.0250415 -0.06192,-0.04884 -0.09465,-0.0709138 -0.03273,-0.0220754 -0.06668,-0.0423954 -0.101563,-0.0612984 -0.03488,-0.0189031 -0.07074,-0.0364538 -0.107572,-0.0519831 -0.03684,-0.0155292 -0.07469,-0.0292138 -0.11328,-0.0411661 -0.0098,-0.003046 -0.02012,-0.005 -0.03005,-0.007815 -0.02897,-0.008169 -0.05793,-0.0161662 -0.08774,-0.0222354 -0.04013,-0.008169 -0.08112,-0.0144461 -0.122595,-0.0186292 -0.04148,-0.004185 -0.08359,-0.006308 -0.126203,-0.006308 z m 3.673675,0.006308 c 0.04148,0.004185 0.08246,0.0104615 0.122597,0.0186292 0.02981,0.006062 0.05877,0.0140615 0.08774,0.0222354 -0.02906,-0.008231 -0.05813,-0.0164461 -0.08804,-0.0225354 -0.04013,-0.008169 -0.08082,-0.0141385 -0.122296,-0.0183292 z" />
  <path
     style="fill:#000000;fill-opacity:0.6;stroke-width:0.342655"
     d="m 14.191657,4.1440883 c -0.03615,0.00615 -0.06923,0.020461 -0.09203,0.043261 -0.06006,0.060061 -0.109479,0.7006613 -0.06074,0.7877074 0.03506,0.062615 0.05421,0.058369 0.314733,-0.074538 0.26187,-0.1335999 0.292119,-0.2057384 0.107672,-0.2539845 -0.123754,-0.032338 -0.128743,-0.071738 -0.04509,-0.3910922 0.02059,-0.078615 -0.116095,-0.1296615 -0.224548,-0.1113384 z m -3.677406,0.064415 c -0.01097,-0.00446 -0.01312,0.00154 -0.0047,0.017477 0.07281,0.1400307 -0.05485,0.4639229 -0.275161,0.6984459 -0.07487,0.079692 -0.121005,0.1688307 -0.103071,0.1978461 0.01792,0.029031 -0.0099,0.1305999 -0.06166,0.2254614 -0.1202478,0.2202769 -0.2148724,0.7809998 -0.2061416,1.2238919 0.00658,0.335123 0.00274,0.3440768 -0.1361984,0.3174768 -0.1329953,-0.025431 -0.1266077,-0.00692 0.095706,0.2585846 0.1316938,0.1572922 0.271411,0.2861845 0.310131,0.2861845 0.03872,0 0.174784,-0.053 0.301852,-0.1177846 0.127063,-0.064785 0.264711,-0.1178 0.306449,-0.1178 0.04174,0 0.131748,-0.055338 0.1997,-0.1233076 0.0805,-0.080492 0.172862,-0.1142461 0.265035,-0.096615 0.119245,0.022785 0.140805,0.00338 0.140805,-0.1223845 0,-0.082046 -0.04472,-0.1981846 -0.09939,-0.2585846 -0.08653,-0.095631 -0.08879,-0.1373845 -0.02299,-0.3193229 0.04292,-0.1186769 0.05901,-0.2951845 0.03773,-0.4085845 -0.02961,-0.1577538 -0.01212,-0.2214307 0.08282,-0.3027384 0.160777,-0.1376614 0.150977,-0.2440768 -0.02759,-0.3119691 -0.112338,-0.042708 -0.147241,-0.098477 -0.147241,-0.234646 0,-0.1393692 -0.07846,-0.2585077 -0.360748,-0.5456922 C 10.660527,4.3227344 10.547084,4.2217806 10.514233,4.2084883 Z m -2.9237046,2.459753 c -0.1689323,0 -0.8922182,0.2821383 -1.2828581,0.5005998 -0.3771029,0.2108922 -0.5966659,0.267246 -0.5190336,0.1325076 0.023335,-0.040477 -0.023814,-0.014 -0.1039892,0.058908 -0.080191,0.072877 -0.2233322,0.1332615 -0.3184153,0.1343384 -0.1853076,0.002 -0.4380491,0.1747384 -0.4380491,0.2990768 0,0.1216308 -0.7869612,0.8339536 -1.0988042,0.9947689 -0.1570292,0.080969 -0.4481245,0.2645691 -0.646949,0.407646 -0.4192352,0.3017076 -1.4416656,0.8553072 -1.8755147,1.0315692 0.1814122,0.5506 0.4271983,1.069999 0.7233336,1.555168 0.1000892,0.02369 0.1991414,0.04929 0.2631968,0.07455 0.1558184,0.06142 0.3366691,0.111339 0.4021599,0.111339 0.065492,0 0.1028445,0.02649 0.082823,0.05889 -0.044589,0.07214 -0.4489429,0.07632 -0.5954136,0.0092 0.6661751,1.000307 1.5654563,1.828015 2.6227714,2.410984 0.5392628,-0.211523 1.2125765,-0.328216 1.3896133,-0.181277 0.046203,0.03834 0.1013369,0.166123 0.1223954,0.284338 0.02104,0.118215 0.092109,0.274308 0.1582861,0.346923 0.053166,0.05834 0.090951,0.156692 0.1067507,0.244785 0.274843,0.06975 0.5548136,0.124876 0.8411289,0.163799 0.1000246,-0.04663 0.1479446,-0.111969 0.1279169,-0.194169 -0.016757,-0.06875 0.010215,-0.207877 0.060738,-0.309184 0.076134,-0.152631 0.1263538,-0.184046 0.2935692,-0.184046 0.1925753,0 0.2024584,-0.0095 0.2024584,-0.212569 0,-0.208585 0.00383,-0.212754 0.1914168,-0.17577 0.1052661,0.02077 0.337203,0.05354 0.5153521,0.07269 0.1781508,0.01915 0.3688645,0.07472 0.4242445,0.123307 0.064228,0.05635 0.1548907,0.07457 0.2503138,0.05062 0.1090461,-0.02737 0.150003,-0.01385 0.150003,0.04878 0,0.170416 0.1167876,0.151985 0.3451014,-0.05429 0.2593052,-0.234277 0.3311392,-0.453092 0.3948002,-1.210092 0.04603,-0.547277 0.01,-0.58943 -0.445414,-0.526369 -0.1781492,0.02468 -0.3463722,0.02426 -0.3736307,-0.0015 -0.02724,-0.02515 -0.056058,-0.188077 -0.0635,-0.361646 -0.00743,-0.17357 -0.034965,-0.5082 -0.061659,-0.743539 -0.049163,-0.43343 -0.024157,-0.553061 0.2254676,-1.073907 0.086405,-0.180261 0.3391881,-0.224046 0.5392801,-0.09294 0.207964,0.136277 0.373593,0.116553 0.451852,-0.05522 0.05722,-0.1256 0.04733,-0.175892 -0.06074,-0.322077 -0.162513,-0.2197996 -0.15981,-0.2847534 0.01933,-0.5981225 0.08059,-0.1409692 0.146827,-0.2766153 0.147244,-0.3009076 3.08e-4,-0.024292 -0.1338,-0.044169 -0.298167,-0.044169 -0.292514,0 -0.5886848,0.1252153 -1.3500399,0.5714613 C 8.4736907,10.085609 8.3623553,10.140871 8.24854,10.141532 c -0.068665,0 -0.3867445,0.07894 -0.7067675,0.173923 -0.3200214,0.09498 -0.8775797,0.2388 -1.2386872,0.320231 -0.4353768,0.09819 -0.7550121,0.209277 -0.9487997,0.328523 -0.1607292,0.09889 -0.3164737,0.179446 -0.3469414,0.179446 -0.05634,0 -0.6359398,0.375708 -0.9037043,0.586184 -0.180643,0.141985 -0.7955151,0.238616 -0.7555428,0.118693 0.02604,-0.07817 0.4987198,-0.358431 0.9911319,-0.588015 0.4359014,-0.203231 0.4860076,-0.229246 0.854012,-0.447231 0.4233676,-0.250769 1.1879366,-0.499169 3.0727882,-0.9984305 0.1678046,-0.044446 0.525646,-0.2057537 0.795112,-0.3579691 0.9655368,-0.5454305 0.9806518,-0.5512151 1.4144598,-0.5512151 0.465095,0 0.561526,-0.0898 0.34418,-0.3211538 -0.0716,-0.076231 -0.125025,-0.2009999 -0.118714,-0.2769845 0.02638,-0.3176153 -0.08282,-0.3967076 -0.355226,-0.2558307 -0.09351,0.048369 -0.317189,0.088354 -0.4969462,0.088354 -0.3231337,0 -0.3581906,-0.023508 -0.3303768,-0.2263845 C 9.524468,7.8700108 9.484198,7.7839949 9.42833,7.7222719 9.345662,7.6309179 9.2546762,7.6112719 8.9387456,7.6201181 8.4715211,7.6331951 7.9702105,7.4992873 7.9420921,7.3532566 c -0.010831,-0.056169 0.021417,-0.166523 0.072702,-0.2447691 0.051268,-0.078261 0.093868,-0.1648 0.093868,-0.1923384 0,-0.064015 -0.3848061,-0.2484615 -0.5181152,-0.2484615 z m 5.8768546,0.5318921 c -0.148403,0.002 -0.265037,0.044308 -0.265037,0.1389538 0,0.1134153 0.02104,0.1291076 0.382832,0.2898614 0.383191,0.1702769 0.575598,0.1101846 0.507992,-0.1591999 -0.0411,-0.1637538 -0.378449,-0.2727384 -0.625787,-0.2696153 z m 0.378233,1.6471994 c -0.112918,0 -0.172376,0.2758153 -0.08282,0.3837229 0.08096,0.097554 0.211116,0.1147692 0.260434,0.034969 0.0525,-0.084954 -0.08921,-0.4187076 -0.177611,-0.4187076 z m 2.095457,2.6502302 c -0.03238,0 -0.0589,0.02649 -0.0589,0.05889 0,0.03239 0.02652,0.05891 0.0589,0.05891 0.03238,0 0.0589,-0.02649 0.0589,-0.05891 0,-0.03237 -0.02652,-0.05889 -0.0589,-0.05889 z m 0,1.030646 c -0.06588,0.04072 -0.08025,0.341215 -0.01933,0.402138 0.06888,0.06888 0.07822,0.04443 0.07822,-0.199692 0,-0.144369 -0.02334,-0.224431 -0.0589,-0.202446 z m -4.878358,0.03037 c -0.428857,0.0017 -0.50272,0.265923 -0.08651,0.309185 0.123272,0.01277 0.232727,0.02769 0.242952,0.03314 0.05265,0.02803 0.245714,-0.122354 0.245714,-0.1914 0,-0.102692 -0.130799,-0.152046 -0.40216,-0.150923 z M 9.1531689,13.21747 c 0.078752,0.01562 0.1039923,0.07908 0.1039923,0.267784 0,0.265677 0.00791,0.272939 0.2447891,0.213477 0.2201215,-0.05523 0.3584722,0.126292 0.2162661,0.283431 -0.053351,0.05895 -0.1255784,0.105954 -0.1610477,0.104907 -0.067503,-0.002 -0.4151198,-0.287446 -0.4224044,-0.346923 -0.0024,-0.01888 -0.038548,-0.105307 -0.080986,-0.192323 -0.092952,-0.190599 -0.042735,-0.358569 0.099391,-0.330353 z m 4.9979961,0.272384 c -0.06738,-0.02745 -0.100908,0.0035 -0.122395,0.08374 -0.0195,0.07285 -0.06379,0.227092 -0.09847,0.343246 -0.05145,0.172277 -0.03996,0.296492 0.0635,0.673599 0.06974,0.254216 0.122921,0.517416 0.117795,0.584339 -0.0051,0.06691 -0.0063,0.141338 -0.0027,0.16563 0.0036,0.02431 0.195591,0.04418 0.426105,0.04418 0.407763,0 0.417998,-0.0035 0.377311,-0.132508 -0.02299,-0.07289 -0.05419,-0.21203 -0.06902,-0.309199 -0.153216,-1.003969 -0.142774,-0.969816 -0.36535,-1.186169 -0.157713,-0.153293 -0.259313,-0.2394 -0.326693,-0.266862 z m 1.848826,0.184046 -0.23559,0.120539 c -0.299144,0.15263 -0.305415,0.302246 -0.02484,0.566861 0.115674,0.109092 0.221705,0.198769 0.23559,0.198769 0.01388,0 0.02484,-0.19903 0.02484,-0.44263 z m -6.0038532,0.06165 c 0.030461,0 0.056134,0.03977 0.056134,0.08834 0,0.09108 -0.069876,0.116938 -0.136199,0.05061 -0.047048,-0.04705 0.00575,-0.138938 0.08006,-0.138938 z m -1.4577087,0.139877 c 0.010692,-0.0048 0.025218,-0.0028 0.041406,0.0074 0.032382,0.02001 0.058903,0.04829 0.058903,0.06258 0,0.01431 -0.026521,0.02575 -0.058903,0.02575 -0.032381,0 -0.058903,-0.02826 -0.058903,-0.06257 0,-0.01714 0.00678,-0.0284 0.017475,-0.03314 z m 0.4647352,0.861323 c -0.1755307,0 -0.2468922,0.112262 -0.1739307,0.272385 0.077357,0.169784 0.138223,0.176753 0.2190246,0.02577 0.09228,-0.172431 0.073218,-0.298154 -0.045094,-0.298154 z m 0.4941875,0.117785 c -0.1107261,0 -0.1719645,0.09891 -0.1297599,0.208892 0.037528,0.0978 0.089968,0.105431 0.207063,0.03129 0.1000892,-0.06338 0.043045,-0.240184 -0.077303,-0.240184 z m -1.3334749,0.05891 c -0.023405,0 -0.059205,0.09125 -0.080061,0.202446 -0.022409,0.119385 -0.079246,0.212523 -0.1389645,0.228216 -0.017406,0.0046 -0.023231,0.0095 -0.022992,0.01385 0.067703,0.0048 0.1360968,0.0071 0.2043014,0.01015 0.064057,-0.0098 0.1194907,-0.02691 0.13528,-0.05246 0.02868,-0.04643 0.011277,-0.0568 -0.055222,-0.03128 -0.090166,0.0346 -0.092078,0.0234 -0.012892,-0.129753 0.080949,-0.156539 0.070734,-0.241093 -0.029434,-0.241093 z"
     id="path253-6" />
  <path
     id="path2722"
     style="display:inline;fill:#000000;fill-opacity:1;stroke-width:0.185315;enable-background:new"
     d="M 1.661358,0.30772042 H 1.2307689 c -0.085231,0 -0.1682338,0.008615 -0.24849838,0.0249385 -0.0802631,0.0163385 -0.15769687,0.0404615 -0.23136915,0.071523 C 0.67722755,0.43522806 0.60722296,0.47330497 0.54176606,0.5174588 0.47631069,0.56161263 0.41529072,0.61178185 0.35967535,0.66739721 0.30405999,0.72301258 0.25388462,0.78402794 0.2097354,0.84948946 0.16558619,0.91495097 0.12751236,0.98495095 0.0964539,1.0586278 0.06539699,1.1323047 0.04128162,1.2097355 0.02494008,1.289997 0.00859855,1.3702585 9.23085e-8,1.4532585 9.23085e-8,1.5384892 v 4.46966 L 1.661358,6.0318723 Z m 0,5.72415188 L 9.23085e-8,6.0081492 v 2.8885067 c 0,0.2255999 0.0115692276915,0.4486306 0.0330522976915,0.668569 0.0022615,0.023215 0.0050154,0.046277 0.0075077,0.069415 0.03538614,0.3276461 0.09310612,0.6483541 0.17337686,0.9603381 0.0349846,0.13597 0.0756415,0.2698 0.11869073,0.402339 0.0600277,0.184815 0.12626303,0.366984 0.20132147,0.544476 5.077e-5,1.23e-4 3.0769e-4,0 3.0769e-4,0 0.12890149,0.304754 0.27933682,0.598185 0.4495183,0.878292 0.13853076,0.228031 0.29135216,0.445969 0.45492756,0.655354 0.1044645,0.133723 0.2126353,0.2646 0.3266229,0.390031 9.54e-5,9.2e-5 1.539e-4,0 3.077e-4,0 0.073125,0.08046 0.1482,0.159015 0.2250599,0.235876 0.3074445,0.307447 0.6441767,0.585677 1.0057089,0.829923 0.090272,0.061 0.1822523,0.119708 0.2755415,0.176385 0.093408,0.05675 0.1882645,0.111461 0.2845552,0.163769 0.096289,0.05231 0.1939384,0.102215 0.2929676,0.149938 1.216e-4,6.2e-5 1.539e-4,0 3.077e-4,0 0.098914,0.04763 0.1992738,0.09288 0.3007815,0.135816 0.1016261,0.04298 0.2045107,0.08358 0.3085922,0.121692 0.104083,0.03811 0.2094091,0.07388 0.315806,0.106969 0.1063954,0.03309 0.2138492,0.06372 0.3224153,0.09165 0.1085676,0.02794 0.2181307,0.05309 0.328726,0.07572 0.1105954,0.02263 0.2222538,0.04262 0.3347353,0.0598 0.1124815,0.01718 0.2259199,0.03166 0.3401445,0.04326 0.1142246,0.01154 0.2291245,0.02026 0.3449522,0.02614 0.1158261,0.0058 0.2324753,0.0091 0.3497583,0.0091 H 9.0438831 L 9.0201446,14.030423 H 6.7959869 c -0.4219306,0 -0.831552,-0.05229 -1.224158,-0.148738 -0.0373,-0.0092 -0.074503,-0.01857 -0.1114784,-0.02854 C 5.3152336,13.814005 5.1722291,13.769805 5.032466,13.71853 4.953861,13.6897 4.8760522,13.65881 4.7992923,13.62628 4.6457723,13.56123 4.4961708,13.489065 4.3506755,13.409926 c -1.215e-4,-6.1e-5 -1.539e-4,0 -3.077e-4,0 C 4.2050002,13.330839 4.0637817,13.245008 3.927291,13.152716 3.380762,12.783178 2.9088683,12.311362 2.5393715,11.764793 2.4931885,11.696486 2.4485885,11.627132 2.4056577,11.556563 2.3627977,11.486101 2.3216716,11.414347 2.2821593,11.341717 2.1238824,11.050732 1.9929055,10.742701 1.8927364,10.421348 c -3.7e-5,-1.23e-4 -3.077e-4,0 -3.077e-4,0 -0.025042,-0.08034 -0.048271,-0.161431 -0.069411,-0.2434 -0.021138,-0.08197 -0.040263,-0.164723 -0.057392,-0.2482002 -0.014046,-0.068492 -0.025709,-0.1378461 -0.036958,-0.207323 -0.00422,-0.025908 -0.00851,-0.0518 -0.012323,-0.077831 C 1.7054364,9.5703018 1.6954718,9.4957326 1.687798,9.4204403 1.6790134,9.3342557 1.6724134,9.247625 1.6679672,9.160225 1.663521,9.072825 1.6613518,8.9848712 1.6613518,8.8963943 Z m 0.00662,3.1286142 c 0.00445,0.0874 0.011046,0.1740308 0.019831,0.2602153 0.00768,0.075292 0.017637,0.1498615 0.028546,0.2241538 -0.023362,-0.1592769 -0.04006,-0.3207383 -0.048382,-0.4843691 z m 0.060697,0.5621999 c 0.011246,0.069477 0.022906,0.1388307 0.036958,0.207323 0.017129,0.083477 0.036254,0.1662306 0.057392,0.2481996 0.02114,0.08197 0.044369,0.163062 0.069411,0.2434 3.85e-5,1.08e-4 3.077e-4,0 3.077e-4,0 C 1.822081,10.194917 1.7674795,9.9612555 1.7286779,9.722394 Z M 2.2821547,11.34227 c 0.039512,0.07263 0.080638,0.144385 0.1234984,0.214846 0.042931,0.07057 0.087531,0.139924 0.1337138,0.208231 C 2.4470885,11.628855 2.3612285,11.487655 2.2821547,11.34227 Z m 6.7379792,2.688999 0.023738,1.661061 h 5.7253591 c 0.08523,0 0.168532,-0.0086 0.248798,-0.02494 0.08026,-0.01634 0.157697,-0.04046 0.23137,-0.07151 0.07367,-0.03106 0.143676,-0.06883 0.209135,-0.112984 0.06546,-0.04415 0.126175,-0.09463 0.181791,-0.150246 0.05561,-0.05562 0.10609,-0.116631 0.15024,-0.182093 0.04415,-0.06545 0.08222,-0.135153 0.113281,-0.20883 0.03106,-0.07368 0.05517,-0.151108 0.07151,-0.231369 C 15.991701,14.6301 16,14.546792 16,14.461562 V 14.031269 Z M 6.7956746,15.69233 c -0.117283,0 -0.2339322,-0.0032 -0.3497583,-0.0091 C 6.3300886,15.67743 6.2151887,15.66861 6.1009641,15.65709 5.9867395,15.64555 5.8733011,15.63101 5.7608196,15.61383 5.6483381,15.59665 5.5366797,15.57666 5.4260843,15.55403 5.315489,15.5314 5.205926,15.50624 5.0973583,15.47831 c 0.5428352,0.139662 1.1118888,0.213939 1.6983163,0.213939 z M 5.0973583,15.478392 C 4.9887922,15.450469 4.8813384,15.419838 4.774943,15.386746 4.6685462,15.353654 4.56322,15.317884 4.459137,15.279777 4.3550555,15.241669 4.2521709,15.201069 4.1505448,15.158084 4.0490371,15.115146 3.9486772,15.0699 3.8497634,15.022269 c 0.3961198,0.190862 0.8133274,0.344385 1.2475949,0.456123 z M 3.8494618,15.021961 c -0.099029,-0.04772 -0.1966784,-0.09763 -0.2929676,-0.149938 -0.096291,-0.05231 -0.1911476,-0.107015 -0.2845553,-0.163769 -0.093289,-0.05668 -0.1852691,-0.115385 -0.2755414,-0.176385 0.2710384,0.183123 0.556106,0.346985 0.8530643,0.490092 z" />
</svg>
