<?xml version="1.0" encoding="UTF-8" standalone="no"?>
<svg
   height="16px"
   viewBox="0 0 16 16"
   width="16px"
   version="1.1"
   id="svg135"
   xmlns="http://www.w3.org/2000/svg"
   xmlns:svg="http://www.w3.org/2000/svg">
  <defs
     id="defs139" />
  <path
     style="display:inline;fill:#000000;fill-opacity:1;stroke-width:0.0630575;enable-background:new"
     d="M 7.2410631,11.986893 C 6.5208509,11.83233 5.826821,11.440492 5.2484406,10.861894 4.3742381,9.9873646 3.9988624,9.1041273 4.0001504,7.9247292 4.0014304,6.7337597 4.3900605,5.7917802 5.2262182,4.9527724 5.6187939,4.5588594 5.8153826,4.4186609 6.3004238,4.1866958 7.0432729,3.8314356 7.4294374,3.7411533 8.1872896,3.7455597 c 1.1402728,0.00663 2.0946084,0.404932 2.9071254,1.2133192 0.776609,0.7726617 1.171076,1.6491681 1.23548,2.7452344 0.159788,2.7194487 -2.3867939,4.8626607 -5.0888319,4.2827797 z"
     id="path2" />
  <path
     style="display:inline;fill:#000000;fill-opacity:1;stroke-width:0.0625294;enable-background:new;opacity:0.6"
     d="m 3.976e-5,11.599379 c 0,-4.7661909 0.00790399,-4.9015094 0.35006374,-5.9910097 C 1.0981445,3.2264314 3.0640279,1.2422708 5.4771637,0.43364343 6.7058667,0.0219127 6.5339821,0.03546645 10.879137,0.00767351 c 2.803758,-0.01793358 4.039439,-0.00493119 4.205747,0.04425949 0.299424,0.08856185 0.643026,0.38918195 0.802758,0.70234411 0.121007,0.23723615 0.123699,0.35172889 0.101677,4.32086189 -0.02457,4.4284535 -0.01737,4.3289268 -0.397102,5.484214 -0.772004,2.348719 -2.685291,4.284448 -5.002129,5.060809 -1.0043834,0.336563 -1.4798583,0.37924 -4.228277,0.379518 L 3.8764993,16 v -1.814347 -1.814279 l 0.4549708,0.361617 c 0.8229338,0.654078 1.9045218,1.075601 3.1028057,1.209242 2.5122589,0.280188 4.9953672,-1.080721 6.1264772,-3.357715 1.484434,-2.9882599 0.241952,-6.6123838 -2.7754,-8.0954003 C 9.7901204,1.9999643 9.3569111,1.906006 8.0968401,1.906006 7.2006168,1.906006 6.9576233,1.9271422 6.54727,2.0407915 4.4929196,2.6097541 2.8565944,4.1686394 2.2332957,6.1506095 1.9646975,7.0047025 1.9386351,7.5118896 1.9384463,11.88823 l -1.536e-4,4.111701 H 0.96917823 6.2159983e-5 Z"
     id="path1" />
</svg>
