<?xml version="1.0" encoding="UTF-8" standalone="no"?>
<svg
   width="16"
   height="16"
   version="1"
   id="svg566"
   xmlns="http://www.w3.org/2000/svg"
   xmlns:svg="http://www.w3.org/2000/svg">
  <defs
     id="defs570" />
  <path
     style="font-weight:bold;font-size:46.2667px;line-height:1;font-family:'Courier New';-inkscape-font-specification:'Courier New Bold';letter-spacing:4.62667px;display:inline;stroke-width:0.637806;enable-background:new"
     d="M 2.329492,9.3453755 V 10.659608 H 3.61881 q 0.460916,0 0.654002,0.180629 0.199315,0.1744 0.199315,0.460916 0,0.280286 -0.199315,0.460915 -0.193086,0.174401 -0.654002,0.174401 H 0.853317 q -0.460916,0 -0.660231,-0.174401 Q 0,11.581439 0,11.294924 0,11.014637 0.199315,10.840237 0.39863,10.659608 0.853317,10.659608 H 1.052631 V 5.6642792 H 0.853317 q -0.460916,0 -0.660231,-0.1744006 Q 0,5.3092497 0,5.0227345 0,4.7362195 0.193086,4.5618189 0.392401,4.3811897 0.853317,4.3811897 l 2.939894,0.00623 q 1.295546,0 2.049206,0.710059 0.759888,0.7038305 0.759888,1.7190907 0,0.5605731 -0.255373,1.0588603 Q 6.153846,8.2491448 5.699159,8.6166317 5.250701,8.9778898 4.777328,9.1647475 4.310184,9.3453766 3.537839,9.3453766 Z m 0,-1.2768607 h 1.183432 q 0.834631,0 1.320461,-0.3737155 0.492059,-0.3799439 0.492059,-0.9093741 0,-0.4484585 -0.39863,-0.7848021 Q 4.534413,5.6642792 3.799439,5.6642792 H 2.329492 Z M 14.928683,3.8579884 v 6.8016196 h 0.218 q 0.454687,0 0.654002,0.180629 Q 16,11.014637 16,11.301153 q 0,0.280286 -0.199315,0.460915 -0.193086,0.174401 -0.654002,0.174401 h -1.494861 v -0.31143 q -0.436001,0.255372 -0.915603,0.386173 -0.473373,0.1308 -0.984117,0.1308 -1.438804,0 -2.317035,-0.828402 -0.878231,-0.834631 -0.878231,-2.0741206 0,-1.2955466 0.921831,-2.2111493 0.921831,-0.9156023 2.248521,-0.9156023 0.498287,0 0.977888,0.1557147 0.479602,0.1494861 0.946746,0.454687 V 5.1348491 h -0.218001 q -0.460915,0 -0.66023,-0.1744003 -0.193086,-0.1806292 -0.193086,-0.4609156 0,-0.2865153 0.193086,-0.4609159 0.199315,-0.1806289 0.66023,-0.1806289 z m -1.276861,5.4188725 q 0,-0.7910309 -0.554345,-1.3391467 -0.554344,-0.5481157 -1.357832,-0.5481157 -0.797259,0 -1.351604,0.5481157 -0.554344,0.5481158 -0.554344,1.3204611 0,0.7038305 0.498287,1.1585177 0.498287,0.448458 1.407661,0.448458 0.903145,0 1.407661,-0.448458 0.504516,-0.4546872 0.504516,-1.1398321 z"
     id="text1"
     aria-label="Pd" />
</svg>
