<?xml version="1.0" encoding="UTF-8" standalone="no"?>
<svg
   width="16"
   height="16"
   version="1"
   id="svg566"
   xmlns="http://www.w3.org/2000/svg"
   xmlns:svg="http://www.w3.org/2000/svg">
  <defs
     id="defs570" />
  <path
     id="path12"
     style="fill:#000000;fill-opacity:1;stroke-width:0.173699"
     d="m 10.574955,0 v 4.657987 l 2.8752,6.892329 V 16 h 1.13752 V 11.342013 L 11.712145,4.448666 V 0 Z m -4.42933,0 v 4.657987 l 2.8752,6.892329 V 16 h 1.13753 V 11.342013 L 7.282815,4.448666 V 0 Z m -4.7333,0 v 4.657987 l 2.8752,6.892329 V 16 h 1.13752 V 11.342013 L 2.549515,4.448666 V 0 Z m 11.84946,11.727857 a 0.80019378,0.80019378 0 0 1 -0.80019,0.800194 0.80019378,0.80019378 0 0 1 -0.8002,-0.800194 0.80019378,0.80019378 0 0 1 0.8002,-0.800194 0.80019378,0.80019378 0 0 1 0.80019,0.800194 z m 0.27208,-7.512409 a 0.80019378,0.80019378 0 0 1 -0.80019,0.800194 0.80019378,0.80019378 0 0 1 -0.8002,-0.800194 0.80019378,0.80019378 0 0 1 0.8002,-0.800194 0.80019378,0.80019378 0 0 1 0.80019,0.800194 z m -4.70141,7.512409 a 0.80019378,0.80019378 0 0 1 -0.80019,0.800194 0.80019378,0.80019378 0 0 1 -0.80019,-0.800194 0.80019378,0.80019378 0 0 1 0.80019,-0.800194 0.80019378,0.80019378 0 0 1 0.80019,0.800194 z m 0.27208,-7.512409 a 0.80019378,0.80019378 0 0 1 -0.80019,0.800194 0.80019378,0.80019378 0 0 1 -0.80019,-0.800194 0.80019378,0.80019378 0 0 1 0.80019,-0.800194 0.80019378,0.80019378 0 0 1 0.80019,0.800194 z m -5.00538,7.512409 a 0.80019378,0.80019378 0 0 1 -0.80019,0.800194 0.80019378,0.80019378 0 0 1 -0.8002,-0.800194 0.80019378,0.80019378 0 0 1 0.8002,-0.800194 0.80019378,0.80019378 0 0 1 0.80019,0.800194 z m 0.27208,-7.512409 a 0.80019378,0.80019378 0 0 1 -0.80019,0.800194 0.80019378,0.80019378 0 0 1 -0.8002,-0.800194 0.80019378,0.80019378 0 0 1 0.8002,-0.800194 0.80019378,0.80019378 0 0 1 0.80019,0.800194 z" />
</svg>
