<?xml version="1.0" encoding="UTF-8" standalone="no"?>
<svg
   width="16"
   height="16"
   version="1.1"
   id="svg6342"
   xmlns="http://www.w3.org/2000/svg"
   xmlns:svg="http://www.w3.org/2000/svg">
  <defs
     id="defs6338">
    <style
       id="current-color-scheme"
       type="text/css">
   .ColorScheme-Text { color:#dfdfdf; } .ColorScheme-Highlight { color:#4285f4; } .ColorScheme-NeutralText { color:#ff9800; } .ColorScheme-PositiveText { color:#4caf50; } .ColorScheme-NegativeText { color:#f44336; }
  </style>
  </defs>
  <path
     id="path6340"
     style="fill:#000000"
     class="ColorScheme-Text"
     d="M 2.9707031 2 C 2.9707031 2 1 2.000004 1 4 L 1 10 C 1 11.109998 1.8900022 12 3 12 L 8 12 L 10 15 L 12 12 L 13 12 C 13 12 15 11.999996 15 10 L 15 4 C 15 2.000004 13 2 13 2 L 2.9707031 2 z M 9.5917969 3.5 C 12.462924 5.8702549 11.669541 8.3972445 9.9824219 8.4726562 C 8.1043675 8.4836322 7.7412816 5.9580964 9.8515625 5.5410156 C 9.7073064 5.0598949 9.3321668 4.5483315 8.9765625 4.125 L 9.5917969 3.5 z M 5.9765625 5.4863281 C 5.9980228 5.4861566 6.0178516 5.4871359 6.0351562 5.4902344 C 8.5511686 5.705699 7.5466796 8.7599861 6.1972656 8.3867188 C 6.2799775 8.8420916 6.647073 9.413617 7.0722656 9.828125 L 6.4238281 10.5 C 2.7785507 7.071908 5.3112947 5.4916464 5.9765625 5.4863281 z " />
</svg>
