<?xml version="1.0" encoding="UTF-8" standalone="no"?>
<svg
   width="16"
   height="16"
   version="1.1"
   id="svg6342"
   xmlns="http://www.w3.org/2000/svg"
   xmlns:svg="http://www.w3.org/2000/svg">
  <defs
     id="defs6338">
    <style
       id="current-color-scheme"
       type="text/css">
   .ColorScheme-Text { color:#dfdfdf; } .ColorScheme-Highlight { color:#4285f4; } .ColorScheme-NeutralText { color:#ff9800; } .ColorScheme-PositiveText { color:#4caf50; } .ColorScheme-NegativeText { color:#f44336; }
  </style>
  </defs>
  <path
     id="path15"
     style="isolation:isolate;fill:#000000;stroke-width:0.205353;stroke-linejoin:round;paint-order:markers stroke fill"
     d="m 11.864147,4.0021269 c -0.100053,-0.00265 -0.200304,-0.00139 -0.300781,0.00391 -0.981085,0.015521 -1.9226987,0.3917783 -2.6484379,1.0605468 a 0.70918107,0.70918107 0 0 0 -0.00195,0 C 8.1604186,5.760392 7.7843612,6.7461768 7.8114156,7.8263494 c 0.00713,0.6872567 0.1925515,1.3618611 0.5390625,1.953125 0.3283003,0.5590636 0.8043111,1.0157716 1.375,1.3164066 0.2439218,0.130535 0.5016679,0.222317 0.7656249,0.296875 -0.310874,0.664566 -0.7370672,1.375216 -1.4218749,2.166016 a 0.70918107,0.70918107 0 0 0 0.068359,0.998047 l 1.4472629,1.267574 a 0.70918107,0.70918107 0 0 0 0.917969,0.01367 c 1.188857,-0.979467 2.222215,-2.140614 3.0625,-3.44336 0.817554,-1.233177 1.23785,-2.6943331 1.205078,-4.1816406 a 0.70918107,0.70918107 0 0 0 0,-0.00195 0.70918107,0.70918107 0 0 0 0,-0.00195 0.70918107,0.70918107 0 0 0 0,-0.00195 0.70918107,0.70918107 0 0 0 0,-0.00195 C 15.748428,7.5227525 15.578737,6.8543471 15.27235,6.2462676 14.949378,5.5838924 14.457092,5.021208 13.844616,4.6193144 a 0.70918107,0.70918107 0 0 0 -0.0039,-0.00195 C 13.248357,4.2319353 12.564515,4.0206525 11.864147,4.0021269 Z m -0.271485,0.7109375 a 3.1567951,3.2356014 0 0 1 1.861329,0.4980469 3.3206478,3.4035446 0 0 1 1.18164,1.3476563 3.8107026,3.9058333 0 0 1 0.425781,1.6699218 6.2985581,6.4557956 0 0 1 -1.089843,3.7773436 14.044732,14.395346 0 0 1 -2.919922,3.285157 L 9.6043812,14.023612 c 0.9891258,-1.14222 1.6265448,-2.204595 1.9101558,-3.185547 A 3.1567951,3.2356014 0 0 1 10.057506,10.470877 2.7358891,2.8041879 0 0 1 8.9618031,9.4200957 3.0966656,3.173971 0 0 1 8.5203969,7.81658 c -0.025075,-0.9244575 0.2666688,-1.6676758 0.875,-2.2285156 a 3.3371833,3.420493 0 0 1 2.1972651,-0.875 z M 3.457897,1.7378633e-4 A 0.70918093,0.70918093 0 0 0 3.000866,0.17595504 L 1.5536,1.4435332 A 0.70918093,0.70918093 0 0 0 1.48524,2.44158 C 2.223675,3.2943075 2.558583,4.0161136 2.864146,4.7208769 2.62581,4.7930819 2.36691,4.7842779 2.145396,4.9025176 1.573006,5.20299 1.096022,5.6609148 0.76649,6.2208769 0.421324,6.8111368 0.236659,7.4844689 0.22938,8.1700957 0.20051,9.2499524 0.573276,10.240178 1.330943,10.933768 h 0.002 v 0.002 c 0.72644,0.668052 1.669117,1.04169 2.650391,1.056641 0.802291,0.04199 1.597346,-0.168311 2.273437,-0.607422 a 0.70918093,0.70918093 0 0 0 0.00391,-0.002 c 0.612839,-0.402606 1.1034428,-0.967413 1.4257813,-1.6308591 0.3063737,-0.6073545 0.4782483,-1.275174 0.5,-1.9570312 a 0.70918093,0.70918093 0 0 0 0,-0.00195 0.70918093,0.70918093 0 0 0 0,-0.00195 0.70918093,0.70918093 0 0 0 0,-0.00195 0.70918093,0.70918093 0 0 0 0,-0.00195 C 8.2201195,6.3007882 7.8005661,4.8418907 6.9832875,3.6095488 6.1425535,2.3052382 5.108866,1.1426992 3.918834,0.16228317 A 0.70918093,0.70918093 0 0 0 3.457897,1.7378633e-4 Z M 3.469617,0.70915817 A 14.044732,14.395346 0 0 1 6.3875854,3.9943144 6.2850286,6.4419285 0 0 1 7.4774291,7.7716582 3.7986767,3.8935072 0 0 1 7.0516479,9.4396269 3.3176413,3.4004631 0 0 1 5.8700072,10.79119 3.1567951,3.2356014 0 0 1 4.008679,11.287283 3.3401899,3.4235745 0 0 1 1.811413,10.412283 C 1.2011,9.8545292 0.910843,9.1101784 0.936413,8.1857207 A 3.0966656,3.173971 0 0 1 1.37782,6.5802519 2.7403988,2.8088102 0 0 1 2.475476,5.5294707 3.1567951,3.2356014 0 0 1 3.932507,5.1622832 C 3.647893,4.1813316 3.009524,3.118956 2.020398,1.9767363 Z" />
  <path
     style="opacity:0.6;isolation:isolate;fill:#000000;stroke-width:0.205353;stroke-linejoin:round;paint-order:markers stroke fill"
     d="m 9.6049868,14.022994 q 1.4836882,-1.71333 1.9091042,-3.184759 A 3.1567951,3.2356014 0 0 1 10.057457,10.46999 2.7358891,2.8041879 0 0 1 8.9615987,9.4207317 3.0966656,3.173971 0 0 1 8.5196458,7.8168004 Q 8.4820338,6.4301141 9.3945306,5.5888545 a 3.3371833,3.420493 0 0 1 2.1977324,-0.8766948 3.1567951,3.2356014 0 0 1 1.862505,0.4992072 3.3206478,3.4035446 0 0 1 1.181546,1.3481713 3.8107026,3.9058333 0 0 1 0.425415,1.6686466 6.2985581,6.4557956 0 0 1 -1.089847,3.7779482 14.044732,14.395346 0 0 1 -2.919285,3.284908 z"
     id="path16" />
  <path
     class="cls-9"
     d="m 2.021161,1.9773088 q 1.483689,1.71333 1.910611,3.184757 a 3.1567951,3.2356014 0 0 0 -1.456634,0.36824 2.7403988,2.8088102 0 0 0 -1.097364,1.049258 3.0966656,3.173971 0 0 0 -0.440449,1.605476 c -0.02557,0.924458 0.263067,1.668647 0.873381,2.2264012 A 3.3401899,3.4235745 0 0 0 4.008438,11.288136 3.1567951,3.2356014 0 0 0 5.8709479,10.790472 3.3176413,3.4004631 0 0 0 7.0524894,9.4392208 3.7986767,3.8935072 0 0 0 7.4779044,7.7721178 6.2850286,6.4419285 0 0 0 6.3880578,3.9941698 14.044732,14.395346 0 0 0 3.468773,0.70926179 Z"
     id="path2051"
     style="opacity:0.6;isolation:isolate;fill:#000000;fill-opacity:1;stroke:none;stroke-width:1.41822;stroke-linejoin:round;stroke-miterlimit:4;stroke-dasharray:none;stroke-opacity:1;paint-order:markers stroke fill" />
</svg>
