<?xml version="1.0" encoding="UTF-8" standalone="no"?>
<svg
   height="16"
   viewBox="0 0 16 16"
   width="16"
   version="1.1"
   id="svg135"
   xmlns="http://www.w3.org/2000/svg"
   xmlns:svg="http://www.w3.org/2000/svg">
  <defs
     id="defs139" />
  <g
     id="g59"
     transform="matrix(1.009084,0,0,1.009084,-0.14534425,-0.76010896)">
    <rect
       style="display:inline;fill:#000000;fill-opacity:1;stroke-width:0.0169723"
       id="rect1"
       width="7.2374125"
       height="1.4332913"
       x="8.7625875"
       y="14.566709"
       ry="0.3973482" />
    <path
       d="m 44.451172,-2.0175781 c -0.192834,-0.01244 -0.35672,0.1090371 -0.475837,0.2486692 -0.766518,0.79586856 -1.539022,1.58599909 -2.300116,2.38706644 -0.07527,0.0792205 -0.04771,0.13806148 0.06153,0.13503437 0.176763,-0.004898 0.35365,-0.003311 0.530504,-0.001822 0.109211,9.1962e-4 0.286321,0.004035 0.395393,0.0108492 0.251131,0.0156886 0.5014,0.0446419 0.749814,0.0847925 0.107883,0.0174369 0.246205,-0.0384235 0.309036,-0.12784477 0.462528,-0.65827213 0.909295,-1.32884708 1.306579,-2.02849854 0.05521,-0.1569808 0.0049,-0.3376682 -0.07733,-0.4762064 -0.118802,-0.1552788 -0.309572,-0.2242425 -0.499579,-0.2320408 z"
       style="display:inline;fill:#000000;fill-opacity:1;stroke-width:0.132292"
       id="path35"
       transform="matrix(0.70881276,0,0,0.70881276,-17.456489,2.7932049)" />
    <path
       id="path49"
       style="display:inline;stroke-width:0.0937703"
       d="m 12.18905,3.6792209 c -0.234947,0.00365 -0.668015,0.031383 -1.201659,0.1619747 -0.612725,0.1579041 -0.763438,0.3984817 -0.800183,0.4956152 -0.0087,0.022982 -0.01246,0.062579 -0.01246,0.087217 v 1.052144 0.3544063 c 0,0.022267 0.0073,0.057326 0.01661,0.077526 0.03669,0.07925 0.143434,0.2638496 0.368252,0.3461 l 0.843099,-0.055376 0.722656,-0.048454 a 1.7239547,0.21847823 0 0 1 -0.663127,-0.031842 1.7239547,0.21847823 0 0 1 -0.804336,-0.1855095 1.7239547,0.21847823 0 0 1 0.03322,-0.041533 1.7239547,0.21847823 0 0 1 0.0014,-0.00138 1.7239547,0.21847823 0 0 1 1.688967,-0.1744343 1.7239547,0.21847823 0 0 1 1.723578,0.2173507 1.7239547,0.21847823 0 0 1 -1.456388,0.2173508 l 1.554681,0.1038301 c 0.209033,-0.076477 0.316481,-0.241584 0.359944,-0.3281029 0.01499,-0.029843 0.02354,-0.082851 0.02354,-0.1162896 V 4.4461806 c 0,-0.036266 -0.0043,-0.095883 -0.01938,-0.1287492 -0.04888,-0.1068729 -0.21674,-0.3280173 -0.791874,-0.4762335 -0.813171,-0.198997 -1.394091,-0.1592059 -1.394091,-0.159206 0,0 -0.0367,-0.00215 -0.103829,-0.00277 -0.02518,-2.328e-4 -0.05504,-5.216e-4 -0.08861,0 z m 0.459621,2.4711537 -0.257498,-0.017997 -0.265805,0.017997 a 1.7239547,0.21847823 0 0 0 0.256114,0.00138 1.7239547,0.21847823 0 0 0 0.267189,-0.00138 z" />
    <path
       d="m 42.095703,4.5 c -0.320137,2.264e-4 -0.640109,0.014563 -0.958984,0.042969 l -1.220703,0.1074219 c -0.157159,0.013883 -0.300233,0.097863 -0.388672,0.2285156 l -1,1.4785157 C 38.435894,6.4925226 38.383401,6.6495743 38.375,6.8125 l -0.442561,8.617038 a 0.48503701,0.48503701 46.470032 0 0 0.484398,0.509915 h 7.357732 a 0.48503701,0.48503701 133.52997 0 0 0.484398,-0.509915 L 45.816406,6.8125 c -0.0084,-0.1629257 -0.06089,-0.3199771 -0.152344,-0.4550781 l -1,-1.4785157 C 44.575603,4.7482294 44.432583,4.6642458 44.275391,4.6503906 L 43.052734,4.5429687 C 42.734508,4.5146204 42.415189,4.5002837 42.095703,4.5 Z m -0.150391,3.0234375 c 0.08245,-3.464e-4 0.216257,-3.459e-4 0.298829,0 1.721728,0.00721 2.737711,0.1374374 3.095703,0.1933594 0.08145,0.012723 0.149612,0.091301 0.152343,0.1738281 l 0.109375,3.3125 c 0.0027,0.08253 -0.05851,0.131156 -0.138671,0.111328 -0.389373,-0.09631 -1.54571,-0.343402 -3.21875,-0.357422 -0.08232,-6.9e-4 -0.21626,-7.63e-4 -0.298829,0 -1.605275,0.01484 -2.814255,0.264814 -3.216796,0.359375 -0.0802,0.01884 -0.143357,-0.03075 -0.140625,-0.113281 l 0.111328,-3.3125 c 0.0027,-0.082528 0.07077,-0.1611229 0.152343,-0.1738281 0.358878,-0.055893 1.375332,-0.1861392 3.09375,-0.1933594 z"
       style="display:inline;fill:#000000;fill-opacity:1;stroke-width:0.139215"
       id="path17"
       transform="matrix(0.70881276,0,0,0.70881276,-17.456489,2.7932049)" />
    <path
       d="m 33.769531,8.8789063 c -0.02587,-9.662e-4 -0.0459,0.01905 -0.04492,0.044922 l 0.01758,0.4785157 c 7.55e-4,0.020017 -0.01152,0.043494 -0.0293,0.052734 -0.132987,0.069146 -0.286207,0.1152379 -0.355469,0.2597657 l -2.877837,3.8675693 c -0.04158,0.05588 -0.02068,0.115865 0.04495,0.139146 0.478202,0.169628 0.862749,0.533904 1.058,1.002228 0.0268,0.06428 0.08702,0.08095 0.139569,0.03524 l 3.762267,-3.272696 c 0.0173,-0.01506 0.03646,-0.04441 0.04297,-0.06641 l 0.07813,-0.265625 c 0.0059,-0.0198 0.02622,-0.0354 0.04687,-0.03516 0.163292,0.0019 0.326942,0.0039 0.490234,0.0059 0.02598,3.08e-4 0.04543,-0.01932 0.04102,-0.04492 C 36.06302,10.380433 35.519761,9.8499886 35.001953,9.40625 34.651316,9.1258946 34.22657,8.8959749 33.769531,8.8789063 Z"
       style="display:inline;fill:#000000;fill-opacity:1;stroke-width:0.132292"
       id="path18"
       transform="matrix(0.70881276,0,0,0.70881276,-17.456489,2.7932049)" />
    <path
       id="path11"
       style="display:inline;fill:#000000;fill-opacity:1;fill-rule:nonzero;stroke-width:0.016707"
       d="m 3.407706,12.799091 a 1.2742207,1.2742207 0 0 0 -0.1452408,0.01039 l -0.00135,-0.0019 c -0.00341,4.84e-4 -0.019875,0.003 -0.024617,0.0037 a 1.2742207,1.2742207 0 0 0 -0.023157,0.0035 c -0.057718,0.0087 -0.1491086,0.02265 -0.242377,0.03712 -0.084594,0.01313 -0.2149008,0.05557 -0.2910109,0.09475 l -0.059881,0.03083 a 1.7059296,1.7059296 0 0 0 -0.2605737,0.165621 l -0.010526,0.0082 A 1.3479273,1.3479273 0 0 0 2.128172,13.365989 l -0.2783061,0.340637 a 28.774473,28.774473 0 0 1 -0.1974483,0.239002 l -0.4503463,0.53921 c -0.054876,0.0657 -0.1475457,0.168987 -0.20571863,0.23179 -0.083567,0.09022 -0.21099307,0.230792 -0.36267049,0.407931 -0.0556347,0.06497 -0.14542995,0.170684 -0.201816,0.235098 -0.065551,0.07488 -0.15843737,0.18022 -0.26580052,0.299413 -0.0398991,0.0443 -0.0241422,0.08144 0.035469,0.08297 0.36867832,0.0095 0.75869341,0.01472 0.93714964,0.01681 0.055039,5.9e-4 0.1443157,8.51e-4 0.1993664,4.84e-4 0.3435054,-0.0025 0.7144534,-0.0087 0.8876561,-0.01172 0.055039,-0.0011 0.1443022,-0.0031 0.1993004,-0.0055 0.4336595,-0.01927 0.7710691,-0.07409 0.9287467,-0.103885 0.05404,-0.01022 0.1398019,-0.03455 0.1906983,-0.05552 0.1713937,-0.0706 0.329325,-0.161667 0.4214955,-0.218557 0.046817,-0.02889 0.1188573,-0.0815 0.1595339,-0.118575 0.039049,-0.03559 0.083404,-0.07788 0.1195001,-0.112751 0.039516,-0.03819 0.095332,-0.107057 0.1234716,-0.154373 0.1068443,-0.17965 0.1848095,-0.347187 0.1848095,-0.347187 l -0.00114,-0.0017 A 1.2742207,1.2742207 0 0 0 4.6819513,14.07327 1.2742207,1.2742207 0 0 0 3.4077371,12.799055 Z" />
    <path
       d="M 9.0636265,9.299006 C 9.0944695,8.7186583 9.1198866,8.1378577 9.1565961,7.5579994 9.1898613,7.3328176 9.3595512,7.1675933 9.4730379,6.9798923 L 9.8858748,6.3707887 C 9.9295626,6.3063313 9.9044468,6.2331628 9.8393409,6.1907434 9.7638281,6.1415436 9.6982524,6.0764332 9.6494486,6.0009833 9.607266,5.9357698 9.5444624,5.9208479 9.4913295,5.9777714 8.6933349,6.8326958 7.897443,7.6902935 7.1271821,8.5701638 c -0.042342,0.048367 -0.086767,0.152292 -0.040793,0.1932971 0.060467,0.053932 0.1821409,0.069231 0.2757985,0.1064241 0.058642,0.023288 0.1402985,0.089462 0.1933615,0.1257734 C 7.8658808,9.2080226 8.1330667,9.4849874 8.345563,9.7940281 8.391857,9.9645318 8.5565823,10.118166 8.6661506,9.9020728 8.7635847,9.7928584 8.8595899,9.6823821 8.9548296,9.5712506 9.0104444,9.506356 9.0590907,9.3843514 9.0636265,9.299006 Z"
       style="display:inline;stroke-width:0.132292"
       id="path5" />
  </g>
</svg>
