<?xml version="1.0" encoding="UTF-8" standalone="no"?>
<svg
   width="16"
   height="16"
   version="1"
   id="svg566"
   xml:space="preserve"
   xmlns="http://www.w3.org/2000/svg"
   xmlns:svg="http://www.w3.org/2000/svg"><defs
     id="defs570" /><g
     id="g31"
     transform="matrix(0.015625,0,0,0.015625,2.4703609,-3.5294027)"><path
       style="fill:#000000"
       d="m -110.1031,857.88177 v -8 h 8 8 v -8 -8 h 8 8 v -8 -8 h 8 8 v -8 -8 h 8 8 v -8 -8 h 8 8 v -8 -8 h 8 8 v 8 8 h -8 -8 v 8 8 h -8 -8 v 8 8 h -8 -8 v 8 8 h -8 -8 v 8 8 h -8 -8 v 8 8 h -8 -8 z m 0,-80 v -8 h 8 8 v -8 -8 h 8 8 v 8 8 h -8 -8 v 8 8 h -8 -8 z m 239.99995,-112 v -8 h 8 8 v -8 -8 h 8 8 v -8 -8 h 8 8 v 8 8 h -8 -8 v 8 8 h -8 -8 v 8 8 h -8 -8 z m 320,-48 v -8 h -8 -8 v -8 -8 h -8 -8 v -88 -88 h 16 16 v 8 8 h 8 8 v 96 96 h -8 -8 z m -64,-136 v -80 h 8 8 v 80 80 h -8 -8 z m -160,-40 v -8 h 8 8 v -8 -8 h 8 8 v -8 -8 h 8 8 v 8 8 h -8 -8 v 8 8 h -8 -8 v 8 8 h -8 -8 z"
       id="path24" /><path
       style="opacity:0.7;fill:#000000"
       d="m -158.1031,825.88177 v -8 h 8 8 v -8 -8 h 8 8 v -8 -8 h 8 8 v 8 8 h -8 -8 v 8 8 h -8 -8 v 8 8 h -8 -8 z m 80,-80 v -8 h 8 8 v -8 -8 h 8 8 v -8 -8 h 8 8 v -8 -8 h 8 8 v -8 -8 h 8 8 v -8 -8 h 8 8 v -8 -8 h 7.99995 8 v -8 -8 h 8 8 v -8 -8 h 8 8 v -8 -8 h 8 8 v -8 -8 h 8 8 v -8 -8 h 8 8 v -8 -8 h 8 8 v -8 -8 h 8 8 v -8 -8 h 8 8 v -8 -8 h 8 8 v -8 -8 h 8 8 v -8 -8 h 8 8 v -8 -8 h 8 8 v 8 8 h -8 -8 v 8 8 h -8 -8 v 8 8 h -8 -8 v 8 8 h -8 -8 v 8 8 h -8 -8 v 8 8 h -8 -8 v 8 8 h -8 -8 v 8 8 h -8 -8 v 8 8 h -8 -8 v 8 8 h -8 -8 v 8 8 h -8 -8 v 8 8 h -8 -8 v 8 8 h -8 -7.99995 v 8 8 h -8 -8 v 8 8 h -8 -8 v 8 8 h -8 -8 v 8 8 h -8 -8 v 8 8 h -8 -8 v 8 8 h -8 -8 z m 175.99995,-48 v -8 h 8 8 v -8 -8 h 8 8 v 8 8 h -8 -8 v 8 8 h -8 -8 z m 80,-80 v -8 h 8 8 v -8 -8 h 8 8 v -8 -8 h 8 8 v -8 -8 h 8 8 v -8 -8 h 8 8 v -8 -8 h 8 8 v -8 -8 h 8 8 v 8 8 h -8 -8 v 8 8 h -8 -8 v 8 8 h -8 -8 v 8 8 h -8 -8 v 8 8 h -8 -8 v 8 8 h -8 -8 v 8 8 h -8 -8 z m 96,-224 v -8 h 8 8 v -8 -8 h 8 8 v -8 -8 h 8 8 v -8 -8 h 8 8 v -8 -8 h 8 8 v -8 -8 h 8 8 v -8 -8 h 8 8 v -8 -8 h 8 8 v -8 -8 h 8 8 v -8 -8 h 8 8 v -8 -8 h 8 8 v 8 8 h -8 -8 v 8 8 h -8 -8 v 8 8 h -8 -8 v 8 8 h -8 -8 v 8 8 h -8 -8 v 8 8 h -8 -8 v 8 8 h -8 -8 v 8 8 h -8 -8 v 8 8 h -8 -8 v 8 8 h -8 -8 v 8 8 h -8 -8 z m 144,-16 v -8 h 8 8 v -8 -8 h 8 8 v -8 -8 h 8 8 v -8 -8 h 8 8 v -8 -8 h 16 16 v -8 -8 h 16 16 v -8 -8 h 16 16 v -8 -8 h 8 8 v -8 -8 h 8 8 v -8 -8 h 8 8 v 8 8 h -8 -8 v 8 8 h -8 -8 v 8 8 h -8 -8 v 8 8 h -16 -16 v 8 8 h -16 -16 v 8 8 h -16 -16 v 8 8 h -8 -8 v 8 8 h -8 -8 v 8 8 h -8 -8 v 8 8 h -8 -8 z"
       id="path21" /><path
       id="path19"
       style="opacity:0.9;fill:#000000"
       d="m 65.89685,1065.8818 v -8 h 8 8 v 8 8 h -8 -8 z m -47.99995,-48 v -8 h -8 -8 v -8 -8.00003 h 8 8 v 8.00003 8 h 7.99995 8 v 8 8 h -8 -7.99995 z m -64,-64.00003 v -8 h 8 8 v 8 8 h -8 -8 z m 223.99995,240.00003 v -8 h -8 -8 v -8 -8 h -8 -8 v -8 -8 h -8 -8 v -8 -8 h -8 -8 v -8 -8 h -8 -8 v -8 -8 h -8 -8 v -8 -8 h -8 -8 v -8 -8 h -8 -8 v -8 -8 h -8 -8 v -8 -8 h -8 -7.99995 v -8 -8 h -8 -8 v -8 -8 h -8 -8 v -8 -8.00003 h -8 -8 v -8 -8 h -8 -8 v -8 -8 h -8 -8 v -8 -8 h -8 -8 v -8 -8 h -8 -8 v -8 -8 h -8 -8 v -8 -8 h -8 -8 v -8 -8 h -8 -8 v -8 -8 h -8 -8 v -8 -8 h 8 8 v 8 8 h 8 8 v 8 8 h 8 8 v 8 8 h 8 8 v 8 8 h 8 8 v 8 8 h 8 8 v 8 8 h 8 8 v 8 8 h 8 8 v 8 8 h 8 8 v 8 8 h 8 8 v 8.00003 8 h 8 8 v 8 8 h 7.99995 8 v 8 8 h 8 8 v 8 8 h 8 8 v 8 8 h 8 8 v 8 8 h 8 8 v 8 8 h 8 8 v 8 8 h 8 8 v 8 8 h 8 8 v 8 8 h 8 8 v 8 8 h 8 8 v 8 8 h 8 8 v 8 8 h -8 -8 z m 672,-816.00003 v -8 h -8 -8 v -8 -8 h -8 -8 v -8 -8 h -8 -8 v -8 -8 h -8 -8 v -8 -8 h -8 -8 v -8 -8 h -8 -8 v -8 -8 h -8 -8 v -8 -8 h -8 -8 v -8 -8 h -8 -8 v -8 -8 h 8 8 v 8 8 h 8 8 v 8 8 h 8 8 v 8 8 h 8 8 v 8 8 h 8 8 v 8 8 h 8 8 v 8 8 h 8 8 v 8 8 h 8 8 v 8 8 h 8 8 v 8 8 h 8 8 v 8 8 h -8 -8 z m -784,672.00003 v -8 h 8 8 v -8 -8 h 8 8 v -8 -8 h 8 8 v -8 -8.00003 h 8 8 v -8 -8 h 8 8 v -8 -8 h 8 8 v 16 16 h -8 -8 v 8.00003 8 h -8 -8 v 8 8 h -8 -8 v 8 8 h -8 -8 v 8 8 h -16 -16 z m -32,-32 v -8 h -8 -7.99995 v -8 -8.00003 h -8 -8 v -8 -8 h 8 8 v -8 -8 h 7.99995 8 v -8 -8 h 8 8 v -8 -8 h 8 8 v -8 -8 h 8 8 v -8 -8 h 8 8 v 8 8 h 8 8 v 8 8 h 8 8 v 8 8 h -8 -8 v 8 8 h -8 -8 v 8 8 h -8 -8 v 8 8 h -8 -8 v 8.00003 8 h -8 -8 v 8 8 h -8 -8 z M -30.1031,945.88177 v -16 h 8 8 v -8 -8 h 8 8 v -8 -8 h 8 8 v -8 -8 h 7.99995 8 v -8 -8 h 16 16 v 8 8 h -8 -8 v 8 8 h -8 -8 v 8 8 h -8 -7.99995 v 8 8 h -8 -8 v 8 8 h -8 -8 v 8 8 h -8 -8 z m 271.99995,-72 v -8 h 8 8 v -8 -8 h 8 8 v -8 -8 h 8 8 v -8 -8 h 8 8 v -8 -8 h 8 8 v -8 -8 h 8 8 v -8 -8 h 8 8 v -8 -8 h 8 8 v -8 -8 h 8 8 v -8 -8 h 8 8 v -8 -8 h 8 8 v -8 -8 h 8 8 v -8 -8 h 8 8 v -8 -8 h 16 16 v 8 8 h -8 -8 v 8 8 h -8 -8 v 8 8 h -8 -8 v 8 8 h -8 -8 v 8 8 h -8 -8 v 8 8 h -8 -8 v 8 8 h -8 -8 v 8 8 h -8 -8 v 8 8 h -8 -8 v 8 8 h -8 -8 v 8 8 h -8 -8 v 8 8 h -8 -8 v 8 8 h -8 -8 v 8 8 h -16 -16 z m -32,-32 v -8 h -8 -8 v -8 -8 h -8 -8 v -8 -8 h 8 8 v -8 -8 h 8 8 v -8 -8 h 8 8 v -8 -8 h 8 8 v -8 -8 h 8 8 v -8 -8 h 8 8 v -8 -8 h 8 8 v -8 -8 h 8 8 v -8 -8 h 8 8 v -8 -8 h 8 8 v -8 -8 h 8 8 v -8 -8 h 8 8 v -8 -8 h 8 8 v -8 -8 h 16 16 v 8 8 h 8 8 v 16 16 h -8 -8 v 8 8 h -8 -8 v 8 8 h -8 -8 v 8 8 h -8 -8 v 8 8 h -8 -8 v 8 8 h -8 -8 v 8 8 h -8 -8 v 8 8 h -8 -8 v 8 8 h -8 -8 v 8 8 h -8 -8 v 8 8 h -8 -8 v 8 8 h -8 -8 v 8 8 h -8 -8 v 8 8 h -8 -8 z m -64,-72 v -16 h 8 8 v -8 -8 h 8 8 v -8 -8 h 8 8 v -8 -8 h 8 8 v -8 -8 h 8 8 v -8 -8 h 8 8 v -8 -8 h 8 8 v -8 -8 h 8 8 v -8 -8 h 8 8 v -8 -8 h 8 8 v -8 -8 h 8 8 v -8 -8 h 8 8 v -8 -8 h 8 8 v -8 -8 h 8 8 v 16 16 h -8 -8 v 8 8 h -8 -8 v 8 8 h -8 -8 v 8 8 h -8 -8 v 8 8 h -8 -8 v 8 8 h -8 -8 v 8 8 h -8 -8 v 8 8 h -8 -8 v 8 8 h -8 -8 v 8 8 h -8 -8 v 8 8 h -8 -8 v 8 8 h -8 -8 v 8 8 h -8 -8 v 8 8 h -8 -8 z m 432,-232 v -8 h 8 8 v -8 -8 h 8 8 v -8 -8 h 8 8 v -8 -8 h 8 8 v -8 -8 h 8 8 v -8 -8 h 8 8 v -8 -8 h 8 8 v -8 -8 h 8 8 v -8 -8 h 8 8 v -8 -8 h 8 8 v -8 -8 h 8 8 v -8 -8 h 8 8 v -8 -8 h 8 8 v -8 -8 h 8 8 v 16 16 h -8 -8 v 8 8 h -8 -8 v 8 8 h -8 -8 v 8 8 h -8 -8 v 8 8 h -8 -8 v 8 8 h -8 -8 v 8 8 h -8 -8 v 8 8 h -8 -8 v 8 8 h -8 -8 v 8 8 h -8 -8 v 8 8 h -8 -8 v 8 8 h -8 -8 v 8 8 h -16 -16 z m -32,-32 v -8 h -8 -8 v -8 -8 h -8 -8 v -8 -8 h 8 8 v -8 -8 h 8 8 v -8 -8 h 8 8 v -8 -8 h 8 8 v -8 -8 h 8 8 v -8 -8 h 8 8 v -8 -8 h 8 8 v -8 -8 h 8 8 v -8 -8 h 8 8 v -8 -8 h 8 8 v -8 -8 h 8 8 v -8 -8 h 8 8 v -8 -8 h 8 8 v -8 -8 h 8 8 v 8 8 h 8 8 v 8 8 h 8 8 v 8 8 h -8 -8 v 8 8 h -8 -8 v 8 8 h -8 -8 v 8 8 h -8 -8 v 8 8 h -8 -8 v 8 8 h -8 -8 v 8 8 h -8 -8 v 8 8 h -8 -8 v 8 8 h -8 -8 v 8 8 h -8 -8 v 8 8 h -8 -8 v 8 8 h -8 -8 v 8 8 h -8 -8 v 8 8 h -8 -8 z m -64,-72 v -16 h 8 8 v -8 -8 h 8 8 v -8 -8 h 8 8 v -8 -8 h 8 8 v -8 -8 h 8 8 v -8 -8 h 8 8 v -8 -8 h 8 8 v -8 -8 h 8 8 v -8 -8 h 8 8 v -8 -8 h 8 8 v -8 -8 h 8 8 v -8 -8 h 8 8 v -8 -8 h 16 16 v 8 8 h -8 -8 v 8 8 h -8 -8 v 8 8 h -8 -8 v 8 8 h -8 -8 v 8 8 h -8 -8 v 8 8 h -8 -8 v 8 8 h -8 -8 v 8 8 h -8 -8 v 8 8 h -8 -8 v 8 8 h -8 -8 v 8 8 h -8 -8 v 8 8 h -8 -8 v 8 8 h -8 -8 v 8 8 h -8 -8 z m -336,760.00003 v -8 h -8 -8 v -8 -8 h -8 -8 v -8 -8 h -8 -8 v -8 -8 h -8 -8 v -8 -8 h -8 -8 v -8 -8 h -8 -8 v -8 -8 h -8 -8 v -8 -8 h -8 -7.99995 v -8 -8 h -8 -8 v -8 -8 h -8 -8 v -8 -8 h -8 -8 v -8 -8 h -8 -8 v -8 -8.00003 h -8 -8 v -8 -8 h -8 -8 v -8 -8 h -8 -8 v -8 -8 h -8 -8 v -8 -8 h -8 -8 v -8 -8 h -8 -8 v -8 -8 h -8 -8 v -16 -16 h 8 8 v 8 8 h 8 8 v 8 8 h 8 8 v 8 8 h 8 8 v 8 8 h 8 8 v 8 8 h 8 8 v 8 8 h 8 8 v 8 8 h 8 8 v 8 8 h 8 8 v 8.00003 8 h 8 8 v 8 8 h 8 8 v 8 8 h 7.99995 8 v 8 8 h 8 8 v 8 8 h 8 8 v 8 8 h 8 8 v 8 8 h 8 8 v 8 8 h 8 8 v 8 8 h 8 8 v 8 8 h 8 8 v 8 8 h 8 8 v 8 8 h 8 8 v 8 8 h -16 -16 z m 704,-832.00003 v -8 h -8 -8 v -8 -8 h -8 -8 v -8 -8 h -8 -8 v -8 -8 h -8 -8 v -8 -8 h -8 -8 v -8 -8 h -8 -8 v -8 -8 h -8 -8 v -8 -8 h -8 -8 v -8 -8 h 16 16 v 8 8 h 8 8 v 8 8 h 8 8 v 8 8 h 8 8 v 8 8 h 8 8 v 8 8 h 8 8 v 8 8 h 8 8 v 8 8 h 8 8 v 16 16 h -8 -8 z" /><path
       style="opacity:0.6;fill:#000000"
       d="m 177.89685,1161.8818 v -8 h -8 -8 v -8 -8 h -8 -8 v -8 -8 h -8 -8 v -8 -8 h -8 -8 v -8 -8 h -8 -8 v -8 -8 h -8 -8 v -8 -8 h 8 8 v -8 -8 h 8 8 v -8 -8 h 8 8 v -8 -8 h 8 8 v -8 -8.00003 h 8 8 v -8 -8 h 8 8 v 8 8 h 8 8 v 8.00003 8 h 16 16 v 8 8 h 24 24 v -8 -8 h 8 8 v -16.00003 -16 h 8 8 v -24 -24 h -8 -8 v -8 -8 h -8 -8 v -8 -8 h -8 -8 v -8 -8 h 8 8 v -8 -8 h 8 8 v -8 -8 h 8 8 v -8 -8 h 8 8 v -8 -8 h 8 8 v -8 -8 h 8 8 v -8 -8 h 8 8 v -8 -8 h 8 8 v -8 -8 h 8 8 v -8 -8 h 8 8 v -8 -8 h 8 8 v -8 -8 h 8 8 v -8 -8 h 8 8 v -8 -8 h 16 16 v 8 8 h 8 8 v 8 8 h 8 8 v 8 8 h 48 48 v -8 -8 h 8 8 v -48 -48 h -8 -8 v -16 -16 h -8 -8 v -8 -8 h -8 -8 v -8 -8 h 8 8 v -8 -8 h 8 8 v -8 -8 h 8 8 v -8 -8 h 8 8 v -8 -8 h 8 8 v -8 -8 h 8 8 v -8 -8 h 8 8 v -8 -8 h 8 8 v -8 -8 h 8 8 v -8 -8 h 8 8 v -8 -8 h 8 8 v -8 -8 h 8 8 v -8 -8 h 8 8 v -8 -8 h 8 8 v 8 8 h 8 8 v 8 8 h 8 8 v 8 8 h 8 8 v 64 64 h -8 -8 v 8 8 h -8 -8 v 8 8 h -8 -8 v 8 8 h -8 -8 v 8 8 h -8 -8 v 8 8 h -8 -8 v 8 8 h -8 -8 v 8 8 h -8 -8 v 8 8 h -8 -8 v 8 8 h -8 -8 v 8 8 h -8 -8 v 8 8 h -8 -8 v 8 8 h -8 -8 v 8 8 h -8 -8 v 8 8 h -8 -8 v 8 8 h -8 -8 v 8 8 h -8 -8 v 8 8 h -8 -8 v 8 8 h -8 -8 v 8 8 h -8 -8 v 8 8 h -8 -8 v 8 8 h -8 -8 v 8 8 h -8 -8 v 8 8 h -8 -8 v 8 8 h -8 -8 v 8 8 h -8 -8 v 8 8 h -8 -8 v 8 8 h -8 -8 v 8 8 h -8 -8 v 8 8 h -8 -8 v 8 8 h -8 -8 v 8.00003 8 h -8 -8 v 8 8 h -8 -8 v 8 8 h -8 -8 v 8 8 h -8 -8 v 8 8 h -8 -8 v 8 8 h -8 -8 v 8 8 h -8 -8 v 8 8 h -8 -8 v 8 8 h -8 -8 v 8 8 h -16 -16 v 8 8 h -8 -8 z m 32,-48 v -8 h 8 8 v -8 -8 h 8 8 v -8 -8 h 8 8 v -8 -8 h 8 8 v -8 -8 h -8 -8 v 8 8 h -8 -8 v 8 8 h -8 -8 v 8 8 h -8 -8 v 8 8 h -8 -8 v 8 8 h 8 8 z m 96,-64 v -8 h 8 8 v -8 -8 h 8 8 v -8 -8 h 8 8 v -8 -8.00003 h 8 8 v -8 -8 h 8 8 v -8 -8 h 8 8 v -8 -8 h 8 8 v -8 -8 h 8 8 v -8 -8 h 8 8 v -8 -8 h 8 8 v -8 -8 h 8 8 v -8 -8 h 8 8 v -8 -8 h 8 8 v -8 -8 h 8 8 v -8 -8 h 8 8 v -8 -8 h 8 8 v -8 -8 h 8 8 v -8 -8 h 8 8 v -8 -8 h 8 8 v -8 -8 h -48 -48 v 8 8 h -8 -8 v 8 8 h -8 -8 v 8 8 h -8 -8 v 8 8 h -8 -8 v 8 8 h -8 -8 v 8 8 h -8 -8 v 8 8 h -8 -8 v 8 8 h -8 -8 v 8 8 h -8 -8 v 8 8 h -8 -8 v 8 8 h -8 -8 v 8 8 h -8 -8 v 24 24 h -8 -8 v 24.00003 24 h -8 -8 v 16 16 h 8 8 z m 352,-448.00003 v -8 h 8 8 v -8 -8 h 8 8 v -8 -8 h 8 8 v -8 -8 h 8 8 v -16 -16 h 8 8 v -16 -16 h 8 8 v -16 -16 h 8 8 v -8 -8 h 8 8 v -8 -8 h 8 8 v -8 -8 h 8 8 v -8 -8 h 8 8 v -8 -8 h -8 -8 v 8 8 h -8 -8 v 8 8 h -8 -8 v 8 8 h -8 -8 v 8 8 h -8 -8 v 8 8 h -8 -8 v 16 16 h -8 -8 v 16 16 h -8 -8 v 16 16 h -8 -8 v 8 8 h -8 -8 v 8 8 h -8 -8 v 8 8 h -8 -8 v 8 8 h 8 8 z m -608,424.00003 v -16 h 8 8 v -8 -8.00003 h 8 8 v -8 -8 h 8 8 v -8 -8 h 8 8 v -8 -8 h 16 16 v 16 16 h -8 -8 v 8 8 h -8 -8 v 8.00003 8 h -8 -8 v 8 8 h -8 -8 v 8 8 h -16 -16 z M -14.1031,961.88177 v -16 h 8 8 v -8 -8 h 8 8 v -8 -8 h 7.99995 8 v -8 -8 h 8 8 v -8 -8 h 16 16 v 16 16 h -8 -8 v 8 8 h -8 -8 v 8 8 h -8 -8 v 8 8 h -8 -7.99995 v 8 8 h -16 -16 z m -32,-24 v -8 h -8 -8 v -8 -8 h -8 -8 v -8 -8 h -8 -8 v -8 -8 h -8 -8 v -8 -8 h -8 -8 v -8 -8 h -8 -8 v -16 -16 h -8 -8 v -24 -24 h 8 8 v -8 -8 h 8 8 v -8 -8 h 8 8 v -8 -8 h 8 8 v -8 -8 h 8 8 v -8 -8 h 8 8 v -8 -8 h 8 8 v -8 -8 h 8 8 v -8 -8 h 8 8 v -8 -8 h 8 8 v -8 -8 h 8 8 v -8 -8 h 7.99995 8 v -8 -8 h 24 24 v -8 -8 h 8 8 v -8 -8 h 8 8 v -8 -8 h 8 8 v -8 -8 h 8 8 v -8 -8 h 8 8 v -8 -8 h 8 8 v -8 -8 h 8 8 v -8 -8 h 8 8 v -8 -8 h 8 8 v -8 -8 h 8 8 v -8 -8 h 8 8 v -8 -8 h 8 8 v -8 -8 h 8 8 v -8 -8 h 8 8 v -8 -8 h 8 8 v -8 -8 h 8 8 v -8 -8 h 8 8 v -8 -8 h 8 8 v -8 -8 h 8 8 v -8 -8 h 8 8 v -8 -8 h 8 8 v -8 -8 h 8 8 v 8 8 h 8 8 v -8 -8 h 80 80 v 8 8 h 8 8 v -8 -8 h 24 24 v 8 8 h -8 -8 v 8 8 h -8 -8 v 8 8 h -8 -8 v 8 8 h -8 -8 v 8 8 h -8 -8 v 8 8 h -8 -8 v 8 8 h -8 -8 v 8 8 h -8 -8 v 8 8 h -8 -8 v 8 8 h -8 -8 v 8 8 h -8 -8 v 8 8 h -8 -8 v 8 8 h -8 -8 v -8 -8 h -8 -8 v -8 -8 h -16 -16 v -8 -8 h -48 -48 v 8 8 h -8 -8 v 48 48 h 8 8 v 8 8 h 8 8 v 8 8 h 8 8 v 16 16 h -8 -8 v 8 8 h -8 -8 v 8 8 h -8 -8 v 8 8 h -8 -8 v 8 8 h -8 -8 v 8 8 h -8 -8 v 8 8 h -8 -8 v 8 8 h -8 -8 v 8 8 h -8 -8 v 8 8 h -8 -8 v 8 8 h -8 -8 v 8 8 h -8 -8 v 8 8 h -8 -8 v 8 8 h -8 -8 v -8 -8 h -8 -8 v -8 -8 h -8 -8 v -8 -8 h -24 -24 v 8 8 h -16 -15.99995 v 8 8 h -8 -8 v 24 24 h 8 8 v 16 16 h 7.99995 8 v 8 8 h 8 8 v 8 8 h -8 -8 v 8 8 h -8 -7.99995 v 8 8 h -8 -8 v 8 8 h -8 -8 v 8 8 h -8 -8 v 8 8 h -8 -8 z m -48,-80 v -8 h 8 8 v -8 -8 h 8 8 v -8 -8 h 8 8 v -8 -8 h 8 8 v -8 -8 h 8 8 v -8 -8 h -8 -8 v 8 8 h -8 -8 v 8 8 h -8 -8 v 8 8 h -8 -8 v 8 8 h -8 -8 v 8 8 h -8 -8 v 8 8 h 8 8 z m -32,-48 v -8 h 8 8 v -8 -8 h 8 8 v -8 -8 h 8 8 v -8 -8 h 8 8 v -8 -8 h 8 8 v -8 -8 h 8 8 v 8 8 h 16 16 v -8 -8 h 23.99995 24 v -8 -8 h 32 32 v -8 -8 h 8 8 v -8 -8 h 8 8 v -8 -8 h 8 8 v -8 -8 h 8 8 v -8 -8 h 8 8 v -8 -8 h 8 8 v -8 -8 h 8 8 v -8 -8 h 8 8 v -8 -8 h 8 8 v -8 -8 h 8 8 v -8 -8 h 8 8 v -56 -56 h -8 -8 v -8 -8 h 8 8 v -8 -8 h 8 8 v -8 -8 h 8 8 v -8 -8 h 8 8 v -8 -8 h 8 8 v -8 -8 h 8 8 v -8 -8 h 8 8 v -8 -8 h 8 8 v -8 -8 h 8 8 v -8 -8 h 8 8 v -8 -8 h -8 -8 v 8 8 h -8 -8 v 8 8 h -8 -8 v 8 8 h -8 -8 v 8 8 h -8 -8 v 8 8 h -8 -8 v 8 8 h -8 -8 v 8 8 h -8 -8 v 8 8 h -8 -8 v 8 8 h -8 -8 v 8 8 h -8 -8 v 8 8 h -8 -8 v 8 8 h -8 -8 v 8 8 h -8 -8 v 8 8 h -8 -8 v 8 8 h -8 -8 v 8 8 h -8 -8 v 8 8 h -8 -8 v 8 8 h -8 -8 v 8 8 h -8 -8 v 8 8 h -8 -8 v 8 8 h -8 -8 v 8 8 h -8 -8 v 8 8 h -8 -8 v 8 8 h -8 -8 v 8 8 h -8 -7.99995 v 8 8 h -8 -8 v 8 8 h -8 -8 v 8 8 h -8 -8 v 8 8 h -8 -8 v 8 8 h -8 -8 v 8 8 h -8 -8 v 8 8 h -8 -8 v 8 8 h -8 -8 v 8 8 h -8 -8 v 8 8 h -8 -8 v 8 8 h 8 8 z m 96,-96 v -8 h 8 8 v -8 -8 h 8 8 v -8 -8 h 8 8 v -8 -8 h 7.99995 8 v -8 -8 h 8 8 v -8 -8 h 8 8 v -8 -8 h 8 8 v -8 -8 h 8 8 v -8 -8 h 8 8 v -8 -8 h 8 8 v -8 -8 h 8 8 v -8 -8 h 8 8 v -8 -8 h 8 8 v -8 -8 h 8 8 v -8 -8 h 8 8 v -8 -8 h 8 8 v -8 -8 h 8 8 v -8 -8 h 8 8 v -8 -8 h 8 8 v 8 8 h -8 -8 v 8 8 h -8 -8 v 8 8 h -8 -8 v 8 8 h -8 -8 v 8 8 h -8 -8 v 8 8 h -8 -8 v 8 8 h -8 -8 v 8 8 h -8 -8 v 8 8 h 8 8 v 8 8 h 8 8 v 8 8 h 8 8 v 8 8 h -8 -8 v 8 8 h -8 -8 v -8 -8 h -8 -8 v -8 -8 h -8 -8 v -8 -8 h -8 -8 v 8 8 h -8 -8 v 8 8 h -8 -8 v 8 8 h -8 -8 v 8 8 h -8 -8 v 8 8 h -8 -8 v 8 8 h -8 -7.99995 v 8 8 h -8 -8 v 8 8 h -8 -8 v 8 8 h -8 -8 z m 463.99995,-336 v -8 h 8 8 v -8 -8 h 8 8 v -8 -8 h 8 8 v -8 -8 h 16 16 v -8 -8 h 16 16 v -8 -8 h 16 16 v -8 -8 h 8 8 v -8 -8 h 8 8 v -8 -8 h -8 -8 v 8 8 h -8 -8 v 8 8 h -16 -16 v 8 8 h -16 -16 v 8 8 h -16 -16 v 8 8 h -8 -8 v 8 8 h -8 -8 v 8 8 h -8 -8 v 8 8 h -8 -8 v 8 8 h 8 8 z m -208,472 v -16 h 8 8 v -8 -8 h 8 8 v -8 -8 h 8 8 v -8 -8 h 8 8 v -8 -8 h 8 8 v -8 -8 h 8 8 v -8 -8 h 8 8 v -8 -8 h 8 8 v -8 -8 h 8 8 v -8 -8 h 8 8 v -8 -8 h 8 8 v -8 -8 h 8 8 v -8 -8 h 8 8 v -8 -8 h 8 8 v 8 8 h 8 8 v 8 8 h -8 -8 v 8 8 h -8 -8 v 8 8 h -8 -8 v 8 8 h -8 -8 v 8 8 h -8 -8 v 8 8 h -8 -8 v 8 8 h -8 -8 v 8 8 h -8 -8 v 8 8 h -8 -8 v 8 8 h -8 -8 v 8 8 h -8 -8 v 8 8 h -8 -8 v 8 8 h -8 -8 v 8 8 h -16 -16 z m -64,-64 v -16 h 8 8 v -8 -8 h 8 8 v -8 -8 h 8 8 v -8 -8 h 8 8 v -8 -8 h 8 8 v -8 -8 h 8 8 v -8 -8 h 8 8 v -8 -8 h 8 8 v -8 -8 h 8 8 v -8 -8 h 8 8 v -8 -8 h 8 8 v -8 -8 h 8 8 v -8 -8 h 8 8 v -8 -8 h 8 8 v 8 8 h 8 8 v 8 8 h -8 -8 v 8 8 h -8 -8 v 8 8 h -8 -8 v 8 8 h -8 -8 v 8 8 h -8 -8 v 8 8 h -8 -8 v 8 8 h -8 -8 v 8 8 h -8 -8 v 8 8 h -8 -8 v 8 8 h -8 -8 v 8 8 h -8 -8 v 8 8 h -8 -8 v 8 8 h -8 -8 v 8 8 h -16 -16 z m 400,-272 v -16 h 8 8 v -8 -8 h 8 8 v -8 -8 h 8 8 v -8 -8 h 8 8 v -8 -8 h 8 8 v -8 -8 h 8 8 v -8 -8 h 8 8 v -8 -8 h 8 8 v -8 -8 h 8 8 v -8 -8 h 8 8 v -8 -8 h 8 8 v -8 -8 h 8 8 v -8 -8 h 16 16 v 16 16 h -8 -8 v 8 8 h -8 -8 v 8 8 h -8 -8 v 8 8 h -8 -8 v 8 8 h -8 -8 v 8 8 h -8 -8 v 8 8 h -8 -8 v 8 8 h -8 -8 v 8 8 h -8 -8 v 8 8 h -8 -8 v 8 8 h -8 -8 v 8 8 h -8 -8 v 8 8 h -16 -16 z m -64,-64 v -16 h 8 8 v -8 -8 h 8 8 v -8 -8 h 8 8 v -8 -8 h 8 8 v -8 -8 h 8 8 v -8 -8 h 8 8 v -8 -8 h 8 8 v -8 -8 h 8 8 v -8 -8 h 8 8 v -8 -8 h 8 8 v -8 -8 h 8 8 v -8 -8 h 8 8 v -8 -8 h 16 16 v 16 16 h -8 -8 v 8 8 h -8 -8 v 8 8 h -8 -8 v 8 8 h -8 -8 v 8 8 h -8 -8 v 8 8 h -8 -8 v 8 8 h -8 -8 v 8 8 h -8 -8 v 8 8 h -8 -8 v 8 8 h -8 -8 v 8 8 h -8 -8 v 8 8 h -8 -8 v 8 8 h -16 -16 z"
       id="path17" /><path
       style="opacity:0.9;fill:#000000"
       d="m 177.89685,1177.8818 v -8 h -8 -8 v -8 -8 h -8 -8 v -8 -8 h -8 -8 v -8 -8 h -8 -8 v -8 -8 h -8 -8 v -8 -8 h -8 -8 v -8 -8 h 8 8 v 8 8 h 8 8 v 8 8 h 8 8 v 8 8 h 8 8 v 8 8 h 8 8 v 8 8 h 8 8 v 8 8 h 8 8 v -8 -8 h 16 16 v -8 -8 h 8 8 v -8 -8 h 8 8 v -8 -8 h 8 8 v -8 -8 h 8 8 v -8 -8 h 8 8 v -8 -8 h 8 8 v -8 -8 h 8 8 v -8 -8 h 8 8 v -8 -8 h 8 8 v -8 -8.00003 h 8 8 v -8 -8 h 8 8 v -8 -8 h 8 8 v -8 -8 h 8 8 v -8 -8 h 8 8 v -8 -8 h -8 -8 v -8 -8 h -8 -8 v -8 -8 h -8 -8 v -16 -16 h 16 16 v 8 8 h 8 8 v 8 8 h 8 8 v 8 8 h 8 8 v -8 -8 h 8 8 v -8 -8 h 8 8 v -8 -8 h 8 8 v -8 -8 h 8 8 v -8 -8 h 8 8 v -8 -8 h 8 8 v -8 -8 h 8 8 v -8 -8 h 8 8 v -8 -8 h 8 8 v -8 -8 h 8 8 v -8 -8 h 8 8 v -8 -8 h 8 8 v -8 -8 h 8 8 v -8 -8 h 8 8 v -8 -8 h 8 8 v -8 -8 h 8 8 v -8 -8 h 8 8 v -8 -8 h 8 8 v -8 -8 h 8 8 v -8 -8 h 8 8 v -8 -8 h 8 8 v -8 -8 h 8 8 v -8 -8 h 8 8 v -8 -8 h 8 8 v 8 8 h -8 -8 v 8 8 h -8 -8 v 8 8 h -8 -8 v 8 8 h -8 -8 v 8 8 h -8 -8 v 8 8 h -8 -8 v 8 8 h -8 -8 v 8 8 h -8 -8 v 8 8 h -8 -8 v 8 8 h -8 -8 v 8 8 h -8 -8 v 8 8 h -8 -8 v 8 8 h -8 -8 v 8 8 h -8 -8 v 8 8 h -8 -8 v 8 8 h -8 -8 v 8 8 h -8 -8 v 8 8 h -8 -8 v 8 8 h -8 -8 v 8 8 h -8 -8 v 8 8 h -8 -8 v 8 8 h -8 -8 v 8 8 h -8 -8 v 8 8 h -8 -8 v 8 8 h -8 -8 v 8 8 h -8 -8 v 8 8 h -8 -8 v 24 24 h -8 -8 v 8.00003 8 h -8 -8 v 8 8 h -8 -8 v 8 8 h -8 -8 v 8 8 h -8 -8 v 8 8 h -8 -8 v 8 8 h -8 -8 v 8 8 h -8 -8 v 8 8 h -8 -8 v 8 8 h -8 -8 v 8 8 h -8 -8 v 8 8 h -8 -8 v 8 8 h -32 -32 z m 288,-272.00003 v -8 h -8 -8 v 8 8 h 8 8 z m -272,208.00003 v -8 h 8 8 v -8 -8 h 8 8 v -8 -8 h 8 8 v -8 -8 h 8 8 v -8 -8 h 8 8 v 8 8 h -8 -8 v 8 8 h -8 -8 v 8 8 h -8 -8 v 8 8 h -8 -8 v 8 8 h -8 -8 z m -144,-64 v -8 h -8 -8 v -8 -8 h 8 8 v 8 8 h 8 8 v 8 8 h -8 -8 z M -14.1031,985.88177 v -8 h -8 -8 v -8 -8 h 8 8 v 8 8 h 8 8 v 8 8 h -8 -8 z m -48,-48 v -8 h -8 -8 v -8 -8 h -8 -8 v -8 -8 h -8 -8 v -8 -8 h -8 -8 v -8 -8 h -8 -8 v -8 -8 h -8 -8 v -8 -8 h 8 8 v 8 8 h 8 8 v 8 8 h 8 8 v 8 8 h 8 8 v 8 8 h 8 8 v 8 8 h 8 8 v 8 8 h 8 8 v 8 8 h -8 -8 z m 703.99995,-336 v -8 h 8 8 v -8 -8 h 8 8 v -8 -8 h 8 8 v -8 -8 h 8 8 v -16 -16 h 8 8 v -16 -16 h 8 8 v -16 -16 h 8 8 v -8 -8 h 8 8 v -8 -8 h 8 8 v -8 -8 h 8 8 v -8 -8 h 8 8 v -8 -8 h 8 8 v 8 8 h -8 -8 v 8 8 h -8 -8 v 8 8 h -8 -8 v 8 8 h -8 -8 v 8 8 h -8 -8 v 16 16 h -8 -8 v 16 16 h -8 -8 v 16 16 h -8 -8 v 8 8 h -8 -8 v 8 8 h -8 -8 v 8 8 h -8 -8 v 8 8 h -8 -8 z"
       id="path16" /><path
       style="opacity:0.9;fill:#000000"
       d="m 241.89685,1177.8818 v -8 h 8 8 v -8 -8 h 8 8 v -8 -8 h 8 8 v -8 -8 h 8 8 v -8 -8 h 8 8 v -8 -8 h 8 8 v -8 -8 h 8 8 v -8 -8 h 8 8 v -8 -8 h 8 8 v -8 -8 h 8 8 v -8 -8 h 8 8 v -8 -8.00003 h 8 8 v -24 -24 h 8 8 v -8 -8 h 8 8 v -8 -8 h 8 8 v -8 -8 h 8 8 v -8 -8 h 8 8 v -8 -8 h 8 8 v -8 -8 h 8 8 v -8 -8 h 8 8 v -8 -8 h 8 8 v -8 -8 h 8 8 v -8 -8 h 8 8 v -8 -8 h 8 8 v -8 -8 h 8 8 v -8 -8 h 8 8 v -8 -8 h 8 8 v -8 -8 h 8 8 v -8 -8 h 8 8 v -8 -8 h 8 8 v -8 -8 h 8 8 v -8 -8 h 8 8 v -8 -8 h 8 8 v -8 -8 h 8 8 v -8 -8 h 8 8 v -8 -8 h 8 8 v -8 -8 h 8 8 v -8 -8 h 8 8 v -8 -8 h 8 8 v 8 8 h -8 -8 v 8 8 h -8 -8 v 8 8 h -8 -8 v 8 8 h -8 -8 v 8 8 h -8 -8 v 8 8 h -8 -8 v 8 8 h -8 -8 v 8 8 h -8 -8 v 8 8 h -8 -8 v 8 8 h -8 -8 v 8 8 h -8 -8 v 8 8 h -8 -8 v 8 8 h -8 -8 v 8 8 h -8 -8 v 8 8 h -8 -8 v 8 8 h -8 -8 v 8 8 h -8 -8 v 8 8 h -8 -8 v 8 8 h -8 -8 v 8 8 h -8 -8 v 8 8 h -8 -8 v 8 8 h -8 -8 v 8 8 h -8 -8 v 8 8 h -8 -8 v 8 8 h -8 -8 v 8 8 h -8 -8 v 24 24 h -8 -8 v 8.00003 8 h -8 -8 v 8 8 h -8 -8 v 8 8 h -8 -8 v 8 8 h -8 -8 v 8 8 h -8 -8 v 8 8 h -8 -8 v 8 8 h -8 -8 v 8 8 h -8 -8 v 8 8 h -8 -8 v 8 8 h -8 -8 v 8 8 h -8 -8 v 8 8 h -8 -8 z"
       id="path14" /><path
       style="fill:#000000"
       d="m 289.89685,1145.8818 v -8 h 8 8 v -8 -8 h 8 8 v -8 -8 h 8 8 v -8 -8 h 8 8 v -8 -8 h 8 8 v -8 -8 h 8 8 v -8 -8 h 8 8 v -8 -8 h 8 8 v -8 -8 h 8 8 v 16 16 h -8 -8 v 8 8 h -8 -8 v 8 8 h -8 -8 v 8 8 h -8 -8 v 8 8 h -8 -8 v 8 8 h -8 -8 v 8 8 h -8 -8 v 8 8 h -16 -16 z M -126.1031,721.88177 v -16 h 8 8 v -8 -8 h 8 8 v -8 -8 h 8 8 v -8 -8 h 8 8 v -8 -8 h 8 8 v -8 -8 h 8 8 v -8 -8 h 8 8 v -8 -8 h 16 16 v 8 8 h -8 -8 v 8 8 h -8 -8 v 8 8 h -8 -8 v 8 8 h -8 -8 v 8 8 h -8 -8 v 8 8 h -8 -8 v 8 8 h -8 -8 v 8 8 h -8 -8 v 8 8 h -8 -8 z m 879.99995,-72 v -8 h 8 8 v -8 -8 h 8 8 v -8 -8 h 8 8 v -8 -8 h 8 8 v -8 -8 h 8 8 v 32 32 h -8 -8 v 8 8 h -32 -32 z m -368,-408 v -16 h 16 16 v 8 8 h -8 -8 v 8 8 h -8 -8 z"
       id="path12" /></g></svg>
