<?xml version="1.0" encoding="UTF-8" standalone="no"?>
<svg
   width="16"
   height="16"
   version="1"
   id="svg566"
   xmlns="http://www.w3.org/2000/svg"
   xmlns:svg="http://www.w3.org/2000/svg">
  <defs
     id="defs570" />
  <path
     id="circle18"
     style="stroke-width:0.197347"
     d="m 2.004586,14.491016 a 0.44921699,0.44921699 0 0 1 -0.449217,0.449217 0.44921699,0.44921699 0 0 1 -0.449217,-0.449217 0.44921699,0.44921699 0 0 1 0.449217,-0.449217 0.44921699,0.44921699 0 0 1 0.449217,0.449217 z m 3.943308,0 A 0.44921699,0.44921699 0 0 1 5.498677,14.940233 0.44921699,0.44921699 0 0 1 5.04946,14.491016 0.44921699,0.44921699 0 0 1 5.498677,14.041799 0.44921699,0.44921699 0 0 1 5.947894,14.491016 Z m 0,-3.954785 A 0.44921699,0.44921699 0 0 1 5.498677,10.985448 0.44921699,0.44921699 0 0 1 5.04946,10.536231 0.44921699,0.44921699 0 0 1 5.498677,10.087014 0.44921699,0.44921699 0 0 1 5.947894,10.536231 Z m -3.943308,0 a 0.44921699,0.44921699 0 0 1 -0.449217,0.449217 0.44921699,0.44921699 0 0 1 -0.449217,-0.449217 0.44921699,0.44921699 0 0 1 0.449217,-0.449217 0.44921699,0.44921699 0 0 1 0.449217,0.449217 z m 8.987573,-5.03279 a 0.44921699,0.44921699 0 0 1 -0.449217,0.449217 0.44921699,0.44921699 0 0 1 -0.449217,-0.449217 0.44921699,0.44921699 0 0 1 0.449217,-0.449217 0.44921699,0.44921699 0 0 1 0.449217,0.449217 z m 3.943307,0 a 0.44921699,0.44921699 0 0 1 -0.449217,0.449217 0.44921699,0.44921699 0 0 1 -0.449217,-0.449217 0.44921699,0.44921699 0 0 1 0.449217,-0.449217 0.44921699,0.44921699 0 0 1 0.449217,0.449217 z m 0,-3.954784 A 0.44921699,0.44921699 0 0 1 14.486249,1.997874 0.44921699,0.44921699 0 0 1 14.037032,1.548657 0.44921699,0.44921699 0 0 1 14.486249,1.09944 0.44921699,0.44921699 0 0 1 14.935466,1.548657 Z m -3.943307,0 A 0.44921699,0.44921699 0 0 1 10.542942,1.997874 0.44921699,0.44921699 0 0 1 10.093725,1.548657 0.44921699,0.44921699 0 0 1 10.542942,1.09944 0.44921699,0.44921699 0 0 1 10.992159,1.548657 Z M 10.805495,9.01218 h 3.394084 c 0.995465,0 1.796868,0.801403 1.796868,1.796868 v 3.394084 C 15.996447,15.198597 15.195044,16 14.199579,16 H 10.805495 C 9.81003,16 9.008627,15.198597 9.008627,14.203132 v -3.394084 c 0,-0.995465 0.801403,-1.796868 1.796868,-1.796868 z M 1.800421,0 H 5.194505 C 6.18997,0 6.991373,0.801403 6.991373,1.796868 v 3.394084 c 0,0.995465 -0.801403,1.796868 -1.796868,1.796868 H 1.800421 c -0.995465,0 -1.796868,-0.801403 -1.796868,-1.796868 V 1.796868 C 0.003553,0.801403 0.804956,0 1.800421,0 Z" />
</svg>
