<?xml version="1.0" encoding="UTF-8" standalone="no"?>
<svg
   height="16px"
   viewBox="0 0 16 16"
   width="16px"
   version="1.1"
   id="svg135"
   xml:space="preserve"
   xmlns="http://www.w3.org/2000/svg"
   xmlns:svg="http://www.w3.org/2000/svg"><defs
     id="defs139" /><path
     id="path3"
     style="baseline-shift:baseline;display:inline;overflow:visible;opacity:1;vector-effect:none;stroke-width:0.0251181;stroke-linecap:square;stroke-linejoin:round;shape-rendering:crispEdges;enable-background:accumulate;stop-color:#000000;stop-opacity:1"
     d="m 8,0.0355125 c -0.107835,0 -0.215676,0.02498 -0.314502,0.07438 L 0.388479,3.7581995 C 0.151008,3.8769635 0,4.1216595 0,4.3872045 v 7.2258725 c 0,0.265544 0.151007,0.510239 0.388479,0.629004 l 7.297019,3.648306 c 0.197652,0.0988 0.431352,0.0988 0.629004,0 l 7.296615,-3.648306 C 15.848586,12.123316 16,11.878621 16,11.613077 V 4.3872045 c 0,-0.265545 -0.151412,-0.51024 -0.388883,-0.629005 L 8.314502,0.1098925 C 8.215676,0.0604955 8.107835,0.0355125 8,0.0355125 Z m 0,0.815766 7.196362,3.598181 V 11.550823 L 8,15.149005 0.803638,11.550824 V 4.4494595 Z m -5.034058,4.524305 c -0.194213,0 -0.351692,0.15748 -0.351692,0.351693 v 4.133805 0.5453255 0.05053 c 0,0.166483 0.135083,0.301162 0.301566,0.301162 h 0.05013 10.062052 0.05013 c 0.166483,0 0.301162,-0.134679 0.301162,-0.301162 v -0.05053 -0.5453255 -4.133805 c 0,-0.194213 -0.157075,-0.351693 -0.351288,-0.351693 z m 6.058009,0.892976 h 0.645983 c 0.06935,0 0.125316,0.05634 0.125316,0.12572 v 2.44002 c 0,0.06935 -0.05597,0.125721 -0.125316,0.125721 H 9.023951 c -0.06938,0 -0.12572,-0.05637 -0.12572,-0.125721 v -2.44002 c 0,-0.06938 0.05634,-0.12572 0.12572,-0.12572 z m -5.386963,0.004 h 0.645983 c 0.06938,0 0.12572,0.05634 0.12572,0.125721 v 2.44002 c 0,0.06935 -0.05634,0.12572 -0.12572,0.12572 H 3.636988 c -0.06935,0 -0.12572,-0.05637 -0.12572,-0.12572 v -2.44002 c 0,-0.06938 0.05637,-0.125721 0.12572,-0.125721 z m 1.794442,0 h 0.645578 c 0.06935,0 0.125721,0.05634 0.125721,0.125721 v 2.44002 c 0,0.06935 -0.05637,0.12572 -0.125721,0.12572 H 5.43143 c -0.06935,0 -0.12572,-0.05637 -0.12572,-0.12572 v -2.44002 c 0,-0.06938 0.05637,-0.125721 0.12572,-0.125721 z m 1.794037,0 H 7.87145 c 0.06935,0 0.125316,0.05634 0.125316,0.125721 v 2.44002 c 0,0.06935 -0.05597,0.12572 -0.125316,0.12572 H 7.225467 c -0.06935,0 -0.12572,-0.05637 -0.12572,-0.12572 v -2.44002 c 0,-0.06938 0.05637,-0.125721 0.12572,-0.125721 z" /></svg>
