<?xml version="1.0" encoding="UTF-8" standalone="no"?>
<svg
   width="16"
   height="16"
   version="1.1"
   id="svg10191"
   xmlns="http://www.w3.org/2000/svg"
   xmlns:svg="http://www.w3.org/2000/svg">
  <defs
     id="defs10195" />
  <path
     id="path16"
     style="fill:#000000;stroke-width:0.348792"
     d="m 1.4881352,1.6755281 v 1.115852 h 1.115853 v -1.115852 z m 1.859754,0 v 1.115852 h 1.116548 v -1.115852 z m 1.860448,0 v 1.115852 h 1.11655 v -1.115852 z m 1.860451,0 v 1.115852 h 1.115852 v -1.115852 z m 1.859753,0 v 1.115852 h 1.1165478 v -1.115852 z m 1.8604478,0 v 1.115852 h 1.11655 v -1.115852 z m -9.3008538,1.86045 v 1.115852 h 1.115853 v -1.115852 z m 1.859754,0 v 1.115852 h 1.116548 v -1.115852 z m 1.860448,0 v 1.115852 h 1.11655 v -1.115852 z m 1.860451,0 v 1.115852 h 1.115852 v -1.115852 z m 1.859753,0 v 1.115852 h 1.1165478 v -1.115852 z m 1.8604478,0 v 1.115852 h 1.11655 v -1.115852 z m -3.4981108,6.097586 c -0.196997,-0.07866 -0.422837,0.01596 -0.502366,0.210898 l -0.288957,0.7078529 c -0.07954,0.194833 0.01649,0.418084 0.213487,0.496745 0.196997,0.07866 0.422699,-0.01631 0.502228,-0.210967 l 0.288957,-0.707853 c 0.07954,-0.1948319 -0.01633,-0.4180139 -0.213335,-0.4966759 z m -1.773794,-1.145055 c -0.764932,0.910076 -1.289714,2.0704679 -1.493602,3.1160419 -0.29454,0.635298 -0.461563,1.010702 -0.588594,1.463589 -0.323259,1.014935 0.270649,2.136568 1.355052,2.569539 1.085061,0.433246 2.296425,0.03053 2.775196,-0.922846 0.35018,-0.62919 0.455317,-1.068996 0.59064,-1.426392 0.539461,-1.163133 1.155777,-2.240317 1.139643,-3.3369329 -0.477869,-0.52794 -1.079649,-1.006434 -1.660191,-1.250643 -0.737415,-0.202641 -1.472403,-0.423567 -2.118144,-0.212356 z m 3.133323,1.7040499 c -0.01565,0.818819 -0.490917,1.783267 -1.071356,2.810694 -0.238168,0.478321 -0.370408,1.010286 -0.590085,1.426669 -0.316522,0.632591 -1.151371,0.938842 -1.957802,0.616873 -0.93891,-0.350422 -1.153972,-1.184993 -0.977634,-1.802178 0.207314,-0.618087 0.385259,-1.012055 0.59345,-1.480556 0.161857,-0.888771 0.521834,-1.9147059 1.231594,-2.7099989 0.270586,-0.05441 0.929298,0.0042 1.436837,0.209129 0.507536,0.204861 0.957301,0.50948 1.335029,0.9293679 z M 13.183402,4.0019751 c 0.432691,-0.03258 0.881102,0.08083 1.246306,0.315133 0.365202,0.234309 0.655735,0.595428 0.806466,1.002339 0.171411,0.462637 0.162822,0.999183 -0.0305,1.447558 -0.192813,0.447231 -0.579364,0.819443 -1.032147,0.984713 -0.490221,0.178941 -1.07309,0.135047 -1.652244,0.01353 -0.582105,-0.121896 -1.189574,-0.320511 -1.85558,-0.37072 -1.1382188,-0.08578 -2.2924688,0.308783 -3.1405048,1.072813 l -0.237876,0.214159 0.42832,0.475754 0.237877,-0.214161 c 0.713299,-0.642618 1.706688,-0.982318 2.6640578,-0.910145 0.56524,0.04257 1.145818,0.227311 1.772198,0.358507 0.629328,0.131993 1.333677,0.206457 2.003291,-0.03796 0.629087,-0.2296 1.137664,-0.722703 1.400819,-1.333052 0.262642,-0.609169 0.271412,-1.306681 0.0427,-1.924005 -0.200219,-0.540362 -0.57624,-1.006954 -1.061293,-1.318132 -0.485053,-0.311184 -1.065388,-0.458022 -1.640065,-0.414753 z M 1.2486024e-6,0.18859411 V 6.1411461 H 13.392982 V 0.18859411 l -13.3929807513976,7e-6 z M 0.74407725,0.93267211 l 11.90510375,-7e-6 V 5.3969991 H 0.74407725 Z" />
</svg>
