<?xml version="1.0" encoding="UTF-8" standalone="no"?>
<svg
   height="16px"
   viewBox="0 0 16 16"
   width="16px"
   version="1.1"
   id="svg135"
   xmlns="http://www.w3.org/2000/svg"
   xmlns:svg="http://www.w3.org/2000/svg">
  <defs
     id="defs139" />
  <path
     id="path5-0"
     style="fill:#000000;stroke-width:0.0349233"
     class="st2"
     d="m 5.788877,2.4723134e-4 c 0,0 -4.79943805,-0.15612500134 -5.78906245,5.08007796866 v 3.566406 c 0,0 0.043007,0.382469 1.13476565,1.158203 1.0917551,0.7757338 3.9151066,2.9570318 4.6582031,2.9570318 0.7395771,0 3.5684011,-2.181298 4.6601557,-2.9570318 0.225371,-0.160134 0.396229,-0.299171 0.541016,-0.425781 V 8.6467312 H 9.3962984 L 11.585752,6.6135282 V 5.0803252 C 10.589087,-0.15587777 5.788877,2.4723134e-4 5.788877,2.4723134e-4 Z M 11.585752,6.6135282 v 2.033203 c 0,0 -0.0352,0.245702 -0.591797,0.732422 v 1.0058598 c 0.142042,-0.09983 0.585937,-0.4101568 0.585937,-0.4101568 v 3.1445318 h 0.613282 V 8.6467312 h 1.597656 l -2.197266,-2.041015 z m -0.0059,6.5058598 h -0.585937 v -2.734375 c -0.83484,0.586719 -3.3812476,2.375502 -3.8808596,2.71289 C 6.5319604,13.49616 5.788837,13.5647 5.788837,13.5647 c 0,0 -0.7415519,-0.07201 -1.3261718,-0.466797 C 3.8816104,12.699647 -1.8545e-4,9.9748562 -1.8545e-4,9.9748562 v 5.3984378 c 0,0 0.03197,0.626953 0.7363281,0.626953 H 5.788877 10.843564 c 0.704359,0 0.736328,-0.626953 0.736328,-0.626953 z M 5.788877,2.4494662 c 0,0 2.6214884,0.03398 3.2871094,2.634765 v 1.94336 H 5.788877 2.5037208 v -1.94336 C 3.1693387,2.4834452 5.788877,2.4494662 5.788877,2.4494662 Z m 7.415003,7.008192 v 4.4726778 h -1.598894 l 2.1976,2.042642 2.197599,-2.042642 H 14.401291 V 9.4576582 Z" />
</svg>
