<?xml version="1.0" encoding="UTF-8" standalone="no"?>
<svg
   width="16"
   height="16"
   version="1"
   id="svg566"
   xmlns="http://www.w3.org/2000/svg"
   xmlns:svg="http://www.w3.org/2000/svg">
  <defs
     id="defs570" />
  <path
     id="path1-6"
     style="fill:#000000;stroke-width:0.571415"
     d="m 7.9997603,2.1261891e-4 c -0.03143,0 -0.06373,0.001600001 -0.09687,0.001600001 a 7.9278138,7.9278138 0 0 0 -1.129648,0.09323 8.0815244,8.0815244 0 0 0 -0.928093,0.199993 l -0.182286,0.05208 c -0.05886,0.01886 -0.120203,0.03828 -0.180202,0.05885 l -0.182806,0.06146 c -0.05828,0.02229 -0.118742,0.04319 -0.177598,0.06718 -0.06171,0.02343 -0.123328,0.04725 -0.183327,0.07239 A 7.9518132,7.9518132 0 0 0 3.4322123,1.4309246 c -0.05371,0.036 -0.107588,0.07734 -0.163015,0.115621 -0.0046,0.0046 -0.0093,0.0079 -0.01563,0.0125 -0.10114,0.07428 -0.203269,0.152184 -0.301552,0.233325 -0.052,0.044 -0.104245,0.0871 -0.156244,0.132808 -0.101712,0.084 -0.197641,0.172576 -0.294782,0.264574 l -0.158328,0.15312 c -0.103426,0.103426 -0.203051,0.209179 -0.297906,0.317176 a 8.0643818,8.0643818 0 0 0 5.21e-4,0 c -2.82279095,3.139926 -2.72368595,7.9759414 0.297385,10.9970134 2.211377,2.210233 5.39426,2.856065 8.1741947,1.939515 h 5.21e-4 c 0.158277,-0.176164 0.307467,-0.357543 0.44738,-0.543731 a 7.9958119,7.9958119 0 0 1 -0.446339,0.543731 7.9683841,7.9683841 0 0 0 3.139474,-1.939515 l 0.154162,-0.158328 c 0.09143,-0.09657 0.179903,-0.19307 0.265616,-0.294782 0.04457,-0.052 0.08725,-0.104766 0.131245,-0.156765 0.08114,-0.09828 0.15894,-0.201034 0.234367,-0.301031 a 0.05714151,0.05714151 0 0 1 0.01146,-0.01614 c 0.03943,-0.05486 0.07962,-0.108731 0.115621,-0.163015 a 7.8083878,7.8083878 0 0 0 0.823929,-1.506198 c 0.02514,-0.06 0.04892,-0.122084 0.07291,-0.184368 0.02343,-0.05828 0.04438,-0.118222 0.06667,-0.177077 0.02057,-0.06 0.0426,-0.120052 0.06146,-0.181765 0.02057,-0.06057 0.03942,-0.122388 0.05885,-0.181244 0.01886,-0.06 0.03494,-0.121245 0.05208,-0.181243 0.06971,-0.2457094 0.125215,-0.4935974 0.169785,-0.7421624 a 7.9340991,7.9340991 0 0 0 0.123434,-1.315579 v -0.09739 l 5.2e-4,5.21e-4 v -0.09687 a 1.8559564,1.8559564 0 0 0 -1.857227,-1.76296 1.8576706,1.8576706 0 0 0 -1.858268,1.857748 c 0,0.04553 -0.0016,0.08892 -0.0042,0.132287 0.0014,-0.04115 0.0025,-0.08341 0.0026,-0.124475 -1.15e-4,0.0448 -0.0014,0.08843 -0.0047,0.131766 -0.0029,0.131997 -0.01421,0.26174 -0.03021,0.393737 a 3.5353454,3.5353454 0 0 0 0.0047,-0.03489 c -0.0013,0.01139 -0.0028,0.02244 -0.0042,0.03385 a 4.3090417,4.3090417 0 0 1 -0.306761,1.14371 c -0.02571,0.06228 -0.05424,0.122236 -0.08281,0.182806 a 3.2570663,3.2570663 0 0 1 -0.09166,0.1807234 3.8627663,3.8627663 0 0 1 -0.208847,0.346863 c -0.04,0.05657 -0.07932,0.113419 -0.118745,0.167703 A 4.2827564,4.2827564 0 1 1 8.0017713,3.7167886 c 0.03943,0 0.07791,-0.002 0.115621,-0.0031 0.151997,-0.0097 0.297539,-0.03631 0.436964,-0.07916 l 5.21e-4,-5.2e-4 c 2.15e-4,-1.2e-4 0.0013,-9.59e-4 0.0016,-10e-4 h 5.21e-4 5.2e-4 c 4.29e-4,-2.7e-5 0.0017,0 0.0021,0 0.03428,-0.01086 0.06946,-0.02446 0.102601,-0.03646 0.03314,-0.01314 0.06628,-0.02701 0.1,-0.03958 a 1.851385,1.851385 0 0 0 0.09739,-0.04948 7.9026714,7.9026714 0 0 1 5.21e-4,0 h 10e-4 c 0.05543,-0.02943 0.109382,-0.06126 0.161452,-0.09583 0.05207,-0.03457 0.102231,-0.07174 0.150516,-0.111455 0.03314,-0.02514 0.06331,-0.05372 0.09531,-0.08229 a 1.8439567,1.8439567 0 0 0 0.221867,-0.246866 1.9542398,1.9542398 0 0 0 0.154682,-0.245825 1.4542515,1.4542515 0 0 0 0.06875,-0.142703 c 0.01086,-0.02857 0.02362,-0.05726 0.03333,-0.08698 a 1.1885435,1.1885435 0 0 0 0.04271,-0.132808 c 0.0091,-0.032 0.01772,-0.06383 0.02344,-0.09583 0.0034,-0.0091 0.0078,-0.02024 0.0078,-0.03281 0.0074,-0.03657 0.0147,-0.07265 0.01927,-0.110933 0.0051,-0.03657 0.0098,-0.07129 0.01146,-0.107288 0.0029,-0.01771 0.0042,-0.03546 0.0042,-0.0526 0.0017,-0.03429 0.0036,-0.06884 0.0036,-0.103121 A 1.8565278,1.8565278 0 0 0 8.0965583,0.00188062 Z M 5.4191213,2.3042986 a 8.0643818,8.0643818 0 0 1 0.242179,0.03958 8.0243829,8.0243829 0 0 0 -0.242179,-0.03958 z m -2.116593,0.0526 a 8.0243829,8.0243829 0 0 0 -0.175515,0.03854 8.0643818,8.0643818 0 0 1 0.175515,-0.03854 z m 3.139995,0.126558 a 8.0643818,8.0643818 0 0 1 0.06771,0.01198 7.9043855,7.9043855 0 0 1 0.73487,0.226033 8.0243829,8.0243829 0 0 0 -0.802576,-0.238012 z m 1.633797,3.393632 a 1.3976814,1.3976814 0 0 0 -0.667685,2.661886 v 0.996319 a 0.59198608,0.59198608 0 0 0 0.63227,0.5906054 0.59198608,0.59198608 0 0 0 0.552064,-0.5906054 v -0.996319 c 0.474274,-0.223423 0.80518,-0.705022 0.80518,-1.265581 a 1.3976814,1.3976814 0 0 0 -1.321829,-1.396305 z m 4.2040197,2.262421 10e-4,0.0031 a 7.9958119,7.9958119 0 0 1 0.0042,0.02135 c -0.0019,-0.007 -0.0028,-0.01431 -0.0047,-0.02135 l -5.21e-4,-10e-4 c 2.3e-5,-6.39e-4 -2.2e-5,-0.0014 0,-0.0021 z m 0.182806,0.88799 a 7.9958119,7.9958119 0 0 1 0.03281,0.226034 c -0.0095,-0.07552 -0.02117,-0.150759 -0.03281,-0.226034 z m 0.09635,1.0848584 a 7.9958119,7.9958119 0 0 1 -0.0031,0.21718 c 6.85e-4,-0.07242 0.0044,-0.144773 0.0031,-0.21718 z m -0.04479,0.968716 a 7.9958119,7.9958119 0 0 1 -0.0073,0.129683 7.9958119,7.9958119 0 0 1 -0.0099,0.05416 c 0.0078,-0.06112 0.01084,-0.122602 0.01719,-0.183848 z m -0.178639,1.04788 a 7.9958119,7.9958119 0 0 1 -0.05469,0.209368 c 0.01877,-0.06971 0.03783,-0.139278 0.05469,-0.209368 z" />
</svg>
