<?xml version="1.0" encoding="UTF-8" standalone="no"?>
<svg
   width="16"
   height="16"
   version="1"
   id="svg566"
   xmlns="http://www.w3.org/2000/svg"
   xmlns:svg="http://www.w3.org/2000/svg">
  <defs
     id="defs570" />
  <path
     fill="#333333"
     d="m 3.5229511,11.037619 c 0.015844,0.01959 0.031688,0.03895 0.047751,0.05831 0.010342,0.01254 0.020685,0.02487 0.031248,0.03719 0.1280704,0.152716 0.2634025,0.301472 0.4068766,0.444946 L 13.600686,1.9862086 c -0.477294,-0.4772935 -1.0085,-0.8683263 -1.573374,-1.17353883 -0.01012,-0.005502 -0.02046,-0.0112228 -0.03059,-0.0165047 -0.02883,-0.0154029 -0.05787,-0.0305873 -0.08714,-0.0455508 -0.01276,-0.006602 -0.02553,-0.0129834 -0.03807,-0.0193646 -0.02949,-0.0149637 -0.05919,-0.0299272 -0.0889,-0.0444507 0,0 0,0 0,0 v 0 C 11.26043,0.43175848 10.712279,0.24779483 10.152686,0.13490787 v 0 c 0,0 0,0 0,0 C 10.045741,0.11334288 9.9383557,0.0944183 9.83075,0.07791433 c 0,0 0,0 -2.292e-4,0 -0.053693,-0.0081426 -0.1076056,-0.0156244 -0.1615183,-0.02266531 0,0 -2.292e-4,0 -2.292e-4,0 C 9.6148605,0.04842791 9.5607278,0.042046 9.5065948,0.03654443 v 0 0 C 9.3248316,0.01783983 9.1426284,0.00595712 8.9602051,0.00177603 8.9170747,8.9761501e-4 8.8739445,4.5840554e-4 8.8310343,2.2925277e-4 8.822233,2.2925277e-4 8.8136512,1e-7 8.8048481,1e-7 c -0.0066,0 -0.013423,2.2915277e-4 -0.020025,2.2915277e-4 -0.039169,2.2915277e-4 -0.078559,6.6836224e-4 -0.117728,0.001317627 -0.021125,4.3921e-4 -0.04225,0.00110757 -0.063375,0.00175684 -0.022665,6.6836e-4 -0.045111,0.00154678 -0.067776,0.00242138 -0.04049,0.00154678 -0.080759,0.00352131 -0.1210288,0.00594079 -0.012323,6.6836e-4 -0.024646,0.0015468 -0.036969,0.0021999 -0.3320588,0.02090504 -0.6627974,0.06579568 -0.989575,0.13533228 v 0 c 0,0 0,0 0,0 -0.048412,0.0103424 -0.096603,0.021125 -0.1447944,0.0325676 -0.00308,6.6837e-4 -0.00616,0.001318 -0.00924,0.0022 -0.046431,0.0110032 -0.092862,0.0226653 -0.139293,0.0345482 -0.0044,0.001108 -0.0088,0.0022 -0.013423,0.003521 -0.045551,0.0118835 -0.091102,0.024426 -0.1364324,0.037409 -0.00484,0.001318 -0.00968,0.002641 -0.014744,0.00418 -0.045331,0.0129834 -0.090661,0.0266264 -0.1357722,0.0404898 -0.00462,0.001318 -0.00924,0.002861 -0.013864,0.00418 -0.045551,0.0143029 -0.091102,0.0288269 -0.1364324,0.0440105 -0.00396,0.001318 -0.0077,0.002641 -0.011664,0.003961 -0.045991,0.0156244 -0.091982,0.0314674 -0.1377527,0.0479714 -0.00286,0.001108 -0.00572,0.0022 -0.0088,0.00308 -0.046651,0.0169439 -0.093302,0.034328 -0.1397334,0.0523725 -0.00155,6.6836e-4 -0.00308,0.001318 -0.00484,0.001757 -0.047752,0.018485 -0.095283,0.037629 -0.142594,0.0572137 0,0 0,0 0,0 v 0 C 5.4662141,0.82321194 4.7759099,1.2615562 4.1657049,1.8343523 v 0 c 0,0 0,0 0,0 -0.020685,0.019365 -0.04115,0.038949 -0.061615,0.058534 -0.032128,0.030807 -0.064035,0.061835 -0.095723,0.093302 C 3.9769,2.0176558 3.9458728,2.0495635 3.9152854,2.0816911 3.3633943,2.6553674 2.9323119,3.302101 2.6218181,3.9902046 v 0 c 0,0 0,0 0,0 -0.045331,0.1005639 -0.088241,0.2017879 -0.1282906,0.3041123 -0.00396,0.0099 -0.00792,0.020025 -0.011662,0.029927 -0.011883,0.030807 -0.023766,0.061615 -0.035428,0.092642 0,0 0,0 0,0 v 0 C 2.0969941,5.3582697 1.9636425,6.3614881 2.0461621,7.350183 c 0,0 0,0 0,0 v 0 c 0.025306,0.3014717 0.070197,0.601843 0.1355521,0.8984735 0.0088,0.039829 0.018044,0.079439 0.027506,0.1192683 0.00418,0.017385 0.00836,0.034548 0.012542,0.051932 0.00902,0.036088 0.018265,0.072177 0.027727,0.1082657 0.00594,0.022665 0.012103,0.045111 0.018485,0.067556 0.00506,0.018044 0.010123,0.036089 0.015403,0.054133 0.012323,0.04291 0.024866,0.0856 0.038069,0.1282904 0.00264,0.00858 0.00528,0.017163 0.00792,0.025746 0.017383,0.055893 0.035428,0.1115666 0.054353,0.1670197 0,0 0,0 0,0 v 0 c 0.2367763,0.6962455 0.5895201,1.3616844 1.0588916,1.9659474 0.026626,0.03367 0.053253,0.06734 0.080319,0.100784 z M 4.3492475,2.4852871 4.9249043,2.8690584 V 4.0049683 L 4.3492475,4.3887395 3.7735907,4.7725108 3.197934,4.3887395 2.9882241,4.2490063 C 3.2859548,3.5642035 3.6998732,2.9432161 4.2205169,2.3994668 Z M 8.824451,0.44012122 9.0392219,0.58337531 V 1.7192852 L 8.4635652,2.1030563 7.8879084,2.4868276 6.8723671,1.8097266 6.7365948,1.7192852 V 0.78516322 C 7.4009326,0.55608875 8.0951977,0.43990123 8.8048662,0.43990123 c 0.00638,-2.2915e-4 0.012984,0 0.019585,2.2915e-4 z M 10.850912,4.0049683 V 2.8690584 l 0.575657,-0.3837713 0.575657,-0.3837711 0.516243,0.3441617 -1.602641,1.602641 z M 7.9420411,7.0223254 7.8879084,7.0584139 6.7363747,6.2908715 V 5.1549616 L 6.9779922,4.9938832 7.8876884,4.3874191 8.4633452,4.7711905 9.0390019,5.1549616 v 0.770183 z M 3.9934229,10.862458 V 9.7265478 L 4.5690797,9.3427767 5.1447364,8.9590056 5.6609793,9.3031673 4.0583385,10.905808 Z M 5.9406657,8.9603259 5.3650088,8.5765546 V 7.4406447 L 5.9406657,7.0568736 6.5163225,6.6731023 7.0919793,7.0568736 7.5811555,7.382991 5.9785147,8.9856318 Z M 10.410808,4.0049683 9.835151,4.3887395 9.2594943,4.7725108 8.1081807,4.0049683 V 2.8690584 L 9.2594943,2.101516 9.835151,2.4852871 10.410808,2.8690584 Z m 0.05875,0.4898364 -0.9902354,0.9902354 V 5.1549616 L 10.054983,4.7711905 Z M 6.5163225,2.101516 7.0919793,2.4852871 7.667636,2.8690584 V 4.0049683 L 7.0919793,4.3887395 6.5163225,4.7725108 5.9406657,4.3887395 5.3650088,4.0049683 V 2.8690584 L 5.9406657,2.4852871 Z M 5.7206134,4.7709703 6.2962702,5.1549616 V 6.2908715 L 5.1449566,7.0584139 4.5692999,6.6746428 3.9936429,6.2908715 V 5.1549616 L 4.5692999,4.7711905 5.1449566,4.3874191 Z M 4.3492475,7.0568736 4.9249043,7.4406447 V 8.5765546 L 4.3492475,8.9603259 3.7735907,9.344097 3.197934,8.9603259 2.7452864,8.6584141 C 2.6986353,8.5072382 2.6574856,8.354742 2.6222772,8.2009255 V 7.4404247 L 3.197934,7.0566534 3.7735907,6.6728823 Z M 3.5533184,9.7265478 V 10.341374 C 3.3436085,10.032861 3.1622854,9.7067433 3.0100092,9.3643419 Z M 12.836004,2.1283624 12.222278,1.7192852 V 1.4376183 c 0.260982,0.1672397 0.509641,0.3538441 0.745317,0.5593729 z M 11.191553,0.90421152 c 0.202448,0.0820795 0.399395,0.17406138 0.590841,0.27572538 V 1.7192852 L 11.206737,2.1030563 10.63108,2.4868276 10.055423,2.1030563 9.4797666,1.7192852 V 0.58337531 l 0.1375327,-0.0917619 c 0.5393477,0.0688765 1.0663737,0.20662915 1.5742537,0.41259811 z M 6.2962702,0.95526371 V 1.7192852 L 5.7206134,2.1030563 5.1449566,2.4868276 4.5692999,2.1030563 4.5426734,2.085232 C 5.0637573,1.6112395 5.6521771,1.2320894 6.2962702,0.95526371 Z M 2.9776616,4.7709703 3.5533184,5.1547416 v 1.1359099 l -1.0863982,0.724412 c -0.00286,-0.077458 -0.00462,-0.1551368 -0.00462,-0.2330354 0,-0.7259523 0.1214687,-1.435621 0.3611058,-2.1140423 z"
     id="path1-4"
     style="fill:#000000;stroke-width:0.0220052;opacity:0.6" />
  <path
     fill="#ed6b21"
     d="m 13.444449,11.857534 c 0.0068,-0.01628 0.01386,-0.03279 0.02069,-0.04907 0.01122,-0.02729 0.02222,-0.05457 0.03323,-0.08186 0.0066,-0.01651 0.01298,-0.03301 0.01936,-0.04973 0.33822,-0.871187 0.489837,-1.7978268 0.454848,-2.7189657 -4.39e-4,-0.00924 -6.68e-4,-0.018705 -0.0011,-0.028167 -0.0018,-0.04115 -0.004,-0.0823 -0.0064,-0.1234494 -2.29e-4,-0.00418 -4.39e-4,-0.00836 -6.69e-4,-0.012542 -0.0026,-0.043791 -0.0059,-0.087581 -0.0095,-0.1311512 0,0 0,0 0,0 v 0 c -0.02729,-0.3335992 -0.079,-0.6654382 -0.155357,-0.9928759 v 0 c 0,0 0,0 0,0 -0.01276,-0.054793 -0.02619,-0.1095861 -0.04049,-0.1641592 0,0 0,0 0,0 -0.01408,-0.054353 -0.02883,-0.1082657 -0.04423,-0.1623984 -2.29e-4,-4.392e-4 -2.29e-4,-0.00111 -4.39e-4,-0.00155 -0.0154,-0.053473 -0.03147,-0.1069454 -0.04797,-0.160198 -2.29e-4,-8.785e-4 -4.39e-4,-0.00155 -6.69e-4,-0.00242 -0.01694,-0.053693 -0.03433,-0.1071654 -0.05259,-0.160638 0,0 0,0 0,0 v 0 C 13.375549,6.3227726 13.021705,5.6582147 12.551454,5.0548314 c -0.02421,-0.031028 -0.04885,-0.061835 -0.07372,-0.092642 -0.0176,-0.021785 -0.03543,-0.04357 -0.05347,-0.065136 -0.0097,-0.011662 -0.01936,-0.023105 -0.02905,-0.034548 -0.126968,-0.1513957 -0.2612,-0.2986107 -0.403573,-0.4409845 l -0.113547,0.1135469 v 0 l -0.317316,0.3173153 v 0 L 9.7158598,6.6970816 9.640602,6.7723394 v 0 L 8.3136866,8.0992548 v 0 L 7.8735821,8.5393593 v 0 l -0.058094,0.058094 v 0 L 7.1529108,9.2600306 5.0208242,11.392117 v 0 l -0.2385368,0.238537 -1.6816395,1.681639 v 0 l -0.3043324,0.304333 -0.3967542,0.396755 c 0.4167791,0.416779 0.8742677,0.767763 1.359483,1.05339 0.039169,0.02311 0.078339,0.04555 0.117948,0.06778 0.018924,0.01056 0.037849,0.0209 0.056774,0.03125 0.024866,0.01363 0.049732,0.02729 0.074818,0.04049 0.019584,0.01035 0.039169,0.02091 0.058754,0.03103 0.027506,0.0143 0.055013,0.02817 0.08252,0.04203 0.6370514,0.320176 1.3141522,0.533628 2.0046763,0.640352 0,0 0,0 0,0 0.053693,0.0084 0.1073854,0.01585 0.1610782,0.02289 0,0 2.292e-4,0 2.292e-4,0 0.053913,0.007 0.1076055,0.01342 0.1615183,0.01914 0,0 0,0 0,0 v 0 c 0.1951864,0.02069 0.3912529,0.03301 0.5873195,0.03675 0.031688,5.73e-4 0.063155,9.55e-4 0.094842,0.0011 0.011884,0 0.023766,3.82e-4 0.035649,3.82e-4 0.00902,0 0.018263,-1.91e-4 0.027287,-1.91e-4 0.032788,-1.91e-4 0.065355,-3.82e-4 0.098143,-0.0011 0.024426,-3.82e-4 0.049072,-0.0011 0.073498,-0.0017 0.014522,-3.82e-4 0.028827,-0.0011 0.04335,-0.0015 0.048412,-0.0017 0.096823,-0.004 0.1450146,-0.0066 0.00572,-3.82e-4 0.011442,-5.73e-4 0.017385,-0.0011 0.3302985,-0.01959 0.6594967,-0.06338 0.984734,-0.130932 v 0 c 0,0 0,0 0,0 0.050612,-0.01056 0.1014442,-0.02178 0.1518361,-0.03345 8.784e-4,-1.91e-4 0.00176,-3.82e-4 0.00264,-5.73e-4 0.049732,-0.01167 0.099464,-0.02376 0.1489754,-0.03653 0.00176,-3.82e-4 0.0033,-9.55e-4 0.00506,-0.0013 0.048851,-0.01255 0.097483,-0.02575 0.1461147,-0.03939 0.00242,-5.73e-4 0.00462,-0.0013 0.00704,-0.002 0.047971,-0.01363 0.095943,-0.02773 0.1439142,-0.04247 0.00286,-9.55e-4 0.0055,-0.0017 0.00836,-0.0026 0.047531,-0.01474 0.094843,-0.02971 0.1421538,-0.04555 0.00286,-9.55e-4 0.00572,-0.002 0.00858,-0.0029 0.047311,-0.01585 0.094403,-0.03213 0.1412737,-0.04885 0.00264,-9.55e-4 0.00528,-0.002 0.0077,-0.0029 0.047311,-0.01717 0.094622,-0.03455 0.1417136,-0.05281 0.00176,-5.73e-4 0.0033,-0.0013 0.00506,-0.002 0.8157341,-0.315336 1.5826161,-0.794389 2.2504751,-1.436723 0.03213,-0.03059 0.06404,-0.06161 0.0955,-0.09308 0.03147,-0.03147 0.0625,-0.06359 0.0933,-0.09572 0.0198,-0.02069 0.03961,-0.04137 0.05919,-0.06227 v 0 0 c 0.563774,-0.600522 0.997057,-1.278284 1.300949,-1.998075 z M 13.003684,11.228625 12.428027,10.844854 V 9.7089437 L 13.003684,9.3251726 13.53269,8.9724288 c 0.0031,0.081639 0.0051,0.1632788 0.0051,0.2451381 0,0.7294734 -0.122789,1.4426631 -0.364626,2.1239451 z m -5.8472295,4.33063 -0.214551,-0.143035 v -1.135911 l 0.5756568,-0.38377 0.5756569,-0.383771 0.5756568,0.383771 0.5760969,0.38377 v 0.940504 c -0.6586165,0.224674 -1.3465001,0.338881 -2.049347,0.338881 -0.013203,1.91e-4 -0.026186,-1.91e-4 -0.039169,-3.82e-4 z M 8.0938774,8.9414013 8.669094,9.3249525 9.2449709,9.7087238 V 10.844634 L 8.669314,11.228405 8.0936572,11.612176 7.5180004,11.228405 6.9423437,10.844634 v -0.751479 z m 1.3711457,2.2856827 0.5756569,0.383772 0.575657,0.383771 v 1.13591 L 10.04068,13.514308 9.4650231,13.898079 8.8893663,13.514308 8.3137096,13.130537 v -1.13591 l 0.5756567,-0.383771 z m -3.8944855,0.767543 0.575657,-0.383771 0.5756567,-0.383772 0.5756568,0.383772 0.5756568,0.383771 v 1.13591 L 7.2975081,13.514308 6.7218513,13.898079 6.1461946,13.514308 5.5705376,13.130537 Z M 5.5681162,11.467382 6.502018,10.53348 v 0.311374 l -0.5756567,0.383771 z m 4.1169583,2.812927 0.5756565,-0.38377 0.575657,-0.383771 0.575657,0.383771 0.03763,0.02508 c -0.524165,0.475314 -1.116326,0.854463 -1.7648195,1.13063 v -0.77194 z M 10.260731,11.228625 9.6850745,10.844634 V 9.7087238 l 0.5756565,-0.3837713 0.575657,-0.3837712 0.575657,0.3837712 0.575657,0.3837713 v 1.1359102 l -0.575657,0.383771 -0.575657,0.383771 z M 11.632097,8.9427216 11.05644,8.5589505 V 7.4230406 l 0.575657,-0.3837713 0.575657,-0.3837711 0.575657,0.3837711 0.476413,0.3175355 c 0.03653,0.1194884 0.06998,0.2396369 0.09924,0.3608858 V 8.5589505 L 12.783411,8.9427216 12.207754,9.3264929 Z M 12.997962,6.6530776 12.428026,6.2730472 V 5.6309348 c 0.221153,0.3219363 0.411498,0.6632374 0.569936,1.0221428 z m -1.01004,-1.5159403 v 1.1359099 l -0.575657,0.3837713 -0.575657,0.3837711 -0.50502,-0.33668 1.602641,-1.6026408 z m -1.947243,1.902132 0.575657,0.3837713 V 8.5589505 L 10.040679,8.9427216 9.4650221,9.3264929 8.8893654,8.9427216 8.4114119,8.624086 10.014053,7.021445 Z m -4.9639396,4.9194887 0.053693,0.03587 v 1.13591 L 4.5547756,13.514309 3.9791188,13.89808 3.4740988,13.5614 Z m -1.9201763,1.919957 0.6025032,0.401594 v 0.269786 C 3.5049059,14.385935 3.2626284,14.203513 3.0326738,14.002824 Z m 1.0426077,0.930821 v -0.529005 l 0.5756569,-0.383772 0.5756568,-0.383771 0.5756568,0.383771 0.5756567,0.383772 V 15.41644 L 6.3673461,15.506 C 5.833059,15.436466 5.3113152,15.299373 4.8084956,15.095604 4.599666,15.010663 4.3963376,14.915162 4.1991708,14.809536 Z M 11.632097,13.514308 11.05644,13.130537 v -1.13591 l 0.575657,-0.383771 0.575657,-0.383772 0.575657,0.383772 0.224013,0.149415 c -0.298831,0.684143 -0.71363,1.30447 -1.235374,1.847559 z"
     id="path2-8"
     style="fill:#000000;stroke-width:0.0220052" />
</svg>
