<?xml version="1.0" encoding="UTF-8" standalone="no"?>
<svg
   width="16"
   height="16"
   version="1"
   id="svg566"
   xmlns="http://www.w3.org/2000/svg"
   xmlns:svg="http://www.w3.org/2000/svg">
  <defs
     id="defs570" />
  <path
     id="circle15-6"
     style="opacity:1;fill:#000000;stroke-width:0.0167307"
     d="M 5.0732426,1.8518502e-7 A 2.2467558,2.2467558 0 0 0 2.8271486,2.246094 a 2.2467558,2.2467558 0 0 0 2.246094,2.2480468 2.2467558,2.2467558 0 0 0 0.373047,-0.035156 l 1.070312,2.2851562 a 2.9404078,2.9404078 0 0 0 -1.205078,2.3632813 2.9404078,2.9404078 0 0 0 0.294922,1.2714837 l -1.748047,1.378906 a 2.1749814,2.1749814 0 0 0 -1.294922,-0.427734 2.1749814,2.1749814 0 0 0 -2.17382803,2.173828 2.1749814,2.1749814 0 0 0 2.17382803,2.175782 2.1749814,2.1749814 0 0 0 2.175781,-2.175782 2.1749814,2.1749814 0 0 0 -0.144531,-0.777344 l 1.7421875,-1.390624 a 2.9404078,2.9404078 0 0 0 1.9160156,0.710937 2.9404078,2.9404078 0 0 0 1.7558593,-0.589844 l 1.255859,1.179688 A 2.3046439,2.3046439 0 0 0 11.000977,13.695312 2.3046439,2.3046439 0 0 0 13.305664,16 a 2.3046439,2.3046439 0 0 0 2.304688,-2.304688 2.3046439,2.3046439 0 0 0 -2.304688,-2.304687 2.3046439,2.3046439 0 0 0 -1.25,0.367187 L 10.786133,10.585938 A 2.9404078,2.9404078 0 0 0 11.192383,9.1074221 2.9404078,2.9404078 0 0 0 11.05957,8.2285158 1.8659668,1.8659668 0 0 0 12.241211,8.6562502 1.8659668,1.8659668 0 0 0 14.108398,6.7890627 1.8659668,1.8659668 0 0 0 12.241211,4.9238283 1.8659668,1.8659668 0 0 0 10.375977,6.7890627 1.8659668,1.8659668 0 0 0 10.407227,7.1074221 2.9404078,2.9404078 0 0 0 8.2529297,6.1660158 2.9404078,2.9404078 0 0 0 7.5302735,6.261719 L 6.4970704,3.980469 A 2.2467558,2.2467558 0 0 0 7.3212891,2.246094 2.2467558,2.2467558 0 0 0 5.0732426,1.8518502e-7 Z" />
</svg>
