<?xml version="1.0" encoding="UTF-8" standalone="no"?>
<svg
   height="16px"
   viewBox="0 0 16 16"
   width="16px"
   version="1.1"
   id="svg16"
   sodipodi:docname="qbittorrent-symbolic.svg"
   inkscape:version="1.4 (e7c3feb100, 2024-10-09)"
   xmlns:inkscape="http://www.inkscape.org/namespaces/inkscape"
   xmlns:sodipodi="http://sodipodi.sourceforge.net/DTD/sodipodi-0.dtd"
   xmlns="http://www.w3.org/2000/svg"
   xmlns:svg="http://www.w3.org/2000/svg">
  <sodipodi:namedview
     id="namedview1"
     pagecolor="#ffffff"
     bordercolor="#000000"
     borderopacity="0.25"
     inkscape:showpageshadow="2"
     inkscape:pageopacity="0.0"
     inkscape:pagecheckerboard="0"
     inkscape:deskcolor="#d1d1d1"
     showgrid="true"
     inkscape:zoom="1"
     inkscape:cx="37"
     inkscape:cy="10.5"
     inkscape:window-width="1704"
     inkscape:window-height="996"
     inkscape:window-x="0"
     inkscape:window-y="0"
     inkscape:window-maximized="1"
     inkscape:current-layer="svg16">
    <inkscape:grid
       id="grid10"
       units="px"
       originx="0"
       originy="0"
       spacingx="1"
       spacingy="1"
       empcolor="#0099e5"
       empopacity="0.30196078"
       color="#0099e5"
       opacity="0.14901961"
       empspacing="5"
       enabled="true"
       visible="true" />
  </sodipodi:namedview>
  <defs
     id="defs16">
    <rect
       x="0"
       y="0"
       width="16"
       height="16"
       id="rect10" />
    <rect
       x="0"
       y="0"
       width="14.643338"
       height="17.600001"
       id="rect9" />
  </defs>
  <filter
     id="a"
     height="1"
     width="1"
     x="0"
     y="0">
    <feColorMatrix
       color-interpolation-filters="sRGB"
       values="0 0 0 0 1 0 0 0 0 1 0 0 0 0 1 0 0 0 1 0"
       id="feColorMatrix1" />
  </filter>
  <mask
     id="b">
    <g
       filter="url(#a)"
       id="g1">
      <rect
         fill-opacity="0.1"
         height="19.2"
         width="19.2"
         x="-1.6"
         y="-1.6"
         id="rect1" />
    </g>
  </mask>
  <clipPath
     id="c">
    <rect
       height="152"
       width="192"
       id="rect2" />
  </clipPath>
  <mask
     id="d">
    <g
       filter="url(#a)"
       id="g3">
      <rect
         fill-opacity="0.1"
         height="19.2"
         width="19.2"
         x="-1.6"
         y="-1.6"
         id="rect3" />
    </g>
  </mask>
  <clipPath
     id="e">
    <path
       d="m 0 20 h 110 v 124 h -110 z m 0 0"
       id="path3" />
  </clipPath>
  <clipPath
     id="f">
    <rect
       height="152"
       width="192"
       id="rect4" />
  </clipPath>
  <mask
     id="g">
    <g
       filter="url(#a)"
       id="g5">
      <rect
         fill-opacity="0.1"
         height="19.2"
         width="19.2"
         x="-1.6"
         y="-1.6"
         id="rect5" />
    </g>
  </mask>
  <clipPath
     id="h">
    <rect
       height="152"
       width="192"
       id="rect6" />
  </clipPath>
  <mask
     id="i">
    <g
       filter="url(#a)"
       id="g7">
      <rect
         fill-opacity="0.6"
         height="19.2"
         width="19.2"
         x="-1.6"
         y="-1.6"
         id="rect7" />
    </g>
  </mask>
  <clipPath
     id="j">
    <rect
       height="152"
       width="192"
       id="rect8" />
  </clipPath>
  <g
     mask="url(#b)"
     id="g9">
    <g
       clip-path="url(#c)"
       transform="matrix(1 0 0 1 -168 -16)"
       id="g8">
      <path
         d="m 72 26 c -29.824219 0 -54 24.175781 -54 54 c 0.007812 0.390625 0.023438 0.78125 0.042969 1.171875 c 0.453125 -29.484375 24.46875 -53.152344 53.957031 -53.171875 c 29.355469 0.015625 53.320312 23.480469 53.957031 52.828125 c 0.015625 -0.277344 0.03125 -0.550781 0.042969 -0.828125 c 0 -29.824219 -24.175781 -54 -54 -54 z m 0 0"
         id="path8" />
    </g>
  </g>
  <g
     mask="url(#d)"
     id="g12">
    <g
       clip-path="url(#f)"
       transform="matrix(1 0 0 1 -168 -16)"
       id="g11">
      <path
         d="m -626.011292 393.5513 v 56"
         fill="none"
         stroke="#000000"
         stroke-width="8"
         transform="matrix(1 0 0 1 690.011292 -331.5513)"
         id="path9" />
      <g
         clip-path="url(#e)"
         id="g10">
        <path
           d="m -626.011292 413.5513 c 0 8.835938 -7.164062 16 -16 16 c -8.835937 0 -16 -7.164062 -16 -16 c 0 -8.835937 7.164063 -16 16 -16 c 8.835938 0 16 7.164063 16 16 z m 0 0"
           fill="none"
           stroke="#000000"
           stroke-width="8"
           transform="matrix(1 0 0 1 690.011292 -331.5513)"
           id="path10" />
      </g>
    </g>
  </g>
  <g
     mask="url(#g)"
     id="g14"
     inkscape:label="g14">
    <g
       clip-path="url(#h)"
       fill="none"
       stroke="#000000"
       stroke-width="8"
       transform="matrix(1 0 0 1 -168 -16)"
       id="g13">
      <path
         d="m -610.011292 377.5513 v 56"
         transform="matrix(1 0 0 1 690.011292 -331.5513)"
         id="path12" />
      <path
         d="m -578.011292 413.5513 c 0 8.835938 -7.164062 16 -16 16 c -8.835937 0 -16 -7.164062 -16 -16 c 0 -8.835937 7.164063 -16 16 -16 c 8.835938 0 16 7.164063 16 16 z m 0 0"
         transform="matrix(1 0 0 1 690.011292 -331.5513)"
         id="path13" />
    </g>
  </g>
  <rect
     style="opacity:1;fill:#000000"
     id="rect11"
     width="2"
     height="11"
     x="8"
     y="1" />
  <path
     id="rect12"
     style="opacity:0.6;fill:#000000"
     d="M 3.5 4 A 3.5 4 0 0 0 0 8 A 3.5 4 0 0 0 3.5 12 A 3.5 4 0 0 0 6 10.785156 L 6 15 L 8 15 L 8 4 L 6 4 L 6 5.2011719 A 3.5 4 0 0 0 3.5 4 z M 4 6 A 2 2 0 0 1 6 8 A 2 2 0 0 1 4 10 A 2 2 0 0 1 2 8 A 2 2 0 0 1 4 6 z " />
  <path
     id="path14"
     style="opacity:1;fill:#000000;stroke-width:1.08012"
     d="M 12.5,4 A 3.5,4 0 0 0 9,8 3.5,4 0 0 0 12.5,12 3.5,4 0 0 0 16,8 3.5,4 0 0 0 12.5,4 Z M 12,6 a 2,2 0 0 1 2,2 2,2 0 0 1 -2,2 2,2 0 0 1 -2,-2 2,2 0 0 1 2,-2 z" />
</svg>
