<?xml version="1.0" encoding="UTF-8" standalone="no"?>
<svg
   height="16px"
   viewBox="0 0 16 16"
   width="16px"
   version="1.1"
   id="svg16"
   xmlns="http://www.w3.org/2000/svg"
   xmlns:svg="http://www.w3.org/2000/svg">
  <defs
     id="defs16" />
  <filter
     id="a"
     height="1"
     width="1"
     x="0"
     y="0">
    <feColorMatrix
       color-interpolation-filters="sRGB"
       values="0 0 0 0 1 0 0 0 0 1 0 0 0 0 1 0 0 0 1 0"
       id="feColorMatrix1" />
  </filter>
  <mask
     id="b">
    <g
       filter="url(#a)"
       id="g1">
      <rect
         fill-opacity="0.1"
         height="19.2"
         width="19.2"
         x="-1.6"
         y="-1.6"
         id="rect1" />
    </g>
  </mask>
  <clipPath
     id="c">
    <rect
       height="152"
       width="192"
       id="rect2" />
  </clipPath>
  <mask
     id="d">
    <g
       filter="url(#a)"
       id="g3">
      <rect
         fill-opacity="0.1"
         height="19.2"
         width="19.2"
         x="-1.6"
         y="-1.6"
         id="rect3" />
    </g>
  </mask>
  <clipPath
     id="e">
    <path
       d="m 0 20 h 110 v 124 h -110 z m 0 0"
       id="path3" />
  </clipPath>
  <clipPath
     id="f">
    <rect
       height="152"
       width="192"
       id="rect4" />
  </clipPath>
  <mask
     id="g">
    <g
       filter="url(#a)"
       id="g5">
      <rect
         fill-opacity="0.1"
         height="19.2"
         width="19.2"
         x="-1.6"
         y="-1.6"
         id="rect5" />
    </g>
  </mask>
  <clipPath
     id="h">
    <rect
       height="152"
       width="192"
       id="rect6" />
  </clipPath>
  <mask
     id="i">
    <g
       filter="url(#a)"
       id="g7">
      <rect
         fill-opacity="0.6"
         height="19.2"
         width="19.2"
         x="-1.6"
         y="-1.6"
         id="rect7" />
    </g>
  </mask>
  <clipPath
     id="j">
    <rect
       height="152"
       width="192"
       id="rect8" />
  </clipPath>
  <g
     mask="url(#b)"
     id="g9">
    <g
       clip-path="url(#c)"
       transform="matrix(1 0 0 1 -168 -16)"
       id="g8">
      <path
         d="m 72 26 c -29.824219 0 -54 24.175781 -54 54 c 0.007812 0.390625 0.023438 0.78125 0.042969 1.171875 c 0.453125 -29.484375 24.46875 -53.152344 53.957031 -53.171875 c 29.355469 0.015625 53.320312 23.480469 53.957031 52.828125 c 0.015625 -0.277344 0.03125 -0.550781 0.042969 -0.828125 c 0 -29.824219 -24.175781 -54 -54 -54 z m 0 0"
         id="path8" />
    </g>
  </g>
  <g
     mask="url(#d)"
     id="g12">
    <g
       clip-path="url(#f)"
       transform="matrix(1 0 0 1 -168 -16)"
       id="g11">
      <path
         d="m -626.011292 393.5513 v 56"
         fill="none"
         stroke="#000000"
         stroke-width="8"
         transform="matrix(1 0 0 1 690.011292 -331.5513)"
         id="path9" />
      <g
         clip-path="url(#e)"
         id="g10">
        <path
           d="m -626.011292 413.5513 c 0 8.835938 -7.164062 16 -16 16 c -8.835937 0 -16 -7.164062 -16 -16 c 0 -8.835937 7.164063 -16 16 -16 c 8.835938 0 16 7.164063 16 16 z m 0 0"
           fill="none"
           stroke="#000000"
           stroke-width="8"
           transform="matrix(1 0 0 1 690.011292 -331.5513)"
           id="path10" />
      </g>
    </g>
  </g>
  <g
     mask="url(#g)"
     id="g14">
    <g
       clip-path="url(#h)"
       fill="none"
       stroke="#000000"
       stroke-width="8"
       transform="matrix(1 0 0 1 -168 -16)"
       id="g13">
      <path
         d="m -610.011292 377.5513 v 56"
         transform="matrix(1 0 0 1 690.011292 -331.5513)"
         id="path12" />
      <path
         d="m -578.011292 413.5513 c 0 8.835938 -7.164062 16 -16 16 c -8.835937 0 -16 -7.164062 -16 -16 c 0 -8.835937 7.164063 -16 16 -16 c 8.835938 0 16 7.164063 16 16 z m 0 0"
         transform="matrix(1 0 0 1 690.011292 -331.5513)"
         id="path13" />
    </g>
  </g>
  <path
     d="m 12.708901,3.7902954 q 1.562388,0 2.423146,1.0704919 Q 16,5.9240835 16,7.8770381 q 0,1.9529547 -0.875219,3.0379559 -0.867954,1.077734 -2.41588,1.077734 -0.773962,0 -1.417696,-0.28209 -0.636515,-0.289334 -1.070516,-0.882463 h -0.0868 L 9.8807506,11.848062 H 9.0199689 V 0.59321107 H 10.220689 V 3.3273945 q 0,0.9186058 -0.05787,1.649159 h 0.0579 q 0.83903,-1.1862581 2.488188,-1.1862581 z m -0.17359,1.0054012 q -1.229621,0 -1.772121,0.7088486 -0.542501,0.701629 -0.542501,2.3724929 0,1.6708638 0.556963,2.3941979 0.556939,0.716068 1.786583,0.716068 1.106682,0 1.649182,-0.802887 0.542477,-0.8101057 0.542477,-2.3218408 0,-1.5479253 -0.542477,-2.3074024 -0.5425,-0.7594772 -1.678106,-0.7594772 z"
     fill="#ffffff"
     id="path2"
     style="fill:#000000;fill-rule:evenodd;stroke-width:0.0234393" />
  <path
     d="m 3.435766,10.987327 q 1.20072,0 1.750439,-0.643781 0.54972,-0.6437346 0.585887,-2.1699549 V 7.9059622 q 0,-1.6636211 -0.564182,-2.3941743 -0.564181,-0.7305532 -1.786606,-0.7305532 -1.056054,0 -1.620236,0.8245912 -0.556962,0.8173251 -0.556962,2.3146217 0,1.497273 0.549743,2.2856744 0.556939,0.781182 1.641917,0.781182 z m -0.180834,1.005401 q -1.533416,0 -2.394174,-1.077734 Q 0,9.8372356 0,7.9059622 0,5.9602501 0.868,4.86803 1.735954,3.7758099 3.28388,3.7758099 q 1.627454,0 2.502674,1.2296441 h 0.06511 L 6.025255,3.9204767 H 6.972808 V 15.406789 h -1.20072 v -3.392356 q 0,-0.723334 0.07958,-1.229644 H 5.757628 Q 4.925817,11.992728 3.25493,11.992728 Z"
     fill="#c8e8ff"
     id="path3-8"
     style="opacity:0.6;fill:#000000;fill-rule:evenodd;stroke-width:0.0234393" />
</svg>
