<?xml version="1.0" encoding="UTF-8" standalone="no"?>
<svg
   width="16"
   height="16"
   version="1"
   id="svg566"
   xmlns="http://www.w3.org/2000/svg"
   xmlns:svg="http://www.w3.org/2000/svg">
  <defs
     id="defs570" />
  <path
     id="path1482-7"
     style="display:inline;fill:#000000;fill-opacity:1;stroke-width:0.142857;enable-background:new"
     d="M 2.893973,1.7142855 0,4.6085375 v 8.5304135 c 0,0.635 0.50904,1.146764 1.141183,1.146764 H 13.182478 L 16,11.468192 V 2.8610485 c 0,-0.635 -0.50904,-1.146763 -1.141183,-1.146763 z m -0.341239,2.893415 h 2.347378 c 0.52165,0 0.957509,0.06604 1.307477,0.198103 0.349968,0.12546 0.627333,0.323578 0.832032,0.594308 0.211301,0.27073 0.35975,0.610693 0.445591,1.020089 0.08584,0.409397 0.128906,0.898087 0.128906,1.46596 0,0.501841 -0.03302,0.967278 -0.09905,1.396484 C 7.449038,9.7118515 7.32012,10.081671 7.128628,10.39202 6.937136,10.702369 6.663213,10.946715 6.306642,11.125 5.95007,11.303286 5.481192,11.392299 4.900113,11.392299 H 2.552735 Z m 5.407366,0 h 1.148996 l 1.347098,5.8138955 h 0.495257 L 12.29827,4.6077005 h 1.148996 l -1.664063,6.7845985 h -2.15904 z m -4.308035,0.960659 v 4.8532365 h 1.248047 c 0.37638,0 0.670116,-0.0758 0.881417,-0.227678 0.211302,-0.158476 0.366633,-0.3565945 0.465681,-0.5943085 0.105651,-0.244318 0.168248,-0.515079 0.188058,-0.812221 0.02641,-0.303746 0.03962,-0.604085 0.03962,-0.901228 0,-0.409397 -0.02297,-0.759405 -0.0692,-1.049944 C 6.366068,6.5456765 6.286822,6.3079355 6.167965,6.1230465 6.049108,5.9315545 5.887172,5.7928725 5.682474,5.7070315 5.477775,5.6145815 5.21706,5.5683595 4.900108,5.5683595 Z" />
</svg>
