<?xml version="1.0" encoding="UTF-8" standalone="no"?>
<svg
   width="16"
   height="16"
   version="1"
   id="svg566"
   xmlns="http://www.w3.org/2000/svg"
   xmlns:svg="http://www.w3.org/2000/svg">
  <defs
     id="defs570" />
  <path
     id="path1482"
     style="display:inline;fill:#000000;fill-opacity:1;stroke-width:0.142857;enable-background:new"
     d="M 2.893973,1.7142857 0,4.6085379 v 8.5304131 c 0,0.635 0.50904,1.146763 1.141183,1.146763 H 13.182478 L 16,11.468192 V 2.8610487 c 0,-0.635 -0.50904,-1.146763 -1.141183,-1.146763 z M 2.080078,4.3200335 h 2.655971 c 0.547556,0 0.999077,0.088963 1.354632,0.266741 0.362666,0.1706667 0.647014,0.4122783 0.853236,0.7251675 0.213334,0.3128888 0.36277,0.6899701 0.448103,1.1308593 0.09244,0.433778 0.138672,0.9172803 0.138672,1.4506138 0,0.5333337 -0.04274,1.0310812 -0.128069,1.4933036 C 7.317293,9.8418298 7.168132,10.243631 6.954799,10.592076 6.748577,10.933409 6.46395,11.20002 6.101283,11.39202 5.745727,11.58402 5.294207,11.679967 4.746652,11.679967 H 2.080078 Z m 6.090681,0 h 0.981306 l 1.610491,6.5066965 h 0.565569 l 1.621094,-6.5066965 h 0.970703 L 12.04269,11.679967 H 10.069475 Z M 3.018694,5.141462 v 5.717076 h 1.717355 c 0.376889,0 0.682743,-0.07821 0.917411,-0.234654 0.234666,-0.163556 0.415806,-0.383939 0.543806,-0.6612724 0.13511,-0.2773335 0.227565,-0.5901715 0.277343,-0.938616 0.05689,-0.3555558 0.08538,-0.7323579 0.08538,-1.1305805 0,-0.3911111 -0.02849,-0.7539473 -0.08538,-1.0881695 C 6.424829,6.4710231 6.332376,6.1796926 6.197266,5.9308036 6.069266,5.6819146 5.884356,5.4897428 5.642578,5.3546317 5.407911,5.2124094 5.105827,5.141462 4.736049,5.141462 Z" />
</svg>
