<?xml version="1.0" encoding="UTF-8" standalone="no"?>
<svg
   width="16"
   height="16"
   version="1"
   id="svg566"
   xmlns="http://www.w3.org/2000/svg"
   xmlns:svg="http://www.w3.org/2000/svg">
  <defs
     id="defs570" />
  <path
     id="path13104-6"
     style="display:inline;fill:#000000;fill-opacity:1;stroke:none;stroke-width:0.0178572;stroke-linecap:butt;stroke-linejoin:miter;stroke-miterlimit:4;stroke-dasharray:none;stroke-dashoffset:0;stroke-opacity:1;marker:none;marker-start:none;marker-mid:none;marker-end:none;paint-order:normal;enable-background:new"
     d="M 1.142728,1.709285 C 0.509587,1.709285 0,2.219173 0,2.852314 v 10.295373 c 0,0.63314 0.509587,1.143028 1.142728,1.143028 H 11.714243 L 16,10.004958 V 2.852314 C 16,2.219173 15.490414,1.709285 14.857272,1.709285 Z m 0.303786,2.385216 h 2.63071 c 0.888341,0 1.569968,0.126189 2.044771,0.378907 0.474803,0.245059 0.803886,0.635807 0.98768,1.171875 0.191453,0.536068 0.28726,1.278759 0.28726,2.228365 0,0.987897 -0.09205,1.769091 -0.275841,2.34345 -0.183795,0.574358 -0.516638,0.999247 -0.999099,1.274939 -0.474803,0.275693 -1.15643,0.413762 -2.044771,0.413762 h -2.63071 z m 6.547777,0 h 1.665565 l 1.355468,6.432693 h 0.517128 l 1.355469,-6.432693 h 1.665565 l -1.814904,7.811298 H 9.809195 Z m -4.96244,1.378306 v 5.054387 h 1.045373 c 0.497777,0 0.865362,-0.09957 1.102764,-0.298678 0.24506,-0.199111 0.40193,-0.482471 0.470853,-0.85006 0.07658,-0.375248 0.114784,-0.907525 0.114784,-1.596755 0,-0.612649 -0.0382,-1.076041 -0.114784,-1.390024 C 5.574261,6.077694 5.41739,5.848179 5.179988,5.702675 4.942586,5.549512 4.575001,5.472807 4.077224,5.472807 Z" />
</svg>
