<?xml version="1.0" encoding="UTF-8" standalone="no"?>
<svg
   width="16"
   height="16"
   version="1"
   id="svg14"
   xmlns="http://www.w3.org/2000/svg"
   xmlns:svg="http://www.w3.org/2000/svg">
  <defs
     id="defs18" />
  <path
     d="M 8.6266798,8.8995428 H 10.873059 L 8.97182,7.0198299 H 6.6425309 v 2.23803 L 8.6266798,11.23542 Z"
     fill="#ee7913"
     id="path16"
     style="opacity:0.6;fill:#000000;stroke-width:0.0652316" />
  <path
     d="M 15.831768,13.801631 11.823744,9.8393341 H 9.56621 V 12.17208 L 13.407111,16 h 2.424657 z"
     fill="url(#Gradient_1)"
     id="polygon10"
     style="fill:#000000;stroke-width:0.0652316" />
  <path
     d="m 9.56621,9.8393341 h 2.257534 L 10.873059,8.8995428 H 8.6266798 V 11.23542 L 9.56621,12.17208 Z"
     fill="#f0e64a"
     id="polygon12"
     style="opacity:0.8;fill:#000000;stroke-width:0.0652316" />
  <path
     d="m 9.0975864,12.970058 c -0.3405088,0.07841 -0.6942595,0.120939 -1.0592302,0.120939 -2.6110239,0 -4.8318332,-2.147031 -4.8318332,-4.930854 0,-2.7838877 2.1960866,-4.8838224 4.8318332,-4.8838224 2.6354208,0 4.7338548,2.0996086 4.7338548,4.8838224 0,0.4525114 -0.0563,0.8883887 -0.160535,1.3010437 l 2.416635,2.4163073 C 15.651403,10.785779 16,9.5163073 16,8.1414215 16,3.8506193 12.575799,0.63809489 7.9894978,0.63809489 3.4239403,0.63809489 4e-7,3.82968 4e-7,8.1414215 c 0,4.3327465 3.4239399,7.5878015 7.9894974,7.5878015 1.1784736,0 2.2799742,-0.216764 3.2666012,-0.611284 z"
     fill="url(#Gradient_2)"
     id="path19-2"
     style="fill:#000000;stroke-width:0.0652316" />
</svg>
