<?xml version="1.0" encoding="UTF-8" standalone="no"?>
<svg
   height="16px"
   viewBox="0 0 16 16"
   width="16px"
   version="1.1"
   id="svg135"
   xmlns="http://www.w3.org/2000/svg"
   xmlns:svg="http://www.w3.org/2000/svg">
  <defs
     id="defs139" />
  <path
     id="path3431"
     style="fill:#000000;stroke:none"
     d="M 7.464843,-9.9999991e-8 C 6.875003,-9.9999991e-8 6.398437,0.4765655 6.398437,1.0664061 V 1.7031249 C 5.787346,1.8595576 5.210724,2.1032355 4.68164,2.4199217 L 4.226562,1.9648436 c -0.199219,-0.1992182 -0.472656,-0.3125 -0.753906,-0.3125 -0.285156,0 -0.554691,0.1132818 -0.753906,0.3125 L 1.964843,2.7187499 C 1.761722,2.9179681 1.648437,3.1914073 1.648437,3.4726561 c 0,0.2851558 0.113285,0.554688 0.316406,0.7539062 L 2.419921,4.6816405 C 2.103168,5.2107871 1.859578,5.7872542 1.703125,6.3984373 H 1.066406 C 0.472656,6.3984373 0,6.875002 0,7.4648436 v 1.0664065 c 0,0.58984 0.472656,1.066406 1.066406,1.066406 h 0.634765 c 0.156192,0.6114929 0.400002,1.1890369 0.716797,1.7187499 l -0.453125,0.453125 c -0.203121,0.199219 -0.316406,0.47266 -0.316406,0.753906 0,0.285157 0.113285,0.554691 0.316406,0.753906 L 2.71875,14.03125 c 0.199215,0.203125 0.46875,0.316406 0.753906,0.316406 0.28125,0 0.554687,-0.113281 0.753906,-0.316406 l 0.451172,-0.451172 c 0.529915,0.317817 1.108435,0.561847 1.720703,0.71875 v 0.630859 C 6.398437,15.523437 6.875003,16 7.464843,16 H 8.53125 c 0.58984,0 1.066406,-0.476563 1.066406,-1.070313 v -0.628906 c 0.612433,-0.1566 1.190324,-0.402955 1.720703,-0.720703 l 0.451172,0.451172 c 0.199219,0.203125 0.472656,0.316406 0.753906,0.316406 0.285157,0 0.554691,-0.113281 0.753906,-0.316406 l 0.753907,-0.753907 c 0.417965,-0.417965 0.417965,-1.089843 0,-1.507812 l -0.451172,-0.451172 c 0.317745,-0.530379 0.564103,-1.10827 0.720703,-1.7207029 h 0.628906 C 15.523437,9.5976561 16,9.1210901 16,8.5312501 V 7.4648436 C 16,6.875002 15.523437,6.3984373 14.929687,6.3984373 H 14.298828 C 14.141962,5.7863156 13.895827,5.2094995 13.578125,4.6796873 l 0.453125,-0.453125 c 0.417965,-0.417967 0.417965,-1.0898454 0,-1.5078124 L 13.277343,1.9648436 c -0.199215,-0.1992182 -0.468749,-0.3125 -0.753906,-0.3125 -0.28125,0 -0.554687,0.1132818 -0.753906,0.3125 l -0.453125,0.453125 C 10.78669,2.1011707 10.209149,1.8573628 9.597656,1.7011717 V 1.0664061 C 9.597656,0.4765655 9.12109,-1.9999999e-7 8.53125,-9.9999991e-8 Z M 7.917968,3.6249999 c 0.328163,0 0.639086,0.024327 0.931641,0.076172 0.300641,0.053279 0.581631,0.1433365 0.837891,0.2734375 0.261871,0.1329503 0.494455,0.3146009 0.693359,0.5371094 l 0.002,0.00195 c 0.20302,0.2240005 0.363915,0.4959235 0.492188,0.8085938 l 0.002,0.00195 c 0.133244,0.3166453 0.228367,0.6768011 0.292968,1.0859375 0.06513,0.4089051 0.09766,0.871644 0.09766,1.3925781 0,0.4231748 -0.02138,0.8080939 -0.06445,1.1562499 -0.0428,0.345981 -0.105921,0.660609 -0.191407,0.943359 -0.08203,0.2822869 -0.189017,0.5370799 -0.324218,0.7597659 -0.07019,0.11561 -0.161881,0.202183 -0.244141,0.302734 l 1.001953,1.410157 H 9.414062 L 9.021484,11.820312 c -0.12682,0.02899 -0.248933,0.06476 -0.382813,0.08203 -0.228251,0.02946 -0.46878,0.04492 -0.720703,0.04492 -0.329987,0 -0.64043,-0.02434 -0.93164,-0.07226 -0.300577,-0.04947 -0.581267,-0.135383 -0.837891,-0.261721 h -0.00195 l -0.00195,-0.002 C 5.885545,11.479843 5.650778,11.30326 5.449218,11.089843 l -0.00195,-0.002 c -0.2044,-0.220701 -0.369493,-0.48844 -0.501956,-0.798781 v -0.002 C 4.811762,9.9704021 4.71324,9.6079931 4.648437,9.2011721 4.583273,8.7920961 4.554687,8.3269623 4.554687,7.8027342 4.554687,7.0166696 4.620514,6.3604993 4.769531,5.8203123 4.916638,5.2870487 5.135981,4.8417281 5.445312,4.5039061 5.746667,4.1713125 6.125403,3.9355325 6.55664,3.8085936 6.968082,3.6841723 7.42322,3.6249999 7.917968,3.6249999 Z m 0,1.8847656 c -0.302084,0 -0.537952,0.039344 -0.701171,0.099609 h -0.00195 l -0.00195,0.00195 c -0.145665,0.051544 -0.24511,0.129196 -0.333991,0.2695347 v 0.00195 C 6.790183,6.0205656 6.709153,6.2428506 6.660156,6.548828 6.613351,6.8639526 6.585937,7.2851543 6.585937,7.8027342 c 0,0.5141061 0.027393,0.9346939 0.074219,1.2499999 0.048709,0.301182 0.127984,0.519553 0.216797,0.658203 0.087744,0.133924 0.187057,0.210993 0.335937,0.263672 0.127259,0.04503 0.33234,0.0637 0.542969,0.07617 L 6.917968,8.8496091 h 2.011719 l 0.207031,0.302734 c 0.00577,-0.02987 0.018419,-0.03651 0.023438,-0.06836 l 0.00195,-0.002 C 9.21456,8.7673151 9.24414,8.3361066 9.24414,7.8027342 c 0,-0.5167759 -0.028476,-0.9365851 -0.078125,-1.25 v -0.00391 C 9.12029,6.240963 9.041544,6.0200952 8.953125,5.8828123 h -0.00195 v -0.00195 C 8.86229,5.7405205 8.762846,5.6628688 8.617187,5.611328 L 8.615237,5.609378 H 8.611328 C 8.452979,5.5499936 8.220052,5.5097655 7.917968,5.5097655 Z" />
  <g
     aria-label="Qt"
     id="text2846"
     style="font-size:16px;font-family:'Source Code Pro';-inkscape-font-specification:'Source Code Pro';letter-spacing:-1px;fill:#ffffff;stroke:none;stroke-width:1.15063"
     transform="matrix(0.65181414,0,0,0.65181414,-2.9015307,2.9624455)">
    <g
       id="path3322"
       style="stroke:none" />
  </g>
</svg>
