<?xml version="1.0" encoding="UTF-8" standalone="no"?>
<svg
   height="16px"
   viewBox="0 0 16 16"
   width="16px"
   version="1.1"
   id="svg135"
   xml:space="preserve"
   xmlns="http://www.w3.org/2000/svg"
   xmlns:svg="http://www.w3.org/2000/svg"><defs
     id="defs139" /><path
     id="path3431"
     style="fill:#000000;stroke:none"
     d="M 7.4648438 0 C 6.8750038 0 6.3984375 0.47656565 6.3984375 1.0664062 L 6.3984375 1.703125 C 5.7873465 1.8595577 5.2107246 2.1032357 4.6816406 2.4199219 L 4.2265625 1.9648438 C 4.0273435 1.7656255 3.7539062 1.6523437 3.4726562 1.6523438 C 3.1875002 1.6523438 2.917965 1.7656255 2.71875 1.9648438 L 1.9648438 2.71875 C 1.7617228 2.9179682 1.6484375 3.1914074 1.6484375 3.4726562 C 1.6484375 3.7578121 1.7617228 4.0273443 1.9648438 4.2265625 L 2.4199219 4.6816406 C 2.1031689 5.2107872 1.859578 5.7872544 1.703125 6.3984375 L 1.0664062 6.3984375 C 0.47265625 6.3984375 1.4802974e-16 6.8750022 0 7.4648438 L 0 8.53125 C 0 9.12109 0.47265625 9.5976562 1.0664062 9.5976562 L 1.7011719 9.5976562 C 1.8573639 10.209149 2.1011737 10.786693 2.4179688 11.316406 L 1.9648438 11.769531 C 1.7617228 11.96875 1.6484375 12.242191 1.6484375 12.523438 C 1.6484375 12.808594 1.7617228 13.078129 1.9648438 13.277344 L 2.71875 14.03125 C 2.917965 14.234375 3.1875002 14.347656 3.4726562 14.347656 C 3.7539062 14.347656 4.0273435 14.234375 4.2265625 14.03125 L 4.6777344 13.580078 C 5.2076494 13.897895 5.7861695 14.141925 6.3984375 14.298828 L 6.3984375 14.929688 C 6.3984375 15.523438 6.8750038 16 7.4648438 16 L 8.53125 16 C 9.12109 16 9.5976562 15.523438 9.5976562 14.929688 L 9.5976562 14.300781 C 10.210089 14.144181 10.78798 13.897826 11.318359 13.580078 L 11.769531 14.03125 C 11.96875 14.234375 12.242188 14.347656 12.523438 14.347656 C 12.808594 14.347656 13.078129 14.234375 13.277344 14.03125 L 14.03125 13.277344 C 14.449215 12.859379 14.449215 12.1875 14.03125 11.769531 L 13.580078 11.318359 C 13.897823 10.78798 14.144181 10.210089 14.300781 9.5976562 L 14.929688 9.5976562 C 15.523437 9.5976563 16 9.12109 16 8.53125 L 16 7.4648438 C 16 6.8750022 15.523438 6.3984375 14.929688 6.3984375 L 14.298828 6.3984375 C 14.141962 5.7863158 13.895827 5.2094997 13.578125 4.6796875 L 14.03125 4.2265625 C 14.449215 3.8085955 14.449215 3.136717 14.03125 2.71875 L 13.277344 1.9648438 C 13.078129 1.7656255 12.808594 1.6523437 12.523438 1.6523438 C 12.242188 1.6523438 11.96875 1.7656255 11.769531 1.9648438 L 11.316406 2.4179688 C 10.78669 2.1011708 10.209149 1.857363 9.5976562 1.7011719 L 9.5976562 1.0664062 C 9.5976562 0.47656565 9.12109 -9.9999999e-08 8.53125 0 L 7.4648438 0 z M 5.9472656 3.8769531 C 6.4927203 3.8769531 6.9526823 3.9554839 7.328125 4.1113281 C 7.7035677 4.2600884 8.0084215 4.4937278 8.2421875 4.8125 C 8.4759542 5.1241881 8.6430142 5.5175712 8.7421875 5.9921875 C 8.8484448 6.4668038 8.9003906 7.0252939 8.9003906 7.6699219 C 8.9003906 8.5270647 8.8091793 9.2179843 8.625 9.7421875 C 8.447904 10.259307 8.1530488 10.655371 7.7421875 10.931641 L 8.6347656 12.367188 L 7.5410156 12.876953 L 6.5957031 11.326172 C 6.4611105 11.368679 6.2447863 11.388672 5.9472656 11.388672 C 5.394727 11.388672 4.9274485 11.31941 4.5449219 11.177734 C 4.1694792 11.028974 3.8646254 10.800698 3.6308594 10.496094 C 3.4041767 10.191489 3.237116 9.8054232 3.1308594 9.3378906 C 3.0316854 8.8703582 2.9824219 8.3145503 2.9824219 7.6699219 C 2.9824219 7.0252939 3.0363208 6.4668038 3.1425781 5.9921875 C 3.2488355 5.5175712 3.4185778 5.1241881 3.6523438 4.8125 C 3.8861104 4.4937278 4.1909636 4.2600884 4.5664062 4.1113281 C 4.9418489 3.9554839 5.401811 3.8769531 5.9472656 3.8769531 z M 10.361328 4.4199219 L 11.509766 4.4199219 L 11.509766 5.9589844 L 12.974609 5.9589844 L 12.974609 6.9472656 L 11.509766 6.9472656 L 11.509766 9.2851562 C 11.509766 9.4976709 11.512445 9.6747295 11.519531 9.8164062 C 11.533698 9.9580826 11.561016 10.068562 11.603516 10.146484 C 11.646022 10.224406 11.707238 10.280986 11.785156 10.316406 C 11.863078 10.344746 11.966241 10.359375 12.09375 10.359375 L 12.964844 10.326172 L 13.017578 11.251953 C 12.55713 11.344043 12.195696 11.388672 11.933594 11.388672 C 11.636073 11.388672 11.385118 11.356722 11.179688 11.292969 C 10.98134 11.229215 10.818916 11.123372 10.691406 10.974609 C 10.570984 10.825849 10.485134 10.624158 10.435547 10.369141 C 10.38596 10.114123 10.361328 9.7965893 10.361328 9.4140625 L 10.361328 6.9472656 L 9.6816406 6.9472656 L 9.6816406 5.9589844 L 10.361328 5.9589844 L 10.361328 4.4199219 z M 5.9472656 4.9082031 C 5.6143256 4.9082031 5.3341039 4.9601488 5.1074219 5.0664062 C 4.8878225 5.1726636 4.7107639 5.3397241 4.5761719 5.5664062 C 4.4415792 5.7930888 4.3457332 6.0806271 4.2890625 6.4277344 C 4.2323892 6.7748421 4.2050781 7.1882222 4.2050781 7.6699219 C 4.2050781 8.6333222 4.3255562 9.3215598 4.5664062 9.7324219 C 4.8143402 10.150367 5.2743023 10.359375 5.9472656 10.359375 C 6.2872896 10.359375 6.5675114 10.312793 6.7871094 10.220703 C 7.013792 10.12153 7.1908507 9.9664207 7.3183594 9.7539062 C 7.452952 9.5413912 7.5441633 9.2638515 7.59375 8.9238281 C 7.6504233 8.5838042 7.6796875 8.1704246 7.6796875 7.6816406 C 7.6796875 7.1928571 7.6504233 6.7748421 7.59375 6.4277344 C 7.5370793 6.0806271 7.4412326 5.7930888 7.3066406 5.5664062 C 7.1791313 5.3397241 7.0020733 5.1726636 6.7753906 5.0664062 C 6.5557926 4.9601488 6.2802056 4.9082031 5.9472656 4.9082031 z " /><g
     aria-label="Qt"
     id="text2846"
     style="font-size:16px;font-family:'Source Code Pro';-inkscape-font-specification:'Source Code Pro';letter-spacing:-1px;fill:#ffffff;stroke:none;stroke-width:1.15063"
     transform="matrix(0.65181414,0,0,0.65181414,-2.9015307,2.9624455)"><g
       id="path3322"
       style="stroke:none" /></g></svg>
