<?xml version="1.0" encoding="UTF-8" standalone="no"?>
<svg
   width="16"
   height="16"
   version="1"
   id="svg566"
   xmlns:xlink="http://www.w3.org/1999/xlink"
   xmlns="http://www.w3.org/2000/svg"
   xmlns:svg="http://www.w3.org/2000/svg">
  <defs
     id="defs570">
    <linearGradient
       xlink:href="#linearGradient955"
       id="linearGradient957"
       x1="-566.03278"
       y1="-81.183174"
       x2="-462.03284"
       y2="-81.183174"
       gradientUnits="userSpaceOnUse"
       gradientTransform="translate(549.99319,98.391087)" />
    <linearGradient
       id="linearGradient955">
      <stop
         style="stop-color:#2ab43c;stop-opacity:1;"
         offset="0"
         id="stop951" />
      <stop
         style="stop-color:#52d262;stop-opacity:1;"
         offset="0.04354872"
         id="stop959" />
      <stop
         style="stop-color:#2ab43c;stop-opacity:1;"
         offset="0.07182212"
         id="stop961" />
      <stop
         style="stop-color:#2ab43c;stop-opacity:1;"
         offset="0.9348731"
         id="stop963" />
      <stop
         style="stop-color:#52d262;stop-opacity:1;"
         offset="0.96238744"
         id="stop965" />
      <stop
         style="stop-color:#2ab43c;stop-opacity:1;"
         offset="1"
         id="stop953" />
    </linearGradient>
  </defs>
  <path
     id="path13104"
     style="display:inline;fill:#000000;fill-opacity:1;stroke:none;stroke-width:0.0178572;stroke-linecap:butt;stroke-linejoin:miter;stroke-miterlimit:4;stroke-dasharray:none;stroke-dashoffset:0;stroke-opacity:1;marker:none;marker-start:none;marker-mid:none;marker-end:none;paint-order:normal;enable-background:new"
     d="M 1.143029,1.709285 C 0.509888,1.709285 0,2.218872 0,2.852013 v 10.295673 c 0,0.633141 0.509888,1.143029 1.143029,1.143029 H 11.714543 L 16,10.004958 V 2.852013 C 16,2.218872 15.490414,1.709285 14.857272,1.709285 Z M 5.02494,4.094201 h 2.630709 c 0.888341,0 1.569668,0.126489 2.044471,0.379206 0.474803,0.24506 0.804186,0.635507 0.987981,1.171575 0.191453,0.536068 0.28726,1.27906 0.28726,2.228666 0,0.987897 -0.09205,1.769091 -0.275842,2.343449 -0.183795,0.574359 -0.516938,0.999248 -0.999399,1.27494 -0.474803,0.275692 -1.15613,0.413462 -2.044471,0.413462 H 5.02494 Z m 1.585336,1.378606 v 5.054387 h 1.045373 c 0.497778,0 0.865363,-0.09957 1.102765,-0.298678 0.245059,-0.199111 0.40193,-0.482471 0.470853,-0.85006 0.07658,-0.375248 0.114784,-0.907525 0.114784,-1.596755 0,-0.61265 -0.0382,-1.076042 -0.114784,-1.390024 C 9.152687,6.077694 8.995815,5.847878 8.758414,5.702374 8.521012,5.549212 8.153427,5.472807 7.655649,5.472807 Z" />
</svg>
