<?xml version="1.0" encoding="UTF-8" standalone="no"?>
<svg
   width="16"
   height="16"
   version="1"
   id="svg566"
   xmlns="http://www.w3.org/2000/svg"
   xmlns:svg="http://www.w3.org/2000/svg">
  <defs
     id="defs570" />
  <path
     id="path6"
     style="fill:#000000;stroke-width:0.181334"
     d="M 5.3810525,5.4421438e-4 C 5.3145325,-0.00295579 5.2467145,0.01034421 5.2014895,0.04198421 c -0.08938,0.0626 -0.147257,0.192702 -0.128209,0.287939 0.009,0.04491 0.173683,0.362737 0.365856,0.70621299 0.192173,0.343476 0.345052,0.627437 0.340002,0.631129 -0.005,0.0037 -0.07503,0.04656 -0.155834,0.09527 -0.462543,0.278827 -0.977044,0.786912 -1.287757,1.272175 -0.218275,0.340893 -0.416466,0.841356 -0.499733,1.261549 -0.02703,0.136375 -0.049,0.293475 -0.06269,0.431732 -6.17e-4,-0.0021 -0.0014,-0.0041 -0.0021,-0.006 -0.0014,-0.0034 -0.003,-0.0056 -0.0042,-0.0067 v -3.63e-4 l -3.63e-4,-3.63e-4 h -3.62e-4 l -3.45e-4,-3.62e-4 h -3.62e-4 -3.63e-4 -3.63e-4 -3.62e-4 l -3.63e-4,3.62e-4 h -3.63e-4 l -3.62e-4,3.63e-4 c -0.0033,0.0041 -0.0057,0.01857 -0.0057,0.04038 0,0.02041 0.0017,0.03431 0.0046,0.03931 1.38e-4,1.99e-4 9.25e-4,9.07e-4 0.0011,0.0011 l 3.62e-4,3.63e-4 v 3.62e-4 h 3.63e-4 3.63e-4 l 3.62e-4,3.63e-4 h 3.63e-4 3.63e-4 l 3.62e-4,-3.63e-4 h 3.45e-4 l 3.63e-4,-3.62e-4 3.62e-4,-3.63e-4 c -0.01104,0.134176 -0.01255,0.241416 -7.07e-4,0.278731 l 0.01735,0.0549 h 4.229131 c 3.7038155,0 4.2329375,-0.005 4.2617145,-0.03967 0.02618,-0.03154 0.02977,-0.144593 0.01665,-0.297148 5.44e-4,-0.001 0.0012,-0.0022 0.0018,-0.0035 0.0074,-0.01837 0.0074,-0.04857 0,-0.06694 -0.0015,-0.0038 -0.0032,-0.006 -0.0046,-0.0071 l -3.62e-4,-3.63e-4 -3.63e-4,-3.62e-4 h -3.63e-4 -3.62e-4 -3.63e-4 -3.63e-4 -3.62e-4 l -3.63e-4,3.62e-4 c -5.08e-4,4.9e-4 -0.0013,0.0015 -0.0018,0.0025 -0.0312,-0.281077 -0.108237,-0.657775 -0.199043,-0.915172 -0.292727,-0.829758 -0.910423,-1.586997 -1.668135,-2.044971 -0.09751,-0.05894 -0.139146,-0.09996 -0.129626,-0.127147 0.0077,-0.02204 0.163789,-0.311081 0.346731,-0.64246199 0.347131,-0.62879 0.371598,-0.699848 0.294315,-0.849297 -0.07146,-0.13819499562 -0.297582,-0.183053 -0.423586,-0.08394 -0.03749,0.02949 -0.22661,0.338953 -0.420399,0.687796 C 9.8899305,1.0907782 9.7276665,1.3802782 9.7231745,1.3851062 c -0.0045,0.0048 -0.142383,-0.03482 -0.306356,-0.08783 -0.320679,-0.103669 -0.727085,-0.180177 -1.111027,-0.210023 9.61e-4,-4.53e-4 0.002,-9.06e-4 0.0025,-0.0014 v -3.63e-4 l 3.62e-4,-3.62e-4 3.63e-4,-3.63e-4 v -3.63e-4 -3.62e-4 -3.63e-4 -3.63e-4 l -3.63e-4,-3.62e-4 v -3.63e-4 l -3.62e-4,-3.63e-4 c -0.0012,-0.0012 -0.0038,-0.0029 -0.0071,-0.0042 -0.01837,-0.0074 -0.04857,-0.0074 -0.06694,0 -0.0032,0.0013 -0.0052,0.0027 -0.0064,0.0039 -0.128715,-0.0073 -0.274389,-0.0057 -0.427482,0.0039 l 3.63e-4,-3.63e-4 h 3.62e-4 v -3.62e-4 -3.63e-4 h 3.63e-4 v -3.63e-4 -3.62e-4 -3.63e-4 -3.63e-4 l -3.63e-4,-3.62e-4 v -3.63e-4 l -3.62e-4,-3.63e-4 c -0.0012,-0.0012 -0.0039,-0.0029 -0.0071,-0.0042 -0.01837,-0.0074 -0.04857,-0.0074 -0.06694,0 -0.003,0.0012 -0.0051,0.0024 -0.0064,0.0035 -1.47e-4,1.58e-4 -5.98e-4,9.07e-4 -7.07e-4,0.0011 l -3.63e-4,3.63e-4 -3.62e-4,3.62e-4 v 3.63e-4 3.63e-4 3.62e-4 l 3.62e-4,3.63e-4 v 3.63e-4 l 3.63e-4,3.62e-4 3.63e-4,3.63e-4 c 0.0025,0.0018 0.0085,0.0037 0.01665,0.0046 -0.421096,0.03187 -0.887996,0.119792 -1.213737,0.237293 -0.101416,0.03658 -0.194157,0.05657 -0.205772,0.04427 -0.01161,-0.0123 -0.173711,-0.29887 -0.36019,-0.63679499 -0.186478,-0.337925 -0.368313,-0.641634 -0.40446,-0.674692 -0.0395,-0.03612 -0.1049,-0.05636 -0.171418,-0.0598499956 z m 0.16221,0.0262099956 v 3.62e-4 h -3.63e-4 v 3.63e-4 3.63e-4 c 8.52e-4,0.0033 0.0088,0.01405 0.02337,0.03258 0.0189,0.02411 0.03873,0.04399 0.04569,0.0464 l 3.63e-4,3.63e-4 h 3.62e-4 3.63e-4 c 0.0027,0 0.0051,-3.99e-4 0.0067,-0.0011 1.82e-4,-9.4e-5 8.89e-4,-2.54e-4 0.0011,-3.63e-4 l 3.63e-4,-3.62e-4 3.62e-4,-3.63e-4 3.63e-4,-3.63e-4 c 1.01e-4,-1.43e-4 6.17e-4,-9.06e-4 7.07e-4,-0.0011 l 3.63e-4,-3.62e-4 c 1e-4,-3.45e-4 3.26e-4,-0.0014 3.63e-4,-0.0018 -2.4e-5,-0.0088 -0.01616,-0.02701 -0.04675,-0.051 -0.01854,-0.01454 -0.0293,-0.02253 -0.03258,-0.02338 l -3.63e-4,-3.63e-4 z m 2.04745,1.04550599 c -0.0073,4.9e-4 -0.01508,0.0021 -0.02231,0.005 -0.0067,0.0027 -0.01069,0.0053 -0.01204,0.0074 l -3.63e-4,3.63e-4 v 3.63e-4 l -3.63e-4,3.62e-4 v 3.63e-4 3.63e-4 3.62e-4 l 3.63e-4,3.63e-4 v 3.63e-4 h 3.63e-4 v 3.62e-4 l 3.62e-4,3.63e-4 c 0.0034,0.0025 0.01304,0.0047 0.02763,0.0053 0.02024,8.34e-4 0.03394,-0.0024 0.03683,-0.0074 h 3.63e-4 v -3.63e-4 l 3.63e-4,-3.63e-4 v -3.62e-4 -3.63e-4 -3.63e-4 -3.62e-4 c -2.36e-4,-0.0013 -0.0011,-0.0032 -0.0025,-0.0046 -0.0055,-0.0055 -0.01645,-0.0079 -0.02869,-0.0071 z m 0.08004,0 c -0.0073,4.9e-4 -0.01508,0.0021 -0.02231,0.005 -0.0067,0.0027 -0.01069,0.0053 -0.01204,0.0074 l -3.63e-4,3.63e-4 v 3.63e-4 3.62e-4 3.63e-4 3.63e-4 3.62e-4 3.63e-4 3.63e-4 h 3.63e-4 v 3.62e-4 c 0.0028,0.0028 0.01242,0.005 0.02798,0.0057 0.02024,8.34e-4 0.0343,-0.0024 0.03719,-0.0074 l 3.63e-4,-3.63e-4 v -3.63e-4 -3.62e-4 -3.63e-4 -3.63e-4 -3.62e-4 c -2.36e-4,-0.0013 -0.0011,-0.0032 -0.0025,-0.0046 -0.0055,-0.0055 -0.01645,-0.0079 -0.02869,-0.0071 z m 0.703734,0 c -0.0121,0 -0.02411,0.002 -0.03329,0.0057 -0.0034,0.0014 -0.0056,0.0026 -0.0067,0.0039 l -3.62e-4,3.63e-4 -3.63e-4,3.62e-4 v 3.63e-4 l -3.63e-4,3.63e-4 v 3.62e-4 3.63e-4 3.63e-4 3.62e-4 l 3.63e-4,3.63e-4 3.63e-4,3.63e-4 3.62e-4,3.62e-4 c 0.0041,0.0033 0.01821,0.0057 0.04002,0.0057 0.02181,0 0.03596,-0.002 0.04002,-0.0053 l 3.63e-4,-3.63e-4 3.63e-4,-3.62e-4 3.62e-4,-3.63e-4 v -3.63e-4 l 3.63e-4,-3.62e-4 v -3.63e-4 -3.63e-4 l -3.63e-4,-3.62e-4 v -3.63e-4 -3.63e-4 l -3.62e-4,-3.62e-4 c -0.0012,-0.0013 -0.0036,-0.0029 -0.0071,-0.0043 -0.0092,-0.0037 -0.02154,-0.0057 -0.03365,-0.0057 z m 0.09775,0 c -0.0073,4.9e-4 -0.01508,0.0021 -0.02231,0.005 -0.0067,0.0027 -0.01069,0.0053 -0.01204,0.0074 l -3.63e-4,3.63e-4 v 3.63e-4 3.62e-4 h -3.62e-4 v 3.63e-4 3.63e-4 3.62e-4 l 3.62e-4,3.63e-4 v 3.63e-4 h 3.63e-4 v 3.62e-4 c 0.0028,0.0028 0.01242,0.005 0.02798,0.0057 0.02024,8.34e-4 0.0343,-0.0024 0.03719,-0.0074 v -3.63e-4 l 3.63e-4,-3.63e-4 v -3.62e-4 -3.63e-4 -3.63e-4 -3.62e-4 c -2.36e-4,-0.0013 -0.0011,-0.0032 -0.0025,-0.0046 -0.0055,-0.0055 -0.01645,-0.0079 -0.02869,-0.0071 z m -3.336625,1.011861 c -0.0092,0.0027 -0.03528,0.02593 -0.06021,0.05348 -0.02161,0.02387 -0.03576,0.04421 -0.03648,0.051 l -3.63e-4,3.63e-4 v 3.63e-4 h 3.63e-4 v 3.62e-4 3.63e-4 3.63e-4 h 3.63e-4 v 3.62e-4 h 3.62e-4 3.63e-4 3.63e-4 3.62e-4 3.63e-4 c 0.0083,-0.0014 0.03551,-0.02466 0.06127,-0.05313 0.02161,-0.02388 0.03612,-0.04456 0.03683,-0.05135 v -3.63e-4 -3.63e-4 l -3.63e-4,-3.62e-4 v -3.63e-4 -3.63e-4 h -3.62e-4 v -3.62e-4 h -3.63e-4 -3.63e-4 -3.62e-4 c -3.81e-4,3.5e-5 -0.0013,-1.38e-4 -0.0018,0 z m 5.8168705,0.04002 0.06481,0.07331 c 0.04447,0.05044 0.06788,0.07318 0.07721,0.07331 1.53e-4,-1.1e-5 9.25e-4,2.4e-5 0.0011,0 l 3.63e-4,-3.63e-4 h 3.63e-4 l 3.62e-4,-3.63e-4 h 3.63e-4 l 0.05383,0.06092 c 0.04447,0.05044 0.06788,0.07318 0.07721,0.07331 1.53e-4,-1.1e-5 9.25e-4,2.5e-5 0.0011,0 l 3.63e-4,-3.62e-4 h 3.63e-4 3.62e-4 l 3.63e-4,-3.63e-4 0.05383,0.06092 c 0.0345,0.03914 0.06663,0.07169 0.07296,0.07367 h 3.63e-4 3.63e-4 c 0.0026,0 0.0046,-3.44e-4 0.006,-0.0011 l 3.63e-4,-3.62e-4 3.62e-4,-3.63e-4 3.63e-4,-3.63e-4 3.63e-4,-3.62e-4 3.62e-4,-3.63e-4 c 5.8e-5,-1.61e-4 3.09e-4,-8.89e-4 3.63e-4,-0.0011 8.16e-4,-0.0089 -0.02146,-0.03287 -0.07296,-0.07827 l -0.06127,-0.05383 c 7.43e-4,-0.0014 0.0011,-0.0037 0.0011,-0.0064 -0.002,-0.0063 -0.03417,-0.03881 -0.07331,-0.07331 l -0.06127,-0.05383 v -3.63e-4 c 5.63e-4,-0.0014 0.0011,-0.0037 0.0011,-0.006 v -3.63e-4 c -0.002,-0.0063 -0.03453,-0.03845 -0.07367,-0.07296 z m -5.9181625,0.06658 c -0.0033,8.53e-4 -0.01369,0.0088 -0.03223,0.02338 -0.02491,0.01953 -0.04549,0.0401 -0.04675,0.0464 v 3.62e-4 c 0,0.0027 3.99e-4,0.0051 0.0011,0.0067 9.4e-5,1.81e-4 2.54e-4,8.88e-4 3.63e-4,0.0011 l 3.63e-4,3.62e-4 c 2.53e-4,2.72e-4 0.0011,8.53e-4 0.0014,0.0011 l 3.63e-4,3.63e-4 c 1.62e-4,6.7e-5 8.88e-4,3.08e-4 0.0011,3.63e-4 1.82e-4,3.3e-5 8.71e-4,3.44e-4 0.0011,3.62e-4 0.0088,-2.3e-5 0.02701,-0.01616 0.051,-0.04675 0.01454,-0.01854 0.02253,-0.0293 0.02337,-0.03258 l 3.62e-4,-3.62e-4 v -3.63e-4 h -3.62e-4 v -3.63e-4 h -3.63e-4 -3.63e-4 z m -0.08394,0.0804 c -0.0087,0.0018 -0.04165,0.031 -0.07508,0.06658 -0.02912,0.03099 -0.04976,0.05737 -0.051,0.06481 v 3.62e-4 3.63e-4 3.63e-4 l 3.63e-4,3.62e-4 v 3.63e-4 h 3.62e-4 l 3.63e-4,3.63e-4 h 3.63e-4 3.62e-4 c 0.0087,-0.0018 0.04236,-0.03135 0.07579,-0.06694 0.02965,-0.03157 0.05011,-0.0583 0.05065,-0.06517 v -3.62e-4 -3.63e-4 -3.63e-4 h -3.63e-4 v -3.62e-4 h -3.63e-4 -3.62e-4 c -1.15e-4,0 -5.81e-4,-1.5e-5 -7.08e-4,0 z m -0.129272,0.133167 c -0.0033,8.53e-4 -0.01405,0.0092 -0.03258,0.02373 -0.02491,0.01953 -0.04549,0.03974 -0.04675,0.04604 v 3.62e-4 3.63e-4 c 0,0.0031 2.17e-4,0.0054 0.0011,0.0071 1.04e-4,1.69e-4 5.99e-4,9.07e-4 7.08e-4,0.0011 l 3.62e-4,3.62e-4 3.63e-4,3.63e-4 3.63e-4,3.63e-4 c 1.53e-4,8.3e-5 9.06e-4,2.9e-4 0.0011,3.62e-4 1.72e-4,5e-5 8.88e-4,3.27e-4 0.0011,3.63e-4 0.0086,7.25e-4 0.02717,-0.01546 0.05171,-0.04675 0.01454,-0.01854 0.02253,-0.0293 0.02337,-0.03258 v -3.62e-4 -3.63e-4 h -3.62e-4 v -3.63e-4 z m -0.08535,0.0804 c -0.0083,0.0014 -0.03516,0.02501 -0.06092,0.05348 -0.02161,0.02387 -0.03612,0.04421 -0.03683,0.051 v 3.62e-4 3.63e-4 3.63e-4 3.62e-4 h 3.63e-4 v 3.63e-4 3.63e-4 h 3.62e-4 3.63e-4 v 3.62e-4 h 3.63e-4 3.62e-4 3.63e-4 c 0.0083,-0.0014 0.03551,-0.02501 0.06127,-0.05348 0.02161,-0.02388 0.03612,-0.04421 0.03683,-0.051 v -3.62e-4 -3.63e-4 -3.63e-4 -3.62e-4 -3.63e-4 h -3.63e-4 v -3.63e-4 h -3.63e-4 v -3.62e-4 h -3.62e-4 -3.63e-4 -3.63e-4 -3.62e-4 z m 1.386925,0.29396 c 0.189871,1.81e-4 0.355231,0.164775 0.355231,0.35346 0,0.09925 -0.09042,0.239636 -0.188418,0.29219 -0.05081,0.02725 -0.102434,0.04185 -0.152646,0.04569 0.0081,-0.0012 0.01356,-0.0035 0.01523,-0.0064 l 3.63e-4,-3.63e-4 v -3.63e-4 -3.62e-4 -3.63e-4 l 3.62e-4,-3.63e-4 v -3.62e-4 -3.63e-4 c -2.35e-4,-0.0013 -0.0011,-0.0029 -0.0025,-0.0042 -0.0089,-0.0089 -0.03207,-0.0098 -0.05136,-0.0021 -0.0067,0.0027 -0.01069,0.0053 -0.01204,0.0074 v 3.62e-4 l -3.63e-4,3.63e-4 v 3.63e-4 3.62e-4 3.63e-4 3.63e-4 3.62e-4 h 3.63e-4 v 3.63e-4 l 3.62e-4,3.63e-4 c 0.0028,0.0028 0.01242,0.005 0.02798,0.0057 0.0026,1.06e-4 0.0044,1.5e-5 0.0067,0 -0.06504,0.002 -0.127681,-0.0149 -0.183105,-0.05135 1.99e-4,-1.8e-5 5.26e-4,-3.08e-4 7.07e-4,-3.63e-4 1.76e-4,-6.1e-5 9.07e-4,-2.72e-4 0.0011,-3.62e-4 h 3.62e-4 c 1.38e-4,-1.26e-4 5.81e-4,-9.07e-4 7.08e-4,-0.0011 l 3.62e-4,-3.63e-4 c 7.98e-4,-0.0015 0.0018,-0.0042 0.0018,-0.0071 v -3.62e-4 l -3.62e-4,-3.63e-4 c -0.0031,-0.0073 -0.02886,-0.03326 -0.05985,-0.0595 l -0.0595,-0.04994 c -4.1e-5,-6.6e-5 4.1e-5,-2.9e-4 0,-3.63e-4 l -3.63e-4,-3.63e-4 c -0.02754,-0.04405 -0.04419,-0.09003 -0.05135,-0.136 6.7e-4,-0.0011 0.0014,-0.0025 0.0021,-0.0043 0.0074,-0.01837 0.0074,-0.04857 0,-0.06694 -0.0015,-0.0038 -0.0032,-0.0061 -0.0046,-0.0071 l -3.63e-4,-3.62e-4 c 0.0052,-0.06445 0.02884,-0.125668 0.06835,-0.176022 1.56e-4,3.26e-4 5.25e-4,7.79e-4 7.07e-4,0.0011 l 3.62e-4,3.62e-4 v 3.63e-4 l 3.63e-4,3.63e-4 c 1.23e-4,8.8e-5 9.25e-4,2.72e-4 0.0011,3.62e-4 l 3.63e-4,3.63e-4 h 3.62e-4 l 3.63e-4,3.63e-4 c 0.0084,0.0014 0.02709,-0.01491 0.05206,-0.04675 0.0096,-0.01219 0.01646,-0.02106 0.02019,-0.02656 0.05627,-0.0377 0.126997,-0.06029 0.20896,-0.06021 z m 3.820065,0 c 0.1898715,1.81e-4 0.3552325,0.164775 0.3552325,0.35346 0,0.09925 -0.09078,0.239636 -0.188772,0.29219 -0.05096,0.02733 -0.102304,0.0419 -0.1526475,0.04569 0.0082,-0.0012 0.0139,-0.0034 0.01558,-0.0064 v -3.63e-4 l 3.62e-4,-3.63e-4 v -3.62e-4 -3.63e-4 -3.63e-4 l 3.63e-4,-3.62e-4 -3.63e-4,-3.63e-4 c -2.35e-4,-0.0013 -7.43e-4,-0.0029 -0.0021,-0.0042 -0.0089,-0.0089 -0.03207,-0.0098 -0.05135,-0.0021 -0.0067,0.0027 -0.01069,0.0053 -0.01204,0.0074 v 3.62e-4 l -3.62e-4,3.63e-4 v 3.63e-4 3.62e-4 3.63e-4 3.63e-4 3.62e-4 l 3.62e-4,3.63e-4 3.63e-4,3.63e-4 c 0.0028,0.0028 0.01242,0.005 0.02798,0.0057 0.0024,1.01e-4 0.0041,9e-6 0.0064,0 -0.06507,0.0019 -0.12768,-0.01515 -0.183105,-0.05171 9.24e-4,-1.81e-4 0.0018,-3.81e-4 0.0025,-7.07e-4 l 3.62e-4,-3.63e-4 3.63e-4,-3.63e-4 3.63e-4,-3.62e-4 3.62e-4,-3.63e-4 3.63e-4,-3.63e-4 3.63e-4,-3.62e-4 v -3.63e-4 c 4.1e-5,-1.58e-4 3.26e-4,-8.89e-4 3.62e-4,-0.0011 9e-6,-1.77e-4 7e-6,-8.7e-4 0,-0.0011 -0.0011,-0.0094 -0.02056,-0.03048 -0.05985,-0.06375 l -0.0595,-0.04994 c -4.1e-5,-6.6e-5 4.1e-5,-2.9e-4 0,-3.63e-4 l -3.62e-4,-3.62e-4 c -0.02754,-0.04405 -0.0442,-0.09003 -0.05136,-0.136001 6.71e-4,-0.0011 0.0014,-0.0025 0.0021,-0.0043 0.0074,-0.01836 0.0074,-0.04857 0,-0.06694 -0.0015,-0.0038 -0.0032,-0.0061 -0.0046,-0.0071 l -3.62e-4,-3.62e-4 h -3.63e-4 v -3.63e-4 c 0.0053,-0.06432 0.02926,-0.125404 0.06871,-0.175668 1.56e-4,3.27e-4 5.26e-4,7.8e-4 7.07e-4,0.0011 v 3.63e-4 l 3.63e-4,3.63e-4 3.62e-4,3.62e-4 3.63e-4,3.63e-4 c 1.3e-4,7.6e-5 9.25e-4,2.9e-4 0.0011,3.63e-4 h 3.63e-4 l 3.62e-4,3.62e-4 c 0.0084,0.0014 0.02709,-0.01491 0.05206,-0.04675 0.0096,-0.01219 0.01646,-0.02106 0.02019,-0.02656 0.05626,-0.0377 0.126996,-0.06029 0.208959,-0.06021 z m -3.482188,0.302814 -3.63e-4,3.63e-4 h -3.62e-4 -3.63e-4 l -3.63e-4,3.62e-4 c -0.0028,0.0028 -0.005,0.01242 -0.0057,0.02798 -7.62e-4,0.01848 0.0017,0.03178 0.006,0.03613 2.17e-4,1.67e-4 8.34e-4,9.43e-4 0.0011,0.0011 h 3.62e-4 l 3.63e-4,3.62e-4 h 3.63e-4 3.62e-4 3.63e-4 3.63e-4 3.62e-4 c 0.0013,-2.35e-4 0.0029,-0.0011 0.0043,-0.0025 0.0089,-0.0089 0.0098,-0.03172 0.0021,-0.051 -0.0027,-0.0067 -0.0049,-0.01069 -0.0071,-0.01204 l -3.62e-4,-3.63e-4 h -3.63e-4 -3.63e-4 -3.62e-4 z m 3.8197115,0 v 3.63e-4 h -3.63e-4 -3.62e-4 l -3.63e-4,3.62e-4 h -3.63e-4 c -0.0028,0.0028 -0.0047,0.01242 -0.0053,0.02798 -8.34e-4,0.02024 0.002,0.0343 0.0071,0.03719 h 3.63e-4 l 3.63e-4,3.62e-4 h 3.62e-4 3.63e-4 3.63e-4 3.62e-4 3.63e-4 c 0.0013,-2.36e-4 0.0029,-0.0011 0.0042,-0.0025 0.0089,-0.0089 0.0098,-0.03172 0.0021,-0.051 -0.0027,-0.0067 -0.0049,-0.01069 -0.0071,-0.01204 l -3.63e-4,-3.63e-4 h -3.63e-4 -3.62e-4 -3.63e-4 l -3.63e-4,-3.63e-4 z m -4.4557985,0.219585 0.04994,0.05844 c 0.01223,0.01444 0.02266,0.02624 0.03152,0.03542 -0.01174,-0.0099 -0.02311,-0.02082 -0.034,-0.03258 -0.01835,-0.01983 -0.03416,-0.04016 -0.04746,-0.06127 z m 3.820065,0 0.04994,0.05844 c 0.01143,0.01351 0.02254,0.02606 0.03223,0.03612 -0.01202,-0.01007 -0.02357,-0.02126 -0.03471,-0.03329 -0.01835,-0.01983 -0.03416,-0.04016 -0.04746,-0.06127 z m -5.88239,1.276424 -3.63e-4,3.63e-4 h -3.62e-4 l -3.63e-4,3.63e-4 c -0.0028,0.0028 -0.005,0.01242 -0.0057,0.02798 -7.61e-4,0.01848 0.0017,0.03178 0.006,0.03612 2.17e-4,1.67e-4 8.34e-4,9.43e-4 0.0011,0.0011 h 3.63e-4 3.63e-4 l 3.62e-4,3.63e-4 h 3.63e-4 3.63e-4 3.62e-4 3.63e-4 c 0.0013,-2.36e-4 0.0029,-0.0011 0.0043,-0.0025 0.0089,-0.0089 0.0098,-0.03172 0.0021,-0.051 -0.0027,-0.0067 -0.0049,-0.01069 -0.0071,-0.01204 l -3.63e-4,-3.63e-4 h -3.62e-4 -3.63e-4 l -3.63e-4,-3.62e-4 h -3.62e-4 z m 8.5216575,0 -3.63e-4,3.63e-4 h -3.63e-4 l -3.62e-4,3.63e-4 h -3.63e-4 c -0.0028,0.0028 -0.0047,0.01242 -0.0053,0.02798 -8.34e-4,0.02024 0.002,0.0343 0.0071,0.03719 h 3.62e-4 3.63e-4 l 3.63e-4,3.62e-4 h 3.62e-4 3.63e-4 3.63e-4 3.62e-4 c 0.0013,-2.35e-4 0.0029,-0.0011 0.0043,-0.0025 0.0089,-0.0089 0.0098,-0.03172 0.0021,-0.051 -0.0024,-0.006 -0.0047,-0.01 -0.0067,-0.01169 l -3.63e-4,-3.62e-4 -3.63e-4,-3.63e-4 h -3.62e-4 -3.63e-4 l -3.63e-4,-3.63e-4 h -3.62e-4 z m -9.9464785,0.5819 c -0.01695,0 -0.0339,0.0016 -0.04675,0.005 -0.0048,0.0013 -0.0079,0.0024 -0.0096,0.0035 l -3.63e-4,3.63e-4 -3.63e-4,3.62e-4 -3.62e-4,3.63e-4 v 3.63e-4 h -3.63e-4 v 3.62e-4 3.63e-4 l 3.63e-4,3.63e-4 v 3.62e-4 l 3.62e-4,3.63e-4 c 0.0044,0.0033 0.02488,0.0057 0.05702,0.0057 0.03214,0 0.05262,-0.0024 0.05702,-0.0057 l 3.45e-4,-3.63e-4 3.63e-4,-3.62e-4 v -3.63e-4 -3.63e-4 -3.62e-4 -3.63e-4 h -3.63e-4 l -3.45e-4,-3.63e-4 -3.62e-4,-3.62e-4 c -0.0017,-0.0011 -0.0051,-0.0026 -0.0099,-0.0039 -0.01286,-0.0034 -0.0298,-0.005 -0.04675,-0.005 z m 11.3266745,0 c -0.01695,0 -0.0339,0.0016 -0.04675,0.005 -0.0048,0.0013 -0.0083,0.0024 -0.0099,0.0035 l -3.63e-4,3.63e-4 v 3.62e-4 l -3.62e-4,3.63e-4 h -3.63e-4 v 3.63e-4 3.62e-4 3.63e-4 3.63e-4 3.62e-4 h 3.63e-4 v 3.63e-4 c 0.0044,0.0033 0.02524,0.0057 0.05738,0.0057 0.03214,0 0.05226,-0.0024 0.05667,-0.0057 h 3.63e-4 l 3.63e-4,-3.63e-4 v -3.62e-4 l 3.62e-4,-3.63e-4 v -3.63e-4 l -3.62e-4,-3.62e-4 v -3.63e-4 l -3.63e-4,-3.63e-4 -3.63e-4,-3.62e-4 c -0.0016,-0.0011 -0.0051,-0.0026 -0.0099,-0.0039 -0.01286,-0.0034 -0.0298,-0.005 -0.04675,-0.005 z m -11.3642175,0.02692 c -0.477285,0.01419 -0.918724,0.354062 -1.047985,0.837963 -0.02834,0.106133 -0.03594,0.576119 -0.03612,2.287931 -3.09e-4,2.0831258 0.0015,2.1597968 0.05348,2.3279518 0.121247,0.392552 0.47032,0.697598 0.87763,0.766422 0.01919,0.0032 0.03638,0.0063 0.05206,0.0089 -0.0067,0.0027 -0.01069,0.0053 -0.01204,0.0074 v 3.63e-4 h -3.63e-4 v 3.63e-4 3.62e-4 3.63e-4 3.63e-4 3.62e-4 3.63e-4 l 3.63e-4,3.63e-4 3.63e-4,3.63e-4 c 0.0028,0.0028 0.01207,0.005 0.02762,0.0057 0.01835,7.62e-4 0.03168,-0.0018 0.03613,-0.006 1.41e-4,-1.62e-4 5.98e-4,-8.89e-4 7.07e-4,-0.0011 9e-5,-1.71e-4 6.34e-4,-8.89e-4 7.07e-4,-0.0011 v -3.63e-4 c 0.08555,0.01127 0.124169,0.006 0.253941,-0.01523 0.448365,-0.07343 0.831298,-0.437463 0.923317,-0.877276 0.03826,-0.182842 0.04149,-4.2362038 0.0035,-4.4363188 -0.08592,-0.453052 -0.460009,-0.813479 -0.927567,-0.893569 -0.06884,-0.01179 -0.13759,-0.01655 -0.205773,-0.01452 z m 11.3234875,0.0014 c -0.501481,0.01935 -0.95845,0.395337 -1.055423,0.906672 -0.03793,0.200004 -0.03469,4.2535698 0.0035,4.4363198 0.0893,0.426828 0.474018,0.801812 0.899589,0.876568 0.09512,0.01671 0.196592,0.01845 0.298919,0.0067 -0.0014,4.53e-4 -0.0029,8.88e-4 -0.0043,0.0014 -0.0067,0.0027 -0.01069,0.0053 -0.01204,0.0074 v 3.62e-4 l -3.63e-4,3.63e-4 v 3.63e-4 3.62e-4 3.63e-4 3.63e-4 3.62e-4 h 3.63e-4 v 3.63e-4 l 3.63e-4,3.63e-4 3.62e-4,3.62e-4 c 0.0034,0.0025 0.01304,0.0047 0.02763,0.0053 0.02024,8.35e-4 0.03394,-0.0024 0.03683,-0.0074 l 3.63e-4,-3.63e-4 v -3.62e-4 -3.63e-4 l 3.62e-4,-3.63e-4 v -3.62e-4 -3.63e-4 -3.63e-4 c -2.35e-4,-0.0013 -0.0011,-0.0029 -0.0025,-0.0042 -0.004,-0.004 -0.01092,-0.0064 -0.01913,-0.0071 0.181429,-0.02512 0.364313,-0.09255 0.520275,-0.195855 0.170213,-0.112745 0.347328,-0.358532 0.414023,-0.574462 0.05194,-0.168155 0.05379,-0.244826 0.05348,-2.3279518 -1.81e-4,-1.711813 -0.0078,-2.181798 -0.03613,-2.287931 -0.114995,-0.430498 -0.463692,-0.745662 -0.909504,-0.822026 -0.07255,-0.01243 -0.145112,-0.01729 -0.216752,-0.01452 z m 0.721796,0.195501 0.105543,0.113334 c 0.05808,0.06244 0.109324,0.113689 0.113688,0.113689 0.0019,0 0.0035,-2.54e-4 0.0046,-7.08e-4 1.69e-4,-8.9e-5 9.07e-4,-5.98e-4 0.0011,-7.07e-4 h 3.63e-4 v -3.63e-4 l 3.63e-4,-3.62e-4 v -3.63e-4 h 3.62e-4 v -3.63e-4 c 0.0015,-0.0092 -0.02814,-0.04039 -0.112272,-0.118646 z m -12.7047465,0.0131 -3.45e-4,3.63e-4 c -0.0098,0.0029 -0.06163,0.04967 -0.117229,0.106605 -0.05021,0.05142 -0.08803,0.09483 -0.09173,0.104834 v 3.62e-4 3.63e-4 l -3.62e-4,3.63e-4 v 3.62e-4 h 3.62e-4 v 3.63e-4 3.63e-4 h 3.63e-4 3.63e-4 3.62e-4 c 0.0098,-0.0029 0.06164,-0.05003 0.117229,-0.106959 0.05111,-0.05234 0.0892,-0.09622 0.09173,-0.105188 v -3.63e-4 -3.63e-4 -3.62e-4 -3.63e-4 h -3.62e-4 z m 1.404988,0.01346 0.07863,0.08677 c 0.04315,0.04775 0.08216,0.08677 0.08677,0.08677 0.0023,0 0.004,-1.43e-4 0.0053,-7.07e-4 1.65e-4,-9.4e-5 9.25e-4,-2.54e-4 0.0011,-3.63e-4 l 3.63e-4,-3.63e-4 c 1.03e-4,-1.32e-4 2.72e-4,-9.25e-4 3.63e-4,-0.0011 l 3.62e-4,-3.62e-4 c 7.8e-5,-3.45e-4 3.63e-4,-0.0014 3.63e-4,-0.0018 -0.0012,-0.0101 -0.02699,-0.03661 -0.08642,-0.09031 z m 0.721088,0 -0.0078,3.165561 c -0.0056,2.2792198 8.34e-4,3.2101748 0.02267,3.3249378 0.079,0.415393 0.381639,0.724809 0.794755,0.812463 0.07786,0.01652 0.278496,0.0301 0.445898,0.0301 h 0.304231 l 0.0085,1.181862 c 0.008,1.138855 0.01049,1.187652 0.06658,1.336278 0.117087,0.310236 0.36886,0.555273 0.681775,0.663359 0.505469,0.174596 1.12331,-0.08916 1.345488,-0.574462 0.107166,-0.234083 0.117938,-0.373299 0.117938,-1.515488 v -1.091549 h 0.49442 0.494065 v 1.091549 c 0,0.618326 0.0117,1.153835 0.02692,1.235341 0.06392,0.342492 0.318958,0.672112 0.634316,0.8199 0.136872,0.06415 0.184032,0.07191 0.433857,0.07119 0.228908,-7.25e-4 0.309165,-0.01213 0.4352745,-0.06233 0.316699,-0.126089 0.593648,-0.474209 0.659816,-0.828754 0.0152,-0.08147 0.02692,-0.616213 0.02692,-1.232508 v -1.088361 l 0.367273,-0.01204 c 0.296585,-0.0097 0.397028,-0.02372 0.520983,-0.0719 0.213497,-0.08297 0.424096,-0.282 0.533732,-0.504691 l 0.08748,-0.177793 V 8.6960862 5.4097532 H 8.0139415 Z m 9.1896205,0 -0.08677,0.07863 c -0.04775,0.04315 -0.08677,0.08217 -0.08677,0.08677 0,0.0023 1.43e-4,0.004 7.08e-4,0.0053 9.3e-5,1.65e-4 5.98e-4,9.25e-4 7.07e-4,0.0011 l 3.62e-4,3.62e-4 3.63e-4,3.63e-4 3.63e-4,3.63e-4 h 3.62e-4 c 3.45e-4,7.8e-5 0.0014,3.62e-4 0.0018,3.62e-4 0.0101,-0.0012 0.03661,-0.02699 0.09031,-0.08642 z m -0.661233,0.850005 c -0.0041,-0.452848 -0.0074,-0.08979 -0.0074,0.806443 -4e-6,0.896236 0.0033,1.266476 0.0074,0.823088 0.0041,-0.443388 0.0041,-1.176683 0,-1.629531 z m -8.8152645,0.999819 c -0.004,-0.576676 -0.0074,-0.104659 -0.0074,1.048694 0,1.153353 0.0034,1.625016 0.0074,1.04834 0.004,-0.576677 0.004,-1.520358 0,-2.097034 z m 9.0557445,0 c -0.004,-0.576676 -0.0074,-0.104659 -0.0074,1.048694 0,1.153353 0.0034,1.625016 0.0074,1.04834 0.004,-0.576677 0.004,-1.520358 0,-2.097034 z m -11.3266735,0.0021 c -0.004,-0.577767 -0.0071,-0.112896 -0.0071,1.033111 0,1.146006 0.0031,1.618704 0.0071,1.050465 0.004,-0.568239 0.004,-1.505808 0,-2.083576 z m 13.5972505,0 c -0.004,-0.577767 -0.0074,-0.112896 -0.0074,1.033111 -2e-6,1.146006 0.0034,1.618704 0.0074,1.050465 0.004,-0.568239 0.004,-1.505808 0,-2.083576 z m -2.511057,2.173181 c -0.0041,-0.421357 -0.0074,-0.06874 -0.0074,0.7834218 4e-6,0.852159 0.0033,1.196869 0.0074,0.766067 0.0041,-0.430801 0.0041,-1.1281308 0,-1.5494888 z m -11.0978825,0.9396098 -3.63e-4,3.63e-4 v 3.63e-4 c -0.0028,0.0028 -0.005,0.01207 -0.0057,0.02763 -7.98e-4,0.01936 0.0021,0.03317 0.0067,0.03683 l 3.63e-4,3.63e-4 h 3.44e-4 l 3.63e-4,3.63e-4 h 3.62e-4 3.63e-4 3.63e-4 3.44e-4 3.63e-4 c 0.0013,-2.36e-4 0.0029,-0.0011 0.0042,-0.0025 0.0089,-0.0089 0.0099,-0.03172 0.0021,-0.051 -0.0027,-0.0067 -0.0049,-0.01069 -0.0071,-0.01204 h -3.63e-4 l -3.63e-4,-3.63e-4 h -3.62e-4 -3.63e-4 -3.44e-4 -3.63e-4 -3.63e-4 z m 13.5972525,0 -3.62e-4,3.63e-4 -3.63e-4,3.63e-4 c -0.0028,0.0028 -0.0047,0.01207 -0.0053,0.02763 -9.07e-4,0.02024 0.002,0.0343 0.0071,0.03719 h 3.63e-4 l 3.62e-4,3.62e-4 h 3.63e-4 3.63e-4 3.62e-4 3.63e-4 3.63e-4 c 0.0013,-2.35e-4 0.0029,-0.0011 0.0042,-0.0025 0.0089,-0.0089 0.0098,-0.03172 0.0021,-0.051 -0.0024,-0.006 -0.0048,-0.01 -0.0067,-0.01169 l -3.63e-4,-3.63e-4 h -3.62e-4 l -3.63e-4,-3.62e-4 h -3.63e-4 -3.62e-4 -3.63e-4 -3.63e-4 -3.62e-4 z m -13.3518125,0.645296 0.06481,0.07331 c 0.03451,0.03914 0.06663,0.07134 0.07296,0.07331 h 3.63e-4 3.63e-4 c 0.0026,0 0.0046,-3.44e-4 0.006,-0.0011 h 3.63e-4 c 1.36e-4,-1.12e-4 9.43e-4,-5.8e-4 0.0011,-7.07e-4 9.6e-5,-1.36e-4 2.72e-4,-9.07e-4 3.62e-4,-0.0011 l 3.63e-4,-3.63e-4 c 3.8e-5,-1.73e-4 -1.6e-5,-8.7e-4 0,-0.0011 -1.45e-4,-0.0093 -0.02254,-0.03347 -0.07296,-0.07792 z m 11.3532365,0 0.06481,0.07331 c 0.04351,0.04935 0.06713,0.07188 0.07686,0.07296 3.99e-4,6e-6 0.0014,7.5e-5 0.0018,0 h 3.63e-4 l 3.62e-4,-3.63e-4 c 1.37e-4,-9.7e-5 9.43e-4,-2.36e-4 0.0011,-3.62e-4 1.13e-4,-1.37e-4 2.54e-4,-9.07e-4 3.63e-4,-0.0011 8.9e-5,-1.76e-4 6.35e-4,-8.71e-4 7.07e-4,-0.0011 3.99e-4,-0.0013 7.07e-4,-0.0033 7.07e-4,-0.0053 v -3.63e-4 c -0.002,-0.0063 -0.03417,-0.03881 -0.07331,-0.07331 z m -9.6078925,0.0131 c -0.0087,0.0018 -0.04201,0.03136 -0.07544,0.06694 -0.02966,0.03157 -0.05046,0.0583 -0.051,0.06517 v 3.63e-4 3.62e-4 l 3.62e-4,3.63e-4 v 3.63e-4 h 3.63e-4 3.63e-4 3.62e-4 3.63e-4 c 0.0087,-0.0018 0.04236,-0.031 0.07579,-0.06658 0.02912,-0.03099 0.0494,-0.05737 0.05064,-0.06481 v -3.63e-4 -3.62e-4 -3.63e-4 -3.63e-4 l -3.62e-4,-3.62e-4 h -3.63e-4 v -3.63e-4 h -3.63e-4 -3.62e-4 z m 11.3532365,0 c -0.0087,0.0018 -0.04236,0.03136 -0.07579,0.06694 -0.02965,0.03157 -0.05011,0.0583 -0.05065,0.06517 v 3.63e-4 3.62e-4 l 3.63e-4,3.63e-4 v 3.63e-4 h 3.63e-4 3.62e-4 3.63e-4 3.63e-4 c 0.0087,-0.0018 0.04236,-0.031 0.07579,-0.06658 0.02912,-0.03099 0.0494,-0.05737 0.05065,-0.06481 v -3.63e-4 -3.62e-4 -3.63e-4 -3.63e-4 h -3.63e-4 v -3.62e-4 h -3.63e-4 v -3.63e-4 h -3.62e-4 -3.63e-4 z m -2.257472,0.730651 -3.62e-4,3.62e-4 h -3.63e-4 l -3.63e-4,3.63e-4 c -0.0028,0.0028 -0.0047,0.01242 -0.0053,0.02798 -8.34e-4,0.02024 0.002,0.03394 0.0071,0.03683 l 3.63e-4,3.62e-4 h 3.62e-4 3.63e-4 3.63e-4 l 3.62e-4,3.63e-4 h 3.63e-4 3.63e-4 c 0.0013,-2.36e-4 0.0029,-0.0011 0.0042,-0.0025 0.0089,-0.0089 0.0098,-0.03207 0.0021,-0.05135 -0.0027,-0.0067 -0.0049,-0.01069 -0.0071,-0.01204 h -3.63e-4 l -3.63e-4,-3.62e-4 h -3.62e-4 -3.63e-4 -3.63e-4 -3.62e-4 z m -8.3300525,0.591816 0.07863,0.08677 c 0.05485,0.0607 0.08104,0.08622 0.09067,0.08642 1.81e-4,-1.8e-5 8.88e-4,-3.08e-4 0.0011,-3.62e-4 1.57e-4,-6.1e-5 9.24e-4,-2.72e-4 0.0011,-3.63e-4 h 3.63e-4 c 1.18e-4,-1.24e-4 5.98e-4,-9.25e-4 7.07e-4,-0.0011 l 3.63e-4,-3.63e-4 c 5.62e-4,-0.0013 0.0011,-0.0034 0.0011,-0.0057 0,-0.0046 -0.03902,-0.04397 -0.08677,-0.08713 z m 8.0750515,0.04002 c -0.0083,0.0014 -0.03516,0.02501 -0.06092,0.05348 -0.02161,0.02387 -0.03612,0.04421 -0.03683,0.051 v 3.63e-4 3.63e-4 3.62e-4 l 3.63e-4,3.63e-4 v 3.63e-4 h 3.62e-4 v 3.62e-4 h 3.63e-4 l 3.63e-4,3.63e-4 h 3.62e-4 3.63e-4 c 0.0083,-0.0014 0.03586,-0.02501 0.06162,-0.05348 0.02161,-0.02388 0.03576,-0.04421 0.03648,-0.051 v -3.62e-4 -3.63e-4 -3.63e-4 -3.62e-4 -3.63e-4 l -3.63e-4,-3.63e-4 h -3.63e-4 v -3.62e-4 h -3.62e-4 -3.63e-4 -3.63e-4 -3.62e-4 z m -6.4720825,3.192124 0.06481,0.07367 c 0.03451,0.03914 0.06663,0.07134 0.07296,0.07331 h 3.62e-4 c 0.0023,0 0.0043,-1.66e-4 0.0057,-7.25e-4 1.76e-4,-8.9e-5 9.07e-4,-5.44e-4 0.0011,-7.25e-4 h 3.63e-4 c 1.17e-4,-1.24e-4 6.16e-4,-9.07e-4 7.07e-4,-0.0011 l 3.62e-4,-3.63e-4 v -3.63e-4 c 7.5e-5,-3.62e-4 3.63e-4,-0.0015 3.63e-4,-0.0018 -0.0011,-0.0097 -0.02396,-0.0337 -0.07331,-0.07721 z m 3.232499,0 0.06446,0.07367 c 0.03451,0.03914 0.06664,0.07134 0.07296,0.07331 h 3.62e-4 3.63e-4 c 0.002,0 0.0037,4.2e-5 0.005,-3.62e-4 1.99e-4,-7.8e-5 8.88e-4,-5.44e-4 0.0011,-7.26e-4 1.57e-4,-9.9e-5 9.25e-4,-1.81e-4 0.0011,-3.62e-4 1.17e-4,-1.24e-4 2.54e-4,-9.07e-4 3.63e-4,-0.0011 l 3.63e-4,-3.63e-4 3.62e-4,-3.63e-4 c 7.5e-5,-3.62e-4 6e-6,-0.0015 0,-0.0018 -0.0011,-0.0097 -0.02361,-0.0337 -0.07296,-0.07721 z m 1.6904485,0.01346 c -0.0083,0.0015 -0.03551,0.02501 -0.06127,0.05348 -0.02161,0.02387 -0.03576,0.04421 -0.03648,0.051 v 3.63e-4 3.62e-4 3.63e-4 3.63e-4 3.62e-4 h 3.63e-4 v 3.63e-4 h 3.63e-4 l 3.62e-4,3.63e-4 h 3.63e-4 3.63e-4 3.63e-4 c 0.0083,-0.0015 0.03551,-0.02501 0.06127,-0.05348 0.02161,-0.02388 0.03612,-0.04421 0.03683,-0.051 v -3.63e-4 -3.62e-4 -3.63e-4 -3.63e-4 l -3.62e-4,-3.62e-4 -3.63e-4,-3.63e-4 h -3.63e-4 l -3.62e-4,-3.63e-4 h -3.63e-4 -3.63e-4 z m -4.0304425,0.37719 c -0.0093,-3.63e-4 -0.01975,0.0015 -0.0294,0.0053 -0.0067,0.0027 -0.01069,0.0049 -0.01204,0.0071 v 3.63e-4 l -3.63e-4,3.62e-4 v 3.63e-4 3.63e-4 3.62e-4 3.63e-4 3.63e-4 l 3.63e-4,3.62e-4 v 3.63e-4 l 3.63e-4,3.63e-4 c 0.0028,0.0028 0.01242,0.005 0.02798,0.0057 0.02024,9.07e-4 0.03394,-0.0024 0.03683,-0.0074 l 3.63e-4,-3.63e-4 v -3.63e-4 -3.62e-4 l 3.63e-4,-3.63e-4 v -3.63e-4 -3.62e-4 -3.63e-4 c -2.36e-4,-0.0013 -0.0011,-0.0029 -0.0025,-0.0042 -0.0044,-0.0044 -0.01268,-0.0071 -0.02196,-0.0074 z m 0.0804,0 c -0.0093,-3.63e-4 -0.02011,0.0015 -0.02975,0.0053 -0.006,0.0024 -0.0096,0.0048 -0.01133,0.0067 l -3.62e-4,3.63e-4 -3.63e-4,3.63e-4 v 3.62e-4 l -3.63e-4,3.63e-4 v 3.63e-4 3.62e-4 3.63e-4 3.63e-4 h 3.63e-4 v 3.62e-4 3.63e-4 l 3.63e-4,3.63e-4 c 0.0028,0.0028 0.01242,0.005 0.02798,0.0057 0.02024,9.07e-4 0.03394,-0.0024 0.03683,-0.0074 l 3.63e-4,-3.63e-4 v -3.63e-4 l 3.63e-4,-3.62e-4 v -3.63e-4 -3.63e-4 -3.62e-4 -3.63e-4 c -2.36e-4,-0.0013 -0.0011,-0.0029 -0.0025,-0.0042 -0.0044,-0.0044 -0.01232,-0.0071 -0.0216,-0.0074 z m 3.045144,0 c -0.0093,-3.63e-4 -0.01975,0.0015 -0.0294,0.0053 -0.0067,0.0027 -0.01069,0.0049 -0.01204,0.0071 v 3.63e-4 l -3.62e-4,3.62e-4 v 3.63e-4 3.63e-4 3.62e-4 3.63e-4 3.63e-4 l 3.62e-4,3.62e-4 v 3.63e-4 l 3.63e-4,3.63e-4 c 0.0028,0.0028 0.01242,0.005 0.02798,0.0057 0.02024,9.07e-4 0.03394,-0.0024 0.03683,-0.0074 v -3.63e-4 l 3.63e-4,-3.63e-4 V 15.991363 15.991 l 3.62e-4,-3.63e-4 v -3.62e-4 l -3.62e-4,-3.63e-4 c -2.36e-4,-0.0013 -7.44e-4,-0.0029 -0.0021,-0.0042 -0.0044,-0.0044 -0.01268,-0.0071 -0.02196,-0.0074 z m 0.0804,0 c -0.0093,-3.63e-4 -0.02011,0.0015 -0.02975,0.0053 -0.0067,0.0027 -0.01069,0.0049 -0.01204,0.0071 v 3.63e-4 3.62e-4 l -3.62e-4,3.63e-4 v 3.63e-4 3.62e-4 3.63e-4 3.63e-4 l 3.62e-4,3.62e-4 v 3.63e-4 l 3.63e-4,3.63e-4 c 0.0028,0.0028 0.01242,0.005 0.02798,0.0057 0.0176,7.26e-4 0.03049,-0.0018 0.03542,-0.0057 4.17e-4,-3.63e-4 0.0012,-0.0013 0.0014,-0.0018 l 3.62e-4,-3.62e-4 v -3.63e-4 -3.63e-4 l 3.63e-4,-3.62e-4 v -3.63e-4 -3.63e-4 -3.62e-4 c -2.36e-4,-0.0013 -0.0011,-0.0029 -0.0025,-0.0042 -0.0044,-0.0044 -0.01232,-0.0071 -0.0216,-0.0074 z m 0.08004,0 c -0.0093,-3.63e-4 -0.01975,0.0015 -0.0294,0.0053 -0.006,0.0024 -0.01,0.0048 -0.01169,0.0067 l -3.62e-4,3.63e-4 -3.63e-4,3.63e-4 v 3.62e-4 3.63e-4 l -3.63e-4,3.63e-4 v 3.62e-4 3.63e-4 3.63e-4 h 3.63e-4 v 3.62e-4 l 3.63e-4,3.63e-4 v 3.63e-4 c 0.0028,0.0028 0.01242,0.005 0.02798,0.0057 0.02024,9.07e-4 0.0343,-0.0024 0.03719,-0.0074 v -3.63e-4 -3.63e-4 l 3.62e-4,-3.62e-4 v -3.63e-4 -3.63e-4 -3.62e-4 -3.63e-4 c -2.35e-4,-0.0013 -0.0011,-0.0029 -0.0025,-0.0042 -0.0044,-0.0044 -0.01232,-0.0071 -0.0216,-0.0074 z m -3.390458,3.63e-4 c -0.0121,0 -0.02411,0.002 -0.03329,0.0057 -0.0034,0.0015 -0.0059,0.0026 -0.0071,0.0039 v 3.63e-4 l -3.63e-4,3.62e-4 h -3.62e-4 v 3.63e-4 3.63e-4 3.62e-4 3.63e-4 3.63e-4 3.62e-4 l 3.62e-4,3.63e-4 v 3.63e-4 l 3.63e-4,3.62e-4 c 0.0041,0.0033 0.01857,0.0057 0.04038,0.0057 0.02181,0 0.03596,-0.0024 0.04002,-0.0057 h 3.63e-4 l 3.63e-4,-3.62e-4 v -3.63e-4 l 3.62e-4,-3.63e-4 v -3.62e-4 -3.63e-4 -3.63e-4 -3.62e-4 -3.63e-4 -3.63e-4 h -3.62e-4 v -3.62e-4 c -0.0012,-0.0013 -0.004,-0.0029 -0.0074,-0.0042 -0.0092,-0.0037 -0.02119,-0.0057 -0.03329,-0.0057 z" />
</svg>
