<?xml version="1.0" encoding="UTF-8" standalone="no"?>
<svg
   width="16"
   height="16"
   version="1"
   id="svg566"
   xmlns="http://www.w3.org/2000/svg"
   xmlns:svg="http://www.w3.org/2000/svg">
  <defs
     id="defs570" />
  <path
     d="M 10.59191,10.586671 16,5.173342 15.335756,4.492681 C 14.970361,4.118378 14.591342,3.812194 14.493531,3.812194 c -0.272125,0 -12.319594,12.046691 -12.183182,12.183277 l 1.589525,0.0045 h 1.283947 z m 1.764096,2.488948 2.918967,-2.924557 -0.72555,-0.712625 -0.72555,-0.71245 -3.631941,3.637007 L 6.560165,16 H 9.436864 Z M 14.832727,15.020665 15.801232,14.04133 15.076381,13.329404 14.35153,12.617652 12.667779,14.308739 10.984028,16 h 2.880193 z M 5.703618,11.055816 6.263413,10.512964 5.381365,9.619388 C 4.564991,8.792184 4.502811,8.671842 4.544032,8.000262 4.603942,7.024945 4.367272,6.473708 3.655695,5.930506 2.146956,4.779128 0,5.871121 0,7.790143 c 0,1.397129 1.11435,2.3838 2.538027,2.246864 0.801354,-0.07703 0.847464,-0.05607 1.632225,0.74127 0.444342,0.451329 0.845019,0.820566 0.890781,0.820566 0.04541,0 0.334655,-0.244353 0.642585,-0.543027 M 1.619299,8.455085 c -0.550537,-0.550887 -0.15545,-1.59607 0.603287,-1.59607 0.610796,0 0.991735,0.322951 0.991735,0.840303 0,0.592981 -0.390371,1.021778 -0.930428,1.021778 -0.219203,0 -0.5184,-0.119644 -0.664594,-0.266011"
     style="display:inline;fill:#000000;stroke-width:0.174663;enable-background:new"
     id="path2-0" />
</svg>
