<?xml version="1.0" encoding="UTF-8" standalone="no"?>
<svg
   height="16px"
   viewBox="0 0 16 16"
   width="16px"
   version="1.1"
   id="svg135"
   xmlns="http://www.w3.org/2000/svg"
   xmlns:svg="http://www.w3.org/2000/svg">
  <defs
     id="defs139" />
  <path
     id="rect1711"
     style="display:inline;fill:#000000;fill-opacity:1;stroke:none;stroke-width:0.0354597;stroke-linecap:butt;stroke-linejoin:miter;stroke-miterlimit:4;stroke-dasharray:none;stroke-dashoffset:0;stroke-opacity:1;marker:none;marker-start:none;marker-mid:none;marker-end:none;paint-order:normal;enable-background:new"
     d="M 1.230769,0.834886 C 0.548925,0.834886 0,1.301592 0,1.88116 v 10.984676 c 0,0.579568 0.548925,1.045973 1.230769,1.045973 h 0.76232 v 1.253305 h 2.024038 v -1.253305 h 7.965746 v 1.253305 h 2.024038 v -1.253305 h 0.76232 C 15.451076,13.911809 16,13.445404 16,12.865836 V 1.88116 C 16,1.301592 15.451076,0.834886 14.769231,0.834886 Z m 1.688402,2.22536 H 13.08113 c 0.441991,0 0.797776,0.355786 0.797776,0.797777 v 7.030649 c 0,0.441991 -0.355785,0.797776 -0.797776,0.797776 H 2.919171 c -0.441991,0 -0.798077,-0.355785 -0.798077,-0.797776 V 3.858023 c 0,-0.441991 0.356086,-0.797777 0.798077,-0.797777 z" />
</svg>
