<?xml version="1.0" encoding="UTF-8" standalone="no"?>
<svg
   height="16px"
   viewBox="0 0 16 16"
   width="16px"
   version="1.1"
   id="svg135"
   xml:space="preserve"
   xmlns="http://www.w3.org/2000/svg"
   xmlns:svg="http://www.w3.org/2000/svg"><defs
     id="defs139" /><path
     style="fill:#000000;stroke-width:0.32"
     d="m 7.2383995,1.5999995 c -0.294399,0 -0.441599,0 -0.5535986,0.0576 -0.0992,0.048 -0.1760011,0.128 -0.2272009,0.224 -0.0576,0.112 -0.0576,0.256 -0.0576,0.5472 v 3.2768 l -2.3327991,-2.3168 c -0.208,-0.2048 -0.3104011,-0.3072 -0.432,-0.3456 -0.1024014,-0.0352 -0.2176014,-0.0352 -0.3232,0 -0.1184014,0.0384 -0.2208004,0.1408 -0.4288002,0.3456 l -1.0815995,1.072 c -0.2048007,0.2048 -0.3104007,0.3072 -0.3488017,0.4256 -0.031998,0.1056 -0.031998,0.2176 0,0.32 0.038401,0.1184 0.144001,0.2208 0.3488017,0.4288 l 2.3359986,2.3648 h -3.2992 c -0.2943991,0 -0.4415996,0.016 -0.5535986,0.0704 -0.0992,0.0512 -0.1760014,0.128 -0.227201,0.2272 C 0,8.4095995 0,8.5535995 0,8.8447995 V 10.2944 c 0,0.2912 0,0.4384 0.0576,0.5472 0.0512,0.0992 0.1280007,0.1792 0.227201,0.2272 C 0.3968,11.126399 0.5440005,11.2 0.8383996,11.2 H 5.6736007 L 7.3312014,8.9343995 c 0.1759993,-0.288 0.3551982,-0.464 0.6687989,-0.5376 0.3264004,0.0192 0.4831993,0.2976 0.6688002,0.5376 L 10.3232,11.2 h 4.8384 c 0.294401,0 0.4416,-0.0736 0.550399,-0.1312 0.0992,-0.048 0.179201,-0.128 0.230401,-0.2272 C 16,10.732799 16,10.5856 16,10.2944 V 8.8447995 c 0,-0.2912 0,-0.4352 -0.0576,-0.5472 -0.0512,-0.0992 -0.1312,-0.176 -0.230401,-0.2272 -0.108799,-0.0544 -0.255998,-0.0704 -0.550399,-0.0704 h -3.2992 l 2.3328,-2.3648 c 0.208001,-0.208 0.3136,-0.3104 0.352,-0.4288 0.032,-0.1024 0.032,-0.2144 0,-0.32 -0.0384,-0.1184 -0.143999,-0.2208 -0.352,-0.4256 l -1.0784,-1.072 c -0.208,-0.2048 -0.310399,-0.3072 -0.428799,-0.3456 -0.1056,-0.0352 -0.217601,-0.0352 -0.3232,0 -0.121601,0.0384 -0.224,0.1408 -0.432,0.3456 l -2.3328012,2.3168 v -3.2768 c 0,-0.2912 0,-0.4352 -0.0576,-0.5472 -0.0512,-0.096 -0.1312002,-0.176 -0.2271993,-0.224 -0.112001,-0.0576 -0.2591996,-0.0576 -0.5536003,-0.0576 z M 10.323199,11.2 H 5.6736009 l -1.4688011,1.872 c -0.3232,0.428799 -0.4863986,0.64 -0.4831996,0.819199 0.0064,0.156801 0.076799,0.304 0.2015996,0.4 0.1408002,0.108802 0.4096007,0.108802 0.9504004,0.108802 H 11.1264 c 0.5376,0 0.809601,0 0.950401,-0.108802 0.1216,-0.096 0.1952,-0.243199 0.201599,-0.4 0.0032,-0.1792 -0.159999,-0.3904 -0.4832,-0.819199 z"
     id="path1-9" /></svg>
