<?xml version="1.0" encoding="UTF-8" standalone="no"?>
<svg
   width="16"
   height="16"
   version="1"
   id="svg566"
   xmlns="http://www.w3.org/2000/svg"
   xmlns:svg="http://www.w3.org/2000/svg">
  <defs
     id="defs570" />
  <path
     id="path39"
     style="display:inline;fill:#000000;stroke-width:0.0374709;enable-background:new"
     d="m 5.3110606,3.896938 c -0.37457,0 -0.47456,0.01034 -0.45272,0.04684 0.0154,0.02576 0.24411,0.311493 0.50812,0.634956 0.26402,0.323464 0.48003,0.597252 0.48003,0.608391 0,0.01114 -0.5258,0.02471 -1.16841,0.03015 l -1.1684,0.0099 -0.24612,0.974243 -0.24613,0.974243 -0.81499,0.01009 c -0.71554,0.0089 -0.81499,0.003 -0.81499,-0.04801 0,-0.03195 0.10117,-0.461721 0.22483,-0.955069 0.12365,-0.493348 0.22482,-0.914359 0.22482,-0.935602 0,-0.0245 -0.17489,-0.03864 -0.47819,-0.03864 H 0.88079054 l -0.44094,1.7705 C 0.19735054,7.952704 -5.5946063e-4,8.762076 5.3936596e-7,8.777533 6.2053937e-4,8.792983 0.58276054,8.805633 1.2937706,8.805633 c 1.14086,0 1.29275,0.0068 1.29275,0.05789 0,0.03184 -0.0675,0.326168 -0.14988,0.654057 -0.0824,0.327889 -0.14989,0.605125 -0.14989,0.616074 0,0.01095 0.54546,0.02435 1.21217,0.02979 l 1.21217,0.0099 -0.69029,0.786889 c -0.37968,0.432789 -0.75811,0.866983 -0.84097,0.964875 l -0.15069,0.177988 0.74357,-9.23e-4 0.74356,-9.24e-4 0.78689,-0.973366 0.78689,-0.973364 1.91021,0.0094 1.91028,0.0094 0.7837394,0.964875 0.78374,0.964876 h 0.74672 0.74663 L 12.62206,11.704356 C 12.42992,11.485074 12.05007,11.05088 11.77794,10.73948 l -0.49481,-0.566161 1.21612,-0.0099 c 0.66886,-0.0054 1.21569,-0.01387 1.21517,-0.01874 -4.6e-4,-0.0049 -0.0743,-0.299054 -0.16393,-0.653692 -0.0897,-0.354639 -0.15389,-0.653937 -0.14271,-0.665108 0.0112,-0.01117 0.59922,-0.02027 1.30679,-0.02027 0.70758,0 1.28603,-0.01265 1.28543,-0.0281 -6.1e-4,-0.01546 -0.19982,-0.820614 -0.44262,-1.789236 l -0.44146,-1.761132 -0.49005,-0.01038 -0.49005,-0.01046 0.23844,0.947238 c 0.13114,0.520959 0.23884,0.968242 0.23939,0.994003 7.7e-4,0.03607 -0.18742,0.04684 -0.81872,0.04684 H 12.97525 L 12.76272,6.341919 C 12.64582,5.873065 12.5335,5.426448 12.51316,5.349453 l -0.037,-0.140003 -1.17558,-0.0099 -1.17557,-0.0099 0.41262,-0.505857 c 0.22694,-0.27822 0.46287,-0.569089 0.5243,-0.646372 l 0.11168,-0.140517 h -0.48632 -0.48632 l -0.5720894,0.655741 -0.57208,0.65574 h -1.05966 -1.05965 l -0.57289,-0.65574 -0.57282,-0.655741 z m -0.851,2.285725 h 0.82436 0.82436 v 0.82436 0.82436 h -0.82436 -0.82436 v -0.82436 z m 5.43328,0 H 10.7177 11.54206 v 0.82436 0.82436 H 10.7177 9.8933406 v -0.82436 z" />
</svg>
