<?xml version="1.0" encoding="UTF-8" standalone="no"?>
<svg
   height="16px"
   viewBox="0 0 16 16"
   width="16px"
   version="1.1"
   id="svg204"
   xml:space="preserve"
   xmlns="http://www.w3.org/2000/svg"
   xmlns:svg="http://www.w3.org/2000/svg"><defs
     id="defs208" /><path
     style="fill:#000000;fill-opacity:1;stroke-width:0.0502093"
     d="M 2.8436694,9.581942 V 3.163899 L 2.019973,2.033832 0.8760216,0.451883 0.5557665,0 5.2980403,4.09e-4 c 5.1978557,4.42e-4 5.5462467,0.02104 6.6214257,0.391638 1.139205,0.392667 2.164496,1.133741 2.756867,2.179759 0.462151,0.816065 0.579883,1.597593 0.62637,2.434104 0.03114,0.560307 -0.06378,1.17295 -0.236318,1.666846 -0.475005,1.359707 -1.36271,2.306976 -2.574093,2.790122 l -0.687543,0.274219 0.411797,0.683808 1.385292,2.399181 1.133681,1.941421 L 15.444233,16 H 13.160911 10.991238 L 10.736067,15.548117 10.001698,14.225943 7.7923884,10.192474 7.6787486,9.998076 H 7.1566397 6.8097661 V 12.953977 16 H 4.7516169 2.8436694 Z M 9.6634635,7.159904 C 10.19435,7.073764 10.570432,6.885741 10.890084,6.546663 11.217886,6.198934 11.321141,5.662053 11.30974,5.18828 11.29829,4.712465 11.22141,4.234259 10.823143,3.845894 10.286908,3.322991 10.062582,3.273467 8.230273,3.273467 H 6.8398066 v 1.903656 2.008366 c 0,0 2.3548779,0.05048 2.8236569,-0.02559 z"
     id="path1" /></svg>
