<?xml version="1.0" encoding="UTF-8" standalone="no"?>
<!-- Created with Inkscape (http://www.inkscape.org/) -->

<svg
   width="16"
   height="16"
   viewBox="0 0 4.2333332 4.2333333"
   version="1.1"
   id="svg2572"
   xmlns="http://www.w3.org/2000/svg"
   xmlns:svg="http://www.w3.org/2000/svg">
  <defs
     id="defs2569" />
  <path
     id="rect1711-61-4"
     style="display:inline;fill:#000000;fill-opacity:0.980392;stroke:none;stroke-width:0.0100934;stroke-linecap:butt;stroke-linejoin:miter;stroke-miterlimit:4;stroke-dasharray:none;stroke-dashoffset:0;stroke-opacity:1;marker:none;marker-start:none;marker-mid:none;marker-end:none;paint-order:normal;enable-background:new"
     d="m 0.32556113,0.11420493 c -0.180405,0 -0.325561005,0.1429148 -0.325561005,0.3203939 V 3.7987345 c 0,0.177479 0.145156005,0.3203938 0.325561005,0.3203938 H 3.9077711 c 0.180405,0 0.325562,-0.1429148 0.325562,-0.3203938 V 0.43459883 c 0,-0.1774791 -0.145157,-0.3203939 -0.325562,-0.3203939 z m 0.274919,0.4273641 h 0.007234 0.72243697 c 0.203407,0 0.350276,0.056016 0.462504,0.1612305 0.09119,0.091179 0.133325,0.2103081 0.133325,0.35760087 v 0.00723 c 0,0.1262536 -0.02782,0.2315772 -0.09095,0.315743 -0.06313,0.077163 -0.147271,0.1401181 -0.245463,0.1751831 l 0.385506,0.561206 H 1.5683791 L 1.2386841,1.6355591 H 0.95136313 v 0.4842081 h -0.350883 z m 1.62832397,0 h 0.620117 c 0.50332,0 0.842843,0.336258 0.842843,0.77721347 0,0.4409656 -0.339523,0.7890991 -0.842843,0.7890991 l -0.620117,0.011886 z M 0.95808113,0.85007733 V 1.3058634 H 1.3089641 c 0.08418,0 0.154282,-0.020957 0.19637,-0.063045 0.04909,-0.042088 0.07028,-0.098104 0.07028,-0.1612305 v -0.00723 c 0,-0.077153 -0.02119,-0.13288338 -0.07028,-0.16794838 -0.0491,-0.035075 -0.112416,-0.056327 -0.203605,-0.056327 z m 1.62212297,0.00465 V 1.8066071 h 0.268717 c 0.280921,0 0.480074,-0.1860781 0.480074,-0.4645711 0,-0.278503 -0.187445,-0.47542307 -0.480074,-0.47542307 z M 0.60048013,3.4173624 H 2.1182171 V 3.6757446 H 0.60048013 Z" />
</svg>
