<?xml version="1.0" encoding="UTF-8" standalone="no"?>
<svg
   width="16"
   height="16"
   version="1"
   id="svg566"
   xml:space="preserve"
   xmlns="http://www.w3.org/2000/svg"
   xmlns:svg="http://www.w3.org/2000/svg"><defs
     id="defs570" /><path
     id="rect11"
     style="display:inline;fill:#000000;stroke-width:0.118394;enable-background:new"
     d="M 6.9333334,2.1333335 H 9.0666666 V 3.2000001 H 6.9333334 Z" /><path
     id="rect12"
     style="display:inline;opacity:0.8;fill:#000000;stroke-width:0.167434;enable-background:new"
     d="M 5.8666667,2.2e-7 H 10.133333 V 1.0666669 H 5.8666667 Z" /><path
     id="rect13"
     style="display:inline;opacity:0.8;fill:#000000;stroke-width:0.0837169;enable-background:new"
     d="m 11.2,1.0666669 h 1.066667 V 2.1333335 H 11.2 Z" /><path
     id="rect14"
     style="display:inline;opacity:0.8;fill:#000000;stroke-width:0.0837169;enable-background:new"
     d="M 3.7333334,1.0666669 H 4.8000001 V 2.1333335 H 3.7333334 Z" /><path
     id="rect15"
     style="display:inline;opacity:0.6;fill:#000000;stroke-width:0.0837169;enable-background:new"
     d="M 2.6666675,3.2000001 H 3.7333341 V 4.2666668 H 2.6666675 Z" /><path
     id="rect16"
     style="display:inline;opacity:0.6;fill:#000000;stroke-width:0.0837169;enable-background:new"
     d="m 12.266667,3.2000001 h 1.066666 v 1.0666667 h -1.066666 z" /><path
     id="rect17"
     style="display:inline;opacity:0.6;fill:#000000;stroke-width:0.0837169;enable-background:new"
     d="m 11.2,5.3333334 h 1.066667 V 6.4000001 H 11.2 Z" /><path
     id="rect18"
     style="display:inline;opacity:0.6;fill:#000000;stroke-width:0.0837169;enable-background:new"
     d="M 3.7333334,5.3333334 H 4.8000001 V 6.4000001 H 3.7333334 Z" /><path
     id="rect19"
     style="display:inline;fill:#000000;stroke-width:0.0837169;enable-background:new"
     d="m 12.266667,10.666667 h 1.066666 v 1.066666 h -1.066666 z" /><path
     id="rect20"
     style="display:inline;fill:#000000;stroke-width:0.0837169;enable-background:new"
     d="m 2.6666675,10.666667 h 1.0666666 v 1.066666 H 2.6666675 Z" /><path
     id="rect21"
     style="display:inline;opacity:0.6;fill:#000000;stroke-width:0.0837169;enable-background:new"
     d="M 10.133333,12.8 H 11.2 v 1.066667 h -1.066667 z" /><path
     id="rect22"
     style="display:inline;opacity:0.6;fill:#000000;stroke-width:0.0837169;enable-background:new"
     d="m 4.8000001,12.8 h 1.0666666 v 1.066667 H 4.8000001 Z" /><path
     id="rect23"
     style="display:inline;opacity:0.6;fill:#000000;stroke-width:0.0837169;enable-background:new"
     d="M 4.8000001,1.0666669 H 5.8666667 V 2.1333335 H 4.8000001 Z" /><path
     id="rect24"
     style="display:inline;opacity:0.6;fill:#000000;stroke-width:0.0837169;enable-background:new"
     d="M 10.133333,1.0666669 H 11.2 v 1.0666666 h -1.066667 z" /><path
     id="rect25"
     style="display:inline;opacity:0.6;fill:#000000;stroke-width:0.0837169;enable-background:new"
     d="m 11.2,2.1333335 h 1.066667 V 3.2000001 H 11.2 Z" /><path
     id="rect26"
     style="display:inline;opacity:0.6;fill:#000000;stroke-width:0.0837169;enable-background:new"
     d="M 3.7333341,2.1333335 H 4.8000007 V 3.2000001 H 3.7333341 Z" /><path
     id="rect27"
     style="display:inline;opacity:0.6;fill:#000000;stroke-width:0.0837169;enable-background:new"
     d="M 2.6666668,4.2666668 H 3.7333334 V 5.3333334 H 2.6666668 Z" /><path
     id="rect28"
     style="display:inline;opacity:0.6;fill:#000000;stroke-width:0.0837169;enable-background:new"
     d="m 12.266667,4.2666668 h 1.066666 v 1.0666666 h -1.066666 z" /><path
     id="rect29"
     style="display:inline;opacity:0.6;fill:#000000;stroke-width:0.118394;enable-background:new"
     d="M 6.9333334,5.3333334 H 9.0666666 V 6.4000001 H 6.9333334 Z" /><path
     id="rect30"
     style="display:inline;opacity:0.8;fill:#000000;stroke-width:0.0837169;enable-background:new"
     d="M 13.333333,3.2000001 H 14.4 v 1.0666667 h -1.066667 z" /><path
     id="rect31"
     style="display:inline;opacity:0.8;fill:#000000;stroke-width:0.0837169;enable-background:new"
     d="M 1.6000008,3.2000001 H 2.6666675 V 4.2666668 H 1.6000008 Z" /><path
     id="rect32"
     style="display:inline;opacity:0.8;fill:#000000;stroke-width:0.0837169;enable-background:new"
     d="M 2.6666668,2.1333335 H 3.7333334 V 3.2000001 H 2.6666668 Z" /><path
     id="rect33"
     style="display:inline;opacity:0.8;fill:#000000;stroke-width:0.0837169;enable-background:new"
     d="m 12.266667,2.1333335 h 1.066666 v 1.0666666 h -1.066666 z" /><path
     id="rect34"
     style="display:inline;opacity:0.8;fill:#000000;stroke-width:0.0837169;enable-background:new"
     d="M 9.0666666,2.1333335 H 10.133333 V 3.2000001 H 9.0666666 Z" /><path
     id="rect35"
     style="display:inline;opacity:0.8;fill:#000000;stroke-width:0.0837169;enable-background:new"
     d="M 5.8666667,2.1333335 H 6.9333334 V 3.2000001 H 5.8666667 Z" /><path
     id="rect36"
     style="display:inline;opacity:0.8;fill:#000000;stroke-width:0.118394;enable-background:new"
     d="M 6.9333334,3.2000001 H 9.0666666 V 4.2666668 H 6.9333334 Z" /><path
     id="rect37"
     style="display:inline;opacity:0.8;fill:#000000;stroke-width:0.167434;enable-background:new"
     d="M 5.8666667,1.0666669 H 10.133333 V 2.1333335 H 5.8666667 Z" /><path
     id="rect38"
     style="display:inline;opacity:0.8;fill:#000000;stroke-width:0.0837169;enable-background:new"
     d="M 10.133333,2.1333335 V 3.2000001 H 9.0666666 V 4.2666668 H 11.2 v 1.0666666 h 1.066667 V 4.2666668 3.2000001 H 11.2 V 2.1333335 Z" /><path
     id="rect39"
     style="display:inline;opacity:0.8;fill:#000000;stroke-width:0.0837169;enable-background:new"
     d="M 4.8000001,2.1333335 V 3.2000001 H 3.7333334 V 4.2666668 5.3333334 H 4.8000001 V 4.2666668 H 6.9333334 V 3.2000001 H 5.8666667 V 2.1333335 Z" /><path
     id="rect44"
     style="display:inline;opacity:0.8;fill:#000000;stroke-width:0.118394;enable-background:new"
     d="M 6.9333334,4.2666668 H 9.0666666 V 5.3333334 H 6.9333334 Z" /><path
     id="rect45"
     style="display:inline;opacity:0.4;fill:#000000;stroke-width:0.118394;enable-background:new"
     d="M 4.8000001,4.2666668 H 6.9333334 V 5.3333334 H 4.8000001 Z" /><path
     id="rect46"
     style="display:inline;opacity:0.4;fill:#000000;stroke-width:0.118394;enable-background:new"
     d="M 9.0666666,4.2666668 H 11.2 V 5.3333334 H 9.0666666 Z" /><path
     id="rect47"
     style="display:inline;fill:#000000;stroke-width:0.0837169;enable-background:new"
     d="M 1.6000008,4.2666668 H 2.6666675 V 5.3333334 H 1.6000008 Z" /><path
     id="rect48"
     style="display:inline;fill:#000000;stroke-width:0.0837169;enable-background:new"
     d="M 13.333333,4.2666668 H 14.4 v 1.0666666 h -1.066667 z" /><path
     id="rect53"
     style="display:inline;opacity:0.7;fill:#000000;stroke-width:0.118394;enable-background:new"
     d="M 4.8000001,5.3333334 H 6.9333334 V 6.4000001 H 4.8000001 Z" /><path
     id="rect54"
     style="display:inline;opacity:0.7;fill:#000000;stroke-width:0.118394;enable-background:new"
     d="M 9.0666666,5.3333334 H 11.2 V 6.4000001 H 9.0666666 Z" /><path
     id="rect55"
     style="display:inline;fill:#000000;stroke-width:0.0837169;enable-background:new"
     d="m 12.266667,5.3333334 h 1.066666 v 1.0666667 h -1.066666 z" /><path
     id="rect56"
     style="display:inline;fill:#000000;stroke-width:0.0837169;enable-background:new"
     d="M 2.6666668,5.3333334 H 3.7333334 V 6.4000001 H 2.6666668 Z" /><path
     id="rect65"
     style="display:inline;fill:#000000;stroke-width:0.0837169;enable-background:new"
     d="m 11.2,6.4000001 h 1.066667 V 7.4666667 H 11.2 Z" /><path
     id="rect66"
     style="display:inline;fill:#000000;stroke-width:0.0837169;enable-background:new"
     d="M 3.7333334,6.4000001 H 4.8000001 V 7.4666667 H 3.7333334 Z" /><path
     id="rect67"
     style="display:inline;opacity:0.2;fill:#000000;stroke-width:0.118394;enable-background:new"
     d="M 4.8000001,6.4000001 H 6.9333334 V 7.4666667 H 4.8000001 Z" /><path
     id="rect68"
     style="display:inline;opacity:0.2;fill:#000000;stroke-width:0.118394;enable-background:new"
     d="M 9.0666666,6.4000001 H 11.2 V 7.4666667 H 9.0666666 Z" /><path
     id="rect69"
     style="display:inline;opacity:0.5;fill:#000000;stroke-width:0.118394;enable-background:new"
     d="M 6.9333334,6.4000001 H 9.0666666 V 7.4666667 H 6.9333334 Z" /><path
     id="rect70"
     style="display:inline;fill:#000000;stroke-width:0.0837169;enable-background:new"
     d="M 10.133333,7.4666667 H 11.2 v 1.0666666 h -1.066667 z" /><path
     id="rect71"
     style="display:inline;fill:#000000;stroke-width:0.0837169;enable-background:new"
     d="M 4.8000001,7.4666667 H 5.8666667 V 8.5333333 H 4.8000001 Z" /><path
     id="rect76"
     style="display:inline;fill:#000000;stroke-width:0.0837169;enable-background:new"
     d="M 5.8666667,7.4666667 H 6.9333334 V 8.5333333 H 5.8666667 Z" /><path
     id="rect77"
     style="display:inline;fill:#000000;stroke-width:0.0837169;enable-background:new"
     d="M 9.0666666,7.4666667 H 10.133333 V 8.5333333 H 9.0666666 Z" /><path
     id="rect78"
     style="display:inline;opacity:0.7;fill:#000000;stroke-width:0.167434;enable-background:new"
     d="M 6.9333334,7.4666667 H 9.0666666 V 9.6 H 6.9333334 Z" /><path
     id="rect89"
     style="display:inline;opacity:0.8;fill:#000000;stroke-width:0.0837169;enable-background:new"
     d="m 2.6666668,9.6 h 1.0666666 v 1.066667 H 2.6666668 Z" /><path
     id="rect90"
     style="display:inline;opacity:0.8;fill:#000000;stroke-width:0.0837169;enable-background:new"
     d="m 12.266667,9.6 h 1.066666 v 1.066667 h -1.066666 z" /><path
     id="rect91"
     style="display:inline;opacity:0.8;fill:#000000;stroke-width:0.0837169;enable-background:new"
     d="m 11.2,9.6 h 1.066667 v 1.066667 H 11.2 Z" /><path
     id="rect92"
     style="display:inline;opacity:0.8;fill:#000000;stroke-width:0.0837169;enable-background:new"
     d="m 3.7333334,9.6 h 1.0666667 v 1.066667 H 3.7333334 Z" /><path
     id="rect93"
     style="display:inline;opacity:0.9;fill:#000000;stroke-width:0.0837169;enable-background:new"
     d="m 4.8000001,9.6 h 1.0666666 v 1.066667 H 4.8000001 Z" /><path
     id="rect94"
     style="display:inline;opacity:0.9;fill:#000000;stroke-width:0.0837169;enable-background:new"
     d="M 10.133333,9.6 H 11.2 v 1.066667 h -1.066667 z" /><path
     id="rect95"
     style="display:inline;opacity:0.7;fill:#000000;stroke-width:0.0837169;enable-background:new"
     d="m 9.0666666,9.6 h 1.0666664 v 1.066667 H 9.0666666 Z" /><path
     id="rect96"
     style="display:inline;opacity:0.7;fill:#000000;stroke-width:0.0837169;enable-background:new"
     d="m 5.8666667,9.6 h 1.0666667 v 1.066667 H 5.8666667 Z" /><path
     id="rect97"
     style="display:inline;opacity:0.9;fill:#000000;stroke-width:0.118394;enable-background:new"
     d="m 6.9333334,9.6 h 2.1333332 v 1.066667 H 6.9333334 Z" /><path
     id="rect98"
     style="display:inline;fill:#000000;stroke-width:0.118394;enable-background:new"
     d="m 6.9333334,10.666667 h 2.1333332 v 1.066666 H 6.9333334 Z" /><path
     id="rect99"
     style="display:inline;opacity:0.8;fill:#000000;stroke-width:0.0837169;enable-background:new"
     d="m 9.0666666,10.666667 h 1.0666664 v 1.066666 H 9.0666666 Z" /><path
     id="rect100"
     style="display:inline;opacity:0.8;fill:#000000;stroke-width:0.0837169;enable-background:new"
     d="m 5.8666667,10.666667 h 1.0666667 v 1.066666 H 5.8666667 Z" /><path
     id="rect101"
     style="display:inline;fill:#000000;stroke-width:0.0837169;enable-background:new"
     d="M 10.133333,10.666667 H 11.2 v 1.066666 h -1.066667 z" /><path
     id="rect102"
     style="display:inline;fill:#000000;stroke-width:0.0837169;enable-background:new"
     d="m 4.8000001,10.666667 h 1.0666666 v 1.066666 H 4.8000001 Z" /><path
     id="rect103"
     style="display:inline;opacity:0.8;fill:#000000;stroke-width:0.0837169;enable-background:new"
     d="m 3.7333334,10.666667 h 1.0666667 v 1.066666 H 3.7333334 Z" /><path
     id="rect104"
     style="display:inline;opacity:0.8;fill:#000000;stroke-width:0.0837169;enable-background:new"
     d="m 11.2,10.666667 h 1.066667 v 1.066666 H 11.2 Z" /><path
     id="rect109"
     style="display:inline;fill:#000000;stroke-width:0.0837169;enable-background:new"
     d="m 11.2,11.733333 h 1.066667 V 12.8 H 11.2 Z" /><path
     id="rect110"
     style="display:inline;fill:#000000;stroke-width:0.0837169;enable-background:new"
     d="M 3.7333341,11.733333 H 4.8000007 V 12.8 H 3.7333341 Z" /><path
     id="rect111"
     style="display:inline;opacity:0.8;fill:#000000;stroke-width:0.0837169;enable-background:new"
     d="M 5.8666667,11.733333 H 6.9333334 V 12.8 H 5.8666667 Z" /><path
     id="rect112"
     style="display:inline;opacity:0.8;fill:#000000;stroke-width:0.0837169;enable-background:new"
     d="M 9.0666666,11.733333 H 10.133333 V 12.8 H 9.0666666 Z" /><path
     id="rect113"
     style="display:inline;opacity:0.8;fill:#000000;stroke-width:0.0837169;enable-background:new"
     d="M 10.133333,11.733333 H 11.2 V 12.8 h -1.066667 z" /><path
     id="rect114"
     style="display:inline;opacity:0.8;fill:#000000;stroke-width:0.0837169;enable-background:new"
     d="M 4.8000001,11.733333 H 5.8666667 V 12.8 H 4.8000001 Z" /><path
     id="rect115"
     style="display:inline;opacity:0.8;fill:#000000;stroke-width:0.118394;enable-background:new"
     d="M 6.9333334,11.733333 H 9.0666666 V 12.8 H 6.9333334 Z" /><path
     id="rect122"
     style="display:inline;opacity:0.7;fill:#000000;stroke-width:0.0837169;enable-background:new"
     d="m 11.2,14.933333 h 1.066667 V 16 H 11.2 Z" /><path
     id="rect123"
     style="display:inline;opacity:0.7;fill:#000000;stroke-width:0.0837169;enable-background:new"
     d="M 3.7333341,14.933333 H 4.8000007 V 16 H 3.7333341 Z" /><path
     id="rect126"
     style="display:inline;opacity:0.7;fill:#000000;stroke-width:0.205064;enable-background:new"
     d="M 4.8000007,13.866667 H 11.2 v 1.066666 H 4.8000007 Z" /><path
     id="rect127"
     style="display:inline;opacity:0.6;fill:#000000;stroke-width:0.0837169;enable-background:new"
     d="m 11.2,13.866667 h 1.066667 v 1.066666 H 11.2 Z" /><path
     id="rect128"
     style="display:inline;opacity:0.6;fill:#000000;stroke-width:0.0837169;enable-background:new"
     d="m 12.266667,14.933333 h 1.066666 V 16 h -1.066666 z" /><path
     id="rect129"
     style="display:inline;opacity:0.6;fill:#000000;stroke-width:0.0837169;enable-background:new"
     d="M 2.6666675,14.933333 H 3.7333341 V 16 H 2.6666675 Z" /><path
     id="rect130"
     style="display:inline;opacity:0.6;fill:#000000;stroke-width:0.0837169;enable-background:new"
     d="m 3.7333341,13.866667 h 1.0666666 v 1.066666 H 3.7333341 Z" /><path
     id="rect131"
     style="display:inline;opacity:0.9;fill:#000000;stroke-width:0.205064;enable-background:new"
     d="M 4.8000007,14.933333 H 11.2 V 16 H 4.8000007 Z" /><path
     id="rect132"
     style="display:inline;fill:#000000;stroke-width:0.167434;enable-background:new"
     d="m 5.8666667,12.8 h 4.2666663 v 1.066667 H 5.8666667 Z" /><path
     id="rect133"
     style="display:inline;fill:#000000;stroke-width:0.118394;enable-background:new"
     d="m 11.2,12.8 v 1.066667 h 1.066667 v 1.066666 h 1.066666 V 16 H 14.4 V 14.933333 13.866667 H 13.333333 V 12.8 Z" /><path
     id="rect135"
     style="display:inline;fill:#000000;stroke-width:0.118394;enable-background:new"
     d="m 2.6666668,12.8 v 1.066667 H 1.6000002 V 14.933333 16 H 2.6666668 V 14.933333 H 3.7333334 V 13.866667 H 4.8000001 V 12.8 Z" /><path
     id="path1"
     style="display:inline;fill:#000000;fill-opacity:1;stroke-width:0.0837169;enable-background:new"
     d="m 1.6000008,9.6 h 1.0666667 v 1.066667 H 1.6000008 Z" /><path
     id="path3"
     style="display:inline;fill:#000000;fill-opacity:1;stroke-width:0.0837169;enable-background:new"
     d="M 13.333333,9.6 H 14.4 v 1.066667 h -1.066667 z" /></svg>
