<?xml version="1.0" encoding="UTF-8" standalone="no"?>
<svg
   width="16"
   height="16"
   version="1"
   id="svg566"
   xml:space="preserve"
   xmlns="http://www.w3.org/2000/svg"
   xmlns:svg="http://www.w3.org/2000/svg"><defs
     id="defs570" /><path
     id="rect66-0-0"
     style="fill:#000000;fill-opacity:0.50499;stroke-width:0.0784846"
     d="m 4,6.5 h 1 v 1 H 4 Z" /><path
     id="rect68-1-3"
     style="fill:#000000;fill-opacity:0.403407;stroke-width:0.110994"
     d="m 9,6.5 h 2 v 1 H 9 Z" /><path
     id="rect69-5-0"
     style="fill:#000000;fill-opacity:0.602211;stroke-width:0.110994"
     d="m 7,6.5 h 2 v 1 H 7 Z" /><path
     id="rect110-8-6"
     style="fill:#000000;fill-opacity:0.403407;stroke-width:0.0784846"
     d="m 4.000001,11.5 h 1 v 1 h -1 z" /><path
     id="rect111-8-4"
     style="fill:#000000;fill-opacity:0.802044;stroke-width:0.0784846"
     d="m 6,11.5 h 1 v 1 H 6 Z" /><path
     id="rect122-9-7"
     style="fill:#000000;fill-opacity:0.403407;stroke-width:0.0784846"
     d="m 11,14.5 h 1 v 1 h -1 z" /><path
     id="rect11-2-7"
     style="fill:#000000;fill-opacity:1;stroke-width:0.110994"
     d="m 7,2.5000001 h 2 v 1 H 7 Z" /><path
     id="rect12-6-1"
     style="fill:#000000;fill-opacity:0.702732;stroke-width:0.156969"
     d="m 6,0.50000015 h 4 V 1.5000001 H 6 Z" /><path
     id="rect13-1-7"
     style="fill:#000000;fill-opacity:0.702732;stroke-width:0.0784846"
     d="m 11,1.5000001 h 1 v 1 h -1 z" /><path
     id="rect14-8-2"
     style="fill:#000000;fill-opacity:0.702732;stroke-width:0.0784846"
     d="m 4,1.5000001 h 1 v 1 H 4 Z" /><path
     id="rect15-7-7"
     style="fill:#000000;fill-opacity:0.702732;stroke-width:0.0784846"
     d="m 3,3.5 h 1.000001 v 1 H 3 Z" /><path
     id="rect16-9-2"
     style="fill:#000000;fill-opacity:0.702732;stroke-width:0.0784846"
     d="m 12,3.5 h 1 v 1 h -1 z" /><path
     id="rect17-2-2"
     style="fill:#000000;fill-opacity:0.702732;stroke-width:0.0784846"
     d="m 11,5.5 h 1 v 1 h -1 z" /><path
     id="rect18-0-6"
     style="fill:#000000;fill-opacity:0.702732;stroke-width:0.0784846"
     d="m 4,5.5 h 1 v 1 H 4 Z" /><path
     id="rect19-2-1"
     style="fill:#000000;fill-opacity:0.599085;stroke-width:0.0784846"
     d="m 12,10.5 h 1 v 1 h -1 z" /><path
     id="rect20-3-0"
     style="fill:#000000;fill-opacity:0.599085;stroke-width:0.0784846"
     d="m 3,10.5 h 1.000001 v 1 H 3 Z" /><path
     id="rect21-7-6"
     style="fill:#000000;fill-opacity:0.599085;stroke-width:0.0784846"
     d="m 10,12.5 h 1 v 1 h -1 z" /><path
     id="rect22-5-1"
     style="fill:#000000;fill-opacity:0.599085;stroke-width:0.0784846"
     d="m 5,12.5 h 1 v 1 H 5 Z" /><path
     id="rect23-9-5"
     style="fill:#000000;fill-opacity:0.802044;stroke-width:0.0784846"
     d="m 5,1.5000001 h 1 v 1 H 5 Z" /><path
     id="rect24-2-9"
     style="fill:#000000;fill-opacity:0.802044;stroke-width:0.0784846"
     d="m 10,1.5000001 h 1 v 1 h -1 z" /><path
     id="rect25-2-4"
     style="fill:#000000;fill-opacity:0.802044;stroke-width:0.0784846"
     d="m 11,2.5000001 h 1 v 1 h -1 z" /><path
     id="rect26-8-9"
     style="fill:#000000;fill-opacity:0.802044;stroke-width:0.0784846"
     d="m 4.000001,2.5000001 h 1 v 1 h -1 z" /><path
     id="rect27-9-0"
     style="fill:#000000;fill-opacity:0.802044;stroke-width:0.0784846"
     d="M 3,4.5 H 4 V 5.4999999 H 3 Z" /><path
     id="rect28-7-9"
     style="fill:#000000;fill-opacity:0.802044;stroke-width:0.0784846"
     d="m 12,4.5 h 1 v 0.9999999 h -1 z" /><path
     id="rect29-3-1"
     style="fill:#000000;fill-opacity:0.802044;stroke-width:0.110994"
     d="m 7,5.5 h 2 v 1 H 7 Z" /><path
     id="rect30-6-7"
     style="fill:#000000;fill-opacity:0.599085;stroke-width:0.0784846"
     d="m 13,3.5 h 1 v 1 h -1 z" /><path
     id="rect31-1-7"
     style="fill:#000000;fill-opacity:0.599085;stroke-width:0.0784846"
     d="m 2,3.5 h 1 v 1 H 2 Z" /><path
     id="rect32-2-1"
     style="fill:#000000;fill-opacity:0.599085;stroke-width:0.0784846"
     d="m 3,2.5000001 h 1 v 1 H 3 Z" /><path
     id="rect33-9-1"
     style="fill:#000000;fill-opacity:0.599085;stroke-width:0.0784846"
     d="m 12,2.5000001 h 1 v 1 h -1 z" /><path
     id="rect34-3-5"
     style="fill:#000000;fill-opacity:0.899556;stroke-width:0.0784846"
     d="m 9,2.5000001 h 1 v 1 H 9 Z" /><path
     id="rect35-1-9"
     style="fill:#000000;fill-opacity:0.899556;stroke-width:0.0784846"
     d="m 6,2.5000001 h 1 v 1 H 6 Z" /><path
     id="rect36-9-7"
     style="fill:#000000;fill-opacity:0.899556;stroke-width:0.110994"
     d="m 7,3.5 h 2 v 1 H 7 Z" /><path
     id="rect37-4-7"
     style="fill:#000000;fill-opacity:0.899556;stroke-width:0.156969"
     d="m 6,1.5000001 h 4 v 1 H 6 Z" /><path
     id="rect38-7-6"
     style="fill:#000000;fill-opacity:0.899556;stroke-width:0.0784846"
     d="m 10,2.5000001 v 1 H 9 v 1 h 2 V 5.5 h 1 v -0.9999999 -1 h -1 v -1 z" /><path
     id="rect39-8-7"
     style="fill:#000000;fill-opacity:0.899556;stroke-width:0.0784846"
     d="m 5,2.5000001 v 1 H 4 v 1 V 5.5 h 1 v -1 h 2 v -1 H 6 v -1 z" /><path
     id="rect44-4-3"
     style="fill:#000000;fill-opacity:0.899556;stroke-width:0.110994"
     d="M 7,4.5 H 9 V 5.4999999 H 7 Z" /><path
     id="rect45-5-6"
     style="fill:#000000;fill-opacity:0.50499;stroke-width:0.110994"
     d="M 5,4.5 H 7 V 5.4999999 H 5 Z" /><path
     id="rect46-0-5"
     style="fill:#000000;fill-opacity:0.50499;stroke-width:0.110994"
     d="m 9,4.5 h 2 V 5.4999999 H 9 Z" /><path
     id="rect47-3-6"
     style="fill:#000000;fill-opacity:0.104378;stroke-width:0.0784846"
     d="M 2,4.5 H 3 V 5.4999999 H 2 Z" /><path
     id="rect48-6-3"
     style="fill:#000000;fill-opacity:0.104378;stroke-width:0.0784846"
     d="m 13,4.5 h 1 v 0.9999999 h -1 z" /><path
     id="rect49-9"
     style="fill:#000000;fill-opacity:0.50499;stroke-width:0.0784846"
     d="m 14,4.5 h 1 v 0.9999999 h -1 z" /><path
     id="rect50-4"
     style="fill:#000000;fill-opacity:0.50499;stroke-width:0.0784846"
     d="M 1,4.5 H 2 V 5.4999999 H 1 Z" /><path
     id="rect51-8"
     style="fill:#000000;fill-opacity:0.599085;stroke-width:0.0784846"
     d="M 0,4.5 H 1 V 5.4999999 H 0 Z" /><path
     id="rect52-1"
     style="fill:#000000;fill-opacity:0.599085;stroke-width:0.0784846"
     d="m 15,4.5 h 1 v 0.9999999 h -1 z" /><path
     id="rect53-1-2"
     style="fill:#000000;fill-opacity:0.607236;stroke-width:0.110994"
     d="m 5,5.5 h 2 v 1 H 5 Z" /><path
     id="rect54-0-9"
     style="fill:#000000;fill-opacity:0.607236;stroke-width:0.110994"
     d="m 9,5.5 h 2 v 1 H 9 Z" /><path
     id="rect55-6-3"
     style="fill:#000000;fill-opacity:0.50499;stroke-width:0.0784846"
     d="m 12,5.5 h 1 v 1 h -1 z" /><path
     id="rect56-3-9"
     style="fill:#000000;fill-opacity:0.50499;stroke-width:0.0784846"
     d="m 3,5.5 h 1 v 1 H 3 Z" /><path
     id="rect57-0"
     style="fill:#000000;fill-opacity:0.599085;stroke-width:0.0784846"
     d="m 2,5.5 h 1 v 1 H 2 Z" /><path
     id="rect58-8"
     style="fill:#000000;fill-opacity:0.599085;stroke-width:0.0784846"
     d="m 13,5.5 h 1 v 1 h -1 z" /><path
     id="rect59-8"
     style="fill:#000000;fill-opacity:0.599085;stroke-width:0.0784846"
     d="m 12,6.5 h 1 v 1 h -1 z" /><path
     id="rect60-5"
     style="fill:#000000;fill-opacity:0.599085;stroke-width:0.0784846"
     d="m 14,6.5 h 1 v 1 h -1 z" /><path
     id="rect61-0"
     style="fill:#000000;fill-opacity:0.599085;stroke-width:0.0784846"
     d="m 3,6.5 h 1 v 1 H 3 Z" /><path
     id="rect62-9"
     style="fill:#000000;fill-opacity:0.599085;stroke-width:0.0784846"
     d="m 1,6.5 h 1 v 1 H 1 Z" /><path
     id="rect63-6"
     style="fill:#000000;fill-opacity:0.50499;stroke-width:0.0784846"
     d="m 0,6.5 h 1 v 1 H 0 Z" /><path
     id="rect64-3"
     style="fill:#000000;fill-opacity:0.50499;stroke-width:0.0784846"
     d="m 15,6.5 h 1 v 1 h -1 z" /><path
     id="rect65-2-8"
     style="fill:#000000;fill-opacity:0.50499;stroke-width:0.0784846"
     d="m 11,6.5 h 1 v 1 h -1 z" /><path
     id="rect67-6-5"
     style="fill:#000000;fill-opacity:0.403407;stroke-width:0.110994"
     d="m 5,6.5 h 2 v 1 H 5 Z" /><path
     id="rect70-5-6"
     style="fill:#000000;fill-opacity:0.599085;stroke-width:0.0784846"
     d="m 10,7.4999999 h 1 V 8.5 h -1 z" /><path
     id="rect71-4-1"
     style="fill:#000000;fill-opacity:0.599085;stroke-width:0.0784846"
     d="M 5,7.4999999 H 6 V 8.5 H 5 Z" /><path
     id="rect72-1"
     style="fill:#000000;fill-opacity:0.702732;stroke-width:0.0784846"
     d="m 2,6.5 v 1 H 0 v 1 h 5 v -1 H 3 v -1 z" /><path
     id="rect73-5"
     style="fill:#000000;fill-opacity:0.702732;stroke-width:0.0784846"
     d="m 13,6.5 v 1 h -2 v 1 h 5 v -1 h -2 v -1 z" /><path
     id="rect76-7-9"
     style="fill:#000000;fill-opacity:0.403407;stroke-width:0.0784846"
     d="M 6,7.4999999 H 7 V 8.5 H 6 Z" /><path
     id="rect77-6-8"
     style="fill:#000000;fill-opacity:0.403407;stroke-width:0.0784846"
     d="m 9,7.4999999 h 1 V 8.5 H 9 Z" /><path
     id="rect78-5-4"
     style="fill:#000000;fill-opacity:0.702732;stroke-width:0.156969"
     d="m 7,7.4999999 h 2 v 2 H 7 Z" /><path
     id="rect79-8"
     style="fill:#000000;fill-opacity:0.50499;stroke-width:0.207651"
     d="M 0,8.5 V 9.4999999 H 2 V 10.5 H 3 V 9.4999999 H 7 V 8.5 Z" /><path
     id="rect80-1"
     style="fill:#000000;fill-opacity:0.50499;stroke-width:0.207651"
     d="m 9,8.5 v 0.9999999 h 4 V 10.5 h 1 V 9.4999999 h 2 V 8.5 Z" /><path
     id="rect83-0"
     style="fill:#000000;fill-opacity:0.197424;stroke-width:0.0784846"
     d="m 14,9.4999999 h 1 V 10.5 h -1 z" /><path
     id="rect84-3"
     style="fill:#000000;fill-opacity:0.197424;stroke-width:0.0784846"
     d="M 1,9.4999999 H 2 V 10.5 H 1 Z" /><path
     id="rect85-0"
     style="fill:#000000;fill-opacity:0.104378;stroke-width:0.0784846"
     d="M 0,9.4999999 H 1 V 10.5 H 0 Z" /><path
     id="rect86-4"
     style="fill:#000000;fill-opacity:0.104378;stroke-width:0.0784846"
     d="m 15,9.4999999 h 1 V 10.5 h -1 z" /><path
     id="rect87-4"
     style="fill:#000000;fill-opacity:0.302313;stroke-width:0.156969"
     d="m 14,10.5 h 2 v 2 h -2 z" /><path
     id="rect88-4"
     style="fill:#000000;fill-opacity:0.302313;stroke-width:0.156969"
     d="m 0,10.5 h 2 v 2 H 0 Z" /><path
     id="rect89-6-4"
     style="fill:#000000;fill-opacity:0.802044;stroke-width:0.0784846"
     d="M 3,9.4999999 H 4 V 10.5 H 3 Z" /><path
     id="rect90-9-7"
     style="fill:#000000;fill-opacity:0.802044;stroke-width:0.0784846"
     d="m 12,9.4999999 h 1 V 10.5 h -1 z" /><path
     id="rect91-3-6"
     style="fill:#000000;fill-opacity:0.802044;stroke-width:0.0784846"
     d="m 11,9.4999999 h 1 V 10.5 h -1 z" /><path
     id="rect92-7-3"
     style="fill:#000000;fill-opacity:0.802044;stroke-width:0.0784846"
     d="M 4,9.4999999 H 5 V 10.5 H 4 Z" /><path
     id="rect93-4-1"
     style="fill:#000000;fill-opacity:0.899556;stroke-width:0.0784846"
     d="M 5,9.4999999 H 6 V 10.5 H 5 Z" /><path
     id="rect94-5-7"
     style="fill:#000000;fill-opacity:0.899556;stroke-width:0.0784846"
     d="m 10,9.4999999 h 1 V 10.5 h -1 z" /><path
     id="rect95-2-5"
     style="fill:#000000;fill-opacity:0.602011;stroke-width:0.0784846"
     d="m 9,9.4999999 h 1 V 10.5 H 9 Z" /><path
     id="rect96-5-9"
     style="fill:#000000;fill-opacity:0.602011;stroke-width:0.0784846"
     d="M 6,9.4999999 H 7 V 10.5 H 6 Z" /><path
     id="rect97-4-6"
     style="fill:#000000;fill-opacity:0.899556;stroke-width:0.110994"
     d="M 7,9.4999999 H 9 V 10.5 H 7 Z" /><path
     id="rect98-7-2"
     style="fill:#000000;fill-opacity:1;stroke-width:0.110994"
     d="m 7,10.5 h 2 v 1 H 7 Z" /><path
     id="rect99-4-1"
     style="fill:#000000;fill-opacity:0.802044;stroke-width:0.0784846"
     d="m 9,10.5 h 1 v 1 H 9 Z" /><path
     id="rect100-4-7"
     style="fill:#000000;fill-opacity:0.802044;stroke-width:0.0784846"
     d="m 6,10.5 h 1 v 1 H 6 Z" /><path
     id="rect101-3-8"
     style="fill:#000000;fill-opacity:1;stroke-width:0.0784846"
     d="m 10,10.5 h 1 v 1 h -1 z" /><path
     id="rect102-0-5"
     style="fill:#000000;fill-opacity:1;stroke-width:0.0784846"
     d="m 5,10.5 h 1 v 1 H 5 Z" /><path
     id="rect103-7-7"
     style="fill:#000000;fill-opacity:0.802044;stroke-width:0.0784846"
     d="m 4,10.5 h 1 v 1 H 4 Z" /><path
     id="rect104-8-4"
     style="fill:#000000;fill-opacity:0.802044;stroke-width:0.0784846"
     d="m 11,10.5 h 1 v 1 h -1 z" /><path
     id="rect105-1"
     style="fill:#000000;fill-opacity:0.702732;stroke-width:0.0784846"
     d="m 13,10.5 v 1 h -1 v 1 h 2 v -1 -1 z" /><path
     id="rect106-8"
     style="fill:#000000;fill-opacity:0.702732;stroke-width:0.0784846"
     d="m 2,10.5 v 1 1 h 2 v -1 H 3 v -1 z" /><path
     id="rect109-6-5"
     style="fill:#000000;fill-opacity:0.403407;stroke-width:0.0784846"
     d="m 11,11.5 h 1 v 1 h -1 z" /><path
     id="rect112-4-9"
     style="fill:#000000;fill-opacity:0.802044;stroke-width:0.0784846"
     d="m 9,11.5 h 1 v 1 H 9 Z" /><path
     id="rect113-3-7"
     style="fill:#000000;fill-opacity:0.702732;stroke-width:0.0784846"
     d="m 10,11.5 h 1 v 1 h -1 z" /><path
     id="rect114-1-5"
     style="fill:#000000;fill-opacity:0.702732;stroke-width:0.0784846"
     d="m 5,11.5 h 1 v 1 H 5 Z" /><path
     id="rect115-4-3"
     style="fill:#000000;fill-opacity:0.800236;stroke-width:0.110994"
     d="m 7,11.5 h 2 v 1 H 7 Z" /><path
     id="rect116-8"
     style="fill:#000000;fill-opacity:0.403407;stroke-width:0.0784846"
     d="m 0,12.5 h 1 v 1 H 0 Z" /><path
     id="rect117-8"
     style="fill:#000000;fill-opacity:0.403407;stroke-width:0.0784846"
     d="m 15,12.5 h 1 v 1 h -1 z" /><path
     id="rect118-3"
     style="fill:#000000;fill-opacity:0.50499;stroke-width:0.0784846"
     d="m 14,12.5 v 1 2 h 0.76923 C 15.451077,15.5 16,14.951077 16,14.269231 V 13.5 h -1 v -1 z" /><path
     id="rect119-1"
     style="fill:#000000;fill-opacity:0.50499;stroke-width:0.0784846"
     d="m 1,12.5 v 1 H 0 v 0.769231 C 0,14.951077 0.548923,15.5 1.230769,15.5 H 2 v -2 -1 z" /><path
     id="rect123-2-8"
     style="fill:#000000;fill-opacity:0.403407;stroke-width:0.0784846"
     d="m 4.000001,14.5 h 1 v 1 h -1 z" /><path
     id="rect124-9"
     style="fill:#000000;fill-opacity:0.899556;stroke-width:0.0784846"
     d="m 2,12.5 h 1 v 1 H 2 Z" /><path
     id="rect125-6"
     style="fill:#000000;fill-opacity:0.899556;stroke-width:0.0784846"
     d="m 13,12.5 h 1 v 1 h -1 z" /><path
     id="rect126-0-4"
     style="fill:#000000;fill-opacity:0.403407;stroke-width:0.192248"
     d="M 5.000001,13.5 H 11 v 1 H 5.000001 Z" /><path
     id="rect127-6-3"
     style="fill:#000000;fill-opacity:0.702732;stroke-width:0.0784846"
     d="m 11,13.5 h 1 v 1 h -1 z" /><path
     id="rect128-8-3"
     style="fill:#000000;fill-opacity:0.702732;stroke-width:0.0784846"
     d="m 12,14.5 h 1 v 1 h -1 z" /><path
     id="rect129-9-3"
     style="fill:#000000;fill-opacity:0.702732;stroke-width:0.0784846"
     d="m 3,14.5 h 1.000001 v 1 H 3 Z" /><path
     id="rect130-2-8"
     style="fill:#000000;fill-opacity:0.702732;stroke-width:0.0784846"
     d="m 4.000001,13.5 h 1 v 1 h -1 z" /><path
     id="rect131-6-6"
     style="fill:#000000;fill-opacity:0.50499;stroke-width:0.192248"
     d="M 5.000001,14.5 H 11 v 1 H 5.000001 Z" /><path
     id="rect132-6-0"
     style="fill:#000000;fill-opacity:0.50499;stroke-width:0.156969"
     d="m 6,12.5 h 4 v 1 H 6 Z" /><path
     id="rect133-4-4"
     style="fill:#000000;fill-opacity:1;stroke-width:0.110994"
     d="m 11,12.5 v 1 h 1 v 1 h 1 v 1 h 1 v -1 -1 h -1 v -1 z" /><path
     id="rect135-9-8"
     style="fill:#000000;fill-opacity:1;stroke-width:0.110994"
     d="m 3,12.5 v 1 H 2 v 1 1 h 1 v -1 h 1 v -1 h 1 v -1 z" /><path
     id="rect140-8"
     style="fill:#000000;fill-opacity:0.702732;stroke-width:0.110994"
     d="m 14,5.5 h 2 v 1 h -2 z" /><path
     id="rect141-8"
     style="fill:#000000;fill-opacity:0.702732;stroke-width:0.110994"
     d="m 0,5.5 h 2 v 1 H 0 Z" /></svg>
