<?xml version="1.0" encoding="UTF-8" standalone="no"?>
<svg
   height="16px"
   viewBox="0 0 16 16"
   width="16px"
   version="1.1"
   id="svg135"
   xml:space="preserve"
   xmlns="http://www.w3.org/2000/svg"
   xmlns:svg="http://www.w3.org/2000/svg"><defs
     id="defs139" /><path
     id="path856"
     style="font-style:normal;font-variant:normal;font-weight:normal;font-stretch:normal;font-size:47.9778px;line-height:1.25;font-family:'Operator Mono';-inkscape-font-specification:'Operator Mono';fill:#000000;fill-opacity:1;stroke-width:0.0565816"
     d="M 2.1875,1 C 0.980469,1 0,2.015625 0,3.21875 v 9.5625 C 0,13.984375 0.980469,15 2.1875,15 h 11.625 C 15.019531,15 16,13.984375 16,12.78125 V 3.21875 C 16,2.015625 15.019531,1 13.8125,1 Z m 0,2 h 11.625 C 13.933594,3 14,3.082031 14,3.21875 v 9.5625 C 14,12.917969 13.933594,13 13.8125,13 H 2.1875 C 2.066406,13 2,12.917969 2,12.78125 V 3.21875 C 2,3.082031 2.066406,3 2.1875,3 Z" /><path
     style="fill:#000000;stroke-width:0.625001"
     d="m 6.3020591,5.1144493 -1.498125,1.535 -0.0019,0.0013 -0.0056,0.0062 1.6475,0.33125 c -0.234381,1.035011 -0.967506,1.790636 -1.835631,1.790636 -1.058125,0 -1.914375,-1.11875 -1.914375,-2.5 0,-1.38125 0.856875,-2.5 1.914375,-2.5 0.735,0 1.37375,0.54125 1.69375,1.335625 z"
     id="path1" /><path
     style="fill:#000000;stroke-width:0.625001"
     d="m 10.552059,5.1144493 -1.498125,1.535 -0.0019,0.0013 -0.0056,0.0062 1.647494,0.331261 c -0.234375,1.035 -0.9675,1.790625 -1.835625,1.790625 -1.0581248,0 -1.9143749,-1.11875 -1.9143749,-2.5 0,-1.38125 0.856875,-2.5 1.9143749,-2.5 0.735,0 1.37375,0.54125 1.69375,1.335625 z"
     id="path3-0" /></svg>
