<?xml version="1.0" encoding="UTF-8" standalone="no"?>
<svg
   height="16px"
   viewBox="0 0 16 16"
   width="16px"
   version="1.1"
   id="svg135"
   xmlns="http://www.w3.org/2000/svg"
   xmlns:svg="http://www.w3.org/2000/svg"
   xmlns:figma="http://www.figma.com/figma/ns">
  <defs
     id="defs139" />
  <g
     id="g8"
     style="mix-blend-mode:normal;fill:#767677;fill-opacity:1;stroke-width:3.12531"
     figma:type="group"
     transform="matrix(0.31996847,0,0,0.31996847,-523.40777,-785.10341)">
    <g
       id="path16 fill"
       style="mix-blend-mode:normal;fill:#767677;fill-opacity:1;stroke-width:3.12531"
       figma:type="vector" />
  </g>
  <g
     id="g9"
     style="mix-blend-mode:normal;stroke-width:2.4631;fill:#000000"
     figma:type="group"
     transform="matrix(0.40599244,0,0,0.40599244,-666.72137,-997.88069)">
    <g
       id="path17 fill"
       style="mix-blend-mode:normal;stroke-width:2.4631;fill:#000000"
       figma:type="vector" />
  </g>
  <path
     d="m 3.4499607,14.996804 c 0.798828,-0.205188 1.699747,-0.691667 2.292122,-1.237698 l 0.23975,-0.220995 0.343435,0.07182 c 0.218334,0.04566 0.831471,0.07049 1.683208,0.06814 1.222926,-0.0034 1.407703,-0.01758 2.1186733,-0.163091 2.987083,-0.611328 5.062588,-2.165888 5.725298,-4.2882672 0.196786,-0.6302314 0.196729,-1.7593364 -1.25e-4,-2.3862384 -0.278523,-0.886978 -0.719625,-1.58556 -1.423125,-2.253814 -1.170569,-1.111925 -2.706785,-1.81117 -4.7314413,-2.153623 -0.708118,-0.11977 -2.505545,-0.136252 -3.219782,-0.02952 l -0.481984,0.07202 -0.476703,-0.38141 C 4.3452417,1.1547754 2.9052397,0.72332539 1.4980237,0.88928939 0.88094675,0.96205939 0.22587575,1.1442364 0.08897375,1.2811374 c -0.131925,0.131926 -0.113985,0.449739 0.03287,0.582357 0.18135,0.163768 0.645895,0.767582 0.847237,1.101234 0.22659895,0.37551 0.40355495,0.85423 0.45443695,1.229401 0.04997,0.36846 -0.03116,0.561407 -0.43829995,1.04239 -0.374721,0.442683 -0.773412,1.263727 -0.902035,1.857617 -0.134064,0.619006 -0.09146,1.650032 0.09053,2.1908274 0.193161,0.574002 0.548369,1.2176272 0.91907095,1.6653342 0.333248,0.402477 0.33333,0.402671 0.326513,0.781207 -0.0115,0.637889 -0.402739,1.420243 -1.11879695,2.237165 -0.305027,0.347992 -0.360051,0.515452 -0.241905,0.736206 0.06643,0.124131 0.633631,0.315736 1.19276895,0.402932 0.525173,0.0819 1.673256,0.02393 2.1986,-0.111012 z m -1.001154,-1.48115 c 0.244239,-0.413952 0.474275,-1.162521 0.505682,-1.645556 0.05404,-0.831062 0.01385,-0.94986 -0.500662,-1.480532 -2.31555595,-2.3882176 -0.667723,-5.3678586 3.467338,-6.2697116 0.691161,-0.150743 0.841989,-0.162921 1.999935,-0.161483 1.379518,0.0017 1.924468,0.08173 2.9984773,0.440294 2.156323,0.719894 3.479918,2.131269 3.489842,3.721286 0.0051,0.81539 -0.275771,1.4580854 -0.949189,2.1720436 -1.526896,1.618811 -4.5077983,2.366002 -7.3611893,1.845148 l -0.686163,-0.125251 -0.409079,0.385903 c -0.501766,0.473341 -0.796086,0.69087 -1.239286,0.915942 -0.324829,0.164958 -1.101881,0.398311 -1.326361,0.398311 -0.09935,0 -0.09876,-0.01094 0.01065,-0.196394 z m 2.693589,-4.5423862 c 0.242796,-0.1014474 0.542787,-0.4440634 0.59434,-0.6787894 0.135021,-0.614746 -0.476752,-1.25827 -1.086637,-1.143037 -0.505068,0.09543 -0.840993,0.531504 -0.793134,1.02959 0.03328,0.346316 0.225478,0.619744 0.534185,0.759943 0.285111,0.1294804 0.496857,0.1385834 0.751246,0.03229 z m 3.188789,-0.05544 c 0.28766,-0.152117 0.521931,-0.523321 0.521931,-0.827005 0,-0.303681 -0.234271,-0.674885 -0.521931,-0.827004 -0.320789,-0.169637 -0.557632,-0.169637 -0.878421,0 -0.286549,0.151532 -0.521931,0.523061 -0.521931,0.823825 0,0.311341 0.230733,0.680756 0.518857,0.830709 0.3249,0.169092 0.561011,0.168951 0.881495,-4.82e-4 z m 3.0903753,-0.0012 c 0.687945,-0.362919 0.674645,-1.327042 -0.02297,-1.664752 -0.324931,-0.157295 -0.544122,-0.154221 -0.858527,0.01205 -0.28766,0.15212 -0.521929,0.523324 -0.521929,0.827005 0,0.303683 0.234269,0.674888 0.521929,0.827005 0.3214,0.169959 0.557521,0.169612 0.881494,-0.0012 z"
     style="display:inline;fill:#000000;stroke-width:0.24052;enable-background:new"
     id="path1-1" />
</svg>
