<?xml version="1.0" encoding="UTF-8"?>
<svg height="16px" viewBox="0 0 16 16" width="16px" xmlns="http://www.w3.org/2000/svg">
    <path d="m 5.976562 2.867188 h 4.046876 c 0.171874 0 0.308593 0.140624 0.308593 0.308593 v 0.941407 c 0 0.167968 -0.136719 0.304687 -0.308593 0.304687 h -4.046876 c -0.171874 0 -0.308593 -0.136719 -0.308593 -0.304687 v -0.941407 c 0 -0.167969 0.136719 -0.308593 0.308593 -0.308593 z m 0 0"/>
    <path d="m 8.308594 0.28125 h 1.714844 c 0.171874 0 0.308593 0.136719 0.308593 0.304688 v 0.941406 c 0 0.167968 -0.136719 0.308594 -0.308593 0.308594 h -1.714844 c -0.171875 0 -0.308594 -0.140626 -0.308594 -0.308594 v -0.941406 c 0 -0.167969 0.136719 -0.304688 0.308594 -0.304688 z m 0 0"/>
    <path d="m 11.269531 1.367188 h 0.941407 c 0.167968 0 0.304687 0.136718 0.304687 0.308593 v 0.9375 c 0 0.171875 -0.136719 0.308594 -0.304687 0.308594 h -0.941407 c -0.167969 0 -0.308593 -0.136719 -0.308593 -0.308594 v -0.9375 c 0 -0.171875 0.140624 -0.308593 0.308593 -0.308593 z m 0 0"/>
    <path d="m 11.121094 3.644531 h 1.238281 c 0.085937 0 0.15625 0.070313 0.15625 0.160157 v 1.261718 c 0 0.089844 -0.070313 0.160156 -0.15625 0.160156 h -1.238281 c -0.085938 0 -0.160156 -0.070312 -0.160156 -0.160156 v -1.261718 c 0 -0.089844 0.074218 -0.160157 0.160156 -0.160157 z m 0 0"/>
    <path d="m 3.609375 2.921875 h 1.132813 c 0.132812 0 0.238281 0.105469 0.238281 0.238281 v 2.097656 c 0 0.132813 -0.105469 0.238282 -0.238281 0.238282 h -1.132813 c -0.128906 0 -0.234375 -0.105469 -0.234375 -0.238282 v -2.097656 c 0 -0.132812 0.105469 -0.238281 0.234375 -0.238281 z m 0 0"/>
    <path d="m 5.976562 0.707031 h 0.941407 c 0.167969 0 0.304687 0.136719 0.304687 0.308594 v 0.9375 c 0 0.171875 -0.136718 0.308594 -0.304687 0.308594 h -0.941407 c -0.171874 0 -0.308593 -0.136719 -0.308593 -0.308594 v -0.9375 c 0 -0.171875 0.136719 -0.308594 0.308593 -0.308594 z m 0 0"/>
    <g stroke="#000000" stroke-linecap="round" stroke-linejoin="round" stroke-width="0.596">
        <path d="m 2.886719 5.316406 h -2.585938 v 1.742188 h 2.585938 c -0.019531 1.042968 -0.039063 2.085937 -0.0625 3.128906 c -0.839844 -0.488281 -1.683594 -0.972656 -2.523438 -1.460938 v -1.667968 m 2.585938 4.953125 h 10.226562 m 0 -4.953125 c 0 1.449218 0.007813 5.234375 -0.007812 7.683594 c -0.144531 0.464843 -0.675781 0.273437 -1.035157 0.3125 c -2.957031 -0.003907 -5.914062 0.011718 -8.867187 -0.007813 c -0.464844 -0.140625 -0.277344 -0.671875 -0.316406 -1.03125 c 0.003906 -2.796875 -0.011719 -4.167969 0.007812 -6.960937 m -0.019531 -1.738282 h 10.238281 m 2.585938 1.742188 v 1.667968 c -0.839844 0.488282 -1.683594 0.972657 -2.523438 1.460938 c -0.023437 -1.042969 -0.042969 -2.085938 -0.0625 -3.128906 h 2.585938 v -1.742188 h -2.40625" fill="none"/>
        <path d="m 3.28125 12.011719 h 9.464844 c 0.21875 0 0.394531 0.175781 0.394531 0.394531 v 2.238281 c 0 0.214844 -0.175781 0.394531 -0.394531 0.394531 h -9.464844 c -0.214844 0 -0.394531 -0.179687 -0.394531 -0.394531 v -2.238281 c 0 -0.21875 0.179687 -0.394531 0.394531 -0.394531 z m 0 0"/>
        <path d="m 0.300781 7.183594 v 1.542968 l 2.472657 1.429688 v -2.941406 z m 0 0"/>
        <path d="m 13.207031 7.226562 v 2.773438 l 2.457031 -1.417969 v -1.402343 z m 0 0"/>
    </g>
    <path d="m 6.679688 6.9375 h 2.441406 c 0.253906 0 0.460937 0.207031 0.460937 0.464844 v 0.132812 c 0 0.257813 -0.207031 0.464844 -0.460937 0.464844 h -2.441406 c -0.257813 0 -0.464844 -0.207031 -0.464844 -0.464844 v -0.132812 c 0 -0.257813 0.207031 -0.464844 0.464844 -0.464844 z m 0 0"/>
    <path d="m 6.851562 12.265625 l 0.019532 -1.632813 l 1.027344 -0.691406 l 1.082031 0.691406 l 0.023437 1.722657" fill="none" stroke="#000000" stroke-linecap="round" stroke-linejoin="round" stroke-width="0.596"/>
</svg>
