<?xml version="1.0" encoding="UTF-8" standalone="no"?>
<svg
   width="16"
   height="16"
   version="1.1"
   id="svg6342"
   xmlns="http://www.w3.org/2000/svg"
   xmlns:svg="http://www.w3.org/2000/svg">
  <defs
     id="defs6338">
    <style
       id="current-color-scheme"
       type="text/css">
   .ColorScheme-Text { color:#dfdfdf; } .ColorScheme-Highlight { color:#4285f4; } .ColorScheme-NeutralText { color:#ff9800; } .ColorScheme-PositiveText { color:#4caf50; } .ColorScheme-NegativeText { color:#f44336; }
  </style>
  </defs>
  <path
     id="rect1711-61"
     style="display:inline;fill:#000000;fill-opacity:0.980392;stroke:none;stroke-width:0.0381481;stroke-linecap:butt;stroke-linejoin:miter;stroke-miterlimit:4;stroke-dasharray:none;stroke-dashoffset:0;stroke-opacity:1;marker:none;marker-start:none;marker-mid:none;marker-end:none;paint-order:normal;enable-background:new"
     d="M 1.230574,0.4324325 C 0.548728,0.4324325 0,0.9723695 0,1.6431585 V 14.356842 c 0,0.670789 0.548728,1.210726 1.230574,1.210726 H 14.769426 C 15.451272,15.567568 16,15.027631 16,14.356842 V 1.6431585 c 0,-0.670789 -0.548728,-1.210726 -1.230574,-1.210726 z m 0.81799,1.802365 h 0.02661 2.730574 c 0.768783,0 1.325409,0.212134 1.749578,0.609797 0.344651,0.344614 0.503378,0.795498 0.503378,1.352196 v 0.02618 c 0,0.47718 -0.106004,0.874882 -0.344594,1.192989 -0.238591,0.29164 -0.556667,0.530478 -0.927787,0.663007 l 1.458192,2.120777 H 5.706931 l -1.2462,-1.829392 H 3.37416 v 1.829392 H 2.048569 Z m 5.91174,0 h 0.0266 2.730574 c 0.768783,0 1.325409,0.212134 1.749578,0.609797 0.344651,0.344614 0.503378,0.795498 0.503378,1.352196 v 0.02618 c 0,0.47718 -0.106004,0.874882 -0.344594,1.192989 -0.238591,0.29164 -0.556668,0.530478 -0.927788,0.663007 l 1.458193,2.120777 h -1.537584 l -1.2462,-1.829392 H 9.28589 v 1.829392 H 7.960299 Z m -4.559966,1.166385 v 1.723395 h 1.325591 c 0.318145,0 0.583326,-0.07952 0.742399,-0.238598 0.185541,-0.159072 0.265202,-0.371207 0.265202,-0.609797 v -0.02661 c 0,-0.291602 -0.07966,-0.50345 -0.265202,-0.635979 C 5.282749,3.4810265 5.043975,3.4011775 4.699324,3.4011775 Z m 5.91174,0 v 1.723395 h 1.325591 c 0.318145,0 0.583327,-0.07952 0.742398,-0.238598 0.185542,-0.159072 0.265203,-0.371207 0.265203,-0.609797 v -0.02661 c 0,-0.291602 -0.07966,-0.50345 -0.265203,-0.635979 -0.185577,-0.132567 -0.424352,-0.212416 -0.769003,-0.212416 z M 2.269003,12.915541 h 5.73522 v 0.977196 h -5.73522 z" />
</svg>
