<?xml version="1.0" encoding="UTF-8" standalone="no"?>
<svg
   height="16px"
   viewBox="0 0 16 16"
   width="16px"
   version="1.1"
   id="svg204"
   xml:space="preserve"
   xmlns="http://www.w3.org/2000/svg"
   xmlns:svg="http://www.w3.org/2000/svg"><defs
     id="defs208" /><path
     id="polygon7-2"
     style="fill:#000000;stroke-width:0.0625587"
     class="cls-2"
     d="M 9.181733,5.490773 H 9.627151 L 8.464185,10.509228 H 8.018768 Z m -1.497654,0 H 8.118862 L 6.955896,10.509228 H 6.521114 Z m 2.471692,1.983109 H 8.046294 L 8.157022,6.997811 h 2.152018 z m -2.109477,0 H 5.95183 L 6.092587,6.997811 H 8.157022 Z M 9.874257,9.106663 H 7.668439 L 7.778543,8.630592 h 2.248983 z m -2.205818,0 H 5.670316 L 5.811073,8.630592 h 1.96747 z M 10.955896,2.212699 V 16 h 2.268377 c 0.875821,0 2.235846,-1.297466 2.235846,-2.447919 V 4.723178 c 0,-1.309978 -1.421958,-2.510479 -2.529246,-2.510479 z M 5.044104,0 V 13.787301 H 2.775727 c -0.875821,0 -2.235846,-1.297467 -2.235846,-2.447921 V 2.510479 C 0.539881,1.200501 1.961839,0 3.069127,0 Z" /></svg>
