<?xml version="1.0" encoding="UTF-8" standalone="no"?>
<svg
   width="16"
   height="16"
   version="1"
   id="svg566"
   xmlns="http://www.w3.org/2000/svg"
   xmlns:svg="http://www.w3.org/2000/svg">
  <defs
     id="defs570" />
  <path
     id="path2"
     style="fill:#000000;stroke-width:0.050042"
     d="M 7.9707031 0.001953125 C 4.8132655 0.017644695 2.2578125 2.537984 2.2578125 5.6464844 L 2.2578125 14.037109 C 4.2752495 15.540545 6.2438086 16.007161 7.9707031 15.986328 L 7.9707031 10.884766 L 6.4335938 6.4765625 L 7.9707031 5.6210938 L 7.9707031 0.001953125 z M 5.7675781 5.0976562 A 0.47845155 0.47047737 0 0 1 6.2460938 5.5664062 A 0.47845155 0.47047737 0 0 1 5.7675781 6.0371094 A 0.47845155 0.47047737 0 0 1 5.2890625 5.5664062 A 0.47845155 0.47047737 0 0 1 5.7675781 5.0976562 z " />
  <path
     id="path3"
     style="fill:#000000;stroke-width:0.050042;fill-opacity:0.69999999"
     d="M 7.9707031 0 L 7.9707031 15.998047 C 11.320823 15.959737 13.742187 14.037109 13.742188 14.037109 L 13.742188 5.6464844 C 13.742188 2.5282638 11.171073 -1.1842379e-15 8 0 L 7.9707031 0 z M 10.152344 5.0976562 A 0.47845155 0.47047737 0 0 1 10.630859 5.5664062 A 0.47845155 0.47047737 0 0 1 10.152344 6.0371094 A 0.47845155 0.47047737 0 0 1 9.6738281 5.5664062 A 0.47845155 0.47047737 0 0 1 10.152344 5.0976562 z " />
  <polygon
     style="fill:#000000;stroke:none"
     points="287.03,234.624 256,217.1 255.426,217.424 255.426,323.487 256,325.163 "
     id="polygon4"
     transform="matrix(0.05046425,0,0,0.04962318,-4.9188486,-5.166964)" />
  <path
     id="path4"
     style="fill:#000000;fill-opacity:0.60000002"
     d="M 255.41946 217.39957 L 224.96009 234.63886 L 255.41946 323.47241 L 255.41946 217.39957 z "
     transform="matrix(0.05046425,0,0,0.04962318,-4.9188486,-5.166964)" />
</svg>
