<?xml version="1.0" encoding="UTF-8" standalone="no"?>
<svg
   height="16px"
   viewBox="0 0 16 16"
   width="16px"
   version="1.1"
   id="svg135"
   xmlns="http://www.w3.org/2000/svg"
   xmlns:svg="http://www.w3.org/2000/svg">
  <defs
     id="defs139" />
  <path
     id="path6"
     mask="none"
     style="fill:#000000;stroke-width:0.00801273;stroke-miterlimit:4;stroke-dasharray:none"
     d="m 0.71393,1.5e-5 c -0.0494,0 -0.0976,0.005 -0.14415,0.01453 -0.0466,0.0095 -0.0916,0.02332 -0.13438,0.04135 -0.0428,0.01802 -0.0833,0.04003 -0.12124,0.06565 -0.038,0.02562 -0.0733,0.05489 -0.10561,0.08716 -0.0323,0.03227 -0.0615,0.06762 -0.0872,0.105601 -0.0256,0.03798 -0.0476,0.0785 -0.0657,0.121246 -0.018,0.04275 -0.0319,0.0878 -0.0413,0.134377 -0.009,0.04657 -0.0145,0.0947 -0.0145,0.144154 v 2.55287 c 0.002,0.0061 0.007,0.01364 0.009,0.019 0.009,0.03482 0.0522,0.09401 0.0961,0.131583 0.0688,0.05892 0.0795,0.08185 0.0779,0.167342 -0.001,0.05451 0.0167,0.145985 0.0391,0.203101 0.0224,0.05711 0.05,0.150595 0.0612,0.20785 0.0243,0.124529 0.0916,0.297861 0.13549,0.348094 0.0174,0.01992 0.0319,0.05266 0.0321,0.07292 8.5e-4,0.06467 0.0909,0.234267 0.16622,0.312893 0.045,0.04702 0.10329,0.08058 0.15281,0.088 0.0441,0.0066 0.0803,0.02137 0.0805,0.03297 1.5e-4,0.0116 0.0236,0.05172 0.052,0.08912 0.0353,0.04648 0.0715,0.0679 0.11482,0.06733 0.0597,-7.3e-4 0.0657,0.0089 0.10364,0.166783 0.0221,0.09219 0.0597,0.188221 0.0832,0.213437 0.0236,0.02522 0.051,0.0819 0.0609,0.125996 0.01,0.0441 0.0265,0.09624 0.0371,0.115658 0.0106,0.01942 0.0259,0.06405 0.0338,0.09918 0.0163,0.07283 0.18731,0.190185 0.30954,0.21232 0.0688,0.01245 0.0745,0.02002 0.071,0.0975 -0.003,0.07695 0.003,0.08606 0.0777,0.110071 0.0863,0.02777 0.0888,0.03597 0.0595,0.199469 -0.0129,0.07192 -0.009,0.08703 0.0221,0.08661 0.0219,-2.72e-4 0.038,0.01843 0.0383,0.04442 2.9e-4,0.02466 0.0336,0.09657 0.074,0.159799 0.0695,0.108795 0.0715,0.117716 0.0369,0.168459 -0.0604,0.08848 -0.0451,0.187262 0.0414,0.266797 0.0419,0.03857 0.0972,0.08125 0.12292,0.09499 v 2.86e-4 c 0.0257,0.01372 0.0611,0.02547 0.0785,0.02542 10e-4,10e-6 0.0334,-0.01321 0.0388,-0.01509 l 0.26847,-0.02738 0.076,0.04693 -0.007,0.06928 -0.57187,0.169856 H -1.3e-4 v 1.215812 0.293617 0.07459 0.953485 0.642548 0.09806 c 0.19425,-0.03082 0.16684,-0.107499 0.28607,0.01173 -0.11314,0.46003 0.5823,0.483947 0.93756,0.368767 0.0434,0.05707 0.0896,0.102584 0.49281,0.20338 l 0.64813,-0.42911 C 2.6474,10.580143 2.72159,10.513992 3.0014,10.248113 3.41324,9.856787 3.43266,9.726583 3.92081,9.440458 4.05555,9.387868 4.46296,9.361228 4.54519,9.353018 l 0.74704,0.373516 0.28607,0.42911 0.57215,0.286074 0.42911,0.286073 0.40955,0.09443 -5.6e-4,0.0092 0.2031,0.05364 0.0263,0.156447 0.24472,0.02738 0.0154,0.153373 0.2179,0.01509 -0.007,0.123202 0.25087,0.05643 0.0634,0.156167 0.1584,-0.02235 0.12264,0.193602 0.20115,-0.0095 0.0953,0.165945 0.29781,0.01984 0.0366,0.151697 0.30507,-0.07152 0.24473,0.187456 0.16678,-0.08996 0.01,0.139685 0.23579,0.07152 0.17264,-0.06873 0.16846,0.125157 0.21428,-0.09526 0.27797,0.06872 0.13577,-0.06034 0.13159,0.133538 0.28579,-0.01481 0.18187,-0.120687 0.14024,0.01285 0.28356,-0.04693 0.12348,-0.122643 0.28636,0.04246 0.30116,-0.201704 0.16678,0.06174 0.6554,-0.143875 -0.17126,-0.195837 0.97053,-0.374354 -0.12348,-0.1151 -0.14248,0.03241 1.00908,-0.847604 0.54365,-0.830004 0.3833,-0.679983 0.11035,-0.309261 0.0176,-0.15505 -0.11706,0.09722 -0.37603,0.676631 0.0321,-0.17265 -0.13941,0.09582 -0.47548,0.618801 -0.63109,0.438888 -0.71156,0.02179 L 12.78012,9.970683 11.95095,9.592138 11.47016,9.33037 11.24387,9.28371 10.90695,9.059936 9.82188,8.183557 9.10418,7.777913 9.03708,7.725393 9.05188,7.561124 8.89488,7.433174 c 0.0281,-0.02312 0.10295,-0.08549 0.22405,-0.186619 l 0.2559,-0.213437 0.1232,-0.07208 C 9.56593,6.921368 9.67772,6.856219 9.74639,6.816325 l 0.12488,-0.07264 0.20953,-0.07459 c 0.20514,-0.07313 0.21169,-0.07537 0.31261,-0.09806 l 0.10309,-0.02291 0.0841,0.01816 c 0.0968,0.02115 0.22241,0.03529 0.28719,0.03213 0.0234,-0.0013 0.0435,-0.001 0.045,5.58e-4 0.001,0.0015 0.0107,0.02028 0.0207,0.0419 l 0.0182,0.03939 0.0176,-0.03772 c 0.0163,-0.03475 0.0191,-0.0449 0.0338,-0.121246 l 0.0162,-0.08325 -0.0142,-0.126274 -0.014,-0.126275 -0.0377,-0.113703 -0.0374,-0.113703 -0.0698,-0.09024 c -0.067,-0.08634 -0.0711,-0.09069 -0.0958,-0.105043 -0.0142,-0.0082 -0.062,-0.03633 -0.10644,-0.0623 l -0.0807,-0.04721 -0.13102,-0.01173 -0.13102,-0.01201 -0.0724,-0.03939 c -0.0605,-0.03285 -0.0974,-0.0487 -0.22405,-0.09694 l -0.1517,-0.05783 -0.18131,-0.019 -0.18103,-0.019 -0.0721,0.01955 -0.0721,0.01956 -0.13102,0.07068 -0.13102,0.07096 -0.10141,0.02319 -0.10114,0.02319 -0.44252,0.09694 H 8.04987 L 7.72385,5.578433 7.12656,5.149322 C 7.12356,5.141222 7.05436,5.072102 6.97291,5.006286 6.89141,4.940466 6.78141,4.797941 6.72259,4.720212 6.49976,4.425691 6.19451,3.750394 5.90265,2.906551 5.81255,2.646206 5.69989,2.334573 5.65233,2.213996 5.46276,1.733402 5.28734,1.205636 5.20702,0.874423 5.14812,0.631603 5.03829,0.243477 4.96285,0 Z" />
</svg>
