<?xml version="1.0" encoding="UTF-8" standalone="no"?>
<svg
   width="16"
   height="16"
   version="1"
   id="svg566"
   xmlns="http://www.w3.org/2000/svg"
   xmlns:svg="http://www.w3.org/2000/svg">
  <defs
     id="defs570" />
  <path
     d="m 6.9748507,0.04753287 c -0.962389,0.131012 -1.909215,0.441627 -2.630328,1.12029003 -1.307311,1.230331 -1.541533,3.426851 -0.354567,4.819249 1.72592,2.024662 4.792213,2.008367 6.7478983,3.700567 0.649472,0.5619351 1.235629,1.3927261 1.235629,2.2911071 0,0.861846 -0.593757,1.792851 -1.235629,2.321248 -2.3064143,1.898728 -6.5663223,0.646256 -6.8290053,-2.540308 -0.04914,-0.596022 0.06562,-1.236141 0.519154,-1.663739 0.876861,-0.8267371 2.727801,-0.6337251 3.321413,0.457958 0.120929,0.222385 0.28778,0.785124 -0.08096,0.887493 -0.196812,0.05462 -0.389311,-0.18585 -0.547468,-0.266555 -0.282556,-0.144164 -0.632008,-0.153809 -0.91336,-0.0077 -0.779606,0.404874 -0.615859,1.304022 0,1.778713 0.543413,0.41883 1.277607,0.334399 1.731036,-0.169556 0.206601,-0.229619 0.328809,-0.507974 0.424456,-0.797545 0.142995,-0.432787 0.234404,-0.901925 0.118444,-1.351772 -0.41386,-1.6054671 -2.662916,-2.3008621 -4.064083,-1.6691831 -1.421808,0.640959 -2.071792,2.1509981 -1.969568,3.6420391 0.0346,0.505161 0.210365,0.978683 0.346419,1.461375 0.09634,0.341925 -0.01882,1.16373 0.250552,1.398244 0.385256,0.335459 1.172608,0.108068 1.628338,0.139488 0.529638,0.03646 1.045504,0.233784 1.570978,0.309884 0.737958,0.106863 1.523409,0.116544 2.265131,0.04596 1.3502,-0.128491 2.7807773,-0.468699 3.7995743,-1.421918 1.775936,-1.661656 1.555414,-4.7655431 0.02616,-6.4998301 -1.372706,-1.556656 -3.7696163,-1.776557 -5.5064613,-2.755568 -1.136584,-0.64074 -2.184827,-1.436167 -1.689386,-2.870725 0.48072,-1.391923 2.254829,-1.77842103 3.516104,-1.398463 1.03301,0.3112 2.0839953,1.075426 2.3473713,2.165684 0.119687,0.495407 0.03832,1.00528 -0.05192,1.49791 -0.02528,0.138063 -0.145115,0.408198 0.05107,0.480938 0.557477,0.206748 1.242826,-0.372504 1.471604,-0.809748 0.453684,-0.867143 0.194217,-1.948597 -0.0031,-2.849681 -0.05038,-0.230166 0.0144,-0.60088103 -0.09525,-0.79977403 -0.200063,-0.362859 -1.119962,0.01673 -1.45469,-0.0073 -0.455984,-0.0327 -0.878505,-0.309994 -1.3152373,-0.429535 -0.81435,-0.222932 -1.790184,-0.323621 -2.630475,-0.209232 z"
     fill="#005a68"
     filter="url(#a)"
     id="path7"
     style="fill:#000000;stroke-width:0.0365344" />
</svg>
