<?xml version="1.0" encoding="UTF-8" standalone="no"?>
<svg
   width="16px"
   height="16px"
   viewBox="0 0 16 16"
   version="1.1"
   id="svg14"
   xmlns:xlink="http://www.w3.org/1999/xlink"
   xmlns="http://www.w3.org/2000/svg"
   xmlns:svg="http://www.w3.org/2000/svg">
  <defs
     id="defs3">
    <filter
       id="alpha"
       filterUnits="objectBoundingBox"
       x="0"
       y="0"
       width="1"
       height="1">
      <feColorMatrix
         type="matrix"
         in="SourceGraphic"
         values="0 0 0 0 1 0 0 0 0 1 0 0 0 0 1 0 0 0 1 0"
         id="feColorMatrix1" />
    </filter>
    <mask
       id="mask0">
      <g
         filter="url(#alpha)"
         id="g1">
        <rect
           x="0"
           y="0"
           width="16"
           height="16"
           style="fill:rgb(0%,0%,0%);fill-opacity:0.1;stroke:none;"
           id="rect1" />
      </g>
    </mask>
    <clipPath
       id="clip1">
      <rect
         x="0"
         y="0"
         width="192"
         height="152"
         id="rect2" />
    </clipPath>
    <g
       id="surface57780"
       clip-path="url(#clip1)">
      <path
         style=" stroke:none;fill-rule:nonzero;fill:rgb(0%,0%,0%);fill-opacity:1;"
         d="M 128 107.65625 C 127.917969 111.746094 124.621094 115 120.507812 115 L 120.007812 115 L 120.007812 116 L 120.507812 116 C 123.753906 116 126.566406 114.1875 128 111.519531 Z M 96 115 L 120 116 L 120 115 Z M 96 115 "
         id="path2" />
      <path
         style=" stroke:none;fill-rule:nonzero;fill:rgb(0%,0%,0%);fill-opacity:1;"
         d="M 128 110.65625 C 127.917969 114.746094 124.621094 118 120.507812 118 L 120.007812 118 L 120.007812 119 L 120.507812 119 C 123.730469 119 126.53125 117.210938 127.972656 114.574219 C 127.984375 114.382812 128 114.191406 128 114 Z M 102 118 L 120 119 L 120 118 Z M 102 118 "
         id="path3" />
    </g>
  </defs>
  <path
     id="path9"
     style="fill:#000000;fill-opacity:1;fill-rule:nonzero;stroke:none;stroke-width:1.14286"
     d="M 13.714286,11.428571 V 1.1428571 H 16 V 11.428571 Z m 0,0 M 0,11.428571 V 1.1428571 H 2.2857143 V 11.428571 Z m 0,0 M 0,0 H 3.4285714 V 2.2857143 H 0 Z m 0,0 m 0,10.285714 h 3.4285714 v 2.285715 H 0 Z m 0,0 M 3.4285714,0 v 2.2857143 c 1.8928572,0 3.4285715,1.5357143 3.4285715,3.4285714 V 11.428571 C 5.9022315,10.711551 4.7148245,10.285714 3.4285714,10.285714 v 2.285715 c 1.8928572,0 3.4285715,1.535714 3.4285715,3.428571 H 9.142857 c 0,-1.892857 1.535714,-3.428571 3.428572,-3.428571 v -2.285715 c -1.286253,0 -2.473661,0.425837 -3.428572,1.142857 V 5.7142857 c 0,-1.8928571 1.535714,-3.4285714 3.428572,-3.4285714 V 0 C 10.701431,0 9.042428,0.8974326 8,2.2857143 6.9575718,0.8974326 5.2985687,0 3.4285714,0 Z M 12.571429,0 H 16 v 2.2857143 h -3.428571 z m 0,0 m 0,10.285714 H 16 v 2.285715 h -3.428571 z m 0,0" />
  <use
     xlink:href="#surface57780"
     transform="translate(-168,-16)"
     mask="url(#mask0)"
     id="use14" />
</svg>
