<?xml version="1.0" encoding="UTF-8" standalone="no"?>
<svg
   width="16"
   height="16"
   version="1"
   id="svg566"
   xmlns="http://www.w3.org/2000/svg"
   xmlns:svg="http://www.w3.org/2000/svg">
  <defs
     id="defs570" />
  <path
     d="M 8,7 C 7.453125,7 7,7.453125 7,8 7,8.546875 7.453125,9 8,9 8.546875,9 9,8.546875 9,8 9,7.453125 8.546875,7 8,7 Z m 0,0"
     id="path1-9"
     style="fill:#000000" />
  <path
     d="M 8,0 C 3.609375,0 0,3.609375 0,8 c 0,4.390625 3.609375,8 8,8 4.390625,0 8,-3.609375 8,-8 C 16,3.609375 12.390625,0 8,0 Z m 0,1 c 3.84375,0 7,3.15625 7,7 0,3.84375 -3.15625,7 -7,7 C 4.15625,15 1,11.84375 1,8 1,4.15625 4.15625,1 8,1 Z m 0,0"
     fill-opacity="0.101961"
     id="path2"
     style="fill:#000000" />
  <path
     d="M 8,2 C 4.699219,2 2,4.699219 2,8 c 0,3.300781 2.699219,6 6,6 3.300781,0 6,-2.699219 6,-6 C 14,4.699219 11.300781,2 8,2 Z m 0,2 c 2.222656,0 4,1.777344 4,4 0,2.222656 -1.777344,4 -4,4 C 5.777344,12 4,10.222656 4,8 4,5.777344 5.777344,4 8,4 Z m 0,0"
     fill-opacity="0.34902"
     id="path3"
     style="fill:#000000" />
  <path
     d="M 8,5 C 6.347656,5 5,6.347656 5,8 5,9.652344 6.347656,11 8,11 9.652344,11 11,9.652344 11,8 11,6.347656 9.652344,5 8,5 Z m 0,1 c 1.109375,0 2,0.890625 2,2 0,1.109375 -0.890625,2 -2,2 C 6.890625,10 6,9.109375 6,8 6,6.890625 6.890625,6 8,6 Z m 0,0"
     fill-opacity="0.501961"
     id="path4"
     style="fill:#000000" />
</svg>
