<?xml version="1.0" encoding="UTF-8" standalone="no"?>
<svg
   width="16"
   height="16"
   version="1"
   id="svg566"
   xmlns="http://www.w3.org/2000/svg"
   xmlns:svg="http://www.w3.org/2000/svg">
  <defs
     id="defs570" />
  <path
     id="path1"
     style="baseline-shift:baseline;display:inline;overflow:visible;vector-effect:none;stroke-width:0.969662;enable-background:accumulate;stop-color:#000000"
     d="m 6.0779696,0.53798558 c -1.304929,0.06185 -2.455332,0.70846902 -3.054813,1.74236102 -0.106789,0.184171 -0.20338,0.413623 -0.276506,0.638235 -0.07312,0.224611 -0.124995,0.43138 -0.124995,0.615507 0,0.02011 6e-5,0.03187 0,0.03788 -0.0093,0.008 -0.04796,0.04154 -0.128784,0.0928 -0.220189,0.139639 -0.31965,0.190037 -0.551116,0.212113 -0.231466,0.02208 -0.602494,-0.0017 -1.26321098,-0.0625 -0.178326,-0.01641 -0.259226,-0.04298 -0.405289,-0.0019 -0.07304,0.02057 -0.161833,0.09187 -0.196962,0.155298 -0.03513,0.06343 -0.04008,0.103611 -0.04924,0.140146 -0.02206,0.08789 -0.02443,0.162355 -0.0265099974,0.261354 -0.002100003,0.099 0.001799997,0.211386 0.009499997,0.318171 0.0735,1.023609 0.889928,1.883574 2.03401698,2.227192 0.210185,0.06312 0.562886,0.111807 0.863605,0.130677 l 0.386349,0.02462 0.104163,0.172342 c 0.03989,0.0667 0.07532,0.128611 0.102269,0.179918 -0.01089,0.01481 -0.01687,0.02401 -0.0303,0.04167 -0.06575,0.08646 -0.160684,0.203027 -0.263247,0.325745 -0.816137,0.976525 -1.311035,1.809847 -1.52646,2.6097544 -0.152334,0.565635 -0.148763,1.593342 0.0057,2.1628 0.399103,1.472006 1.495196,2.500645 3.001785,2.821868 0.34881,0.07437 1.052505,0.08001 3.374878,0.08333 1.387238,0.002 2.1392404,0.0021 2.5983914,-0.01136 0.45915,-0.01346 0.646195,-0.04393 0.844666,-0.09469 1.935349,-0.494981 3.585893,-2.483221 4.232802,-4.978987 0.101702,-0.3923728 0.183454,-0.8872184 0.227264,-1.3086644 0.0219,-0.210723 0.03381,-0.403281 0.03409,-0.558692 1.39e-4,-0.07771 -0.003,-0.144749 -0.01136,-0.208326 -0.0083,-0.06358 5.58e-4,-0.118992 -0.08144,-0.217795 -0.03267,-0.03937 -0.07775,-0.08872 -0.15151,-0.124996 -0.07376,-0.03627 -0.163176,-0.04426 -0.23484,-0.03409 -0.143327,0.02036 -0.261313,0.07848 -0.473468,0.174237 -0.461468,0.20828 -1.049834,0.349288 -1.386313,0.348472 -0.43025,-0.0011 -0.805763,-0.100748 -1.69312,-0.465892 -1.050664,-0.432344 -1.703674,-0.602835 -2.4980164,-0.643916 l -0.07765,-0.0038 C 10.159146,6.5968856 10.547107,5.5824566 10.479381,4.3181376 10.440951,3.6008086 10.339684,3.2043846 10.047578,2.6155486 9.3556406,1.2207196 7.8598976,0.45351358 6.0780246,0.53797158 Z m 0.223477,0.84845402 c 1.507947,-0.0039 2.751951,0.856198 3.162765,2.155225 0.249314,0.788356 0.192601,1.783461 -0.128784,2.460138 -0.181794,0.38277 -0.795875,1.020786 -1.242379,1.268894 -0.199462,0.110832 -0.325245,0.178271 -0.428015,0.3087 -0.05138,0.06521 -0.09387,0.16799 -0.08522,0.265143 0.0086,0.09715 0.05156,0.165883 0.0909,0.219688 0.02526,0.03455 0.07255,0.08786 0.138253,0.121208 0.0657,0.03335 0.132038,0.04245 0.195069,0.04545 0.126063,0.006 0.273086,-0.0096 0.543541,-0.03788 1.044546,-0.109372 1.6132794,-0.0019 2.9790594,0.566267 1.475264,0.613671 2.323458,0.68354 3.47904,0.274611 l 0.0606,-0.02083 c -0.02628,0.29846 -0.0981,0.8065083 -0.206432,1.2234404 -0.56303,2.166991 -2.114064,3.935782 -3.670322,4.304768 -0.0084,0.002 -0.1564,0.02021 -0.346577,0.0303 -0.190178,0.01009 -0.441463,0.01801 -0.731035,0.02462 -0.5791434,0.01321 -1.3147614,0.01999 -2.0529564,0.01894 -0.738195,-0.0011 -1.478029,-0.0097 -2.066212,-0.02462 -0.294094,-0.0074 -0.550921,-0.01585 -0.74808,-0.02651 -0.197158,-0.01066 -0.347744,-0.02801 -0.37688,-0.03409 -0.927424,-0.193467 -1.731397,-0.816127 -2.105985,-1.615472 -0.271807,-0.580024 -0.385642,-1.255579 -0.312488,-1.801071 0.126483,-0.943158 0.458579,-1.5782074 1.520778,-2.8502754 0.13156,-0.157552 0.252467,-0.306219 0.340896,-0.422334 0.04422,-0.05805 0.07982,-0.108272 0.107952,-0.149616 0.01406,-0.02067 0.026,-0.03778 0.03788,-0.05871 0.0059,-0.01046 0.01165,-0.02083 0.01894,-0.03788 0.0037,-0.0085 0.007,-0.01885 0.01136,-0.03409 0.0021,-0.0077 0.0056,-0.01687 0.0076,-0.02841 0.0018,-0.01105 0.0037,-0.04067 0.0038,-0.04356 -8.18e-4,-0.07586 -0.01414,-0.08202 -0.02083,-0.100376 -0.0067,-0.01835 -0.01314,-0.03423 -0.02083,-0.05113 -0.01539,-0.03381 -0.0338,-0.07176 -0.05682,-0.115526 -0.04604,-0.08751 -0.108616,-0.195227 -0.176129,-0.308701 -0.105622,-0.177528 -0.146126,-0.260186 -0.155298,-0.280292 v -0.0019 c 0.06416,-0.09779 0.117252,-0.169643 0.160979,-0.255672 0.04397,-0.08648 0.07709,-0.202353 0.0625,-0.314383 -0.02919,-0.22406 -0.150438,-0.367346 -0.350366,-0.691263 -0.342035,-0.55415 -0.458945,-0.929982 -0.46021,-1.44881 -0.0018,-0.743896 0.172209,-1.163687 0.704519,-1.698802 0.49474,-0.497347 1.330292,-0.833152 2.115454,-0.835198 z m -1.439342,1.874932 c -0.02058,0.0012 -0.0418,0.0042 -0.0625,0.0076 -0.165558,0.02693 -0.304752,0.121047 -0.426121,0.242415 -0.121272,0.121272 -0.215339,0.258914 -0.242415,0.424228 -0.02707,0.165312 0.01867,0.328476 0.09659,0.479148 0.06352,0.12285 0.15162,0.236497 0.276504,0.306807 0.124886,0.07031 0.26341,0.08973 0.41097,0.09091 0.194899,0.0015 0.391156,-0.08245 0.534073,-0.22537 0.362075,-0.362077 0.282535,-0.987299 -0.170449,-1.221547 -0.132136,-0.06833 -0.272558,-0.112437 -0.416652,-0.104163 z m -2.198783,1.323816 c 0.0012,0.005 0.0026,0.0081 0.0038,0.01326 0.101084,0.457798 0.284284,0.898431 0.535965,1.287832 l 0.142041,0.217795 -0.02841,0.05114 c -0.01326,0.02461 -0.01864,0.0302 -0.02462,0.03977 -0.0025,-0.0024 -0.04105,0.0042 -0.151509,0.0019 -0.14777,-0.0031 -0.404433,-0.02659 -0.528391,-0.04735 -0.572275,-0.09581 -1.106694,-0.375926 -1.354117,-0.668536 -0.13429,-0.158815 -0.27541898,-0.499198 -0.33710898,-0.744291 0.65543898,0.09041 1.21764698,0.06215 1.65713698,-0.11742 0.03352,-0.0137 0.05451,-0.02191 0.08523,-0.03409 z m 4.18356,4.547184 c -0.255745,0.01298 -0.473849,0.0454 -0.666642,0.09659 -0.789833,0.209719 -1.376681,0.6874539 -1.664713,1.3086644 -0.288032,0.621211 -0.269426,1.374012 0.08712,2.102197 0.388499,0.793436 1.173252,1.31168 2.13818,1.439342 0.309709,0.04097 0.594098,0.03451 1.469644,-0.02841 0.467993,-0.03363 1.124805,-0.109235 1.679864,-0.1856 0.2775284,-0.03818 0.5297594,-0.07597 0.7196704,-0.109844 0.09496,-0.01694 0.173154,-0.03211 0.236734,-0.04735 0.03179,-0.0076 0.05903,-0.0152 0.08712,-0.02462 0.02809,-0.0094 0.04619,0.0056 0.124996,-0.07197 0.05692,-0.05599 0.111286,-0.14473 0.119314,-0.244309 0.008,-0.09958 -0.02588,-0.188513 -0.06818,-0.257567 -0.08459,-0.138108 -0.208934,-0.243794 -0.392032,-0.386349 l -0.05113,-0.03977 c 0.15779,-0.100029 0.419338,-0.266674 0.5871,-0.373093 0.115356,-0.07318 0.209462,-0.136972 0.287869,-0.217795 0.07841,-0.08082 0.151484,-0.20567 0.138252,-0.346578 -0.01324,-0.140909 -0.09286,-0.238566 -0.17613,-0.318171 -0.08326,-0.07961 -0.184575,-0.151676 -0.312488,-0.236734 -0.02939,-0.01955 -0.0465,-0.03423 -0.07386,-0.05303 0.117085,-0.06222 0.243462,-0.128612 0.399606,-0.206431 0.343874,-0.171381 0.523306,-0.25867 0.651492,-0.350367 0.06409,-0.04585 0.1269,-0.100585 0.164767,-0.185599 0.03786,-0.08501 0.0319,-0.169291 0.02651,-0.215901 -0.0095,-0.08227 -0.04985,-0.221277 -0.155297,-0.2973379 C 12.099201,9.8062871 12.013499,9.8007161 11.901629,9.7819726 11.773806,9.7605626 11.10742,9.6447056 10.43009,9.5263006 8.7133576,9.2261966 7.6141226,9.0934236 6.8468866,9.1323756 Z m 0.164767,0.8882254 c 0.449776,-0.01785 1.013575,0.02271 1.723422,0.119313 0.455357,0.06197 1.080419,0.15926 1.5946404,0.24431 0.100597,0.01664 0.165728,0.02817 0.255672,0.04356 -0.150118,0.07467 -0.294171,0.148901 -0.405288,0.210219 -0.06071,0.0335 -0.11328,0.06496 -0.155298,0.09091 -0.02101,0.01297 -0.03871,0.02314 -0.05682,0.03598 -0.0181,0.01284 -0.03252,0.01739 -0.07007,0.0625 -0.05319,0.0639 -0.0963,0.165793 -0.08901,0.267036 0.0073,0.101243 0.05316,0.18023 0.104163,0.244309 0.102016,0.12816 0.244171,0.230673 0.454529,0.367411 0.0355,0.02307 0.05198,0.0388 0.08333,0.0606 -0.095,0.05948 -0.196219,0.121454 -0.314383,0.195069 -0.166614,0.103799 -0.296403,0.188183 -0.399606,0.26893 -0.103204,0.08075 -0.191963,0.156154 -0.238628,0.291656 -0.04667,0.135501 0.0047,0.298861 0.07576,0.392031 0.02803,0.03672 0.07132,0.06492 0.104163,0.09659 -0.643401,0.0898 -1.3106,0.165584 -1.873039,0.187493 -0.664239,0.02587 -1.225016,-0.01646 -1.369268,-0.06629 -0.77633,-0.268157 -1.237992,-0.887677 -1.240485,-1.630623 -0.0016,-0.445159 0.09214,-0.697265 0.3087,-0.920421 0.27498,-0.283347 0.591385,-0.447554 1.094658,-0.522708 0.125818,-0.01879 0.262939,-0.03193 0.412864,-0.03788 z" />
</svg>
