<?xml version="1.0" encoding="UTF-8" standalone="no"?>
<svg
   width="16"
   height="16"
   version="1"
   id="svg566"
   xmlns="http://www.w3.org/2000/svg"
   xmlns:svg="http://www.w3.org/2000/svg">
  <defs
     id="defs570" />
  <g
     id="g1"
     transform="matrix(0.21333334,0,0,0.21333334,17.89145,6.0449735)">
    <path
       id="rect3"
       style="fill:#000000;fill-opacity:1;stroke-width:0.274489;stroke-linecap:round;stroke-linejoin:round"
       d="m -55.74117,-28.335812 v 4.6875 h 14.0625 v 4.687498 h 4.6875 v -4.687498 -4.6875 z m 14.0625,9.374998 h -4.6875 -4.6875 v 4.6875 h 4.6875 v 4.6874997 h 4.6875 v -4.6874997 z m 0,9.3749997 v 4.6875 4.68749993 4.68749997 h 4.6875 v -4.68749997 h 4.6875 V -4.8983143 h -4.6875 v -4.6875 z m 9.375,4.6875 h 4.687499 4.6875 4.6875 4.6875 v -4.6875 h -4.6875 -4.6875 -4.6875 -4.687499 z m 18.749999,0 v 4.68749993 4.68749997 h 4.6875003 V -0.21081437 -4.8983143 Z m 0,9.3749999 h -4.6875 v 4.6874999 h 4.6875 z m 0,4.6874999 v 4.6874995 4.6875 h 4.6875003 v -4.6875 -4.6874995 z m 0,9.3749995 h -4.6875 v 4.6875 4.6875 h 4.6875 v -4.6875 z m -4.6875,9.375 h -4.6875 v 4.6875 4.6875 h 4.6875 v -4.6875 z m -4.6875,9.375 h -4.6875 -4.687499 v 4.6875 h 4.687499 4.6875 z m -9.374999,4.6875 h -4.6875 v 4.6875 h 4.6875 z m -4.6875,0 v -4.6875 h -4.6875 -4.6875 v 4.6875 h 4.6875 z m -9.375,-51.5624993 h -4.6875 v 4.6875 4.68749993 4.68749997 h 4.6875 V -0.21081437 -4.8983143 Z m -9.375,-14.0624977 h -4.6875 v 4.687498 h 4.6875 z m -4.6875,4.687498 h -4.6875 v 4.6875 h 4.6875 z m -4.6875,4.6875 h -4.6875 v 4.6874997 h 4.6875 z m 0,4.6874997 v 4.6875 4.68749993 h 4.6875 v -4.68749993 -4.6875 z m -4.6875,0 h -4.6875 v 4.6875 4.68749993 h 4.6875 V -4.8983143 Z m -4.6875,9.37499993 h -4.6875 V 4.4766856 h 4.6875 z m 0,4.68749997 v 4.6874999 h 4.6875 V 4.4766856 Z m 0,4.6874999 h -4.6875 v 4.6874995 h 4.6875 z m -4.6875,4.6874995 h -4.687501 v 4.6875 4.6875 4.6875 h 4.687501 v -4.6875 -4.6875 z m 0,14.0625 v 4.6875 h 4.6875 v -4.6875 z m 4.6875,4.6875 v 4.6875 h 4.6875 v -4.6875 z m 4.6875,4.6875 v 4.6875 h 4.6875 4.6875 v -4.6875 h -4.6875 z m 0,4.6875 h -4.6875 v 4.6875 h 4.6875 z m 28.125,-28.125 v 4.6875 h 4.6875 v -4.6875 z m 4.6875,4.6875 v 4.6875 h 4.6875 4.687499 v -4.6875 h -4.687499 z m 9.374999,0 h 4.6875 v -4.6875 h -4.6875 z m -28.124999,23.4375 v 4.6875 h 4.6875 v -4.6875 z" />
    <path
       id="rect61"
       style="fill:#000000;fill-opacity:0.8;stroke-width:0.28125;stroke-linecap:round;stroke-linejoin:round"
       d="m -46.36617,-23.648312 v 4.687498 h 4.6875 v -4.687498 z m -14.0625,4.687498 v 4.6875 h 4.6875 v -4.6875 z" />
    <path
       id="rect62"
       style="fill:#000000;fill-opacity:0.6;stroke-width:0.28125;stroke-linecap:round;stroke-linejoin:round"
       d="m -55.74117,-23.648312 v 4.687498 4.6875 h 4.6875 v -4.6875 h 4.6875 v -4.687498 h -4.6875 z" />
    <path
       id="rect64"
       style="fill:#000000;fill-opacity:0.4;stroke-width:0.28125;stroke-linecap:round;stroke-linejoin:round"
       d="M -74.49117,-0.21081437 V 4.4766856 h 4.6875 4.6875 4.6875 v -4.68749997 h -4.6875 -4.6875 z m 4.6875,42.18749937 v 4.6875 h 4.6875 4.6875 v -4.6875 h -4.6875 z m 23.4375,0 v 4.6875 h 4.6875 4.6875 v -4.6875 h -4.6875 z" />
    <path
       id="rect70"
       style="fill:#000000;fill-opacity:1;stroke-width:0.28125;stroke-linecap:round;stroke-linejoin:round"
       d="m -69.80367,4.4766856 v 4.6874999 h 4.6875 V 4.4766856 Z m 46.874999,18.7499994 v 4.6875 h 4.6875 v -4.6875 z m -51.562499,4.6875 v 4.6875 h 4.6875 v -4.6875 z m 4.6875,4.6875 v 4.6875 h 4.6875 v -4.6875 z m 42.187499,0 v 4.6875 h 4.6875 v -4.6875 z m -32.812499,4.6875 v 4.6875 h 4.6875 4.6875 4.6875 v -4.6875 h -4.6875 -4.6875 z m 23.4375,0 v 4.6875 h 4.6875 v -4.6875 z" />
    <path
       id="rect78"
       style="fill:#000000;fill-opacity:0.2;stroke-width:0.28125;stroke-linecap:round;stroke-linejoin:round"
       d="m -65.11617,-14.273314 v 4.6874997 h 4.6875 v -4.6874997 z m 0,4.6874997 h -4.6875 v 4.6875 4.68749993 h 4.6875 V -4.8983143 Z m 9.375,-4.6874997 v 4.6874997 h 4.6875 4.6875 v -4.6874997 h -4.6875 z m 9.375,4.6874997 v 4.6875 4.68749993 h 4.6875 v -4.68749993 -4.6875 z m 14.0625,4.6875 v 4.68749993 h 4.687499 V -4.8983143 Z m 0,4.68749993 h -4.6875 V 4.4766856 h 4.6875 z m -4.6875,4.68749997 h -4.6875 v 4.6874999 h 4.6875 z m -4.6875,4.6874999 h -4.6875 -4.6875 v 4.6874995 h 4.6875 v 4.6875 h 4.6875 v -4.6875 z m 0,9.3749995 v 4.6875 h 4.6875 v -4.6875 z m -18.75,-18.74999937 V 4.4766856 h 4.6875 v -4.68749997 z m 0,4.68749997 h -4.6875 v 4.6874999 h 4.6875 z m -4.6875,4.6874999 h -4.6875 -4.6875 v 4.6874995 h -4.6875 v 4.6875 4.6875 4.6875 h 4.6875 4.6875 v -4.6875 h 4.6875 v -4.6875 h -4.6875 v -4.6875 h 4.6875 z m 0,14.0624995 v 4.6875 h 4.6875 v -4.6875 z m 4.6875,0 h 4.6875 v -4.6875 h -4.6875 z m 4.6875,0 v 4.6875 h 4.6875 v -4.6875 z m -9.375,4.6875 h -4.6875 v 4.6875 h 4.6875 z m 0,4.6875 v 4.6875 h 4.6875 v -4.6875 z M -22.928671,-0.21081437 V 4.4766856 h 4.6875 4.6875 v -4.68749997 h -4.6875 z m -4.6875,9.37499987 v 4.6874995 h 4.6875 V 9.1641855 Z m 0,4.6874995 h -4.687499 v 4.6875 h 4.687499 z m 0,4.6875 v 4.6875 h 4.6875 v -4.6875 z m 9.375,-9.3749995 v 4.6874995 4.6875 h 4.6875 v -4.6875 -4.6874995 z m -9.375,18.7499995 v 4.6875 h 4.6875 v -4.6875 z m 0,4.6875 h -4.687499 -4.6875 v 4.6875 h 4.6875 4.687499 z m -28.124999,0 v 4.6875 h 4.6875 v -4.6875 z m 9.375,0 v 4.6875 h 4.6875 v -4.6875 z" />
    <path
       id="rect121"
       style="fill:#000000;fill-opacity:0.8;stroke-width:0.28125;stroke-linecap:round;stroke-linejoin:round"
       d="m -60.42867,41.976685 v 4.6875 h 4.6875 v -4.6875 z m 9.375,0 v 4.6875 h 4.6875 v -4.6875 z" />
  </g>
</svg>
