<?xml version="1.0" encoding="UTF-8" standalone="no"?>
<svg
   width="16"
   height="16"
   version="1"
   id="svg566"
   xmlns="http://www.w3.org/2000/svg"
   xmlns:svg="http://www.w3.org/2000/svg">
  <defs
     id="defs570" />
  <path
     id="path4"
     style="fill:#000000;fill-opacity:1;stroke-width:0.148147"
     d="M 8,0 C 3.581645,0 0,3.5815972 0,8 c 0,4.418403 3.581645,8 8,8 4.418356,0 8,-3.581597 8,-8 C 16,3.5815972 12.418356,0 8,0 Z M 2.329168,4.8564083 H 3.515924 L 4.631886,8.1602058 C 4.731466,8.480881 4.843487,8.8479692 4.967958,9.2614716 5.048618,9.5275947 5.13631,9.817565 5.230904,10.130933 5.322544,9.817565 5.407595,9.5275947 5.486459,9.2614716 5.608164,8.8479692 5.717552,8.480881 5.814363,8.1602058 L 6.892984,4.8564083 H 8.067292 L 5.901493,11.143592 H 4.536588 Z m 6.603199,0 h 2.410853 c 0.453629,0 0.844761,0.081707 1.173919,0.2448575 0.331924,0.1631506 0.58804,0.3952176 0.767832,0.6962026 0.179792,0.3009847 0.269558,0.6569529 0.269558,1.0676423 0,0.4078764 -0.09543,0.7607682 -0.286284,1.0589399 -0.18809,0.2981718 -0.453628,0.5287006 -0.796616,0.6918514 -0.0294,0.013855 -0.05918,0.027294 -0.08946,0.039952 l 1.288666,2.487737 H 12.463464 L 11.301992,8.8564079 c -0.0098,7.39e-5 -0.0197,0 -0.02956,0 H 10.027719 V 11.143591 H 8.932372 Z m 1.095347,0.9454112 v 2.1348894 h 1.261438 c 0.243411,0 0.453499,-0.043732 0.630525,-0.1309335 0.177026,-0.087201 0.313944,-0.2107066 0.410755,-0.3710445 0.09681,-0.1603376 0.145476,-0.3502108 0.145476,-0.5696202 0,-0.2194094 -0.04866,-0.4081398 -0.145476,-0.5656644 C 12.233622,6.1419214 12.096703,6.0195587 11.919677,5.9323577 11.742651,5.8451567 11.529927,5.8018195 11.280984,5.8018195 Z" />
</svg>
