<?xml version="1.0" encoding="UTF-8" standalone="no"?>
<svg
   height="16px"
   viewBox="0 0 16 16"
   width="16px"
   version="1.1"
   id="svg135"
   xmlns="http://www.w3.org/2000/svg"
   xmlns:svg="http://www.w3.org/2000/svg">
  <defs
     id="defs139" />
  <path
     d="m 12.332312,14.72525 c 0.397125,-0.712719 0.623407,-1.533437 0.623407,-2.406687 0,-2.7355316 -2.220438,-4.9556878 -4.9559697,-4.9556878 -2.0319679,0 -3.6812492,-1.6492812 -3.6812492,-3.6814374 C 4.3185001,1.6492502 5.9677814,2.2e-7 7.9997493,2.2e-7 12.416031,2.2e-7 16,3.5840002 16,8.0000002 16,10.819844 14.538344,13.300407 12.332312,14.72525 Z M 7.9997493,1.6487815 c -0.3737493,0 -0.6773746,0.3035938 -0.6773746,0.6775624 0,0.3739063 0.3036253,0.6775626 0.6773746,0.6775626 0.3742813,0 0.677532,-0.3036563 0.677532,-0.6775626 0,-0.3739686 -0.3032507,-0.6775624 -0.677532,-0.6775624 z m 1.3550947,1.355125 c -0.3738747,0 -0.6775627,0.3035625 -0.6775627,0.6775313 0,0.3739375 0.303688,0.6775624 0.6775627,0.6775624 0.3742809,0 0.677531,-0.3036249 0.677531,-0.6775624 0,-0.3739688 -0.30325,-0.6775313 -0.677531,-0.6775313 z m -2.71,0 c -0.3739373,0 -0.6775,0.3035625 -0.6775,0.6775313 0,0.3739375 0.3035627,0.6775624 0.6775,0.6775624 0.3739373,0 0.6775307,-0.3036249 0.6775307,-0.6775624 0,-0.3739688 -0.3035934,-0.6775313 -0.6775307,-0.6775313 z m 1.3549053,1.3550937 c -0.3737493,0 -0.6773746,0.3035938 -0.6773746,0.6774999 0,0.3739689 0.3036253,0.6775626 0.6773746,0.6775626 0.3742813,0 0.677532,-0.3035937 0.677532,-0.6775626 0,-0.3739061 -0.3032507,-0.6774999 -0.677532,-0.6774999 z"
     fill="#ff3554"
     id="path5-1"
     style="stroke-width:0.03125;fill:#000000" />
  <path
     d="m 3.6675308,1.2747502 c -0.397,0.7127188 -0.6232494,1.5334375 -0.6232494,2.4066876 0,2.7355312 2.2201253,4.9556874 4.9554679,4.9556874 2.0321877,0 3.6816567,1.6492808 3.6816567,3.6814378 C 11.681406,14.350687 10.031937,16 7.9997493,16 3.5839694,16 1.9e-7,12.416 1.9e-7,8.0000002 c 0,-2.8198125 1.46137461,-5.3004687 3.66753061,-6.72525 z m 4.3322185,9.0111558 c -0.3737493,0 -0.6773746,0.303625 -0.6773746,0.677563 0,0.373969 0.3036253,0.677531 0.6773746,0.677531 0.3742813,0 0.677532,-0.303562 0.677532,-0.677531 0,-0.373938 -0.3032507,-0.677563 -0.677532,-0.677563 z M 9.354844,11.641 c -0.3738747,0 -0.6775627,0.303594 -0.6775627,0.677563 0,0.373968 0.303688,0.677562 0.6775627,0.677562 0.3742809,0 0.677531,-0.303594 0.677531,-0.677562 0,-0.373969 -0.30325,-0.677563 -0.677531,-0.677563 z m -1.3550947,1.355125 c -0.3737493,0 -0.6773746,0.303563 -0.6773746,0.677532 0,0.373937 0.3036253,0.677562 0.6773746,0.677562 0.3742813,0 0.677532,-0.303625 0.677532,-0.677562 0,-0.373969 -0.3032507,-0.677532 -0.677532,-0.677532 z M 6.644812,11.641 c -0.3739053,0 -0.6775,0.303594 -0.6775,0.677563 0,0.373968 0.3035947,0.677562 0.6775,0.677562 0.3739693,0 0.6775627,-0.303594 0.6775627,-0.677562 0,-0.373969 -0.3035934,-0.677563 -0.6775627,-0.677563 z"
     fill="#3a99ff"
     id="path6"
     style="stroke-width:0.03125;fill:#000000;opacity:0.6" />
</svg>
