<?xml version="1.0" encoding="UTF-8" standalone="no"?>
<svg
   width="16"
   height="16"
   version="1"
   id="svg566"
   xmlns="http://www.w3.org/2000/svg"
   xmlns:svg="http://www.w3.org/2000/svg">
  <defs
     id="defs570" />
  <path
     id="path8"
     style="display:inline;fill:#000000;fill-opacity:1;stroke-width:0.133333;stroke-linecap:round;stroke-linejoin:round;enable-background:new"
     d="M 7.6,0 A 0.53338667,0.53338667 0 0 0 7.070833,0.467187 L 6.917448,1.694271 C 6.527191,1.761561 6.148354,1.863038 5.785156,1.998177 L 5.038281,1.011979 A 0.53338667,0.53338667 0 0 0 4.71875,0.811198 0.53338667,0.53338667 0 0 0 4.346354,0.871878 l -0.692708,0.40026 a 0.53338667,0.53338667 0 0 0 -0.22474,0.669011 l 0.483073,1.145573 c -0.29927,0.249689 -0.575571,0.52599 -0.82526,0.82526 L 1.941146,3.428909 A 0.53338667,0.53338667 0 0 0 1.564063,3.414589 0.53338667,0.53338667 0 0 0 1.271875,3.653652 l -0.4,0.692708 A 0.53338667,0.53338667 0 0 0 1.011979,5.038287 L 1.998437,5.784902 C 1.86324,6.148196 1.761576,6.527083 1.694271,6.917454 L 0.467187,7.070839 A 0.53338667,0.53338667 0 0 0 0,7.6 v 0.8 a 0.53338667,0.53338667 0 0 0 0.467187,0.529167 l 1.227084,0.153385 c 0.06729,0.390257 0.168767,0.769094 0.303906,1.132292 l -0.986198,0.746875 a 0.53338667,0.53338667 0 0 0 -0.140104,0.691927 l 0.4,0.692708 a 0.53338667,0.53338667 0 0 0 0.669271,0.22474 l 1.145573,-0.483073 c 0.249689,0.29927 0.52599,0.575571 0.82526,0.82526 l -0.483073,1.145573 a 0.53338667,0.53338667 0 0 0 0.22474,0.669271 l 0.692708,0.4 a 0.53338667,0.53338667 0 0 0 0.691667,-0.140104 l 0.747135,-0.986458 c 0.363225,0.135156 0.742002,0.236874 1.132292,0.304166 l 0.153385,1.227084 A 0.53338667,0.53338667 0 0 0 7.6,16 h 0.8 a 0.53338667,0.53338667 0 0 0 0.529167,-0.467187 l 0.153385,-1.227084 c 0.390257,-0.06729 0.769094,-0.168766 1.132292,-0.303906 l 0.746875,0.986198 a 0.53338667,0.53338667 0 0 0 0.691927,0.140104 l 0.692708,-0.4 a 0.53338667,0.53338667 0 0 0 0.22474,-0.669271 l -0.483073,-1.145573 c 0.29927,-0.249689 0.575571,-0.52599 0.82526,-0.82526 l 1.145573,0.483073 a 0.53338667,0.53338667 0 0 0 0.669271,-0.22474 l 0.4,-0.692708 a 0.53338667,0.53338667 0 0 0 -0.140104,-0.691927 l -0.986198,-0.746875 c 0.13514,-0.363198 0.23662,-0.742035 0.303906,-1.132292 L 15.532813,8.929167 A 0.53338667,0.53338667 0 0 0 16,8.4 V 7.6 A 0.53338667,0.53338667 0 0 0 15.532813,7.070833 L 14.305729,6.917448 C 14.238419,6.527077 14.13676,6.14819 14.001563,5.784896 l 0.986458,-0.746615 a 0.53338667,0.53338667 0 0 0 0.140104,-0.691927 l -0.4,-0.692708 a 0.53338667,0.53338667 0 0 0 -0.292188,-0.238802 0.53338667,0.53338667 0 0 0 -0.377083,0.01406 l -1.145573,0.483073 c -0.249689,-0.29927 -0.52599,-0.575571 -0.82526,-0.82526 l 0.483073,-1.145573 a 0.53338667,0.53338667 0 0 0 -0.22474,-0.669011 l -0.692708,-0.4 A 0.53338667,0.53338667 0 0 0 11.28125,0.811193 0.53338667,0.53338667 0 0 0 10.961719,1.011974 L 10.214844,1.998172 C 9.851646,1.863033 9.472809,1.761552 9.082552,1.694266 L 8.929167,0.467182 A 0.53338667,0.53338667 0 0 0 8.4,0 Z M 8,2.77526 A 5.2245457,5.2245457 0 0 1 13.224479,8 5.2245457,5.2245457 0 0 1 8,13.224479 5.2245457,5.2245457 0 0 1 2.775521,8 5.2245457,5.2245457 0 0 1 8,2.77526 Z M 5.983333,6.261458 a 1.7371323,1.7371323 0 0 0 -1.736979,1.73724 1.7371323,1.7371323 0 0 0 1.736979,1.737239 1.7371323,1.7371323 0 0 0 1.73724,-1.737239 1.7371323,1.7371323 0 0 0 -1.73724,-1.73724 z m 5.76849,0.02891 c -0.121976,0.07801 -2.892014,1.615927 -2.972396,1.652343 0.473795,0.272558 2.430766,1.423724 2.971094,1.771875 0,0 -0.0017,-0.704591 0.0013,-3.424218 z" />
</svg>
