<?xml version="1.0" encoding="UTF-8"?>
<svg height="16px" viewBox="0 0 16 16" width="16px" xmlns="http://www.w3.org/2000/svg">
    <path d="m 1 4 v 8 c 0 1.109375 0.890625 2 2 2 h 10 c 1.109375 0 2 -0.890625 2 -2 v -8 z m 7 1.75 c 0.691406 0 1.25 0.558594 1.25 1.25 s -0.558594 1.25 -1.25 1.25 s -1.25 -0.558594 -1.25 -1.25 s 0.558594 -1.25 1.25 -1.25 z m -2 3 c 0.691406 0 1.25 0.558594 1.25 1.25 s -0.558594 1.25 -1.25 1.25 s -1.25 -0.558594 -1.25 -1.25 s 0.558594 -1.25 1.25 -1.25 z m 4 0 c 0.691406 0 1.25 0.558594 1.25 1.25 s -0.558594 1.25 -1.25 1.25 s -1.25 -0.558594 -1.25 -1.25 s 0.558594 -1.25 1.25 -1.25 z m 0 0"/>
    <path d="m 6 1 l -1 1 v 3 h 2 v -3 h 2 v 3 h 2 v -3 l -1 -1 z m 0 0"/>
</svg>
