<?xml version="1.0" encoding="UTF-8" standalone="no"?>
<svg
   height="16"
   viewBox="0 0 16 16"
   width="16"
   version="1.1"
   id="svg15572"
   xmlns="http://www.w3.org/2000/svg"
   xmlns:svg="http://www.w3.org/2000/svg">
  <defs
     id="defs15576" />
  <path
     id="path13"
     style="display:inline;fill:#000000;stroke-width:0.00312865;enable-background:new;fill-opacity:1"
     d="M 0 2.6171875 C -4.307651e-06 2.6191375 -5.6468863e-22 2.6210969 0 2.6230469 L 0 10.75 C 0 11.725713 0.52602607 12.574448 1.3105469 13.029297 C 1.6988077 13.2544 2.1499316 13.382815 2.6328125 13.382812 L 7.53125 13.382812 L 8.46875 13.382812 L 8.5097656 13.382812 L 4.4101562 8.2050781 L 4.4042969 8.2148438 L 2.3554688 5.6113281 L 2.2011719 5.4160156 L 0 2.6171875 z M 16 2.6171875 L 12.207031 7.4375 L 15.427734 12.392578 C 15.786033 11.942829 16 11.372337 16 10.75 L 16 2.6230469 C 16 2.6210969 16.000007 2.6191375 16 2.6171875 z M 7.9824219 2.6445312 L 4.9433594 7.375 L 9.6992188 13.382812 L 13.367188 13.382812 C 13.856977 13.382812 14.315061 13.250648 14.707031 13.019531 C 14.711152 13.017102 14.714644 13.01417 14.71875 13.011719 L 11.597656 8.2109375 L 11.59375 8.2167969 L 9.4316406 4.8808594 L 9.3847656 4.8085938 L 7.9824219 2.6445312 z " />
</svg>
