<?xml version="1.0" encoding="UTF-8"?>
<svg height="16px" viewBox="0 0 16 16" width="16px" xmlns="http://www.w3.org/2000/svg">
    <path d="m 7.640625 0 c -1.441406 0.0195312 -2.859375 0.429688 -4.089844 1.183594 c -0.171875 0.105468 -0.425781 0.082031 -0.519531 -0.097656 c -0.109375 -0.214844 -0.207031 -0.457032 -0.378906 -0.554688 c -0.585938 -0.324219 -1.484375 0.242188 -1.78125 0.882812 c -0.554688 1.195313 -0.8945315 2.839844 -0.136719 5.058594 c 0.074219 0.214844 0.292969 0.523438 0.691406 0.539063 c 1.71875 0.03125 3.085938 -0.230469 4.296875 -1.300781 c 0.390625 -0.347657 0.746094 -0.996094 0.589844 -1.359376 c -0.023438 -0.054687 -0.085938 -0.128906 -0.128906 -0.167968 c -0.15625 -0.148438 -0.390625 -0.257813 -0.589844 -0.382813 c -0.171875 -0.109375 -0.140625 -0.316406 0.042969 -0.402343 c 1.273437 -0.582032 2.769531 -0.625 4.128906 -0.023438 c 2.167969 0.960938 3.367187 3.285156 2.886719 5.609375 c -0.296875 1.449219 -1.1875 2.679687 -2.507813 3.308594 c -0.617187 0.375 -1 0.84375 -1.003906 1.566406 c -0.007813 0.957031 0.464844 1.390625 1.257813 1.40625 c 0.363281 0.015625 0.96875 -0.167969 1.265624 -0.320313 c 2.019532 -1.09375 3.390626 -3 3.878907 -5.367187 c 0.753906 -3.667969 -1.164063 -7.382813 -4.585938 -8.898437 c -1.070312 -0.472657 -2.199219 -0.6914068 -3.316406 -0.679688 z m -5.914063 7.929688 c -0.03125 0 -0.0625 0 -0.089843 0.003906 c -0.730469 0.023437 -1.199219 0.410156 -1.167969 1.066406 c 0.03125 0.636719 0.425781 1.113281 1.359375 1 c 0.9375 -0.113281 1.148437 -0.644531 1.070313 -1.144531 c -0.03125 -0.199219 -0.257813 -0.910157 -1.171876 -0.925781 z m 0.582032 2.425781 c -0.660156 -0.007813 -1.195313 0.210937 -1.367188 0.851562 c -0.109375 0.371094 -0.03125 0.933594 0.253906 1.214844 c 0.449219 0.410156 0.855469 0.449219 1.390626 0.226563 c 0.46875 -0.210938 0.847656 -0.613282 0.863281 -1.234376 c 0.003906 -0.558593 -0.296875 -0.964843 -1.007813 -1.050781 c -0.046875 -0.003906 -0.089844 -0.003906 -0.132812 -0.007812 z m 2.050781 1.769531 c -0.609375 -0.007812 -1.316406 0.410156 -1.53125 1.023438 c -0.179687 0.496093 -0.046875 1.121093 0.339844 1.496093 c 0.382812 0.394531 1.074219 0.496094 1.558593 0.269531 c 0.542969 -0.339843 0.839844 -1.046874 0.808594 -1.664062 c -0.003906 -0.488281 -0.285156 -0.761719 -0.699218 -1.007812 c -0.144532 -0.074219 -0.304688 -0.113282 -0.476563 -0.117188 z m 2.933594 0.832031 c -0.8125 0 -1.46875 0.671875 -1.46875 1.496094 c 0 0.828125 0.507812 1.414063 1.421875 1.414063 c 0.953125 0 1.515625 -0.585938 1.515625 -1.414063 c 0 -0.824219 -0.65625 -1.496094 -1.46875 -1.496094 z m 0 0"/>
</svg>
