<?xml version="1.0" encoding="UTF-8" standalone="no"?>
<svg
   height="16px"
   viewBox="0 0 16 16"
   width="16px"
   version="1.1"
   id="svg135"
   xmlns="http://www.w3.org/2000/svg"
   xmlns:svg="http://www.w3.org/2000/svg">
  <defs
     id="defs139" />
  <path
     d="m 9.2430489,15.866954 c -0.205922,-0.07813 -0.936012,-0.391534 -1.622423,-0.69644 -2.033693,-0.903374 -2.412605,-0.924235 -3.842783,-0.211546 -0.714902,0.35625 -1.363699,0.58385 -1.441771,0.505778 -0.07807,-0.07807 0.461242,-0.704493 1.198482,-1.392044 1.173467,-1.094378 1.474957,-1.251274 2.420447,-1.259603 0.853559,-0.0075 1.233001,-0.162499 1.809627,-0.739127 0.415271,-0.415272 0.729611,-0.997069 0.729611,-1.350407 0,-0.342074 -0.427979,-1.1631741 -0.953234,-1.8288261 -1.799967,-2.281095 -1.846448,-2.390551 -1.434162,-3.377287 0.200774,-0.480524 0.814788,-1.442649 1.364477,-2.138056 1.127987,-1.42701 1.109534,-1.455828 -1.098363,-1.715323 -1.766314,-0.207596 -2.943378,0.04022 -3.861859,0.813075 -0.971244,0.817248 -1.01245,1.855912 -0.109458,2.758902 l 0.646698,0.646703 -0.661334,0.652373 -0.661334,0.652374 -0.484573,-0.589262 c -0.59820702,-0.727443 -0.63606402,-2.260898 -0.08451,-3.423213 0.220033,-0.463689 0.829852,-1.231361 1.355153,-1.705936 1.596329,-1.44218801 3.396155,-1.69631001 7.230517,-1.02089001 2.8066911,0.494395 3.7075341,0.470899 4.6800691,-0.122067 0.446166,-0.272032 0.811213,-0.399379 0.811213,-0.282993 0,0.252144 -1.414602,2.06443101 -1.830475,2.34507501 -0.160135,0.108065 -1.087803,0.168629 -2.061477,0.134586 -2.0657131,-0.07222 -2.7933391,0.275888 -3.4443821,1.647861 -0.488503,1.029442 -0.441325,1.159837 1.251836,3.45983 0.600832,0.816176 1.0924231,1.676984 1.0924231,1.912908 0,0.5490411 -1.3919771,2.6586711 -2.0655311,3.1304461 -0.495455,0.347031 -0.469827,0.380226 0.671095,0.869281 1.8075601,0.774812 2.7501341,0.644474 4.0766911,-0.563718 0.308343,-0.280829 0.632444,-0.438779 0.720222,-0.351002 0.278196,0.278197 -0.553764,1.282965 -1.961727,2.369202 -1.335497,1.030329 -1.6858331,1.155191 -2.4391651,0.869346 z"
     style="fill:#000000;stroke-width:0.187203"
     id="path1-1" />
</svg>
