<?xml version="1.0" encoding="UTF-8" standalone="no"?>
<svg
   width="16"
   height="16"
   version="1"
   id="svg566"
   xml:space="preserve"
   xmlns="http://www.w3.org/2000/svg"
   xmlns:svg="http://www.w3.org/2000/svg"><defs
     id="defs570"><linearGradient
       id="linearGradient1062"
       x1="399.57001"
       x2="399.57001"
       y1="545.79999"
       y2="517.79999"
       gradientTransform="matrix(2.1429152,0,0,2.1429152,-1052.2593,-1074.1417)"
       gradientUnits="userSpaceOnUse"><stop
         stop-color="#3889e9"
         offset="0"
         id="stop5635" /><stop
         stop-color="#5ea5fb"
         offset="1"
         id="stop5637" /></linearGradient></defs><circle
     cx="-193.8732"
     cy="65.410446"
     r="0"
     fill="url(#linearGradient1062)"
     stroke-width="1.57151"
     id="circle5662"
     style="display:inline;fill:url(#linearGradient1062);enable-background:new" /><path
     id="path17"
     d="m 5.247349,7.5206252 0.9689464,-1.707917 a 0.94210518,0.95874977 0 0 0 0,-0.9587491 L 5.247349,3.146041 A 0.94210518,0.95874977 0 0 0 4.431461,2.6666667 H 2.493566 A 0.94210518,0.95874977 0 0 0 1.677679,3.146041 L 0.708731,4.8539591 a 0.94210518,0.95874977 0 0 0 0,0.9587491 l 0.968948,1.707917 A 0.94210518,0.95874977 0 0 0 2.493566,8.0000001 H 4.431461 A 0.94210518,0.95874977 0 0 0 5.247349,7.5206252 Z"
     style="display:inline;fill:#000000;fill-opacity:0.4;stroke:none;stroke-width:0;stroke-linecap:square;stroke-linejoin:round;stroke-miterlimit:1.5;stroke-dasharray:none;stroke-opacity:1;paint-order:stroke fill markers;enable-background:new" /><path
     id="path12"
     d="m 9.7860694,4.8539585 0.9689476,-1.707917 a 0.94210518,0.95874977 0 0 0 0,-0.9587491 L 9.7860694,0.47937434 A 0.94210518,0.95874977 0 0 0 8.9701824,-3.689015e-8 H 7.0322874 A 0.94210518,0.95874977 0 0 0 6.2164006,0.47937434 L 5.247452,2.1872924 a 0.94210518,0.95874977 0 0 0 0,0.9587491 l 0.9689486,1.707917 a 0.94210518,0.95874977 0 0 0 0.8158868,0.4793749 h 1.937895 a 0.94210518,0.95874977 0 0 0 0.815887,-0.4793749 z"
     style="display:inline;fill:#000000;fill-opacity:0.701961;stroke:none;stroke-width:0;stroke-linecap:square;stroke-linejoin:round;stroke-miterlimit:1.5;stroke-dasharray:none;stroke-opacity:1;paint-order:stroke fill markers;enable-background:new" /><path
     id="path13"
     d="m 14.322322,7.5206255 0.968947,-1.707917 a 0.94210518,0.95874977 0 0 0 0,-0.9587491 L 14.322322,3.1460413 A 0.94210518,0.95874977 0 0 0 13.506435,2.666667 H 11.56854 A 0.94210518,0.95874977 0 0 0 10.752654,3.1460413 L 9.7837054,4.8539594 a 0.94210518,0.95874977 0 0 0 0,0.9587491 l 0.9689486,1.707917 a 0.94210518,0.95874977 0 0 0 0.815886,0.4793749 h 1.937895 a 0.94210518,0.95874977 0 0 0 0.815887,-0.4793749 z"
     style="display:inline;fill:#000000;fill-opacity:0.901961;stroke:none;stroke-width:0;stroke-linecap:square;stroke-linejoin:round;stroke-miterlimit:1.5;stroke-dasharray:none;stroke-opacity:1;paint-order:stroke fill markers;enable-background:new" /><path
     id="path14"
     d="m 14.317453,12.853959 0.968946,-1.707917 a 0.94210518,0.95874977 0 0 0 0,-0.95875 L 14.317453,8.4793747 A 0.94210518,0.95874977 0 0 0 13.501565,8.0000004 H 11.56367 A 0.94210518,0.95874977 0 0 0 10.747783,8.4793747 L 9.7788347,10.187294 a 0.94210518,0.95874977 0 0 0 0,0.958748 l 0.9689483,1.707917 a 0.94210518,0.95874977 0 0 0 0.815887,0.479375 h 1.937895 a 0.94210518,0.95874977 0 0 0 0.815888,-0.479375 z"
     style="display:inline;fill:#000000;fill-opacity:0.501961;stroke:none;stroke-width:0;stroke-linecap:square;stroke-linejoin:round;stroke-miterlimit:1.5;stroke-dasharray:none;stroke-opacity:1;paint-order:stroke fill markers;enable-background:new" /><path
     id="path15"
     d="m 9.7860703,15.520625 0.9689467,-1.707917 a 0.94210518,0.95874977 0 0 0 0,-0.958749 L 9.7860703,11.146042 A 0.94210518,0.95874977 0 0 0 8.9701827,10.666667 H 7.0322879 a 0.94210518,0.95874977 0 0 0 -0.815887,0.479375 L 5.247453,12.853959 a 0.94210518,0.95874977 0 0 0 0,0.958749 l 0.9689479,1.707917 A 0.94210518,0.95874977 0 0 0 7.0322879,16 h 1.9378948 a 0.94210518,0.95874977 0 0 0 0.8158876,-0.479375 z"
     style="display:inline;fill:#000000;fill-opacity:0.6;stroke:none;stroke-width:0;stroke-linecap:square;stroke-linejoin:round;stroke-miterlimit:1.5;stroke-dasharray:none;stroke-opacity:1;paint-order:stroke fill markers;enable-background:new" /><path
     id="path16"
     d="m 5.25217,12.853959 0.9689471,-1.707917 a 0.94210518,0.95874977 0 0 0 0,-0.95875 L 5.25217,8.4793744 A 0.94210518,0.95874977 0 0 0 4.436283,8.0000001 H 2.498388 A 0.94210518,0.95874977 0 0 0 1.682501,8.4793744 L 0.713553,10.187292 a 0.94210518,0.95874977 0 0 0 0,0.95875 l 0.968948,1.707917 a 0.94210518,0.95874977 0 0 0 0.815887,0.479375 H 4.436283 A 0.94210518,0.95874977 0 0 0 5.25217,12.853959 Z"
     style="display:inline;fill:#000000;fill-opacity:0.8;stroke:none;stroke-width:0;stroke-linecap:square;stroke-linejoin:round;stroke-miterlimit:1.5;stroke-dasharray:none;stroke-opacity:1;paint-order:stroke fill markers;enable-background:new" /><path
     id="path998-3-9"
     d="M 9.7860694,10.187292 10.755017,8.4793755 a 0.94210518,0.95874977 0 0 0 0,-0.9587497 L 9.7860694,5.8127077 A 0.94210518,0.95874977 0 0 0 8.9701824,5.3333334 H 7.0322874 A 0.94210518,0.95874977 0 0 0 6.2164006,5.8127077 L 5.247452,7.5206258 a 0.94210518,0.95874977 0 0 0 0,0.9587497 l 0.9689486,1.7079165 a 0.94210518,0.95874977 0 0 0 0.8158868,0.479375 h 1.937895 a 0.94210518,0.95874977 0 0 0 0.815887,-0.479375 z"
     style="display:inline;fill:#000000;fill-opacity:1;stroke:none;stroke-width:0;stroke-linecap:square;stroke-linejoin:round;stroke-miterlimit:1.5;stroke-dasharray:none;stroke-opacity:1;paint-order:stroke fill markers;enable-background:new" /></svg>
