<?xml version="1.0" encoding="UTF-8" standalone="no"?>
<!-- Generator: Adobe Illustrator 24.0.3, SVG Export Plug-In . SVG Version: 6.00 Build 0)  -->

<svg
   version="1.1"
   id="Layer_1"
   x="0px"
   y="0px"
   viewBox="0 0 16 16"
   xml:space="preserve"
   width="16"
   height="16"
   xmlns="http://www.w3.org/2000/svg"
   xmlns:svg="http://www.w3.org/2000/svg"><defs
   id="defs9" />
<style
   type="text/css"
   id="style2">
	.st0{fill:#175ddc;}
</style>

<path
   id="path6-5"
   style="fill:#000000;stroke-width:0.0320034"
   d="m 11.996071,1.0798556 -0.0039,0.00586 A 7.8616163,7.8618449 0 0 1 12.263649,1.241965 8.0007065,8.0003344 0 0 0 11.996071,1.0798556 Z m 0.320313,0.1953125 -2.00586,3.4824219 a 4.0003532,4.0004695 0 0 1 1.685547,3.25 4.0003532,4.0004695 0 0 1 -5.6503906,3.634766 L 4.349587,15.109152 A 8.0007065,8.0003344 0 0 0 14.923805,12.00759 8.0007065,8.0003344 0 0 0 12.316384,1.2751681 Z m -8.316407,13.6542969 -0.00391,0.0059 a 8.0007065,8.0003344 0 0 0 0.09961,0.04883 7.8616163,7.8618449 0 0 1 -0.0957,-0.05469 z" /><path
   id="path7"
   style="opacity:0.4;fill:#000000;stroke-width:0.0320034"
   d="M 7.996071,0.00759004 A 8.0007065,8.0003344 0 0 0 1.068337,4.00759 8.0007065,8.0003344 0 0 0 3.683571,14.72634 L 5.681618,11.25759 A 4.0003532,4.0004695 0 0 1 3.996071,8.00759 4.0003532,4.0004695 0 0 1 9.6464616,4.3747775 L 11.642555,0.90602754 A 8.0007065,8.0003344 0 0 0 7.996071,0.00759004 Z m 3.900391,1.02343746 a 7.8616163,7.8618449 0 0 1 0.09766,0.056641 l 0.0039,-0.00781 h -0.002 a 8.0007065,8.0003344 0 0 0 -0.09961,-0.048828 z M 3.90818,14.876731 a 8.0007065,8.0003344 0 0 0 0.087891,0.05859 l 0.002,0.002 0.0039,-0.0059 a 7.8616163,7.8618449 0 0 1 -0.09375,-0.05469 z" /><path
   fill="url(#f)"
   d="m 4.745767,8.0071571 a 3.250476,3.2505706 0 1 0 6.500952,0 3.250476,3.2505706 0 0 0 -6.500952,0"
   style="opacity:0.7;fill:#000000;stroke-width:0.0320034"
   id="path10-2" /></svg>
