<?xml version="1.0" encoding="UTF-8" standalone="no"?>
<svg
   height="16"
   viewBox="0 0 16 16"
   width="16"
   version="1.1"
   id="svg15572"
   xml:space="preserve"
   xmlns="http://www.w3.org/2000/svg"
   xmlns:svg="http://www.w3.org/2000/svg"><defs
     id="defs15576" /><path
     id="path7"
     style="fill:#000000;fill-opacity:1;stroke-width:0.860567;stroke-linecap:round;stroke-linejoin:round;stroke-miterlimit:1.5"
     d="M 7.9980469 0.13476562 C 6.1953275 0.12658259 4.4118002 0.75785324 3.0039062 1.8535156 C 3.4609268 2.1361502 3.8206317 2.5577269 4.0390625 3.0292969 L 4.6992188 4.453125 L 5.0292969 2.8496094 C 5.2338324 1.8549214 6.0684869 0.80620543 7.40625 0.68554688 C 7.478182 0.67634688 7.55143 0.67056625 7.6230469 0.66796875 C 8.1684689 0.64817735 8.6935238 0.8184973 9.046875 1.1953125 C 9.4507154 1.6259741 9.5569035 2.2495424 9.4199219 2.796875 L 8.40625 6.8554688 A 5.0415133 5.0415133 0 0 1 9.703125 6.1191406 L 9.7050781 6.1191406 A 4.9413508 4.9413508 0 0 1 11.574219 5.7890625 A 4.9339312 4.9339312 0 0 1 12.208984 5.8417969 A 4.9432056 4.9432056 0 0 1 14.277344 6.6523438 L 14.277344 6.6542969 A 5.0415133 5.0415133 0 0 1 15.744141 8.2148438 L 15.746094 8.2148438 C 15.848015 8.385141 15.918435 8.5651917 15.960938 8.75 C 16.045497 7.9181133 15.994549 7.0725624 15.792969 6.2539062 C 15.283556 4.2839907 14.085893 2.439739 12.296875 1.3710938 C 11.031881 0.55225328 9.5063252 0.14703033 7.9980469 0.13476562 z M 7.6542969 1.4609375 C 7.6025519 1.4631875 7.5493923 1.4670994 7.4941406 1.4746094 C 6.5405563 1.5523094 5.9495634 2.3242088 5.8085938 3.0097656 L 5.1074219 6.4179688 C 5.0439855 6.7262467 4.8840194 6.7464005 4.7519531 6.4609375 L 3.3183594 3.3652344 C 3.1347469 2.9688352 2.7796326 2.6110102 2.3496094 2.4238281 C 2.0906561 2.31111 1.8031986 2.2592296 1.5117188 2.2988281 C 0.73620105 2.4041841 0.34952105 3.0927561 0.64648438 3.7265625 L 0.92382812 4.3183594 L 3.4921875 9.7988281 C 3.7889654 10.432821 4.5760605 10.910332 5.3242188 10.808594 C 5.7613882 10.749144 6.1872128 10.497016 6.5 10.162109 C 6.50119 10.153709 6.5026563 10.145119 6.5039062 10.136719 A 5.137966 5.137966 0 0 1 7.0898438 8.4023438 A 5.1008688 5.1008688 0 0 1 7.2773438 8.0898438 L 8.6503906 2.6054688 C 8.8096768 1.9690193 8.430483 1.4272487 7.6542969 1.4609375 z M 0.4921875 5.2675781 C -0.24386861 7.238606 -0.16313439 9.5053039 0.79296875 11.392578 C 0.60714113 12.255059 0.34874704 13.105652 0.21484375 13.976562 C 0.14762025 15.060714 1.3420526 15.934347 2.3769531 15.583984 C 3.0992807 15.421074 3.8215497 15.254647 4.5429688 15.087891 C 6.1556762 15.878674 8.0366937 16.05727 9.7851562 15.667969 A 4.9432056 4.9432056 0 0 1 8.9882812 15.304688 L 8.9882812 15.302734 A 4.9988514 4.9988514 0 0 1 7.6347656 14.171875 A 5.1032802 5.1032802 0 0 1 6.4609375 11.242188 C 6.1537991 11.421026 5.8057576 11.544827 5.4316406 11.595703 C 4.2811442 11.75216 3.2326585 11.121688 2.7714844 10.136719 C 2.0124917 8.5162658 1.2434294 6.8919303 0.4921875 5.2675781 z M 11.560547 6.5585938 A 4.1697283 4.1697283 0 0 0 9.9824219 6.8378906 A 4.2698909 4.2698909 0 0 0 8.7070312 7.6074219 A 4.3292465 4.3292465 0 0 0 8.03125 8.3535156 A 4.3292465 4.3292465 0 0 0 7.765625 8.7734375 A 4.3663437 4.3663437 0 0 0 7.2675781 10.248047 C 7.2517566 10.355543 7.240444 10.464117 7.2324219 10.572266 C 7.2244519 10.679656 7.2207031 10.786681 7.2207031 10.894531 A 4.3311013 4.3311013 0 0 0 8.2285156 13.675781 A 4.2272292 4.2272292 0 0 0 9.3710938 14.632812 A 4.1715833 4.1715833 0 0 0 10.828125 15.138672 A 4.1678737 4.1678737 0 0 0 11.28125 15.179688 A 4.1678737 4.1678737 0 0 0 12.625 15.011719 A 4.2420681 4.2420681 0 0 0 13.689453 14.527344 C 14.068531 14.287604 14.266556 13.842237 14.189453 13.400391 C 14.171253 13.296103 14.136777 13.197549 14.091797 13.105469 C 13.946185 12.807421 13.672417 12.583975 13.337891 12.509766 A 1.1092072 1.1092072 0 0 0 12.503906 12.654297 A 2.0143795 2.0143795 0 0 1 11.996094 12.886719 C 11.816543 12.939959 11.630329 12.966797 11.443359 12.966797 A 1.9568788 1.9568788 0 0 1 10.470703 12.708984 A 2.0143795 2.0143795 0 0 1 9.9296875 12.255859 A 2.1158404 2.1158404 0 0 1 9.4375 10.896484 A 2.1924462 2.1924462 0 0 1 9.7050781 9.8457031 A 2.1145419 2.1145419 0 0 1 10.166016 9.2753906 A 2.0570414 2.0570414 0 0 1 10.779297 8.90625 A 1.9605886 1.9605886 0 0 1 12.587891 9.1171875 A 2.0422023 2.0422023 0 0 1 13.183594 9.75 C 13.49827 10.275111 14.17831 10.444047 14.703125 10.128906 C 15.227403 9.813709 15.398122 9.1362353 15.083984 8.6113281 A 4.2689636 4.2689636 0 0 0 13.839844 7.2890625 C 13.317517 6.931445 12.719765 6.6982113 12.09375 6.6054688 A 4.1697283 4.1697283 0 0 0 11.560547 6.5585938 z M 11.537109 9.5488281 A 1.1865548 1.1865548 0 0 0 11.056641 9.625 A 1.2854189 1.2854189 0 0 0 10.671875 9.8574219 A 1.3447745 1.3447745 0 0 0 10.380859 10.216797 A 1.4208239 1.4208239 0 0 0 10.207031 10.896484 A 1.3436616 1.3436616 0 0 0 10.519531 11.761719 A 1.242757 1.242757 0 0 0 10.853516 12.039062 A 1.1845145 1.1845145 0 0 0 11.441406 12.193359 L 11.443359 12.193359 A 1.1741273 1.1741273 0 0 0 11.775391 12.146484 A 1.242757 1.242757 0 0 0 12.087891 12.003906 L 12.089844 12.003906 A 1.8819424 1.8819424 0 0 1 13.505859 11.757812 C 13.94788 11.856022 14.327788 12.108034 14.591797 12.455078 C 15.049197 11.792148 15.405832 11.06151 15.644531 10.294922 C 15.501904 10.491005 15.32054 10.661318 15.101562 10.792969 L 15.099609 10.792969 C 14.217084 11.322904 13.050656 11.031444 12.521484 10.148438 A 1.2705801 1.2705801 0 0 0 12.150391 9.7539062 A 1.1865548 1.1865548 0 0 0 11.537109 9.5488281 z " /></svg>
