<?xml version="1.0" encoding="UTF-8" standalone="no"?>
<svg
   height="16px"
   viewBox="0 0 16 16"
   width="16px"
   version="1.1"
   id="svg204"
   xml:space="preserve"
   xmlns="http://www.w3.org/2000/svg"
   xmlns:svg="http://www.w3.org/2000/svg"><defs
     id="defs208" /><path
     id="path91"
     style="color:#000000;font-style:normal;font-variant:normal;font-weight:normal;font-stretch:normal;font-size:medium;line-height:normal;font-family:sans-serif;font-variant-ligatures:normal;font-variant-position:normal;font-variant-caps:normal;font-variant-numeric:normal;font-variant-alternates:normal;font-variant-east-asian:normal;font-feature-settings:normal;font-variation-settings:normal;text-indent:0;text-align:start;text-decoration-line:none;text-decoration-style:solid;text-decoration-color:#000000;letter-spacing:normal;word-spacing:normal;text-transform:none;writing-mode:lr-tb;direction:ltr;text-orientation:mixed;dominant-baseline:auto;baseline-shift:baseline;text-anchor:start;white-space:normal;shape-padding:0;shape-margin:0;inline-size:0;clip-rule:nonzero;display:inline;overflow:visible;visibility:visible;isolation:auto;mix-blend-mode:normal;color-interpolation:sRGB;color-interpolation-filters:linearRGB;solid-color:#000000;solid-opacity:1;vector-effect:none;fill:#000000;fill-rule:nonzero;stroke:none;stroke-width:0.153846;stroke-linecap:butt;stroke-linejoin:miter;stroke-miterlimit:10;stroke-dasharray:none;stroke-dashoffset:0;stroke-opacity:1;-inkscape-stroke:none;color-rendering:auto;image-rendering:auto;shape-rendering:auto;text-rendering:auto;enable-background:accumulate;stop-color:#000000"
     d="m 6.03966,8.5259773 v 0.898437 H 8 Z M 8,9.4244143 h 1.96034 v -0.898437 z m -6.51863,-8 C 0.66566,1.4244143 0,2.0904653 0,2.9063853 v 3.901443 1.726863 3.6568507 c 0,0.682061 0.54892,1.23137 1.23077,1.23137 h 1.98948 a 1.3748979,1.3748979 0 0 0 2.71364,0 h 4.1202 a 1.3748979,1.3748979 0 0 0 2.71364,0 h 2.0015 C 15.45108,13.422912 16,12.873603 16,12.191542 V 8.5346913 6.8078283 2.9063853 c 0,-0.81592 -0.66596,-1.481971 -1.48167,-1.481971 z m 0,0.592548 h 13.03696 c 0.49747,0 0.88882,0.391355 0.88882,0.889423 v 2.848858 2.779448 c 0,0.498068 -0.39135,0.889724 -0.88882,0.889723 H 9.96034 V 10.322852 L 8,9.4244143 6.03966,10.322852 V 9.4244143 H 1.48137 c -0.49747,0 -0.88882,-0.391655 -0.88882,-0.889723 v -2.779448 -2.848858 c 0,-0.498068 0.39135,-0.889423 0.88882,-0.889423 z m 3.24609,1.439904 c -0.70678,0 -1.27944,0.705015 -1.27944,1.575421 0,0.870405 0.57158,1.576021 1.27944,1.576021 0.70787,0 1.27975,-0.705888 1.27975,-1.576021 0,-0.870134 -0.57188,-1.575421 -1.27975,-1.575421 z m 6.45253,0 c -0.70678,0 -1.27975,0.705015 -1.27975,1.575421 0,0.870405 0.57188,1.576021 1.27975,1.576021 0.70787,0 1.27975,-0.705888 1.27975,-1.576021 0,-0.870134 -0.57188,-1.575421 -1.27975,-1.575421 z m -6.45253,0.728365 a 0.46283693,0.46283693 0 1 1 -0.46274,0.462741 0.46283693,0.46283693 0 0 1 0.46274,-0.462741 z m 6.47987,0 a 0.46283693,0.46283693 0 1 1 -0.46304,0.462741 0.46283693,0.46283693 0 0 1 0.46304,-0.462741 z m -8.05589,2.621395 a 0.78056088,0.34440511 30 0 0 -0.31971,0.09676 0.78056088,0.34440511 30 0 0 0.50361,0.688401 0.78056088,0.34440511 30 0 0 0.84825,0.09195 0.78056088,0.34440511 30 0 0 -0.5039,-0.688401 0.78056088,0.34440511 30 0 0 -0.52825,-0.188702 z m 9.69682,3e-4 a 0.34440511,0.78056088 60 0 0 -0.52825,0.188702 0.34440511,0.78056088 60 0 0 -0.5039,0.688401 0.34440511,0.78056088 60 0 0 0.84825,-0.09195 0.34440511,0.78056088 60 0 0 0.50391,-0.688401 0.34440511,0.78056088 60 0 0 -0.32001,-0.09676 z m -3.1214,0.0619 a 0.06806426,0.06806426 0 0 0 -0.0517,0.0075 c 0,0 -0.86798,0.507812 -1.73498,0.507812 -0.84933,0 -1.73557,-0.508113 -1.73557,-0.508113 a 0.06806426,0.06806426 0 0 0 -0.0928,0.02464 0.06806426,0.06806426 0 0 0 0.0246,0.09315 c 0,0 0.90087,0.526442 1.80378,0.526442 0.91956,0 1.80439,-0.526743 1.80439,-0.526743 a 0.06806426,0.06806426 0 0 0 0.024,-0.09315 0.06806426,0.06806426 0 0 0 -0.0418,-0.03155 z" /></svg>
