<?xml version="1.0" encoding="UTF-8" standalone="no"?>
<svg
   width="16"
   height="16"
   version="1"
   id="svg566"
   xml:space="preserve"
   xmlns="http://www.w3.org/2000/svg"
   xmlns:svg="http://www.w3.org/2000/svg"><defs
     id="defs570" /><g
     style="display:inline;enable-background:new"
     id="g2"
     transform="translate(15.001449,-65.054171)"><g
       style="display:inline;fill:#000000;fill-opacity:1"
       id="g1"
       transform="matrix(0.11538461,0,0,0.11538461,6.199134,71.758942)"><path
         d="M 40,2.3331104 V 48 C 26.75,47.89 16,35.371 16,20 16,13.065396 18.174039,6.71451 21.766719,1.8194907 22.528894,0.78102857 22.181431,0 20.89289,0 H 6.7221104 C 5.4335691,0 3.941861,0.94491849 3.457177,2.1386804 1.2398419,7.5999095 0,13.64205 0,20 0,44.197 17.928,63.891 40,63.995 l 13.66689,0.0043 A 2.3323814,2.3323814 135.00895 0 0 56,61.66689 V 2.3331104 A 2.3331104,2.3331104 45 0 0 53.66689,0 H 42.33311 A 2.3331104,2.3331104 135 0 0 40,2.3331104 Z"
         id="path1"
         transform="matrix(1.5603391,0,0,1.5603391,-183.73839,-38.704988)" /><path
         id="polygon1"
         d="m -46.318954,-13.739561 h -41.280631 a 2.5184605,2.5184605 0 0 0 -2.518451,2.518461 V 5.9426303 a 2.1625571,2.1625571 0 0 0 2.162553,2.1625569 h 20.343327 a 5.9378657,5.9378657 0 0 0 4.198703,-1.7391602 l 17.976426,-17.976426 a 1.2472341,1.2472341 0 0 0 -0.881927,-2.129162 z"
         style="stroke-width:1.56034" /><path
         id="polygon1-7"
         d="m -46.318963,36.191292 h -41.280624 a 2.5184605,2.5184605 0 0 1 -2.518466,-2.51846 V 16.5091 a 2.1625571,2.1625571 0 0 1 2.162552,-2.162556 h 20.343343 a 5.9378657,5.9378657 0 0 1 4.198697,1.73916 l 17.976434,17.976426 a 1.2472341,1.2472341 0 0 1 -0.881936,2.129162 z"
         style="display:inline;fill:#000000;fill-opacity:1;stroke-width:1.56034;enable-background:new" /></g></g></svg>
