<?xml version="1.0" encoding="UTF-8" standalone="no"?>
<svg
   width="16"
   height="16"
   version="1"
   id="svg566"
   xmlns="http://www.w3.org/2000/svg"
   xmlns:svg="http://www.w3.org/2000/svg">
  <defs
     id="defs570" />
  <path
     style="fill:#000000;stroke-width:0.156331"
     d="m 4.5433645,15.743904 c -0.107386,-0.04316 -0.119908,-0.213805 -0.01954,-0.266303 0.03762,-0.01967 0.139158,-0.03548 0.225645,-0.03513 0.227942,9.38e-4 0.596325,-0.214533 0.670566,-0.392217 0.0714,-0.170883 0.0496,-0.225919 -0.101428,-0.256127 -0.08711,-0.01742 -0.120607,-0.0461 -0.120607,-0.103263 0,-0.05814 -0.02566,-0.07914 -0.09666,-0.07914 -0.151248,0 -0.450496,-0.160941 -0.450496,-0.242285 0,-0.09091 -0.05983,-0.09003 -0.124802,0.0018 -0.05575,0.07884 -0.295698,0.139349 -0.397568,0.100258 -0.03513,-0.01348 -0.06387,-0.0578 -0.06387,-0.09849 0,-0.0993 -0.03228,-0.09317 -0.124099,0.02355 -0.110227,0.140132 -0.610939,0.371455 -0.804035,0.371455 -0.11034,0 -0.165232,-0.01932 -0.182461,-0.06422 -0.03273,-0.0853 -0.03166,-0.08592 0.234643,-0.135025 0.127098,-0.02344 0.288753,-0.06665 0.359233,-0.09603 0.11337,-0.04726 0.12514,-0.06599 0.102073,-0.162421 -0.03536,-0.147856 -0.05375,-0.174581 -0.106781,-0.155246 -0.0249,0.0091 -0.07465,-0.009 -0.110556,-0.04026 -0.05789,-0.05034 -0.07022,-0.04754 -0.108853,0.02464 -0.05213,0.0974 -0.09276,0.102048 -0.174815,0.01999 -0.06205,-0.06205 -0.08627,-0.25145 -0.0321,-0.251004 0.01612,1.31e-4 0.08092,0.02715 0.14399,0.06004 0.149338,0.07787 0.23686,0.04887 0.178964,-0.05931 -0.03588,-0.06703 -0.05336,-0.07135 -0.121101,-0.02989 -0.06656,0.04074 -0.08536,0.03757 -0.118027,-0.01994 -0.05931,-0.104393 -0.278539,-0.08467 -0.543047,0.04885 -0.349345,0.176347 -0.549223,0.148719 -0.795034,-0.109896 -0.119046,-0.125246 -0.125088,-0.227344 -0.01747,-0.295116 0.05327,-0.03355 0.104783,-0.01538 0.253476,0.08943 0.201596,0.142098 0.276905,0.15182 0.621622,0.08026 0.224783,-0.04666 0.232942,-0.05924 0.08597,-0.132512 -0.04802,-0.02394 -0.104143,-0.102229 -0.12472,-0.173976 -0.0215,-0.07498 -0.07608,-0.148069 -0.128339,-0.171879 -0.05001,-0.02279 -0.09093,-0.06499 -0.09093,-0.09378 0,-0.05794 0.139336,-0.07238 0.172988,-0.01793 0.01169,0.01893 0.06635,0.04303 0.121447,0.05357 0.144864,0.02769 0.110746,-0.08998 -0.0404,-0.139328 -0.06449,-0.02106 -0.131606,-0.06261 -0.149154,-0.09234 -0.02197,-0.03723 -0.08029,-0.04822 -0.187375,-0.03532 -0.170128,0.02051 -0.17098,0.01952 -0.268407,-0.310121 -0.0447,-0.151222 -0.219302,-0.294927 -0.272192,-0.224017 -0.02358,0.03161 -0.08761,0.04574 -0.344967,0.07612 -0.115688,0.01365 -0.196672,1.56e-4 -0.264058,-0.04399 -0.09994,-0.06548 -0.342039,-0.520459 -0.307064,-0.577052 0.01076,-0.01741 0.06986,-0.03166 0.131321,-0.03166 0.08564,0 0.131584,0.03208 0.1966,0.137284 0.09681,0.156633 0.185605,0.21446 0.329328,0.21446 0.11971,0 0.127297,-0.0416 0.02454,-0.134587 -0.05995,-0.05425 -0.06809,-0.08863 -0.03908,-0.164932 0.04887,-0.128543 0.04831,-0.13039 -0.04014,-0.13039 -0.112321,0 -0.156228,-0.114465 -0.09745,-0.254037 l 0.04938,-0.117248 0.0722,0.12675 c 0.07543,0.13241 0.141489,0.147046 0.163003,0.03611 0.0085,-0.04393 -0.01376,-0.06516 -0.06839,-0.06516 -0.09462,0 -0.104869,-0.05991 -0.02407,-0.140712 0.07345,-0.07345 0.0381,-0.164023 -0.07004,-0.179458 -0.06977,-0.01 -0.08285,-0.0347 -0.07446,-0.140903 0.0056,-0.07085 -0.0082,-0.163175 -0.03069,-0.20516 -0.04831,-0.09027 -0.176546,-0.101164 -0.208568,-0.01771 -0.03899,0.101603 -0.09029,0.0644 -0.158887,-0.115223 -0.0499,-0.130658 -0.05607,-0.19313 -0.02485,-0.251468 0.06911,-0.12914 0.04883,-0.153933 -0.12456,-0.152264 -0.264899,0.0025 -0.660562,-0.200426 -0.807773,-0.4143902 C 0.0542025,9.6933768 4.4983917e-6,9.5957878 4.4983917e-6,9.5727918 c 0,-0.07153 0.1490850016083,-0.04583 0.2060700016083,0.03553 0.151741,0.216642 0.748793,0.4520852 0.876872,0.345789 0.0593,-0.04921 0.06821,-0.227716 0.01136,-0.227716 -0.05001,0 -0.05122,-0.144216 -0.0014,-0.174962 0.02097,-0.01296 1.56e-4,-0.06624 -0.04689,-0.120424 -0.04647,-0.05345 -0.106833,-0.150306 -0.134136,-0.215238 -0.0557,-0.132476 -0.02475,-0.164404 0.140599,-0.145017 0.05055,0.0059 0.09971,-0.01121 0.109241,-0.03808 0.0095,-0.02687 -0.01051,-0.04885 -0.04455,-0.04885 -0.03403,0 -0.06188,-0.01877 -0.06188,-0.04172 0,-0.02387 -0.03329,-0.03115 -0.07782,-0.01702 -0.129564,0.04112 -0.165422,-0.01553 -0.0792,-0.125139 0.108633,-0.138104 0.100249,-0.206953 -0.0252,-0.206953 -0.207932,0 -0.778183,-0.443259 -0.730409,-0.567752 0.02468,-0.06431 0.152799,-0.07803 0.188547,-0.02019 0.05235,0.0847 0.646149,0.462859 0.668928,0.426001 0.01341,-0.0217 -0.01305,-0.07433 -0.0588,-0.116958 -0.08987,-0.08373 -0.07748,-0.150293 0.02833,-0.152196 0.06111,-0.0011 0.06122,-0.004 0.0014,-0.03895 -0.04924,-0.02875 -0.05976,-0.07451 -0.04406,-0.191621 0.01573,-0.11724 -6.26e-4,-0.188336 -0.0689,-0.298735 -0.08455,-0.136803 -0.08571,-0.14768 -0.02079,-0.195147 0.120982,-0.08846 0.03911,-0.204064 -0.231386,-0.326712 -0.365126,-0.165556 -0.595514,-0.506883 -0.493405,-0.730991 0.05432,-0.119219 0.104049,-0.09465 0.136464,0.06742 0.03175,0.15874 0.297176,0.426197 0.422962,0.426197 0.05216,0 0.128973,0.02582 0.170699,0.05738 0.113138,0.08557 0.13761,0.07297 0.130405,-0.06715 -0.0036,-0.06986 0.02239,-0.17978 0.05773,-0.244267 0.06118,-0.111627 0.0605,-0.119818 -0.01423,-0.170868 -0.04317,-0.02949 -0.07794,-0.09105 -0.07725,-0.136789 0.0011,-0.07709 0.005,-0.07821 0.05272,-0.01538 0.05311,0.06994 0.10237,0.05427 0.10237,-0.03258 0,-0.02721 -0.03517,-0.06064 -0.07816,-0.07429 -0.05237,-0.01662 -0.07833,-0.05941 -0.07867,-0.129652 -3.13e-4,-0.05766 -0.03545,-0.21633 -0.07817,-0.352592 -0.08781,-0.280136 -0.100184,-0.51529 -0.03076,-0.584712 0.07682,-0.07682 0.09926,-0.05551 0.125551,0.119202 0.03805,0.252858 0.159975,0.636026 0.19972,0.627659 0.01942,-0.0041 0.05358,-0.07254 0.07591,-0.152115 0.05283,-0.188311 0.154561,-0.257698 0.228851,-0.156099 0.03486,0.04767 0.06295,0.0585 0.08004,0.03085 0.01448,-0.02343 -0.0029,-0.05897 -0.03865,-0.07897 -0.04371,-0.02446 -0.05873,-0.06905 -0.0459,-0.1362 0.01416,-0.07411 4.69e-4,-0.104709 -0.05325,-0.118751 -0.04881,-0.01276 -0.06417,-0.04018 -0.04724,-0.08431 0.01545,-0.04026 0.05306,-0.05808 0.09787,-0.04636 0.06285,0.01644 0.07277,-0.0045 0.07277,-0.153182 0,-0.189507 -0.0044,-0.194001 -0.120323,-0.12336 -0.06963,0.04243 -0.09055,0.03619 -0.159023,-0.04739 -0.116205,-0.141857 -0.266975,-0.408994 -0.302264,-0.535557 -0.04725,-0.16946 0.01878,-0.354694 0.15075,-0.42294 0.205509,-0.106274 0.242772,-0.05622 0.149716,0.201125 -0.04156,0.114939 -0.03475,0.153887 0.06246,0.357286 0.119132,0.249252 0.257764,0.380982 0.257764,0.24493 0,-0.0419 0.01623,-0.08622 0.03608,-0.09849 0.01984,-0.01226 0.04726,-0.07321 0.06093,-0.135437 0.01711,-0.07791 0.05567,-0.120875 0.123808,-0.137978 0.07429,-0.01864 0.0921,-0.04148 0.07143,-0.09159 -0.08565,-0.207702 -0.05045,-0.268834 0.0798,-0.138585 0.0833,0.0833 0.135349,0.01304 0.109913,-0.148355 -0.01185,-0.0752 -7.82e-4,-0.112121 0.03354,-0.112326 0.0658,-3.91e-4 0.148907,-0.179071 0.148907,-0.320148 0,-0.09708 0.01413,-0.109456 0.125064,-0.109456 0.09727,0 0.114642,-0.01042 0.07817,-0.0469 -0.0258,-0.0258 -0.0469,-0.09511 -0.0469,-0.154024 0,-0.05892 -0.01763,-0.118024 -0.03919,-0.131345 -0.05284,-0.03266 0.02452,-0.175807 0.09501,-0.175807 0.02919,0 0.06319,-0.02638 0.07556,-0.05862 0.01237,-0.03224 0.05486,-0.05862 0.09442,-0.05862 0.154356,0 0.197561,-0.08635 0.244351,-0.488381 0.02501,-0.21487 0.06198,-0.42152 0.08216,-0.459221 0.05285,-0.09875 0.187428,-0.17307 0.359926,-0.198761 l 0.15012,-0.02236 -0.101917,0.125139 c -0.173255,0.212733 -0.208212,0.276462 -0.23479,0.42803 -0.02209,0.125963 -0.01549,0.14656 0.04687,0.14656 0.03991,0 0.111967,-0.03671 0.160123,-0.08157 0.08546,-0.07962 0.200762,-0.07837 0.200762,0.0022 0,0.06262 0.156044,0.04745 0.181006,-0.0176 0.0165,-0.043 0.04067,-0.04803 0.09391,-0.01954 0.105819,0.05663 0.237326,0.04671 0.315218,-0.02378 0.03855,-0.03489 0.100469,-0.05205 0.14118,-0.03913 0.08243,0.02616 0.216091,0.229165 0.24682,0.374858 0.01477,0.07004 0.04515,0.09683 0.107304,0.09462 0.04768,-0.0017 0.07911,0.0045 0.06983,0.01379 -0.0093,0.0093 -6.26e-4,0.05966 0.01927,0.111956 0.02748,0.07228 0.0222,0.100436 -0.02204,0.117411 -0.06572,0.02522 -0.07859,0.153073 -0.0191,0.189837 0.08299,0.05129 -0.0046,0.635213 -0.128813,0.858905 -0.02416,0.04349 -0.03964,0.10546 -0.03441,0.137703 0.0052,0.03224 -0.04044,0.005 -0.101484,-0.06055 -0.134391,-0.144287 -0.341079,-0.166806 -0.341079,-0.03716 0,0.06541 0.02333,0.07683 0.142986,0.06998 0.17127,-0.0098 0.226647,0.07792 0.122104,0.19344 -0.06624,0.0732 -0.0655,0.07907 0.0186,0.147173 0.09425,0.07632 0.121374,0.205699 0.03628,0.173045 -0.06029,-0.02313 -0.16265,0.08283 -0.200731,0.207789 -0.02408,0.07901 -0.01363,0.08784 0.102855,0.08701 0.159498,-0.0011 0.531757,-0.150506 0.689662,-0.276719 0.06443,-0.0515 0.182682,-0.21141 0.262774,-0.355353 0.157202,-0.282525 0.232932,-0.340792 0.324247,-0.249478 0.05178,0.05178 0.05001,0.07693 -0.01566,0.222563 -0.12147,0.269373 -0.280611,0.458766 -0.507375,0.603825 -0.200902,0.128515 -0.579216,0.269265 -0.799869,0.297586 -0.08559,0.01098 -0.09715,0.03072 -0.09325,0.159101 0.003,0.09807 -0.01273,0.14656 -0.04748,0.14656 -0.06003,0 -0.146312,0.142017 -0.11604,0.190998 0.01124,0.01818 -0.01433,0.06451 -0.05682,0.102956 -0.09962,0.09015 -0.0982,0.163118 0.0038,0.19549 0.05383,0.01708 0.09734,0.0034 0.129601,-0.0407 0.07819,-0.106933 0.199732,-0.05806 0.199732,0.08032 0,0.0647 0.03582,0.156081 0.07961,0.203077 0.07958,0.08542 0.07964,0.08543 0.195414,0.0091 0.06369,-0.04198 0.146585,-0.07645 0.184201,-0.07659 0.137066,-5.16e-4 0.0632,0.119255 -0.14656,0.237635 -0.118225,0.06672 -0.214955,0.135202 -0.214955,0.152178 0,0.01698 0.02471,0.08963 0.05491,0.161446 0.04939,0.117462 0.04735,0.145399 -0.02034,0.278066 -0.04138,0.08112 -0.101265,0.147484 -0.133071,0.147484 -0.03563,0 -0.05783,0.03751 -0.05783,0.09771 0,0.05374 0.0206,0.09771 0.04578,0.09771 0.02518,0 0.07794,0.02911 0.117248,0.06468 0.03931,0.03557 0.07147,0.04642 0.07147,0.0241 0,-0.02232 0.03677,-0.0502 0.08172,-0.06195 0.07051,-0.01844 0.07842,-0.0082 0.05766,0.07447 -0.03394,0.135213 0.05316,0.155416 0.265363,0.06155 0.111135,-0.04916 0.198562,-0.121565 0.237345,-0.196561 0.08125,-0.157127 0.07841,-0.180214 -0.03631,-0.294933 -0.110695,-0.110695 -0.127225,-0.262603 -0.03675,-0.337694 0.08436,-0.07001 0.252954,-0.0058 0.325899,0.124194 0.05082,0.09054 0.04933,0.126886 -0.01358,0.331687 -0.07961,0.259179 -0.205805,0.416237 -0.425034,0.528977 -0.122561,0.06302 -0.141073,0.08696 -0.102866,0.133001 0.02563,0.03088 0.03695,0.09301 0.02517,0.138068 -0.01797,0.06872 -0.0076,0.07845 0.06453,0.06035 0.08879,-0.02228 0.418916,0.198284 0.748202,0.499898 0.181766,0.166492 0.284994,0.17513 0.44852,0.03753 0.204113,-0.17175 0.236091,-0.276418 0.236091,-0.772751 0,-0.482735 0.03547,-0.573571 0.16266,-0.416504 0.05819,0.07186 0.07167,0.15657 0.07098,0.445898 -9.06e-4,0.37569 -0.08013,0.641602 -0.224661,0.754081 -0.0636,0.0495 -0.06298,0.05665 0.01058,0.120976 0.043,0.0376 0.100004,0.117227 0.12668,0.176943 0.04826,0.108023 0.148543,0.176375 0.193224,0.131694 0.01288,-0.01288 0.0014,-0.05001 -0.0256,-0.0825 -0.05871,-0.07074 -0.02651,-0.177314 0.05357,-0.177314 0.06033,0 0.120916,0.132487 0.08625,0.188585 -0.03917,0.06338 0.137677,0.358572 0.214819,0.358572 0.04074,0 0.07408,-0.01759 0.07408,-0.03908 0,-0.06245 0.195556,-0.0451 0.220363,0.01954 0.01237,0.03224 0.05475,0.05862 0.09417,0.05862 0.03942,0 0.08171,0.01623 0.09397,0.03608 0.01226,0.01984 0.075,0.04765 0.13942,0.0618 0.147792,0.03246 0.214139,0.144407 0.153138,0.258389 -0.03529,0.06594 -0.03359,0.07921 0.0084,0.06552 0.192514,-0.06276 0.367122,-0.948745 0.252527,-1.281358 -0.04438,-0.128803 -0.04463,-0.16233 -0.0015,-0.198122 0.07447,-0.0618 0.192761,-0.01221 0.245145,0.102755 0.02476,0.05434 0.04501,0.194015 0.04501,0.310397 0,0.25282 -0.135543,0.86099 -0.220942,0.991348 -0.07851,0.119847 -0.01276,0.297641 0.09925,0.268351 0.09195,-0.02407 0.199772,0.03636 0.199772,0.112009 0,0.03239 -0.05595,0.109985 -0.124327,0.1724402 -0.10542,0.09629 -0.114335,0.117389 -0.05862,0.138768 0.03614,0.01387 0.0657,0.0585 0.0657,0.0992 0,0.04069 0.01604,0.07398 0.03565,0.07398 0.05244,0 0.09085,0.280848 0.05257,0.384331 -0.0328,0.08867 -0.03341,0.08874 -0.128982,0.01409 -0.1394,-0.108887 -0.242121,-0.129361 -0.327369,-0.06525 -0.07277,0.05473 -0.07287,0.05878 -0.0035,0.135468 0.03935,0.04348 0.09069,0.07685 0.114097,0.07416 0.0234,-0.0027 0.09971,-0.0028 0.169573,-2.66e-4 0.09942,0.0036 0.127019,0.02161 0.127019,0.0828 0,0.09915 0.0088,0.09829 0.194463,-0.01894 0.106489,-0.06722 0.187433,-0.165737 0.263031,-0.320121 0.06006,-0.122657 0.148776,-0.248183 0.197141,-0.278945 0.08661,-0.05509 0.08794,-0.05319 0.08794,0.125962 0,0.100042 -0.02369,0.238488 -0.05265,0.307658 -0.06366,0.152073 -0.337754,0.407479 -0.473981,0.44167 -0.119099,0.02989 -0.124037,0.05983 -0.02053,0.124474 0.07762,0.04847 0.108086,0.220461 0.04586,0.258916 -0.01776,0.01098 -0.07053,0.01 -0.117248,-0.0023 -0.06881,-0.018 -0.08495,-0.05104 -0.08495,-0.173988 0,-0.110236 -0.01638,-0.151772 -0.05985,-0.151772 -0.08908,0 -0.111977,0.102729 -0.05405,0.242567 0.02823,0.06815 0.05372,0.156399 0.05665,0.196099 0.008,0.108533 0.09116,0.180115 0.132166,0.113762 0.02386,-0.0386 0.04005,-0.04059 0.06054,-0.0074 0.0159,0.02573 -0.01788,0.08775 -0.07829,0.143738 -0.09311,0.08629 -0.100781,0.110506 -0.06199,0.195649 0.02435,0.05344 0.0355,0.135734 0.02478,0.182867 -0.01072,0.04713 0.0061,0.118843 0.03729,0.159356 0.05795,0.07519 0.127686,0.07524 0.519223,3.75e-4 0.109593,-0.02095 0.127019,-0.01339 0.127019,0.05512 0,0.211446 -0.158721,0.320293 -0.467052,0.320293 -0.108544,0 -0.197354,0.01797 -0.197354,0.03992 0,0.02196 -0.04228,0.05919 -0.09396,0.08273 -0.101429,0.04621 -0.159031,0.274348 -0.09732,0.385421 0.02119,0.03813 0.03299,0.04155 0.03376,0.0098 0.0019,-0.07838 0.0683,-0.05625 0.09094,0.03032 0.01769,0.06766 0.0425,0.07583 0.170659,0.05619 0.08248,-0.01264 0.220305,-0.0078 0.306287,0.01082 l 0.156331,0.0338 -0.106128,0.06995 c -0.07567,0.04988 -0.200585,0.07345 -0.435232,0.08213 -0.342226,0.01266 -0.463282,0.05268 -0.579348,0.191525 -0.09361,0.111988 -0.08823,0.140823 0.02628,0.140823 0.110315,0 0.392983,0.235045 0.432535,0.359662 0.02546,0.08022 -0.0321,0.146602 -0.128172,0.147814 -0.02612,3.13e-4 -0.107586,-0.05216 -0.181032,-0.116649 -0.159263,-0.139837 -0.192328,-0.142935 -0.347345,-0.03255 -0.07989,0.05689 -0.180758,0.08576 -0.307228,0.08794 -0.174296,0.003 -0.186704,-0.003 -0.167007,-0.08148 0.01489,-0.05931 -0.0025,-0.09744 -0.05795,-0.127125 -0.08986,-0.04809 -0.136139,-0.0045 -0.09873,0.09295 0.01479,0.03854 -0.003,0.08416 -0.0446,0.114606 -0.06567,0.04802 -0.06526,0.05336 0.008,0.1056 0.08101,0.05775 0.168595,0.338641 0.168595,0.540704 0,0.144892 -0.141173,0.303102 -0.400598,0.448941 -0.249676,0.14036 -0.252375,0.04576 -0.0055,-0.194137 0.167273,-0.162572 0.178322,-0.185438 0.155101,-0.320974 -0.01375,-0.08026 -0.0525,-0.209655 -0.0861,-0.287536 -0.06064,-0.14056 -0.06293,-0.141642 -0.310544,-0.147012 l -0.249451,-0.0054 0.02425,0.121232 c 0.02298,0.114911 0.01835,0.120642 -0.08882,0.109917 -0.135944,-0.0136 -0.445272,0.116206 -0.445272,0.186856 0,0.02767 -0.02901,0.122818 -0.06447,0.211436 -0.05094,0.127316 -0.119739,0.196551 -0.327871,0.329961 -0.356174,0.228302 -0.578771,0.289781 -0.77037,0.212767 z m 1.240875,-1.110332 c 0,-0.0095 -0.01759,-0.0281 -0.03908,-0.04139 -0.0215,-0.01329 -0.03908,-0.0055 -0.03908,0.01723 0,0.02276 0.01759,0.04139 0.03908,0.04139 0.0215,0 0.03908,-0.0078 0.03908,-0.01723 z m -0.279736,-0.177315 c 0.04718,-0.135339 0.0053,-0.180387 -0.110283,-0.118544 -0.08924,0.04776 -0.101349,0.118754 -0.03207,0.18803 0.07101,0.07101 0.09797,0.05785 0.142357,-0.06949 z m 0.33836,-0.198552 c 0.197176,-0.125673 0.281885,-0.150964 0.426832,-0.127443 0.08673,0.01407 0.161919,0.0037 0.199458,-0.02741 0.03314,-0.0275 0.116803,-0.05176 0.185922,-0.05391 0.08367,-0.0026 0.125834,-0.0235 0.126163,-0.06253 2.66e-4,-0.03224 0.03049,-0.113791 0.06716,-0.181217 0.05126,-0.09425 0.09859,-0.12632 0.204742,-0.138712 0.122682,-0.01432 0.138074,-0.0061 0.138074,0.07374 0,0.115187 0.04221,0.113631 0.154298,-0.0057 0.06361,-0.06771 0.08291,-0.122837 0.06624,-0.18924 -0.01842,-0.07338 -0.0021,-0.105184 0.07547,-0.146674 0.09006,-0.0482 0.09716,-0.0699 0.07874,-0.24067 -0.01211,-0.112232 -0.0046,-0.187692 0.01872,-0.187692 0.06003,0 0.111261,-0.168849 0.06766,-0.223014 -0.04708,-0.05849 -0.0076,-0.12873 0.07233,-0.12873 0.10817,0 0.48269,-0.352414 0.48269,-0.454199 0,-0.05113 -0.01759,-0.09296 -0.03908,-0.09296 -0.0215,0 -0.03908,0.01379 -0.03908,0.03066 0,0.01686 -0.05141,0.06102 -0.114237,0.09814 -0.06923,0.04089 -0.124346,0.113508 -0.139895,0.184299 -0.01411,0.06425 -0.03969,0.116817 -0.05685,0.116817 -0.06494,0 -0.127017,-0.117755 -0.09759,-0.185145 0.01654,-0.03789 0.02568,-0.17009 0.02031,-0.293775 -0.0083,-0.19192 -6.41e-4,-0.221382 0.05246,-0.201002 0.0446,0.01711 0.06223,8.91e-4 0.06223,-0.05724 0,-0.06056 0.01733,-0.07489 0.06839,-0.05655 0.05179,0.01861 0.04539,-6.72e-4 -0.02635,-0.07939 -0.05211,-0.05718 -0.126857,-0.103965 -0.166101,-0.103965 -0.08618,0 -0.09529,-0.0997 -0.01203,-0.131648 0.06719,-0.02578 0.07203,-0.21516 0.0098,-0.385495 -0.02144,-0.05873 -0.02515,-0.137869 -0.0082,-0.175872 0.0671,-0.150846 0.05399,-0.247796 -0.03825,-0.282863 -0.116314,-0.04422 -0.149088,-0.133712 -0.09358,-0.25553 0.0365,-0.0801 0.03178,-0.110845 -0.02693,-0.175726 -0.06634,-0.07331 -0.07599,-0.07428 -0.142257,-0.01431 -0.05797,0.05246 -0.08204,0.05524 -0.130446,0.01507 -0.03265,-0.02709 -0.05936,-0.09107 -0.05936,-0.1421772 0,-0.05654 -0.02295,-0.09292 -0.05862,-0.09292 -0.03257,0 -0.05862,-0.03474 -0.05862,-0.07817 0,-0.05083 0.02605,-0.07817 0.07451,-0.07817 0.05527,0 0.06923,-0.02019 0.05407,-0.07816 -0.01614,-0.06171 -9.69e-4,-0.07841 0.07205,-0.07935 0.07587,-9.69e-4 0.08129,-0.0077 0.03019,-0.03761 -0.03918,-0.02291 -0.117516,-0.02118 -0.211061,0.0046 -0.09881,0.02728 -0.176311,0.02816 -0.230818,0.0026 -0.04513,-0.02115 -0.184889,-0.0611 -0.310569,-0.08877 -0.273721,-0.06028 -0.360147,-0.159159 -0.325536,-0.372438 0.01972,-0.121523 0.01407,-0.135433 -0.04386,-0.108012 -0.03657,0.01731 -0.143721,0.03151 -0.238104,0.03157 -0.150645,8.2e-5 -0.187536,-0.01833 -0.30201,-0.150761 -0.09792,-0.113271 -0.135975,-0.136333 -0.152769,-0.09257 -0.0123,0.03206 -0.01865,0.0741 -0.01411,0.09343 0.01633,0.06951 -0.078,0.239997 -0.147557,0.266687 -0.05251,0.02015 -0.100095,-0.009 -0.182657,-0.111917 -0.0614,-0.07654 -0.143836,-0.139168 -0.183182,-0.139168 -0.07339,0 -0.233733,-0.171506 -0.233301,-0.249537 1.33e-4,-0.02397 0.02212,-0.08755 0.04885,-0.14129 0.02674,-0.05374 0.04861,-0.158873 0.04861,-0.233632 0,-0.10492 -0.01783,-0.139314 -0.07817,-0.150778 -0.04299,-0.0082 -0.109897,-0.04842 -0.148681,-0.08944 -0.05306,-0.05613 -0.118158,-0.0729 -0.262969,-0.06778 -0.161302,0.0057 -0.209266,-0.01 -0.296328,-0.09706 -0.05713,-0.05713 -0.117418,-0.103875 -0.13397,-0.103875 -0.01655,0 -0.02084,-0.03537 -0.0095,-0.07859 0.01906,-0.07287 0.06676,-0.09564 0.262011,-0.12507 0.239237,-0.03606 -0.02597,-0.195986 -0.283816,-0.17115 -0.141893,0.01367 -0.17423,0.0023 -0.228544,-0.08064 -0.05848,-0.08925 -0.05824,-0.107093 0.0031,-0.235763 0.06194,-0.12988 0.06203,-0.144022 0.0014,-0.211075 -0.08464,-0.09352 -0.04478,-0.192028 0.0777,-0.192028 0.153361,0 0.156057,-0.07054 0.0051,-0.133612 -0.09467,-0.03955 -0.138365,-0.08313 -0.138365,-0.137973 0,-0.04409 -0.01691,-0.08016 -0.03758,-0.08016 -0.02067,0 -0.05597,-0.0683 -0.07845,-0.151778 -0.02248,-0.08348 -0.06712,-0.173568 -0.09921,-0.200199 -0.03604,-0.02991 -0.0587,-0.117552 -0.05928,-0.229278 -4.69e-4,-0.09947 -0.01625,-0.246809 -0.03497,-0.327417 -0.02953,-0.127168 -0.02484,-0.14656 0.03546,-0.14656 0.07297,0 0.116251,-0.103313 0.117157,-0.279691 4.69e-4,-0.08159 0.01599,-0.09978 0.07272,-0.08494 0.101122,0.02645 0.196329,-0.197245 0.129498,-0.304259 -0.03744,-0.05996 -0.03503,-0.07368 0.01294,-0.07368 0.03243,0 0.05895,-0.02693 0.05895,-0.05985 0,-0.03292 0.0269,-0.07017 0.05979,-0.08279 0.03886,-0.01491 0.05125,-0.04984 0.03539,-0.09981 -0.01611,-0.05075 0.0057,-0.108923 0.06427,-0.171244 l 0.08867,-0.09438 h -0.09717 c -0.06372,0 -0.12857,-0.04247 -0.188385,-0.123375 -0.08877,-0.120065 -0.08923,-0.124828 -0.01712,-0.177549 0.04075,-0.0298 0.07765,-0.100085 0.08199,-0.156199 0.0043,-0.05611 0.01595,-0.123041 0.02581,-0.148727 0.02403,-0.06263 0.415749,-0.26545 0.415749,-0.215262 0,0.05411 0.106177,0.04991 0.140454,-0.0056 0.03867,-0.06257 -0.08317,-0.142675 -0.189352,-0.124507 -0.04834,0.0083 -0.112727,-0.0014 -0.143082,-0.02142 -0.04673,-0.03087 -0.04524,-0.04642 0.0098,-0.101423 0.03573,-0.03573 0.06496,-0.104313 0.06496,-0.152408 0,-0.04809 0.02478,-0.121334 0.05507,-0.162754 0.03819,-0.05222 0.04367,-0.0966 0.0179,-0.144756 -0.05939,-0.110964 -0.184572,-0.02125 -0.174447,0.125019 0.0052,0.07478 -0.01374,0.125395 -0.0527,0.140962 -0.132027,0.05276 -0.23383,0.05468 -0.263809,0.005 -0.07665,-0.127105 -0.338048,-0.08675 -0.385362,0.0595 -0.02817,0.08708 -0.498476,0.46092 -0.579857,0.46092 -0.08045,0 -0.08162,0.0626 -0.0018,0.09325 0.03746,0.01438 0.0492,0.04246 0.03034,0.07258 -0.01691,0.02702 -0.03294,0.06672 -0.03561,0.08821 -0.0027,0.0215 -0.0075,0.06331 -0.0108,0.09293 -0.0045,0.04086 -0.04511,0.04759 -0.168243,0.0279 -0.146482,-0.02342 -0.157181,-0.01979 -0.109829,0.03726 0.04191,0.0505 0.04284,0.07862 0.0046,0.139794 -0.0263,0.04212 -0.03863,0.09145 -0.0274,0.109631 0.01124,0.01818 -0.01895,0.04503 -0.06707,0.05966 -0.05569,0.01694 -0.06916,0.03414 -0.03704,0.04732 0.03533,0.0145 0.01014,0.0699 -0.08404,0.184831 -0.102118,0.124623 -0.129662,0.18939 -0.114429,0.269075 0.01628,0.08519 0.0018,0.111902 -0.07711,0.141891 -0.05773,0.02195 -0.108167,0.08074 -0.12426,0.144859 -0.0149,0.05935 -0.05669,0.129728 -0.09289,0.15639 -0.06145,0.04527 -0.06128,0.05023 0.0026,0.07499 0.07786,0.03019 0.09019,0.137053 0.0235,0.203744 -0.02469,0.02469 -0.04852,0.133922 -0.05295,0.242731 -0.0048,0.119002 -0.03367,0.226149 -0.07235,0.268889 -0.07039,0.07778 -0.08816,0.279854 -0.0246,0.279854 0.02183,0 -0.01774,0.05402 -0.08794,0.12005 -0.08372,0.07875 -0.110826,0.126929 -0.07878,0.140046 0.08381,0.03431 0.0586,0.139091 -0.02693,0.111944 -0.05248,-0.01666 -0.08898,5.95e-4 -0.118677,0.05609 -0.03469,0.06482 -0.02764,0.09652 0.03692,0.165815 0.04757,0.05106 0.07077,0.114173 0.05742,0.15623 -0.01254,0.03952 -0.003,0.07056 0.02163,0.07056 0.02421,0 0.03298,0.01787 0.01947,0.03972 -0.01351,0.02185 -0.03833,0.0312 -0.05517,0.02079 -0.01684,-0.01041 -0.06168,0.0038 -0.09965,0.03154 -0.05728,0.04188 -0.06092,0.06344 -0.02141,0.126704 0.03749,0.06003 0.03726,0.113413 -0.0011,0.251168 -0.05914,0.212448 -0.07019,0.350807 -0.02802,0.350807 0.01724,0 0.02109,0.04088 0.0086,0.09084 -0.01448,0.05766 -4.69e-4,0.109369 0.03834,0.141575 0.08012,0.0665 0.07815,0.182608 -0.0036,0.213992 -0.05748,0.02206 -0.05528,0.0337 0.01954,0.103411 0.100475,0.09361 0.107221,0.199632 0.02107,0.331117 -0.04783,0.07299 -0.05249,0.109488 -0.01913,0.149689 0.03314,0.03993 0.03015,0.08008 -0.01199,0.161305 -0.03951,0.07616 -0.04541,0.136262 -0.01995,0.203224 0.01988,0.0523 0.03615,0.138076 0.03615,0.190626 0,0.05255 0.03517,0.125662 0.07817,0.162472 0.04944,0.04233 0.07816,0.115291 0.07816,0.198537 0,0.08732 0.02814,0.154397 0.08362,0.19932 0.08008,0.06484 0.08082,0.07198 0.01755,0.168546 -0.03634,0.05546 -0.06957,0.1773002 -0.07385,0.2707572 -0.0068,0.149231 0.0029,0.171441 0.08009,0.182402 0.107078,0.01521 0.15875,0.175848 0.08511,0.264584 -0.04183,0.0504 -0.04088,0.06731 0.0054,0.0966 0.07407,0.04687 0.143511,0.04591 0.173359,-0.0024 0.04791,-0.07753 0.142621,-0.04187 0.129737,0.04885 -0.0069,0.04836 -0.03447,0.08794 -0.06134,0.08794 -0.02687,0 -0.05047,0.0088 -0.05246,0.01954 -0.0081,0.04419 0.05073,0.337769 0.0823,0.410368 0.07088,0.16297 0.08732,0.34114 0.03451,0.373782 -0.04084,0.02524 -0.03624,0.04865 0.02226,0.113289 0.05653,0.06246 0.063,0.0922 0.02776,0.127451 -0.06177,0.06177 -0.05788,0.09557 0.01415,0.123217 0.07801,0.02994 0.136797,-0.121003 0.09271,-0.238051 -0.01916,-0.05087 -0.0171,-0.09613 0.005,-0.109784 0.02067,-0.01278 0.03962,-2.03e-4 0.0421,0.02793 0.0025,0.02814 0.0069,0.07138 0.0098,0.09609 0.0029,0.02471 0.05363,0.08983 0.112739,0.144694 0.05911,0.05487 0.107478,0.134632 0.107478,0.177249 0,0.04262 0.01952,0.126997 0.04339,0.187509 0.03553,0.09009 0.04792,0.09792 0.06839,0.04319 0.02301,-0.06149 0.03539,-0.06026 0.154852,0.0154 0.102939,0.06519 0.125195,0.100746 0.107411,0.1716 -0.01724,0.06871 0.0047,0.108689 0.09488,0.172906 0.06452,0.04594 0.117314,0.116638 0.117314,0.157097 0,0.04046 0.02885,0.08971 0.06411,0.10944 0.07667,0.04291 0.03493,0.130804 -0.0578,0.121706 -0.135977,-0.01334 -0.162639,0.0059 -0.162639,0.117572 0,0.143805 0.06066,0.186214 0.116662,0.08157 0.04909,-0.09172 0.188259,-0.105822 0.220303,-0.02232 0.01504,0.03919 0.05606,0.0501 0.131628,0.03498 0.08911,-0.01782 0.114924,-0.0057 0.137112,0.06417 0.01779,0.05603 0.11474,0.127024 0.277513,0.203194 0.137599,0.06439 0.250179,0.133003 0.250179,0.152473 0,0.01947 -0.03558,0.07097 -0.07906,0.11446 -0.0628,0.06279 -0.07055,0.09496 -0.03771,0.156331 0.05114,0.09555 0.110914,0.09921 0.145121,0.0089 0.06324,-0.166998 0.293503,-0.241313 0.436773,-0.140962 0.04711,0.033 0.109412,0.05088 0.138445,0.03974 0.02903,-0.01115 0.118533,0.01498 0.198889,0.05805 0.08553,0.04584 0.182564,0.06915 0.234058,0.05623 0.06573,-0.0165 0.0931,-0.0024 0.108302,0.05571 0.01119,0.04278 0.0513,0.07779 0.08914,0.07779 0.03784,0 0.05734,-0.01146 0.04333,-0.02547 -0.04423,-0.04423 0.172641,-0.131384 0.267624,-0.107545 0.104299,0.02618 0.157232,0.127049 0.09784,0.186443 -0.116629,0.116629 0.0027,0.131983 0.174591,0.02246 z m -1.973675,-1.876 c 0,-0.02276 -0.01759,-0.03052 -0.03908,-0.01723 -0.0215,0.01328 -0.03908,9.69e-4 -0.03908,-0.02737 0,-0.02834 -0.03689,-0.07457 -0.08197,-0.102721 -0.04508,-0.02816 -0.07162,-0.06155 -0.05896,-0.0742 0.01265,-0.01266 0.0034,-0.04661 -0.02052,-0.07546 -0.03337,-0.04021 -0.02873,-0.05245 0.01988,-0.05245 0.03487,0 0.09741,-0.034 0.13896,-0.07555 0.06445,-0.06445 0.08233,-0.06738 0.121676,-0.01997 0.02537,0.03057 0.06172,0.04594 0.08078,0.03416 0.01906,-0.01178 0.03465,0.0054 0.03465,0.03814 0,0.03276 0.03834,0.08008 0.08521,0.105158 0.08293,0.04438 0.08322,0.04706 0.0109,0.09994 -0.04087,0.02989 -0.09681,0.04571 -0.124292,0.03516 -0.03226,-0.01238 -0.04997,0.01502 -0.04997,0.0773 0,0.05306 -0.01759,0.09648 -0.03908,0.09648 -0.0215,0 -0.03908,-0.01863 -0.03908,-0.04139 z m 1.80625,0.0085 c -0.0276,-0.01761 -0.04003,-0.05847 -0.02763,-0.09078 0.02341,-0.06099 -0.01835,-0.07404 -0.228512,-0.07141 -0.07933,0.001 -0.116823,-0.02124 -0.131689,-0.07809 -0.01143,-0.04371 -0.06138,-0.08966 -0.110991,-0.102115 -0.04962,-0.01245 -0.100151,-0.04855 -0.112302,-0.08021 -0.01215,-0.03167 -0.03981,-0.04663 -0.06145,-0.03325 -0.02173,0.01343 -0.04139,-0.0161 -0.04389,-0.06592 -0.0039,-0.07687 -0.0074,-0.07904 -0.02379,-0.01466 -0.0116,0.04553 0.0096,0.09726 0.05339,0.130094 0.06811,0.05111 0.06654,0.05371 -0.02506,0.04165 -0.06484,-0.0085 -0.09588,-0.03587 -0.09228,-0.08124 0.0031,-0.03908 -0.02201,-0.06891 -0.05862,-0.06962 -0.05574,-0.0011 -0.05472,-0.0083 0.0079,-0.05575 0.0476,-0.03607 0.06355,-0.08095 0.04713,-0.132677 -0.01365,-0.04299 0.0013,-0.140666 0.03322,-0.217053 0.04139,-0.09907 0.04469,-0.136306 0.01149,-0.129887 -0.02621,0.0051 -0.05041,-0.04223 -0.05541,-0.10825 -0.0074,-0.09839 -0.0032,-0.104679 0.02656,-0.03908 0.01949,0.04299 0.03854,0.06058 0.04234,0.03908 0.01418,-0.08033 0.02457,-0.159165 0.03347,-0.254037 l 0.0092,-0.09771 0.03535,0.08794 c 0.05072,0.126188 0.07108,0.108565 0.05645,-0.04885 -0.0086,-0.09282 0.0036,-0.13679 0.03819,-0.13679 0.028,0 0.07193,-0.02533 0.09763,-0.0563 0.0257,-0.03097 0.07196,-0.04662 0.102793,-0.03479 0.04034,0.01548 0.05324,-0.0044 0.04599,-0.07072 -0.0085,-0.07769 0.0084,-0.09309 0.107177,-0.09765 0.06449,-0.003 0.139232,-0.0074 0.166102,-0.0098 0.02687,-0.0024 0.04885,-0.03701 0.04885,-0.07691 0,-0.05463 0.02742,-0.07153 0.110956,-0.06839 0.07829,0.0029 0.106456,0.02146 0.09567,0.06291 -0.01878,0.07218 0.243444,0.335685 0.278156,0.27952 0.01353,-0.02189 -0.0121,-0.06551 -0.05696,-0.09693 -0.05478,-0.03837 -0.06534,-0.06253 -0.03217,-0.07359 0.07472,-0.02491 0.213373,0.05303 0.254567,0.143086 0.02012,0.04399 0.06183,0.07429 0.09269,0.06733 0.0402,-0.0091 0.0353,0.01031 -0.01726,0.06839 -0.04073,0.045 -0.05328,0.08106 -0.02822,0.08106 0.02483,0 0.04514,-0.0211 0.04514,-0.0469 0,-0.03648 0.01042,-0.03648 0.0469,0 0.05797,0.05797 0.187597,0.06178 0.187597,0.0055 0,-0.02276 -0.01637,-0.03127 -0.03638,-0.0189 -0.02001,0.01237 -0.04743,0.0046 -0.06093,-0.01723 -0.0135,-0.02185 0.0096,-0.03972 0.05137,-0.03972 0.08344,0 0.12643,0.09672 0.13935,0.313508 0.0045,0.0757 0.0225,0.160772 0.03998,0.189048 0.01797,0.02907 0.01287,0.07031 -0.01172,0.09491 -0.0619,0.0619 -0.05379,0.207394 0.01543,0.276614 0.06142,0.06142 0.01403,0.128538 -0.05892,0.08345 -0.0215,-0.01328 -0.03908,0.0033 -0.03908,0.03678 0,0.03351 0.02198,0.06162 0.04885,0.06246 0.02687,8.44e-4 -0.01097,0.02749 -0.08408,0.05922 -0.153263,0.06652 -0.144354,0.11734 0.01027,0.05855 0.08549,-0.03251 0.103127,-0.02824 0.103127,0.02496 0,0.03529 -0.01102,0.05315 -0.0245,0.03967 -0.01347,-0.01347 -0.07063,-0.0012 -0.127019,0.02721 -0.05639,0.02844 -0.124518,0.04385 -0.151402,0.03426 -0.03123,-0.01115 -0.04031,0.0049 -0.02513,0.04444 0.01306,0.03404 0.03945,0.06189 0.05865,0.06189 0.0192,0 0.0349,0.02757 0.0349,0.06126 0,0.07611 -0.150921,0.03756 -0.223833,-0.05718 -0.03931,-0.05108 -0.05465,-0.05302 -0.0827,-0.01048 -0.01894,0.02872 -0.07644,0.04631 -0.127761,0.03908 -0.07529,-0.0106 -0.09272,0.0039 -0.09022,0.0748 0.0023,0.06603 -0.01878,0.08794 -0.08474,0.08794 -0.04831,0 -0.111265,0.0086 -0.139892,0.01913 -0.02863,0.01052 -0.07463,0.0047 -0.102227,-0.0129 z m 0.137724,-0.141149 c -0.05996,-0.06509 -0.07762,-0.05286 -0.04529,0.03139 0.01351,0.0352 0.04013,0.05437 0.05915,0.04261 0.01903,-0.01176 0.01279,-0.04506 -0.01387,-0.074 z m -0.693328,-0.568574 c 0,-0.0215 -0.01759,-0.03908 -0.03908,-0.03908 -0.0215,0 -0.03908,0.01759 -0.03908,0.03908 0,0.0215 0.01759,0.03908 0.03908,0.03908 0.0215,0 0.03908,-0.01759 0.03908,-0.03908 z m 1.446058,-0.07816 c 0,-0.0215 -0.0078,-0.03908 -0.01723,-0.03908 -0.0095,0 -0.0281,0.01759 -0.04139,0.03908 -0.01328,0.0215 -0.0055,0.03908 0.01723,0.03908 0.02276,0 0.04139,-0.01759 0.04139,-0.03908 z m 0.117248,-0.214955 c 0,-0.03224 -0.01704,-0.05862 -0.03786,-0.05862 -0.02082,0 -0.02773,0.02638 -0.01536,0.05862 0.01237,0.03224 0.02941,0.05862 0.03786,0.05862 0.0084,0 0.01536,-0.02638 0.01536,-0.05862 z m 0.01117,-0.332812 c -0.02189,-0.08371 -0.08125,-0.137746 -0.114639,-0.104358 -0.02737,0.02737 0.0587,0.183133 0.10119,0.183133 0.01873,0 0.02478,-0.03545 0.01345,-0.07878 z m -0.775808,-0.34704 c 0.01189,-0.01924 -0.0061,-0.04562 -0.03997,-0.05862 -0.107615,-0.04129 -0.145827,-0.02712 -0.09429,0.03499 0.05519,0.0665 0.102607,0.07485 0.134259,0.02364 z m 0.321706,1.689487 c -0.05124,-0.05124 -0.02472,-0.08352 0.05211,-0.06343 0.04299,0.01124 0.07816,0.03598 0.07816,0.05497 0,0.04038 -0.09236,0.04639 -0.130275,0.0085 z m -1.01045,-0.03972 c 0.02821,-0.01129 0.06192,-0.0099 0.07491,0.0031 0.01299,0.01299 -0.0101,0.02222 -0.0513,0.02053 -0.04553,-0.0019 -0.05479,-0.01114 -0.02361,-0.02361 z m 0.20334,-0.0417 c 3.75e-4,-0.04219 0.0116,-0.05192 0.02931,-0.0254 0.01579,0.02365 0.05509,0.05304 0.08734,0.06531 0.03917,0.01491 0.02945,0.02334 -0.02931,0.0254 -0.05908,0.0021 -0.08774,-0.01936 -0.08734,-0.06531 z m 2.129407,-0.08794 c -0.01328,-0.0215 -0.0055,-0.03908 0.01724,-0.03908 0.02276,0 0.04139,0.01759 0.04139,0.03908 0,0.0215 -0.0078,0.03908 -0.01723,0.03908 -0.0095,0 -0.0281,-0.01759 -0.04139,-0.03908 z m -2.559915,-0.05632 c 0,-0.03098 0.01574,-0.06605 0.03499,-0.07794 0.04023,-0.02486 0.08874,0.07567 0.05351,0.110896 -0.04194,0.04194 -0.0885,0.0246 -0.0885,-0.03295 z m -2.227114,-0.871896 c 4.69e-4,-0.05739 0.0065,-0.05914 0.03698,-0.01087 0.03104,0.04908 0.04027,0.0474 0.06285,-0.01146 0.01455,-0.03794 0.01683,-0.07863 0.005,-0.09041 -0.03888,-0.03889 -0.183645,0.02895 -0.183645,0.08605 0,0.09586 -0.05832,0.0612 -0.06403,-0.03805 -0.0047,-0.08159 0.01434,-0.09587 0.144151,-0.108253 0.2087,-0.0199 0.238778,-0.0038 0.182277,0.09761 -0.08342,0.149715 -0.184648,0.191268 -0.183634,0.07538 z m -0.702231,-0.08447 c -0.02931,-0.05477 -0.02862,-0.08463 0.0024,-0.103808 0.03992,-0.02467 0.11096,0.04348 0.112386,0.107806 0.0016,0.06787 -0.07781,0.06511 -0.114794,-0.004 z m 1.059233,-0.115729 c -0.0049,-0.07779 -0.0153,-0.08488 -0.06448,-0.04407 -0.04889,0.04057 -0.05862,0.03526 -0.05862,-0.03199 0,-0.09635 0.04376,-0.130672 0.112473,-0.08821 0.02939,0.01816 0.04316,0.07771 0.0333,0.143981 -0.01395,0.09372 -0.01782,0.09719 -0.02267,0.02029 z m -0.945768,-0.105015 c -0.03682,-0.04437 -0.03536,-0.05617 0.0069,-0.0557 0.0295,3.28e-4 0.0771,0.01547 0.105768,0.03364 0.04236,0.02685 0.04106,0.0373 -0.0069,0.0557 -0.03248,0.01246 -0.08007,-0.0027 -0.105768,-0.03364 z m 0.314589,0.0037 c 0,-0.033 0.01759,-0.06 0.03908,-0.06 0.0215,0 0.03908,-0.01759 0.03908,-0.03908 0,-0.0215 -0.04452,-0.03908 -0.09893,-0.03908 -0.102756,0 -0.186784,-0.119715 -0.103511,-0.147473 0.02536,-0.0085 0.04612,-0.04044 0.04612,-0.07107 0,-0.09149 -0.155851,0.02673 -0.158809,0.120466 -0.0023,0.07241 -0.0052,0.07167 -0.03784,-0.0094 -0.04626,-0.115098 -0.0081,-0.222447 0.05924,-0.166573 0.03481,0.02889 0.06328,0.0232 0.09894,-0.01977 0.04155,-0.05007 0.03774,-0.06934 -0.02243,-0.11334 -0.06114,-0.04471 -0.08549,-0.0445 -0.155478,0.0014 -0.08962,0.05872 -0.135716,0.03823 -0.134767,-0.05989 4.69e-4,-0.0543 0.0054,-0.0547 0.03983,-0.0033 0.03459,0.0517 0.04495,0.05118 0.08768,-0.0043 0.03492,-0.04538 0.07292,-0.05392 0.136046,-0.03057 0.06567,0.02429 0.08759,0.01804 0.08759,-0.02496 0,-0.03445 -0.03736,-0.05736 -0.09352,-0.05736 -0.05144,0 -0.103805,-0.02679 -0.11637,-0.05953 -0.0183,-0.04769 -0.0083,-0.05174 0.05034,-0.02036 0.05455,0.02919 0.08613,0.02356 0.124036,-0.02211 0.04347,-0.05238 0.03981,-0.05935 -0.02521,-0.04803 -0.04744,0.0083 -0.07606,-0.0088 -0.07606,-0.04538 0,-0.03476 0.03158,-0.05579 0.07759,-0.05166 0.04268,0.0038 0.09077,-0.01376 0.106878,-0.03908 0.01867,-0.02935 0.02972,-0.01771 0.03048,0.03212 6.25e-4,0.04334 0.01399,0.06054 0.02991,0.0386 0.01579,-0.02176 0.07268,-0.04193 0.12642,-0.04482 0.05374,-0.0029 0.115293,-0.0091 0.136789,-0.01391 0.0215,-0.0048 0.07984,-0.0066 0.129653,-0.004 0.07065,0.0036 0.08534,0.02109 0.06682,0.07947 -0.01626,0.05123 0.0041,0.09439 0.06468,0.136789 0.07478,0.05237 0.07768,0.06195 0.01881,0.06195 -0.03829,0 -0.05831,0.0183 -0.04449,0.04067 0.01382,0.02237 0.05883,0.02998 0.100014,0.01691 0.0573,-0.01819 0.07488,-0.0048 0.07488,0.05703 0,0.108699 -0.04659,0.101713 -0.174462,-0.02616 -0.104063,-0.104063 -0.27963,-0.141908 -0.460631,-0.09929 -0.14094,0.03318 -0.06128,0.089 0.127018,0.089 0.107478,0 0.195414,0.01759 0.195414,0.03908 0,0.0876 -0.0079,0.09725 -0.07096,0.08687 -0.05991,-0.0099 -0.05968,-0.006 0.0026,0.04339 0.03762,0.02983 0.06839,0.08203 0.06839,0.116006 0,0.03398 0.01636,0.07189 0.03635,0.08425 0.04103,0.02536 0.03312,0.174939 -0.01321,0.249896 -0.01951,0.03157 -0.07087,0.04064 -0.141821,0.02506 -0.06118,-0.01344 -0.147441,-0.0051 -0.191693,0.01863 -0.06498,0.03478 -0.08046,0.03152 -0.08046,-0.01694 z m 0.351744,-0.805887 c 0,-0.06198 -0.04899,-0.153014 -0.08235,-0.153014 -0.0192,0 -0.0349,0.04104 -0.0349,0.09119 0,0.05501 0.02326,0.09119 0.05862,0.09119 0.03224,0 0.05862,-0.01322 0.05862,-0.02937 z m -0.156331,-0.03577 c 0,-0.0215 -0.01759,-0.03908 -0.03908,-0.03908 -0.0215,0 -0.03908,0.01759 -0.03908,0.03908 0,0.0215 0.01759,0.03908 0.03908,0.03908 0.0215,0 0.03908,-0.01759 0.03908,-0.03908 z m 0.42991,0.623948 c 0,-0.0678 0.01171,-0.07328 0.07926,-0.03712 0.08455,0.04525 0.07051,0.116662 -0.02294,0.116662 -0.03098,0 -0.05632,-0.03579 -0.05632,-0.07954 z m -1.071532,-0.14971 c -0.01684,-0.02724 -0.02005,-0.06008 -0.0072,-0.07298 0.03498,-0.03498 0.07311,0.01647 0.05422,0.07314 -0.01324,0.03972 -0.02244,0.03968 -0.04707,-1.56e-4 z m 1.18878,-0.02709 c 0,-0.03351 0.01759,-0.05006 0.03908,-0.03678 0.0215,0.01329 0.03908,0.0407 0.03908,0.06093 0,0.02023 -0.01759,0.03678 -0.03908,0.03678 -0.0215,0 -0.03908,-0.02742 -0.03908,-0.06093 z m 3.126613,0 c 0,-0.03351 0.01787,-0.04988 0.03972,-0.03638 0.02185,0.0135 0.0296,0.04092 0.01723,0.06093 -0.0335,0.05421 -0.05696,0.0441 -0.05696,-0.02455 z m -0.801195,-0.173566 c -0.01329,-0.0215 -0.0055,-0.03908 0.01723,-0.03908 0.02276,0 0.04139,0.01759 0.04139,0.03908 0,0.0215 -0.0078,0.03908 -0.01723,0.03908 -0.0095,0 -0.0281,-0.01759 -0.04139,-0.03908 z m 0.396149,-0.01977 c -0.01233,-0.03212 -0.0064,-0.0584 0.01314,-0.0584 0.05298,0 0.08588,0.06945 0.0449,0.09478 -0.01959,0.01211 -0.04571,-0.0043 -0.05804,-0.03638 z M 5.8624085,9.1768808 c 0,-0.02276 0.01759,-0.03052 0.03908,-0.01723 0.0215,0.01329 0.03908,0.03191 0.03908,0.04139 0,0.0095 -0.01759,0.01723 -0.03908,0.01723 -0.0215,0 -0.03908,-0.01863 -0.03908,-0.04139 z m -1.507537,-0.855481 c 0.002,-0.134301 0.02077,-0.199981 0.06148,-0.21498 0.03224,-0.01188 0.07986,-0.0316 0.105821,-0.04382 0.02816,-0.01326 0.07071,0.03404 0.105485,0.117273 0.03205,0.07672 0.08117,0.139764 0.109131,0.140093 0.0337,3.91e-4 0.0367,0.01028 0.0089,0.02931 -0.02306,0.01579 -0.05329,0.05949 -0.06717,0.09711 -0.01806,0.04894 -0.06808,0.0684 -0.175875,0.0684 h -0.150642 z m -0.739716,-0.431941 c -0.01329,-0.0215 0.0022,-0.03908 0.03447,-0.03908 0.03224,0 0.06949,0.01759 0.08278,0.03908 0.01329,0.0215 -0.0022,0.03908 -0.03447,0.03908 -0.03224,0 -0.06949,-0.01759 -0.08278,-0.03908 z m -0.87936,-0.195413 c -0.04299,-0.04299 -0.09136,-0.07377 -0.107477,-0.06839 -0.01612,0.0054 -0.0384,-0.09235 -0.0495,-0.217156 -0.02188,-0.245945 0.04289,-0.366101 0.170865,-0.316992 0.03716,0.01426 0.06427,0.0053 0.06427,-0.02123 0,-0.05646 0.151027,-0.01679 0.233053,0.06122 0.08707,0.08281 0.15407,0.341311 0.102416,0.39515 -0.02329,0.02428 -0.08376,0.08946 -0.134387,0.144853 -0.110676,0.121107 -0.175456,0.126338 -0.279247,0.02255 z m 0.90964,0.0075 c -0.02634,-0.01673 -0.05272,-0.0729 -0.05862,-0.124818 -0.01513,-0.13303 0.103939,-0.148137 0.185577,-0.02354 0.09174,0.140013 0.0101,0.235429 -0.126953,0.148362 z m -0.222451,-0.979285 c -0.01684,-0.02724 -0.02006,-0.06008 -0.0072,-0.07298 0.03498,-0.03498 0.07311,0.01647 0.05422,0.07314 -0.01324,0.03972 -0.02244,0.03968 -0.04707,-1.56e-4 z m 0.04236,-0.265797 c -0.01434,-0.01433 -0.02606,-0.04423 -0.02606,-0.06644 0,-0.02449 0.0182,-0.02218 0.04625,0.0059 0.02544,0.02544 0.03716,0.05533 0.02606,0.06644 -0.0111,0.01111 -0.03192,0.0085 -0.04625,-0.0059 z m -0.31022,-1.639029 c -0.01567,-0.01567 -0.0285,-0.05546 -0.0285,-0.08843 0,-0.04399 0.01157,-0.04836 0.04348,-0.01645 0.02391,0.02391 0.03674,0.0637 0.0285,0.08843 -0.0082,0.02472 -0.02781,0.03212 -0.04348,0.01645 z m 0.168337,-0.150548 c -0.02687,-0.03238 -0.03357,-0.07871 -0.01554,-0.107477 0.01744,-0.02781 0.02664,-0.08134 0.02045,-0.11896 -0.01513,-0.09198 0.0277,-0.08617 0.116096,0.01575 0.08923,0.102881 0.09422,0.212001 0.01116,0.243876 -0.08155,0.03129 -0.0779,0.03221 -0.132171,-0.03319 z m 0.206877,-0.35671 c -0.01363,-0.03553 0.0091,-0.09469 0.0533,-0.138921 0.06193,-0.06193 0.08511,-0.06704 0.118177,-0.02606 0.05436,0.06737 -0.0065,0.226856 -0.08662,0.226856 -0.03361,0 -0.07179,-0.02784 -0.08485,-0.06188 z m -0.651577,-1.053968 c 0.02372,-0.06182 0.09153,-0.07792 0.09153,-0.02173 0,0.0192 -0.02548,0.04468 -0.05663,0.05663 -0.03785,0.01452 -0.04943,0.003 -0.0349,-0.0349 z m 0.9025,-0.357153 c -0.03762,-0.0098 -0.06839,-0.03605 -0.06839,-0.05827 0,-0.02222 0.02782,-0.02972 0.06182,-0.01668 0.034,0.01305 0.0878,0.02372 0.119553,0.02372 0.03175,0 0.04686,0.01759 0.03358,0.03908 -0.02518,0.04074 -0.03425,0.04149 -0.14656,0.01214 z m 0.517846,11.3022922 c 0,-0.03224 -0.02638,-0.05862 -0.05862,-0.05862 -0.06103,0 -0.07754,0.04622 -0.03257,0.09119 0.04497,0.04497 0.09119,0.02846 0.09119,-0.03257 z m 2.980053,-0.124432 c 0.10898,-0.01684 0.14656,-0.04137 0.14656,-0.09567 0,-0.08075 -0.0444,-0.09176 -0.14709,-0.0365 -0.03732,0.02009 -0.125023,0.05956 -0.194883,0.08771 -0.143009,0.05763 -0.174852,0.1336 -0.03908,0.09325 0.04837,-0.01437 0.153888,-0.03633 0.234496,-0.04879 z m -3.819716,-0.405979 c 0.01451,-0.06602 0.0159,-0.13051 0.0031,-0.143304 -0.03343,-0.03343 -0.048,-0.0071 -0.07529,0.136328 -0.03074,0.161468 0.03682,0.167996 0.07219,0.007 z M 2.9844305,13.49786 c 0.01237,-0.03224 0.0055,-0.05862 -0.01537,-0.05862 -0.02082,0 -0.03785,0.02638 -0.03785,0.05862 0,0.03224 0.0069,0.05862 0.01535,0.05862 0.0084,0 0.02548,-0.02638 0.03786,-0.05862 z m 5.057078,-0.04885 c 0.009,-0.02733 -0.01599,-0.04885 -0.05668,-0.04885 -0.09232,0 -0.25449,-0.111703 -0.226924,-0.156304 0.0314,-0.05081 -0.03527,-0.07769 -0.09742,-0.03928 -0.04564,0.02821 -0.04212,0.05699 0.02141,0.175045 0.06736,0.125174 0.09128,0.139974 0.209796,0.129765 0.07357,-0.0063 0.14099,-0.03351 0.149817,-0.06038 z m -5.409848,-0.80395 c -0.01736,-0.106964 -0.0411,-0.144146 -0.08646,-0.135409 -0.09092,0.01751 -0.09903,0.13125 -0.01724,0.241469 0.09166,0.123503 0.133935,0.08026 0.1037,-0.10606 z m -0.623009,-0.550814 c -0.01309,-0.03409 -0.03949,-0.06198 -0.05869,-0.06198 -0.04102,0 -0.04731,0.169978 -0.0078,0.209533 0.04085,0.04085 0.0937,-0.07652 0.06644,-0.14755 z m 5.857441,-1.869762 c 0.02483,-0.06469 -0.07522,-0.160581 -0.109566,-0.105011 -0.03107,0.05027 0.0057,0.15407 0.05461,0.15407 0.01987,0 0.0446,-0.02208 0.05495,-0.04906 z M 1.4265305,9.8228718 c 0,-0.03874 -0.02198,-0.07776 -0.04885,-0.08672 -0.02687,-0.009 -0.04885,0.0097 -0.04885,0.04142 0,0.03173 -0.0275,0.06825 -0.0611,0.08115 -0.0336,0.0129 -0.05063,0.04039 -0.03784,0.06109 0.03713,0.06008 0.196646,-0.01855 0.196646,-0.09693 z m 6.4291,-0.138524 c 0,-0.01852 -0.02638,-0.02355 -0.05862,-0.01118 -0.03224,0.01237 -0.05862,0.03765 -0.05862,0.05617 0,0.01852 0.02638,0.02355 0.05862,0.01118 0.03224,-0.01237 0.05862,-0.03765 0.05862,-0.05617 z m -0.547158,-0.466037 c 0,-0.0215 -0.01759,-0.03908 -0.03908,-0.03908 -0.0215,0 -0.03908,0.01759 -0.03908,0.03908 0,0.0215 0.01759,0.03908 0.03908,0.03908 0.02149,0 0.03908,-0.01759 0.03908,-0.03908 z m -6.092839,-1.105891 c -0.05016,-0.05016 -0.101031,-0.01139 -0.06389,0.0487 0.01438,0.02328 0.04406,0.03126 0.06594,0.01773 0.02669,-0.0165 0.02602,-0.03836 -0.002,-0.06643 z m 3.552466,-0.144755 c 0,-0.02149 -0.01759,-0.03908 -0.03908,-0.03908 -0.0215,0 -0.03908,0.01759 -0.03908,0.03908 0,0.0215 0.01759,0.03908 0.03908,0.03908 0.02149,0 0.03908,-0.01759 0.03908,-0.03908 z m -3.673771,-0.664405 c 0,-0.0215 -0.02534,-0.03908 -0.05632,-0.03908 -0.03097,0 -0.06719,0.01759 -0.08047,0.03908 -0.01329,0.02149 0.01205,0.03908 0.05632,0.03908 0.04426,0 0.08047,-0.01759 0.08047,-0.03908 z m 2.920646,-1.094803 c 0.01787,-0.191727 -0.0336,-0.203382 -0.09083,-0.02057 -0.02884,0.09213 -0.0296,0.148018 -0.0024,0.175221 0.0566,0.0566 0.07663,0.02337 0.09322,-0.154656 z m 0.205369,-2.705987 c -4.69e-4,-0.07111 -0.0078,-0.07672 -0.03848,-0.02931 -0.04897,0.07577 -0.04897,0.117248 0,0.117248 0.0215,0 0.03881,-0.03957 0.03848,-0.08794 z m -1.44546,-0.6374 c 0,-0.03351 -0.01759,-0.05006 -0.03908,-0.03678 -0.0215,0.01328 -0.03908,0.0407 -0.03908,0.06093 0,0.02023 0.01759,0.03678 0.03908,0.03678 0.0215,0 0.03908,-0.02742 0.03908,-0.06093 z m 0.429909,-0.403276 c 0,-0.01886 -0.02638,-0.05619 -0.05862,-0.08295 -0.04754,-0.03946 -0.05862,-0.0379 -0.05862,0.0082 0,0.03129 0.01172,0.06862 0.02606,0.08295 0.03712,0.03712 0.09119,0.03223 0.09119,-0.0082 z m 3.119285,12.4358892 c 0.02821,-0.01129 0.06192,-0.0099 0.07491,0.0031 0.01299,0.01299 -0.0101,0.02222 -0.0513,0.02053 -0.04553,-0.0019 -0.05479,-0.01113 -0.02361,-0.02361 z m -1.653685,-0.09055 c -0.01329,-0.0215 -0.0055,-0.03908 0.01723,-0.03908 0.02276,0 0.04139,0.01759 0.04139,0.03908 0,0.0215 -0.0078,0.03908 -0.01723,0.03908 -0.0095,0 -0.0281,-0.01759 -0.04139,-0.03908 z m -0.189442,-0.188815 c -0.07109,-0.07855 -0.0503,-0.123846 0.05686,-0.123846 0.08603,0 0.12074,0.05171 0.08944,0.133262 -0.03099,0.08075 -0.06678,0.07845 -0.146304,-0.0094 z m 3.706882,-0.788252 c 0.01328,-0.0215 0.0407,-0.03908 0.06093,-0.03908 0.02023,0 0.03678,0.01759 0.03678,0.03908 0,0.0215 -0.02742,0.03908 -0.06093,0.03908 -0.03351,0 -0.05006,-0.01759 -0.03678,-0.03908 z m 2.9898235,-0.0342 c 0,-0.01881 0.04836,-0.04397 0.107478,-0.05591 0.05911,-0.01194 0.177826,-0.08121 0.263808,-0.153915 0.155417,-0.131426 0.507041,-0.342213 0.570862,-0.342213 0.01837,0 0.129628,-0.06156 0.247238,-0.13679 0.117609,-0.07523 0.233141,-0.136789 0.256737,-0.136789 0.101508,0 0.272668,-0.126304 0.356215,-0.26286 0.04964,-0.08113 0.113579,-0.171438 0.142096,-0.200686 0.02852,-0.02925 0.09363,-0.134771 0.144695,-0.234496 0.05106,-0.09972 0.130326,-0.203956 0.176136,-0.231625 0.04581,-0.02767 0.09567,-0.08215 0.110805,-0.121078 0.01513,-0.03892 0.163816,-0.189773 0.330406,-0.335221 0.166589,-0.145448 0.304088,-0.266835 0.305553,-0.269749 0.0014,-0.0029 0.01099,-0.145996 0.02116,-0.31796 0.01575,-0.266218 0.03224,-0.324991 0.111032,-0.395666 0.05089,-0.04565 0.122592,-0.142382 0.159328,-0.214954 0.03674,-0.07257 0.109889,-0.189518 0.162567,-0.259877 0.05268,-0.07036 0.123066,-0.2080262 0.156423,-0.3059242 0.03336,-0.0979 0.08491,-0.187307 0.114566,-0.198687 0.02966,-0.01138 0.05392,-0.04282 0.05392,-0.06986 0,-0.02705 0.03606,-0.09501 0.08013,-0.151044 0.06536,-0.08309 0.07201,-0.117052 0.03607,-0.184196 -0.02423,-0.04528 -0.0316,-0.111729 -0.01638,-0.147666 0.01523,-0.03594 0.02509,-0.13569 0.02193,-0.221672 -0.01838,-0.499135 -0.0092,-0.59984 0.06952,-0.762778 0.130383,-0.269863 0.198296,-1.350158 0.09485,-1.508803 -0.02975,-0.04562 -0.06028,-0.20121 -0.06784,-0.345746 -0.0096,-0.184024 -0.0369,-0.294105 -0.09098,-0.367254 -0.04248,-0.05745 -0.0896,-0.148089 -0.104723,-0.201412 -0.03254,-0.114747 -0.08982,-0.25298 -0.164132,-0.396101 -0.02962,-0.05705 -0.05386,-0.137869 -0.05386,-0.179585 0,-0.04172 -0.03244,-0.10521 -0.0721,-0.141095 -0.111182,-0.100619 -0.176131,-0.336403 -0.127659,-0.46344 0.03439,-0.09014 0.02596,-0.123504 -0.05573,-0.220597 -0.05294,-0.06292 -0.09629,-0.138235 -0.09634,-0.167375 -1.16e-4,-0.07385 -0.226219,-0.501509 -0.327621,-0.619681 -0.04611,-0.05374 -0.117004,-0.159262 -0.157538,-0.234496 -0.106622,-0.197908 -0.332484,-0.468992 -0.390755,-0.468992 -0.02751,0 -0.09229,-0.03624 -0.143943,-0.08053 -0.409225,-0.350914 -0.615731,-0.505706 -0.674656,-0.505706 -0.03273,0 -0.07038,-0.01759 -0.08367,-0.03908 -0.01328,-0.0215 -0.05523,-0.03908 -0.0932,-0.03908 -0.03798,0 -0.110352,-0.04397 -0.160837,-0.09771 -0.05048,-0.05374 -0.115344,-0.09771 -0.144132,-0.09771 -0.02879,0 -0.08288,-0.01653 -0.120206,-0.03672 -0.03733,-0.0202 -0.116049,-0.04687 -0.174941,-0.05927 -0.08797,-0.01852 -0.114949,-0.05381 -0.1512,-0.197775 -0.02427,-0.09638 -0.05522,-0.175774 -0.06879,-0.176442 -0.408739,-0.02012 -0.537722,-0.04324 -0.582451,-0.104408 -0.04292,-0.05869 -0.06154,-0.06106 -0.132375,-0.01682 -0.06258,0.03908 -0.08931,0.04036 -0.110973,0.0053 -0.0157,-0.0254 -0.0705,-0.04095 -0.121781,-0.03455 -0.05128,0.0064 -0.141607,-0.01841 -0.200719,-0.05513 -0.05911,-0.03672 -0.155842,-0.09738 -0.214955,-0.134815 -0.126906,-0.08036 -0.17829,-0.08902 -0.5310535,-0.08947 -0.158568,-2.04e-4 -0.312625,-0.02381 -0.378838,-0.05805 -0.06915,-0.03576 -0.120605,-0.04312 -0.135288,-0.01937 -0.01303,0.02109 -0.0624,0.03623 -0.109696,0.03365 -0.0473,-0.0026 -0.113453,0.0071 -0.147008,0.02149 -0.03861,0.01657 -0.127427,-0.02454 -0.241922,-0.111959 -0.207105,-0.158136 -0.185777,-0.152147 -0.329618,-0.09256 -0.06051,0.02507 -0.118815,0.04857 -0.129563,0.05223 -0.01075,0.0037 -0.05472,0.02004 -0.09771,0.03641 -0.04299,0.01637 -0.148463,0.05602 -0.234382,0.08811 -0.08592,0.03209 -0.166741,0.07538 -0.179603,0.09619 -0.02643,0.04277 -0.587803,0.190666 -0.628635,0.165617 -0.01456,-0.0089 -0.114465,0.01845 -0.222014,0.06084 -0.140735,0.05547 -0.199879,0.06407 -0.211008,0.03069 -0.01101,-0.03304 -0.04433,-0.02747 -0.115827,0.01937 -0.09527,0.06242 -0.09942,0.06216 -0.08181,-0.0052 0.01129,-0.04318 -0.0075,-0.08095 -0.04788,-0.09646 -0.05373,-0.02062 -0.06296,-0.0073 -0.04827,0.06956 0.0159,0.08319 6.41e-4,0.09825 -0.122355,0.120676 -0.07729,0.01409 -0.198689,0.05951 -0.269778,0.100925 -0.07109,0.04141 -0.170062,0.0753 -0.21994,0.0753 -0.04988,0 -0.110709,0.02413 -0.135181,0.05361 -0.02447,0.02949 -0.105714,0.06355 -0.18054,0.07569 -0.200723,0.03257 -0.547803,0.259979 -0.651484,0.426851 -0.105417,0.169667 -0.177661,0.203382 -0.319912,0.149299 -0.079,-0.03003 -0.102869,-0.06585 -0.102869,-0.154327 0,-0.134434 0.169065,-0.35571 0.271778,-0.35571 0.03818,0 0.172916,-0.07031 0.299416,-0.156238 0.126501,-0.08593 0.249346,-0.15628 0.27299,-0.156331 0.02364,-5.1e-5 0.11964,-0.05562 0.213324,-0.123482 0.330044,-0.239083 0.668247,-0.37843901 0.988967,-0.40750201 0.164167,-0.01488 0.298485,-0.04221 0.298485,-0.06074 0,-0.01853 0.02693,-0.03369 0.05985,-0.03369 0.03292,0 0.06956,-0.02531 0.08143,-0.05624 0.01187,-0.03093 0.07727,-0.06822 0.145333,-0.08287 0.06807,-0.01465 0.167722,-0.04732 0.221461,-0.0726 0.05837,-0.02746 0.179115,-0.03704 0.299901,-0.0238 0.124909,0.01369 0.199603,0.0073 0.195414,-0.01679 -0.0037,-0.02143 0.03719,-0.04546 0.09092,-0.05342 0.05374,-0.008 0.111978,-0.03952 0.129421,-0.07014 0.01744,-0.03063 0.04638,-0.04662 0.0643,-0.03555 0.01792,0.01108 0.04239,-0.0054 0.05437,-0.03664 0.01674,-0.04363 0.06667,-0.05146 0.21558,-0.03383 0.106586,0.01262 0.246483,0.0046 0.310883,-0.01787 0.06835,-0.02383 0.173774,-0.02803 0.253266,-0.01011 0.105795,0.02386 0.17418,0.01153 0.306519,-0.05527 0.132671,-0.06697 0.196271,-0.07838 0.28759,-0.0516 0.06449,0.01891 0.24335,0.04093 0.397476,0.04893 0.2968745,0.01541 0.4428005,0.06672 0.4428005,0.155695 0,0.02978 0.05055,0.06525 0.11234,0.07882 0.06179,0.01357 0.152966,0.06792 0.20262,0.120772 0.07449,0.0793 0.113687,0.09171 0.224142,0.07099 0.08713,-0.01635 0.144088,-0.0086 0.163155,0.02228 0.01763,0.02853 0.120916,0.04725 0.259528,0.04704 0.239521,-3.75e-4 0.592495,0.08761 0.660146,0.164546 0.101587,0.11553501 0.401889,0.32792401 0.496644,0.35125401 0.129726,0.03194 0.284172,0.170962 0.321294,0.289206 0.01891,0.06024 0.05824,0.08794 0.124883,0.08794 0.09138,0 0.327366,0.205386 0.327366,0.284917 0,0.07506 0.559821,0.690716 0.799507,0.879253 0.04992,0.03926 0.0971,0.103676 0.104846,0.143138 0.0078,0.03946 0.04047,0.08398 0.07271,0.09894 0.244864,0.11356 0.301687,0.157226 0.375246,0.288361 0.04581,0.08168 0.137558,0.181499 0.203874,0.221829 0.06632,0.04033 0.14826,0.126864 0.182098,0.192301 0.03384,0.06544 0.07804,0.118977 0.09823,0.118977 0.06624,0 0.123418,0.158637 0.136741,0.379399 0.01197,0.198429 0.04443,0.295096 0.203979,0.607438 0.03019,0.05911 0.04302,0.107477 0.02851,0.107477 -0.01451,0 0.02314,0.06493 0.08367,0.14429 0.06108,0.08008 0.114823,0.204834 0.120772,0.280353 0.0059,0.07484 0.02644,0.146205 0.04566,0.158601 0.01922,0.0124 0.07395,0.09946 0.121624,0.193471 0.07256,0.14309 0.08375,0.216301 0.06873,0.449451 -0.0099,0.153184 0.0047,0.454389 0.03244,0.669344 0.04912,0.381044 0.0447,0.544046 -0.01909,0.703488 -0.0172,0.04299 -0.05105,0.127358 -0.07522,0.187482 -0.02417,0.06012 -0.04395,0.163987 -0.04395,0.230806 0,0.06682 -0.04107,0.175913 -0.09127,0.242428 -0.06632,0.08788 -0.105314,0.220125 -0.142646,0.483764 -0.02826,0.199555 -0.06575,0.371712 -0.08332,0.382572 -0.01757,0.01086 -0.02196,0.06967 -0.0098,0.130702 0.02569,0.128466 -0.04068,0.276838 -0.123833,0.276838 -0.03149,0 -0.05725,0.02437 -0.05725,0.05416 0,0.02979 -0.02453,0.101442 -0.05451,0.159235 -0.03335,0.06428 -0.04648,0.16499 -0.03382,0.2593822 0.01418,0.105775 0.0023,0.175537 -0.03796,0.22182 -0.03226,0.03713 -0.08944,0.167503 -0.127064,0.289708 -0.03762,0.122204 -0.111382,0.262562 -0.163908,0.311906 -0.05252,0.04934 -0.162373,0.232422 -0.244107,0.406839 -0.1623,0.34634 -0.399738,0.641913 -0.515655,0.641913 -0.04049,0 -0.07362,0.01796 -0.07362,0.0399 0,0.02195 -0.177612,0.215048 -0.394694,0.429116 -0.395098,0.389611 -0.755692,0.667783 -0.93585,0.721942 -0.05279,0.01587 -0.18391,0.08821 -0.291387,0.160766 -0.165689,0.111849 -1.182191,0.602406 -1.248269,0.602406 -0.01206,0 -0.02192,-0.01538 -0.02192,-0.0342 z M 8.4223285,10.85978 c -0.01328,-0.0215 -0.0055,-0.03908 0.01723,-0.03908 0.02276,0 0.04139,0.01759 0.04139,0.03908 0,0.0215 -0.0078,0.03908 -0.01723,0.03908 -0.0095,0 -0.0281,-0.01759 -0.04139,-0.03908 z M 0.7284505,9.0424358 c -0.01237,-0.03224 -0.0055,-0.05862 0.01537,-0.05862 0.02082,0 0.03786,0.02638 0.03786,0.05862 0,0.03224 -0.0069,0.05862 -0.01535,0.05862 -0.0084,0 -0.02548,-0.02638 -0.03786,-0.05862 z m 6.416364,-0.241653 c 0.02821,-0.01129 0.06192,-0.0099 0.07491,0.0031 0.01299,0.01299 -0.0101,0.02222 -0.0513,0.02053 -0.04553,-0.0019 -0.05479,-0.01114 -0.02361,-0.02361 z m -1.106135,-0.638345 c 0.0135,-0.02185 0.04092,-0.0296 0.06093,-0.01723 0.05421,0.0335 0.0441,0.05695 -0.02455,0.05695 -0.03351,0 -0.04988,-0.01787 -0.03638,-0.03972 z m -1.739572,-2.559277 c 0,-0.03224 0.01759,-0.05862 0.03908,-0.05862 0.0215,0 0.03908,0.02638 0.03908,0.05862 0,0.03224 -0.01759,0.05862 -0.03908,0.05862 -0.0215,0 -0.03908,-0.02638 -0.03908,-0.05862 z m 0.195413,-1.502376 c 0,-0.02023 0.01759,-0.04765 0.03908,-0.06093 0.0215,-0.01328 0.03908,0.0033 0.03908,0.03678 0,0.03351 -0.01759,0.06093 -0.03908,0.06093 -0.0215,0 -0.03908,-0.01655 -0.03908,-0.03678 z m -2.620643,-0.571082 c -0.133735,-0.137885 -0.134779,-0.141758 -0.148053,-0.548528 -0.01069,-0.327698 -7.82e-4,-0.428937 0.04975,-0.505998 0.06853,-0.104597 0.156113,-0.124939 0.204432,-0.04748 0.01676,0.02687 0.04221,0.2909 0.05655,0.586734 0.01613,0.332683 0.04448,0.560057 0.07432,0.596011 0.03986,0.04803 0.03516,0.05813 -0.02704,0.05813 -0.04141,0 -0.135892,-0.06249 -0.209969,-0.138866 z"
     id="path260" />
</svg>
