<?xml version="1.0" encoding="UTF-8" standalone="no"?>
<svg
   height="16"
   viewBox="0 0 16 16"
   width="16"
   version="1.1"
   id="svg35"
   xmlns="http://www.w3.org/2000/svg"
   xmlns:svg="http://www.w3.org/2000/svg">
  <defs
     id="defs39" />
  <linearGradient
     id="a"
     gradientUnits="userSpaceOnUse"
     x1="36"
     x2="60"
     y1="68"
     y2="68">
    <stop
       offset="0"
       stop-color="#ed336c"
       id="stop2" />
    <stop
       offset="1"
       stop-color="#ffa348"
       id="stop4" />
  </linearGradient>
  <linearGradient
     id="b"
     gradientTransform="rotate(90,88,56)"
     gradientUnits="userSpaceOnUse"
     x1="72"
     x2="96"
     y1="68"
     y2="68">
    <stop
       offset="0"
       stop-color="#404ce6"
       id="stop7" />
    <stop
       offset="1"
       stop-color="#c061cb"
       id="stop9" />
  </linearGradient>
  <linearGradient
     id="c"
     gradientUnits="userSpaceOnUse"
     x1="68.84919"
     x2="95.257637"
     y1="84"
     y2="84">
    <stop
       offset="0"
       stop-color="#33d1c6"
       id="stop12" />
    <stop
       offset="1"
       stop-color="#1c25d8"
       id="stop14" />
  </linearGradient>
  <path
     d="M 15.996586,8.5425385 H 8.1870716 L 6.9081607,12.95408 H 5.3571405 c -0.037419,0 -0.071425,-0.02379 -0.081632,-0.06123 L 2.4761925,3.0425383 h 1.9489802 l 1.030614,3.6292481 H 7.4013653 L 5.8367359,1.1717865 H -5.0000001e-8 L 3.4761926,13.406452 c 0.2380893,0.836802 1.0101971,1.421762 1.8809479,1.421762 H 8.3163301 L 9.5952425,10.416682 H 14.12928 v 2.455798 c 0,0.02379 -0.0068,0.04416 -0.02379,0.06123 -0.01707,0.01696 -0.03744,0.02379 -0.06123,0.02379 H 10.802767 L 10.2585,14.828221 h 3.78576 c 0.523734,0 1.013546,-0.204054 1.38432,-0.574828 C 15.79936,13.88272 16,13.392907 16,12.869066 V 8.5425385 Z"
     fill="#00758a"
     id="path1-2"
     style="stroke-width:0.106667;fill:#000000;opacity:0.6" />
  <path
     d="m 15.465922,6.6717864 h 0.530666 V 3.1309651 c 0,-0.523808 -0.20416,-1.0136001 -0.571414,-1.3843521 C 15.057814,1.3758717 14.564588,1.1717865 14.040748,1.1717865 H 10.329889 L 8.731255,6.6717864 Z M 11.734615,3.0425383 h 2.309546 c 0.02379,0 0.04427,0.00679 0.06123,0.023808 0.01707,0.017003 0.02379,0.037408 0.02379,0.061227 v 1.6734614 h -2.904747 l 0.5136,-1.7618987 z"
     fill="#f29111"
     id="path2"
     style="stroke-width:0.106667;fill:#000000;opacity:1" />
</svg>
