<?xml version="1.0" encoding="UTF-8" standalone="no"?>
<svg
   width="16"
   height="16"
   version="1"
   id="svg8"
   xml:space="preserve"
   xmlns="http://www.w3.org/2000/svg"
   xmlns:svg="http://www.w3.org/2000/svg"><defs
     id="defs12" /><path
     id="circle4"
     style="fill:#000000;stroke-width:1.33334"
     d="M 8,0 A 8.0000384,8.0000384 0 0 0 0,8 8.0000384,8.0000384 0 0 0 8,16 8.0000384,8.0000384 0 0 0 16,8 8.0000384,8.0000384 0 0 0 8,0 Z m 4.02679,2.666667 c 0.16635,-1.45e-4 0.33128,0.02891 0.47273,0.08835 0.31515,0.132453 0.63452,0.486695 0.75033,0.831725 0.0931,0.277391 0.11059,0.67798 0.0414,0.960083 -0.066,0.269173 -4.13476,8.093917 -4.3315,8.330117 C 8.8593,12.997528 8.70209,13.122271 8.56319,13.191752 8.0349,13.455992 7.47029,13.345748 7.07402,12.900943 6.96214,12.775391 6.28004,11.497984 4.84461,8.727015 2.57046,4.336982 2.60967,4.425315 2.6952,3.912683 2.81099,3.272104 3.2988,2.675162 4.00279,2.687533 c 0.32747,0.0018 0.68516,0.107288 0.94235,0.402122 0.0818,0.09192 0.47575,0.803111 0.91486,1.652666 1.29426,2.502089 1.335,2.574233 1.62171,2.876076 0.83087,0.874696 2.09585,0.859181 2.93242,-0.03618 0.27878,-0.29841 0.51655,-0.773142 0.5931,-1.184103 0.068,-0.364982 0.0293,-1.014944 -0.0779,-1.310375 -0.0475,-0.130815 -0.12136,-0.335033 -0.16419,-0.453953 -0.10128,-0.281219 -0.084,-0.810252 0.0362,-1.110357 0.11311,-0.282392 0.36795,-0.574969 0.62127,-0.713106 0.17335,-0.09453 0.38999,-0.143144 0.60388,-0.143316 z" /></svg>
