<?xml version="1.0" encoding="UTF-8" standalone="no"?>
<svg
   height="16"
   viewBox="0 0 16 16"
   width="16"
   version="1.1"
   id="svg135"
   xml:space="preserve"
   xmlns="http://www.w3.org/2000/svg"
   xmlns:svg="http://www.w3.org/2000/svg"><defs
     id="defs139" /><style
     type="text/css"
     id="style1">
	.st0{fill:#06EEFF;}
	.st1{fill:#2A6CEA;}
	.st2{fill:#1A65E8;}
	.st3{opacity:0.55;}
	.st4{opacity:0.9;clip-path:url(#SVGID_2_);fill-rule:evenodd;clip-rule:evenodd;fill:url(#SVGID_3_);}
	.st5{fill-rule:evenodd;clip-rule:evenodd;fill:#04CAFE;}
	.st6{opacity:0.9;}
	.st7{opacity:0.8;clip-path:url(#SVGID_5_);}
	.st8{clip-path:url(#SVGID_7_);}
	.st9{opacity:0.4;}
	.st10{clip-path:url(#SVGID_9_);}
	.st11{clip-path:url(#SVGID_11_);}
	.st12{opacity:0.5;clip-path:url(#SVGID_13_);fill-rule:evenodd;clip-rule:evenodd;fill:url(#SVGID_14_);}
	.st13{opacity:0.8;clip-path:url(#SVGID_16_);}
	.st14{fill-rule:evenodd;clip-rule:evenodd;fill:#2CE7FF;}
	.st15{fill-rule:evenodd;clip-rule:evenodd;fill:#06EEFF;}
	.st16{clip-path:url(#SVGID_18_);fill-rule:evenodd;clip-rule:evenodd;fill:#C2FFFE;}
	.st17{clip-path:url(#SVGID_20_);}
	.st18{clip-path:url(#SVGID_22_);}
	.st19{clip-path:url(#SVGID_24_);fill-rule:evenodd;clip-rule:evenodd;fill:url(#SVGID_25_);}
	.st20{opacity:0.45;clip-path:url(#SVGID_27_);}
	.st21{opacity:0.45;}
	.st22{opacity:0.8;clip-path:url(#SVGID_29_);}
	.st23{opacity:0.4;clip-path:url(#SVGID_31_);}
</style><g
     id="g1"
     transform="matrix(0.13809382,0,0,0.13809382,1.9333137,6.4809836)"><path
       id="use297"
       clip-path="none"
       mask="none"
       style="opacity:0.7;fill:#000000;fill-opacity:1;stroke-width:0.260063"
       class="st3"
       d="m 89.7239,-9.29315 c -4.81207,-0.0807 -9.4325,2.67237 -11.50391,7.34961 L 67.18093,22.96075 59.07937,8.41974 C 58.24977,6.93022 57.15671,5.67979 55.89187,4.69317 55.25948,4.19987 54.58561,3.77183 53.8782,3.41388 c -5.3e-4,-2.7e-4 -10e-4,2.7e-4 -0.002,0 C 53.16875,3.05593 52.43108,2.76677 51.67112,2.5506 50.91121,2.33442 50.13095,2.19084 49.34105,2.12286 c -6.5e-4,-5e-5 -0.001,6e-5 -0.002,0 -0.76733,-0.0659 -1.54369,-0.0565 -2.31836,0.0234 -1.61776,0.16661 -3.2275,0.65399 -4.73828,1.4961 -1.48951,0.83025 -2.74015,1.92229 -3.72656,3.1875 -0.98641,1.2652 -1.70843,2.70454 -2.14062,4.22461 -0.10805,0.38001 -0.19812,0.76343 -0.26954,1.15234 -1.1e-4,6.2e-4 1.2e-4,10e-4 0,0.002 -0.14258,0.77721 -0.21162,1.56937 -0.20312,2.36523 10e-6,6.6e-4 -1e-5,10e-4 0,0.002 0.0216,1.99066 0.52583,4.00591 1.5625,5.86719 l 20.08594,36.05274 c 0.38886,0.6978 0.83708,1.3432 1.33203,1.93359 3.3e-4,3.9e-4 -3.3e-4,0.002 0,0.002 0.49506,0.59027 1.03853,1.12595 1.62109,1.60352 0.58298,0.47787 1.2054,0.89806 1.85742,1.25781 0.65203,0.35974 1.33463,0.65819 2.03711,0.89453 0.63459,0.21349 1.2879,0.36787 1.94922,0.47656 0.0701,0.0115 0.13867,0.0307 0.20899,0.041 6.3e-4,9e-5 0.001,-9e-5 0.002,0 0.0336,0.005 0.0679,0.005 0.10156,0.01 0.70167,0.097 1.41163,0.1384 2.125,0.11328 1.12145,-0.0395 2.24666,-0.2321 3.3457,-0.58789 0.36635,-0.1186 0.73064,-0.25509 1.08985,-0.41016 0.3501,-0.11909 0.69516,-0.27205 1.03515,-0.44726 1.0742,-0.55374 2.08734,-1.35809 2.95899,-2.25586 0.86116,-0.88677 1.58411,-1.86187 2.09766,-2.76563 0.17117,-0.30113 0.31982,-0.59347 0.4414,-0.87304 l 8.64063,-19.50977 c -0.01,0.0197 -0.0232,0.0371 -0.0332,0.0566 L 100.80202,8.05851 c 2.76187,-6.23632 -0.0527,-13.5311 -6.28906,-16.29297 -1.55908,-0.69047 -3.18504,-1.03169 -4.78906,-1.05859 z" /><path
       id="use233"
       style="clip-rule:evenodd;opacity:1;fill:#000000;fill-rule:evenodd;stroke-width:0.260063"
       d="m 21.60288,3.67414 c 1.33933,0.48632 -0.73598,-3.93476 2.58763,-10.28031 0.43628,-0.83252 0.77475,-1.96671 0.77404,-2.72554 l -0.004,-4.38807 c -0.004,-4.30458 -8.01926,-2.80961 -10.31311,3.02618 l 9.7e-4,3.90585 c 10e-4,4.2182 2.34625,8.7842 6.95458,10.46189 z m 9.95522,-10.2699 c -1.49016,-0.54354 -5.12845,-14.10324 4.65774,-22.80236 15.55084,-14.13184 28.94766,5.66938 8.90977,13.48689 -13.33345,5.19866 -12.07734,9.859 -13.56751,9.31547 z M 67.64155,-41 c 2.54236,0 5.51398,2.58696 5.51509,5.91008 l 0.001,3.60609 c 0.001,3.04534 -2.4706,5.51594 -5.51595,5.51594 -3.04794,0 -5.51567,-2.4706 -5.51594,-5.51594 l -3.5e-4,-4.00023 C 62.1251,-38.80145 64.96975,-41 67.64134,-41 Z M 61.8874,-14.32791 C 52.06175,-14.20788 38.97346,-7.67174 31.33271,5.39279 29.01127,9.35912 24.99342,16.33084 20.90107,23.44748 L 9.64326,-1.95096 C 6.88138,-8.18728 -0.41339,-11.00385 -6.64971,-8.24197 -12.88603,-5.4801 -15.70064,1.81468 -12.93877,8.051 l 12.45703,28.10351 c -0.002,-0.005 -0.005,-0.009 -0.008,-0.0137 l 0.71289,1.60351 7.95507,17.90821 c 1.71382,3.86974 5.16997,6.4222 9.03711,7.14258 -0.003,-0.003 -0.002,-0.009 -0.002,-0.0117 5.08684,0.96743 10.43786,-1.35089 13.0957,-6.12305 0,0 12.43936,-22.02873 17.16211,-30.71484 C 62.47252,-1.64844 74.07416,-3.2614 74.07209,-7.56628 l -0.002,-3.7765 c -2.1035,-3.44178 -7.03635,-3.04801 -12.18312,-2.98514 z" /></g></svg>
