<?xml version="1.0" encoding="UTF-8" standalone="no"?>
<svg
   height="16px"
   viewBox="0 0 16 16"
   width="16px"
   version="1.1"
   id="svg4"
   xmlns="http://www.w3.org/2000/svg"
   xmlns:svg="http://www.w3.org/2000/svg">
  <defs
     id="defs8" />
  <path
     d="m 6.9371776,2.0039807 v 0.044089 L 3.7186086,3.679401 v 0.044089 c 1.335268,-0.1798072 2.606479,-0.5999855 3.9681,-0.6596145 1.607529,-0.070396 3.1611744,0.3824482 4.7176304,0.7037038 V 3.7234903 L 9.0534996,2.04807 v -0.044089 c 1.2042264,0.00331 2.8248524,0.2265437 3.8358294,0.9146973 0.594373,0.4045798 1.074107,1.0053806 1.469667,1.5984325 1.38529,2.0769297 2.568922,5.8771355 0.600826,7.9361995 -0.842758,0.881713 -2.317156,1.823231 -3.613643,1.46443 -0.154842,-0.04285 -0.306502,-0.115486 -0.440866,-0.202895 -1.1364244,-0.739309 0.328724,-1.695069 1.102216,-1.878794 v -0.04409 c -2.6910194,0.61692 -5.1941194,0.662608 -7.8921104,0.04409 0.455609,0.265924 1.093922,0.464163 1.346651,0.96998 0.478149,0.956978 -1.129204,1.182354 -1.699372,1.142394 -0.979958,-0.06868 -2.017336,-0.706307 -2.670744,-1.410881 C -0.89284839,10.397323 0.15516461,6.6343944 1.6475016,4.4730212 2.0727856,3.8570726 2.5609956,3.2743373 3.1895286,2.8573743 4.1719876,2.2056198 5.7777016,2.007175 6.9371776,2.0039807 m -3.350839,1.7195099 v 0.044089 h 0.13227 l -0.13227,-0.044089 m 1.45497,3.3702311 c -1.938414,0.3120961 -1.435018,3.2422853 0.484991,2.9654943 1.918265,-0.2765397 1.422632,-3.2726312 -0.484991,-2.9654943 m 5.4230704,0.00105 C 8.4956016,7.4497372 9.0893346,10.419344 11.03755,10.051796 12.912394,9.698086 12.332354,6.7579786 10.464379,7.0947697 m -6.4371414,4.6971503 0.04409,0.04409 z"
     style="fill:#000000;stroke:none;stroke-width:0.0440899"
     id="path1-0" />
</svg>
