<?xml version="1.0" encoding="UTF-8" standalone="no"?>
<svg
   height="16px"
   viewBox="0 0 16 16"
   width="16px"
   version="1.1"
   id="svg3"
   xml:space="preserve"
   xmlns="http://www.w3.org/2000/svg"
   xmlns:svg="http://www.w3.org/2000/svg"><defs
     id="defs3" /><path
     id="path1"
     style="line-height:normal;font-variant-ligatures:normal;font-variant-position:normal;font-variant-caps:normal;font-variant-numeric:normal;font-variant-alternates:normal;font-feature-settings:normal;text-indent:0;text-align:start;text-decoration-line:none;text-decoration-style:solid;text-decoration-color:#000000;text-transform:none;text-orientation:mixed;shape-padding:0;isolation:auto;mix-blend-mode:normal;fill:#000000;marker:none"
     d="M 8,0 C 3.585,0 0,3.585 0,8 c 0,4.415 3.585,8 8,8 4.415,0 8,-3.585 8,-8 C 16,3.585 12.415,0 8,0 Z m 0,2 c 0.972785,0 1.886965,0.2249074 2.695312,0.6269531 L 9.458984,5.1425781 A 2.344,2.344 0 0 0 8.662109,5 H 7.337891 A 2.344,2.344 0 0 0 6.541016,5.1425781 H 6.539062 L 5.302734,2.6269531 C 6.111489,2.2243898 7.026549,2 8,2 Z M 2.611328,5.3378906 5.123047,6.59375 A 2.344,2.344 0 0 0 5,7.3378906 V 8.662109 A 2.344,2.344 0 0 0 5.142578,9.460938 L 2.636719,10.712891 C 2.229423,9.900431 2,8.979528 2,8 2,7.0404904 2.219533,6.1380682 2.611328,5.3378906 Z m 10.777344,0 C 13.780467,6.1380682 14,7.0404904 14,8 14,8.979688 13.770702,9.900333 13.363281,10.712891 L 10.857422,9.460938 A 2.344,2.344 0 0 0 11,8.662109 V 7.3378906 A 2.344,2.344 0 0 0 10.876953,6.59375 Z M 7.337891,6 H 8.662109 C 9.412109,6 10,6.5878906 10,7.3378906 V 8.662109 C 10,9.412109 9.412109,10 8.662109,10 H 7.337891 C 6.587891,10 6,9.412109 6,8.662109 V 7.3378906 C 6,6.5878906 6.587891,6 7.337891,6 Z M 6.566406,10.867188 A 2.344,2.344 0 0 0 7.337891,11 H 8.662109 A 2.344,2.344 0 0 0 9.433594,10.867188 L 10.6875,13.376953 C 9.881088,13.77655 8.969626,14 8,14 7.030374,14 6.118912,13.77655 5.3125,13.376953 Z" /></svg>
