<?xml version="1.0" encoding="UTF-8" standalone="no"?>
<svg
   height="16px"
   viewBox="0 0 16 16"
   width="16px"
   version="1.1"
   id="svg3"
   xml:space="preserve"
   xmlns="http://www.w3.org/2000/svg"
   xmlns:svg="http://www.w3.org/2000/svg"><defs
     id="defs3" /><path
     style="color:#000000;display:inline;overflow:visible;visibility:visible;fill:#000000;fill-opacity:1;fill-rule:evenodd;stroke:none;stroke-width:1;marker:none;enable-background:accumulate"
     d="M 3.1875,-2.5e-7 C 1.98238,-2.5e-7 1,1.0179498 1,2.2187498 V 13.78125 C 1,14.98205 1.98238,16 3.1875,16 h 9.625 C 14.01762,16 15,14.98205 15,13.78125 V 2.2187498 C 15,1.0179498 14.01762,-2.5e-7 12.8125,-2.5e-7 Z M 3,2.9999998 H 13 V 14 H 3 Z m 1,1 v 4.0000004 h 8.03125 V 3.9999998 Z M 6.474609,5.4296883 A 0.50004997,0.50004997 0 0 1 7,5.9375003 v 0.0625 h 2 v -0.0625 a 0.50004997,0.50004997 0 1 1 1,0 v 0.0625 c 0,0.54535 -0.45465,1 -1,1 H 7 c -0.54535,0 -1,-0.45465 -1,-1 v -0.0625 a 0.50004997,0.50004997 0 0 1 0.34375,-0.5 0.50004997,0.50004997 0 0 1 0.0625,0 0.50004997,0.50004997 0 0 1 0.06836,-0.0078 z M 4.03125,9.0000003 V 13 H 12.0625 V 9.0000003 Z M 6.474609,10.429688 A 0.50004997,0.50004997 0 0 1 7,10.9375 V 11 h 2 v -0.0625 a 0.50004997,0.50004997 0 1 1 1,0 V 11 c 0,0.54535 -0.45465,1 -1,1 H 7 C 6.45465,12 6,11.54535 6,11 v -0.0625 a 0.50004997,0.50004997 0 0 1 0.34375,-0.5 0.50004997,0.50004997 0 0 1 0.0625,0 0.50004997,0.50004997 0 0 1 0.06836,-0.0078 z"
     id="rect11668-7" /></svg>
