<?xml version="1.0" encoding="UTF-8" standalone="no"?>
<svg
   height="16px"
   viewBox="0 0 16 16"
   width="16px"
   version="1.1"
   id="svg3"
   xml:space="preserve"
   xmlns="http://www.w3.org/2000/svg"
   xmlns:svg="http://www.w3.org/2000/svg"><defs
     id="defs3" /><path
     id="path9"
     style="fill:#000000;fill-opacity:1;stroke-width:0.202574"
     d="M 10.014084,5.8660273e-5 10.1176,2.8086524 7.8617407,4.4844337 9.4008032,4.9238868 0.26213166,14.32623 a 1.1104578,0.56814123 45 0 0 -0.00586,0.0059 1.1104578,0.56814123 45 0 0 -0.005859,0.0059 1.1104578,0.56814123 45 0 1 0,0.002 1.1104578,0.56814123 45 0 0 0.388672,1.179688 1.1104578,0.56814123 45 0 0 1.18750004,0.382812 1.1104578,0.56814123 45 0 0 0.015625,-0.01563 L 10.978928,6.4844337 11.46135,7.9180274 13.029709,5.5859962 15.840256,5.5566993 14.105881,3.3438087 14.945725,0.66216804 12.3051,1.6270118 Z" /></svg>
