<?xml version="1.0" encoding="UTF-8" standalone="no"?>
<svg
   height="16px"
   viewBox="0 0 16 16"
   width="16px"
   version="1.1"
   id="svg204"
   xml:space="preserve"
   xmlns="http://www.w3.org/2000/svg"
   xmlns:svg="http://www.w3.org/2000/svg"><defs
     id="defs208" /><path
     id="rect6-4"
     style="fill:#000000;fill-opacity:1;stroke-width:0.265167"
     d="m 10.238014,2.0926026 v 0.629903 c 0,0.346639 -0.324727,0.625703 -0.728089,0.625703 h -3.01985 c -0.403362,0 -0.72809,-0.279064 -0.72809,-0.625703 V 2.0926026 Z M 10.680082,-4.0962475e-7 V 0.84196659 c 0,0.46334101 -0.38887,0.83635501 -0.871906,0.83635501 H 6.191824 c -0.483038,0 -0.871906,-0.373014 -0.871906,-0.83635501 V -4.0962475e-7 Z M 10.048759,12.412587 11.770336,8.9460826 11.464586,8.3071796 c -0.579797,-1.211561 -0.955236,-2.437517 -1.1275,-3.681732 -0.0473,-0.341657 -0.0961,-0.674192 -0.108438,-0.738967 l -0.02243,-0.117772 H 7.989394 5.772569 l -0.03669,0.379488 c -0.128635,1.330379 -0.545536,2.775826 -1.190873,4.128893 l -0.315342,0.661157 1.741898,3.5132124 c 1.356402,2.735715 1.71621,3.538359 1.839176,3.54816 0.130304,0.01039 0.09437,-0.169514 0.09437,-3.26875 V 9.4970676 l -0.154439,-0.05829 c -0.191035,-0.07211 -0.368534,-0.35236 -0.368796,-0.582289 -4.33e-4,-0.47419 0.475318,-0.780494 0.888068,-0.571641 0.167086,0.08455 0.367973,0.383659 0.367973,0.5479 0,0.229167 -0.16068,0.484079 -0.373605,0.592705 l -0.202171,0.103139 v 3.1814024 c 0,3.271613 -0.0519,3.419058 0.195708,3.238438 0.04357,-0.03178 0.844045,-1.629264 1.790913,-3.53584 z" /></svg>
