<?xml version="1.0" encoding="UTF-8" standalone="no"?>
<svg
   width="16"
   height="16"
   version="1"
   id="svg566"
   xmlns="http://www.w3.org/2000/svg"
   xmlns:svg="http://www.w3.org/2000/svg">
  <defs
     id="defs570" />
  <g
     id="g4039"
     transform="matrix(0.48106175,0,0,0.48000998,-88.718766,-8.6263699)"
     style="display:inline" />
  <path
     id="path1412"
     clip-path="none"
     style="display:inline;stroke-width:0.00273755;enable-background:new"
     d="m 7.991586,2.4827225 c 0,0 -5.00092,-1.4e-5 -6.238581,0.336538 C 1.064172,3.0013285 0.526539,3.5308565 0.330529,4.2149945 1.12e-4,5.4287875 0,7.9890325 0,7.9890325 c 0,0 1.12e-4,2.5765555 0.330529,3.8013825 0.19601,0.667586 0.733643,1.208147 1.422476,1.395734 1.237661,0.331035 6.238581,0.331129 6.238581,0.331129 0,0 5.012154,-9.4e-5 6.255409,-0.331129 0.700028,-0.187587 1.226585,-0.728148 1.411358,-1.395734 C 15.999981,10.565588 16,7.9890325 16,7.9890325 c 0,0 -1.9e-5,-2.560245 -0.341647,-3.774038 C 15.47358,3.5308565 14.947023,3.0013285 14.246995,2.8192605 13.00374,2.4827085 7.991587,2.4827225 7.991586,2.4827225 Z m -1.646634,3.172476 4.137921,2.344651 -4.137921,2.3449525 z" />
</svg>
