<?xml version="1.0" encoding="UTF-8" standalone="no"?>
<svg
   width="16"
   height="16"
   version="1"
   id="svg566"
   xmlns="http://www.w3.org/2000/svg"
   xmlns:svg="http://www.w3.org/2000/svg">
  <defs
     id="defs570" />
  <path
     id="path5"
     d="M 6.1548905,3.4790752e-5 C 3.6655637,4.04328e-4 1.8176138,0.05039137 1.5496689,0.12480518 0.1314813,0.51867383 -0.39065576,2.2877622 0.58957294,3.377526 1.1763391,4.0298582 1.5489238,4.0879657 4.9570021,4.0573009 L 7.8129616,4.0315887 A 0.61542599,0.61542599 0 0 0 8.2073304,3.8839729 L 8.7106842,3.4536558 C 9.4595082,2.8136842 10.530922,1.3056374 10.662598,0.70612458 10.816539,0.00523371 10.778153,-7.1412932e-4 6.1548905,3.2717612e-5 Z M 13.961374,0.09073416 C 13.399421,0.10346842 12.829798,0.31315775 12.506896,0.67863474 12.398606,0.80120346 12.120427,1.2805866 11.888684,1.7437639 10.855268,3.8092222 9.5865906,5.0101887 7.2312991,6.152549 5.287743,7.0952095 4.2963259,7.7596951 3.1484207,8.8890356 1.7736396,10.241583 0.47884601,12.219068 0.12667722,13.503656 c -0.25358911,0.925001 0.2942737,2.090145 1.26908548,2.31565 0.5851491,0.135364 0.6890064,0.135955 1.3012759,0.0063 0.6533275,-0.232972 0.8909293,-0.48812 1.4058393,-1.509897 C 5.2046973,12.129279 6.3754835,11.034172 8.9912407,9.7440899 10.883013,8.8110752 12.301432,7.8182297 13.251759,6.7613516 14.772667,5.0699164 15.943592,2.991927 15.928798,2.0111519 15.918386,1.3203639 15.484043,0.5865018 14.909722,0.28951048 14.633028,0.14642596 14.298546,0.08308375 13.961374,0.09072379 Z M 7.8627595,12.077431 7.314714,12.545439 C 6.5657386,13.185221 5.4942993,14.693416 5.3625637,15.293203 5.2089139,15.992768 5.2543173,16 9.7868575,16 c 2.6665025,0 4.2635755,-0.04782 4.6223745,-0.138165 1.765746,-0.44462 2.083023,-2.723891 0.508245,-3.651467 -0.381384,-0.224642 -0.624851,-0.240612 -3.668622,-0.240612 H 8.1546566 a 0.44949178,0.44949178 0 0 0 -0.2918971,0.107675 z"
     style="display:inline;fill:#000000;fill-opacity:1;stroke-width:0.120305;enable-background:new" />
</svg>
