<?xml version="1.0" encoding="UTF-8" standalone="no"?>
<svg
   height="16px"
   viewBox="0 0 16 16"
   width="16px"
   version="1.1"
   id="svg204"
   xml:space="preserve"
   xmlns="http://www.w3.org/2000/svg"
   xmlns:svg="http://www.w3.org/2000/svg"><defs
     id="defs208" /><path
     id="path5-2"
     style="fill:#000000;stroke-width:0px"
     class="i"
     d="m 1.9996145,16 c -0.255079,0 -0.514219,-0.04908 -0.764519,-0.152747 -1.02045,-0.422673 -1.505041,-1.592559 -1.082368,-2.612941 0.650069,-1.569349 1.581807,-2.976291 2.769443,-4.1817102 1.230302,-1.2487683 2.681208,-2.2245382 4.312509,-2.9002418 2.242253,-0.9288024 3.9885835,-2.6751325 4.9172835,-4.9172835 0.422673,-1.02044999 1.592594,-1.50493899 2.612942,-1.08236799 1.020449,0.422673 1.50504,1.59255899 1.082368,2.61294099 C 15.197203,4.3349984 14.265466,5.7419407 13.07783,6.9473596 11.847527,8.196128 10.396622,9.1718978 8.7653205,9.8476015 6.5230675,10.776404 4.7767375,12.522734 3.8480375,14.764885 3.5290615,15.535001 2.7843055,16 1.9996145,16 Z M 10.003884,0.74659451 C 9.5045805,1.6251185 8.5292545,3.0618247 7.0844925,3.8711263 6.9341005,3.9553673 6.7647995,4.0002527 6.5924265,4.0002527 h -4.559088 c -1.096705,0 -2.014209,-0.8691714 -2.032504,-1.9657052 -0.01867,-1.12015399 0.883712,-2.03403998936 1.999599,-2.03403998936 h 7.568249 c 0.383011,0 0.6244705,0.41311599936 0.4352355,0.74612099936 z M 15.999235,14.033749 c -0.0183,1.096533 -0.9358,1.965705 -2.032504,1.965705 H 6.4313855 c -0.383011,0 -0.62447,-0.413116 -0.435235,-0.746121 0.499303,-0.878524 1.474629,-2.31523 2.919391,-3.124532 0.150391,-0.08424 0.319693,-0.129126 0.492066,-0.129126 h 4.5920275 c 1.115887,0 2.01827,0.913886 1.9996,2.03404 z" /></svg>
