<?xml version="1.0" encoding="UTF-8" standalone="no"?>
<svg
   width="16"
   height="16"
   version="1.1"
   id="svg6342"
   xmlns="http://www.w3.org/2000/svg"
   xmlns:svg="http://www.w3.org/2000/svg">
  <defs
     id="defs6338">
    <style
       id="current-color-scheme"
       type="text/css">
   .ColorScheme-Text { color:#dfdfdf; } .ColorScheme-Highlight { color:#4285f4; } .ColorScheme-NeutralText { color:#ff9800; } .ColorScheme-PositiveText { color:#4caf50; } .ColorScheme-NegativeText { color:#f44336; }
  </style>
  </defs>
  <g
     id="g1"
     transform="matrix(0.16,0,0,0.16,30.280157,25.92)">
    <path
       id="path18-5"
       style="-inkscape-font-specification:'Andale Mono';opacity:0.6;fill:#000000"
       d="m -127.375,-121.19141 -6.25977,6.51563 29.49805,28.263668 6.26172,-6.515626 z" />
    <path
       id="path16-5"
       style="fill:#000000;fill-opacity:1;stroke-linejoin:round"
       d="m -116,-96.894534 a 2.0835132,2.0835132 0 0 0 -2.08203,2.082031 v 12.128906 A 2.0835132,2.0835132 0 0 0 -116,-80.601566 h 24.41406 a 2.0835132,2.0835132 0 0 0 2.08398,-2.082031 v -12.128906 a 2.0835132,2.0835132 0 0 0 -2.08398,-2.082031 z" />
    <path
       id="path19-4"
       style="-inkscape-font-specification:'Andale Mono';opacity:0.6;fill:#000000"
       d="m -144.20703,-151.16407 0.0684,30.27149 h 9.05078 l -0.0703,-30.27149 z" />
    <path
       id="path14-7"
       style="fill:#000000;fill-opacity:1;stroke-linejoin:round"
       d="m -154.48047,-162 a 2.0835132,2.0835132 0 0 0 -2.08398,2.08398 v 13.24219 a 2.0835132,2.0835132 0 0 0 2.08398,2.08203 h 29.30078 a 2.0835132,2.0835132 0 0 0 2.08399,-2.08203 v -13.24219 A 2.0835132,2.0835132 0 0 0 -125.17969,-162 Z" />
    <path
       id="path17-6"
       style="-inkscape-font-specification:'Andale Mono';opacity:0.6;fill:#000000"
       d="m -130.74414,-106.92383 -8.79102,2.19922 8.03711,33.33008 8.79688,-2.11329 z" />
    <path
       id="path20-5"
       style="-inkscape-font-specification:'Andale Mono';opacity:0.6;fill:#000000"
       d="m -174.31445,-142.34961 -6.26172,6.51562 29.5664,28.26172 6.25977,-6.51562 z" />
    <path
       id="path13-6"
       style="fill:#000000;fill-opacity:1;stroke-linejoin:round"
       d="M -186.91602,-143.46485 A 2.0835132,2.0835132 0 0 0 -189,-141.38086 v 13.24219 a 2.0835132,2.0835132 0 0 0 2.08398,2.08203 h 29.30078 a 2.0835132,2.0835132 0 0 0 2.08399,-2.08203 v -13.24219 a 2.0835132,2.0835132 0 0 0 -2.08399,-2.08399 z" />
    <path
       id="path6-9"
       style="opacity:0.8;fill:#000000;fill-rule:evenodd"
       d="m -158.50977,-94.210938 -0.80859,0.658204 -0.008,0.0078 -0.79883,0.650391 c 0.0114,0.01399 0.0218,0.03076 0.0332,0.04492 l -6.26953,5.703125 c 0.0807,0.08051 0.15702,0.16582 0.22461,0.257812 0.65515,0.891654 0.58623,2.016291 0.2461,2.859375 -0.34013,0.843084 -0.90911,1.543376 -1.5,2.095703 -0.9201,0.860056 -2.09742,1.231073 -3.13282,1.583985 -1.0354,0.352912 -1.93903,0.725004 -2.19531,0.966797 -0.71507,0.674416 -4.08262,3.662387 -7.3457,6.554687 -3.26308,2.8923 -6.36719,5.634766 -6.36719,5.634766 4.96146,-3.00134 8.07151,-4.252716 10.27539,-4.353516 4.08909,-0.18703 9.4889,0.497451 13.37305,0.05078 2.52281,-0.29011 5.02285,-1.179572 6.9375,-2.919922 1.91464,-1.740342 3.17672,-4.34478 3.21875,-7.746093 0.003,-0.282611 0.10196,-0.752594 0.12695,-1.322266 0.025,-0.569672 -0.0983,-1.417553 -0.76367,-1.960937 -0.72084,-0.588678 -1.55413,-2.062992 -2.37695,-3.744141 -0.82283,-1.68115 -1.67343,-3.554124 -2.86915,-5.021485 z" />
    <path
       id="path8-3"
       style="opacity:1;fill:#000000;fill-rule:evenodd"
       d="m -170.26172,-100.48047 c -2.54839,0.0385 -4.6683,0.878656 -6.2832,2.224611 -1.98759,1.656559 -3.21267,4.011955 -3.84766,6.470703 -0.97765,3.78554 -1.04426,9.227644 -1.79297,13.251953 -0.40352,2.168957 -1.96861,5.278757 -5.625,9.779297 0,0 3.10182,-2.741943 6.36328,-5.632813 3.20657,-2.842216 6.52988,-5.799211 7.17579,-6.402343 0.56157,-0.900501 0.85902,-1.729904 1.18164,-2.580079 0.33336,-0.878456 0.73241,-1.823267 1.58593,-2.621093 0.74102,-0.692672 1.55688,-1.30764 2.47266,-1.63086 0.34342,-0.121205 0.71255,-0.204265 1.09961,-0.197265 0.12902,0.0023 0.25979,0.01483 0.39258,0.03906 0.50815,0.09274 1.01284,0.397926 1.35547,0.832031 l 6.00976,-5.447265 c 0.003,0.0031 0.005,0.0067 0.008,0.0098 l 0.76368,-0.708984 0.76367,-0.708984 c -1.26383,-1.359845 -2.6991,-2.262327 -3.91406,-3.078125 -1.21495,-0.815798 -2.18129,-1.541545 -2.71094,-2.41211 -0.44647,-0.733814 -1.27013,-0.973524 -1.83789,-1.027344 -0.56777,-0.0538 -1.04737,-0.0191 -1.32813,-0.0547 -0.63275,-0.0801 -1.24394,-0.11435 -1.83203,-0.10547 z" />
    <path
       id="path1-4"
       style="fill:#000000;fill-opacity:1;fill-rule:evenodd"
       d="m -95.625,-150.98047 c -0.47109,0.0117 -0.96599,0.10377 -1.50391,0.2207 -1.07584,0.23386 -2.32,0.64892 -3.70117,1.19141 -2.76234,1.08497 -6.05595,2.68086 -9.28711,4.35547 -3.23116,1.67461 -6.39644,3.42747 -8.86914,4.82226 -2.4727,1.39479 -4.33039,2.47045 -4.66992,2.64649 -1.09627,0.5684 -6.58784,3.75567 -12.79883,7.8125 -6.21099,4.05682 -12.97795,8.85444 -16.38086,12.70898 -3.22987,3.65855 -5.18989,5.9117 -6.47851,8.36719 -1.28862,2.45549 -1.82454,5.01917 -2.26758,9.083982 l -0.0449,0.410157 0.24609,0.328125 c 2.23013,2.96604 5.98109,7.915432 9.62305,10.867187 l 0.27148,0.222657 0.35156,0.0098 c 8.3645,0.262018 10.56387,-0.808085 18.87696,-6.046875 4.37478,-2.756922 10.1809,-8.644263 15.15234,-14.091793 4.97144,-5.44754 8.95609,-10.31387 9.6875,-11.30079 0.24605,-0.33199 1.53823,-1.95354 3.24023,-4.14062 1.70201,-2.18708 3.85127,-4.99208 5.95118,-7.875 2.0999,-2.88291 4.14915,-5.84043 5.6582,-8.36133 0.75452,-1.26045 1.37484,-2.40787 1.80469,-3.41211 0.42984,-1.00423 0.7255,-1.82461 0.60546,-2.72656 -0.19983,-1.50149 -0.95575,-2.38612 -1.39648,-2.83984 l 0.0117,-0.01 c 0,0 -0.12856,-0.12199 -0.15039,-0.14649 -0.0674,-0.0642 -0.25586,-0.28711 -0.25586,-0.28711 l -0.0195,0.0195 c -0.4025,-0.40107 -1.09257,-1.01947 -2.29297,-1.56836 -0.44469,-0.20334 -0.89219,-0.2715 -1.36328,-0.25976 z" />
    <path
       id="path4-5"
       style="fill:#000000;fill-opacity:1;fill-rule:evenodd"
       d="m -163.30664,-103.17774 c -0.58799,0.016 -1.1393,0.14255 -1.63867,0.39258 -0.99876,0.50007 -1.67099,1.41306 -2.15625,2.49609 -0.35286,0.78749 -0.11077,1.431406 0.17382,1.992192 0.24348,0.479747 0.5759,0.93412 1.10743,1.236328 -0.0432,-0.05442 -0.0856,-0.112571 -0.12891,-0.166016 l 0.41406,0.306641 c -0.10181,-0.04167 -0.19537,-0.08958 -0.28515,-0.140625 2.51956,3.176338 4.78099,8.003194 10.69921,13.259766 -0.0435,-0.110431 -0.0835,-0.223829 -0.11328,-0.345704 l 0.32422,0.53711 c -0.0731,-0.06409 -0.13892,-0.127438 -0.21094,-0.191406 0.21481,0.545104 0.58314,0.958715 0.99805,1.289062 0.49897,0.397271 1.07722,0.758638 1.91016,0.601563 1.18136,-0.222844 2.23205,-0.653989 2.95703,-1.501953 0.72497,-0.847965 0.99958,-2.019663 0.9043,-3.351563 -0.0713,-0.997586 -0.58927,-1.76028 -1.11329,-2.234375 -0.26201,-0.237048 -0.52641,-0.412041 -0.77343,-0.541016 -0.0893,-0.04663 -0.18915,-0.05791 -0.27149,-0.09375 -3.71863,-3.598112 -6.9197,-8.065525 -8.56054,-10.511714 0.009,0.13012 0.007,0.266335 -0.008,0.414058 l -0.16992,-0.677738 c 0.0525,0.0789 0.12152,0.17987 0.17774,0.26368 -0.0272,-0.40553 -0.16666,-0.75307 -0.42579,-1.21485 -0.34229,-0.60995 -0.98518,-1.26967 -1.94726,-1.55078 -0.64987,-0.18988 -1.2753,-0.28362 -1.86328,-0.26758 z" />
    <path
       id="path15-5"
       style="fill:#000000;fill-opacity:1;stroke-linejoin:round"
       d="m -140.80078,-78.292972 a 2.0835132,2.0835132 0 0 0 -2.08399,2.082031 V -64.08203 A 2.0835132,2.0835132 0 0 0 -140.80078,-62 h 24.41406 a 2.0835132,2.0835132 0 0 0 2.08203,-2.08203 v -12.128911 a 2.0835132,2.0835132 0 0 0 -2.08203,-2.082031 z" />
  </g>
</svg>
