<?xml version="1.0" encoding="UTF-8" standalone="no"?>
<svg
   height="16px"
   viewBox="0 0 16 16"
   width="16px"
   version="1.1"
   id="svg135"
   xmlns="http://www.w3.org/2000/svg"
   xmlns:svg="http://www.w3.org/2000/svg">
  <defs
     id="defs139" />
  <path
     id="rect17538-1"
     style="display:inline;fill:#000000;fill-opacity:1;stroke-width:0.0386645;stroke-linecap:round;stroke-linejoin:round;stroke-miterlimit:1.5;paint-order:stroke fill markers;enable-background:new"
     d="M 8.0019531 0 C 6.5081421 0.049009996 4.942559 0.096656125 3.609375 0.89257812 C 1.454882 2.0567062 0.0770975 4.5095063 0.0546875 7.0195312 C -0.0817725 8.2370382 0.050090625 9.4755356 0.27539062 10.671875 C 0.94152062 13.630238 3.6587575 15.908595 6.5859375 15.929688 C 7.9133295 16.064605 9.25933 16.00039 10.576172 15.794922 C 13.449831 15.241461 15.741144 12.515369 15.910156 9.4863281 C 16.028757 8.5023901 16.029746 7.5113318 15.912109 6.5273438 C 15.745639 3.4963277 13.451336 0.76685063 10.576172 0.21289062 C 9.728676 0.056529625 8.8605431 0.038165996 8.0019531 0 z M 9.1679688 5.46875 A 1.9418675 1.9418675 0 0 1 10.613281 6.1210938 A 1.9418675 1.9418675 0 0 1 12.060547 5.46875 A 1.991659 1.991659 0 0 1 14 7.4609375 L 14 10.523438 A 0.9958295 0.9958295 0 0 1 13.003906 9.5273438 L 13.003906 7.4121094 A 0.94852765 0.94852765 0 0 0 12.021484 6.4648438 A 0.96346499 0.96346499 0 0 0 11.125 7.4414062 L 11.125 10.523438 A 0.9958295 0.9958295 0 0 1 10.128906 9.5273438 L 10.128906 7.4121094 A 0.94852765 0.94852765 0 0 0 9.1328125 6.4648438 A 0.96346499 0.96346499 0 0 0 8.2246094 7.4414062 L 8.2246094 9.5351562 A 0.9958295 0.9958295 0 0 1 7.2285156 10.53125 L 7.2285156 7.4609375 A 1.991659 1.991659 0 0 1 9.1679688 5.46875 z M 2 5.5507812 L 5.6972656 5.5507812 A 0.7194868 0.7194868 0 0 1 6.3398438 5.9277344 A 0.69957023 0.69957023 0 0 1 6.2128906 6.7421875 L 3.4199219 9.5351562 L 5.734375 9.5351562 A 0.9958295 0.9958295 0 0 1 6.7304688 10.53125 L 2.7207031 10.53125 A 0.7194868 0.7194868 0 0 1 2.078125 10.154297 A 0.69957023 0.69957023 0 0 1 2.2050781 9.3398438 L 4.9882812 6.546875 L 2.9960938 6.546875 A 0.9958295 0.9958295 0 0 1 2 5.5507812 z " />
</svg>
