<?xml version="1.0" encoding="UTF-8" standalone="no"?>
<svg
   height="16px"
   viewBox="0 0 16 16"
   width="16px"
   version="1.1"
   id="svg135"
   xmlns="http://www.w3.org/2000/svg"
   xmlns:svg="http://www.w3.org/2000/svg">
  <defs
     id="defs139" />
  <path
     id="rect3375"
     style="fill:#000000;stroke-width:0.535941;stroke-linecap:square;stroke-linejoin:round;stroke-miterlimit:1.5;paint-order:stroke fill markers"
     d="m 7.728211,5.64684 5.533874,9.584838 1.2767,0.736221 c 0.03529,0.02 0.0751,0.0321 0.118632,0.0321 0.129411,0 0.235522,-0.106113 0.235522,-0.235521 V 15.64689 14.289242 L 9.902333,5.646839 H 9.833943 7.796249 Z" />
  <path
     id="rect2189"
     style="fill:#000000;fill-opacity:1;stroke-width:0.460613;stroke-linecap:square;stroke-linejoin:round;stroke-miterlimit:1.5;paint-order:stroke fill markers"
     d="m 6.097666,5.647015 -4.990605,8.642403 v 1.475234 c 0,0.12941 0.106111,0.235173 0.235521,0.235173 0.04353,0 0.08334,-0.01176 0.118633,-0.03175 l 1.276699,-0.736569 2.173773,-3.764501 c 0.921164,0.489406 1.971837,0.768322 3.088292,0.768322 3.638773,0 6.588309,-2.949537 6.588309,-6.588309 h -1.882423 c 0,2.598787 -2.107099,4.705885 -4.705886,4.705885 -0.772931,0 -1.50234,-0.187213 -2.145859,-0.517798 L 7.999979,6.11771 8.271788,5.647018 Z" />
  <path
     id="path2060"
     style="fill:#000000;stroke-width:0.430749;stroke-linecap:square;stroke-linejoin:round;stroke-miterlimit:1.5;paint-order:stroke fill markers"
     d="M 7.05885,0 V 1.411731 H 5.882292 c -0.38823,0 -0.705866,0.317635 -0.705866,0.705865 v 3.529328 l 2.324506,2.322412 c 0.128234,0.127057 0.303664,0.20691 0.498956,0.20691 0.195291,0 0.371899,-0.07868 0.498956,-0.20691 L 10.82335,5.646924 V 2.117596 c 0,-0.38823 -0.317636,-0.705865 -0.705866,-0.705865 H 8.940926 V 0 Z m 0.941038,3.058634 c 0.649403,0 1.176559,0.527156 1.176559,1.176559 0,0.649402 -0.527156,1.176558 -1.176559,1.176558 -0.649403,0 -1.176559,-0.527156 -1.176559,-1.176558 0,-0.649403 0.527156,-1.176559 1.176559,-1.176559 z" />
</svg>
