<?xml version="1.0" encoding="UTF-8" standalone="no"?>
<svg
   width="16"
   height="16"
   version="1.1"
   id="svg7339"
   xmlns="http://www.w3.org/2000/svg"
   xmlns:svg="http://www.w3.org/2000/svg">
  <defs
     id="defs7343" />
  <rect
     height="16"
     id="rect7580"
     rx="0"
     ry="0"
     style="display:inline;opacity:0;fill:#000000;fill-opacity:1;stroke:none"
     width="15.9375"
     x="-16.920727"
     y="1.86189" />
  <path
     id="path997"
     style="opacity:1;fill:#000000;stroke-width:0.241064"
     d="M 2.5371094,0.00273429 C 2.3099508,0.02983371 2.1462879,0.25511807 2.2265625,0.55742178 L 2.4648438,1.2761718 2.7558594,2.0183593 3.0976562,2.8523437 3.5390625,4.0300781 3.8925781,4.9011718 4.2851562,5.8875 4.3183594,5.9382812 4.2910156,5.95 4.0546875,6.1023437 3.671875,6.2703124 3.0097656,6.5789062 l -0.099609,0.1855469 0.013672,0.1777343 0.1347657,0.828125 0.1640624,1.0253907 0.013672,0.048828 0.1933594,0.4160156 0.3125,0.7890622 0.4121094,0.96875 0.2578125,0.488281 0.3515625,0.533203 0.4453125,0.53711 c 0.4251846,0.44997 0.8992056,0.86959 1.6171875,0.886719 l 0.6816406,-0.0098 -0.125,-0.197266 0.375,0.189453 0.328125,0.05469 h 0.6289063 c 0.019621,-0.196178 -0.3027344,-0.753906 -0.3027344,-0.753906 0,0 0.595222,0.73329 1.2539062,0.361328 l 0.5097654,-0.294922 0.375,-0.298828 -0.0078,-0.113281 -0.6269534,-0.431641 1.0566404,0.0078 0.230469,-0.08203 0.257813,-0.259765 0.574218,-0.609375 0.294922,-0.441407 L 12.634766,9.9871093 12.775391,9.621875 12.810547,9.4070312 12.787109,9.325 12.167969,9.1785156 11.183594,8.809375 10.335938,8.3582031 9.6289062,7.8757812 l -0.6347656,-0.625 -0.8203125,-0.9492188 -0.00391,0.00195 0.00391,-0.00586 L 7.4101562,5.2625 7.1503906,4.9167968 6.9902344,4.871875 h -0.1875 L 6.0332031,5.2078124 5.5,5.434375 5.0195312,4.2859374 4.3222656,2.8894531 3.7539062,1.6101562 3.0976562,0.35429678 C 2.9287004,0.08088807 2.7137882,-0.01834305 2.5371094,0.00273429 Z M 7.2597656,7.7175781 C 8.6778157,9.4691828 11.611328,10.459765 11.611328,10.459765 11.11804,10.631168 9.4023437,9.8191406 9.4023438,9.8191406 7.5916474,8.9792348 7.2597656,7.7175781 7.2597656,7.7175781 Z M 6.3886719,8.8816406 C 7.1788133,10.440802 9.7832031,11.85625 9.7832031,11.85625 9.2207626,11.850679 7.7851563,10.862109 7.7851562,10.862109 6.2617594,9.8315559 6.3886719,8.8816406 6.3886719,8.8816406 Z m -0.7089844,0.40625 C 5.7457782,10.965685 7.0664062,12.869922 7.0664062,12.869922 6.6924954,12.750998 6.0253906,11.498828 6.0253906,11.498828 5.3132086,10.187847 5.6796875,9.2878906 5.6796875,9.2878906 Z" />
  <path
     d="M 12.8125,16 C 14.0141,16 15,15.01242 15,13.8125 V 2.1875 C 15,0.98758 14.0141,0 12.8125,0 H 5.53125 L 7.5625,2 h 5.25 C 12.9363,2 13,2.0566 13,2.1875 v 11.625 C 13,13.9434 12.9363,14 12.8125,14 H 3.1875 C 3.0637,14 3,13.9434 3,13.8125 V 8.96875 L 1,8.53125 V 13.8125 C 1,15.01242 1.9859,16 3.1875,16 Z"
     id="path3908-6"
     style="color:#000000;font-style:normal;font-variant:normal;font-weight:normal;font-stretch:normal;font-size:medium;line-height:normal;font-family:Sans;-inkscape-font-specification:Sans;text-indent:0;text-align:start;text-decoration:none;text-decoration-line:none;letter-spacing:normal;word-spacing:normal;text-transform:none;writing-mode:lr-tb;direction:ltr;text-anchor:start;display:inline;overflow:visible;visibility:visible;fill:#000000;fill-opacity:1;fill-rule:nonzero;stroke:none;stroke-width:3;marker:none;enable-background:accumulate" />
</svg>
