<?xml version="1.0" encoding="UTF-8" standalone="no"?>
<svg
   width="16"
   height="16"
   version="1.1"
   id="svg12"
   xml:space="preserve"
   xmlns="http://www.w3.org/2000/svg"
   xmlns:svg="http://www.w3.org/2000/svg"><defs
     id="defs16" /><path
     style="fill:#000000;stroke-width:0.399997"
     d="m 8.9028759,14.597559 c 0,0 0.9815932,-0.646794 1.8555831,-1.271989 0.491594,-0.351997 0.5692,-0.441597 0.488795,-0.565995 -0.06444,-0.0992 -1.6507822,-0.879193 -2.4087814,-1.184391 -0.7975899,-0.320797 -0.881586,-0.321197 -1.6551821,-0.0064 -0.6940009,0.281599 -2.254783,1.053193 -2.3859836,1.179591 -0.1351967,0.1304 -0.067229,0.249999 0.2735972,0.480396 0.7023978,0.474797 2.048784,1.388389 2.048784,1.388389 0.9151917,0.779993 0.8443984,0.780394 1.7831878,-0.0192 z M 5.2229035,11.807582 C 6.1748958,11.360386 6.3172923,11.267987 7.0452859,10.623593 7.6568836,10.081997 7.7700845,9.920798 7.6832804,9.7156001 7.6536707,9.6463998 7.1940904,9.2224043 6.6616918,8.7736077 5.4033067,7.713216 5.4557041,7.8628152 5.9344992,6.7120247 6.2188963,6.0284302 6.2932986,5.7996322 6.2920926,5.6100338 6.2902926,5.3240361 6.1844987,5.1092379 5.9708949,4.9608392 5.8841358,4.9004399 5.1237065,4.5940422 4.2813151,4.2796447 3.4385187,3.9652472 2.7537247,3.6868495 2.7597277,3.6616498 2.7729577,3.6032498 3.702522,3.5020511 4.3773081,3.4856513 l 0.5099978,-0.0128 0.9383935,0.3271973 c 0.8183976,0.2859977 0.9467903,0.3443972 1.0083947,0.4603963 0.03879,0.0732 0.070019,0.1715985 0.069209,0.2183982 -3.778e-4,0.0468 -0.1524042,0.7259943 -0.3371993,1.509188 C 6.2425031,7.3592198 6.2333052,7.4148194 6.3177063,7.4984186 6.450905,7.6316174 7.7596896,7.9400146 8.1680874,7.9088155 8.6348857,7.8732119 9.5880749,7.5888184 9.6844819,7.4936187 9.7620611,7.4160197 9.7473013,7.3288201 9.4304775,5.9880311 9.2452774,5.2048374 9.093278,4.525643 9.092882,4.4788434 9.092135,4.4320439 9.1236617,4.3332446 9.1624513,4.2596452 9.2240106,4.1436461 9.3448524,4.0868467 10.073647,3.8320487 11.249234,3.4208521 11.22524,3.424452 12.293232,3.5192514 c 0.497992,0.044 0.92519,0.098799 0.949589,0.1215988 0.02637,0.0248 -0.0036,0.06 -0.07281,0.085999 -0.06444,0.0244 -0.751591,0.2823979 -1.526789,0.5727955 -0.775189,0.290798 -1.490781,0.5811956 -1.590383,0.6455951 -0.2339973,0.1507988 -0.3471983,0.366797 -0.3488003,0.6631945 -9e-4,0.1875985 0.072449,0.4143966 0.3491963,1.0759913 0.192805,0.4611962 0.350799,0.8819929 0.350799,0.9347917 0,0.2139981 -0.159596,0.3867972 -1.0443857,1.1303912 -0.5084049,0.4275964 -0.9595972,0.8399929 -1.0027968,0.9167918 -0.0432,0.076796 -0.067589,0.194399 -0.054809,0.2607985 0.02241,0.1139992 0.6311995,0.7019942 1.2511942,1.2087902 0.2603945,0.212798 1.8375833,1.199589 2.0903823,1.239589 0.211596,0.0336 0.437593,-0.281997 0.807993,-0.588395 0.362796,-0.300797 0.579189,-0.601595 0.725996,-1.009991 0.137995,-0.383597 0.103193,-0.641595 -0.169603,-1.2627902 -0.207997,-0.4739955 -0.263194,-0.7343934 -0.193597,-0.9119922 0.01638,-0.040797 0.579594,-0.5735956 1.25159,-1.18399 1.464384,-1.3295891 1.813985,-1.5675872 1.894381,-1.8051854 0.08919,-0.2635976 0.02637,-1.0107915 -0.173995,-1.3603888 -0.478399,-0.8359935 -2.46638,-3.45277193 -2.635182,-3.45277193 -0.869589,0.13919879 -1.597187,0.44679633 -2.513576,0.58799523 -0.072,0 -0.378401,-0.074799 -0.6803927,-0.1667986 C 8.6664393,0.83007313 8.2480426,0.80007347 7.9980432,0.80007347 c -0.2499995,0 -0.6683872,0.0299994 -1.959181,0.42119663 C 5.7368613,1.3128693 5.4272644,1.3880687 5.3512692,1.3880687 4.4484794,1.2576698 3.7792823,0.90647263 2.8444888,0.80007347 2.6988883,0.89647275 1.4061055,2.6692581 0.87090798,3.4440517 0.24170641,4.3544443 0.06371523,4.87164 0.01251475,5.2184373 c -0.0716393,0.4851959 0.11039287,0.5667953 1.99077965,2.2707812 0.6323965,0.5727952 1.1627881,1.0747912 1.17879,1.1147904 0.070379,0.1795986 0.01476,0.4503968 -0.1903931,0.9247927 -0.2815981,0.6515944 -0.3067979,0.8323934 -0.1708003,1.2259904 0.1475985,0.427596 0.398399,0.773593 0.7767911,1.07199 0.3519954,0.277599 0.487993,0.555995 0.6959899,0.560395 0.073979,0.0016 0.492403,-0.374397 0.9291955,-0.579595 z"
     id="path8" /></svg>
