<?xml version="1.0" encoding="UTF-8" standalone="no"?>
<svg
   height="16px"
   viewBox="0 0 16 16"
   width="16px"
   version="1.1"
   id="svg135"
   xmlns="http://www.w3.org/2000/svg"
   xmlns:svg="http://www.w3.org/2000/svg">
  <defs
     id="defs139" />
  <path
     d="M 2.1875,1 C 0.980469,1 0,2.015625 0,3.21875 v 9.5625 C 0,13.984375 0.980469,15 2.1875,15 h 11.625 C 15.019531,15 16,13.984375 16,12.78125 V 3.21875 C 16,2.015625 15.019531,1 13.8125,1 Z m 0,2 h 11.625 C 13.933594,3 14,3.082031 14,3.21875 v 9.5625 C 14,12.917969 13.933594,13 13.8125,13 H 2.1875 C 2.066406,13 2,12.917969 2,12.78125 V 3.21875 C 2,3.082031 2.066406,3 2.1875,3 Z m 0,0"
     id="path1-6"
     style="fill:#000000" />
  <g
     id="text1">
    <path
       style="color:#000000;-inkscape-font-specification:'Cantarell Bold';fill:#000000;-inkscape-stroke:none"
       d="m 5.2323485,10.962806 c 1.326249,0 2.1339,-0.697131 2.1339,-1.7598307 0,-2.0233793 -2.873539,-1.3857598 -2.873539,-2.5334749 0,-0.4250797 0.382572,-0.6801275 1.0627,-0.6801275 0.425079,0 0.935175,0.093518 1.33475,0.2635494 L 7.1877155,5.4112645 C 6.7201275,5.190223 6.1335175,5.0712007 5.6064185,5.0712007 c -1.317747,0 -2.201913,0.7056323 -2.201913,1.7598299 0,1.9383634 2.865038,1.3687567 2.865038,2.5079702 0,0.4165784 -0.348566,0.6801282 -1.020192,0.6801282 -0.476089,0 -1.088204,-0.1190227 -1.640807,-0.3655692 l -0.297556,0.8501592 c 0.578108,0.280553 1.249734,0.459087 1.92136,0.459087 z M 4.9347925,12 h 0.977684 v -1.479277 h -0.977684 z m 0,-6.4867164 h 0.977684 V 4 h -0.977684 z"
       id="path6" />
    <path
       style="color:#000000;-inkscape-font-specification:'Cantarell Bold';fill:#000000;-inkscape-stroke:none"
       d="m 4.6855469,3.75 c 0.00229,0.3958333 0.00459,0.7916667 0.00688,1.1875 C 4.083807,5.1251895 3.4992822,5.525285 3.2780792,6.1466674 3.0042713,6.8388453 3.1775881,7.7270991 3.8082715,8.1663004 4.4022482,8.6200646 5.1848821,8.6689753 5.8239618,9.028356 6.1809095,9.2041815 6.0007415,9.7212324 5.6314908,9.7280006 4.9690495,9.8487059 4.2843981,9.6695699 3.675641,9.4099395 3.576614,9.3789833 3.4299282,9.2371805 3.4245337,9.4239977 3.2836735,9.8262848 3.1428133,10.228572 3.0019531,10.630859 c 0.5267686,0.272388 1.0944797,0.471633 1.6835938,0.551209 0,0.355977 0,0.711955 0,1.067932 0.4921875,0 0.984375,0 1.4765625,0 0,-0.389437 0,-0.778874 0,-1.168311 0.5412019,-0.170243 1.0597032,-0.511501 1.2837338,-1.05279 C 7.7842194,9.2874517 7.6337368,8.284252 6.9312946,7.806034 6.3418819,7.3648443 5.5718689,7.3208898 4.9375587,6.9758614 4.5838251,6.8081639 4.7596605,6.302684 5.1195945,6.2909819 5.7673228,6.1567099 6.445735,6.3132338 7.0371094,6.5878906 7.1907552,6.1523437 7.3444011,5.7167969 7.4980469,5.28125 7.0778966,5.0710381 6.629545,4.9127551 6.1621094,4.851562 c 0,-0.3671873 0,-0.7343747 0,-1.101562 -0.4921875,0 -0.984375,0 -1.4765625,0 z m 0.5,0.5 c 0.1588542,0 0.3177083,0 0.4765625,0 0,0.1940104 0,0.3880208 0,0.5820312 -0.1942083,-0.071649 -0.5550602,0.2927405 -0.4765627,-0.076256 1e-7,-0.1685918 1e-7,-0.3371837 2e-7,-0.5057755 z M 6.1621094,5.4394531 C 6.3647198,5.5034759 6.7749647,5.4648775 6.8400165,5.6445526 6.7755967,5.7373784 6.7904723,5.9903218 6.660095,5.949963 6.3829127,5.8467853 5.8767686,5.7685081 5.7125167,5.7636719 c 0.1498642,0 0.2997285,0 0.4495927,0 0,-0.1080729 0,-0.2161459 0,-0.3242188 z m -1.4765625,0.15625 c -0.043451,0.1639212 0.048072,0.1928692 0.1934429,0.1679688 0.1926805,0 0.3853609,0 0.5780414,0 C 5.0121369,5.7641952 4.4763316,5.8970756 4.3025811,6.3601304 4.1184079,6.7805091 4.3637026,7.281807 4.7728826,7.458907 5.4512267,7.8173644 6.3240169,7.8262178 6.8671761,8.4208125 7.209957,8.8474097 7.182332,9.492377 6.925894,9.9543102 6.8200644,10.235387 6.3524437,10.490119 6.1621094,10.373608 6.212971,10.20488 6.0075886,10.292396 5.9106336,10.271484 c -0.4083622,0 -0.8167245,0 -1.2250867,0 -0.02828,0.116155 0.088198,0.40126 -0.1353602,0.289636 C 4.285943,10.477391 3.7378136,10.503278 3.6620675,10.256971 3.7213997,10.172257 3.7092341,9.9370241 3.8191568,9.9588148 4.5123945,10.199979 5.3053123,10.430061 6.014921,10.121209 6.5251994,9.9107983 6.6955032,9.1734212 6.2990647,8.7768605 5.7689346,8.2771912 4.9847956,8.2609254 4.3644063,7.922538 3.9680278,7.7426418 3.6454873,7.3600615 3.655914,6.9073093 3.6256272,6.4359028 3.8440079,5.9156205 4.2767871,5.6966398 4.410469,5.6526865 4.5543932,5.6484208 4.6855469,5.5957031 Z m 0.9765625,5.4824219 c 0,0.223958 0,0.447917 0,0.671875 -0.1588542,0 -0.3177083,0 -0.4765625,0 0,-0.182943 0,-0.365885 0,-0.548828 0.1719283,0.05159 0.3127298,-0.104396 0.4765625,-0.123047 z"
       id="path7" />
  </g>
</svg>
