<?xml version="1.0" encoding="UTF-8" standalone="no"?>
<!-- Created with Inkscape (http://www.inkscape.org/) -->

<svg
   width="16"
   height="16"
   viewBox="0 0 4.2333332 4.2333333"
   version="1.1"
   id="svg2572"
   xmlns="http://www.w3.org/2000/svg"
   xmlns:svg="http://www.w3.org/2000/svg">
  <defs
     id="defs2569" />
  <path
     id="rect1711-61-3"
     style="display:inline;fill:#000000;fill-opacity:0.980392;stroke:none;stroke-width:0.0100934;stroke-linecap:butt;stroke-linejoin:miter;stroke-miterlimit:4;stroke-dasharray:none;stroke-dashoffset:0;stroke-opacity:1;marker:none;marker-start:none;marker-mid:none;marker-end:none;paint-order:normal;enable-background:new"
     d="M 0.32556158,0.11420493 C 0.14515678,0.11420493 -2.5e-8,0.2571197 -2.5e-8,0.43459881 V 3.7987345 c 0,0.177479 0.145156805,0.3203938 0.325561605,0.3203938 H 3.907255 c 0.1804046,0 0.3260783,-0.1429148 0.3260783,-0.3203938 V 0.43459881 c 0,-0.17747911 -0.1456737,-0.32039388 -0.3260783,-0.32039388 z M 2.732133,0.58446046 c 0.2225628,0 0.411254,0.0677114 0.5663736,0.19585367 L 3.1233235,1.0299113 C 2.9884369,0.93549059 2.8535574,0.88108317 2.725415,0.88108317 c -0.1281423,0 -0.1953369,0.0606878 -0.1953369,0.13487543 v 0.00723 c 0,0.101165 0.067183,0.1346116 0.3302124,0.2020549 0.3102393,0.080932 0.4857585,0.1891134 0.4857585,0.4588867 v 0.00672 c 0,0.3034949 -0.2291834,0.4718058 -0.5596558,0.4718058 C 2.5570859,2.1559187 2.3209843,2.0749259 2.1388875,1.9130615 L 2.3342244,1.6769002 C 2.469111,1.7915538 2.6177849,1.859318 2.7863932,1.859318 c 0.1348867,0 0.2222087,-0.053917 0.2222087,-0.1415934 v -0.00672 c 0,-0.087676 -0.053801,-0.1284104 -0.3033407,-0.1958536 C 2.3950217,1.4409609 2.1993489,1.35356 2.1993489,1.0500651 v -0.00672 c 0,-0.27651757 0.2225448,-0.45888664 0.5327841,-0.45888664 z M 0.59996337,0.6258016 H 1.1957927 c 0.4833465,0 0.8092529,0.32326758 0.8092529,0.7467244 0,0.4234666 -0.3259064,0.7580933 -0.8092529,0.7580933 L 0.59996337,2.1414713 Z M 0.93741048,0.9270752 V 1.8407145 H 1.1957927 c 0.2697728,0 0.4609537,-0.1785263 0.4609537,-0.4459676 0,-0.2674512 -0.179937,-0.45681965 -0.4609537,-0.45681965 z M 0.59996337,3.4173624 H 2.1177002 V 3.6757446 H 0.59996337 Z" />
</svg>
