<?xml version="1.0" encoding="UTF-8" standalone="no"?>
<svg
   height="16px"
   viewBox="0 0 16 16"
   width="16px"
   version="1.1"
   id="svg135"
   xmlns="http://www.w3.org/2000/svg"
   xmlns:svg="http://www.w3.org/2000/svg">
  <defs
     id="defs139" />
  <path
     id="path1014"
     style="fill:#000000;stroke-width:0.163985"
     d="m 0.4229025,10.642808 a 8.7221276,8.7221276 0 0 0 0.435902,0.815016 c 0.114617,-0.258374 0.225388,-0.498404 0.326326,-0.698243 l 0.319129,-0.632657 0.321527,0.345522 c 0.453921,0.489015 0.524147,0.430405 0.211153,-0.17676 -0.819358,-1.5589379 0.85239,-5.5304295 3.310455,-7.8606312 1.982836,-1.89533996 4.030802,-2.44197896 6.3577685,-1.70681596 0.180259,0.05743 -0.0031,-0.08147 -0.409508,-0.307931 C 10.692611,0.08357784 10.327262,0.00645984 9.3129025,4.0284197e-4 8.2510175,-0.00619716 7.9281495,0.06428284 7.1005995,0.48109484 5.8060185,1.1374898 4.3840675,2.2764288 3.6269815,3.2708668 l -0.616661,0.810218 -1.087756,0.0096 c -1.245745,0.01149 -1.289244,0.05714 -1.28691,1.3764904 0,0.5448075 0.139784,1.1521892 0.382314,1.6740233 0.454577,0.9845926 0.408275,1.8479 -0.143967,2.7241869 -0.127856,0.1991616 -0.284979,0.4731726 -0.451099,0.7774256 z m 5.052463,4.79812 a 8.7221276,8.7221276 0 0 0 1.29011,0.391112 8.7221276,8.7221276 0 0 0 1.701217,0.167962 8.7221276,8.7221276 0 0 0 1.7020165,-0.167962 8.7221276,8.7221276 0 0 0 1.636432,-0.495889 8.7221276,8.7221276 0 0 0 1.50766,-0.806218 8.7221276,8.7221276 0 0 0 0.692645,-0.568672 c -0.04282,-0.195021 -0.07438,-0.370195 -0.07438,-0.479092 0,-0.361017 0.298318,-1.223932 0.768627,-2.231498 C 15.395,9.7540909 15.473714,9.4653997 15.522708,8.1985577 l 0.05439,-1.399685 -0.331126,0.8302132 c -0.183537,0.4561941 -0.5363,1.0273309 -0.787023,1.2669149 l -0.453498,0.4367017 0.06239,-0.6550526 c 0.07538,-0.7909554 -0.0949,-1.7883975 -0.307932,-1.7883975 -0.08603,0 -0.156764,0.2180099 -0.156764,0.4854907 0,0.8040834 -0.632129,2.2532237 -1.190931,2.7241869 -0.449008,0.378248 -0.619917,0.423982 -1.288511,0.344723 C 10.222412,10.345193 8.6299065,9.5770761 7.4205365,8.6712514 6.9469495,8.3172899 6.5603835,8.122059 6.5615305,8.2377489 c 0.0016,0.1148693 0.149308,0.6774143 0.327926,1.2501187 0.485057,1.5425274 0.430837,2.1421714 -0.329526,3.5288054 -0.548969,0.995836 -0.88429,1.715573 -1.084556,2.424255 z M 14.12302,9.9805569 c 0.01148,-2.723e-4 0.02062,0.00303 0.02639,0.0088 0.09996,0.098459 -0.426076,1.6787361 -0.804619,2.4122571 -0.30808,0.599453 -0.658646,0.700938 -0.507886,0.149566 0.09554,-0.351171 0.09072,-0.352578 -0.09118,-0.04079 -0.106514,0.180509 -0.308243,0.41978 -0.4495,0.53268 l 0.0056,-0.0032 c -0.599771,0.479168 -1.0278,0.0624 -1.140544,-1.112549 l -0.07758,-0.815817 h 0.583068 c 0.765279,0 1.399355,-0.253109 1.949962,-0.778225 0.215082,-0.206333 0.425921,-0.3508155 0.506286,-0.3527201 z M 7.0982005,2.4270568 c -0.596097,-0.0046 -0.823519,0.404077 -0.609463,1.19893 0.149616,0.554654 0.138182,0.7547034 -0.05519,1.0533629 h 0.004 c -0.339215,0.5234746 -0.142491,0.4590874 0.634257,-0.2071534 0.36871,-0.3167105 1.060427,-0.6976585 1.535654,-0.8478095 l 0.865406,-0.272738 -0.919793,-0.464696 c -0.607142,-0.305839 -1.097215,-0.457108 -1.454873,-0.459896 z m 7.0712085,0.191957 c -0.778077,-0.02641 -2.394434,0.274868 -3.049713,0.595066 -1.1470955,0.557935 -0.753698,1.6487845 0.901397,2.4282532 h 0.0016 c 0.450643,0.2133284 0.93984,0.3886933 1.085356,0.3895123 0.770197,0.01641 1.785998,-1.4808134 1.785998,-2.6098125 0,-0.580909 -0.05461,-0.672075 -0.447899,-0.771027 -0.07169,-0.01805 -0.165584,-0.02822 -0.276738,-0.03199 z" />
</svg>
