<?xml version="1.0" encoding="UTF-8" standalone="no"?>
<svg
   width="16"
   height="16"
   version="1"
   id="svg566"
   xmlns="http://www.w3.org/2000/svg"
   xmlns:svg="http://www.w3.org/2000/svg">
  <defs
     id="defs570">
    <mask
       id="path-1-outside-1_4_8"
       maskUnits="userSpaceOnUse"
       x="8.06738"
       y="21"
       width="497"
       height="426"
       fill="#000000">
      <rect
         fill="#ffffff"
         x="8.06738"
         y="21"
         width="497"
         height="426"
         id="rect1" />
      <path
         fill-rule="evenodd"
         clip-rule="evenodd"
         d="M 46.1052,31 H 256.08 344.5 466.056 c 17.976,0 31.296,16.6993 27.299,34.2261 L 417.626,397.268 c -5.188,22.747 -25.418,38.882 -48.749,38.882 H 256.08 143.283 c -23.331,0 -43.5602,-16.135 -48.748,-38.882 L 18.8062,65.2261 C 14.8088,47.6993 28.1283,31 46.1052,31 Z"
         id="path1" />
    </mask>
    <linearGradient
       id="paint0_linear_4_8"
       x1="255.589"
       y1="57.431198"
       x2="255.589"
       y2="282.60999"
       gradientUnits="userSpaceOnUse"
       gradientTransform="matrix(0.20968485,0,0,0.21033812,-79.696153,51.5829)">
      <stop
         stop-color="#AFFAFF"
         id="stop12" />
      <stop
         offset="1"
         stop-color="#3DDBE6"
         id="stop13" />
    </linearGradient>
  </defs>
  <path
     d="M 11.49813,5.6182639 C 11.068883,6.1349037 9.7688588,3.4869545 8.0857867,3.4869545 c -1.6830735,0 -2.6826399,2.4972301 -3.1977193,2.2604586 C 3.5574983,4.8007312 5.8753094,1.2701727 8.0643283,1.420281 11.49813,1.8292872 11.669793,5.3383525 11.49813,5.6182639 Z"
     fill="#ffffff"
     fill-opacity="0.77"
     id="path10"
     style="opacity:0.3;fill:#000000;stroke-width:0.0450551" />
  <path
     id="path12"
     style="stroke-width:0.0450551"
     d="m 8.0184887,9.727595 h 1.5744777 v 4.693024 c 0,0.872271 -0.7049153,1.579382 -1.5744777,1.579382 v 0 z m -1.5744763,0 h 1.5744763 v 6.272406 0 c -0.8695611,0 -1.5744763,-0.707111 -1.5744763,-1.579382 z M 13.064825,5.0805966 c 0,2.8059782 -2.267562,5.0806524 -5.0648245,5.0806524 -2.797218,0 -5.0648261,-2.2746742 -5.0648261,-5.0806524 C 2.9351744,2.2746645 5.2027825,2.4033491e-7 8.0000005,2.4033491e-7 10.797263,2.4033491e-7 13.064825,2.2746645 13.064825,5.0805966 Z m -9.5518625,0 c 0,2.4858595 2.0088999,4.5010624 4.487038,4.5010624 2.4781385,0 4.4870825,-2.0152029 4.4870825,-4.5010624 0,-2.485858 -2.008944,-4.50103029 -4.4870825,-4.50103029 -2.4781381,0 -4.487038,2.01517229 -4.487038,4.50103029 z" />
</svg>
