<?xml version="1.0" encoding="UTF-8"?>
<svg height="16px" viewBox="0 0 16 16" width="16px" xmlns="http://www.w3.org/2000/svg">
    <path d="m 13.554688 2.84375 c -1.035157 -0.484375 -2.144532 -0.835938 -3.300782 -1.035156 c -0.144531 0.253906 -0.308594 0.601562 -0.425781 0.875 c -1.230469 -0.183594 -2.449219 -0.183594 -3.65625 0 c -0.113281 -0.273438 -0.285156 -0.621094 -0.429687 -0.875 c -1.15625 0.199218 -2.265626 0.550781 -3.300782 1.039062 c -2.089844 3.15625 -2.65625 6.234375 -2.3749998 9.269532 c 1.3867188 1.035156 2.7304688 1.664062 4.0507818 2.074218 c 0.324218 -0.449218 0.617187 -0.925781 0.867187 -1.429687 c -0.476563 -0.179688 -0.933594 -0.402344 -1.367187 -0.664063 c 0.117187 -0.082031 0.226562 -0.171875 0.335937 -0.261718 c 2.632813 1.230468 5.492187 1.230468 8.09375 0 c 0.109375 0.089843 0.222656 0.179687 0.335937 0.261718 c -0.433593 0.261719 -0.890624 0.484375 -1.367187 0.667969 c 0.25 0.5 0.539063 0.980469 0.867187 1.425781 c 1.320313 -0.410156 2.664063 -1.039062 4.050782 -2.074218 c 0.332031 -3.519532 -0.570313 -6.566407 -2.378906 -9.273438 z m -8.210938 7.40625 c -0.792969 0 -1.441406 -0.738281 -1.441406 -1.636719 c 0 -0.898437 0.636718 -1.636719 1.441406 -1.636719 c 0.800781 0 1.449219 0.738282 1.4375 1.636719 c 0 0.898438 -0.636719 1.636719 -1.4375 1.636719 z m 5.3125 0 c -0.789062 0 -1.4375 -0.738281 -1.4375 -1.636719 c 0 -0.898437 0.636719 -1.636719 1.4375 -1.636719 c 0.804688 0 1.453125 0.738282 1.441406 1.636719 c 0 0.898438 -0.636718 1.636719 -1.441406 1.636719 z m 0 0" fill="#241f31"/>
</svg>
