<?xml version="1.0" encoding="UTF-8" standalone="no"?>
<svg
   height="16px"
   viewBox="0 0 16 16"
   width="16px"
   version="1.1"
   id="svg4"
   xmlns="http://www.w3.org/2000/svg"
   xmlns:svg="http://www.w3.org/2000/svg">
  <defs
     id="defs8" />
  <path
     d="M 13.553621,2.8444479 C 12.518604,2.3601384 11.409379,2.008623 10.253286,1.809432 10.108774,2.0633036 9.9447332,2.4109126 9.827562,2.6843135 8.5972596,2.5007444 7.3786746,2.5007444 6.171807,2.6843135 6.0585413,2.4109126 5.8866896,2.0633036 5.7421782,1.809432 4.5860847,2.008623 3.4768589,2.3601384 2.441843,2.8483533 0.35228188,6.0041761 -0.21404744,9.0818844 0.06716469,12.11663 1.4536958,13.151646 2.7972639,13.780467 4.1173981,14.190568 4.4415722,13.741411 4.7345016,13.264912 4.9844677,12.761074 4.5079693,12.581411 4.0510001,12.358785 3.6174658,12.097101 c 0.1171712,-0.08202 0.2265314,-0.171852 0.3358915,-0.261682 2.6324566,1.230301 5.4914436,1.230301 8.0926547,0 0.10936,0.08983 0.222626,0.179662 0.335892,0.261682 -0.433535,0.261684 -0.890504,0.48431 -1.367002,0.667879 0.249966,0.499932 0.53899,0.980336 0.867069,1.425588 1.320135,-0.410101 2.663703,-1.038922 4.050234,-2.073938 C 16.264191,8.5975749 15.361969,5.5511124 13.553621,2.8444479 Z M 5.3437941,10.249695 c -0.7928617,0 -1.4412109,-0.7381808 -1.4412109,-1.6364972 0,-0.8983153 0.6366318,-1.6364974 1.4412109,-1.6364974 0.8006726,0 1.4490228,0.7381821 1.4373054,1.6364974 0,0.8983164 -0.6366328,1.6364972 -1.4373054,1.6364972 z m 5.3117809,0 c -0.7889553,0 -1.4373055,-0.7381808 -1.4373055,-1.6364972 0,-0.8983153 0.6366328,-1.6364974 1.4373055,-1.6364974 0.804579,0 1.452929,0.7381821 1.441211,1.6364974 0,0.8983164 -0.636632,1.6364972 -1.441211,1.6364972 z m 0,0"
     fill="#241f31"
     id="path2"
     style="fill:#000000;stroke-width:0.999865" />
</svg>
