<?xml version="1.0" encoding="UTF-8" standalone="no"?>
<svg
   width="16"
   height="16"
   version="1"
   id="svg566"
   xmlns="http://www.w3.org/2000/svg"
   xmlns:svg="http://www.w3.org/2000/svg">
  <defs
     id="defs570" />
  <path
     class="st5"
     d="m 8.3375511,9.815194 v 4.486162 c 0.1959967,-0.04356 0.3702164,-0.08711 0.5444375,-0.195997 l 3.7239504,-2.134194 c 0.544436,-0.304885 0.871098,-0.892877 0.871098,-1.524424 v -4.24661 c 0,-0.17422 -0.02178,-0.34844 -0.08711,-0.500882 L 9.3610927,8.02944 C 8.5117704,8.617432 8.3375511,9.161869 8.3375511,9.815194 Z"
     id="path12879"
     style="display:inline;fill:#000000;fill-opacity:0.6;stroke-width:0.217775;enable-background:new" />
  <path
     class="st6"
     d="m 14.870796,4.828149 -1.480869,0.849322 c 0.04356,0.152443 0.08711,0.326663 0.08711,0.500882 v 4.268388 c 0,0.631547 -0.348439,1.219539 -0.871098,1.524424 L 8.8819886,14.105359 C 8.7077675,14.192469 8.5335478,14.2578 8.3375511,14.301356 V 16 c 0.261329,-0.04356 0.52266,-0.130665 0.7404347,-0.26133 l 4.8346022,-2.765741 c 0.675101,-0.391995 1.088874,-1.110652 1.088874,-1.894641 V 5.546806 c 0,-0.239552 -0.04355,-0.479104 -0.130666,-0.718657 z"
     id="path12881"
     style="display:inline;fill:#000000;stroke-width:0.217775;enable-background:new" />
  <path
     class="st5"
     d="M 7.9891111,7.829006 C 8.2068859,7.480566 8.5335478,7.153904 9.0126533,6.870797 L 13.085043,4.540606 C 12.954378,4.366386 12.780158,4.192166 12.605939,4.083279 L 8.8819886,1.949085 C 8.3375511,1.6442 7.6624489,1.6442 7.1180119,1.949085 L 3.4158386,4.083279 C 3.2198416,4.192166 3.0674001,4.344608 2.9149571,4.518828 l 4.0506118,2.351969 c 0.4791052,0.304885 0.8057674,0.609769 1.0235422,0.958209 z"
     id="path12883"
     style="display:inline;fill:#000000;fill-opacity:0.6;stroke-width:0.217775;enable-background:new" />
  <path
     style="display:inline;fill:#000000;stroke-width:0.217775;enable-background:new"
     d="M 7.1180119,14.105359 3.4158386,11.971165 C 2.8714031,11.66628 2.5447394,11.078288 2.5447394,10.446741 V 6.178353 c 0,-0.174219 0.021778,-0.326662 0.065332,-0.479104 L 1.1292033,4.849927 C 1.0420937,5.089479 0.9985381,5.307254 0.9985381,5.546806 v 5.553259 c 0,0.78399 0.4137718,1.502647 1.0888741,1.872864 l 4.812825,2.765741 C 7.1180121,15.869335 7.3793409,15.956444 7.6406728,16 V 14.301356 C 7.4664506,14.279576 7.2922313,14.214246 7.1180119,14.105359 Z"
     id="path13804" />
  <path
     style="display:inline;fill:#000000;stroke-width:0.217775;enable-background:new"
     d="M 3.4158386,4.083279 7.1180119,1.949085 c 0.544437,-0.304885 1.2195392,-0.304885 1.7639767,0 l 3.7239504,2.134194 c 0.195997,0.108887 0.348439,0.261329 0.479104,0.435549 L 14.565911,3.669506 C 14.391692,3.429954 14.173917,3.233957 13.912588,3.103292 L 9.0779858,0.293996 c -0.6751029,-0.391995 -1.502648,-0.391995 -2.1777488,0 L 2.1091897,3.081514 C 1.8478608,3.233957 1.630086,3.429954 1.4558653,3.669506 L 2.9367349,4.518828 C 3.0456223,4.344608 3.2198416,4.192166 3.4158386,4.083279 Z"
     id="path12885" />
  <path
     d="M 6.6171304,8.007662 2.6100712,5.699249 c -0.043554,0.152442 -0.065332,0.326662 -0.065332,0.479104 v 4.268388 c 0,0.631547 0.3266637,1.219539 0.8710992,1.524424 l 3.7021733,2.134194 c 0.1742192,0.08711 0.3484385,0.152441 0.544437,0.195997 V 9.815194 C 7.6406727,9.161869 7.4664502,8.617432 6.6171304,8.007662 Z"
     id="path12887"
     style="display:inline;fill:#000000;fill-opacity:0.6;stroke-width:0.217775;enable-background:new" />
</svg>
