<?xml version="1.0" encoding="UTF-8" standalone="no"?>
<svg
   height="16px"
   viewBox="0 0 16 16"
   width="16px"
   version="1.1"
   id="svg135"
   xmlns="http://www.w3.org/2000/svg"
   xmlns:svg="http://www.w3.org/2000/svg">
  <defs
     id="defs139" />
  <path
     id="path1"
     style="fill:#000000;fill-opacity:1;stroke-width:1"
     d="M -2e-7,2.0000001 V 3 4 H 0.99999974 1.9999997 V 3 2.0000001 H 0.99999974 Z m 1.9999999,0 h 0.9999999 1 V 1.0000002 2.3e-7 h -1 -0.9999999 V 1.0000002 Z M 5.9999994,16 V 15 13.999999 H 4.9999995 3.9999996 V 15 16 H 4.9999995 Z M 1.9999997,16 V 15 13.999999 H 0.99999974 -2e-7 V 14.72 c 0,0.04432 0.002208,0.08812 0.00656,0.13125 0.004352,0.04313 0.01088,0.08576 0.0193744,0.127499 0.008496,0.04174 0.0191328,0.08268 0.0315632,0.122813 0.012432,0.04013 0.02666239,0.07919 0.04281119,0.1175 0.0161504,0.03831 0.0340912,0.07591 0.0537504,0.112188 0.0196592,0.03628 0.0411056,0.07127 0.0640624,0.105312 0.0229584,0.03404 0.0473936,0.06685 0.0734384,0.09844 0.0260432,0.03158 0.0535792,0.06202 0.0824992,0.09094 0.02892,0.02892 0.0593536,0.05646 0.0909376,0.0825 0.031584,0.02604 0.0644,0.05048 0.0984368,0.07344 0.0340384,0.02296 0.0690336,0.0444 0.1053136,0.06406 0.0362784,0.01966 0.0738768,0.0376 0.11218719,0.05375 0.0383104,0.01615 0.0773712,0.03038 0.11749919,0.04281 0.0401296,0.01243 0.0810752,0.02307 0.12281273,0.03156 0.041738,0.0085 0.084366,0.01502 0.1275008,0.01938 C 1.1918845,15.99779 1.2356797,16 1.2799997,16 Z M -2e-7,11.999999 H 0.99999974 1.9999997 V 11 9.9999996 H 0.99999974 -2e-7 V 11 Z m 0,-3.9999993 H 0.99999974 1.9999997 V 6.9999998 5.9999999 H 0.99999974 -2e-7 V 6.9999998 Z M 1.9999997,5.9999999 h 0.9999999 1 v -1 V 4 h -1 -0.9999999 V 4.9999999 Z M 3.9999996,4 H 4.9999995 5.9999994 V 3 2.0000001 H 4.9999995 3.9999996 V 3 Z m 0,1.9999999 V 6.9999998 7.9999997 H 4.9999995 5.9999994 V 6.9999998 5.9999999 H 4.9999995 Z m 0,1.9999998 h -1 -0.9999999 v 1 0.9999999 h 0.9999999 1 V 8.9999997 Z m 0,1.9999999 V 11 11.999999 H 4.9999995 5.9999994 V 11 9.9999996 H 4.9999995 Z m 0,1.9999994 h -1 -0.9999999 v 1 1 h 0.9999999 1 v -1 z" />
  <path
     id="path2"
     style="fill:#000000;stroke-width:1;stroke-dasharray:8.00001, 8.00001"
     d="M 6,2.2636719 V 4.0117188 C 6.123317,3.9183458 6.2507277,3.830468 6.3867188,3.7519531 c 1.1602508,-0.6698683 2.5897507,-0.6698683 3.7500002,0 1.160235,0.6698684 1.874988,1.9083177 1.875,3.2480469 h -0.75 c -0.4155,0 -0.75,0.334501 -0.75,0.75 v 2.250006 c 0,0.415499 0.375,0.75 0.75,0.75 h 0.75 c 0,0.874992 -0.325376,1.107016 -0.708985,1.298828 -0.383616,0.191805 -0.791015,0.201172 -0.791015,0.201172 H 7.5117188 a 0.74999887,0.74999887 0 0 0 -0.75,0.75 0.74999887,0.74999887 0 0 0 0.75,0.75 h 3.0000002 c 0,0 0.719557,0.0094 1.460937,-0.361328 0.741381,-0.370695 1.539063,-1.263678 1.539063,-2.638672 V 9.25 8.5 7.75 7 c 8.6e-5,-1.8757228 -1.000574,-3.6090098 -2.625,-4.546875 C 10.088603,1.9924237 9.183262,1.749925 8.2617188,1.75 7.47694,1.7499361 6.7050659,1.926954 6,2.2636719 Z" />
</svg>
