<?xml version="1.0" encoding="UTF-8" standalone="no"?>
<svg
   width="16"
   height="16"
   version="1.1"
   id="svg10862"
   xmlns="http://www.w3.org/2000/svg"
   xmlns:svg="http://www.w3.org/2000/svg">
  <defs
     id="defs10866" />
  <path
     style="opacity:0.35;fill:#000000;stroke-width:0.875;fill-opacity:1"
     d="M 8,4.5 7.731725,4.5119875 C 7.2272875,4.5518 6.73755,4.7004625 6.2961125,4.9477375 c 0.2466625,0.194425 0.525,0.418775 0.5383875,0.430675 0.00131,0.00105 0.0021,7e-4 0.00341,0.00175 C 7.3438375,5.7770625 7.973225,6.0183 8.1264375,6.0603 8.2807,6.1020375 8.3999625,6.2245375 8.4375,6.37985 8.4780125,6.547675 8.4185125,6.849375 8.2597875,7.044675 8.100975,7.239975 7.872775,7.4224125 7.480425,7.68045 7.4127875,7.7249 7.334125,7.74975 7.2531875,7.7522 6.4821375,7.776875 6.0735125,7.913375 5.79885,8.08715 5.5098375,8.2811375 5.4183125,8.4008375 5.3938125,8.475125 c -0.02485,0.074987 -0.022488,0.2202375 0.08715,0.54005 0.149275,0.435225 0.4090625,0.775075 0.95165,1.142575 0.5425875,0.3675 1.20435,0.46725 1.7502625,0.46725 1.24215,0 2.200625,-1.107925 2.2015,-2.3737875 C 10.382625,7.29965 9.834,6.439 8.9723875,6.0346625 8.5565875,5.8414625 8.6801375,5.220125 9.1382,5.2007 L 9.3090875,5.19387 C 9.680875,5.19387 9.98975,5.3670325 10.32225,5.4809575 9.69925,4.8996125 8.91875,4.5 8,4.5 Z"
     id="path10858" />
  <path
     style="fill:#000000;stroke-width:0.875"
     d="M 10.2015,1 C 8.7219625,2.005375 8.0784875,3.0218625 7.80855,4.0813125 c 0,0 0.1259125,-0.018813 0.19145,-0.018813 1.87775,0 3.450125,1.3271125 3.840375,3.0898 -0.49,-0.9015125 -1.43325,-1.520925 -2.5312875,-1.520925 L 9.158675,5.6382 c 1.01395,0.475825 1.66145,1.4931875 1.6632,2.6130125 C 10.821,9.744575 9.6835875,11.009125 8.211925,11.154375 7.5585625,11.170125 6.8277625,10.954875 6.3319875,10.61625 5.600925,10.121875 5.249,9.6867375 5.06735,9.1570125 4.826375,8.4538625 4.90565,8.1568875 5.5612875,7.7197375 5.9174125,7.4936375 6.4180875,7.34095 7.2395375,7.3147 7.98985,6.8212 8.0480375,6.63185 8.0119875,6.4824 h -0.00175 C 7.7764375,6.41835 7.134975,6.1709875 6.564475,5.7219375 c 0,0 -0.4941125,-0.437675 -0.839125,-0.67165 C 5.591475,4.606225 5.487,4.115525 5.6620875,3.1823375 4.988075,3.403975 4.4402375,3.988125 3.9770125,4.508575 L 3.94455,4.506825 C 3.6660375,3.97045 3.689925,2.6303875 3.689925,2.6303875 2.232175,3.75765 1,5.5924375 1,8.0819875 1,11.9025 4.1339875,15 8,15 11.86575,15 15,11.9025 15,8.0819875 15,6.3032 14.320125,4.681475 13.203625,3.455775 c 0,0 -0.104125,-0.101675 -0.170625,-0.076913 0.3955,0.655988 0.637875,1.412163 0.706125,2.216638 L 13.31475,4.9853625 C 11.906875,3.1814625 10.620625,2.6573375 10.2015,1 Z"
     id="path10860" />
</svg>
