<?xml version="1.0" encoding="UTF-8" standalone="no"?>
<svg
   height="16px"
   viewBox="0 0 16 16"
   width="16px"
   version="1.1"
   id="svg135"
   xmlns="http://www.w3.org/2000/svg"
   xmlns:svg="http://www.w3.org/2000/svg">
  <defs
     id="defs139" />
  <path
     style="display:inline;fill:#000000;fill-opacity:1;stroke:none;stroke-width:0.64"
     d="m 7.2499993,13.499999 c 0,-3.297539 0,-7.4956423 0,-10.9999989 0,-0.2357023 0.2642976,-0.5 0.5,-0.5 2.4999997,0 4.7194737,0 6.7499997,0 0.235702,0 0.499006,0.2642998 0.5,0.5 0.0017,0.4022548 3.2e-4,0.8625774 0,1.2499999 -1.25e-4,0.2357022 -0.264298,0.5 -0.5,0.5 -1.469685,0 -4.375,0 -4.375,0 v 2.2499998 c 0,0 2.771238,0 4.125,0 0.235702,0 0.5,0.2642978 0.5,0.5 0,0.4591075 0,0.8539265 0,1.2499999 0,0.2357024 -0.264298,0.5 -0.5,0.5 -1.274043,0 -4.125,0 -4.125,0 0,0 0,3.1982013 0,4.7499993 0,0.235703 -0.2642974,0.5 -0.4999998,0.5 -0.6552896,0 -1.2363951,9.76e-4 -1.8749999,0 -0.2357024,-4e-4 -0.5,-0.264297 -0.5,-0.5 z"
     id="path54" />
  <path
     id="path1"
     style="fill:#000000;fill-opacity:1;stroke-width:1"
     d="M -2e-7,2.0000001 V 3 4 H 0.99999974 1.9999997 V 3 2.0000001 H 0.99999974 Z m 1.9999999,0 h 0.9999999 1 V 1.0000002 2.3e-7 h -1 -0.9999999 V 1.0000002 Z M 5.9999994,16 V 15 13.999999 H 4.9999995 3.9999996 V 15 16 H 4.9999995 Z M 1.9999997,16 V 15 13.999999 H 0.99999974 -2e-7 V 14.72 c 0,0.04432 0.002208,0.08812 0.00656,0.13125 0.004352,0.04313 0.01088,0.08576 0.0193744,0.127499 0.008496,0.04174 0.0191328,0.08268 0.0315632,0.122813 0.012432,0.04013 0.02666239,0.07919 0.04281119,0.1175 0.0161504,0.03831 0.0340912,0.07591 0.0537504,0.112188 0.0196592,0.03628 0.0411056,0.07127 0.0640624,0.105312 0.0229584,0.03404 0.0473936,0.06685 0.0734384,0.09844 0.0260432,0.03158 0.0535792,0.06202 0.0824992,0.09094 0.02892,0.02892 0.0593536,0.05646 0.0909376,0.0825 0.031584,0.02604 0.0644,0.05048 0.0984368,0.07344 0.0340384,0.02296 0.0690336,0.0444 0.1053136,0.06406 0.0362784,0.01966 0.0738768,0.0376 0.11218719,0.05375 0.0383104,0.01615 0.0773712,0.03038 0.11749919,0.04281 0.0401296,0.01243 0.0810752,0.02307 0.12281273,0.03156 0.041738,0.0085 0.084366,0.01502 0.1275008,0.01938 C 1.1918845,15.99779 1.2356797,16 1.2799997,16 Z M -2e-7,11.999999 H 0.99999974 1.9999997 V 11 9.9999996 H 0.99999974 -2e-7 V 11 Z m 0,-3.9999993 H 0.99999974 1.9999997 V 6.9999998 5.9999999 H 0.99999974 -2e-7 V 6.9999998 Z M 1.9999997,5.9999999 h 0.9999999 1 v -1 V 4 h -1 -0.9999999 V 4.9999999 Z M 3.9999996,4 H 4.9999995 5.9999994 V 3 2.0000001 H 4.9999995 3.9999996 V 3 Z m 0,1.9999999 V 6.9999998 7.9999997 H 4.9999995 5.9999994 V 6.9999998 5.9999999 H 4.9999995 Z m 0,1.9999998 h -1 -0.9999999 v 1 0.9999999 h 0.9999999 1 V 8.9999997 Z m 0,1.9999999 V 11 11.999999 H 4.9999995 5.9999994 V 11 9.9999996 H 4.9999995 Z m 0,1.9999994 h -1 -0.9999999 v 1 1 h 0.9999999 1 v -1 z" />
</svg>
