<?xml version="1.0" encoding="UTF-8" standalone="no"?>
<svg
   height="16px"
   viewBox="0 0 16 16"
   width="16px"
   version="1.1"
   id="svg135"
   xmlns="http://www.w3.org/2000/svg"
   xmlns:svg="http://www.w3.org/2000/svg">
  <defs
     id="defs139" />
  <path
     style="fill:#020202;stroke:none;stroke-width:0.0318091"
     d="m 5.7054731,4e-6 c -0.544986,1.611009 -1.238679,3.192173 -1.870377,4.771369 -0.449812,1.124517 -0.931924,2.3332 -0.660866,3.562623 0.165726,0.751618 0.598934,1.337478 1.008922,1.972166 0.607872,0.941041 1.240174,1.867037 1.861629,2.799203 l 1.314767,1.972166 c 0.197439,0.296175 0.384763,0.703873 0.667991,0.922465 0.337209,-0.605709 0.771086,-1.172548 1.155722,-1.749502 L 11.431116,10.878726 C 12.044905,9.958043 12.779887,9.061789 12.888929,7.920477 12.989859,6.864382 12.57475,5.862681 12.208022,4.89861 11.5859,3.263143 10.846655,1.657279 10.285988,4e-6 h -0.06362 C 9.8901221,0.809837 9.4725001,1.583647 9.1225361,2.385689 c -0.105575,0.241968 -0.255173,0.809033 -0.472111,0.961462 -0.100167,0.07036 -0.286155,-0.0039 -0.400223,-0.0067 -0.315005,-0.0078 -0.613248,0.0032 -0.922464,0.06314 L 6.7951891,2.226653 5.7690901,1.4e-5 h -0.06362 m -1.367793,6.340482 c 0.411452,-0.0723 0.837948,0.114227 1.176938,0.329733 0.691563,0.439666 1.243801,1.07534 1.580532,1.822823 0.205742,0.456651 0.413646,1.382297 -0.276357,1.54182 -0.388899,0.08989 -0.81794,-0.07838 -1.145129,-0.275944 C 4.9584331,9.327087 4.3462661,8.661004 4.0155461,7.888678 3.8137181,7.417362 3.6098211,6.4684 4.3376771,6.340496 m 6.9343909,-9.94e-4 c 0.939959,-0.135443 0.998838,0.791125 0.731164,1.453677 -0.383045,0.948135 -1.354083,2.135283 -2.4488569,2.252914 -0.954624,0.102584 -0.955228,-0.828374 -0.693312,-1.489495 0.374043,-0.94419 1.3492479,-2.064094 2.4110049,-2.217096 m -3.2445319,5.207154 h -0.06362 c -0.152238,0.48105 -0.519157,0.965376 -0.776938,1.399475 -0.09317,0.156882 -0.277344,0.318187 -0.449813,0.145368 -0.181184,-0.181503 0.04857,-0.458402 0.144891,-0.622378 0.247825,-0.421916 0.483912,-0.850767 0.73231,-1.272365 0.11095,-0.18831 0.257526,-0.392652 0.508119,-0.294489 0.174218,0.06826 0.267833,0.301455 0.355149,0.453535 l 0.604373,1.049701 c 0.08458,0.147372 0.236787,0.333455 0.243626,0.508914 0.0068,0.174696 -0.183348,0.303714 -0.342457,0.221678 -0.152715,-0.07873 -0.233606,-0.30225 -0.314688,-0.44431 -0.08512,-0.149185 -0.171928,-0.297224 -0.258894,-0.445328 -0.133535,-0.22734 -0.280207,-0.456429 -0.38206,-0.699801 z"
     id="path257" />
</svg>
