<?xml version="1.0" encoding="UTF-8" standalone="no"?>
<!-- Created with Inkscape (http://www.inkscape.org/) -->

<svg
   width="16"
   height="16"
   viewBox="0 0 4.2333333 4.2333333"
   version="1.1"
   id="svg322"
   xmlns="http://www.w3.org/2000/svg"
   xmlns:svg="http://www.w3.org/2000/svg">
  <defs
     id="defs319" />
  <g
     id="g3551"
     transform="translate(18.86257,19.991035)">
    <ellipse
       style="fill:#000000;fill-opacity:0.6;stroke:none;stroke-width:0.0170567;stroke-linecap:round;stroke-linejoin:round;stroke-miterlimit:0.5;stroke-opacity:1;paint-order:stroke fill markers"
       id="path2268-5-6"
       cx="-16.745903"
       cy="-19.495039"
       rx="0.9472549"
       ry="0.36605421" />
    <path
       style="fill:#000000;fill-opacity:0.6;stroke-width:0.0773125"
       d="m -17.635676,-19.128975 c 0.0578,0.111053 0.527634,0.891813 0.638561,1.059523 0.06432,0.09724 0.135708,0.176414 0.182291,0.202228 0.04096,0.0227 0.08788,0.02448 0.128549,0.0045 0.04442,-0.02176 0.132187,-0.117917 0.19592,-0.214582 0.10444,-0.158384 0.578013,-0.944853 0.634223,-1.051729 z"
       id="path10" />
    <path
       id="path3094"
       style="fill:#000000;stroke:none;stroke-width:0.0121096;stroke-linecap:round;stroke-linejoin:round;stroke-miterlimit:0.5;paint-order:stroke fill markers"
       d="m -16.745879,-19.991028 a 1.2835106,0.49599577 0 0 0 -1.283511,0.496006 1.2835106,0.49599577 0 0 0 0.02181,0.09007 h -5.28e-4 l 0.002,0.0036 a 1.2835106,0.49599577 0 0 0 0.0079,0.01399 l 1.145061,2.027387 v 1.086129 a 0.67251148,0.25988318 0 0 0 -0.562767,0.256315 0.67251148,0.25988318 0 0 0 0.672541,0.259833 0.67251148,0.25988318 0 0 0 0.672542,-0.259833 0.67251148,0.25988318 0 0 0 -0.547375,-0.255436 v -1.087008 l 1.111901,-2.006541 a 1.2835106,0.49599577 0 0 0 0.02753,-0.0497 1.2835106,0.49599577 0 0 0 8.8e-5,-1.76e-4 1.2835106,0.49599577 0 0 0 0.01627,-0.07864 1.2835106,0.49599577 0 0 0 -1.28351,-0.496006 z m 0,0.129917 a 0.94725481,0.36605416 0 0 1 0.94724,0.366089 0.94725481,0.36605416 0 0 1 -0.02313,0.08022 h -7.92e-4 a 0.94725481,0.36605416 0 0 1 -0.356149,0.212863 h 4.4e-4 a 0.94725481,0.36605416 0 0 1 -0.567605,0.07301 0.94725481,0.36605416 0 0 1 -0.572267,-0.07459 0.94725481,0.36605416 0 0 1 -0.05181,-0.01636 0.94725481,0.36605416 0 0 1 -0.0079,-0.0027 0.94725481,0.36605416 0 0 1 -0.286222,-0.183925 h -4.39e-4 a 0.94725481,0.36605416 0 0 1 -0.02859,-0.08849 0.94725481,0.36605416 0 0 1 0.94724,-0.366089 z m -0.84767,0.738511 a 1.2835106,0.49599577 0 0 0 0.84767,0.123584 1.2835106,0.49599577 0 0 0 0.847141,-0.12332 c -0.132237,0.241283 -0.500887,0.886686 -0.591618,1.032121 -0.06373,0.102173 -0.151469,0.203763 -0.195887,0.226761 -0.04067,0.02106 -0.08764,0.01915 -0.128597,-0.0048 -0.04658,-0.02728 -0.117938,-0.110961 -0.182253,-0.213743 -0.09653,-0.154265 -0.464393,-0.798414 -0.596456,-1.040565 z" />
  </g>
</svg>
