<?xml version="1.0" encoding="UTF-8" standalone="no"?>
<svg
   height="16px"
   viewBox="0 0 16 16"
   width="16px"
   version="1.1"
   id="svg135"
   xmlns="http://www.w3.org/2000/svg"
   xmlns:svg="http://www.w3.org/2000/svg">
  <defs
     id="defs139" />
  <path
     id="path39797"
     style="fill:#000000"
     d="M 8 0 C 3.5922588 -9.99998e-06 -9.99998e-06 3.5922588 0 8 C 0 12.407742 3.5922588 16.00001 8 16 C 12.407742 16.00001 16 12.407742 16 8 C 16.000005 6.0485921 15.292362 4.2598025 14.125 2.8691406 L 14.125 7.1875 C 14.125 7.18798 14.125036 7.1937719 14.125 7.2011719 C 14.123581 7.4837207 14.078388 7.7558598 13.998047 8.0136719 A 6 6 0 0 1 8 14 A 6 6 0 0 1 2 8 A 6 6 0 0 1 8 2 A 6 6 0 0 1 11.625 3.2382812 L 11.625 2.5 C 11.625 1.9888508 11.783005 1.5111341 12.050781 1.1132812 C 10.860925 0.40987817 9.4780557 -3.3533111e-06 8 0 z M 8 5 A 3 3 0 0 0 5 8 A 3 3 0 0 0 8 11 A 3 3 0 0 0 10.365234 9.8339844 C 10.038074 9.7154609 9.7394592 9.5364654 9.4804688 9.3125 A 2 2 0 0 1 8 10 A 2 2 0 0 1 6 8 A 2 2 0 0 1 8 6 A 2 2 0 0 1 8.703125 6.1445312 C 8.8321264 5.8256684 9.0178643 5.5345442 9.2480469 5.2851562 A 3 3 0 0 0 8 5 z M 8 7 A 1 1 0 0 0 7 8 A 1 1 0 0 0 8 9 A 1 1 0 0 0 8.8339844 8.5097656 C 8.6211058 8.1146883 8.5 7.664191 8.5 7.1875 C 8.5 7.1764292 8.4998697 7.1653391 8.5 7.1542969 A 1 1 0 0 0 8 7 z " />
  <path
     id="path121145"
     style="color:#000000;fill:#000000;stroke:none;stroke-width:0.642857;stroke-linecap:round;stroke-linejoin:round;stroke-opacity:1;-inkscape-stroke:none"
     d="m 14.17844,0.5 c -1.057506,0 -1.928571,0.871065 -1.928571,1.928571 V 5.219729 C 11.95695,5.079129 11.629954,5 11.285583,5 10.050558,5 9.0355828,6.014975 9.0355828,7.25 c 0,1.235025 1.0149752,2.25 2.2500002,2.25 1.231251,0 2.243822,-1.008797 2.25,-2.238699 1.9e-5,-0.0039 0,-0.0075 0,-0.01131 V 2.428575 c 0,-0.362655 0.280201,-0.642857 0.642856,-0.642857 h 1.285978 V 0.5 Z m -2.892857,5.785714 c 0.540174,0 0.964286,0.424112 0.964286,0.964286 v 0.01003 c -0.0053,0.535371 -0.42748,0.954257 -0.964286,0.954257 -0.540174,0 -0.964286,-0.424112 -0.964286,-0.964286 0,-0.540174 0.424112,-0.964286 0.964286,-0.964287 z" />
</svg>
