<?xml version="1.0" encoding="UTF-8" standalone="no"?>
<svg
   width="16"
   height="16"
   version="1.1"
   id="svg9605"
   xmlns="http://www.w3.org/2000/svg"
   xmlns:svg="http://www.w3.org/2000/svg">
  <defs
     id="defs9601">
    <style
       id="current-color-scheme"
       type="text/css">
   .ColorScheme-Text { color:#444444; } .ColorScheme-Highlight { color:#4285f4; } .ColorScheme-NeutralText { color:#ff9800; } .ColorScheme-PositiveText { color:#4caf50; } .ColorScheme-NegativeText { color:#f44336; }
  </style>
  </defs>
  <path
     id="path11315"
     style="fill:#000000;stroke-width:0.235661"
     class="cls-24"
     d="m 10.983555,2.9795641 c -1.9892075,0.0021 -3.7906875,1.1770323 -4.5957025,2.9960937 -0.322053,0.7891684 -0.452522,1.7523036 -0.396484,2.609375 0.00131,0.00724 0.00267,0.014212 0.00391,0.021484 v 0.064454 c 0.01579,0.09898 0.023668,0.1986733 0.023438,0.2988281 0,1.6326536 -1.767679,2.6542176 -3.181641,1.8378906 -1.413963,-0.8163275 -1.413963,-2.8575007 0,-3.6738281 0.322384,-0.1861716 0.688203,-0.2851562 1.060547,-0.2851562 l 0.00195,-0.00586 c 0.421339,-8.543e-4 0.818513,0.1209819 1.152344,0.3359375 0.141396,-0.5962208 0.281287,-1.1858369 0.417968,-1.7773437 -2.221094,-0.9929724 -4.96348703,0.3186571 -5.41015603,2.9003906 -0.510675,2.9530579 2.36684703,5.3524379 5.17968803,4.3183599 0.751756,-0.27643 1.39923,-0.779066 1.855468,-1.4375 0.01838,-0.03323 0.057353,-0.07355 0.070313,-0.109375 0.353342,-0.755825 0.509747,-1.2760256 0.574219,-2.9628912 -5.7e-5,-0.00131 5.5e-5,-0.0026 0,-0.00391 -0.00148,-0.034917 -0.00154,-0.070591 -0.00195,-0.1054688 0,-1.8775649 1.524302,-3.2265309 3.2011705,-3.2558593 0.558958,-0.00978 1.135716,0.1264962 1.677735,0.4394531 2.168075,1.2515914 2.168075,4.3812213 0,5.6328122 -0.494416,0.285386 -1.056185,0.435547 -1.626953,0.435547 h -0.0059 c -0.951904,-0.0049 -1.8182955,-0.419353 -2.4179675,-1.085937 0.014784,0.0161 0.027809,0.03305 0.042968,0.04883 -0.087112,0.653111 -0.2439,1.31469 -0.458984,1.9375 -2.01e-4,5.83e-4 2.01e-4,0.0014 0,0.002 2.5718945,1.764399 6.3379975,0.761526 7.5234375,-2.3867189 1.234895,-3.279493 -1.185149,-6.7836872 -4.689418,-6.789107 z M 7.0948835,11.182689 c 0.07659,0.09335 0.155393,0.183519 0.236329,0.269531 -0.082253,-0.08766 -0.160858,-0.178684 -0.236329,-0.269531 z m 0.236329,0.269531 c 0.080293,0.08533 0.161864,0.165978 0.246093,0.244141 -0.084727,-0.07944 -0.166993,-0.159836 -0.246093,-0.244141 z m 0.472656,-2.7773435 c 0.00629,0.028559 0.010564,0.05755 0.017578,0.085938 -0.00685,-0.028006 -0.01144,-0.057631 -0.017578,-0.085938 z m 0.238281,0.7070313 c 0.01257,0.026883 0.025771,0.053557 0.039063,0.080078 -0.013504,-0.026587 -0.026263,-0.053059 -0.039063,-0.080078 z m 0.041016,0.082031 c 0.042451,0.084533 0.088943,0.1676718 0.138672,0.2480468 -0.049955,-0.080053 -0.095582,-0.163374 -0.138672,-0.2480468 z m 0.138672,0.2480468 c 0.049963,0.080754 0.104887,0.1585398 0.162109,0.234375 -0.056986,-0.075726 -0.111692,-0.1535809 -0.162109,-0.234375 z m 0.162109,0.234375 c 0.05561,0.073699 0.113398,0.1445104 0.175781,0.2128904 -0.061425,-0.06869 -0.120205,-0.139038 -0.175781,-0.2128904 z m -0.759766,1.7910154 c 0.046526,0.04212 0.093016,0.08502 0.140625,0.125 -0.047671,-0.04034 -0.094416,-0.08273 -0.140625,-0.125 z" />
  <path
     class="cls-25"
     d="M 6.3882047,5.975037 C 6.1113037,5.745032 5.8020607,5.542411 5.4709577,5.400544 5.3342747,5.992052 5.1931107,6.58342 5.0517147,7.179642 c 0.487346,0.306123 0.82817,0.927656 0.942937,1.491356 -0.07093,-0.877836 0.0608,-1.880575 0.393553,-2.695961 z"
     id="path11317-6"
     style="fill:#000000;stroke-width:0.235661;fill-opacity:0.5" />
  <path
     class="cls-25"
     d="m 7.7668207,8.489537 v -0.0707 c -0.01414,-0.115474 -0.02357,-0.235661 -0.02592,-0.341708 -0.06363,1.71561 -0.219165,2.234064 -0.575012,2.995248 -0.01296,0.03582 -0.05232,0.07753 -0.0707,0.110763 0.301881,0.363389 0.660864,0.709786 1.054182,0.971369 0.215394,-0.623323 0.372956,-1.284377 0.46015,-1.9381 C 8.1579947,9.746501 7.8724027,9.132418 7.7668267,8.489535 Z"
     id="path11319-1"
     style="fill:#000000;stroke-width:0.235661;fill-opacity:0.5" />
</svg>
