<?xml version="1.0" encoding="UTF-8" standalone="no"?>
<svg
   height="16px"
   viewBox="0 0 16 16"
   width="16px"
   version="1.1"
   id="svg135"
   xmlns="http://www.w3.org/2000/svg"
   xmlns:svg="http://www.w3.org/2000/svg">
  <defs
     id="defs139" />
  <path
     id="path1"
     style="fill:#000000;stroke-width:0.122372"
     d="M 7.4746094,0.75878903 A 1.8355854,1.8355854 0 0 0 5.648438,2.4697265 C 4.322506,3.018205 3.14527,3.8677924 2.259766,4.9189453 A 1.8355854,1.8355854 0 0 0 1.835938,4.868164 1.8355854,1.8355854 0 0 0 1.6888109e-8,6.7041015 1.8355854,1.8355854 0 0 0 0.68750002,8.1318359 c -0.0064,0.033227 -0.013661,0.066247 -0.019531,0.099609 -0.309047,1.7555046 0.215668,3.3974821 1.32421898,4.5585941 0.030495,0.03194 0.064373,0.06253 0.095703,0.09375 a 1.8355854,1.8355854 0 0 0 -0.076172,0.521484 1.8355854,1.8355854 0 0 0 1.835937,1.835938 1.8355854,1.8355854 0 0 0 1.462891,-0.728516 c 0.440981,0.08104 0.9033719,0.123047 1.3808592,0.123047 1.2974501,0 2.5707557,-0.301717 3.7207028,-0.833984 a 1.8355854,1.8355854 0 0 0 1.171875,0.425781 1.8355854,1.8355854 0 0 0 1.835938,-1.835937 1.8355854,1.8355854 0 0 0 -0.136719,-0.69336 c 0.827249,-0.922254 1.429142,-2.0139411 1.701172,-3.205078 0.09421,-0.4125167 0.139609,-0.81963 0.144531,-1.21875 A 1.8355854,1.8355854 0 0 0 16,5.7138671 1.8355854,1.8355854 0 0 0 14.164063,3.8798828 1.8355854,1.8355854 0 0 0 13.951172,3.8935547 C 13.93926,3.8792477 13.928093,3.8647709 13.916016,3.8505859 12.878569,2.6320592 11.258607,1.8709089 9.3476562,1.7919921 H 9.3359375 9.125 A 1.8355854,1.8355854 0 0 0 7.4746094,0.75878903 Z m 0,0.49023437 A 1.3460953,1.3460953 0 0 1 8.8203125,2.5947265 1.3460953,1.3460953 0 0 1 7.4746094,3.9404297 1.3460953,1.3460953 0 0 1 6.1289062,2.5947265 1.3460953,1.3460953 0 0 1 7.4746094,1.2490234 Z M 9.234375,3.1142578 h 0.064453 c 1.490494,0.062847 2.677488,0.6105039 3.457031,1.4257812 a 1.8355854,1.8355854 0 0 0 -0.427734,1.1738281 1.8355854,1.8355854 0 0 0 1.470703,1.7949219 c -0.01741,0.2243717 -0.0517,0.4540119 -0.105469,0.6894531 -0.207433,0.9082864 -0.688512,1.7708998 -1.353515,2.5214849 a 1.8355854,1.8355854 0 0 0 -0.75586,-0.16211 1.8355854,1.8355854 0 0 0 -1.8359372,1.833985 1.8355854,1.8355854 0 0 0 0.015625,0.224609 c -0.9579761,0.440687 -2.0100841,0.695315 -3.0722657,0.695312 -0.3550215,0 -0.6947952,-0.02809 -1.0175782,-0.08008 a 1.8355854,1.8355854 0 0 0 -1.826172,-1.662109 1.8355854,1.8355854 0 0 0 -0.9375,0.261719 C 2.123004,10.981596 1.747624,9.8556149 1.958984,8.5361328 a 1.8355854,1.8355854 0 0 0 1.712891,-1.8320313 1.8355854,1.8355854 0 0 0 -0.298828,-1 C 4.087181,4.8965028 5.015996,4.2154685 6.0566406,3.7548828 A 1.8355854,1.8355854 0 0 0 7.4746094,4.430664 1.8355854,1.8355854 0 0 0 9.234375,3.1142578 Z M 14.164063,4.368164 A 1.3460953,1.3460953 0 0 1 15.509766,5.7138671 1.3460953,1.3460953 0 0 1 14.164063,7.0615234 1.3460953,1.3460953 0 0 1 12.818359,5.7138671 1.3460953,1.3460953 0 0 1 14.164063,4.368164 Z M 1.835938,5.3583984 A 1.3460953,1.3460953 0 0 1 3.181641,6.7041015 1.3460953,1.3460953 0 0 1 1.835938,8.0498047 1.3460953,1.3460953 0 0 1 0.49023402,6.7041015 1.3460953,1.3460953 0 0 1 1.835938,5.3583984 Z m 9.748046,5.6875006 a 1.3460953,1.3460953 0 0 1 1.345704,1.345703 1.3460953,1.3460953 0 0 1 -1.345704,1.347656 1.3460953,1.3460953 0 0 1 -1.345703,-1.347656 1.3460953,1.3460953 0 0 1 1.345703,-1.345703 z M 3.847656,12.05957 A 1.3460953,1.3460953 0 0 1 5.193359,13.405273 1.3460953,1.3460953 0 0 1 3.847656,14.750977 1.3460953,1.3460953 0 0 1 2.501953,13.405273 1.3460953,1.3460953 0 0 1 3.847656,12.05957 Z" />
</svg>
