<?xml version="1.0" encoding="UTF-8" standalone="no"?>
<svg
   height="16"
   viewBox="0 0 16 16"
   width="16"
   version="1.1"
   id="svg4"
   xmlns="http://www.w3.org/2000/svg"
   xmlns:svg="http://www.w3.org/2000/svg">
  <defs
     id="defs8" />
  <path
     id="path166-0"
     style="fill:#000000;fill-opacity:1;fill-rule:evenodd;stroke-width:0.277305"
     d="m 15.058659,0.00336756 c -0.125087,-0.01976 -0.237497,0.05044 -0.305057,0.130301 -0.06756,0.0799 -0.114376,0.178817 -0.1552,0.303571 -0.0706,0.215881 -0.329996,1.01715304 -1.26494,1.80914904 -0.706346,0.59838 -1.80015,1.49161 -3.4973566,1.923826 -0.250236,-0.09317 -0.51764,-0.139229 -0.784436,-0.139229 -0.44181,0 -0.88539,0.125941 -1.249477,0.383928 -1.585873,-0.05482 -2.567863,-1.025428 -3.219567,-2.306917 -0.169093,-0.332496 -0.435236,-0.952015 -0.435236,-0.557756 v 0.609653 l -0.0084,3.070588 c -0.17817,0.246536 -0.287067,0.564647 -0.287067,0.942521 0,0.130793 0.01323,0.254293 0.03768,0.370256 -0.02443,0.02694 -0.05426,0.05441 -0.08182,0.08175 -0.006,-0.0081 -0.01137,-0.01618 -0.01743,-0.02427 -0.6501,-0.868482 -1.438087,-1.255049 -2.12979,-1.26088 v -2.79e-4 c -0.09881,0 -0.195683,0.0059 -0.289877,0.02037 -0.251183,0.03835 -0.48384001,0.130412 -0.68434301,0.26981 -0.802013,0.557633 -1.013123,1.821422 -0.0225,3.144806 0.82903701,1.1075405 1.88195001,1.4315174 2.67355301,1.1810815 0.30213,0.2261039 0.63637,0.4472509 0.995871,0.6573649 1.442723,0.843211 3.290543,1.509596 5.08591,1.540735 0.5874326,0.01021 1.1703126,-0.05121 1.7299796,-0.196986 l 0.05145,0.05106 a 0.73783844,0.732215 0 0 0 0.220147,0.483258 l 1.0178,1.010043 c -0.08196,0.207142 -0.127363,0.432529 -0.127363,0.668526 0,1.010876 0.82577,1.830355 1.84441,1.830355 h 1.844379 v -1.830355 c 0,-1.010877 -0.825773,-1.830355 -1.844413,-1.830355 -0.237767,0 -0.464677,0.04509 -0.673377,0.126395 l -1.018083,-1.010322 a 0.73783844,0.732215 0 0 0 -0.02813,-0.02204 c 0.640184,-0.368373 1.21949,-0.88972 1.697367,-1.6001656 1.16229,-1.7279138 1.729257,-5.0258118 1.26494,-9.32085784 h -10e-4 c -0.01473,-0.117919 -0.04112,-0.218399 -0.088,-0.306641 -0.04688,-0.0882 -0.125707,-0.17926 -0.250797,-0.198939 z M 9.3460454,5.4888516 c 0.215984,0 0.43431,0.07064 0.602527,0.219029 0.1682096,0.148388 0.2789096,0.377144 0.2789096,0.655691 0,0.278547 -0.110697,0.507024 -0.2789096,0.655412 -0.168217,0.148388 -0.386543,0.219308 -0.602527,0.219308 -0.215986,0 -0.434316,-0.07092 -0.602526,-0.219308 -0.168214,-0.148388 -0.278914,-0.376865 -0.278914,-0.655412 0,-0.278547 0.1107,-0.507303 0.278914,-0.655691 0.16821,-0.148388 0.38654,-0.219029 0.602526,-0.219029 z m -3.694166,0.237444 c 0.165403,0 0.332566,0.05405 0.461383,0.167689 0.12882,0.113636 0.213683,0.288642 0.213683,0.501953 0,0.213311 -0.08486,0.388316 -0.213683,0.501952 -0.128817,0.113635 -0.29598,0.167969 -0.461383,0.167969 -0.165404,0 -0.332567,-0.05433 -0.461384,-0.167969 -0.128816,-0.113636 -0.213683,-0.288641 -0.213683,-0.501952 0,-0.213311 0.08487,-0.388317 0.213683,-0.501953 0.128817,-0.113635 0.29598,-0.167689 0.461384,-0.167689 z m 4.163423,2.969583 c 0,0 0.5930196,0.244525 0.9011166,0.6448095 0.206263,0.267996 0.09223,0.3986527 -0.02923,0.609653 -0.03807,-0.030923 -0.07738,-0.058808 -0.117524,-0.084263 -7e-5,-4.5e-5 -1.43e-4,4.5e-5 -2.9e-4,0 -0.03113,-0.019733 -0.06262,-0.037912 -0.09475,-0.054408 -0.01543,-0.00819 -0.03077,-0.016273 -0.04639,-0.023717 -0.0063,-0.00293 -0.01273,-0.00557 -0.01913,-0.00837 -0.0708,-0.03221 -0.143087,-0.058562 -0.216494,-0.075893 -1.43e-4,-8.333e-4 -6.66e-4,-0.0014 -10e-4,-0.00223 -3.33e-4,6.333e-4 -10e-4,0.0013 -0.0013,0.00197 -0.3762626,-0.088062 -0.7713326,0.0149 -1.0369196,0.2784594 l 0.313773,0.3113835 c -0.261223,0.121163 -0.56708,0.195233 -0.914613,0.203404 -0.802193,0.01873 -1.823513,-0.296684 -3.013477,-0.7195862 v -8.333e-4 c 0.763584,0 1.459847,0.038682 2.09127,0 1.04893,-0.065441 1.97095,-0.1806804 2.4370996,-0.5429684 C 9.8702684,8.9769616 9.8152414,8.6959016 9.8152414,8.6959016 Z" />
</svg>
