<?xml version="1.0" encoding="UTF-8" standalone="no"?>
<svg
   height="16"
   viewBox="0 0 16 16"
   width="16"
   version="1.1"
   id="svg4"
   xmlns:xlink="http://www.w3.org/1999/xlink"
   xmlns="http://www.w3.org/2000/svg"
   xmlns:svg="http://www.w3.org/2000/svg">
  <defs
     id="defs8">
    <linearGradient
       xlink:href="#linearGradient3618"
       id="linearGradient3620"
       x1="15.463273"
       y1="61.593021"
       x2="108.79661"
       y2="61.593021"
       gradientUnits="userSpaceOnUse"
       gradientTransform="matrix(1.1247178,0,0,1.1247178,-140.26841,-81.142957)" />
    <linearGradient
       id="linearGradient3618">
      <stop
         style="stop-color:#464030;stop-opacity:1;"
         offset="0.13"
         id="stop3614" />
      <stop
         style="stop-color:#736b56;stop-opacity:1;"
         offset="0.2"
         id="stop3622" />
      <stop
         style="stop-color:#464030;stop-opacity:1;"
         offset="0.27000001"
         id="stop3624" />
      <stop
         style="stop-color:#464030;stop-opacity:1;"
         offset="0.82999998"
         id="stop3626" />
      <stop
         style="stop-color:#736b56;stop-opacity:1;"
         offset="0.89999998"
         id="stop3628" />
      <stop
         style="stop-color:#464030;stop-opacity:1;"
         offset="0.97000003"
         id="stop3616" />
    </linearGradient>
  </defs>
  <path
     id="path166"
     style="fill:#000000;fill-rule:evenodd;stroke-width:0.272834"
     d="m 14.240309,0.83095691 c -0.122606,-0.019516 -0.232107,0.050126 -0.298322,0.1290037 -0.06626,0.078919 -0.11318,0.17712419 -0.153192,0.30033729 -0.06915,0.2132122 -0.323307,1.0036905 -1.239645,1.785896 -0.7134,0.6089895 -1.832357,1.5265468 -3.5838864,1.9370718 -0.1663734,-0.041477 -0.3366768,-0.062489 -0.5079524,-0.062489 -0.3534905,0 -0.7082153,0.087465 -1.0159045,0.2660708 -0.042726,0.00175 -0.083664,0.00506 -0.126988,0.00609 C 5.6490541,5.2124517 4.6364845,4.2250085 3.9724151,2.9091661 3.8066816,2.5807824 3.5471058,1.9694996 3.5471059,2.3588846 v 0.60269 l -0.00806,2.8441293 C 3.4196298,6.0073574 3.3352869,6.2430225 3.2971637,6.5071613 2.757103,5.9843648 2.1635324,5.7437346 1.6281778,5.7391865 c -0.096804,0 -0.1918861,0.00588 -0.2842114,0.020155 C 1.0977861,5.7972175 0.86925245,5.8877369 0.67274373,6.0254128 -0.11332181,6.5761529 -0.32036168,7.8245532 0.65057118,9.1315808 1.1676797,9.827712 1.7734184,10.210259 2.345761,10.332928 c 0.392037,0.336476 0.8595307,0.669452 1.3827591,0.977607 1.4140345,0.832787 3.2251246,1.491087 4.9847857,1.52184 0.9627436,0.01682 1.9127622,-0.16341 2.7635012,-0.606758 0.175816,0.138073 0.373098,0.296309 0.604704,0.487795 -0.06853,0.112879 -0.116909,0.221726 -0.14916,0.330573 -0.197537,0.76999 0.124974,1.685112 1.169096,1.94715 1.108625,0.278165 2.745361,0.286226 2.898553,-0.334603 -1.60045,0 -1.439198,-1.846368 -2.217252,-2.358351 -0.431355,-0.282195 -0.834493,-0.266069 -1.152971,-0.104815 -0.135827,-0.19802 -0.248285,-0.366573 -0.342666,-0.513999 l 0.175365,-0.133035 c 0.31676,-0.282425 0.608949,-0.613575 0.870775,-1.005827 C 14.472436,8.8339496 15.02798,5.5768357 14.572897,1.3348785 14.558448,1.2184181 14.534061,1.117661 14.488239,1.0305102 14.442314,0.94339651 14.364921,0.85442421 14.242326,0.83498901 Z M 5.4559583,6.2853976 c 0.2005645,0 0.4021468,0.064729 0.5583444,0.2035834 0.1562079,0.1388499 0.2600232,0.3541418 0.2600232,0.6147838 0,0.260642 -0.103774,0.4739176 -0.2600232,0.6127679 -0.1561976,0.1388491 -0.3577799,0.2055997 -0.5583444,0.2055997 -0.2005645,0 -0.4041522,-0.066755 -0.56036,-0.2055997 C 4.7394006,7.5776824 4.6375908,7.3644068 4.6375908,7.1037648 c 0,-0.260642 0.1018613,-0.4759339 0.2580075,-0.6147838 0.1562078,-0.1388493 0.3597955,-0.2035834 0.56036,-0.2035834 z m 3.2734703,0 c 0.2005645,0 0.4041624,0.064729 0.5603601,0.2035834 0.1561975,0.1388499 0.2580075,0.3541407 0.2580075,0.6147838 0,0.260642 -0.1017995,0.4739176 -0.2580075,0.6127679 C 9.133591,7.8553818 8.9299931,7.9221324 8.7294286,7.9221324 8.5288641,7.9221324 8.3272818,7.8553776 8.1710842,7.7165327 8.0148764,7.5776824 7.911061,7.3644068 7.911061,7.1037648 7.911061,6.8431217 8.014928,6.6278309 8.1710842,6.488981 8.3272818,6.3501317 8.5288641,6.2853976 8.7294286,6.2853976 Z M 10.10211,9.5407264 C 10.00778,9.926534 9.9924738,10.01049 9.5135296,10.469957 9.0628734,10.919687 8.6013388,11.1781 7.8626846,11.195603 7.0764436,11.214093 6.076004,10.90174 4.909708,10.484066 c 0.7483965,0 1.4310942,0.03821 2.0499504,0 1.0280763,-0.06462 1.9556502,-0.192463 2.408742,-0.507952 C 9.6200296,9.842987 9.7803638,9.734109 10.10211,9.5407264 Z" />
</svg>
