<?xml version="1.0" encoding="UTF-8" standalone="no"?>
<svg
   height="16"
   width="16"
   version="1.1"
   id="svg10"
   xmlns="http://www.w3.org/2000/svg"
   xmlns:svg="http://www.w3.org/2000/svg">
  <defs
     id="defs14" />
  <g
     id="g2247"
     transform="matrix(0.01724139,0,0,0.01724139,37.034505,19.379316)"
     style="fill:#000000">
    <path
       id="path84-6"
       style="fill:#000000;fill-opacity:1;fill-rule:nonzero;stroke:none;stroke-width:1.33333"
       d="m -1778.3848,-1097.5625 c -42.3918,9.4242 -84.3269,22.5449 -123.6425,42.334 0.8991,34.7158 3.1417,67.97976 7.6914,101.76756 -15.2684,9.7821 -31.3151,18.1776 -45.5762,29.62891 -14.49,11.14745 -29.2876,21.81235 -42.4082,34.84961 -26.2119,-17.33721 -53.9569,-33.62996 -82.5371,-48.01172 -30.8075,33.1551 -59.6114,68.94213 -83.1426,108.98633 17.7036,28.63867 36.1851,55.48191 56.1406,80.95703 h 0.5586 v 197.7832 25.1211 22.86132 c 0.4496,0.004 0.8984,0.0209 1.3438,0.0625 l 150.6699,14.52735 c 7.8923,0.76176 14.0774,7.1145 14.6269,15.02343 l 4.6465,66.50977 131.4297,9.37891 9.0547,-61.38672 c 1.1739,-7.95888 8.0003,-13.85742 16.0508,-13.85742 h 158.9609 c 8.0463,0 14.8731,5.89854 16.0469,13.85742 l 9.0547,61.38672 131.4336,-9.37891 4.6426,-66.50977 c 0.5536,-7.90893 6.7346,-14.25751 14.6269,-15.02343 l 150.6113,-14.52735 c 0.4454,-0.0416 0.8904,-0.0584 1.3399,-0.0625 v -19.60937 l 0.062,-0.0215 v -226.13476 h 0.5566 c 19.9598,-25.47512 38.4307,-52.31836 56.1426,-80.95703 -23.5229,-40.0442 -52.3451,-75.83123 -83.1523,-108.98633 -28.5722,14.38176 -56.3252,30.67451 -82.5372,48.01172 -13.1161,-13.03726 -27.8898,-23.70216 -42.4003,-34.84961 -14.257,-11.45131 -30.3252,-19.84681 -45.5645,-29.62891 4.5373,-33.7878 6.7825,-67.05175 7.6855,-101.76755 -39.3197,-19.7891 -81.2515,-32.9098 -123.664,-42.334 -16.9335,28.4598 -32.4175,59.2793 -45.9043,89.4082 -15.9928,-2.6724 -32.0603,-3.6621 -48.1484,-3.8535 v -0.025 c -0.1124,0 -0.2168,0.025 -0.3125,0.025 -0.1,0 -0.2048,-0.025 -0.3047,-0.025 v 0.025 c -16.1176,0.1914 -32.1731,1.1811 -48.17,3.8535 -13.4783,-30.1289 -28.9537,-60.9484 -45.9121,-89.4082 z m -119.1992,359.52344 c 50.1511,0 90.7988,40.61956 90.7988,90.7539 0,50.16764 -40.6477,90.80664 -90.7988,90.80664 -50.1259,0 -90.7871,-40.639 -90.7871,-90.80664 0,-50.13434 40.6612,-90.7539 90.7871,-90.7539 z m 427.1778,0 c 50.1218,0 90.7792,40.61951 90.7792,90.7539 0,50.16769 -40.6574,90.80664 -90.7792,90.80664 -50.1595,0 -90.8067,-40.63895 -90.8067,-90.80664 0,-50.13439 40.6472,-90.7539 90.8067,-90.7539 z m -213.5997,53.10937 c 16.1426,0 29.2539,11.90817 29.2539,26.56055 v 83.58984 c 0,14.66487 -13.1113,26.5625 -29.2539,26.5625 -16.1425,0 -29.2265,-11.89763 -29.2265,-26.5625 v -83.58984 c 0,-14.65238 13.084,-26.56055 29.2265,-26.56055 z" />
    <path
       d="m -1411.9286,-455.71416 -4.6663,66.86402 c -0.5619,8.05882 -6.9724,14.4734 -15.0312,15.052 l -160.4894,11.45134 c -0.3913,0.0291 -0.7826,0.0416 -1.1697,0.0416 -7.9756,0 -14.8564,-5.85263 -16.0344,-13.86149 l -9.2035,-62.41419 h -130.9516 l -9.2036,62.41419 c -1.2363,8.40015 -8.7456,14.44009 -17.204,13.81986 l -160.4895,-11.45134 c -8.0588,-0.5786 -14.4692,-6.99318 -15.0312,-15.052 l -4.6663,-66.86402 -135.4805,-13.06227 c 0.062,14.56081 0.2498,30.51194 0.2498,33.68801 0,143.08559 181.5106,211.86025 407.0243,212.65114 h 0.2747 0.2789 c 225.5136,-0.79089 406.9618,-69.56555 406.9618,-212.65114 0,-3.23435 0.1956,-19.11887 0.2622,-33.68801 z"
       style="fill:#000000;fill-opacity:1;fill-rule:nonzero;stroke:none;stroke-width:1.33333"
       id="path88-5" />
    <path
       d="m -1828.6331,-641.90021 c 0,33.27591 -26.9696,60.24547 -60.2704,60.24547 -33.2843,0 -60.2705,-26.96956 -60.2705,-60.24547 0,-33.27591 26.9862,-60.27044 60.2705,-60.27044 33.3008,0 60.2704,26.99453 60.2704,60.27044"
       style="fill:#000000;fill-opacity:0.5;fill-rule:nonzero;stroke:none;stroke-width:1.33333"
       id="path96-2" />
    <path
       d="m -1539.3594,-641.90021 c 0,33.27591 26.9612,60.24547 60.2371,60.24547 33.3093,0 60.2705,-26.96956 60.2705,-60.24547 0,-33.27591 -26.9612,-60.27044 -60.2705,-60.27044 -33.2759,0 -60.2371,26.99453 -60.2371,60.27044"
       style="fill:#000000;fill-opacity:0.5;fill-rule:nonzero;stroke:none;stroke-width:1.33333"
       id="path108-9" />
  </g>
</svg>
