<?xml version="1.0" encoding="UTF-8" standalone="no"?>
<svg
   width="16"
   height="16"
   version="1.1"
   id="svg7339"
   xmlns="http://www.w3.org/2000/svg"
   xmlns:svg="http://www.w3.org/2000/svg">
  <defs
     id="defs7343" />
  <g
     id="g10344"
     transform="matrix(0.64285714,0,0,0.64285714,2.8462143,2.8603572)">
    <path
       d="m 7.017,1.074 a 7,7 0 0 0 -6,6.921 7,7 0 0 0 1.66,4.524 l 4.34,-4.34 z"
       style="fill:#000000;marker:none"
       opacity="0.5"
       id="path7333" />
    <path
       d="m 7.896,8.995 -4.365,4.366 a 7,7 0 0 0 0.486,0.367 v -0.733 h 1 v -1 h 1 v -1 h 1 v -1 h 1 v -1 z m 0.121,1 v 1 h 1 v -1 z m 1,0 h 1 v -1 h -1 z m 1,0 v 1 h 1 v -1 z m 1,0 h 1 v -1 h -1 z m 1,0 v 1 h 1 v -1 z m 1,0 h 1 v -1 h -1 z m 1,0 v 1 h 0.309 a 7,7 0 0 0 0.385,-1 z m 0,1 h -1 v 1 h 0.727 a 7,7 0 0 0 0.273,-0.421 z m -1,1 h -1 v 1 h 0.881 a 7,7 0 0 0 0.12,-0.11 z m -1,1 h -1 v 1 h 0.582 a 7,7 0 0 0 0.418,-0.263 z m -1,1 h -1 v 0.704 a 7,7 0 0 0 1,-0.393 z m -1,0 v -1 h -1 v 1 z m -1,0 h -1 v 1 a 7,7 0 0 0 1,-0.08 z m -1,0 v -1 h -1 v 1 z m -1,0 h -1 v 0.704 a 7,7 0 0 0 1,0.214 z m -1,0 v -1 h -1 v 1 z m -1,0 h -0.58 a 7,7 0 0 0 0.58,0.311 z m 1,-1 h 1 v -1 h -1 z m 1,-1 h 1 v -1 h -1 z m 1,0 v 1 h 1 v -1 z m 1,0 h 1 v -1 h -1 z m 1,0 v 1 h 1 v -1 z m 1,0 h 1 v -1 h -1 z m -3,-11 v 7 h 7 a 7,7 0 0 0 -7,-7 z"
       style="fill:#000000;marker:none"
       id="path7335" />
  </g>
  <rect
     height="16"
     id="rect7580"
     rx="0"
     ry="0"
     style="display:inline;opacity:0;fill:#000000;fill-opacity:1;stroke:none"
     width="15.9375"
     x="-16.920727"
     y="1.86189" />
  <g
     fill="#241f31"
     id="g9809"
     transform="rotate(-90,8,8)"
     style="fill:#000000">
    <path
       d="M 2.1875,1 C 0.980469,1 0,2.015625 0,3.21875 v 9.5625 C 0,13.984375 0.980469,15 2.1875,15 h 11.625 C 15.019531,15 16,13.984375 16,12.78125 V 3.21875 C 16,2.015625 15.019531,1 13.8125,1 Z m 0,2 h 11.625 C 13.933594,3 14,3.082031 14,3.21875 v 9.5625 C 14,12.917969 13.933594,13 13.8125,13 H 2.1875 C 2.066406,13 2,12.917969 2,12.78125 V 3.21875 C 2,3.082031 2.066406,3 2.1875,3 Z m 0,0"
       id="path9803"
       style="fill:#000000" />
  </g>
</svg>
