<?xml version="1.0" encoding="UTF-8" standalone="no"?>
<svg
   height="16px"
   viewBox="0 0 16 16"
   width="16px"
   version="1.1"
   id="svg135"
   xmlns="http://www.w3.org/2000/svg"
   xmlns:svg="http://www.w3.org/2000/svg">
  <defs
     id="defs139">
    <linearGradient
       id="linearGradient4206">
      <stop
         style="stop-color:#ffffff;stop-opacity:1;"
         offset="0"
         id="stop4208" />
      <stop
         style="stop-color:#b0b0b0;stop-opacity:1;"
         offset="1"
         id="stop4210" />
    </linearGradient>
    <linearGradient
       id="linearGradient4153">
      <stop
         style="stop-color:#d70016;stop-opacity:1;"
         offset="0"
         id="stop4155" />
      <stop
         style="stop-color:#8d0016;stop-opacity:1;"
         offset="1"
         id="stop4157" />
    </linearGradient>
    <linearGradient
       id="linearGradient4143">
      <stop
         style="stop-color:#d000d0;stop-opacity:1;"
         offset="0"
         id="stop4145" />
      <stop
         style="stop-color:#760076;stop-opacity:1;"
         offset="1"
         id="stop4147" />
    </linearGradient>
    <linearGradient
       id="linearGradient4133">
      <stop
         style="stop-color:#1476e6;stop-opacity:1;"
         offset="0"
         id="stop4135" />
      <stop
         style="stop-color:#143e9a;stop-opacity:1;"
         offset="1"
         id="stop4137" />
    </linearGradient>
    <linearGradient
       id="linearGradient4123">
      <stop
         style="stop-color:#17b414;stop-opacity:1;"
         offset="0"
         id="stop4125" />
      <stop
         style="stop-color:#176314;stop-opacity:1;"
         offset="1"
         id="stop4127" />
    </linearGradient>
    <linearGradient
       id="linearGradient4105">
      <stop
         style="stop-color:#f7f10e;stop-opacity:1;"
         offset="0"
         id="stop4107" />
      <stop
         style="stop-color:#c58907;stop-opacity:1;"
         offset="1"
         id="stop4109" />
    </linearGradient>
    <linearGradient
       id="linearGradient4163">
      <stop
         style="stop-color:#ff7004;stop-opacity:1;"
         offset="0"
         id="stop4165" />
      <stop
         style="stop-color:#ba4704;stop-opacity:1;"
         offset="1"
         id="stop4167" />
    </linearGradient>
  </defs>
  <path
     id="path8"
     style="fill:#000000;stroke-width:0.361025"
     d="M 9.6472445,1.0125e-4 C 8.4384045,1.2089412 8.0630515,2.9351562 8.5201775,4.4658332 l -1.317468,1.317468 -1.471119,-1.471119 0.0014,-0.0014 -1.489644,-1.489639 -1.48964,1.489639 1.4882,1.488191 -10e-4,0.0014 -1.48819,-1.488191 -1.48964,1.489349 1.48964,1.489638 10e-4,-0.0014 1.47112,1.471119 -0.67566,0.675662 c -0.26078,0.260778 -0.28652,0.6642188 -0.0787,0.9540278 a 1.5468568,1.5468568 0 0 0 -0.24046,0.191847 1.5468568,1.5468568 0 0 0 0,2.187581 1.5468568,1.5468568 0 0 0 2.187588,0 1.5468568,1.5468568 0 0 0 0.19503,-0.238435 c 0.289456,0.204133 0.690047,0.176885 0.949399,-0.08247 l 0.675372,-0.675372 1.473145,1.473434 -0.0012,0.0012 1.4896395,1.489638 5.78e-4,-2.9e-4 1.100735,1.100735 c 0.215269,0.21527 0.56196,0.21527 0.777228,0 l 1.101025,-1.100735 1.101023,-1.101024 c 0.21527,-0.215269 0.21527,-0.561959 0,-0.777228 l -1.101023,-1.101024 8.67e-4,-8.68e-4 -1.489638,-1.489639 -0.0012,0.0012 -1.473434,-1.4731447 1.31631,-1.31631 c 1.531307,0.458301 3.258827,0.08273 4.468337,-1.126778 l -2.665319,-2.665029 0.59493,-1.144139 a 1.1108486,1.1108486 0 0 0 1.296922,-0.199082 1.1108486,1.1108486 0 0 0 0,-1.57094905 1.1108486,1.1108486 0 0 0 -1.570949,0 1.1108486,1.1108486 0 0 0 -0.199081,1.29692305 l -1.14414,0.59464 z M 2.7520265,1.5588972 c -0.14047,0 -0.28069,0.05383 -0.38833,0.161464 l -1.10102,1.101025 -1.10103,1.101024 c -0.21526,0.215269 -0.21526,0.56167 0,0.776939 l 1.10103,1.101024 1.48935,-1.4896379 1.48964,-1.489349 -1.10103,-1.101025 c -0.10763,-0.107634 -0.24814,-0.161464 -0.38861,-0.1614641 z m 7.4496365,10.1997398 1.488481,1.488481 -8.69e-4,8.68e-4 -5.78e-4,2.9e-4 -1.488192,-1.488192 v -2.89e-4 z" />
</svg>
