<?xml version="1.0" encoding="UTF-8" standalone="no"?>
<svg
   height="16"
   viewBox="0 0 16 16"
   width="16"
   version="1.1"
   id="svg791"
   xmlns:xlink="http://www.w3.org/1999/xlink"
   xmlns="http://www.w3.org/2000/svg"
   xmlns:svg="http://www.w3.org/2000/svg">
  <defs
     id="defs795">
    <linearGradient
       id="linearGradient1923"
       gradientTransform="matrix(0.344605,0,0,0.344705,-1.120951,-2.652559)"
       gradientUnits="userSpaceOnUse"
       spreadMethod="reflect"
       x1="231.13"
       x2="144.06"
       y1="342.54001"
       y2="34.762001">
      <stop
         offset="0.2054"
         stop-color="#90a0ae"
         id="stop1917"
         style="stop-color:#4c5b68;stop-opacity:1;" />
      <stop
         offset="0.52424"
         stop-color="#bbc6d1"
         id="stop1919" />
      <stop
         offset="0.95265"
         stop-color="#eeeeee"
         id="stop1921" />
    </linearGradient>
  </defs>
  <linearGradient
     id="a"
     gradientTransform="matrix(1.022746,0,0,1.023349,-1.448946,3.563402)"
     gradientUnits="userSpaceOnUse"
     x1="9.2404003"
     x2="118.75"
     y1="60.522999"
     y2="60.522999">
    <stop
       offset="0.6926"
       stop-color="#5b6d7d"
       id="stop773" />
    <stop
       offset="0.77063"
       stop-color="#b7c1ca"
       id="stop775" />
    <stop
       offset="0.83285"
       stop-color="#5b6d7d"
       id="stop777" />
  </linearGradient>
  <linearGradient
     id="b"
     gradientTransform="matrix(0.344605,0,0,0.344705,-1.120951,-2.652559)"
     gradientUnits="userSpaceOnUse"
     spreadMethod="reflect"
     x1="231.13"
     x2="144.06"
     y1="342.54001"
     y2="34.762001"
     xlink:href="#linearGradient1923">
    <stop
       offset="0.2054"
       stop-color="#90a0ae"
       id="stop780" />
    <stop
       offset="0.52424"
       stop-color="#bbc6d1"
       id="stop782" />
    <stop
       offset="0.95265"
       stop-color="#eeeeee"
       id="stop784" />
  </linearGradient>
  <path
     id="path789"
     d="M 3.9518671,8.6848741e-4 C 3.5010301,0.01919353 3.0925871,0.32650445 2.9697131,0.78487701 1.8865547,4.8260035 1.0522797,7.9397245 0.03608589,11.733653 c -0.1512293,0.565266 0.1869446,1.148949 0.7511247,1.29738 4.14624851,1.110445 6.79918951,1.821913 10.94543841,2.932917 0.563064,0.150664 1.146777,-0.184703 1.297448,-0.748854 C 14.013366,11.545048 15.025656,7.7695234 15.963724,4.2657626 16.115511,3.700496 15.77678,3.1173715 15.212599,2.9694982 11.066351,1.8584951 8.4134101,1.1470262 4.2677191,0.03602336 4.1621451,0.00777393 4.0559071,-0.0033603 3.9518671,8.6848741e-4 Z M 6.3430781,4.5835511 c 0.02947,0.0017 0.05916,0.0066 0.08873,0.014509 1.74173,0.4667668 2.856303,0.7656052 4.5982669,1.232372 0.237029,0.062127 0.379342,0.307135 0.315573,0.5446206 -0.394112,1.4720395 -0.819335,3.05808 -1.232436,4.5999823 -0.0633,0.237017 -0.3086479,0.378018 -0.5452079,0.314719 -1.741964,-0.466767 -2.856582,-0.765559 -4.598546,-1.232093 -0.237029,-0.062358 -0.379109,-0.3076938 -0.315573,-0.5451795 0.426934,-1.5939471 0.777649,-2.902178 1.232715,-4.5999807 0.0556,-0.2073902 0.250194,-0.3411443 0.456479,-0.3289489 z"
     style="stroke-width:0.142855" />
</svg>
