<?xml version="1.0" encoding="UTF-8" standalone="no"?>
<svg
   width="16"
   height="16"
   version="1"
   id="svg9"
   xmlns="http://www.w3.org/2000/svg"
   xmlns:svg="http://www.w3.org/2000/svg">
  <defs
     id="defs3">
    <style
       id="current-color-scheme"
       type="text/css">
   .ColorScheme-Text { color:#dfdfdf; } .ColorScheme-Highlight { color:#4285f4; } .ColorScheme-NeutralText { color:#ff9800; } .ColorScheme-PositiveText { color:#4caf50; } .ColorScheme-NegativeText { color:#f44336; }
  </style>
  </defs>
  <path
     id="path5-3"
     style="color:#dfdfdf;fill:#000000;stroke:none;stroke-width:1.14289"
     class="ColorScheme-Text"
     d="M 8.0019531 0 C 5.7090227 0.77565208 3.4290568 1.5887869 1.1445312 2.3886719 C 1.0507214 5.9384897 1.9273595 9.5908614 4.0800781 12.464844 C 5.1398671 13.879169 6.4450113 15.145437 8.0019531 16 C 11.470896 14.003689 13.789089 10.329911 14.529297 6.4375 C 14.795607 5.1058127 14.877351 3.7446037 14.859375 2.3886719 C 12.570812 1.6003413 10.297643 0.76768676 8.0019531 0 z M 8.0742188 2 L 11.359375 3.15625 L 4.28125 8.7910156 C 3.743391 7.3833318 3.3503576 5.6968838 3.2148438 3.7089844 L 8.0742188 2 z M 12.785156 5.2304688 C 12.072378 10.218526 9.6436554 12.887462 8.1230469 14 C 7.5744802 13.576942 6.9133722 13.035009 6.2128906 12.189453 C 5.9430748 11.863758 5.6786391 11.49814 5.4238281 11.095703 L 12.785156 5.2304688 z " />
</svg>
