<?xml version="1.0" encoding="UTF-8" standalone="no"?>
<svg
   width="16"
   height="16"
   viewBox="0 0 16 16"
   fill="none"
   version="1.1"
   id="svg12"
   xmlns="http://www.w3.org/2000/svg"
   xmlns:svg="http://www.w3.org/2000/svg">
  <defs
     id="defs16">
    <linearGradient
       id="paint0_linear"
       x1="16.180799"
       y1="28.3899"
       x2="16.180799"
       y2="5.61023"
       gradientUnits="userSpaceOnUse"
       gradientTransform="matrix(3.375,0,0,3.375,-136.06807,-101.78837)">
      <stop
         stop-color="#7400E1"
         id="stop10" />
      <stop
         offset="1"
         stop-color="#4000BF"
         id="stop12" />
    </linearGradient>
  </defs>
  <path
     id="path6"
     style="fill:#000000;fill-opacity:1;stroke-width:0.526785"
     d="M 8,0 C 3.58175,0 0,3.58175 0,8 c 0,4.418303 3.58175,8 8,8 4.41831,0 8,-3.581697 8,-8 C 16,3.58175 12.41831,0 8,0 Z m 0,2 c 3.31375,0 6,2.68626 6,6 0,3.313688 -2.68625,6 -6,6 C 4.68633,14 2,11.313688 2,8 2,7.508445 2.0584,7.031427 2.16993,6.574219 A 3.5439355,3.5439355 0 0 0 5.17774,8.251953 3.5439355,3.5439355 0 0 0 8.72266,4.707031 3.5439355,3.5439355 0 0 0 7.49024,2.023438 C 7.65842,2.009278 7.82817,1.999998 8,1.999998 Z" />
</svg>
