<?xml version="1.0" encoding="UTF-8" standalone="no"?>
<!-- Created with Inkscape (http://www.inkscape.org/) -->

<svg
   width="16"
   height="16"
   viewBox="0 0 4.2333332 4.2333333"
   version="1.1"
   id="svg2572"
   xmlns="http://www.w3.org/2000/svg"
   xmlns:svg="http://www.w3.org/2000/svg">
  <defs
     id="defs2569" />
  <path
     id="rect1711-61"
     style="display:inline;fill:#000000;fill-opacity:0.980392;stroke:none;stroke-width:0.0100934;stroke-linecap:butt;stroke-linejoin:miter;stroke-miterlimit:4;stroke-dasharray:none;stroke-dashoffset:0;stroke-opacity:1;marker:none;marker-start:none;marker-mid:none;marker-end:none;paint-order:normal;enable-background:new"
     d="M 0.31729327,0.11447869 C 0.14081587,0.11884791 -2.5e-8,0.26016659 -2.5e-8,0.43487256 V 3.7984915 c 0,0.177479 0.145156995,0.3203939 0.325561495,0.3203939 H 3.9077718 c 0.1804045,0 0.3255615,-0.1429149 0.3255615,-0.3203939 V 0.43487256 c 0,-0.17747908 -0.145157,-0.32039387 -0.3255615,-0.32039387 H 0.32556147 c -0.002819,0 -0.005467,-6.936e-5 -0.008268,0 z m 0.2831869,0.47697346 H 1.3782104 V 0.87722282 H 1.1585856 V 1.8626924 H 1.3782104 V 2.146396 H 0.60048017 V 1.8626924 h 0.217041 V 0.87722282 h -0.217041 z m 1.72340893,0.002067 h 0.350883 V 1.6110281 c 0,0.092297 -0.011823,0.1731444 -0.037207,0.2423625 -0.025383,0.069218 -0.061855,0.1269772 -0.1080038,0.1731161 -0.048453,0.048453 -0.1064818,0.083137 -0.1756998,0.1085205 -0.069218,0.023069 -0.1453485,0.034624 -0.2284099,0.034623 -0.1222886,0 -0.2236163,-0.023097 -0.3043741,-0.069246 C 1.7380155,2.054255 1.6710497,1.998886 1.6179891,1.9365897 L 1.8324463,1.696811 c 0.043835,0.048453 0.090007,0.087551 0.1338419,0.1152385 0.046149,0.027687 0.094488,0.041341 0.1498617,0.041341 0.0646,0 0.1155225,-0.020481 0.1524455,-0.062012 0.036913,-0.041531 0.055294,-0.1063868 0.055294,-0.1963704 z M 0.60048017,3.4171194 H 2.1177002 V 3.6760183 H 0.60048017 Z" />
</svg>
