<?xml version="1.0" encoding="UTF-8" standalone="no"?>
<svg
   height="16px"
   viewBox="0 0 16 16"
   width="16px"
   version="1.1"
   id="svg364"
   xmlns="http://www.w3.org/2000/svg"
   xmlns:svg="http://www.w3.org/2000/svg">
  <defs
     id="defs368" />
  <path
     style="fill:#000000;stroke-width:0.727273"
     d="m 5.8181815,0 c 0,0 0.839273,0.5134545 0.247273,1.8632727 -0.896,2.0349091 0.826909,2.5003637 0.826909,2.5003637 0,0 -0.547636,-0.4770909 0.181818,-2.1563637 C 7.8799995,0.3469091 5.8181815,0 5.8181815,0 Z m 3.053818,2.8036364 c 0,0 -1.525091,0.6778181 -0.542545,2.5287272 0.649454,1.2269091 -0.07127,1.8349091 -0.07127,1.8349091 0,0 1.8429095,-0.6072727 0.954182,-2.3010909 C 8.4138205,3.3352727 8.8720025,2.8036364 8.8720025,2.8036364 Z m -4.747636,0.1054545 c 0,0 -1.092364,1.1629091 -0.01091,2.5905455 0.714909,0.9505454 0.247273,1.7730909 0.247273,1.7730909 0,0 1.353454,-1.2007273 0.374545,-2.5141818 C 3.8516355,3.5730909 4.1243625,2.9090909 4.1243635,2.9090909 Z m 0.236364,4.3636364 H 0.7272725 L 2.9090905,16 h 8.0000005 l 0.493818,-1.432 c 0.242182,0.06036 0.492364,0.102545 0.752728,0.102545 1.720726,-7.27e-4 3.117091,-1.106181 3.117091,-2.827636 0,-1.460364 -1.008728,-2.6763635 -2.365091,-3.0138181 L 13.194909,7.2727273 4.3599995,7.272 Z M 12.658909,9.832 c 0.01164,0.00145 0.02255,0.00364 0.03418,0.00582 0.554181,0.1490909 0.762182,1.167273 0.465455,2.275636 -0.290183,1.080728 -0.955638,1.851637 -1.505455,1.744728 z"
     id="path14" />
</svg>
