<?xml version="1.0" encoding="UTF-8" standalone="no"?>
<svg
   width="16"
   height="16"
   version="1.1"
   id="svg10191"
   xmlns="http://www.w3.org/2000/svg"
   xmlns:svg="http://www.w3.org/2000/svg">
  <defs
     id="defs10195" />
  <g
     id="g703"
     transform="translate(20.731539,59.620603)">
    <path
       style="fill:#000000"
       d="m -13.241102,-59.620603 0.0195,16 h 0.9805 v -16 z"
       id="path504" />
    <path
       style="fill:#000000"
       d="m -18.241102,-55.620603 v 2 h 4 v -2 z"
       id="path506" />
    <path
       style="fill:#000000"
       d="m -19.241102,-52.620603 v 2 h 5 v -2 z"
       id="path508" />
    <path
       style="fill:#000000"
       d="m -17.241102,-49.620603 v 2 h 3 v -2 z"
       id="path510" />
    <path
       style="fill:#000000"
       d="m -10.741102,-59.620603 h -2 -2 l 1,1.5 1,1.5 1,-1.5 z"
       id="path512" />
    <path
       style="fill:#000000"
       d="m -10.790102,-55.620603 c -0.204,0.0132 -0.425,0.2291 -0.424,0.4683 l -0.008,7.0627 c 0,0.319 0.391,0.596 0.615,0.407 l 4.216,-3.5436 c 0.226,-0.1872 0.225,-0.6262 0,-0.8141 l -4.208,-3.519 c -0.056,-0.047 -0.122,-0.0657 -0.191,-0.0613 z"
       id="path514" />
  </g>
</svg>
