<?xml version="1.0" encoding="UTF-8" standalone="no"?>
<svg
   height="16px"
   viewBox="0 0 16 16"
   width="16px"
   version="1.1"
   id="svg4"
   xmlns="http://www.w3.org/2000/svg"
   xmlns:svg="http://www.w3.org/2000/svg">
  <defs
     id="defs4" />
  <clipPath
     id="a">
    <rect
       height="152"
       width="192"
       id="rect1" />
  </clipPath>
  <filter
     id="b"
     height="1"
     width="1"
     x="0"
     y="0">
    <feColorMatrix
       in="SourceGraphic"
       type="matrix"
       values="0 0 0 0 1 0 0 0 0 1 0 0 0 0 1 0 0 0 1 0"
       id="feColorMatrix1" />
  </filter>
  <mask
     id="c">
    <g
       filter="url(#b)"
       id="g2">
      <rect
         fill-opacity="0.1"
         height="16"
         width="16"
         id="rect2" />
    </g>
  </mask>
  <clipPath
     id="d">
    <rect
       height="152"
       width="192"
       id="rect3" />
  </clipPath>
  <g
     clip-path="url(#d)"
     mask="url(#c)"
     transform="matrix(1 0 0 1 -168 -16)"
     id="g4">
    <path
       d="m 72.113281 33.382812 c -25.691406 0 -46.519531 20.828126 -46.519531 46.519532 c 0.007812 0.335937 0.019531 0.671875 0.035156 1.007812 c 0.390625 -25.398437 21.082032 -45.789062 46.484375 -45.804687 c 25.289063 0.011719 45.9375 20.226562 46.484375 45.511719 c 0.015625 -0.238282 0.027344 -0.476563 0.035156 -0.714844 c 0 -25.691406 -20.828124 -46.519532 -46.519531 -46.519532 z m 0 0"
       id="path3" />
  </g>
  <path
     d="m 7.9979763,0 c -2.12202,0 -4.15511,0.840882 -5.65467,2.340724 -3.12441005,3.125008 -3.12441005,8.190512 0,11.31552 3.12442,3.125008 8.1889597,3.125008 11.3133797,0 3.12442,-3.125008 3.12442,-8.190512 0,-11.31552 C 12.157126,0.840882 10.119996,0 7.9979763,0 Z m 0,1.693892 c 0.40015,0.004 0.79626,0.04447 1.18833,0.125324 0.008,0.05256 0.0121,0.101067 0.0121,0.153622 0,0.663003 -0.53758,1.200683 -1.20046,1.200683 -0.66288,0 -1.20045,-0.53768 -1.20045,-1.200683 0.004,-0.05255 0.008,-0.10511 0.0162,-0.153622 0.39207,-0.08085 0.7881799,-0.121282 1.1842899,-0.125324 z M 9.3358562,1.8556 c 0.4042,0.08894 0.7962598,0.214263 1.1761998,0.380014 C 10.132116,2.069863 9.7400563,1.94454 9.3358562,1.8556 Z m -2.67576,0 c -0.38803,0.0849 -0.77201,0.206178 -1.13983,0.367886 0.36782,-0.161708 0.7518,-0.28299 1.13983,-0.367886 z m 3.9570598,0.424483 c 0.19805,0.09298 0.39206,0.19405 0.57799,0.307246 -0.18593,-0.113196 -0.37994,-0.214263 -0.57799,-0.307246 z m -5.2464398,0.004 c -0.18593,0.08894 -0.37185,0.185967 -0.5497,0.291077 0.17785,-0.10511 0.36377,-0.202134 0.5497,-0.291074 z m -0.6265,0.335547 c -0.10509,0.638747 -0.0242,1.297708 0.23848,1.887942 0.32335,0.715558 0.88922,1.293664 1.59656,1.629209 0,0.004 -0.004,0.0081 -0.004,0.01213 v 5.910428 c 0,0.01213 0.004,0.02021 0.008,0.02021 h 0.0162 l 1.4268,1.386647 1.38639,-1.386647 h 0.0121 c 0.004,0 0.008,-0.0081 0.008,-0.02021 V 10.729291 L 10.014796,10.139056 9.4327563,9.560949 V 9.415413 L 10.366446,8.465378 9.4327563,7.535557 V 6.148911 c 0,-0.004 0,-0.0081 0,-0.01213 1.3176697,-0.634704 2.0613797,-2.069863 1.8229097,-3.513107 0.43653,0.254689 0.84072,0.561935 1.20046,0.917692 2.46153,2.462005 2.46153,6.456194 0,8.918199 -2.4615397,2.462004 -6.4549797,2.462004 -8.9165097,0 -2.46154,-2.462005 -2.46154,-6.456194 0,-8.918199 0.36377,-0.355758 0.76796,-0.663003 1.2044899,-0.921736 z m 2.36049,4.289306 h 0.4122801 c 0.004,0 0.008,0.0081 0.008,0.01617 v 4.705702 c 0,0.01213 -0.004,0.02022 -0.008,0.02022 h -0.41228 c -0.004,0 -0.008,-0.0081 -0.008,-0.02022 V 6.925105 c 0,-0.0081 0.004,-0.01617 0.008,-0.016169 z m 0,0"
     fill="#241f31"
     id="path4"
     style="fill:#000000;stroke-width:1.03483" />
</svg>
