<?xml version="1.0" encoding="UTF-8" standalone="no"?>
<svg
   height="16px"
   viewBox="0 0 16 16"
   width="16px"
   version="1.1"
   id="svg135"
   xmlns="http://www.w3.org/2000/svg"
   xmlns:svg="http://www.w3.org/2000/svg">
  <defs
     id="defs139" />
  <path
     id="path4-3-3"
     style="clip-rule:evenodd;fill:#000000;fill-opacity:1;fill-rule:evenodd;stroke-width:3.30576"
     d="m 10.527889,14.545441 c 0.201982,0 0.363566,-0.383789 0.363566,-0.877233 0,-0.493445 -0.161584,-0.877233 -0.363566,-0.877233 -0.201981,0 -0.363567,0.383788 -0.363567,0.877233 0,0.493444 0.161586,0.877233 0.363567,0.877233 z M 15.852264,7.967835 C 15.35882,7.446979 13.110912,8.077489 11.740235,8.927309 10.671107,8.379039 9.3826716,8.050078 8.0119966,8.050078 c -1.398092,0 -2.686528,0.328961 -3.755657,0.877231 -1.370674,-0.84982 -3.64599799,-1.507744 -4.11202699,-0.959474 -0.493444,0.548271 0.356376,2.823594 1.37067599,4.084617 0,0 0,0 0,0 -0.08224,0.328961 -0.137067,0.657924 -0.137067,1.014301 0,1.096541 0.466029,2.110841 1.261022,2.933247 h 4.523231 c -0.137068,-0.274135 0.05483,-0.438617 0.877233,-0.438617 0.822408,0.02741 0.986887,0.164482 0.877233,0.438617 h 4.5232324 c 0.794993,-0.822406 1.261023,-1.864121 1.261023,-2.933247 0,-0.356377 -0.05483,-0.68534 -0.137067,-1.014301 0.959473,-1.261023 1.781879,-3.563759 1.288435,-4.084617 z M 5.4351226,15.205008 c -0.959473,0 -1.754466,-0.794994 -1.754466,-1.754466 0,-0.959473 0.794993,-1.754466 1.754466,-1.754466 0.959473,0 1.754466,0.794993 1.754466,1.754466 0,0.959472 -0.794993,1.754466 -1.754466,1.754466 z m 5.1537434,0 c -0.9594734,0 -1.7544654,-0.794994 -1.7544654,-1.754466 0,-0.959473 0.794992,-1.754466 1.7544654,-1.754466 0.959475,0 1.754466,0.794993 1.754466,1.754466 0,0.959472 -0.767578,1.754466 -1.754466,1.754466 z M 5.4321156,14.545442 c 0.201982,0 0.363567,-0.383789 0.363567,-0.877233 0,-0.493444 -0.161585,-0.877233 -0.363567,-0.877233 -0.201981,0 -0.363566,0.383789 -0.363566,0.877233 0,0.493444 0.161585,0.877233 0.363566,0.877233 z" />
</svg>
