<?xml version="1.0" encoding="UTF-8" standalone="no"?>
<!-- Created with Inkscape (http://www.inkscape.org/) -->

<svg
   width="16"
   height="16"
   viewBox="0 0 16 16"
   version="1.1"
   id="svg326"
   inkscape:version="1.2.2 (b0a8486541, 2022-12-01)"
   sodipodi:docname="kvantum-symbolic.svg"
   xmlns:inkscape="http://www.inkscape.org/namespaces/inkscape"
   xmlns:sodipodi="http://sodipodi.sourceforge.net/DTD/sodipodi-0.dtd"
   xmlns="http://www.w3.org/2000/svg"
   xmlns:svg="http://www.w3.org/2000/svg">
  <sodipodi:namedview
     id="namedview328"
     pagecolor="#ffffff"
     bordercolor="#000000"
     borderopacity="0.25"
     inkscape:showpageshadow="2"
     inkscape:pageopacity="0.0"
     inkscape:pagecheckerboard="0"
     inkscape:deskcolor="#d1d1d1"
     inkscape:document-units="px"
     showgrid="false"
     inkscape:zoom="49.5"
     inkscape:cx="7.989899"
     inkscape:cy="8"
     inkscape:window-width="1920"
     inkscape:window-height="1007"
     inkscape:window-x="0"
     inkscape:window-y="0"
     inkscape:window-maximized="1"
     inkscape:current-layer="svg326" />
  <defs
     id="defs323" />
  <path
     d="m 2.615319,4 9.7e-5,0.973351 0.804965,0.063143 0.1444,0.1894085 L 2.129238,11.779154 1.908387,11.976506 1,12.040046 v 0.959898 L 4.999938,13 5.000062,12.040152 4.091866,11.984782 3.938969,11.779564 4.525086,9.003953 h 0.900365 l 1.2911257,2.525564 c 0.5277,1.007123 0.897888,1.43889 2.038622,1.452249 0.327999,0.0039 0.459949,0.02629 1.3448113,0 3.051954,-2.367516 4.609782,-4.371769 4.855913,-5.187674 0.149068,-0.494166 -0.0876,-0.797243 -0.594732,-0.797243 -0.247381,0 -0.530596,0.0968 -0.849264,0.29217 l -0.229342,1.896436 c -0.624618,0.75847 -1.457296,1.584681 -2.471814,2.446615 L 11.697135,8.172457 C 11.836387,7.505844 11.558569,7.150173 11.093046,7.012239 L 9.3357747,7.438507 9.2254867,7.801492 10.18519,7.943646 C 10.25191,8.173463 9.9626637,8.873142 9.8169617,9.643219 l -0.467182,2.39133 c -0.0074,0.0246 -0.01201,0.05158 -0.01702,0.07892 -0.302929,-0.151233 -0.493889,-0.42053 -0.713518,-0.828663 l -1.826251,-3.393751 3.3382023,-2.7912795 0.868877,-0.102593 -1.4e-4,-0.997066 -3.0000053,2.75e-5 1.5e-4,0.9971155 0.585147,0.06306 0.08495,0.2131065 L 5.14794,7.99909 H 4.723225 L 5.374426,5.226097 5.561299,5.0366895 6.3846307,4.9735705 6.3845447,4.000119 Z"
     style="fill:#000000"
     id="path316" />
</svg>
