<?xml version="1.0" encoding="UTF-8" standalone="no"?>
<svg
   height="16px"
   viewBox="0 0 16 16"
   width="16px"
   version="1.1"
   id="svg364"
   xmlns="http://www.w3.org/2000/svg"
   xmlns:svg="http://www.w3.org/2000/svg">
  <defs
     id="defs368">
    <linearGradient
       id="linearGradient1571"
       x1="16"
       x2="16"
       y1="26"
       y2="14"
       gradientUnits="userSpaceOnUse"
       gradientTransform="matrix(3.6881737,0,0,3.6881737,-72.286053,-66.108911)">
      <stop
         stop-color="#1a85d1"
         offset="0"
         id="stop9968" />
      <stop
         stop-color="#2dcbfd"
         offset="1"
         id="stop9970" />
    </linearGradient>
    <linearGradient
       id="linearGradient4966"
       x1="10"
       x2="10"
       y1="26"
       y2="14"
       gradientUnits="userSpaceOnUse"
       gradientTransform="matrix(1.9550935,0,0,1.9550935,-56.706448,-25.378215)">
      <stop
         stop-color="#1a85d1"
         offset="0"
         id="stop9784" />
      <stop
         stop-color="#2dcbfd"
         offset="1"
         id="stop9786" />
    </linearGradient>
    <linearGradient
       id="linearGradient4974"
       x1="14"
       x2="14"
       y1="26"
       y2="14"
       gradientUnits="userSpaceOnUse"
       gradientTransform="matrix(1.9550935,0,0,1.9550935,-56.706448,-25.378215)">
      <stop
         stop-color="#e75729"
         offset="0"
         id="stop9789" />
      <stop
         stop-color="#fe9c45"
         offset="1"
         id="stop9791" />
    </linearGradient>
    <linearGradient
       id="linearGradient5031"
       x1="18"
       x2="18"
       y1="26"
       y2="14"
       gradientUnits="userSpaceOnUse"
       gradientTransform="matrix(1.9550935,0,0,1.9550935,-56.706448,-25.378215)">
      <stop
         stop-color="#e5b443"
         offset="0"
         id="stop9794" />
      <stop
         stop-color="#fffb57"
         offset="1"
         id="stop9796" />
    </linearGradient>
    <linearGradient
       id="linearGradient5039"
       x1="22"
       x2="22"
       y1="26"
       y2="14"
       gradientUnits="userSpaceOnUse"
       gradientTransform="matrix(1.9550935,0,0,1.9550935,-56.706448,-25.378215)">
      <stop
         stop-color="#3cbc45"
         offset="0"
         id="stop9799" />
      <stop
         stop-color="#78fc4e"
         offset="1"
         id="stop9801" />
    </linearGradient>
  </defs>
  <path
     id="path2"
     style="fill:#000000;stroke-width:1.06667"
     d="M 4.800781,0 C 3.0466168,0 1.5996092,1.4450545 1.5996092,3.1992188 V 12.800781 C 1.5996092,14.554945 3.0466168,16 4.800781,16 h 6.398438 c 1.758332,0 3.201172,-1.445055 3.201172,-3.199219 V 4.8007812 c 0,-0.2833327 -0.108335,-0.5558595 -0.3125,-0.7558593 L 10.353516,0.3125 C 10.153516,0.1125002 9.8829429,0 9.5996092,0 Z m 0,2.1328125 h 4.265625 v 1.5996094 c 0,1.0666659 0.5329435,1.6015625 1.59961,1.6015625 h 1.601562 v 7.4667966 c 0,0.608333 -0.45586,1.066406 -1.068359,1.066407 H 4.800781 c -0.6083323,-1e-6 -1.0683593,-0.458074 -1.0683593,-1.066407 V 3.1992188 c 0,-0.6083324 0.460027,-1.0664063 1.0683593,-1.0664063 z" />
  <rect
     x="4.2921386"
     y="2.7500002"
     width="3.4999995"
     height="10.5"
     fill="url(#linearGradient4974)"
     id="rect9824-3"
     style="fill:#000000;fill-opacity:0.8;fill-rule:evenodd;stroke-width:1.75;stroke-linecap:square" />
  <rect
     x="8.2375574"
     y="7.9999995"
     width="3.4999995"
     height="5.25"
     fill="url(#linearGradient5031)"
     id="rect9826-5"
     style="fill:#000000;fill-rule:evenodd;stroke-width:1.75;stroke-linecap:square" />
</svg>
