<?xml version="1.0" encoding="UTF-8" standalone="no"?>
<svg
   height="16px"
   viewBox="0 0 16 16"
   width="16px"
   version="1.1"
   id="svg489"
   xmlns="http://www.w3.org/2000/svg"
   xmlns:svg="http://www.w3.org/2000/svg">
  <defs
     id="defs493" />
  <path
     d="M 4.8,0 C 3.0458336,0 1.6,1.4458336 1.6,3.2 v 9.6 c 0,1.754166 1.4458336,3.2 3.2,3.2 h 6.4 c 1.754166,0 3.2,-1.445834 3.2,-3.2 v -8 C 14.4,4.5166667 14.2875,4.2458336 14.0875,4.0458336 L 10.354166,0.3125003 C 10.154166,0.1125003 9.883333,0 9.6,0 Z m 0,2.1333333 h 4.2666667 v 1.6 c 0,1.0666667 0.5333333,1.6 1.6000003,1.6 h 1.6 V 12.8 c 0,0.608333 -0.458334,1.066667 -1.066667,1.066667 H 4.8 C 4.1916672,13.866667 3.7333333,13.408333 3.7333333,12.8 V 3.2 C 3.7333333,2.5916672 4.1916672,2.1333333 4.8,2.1333333 Z m 1.6,2.1333334 c -0.8791669,0 -1.6,0.720833 -1.6,1.6 0,0.8791669 0.7208331,1.6 1.6,1.6 0.8791669,0 1.6,-0.7208331 1.6,-1.6 0,-0.879167 -0.7208331,-1.6 -1.6,-1.6 z m 0,1.0666666 c 0.3,0 0.5333333,0.2333334 0.5333333,0.5333334 C 6.9333333,6.1666667 6.7,6.4 6.4,6.4 6.1,6.4 5.8666667,6.1666667 5.8666667,5.8666667 5.8666667,5.5666667 6.1,5.3333333 6.4,5.3333333 Z m 2.65,2.1208331 v 1.0666667 l 2.15,0.0125 V 7.4666667 Z M 4.8,9.6 v 1.066667 h 6.4 V 9.6 Z m 0,2.133333 V 12.8 h 6.4 v -1.066667 z m 0,0"
     fill="#2e3436"
     id="path487"
     style="fill:#000000;stroke-width:1.06667" />
</svg>
