<?xml version="1.0" encoding="UTF-8" standalone="no"?>
<svg
   height="16px"
   viewBox="0 0 16 16"
   width="16px"
   version="1.1"
   id="svg364"
   xmlns="http://www.w3.org/2000/svg"
   xmlns:svg="http://www.w3.org/2000/svg">
  <defs
     id="defs368" />
  <path
     d="M 4.8,0 C 3.045834,0 1.6,1.445834 1.6,3.2 v 9.6 c 0,1.754166 1.445834,3.2 3.2,3.2 h 6.4 c 1.758334,0 3.2,-1.445834 3.2,-3.2 v -8 C 14.4,4.516667 14.291667,4.245834 14.087501,4.045834 L 10.354167,0.3125 C 10.154167,0.1125 9.883334,0 9.6,0 Z m 0,2.133333 h 4.266667 v 1.6 c 0,1.066667 0.533333,1.6 1.6,1.6 h 1.6 V 12.8 c 0,0.608333 -0.454167,1.066667 -1.066667,1.066667 H 4.8 C 4.191667,13.866667 3.733333,13.408333 3.733333,12.8 V 3.2 C 3.733333,2.591667 4.191667,2.133333 4.8,2.133333 Z"
     fill="#2e3436"
     id="path2"
     style="fill:#000000;stroke-width:1.06667" />
</svg>
