<?xml version="1.0" encoding="UTF-8" standalone="no"?>
<svg
   height="16px"
   viewBox="0 0 16 16"
   width="16px"
   version="1.1"
   id="svg364"
   xmlns="http://www.w3.org/2000/svg"
   xmlns:svg="http://www.w3.org/2000/svg">
  <defs
     id="defs368" />
  <path
     id="path2"
     style="fill:#000000;stroke-width:1.06667"
     d="M 4.8007812 0 C 3.046617 0 1.5996094 1.4450545 1.5996094 3.1992188 L 1.5996094 12.800781 C 1.5996094 14.554945 3.046617 16 4.8007812 16 L 11.199219 16 C 12.957551 16 14.400391 14.554945 14.400391 12.800781 L 14.400391 4.8007812 C 14.400391 4.5174485 14.292056 4.2449217 14.087891 4.0449219 L 10.353516 0.3125 C 10.153516 0.1125002 9.8829431 0 9.5996094 0 L 4.8007812 0 z M 4.8007812 2.1328125 L 9.0664062 2.1328125 L 9.0664062 3.7324219 C 9.0664062 4.7990878 9.5993497 5.3339844 10.666016 5.3339844 L 12.267578 5.3339844 L 12.267578 12.800781 C 12.267578 13.409114 11.811718 13.867187 11.199219 13.867188 L 4.8007812 13.867188 C 4.1924489 13.867187 3.7324219 13.409114 3.7324219 12.800781 L 3.7324219 3.1992188 C 3.7324219 2.5908864 4.1924489 2.1328125 4.8007812 2.1328125 z M 8 5.5019531 C 6.5302815 5.5019531 5.2794451 5.9433088 4.7597656 6.5605469 C 4.7120257 6.6134857 4.6768781 6.6658087 4.6425781 6.71875 C 4.6084182 6.7718073 4.58294 6.8238992 4.5625 6.8769531 C 4.5555 6.8945631 4.553675 6.9120941 4.546875 6.9238281 C 4.533155 6.9650671 4.5205119 6.9999356 4.5136719 7.0351562 C 4.5068719 7.0880952 4.5 7.1423712 4.5 7.1953125 C 4.5 7.2482934 4.5059013 7.3063998 4.5195312 7.359375 C 4.5264312 7.4122039 4.5477094 7.4667084 4.5683594 7.5195312 C 4.5888194 7.5725122 4.6152782 7.6249115 4.6425781 7.6777344 C 4.6768781 7.7307833 4.7188857 7.7771364 4.7597656 7.8300781 C 5.2930251 8.4709098 6.5781614 8.8886719 8 8.8886719 C 9.4218386 8.8886719 10.706975 8.4709098 11.240234 7.8300781 C 11.281184 7.7829642 11.308638 7.7404586 11.335938 7.6992188 C 11.342937 7.6874758 11.350602 7.683626 11.357422 7.671875 C 11.377882 7.636656 11.396506 7.5938136 11.410156 7.5585938 C 11.417056 7.5409838 11.43067 7.5236214 11.4375 7.5058594 C 11.45136 7.4765154 11.459957 7.4416103 11.466797 7.4121094 C 11.473697 7.3886324 11.479658 7.3652895 11.486328 7.3359375 C 11.493128 7.2888655 11.5 7.2422764 11.5 7.1953125 C 11.5 7.1365066 11.494049 7.0842025 11.480469 7.0253906 C 11.446449 6.8606956 11.363154 6.7076318 11.240234 6.5605469 C 10.720555 5.9433079 9.4697185 5.5019531 8 5.5019531 z M 4.7597656 8.8886719 C 4.5889658 9.0828294 4.5 9.2936409 4.5 9.5058594 C 4.5 10.411174 6.0653419 11.146484 8 11.146484 C 9.9346581 11.146484 11.5 10.411174 11.5 9.5058594 C 11.5 9.2936409 11.410894 9.0828294 11.240234 8.8886719 C 10.706975 9.5061361 9.4286986 10.017578 8 10.017578 C 6.5713014 10.017578 5.2930251 9.5061361 4.7597656 8.8886719 z M 4.7597656 11.146484 C 4.5889658 11.340641 4.5 11.552585 4.5 11.763672 C 4.5 12.670115 6.0653419 13.402344 8 13.402344 C 9.9346581 13.402344 11.5 12.668986 11.5 11.763672 C 11.5 11.552585 11.411034 11.340641 11.240234 11.146484 C 10.706975 11.763948 9.4286986 12.273438 8 12.273438 C 6.5713014 12.273438 5.2930251 11.763948 4.7597656 11.146484 z " />
</svg>
