<?xml version="1.0" encoding="UTF-8" standalone="no"?>
<!-- Created with Inkscape (http://www.inkscape.org/) -->

<svg
   width="16"
   height="16"
   viewBox="0 0 16 16"
   id="svg4230"
   version="1.1"
   xmlns="http://www.w3.org/2000/svg"
   xmlns:svg="http://www.w3.org/2000/svg"
   xmlns:rdf="http://www.w3.org/1999/02/22-rdf-syntax-ns#"
   xmlns:cc="http://creativecommons.org/ns#"
   xmlns:dc="http://purl.org/dc/elements/1.1/">
  <defs
     id="defs4232" />
  <metadata
     id="metadata4235">
    <rdf:RDF>
      <cc:Work
         rdf:about="">
        <dc:format>image/svg+xml</dc:format>
        <dc:type
           rdf:resource="http://purl.org/dc/dcmitype/StillImage" />
        <cc:license
           rdf:resource="http://creativecommons.org/licenses/by-sa/4.0/" />
      </cc:Work>
      <cc:License
         rdf:about="http://creativecommons.org/licenses/by-sa/4.0/">
        <cc:permits
           rdf:resource="http://creativecommons.org/ns#Reproduction" />
        <cc:permits
           rdf:resource="http://creativecommons.org/ns#Distribution" />
        <cc:requires
           rdf:resource="http://creativecommons.org/ns#Notice" />
        <cc:requires
           rdf:resource="http://creativecommons.org/ns#Attribution" />
        <cc:permits
           rdf:resource="http://creativecommons.org/ns#DerivativeWorks" />
        <cc:requires
           rdf:resource="http://creativecommons.org/ns#ShareAlike" />
      </cc:License>
    </rdf:RDF>
  </metadata>
  <path
     d="m 7.9999995,-5e-7 c -4.418308,0 -8,3.581731 -8,8 C -5e-7,12.41827 3.5816915,16 7.9999995,16 12.41827,16 16,12.41827 16,7.9999995 c 0,-4.418269 -3.58173,-8 -8.0000005,-8 z M 7.1711925,14.807654 c -1.517847,-0.181769 -2.922231,-0.86123 -4.019962,-1.958923 -1.295154,-1.295154 -2.008385,-3.0171155 -2.008385,-4.8487315 0,-1.648846 0.578308,-3.208615 1.6385,-4.448423 0.02731,0.327577 0.09473,0.678769 0.07746,0.929808 -0.06308,0.915192 -0.153385,1.487961 0.382307,2.260077 0.208693,0.300731 0.259962,0.731846 0.361539,1.079923 0.09935,0.340538 0.496231,0.519154 0.769961,0.728961 0.55227,0.423424 1.080616,0.915577 1.666231,1.288231 0.3865,0.2459625 0.627923,0.3683085 0.514731,0.8399625 -0.09104,0.379308 -0.116461,0.612961 -0.312692,0.950884 -0.05989,0.103116 0.226038,0.766077 0.321192,0.861231 0.288385,0.288346 0.574539,0.552885 0.888885,0.8125 0.487346,0.402654 -0.04735,0.925846 -0.279769,1.5045 z M 12.848731,12.84873 c -0.985884,0.985885 -2.219192,1.634078 -3.5598465,1.887732 0.19,-0.469846 0.528308,-0.887308 0.8421155,-1.129309 0.272962,-0.210615 0.614847,-0.615729 0.757423,-0.936615 0.142462,-0.320461 0.331193,-0.598268 0.522193,-0.892962 C 11.682347,11.358385 10.740654,10.726193 10.4355,10.593693 9.7488075,10.295576 9.2318845,9.8933075 8.6216155,9.4638845 c -0.434808,-0.305923 -1.317577,0.159769 -1.808462,-0.0545 -0.672346,-0.293577 -1.226269,-0.803692 -1.810692,-1.243808 -0.603077,-0.454192 -0.573923,-0.983692 -0.573923,-1.653731 0.472384,0.01742 1.144384,-0.13073 1.458,0.249154 0.09896,0.119885 0.43923,0.655462 0.667,0.465154 0.186077,-0.1555 -0.137885,-0.778808 -0.200462,-0.925346 -0.1925,-0.450577 0.438615,-0.626308 0.761654,-0.931846 0.421538,-0.398616 1.325769,-1.02377 1.254308,-1.3095 -0.07146,-0.285731 -0.90477,-1.09527 -1.394193,-0.968962 -0.07335,0.01892 -0.719115,0.696039 -0.843884,0.802269 0.0033,-0.221 0.0066,-0.441961 0.01,-0.662961 0.0021,-0.139539 -0.260308,-0.28277 -0.248116,-0.37277 0.03077,-0.227461 0.663923,-0.640269 0.821423,-0.821423 -0.110346,-0.06896 -0.486884,-0.392384 -0.600846,-0.344923 -0.275923,0.115 -0.587538,0.194231 -0.863461,0.309193 0,-0.09569 -0.01162,-0.185577 -0.02546,-0.274347 a 6.791731,6.791731 0 0 1 1.742693,-0.505846 l 0.541692,0.217693 0.382461,0.453884 0.381693,0.393577 0.333654,0.1075 0.529961,-0.499808 -0.136656,-0.356807 v -0.320731 c 1.0480775,0.152231 2.0378475,0.543231 2.9046935,1.146154 -0.155077,0.01388 -0.3255,0.03669 -0.51777,0.06115 -0.07942,-0.04692 -0.181307,-0.06823 -0.267884,-0.100885 0.251192,0.540077 0.513192,1.072692 0.779384,1.605616 0.284347,0.569269 0.915116,1.179884 1.025885,1.780807 0.130539,0.708308 0.03996,1.351693 0.111385,2.185039 0.06877,0.8025 0.904769,1.714308 0.904769,1.714308 0,0 0.386038,0.1315 0.707077,0.08569 -0.299269,1.1839625 -0.912808,2.2697695 -1.798808,3.1558465 z"
     id="path1"
     style="stroke-width:1" />
</svg>
