<?xml version="1.0" encoding="UTF-8" standalone="no"?>
<svg
   width="16"
   height="16"
   version="1"
   id="svg566"
   xmlns="http://www.w3.org/2000/svg"
   xmlns:svg="http://www.w3.org/2000/svg">
  <defs
     id="defs570" />
  <path
     fill="#ffffff"
     d="m 10.666666,3.5942035 c 0,0 -1.043478,0.695652 -2.666666,0.695652 -1.623188,0 -2.550723,-0.695652 -2.550723,-0.695652 0,0 0.231884,1.15942 -0.115943,2.666667 -0.347826,0.927536 -0.811594,1.623188 -1.507247,2.202898 0,0 1.391306,0.231884 2.434784,0.927536 C 7.304348,10.202899 8,11.594203 8,11.594203 c 0,0 0.57971,-1.391304 1.623188,-2.0869565 1.043478,-0.811594 2.550725,-0.927536 2.550725,-0.927536 0,0 -1.043479,-1.275362 -1.507247,-2.31884 -0.463768,-1.159421 0,-2.666667 0,-2.666667 z M 9.15942,8.6956525 C 8.463769,9.1594206 8,9.9710146 8,9.9710146 L 6.840579,8.6956525 5.333334,8.1159426 c 0,0 0.579709,-0.8115941 0.811593,-1.6231881 0.231885,-0.463769 0.231885,-1.043479 0.231885,-1.623189 0,0 0.811592,0.347826 1.623188,0.347826 0.695651,0 1.623188,-0.347826 1.623188,-0.347826 0,0 -0.231884,0.927536 0.115942,1.73913 0.231884,0.695653 0.927536,1.5072471 0.927536,1.5072471 z m 3.246377,-3.130435 c -0.231884,-0.8115939 0.57971,-5.21739095 0.57971,-5.21739095 0,0 -3.014493,2.08695695 -5.10145,2.08695695 -2.086955,0 -4.869564,-2.08695695 -4.869564,-2.08695695 0,0 0.927537,3.13043495 0.347826,5.21739095 C 2.898552,7.5362325 0,9.8550725 0,9.8550725 c 0,0 3.710146,0.1159421 5.101449,1.1594215 C 6.608695,11.942029 8,15.652173 8,15.652173 c 0,0 1.855072,-4.05797 2.666666,-4.637679 C 11.47826,10.434783 16,9.7391305 16,9.7391305 c 0,0 -3.246377,-3.246376 -3.594203,-4.173913 z M 10.202898,10.318841 C 8.695651,11.246378 8,13.565217 8,13.565217 c 0,0 -1.159421,-2.550723 -2.318839,-3.362318 C 4.52174,9.3913045 1.971015,9.1594205 1.971015,9.1594205 c 0,0 1.971015,-1.623188 2.434784,-3.246377 0.463766,-1.507246 -0.115943,-3.8260859 -0.115943,-3.8260859 0,0 2.086956,1.2753619 3.594201,1.2753619 1.623189,0 3.826087,-1.2753619 3.826087,-1.2753619 0,0 -0.695652,2.4347819 -0.115941,3.8260859 0.463768,1.507247 2.434782,3.246377 2.434782,3.246377 0,0 -2.318841,0.115942 -3.826087,1.1594205"
     id="path2"
     style="fill:#000000;stroke-width:0.999999" />
</svg>
