<?xml version="1.0" encoding="UTF-8" standalone="no"?>
<svg
   height="16"
   viewBox="0 0 16 16"
   width="16"
   version="1.1"
   id="svg8"
   xml:space="preserve"
   xmlns="http://www.w3.org/2000/svg"
   xmlns:svg="http://www.w3.org/2000/svg"><defs
     id="defs12" /><g
     id="XMLID_3_"
     style="fill:#ffffff"
     transform="matrix(0.98880278,0,0,0.98880278,-262.33379,-64.406687)" /><path
     id="XMLID_5_"
     style="clip-rule:evenodd;fill:#000000;fill-rule:evenodd;stroke:none;stroke-width:0.0973892"
     class="st0"
     d="m 10.746058,6.5384893 -0.0584,-2.3763 -0.0487,-1.36345 -0.0292,-1.18815 c 0,0 0.01,-0.57459 -0.01,-0.70120004 0,-0.0292 -0.01,-0.0487 -0.0195,-0.0682 v -0.0195 c -0.0195,-0.0389 -0.0584,-0.0682 -0.0974,-0.0876 -0.0487,-0.0195 -0.0974,-0.01 -0.13634,0.01 0,0 -0.01,0 -0.01,0.01 -0.0195,0.01 -0.0389,0.0195 -0.0584,0.039 -0.0974,0.0974 -0.4382497,0.55511004 -0.4382497,0.55511004 l -0.74016,0.9252 -0.86676,1.06154 -1.49005,1.8504 c 0,0 -0.68173,0.84728 -0.53564,1.89909 0.14608,1.0518 0.93493,1.55822 1.53874,1.76274 0.60382,0.20452 1.53875,0.27269 2.2886497,-0.46747 0.73042,-0.7499 0.71094,-1.84065 0.71094,-1.84065 z m 1.95752,-5.00581 0.0876,1.69457 c 1.37319,1.51928 1.91857,3.67158 1.23684,5.69727 -1.02258,3.0190697 -4.3922497,4.6065097 -7.5379197,3.5449697 -3.14567,-1.06154 -4.84998,-4.3727797 -3.82739,-7.3918397 0.69146,-2.03544 2.43473,-3.41836 4.46042,-3.7787 l 1.09076,-1.29528004 c -3.41836,-0.0876 -6.6322,2.02570004 -7.79113,5.43432004 -1.41215,4.18773 0.82781,8.7260697 5.01554,10.1382097 4.18773,1.41214 8.7260697,-0.82781 10.1382097,-5.01554 1.14919,-3.3891397 -0.11686,-7.0314997 -2.87298,-9.0279797 z" /></svg>
