<?xml version="1.0" encoding="UTF-8" standalone="no"?>
<svg
   height="16px"
   viewBox="0 0 16 16"
   width="16px"
   version="1.1"
   id="svg135"
   xmlns="http://www.w3.org/2000/svg"
   xmlns:svg="http://www.w3.org/2000/svg"
   xmlns:figma="http://www.figma.com/figma/ns">
  <defs
     id="defs139" />
  <g
     id="g8"
     style="mix-blend-mode:normal;fill:#767677;fill-opacity:1;stroke-width:3.12531"
     figma:type="group"
     transform="matrix(0.31996847,0,0,0.31996847,-523.40777,-785.10341)">
    <g
       id="path16 fill"
       style="mix-blend-mode:normal;fill:#767677;fill-opacity:1;stroke-width:3.12531"
       figma:type="vector" />
  </g>
  <g
     id="g9"
     style="mix-blend-mode:normal;stroke-width:2.4631;fill:#000000"
     figma:type="group"
     transform="matrix(0.40599244,0,0,0.40599244,-666.72137,-997.88069)">
    <g
       id="path17 fill"
       style="mix-blend-mode:normal;stroke-width:2.4631;fill:#000000"
       figma:type="vector" />
  </g>
  <path
     id="rect11201"
     style="display:inline;fill:#000000;fill-opacity:1;stroke:none;stroke-width:0.926732;stroke-linecap:butt;stroke-linejoin:miter;stroke-miterlimit:4;stroke-dasharray:none;stroke-dashoffset:0;stroke-opacity:1;marker:none;paint-order:normal"
     d="M 1.7944594,2.6787027 C 0.63475215,2.8581335 -0.15399361,3.9356245 0.02543718,5.095332 l 1.29576772,8.374881 c 0.1794307,1.159707 1.2569218,1.948453 2.4166292,1.769022 L 14.205541,13.619664 c 1.159707,-0.179431 1.948453,-1.256922 1.769022,-2.416629 L 14.354992,0.73532795 12.262166,1.0591314 13.632383,2.9900556 12.91005,5.2465719 10.815435,5.5706523 11.539557,3.3138591 10.167551,1.3832118 8.0747256,1.7070153 9.4449418,3.6379394 8.7226094,5.8944557 6.6297836,6.2182593 7.3521162,3.9617429 5.9818998,2.0308189 3.8890739,2.3546224 5.2592905,4.2855465 4.5369577,6.5420627 2.4423432,6.8661431 3.1646759,4.6096267 Z M 2.4539193,8.657449 4.0247097,8.4162466 5.5103657,10.809178 6.2123388,8.0777751 7.7792749,7.8353376 8.5183598,12.624071 7.3518245,12.802728 6.8120035,9.301886 6.1059198,12.054072 5.3242404,12.175014 3.8227422,9.7625552 4.3628401,13.265185 3.1930041,13.446183 Z M 8.4252869,7.7372177 9.6648837,7.5454265 11.479969,10.883757 12.201317,7.1529877 13.442979,6.9627083 12.409146,12.023918 10.936737,12.249899 Z" />
</svg>
