<?xml version="1.0" encoding="UTF-8" standalone="no"?>
<svg
   height="16px"
   viewBox="0 0 16 16"
   width="16px"
   version="1.1"
   id="svg364"
   xmlns="http://www.w3.org/2000/svg"
   xmlns:svg="http://www.w3.org/2000/svg">
  <defs
     id="defs368" />
  <path
     d="m 0.87109575,2.1445287 c 0,-1.17968697 0.99609405,-2.1445309668631 2.17578105,-2.1445309668631 h 9.3789052 c 1.175781,0 2.175781,0.9648439968631 2.175781,2.1445309668631 v 4.9218752 c 0,0.511719 -0.441406,0.925782 -0.980468,0.925782 -0.542968,0 -0.980468,-0.414063 -0.980468,-0.925782 V 2.1445287 c 0,-0.121093 -0.08203,-0.183593 -0.214844,-0.183593 H 3.0468768 c -0.132813,0 -0.214844,0.0625 -0.214844,0.183593 V 13.546873 c 0,0.117187 0.082031,0.183594 0.214844,0.183594 h 3.339844 c 0.53125,0 0.964843,0.4375 0.964843,0.980469 0,0.539062 -0.433593,0.980468 -0.964843,0.980468 h -3.339844 c -1.179687,0 -2.17578105,-0.964844 -2.17578105,-2.144531 z M 7.4375018,12.32031 c 0,-0.265624 0.214844,-0.480468 0.480469,-0.480468 h 0.113281 c 0.226562,0 0.433594,-0.179688 0.503906,-0.394532 0.00391,-0.01172 0.00391,-0.02344 0.011719,-0.02734 0.070313,-0.214847 0.011719,-0.484378 -0.171875,-0.617191 l -0.09375,-0.06641 c -0.105469,-0.07422 -0.175781,-0.1875 -0.191406,-0.316406 -0.023438,-0.125 0.011718,-0.25 0.082031,-0.355469 0.15625,-0.2148401 0.460937,-0.2656211 0.671875,-0.1054651 l 0.097656,0.06641 c 0.183594,0.132812 0.457032,0.109374 0.640625,-0.02344 0.00391,-0.0039 0.015625,-0.01172 0.019531,-0.01563 0.183594,-0.132813 0.289063,-0.390625 0.222657,-0.601563 l -0.035157,-0.113281 c -0.082031,-0.25 0.054688,-0.523437 0.3085932,-0.605469 0.253906,-0.08203 0.523438,0.05859 0.60547,0.308594 l 0.03516,0.109375 c 0.07031,0.214844 0.304689,0.355469 0.527344,0.359375 h 0.03516 c 0.222658,0.0039 0.460938,-0.144531 0.53125,-0.359375 l 0.03516,-0.109375 c 0.08203,-0.253906 0.351562,-0.390625 0.605468,-0.308594 0.253906,0.08203 0.390625,0.355469 0.308594,0.605469 l -0.03906,0.113281 c -0.07031,0.214844 0.03906,0.46875 0.21875,0.601563 0.01172,0.0039 0.01953,0.01172 0.02344,0.01563 0.179687,0.1328121 0.460937,0.1562501 0.640625,0.02344 l 0.09766,-0.07031 c 0.214824,-0.156252 0.515605,-0.109377 0.671855,0.1093731 0.152344,0.210938 0.105469,0.511719 -0.105469,0.667969 l -0.09766,0.07031 c -0.179687,0.132813 -0.246094,0.402344 -0.171875,0.613281 0.0039,0.01172 0.0039,0.02344 0.01172,0.02734 0.06641,0.214844 0.277344,0.398438 0.503906,0.398438 h 0.113282 c 0.265624,0 0.480468,0.214844 0.480468,0.480468 0,0.265626 -0.214844,0.480469 -0.480468,0.480469 h -0.113283 c -0.226561,0 -0.4375,0.179688 -0.503906,0.394531 -0.0039,0.01172 -0.0078,0.01953 -0.01172,0.02734 -0.07422,0.214844 -0.01172,0.484375 0.171875,0.617188 l 0.09766,0.07031 c 0.210937,0.15625 0.257812,0.453125 0.105468,0.667969 -0.15625,0.214844 -0.457031,0.265625 -0.671875,0.109375 l -0.09766,-0.0703 c -0.179688,-0.132813 -0.457031,-0.109376 -0.640625,0.02344 -0.0039,0.0039 -0.01563,0.01172 -0.02344,0.01563 -0.179688,0.132812 -0.289063,0.386719 -0.21875,0.601562 l 0.03906,0.113282 c 0.08203,0.25 -0.05469,0.523437 -0.308594,0.605468 -0.253906,0.08203 -0.523437,-0.05859 -0.605468,-0.308593 l -0.03516,-0.109375 c -0.06641,-0.214844 -0.308593,-0.355469 -0.53125,-0.359375 h -0.03516 c -0.222656,-0.0078 -0.457031,0.144531 -0.527344,0.359375 l -0.03516,0.109375 c -0.08203,0.25 -0.351563,0.390625 -0.605469,0.308593 -0.2538852,-0.08204 -0.3906042,-0.355476 -0.3085732,-0.605476 l 0.035157,-0.113282 c 0.066406,-0.210937 -0.042969,-0.46875 -0.222657,-0.601562 -0.00391,-0.0039 -0.015624,-0.0078 -0.019531,-0.01563 -0.183593,-0.132813 -0.457031,-0.15625 -0.640625,-0.02344 l -0.097656,0.07031 c -0.210938,0.15625 -0.515625,0.109375 -0.671875,-0.105469 -0.074219,-0.105469 -0.105469,-0.234375 -0.082031,-0.359375 0.015625,-0.125 0.085937,-0.238281 0.191406,-0.3125 l 0.09375,-0.07031 c 0.179688,-0.132813 0.242188,-0.402344 0.171875,-0.613282 0,-0.01172 -0.00391,-0.02344 -0.00781,-0.03516 -0.070315,-0.210933 -0.281253,-0.394527 -0.503909,-0.394527 h -0.117187 c -0.261719,0 -0.480469,-0.214844 -0.480469,-0.480469 z m 1.921875,0 c 0,0.417969 0.132813,0.808594 0.359375,1.121094 0.00391,0.0039 0.00391,0.0078 0.011719,0.01172 0,0.0078 0,0.01172 0.00391,0.01953 0.234375,0.316406 0.5664052,0.554688 0.9492192,0.683594 h 0.0039 0.0039 c 0.410157,0.140625 0.796875,0.07422 1.183594,0 h 0.0039 c 0.386719,-0.125 0.714844,-0.367188 0.949219,-0.679688 0.0039,-0.0078 0.0078,-0.01172 0.01172,-0.01953 0.0039,-0.0039 0.0078,-0.0039 0.01172,-0.01172 0.226563,-0.316406 0.355469,-0.703124 0.355469,-1.121093 0,-0.410157 -0.125,-0.789063 -0.34375,-1.101563 -0.0039,-0.01172 -0.01563,-0.02344 -0.01953,-0.02734 -0.0039,-0.0039 -0.0078,-0.01172 -0.01172,-0.01562 -0.234375,-0.3125 -0.558593,-0.554688 -0.9375,-0.675782 -0.0039,-0.0039 -0.01172,-0.0039 -0.01563,-0.0078 -0.0039,0 -0.0039,-0.0039 -0.01172,-0.0039 -0.40625,-0.136719 -0.789063,-0.07031 -1.171876,0 -0.0039,0 -0.0039,0.0039 -0.0078,0.0039 -0.0039,0.0039 -0.0078,0.0039 -0.01563,0.0078 -0.378906,0.125 -0.7031242,0.363282 -0.9335932,0.679688 -0.00391,0.0039 -0.00781,0.01172 -0.00781,0.01172 -0.00391,0.0078 -0.015625,0.01953 -0.023438,0.02734 -0.214843,0.308594 -0.34375,0.6875 -0.34375,1.101563 z m 3.9531242,2.9375 c 0.0039,0 0.0078,-0.0039 0.01172,-0.0039 v -0.0039 0.0039 z m 0.164062,0.08203 c 0.02344,0.01172 0.04688,0.02344 0.07422,0.03516 -0.02344,0.01172 -0.03906,0.02344 -0.0625,0.03516 -0.0039,-0.02344 -0.0078,-0.04687 -0.0078,-0.07031 z"
     fill="#241f31"
     id="path2565"
     style="fill:#000000" />
  <path
     d="M 6.3412386,10.953804 V 9.3579766 L 3.6583712,9.3392755 V 10.935103 Z M 11.644585,7.7434459 V 6.1476163 H 3.6583712 v 1.5958296 z m 0,-3.1916579 V 2.9559583 H 3.6583712 V 4.551788 Z"
     style="fill:#000000;stroke-width:1.45744"
     id="path2847" />
</svg>
