<?xml version="1.0" encoding="UTF-8" standalone="no"?>
<svg
   height="16px"
   viewBox="0 0 16 16"
   width="16px"
   version="1.1"
   id="svg135"
   xmlns="http://www.w3.org/2000/svg"
   xmlns:svg="http://www.w3.org/2000/svg">
  <defs
     id="defs139" />
  <path
     d="m -102.88491,5.9775474 c -29.81422,0 -54.03019,24.2089136 -53.99282,53.9918056 0.008,5.958648 0.95772,11.690462 2.7414,17.05198 h 16.15586 v -45.42154 l 35.09619,35.091798 35.096195,-35.091798 v 45.42154 h 16.158165 c 1.786065,-5.361231 2.731787,-11.093045 2.742167,-17.05198 0.05201,-29.813367 -24.178304,-53.9860557 -53.995687,-53.9860557 z"
     fill="#f36e36"
     id="path3"
     style="stroke-width:8.99924;fill:#000000"
     clip-path="none"
     transform="matrix(0.14816172,0,0,0.14815211,23.243281,-0.88558644)" />
  <path
     d="m -110.95594,74.758162 -15.31598,-15.314928 v 28.581157 h -11.71004 l -11.04958,0.002 c 9.47792,15.547799 26.6068,25.948269 46.14606,25.948269 19.538967,0 36.668991,-10.40305 46.148931,-25.950857 l -11.053892,3.74e-4 H -79.500769 V 59.443033 l -23.385001,23.382361 -8.06873,-8.067433 z"
     fill="#575757"
     id="path4-6"
     style="stroke-width:8.99924;fill:#000000;fill-opacity:0.60000002"
     clip-path="none"
     transform="matrix(0.14816172,0,0,0.14815211,23.243281,-0.88558644)" />
</svg>
