<?xml version="1.0" encoding="UTF-8" standalone="no"?>
<svg
   height="16px"
   viewBox="0 0 16 16"
   width="16px"
   version="1.1"
   id="svg135"
   xmlns="http://www.w3.org/2000/svg"
   xmlns:svg="http://www.w3.org/2000/svg">
  <defs
     id="defs139" />
  <g
     id="path5382"
     transform="matrix(0.18256806,0,0,0.18256806,7.4735398,6.8397698)"
     style="fill:#000000;stroke:#000000;stroke-width:5.47741;stroke-dasharray:none;stroke-opacity:1">
    <path
       style="color:#000000;fill:#000000;stroke:#000000;stroke-width:5.47741;stroke-linecap:round;stroke-linejoin:bevel;stroke-dasharray:none;stroke-opacity:1"
       d="m -29.600188,46.477449 v -80.109332 m 0,0 25.0000002,80.109332 m 0,0 v -80.109332 m 0,0 20.0000018,80.054669 m 0,0 19.999998,-80.000002"
       id="path1" />
    <g
       id="path2"
       style="stroke-width:5.47741">
      <path
         style="color:#000000;stroke:none;stroke-width:5.47741;stroke-linecap:round;stroke-linejoin:bevel;-inkscape-stroke:none"
         d="m -29.599609,-34.882812 a 1.25,1.25 0 0 0 -0.271485,0.111328 1.25,1.25 0 0 0 -0.101562,-0.05273 1.25,1.25 0 0 0 -0.230469,0.191407 1.25,1.25 0 0 0 -0.355469,0.296875 1.25,1.25 0 0 0 -0.175781,0.423828 1.25,1.25 0 0 0 -0.115234,0.279297 v 80.109374 a 1.25,1.25 0 0 0 1.25,1.25 1.25,1.25 0 0 0 1.25,-1.25 v -71.906249 l 22.5566403,72.279296 a 1.25,1.25 0 0 0 0.125,0.06445 1.25,1.25 0 0 0 1.0683593,0.8125 1.25,1.25 0 0 0 0.2675782,-0.111328 1.25,1.25 0 0 0 0.1035156,0.05469 1.25,1.25 0 0 0 0.4433593,-0.28125 1.25,1.25 0 0 0 0.076172,-0.04687 1.25,1.25 0 0 0 0.3203125,-0.773438 1.25,1.25 0 0 0 0.039063,-0.0918 V -23.470703 L 14.1875,46.726562 a 1.25,1.25 0 0 0 0.849609,0.808594 1.25,1.25 0 0 0 0.05859,0.09961 1.25,1.25 0 0 0 0.302735,-0.04492 1.25,1.25 0 0 0 0.304687,0.04492 1.25,1.25 0 0 0 0.222656,-0.123047 1.25,1.25 0 0 0 0.175781,-0.09766 1.25,1.25 0 0 0 0.5,-0.671875 1.25,1.25 0 0 0 0.01172,-0.01563 l 20,-79.999999 a 1.25,1.25 0 0 0 -0.910156,-1.515625 1.25,1.25 0 0 0 -1.515625,0.908203 L 15.400391,41.265625 -3.3867188,-33.935547 a 1.25,1.25 0 0 0 -0.027344,-0.01563 1.25,1.25 0 0 0 -1.1855469,-0.93164 1.25,1.25 0 0 0 -0.2167968,0.08984 1.25,1.25 0 0 0 -0.085937,-0.05078 1.25,1.25 0 0 0 -0.2675782,0.197266 1.25,1.25 0 0 0 -0.375,0.277343 1.25,1.25 0 0 0 -0.1757812,0.425782 1.25,1.25 0 0 0 -0.1289063,0.310547 v 71.90821 L -28.40625,-34.003906 a 1.25,1.25 0 0 0 -0.01953,-0.0098 1.25,1.25 0 0 0 -1.173828,-0.86914 z"
         id="path23" />
      <path
         id="path24"
         style="color:#000000;stroke:none;stroke-width:5.47741;stroke-linecap:round;stroke-linejoin:bevel;-inkscape-stroke:none"
         d="m -29.568921,-37.464218 c -4.460616,0.199114 -4.037762,5.523674 -3.823544,8.706237 -0.08067,25.2388221 -0.03155,50.482229 -0.02495,75.722303 0.407859,5.235506 9.257906,3.35808 7.650221,-1.627649 0,-17.943036 0,-35.8860722 0,-53.8291084 5.835365,18.7027494 11.670731,37.4054994 17.5060959,56.1082484 1.7436004,4.610967 8.36928091,2.445754 7.52941052,-2.186685 C -0.81611721,29.457052 -0.74519099,13.481197 -0.7685728,-2.4923621 3.5119815,14.386851 7.557952,31.341173 11.985383,48.173374 c 1.981179,3.731675 7.474752,1.805909 7.460954,-2.253105 6.635084,-26.334477 13.203542,-52.6891538 19.77336,-79.040955 0.879254,-5.176137 -8.159329,-5.508091 -7.813894,-0.283275 C 26.069313,-12.061304 20.732823,9.2813531 15.396333,30.62401 9.8820185,8.6860541 4.5057936,-13.288162 -1.0965461,-35.203017 c -1.5029608,-3.764805 -7.6827763,-2.261356 -7.3010941,1.814006 -0.075182,18.232615 -0.016022,36.4847064 -0.034889,54.725511 C -14.37975,2.4411653 -20.139462,-16.519099 -26.205556,-35.373317 c -0.631691,-1.235219 -1.969284,-2.088896 -3.363365,-2.090901 z" />
    </g>
  </g>
</svg>
