<?xml version="1.0" encoding="UTF-8"?>
<svg height="16px" viewBox="0 0 16 16" width="16px" xmlns="http://www.w3.org/2000/svg" xmlns:xlink="http://www.w3.org/1999/xlink">
    <filter id="a" height="100%" width="100%" x="0%" y="0%">
        <feColorMatrix color-interpolation-filters="sRGB" values="0 0 0 0 1 0 0 0 0 1 0 0 0 0 1 0 0 0 1 0"/>
    </filter>
    <mask id="b">
        <g filter="url(#a)">
            <rect fill-opacity="0.1" height="19.2" width="19.2" x="-1.6" y="-1.6"/>
        </g>
    </mask>
    <clipPath id="c">
        <rect height="152" width="192"/>
    </clipPath>
    <mask id="d">
        <g filter="url(#a)">
            <rect fill-opacity="0.1" height="19.2" width="19.2" x="-1.6" y="-1.6"/>
        </g>
    </mask>
    <clipPath id="e">
        <path d="m 0 20 h 110 v 124 h -110 z m 0 0"/>
    </clipPath>
    <clipPath id="f">
        <rect height="152" width="192"/>
    </clipPath>
    <mask id="g">
        <g filter="url(#a)">
            <rect fill-opacity="0.1" height="19.2" width="19.2" x="-1.6" y="-1.6"/>
        </g>
    </mask>
    <clipPath id="h">
        <rect height="152" width="192"/>
    </clipPath>
    <mask id="i">
        <g filter="url(#a)">
            <rect fill-opacity="0.6" height="19.2" width="19.2" x="-1.6" y="-1.6"/>
        </g>
    </mask>
    <clipPath id="j">
        <rect height="152" width="192"/>
    </clipPath>
    <g mask="url(#b)">
        <g clip-path="url(#c)" transform="matrix(1 0 0 1 -168 -16)">
            <path d="m 72 26 c -29.824219 0 -54 24.175781 -54 54 c 0.007812 0.390625 0.023438 0.78125 0.042969 1.171875 c 0.453125 -29.484375 24.46875 -53.152344 53.957031 -53.171875 c 29.355469 0.015625 53.320312 23.480469 53.957031 52.828125 c 0.015625 -0.277344 0.03125 -0.550781 0.042969 -0.828125 c 0 -29.824219 -24.175781 -54 -54 -54 z m 0 0"/>
        </g>
    </g>
    <g mask="url(#d)">
        <g clip-path="url(#f)" transform="matrix(1 0 0 1 -168 -16)">
            <path d="m -626.011292 393.5513 v 56" fill="none" stroke="#000000" stroke-width="8" transform="matrix(1 0 0 1 690.011292 -331.5513)"/>
            <g clip-path="url(#e)">
                <path d="m -626.011292 413.5513 c 0 8.835938 -7.164062 16 -16 16 c -8.835937 0 -16 -7.164062 -16 -16 c 0 -8.835937 7.164063 -16 16 -16 c 8.835938 0 16 7.164063 16 16 z m 0 0" fill="none" stroke="#000000" stroke-width="8" transform="matrix(1 0 0 1 690.011292 -331.5513)"/>
            </g>
        </g>
    </g>
    <g mask="url(#g)">
        <g clip-path="url(#h)" fill="none" stroke="#000000" stroke-width="8" transform="matrix(1 0 0 1 -168 -16)">
            <path d="m -610.011292 377.5513 v 56" transform="matrix(1 0 0 1 690.011292 -331.5513)"/>
            <path d="m -578.011292 413.5513 c 0 8.835938 -7.164062 16 -16 16 c -8.835937 0 -16 -7.164062 -16 -16 c 0 -8.835937 7.164063 -16 16 -16 c 8.835938 0 16 7.164063 16 16 z m 0 0" transform="matrix(1 0 0 1 690.011292 -331.5513)"/>
        </g>
    </g>
    <path d="m 8 0 v 12 h 2 v -0.542969 c 0.589844 0.34375 1.273438 0.542969 2 0.542969 c 2.199219 0 4 -1.800781 4 -4 s -1.800781 -4 -4 -4 c -0.726562 0 -1.410156 0.199219 -2 0.542969 v -4.542969 z m 4 6 c 1.117188 0 2 0.882812 2 2 s -0.882812 2 -2 2 s -2 -0.882812 -2 -2 s 0.882812 -2 2 -2 z m 0 0"/>
    <g mask="url(#i)">
        <g clip-path="url(#j)" transform="matrix(1 0 0 1 -168 -16)">
            <path d="m 172 20 c -2.199219 0 -4 1.800781 -4 4 s 1.800781 4 4 4 c 0.726562 0 1.410156 -0.199219 2 -0.542969 v 4.542969 h 2 v -12 h -2 v 0.542969 c -0.589844 -0.34375 -1.273438 -0.542969 -2 -0.542969 z m 0 2 c 1.117188 0 2 0.882812 2 2 s -0.882812 2 -2 2 s -2 -0.882812 -2 -2 s 0.882812 -2 2 -2 z m 0 0"/>
        </g>
    </g>
</svg>
