<?xml version="1.0" encoding="UTF-8" standalone="no"?>
<svg
   height="16"
   viewBox="0 0 16 16"
   width="16"
   version="1.1"
   id="svg66"
   xmlns="http://www.w3.org/2000/svg"
   xmlns:svg="http://www.w3.org/2000/svg">
  <defs
     id="defs70" />
  <linearGradient
     id="a"
     gradientUnits="userSpaceOnUse"
     x1="1.2326"
     x2="127.23087"
     y1="94.961456"
     y2="94.961456">
    <stop
       offset="0.430974"
       stop-color="#da310b"
       id="stop2" />
    <stop
       offset="0.5"
       stop-color="#f94106"
       id="stop4" />
    <stop
       offset="0.568848"
       stop-color="#d9310c"
       id="stop6" />
  </linearGradient>
  <linearGradient
     id="b"
     gradientUnits="userSpaceOnUse"
     x1="64.009232"
     x2="63.962883"
     y1="120.49664"
     y2="65.709473">
    <stop
       offset="0"
       stop-color="#f84707"
       id="stop9" />
    <stop
       offset="1"
       stop-color="#c53907"
       id="stop11" />
  </linearGradient>
  <linearGradient
     id="c"
     gradientUnits="userSpaceOnUse"
     x1="64.159668"
     x2="64.024414"
     y1="123.41293"
     y2="61.621437">
    <stop
       offset="0"
       stop-color="#de3d07"
       id="stop14" />
    <stop
       offset="1"
       stop-color="#ab3007"
       id="stop16" />
  </linearGradient>
  <linearGradient
     id="d"
     gradientUnits="userSpaceOnUse"
     x1="1.234538"
     x2="127.23013"
     y1="65.532249"
     y2="65.532249">
    <stop
       offset="0.43326"
       stop-color="#72b418"
       id="stop19" />
    <stop
       offset="0.499045"
       stop-color="#91c91d"
       id="stop21" />
    <stop
       offset="0.568834"
       stop-color="#72b418"
       id="stop23" />
  </linearGradient>
  <linearGradient
     id="e"
     gradientUnits="userSpaceOnUse"
     x1="63.995056"
     x2="64.058632"
     y1="90.593506"
     y2="34.81908">
    <stop
       offset="0"
       stop-color="#a1d926"
       id="stop26" />
    <stop
       offset="1"
       stop-color="#83b01c"
       id="stop28" />
  </linearGradient>
  <linearGradient
     id="f"
     gradientUnits="userSpaceOnUse"
     x1="64.103813"
     x2="64.067101"
     y1="92.273781"
     y2="31.860346">
    <stop
       offset="0"
       stop-color="#8bb82e"
       id="stop31" />
    <stop
       offset="1"
       stop-color="#6d8f24"
       id="stop33" />
  </linearGradient>
  <linearGradient
     id="g"
     gradientUnits="userSpaceOnUse"
     x1="1.230837"
     x2="127.23049"
     y1="37.038383"
     y2="37.038383">
    <stop
       offset="0.427092"
       stop-color="#1d90c9"
       id="stop36" />
    <stop
       offset="0.499685"
       stop-color="#22a7dd"
       id="stop38" />
    <stop
       offset="0.569245"
       stop-color="#1d8fc8"
       id="stop40" />
  </linearGradient>
  <linearGradient
     id="h"
     gradientUnits="userSpaceOnUse"
     x1="63.999195"
     x2="63.973019"
     y1="62.281796"
     y2="5.1856852">
    <stop
       offset="0"
       stop-color="#4db9e5"
       id="stop43" />
    <stop
       offset="1"
       stop-color="#23a5dc"
       id="stop45" />
  </linearGradient>
  <path
     d="m 2.6583466,10.239388 -2.23795642,0.996013 c -0.5605202,0.239585 -0.5605202,0.647326 0,0.911217 l 6.58040802,3.020857 c 0.5362146,0.239585 1.4380072,0.239585 1.9985271,0 l 6.5799117,-3.020857 c 0.561017,-0.240081 0.561017,-0.647326 0,-0.911217 L 13.410426,10.226443 8.9256743,12.40072 c -0.6190525,0.203374 -1.2978781,0.199148 -1.8623667,0.01016 z"
     fill="url(#e)"
     id="path500"
     style="fill:#000000;fill-opacity:1;fill-rule:evenodd;stroke-width:0.126985" />
  <path
     d="m 2.658346,6.5949148 -2.23795593,0.996013 c -0.5605201,0.239585 -0.5605201,0.647327 0,0.911218 L 7.0007967,11.523002 c 0.5362143,0.239586 1.4380067,0.239586 1.9985266,0 L 15.579234,8.5021458 c 0.561016,-0.240082 0.561016,-0.647327 0,-0.911218 l -2.168812,-1.008957 -4.4847497,2.174276 c -0.6190524,0.203375 -1.297878,0.199148 -1.8623663,0.01016 z"
     fill="url(#e)"
     id="path56"
     style="fill:#000000;fill-opacity:1;fill-rule:evenodd;stroke-width:0.126986" />
  <path
     d="M 7.0007982,7.8028528 0.42039017,4.7819962 c -0.5605202,-0.2633948 -0.5605202,-0.6711361 0,-0.9107212 L 7.0007982,0.85041819 c 0.5605203,-0.26389092 1.4623129,-0.26389092 1.9985271,0 L 15.579237,3.871275 c 0.561017,0.2633948 0.561017,0.6711361 0,0.9107212 L 8.9993253,7.8028528 c -0.5605199,0.240081 -1.4623125,0.240081 -1.9985271,0 z m 0,0"
     fill="url(#h)"
     id="path62"
     style="fill:#000000;fill-opacity:1;fill-rule:evenodd;stroke-width:0.126985" />
</svg>
