<svg id="Layer_1" data-name="Layer 1" xmlns="http://www.w3.org/2000/svg" viewBox="0 0 16 16"><title>org.onlyoffice.desktopeditors-symbolic</title><path d="M7.26,13.32l-4.9-2.24c-.42-.2-.42-.5,0-.68l1.7-.79,3.18,1.47a2,2,0,0,0,1.49,0L11.9,9.61l1.71.79c.41.19.41.5,0,.68l-4.9,2.24A2,2,0,0,1,7.26,13.32Z"/><path d="M7.26,10.56,2.36,8.31c-.42-.2-.42-.5,0-.68L4,6.86,7.26,8.35a2,2,0,0,0,1.48,0L12,6.86l1.67.77c.42.2.42.5,0,.68l-4.9,2.25A2,2,0,0,1,7.26,10.56Z"/><path d="M7.26,7.86,2.36,5.62c-.42-.2-.42-.5,0-.68l4.9-2.25a1.9,1.9,0,0,1,1.48,0l4.9,2.25c.42.19.42.5,0,.68L8.74,7.86A2.1,2.1,0,0,1,7.26,7.86Z"/></svg>