<?xml version="1.0" encoding="UTF-8" standalone="no"?>
<svg
   width="16"
   height="16"
   version="1.1"
   id="svg9"
   xmlns="http://www.w3.org/2000/svg"
   xmlns:svg="http://www.w3.org/2000/svg">
  <defs
     id="defs3">
    <style
       id="current-color-scheme"
       type="text/css">
   .ColorScheme-Text { color:#dfdfdf; } .ColorScheme-Highlight { color:#4285f4; } .ColorScheme-NeutralText { color:#ff9800; } .ColorScheme-PositiveText { color:#4caf50; } .ColorScheme-NegativeText { color:#f44336; }
  </style>
  </defs>
  <path
     style="fill:#000000"
     class="ColorScheme-Text"
     d="m 1,9 v 6.25 C 1,15.665625 1.3345063,16 1.75,16 h 12.5 C 14.665625,16 15,15.665625 15,15.25 V 9 Z m 3,1 c 0.554,0 1,0.446 1,1 v 3 C 5,14.554 4.554,15 4,15 3.446,15 3,14.554 3,14 v -3 c 0,-0.554 0.446,-1 1,-1 z m 4,0 c 0.554,0 1,0.446 1,1 v 3 C 9,14.554 8.554,15 8,15 7.446,15 7,14.554 7,14 v -3 c 0,-0.554 0.446,-1 1,-1 z m 4,0 c 0.554,0 1,0.446 1,1 v 3 c 0,0.554 -0.446,1 -1,1 -0.554,0 -1,-0.446 -1,-1 v -3 c 0,-0.554 0.446,-1 1,-1 z"
     id="path7" />
  <path
     id="path92"
     style="opacity:0.5;fill:#000000;fill-opacity:1;stroke-width:0.253148"
     d="M 10.028089,0.01100947 C 8.3156361,0.01112207 6.4713348,0.93148046 5.4308017,3.1927238 4.0255017,-0.14429668 -1.2172664,4.3894378 2.8951206,5.5130606 0.22590486,5.7315267 1.5957837,8.261867 2.2253362,8.1203115 1.8267928,8.4392776 1.936097,8.8429618 1.8906023,9.2207855 L 13.32476,10.201553 C 14.568676,10.074601 14.638252,9.0100159 13.755448,8.4791138 15.781544,7.5750466 14.391532,5.5444803 13.157235,5.7280883 15.369588,2.5663354 12.882177,0.01082279 10.028089,0.01100947 Z M 5.2452258,4.8429596 C 5.777018,4.842845 6.2081986,5.2738833 6.2082592,5.8056755 6.2083738,6.3375918 5.7771422,6.7688238 5.2452258,6.7687089 4.7134336,6.7686483 4.2823953,6.3374677 4.2825099,5.8056755 4.2825705,5.2740074 4.7135576,4.8430202 5.2452258,4.8429596 Z m 6.0283782,0 c 0.531668,5.97e-5 0.962657,0.4310468 0.962717,0.9627159 -5.9e-5,0.5316689 -0.431049,0.9626568 -0.962717,0.9627169 C 10.741812,6.7685071 10.31063,6.3374681 10.31057,5.8056755 10.310631,5.2738833 10.741812,4.842845 11.273604,4.8429596 Z M 7.1947261,6.5628646 H 9.323787 c 0.212035,0 0.3825525,0.1708361 0.3825525,0.3828701 v 0.4664737 c 0,1.6884977 -2.8944826,1.640602 -2.8944826,0 V 6.9457347 c 0,-0.212036 0.1708352,-0.3828701 0.3828692,-0.3828701 z" />
</svg>
