<?xml version="1.0" encoding="UTF-8" standalone="no"?>
<svg
   height="16px"
   viewBox="0 0 16 16"
   width="16px"
   version="1.1"
   id="svg135"
   xmlns="http://www.w3.org/2000/svg"
   xmlns:svg="http://www.w3.org/2000/svg">
  <defs
     id="defs139">
    <clipPath
       clipPathUnits="userSpaceOnUse"
       id="clipPath22">
      <g
         id="g23">
        <rect
           width="101.66216"
           height="103.9994"
           fill="#ffffff"
           id="rect22"
           x="-191.74918"
           y="7.6631536"
           style="stroke-width:1" />
      </g>
    </clipPath>
  </defs>
  <path
     d="m -141.15001,7.6266549 c -25.52423,0 -46.21303,21.1558531 -46.21303,47.2562921 v 47.570383 c 0,5.05697 4.00914,9.15682 8.95472,9.15682 h 75.47335 c 4.41595,0 7.998349,-3.66354 7.998349,-8.17898 V 54.882947 c 0,-26.097026 -20.688649,-47.2562921 -46.213389,-47.2562921 z m 26.60093,46.9942621 -20.199,17.4004 c -3.64554,3.14192 -8.97803,3.14192 -12.62358,0 l -20.19903,-17.4004 c 0,-14.766332 11.70743,-26.738085 26.14746,-26.738085 h 0.72673 c 14.43999,0 26.14742,11.971753 26.14742,26.738085 z"
     fill="#6d4aff"
     id="path1"
     style="fill:#000000;stroke-width:6.49666"
     clip-path="url(#clipPath22)"
     transform="matrix(0.1539246,0,0,0.1539246,29.726431,-1.1795478)" />
</svg>
