<?xml version="1.0" encoding="UTF-8" standalone="no"?>
<svg
   height="16px"
   viewBox="0 0 16 16"
   width="16px"
   version="1.1"
   id="svg135"
   xmlns="http://www.w3.org/2000/svg"
   xmlns:svg="http://www.w3.org/2000/svg">
  <defs
     id="defs139" />
  <path
     id="path11-6"
     style="fill:#000000;stroke-width:1.2397"
     class="st1"
     d="m 14.632936,2.5126515 -0.44296,0.526969 c 0.366587,0.672076 0.511695,1.512172 0.427685,2.459188 0.190931,0.30549 0.366587,0.603342 0.519332,0.908831 0.320764,-1.527446 0.145107,-2.879236 -0.504057,-3.894988 z M 9.454893,0.8782835 C 7.576134,1.2983315 5.651552,2.4210045 4.040096,4.0400975 0.969929,7.1102645 -0.114558,11.135086 1.359428,13.479716 L 1.802387,12.952747 C 0.641528,10.844872 1.718377,7.2782835 4.49833,4.4983315 6.033413,2.9632485 7.843437,1.9016735 9.6,1.5121745 c 1.313604,-0.297852 2.474463,-0.190931 3.352745,0.290215 l 0.526969,-0.44296 C 12.433413,0.6949905 11.0358,0.5193345 9.454893,0.8782835 Z m 3.230549,3.956086 -0.420048,0.504058 c 2.505012,2.986157 3.161814,6.5680195 1.397613,8.3245825 -0.832458,0.832458 -2.138425,1.145584 -3.650596,0.901193 -0.282578,0.175656 -0.572793,0.336038 -0.863007,0.481146 0.641527,0.168019 1.252506,0.259665 1.832935,0.259665 1.267781,0 2.359905,-0.397135 3.138902,-1.176133 2.016229,-2.023866 1.336516,-6.0334135 -1.435799,-9.2945115 z M 1.871122,1.8711245 c -1.076849,1.076849 -1.428162,2.734128 -1.000477,4.666348 0.35895,1.580907 1.206682,3.192363 2.428639,4.6205255 L 3.719332,10.653941 C 2.604296,9.3174245 1.825299,7.8358015 1.496898,6.3923655 c -0.381862,-1.703103 -0.09165,-3.14654 0.824821,-4.063008 1.7642,-1.7642 5.338424,-1.107398 8.324582,1.397614 l 0.504057,-0.420048 C 7.896898,0.5346085 3.887351,-0.1451045 1.871122,1.8711245 Z m 9.034845,4.673985 c -0.03055,0.03055 -0.06873,0.0611 -0.106921,0.08401 0.198568,0.41241 0.320763,0.870644 0.320763,1.359427 0,1.718377 -1.397613,3.1159905 -3.11599,3.1159905 -0.488783,0 -0.947017,-0.114558 -1.359427,-0.320763 -0.03055,0.03819 -0.05346,0.07637 -0.08401,0.106921 C 6.4,11.051076 6.201432,11.15036 5.979953,11.180909 l -0.08401,0.221479 c 0.618616,0.381862 1.336516,0.603342 2.115513,0.603342 2.222434,0 4.024821,-1.802387 4.024821,-4.0248205 0,-0.778998 -0.22148,-1.496898 -0.603341,-2.115513 l -0.22148,0.08401 c -0.04582,0.229117 -0.145107,0.435322 -0.305489,0.595703 z m -5.81957,2.902148 c 0.03055,-0.03055 0.06874,-0.0611 0.106921,-0.08401 -0.198568,-0.41241 -0.320764,-0.870644 -0.320764,-1.359427 0,-1.718377 1.397613,-3.11599 3.115991,-3.11599 0.488782,0 0.947016,0.114558 1.359427,0.320764 0.03055,-0.03819 0.05346,-0.07637 0.08401,-0.106922 0.160382,-0.160381 0.35895,-0.259665 0.58043,-0.290214 l 0.08401,-0.22148 C 9.477807,4.2081165 8.759907,3.9866375 7.980909,3.9866375 c -2.222434,0 -4.024821,1.802386 -4.024821,4.024821 0,0.778997 0.22148,1.496897 0.610979,2.1155135 l 0.221479,-0.08401 C 4.826736,9.8138445 4.926017,9.6076395 5.086399,9.4472575 Z m 5.689737,-5.139857 -0.404773,1.038664 c -0.0611,-0.02291 -0.129833,-0.03819 -0.198568,-0.03819 -0.129833,0 -0.259666,0.05346 -0.35895,0.152744 -0.198568,0.198568 -0.198568,0.526969 0,0.725537 0.09928,0.09928 0.229117,0.152745 0.366587,0.152745 0.129833,0 0.259666,-0.05346 0.366587,-0.152745 0.152744,-0.152744 0.190931,-0.374224 0.114558,-0.557518 L 11.700239,5.2238645 16,0.1069195 15.90835,0.0152695 Z M 6.949881,13.403344 C 6.354177,13.059669 5.888306,12.715993 5.338425,12.257759 l -0.504057,0.420048 c 0.442959,0.381862 0.90883,0.725537 1.389976,1.038663 0.183294,-0.0611 0.565155,-0.213842 0.725537,-0.313126 z M 4.99475,15.297376 c 0.488783,0 1.008114,-0.0611 1.542721,-0.183293 1.878758,-0.420048 3.803341,-1.542721 5.414796,-3.161814 1.084487,-1.084487 1.962769,-2.3293555 2.543198,-3.6047725 l -0.504057,-0.473508 -0.03819,0.09928 -0.02291,0.05346 c -0.54988,1.221957 -1.389976,2.4286405 -2.436276,3.4673035 -1.535084,1.535084 -3.345108,2.596659 -5.101671,2.986158 -1.313604,0.297852 -2.474463,0.19093 -3.352745,-0.297852 l -0.526968,0.442959 c 0.694988,0.450597 1.535083,0.672076 2.4821,0.672076 z M 5.819571,9.6611005 c -0.129833,0 -0.259666,0.05346 -0.366587,0.152744 C 5.300239,9.9665895 5.262053,10.188069 5.338425,10.371362 L 4.299762,10.776135 0,15.89308 0.09165,15.98473 5.208595,11.684969 5.613368,10.646306 c 0.0611,0.02291 0.129833,0.03819 0.198568,0.03819 0.129833,0 0.259666,-0.05346 0.35895,-0.152745 0.198568,-0.198568 0.198568,-0.526969 0,-0.7255365 -0.09165,-0.09928 -0.221479,-0.145107 -0.351312,-0.145107 z m 4.10883,-1.664916 a 1.9322195,1.9322195 0 0 1 -1.93222,1.932219 1.9322195,1.9322195 0 0 1 -1.932219,-1.932219 1.9322195,1.9322195 0 0 1 1.932219,-1.93222 1.9322195,1.9322195 0 0 1 1.93222,1.93222 z" />
</svg>
