<?xml version="1.0" encoding="UTF-8" standalone="no"?>
<svg
   height="16"
   viewBox="0 0 16 16"
   width="16"
   version="1.1"
   id="svg4"
   xml:space="preserve"
   xmlns="http://www.w3.org/2000/svg"
   xmlns:svg="http://www.w3.org/2000/svg"><defs
     id="defs8" /><path
     class="st2"
     d="m 13.188635,14.042745 h 1.919999 L 15.108507,16 H 11.711574 L 6.8544293,8.7199995 H 5.1974532 V 14.042745 H 7.2627937 V 16 H 0.891366 V 14.042745 H 2.8467204 V 2.1462627 L 0.891366,1.8776912 V 0 C 1.719937,0.1885709 2.4399365,0.32 3.3427937,0.32 4.7027945,0.32 6.0913662,0 7.4513658,0 10.091366,0 12.542658,1.1995839 12.542658,4.1310129 12.542658,6.3995841 11.648118,7.84 9.539547,8.451428 Z M 5.1974526,6.8144227 6.1199371,6.8429947 c 3.3885709,0.051427 4.2260749,-0.7858526 4.2260749,-2.5229952 0,-2.0285718 -1.003218,-2.2462917 -2.8660753,-2.2462917 -0.8799996,0 -1.3224828,0.079999 -2.2824829,0.1885721 z"
     id="path264"
     style="display:inline;fill:#000000;fill-opacity:1;stroke-width:0.0571428" /><style
     type="text/css"
     id="style244">&#10;	.st0{fill:#75AADB;}&#10;	.st1{fill:#4D4D4D;}&#10;	.st2{fill:#FFFFFF;}&#10;	.st3{fill:url(#SVGID_1_);}&#10;	.st4{fill:url(#SVGID_2_);}&#10;	.st5{fill:url(#SVGID_3_);}&#10;	.st6{fill:url(#SVGID_4_);}&#10;	.st7{fill:url(#SVGID_5_);}&#10;	.st8{fill:url(#SVGID_6_);}&#10;	.st9{fill:url(#SVGID_7_);}&#10;	.st10{fill:url(#SVGID_8_);}&#10;	.st11{fill:url(#SVGID_9_);}&#10;	.st12{fill:url(#SVGID_10_);}&#10;	.st13{opacity:0.18;fill:url(#SVGID_11_);}&#10;	.st14{opacity:0.3;}&#10;</style></svg>
