<?xml version="1.0" encoding="UTF-8" standalone="no"?>
<svg
   viewBox="0 0 16 16"
   version="1.1"
   id="svg6"
   xmlns="http://www.w3.org/2000/svg"
   xmlns:svg="http://www.w3.org/2000/svg">
  <defs
     id="defs3051">
    <style
       type="text/css"
       id="current-color-scheme">
      .ColorScheme-Text {
        color:#232629;
      }
      </style>
  </defs>
  <path
     style="fill:#000000;fill-opacity:1;stroke:none;stroke-width:1.33334"
     d="M 4.424,0 C 1.98,0 0,1.9546666 0,4.364 c 0,0.8053334 0.2226666,1.5586666 0.6093334,2.2053334 -0.1013337,0.488 -0.156,0.9946666 -0.156,1.5133332 0,4.1559994 3.4173332,7.5266674 7.6333332,7.5266674 0.4773334,0 0.9426664,-0.04534 1.3959994,-0.128 C 10.105334,15.812 10.816,16 11.576,16 14.02,16 16,14.045334 16,11.636 16,10.94 15.833334,10.282666 15.538666,9.698666 15.653334,9.178666 15.716,8.6386666 15.716,8.084 15.716,3.928 12.3,0.56 8.0853334,0.56 7.64,0.56 7.2053334,0.5986666 6.78,0.6693334 6.0973334,0.2453334 5.2893334,0 4.4226666,0 M 8.032,2.7893334 c 0.6813334,0 1.281334,0.078666 1.781334,0.232 C 10.316,3.176 10.74,3.384 11.073334,3.6413334 11.409334,3.9 11.658666,4.1773334 11.816,4.464 c 0.158666,0.2906666 0.24,0.5773334 0.24,0.8573334 C 12.056,5.5906666 11.949334,5.836 11.741334,6.048 11.532,6.2626666 11.270666,6.3706666 10.96,6.3706666 10.677334,6.3706666 10.454666,6.3013334 10.301334,6.168 10.158666,6.044 10.010666,5.8506666 9.845334,5.572 9.654666,5.2146666 9.425334,4.9346666 9.16,4.736 8.904,4.544 8.476,4.4466666 7.8866666,4.4466666 c -0.5466666,0 -0.992,0.1066663 -1.3226666,0.32 C 6.2453334,4.972 6.092,5.2093334 6.092,5.488 c 0,0.172 0.048,0.3146666 0.1506666,0.4373334 0.108,0.1306666 0.2626668,0.2453332 0.456,0.3413332 0.2,0.1 0.408,0.1786668 0.6146668,0.2346668 C 7.5253334,6.56 7.88,6.6453334 8.368,6.756 c 0.6173334,0.1306666 1.185334,0.2786666 1.688,0.4373334 0.508,0.16 0.946666,0.356 1.305334,0.5853332 0.365332,0.2346668 0.657332,0.536 0.861332,0.896 C 12.429334,9.036 12.532,9.482666 12.532,10 c 0,0.62 -0.18,1.185334 -0.533334,1.68 -0.352,0.493334 -0.876,0.884 -1.552,1.161334 -0.669332,0.274666 -1.4693326,0.412 -2.382666,0.412 -1.096,0 -2.0173334,-0.190668 -2.7346666,-0.565334 C 4.816,12.414666 4.3946666,12.045334 4.0746666,11.589334 3.7506666,11.128 3.5853334,10.672 3.5853334,10.229334 c 0,-0.276 0.1093337,-0.516 0.32,-0.710668 C 4.1146666,9.324 4.38,9.226666 4.7,9.226666 c 0.2626666,0 0.488,0.07866 0.672,0.232 C 5.548,9.605334 5.6986666,9.821334 5.82,10.101334 5.956,10.406666 6.104,10.664 6.26,10.866666 6.4093334,11.062666 6.6226666,11.228 6.8986666,11.356 7.176,11.485334 7.5493334,11.549334 8.008,11.549334 c 0.6306666,0 1.148,-0.130668 1.536,-0.393334 0.38,-0.256 0.565334,-0.564 0.565334,-0.94 0,-0.297334 -0.096,-0.530666 -0.294668,-0.713334 C 9.606666,9.310666 9.333334,9.162666 9,9.06 8.6533334,8.9533334 8.184,8.8386666 7.6013334,8.7186666 6.8093334,8.552 6.136,8.352 5.6013334,8.128 5.0546666,7.8986666 4.612,7.5813334 4.2893334,7.1826666 c -0.328,-0.404 -0.492,-0.912 -0.492,-1.508 0,-0.568 0.1746666,-1.0813332 0.5186666,-1.524 C 4.6573334,3.712 5.156,3.372 5.7973334,3.1373334 6.4306666,2.9066666 7.1826666,2.788 8.0346666,2.788"
     class="ColorScheme-Text"
     id="path4" />
</svg>
