<?xml version="1.0" encoding="UTF-8" standalone="no"?>
<svg
   height="16px"
   viewBox="0 0 16 16"
   width="16px"
   version="1.1"
   id="svg135"
   xmlns="http://www.w3.org/2000/svg"
   xmlns:svg="http://www.w3.org/2000/svg">
  <defs
     id="defs139" />
  <path
     id="path16310"
     style="color:#000000;fill:#000000;stroke-width:0.0391128;-inkscape-stroke:none"
     d="m 7.9740376,2.0048827 c -2.771421,0 -4.738002,0.765567 -6.025391,1.9296875 -1.20690805,1.0913435 -1.81060905,2.5226419 -1.92773405,3.9765625 -0.04087,0.3607449 -0.018903,0.7298778 0.054687,1.0742187 0.07673,0.3590656 0.276435,0.7130558 0.558594,0.9492188 0.208133,0.1742028 0.58154505,0.3124298 0.90429705,0.4082028 0.296259,0.08791 0.526807,0.134661 0.566406,0.142578 0.764788,2.032585 3.111714,3.509766 5.884766,3.509766 2.7719864,0 5.1185804,-1.476434 5.8847654,-3.507813 0.0228,-0.0045 0.269801,-0.05304 0.578125,-0.144531 0.322751,-0.09577 0.698118,-0.234 0.90625,-0.4082028 0.282159,-0.236163 0.479908,-0.5901532 0.55664,-0.9492188 0.0523,-0.2447509 0.07962,-0.5011752 0.07617,-0.7597656 h 0.0078 V 8.2041014 C 15.943017,6.6511115 15.327809,5.0983181 14.026772,3.9345702 12.725724,2.7708141 10.745459,2.0048827 7.9740376,2.0048827 Z m 0,0.2734375 c 2.7214154,0 4.6321864,0.7457536 5.8749994,1.8574219 0.80942,0.7240056 1.329574,1.6056482 1.615235,2.5429687 -0.263383,-0.3135383 -0.61628,-0.5670683 -0.996094,-0.6953125 -0.259422,-0.087594 -0.660064,-0.072365 -0.998047,-0.037109 -0.332327,0.034666 -0.598443,0.088007 -0.607422,0.089844 -1.12538,-1.172732 -2.8906964,-1.9277344 -4.8730464,-1.9277344 -0.0265,0 -0.053659,-2.689e-4 -0.080078,0 -1.949546,0.019836 -3.679435,0.7710705 -4.789063,1.9277344 -0.019663,-0.004 -0.272432,-0.055919 -0.597656,-0.089844 -0.337982,-0.035256 -0.740578,-0.050484 -1,0.037109 C 1.1470416,6.1102958 0.80089155,6.3601884 0.53849055,6.6689452 0.81985555,5.7352955 1.3327306,4.8569309 2.1302876,4.1357421 3.3592826,3.024424 5.2526206,2.2783202 7.9740376,2.2783202 Z m -1.375,6.0507812 a 0.46498501,0.52017736 0 0 1 0.464843,0.5195313 0.46498501,0.52017736 0 0 1 -0.464843,0.5195312 0.46498501,0.52017736 0 0 1 -0.466797,-0.5195312 0.46498501,0.52017736 0 0 1 0.466797,-0.5195313 z m 2.78125,0 a 0.46498501,0.52017736 0 0 1 0.466797,0.5195313 0.46498501,0.52017736 0 0 1 -0.466797,0.5195312 0.46498501,0.52017736 0 0 1 -0.464844,-0.5195312 0.46498501,0.52017736 0 0 1 0.464844,-0.5195313 z m -1.34375,1.0644531 c 1.192649,0 2.1660154,0.8155255 2.1660154,1.8261715 0,1.010645 -0.9733664,1.824219 -2.1660154,1.824219 -1.192651,0 -2.166016,-0.813574 -2.166016,-1.824219 0,-1.010646 0.973365,-1.8261715 2.166016,-1.8261715 z M 7.3412246,10.89746 c -0.203628,0.0094 -0.369141,0.162827 -0.36914,0.353516 0,0.196841 0.176054,0.353516 0.388671,0.353516 0.21262,0 0.388672,-0.156675 0.388672,-0.353516 0,-0.196841 -0.176052,-0.353515 -0.388672,-0.353516 -0.0066,0 -0.012961,-3.01e-4 -0.019531,0 z m 1.244141,0 c -0.20363,0.0094 -0.369141,0.162827 -0.369141,0.353516 0,0.196841 0.176052,0.353516 0.388672,0.353516 0.21262,0 0.388672,-0.156675 0.388672,-0.353516 0,-0.196841 -0.176052,-0.353515 -0.388672,-0.353516 -0.0066,0 -0.01296,-3.01e-4 -0.019531,0 z" />
  <g
     id="path3592" />
</svg>
