<?xml version="1.0" encoding="UTF-8" standalone="no"?>
<svg
   height="16px"
   viewBox="0 0 16 16"
   width="16px"
   version="1.1"
   id="svg135"
   xmlns="http://www.w3.org/2000/svg"
   xmlns:svg="http://www.w3.org/2000/svg">
  <defs
     id="defs139" />
  <path
     class="a"
     d="M 14.647478,0.71681325 A 2.6823407,2.6823407 0 0 0 12.951149,0.11352971 H 2.6953308 A 2.6726105,2.6726105 0 0 0 1.4401122,0.42490184 2.7196406,2.7196406 0 0 0 0.35030988,1.4806478 2.3920513,2.3920513 0 0 0 0.21732793,1.7466115 c -0.0227042,0.061626 -0.0502734,0.1216297 -0.0713561,0.1816336 A 2.4844898,2.4844898 0 0 0 0.04866822,2.3061081 2.5947674,2.5947674 0 0 0 1.6320915e-5,2.8104661 V 13.066284 A 2.6547715,2.6547715 0 0 0 0.26597983,14.23393 2.6953147,2.6953147 0 0 0 2.6985743,15.758355 H 8.1686684 A 0.14433394,0.14433394 0 0 0 8.3146239,15.614021 V 14.96533 A 0.14595567,0.14595567 0 0 0 8.1686684,14.819374 H 7.4583508 L 5.33875,10.518547 10.179613,4.1078498 a 0.5416577,0.5416577 0 0 0 0.0892,-0.1881206 L 14.701,4.5976121 v 0.9973638 a 0.1475774,0.1475774 0 0 0 0.145956,0.1459557 h 0.658423 A 0.14595567,0.14595567 0 0 0 15.649706,5.5949759 V 2.8088444 A 2.680719,2.680719 0 0 0 14.647478,0.71681325 Z M 9.0654849,1.0606198 9.2941487,2.8866875 5.711748,2.3385428 5.5495751,1.0606198 Z m -6.3701541,0 H 4.6657324 L 4.8068228,2.1958306 2.1942165,1.8033719 1.3671344,1.6752554 A 1.7384942,1.7384942 0 0 1 2.6953308,1.0606198 Z M 4.6900583,3.0683211 2.8623689,5.5009155 1.422273,2.5655849 Z M 0.94710624,3.5856528 2.1179951,5.9582432 0.94710624,6.1025771 Z m 0,3.4056323 L 2.5250493,6.7918123 4.1597526,10.101762 0.94710624,10.505573 Z M 6.485313,14.819374 H 2.8412865 A 1.8990454,1.8990454 0 0 1 0.94710624,12.91222 V 11.373198 L 4.5651851,10.919114 Z M 4.9073701,9.6492998 3.2856404,6.3766496 5.6614744,3.230494 c 0,0 0,0 0,0 L 9.3233399,3.7916124 Z M 14.697752,3.7202563 10.189343,3.0196692 9.9444622,1.0557546 h 2.8607308 a 1.8990454,1.8990454 0 0 1 1.892559,1.8990455 z"
     id="path86"
     style="fill:#000000;stroke-width:0.162173" />
  <path
     class="b"
     d="m 15.434016,6.9945286 a 0.24001598,0.24001598 0 0 1 0.227044,0.2594767 v 0.6973436 a 0.21569005,0.21569005 0 0 1 -0.243259,0.2432596 h -3.01804 c -0.747617,0 -1.185484,0.2594767 -1.185484,0.8432993 v 0.2124466 c 0,0.4540843 0.210824,0.8432996 1.007094,1.1352106 l 2.1569,0.859517 C 15.871885,11.812687 16,12.641391 16,13.533342 v 0.178391 c 0,1.817958 -1.08818,2.174739 -3.277515,2.174739 -1.412527,0 -2.693693,-0.113521 -2.9693869,-0.145956 C 9.5584907,15.724299 9.5098388,15.626995 9.5098388,15.497257 V 14.782074 A 0.21569005,0.21569005 0 0 1 9.7530981,14.538815 H 12.75492 c 1.297383,0 1.702816,-0.145956 1.702816,-0.8433 v -0.194607 c 0,-0.470302 -0.194608,-0.77843 -0.940603,-1.086559 L 11.212655,11.536993 C 9.9639231,11.050474 9.6557945,10.109871 9.6557945,9.2179197 V 8.8757349 c 0,-1.7839027 1.5568605,-2.027162 3.2937325,-2.027162 a 20.5538,20.5538 0 0 1 2.484489,0.1459557 z"
     id="path88"
     style="fill:#000000;stroke-width:0.162173" />
</svg>
