<?xml version="1.0" encoding="UTF-8" standalone="no"?>
<svg
   height="16px"
   viewBox="0 0 16 16"
   width="16px"
   version="1.1"
   id="svg135"
   xmlns="http://www.w3.org/2000/svg"
   xmlns:svg="http://www.w3.org/2000/svg">
  <defs
     id="defs139" />
  <path
     d="m 8.3638109,10.312148 c -0.077396,0.0054 -0.1576718,-0.01476 -0.2260681,-0.06264 L 0.14976267,4.6564854 C -0.00898912,4.5448914 -0.04786706,4.3256629 0.06372719,4.1665511 L 2.3157689,0.95048013 C 2.4270029,0.79136856 2.6465914,0.75249061 2.805343,0.86408465 L 9.692141,5.6860314 h 3.99543 c 0.09863,0 0.18755,0.040678 0.251627,0.1058344 0.0094,0.00972 0.116634,0.1061943 0.263866,0.2656661 l 1.694072,1.6940708 c 0.137153,0.1371528 0.137153,0.3599811 0,0.4974939 l -1.781187,1.7808264 v -0.0018 c -0.104395,0.112674 -0.175311,0.18035 -0.182871,0.18755 -0.06336,0.06192 -0.150112,0.100075 -0.245507,0.100075 H 8.3666907 Z"
     style="clip-rule:evenodd;display:inline;fill:#000000;fill-rule:evenodd;stroke-width:0.359982;stroke-linejoin:round;stroke-miterlimit:1.41421;enable-background:new;fill-opacity:0.69999999"
     id="path202" />
  <path
     d="m 8.3652509,5.6881912 0.00144,-0.00216 h 5.3208801 c 0.09539,0 0.182151,0.038158 0.245507,0.1000746 0.0076,0.0072 0.07992,0.075956 0.186111,0.19079 v -0.00324 l 1.777947,1.7779465 c 0.137153,0.1371528 0.137153,0.3599811 0,0.4974939 l -1.681113,1.6807517 c -0.153712,0.1681111 -0.267466,0.2699861 -0.276825,0.2797051 -0.06408,0.06552 -0.152992,0.106195 -0.251627,0.106195 H 9.6896212 L 2.805343,15.135895 c -0.1587516,0.111594 -0.3783401,0.07272 -0.4895741,-0.08604 L 0.06372719,11.833428 c -0.11159425,-0.159111 -0.07271631,-0.37834 0.08603548,-0.489934 L 8.1377428,5.7504679 c 0.068756,-0.048238 0.1493922,-0.068396 0.2275081,-0.062277 z"
     style="clip-rule:evenodd;display:inline;fill:#000000;fill-rule:evenodd;stroke-width:0.359982;stroke-linejoin:round;stroke-miterlimit:1.41421;enable-background:new"
     id="path204" />
</svg>
