<?xml version="1.0" encoding="UTF-8" standalone="no"?>
<svg
   height="16px"
   viewBox="0 0 16 16"
   width="16px"
   version="1.1"
   id="svg135"
   xmlns="http://www.w3.org/2000/svg"
   xmlns:svg="http://www.w3.org/2000/svg">
  <defs
     id="defs139" />
  <path
     fill-rule="evenodd"
     clip-rule="evenodd"
     d="m 11.402261,0.00150017 c -0.01843,-4.64e-4 -0.0369,-0.001000001 -0.05537,-0.001500001031 H 7.6495519 C 5.2292449,0.13057217 4.2118589,1.5367012 3.9389039,2.2855572 c -1.060633,3.179227 -1.720614,7.297057 -2.197035,10.2695468 -0.0093,0.05799 -0.01852,0.11553 -0.02769,0.172616 l -0.154786,1.412799 c -0.0092,0.223058 0.01168,0.464589 0.07176,0.699125 0.297284,0.861925 1.193647,1.588032 3.168429,0.864643 l 2.08e-4,9.6e-4 c 1.865432,-0.813547 4.068975,-1.82448 6.3477261,-2.958595 1.297318,-0.75022 3.197711,-2.474927 3.29517,-4.6534498 -0.01757,-1.615821 -0.07168,-3.309855 -0.181425,-4.958482 l -4.8e-4,0.001 -5.2e-5,-0.01138 c -0.009,-0.135415 -0.01842,-0.292109 -0.02819,-0.455226 -0.01883,-0.313258 -0.03906,-0.65022 -0.06081,-0.905692 -0.03222,-0.177112 -0.07345,-0.337224 -0.124341,-0.481886 -0.316538,-0.70626403 -0.936629,-1.04683503 -1.59075,-1.20969603 -0.298316,-0.05173 -0.664793,-0.06103 -1.054225,-0.070910001 z M 11.261157,3.2896132 c 0,-0.18274 -0.148151,-0.330882 -0.330886,-0.330882 -2.1015531,0 -3.8051671,1.703629 -3.8051671,3.805173 v 1.273607 c 0,1.129585 -0.915719,2.0453238 -2.045303,2.0453238 -0.188268,0 -0.340884,0.152631 -0.340884,0.340853 v 1.041137 c 0,0.182735 0.148141,0.330886 0.330881,0.330886 2.101518,0 3.805182,-1.703614 3.805182,-3.8051668 v -1.273608 c 0,-1.129584 0.915689,-2.045308 2.0452731,-2.045308 0.188273,0 0.340904,-0.152622 0.340904,-0.340884 z"
     fill="#178a9e"
     id="path11"
     style="display:inline;fill:#000000;stroke-width:0.999998;enable-background:new" />
</svg>
