<?xml version="1.0" encoding="UTF-8" standalone="no"?>
<svg
   height="16"
   viewBox="0 0 16 16"
   width="16"
   version="1.1"
   id="svg4"
   xml:space="preserve"
   xmlns="http://www.w3.org/2000/svg"
   xmlns:svg="http://www.w3.org/2000/svg"><defs
     id="defs8" /><style
     type="text/css"
     id="style244">&#10;	.st0{fill:#75AADB;}&#10;	.st1{fill:#4D4D4D;}&#10;	.st2{fill:#FFFFFF;}&#10;	.st3{fill:url(#SVGID_1_);}&#10;	.st4{fill:url(#SVGID_2_);}&#10;	.st5{fill:url(#SVGID_3_);}&#10;	.st6{fill:url(#SVGID_4_);}&#10;	.st7{fill:url(#SVGID_5_);}&#10;	.st8{fill:url(#SVGID_6_);}&#10;	.st9{fill:url(#SVGID_7_);}&#10;	.st10{fill:url(#SVGID_8_);}&#10;	.st11{fill:url(#SVGID_9_);}&#10;	.st12{fill:url(#SVGID_10_);}&#10;	.st13{opacity:0.18;fill:url(#SVGID_11_);}&#10;	.st14{opacity:0.3;}&#10;</style><path
     id="rect1711"
     style="display:inline;fill:#1a1a1a;fill-opacity:1;stroke:none;stroke-width:0.0392232;stroke-linecap:butt;stroke-linejoin:miter;stroke-miterlimit:4;stroke-dasharray:none;stroke-dashoffset:0;stroke-opacity:1;marker:none;marker-start:none;marker-mid:none;marker-end:none;paint-order:normal;enable-background:new"
     d="M 1.2304688 0 C 0.54862458 0 5.9211835e-16 0.57017896 0 1.2792969 L 0 4.5722656 L 2.6269531 6.1601562 A 0.64855768 0.6745 0 0 0 3.2714844 6.1601562 C 3.4378315 6.0616565 8.4118104 3.0879685 8.4863281 3.0429688 A 0.4903846 0.51 0 0 1 8.9648438 3.0351562 C 9.0489774 3.0861562 9.2460335 3.2049222 9.3984375 3.2949219 L 9.5019531 3.3554688 C 9.6509959 3.4444685 9.6448921 3.6895315 9.5117188 3.7695312 L 6.3554688 5.6601562 L 6.3515625 5.6621094 L 3.2871094 7.4960938 C 3.0654762 7.6291032 2.8455227 7.6330463 2.6152344 7.4980469 C 2.2354279 7.2755475 0.68311098 6.3349988 0.02734375 5.9375 L 0 5.921875 L 0 7.2675781 C 0 7.2675781 2.4702227 8.7614688 2.6269531 8.8554688 A 0.64855768 0.6745 0 0 0 3.2714844 8.8554688 C 3.4378301 8.7574688 8.4118083 5.7827812 8.4863281 5.7382812 A 0.4903846 0.51 0 0 1 8.9648438 5.7324219 C 9.0489775 5.7834217 9.2465149 5.9002346 9.3984375 5.9902344 L 9.5019531 6.0527344 C 9.6509914 6.1412342 9.6448907 6.3867971 9.5117188 6.4667969 L 6.359375 8.3535156 L 6.3476562 8.3613281 L 3.2871094 10.193359 C 3.065476 10.326351 2.845523 10.328359 2.6152344 10.193359 C 2.2354275 9.9703602 0.68359318 9.0303117 0.02734375 8.6328125 L 0 8.6171875 L 0 9.9648438 L 2.6269531 11.550781 C 2.8255113 11.670281 3.0724477 11.668781 3.2714844 11.550781 C 3.4378319 11.452781 8.4118097 8.4785937 8.4863281 8.4335938 A 0.4903846 0.51 0 0 1 8.9648438 8.4277344 A 60.099518 62.503501 0 0 0 9.5039062 8.7480469 C 9.6529445 8.8370468 9.6448863 9.0821095 9.5117188 9.1621094 L 6.3515625 11.054688 L 3.2871094 12.888672 C 3.0654758 13.021672 2.8450417 13.023672 2.6152344 12.888672 C 2.2354271 12.665672 0.68359384 11.727578 0.02734375 11.330078 L 0 11.3125 L 0 14.720703 C 0 15.42982 0.54862458 16 1.2304688 16 L 14.769531 16 C 15.451377 16 16 15.42982 16 14.720703 L 16 1.2792969 C 16 0.57017896 15.451377 -5.9211835e-16 14.769531 0 L 1.2304688 0 z " /></svg>
