<?xml version="1.0" encoding="UTF-8" standalone="no"?>
<svg
   width="16"
   height="16"
   version="1.1"
   id="svg7339"
   xmlns="http://www.w3.org/2000/svg"
   xmlns:svg="http://www.w3.org/2000/svg">
  <defs
     id="defs7343">
    <linearGradient
       id="d"
       gradientTransform="matrix(1.3445364,0,0,1.279993,-572.66729,-668.21662)"
       gradientUnits="userSpaceOnUse"
       x1="428.371"
       x2="428.371"
       y1="530.79797"
       y2="525.79797">
      <stop
         offset="0"
         stop-color="#da4453"
         id="stop296" />
      <stop
         offset="1"
         stop-color="#fa4e5f"
         id="stop298" />
    </linearGradient>
    <linearGradient
       id="e"
       gradientUnits="userSpaceOnUse"
       x1="353.57101"
       x2="353.57101"
       y1="505.798"
       y2="519.79797"
       gradientTransform="matrix(0.47058824,0,0,0.45714034,-156.03341,-226.42065)">
      <stop
         offset="0"
         stop-color="#31363b"
         id="stop291" />
      <stop
         offset="1"
         stop-color="#4d4d4d"
         id="stop293" />
    </linearGradient>
    <linearGradient
       id="f"
       gradientUnits="userSpaceOnUse"
       x1="350.57101"
       x2="350.57101"
       y1="505.798"
       y2="519.79797"
       gradientTransform="matrix(0.47058824,0,0,0.45714034,-156.03341,-226.42065)">
      <stop
         offset="0"
         stop-color="#7f8c8d"
         id="stop286" />
      <stop
         offset="1"
         stop-color="#afb0b3"
         id="stop288" />
    </linearGradient>
    <linearGradient
       id="g"
       gradientUnits="userSpaceOnUse"
       x1="356.57101"
       x2="356.57101"
       y1="519.79797"
       y2="505.798"
       gradientTransform="matrix(0.47058824,0,0,0.45714034,-156.03341,-226.42065)">
      <stop
         offset="0"
         stop-color="#afb0b3"
         id="stop281" />
      <stop
         offset="1"
         stop-color="#bdc3c7"
         id="stop283" />
    </linearGradient>
    <linearGradient
       id="h"
       gradientUnits="userSpaceOnUse"
       x1="358.57101"
       x2="358.57101"
       y1="519.79797"
       y2="505.798"
       gradientTransform="matrix(0.47058824,0,0,0.45714034,-156.03341,-226.42065)">
      <stop
         offset="0"
         stop-color="#4d4d4d"
         id="stop276" />
      <stop
         offset="1"
         stop-color="#585858"
         id="stop278" />
    </linearGradient>
  </defs>
  <rect
     height="16"
     id="rect7580"
     rx="0"
     ry="0"
     style="display:inline;opacity:0;fill:#000000;fill-opacity:1;stroke:none"
     width="15.9375"
     x="-16.920727"
     y="1.86189" />
  <path
     style="color:#dfdfdf;fill:#000000;stroke-width:0.727273"
     class="ColorScheme-Text"
     d="M -1.5074354e-7,5.090909 2.207386,10.909091 H 3.8622159 L 6.0696021,5.090909 H 4.4133519 L 3.0340908,8.5823861 1.6548297,5.090909 Z M 7.7244319,5.090909 9.103693,8.7272727 9.9318181,6.5454545 9.379261,5.090909 Z m 4.4133521,0 2.207386,5.818182 H 16 L 13.792614,5.090909 Z M 6.8963068,7.4176138 5.517045,10.909091 H 7.1718748 L 7.7244319,9.5127839 Z m 4.4133522,0 -1.3792613,3.4914772 h 0.00145 1.6548293 l 0.551136,-1.3963071 z"
     id="path1922" />
  <path
     style="color:#dfdfdf;opacity:0.35;fill:#000000;stroke-width:0.727273"
     class="ColorScheme-Text"
     d="M 6.0696021,5.090909 3.8622159,10.909091 H 5.517045 L 6.8963068,7.4176138 8.2755679,10.909091 H 9.9303977 L 11.309659,7.4176138 12.690341,10.909091 H 14.34517 L 12.137784,5.090909 h -1.65483 L 9.103693,8.7272727 7.7244319,5.090909 Z"
     id="path1924" />
</svg>
