<?xml version="1.0" encoding="UTF-8" standalone="no"?>
<svg
   width="16"
   height="16"
   version="1.1"
   id="svg10191"
   xmlns="http://www.w3.org/2000/svg"
   xmlns:svg="http://www.w3.org/2000/svg">
  <defs
     id="defs10195" />
  <g
     id="g2656"
     transform="matrix(0.2500014,0,0,0.2500014,19.400539,6.5043963)">
    <path
       style="opacity:0.5;fill:#000000"
       d="m -19.582713,-16.085361 -11.531302,-5.584344 c -1.334649,-0.646391 -2.929884,-0.373728 -3.977488,0.679864 l -37.749466,33.997535 c -1.015366,0.931204 -1.014198,2.538983 0.0025,3.468648 l 3.083497,2.819332 c 0.831219,0.76014 2.083032,0.815985 2.977978,0.133279 l 45.459111,-34.065602 c 1.52506,-1.163659 3.715585,-0.06958 3.715585,1.855774 v -0.13468 c 0,-1.35151 -0.769743,-2.583531 -1.980435,-3.16982 z"
       id="path1949" />
    <path
       style="opacity:0.75;fill:#000000"
       d="m -19.582713,28.050273 -11.531302,5.584358 c -1.334649,0.646236 -2.929884,0.373574 -3.977488,-0.679878 l -37.749466,-36.0597 c -1.015366,-0.931135 -1.014198,-2.538984 0.0025,-3.46862 l 3.083497,-2.819445 c 0.831219,-0.760028 2.083032,-0.815985 2.977978,-0.133139 l 45.459111,36.127614 c 1.52506,1.163617 3.715585,0.06972 3.715585,-1.855802 v 0.13482 c 0,1.351398 -0.769743,2.583405 -1.980435,3.169834 z"
       id="path1955" />
    <path
       style="fill:#000000"
       d="m -31.113361,33.635513 c -1.335083,0.645788 -2.930318,0.372916 -3.977924,-0.68076 1.290705,1.298185 3.497844,0.378642 3.497844,-1.457378 v -51.029992 c 0,-1.83602 -2.207139,-2.755521 -3.497844,-1.457252 1.047606,-1.053676 2.642841,-1.326731 3.977924,-0.680914 l 11.529336,5.576673 c 1.211566,0.58598 1.981967,1.818449 1.981967,3.170547 v 37.81215 c 0,1.352056 -0.770401,2.584497 -1.981967,3.170478 z"
       id="path1959" />
  </g>
</svg>
