<?xml version="1.0" encoding="UTF-8" standalone="no"?>
<!-- Created with Inkscape (http://www.inkscape.org/) -->

<svg
   width="16"
   height="16"
   viewBox="0 0 16 16"
   version="1.1"
   id="svg5"
   inkscape:version="1.2.2 (b0a8486541, 2022-12-01)"
   sodipodi:docname="vmware-workstation-symbolic.svg"
   xmlns:inkscape="http://www.inkscape.org/namespaces/inkscape"
   xmlns:sodipodi="http://sodipodi.sourceforge.net/DTD/sodipodi-0.dtd"
   xmlns="http://www.w3.org/2000/svg"
   xmlns:svg="http://www.w3.org/2000/svg">
  <sodipodi:namedview
     id="namedview7"
     pagecolor="#ffffff"
     bordercolor="#000000"
     borderopacity="0.25"
     inkscape:showpageshadow="2"
     inkscape:pageopacity="0.0"
     inkscape:pagecheckerboard="0"
     inkscape:deskcolor="#d1d1d1"
     inkscape:document-units="px"
     showgrid="false"
     inkscape:zoom="49.5"
     inkscape:cx="7.989899"
     inkscape:cy="8"
     inkscape:window-width="1920"
     inkscape:window-height="1007"
     inkscape:window-x="0"
     inkscape:window-y="0"
     inkscape:window-maximized="1"
     inkscape:current-layer="svg5" />
  <defs
     id="defs2" />
  <path
     id="rect788"
     style="fill:#000000"
     d="M 2,4 C 0.89200111,4 0,4.8920011 0,6 v 8 c 0,1.107999 0.89200111,2 2,2 h 8 c 1.107999,0 2,-0.892001 2,-2 V 6 C 12,4.8920011 11.107999,4 10,4 Z m 1,2 h 6 c 0.553999,0 1,0.4460006 1,1 v 6 c 0,0.553999 -0.446001,1 -1,1 H 3 C 2.4460006,14 2,13.553999 2,13 V 7 C 2,6.4460006 2.4460006,6 3,6 Z"
     sodipodi:nodetypes="ssssssssssssssssss" />
  <path
     id="rect788-6"
     style="opacity:0.5;fill:#000000"
     d="M 6,0 C 4.8920011,0 4,0.8920011 4,2 v 8 c 0,1.107999 0.8920011,2 2,2 h 8 c 1.107999,0 2,-0.892001 2,-2 V 2 C 16,0.8920011 15.107999,0 14,0 Z m 1,2 h 6 c 0.554,0 1,0.4460006 1,1 v 6 c 0,0.553999 -0.446,1 -1,1 H 7 C 6.4460006,10 6,9.553999 6,9 V 3 C 6,2.4460006 6.4460006,2 7,2 Z"
     sodipodi:nodetypes="ssssssssssssssssss" />
</svg>
