<?xml version="1.0" encoding="UTF-8" standalone="no"?>
<svg
   width="16"
   height="16"
   version="1.1"
   id="svg10191"
   xmlns="http://www.w3.org/2000/svg"
   xmlns:svg="http://www.w3.org/2000/svg">
  <defs
     id="defs10195" />
  <path
     d="m 7.7221011,0.36019275 c -0.45664,0.29296 -0.58832,0.89983985 -0.29408,1.35487985 1.61744,2.5048007 1.9992,4.3940797 1.8336,6.0497597 -0.66944,3.1705597 -2.12464,3.8137597 -3.39632,3.8137597 -1.2416,0 -0.90912,-2.0433597 0.02416,-2.6414397 0.55712,-0.34784 1.27072,-0.57392 1.8184,-0.57392 0.54272,0 0.98272,-0.43856 0.98272,-0.97968 0,-0.54128 -0.44,-0.97984 -0.98272,-0.97984 -0.63968,0 -1.2672,0.1344 -1.85296,0.3632 0.11968,-0.56464 0.16384,-1.17488 0.0091,-1.823519 -0.234881,-0.98496 -0.911041,-1.9257604 -2.085121,-2.8377607 -0.2056,-0.16 -0.4664,-0.23184 -0.72512,-0.19984 -0.25872,0.032 -0.49408,0.16512 -0.65424,0.37024 -0.33312,0.4272003 -0.256,1.0428807 0.17248,1.3752007 0.95648,0.74288 1.27232,1.2928 1.38032,1.745439 0.108,0.45264 0.02112,0.93824 -0.19584,1.60544 -0.27728,0.8992 -0.5992,1.70192 -0.74032,2.47168 -0.06944,0.37888 -0.07536,0.7911997 -0.09328,1.1206397 -0.6888,-0.6713597 -0.9584,-1.5577597 -0.9584,-2.8529597 -1.48e-4,-0.54112 -0.44016,-0.97984 -0.98271995,-0.97968 -0.54224,4.16e-4 -0.98160000236,0.43888 -0.98176000236467,0.97968 0,1.76896 0.51728000236467,3.4521597 1.90367995236467,4.5750397 1.25504,1.19568 4.446561,0.75376 4.446561,2.673282 0,0.54176 0.79296,0.80544 1.33552,0.80544 0.556477,0 1.256797,-0.372 1.256797,-0.80544 0,-2.177922 2.2952009,-3.501602 6.0735999,-3.495842 0.54272,8.31e-4 0.98304,-0.43744 0.98384,-0.97856 10e-4,-0.5412797 -0.43808,-0.9807997 -0.9808,-0.9817597 -0.258399,-2.08e-4 -0.510239,0.0085 -0.758559,0.0232 0.4224,-0.99344 0.60976,-2.0872 0.57104,-3.26864 -0.01791,-0.54096 -0.472,-0.96496 -1.01424,-0.94736 -0.54288,0.0176 -0.96816,0.47088 -0.9504,1.01216 0.0512,1.54688 -0.0067,2.92816 -1.1592,3.6563197 -0.32768,0.20688 -0.70864,0.3864 -1.069921,0.3864 0.280481,-0.7628797 0.492321,-1.5681597 0.579041,-2.4361597 0.05536,-0.55392 0.06128,-1.212 -0.0017,-1.7232 -0.09808,-0.792 -0.21648,-1.690239 0.08416,-2.366879 0.27008,-0.58272 0.8752,-0.8267204 1.76368,-0.8267204 0.54224,-4.78e-4 0.9816,-0.43904 0.98176,-0.9796803 4.16e-4,-0.54128 -0.4392,-0.98032 -0.98176,-0.9808 -1.32032,0 -2.32112,0.69488 -2.88848,1.5344003 C 9.8779791,1.9830726 9.5166991,1.3301126 9.0802191,0.65427275 c -0.14096,-0.2184 -0.36304,-0.37184 -0.6176,-0.4270402 -0.12608,-0.02736 -0.25632,-0.02976 -0.38336,-0.00704 -0.12704,0.02288 -0.24832,0.0704 -0.35696,0.1400002 z"
     fill="url(#Gradient_1)"
     id="path6008"
     style="fill:#000000;stroke-width:0.16" />
</svg>
