<?xml version="1.0" encoding="UTF-8" standalone="no"?>
<svg
   height="16px"
   viewBox="0 0 16 16"
   width="16px"
   version="1.1"
   id="svg135"
   xmlns="http://www.w3.org/2000/svg"
   xmlns:svg="http://www.w3.org/2000/svg">
  <defs
     id="defs139">
    <linearGradient
       id="LO"
       gradientUnits="userSpaceOnUse"
       x1="319.20822"
       y1="235.14877"
       x2="657.65295"
       y2="269.49396"
       gradientTransform="matrix(0.04411892,0,0,0.04411892,-13.460603,-2.5091666)">
      <stop
         style="stop-color:#000000;stop-opacity:1;"
         offset="0"
         id="stop646" />
      <stop
         style="stop-color:#000000;stop-opacity:0.60000002;"
         offset="1"
         id="stop648" />
    </linearGradient>
  </defs>
  <path
     d="M 1.631327,14.72819 6.5328183,8.3196444 1.4866412,1.273281 4.7300149,1.2759741 8.7509251,6.816554 2.738835,14.728189 Z m 9.59356,0.0045 L 7.2317376,9.1826308 13.29389,1.2672776 h 1.080108 L 9.4525029,7.7060602 14.468313,14.732722 Z"
     id="path653"
     style="stroke-width:0.0441191" />
  <path
     id="P1"
     d="m 7.9993104,3.8363031 c -0.3904979,0 -0.8076977,0.030238 -1.1832742,0.06629 0.6691046,0.8726719 1.224303,1.6116425 1.8632687,2.450889 C 8.3206725,5.581713 7.5835833,4.8416332 7.8383996,4.4610155 8.0906348,4.0842537 8.555379,4.1476688 8.5907797,4.1476688 c 0.745102,0 1.4623323,0.084152 2.1328743,0.2398965 L 10.880827,4.171107 C 9.9865008,3.9408833 9.0151049,3.8363031 7.9993104,3.8363031 Z m 4.0355026,0.7043 -0.144766,0.2068073 c 2.065904,0.8089926 3.463335,2.3541982 3.463335,4.125118 0,2.6076936 -3.029418,4.7234816 -6.7626023,4.7234816 -3.7331839,-10e-7 -6.7639812,-2.115788 -6.7639812,-4.7234816 4e-7,-1.420089 0.8987717,-2.6947839 2.3203789,-3.561223 L 3.7101244,4.6453853 C 1.4800839,5.5909347 1.0920115e-7,7.2505907 -3.11594e-7,9.1399997 -3.11594e-7,12.079805 3.5834483,14.464601 7.9993104,14.464601 12.415172,14.464601 16,12.079805 16,9.1399997 16,7.1796674 14.406312,5.4652268 12.034813,4.5406031 Z"
     style="fill:url(#LO);stroke-width:0.0441191" />
</svg>
