<?xml version="1.0" encoding="UTF-8" standalone="no"?>
<svg
   height="16"
   viewBox="0 0 16 16"
   width="16"
   version="1.1"
   id="svg4"
   xml:space="preserve"
   xmlns="http://www.w3.org/2000/svg"
   xmlns:svg="http://www.w3.org/2000/svg"><defs
     id="defs8" /><style
     type="text/css"
     id="style244">&#10;	.st0{fill:#75AADB;}&#10;	.st1{fill:#4D4D4D;}&#10;	.st2{fill:#FFFFFF;}&#10;	.st3{fill:url(#SVGID_1_);}&#10;	.st4{fill:url(#SVGID_2_);}&#10;	.st5{fill:url(#SVGID_3_);}&#10;	.st6{fill:url(#SVGID_4_);}&#10;	.st7{fill:url(#SVGID_5_);}&#10;	.st8{fill:url(#SVGID_6_);}&#10;	.st9{fill:url(#SVGID_7_);}&#10;	.st10{fill:url(#SVGID_8_);}&#10;	.st11{fill:url(#SVGID_9_);}&#10;	.st12{fill:url(#SVGID_10_);}&#10;	.st13{opacity:0.18;fill:url(#SVGID_11_);}&#10;	.st14{opacity:0.3;}&#10;</style><path
     id="path835"
     class="cls-3"
     d="M -93.639289,30.807341 V 114 c 22.975536,0 41.599389,-18.625381 41.599389,-41.599387 0,-22.974006 -18.623853,-41.593272 -41.599389,-41.593272 m 8.133028,9.105504 a 33.495413,33.495413 0 0 1 0,64.975535 V 39.912845"
     style="display:inline;fill:#000000;stroke-width:0.152905;enable-background:new;fill-opacity:0.60000002"
     clip-path="none"
     transform="matrix(0.15384616,0,0,0.15384616,23.206092,-1.538462)" /><path
     id="path847"
     class="cls-4"
     d="m -104.0399,10.000001 c -22.97554,0 -41.59939,18.625382 -41.59939,41.602447 0,22.977064 18.62385,41.600918 41.59939,41.600918 z m -8.12538,9.111621 v 64.98471 a 33.486239,33.486239 0 0 1 -15.54282,-56.166667 33.25841,33.25841 0 0 1 15.54282,-8.818043"
     style="display:inline;fill:#000000;stroke-width:0.152905;enable-background:new"
     clip-path="none"
     transform="matrix(0.15384616,0,0,0.15384616,23.206092,-1.538462)" /></svg>
