<?xml version="1.0" encoding="UTF-8" standalone="no"?>
<svg
   width="128"
   height="128"
   version="1.1"
   id="svg1606"
   xml:space="preserve"
   xmlns:xlink="http://www.w3.org/1999/xlink"
   xmlns="http://www.w3.org/2000/svg"
   xmlns:svg="http://www.w3.org/2000/svg"><defs
     id="defs1478"><linearGradient
       id="a"
       gradientUnits="userSpaceOnUse"
       x1="32"
       y1="63.397"
       x2="480.707"
       y2="63.397"
       gradientTransform="matrix(.2496 0 0 .2496 .013 57.398)"><stop
         offset="0"
         stop-color="#1b744b"
         id="stop1367" /><stop
         offset=".033"
         stop-color="#2dbf7c"
         stop-opacity=".996"
         id="stop1369" /><stop
         offset=".085"
         stop-color="#1c764c"
         stop-opacity=".98"
         id="stop1371" /><stop
         offset=".925"
         stop-color="#155a3a"
         stop-opacity=".98"
         id="stop1373" /><stop
         offset=".969"
         stop-color="#2fc781"
         stop-opacity=".969"
         id="stop1375" /><stop
         offset="1"
         stop-color="#1b724a"
         stop-opacity=".969"
         id="stop1377" /></linearGradient><linearGradient
       id="d"
       gradientUnits="userSpaceOnUse"
       x1="94.021"
       y1="194.219"
       x2="94.021"
       y2="234.219"
       gradientTransform="matrix(0.25,0,0,0.2496,137.5525,42.744054)"><stop
         offset="0"
         stop-color="#f9f06b"
         id="stop1391" /><stop
         offset=".512"
         stop-color="#fcf7ac"
         id="stop1393" /><stop
         offset="1"
         stop-color="#f9f06b"
         id="stop1395" /></linearGradient><linearGradient
       y2="44"
       x2="464"
       y1="44"
       x1="48"
       gradientTransform="matrix(0.25,0,0,0.25,0,53)"
       gradientUnits="userSpaceOnUse"
       id="linearGradient1747"
       xlink:href="#a" /><linearGradient
       xlink:href="#d"
       id="linearGradient6"
       x1="-64"
       y1="17"
       x2="-64"
       y2="107"
       gradientUnits="userSpaceOnUse" /></defs><rect
     ry="8"
     rx="8"
     y="32"
     x="12.000002"
     height="83.999992"
     width="104"
     id="rect1709"
     style="display:inline;fill:url(#linearGradient1747);fill-opacity:1;stroke:none;stroke-width:0.25;stroke-linecap:butt;stroke-linejoin:miter;stroke-miterlimit:4;stroke-dasharray:none;stroke-dashoffset:0;stroke-opacity:1;marker:none;marker-start:none;marker-mid:none;marker-end:none;paint-order:normal;enable-background:new" /><rect
     style="display:inline;fill:#2ec27e;fill-opacity:1;stroke:none;stroke-width:0.25;stroke-linecap:butt;stroke-linejoin:miter;stroke-miterlimit:4;stroke-dasharray:none;stroke-dashoffset:0;stroke-opacity:1;marker:none;marker-start:none;marker-mid:none;marker-end:none;paint-order:normal;enable-background:new"
     id="rect1711"
     width="104"
     height="100"
     x="12.000002"
     y="12"
     rx="8"
     ry="8" /><path
     id="circle93-6"
     style="fill:url(#linearGradient6);stroke-width:3.75;fill-opacity:1"
     d="m -101.5,34 a 3.75,3.75 0 0 1 -3.75,3.75 3.75,3.75 0 0 1 -3.75,-3.75 3.75,3.75 0 0 1 3.75,-3.75 3.75,3.75 0 0 1 3.75,3.75 z m 71.250004,-11.25 a 3.75,3.75 0 0 1 -3.75,3.75 3.75,3.75 0 0 1 -3.75,-3.75 3.75,3.75 0 0 1 3.75,-3.75 3.75,3.75 0 0 1 3.75,3.75 z m 11.249998,0 a 3.75,3.75 0 0 1 -3.75,3.75 3.75,3.75 0 0 1 -3.75,-3.75 3.75,3.75 0 0 1 3.75,-3.75 3.75,3.75 0 0 1 3.75,3.75 z m 0,11.25 a 3.75,3.75 0 0 1 -3.75,3.75 3.75,3.75 0 0 1 -3.75,-3.75 3.75,3.75 0 0 1 3.75,-3.75 3.75,3.75 0 0 1 3.75,3.75 z M -101.5,45.25 a 3.75,3.75 0 0 1 -3.75,3.75 3.75,3.75 0 0 1 -3.75,-3.75 3.75,3.75 0 0 1 3.75,-3.75 3.75,3.75 0 0 1 3.75,3.75 z m 0,11.25 a 3.75,3.75 0 0 1 -3.75,3.75 3.75,3.75 0 0 1 -3.75,-3.75 3.75,3.75 0 0 1 3.75,-3.75 3.75,3.75 0 0 1 3.75,3.75 z m 82.500002,0 a 3.75,3.75 0 0 1 -3.75,3.75 3.75,3.75 0 0 1 -3.75,-3.75 3.75,3.75 0 0 1 3.75,-3.75 3.75,3.75 0 0 1 3.75,3.75 z m 0,-11.25 a 3.75,3.75 0 0 1 -3.75,3.75 3.75,3.75 0 0 1 -3.75,-3.75 3.75,3.75 0 0 1 3.75,-3.75 3.75,3.75 0 0 1 3.75,3.75 z m -22.499998,-22.5 a 3.75,3.75 0 0 1 -3.75,3.75 3.75,3.75 0 0 1 -3.75,-3.75 3.75,3.75 0 0 1 3.75,-3.75 3.75,3.75 0 0 1 3.75,3.75 z m -11.25,0 a 3.75,3.75 0 0 1 -3.75,3.75 3.75,3.75 0 0 1 -3.75,-3.75 3.75,3.75 0 0 1 3.75,-3.75 3.75,3.75 0 0 1 3.75,3.75 z m -15.000004,0 a 3.75,3.75 0 0 1 -3.75,3.75 3.75,3.75 0 0 1 -3.75,-3.75 3.75,3.75 0 0 1 3.75,-3.75 3.75,3.75 0 0 1 3.75,3.75 z m -11.25,0 a 3.75,3.75 0 0 1 -3.75,3.75 3.75,3.75 0 0 1 -3.75,-3.75 3.75,3.75 0 0 1 3.75,-3.75 3.75,3.75 0 0 1 3.75,3.75 z m -11.25,22.5 A 3.75,3.75 0 0 1 -94,49 3.75,3.75 0 0 1 -97.75,45.25 3.75,3.75 0 0 1 -94,41.5 a 3.75,3.75 0 0 1 3.75,3.75 z m 0,11.25 a 3.75,3.75 0 0 1 -3.75,3.75 3.75,3.75 0 0 1 -3.75,-3.75 3.75,3.75 0 0 1 3.75,-3.75 3.75,3.75 0 0 1 3.75,3.75 z m 60.000004,0 a 3.75,3.75 0 0 1 -3.75,3.75 3.75,3.75 0 0 1 -3.75,-3.75 3.75,3.75 0 0 1 3.75,-3.75 3.75,3.75 0 0 1 3.75,3.75 z m 0,-11.25 a 3.75,3.75 0 0 1 -3.75,3.75 3.75,3.75 0 0 1 -3.75,-3.75 3.75,3.75 0 0 1 3.75,-3.75 3.75,3.75 0 0 1 3.75,3.75 z m 0,-11.25 a 3.75,3.75 0 0 1 -3.75,3.75 3.75,3.75 0 0 1 -3.75,-3.75 3.75,3.75 0 0 1 3.75,-3.75 3.75,3.75 0 0 1 3.75,3.75 z m -11.25,0 a 3.75,3.75 0 0 1 -3.75,3.75 3.75,3.75 0 0 1 -3.75,-3.75 3.75,3.75 0 0 1 3.75,-3.75 3.75,3.75 0 0 1 3.75,3.75 z m -11.25,0 a 3.75,3.75 0 0 1 -3.75,3.75 3.75,3.75 0 0 1 -3.75,-3.75 3.75,3.75 0 0 1 3.75,-3.75 3.75,3.75 0 0 1 3.75,3.75 z M -67.75,34 A 3.75,3.75 0 0 1 -71.5,37.75 3.75,3.75 0 0 1 -75.25,34 3.75,3.75 0 0 1 -71.5,30.25 3.75,3.75 0 0 1 -67.75,34 Z M -79,34 A 3.75,3.75 0 0 1 -82.75,37.75 3.75,3.75 0 0 1 -86.5,34 3.75,3.75 0 0 1 -82.75,30.25 3.75,3.75 0 0 1 -79,34 Z m -11.25,0 A 3.75,3.75 0 0 1 -94,37.75 3.75,3.75 0 0 1 -97.75,34 3.75,3.75 0 0 1 -94,30.25 3.75,3.75 0 0 1 -90.25,34 Z M -79,101.25 a 3.75,3.75 0 0 1 -3.75,3.75 3.75,3.75 0 0 1 -3.75,-3.75 3.75,3.75 0 0 1 3.75,-3.75 3.75,3.75 0 0 1 3.75,3.75 z m -22.5,0 a 3.75,3.75 0 0 1 -3.75,3.75 3.75,3.75 0 0 1 -3.75,-3.75 3.75,3.75 0 0 1 3.75,-3.75 3.75,3.75 0 0 1 3.75,3.75 z m 71.25,0 A 3.75,3.75 0 0 1 -34,105 a 3.75,3.75 0 0 1 -3.75,-3.75 3.75,3.75 0 0 1 3.75,-3.75 3.75,3.75 0 0 1 3.75,3.75 z m 11.25,0 a 3.75,3.75 0 0 1 -3.75,3.75 3.75,3.75 0 0 1 -3.75,-3.75 3.75,3.75 0 0 1 3.75,-3.75 3.75,3.75 0 0 1 3.75,3.75 z M -19,90 A 3.75,3.75 0 0 1 -22.75,93.75 3.75,3.75 0 0 1 -26.5,90 3.75,3.75 0 0 1 -22.75,86.25 3.75,3.75 0 0 1 -19,90 Z m -82.5,-22.5 a 3.75,3.75 0 0 1 -3.75,3.75 3.75,3.75 0 0 1 -3.75,-3.75 3.75,3.75 0 0 1 3.75,-3.75 3.75,3.75 0 0 1 3.75,3.75 z m 0,11.25 a 3.75,3.75 0 0 1 -3.75,3.75 3.75,3.75 0 0 1 -3.75,-3.75 3.75,3.75 0 0 1 3.75,-3.75 3.75,3.75 0 0 1 3.75,3.75 z m 0,11.25 a 3.75,3.75 0 0 1 -3.75,3.75 3.75,3.75 0 0 1 -3.75,-3.75 3.75,3.75 0 0 1 3.75,-3.75 3.75,3.75 0 0 1 3.75,3.75 z m 33.75,11.25 a 3.75,3.75 0 0 1 -3.75,3.75 3.75,3.75 0 0 1 -3.75,-3.75 3.75,3.75 0 0 1 3.75,-3.75 3.75,3.75 0 0 1 3.75,3.75 z m 15,0 a 3.75,3.75 0 0 1 -3.75,3.75 3.75,3.75 0 0 1 -3.75,-3.75 3.75,3.75 0 0 1 3.75,-3.75 3.75,3.75 0 0 1 3.75,3.75 z m 11.25,0 a 3.75,3.75 0 0 1 -3.75,3.75 3.75,3.75 0 0 1 -3.75,-3.75 3.75,3.75 0 0 1 3.75,-3.75 3.75,3.75 0 0 1 3.75,3.75 z M -19,78.75 a 3.75,3.75 0 0 1 -3.75,3.75 3.75,3.75 0 0 1 -3.75,-3.75 3.75,3.75 0 0 1 3.75,-3.75 3.75,3.75 0 0 1 3.75,3.75 z m 0,-11.25 a 3.75,3.75 0 0 1 -3.75,3.75 3.75,3.75 0 0 1 -3.75,-3.75 3.75,3.75 0 0 1 3.75,-3.75 3.75,3.75 0 0 1 3.75,3.75 z m -71.25,0 a 3.75,3.75 0 0 1 -3.75,3.75 3.75,3.75 0 0 1 -3.75,-3.75 3.75,3.75 0 0 1 3.75,-3.75 3.75,3.75 0 0 1 3.75,3.75 z m 0,11.25 A 3.75,3.75 0 0 1 -94,82.5 3.75,3.75 0 0 1 -97.75,78.75 3.75,3.75 0 0 1 -94,75 a 3.75,3.75 0 0 1 3.75,3.75 z m 0,11.25 A 3.75,3.75 0 0 1 -94,93.75 3.75,3.75 0 0 1 -97.75,90 3.75,3.75 0 0 1 -94,86.25 3.75,3.75 0 0 1 -90.25,90 Z M -79,90 A 3.75,3.75 0 0 1 -82.75,93.75 3.75,3.75 0 0 1 -86.5,90 3.75,3.75 0 0 1 -82.75,86.25 3.75,3.75 0 0 1 -79,90 Z m 11.25,0 a 3.75,3.75 0 0 1 -3.75,3.75 3.75,3.75 0 0 1 -3.75,-3.75 3.75,3.75 0 0 1 3.75,-3.75 3.75,3.75 0 0 1 3.75,3.75 z m 15,0 a 3.75,3.75 0 0 1 -3.75,3.75 3.75,3.75 0 0 1 -3.75,-3.75 3.75,3.75 0 0 1 3.75,-3.75 3.75,3.75 0 0 1 3.75,3.75 z m 11.25,0 A 3.75,3.75 0 0 1 -45.25,93.75 3.75,3.75 0 0 1 -49,90 3.75,3.75 0 0 1 -45.25,86.25 3.75,3.75 0 0 1 -41.5,90 Z m 11.25,0 A 3.75,3.75 0 0 1 -34,93.75 3.75,3.75 0 0 1 -37.75,90 3.75,3.75 0 0 1 -34,86.25 3.75,3.75 0 0 1 -30.25,90 Z m 0,-11.25 A 3.75,3.75 0 0 1 -34,82.5 3.75,3.75 0 0 1 -37.75,78.75 3.75,3.75 0 0 1 -34,75 a 3.75,3.75 0 0 1 3.75,3.75 z m 0,-11.25 a 3.75,3.75 0 0 1 -3.75,3.75 3.75,3.75 0 0 1 -3.75,-3.75 3.75,3.75 0 0 1 3.75,-3.75 3.75,3.75 0 0 1 3.75,3.75 z"
     transform="scale(-1,1)" /><path
     d="m 49.600002,45 h 28.8 c 1.98822,0 3.6,1.63338 3.6,3.648288 v 28.703424 c 0,2.014896 -1.61178,3.648288 -3.6,3.648288 h -28.8 c -1.98822,0 -3.6,-1.633392 -3.6,-3.648288 V 48.648288 c 0,-2.014908 1.61178,-3.648288 3.6,-3.648288 z"
     fill="#5e5c64"
     id="path7"
     style="fill:#3d3846;fill-opacity:1;stroke-width:1.20802" /><path
     d="m 49.600002,43 h 28.8 c 1.98822,0 3.6,1.63338 3.6,3.648288 v 28.703424 c 0,2.014896 -1.61178,3.648288 -3.6,3.648288 h -28.8 c -1.98822,0 -3.6,-1.633392 -3.6,-3.648288 V 46.648288 c 0,-2.014908 1.61178,-3.648288 3.6,-3.648288 z"
     fill="#5e5c64"
     id="path1516-9"
     style="stroke-width:1.20802" /><path
     d="m 50.800002,56.923564 h 18 v 2.4 h -18 z m 0,0 m 0,4.8 h 9.6 v 4.8 h -9.6 z m 0,0 m 10.8,0 h 13.2 v 4.8 h -13.2 z m 0,0"
     fill="#77767b"
     id="path1520-4"
     style="stroke-width:1.2" /></svg>
