<?xml version="1.0" encoding="UTF-8" standalone="no"?>
<svg
   height="128px"
   viewBox="0 0 128 128"
   width="128px"
   version="1.1"
   id="svg7"
   xml:space="preserve"
   xmlns:xlink="http://www.w3.org/1999/xlink"
   xmlns="http://www.w3.org/2000/svg"
   xmlns:svg="http://www.w3.org/2000/svg"><defs
     id="defs7"><linearGradient
       id="linearGradient3"><stop
         style="stop-color:#4a86cf;stop-opacity:1;"
         offset="0"
         id="stop3" /><stop
         style="stop-color:#50dbb5;stop-opacity:1;"
         offset="1"
         id="stop12" /></linearGradient><linearGradient
       gradientTransform="translate(0,-160.00001)"
       xlink:href="#a-6"
       id="linearGradient1640"
       x1="8"
       y1="264"
       x2="120"
       y2="264"
       gradientUnits="userSpaceOnUse" /><clipPath
       clipPathUnits="userSpaceOnUse"
       id="clipPath904"><rect
         y="4"
         x="208"
         height="48"
         width="96"
         id="rect906"
         style="opacity:1;fill:#949390;fill-opacity:1;stroke:none;stroke-width:15.99999905;stroke-linecap:round;stroke-linejoin:round;stroke-miterlimit:4;stroke-dasharray:none;stroke-dashoffset:11.19999981;stroke-opacity:1" /></clipPath><linearGradient
       id="a-6"
       gradientUnits="userSpaceOnUse"
       x1="9.1972656"
       x2="119.48238"
       y1="112.65527"
       y2="112.65527"
       gradientTransform="translate(-147,5)"><stop
         offset="0"
         stop-color="#5e5c64"
         id="stop1-1"
         style="stop-color:#606060;stop-opacity:1;" /><stop
         offset="0.0378502"
         stop-color="#77767b"
         id="stop2-8"
         style="stop-color:#797979;stop-opacity:1;" /><stop
         offset="0.0732786"
         stop-color="#3d3846"
         id="stop3-7"
         style="stop-color:#333333;stop-opacity:1;" /><stop
         offset="0.92921001"
         stop-color="#241f31"
         id="stop4-9"
         style="stop-color:#000000;stop-opacity:1;" /><stop
         offset="0.97104001"
         stop-color="#5e5c64"
         id="stop5-2"
         style="stop-color:#606060;stop-opacity:1;" /><stop
         offset="1"
         stop-color="#5e5c64"
         id="stop6-0"
         style="stop-color:#606060;stop-opacity:1;" /></linearGradient><linearGradient
       xlink:href="#linearGradient3"
       id="linearGradient12"
       x1="64"
       y1="35.999989"
       x2="64"
       y2="96"
       gradientUnits="userSpaceOnUse" /></defs><rect
     style="display:inline;fill:url(#linearGradient1640);fill-opacity:1;stroke:none;stroke-width:0.25;stroke-linejoin:round;stroke-miterlimit:4;stroke-dasharray:1, 0.5;stroke-dashoffset:0;stroke-opacity:1;enable-background:new"
     id="rect1025"
     width="112"
     height="24"
     x="8"
     y="92"
     rx="8"
     ry="8" /><rect
     ry="8.8421059"
     rx="8"
     y="28"
     x="8"
     height="83.999992"
     width="112"
     id="rect927-7"
     style="display:inline;fill:#36343d;fill-opacity:1;stroke:none;stroke-width:0.262829;stroke-linejoin:round;stroke-miterlimit:4;stroke-dasharray:1.05131, 0.525657;stroke-dashoffset:0;stroke-opacity:1;enable-background:new" /><path
     id="path1083-9"
     d="m 36,109.99999 h 56 l -4,-10 H 40 Z"
     style="display:inline;fill:#202023;fill-opacity:1;stroke:#202023;stroke-width:8;stroke-linecap:round;stroke-linejoin:round;stroke-opacity:1;enable-background:new"
     clip-path="none" /><path
     id="path1203-6"
     d="m 24,35.99999 h 80 l 8,8 V 96 H 16 V 43.99999 Z"
     style="display:inline;fill:url(#linearGradient12);fill-opacity:1;stroke:none;stroke-width:0.25;stroke-linejoin:round;stroke-miterlimit:4;stroke-dasharray:1, 0.5;stroke-dashoffset:0;stroke-opacity:1;enable-background:new" /><path
     id="rect1050"
     style="display:inline;fill:#424048;fill-opacity:1;stroke:none;stroke-width:1.06904;stroke-linecap:butt;stroke-linejoin:round;stroke-miterlimit:4;stroke-dasharray:none;stroke-dashoffset:0;stroke-opacity:1;enable-background:new"
     d="M 39 58.980469 C 34.568 58.980469 31 62.994469 31 67.980469 C 31 72.966469 34.568 76.980469 39 76.980469 L 89 76.980469 C 93.432 76.980469 97 72.966469 97 67.980469 C 97 62.994469 93.432 58.980469 89 58.980469 L 39 58.980469 z " /><circle
     style="display:inline;fill:#f6f5f4;fill-opacity:1;stroke:none;stroke-width:0.25;stroke-linejoin:round;stroke-miterlimit:4;stroke-dasharray:1, 0.5;stroke-dashoffset:0;stroke-opacity:1;enable-background:new"
     id="path1060-5"
     cx="39.999992"
     cy="67.999992"
     r="6" /><circle
     r="6"
     cy="67.999992"
     cx="87.999992"
     id="circle1062-6"
     style="display:inline;fill:#f6f5f4;fill-opacity:1;stroke:none;stroke-width:0.25;stroke-linejoin:round;stroke-miterlimit:4;stroke-dasharray:1, 0.5;stroke-dashoffset:0;stroke-opacity:1;enable-background:new" /><rect
     style="display:inline;fill:#949390;fill-opacity:1;stroke:none;stroke-width:4;stroke-linecap:round;stroke-linejoin:round;stroke-miterlimit:4;stroke-dasharray:none;stroke-dashoffset:11.2;stroke-opacity:1;enable-background:new"
     id="rect1271-3"
     width="24"
     height="12"
     x="51.999992"
     y="61.999989" /><path
     transform="matrix(0.25,0,0,0.25,-4.5e-6,61)"
     style="display:inline;opacity:0.5;fill:#542b12;fill-opacity:1;stroke:none;stroke-width:1;stroke-linejoin:round;stroke-miterlimit:4;stroke-dasharray:4, 2;stroke-dashoffset:0;stroke-opacity:1;enable-background:new"
     clip-path="url(#clipPath904)"
     d="M 272,28 C 272,89.855892 221.85589,140 160,140 98.144108,140 48,89.855892 48,28 48,-33.855892 98.144108,-84 160,-84 c 61.85589,0 112,50.144108 112,112 z"
     id="ellipse900" /><rect
     y="110"
     x="32"
     height="6.0000076"
     width="64"
     id="rect915"
     style="display:inline;fill:#111113;fill-opacity:1;stroke:none;stroke-width:1;stroke-linecap:butt;stroke-linejoin:round;stroke-miterlimit:4;stroke-dasharray:none;stroke-dashoffset:0;stroke-opacity:1;enable-background:new;opacity:0.8" /><path
     id="path1"
     style="-inkscape-font-specification:Inter;fill:#313131;stroke-width:0.909091"
     d="m 38.667935,63.016857 0.115411,3.078835 -2.602983,-1.65838 -1.226918,2.17152 2.723722,1.420454 -2.725497,1.420455 1.232245,2.146661 2.599431,-1.656605 -0.115411,3.07706 h 2.462712 l -0.117187,-3.07706 2.601207,1.656605 1.232244,-2.146661 -2.727273,-1.42223 2.723722,-1.418679 -1.226917,-2.17152 -2.602983,1.65838 0.117187,-3.078835 z" /><path
     id="path2"
     style="-inkscape-font-specification:Inter;fill:#313131;stroke-width:0.909091"
     d="m 86.768636,63.028561 0.115411,3.078835 -2.602983,-1.65838 -1.226918,2.17152 2.723722,1.420454 -2.725497,1.420455 1.232245,2.146661 2.599431,-1.656605 -0.115411,3.07706 h 2.462712 l -0.117187,-3.07706 2.601207,1.656605 1.232244,-2.146661 -2.727273,-1.42223 2.723722,-1.418679 -1.226917,-2.17152 -2.602983,1.65838 0.117187,-3.078835 z" /></svg>
