<?xml version="1.0" encoding="UTF-8" standalone="no"?>
<svg
   width="128"
   height="128"
   version="1.1"
   id="svg1606"
   xmlns:xlink="http://www.w3.org/1999/xlink"
   xmlns="http://www.w3.org/2000/svg"
   xmlns:svg="http://www.w3.org/2000/svg">
  <defs
     id="defs1478">
    <linearGradient
       id="j"
       gradientUnits="userSpaceOnUse"
       x1="37"
       y1="249"
       x2="37"
       y2="254"
       gradientTransform="rotate(-90,-101.748,196.246)">
      <stop
         offset="0"
         stop-color="#d5d1cc"
         id="stop1356" />
      <stop
         offset=".183"
         stop-color="#f6f5f4"
         id="stop1358" />
      <stop
         offset=".395"
         stop-color="#fff"
         id="stop1360" />
      <stop
         offset=".784"
         stop-color="#d7d3ce"
         id="stop1362" />
      <stop
         offset="1"
         stop-color="#c8c2bb"
         id="stop1364" />
    </linearGradient>
    <linearGradient
       id="a"
       gradientUnits="userSpaceOnUse"
       x1="32"
       y1="63.397"
       x2="480.707"
       y2="63.397"
       gradientTransform="matrix(.2496 0 0 .2496 .013 57.398)">
      <stop
         offset="0"
         stop-color="#1b744b"
         id="stop1367" />
      <stop
         offset=".033"
         stop-color="#2dbf7c"
         stop-opacity=".996"
         id="stop1369" />
      <stop
         offset=".085"
         stop-color="#1c764c"
         stop-opacity=".98"
         id="stop1371" />
      <stop
         offset=".925"
         stop-color="#155a3a"
         stop-opacity=".98"
         id="stop1373" />
      <stop
         offset=".969"
         stop-color="#2fc781"
         stop-opacity=".969"
         id="stop1375" />
      <stop
         offset="1"
         stop-color="#1b724a"
         stop-opacity=".969"
         id="stop1377" />
    </linearGradient>
    <linearGradient
       id="d"
       gradientUnits="userSpaceOnUse"
       x1="94.021"
       y1="194.219"
       x2="94.021"
       y2="234.219"
       gradientTransform="matrix(.25 0 0 .2496 .495 57.398)">
      <stop
         offset="0"
         stop-color="#f9f06b"
         id="stop1391" />
      <stop
         offset=".512"
         stop-color="#fcf7ac"
         id="stop1393" />
      <stop
         offset="1"
         stop-color="#f9f06b"
         id="stop1395" />
    </linearGradient>
    <linearGradient
       id="o"
       gradientUnits="userSpaceOnUse"
       x1="17"
       y1="253"
       x2="18.608"
       y2="259"
       gradientTransform="matrix(1,0,0,0.33333,8,-44.667)">
      <stop
         offset="0"
         stop-color="#f9f06b"
         id="stop1409" />
      <stop
         offset=".512"
         stop-color="#fcf7ac"
         id="stop1411" />
      <stop
         offset="1"
         stop-color="#f9f06b"
         id="stop1413" />
    </linearGradient>
    <linearGradient
       id="g"
       gradientUnits="userSpaceOnUse"
       x1="202.021"
       y1="242.794"
       x2="202.021"
       y2="234.781"
       gradientTransform="matrix(.25 0 0 .2496 .495 57.398)">
      <stop
         offset="0"
         stop-color="#c09608"
         id="stop1416" />
      <stop
         offset="1"
         stop-color="#f6ca30"
         id="stop1418" />
    </linearGradient>
    <linearGradient
       id="n"
       gradientUnits="userSpaceOnUse"
       x1="17"
       y1="253"
       x2="18.608"
       y2="259"
       gradientTransform="translate(8,-210)">
      <stop
         offset="0"
         stop-color="#f9f06b"
         id="stop1421" />
      <stop
         offset=".512"
         stop-color="#fcf7ac"
         id="stop1423" />
      <stop
         offset="1"
         stop-color="#f9f06b"
         id="stop1425" />
    </linearGradient>
    <linearGradient
       id="m"
       gradientUnits="userSpaceOnUse"
       x1="17"
       y1="253"
       x2="18.608"
       y2="259"
       gradientTransform="matrix(1 0 0 .33333 8 -18.667)">
      <stop
         offset="0"
         stop-color="#f9f06b"
         id="stop1428" />
      <stop
         offset=".512"
         stop-color="#fcf7ac"
         id="stop1430" />
      <stop
         offset="1"
         stop-color="#f9f06b"
         id="stop1432" />
    </linearGradient>
    <linearGradient
       id="l"
       gradientUnits="userSpaceOnUse"
       x1="17"
       y1="253"
       x2="18.608"
       y2="259"
       gradientTransform="matrix(1,0,0,0.33333,0,3.333)">
      <stop
         offset="0"
         stop-color="#f9f06b"
         id="stop1435" />
      <stop
         offset=".512"
         stop-color="#fcf7ac"
         id="stop1437" />
      <stop
         offset="1"
         stop-color="#f9f06b"
         id="stop1439" />
    </linearGradient>
    <linearGradient
       id="k"
       gradientUnits="userSpaceOnUse"
       x1="17"
       y1="253"
       x2="18.608"
       y2="259"
       gradientTransform="translate(0,-162)">
      <stop
         offset="0"
         stop-color="#f9f06b"
         id="stop1442" />
      <stop
         offset=".512"
         stop-color="#fcf7ac"
         id="stop1444" />
      <stop
         offset="1"
         stop-color="#f9f06b"
         id="stop1446" />
    </linearGradient>
    <linearGradient
       id="r"
       gradientUnits="userSpaceOnUse"
       x1="37"
       y1="249"
       x2="37"
       y2="254"
       gradientTransform="rotate(-90,-79.5,193.998)">
      <stop
         offset="0"
         stop-color="#d5d1cc"
         id="stop1449" />
      <stop
         offset=".183"
         stop-color="#f6f5f4"
         id="stop1451" />
      <stop
         offset=".395"
         stop-color="#fff"
         id="stop1453" />
      <stop
         offset=".784"
         stop-color="#d7d3ce"
         id="stop1455" />
      <stop
         offset="1"
         stop-color="#c8c2bb"
         id="stop1457" />
    </linearGradient>
    <clipPath
       id="b">
      <path
         d="M18 102h86v16H18zm0 0"
         id="path1460" />
    </clipPath>
    <clipPath
       id="i">
      <path
         d="M16.496 28.445h96.176c4.418 0 8 3.575 8 7.989v73.578c0 4.414-3.582 7.988-8 7.988H16.496c-4.418 0-8-3.574-8-7.988V36.434c0-4.414 3.582-7.989 8-7.989zm0 0"
         id="path1463" />
    </clipPath>
    <clipPath
       id="h">
      <path
         d="M98 115h6v3h-6zm0 0"
         id="path1466" />
    </clipPath>
    <clipPath
       id="f">
      <path
         d="M16.496 28.445h96.176c4.418 0 8 3.575 8 7.989v73.578c0 4.414-3.582 7.988-8 7.988H16.496c-4.418 0-8-3.574-8-7.988V36.434c0-4.414 3.582-7.989 8-7.989zm0 0"
         id="path1469" />
    </clipPath>
    <clipPath
       id="e">
      <path
         d="M18 116h76v2H18zm0 0"
         id="path1472" />
    </clipPath>
    <clipPath
       id="c">
      <path
         d="M16.496 28.445h96.176c4.418 0 8 3.575 8 7.989v73.578c0 4.414-3.582 7.988-8 7.988H16.496c-4.418 0-8-3.574-8-7.988V36.434c0-4.414 3.582-7.989 8-7.989zm0 0"
         id="path1475" />
    </clipPath>
    <linearGradient
       xlink:href="#j"
       id="linearGradient6"
       gradientUnits="userSpaceOnUse"
       gradientTransform="matrix(0,-0.74074302,0.74074302,0,-144.14598,91.259319)"
       x1="37"
       y1="249"
       x2="37"
       y2="254" />
    <linearGradient
       xlink:href="#r"
       id="linearGradient7"
       gradientUnits="userSpaceOnUse"
       gradientTransform="matrix(0,-0.74074302,0.74074302,0,-126.00074,106.07418)"
       x1="37"
       y1="249"
       x2="37"
       y2="254" />
    <linearGradient
       xlink:href="#j"
       id="linearGradient11"
       gradientUnits="userSpaceOnUse"
       gradientTransform="matrix(0,-0.74074302,0.74074302,0,-92.293966,91.259319)"
       x1="37"
       y1="249"
       x2="37"
       y2="254" />
    <linearGradient
       xlink:href="#r"
       id="linearGradient12"
       gradientUnits="userSpaceOnUse"
       gradientTransform="matrix(0,-0.74074302,0.74074302,0,-74.148724,106.07418)"
       x1="37"
       y1="249"
       x2="37"
       y2="254" />
    <linearGradient
       xlink:href="#j"
       id="linearGradient16"
       gradientUnits="userSpaceOnUse"
       gradientTransform="matrix(0,-0.74074302,0.74074302,0,-170.07168,91.259319)"
       x1="37"
       y1="249"
       x2="37"
       y2="254" />
    <linearGradient
       xlink:href="#r"
       id="linearGradient17"
       gradientUnits="userSpaceOnUse"
       gradientTransform="matrix(0,-0.74074302,0.74074302,0,-151.92644,106.07418)"
       x1="37"
       y1="249"
       x2="37"
       y2="254" />
    <linearGradient
       xlink:href="#j"
       id="linearGradient18"
       gradientUnits="userSpaceOnUse"
       gradientTransform="matrix(0,-0.74074302,0.74074302,0,-118.21998,91.259319)"
       x1="37"
       y1="249"
       x2="37"
       y2="254" />
    <linearGradient
       xlink:href="#r"
       id="linearGradient19"
       gradientUnits="userSpaceOnUse"
       gradientTransform="matrix(0,-0.74074302,0.74074302,0,-100.07473,106.07418)"
       x1="37"
       y1="249"
       x2="37"
       y2="254" />
  </defs>
  <path
     d="M16 35.988h96a8 8 0 018 8V110a8 8 0 01-8 8H16a8 8 0 01-8-8V43.988a8 8 0 018-8zm0 0"
     fill="url(#a)"
     id="path1480" />
  <path
     d="M15.988 28C11.563 28 8 31.582 8 36.027v71.946c0 4.445 3.563 8.027 7.988 8.027h96.024c4.425 0 7.988-3.582 7.988-8.027V36.027c0-4.445-3.563-8.027-7.988-8.027H108a8 8 0 01-16 0zm0 0"
     fill="#2ec27e"
     id="path1482" />
  <g
     clip-path="url(#b)"
     id="g1490">
    <g
       clip-path="url(#c)"
       id="g1488">
      <path
         d="M101 102.879c1.66 0 3 1.336 3 2.996v13.977c0 1.66-1.34 2.996-3 2.996s-3-1.336-3-2.996v-13.977c0-1.66 1.34-2.996 3-2.996zm-10 0c1.66 0 3 1.336 3 2.996v13.977c0 1.66-1.34 2.996-3 2.996s-3-1.336-3-2.996v-13.977c0-1.66 1.34-2.996 3-2.996zm-10 0c1.66 0 3 1.336 3 2.996v13.977c0 1.66-1.34 2.996-3 2.996s-3-1.336-3-2.996v-13.977c0-1.66 1.34-2.996 3-2.996zm-10 0c1.66 0 3 1.336 3 2.996v13.977c0 1.66-1.34 2.996-3 2.996s-3-1.336-3-2.996v-13.977c0-1.66 1.34-2.996 3-2.996zm-10 0c1.66 0 3 1.336 3 2.996v13.977c0 1.66-1.34 2.996-3 2.996s-3-1.336-3-2.996v-13.977c0-1.66 1.34-2.996 3-2.996zm-10 0c1.66 0 3 1.336 3 2.996v13.977c0 1.66-1.34 2.996-3 2.996s-3-1.336-3-2.996v-13.977c0-1.66 1.34-2.996 3-2.996zm-10 0c1.66 0 3 1.336 3 2.996v13.977c0 1.66-1.34 2.996-3 2.996s-3-1.336-3-2.996v-13.977c0-1.66 1.34-2.996 3-2.996zm-10 0c1.66 0 3 1.336 3 2.996v13.977c0 1.66-1.34 2.996-3 2.996s-3-1.336-3-2.996v-13.977c0-1.66 1.34-2.996 3-2.996zm-10 0c1.66 0 3 1.336 3 2.996v13.977c0 1.66-1.34 2.996-3 2.996s-3-1.336-3-2.996v-13.977c0-1.66 1.34-2.996 3-2.996zm0 0"
         fill="url(#d)"
         id="path1486" />
    </g>
  </g>
  <g
     clip-path="url(#e)"
     id="g1496">
    <g
       clip-path="url(#f)"
       id="g1494">
      <path
         d="M88 116h6v3.992h-6zm-10 0h6v3.992h-6zm-10 0h6v3.992h-6zm-10 0h6v3.992h-6zm-10 0h6v3.992h-6zm-10 0h6v3.992h-6zm-10 0h6v3.992h-6zm-10 0h6v3.992h-6zm0 0"
         fill="url(#g)"
         id="path1492" />
    </g>
  </g>
  <g
     clip-path="url(#h)"
     id="g1502">
    <g
       clip-path="url(#i)"
       id="g1500">
      <path
         d="M98 115.86h6v3.992h-6zm0 0"
         fill="#f5c211"
         id="path1498" />
    </g>
  </g>
  <path
     d="M8 106.973v1c0 4.445 3.563 8.027 7.988 8.027h96.024c4.425 0 7.988-3.582 7.988-8.027v-1c0 4.445-3.563 8.027-7.988 8.027H15.988C11.563 115 8 111.418 8 106.973zm0 0"
     fill="#fff"
     fill-opacity=".126"
     id="path1504" />
  <path
     d="m 12,92 h 8 v 6 h -8 z m 0,0"
     fill="url(#k)"
     id="path1526"
     style="fill:url(#k)" />
  <path
     d="m 12,88 h 8 v 2 h -8 z m 0,0"
     fill="url(#l)"
     id="path1528"
     style="fill:url(#l)" />
  <path
     d="M20 66h8v2h-8zm0 0"
     fill="url(#m)"
     id="path1530" />
  <path
     d="m 20,44 h 8 v 6 h -8 z m 0,0"
     fill="url(#n)"
     id="path1532"
     style="fill:url(#n)" />
  <path
     d="m 20,40 h 8 v 2 h -8 z m 0,0"
     fill="url(#o)"
     id="path1534"
     style="fill:url(#o)" />
  <path
     d="m 108,102 h 6 v 6 h -6 z m 0,0"
     fill="#986a44"
     id="path1550" />
  <path
     d="m 108,102 h 6 v 4 h -6 z m 0,0"
     fill="#b5835a"
     id="path1552" />
  <path
     d="m 108,102 h 2 v 4 h -2 z m 0,0"
     fill="#f6f5f4"
     id="path1554" />
  <path
     d="m 108,108 h 2 v -2 h -2 z m 0,0"
     fill="#c0bfbc"
     id="path1556" />
  <path
     d="m 114,102 h 2 v 4 h -2 z m 0,0"
     fill="#f6f5f4"
     id="path1558" />
  <path
     d="m 114,108 h 2 v -2 h -2 z m 0,0"
     fill="#c0bfbc"
     id="path1560" />
  <path
     d="m 108,96 h 6 v 6 h -6 z m 0,0"
     fill="#986a44"
     id="path1562" />
  <path
     d="m 108,96 h 6 v 4 h -6 z m 0,0"
     fill="#b5835a"
     id="path1564" />
  <path
     d="m 108,96 h 2 v 4 h -2 z m 0,0"
     fill="#f6f5f4"
     id="path1566" />
  <path
     d="m 108,102 h 2 v -2 h -2 z m 0,0"
     fill="#c0bfbc"
     id="path1568" />
  <path
     d="m 114,96 h 2 v 4 h -2 z m 0,0"
     fill="#f6f5f4"
     id="path1570" />
  <path
     d="m 114,102 h 2 v -2 h -2 z m 0,0"
     fill="#c0bfbc"
     id="path1572" />
  <path
     d="m 108,90 h 6 v 6 h -6 z m 0,0"
     fill="#986a44"
     id="path1574" />
  <path
     d="m 108,90 h 6 v 4 h -6 z m 0,0"
     fill="#b5835a"
     id="path1576" />
  <path
     d="m 108,90 h 2 v 4 h -2 z m 0,0"
     fill="#f6f5f4"
     id="path1578" />
  <path
     d="m 108,96 h 2 v -2 h -2 z m 0,0"
     fill="#c0bfbc"
     id="path1580" />
  <path
     d="m 114,90 h 2 v 4 h -2 z m 0,0"
     fill="#f6f5f4"
     id="path1582" />
  <path
     d="m 114,96 h 2 v -2 h -2 z m 0,0"
     fill="#c0bfbc"
     id="path1584" />
  <path
     d="M68 40v-8h4v8zm0 0"
     fill="#986a44"
     id="path1586" />
  <path
     d="M68 40v-8h2v8zm0 0"
     fill="#b5835a"
     id="path1588" />
  <path
     d="M68 40v-2h4v2zm0 0M68 34v-2h4v2zm0 0"
     fill="#f6f5f4"
     id="path1590" />
  <path
     d="M80 40v-8h4v8zm0 0"
     fill="#986a44"
     id="path1592" />
  <path
     d="M80 40v-8h2v8zm0 0"
     fill="#b5835a"
     id="path1594" />
  <path
     d="M80 40v-2h4v2zm0 0M80 34v-2h4v2zm0 0"
     fill="#f6f5f4"
     id="path1596" />
  <path
     d="M74 40v-8h4v8zm0 0"
     fill="#986a44"
     id="path1598" />
  <path
     d="M74 40v-8h2v8zm0 0"
     fill="#b5835a"
     id="path1600" />
  <path
     d="M74 40v-2h4v2zm0 0M74 34v-2h4v2zm0 0"
     fill="#f6f5f4"
     id="path1602" />
  <path
     d="M 68.073931,81.62966 V 63.851827 a 2.2222291,2.2222291 0 0 1 2.222229,-2.222229 h 13.333374 a 2.2222291,2.2222291 0 0 1 2.22223,2.222229 V 81.62966 a 2.2222291,2.2222291 0 0 1 -2.22223,2.222229 H 70.29616 A 2.2222291,2.2222291 0 0 1 68.073931,81.62966 Z m 0,0"
     fill="#5e5c64"
     id="path1"
     style="fill:#3d3846;fill-opacity:1;stroke-width:0.740743" />
  <path
     d="m 65.851702,78.666688 c 0,0.411112 0.329631,0.740743 0.740743,0.740743 h 2.965935 v -1.481486 h -2.965935 c -0.411112,0 -0.740743,0.32963 -0.740743,0.740743 z m 0,-2.962973 c 0,0.411113 0.329631,0.740744 0.740743,0.740744 h 2.965935 v -1.481487 h -2.965935 c -0.411112,0 -0.740743,0.329631 -0.740743,0.740743 z m 0,-2.962972 c 0,0.411113 0.329631,0.740743 0.740743,0.740743 H 69.55838 V 72 h -2.965935 c -0.411112,0 -0.740743,0.329631 -0.740743,0.740743 z m 0,-2.962972 c 0,0.411113 0.329631,0.740743 0.740743,0.740743 h 2.965935 v -1.481486 h -2.965935 c -0.411112,0 -0.740743,0.329631 -0.740743,0.740743 z m 0,-2.962972 c 0,0.411113 0.329631,0.740743 0.740743,0.740743 h 2.965935 v -1.481486 h -2.965935 c -0.411112,0 -0.740743,0.329631 -0.740743,0.740743 z m 0,-2.962972 c 0,0.411113 0.329631,0.740743 0.740743,0.740743 h 2.965935 v -1.481486 h -2.965935 c -0.411112,0 -0.740743,0.329631 -0.740743,0.740743 z m 0,0"
     fill="url(#j)"
     id="path1514"
     style="fill:url(#linearGradient18);stroke-width:0.740743" />
  <path
     d="m 84.370277,79.407431 h 2.962973 c 0.411112,0 0.740743,-0.329631 0.740743,-0.740743 0,-0.411113 -0.329631,-0.740743 -0.740743,-0.740743 h -2.962973 z m 0,-2.962972 h 2.962973 c 0.411112,0 0.740743,-0.329631 0.740743,-0.740744 0,-0.411112 -0.329631,-0.740743 -0.740743,-0.740743 h -2.962973 z m 0,-2.962973 h 2.962973 c 0.411112,0 0.740743,-0.32963 0.740743,-0.740743 C 88.073993,72.329631 87.744362,72 87.33325,72 h -2.962973 z m 0,-2.962972 h 2.962973 c 0.411112,0 0.740743,-0.32963 0.740743,-0.740743 0,-0.411112 -0.329631,-0.740743 -0.740743,-0.740743 h -2.962973 z m 0,-2.962972 h 2.962973 c 0.411112,0 0.740743,-0.32963 0.740743,-0.740743 0,-0.411112 -0.329631,-0.740743 -0.740743,-0.740743 h -2.962973 z m 0,-2.962972 h 2.962973 c 0.411112,0 0.740743,-0.32963 0.740743,-0.740743 0,-0.411112 -0.329631,-0.740743 -0.740743,-0.740743 h -2.962973 z m 0,0"
     fill="url(#r)"
     id="path1604"
     style="fill:url(#linearGradient19);stroke-width:0.740743" />
  <path
     d="M 68.073931,80.148174 V 62.370341 a 2.2222291,2.2222291 0 0 1 2.222229,-2.222229 h 13.333374 a 2.2222291,2.2222291 0 0 1 2.22223,2.222229 v 17.777833 a 2.2222291,2.2222291 0 0 1 -2.22223,2.222229 H 70.29616 a 2.2222291,2.2222291 0 0 1 -2.222229,-2.222229 z m 0,0"
     fill="#5e5c64"
     id="path1516"
     style="stroke-width:0.740743" />
  <path
     d="m 69.555417,68.296285 h 11.111145 v 1.481486 H 69.555417 Z m 0,0 m 0,2.962972 h 5.925944 v 2.962972 h -5.925944 z m 0,0 m 6.666687,0 h 8.148173 v 2.962972 h -8.148173 z m 0,0"
     fill="#77767b"
     id="path1520"
     style="stroke-width:0.740743" />
  <path
     d="M 42.147928,81.62966 V 63.851827 a 2.2222291,2.2222291 0 0 1 2.222229,-2.222229 h 13.333374 a 2.2222291,2.2222291 0 0 1 2.22223,2.222229 V 81.62966 a 2.2222291,2.2222291 0 0 1 -2.22223,2.222229 H 44.370157 A 2.2222291,2.2222291 0 0 1 42.147928,81.62966 Z m 0,0"
     fill="#5e5c64"
     id="path2"
     style="fill:#3d3846;fill-opacity:1;stroke-width:0.740743" />
  <path
     d="m 39.925699,78.666688 c 0,0.411112 0.329631,0.740743 0.740743,0.740743 h 2.965935 v -1.481486 h -2.965935 c -0.411112,0 -0.740743,0.32963 -0.740743,0.740743 z m 0,-2.962973 c 0,0.411113 0.329631,0.740744 0.740743,0.740744 h 2.965935 v -1.481487 h -2.965935 c -0.411112,0 -0.740743,0.329631 -0.740743,0.740743 z m 0,-2.962972 c 0,0.411113 0.329631,0.740743 0.740743,0.740743 h 2.965935 V 72 h -2.965935 c -0.411112,0 -0.740743,0.329631 -0.740743,0.740743 z m 0,-2.962972 c 0,0.411113 0.329631,0.740743 0.740743,0.740743 h 2.965935 v -1.481486 h -2.965935 c -0.411112,0 -0.740743,0.329631 -0.740743,0.740743 z m 0,-2.962972 c 0,0.411113 0.329631,0.740743 0.740743,0.740743 h 2.965935 v -1.481486 h -2.965935 c -0.411112,0 -0.740743,0.329631 -0.740743,0.740743 z m 0,-2.962972 c 0,0.411113 0.329631,0.740743 0.740743,0.740743 h 2.965935 v -1.481486 h -2.965935 c -0.411112,0 -0.740743,0.329631 -0.740743,0.740743 z m 0,0"
     fill="url(#j)"
     id="path3"
     style="fill:url(#linearGradient6);stroke-width:0.740743" />
  <path
     d="m 58.444274,79.407431 h 2.962973 c 0.411112,0 0.740743,-0.329631 0.740743,-0.740743 0,-0.411113 -0.329631,-0.740743 -0.740743,-0.740743 h -2.962973 z m 0,-2.962972 h 2.962973 c 0.411112,0 0.740743,-0.329631 0.740743,-0.740744 0,-0.411112 -0.329631,-0.740743 -0.740743,-0.740743 h -2.962973 z m 0,-2.962973 h 2.962973 c 0.411112,0 0.740743,-0.32963 0.740743,-0.740743 C 62.14799,72.329631 61.818359,72 61.407247,72 h -2.962973 z m 0,-2.962972 h 2.962973 c 0.411112,0 0.740743,-0.32963 0.740743,-0.740743 0,-0.411112 -0.329631,-0.740743 -0.740743,-0.740743 h -2.962973 z m 0,-2.962972 h 2.962973 c 0.411112,0 0.740743,-0.32963 0.740743,-0.740743 0,-0.411112 -0.329631,-0.740743 -0.740743,-0.740743 h -2.962973 z m 0,-2.962972 h 2.962973 c 0.411112,0 0.740743,-0.32963 0.740743,-0.740743 0,-0.411112 -0.329631,-0.740743 -0.740743,-0.740743 h -2.962973 z m 0,0"
     fill="url(#r)"
     id="path4"
     style="fill:url(#linearGradient7);stroke-width:0.740743" />
  <path
     d="M 42.147928,80.148174 V 62.370341 a 2.2222291,2.2222291 0 0 1 2.222229,-2.222229 h 13.333374 a 2.2222291,2.2222291 0 0 1 2.22223,2.222229 v 17.777833 a 2.2222291,2.2222291 0 0 1 -2.22223,2.222229 H 44.370157 a 2.2222291,2.2222291 0 0 1 -2.222229,-2.222229 z m 0,0"
     fill="#5e5c64"
     id="path5"
     style="stroke-width:0.740743" />
  <path
     d="m 43.629414,68.296285 h 11.111145 v 1.481486 H 43.629414 Z m 0,0 m 0,2.962972 h 5.925944 v 2.962972 h -5.925944 z m 0,0 m 6.666687,0 h 8.148173 v 2.962972 h -8.148173 z m 0,0"
     fill="#77767b"
     id="path6"
     style="stroke-width:0.740743" />
  <path
     d="M 93.999941,81.62966 V 63.851827 a 2.2222291,2.2222291 0 0 1 2.222229,-2.222229 h 13.33337 a 2.2222291,2.2222291 0 0 1 2.22223,2.222229 V 81.62966 a 2.2222291,2.2222291 0 0 1 -2.22223,2.222229 H 96.22217 A 2.2222291,2.2222291 0 0 1 93.999941,81.62966 Z m 0,0"
     fill="#5e5c64"
     id="path7"
     style="fill:#3d3846;fill-opacity:1;stroke-width:0.740743" />
  <path
     d="m 91.777712,78.666688 c 0,0.411112 0.329631,0.740743 0.740743,0.740743 h 2.965935 v -1.481486 h -2.965935 c -0.411112,0 -0.740743,0.32963 -0.740743,0.740743 z m 0,-2.962973 c 0,0.411113 0.329631,0.740744 0.740743,0.740744 h 2.965935 v -1.481487 h -2.965935 c -0.411112,0 -0.740743,0.329631 -0.740743,0.740743 z m 0,-2.962972 c 0,0.411113 0.329631,0.740743 0.740743,0.740743 H 95.48439 V 72 h -2.965935 c -0.411112,0 -0.740743,0.329631 -0.740743,0.740743 z m 0,-2.962972 c 0,0.411113 0.329631,0.740743 0.740743,0.740743 h 2.965935 v -1.481486 h -2.965935 c -0.411112,0 -0.740743,0.329631 -0.740743,0.740743 z m 0,-2.962972 c 0,0.411113 0.329631,0.740743 0.740743,0.740743 h 2.965935 v -1.481486 h -2.965935 c -0.411112,0 -0.740743,0.329631 -0.740743,0.740743 z m 0,-2.962972 c 0,0.411113 0.329631,0.740743 0.740743,0.740743 h 2.965935 v -1.481486 h -2.965935 c -0.411112,0 -0.740743,0.329631 -0.740743,0.740743 z m 0,0"
     fill="url(#j)"
     id="path8"
     style="fill:url(#linearGradient11);stroke-width:0.740743" />
  <path
     d="m 110.29629,79.407431 h 2.96297 c 0.41111,0 0.74074,-0.329631 0.74074,-0.740743 0,-0.411113 -0.32963,-0.740743 -0.74074,-0.740743 h -2.96297 z m 0,-2.962972 h 2.96297 c 0.41111,0 0.74074,-0.329631 0.74074,-0.740744 0,-0.411112 -0.32963,-0.740743 -0.74074,-0.740743 h -2.96297 z m 0,-2.962973 h 2.96297 c 0.41111,0 0.74074,-0.32963 0.74074,-0.740743 C 114,72.329631 113.67037,72 113.25926,72 h -2.96297 z m 0,-2.962972 h 2.96297 c 0.41111,0 0.74074,-0.32963 0.74074,-0.740743 0,-0.411112 -0.32963,-0.740743 -0.74074,-0.740743 h -2.96297 z m 0,-2.962972 h 2.96297 c 0.41111,0 0.74074,-0.32963 0.74074,-0.740743 0,-0.411112 -0.32963,-0.740743 -0.74074,-0.740743 h -2.96297 z m 0,-2.962972 h 2.96297 c 0.41111,0 0.74074,-0.32963 0.74074,-0.740743 0,-0.411112 -0.32963,-0.740743 -0.74074,-0.740743 h -2.96297 z m 0,0"
     fill="url(#r)"
     id="path9"
     style="fill:url(#linearGradient12);stroke-width:0.740743" />
  <path
     d="M 93.999941,80.148174 V 62.370341 a 2.2222291,2.2222291 0 0 1 2.222229,-2.222229 h 13.33337 a 2.2222291,2.2222291 0 0 1 2.22223,2.222229 v 17.777833 a 2.2222291,2.2222291 0 0 1 -2.22223,2.222229 H 96.22217 a 2.2222291,2.2222291 0 0 1 -2.222229,-2.222229 z m 0,0"
     fill="#5e5c64"
     id="path10"
     style="stroke-width:0.740743" />
  <path
     d="m 95.481427,68.296285 h 11.111143 v 1.481486 H 95.481427 Z m 0,0 m 0,2.962972 h 5.925943 v 2.962972 h -5.925943 z m 0,0 m 6.666683,0 h 8.14818 v 2.962972 h -8.14818 z m 0,0"
     fill="#77767b"
     id="path11"
     style="stroke-width:0.740743" />
  <path
     d="M 16.222229,81.62966 V 63.851827 a 2.2222291,2.2222291 0 0 1 2.222229,-2.222229 h 13.333374 a 2.2222291,2.2222291 0 0 1 2.22223,2.222229 V 81.62966 a 2.2222291,2.2222291 0 0 1 -2.22223,2.222229 H 18.444458 A 2.2222291,2.2222291 0 0 1 16.222229,81.62966 Z m 0,0"
     fill="#5e5c64"
     id="path12"
     style="fill:#3d3846;fill-opacity:1;stroke-width:0.740743" />
  <path
     d="m 14,78.666688 c 0,0.411112 0.329631,0.740743 0.740743,0.740743 h 2.965935 V 77.925945 H 14.740743 C 14.329631,77.925945 14,78.255575 14,78.666688 Z m 0,-2.962973 c 0,0.411113 0.329631,0.740744 0.740743,0.740744 h 2.965935 V 74.962972 H 14.740743 C 14.329631,74.962972 14,75.292603 14,75.703715 Z m 0,-2.962972 c 0,0.411113 0.329631,0.740743 0.740743,0.740743 h 2.965935 V 72 H 14.740743 C 14.329631,72 14,72.329631 14,72.740743 Z m 0,-2.962972 c 0,0.411113 0.329631,0.740743 0.740743,0.740743 h 2.965935 V 69.037028 H 14.740743 C 14.329631,69.037028 14,69.366659 14,69.777771 Z m 0,-2.962972 c 0,0.411113 0.329631,0.740743 0.740743,0.740743 h 2.965935 V 66.074056 H 14.740743 C 14.329631,66.074056 14,66.403687 14,66.814799 Z m 0,-2.962972 c 0,0.411113 0.329631,0.740743 0.740743,0.740743 h 2.965935 V 63.111084 H 14.740743 C 14.329631,63.111084 14,63.440715 14,63.851827 Z m 0,0"
     fill="url(#j)"
     id="path13"
     style="fill:url(#linearGradient16);stroke-width:0.740743" />
  <path
     d="m 32.518575,79.407431 h 2.962973 c 0.411112,0 0.740743,-0.329631 0.740743,-0.740743 0,-0.411113 -0.329631,-0.740743 -0.740743,-0.740743 h -2.962973 z m 0,-2.962972 h 2.962973 c 0.411112,0 0.740743,-0.329631 0.740743,-0.740744 0,-0.411112 -0.329631,-0.740743 -0.740743,-0.740743 h -2.962973 z m 0,-2.962973 h 2.962973 c 0.411112,0 0.740743,-0.32963 0.740743,-0.740743 C 36.222291,72.329631 35.89266,72 35.481548,72 h -2.962973 z m 0,-2.962972 h 2.962973 c 0.411112,0 0.740743,-0.32963 0.740743,-0.740743 0,-0.411112 -0.329631,-0.740743 -0.740743,-0.740743 h -2.962973 z m 0,-2.962972 h 2.962973 c 0.411112,0 0.740743,-0.32963 0.740743,-0.740743 0,-0.411112 -0.329631,-0.740743 -0.740743,-0.740743 h -2.962973 z m 0,-2.962972 h 2.962973 c 0.411112,0 0.740743,-0.32963 0.740743,-0.740743 0,-0.411112 -0.329631,-0.740743 -0.740743,-0.740743 h -2.962973 z m 0,0"
     fill="url(#r)"
     id="path14"
     style="fill:url(#linearGradient17);stroke-width:0.740743" />
  <path
     d="M 16.222229,80.148174 V 62.370341 a 2.2222291,2.2222291 0 0 1 2.222229,-2.222229 h 13.333374 a 2.2222291,2.2222291 0 0 1 2.22223,2.222229 v 17.777833 a 2.2222291,2.2222291 0 0 1 -2.22223,2.222229 H 18.444458 a 2.2222291,2.2222291 0 0 1 -2.222229,-2.222229 z m 0,0"
     fill="#5e5c64"
     id="path15"
     style="stroke-width:0.740743" />
  <path
     d="M 17.703715,68.296285 H 28.81486 v 1.481486 H 17.703715 Z m 0,0 m 0,2.962972 h 5.925944 v 2.962972 h -5.925944 z m 0,0 m 6.666687,0 h 8.148173 v 2.962972 h -8.148173 z m 0,0"
     fill="#77767b"
     id="path16"
     style="stroke-width:0.740743" />
</svg>
