<?xml version="1.0" encoding="UTF-8" standalone="no"?>
<svg
   height="128"
   viewBox="0 0 128 128"
   width="128"
   version="1.1"
   id="svg5248"
   xmlns:xlink="http://www.w3.org/1999/xlink"
   xmlns="http://www.w3.org/2000/svg"
   xmlns:svg="http://www.w3.org/2000/svg">
  <defs
     id="defs5252">
    <linearGradient
       xlink:href="#linearGradient2023"
       id="linearGradient2025"
       x1="2689.252"
       y1="-1106.803"
       x2="2918.0698"
       y2="-1106.803"
       gradientUnits="userSpaceOnUse" />
    <linearGradient
       id="linearGradient2023">
      <stop
         style="stop-color:#62a0ea;stop-opacity:1;"
         offset="0"
         id="stop2019" />
      <stop
         style="stop-color:#afd4ff;stop-opacity:1;"
         offset="0.05769911"
         id="stop2795" />
      <stop
         style="stop-color:#62a0ea;stop-opacity:1;"
         offset="0.12220427"
         id="stop2797" />
      <stop
         style="stop-color:#62a0ea;stop-opacity:1;"
         offset="0.87330586"
         id="stop2793" />
      <stop
         style="stop-color:#c0d5ea;stop-opacity:1;"
         offset="0.95599729"
         id="stop2791" />
      <stop
         style="stop-color:#62a0ea;stop-opacity:1;"
         offset="1"
         id="stop2021" />
    </linearGradient>
  </defs>
  <linearGradient
     id="a"
     gradientUnits="userSpaceOnUse"
     x1="11.999989"
     x2="115.99999"
     y1="64"
     y2="64">
    <stop
       offset="0"
       stop-color="#3d3846"
       id="stop5214" />
    <stop
       offset="0.05"
       stop-color="#77767b"
       id="stop5216" />
    <stop
       offset="0.1"
       stop-color="#5e5c64"
       id="stop5218" />
    <stop
       offset="0.899999"
       stop-color="#504e56"
       id="stop5220" />
    <stop
       offset="0.95"
       stop-color="#77767b"
       id="stop5222" />
    <stop
       offset="1"
       stop-color="#3d3846"
       id="stop5224" />
  </linearGradient>
  <linearGradient
     id="b"
     gradientUnits="userSpaceOnUse"
     x1="12"
     x2="112.04102"
     y1="60"
     y2="80.988281">
    <stop
       offset="0"
       stop-color="#77767b"
       id="stop5227" />
    <stop
       offset="0.384443"
       stop-color="#9a9996"
       id="stop5229" />
    <stop
       offset="0.720567"
       stop-color="#77767b"
       id="stop5231" />
    <stop
       offset="1"
       stop-color="#68666f"
       id="stop5233" />
  </linearGradient>
  <g
     id="g760"
     style="display:inline;stroke-width:1.26428;enable-background:new"
     transform="matrix(0.45451006,0,0,0.45552152,-1210.2921,616.15659)">
    <path
       id="rect1135"
       style="fill:#438de6;fill-opacity:1;stroke-width:8.79091;stroke-linecap:round;stop-color:#000000"
       d="m 2711.2064,-1326.3316 c -12.1618,0 -21.9544,9.791 -21.9544,21.9528 v 188.867 c 0,12.1618 9.7926,21.9528 21.9544,21.9528 h 184.9089 c 12.1619,0 21.9545,-9.791 21.9545,-21.9528 v -158.2547 a 26.343462,26.343462 45 0 0 -26.3435,-26.3435 h -101.2664 a 14.283764,14.283764 31.638659 0 1 -12.7581,-7.8607 l -3.3076,-6.5699 a 21.425501,21.425501 31.638659 0 0 -19.1371,-11.791 z" />
    <path
       id="path1953"
       style="fill:url(#linearGradient2025);fill-opacity:1;stroke-width:8.79091;stroke-linecap:round;stop-color:#000000"
       d="m 2808.014,-1273.6447 c -6.0429,0 -11.5016,2.4179 -15.4646,6.3426 -5.0031,4.9549 -11.8483,11.2197 -18.9936,11.2197 h -62.3494 c -12.1618,0 -21.9544,9.791 -21.9544,21.9528 v 118.6179 c 0,12.1618 9.7926,21.9528 21.9544,21.9528 h 184.9089 c 12.1619,0 21.9545,-9.791 21.9545,-21.9528 v -105.4461 -13.1718 -17.5623 c 0,-12.1618 -9.7926,-21.9528 -21.9545,-21.9528 z" />
    <path
       id="rect1586"
       style="fill:#a4caee;fill-opacity:1;stroke-width:8.79091;stroke-linecap:round;stop-color:#000000"
       d="m 2808.014,-1282.4259 c -6.0429,0 -11.5016,2.4179 -15.4646,6.3426 -5.0031,4.9549 -11.8483,11.2197 -18.9936,11.2197 h -62.3494 c -12.1618,0 -21.9544,9.791 -21.9544,21.9528 v 122.8867 c 0,12.1618 9.7926,21.9528 21.9544,21.9528 h 184.9089 c 12.1619,0 21.9545,-9.791 21.9545,-21.9528 v -109.7149 -13.1718 -17.5623 c 0,-12.1618 -9.7926,-21.9528 -21.9545,-21.9528 z" />
  </g>
  <path
     d="m 63.78906,59.984867 c -8.7578,0 -15.78906,7.25 -15.78906,16 0,8.835938 7.16406,16 16,16 8.83594,0 16,-7.164062 16,-16 0,-8.835938 -7.16406,-16 -16,-16 -0.0704,0 -0.1406,0 -0.21094,0 z m -3.9375,4.921876 c 0.46876,0.03906 0.875,0.343748 1.04688,0.781248 0.0234,0.453126 -0.32032,0.843752 -0.77344,0.875 -0.45312,0 -0.82032,0.367188 -0.82032,0.820314 v 2.367186 c 0,0.882814 -0.71092,1.601564 -1.59374,1.601564 -0.88282,0 -1.59376,0.710936 -1.60156,1.59375 0,0.875 -0.71094,1.59375 -1.59376,1.59375 -0.8828,0 -1.59374,0.710936 -1.59374,1.59375 0,0.882812 0.71094,1.59375 1.59374,1.59375 0.88282,0 1.60156,0.710936 1.59376,1.601562 v 5.710938 c -2.5625,-2.273438 -4.03126,-5.53125 -4.03126,-8.953126 0,-2.984374 1.125,-5.859374 3.13282,-8.054686 l 0.1094,-0.10156 c 0.46874,-0.5 0.97656,-0.960936 1.52344,-1.367188 l 0.0782,-0.0625 c 0.89844,-0.664062 1.8828,-1.203124 2.9375,-1.593748 z m 9.0625,0.867186 h 1.1875 c 0.96094,0.5625 1.83594,1.257814 2.60938,2.070314 -0.0704,0.0156 -0.1406,0.02344 -0.21094,0.02344 h -3.58594 c -0.57812,0 -1.03906,-0.46875 -1.03906,-1.046874 0,-0.585938 0.46094,-1.046876 1.03906,-1.046876 z m -4.10156,1.742188 c 0.64062,0 1.15624,0.515626 1.15624,1.164062 v 1.265626 c 0,0.640624 -0.51562,1.164062 -1.15624,1.164062 -0.64062,0 -1.16406,-0.523438 -1.16406,-1.164062 v -1.265626 c 0,-0.648436 0.52344,-1.164062 1.16406,-1.164062 z m 4.57812,1.34375 h 4.17188 c 1.52344,2 2.375,4.4375 2.42968,6.953124 -0.25,0.210938 -0.55468,0.328126 -0.8828,0.335938 l -2.25782,-0.0156 c -1.34374,0 -2.42968,1.09375 -2.4375,2.4375 v 2.695312 c 0.008,0.882812 -0.71094,1.59375 -1.58594,1.59375 -0.89062,0.0078 -1.60156,-0.710938 -1.60156,-1.59375 v -1.742192 c 0.1796,-0.625 -0.1796,-1.273438 -0.79688,-1.460938 -0.80468,0 -1.45312,-0.648436 -1.45312,-1.453124 v -2.476562 c -0.0782,-0.945314 0.63282,-1.765626 1.57032,-1.835938 0.78906,0 1.42186,-0.632812 1.42968,-1.421876 v -0.601562 c 0,-0.78125 0.63282,-1.414062 1.41406,-1.421874 z m 0,0"
     fill="#222222"
     id="path1"
     style="fill:#438de6;fill-opacity:1;stroke-width:2" />
</svg>
