<?xml version="1.0" encoding="UTF-8" standalone="no"?>
<svg
   height="128"
   viewBox="0 0 128 128"
   width="128"
   version="1.1"
   id="svg5248"
   xmlns:xlink="http://www.w3.org/1999/xlink"
   xmlns="http://www.w3.org/2000/svg"
   xmlns:svg="http://www.w3.org/2000/svg">
  <defs
     id="defs5252">
    <filter
       style="color-interpolation-filters:sRGB"
       id="filter1302"
       x="-0.012000846"
       width="1.0240017"
       y="-0.011999155"
       height="1.0239983">
      <feGaussianBlur
         stdDeviation="2.0803224"
         id="feGaussianBlur1304" />
    </filter>
    <linearGradient
       id="bg-gradient-2">
      <stop
         style="stop-color:#3584e4;stop-opacity:1"
         offset="0"
         id="stop13402" />
      <stop
         style="stop-color:#62a0ea;stop-opacity:1"
         offset="1"
         id="stop13404" />
    </linearGradient>
    <clipPath
       clipPathUnits="userSpaceOnUse"
       id="clipPath1509">
      <path
         id="path1511"
         d="M 192,-164 H 88 c 0,0 -40,0 -40,40 V 4 h 416 v -96 c 0,0 0,-40 -40,-40 H 224 Z"
         style="display:inline;opacity:1;vector-effect:none;fill:#c9b8a7;fill-opacity:1;stroke:none;stroke-width:26.0669;stroke-linecap:butt;stroke-linejoin:miter;stroke-miterlimit:4;stroke-dasharray:none;stroke-dashoffset:0;stroke-opacity:1;marker:none;marker-start:none;marker-mid:none;marker-end:none;paint-order:normal;enable-background:new" />
    </clipPath>
    <filter
       style="color-interpolation-filters:sRGB"
       id="filter1529"
       x="-0.10846153"
       width="1.2169231"
       y="-0.13428571"
       height="1.2685714">
      <feGaussianBlur
         stdDeviation="18.8"
         id="feGaussianBlur1531" />
    </filter>
    <linearGradient
       id="linearGradient888">
      <stop
         style="stop-color:#99c1f1;stop-opacity:1"
         offset="0"
         id="stop884" />
      <stop
         style="stop-color:#c3e5e7;stop-opacity:1"
         offset="1"
         id="stop886" />
    </linearGradient>
    <linearGradient
       xlink:href="#bg-gradient-2"
       id="linearGradient5836"
       gradientUnits="userSpaceOnUse"
       x1="64"
       y1="756"
       x2="480"
       y2="756" />
    <linearGradient
       xlink:href="#linearGradient888"
       id="linearGradient5838"
       gradientUnits="userSpaceOnUse"
       x1="152.89844"
       y1="-38.796875"
       x2="447.30859"
       y2="316" />
  </defs>
  <linearGradient
     id="a"
     gradientUnits="userSpaceOnUse"
     x1="11.999989"
     x2="115.99999"
     y1="64"
     y2="64">
    <stop
       offset="0"
       stop-color="#3d3846"
       id="stop5214" />
    <stop
       offset="0.05"
       stop-color="#77767b"
       id="stop5216" />
    <stop
       offset="0.1"
       stop-color="#5e5c64"
       id="stop5218" />
    <stop
       offset="0.899999"
       stop-color="#504e56"
       id="stop5220" />
    <stop
       offset="0.95"
       stop-color="#77767b"
       id="stop5222" />
    <stop
       offset="1"
       stop-color="#3d3846"
       id="stop5224" />
  </linearGradient>
  <linearGradient
     id="b"
     gradientUnits="userSpaceOnUse"
     x1="12"
     x2="112.04102"
     y1="60"
     y2="80.988281">
    <stop
       offset="0"
       stop-color="#77767b"
       id="stop5227" />
    <stop
       offset="0.384443"
       stop-color="#9a9996"
       id="stop5229" />
    <stop
       offset="0.720567"
       stop-color="#77767b"
       id="stop5231" />
    <stop
       offset="1"
       stop-color="#68666f"
       id="stop5233" />
  </linearGradient>
  <g
     transform="matrix(0.2511615,0,0,0.2511615,-0.29292947,52.434794)"
     id="g5798"
     style="fill:#c9b8a7;fill-opacity:1;stroke:#a08f7f;stroke-opacity:1">
    <path
       id="path5786"
       d="m 88,-162 c 0,0 -40,0 -40,40 L 47.964844,6 h 0.0332 L 47.964844,254.0938 424,254 c 40,0 40,-40 40,-40 V 6 -42 -90 c 0,0 0,-40 -40,-40 H 224 l -32,-32 z"
       style="display:inline;opacity:0.2;fill:#000000;fill-opacity:1;stroke:none;stroke-width:26.0669;stroke-linecap:butt;stroke-linejoin:miter;stroke-miterlimit:4;stroke-dasharray:none;stroke-dashoffset:0;stroke-opacity:1;marker:none;marker-start:none;marker-mid:none;marker-end:none;paint-order:normal;filter:url(#filter1302);enable-background:new" />
    <path
       style="display:inline;opacity:1;fill:url(#linearGradient5836);fill-opacity:1;stroke:none;stroke-width:26.0669;stroke-linecap:butt;stroke-linejoin:miter;stroke-miterlimit:4;stroke-dasharray:none;stroke-dashoffset:0;stroke-opacity:1;marker:none;marker-start:none;marker-mid:none;marker-end:none;paint-order:normal;enable-background:new"
       d="M 208,672 H 104 c 0,0 -40,0 -40,40 v 128 h 416 v -96 c 0,0 0,-40 -40,-40 H 240 Z"
       transform="translate(-16,-836)"
       id="path5788" />
    <path
       id="path5790"
       d="m 256,-80 -32,32 H 88 c 0,0 -40,0 -40,40 v 264 h 376 c 40,0 40,-40 40,-40 V -40 c 0,-40 -40,-40 -40,-40 z"
       style="display:inline;opacity:0.1;fill:#000000;fill-opacity:1;stroke:none;stroke-width:26.0669;stroke-linecap:butt;stroke-linejoin:miter;stroke-miterlimit:4;stroke-dasharray:none;stroke-dashoffset:0;stroke-opacity:1;marker:none;marker-start:none;marker-mid:none;marker-end:none;paint-order:normal;filter:url(#filter1529);enable-background:new"
       clip-path="url(#clipPath1509)" />
    <path
       style="display:inline;opacity:1;fill:url(#linearGradient5838);fill-opacity:1;stroke:none;stroke-width:26.0669;stroke-linecap:butt;stroke-linejoin:miter;stroke-miterlimit:4;stroke-dasharray:none;stroke-dashoffset:0;stroke-opacity:1;marker:none;marker-start:none;marker-mid:none;marker-end:none;paint-order:normal;enable-background:new"
       d="m 256,-84 -32,32 H 88 c 0,0 -40,0 -40,40 v 264 h 376 c 40,0 40,-40 40,-40 V -44 c 0,-40 -40,-40 -40,-40 z"
       id="path5792" />
    <path
       style="font-variation-settings:normal;display:inline;opacity:1;fill:#99c1f1;fill-opacity:1;stroke:none;stroke-width:26.0669;stroke-linecap:butt;stroke-linejoin:miter;stroke-miterlimit:4;stroke-dasharray:none;stroke-dashoffset:0;stroke-opacity:1;marker:none;marker-start:none;marker-mid:none;marker-end:none;paint-order:normal;enable-background:new;stop-color:#000000;stop-opacity:1"
       d="m 480,1042 c 0,0 0,40 -40,40 l -375.998047,0.094 -0.0039,6 L 440,1088 c 40,0 40,-40 40,-40 z"
       transform="translate(-16,-836)"
       id="path5794" />
    <path
       style="display:inline;opacity:0.3;fill:#ffffff;fill-opacity:1;stroke:none;stroke-width:26.0669;stroke-linecap:butt;stroke-linejoin:miter;stroke-miterlimit:4;stroke-dasharray:none;stroke-dashoffset:0;stroke-opacity:1;marker:none;marker-start:none;marker-mid:none;marker-end:none;paint-order:normal;enable-background:new"
       d="m 272,752 -32,32 H 104 c 0,0 -40,0 -40,40 v 4 c 0,-40 40,-42 40,-42 h 136.59099 l 32,-32 H 440 c 5.38035,0 40,2 40,42 v -4 c 0,-40 -40,-40 -40,-40 z"
       id="path5796"
       transform="translate(-16,-836)" />
  </g>
  <g
     id="surface105959-1"
     transform="matrix(3.4941816,0,0,3.4941816,134.02619,48.099307)"
     style="fill:#3f8ae5;fill-opacity:1;stroke:none;stroke-width:0.893536" />
  <path
     id="path8-3"
     style="fill:#438de6;fill-opacity:1;stroke-width:0.615672"
     d="m 71.444256,51.016096 c -0.769355,0.02966 -1.621115,0.206306 -2.182278,0.487991 -0.25967,0.130349 -0.548501,0.19935 -0.950385,0.224766 -1.097733,0.06948 -2.338346,0.772648 -3.599434,2.042104 l -0.712188,0.717559 -0.712187,-0.717559 c -1.26109,-1.269449 -2.501703,-1.97262 -3.599435,-2.042104 -0.401886,-0.02541 -0.690722,-0.09442 -0.950385,-0.224766 -0.673402,-0.338019 -1.765454,-0.523443 -2.631004,-0.486785 -0.288522,0.0123 -0.552178,0.04861 -0.766324,0.112979 -0.290061,0.08721 -0.461024,0.09393 -0.801212,0.03003 -0.237921,-0.04487 -0.779556,-0.0634 -1.203019,-0.04209 -0.876646,0.04425 -1.476428,0.222565 -2.075209,0.619002 -0.311933,0.206528 -0.49404,0.267513 -0.929933,0.307698 -2.509094,0.231365 -4.282432,1.617863 -4.295983,3.359433 -0.005,0.639181 0.113114,1.040258 0.458351,1.551713 0.26827,0.397423 0.274123,0.420858 0.191279,0.781264 -0.1185,0.515467 -0.10521,1.393305 0.02886,1.896668 0.154739,0.581 0.521844,1.278041 0.956401,1.817337 0.208453,0.258689 0.422673,0.634491 0.500455,0.876219 0.07488,0.2327 0.243593,0.612391 0.375342,0.843768 0.341967,0.600565 1.260527,1.52502 1.874304,1.88705 0.28691,0.169235 0.686377,0.479633 0.887829,0.68992 l 0.365731,0.382216 -0.520907,0.540877 c -0.60455,0.627156 -0.884732,1.020708 -1.266779,1.780075 -0.345953,0.687643 -0.554197,1.303666 -0.673691,1.989222 -0.06826,0.391633 -0.170908,0.65032 -0.381358,0.961557 -0.353497,0.522754 -0.499602,0.808125 -0.732638,1.426702 -0.139965,0.371503 -0.288509,0.581519 -0.653241,0.929106 -0.864282,0.823639 -1.549367,2.075675 -1.933252,3.531312 -0.163233,0.619064 -0.182357,0.851049 -0.178047,2.192347 0.0036,1.299888 0.02766,1.580927 0.174438,2.110616 0.211114,0.761861 0.684405,1.7497 1.0755,2.244028 0.19121,0.241679 0.359222,0.582615 0.471584,0.953143 0.245954,0.811118 0.500774,1.391213 0.89625,2.042104 0.199108,0.32771 0.341657,0.65653 0.341657,0.788476 0,0.124469 0.08325,0.554946 0.185264,0.956752 0.681642,2.684709 2.842487,4.994807 5.459302,5.835438 0.630193,0.202439 0.882654,0.330085 1.284826,0.65145 0.726243,0.580319 1.532701,1.081897 2.363932,1.46999 0.401129,0.187289 0.948707,0.521322 1.217456,0.742796 0.945835,0.779471 2.224622,1.375673 3.48996,1.627432 0.709829,0.141449 2.627056,0.143849 3.355222,0.0045 1.312297,-0.250859 2.576454,-0.832826 3.5465,-1.632232 0.268751,-0.221489 0.817532,-0.555522 1.218663,-0.742811 0.831229,-0.388078 1.636485,-0.889662 2.362729,-1.469978 0.402177,-0.321368 0.654632,-0.449005 1.284824,-0.651453 2.616817,-0.840628 4.77766,-3.150726 5.459302,-5.835438 0.101999,-0.401806 0.185249,-0.832292 0.185279,-0.956749 0,-0.13194 0.142499,-0.460766 0.341653,-0.788479 0.394783,-0.649757 0.650651,-1.231295 0.895045,-2.037298 0.10815,-0.356812 0.285629,-0.718166 0.472798,-0.961555 0.403842,-0.525171 0.87034,-1.495736 1.076694,-2.240422 0.146849,-0.529689 0.169529,-0.810726 0.173249,-2.110615 0.0045,-1.341297 -0.015,-1.573283 -0.178049,-2.192346 -0.383908,-1.455507 -1.068999,-2.707541 -1.93328,-3.531181 -0.364738,-0.347587 -0.512067,-0.557598 -0.652031,-0.929107 -0.233039,-0.618576 -0.380353,-0.903948 -0.733841,-1.426701 -0.210449,-0.311236 -0.311894,-0.569925 -0.380158,-0.961556 -0.11955,-0.685556 -0.328934,-1.301581 -0.674892,-1.989224 -0.382033,-0.759366 -0.662231,-1.152919 -1.266773,-1.780075 l -0.520917,-0.540876 0.365728,-0.382217 c 0.201449,-0.210287 0.600912,-0.520686 0.887815,-0.68992 0.613782,-0.36203 1.532347,-1.286491 1.874315,-1.887048 0.131699,-0.231377 0.300463,-0.61107 0.375343,-0.84377 0.07785,-0.241727 0.293218,-0.617524 0.501657,-0.876219 0.434563,-0.539295 0.800441,-1.236335 0.955195,-1.817336 0.1341,-0.503363 0.147299,-1.381208 0.0288,-1.896668 -0.0828,-0.360407 -0.07695,-0.38384 0.191279,-0.781263 0.345253,-0.511455 0.464488,-0.912534 0.459553,-1.551713 -0.006,-0.770267 -0.250874,-1.315181 -0.866111,-1.930325 -0.785156,-0.785048 -2.018374,-1.298959 -3.429806,-1.429109 -0.435883,-0.04018 -0.617997,-0.101174 -0.929936,-0.307697 -0.598781,-0.396438 -1.199753,-0.574755 -2.076405,-0.619002 -0.423463,-0.02136 -0.963901,-0.0024 -1.201818,0.04209 -0.340192,0.0639 -0.512352,0.05718 -0.802415,-0.03003 -0.321208,-0.09658 -0.753441,-0.131984 -1.215049,-0.11418 z M 56.369218,53.49451 c 0.365767,-0.012 0.922759,0.108915 1.323322,0.308898 0.257158,0.128384 0.660262,0.422462 0.896249,0.652657 0.235994,0.230195 0.456682,0.389829 0.489628,0.355773 0.03296,-0.03404 0.07036,-0.165146 0.08421,-0.292073 0.02142,-0.196442 0.06171,-0.234682 0.269478,-0.254809 0.485765,-0.04708 1.670145,0.734678 2.310999,1.525264 1.389212,1.713809 1.739397,3.612649 0.881814,4.777735 -0.257564,0.34992 -0.88792,0.83655 -1.08392,0.83655 -0.06741,0 -0.399439,-0.335458 -0.737452,-0.745208 -1.44047,-1.74615 -3.553605,-3.19757 -5.698703,-3.914729 -0.923581,-0.308768 -2.201484,-0.592607 -2.28694,-0.507222 -0.03246,0.03249 0.226786,0.174356 0.576246,0.314911 2.402829,0.966436 5.028093,2.948206 6.815105,5.144319 l 0.582261,0.716357 -0.126314,0.399048 c -0.340783,1.069213 -1.492893,1.918539 -3.055668,2.252446 -0.634142,0.135494 -2.057866,0.129674 -2.638224,-0.0108 -0.552157,-0.133664 -1.202072,-0.435731 -1.470088,-0.683908 -0.233499,-0.2162 -0.248541,-0.293758 -0.08783,-0.454334 0.06352,-0.06346 0.115485,-0.144884 0.115485,-0.181493 0,-0.03661 -0.289917,-0.160976 -0.64482,-0.276448 -0.67603,-0.219967 -1.407414,-0.646792 -1.752799,-1.022855 -0.449143,-0.489029 -0.669269,-1.069933 -0.431884,-1.140647 0.42154,-0.125564 0.420094,-0.121559 0.134745,-0.337743 -0.953626,-0.722474 -1.618514,-1.561146 -1.734755,-2.18754 -0.07816,-0.421238 0.04435,-0.53321 0.512486,-0.471165 0.45295,0.06006 0.513284,-0.03077 0.378952,-0.563708 -0.158051,-0.627126 -0.45518,-1.145725 -0.982867,-1.715176 -0.413078,-0.445756 -0.496308,-0.57657 -0.433088,-0.679102 0.125085,-0.202865 0.789058,-0.531338 1.37385,-0.679094 0.655396,-0.165597 2.089143,-0.185585 2.526341,-0.03483 0.329661,0.113654 0.439913,0.06673 0.299551,-0.12861 -0.263668,-0.366953 -0.281275,-0.477398 -0.105869,-0.652651 0.136739,-0.136619 0.278572,-0.173184 0.75309,-0.197124 0.737176,-0.03717 1.35293,0.09207 2.009043,0.421885 0.282836,0.142169 0.543264,0.258415 0.577449,0.258415 0.08925,0 0.07605,-0.289549 -0.01563,-0.346159 -0.134549,-0.08308 -0.08314,-0.33712 0.08661,-0.427891 0.06648,-0.03556 0.168002,-0.0549 0.289927,-0.05889 z m 15.262708,0 c 0.12192,0.0036 0.222239,0.02332 0.288719,0.05889 0.169769,0.09078 0.221159,0.344812 0.08661,0.427891 -0.09168,0.05661 -0.103709,0.34616 -0.0144,0.34616 0.0342,0 0.2934,-0.116234 0.576251,-0.258415 0.656111,-0.329817 1.271864,-0.45908 2.009041,-0.421885 0.474519,0.02394 0.616356,0.06049 0.753089,0.197123 0.175409,0.175253 0.157799,0.285697 -0.105869,0.652652 -0.14034,0.195338 -0.03012,0.24227 0.299548,0.12861 0.437203,-0.150728 1.87094,-0.13074 2.526347,0.03483 0.584786,0.147749 1.249973,0.476235 1.375042,0.679094 0.06315,0.102524 -0.0213,0.233345 -0.434293,0.679102 -0.527682,0.569437 -0.824815,1.088044 -0.982869,1.715175 -0.13425,0.532981 -0.07275,0.623747 0.380158,0.563709 0.468162,-0.06204 0.589452,0.0499 0.511287,0.471165 -0.116249,0.626386 -0.781121,1.46506 -1.734756,2.18754 -0.281188,0.213032 -0.283588,0.205973 0.1155,0.330536 0.255238,0.07966 0.0546,0.640387 -0.411433,1.147855 -0.345388,0.376062 -1.076754,0.802893 -1.752798,1.022855 -0.354901,0.11547 -0.646025,0.23984 -0.646022,0.276449 0,0.03661 0.05199,0.118034 0.115499,0.181493 0.160709,0.160574 0.145679,0.238126 -0.08781,0.454334 -0.277108,0.256582 -0.917443,0.549418 -1.503772,0.687512 -0.599765,0.141269 -2.008079,0.142109 -2.643035,0.0024 -1.534931,-0.338157 -2.679367,-1.191409 -3.016019,-2.247637 L 67.208426,62.4129 67.790687,61.696543 c 1.787026,-2.196107 4.41228,-4.177884 6.815105,-5.14432 0.349457,-0.140549 0.608739,-0.281255 0.576246,-0.31371 -0.08547,-0.08538 -1.363363,0.197246 -2.286938,0.506022 -2.145102,0.717151 -4.258235,2.168573 -5.698704,3.914728 -0.338013,0.409749 -0.668847,0.745208 -0.736249,0.745208 -0.196004,0 -0.827566,-0.486631 -1.085124,-0.836552 -1.216531,-1.652736 0.150161,-4.909133 2.575665,-6.13713 0.224783,-0.113805 0.470073,-0.180122 0.617149,-0.165869 0.207764,0.02013 0.248048,0.05833 0.269477,0.254809 0.0138,0.12693 0.05247,0.258011 0.08541,0.292073 0.03296,0.03404 0.25244,-0.12558 0.488426,-0.355773 0.235995,-0.230195 0.640294,-0.524268 0.897453,-0.652657 0.400561,-0.199992 0.957553,-0.320826 1.32332,-0.308898 z m -7.631955,12.67931 c 1.452597,0 2.906031,0.521104 3.994025,1.564932 0.445718,0.427627 0.778324,1.024616 0.779557,1.399065 0.0018,0.619028 -0.649426,1.309052 -1.591596,1.686326 -1.266058,0.506963 -3.621899,0.665852 -5.145313,0.347366 -0.900348,-0.188225 -1.59994,-0.466157 -2.078819,-0.825738 -0.420771,-0.315956 -0.731464,-0.83026 -0.730233,-1.207954 0.0012,-0.374449 0.33384,-0.971438 0.779557,-1.399065 1.087995,-1.043828 2.540223,-1.564932 3.992822,-1.564932 z m -7.10744,0.308897 c 1.005372,-0.0018 1.409938,0.234731 1.40994,0.823339 0,0.419514 -0.206642,0.835048 -0.741062,1.491608 -1.185244,1.456131 -3.229633,3.027881 -4.493277,3.453187 -0.534266,0.179825 -0.64827,0.184877 -0.976852,0.04209 -0.441295,-0.191787 -0.562448,-0.697895 -0.378951,-1.580557 0.321266,-1.545351 1.478349,-2.945801 3.106196,-3.760886 0.631561,-0.316233 1.299873,-0.46735 2.074006,-0.46876 z m 14.214878,0 c 0.774134,0.0012 1.443651,0.152526 2.07521,0.46876 1.627846,0.815085 2.783728,2.215535 3.104996,3.760885 0.186209,0.895617 0.06225,1.391762 -0.395803,1.582964 -0.336328,0.140414 -0.444328,0.134969 -0.976846,-0.04806 -1.260698,-0.43343 -3.301433,-2.006029 -4.476433,-3.449581 -0.534415,-0.65656 -0.741061,-1.072094 -0.741061,-1.491608 0,-0.588608 0.404567,-0.825148 1.409937,-0.823339 z m -12.428394,5.758522 c 0.734602,0.0089 1.438695,0.212762 2.054758,0.610583 1.204611,0.777885 1.83469,2.039138 1.830996,3.668336 -0.0024,0.929808 -0.12603,1.520527 -0.48602,2.313747 -1.006739,2.218329 -3.373056,3.604364 -5.431633,3.182746 -1.932986,-0.39589 -3.190321,-2.053034 -3.194017,-4.211614 -0.0036,-2.047077 1.212064,-4.081975 2.990706,-5.004896 0.735526,-0.381655 1.500603,-0.567702 2.23521,-0.558902 z m 10.688829,0.0096 c 0.811829,0 1.42802,0.154796 2.188294,0.54929 1.778647,0.922921 2.994402,2.957819 2.990706,5.004894 -0.0036,1.935623 -1.024731,3.495367 -2.66108,4.064977 -0.600825,0.209159 -1.611532,0.259979 -2.265285,0.112979 -1.842979,-0.414435 -3.457887,-2.02874 -4.016883,-4.015694 -0.219868,-0.781595 -0.234591,-2.074314 -0.03247,-2.751248 0.553353,-1.853179 1.977453,-2.965198 3.796728,-2.965198 z m -19.321697,2.783705 c 0.831743,-0.01155 1.275316,1.12909 1.273998,3.293327 -6.17e-4,1.342422 -0.134865,2.111273 -0.564216,3.223615 -0.330998,0.857509 -0.755023,1.314926 -1.217457,1.314926 -0.258803,0 -0.378449,-0.0528 -0.619555,-0.270449 -0.360703,-0.325561 -0.794061,-1.124448 -0.979258,-1.806511 -0.207062,-0.762609 -0.189773,-2.239812 0.03489,-3.033708 0.373214,-1.318603 1.2623,-2.583499 1.900772,-2.703169 0.05889,-0.01095 0.115379,-0.01728 0.170829,-0.01803 z m 27.849894,0.0024 c 0.07305,-0.0044 0.15009,6.1e-4 0.229769,0.01563 0.638487,0.119669 1.527562,1.38456 1.900775,2.703168 0.137999,0.487492 0.171959,0.805018 0.170819,1.572145 -0.0015,1.112981 -0.126899,1.682898 -0.544962,2.479614 -0.369718,0.704615 -0.767756,1.058911 -1.190994,1.058911 -0.278818,0 -0.363868,-0.04473 -0.646016,-0.338948 -0.376858,-0.392949 -0.727796,-1.224125 -0.975655,-2.310139 -0.208829,-0.915019 -0.224939,-2.794659 -0.03135,-3.658717 0.223769,-0.998344 0.575922,-1.493418 1.087539,-1.521658 z m -13.89607,6.944826 c 0.937345,0 1.106633,0.0213 1.716708,0.221159 1.533097,0.502056 2.742191,1.71362 3.052061,3.056541 0.114209,0.494977 0.09864,1.280256 -0.03609,1.796913 -0.177293,0.680068 -0.476835,1.173019 -1.082717,1.782481 -0.615139,0.618773 -1.461055,1.085577 -2.341075,1.29209 -0.630286,0.147809 -2.033779,0.146279 -2.655065,-0.0036 -0.849721,-0.205286 -1.698613,-0.681005 -2.302579,-1.288547 -0.605881,-0.609465 -0.906633,-1.102413 -1.08392,-1.782484 -0.134699,-0.516654 -0.150331,-1.301936 -0.03609,-1.79691 0.30987,-1.342921 1.520167,-2.554485 3.053264,-3.056541 0.610075,-0.199799 0.77816,-0.221159 1.715506,-0.221159 z m -11.534553,2.206775 c 0.06492,-5.55e-4 0.13149,0.0024 0.199703,0.0096 1.487314,0.153359 3.790186,2.253153 4.896289,4.464023 0.91324,1.825379 0.765035,3.103422 -0.405416,3.500062 -0.362749,0.122939 -1.653213,0.102179 -2.164232,-0.03483 -2.397922,-0.643192 -4.374559,-3.23865 -4.210569,-5.52895 0.0073,-0.102629 0.01728,-0.201629 0.02886,-0.298078 0.0012,-0.0108 0.0024,-0.0207 0.0036,-0.03126 0.0102,-0.08103 0.02172,-0.160229 0.03489,-0.236789 0.0065,-0.03765 0.0144,-0.07281 0.02166,-0.109379 0.0096,-0.04842 0.01929,-0.09771 0.03008,-0.144239 0.0082,-0.03576 0.0174,-0.06999 0.02646,-0.10458 0.01215,-0.04689 0.02496,-0.09348 0.03849,-0.138239 0.0114,-0.03759 0.02376,-0.07326 0.03609,-0.10938 0.01095,-0.03201 0.02205,-0.06411 0.03369,-0.09495 0.0135,-0.03582 0.02757,-0.07035 0.0421,-0.104579 0.01779,-0.04203 0.03606,-0.0831 0.05533,-0.12261 0.0084,-0.0174 0.01779,-0.03366 0.02646,-0.05046 0.02214,-0.04269 0.04467,-0.08418 0.06856,-0.123809 0.01335,-0.0222 0.027,-0.04374 0.0409,-0.06492 0.02163,-0.03297 0.0432,-0.06549 0.06616,-0.09615 0.01935,-0.0258 0.03869,-0.05157 0.05895,-0.07572 0.0087,-0.0105 0.01752,-0.0213 0.02646,-0.03126 0.0012,-0.0012 0.0012,-0.0024 0.0024,-0.0036 0.03463,-0.03909 0.07107,-0.07509 0.108269,-0.10938 0.0024,-0.0018 0.0042,-0.0042 0.006,-0.006 0.03739,-0.03414 0.07679,-0.06447 0.116699,-0.09375 0.0074,-0.0054 0.01425,-0.0114 0.02166,-0.0168 0.04009,-0.0282 0.0814,-0.05361 0.123915,-0.07692 0.0052,-0.003 0.01065,-0.006 0.01563,-0.0084 0.04481,-0.0237 0.09092,-0.04524 0.138345,-0.06369 0.004,-0.0018 0.0077,-0.0036 0.012,-0.0048 0.04576,-0.0174 0.09265,-0.03213 0.140759,-0.04449 0.0114,-0.003 0.02325,-0.006 0.03489,-0.0084 0.04761,-0.0108 0.09573,-0.0204 0.145559,-0.0264 0.0018,-2.4e-4 0.0042,2.34e-4 0.006,0 0.05631,-0.0066 0.114104,-0.0102 0.173235,-0.0108 z m 23.070311,0 c 0.973705,0.0078 1.571992,0.859393 1.683021,2.409893 0.152699,2.132765 -1.560382,4.566136 -3.806353,5.405149 -0.425262,0.15888 -0.686645,0.197819 -1.443624,0.218759 -0.559725,0.0156 -1.014969,-0.0078 -1.1549,-0.06012 -0.860477,-0.321737 -1.153464,-1.13387 -0.844518,-2.337785 0.258766,-1.008351 1.282842,-2.668202 2.294156,-3.717611 1.023001,-1.061533 2.251098,-1.82399 3.072509,-1.908692 0.06825,-0.0072 0.134849,-0.0102 0.199709,-0.0096 z M 63.999971,92.29686 c 1.120245,0 1.458726,0.0288 2.009042,0.165869 1.513109,0.376924 2.30258,0.976645 2.30258,1.750032 0,0.152279 -0.051,0.375217 -0.113084,0.495201 -0.285115,0.55086 -1.502978,1.31393 -2.584086,1.619028 -0.644243,0.181799 -1.974586,0.264419 -2.551605,0.158639 -1.037579,-0.190199 -2.164389,-0.693662 -2.79702,-1.25003 -0.419607,-0.369022 -0.577449,-0.648995 -0.577449,-1.022853 0,-0.773387 0.78947,-1.373108 2.30258,-1.750032 0.550315,-0.137069 0.888796,-0.165869 2.009041,-0.165869 z" />
  <path
     id="path11-6"
     style="opacity:0.4;fill:#438de6;fill-opacity:1;stroke-width:0.615672"
     d="m 56.373151,53.493088 c -0.121919,0.0036 -0.223454,0.02332 -0.28993,0.05889 -0.16976,0.09078 -0.221162,0.344812 -0.08661,0.427892 0.0917,0.05661 0.104895,0.346159 0.01566,0.346159 -0.03419,0 -0.294615,-0.116234 -0.57745,-0.258415 -0.656125,-0.329817 -1.27188,-0.459056 -2.009057,-0.421887 -0.474519,0.02394 -0.616358,0.06049 -0.753093,0.197119 -0.175409,0.175251 -0.157799,0.285703 0.105869,0.652657 0.14037,0.195338 0.03012,0.242258 -0.299551,0.128609 -0.4372,-0.150704 -1.870943,-0.130739 -2.526341,0.03483 -0.584793,0.147749 -1.24877,0.476236 -1.37385,0.6791 -0.06322,0.102525 0.02001,0.233339 0.433084,0.679096 0.527688,0.569451 0.82482,1.088051 0.982871,1.715175 0.134339,0.53297 0.07399,0.623778 -0.378955,0.563715 -0.468137,-0.06204 -0.590655,0.04991 -0.512484,0.471166 0.116234,0.626392 0.78113,1.46506 1.734756,2.187534 0.285355,0.216188 0.286801,0.212183 -0.134745,0.337747 -0.237385,0.07071 -0.01725,0.651618 0.431884,1.140648 0.345385,0.376063 1.076765,0.802889 1.752796,1.022857 0.354903,0.115469 0.644823,0.239824 0.644823,0.276442 0,0.03661 -0.05199,0.118035 -0.115485,0.181499 -0.160718,0.160574 -0.145679,0.238133 0.08782,0.454334 0.268015,0.248177 0.917925,0.550244 1.470084,0.683908 0.580355,0.140474 2.004085,0.146309 2.638226,0.0108 1.562779,-0.333906 2.714888,-1.183225 3.055673,-2.252439 L 60.79546,62.411477 60.213201,61.69512 c -1.787014,-2.196113 -4.412273,-4.177891 -6.815105,-5.144327 -0.349456,-0.140549 -0.608708,-0.282417 -0.576248,-0.314909 0.08545,-0.08538 1.36336,0.198452 2.28694,0.50722 2.145099,0.717159 4.258239,2.168588 5.698708,3.914737 0.338019,0.409748 0.670039,0.745206 0.737449,0.745206 0.196,0 0.826359,-0.486636 1.083922,-0.836556 0.857582,-1.165086 0.507398,-3.06392 -0.881814,-4.777728 -0.640853,-0.790593 -1.825238,-1.572343 -2.311004,-1.525265 -0.207764,0.02013 -0.248042,0.05839 -0.269477,0.254809 -0.0138,0.12693 -0.05124,0.258041 -0.08421,0.292073 -0.03296,0.03403 -0.253634,-0.12558 -0.489628,-0.355777 -0.235987,-0.230195 -0.639092,-0.524269 -0.896249,-0.652651 -0.400563,-0.199979 -0.95755,-0.320831 -1.323317,-0.308904 z m -6.165478,4.557774 c 0.01065,0.06885 0.01425,0.119279 0.0108,0.158654 0.0036,-0.03939 -1.23e-4,-0.0898 -0.0108,-0.158654 z m -0.02169,0.25241 c -0.01884,0.02523 -0.04614,0.04695 -0.08181,0.07332 0.03565,-0.02634 0.06294,-0.04812 0.08181,-0.07332 z m 21.449873,-4.810184 c -0.365767,-0.012 -0.922753,0.108915 -1.323317,0.308904 -0.257155,0.128384 -0.661463,0.422456 -0.897457,0.652651 -0.235986,0.230195 -0.455467,0.389811 -0.48842,0.35578 -0.03295,-0.0341 -0.07156,-0.165147 -0.08542,-0.292072 -0.02144,-0.196448 -0.06171,-0.234689 -0.269477,-0.254811 -0.147074,-0.01425 -0.392363,0.05206 -0.617146,0.165867 -2.425504,1.227997 -3.792196,4.484388 -2.575665,6.137125 0.257558,0.349919 0.889119,0.836556 1.085124,0.836556 0.06741,0 0.398233,-0.335457 0.736247,-0.745207 1.44047,-1.746154 3.553601,-3.197582 5.698702,-3.914735 0.923573,-0.308774 2.201488,-0.591394 2.286939,-0.506014 0.03246,0.03243 -0.226799,0.173153 -0.576243,0.313703 -2.402822,0.966436 -5.028076,2.94822 -6.81511,5.144327 l -0.582259,0.716357 0.127514,0.399047 c 0.336651,1.056228 1.481092,1.909473 3.015973,2.247633 0.634961,0.139769 2.043266,0.138929 2.643032,-0.0024 0.586329,-0.138089 1.226666,-0.430925 1.503775,-0.687508 0.233489,-0.216206 0.248549,-0.293758 0.08781,-0.454334 -0.06351,-0.06346 -0.115499,-0.144884 -0.115499,-0.181499 0,-0.03661 0.291119,-0.16097 0.646023,-0.276442 0.676036,-0.219962 1.407402,-0.646794 1.75279,-1.022857 0.466077,-0.507467 0.666671,-1.068191 0.411433,-1.14786 -0.399073,-0.124559 -0.396673,-0.117509 -0.1155,-0.330535 0.953635,-0.72248 1.618507,-1.561147 1.734756,-2.187534 0.07815,-0.421257 -0.04305,-0.53321 -0.511287,-0.471166 -0.452938,0.06006 -0.514468,-0.03071 -0.380143,-0.563713 0.158039,-0.627132 0.455172,-1.145739 0.982854,-1.715177 0.413083,-0.445755 0.497518,-0.576564 0.434293,-0.679094 -0.125099,-0.202859 -0.790241,-0.531345 -1.375043,-0.679102 -0.655391,-0.165614 -2.089143,-0.185609 -2.526346,-0.03483 -0.329646,0.113655 -0.439901,0.06674 -0.299541,-0.128609 0.263661,-0.366954 0.281271,-0.477406 0.105839,-0.652657 -0.136739,-0.136634 -0.278568,-0.173179 -0.753075,-0.197119 -0.737174,-0.03717 -1.35293,0.09207 -2.009041,0.421885 -0.282839,0.142184 -0.542066,0.258416 -0.576251,0.258416 -0.08925,0 -0.07722,-0.289544 0.0144,-0.346159 0.13455,-0.08309 0.08313,-0.337115 -0.08661,-0.427891 -0.06648,-0.03558 -0.166799,-0.0549 -0.288719,-0.05889 z" />
</svg>
