<?xml version="1.0" encoding="UTF-8" standalone="no"?>
<svg
   height="128"
   viewBox="0 0 128 128"
   width="128"
   version="1.1"
   id="svg5248"
   xmlns:xlink="http://www.w3.org/1999/xlink"
   xmlns="http://www.w3.org/2000/svg"
   xmlns:svg="http://www.w3.org/2000/svg">
  <defs
     id="defs5252">
    <filter
       style="color-interpolation-filters:sRGB"
       id="filter1302"
       x="-0.012000846"
       width="1.0240017"
       y="-0.011999155"
       height="1.0239983">
      <feGaussianBlur
         stdDeviation="2.0803224"
         id="feGaussianBlur1304" />
    </filter>
    <linearGradient
       id="bg-gradient-2">
      <stop
         style="stop-color:#3584e4;stop-opacity:1"
         offset="0"
         id="stop13402" />
      <stop
         style="stop-color:#62a0ea;stop-opacity:1"
         offset="1"
         id="stop13404" />
    </linearGradient>
    <clipPath
       clipPathUnits="userSpaceOnUse"
       id="clipPath1509">
      <path
         id="path1511"
         d="M 192,-164 H 88 c 0,0 -40,0 -40,40 V 4 h 416 v -96 c 0,0 0,-40 -40,-40 H 224 Z"
         style="display:inline;opacity:1;vector-effect:none;fill:#c9b8a7;fill-opacity:1;stroke:none;stroke-width:26.0669;stroke-linecap:butt;stroke-linejoin:miter;stroke-miterlimit:4;stroke-dasharray:none;stroke-dashoffset:0;stroke-opacity:1;marker:none;marker-start:none;marker-mid:none;marker-end:none;paint-order:normal;enable-background:new" />
    </clipPath>
    <filter
       style="color-interpolation-filters:sRGB"
       id="filter1529"
       x="-0.10846153"
       width="1.2169231"
       y="-0.13428571"
       height="1.2685714">
      <feGaussianBlur
         stdDeviation="18.8"
         id="feGaussianBlur1531" />
    </filter>
    <linearGradient
       id="linearGradient888">
      <stop
         style="stop-color:#99c1f1;stop-opacity:1"
         offset="0"
         id="stop884" />
      <stop
         style="stop-color:#c3e5e7;stop-opacity:1"
         offset="1"
         id="stop886" />
    </linearGradient>
    <linearGradient
       xlink:href="#bg-gradient-2"
       id="linearGradient5836"
       gradientUnits="userSpaceOnUse"
       x1="64"
       y1="756"
       x2="480"
       y2="756" />
    <linearGradient
       xlink:href="#linearGradient888"
       id="linearGradient5838"
       gradientUnits="userSpaceOnUse"
       x1="152.89844"
       y1="-38.796875"
       x2="447.30859"
       y2="316" />
  </defs>
  <linearGradient
     id="a"
     gradientUnits="userSpaceOnUse"
     x1="11.999989"
     x2="115.99999"
     y1="64"
     y2="64">
    <stop
       offset="0"
       stop-color="#3d3846"
       id="stop5214" />
    <stop
       offset="0.05"
       stop-color="#77767b"
       id="stop5216" />
    <stop
       offset="0.1"
       stop-color="#5e5c64"
       id="stop5218" />
    <stop
       offset="0.899999"
       stop-color="#504e56"
       id="stop5220" />
    <stop
       offset="0.95"
       stop-color="#77767b"
       id="stop5222" />
    <stop
       offset="1"
       stop-color="#3d3846"
       id="stop5224" />
  </linearGradient>
  <linearGradient
     id="b"
     gradientUnits="userSpaceOnUse"
     x1="12"
     x2="112.04102"
     y1="60"
     y2="80.988281">
    <stop
       offset="0"
       stop-color="#77767b"
       id="stop5227" />
    <stop
       offset="0.384443"
       stop-color="#9a9996"
       id="stop5229" />
    <stop
       offset="0.720567"
       stop-color="#77767b"
       id="stop5231" />
    <stop
       offset="1"
       stop-color="#68666f"
       id="stop5233" />
  </linearGradient>
  <g
     transform="matrix(0.2511615,0,0,0.2511615,-0.29292947,52.434794)"
     id="g5798"
     style="fill:#c9b8a7;fill-opacity:1;stroke:#a08f7f;stroke-opacity:1">
    <path
       id="path5786"
       d="m 88,-162 c 0,0 -40,0 -40,40 L 47.964844,6 h 0.0332 L 47.964844,254.0938 424,254 c 40,0 40,-40 40,-40 V 6 -42 -90 c 0,0 0,-40 -40,-40 H 224 l -32,-32 z"
       style="display:inline;opacity:0.2;fill:#000000;fill-opacity:1;stroke:none;stroke-width:26.0669;stroke-linecap:butt;stroke-linejoin:miter;stroke-miterlimit:4;stroke-dasharray:none;stroke-dashoffset:0;stroke-opacity:1;marker:none;marker-start:none;marker-mid:none;marker-end:none;paint-order:normal;filter:url(#filter1302);enable-background:new" />
    <path
       style="display:inline;opacity:1;fill:url(#linearGradient5836);fill-opacity:1;stroke:none;stroke-width:26.0669;stroke-linecap:butt;stroke-linejoin:miter;stroke-miterlimit:4;stroke-dasharray:none;stroke-dashoffset:0;stroke-opacity:1;marker:none;marker-start:none;marker-mid:none;marker-end:none;paint-order:normal;enable-background:new"
       d="M 208,672 H 104 c 0,0 -40,0 -40,40 v 128 h 416 v -96 c 0,0 0,-40 -40,-40 H 240 Z"
       transform="translate(-16,-836)"
       id="path5788" />
    <path
       id="path5790"
       d="m 256,-80 -32,32 H 88 c 0,0 -40,0 -40,40 v 264 h 376 c 40,0 40,-40 40,-40 V -40 c 0,-40 -40,-40 -40,-40 z"
       style="display:inline;opacity:0.1;fill:#000000;fill-opacity:1;stroke:none;stroke-width:26.0669;stroke-linecap:butt;stroke-linejoin:miter;stroke-miterlimit:4;stroke-dasharray:none;stroke-dashoffset:0;stroke-opacity:1;marker:none;marker-start:none;marker-mid:none;marker-end:none;paint-order:normal;filter:url(#filter1529);enable-background:new"
       clip-path="url(#clipPath1509)" />
    <path
       style="display:inline;opacity:1;fill:url(#linearGradient5838);fill-opacity:1;stroke:none;stroke-width:26.0669;stroke-linecap:butt;stroke-linejoin:miter;stroke-miterlimit:4;stroke-dasharray:none;stroke-dashoffset:0;stroke-opacity:1;marker:none;marker-start:none;marker-mid:none;marker-end:none;paint-order:normal;enable-background:new"
       d="m 256,-84 -32,32 H 88 c 0,0 -40,0 -40,40 v 264 h 376 c 40,0 40,-40 40,-40 V -44 c 0,-40 -40,-40 -40,-40 z"
       id="path5792" />
    <path
       style="font-variation-settings:normal;display:inline;opacity:1;fill:#99c1f1;fill-opacity:1;stroke:none;stroke-width:26.0669;stroke-linecap:butt;stroke-linejoin:miter;stroke-miterlimit:4;stroke-dasharray:none;stroke-dashoffset:0;stroke-opacity:1;marker:none;marker-start:none;marker-mid:none;marker-end:none;paint-order:normal;enable-background:new;stop-color:#000000;stop-opacity:1"
       d="m 480,1042 c 0,0 0,40 -40,40 l -375.998047,0.094 -0.0039,6 L 440,1088 c 40,0 40,-40 40,-40 z"
       transform="translate(-16,-836)"
       id="path5794" />
    <path
       style="display:inline;opacity:0.3;fill:#ffffff;fill-opacity:1;stroke:none;stroke-width:26.0669;stroke-linecap:butt;stroke-linejoin:miter;stroke-miterlimit:4;stroke-dasharray:none;stroke-dashoffset:0;stroke-opacity:1;marker:none;marker-start:none;marker-mid:none;marker-end:none;paint-order:normal;enable-background:new"
       d="m 272,752 -32,32 H 104 c 0,0 -40,0 -40,40 v 4 c 0,-40 40,-42 40,-42 h 136.59099 l 32,-32 H 440 c 5.38035,0 40,2 40,42 v -4 c 0,-40 -40,-40 -40,-40 z"
       id="path5796"
       transform="translate(-16,-836)" />
  </g>
  <g
     id="surface105959-1"
     transform="matrix(3.4941816,0,0,3.4941816,134.02619,48.099307)"
     style="fill:#3f8ae5;fill-opacity:1;stroke:none;stroke-width:0.893536" />
  <path
     id="1-6"
     style="fill:#438de6;fill-opacity:1;fill-rule:evenodd;stroke:none;stroke-width:0.872635"
     d="m 78.358015,54.273262 c -0.0283,0 -0.0551,0.0051 -0.082,0.01412 -0.56264,0.190774 -1.23807,0.393071 -2.12753,0.635059 -0.11155,0.03073 -0.18968,0.131874 -0.18968,0.247109 v 3.368626 c 0,0.111385 0.0743,0.209978 0.18072,0.243269 0.0257,0.009 0.0512,0.01271 0.0769,0.01271 0.082,0 0.16149,-0.0397 0.21019,-0.111384 l 0.88818,-1.279079 c 0.0603,-0.08706 0.15509,-0.14468 0.25889,-0.161325 h 0.0269 c 0.12822,0 0.20379,0.02817 0.26916,0.07939 l 1.35853,1.078064 c 0.0462,0.03585 0.10253,0.05633 0.15893,0.05633 0.0384,0 0.0757,-0.009 0.11155,-0.0256 0.0884,-0.04354 0.14484,-0.133158 0.14484,-0.231745 v -3.17657 c 0,-0.09731 0.0358,-0.189493 0.10251,-0.259913 0.0757,-0.08323 0.0897,-0.204858 0.032,-0.302165 -0.0462,-0.08066 -0.13076,-0.128047 -0.22046,-0.128047 -0.0192,0 -0.0384,0.0026 -0.0576,0.0063 -0.11918,0.02689 -0.24864,0.04097 -0.38577,0.04097 -0.21276,0 -0.4396,-0.032 -0.69081,-0.09732 -0.0218,-0.0063 -0.0437,-0.009 -0.0654,-0.009 z m -2.14162,5.901177 c -0.14227,0 -0.25762,0.115224 -0.25762,0.256072 v 1.407113 c 0,0.113955 0.0757,0.212541 0.18328,0.245829 1.39826,0.422519 2.42615,0.996121 3.05288,1.704159 0.05,0.05633 0.12044,0.08706 0.19224,0.08706 0.0308,0 0.0615,-0.0051 0.0909,-0.01663 0.1,-0.03712 0.16534,-0.133158 0.16534,-0.239426 v -3.235467 c 0,-0.07555 -0.0334,-0.147243 -0.0922,-0.195896 -0.0462,-0.0384 -0.10379,-0.06017 -0.16405,-0.06017 -0.0141,0 -0.0308,0.0026 -0.0449,0.0051 -0.1884,0.03457 -0.38192,0.04225 -0.57033,0.04225 z m 6.87345,-3.217545 c -0.14092,0 -0.25634,0.11524 -0.25634,0.256073 v 11.610299 c 0,0.14084 0.11537,0.256072 0.25634,0.256072 h 3.03492 c 0.14093,0 0.25634,-0.115225 0.25634,-0.256072 V 57.212967 c 0,-0.14084 -0.11536,-0.256073 -0.25634,-0.256073 z m -9.88916,16.42573 c -0.21276,0 -0.38449,-0.171568 -0.38449,-0.384107 v -6.359545 c 0,-0.110113 -0.0718,-0.208698 -0.17688,-0.243268 -0.0269,-0.009 -0.0538,-0.01271 -0.0795,-0.01271 -0.0808,0 -0.15765,0.03841 -0.20762,0.106272 -0.87537,1.198417 -1.89684,2.296965 -3.03623,3.266196 -0.0692,0.0589 -0.15764,0.09219 -0.24992,0.09219 -0.1076,0 -0.2089,-0.04481 -0.28195,-0.124191 l -0.27428,-0.295763 c -0.12171,-0.133158 -0.13584,-0.335455 -0.0308,-0.482696 1.49055,-2.110032 2.7376,-5.113754 3.51171,-8.456773 0.018,-0.07555 0,-0.156204 -0.0487,-0.21638 -0.0487,-0.06145 -0.123,-0.09732 -0.20122,-0.09732 h -2.69787 c -0.17686,0 -0.32938,-0.11908 -0.37295,-0.290643 l -0.11409,-0.457087 c -0.0283,-0.115239 -0.003,-0.235586 0.0704,-0.329052 0.073,-0.09347 0.18327,-0.147242 0.30375,-0.147242 h 3.62961 c 0.14093,0 0.25632,-0.115239 0.25632,-0.256071 v -2.692597 c 0,-0.07555 -0.0346,-0.148522 -0.0922,-0.197175 -0.0474,-0.03842 -0.10506,-0.0589 -0.16405,-0.0589 -0.0166,0 -0.0308,0.0012 -0.0474,0.0038 -1.13427,0.208698 -2.33516,0.389229 -3.47071,0.521106 h -0.007 c -0.21018,0 -0.35501,-0.108828 -0.40499,-0.268875 l -0.0922,-0.297044 c -0.0603,-0.199738 0.0462,-0.408435 0.24352,-0.475014 2.71323,-0.9257 6.23007,-2.656745 8.00643,-3.940946 0.0674,-0.04749 0.14559,-0.0731 0.22633,-0.0731 0.0884,0 0.17176,0.02946 0.24096,0.08449 l 2.74015,2.189415 c 0.0846,0.06786 0.13711,0.170287 0.14355,0.279117 0.005,0.108828 -0.0346,0.215101 -0.11284,0.291923 -0.0397,0.04097 -0.0833,0.0781 -0.13075,0.108829 -0.0922,0.06402 -0.1333,0.179251 -0.10125,0.286801 0.032,0.106273 0.12949,0.180529 0.24224,0.18181 0.05,0.0012 0.0987,0.01144 0.14482,0.032 l 2.41334,1.042214 3.62064,0.02049 c 0.0808,0 0.15765,-0.03842 0.20634,-0.102417 l 0.81256,-1.089586 c 0.073,-0.09732 0.18584,-0.153643 0.30888,-0.153643 0.082,0 0.16021,0.0256 0.22558,0.07299 l 2.65042,1.939744 c 0.16663,0.121622 0.20635,0.3521 0.0922,0.522388 -0.13838,0.207417 -0.39089,0.384107 -0.75232,0.523667 -0.1,0.03713 -0.16533,0.133158 -0.16533,0.238146 V 71.44793 c 0,0.492938 -1.20859,1.044773 -2.8273,1.044773 -0.21276,0 -0.38449,-0.171568 -0.38449,-0.382828 v -1.550481 c 0,-0.14084 -0.11537,-0.256073 -0.25633,-0.256073 h -3.03493 c -0.14092,0 -0.25633,0.115226 -0.25633,0.256073 v 1.025567 c 0,0.282958 -0.47549,1.341817 -2.80552,1.341817 -0.21147,0 -0.3845,-0.171569 -0.3845,-0.384109 v -5.622057 c 0,-0.09731 -0.055,-0.185652 -0.14226,-0.229185 -0.0358,-0.01793 -0.0757,-0.02689 -0.11409,-0.02689 -0.0551,0 -0.11029,0.01793 -0.15508,0.05377 -0.25762,0.195896 -0.56648,0.299604 -0.89331,0.299604 -0.4191,0 -0.82922,-0.188212 -1.18552,-0.545432 -0.0591,-0.0589 -0.0974,-0.135714 -0.109,-0.218943 -0.0692,-0.491658 -0.27684,-1.075502 -0.60238,-1.687514 -0.0449,-0.08578 -0.1333,-0.136984 -0.22556,-0.136984 -0.0205,0 -0.0422,0.0026 -0.0629,0.0076 -0.11409,0.02817 -0.1948,0.131873 -0.1948,0.248389 v 7.62973 c -0.0743,0.553116 -1.16246,1.06782 -2.32493,1.06782 z m -2.82459,15.836851 -1.14773,-3.507382 -7.99945,8.813925 11.62675,3.690421 -0.67864,-3.244788 c 11.47053,-5.7798 12.66777,-10.840933 14.24674,-15.928754 l -6.19439,-1.095822 c -1.46158,6.178831 -5.31954,9.33306 -9.85328,11.2724 z m -13.91461,-29.211006 1.14773,3.507382 7.99944,-8.813934 -11.62675,-3.69042 0.67864,3.244799 c -11.47053,5.779796 -12.66776,10.840923 -14.24673,15.928751 l 6.19437,1.095822 c 1.46159,-6.178831 5.31955,-9.333069 9.8533,-11.2724 z m -4.89138,34.842924 h -8.13001 l -1.45923,4.160104 h -4.55637 l 7.71307,-20.630746 h 4.94352 l 7.50462,20.630746 h -4.58615 z m -1.221,-3.537515 -2.82911,-8.065517 -2.82913,8.065517 z" />
</svg>
