<?xml version="1.0" encoding="UTF-8" standalone="no"?>
<svg
   height="128"
   viewBox="0 0 128 128"
   width="128"
   version="1.1"
   id="svg5248"
   xmlns:xlink="http://www.w3.org/1999/xlink"
   xmlns="http://www.w3.org/2000/svg"
   xmlns:svg="http://www.w3.org/2000/svg">
  <defs
     id="defs5252">
    <linearGradient
       xlink:href="#linearGradient2023"
       id="linearGradient2025"
       x1="2689.252"
       y1="-1106.803"
       x2="2918.0698"
       y2="-1106.803"
       gradientUnits="userSpaceOnUse" />
    <linearGradient
       id="linearGradient2023">
      <stop
         style="stop-color:#62a0ea;stop-opacity:1;"
         offset="0"
         id="stop2019" />
      <stop
         style="stop-color:#afd4ff;stop-opacity:1;"
         offset="0.05769911"
         id="stop2795" />
      <stop
         style="stop-color:#62a0ea;stop-opacity:1;"
         offset="0.12220427"
         id="stop2797" />
      <stop
         style="stop-color:#62a0ea;stop-opacity:1;"
         offset="0.87330586"
         id="stop2793" />
      <stop
         style="stop-color:#c0d5ea;stop-opacity:1;"
         offset="0.95599729"
         id="stop2791" />
      <stop
         style="stop-color:#62a0ea;stop-opacity:1;"
         offset="1"
         id="stop2021" />
    </linearGradient>
  </defs>
  <linearGradient
     id="a"
     gradientUnits="userSpaceOnUse"
     x1="11.999989"
     x2="115.99999"
     y1="64"
     y2="64">
    <stop
       offset="0"
       stop-color="#3d3846"
       id="stop5214" />
    <stop
       offset="0.05"
       stop-color="#77767b"
       id="stop5216" />
    <stop
       offset="0.1"
       stop-color="#5e5c64"
       id="stop5218" />
    <stop
       offset="0.899999"
       stop-color="#504e56"
       id="stop5220" />
    <stop
       offset="0.95"
       stop-color="#77767b"
       id="stop5222" />
    <stop
       offset="1"
       stop-color="#3d3846"
       id="stop5224" />
  </linearGradient>
  <linearGradient
     id="b"
     gradientUnits="userSpaceOnUse"
     x1="12"
     x2="112.04102"
     y1="60"
     y2="80.988281">
    <stop
       offset="0"
       stop-color="#77767b"
       id="stop5227" />
    <stop
       offset="0.384443"
       stop-color="#9a9996"
       id="stop5229" />
    <stop
       offset="0.720567"
       stop-color="#77767b"
       id="stop5231" />
    <stop
       offset="1"
       stop-color="#68666f"
       id="stop5233" />
  </linearGradient>
  <g
     id="g760"
     style="display:inline;stroke-width:1.26428;enable-background:new"
     transform="matrix(0.45451006,0,0,0.45552152,-1210.2921,616.15659)">
    <path
       id="rect1135"
       style="fill:#438de6;fill-opacity:1;stroke-width:8.79091;stroke-linecap:round;stop-color:#000000"
       d="m 2711.2064,-1326.3316 c -12.1618,0 -21.9544,9.791 -21.9544,21.9528 v 188.867 c 0,12.1618 9.7926,21.9528 21.9544,21.9528 h 184.9089 c 12.1619,0 21.9545,-9.791 21.9545,-21.9528 v -158.2547 a 26.343462,26.343462 45 0 0 -26.3435,-26.3435 h -101.2664 a 14.283764,14.283764 31.638659 0 1 -12.7581,-7.8607 l -3.3076,-6.5699 a 21.425501,21.425501 31.638659 0 0 -19.1371,-11.791 z" />
    <path
       id="path1953"
       style="fill:url(#linearGradient2025);fill-opacity:1;stroke-width:8.79091;stroke-linecap:round;stop-color:#000000"
       d="m 2808.014,-1273.6447 c -6.0429,0 -11.5016,2.4179 -15.4646,6.3426 -5.0031,4.9549 -11.8483,11.2197 -18.9936,11.2197 h -62.3494 c -12.1618,0 -21.9544,9.791 -21.9544,21.9528 v 118.6179 c 0,12.1618 9.7926,21.9528 21.9544,21.9528 h 184.9089 c 12.1619,0 21.9545,-9.791 21.9545,-21.9528 v -105.4461 -13.1718 -17.5623 c 0,-12.1618 -9.7926,-21.9528 -21.9545,-21.9528 z" />
    <path
       id="rect1586"
       style="fill:#a4caee;fill-opacity:1;stroke-width:8.79091;stroke-linecap:round;stop-color:#000000"
       d="m 2808.014,-1282.4259 c -6.0429,0 -11.5016,2.4179 -15.4646,6.3426 -5.0031,4.9549 -11.8483,11.2197 -18.9936,11.2197 h -62.3494 c -12.1618,0 -21.9544,9.791 -21.9544,21.9528 v 122.8867 c 0,12.1618 9.7926,21.9528 21.9544,21.9528 h 184.9089 c 12.1619,0 21.9545,-9.791 21.9545,-21.9528 v -109.7149 -13.1718 -17.5623 c 0,-12.1618 -9.7926,-21.9528 -21.9545,-21.9528 z" />
  </g>
  <path
     id="1-6"
     style="fill:#438de6;fill-opacity:1;fill-rule:evenodd;stroke:none;stroke-width:0.581756"
     d="m 73.572151,62.159377 c -0.0188,0 -0.0367,0.0034 -0.0547,0.0094 -0.37509,0.127182 -0.82538,0.262048 -1.41835,0.423373 -0.0744,0.02049 -0.12646,0.08792 -0.12646,0.164739 v 2.245751 c 0,0.07426 0.0495,0.139985 0.12048,0.162179 0.0171,0.006 0.0342,0.0085 0.0513,0.0085 0.0547,0 0.10766,-0.02646 0.14013,-0.07426 l 0.59212,-0.852719 c 0.0402,-0.05804 0.10339,-0.09645 0.17259,-0.10755 h 0.018 c 0.0855,0 0.13586,0.01878 0.17943,0.05293 l 0.9057,0.71871 c 0.0308,0.0239 0.0684,0.03755 0.10594,0.03755 0.0256,0 0.0505,-0.006 0.0744,-0.01707 0.0589,-0.02903 0.0966,-0.08877 0.0966,-0.154496 V 62.6587 c 0,-0.06487 0.0239,-0.126329 0.0683,-0.173276 0.0505,-0.05549 0.0598,-0.136571 0.0214,-0.201443 -0.0308,-0.05377 -0.0872,-0.08536 -0.14697,-0.08536 -0.0128,0 -0.0256,0.0017 -0.0384,0.0042 -0.0795,0.01792 -0.16575,0.02731 -0.25717,0.02731 -0.14184,0 -0.29307,-0.02134 -0.46054,-0.06488 -0.0145,-0.0042 -0.0291,-0.006 -0.0436,-0.006 z m -1.42774,3.934118 c -0.0948,0 -0.17175,0.07682 -0.17175,0.170714 v 0.938076 c 0,0.07597 0.0505,0.141694 0.12219,0.163886 0.93217,0.28168 1.61743,0.664081 2.03525,1.136106 0.0333,0.03755 0.0803,0.05804 0.12816,0.05804 0.0205,0 0.041,-0.0034 0.0606,-0.01109 0.0667,-0.02475 0.11023,-0.08877 0.11023,-0.159618 v -2.156978 c 0,-0.05036 -0.0222,-0.09816 -0.0615,-0.130597 -0.0308,-0.0256 -0.0692,-0.04011 -0.10937,-0.04011 -0.009,0 -0.0205,0.0017 -0.0299,0.0034 -0.1256,0.02305 -0.25462,0.02817 -0.38022,0.02817 z m 4.5823,-2.14503 c -0.094,0 -0.17089,0.07683 -0.17089,0.170715 v 7.7402 c 0,0.09389 0.0769,0.170714 0.17089,0.170714 h 2.02328 c 0.094,0 0.17089,-0.07682 0.17089,-0.170714 v -7.7402 c 0,-0.09389 -0.0769,-0.170715 -0.17089,-0.170715 z m -6.59278,10.950487 c -0.14183,0 -0.25633,-0.114379 -0.25633,-0.256072 v -4.239696 c 0,-0.07341 -0.0479,-0.139132 -0.11791,-0.162179 -0.018,-0.006 -0.0359,-0.0085 -0.053,-0.0085 -0.0538,0 -0.1051,0.0256 -0.13841,0.07085 -0.58359,0.798944 -1.26456,1.531309 -2.02416,2.177464 -0.0461,0.03926 -0.10509,0.06146 -0.16661,0.06146 -0.0717,0 -0.13927,-0.02987 -0.18797,-0.08279 l -0.18285,-0.197176 c -0.0811,-0.08877 -0.0906,-0.223637 -0.0205,-0.321797 0.9937,-1.406688 1.82506,-3.40917 2.34114,-5.637849 0.012,-0.05036 0,-0.104136 -0.0325,-0.144253 -0.0325,-0.04097 -0.082,-0.06488 -0.13415,-0.06488 h -1.79857 c -0.11791,0 -0.21959,-0.07939 -0.24864,-0.193762 l -0.0761,-0.304725 c -0.0189,-0.07683 -0.002,-0.157058 0.047,-0.219368 0.0487,-0.06231 0.12218,-0.09816 0.2025,-0.09816 h 2.41974 c 0.094,0 0.17088,-0.07683 0.17088,-0.170715 V 63.31174 c 0,-0.05036 -0.0231,-0.09902 -0.0615,-0.13145 -0.0316,-0.02562 -0.07,-0.03927 -0.10936,-0.03927 -0.0111,0 -0.0205,8.31e-4 -0.0316,0.0025 -0.75618,0.139132 -1.55677,0.259486 -2.31381,0.347404 h -0.005 c -0.14013,0 -0.23667,-0.07255 -0.27,-0.17925 l -0.0615,-0.198029 c -0.0402,-0.133158 0.0308,-0.27229 0.16234,-0.316676 1.80882,-0.617133 4.15338,-1.771163 5.33762,-2.627298 0.045,-0.03166 0.0971,-0.04873 0.15089,-0.04873 0.0589,0 0.1145,0.01964 0.16064,0.05633 l 1.82677,1.45961 c 0.0564,0.04524 0.0914,0.113525 0.0957,0.186078 0.004,0.07255 -0.0231,0.143401 -0.0752,0.194615 -0.0265,0.02731 -0.0556,0.05207 -0.0872,0.07255 -0.0615,0.04268 -0.0889,0.119501 -0.0675,0.191201 0.0214,0.07085 0.0863,0.120352 0.16149,0.121206 0.0333,8.3e-4 0.0658,0.0076 0.0966,0.02133 l 1.60889,0.694809 2.41377,0.01366 c 0.0538,0 0.10509,-0.02562 0.13755,-0.06828 l 0.54171,-0.726391 c 0.0487,-0.06488 0.1239,-0.102428 0.20592,-0.102428 0.0547,0 0.1068,0.01706 0.15039,0.04866 l 1.76695,1.293163 c 0.11108,0.08108 0.13756,0.234733 0.0615,0.348259 -0.0922,0.138278 -0.2606,0.256071 -0.50155,0.349111 -0.0667,0.02475 -0.11022,0.08877 -0.11022,0.158764 v 9.175908 c 0,0.328626 -0.80573,0.696516 -1.88487,0.696516 -0.14183,0 -0.25633,-0.114378 -0.25633,-0.255219 v -1.033654 c 0,-0.09389 -0.0769,-0.170715 -0.17088,-0.170715 h -2.02329 c -0.0939,0 -0.17088,0.07682 -0.17088,0.170715 v 0.683712 c 0,0.188638 -0.317,0.894544 -1.87035,0.894544 -0.14098,0 -0.25633,-0.114379 -0.25633,-0.256072 v -3.748038 c 0,-0.06487 -0.0367,-0.123768 -0.0948,-0.15279 -0.0239,-0.01195 -0.0505,-0.01793 -0.0761,-0.01793 -0.0367,0 -0.0735,0.01195 -0.10338,0.03585 -0.17175,0.130597 -0.37765,0.199735 -0.59554,0.199735 -0.2794,0 -0.55281,-0.125475 -0.79034,-0.363621 -0.0394,-0.03926 -0.065,-0.09048 -0.0727,-0.145962 -0.0461,-0.327772 -0.18456,-0.717001 -0.40158,-1.125009 -0.0299,-0.05719 -0.0889,-0.09132 -0.15038,-0.09132 -0.0136,0 -0.0282,0.0017 -0.0419,0.0051 -0.0761,0.01878 -0.12987,0.08792 -0.12987,0.165593 v 5.086487 c -0.0495,0.368744 -0.77497,0.71188 -1.54995,0.71188 z m -1.88306,10.5579 -0.76515,-2.338255 -5.33297,5.87595 7.75117,2.460281 -0.45243,-2.163192 c 7.64702,-3.8532 8.44518,-7.227289 9.49783,-10.619169 l -4.12959,-0.730548 c -0.97439,4.119221 -3.54636,6.22204 -6.56886,7.514933 z m -9.27641,-19.474004 0.76516,2.338255 5.33296,-5.875956 -7.75117,-2.46028 0.45243,2.163199 c -7.64702,3.853198 -8.44517,7.227282 -9.49782,10.619167 l 4.12958,0.730549 c 0.97439,-4.119221 3.54637,-6.222046 6.56886,-7.514934 z m -3.26092,23.228616 h -5.42 l -0.97282,2.773403 h -3.03758 l 5.14205,-13.753831 h 3.29568 l 5.00308,13.753831 h -3.05744 z m -0.81399,-2.358343 -1.88608,-5.377012 -1.88608,5.377012 z" />
</svg>
