<?xml version="1.0" encoding="UTF-8" standalone="no"?>
<svg
   height="128"
   viewBox="0 0 128 128"
   width="128"
   version="1.1"
   id="svg5248"
   xml:space="preserve"
   xmlns:xlink="http://www.w3.org/1999/xlink"
   xmlns="http://www.w3.org/2000/svg"
   xmlns:svg="http://www.w3.org/2000/svg"><defs
     id="defs5252"><linearGradient
       xlink:href="#linearGradient2023"
       id="linearGradient2025"
       x1="2689.252"
       y1="-1106.803"
       x2="2918.0698"
       y2="-1106.803"
       gradientUnits="userSpaceOnUse" /><linearGradient
       id="linearGradient2023"><stop
         style="stop-color:#62a0ea;stop-opacity:1;"
         offset="0"
         id="stop2019" /><stop
         style="stop-color:#afd4ff;stop-opacity:1;"
         offset="0.05769911"
         id="stop2795" /><stop
         style="stop-color:#62a0ea;stop-opacity:1;"
         offset="0.12220427"
         id="stop2797" /><stop
         style="stop-color:#62a0ea;stop-opacity:1;"
         offset="0.87330586"
         id="stop2793" /><stop
         style="stop-color:#c0d5ea;stop-opacity:1;"
         offset="0.95599729"
         id="stop2791" /><stop
         style="stop-color:#62a0ea;stop-opacity:1;"
         offset="1"
         id="stop2021" /></linearGradient></defs><linearGradient
     id="a"
     gradientUnits="userSpaceOnUse"
     x1="11.999989"
     x2="115.99999"
     y1="64"
     y2="64"><stop
       offset="0"
       stop-color="#3d3846"
       id="stop5214" /><stop
       offset="0.05"
       stop-color="#77767b"
       id="stop5216" /><stop
       offset="0.1"
       stop-color="#5e5c64"
       id="stop5218" /><stop
       offset="0.899999"
       stop-color="#504e56"
       id="stop5220" /><stop
       offset="0.95"
       stop-color="#77767b"
       id="stop5222" /><stop
       offset="1"
       stop-color="#3d3846"
       id="stop5224" /></linearGradient><linearGradient
     id="b"
     gradientUnits="userSpaceOnUse"
     x1="12"
     x2="112.04102"
     y1="60"
     y2="80.988281"><stop
       offset="0"
       stop-color="#77767b"
       id="stop5227" /><stop
       offset="0.384443"
       stop-color="#9a9996"
       id="stop5229" /><stop
       offset="0.720567"
       stop-color="#77767b"
       id="stop5231" /><stop
       offset="1"
       stop-color="#68666f"
       id="stop5233" /></linearGradient><g
     id="g760"
     style="display:inline;stroke-width:1.26428;enable-background:new"
     transform="matrix(0.45451006,0,0,0.45552152,-1210.2921,616.15659)"><path
       id="rect1135"
       style="fill:#438de6;fill-opacity:1;stroke-width:8.79091;stroke-linecap:round;stop-color:#000000"
       d="m 2711.2064,-1326.3316 c -12.1618,0 -21.9544,9.791 -21.9544,21.9528 v 188.867 c 0,12.1618 9.7926,21.9528 21.9544,21.9528 h 184.9089 c 12.1619,0 21.9545,-9.791 21.9545,-21.9528 v -158.2547 a 26.343462,26.343462 45 0 0 -26.3435,-26.3435 h -101.2664 a 14.283764,14.283764 31.638659 0 1 -12.7581,-7.8607 l -3.3076,-6.5699 a 21.425501,21.425501 31.638659 0 0 -19.1371,-11.791 z" /><path
       id="path1953"
       style="fill:url(#linearGradient2025);fill-opacity:1;stroke-width:8.79091;stroke-linecap:round;stop-color:#000000"
       d="m 2808.014,-1273.6447 c -6.0429,0 -11.5016,2.4179 -15.4646,6.3426 -5.0031,4.9549 -11.8483,11.2197 -18.9936,11.2197 h -62.3494 c -12.1618,0 -21.9544,9.791 -21.9544,21.9528 v 118.6179 c 0,12.1618 9.7926,21.9528 21.9544,21.9528 h 184.9089 c 12.1619,0 21.9545,-9.791 21.9545,-21.9528 v -105.4461 -13.1718 -17.5623 c 0,-12.1618 -9.7926,-21.9528 -21.9545,-21.9528 z" /><path
       id="rect1586"
       style="fill:#a4caee;fill-opacity:1;stroke-width:8.79091;stroke-linecap:round;stop-color:#000000"
       d="m 2808.014,-1282.4259 c -6.0429,0 -11.5016,2.4179 -15.4646,6.3426 -5.0031,4.9549 -11.8483,11.2197 -18.9936,11.2197 h -62.3494 c -12.1618,0 -21.9544,9.791 -21.9544,21.9528 v 122.8867 c 0,12.1618 9.7926,21.9528 21.9544,21.9528 h 184.9089 c 12.1619,0 21.9545,-9.791 21.9545,-21.9528 v -109.7149 -13.1718 -17.5623 c 0,-12.1618 -9.7926,-21.9528 -21.9545,-21.9528 z" /></g><path
     id="path8-3"
     style="fill:#438de6;fill-opacity:1;stroke-width:0.41045"
     d="m 68.962864,59.987735 c -0.512906,0.01977 -1.080749,0.137538 -1.45486,0.325329 -0.173114,0.0869 -0.365669,0.132901 -0.633593,0.149845 -0.731826,0.04632 -1.558906,0.515101 -2.399636,1.36141 l -0.474794,0.478375 -0.474794,-0.478375 c -0.840731,-0.846304 -1.667811,-1.315087 -2.399636,-1.36141 -0.267926,-0.01694 -0.460484,-0.06295 -0.633594,-0.149845 -0.448937,-0.225347 -1.176975,-0.348964 -1.754012,-0.324525 -0.192349,0.0082 -0.36812,0.03241 -0.510885,0.07532 -0.193375,0.05814 -0.307351,0.06262 -0.534144,0.02002 -0.158615,-0.02991 -0.519707,-0.04227 -0.802017,-0.02806 -0.584434,0.0295 -0.984291,0.148377 -1.38348,0.41267 -0.207957,0.137686 -0.329362,0.178343 -0.619959,0.205133 -1.672738,0.154244 -2.85497,1.078581 -2.864004,2.239634 -0.0033,0.426123 0.07541,0.693509 0.305569,1.034481 0.178848,0.26495 0.18275,0.280573 0.12752,0.520845 -0.079,0.343647 -0.07014,0.928875 0.01924,1.264452 0.10316,0.387336 0.347898,0.852032 0.637604,1.211565 0.13897,0.17246 0.281784,0.422996 0.333639,0.584149 0.04992,0.155134 0.162396,0.408263 0.250229,0.562515 0.227979,0.400379 0.840356,1.016685 1.249543,1.25804 0.191274,0.112824 0.457587,0.319757 0.591889,0.459949 l 0.243822,0.254812 -0.347273,0.360587 c -0.403036,0.418106 -0.589825,0.680475 -0.844524,1.186723 -0.230637,0.458431 -0.369467,0.869115 -0.44913,1.326155 -0.04551,0.26109 -0.113939,0.433549 -0.25424,0.641041 -0.235666,0.348505 -0.33307,0.538753 -0.488428,0.95114 -0.09331,0.24767 -0.19234,0.387681 -0.435496,0.619407 -0.576191,0.549096 -1.032917,1.383791 -1.288842,2.354221 -0.108822,0.412711 -0.121572,0.567369 -0.118698,1.461572 0.0024,0.866597 0.01844,1.053957 0.116292,1.407085 0.140744,0.50791 0.456273,1.166473 0.717004,1.496027 0.127474,0.16112 0.239483,0.388412 0.314391,0.635432 0.16397,0.540748 0.333851,0.92748 0.597503,1.36141 0.13274,0.218474 0.227773,0.437689 0.227773,0.525653 0,0.08298 0.0555,0.369966 0.12351,0.637838 0.45443,1.789816 1.895001,3.329889 3.639554,3.890313 0.420131,0.13496 0.588439,0.220058 0.856555,0.434302 0.484165,0.386882 1.021806,0.721269 1.575963,0.979995 0.267421,0.12486 0.632475,0.34755 0.811642,0.495204 0.63056,0.51965 1.483089,0.917124 2.326652,1.08496 0.473222,0.09428 1.75138,0.09592 2.236827,0.0032 0.874869,-0.16724 1.717645,-0.555216 2.364346,-1.088164 0.179168,-0.14766 0.545024,-0.370346 0.812446,-0.495202 0.554156,-0.258726 1.090996,-0.593115 1.575161,-0.979995 0.26812,-0.214246 0.436424,-0.299338 0.856554,-0.434304 1.744554,-0.560422 3.185124,-2.100495 3.639554,-3.890313 0.068,-0.267872 0.1235,-0.554864 0.12352,-0.637836 0,-0.08796 0.095,-0.307179 0.22777,-0.525655 0.26319,-0.433174 0.43377,-0.820868 0.5967,-1.358206 0.0721,-0.237876 0.19042,-0.47878 0.3152,-0.64104 0.26923,-0.350116 0.58023,-0.997163 0.7178,-1.493623 0.0979,-0.353128 0.11302,-0.540487 0.1155,-1.407084 0.003,-0.894203 -0.01,-1.048861 -0.1187,-1.461572 -0.25594,-0.970343 -0.71267,-1.805037 -1.28886,-2.354133 -0.24316,-0.231726 -0.34138,-0.371734 -0.43469,-0.619408 -0.15536,-0.412386 -0.25357,-0.602635 -0.48923,-0.951139 -0.1403,-0.207492 -0.20793,-0.379952 -0.25344,-0.641041 -0.0797,-0.45704 -0.21929,-0.867725 -0.44993,-1.326156 -0.25469,-0.506247 -0.44149,-0.768617 -0.84452,-1.186723 l -0.34728,-0.360586 0.24382,-0.254813 c 0.1343,-0.140192 0.40061,-0.347126 0.59188,-0.459949 0.40919,-0.241355 1.02157,-0.857665 1.24955,-1.258039 0.0878,-0.154252 0.20031,-0.407382 0.25023,-0.562516 0.0519,-0.161152 0.19548,-0.411685 0.33444,-0.584149 0.28971,-0.359532 0.53363,-0.824228 0.6368,-1.211564 0.0894,-0.335577 0.0982,-0.92081 0.0192,-1.264452 -0.0552,-0.240273 -0.0513,-0.255895 0.12752,-0.520845 0.23017,-0.340972 0.30966,-0.608359 0.30637,-1.034481 -0.004,-0.513514 -0.16725,-0.876792 -0.57741,-1.28689 -0.52344,-0.523368 -1.34559,-0.865977 -2.28655,-0.952744 -0.29059,-0.02679 -0.412,-0.06745 -0.61996,-0.205133 -0.39919,-0.264293 -0.79984,-0.383172 -1.384278,-0.41267 -0.28231,-0.01424 -0.642604,-0.0016 -0.801216,0.02806 -0.226796,0.0426 -0.34157,0.03812 -0.534946,-0.02002 -0.21414,-0.06439 -0.502297,-0.08799 -0.810037,-0.07612 z M 58.912785,61.64002 c 0.243846,-0.008 0.615176,0.07261 0.882219,0.205933 0.17144,0.08559 0.440177,0.281643 0.597503,0.435107 0.15733,0.153464 0.304456,0.259887 0.32642,0.237183 0.02197,-0.02269 0.04691,-0.110098 0.05614,-0.194716 0.01428,-0.130962 0.04114,-0.156456 0.179653,-0.169874 0.323845,-0.03139 1.113436,0.489788 1.540674,1.016848 0.926146,1.142546 1.159604,2.408446 0.587879,3.185174 -0.17171,0.233281 -0.59195,0.557703 -0.722617,0.557703 -0.04494,0 -0.266294,-0.22364 -0.491637,-0.496808 -0.960319,-1.164106 -2.369083,-2.131725 -3.799156,-2.609833 -0.615724,-0.205847 -1.467664,-0.395074 -1.524635,-0.33815 -0.02164,0.02166 0.151192,0.116238 0.384166,0.209942 1.601895,0.644294 3.35208,1.965481 4.543428,3.429564 l 0.388176,0.477574 -0.08421,0.266033 c -0.22719,0.712813 -0.995267,1.279033 -2.037123,1.501639 -0.422763,0.09033 -1.371918,0.08645 -1.758825,-0.0072 -0.368107,-0.08911 -0.801386,-0.290489 -0.980064,-0.455941 -0.155667,-0.144134 -0.165695,-0.19584 -0.05855,-0.302891 0.04235,-0.04231 0.07699,-0.09659 0.07699,-0.120996 0,-0.02441 -0.193279,-0.107318 -0.429882,-0.1843 -0.450689,-0.146645 -0.938281,-0.431197 -1.168539,-0.681907 -0.29943,-0.326021 -0.446182,-0.713292 -0.287924,-0.760435 0.281028,-0.08371 0.280064,-0.08104 0.08983,-0.225163 -0.635754,-0.481652 -1.079015,-1.04077 -1.156509,-1.458368 -0.05211,-0.280827 0.02957,-0.355475 0.341659,-0.314112 0.301968,0.04004 0.342191,-0.02051 0.252636,-0.375807 -0.105368,-0.418086 -0.303455,-0.763821 -0.655248,-1.143457 -0.275387,-0.297172 -0.330874,-0.384382 -0.288727,-0.452737 0.08339,-0.135244 0.526041,-0.354227 0.915905,-0.452732 0.436933,-0.110398 1.392769,-0.123724 1.684236,-0.02322 0.219775,0.07577 0.293277,0.04449 0.199702,-0.08574 -0.17578,-0.244637 -0.187518,-0.318267 -0.07058,-0.435103 0.09116,-0.09108 0.185716,-0.115457 0.502063,-0.131417 0.491453,-0.02478 0.901958,0.06138 1.339369,0.281258 0.188558,0.09478 0.362178,0.172278 0.384968,0.172278 0.0595,0 0.0507,-0.193034 -0.01042,-0.230774 -0.0897,-0.05539 -0.05543,-0.224748 0.05774,-0.285262 0.04432,-0.02371 0.112002,-0.0366 0.193286,-0.03926 z m 10.175193,0 c 0.08128,0.0024 0.14816,0.01555 0.19248,0.03926 0.11318,0.06052 0.14744,0.229876 0.05774,0.285262 -0.06112,0.03774 -0.06914,0.230775 -0.0096,0.230775 0.0228,0 0.195601,-0.07749 0.384169,-0.172278 0.43741,-0.219879 0.847914,-0.306055 1.339368,-0.281258 0.316348,0.01596 0.410906,0.04033 0.502062,0.131416 0.11694,0.116836 0.1052,0.190466 -0.07058,0.435104 -0.09356,0.130226 -0.02008,0.161514 0.1997,0.08574 0.29147,-0.100486 1.2473,-0.08716 1.68424,0.02322 0.38986,0.0985 0.83332,0.317492 0.9167,0.452732 0.0421,0.06835 -0.0142,0.155564 -0.28953,0.452737 -0.35179,0.379627 -0.54988,0.725367 -0.65525,1.143456 -0.0895,0.355323 -0.0485,0.415834 0.25344,0.375808 0.31211,-0.04136 0.39297,0.03327 0.34086,0.314112 -0.0775,0.417593 -0.52075,0.976712 -1.15651,1.458368 -0.18746,0.142022 -0.18906,0.137316 0.077,0.220358 0.17016,0.05311 0.0364,0.426927 -0.27429,0.765241 -0.23026,0.250709 -0.71784,0.535265 -1.168538,0.681907 -0.236602,0.07698 -0.430686,0.159894 -0.430684,0.1843 0,0.02441 0.03466,0.07869 0.077,0.120996 0.10714,0.10705 0.09712,0.158752 -0.05854,0.302891 -0.18474,0.171056 -0.611632,0.366281 -1.00252,0.458344 -0.399846,0.09418 -1.338727,0.09474 -1.762033,0.0016 -1.023293,-0.225439 -1.786254,-0.794277 -2.01069,-1.498433 l -0.08501,-0.266033 0.388176,-0.477574 c 1.191357,-1.464079 2.941536,-2.785271 4.543428,-3.429565 0.232972,-0.0937 0.405828,-0.187504 0.384166,-0.209141 -0.05698,-0.05692 -0.908914,0.131498 -1.524634,0.33735 -1.430075,0.478103 -2.838838,1.445723 -3.799156,2.609832 -0.225343,0.273168 -0.4459,0.496808 -0.490835,0.496808 -0.13067,0 -0.551714,-0.324422 -0.72342,-0.557704 -0.811025,-1.10183 0.100108,-3.272773 1.717119,-4.091442 0.149856,-0.07587 0.313384,-0.120082 0.411435,-0.11058 0.13851,0.01342 0.165366,0.03889 0.179652,0.169874 0.0092,0.08462 0.03498,0.172008 0.05694,0.194716 0.02197,0.02269 0.168294,-0.08372 0.325619,-0.237183 0.157331,-0.153464 0.426865,-0.349514 0.598305,-0.435107 0.267042,-0.133329 0.638372,-0.213885 0.882218,-0.205933 z m -5.087997,8.452918 c 0.968403,0 1.937364,0.347405 2.662697,1.043294 0.297147,0.285086 0.518886,0.683081 0.519708,0.932715 0.0012,0.412687 -0.432953,0.872706 -1.06107,1.124223 -0.844043,0.337977 -2.414612,0.443904 -3.430227,0.231579 -0.600235,-0.125484 -1.066632,-0.310773 -1.385887,-0.550495 -0.280515,-0.210639 -0.487645,-0.55351 -0.486824,-0.805307 8e-4,-0.249634 0.222561,-0.647629 0.519707,-0.932715 0.725334,-0.695889 1.693491,-1.043294 2.661896,-1.043294 z m -4.738319,0.205933 c 0.670252,-0.0012 0.939964,0.156488 0.939965,0.548895 0,0.279678 -0.137762,0.556702 -0.494044,0.994411 -0.790167,0.970759 -2.1531,2.018598 -2.995534,2.302137 -0.356179,0.119884 -0.432182,0.123252 -0.651238,0.02806 -0.294198,-0.127859 -0.374967,-0.465266 -0.252635,-1.05371 0.214178,-1.03024 0.985571,-1.963878 2.070808,-2.507271 0.421043,-0.210823 0.866587,-0.311568 1.382678,-0.312508 z m 9.476636,0 c 0.516092,8e-4 0.962439,0.101684 1.383481,0.312508 1.085236,0.543393 1.855828,1.477031 2.070008,2.50727 0.12414,0.597081 0.0415,0.927846 -0.26387,1.055315 -0.22422,0.09361 -0.29622,0.08998 -0.651234,-0.03204 -0.84047,-0.288955 -2.200967,-1.33736 -2.984305,-2.299733 -0.356278,-0.437709 -0.494043,-0.714733 -0.494043,-0.994411 0,-0.392407 0.269713,-0.550101 0.939963,-0.548895 z m -8.28564,3.839035 c 0.489737,0.0059 0.959135,0.141842 1.369846,0.407057 0.803078,0.518593 1.223133,1.359433 1.22067,2.445571 -0.0016,0.619875 -0.08402,1.01369 -0.324015,1.542506 -0.671163,1.478894 -2.248716,2.402922 -3.621108,2.121842 -1.288664,-0.263928 -2.126892,-1.368697 -2.129356,-2.807758 -0.0024,-1.364725 0.808047,-2.721331 1.993815,-3.336615 0.490353,-0.254438 1.000407,-0.37847 1.490148,-0.372603 z m 7.125924,0.0064 c 0.541222,0 0.952018,0.103198 1.45887,0.366195 1.185771,0.615284 1.996279,1.97189 1.993815,3.336614 -0.0024,1.290422 -0.683158,2.330257 -1.774063,2.709999 -0.400552,0.13944 -1.07436,0.17332 -1.510198,0.07532 -1.228659,-0.276292 -2.30527,-1.352501 -2.677936,-2.677144 -0.14658,-0.521066 -0.156395,-1.382883 -0.02165,-1.834175 0.368904,-1.235459 1.318309,-1.976809 2.531166,-1.976809 z m -12.8812,1.855813 c 0.554498,-0.0077 0.850215,0.752731 0.849336,2.195563 -4.11e-4,0.894953 -0.08991,1.407523 -0.376146,2.149088 -0.220666,0.571676 -0.503351,0.876622 -0.811642,0.876622 -0.172536,0 -0.252301,-0.0352 -0.413039,-0.1803 -0.24047,-0.217042 -0.529377,-0.749636 -0.652842,-1.204347 -0.138042,-0.508409 -0.126516,-1.493216 0.02326,-2.022483 0.248811,-0.879073 0.841538,-1.722342 1.267188,-1.802122 0.03926,-0.0073 0.07692,-0.01152 0.113887,-0.01202 z m 18.566695,0.0016 c 0.0487,-0.0029 0.10006,4.07e-4 0.15318,0.01042 0.42566,0.07978 1.01838,0.923045 1.26719,1.802122 0.092,0.324996 0.11464,0.536681 0.11388,1.048102 -0.001,0.741991 -0.0846,1.121938 -0.36331,1.653085 -0.24648,0.469746 -0.51184,0.705944 -0.794,0.705944 -0.18588,0 -0.24258,-0.02982 -0.43068,-0.225966 -0.25124,-0.261968 -0.4852,-0.816088 -0.65044,-1.540101 -0.13922,-0.610016 -0.14996,-1.863116 -0.0209,-2.439158 0.14918,-0.665566 0.38395,-0.995617 0.72503,-1.014444 z m -9.264096,4.629909 c 0.6249,0 0.737759,0.0142 1.144478,0.14744 1.02207,0.334706 1.828137,1.142419 2.034718,2.037705 0.07614,0.329986 0.06576,0.853508 -0.02406,1.197948 -0.118196,0.453381 -0.317892,0.782017 -0.721815,1.188327 -0.410095,0.412518 -0.974042,0.723722 -1.560725,0.861398 -0.420193,0.09854 -1.35586,0.09752 -1.770053,-0.0024 -0.566484,-0.136858 -1.132415,-0.454006 -1.535061,-0.859036 -0.403923,-0.406312 -0.604425,-0.734946 -0.722617,-1.188329 -0.0898,-0.344438 -0.100221,-0.867962 -0.02406,-1.197946 0.206581,-0.895286 1.01345,-1.702999 2.03552,-2.037705 0.406719,-0.1332 0.518776,-0.14744 1.143677,-0.14744 z m -7.689743,1.471191 c 0.04328,-3.7e-4 0.08766,0.0016 0.133136,0.0064 0.991548,0.10224 2.526804,1.50211 3.26421,2.976031 0.60883,1.216926 0.510026,2.068959 -0.270279,2.333387 -0.241834,0.08196 -1.102148,0.06812 -1.442829,-0.02322 -1.598623,-0.428797 -2.916388,-2.159111 -2.807061,-3.685986 0.0049,-0.06842 0.01152,-0.13442 0.01924,-0.19872 8e-4,-0.0072 0.0016,-0.0138 0.0024,-0.02084 0.0068,-0.05402 0.01448,-0.10682 0.02326,-0.15786 0.0043,-0.0251 0.0096,-0.04854 0.01444,-0.07292 0.0064,-0.03228 0.01286,-0.06514 0.02005,-0.09616 0.0055,-0.02384 0.0116,-0.04666 0.01764,-0.06972 0.0081,-0.03126 0.01664,-0.06232 0.02566,-0.09216 0.0076,-0.02506 0.01584,-0.04884 0.02406,-0.07292 0.0073,-0.02134 0.0147,-0.04274 0.02246,-0.0633 0.009,-0.02388 0.01838,-0.0469 0.02807,-0.06972 0.01186,-0.02802 0.02404,-0.0554 0.03689,-0.08174 0.0056,-0.0116 0.01186,-0.02244 0.01764,-0.03364 0.01476,-0.02846 0.02978,-0.05612 0.04571,-0.08254 0.0089,-0.0148 0.018,-0.02916 0.02727,-0.04328 0.01442,-0.02198 0.0288,-0.04366 0.04411,-0.0641 0.0129,-0.0172 0.02579,-0.03438 0.0393,-0.05048 0.0058,-0.007 0.01168,-0.0142 0.01764,-0.02084 8e-4,-8e-4 8e-4,-0.0016 0.0016,-0.0024 0.02309,-0.02606 0.04738,-0.05006 0.07218,-0.07292 0.0016,-0.0012 0.0028,-0.0028 0.004,-0.004 0.02493,-0.02276 0.05119,-0.04298 0.0778,-0.0625 0.0049,-0.0036 0.0095,-0.0076 0.01444,-0.0112 0.02673,-0.0188 0.05427,-0.03574 0.08261,-0.05128 0.0035,-0.002 0.0071,-0.004 0.01042,-0.0056 0.02987,-0.0158 0.06061,-0.03016 0.09223,-0.04246 0.0027,-0.0012 0.0051,-0.0024 0.008,-0.0032 0.03051,-0.0116 0.06177,-0.02142 0.09384,-0.02966 0.0076,-0.002 0.0155,-0.004 0.02326,-0.0056 0.03174,-0.0072 0.06382,-0.0136 0.09704,-0.0176 0.0012,-1.6e-4 0.0028,1.56e-4 0.004,0 0.03754,-0.0044 0.07607,-0.0068 0.115491,-0.0072 z m 15.380289,0 c 0.64914,0.0052 1.048,0.572932 1.12202,1.606604 0.1018,1.421851 -1.04026,3.044107 -2.537582,3.603452 -0.28351,0.10592 -0.457766,0.13188 -0.962421,0.14584 -0.373152,0.0104 -0.67665,-0.0052 -0.769938,-0.04008 -0.573654,-0.214492 -0.76898,-0.755917 -0.563015,-1.558531 0.172512,-0.672238 0.855233,-1.778811 1.529446,-2.478421 0.682004,-0.707692 1.50074,-1.216 2.04835,-1.272468 0.0455,-0.0048 0.0899,-0.0068 0.13314,-0.0064 z m -7.690546,5.405572 c 0.746834,0 0.972489,0.0192 1.339368,0.11058 1.008745,0.251284 1.535062,0.6511 1.535062,1.166694 0,0.10152 -0.034,0.250146 -0.07539,0.330136 -0.190078,0.367242 -1.001991,0.875959 -1.722733,1.079353 -0.429498,0.1212 -1.316398,0.17628 -1.701079,0.10576 -0.691723,-0.1268 -1.442934,-0.462439 -1.86469,-0.833353 -0.27974,-0.246016 -0.384968,-0.432666 -0.384968,-0.681906 0,-0.515594 0.526316,-0.91541 1.535061,-1.166694 0.366879,-0.09138 0.592534,-0.11058 1.339368,-0.11058 z" /><path
     id="path11-6"
     style="opacity:0.4;fill:#438de6;fill-opacity:1;stroke-width:0.41045"
     d="m 58.915407,61.639072 c -0.08128,0.0024 -0.14897,0.01555 -0.193288,0.03926 -0.113174,0.06052 -0.147442,0.229876 -0.05774,0.285263 0.06113,0.03774 0.06993,0.230774 0.01044,0.230774 -0.02279,0 -0.196411,-0.07749 -0.384969,-0.172278 -0.437419,-0.219879 -0.847924,-0.306039 -1.339378,-0.281259 -0.316348,0.01596 -0.410908,0.04033 -0.502065,0.131413 -0.11694,0.116835 -0.1052,0.19047 0.07058,0.435107 0.09358,0.130226 0.02008,0.161506 -0.199702,0.08574 -0.291468,-0.10047 -1.247302,-0.08716 -1.684236,0.02322 -0.389864,0.0985 -0.832518,0.317492 -0.915905,0.452736 -0.04215,0.06835 0.01334,0.15556 0.288724,0.452733 0.351794,0.379636 0.549883,0.725371 0.655251,1.143456 0.08956,0.355315 0.04933,0.415854 -0.252638,0.375812 -0.312093,-0.04136 -0.393772,0.03327 -0.341658,0.314112 0.07749,0.417597 0.520756,0.976712 1.15651,1.458364 0.190238,0.144126 0.191202,0.141456 -0.08983,0.225166 -0.158258,0.04714 -0.0115,0.434414 0.287924,0.760436 0.230258,0.25071 0.717847,0.535262 1.168537,0.681908 0.236603,0.07698 0.429884,0.159884 0.429884,0.184296 0,0.02441 -0.03466,0.07869 -0.07699,0.121 -0.107146,0.10705 -0.09712,0.158756 0.05855,0.302891 0.178678,0.165452 0.611953,0.366831 0.980061,0.455941 0.386906,0.09365 1.336064,0.09754 1.758827,0.0072 1.041858,-0.222605 1.809935,-0.788821 2.037126,-1.501634 l 0.08421,-0.266033 -0.388175,-0.477574 c -1.191349,-1.464083 -2.941531,-2.785275 -4.543427,-3.429569 -0.232972,-0.0937 -0.405808,-0.188279 -0.384168,-0.209941 0.05697,-0.05692 0.908912,0.132302 1.524635,0.338149 1.430074,0.478108 2.838841,1.445733 3.799159,2.609838 0.225347,0.273167 0.446695,0.496807 0.491635,0.496807 0.130668,0 0.550909,-0.324426 0.722619,-0.557707 0.571724,-0.776728 0.338267,-2.042624 -0.587879,-3.185169 -0.427238,-0.527065 -1.216832,-1.048234 -1.540678,-1.016849 -0.13851,0.01342 -0.165362,0.03893 -0.179652,0.169874 -0.0092,0.08462 -0.03416,0.172028 -0.05614,0.194716 -0.02197,0.02269 -0.16909,-0.08372 -0.32642,-0.237186 -0.157326,-0.153464 -0.426064,-0.349514 -0.597503,-0.435103 -0.267043,-0.13332 -0.63837,-0.213888 -0.882216,-0.205937 z m -4.110341,3.038532 c 0.0071,0.0459 0.0095,0.07952 0.0072,0.10577 0.0024,-0.02626 -8.2e-5,-0.05987 -0.0072,-0.10577 z m -0.01446,0.168274 c -0.01256,0.01682 -0.03076,0.0313 -0.05454,0.04888 0.02377,-0.01756 0.04196,-0.03208 0.05454,-0.04888 z m 14.299992,-3.206806 c -0.243846,-0.008 -0.615172,0.07261 -0.882216,0.205937 -0.171438,0.08559 -0.440978,0.281639 -0.598308,0.435103 -0.157325,0.153464 -0.303646,0.259875 -0.325615,0.237188 -0.02197,-0.02273 -0.04771,-0.110099 -0.05695,-0.194716 -0.01429,-0.130966 -0.04114,-0.15646 -0.179652,-0.169875 -0.09805,-0.0095 -0.261577,0.03471 -0.411433,0.110579 -1.617011,0.818669 -2.528144,2.989608 -1.717119,4.091438 0.171706,0.233281 0.592749,0.557707 0.72342,0.557707 0.04494,0 0.26549,-0.223639 0.490834,-0.496807 0.960318,-1.164109 2.36908,-2.131733 3.799155,-2.609837 0.615718,-0.205851 1.467666,-0.394265 1.524634,-0.337345 0.02164,0.02162 -0.1512,0.115436 -0.384164,0.209137 -1.60189,0.644294 -3.352069,1.96549 -4.543431,3.429569 l -0.388175,0.477574 0.08501,0.266033 c 0.224435,0.704156 0.9874,1.272989 2.010659,1.49843 0.42331,0.09318 1.362185,0.09262 1.762031,-0.0016 0.390888,-0.09206 0.817782,-0.287285 1.002522,-0.458341 0.15566,-0.144138 0.1657,-0.19584 0.05854,-0.302891 -0.04234,-0.04231 -0.077,-0.09659 -0.077,-0.121 0,-0.02441 0.19408,-0.107314 0.430684,-0.184296 0.450693,-0.146642 0.938273,-0.431198 1.168533,-0.681908 0.31072,-0.338313 0.44445,-0.712131 0.27429,-0.765244 -0.26605,-0.08304 -0.26445,-0.07834 -0.077,-0.220358 0.63576,-0.481656 1.07901,-1.04077 1.15651,-1.458364 0.0521,-0.280839 -0.0287,-0.355475 -0.34086,-0.314112 -0.30196,0.04004 -0.34298,-0.02047 -0.25343,-0.375811 0.10536,-0.41809 0.30345,-0.76383 0.65524,-1.143457 0.27539,-0.297172 0.33168,-0.384378 0.28953,-0.452732 -0.0834,-0.13524 -0.52683,-0.354232 -0.9167,-0.452737 -0.43693,-0.11041 -1.39277,-0.12374 -1.68424,-0.02322 -0.219765,0.07577 -0.293269,0.04449 -0.199695,-0.08574 0.175775,-0.244637 0.187515,-0.318272 0.07056,-0.435107 -0.09116,-0.09109 -0.185713,-0.115453 -0.502053,-0.131413 -0.491452,-0.02478 -0.901958,0.06138 -1.339368,0.281258 -0.18856,0.09479 -0.361379,0.172278 -0.384169,0.172278 -0.0595,0 -0.05148,-0.19303 0.0096,-0.230774 0.0897,-0.05539 0.05542,-0.224744 -0.05774,-0.285262 -0.04432,-0.02372 -0.1112,-0.0366 -0.19248,-0.03926 z" /></svg>
