<?xml version="1.0" encoding="UTF-8" standalone="no"?>
<svg
   height="128"
   viewBox="0 0 128 128"
   width="128"
   version="1.1"
   id="svg5248"
   xmlns:xlink="http://www.w3.org/1999/xlink"
   xmlns="http://www.w3.org/2000/svg"
   xmlns:svg="http://www.w3.org/2000/svg">
  <defs
     id="defs5252">
    <filter
       style="color-interpolation-filters:sRGB"
       id="filter1302"
       x="-0.012000846"
       width="1.0240017"
       y="-0.011999155"
       height="1.0239983">
      <feGaussianBlur
         stdDeviation="2.0803224"
         id="feGaussianBlur1304" />
    </filter>
    <linearGradient
       id="bg-gradient-2">
      <stop
         style="stop-color:#3584e4;stop-opacity:1"
         offset="0"
         id="stop13402" />
      <stop
         style="stop-color:#62a0ea;stop-opacity:1"
         offset="1"
         id="stop13404" />
    </linearGradient>
    <clipPath
       clipPathUnits="userSpaceOnUse"
       id="clipPath1509">
      <path
         id="path1511"
         d="M 192,-164 H 88 c 0,0 -40,0 -40,40 V 4 h 416 v -96 c 0,0 0,-40 -40,-40 H 224 Z"
         style="display:inline;opacity:1;vector-effect:none;fill:#c9b8a7;fill-opacity:1;stroke:none;stroke-width:26.0669;stroke-linecap:butt;stroke-linejoin:miter;stroke-miterlimit:4;stroke-dasharray:none;stroke-dashoffset:0;stroke-opacity:1;marker:none;marker-start:none;marker-mid:none;marker-end:none;paint-order:normal;enable-background:new" />
    </clipPath>
    <filter
       style="color-interpolation-filters:sRGB"
       id="filter1529"
       x="-0.10846153"
       width="1.2169231"
       y="-0.13428571"
       height="1.2685714">
      <feGaussianBlur
         stdDeviation="18.8"
         id="feGaussianBlur1531" />
    </filter>
    <linearGradient
       id="linearGradient888">
      <stop
         style="stop-color:#99c1f1;stop-opacity:1"
         offset="0"
         id="stop884" />
      <stop
         style="stop-color:#c3e5e7;stop-opacity:1"
         offset="1"
         id="stop886" />
    </linearGradient>
    <linearGradient
       xlink:href="#bg-gradient-2"
       id="linearGradient5836"
       gradientUnits="userSpaceOnUse"
       x1="64"
       y1="756"
       x2="480"
       y2="756" />
    <linearGradient
       xlink:href="#linearGradient888"
       id="linearGradient5838"
       gradientUnits="userSpaceOnUse"
       x1="152.89844"
       y1="-38.796875"
       x2="447.30859"
       y2="316" />
  </defs>
  <linearGradient
     id="a"
     gradientUnits="userSpaceOnUse"
     x1="11.999989"
     x2="115.99999"
     y1="64"
     y2="64">
    <stop
       offset="0"
       stop-color="#3d3846"
       id="stop5214" />
    <stop
       offset="0.05"
       stop-color="#77767b"
       id="stop5216" />
    <stop
       offset="0.1"
       stop-color="#5e5c64"
       id="stop5218" />
    <stop
       offset="0.899999"
       stop-color="#504e56"
       id="stop5220" />
    <stop
       offset="0.95"
       stop-color="#77767b"
       id="stop5222" />
    <stop
       offset="1"
       stop-color="#3d3846"
       id="stop5224" />
  </linearGradient>
  <linearGradient
     id="b"
     gradientUnits="userSpaceOnUse"
     x1="12"
     x2="112.04102"
     y1="60"
     y2="80.988281">
    <stop
       offset="0"
       stop-color="#77767b"
       id="stop5227" />
    <stop
       offset="0.384443"
       stop-color="#9a9996"
       id="stop5229" />
    <stop
       offset="0.720567"
       stop-color="#77767b"
       id="stop5231" />
    <stop
       offset="1"
       stop-color="#68666f"
       id="stop5233" />
  </linearGradient>
  <g
     transform="matrix(0.2511615,0,0,0.2511615,-0.29292947,52.434794)"
     id="g5798"
     style="fill:#c9b8a7;fill-opacity:1;stroke:#a08f7f;stroke-opacity:1">
    <path
       id="path5786"
       d="m 88,-162 c 0,0 -40,0 -40,40 L 47.964844,6 h 0.0332 L 47.964844,254.0938 424,254 c 40,0 40,-40 40,-40 V 6 -42 -90 c 0,0 0,-40 -40,-40 H 224 l -32,-32 z"
       style="display:inline;opacity:0.2;fill:#000000;fill-opacity:1;stroke:none;stroke-width:26.0669;stroke-linecap:butt;stroke-linejoin:miter;stroke-miterlimit:4;stroke-dasharray:none;stroke-dashoffset:0;stroke-opacity:1;marker:none;marker-start:none;marker-mid:none;marker-end:none;paint-order:normal;filter:url(#filter1302);enable-background:new" />
    <path
       style="display:inline;opacity:1;fill:url(#linearGradient5836);fill-opacity:1;stroke:none;stroke-width:26.0669;stroke-linecap:butt;stroke-linejoin:miter;stroke-miterlimit:4;stroke-dasharray:none;stroke-dashoffset:0;stroke-opacity:1;marker:none;marker-start:none;marker-mid:none;marker-end:none;paint-order:normal;enable-background:new"
       d="M 208,672 H 104 c 0,0 -40,0 -40,40 v 128 h 416 v -96 c 0,0 0,-40 -40,-40 H 240 Z"
       transform="translate(-16,-836)"
       id="path5788" />
    <path
       id="path5790"
       d="m 256,-80 -32,32 H 88 c 0,0 -40,0 -40,40 v 264 h 376 c 40,0 40,-40 40,-40 V -40 c 0,-40 -40,-40 -40,-40 z"
       style="display:inline;opacity:0.1;fill:#000000;fill-opacity:1;stroke:none;stroke-width:26.0669;stroke-linecap:butt;stroke-linejoin:miter;stroke-miterlimit:4;stroke-dasharray:none;stroke-dashoffset:0;stroke-opacity:1;marker:none;marker-start:none;marker-mid:none;marker-end:none;paint-order:normal;filter:url(#filter1529);enable-background:new"
       clip-path="url(#clipPath1509)" />
    <path
       style="display:inline;opacity:1;fill:url(#linearGradient5838);fill-opacity:1;stroke:none;stroke-width:26.0669;stroke-linecap:butt;stroke-linejoin:miter;stroke-miterlimit:4;stroke-dasharray:none;stroke-dashoffset:0;stroke-opacity:1;marker:none;marker-start:none;marker-mid:none;marker-end:none;paint-order:normal;enable-background:new"
       d="m 256,-84 -32,32 H 88 c 0,0 -40,0 -40,40 v 264 h 376 c 40,0 40,-40 40,-40 V -44 c 0,-40 -40,-40 -40,-40 z"
       id="path5792" />
    <path
       style="font-variation-settings:normal;display:inline;opacity:1;fill:#99c1f1;fill-opacity:1;stroke:none;stroke-width:26.0669;stroke-linecap:butt;stroke-linejoin:miter;stroke-miterlimit:4;stroke-dasharray:none;stroke-dashoffset:0;stroke-opacity:1;marker:none;marker-start:none;marker-mid:none;marker-end:none;paint-order:normal;enable-background:new;stop-color:#000000;stop-opacity:1"
       d="m 480,1042 c 0,0 0,40 -40,40 l -375.998047,0.094 -0.0039,6 L 440,1088 c 40,0 40,-40 40,-40 z"
       transform="translate(-16,-836)"
       id="path5794" />
    <path
       style="display:inline;opacity:0.3;fill:#ffffff;fill-opacity:1;stroke:none;stroke-width:26.0669;stroke-linecap:butt;stroke-linejoin:miter;stroke-miterlimit:4;stroke-dasharray:none;stroke-dashoffset:0;stroke-opacity:1;marker:none;marker-start:none;marker-mid:none;marker-end:none;paint-order:normal;enable-background:new"
       d="m 272,752 -32,32 H 104 c 0,0 -40,0 -40,40 v 4 c 0,-40 40,-42 40,-42 h 136.59099 l 32,-32 H 440 c 5.38035,0 40,2 40,42 v -4 c 0,-40 -40,-40 -40,-40 z"
       id="path5796"
       transform="translate(-16,-836)" />
  </g>
  <path
     d="m 63.683593,51.252018 c -13.136703,0 -23.683563,10.874985 -23.683563,23.999966 0,13.253889 10.746078,23.999969 23.99996,23.999969 13.253906,0 23.99998,-10.74608 23.99998,-23.999969 0,-13.253888 -10.746074,-23.999966 -23.99998,-23.999966 -0.105646,0 -0.210886,0 -0.316397,0 z m -5.906248,7.382804 c 0.70314,0.05859 1.312498,0.515621 1.570317,1.17187 0.03509,0.679688 -0.480479,1.265626 -1.160158,1.312497 -0.679679,0 -1.230477,0.550782 -1.230477,1.23047 v 3.550774 c 0,1.32422 -1.06638,2.402344 -2.390607,2.402344 -1.324229,0 -2.390637,1.066402 -2.402338,2.39062 0,1.312499 -1.066411,2.390622 -2.39063,2.390622 -1.324216,0 -2.390618,1.066403 -2.390618,2.390621 0,1.324217 1.066402,2.390622 2.390618,2.390622 1.324219,0 2.402331,1.066404 2.39063,2.402341 v 8.566394 c -3.843749,-3.410153 -6.046874,-8.296863 -6.046874,-13.42967 0,-4.476555 1.687497,-8.789049 4.699214,-12.082012 l 0.164069,-0.15234 c 0.703125,-0.749999 1.46485,-1.441402 2.28517,-2.05078 l 0.117294,-0.09374 c 1.347659,-0.996091 2.824196,-1.804683 4.406244,-2.390617 z m 13.593735,1.300776 h 1.781239 c 1.441411,0.84375 2.753909,1.886719 3.914062,3.105467 -0.105646,0.0234 -0.210886,0.03515 -0.316397,0.03515 H 71.37108 c -0.867188,0 -1.5586,-0.703123 -1.5586,-1.570308 0,-0.878905 0.691412,-1.570312 1.5586,-1.570314 z m -6.152334,2.613278 c 0.96093,0 1.73439,0.773439 1.73439,1.746092 v 1.898436 c 0,0.960935 -0.77346,1.746091 -1.73439,1.746091 -0.960931,0 -1.746085,-0.785156 -1.746085,-1.746091 v -1.898436 c 0,-0.972653 0.785154,-1.746092 1.746085,-1.746092 z m 6.867162,2.015623 h 6.257816 c 2.285166,2.999996 3.562494,6.65624 3.644513,10.429672 -0.375,0.316406 -0.832018,0.492188 -1.324192,0.503906 l -3.386732,-0.0234 c -2.015603,0 -3.644513,1.640623 -3.656237,3.656245 v 4.042963 c 0.01204,1.324216 -1.066411,2.390621 -2.378909,2.390621 -1.335929,0.01174 -2.40234,-1.066405 -2.40234,-2.390621 V 80.5606 c 0.269398,-0.937498 -0.269399,-1.910155 -1.195309,-2.191404 -1.207032,0 -2.179686,-0.972652 -2.179686,-2.179683 v -3.714837 c -0.117234,-1.41797 0.949237,-2.648435 2.355477,-2.753904 1.183586,0 2.132822,-0.949216 2.144516,-2.13281 v -0.902343 c 0,-1.171872 0.949237,-2.12109 2.121083,-2.132807 z m 0,0"
     fill="#222222"
     id="path1"
     style="fill:#438de6;fill-opacity:1;stroke-width:2.99999" />
</svg>
