<?xml version="1.0" encoding="UTF-8" standalone="no"?>
<svg
   height="128"
   viewBox="0 0 128 128"
   width="128"
   version="1.1"
   id="svg5248"
   xmlns:xlink="http://www.w3.org/1999/xlink"
   xmlns="http://www.w3.org/2000/svg"
   xmlns:svg="http://www.w3.org/2000/svg">
  <defs
     id="defs5252">
    <filter
       style="color-interpolation-filters:sRGB"
       id="filter1302"
       x="-0.012000846"
       width="1.0240017"
       y="-0.011999155"
       height="1.0239983">
      <feGaussianBlur
         stdDeviation="2.0803224"
         id="feGaussianBlur1304" />
    </filter>
    <linearGradient
       id="bg-gradient-2">
      <stop
         style="stop-color:#3584e4;stop-opacity:1"
         offset="0"
         id="stop13402" />
      <stop
         style="stop-color:#62a0ea;stop-opacity:1"
         offset="1"
         id="stop13404" />
    </linearGradient>
    <clipPath
       clipPathUnits="userSpaceOnUse"
       id="clipPath1509">
      <path
         id="path1511"
         d="M 192,-164 H 88 c 0,0 -40,0 -40,40 V 4 h 416 v -96 c 0,0 0,-40 -40,-40 H 224 Z"
         style="display:inline;opacity:1;vector-effect:none;fill:#c9b8a7;fill-opacity:1;stroke:none;stroke-width:26.0669;stroke-linecap:butt;stroke-linejoin:miter;stroke-miterlimit:4;stroke-dasharray:none;stroke-dashoffset:0;stroke-opacity:1;marker:none;marker-start:none;marker-mid:none;marker-end:none;paint-order:normal;enable-background:new" />
    </clipPath>
    <filter
       style="color-interpolation-filters:sRGB"
       id="filter1529"
       x="-0.10846153"
       width="1.2169231"
       y="-0.13428571"
       height="1.2685714">
      <feGaussianBlur
         stdDeviation="18.8"
         id="feGaussianBlur1531" />
    </filter>
    <linearGradient
       id="linearGradient888">
      <stop
         style="stop-color:#99c1f1;stop-opacity:1"
         offset="0"
         id="stop884" />
      <stop
         style="stop-color:#c3e5e7;stop-opacity:1"
         offset="1"
         id="stop886" />
    </linearGradient>
    <linearGradient
       xlink:href="#bg-gradient-2"
       id="linearGradient5836"
       gradientUnits="userSpaceOnUse"
       x1="64"
       y1="756"
       x2="480"
       y2="756"
       gradientTransform="matrix(0.2511615,0,0,0.2511615,-4.3115135,-157.53622)" />
    <linearGradient
       xlink:href="#linearGradient888"
       id="linearGradient5838"
       gradientUnits="userSpaceOnUse"
       x1="152.89844"
       y1="-38.796875"
       x2="447.30859"
       y2="316"
       gradientTransform="matrix(0.2511615,0,0,0.2511615,-0.29292947,52.434794)" />
  </defs>
  <linearGradient
     id="a"
     gradientUnits="userSpaceOnUse"
     x1="11.999989"
     x2="115.99999"
     y1="64"
     y2="64">
    <stop
       offset="0"
       stop-color="#3d3846"
       id="stop5214" />
    <stop
       offset="0.05"
       stop-color="#77767b"
       id="stop5216" />
    <stop
       offset="0.1"
       stop-color="#5e5c64"
       id="stop5218" />
    <stop
       offset="0.899999"
       stop-color="#504e56"
       id="stop5220" />
    <stop
       offset="0.95"
       stop-color="#77767b"
       id="stop5222" />
    <stop
       offset="1"
       stop-color="#3d3846"
       id="stop5224" />
  </linearGradient>
  <linearGradient
     id="b"
     gradientUnits="userSpaceOnUse"
     x1="12"
     x2="112.04102"
     y1="60"
     y2="80.988281">
    <stop
       offset="0"
       stop-color="#77767b"
       id="stop5227" />
    <stop
       offset="0.384443"
       stop-color="#9a9996"
       id="stop5229" />
    <stop
       offset="0.720567"
       stop-color="#77767b"
       id="stop5231" />
    <stop
       offset="1"
       stop-color="#68666f"
       id="stop5233" />
  </linearGradient>
  <path
     id="path5786"
     d="m 88,-162 c 0,0 -40,0 -40,40 L 47.964844,6 h 0.0332 L 47.964844,254.0938 424,254 c 40,0 40,-40 40,-40 V 6 -42 -90 c 0,0 0,-40 -40,-40 H 224 l -32,-32 z"
     style="display:inline;opacity:0.2;fill:#000000;fill-opacity:1;stroke:none;stroke-width:26.0669;stroke-linecap:butt;stroke-linejoin:miter;stroke-miterlimit:4;stroke-dasharray:none;stroke-dashoffset:0;stroke-opacity:1;marker:none;marker-start:none;marker-mid:none;marker-end:none;paint-order:normal;filter:url(#filter1302);enable-background:new"
     transform="matrix(0.2511615,0,0,0.2511615,-0.29292947,52.434794)" />
  <path
     style="display:inline;fill:url(#linearGradient5836);fill-opacity:1;stroke:none;stroke-width:6.547;stroke-linecap:butt;stroke-linejoin:miter;stroke-miterlimit:4;stroke-dasharray:none;stroke-dashoffset:0;stroke-opacity:1;marker:none;marker-start:none;marker-mid:none;marker-end:none;paint-order:normal;enable-background:new"
     d="M 47.930078,11.244308 H 21.809282 c 0,0 -10.04646,0 -10.04646,10.04646 V 53.43944 H 116.24601 V 29.327936 c 0,0 0,-10.04646 -10.04646,-10.04646 H 55.967247 Z"
     id="path5788" />
  <path
     id="path5790"
     d="m 256,-80 -32,32 H 88 c 0,0 -40,0 -40,40 v 264 h 376 c 40,0 40,-40 40,-40 V -40 c 0,-40 -40,-40 -40,-40 z"
     style="display:inline;opacity:0.1;fill:#000000;fill-opacity:1;stroke:none;stroke-width:26.0669;stroke-linecap:butt;stroke-linejoin:miter;stroke-miterlimit:4;stroke-dasharray:none;stroke-dashoffset:0;stroke-opacity:1;marker:none;marker-start:none;marker-mid:none;marker-end:none;paint-order:normal;filter:url(#filter1529);enable-background:new"
     clip-path="url(#clipPath1509)"
     transform="matrix(0.2511615,0,0,0.2511615,-0.29292947,52.434794)" />
  <path
     style="display:inline;fill:url(#linearGradient5838);fill-opacity:1;stroke:none;stroke-width:6.547;stroke-linecap:butt;stroke-linejoin:miter;stroke-miterlimit:4;stroke-dasharray:none;stroke-dashoffset:0;stroke-opacity:1;marker:none;marker-start:none;marker-mid:none;marker-end:none;paint-order:normal;enable-background:new"
     d="m 64.004415,31.337228 -8.037168,8.037168 H 21.809283 c 0,0 -10.04646,0 -10.04646,10.04646 v 66.306634 h 94.436727 c 10.04646,0 10.04646,-10.04646 10.04646,-10.04646 V 41.383688 c 0,-10.04646 -10.04646,-10.04646 -10.04646,-10.04646 z"
     id="path5792" />
  <path
     style="font-variation-settings:normal;display:inline;fill:#99c1f1;fill-opacity:1;stroke:none;stroke-width:6.547;stroke-linecap:butt;stroke-linejoin:miter;stroke-miterlimit:4;stroke-dasharray:none;stroke-dashoffset:0;stroke-opacity:1;marker:none;marker-start:none;marker-mid:none;marker-end:none;paint-order:normal;enable-background:new;stop-color:#000000"
     d="m 116.24601,104.17406 c 0,0 0,10.04646 -10.04646,10.04646 l -94.436237,0.0236 -9.8e-4,1.50697 94.437217,-0.0236 c 10.04646,0 10.04646,-10.04646 10.04646,-10.04646 z"
     id="path5794" />
  <path
     style="display:inline;opacity:0.3;fill:#ffffff;fill-opacity:1;stroke:none;stroke-width:6.547;stroke-linecap:butt;stroke-linejoin:miter;stroke-miterlimit:4;stroke-dasharray:none;stroke-dashoffset:0;stroke-opacity:1;marker:none;marker-start:none;marker-mid:none;marker-end:none;paint-order:normal;enable-background:new"
     d="m 64.004414,31.337228 -8.037167,8.037168 H 21.809282 c 0,0 -10.04646,0 -10.04646,10.04646 v 1.004646 c 0,-10.04646 10.04646,-10.548783 10.04646,-10.548783 H 56.11568 l 8.037168,-8.037168 h 42.046702 c 1.35133,0 10.04646,0.502323 10.04646,10.548783 v -1.004646 c 0,-10.04646 -10.04646,-10.04646 -10.04646,-10.04646 z"
     id="path5796" />
  <g
     id="surface105959-1"
     transform="matrix(3.4941816,0,0,3.4941816,134.02619,48.099307)"
     style="fill:#3f8ae5;fill-opacity:1;stroke:none;stroke-width:0.893536" />
  <path
     d="m 81.106816,51.251263 c -2.80824,0 -5.09679,2.268582 -5.09679,5.076828 0,2.808245 2.27856,5.076825 5.09679,5.076825 2.80825,0 5.096821,-2.26858 5.096821,-5.076825 0,-2.808246 -2.278571,-5.076828 -5.096821,-5.076828 z M 41.431627,61.94458 c 0.65158,0.651592 1.069329,1.38913 1.24921,2.228607 0.10006,0.467708 0.14986,1.349156 0.14986,2.628359 v 27.582757 c 0,1.28919 -0.0498,2.15865 -0.14986,2.62836 -0.18387,0.83547 -0.60162,1.57901 -1.24921,2.22861 h 11.79262 c -0.93541,-0.93541 -1.39912,-2.5684 -1.39912,-4.88695 v -9.99375 l 7.23549,9.87382 c 1.26919,1.73892 1.8988,3.06809 1.8988,3.98751 -1e-5,0.30081 -0.0498,0.6426 -0.14985,1.02936 h 12.89195 c -0.53469,-0.41773 -0.94343,-0.77652 -1.22925,-1.07932 -1.04934,-1.16927 -1.9188,-2.21862 -2.60837,-3.15803 l -11.29293,-15.49032 9.41411,-11.692692 c 0.9684,-1.199252 1.648959,-2.028732 2.028729,-2.478452 1.4391,-1.718926 2.62836,-2.848221 3.577761,-3.377887 h -12.59213 c 0.0834,0.200872 0.12495,0.467706 0.12495,0.801496 -3e-5,0.918428 -0.73455,2.308559 -2.20863,4.157403 l -7.18549,9.094312 v -9.194249 c -2e-5,-2.308557 0.4677,-3.927545 1.39912,-4.856966 z m 34.17864,9.893817 c 0.137849,0.154902 0.26283,0.312804 0.37375,0.474702 0.1119,0.161898 0.21087,0.326794 0.29583,0.49569 0.0857,0.168894 0.15789,0.341786 0.21687,0.518676 0.0594,0.17589 0.10605,0.356776 0.1389,0.539664 0.0166,0.08766 0.0314,0.201873 0.0439,0.342784 0.012,0.14091 0.0232,0.30881 0.0315,0.50269 0.0166,0.38875 0.0248,0.88344 0.0248,1.48907 v 18.58838 c 0,0.60162 -0.007,1.0993 -0.0248,1.48906 -0.007,0.19589 -0.0189,0.36578 -0.0315,0.50969 -0.012,0.14385 -0.0272,0.26283 -0.0439,0.35377 -0.0166,0.0939 -0.0363,0.18689 -0.0597,0.27884 -0.0234,0.0918 -0.0501,0.18187 -0.0804,0.27183 -0.0303,0.0897 -0.064,0.17887 -0.10095,0.26583 -0.037,0.0877 -0.0781,0.1739 -0.12195,0.25983 -0.0876,0.17089 -0.188881,0.3378 -0.30379,0.50068 -0.1149,0.1629 -0.24287,0.32181 -0.38475,0.47571 h 10.99313 c -0.1419,-0.1549 -0.26984,-0.3138 -0.38477,-0.47571 -0.1149,-0.16288 -0.21586,-0.32979 -0.30381,-0.50068 -0.0438,-0.0855 -0.084,-0.17189 -0.1209,-0.25983 -0.037,-0.0876 -0.0709,-0.1769 -0.10095,-0.26583 -0.0303,-0.0897 -0.057,-0.1799 -0.0804,-0.27183 -0.0234,-0.0918 -0.0438,-0.18489 -0.0606,-0.27884 -0.0167,-0.0918 -0.0314,-0.20986 -0.044,-0.35377 -0.012,-0.14385 -0.0232,-0.3138 -0.0315,-0.50969 -0.0166,-0.39276 -0.0247,-0.88944 -0.0247,-1.48906 V 71.804416 Z"
     id="path1-6"
     style="fill:#438de6;fill-opacity:1;stroke-width:0.999377" />
</svg>
