<?xml version="1.0" encoding="UTF-8" standalone="no"?>
<svg
   height="128"
   viewBox="0 0 128 128"
   width="128"
   version="1.1"
   id="svg5248"
   xmlns:xlink="http://www.w3.org/1999/xlink"
   xmlns="http://www.w3.org/2000/svg"
   xmlns:svg="http://www.w3.org/2000/svg">
  <defs
     id="defs5252">
    <linearGradient
       xlink:href="#linearGradient2023"
       id="linearGradient2025"
       x1="2689.252"
       y1="-1106.803"
       x2="2918.0698"
       y2="-1106.803"
       gradientUnits="userSpaceOnUse" />
    <linearGradient
       id="linearGradient2023">
      <stop
         style="stop-color:#62a0ea;stop-opacity:1;"
         offset="0"
         id="stop2019" />
      <stop
         style="stop-color:#afd4ff;stop-opacity:1;"
         offset="0.05769911"
         id="stop2795" />
      <stop
         style="stop-color:#62a0ea;stop-opacity:1;"
         offset="0.12220427"
         id="stop2797" />
      <stop
         style="stop-color:#62a0ea;stop-opacity:1;"
         offset="0.87330586"
         id="stop2793" />
      <stop
         style="stop-color:#c0d5ea;stop-opacity:1;"
         offset="0.95599729"
         id="stop2791" />
      <stop
         style="stop-color:#62a0ea;stop-opacity:1;"
         offset="1"
         id="stop2021" />
    </linearGradient>
  </defs>
  <linearGradient
     id="a"
     gradientUnits="userSpaceOnUse"
     x1="11.999989"
     x2="115.99999"
     y1="64"
     y2="64">
    <stop
       offset="0"
       stop-color="#3d3846"
       id="stop5214" />
    <stop
       offset="0.05"
       stop-color="#77767b"
       id="stop5216" />
    <stop
       offset="0.1"
       stop-color="#5e5c64"
       id="stop5218" />
    <stop
       offset="0.899999"
       stop-color="#504e56"
       id="stop5220" />
    <stop
       offset="0.95"
       stop-color="#77767b"
       id="stop5222" />
    <stop
       offset="1"
       stop-color="#3d3846"
       id="stop5224" />
  </linearGradient>
  <linearGradient
     id="b"
     gradientUnits="userSpaceOnUse"
     x1="12"
     x2="112.04102"
     y1="60"
     y2="80.988281">
    <stop
       offset="0"
       stop-color="#77767b"
       id="stop5227" />
    <stop
       offset="0.384443"
       stop-color="#9a9996"
       id="stop5229" />
    <stop
       offset="0.720567"
       stop-color="#77767b"
       id="stop5231" />
    <stop
       offset="1"
       stop-color="#68666f"
       id="stop5233" />
  </linearGradient>
  <g
     id="g760"
     style="display:inline;stroke-width:1.26428;enable-background:new"
     transform="matrix(0.45451006,0,0,0.45552152,-1210.2921,616.15659)">
    <path
       id="rect1135"
       style="fill:#438de6;fill-opacity:1;stroke-width:8.79091;stroke-linecap:round;stop-color:#000000"
       d="m 2711.2064,-1326.3316 c -12.1618,0 -21.9544,9.791 -21.9544,21.9528 v 188.867 c 0,12.1618 9.7926,21.9528 21.9544,21.9528 h 184.9089 c 12.1619,0 21.9545,-9.791 21.9545,-21.9528 v -158.2547 a 26.343462,26.343462 45 0 0 -26.3435,-26.3435 h -101.2664 a 14.283764,14.283764 31.638659 0 1 -12.7581,-7.8607 l -3.3076,-6.5699 a 21.425501,21.425501 31.638659 0 0 -19.1371,-11.791 z" />
    <path
       id="path1953"
       style="fill:url(#linearGradient2025);fill-opacity:1;stroke-width:8.79091;stroke-linecap:round;stop-color:#000000"
       d="m 2808.014,-1273.6447 c -6.0429,0 -11.5016,2.4179 -15.4646,6.3426 -5.0031,4.9549 -11.8483,11.2197 -18.9936,11.2197 h -62.3494 c -12.1618,0 -21.9544,9.791 -21.9544,21.9528 v 118.6179 c 0,12.1618 9.7926,21.9528 21.9544,21.9528 h 184.9089 c 12.1619,0 21.9545,-9.791 21.9545,-21.9528 v -105.4461 -13.1718 -17.5623 c 0,-12.1618 -9.7926,-21.9528 -21.9545,-21.9528 z" />
    <path
       id="rect1586"
       style="fill:#a4caee;fill-opacity:1;stroke-width:8.79091;stroke-linecap:round;stop-color:#000000"
       d="m 2808.014,-1282.4259 c -6.0429,0 -11.5016,2.4179 -15.4646,6.3426 -5.0031,4.9549 -11.8483,11.2197 -18.9936,11.2197 h -62.3494 c -12.1618,0 -21.9544,9.791 -21.9544,21.9528 v 122.8867 c 0,12.1618 9.7926,21.9528 21.9544,21.9528 h 184.9089 c 12.1619,0 21.9545,-9.791 21.9545,-21.9528 v -109.7149 -13.1718 -17.5623 c 0,-12.1618 -9.7926,-21.9528 -21.9545,-21.9528 z" />
  </g>
  <path
     id="use4877"
     style="color:#000000;font-style:normal;font-variant:normal;font-weight:normal;font-stretch:normal;font-size:medium;line-height:normal;font-family:sans-serif;font-variant-ligatures:normal;font-variant-position:normal;font-variant-caps:normal;font-variant-numeric:normal;font-variant-alternates:normal;font-variant-east-asian:normal;font-feature-settings:normal;font-variation-settings:normal;text-indent:0;text-align:start;text-decoration-line:none;text-decoration-style:solid;text-decoration-color:#000000;letter-spacing:normal;word-spacing:normal;text-transform:none;writing-mode:lr-tb;direction:ltr;text-orientation:mixed;dominant-baseline:auto;baseline-shift:baseline;text-anchor:start;white-space:normal;shape-padding:0;shape-margin:0;inline-size:0;clip-rule:nonzero;display:inline;overflow:visible;visibility:visible;isolation:auto;mix-blend-mode:normal;color-interpolation:sRGB;color-interpolation-filters:linearRGB;solid-color:#000000;solid-opacity:1;vector-effect:none;fill:#438de6;fill-opacity:1;fill-rule:evenodd;stroke:none;stroke-width:0.0735393;stroke-linecap:butt;stroke-linejoin:round;stroke-miterlimit:4;stroke-dasharray:none;stroke-dashoffset:0;stroke-opacity:1;-inkscape-stroke:none;color-rendering:auto;image-rendering:auto;shape-rendering:auto;text-rendering:auto;enable-background:accumulate;stop-color:#000000"
     d="m 67.947745,81.979576 8.98776,-15.565636 2.09845,3.557099 -2.42224,4.1688 4.81057,0.01265 1.02521,1.777446 -1.0469,1.817893 -6.8474,-0.02155 -2.460923,4.242486 z m -0.701273,-12.478968 -17.974052,-8.67e-4 2.031305,-3.59578 4.821387,0.01331 -2.394294,-4.172403 1.026609,-1.776564 2.097931,-0.0023 3.404947,5.940805 4.90456,0.0099 z m 3.956933,6.070233 -8.986291,-15.566445 4.129751,-0.03876 2.399147,4.182183 2.416213,-4.159827 2.051967,8e-4 1.050883,1.815687 -3.442383,5.919183 2.443713,4.252488 z m -10.461564,6.820482 17.974124,8.67e-4 -2.03138,3.595855 -4.821387,-0.01339 2.394437,4.172403 -1.02675,1.776638 -2.09786,0.0023 -3.404947,-5.940804 -4.904559,-0.01001 z m -0.689432,-12.44286 -8.987907,15.565563 -2.098446,-3.557099 2.422239,-4.1688 -4.810577,-0.01265 -1.025213,-1.777446 1.046907,-1.817894 6.847397,0.02155 2.460921,-4.242486 z m -3.243527,6.41197 8.986216,15.566446 -4.12975,0.03876 -2.399074,-4.182181 -2.416284,4.159828 -2.051896,-8e-4 -1.050876,-1.815687 3.442377,-5.919183 -2.443713,-4.252488 z" />
</svg>
