<?xml version="1.0" encoding="UTF-8" standalone="no"?>
<svg
   height="128"
   viewBox="0 0 128 128"
   width="128"
   version="1.1"
   id="svg5248"
   xmlns:xlink="http://www.w3.org/1999/xlink"
   xmlns="http://www.w3.org/2000/svg"
   xmlns:svg="http://www.w3.org/2000/svg">
  <defs
     id="defs5252">
    <linearGradient
       xlink:href="#linearGradient2023"
       id="linearGradient2025"
       x1="2689.252"
       y1="-1106.803"
       x2="2918.0698"
       y2="-1106.803"
       gradientUnits="userSpaceOnUse"
       gradientTransform="matrix(0.45451006,0,0,0.45552152,-1210.2921,616.15659)" />
    <linearGradient
       id="linearGradient2023">
      <stop
         style="stop-color:#62a0ea;stop-opacity:1;"
         offset="0"
         id="stop2019" />
      <stop
         style="stop-color:#afd4ff;stop-opacity:1;"
         offset="0.05769911"
         id="stop2795" />
      <stop
         style="stop-color:#62a0ea;stop-opacity:1;"
         offset="0.12220427"
         id="stop2797" />
      <stop
         style="stop-color:#62a0ea;stop-opacity:1;"
         offset="0.87330586"
         id="stop2793" />
      <stop
         style="stop-color:#c0d5ea;stop-opacity:1;"
         offset="0.95599729"
         id="stop2791" />
      <stop
         style="stop-color:#62a0ea;stop-opacity:1;"
         offset="1"
         id="stop2021" />
    </linearGradient>
  </defs>
  <linearGradient
     id="a"
     gradientUnits="userSpaceOnUse"
     x1="11.999989"
     x2="115.99999"
     y1="64"
     y2="64">
    <stop
       offset="0"
       stop-color="#3d3846"
       id="stop5214" />
    <stop
       offset="0.05"
       stop-color="#77767b"
       id="stop5216" />
    <stop
       offset="0.1"
       stop-color="#5e5c64"
       id="stop5218" />
    <stop
       offset="0.899999"
       stop-color="#504e56"
       id="stop5220" />
    <stop
       offset="0.95"
       stop-color="#77767b"
       id="stop5222" />
    <stop
       offset="1"
       stop-color="#3d3846"
       id="stop5224" />
  </linearGradient>
  <linearGradient
     id="b"
     gradientUnits="userSpaceOnUse"
     x1="12"
     x2="112.04102"
     y1="60"
     y2="80.988281">
    <stop
       offset="0"
       stop-color="#77767b"
       id="stop5227" />
    <stop
       offset="0.384443"
       stop-color="#9a9996"
       id="stop5229" />
    <stop
       offset="0.720567"
       stop-color="#77767b"
       id="stop5231" />
    <stop
       offset="1"
       stop-color="#68666f"
       id="stop5233" />
  </linearGradient>
  <path
     id="rect1135"
     style="fill:#438de6;fill-opacity:1;stroke-width:4;stroke-linecap:round;stop-color:#000000"
     d="m 21.978484,11.984004 c -5.527661,0 -9.978496,4.460011 -9.978496,9.999972 v 86.032984 c 0,5.53996 4.450835,9.99997 9.978496,9.99997 h 84.042956 c 5.5277,0 9.97854,-4.46001 9.97854,-9.99997 V 35.928538 A 11.973368,12.000014 0 0 0 104.02659,23.928507 H 57.999997 A 6.4921144,6.5065619 0 0 1 52.201312,20.347789 L 50.697974,17.355058 A 9.7381057,9.7597768 0 0 0 41.99997,11.984004 Z" />
  <path
     id="path1953"
     style="fill:url(#linearGradient2025);fill-opacity:1;stroke-width:4;stroke-linecap:round;stop-color:#000000"
     d="m 65.978512,35.98402 c -2.746559,0 -5.227593,1.101406 -7.028817,2.889191 -2.273959,2.257064 -5.385171,5.110815 -8.632782,5.110815 H 21.978484 c -5.527661,0 -9.978496,4.460011 -9.978496,9.999973 V 108.017 c 0,5.53997 4.450835,9.99998 9.978496,9.99998 h 84.042956 c 5.5277,0 9.97854,-4.46001 9.97854,-9.99998 V 59.984037 53.983999 45.983993 c 0,-5.539961 -4.45084,-9.999973 -9.97854,-9.999973 z" />
  <path
     id="rect1586"
     style="fill:#a4caee;fill-opacity:1;stroke-width:4;stroke-linecap:round;stop-color:#000000"
     d="m 65.978512,31.983995 c -2.746559,0 -5.227593,1.101405 -7.028817,2.889191 C 56.675736,37.130249 53.564524,39.984 50.316913,39.984 H 21.978484 c -5.527661,0 -9.978496,4.460012 -9.978496,9.999973 v 55.977537 c 0,5.53996 4.450835,9.99997 9.978496,9.99997 h 84.042956 c 5.5277,0 9.97854,-4.46001 9.97854,-9.99997 V 55.984012 49.983973 41.983968 c 0,-5.539962 -4.45084,-9.999973 -9.97854,-9.999973 z" />
  <path
     d="m 66.507956,59.983968 -5.321809,0.509459 v 21.913366 l 5.265474,-0.792735 v -9.342679 l 7.078009,10.362681 5.548741,-1.755668 -7.247345,-9.966016 7.304679,-9.399347 -5.661812,-1.301802 -7.021339,9.399349 z m -12.063351,5.340009 c -0.0601,0.0062 -0.118138,0.03278 -0.163261,0.07817 l -2.088736,2.088336 c -0.08782,0.08806 -0.104357,0.224641 -0.03962,0.331279 l 2.445472,4.027675 c -0.433736,0.729197 -0.781336,1.515333 -1.029801,2.344735 l -4.48947,0.933803 c -0.124904,0.02584 -0.214909,0.13654 -0.214909,0.264725 v 2.953467 c 0,0.124904 0.08546,0.233088 0.205816,0.26218 l 4.357472,1.065068 c 0.232373,0.960534 0.592454,1.87107 1.068402,2.708005 l -2.522203,3.846204 c -0.07036,0.107501 -0.05566,0.249087 0.03525,0.339638 l 2.088001,2.088402 c 0.08782,0.08758 0.224916,0.104737 0.332007,0.04029 l 3.952344,-2.400377 c 0.776336,0.448008 1.61367,0.800533 2.498539,1.039665 l 0.922199,4.433809 c 0.02595,0.125663 0.137002,0.214912 0.264377,0.214912 h 2.953804 c 0.124183,0 0.232545,-0.08472 0.262178,-0.206568 l 1.086203,-4.44294 c 0.912201,-0.246154 1.774934,-0.613088 2.570202,-1.08147 l 3.894939,2.553802 c 0.107115,0.0705 0.248742,0.0564 0.339637,-0.03463 l 2.088739,-2.088246 c 0.08833,-0.0883 0.104178,-0.224915 0.03924,-0.331266 l -1.4218,-2.34327 -0.460011,0.145439 c -0.06705,0.02132 -0.140179,-0.0039 -0.17962,-0.06224 0,0 -0.906932,-1.327602 -2.0782,-3.041804 -1.400202,2.740339 -4.248941,4.617474 -7.538678,4.617474 -4.673739,0 -8.462678,-3.789273 -8.462678,-8.463348 0,-3.438336 2.050802,-6.395339 4.99494,-7.720009 v -2.183235 c -0.535806,0.18744 -1.053786,0.413445 -1.545786,0.681467 -3.59e-4,-3.32e-4 -7.34e-4,-0.0012 -0.0023,-0.0025 l -3.986539,-2.61467 c -0.05369,-0.03514 -0.115926,-0.0491 -0.176,-0.04291 z"
     id="path1-0"
     style="fill:#438de6;fill-opacity:1;stroke-width:0.666668" />
</svg>
