<?xml version="1.0" encoding="UTF-8" standalone="no"?>
<svg
   height="128"
   viewBox="0 0 128 128"
   width="128"
   version="1.1"
   id="svg5248"
   xmlns:xlink="http://www.w3.org/1999/xlink"
   xmlns="http://www.w3.org/2000/svg"
   xmlns:svg="http://www.w3.org/2000/svg">
  <defs
     id="defs5252">
    <linearGradient
       xlink:href="#linearGradient2023"
       id="linearGradient2025"
       x1="2689.252"
       y1="-1106.803"
       x2="2918.0698"
       y2="-1106.803"
       gradientUnits="userSpaceOnUse" />
    <linearGradient
       id="linearGradient2023">
      <stop
         style="stop-color:#62a0ea;stop-opacity:1;"
         offset="0"
         id="stop2019" />
      <stop
         style="stop-color:#afd4ff;stop-opacity:1;"
         offset="0.05769911"
         id="stop2795" />
      <stop
         style="stop-color:#62a0ea;stop-opacity:1;"
         offset="0.12220427"
         id="stop2797" />
      <stop
         style="stop-color:#62a0ea;stop-opacity:1;"
         offset="0.87330586"
         id="stop2793" />
      <stop
         style="stop-color:#c0d5ea;stop-opacity:1;"
         offset="0.95599729"
         id="stop2791" />
      <stop
         style="stop-color:#62a0ea;stop-opacity:1;"
         offset="1"
         id="stop2021" />
    </linearGradient>
  </defs>
  <linearGradient
     id="a"
     gradientUnits="userSpaceOnUse"
     x1="11.999989"
     x2="115.99999"
     y1="64"
     y2="64">
    <stop
       offset="0"
       stop-color="#3d3846"
       id="stop5214" />
    <stop
       offset="0.05"
       stop-color="#77767b"
       id="stop5216" />
    <stop
       offset="0.1"
       stop-color="#5e5c64"
       id="stop5218" />
    <stop
       offset="0.899999"
       stop-color="#504e56"
       id="stop5220" />
    <stop
       offset="0.95"
       stop-color="#77767b"
       id="stop5222" />
    <stop
       offset="1"
       stop-color="#3d3846"
       id="stop5224" />
  </linearGradient>
  <linearGradient
     id="b"
     gradientUnits="userSpaceOnUse"
     x1="12"
     x2="112.04102"
     y1="60"
     y2="80.988281">
    <stop
       offset="0"
       stop-color="#77767b"
       id="stop5227" />
    <stop
       offset="0.384443"
       stop-color="#9a9996"
       id="stop5229" />
    <stop
       offset="0.720567"
       stop-color="#77767b"
       id="stop5231" />
    <stop
       offset="1"
       stop-color="#68666f"
       id="stop5233" />
  </linearGradient>
  <g
     id="g760"
     style="display:inline;stroke-width:1.26428;enable-background:new"
     transform="matrix(0.45451006,0,0,0.45552152,-1210.2921,616.15659)">
    <path
       id="rect1135"
       style="fill:#438de6;fill-opacity:1;stroke-width:8.79091;stroke-linecap:round;stop-color:#000000"
       d="m 2711.2064,-1326.3316 c -12.1618,0 -21.9544,9.791 -21.9544,21.9528 v 188.867 c 0,12.1618 9.7926,21.9528 21.9544,21.9528 h 184.9089 c 12.1619,0 21.9545,-9.791 21.9545,-21.9528 v -158.2547 a 26.343462,26.343462 45 0 0 -26.3435,-26.3435 h -101.2664 a 14.283764,14.283764 31.638659 0 1 -12.7581,-7.8607 l -3.3076,-6.5699 a 21.425501,21.425501 31.638659 0 0 -19.1371,-11.791 z" />
    <path
       id="path1953"
       style="fill:url(#linearGradient2025);fill-opacity:1;stroke-width:8.79091;stroke-linecap:round;stop-color:#000000"
       d="m 2808.014,-1273.6447 c -6.0429,0 -11.5016,2.4179 -15.4646,6.3426 -5.0031,4.9549 -11.8483,11.2197 -18.9936,11.2197 h -62.3494 c -12.1618,0 -21.9544,9.791 -21.9544,21.9528 v 118.6179 c 0,12.1618 9.7926,21.9528 21.9544,21.9528 h 184.9089 c 12.1619,0 21.9545,-9.791 21.9545,-21.9528 v -105.4461 -13.1718 -17.5623 c 0,-12.1618 -9.7926,-21.9528 -21.9545,-21.9528 z" />
    <path
       id="rect1586"
       style="fill:#a4caee;fill-opacity:1;stroke-width:8.79091;stroke-linecap:round;stop-color:#000000"
       d="m 2808.014,-1282.4259 c -6.0429,0 -11.5016,2.4179 -15.4646,6.3426 -5.0031,4.9549 -11.8483,11.2197 -18.9936,11.2197 h -62.3494 c -12.1618,0 -21.9544,9.791 -21.9544,21.9528 v 122.8867 c 0,12.1618 9.7926,21.9528 21.9544,21.9528 h 184.9089 c 12.1619,0 21.9545,-9.791 21.9545,-21.9528 v -109.7149 -13.1718 -17.5623 c 0,-12.1618 -9.7926,-21.9528 -21.9545,-21.9528 z" />
  </g>
  <path
     id="path65786"
     style="fill:#438de6;fill-opacity:1;stroke-width:0.295458"
     d="m 63.503088,59.995291 c -2.27566,0.09038 -4.50894,0.723918 -6.66204,1.520836 -1.25934,0.466126 -2.45396,1.05346 -3.51274,1.801508 -1.61762,1.142864 -2.9179,2.660855 -3.64178,4.692135 l 1.27778,-0.018 -1.27836,0.02026 c -0.1144,0.321494 -0.21398,0.655692 -0.29862,1.00347 -0.073,0.30017 -0.1344,0.601686 -0.184,0.904516 -0.45024,2.749174 0.0452,5.594536 1.1117,8.293416 1.54066,3.898838 4.2733,7.491482 7.06886,10.046312 1.14682,1.048056 2.53718,2.284826 4.06888,3.036462 0.192,0.09424 0.38704,0.181 0.58334,0.25868 0.85572,0.338668 1.74918,0.507191 2.66434,0.395834 3.278,-0.398848 6.31328,-3.748482 8.30326,-6.11575 2.37466,-2.824882 4.69078,-6.716294 5.60302,-10.585086 l -0.6684,0.519676 -1.30672,0.600116 1.30672,-0.600692 0.6684,-0.5191 c 0.0828,-0.365298 0.1152,-0.824366 0.173,-1.189236 0.6479,-4.086654 -0.33546,-8.094958 -4.36692,-10.872701 -1.52682,-1.05201 -3.15886,-1.768404 -4.92246,-2.31829 -1.80354,-0.562346 -3.97218,-0.954458 -5.98728,-0.874424 z m -6.62616,2.559608 c 0.004,0.05392 0.008,0.10766 0.012,0.16204 l -0.01,-0.07118 z m 0.21354,1.728012 c 0.012,0.06866 0.025,0.13718 0.0382,0.205442 l -0.0242,-0.09606 z m 5.36806,1.052086 c 2.6812,0.0168 5.3409,0.587911 7.98496,1.914355 0.006,0.0028 0.012,0.0062 0.02,0.0092 0.02,0.01 0.0396,0.02008 0.0596,0.03008 0.031,0.0156 0.0618,0.03116 0.0932,0.04686 1.41408,0.709066 3.07168,1.552588 3.9977,2.844336 -3.64622,-2.257608 -7.38596,-3.67628 -11.75292,-2.972224 -1.49658,0.241278 -2.83372,0.793544 -4.25696,1.27662 0.0786,0.18284 0.1642,0.36059 0.2558,0.534142 l 0.001,0.0017 0.0718,0.11112 0.048,0.10822 c 8e-5,1.44e-4 -8e-5,4.4e-4 0,5.72e-4 0.80048,1.407048 1.99048,2.539156 3.0324,3.78241 3.6e-4,4.16e-4 5.8e-4,5.7e-4 10e-4,0.0011 l 0.002,0.0022 c 0.183,0.218428 0.36092,0.440424 0.53182,0.66783 l 10e-4,0.0011 c 0.1618,0.21525 0.31654,0.435664 0.46238,0.66262 0.23412,0.364316 0.45066,0.737678 0.64872,1.11921 l 0.002,0.0034 c 0.031,0.05952 0.055,0.12182 0.085,0.18172 0.1388,0.277286 0.27424,0.55618 0.39412,0.840858 0.053,0.10134 0.098,0.225994 0.14,0.344908 0.0344,0.0973 0.0666,0.19058 0.1002,0.26447 1.4e-4,3.98e-4 4.2e-4,5.7e-4 5.6e-4,0.0011 0.0556,0.11502 0.25516,0.701192 0.32582,0.998846 1.6e-4,5.72e-4 4e-4,0.0011 5.6e-4,0.0017 0.1632,0.571522 0.27612,1.153834 0.36632,1.739008 0.014,0.072 0.0328,0.14182 0.0452,0.21412 0.0302,0.22548 0.0604,0.476528 0.0798,0.703126 0.012,0.13946 0.0226,0.279274 0.0306,0.418982 8e-5,8.56e-4 -8e-5,0.0014 0,0.0024 4e-5,6.28e-4 -4e-5,0.0011 0,0.0017 0.002,0.504472 0.0278,1.055712 0.002,1.558452 -0.006,0.04946 -0.018,0.08554 -0.0238,0.13426 -0.0984,1.54398 -0.46498,3.063962 -1.0897,4.504058 -0.0274,0.07766 -0.0386,0.13874 -0.0672,0.218172 l -0.39236,0.79109 c -0.083,0.1515 -0.1392,0.251688 -0.20834,0.372106 l -0.22918,0.303242 c 1.06052,-4.641402 0.97502,-9.090876 -1.92476,-13.115758 -0.80046,-1.111034 -1.71856,-2.086492 -2.63658,-3.05267 -3e-4,-2.58e-4 -2.8e-4,-3.2e-4 -5.6e-4,-5.72e-4 l -0.004,-0.0034 c -0.48408,-0.509468 -0.96522,-1.02212 -1.42882,-1.5434 l -0.188,-0.20313 -0.1812,-0.224534 c -0.20492,-0.24069 -0.40232,-0.487944 -0.5955,-0.738426 l -0.24652,-0.306138 -0.20544,-0.303816 c -0.0768,-0.11056 -0.153,-0.221854 -0.22686,-0.33507 l -0.1638,-0.2419 -0.1528,-0.29572 c -0.35582,-0.60996 -0.68042,-1.248024 -0.92246,-1.961226 0.0698,-0.02282 0.1398,-0.04536 0.20948,-0.0677 h 5.8e-4 c 0.1202,-0.04834 0.26652,-0.08986 0.42014,-0.13194 0.1742,-0.05352 0.34848,-0.10582 0.52256,-0.15626 l 0.02,-0.0058 c 0.004,-0.0011 0.006,-0.0011 0.01,-0.0022 l 0.45486,-0.1279 0.71354,-0.18576 0.76216,-0.17766 c 0.004,-0.0011 0.01,-0.0022 0.014,-0.0034 l 0.01,-0.0022 c 0.004,-5.7e-4 0.006,-0.0011 0.01,-0.0017 0.039,-0.0084 0.078,-0.0172 0.117,-0.02546 0.0244,-0.0052 0.0476,-0.0102 0.0672,-0.0138 0.1888,-0.03898 0.37432,-0.05432 0.5625,-0.08912 1.41246,-0.26532 2.81976,-0.431221 4.21992,-0.422457 z m -9.24306,2.728015 0.1794,0.0138 c 0.0486,0.0058 0.0596,0.0092 0.1018,0.0144 -0.1244,-0.0124 -0.185,-0.02002 -0.28124,-0.02836 z m -2.27546,0.62442 c -0.0244,0.0164 -0.0488,0.03288 -0.073,0.0492 l 0.022,-0.0174 z m 4.87616,2.563084 c 0.094,0.03766 0.1548,0.06218 0.1828,0.07812 0.002,0.0011 0.002,0.0022 0.004,0.0028 l -0.004,-0.0022 z m 7.69156,2.80035 1.01678,0.541088 -0.62962,-0.334488 z m 2.35938,1.234376 1.32812,0.432292 -0.006,-0.0011 z m 10.4676,0.03704 -0.89584,0.285298 -0.006,0.0011 z m -10.40164,1.673036 0.0202,0.0052 -0.008,-0.0017 z m 2.13254,0.416666 0.0306,0.0052 0.016,0.0017 -0.016,-0.0011 z" />
</svg>
