<?xml version="1.0" encoding="UTF-8" standalone="no"?>
<svg
   height="128"
   viewBox="0 0 128 128"
   width="128"
   version="1.1"
   id="svg5248"
   xmlns:xlink="http://www.w3.org/1999/xlink"
   xmlns="http://www.w3.org/2000/svg"
   xmlns:svg="http://www.w3.org/2000/svg">
  <defs
     id="defs5252">
    <filter
       style="color-interpolation-filters:sRGB"
       id="filter1302"
       x="-0.012000846"
       width="1.0240017"
       y="-0.011999155"
       height="1.0239983">
      <feGaussianBlur
         stdDeviation="2.0803224"
         id="feGaussianBlur1304" />
    </filter>
    <linearGradient
       id="bg-gradient-2">
      <stop
         style="stop-color:#3584e4;stop-opacity:1"
         offset="0"
         id="stop13402" />
      <stop
         style="stop-color:#62a0ea;stop-opacity:1"
         offset="1"
         id="stop13404" />
    </linearGradient>
    <clipPath
       clipPathUnits="userSpaceOnUse"
       id="clipPath1509">
      <path
         id="path1511"
         d="M 192,-164 H 88 c 0,0 -40,0 -40,40 V 4 h 416 v -96 c 0,0 0,-40 -40,-40 H 224 Z"
         style="display:inline;opacity:1;vector-effect:none;fill:#c9b8a7;fill-opacity:1;stroke:none;stroke-width:26.0669;stroke-linecap:butt;stroke-linejoin:miter;stroke-miterlimit:4;stroke-dasharray:none;stroke-dashoffset:0;stroke-opacity:1;marker:none;marker-start:none;marker-mid:none;marker-end:none;paint-order:normal;enable-background:new" />
    </clipPath>
    <filter
       style="color-interpolation-filters:sRGB"
       id="filter1529"
       x="-0.10846153"
       width="1.2169231"
       y="-0.13428571"
       height="1.2685714">
      <feGaussianBlur
         stdDeviation="18.8"
         id="feGaussianBlur1531" />
    </filter>
    <linearGradient
       id="linearGradient888">
      <stop
         style="stop-color:#99c1f1;stop-opacity:1"
         offset="0"
         id="stop884" />
      <stop
         style="stop-color:#c3e5e7;stop-opacity:1"
         offset="1"
         id="stop886" />
    </linearGradient>
    <linearGradient
       xlink:href="#bg-gradient-2"
       id="linearGradient5836"
       gradientUnits="userSpaceOnUse"
       x1="64"
       y1="756"
       x2="480"
       y2="756" />
    <linearGradient
       xlink:href="#linearGradient888"
       id="linearGradient5838"
       gradientUnits="userSpaceOnUse"
       x1="152.89844"
       y1="-38.796875"
       x2="447.30859"
       y2="316" />
  </defs>
  <linearGradient
     id="a"
     gradientUnits="userSpaceOnUse"
     x1="11.999989"
     x2="115.99999"
     y1="64"
     y2="64">
    <stop
       offset="0"
       stop-color="#3d3846"
       id="stop5214" />
    <stop
       offset="0.05"
       stop-color="#77767b"
       id="stop5216" />
    <stop
       offset="0.1"
       stop-color="#5e5c64"
       id="stop5218" />
    <stop
       offset="0.899999"
       stop-color="#504e56"
       id="stop5220" />
    <stop
       offset="0.95"
       stop-color="#77767b"
       id="stop5222" />
    <stop
       offset="1"
       stop-color="#3d3846"
       id="stop5224" />
  </linearGradient>
  <linearGradient
     id="b"
     gradientUnits="userSpaceOnUse"
     x1="12"
     x2="112.04102"
     y1="60"
     y2="80.988281">
    <stop
       offset="0"
       stop-color="#77767b"
       id="stop5227" />
    <stop
       offset="0.384443"
       stop-color="#9a9996"
       id="stop5229" />
    <stop
       offset="0.720567"
       stop-color="#77767b"
       id="stop5231" />
    <stop
       offset="1"
       stop-color="#68666f"
       id="stop5233" />
  </linearGradient>
  <g
     transform="matrix(0.2511615,0,0,0.2511615,-0.29292947,52.434794)"
     id="g5798"
     style="fill:#c9b8a7;fill-opacity:1;stroke:#a08f7f;stroke-opacity:1">
    <path
       id="path5786"
       d="m 88,-162 c 0,0 -40,0 -40,40 L 47.964844,6 h 0.0332 L 47.964844,254.0938 424,254 c 40,0 40,-40 40,-40 V 6 -42 -90 c 0,0 0,-40 -40,-40 H 224 l -32,-32 z"
       style="display:inline;opacity:0.2;fill:#000000;fill-opacity:1;stroke:none;stroke-width:26.0669;stroke-linecap:butt;stroke-linejoin:miter;stroke-miterlimit:4;stroke-dasharray:none;stroke-dashoffset:0;stroke-opacity:1;marker:none;marker-start:none;marker-mid:none;marker-end:none;paint-order:normal;filter:url(#filter1302);enable-background:new" />
    <path
       style="display:inline;opacity:1;fill:url(#linearGradient5836);fill-opacity:1;stroke:none;stroke-width:26.0669;stroke-linecap:butt;stroke-linejoin:miter;stroke-miterlimit:4;stroke-dasharray:none;stroke-dashoffset:0;stroke-opacity:1;marker:none;marker-start:none;marker-mid:none;marker-end:none;paint-order:normal;enable-background:new"
       d="M 208,672 H 104 c 0,0 -40,0 -40,40 v 128 h 416 v -96 c 0,0 0,-40 -40,-40 H 240 Z"
       transform="translate(-16,-836)"
       id="path5788" />
    <path
       id="path5790"
       d="m 256,-80 -32,32 H 88 c 0,0 -40,0 -40,40 v 264 h 376 c 40,0 40,-40 40,-40 V -40 c 0,-40 -40,-40 -40,-40 z"
       style="display:inline;opacity:0.1;fill:#000000;fill-opacity:1;stroke:none;stroke-width:26.0669;stroke-linecap:butt;stroke-linejoin:miter;stroke-miterlimit:4;stroke-dasharray:none;stroke-dashoffset:0;stroke-opacity:1;marker:none;marker-start:none;marker-mid:none;marker-end:none;paint-order:normal;filter:url(#filter1529);enable-background:new"
       clip-path="url(#clipPath1509)" />
    <path
       style="display:inline;opacity:1;fill:url(#linearGradient5838);fill-opacity:1;stroke:none;stroke-width:26.0669;stroke-linecap:butt;stroke-linejoin:miter;stroke-miterlimit:4;stroke-dasharray:none;stroke-dashoffset:0;stroke-opacity:1;marker:none;marker-start:none;marker-mid:none;marker-end:none;paint-order:normal;enable-background:new"
       d="m 256,-84 -32,32 H 88 c 0,0 -40,0 -40,40 v 264 h 376 c 40,0 40,-40 40,-40 V -44 c 0,-40 -40,-40 -40,-40 z"
       id="path5792" />
    <path
       style="font-variation-settings:normal;display:inline;opacity:1;fill:#99c1f1;fill-opacity:1;stroke:none;stroke-width:26.0669;stroke-linecap:butt;stroke-linejoin:miter;stroke-miterlimit:4;stroke-dasharray:none;stroke-dashoffset:0;stroke-opacity:1;marker:none;marker-start:none;marker-mid:none;marker-end:none;paint-order:normal;enable-background:new;stop-color:#000000;stop-opacity:1"
       d="m 480,1042 c 0,0 0,40 -40,40 l -375.998047,0.094 -0.0039,6 L 440,1088 c 40,0 40,-40 40,-40 z"
       transform="translate(-16,-836)"
       id="path5794" />
    <path
       style="display:inline;opacity:0.3;fill:#ffffff;fill-opacity:1;stroke:none;stroke-width:26.0669;stroke-linecap:butt;stroke-linejoin:miter;stroke-miterlimit:4;stroke-dasharray:none;stroke-dashoffset:0;stroke-opacity:1;marker:none;marker-start:none;marker-mid:none;marker-end:none;paint-order:normal;enable-background:new"
       d="m 272,752 -32,32 H 104 c 0,0 -40,0 -40,40 v 4 c 0,-40 40,-42 40,-42 h 136.59099 l 32,-32 H 440 c 5.38035,0 40,2 40,42 v -4 c 0,-40 -40,-40 -40,-40 z"
       id="path5796"
       transform="translate(-16,-836)" />
  </g>
  <g
     id="surface105959-1"
     transform="matrix(3.4941816,0,0,3.4941816,134.02619,48.099307)"
     style="fill:#3f8ae5;fill-opacity:1;stroke:none;stroke-width:0.893536" />
  <path
     id="path5"
     style="fill:#438de6;fill-opacity:1;stroke:none;stroke-width:0.964434;stroke-linecap:round;stroke-linejoin:round"
     d="m 70.991572,68.791096 a 4.3505915,4.7692833 0 0 0 -4.3505,4.768875 4.3505915,4.7692833 0 0 0 4.3505,4.769829 4.3505915,4.7692833 0 0 0 4.35054,-4.769829 4.3505915,4.7692833 0 0 0 -4.35054,-4.768875 z m -9.3e-4,0.302107 a 1.8678181,1.867875 0 0 1 1.86777,1.867847 1.8678181,1.867875 0 0 1 -1.86777,1.868826 1.8678181,1.867875 0 0 1 -1.86776,-1.868826 1.8678181,1.867875 0 0 1 1.86776,-1.867847 z m -26.96899,-1.103837 a 5.8763324,4.557058 78.561234 0 0 -0.59169,0.07251 5.8763324,4.557058 78.561234 0 0 -3.274843,6.686097 5.8763324,4.557058 78.561234 0 0 5.648083,4.824037 5.8763324,4.557058 78.561234 0 0 3.27388,-6.686095 5.8763324,4.557058 78.561234 0 0 -5.05546,-4.896664 z m 0.0408,0.36499 a 2.4805652,2.4805034 89.982015 0 1 2.48077,2.480798 2.4805652,2.4805034 89.982015 0 1 -2.48071,2.480758 2.4805652,2.4805034 89.982015 0 1 -2.48076,-2.480776 2.4805652,2.4805034 89.982015 0 1 2.4807,-2.48078 z m 14.59201,1.236559 a 3.220191,3.9148408 0 0 0 -3.22045,3.914827 3.220191,3.9148408 0 0 0 3.22045,3.914831 3.220191,3.9148408 0 0 0 3.2197,-3.914831 3.220191,3.9148408 0 0 0 -3.2197,-3.914827 z m 0.018,0.284674 a 1.4671039,1.4671404 0 0 1 1.46696,1.466973 1.4671039,1.4671404 0 0 1 -1.46696,1.466956 1.4671039,1.4671404 0 0 1 -1.46792,-1.466956 1.4671039,1.4671404 0 0 1 1.46792,-1.466973 z M 86.244252,54.73627 c -0.16291,0.0189 -0.35602,0.111481 -0.55483,0.366977 -4.51035,6.770005 -11.07923,9.805416 -15.87326,11.043436 a 7.0264599,7.1723895 0 0 1 6.50198,7.150866 7.0264599,7.1723895 0 0 1 -7.02681,7.17219 7.0264599,7.1723895 0 0 1 -6.75008,-5.19008 5.3521289,5.9969024 0 0 1 -5.04193,4.001003 5.3521289,5.9969024 0 0 1 -5.35167,-5.997637 5.3521289,5.9969024 0 0 1 5.35167,-5.996661 5.3521289,5.9969024 0 0 1 5.03332,4.072656 7.0264599,7.1723895 0 0 1 3.75595,-4.539372 c -3.77338,0.491376 -5.77906,-0.04911 -8.66917,-1.29751 -2.04822,-1.119953 -3.44474,-2.345361 -4.96249,-4.717554 -0.0711,-0.110551 -0.2175,-0.172202 -0.31665,-0.0504 -0.36241,0.482496 -1.94124,11.445546 -1.96185,12.453259 -0.0657,3.265418 -1.41226,7.186449 -5.46111,7.323233 3.72955,7.596446 11.83847,10.929434 21.17474,10.792648 2.80651,0.0195 6.65619,-0.662847 10.34131,-2.485631 -1.20445,-0.755709 -2.56986,-1.628285 -3.13537,-1.990804 -5.7e-4,-4.32e-4 -10e-4,-5.43e-4 -0.002,-9.75e-4 -2.69244,1.57646 -5.86903,2.178727 -9.34695,2.037293 -4.43369,-0.180992 -3.69487,-1.462627 -2.72181,-1.333337 7.14993,1.012867 11.64267,-1.248772 14.6328,-5.094214 -0.33558,-0.223323 -0.7566,-0.505038 -1.11358,-0.753331 -0.32715,-0.227462 0.0636,-0.583174 0.77089,-0.608095 0.027,-0.0012 0.0525,-0.0018 0.0807,-0.0019 0.40999,-0.0019 0.91477,0.112801 1.4426,0.413447 1.51514,0.865682 1.56761,1.930806 1.07011,2.162217 -0.1593,0.07365 -0.52596,-0.0963 -0.8773,-0.30211 -0.51021,0.657939 -1.05868,1.243096 -1.63541,1.773917 h 0.018 c 1.33655,0.580006 3.13669,1.368602 4.00967,1.780699 2.38512,-1.736722 4.52628,-4.071231 6.03449,-7.148934 4.35986,-8.896846 1.30468,-24.353061 1.22785,-24.578289 -0.0768,-0.225213 -0.2988,-0.424149 -0.48417,-0.454128 h -0.1518 z m -2.8198,31.962825 c -1.25159,0 -2.38356,0.511246 -3.19924,1.335956 -0.0756,-0.0123 -0.1467,-0.0288 -0.2109,-0.06447 -0.29101,-0.162242 -0.3919,-0.635906 -0.77347,-0.656258 h -0.006 -0.006 c -0.0531,-1.38e-4 -0.1104,0.0051 -0.1758,0.0234 -0.55576,0.159272 -1.28846,1.470859 -1.13087,2.027369 0.1575,0.556321 0.71251,0.305569 1.04884,0.492195 0.0483,0.0267 0.0891,0.06501 0.12901,0.105481 -0.11221,0.393152 -0.17581,0.807179 -0.17581,1.236343 0,2.485309 2.01474,4.500059 4.50006,4.500059 h 2.29104 c 0.0522,0.095 0.1113,0.0875 0.1758,0 h 2.03325 v -4.500059 c 0,-2.485312 -2.01477,-4.500057 -4.50006,-4.500057 z" />
</svg>
