<?xml version="1.0" encoding="UTF-8" standalone="no"?>
<svg
   height="128"
   viewBox="0 0 128 128"
   width="128"
   version="1.1"
   id="svg5248"
   xmlns:xlink="http://www.w3.org/1999/xlink"
   xmlns="http://www.w3.org/2000/svg"
   xmlns:svg="http://www.w3.org/2000/svg">
  <defs
     id="defs5252">
    <linearGradient
       xlink:href="#linearGradient2023"
       id="linearGradient2025"
       x1="2689.252"
       y1="-1106.803"
       x2="2918.0698"
       y2="-1106.803"
       gradientUnits="userSpaceOnUse" />
    <linearGradient
       id="linearGradient2023">
      <stop
         style="stop-color:#62a0ea;stop-opacity:1;"
         offset="0"
         id="stop2019" />
      <stop
         style="stop-color:#afd4ff;stop-opacity:1;"
         offset="0.05769911"
         id="stop2795" />
      <stop
         style="stop-color:#62a0ea;stop-opacity:1;"
         offset="0.12220427"
         id="stop2797" />
      <stop
         style="stop-color:#62a0ea;stop-opacity:1;"
         offset="0.87330586"
         id="stop2793" />
      <stop
         style="stop-color:#c0d5ea;stop-opacity:1;"
         offset="0.95599729"
         id="stop2791" />
      <stop
         style="stop-color:#62a0ea;stop-opacity:1;"
         offset="1"
         id="stop2021" />
    </linearGradient>
  </defs>
  <linearGradient
     id="a"
     gradientUnits="userSpaceOnUse"
     x1="11.999989"
     x2="115.99999"
     y1="64"
     y2="64">
    <stop
       offset="0"
       stop-color="#3d3846"
       id="stop5214" />
    <stop
       offset="0.05"
       stop-color="#77767b"
       id="stop5216" />
    <stop
       offset="0.1"
       stop-color="#5e5c64"
       id="stop5218" />
    <stop
       offset="0.899999"
       stop-color="#504e56"
       id="stop5220" />
    <stop
       offset="0.95"
       stop-color="#77767b"
       id="stop5222" />
    <stop
       offset="1"
       stop-color="#3d3846"
       id="stop5224" />
  </linearGradient>
  <linearGradient
     id="b"
     gradientUnits="userSpaceOnUse"
     x1="12"
     x2="112.04102"
     y1="60"
     y2="80.988281">
    <stop
       offset="0"
       stop-color="#77767b"
       id="stop5227" />
    <stop
       offset="0.384443"
       stop-color="#9a9996"
       id="stop5229" />
    <stop
       offset="0.720567"
       stop-color="#77767b"
       id="stop5231" />
    <stop
       offset="1"
       stop-color="#68666f"
       id="stop5233" />
  </linearGradient>
  <g
     id="g760"
     style="display:inline;stroke-width:1.26428;enable-background:new"
     transform="matrix(0.45451006,0,0,0.45552152,-1210.2921,616.15659)">
    <path
       id="rect1135"
       style="fill:#438de6;fill-opacity:1;stroke-width:8.79091;stroke-linecap:round;stop-color:#000000"
       d="m 2711.2064,-1326.3316 c -12.1618,0 -21.9544,9.791 -21.9544,21.9528 v 188.867 c 0,12.1618 9.7926,21.9528 21.9544,21.9528 h 184.9089 c 12.1619,0 21.9545,-9.791 21.9545,-21.9528 v -158.2547 a 26.343462,26.343462 45 0 0 -26.3435,-26.3435 h -101.2664 a 14.283764,14.283764 31.638659 0 1 -12.7581,-7.8607 l -3.3076,-6.5699 a 21.425501,21.425501 31.638659 0 0 -19.1371,-11.791 z" />
    <path
       id="path1953"
       style="fill:url(#linearGradient2025);fill-opacity:1;stroke-width:8.79091;stroke-linecap:round;stop-color:#000000"
       d="m 2808.014,-1273.6447 c -6.0429,0 -11.5016,2.4179 -15.4646,6.3426 -5.0031,4.9549 -11.8483,11.2197 -18.9936,11.2197 h -62.3494 c -12.1618,0 -21.9544,9.791 -21.9544,21.9528 v 118.6179 c 0,12.1618 9.7926,21.9528 21.9544,21.9528 h 184.9089 c 12.1619,0 21.9545,-9.791 21.9545,-21.9528 v -105.4461 -13.1718 -17.5623 c 0,-12.1618 -9.7926,-21.9528 -21.9545,-21.9528 z" />
    <path
       id="rect1586"
       style="fill:#a4caee;fill-opacity:1;stroke-width:8.79091;stroke-linecap:round;stop-color:#000000"
       d="m 2808.014,-1282.4259 c -6.0429,0 -11.5016,2.4179 -15.4646,6.3426 -5.0031,4.9549 -11.8483,11.2197 -18.9936,11.2197 h -62.3494 c -12.1618,0 -21.9544,9.791 -21.9544,21.9528 v 122.8867 c 0,12.1618 9.7926,21.9528 21.9544,21.9528 h 184.9089 c 12.1619,0 21.9545,-9.791 21.9545,-21.9528 v -109.7149 -13.1718 -17.5623 c 0,-12.1618 -9.7926,-21.9528 -21.9545,-21.9528 z" />
  </g>
  <g
     id="g1"
     transform="matrix(0.95720825,0,0,0.95720825,140.04397,20.657308)">
    <path
       id="path1"
       style="fill:#3f8ae5;fill-opacity:1;stroke-width:0.635293"
       class="st1"
       d="m -54.857656,64.668236 c -1.969414,0 -3.621173,-1.588235 -3.621173,-3.621176 0,-1.969412 1.588233,-3.621176 3.621173,-3.621176 1.969405,0 3.621172,1.588234 3.621172,3.621176 0,2.032941 -1.651767,3.621176 -3.621172,3.621176 z m 0,9.847059 c -1.969414,0 -3.621173,-1.588235 -3.621173,-3.621177 0,-1.969411 1.588233,-3.621176 3.621173,-3.621176 1.969405,0 3.621172,1.588236 3.621172,3.621176 0,1.969412 -1.651767,3.621177 -3.621172,3.621177 z m -9.847052,-19.694117 c -1.969406,0 -3.621173,-1.588236 -3.621173,-3.621177 0,-1.969412 1.588233,-3.621177 3.621173,-3.621177 1.969413,0 3.621172,1.588236 3.621172,3.621177 0,2.032941 -1.588233,3.621177 -3.621172,3.621177 z m 0,9.847058 c -1.969406,0 -3.621173,-1.588235 -3.621173,-3.621176 0,-1.969412 1.588233,-3.621176 3.621173,-3.621176 1.969413,0 3.621172,1.588234 3.621172,3.621176 0,2.032941 -1.588233,3.621176 -3.621172,3.621176 z m 0,9.847059 c -1.969406,0 -3.621173,-1.588235 -3.621173,-3.621177 0,-1.969411 1.588233,-3.621176 3.621173,-3.621176 1.969413,0 3.621172,1.588236 3.621172,3.621176 0,1.969412 -1.588233,3.621177 -3.621172,3.621177 z m -9.783518,-19.694117 c -1.969405,0 -3.621172,-1.588236 -3.621172,-3.621177 0,-1.969412 1.588232,-3.621177 3.621172,-3.621177 1.969414,0 3.621173,1.588236 3.621173,3.621177 -0.06354,2.032941 -1.651759,3.621177 -3.621173,3.621177 z m 0,9.847058 c -1.969405,0 -3.621172,-1.588235 -3.621172,-3.621176 0,-1.969412 1.588232,-3.621176 3.621172,-3.621176 1.969414,0 3.621173,1.588234 3.621173,3.621176 -0.06354,2.032941 -1.651759,3.621176 -3.621173,3.621176 z m -9.847043,-9.847058 c -1.969414,0 -3.621173,-1.588236 -3.621173,-3.621177 0,-1.969412 1.588233,-3.621177 3.621173,-3.621177 1.969405,0 3.621172,1.588236 3.621172,3.621177 0,2.032941 -1.651767,3.621177 -3.621172,3.621177 z m 0,9.847058 c -1.969414,0 -3.621173,-1.588235 -3.621173,-3.621176 0,-1.969412 1.588233,-3.621176 3.621173,-3.621176 1.969405,0 3.621172,1.588234 3.621172,3.621176 0,2.032941 -1.651767,3.621176 -3.621172,3.621176 z m -9.847052,-9.847058 c -1.969406,0 -3.621173,-1.588236 -3.621173,-3.621177 0,-1.969412 1.588233,-3.621177 3.621173,-3.621177 1.969413,0 3.621172,1.588236 3.621172,3.621177 0,2.032941 -1.588233,3.621177 -3.621172,3.621177 z m 0,9.847058 c -1.969406,0 -3.621173,-1.588235 -3.621173,-3.621176 0,-1.969412 1.588233,-3.621176 3.621173,-3.621176 1.969413,0 3.621172,1.588234 3.621172,3.621176 0,2.032941 -1.588233,3.621176 -3.621172,3.621176 z m 0,9.847059 c -1.969406,0 -3.621173,-1.588235 -3.621173,-3.621177 0,-1.969411 1.588233,-3.621176 3.621173,-3.621176 1.969413,0 3.621172,1.588236 3.621172,3.621176 0,1.969412 -1.588233,3.621177 -3.621172,3.621177 z m -9.847039,-9.847059 c -1.96942,0 -3.62118,-1.588235 -3.62118,-3.621176 0,-1.969412 1.58824,-3.621176 3.62118,-3.621176 1.9694,0 3.62117,1.588234 3.62117,3.621176 0,2.032941 -1.58824,3.621176 -3.62117,3.621176 z m 0,9.847059 c -1.96942,0 -3.62118,-1.588235 -3.62118,-3.621177 0,-1.969411 1.58824,-3.621176 3.62118,-3.621176 1.9694,0 3.62117,1.588236 3.62117,3.621176 0,1.969412 -1.58824,3.621177 -3.62117,3.621177 z" />
  </g>
</svg>
