<?xml version="1.0" encoding="UTF-8" standalone="no"?>
<svg
   height="128"
   viewBox="0 0 128 128"
   width="128"
   version="1.1"
   id="svg5248"
   xmlns:xlink="http://www.w3.org/1999/xlink"
   xmlns="http://www.w3.org/2000/svg"
   xmlns:svg="http://www.w3.org/2000/svg">
  <defs
     id="defs5252">
    <filter
       style="color-interpolation-filters:sRGB"
       id="filter1302"
       x="-0.012000846"
       width="1.0240017"
       y="-0.011999155"
       height="1.0239983">
      <feGaussianBlur
         stdDeviation="2.0803224"
         id="feGaussianBlur1304" />
    </filter>
    <linearGradient
       id="bg-gradient-2">
      <stop
         style="stop-color:#3584e4;stop-opacity:1"
         offset="0"
         id="stop13402" />
      <stop
         style="stop-color:#62a0ea;stop-opacity:1"
         offset="1"
         id="stop13404" />
    </linearGradient>
    <clipPath
       clipPathUnits="userSpaceOnUse"
       id="clipPath1509">
      <path
         id="path1511"
         d="M 192,-164 H 88 c 0,0 -40,0 -40,40 V 4 h 416 v -96 c 0,0 0,-40 -40,-40 H 224 Z"
         style="display:inline;opacity:1;vector-effect:none;fill:#c9b8a7;fill-opacity:1;stroke:none;stroke-width:26.0669;stroke-linecap:butt;stroke-linejoin:miter;stroke-miterlimit:4;stroke-dasharray:none;stroke-dashoffset:0;stroke-opacity:1;marker:none;marker-start:none;marker-mid:none;marker-end:none;paint-order:normal;enable-background:new" />
    </clipPath>
    <filter
       style="color-interpolation-filters:sRGB"
       id="filter1529"
       x="-0.10846153"
       width="1.2169231"
       y="-0.13428571"
       height="1.2685714">
      <feGaussianBlur
         stdDeviation="18.8"
         id="feGaussianBlur1531" />
    </filter>
    <linearGradient
       id="linearGradient888">
      <stop
         style="stop-color:#99c1f1;stop-opacity:1"
         offset="0"
         id="stop884" />
      <stop
         style="stop-color:#c3e5e7;stop-opacity:1"
         offset="1"
         id="stop886" />
    </linearGradient>
    <linearGradient
       xlink:href="#bg-gradient-2"
       id="linearGradient5836"
       gradientUnits="userSpaceOnUse"
       x1="64"
       y1="756"
       x2="480"
       y2="756" />
    <linearGradient
       xlink:href="#linearGradient888"
       id="linearGradient5838"
       gradientUnits="userSpaceOnUse"
       x1="152.89844"
       y1="-38.796875"
       x2="447.30859"
       y2="316" />
  </defs>
  <linearGradient
     id="a"
     gradientUnits="userSpaceOnUse"
     x1="11.999989"
     x2="115.99999"
     y1="64"
     y2="64">
    <stop
       offset="0"
       stop-color="#3d3846"
       id="stop5214" />
    <stop
       offset="0.05"
       stop-color="#77767b"
       id="stop5216" />
    <stop
       offset="0.1"
       stop-color="#5e5c64"
       id="stop5218" />
    <stop
       offset="0.899999"
       stop-color="#504e56"
       id="stop5220" />
    <stop
       offset="0.95"
       stop-color="#77767b"
       id="stop5222" />
    <stop
       offset="1"
       stop-color="#3d3846"
       id="stop5224" />
  </linearGradient>
  <linearGradient
     id="b"
     gradientUnits="userSpaceOnUse"
     x1="12"
     x2="112.04102"
     y1="60"
     y2="80.988281">
    <stop
       offset="0"
       stop-color="#77767b"
       id="stop5227" />
    <stop
       offset="0.384443"
       stop-color="#9a9996"
       id="stop5229" />
    <stop
       offset="0.720567"
       stop-color="#77767b"
       id="stop5231" />
    <stop
       offset="1"
       stop-color="#68666f"
       id="stop5233" />
  </linearGradient>
  <g
     transform="matrix(0.2511615,0,0,0.2511615,-0.29292947,52.434794)"
     id="g5798"
     style="fill:#c9b8a7;fill-opacity:1;stroke:#a08f7f;stroke-opacity:1">
    <path
       id="path5786"
       d="m 88,-162 c 0,0 -40,0 -40,40 L 47.964844,6 h 0.0332 L 47.964844,254.0938 424,254 c 40,0 40,-40 40,-40 V 6 -42 -90 c 0,0 0,-40 -40,-40 H 224 l -32,-32 z"
       style="display:inline;opacity:0.2;fill:#000000;fill-opacity:1;stroke:none;stroke-width:26.0669;stroke-linecap:butt;stroke-linejoin:miter;stroke-miterlimit:4;stroke-dasharray:none;stroke-dashoffset:0;stroke-opacity:1;marker:none;marker-start:none;marker-mid:none;marker-end:none;paint-order:normal;filter:url(#filter1302);enable-background:new" />
    <path
       style="display:inline;opacity:1;fill:url(#linearGradient5836);fill-opacity:1;stroke:none;stroke-width:26.0669;stroke-linecap:butt;stroke-linejoin:miter;stroke-miterlimit:4;stroke-dasharray:none;stroke-dashoffset:0;stroke-opacity:1;marker:none;marker-start:none;marker-mid:none;marker-end:none;paint-order:normal;enable-background:new"
       d="M 208,672 H 104 c 0,0 -40,0 -40,40 v 128 h 416 v -96 c 0,0 0,-40 -40,-40 H 240 Z"
       transform="translate(-16,-836)"
       id="path5788" />
    <path
       id="path5790"
       d="m 256,-80 -32,32 H 88 c 0,0 -40,0 -40,40 v 264 h 376 c 40,0 40,-40 40,-40 V -40 c 0,-40 -40,-40 -40,-40 z"
       style="display:inline;opacity:0.1;fill:#000000;fill-opacity:1;stroke:none;stroke-width:26.0669;stroke-linecap:butt;stroke-linejoin:miter;stroke-miterlimit:4;stroke-dasharray:none;stroke-dashoffset:0;stroke-opacity:1;marker:none;marker-start:none;marker-mid:none;marker-end:none;paint-order:normal;filter:url(#filter1529);enable-background:new"
       clip-path="url(#clipPath1509)" />
    <path
       style="display:inline;opacity:1;fill:url(#linearGradient5838);fill-opacity:1;stroke:none;stroke-width:26.0669;stroke-linecap:butt;stroke-linejoin:miter;stroke-miterlimit:4;stroke-dasharray:none;stroke-dashoffset:0;stroke-opacity:1;marker:none;marker-start:none;marker-mid:none;marker-end:none;paint-order:normal;enable-background:new"
       d="m 256,-84 -32,32 H 88 c 0,0 -40,0 -40,40 v 264 h 376 c 40,0 40,-40 40,-40 V -44 c 0,-40 -40,-40 -40,-40 z"
       id="path5792" />
    <path
       style="font-variation-settings:normal;display:inline;opacity:1;fill:#99c1f1;fill-opacity:1;stroke:none;stroke-width:26.0669;stroke-linecap:butt;stroke-linejoin:miter;stroke-miterlimit:4;stroke-dasharray:none;stroke-dashoffset:0;stroke-opacity:1;marker:none;marker-start:none;marker-mid:none;marker-end:none;paint-order:normal;enable-background:new;stop-color:#000000;stop-opacity:1"
       d="m 480,1042 c 0,0 0,40 -40,40 l -375.998047,0.094 -0.0039,6 L 440,1088 c 40,0 40,-40 40,-40 z"
       transform="translate(-16,-836)"
       id="path5794" />
    <path
       style="display:inline;opacity:0.3;fill:#ffffff;fill-opacity:1;stroke:none;stroke-width:26.0669;stroke-linecap:butt;stroke-linejoin:miter;stroke-miterlimit:4;stroke-dasharray:none;stroke-dashoffset:0;stroke-opacity:1;marker:none;marker-start:none;marker-mid:none;marker-end:none;paint-order:normal;enable-background:new"
       d="m 272,752 -32,32 H 104 c 0,0 -40,0 -40,40 v 4 c 0,-40 40,-42 40,-42 h 136.59099 l 32,-32 H 440 c 5.38035,0 40,2 40,42 v -4 c 0,-40 -40,-40 -40,-40 z"
       id="path5796"
       transform="translate(-16,-836)" />
  </g>
  <g
     id="surface105959-1"
     transform="matrix(3.4941816,0,0,3.4941816,134.02619,48.099307)"
     style="fill:#3f8ae5;fill-opacity:1;stroke:none;stroke-width:0.893536" />
  <path
     id="path65786"
     style="fill:#438de6;fill-opacity:1;stroke-width:0.443187"
     d="m 63.254656,51.027357 c -3.41349,0.13557 -6.76341,1.085877 -9.99306,2.281254 -1.88901,0.699189 -3.68094,1.58019 -5.26911,2.702262 -2.42643,1.714296 -4.37685,3.991281 -5.46267,7.038201 l 1.91667,-0.027 -1.91754,0.03039 c -0.1716,0.482241 -0.32097,0.983538 -0.44793,1.505205 -0.1095,0.450255 -0.2016,0.902529 -0.276,1.356774 -0.67536,4.123761 0.0678,8.391804 1.66755,12.440124 2.31099,5.848258 6.40995,11.237223 10.60329,15.069473 1.72023,1.57208 3.80577,3.42723 6.10332,4.55469 0.288,0.14136 0.58056,0.2715 0.87501,0.38802 1.28358,0.508 2.62377,0.76078 3.99651,0.59375 4.917,-0.59827 9.46992,-5.62272 12.45489,-9.17363 3.56199,-4.237318 7.03617,-10.074437 8.40453,-15.877625 l -1.0026,0.779514 -1.96008,0.900174 1.96008,-0.901038 1.0026,-0.77865 c 0.1242,-0.547947 0.1728,-1.236549 0.2595,-1.783854 0.97185,-6.129981 -0.50319,-12.142437 -6.55038,-16.30905 -2.29023,-1.578015 -4.73829,-2.652606 -7.38369,-3.477435 -2.70531,-0.843519 -5.95827,-1.431687 -8.98092,-1.311636 z m -9.93924,3.839412 c 0.006,0.08088 0.012,0.16149 0.018,0.24306 l -0.015,-0.10677 z m 0.32031,2.592018 c 0.018,0.10299 0.0375,0.20577 0.0573,0.308163 l -0.0363,-0.14409 z m 8.05209,1.578129 c 4.0218,0.0252 8.01135,0.881865 11.97744,2.871531 0.009,0.0042 0.018,0.0093 0.03,0.0138 0.03,0.015 0.0594,0.03012 0.0894,0.04512 0.0465,0.0234 0.0927,0.04674 0.1398,0.07029 2.12112,1.063599 4.60752,2.328882 5.99655,4.266504 -5.46933,-3.386412 -11.07894,-5.51442 -17.62938,-4.458336 -2.24487,0.361917 -4.25058,1.190316 -6.38544,1.91493 0.1179,0.27426 0.2463,0.540885 0.3837,0.801213 l 0.002,0.0026 0.1077,0.16668 0.072,0.16233 c 1.2e-4,2.16e-4 -1.2e-4,6.6e-4 0,8.58e-4 1.20072,2.110572 2.98572,3.808734 4.5486,5.673615 5.4e-4,6.24e-4 8.7e-4,8.55e-4 0.002,0.0017 l 0.003,0.0033 c 0.2745,0.327642 0.54138,0.660636 0.79773,1.001745 l 0.002,0.0017 c 0.2427,0.322875 0.47481,0.653496 0.69357,0.99393 0.35118,0.546474 0.67599,1.106517 0.97308,1.678815 l 0.003,0.0051 c 0.0462,0.08928 0.0825,0.18273 0.1275,0.27258 0.2082,0.415929 0.41136,0.83427 0.59118,1.261287 0.0795,0.15201 0.147,0.338991 0.21,0.517362 0.0516,0.14595 0.0999,0.28587 0.1503,0.396705 2.1e-4,5.97e-4 6.3e-4,8.55e-4 8.4e-4,0.0017 0.0834,0.17253 0.38274,1.051788 0.48873,1.498269 2.4e-4,8.58e-4 6e-4,0.0017 8.4e-4,0.0026 0.2448,0.857283 0.41418,1.730751 0.54948,2.608513 0.018,0.108 0.0492,0.21273 0.0678,0.32118 0.045,0.33822 0.0906,0.714792 0.1197,1.054689 0.018,0.20919 0.0339,0.418911 0.0459,0.628473 1.2e-4,0.0013 -1.2e-4,0.0021 0,0.0036 6e-5,9.42e-4 -6e-5,0.0017 0,0.0026 0.003,0.756708 0.0417,1.583568 0.003,2.337678 -0.009,0.07419 -0.027,0.12831 -0.0357,0.20139 -0.1476,2.315973 -0.69747,4.595943 -1.63455,6.756083 -0.0411,0.11649 -0.0579,0.20811 -0.1008,0.32726 l -0.58854,1.18664 c -0.1245,0.22725 -0.2088,0.37753 -0.31251,0.55816 l -0.34377,0.45486 c 1.59078,-6.9621 1.46253,-13.636315 -2.88714,-19.673639 -1.20069,-1.666551 -2.57784,-3.129738 -3.95487,-4.579005 -4.5e-4,-3.87e-4 -4.2e-4,-4.8e-4 -8.4e-4,-8.58e-4 l -0.006,-0.0051 c -0.72612,-0.764202 -1.44783,-1.53318 -2.14323,-2.3151 l -0.282,-0.304695 -0.2718,-0.336801 c -0.30738,-0.361035 -0.60348,-0.731916 -0.89325,-1.107639 l -0.36978,-0.459207 -0.30816,-0.455724 c -0.1155,-0.16584 -0.2295,-0.332781 -0.34029,-0.502605 l -0.2457,-0.36285 -0.2292,-0.44358 c -0.53373,-0.91494 -1.02063,-1.872036 -1.38369,-2.941839 0.1047,-0.03423 0.2097,-0.06804 0.31422,-0.10155 h 8.7e-4 c 0.1803,-0.07251 0.39978,-0.13479 0.63021,-0.19791 0.2613,-0.08028 0.52272,-0.15873 0.78384,-0.23439 l 0.03,-0.0087 c 0.006,-0.0017 0.009,-0.0017 0.015,-0.0033 l 0.68229,-0.19185 1.07031,-0.27864 1.14324,-0.26649 c 0.006,-0.0017 0.015,-0.0033 0.021,-0.0051 l 0.015,-0.0033 c 0.006,-8.55e-4 0.009,-0.0017 0.015,-0.0026 0.0585,-0.0126 0.117,-0.0258 0.1752,-0.03819 0.0366,-0.0078 0.0714,-0.0153 0.1008,-0.0207 0.2832,-0.05847 0.56148,-0.08148 0.84375,-0.13368 2.11869,-0.39798 4.22964,-0.64683 6.32988,-0.633684 z m -13.86459,4.092021 0.2691,0.0207 c 0.0729,0.0087 0.0894,0.0138 0.1527,0.0216 -0.1866,-0.0186 -0.2775,-0.03003 -0.42186,-0.04254 z m -3.41319,0.93663 c -0.0366,0.0246 -0.0732,0.04932 -0.1095,0.0738 l 0.033,-0.0261 z m 7.31424,3.844626 c 0.1407,0.05649 0.2322,0.09327 0.2742,0.11718 0.003,0.0017 0.003,0.0033 0.006,0.0042 l -0.006,-0.0033 z m 11.53734,4.200525 1.52517,0.811632 -0.94443,-0.501732 z m 3.53907,1.851564 1.99218,0.648438 -0.009,-0.0017 z m 15.7014,0.05556 -1.34376,0.427947 -0.009,0.0017 z m -15.60246,2.509554 0.0303,0.0078 -0.012,-0.0026 z m 3.19881,0.624999 0.0459,0.0078 0.024,0.0026 -0.024,-0.0017 z" />
</svg>
