<?xml version="1.0" encoding="UTF-8" standalone="no"?>
<svg
   height="128"
   viewBox="0 0 128 128"
   width="128"
   version="1.1"
   id="svg23"
   xml:space="preserve"
   xmlns="http://www.w3.org/2000/svg"
   xmlns:svg="http://www.w3.org/2000/svg"><defs
     id="defs27" /><linearGradient
     id="a"
     gradientTransform="matrix(0.45451,0,0,0.455522,-1210.2921,616.17261)"
     gradientUnits="userSpaceOnUse"
     x1="2689.252"
     x2="2918.0698"
     y1="-1106.803"
     y2="-1106.803"><stop
       offset="0"
       stop-color="#62a0ea"
       id="stop2" /><stop
       offset="0.0576991"
       stop-color="#afd4ff"
       id="stop4" /><stop
       offset="0.122204"
       stop-color="#62a0ea"
       id="stop6" /><stop
       offset="0.873306"
       stop-color="#62a0ea"
       id="stop8" /><stop
       offset="0.955997"
       stop-color="#c0d5ea"
       id="stop10" /><stop
       offset="1"
       stop-color="#62a0ea"
       id="stop12" /></linearGradient><path
     d="M 21.976562,12 C 16.449219,12 12,16.460938 12,22 v 86.03125 c 0,5.54297 4.449219,10 9.976562,10 h 84.042968 c 5.53125,0 9.98047,-4.45703 9.98047,-10 V 35.945312 c 0,-6.628906 -5.35937,-12 -11.97266,-12 H 58 c -2.453125,0 -4.695312,-1.386718 -5.796875,-3.582031 L 50.699219,17.371094 C 49.042969,14.078125 45.679688,12 42,12 Z m 0,0"
     fill="#438de6"
     id="path15"
     style="display:inline" /><path
     d="M 65.976562,36 C 63.230469,36 60.75,37.101562 58.949219,38.890625 56.675781,41.144531 53.566406,44 50.316406,44 H 21.976562 C 16.449219,44 12,48.460938 12,54 v 54.03125 c 0,5.54297 4.449219,10 9.976562,10 h 84.042968 c 5.53125,0 9.98047,-4.45703 9.98047,-10 V 46 c 0,-5.539062 -4.44922,-10 -9.98047,-10 z m 0,0"
     fill="url(#a)"
     id="path17"
     style="display:inline;fill:url(#a)" /><path
     d="M 65.976562,32 C 63.230469,32 60.75,33.101562 58.949219,34.890625 56.675781,37.144531 53.566406,40 50.316406,40 H 21.976562 C 16.449219,40 12,44.460938 12,50 v 55.97656 c 0,5.53907 4.449219,10 9.976562,10 h 84.042968 c 5.53125,0 9.98047,-4.46093 9.98047,-10 V 42 c 0,-5.539062 -4.44922,-10 -9.98047,-10 z m 0,0"
     fill="#a4caee"
     id="path19"
     style="display:inline" /><path
     d="m 64.000001,92.344249 c -6.90126,-0.0014 -12.494557,-5.594703 -12.494557,-12.495962 0,-6.90126 5.594704,-12.495963 12.495963,-12.495963 4.598964,0 8.618487,2.485128 10.787173,6.185396 l 0.03235,0.05907 -5.406245,3.127859 c -1.099813,-1.883185 -3.112387,-3.127859 -5.413276,-3.127859 -3.451333,0 -6.250091,2.797352 -6.250091,6.250091 0,3.452739 2.797352,6.250091 6.250091,6.250091 2.300889,0 4.312056,-1.243267 5.396399,-3.095511 l 0.01547,-0.02953 5.409057,3.127858 C 72.61427,89.8535 68.597559,92.335816 64.001408,92.344254 Z M 82.267874,69.303016 c -0.278469,-0.500682 -0.666638,-0.908541 -1.132161,-1.203888 l -0.01406,-0.0084 -15.494431,-8.946181 c -0.472554,-0.244716 -1.030899,-0.38817 -1.624405,-0.38817 -0.593505,0 -1.15185,0.143454 -1.644094,0.396608 l 0.01969,-0.0098 -15.497244,8.946181 c -0.932451,0.616008 -1.555491,1.635657 -1.621592,2.802978 v 0.0098 17.890955 c 0.06751,1.177166 0.690548,2.195408 1.608934,2.804384 l 0.01406,0.0084 15.494431,8.946177 c 0.472554,0.24331 1.032306,0.38677 1.624405,0.38677 0.592099,0 1.151851,-0.14346 1.644095,-0.3952 l -0.01969,0.01 15.494431,-8.94618 c 0.93245,-0.616008 1.554084,-1.635656 1.620186,-2.802978 v -0.0098 -17.890956 C 82.724958,70.310007 82.550563,69.7601 82.260842,69.290358 l 0.0084,0.01407 z"
     id="path1409"
     style="display:none;fill:#438de6;fill-opacity:1;stroke-width:1.40641" /><g
     style="fill:#438de6;fill-opacity:1"
     id="g151"
     transform="matrix(1.7289821,0,0,1.7289821,43.252215,55.252993)"><path
       d="M 12,18.82 C 5.373,18.82 0,15.222 0,10.783 0,6.344 5.373,2.746 12,2.746 c 6.627,0 12,3.599 12,8.037 0,4.438 -5.373,8.037 -12,8.037 z M 13.837,5.888 c -5.038,0 -9.121,2.46 -9.121,5.495 0,3.035 4.083,5.494 9.12,5.494 5.037,0 8.756,-1.682 8.756,-5.494 0,-3.812 -3.718,-5.495 -8.755,-5.495 z m 4.438,9.306 a 9.038,9.038 0 0 1 1.149,0.433 2.221,2.221 0 0 1 0.582,0.416 1.573,1.573 0 0 1 0.266,0.383 l 2.863,4.826 -4.627,0.002 -2.163,-4.063 a 5.229,5.229 0 0 0 -0.716,-0.982 0.753,0.753 0 0 0 -0.549,-0.25 h -1.099 v 5.292 L 9.888,21.252 V 7.737 h 8.221 c 0,0 3.744,0.067 3.744,3.63 a 3.822,3.822 0 0 1 -3.578,3.827 z m -1.78,-4.526 -2.479,-10e-4 v 2.298 h 2.479 a 1.134,1.134 0 0 0 1.148,-1.17 1.07,1.07 0 0 0 -1.148,-1.127 z"
       id="path142"
       style="fill:#438de6;fill-opacity:1" /></g></svg>
