<?xml version="1.0" encoding="UTF-8" standalone="no"?>
<svg
   height="128"
   viewBox="0 0 128 128"
   width="128"
   version="1.1"
   id="svg5248"
   xml:space="preserve"
   sodipodi:docname="folder-translation.svg"
   inkscape:version="1.4 (e7c3feb100, 2024-10-09)"
   xmlns:inkscape="http://www.inkscape.org/namespaces/inkscape"
   xmlns:sodipodi="http://sodipodi.sourceforge.net/DTD/sodipodi-0.dtd"
   xmlns:xlink="http://www.w3.org/1999/xlink"
   xmlns="http://www.w3.org/2000/svg"
   xmlns:svg="http://www.w3.org/2000/svg"><sodipodi:namedview
     id="namedview1"
     pagecolor="#505050"
     bordercolor="#ffffff"
     borderopacity="1"
     inkscape:showpageshadow="0"
     inkscape:pageopacity="0"
     inkscape:pagecheckerboard="1"
     inkscape:deskcolor="#505050"
     inkscape:zoom="4.839262"
     inkscape:cx="72.428399"
     inkscape:cy="73.8749"
     inkscape:window-width="1894"
     inkscape:window-height="999"
     inkscape:window-x="0"
     inkscape:window-y="0"
     inkscape:window-maximized="1"
     inkscape:current-layer="svg5248" /><defs
     id="defs5252"><linearGradient
       xlink:href="#linearGradient2023"
       id="linearGradient2025"
       x1="2689.252"
       y1="-1106.803"
       x2="2918.0698"
       y2="-1106.803"
       gradientUnits="userSpaceOnUse"
       gradientTransform="matrix(0.45451006,0,0,0.45552152,-1210.2921,616.15659)" /><linearGradient
       id="linearGradient2023"><stop
         style="stop-color:#62a0ea;stop-opacity:1;"
         offset="0"
         id="stop2019" /><stop
         style="stop-color:#afd4ff;stop-opacity:1;"
         offset="0.05769911"
         id="stop2795" /><stop
         style="stop-color:#62a0ea;stop-opacity:1;"
         offset="0.12220427"
         id="stop2797" /><stop
         style="stop-color:#62a0ea;stop-opacity:1;"
         offset="0.87330586"
         id="stop2793" /><stop
         style="stop-color:#c0d5ea;stop-opacity:1;"
         offset="0.95599729"
         id="stop2791" /><stop
         style="stop-color:#62a0ea;stop-opacity:1;"
         offset="1"
         id="stop2021" /></linearGradient></defs><linearGradient
     id="a"
     gradientUnits="userSpaceOnUse"
     x1="11.999989"
     x2="115.99999"
     y1="64"
     y2="64"><stop
       offset="0"
       stop-color="#3d3846"
       id="stop5214" /><stop
       offset="0.05"
       stop-color="#77767b"
       id="stop5216" /><stop
       offset="0.1"
       stop-color="#5e5c64"
       id="stop5218" /><stop
       offset="0.899999"
       stop-color="#504e56"
       id="stop5220" /><stop
       offset="0.95"
       stop-color="#77767b"
       id="stop5222" /><stop
       offset="1"
       stop-color="#3d3846"
       id="stop5224" /></linearGradient><linearGradient
     id="b"
     gradientUnits="userSpaceOnUse"
     x1="12"
     x2="112.04102"
     y1="60"
     y2="80.988281"><stop
       offset="0"
       stop-color="#77767b"
       id="stop5227" /><stop
       offset="0.384443"
       stop-color="#9a9996"
       id="stop5229" /><stop
       offset="0.720567"
       stop-color="#77767b"
       id="stop5231" /><stop
       offset="1"
       stop-color="#68666f"
       id="stop5233" /></linearGradient><path
     id="rect1135"
     style="fill:#438de6;fill-opacity:1;stroke-width:4;stroke-linecap:round;stop-color:#000000"
     d="m 21.978484,11.984004 c -5.527661,0 -9.978496,4.460011 -9.978496,9.999972 v 86.032984 c 0,5.53996 4.450835,9.99997 9.978496,9.99997 h 84.042956 c 5.5277,0 9.97854,-4.46001 9.97854,-9.99997 V 35.928538 A 11.973368,12.000014 0 0 0 104.02659,23.928507 H 57.999997 A 6.4921144,6.5065619 0 0 1 52.201312,20.347789 L 50.697974,17.355058 A 9.7381057,9.7597768 0 0 0 41.99997,11.984004 Z" /><path
     id="path1953"
     style="fill:url(#linearGradient2025);fill-opacity:1;stroke-width:4;stroke-linecap:round;stop-color:#000000"
     d="m 65.978512,35.98402 c -2.746559,0 -5.227593,1.101406 -7.028817,2.889191 -2.273959,2.257064 -5.385171,5.110815 -8.632782,5.110815 H 21.978484 c -5.527661,0 -9.978496,4.460011 -9.978496,9.999973 V 108.017 c 0,5.53997 4.450835,9.99998 9.978496,9.99998 h 84.042956 c 5.5277,0 9.97854,-4.46001 9.97854,-9.99998 V 59.984037 53.983999 45.983993 c 0,-5.539961 -4.45084,-9.999973 -9.97854,-9.999973 z" /><path
     id="rect1586"
     style="fill:#a4caee;fill-opacity:1;stroke-width:4;stroke-linecap:round;stop-color:#000000"
     d="m 65.978512,31.983995 c -2.746559,0 -5.227593,1.101405 -7.028817,2.889191 C 56.675736,37.130249 53.564524,39.984 50.316913,39.984 H 21.978484 c -5.527661,0 -9.978496,4.460012 -9.978496,9.999973 v 55.977537 c 0,5.53996 4.450835,9.99997 9.978496,9.99997 h 84.042956 c 5.5277,0 9.97854,-4.46001 9.97854,-9.99997 V 55.984012 49.983973 41.983968 c 0,-5.539962 -4.45084,-9.999973 -9.97854,-9.999973 z" /><path
     id="path967"
     style="font-style:normal;font-variant:normal;font-weight:bold;font-stretch:normal;font-size:40px;line-height:0%;font-family:FreeSans;-inkscape-font-specification:'FreeSans Bold';text-align:center;text-anchor:middle;display:inline;fill:#438de6;fill-opacity:1;stroke:none;stroke-width:0.674186"
     d="m 56.732265,59.210487 0.466132,2.226944 c -7.871923,3.96652 -8.694438,7.44041 -9.778045,10.93205 l 4.25122,0.751058 c 1.003048,-4.240368 3.650511,-6.404975 6.761897,-7.735887 l 0.788014,2.406959 5.489868,-6.047797 z m 15.805576,0.140674 c -0.05541,0 -0.108712,0.01749 -0.154979,0.05007 -1.219069,0.881313 -3.632616,2.069714 -5.494638,2.704997 -0.135438,0.0457 -0.208286,0.188383 -0.166901,0.325458 l 0.06318,0.203858 c 0.0343,0.109836 0.133527,0.184783 0.277772,0.184783 h 0.0047 c 0.7793,-0.0905 1.603507,-0.214422 2.381923,-0.357646 0.01142,-0.0018 0.02078,-0.0024 0.03219,-0.0024 0.04049,0 0.08072,0.01297 0.113254,0.03934 0.03953,0.03339 0.06318,0.08406 0.06318,0.135907 v 1.847837 c 0,0.09666 -0.07973,0.175248 -0.176439,0.175248 h -2.49041 c -0.08268,0 -0.158514,0.03719 -0.208626,0.10133 -0.05018,0.06415 -0.0671,0.147424 -0.04769,0.22651 l 0.07751,0.313535 c 0.0299,0.117739 0.134938,0.199091 0.256313,0.199091 h 1.851414 c 0.05368,0 0.104837,0.02458 0.13829,0.06676 0.03345,0.0413 0.04572,0.09717 0.03338,0.149019 -0.531254,2.294225 -1.387608,4.355346 -2.410536,5.803405 -0.0721,0.101052 -0.06207,0.240037 0.02147,0.331419 l 0.188357,0.202666 c 0.05013,0.05448 0.119285,0.08465 0.193128,0.08465 0.06333,0 0.124182,-0.02276 0.171671,-0.06318 0.781931,-0.665158 1.483139,-1.418808 2.083885,-2.241249 0.0343,-0.04658 0.08644,-0.07273 0.141866,-0.07273 0.01764,0 0.03635,0.0021 0.05484,0.0084 0.07212,0.02373 0.1216,0.09134 0.1216,0.166901 v 4.364476 c 0,0.145861 0.117456,0.263466 0.263466,0.263466 h 0.298038 c 0.79777,0 1.544135,-0.352393 1.595102,-0.731982 v -5.235939 c 0,-0.07996 0.05522,-0.151148 0.133522,-0.170479 0.01416,-0.0034 0.02887,-0.006 0.04292,-0.006 0.06331,0 0.124155,0.03531 0.15498,0.09418 0.223406,0.420008 0.366189,0.82017 0.413677,1.157581 0.0079,0.05711 0.03458,0.110984 0.0751,0.151404 0.244519,0.24515 0.52543,0.373144 0.813048,0.373144 0.224292,0 0.43597,-0.07061 0.612768,-0.20505 0.03074,-0.0246 0.06951,-0.03696 0.107294,-0.03696 0.02635,0 0.05289,0.0068 0.07748,0.01907 0.05985,0.02988 0.09776,0.0894 0.09776,0.156171 v 3.859003 c 0,0.14586 0.119535,0.263465 0.264659,0.263465 1.599038,0 1.925328,-0.726156 1.925328,-0.920342 v -0.704563 c 0,-0.09666 0.07854,-0.175247 0.175247,-0.175247 h 2.082693 c 0.09674,0 0.176439,0.07859 0.176439,0.175247 v 1.064593 c 0,0.144982 0.117456,0.262274 0.263466,0.262274 1.110879,0 1.940827,-0.378194 1.940827,-0.716485 V 63.78957 c 0,-0.07205 0.04464,-0.137842 0.113253,-0.163326 0.248043,-0.09578 0.42124,-0.216493 0.516204,-0.358838 0.07833,-0.116865 0.05116,-0.275372 -0.06318,-0.358838 L 79.91841,61.576932 c -0.04486,-0.03253 -0.0987,-0.05007 -0.15498,-0.05007 -0.08443,0 -0.162091,0.03932 -0.212204,0.106102 l -0.556736,0.74748 c -0.03341,0.04392 -0.08644,0.07033 -0.141866,0.07033 l -2.484445,-0.0143 -1.657094,-0.715293 c -0.03165,-0.01411 -0.06464,-0.02061 -0.09895,-0.02146 -0.07738,-8.55e-4 -0.143737,-0.05225 -0.165711,-0.125177 -0.022,-0.07381 0.0059,-0.152769 0.06914,-0.196704 0.03254,-0.02109 0.06219,-0.0458 0.08941,-0.07391 0.05369,-0.05272 0.08115,-0.126788 0.07749,-0.201474 -0.0044,-0.07469 -0.0409,-0.144173 -0.09895,-0.190745 l -1.880027,-1.503306 c -0.0475,-0.03777 -0.10504,-0.05722 -0.165709,-0.05722 z m 0.922728,2.098191 c 0.01489,0 0.03035,0.0016 0.0453,0.006 0.172396,0.04483 0.328467,0.06676 0.474477,0.06676 0.0941,0 0.182867,-0.01019 0.264658,-0.0286 0.01319,-0.0026 0.02615,-0.0036 0.03934,-0.0036 0.06155,1e-6 0.119724,0.03167 0.151404,0.08703 0.03956,0.06678 0.02929,0.150315 -0.02266,0.207435 -0.04575,0.04833 -0.07033,0.112044 -0.07033,0.178823 v 2.180449 c 0,0.06765 -0.03828,0.128678 -0.09895,0.158556 -0.02461,0.01136 -0.04993,0.01788 -0.0763,0.01788 -0.0387,0 -0.078,-0.01473 -0.109678,-0.03934 l -0.932263,-0.739134 c -0.04486,-0.03516 -0.0968,-0.05484 -0.184785,-0.05484 h -0.01788 c -0.07124,0.01142 -0.136247,0.05112 -0.177631,0.110871 l -0.610383,0.877425 c -0.03342,0.04919 -0.08797,0.0763 -0.144251,0.0763 -0.01764,0 -0.03481,-0.0021 -0.05245,-0.0084 -0.07306,-0.02285 -0.123984,-0.09046 -0.123984,-0.166902 V 62.06447 c 0,-0.07908 0.05339,-0.148196 0.129945,-0.169285 0.610412,-0.166071 1.07426,-0.305406 1.460388,-0.436329 0.0185,-0.0062 0.03663,-0.0095 0.05603,-0.0095 z m 3.247427,1.841878 h 2.082693 c 0.09674,0 0.176438,0.07859 0.176438,0.175246 v 7.968357 c 0,0.09666 -0.07973,0.175246 -0.176438,0.175246 h -2.082693 c -0.09674,0 -0.175247,-0.07859 -0.175247,-0.175246 v -7.968357 c 0,-0.09665 0.07854,-0.175246 0.175247,-0.175246 z m -2.54048,2.175681 c 0.04136,0 0.08038,0.01417 0.112062,0.04054 0.0404,0.03339 0.06318,0.08287 0.06318,0.134714 v 2.220983 c 0,0.07293 -0.04465,0.137847 -0.113255,0.163325 -0.02017,0.0079 -0.04087,0.01192 -0.06199,0.01192 -0.04927,0 -0.09803,-0.02095 -0.132329,-0.05961 -0.430107,-0.485907 -1.135026,-0.879539 -2.094615,-1.169502 -0.07384,-0.02285 -0.126368,-0.09108 -0.126368,-0.169287 V 65.67435 c 0,-0.09666 0.0788,-0.175246 0.176438,-0.175246 h 1.754851 c 0.129298,0 0.26173,-0.0049 0.391026,-0.02861 0.0098,-0.0017 0.02129,-0.0036 0.031,-0.0036 z m 0.578195,12.229114 c -1.00305,4.240368 -3.651703,6.404969 -6.763089,7.735886 l -0.786822,-2.406959 -5.489869,6.04899 7.979086,2.532137 -0.466132,-2.226945 c 7.871922,-3.966524 8.693244,-7.439223 9.776853,-10.930859 z M 50.66301,77.994064 45.369847,92.152085 h 3.125827 l 1.00141,-2.855212 h 5.580471 l 0.979952,2.855212 h 3.148477 L 54.054687,77.994064 Z m 1.634443,3.340414 1.942018,5.535171 h -3.884037 z" /></svg>
