<?xml version="1.0" encoding="UTF-8" standalone="no"?>
<svg
   height="128"
   viewBox="0 0 128 128"
   width="128"
   version="1.1"
   id="svg5248"
   xml:space="preserve"
   xmlns:xlink="http://www.w3.org/1999/xlink"
   xmlns="http://www.w3.org/2000/svg"
   xmlns:svg="http://www.w3.org/2000/svg"><defs
     id="defs5252"><filter
       style="color-interpolation-filters:sRGB"
       id="filter1302"
       x="-0.012000846"
       width="1.0240017"
       y="-0.011999155"
       height="1.0239983"><feGaussianBlur
         stdDeviation="2.0803224"
         id="feGaussianBlur1304" /></filter><linearGradient
       id="bg-gradient-2"><stop
         style="stop-color:#3584e4;stop-opacity:1"
         offset="0"
         id="stop13402" /><stop
         style="stop-color:#62a0ea;stop-opacity:1"
         offset="1"
         id="stop13404" /></linearGradient><clipPath
       clipPathUnits="userSpaceOnUse"
       id="clipPath1509"><path
         id="path1511"
         d="M 192,-164 H 88 c 0,0 -40,0 -40,40 V 4 h 416 v -96 c 0,0 0,-40 -40,-40 H 224 Z"
         style="display:inline;opacity:1;vector-effect:none;fill:#c9b8a7;fill-opacity:1;stroke:none;stroke-width:26.0669;stroke-linecap:butt;stroke-linejoin:miter;stroke-miterlimit:4;stroke-dasharray:none;stroke-dashoffset:0;stroke-opacity:1;marker:none;marker-start:none;marker-mid:none;marker-end:none;paint-order:normal;enable-background:new" /></clipPath><filter
       style="color-interpolation-filters:sRGB"
       id="filter1529"
       x="-0.10846153"
       width="1.2169231"
       y="-0.13428571"
       height="1.2685714"><feGaussianBlur
         stdDeviation="18.8"
         id="feGaussianBlur1531" /></filter><linearGradient
       id="linearGradient888"><stop
         style="stop-color:#99c1f1;stop-opacity:1"
         offset="0"
         id="stop884" /><stop
         style="stop-color:#c3e5e7;stop-opacity:1"
         offset="1"
         id="stop886" /></linearGradient><linearGradient
       xlink:href="#bg-gradient-2"
       id="linearGradient5836"
       gradientUnits="userSpaceOnUse"
       x1="64"
       y1="756"
       x2="480"
       y2="756"
       gradientTransform="matrix(0.2511615,0,0,0.2511615,-4.3115135,-157.53622)" /><linearGradient
       xlink:href="#linearGradient888"
       id="linearGradient5838"
       gradientUnits="userSpaceOnUse"
       x1="152.89844"
       y1="-38.796875"
       x2="447.30859"
       y2="316"
       gradientTransform="matrix(0.2511615,0,0,0.2511615,-0.29292947,52.434794)" /><linearGradient
       xlink:href="#linearGradient2023"
       id="linearGradient2025"
       x1="2689.252"
       y1="-1106.803"
       x2="2918.0698"
       y2="-1106.803"
       gradientUnits="userSpaceOnUse"
       gradientTransform="matrix(0.45451006,0,0,0.45552152,-1210.2921,616.15659)" /><linearGradient
       id="linearGradient2023"><stop
         style="stop-color:#62a0ea;stop-opacity:1;"
         offset="0"
         id="stop2019" /><stop
         style="stop-color:#afd4ff;stop-opacity:1;"
         offset="0.05769911"
         id="stop2795" /><stop
         style="stop-color:#62a0ea;stop-opacity:1;"
         offset="0.12220427"
         id="stop2797" /><stop
         style="stop-color:#62a0ea;stop-opacity:1;"
         offset="0.87330586"
         id="stop2793" /><stop
         style="stop-color:#c0d5ea;stop-opacity:1;"
         offset="0.95599729"
         id="stop2791" /><stop
         style="stop-color:#62a0ea;stop-opacity:1;"
         offset="1"
         id="stop2021" /></linearGradient></defs><linearGradient
     id="a"
     gradientUnits="userSpaceOnUse"
     x1="11.999989"
     x2="115.99999"
     y1="64"
     y2="64"><stop
       offset="0"
       stop-color="#3d3846"
       id="stop5214" /><stop
       offset="0.05"
       stop-color="#77767b"
       id="stop5216" /><stop
       offset="0.1"
       stop-color="#5e5c64"
       id="stop5218" /><stop
       offset="0.899999"
       stop-color="#504e56"
       id="stop5220" /><stop
       offset="0.95"
       stop-color="#77767b"
       id="stop5222" /><stop
       offset="1"
       stop-color="#3d3846"
       id="stop5224" /></linearGradient><linearGradient
     id="b"
     gradientUnits="userSpaceOnUse"
     x1="12"
     x2="112.04102"
     y1="60"
     y2="80.988281"><stop
       offset="0"
       stop-color="#77767b"
       id="stop5227" /><stop
       offset="0.384443"
       stop-color="#9a9996"
       id="stop5229" /><stop
       offset="0.720567"
       stop-color="#77767b"
       id="stop5231" /><stop
       offset="1"
       stop-color="#68666f"
       id="stop5233" /></linearGradient><path
     id="path5786"
     d="m 88,-162 c 0,0 -40,0 -40,40 L 47.964844,6 h 0.0332 L 47.964844,254.0938 424,254 c 40,0 40,-40 40,-40 V 6 -42 -90 c 0,0 0,-40 -40,-40 H 224 l -32,-32 z"
     style="display:inline;opacity:0.2;fill:#000000;fill-opacity:1;stroke:none;stroke-width:26.0669;stroke-linecap:butt;stroke-linejoin:miter;stroke-miterlimit:4;stroke-dasharray:none;stroke-dashoffset:0;stroke-opacity:1;marker:none;marker-start:none;marker-mid:none;marker-end:none;paint-order:normal;filter:url(#filter1302);enable-background:new"
     transform="matrix(0.2511615,0,0,0.2511615,-0.29292947,52.434794)" /><path
     style="display:inline;fill:url(#linearGradient5836);fill-opacity:1;stroke:none;stroke-width:6.547;stroke-linecap:butt;stroke-linejoin:miter;stroke-miterlimit:4;stroke-dasharray:none;stroke-dashoffset:0;stroke-opacity:1;marker:none;marker-start:none;marker-mid:none;marker-end:none;paint-order:normal;enable-background:new"
     d="M 47.930078,11.244308 H 21.809282 c 0,0 -10.04646,0 -10.04646,10.04646 V 53.43944 H 116.24601 V 29.327936 c 0,0 0,-10.04646 -10.04646,-10.04646 H 55.967247 Z"
     id="path5788" /><path
     id="path5790"
     d="m 256,-80 -32,32 H 88 c 0,0 -40,0 -40,40 v 264 h 376 c 40,0 40,-40 40,-40 V -40 c 0,-40 -40,-40 -40,-40 z"
     style="display:inline;opacity:0.1;fill:#000000;fill-opacity:1;stroke:none;stroke-width:26.0669;stroke-linecap:butt;stroke-linejoin:miter;stroke-miterlimit:4;stroke-dasharray:none;stroke-dashoffset:0;stroke-opacity:1;marker:none;marker-start:none;marker-mid:none;marker-end:none;paint-order:normal;filter:url(#filter1529);enable-background:new"
     clip-path="url(#clipPath1509)"
     transform="matrix(0.2511615,0,0,0.2511615,-0.29292947,52.434794)" /><path
     style="display:inline;fill:url(#linearGradient5838);fill-opacity:1;stroke:none;stroke-width:6.547;stroke-linecap:butt;stroke-linejoin:miter;stroke-miterlimit:4;stroke-dasharray:none;stroke-dashoffset:0;stroke-opacity:1;marker:none;marker-start:none;marker-mid:none;marker-end:none;paint-order:normal;enable-background:new"
     d="m 64.004415,31.337228 -8.037168,8.037168 H 21.809283 c 0,0 -10.04646,0 -10.04646,10.04646 v 66.306634 h 94.436727 c 10.04646,0 10.04646,-10.04646 10.04646,-10.04646 V 41.383688 c 0,-10.04646 -10.04646,-10.04646 -10.04646,-10.04646 z"
     id="path5792" /><path
     style="font-variation-settings:normal;display:inline;fill:#99c1f1;fill-opacity:1;stroke:none;stroke-width:6.547;stroke-linecap:butt;stroke-linejoin:miter;stroke-miterlimit:4;stroke-dasharray:none;stroke-dashoffset:0;stroke-opacity:1;marker:none;marker-start:none;marker-mid:none;marker-end:none;paint-order:normal;enable-background:new;stop-color:#000000"
     d="m 116.24601,104.17406 c 0,0 0,10.04646 -10.04646,10.04646 l -94.436237,0.0236 -9.8e-4,1.50697 94.437217,-0.0236 c 10.04646,0 10.04646,-10.04646 10.04646,-10.04646 z"
     id="path5794" /><path
     style="display:inline;opacity:0.3;fill:#ffffff;fill-opacity:1;stroke:none;stroke-width:6.547;stroke-linecap:butt;stroke-linejoin:miter;stroke-miterlimit:4;stroke-dasharray:none;stroke-dashoffset:0;stroke-opacity:1;marker:none;marker-start:none;marker-mid:none;marker-end:none;paint-order:normal;enable-background:new"
     d="m 64.004414,31.337228 -8.037167,8.037168 H 21.809282 c 0,0 -10.04646,0 -10.04646,10.04646 v 1.004646 c 0,-10.04646 10.04646,-10.548783 10.04646,-10.548783 H 56.11568 l 8.037168,-8.037168 h 42.046702 c 1.35133,0 10.04646,0.502323 10.04646,10.548783 v -1.004646 c 0,-10.04646 -10.04646,-10.04646 -10.04646,-10.04646 z"
     id="path5796" /><path
     id="path967"
     style="font-style:normal;font-variant:normal;font-weight:bold;font-stretch:normal;font-size:40px;line-height:0%;font-family:FreeSans;-inkscape-font-specification:'FreeSans Bold';text-align:center;text-anchor:middle;display:inline;fill:#438de6;fill-opacity:1;stroke:none;stroke-width:0.986279"
     d="m 53.941901,50.945113 0.681913,3.257834 C 43.107853,60.005632 41.904583,65.087637 40.31936,70.195613 l 6.219179,1.098736 c 1.467372,-6.2033 5.340387,-9.36994 9.892084,-11.316951 l 1.152798,3.521178 8.031214,-8.847419 z m 23.122228,0.205806 c -0.08107,0 -0.159049,0.02567 -0.226717,0.07323 -1.783394,1.289289 -5.314211,3.027817 -8.038191,3.957183 -0.198135,0.06687 -0.304723,0.275574 -0.244159,0.476117 l 0.09241,0.298219 c 0.05019,0.160683 0.195333,0.270306 0.406355,0.270306 h 0.007 c 1.14005,-0.132401 2.345795,-0.313694 3.484553,-0.523205 0.01667,-0.0026 0.03035,-0.0033 0.04709,-0.0033 0.05923,0 0.118094,0.01901 0.165685,0.05757 0.05783,0.04886 0.09241,0.122963 0.09241,0.198836 v 2.703229 c 0,0.141406 -0.116626,0.256365 -0.258099,0.256365 h -3.643268 c -0.120962,0 -0.231885,0.05439 -0.305189,0.148242 -0.0734,0.09385 -0.09815,0.215677 -0.06977,0.33137 l 0.113391,0.458675 c 0.04376,0.172255 0.197401,0.291249 0.374966,0.291249 h 2.708462 c 0.07854,0 0.153378,0.03595 0.202303,0.09765 0.04892,0.06043 0.06687,0.142139 0.04883,0.218012 -0.777181,3.356257 -2.029954,6.371506 -3.52641,8.489892 -0.105488,0.147842 -0.09081,0.351153 0.03135,0.484839 l 0.275541,0.296485 c 0.07334,0.0797 0.17449,0.12383 0.282545,0.12383 0.09265,0 0.181661,-0.03335 0.251129,-0.09241 1.143901,-0.97307 2.16971,-2.075599 3.04855,-3.278759 0.0502,-0.06814 0.126465,-0.106387 0.207539,-0.106387 0.02568,0 0.05316,0.0031 0.08024,0.01234 0.105488,0.03472 0.177891,0.133635 0.177891,0.244158 v 6.38486 c 0,0.213376 0.171821,0.385427 0.385424,0.385427 h 0.436004 c 1.167071,0 2.258941,-0.515521 2.3335,-1.070825 v -7.65973 c 0,-0.11696 0.08077,-0.221114 0.195333,-0.249394 0.02068,-0.005 0.04222,-0.0087 0.0628,-0.0087 0.09262,0 0.181627,0.05166 0.226716,0.13777 0.326834,0.614435 0.535701,1.199838 0.605174,1.693444 0.01167,0.08355 0.05059,0.16235 0.109856,0.221481 0.357714,0.358634 0.768661,0.545877 1.189423,0.545877 0.328135,0 0.637787,-0.103291 0.896426,-0.299954 0.04496,-0.03598 0.101682,-0.05406 0.156948,-0.05406 0.03855,0 0.07738,0.01 0.113358,0.02801 0.08754,0.04372 0.143006,0.130767 0.143006,0.22845 v 5.645397 c 0,0.213377 0.174856,0.385428 0.387169,0.385428 2.339262,0 2.816594,-1.062308 2.816594,-1.346383 v -1.030738 c 0,-0.141407 0.114892,-0.256365 0.256364,-0.256365 h 3.046806 c 0.141506,0 0.258099,0.114958 0.258099,0.256365 v 1.557411 c 0,0.212109 0.171821,0.383684 0.385431,0.383684 1.625123,0 2.839266,-0.553267 2.839266,-1.048158 v -13.81958 c 0,-0.105388 0.0653,-0.201637 0.165685,-0.238923 0.362865,-0.140106 0.616235,-0.316729 0.755159,-0.52495 0.114593,-0.170953 0.07484,-0.402845 -0.09241,-0.524952 l -2.661431,-1.948522 c -0.06564,-0.04759 -0.144374,-0.07323 -0.226716,-0.07323 -0.123531,0 -0.237122,0.05753 -0.310426,0.155214 L 86.509617,55.5825 c -0.04886,0.06426 -0.126465,0.102886 -0.20754,0.102886 l -3.634533,-0.02101 -2.424189,-1.046413 c -0.04629,-0.02068 -0.09455,-0.03001 -0.144742,-0.03135 -0.113191,-0.0012 -0.210274,-0.07644 -0.242424,-0.183127 -0.03202,-0.107989 0.0087,-0.223481 0.101152,-0.287748 0.04759,-0.03101 0.09098,-0.06699 0.1308,-0.108121 0.07854,-0.07714 0.118728,-0.185496 0.113358,-0.294751 -0.0063,-0.109257 -0.05983,-0.210909 -0.144741,-0.279043 l -2.750346,-2.199228 c -0.06951,-0.05526 -0.153679,-0.08371 -0.242424,-0.08371 z M 78.414,54.220396 c 0.02168,0 0.04439,0.0024 0.06627,0.0087 0.252196,0.06556 0.48052,0.09765 0.694118,0.09765 0.137671,0 0.267538,-0.015 0.387172,-0.04182 0.01934,-0.0036 0.03826,-0.0053 0.05756,-0.0053 0.09004,0 0.175157,0.04632 0.22148,0.127332 0.05786,0.09768 0.04286,0.219913 -0.03301,0.303456 -0.06693,0.0707 -0.102886,0.163917 -0.102886,0.2616 v 3.189813 c 0,0.09895 -0.05599,0.188229 -0.144741,0.231952 -0.03598,0.01667 -0.07304,0.02602 -0.111623,0.02602 -0.05662,0 -0.114092,-0.02168 -0.160449,-0.05756 l -1.363962,-1.08127 c -0.06564,-0.05142 -0.141607,-0.08024 -0.270339,-0.08024 h -0.02602 c -0.104221,0.01667 -0.199336,0.07477 -0.259868,0.162183 l -0.892937,1.283598 c -0.04889,0.07197 -0.128699,0.111623 -0.211041,0.111623 -0.02568,0 -0.05092,-0.0031 -0.07674,-0.01233 -0.106888,-0.03342 -0.181393,-0.132334 -0.181393,-0.244158 v -3.381684 c 0,-0.115693 0.0781,-0.216811 0.190097,-0.24766 0.892985,-0.242958 1.571553,-0.446782 2.136426,-0.638314 0.02701,-0.009 0.05359,-0.01401 0.08198,-0.01401 z m 4.750713,2.694511 h 3.046805 c 0.141506,0 0.258099,0.11496 0.258099,0.256365 v 11.657036 c 0,0.141406 -0.116627,0.256365 -0.258099,0.256365 h -3.046805 c -0.14154,0 -0.256365,-0.114959 -0.256365,-0.256365 V 57.171272 c 0,-0.141405 0.114892,-0.256365 0.256365,-0.256365 z m -3.716509,3.182839 c 0.0605,0 0.117593,0.02068 0.16395,0.0593 0.05909,0.04886 0.09241,0.121229 0.09241,0.197068 v 3.249109 c 0,0.106688 -0.06533,0.20167 -0.165685,0.238922 -0.02935,0.01167 -0.0598,0.01735 -0.09068,0.01735 -0.07207,0 -0.143407,-0.03068 -0.1936,-0.08721 -0.629209,-0.710841 -1.660448,-1.286689 -3.064244,-1.71088 -0.108021,-0.03342 -0.184861,-0.133235 -0.184861,-0.247661 v -1.412657 c 0,-0.141406 0.115292,-0.256364 0.258133,-0.256364 h 2.567198 c 0.189164,0 0.382887,-0.0074 0.572037,-0.04185 0.01434,-0.0025 0.03101,-0.0053 0.04536,-0.0053 z m 0.84585,17.890165 c -1.467375,6.2033 -5.342132,9.36993 -9.893829,11.316948 l -1.151053,-3.521178 -8.031218,8.849163 11.672731,3.704302 -0.681909,-3.257833 C 83.724733,89.276625 84.926259,84.196357 86.511489,79.088389 Z M 45.063092,78.423914 37.319639,99.13591 h 4.572825 l 1.464977,-4.176935 H 51.5212 l 1.433588,4.176935 h 4.605955 L 50.02483,78.423914 Z m 2.391052,4.886746 2.841011,8.097491 h -5.68202 z" /></svg>
