<?xml version="1.0" encoding="UTF-8" standalone="no"?>
<svg
   height="128"
   viewBox="0 0 128 128"
   width="128"
   version="1.1"
   id="svg5248"
   xmlns:xlink="http://www.w3.org/1999/xlink"
   xmlns="http://www.w3.org/2000/svg"
   xmlns:svg="http://www.w3.org/2000/svg">
  <defs
     id="defs5252">
    <linearGradient
       xlink:href="#linearGradient2023"
       id="linearGradient2025"
       x1="2689.252"
       y1="-1106.803"
       x2="2918.0698"
       y2="-1106.803"
       gradientUnits="userSpaceOnUse"
       gradientTransform="matrix(0.45451006,0,0,0.45552152,-1210.2921,616.15659)" />
    <linearGradient
       id="linearGradient2023">
      <stop
         style="stop-color:#62a0ea;stop-opacity:1;"
         offset="0"
         id="stop2019" />
      <stop
         style="stop-color:#afd4ff;stop-opacity:1;"
         offset="0.05769911"
         id="stop2795" />
      <stop
         style="stop-color:#62a0ea;stop-opacity:1;"
         offset="0.12220427"
         id="stop2797" />
      <stop
         style="stop-color:#62a0ea;stop-opacity:1;"
         offset="0.87330586"
         id="stop2793" />
      <stop
         style="stop-color:#c0d5ea;stop-opacity:1;"
         offset="0.95599729"
         id="stop2791" />
      <stop
         style="stop-color:#62a0ea;stop-opacity:1;"
         offset="1"
         id="stop2021" />
    </linearGradient>
  </defs>
  <linearGradient
     id="a"
     gradientUnits="userSpaceOnUse"
     x1="11.999989"
     x2="115.99999"
     y1="64"
     y2="64">
    <stop
       offset="0"
       stop-color="#3d3846"
       id="stop5214" />
    <stop
       offset="0.05"
       stop-color="#77767b"
       id="stop5216" />
    <stop
       offset="0.1"
       stop-color="#5e5c64"
       id="stop5218" />
    <stop
       offset="0.899999"
       stop-color="#504e56"
       id="stop5220" />
    <stop
       offset="0.95"
       stop-color="#77767b"
       id="stop5222" />
    <stop
       offset="1"
       stop-color="#3d3846"
       id="stop5224" />
  </linearGradient>
  <linearGradient
     id="b"
     gradientUnits="userSpaceOnUse"
     x1="12"
     x2="112.04102"
     y1="60"
     y2="80.988281">
    <stop
       offset="0"
       stop-color="#77767b"
       id="stop5227" />
    <stop
       offset="0.384443"
       stop-color="#9a9996"
       id="stop5229" />
    <stop
       offset="0.720567"
       stop-color="#77767b"
       id="stop5231" />
    <stop
       offset="1"
       stop-color="#68666f"
       id="stop5233" />
  </linearGradient>
  <path
     id="rect1135"
     style="fill:#438de6;fill-opacity:1;stroke-width:4;stroke-linecap:round;stop-color:#000000"
     d="m 21.978484,11.984004 c -5.527661,0 -9.978496,4.460011 -9.978496,9.999972 v 86.032984 c 0,5.53996 4.450835,9.99997 9.978496,9.99997 h 84.042956 c 5.5277,0 9.97854,-4.46001 9.97854,-9.99997 V 35.928538 A 11.973368,12.000014 0 0 0 104.02659,23.928507 H 57.999997 A 6.4921144,6.5065619 0 0 1 52.201312,20.347789 L 50.697974,17.355058 A 9.7381057,9.7597768 0 0 0 41.99997,11.984004 Z" />
  <path
     id="path1953"
     style="fill:url(#linearGradient2025);fill-opacity:1;stroke-width:4;stroke-linecap:round;stop-color:#000000"
     d="m 65.978512,35.98402 c -2.746559,0 -5.227593,1.101406 -7.028817,2.889191 -2.273959,2.257064 -5.385171,5.110815 -8.632782,5.110815 H 21.978484 c -5.527661,0 -9.978496,4.460011 -9.978496,9.999973 V 108.017 c 0,5.53997 4.450835,9.99998 9.978496,9.99998 h 84.042956 c 5.5277,0 9.97854,-4.46001 9.97854,-9.99998 V 59.984037 53.983999 45.983993 c 0,-5.539961 -4.45084,-9.999973 -9.97854,-9.999973 z" />
  <path
     id="rect1586"
     style="fill:#a4caee;fill-opacity:1;stroke-width:4;stroke-linecap:round;stop-color:#000000"
     d="m 65.978512,31.983995 c -2.746559,0 -5.227593,1.101405 -7.028817,2.889191 C 56.675736,37.130249 53.564524,39.984 50.316913,39.984 H 21.978484 c -5.527661,0 -9.978496,4.460012 -9.978496,9.999973 v 55.977537 c 0,5.53996 4.450835,9.99997 9.978496,9.99997 h 84.042956 c 5.5277,0 9.97854,-4.46001 9.97854,-9.99997 V 55.984012 49.983973 41.983968 c 0,-5.539962 -4.45084,-9.999973 -9.97854,-9.999973 z" />
  <g
     id="g26"
     transform="matrix(0.30174407,0,0,0.30174407,53.12883,47.566922)"
     style="fill:#438de6;fill-opacity:1">
    <path
       id="path23"
       style="fill:#438de6;fill-opacity:1;stroke-width:0.264583"
       d="m 38.879683,41.151315 c -2.15617,0.08481 -4.15828,1.308194 -5.64427,2.873918 -7.02434,6.342689 -14.0943,12.629518 -21.088343,19.0041 -2.3733373,2.46936 -1.953337,6.1556 -2.6344243,9.26256 -0.381862,2.61803 -0.760008,5.23595 -1.158629,7.85149 -0.13824,0.90706 0.384491,2.02836 1.152156,2.53086 6.9585803,4.55499 12.9206903,10.98431 15.7353403,18.874637 0.30825,0.8641 1.24775,1.42149 2.14897,1.24925 2.44303,-0.46692 4.90912,-0.81545 7.39192,-0.9515 0.91608,-0.0502 1.41267,-0.75945 1.12627,-1.63114 -3.18632,-9.697927 -4.59206,-20.402857 -1.07449,-30.202017 1.97094,-6.23348 6.47621,-11.496454 7.52138,-18.039658 0.50039,-3.075121 -0.25789,-6.228698 -1.25572,-9.100738 -0.30114,-0.866746 -1.30626,-1.75771 -2.22016,-1.721762 z m 9.68328,7.955055 c -0.17852,0.012 -0.2808,0.252261 -0.27185,0.705534 0.11995,6.0757 -2.90031,11.665059 -5.70253,16.900449 -3.21982,5.94155 -4.91404,12.78409 -3.98076,19.54134 0.55788,5.00391 1.94762,9.87328 3.68301,14.589657 0.27838,0.75658 1.16418,1.45442 1.95479,1.61172 8.22809,1.63709 15.23905,7.25591 19.80672,14.17541 1.21509,1.44698 2.25899,3.88891 3.26876,5.44361 0.4375,0.67359 1.27998,0.57732 1.72176,-0.0971 2.44643,-3.73455 4.88456,-7.48099 7.12654,-11.34032 0.40472,-0.69667 0.96617,-1.8997 0.91266,-2.69915 -0.16652,-2.48792 -2.8457,-4.36487 -3.91603,-6.56988 -3.85794,-5.649217 -7.23344,-11.879977 -7.88386,-18.809917 -0.71748,-4.18061 -0.4682,-8.45374 -0.94502,-12.64135 -0.91765,-2.96609 -3.36047,-5.07514 -5.11351,-7.56022 -3.37282,-4.284822 -6.74413,-8.563652 -10.11696,-12.84848 -0.21816,-0.277155 -0.40486,-0.410647 -0.54372,-0.401313 z M 6.9170577,88.247313 c -0.402689,0.01759 -0.771858,0.26689 -0.964445,0.70553 -3.486182,7.94023 -7.162514,15.801907 -10.641261,23.742177 -0.957235,2.79723 0.181246,5.92285 2.381985,7.79324 5.460729,5.62396 10.921894,11.24412 16.3826263,16.86808 0.53395,0.54992 1.23698,0.43622 1.55994,-0.25891 3.92961,-8.45779 6.82572,-17.77855 5.67663,-27.17923 -0.84385,-7.47113 -4.92376,-14.332057 -10.673623,-19.094717 -0.9597293,-0.82792 -1.9612353,-1.61061 -2.9904273,-2.34962 -0.233466,-0.16764 -0.489811,-0.23711 -0.731425,-0.22655 z M 36.536533,107.6333 c -2.69255,0.0528 -5.37536,0.38883 -8.01979,0.89325 -0.83106,0.15852 -1.40926,0.98271 -1.33339,1.82532 0.90617,10.06479 -2.03642,20.06611 -6.24624,29.14696 -0.35584,0.76759 0.03031,1.44852 0.87383,1.51464 5.7982,0.4545 11.66327,0.57219 17.29528,2.16191 4.67907,1.14798 9.21714,2.81756 13.89708,3.9484 4.7058,0.70426 9.02347,-3.51826 9.28845,-8.09746 0.40746,-2.75893 1.03712,-5.49275 1.96772,-8.12335 0.28215,-0.79756 -0.053,-1.84644 -0.4272,-2.58911 -0.48716,-0.96691 -0.85523,-2.27455 -1.43049,-3.11341 -3.44386,-6.78405 -8.54185,-13.32294 -15.90363,-16.0331 -3.17286,-1.18742 -6.58941,-1.59245 -9.96162,-1.53405 z" />
  </g>
</svg>
