<?xml version="1.0" encoding="UTF-8" standalone="no"?>
<svg
   height="128"
   viewBox="0 0 128 128"
   width="128"
   version="1.1"
   id="svg5248"
   xmlns:xlink="http://www.w3.org/1999/xlink"
   xmlns="http://www.w3.org/2000/svg"
   xmlns:svg="http://www.w3.org/2000/svg">
  <defs
     id="defs5252">
    <linearGradient
       xlink:href="#linearGradient2023"
       id="linearGradient2025"
       x1="2689.252"
       y1="-1106.803"
       x2="2918.0698"
       y2="-1106.803"
       gradientUnits="userSpaceOnUse"
       gradientTransform="matrix(0.45451006,0,0,0.45552152,-1210.2921,616.15659)" />
    <linearGradient
       id="linearGradient2023">
      <stop
         style="stop-color:#62a0ea;stop-opacity:1;"
         offset="0"
         id="stop2019" />
      <stop
         style="stop-color:#afd4ff;stop-opacity:1;"
         offset="0.05769911"
         id="stop2795" />
      <stop
         style="stop-color:#62a0ea;stop-opacity:1;"
         offset="0.12220427"
         id="stop2797" />
      <stop
         style="stop-color:#62a0ea;stop-opacity:1;"
         offset="0.87330586"
         id="stop2793" />
      <stop
         style="stop-color:#c0d5ea;stop-opacity:1;"
         offset="0.95599729"
         id="stop2791" />
      <stop
         style="stop-color:#62a0ea;stop-opacity:1;"
         offset="1"
         id="stop2021" />
    </linearGradient>
  </defs>
  <linearGradient
     id="a"
     gradientUnits="userSpaceOnUse"
     x1="11.999989"
     x2="115.99999"
     y1="64"
     y2="64">
    <stop
       offset="0"
       stop-color="#3d3846"
       id="stop5214" />
    <stop
       offset="0.05"
       stop-color="#77767b"
       id="stop5216" />
    <stop
       offset="0.1"
       stop-color="#5e5c64"
       id="stop5218" />
    <stop
       offset="0.899999"
       stop-color="#504e56"
       id="stop5220" />
    <stop
       offset="0.95"
       stop-color="#77767b"
       id="stop5222" />
    <stop
       offset="1"
       stop-color="#3d3846"
       id="stop5224" />
  </linearGradient>
  <linearGradient
     id="b"
     gradientUnits="userSpaceOnUse"
     x1="12"
     x2="112.04102"
     y1="60"
     y2="80.988281">
    <stop
       offset="0"
       stop-color="#77767b"
       id="stop5227" />
    <stop
       offset="0.384443"
       stop-color="#9a9996"
       id="stop5229" />
    <stop
       offset="0.720567"
       stop-color="#77767b"
       id="stop5231" />
    <stop
       offset="1"
       stop-color="#68666f"
       id="stop5233" />
  </linearGradient>
  <path
     id="rect1135"
     style="fill:#438de6;fill-opacity:1;stroke-width:4;stroke-linecap:round;stop-color:#000000"
     d="m 21.978484,11.984004 c -5.527661,0 -9.978496,4.460011 -9.978496,9.999972 v 86.032984 c 0,5.53996 4.450835,9.99997 9.978496,9.99997 h 84.042956 c 5.5277,0 9.97854,-4.46001 9.97854,-9.99997 V 35.928538 A 11.973368,12.000014 0 0 0 104.02659,23.928507 H 57.999997 A 6.4921144,6.5065619 0 0 1 52.201312,20.347789 L 50.697974,17.355058 A 9.7381057,9.7597768 0 0 0 41.99997,11.984004 Z" />
  <path
     id="path1953"
     style="fill:url(#linearGradient2025);fill-opacity:1;stroke-width:4;stroke-linecap:round;stop-color:#000000"
     d="m 65.978512,35.98402 c -2.746559,0 -5.227593,1.101406 -7.028817,2.889191 -2.273959,2.257064 -5.385171,5.110815 -8.632782,5.110815 H 21.978484 c -5.527661,0 -9.978496,4.460011 -9.978496,9.999973 V 108.017 c 0,5.53997 4.450835,9.99998 9.978496,9.99998 h 84.042956 c 5.5277,0 9.97854,-4.46001 9.97854,-9.99998 V 59.984037 53.983999 45.983993 c 0,-5.539961 -4.45084,-9.999973 -9.97854,-9.999973 z" />
  <path
     id="rect1586"
     style="fill:#a4caee;fill-opacity:1;stroke-width:4;stroke-linecap:round;stop-color:#000000"
     d="m 65.978512,31.983995 c -2.746559,0 -5.227593,1.101405 -7.028817,2.889191 C 56.675736,37.130249 53.564524,39.984 50.316913,39.984 H 21.978484 c -5.527661,0 -9.978496,4.460012 -9.978496,9.999973 v 55.977537 c 0,5.53996 4.450835,9.99997 9.978496,9.99997 h 84.042956 c 5.5277,0 9.97854,-4.46001 9.97854,-9.99997 V 55.984012 49.983973 41.983968 c 0,-5.539962 -4.45084,-9.999973 -9.97854,-9.999973 z" />
  <path
     id="path3552-6-3-7"
     style="display:inline;fill:#438de6;fill-opacity:1;fill-rule:nonzero;stroke:none;stroke-width:0.283324;enable-background:new"
     d="m 78.774124,63.371058 c 0,1.870634 -1.52094,3.387066 -3.39712,3.387066 -1.87616,0 -3.3971,-1.516432 -3.3971,-3.387066 0,-1.870634 1.52094,-3.38709 3.3971,-3.38709 1.87618,0 3.39712,1.516456 3.39712,3.38709 z m -0.478,10.331256 v 15.340544 c -2e-5,0.80212 0.0222,1.32572 0.0668,1.57081 0.0892,0.50133 0.32306,0.95809 0.70184,1.3703 h -7.35276 c 0.37878,-0.41221 0.61274,-0.86897 0.70186,-1.3703 0.0446,-0.24509 0.0668,-0.76869 0.0668,-1.57081 v -12.43286 c 0,-0.802104 -0.0224,-1.32014 -0.0668,-1.55411 -0.0892,-0.490166 -0.3175,-0.941358 -0.68514,-1.353574 h 6.56736 m -22.44266,2.773996 4.79602,-6.066032 c 0.98034,-1.236578 1.47054,-2.161242 1.47054,-2.773998 0,-0.222786 -0.0278,-0.401034 -0.0836,-0.534746 h 8.37214 c -0.63504,0.356522 -1.43158,1.10851 -2.38966,2.255962 -0.25624,0.30082 -0.70744,0.852274 -1.35356,1.654372 l -6.28328,7.82067 7.50316,10.32729 c 0.45674,0.62387 1.03604,1.32573 1.73792,2.10557 0.1894,0.20054 0.46232,0.44006 0.81884,0.71857 h -8.58936 c 0.0668,-0.25624 0.1002,-0.48463 0.1002,-0.68516 -2e-5,-0.61272 -0.42336,-1.4984 -1.27004,-2.65701 l -4.82942,-6.58407 v 6.66762 c -2e-5,1.54854 0.31192,2.63474 0.9358,3.25862 h -7.85392 c 0.43446,-0.43448 0.71298,-0.93024 0.83554,-1.48727 0.0668,-0.31194 0.1002,-0.89681 0.1002,-1.75464 V 70.343436 c -2e-5,-0.857802 -0.0334,-1.44268 -0.1002,-1.754638 -0.12254,-0.557004 -0.40108,-1.052758 -0.83554,-1.487264 h 7.85408 c -0.62388,0.623896 -0.93582,1.70453 -0.9358,3.241902 v 6.132874" />
</svg>
