<?xml version="1.0" encoding="UTF-8" standalone="no"?>
<svg
   height="128"
   viewBox="0 0 128 128"
   width="128"
   version="1.1"
   id="svg5248"
   xml:space="preserve"
   xmlns:xlink="http://www.w3.org/1999/xlink"
   xmlns="http://www.w3.org/2000/svg"
   xmlns:svg="http://www.w3.org/2000/svg"><defs
     id="defs5252"><linearGradient
       xlink:href="#linearGradient2023"
       id="linearGradient2025"
       x1="2689.252"
       y1="-1106.803"
       x2="2918.0698"
       y2="-1106.803"
       gradientUnits="userSpaceOnUse" /><linearGradient
       id="linearGradient2023"><stop
         style="stop-color:#62a0ea;stop-opacity:1;"
         offset="0"
         id="stop2019" /><stop
         style="stop-color:#afd4ff;stop-opacity:1;"
         offset="0.05769911"
         id="stop2795" /><stop
         style="stop-color:#62a0ea;stop-opacity:1;"
         offset="0.12220427"
         id="stop2797" /><stop
         style="stop-color:#62a0ea;stop-opacity:1;"
         offset="0.87330586"
         id="stop2793" /><stop
         style="stop-color:#c0d5ea;stop-opacity:1;"
         offset="0.95599729"
         id="stop2791" /><stop
         style="stop-color:#62a0ea;stop-opacity:1;"
         offset="1"
         id="stop2021" /></linearGradient></defs><linearGradient
     id="a"
     gradientUnits="userSpaceOnUse"
     x1="11.999989"
     x2="115.99999"
     y1="64"
     y2="64"><stop
       offset="0"
       stop-color="#3d3846"
       id="stop5214" /><stop
       offset="0.05"
       stop-color="#77767b"
       id="stop5216" /><stop
       offset="0.1"
       stop-color="#5e5c64"
       id="stop5218" /><stop
       offset="0.899999"
       stop-color="#504e56"
       id="stop5220" /><stop
       offset="0.95"
       stop-color="#77767b"
       id="stop5222" /><stop
       offset="1"
       stop-color="#3d3846"
       id="stop5224" /></linearGradient><linearGradient
     id="b"
     gradientUnits="userSpaceOnUse"
     x1="12"
     x2="112.04102"
     y1="60"
     y2="80.988281"><stop
       offset="0"
       stop-color="#77767b"
       id="stop5227" /><stop
       offset="0.384443"
       stop-color="#9a9996"
       id="stop5229" /><stop
       offset="0.720567"
       stop-color="#77767b"
       id="stop5231" /><stop
       offset="1"
       stop-color="#68666f"
       id="stop5233" /></linearGradient><g
     id="g760"
     style="display:inline;stroke-width:1.26428;enable-background:new"
     transform="matrix(0.45451006,0,0,0.45552152,-1210.2921,616.15659)"><path
       id="rect1135"
       style="fill:#438de6;fill-opacity:1;stroke-width:8.79091;stroke-linecap:round;stop-color:#000000"
       d="m 2711.2064,-1326.3316 c -12.1618,0 -21.9544,9.791 -21.9544,21.9528 v 188.867 c 0,12.1618 9.7926,21.9528 21.9544,21.9528 h 184.9089 c 12.1619,0 21.9545,-9.791 21.9545,-21.9528 v -158.2547 a 26.343462,26.343462 45 0 0 -26.3435,-26.3435 h -101.2664 a 14.283764,14.283764 31.638659 0 1 -12.7581,-7.8607 l -3.3076,-6.5699 a 21.425501,21.425501 31.638659 0 0 -19.1371,-11.791 z" /><path
       id="path1953"
       style="fill:url(#linearGradient2025);fill-opacity:1;stroke-width:8.79091;stroke-linecap:round;stop-color:#000000"
       d="m 2808.014,-1273.6447 c -6.0429,0 -11.5016,2.4179 -15.4646,6.3426 -5.0031,4.9549 -11.8483,11.2197 -18.9936,11.2197 h -62.3494 c -12.1618,0 -21.9544,9.791 -21.9544,21.9528 v 118.6179 c 0,12.1618 9.7926,21.9528 21.9544,21.9528 h 184.9089 c 12.1619,0 21.9545,-9.791 21.9545,-21.9528 v -105.4461 -13.1718 -17.5623 c 0,-12.1618 -9.7926,-21.9528 -21.9545,-21.9528 z" /><path
       id="rect1586"
       style="fill:#a4caee;fill-opacity:1;stroke-width:8.79091;stroke-linecap:round;stop-color:#000000"
       d="m 2808.014,-1282.4259 c -6.0429,0 -11.5016,2.4179 -15.4646,6.3426 -5.0031,4.9549 -11.8483,11.2197 -18.9936,11.2197 h -62.3494 c -12.1618,0 -21.9544,9.791 -21.9544,21.9528 v 122.8867 c 0,12.1618 9.7926,21.9528 21.9544,21.9528 h 184.9089 c 12.1619,0 21.9545,-9.791 21.9545,-21.9528 v -109.7149 -13.1718 -17.5623 c 0,-12.1618 -9.7926,-21.9528 -21.9545,-21.9528 z" /></g><path
     d="m 46.799767,91.583437 c -0.36645,-0.55927 -2.12292,-4.50785 -2.40371,-5.40357 -0.14369,-0.4584 -0.18576,-1.04298 -0.11095,-1.54186 0.11452,-0.76365 0.16133,-0.81744 0.94333,-1.08389 1.29935,-0.44274 1.55976,-0.38527 1.75036,0.3863 l 0.16469,0.66666 1.42222,0.056 c 0.78222,0.0308 1.84618,0.005 2.36436,-0.0583 l 0.94214,-0.11436 -0.10711,-0.83055 c -0.0589,-0.45681 -0.14991,-1.13056 -0.20221,-1.49722 l -0.0951,-0.66667 h 3.57118 c 3.28458,0 3.57076,-0.025 3.566,-0.31111 -0.003,-0.17111 -0.0817,-1.35111 -0.17523,-2.62222 -0.0935,-1.27111 -0.17533,-3.95689 -0.18181,-5.96839 -0.0109,-3.39671 -0.0365,-3.6784 -0.35811,-3.95381 -0.25577,-0.219 -0.34634,-0.52427 -0.34634,-1.16739 0,-0.8545 0.0117,-0.87303 0.62223,-0.98757 l 0.62222,-0.11673 v -2.0259 c 0,-1.15883 -0.0761,-2.07292 -0.17778,-2.13577 -0.0978,-0.0604 -0.17778,-0.58515 -0.17778,-1.16605 v -1.05617 h 2.4 2.4 v 1.03111 c 0,0.56711 -0.0709,1.10711 -0.15746,1.2 -0.19996,0.21447 -0.45166,3.81333 -0.2667,3.81333 0.0757,0 2.24903,-0.2059 4.82959,-0.45757 2.58056,-0.25167 4.80502,-0.41418 4.94325,-0.36114 0.36322,0.13938 0.34989,1.9873 -0.0153,2.12745 -0.20877,0.0801 -0.26716,0.44127 -0.26892,1.66346 -0.003,1.74874 -0.47133,7.63174 -0.6284,7.8859 -0.18672,0.30211 0.48204,0.16922 2.8312,-0.56258 1.28303,-0.39969 2.89279,-0.88465 3.57723,-1.0777 0.68445,-0.19304 2.15458,-0.62602 3.26697,-0.96218 1.11239,-0.33615 2.08372,-0.61119 2.15851,-0.61119 0.30188,0 0.33015,0.91953 0.0797,2.59186 -0.48913,3.26572 -1.29193,5.58255 -2.62736,7.58237 -1.0413,1.55936 -3.60275,4.17756 -6.16229,6.29881 l -2.21784,1.83807 h -12.75584 -12.75584 z m 17.55854,-8.84945 c 1.95037,-0.48627 2.34891,-0.65942 2.56958,-1.11641 0.10312,-0.21355 0.30583,-2.30828 0.45045,-4.65494 0.24428,-3.96374 0.2417,-4.30453 -0.0364,-4.8 -0.4645,-0.82745 -1.32414,-1.18469 -2.68828,-1.11719 -1.24426,0.0616 -1.94943,0.4206 -2.29798,1.17 -0.12118,0.26055 -0.18993,2.30366 -0.18993,5.64444 0,6.05814 -0.2578,5.48505 2.1926,4.8741 z m 15.84122,-4.54789 c 0.0642,-0.25598 0.0686,-0.51366 0.01,-0.57262 -0.14416,-0.14417 -0.43731,0.33938 -0.44071,0.72694 -0.004,0.47778 0.29977,0.36899 0.43111,-0.15432 z"
     style="fill:#438de6;fill-opacity:1;stroke-width:0.177778"
     id="path1-9" /></svg>
