<?xml version="1.0" encoding="UTF-8" standalone="no"?>
<svg
   height="128"
   viewBox="0 0 128 128"
   width="128"
   version="1.1"
   id="svg5248"
   xmlns:xlink="http://www.w3.org/1999/xlink"
   xmlns="http://www.w3.org/2000/svg"
   xmlns:svg="http://www.w3.org/2000/svg">
  <defs
     id="defs5252">
    <linearGradient
       xlink:href="#linearGradient2023"
       id="linearGradient2025"
       x1="2689.252"
       y1="-1106.803"
       x2="2918.0698"
       y2="-1106.803"
       gradientUnits="userSpaceOnUse" />
    <linearGradient
       id="linearGradient2023">
      <stop
         style="stop-color:#62a0ea;stop-opacity:1;"
         offset="0"
         id="stop2019" />
      <stop
         style="stop-color:#afd4ff;stop-opacity:1;"
         offset="0.05769911"
         id="stop2795" />
      <stop
         style="stop-color:#62a0ea;stop-opacity:1;"
         offset="0.12220427"
         id="stop2797" />
      <stop
         style="stop-color:#62a0ea;stop-opacity:1;"
         offset="0.87330586"
         id="stop2793" />
      <stop
         style="stop-color:#c0d5ea;stop-opacity:1;"
         offset="0.95599729"
         id="stop2791" />
      <stop
         style="stop-color:#62a0ea;stop-opacity:1;"
         offset="1"
         id="stop2021" />
    </linearGradient>
  </defs>
  <linearGradient
     id="a"
     gradientUnits="userSpaceOnUse"
     x1="11.999989"
     x2="115.99999"
     y1="64"
     y2="64">
    <stop
       offset="0"
       stop-color="#3d3846"
       id="stop5214" />
    <stop
       offset="0.05"
       stop-color="#77767b"
       id="stop5216" />
    <stop
       offset="0.1"
       stop-color="#5e5c64"
       id="stop5218" />
    <stop
       offset="0.899999"
       stop-color="#504e56"
       id="stop5220" />
    <stop
       offset="0.95"
       stop-color="#77767b"
       id="stop5222" />
    <stop
       offset="1"
       stop-color="#3d3846"
       id="stop5224" />
  </linearGradient>
  <linearGradient
     id="b"
     gradientUnits="userSpaceOnUse"
     x1="12"
     x2="112.04102"
     y1="60"
     y2="80.988281">
    <stop
       offset="0"
       stop-color="#77767b"
       id="stop5227" />
    <stop
       offset="0.384443"
       stop-color="#9a9996"
       id="stop5229" />
    <stop
       offset="0.720567"
       stop-color="#77767b"
       id="stop5231" />
    <stop
       offset="1"
       stop-color="#68666f"
       id="stop5233" />
  </linearGradient>
  <g
     id="g760"
     style="display:inline;stroke-width:1.26428;enable-background:new"
     transform="matrix(0.45451006,0,0,0.45552152,-1210.2921,616.15659)">
    <path
       id="rect1135"
       style="fill:#438de6;fill-opacity:1;stroke-width:8.79091;stroke-linecap:round;stop-color:#000000"
       d="m 2711.2064,-1326.3316 c -12.1618,0 -21.9544,9.791 -21.9544,21.9528 v 188.867 c 0,12.1618 9.7926,21.9528 21.9544,21.9528 h 184.9089 c 12.1619,0 21.9545,-9.791 21.9545,-21.9528 v -158.2547 a 26.343462,26.343462 45 0 0 -26.3435,-26.3435 h -101.2664 a 14.283764,14.283764 31.638659 0 1 -12.7581,-7.8607 l -3.3076,-6.5699 a 21.425501,21.425501 31.638659 0 0 -19.1371,-11.791 z" />
    <path
       id="path1953"
       style="fill:url(#linearGradient2025);fill-opacity:1;stroke-width:8.79091;stroke-linecap:round;stop-color:#000000"
       d="m 2808.014,-1273.6447 c -6.0429,0 -11.5016,2.4179 -15.4646,6.3426 -5.0031,4.9549 -11.8483,11.2197 -18.9936,11.2197 h -62.3494 c -12.1618,0 -21.9544,9.791 -21.9544,21.9528 v 118.6179 c 0,12.1618 9.7926,21.9528 21.9544,21.9528 h 184.9089 c 12.1619,0 21.9545,-9.791 21.9545,-21.9528 v -105.4461 -13.1718 -17.5623 c 0,-12.1618 -9.7926,-21.9528 -21.9545,-21.9528 z" />
    <path
       id="rect1586"
       style="fill:#a4caee;fill-opacity:1;stroke-width:8.79091;stroke-linecap:round;stop-color:#000000"
       d="m 2808.014,-1282.4259 c -6.0429,0 -11.5016,2.4179 -15.4646,6.3426 -5.0031,4.9549 -11.8483,11.2197 -18.9936,11.2197 h -62.3494 c -12.1618,0 -21.9544,9.791 -21.9544,21.9528 v 122.8867 c 0,12.1618 9.7926,21.9528 21.9544,21.9528 h 184.9089 c 12.1619,0 21.9545,-9.791 21.9545,-21.9528 v -109.7149 -13.1718 -17.5623 c 0,-12.1618 -9.7926,-21.9528 -21.9545,-21.9528 z" />
  </g>
  <path
     d="m 64,59.984867 c -8.82213,0 -16,7.171406 -16,16.004174 0,8.82442 7.17787,15.995826 16,15.995826 8.82211,0 16,-7.171406 16,-15.995826 0,-8.832768 -7.17789,-16.004174 -16,-16.004174 z m 0,4.216019 c 6.51852,0 11.77674,5.267936 11.77674,11.788155 0,6.511869 -5.25822,11.779806 -11.77674,11.779806 -6.51852,0 -11.77674,-5.267937 -11.77674,-11.779806 0,-6.520219 5.25822,-11.788155 11.77674,-11.788155 z m 6.42671,4.291155 c -0.0667,0 -0.14188,0 -0.217,0.01667 -0.20876,0.05009 -0.3923,0.166982 -0.53417,0.333942 L 64,74.519671 60.46114,70.979885 c -0.23371,-0.384028 -0.66771,-0.576043 -1.10173,-0.500907 -0.44236,0.08348 -0.77622,0.425775 -0.85967,0.859902 -0.0836,0.434122 0.11687,0.876598 0.49243,1.110357 l 4.27335,4.274458 c 0.40896,0.384032 1.05998,0.384032 1.46897,0 l 6.41001,-6.411687 c 0.29213,-0.300548 0.38391,-0.751371 0.23369,-1.143754 -0.15854,-0.39238 -0.52582,-0.659534 -0.95148,-0.676232 z m 0,0"
     fill="#2e3436"
     id="path1-0"
     style="fill:#438de6;fill-opacity:1;stroke-width:2.13695" />
</svg>
