<?xml version="1.0" encoding="UTF-8" standalone="no"?>
<svg
   height="128"
   viewBox="0 0 128 128"
   width="128"
   version="1.1"
   id="svg5248"
   xmlns:xlink="http://www.w3.org/1999/xlink"
   xmlns="http://www.w3.org/2000/svg"
   xmlns:svg="http://www.w3.org/2000/svg">
  <defs
     id="defs5252">
    <filter
       style="color-interpolation-filters:sRGB"
       id="filter1302"
       x="-0.012000846"
       width="1.0240017"
       y="-0.011999155"
       height="1.0239983">
      <feGaussianBlur
         stdDeviation="2.0803224"
         id="feGaussianBlur1304" />
    </filter>
    <linearGradient
       id="bg-gradient-2">
      <stop
         style="stop-color:#3584e4;stop-opacity:1"
         offset="0"
         id="stop13402" />
      <stop
         style="stop-color:#62a0ea;stop-opacity:1"
         offset="1"
         id="stop13404" />
    </linearGradient>
    <clipPath
       clipPathUnits="userSpaceOnUse"
       id="clipPath1509">
      <path
         id="path1511"
         d="M 192,-164 H 88 c 0,0 -40,0 -40,40 V 4 h 416 v -96 c 0,0 0,-40 -40,-40 H 224 Z"
         style="display:inline;opacity:1;vector-effect:none;fill:#c9b8a7;fill-opacity:1;stroke:none;stroke-width:26.0669;stroke-linecap:butt;stroke-linejoin:miter;stroke-miterlimit:4;stroke-dasharray:none;stroke-dashoffset:0;stroke-opacity:1;marker:none;marker-start:none;marker-mid:none;marker-end:none;paint-order:normal;enable-background:new" />
    </clipPath>
    <filter
       style="color-interpolation-filters:sRGB"
       id="filter1529"
       x="-0.10846153"
       width="1.2169231"
       y="-0.13428571"
       height="1.2685714">
      <feGaussianBlur
         stdDeviation="18.8"
         id="feGaussianBlur1531" />
    </filter>
    <linearGradient
       id="linearGradient888">
      <stop
         style="stop-color:#99c1f1;stop-opacity:1"
         offset="0"
         id="stop884" />
      <stop
         style="stop-color:#c3e5e7;stop-opacity:1"
         offset="1"
         id="stop886" />
    </linearGradient>
    <linearGradient
       xlink:href="#bg-gradient-2"
       id="linearGradient5836"
       gradientUnits="userSpaceOnUse"
       x1="64"
       y1="756"
       x2="480"
       y2="756"
       gradientTransform="matrix(0.2511615,0,0,0.2511615,-4.3115135,-157.53622)" />
    <linearGradient
       xlink:href="#linearGradient888"
       id="linearGradient5838"
       gradientUnits="userSpaceOnUse"
       x1="152.89844"
       y1="-38.796875"
       x2="447.30859"
       y2="316"
       gradientTransform="matrix(0.2511615,0,0,0.2511615,-0.29292947,52.434794)" />
  </defs>
  <linearGradient
     id="a"
     gradientUnits="userSpaceOnUse"
     x1="11.999989"
     x2="115.99999"
     y1="64"
     y2="64">
    <stop
       offset="0"
       stop-color="#3d3846"
       id="stop5214" />
    <stop
       offset="0.05"
       stop-color="#77767b"
       id="stop5216" />
    <stop
       offset="0.1"
       stop-color="#5e5c64"
       id="stop5218" />
    <stop
       offset="0.899999"
       stop-color="#504e56"
       id="stop5220" />
    <stop
       offset="0.95"
       stop-color="#77767b"
       id="stop5222" />
    <stop
       offset="1"
       stop-color="#3d3846"
       id="stop5224" />
  </linearGradient>
  <linearGradient
     id="b"
     gradientUnits="userSpaceOnUse"
     x1="12"
     x2="112.04102"
     y1="60"
     y2="80.988281">
    <stop
       offset="0"
       stop-color="#77767b"
       id="stop5227" />
    <stop
       offset="0.384443"
       stop-color="#9a9996"
       id="stop5229" />
    <stop
       offset="0.720567"
       stop-color="#77767b"
       id="stop5231" />
    <stop
       offset="1"
       stop-color="#68666f"
       id="stop5233" />
  </linearGradient>
  <path
     id="path5786"
     d="m 88,-162 c 0,0 -40,0 -40,40 L 47.964844,6 h 0.0332 L 47.964844,254.0938 424,254 c 40,0 40,-40 40,-40 V 6 -42 -90 c 0,0 0,-40 -40,-40 H 224 l -32,-32 z"
     style="display:inline;opacity:0.2;fill:#000000;fill-opacity:1;stroke:none;stroke-width:26.0669;stroke-linecap:butt;stroke-linejoin:miter;stroke-miterlimit:4;stroke-dasharray:none;stroke-dashoffset:0;stroke-opacity:1;marker:none;marker-start:none;marker-mid:none;marker-end:none;paint-order:normal;filter:url(#filter1302);enable-background:new"
     transform="matrix(0.2511615,0,0,0.2511615,-0.29292947,52.434794)" />
  <path
     style="display:inline;fill:url(#linearGradient5836);fill-opacity:1;stroke:none;stroke-width:6.547;stroke-linecap:butt;stroke-linejoin:miter;stroke-miterlimit:4;stroke-dasharray:none;stroke-dashoffset:0;stroke-opacity:1;marker:none;marker-start:none;marker-mid:none;marker-end:none;paint-order:normal;enable-background:new"
     d="M 47.930078,11.244308 H 21.809282 c 0,0 -10.04646,0 -10.04646,10.04646 V 53.43944 H 116.24601 V 29.327936 c 0,0 0,-10.04646 -10.04646,-10.04646 H 55.967247 Z"
     id="path5788" />
  <path
     id="path5790"
     d="m 256,-80 -32,32 H 88 c 0,0 -40,0 -40,40 v 264 h 376 c 40,0 40,-40 40,-40 V -40 c 0,-40 -40,-40 -40,-40 z"
     style="display:inline;opacity:0.1;fill:#000000;fill-opacity:1;stroke:none;stroke-width:26.0669;stroke-linecap:butt;stroke-linejoin:miter;stroke-miterlimit:4;stroke-dasharray:none;stroke-dashoffset:0;stroke-opacity:1;marker:none;marker-start:none;marker-mid:none;marker-end:none;paint-order:normal;filter:url(#filter1529);enable-background:new"
     clip-path="url(#clipPath1509)"
     transform="matrix(0.2511615,0,0,0.2511615,-0.29292947,52.434794)" />
  <path
     style="display:inline;fill:url(#linearGradient5838);fill-opacity:1;stroke:none;stroke-width:6.547;stroke-linecap:butt;stroke-linejoin:miter;stroke-miterlimit:4;stroke-dasharray:none;stroke-dashoffset:0;stroke-opacity:1;marker:none;marker-start:none;marker-mid:none;marker-end:none;paint-order:normal;enable-background:new"
     d="m 64.004415,31.337228 -8.037168,8.037168 H 21.809283 c 0,0 -10.04646,0 -10.04646,10.04646 v 66.306634 h 94.436727 c 10.04646,0 10.04646,-10.04646 10.04646,-10.04646 V 41.383688 c 0,-10.04646 -10.04646,-10.04646 -10.04646,-10.04646 z"
     id="path5792" />
  <path
     style="font-variation-settings:normal;display:inline;fill:#99c1f1;fill-opacity:1;stroke:none;stroke-width:6.547;stroke-linecap:butt;stroke-linejoin:miter;stroke-miterlimit:4;stroke-dasharray:none;stroke-dashoffset:0;stroke-opacity:1;marker:none;marker-start:none;marker-mid:none;marker-end:none;paint-order:normal;enable-background:new;stop-color:#000000"
     d="m 116.24601,104.17406 c 0,0 0,10.04646 -10.04646,10.04646 l -94.436237,0.0236 -9.8e-4,1.50697 94.437217,-0.0236 c 10.04646,0 10.04646,-10.04646 10.04646,-10.04646 z"
     id="path5794" />
  <path
     style="display:inline;opacity:0.3;fill:#ffffff;fill-opacity:1;stroke:none;stroke-width:6.547;stroke-linecap:butt;stroke-linejoin:miter;stroke-miterlimit:4;stroke-dasharray:none;stroke-dashoffset:0;stroke-opacity:1;marker:none;marker-start:none;marker-mid:none;marker-end:none;paint-order:normal;enable-background:new"
     d="m 64.004414,31.337228 -8.037167,8.037168 H 21.809282 c 0,0 -10.04646,0 -10.04646,10.04646 v 1.004646 c 0,-10.04646 10.04646,-10.548783 10.04646,-10.548783 H 56.11568 l 8.037168,-8.037168 h 42.046702 c 1.35133,0 10.04646,0.502323 10.04646,10.548783 v -1.004646 c 0,-10.04646 -10.04646,-10.04646 -10.04646,-10.04646 z"
     id="path5796" />
  <g
     id="g26"
     transform="matrix(0.45259443,0,0,0.45259443,8.7400732,14.606387)"
     style="fill:#438de6;fill-opacity:1">
    <path
       d="m 95.577123,122.49597 c 6.958577,4.55499 12.921567,10.98378 15.736217,18.87411 0.30825,0.8641 1.24237,1.42347 2.14359,1.25123 2.44303,-0.46692 4.91145,-0.81834 7.39425,-0.95439 0.91608,-0.0502 1.41152,-0.75885 1.12512,-1.63054 -3.18632,-9.69793 -4.59358,-20.40536 -1.07601,-30.20452 1.97094,-6.23348 6.47774,-11.490087 7.52291,-18.033291 0.50039,-3.075121 -0.2557,-6.228962 -1.25353,-9.101002 -0.30114,-0.866746 -1.30523,-1.759615 -2.21913,-1.723667 -2.15617,0.08481 -4.16012,1.304975 -5.64611,2.870699 -7.02434,6.342689 -14.09702,12.634478 -21.091063,19.009061 -2.373337,2.46936 -1.949736,6.15466 -2.630823,9.26162 -0.381862,2.61803 -0.758442,5.23691 -1.157063,7.85245 -0.13824,0.90706 0.383977,2.02574 1.151642,2.52824 z"
       style="fill:#438de6;fill-opacity:1;stroke-width:0.264583"
       id="path23" />
    <path
       id="path21-3"
       style="fill:#438de6;fill-opacity:1;stroke-width:0.264583"
       d="m 134.36161,89.635703 c 0.11995,6.0757 -2.90284,11.661707 -5.70506,16.897097 -3.21982,5.94155 -4.91369,12.78804 -3.98041,19.54529 0.55788,5.00391 1.94766,9.87133 3.68305,14.58771 0.27838,0.75658 1.16211,1.45256 1.95272,1.60986 8.22809,1.63709 15.23953,7.25558 19.8072,14.17508 1.21509,1.44698 2.25836,3.89221 3.26813,5.44691 0.4375,0.67359 1.28112,0.57741 1.7229,-0.097 2.44643,-3.73455 4.8854,-7.48103 7.12738,-11.34036 0.40472,-0.69667 0.96695,-1.90472 0.91344,-2.70417 -0.16652,-2.48792 -2.84501,-4.36107 -3.91534,-6.56608 -3.85794,-5.64922 -7.23616,-11.8792 -7.88658,-18.80914 -0.71748,-4.18061 -0.46685,-8.45321 -0.94367,-12.64082 -0.91765,-2.96609 -3.35905,-5.07438 -5.11209,-7.55946 -3.37282,-4.284823 -6.74564,-8.569652 -10.11847,-12.85448 -0.49866,-0.633496 -0.82911,-0.496276 -0.8132,0.309543 z" />
    <path
       id="path19-5"
       style="fill:#438de6;fill-opacity:1;stroke-width:0.264583"
       d="m 122.60543,147.45456 c -2.69255,0.0528 -5.37354,0.38837 -8.01797,0.89279 -0.83106,0.15852 -1.41043,0.98475 -1.33456,1.82736 0.90617,10.06479 -2.03485,20.06645 -6.24467,29.1473 -0.35584,0.76759 0.028,1.44756 0.87152,1.51368 5.7982,0.4545 11.66354,0.5714 17.29555,2.16112 4.67907,1.14798 9.21663,2.8181 13.89657,3.94894 4.7058,0.70426 9.02665,-3.51978 9.29163,-8.09898 0.40746,-2.75893 1.034,-5.49392 1.9646,-8.12452 0.28215,-0.79756 -0.0521,-1.84342 -0.4263,-2.58609 -0.48716,-0.96691 -0.85761,-2.275 -1.43287,-3.11386 -3.44386,-6.78405 -8.5424,-13.32583 -15.90418,-16.03599 -3.17286,-1.18742 -6.58711,-1.59015 -9.95932,-1.53175 z" />
    <path
       id="path18"
       style="fill:#438de6;fill-opacity:1;stroke-width:0.264583"
       d="m 92.021042,128.77535 c -3.486182,7.94023 -7.163575,15.79868 -10.642322,23.73895 -0.957235,2.79723 0.181135,5.92446 2.381874,7.79485 5.460729,5.62396 10.921457,11.2479 16.382186,16.87186 0.53395,0.54992 1.23709,0.43617 1.56005,-0.25896 3.92961,-8.45779 6.82679,-17.78012 5.6777,-27.1808 -0.84385,-7.47113 -4.92531,-14.3357 -10.67517,-19.09836 -0.959729,-0.82792 -1.961153,-1.60535 -2.990345,-2.34436 -0.622575,-0.44704 -1.385833,-0.22501 -1.693973,0.47682 z" />
  </g>
</svg>
