<?xml version="1.0" encoding="UTF-8" standalone="no"?>
<svg
   height="128"
   viewBox="0 0 128 128"
   width="128"
   version="1.1"
   id="svg5248"
   xml:space="preserve"
   xmlns:xlink="http://www.w3.org/1999/xlink"
   xmlns="http://www.w3.org/2000/svg"
   xmlns:svg="http://www.w3.org/2000/svg"><defs
     id="defs5252"><linearGradient
       xlink:href="#linearGradient2023"
       id="linearGradient2025"
       x1="2689.252"
       y1="-1106.803"
       x2="2918.0698"
       y2="-1106.803"
       gradientUnits="userSpaceOnUse"
       gradientTransform="matrix(0.45451006,0,0,0.45552152,-1210.2921,616.15659)" /><linearGradient
       id="linearGradient2023"><stop
         style="stop-color:#62a0ea;stop-opacity:1;"
         offset="0"
         id="stop2019" /><stop
         style="stop-color:#afd4ff;stop-opacity:1;"
         offset="0.05769911"
         id="stop2795" /><stop
         style="stop-color:#62a0ea;stop-opacity:1;"
         offset="0.12220427"
         id="stop2797" /><stop
         style="stop-color:#62a0ea;stop-opacity:1;"
         offset="0.87330586"
         id="stop2793" /><stop
         style="stop-color:#c0d5ea;stop-opacity:1;"
         offset="0.95599729"
         id="stop2791" /><stop
         style="stop-color:#62a0ea;stop-opacity:1;"
         offset="1"
         id="stop2021" /></linearGradient></defs><linearGradient
     id="a"
     gradientUnits="userSpaceOnUse"
     x1="11.999989"
     x2="115.99999"
     y1="64"
     y2="64"><stop
       offset="0"
       stop-color="#3d3846"
       id="stop5214" /><stop
       offset="0.05"
       stop-color="#77767b"
       id="stop5216" /><stop
       offset="0.1"
       stop-color="#5e5c64"
       id="stop5218" /><stop
       offset="0.899999"
       stop-color="#504e56"
       id="stop5220" /><stop
       offset="0.95"
       stop-color="#77767b"
       id="stop5222" /><stop
       offset="1"
       stop-color="#3d3846"
       id="stop5224" /></linearGradient><linearGradient
     id="b"
     gradientUnits="userSpaceOnUse"
     x1="12"
     x2="112.04102"
     y1="60"
     y2="80.988281"><stop
       offset="0"
       stop-color="#77767b"
       id="stop5227" /><stop
       offset="0.384443"
       stop-color="#9a9996"
       id="stop5229" /><stop
       offset="0.720567"
       stop-color="#77767b"
       id="stop5231" /><stop
       offset="1"
       stop-color="#68666f"
       id="stop5233" /></linearGradient><path
     id="rect1135"
     style="fill:#438de6;fill-opacity:1;stroke-width:4;stroke-linecap:round;stop-color:#000000"
     d="m 21.978484,11.984004 c -5.527661,0 -9.978496,4.460011 -9.978496,9.999972 v 86.032984 c 0,5.53996 4.450835,9.99997 9.978496,9.99997 h 84.042956 c 5.5277,0 9.97854,-4.46001 9.97854,-9.99997 V 35.928538 A 11.973368,12.000014 0 0 0 104.02659,23.928507 H 57.999997 A 6.4921144,6.5065619 0 0 1 52.201312,20.347789 L 50.697974,17.355058 A 9.7381057,9.7597768 0 0 0 41.99997,11.984004 Z" /><path
     id="path1953"
     style="fill:url(#linearGradient2025);fill-opacity:1;stroke-width:4;stroke-linecap:round;stop-color:#000000"
     d="m 65.978512,35.98402 c -2.746559,0 -5.227593,1.101406 -7.028817,2.889191 -2.273959,2.257064 -5.385171,5.110815 -8.632782,5.110815 H 21.978484 c -5.527661,0 -9.978496,4.460011 -9.978496,9.999973 V 108.017 c 0,5.53997 4.450835,9.99998 9.978496,9.99998 h 84.042956 c 5.5277,0 9.97854,-4.46001 9.97854,-9.99998 V 59.984037 53.983999 45.983993 c 0,-5.539961 -4.45084,-9.999973 -9.97854,-9.999973 z" /><path
     id="rect1586"
     style="fill:#a4caee;fill-opacity:1;stroke-width:4;stroke-linecap:round;stop-color:#000000"
     d="m 65.978512,31.983995 c -2.746559,0 -5.227593,1.101405 -7.028817,2.889191 C 56.675736,37.130249 53.564524,39.984 50.316913,39.984 H 21.978484 c -5.527661,0 -9.978496,4.460012 -9.978496,9.999973 v 55.977537 c 0,5.53996 4.450835,9.99997 9.978496,9.99997 h 84.042956 c 5.5277,0 9.97854,-4.46001 9.97854,-9.99997 V 55.984012 49.983973 41.983968 c 0,-5.539962 -4.45084,-9.999973 -9.97854,-9.999973 z" /><path
     id="path10983"
     style="baseline-shift:baseline;display:inline;overflow:visible;vector-effect:none;fill:#438de6;fill-rule:evenodd;enable-background:accumulate;stop-color:#000000;stop-opacity:1;opacity:1"
     d="M 62.708984 59.984375 C 62.426135 59.984352 62.171368 60.021491 61.894531 60.033203 C 60.687679 60.08426 59.539889 60.218988 58.765625 60.525391 C 56.239847 61.450547 54.33793 63.944395 53.771484 66.947266 L 53.771484 66.951172 L 53.767578 66.951172 L 53.767578 66.953125 C 53.265771 69.330616 53.134575 71.346671 52.867188 73.167969 C 52.755383 73.928691 52.620848 74.654332 52.427734 75.363281 C 51.217423 76.176645 50.342441 77.568822 50.039062 79.175781 L 50.039062 79.177734 L 50.039062 79.179688 L 50.039062 79.181641 C 49.848329 80.086083 49.738792 80.910214 49.646484 81.673828 L 45.792969 81.673828 L 45.792969 82.537109 L 49.1875 82.537109 L 49.542969 82.537109 L 50.193359 82.537109 L 50.449219 82.537109 L 61.035156 82.537109 L 61.980469 82.537109 L 62.632812 82.537109 L 63.078125 82.537109 L 63.416016 82.537109 C 63.306217 83.386525 63.233985 84.166442 63.126953 84.898438 L 63.271484 84.917969 L 56.253906 84.917969 L 56.253906 85.783203 L 80.412109 85.783203 L 80.412109 84.917969 L 77.142578 84.917969 L 77.28125 84.898438 C 77.093886 83.622366 77.00038 82.200101 76.644531 80.517578 C 76.549969 80.01334 76.402379 79.528922 76.208984 79.074219 L 82.207031 79.074219 L 82.207031 78.208984 L 75.763672 78.208984 C 75.176586 77.252453 74.361168 76.492675 73.398438 76.054688 L 73.304688 75.839844 C 73.075682 75.111629 72.920082 74.366818 72.794922 73.589844 L 77.742188 73.589844 L 77.742188 72.724609 L 72.667969 72.724609 C 72.439325 71.020006 72.291665 69.139375 71.830078 66.953125 L 71.830078 66.951172 C 71.263632 63.946945 69.357103 61.450293 66.830078 60.525391 L 66.826172 60.521484 C 66.030566 60.243713 64.940699 60.110849 63.810547 60.046875 L 63.808594 60.046875 L 63.808594 60.044922 L 63.806641 60.044922 L 63.804688 60.044922 C 63.481085 60.006312 63.153531 59.985172 62.820312 59.984375 C 62.813268 59.984336 62.805872 59.984406 62.798828 59.984375 C 62.770012 59.984247 62.739742 59.984383 62.710938 59.984375 L 62.708984 59.984375 z M 57.71875 63.576172 C 58.312616 63.550662 58.900113 63.779085 59.322266 64.199219 L 59.550781 64.427734 L 59.097656 64.890625 L 58.865234 64.662109 C 58.575951 64.37421 58.153049 64.207128 57.746094 64.224609 C 57.315611 64.243099 56.883746 64.469556 56.621094 64.8125 L 56.423828 65.068359 L 55.910156 64.673828 L 56.107422 64.416016 C 56.491544 63.914466 57.089171 63.603213 57.71875 63.576172 z M 68.388672 63.576172 C 69.018251 63.603212 69.613923 63.914461 69.998047 64.416016 L 70.195312 64.673828 L 69.681641 65.068359 L 69.484375 64.8125 C 69.221724 64.469557 68.789856 64.243097 68.359375 64.224609 C 67.952429 64.207129 67.527565 64.374211 67.238281 64.662109 L 67.009766 64.890625 L 66.552734 64.427734 L 66.783203 64.199219 C 67.205365 63.779086 67.794805 63.550667 68.388672 63.576172 z M 57.818359 66.109375 C 58.891506 66.109375 59.755859 67.012075 59.755859 68.103516 C 59.755859 69.194956 58.891506 70.095703 57.818359 70.095703 C 56.745213 70.095703 55.873047 69.194956 55.873047 68.103516 C 55.873047 67.012075 56.745213 66.109375 57.818359 66.109375 z M 68.285156 66.111328 C 69.358303 66.111328 70.226563 67.012075 70.226562 68.103516 C 70.226562 69.194956 69.358303 70.095703 68.285156 70.095703 C 67.21201 70.095703 66.341797 69.194956 66.341797 68.103516 C 66.341797 67.012075 67.21201 66.111328 68.285156 66.111328 z M 57.273438 66.802734 C 57.054324 66.802807 56.855114 66.897281 56.710938 67.046875 C 56.566687 67.197014 56.476774 67.403773 56.476562 67.632812 C 56.476562 67.734155 56.494577 67.835036 56.529297 67.929688 L 56.53125 67.931641 C 56.5418 67.960101 56.555099 67.988945 56.568359 68.015625 C 56.595379 68.069575 56.627225 68.120327 56.664062 68.166016 C 56.714732 68.228646 56.776422 68.285755 56.841797 68.330078 C 56.904427 68.372378 56.974707 68.405034 57.046875 68.427734 C 57.119625 68.450454 57.194946 68.462891 57.273438 68.462891 C 57.411127 68.46352 57.54119 68.426971 57.654297 68.363281 C 57.676447 68.350751 57.699883 68.336866 57.720703 68.322266 C 57.762733 68.292676 57.802092 68.257911 57.837891 68.220703 L 57.839844 68.220703 C 57.984825 68.070484 58.074009 67.862617 58.074219 67.632812 C 58.074193 67.409796 57.988372 67.205163 57.847656 67.054688 C 57.832326 67.038297 57.813485 67.020909 57.796875 67.005859 C 57.780245 66.990859 57.761971 66.976441 57.744141 66.962891 C 57.726301 66.949371 57.70646 66.933865 57.6875 66.921875 C 57.66855 66.909945 57.646943 66.898982 57.626953 66.888672 C 57.606953 66.878412 57.587386 66.867885 57.566406 66.859375 C 57.545416 66.850875 57.52188 66.842585 57.5 66.835938 C 57.47811 66.829335 57.452386 66.825085 57.429688 66.820312 C 57.377718 66.809855 57.326349 66.802264 57.273438 66.802734 z M 67.740234 66.804688 C 67.301094 66.804833 66.945735 67.174731 66.945312 67.632812 C 66.945312 67.734155 66.963327 67.836989 66.998047 67.931641 C 67.116066 68.252632 67.410662 68.462882 67.740234 68.462891 C 68.180838 68.464991 68.540594 68.092421 68.541016 67.632812 C 68.540969 67.236334 68.273285 66.897094 67.900391 66.820312 C 67.848421 66.809905 67.793147 66.804218 67.740234 66.804688 z M 63.144531 67.962891 C 64.834281 67.962942 66.181641 69.256546 66.181641 70.84375 C 66.181641 70.90748 66.178528 70.970476 66.173828 71.033203 L 70.662109 71.027344 L 70.666016 71.447266 L 66.115234 71.455078 C 66.103604 71.506698 66.088759 71.55685 66.074219 71.607422 L 70.662109 72.847656 L 70.548828 73.253906 L 65.925781 72.003906 C 65.871751 72.120833 65.811425 72.233542 65.742188 72.341797 L 68.570312 73.986328 L 68.361328 74.349609 L 65.488281 72.681641 C 64.933251 73.320753 64.092605 73.730469 63.144531 73.730469 C 62.206374 73.730469 61.373464 73.330772 60.818359 72.703125 L 57.925781 74.333984 L 57.716797 73.96875 L 60.560547 72.363281 C 60.488597 72.252721 60.425141 72.137339 60.369141 72.017578 L 55.736328 73.238281 L 55.626953 72.830078 L 60.21875 71.621094 C 60.20074 71.559374 60.185575 71.49492 60.171875 71.431641 L 55.623047 71.431641 L 55.623047 71.011719 L 60.113281 71.011719 C 60.109481 70.956079 60.107422 70.90017 60.107422 70.84375 C 60.107422 69.256546 61.45478 67.962943 63.144531 67.962891 z M 63.103516 69.466797 A 0.94915381 0.93485901 0 0 0 62.632812 69.589844 C 62.536122 69.620114 62.438317 69.644531 62.337891 69.644531 C 62.063231 69.644531 62.062258 70.119478 61.970703 70.357422 C 61.941693 70.432812 62.048228 70.563824 62.207031 70.705078 A 0.94915381 0.93485901 0 0 0 62.876953 71.308594 L 62.822266 71.566406 C 62.776056 71.604876 62.608055 71.750708 62.357422 71.835938 C 62.216115 71.883988 62.074728 71.900841 61.951172 71.869141 C 61.846111 71.842181 61.740217 71.749901 61.632812 71.609375 C 61.639812 71.553815 61.64362 71.529403 61.65625 71.4375 C 61.67824 71.277261 61.708376 71.086587 61.722656 71.029297 L 61.212891 70.898438 C 61.182451 71.020876 61.157526 71.199717 61.134766 71.365234 C 61.112026 71.530751 61.095703 71.671875 61.095703 71.671875 L 61.083984 71.767578 L 61.134766 71.847656 C 61.32007 72.140022 61.568224 72.315671 61.822266 72.380859 C 62.076301 72.446039 62.321818 72.405838 62.527344 72.335938 C 62.793688 72.245356 63.010768 72.097732 63.130859 72.005859 C 63.250949 72.097729 63.468033 72.245364 63.734375 72.335938 C 63.939902 72.405828 64.185417 72.446035 64.439453 72.380859 C 64.693496 72.315669 64.939696 72.140022 65.125 71.847656 L 65.175781 71.767578 L 65.166016 71.671875 C 65.166016 71.671875 65.14773 71.530751 65.125 71.365234 C 65.10227 71.199717 65.077345 71.020876 65.046875 70.898438 L 64.537109 71.029297 C 64.551389 71.086587 64.583479 71.277261 64.605469 71.4375 C 64.618139 71.5294 64.620033 71.553815 64.626953 71.609375 C 64.51955 71.749901 64.413657 71.842184 64.308594 71.869141 C 64.185041 71.900841 64.043651 71.883995 63.902344 71.835938 C 63.663011 71.754548 63.517679 71.624191 63.458984 71.576172 L 63.445312 71.273438 A 0.94915381 0.93485901 0 0 0 63.970703 70.785156 C 64.179227 70.613741 64.335232 70.446956 64.300781 70.357422 C 64.209231 70.119478 64.210221 69.644531 63.935547 69.644531 C 63.751217 69.644531 63.57526 69.56655 63.398438 69.513672 A 0.94915381 0.93485901 0 0 0 63.375 69.505859 C 63.29617 69.483509 63.215505 69.466797 63.134766 69.466797 C 63.130066 69.466797 63.127637 69.466695 63.123047 69.466797 A 0.94915381 0.93485901 0 0 0 63.105469 69.466797 L 63.103516 69.466797 z M 52.835938 77.001953 C 53.249308 76.984213 53.655052 77.141703 53.949219 77.433594 L 54.179688 77.660156 L 53.724609 78.123047 L 53.494141 77.894531 C 53.332856 77.734488 53.089923 77.640667 52.863281 77.650391 C 52.623802 77.660661 52.374871 77.788081 52.228516 77.978516 L 52.03125 78.234375 L 51.517578 77.839844 L 51.716797 77.582031 C 51.98468 77.233457 52.397597 77.020761 52.835938 77.001953 z M 59.515625 77.001953 C 59.566895 76.998784 59.618251 76.999736 59.669922 77.001953 C 60.108269 77.020763 60.519226 77.233457 60.787109 77.582031 L 60.986328 77.839844 L 60.472656 78.234375 L 60.275391 77.978516 C 60.129043 77.788081 59.882057 77.660666 59.642578 77.650391 C 59.415929 77.640691 59.174964 77.73449 59.013672 77.894531 L 58.783203 78.123047 L 58.328125 77.660156 L 58.556641 77.433594 C 58.814037 77.178189 59.156732 77.024137 59.515625 77.001953 z M 66.728516 78.205078 L 66.730469 78.205078 C 67.165033 78.187098 67.582918 78.350428 67.892578 78.658203 L 68.134766 78.886719 L 67.666016 79.355469 L 67.439453 79.126953 C 67.263708 78.951862 67.005454 78.846529 66.757812 78.857422 C 66.495649 78.868682 66.222994 79.003885 66.0625 79.212891 L 65.863281 79.46875 L 65.353516 79.083984 L 65.550781 78.816406 C 65.832691 78.449785 66.267324 78.225196 66.728516 78.205078 z M 74.033203 78.205078 L 74.035156 78.205078 C 74.49642 78.225408 74.926856 78.44964 75.208984 78.816406 L 75.408203 79.083984 L 74.898438 79.46875 L 74.699219 79.212891 C 74.538725 79.003812 74.268025 78.868315 74.005859 78.857422 C 73.757492 78.846892 73.487745 78.951064 73.310547 79.126953 L 73.083984 79.355469 L 72.630859 78.886719 L 72.855469 78.658203 C 73.165202 78.351299 73.598096 78.187462 74.033203 78.205078 z M 52.900391 78.619141 C 53.65127 78.619141 54.259766 79.247191 54.259766 80.005859 C 54.259766 80.764526 53.65127 81.394531 52.900391 81.394531 C 52.149506 81.394531 51.542969 80.764526 51.542969 80.005859 C 51.542969 79.247191 52.149506 78.619141 52.900391 78.619141 z M 59.603516 78.619141 C 60.354372 78.61917 60.960935 79.249163 60.960938 80.007812 C 60.960938 80.766481 60.354394 81.396484 59.603516 81.396484 C 59.235741 81.396484 58.900735 81.245286 58.65625 81.001953 C 58.472502 80.819069 58.339418 80.584347 58.279297 80.322266 C 58.256067 80.221101 58.244141 80.115617 58.244141 80.007812 C 58.244141 79.249163 58.852652 78.619169 59.603516 78.619141 z M 62.113281 79.074219 L 64.189453 79.074219 C 63.995042 79.528922 63.846602 80.01334 63.751953 80.517578 C 63.667603 80.917159 63.597764 81.302065 63.539062 81.673828 L 62.529297 81.673828 C 62.437002 80.910211 62.327457 80.086101 62.136719 79.181641 L 62.134766 79.179688 C 62.128125 79.144422 62.12048 79.109265 62.113281 79.074219 z M 52.556641 79.177734 A 0.5090994 0.52978688 0 0 0 52.048828 79.705078 A 0.5090994 0.52978688 0 0 0 52.197266 80.078125 A 0.5090994 0.52978688 0 0 0 52.556641 80.236328 A 0.5090994 0.52978688 0 0 0 53.066406 79.705078 A 0.5090994 0.52978688 0 0 0 52.845703 79.271484 A 0.5090994 0.52978688 0 0 0 52.556641 79.177734 z M 59.257812 79.177734 A 0.5090994 0.52978688 0 0 0 58.75 79.705078 A 0.5090994 0.52978688 0 0 0 58.898438 80.078125 A 0.5090994 0.52978688 0 0 0 59.257812 80.236328 A 0.5090994 0.52978688 0 0 0 59.767578 79.705078 A 0.5090994 0.52978688 0 0 0 59.546875 79.271484 A 0.5090994 0.52978688 0 0 0 59.257812 79.177734 z M 66.800781 79.935547 C 67.592289 79.935547 68.230469 80.598033 68.230469 81.396484 C 68.230469 82.194876 67.592071 82.859375 66.800781 82.859375 C 66.0092 82.859375 65.367185 82.194934 65.367188 81.396484 C 65.367188 80.598062 66.00949 79.935547 66.800781 79.935547 z M 73.960938 79.9375 C 74.752447 79.9375 75.390625 80.599986 75.390625 81.398438 C 75.390625 82.196831 74.752229 82.861328 73.960938 82.861328 C 73.539462 82.861328 73.160764 82.673812 72.898438 82.376953 C 72.759276 82.219474 72.65416 82.032612 72.591797 81.826172 C 72.550927 81.690885 72.527344 81.54623 72.527344 81.398438 C 72.527344 80.600015 73.169646 79.9375 73.960938 79.9375 z M 56.3125 80.033203 C 57.304026 80.033203 58.09177 80.765482 58.136719 81.673828 L 57.173828 81.673828 C 57.192954 81.656015 57.211224 81.634587 57.230469 81.609375 C 57.275989 81.549745 57.333281 81.424646 57.283203 81.294922 C 57.275303 81.274342 57.256087 81.154793 57.216797 81.027344 C 57.197147 80.963624 57.171609 80.891403 57.109375 80.816406 C 57.047125 80.741406 56.923527 80.673828 56.804688 80.673828 C 56.773668 80.673828 56.718292 80.659119 56.634766 80.630859 C 56.551236 80.602609 56.440128 80.558594 56.296875 80.558594 C 56.153623 80.558594 56.046423 80.602609 55.962891 80.630859 C 55.879361 80.659109 55.820115 80.673828 55.789062 80.673828 C 55.670231 80.673828 55.55059 80.741403 55.488281 80.816406 C 55.425961 80.891406 55.398569 80.963608 55.378906 81.027344 C 55.339546 81.154816 55.32043 81.274301 55.3125 81.294922 C 55.26508 81.417721 55.313039 81.54046 55.355469 81.601562 C 55.375787 81.630933 55.397253 81.653788 55.417969 81.673828 L 54.488281 81.673828 C 54.53323 80.765482 55.320974 80.033203 56.3125 80.033203 z M 66.425781 80.513672 C 66.125126 80.513889 65.882667 80.767295 65.882812 81.080078 C 65.882812 81.219876 65.932155 81.352819 66.021484 81.457031 C 66.124607 81.576422 66.271096 81.646637 66.425781 81.646484 C 66.726436 81.646266 66.968895 81.392861 66.96875 81.080078 C 66.969476 80.880658 66.871157 80.69492 66.707031 80.591797 C 66.622061 80.539147 66.524547 80.512903 66.425781 80.513672 z M 73.585938 80.517578 C 73.28528 80.517795 73.042824 80.7712 73.042969 81.083984 C 73.042969 81.223781 73.092313 81.356725 73.181641 81.460938 C 73.284765 81.580326 73.431249 81.650543 73.585938 81.650391 C 73.886593 81.650173 74.129051 81.396767 74.128906 81.083984 C 74.129632 80.884564 74.031312 80.698827 73.867188 80.595703 C 73.782218 80.543053 73.684703 80.516808 73.585938 80.517578 z M 70.445312 81.410156 C 71.472555 81.410156 72.296447 82.13477 72.404297 83.0625 L 72.736328 83.146484 L 73.070312 83.230469 L 73.070312 83.232422 L 75.664062 83.892578 L 75.550781 84.302734 L 73.035156 83.673828 L 72.714844 83.591797 L 72.400391 83.513672 C 72.382951 83.640174 72.351324 83.763292 72.308594 83.880859 L 72.607422 84.001953 L 72.912109 84.126953 L 74.857422 84.917969 L 73.695312 84.917969 L 72.720703 84.519531 L 72.414062 84.394531 L 72.111328 84.271484 C 71.931388 84.541666 71.681234 84.765253 71.382812 84.917969 L 69.509766 84.917969 C 69.222573 84.771033 68.979251 84.558615 68.800781 84.302734 L 68.492188 84.427734 L 68.189453 84.550781 L 67.271484 84.917969 L 66.099609 84.917969 L 67.992188 84.158203 L 68.291016 84.041016 L 68.595703 83.917969 C 68.541003 83.777136 68.504066 83.62851 68.486328 83.474609 L 68.164062 83.560547 L 67.849609 83.644531 L 65.380859 84.302734 L 65.283203 83.892578 L 67.822266 83.199219 L 68.150391 83.111328 L 68.492188 83.019531 L 68.492188 83.017578 C 68.620546 82.111046 69.43441 81.410156 70.445312 81.410156 z M 70.458984 82.048828 C 70.304652 82.048952 70.183886 82.087961 70.091797 82.119141 C 69.999577 82.150371 69.945469 82.175781 69.90625 82.175781 C 69.77986 82.175781 69.64813 82.254311 69.582031 82.333984 C 69.516691 82.413724 69.487871 82.491485 69.466797 82.560547 C 69.423217 82.698675 69.409081 82.817246 69.394531 82.84375 C 69.392431 82.84895 69.365234 82.951075 69.365234 82.957031 C 69.36498 82.962931 69.373639 83.017409 69.380859 83.042969 C 69.395399 83.094529 69.402038 83.124007 69.423828 83.15625 C 69.460128 83.22089 69.50627 83.279551 69.552734 83.326172 C 69.644954 83.419422 69.752666 83.499312 69.865234 83.582031 C 69.958214 83.650361 70.051189 83.714586 70.128906 83.767578 C 70.079256 83.806558 70.002593 83.861086 69.886719 83.900391 C 69.798099 83.930441 69.71959 83.944254 69.654297 83.927734 C 69.606807 83.915454 69.549516 83.853084 69.496094 83.792969 C 69.513054 83.666732 69.541704 83.483395 69.552734 83.439453 L 69.025391 83.304688 C 68.977481 83.496921 68.943359 83.859375 68.943359 83.859375 L 68.933594 83.958984 L 68.984375 84.033203 C 69.124291 84.253208 69.313127 84.395875 69.513672 84.447266 C 69.714217 84.498616 69.905326 84.466563 70.060547 84.414062 C 70.226538 84.357822 70.366642 84.274516 70.460938 84.208984 C 70.553066 84.274504 70.689648 84.355882 70.855469 84.412109 C 71.010648 84.464769 71.199847 84.498656 71.400391 84.447266 C 71.600937 84.395916 71.799708 84.25325 71.939453 84.033203 L 71.990234 83.958984 L 71.982422 83.859375 C 71.982422 83.859375 71.938545 83.496916 71.890625 83.304688 L 71.369141 83.439453 C 71.381861 83.483393 71.412044 83.666774 71.427734 83.792969 C 71.374304 83.853089 71.317018 83.915499 71.269531 83.927734 C 71.204241 83.944674 71.126147 83.930871 71.037109 83.900391 C 70.918733 83.860201 70.846567 83.803792 70.796875 83.763672 C 70.873235 83.711532 70.96438 83.648363 71.054688 83.582031 C 71.167254 83.499311 71.288642 83.419347 71.380859 83.326172 C 71.424439 83.279702 71.456398 83.22052 71.494141 83.15625 C 71.515931 83.1243 71.538194 83.094022 71.552734 83.042969 C 71.558434 83.017559 71.552946 82.962991 71.552734 82.957031 C 71.552522 82.951131 71.539066 82.848978 71.539062 82.84375 C 71.531864 82.81761 71.508384 82.698531 71.464844 82.560547 C 71.443054 82.491557 71.414017 82.413722 71.351562 82.333984 C 71.286222 82.254244 71.151782 82.175781 71.025391 82.175781 C 70.989101 82.175781 70.920342 82.150371 70.828125 82.119141 C 70.736505 82.088091 70.614378 82.049278 70.460938 82.048828 L 70.458984 82.048828 z M 76.953125 84.880859 C 76.954843 84.892964 76.956969 84.905513 76.958984 84.917969 L 76.957031 84.917969 L 76.953125 84.880859 z M 50.785156 88.019531 L 50.785156 88.884766 L 61.162109 88.884766 L 61.162109 88.019531 L 50.785156 88.019531 z M 60.570312 91.121094 L 60.570312 91.984375 L 75.287109 91.984375 L 75.287109 91.121094 L 60.570312 91.121094 z " /></svg>
