<?xml version="1.0" encoding="UTF-8" standalone="no"?>
<svg
   height="128px"
   viewBox="0 0 128 128"
   width="128px"
   version="1.1"
   id="svg35"
   xmlns="http://www.w3.org/2000/svg"
   xmlns:svg="http://www.w3.org/2000/svg">
  <defs
     id="defs39" />
  <linearGradient
     id="a"
     gradientUnits="userSpaceOnUse"
     x1="36"
     x2="60"
     y1="68"
     y2="68">
    <stop
       offset="0"
       stop-color="#ed336c"
       id="stop2" />
    <stop
       offset="1"
       stop-color="#ffa348"
       id="stop4" />
  </linearGradient>
  <linearGradient
     id="b"
     gradientTransform="matrix(0 1 -1 0 144 -32)"
     gradientUnits="userSpaceOnUse"
     x1="72"
     x2="96"
     y1="68"
     y2="68">
    <stop
       offset="0"
       stop-color="#404ce6"
       id="stop7" />
    <stop
       offset="1"
       stop-color="#c061cb"
       id="stop9" />
  </linearGradient>
  <linearGradient
     id="c"
     gradientUnits="userSpaceOnUse"
     x1="68.84919"
     x2="95.257637"
     y1="84"
     y2="84">
    <stop
       offset="0"
       stop-color="#33d1c6"
       id="stop12" />
    <stop
       offset="1"
       stop-color="#1c25d8"
       id="stop14" />
  </linearGradient>
  <path
     style="display:inline;fill:#666666;fill-opacity:1;stroke:none;stroke-width:0.125;stroke-linejoin:round;stroke-miterlimit:4;stroke-dasharray:none;stroke-opacity:1;enable-background:new"
     clip-path="none"
     d="m 27.978072,8.0000006 h 50.000002 l 30.042896,29.9178934 10e-4,74.060006 c 8e-5,4.432 -3.6122,8.0221 -8.044196,8.0221 H 27.978011 c -4.431999,0 -7.999999,-3.568 -7.999999,-8.00001 V 16 c 0,-4.431999 3.568,-7.9999994 7.999999,-7.9999994 z"
     id="path4411" />
  <path
     style="display:inline;vector-effect:none;fill:#9a9996;fill-opacity:1;stroke:none;stroke-width:0.125;stroke-linecap:butt;stroke-linejoin:round;stroke-miterlimit:4;stroke-dasharray:none;stroke-dashoffset:0;stroke-opacity:1;enable-background:new"
     d="M 77.978074,8.0000006 V 30.000002 c 0,4.432 3.610527,7.923448 8.042527,7.923448 l 22.000369,-0.0055 z"
     id="path4413" />
  <g
     aria-label="01001111 01100011 01110100 01101111"
     id="text980"
     style="font-size:16px;line-height:1.25;font-family:'Source Code Pro';-inkscape-font-specification:'Source Code Pro';fill:#ffffff;fill-opacity:0.8"
     transform="matrix(0.91221237,0,0,0.90661831,152.88087,13.078786)">
    <path
       d="m -131.04244,42.1248 q -1.136,0 -1.952,-0.624 -0.816,-0.64 -1.264,-1.824 -0.448,-1.184 -0.448,-2.88 0,-2.576 0.976,-3.92 0.992,-1.344 2.688,-1.344 1.712,0 2.688,1.344 0.976,1.344 0.976,3.92 0,1.696 -0.448,2.88 -0.432,1.184 -1.264,1.824 -0.816,0.624 -1.952,0.624 z m 0,-1.056 q 0.72,0 1.264,-0.448 0.544,-0.464 0.848,-1.408 0.32,-0.96 0.32,-2.416 0,-1.472 -0.32,-2.4 -0.304,-0.928 -0.848,-1.36 -0.544,-0.448 -1.264,-0.448 -0.704,0 -1.264,0.448 -0.544,0.432 -0.864,1.36 -0.304,0.928 -0.304,2.4 0,1.456 0.304,2.416 0.32,0.944 0.864,1.408 0.56,0.448 1.264,0.448 z m 0,-3.312 q -0.4,0 -0.704,-0.288 -0.288,-0.288 -0.288,-0.784 0,-0.496 0.288,-0.768 0.304,-0.288 0.704,-0.288 0.416,0 0.704,0.288 0.288,0.272 0.288,0.768 0,0.496 -0.288,0.784 -0.288,0.288 -0.704,0.288 z"
       id="path1038"
       style="fill:#ffffff;fill-opacity:0.8" />
    <path
       d="m -124.69043,41.9328 v -1.088 h 2.944 v -7.52 h -2.288 v -0.848 q 0.608,-0.08 1.072,-0.192 0.464,-0.112 0.848,-0.24 0.384,-0.144 0.704,-0.32 h 0.976 v 9.12 h 2.672 v 1.088 z"
       id="path1040"
       style="fill:#ffffff;fill-opacity:0.8" />
    <path
       d="m -111.84243,42.1248 q -1.136,0 -1.952,-0.624 -0.816,-0.64 -1.264,-1.824 -0.448,-1.184 -0.448,-2.88 0,-2.576 0.976,-3.92 0.992,-1.344 2.688,-1.344 1.712,0 2.688,1.344 0.976,1.344 0.976,3.92 0,1.696 -0.448,2.88 -0.432,1.184 -1.264,1.824 -0.816,0.624 -1.952,0.624 z m 0,-1.056 q 0.72,0 1.264,-0.448 0.544,-0.464 0.848,-1.408 0.32,-0.96 0.32,-2.416 0,-1.472 -0.32,-2.4 -0.304,-0.928 -0.848,-1.36 -0.544,-0.448 -1.264,-0.448 -0.704,0 -1.264,0.448 -0.544,0.432 -0.864,1.36 -0.304,0.928 -0.304,2.4 0,1.456 0.304,2.416 0.32,0.944 0.864,1.408 0.56,0.448 1.264,0.448 z m 0,-3.312 q -0.4,0 -0.704,-0.288 -0.288,-0.288 -0.288,-0.784 0,-0.496 0.288,-0.768 0.304,-0.288 0.704,-0.288 0.416,0 0.704,0.288 0.288,0.272 0.288,0.768 0,0.496 -0.288,0.784 -0.288,0.288 -0.704,0.288 z"
       id="path1042"
       style="fill:#ffffff;fill-opacity:0.8" />
    <path
       d="m -102.24242,42.1248 q -1.136,0 -1.952,-0.624 -0.816,-0.64 -1.264,-1.824 -0.448,-1.184 -0.448,-2.88 0,-2.576 0.976,-3.92 0.992,-1.344 2.688,-1.344 1.712,0 2.688001,1.344 0.976,1.344 0.976,3.92 0,1.696 -0.448,2.88 -0.432,1.184 -1.264001,1.824 -0.816,0.624 -1.952,0.624 z m 0,-1.056 q 0.72,0 1.264,-0.448 0.544,-0.464 0.848,-1.408 0.320001,-0.96 0.320001,-2.416 0,-1.472 -0.320001,-2.4 -0.304,-0.928 -0.848,-1.36 -0.544,-0.448 -1.264,-0.448 -0.704,0 -1.264,0.448 -0.544,0.432 -0.864,1.36 -0.304,0.928 -0.304,2.4 0,1.456 0.304,2.416 0.32,0.944 0.864,1.408 0.56,0.448 1.264,0.448 z m 0,-3.312 q -0.4,0 -0.704,-0.288 -0.288,-0.288 -0.288,-0.784 0,-0.496 0.288,-0.768 0.304,-0.288 0.704,-0.288 0.416,0 0.704,0.288 0.288,0.272 0.288,0.768 0,0.496 -0.288,0.784 -0.288,0.288 -0.704,0.288 z"
       id="path1044"
       style="fill:#ffffff;fill-opacity:0.8" />
    <path
       d="m -95.890413,41.9328 v -1.088 h 2.944 v -7.52 h -2.288 v -0.848 q 0.608,-0.08 1.072,-0.192 0.464,-0.112 0.848,-0.24 0.384,-0.144 0.704,-0.32 h 0.976 v 9.12 h 2.672 v 1.088 z"
       id="path1046"
       style="fill:#ffffff;fill-opacity:0.8" />
    <path
       d="m -86.290407,41.9328 v -1.088 h 2.944 v -7.52 h -2.288 v -0.848 q 0.608,-0.08 1.072,-0.192 0.464,-0.112 0.848,-0.24 0.384,-0.144 0.704,-0.32 h 0.976 v 9.12 h 2.672 v 1.088 z"
       id="path1048"
       style="fill:#ffffff;fill-opacity:0.8" />
    <path
       d="m -76.690401,41.9328 v -1.088 h 2.944 v -7.52 h -2.288 v -0.848 q 0.608,-0.08 1.072,-0.192 0.464,-0.112 0.848,-0.24 0.384,-0.144 0.704,-0.32 h 0.976 v 9.12 h 2.672 v 1.088 z"
       id="path1050"
       style="fill:#ffffff;fill-opacity:0.8" />
    <path
       d="m -67.090395,41.9328 v -1.088 h 2.944 v -7.52 h -2.288 v -0.848 q 0.608,-0.08 1.072,-0.192 0.464,-0.112 0.848,-0.24 0.384,-0.144 0.704,-0.32 h 0.976 v 9.12 h 2.672 v 1.088 z"
       id="path1052"
       style="fill:#ffffff;fill-opacity:0.8" />
    <path
       d="m -131.04244,62.1248 q -1.136,0 -1.952,-0.624 -0.816,-0.64 -1.264,-1.824 -0.448,-1.184 -0.448,-2.88 0,-2.576 0.976,-3.92 0.992,-1.344 2.688,-1.344 1.712,0 2.688,1.344 0.976,1.344 0.976,3.92 0,1.696 -0.448,2.88 -0.432,1.184 -1.264,1.824 -0.816,0.624 -1.952,0.624 z m 0,-1.056 q 0.72,0 1.264,-0.448 0.544,-0.464 0.848,-1.408 0.32,-0.96 0.32,-2.416 0,-1.472 -0.32,-2.4 -0.304,-0.928 -0.848,-1.36 -0.544,-0.448 -1.264,-0.448 -0.704,0 -1.264,0.448 -0.544,0.432 -0.864,1.36 -0.304,0.928 -0.304,2.4 0,1.456 0.304,2.416 0.32,0.944 0.864,1.408 0.56,0.448 1.264,0.448 z m 0,-3.312 q -0.4,0 -0.704,-0.288 -0.288,-0.288 -0.288,-0.784 0,-0.496 0.288,-0.768 0.304,-0.288 0.704,-0.288 0.416,0 0.704,0.288 0.288,0.272 0.288,0.768 0,0.496 -0.288,0.784 -0.288,0.288 -0.704,0.288 z"
       id="path1054"
       style="fill:#ffffff;fill-opacity:0.8" />
    <path
       d="m -124.69043,61.9328 v -1.088 h 2.944 v -7.52 h -2.288 v -0.848 q 0.608,-0.08 1.072,-0.192 0.464,-0.112 0.848,-0.24 0.384,-0.144 0.704,-0.32 h 0.976 v 9.12 h 2.672 v 1.088 z"
       id="path1056"
       style="fill:#ffffff;fill-opacity:0.8" />
    <path
       d="m -115.09043,61.9328 v -1.088 h 2.944 v -7.52 h -2.288 v -0.848 q 0.608,-0.08 1.072,-0.192 0.464,-0.112 0.848,-0.24 0.384,-0.144 0.704,-0.32 h 0.976 v 9.12 h 2.672 v 1.088 z"
       id="path1058"
       style="fill:#ffffff;fill-opacity:0.8" />
    <path
       d="m -102.24242,62.1248 q -1.136,0 -1.952,-0.624 -0.816,-0.64 -1.264,-1.824 -0.448,-1.184 -0.448,-2.88 0,-2.576 0.976,-3.92 0.992,-1.344 2.688,-1.344 1.712,0 2.688001,1.344 0.976,1.344 0.976,3.92 0,1.696 -0.448,2.88 -0.432,1.184 -1.264001,1.824 -0.816,0.624 -1.952,0.624 z m 0,-1.056 q 0.72,0 1.264,-0.448 0.544,-0.464 0.848,-1.408 0.320001,-0.96 0.320001,-2.416 0,-1.472 -0.320001,-2.4 -0.304,-0.928 -0.848,-1.36 -0.544,-0.448 -1.264,-0.448 -0.704,0 -1.264,0.448 -0.544,0.432 -0.864,1.36 -0.304,0.928 -0.304,2.4 0,1.456 0.304,2.416 0.32,0.944 0.864,1.408 0.56,0.448 1.264,0.448 z m 0,-3.312 q -0.4,0 -0.704,-0.288 -0.288,-0.288 -0.288,-0.784 0,-0.496 0.288,-0.768 0.304,-0.288 0.704,-0.288 0.416,0 0.704,0.288 0.288,0.272 0.288,0.768 0,0.496 -0.288,0.784 -0.288,0.288 -0.704,0.288 z"
       id="path1060"
       style="fill:#ffffff;fill-opacity:0.8" />
    <path
       d="m -92.642413,62.1248 q -1.136,0 -1.952,-0.624 -0.816,-0.64 -1.264,-1.824 -0.448,-1.184 -0.448,-2.88 0,-2.576 0.976,-3.92 0.992,-1.344 2.688,-1.344 1.712,0 2.688,1.344 0.976,1.344 0.976,3.92 0,1.696 -0.448,2.88 -0.432,1.184 -1.264,1.824 -0.816,0.624 -1.952,0.624 z m 0,-1.056 q 0.72,0 1.264,-0.448 0.544,-0.464 0.848,-1.408 0.32,-0.96 0.32,-2.416 0,-1.472 -0.32,-2.4 -0.304,-0.928 -0.848,-1.36 -0.544,-0.448 -1.264,-0.448 -0.704,0 -1.264,0.448 -0.544,0.432 -0.864,1.36 -0.304,0.928 -0.304,2.4 0,1.456 0.304,2.416 0.32,0.944 0.864,1.408 0.56,0.448 1.264,0.448 z m 0,-3.312 q -0.4,0 -0.704,-0.288 -0.288,-0.288 -0.288,-0.784 0,-0.496 0.288,-0.768 0.304,-0.288 0.704,-0.288 0.416,0 0.704,0.288 0.288,0.272 0.288,0.768 0,0.496 -0.288,0.784 -0.288,0.288 -0.704,0.288 z"
       id="path1062"
       style="fill:#ffffff;fill-opacity:0.8" />
    <path
       d="m -83.042407,62.1248 q -1.136,0 -1.952,-0.624 -0.816,-0.64 -1.264,-1.824 -0.448,-1.184 -0.448,-2.88 0,-2.576 0.976,-3.92 0.992,-1.344 2.688,-1.344 1.712,0 2.688,1.344 0.976,1.344 0.976,3.92 0,1.696 -0.448,2.88 -0.432,1.184 -1.264,1.824 -0.816,0.624 -1.952,0.624 z m 0,-1.056 q 0.72,0 1.264,-0.448 0.544,-0.464 0.848,-1.408 0.32,-0.96 0.32,-2.416 0,-1.472 -0.32,-2.4 -0.304,-0.928 -0.848,-1.36 -0.544,-0.448 -1.264,-0.448 -0.704,0 -1.264,0.448 -0.544,0.432 -0.864,1.36 -0.304,0.928 -0.304,2.4 0,1.456 0.304,2.416 0.32,0.944 0.864,1.408 0.56,0.448 1.264,0.448 z m 0,-3.312 q -0.4,0 -0.704,-0.288 -0.288,-0.288 -0.288,-0.784 0,-0.496 0.288,-0.768 0.304,-0.288 0.704,-0.288 0.416,0 0.704,0.288 0.288,0.272 0.288,0.768 0,0.496 -0.288,0.784 -0.288,0.288 -0.704,0.288 z"
       id="path1064"
       style="fill:#ffffff;fill-opacity:0.8" />
    <path
       d="m -76.690401,61.9328 v -1.088 h 2.944 v -7.52 h -2.288 v -0.848 q 0.608,-0.08 1.072,-0.192 0.464,-0.112 0.848,-0.24 0.384,-0.144 0.704,-0.32 h 0.976 v 9.12 h 2.672 v 1.088 z"
       id="path1066"
       style="fill:#ffffff;fill-opacity:0.8" />
    <path
       d="m -67.090395,61.9328 v -1.088 h 2.944 v -7.52 h -2.288 v -0.848 q 0.608,-0.08 1.072,-0.192 0.464,-0.112 0.848,-0.24 0.384,-0.144 0.704,-0.32 h 0.976 v 9.12 h 2.672 v 1.088 z"
       id="path1068"
       style="fill:#ffffff;fill-opacity:0.8" />
    <path
       d="m -131.04244,82.1248 q -1.136,0 -1.952,-0.624 -0.816,-0.64 -1.264,-1.824 -0.448,-1.184 -0.448,-2.88 0,-2.576 0.976,-3.92 0.992,-1.344 2.688,-1.344 1.712,0 2.688,1.344 0.976,1.344 0.976,3.92 0,1.696 -0.448,2.88 -0.432,1.184 -1.264,1.824 -0.816,0.624 -1.952,0.624 z m 0,-1.056 q 0.72,0 1.264,-0.448 0.544,-0.464 0.848,-1.408 0.32,-0.96 0.32,-2.416 0,-1.472 -0.32,-2.4 -0.304,-0.928 -0.848,-1.36 -0.544,-0.448 -1.264,-0.448 -0.704,0 -1.264,0.448 -0.544,0.432 -0.864,1.36 -0.304,0.928 -0.304,2.4 0,1.456 0.304,2.416 0.32,0.944 0.864,1.408 0.56,0.448 1.264,0.448 z m 0,-3.312 q -0.4,0 -0.704,-0.288 -0.288,-0.288 -0.288,-0.784 0,-0.496 0.288,-0.768 0.304,-0.288 0.704,-0.288 0.416,0 0.704,0.288 0.288,0.272 0.288,0.768 0,0.496 -0.288,0.784 -0.288,0.288 -0.704,0.288 z"
       id="path1070"
       style="fill:#ffffff;fill-opacity:0.8" />
    <path
       d="m -124.69043,81.9328 v -1.088 h 2.944 v -7.52 h -2.288 v -0.848 q 0.608,-0.08 1.072,-0.192 0.464,-0.112 0.848,-0.24 0.384,-0.144 0.704,-0.32 h 0.976 v 9.12 h 2.672 v 1.088 z"
       id="path1072"
       style="fill:#ffffff;fill-opacity:0.8" />
    <path
       d="m -115.09043,81.9328 v -1.088 h 2.944 v -7.52 h -2.288 v -0.848 q 0.608,-0.08 1.072,-0.192 0.464,-0.112 0.848,-0.24 0.384,-0.144 0.704,-0.32 h 0.976 v 9.12 h 2.672 v 1.088 z"
       id="path1074"
       style="fill:#ffffff;fill-opacity:0.8" />
    <path
       d="m -105.49042,81.9328 v -1.088 h 2.944 v -7.52 h -2.288 v -0.848 q 0.608,-0.08 1.072,-0.192 0.464,-0.112 0.848,-0.24 0.384,-0.144 0.704,-0.32 h 0.976 v 9.12 h 2.672001 v 1.088 z"
       id="path1076"
       style="fill:#ffffff;fill-opacity:0.8" />
    <path
       d="m -92.642413,82.1248 q -1.136,0 -1.952,-0.624 -0.816,-0.64 -1.264,-1.824 -0.448,-1.184 -0.448,-2.88 0,-2.576 0.976,-3.92 0.992,-1.344 2.688,-1.344 1.712,0 2.688,1.344 0.976,1.344 0.976,3.92 0,1.696 -0.448,2.88 -0.432,1.184 -1.264,1.824 -0.816,0.624 -1.952,0.624 z m 0,-1.056 q 0.72,0 1.264,-0.448 0.544,-0.464 0.848,-1.408 0.32,-0.96 0.32,-2.416 0,-1.472 -0.32,-2.4 -0.304,-0.928 -0.848,-1.36 -0.544,-0.448 -1.264,-0.448 -0.704,0 -1.264,0.448 -0.544,0.432 -0.864,1.36 -0.304,0.928 -0.304,2.4 0,1.456 0.304,2.416 0.32,0.944 0.864,1.408 0.56,0.448 1.264,0.448 z m 0,-3.312 q -0.4,0 -0.704,-0.288 -0.288,-0.288 -0.288,-0.784 0,-0.496 0.288,-0.768 0.304,-0.288 0.704,-0.288 0.416,0 0.704,0.288 0.288,0.272 0.288,0.768 0,0.496 -0.288,0.784 -0.288,0.288 -0.704,0.288 z"
       id="path1078"
       style="fill:#ffffff;fill-opacity:0.8" />
    <path
       d="m -86.290407,81.9328 v -1.088 h 2.944 v -7.52 h -2.288 v -0.848 q 0.608,-0.08 1.072,-0.192 0.464,-0.112 0.848,-0.24 0.384,-0.144 0.704,-0.32 h 0.976 v 9.12 h 2.672 v 1.088 z"
       id="path1080"
       style="fill:#ffffff;fill-opacity:0.8" />
    <path
       d="m -73.442401,82.1248 q -1.136,0 -1.952,-0.624 -0.816,-0.64 -1.264,-1.824 -0.448,-1.184 -0.448,-2.88 0,-2.576 0.976,-3.92 0.992,-1.344 2.688,-1.344 1.712,0 2.688,1.344 0.976,1.344 0.976,3.92 0,1.696 -0.448,2.88 -0.432,1.184 -1.264,1.824 -0.816,0.624 -1.952,0.624 z m 0,-1.056 q 0.72,0 1.264,-0.448 0.544,-0.464 0.848,-1.408 0.32,-0.96 0.32,-2.416 0,-1.472 -0.32,-2.4 -0.304,-0.928 -0.848,-1.36 -0.544,-0.448 -1.264,-0.448 -0.704,0 -1.264,0.448 -0.544,0.432 -0.864,1.36 -0.304,0.928 -0.304,2.4 0,1.456 0.304,2.416 0.32,0.944 0.864,1.408 0.56,0.448 1.264,0.448 z m 0,-3.312 q -0.4,0 -0.704,-0.288 -0.288,-0.288 -0.288,-0.784 0,-0.496 0.288,-0.768 0.304,-0.288 0.704,-0.288 0.416,0 0.704,0.288 0.288,0.272 0.288,0.768 0,0.496 -0.288,0.784 -0.288,0.288 -0.704,0.288 z"
       id="path1082"
       style="fill:#ffffff;fill-opacity:0.8" />
    <path
       d="m -63.842395,82.1248 q -1.136,0 -1.952,-0.624 -0.816,-0.64 -1.264,-1.824 -0.448,-1.184 -0.448,-2.88 0,-2.576 0.976,-3.92 0.992,-1.344 2.688,-1.344 1.712,0 2.688,1.344 0.976,1.344 0.976,3.92 0,1.696 -0.448,2.88 -0.432,1.184 -1.264,1.824 -0.816,0.624 -1.952,0.624 z m 0,-1.056 q 0.72,0 1.264,-0.448 0.544,-0.464 0.848,-1.408 0.32,-0.96 0.32,-2.416 0,-1.472 -0.32,-2.4 -0.304,-0.928 -0.848,-1.36 -0.544,-0.448 -1.264,-0.448 -0.704,0 -1.264,0.448 -0.544,0.432 -0.864,1.36 -0.304,0.928 -0.304,2.4 0,1.456 0.304,2.416 0.32,0.944 0.864,1.408 0.56,0.448 1.264,0.448 z m 0,-3.312 q -0.4,0 -0.704,-0.288 -0.288,-0.288 -0.288,-0.784 0,-0.496 0.288,-0.768 0.304,-0.288 0.704,-0.288 0.416,0 0.704,0.288 0.288,0.272 0.288,0.768 0,0.496 -0.288,0.784 -0.288,0.288 -0.704,0.288 z"
       id="path1084"
       style="fill:#ffffff;fill-opacity:0.8" />
    <path
       d="m -131.04244,102.1248 q -1.136,0 -1.952,-0.624 -0.816,-0.64 -1.264,-1.824 -0.448,-1.184 -0.448,-2.88 0,-2.576 0.976,-3.92 0.992,-1.344 2.688,-1.344 1.712,0 2.688,1.344 0.976,1.344 0.976,3.92 0,1.696 -0.448,2.88 -0.432,1.184 -1.264,1.824 -0.816,0.624 -1.952,0.624 z m 0,-1.056 q 0.72,0 1.264,-0.448 0.544,-0.464 0.848,-1.408 0.32,-0.96 0.32,-2.416 0,-1.472 -0.32,-2.4 -0.304,-0.928 -0.848,-1.36 -0.544,-0.448 -1.264,-0.448 -0.704,0 -1.264,0.448 -0.544,0.432 -0.864,1.36 -0.304,0.928 -0.304,2.4 0,1.456 0.304,2.416 0.32,0.944 0.864,1.408 0.56,0.448 1.264,0.448 z m 0,-3.312 q -0.4,0 -0.704,-0.288 -0.288,-0.288 -0.288,-0.784 0,-0.496 0.288,-0.768 0.304,-0.288 0.704,-0.288 0.416,0 0.704,0.288 0.288,0.272 0.288,0.768 0,0.496 -0.288,0.784 -0.288,0.288 -0.704,0.288 z"
       id="path1086"
       style="fill:#ffffff;fill-opacity:0.8" />
    <path
       d="m -124.69043,101.9328 v -1.088 h 2.944 v -7.52 h -2.288 v -0.848 q 0.608,-0.08 1.072,-0.192 0.464,-0.112 0.848,-0.24 0.384,-0.144 0.704,-0.32 h 0.976 v 9.12 h 2.672 v 1.088 z"
       id="path1088"
       style="fill:#ffffff;fill-opacity:0.8" />
    <path
       d="m -115.09043,101.9328 v -1.088 h 2.944 v -7.52 h -2.288 v -0.848 q 0.608,-0.08 1.072,-0.192 0.464,-0.112 0.848,-0.24 0.384,-0.144 0.704,-0.32 h 0.976 v 9.12 h 2.672 v 1.088 z"
       id="path1090"
       style="fill:#ffffff;fill-opacity:0.8" />
    <path
       d="m -102.24242,102.1248 q -1.136,0 -1.952,-0.624 -0.816,-0.64 -1.264,-1.824 -0.448,-1.184 -0.448,-2.88 0,-2.576 0.976,-3.92 0.992,-1.344 2.688,-1.344 1.712,0 2.688001,1.344 0.976,1.344 0.976,3.92 0,1.696 -0.448,2.88 -0.432,1.184 -1.264001,1.824 -0.816,0.624 -1.952,0.624 z m 0,-1.056 q 0.72,0 1.264,-0.448 0.544,-0.464 0.848,-1.408 0.320001,-0.96 0.320001,-2.416 0,-1.472 -0.320001,-2.4 -0.304,-0.928 -0.848,-1.36 -0.544,-0.448 -1.264,-0.448 -0.704,0 -1.264,0.448 -0.544,0.432 -0.864,1.36 -0.304,0.928 -0.304,2.4 0,1.456 0.304,2.416 0.32,0.944 0.864,1.408 0.56,0.448 1.264,0.448 z m 0,-3.312 q -0.4,0 -0.704,-0.288 -0.288,-0.288 -0.288,-0.784 0,-0.496 0.288,-0.768 0.304,-0.288 0.704,-0.288 0.416,0 0.704,0.288 0.288,0.272 0.288,0.768 0,0.496 -0.288,0.784 -0.288,0.288 -0.704,0.288 z"
       id="path1092"
       style="fill:#ffffff;fill-opacity:0.8" />
    <path
       d="m -95.890413,101.9328 v -1.088 h 2.944 v -7.52 h -2.288 v -0.848 q 0.608,-0.08 1.072,-0.192 0.464,-0.112 0.848,-0.24 0.384,-0.144 0.704,-0.32 h 0.976 v 9.12 h 2.672 v 1.088 z"
       id="path1094"
       style="fill:#ffffff;fill-opacity:0.8" />
    <path
       d="m -86.290407,101.9328 v -1.088 h 2.944 v -7.52 h -2.288 v -0.848 q 0.608,-0.08 1.072,-0.192 0.464,-0.112 0.848,-0.24 0.384,-0.144 0.704,-0.32 h 0.976 v 9.12 h 2.672 v 1.088 z"
       id="path1096"
       style="fill:#ffffff;fill-opacity:0.8" />
    <path
       d="m -76.690401,101.9328 v -1.088 h 2.944 v -7.52 h -2.288 v -0.848 q 0.608,-0.08 1.072,-0.192 0.464,-0.112 0.848,-0.24 0.384,-0.144 0.704,-0.32 h 0.976 v 9.12 h 2.672 v 1.088 z"
       id="path1098"
       style="fill:#ffffff;fill-opacity:0.8" />
    <path
       d="m -67.090395,101.9328 v -1.088 h 2.944 v -7.52 h -2.288 v -0.848 q 0.608,-0.08 1.072,-0.192 0.464,-0.112 0.848,-0.24 0.384,-0.144 0.704,-0.32 h 0.976 v 9.12 h 2.672 v 1.088 z"
       id="path1100"
       style="fill:#ffffff;fill-opacity:0.8" />
  </g>
</svg>
