<?xml version="1.0" encoding="UTF-8" standalone="no"?>
<svg
   height="128px"
   viewBox="0 0 128 128"
   width="128px"
   version="1.1"
   id="svg35"
   xml:space="preserve"
   xmlns="http://www.w3.org/2000/svg"
   xmlns:svg="http://www.w3.org/2000/svg"><defs
     id="defs39" /><linearGradient
     id="a"
     gradientUnits="userSpaceOnUse"
     x1="36"
     x2="60"
     y1="68"
     y2="68"><stop
       offset="0"
       stop-color="#ed336c"
       id="stop2" /><stop
       offset="1"
       stop-color="#ffa348"
       id="stop4" /></linearGradient><linearGradient
     id="b"
     gradientTransform="matrix(0 1 -1 0 144 -32)"
     gradientUnits="userSpaceOnUse"
     x1="72"
     x2="96"
     y1="68"
     y2="68"><stop
       offset="0"
       stop-color="#404ce6"
       id="stop7" /><stop
       offset="1"
       stop-color="#c061cb"
       id="stop9" /></linearGradient><linearGradient
     id="c"
     gradientUnits="userSpaceOnUse"
     x1="68.84919"
     x2="95.257637"
     y1="84"
     y2="84"><stop
       offset="0"
       stop-color="#33d1c6"
       id="stop12" /><stop
       offset="1"
       stop-color="#1c25d8"
       id="stop14" /></linearGradient><path
     style="display:inline;fill:#10004d;fill-opacity:1;stroke:none;stroke-width:0.124969;stroke-linejoin:round;stroke-miterlimit:4;stroke-dasharray:none;stroke-opacity:1;enable-background:new"
     clip-path="none"
     d="M 27.996067,8.0000006 H 77.971105 L 107.999,37.917894 108,111.9779 c 8e-5,4.432 -3.61039,8.0221 -8.040179,8.0221 H 27.996006 c -4.429786,0 -7.996005,-3.568 -7.996005,-8.00001 V 16 c 0,-4.431999 3.566219,-7.9999994 7.996005,-7.9999994 z"
     id="path4411" /><path
     style="display:inline;vector-effect:none;fill:#ff3254;fill-opacity:1;stroke:none;stroke-width:0.125;stroke-linecap:butt;stroke-linejoin:round;stroke-miterlimit:4;stroke-dasharray:none;stroke-dashoffset:0;stroke-opacity:1;enable-background:new"
     d="M 77.957103,8.0000006 V 30.000002 c 0,4.432 3.610527,7.923448 8.042527,7.923448 L 108,37.91795 Z"
     id="path4413" /><g
     id="g27623"
     transform="translate(-42.84528,135.33545)"
     style="stroke-width:0.25" /><g
     style="stroke-width:2.62472"
     transform="matrix(0.0952482,0,0,0.0952482,498.72128,-49.974552)"
     id="g27623-5" /><g
     id="g1893"
     transform="matrix(0.0952482,0,0,0.0952482,-624.92113,-414.82765)"
     style="stroke-width:2.62472" /><g
     style="stroke-width:0.25"
     transform="matrix(0.2447541,0,0,0.2447541,-257.6935,146.47785)"
     id="g1879" /><g
     transform="matrix(0.5,0,0,0.5,-638.4877,-382.02941)"
     id="g15395"
     style="display:inline;fill:#c0bfbc;stroke-width:2;enable-background:new" /><g
     style="display:inline;fill:#deddda;stroke-width:2;enable-background:new"
     id="g15401"
     transform="matrix(0.5,0,0,0.5,-638.4877,-381.02941)" /><g
     style="display:inline;fill:#c0bfbc;stroke-width:2;enable-background:new"
     id="g15421"
     transform="matrix(0.5,0,0,0.5,-641.4877,-345.02941)" /><g
     transform="matrix(0.5,0,0,0.5,-641.4877,-344.02941)"
     id="g15423"
     style="display:inline;fill:#deddda;stroke-width:2;enable-background:new" /><g
     id="g4417"
     transform="matrix(0.2447541,0,0,0.2447541,-413.21244,146.47785)"
     style="stroke-width:0.25" /><g
     style="stroke-width:2.62472"
     transform="matrix(0.0952482,0,0,0.0952482,-597.94532,-105.8707)"
     id="g4431" /><g
     aria-label="{}"
     id="text6392"
     style="font-size:56px;line-height:1.25;font-family:Cantarell;-inkscape-font-specification:Cantarell;letter-spacing:-2px"
     transform="translate(-258.3226,94.213748)" /><text
     xml:space="preserve"
     style="font-size:56px;line-height:1.25;font-family:'Source Code Pro';-inkscape-font-specification:'Source Code Pro'"
     x="-223.57693"
     y="135.18233"
     id="text18928"><tspan
       id="tspan18926" /></text><path
     id="path38"
     d="m 64.140969,47.92419 c -11.97483,0 -21.68167,9.898945 -21.681788,22.108368 1.2e-4,1.792424 0.208609,4.149421 0.60309,5.817591 h 0.92915 c -0.168841,-1.031779 -0.25741,-2.710485 -0.25741,-3.797496 0,-9.57599 6.85238,-17.340023 15.30521,-17.340023 8.45284,0 15.30522,7.764033 15.30522,17.340023 0,0.910028 -0.0622,2.729001 -0.18141,3.601373 H 85.33243 c 0.32108,-1.513782 0.490315,-4.009778 0.490315,-5.621468 0,-12.209433 -9.706954,-22.108368 -21.681776,-22.108368 z m -4.3295,28.764404 -4.38588,15.194896 -2.41236,-7.925965 -3.10369,8.389318 3.10369,8.499627 2.41236,-8.033833 4.38588,15.111553 4.807551,-15.577347 z M 47.90414,79.125469 c -7.14113,0 -12.92963,5.919815 -12.92963,13.221374 0,7.300292 5.7885,13.218927 12.92963,13.218927 z m 31.902427,0.17162 c -7.299926,0 -13.216476,5.843617 -13.216476,13.049776 0,7.204901 5.91655,13.044865 13.216476,13.044865 7.299796,0 13.218923,-5.839964 13.218923,-13.044865 0,-7.206159 -5.919127,-13.049776 -13.218923,-13.049776 z"
     style="fill:#ff3254;fill-opacity:1;stroke-width:1.25521" /></svg>
