<?xml version="1.0" encoding="UTF-8" standalone="no"?>
<svg
   height="128px"
   viewBox="0 0 128 128"
   width="128px"
   version="1.1"
   id="svg35"
   sodipodi:docname="application-x-pure-data.svg"
   xml:space="preserve"
   inkscape:version="1.4.2 (ebf0e940d0, 2025-05-08)"
   xmlns:inkscape="http://www.inkscape.org/namespaces/inkscape"
   xmlns:sodipodi="http://sodipodi.sourceforge.net/DTD/sodipodi-0.dtd"
   xmlns:xlink="http://www.w3.org/1999/xlink"
   xmlns="http://www.w3.org/2000/svg"
   xmlns:svg="http://www.w3.org/2000/svg"><sodipodi:namedview
     id="namedview1"
     pagecolor="#ffffff"
     bordercolor="#000000"
     borderopacity="0.25"
     inkscape:showpageshadow="2"
     inkscape:pageopacity="0.0"
     inkscape:pagecheckerboard="0"
     inkscape:deskcolor="#d1d1d1"
     inkscape:zoom="4.671875"
     inkscape:cx="66.782609"
     inkscape:cy="89.899666"
     inkscape:window-width="2560"
     inkscape:window-height="1403"
     inkscape:window-x="0"
     inkscape:window-y="0"
     inkscape:window-maximized="1"
     inkscape:current-layer="svg35" /><defs
     id="defs39"><radialGradient
       xlink:href="#linearGradient3819"
       id="radialGradient5898-62-1"
       gradientUnits="userSpaceOnUse"
       gradientTransform="matrix(0.25996382,0,0,0.25996382,131.40701,150.23561)"
       cx="81.936386"
       cy="33.185158"
       fx="81.936386"
       fy="33.185158"
       r="57.27565" /><linearGradient
       id="linearGradient3819"><stop
         style="stop-color:#0000ed;stop-opacity:1;"
         offset="0"
         id="stop3815" /><stop
         style="stop-color:#0000cc;stop-opacity:0.94901961;"
         offset="1"
         id="stop3817" /></linearGradient><radialGradient
       xlink:href="#linearGradient5980"
       id="radialGradient6134-8-2"
       gradientUnits="userSpaceOnUse"
       gradientTransform="matrix(1.0406658,-1.9277132e-7,1.7052487e-7,0.92056944,72.877661,100.00547)"
       cx="76"
       cy="65.976921"
       fx="76"
       fy="65.976921"
       r="13.220703" /><linearGradient
       id="linearGradient5980"><stop
         id="stop5978"
         offset="0"
         style="stop-color:#3d3846;stop-opacity:0;" /><stop
         id="stop5976"
         offset="1"
         style="stop-color:#3d3846;stop-opacity:0.25210086" /></linearGradient><radialGradient
       xlink:href="#linearGradient5279"
       id="radialGradient5900-2-8"
       gradientUnits="userSpaceOnUse"
       gradientTransform="matrix(0.74481633,0.00292551,-0.00277071,0.70540363,67.735532,118.80449)"
       cx="134.30902"
       cy="55.279427"
       fx="134.30902"
       fy="55.279427"
       r="58.46003" /><linearGradient
       id="linearGradient5279"><stop
         style="stop-color:#8383ff;stop-opacity:1;"
         offset="0"
         id="stop5273" /><stop
         id="stop5275"
         offset="0.64924306"
         style="stop-color:#0000ed;stop-opacity:1;" /><stop
         style="stop-color:#8484ff;stop-opacity:1;"
         offset="1"
         id="stop5277" /></linearGradient><radialGradient
       xlink:href="#linearGradient5289"
       id="radialGradient5902-7-6"
       gradientUnits="userSpaceOnUse"
       gradientTransform="matrix(1.2966035,0.03980075,-0.06244796,2.0343897,-37.085859,-506.76137)"
       cx="183.52466"
       cy="320.79443"
       fx="183.52466"
       fy="320.79443"
       r="20.486324" /><linearGradient
       id="linearGradient5289"><stop
         style="stop-color:#4848ff;stop-opacity:1;"
         offset="0"
         id="stop5281" /><stop
         id="stop5283"
         offset="0.31057373"
         style="stop-color:#1111ff;stop-opacity:1;" /><stop
         style="stop-color:#000086;stop-opacity:1;"
         offset="0.68832356"
         id="stop5285" /><stop
         style="stop-color:#6060ff;stop-opacity:1;"
         offset="1"
         id="stop5287" /></linearGradient><radialGradient
       xlink:href="#linearGradient6142"
       id="radialGradient6953-8-4"
       gradientUnits="userSpaceOnUse"
       gradientTransform="matrix(37.758633,0,0,19.739207,-7268.8978,-1304.0032)"
       cx="197.71869"
       cy="68.10688"
       fx="197.71869"
       fy="68.10688"
       r="2.5002501" /><linearGradient
       id="linearGradient6142"><stop
         style="stop-color:#ffffff;stop-opacity:1;"
         offset="0"
         id="stop6138" /><stop
         style="stop-color:#ffffff;stop-opacity:0;"
         offset="1"
         id="stop6140" /></linearGradient><filter
       style="color-interpolation-filters:sRGB"
       id="filter7035-3-1"
       x="-1.4681916"
       width="3.9363832"
       y="-0.058004519"
       height="1.116009"><feGaussianBlur
         stdDeviation="3.0590383"
         id="feGaussianBlur7037-6-7" /></filter><radialGradient
       xlink:href="#linearGradient6142"
       id="radialGradient6690-1-2"
       gradientUnits="userSpaceOnUse"
       gradientTransform="matrix(9.9903049,0,0,5.2226651,-1819.6183,-199.09239)"
       cx="197.74678"
       cy="69.253197"
       fx="197.74678"
       fy="69.253197"
       r="2.5002501" /><radialGradient
       xlink:href="#linearGradient3819"
       id="radialGradient5898-62"
       gradientUnits="userSpaceOnUse"
       gradientTransform="matrix(0.25996382,0,0,0.25996382,131.40701,150.23561)"
       cx="81.936386"
       cy="33.185158"
       fx="81.936386"
       fy="33.185158"
       r="57.27565" /><radialGradient
       xlink:href="#linearGradient5980"
       id="radialGradient6134-8"
       gradientUnits="userSpaceOnUse"
       gradientTransform="matrix(1.0406658,-1.9277132e-7,1.7052487e-7,0.92056944,72.877661,100.00547)"
       cx="76"
       cy="65.976921"
       fx="76"
       fy="65.976921"
       r="13.220703" /><radialGradient
       xlink:href="#linearGradient5279"
       id="radialGradient5900-2"
       gradientUnits="userSpaceOnUse"
       gradientTransform="matrix(0.74481633,0.00292551,-0.00277071,0.70540363,67.735532,118.80449)"
       cx="134.30902"
       cy="55.279427"
       fx="134.30902"
       fy="55.279427"
       r="58.46003" /><radialGradient
       xlink:href="#linearGradient5289"
       id="radialGradient5902-7"
       gradientUnits="userSpaceOnUse"
       gradientTransform="matrix(1.2966035,0.03980075,-0.06244796,2.0343897,-37.085859,-506.76137)"
       cx="183.52466"
       cy="320.79443"
       fx="183.52466"
       fy="320.79443"
       r="20.486324" /><radialGradient
       xlink:href="#linearGradient6142"
       id="radialGradient6953-8"
       gradientUnits="userSpaceOnUse"
       gradientTransform="matrix(37.758633,0,0,19.739207,-7268.8978,-1304.0032)"
       cx="197.71869"
       cy="68.10688"
       fx="197.71869"
       fy="68.10688"
       r="2.5002501" /><filter
       style="color-interpolation-filters:sRGB"
       id="filter7035-3"
       x="-1.4681916"
       width="3.9363832"
       y="-0.058004519"
       height="1.116009"><feGaussianBlur
         stdDeviation="3.0590383"
         id="feGaussianBlur7037-6" /></filter><radialGradient
       xlink:href="#linearGradient6142"
       id="radialGradient6690-1"
       gradientUnits="userSpaceOnUse"
       gradientTransform="matrix(9.9903049,0,0,5.2226651,-1819.6183,-199.09239)"
       cx="197.74678"
       cy="69.253197"
       fx="197.74678"
       fy="69.253197"
       r="2.5002501" /><radialGradient
       xlink:href="#linearGradient5517"
       id="radialGradient5640-3"
       cx="282.1377"
       cy="-218.9213"
       fx="282.1377"
       fy="-218.9213"
       r="128.51855"
       gradientTransform="matrix(0.29979862,0.00987447,-0.00507341,0.15403427,-231.50444,89.352736)"
       gradientUnits="userSpaceOnUse" /><linearGradient
       id="linearGradient5517"><stop
         style="stop-color:#000093;stop-opacity:1;"
         offset="0"
         id="stop5513" /><stop
         style="stop-color:#0000ed;stop-opacity:0.96078432;"
         offset="1"
         id="stop5515" /></linearGradient><radialGradient
       xlink:href="#linearGradient5529"
       id="radialGradient5648-7"
       cx="281.38574"
       cy="-269.13684"
       fx="281.38574"
       fy="-269.13684"
       r="144.51788"
       gradientTransform="matrix(0.27243919,0,0,0.09944889,-222.67463,78.622042)"
       gradientUnits="userSpaceOnUse" /><linearGradient
       id="linearGradient5529"><stop
         style="stop-color:#0c0cff;stop-opacity:1;"
         offset="0"
         id="stop5525" /><stop
         style="stop-color:#0000ed;stop-opacity:0.98431373;"
         offset="1"
         id="stop5527" /></linearGradient><linearGradient
       xlink:href="#linearGradient5511"
       id="linearGradient1738"
       gradientUnits="userSpaceOnUse"
       gradientTransform="matrix(0.27243919,0,0,0.27243919,-222.67463,102.19684)"
       x1="137.61646"
       y1="-138.58612"
       x2="426.65503"
       y2="-138.58612" /><linearGradient
       id="linearGradient5511"><stop
         style="stop-color:#0000d4;stop-opacity:1;"
         offset="0"
         id="stop5489" /><stop
         id="stop5491"
         offset="0.07799384"
         style="stop-color:#0000d5;stop-opacity:1;" /><stop
         style="stop-color:#3838ff;stop-opacity:1;"
         offset="0.10368115"
         id="stop5493" /><stop
         style="stop-color:#0000d7;stop-opacity:1;"
         offset="0.11958282"
         id="stop5495" /><stop
         id="stop5497"
         offset="0.28471547"
         style="stop-color:#000086;stop-opacity:1;" /><stop
         id="stop5499"
         offset="0.49999952"
         style="stop-color:#0000b2;stop-opacity:1;" /><stop
         style="stop-color:#0000fd;stop-opacity:1;"
         offset="0.76176536"
         id="stop5501" /><stop
         id="stop5503"
         offset="0.87430018"
         style="stop-color:#0000d6;stop-opacity:1;" /><stop
         style="stop-color:#2e2eff;stop-opacity:1;"
         offset="0.90488034"
         id="stop5505" /><stop
         id="stop5507"
         offset="0.94891572"
         style="stop-color:#0000d6;stop-opacity:1;" /><stop
         style="stop-color:#0000d5;stop-opacity:1;"
         offset="1"
         id="stop5509" /></linearGradient><linearGradient
       xlink:href="#linearGradient5511"
       id="linearGradient1736"
       gradientUnits="userSpaceOnUse"
       gradientTransform="matrix(0.27243919,0,0,0.27243919,-222.86498,101.87957)"
       x1="137.61646"
       y1="-138.58612"
       x2="426.65503"
       y2="-138.58612" /><filter
       style="color-interpolation-filters:sRGB"
       id="filter10359"
       y="0"
       height="1"
       x="-inf"
       width="inf"><feComposite
         in2="SourceGraphic"
         operator="arithmetic"
         k1="0"
         k2="1.00448"
         result="composite1"
         id="feComposite10345"
         k3="0"
         k4="0" /><feColorMatrix
         in="composite1"
         values="0"
         type="saturate"
         result="colormatrix1"
         id="feColorMatrix10347" /><feFlood
         flood-opacity="0.8"
         flood-color="rgb(33,150,243)"
         result="flood1"
         id="feFlood10349" /><feBlend
         in="flood1"
         in2="colormatrix1"
         mode="darken"
         result="blend1"
         id="feBlend10351" /><feBlend
         in2="blend1"
         mode="multiply"
         result="blend2"
         id="feBlend10353" /><feColorMatrix
         in="blend2"
         values="1"
         type="saturate"
         result="colormatrix2"
         id="feColorMatrix10355" /><feComposite
         in="colormatrix2"
         in2="SourceGraphic"
         operator="in"
         result="composite2"
         id="feComposite10357" /></filter><linearGradient
       xlink:href="#linearGradient8223"
       id="linearGradient8225"
       x1="225.79828"
       y1="161.37148"
       x2="225.82959"
       y2="213.58566"
       gradientUnits="userSpaceOnUse"
       spreadMethod="pad"
       gradientTransform="matrix(0.93985197,0,0,0.80947274,-356.8007,-34.172355)" /><linearGradient
       id="linearGradient8223"><stop
         style="stop-color:#f3e517;stop-opacity:1;"
         offset="0"
         id="stop8219" /><stop
         style="stop-color:#ff7901;stop-opacity:1;"
         offset="1"
         id="stop8221" /></linearGradient><linearGradient
       xlink:href="#linearGradient5511"
       id="linearGradient9756"
       gradientUnits="userSpaceOnUse"
       gradientTransform="matrix(0.27243919,0,0,0.27243919,-222.67463,102.19684)"
       x1="137.61646"
       y1="-138.58612"
       x2="426.65503"
       y2="-138.58612" /></defs><linearGradient
     id="a"
     gradientUnits="userSpaceOnUse"
     x1="36"
     x2="60"
     y1="68"
     y2="68"><stop
       offset="0"
       stop-color="#ed336c"
       id="stop2" /><stop
       offset="1"
       stop-color="#ffa348"
       id="stop4" /></linearGradient><linearGradient
     id="b"
     gradientTransform="matrix(0 1 -1 0 144 -32)"
     gradientUnits="userSpaceOnUse"
     x1="72"
     x2="96"
     y1="68"
     y2="68"><stop
       offset="0"
       stop-color="#404ce6"
       id="stop7" /><stop
       offset="1"
       stop-color="#c061cb"
       id="stop9" /></linearGradient><linearGradient
     id="c"
     gradientUnits="userSpaceOnUse"
     x1="68.84919"
     x2="95.257637"
     y1="84"
     y2="84"><stop
       offset="0"
       stop-color="#33d1c6"
       id="stop12" /><stop
       offset="1"
       stop-color="#1c25d8"
       id="stop14" /></linearGradient><path
     style="display:inline;fill:#f6f5f4;fill-opacity:1;stroke:none;stroke-width:0.125;stroke-linejoin:round;stroke-miterlimit:4;stroke-dasharray:none;stroke-opacity:1;enable-background:new"
     clip-path="none"
     d="m 27.978072,8.0000006 h 50.000002 l 30.042896,29.9178934 10e-4,74.060006 c 8e-5,4.432 -3.6122,8.0221 -8.044196,8.0221 H 27.978011 c -4.431999,0 -7.999999,-3.568 -7.999999,-8.00001 V 16 c 0,-4.431999 3.568,-7.9999994 7.999999,-7.9999994 z"
     id="path4411" /><path
     style="display:inline;vector-effect:none;fill:#deddda;fill-opacity:1;stroke:none;stroke-width:0.125;stroke-linecap:butt;stroke-linejoin:round;stroke-miterlimit:4;stroke-dasharray:none;stroke-dashoffset:0;stroke-opacity:1;enable-background:new"
     d="M 77.978074,8.0000006 V 30.000002 c 0,4.432 3.610527,7.923448 8.042527,7.923448 l 22.000369,-0.0055 z"
     id="path4413" /><g
     style="clip-rule:evenodd;display:inline;fill-rule:evenodd;stroke-linejoin:round;stroke-miterlimit:2"
     id="g1"
     transform="matrix(0.95257337,0,0,1,-428.27604,230.70011)"><g
       transform="translate(10.516,7.7643)"
       id="g6"><g
         transform="matrix(0.12350055,0,0,0.122691,469.48721,-172.23745)"
         stroke-width="7.2756"
         aria-label="pd~"
         id="g5"><path
           d="m 97.316,228.37 c 13.969,10.186 27.356,14.551 44.235,14.551 41.034,0 71.3,-25.61 71.3,-60.532 0,-36.96 -30.557,-64.025 -72.173,-64.025 -17.461,0 -29.684,4.0743 -43.362,14.842 v -11.35 H 62.393 c -7.2755,0 -10.186,0.58205 -12.805,2.0372 -4.6563,2.9102 -7.5665,7.8576 -7.5665,13.096 0,4.6563 2.3282,9.3127 6.4025,12.223 3.2012,2.0371 6.1114,2.6192 13.969,2.6192 h 3.4923 v 120.77 H 62.393 c -7.2755,0 -10.186,0.58204 -12.805,2.0372 -4.6563,2.6192 -7.5665,7.8576 -7.5665,12.805 0,4.9474 2.3282,9.3127 6.4025,12.223 2.9102,2.3282 6.4025,2.9102 13.969,2.9102 h 50.638 c 6.6935,0 10.477,-0.58204 12.805,-2.0371 4.6563,-2.9102 7.5666,-7.8576 7.5666,-13.096 0,-4.6563 -2.3282,-9.3127 -6.4025,-12.223 -2.9102,-2.0372 -6.1114,-2.6192 -13.969,-2.6192 h -15.715 z m 42.198,-80.031 c 24.446,0 41.907,13.387 41.907,32.303 0,9.0216 -5.2384,18.625 -13.387,24.446 -7.2755,5.2384 -16.879,7.8576 -28.52,7.8576 -11.932,0 -21.536,-2.6192 -28.811,-7.8576 -7.8576,-5.8204 -13.387,-15.424 -13.387,-24.155 0,-19.207 17.17,-32.594 42.198,-32.594 z"
           id="path3" /><path
           d="m 375.82,70.053 h -34.923 c -7.5666,0 -9.8947,0.29102 -12.805,2.0371 -4.6563,2.9102 -7.5666,7.5665 -7.5666,12.805 0,4.9474 2.3282,9.3127 6.4025,12.223 3.2012,2.0371 6.1114,2.9102 13.969,2.9102 h 3.4922 v 30.848 c -11.35,-8.4396 -25.901,-12.805 -42.489,-12.805 -22.409,0 -38.997,5.8204 -52.675,18.334 -13.678,12.514 -20.662,28.811 -20.662,47.145 0,18.625 6.9845,34.923 20.662,47.436 13.678,12.514 30.266,18.334 52.384,18.334 16.879,0 28.52,-3.4922 42.78,-12.514 v 8.7306 h 34.923 c 6.9845,0 10.186,-0.58204 12.805,-2.0372 4.6563,-2.9102 7.5665,-7.8576 7.5665,-13.096 0,-4.6563 -2.3282,-9.3127 -6.4025,-12.223 -3.2012,-2.0371 -5.8204,-2.6192 -13.969,-2.6192 h -3.4922 z m -73.628,77.994 c 13.969,0 22.991,3.2012 31.139,10.768 6.9845,6.4025 11.059,15.715 11.059,24.446 0,21.536 -17.17,36.087 -42.489,36.087 -13.387,0 -22.991,-3.4922 -30.848,-10.768 -6.9845,-6.6935 -11.059,-15.715 -11.059,-25.028 0,-9.0217 4.0743,-18.043 11.059,-24.737 7.8576,-7.5666 17.17,-10.768 31.139,-10.768 z"
           id="path4" /><path
           d="m 536.76,136.41 c -6.4025,0 -10.186,2.3282 -16.588,10.477 -6.4025,8.4396 -9.8947,11.641 -12.223,11.641 -1.7461,0 -5.2384,-2.0372 -9.6037,-5.8204 -20.662,-18.043 -28.52,-22.118 -41.616,-22.118 -12.805,0 -22.7,5.2384 -34.34,18.043 -8.7306,9.6037 -11.932,15.133 -11.932,20.954 0,8.7306 7.8576,16.297 17.17,16.297 6.1114,0 9.0216,-1.7461 16.879,-11.35 7.2755,-8.4396 9.8947,-10.768 11.932,-10.768 1.4551,0 5.5294,2.6192 10.768,6.9845 17.752,15.424 29.102,21.245 41.325,21.245 12.223,0 21.536,-5.2384 32.594,-17.752 10.186,-11.641 12.514,-15.424 12.514,-21.536 0,-9.0216 -7.5665,-16.297 -16.879,-16.297 z"
           id="path5" /></g></g></g></svg>
