<?xml version="1.0" encoding="UTF-8" standalone="no"?>
<svg
   height="128px"
   viewBox="0 0 128 128"
   width="128px"
   version="1.1"
   id="svg35"
   xml:space="preserve"
   xmlns="http://www.w3.org/2000/svg"
   xmlns:svg="http://www.w3.org/2000/svg"><defs
     id="defs39"><clipPath
       id="h"><path
         d="m 4,59 h 61 v 46 H 4 Z m 0,0"
         id="path10" /></clipPath><clipPath
       id="i"><path
         d="M 64,4 C 30.863281,4 4,30.414062 4,63 4,95.585938 30.863281,122 64,122 97.136719,122 124,95.585938 124,63 124,30.414062 97.136719,4 64,4 Z m 0,47.199219 c 6.625,0 12,5.285156 12,11.800781 0,6.515625 -5.375,11.800781 -12,11.800781 -6.628906,0 -12,-5.285156 -12,-11.800781 0,-6.515625 5.371094,-11.800781 12,-11.800781 z m 0,0"
         id="path11" /></clipPath><clipPath
       id="f"><path
         d="m 64,36 h 60 V 86 H 64 Z m 0,0"
         id="path8" /></clipPath><clipPath
       id="g"><path
         d="M 64,4 C 30.863281,4 4,30.414062 4,63 4,95.585938 30.863281,122 64,122 97.136719,122 124,95.585938 124,63 124,30.414062 97.136719,4 64,4 Z m 0,47.199219 c 6.625,0 12,5.285156 12,11.800781 0,6.515625 -5.375,11.800781 -12,11.800781 -6.628906,0 -12,-5.285156 -12,-11.800781 0,-6.515625 5.371094,-11.800781 12,-11.800781 z m 0,0"
         id="path9" /></clipPath><clipPath
       id="d"><path
         d="M 4,4 H 124 V 122 H 4 Z m 0,0"
         id="path6" /></clipPath><clipPath
       id="e"><path
         d="M 64,4 C 30.863281,4 4,30.414062 4,63 4,95.585938 30.863281,122 64,122 97.136719,122 124,95.585938 124,63 124,30.414062 97.136719,4 64,4 Z m 0,47.199219 c 6.625,0 12,5.285156 12,11.800781 0,6.515625 -5.375,11.800781 -12,11.800781 -6.628906,0 -12,-5.285156 -12,-11.800781 0,-6.515625 5.371094,-11.800781 12,-11.800781 z m 0,0"
         id="path7" /></clipPath><clipPath
       id="b-6"><path
         d="M 8,7 H 120 V 121 H 8 Z m 0,0"
         id="path4" /></clipPath><clipPath
       id="c-0"><path
         d="M 64,4 C 30.863281,4 4,30.414062 4,63 4,95.585938 30.863281,122 64,122 97.136719,122 124,95.585938 124,63 124,30.414062 97.136719,4 64,4 Z m 0,47.199219 c 6.625,0 12,5.285156 12,11.800781 0,6.515625 -5.375,11.800781 -12,11.800781 -6.628906,0 -12,-5.285156 -12,-11.800781 0,-6.515625 5.371094,-11.800781 12,-11.800781 z m 0,0"
         id="path5" /></clipPath><linearGradient
       id="a-6"
       gradientUnits="userSpaceOnUse"
       x1="37.000977"
       x2="123.27344"
       y1="121.84668"
       y2="121.84668"
       gradientTransform="translate(-197.82031,-1.691406)"><stop
         offset="0"
         stop-color="#deddda"
         id="stop1" /><stop
         offset="0.369815"
         stop-color="#deddda"
         id="stop2-2" /><stop
         offset="0.788404"
         stop-color="#deddda"
         id="stop3" /><stop
         offset="1"
         stop-color="#f6f5f4"
         id="stop4-6" /></linearGradient></defs><linearGradient
     id="a"
     gradientUnits="userSpaceOnUse"
     x1="36"
     x2="60"
     y1="68"
     y2="68"><stop
       offset="0"
       stop-color="#ed336c"
       id="stop2" /><stop
       offset="1"
       stop-color="#ffa348"
       id="stop4" /></linearGradient><linearGradient
     id="b"
     gradientTransform="matrix(0 1 -1 0 144 -32)"
     gradientUnits="userSpaceOnUse"
     x1="72"
     x2="96"
     y1="68"
     y2="68"><stop
       offset="0"
       stop-color="#404ce6"
       id="stop7" /><stop
       offset="1"
       stop-color="#c061cb"
       id="stop9" /></linearGradient><linearGradient
     id="c"
     gradientUnits="userSpaceOnUse"
     x1="68.84919"
     x2="95.257637"
     y1="84"
     y2="84"><stop
       offset="0"
       stop-color="#33d1c6"
       id="stop12" /><stop
       offset="1"
       stop-color="#1c25d8"
       id="stop14" /></linearGradient><path
     id="path1873"
     d="m 27.978076,7.9999979 h 50.000001 l 30.042893,29.9178951 10e-4,74.060007 c 9e-5,4.432 -3.61218,8.0221 -8.044178,8.0221 H 27.978026 c -4.431998,0 -7.999997,-3.568 -7.999997,-8 V 15.999997 c 0,-4.432 3.567999,-7.9999991 7.999997,-7.9999991 z"
     clip-path="none"
     style="font-variation-settings:normal;display:inline;vector-effect:none;fill:#f66151;fill-opacity:1;stroke:none;stroke-width:6.51672;stroke-linecap:butt;stroke-linejoin:miter;stroke-miterlimit:4;stroke-dasharray:none;stroke-dashoffset:0;stroke-opacity:1;marker:none;marker-start:none;marker-mid:none;marker-end:none;paint-order:normal;enable-background:new;stop-color:#000000" /><path
     id="path1875"
     d="M 77.977964,7.9999979 V 30.000001 c 0,4.432 3.610528,7.923448 8.042527,7.923448 l 22.000369,-0.0055 z"
     style="font-variation-settings:normal;display:inline;vector-effect:none;fill:#000000;fill-opacity:0.15000001;stroke:none;stroke-width:6.51672;stroke-linecap:butt;stroke-linejoin:miter;stroke-miterlimit:4;stroke-dasharray:none;stroke-dashoffset:0;stroke-opacity:1;marker:none;marker-start:none;marker-mid:none;marker-end:none;paint-order:normal;enable-background:new;stop-color:#000000" /><g
     id="g1"
     transform="matrix(0.49925241,0,0,0.49923621,130.85497,42.997388)"><path
       d="M -133.91015,2 C -167.09765,2 -194.0039,28.902344 -194,62.089844 c 0,33.1875 26.90235,60.093746 60.08985,60.093746 33.1875,-0.004 60.08984,-26.906246 60.08984,-60.093746 C -73.82031,28.90625 -100.72265,2 -133.91015,2 Z m 0,50.0625 c 6.71093,0 12.15234,5.441406 12.15234,12.152344 0,6.714844 -5.44141,12.152344 -12.15234,12.15625 -6.71094,0 -12.15235,-5.441406 -12.15625,-12.15625 0,-6.710938 5.4414,-12.152344 12.15625,-12.152344 z m 0,0"
       fill="url(#a)"
       id="path12"
       style="fill:url(#a-6)" /><g
       clip-path="url(#b-6)"
       id="g14"
       transform="translate(-197.82031,-1.691406)"><g
         clip-path="url(#c-0)"
         id="g13"><path
           d="m 64,7.933594 c 30.925781,0 56,24.65625 56,55.066406 v 1.96875 c 0,30.410156 -25.074219,55.06641 -56,55.06641 -30.929688,0 -56,-24.656254 -56,-55.06641 V 63 C 8,32.589844 33.070312,7.933594 64,7.933594 Z m 0,0"
           fill="#d5d3cf"
           id="path13" /></g></g><g
       clip-path="url(#d)"
       id="g16"
       transform="translate(-197.82031,-1.691406)"><g
         clip-path="url(#e)"
         id="g15"><path
           d="M 64,4 C 30.863281,4 4,30.414062 4,63 4,95.585938 30.863281,122 64,122 97.136719,122 124,95.585938 124,63 124,30.414062 97.136719,4 64,4 Z m 0,48.03125 c 6.160156,0 11.15625,4.910156 11.15625,10.96875 0,6.058594 -4.996094,10.96875 -11.15625,10.96875 -6.160156,0 -11.15625,-4.910156 -11.15625,-10.96875 0,-6.058594 4.996094,-10.96875 11.15625,-10.96875 z m 0,0"
           fill="#f6f5f4"
           id="path14" /><path
           d="m 85.352131,236.41408 c 0,11.47643 -9.558663,20.77595 -21.351717,20.77595 -11.793054,0 -21.351717,-9.29952 -21.351717,-20.77595 0,-11.47643 9.558663,-20.77596 21.351717,-20.77596 11.793054,0 21.351717,9.29953 21.351717,20.77596 z m 0,0"
           fill="none"
           stroke="#000000"
           stroke-opacity="0.129412"
           stroke-width="9.29268"
           transform="matrix(0.999993,0,0,0.983333,4.9e-5,-169.47382)"
           id="path15" /></g></g><g
       clip-path="url(#f)"
       id="g18"
       transform="translate(-197.82031,-1.691406)"><g
         clip-path="url(#g)"
         id="g17"><path
           d="M 128,36.742188 64,63 137.66406,85.761719"
           fill-opacity="0.05098"
           id="path16" /></g></g><g
       clip-path="url(#h)"
       id="g20"
       transform="translate(-197.82031,-1.691406)"><g
         clip-path="url(#i)"
         id="g19"><path
           d="M 9.113281,104.81641 64.023438,63.167969 -13.121094,59.925781"
           fill-opacity="0.05098"
           id="path18" /></g></g></g></svg>
