<?xml version="1.0" encoding="UTF-8" standalone="no"?>
<svg
   height="128px"
   viewBox="0 0 128 128"
   width="128px"
   version="1.1"
   id="svg35"
   xmlns:xlink="http://www.w3.org/1999/xlink"
   xmlns="http://www.w3.org/2000/svg"
   xmlns:svg="http://www.w3.org/2000/svg">
  <defs
     id="defs39">
    <linearGradient
       xlink:href="#linearGradient20"
       id="linearGradient22"
       x1="17"
       y1="39"
       x2="111"
       y2="39"
       gradientUnits="userSpaceOnUse" />
    <linearGradient
       id="linearGradient20">
      <stop
         style="stop-color:#e13c40;stop-opacity:1;"
         offset="0"
         id="stop21" />
      <stop
         style="stop-color:#e97274;stop-opacity:1;"
         offset="0.05"
         id="stop23" />
      <stop
         style="stop-color:#e34f51;stop-opacity:1;"
         offset="0.09"
         id="stop24" />
      <stop
         style="stop-color:#e34f51;stop-opacity:1;"
         offset="0.91000003"
         id="stop25" />
      <stop
         style="stop-color:#e97274;stop-opacity:1;"
         offset="0.94999999"
         id="stop26" />
      <stop
         style="stop-color:#e13d41;stop-opacity:1;"
         offset="1"
         id="stop22" />
    </linearGradient>
    <linearGradient
       xlink:href="#linearGradient15"
       id="linearGradient16"
       x1="20"
       y1="64"
       x2="108"
       y2="64"
       gradientUnits="userSpaceOnUse" />
    <linearGradient
       id="linearGradient15">
      <stop
         style="stop-color:#be1e20;stop-opacity:1;"
         offset="0"
         id="stop15" />
      <stop
         style="stop-color:#e97274;stop-opacity:1;"
         offset="0.05"
         id="stop17" />
      <stop
         style="stop-color:#d82224;stop-opacity:1;"
         offset="0.09"
         id="stop18" />
      <stop
         style="stop-color:#d82224;stop-opacity:1;"
         offset="0.91000003"
         id="stop19" />
      <stop
         style="stop-color:#e97375;stop-opacity:1;"
         offset="0.94999999"
         id="stop20" />
      <stop
         style="stop-color:#bd1e20;stop-opacity:1;"
         offset="1"
         id="stop16" />
    </linearGradient>
  </defs>
  <linearGradient
     id="a"
     gradientUnits="userSpaceOnUse"
     x1="36"
     x2="60"
     y1="68"
     y2="68">
    <stop
       offset="0"
       stop-color="#ed336c"
       id="stop2" />
    <stop
       offset="1"
       stop-color="#ffa348"
       id="stop4" />
  </linearGradient>
  <linearGradient
     id="b"
     gradientTransform="matrix(0 1 -1 0 144 -32)"
     gradientUnits="userSpaceOnUse"
     x1="72"
     x2="96"
     y1="68"
     y2="68">
    <stop
       offset="0"
       stop-color="#404ce6"
       id="stop7" />
    <stop
       offset="1"
       stop-color="#c061cb"
       id="stop9" />
  </linearGradient>
  <linearGradient
     id="c"
     gradientUnits="userSpaceOnUse"
     x1="68.84919"
     x2="95.257637"
     y1="84"
     y2="84">
    <stop
       offset="0"
       stop-color="#33d1c6"
       id="stop12" />
    <stop
       offset="1"
       stop-color="#1c25d8"
       id="stop14" />
  </linearGradient>
  <path
     id="path2"
     d="M 27.9961,8 C 23.56467,8 20,11.566406 20,16 v 96 c 0,4.43359 3.56467,8 7.9961,8 H 99.960955 C 104.39238,120 108,116.41016 108,111.97656 V 37.921875 37.917969 15.921875 C 108,11.488281 104.39238,8 99.960955,8 L 77.975597,8.0039 77.971697,8 Z"
     style="fill:url(#linearGradient16);fill-opacity:1;stroke:none;stroke-width:0.999756" />
  <path
     d="m 25.54331,16 h 76.91338 C 107.17634,16 111,19.16936 111,23.078108 V 54.921892 C 111,58.830641 107.17634,62 102.45669,62 H 25.54331 C 20.82366,62 17,58.830641 17,54.921892 V 23.078108 C 17,19.16936 20.82366,16 25.54331,16 Z m 0,0"
     fill="#cdab8f"
     id="path16"
     style="fill:url(#linearGradient22);fill-opacity:1;stroke-width:0.995887" />
  <path
     d="m 25.54331,8 h 76.91338 C 107.17634,8 111,11.16936 111,15.078108 V 46.921892 C 111,50.830641 107.17634,54 102.45669,54 H 25.54331 C 20.82366,54 17,50.830641 17,46.921892 V 15.078108 C 17,11.16936 20.82366,8 25.54331,8 Z m 0,0"
     fill="#cdab8f"
     id="path14"
     style="fill:#e97375;fill-opacity:1;stroke-width:0.995887" />
  <path
     d="m 73.861451,84.913737 c 0.439315,-0.6121 0.888557,-1.2168 1.336536,-1.823254 4.103055,1.201224 8.06496,3.099441 11.301652,5.926303 1.322916,1.184681 2.520235,2.525119 3.439172,4.050488 1.088307,1.795031 1.778475,3.850931 1.852444,5.9565 -3.218194,-0.562463 -6.434437,-1.1292 -9.652633,-1.6938 0.395996,-1.259625 0.399403,-2.630232 0.128212,-3.916144 -0.502588,-2.221406 -1.92644,-4.128375 -3.644565,-5.575875 -1.431931,-1.205119 -3.065364,-2.170774 -4.796145,-2.877491 z"
     style="fill:#ac1a1c;fill-opacity:1;stroke-width:0.0973446"
     id="path25747-6" />
  <path
     d="m 56.193493,81.861027 c 1.223614,-0.188078 2.458911,-0.325519 3.696156,-0.390739 0.219802,-0.05237 0.447199,-0.04168 0.671771,-0.04969 1.756088,-0.05599 3.514123,-0.05346 5.269239,0.02557 3.167577,0.223987 6.319581,0.75023 9.37521,1.627593 l -0.01294,0.01706 c -0.447977,0.605872 -0.897319,1.210961 -1.336534,1.823257 -0.131606,0.02428 -0.246866,-0.05897 -0.364067,-0.100837 -2.318739,-0.956599 -4.786412,-1.511753 -7.26966,-1.812546 -4.085533,-0.418387 -8.268412,-0.08222 -12.187485,1.174943 -2.88528,0.933334 -5.672242,2.372268 -7.824521,4.54305 -1.525382,1.559456 -2.695459,3.576431 -2.855104,5.787112 -0.147862,1.053263 0.104363,2.104575 0.327467,3.127669 l -9.677959,1.706438 c -0.0234,-1.707413 0.422183,-3.397313 1.131141,-4.942163 1.410516,-3.007931 3.856774,-5.411362 6.581436,-7.251169 1.842723,-1.237243 3.834386,-2.2467 5.903923,-3.046867 2.756786,-1.0776 5.64401,-1.813523 8.572123,-2.237942 z"
     style="opacity:1;fill:#ffffff;fill-opacity:1;stroke-width:0.0973446"
     id="path25745-8" />
  <path
     d="m 61.995201,93.78178 c 0.189429,-0.308475 0.522935,-0.554475 0.902285,-0.508819 0.4288,0.01125 0.759186,0.36525 0.847962,0.766294 l 30.254557,5.381194 -0.101062,0.506775 -30.244812,-5.303325 c -0.241218,0.419756 -0.800949,0.636543 -1.240166,0.388706 -0.304783,-0.133313 -0.408844,-0.459469 -0.546392,-0.733106 l -1.862192,-0.29835 0.08535,-0.523819 z"
     id="path25749-5"
     style="opacity:1;fill:#ffffff;fill-opacity:1;stroke-width:0.0973446" />
  <path
     d="m 47.821896,108.47102 0.01687,-7.52957 3.202621,0.006 c 3.375895,0.006 4.13518,0.0547 5.632332,0.35998 3.670847,0.74799 6.107372,2.50757 6.585332,4.75526 0.484676,2.27882 -1.319987,4.36003 -4.968447,5.73162 -1.312196,0.49324 -3.092621,0.88009 -4.508004,0.98025 l -0.606553,0.0427 -0.01819,1.20999 -0.01819,1.20998 -0.215325,0.0386 c -0.118463,0.0212 -1.220696,0.17569 -2.450151,0.34324 -1.229456,0.16763 -2.332365,0.32192 -2.452098,0.34303 L 47.805014,116 Z m 5.841622,2.90475 c 0.1722,-0.0405 0.613268,-0.21748 0.980256,-0.39338 1.380339,-0.66146 2.38785,-1.6013 2.930058,-2.73439 0.419455,-0.87523 0.450606,-1.6967 0.09996,-2.63413 -0.401545,-1.07371 -1.548747,-2.24087 -2.841477,-2.89306 -0.425782,-0.21475 -1.27326,-0.47777 -1.538036,-0.47777 h -0.151462 v 4.6034 c 0,4.12253 0.01087,4.60341 0.103856,4.60341 0.05713,0 0.244723,-0.033 0.416927,-0.0737 z m -19.663513,-4.56253 v -5.90391 h 5.337377 v 0.14175 c 0,0.12469 0.02623,0.13631 0.216787,0.0971 1.252819,-0.25766 3.141293,-0.3741 3.951197,-0.24336 0.281228,0.0454 0.715577,0.15188 0.965265,0.23683 0.528675,0.17982 1.468922,0.58632 1.467949,0.63488 -2.92e-4,0.0187 -0.247352,0.18112 -0.549118,0.36154 -0.301768,0.18056 -0.945698,0.57988 -1.430959,0.88749 l -0.882326,0.55924 -0.249786,-0.16969 c -0.502588,-0.34147 -1.040608,-0.47104 -1.954668,-0.47104 -0.482537,0 -0.981231,0.0379 -1.183707,0.09 l -0.350244,0.09 v 9.59328 h -5.337379 z m 32.82444,-0.004 v -5.90878 l 10.454758,0.0293 c 10.610514,0.0296 10.93174,0.0371 12.284833,0.28501 1.013344,0.18563 1.609088,0.4107 1.926431,0.72805 l 0.283576,0.28337 v 10.49386 h -5.337385 v -10.32821 l -0.283565,-0.12188 c -0.24813,-0.10669 -0.527312,-0.12487 -2.235019,-0.14587 l -1.951751,-0.024 v 10.62024 h -5.336404 l -0.03418,-10.35741 -0.26682,-0.10275 c -0.211909,-0.0816 -0.668854,-0.108 -2.218474,-0.12881 l -1.95175,-0.0261 v 10.62024 h -5.337377 z"
     style="opacity:1;fill:#ffffff;fill-opacity:1;stroke-width:0.0667099"
     id="path25751-6" />
  <path
     id="path1204-9"
     style="fill:#ffffff;fill-opacity:1;stroke:none;stroke-width:0.125;stroke-linecap:butt;stroke-linejoin:miter;stroke-miterlimit:4;stroke-dasharray:none;stroke-dashoffset:0;stroke-opacity:1;marker:none;paint-order:normal"
     d="m 60,21 v 4 h 4 v -2 h 4 v -2 h -4 z m 4,4 v 2 h -4 v 4 h 4 v -2 h 4 v -4 z m 0,6 v 2 h -4 v 4 h 4 v -2 h 4 v -4 z m 0,6 v 2 h -4 v 4 h 4 v -2 h 4 v -2 -2 z m 0,6 v 2 h -4 v 4 h 4 v -2 h 4 v -4 z m 0,6 v 2 h -4 v 4 h 4 v -2 h 4 v -4 z m 0,6 v 2 h -4 v 4 h 4 v -2 h 4 v -2 -2 z m 0,6 v 1 h 4 v -1 z" />
  <path
     id="path1211-8"
     d="M 60.000001,11.999994 C 57.784001,11.999994 56,13.783995 56,15.999995 v 9.999999 c 0,2.216 1.784001,4 4.000001,4 v 8 c 0,1.107999 0.892,2 2,2 H 66 c 1.108001,0 2,-0.892001 2,-2 v -8 c 2.216001,0 4,-1.784 4,-4 v -9.999999 c 0,-2.216 -1.783999,-4.000001 -4,-4.000001 z m 2,21.999999 H 66 v 4.000001 h -3.999999 z"
     style="display:inline;opacity:0.1;fill:#000000;fill-opacity:1;stroke:none;stroke-width:0.5;stroke-linecap:round;stroke-linejoin:round;stroke-miterlimit:4;stroke-dasharray:none;stroke-dashoffset:0;stroke-opacity:1;enable-background:new" />
  <path
     id="path41396-4"
     style="fill:#ac1a1c;fill-opacity:1;stroke:none;stroke-width:0.125;stroke-linecap:butt;stroke-linejoin:miter;stroke-miterlimit:4;stroke-dasharray:none;stroke-dashoffset:0;stroke-opacity:1;marker:none;paint-order:normal"
     d="m 60,23 v 4 h 4 v -2 h 4 v -2 h -4 z m 4,4 v 2 h -4 v 4 h 4 v -2 h 4 v -4 z m 0,6 v 2 h -4 v 4 h 4 v -2 h 4 v -4 z m 0,6 v 2 h -4 v 4 h 4 v -2 h 4 v -2 -2 z m 0,6 v 2 h -4 v 4 h 4 v -2 h 4 v -4 z m 0,6 v 2 h -4 v 4 h 4 v -2 h 4 v -4 z m 0,6 v 2 h -4 v 3 h 4 v -1 h 4 v -2 -2 z" />
  <path
     style="vector-effect:none;fill:#540d0e;fill-opacity:1;stroke:none;stroke-width:0.5;stroke-linecap:round;stroke-linejoin:round;stroke-miterlimit:4;stroke-dasharray:none;stroke-dashoffset:0;stroke-opacity:1"
     d="m 62.000001,17.999997 c -1.108,0 -2,0.892 -2,2 v 15.999999 c 0,1.108 0.892,2 2,2 H 66 c 1.108001,0 2,-0.892 2,-2 V 19.999997 c 0,-1.108 -0.891999,-2 -2,-2 z m 0,13.999999 H 66 v 4 h -3.999999 z"
     id="path1214-8" />
  <rect
     ry="2.5026016"
     rx="2.5026016"
     y="9.9999924"
     x="56"
     height="18"
     width="16"
     id="rect1216-1"
     style="display:inline;vector-effect:none;fill:#540d0e;fill-opacity:1;stroke:none;stroke-width:0.5;stroke-linecap:round;stroke-linejoin:round;stroke-miterlimit:4;stroke-dasharray:none;stroke-dashoffset:0;stroke-opacity:1;enable-background:new" />
  <rect
     ry="2.9445434"
     rx="2.9445434"
     y="8"
     x="56"
     height="18"
     width="16"
     id="rect1218-0"
     style="display:inline;vector-effect:none;fill:#ac1a1c;fill-opacity:1;stroke:none;stroke-width:2;stroke-linecap:butt;stroke-linejoin:round;stroke-miterlimit:4;stroke-dasharray:none;stroke-dashoffset:0;stroke-opacity:1;enable-background:new" />
  <path
     id="path1220-3"
     d="m 62.000001,13.999997 c -1.108,0 -2,0.892 -2,2 v 18 c 0,1.107999 0.892,1.999999 2,1.999999 H 66 c 1.108001,0 2,-0.892 2,-1.999999 v -18 c 0,-1.108 -0.891999,-2 -2,-2 z m 0,15.999999 H 66 v 4.000001 h -3.999999 z"
     style="fill:#ffffff;fill-opacity:1;stroke:none;stroke-width:0.5;stroke-linecap:round;stroke-linejoin:round;stroke-miterlimit:4;stroke-dasharray:none;stroke-dashoffset:0;stroke-opacity:1" />
  <rect
     transform="scale(1,-1)"
     ry="1.9999996"
     rx="1.9999996"
     y="-20"
     x="62"
     height="9.999999"
     width="3.9999993"
     id="rect1222-0"
     style="display:inline;fill:#540d0d;fill-opacity:1;stroke:none;stroke-width:0.125;stroke-linecap:butt;stroke-linejoin:miter;stroke-miterlimit:4;stroke-dasharray:none;stroke-dashoffset:0;stroke-opacity:1;marker:none;paint-order:normal;enable-background:new" />
  <rect
     style="display:inline;fill:#ac1a1c;fill-opacity:1;stroke:none;stroke-width:0.125;stroke-linecap:butt;stroke-linejoin:miter;stroke-miterlimit:4;stroke-dasharray:none;stroke-dashoffset:0;stroke-opacity:1;marker:none;paint-order:normal;enable-background:new"
     id="rect1224-4"
     width="3.9999993"
     height="8"
     x="62"
     y="-18"
     rx="1.9999996"
     ry="1.9999996"
     transform="scale(1,-1)" />
  <rect
     style="fill:#0b0705;fill-opacity:0.2;stroke:none"
     id="rect1"
     width="8"
     height="8"
     x="60"
     y="54" />
</svg>
