<?xml version="1.0" encoding="UTF-8" standalone="no"?>
<svg
   height="128px"
   viewBox="0 0 128 128"
   width="128px"
   version="1.1"
   id="svg35"
   xml:space="preserve"
   xmlns:xlink="http://www.w3.org/1999/xlink"
   xmlns="http://www.w3.org/2000/svg"
   xmlns:svg="http://www.w3.org/2000/svg"><defs
     id="defs39"><mask
       id="holes"><rect
         x="-60"
         y="-60"
         width="120"
         height="120"
         fill="#ffffff"
         id="rect1240" /><circle
         id="hole"
         cy="-40"
         r="3"
         cx="0" /><use
         xlink:href="#hole"
         transform="rotate(72)"
         id="use1243" /><use
         xlink:href="#hole"
         transform="rotate(144)"
         id="use1245" /><use
         xlink:href="#hole"
         transform="rotate(-144)"
         id="use1247" /><use
         xlink:href="#hole"
         transform="rotate(-72)"
         id="use1249" /></mask></defs><linearGradient
     id="a"
     gradientUnits="userSpaceOnUse"
     x1="36"
     x2="60"
     y1="68"
     y2="68"><stop
       offset="0"
       stop-color="#ed336c"
       id="stop2" /><stop
       offset="1"
       stop-color="#ffa348"
       id="stop4" /></linearGradient><linearGradient
     id="b"
     gradientTransform="matrix(0 1 -1 0 144 -32)"
     gradientUnits="userSpaceOnUse"
     x1="72"
     x2="96"
     y1="68"
     y2="68"><stop
       offset="0"
       stop-color="#404ce6"
       id="stop7" /><stop
       offset="1"
       stop-color="#c061cb"
       id="stop9" /></linearGradient><linearGradient
     id="c"
     gradientUnits="userSpaceOnUse"
     x1="68.84919"
     x2="95.257637"
     y1="84"
     y2="84"><stop
       offset="0"
       stop-color="#33d1c6"
       id="stop12" /><stop
       offset="1"
       stop-color="#1c25d8"
       id="stop14" /></linearGradient><path
     style="display:inline;fill:#a7f175;fill-opacity:1;stroke:none;stroke-width:0.124969;stroke-linejoin:round;stroke-miterlimit:4;stroke-dasharray:none;stroke-opacity:1;enable-background:new"
     clip-path="none"
     d="M 27.996067,8.0000006 H 77.971105 L 107.999,37.917894 108,111.9779 c 8e-5,4.432 -3.61039,8.0221 -8.040179,8.0221 H 27.996006 c -4.429786,0 -7.996005,-3.568 -7.996005,-8.00001 V 16 c 0,-4.431999 3.566219,-7.9999994 7.996005,-7.9999994 z"
     id="path4411" /><path
     style="display:inline;vector-effect:none;fill:#000000;fill-opacity:0.2;stroke:none;stroke-width:0.125;stroke-linecap:butt;stroke-linejoin:round;stroke-miterlimit:4;stroke-dasharray:none;stroke-dashoffset:0;stroke-opacity:1;enable-background:new"
     d="M 77.971105,8.0000006 V 30.000002 c 0,4.432 3.610527,7.923448 8.042527,7.923448 L 108.014,37.91795 Z"
     id="path4413" /><path
     d="m 61.973081,91.627954 c -4.00994,0 -6.56076,-2.432609 -6.56076,-5.517944 0,-13.203559 34.72119,-15.846812 34.72119,-29.868685 0,-8.553989 -9.90873,-12.240835 -22.55738,-12.240835 -7.69408,0 -16.39363,1.42406 -24.4732,3.972197 v 16.727511 c 11.90658,-8.672213 25.13556,-12.384473 33.65681,-12.384473 5.35814,0 8.99376,1.494916 8.99376,4.173598 0,11.035889 -47.88701,9.287199 -47.88701,33.133857 0,9.14048 6.28505,14.37731 15.12747,14.37731 13.37491,0 23.4916,-12.99792 31.06014,-28.842037 l 1.53343,0.550678 c -3.98606,9.682301 -12.23467,20.29883 -13.84126,27.123379 h 17.21927 V 67.525598 h -3.97682 c -5.77249,12.5439 -14.23175,24.102742 -23.01563,24.102742"
     style="clip-rule:evenodd;display:inline;fill:#000000;fill-rule:nonzero;stroke-width:0.38509;stroke-linejoin:round;stroke-miterlimit:2;enable-background:new"
     id="path1" /></svg>
