<?xml version="1.0" encoding="UTF-8" standalone="no"?>
<svg
   height="128px"
   viewBox="0 0 128 128"
   width="128px"
   version="1.1"
   id="svg35"
   xml:space="preserve"
   xmlns:xlink="http://www.w3.org/1999/xlink"
   xmlns="http://www.w3.org/2000/svg"
   xmlns:svg="http://www.w3.org/2000/svg"><defs
     id="defs39"><mask
       id="holes"><rect
         x="-60"
         y="-60"
         width="120"
         height="120"
         fill="#ffffff"
         id="rect1240" /><circle
         id="hole"
         cy="-40"
         r="3"
         cx="0" /><use
         xlink:href="#hole"
         transform="rotate(72)"
         id="use1243" /><use
         xlink:href="#hole"
         transform="rotate(144)"
         id="use1245" /><use
         xlink:href="#hole"
         transform="rotate(-144)"
         id="use1247" /><use
         xlink:href="#hole"
         transform="rotate(-72)"
         id="use1249" /></mask></defs><linearGradient
     id="a"
     gradientUnits="userSpaceOnUse"
     x1="36"
     x2="60"
     y1="68"
     y2="68"><stop
       offset="0"
       stop-color="#ed336c"
       id="stop2" /><stop
       offset="1"
       stop-color="#ffa348"
       id="stop4" /></linearGradient><linearGradient
     id="b"
     gradientTransform="matrix(0 1 -1 0 144 -32)"
     gradientUnits="userSpaceOnUse"
     x1="72"
     x2="96"
     y1="68"
     y2="68"><stop
       offset="0"
       stop-color="#404ce6"
       id="stop7" /><stop
       offset="1"
       stop-color="#c061cb"
       id="stop9" /></linearGradient><linearGradient
     id="c"
     gradientUnits="userSpaceOnUse"
     x1="68.84919"
     x2="95.257637"
     y1="84"
     y2="84"><stop
       offset="0"
       stop-color="#33d1c6"
       id="stop12" /><stop
       offset="1"
       stop-color="#1c25d8"
       id="stop14" /></linearGradient><path
     style="display:inline;fill:#dd1100;fill-opacity:1;stroke:none;stroke-width:0.125;stroke-linejoin:round;stroke-miterlimit:4;stroke-dasharray:none;stroke-opacity:1;enable-background:new"
     clip-path="none"
     d="m 27.978072,8.0000006 h 50.000002 l 30.042896,29.9178934 10e-4,74.060006 c 8e-5,4.432 -3.6122,8.0221 -8.044196,8.0221 H 27.978011 c -4.431999,0 -7.999999,-3.568 -7.999999,-8.00001 V 16 c 0,-4.431999 3.568,-7.9999994 7.999999,-7.9999994 z"
     id="path4411" /><path
     style="display:inline;vector-effect:none;fill:#000000;fill-opacity:0.200017;stroke:none;stroke-width:0.125;stroke-linecap:butt;stroke-linejoin:round;stroke-miterlimit:4;stroke-dasharray:none;stroke-dashoffset:0;stroke-opacity:1;enable-background:new"
     d="M 77.978074,8.0000006 V 30.000002 c 0,4.432 3.610527,7.923448 8.042527,7.923448 l 22.000369,-0.0055 z"
     id="path4413" /><path
     id="backgroundCircle"
     style="fill:#ffffff;fill-rule:evenodd;stroke-width:0.30303"
     d="m 63.999991,44.000448 a 30,30 0 0 0 -30,30 30,30 0 0 0 30,30.000002 30,30 0 0 0 30,-30.000002 30,30 0 0 0 -30,-30 z m -0.101563,2.982422 c 3.341029,-0.0131 6.71623,0.594161 9.951172,1.861328 10.351815,4.054935 17.160153,14.038582 17.15625,25.15625 0.0035,9.301906 -4.782219,17.949998 -12.666016,22.886719 -0.0032,0.0032 -0.0072,0.0052 -0.01172,0.0059 l -9.261719,-11.541015 7.671875,0.845703 c 0,0 3.684164,0.380961 4.523437,0 0.767878,-0.303575 4.91211,-6.136719 4.91211,-6.136719 0,0 -11.893501,-7.519239 -15.958985,-11.662109 0.464303,-6.982121 -0.535156,-16.266847 -0.535156,-16.189453 -2.994067,2.988106 -3.375112,3.45298 -6.369141,6.214843 -1.303573,-4.220218 -1.917167,-5.680135 -3.220703,-9.90039 -3.91667,3.220258 -6.905884,8.673913 -9.054687,15.042968 -0.470224,0.517857 -0.920752,1.06508 -1.367188,1.648438 -0.291661,0.386882 -0.583536,0.778837 -0.863281,1.183594 -0.5774,0.821433 -1.132376,1.685095 -1.662109,2.589844 -0.375003,0.636909 -0.742447,1.292321 -1.09961,1.958984 -2.494046,4.684519 -4.542594,10.053365 -6.316406,14.886719 -0.01227,-0.01858 -0.02181,-0.03959 -0.0293,-0.06055 -4.850549,-10.003736 -3.075692,-21.956726 4.472657,-30.119141 5.189488,-5.61166 12.378251,-8.643057 19.728515,-8.671875 z m -4.273437,5.148438 c 1.077382,3.220252 2.769181,9.898888 3.917968,13.11914 5.065473,5.065494 12.738094,11.357738 17.875,13.964844 0.535721,0.30954 1.22461,2.458984 1.22461,2.458984 l -2.070313,2.605469 -22.095703,-2.224609 c -0.494052,-0.04167 -0.988407,-0.06055 -1.482422,-0.06055 -1.535261,0.02155 -3.064974,0.169794 -4.576172,0.441406 1.071434,-2.684521 3.375,-4.833984 3.375,-4.833984 0,0 -2.150566,-1.303097 -3.763672,-1.529297 0.464312,-1.077364 1.690489,-2.458892 2,-2.839844 -0.619027,0.226182 -5.064984,2.219705 -5.529296,3.910156 1.259029,0.309409 2.492188,0.719827 3.685546,1.226563 -1.603667,1.825264 -2.59697,4.105928 -2.839843,6.523437 0,0 7.05981,-1.077172 12.357422,-0.386718 0.0917,0.05432 0.196224,0.08192 0.302734,0.07813 l 2.761719,0.07617 8.77539,14.607422 0.07031,0.113282 c -0.01191,0.006 -0.0175,0.01172 -0.02344,0.01172 -16.547648,5.982121 -28.506984,-5.02969 -31.060547,-8.880859 0.01072,-0.03301 0.02027,-0.06528 0.02539,-0.09961 2.297618,-9.714291 5.129652,-21.340852 9.707031,-24.775391 2.380933,-4.148809 3.071615,-10.285607 7.363282,-13.505859 z m 8.75,4.375 c 0.154769,3.833334 0.07785,5.827197 -0.154297,10.511718 -1.148794,-1.154748 -3.453125,-2.613281 -3.453125,-2.613281 0,0 -0.458036,-2.683658 -0.767578,-3.677734 2.07146,-1.999999 2.380927,-2.304051 4.375,-4.220703 z m -3.886719,16.199218 c -0.305373,-0.0038 -0.61942,0.01488 -0.945313,0.0625 -0.249534,0.649944 -0.454538,1.316281 -0.613281,1.994141 1.226197,-0.148815 2.52993,0.311005 3.988281,1.15625 1.380949,-0.386887 1.53505,-0.46473 2.916016,-0.845703 -1.546894,-1.140619 -3.208093,-2.340259 -5.345703,-2.367188 z" /><path
     d="m 64.762145,64.426813 c 0,0 -0.45834,-2.68453 -0.76788,-3.6786 2.07146,-2 2.38095,-2.30356 4.37502,-4.22021 0.15477,3.83333 0.0774,5.82736 -0.15477,10.51188 -1.14879,-1.15475 -3.45237,-2.61307 -3.45237,-2.61307 z m -8.9762,13.19644 c 0,0 -2.14881,-1.30358 -3.76191,-1.52978 0.46431,-1.07736 1.69049,-2.45833 2,-2.83928 -0.61903,0.22618 -5.06544,2.22025 -5.52975,3.91071 1.25903,0.3094 2.49117,0.719457 3.68453,1.226193 -1.60367,1.825264 -2.59643,4.106318 -2.8393,6.523827 0,0 7.05955,-1.077381 12.35716,-0.386927 0.0917,0.05432 0.19705,0.08118 0.30356,0.07738 l 2.76192,0.07739 8.7738,14.607136 0.0714,0.113082 c -0.0119,0.006 -0.0179,0.01194 -0.0238,0.01194 -16.54765,5.982116 -28.50595,-5.029779 -31.05951,-8.880948 0.0107,-0.03301 0.0187,-0.06686 0.0238,-0.101188 2.29762,-9.714291 5.13096,-21.339305 9.70834,-24.773845 2.38093,-4.14881 3.07142,-10.28571 7.36308,-13.50596 1.07739,3.22025 2.76788,9.89881 3.91667,13.11906 5.06547,5.0655 12.73807,11.35717 17.87498,13.964272 0.53572,0.30954 1.22618,2.458331 1.22618,2.458331 l -2.0714,2.607145 -22.09525,-2.226173 c -0.49405,-0.04167 -0.98812,-0.05952 -1.48214,-0.05952 -1.53526,0.02155 -3.06617,0.168855 -4.57737,0.440467 1.07143,-2.684521 3.37499,-4.833312 3.37499,-4.833312 z m 7.1369,-2.8393 c 1.22619,-0.14881 2.52976,0.30952 3.98811,1.15477 1.38095,-0.38689 1.53572,-0.46427 2.91668,-0.84525 -1.76787,-1.30356 -3.68452,-2.68453 -6.29167,-2.30356 -0.24953,0.64995 -0.45438,1.31617 -0.61313,1.99403 z"
     id="wolf-7"
     fill="#ffffff"
     style="fill-rule:evenodd;stroke:none;stroke-width:0.30303;opacity:0.6" /></svg>
