<?xml version="1.0" encoding="UTF-8" standalone="no"?>
<svg
   height="128px"
   viewBox="0 0 128 128"
   width="128px"
   version="1.1"
   id="svg35"
   xmlns:xlink="http://www.w3.org/1999/xlink"
   xmlns="http://www.w3.org/2000/svg"
   xmlns:svg="http://www.w3.org/2000/svg">
  <defs
     id="defs39">
    <mask
       id="holes">
      <rect
         x="-60"
         y="-60"
         width="120"
         height="120"
         fill="#ffffff"
         id="rect1240" />
      <circle
         id="hole"
         cy="-40"
         r="3"
         cx="0" />
      <use
         xlink:href="#hole"
         transform="rotate(72)"
         id="use1243" />
      <use
         xlink:href="#hole"
         transform="rotate(144)"
         id="use1245" />
      <use
         xlink:href="#hole"
         transform="rotate(-144)"
         id="use1247" />
      <use
         xlink:href="#hole"
         transform="rotate(-72)"
         id="use1249" />
    </mask>
    <mask
       id="holes-3">
      <rect
         x="-60"
         y="-60"
         width="120"
         height="120"
         fill="#ffffff"
         id="rect4455" />
      <circle
         id="hole-6"
         cy="-40"
         r="3"
         cx="0" />
      <use
         xlink:href="#hole-6"
         transform="rotate(72)"
         id="use4458" />
      <use
         xlink:href="#hole-6"
         transform="rotate(144)"
         id="use4460" />
      <use
         xlink:href="#hole-6"
         transform="rotate(-144)"
         id="use4462" />
      <use
         xlink:href="#hole-6"
         transform="rotate(-72)"
         id="use4464" />
    </mask>
    <mask
       id="holes-36">
      <rect
         x="-60"
         y="-60"
         width="120"
         height="120"
         fill="#ffffff"
         id="rect946" />
      <circle
         id="hole-7"
         cy="-40"
         r="3"
         cx="0" />
      <use
         xlink:href="#hole-7"
         transform="rotate(72)"
         id="use949" />
      <use
         xlink:href="#hole-7"
         transform="rotate(144)"
         id="use951" />
      <use
         xlink:href="#hole-7"
         transform="rotate(-144)"
         id="use953" />
      <use
         xlink:href="#hole-7"
         transform="rotate(-72)"
         id="use955" />
    </mask>
    <mask
       id="holes-9">
      <rect
         x="-60"
         y="-60"
         width="120"
         height="120"
         fill="#ffffff"
         id="rect4023" />
      <circle
         id="hole-3"
         cy="-40"
         r="3"
         cx="0" />
      <use
         xlink:href="#hole-3"
         transform="rotate(72)"
         id="use4026" />
      <use
         xlink:href="#hole-3"
         transform="rotate(144)"
         id="use4028" />
      <use
         xlink:href="#hole-3"
         transform="rotate(-144)"
         id="use4030" />
      <use
         xlink:href="#hole-3"
         transform="rotate(-72)"
         id="use4032" />
    </mask>
    <mask
       id="holes-1">
      <rect
         x="-60"
         y="-60"
         width="120"
         height="120"
         fill="#ffffff"
         id="rect5879" />
      <circle
         id="hole-8"
         cy="-40"
         r="3"
         cx="0" />
      <use
         xlink:href="#hole-8"
         transform="rotate(72)"
         id="use5882" />
      <use
         xlink:href="#hole-8"
         transform="rotate(144)"
         id="use5884" />
      <use
         xlink:href="#hole-8"
         transform="rotate(-144)"
         id="use5886" />
      <use
         xlink:href="#hole-8"
         transform="rotate(-72)"
         id="use5888" />
    </mask>
  </defs>
  <linearGradient
     id="a"
     gradientUnits="userSpaceOnUse"
     x1="36"
     x2="60"
     y1="68"
     y2="68">
    <stop
       offset="0"
       stop-color="#ed336c"
       id="stop2" />
    <stop
       offset="1"
       stop-color="#ffa348"
       id="stop4" />
  </linearGradient>
  <linearGradient
     id="b"
     gradientTransform="matrix(0 1 -1 0 144 -32)"
     gradientUnits="userSpaceOnUse"
     x1="72"
     x2="96"
     y1="68"
     y2="68">
    <stop
       offset="0"
       stop-color="#404ce6"
       id="stop7" />
    <stop
       offset="1"
       stop-color="#c061cb"
       id="stop9" />
  </linearGradient>
  <linearGradient
     id="c"
     gradientUnits="userSpaceOnUse"
     x1="68.84919"
     x2="95.257637"
     y1="84"
     y2="84">
    <stop
       offset="0"
       stop-color="#33d1c6"
       id="stop12" />
    <stop
       offset="1"
       stop-color="#1c25d8"
       id="stop14" />
  </linearGradient>
  <path
     style="display:inline;fill:#0073a1;fill-opacity:1;stroke:none;stroke-width:0.125;stroke-linejoin:round;stroke-miterlimit:4;stroke-dasharray:none;stroke-opacity:1;enable-background:new"
     clip-path="none"
     d="m 27.978072,8.0000006 h 50.000002 l 30.042896,29.9178934 10e-4,74.060006 c 8e-5,4.432 -3.6122,8.0221 -8.044196,8.0221 H 27.978011 c -4.431999,0 -7.999999,-3.568 -7.999999,-8.00001 V 16 c 0,-4.431999 3.568,-7.9999994 7.999999,-7.9999994 z"
     id="path4411" />
  <path
     style="display:inline;vector-effect:none;fill:#ffffff;fill-opacity:0.30000001;stroke:none;stroke-width:0.125;stroke-linecap:butt;stroke-linejoin:round;stroke-miterlimit:4;stroke-dasharray:none;stroke-dashoffset:0;stroke-opacity:1;enable-background:new"
     d="M 77.978074,8.0000006 V 30.000002 c 0,4.432 3.610527,7.923448 8.042527,7.923448 l 22.000369,-0.0055 z"
     id="path4413" />
  <g
     id="g1553"
     transform="matrix(1.2101702,0,0,1.2101702,454.58491,-17.015179)"
     style="fill:#ffffff">
    <path
       d="m -307.81013,67.13351 c 0,-1.598269 -1.28352,-2.897823 -2.87168,-2.897823 -1.58816,0 -2.87168,1.299554 -2.87168,2.897823 0,1.59827 1.28352,2.897823 2.87168,2.897823 1.58816,0 2.87168,-1.299553 2.87168,-2.897823 z"
       id="Stroke-1"
       style="fill:#ffffff;fill-rule:evenodd;stroke:none;stroke-width:1.55807" />
    <path
       d="m -337.69396,67.13351 c 0,1.59827 1.28352,2.897823 2.87168,2.897823 1.58816,0 2.87168,-1.299553 2.87168,-2.897823 0,-1.598269 -1.28352,-2.897823 -2.87168,-2.897823 -1.58816,0 -2.87168,1.299554 -2.87168,2.897823 z"
       id="Stroke-3"
       style="fill:#ffffff;fill-rule:evenodd;stroke:none;stroke-width:1.55807" />
    <path
       d="m -331.90994,85.989831 -0.0407,0.159517 0.026,0.163269 c 0.0372,0.233689 0.11824,0.62355 0.25309,1.118907 0.22388,0.822466 0.52221,1.645502 0.90735,2.419099 1.67481,3.364043 4.40577,4.739531 8.18449,2.837203 l -0.53297,-3e-6 c 3.77495,1.900489 6.545,0.530751 8.29314,-2.825011 0.40247,-0.772592 0.71847,-1.594866 0.95943,-2.416668 0.14516,-0.495096 0.23407,-0.884784 0.27596,-1.118337 l 0.0306,-0.170611 -0.0427,-0.167365 -2.85511,-11.199244 -1.24475,0.393652 2.8551,11.199244 -0.012,-0.337977 c -0.0324,0.180763 -0.10892,0.516129 -0.23709,0.953243 -0.2146,0.731882 -0.49568,1.463291 -0.84862,2.140804 -1.44078,2.765761 -3.53238,3.800016 -6.64094,2.235018 l -0.26648,-0.134165 -0.26649,0.13415 c -3.10501,1.563161 -5.14707,0.534653 -6.51989,-2.222827 -0.3368,-0.676508 -0.60164,-1.407155 -0.80069,-2.138373 -0.11891,-0.436853 -0.18856,-0.772043 -0.21735,-0.952673 l -0.0147,0.322788 2.85511,-11.199245 -1.24476,-0.393651 z"
       id="Stroke-5"
       style="fill:#ffffff;fill-rule:evenodd;stroke:none;stroke-width:1.55807" />
    <path
       d="m -315.26592,71.164515 c -1.03084,-0.115936 -2.09688,0.519944 -3.27357,1.718245 -0.68821,0.700845 -1.40603,1.591956 -2.14216,2.631119 -0.638,0.900629 -1.25493,1.862594 -1.82867,2.824234 -0.34444,0.577323 -0.59887,1.027875 -0.74011,1.28908 l 1.35545,-0.02661 c -0.0395,-0.06658 -0.11285,-0.188111 -0.2169,-0.356817 -0.17231,-0.279365 -0.36866,-0.590199 -0.58578,-0.924728 -0.62063,-0.956226 -1.28464,-1.912745 -1.96682,-2.808083 -0.69162,-0.90774 -1.36485,-1.702968 -2.00951,-2.355664 -1.33867,-1.35536 -2.50931,-2.075804 -3.60165,-1.952952 l 0.17413,1.548305 c 0.45791,-0.05149 1.29731,0.465089 2.319,1.499519 0.5925,0.59989 1.22441,1.346316 1.8787,2.20506 0.65607,0.861071 1.29845,1.786421 1.89923,2.712063 0.36024,0.555041 0.62562,0.985294 0.76922,1.227613 l 0.70121,1.183282 0.65424,-1.209889 c 0.13139,-0.242988 0.37522,-0.674775 0.70761,-1.231886 0.55431,-0.929086 1.14996,-1.857848 1.76204,-2.721896 0.69195,-0.9768 1.36038,-1.80659 1.98247,-2.440103 0.86627,-0.88218 1.57935,-1.30752 1.98774,-1.26159 l 0.17413,-1.548305 z"
       id="Stroke-7"
       style="fill:#ffffff;fill-rule:evenodd;stroke:none;stroke-width:1.55807" />
    <path
       d="m -310.06004,58.982889 c 0.22498,-0.0069 0.60569,-0.03087 1.09158,-0.08239 0.8099,-0.08588 1.62093,-0.220764 2.3849,-0.416913 1.58821,-0.40777 2.78029,-1.021845 3.42066,-1.958461 0.90026,-1.316456 2.556,-1.097786 3.13067,0.182028 0.90941,2.026355 0.60531,7.416033 -1.02016,8.952115 -0.10115,0.09517 -0.10115,0.09517 -0.20248,0.188942 -0.92215,0.849897 -1.91313,1.624459 -2.90403,2.306452 -0.59263,0.407874 -1.05018,0.692273 -1.30414,0.837427 l 0.77315,1.352707 c 0.0761,-0.04347 0.21169,-0.124163 0.39847,-0.240254 0.30733,-0.191027 0.64875,-0.413756 1.01586,-0.666419 1.04795,-0.721254 2.09583,-1.540286 3.07662,-2.444225 0.10833,-0.100246 0.10833,-0.100246 0.21666,-0.202182 2.18194,-2.061954 2.52551,-8.151188 1.37146,-10.722647 -1.05855,-2.357442 -4.22925,-2.776191 -5.83822,-0.423383 -0.37323,0.545891 -1.26803,1.00683 -2.52198,1.32878 -0.68268,0.175276 -1.42164,0.29818 -2.16173,0.376652 -0.4441,0.04709 -0.78672,0.06866 -0.97506,0.07444 l 0.0478,1.557334 z"
       id="Stroke-9"
       style="fill:#ffffff;fill-rule:evenodd;stroke:none;stroke-width:1.55807" />
    <path
       d="m -322.88718,51.997328 c -0.14892,0.03381 -0.42075,0.100286 -0.79804,0.200085 -0.62475,0.165253 -1.31986,0.365144 -2.06797,0.60039 -2.13832,0.672412 -4.27735,1.4946 -6.27925,2.474041 -5.06302,2.477104 -8.42381,5.528323 -9.23156,9.276756 -0.14054,0.604325 -0.22399,1.244199 -0.2514,1.904677 -0.0918,2.212347 0.43426,4.549998 1.36373,6.868847 0.29817,0.743887 0.61758,1.43221 0.93759,2.049288 0.19379,0.373711 0.34655,0.643558 0.43772,0.793536 l -0.1111,-0.345648 c 0.0104,0.136877 0.0306,0.392119 0.06,0.748863 0.049,0.593832 0.10622,1.25535 0.17119,1.967687 0.18569,2.03581 0.39624,4.071874 0.62776,5.973902 0.304,2.497573 0.62134,4.573676 0.95017,6.095326 0.37594,2.875424 10.06253,9.392249 14.43838,9.392249 4.36117,0 13.83647,-6.502993 14.22514,-9.455114 0.31784,-1.458835 0.63515,-3.534994 0.93916,-6.032649 0.2315,-1.902042 0.44208,-3.938122 0.6278,-5.973946 0.065,-0.712342 0.12223,-1.373864 0.17123,-1.967702 0.0294,-0.356746 0.0496,-0.611996 0.06,-0.748866 l -0.11108,0.345602 c 0.0912,-0.149995 0.24392,-0.41986 0.43772,-0.793596 0.32,-0.617127 0.63941,-1.305496 0.93758,-2.049433 0.92931,-2.318608 1.45539,-4.655993 1.36377,-6.868081 -0.0274,-0.660864 -0.11085,-1.301098 -0.2542,-1.91798 -0.8046,-3.73418 -4.15084,-6.784852 -9.18977,-9.261589 -1.99392,-0.980048 -4.12438,-1.802723 -6.25416,-2.475518 -0.74511,-0.235382 -1.43746,-0.435387 -2.05972,-0.600735 -0.37581,-0.09986 -0.64659,-0.166378 -0.79497,-0.200222 z m 0.34499,1.519392 -0.34574,-1.69e-4 c 0.13094,0.02987 0.38391,0.09201 0.74133,0.186981 0.59979,0.159378 1.26916,0.352747 1.99051,0.580621 2.06012,0.65079 4.11955,1.446034 6.0362,2.388108 4.65173,2.286416 7.67561,5.043205 8.3567,8.203748 0.12344,0.531668 0.19436,1.075651 0.21781,1.642007 0.0812,1.959353 -0.39895,4.092455 -1.25326,6.223955 -0.27841,0.694636 -0.57676,1.337619 -0.87453,1.911862 -0.17686,0.341084 -0.3124,0.580524 -0.38597,0.701572 l -0.0969,0.159494 -0.0142,0.186108 c -0.0101,0.13362 -0.0301,0.385514 -0.0592,0.738783 -0.0486,0.589519 -0.10549,1.246593 -0.17006,1.954279 -0.1844,2.021398 -0.39343,4.04254 -0.62283,5.927241 -0.29873,2.454341 -0.60975,4.489293 -0.92634,5.954704 -0.28584,2.151084 -9.04597,8.163246 -12.69131,8.163246 -3.66393,0 -12.63246,-6.033732 -12.90455,-8.100421 -0.32754,-1.528238 -0.63859,-3.563111 -0.93731,-6.017343 -0.2294,-1.884678 -0.43841,-3.905797 -0.62278,-5.92717 -0.0645,-0.707678 -0.1214,-1.364746 -0.17003,-1.954258 -0.0291,-0.353263 -0.049,-0.605162 -0.0592,-0.738771 l -0.0141,-0.186136 -0.097,-0.159513 c -0.0736,-0.121034 -0.20911,-0.360451 -0.38598,-0.701505 -0.29776,-0.574191 -0.59611,-1.217121 -0.87452,-1.911706 -0.85444,-2.131692 -1.33456,-4.265002 -1.25322,-6.224542 0.0235,-0.566016 0.0944,-1.109686 0.21504,-1.628853 0.68382,-3.172845 3.72141,-5.930627 8.39593,-8.217658 1.92483,-0.941731 3.99302,-1.736694 6.0619,-2.387268 0.72443,-0.227799 1.39665,-0.421108 1.99901,-0.580441 0.35897,-0.09495 0.61305,-0.157084 0.74461,-0.186955 z"
       id="Stroke-11"
       style="fill:#ffffff;fill-rule:evenodd;stroke:none;stroke-width:1.55807" />
    <path
       d="m -323.051,58.884368 c -4.50308,0 -7.9165,5.624913 -7.9165,12.483462 0,5.905869 2.88609,10.00909 7.90381,13.091019 l 0.42363,0.260197 0.42364,-0.260185 c 4.87976,-2.996987 7.67993,-7.148408 7.67993,-13.104348 0,-6.806124 -3.57439,-12.503693 -8.10356,-12.503693 l -0.4778,0.03627 z m 0.0669,1.474094 0.41095,-0.03355 c 3.38594,0.0027 6.47865,4.932484 6.47865,11.029599 0,5.411208 -2.50297,9.122002 -6.96913,11.864964 l 0.84727,1.3e-5 c -4.60999,-2.831501 -7.19303,-6.503864 -7.19303,-11.85166 0,-6.150859 2.94668,-11.006644 6.35844,-11.006644 z"
       id="Stroke-13"
       style="fill:#ffffff;fill-rule:evenodd;stroke:none;stroke-width:1.55807" />
    <path
       d="m -340.09956,68.866981 c -0.25437,-0.13511 -0.71531,-0.406303 -1.31328,-0.803743 -1.00099,-0.665305 -2.00226,-1.437739 -2.93415,-2.305941 -0.0522,-0.04878 -0.0522,-0.04878 -0.10445,-0.09801 -1.62568,-1.536098 -1.92986,-6.925693 -1.02036,-8.952252 0.57212,-1.274355 2.22737,-1.483789 3.13065,-0.162919 0.63251,0.925114 1.78513,1.541203 3.30877,1.954796 0.74667,0.202683 1.53901,0.343099 2.33021,0.433608 0.47473,0.0543 0.84689,0.08018 1.06729,0.08808 l 0.0558,-1.557065 c -0.18226,-0.0065 -0.51477,-0.02965 -0.94605,-0.07899 -0.71879,-0.08223 -1.43645,-0.209407 -2.09912,-0.389289 -1.19813,-0.325234 -2.05749,-0.784566 -2.4308,-1.330583 -1.60913,-2.353046 -4.78045,-1.951788 -5.83822,0.404317 -1.15414,2.571645 -0.81047,8.660835 1.37168,10.72274 0.0562,0.05301 0.0562,0.05301 0.11248,0.105544 0.99882,0.930564 2.06616,1.753966 3.13379,2.463556 0.37423,0.248733 0.72241,0.465848 1.036,0.650351 0.19104,0.112399 0.33018,0.190016 0.40887,0.23181 l 0.73085,-1.376016 z"
       id="Stroke-15"
       style="fill:#ffffff;fill-rule:evenodd;stroke:none;stroke-width:1.55807" />
    <polygon
       id="Stroke-17"
       points="15.974378,27.271139 16.974378,27.271139 16.974378,21.028364 15.974378,21.028364 "
       transform="matrix(1.5580664,0,0,1.5580664,-348.42329,51.060488)"
       style="fill:#ffffff;fill-rule:evenodd;stroke:none;stroke-width:1" />
  </g>
</svg>
