<?xml version="1.0" encoding="UTF-8" standalone="no"?>
<svg
   height="128"
   viewBox="0 0 128 128"
   width="128"
   version="1.1"
   id="svg35"
   xmlns="http://www.w3.org/2000/svg"
   xmlns:svg="http://www.w3.org/2000/svg">
  <defs
     id="defs39" />
  <linearGradient
     id="a"
     gradientUnits="userSpaceOnUse"
     x1="36"
     x2="60"
     y1="68"
     y2="68">
    <stop
       offset="0"
       stop-color="#ed336c"
       id="stop2" />
    <stop
       offset="1"
       stop-color="#ffa348"
       id="stop4" />
  </linearGradient>
  <linearGradient
     id="b"
     gradientTransform="rotate(90,88,56)"
     gradientUnits="userSpaceOnUse"
     x1="72"
     x2="96"
     y1="68"
     y2="68">
    <stop
       offset="0"
       stop-color="#404ce6"
       id="stop7" />
    <stop
       offset="1"
       stop-color="#c061cb"
       id="stop9" />
  </linearGradient>
  <linearGradient
     id="c"
     gradientUnits="userSpaceOnUse"
     x1="68.84919"
     x2="95.257637"
     y1="84"
     y2="84">
    <stop
       offset="0"
       stop-color="#33d1c6"
       id="stop12" />
    <stop
       offset="1"
       stop-color="#1c25d8"
       id="stop14" />
  </linearGradient>
  <path
     style="display:inline;fill:#eaaa0d;fill-opacity:1;stroke:none;stroke-width:0.125;stroke-linejoin:round;stroke-miterlimit:4;stroke-dasharray:none;stroke-opacity:1;enable-background:new"
     clip-path="none"
     d="m 27.978081,8.0000006 h 50.000002 l 30.042897,29.9178934 0.001,74.060006 c 8e-5,4.432 -3.6122,8.0221 -8.044197,8.0221 H 27.97802 c -4.431999,0 -7.999999,-3.568 -7.999999,-8.00001 V 16 c 0,-4.431999 3.568,-7.9999994 7.999999,-7.9999994 z"
     id="path4411" />
  <path
     style="display:inline;vector-effect:none;fill:#000000;fill-opacity:0.2;stroke:none;stroke-width:0.125;stroke-linecap:butt;stroke-linejoin:round;stroke-miterlimit:4;stroke-dasharray:none;stroke-dashoffset:0;stroke-opacity:1;enable-background:new"
     d="M 77.978074,8.0000006 V 30.000002 c 0,4.432 3.610527,7.923448 8.042527,7.923448 l 22.000369,-0.0055 z"
     id="path4413" />
  <g
     id="g2"
     transform="matrix(1.0635647,0,0,1.0635647,148.49332,24.747562)"
     style="fill:#000000">
    <path
       class="st1"
       d="m -104.02936,74.515295 c -1.96942,0 -3.62118,-1.588235 -3.62118,-3.621177 0,-1.969411 1.58824,-3.621176 3.62118,-3.621176 1.9694,0 3.62117,1.588236 3.62117,3.621176 0,1.969412 -1.58824,3.621177 -3.62117,3.621177 z"
       id="path6"
       style="fill:#000000;stroke-width:0.635293" />
    <path
       class="st1"
       d="m -104.02936,64.668236 c -1.96942,0 -3.62118,-1.588235 -3.62118,-3.621176 0,-1.969412 1.58824,-3.621176 3.62118,-3.621176 1.9694,0 3.62117,1.588234 3.62117,3.621176 0,2.032941 -1.58824,3.621176 -3.62117,3.621176 z"
       id="path8"
       style="fill:#000000;stroke-width:0.635293" />
    <path
       class="st1"
       d="m -94.182321,74.515295 c -1.969406,0 -3.621173,-1.588235 -3.621173,-3.621177 0,-1.969411 1.588233,-3.621176 3.621173,-3.621176 1.969413,0 3.621172,1.588236 3.621172,3.621176 0,1.969412 -1.588233,3.621177 -3.621172,3.621177 z"
       id="path10"
       style="fill:#000000;stroke-width:0.635293" />
    <path
       class="st1"
       d="m -94.182321,64.668236 c -1.969406,0 -3.621173,-1.588235 -3.621173,-3.621176 0,-1.969412 1.588233,-3.621176 3.621173,-3.621176 1.969413,0 3.621172,1.588234 3.621172,3.621176 0,2.032941 -1.588233,3.621176 -3.621172,3.621176 z"
       id="path12"
       style="fill:#000000;stroke-width:0.635293" />
    <path
       class="st1"
       d="m -94.182321,54.821178 c -1.969406,0 -3.621173,-1.588236 -3.621173,-3.621177 0,-1.969412 1.588233,-3.621177 3.621173,-3.621177 1.969413,0 3.621172,1.588236 3.621172,3.621177 0,2.032941 -1.588233,3.621177 -3.621172,3.621177 z"
       id="path14"
       style="fill:#000000;stroke-width:0.635293" />
    <path
       class="st1"
       d="m -84.335269,64.668236 c -1.969414,0 -3.621173,-1.588235 -3.621173,-3.621176 0,-1.969412 1.588233,-3.621176 3.621173,-3.621176 1.969405,0 3.621172,1.588234 3.621172,3.621176 0,2.032941 -1.651767,3.621176 -3.621172,3.621176 z"
       id="path16"
       style="fill:#000000;stroke-width:0.635293" />
    <path
       class="st1"
       d="m -84.335269,54.821178 c -1.969414,0 -3.621173,-1.588236 -3.621173,-3.621177 0,-1.969412 1.588233,-3.621177 3.621173,-3.621177 1.969405,0 3.621172,1.588236 3.621172,3.621177 0,2.032941 -1.651767,3.621177 -3.621172,3.621177 z"
       id="path18"
       style="fill:#000000;stroke-width:0.635293" />
    <path
       class="st1"
       d="m -74.488226,64.668236 c -1.969405,0 -3.621172,-1.588235 -3.621172,-3.621176 0,-1.969412 1.588232,-3.621176 3.621172,-3.621176 1.969414,0 3.621173,1.588234 3.621173,3.621176 -0.06354,2.032941 -1.651759,3.621176 -3.621173,3.621176 z"
       id="path20"
       style="fill:#000000;stroke-width:0.635293" />
    <path
       class="st1"
       d="m -74.488226,54.821178 c -1.969405,0 -3.621172,-1.588236 -3.621172,-3.621177 0,-1.969412 1.588232,-3.621177 3.621172,-3.621177 1.969414,0 3.621173,1.588236 3.621173,3.621177 -0.06354,2.032941 -1.651759,3.621177 -3.621173,3.621177 z"
       id="path22"
       style="fill:#000000;stroke-width:0.635293" />
    <path
       class="st1"
       d="m -64.704708,74.515295 c -1.969406,0 -3.621173,-1.588235 -3.621173,-3.621177 0,-1.969411 1.588233,-3.621176 3.621173,-3.621176 1.969413,0 3.621172,1.588236 3.621172,3.621176 0,1.969412 -1.588233,3.621177 -3.621172,3.621177 z"
       id="path24"
       style="fill:#000000;stroke-width:0.635293" />
    <path
       class="st1"
       d="m -64.704708,64.668236 c -1.969406,0 -3.621173,-1.588235 -3.621173,-3.621176 0,-1.969412 1.588233,-3.621176 3.621173,-3.621176 1.969413,0 3.621172,1.588234 3.621172,3.621176 0,2.032941 -1.588233,3.621176 -3.621172,3.621176 z"
       id="path26"
       style="fill:#000000;stroke-width:0.635293" />
    <path
       class="st1"
       d="m -64.704708,54.821178 c -1.969406,0 -3.621173,-1.588236 -3.621173,-3.621177 0,-1.969412 1.588233,-3.621177 3.621173,-3.621177 1.969413,0 3.621172,1.588236 3.621172,3.621177 0,2.032941 -1.588233,3.621177 -3.621172,3.621177 z"
       id="path28"
       style="fill:#000000;stroke-width:0.635293" />
    <path
       class="st1"
       d="m -54.857656,74.515295 c -1.969414,0 -3.621173,-1.588235 -3.621173,-3.621177 0,-1.969411 1.588233,-3.621176 3.621173,-3.621176 1.969405,0 3.621172,1.588236 3.621172,3.621176 0,1.969412 -1.651767,3.621177 -3.621172,3.621177 z"
       id="path30"
       style="fill:#000000;stroke-width:0.635293" />
    <path
       class="st1"
       d="m -54.857656,64.668236 c -1.969414,0 -3.621173,-1.588235 -3.621173,-3.621176 0,-1.969412 1.588233,-3.621176 3.621173,-3.621176 1.969405,0 3.621172,1.588234 3.621172,3.621176 0,2.032941 -1.651767,3.621176 -3.621172,3.621176 z"
       id="path32"
       style="fill:#000000;stroke-width:0.635293" />
  </g>
</svg>
