<?xml version="1.0" encoding="UTF-8" standalone="no"?>
<svg
   height="128px"
   viewBox="0 0 128 128"
   width="128px"
   version="1.1"
   id="svg35"
   xml:space="preserve"
   xmlns="http://www.w3.org/2000/svg"
   xmlns:svg="http://www.w3.org/2000/svg"><defs
     id="defs39"><linearGradient
       id="a-63"
       gradientUnits="userSpaceOnUse"
       x1="22.00001"
       x2="128.00002"
       y1="67"
       y2="67"
       gradientTransform="matrix(0.55555555,0,0,0.55555555,27.611109,37.329195)"><stop
         offset="0"
         stop-color="#5c596d"
         id="stop1-9" /><stop
         offset="0.811321"
         stop-color="#b3b2c0"
         id="stop2-4" /><stop
         offset="1"
         stop-color="#838289"
         id="stop3-8" /></linearGradient><linearGradient
       id="b-7"
       gradientUnits="userSpaceOnUse"
       x1="37.999992"
       x2="119.99995"
       y1="101.99996"
       y2="19.999989"
       gradientTransform="matrix(0.55555555,0,0,0.55555555,27.611109,37.329195)"><stop
         offset="0"
         stop-color="#a3b6d1"
         id="stop4-6" /><stop
         offset="0.195122"
         stop-color="#a9c5f0"
         id="stop5-7" /><stop
         offset="0.45122"
         stop-color="#dbdeff"
         id="stop6-3" /><stop
         offset="0.707317"
         stop-color="#b7c5ef"
         id="stop7-6" /><stop
         offset="1"
         stop-color="#8fb2dd"
         id="stop8-5" /></linearGradient><linearGradient
       id="c-7"
       gradientUnits="userSpaceOnUse"
       x1="3.00001"
       x2="47.000011"
       y1="70"
       y2="70"
       gradientTransform="matrix(0.55555555,0,0,0.55555555,27.611109,37.329195)"><stop
         offset="0"
         stop-color="#9a3800"
         id="stop9-7" /><stop
         offset="0.0909091"
         stop-color="#ed5300"
         id="stop10-1" /><stop
         offset="0.181818"
         stop-color="#c64600"
         id="stop11-1" /><stop
         offset="0.818182"
         stop-color="#c64600"
         id="stop12-5" /><stop
         offset="0.909091"
         stop-color="#ed5300"
         id="stop13-9" /><stop
         offset="1"
         stop-color="#9a3800"
         id="stop14-7" /></linearGradient><linearGradient
       id="d-5"
       gradientTransform="matrix(0.69444444,0,0,0.67901388,19.277776,14.366073)"
       gradientUnits="userSpaceOnUse"
       x1="20"
       x2="44"
       y1="122.99989"
       y2="122.99989"><stop
         offset="0"
         stop-color="#adadaa"
         id="stop15-9" /><stop
         offset="0.0833333"
         stop-color="#d7d6d5"
         id="stop16-4" /><stop
         offset="0.166667"
         stop-color="#afafab"
         id="stop17-9" /><stop
         offset="0.654803"
         stop-color="#b8b8b4"
         id="stop18-0" /><stop
         offset="0.938916"
         stop-color="#a3a29f"
         id="stop19-9" /><stop
         offset="1"
         stop-color="#8d8b88"
         id="stop20-1" /></linearGradient><linearGradient
       id="e-0"
       gradientTransform="matrix(0.69444444,0,0,0.62500166,19.277782,21.495634)"
       gradientUnits="userSpaceOnUse"
       x1="19.500002"
       x2="44.5"
       y1="128.00002"
       y2="128.00002"><stop
         offset="0"
         stop-color="#e0e0e0"
         id="stop21-6" /><stop
         offset="1"
         stop-color="#d1ccc5"
         id="stop22-1" /></linearGradient><linearGradient
       id="f-2"
       gradientTransform="matrix(0.64814833,0,0,0.48611166,20.75926,39.273551)"
       gradientUnits="userSpaceOnUse"
       x1="19.500002"
       x2="44.5"
       y1="128.00002"
       y2="128.00002"><stop
         offset="0"
         stop-color="#545251"
         id="stop23-2" /><stop
         offset="0.471382"
         stop-color="#7d7c7a"
         id="stop24-6" /><stop
         offset="1"
         stop-color="#908e8d"
         id="stop25-1" /></linearGradient><linearGradient
       id="g-1"
       gradientUnits="userSpaceOnUse"
       x1="3.00001"
       x2="47.000011"
       y1="91"
       y2="91"
       gradientTransform="matrix(0.55555555,0,0,0.55555555,27.611109,37.329195)"><stop
         offset="0"
         stop-color="#ff8500"
         stop-opacity="0.152941"
         id="stop26-7" /><stop
         offset="0.185933"
         stop-color="#ff7c00"
         stop-opacity="0.341176"
         id="stop27-2" /><stop
         offset="1"
         stop-color="#ffa200"
         stop-opacity="0.137255"
         id="stop28-7" /></linearGradient></defs><linearGradient
     id="a"
     gradientUnits="userSpaceOnUse"
     x1="36"
     x2="60"
     y1="68"
     y2="68"><stop
       offset="0"
       stop-color="#ed336c"
       id="stop2" /><stop
       offset="1"
       stop-color="#ffa348"
       id="stop4" /></linearGradient><linearGradient
     id="b"
     gradientTransform="matrix(0 1 -1 0 144 -32)"
     gradientUnits="userSpaceOnUse"
     x1="72"
     x2="96"
     y1="68"
     y2="68"><stop
       offset="0"
       stop-color="#404ce6"
       id="stop7" /><stop
       offset="1"
       stop-color="#c061cb"
       id="stop9" /></linearGradient><linearGradient
     id="c"
     gradientUnits="userSpaceOnUse"
     x1="68.84919"
     x2="95.257637"
     y1="84"
     y2="84"><stop
       offset="0"
       stop-color="#33d1c6"
       id="stop12" /><stop
       offset="1"
       stop-color="#1c25d8"
       id="stop14" /></linearGradient><path
     id="path1873"
     d="m 27.978076,7.9999979 h 50.000001 l 30.042893,29.9178951 10e-4,74.060007 c 9e-5,4.432 -3.61218,8.0221 -8.044178,8.0221 H 27.978026 c -4.431998,0 -7.999997,-3.568 -7.999997,-8 V 15.999997 c 0,-4.432 3.567999,-7.9999991 7.999997,-7.9999991 z"
     clip-path="none"
     style="font-variation-settings:normal;display:inline;vector-effect:none;fill:#c64600;fill-opacity:1;stroke:none;stroke-width:6.51672;stroke-linecap:butt;stroke-linejoin:miter;stroke-miterlimit:4;stroke-dasharray:none;stroke-dashoffset:0;stroke-opacity:1;marker:none;marker-start:none;marker-mid:none;marker-end:none;paint-order:normal;enable-background:new;stop-color:#000000" /><path
     id="path1875"
     d="M 77.977964,7.9999979 V 30.000001 c 0,4.432 3.610528,7.923448 8.042527,7.923448 l 22.000369,-0.0055 z"
     style="font-variation-settings:normal;display:inline;vector-effect:none;fill:#e66100;fill-opacity:1;stroke:none;stroke-width:6.51672;stroke-linecap:butt;stroke-linejoin:miter;stroke-miterlimit:4;stroke-dasharray:none;stroke-dashoffset:0;stroke-opacity:1;marker:none;marker-start:none;marker-mid:none;marker-end:none;paint-order:normal;enable-background:new;stop-color:#000000" /><path
     d="m 69.277776,45.106973 c -16.26085,0 -29.444444,13.183594 -29.444444,29.444444 0,16.26085 13.183594,29.444443 29.444444,29.444443 16.26085,0 29.444444,-13.183593 29.444444,-29.444443 0,-16.26085 -13.183594,-29.444444 -29.444444,-29.444444 z m 0,25.555555 c 2.148439,0 3.888889,1.740451 3.888889,3.888889 0,2.148438 -1.74045,3.888889 -3.888889,3.888889 -2.148439,0 -3.888889,-1.740451 -3.888889,-3.888889 0,-2.148438 1.74045,-3.888889 3.888889,-3.888889 z m 0,0"
     fill="url(#a)"
     id="path28-2"
     style="fill:url(#a-63);stroke-width:0.555556" /><path
     d="m 69.277776,43.995862 c -16.26085,0 -29.444444,13.183593 -29.444444,29.444444 0,16.26085 13.183594,29.444444 29.444444,29.444444 16.26085,0 29.444444,-13.183594 29.444444,-29.444444 0,-16.260851 -13.183594,-29.444444 -29.444444,-29.444444 z m 0,25.518663 c 2.167966,0 3.925783,1.757812 3.925783,3.925781 0,2.167969 -1.757817,3.925781 -3.925783,3.925781 -0.09766,-0.01519 -0.193145,-0.03472 -0.288628,-0.05642 -0.319011,-0.02387 -0.63585,-0.08681 -0.941839,-0.188803 -0.171444,-0.05642 -0.338544,-0.125867 -0.503472,-0.208333 -0.303822,-0.149739 -0.590278,-0.340712 -0.844189,-0.564236 -0.117183,-0.104167 -0.225694,-0.212674 -0.329861,-0.329861 -0.223522,-0.253906 -0.414495,-0.540365 -0.564233,-0.844184 -0.08247,-0.164931 -0.151912,-0.332031 -0.208334,-0.503472 -0.101994,-0.30599 -0.164933,-0.62283 -0.1888,-0.941841 -0.02172,-0.09549 -0.04122,-0.190972 -0.05643,-0.288628 0.01517,-0.09766 0.03472,-0.193142 0.05643,-0.288629 0.02389,-0.31901 0.08681,-0.63585 0.1888,-0.94184 0.05642,-0.171441 0.125867,-0.338542 0.208334,-0.503472 0.149738,-0.30382 0.340711,-0.590278 0.564233,-0.844184 0.104167,-0.117187 0.212678,-0.225695 0.329861,-0.329861 0.253911,-0.223525 0.540367,-0.414497 0.844189,-0.564236 0.164928,-0.08247 0.332028,-0.15191 0.503472,-0.208334 0.305989,-0.101996 0.622828,-0.16493 0.941839,-0.188802 0.09548,-0.0217 0.190972,-0.04123 0.288628,-0.05642 z m 0,0"
     fill="#d1d4db"
     id="path29-9"
     style="stroke-width:0.555556" /><path
     d="m 69.277776,45.106973 c -15.648872,0 -28.333333,12.684461 -28.333333,28.333333 0,15.648871 12.684461,28.333334 28.333333,28.333334 15.648872,0 28.333333,-12.684463 28.333333,-28.333334 0,-15.648872 -12.684461,-28.333333 -28.333333,-28.333333 z m 0,24.444444 c 0.164928,0 0.329861,0.01085 0.494789,0.03255 0.0087,0.0022 0.01517,0.0022 0.02389,0.0043 0.160594,0.01953 0.319011,0.05208 0.477433,0.09332 0.0087,0.0022 0.01733,0.0043 0.02605,0.0087 0.158423,0.04123 0.314673,0.09549 0.466578,0.15842 0.149739,0.06076 0.297311,0.134549 0.438372,0.214844 0.01083,0.0065 0.01956,0.01085 0.02822,0.01736 0.141055,0.0803 0.275605,0.171441 0.403644,0.269097 0.0044,0.0022 0.0065,0.0043 0.0087,0.0065 0.0044,0.0022 0.0065,0.0043 0.0087,0.0087 0.132378,0.09983 0.256078,0.208334 0.373262,0.325521 0.117188,0.117188 0.225694,0.240885 0.325522,0.373264 0.0044,0.0022 0.0065,0.0065 0.01083,0.0087 0,0.0022 0.0022,0.0043 0.0044,0.0087 0.09766,0.128039 0.1888,0.262587 0.2691,0.403647 0.0065,0.0087 0.01083,0.01953 0.01733,0.02821 0.08029,0.141059 0.154078,0.288628 0.217011,0.438367 0.06077,0.15191 0.115017,0.30816 0.158422,0.46658 0.0022,0.0087 0.0044,0.01736 0.0065,0.02821 0.04122,0.15625 0.07378,0.31467 0.09548,0.47526 0,0.0087 0.0022,0.01519 0.0022,0.02387 0.02159,0.164929 0.03244,0.329859 0.03244,0.49479 -0.0022,0.494791 -0.09983,0.985243 -0.286462,1.443142 -0.0087,0.02387 -0.01733,0.04774 -0.02605,0.07379 -0.190972,0.442708 -0.462239,0.848524 -0.800778,1.193576 -0.02172,0.0217 -0.04339,0.04341 -0.06511,0.06511 -0.34505,0.338541 -0.750867,0.609808 -1.193578,0.800781 -0.02606,0.0087 -0.04989,0.01736 -0.07378,0.02604 -0.457884,0.186634 -0.948339,0.284291 -1.443128,0.286461 -0.494795,-0.0022 -0.985245,-0.09983 -1.443145,-0.288629 -0.02389,-0.0065 -0.04772,-0.01519 -0.07378,-0.02604 -0.442706,-0.188802 -0.848522,-0.460069 -1.193578,-0.798611 -0.02172,-0.0217 -0.04339,-0.04341 -0.0651,-0.0651 -0.338544,-0.345052 -0.609811,-0.750868 -0.800783,-1.195747 -0.0087,-0.02387 -0.01733,-0.04774 -0.02389,-0.07161 -0.188783,-0.457902 -0.286439,-0.948354 -0.288611,-1.443145 0.0022,-0.494792 0.09983,-0.985244 0.286455,-1.443142 0.0087,-0.02387 0.01733,-0.04774 0.02606,-0.07379 0.190972,-0.442709 0.462239,-0.848524 0.800778,-1.193577 l 0.0651,-0.0651 c 0.34505,-0.338542 0.750867,-0.609809 1.193578,-0.800781 0.02606,-0.0087 0.04989,-0.01736 0.07378,-0.02604 0.457889,-0.186634 0.948339,-0.284291 1.443134,-0.286461 z m 0,0"
     fill="url(#b)"
     id="path30-3"
     style="fill:url(#b-7);stroke-width:0.555556" /><path
     d="m 69.277776,63.995861 c -5.217017,0 -9.444445,4.227431 -9.444445,9.444445 0,5.217014 4.227428,9.444444 9.444445,9.444444 5.217011,0 9.444444,-4.22743 9.444444,-9.444444 0,-5.217014 -4.227433,-9.444445 -9.444444,-9.444445 z m 0,5.555556 c 2.148439,0 3.888889,1.740451 3.888889,3.888889 0,2.148438 -1.74045,3.888889 -3.888889,3.888889 -2.148439,0 -3.888889,-1.740451 -3.888889,-3.888889 0,-2.148438 1.74045,-3.888889 3.888889,-3.888889 z m 0,0"
     fill="#757c9b"
     id="path31-9"
     style="stroke-width:0.555556" /><path
     d="m 53.713537,52.153414 c -8.307289,5.436198 -13.318139,14.69184 -13.32465,24.620225 0.01733,2.269966 0.299478,4.52908 0.835506,6.736111 1.78385,5.588108 5.193139,10.449217 9.670138,14.034289 1.655812,-0.644533 2.827689,-2.243922 2.827689,-4.131945 V 52.300983 c 0,-0.04991 -0.0065,-0.09766 -0.0087,-0.147569 z m 0,0"
     fill-opacity="0.129412"
     id="path32"
     style="stroke-width:0.555556" /><path
     d="m 33.722221,55.106973 h 15.555555 c 2.454428,0 4.444444,1.990017 4.444444,4.444444 V 92.88475 c 0,2.454428 -1.990016,4.444444 -4.444444,4.444444 H 33.722221 c -2.454428,0 -4.444445,-1.990016 -4.444445,-4.444444 V 59.551417 c 0,-2.454427 1.990017,-4.444444 4.444445,-4.444444 z m 0,0"
     fill="url(#c)"
     id="path33"
     style="fill:url(#c-7);stroke-width:0.555556" /><path
     d="m 69.277776,65.106973 c -4.602867,0 -8.333333,3.730468 -8.333333,8.333333 0,4.602864 3.730466,8.333333 8.333333,8.333333 4.602866,0 8.333333,-3.730469 8.333333,-8.333333 0,-4.602865 -3.730467,-8.333333 -8.333333,-8.333333 z m 0,4.444444 c 0.08463,0 0.1671,0.0022 0.251733,0.0087 0.01956,0.0022 0.03906,0.0022 0.05859,0.0043 0.06293,0.0043 0.125872,0.01302 0.188805,0.01953 0.02389,0.0043 0.04772,0.0065 0.07161,0.0087 0.0044,0.0022 0.0065,0.0022 0.01083,0.0022 0.07379,0.01302 0.1454,0.02604 0.219188,0.04123 0.0195,0.0043 0.03689,0.0087 0.05642,0.01085 0.06944,0.01736 0.141055,0.03472 0.2105,0.05426 0.013,0.0043 0.02822,0.0087 0.04122,0.01085 0.07596,0.02387 0.149739,0.04774 0.223528,0.07595 0.02172,0.0087 0.04339,0.01736 0.06727,0.02387 0.06077,0.02387 0.121528,0.04991 0.184461,0.07596 0.01517,0.0087 0.03256,0.01519 0.04989,0.02387 0.06728,0.03038 0.132378,0.06293 0.199655,0.09766 0.0022,0.0022 0.0044,0.0043 0.0087,0.0065 0.02389,0.01302 0.04772,0.02604 0.07161,0.04123 0.04989,0.02821 0.102,0.05859 0.151911,0.09115 0.01956,0.01085 0.04122,0.02387 0.06077,0.03689 0.06944,0.04557 0.136717,0.09115 0.201822,0.141059 0,0 0.0022,0 0.0022,0.0022 0.0044,0.0022 0.0065,0.0043 0.01083,0.0087 0.05859,0.0434 0.117183,0.08898 0.173611,0.138889 0.01733,0.01519 0.03472,0.03038 0.05428,0.04557 0.06076,0.05425 0.121527,0.110676 0.180122,0.16927 0.05859,0.05859 0.115016,0.119358 0.169266,0.182292 0.01517,0.01736 0.03039,0.03472 0.04772,0.05426 0.04772,0.05425 0.09332,0.112847 0.138889,0.171441 0.0022,0.0043 0.0044,0.0065 0.0087,0.01085 0,0 0,0.0022 0.0022,0.0022 0.04772,0.0651 0.09332,0.132379 0.138889,0.201823 0.013,0.01953 0.02606,0.04123 0.03906,0.06076 0.03039,0.04991 0.06077,0.101997 0.09115,0.15408 0.013,0.0217 0.02605,0.04557 0.03906,0.07161 0.0022,0.0022 0.0044,0.0043 0.0065,0.0087 0.03472,0.0651 0.06727,0.130208 0.09766,0.197483 0.0087,0.01736 0.01517,0.03472 0.02389,0.05208 0.02605,0.06076 0.05205,0.121528 0.07596,0.184462 0.0065,0.0217 0.01517,0.04341 0.02389,0.06727 0.02822,0.07161 0.05206,0.145399 0.07596,0.221354 0.0022,0.01302 0.0065,0.02821 0.01083,0.04341 0.01956,0.06727 0.03689,0.138889 0.05428,0.208334 0.0022,0.01953 0.0065,0.03689 0.01083,0.05642 0.01517,0.07378 0.02822,0.147569 0.04122,0.221354 0,0.0022 0,0.0065 0.0022,0.0087 0.0022,0.02387 0.0044,0.04774 0.0087,0.07379 0.0065,0.06076 0.01517,0.123698 0.01956,0.188802 0.0022,0.01736 0.0022,0.03689 0.0044,0.05642 0.0063,0.08463 0.0085,0.167098 0.0085,0.251734 -0.0022,0.230034 -0.02389,0.457899 -0.06727,0.683594 -0.01083,0.06076 -0.02389,0.119357 -0.03905,0.177951 -0.04122,0.175781 -0.09332,0.347222 -0.15625,0.514323 -0.01956,0.05425 -0.03906,0.108507 -0.0586,0.16059 -0.09115,0.210503 -0.197483,0.410156 -0.321183,0.598958 -0.02172,0.03255 -0.04556,0.06293 -0.06944,0.09332 -0.110678,0.15842 -0.234373,0.308159 -0.36675,0.447048 -0.04339,0.04557 -0.08898,0.09115 -0.132384,0.132379 -0.141055,0.134548 -0.290794,0.258246 -0.447044,0.368923 -0.03256,0.02387 -0.06293,0.04774 -0.09332,0.06945 -0.190972,0.123697 -0.390628,0.230034 -0.598961,0.31901 -0.05428,0.0217 -0.108505,0.04123 -0.160589,0.06076 -0.169272,0.06293 -0.340711,0.115017 -0.514322,0.15625 -0.06077,0.01519 -0.119356,0.02821 -0.180122,0.03906 -0.2257,0.0434 -0.453567,0.06511 -0.6836,0.06728 -0.230034,-0.0022 -0.4579,-0.02387 -0.683595,-0.06727 -0.06076,-0.01085 -0.119355,-0.02387 -0.17795,-0.03906 -0.175783,-0.04123 -0.347222,-0.09332 -0.514322,-0.15625 -0.05428,-0.01953 -0.108511,-0.03906 -0.160594,-0.05859 -0.2105,-0.09115 -0.410156,-0.197483 -0.598956,-0.32118 -0.03256,-0.0217 -0.06293,-0.04557 -0.09332,-0.06945 -0.158422,-0.110677 -0.308161,-0.234375 -0.44705,-0.366753 -0.04555,-0.04341 -0.09114,-0.08898 -0.132377,-0.132379 -0.13455,-0.141059 -0.258245,-0.290798 -0.368923,-0.447048 -0.02389,-0.03255 -0.04772,-0.06293 -0.06944,-0.09332 -0.1237,-0.190973 -0.230033,-0.390625 -0.319011,-0.598959 -0.02172,-0.05426 -0.04122,-0.108506 -0.06076,-0.16059 -0.06294,-0.169271 -0.115022,-0.340711 -0.15625,-0.514323 -0.01517,-0.06076 -0.02822,-0.119357 -0.03906,-0.180121 -0.04341,-0.225696 -0.06511,-0.453561 -0.06728,-0.683595 0.0022,-0.230035 0.02389,-0.4579 0.06727,-0.683594 0.01083,-0.06076 0.02389,-0.119357 0.03906,-0.180122 0.04122,-0.173611 0.09332,-0.345051 0.15625,-0.514323 0.01955,-0.05208 0.03906,-0.106336 0.06077,-0.16059 0.08898,-0.208333 0.195311,-0.407986 0.319011,-0.598958 0.02172,-0.03038 0.04556,-0.06076 0.06944,-0.09332 0.110678,-0.15625 0.234372,-0.305989 0.368922,-0.447048 0.04122,-0.04341 0.08681,-0.08898 0.132378,-0.132379 0.138889,-0.132379 0.288628,-0.256076 0.44705,-0.366754 0.03039,-0.02387 0.06076,-0.04774 0.09332,-0.06944 0.1888,-0.123698 0.388455,-0.230034 0.598955,-0.32118 0.05206,-0.01953 0.106339,-0.03906 0.160595,-0.05859 0.1671,-0.06293 0.338538,-0.115018 0.514322,-0.15625 0.05859,-0.01519 0.117183,-0.02821 0.17795,-0.03906 0.2257,-0.0434 0.453566,-0.06511 0.6836,-0.06728 z m 0,0"
     fill="#d8dae5"
     id="path34-0"
     style="stroke-width:0.555556" /><path
     d="m 33.722221,45.106973 h 15.555555 c 2.454428,0 4.444444,1.990017 4.444444,4.444444 v 35.555555 c 0,2.454428 -1.990016,4.444445 -4.444444,4.444445 H 33.722221 c -2.454428,0 -4.444445,-1.990017 -4.444445,-4.444445 V 49.551417 c 0,-2.454427 1.990017,-4.444444 4.444445,-4.444444 z m 0,0"
     fill="#ff7800"
     id="path35"
     style="stroke-width:0.555556" /><path
     d="m 35.944443,91.773639 h 11.111111 c 1.534289,0 2.777778,1.493055 2.777778,3.333333 v 5.555558 c 0,1.84028 -1.243489,3.33333 -2.777778,3.33333 H 35.944443 c -1.534289,0 -2.777778,-1.49305 -2.777778,-3.33333 v -5.555558 c 0,-1.840278 1.243489,-3.333333 2.777778,-3.333333 z m 0,0"
     fill="url(#d)"
     id="path36"
     style="fill:url(#d-5);stroke-width:0.555556" /><path
     d="m 35.666665,98.995861 h 11.666667 c 1.380205,0 2.5,1.119799 2.5,2.499999 0,1.38021 -1.119795,2.5 -2.5,2.5 H 35.666665 c -1.380211,0 -2.5,-1.11979 -2.5,-2.5 0,-1.3802 1.119789,-2.499999 2.5,-2.499999 z m 0,0"
     fill="url(#e)"
     id="path37"
     style="fill:url(#e-0);stroke-width:0.555556" /><path
     d="m 35.666665,99.551417 h 11.666667 c 1.074216,0 1.944444,0.870223 1.944444,1.944443 0,1.07422 -0.870228,1.94445 -1.944444,1.94445 H 35.666665 c -1.074217,0 -1.944444,-0.87023 -1.944444,-1.94445 0,-1.07422 0.870227,-1.944443 1.944444,-1.944443 z m 0,0"
     fill="url(#f)"
     id="path38"
     style="fill:url(#f-2);stroke-width:0.555556" /><path
     d="m 42.051215,58.440306 h -1.111111 l -2.222222,4.444444 h 1.666666 v 5.555556 h -3.333333 v -1.41059 c 0.685761,-0.399306 1.111111,-1.128472 1.111111,-1.922743 0,-1.228299 -0.993928,-2.222223 -2.222222,-2.222223 -1.2283,0 -2.222222,0.993924 -2.222222,2.222223 0,0.794271 0.425344,1.527777 1.111111,1.922743 v 1.41059 c 0,2.222222 2.222222,2.222222 2.222222,2.222222 h 3.333333 v 1.41059 c -0.685766,0.399306 -1.111111,1.128472 -1.111111,1.922743 0,1.228299 0.993922,2.222223 2.222222,2.222223 1.228295,0 2.222223,-0.993924 2.222223,-2.222223 0,-0.794271 -0.42535,-1.527777 -1.111112,-1.922743 v -1.41059 h 3.333334 c 0,0 2.222222,0 2.222222,-2.222222 v -1.111111 c 0,0 1.25,-0.208334 1.111111,-1.111111 v -2.222223 c 0.138889,-1.25 -1.111111,-1.111111 -1.111111,-1.111111 h -2.222222 c -1.180556,0 -1.111111,1.111111 -1.111111,1.111111 v 2.222223 c 0,1.111111 1.111111,1.111111 1.111111,1.111111 v 1.111111 H 42.60677 V 62.88475 h 1.666667 z m 0,0"
     fill="#dd4e00"
     id="path39"
     style="stroke-width:0.555556" /><path
     d="m 29.277776,85.106972 v 1.111111 c 0,2.463108 1.981339,4.444445 4.444445,4.444445 h 15.555555 c 2.463105,0 4.444444,-1.981337 4.444444,-4.444445 v -1.111111 c 0,2.463108 -1.981339,4.444445 -4.444444,4.444445 H 33.722221 c -2.463106,0 -4.444445,-1.981337 -4.444445,-4.444445 z m 0,0"
     fill="url(#g)"
     id="path40"
     style="fill:url(#g-1);stroke-width:0.555556" /><path
     d="m 35.944443,91.773639 c -1.538628,0 -2.777778,1.486544 -2.777778,3.333333 v 1.111111 c 0,-1.846789 1.23915,-3.333333 2.777778,-3.333333 h 11.111111 c 1.538628,0 2.777778,1.486544 2.777778,3.333333 v -1.111111 c 0,-1.846789 -1.23915,-3.333333 -2.777778,-3.333333 z m 0,0"
     fill-opacity="0.078431"
     id="path41"
     style="stroke-width:0.555556" /></svg>
