<?xml version="1.0" encoding="UTF-8" standalone="no"?>
<svg
   height="128px"
   viewBox="0 0 128 128"
   width="128px"
   version="1.1"
   id="svg35"
   xml:space="preserve"
   xmlns:xlink="http://www.w3.org/1999/xlink"
   xmlns="http://www.w3.org/2000/svg"
   xmlns:svg="http://www.w3.org/2000/svg"><defs
     id="defs39"><mask
       id="holes"><rect
         x="-60"
         y="-60"
         width="120"
         height="120"
         fill="#ffffff"
         id="rect1240" /><circle
         id="hole"
         cy="-40"
         r="3"
         cx="0" /><use
         xlink:href="#hole"
         transform="rotate(72)"
         id="use1243" /><use
         xlink:href="#hole"
         transform="rotate(144)"
         id="use1245" /><use
         xlink:href="#hole"
         transform="rotate(-144)"
         id="use1247" /><use
         xlink:href="#hole"
         transform="rotate(-72)"
         id="use1249" /></mask></defs><linearGradient
     id="a"
     gradientUnits="userSpaceOnUse"
     x1="36"
     x2="60"
     y1="68"
     y2="68"><stop
       offset="0"
       stop-color="#ed336c"
       id="stop2" /><stop
       offset="1"
       stop-color="#ffa348"
       id="stop4" /></linearGradient><linearGradient
     id="b"
     gradientTransform="matrix(0 1 -1 0 144 -32)"
     gradientUnits="userSpaceOnUse"
     x1="72"
     x2="96"
     y1="68"
     y2="68"><stop
       offset="0"
       stop-color="#404ce6"
       id="stop7" /><stop
       offset="1"
       stop-color="#c061cb"
       id="stop9" /></linearGradient><linearGradient
     id="c"
     gradientUnits="userSpaceOnUse"
     x1="68.84919"
     x2="95.257637"
     y1="84"
     y2="84"><stop
       offset="0"
       stop-color="#33d1c6"
       id="stop12" /><stop
       offset="1"
       stop-color="#1c25d8"
       id="stop14" /></linearGradient><path
     style="display:inline;fill:#cc2131;fill-opacity:1;stroke:none;stroke-width:0.125;stroke-linejoin:round;stroke-miterlimit:4;stroke-dasharray:none;stroke-opacity:1;enable-background:new"
     clip-path="none"
     d="m 27.978072,8.0000006 h 50.000002 l 30.042896,29.9178934 10e-4,74.060006 c 8e-5,4.432 -3.6122,8.0221 -8.044196,8.0221 H 27.978011 c -4.431999,0 -7.999999,-3.568 -7.999999,-8.00001 V 16 c 0,-4.431999 3.568,-7.9999994 7.999999,-7.9999994 z"
     id="path4411" /><path
     style="display:inline;vector-effect:none;fill:#000000;fill-opacity:0.200017;stroke:none;stroke-width:0.125;stroke-linecap:butt;stroke-linejoin:round;stroke-miterlimit:4;stroke-dasharray:none;stroke-dashoffset:0;stroke-opacity:1;enable-background:new"
     d="M 77.978074,8.0000006 V 30.000002 c 0,4.432 3.610527,7.923448 8.042527,7.923448 l 22.000369,-0.0055 z"
     id="path4413" /><path
     id="path416"
     style="fill:#ffffff;stroke-width:0.779543"
     d="m 40.173988,102.87794 c -2.750234,-0.50436 -4.939199,-2.13206 -5.332089,-5.388209 -0.561272,-5.163706 -0.841908,-10.551919 -0.841908,-16.108515 0,-5.556595 0.280636,-10.944809 0.841908,-16.052385 0.39289,-2.918616 2.581855,-5.107578 5.332089,-5.388214 3.872777,-0.39289 7.85781,-0.673526 11.955098,-0.898035 l 7.296538,-8.362956 c -0.05613,0 1.683816,-0.336764 3.255379,0.05613 L 37.255372,81.100579 c 5.500468,-2.694107 21.60898,1.515435 21.60898,11.337699 0,10.495792 -11.057063,11.674462 -18.690364,10.439662 z m 12.572497,0.89804 c 3.704397,0.16838 7.408793,0.22451 11.225444,0.22451 8.362176,0 16.333021,-0.39289 23.797941,-1.12255 2.749454,-0.28064 4.995323,-2.52573 5.332086,-5.388209 0.618179,-5.163706 0.898035,-10.551919 0.898035,-16.108515 0,-5.556595 -0.279856,-10.944809 -0.898035,-16.052385 -0.336763,-2.918616 -2.581852,-5.107578 -5.332086,-5.388214 A 187.00342,187.00342 0 0 0 77.722318,59.154836 c 0,0 -14.311661,31.768009 -15.714841,35.023387 -2.132835,4.826938 -5.051451,8.362957 -9.260992,9.597757 z M 68.629709,48.659046 c 1.627689,0.449018 2.469597,0.841908 3.536794,1.627689 L 52.24134,74.084678 c 5.44434,3.648269 11.11319,12.684753 8.026192,20.093545 C 61.782967,84.188361 51.736194,76.666529 45.78671,75.712367 Z" /></svg>
