<?xml version="1.0" encoding="UTF-8" standalone="no"?>
<svg
   height="128"
   viewBox="0 0 128 128"
   width="128"
   version="1.1"
   id="svg35"
   xml:space="preserve"
   xmlns="http://www.w3.org/2000/svg"
   xmlns:svg="http://www.w3.org/2000/svg"><defs
     id="defs39" /><linearGradient
     id="a"
     gradientUnits="userSpaceOnUse"
     x1="36"
     x2="60"
     y1="68"
     y2="68"><stop
       offset="0"
       stop-color="#ed336c"
       id="stop2" /><stop
       offset="1"
       stop-color="#ffa348"
       id="stop4" /></linearGradient><linearGradient
     id="b"
     gradientTransform="rotate(90,88,56)"
     gradientUnits="userSpaceOnUse"
     x1="72"
     x2="96"
     y1="68"
     y2="68"><stop
       offset="0"
       stop-color="#404ce6"
       id="stop7" /><stop
       offset="1"
       stop-color="#c061cb"
       id="stop9" /></linearGradient><linearGradient
     id="c"
     gradientUnits="userSpaceOnUse"
     x1="68.84919"
     x2="95.257637"
     y1="84"
     y2="84"><stop
       offset="0"
       stop-color="#33d1c6"
       id="stop12" /><stop
       offset="1"
       stop-color="#1c25d8"
       id="stop14" /></linearGradient><g
     id="g1457"
     transform="matrix(0.25,0,0,0.25,-3.22915,-206.3321)"
     style="display:inline;enable-background:new"><path
       style="display:inline;fill:#f6f5f4;fill-opacity:1;stroke:none;stroke-width:0.5;stroke-linejoin:round;stroke-miterlimit:4;stroke-dasharray:none;stroke-opacity:1;enable-background:new"
       clip-path="none"
       d="m 124.82842,857.32842 h 200 L 445,977 l 0.005,296.24 c 3.1e-4,17.728 -14.44878,32.0884 -32.17678,32.0884 h -288 c -17.72799,0 -31.99999,-14.272 -31.99999,-32 V 889.32842 c 0,-17.728 14.272,-32 31.99999,-32 z"
       id="rect2069" /><path
       style="display:inline;vector-effect:none;fill:#deddda;fill-opacity:1;stroke:none;stroke-width:0.5;stroke-linecap:butt;stroke-linejoin:round;stroke-miterlimit:4;stroke-dasharray:none;stroke-dashoffset:0;stroke-opacity:1;enable-background:new"
       d="m 324.82842,857.32842 v 88.00001 c 0,17.728 14.44211,31.69379 32.17011,31.69379 L 445,977 Z"
       id="rect26812" /></g><path
     id="rect2801-6-3-0"
     style="display:inline;fill:#deddda;stroke-width:2;stroke-linecap:round;paint-order:markers stroke fill;enable-background:new;stop-color:#000000"
     d="m 33.977949,35.990705 35.990519,0.01859 c 1.108,5.72e-4 2,0.892 2,2 0,1.108 -0.892,2.000572 -2,2 l -35.990519,-0.01859 c -1.107999,-5.72e-4 -2,-0.892 -2,-2 0,-1.108 0.892,-2.000572 2,-2 z" /><path
     id="rect2801-6-3-0-6"
     style="display:inline;fill:#deddda;stroke-width:2;stroke-linecap:round;paint-order:markers stroke fill;enable-background:new;stop-color:#000000"
     d="m 33.977949,27.990705 35.990519,0.01859 c 1.108,5.72e-4 2,0.892 2,2 0,1.108 -0.892,2.000572 -2,2 l -35.990519,-0.01859 c -1.107999,-5.72e-4 -2,-0.892 -2,-2 0,-1.108 0.892,-2.000572 2,-2 z" /><rect
     style="display:inline;fill:#deddda;fill-opacity:1;stroke-width:2;stroke-linecap:round;paint-order:markers stroke fill;enable-background:new;stop-color:#000000"
     id="rect2801"
     width="64"
     height="4"
     x="31.977949"
     y="52"
     rx="2"
     ry="2" /><rect
     style="display:inline;fill:#deddda;fill-opacity:1;stroke-width:2;stroke-linecap:round;paint-order:markers stroke fill;enable-background:new;stop-color:#000000"
     id="rect2801-3"
     width="64"
     height="4"
     x="31.977951"
     y="44"
     rx="2"
     ry="2" /><path
     id="rect2801-6-3-6-2"
     style="display:inline;fill:#deddda;stroke-width:2;stroke-linecap:round;paint-order:markers stroke fill;enable-background:new;stop-color:#000000"
     d="m 64.553753,84.004 29.424196,-0.008 c 1.108,-3.01e-4 2,0.892 2,2 0,1.108 -0.892,1.999699 -2,2 l -29.424196,0.008 c -1.108,3.01e-4 -2,-0.892 -2,-2 0,-1.108 0.892,-1.999699 2,-2 z" /><path
     id="rect2801-6-3-6-2-6"
     style="display:inline;fill:#deddda;stroke-width:2;stroke-linecap:round;paint-order:markers stroke fill;enable-background:new;stop-color:#000000"
     d="m 64.553753,92.004 29.4242,-0.008 c 1.108,-3.01e-4 2,0.892 2,2 0,1.108 -0.892,1.999699 -2,2 l -29.4242,0.008 c -1.108,3.01e-4 -2,-0.892 -2,-2 0,-1.108 0.892,-1.999699 2,-2 z" /><path
     id="rect2801-6-3-6-2-1"
     style="display:inline;fill:#deddda;stroke-width:2;stroke-linecap:round;paint-order:markers stroke fill;enable-background:new;stop-color:#000000"
     d="m 64.553753,100.004 29.424191,-0.008 c 1.10801,-3.01e-4 2,0.892 2,2 0,1.108 -0.89199,1.99962 -2,2 l -29.424191,0.008 c -1.108,3.7e-4 -2,-0.892 -2,-2 0,-1.108 0.892,-1.99962 2,-2 z" /><path
     id="path1"
     style="fill:#6eb1f8;stroke-width:3.74354"
     d="m 43.324949,63.474999 v 3.242 h -11.347 v 3.242 h 25.936 v -3.242 h -11.347 v -3.242 z m 1.621,9.726 c -5.371507,0 -9.726,4.354493 -9.726,9.726 0,5.371508 4.354493,9.726 9.726,9.726 5.371509,0 9.726,-4.354492 9.726,-9.726 0,-5.371507 -4.354491,-9.726 -9.726,-9.726 z m 0,3.242 c 3.581016,0 6.484,2.902984 6.484,6.484 0,3.581016 -2.902984,6.484 -6.484,6.484 -3.581015,0 -6.483999,-2.902984 -6.483999,-6.484 0,-3.581016 2.902984,-6.484 6.483999,-6.484 z M 31.977949,95.895 V 104 h 25.936 v -3.242 h -22.694 v -4.863 z m 12.968,0 c -0.895245,0 -1.621,0.725754 -1.621,1.621 0,0.895245 0.725755,1.621 1.621,1.621 0.895246,0 1.621,-0.725755 1.621,-1.621 0,-0.895246 -0.725754,-1.621 -1.621,-1.621 z" /><path
     id="path2"
     style="display:inline;fill:#deddda;stroke-width:2;stroke-linecap:round;paint-order:markers stroke fill;enable-background:new;stop-color:#000000"
     d="m 64.553753,60.004 29.424196,-0.008 c 1.108,-3.01e-4 2,0.892 2,2 0,1.108 -0.892,1.999699 -2,2 l -29.424196,0.008 c -1.108,3.01e-4 -2,-0.892 -2,-2 0,-1.108 0.892,-1.999699 2,-2 z" /><path
     id="path3"
     style="display:inline;fill:#deddda;stroke-width:2;stroke-linecap:round;paint-order:markers stroke fill;enable-background:new;stop-color:#000000"
     d="m 64.553753,68.004 29.4242,-0.008 c 1.108,-3.01e-4 2,0.892 2,2 0,1.108 -0.892,1.999699 -2,2 l -29.4242,0.008 c -1.108,3.01e-4 -2,-0.892 -2,-2 0,-1.108 0.892,-1.999699 2,-2 z" /><path
     id="path4"
     style="display:inline;fill:#deddda;stroke-width:2;stroke-linecap:round;paint-order:markers stroke fill;enable-background:new;stop-color:#000000"
     d="m 64.553753,76.004 29.424191,-0.008 c 1.10801,-3.01e-4 2,0.892 2,2 0,1.108 -0.89199,1.99962 -2,2 l -29.424191,0.008 c -1.108,3.7e-4 -2,-0.892 -2,-2 0,-1.108 0.892,-1.99962 2,-2 z" /></svg>
