<?xml version="1.0" encoding="UTF-8" standalone="no"?>
<svg
   height="128px"
   viewBox="0 0 128 128"
   width="128px"
   version="1.1"
   id="svg35"
   xmlns="http://www.w3.org/2000/svg"
   xmlns:svg="http://www.w3.org/2000/svg">
  <defs
     id="defs39" />
  <linearGradient
     id="a"
     gradientUnits="userSpaceOnUse"
     x1="36"
     x2="60"
     y1="68"
     y2="68">
    <stop
       offset="0"
       stop-color="#ed336c"
       id="stop2" />
    <stop
       offset="1"
       stop-color="#ffa348"
       id="stop4" />
  </linearGradient>
  <linearGradient
     id="b"
     gradientTransform="matrix(0 1 -1 0 144 -32)"
     gradientUnits="userSpaceOnUse"
     x1="72"
     x2="96"
     y1="68"
     y2="68">
    <stop
       offset="0"
       stop-color="#404ce6"
       id="stop7" />
    <stop
       offset="1"
       stop-color="#c061cb"
       id="stop9" />
  </linearGradient>
  <linearGradient
     id="c"
     gradientUnits="userSpaceOnUse"
     x1="68.84919"
     x2="95.257637"
     y1="84"
     y2="84">
    <stop
       offset="0"
       stop-color="#33d1c6"
       id="stop12" />
    <stop
       offset="1"
       stop-color="#1c25d8"
       id="stop14" />
  </linearGradient>
  <path
     style="display:inline;fill:#9999ff;fill-opacity:1;stroke:none;stroke-width:0.125;stroke-linejoin:round;stroke-miterlimit:4;stroke-dasharray:none;stroke-opacity:1;enable-background:new"
     clip-path="none"
     d="m 27.978081,8.0000006 h 50.000002 l 30.042897,29.9178934 0.001,74.060006 c 8e-5,4.432 -3.6122,8.0221 -8.044197,8.0221 H 27.97802 c -4.431999,0 -7.999999,-3.568 -7.999999,-8.00001 V 16 c 0,-4.431999 3.568,-7.9999994 7.999999,-7.9999994 z"
     id="path4411" />
  <path
     style="display:inline;vector-effect:none;fill:#000000;fill-opacity:0.2;stroke:none;stroke-width:0.125;stroke-linecap:butt;stroke-linejoin:round;stroke-miterlimit:4;stroke-dasharray:none;stroke-dashoffset:0;stroke-opacity:1;enable-background:new"
     d="M 77.978074,8.0000006 V 30.000002 c 0,4.432 3.610527,7.923448 8.042527,7.923448 l 22.000369,-0.0055 z"
     id="path4413" />
  <g
     id="vlpf"
     style="fill:#ffffff;fill-opacity:1;stroke-width:2.92849"
     transform="matrix(0.34147261,0,0,0.34147261,23.861527,46.901738)">
			<path
   class="st1"
   d="M 96.4,140 H 59.2 l -7.6,23.6 c -0.2,0.9 -1,1.5 -1.9,1.4 H 30.9 c -1.1,0 -1.4,-0.6 -1.1,-1.8 L 62,70.9 c 0.3,-1 0.6,-1.9 1,-3.1 0.4,-2.1 0.6,-4.3 0.6,-6.5 -0.1,-0.5 0.3,-1 0.8,-1.1 h 0.3 25.6 c 0.7,0 1.2,0.3 1.3,0.8 l 36.5,102 c 0.3,1.1 0,1.6 -1,1.6 h -20.9 c -0.7,0.1 -1.4,-0.4 -1.6,-1.1 l -8.2,-24 z M 65,120.1 h 25.4 c -0.6,-2.1 -1.4,-4.6 -2.3,-7.2 -0.9,-2.7 -1.8,-5.6 -2.7,-8.6 -1,-3.1 -1.9,-6.1 -2.9,-9.2 -1,-3.1 -1.9,-6 -2.7,-8.9 -0.8,-2.8 -1.5,-5.4 -2.2,-7.8 h -0.2 c -0.9,4.3 -2,8.6 -3.4,12.9 -1.5,4.8 -3,9.8 -4.6,14.8 -1.3,5.1 -2.9,9.8 -4.4,14 z"
   id="path2-7"
   style="fill:#ffffff;fill-opacity:1;stroke-width:2.92849" />

			<path
   class="st1"
   d="m 187,131 h -31.7 c 0.4,3.1 1.4,6.2 3.1,8.9 1.8,2.7 4.3,4.8 7.3,6 4,1.7 8.4,2.6 12.8,2.5 3.5,-0.1 7,-0.4 10.4,-1.1 3.1,-0.4 6.1,-1.2 8.9,-2.3 0.5,-0.4 0.8,-0.2 0.8,0.8 v 15.3 c 0,0.4 -0.1,0.8 -0.2,1.2 -0.2,0.3 -0.4,0.5 -0.7,0.7 -3.2,1.4 -6.5,2.4 -10,3 -4.7,0.9 -9.4,1.3 -14.2,1.2 -7.6,0 -14,-1.2 -19.2,-3.5 -4.9,-2.1 -9.2,-5.4 -12.6,-9.5 -3.2,-3.9 -5.5,-8.3 -6.9,-13.1 -1.4,-4.7 -2.1,-9.6 -2.1,-14.6 0,-5.4 0.8,-10.7 2.5,-15.9 1.6,-5 4.1,-9.6 7.5,-13.7 3.3,-4 7.4,-7.2 12.1,-9.5 4.7,-2.3 10.3,-3.1 16.7,-3.1 5.3,-0.1 10.6,0.9 15.5,3.1 4.1,1.8 7.7,4.5 10.5,8 2.6,3.4 4.7,7.2 6,11.4 1.3,4 1.9,8.1 1.9,12.2 0,2.4 -0.1,4.5 -0.2,6.4 -0.2,1.9 -0.3,3.3 -0.4,4.2 -0.1,0.7 -0.7,1.3 -1.4,1.3 -0.6,0 -1.7,0.1 -3.3,0.2 -1.6,0.2 -3.5,0.3 -5.8,0.3 -2.3,0 -4.7,-0.4 -7.3,-0.4 z m -31.7,-14.6 h 21.1 c 2.6,0 4.5,0 5.7,-0.1 0.8,-0.1 1.6,-0.3 2.3,-0.8 v -1 c 0,-1.3 -0.2,-2.5 -0.6,-3.7 -1.8,-5.6 -7.1,-9.4 -13,-9.2 -5.5,-0.3 -10.7,2.6 -13.3,7.6 -1.2,2.3 -1.9,4.7 -2.2,7.2 z"
   id="path3"
   style="fill:#ffffff;fill-opacity:1;stroke-width:2.92849" />

		</g>
</svg>
