<?xml version="1.0" encoding="UTF-8" standalone="no"?>
<svg
   height="128px"
   viewBox="0 0 128 128"
   width="128px"
   version="1.1"
   id="svg35"
   xml:space="preserve"
   xmlns:xlink="http://www.w3.org/1999/xlink"
   xmlns="http://www.w3.org/2000/svg"
   xmlns:svg="http://www.w3.org/2000/svg"><defs
     id="defs39"><mask
       id="holes"><rect
         x="-60"
         y="-60"
         width="120"
         height="120"
         fill="#ffffff"
         id="rect1240" /><circle
         id="hole"
         cy="-40"
         r="3"
         cx="0" /><use
         xlink:href="#hole"
         transform="rotate(72)"
         id="use1243" /><use
         xlink:href="#hole"
         transform="rotate(144)"
         id="use1245" /><use
         xlink:href="#hole"
         transform="rotate(-144)"
         id="use1247" /><use
         xlink:href="#hole"
         transform="rotate(-72)"
         id="use1249" /></mask></defs><linearGradient
     id="a"
     gradientUnits="userSpaceOnUse"
     x1="36"
     x2="60"
     y1="68"
     y2="68"><stop
       offset="0"
       stop-color="#ed336c"
       id="stop2" /><stop
       offset="1"
       stop-color="#ffa348"
       id="stop4" /></linearGradient><linearGradient
     id="b"
     gradientTransform="matrix(0 1 -1 0 144 -32)"
     gradientUnits="userSpaceOnUse"
     x1="72"
     x2="96"
     y1="68"
     y2="68"><stop
       offset="0"
       stop-color="#404ce6"
       id="stop7" /><stop
       offset="1"
       stop-color="#c061cb"
       id="stop9" /></linearGradient><linearGradient
     id="c"
     gradientUnits="userSpaceOnUse"
     x1="68.84919"
     x2="95.257637"
     y1="84"
     y2="84"><stop
       offset="0"
       stop-color="#33d1c6"
       id="stop12" /><stop
       offset="1"
       stop-color="#1c25d8"
       id="stop14" /></linearGradient><path
     style="display:inline;fill:#dd1100;fill-opacity:1;stroke:none;stroke-width:0.125;stroke-linejoin:round;stroke-miterlimit:4;stroke-dasharray:none;stroke-opacity:1;enable-background:new"
     clip-path="none"
     d="m 27.978072,8.0000006 h 50.000002 l 30.042896,29.9178934 10e-4,74.060006 c 8e-5,4.432 -3.6122,8.0221 -8.044196,8.0221 H 27.978011 c -4.431999,0 -7.999999,-3.568 -7.999999,-8.00001 V 16 c 0,-4.431999 3.568,-7.9999994 7.999999,-7.9999994 z"
     id="path4411" /><path
     style="display:inline;vector-effect:none;fill:#000000;fill-opacity:0.200017;stroke:none;stroke-width:0.125;stroke-linecap:butt;stroke-linejoin:round;stroke-miterlimit:4;stroke-dasharray:none;stroke-dashoffset:0;stroke-opacity:1;enable-background:new"
     d="M 77.978074,8.0000006 V 30.000002 c 0,4.432 3.610527,7.923448 8.042527,7.923448 l 22.000369,-0.0055 z"
     id="path4413" /><path
     fill="#ffffff"
     d="m 73.999988,58.783101 c 0,0 -3.913044,2.608695 -9.999997,2.608695 -6.086958,0 -9.565213,-2.608695 -9.565213,-2.608695 0,0 0.869566,4.347825 -0.434787,10 -1.304345,3.47826 -3.043477,6.086955 -5.652175,8.260868 0,0 5.217396,0.869565 9.130438,3.478261 3.913039,3.043478 6.521737,8.26087 6.521737,8.26087 0,0 2.173911,-5.217392 6.086953,-7.826087 3.913044,-3.043479 9.565218,-3.478261 9.565218,-3.478261 0,0 -3.913043,-4.782608 -5.652174,-8.695651 -1.739131,-4.347827 0,-10 0,-10 z m -5.652174,19.130433 c -2.608691,1.73913 -4.347823,4.782609 -4.347823,4.782609 l -4.347829,-4.782609 -5.652171,-2.173913 c 0,0 2.173911,-3.043477 3.043477,-6.086955 0.869565,-1.739131 0.869565,-3.913043 0.869565,-6.086957 0,0 3.043473,1.304348 6.086958,1.304348 2.60869,0 6.086953,-1.304348 6.086953,-1.304348 0,0 -0.869565,3.478261 0.434783,6.521738 0.869565,2.608696 3.478261,5.652174 3.478261,5.652174 z M 80.521727,66.174405 c -0.869565,-3.043479 2.173913,-19.565217 2.173913,-19.565217 0,0 -11.304348,7.826087 -19.130436,7.826087 -7.826081,0 -18.260864,-7.826087 -18.260864,-7.826087 0,0 3.478263,11.73913 1.304345,19.565217 -1.739124,7.391304 -12.608694,16.086956 -12.608694,16.086956 0,0 13.913046,0.434782 19.130434,4.347825 5.652171,3.478261 10.869566,17.391304 10.869566,17.391304 0,0 6.956519,-15.21739 9.999997,-17.391304 3.043478,-2.173913 20.000003,-4.782608 20.000003,-4.782608 0,0 -12.173917,-12.173912 -13.478264,-15.652173 z m -8.26087,17.826086 c -5.652176,3.478261 -8.260866,12.173912 -8.260866,12.173912 0,0 -4.347829,-9.565217 -8.695647,-12.608695 -4.34783,-3.043478 -13.913043,-3.913043 -13.913043,-3.913043 0,0 7.391302,-6.086956 9.130434,-12.173912 1.739124,-5.652174 -0.434787,-14.347826 -0.434787,-14.347826 0,0 7.826085,4.782609 13.478256,4.782609 6.086958,0 14.347827,-4.782609 14.347827,-4.782609 0,0 -2.608695,9.130434 -0.434782,14.347826 1.73913,5.652173 9.130434,12.173912 9.130434,12.173912 0,0 -8.695652,0.434783 -14.347826,4.347826"
     id="path2"
     style="stroke-width:0.999996" /></svg>
