<?xml version="1.0" encoding="UTF-8" standalone="no"?>
<svg
   height="128px"
   viewBox="0 0 128 128"
   width="128px"
   version="1.1"
   id="svg35"
   xmlns:xlink="http://www.w3.org/1999/xlink"
   xmlns="http://www.w3.org/2000/svg"
   xmlns:svg="http://www.w3.org/2000/svg">
  <defs
     id="defs39" />
  <linearGradient
     id="a"
     gradientUnits="userSpaceOnUse"
     x1="36"
     x2="60"
     y1="68"
     y2="68">
    <stop
       offset="0"
       stop-color="#ed336c"
       id="stop2" />
    <stop
       offset="1"
       stop-color="#ffa348"
       id="stop4" />
  </linearGradient>
  <linearGradient
     id="b"
     gradientTransform="matrix(0 1 -1 0 144 -32)"
     gradientUnits="userSpaceOnUse"
     x1="72"
     x2="96"
     y1="68"
     y2="68">
    <stop
       offset="0"
       stop-color="#404ce6"
       id="stop7" />
    <stop
       offset="1"
       stop-color="#c061cb"
       id="stop9" />
  </linearGradient>
  <linearGradient
     id="c"
     gradientUnits="userSpaceOnUse"
     x1="68.84919"
     x2="95.257637"
     y1="84"
     y2="84">
    <stop
       offset="0"
       stop-color="#33d1c6"
       id="stop12" />
    <stop
       offset="1"
       stop-color="#1c25d8"
       id="stop14" />
  </linearGradient>
  <path
     style="display:inline;fill:#666666;fill-opacity:1;stroke:none;stroke-width:0.125;stroke-linejoin:round;stroke-miterlimit:4;stroke-dasharray:none;stroke-opacity:1;enable-background:new"
     clip-path="none"
     d="m 27.978072,8.0000006 h 50.000002 l 30.042896,29.9178934 10e-4,74.060006 c 8e-5,4.432 -3.6122,8.0221 -8.044196,8.0221 H 27.978011 c -4.431999,0 -7.999999,-3.568 -7.999999,-8.00001 V 16 c 0,-4.431999 3.568,-7.9999994 7.999999,-7.9999994 z"
     id="path4411" />
  <path
     style="display:inline;vector-effect:none;fill:#000000;fill-opacity:0.2;stroke:none;stroke-width:0.125;stroke-linecap:butt;stroke-linejoin:round;stroke-miterlimit:4;stroke-dasharray:none;stroke-dashoffset:0;stroke-opacity:1;enable-background:new"
     d="M 77.978074,8.0000006 V 30.000002 c 0,4.432 3.610527,7.923448 8.042527,7.923448 l 22.000369,-0.0055 z"
     id="path4413" />
  <use
     x="101.13281"
     y="687.27344"
     xlink:href="#c"
     id="use3173"
     transform="matrix(1.3333333,0,0,1.3333333,408.14387,-279.67073)" />
  <use
     x="122.05859"
     y="687.27344"
     xlink:href="#a"
     id="use3175"
     transform="matrix(1.3333333,0,0,1.3333333,408.14387,-279.67073)" />
  <use
     x="179.45703"
     y="687.27344"
     xlink:href="#b"
     id="use3179"
     transform="matrix(1.3333333,0,0,1.3333333,408.14387,-279.67073)" />
  <use
     x="199.73828"
     y="687.27344"
     xlink:href="#a"
     id="use3181"
     transform="matrix(1.3333333,0,0,1.3333333,408.14387,-279.67073)" />
  <use
     x="381.65625"
     y="687.27344"
     xlink:href="#a"
     id="use3191"
     transform="matrix(1.3333333,0,0,1.3333333,408.14387,-279.67073)" />
  <use
     x="571.23828"
     y="687.27344"
     xlink:href="#c"
     id="use3205"
     transform="matrix(1.3333333,0,0,1.3333333,408.14387,-279.67073)" />
  <use
     x="631.85156"
     y="687.27344"
     xlink:href="#a"
     id="use3211"
     transform="matrix(1.3333333,0,0,1.3333333,408.14387,-279.67073)" />
  <use
     x="197.5"
     y="729.69531"
     xlink:href="#b"
     id="use3215"
     transform="matrix(1.3333333,0,0,1.3333333,408.14387,-279.67073)" />
  <use
     x="580.97656"
     y="729.69531"
     xlink:href="#b"
     id="use3225"
     transform="matrix(1.3333333,0,0,1.3333333,408.14387,-279.67073)" />
  <path
     id="rect4316-3-2"
     style="fill:#a88000;fill-opacity:1;stroke-width:0.978466;stroke-linecap:round;stroke-linejoin:round;stroke-miterlimit:1.5;paint-order:stroke fill markers"
     d="M 36.937962,87.942288 76.919904,49.250172 c 3.91737,-3.790997 10.22476,-3.790997 14.14213,0 3.91737,3.790996 3.91737,9.894911 0,13.685909 L 51.080097,101.6282 c -3.917371,3.79099 -10.224764,3.79099 -14.142135,0 -3.917372,-3.791 -3.917372,-9.894915 0,-13.685912 z" />
  <path
     id="rect4316-3"
     style="fill:#dba600;stroke-width:0.978466;stroke-linecap:round;stroke-linejoin:round;stroke-miterlimit:1.5;paint-order:stroke fill markers"
     d="M 36.93796,86.006809 76.919899,47.314693 c 3.917372,-3.790997 10.224764,-3.790997 14.142136,0 3.917371,3.790996 3.917371,9.894912 0,13.685909 l -39.98194,38.692117 c -3.917371,3.790991 -10.224764,3.790991 -14.142135,0 -3.917372,-3.790998 -3.917372,-9.894913 0,-13.68591 z" />
  <path
     id="rect4316-7"
     style="fill:#a87f00;fill-opacity:1;stroke-width:0.978466;stroke-linecap:round;stroke-linejoin:round;stroke-miterlimit:1.5;paint-order:stroke fill markers"
     d="m 51.080094,49.250175 39.981942,38.692116 c 3.91737,3.790996 3.91737,9.894913 0,13.685909 -3.91737,3.79099 -10.224768,3.79099 -14.142139,0 L 36.937958,62.936083 c -3.917372,-3.790997 -3.917372,-9.894911 0,-13.685908 3.917371,-3.790997 10.224764,-3.790997 14.142136,0 z" />
  <path
     id="rect4316"
     style="fill:#ffc510;stroke-width:0.978466;stroke-linecap:round;stroke-linejoin:round;stroke-miterlimit:1.5;paint-order:stroke fill markers"
     d="m 51.080095,47.314695 39.981938,38.692116 c 3.917372,3.790996 3.917372,9.894912 0,13.685908 -3.917371,3.790991 -10.224764,3.790991 -14.142135,0 L 36.937959,61.000604 c -3.917372,-3.790997 -3.917372,-9.894912 0,-13.685909 3.917371,-3.790997 10.224764,-3.790997 14.142136,0 z" />
  <path
     id="rect5291"
     style="fill:#dba600;stroke-width:0.983738;stroke-linecap:round;stroke-linejoin:round;stroke-miterlimit:1.5;paint-order:stroke fill markers"
     d="m 62.232229,62.212832 13.435029,13.001614 c 1.175211,1.137299 1.175211,2.968473 0,4.105772 l -5.656854,5.474364 c -1.175212,1.137299 -3.06743,1.137299 -4.242641,0 L 52.332734,71.792968 c -1.175211,-1.137298 -1.175211,-2.968473 0,-4.105771 l 5.656854,-5.474365 c 1.175212,-1.137298 3.06743,-1.137298 4.242641,0 z" />
  <path
     d="m 40.736428,60.313532 c -0.488733,0.473961 -0.488734,1.236251 4e-6,1.710263 0.488737,0.47401 1.281951,0.480603 1.770406,0.007 0.488723,-0.473971 0.481557,-1.243226 -0.007,-1.716907 -0.488484,-0.467251 -1.28162,-0.467323 -1.763232,-3.2e-4 z"
     id="path3135-5"
     style="fill:#a88000;fill-opacity:1;stroke-width:0.0821956" />
  <path
     d="m 45.685725,57.234287 c -0.489739,-0.472942 -1.2774,-0.472942 -1.767184,3e-6 -0.489787,0.472941 -0.489738,1.233583 2e-6,1.706566 0.489741,0.472942 1.284587,0.479568 1.774031,0.007 0.482883,-0.480197 0.475691,-1.247477 -0.007,-1.713514 z"
     id="path3137-9"
     style="fill:#a88000;fill-opacity:1;stroke-width:0.0821908" />
  <path
     d="m 47.104281,55.861152 c 0.488828,0.473058 1.282188,0.479683 1.770733,0.0069 0.488825,-0.473052 0.481646,-1.240826 -0.007,-1.713601 -0.488828,-0.473058 -1.275006,-0.473061 -1.763891,0 -0.488485,0.472738 -0.488491,1.233641 3.32e-4,1.706654 z"
     id="path3139-2"
     style="fill:#a88000;fill-opacity:1;stroke-width:0.0821241" />
  <path
     d="m 52.057737,52.787971 c 0.488611,-0.472971 0.481432,-1.240608 -0.008,-1.713294 -0.488599,-0.472974 -1.274437,-0.472975 -1.7631,-1e-6 -0.488587,0.472968 -0.488587,1.233657 -10e-7,1.706674 0.488946,0.472652 1.281971,0.479595 1.770282,0.0067 z"
     id="path3141-2"
     style="fill:#a88000;fill-opacity:1;stroke-width:0.0820983" />
  <path
     d="m 40.734333,55.525774 c -0.488683,-0.472918 -1.274645,-0.472916 -1.76337,0 -0.48872,0.47292 -0.48868,1.233526 -5e-6,1.70649 0.488682,0.472958 1.281818,0.479544 1.770224,0.0069 0.489007,-0.472917 0.481841,-1.240473 -0.007,-1.713433 z"
     id="path3143-8"
     style="fill:#a88000;fill-opacity:1;stroke-width:0.0821003" />
  <path
     d="m 43.917953,52.444871 c -0.48869,-0.472925 -1.274657,-0.472929 -1.763398,-2e-6 -0.488678,0.472921 -0.488676,1.23353 10e-7,1.706498 0.488689,0.472924 1.281844,0.479541 1.770241,0.0069 0.489013,-0.47324 0.481832,-1.240482 -0.007,-1.713446 z"
     id="path3145-9"
     style="fill:#a88000;fill-opacity:1;stroke-width:0.0821009" />
  <path
     d="m 47.108308,51.077801 c 0.488597,-0.472971 0.481424,-1.240602 -0.008,-1.713296 -0.48861,-0.472971 -1.274444,-0.472968 -1.763094,6e-6 -0.488628,0.472968 -0.488588,1.233657 6e-6,1.706666 0.488938,0.472658 1.281957,0.479597 1.770269,0.0067 z"
     id="path3147-7"
     style="fill:#a88000;fill-opacity:1;stroke-width:0.082098" />
  <path
     d="m 38.969725,50.737176 c -0.488696,-0.472916 -1.274663,-0.47292 -1.763394,3e-6 -0.488677,0.472921 -0.488682,1.233538 1e-6,1.706497 0.48869,0.472924 1.281838,0.479549 1.770242,0.0069 0.489004,-0.473233 0.481824,-1.240475 -0.007,-1.713439 z"
     id="path3149-3"
     style="fill:#a88000;fill-opacity:1;stroke-width:0.0821009" />
  <path
     d="m 42.161199,49.371272 c 0.488606,-0.473482 0.48143,-1.241952 -0.008,-1.715154 -0.488603,-0.473483 -1.274453,-0.473483 -1.7631,0 -0.488591,0.473484 -0.488591,1.234995 -10e-7,1.708521 0.48894,0.473168 1.281626,0.473172 1.770269,0.0067 z"
     id="path3151-61"
     style="fill:#a88000;fill-opacity:1;stroke-width:0.0821427" />
  <path
     d="m 87.263553,60.232257 c 0.488733,0.473961 0.488734,1.236252 -4e-6,1.710263 -0.488737,0.47401 -1.281951,0.480603 -1.770406,0.007 -0.488723,-0.473971 -0.481557,-1.243225 0.007,-1.716907 0.488484,-0.467251 1.28162,-0.467322 1.763232,-3.19e-4 z"
     id="path3135-5-2"
     style="fill:#a88000;fill-opacity:1;stroke-width:0.0821956" />
  <path
     d="m 82.314256,57.153012 c 0.489739,-0.472942 1.2774,-0.472942 1.767184,3e-6 0.489787,0.472941 0.489738,1.233583 -2e-6,1.706566 -0.489741,0.472942 -1.284587,0.479568 -1.774031,0.007 -0.482883,-0.480198 -0.475691,-1.247478 0.007,-1.713515 z"
     id="path3137-9-5"
     style="fill:#a88000;fill-opacity:1;stroke-width:0.0821908" />
  <path
     d="m 80.8957,55.779877 c -0.488828,0.473059 -1.282187,0.479683 -1.770733,0.0069 -0.488825,-0.473051 -0.481645,-1.240826 0.007,-1.713601 0.488828,-0.473058 1.275006,-0.473061 1.763891,0 0.488485,0.472738 0.488491,1.233641 -3.32e-4,1.706654 z"
     id="path3139-2-4"
     style="fill:#a88000;fill-opacity:1;stroke-width:0.0821241" />
  <path
     d="m 75.942244,52.706697 c -0.488611,-0.472972 -0.481432,-1.240609 0.008,-1.713295 0.488599,-0.472974 1.274437,-0.472975 1.763101,-1e-6 0.488586,0.472969 0.488586,1.233658 0,1.706674 -0.488946,0.472652 -1.281971,0.479596 -1.770282,0.0067 z"
     id="path3141-2-7"
     style="fill:#a88000;fill-opacity:1;stroke-width:0.0820983" />
  <path
     d="m 87.265648,55.444499 c 0.488683,-0.472918 1.274645,-0.472916 1.76337,0 0.48872,0.47292 0.48868,1.233526 5e-6,1.706491 -0.488682,0.472958 -1.281818,0.479544 -1.770224,0.0069 -0.489007,-0.472917 -0.481841,-1.240474 0.007,-1.713434 z"
     id="path3143-8-4"
     style="fill:#a88000;fill-opacity:1;stroke-width:0.0821003" />
  <path
     d="m 84.082028,52.363596 c 0.48869,-0.472925 1.274657,-0.472929 1.763398,-2e-6 0.488678,0.472921 0.488676,1.233531 -10e-7,1.706498 -0.488689,0.472924 -1.281844,0.479541 -1.770241,0.0069 -0.489013,-0.473239 -0.481832,-1.240482 0.007,-1.713445 z"
     id="path3145-9-4"
     style="fill:#a88000;fill-opacity:1;stroke-width:0.0821009" />
  <path
     d="m 80.891673,50.996526 c -0.488597,-0.47297 -0.481424,-1.240602 0.008,-1.713295 0.488611,-0.472972 1.274444,-0.472969 1.763094,5e-6 0.488628,0.472969 0.488588,1.233657 -6e-6,1.706666 -0.488938,0.472659 -1.281957,0.479597 -1.770269,0.0067 z"
     id="path3147-7-3"
     style="fill:#a88000;fill-opacity:1;stroke-width:0.082098" />
  <path
     d="m 89.030257,50.655901 c 0.488695,-0.472916 1.274662,-0.47292 1.763393,4e-6 0.488677,0.472921 0.488682,1.233537 -10e-7,1.706497 -0.48869,0.472924 -1.281838,0.479549 -1.770242,0.0069 -0.489004,-0.473234 -0.481824,-1.240475 0.007,-1.71344 z"
     id="path3149-3-0"
     style="fill:#a88000;fill-opacity:1;stroke-width:0.0821009" />
  <path
     d="m 85.838782,49.289997 c -0.488606,-0.473482 -0.48143,-1.241952 0.008,-1.715153 0.488603,-0.473484 1.274453,-0.473484 1.763101,0 0.48859,0.473484 0.48859,1.234994 0,1.70852 -0.48894,0.473168 -1.281626,0.473173 -1.770269,0.0067 z"
     id="path3151-61-7"
     style="fill:#a88000;fill-opacity:1;stroke-width:0.0821427" />
  <path
     d="m 87.26354,86.775158 c 0.488733,-0.473961 0.488734,-1.236252 -4e-6,-1.710262 -0.488737,-0.474011 -1.281951,-0.480604 -1.770407,-0.007 -0.488723,0.473971 -0.481556,1.243225 0.007,1.716907 0.488484,0.467252 1.28162,0.467322 1.763232,3.19e-4 z"
     id="path3135-5-6"
     style="fill:#a88000;fill-opacity:1;stroke-width:0.0821956" />
  <path
     d="m 82.314242,89.854404 c 0.48974,0.472941 1.277401,0.472941 1.767184,-4e-6 0.489788,-0.472941 0.489739,-1.233583 -10e-7,-1.706566 -0.489741,-0.472942 -1.284587,-0.479568 -1.774031,-0.007 -0.482883,0.480198 -0.475691,1.247478 0.007,1.713514 z"
     id="path3137-9-8"
     style="fill:#a88000;fill-opacity:1;stroke-width:0.0821908" />
  <path
     d="m 80.895687,91.227538 c -0.488828,-0.473059 -1.282188,-0.479683 -1.770733,-0.0069 -0.488825,0.473051 -0.481646,1.240826 0.007,1.713602 0.488828,0.473057 1.275006,0.47306 1.763891,-10e-7 0.488485,-0.472737 0.488491,-1.233641 -3.32e-4,-1.706654 z"
     id="path3139-2-8"
     style="fill:#a88000;fill-opacity:1;stroke-width:0.0821241" />
  <path
     d="m 75.942231,94.300718 c -0.488611,0.472972 -0.481432,1.240612 0.008,1.713295 0.488599,0.472973 1.274437,0.472973 1.7631,0 0.488586,-0.472964 0.488587,-1.233657 10e-7,-1.706673 -0.488946,-0.472652 -1.281971,-0.479596 -1.770282,-0.0067 z"
     id="path3141-2-4"
     style="fill:#a88000;fill-opacity:1;stroke-width:0.0820983" />
  <path
     d="m 87.265635,91.562916 c 0.488683,0.472918 1.274645,0.472916 1.76337,10e-7 0.48872,-0.47292 0.48868,-1.233527 5e-6,-1.706492 -0.488682,-0.472957 -1.281818,-0.479543 -1.770224,-0.0069 -0.489007,0.472916 -0.481841,1.240473 0.007,1.713433 z"
     id="path3143-8-3"
     style="fill:#a88000;fill-opacity:1;stroke-width:0.0821003" />
  <path
     d="m 84.082015,94.643819 c 0.48869,0.472925 1.274657,0.472929 1.763398,2e-6 0.488677,-0.472921 0.488676,-1.233531 -10e-7,-1.706497 -0.488689,-0.472925 -1.281844,-0.479541 -1.770241,-0.0069 -0.489013,0.473239 -0.481832,1.240482 0.007,1.713445 z"
     id="path3145-9-1"
     style="fill:#a88000;fill-opacity:1;stroke-width:0.0821009" />
  <path
     d="m 80.89166,96.010887 c -0.488597,0.472973 -0.481424,1.240604 0.008,1.713296 0.48861,0.472974 1.274444,0.472974 1.763094,0 0.488628,-0.472973 0.488587,-1.233665 -6e-6,-1.706667 -0.488938,-0.472663 -1.281957,-0.479602 -1.770269,-0.0068 z"
     id="path3147-7-4"
     style="fill:#a88000;fill-opacity:1;stroke-width:0.082098" />
  <path
     d="m 89.030243,96.351512 c 0.488696,0.472915 1.274663,0.472925 1.763394,0 0.488676,-0.472925 0.488682,-1.233539 -2e-6,-1.706499 -0.488689,-0.472924 -1.281837,-0.479548 -1.770241,-0.0069 -0.489004,0.473234 -0.481824,1.240474 0.007,1.713438 z"
     id="path3149-3-9"
     style="fill:#a88000;fill-opacity:1;stroke-width:0.0821009" />
  <path
     d="m 85.838769,97.717419 c -0.488606,0.473486 -0.481431,1.241947 0.008,1.715152 0.488603,0.473486 1.274453,0.473486 1.7631,0 0.488591,-0.473486 0.488591,-1.234998 10e-7,-1.708523 -0.48894,-0.473167 -1.281626,-0.473167 -1.770269,-0.0068 z"
     id="path3151-61-2"
     style="fill:#a88000;fill-opacity:1;stroke-width:0.0821427" />
  <path
     d="m 40.736427,86.775155 c -0.488733,-0.473961 -0.488734,-1.236252 4e-6,-1.710263 0.488737,-0.47401 1.281951,-0.480603 1.770406,-0.007 0.488723,0.473971 0.481557,1.243225 -0.007,1.716907 -0.488484,0.467251 -1.28162,0.467322 -1.763232,3.19e-4 z"
     id="path3135-5-68"
     style="fill:#a88000;fill-opacity:1;stroke-width:0.0821956" />
  <path
     d="m 45.685724,89.8544 c -0.489739,0.472942 -1.2774,0.472942 -1.767184,-3e-6 -0.489787,-0.472941 -0.489738,-1.233583 2e-6,-1.706566 0.489741,-0.472942 1.284587,-0.479568 1.774031,-0.007 0.482883,0.480197 0.475691,1.247477 -0.007,1.713514 z"
     id="path3137-9-9"
     style="fill:#a88000;fill-opacity:1;stroke-width:0.0821908" />
  <path
     d="m 47.10428,91.227535 c 0.488828,-0.473059 1.282187,-0.479683 1.770733,-0.0069 0.488825,0.473051 0.481645,1.240826 -0.007,1.713601 -0.488828,0.473058 -1.275006,0.473061 -1.763891,0 -0.488485,-0.472738 -0.488491,-1.233641 3.32e-4,-1.706654 z"
     id="path3139-2-2"
     style="fill:#a88000;fill-opacity:1;stroke-width:0.0821241" />
  <path
     d="m 52.057736,94.300716 c 0.488611,0.472971 0.481432,1.240604 -0.008,1.713297 -0.488599,0.472973 -1.274437,0.472973 -1.763101,0 -0.488586,-0.472973 -0.488586,-1.233659 0,-1.706676 0.488946,-0.472652 1.281971,-0.479596 1.770282,-0.0067 z"
     id="path3141-2-6"
     style="fill:#a88000;fill-opacity:1;stroke-width:0.0820983" />
  <path
     d="m 40.734332,91.562913 c -0.488683,0.472918 -1.274645,0.472916 -1.76337,0 -0.48872,-0.47292 -0.48868,-1.233526 -5e-6,-1.706491 0.488682,-0.472958 1.281818,-0.479544 1.770224,-0.0069 0.489007,0.472918 0.481841,1.240474 -0.007,1.713434 z"
     id="path3143-8-6"
     style="fill:#a88000;fill-opacity:1;stroke-width:0.0821003" />
  <path
     d="m 43.917952,94.643816 c -0.48869,0.472925 -1.274657,0.472929 -1.763398,2e-6 -0.488678,-0.472921 -0.488676,-1.233531 1e-6,-1.706498 0.488689,-0.472924 1.281844,-0.479541 1.770241,-0.0069 0.489013,0.473239 0.481832,1.240482 -0.007,1.713445 z"
     id="path3145-9-49"
     style="fill:#a88000;fill-opacity:1;stroke-width:0.0821009" />
  <path
     d="m 47.108307,96.010887 c 0.488597,0.472973 0.481424,1.240604 -0.008,1.713296 -0.488611,0.472974 -1.274444,0.472964 -1.763094,-9e-6 -0.488628,-0.472964 -0.488588,-1.233656 6e-6,-1.706668 0.488938,-0.472653 1.281957,-0.479592 1.770269,-0.0068 z"
     id="path3147-7-5"
     style="fill:#a88000;fill-opacity:1;stroke-width:0.082098" />
  <path
     d="m 38.969723,96.351512 c -0.488695,0.472915 -1.274662,0.472915 -1.763393,0 -0.488677,-0.472925 -0.488682,-1.233542 10e-7,-1.706502 0.48869,-0.472924 1.281838,-0.479549 1.770242,-0.0069 0.489004,0.473234 0.481824,1.240477 -0.007,1.713441 z"
     id="path3149-3-04"
     style="fill:#a88000;fill-opacity:1;stroke-width:0.0821009" />
  <path
     d="m 42.161198,97.717419 c 0.488606,0.473476 0.48143,1.241947 -0.008,1.715143 -0.488603,0.473486 -1.274453,0.473486 -1.763101,0 -0.48859,-0.473477 -0.48859,-1.234989 0,-1.708514 0.48894,-0.473167 1.281626,-0.473177 1.770269,-0.0068 z"
     id="path3151-61-8"
     style="fill:#a88000;fill-opacity:1;stroke-width:0.0821427" />
</svg>
