<?xml version="1.0" encoding="UTF-8" standalone="no"?>
<svg
   height="128px"
   viewBox="0 0 128 128"
   width="128px"
   version="1.1"
   id="svg35"
   xml:space="preserve"
   xmlns="http://www.w3.org/2000/svg"
   xmlns:svg="http://www.w3.org/2000/svg"><defs
     id="defs39" /><linearGradient
     id="a"
     gradientUnits="userSpaceOnUse"
     x1="36"
     x2="60"
     y1="68"
     y2="68"><stop
       offset="0"
       stop-color="#ed336c"
       id="stop2" /><stop
       offset="1"
       stop-color="#ffa348"
       id="stop4" /></linearGradient><linearGradient
     id="b"
     gradientTransform="matrix(0 1 -1 0 144 -32)"
     gradientUnits="userSpaceOnUse"
     x1="72"
     x2="96"
     y1="68"
     y2="68"><stop
       offset="0"
       stop-color="#404ce6"
       id="stop7" /><stop
       offset="1"
       stop-color="#c061cb"
       id="stop9" /></linearGradient><linearGradient
     id="c"
     gradientUnits="userSpaceOnUse"
     x1="68.84919"
     x2="95.257637"
     y1="84"
     y2="84"><stop
       offset="0"
       stop-color="#33d1c6"
       id="stop12" /><stop
       offset="1"
       stop-color="#1c25d8"
       id="stop14" /></linearGradient><path
     style="display:inline;fill:#4dc9c0;fill-opacity:0.898039;stroke:none;stroke-width:0.124938;stroke-linejoin:round;stroke-miterlimit:4;stroke-dasharray:none;stroke-opacity:1;enable-background:new"
     clip-path="none"
     d="M 27.996066,8.0000006 H 77.971104 L 107.999,37.902957 108,111.92599 c 8e-5,4.42978 -3.61039,8.01809 -8.04018,8.01809 H 27.996005 C 23.566219,119.94408 20,116.37786 20,111.94807 V 15.996006 c 0,-4.429786 3.566219,-7.9960054 7.996005,-7.9960054 z"
     id="path15" /><path
     style="display:inline;opacity:1;vector-effect:none;fill:#000000;fill-opacity:0.2;stroke:none;stroke-width:0.125;stroke-linecap:butt;stroke-linejoin:round;stroke-miterlimit:4;stroke-dasharray:none;stroke-dashoffset:0;stroke-opacity:1;enable-background:new"
     d="M 77.957104,8.0000006 V 30.000002 c 0,4.432 3.610527,7.923448 8.042527,7.923448 L 108,37.91795 Z"
     id="path4413" /><path
     id="path25"
     d="m 84.174612,59.952729 a 9.5131057,9.5131057 0 0 0 -6.655341,2.55766 0.92844586,0.92844586 0 0 0 -0.290951,0.65092 0.94923196,0.94923196 0 0 0 0.269299,0.65904 l 1.185457,1.22605 a 0.90765976,0.90765976 0 0 0 1.184104,0.0825 5.390529,5.390529 0 0 1 3.264068,-1.08667 5.4459586,5.4459586 0 0 1 3.866269,9.30503 c -7.552284,7.55228 -17.63403,-13.60795 -40.512599,-2.72276 a 3.1109865,3.1109865 0 0 0 -1.38574,4.3575 l 3.921752,6.7839 a 3.1109865,3.1109865 0 0 0 4.205938,1.15704 l 0.09743,-0.0555 -0.07714,0.0555 1.738941,-0.97705 a 39.860814,39.860814 0 0 0 5.473945,-4.08821 0.96308936,0.96308936 0 0 1 1.254473,0 0.88687366,0.88687366 0 0 1 0.339669,0.69287 0.91458846,0.91458846 0 0 1 -0.297717,0.69287 41.045622,41.045622 0 0 1 -5.771663,4.28173 h -0.05548 l -1.738941,0.97028 a 4.8500903,4.8500903 0 0 1 -2.411513,0.63062 5.0025217,5.0025217 0 0 1 -4.316905,-2.47376 l -3.706584,-6.40905 c -7.122704,5.03024 -11.446159,14.72349 -9.125045,27.021931 A 0.91458846,0.91458846 0 0 0 35.516725,104 h 4.226236 a 0.90073106,0.90073106 0 0 0 0.894507,-0.79031 6.1873295,6.1873295 0 0 1 12.276791,0 A 0.90765976,0.90765976 0 0 0 53.815531,104 H 57.9308 a 0.90073106,0.90073106 0 0 0 0.894506,-0.79031 6.1942582,6.1942582 0 0 1 12.284911,0 A 0.90073106,0.90073106 0 0 0 72.00337,104 h 4.067905 a 0.90073106,0.90073106 0 0 0 0.899919,-0.88774 c 0.097,-5.730041 1.642427,-12.311821 6.04908,-15.609881 15.263928,-11.4185 11.252642,-21.20891 7.719006,-24.76333 a 9.5131057,9.5131057 0 0 0 -6.564674,-2.78637 z m -9.977599,16.7642 a 1.8291769,1.8291769 0 0 1 0.715876,0.19352 1.8291769,1.8291769 0 0 1 0.25712,3.10844 v -0.007 l -2.909513,-1.46152 a 1.8291769,1.8291769 0 0 1 1.936517,-1.83367 z"
     style="fill:#02303a;fill-opacity:1;stroke-width:0.69287" /></svg>
