<?xml version="1.0" encoding="UTF-8" standalone="no"?>
<svg
   height="128px"
   viewBox="0 0 128 128"
   width="128px"
   version="1.1"
   id="svg35"
   xml:space="preserve"
   xmlns:xlink="http://www.w3.org/1999/xlink"
   xmlns="http://www.w3.org/2000/svg"
   xmlns:svg="http://www.w3.org/2000/svg"><defs
     id="defs39"><linearGradient
       id="linearGradient4284"><stop
         offset="0"
         style="stop-color:#8381c5;stop-opacity:1"
         id="stop4286" /><stop
         id="stop4290"
         style="stop-color:#7e55b3;stop-opacity:0.99607843"
         offset="0.56639391" /><stop
         offset="1"
         style="stop-color:#a52ecb;stop-opacity:0.99215686"
         id="stop4288" /></linearGradient><linearGradient
       xlink:href="#linearGradient4284"
       id="linearGradient3"
       x1="22.862047"
       y1="25.018553"
       x2="118.46137"
       y2="135.57623"
       gradientUnits="userSpaceOnUse" /></defs><linearGradient
     id="a"
     gradientUnits="userSpaceOnUse"
     x1="36"
     x2="60"
     y1="68"
     y2="68"><stop
       offset="0"
       stop-color="#ed336c"
       id="stop2" /><stop
       offset="1"
       stop-color="#ffa348"
       id="stop4" /></linearGradient><linearGradient
     id="b"
     gradientTransform="matrix(0 1 -1 0 144 -32)"
     gradientUnits="userSpaceOnUse"
     x1="72"
     x2="96"
     y1="68"
     y2="68"><stop
       offset="0"
       stop-color="#404ce6"
       id="stop7" /><stop
       offset="1"
       stop-color="#c061cb"
       id="stop9" /></linearGradient><linearGradient
     id="c"
     gradientUnits="userSpaceOnUse"
     x1="68.84919"
     x2="95.257637"
     y1="84"
     y2="84"><stop
       offset="0"
       stop-color="#33d1c6"
       id="stop12" /><stop
       offset="1"
       stop-color="#1c25d8"
       id="stop14" /></linearGradient><path
     id="path1873"
     d="m 27.978076,7.9999979 h 50.000001 l 30.042893,29.9178951 10e-4,74.060007 c 9e-5,4.432 -3.61218,8.0221 -8.044178,8.0221 H 27.978026 c -4.431998,0 -7.999997,-3.568 -7.999997,-8 V 15.999997 c 0,-4.432 3.567999,-7.9999991 7.999997,-7.9999991 z"
     clip-path="none"
     style="font-variation-settings:normal;display:inline;vector-effect:none;fill:url(#linearGradient3);fill-opacity:1;stroke:none;stroke-width:6.51672;stroke-linecap:butt;stroke-linejoin:miter;stroke-miterlimit:4;stroke-dasharray:none;stroke-dashoffset:0;stroke-opacity:1;marker:none;marker-start:none;marker-mid:none;marker-end:none;paint-order:normal;enable-background:new;stop-color:#000000" /><path
     id="path1875"
     d="M 77.977964,7.9999979 V 30.000001 c 0,4.432 3.610528,7.923448 8.042527,7.923448 l 22.000369,-0.0055 z"
     style="font-variation-settings:normal;display:inline;vector-effect:none;fill:#ffffff;fill-opacity:0.30000001;stroke:none;stroke-width:6.51672;stroke-linecap:butt;stroke-linejoin:miter;stroke-miterlimit:4;stroke-dasharray:none;stroke-dashoffset:0;stroke-opacity:1;marker:none;marker-start:none;marker-mid:none;marker-end:none;paint-order:normal;enable-background:new;stop-color:#000000" /><path
     d="m 51.60876,103.91985 c 0,0 3.486528,0.24664 7.971792,-0.14865 1.816419,-0.16009 8.712871,-0.83748 13.868912,-1.96824 0,0 6.286458,-1.34538 9.649643,-2.584779 3.519031,-1.296833 5.43396,-2.397488 6.29589,-3.957079 -0.03758,-0.319543 0.265379,-1.452721 -1.357448,-2.133383 -4.14895,-1.740215 -8.960744,-1.425451 -18.482096,-1.62732 C 58.996647,91.137601 55.484151,89.370217 53.613064,87.946765 51.818813,86.502732 52.721052,82.507693 60.408993,78.988671 64.281631,77.114744 79.462807,73.656564 79.462807,73.656564 74.350061,71.129389 64.816397,66.686696 62.856656,65.727333 61.137846,64.88593 58.387235,63.619014 57.791,62.086215 c -0.676004,-1.471536 1.596489,-2.73914 2.865884,-3.102145 4.088205,-1.179226 9.859504,-1.912153 15.112058,-1.994436 2.640214,-0.04136 3.068768,-0.211232 3.068768,-0.211232 3.642994,-0.6043 6.041199,-3.096739 5.042005,-7.044025 -0.897012,-4.029149 -5.627924,-6.396635 -10.123681,-5.577037 -4.233648,0.771822 -14.437839,3.735864 -14.437839,3.735864 12.613136,-0.109166 14.724236,0.101351 15.667084,1.419581 0.55681,0.778509 -0.253013,1.845967 -3.616888,2.39536 -3.662194,0.598118 -11.274888,1.318409 -11.274888,1.318409 -7.302997,0.433712 -12.447216,0.46274 -13.9901,3.729341 -1.007971,2.134109 1.074901,4.020818 1.987824,5.201807 3.857854,4.290321 9.430279,6.604206 13.017156,8.308168 1.349588,0.641123 5.309431,1.851864 5.309431,1.851864 -11.636462,-0.640013 -20.030576,2.93313 -24.954495,7.047109 -5.569129,5.151167 -3.105513,11.291196 8.304076,15.071785 6.738967,2.232963 10.081061,3.283127 20.13324,2.377934 5.920839,-0.319139 6.854201,-0.12922 6.913232,0.356611 0.08311,0.684011 -6.576352,2.383109 -8.394449,2.907537 -4.625267,1.33414 -16.749966,4.02808 -16.810658,4.04114 z"
     id="path4237"
     style="fill:#ffffff;fill-opacity:1;fill-rule:evenodd;stroke:#000000;stroke-width:0;stroke-linecap:butt;stroke-linejoin:miter;stroke-miterlimit:4;stroke-dasharray:none;stroke-opacity:1" /></svg>
