<?xml version="1.0" encoding="UTF-8" standalone="no"?>
<svg
   height="128px"
   viewBox="0 0 128 128"
   width="128px"
   version="1.1"
   id="svg35"
   xml:space="preserve"
   xmlns:xlink="http://www.w3.org/1999/xlink"
   xmlns="http://www.w3.org/2000/svg"
   xmlns:svg="http://www.w3.org/2000/svg"><defs
     id="defs39"><linearGradient
       id="SVGID_3_"
       gradientUnits="userSpaceOnUse"
       x1="-675.21912"
       y1="-1.2802"
       x2="-675.21899"
       y2="142.9646"
       gradientTransform="matrix(0.53155504,0,0,0.53155504,314.91872,20.747424)">
						<stop
   offset="0"
   style="stop-color:#F29100"
   id="stop6" />
						<stop
   offset="1"
   style="stop-color:#EC670F"
   id="stop7-3" />
					</linearGradient><linearGradient
       xlink:href="#SVGID_3_"
       id="linearGradient10"
       x1="64"
       y1="20"
       x2="64"
       y2="108"
       gradientUnits="userSpaceOnUse" /></defs><linearGradient
     id="a"
     gradientUnits="userSpaceOnUse"
     x1="36"
     x2="60"
     y1="68"
     y2="68"><stop
       offset="0"
       stop-color="#ed336c"
       id="stop2" /><stop
       offset="1"
       stop-color="#ffa348"
       id="stop4" /></linearGradient><linearGradient
     id="b"
     gradientTransform="matrix(0 1 -1 0 144 -32)"
     gradientUnits="userSpaceOnUse"
     x1="72"
     x2="96"
     y1="68"
     y2="68"><stop
       offset="0"
       stop-color="#404ce6"
       id="stop7" /><stop
       offset="1"
       stop-color="#c061cb"
       id="stop9" /></linearGradient><linearGradient
     id="c"
     gradientUnits="userSpaceOnUse"
     x1="68.84919"
     x2="95.257637"
     y1="84"
     y2="84"><stop
       offset="0"
       stop-color="#33d1c6"
       id="stop12" /><stop
       offset="1"
       stop-color="#1c25d8"
       id="stop14" /></linearGradient><path
     style="display:inline;fill:url(#linearGradient10);fill-opacity:1;stroke:none;stroke-width:0.124969;stroke-linejoin:round;stroke-miterlimit:4;stroke-dasharray:none;stroke-opacity:1;enable-background:new"
     clip-path="none"
     d="M 27.996066,8.0000006 H 77.971103 L 107.999,37.917894 108,111.9779 c 8e-5,4.432 -3.6104,8.0221 -8.040181,8.0221 H 27.996005 C 23.566219,120 20,116.432 20,111.99999 V 16 c 0,-4.431999 3.566219,-7.9999994 7.996005,-7.9999994 z"
     id="path4411" /><path
     style="display:inline;vector-effect:none;fill:#000000;fill-opacity:0.2;stroke:none;stroke-width:0.125;stroke-linecap:butt;stroke-linejoin:round;stroke-miterlimit:4;stroke-dasharray:none;stroke-dashoffset:0;stroke-opacity:1;enable-background:new"
     d="M 77.978074,8.0000006 V 30.000002 c 0,4.432 3.610527,7.923448 8.042527,7.923448 l 22.000369,-0.0055 z"
     id="path4413" /><path
     fill="#ffffff"
     d="m 65.758916,111.2118 c -0.111095,-0.75693 0.104716,-1.51014 -0.123321,-2.2203 -0.195081,-0.61979 -0.64265,-0.67667 -0.9366,-1.18059 -0.774476,-1.32197 -1.574998,-3.03464 -1.648884,-4.65323 -0.06751,-1.4538 -0.602252,-2.76727 -0.675075,-4.208319 -0.03508,-0.695274 0.04678,-1.412342 0.02179,-2.100706 -0.01329,-0.334879 -0.03243,-0.625108 -0.09887,-0.988692 -0.01648,-0.08983 -0.07601,-0.459795 -0.103653,-0.608099 l 0.180728,-0.450759 c -0.07973,-0.154682 1.542573,-0.103121 2.026288,-0.09993 0.821253,0.0101 1.593602,0.05262 2.412728,0.09196 1.673336,0.08292 3.197835,0.06219 4.827583,-0.189234 3.631584,-0.56079 5.301199,-2.043829 6.155408,-2.660433 3.334444,-2.404223 4.861602,-6.335073 4.861602,-6.335073 0.550159,-1.227892 0.548033,-3.41843 1.727554,-4.399149 1.390016,-1.158258 3.724074,-1.074804 5.319803,-1.785493 0.93341,-0.413019 1.606891,-0.640524 2.561032,-0.442786 0.708031,0.147773 1.9827,0.967962 2.275587,-0.183386 -0.236542,-0.152557 -0.329033,-0.431623 -0.455543,-0.586305 1.315599,-0.130231 0.02498,-3.181889 -0.495409,-3.791583 -0.803711,-0.940852 -2.144825,-1.371943 -3.571518,-1.75041 -1.694598,-0.449164 -3.231855,-0.96743 -4.827583,-0.654345 -2.786412,0.545376 -2.578042,-1.049289 -4.220016,-1.049289 -1.970474,0 -5.476611,0.09674 -6.082584,2.012467 -0.282256,0.894607 -0.573016,0.931816 -1.062047,1.618054 -0.418334,0.5879 0.07282,1.106697 -0.137141,1.77752 -0.216875,0.689427 -0.535276,3.11757 -0.867498,3.964869 -0.561854,1.433604 -1.231613,3.223881 -2.46801,3.223881 -1.733401,0.207307 -3.095777,0.273751 -4.50174,-0.236542 -0.846235,-0.307239 -2.264424,-0.788296 -2.966077,-1.083841 -3.236107,-1.362375 -3.767662,-2.852855 -3.767662,-2.852855 -0.347105,-0.57408 -1.261911,-1.499517 -1.604233,-2.70721 -0.376341,-1.329951 -1.011549,-2.439306 -1.268822,-3.131391 -0.266309,-0.717068 -0.903112,-1.865758 -1.403305,-3.107471 -0.640524,-1.589881 -1.54151,-2.776312 -2.20117,-3.365275 -1.007828,-0.898328 -1.938049,-2.288876 -3.984005,-1.884894 -0.365709,0.07229 -1.694597,0.132357 -2.713056,0.986566 -0.69049,0.579395 -0.908428,1.774862 -1.547889,2.783222 -0.369431,0.582585 -1.018991,2.253794 -1.614864,3.648063 -0.413018,0.966367 -0.605441,1.690876 -1.051947,2.046487 -0.349232,0.278534 -0.781918,0.638397 -1.3055,0.442253 -0.32478,-0.121726 -0.671885,-0.327969 -1.02218,-0.60172 -0.473084,-0.369431 -1.54842,-2.199575 -2.209143,-3.551319 -0.572484,-1.172079 -1.794529,-2.924616 -2.501498,-3.873442 -1.017396,-1.365033 -1.613801,-1.711075 -3.117038,-1.711075 -3.224945,0 -3.468929,1.805692 -4.887649,4.431574 -0.622983,1.153474 -0.849957,2.98415 -2.100706,4.418817 -0.714941,0.820721 -2.996375,4.195564 -4.582536,4.769112 v -0.01648 L 20,78.981496 v 24.056584 l 0.0043,0.0335 v -0.15096 c 0.102591,-0.31362 0.211559,-0.61448 0.335412,-0.88344 0.613414,-1.3071 2.036919,-2.520106 2.827872,-3.862283 0.430029,-0.73142 0.920654,-1.447956 1.205567,-2.215521 0.245047,-0.661255 0.36571,-1.647289 0.719726,-2.220837 0.433749,-0.703248 1.113076,-0.942447 1.810476,-1.0562 1.092346,-0.180197 2.020441,1.570214 3.417899,2.214458 0.595873,0.273751 3.338697,1.244902 4.162076,1.444235 1.355997,0.324249 2.860298,0.59481 4.237025,0.872814 0.737267,0.148835 1.442109,0.235479 2.20117,0.312554 0.680922,0.06804 3.231854,0.152556 3.389726,0.337006 -1.296462,0.661254 -2.056586,2.517444 -2.543491,3.830914 -0.507635,1.36876 -0.86165,2.89219 -1.475065,4.23118 -0.679859,1.47932 -2.105489,2.09486 -1.935392,3.81869 0.06538,0.68783 0.190829,1.40915 0.07601,2.16609 -0.122258,0.7968 -0.44438,1.41872 -0.678796,2.19904 -0.30086,1.01793 -0.659128,4.3056 -1.123176,5.27196 l 2.836909,-0.35561 0.0048,-0.002 c 0.309897,-0.73673 0.595342,-3.84686 0.695806,-4.14294 0.530492,-1.55958 1.234271,-2.84275 2.317048,-4.04885 1.055669,-1.17527 1.000918,-2.6902 1.617522,-4.05949 0.667633,-1.48835 1.56543,-2.6785 2.412729,-4.07756 1.53141,-2.52967 2.541364,-5.723248 5.797139,-6.372808 0.347637,-0.07176 2.340968,1.365565 3.225476,2.220305 1.013144,0.973809 2.119841,2.101773 2.785348,3.444473 1.28849,2.6025 2.381367,6.37229 2.794917,8.4512 0.237605,1.19387 0.426838,1.2651 1.23427,2.21073 0.371557,0.43322 1.113077,1.78709 1.35706,2.30695 0.25621,0.55495 0.64584,1.81792 0.956268,2.4627 0.182855,0.38378 0.657002,1.56277 1.001981,2.58123 l 2.650865,-0.0829 c 0.0096,0.0223 0.05794,-0.006 0.0691,0.0144 0.0011,0 0.0027,-5.3e-4 0.0037,-0.001 -0.01116,-0.0202 -0.02126,-0.0436 -0.03083,-0.0654 -1.320914,-2.65087 -2.166087,-5.71794 -2.602493,-8.65319 z"
     id="path1"
     style="stroke-width:0.531555" /></svg>
