<?xml version="1.0" encoding="UTF-8" standalone="no"?>
<svg
   height="128px"
   viewBox="0 0 128 128"
   width="128px"
   version="1.1"
   id="svg35"
   xmlns="http://www.w3.org/2000/svg"
   xmlns:svg="http://www.w3.org/2000/svg">
  <defs
     id="defs39">
    <filter
       height="1.0214333"
       y="-0.010716652"
       width="1.0272651"
       x="-0.01363253"
       id="filter16020"
       style="color-interpolation-filters:sRGB">
      <feGaussianBlur
         id="feGaussianBlur16022"
         stdDeviation="2.0004419" />
    </filter>
  </defs>
  <linearGradient
     id="a"
     gradientUnits="userSpaceOnUse"
     x1="36"
     x2="60"
     y1="68"
     y2="68">
    <stop
       offset="0"
       stop-color="#ed336c"
       id="stop2" />
    <stop
       offset="1"
       stop-color="#ffa348"
       id="stop4" />
  </linearGradient>
  <linearGradient
     id="b"
     gradientTransform="matrix(0 1 -1 0 144 -32)"
     gradientUnits="userSpaceOnUse"
     x1="72"
     x2="96"
     y1="68"
     y2="68">
    <stop
       offset="0"
       stop-color="#404ce6"
       id="stop7" />
    <stop
       offset="1"
       stop-color="#c061cb"
       id="stop9" />
  </linearGradient>
  <linearGradient
     id="c"
     gradientUnits="userSpaceOnUse"
     x1="68.84919"
     x2="95.257637"
     y1="84"
     y2="84">
    <stop
       offset="0"
       stop-color="#33d1c6"
       id="stop12" />
    <stop
       offset="1"
       stop-color="#1c25d8"
       id="stop14" />
  </linearGradient>
  <path
     style="display:inline;fill:#fdc00a;fill-opacity:1;stroke:none;stroke-width:0.125;stroke-linejoin:round;stroke-miterlimit:4;stroke-dasharray:none;stroke-opacity:1;enable-background:new"
     clip-path="none"
     d="m 27.978085,7.9999995 h 50.000002 l 30.042893,29.9178935 0.001,74.060007 c 8e-5,4.432 -3.6122,8.0221 -8.044205,8.0221 H 27.978023 c -4.431999,0 -7.999998,-3.568 -7.999998,-8.00001 V 15.999998 c 0,-4.431999 3.567999,-7.9999984 7.999998,-7.9999984 z"
     id="path4411" />
  <path
     style="display:inline;vector-effect:none;fill:#000000;fill-opacity:0.199089;stroke:none;stroke-width:0.125;stroke-linecap:butt;stroke-linejoin:round;stroke-miterlimit:4;stroke-dasharray:none;stroke-dashoffset:0;stroke-opacity:1;enable-background:new"
     d="M 77.978087,7.9999995 V 30 c 0,4.432001 3.610528,7.923449 8.042528,7.923449 l 22.000365,-0.0055 z"
     id="path4413" />
  <g
     id="path3889" />
  <g
     id="path3891" />
  <g
     id="path4838"
     transform="matrix(0.99993426,0,0,0.99993426,0.44315048,0.00377306)" />
  <g
     id="path4276"
     transform="matrix(0.99993426,0,0,0.99993426,-0.44300724,0.07009483)">
    <path
       id="path5240"
       style="color:#000000;-inkscape-font-specification:FreeMono;fill:#ffffff;stroke-width:0.9;stroke-linecap:round;stroke-linejoin:round;-inkscape-stroke:none"
       d="m 80.166016,57.394531 c -1.337007,0 -2.611329,1.076287 -2.611328,2.558594 0,1.423312 1.243581,2.554687 2.666015,2.554687 0.431318,0 1.056817,0.158569 1.451172,0.478516 0.423777,0.34382 0.75,0.78309 0.75,2 v 8.13086 c 0,2.174988 0.820808,3.879516 1.904297,5.041015 0.306127,0.328169 0.626547,0.536383 0.945312,0.767578 -0.324802,0.223799 -0.653556,0.420711 -0.96289,0.75 -1.097786,1.168612 -1.886719,2.910955 -1.886719,5.169922 v 8.185547 c 0,1.184283 -0.314637,1.600213 -0.744141,1.941406 -0.398933,0.316911 -1.04202,0.480469 -1.511718,0.480469 -1.409585,0 -2.611328,1.145118 -2.611328,2.558594 0,1.435459 1.248176,2.554691 2.611328,2.554691 2.260214,0 4.198542,-0.719844 5.511718,-2.105472 1.311124,-1.383461 1.91211,-3.307956 1.91211,-5.429688 v -8.185547 c 0,-1.294908 0.525385,-1.946008 1.404297,-2.521484 0.853413,-0.558783 2.096458,-0.841797 2.84375,-0.841797 0.633854,0 1.324526,-0.16923 1.857421,-0.664063 0.541474,-0.502796 0.753907,-1.205006 0.753907,-1.835937 0,-0.705228 -0.263841,-1.401923 -0.773438,-1.894531 -0.504872,-0.488045 -1.17827,-0.71875 -1.83789,-0.71875 -0.759773,0 -2.005111,-0.275518 -2.857422,-0.81836 -0.878853,-0.559745 -1.390625,-1.17309 -1.390625,-2.433593 v -8.13086 c 0,-2.145372 -0.597274,-4.082312 -1.908203,-5.474609 -1.313236,-1.394747 -3.255223,-2.117188 -5.515625,-2.117188 z m -16.020084,6.0347 c -2.868466,0 -5.228515,2.174592 -5.228515,4.982422 0,2.807828 2.342951,5.044918 5.228516,5.044918 h 0.613281 c 2.868466,0 5.228515,-2.19004 5.228515,-5.044918 0,-2.80783 -2.360049,-4.982422 -5.228515,-4.982422 z m -0.249024,20.004363 c -2.868464,0 -5.228515,2.174594 -5.228515,4.982422 0,2.807825 2.342955,5.044922 5.228515,5.044922 h 0.613282 c 0.271026,0 0.536487,-0.02078 0.796874,-0.05859 -0.452353,3.368686 -1.958307,5.403692 -5.882812,7.185542 -0.322701,0.14651 -0.91273,0.89507 -0.93927,1.53271 -0.0246,0.59158 0.281748,1.22786 0.776398,1.55328 0.53142,0.34962 1.73756,0.29426 1.86209,0.24801 6.156417,-2.29467 8.890626,-6.592116 8.890626,-13.158214 0,-1.064549 -0.103137,-2.041293 -0.308594,-2.91211 -0.118916,-1.032211 -0.561436,-1.95742 -1.224609,-2.691406 -0.874277,-1.101343 -2.131803,-1.726562 -3.695314,-1.726562 -0.0342,0 -0.06748,0.0033 -0.101562,0.0039 -0.05822,-0.0018 -0.115166,-0.0039 -0.173827,-0.0039 z M 48.726524,57.394531 c -2.260401,0 -4.202389,0.72244 -5.515625,2.117188 -1.311093,1.392473 -1.90625,3.329523 -1.90625,5.474609 v 8.13086 c 0,1.260083 -0.513495,1.873698 -1.392578,2.433593 -0.852316,0.542842 -2.09765,0.81836 -2.857422,0.81836 -0.659624,0 -1.331579,0.231198 -1.835937,0.71875 -0.509595,0.492609 -0.773438,1.189303 -0.773438,1.894531 0,0.629817 0.209974,1.332676 0.751953,1.835937 0.532894,0.494835 1.223565,0.664063 1.857422,0.664063 0.747293,0 1.99034,0.283014 2.84375,0.841797 0.879144,0.575631 1.40625,1.226987 1.40625,2.521484 v 8.185547 c 0,2.121445 0.598887,4.046053 1.910156,5.429688 1.313181,1.385629 3.251506,2.105472 5.511719,2.105472 1.363155,0 2.611328,-1.119235 2.611328,-2.554691 0,-1.413472 -1.201736,-2.558594 -2.611328,-2.558594 -0.469692,0 -1.112793,-0.163562 -1.511719,-0.480469 -0.429507,-0.341193 -0.74414,-0.757124 -0.74414,-1.941406 v -8.185547 c 0,-2.258967 -0.788934,-4.00131 -1.886719,-5.169922 -0.309337,-0.329289 -0.638088,-0.526202 -0.962891,-0.75 0.318767,-0.231195 0.639187,-0.439408 0.945313,-0.767578 1.083491,-1.161501 1.904297,-2.866029 1.904297,-5.041015 v -8.13086 c 0,-1.216908 0.326223,-1.656178 0.75,-2 0.394349,-0.319946 1.019857,-0.478516 1.451172,-0.478516 1.422436,0 2.666015,-1.131377 2.666015,-2.554687 0,-1.482305 -1.274315,-2.558594 -2.611328,-2.558594 z" />
  </g>
</svg>
