<?xml version="1.0" encoding="UTF-8" standalone="no"?>
<svg
   height="128"
   viewBox="0 0 128 128"
   width="128"
   version="1.1"
   id="svg35"
   xml:space="preserve"
   xmlns="http://www.w3.org/2000/svg"
   xmlns:svg="http://www.w3.org/2000/svg"><defs
     id="defs39"><linearGradient
       id="gradientFill-1"
       x1="0.74144253"
       x2="590.86259"
       y1="3.6658269"
       y2="593.78698"
       gradientUnits="userSpaceOnUse"
       spreadMethod="pad"
       gradientTransform="scale(1.2219423,0.81836924)"><stop
         offset="0"
         stop-color="rgb(203,206,208)"
         stop-opacity="1"
         id="stop1" /><stop
         offset="1"
         stop-color="rgb(132,131,139)"
         stop-opacity="1"
         id="stop2-3" /></linearGradient><linearGradient
       id="gradientFill-2"
       x1="301.02603"
       x2="703.06751"
       y1="151.40061"
       y2="553.44209"
       gradientUnits="userSpaceOnUse"
       spreadMethod="pad"
       gradientTransform="scale(0.9899476,1.0101545)"><stop
         offset="0"
         stop-color="rgb(39,109,195)"
         stop-opacity="1"
         id="stop3" /><stop
         offset="0.5"
         stop-color="rgb(39,109,195)"
         stop-opacity="1"
         id="stop5"
         style="stop-color:#1e64b6;stop-opacity:1;" /><stop
         offset="1"
         stop-color="rgb(22,92,170)"
         stop-opacity="1"
         id="stop4-6" /></linearGradient></defs><linearGradient
     id="a"
     gradientUnits="userSpaceOnUse"
     x1="36"
     x2="60"
     y1="68"
     y2="68"><stop
       offset="0"
       stop-color="#ed336c"
       id="stop2" /><stop
       offset="1"
       stop-color="#ffa348"
       id="stop4" /></linearGradient><linearGradient
     id="b"
     gradientTransform="rotate(90,88,56)"
     gradientUnits="userSpaceOnUse"
     x1="72"
     x2="96"
     y1="68"
     y2="68"><stop
       offset="0"
       stop-color="#404ce6"
       id="stop7" /><stop
       offset="1"
       stop-color="#c061cb"
       id="stop9" /></linearGradient><linearGradient
     id="c"
     gradientUnits="userSpaceOnUse"
     x1="68.84919"
     x2="95.257637"
     y1="84"
     y2="84"><stop
       offset="0"
       stop-color="#33d1c6"
       id="stop12" /><stop
       offset="1"
       stop-color="#1c25d8"
       id="stop14" /></linearGradient><g
     id="g1457"
     transform="matrix(0.25,0,0,0.25,-3.22915,-206.3321)"
     style="display:inline;enable-background:new"><path
       style="display:inline;fill:#f6f5f4;fill-opacity:1;stroke:none;stroke-width:0.5;stroke-linejoin:round;stroke-miterlimit:4;stroke-dasharray:none;stroke-opacity:1;enable-background:new"
       clip-path="none"
       d="m 124.82842,857.32842 h 200 L 445,977 l 0.005,296.24 c 3.1e-4,17.728 -14.44878,32.0884 -32.17678,32.0884 h -288 c -17.72799,0 -31.99999,-14.272 -31.99999,-32 V 889.32842 c 0,-17.728 14.272,-32 31.99999,-32 z"
       id="rect2069" /><path
       style="display:inline;vector-effect:none;fill:#deddda;fill-opacity:1;stroke:none;stroke-width:0.5;stroke-linecap:butt;stroke-linejoin:round;stroke-miterlimit:4;stroke-dasharray:none;stroke-dashoffset:0;stroke-opacity:1;enable-background:new"
       d="m 324.82842,857.32842 v 88.00001 c 0,17.728 14.44211,31.69379 32.17011,31.69379 L 445,977 Z"
       id="rect26812" /></g><path
     id="rect2801-6-3-0"
     style="display:inline;fill:#deddda;stroke-width:2;stroke-linecap:round;paint-order:markers stroke fill;enable-background:new;stop-color:#000000"
     d="m 33.977949,35.990705 35.990519,0.01859 c 1.108,5.72e-4 2,0.892 2,2 0,1.108 -0.892,2.000572 -2,2 l -35.990519,-0.01859 c -1.107999,-5.72e-4 -2,-0.892 -2,-2 0,-1.108 0.892,-2.000572 2,-2 z" /><path
     id="rect2801-6-3-0-6"
     style="display:inline;fill:#deddda;stroke-width:2;stroke-linecap:round;paint-order:markers stroke fill;enable-background:new;stop-color:#000000"
     d="m 33.977949,27.990705 35.990519,0.01859 c 1.108,5.72e-4 2,0.892 2,2 0,1.108 -0.892,2.000572 -2,2 l -35.990519,-0.01859 c -1.107999,-5.72e-4 -2,-0.892 -2,-2 0,-1.108 0.892,-2.000572 2,-2 z" /><rect
     style="display:inline;fill:#deddda;fill-opacity:1;stroke-width:2;stroke-linecap:round;paint-order:markers stroke fill;enable-background:new;stop-color:#000000"
     id="rect2795"
     width="64"
     height="4"
     x="31.977949"
     y="76"
     rx="2"
     ry="2" /><rect
     style="display:inline;fill:#deddda;fill-opacity:1;stroke-width:2;stroke-linecap:round;paint-order:markers stroke fill;enable-background:new;stop-color:#000000"
     id="rect2797"
     width="64"
     height="4"
     x="31.977949"
     y="68"
     rx="2"
     ry="2" /><rect
     style="display:inline;fill:#deddda;fill-opacity:1;stroke-width:2;stroke-linecap:round;paint-order:markers stroke fill;enable-background:new;stop-color:#000000"
     id="rect2799"
     width="64"
     height="4"
     x="31.977949"
     y="60"
     rx="2"
     ry="2" /><rect
     style="display:inline;fill:#deddda;fill-opacity:1;stroke-width:2;stroke-linecap:round;paint-order:markers stroke fill;enable-background:new;stop-color:#000000"
     id="rect2801"
     width="64"
     height="4"
     x="31.977949"
     y="52"
     rx="2"
     ry="2" /><rect
     style="display:inline;fill:#deddda;fill-opacity:1;stroke-width:2;stroke-linecap:round;paint-order:markers stroke fill;enable-background:new;stop-color:#000000"
     id="rect2801-3"
     width="64"
     height="4"
     x="31.977951"
     y="44"
     rx="2"
     ry="2" /><path
     id="rect2801-6-3-6-2"
     style="display:inline;fill:#deddda;stroke-width:2;stroke-linecap:round;paint-order:markers stroke fill;enable-background:new;stop-color:#000000"
     d="m 64.553753,84.004 29.424196,-0.008 c 1.108,-3.01e-4 2,0.892 2,2 0,1.108 -0.892,1.999699 -2,2 l -29.424196,0.008 c -1.108,3.01e-4 -2,-0.892 -2,-2 0,-1.108 0.892,-1.999699 2,-2 z" /><path
     id="rect2801-6-3-6-2-6"
     style="display:inline;fill:#deddda;stroke-width:2;stroke-linecap:round;paint-order:markers stroke fill;enable-background:new;stop-color:#000000"
     d="m 64.553753,92.004 29.4242,-0.008 c 1.108,-3.01e-4 2,0.892 2,2 0,1.108 -0.892,1.999699 -2,2 l -29.4242,0.008 c -1.108,3.01e-4 -2,-0.892 -2,-2 0,-1.108 0.892,-1.999699 2,-2 z" /><path
     id="rect2801-6-3-6-2-1"
     style="display:inline;fill:#deddda;stroke-width:2;stroke-linecap:round;paint-order:markers stroke fill;enable-background:new;stop-color:#000000"
     d="m 64.553753,100.004 29.424191,-0.008 c 1.10801,-3.01e-4 2,0.892 2,2 0,1.108 -0.89199,1.99962 -2,2 l -29.424191,0.008 c -1.108,3.7e-4 -2,-0.892 -2,-2 0,-1.108 0.892,-1.99962 2,-2 z" /><g
     id="g5"
     transform="matrix(0.03596721,0,0,0.03596721,31.945363,83.892099)"><path
       d="M 361.453,485.937 C 162.329,485.937 0.906,377.828 0.906,244.469 0.906,111.109 162.329,3 361.453,3 560.578,3 722,111.109 722,244.469 722,377.828 560.578,485.937 361.453,485.937 Z M 416.641,97.406 c -151.352,0 -274.047,73.908 -274.047,165.078 0,91.17 122.695,165.078 274.047,165.078 151.351,0 263.046,-50.529 263.046,-165.078 0,-114.513 -111.695,-165.078 -263.046,-165.078 z"
       fill="url(#gradientFill-1)"
       fill-rule="evenodd"
       id="path4"
       style="fill:url(#gradientFill-1)" /><path
       d="m 550,377 c 0,0 21.822,6.585 34.5,13 4.399,2.226 12.01,6.668 17.5,12.5 5.378,5.712 8,11.5 8,11.5 L 696,559 557,559.062 492,437 c 0,0 -13.31,-22.869 -21.5,-29.5 -6.832,-5.531 -9.745,-7.5 -16.5,-7.5 -4.702,0 -33.026,0 -33.026,0 L 421,558.974 298,559.026 V 152.938 h 247 c 0,0 112.5,2.029 112.5,109.062 0,107.033 -107.5,115 -107.5,115 z m -53.5,-135.976 -74.463,-0.048 -0.037,69.05 74.5,-0.024 c 0,0 34.5,-0.107 34.5,-35.125 0,-35.722 -34.5,-33.853 -34.5,-33.853 z"
       fill="url(#gradientFill-2)"
       fill-rule="evenodd"
       id="path5"
       style="fill:url(#gradientFill-2)" /></g></svg>
