<?xml version="1.0" encoding="UTF-8" standalone="no"?>
<svg
   height="128px"
   viewBox="0 0 128 128"
   width="128px"
   version="1.1"
   id="svg66"
   xmlns:xlink="http://www.w3.org/1999/xlink"
   xmlns="http://www.w3.org/2000/svg"
   xmlns:svg="http://www.w3.org/2000/svg">
  <defs
     id="defs66">
    <linearGradient
       id="a-6"
       gradientTransform="matrix(0.25,0,0,0.272216,-14.14929,238.33194)"
       gradientUnits="userSpaceOnUse"
       x1="88.595886"
       x2="536.59589"
       y1="-449.39401"
       y2="-449.39401">
      <stop
         offset="0"
         stop-color="#1a5fb4"
         id="stop1-6" />
      <stop
         offset="0.035717"
         stop-color="#3584e4"
         id="stop2-4" />
      <stop
         offset="0.0712587"
         stop-color="#1a5aa8"
         id="stop3-9" />
      <stop
         offset="0.928574"
         stop-color="#1a5aa8"
         id="stop4-5" />
      <stop
         offset="0.964292"
         stop-color="#3584e4"
         id="stop5-0" />
      <stop
         offset="1"
         stop-color="#1a5fb4"
         id="stop6-4" />
    </linearGradient>
  </defs>
  <linearGradient
     id="a"
     gradientTransform="matrix(1 0 0 0.769237 -8 39.076706)"
     gradientUnits="userSpaceOnUse"
     x1="15.999999"
     x2="128"
     y1="73.999687"
     y2="73.999687">
    <stop
       offset="0"
       stop-color="#63452c"
       id="stop1" />
    <stop
       offset="0.0357143"
       stop-color="#865e3c"
       id="stop2" />
    <stop
       offset="0.0714286"
       stop-color="#63452c"
       id="stop3" />
    <stop
       offset="0.928571"
       stop-color="#63452c"
       id="stop4" />
    <stop
       offset="0.964286"
       stop-color="#865e3c"
       id="stop5" />
    <stop
       offset="1"
       stop-color="#63452c"
       id="stop6" />
  </linearGradient>
  <linearGradient
     id="b"
     gradientTransform="matrix(0 1.5 -1.5 0 369 0)"
     gradientUnits="userSpaceOnUse"
     x1="23"
     x2="23"
     y1="238"
     y2="222">
    <stop
       offset="0"
       stop-color="#2ec27e"
       id="stop7" />
    <stop
       offset="0.5"
       stop-color="#8ff0a4"
       id="stop8" />
    <stop
       offset="1"
       stop-color="#2ec27e"
       id="stop9" />
  </linearGradient>
  <radialGradient
     id="c"
     cx="24.000009"
     cy="53.00007598165"
     gradientUnits="userSpaceOnUse"
     r="14.000004">
    <stop
       offset="0"
       stop-color="#26a269"
       id="stop10" />
    <stop
       offset="0.7"
       stop-color="#26a269"
       stop-opacity="0.478431"
       id="stop11" />
    <stop
       offset="1"
       stop-color="#26a269"
       stop-opacity="0"
       id="stop12" />
  </radialGradient>
  <linearGradient
     id="d"
     gradientUnits="userSpaceOnUse"
     x1="15"
     x2="33"
     y1="58"
     y2="58">
    <stop
       offset="0"
       stop-color="#2ec27e"
       id="stop13" />
    <stop
       offset="0.5"
       stop-color="#57e389"
       id="stop14" />
    <stop
       offset="1"
       stop-color="#2ec27e"
       id="stop15" />
  </linearGradient>
  <linearGradient
     id="e"
     gradientTransform="matrix(0 -1.1875 -2 0 484 143.5)"
     gradientUnits="userSpaceOnUse"
     x1="46"
     x2="46"
     y1="232"
     y2="228">
    <stop
       offset="0"
       stop-color="#9a9996"
       id="stop16" />
    <stop
       offset="0.5"
       stop-color="#ffffff"
       id="stop17" />
    <stop
       offset="1"
       stop-color="#c0bfbc"
       id="stop18" />
  </linearGradient>
  <clipPath
     id="f">
    <path
       d="m 20 10 h 8 v 25 h -8 z m 0 0"
       id="path18" />
  </clipPath>
  <clipPath
     id="g">
    <path
       d="m 24 10 c -6.628906 0 -12 5.371094 -12 12 v 22 c 0 2.210938 1.789062 4 4 4 c 1.105469 0 2 0.894531 2 2 v 7 c 0 1.105469 -0.894531 2 -2 2 c -2.210938 0 -4 1.789062 -4 4 v 2 h 24 v -2 c 0 -2.210938 -1.789062 -4 -4 -4 c -1.105469 0 -2 -0.894531 -2 -2 v -7 c 0 -1.105469 0.894531 -2 2 -2 c 2.210938 0 4 -1.789062 4 -4 v -22 c 0 -6.628906 -5.371094 -12 -12 -12 z m 0 0"
       id="path19" />
  </clipPath>
  <clipPath
     id="h">
    <path
       d="m 32 10 h 4 v 31 h -4 z m 0 0"
       id="path20" />
  </clipPath>
  <clipPath
     id="i">
    <path
       d="m 24 10 c -6.628906 0 -12 5.371094 -12 12 v 22 c 0 2.210938 1.789062 4 4 4 c 1.105469 0 2 0.894531 2 2 v 7 c 0 1.105469 -0.894531 2 -2 2 c -2.210938 0 -4 1.789062 -4 4 v 2 h 24 v -2 c 0 -2.210938 -1.789062 -4 -4 -4 c -1.105469 0 -2 -0.894531 -2 -2 v -7 c 0 -1.105469 0.894531 -2 2 -2 c 2.210938 0 4 -1.789062 4 -4 v -22 c 0 -6.628906 -5.371094 -12 -12 -12 z m 0 0"
       id="path21" />
  </clipPath>
  <clipPath
     id="j">
    <path
       d="m 12 10 h 4 v 31 h -4 z m 0 0"
       id="path22" />
  </clipPath>
  <clipPath
     id="k">
    <path
       d="m 24 10 c -6.628906 0 -12 5.371094 -12 12 v 22 c 0 2.210938 1.789062 4 4 4 c 1.105469 0 2 0.894531 2 2 v 7 c 0 1.105469 -0.894531 2 -2 2 c -2.210938 0 -4 1.789062 -4 4 v 2 h 24 v -2 c 0 -2.210938 -1.789062 -4 -4 -4 c -1.105469 0 -2 -0.894531 -2 -2 v -7 c 0 -1.105469 0.894531 -2 2 -2 c 2.210938 0 4 -1.789062 4 -4 v -22 c 0 -6.628906 -5.371094 -12 -12 -12 z m 0 0"
       id="path23" />
  </clipPath>
  <linearGradient
     id="l"
     gradientUnits="userSpaceOnUse">
    <stop
       offset="0"
       stop-color="#c0bfbc"
       id="stop23" />
    <stop
       offset="0.5"
       stop-color="#deddda"
       id="stop24" />
    <stop
       offset="1"
       stop-color="#9a9996"
       id="stop25" />
  </linearGradient>
  <linearGradient
     id="m"
     gradientTransform="matrix(1.5 0 0 1.555555 -62 -59.110809)"
     x1="81"
     x2="81"
     xlink:href="#l"
     y1="47"
     y2="65" />
  <linearGradient
     id="n"
     gradientTransform="matrix(0.833334 0 0 0.821429 9.333274 -143.428558)"
     x1="92"
     x2="104"
     xlink:href="#l"
     y1="244"
     y2="244" />
  <linearGradient
     id="o"
     gradientTransform="matrix(1.5 0 0 0.928571 -56 -148.571379)"
     gradientUnits="userSpaceOnUse"
     x1="92"
     x2="104"
     y1="244"
     y2="244">
    <stop
       offset="0"
       stop-color="#ff7800"
       id="stop26" />
    <stop
       offset="0.25"
       stop-color="#ffa348"
       id="stop27" />
    <stop
       offset="0.75"
       stop-color="#ff7800"
       id="stop28" />
    <stop
       offset="1"
       stop-color="#c64600"
       id="stop29" />
  </linearGradient>
  <filter
     id="p"
     height="1"
     width="1"
     x="0"
     y="0">
    <feColorMatrix
       in="SourceGraphic"
       type="matrix"
       values="0 0 0 0 1 0 0 0 0 1 0 0 0 0 1 0 0 0 1 0"
       id="feColorMatrix29" />
  </filter>
  <mask
     id="q">
    <g
       filter="url(#p)"
       id="g29">
      <rect
         fill-opacity="0.4"
         height="128"
         width="128"
         id="rect29" />
    </g>
  </mask>
  <clipPath
     id="r">
    <rect
       height="152"
       width="192"
       id="rect30" />
  </clipPath>
  <mask
     id="s">
    <g
       filter="url(#p)"
       id="g31">
      <rect
         fill-opacity="0.4"
         height="128"
         width="128"
         id="rect31" />
    </g>
  </mask>
  <clipPath
     id="t">
    <rect
       height="152"
       width="192"
       id="rect32" />
  </clipPath>
  <mask
     id="u">
    <g
       filter="url(#p)"
       id="g33">
      <rect
         fill-opacity="0.4"
         height="128"
         width="128"
         id="rect33" />
    </g>
  </mask>
  <clipPath
     id="v">
    <rect
       height="152"
       width="192"
       id="rect34" />
  </clipPath>
  <path
     d="m 16,33.246094 h 96 c 4.41797,0 8,3.582031 8,8 V 108 c 0,4.41797 -3.58203,8 -8,8 H 16 c -4.41797,0 -8,-3.58203 -8,-8 V 41.246094 c 0,-4.417969 3.58203,-8 8,-8 z m 0,0"
     fill="url(#a)"
     id="path37-8"
     style="fill:url(#a-6)" />
  <path
     d="m 16,28 h 96 c 4.41797,0 8,3.582031 8,8 v 65 c 0,4.41797 -3.58203,8 -8,8 H 16 c -4.41797,0 -8,-3.58203 -8,-8 V 36 c 0,-4.417969 3.58203,-8 8,-8 z m 0,0"
     fill="#1c71d8"
     id="path38-7" />
  <path
     d="m 24 10 c -6.628906 0 -12 5.371094 -12 12 v 28 c 0 6.628906 5.371094 12 12 12 s 12 -5.371094 12 -12 v -28 c 0 -6.628906 -5.371094 -12 -12 -12 z m 0 0"
     fill="url(#b)"
     id="path36" />
  <path
     d="m 36 50 c 0 6.628906 -5.371094 12 -12 12 s -12 -5.371094 -12 -12 s 5.371094 -12 12 -12 s 12 5.371094 12 12 z m 0 0"
     fill="url(#c)"
     id="path37" />
  <path
     d="m 33 58 c 0 4.96875 -4.03125 9 -9 9 s -9 -4.03125 -9 -9 s 4.03125 -9 9 -9 s 9 4.03125 9 9 z m 0 0"
     fill="url(#d)"
     id="path38" />
  <path
     d="m 33 61 c 0 4.96875 -4.03125 9 -9 9 s -9 -4.03125 -9 -9 s 4.03125 -9 9 -9 s 9 4.03125 9 9 z m 0 0"
     fill="#26a269"
     id="path39" />
  <path
     d="m 28 92 v -30 c 0 -2.210938 -1.789062 -4 -4 -4 s -4 1.789062 -4 4 v 30 c 0 2.210938 1.789062 4 4 4 s 4 -1.789062 4 -4 z m 0 0"
     fill="url(#e)"
     id="path40" />
  <path
     d="m 29.738281 89.964844 l -2.613281 9.570312 c -0.074219 0.273438 -0.320312 0.464844 -0.605469 0.464844 h -5.039062 c -0.285157 0 -0.53125 -0.191406 -0.605469 -0.464844 l -2.613281 -9.570312 c -0.0625 -0.230469 -0.011719 -0.476563 0.132812 -0.664063 c 0.144531 -0.191406 0.367188 -0.300781 0.605469 -0.300781 h 10 c 0.238281 0 0.460938 0.109375 0.605469 0.300781 c 0.144531 0.1875 0.195312 0.433594 0.132812 0.664063 z m 0 0"
     fill="#c0bfbc"
     id="path41" />
  <path
     d="m 29.710938 88.957031 l -2.574219 8.582031 c -0.082031 0.273438 -0.332031 0.460938 -0.617188 0.460938 h -5.039062 c -0.285157 0 -0.535157 -0.1875 -0.617188 -0.460938 l -2.574219 -8.582031 c -0.070312 -0.222656 -0.027343 -0.46875 0.113282 -0.65625 c 0.140625 -0.191406 0.363281 -0.300781 0.597656 -0.300781 h 10 c 0.234375 0 0.457031 0.109375 0.597656 0.300781 c 0.140625 0.1875 0.183594 0.433594 0.113282 0.65625 z m 0 0"
     fill="#deddda"
     id="path42" />
  <g
     clip-path="url(#f)"
     id="g44">
    <g
       clip-path="url(#g)"
       id="g43">
      <path
         d="m 28 -12 v 43 c 0 2.210938 -1.789062 4 -4 4 s -4 -1.789062 -4 -4 v -43 c 0 -2.210938 1.789062 -4 4 -4 s 4 1.789062 4 4 z m 0 0"
         fill="#2ec27e"
         id="path43" />
    </g>
  </g>
  <g
     clip-path="url(#h)"
     id="g46">
    <g
       clip-path="url(#i)"
       id="g45">
      <path
         d="m 40 -6 v 43 c 0 2.210938 -1.789062 4 -4 4 s -4 -1.789062 -4 -4 v -43 c 0 -2.210938 1.789062 -4 4 -4 s 4 1.789062 4 4 z m 0 0"
         fill="#26a269"
         id="path44" />
    </g>
  </g>
  <g
     clip-path="url(#j)"
     id="g48">
    <g
       clip-path="url(#k)"
       id="g47">
      <path
         d="m 16 -6 v 43 c 0 2.210938 -1.789062 4 -4 4 s -4 -1.789062 -4 -4 v -43 c 0 -2.210938 1.789062 -4 4 -4 s 4 1.789062 4 4 z m 0 0"
         fill="#26a269"
         id="path46" />
    </g>
  </g>
  <path
     d="m 127.5 35 v -4 l -2.285156 -0.773438 l 0.089844 4.085938 z m 0 0"
     fill="#9a9996"
     id="path48" />
  <path
     d="m 67 20 h 18 v 16 h -18 z m 0 0"
     fill="#9a9996"
     id="path49" />
  <path
     d="m 55 14 h 12 c 1.65625 0 3 1.394531 3 3.113281 v 21.777344 c 0 1.71875 -1.34375 3.109375 -3 3.109375 h -12 c -1.65625 0 -3 -1.390625 -3 -3.109375 v -21.777344 c 0 -1.71875 1.34375 -3.113281 3 -3.113281 z m 0 0"
     fill="url(#m)"
     id="path50" />
  <path
     d="m 79 16 h 24 c 1.65625 0 3 1.34375 3 3 v 18 c 0 1.65625 -1.34375 3 -3 3 h -24 c -1.65625 0 -3 -1.34375 -3 -3 v -18 c 0 -1.65625 1.34375 -3 3 -3 z m 0 0"
     fill="#9a9996"
     id="path51" />
  <path
     d="m 101.5 30 c 10.5 0 18.5 0 23 6.5 l 3 -1.5 c -2.5 -10 -10.5 -15 -21.5 -15 h -7.5 z m 0 0"
     fill="#9a9996"
     id="path52" />
  <path
     d="m 101.5 26 c 10.554688 0 18.5 0 23 6.5 l 3 -1.5 c -2.5 -10 -14.5 -15 -25.5 -15 h -3.5 z m 0 0"
     fill="#c0bfbc"
     id="path53" />
  <path
     d="m 79 16 h 24 c 1.65625 0 3 1.304688 3 2.910156 v 10.179688 c 0 1.609375 -1.34375 2.910156 -3 2.910156 h -24 c -1.65625 0 -3 -1.300781 -3 -2.910156 v -10.179688 c 0 -1.605468 1.34375 -2.910156 3 -2.910156 z m 0 0"
     fill="#c0bfbc"
     id="path54" />
  <path
     d="m 91 34 c 2.761719 0 5 2.238281 5 5 v 36 c 0 2.761719 -2.238281 5 -5 5 s -5 -2.238281 -5 -5 v -36 c 0 -2.761719 2.238281 -5 5 -5 z m 0 0"
     fill="url(#n)"
     id="path55" />
  <path
     d="m 88 52 h 6 c 3.3125 0 6 2.6875 6 6 v 40 c 0 3.3125 -2.6875 6 -6 6 h -6 c -3.3125 0 -6 -2.6875 -6 -6 v -40 c 0 -3.3125 2.6875 -6 6 -6 z m 0 0"
     fill="url(#o)"
     id="path56" />
  <path
     d="m 87.25 93.5 h 7.5 c 2.898438 0 5.25 2.351562 5.25 5.25 s -2.351562 5.25 -5.25 5.25 h -7.5 c -2.898438 0 -5.25 -2.351562 -5.25 -5.25 s 2.351562 -5.25 5.25 -5.25 z m 0 0"
     fill="#c64600"
     id="path57" />
  <g
     clip-path="url(#r)"
     mask="url(#q)"
     transform="matrix(1 0 0 1 -8 -16)"
     id="g58">
    <path
       d="m 96 96 h 6 c 0.550781 0 1 0.449219 1 1 s -0.449219 1 -1 1 h -6 c -0.550781 0 -1 -0.449219 -1 -1 s 0.449219 -1 1 -1 z m 0 0"
       fill="#8f3200"
       id="path58" />
  </g>
  <g
     clip-path="url(#t)"
     mask="url(#s)"
     transform="matrix(1 0 0 1 -8 -16)"
     id="g59">
    <path
       d="m 96 100 h 6 c 0.550781 0 1 0.449219 1 1 s -0.449219 1 -1 1 h -6 c -0.550781 0 -1 -0.449219 -1 -1 s 0.449219 -1 1 -1 z m 0 0"
       fill="#8f3200"
       id="path59" />
  </g>
  <g
     clip-path="url(#v)"
     mask="url(#u)"
     transform="matrix(1 0 0 1 -8 -16)"
     id="g60">
    <path
       d="m 96 104 h 6 c 0.550781 0 1 0.449219 1 1 s -0.449219 1 -1 1 h -6 c -0.550781 0 -1 -0.449219 -1 -1 s 0.449219 -1 1 -1 z m 0 0"
       fill="#8f3200"
       id="path60" />
  </g>
  <path
     id="path61"
     d="M 50 49.167969 C 44.137197 51.542019 40 57.286261 40 64 C 40 72.835938 47.164062 80 56 80 C 64.835938 80 72 72.835938 72 64 C 72 57.286261 67.862803 51.542019 62 49.167969 L 62 64 L 56 67 L 50 64 L 50 49.167969 z "
     style="fill:#a7a6a4;fill-opacity:1" />
  <path
     id="path62"
     d="M 50 47.167969 C 44.137197 49.542019 40 55.286261 40 62 C 40 70.835938 47.164062 78 56 78 C 64.835938 78 72 70.835938 72 62 C 72 55.286261 67.862803 49.542019 62 47.167969 L 62 62 L 56 65 L 50 62 L 50 47.167969 z "
     style="fill:#deddda;fill-opacity:1" />
  <path
     d="m 56 70 c -4.433594 0 -8 3.566406 -8 8 v 38 c 0 4.433594 3.566406 8 8 8 s 8 -3.566406 8 -8 v -38 c 0 -4.433594 -3.566406 -8 -8 -8 z m 0 42 c 1.65625 0 3 1.34375 3 3 s -1.34375 3 -3 3 s -3 -1.34375 -3 -3 s 1.34375 -3 3 -3 z m 0 0"
     fill="#9a9996"
     id="path63" />
  <path
     d="m 56 68 c -4.433594 0 -8 3.566406 -8 8 v 38 c 0 4.433594 3.566406 8 8 8 s 8 -3.566406 8 -8 v -38 c 0 -4.433594 -3.566406 -8 -8 -8 z m 0 42 c 1.65625 0 3 1.34375 3 3 s -1.34375 3 -3 3 s -3 -1.34375 -3 -3 s 1.34375 -3 3 -3 z m 0 0"
     fill="#deddda"
     id="path64" />
  <path
     d="m 56 76 c 2.210938 0 4 1.789062 4 4 v 18 c 0 2.210938 -1.789062 4 -4 4 s -4 -1.789062 -4 -4 v -18 c 0 -2.210938 1.789062 -4 4 -4 z m 0 0"
     fill="#a7a6a4"
     id="path65" />
</svg>
