<?xml version="1.0" encoding="UTF-8" standalone="no"?>
<svg
   height="128px"
   viewBox="0 0 128 128"
   width="128px"
   version="1.1"
   id="svg114"
   xml:space="preserve"
   xmlns:xlink="http://www.w3.org/1999/xlink"
   xmlns="http://www.w3.org/2000/svg"
   xmlns:svg="http://www.w3.org/2000/svg"><defs
     id="defs114"><linearGradient
       xlink:href="#linearGradient51600"
       id="linearGradient71668"
       gradientUnits="userSpaceOnUse"
       gradientTransform="matrix(1.5,0,0,1.5555555,-66,110.88919)"
       x1="81"
       y1="47"
       x2="81"
       y2="65" /><linearGradient
       id="linearGradient51600"><stop
         style="stop-color:#c0bfbc;stop-opacity:1;"
         offset="0"
         id="stop51596" /><stop
         style="stop-color:#deddda;stop-opacity:1"
         offset="0.5"
         id="stop51756" /><stop
         style="stop-color:#9a9996;stop-opacity:1"
         offset="1"
         id="stop51598" /></linearGradient><linearGradient
       xlink:href="#linearGradient51600"
       id="linearGradient152898"
       gradientUnits="userSpaceOnUse"
       gradientTransform="matrix(0.83333393,0,0,0.82142859,5.333274,26.571441)"
       x1="92"
       y1="244"
       x2="104"
       y2="244" /><linearGradient
       xlink:href="#linearGradient307870"
       id="linearGradient71670"
       gradientUnits="userSpaceOnUse"
       gradientTransform="matrix(1.5,0,0,0.92857134,-60,21.428621)"
       x1="92"
       y1="244"
       x2="104"
       y2="244" /><linearGradient
       id="linearGradient307870"><stop
         style="stop-color:#ff7800;stop-opacity:1"
         offset="0"
         id="stop307862" /><stop
         style="stop-color:#ffa348;stop-opacity:1"
         offset="0.25"
         id="stop307864" /><stop
         style="stop-color:#ff7800;stop-opacity:1"
         offset="0.75"
         id="stop307866" /><stop
         style="stop-color:#c64600;stop-opacity:1"
         offset="1"
         id="stop307868" /></linearGradient></defs><linearGradient
     id="a"
     gradientUnits="userSpaceOnUse"
     x1="12.000015"
     x2="116.000015"
     y1="124.035328"
     y2="124.035328"><stop
       offset="0"
       stop-color="#1a5fb4"
       id="stop1" /><stop
       offset="0.04"
       stop-color="#5f9ce8"
       id="stop2" /><stop
       offset="0.08"
       stop-color="#3582e3"
       id="stop3" /><stop
       offset="0.92"
       stop-color="#3483e3"
       id="stop4" /><stop
       offset="0.96"
       stop-color="#609ee8"
       id="stop5" /><stop
       offset="1"
       stop-color="#1a5fb5"
       id="stop6" /></linearGradient><linearGradient
     id="b"
     gradientUnits="userSpaceOnUse"
     x1="18.000023"
     x2="110.000031"
     y1="50.035328"
     y2="50.035328"><stop
       offset="0"
       stop-color="#1a5fb4"
       id="stop7" /><stop
       offset="0.0834497"
       stop-color="#3584e4"
       id="stop8" /><stop
       offset="0.338668"
       stop-color="#468de6"
       id="stop9" /><stop
       offset="0.661298"
       stop-color="#468de6"
       id="stop10" /><stop
       offset="0.919584"
       stop-color="#3584e4"
       id="stop11" /><stop
       offset="1"
       stop-color="#3584e4"
       id="stop12" /></linearGradient><linearGradient
     id="c"
     gradientUnits="userSpaceOnUse"><stop
       offset="0"
       stop-color="#c01c28"
       id="stop13" /><stop
       offset="0.5"
       stop-color="#ed333b"
       id="stop14" /><stop
       offset="1"
       stop-color="#e01b24"
       id="stop15" /></linearGradient><linearGradient
     id="d"
     gradientTransform="matrix(1.197118,-0.805795,0.805795,1.197118,-145.0146,-177.75323)"
     x1="23"
     x2="23"
     xlink:href="#c"
     y1="238"
     y2="222" /><radialGradient
     id="e"
     cx="28"
     cy="229.944962"
     gradientTransform="matrix(-0.626729,-0.931092,0.931092,-0.626729,-113.93512,239.29636)"
     gradientUnits="userSpaceOnUse"
     r="12"><stop
       offset="0"
       stop-color="#a51d2d"
       id="stop16" /><stop
       offset="0.7"
       stop-color="#b21c2a"
       stop-opacity="0.72549"
       id="stop17" /><stop
       offset="1"
       stop-color="#c01c28"
       stop-opacity="0"
       id="stop18" /></radialGradient><linearGradient
     id="f"
     gradientTransform="matrix(-0.402897 -0.598559 0.598559 -0.402897 -40.977825 176.658416)"
     x1="16"
     x2="40"
     xlink:href="#c"
     y1="232"
     y2="232" /><linearGradient
     id="g"
     gradientTransform="matrix(-0.947719 0.637921 1.074393 1.596158 -92.267892 -346.62)"
     gradientUnits="userSpaceOnUse"
     x1="46"
     x2="46"
     y1="232"
     y2="228"><stop
       offset="0"
       stop-color="#9a9996"
       id="stop19" /><stop
       offset="0.5"
       stop-color="#ffffff"
       id="stop20" /><stop
       offset="1"
       stop-color="#c0bfbc"
       id="stop21" /></linearGradient><clipPath
     id="h"><path
       d="m 46 64 h 23 v 34 h -23 z m 0 0"
       id="path21" /></clipPath><clipPath
     id="i"><path
       d="m 48.300781 92.210938 c 3.558594 5.289062 10.730469 6.691406 16.023438 3.132812 l 17.554687 -11.820312 c 1.765625 -1.1875 2.230469 -3.578126 1.042969 -5.339844 c -0.589844 -0.882813 -0.359375 -2.078125 0.523437 -2.671875 l 5.585938 -3.757813 c 0.882812 -0.59375 2.078125 -0.363281 2.671875 0.519532 c 1.1875 1.761718 3.578125 2.230468 5.339844 1.042968 l 1.597656 -1.074218 l -12.894531 -19.152344 l -1.59375 1.074218 c -1.765625 1.1875 -2.230469 3.578126 -1.046875 5.339844 c 0.59375 0.882813 0.363281 2.078125 -0.519531 2.671875 l -5.585938 3.761719 c -0.882812 0.589844 -2.078125 0.359375 -2.671875 -0.523438 c -1.1875 -1.761718 -3.578125 -2.230468 -5.339844 -1.042968 l -17.558593 11.816406 c -5.289063 3.5625 -6.691407 10.734375 -3.128907 16.023438 z m 0 0"
       id="path22" /></clipPath><path
     d="m 20 12.035156 h 88 c 4.417969 0 8 3.582032 8 8 v 88 c 0 4.417969 -3.582031 8 -8 8 h -88 c -4.417969 0 -8 -3.582031 -8 -8 v -88 c 0 -4.417968 3.582031 -8 8 -8 z m 0 0"
     fill="url(#a)"
     id="path23" /><path
     d="m 20 12.035156 h 88 c 4.417969 0 8 3.582032 8 8 v 60 c 0 4.417969 -3.582031 8 -8 8 h -88 c -4.417969 0 -8 -3.582031 -8 -8 v -60 c 0 -4.417968 3.582031 -8 8 -8 z m 0 0"
     fill="#1c71d8"
     id="path24" /><path
     d="m 20 18.035156 h 88 c 1.105469 0 2 0.894532 2 2 v 60 c 0 1.105469 -0.894531 2 -2 2 h -88 c -1.105469 0 -2 -0.894531 -2 -2 v -60 c 0 -1.105468 0.894531 -2 2 -2 z m 0 0"
     fill="url(#b)"
     id="path25" /><path
     d="m 20 42.039062 h 88 c 1.105469 0 2 0.894532 2 2 v 36 c 0 1.105469 -0.894531 2 -2 2 h -88 c -1.105469 0 -2 -0.894531 -2 -2 v -36 c 0 -1.105468 0.894531 -2 2 -2 z m 0 0"
     fill="#1a5fb4"
     id="path26" /><g
     fill="#0e315b"
     stroke="#0e315b"
     stroke-width="0.2"
     id="g29"
     style="opacity:0.4"><path
       d="m 61.0625 112.257812 c 1.136719 -0.03125 2.109375 -0.824218 2.371094 -1.929687 l 4.34375 -16.332031 c 0.140625 -0.535157 0.027344 -1.101563 -0.308594 -1.542969 c -0.339843 -0.4375 -0.859375 -0.691406 -1.410156 -0.691406 c -1.066406 0.027343 -1.972656 0.777343 -2.203125 1.8125 l -4.25 16.808593 c -0.113281 0.449219 -0.015625 0.925782 0.269531 1.292969 c 0.285157 0.367188 0.722657 0.582031 1.1875 0.582031 z m 0 0"
       id="path27" /><path
       d="m 71.242188 107.738281 l 6.21875 -3.125 c 0.972656 -0.488281 1.589844 -1.484375 1.589844 -2.574219 c 0 -1.003906 -0.554688 -1.925781 -1.441407 -2.398437 l -6.277343 -3.339844 c -0.578125 -0.308594 -1.277344 -0.289062 -1.839844 0.050781 c -0.5625 0.335938 -0.90625 0.945313 -0.90625 1.601563 v 0.007812 c 0 0.851563 0.480469 1.628907 1.246094 2.007813 l 4.5625 2.261719 l -4.738282 2.195312 c -0.652343 0.300781 -1.070312 0.953125 -1.070312 1.675781 c 0 0.632813 0.328125 1.226563 0.871094 1.558594 c 0.539062 0.335938 1.214843 0.363281 1.785156 0.078125 z m 0 0"
       id="path28" /><path
       d="m 56.152344 107.738281 l -6.21875 -3.125 c -0.972656 -0.488281 -1.585937 -1.484375 -1.585937 -2.574219 c 0 -1.003906 0.550781 -1.925781 1.4375 -2.398437 l 6.277343 -3.339844 c 0.578125 -0.308594 1.277344 -0.289062 1.839844 0.050781 c 0.5625 0.335938 0.90625 0.945313 0.90625 1.601563 v 0.007812 c 0 0.851563 -0.480469 1.628907 -1.246094 2.007813 l -4.558593 2.261719 l 4.734375 2.195312 c 0.652343 0.300781 1.070312 0.953125 1.070312 1.675781 c 0 0.632813 -0.328125 1.226563 -0.871094 1.558594 c -0.539062 0.335938 -1.214843 0.363281 -1.785156 0.078125 z m 0 0"
       id="path29" /></g><path
     d="M 18,31.851562 V 20.21875 c -1.953125,1.339844 -3.117188,3.503906 -3.121094,5.816406 0.0039,2.3125 1.167969,4.476563 3.121094,5.816406 z m 0,0"
     fill="#1b5baf"
     id="path30" /><path
     d="M 90.4375,12.035156 H 57.164062 c -3.210937,1.550782 -4.972656,3.503906 -4.984374,5.523438 0.01953,0.160156 0.04687,0.316406 0.08594,0.476562 h 43.039063 c 0.03906,-0.160156 0.07031,-0.316406 0.08594,-0.476562 0,-2.015625 -1.753906,-3.96875 -4.953125,-5.523438 z m 0,0"
     fill="#1b5baf"
     id="path31" /><path
     d="m 48.585938,72.871094 c 0,3.625 -5.804688,6.566406 -12.96875,6.566406 -7.164063,0 -12.96875,-2.941406 -12.96875,-6.566406 0,-3.628906 5.804687,-6.566406 12.96875,-6.566406 7.164062,0 12.96875,2.9375 12.96875,6.566406 z m 0,0"
     fill="#15498c"
     id="path32" /><path
     d="m 21.886719,24.867188 62.878906,-11.84375 c 2.894531,-0.546876 5.671875,1.074218 6.207031,3.621093 l 8.726563,41.496094 c 0.535161,2.546875 -1.378907,5.054687 -4.273438,5.597656 l -62.875,11.84375 C 29.65625,76.128906 26.875,74.507812 26.339844,71.960938 L 17.617188,30.464844 c -0.535157,-2.546875 1.375,-5.054688 4.269531,-5.597656 z m 0,0"
     fill="#5e5c64"
     id="path33" /><path
     d="m 21.109375,21.15625 62.875,-11.84375 c 2.894531,-0.546875 5.683594,1.125 6.234375,3.734375 l 8.933594,42.507813 c 0.550781,2.609374 -1.351563,5.164062 -4.246094,5.710937 L 32.027344,73.109375 C 29.136719,73.65625 26.34375,71.980469 25.796875,69.375 l -8.9375,-42.507812 c -0.546875,-2.609376 1.355469,-5.167969 4.25,-5.710938 z m 0,0"
     fill="#9a9996"
     id="path34"
     style="fill:#82817d;fill-opacity:1" /><path
     d="M 22.871094,32.398438 26.644531,31.6875 c 1.128907,-0.214844 2.160157,0.167969 2.304688,0.851562 0.140625,0.683594 -0.65625,1.410157 -1.785157,1.621094 l -3.769531,0.710938 c -1.132812,0.210937 -2.164062,-0.167969 -2.304687,-0.851563 -0.144532,-0.683593 0.652344,-1.410156 1.78125,-1.621093 z m 0,0"
     id="path35" /><path
     d="m 22.53125,31.175781 3.929688,-0.742187 c 1.085937,-0.203125 2.113281,0.324218 2.292968,1.175781 0.179688,0.855469 -0.554687,1.714844 -1.640625,1.917969 l -3.929687,0.738281 c -1.085938,0.207031 -2.109375,-0.320313 -2.289063,-1.175781 -0.179687,-0.851563 0.554688,-1.710938 1.636719,-1.914063 z m 0,0"
     fill="#36343d"
     id="path36" /><path
     d="m 31.960938,30.683594 3.929687,-0.738282 c 1.085937,-0.207031 2.082031,0.183594 2.226563,0.867188 0.144531,0.683594 -0.621094,1.402344 -1.703126,1.605469 l -3.929687,0.742187 c -1.085937,0.203125 -2.082031,-0.183594 -2.226563,-0.867187 -0.144531,-0.683594 0.621094,-1.402344 1.703126,-1.609375 z m 0,0"
     id="path37" /><path
     d="m 31.703125,29.449219 3.929687,-0.742188 c 1.085938,-0.203125 2.109376,0.324219 2.289063,1.175781 0.179687,0.855469 -0.554687,1.710938 -1.640625,1.917969 l -3.929688,0.738281 c -1.085937,0.207032 -2.109374,-0.320312 -2.289062,-1.175781 -0.179688,-0.851562 0.554688,-1.710937 1.640625,-1.914062 z m 0,0"
     fill="#36343d"
     id="path38" /><path
     d="M 41.132812,28.957031 45.0625,28.21875 c 1.085938,-0.207031 2.082031,0.183594 2.226562,0.863281 0.140626,0.683594 -0.621093,1.40625 -1.707031,1.609375 l -3.929687,0.738282 c -1.085938,0.207031 -2.082032,-0.183594 -2.226563,-0.867188 -0.140625,-0.679688 0.621094,-1.402344 1.707031,-1.605469 z m 0,0"
     id="path39" /><path
     d="m 40.871094,27.71875 3.929687,-0.738281 c 1.085938,-0.203125 2.113281,0.320312 2.292969,1.175781 0.179688,0.855469 -0.554688,1.710938 -1.640625,1.917969 L 41.523438,30.8125 C 40.4375,31.015625 39.410156,30.492188 39.230469,29.636719 39.054688,28.78125 39.785156,27.925781 40.871094,27.71875 Z m 0,0"
     fill="#36343d"
     id="path40" /><path
     d="m 50.300781,27.230469 3.929688,-0.742188 c 1.085937,-0.203125 2.082031,0.183594 2.226562,0.867188 0.144531,0.683593 -0.621093,1.402343 -1.707031,1.609375 l -3.929688,0.738281 c -1.082031,0.207031 -2.078124,-0.183594 -2.222656,-0.867187 -0.144531,-0.683594 0.621094,-1.402344 1.703125,-1.605469 z m 0,0"
     id="path41" /><path
     d="m 50.042969,25.992188 3.929687,-0.738282 c 1.085938,-0.207031 2.109375,0.320313 2.289063,1.175782 0.179687,0.851562 -0.554688,1.710937 -1.640625,1.914062 l -3.929688,0.742188 c -1.085937,0.203124 -2.109375,-0.324219 -2.289062,-1.175782 -0.179688,-0.855468 0.554687,-1.710937 1.640625,-1.917968 z m 0,0"
     fill="#36343d"
     id="path42" /><path
     d="m 59.472656,25.503906 3.929688,-0.742187 c 1.085937,-0.203125 2.082031,0.183593 2.222656,0.867187 0.144531,0.683594 -0.617188,1.402344 -1.703125,1.609375 l -3.929687,0.738281 C 58.90625,28.179688 57.910156,27.792969 57.765625,27.109375 57.625,26.425781 58.386719,25.707031 59.472656,25.503906 Z m 0,0"
     id="path43" /><path
     d="m 59.210938,24.265625 3.929687,-0.738281 c 1.085937,-0.207032 2.113281,0.320312 2.289063,1.175781 0.179687,0.851563 -0.554688,1.710937 -1.636719,1.914063 l -3.929688,0.742187 C 58.777344,27.5625 57.75,27.035156 57.570312,26.183594 57.390625,25.328125 58.125,24.46875 59.210938,24.265625 Z m 0,0"
     fill="#36343d"
     id="path44" /><path
     d="M 73.882812,22.789062 77.8125,22.046875 c 1.082031,-0.203125 2.078125,0.183594 2.222656,0.867187 0.144532,0.683594 -0.617187,1.402344 -1.703125,1.609376 l -3.929687,0.738281 c -1.085938,0.207031 -2.082032,-0.183594 -2.226563,-0.867188 -0.144531,-0.683593 0.621094,-1.402343 1.707031,-1.605469 z m 0,0"
     id="path45" /><path
     d="M 73.621094,21.550781 77.550781,20.8125 c 1.085938,-0.207031 2.109375,0.320312 2.289063,1.175781 0.179687,0.851563 -0.554688,1.710938 -1.640625,1.914063 l -3.929688,0.742187 c -1.082031,0.203125 -2.109375,-0.324219 -2.289062,-1.175781 -0.179688,-0.855469 0.554687,-1.710938 1.640625,-1.917969 z m 0,0"
     fill="#36343d"
     id="path46" /><path
     d="m 83.050781,21.0625 3.929688,-0.742188 c 1.085937,-0.203124 2.082031,0.183594 2.226562,0.867188 0.140625,0.683594 -0.621093,1.402344 -1.707031,1.609375 l -3.929688,0.738281 c -1.085937,0.203125 -2.082031,-0.183594 -2.222656,-0.867187 -0.144531,-0.683594 0.617188,-1.402344 1.703125,-1.605469 z m 0,0"
     id="path47" /><path
     d="m 82.789062,19.824219 3.933594,-0.738281 c 1.082032,-0.207032 2.109375,0.320312 2.289063,1.175781 0.179687,0.851562 -0.554688,1.710937 -1.640625,1.914062 l -3.929688,0.742188 c -1.085937,0.203125 -2.109375,-0.324219 -2.289062,-1.175781 -0.179688,-0.855469 0.554687,-1.714844 1.636718,-1.917969 z m 0,0"
     fill="#36343d"
     id="path48" /><path
     d="m 32.996094,35.597656 3.929687,-0.742187 c 1.085938,-0.203125 2.140625,0.460937 2.355469,1.484375 l 0.777344,3.710937 c 0.21875,1.027344 -0.488282,2.023438 -1.574219,2.226563 l -3.929687,0.742187 C 33.46875,43.222656 32.414062,42.558594 32.199219,41.53125 l -0.777344,-3.710938 c -0.21875,-1.023437 0.488281,-2.019531 1.574219,-2.222656 z m 0,0"
     id="path49" /><path
     d="m 32.996094,35.597656 3.929687,-0.742187 c 1.085938,-0.203125 2.140625,0.460937 2.355469,1.484375 l 0.648438,3.09375 c 0.214843,1.023437 -0.488282,2.023437 -1.574219,2.226562 l -3.929688,0.738282 C 33.339844,42.605469 32.285156,41.9375 32.070312,40.914062 l -0.648437,-3.09375 c -0.21875,-1.023437 0.488281,-2.019531 1.574219,-2.222656 z m 0,0"
     fill="#36343d"
     id="path50" /><path
     d="m 42.164062,33.867188 3.929688,-0.738282 c 1.085938,-0.203125 2.140625,0.460938 2.355469,1.484375 l 0.78125,3.710938 c 0.214843,1.027343 -0.492188,2.023437 -1.574219,2.226562 l -3.929688,0.742188 c -1.085937,0.203125 -2.140624,-0.460938 -2.355468,-1.488281 L 40.589844,36.09375 C 40.375,35.070312 41.078125,34.074219 42.164062,33.867188 Z m 0,0"
     id="path51" /><path
     d="m 42.164062,33.867188 3.929688,-0.738282 c 1.085938,-0.203125 2.140625,0.460938 2.355469,1.484375 l 0.652343,3.09375 c 0.214844,1.023438 -0.492187,2.019531 -1.578124,2.226563 L 43.59375,40.671875 C 42.511719,40.878906 41.457031,40.210938 41.238281,39.1875 L 40.589844,36.09375 C 40.375,35.070312 41.078125,34.074219 42.164062,33.867188 Z m 0,0"
     fill="#36343d"
     id="path52" /><path
     d="m 51.335938,32.140625 3.929687,-0.738281 c 1.082031,-0.207032 2.136719,0.460937 2.355469,1.484375 l 0.777344,3.710937 c 0.214843,1.023438 -0.488282,2.023438 -1.574219,2.226563 L 52.894531,39.5625 c -1.085937,0.207031 -2.140625,-0.460938 -2.355469,-1.484375 l -0.78125,-3.710937 C 49.542969,33.34375 50.25,32.347656 51.335938,32.140625 Z m 0,0"
     id="path53" /><path
     d="m 51.335938,32.140625 3.929687,-0.738281 c 1.082031,-0.207032 2.136719,0.460937 2.355469,1.484375 l 0.648437,3.09375 C 58.484375,37.003906 57.78125,38 56.695312,38.207031 l -3.929687,0.738281 C 51.679688,39.148438 50.625,38.484375 50.410156,37.460938 l -0.652344,-3.09375 C 49.542969,33.34375 50.25,32.347656 51.335938,32.140625 Z m 0,0"
     fill="#36343d"
     id="path54" /><path
     d="m 60.503906,30.414062 3.929688,-0.738281 c 1.085937,-0.207031 2.140625,0.460938 2.355468,1.484375 l 0.78125,3.710938 c 0.214844,1.023437 -0.492187,2.019531 -1.574218,2.226562 L 62.0625,37.835938 C 60.980469,38.042969 59.925781,37.375 59.710938,36.351562 l -0.78125,-3.710937 c -0.214844,-1.023437 0.488281,-2.023437 1.574218,-2.226563 z m 0,0"
     id="path55" /><path
     d="m 60.503906,30.414062 3.929688,-0.738281 c 1.085937,-0.207031 2.140625,0.460938 2.355468,1.484375 l 0.648438,3.09375 c 0.21875,1.023438 -0.488281,2.019532 -1.574219,2.222656 l -3.929687,0.742188 c -1.085938,0.203125 -2.140625,-0.460938 -2.355469,-1.484375 l -0.648437,-3.09375 c -0.214844,-1.023437 0.488281,-2.023437 1.574218,-2.226563 z m 0,0"
     fill="#36343d"
     id="path56" /><path
     d="m 23.824219,37.324219 3.929687,-0.742188 c 1.085938,-0.203125 2.140625,0.460938 2.355469,1.488281 l 0.78125,3.710938 c 0.214844,1.023438 -0.488281,2.019531 -1.574219,2.222656 l -3.929687,0.742188 C 24.300781,44.949219 23.246094,44.285156 23.03125,43.261719 L 22.25,39.550781 c -0.214844,-1.027343 0.492188,-2.023437 1.574219,-2.226562 z m 0,0"
     id="path57" /><path
     d="m 23.824219,37.324219 3.929687,-0.742188 c 1.085938,-0.203125 2.140625,0.460938 2.355469,1.488281 l 0.652344,3.089844 c 0.214843,1.027344 -0.492188,2.023438 -1.578125,2.226563 l -3.929688,0.742187 c -1.082031,0.203125 -2.136718,-0.460937 -2.351562,-1.488281 L 22.25,39.550781 c -0.214844,-1.027343 0.492188,-2.023437 1.574219,-2.226562 z m 0,0"
     fill="#36343d"
     id="path58" /><path
     d="m 69.675781,28.6875 3.929688,-0.742188 c 1.082031,-0.203124 2.136719,0.460938 2.351562,1.488282 l 0.78125,3.710937 c 0.214844,1.023438 -0.488281,2.019531 -1.574219,2.222657 l -3.929687,0.742187 C 70.148438,36.3125 69.09375,35.648438 68.878906,34.625 l -0.78125,-3.710938 c -0.214844,-1.027343 0.492188,-2.023437 1.578125,-2.226562 z m 0,0"
     id="path59" /><path
     d="m 69.675781,28.6875 3.929688,-0.742188 c 1.082031,-0.203124 2.136719,0.460938 2.351562,1.488282 l 0.652344,3.089844 c 0.214844,1.027343 -0.488281,2.023437 -1.574219,2.226562 l -3.929687,0.742188 C 70.019531,35.695312 68.964844,35.03125 68.75,34.003906 l -0.652344,-3.089844 c -0.214844,-1.027343 0.492188,-2.023437 1.578125,-2.226562 z m 0,0"
     fill="#36343d"
     id="path60" /><path
     d="m 78.84375,26.960938 9.167969,-1.726563 c 1.085937,-0.207031 2.140625,0.460937 2.355469,1.484375 l 0.78125,3.710938 c 0.214843,1.023437 -0.488282,2.019531 -1.574219,2.226562 l -9.171875,1.726562 c -1.082032,0.203126 -2.136719,-0.460937 -2.355469,-1.484374 L 77.269531,29.1875 c -0.214843,-1.027344 0.488281,-2.023438 1.574219,-2.226562 z m 0,0"
     id="path61" /><path
     d="m 78.84375,26.960938 9.167969,-1.726563 c 1.085937,-0.207031 2.140625,0.460937 2.355469,1.484375 l 0.652343,3.09375 c 0.214844,1.023438 -0.492187,2.019531 -1.574219,2.222656 l -9.171874,1.726563 C 79.1875,33.96875 78.132812,33.304688 77.917969,32.277344 L 77.269531,29.1875 c -0.214843,-1.027344 0.488281,-2.023438 1.574219,-2.226562 z m 0,0"
     fill="#36343d"
     id="path62" /><path
     d="m 25.652344,46.019531 9.171875,-1.726562 c 1.085937,-0.207031 2.136719,0.460937 2.355469,1.484375 l 0.777343,3.710937 c 0.214844,1.023438 -0.488281,2.019531 -1.574219,2.226563 l -9.167968,1.726562 c -1.085938,0.203125 -2.140625,-0.460937 -2.355469,-1.484375 l -0.78125,-3.710937 c -0.214844,-1.027344 0.488281,-2.023438 1.574219,-2.226563 z m 0,0"
     id="path63" /><path
     d="m 25.652344,46.019531 9.171875,-1.726562 c 1.082031,-0.207031 2.136719,0.460937 2.355469,1.484375 l 0.648437,3.09375 c 0.214844,1.023437 -0.488281,2.019531 -1.574219,2.222656 l -9.171875,1.730469 C 26,53.027344 24.945312,52.363281 24.726562,51.335938 l -0.648437,-3.089844 c -0.214844,-1.027344 0.488281,-2.023438 1.574219,-2.226563 z m 0,0"
     fill="#36343d"
     id="path64" /><path
     d="M 40.0625,43.304688 43.992188,42.5625 c 1.085937,-0.203125 2.140624,0.460938 2.355468,1.488281 l 0.78125,3.710938 c 0.214844,1.023437 -0.492187,2.019531 -1.574218,2.226562 l -3.933594,0.738281 c -1.082032,0.203126 -2.136719,-0.460937 -2.351563,-1.484374 l -0.78125,-3.710938 c -0.214843,-1.027344 0.488281,-2.023438 1.574219,-2.226562 z m 0,0"
     id="path65" /><path
     d="M 40.0625,43.304688 43.992188,42.5625 c 1.085937,-0.203125 2.140624,0.460938 2.355468,1.488281 l 0.648438,3.089844 c 0.21875,1.027344 -0.488282,2.023437 -1.574219,2.226563 l -3.929687,0.742187 C 40.40625,50.3125 39.351562,49.648438 39.136719,48.621094 L 38.488281,45.53125 c -0.214843,-1.027344 0.488281,-2.023438 1.574219,-2.226562 z m 0,0"
     fill="#36343d"
     id="path66" /><path
     d="m 49.234375,41.578125 3.929687,-0.742187 c 1.082032,-0.203126 2.136719,0.460937 2.351563,1.488281 l 0.78125,3.710937 c 0.214844,1.023438 -0.488281,2.019532 -1.574219,2.222656 L 50.792969,49 C 49.707031,49.203125 48.652344,48.539062 48.4375,47.515625 l -0.78125,-3.710937 c -0.214844,-1.027344 0.492188,-2.023438 1.578125,-2.226563 z m 0,0"
     id="path67" /><path
     d="m 49.234375,41.578125 3.929687,-0.742187 c 1.082032,-0.203126 2.136719,0.460937 2.351563,1.488281 l 0.652344,3.089843 c 0.214843,1.027344 -0.488281,2.023438 -1.574219,2.226563 l -3.929688,0.742187 c -1.085937,0.203126 -2.140624,-0.460937 -2.355468,-1.488281 L 47.65625,43.804688 c -0.214844,-1.027344 0.492188,-2.023438 1.578125,-2.226563 z m 0,0"
     fill="#36343d"
     id="path68" /><path
     d="m 58.402344,39.851562 3.929687,-0.742187 c 1.085938,-0.203125 2.140625,0.460937 2.355469,1.484375 l 0.78125,3.710938 c 0.214844,1.027343 -0.492188,2.023437 -1.578125,2.226562 l -3.929687,0.742188 C 58.878906,47.476562 57.824219,46.8125 57.605469,45.785156 l -0.777344,-3.710937 c -0.214844,-1.023438 0.488281,-2.019531 1.574219,-2.222657 z m 0,0"
     id="path69" /><path
     d="m 58.402344,39.851562 3.929687,-0.742187 c 1.085938,-0.203125 2.140625,0.460937 2.355469,1.484375 l 0.648438,3.09375 c 0.214843,1.023438 -0.488282,2.023438 -1.574219,2.226562 l -3.929688,0.738282 c -1.085937,0.207031 -2.140625,-0.460938 -2.355469,-1.484375 l -0.648437,-3.09375 c -0.214844,-1.023438 0.488281,-2.019531 1.574219,-2.222657 z m 0,0"
     fill="#36343d"
     id="path70" /><path
     d="M 67.570312,38.121094 71.5,37.382812 c 1.085938,-0.203124 2.140625,0.460938 2.355469,1.484376 l 0.78125,3.710937 c 0.214843,1.027344 -0.488281,2.023437 -1.574219,2.226563 l -3.929688,0.742187 C 68.046875,45.75 66.992188,45.085938 66.777344,44.058594 l -0.78125,-3.710938 c -0.214844,-1.023437 0.492187,-2.019531 1.574218,-2.226562 z m 0,0"
     id="path71" /><path
     d="M 67.570312,38.121094 71.5,37.382812 c 1.085938,-0.203124 2.140625,0.460938 2.355469,1.484376 l 0.652343,3.09375 c 0.214844,1.023437 -0.492187,2.019531 -1.574218,2.226562 l -3.929688,0.738281 c -1.085937,0.203125 -2.140625,-0.460937 -2.355468,-1.484375 l -0.652344,-3.09375 c -0.214844,-1.023437 0.492187,-2.019531 1.574218,-2.226562 z m 0,0"
     fill="#36343d"
     id="path72" /><path
     d="m 76.742188,36.394531 3.929687,-0.738281 c 1.085937,-0.207031 2.140625,0.460938 2.355469,1.484375 l 0.777344,3.710937 c 0.21875,1.023438 -0.488282,2.019532 -1.574219,2.226563 l -3.929688,0.738281 c -1.085937,0.207032 -2.136719,-0.460937 -2.355469,-1.484375 l -0.777343,-3.710937 c -0.214844,-1.023438 0.488281,-2.019532 1.574219,-2.226563 z m 0,0"
     id="path73" /><path
     d="m 76.742188,36.394531 3.929687,-0.738281 c 1.085937,-0.207031 2.140625,0.460938 2.355469,1.484375 l 0.648437,3.09375 c 0.214844,1.023437 -0.488281,2.019531 -1.574219,2.222656 l -3.929687,0.742188 c -1.085937,0.203125 -2.140625,-0.460938 -2.355469,-1.484375 l -0.648437,-3.09375 c -0.214844,-1.023438 0.488281,-2.019532 1.574219,-2.226563 z m 0,0"
     fill="#36343d"
     id="path74" /><path
     d="m 36.644531,52.949219 3.929688,-0.738281 c 1.085937,-0.203126 2.136719,0.460937 2.355469,1.484374 l 0.777343,3.710938 c 0.214844,1.023438 -0.488281,2.023438 -1.574219,2.226562 l -3.929687,0.738282 C 37.117188,60.578125 36.0625,59.910156 35.847656,58.886719 l -0.777344,-3.710938 c -0.21875,-1.023437 0.488282,-2.019531 1.574219,-2.226562 z m 0,0"
     id="path75" /><path
     d="m 36.644531,52.949219 3.929688,-0.738281 c 1.085937,-0.203126 2.136719,0.460937 2.355469,1.484374 l 0.648437,3.09375 c 0.214844,1.023438 -0.488281,2.019532 -1.574219,2.226563 l -3.929687,0.738281 c -1.085938,0.203125 -2.140625,-0.460937 -2.355469,-1.484375 l -0.648438,-3.09375 c -0.21875,-1.023437 0.488282,-2.019531 1.574219,-2.226562 z m 0,0"
     fill="#36343d"
     id="path76" /><path
     d="m 45.8125,51.222656 3.929688,-0.738281 c 1.085937,-0.207031 2.140624,0.460937 2.355468,1.484375 l 0.78125,3.710938 c 0.214844,1.023437 -0.492187,2.019531 -1.574218,2.226562 L 47.375,58.644531 c -1.085938,0.207031 -2.140625,-0.460937 -2.355469,-1.484375 l -0.78125,-3.710937 c -0.214843,-1.023438 0.488281,-2.019531 1.574219,-2.226563 z m 0,0"
     id="path77" /><path
     d="m 45.8125,51.222656 3.929688,-0.738281 c 1.085937,-0.207031 2.140624,0.460937 2.355468,1.484375 l 0.648438,3.09375 c 0.21875,1.023438 -0.488282,2.019531 -1.574219,2.222656 l -3.929687,0.742188 c -1.085938,0.203125 -2.136719,-0.460938 -2.355469,-1.484375 l -0.648438,-3.09375 c -0.214843,-1.023438 0.488281,-2.019531 1.574219,-2.226563 z m 0,0"
     fill="#36343d"
     id="path78" /><path
     d="m 54.984375,49.496094 3.929687,-0.738282 c 1.082032,-0.207031 2.136719,0.457032 2.351563,1.484376 l 0.78125,3.710937 c 0.214844,1.023437 -0.488281,2.019531 -1.574219,2.226563 l -3.929687,0.738281 C 55.457031,57.121094 54.402344,56.457031 54.1875,55.433594 l -0.78125,-3.710938 c -0.214844,-1.027344 0.492188,-2.023437 1.578125,-2.226562 z m 0,0"
     id="path79" /><path
     d="m 54.984375,49.496094 3.929687,-0.738282 c 1.082032,-0.207031 2.136719,0.457032 2.351563,1.484376 l 0.652344,3.089843 c 0.214843,1.027344 -0.488281,2.023438 -1.574219,2.226563 l -3.929688,0.742187 C 55.328125,56.503906 54.273438,55.839844 54.058594,54.8125 L 53.40625,51.722656 c -0.214844,-1.027344 0.492188,-2.023437 1.578125,-2.226562 z m 0,0"
     fill="#36343d"
     id="path80" /><path
     d="m 64.152344,47.769531 3.929687,-0.742187 c 1.085938,-0.203125 2.140625,0.460937 2.355469,1.488281 l 0.78125,3.710937 c 0.214844,1.023438 -0.492188,2.019532 -1.578125,2.222657 l -3.929687,0.742187 c -1.082032,0.203125 -2.136719,-0.460937 -2.351563,-1.484375 l -0.78125,-3.710937 c -0.214844,-1.027344 0.488281,-2.023438 1.574219,-2.226563 z m 0,0"
     id="path81" /><path
     d="m 64.152344,47.769531 3.929687,-0.742187 c 1.085938,-0.203125 2.140625,0.460937 2.355469,1.488281 l 0.648438,3.089844 c 0.214843,1.027343 -0.488282,2.023437 -1.574219,2.226562 l -3.929688,0.742188 c -1.085937,0.203125 -2.140625,-0.460938 -2.355469,-1.488281 l -0.648437,-3.089844 c -0.214844,-1.027344 0.488281,-2.023438 1.574219,-2.226563 z m 0,0"
     fill="#36343d"
     id="path82" /><path
     d="M 27.472656,54.679688 31.402344,53.9375 c 1.085937,-0.203125 2.140625,0.460938 2.355468,1.484375 l 0.78125,3.710937 c 0.214844,1.027344 -0.488281,2.023438 -1.574218,2.226563 l -3.929688,0.742187 c -1.085937,0.203126 -2.140625,-0.460937 -2.355468,-1.488281 l -0.78125,-3.710937 c -0.214844,-1.023438 0.488281,-2.019532 1.574218,-2.222656 z m 0,0"
     id="path83" /><path
     d="M 27.472656,54.679688 31.402344,53.9375 c 1.085937,-0.203125 2.140625,0.460938 2.355468,1.484375 l 0.652344,3.09375 c 0.214844,1.023437 -0.492187,2.019531 -1.578125,2.226563 l -3.929687,0.738281 C 27.820312,61.6875 26.765625,61.019531 26.546875,59.996094 l -0.648437,-3.09375 c -0.214844,-1.023438 0.488281,-2.019532 1.574218,-2.222656 z m 0,0"
     fill="#36343d"
     id="path84" /><path
     d="M 73.320312,46.042969 77.25,45.300781 c 1.085938,-0.203125 2.140625,0.460938 2.355469,1.484375 l 0.78125,3.710938 c 0.214843,1.027344 -0.488281,2.023437 -1.574219,2.226562 l -3.929688,0.742188 c -1.085937,0.203125 -2.140624,-0.460938 -2.355468,-1.488282 l -0.78125,-3.710937 c -0.214844,-1.023437 0.492187,-2.019531 1.574218,-2.222656 z m 0,0"
     id="path85" /><path
     d="M 73.320312,46.042969 77.25,45.300781 c 1.085938,-0.203125 2.140625,0.460938 2.355469,1.484375 l 0.652343,3.09375 c 0.214844,1.023438 -0.492187,2.023438 -1.574218,2.226563 l -3.929688,0.738281 c -1.085937,0.207031 -2.140625,-0.460938 -2.355468,-1.484375 l -0.652344,-3.09375 c -0.214844,-1.023437 0.492187,-2.019531 1.574218,-2.222656 z m 0,0"
     fill="#36343d"
     id="path86" /><path
     d="m 82.492188,44.316406 3.929687,-0.742187 c 1.085937,-0.203125 2.140625,0.460937 2.355469,1.484375 l 0.777344,3.710937 c 0.21875,1.027344 -0.488282,2.023438 -1.574219,2.226563 l -3.929688,0.742187 C 82.964844,51.941406 81.914062,51.277344 81.695312,50.25 l -0.777343,-3.710938 c -0.214844,-1.023437 0.488281,-2.019531 1.574219,-2.222656 z m 0,0"
     id="path87" /><path
     d="m 82.492188,44.316406 3.929687,-0.742187 c 1.085937,-0.203125 2.140625,0.460937 2.355469,1.484375 l 0.648437,3.09375 c 0.214844,1.023437 -0.488281,2.019531 -1.574219,2.226562 l -3.929687,0.738282 C 82.835938,51.324219 81.78125,50.65625 81.566406,49.632812 l -0.648437,-3.09375 c -0.214844,-1.023437 0.488281,-2.019531 1.574219,-2.222656 z m 0,0"
     fill="#36343d"
     id="path88" /><path
     d="m 85.910156,34.667969 3.929688,-0.738281 c 1.085937,-0.207032 2.140625,0.460937 2.355468,1.484374 l 0.78125,3.710938 c 0.214844,1.023438 -0.488281,2.019531 -1.574218,2.226562 l -3.929688,0.738282 c -1.085937,0.203125 -2.140625,-0.460938 -2.355468,-1.484375 l -0.78125,-3.710938 c -0.214844,-1.023437 0.488281,-2.023437 1.574218,-2.226562 z m 0,0"
     id="path89" /><path
     d="m 85.910156,34.667969 3.929688,-0.738281 c 1.085937,-0.207032 2.140625,0.460937 2.355468,1.484374 l 0.652344,3.09375 c 0.214844,1.023438 -0.492187,2.019532 -1.578125,2.222657 l -3.929687,0.742187 c -1.082032,0.203125 -2.136719,-0.460937 -2.351563,-1.484375 l -0.652343,-3.09375 c -0.214844,-1.023437 0.488281,-2.023437 1.574218,-2.226562 z m 0,0"
     fill="#36343d"
     id="path90" /><path
     d="M 90.476562,37.074219 90.5,37.070312 c 1.085938,-0.207031 2.140625,0.460938 2.355469,1.484376 l 2.0625,9.796874 c 0.214843,1.027344 -0.492188,2.023438 -1.578125,2.226563 l -0.02344,0.0078 C 92.230469,50.789062 91.175781,50.125 90.960938,49.097656 l -2.0625,-9.796875 c -0.214844,-1.027343 0.492187,-2.023437 1.578124,-2.226562 z m 0,0"
     id="path91" /><path
     d="M 90.355469,36.503906 90.382812,36.5 c 1.085938,-0.203125 2.136719,0.460938 2.355469,1.484375 l 2.058594,9.800781 c 0.214844,1.023438 -0.488281,2.019532 -1.574219,2.222656 l -0.02734,0.0078 C 92.109375,50.21875 91.054688,49.554688 90.839844,48.527344 L 88.78125,38.730469 c -0.214844,-1.023438 0.488281,-2.019531 1.574219,-2.226563 z m 0,0"
     fill="#36343d"
     id="path92" /><path
     d="m 29.292969,63.335938 9.171875,-1.726563 c 1.085937,-0.203125 2.136718,0.460937 2.355468,1.484375 l 0.777344,3.710938 c 0.214844,1.027343 -0.488281,2.023437 -1.574218,2.226562 l -9.167969,1.726562 C 29.769531,70.964844 28.714844,70.296875 28.5,69.273438 L 27.71875,65.5625 c -0.214844,-1.023438 0.488281,-2.019531 1.574219,-2.226562 z m 0,0"
     id="path93" /><path
     d="m 29.292969,63.335938 9.171875,-1.726563 c 1.082031,-0.203125 2.136718,0.460937 2.351562,1.484375 l 0.652344,3.09375 c 0.214844,1.023438 -0.488281,2.019531 -1.574219,2.226562 l -9.171875,1.726563 C 29.636719,70.34375 28.585938,69.679688 28.367188,68.65625 L 27.71875,65.5625 c -0.214844,-1.023438 0.488281,-2.019531 1.574219,-2.226562 z m 0,0"
     fill="#36343d"
     id="path94" /><path
     d="m 43.703125,60.621094 3.929687,-0.738282 c 1.085938,-0.203124 2.140626,0.460938 2.355469,1.484376 l 0.78125,3.710937 c 0.214844,1.027344 -0.492187,2.023437 -1.574219,2.226563 l -3.933593,0.738281 C 44.179688,68.25 43.125,67.585938 42.910156,66.558594 l -0.78125,-3.710938 c -0.214844,-1.023437 0.488282,-2.019531 1.574219,-2.226562 z m 0,0"
     id="path95" /><path
     d="m 43.703125,60.621094 3.929687,-0.738282 c 1.085938,-0.203124 2.140626,0.460938 2.355469,1.484376 l 0.648438,3.09375 c 0.21875,1.023437 -0.488281,2.019531 -1.574219,2.226562 l -3.929688,0.738281 c -1.085937,0.203125 -2.140624,-0.460937 -2.355468,-1.484375 l -0.648438,-3.09375 c -0.214844,-1.023437 0.488282,-2.019531 1.574219,-2.226562 z m 0,0"
     fill="#36343d"
     id="path96" /><path
     d="m 52.871094,58.894531 3.933594,-0.738281 c 1.082031,-0.207031 2.136718,0.460938 2.351562,1.484375 l 0.78125,3.710937 c 0.214844,1.023438 -0.488281,2.019532 -1.574219,2.226563 l -3.929687,0.738281 c -1.085938,0.207032 -2.140625,-0.460937 -2.355469,-1.484375 l -0.78125,-3.710937 c -0.214844,-1.023438 0.492187,-2.019532 1.574219,-2.226563 z m 0,0"
     id="path97" /><path
     d="m 52.871094,58.894531 3.933594,-0.738281 c 1.082031,-0.207031 2.136718,0.460938 2.351562,1.484375 l 0.652344,3.09375 c 0.214844,1.023437 -0.492188,2.019531 -1.574219,2.222656 l -3.929687,0.742188 c -1.085938,0.203125 -2.140626,-0.460938 -2.355469,-1.484375 l -0.652344,-3.09375 c -0.214844,-1.023438 0.492187,-2.019532 1.574219,-2.226563 z m 0,0"
     fill="#36343d"
     id="path98" /><path
     d="M 62.042969,57.167969 84.3125,52.972656 c 1.085938,-0.203125 2.140625,0.460938 2.355469,1.484375 l 0.777343,3.714844 c 0.21875,1.023437 -0.488281,2.019531 -1.574218,2.222656 l -22.269532,4.195313 c -1.085937,0.203125 -2.136718,-0.460938 -2.355468,-1.484375 L 60.46875,59.394531 c -0.214844,-1.023437 0.488281,-2.023437 1.574219,-2.226562 z m 0,0"
     id="path99" /><path
     d="M 62.042969,57.167969 84.3125,52.972656 c 1.085938,-0.203125 2.140625,0.460938 2.355469,1.484375 l 0.648437,3.09375 c 0.214844,1.027344 -0.488281,2.023438 -1.574218,2.226563 l -22.269532,4.195312 c -1.085937,0.203125 -2.140625,-0.460937 -2.355468,-1.484375 l -0.648438,-3.09375 c -0.214844,-1.023437 0.488281,-2.023437 1.574219,-2.226562 z m 0,0"
     fill="#36343d"
     id="path100" /><path
     d="m 89.550781,51.988281 3.929688,-0.742187 c 1.085937,-0.203125 2.140625,0.460937 2.355469,1.484375 l 0.78125,3.710937 c 0.214843,1.027344 -0.488282,2.023438 -1.574219,2.226563 l -3.929688,0.742187 c -1.085937,0.203125 -2.140625,-0.460937 -2.355469,-1.488281 l -0.78125,-3.710937 c -0.214843,-1.023438 0.488282,-2.019532 1.574219,-2.222657 z m 0,0"
     id="path101" /><path
     d="m 89.550781,51.988281 3.929688,-0.742187 c 1.085937,-0.203125 2.140625,0.460937 2.355469,1.484375 l 0.652343,3.09375 c 0.214844,1.023437 -0.492187,2.019531 -1.578125,2.226562 l -3.929687,0.738281 C 89.898438,58.996094 88.84375,58.328125 88.625,57.304688 l -0.648438,-3.09375 c -0.214843,-1.023438 0.488282,-2.019532 1.574219,-2.222657 z m 0,0"
     fill="#36343d"
     id="path102" /><path
     d="m 75.523438,14.65625 c 0.726562,-0.136719 1.433593,0.308594 1.578124,0.996094 0.144532,0.683594 -0.328124,1.351562 -1.054687,1.488281 -0.726563,0.136719 -1.433594,-0.308594 -1.578125,-0.992187 -0.144531,-0.6875 0.328125,-1.355469 1.054688,-1.492188 z m 0,0"
     fill="#ff7800"
     id="path103" /><path
     d="m 79.496094,13.90625 c 0.730468,-0.136719 1.433594,0.308594 1.578125,0.996094 0.144531,0.6875 -0.328125,1.355468 -1.054688,1.492187 -0.726562,0.136719 -1.433593,-0.308593 -1.578125,-0.996093 -0.144531,-0.6875 0.328125,-1.355469 1.054688,-1.492188 z m 0,0"
     fill="#f6d32d"
     id="path104" /><path
     d="m 110 46.507812 v 7.84375 c 1.152344 1.210938 2.785156 1.90625 4.5 1.910157 c 0.503906 -0.003907 1.007812 -0.070313 1.5 -0.191407 v -11.292968 c -0.492188 -0.121094 -0.996094 -0.179688 -1.5 -0.179688 c -1.714844 0 -3.347656 0.695313 -4.5 1.910156 z m 0 0"
     fill="#1b5baf"
     id="path105" /><g
     id="g176649"
     transform="matrix(0.55250613,-0.55250613,0.55250613,0.55250613,-123.37506,-32.721737)"
     style="display:inline;enable-background:new"><path
       style="fill:#9a9996;fill-opacity:1;stroke:none;stroke-width:1.5px;stroke-linecap:butt;stroke-linejoin:miter;stroke-opacity:1"
       d="m 123.5,205.00031 v -4 l -2.28498,-0.77436 0.0882,4.08569 z"
       id="path71608" /><rect
       style="fill:#9a9996;fill-opacity:1;stroke:none;stroke-width:13.8567;stroke-linecap:round;stroke-dashoffset:26.4;stroke-opacity:1"
       id="rect71610"
       width="18"
       height="16.000624"
       x="63"
       y="190" /><rect
       style="fill:url(#linearGradient71668);fill-opacity:1;stroke:none;stroke-width:16.9706;stroke-linecap:round;stroke-dashoffset:26.4;stroke-opacity:1"
       id="rect71612"
       width="18"
       height="28"
       x="48"
       y="184.00032"
       rx="3"
       ry="3.1111112" /><rect
       style="fill:#9a9996;fill-opacity:1;stroke:none;stroke-width:17.8885;stroke-linecap:round;stroke-dashoffset:26.4;stroke-opacity:1"
       id="rect71614"
       width="30"
       height="23.999992"
       x="72"
       y="186.00031"
       rx="3"
       ry="3" /><path
       style="fill:#9a9996;fill-opacity:1;stroke:none;stroke-width:1.5px;stroke-linecap:butt;stroke-linejoin:miter;stroke-opacity:1"
       d="m 97.5,200.00079 c 10.5,0 18.5,-7.9e-4 23,6.49952 l 3,-1.5 c -2.5,-10.00031 -10.5,-15 -21.5,-15 h -7.5 z"
       id="path212891" /><path
       style="fill:#c0bfbc;fill-opacity:1;stroke:none;stroke-width:1.5px;stroke-linecap:butt;stroke-linejoin:miter;stroke-opacity:1"
       d="m 97.5,196.00079 c 10.5546,0 18.5,-7.9e-4 23,6.49952 l 3,-1.5 c -2.5,-10.00031 -14.5,-15 -25.5,-15 h -3.5 z"
       id="path71618" /><rect
       style="fill:#c0bfbc;fill-opacity:1;stroke:none;stroke-width:17.6154;stroke-linecap:round;stroke-dashoffset:26.4;stroke-opacity:1"
       id="rect71620"
       width="30"
       height="16"
       x="72"
       y="186.00031"
       rx="3"
       ry="2.909091" /><rect
       style="display:inline;fill:url(#linearGradient152898);fill-opacity:1;stroke-width:188.674;stroke-linecap:square;stroke-dashoffset:26.4;enable-background:new"
       id="rect152896"
       width="10.000007"
       height="46"
       x="82"
       y="203.99998"
       rx="5.0000033"
       ry="5.0000033" /><rect
       style="display:inline;fill:url(#linearGradient71670);fill-opacity:1;stroke-width:188.674;stroke-linecap:square;stroke-dashoffset:26.4;enable-background:new"
       id="rect71622"
       width="18"
       height="52"
       x="78"
       y="222"
       rx="6"
       ry="5.9999995" /><rect
       style="display:inline;fill:#c64600;fill-opacity:1;stroke-width:224.998;stroke-linecap:square;stroke-dashoffset:26.4;enable-background:new"
       id="rect71624"
       width="18"
       height="10.499531"
       x="78"
       y="263.50046"
       rx="5.2497654"
       ry="5.2497654" /><g
       id="g310124"
       style="fill:#8f3200;fill-opacity:1"
       transform="translate(0,4)"><rect
         style="opacity:0.4;fill:#8f3200;fill-opacity:1;stroke-width:12;stroke-linecap:round;stroke-dashoffset:26.4"
         id="rect155369"
         width="8"
         height="2"
         x="83"
         y="246"
         rx="1"
         ry="1" /><rect
         style="opacity:0.4;fill:#8f3200;fill-opacity:1;stroke-width:12;stroke-linecap:round;stroke-dashoffset:26.4"
         id="rect155505"
         width="8"
         height="2.0000124"
         x="83"
         y="250"
         rx="1.0000062"
         ry="1.0000062" /><rect
         style="opacity:0.4;fill:#8f3200;fill-opacity:1;stroke-width:12;stroke-linecap:round;stroke-dashoffset:26.4"
         id="rect155507"
         width="8"
         height="2.0000086"
         x="83"
         y="254"
         rx="1.0000043"
         ry="1.0000043" /></g></g><path
     d="m 80.636719,59.1875 c -2.4375,-0.08594 -4.839844,0.597656 -6.859375,1.960938 L 51.429688,76.1875 c -2.0625,1.394531 -3.621094,3.417969 -4.4375,5.765625 h 37.21875 l 2.457031,-1.652344 c 5.289062,-3.5625 6.691406,-10.734375 3.128906,-16.023437 -2.0625,-3.066406 -5.46875,-4.957032 -9.160156,-5.089844 z m 0,0"
     fill="url(#d)"
     id="path106"
     style="fill:url(#d)" /><path
     d="m 73.777344,61.148438 c 5.289062,-3.5625 12.460937,-2.160157 16.023437,3.128906 3.558594,5.289062 2.15625,12.464844 -3.132812,16.023437 -5.289063,3.558594 -12.460938,2.160157 -16.023438,-3.128906 -3.558593,-5.289063 -2.15625,-12.464844 3.132813,-16.023437 z m 0,0"
     fill="url(#e)"
     id="path107"
     style="fill:url(#e)" /><path
     d="m 81.773438 59.242188 c 3.964843 -2.667969 9.347656 -1.617188 12.015624 2.351562 c 2.671876 3.964844 1.621094 9.34375 -2.347656 12.015625 c -3.964844 2.671875 -9.347656 1.617187 -12.015625 -2.347656 c -2.671875 -3.96875 -1.621093 -9.347657 2.347657 -12.019531 z m 0 0"
     fill="url(#f)"
     id="path108" /><path
     d="m 84.167969 57.632812 c 3.964843 -2.671874 9.34375 -1.621093 12.015625 2.347657 c 2.671875 3.964843 1.617187 9.347656 -2.347656 12.015625 c -3.96875 2.671875 -9.347657 1.621094 -12.019532 -2.347656 c -2.667968 -3.964844 -1.617187 -9.347657 2.351563 -12.015626 z m 0 0"
     fill="#a51d2d"
     id="path109" /><path
     d="m 111.429688 43.066406 l 9.039062 -3.058594 c 0.261719 -0.089843 0.546875 0.007813 0.699219 0.234376 l 2.707031 4.019531 c 0.152344 0.226562 0.132812 0.527343 -0.046875 0.734375 l -6.234375 7.226562 c -0.148438 0.171875 -0.371094 0.265625 -0.601562 0.253906 c -0.226563 -0.015624 -0.4375 -0.132812 -0.566407 -0.324218 l -5.371093 -7.980469 c -0.128907 -0.191406 -0.160157 -0.429687 -0.085938 -0.644531 c 0.074219 -0.21875 0.242188 -0.390625 0.460938 -0.460938 z m 0 0"
     fill="#c0bfbc"
     id="path110" /><path
     d="m 111.59375 44.96875 l -23.945312 16.117188 c -1.761719 1.1875 -2.226563 3.578124 -1.042969 5.339843 c 1.1875 1.765625 3.578125 2.230469 5.34375 1.042969 l 23.941406 -16.113281 c 1.761719 -1.1875 2.230469 -3.578125 1.042969 -5.34375 c -1.1875 -1.761719 -3.578125 -2.230469 -5.339844 -1.042969 z m 0 0"
     fill="url(#g)"
     id="path111" /><path
     d="m 110.640625 43.625 l 8.230469 -2.554688 c 0.261718 -0.082031 0.546875 0.019532 0.699218 0.246094 l 2.707032 4.019532 c 0.152344 0.230468 0.140625 0.53125 -0.035156 0.742187 l -5.464844 6.664063 c -0.144532 0.175781 -0.363282 0.273437 -0.589844 0.261718 c -0.222656 -0.011718 -0.433594 -0.125 -0.558594 -0.3125 l -5.371094 -7.984375 c -0.125 -0.1875 -0.15625 -0.421875 -0.082031 -0.636719 c 0.074219 -0.210937 0.246094 -0.378906 0.464844 -0.445312 z m 0 0"
     fill="#deddda"
     id="path112" /><g
     clip-path="url(#h)"
     id="g114"><g
       clip-path="url(#i)"
       id="g113"><path
         d="m 63.40625,64.277344 c -0.742188,0 -1.492188,0.214844 -2.15625,0.660156 L 26.933594,88.035156 c -1.769532,1.191406 -2.230469,3.574219 -1.042969,5.34375 1.191406,1.769532 3.570313,2.234375 5.339844,1.042969 l 14.375,-9.675781 v -2.792969 h 4.148437 L 65.550781,71.324219 C 67.316406,70.132812 67.785156,67.75 66.59375,65.984375 65.847656,64.878906 64.640625,64.277344 63.40625,64.277344 Z m 1.65625,12.800781 c -0.742188,0 -1.488281,0.214844 -2.152344,0.660156 l -6.261718,4.214844 H 68.765625 C 69.054688,80.910156 68.90625,79.753906 68.25,78.78125 67.507812,77.675781 66.296875,77.082031 65.0625,77.078125 Z M 45.605469,89.386719 28.59375,100.83594 c -1.769531,1.1914 -2.234375,3.57422 -1.042969,5.34375 1.1875,1.76953 3.570313,2.23437 5.339844,1.04297 l 12.714844,-8.554691 z m 17.765625,11.234371 -13.988282,0.13672 -9.558593,6.4336 c -1.765625,1.1914 -2.230469,3.57422 -1.039063,5.33984 1.191406,1.76953 3.570313,2.23438 5.339844,1.04688 z m 0,0"
         fill="#c01c28"
         id="path113" /></g></g></svg>
