<?xml version="1.0" encoding="UTF-8" standalone="no"?>
<svg
   height="128px"
   viewBox="0 0 128 128"
   width="128px"
   version="1.1"
   id="svg33"
   xml:space="preserve"
   xmlns:xlink="http://www.w3.org/1999/xlink"
   xmlns="http://www.w3.org/2000/svg"
   xmlns:svg="http://www.w3.org/2000/svg"><defs
     id="defs33"><linearGradient
       id="linearGradient39"><stop
         style="stop-color:#15539d;stop-opacity:1;"
         offset="0"
         id="stop39" /><stop
         style="stop-color:#629fea;stop-opacity:1;"
         offset="0.0689196"
         id="stop41" /><stop
         style="stop-color:#15539d;stop-opacity:1;"
         offset="0.19616391"
         id="stop42" /><stop
         style="stop-color:#15539d;stop-opacity:1;"
         offset="0.8009311"
         id="stop43" /><stop
         style="stop-color:#629fea;stop-opacity:1;"
         offset="0.92798126"
         id="stop44" /><stop
         style="stop-color:#15539d;stop-opacity:1;"
         offset="1"
         id="stop40" /></linearGradient><linearGradient
       xlink:href="#linearGradient39"
       id="linearGradient40"
       x1="12"
       y1="39"
       x2="62"
       y2="39"
       gradientUnits="userSpaceOnUse"
       gradientTransform="matrix(0.65822785,0,0,0.65822785,4.1012658,4.1012658)" /><linearGradient
       xlink:href="#linearGradient39"
       id="linearGradient44"
       gradientUnits="userSpaceOnUse"
       x1="12"
       y1="39"
       x2="62"
       y2="39"
       gradientTransform="matrix(0.65822785,0,0,0.65822785,39.64557,4.1012658)" /><linearGradient
       xlink:href="#linearGradient39"
       id="linearGradient45"
       gradientUnits="userSpaceOnUse"
       gradientTransform="matrix(0.65822785,0,0,0.65822785,39.64557,39.64557)"
       x1="12"
       y1="39"
       x2="62"
       y2="39" /><linearGradient
       xlink:href="#linearGradient39"
       id="linearGradient46"
       gradientUnits="userSpaceOnUse"
       gradientTransform="matrix(0.65822785,0,0,0.65822785,4.1012658,39.64557)"
       x1="12"
       y1="39"
       x2="62"
       y2="39" /><linearGradient
       xlink:href="#linearGradient39"
       id="linearGradient1"
       gradientUnits="userSpaceOnUse"
       gradientTransform="matrix(0.65822785,0,0,0.65822785,75.189874,39.64557)"
       x1="12"
       y1="39"
       x2="62"
       y2="39" /><linearGradient
       xlink:href="#linearGradient39"
       id="linearGradient2"
       gradientUnits="userSpaceOnUse"
       gradientTransform="matrix(0.65822785,0,0,0.65822785,75.189874,4.1012658)"
       x1="12"
       y1="39"
       x2="62"
       y2="39" /><linearGradient
       xlink:href="#linearGradient39"
       id="linearGradient7"
       gradientUnits="userSpaceOnUse"
       gradientTransform="matrix(0.65822785,0,0,0.65822785,4.1012658,75.189874)"
       x1="12"
       y1="39"
       x2="62"
       y2="39" /><linearGradient
       xlink:href="#linearGradient39"
       id="linearGradient8"
       gradientUnits="userSpaceOnUse"
       gradientTransform="matrix(0.65822785,0,0,0.65822785,39.64557,75.189874)"
       x1="12"
       y1="39"
       x2="62"
       y2="39" /><linearGradient
       xlink:href="#linearGradient39"
       id="linearGradient9"
       gradientUnits="userSpaceOnUse"
       gradientTransform="matrix(0.65822785,0,0,0.65822785,75.189874,75.189874)"
       x1="12"
       y1="39"
       x2="62"
       y2="39" /></defs><linearGradient
     id="a"
     gradientUnits="userSpaceOnUse"
     x1="8.0000015"
     x2="120.0000015"
     y1="115.999977"
     y2="115.999977"><stop
       offset="0"
       stop-color="#deddda"
       id="stop1" /><stop
       offset="0.0357143"
       stop-color="#f6f5f4"
       id="stop2" /><stop
       offset="0.0713653"
       stop-color="#deddda"
       id="stop3"
       style="stop-color:#c5c3be;stop-opacity:1;" /><stop
       offset="0.92857099"
       stop-color="#deddda"
       id="stop4"
       style="stop-color:#c5c3be;stop-opacity:1;" /><stop
       offset="0.96428603"
       stop-color="#f6f5f4"
       id="stop5"
       style="stop-color:#f6f5f4;stop-opacity:1;" /><stop
       offset="1"
       stop-color="#deddda"
       id="stop6"
       style="stop-color:#c5c4be;stop-opacity:1;" /></linearGradient><linearGradient
     id="b"
     gradientUnits="userSpaceOnUse"><stop
       offset="0"
       stop-color="#4bbfe5"
       id="stop7" /><stop
       offset="1"
       stop-color="#9141ac"
       id="stop8" /></linearGradient><radialGradient
     id="c"
     cx="29.491123"
     cy="109.784927"
     gradientTransform="matrix(1.953487 0.295654 -0.131445 0.868505 -21.957144 -27.30719)"
     r="56"
     xlink:href="#b" /><radialGradient
     id="d"
     cx="104.212189"
     cy="83.412865"
     gradientTransform="matrix(0.0162272,-1.154436,1.225278,0.017223,16.82208,131.83411)"
     gradientUnits="userSpaceOnUse"
     r="56"><stop
       offset="0"
       stop-color="#f66151"
       id="stop9" /><stop
       offset="1"
       stop-color="#ed333b"
       stop-opacity="0"
       id="stop10" /></radialGradient><filter
     id="e"
     height="1"
     width="1"
     x="0"
     y="0"><feColorMatrix
       in="SourceGraphic"
       type="matrix"
       values="0 0 0 0 1 0 0 0 0 1 0 0 0 0 1 0 0 0 1 0"
       id="feColorMatrix10" /></filter><mask
     id="f"><g
       filter="url(#e)"
       id="g10"><rect
         fill-opacity="0.1"
         height="128"
         width="128"
         id="rect10" /></g></mask><clipPath
     id="g"><rect
       height="152"
       width="192"
       id="rect11" /></clipPath><mask
     id="h"><g
       filter="url(#e)"
       id="g12"><rect
         fill-opacity="0.154"
         height="128"
         width="128"
         id="rect12" /></g></mask><clipPath
     id="i"><rect
       height="152"
       width="192"
       id="rect13" /></clipPath><radialGradient
     id="j"
     cx="31.13185598259"
     cy="85.99992432621"
     r="76.06456014758"
     xlink:href="#b" /><radialGradient
     id="k"
     cx="109.98847032157"
     cy="3.56956334146"
     gradientUnits="userSpaceOnUse"
     r="66.01153158062"><stop
       offset="0"
       stop-color="#f66151"
       id="stop13" /><stop
       offset="1"
       stop-color="#ed333b"
       stop-opacity="0.000613"
       id="stop14" /></radialGradient><mask
     id="l"><g
       filter="url(#e)"
       id="g14"><rect
         fill-opacity="0.154"
         height="128"
         width="128"
         id="rect14" /></g></mask><clipPath
     id="m"><rect
       height="152"
       width="192"
       id="rect15" /></clipPath><path
     style="display:inline;fill:url(#linearGradient44);fill-opacity:1;stroke:none;stroke-width:0.164557;stroke-linecap:butt;stroke-linejoin:miter;stroke-miterlimit:4;stroke-dasharray:none;stroke-dashoffset:0;stroke-opacity:1;marker:none;marker-start:none;marker-mid:none;marker-end:none;paint-order:normal;enable-background:new"
     d="m 52.810127,44.911392 h 22.379747 c 2.917265,0 5.265822,-2.348556 5.265822,-5.265822 V 19.898734 c 0,-2.917266 -2.348557,-5.265823 -5.265822,-5.265823 H 52.810127 c -2.917266,0 -5.265823,2.348557 -5.265823,5.265823 V 39.64557 c 0,2.917266 2.348557,5.265822 5.265823,5.265822 z"
     id="path44" /><path
     style="display:inline;fill:#3584e4;fill-opacity:1;stroke:none;stroke-width:0.164557;stroke-linecap:butt;stroke-linejoin:miter;stroke-miterlimit:4;stroke-dasharray:none;stroke-dashoffset:0;stroke-opacity:1;marker:none;marker-start:none;marker-mid:none;marker-end:none;paint-order:normal;enable-background:new"
     d="m 47.544304,17.265823 v 19.746835 c 0,2.917266 2.348557,5.265823 5.265823,5.265823 h 22.379747 c 2.917265,0 5.265822,-2.348557 5.265822,-5.265823 V 17.265823 C 80.455696,14.348557 78.107139,12 75.189874,12 H 52.810127 c -2.917266,0 -5.265823,2.348557 -5.265823,5.265823 z"
     id="path35" /><path
     style="display:inline;fill:url(#linearGradient40);fill-opacity:1;stroke:none;stroke-width:0.164557;stroke-linecap:butt;stroke-linejoin:miter;stroke-miterlimit:4;stroke-dasharray:none;stroke-dashoffset:0;stroke-opacity:1;marker:none;marker-start:none;marker-mid:none;marker-end:none;paint-order:normal;enable-background:new"
     d="M 17.265823,44.911392 H 39.64557 c 2.917266,0 5.265822,-2.348556 5.265822,-5.265822 V 19.898734 c 0,-2.917266 -2.348556,-5.265823 -5.265822,-5.265823 H 17.265823 C 14.348557,14.632911 12,16.981468 12,19.898734 V 39.64557 c 0,2.917266 2.348557,5.265822 5.265823,5.265822 z"
     id="path38" /><path
     style="display:inline;fill:#3584e4;fill-opacity:1;stroke:none;stroke-width:0.164557;stroke-linecap:butt;stroke-linejoin:miter;stroke-miterlimit:4;stroke-dasharray:none;stroke-dashoffset:0;stroke-opacity:1;marker:none;marker-start:none;marker-mid:none;marker-end:none;paint-order:normal;enable-background:new"
     d="M 17.265823,42.278481 H 39.64557 c 2.917266,0 5.265822,-2.348557 5.265822,-5.265823 V 17.265823 C 44.911392,14.348557 42.562836,12 39.64557,12 H 17.265823 C 14.348557,12 12,14.348557 12,17.265823 v 19.746835 c 0,2.917266 2.348557,5.265823 5.265823,5.265823 z"
     id="path20" /><path
     style="display:inline;fill:url(#linearGradient2);fill-opacity:1;stroke:none;stroke-width:0.164557;stroke-linecap:butt;stroke-linejoin:miter;stroke-miterlimit:4;stroke-dasharray:none;stroke-dashoffset:0;stroke-opacity:1;marker:none;marker-start:none;marker-mid:none;marker-end:none;paint-order:normal;enable-background:new"
     d="m 88.354431,44.911392 h 22.379749 c 2.91726,0 5.26582,-2.348556 5.26582,-5.265822 V 19.898734 c 0,-2.917266 -2.34856,-5.265823 -5.26582,-5.265823 H 88.354431 c -2.917266,0 -5.265823,2.348557 -5.265823,5.265823 V 39.64557 c 0,2.917266 2.348557,5.265822 5.265823,5.265822 z"
     id="path44-2" /><path
     style="display:inline;fill:#3584e4;fill-opacity:1;stroke:none;stroke-width:0.164557;stroke-linecap:butt;stroke-linejoin:miter;stroke-miterlimit:4;stroke-dasharray:none;stroke-dashoffset:0;stroke-opacity:1;marker:none;marker-start:none;marker-mid:none;marker-end:none;paint-order:normal;enable-background:new"
     d="m 83.088608,17.265823 v 19.746835 c 0,2.917266 2.348557,5.265823 5.265823,5.265823 h 22.379749 c 2.91726,0 5.26582,-2.348557 5.26582,-5.265823 V 17.265823 C 116,14.348557 113.65144,12 110.73418,12 H 88.354431 c -2.917266,0 -5.265823,2.348557 -5.265823,5.265823 z"
     id="path35-2" /><path
     style="display:inline;fill:url(#linearGradient46);fill-opacity:1;stroke:none;stroke-width:0.164557;stroke-linecap:butt;stroke-linejoin:miter;stroke-miterlimit:4;stroke-dasharray:none;stroke-dashoffset:0;stroke-opacity:1;marker:none;marker-start:none;marker-mid:none;marker-end:none;paint-order:normal;enable-background:new"
     d="M 17.265823,80.455696 H 39.64557 c 2.917266,0 5.265822,-2.348557 5.265822,-5.265822 V 55.443038 c 0,-2.917266 -2.348556,-5.265823 -5.265822,-5.265823 H 17.265823 C 14.348557,50.177215 12,52.525772 12,55.443038 v 19.746836 c 0,2.917265 2.348557,5.265822 5.265823,5.265822 z"
     id="path44-8" /><path
     style="display:inline;fill:url(#linearGradient45);fill-opacity:1;stroke:none;stroke-width:0.164557;stroke-linecap:butt;stroke-linejoin:miter;stroke-miterlimit:4;stroke-dasharray:none;stroke-dashoffset:0;stroke-opacity:1;marker:none;marker-start:none;marker-mid:none;marker-end:none;paint-order:normal;enable-background:new"
     d="m 52.810127,80.455696 h 22.379747 c 2.917265,0 5.265822,-2.348557 5.265822,-5.265822 V 55.443038 c 0,-2.917266 -2.348557,-5.265823 -5.265822,-5.265823 H 52.810127 c -2.917266,0 -5.265823,2.348557 -5.265823,5.265823 v 19.746836 c 0,2.917265 2.348557,5.265822 5.265823,5.265822 z"
     id="path44-1" /><path
     style="display:inline;fill:#3584e4;fill-opacity:1;stroke:none;stroke-width:0.164557;stroke-linecap:butt;stroke-linejoin:miter;stroke-miterlimit:4;stroke-dasharray:none;stroke-dashoffset:0;stroke-opacity:1;marker:none;marker-start:none;marker-mid:none;marker-end:none;paint-order:normal;enable-background:new"
     d="m 47.544304,52.810127 v 19.746835 c 0,2.917266 2.348557,5.265823 5.265823,5.265823 h 22.379747 c 2.917265,0 5.265822,-2.348557 5.265822,-5.265823 V 52.810127 c 0,-2.917266 -2.348557,-5.265823 -5.265822,-5.265823 H 52.810127 c -2.917266,0 -5.265823,2.348557 -5.265823,5.265823 z"
     id="path100" /><path
     style="display:inline;fill:url(#linearGradient1);fill-opacity:1;stroke:none;stroke-width:0.164557;stroke-linecap:butt;stroke-linejoin:miter;stroke-miterlimit:4;stroke-dasharray:none;stroke-dashoffset:0;stroke-opacity:1;marker:none;marker-start:none;marker-mid:none;marker-end:none;paint-order:normal;enable-background:new"
     d="m 88.354431,80.455696 h 22.379749 c 2.91726,0 5.26582,-2.348557 5.26582,-5.265822 V 55.443038 c 0,-2.917266 -2.34856,-5.265823 -5.26582,-5.265823 H 88.354431 c -2.917266,0 -5.265823,2.348557 -5.265823,5.265823 v 19.746836 c 0,2.917265 2.348557,5.265822 5.265823,5.265822 z"
     id="path44-1-9" /><path
     style="display:inline;fill:#3584e4;fill-opacity:1;stroke:none;stroke-width:0.164557;stroke-linecap:butt;stroke-linejoin:miter;stroke-miterlimit:4;stroke-dasharray:none;stroke-dashoffset:0;stroke-opacity:1;marker:none;marker-start:none;marker-mid:none;marker-end:none;paint-order:normal;enable-background:new"
     d="m 83.088608,52.810127 v 19.746835 c 0,2.917266 2.348557,5.265823 5.265823,5.265823 h 22.379749 c 2.91726,0 5.26582,-2.348557 5.26582,-5.265823 V 52.810127 c 0,-2.917266 -2.34856,-5.265823 -5.26582,-5.265823 H 88.354431 c -2.917266,0 -5.265823,2.348557 -5.265823,5.265823 z"
     id="path100-8" /><path
     style="display:inline;fill:#3584e4;fill-opacity:1;stroke:none;stroke-width:0.164557;stroke-linecap:butt;stroke-linejoin:miter;stroke-miterlimit:4;stroke-dasharray:none;stroke-dashoffset:0;stroke-opacity:1;marker:none;marker-start:none;marker-mid:none;marker-end:none;paint-order:normal;enable-background:new"
     d="m 12,52.810127 v 19.746835 c 0,2.917266 2.348557,5.265823 5.265823,5.265823 H 39.64557 c 2.917266,0 5.265822,-2.348557 5.265822,-5.265823 V 52.810127 c 0,-2.917266 -2.348556,-5.265823 -5.265822,-5.265823 H 17.265823 C 14.348557,47.544304 12,49.892861 12,52.810127 Z"
     id="path104" /><path
     style="display:inline;fill:url(#linearGradient7);fill-opacity:1;stroke:none;stroke-width:0.164557;stroke-linecap:butt;stroke-linejoin:miter;stroke-miterlimit:4;stroke-dasharray:none;stroke-dashoffset:0;stroke-opacity:1;marker:none;marker-start:none;marker-mid:none;marker-end:none;paint-order:normal;enable-background:new"
     d="M 17.265823,116 H 39.64557 c 2.917266,0 5.265822,-2.34856 5.265822,-5.26582 V 90.987342 c 0,-2.917266 -2.348556,-5.265823 -5.265822,-5.265823 H 17.265823 C 14.348557,85.721519 12,88.070076 12,90.987342 V 110.73418 C 12,113.65144 14.348557,116 17.265823,116 Z"
     id="path2" /><path
     style="display:inline;fill:url(#linearGradient8);fill-opacity:1;stroke:none;stroke-width:0.164557;stroke-linecap:butt;stroke-linejoin:miter;stroke-miterlimit:4;stroke-dasharray:none;stroke-dashoffset:0;stroke-opacity:1;marker:none;marker-start:none;marker-mid:none;marker-end:none;paint-order:normal;enable-background:new"
     d="m 52.810127,116 h 22.379747 c 2.917265,0 5.265822,-2.34856 5.265822,-5.26582 V 90.987342 c 0,-2.917266 -2.348557,-5.265823 -5.265822,-5.265823 H 52.810127 c -2.917266,0 -5.265823,2.348557 -5.265823,5.265823 v 19.746838 c 0,2.91726 2.348557,5.26582 5.265823,5.26582 z"
     id="path3" /><path
     style="display:inline;fill:#3584e4;fill-opacity:1;stroke:none;stroke-width:0.164557;stroke-linecap:butt;stroke-linejoin:miter;stroke-miterlimit:4;stroke-dasharray:none;stroke-dashoffset:0;stroke-opacity:1;marker:none;marker-start:none;marker-mid:none;marker-end:none;paint-order:normal;enable-background:new"
     d="m 47.544304,88.354431 v 19.746839 c 0,2.91726 2.348557,5.26582 5.265823,5.26582 h 22.379747 c 2.917265,0 5.265822,-2.34856 5.265822,-5.26582 V 88.354431 c 0,-2.917266 -2.348557,-5.265823 -5.265822,-5.265823 H 52.810127 c -2.917266,0 -5.265823,2.348557 -5.265823,5.265823 z"
     id="path4" /><path
     style="display:inline;fill:url(#linearGradient9);fill-opacity:1;stroke:none;stroke-width:0.164557;stroke-linecap:butt;stroke-linejoin:miter;stroke-miterlimit:4;stroke-dasharray:none;stroke-dashoffset:0;stroke-opacity:1;marker:none;marker-start:none;marker-mid:none;marker-end:none;paint-order:normal;enable-background:new"
     d="M 88.354431,116 H 110.73418 C 113.65144,116 116,113.65144 116,110.73418 V 90.987342 c 0,-2.917266 -2.34856,-5.265823 -5.26582,-5.265823 H 88.354431 c -2.917266,0 -5.265823,2.348557 -5.265823,5.265823 v 19.746838 c 0,2.91726 2.348557,5.26582 5.265823,5.26582 z"
     id="path5" /><path
     style="display:inline;fill:#3584e4;fill-opacity:1;stroke:none;stroke-width:0.164557;stroke-linecap:butt;stroke-linejoin:miter;stroke-miterlimit:4;stroke-dasharray:none;stroke-dashoffset:0;stroke-opacity:1;marker:none;marker-start:none;marker-mid:none;marker-end:none;paint-order:normal;enable-background:new"
     d="m 83.088608,88.354431 v 19.746839 c 0,2.91726 2.348557,5.26582 5.265823,5.26582 h 22.379749 c 2.91726,0 5.26582,-2.34856 5.26582,-5.26582 V 88.354431 c 0,-2.917266 -2.34856,-5.265823 -5.26582,-5.265823 H 88.354431 c -2.917266,0 -5.265823,2.348557 -5.265823,5.265823 z"
     id="path6" /><path
     style="display:inline;fill:#3584e4;fill-opacity:1;stroke:none;stroke-width:0.164557;stroke-linecap:butt;stroke-linejoin:miter;stroke-miterlimit:4;stroke-dasharray:none;stroke-dashoffset:0;stroke-opacity:1;marker:none;marker-start:none;marker-mid:none;marker-end:none;paint-order:normal;enable-background:new"
     d="m 12,88.354431 v 19.746839 c 0,2.91726 2.348557,5.26582 5.265823,5.26582 H 39.64557 c 2.917266,0 5.265822,-2.34856 5.265822,-5.26582 V 88.354431 c 0,-2.917266 -2.348556,-5.265823 -5.265822,-5.265823 H 17.265823 C 14.348557,83.088608 12,85.437165 12,88.354431 Z"
     id="path7" /></svg>
