<?xml version="1.0" encoding="UTF-8" standalone="no"?>
<svg
   height="128px"
   viewBox="0 0 128 128"
   width="128px"
   version="1.1"
   id="svg33"
   xml:space="preserve"
   xmlns:xlink="http://www.w3.org/1999/xlink"
   xmlns="http://www.w3.org/2000/svg"
   xmlns:svg="http://www.w3.org/2000/svg"><defs
     id="defs33"><linearGradient
       id="linearGradient39"><stop
         style="stop-color:#15539d;stop-opacity:1;"
         offset="0"
         id="stop39" /><stop
         style="stop-color:#629fea;stop-opacity:1;"
         offset="0.0689196"
         id="stop41" /><stop
         style="stop-color:#15539d;stop-opacity:1;"
         offset="0.19616391"
         id="stop42" /><stop
         style="stop-color:#15539d;stop-opacity:1;"
         offset="0.8009311"
         id="stop43" /><stop
         style="stop-color:#629fea;stop-opacity:1;"
         offset="0.92798126"
         id="stop44" /><stop
         style="stop-color:#15539d;stop-opacity:1;"
         offset="1"
         id="stop40" /></linearGradient><linearGradient
       xlink:href="#linearGradient39"
       id="linearGradient40"
       x1="12"
       y1="39"
       x2="62"
       y2="39"
       gradientUnits="userSpaceOnUse" /><linearGradient
       xlink:href="#linearGradient39"
       id="linearGradient44"
       gradientUnits="userSpaceOnUse"
       x1="12"
       y1="39"
       x2="62"
       y2="39"
       gradientTransform="translate(54)" /><linearGradient
       xlink:href="#linearGradient39"
       id="linearGradient45"
       gradientUnits="userSpaceOnUse"
       gradientTransform="translate(54,54)"
       x1="12"
       y1="39"
       x2="62"
       y2="39" /><linearGradient
       xlink:href="#linearGradient39"
       id="linearGradient46"
       gradientUnits="userSpaceOnUse"
       gradientTransform="translate(0,54)"
       x1="12"
       y1="39"
       x2="62"
       y2="39" /></defs><linearGradient
     id="a"
     gradientUnits="userSpaceOnUse"
     x1="8.0000015"
     x2="120.0000015"
     y1="115.999977"
     y2="115.999977"><stop
       offset="0"
       stop-color="#deddda"
       id="stop1" /><stop
       offset="0.0357143"
       stop-color="#f6f5f4"
       id="stop2" /><stop
       offset="0.0713653"
       stop-color="#deddda"
       id="stop3"
       style="stop-color:#c5c3be;stop-opacity:1;" /><stop
       offset="0.92857099"
       stop-color="#deddda"
       id="stop4"
       style="stop-color:#c5c3be;stop-opacity:1;" /><stop
       offset="0.96428603"
       stop-color="#f6f5f4"
       id="stop5"
       style="stop-color:#f6f5f4;stop-opacity:1;" /><stop
       offset="1"
       stop-color="#deddda"
       id="stop6"
       style="stop-color:#c5c4be;stop-opacity:1;" /></linearGradient><linearGradient
     id="b"
     gradientUnits="userSpaceOnUse"><stop
       offset="0"
       stop-color="#4bbfe5"
       id="stop7" /><stop
       offset="1"
       stop-color="#9141ac"
       id="stop8" /></linearGradient><radialGradient
     id="c"
     cx="29.491123"
     cy="109.784927"
     gradientTransform="matrix(1.953487 0.295654 -0.131445 0.868505 -21.957144 -27.30719)"
     r="56"
     xlink:href="#b" /><radialGradient
     id="d"
     cx="104.212189"
     cy="83.412865"
     gradientTransform="matrix(0.0162272,-1.154436,1.225278,0.017223,16.82208,131.83411)"
     gradientUnits="userSpaceOnUse"
     r="56"><stop
       offset="0"
       stop-color="#f66151"
       id="stop9" /><stop
       offset="1"
       stop-color="#ed333b"
       stop-opacity="0"
       id="stop10" /></radialGradient><filter
     id="e"
     height="1"
     width="1"
     x="0"
     y="0"><feColorMatrix
       in="SourceGraphic"
       type="matrix"
       values="0 0 0 0 1 0 0 0 0 1 0 0 0 0 1 0 0 0 1 0"
       id="feColorMatrix10" /></filter><mask
     id="f"><g
       filter="url(#e)"
       id="g10"><rect
         fill-opacity="0.1"
         height="128"
         width="128"
         id="rect10" /></g></mask><clipPath
     id="g"><rect
       height="152"
       width="192"
       id="rect11" /></clipPath><mask
     id="h"><g
       filter="url(#e)"
       id="g12"><rect
         fill-opacity="0.154"
         height="128"
         width="128"
         id="rect12" /></g></mask><clipPath
     id="i"><rect
       height="152"
       width="192"
       id="rect13" /></clipPath><radialGradient
     id="j"
     cx="31.13185598259"
     cy="85.99992432621"
     r="76.06456014758"
     xlink:href="#b" /><radialGradient
     id="k"
     cx="109.98847032157"
     cy="3.56956334146"
     gradientUnits="userSpaceOnUse"
     r="66.01153158062"><stop
       offset="0"
       stop-color="#f66151"
       id="stop13" /><stop
       offset="1"
       stop-color="#ed333b"
       stop-opacity="0.000613"
       id="stop14" /></radialGradient><mask
     id="l"><g
       filter="url(#e)"
       id="g14"><rect
         fill-opacity="0.154"
         height="128"
         width="128"
         id="rect14" /></g></mask><clipPath
     id="m"><rect
       height="152"
       width="192"
       id="rect15" /></clipPath><path
     style="display:inline;fill:url(#linearGradient46);fill-opacity:1;stroke:none;stroke-width:0.25;stroke-linecap:butt;stroke-linejoin:miter;stroke-miterlimit:4;stroke-dasharray:none;stroke-dashoffset:0;stroke-opacity:1;marker:none;marker-start:none;marker-mid:none;marker-end:none;paint-order:normal;enable-background:new"
     d="m 20,116 h 34 c 4.432,0 8,-3.568 8,-8 V 78 c 0,-4.432 -3.568,-8 -8,-8 H 20 c -4.432,0 -8,3.568 -8,8 v 30 c 0,4.432 3.568,8 8,8 z"
     id="path44-8" /><path
     style="display:inline;fill:url(#linearGradient45);fill-opacity:1;stroke:none;stroke-width:0.25;stroke-linecap:butt;stroke-linejoin:miter;stroke-miterlimit:4;stroke-dasharray:none;stroke-dashoffset:0;stroke-opacity:1;marker:none;marker-start:none;marker-mid:none;marker-end:none;paint-order:normal;enable-background:new"
     d="m 74,116 h 34 c 4.432,0 8,-3.568 8,-8 V 78 c 0,-4.432 -3.568,-8 -8,-8 H 74 c -4.432,0 -8,3.568 -8,8 v 30 c 0,4.432 3.568,8 8,8 z"
     id="path44-1" /><path
     style="display:inline;fill:url(#linearGradient44);fill-opacity:1;stroke:none;stroke-width:0.25;stroke-linecap:butt;stroke-linejoin:miter;stroke-miterlimit:4;stroke-dasharray:none;stroke-dashoffset:0;stroke-opacity:1;marker:none;marker-start:none;marker-mid:none;marker-end:none;paint-order:normal;enable-background:new"
     d="m 74,62 h 34 c 4.432,0 8,-3.568 8,-8 V 24 c 0,-4.432 -3.568,-8 -8,-8 H 74 c -4.432,0 -8,3.568 -8,8 v 30 c 0,4.432 3.568,8 8,8 z"
     id="path44" /><path
     style="display:inline;fill:#3584e4;fill-opacity:1;stroke:none;stroke-width:0.25;stroke-linecap:butt;stroke-linejoin:miter;stroke-miterlimit:4;stroke-dasharray:none;stroke-dashoffset:0;stroke-opacity:1;marker:none;marker-start:none;marker-mid:none;marker-end:none;paint-order:normal;enable-background:new"
     d="m 66,20 v 30 c 0,4.432 3.568,8 8,8 h 34 c 4.432,0 8,-3.568 8,-8 V 20 c 0,-4.432 -3.568,-8 -8,-8 H 74 c -4.432,0 -8,3.568 -8,8 z"
     id="path35" /><path
     style="display:inline;fill:url(#linearGradient40);fill-opacity:1;stroke:none;stroke-width:0.25;stroke-linecap:butt;stroke-linejoin:miter;stroke-miterlimit:4;stroke-dasharray:none;stroke-dashoffset:0;stroke-opacity:1;marker:none;marker-start:none;marker-mid:none;marker-end:none;paint-order:normal;enable-background:new"
     d="m 20,62 h 34 c 4.432,0 8,-3.568 8,-8 V 24 c 0,-4.432 -3.568,-8 -8,-8 H 20 c -4.432,0 -8,3.568 -8,8 v 30 c 0,4.432 3.568,8 8,8 z"
     id="path38" /><path
     style="display:inline;fill:#3584e4;fill-opacity:1;stroke:none;stroke-width:0.25;stroke-linecap:butt;stroke-linejoin:miter;stroke-miterlimit:4;stroke-dasharray:none;stroke-dashoffset:0;stroke-opacity:1;marker:none;marker-start:none;marker-mid:none;marker-end:none;paint-order:normal;enable-background:new"
     d="m 20,58 h 34 c 4.432,0 8,-3.568 8,-8 V 20 c 0,-4.432 -3.568,-8 -8,-8 H 20 c -4.432,0 -8,3.568 -8,8 v 30 c 0,4.432 3.568,8 8,8 z"
     id="path20" /><path
     style="display:inline;fill:#3584e4;fill-opacity:1;stroke:none;stroke-width:0.25;stroke-linecap:butt;stroke-linejoin:miter;stroke-miterlimit:4;stroke-dasharray:none;stroke-dashoffset:0;stroke-opacity:1;marker:none;marker-start:none;marker-mid:none;marker-end:none;paint-order:normal;enable-background:new"
     d="m 66,74 v 30 c 0,4.432 3.568,8 8,8 h 34 c 4.432,0 8,-3.568 8,-8 V 74 c 0,-4.432 -3.568,-8 -8,-8 H 74 c -4.432,0 -8,3.568 -8,8 z"
     id="path100" /><path
     style="display:inline;fill:#3584e4;fill-opacity:1;stroke:none;stroke-width:0.25;stroke-linecap:butt;stroke-linejoin:miter;stroke-miterlimit:4;stroke-dasharray:none;stroke-dashoffset:0;stroke-opacity:1;marker:none;marker-start:none;marker-mid:none;marker-end:none;paint-order:normal;enable-background:new"
     d="m 12,74 v 30 c 0,4.432 3.568,8 8,8 h 34 c 4.432,0 8,-3.568 8,-8 V 74 c 0,-4.432 -3.568,-8 -8,-8 H 20 c -4.432,0 -8,3.568 -8,8 z"
     id="path104" /><path
     id="path95"
     style="fill:#98c1f1;fill-opacity:1;stroke-width:0.647333"
     d="m 12,86.929688 v 15.425782 c 3.561298,-5.554253 9.784789,-9.238282 16.873047,-9.238282 10.678395,0 19.400797,8.354012 19.998047,18.882812 H 54 c 0.732981,0 1.439796,-0.10611 2.113281,-0.28906 -0.04702,-0.78149 -0.116096,-1.56236 -0.230469,-2.33789 l 4.498047,-2.17578 c -0.303437,-1.57787 -0.721743,-3.12792 -1.257812,-4.64258 l -4.957031,0.36133 c -0.50826,-1.23904 -1.104375,-2.43737 -1.78711,-3.587895 l 3.330078,-3.742187 C 54.823957,94.248284 53.838348,92.9781 52.763672,91.787109 l -4.433594,2.22461 c -0.943184,-0.948242 -1.956574,-1.825372 -3.03125,-2.626953 l 1.648438,-4.744141 c -1.3326,-0.892612 -2.728251,-1.686407 -4.179688,-2.369141 l -3.236328,3.746094 c -1.239041,-0.513315 -2.510825,-0.933571 -3.810547,-1.259766 l -0.294922,-5.009765 c -1.572819,-0.318609 -3.164413,-0.517315 -4.767578,-0.595703 l -1.560547,4.707031 c -0.07586,-0.005 -0.14875,-0.0072 -0.224609,-0.0098 -1.264323,0.0076 -2.527617,0.106425 -3.779297,0.291016 l -2.175781,-4.498047 c -1.577875,0.303438 -3.12792,0.723693 -4.642578,1.259766 l 0.361328,4.955078 c -1.236507,0.505729 -2.437357,1.104375 -3.587891,1.787109 z" /><path
     id="path10"
     style="fill:#1a5fb4;fill-opacity:1;stroke-width:0.647359"
     d="M 62,95.986328 V 86 74 c 0,-4.432 -3.568,-8 -8,-8 H 36.789062 c 0.04847,0.59418 0.11209,1.187729 0.199219,1.777344 l -4.498047,2.179687 c 0.300921,1.575408 0.724248,3.128436 1.257813,4.640625 l 4.958984,-0.363281 c 0.505749,1.239084 1.102396,2.439265 1.785157,3.589844 l -3.330079,3.74414 c 0.885061,1.337705 1.87002,2.607791 2.947266,3.798829 l 4.431641,-2.226563 c 0.945751,0.94828 1.959062,1.825916 3.03125,2.625 l -1.648438,4.744141 c 1.332649,0.895175 2.730717,1.687759 4.179688,2.373046 l 3.238281,-3.746093 c 1.236556,0.510806 2.512726,0.933557 3.8125,1.259765 l 0.289062,5.009766 C 58.946563,95.708341 60.468643,95.901184 62,95.986328 Z" /><path
     id="path96"
     style="fill:#1a5fb4;fill-opacity:1;stroke-width:0.647359"
     d="M 95.986328,66 H 74 c -4.432,0 -8,3.568 -8,8 v 12 5.210938 c 0.594225,-0.04846 1.187139,-0.112179 1.777344,-0.199219 l 2.179687,4.498047 c 1.575408,-0.30092 3.125907,-0.724248 4.640625,-1.257813 l -0.363281,-4.958984 c 1.239086,-0.505749 2.439265,-1.102396 3.589844,-1.785157 l 3.74414,3.330079 c 1.337706,-0.88506 2.606412,-1.870021 3.794922,-2.947266 l -2.224609,-4.431641 c 0.950808,-0.945751 1.82787,-1.956534 2.626953,-3.03125 l 4.744141,1.648438 c 0.895176,-1.332649 1.68776,-2.730717 2.373046,-4.179688 l -3.748046,-3.236328 c 0.513336,-1.239085 0.93551,-2.514679 1.261718,-3.814453 l 5.00586,-0.289062 C 95.706852,69.053438 95.901067,67.531357 95.986328,66 Z" /><path
     id="path94"
     style="fill:#1a5fb4;fill-opacity:1;stroke-width:0.647359"
     d="M 32.503906,58 H 54 c 4.432,0 8,-3.568 8,-8 V 36.787109 c -0.594184,0.04847 -1.187724,0.114042 -1.777344,0.201172 L 58.042969,32.490234 C 56.467561,32.793683 54.914533,33.213907 53.402344,33.75 l 0.363281,4.957031 c -1.239085,0.505749 -2.439265,1.102396 -3.589844,1.785157 l -3.74414,-3.330079 c -1.337706,0.887588 -2.607789,1.87002 -3.798829,2.947266 l 2.226563,4.431641 c -0.948279,0.945751 -1.825917,1.959063 -2.625,3.03125 l -4.744141,-1.648438 c -0.895175,1.332649 -1.687757,2.730142 -2.373046,4.181641 l 3.748046,3.236328 c -0.513335,1.236556 -0.93551,2.512726 -1.261718,3.8125 L 32.59375,57.443359 C 32.55672,57.627639 32.53773,57.815116 32.50391,58 Z" /><path
     id="path92"
     style="fill:#1a5fb4;fill-opacity:1;stroke-width:0.647359"
     d="M 66,32.013672 V 50 c 0,4.432 3.568,8 8,8 h 21.5 c -0.302781,-1.560509 -0.719372,-3.09682 -1.248047,-4.597656 l -4.958984,0.363281 C 88.78722,52.52654 88.190573,51.32636 87.507812,50.175781 l 3.330079,-3.74414 C 89.950305,45.093936 88.96787,43.825228 87.890625,42.636719 l -4.431641,2.224609 c -0.94575,-0.948279 -1.959063,-1.82787 -3.03125,-2.626953 l 1.648438,-4.744141 C 80.743524,36.597587 79.34603,35.802477 77.894531,35.117188 l -3.236328,3.748046 c -1.236556,-0.513335 -2.512725,-0.935509 -3.8125,-1.261718 l -0.289062,-5.00586 C 69.053548,32.293171 67.529213,32.098873 66,32.013672 Z" /><path
     id="path78"
     style="fill:#98c1f1;fill-opacity:1;stroke-width:0.647333"
     d="M 53.697266,12 H 41.09375 c 0.985527,2.368393 1.53125,4.965982 1.53125,7.691406 0,11.06535 -8.969807,20.035156 -20.035156,20.035156 -3.889291,0 -7.516935,-1.111634 -10.589844,-3.029296 v 8.154296 c 1.217712,0.500662 2.46606,0.914106 3.742188,1.234376 l 0.292968,5.007812 c 1.572817,0.31608 3.16637,0.516739 4.769532,0.597656 l 1.560546,-4.708984 c 0.07586,0.0026 0.148751,0.0073 0.22461,0.0098 1.264325,-0.0101 2.525667,-0.104476 3.777344,-0.289063 l 2.177734,4.498047 c 1.575343,-0.303437 3.128494,-0.72369 4.640625,-1.259766 l -0.359375,-4.957031 c 1.23651,-0.508253 2.43736,-1.104374 3.58789,-1.787109 l 3.742188,3.330078 c 1.337656,-0.885028 2.607832,-1.870637 3.798828,-2.945313 l -2.226562,-4.433593 c 0.94824,-0.943185 1.825951,-1.956574 2.625,-3.03125 l 4.746093,1.648437 c 0.892608,-1.332594 1.685834,-2.728243 2.371094,-4.179687 l -3.746094,-3.236329 c 0.513309,-1.239036 0.933568,-2.510824 1.259766,-3.810547 l 5.009766,-0.292968 c 0.31861,-1.572817 0.514786,-3.16637 0.595703,-4.769532 L 49.880859,19.91605 c 0.0026,-0.07586 0.0092,-0.148751 0.01172,-0.22461 -0.0101,-1.264323 -0.106423,-2.525664 -0.291016,-3.777344 L 54.09961,13.736362 C 53.987298,13.152312 53.841447,12.57601 53.697266,12 Z" /><path
     id="path79"
     style="fill:#98c1f1;fill-opacity:1;stroke-width:0.647333"
     d="M 115.01367,53.859375 C 115.64164,52.716243 116,51.401379 116,50 v -8.990234 c -2.39327,1.010105 -5.02407,1.568359 -7.78516,1.568359 -11.065348,0 -20.035152,-8.967853 -20.035152,-20.033203 0,-3.869969 1.099874,-7.481775 3,-10.544922 h -8.142579 c -0.492347,1.2014 -0.900446,2.436765 -1.216797,3.697266 l -5.009765,0.291015 c -0.318609,1.572817 -0.517315,3.168324 -0.595703,4.771485 l 4.707031,1.558593 c -0.0025,0.07333 -0.0072,0.150703 -0.0098,0.226563 0.01012,1.264322 0.106425,2.525665 0.291016,3.777344 L 76.705078,28.5 c 0.303437,1.575346 0.723694,3.126543 1.259766,4.638672 l 4.955078,-0.357422 c 0.508258,1.236507 1.104375,2.43736 1.787109,3.587891 L 81.375,40.111328 c 0.887555,1.337656 1.874545,2.605886 2.949219,3.796875 l 4.429687,-2.224609 c 0.945714,0.948239 1.960482,1.825945 3.035156,2.625 l -1.65039,4.746094 c 1.330068,0.892614 2.730198,1.683873 4.18164,2.36914 l 3.236329,-3.74414 c 1.239035,0.513314 2.510819,0.931621 3.810549,1.257812 l 0.29297,5.009766 c 1.57282,0.31608 3.16636,0.516739 4.76953,0.597656 l 1.55859,-4.708984 c 0.0759,0.0026 0.1507,0.0073 0.22656,0.0098 1.26432,-0.0101 2.52567,-0.106429 3.77735,-0.291015 l 2.17773,4.5 c 0.28355,-0.05462 0.56178,-0.13316 0.84375,-0.195313 z" /><path
     id="path97"
     style="fill:#98c1f1;fill-opacity:1;stroke-width:0.647333"
     d="m 89.261719,112 h 8.53125 c -2.653837,-3.39826 -4.240235,-7.67214 -4.240235,-12.318359 0,-11.06535 8.969806,-20.033203 20.035156,-20.033203 0.81697,0 1.62076,0.05342 2.41211,0.148437 V 74 c 0,-1.605275 -0.47357,-3.093657 -1.28125,-4.34375 l -0.90625,2.734375 c -0.0759,-0.005 -0.14875,-0.0072 -0.22461,-0.0098 -1.26432,0.0076 -2.52566,0.106425 -3.77734,0.291016 l -2.17774,-4.5 c -1.57788,0.303438 -3.12793,0.723693 -4.64258,1.259766 l 0.36133,4.957031 c -1.2365,0.505729 -2.43735,1.104375 -3.587888,1.787109 L 96.021484,72.84375 c -1.337653,0.887554 -2.607837,1.870063 -3.798828,2.947266 l 2.226563,4.429687 c -0.948242,0.945713 -1.825373,1.960482 -2.626953,3.035156 l -4.744141,-1.65039 c -0.892612,1.332596 -1.686407,2.730198 -2.369141,4.18164 l 3.744141,3.236329 c -0.513315,1.236507 -0.933571,2.510822 -1.259766,3.810546 L 82.185547,93.125 c -0.318609,1.572817 -0.519268,3.168323 -0.597656,4.771484 l 4.708984,1.560547 c -0.0025,0.07333 -0.0092,0.14875 -0.01172,0.22461 0.01012,1.264329 0.106425,2.525659 0.291016,3.777339 l -4.498047,2.17774 c 0.303437,1.57534 0.723694,3.12849 1.259766,4.64062 l 4.955078,-0.35937 c 0.291,0.70796 0.620201,1.40013 0.968751,2.08203 z" /></svg>
