<?xml version="1.0" encoding="UTF-8" standalone="no"?>
<svg
   height="128px"
   viewBox="0 0 128 128"
   width="128px"
   version="1.1"
   id="svg45"
   sodipodi:docname="app.drey.Biblioteca.svg"
   inkscape:export-filename="../../../app.drey.Biblioteca.png"
   inkscape:export-xdpi="96"
   inkscape:export-ydpi="96"
   inkscape:version="1.3 (0e150ed6c4, 2023-07-21)"
   xmlns:inkscape="http://www.inkscape.org/namespaces/inkscape"
   xmlns:sodipodi="http://sodipodi.sourceforge.net/DTD/sodipodi-0.dtd"
   xmlns="http://www.w3.org/2000/svg"
   xmlns:svg="http://www.w3.org/2000/svg">
  <defs
     id="defs45" />
  <sodipodi:namedview
     id="namedview45"
     pagecolor="#505050"
     bordercolor="#ffffff"
     borderopacity="1"
     inkscape:showpageshadow="0"
     inkscape:pageopacity="0"
     inkscape:pagecheckerboard="1"
     inkscape:deskcolor="#d1d1d1"
     inkscape:current-layer="svg45" />
  <filter
     id="a"
     height="1"
     width="1"
     x="0"
     y="0">
    <feColorMatrix
       color-interpolation-filters="sRGB"
       values="0 0 0 0 1 0 0 0 0 1 0 0 0 0 1 0 0 0 1 0"
       id="feColorMatrix1" />
  </filter>
  <linearGradient
     id="b"
     gradientUnits="userSpaceOnUse"
     x1="12.00015"
     x2="28.00015"
     y1="72.00001"
     y2="72.00001">
    <stop
       offset="0"
       stop-color="#c64600"
       id="stop1" />
    <stop
       offset="0.5"
       stop-color="#ff8a21"
       id="stop2" />
    <stop
       offset="1"
       stop-color="#e66100"
       id="stop3" />
  </linearGradient>
  <linearGradient
     id="c"
     gradientUnits="userSpaceOnUse"
     x1="108.00015"
     x2="116.00015"
     y1="106"
     y2="106">
    <stop
       offset="0"
       stop-color="#c0bfbc"
       id="stop4" />
    <stop
       offset="0.5"
       stop-color="#f6f5f4"
       id="stop5" />
    <stop
       offset="1"
       stop-color="#c0bfbc"
       id="stop6" />
  </linearGradient>
  <linearGradient
     id="d"
     gradientTransform="matrix(-0 -1 1 -0 300.000153 100.000031)"
     gradientUnits="userSpaceOnUse"
     x1="-20.006874"
     x2="-13.146549"
     y1="-272.836212"
     y2="-281.372711">
    <stop
       offset="0"
       stop-color="#c64600"
       id="stop7" />
    <stop
       offset="0.400001"
       stop-color="#c64600"
       id="stop8" />
    <stop
       offset="1"
       stop-color="#8a3000"
       id="stop9" />
  </linearGradient>
  <linearGradient
     id="e"
     gradientTransform="matrix(0.940909 0 0 0.94091 1.22389 -151.28096)"
     gradientUnits="userSpaceOnUse"
     x1="18.367126"
     x2="21.996468"
     y1="280.538696"
     y2="286.82489">
    <stop
       offset="0"
       stop-color="#c64600"
       id="stop10" />
    <stop
       offset="1"
       stop-color="#ff7800"
       id="stop11" />
  </linearGradient>
  <mask
     id="f">
    <g
       filter="url(#a)"
       id="g11">
      <rect
         fill-opacity="0.302558"
         height="153.6"
         width="153.6"
         x="-12.8"
         y="-12.8"
         id="rect11" />
    </g>
  </mask>
  <clipPath
     id="g">
    <rect
       height="152"
       width="192"
       id="rect12" />
  </clipPath>
  <mask
     id="h">
    <g
       filter="url(#a)"
       id="g13">
      <rect
         fill-opacity="0.302558"
         height="153.6"
         width="153.6"
         x="-12.8"
         y="-12.8"
         id="rect13" />
    </g>
  </mask>
  <clipPath
     id="i">
    <rect
       height="152"
       width="192"
       id="rect14" />
  </clipPath>
  <path
     d="m 20 108 h 60 c 4.417969 0 8 3.582031 8 8 s -3.582031 8 -8 8 h -60 c -4.417969 0 -8 -3.582031 -8 -8 s 3.582031 -8 8 -8 z m 0 0"
     fill="#c64600"
     id="path14" />
  <path
     d="m 20 12 c 4.433594 0 8 3.566406 8 8 v 96 h -16 v -96 c 0 -4.433594 3.566406 -8 8 -8 z m 0 0"
     fill="url(#b)"
     id="path15" />
  <g
     fill="#f6f5f4"
     id="g18">
    <path
       d="m 28 40 h 18 v 76 h -18 z m 0 0"
       id="path16" />
    <path
       d="m 36 92 h 72 c 4.417969 0 8 3.582031 8 8 s -3.582031 8 -8 8 h -72 c -4.417969 0 -8 -3.582031 -8 -8 s 3.582031 -8 8 -8 z m 0 0"
       id="path17" />
    <path
       d="m 28 20 h 88 v 80 h -88 z m 0 0"
       id="path18" />
  </g>
  <path
     d="m 47.972656 30.1875 v 5.980469 h -0.746094 c -2.191406 0 -3.261718 1.207031 -3.261718 3.304687 v 6.617188 c 0 3.082031 -0.9375 4.375 -2.992188 5 c 2.054688 0.628906 2.992188 1.921875 2.992188 5.003906 v 6.769531 c 0 2.097657 1.070312 3.304688 3.261718 3.304688 h 0.746094 v 5.828125 h -1.566406 c -5.582031 0 -8.441406 -2.859375 -8.441406 -7.996094 v -7.730469 c 0 -1.429687 -0.757813 -2.105469 -1.964844 -2.101562 h -2.027344 v -5.957031 h 2.027344 c 1.207031 0 1.964844 -0.671876 1.964844 -2.097657 v -7.929687 c 0 -5.136719 2.859375 -7.996094 8.441406 -7.996094 z m 0 0"
     fill="#1a5fb4"
     id="path19" />
  <path
     d="m 77.992188 30.1875 v 5.980469 h 0.746093 c 2.191407 0 3.261719 1.207031 3.261719 3.304687 v 6.617188 c 0 3.082031 0.9375 4.375 2.992188 5 c -2.054688 0.628906 -2.992188 1.921875 -2.992188 5.003906 v 6.769531 c 0 2.097657 -1.070312 3.304688 -3.261719 3.304688 h -0.746093 v 5.828125 h 1.566406 c 5.582031 0 8.441406 -2.859375 8.441406 -7.996094 v -7.730469 c 0 -1.429687 0.757812 -2.105469 1.964844 -2.101562 h 2.027344 v -5.957031 h -2.027344 c -1.207032 0 -1.964844 -0.667969 -1.964844 -2.097657 v -7.929687 c 0 -5.136719 -2.859375 -7.996094 -8.441406 -7.996094 z m 0 0"
     fill="#1a5fb4"
     id="path20" />
  <path
     d="m 36 12 h 72 c 4.417969 0 8 3.582031 8 8 s -3.582031 8 -8 8 h -72 c -4.417969 0 -8 -3.582031 -8 -8 s 3.582031 -8 8 -8 z m 0 0"
     fill="#f6f5f4"
     id="path21" />
  <path
     d="m 36 92 h 72 c 4.417969 0 8 3.582031 8 8 s -3.582031 8 -8 8 h -72 c -4.417969 0 -8 -3.582031 -8 -8 s 3.582031 -8 8 -8 z m 0 0"
     fill="#f6f5f4"
     id="path22" />
  <path
     d="m 116 100 c 0 4.433594 -3.566406 8 -8 8 h -72 c -4.417969 0 -8 3.582031 -8 8 h 80 c 4.417969 0 8 -3.582031 8 -8 z m 0 0"
     fill="url(#c)"
     id="path23" />
  <path
     d="m 20 108 c 4.417969 0 8 3.582031 8 8 s -3.582031 8 -8 8 s -8 -3.582031 -8 -8 s 3.582031 -8 8 -8 z m 0 0"
     fill="url(#d)"
     id="path24" />
  <path
     d="m 20 107.875 c -4.53125 0 -8 3.488281 -8 8.125 c 0 4 3 8 8 8 v -2 c -3.523438 0 -6 -2.617188 -6 -6 c 0 -3.652344 2.414062 -6.09375 6.011719 -6.167969 c 3.382812 0 5.988281 2.660157 5.988281 6.042969 h 2 c 0 -5 -3.984375 -8 -8 -8 z m 0 0"
     fill="url(#e)"
     id="path25" />
  <path
     d="m 19.683594 122 h 60.316406 c 3.894531 0 8 -2.179688 8 -6 c 0 4.1875 -3.257812 8 -8 8 h -60.316406 z m 0 0"
     fill="#ff7800"
     id="path26" />
  <path
     d="m 74 18 v 42 h 2 v -42 z m 0 0"
     fill="#99c1f1"
     id="path27" />
  <path
     d="m 51.992188 18 v 42 h -1.992188 v -42 z m 0 0"
     fill="#99c1f1"
     id="path28" />
  <path
     d="m 55 22 l -2.433594 2.9375 l 2.433594 3.0625"
     fill="none"
     stroke="#241f31"
     stroke-linecap="round"
     stroke-width="2"
     id="path29" />
  <path
     d="m 52 24 v 1.988281 h 22 v -1.988281 z m 0 0"
     fill="#241f31"
     id="path30" />
  <path
     d="m 71 22 l 3 2.9375 l -3 3.0625"
     fill="none"
     stroke="#241f31"
     stroke-linecap="round"
     stroke-width="2"
     id="path31" />
  <path
     d="m 54 40 h 18 c 1.105469 0 2 0.894531 2 2 s -0.894531 2 -2 2 h -18 c -1.105469 0 -2 -0.894531 -2 -2 s 0.894531 -2 2 -2 z m 0 0"
     fill="#1c71d8"
     id="path32" />
  <path
     d="m 54 48 h 18 c 1.105469 0 2 0.894531 2 2 s -0.894531 2 -2 2 h -18 c -1.105469 0 -2 -0.894531 -2 -2 s 0.894531 -2 2 -2 z m 0 0"
     fill="#1c71d8"
     id="path33" />
  <path
     d="m 54 56 h 18 c 1.105469 0 2 0.894531 2 2 s -0.894531 2 -2 2 h -18 c -1.105469 0 -2 -0.894531 -2 -2 s 0.894531 -2 2 -2 z m 0 0"
     fill="#1c71d8"
     id="path34" />
  <path
     d="m 108 60 h -58 v 2 h 58 z m 0 0"
     fill="#99c1f1"
     id="path35" />
  <path
     d="m 108 40 h -58 v -1.992188 h 58 z m 0 0"
     fill="#99c1f1"
     id="path36" />
  <path
     d="m 104 43 l -2.9375 -2.425781 l -3.0625 2.425781"
     fill="none"
     stroke="#241f31"
     stroke-linecap="round"
     stroke-width="2"
     id="path37" />
  <path
     d="m 102 40.007812 h -1.988281 v 19.992188 h 1.988281 z m 0 0"
     fill="#241f31"
     id="path38" />
  <path
     d="m 104 57 l -2.9375 3 l -3.0625 -3"
     fill="none"
     stroke="#241f31"
     stroke-linecap="round"
     stroke-width="2"
     id="path39" />
  <path
     d="m 40 76 h 32 c 2.210938 0 4 1.789062 4 4 s -1.789062 4 -4 4 h -32 c -2.210938 0 -4 -1.789062 -4 -4 s 1.789062 -4 4 -4 z m 0 0"
     fill="#77767b"
     id="path40" />
  <path
     d="m 40 88 h 56 c 2.210938 0 4 1.789062 4 4 s -1.789062 4 -4 4 h -56 c -2.210938 0 -4 -1.789062 -4 -4 s 1.789062 -4 4 -4 z m 0 0"
     fill="#c0bfbc"
     id="path41" />
  <g
     mask="url(#f)"
     id="g43">
    <g
       clip-path="url(#g)"
       transform="matrix(1 0 0 1 -8 -16)"
       id="g42">
      <path
         d="m 168.46875 26 c -0.054688 0.003906 -0.109375 0.011719 -0.164062 0.03125 c -0.011719 0.007812 -0.027344 0.015625 -0.042969 0.019531 c -0.050781 0.023438 -0.097657 0.054688 -0.136719 0.09375 l -0.003906 0.003907 h -0.003906 c -0.035157 0.039062 -0.066407 0.085937 -0.089844 0.140624 c -0.007813 0.011719 -0.015625 0.027344 -0.019532 0.046876 c -0.019531 0.050781 -0.03125 0.105468 -0.035156 0.160156 v 0.003906 v 0.003906 c 0.003906 0.054688 0.015625 0.113282 0.035156 0.164063 c 0.007813 0.015625 0.011719 0.03125 0.019532 0.046875 c 0.023437 0.046875 0.050781 0.09375 0.089844 0.136718 l 0.003906 0.003907 l 2.0625 2.03125 c 0.199218 0.195312 0.480468 0.171875 0.675781 -0.027344 c 0.195313 -0.195313 0.140625 -0.589844 0.140625 -0.859375 v -1 h 5 v 1 c 0 0.21875 -0.050781 0.6875 0.144531 0.882812 c 0.195313 0.195313 0.511719 0.199219 0.707031 0.003907 l 2.0625 -2.03125 c 0.195313 -0.195313 0.199219 -0.511719 0.003907 -0.707031 c -0.097657 -0.097657 -0.234375 -0.152344 -0.375 -0.144532 c -0.015625 -0.003906 -0.027344 -0.003906 -0.042969 -0.003906 z m 0 0"
         id="path42" />
    </g>
  </g>
  <g
     mask="url(#h)"
     id="g45">
    <g
       clip-path="url(#i)"
       transform="matrix(1 0 0 1 -8 -16)"
       id="g44">
      <path
         d="m 181 24.527344 c 0.003906 0.054687 0.015625 0.109375 0.035156 0.164062 c 0.003906 0.011719 0.011719 0.027344 0.019532 0.042969 c 0.023437 0.050781 0.054687 0.09375 0.089843 0.136719 l 0.003907 0.003906 v 0.003906 c 0.042968 0.039063 0.089843 0.070313 0.140624 0.089844 c 0.011719 0.007812 0.03125 0.015625 0.046876 0.019531 c 0.050781 0.023438 0.105468 0.035157 0.160156 0.035157 h 0.003906 c 0.058594 0 0.113281 -0.011719 0.167969 -0.03125 c 0.015625 -0.007813 0.03125 -0.015626 0.042969 -0.019532 c 0.050781 -0.023437 0.09375 -0.054687 0.136718 -0.089844 l 0.007813 -0.003906 v -0.003906 l 2.03125 -2.0625 c 0.195312 -0.195312 0.171875 -0.476562 -0.027344 -0.671875 c -0.195313 -0.195313 -0.589844 -0.140625 -0.859375 -0.140625 h -1 v -3 h 1 c 0.21875 0 0.6875 0.050781 0.882812 -0.144531 c 0.195313 -0.195313 0.199219 -0.511719 0.003907 -0.707031 l -2.03125 -2.0625 c -0.195313 -0.195313 -0.511719 -0.199219 -0.707031 -0.003907 c -0.097657 0.097657 -0.152344 0.234375 -0.144532 0.375 c -0.003906 0.015625 -0.003906 0.027344 -0.003906 0.042969 v 8.027344 h -0.003906 z m 0 0"
         id="path43" />
    </g>
  </g>
</svg>
