<?xml version="1.0" encoding="UTF-8" standalone="no"?>
<svg
   height="128px"
   viewBox="0 0 128 128"
   width="128px"
   version="1.1"
   id="svg33"
   xml:space="preserve"
   xmlns:xlink="http://www.w3.org/1999/xlink"
   xmlns="http://www.w3.org/2000/svg"
   xmlns:svg="http://www.w3.org/2000/svg"><defs
     id="defs33"><radialGradient
       xlink:href="#b"
       id="radialGradient36"
       cx="159.52243"
       cy="83.412361"
       fx="159.52243"
       fy="83.412361"
       r="52"
       gradientTransform="matrix(2.4123149,0.64637782,-0.30810649,1.1498689,-336.06336,-126.68109)"
       gradientUnits="userSpaceOnUse" /><linearGradient
       xlink:href="#a"
       id="linearGradient38"
       x1="143.1385"
       y1="66"
       x2="247.1385"
       y2="66"
       gradientUnits="userSpaceOnUse"
       gradientTransform="translate(-131.13858)" /></defs><linearGradient
     id="a"
     gradientUnits="userSpaceOnUse"
     x1="8.0000015"
     x2="120.0000015"
     y1="115.999977"
     y2="115.999977"><stop
       offset="0"
       stop-color="#deddda"
       id="stop1" /><stop
       offset="0.0357143"
       stop-color="#f6f5f4"
       id="stop2" /><stop
       offset="0.0713653"
       stop-color="#deddda"
       id="stop3"
       style="stop-color:#c5c3be;stop-opacity:1;" /><stop
       offset="0.92857099"
       stop-color="#deddda"
       id="stop4"
       style="stop-color:#c5c3be;stop-opacity:1;" /><stop
       offset="0.96428603"
       stop-color="#f6f5f4"
       id="stop5"
       style="stop-color:#f6f5f4;stop-opacity:1;" /><stop
       offset="1"
       stop-color="#deddda"
       id="stop6"
       style="stop-color:#c5c4be;stop-opacity:1;" /></linearGradient><linearGradient
     id="b"
     gradientUnits="userSpaceOnUse"><stop
       offset="0"
       stop-color="#4bbfe5"
       id="stop7" /><stop
       offset="1"
       stop-color="#9141ac"
       id="stop8" /></linearGradient><radialGradient
     id="c"
     cx="29.491123"
     cy="109.784927"
     gradientTransform="matrix(1.953487 0.295654 -0.131445 0.868505 -21.957144 -27.30719)"
     r="56"
     xlink:href="#b" /><radialGradient
     id="d"
     cx="104.212189"
     cy="83.412865"
     gradientTransform="matrix(0.0162272,-1.154436,1.225278,0.017223,16.82208,131.83411)"
     gradientUnits="userSpaceOnUse"
     r="56"><stop
       offset="0"
       stop-color="#f66151"
       id="stop9" /><stop
       offset="1"
       stop-color="#ed333b"
       stop-opacity="0"
       id="stop10" /></radialGradient><filter
     id="e"
     height="1"
     width="1"
     x="0"
     y="0"><feColorMatrix
       in="SourceGraphic"
       type="matrix"
       values="0 0 0 0 1 0 0 0 0 1 0 0 0 0 1 0 0 0 1 0"
       id="feColorMatrix10" /></filter><mask
     id="f"><g
       filter="url(#e)"
       id="g10"><rect
         fill-opacity="0.1"
         height="128"
         width="128"
         id="rect10" /></g></mask><clipPath
     id="g"><rect
       height="152"
       width="192"
       id="rect11" /></clipPath><mask
     id="h"><g
       filter="url(#e)"
       id="g12"><rect
         fill-opacity="0.154"
         height="128"
         width="128"
         id="rect12" /></g></mask><clipPath
     id="i"><rect
       height="152"
       width="192"
       id="rect13" /></clipPath><radialGradient
     id="j"
     cx="31.13185598259"
     cy="85.99992432621"
     r="76.06456014758"
     xlink:href="#b" /><radialGradient
     id="k"
     cx="109.98847032157"
     cy="3.56956334146"
     gradientUnits="userSpaceOnUse"
     r="66.01153158062"><stop
       offset="0"
       stop-color="#f66151"
       id="stop13" /><stop
       offset="1"
       stop-color="#ed333b"
       stop-opacity="0.000613"
       id="stop14" /></radialGradient><mask
     id="l"><g
       filter="url(#e)"
       id="g14"><rect
         fill-opacity="0.154"
         height="128"
         width="128"
         id="rect14" /></g></mask><clipPath
     id="m"><rect
       height="152"
       width="192"
       id="rect15" /></clipPath><path
     id="rect37"
     style="display:inline;fill:url(#linearGradient38);fill-opacity:1;stroke:none;stroke-width:0.25;stroke-linecap:butt;stroke-linejoin:miter;stroke-miterlimit:4;stroke-dasharray:none;stroke-dashoffset:0;stroke-opacity:1;marker:none;marker-start:none;marker-mid:none;marker-end:none;paint-order:normal;enable-background:new"
     d="m 12.00009,86 v 22 c 0,4.432 3.568,8 8,8 h 88 c 4.432,0 8,-3.568 8,-8 V 86 Z" /><path
     id="rect1711-2"
     style="display:inline;fill:url(#radialGradient36);fill-opacity:1;stroke:none;stroke-width:0.25;stroke-linecap:butt;stroke-linejoin:miter;stroke-miterlimit:4;stroke-dasharray:none;stroke-dashoffset:0;stroke-opacity:1;marker:none;marker-start:none;marker-mid:none;marker-end:none;paint-order:normal;enable-background:new"
     d="m 20.00009,12 c -4.432,0 -8,3.568 -8,8 v 66 h 104 V 20 c 0,-4.432 -3.568,-8 -8,-8 z" /><path
     d="m 51.86728,12 c -4.43359,0 -8,3.566406 -8,8 v 52 h 72.13264 V 20 c 0,-4.433594 -3.5664,-8 -8,-8 z"
     fill="url(#d)"
     id="path18"
     style="fill:url(#d)" /><path
     style="display:inline;fill:#f1f3f5;fill-opacity:1;stroke:none;stroke-width:0.25;stroke-linecap:butt;stroke-linejoin:miter;stroke-miterlimit:4;stroke-dasharray:none;stroke-dashoffset:0;stroke-opacity:1;marker:none;marker-start:none;marker-mid:none;marker-end:none;paint-order:normal;enable-background:new"
     d="m 19.99992,112 h 88 c 4.432,0 8,-3.568 8,-8 V 86.000002 h -104 V 104 c 0,4.432 3.568,8 8,8 z"
     id="path38" /><path
     id="path49"
     style="display:inline;fill:#5c656b;fill-opacity:1;fill-rule:nonzero;stroke:none;stroke-width:1"
     d="m 55.46103,94.499803 c 0,2 0,4 0,5.999997 16.61542,-0.0103 33.23187,0.0206 49.84664,-0.0154 2.30373,-0.12061 3.55504,-3.190091 2.00903,-4.894983 -1.24757,-1.551417 -3.34468,-0.979046 -5.0664,-1.089584 -15.59642,0 -31.19285,0 -46.78927,0 z" /><path
     id="path48"
     style="display:inline;fill:#bc3715;fill-opacity:1;fill-rule:nonzero;stroke:none"
     d="m 23.00009,94.5 c -1.662,0 -3,1.338 -3,3 0,1.662 1.338,3 3,3 h 33 v -6 z" /><path
     id="path46"
     style="display:inline;fill:#758087;fill-opacity:1;fill-rule:nonzero;stroke:none;stroke-width:1"
     d="m 55.46103,95.5 c 0,2 0,4 0,6 16.61542,-0.0103 33.23187,0.0206 49.84664,-0.0154 2.30373,-0.12061 3.55504,-3.190094 2.00903,-4.894986 -1.24757,-1.551417 -3.34468,-0.979046 -5.0664,-1.089584 -15.59642,0 -31.19285,0 -46.78927,0 z" /><path
     id="path40"
     style="display:inline;fill:#e6461d;fill-opacity:1;fill-rule:nonzero;stroke:none"
     d="m 23.00009,95.5 c -1.662,0 -3,1.338 -3,3 0,1.662 1.338,3 3,3 h 33 v -6 z" /><rect
     y="94.5"
     x="45.999924"
     height="7"
     width="16"
     id="rect3419-3"
     style="display:inline;opacity:0.2;fill:#d2d8dc;fill-opacity:1;fill-rule:nonzero;stroke:none;stroke-width:1" /><path
     d="m 41.15168,33.008922 c -0.50333,0.0303 -0.97703,0.2664 -1.30266,0.63653 -4.05603,4.58888 -6.17284,9.79951 -6.17284,15.11379 0,5.29942 2.10203,10.64329 6.12842,15.54307 0.65131,0.81415 1.85037,0.93257 2.66451,0.26641 0.79937,-0.66613 0.91779,-1.85037 0.26641,-2.66451 -3.58226,-4.36685 -5.26979,-8.83731 -5.26979,-13.14497 0,-4.32248 1.67275,-8.58572 5.22545,-12.5973 0.69572,-0.79937 0.6069,-1.99842 -0.17773,-2.67933 -0.37024,-0.3403 -0.87338,-0.50332 -1.36185,-0.47369 z m 45.40056,0 c -0.39965,0.0443 -0.76974,0.20729 -1.06581,0.47369 -0.79933,0.68091 -0.87334,1.87996 -0.17773,2.67933 3.5527,4.01158 5.22545,8.27482 5.22545,12.5973 0,4.30766 -1.68753,8.77812 -5.26983,13.145 -0.66616,0.81415 -0.54774,1.99839 0.26641,2.66451 0.81414,0.66613 1.99838,0.54771 2.66451,-0.2664 4.01158,-4.89978 6.12842,-10.24361 6.12842,-15.54307 0,-5.31424 -2.13162,-10.52487 -6.17284,-15.11379 -0.39968,-0.45892 -0.9918,-0.69576 -1.59873,-0.63653 z m -30.68646,0.62171 c -1.82076,0.0888 -3.24185,1.58392 -3.24185,3.40469 v 24.09915 c 0,2.56091 2.79775,4.11523 4.97379,2.78297 l 19.95433,-12.31604 c 1.9096,-1.18423 1.92441,-3.9672 0.0152,-5.16622 L 57.8498,34.133922 c -0.59211,-0.37024 -1.28788,-0.5477 -1.9836,-0.50329 z m -8.94099,3.98199 c -0.6069,-0.0152 -1.18423,0.2664 -1.55428,0.74013 -2.59054,3.36028 -4.05604,6.91298 -4.10041,10.58411 -0.0303,3.65634 1.39145,7.28306 4.11519,10.74694 0.65134,0.81414 1.83558,0.94738 2.66454,0.31074 0.81415,-0.65131 0.94739,-1.85036 0.31075,-2.66451 -2.33888,-2.94581 -3.33068,-5.68433 -3.30104,-8.34887 0.0303,-2.67933 1.08059,-5.41789 3.31585,-8.31924 0.6365,-0.82897 0.4737,-2.0132 -0.35508,-2.64973 -0.31074,-0.25163 -0.69576,-0.38487 -1.09544,-0.39969 z m 34.15037,0 c -0.39968,0.0152 -0.78455,0.14817 -1.09541,0.39968 -0.84378,0.62172 -0.9918,1.82077 -0.35508,2.64973 2.22045,2.90136 3.28626,5.63991 3.31586,8.31924 0.0152,2.66455 -0.9622,5.40307 -3.30104,8.34887 -0.65135,0.81415 -0.50333,2.0132 0.31074,2.66451 0.82897,0.63653 2.0132,0.50329 2.66451,-0.31074 2.72374,-3.46388 4.14482,-7.09059 4.11523,-10.74694 -0.0443,-3.67113 -1.52469,-7.22383 -4.10041,-10.5841 -0.37024,-0.4737 -0.94739,-0.75496 -1.55432,-0.74014 z m 0,0"
     fill="#222222"
     id="path1"
     style="fill:#ffffff;stroke-width:3.78955" /></svg>
