<?xml version="1.0" encoding="UTF-8" standalone="no"?>
<svg
   height="128px"
   viewBox="0 0 128 128"
   width="128px"
   version="1.1"
   id="svg17"
   xmlns:xlink="http://www.w3.org/1999/xlink"
   xmlns="http://www.w3.org/2000/svg"
   xmlns:svg="http://www.w3.org/2000/svg">
  <defs
     id="defs17" />
  <linearGradient
     id="a"
     gradientUnits="userSpaceOnUse">
    <stop
       offset="0"
       stop-color="#c0bfbc"
       id="stop1" />
    <stop
       offset="0.520057"
       stop-color="#deddda"
       id="stop2" />
    <stop
       offset="1"
       stop-color="#c0bfbc"
       id="stop3" />
  </linearGradient>
  <linearGradient
     id="b"
     x1="14.881946"
     x2="57.24205"
     xlink:href="#a"
     y1="37.472794"
     y2="76.129044"
     gradientTransform="matrix(-1,0,0,1,134,0)" />
  <linearGradient
     id="c"
     gradientTransform="matrix(-0.8660253,0.50000018,0.50000018,0.8660253,8.2295621,-181.40135)"
     x1="32.168236"
     x2="64.444725"
     xlink:href="#a"
     y1="195.258087"
     y2="242.450409" />
  <linearGradient
     id="d"
     gradientUnits="userSpaceOnUse"
     x1="29.999985"
     x2="118"
     y1="82.000534"
     y2="82.000534"
     gradientTransform="matrix(-1,0,0,1,134,0)">
    <stop
       offset="0"
       stop-color="#8b1826"
       id="stop4" />
    <stop
       offset="0.159091"
       stop-color="#ed333b"
       id="stop5" />
    <stop
       offset="0.295455"
       stop-color="#a51d2d"
       id="stop6" />
    <stop
       offset="1"
       stop-color="#901927"
       id="stop7" />
  </linearGradient>
  <path
     d="m 118,46 c 0,13.253906 -10.74609,22 -24,22 V 54 H 82 c -2.210938,0 -4,1.789062 -4,4 0,2.210938 1.789062,4 4,4 h 6 v 6 H 40 V 46 Z m 0,0"
     fill="#9a9996"
     id="path7" />
  <path
     d="m 118,44 c 0,13.253906 -10.74609,22 -24,22 V 52 H 82 c -2.210938,0 -4,1.789062 -4,4 0,2.210938 1.789062,4 4,4 h 6 v 6 H 40 V 44 Z m 0,0"
     fill="url(#b)"
     id="path8"
     style="fill:url(#b)" />
  <path
     d="m 25.35937,47.269531 72.746099,-42 c 6.000001,10.390625 -4.320313,32.515625 -19.910157,41.515625 l -39.835937,23 z m 0,0"
     fill="#9a9996"
     id="path9" />
  <path
     d="m 25.35937,44.269531 72.746099,-42 c 6.000001,10.390625 -4.320313,32.515625 -19.910157,41.515625 l -39.835937,23 z m 0,0"
     fill="url(#c)"
     id="path10"
     style="fill:url(#c)" />
  <path
     d="M 88.710938,10 61,26 c 0.5,0.867188 2.730469,0.730469 4.464844,-0.269531 l 20.785156,-12 c 1.730469,-1 2.960938,-2.863281 2.460938,-3.730469 z m 0,0"
     fill="#77767b"
     id="path11" />
  <path
     d="m 32.83594,38.019531 c 1.11718,0.05859 2.222654,0.234375 3.304685,0.527344 2.714844,0.726563 5.1875,2.152344 7.171875,4.140625 l 56,56 c 1.51563,1.51563 2.70703,3.32422 3.50781,5.3125 H 104 v 5.98047 c 0.004,4.25 -1.67969,8.32812 -4.6875,11.33203 -6.246094,6.25 -16.378906,6.25 -22.625,0 l -56,-56 C 17.44141,62.066406 15.74609,57.582031 16.03125,53 H 16 v -6 h 1.62109 c 0.77344,-1.597656 1.8125,-3.054688 3.06641,-4.3125 3.20312,-3.207031 7.62109,-4.902344 12.14844,-4.667969 z m 0,0"
     fill="url(#d)"
     id="path12"
     style="fill:url(#d)" />
  <path
     d="m 36.140625,32.542969 c 2.714844,0.730469 5.1875,2.15625 7.171875,4.144531 l 56,56 c 6.25,6.246094 6.25,16.37891 0,22.625 -6.246094,6.25 -16.378906,6.25 -22.625,0 l -56,-56 c -6.25,-6.246094 -6.25,-16.378906 0,-22.625 4.03906,-4.042969 9.93359,-5.621094 15.453125,-4.144531 z m 0,0"
     fill="#e01b24"
     id="path13" />
  <g
     fill="none"
     stroke="#ffffff"
     stroke-width="3"
     transform="translate(8,-148)"
     id="g17">
    <path
       d="M 82,242 70,254"
       id="path14" />
    <path
       d="M 78,238 66,250"
       id="path15" />
    <path
       d="m 66,242 12,12"
       id="path16" />
    <path
       d="m 70,238 12,12"
       id="path17" />
  </g>
</svg>
