<?xml version="1.0" encoding="UTF-8" standalone="no"?>
<svg
   viewBox="0 0 128 128"
   style="display:inline;enable-background:new"
   version="1.0"
   id="svg11300"
   height="128"
   width="128"
   xml:space="preserve"
   xmlns:xlink="http://www.w3.org/1999/xlink"
   xmlns="http://www.w3.org/2000/svg"
   xmlns:svg="http://www.w3.org/2000/svg"
   xmlns:rdf="http://www.w3.org/1999/02/22-rdf-syntax-ns#"
   xmlns:cc="http://creativecommons.org/ns#"
   xmlns:dc="http://purl.org/dc/elements/1.1/"><title
     id="title4162">Adwaita Icon Template</title><defs
     id="defs3"><linearGradient
       id="linearGradient974"><stop
         style="stop-color:#181b21;stop-opacity:1;"
         offset="0"
         id="stop962" /><stop
         id="stop964"
         offset="0.04166667"
         style="stop-color:#586679;stop-opacity:1;" /><stop
         style="stop-color:#181b21;stop-opacity:1;"
         offset="0.08333334"
         id="stop966" /><stop
         id="stop968"
         offset="0.91666669"
         style="stop-color:#181b21;stop-opacity:1;" /><stop
         style="stop-color:#586679;stop-opacity:1;"
         offset="0.95833331"
         id="stop970" /><stop
         style="stop-color:#181b20;stop-opacity:1;"
         offset="1"
         id="stop972" /></linearGradient><linearGradient
       y2="44"
       x2="464"
       y1="44"
       x1="48"
       gradientTransform="matrix(0.25,0,0,0.25,0,53)"
       gradientUnits="userSpaceOnUse"
       id="linearGradient1747"
       xlink:href="#linearGradient974" /><linearGradient
       id="outerBackgroundGradient-43"><stop
         style="stop-color:#2c333d;stop-opacity:1"
         offset="0"
         id="stop3864-8-6-744" /><stop
         style="stop-color:#485362;stop-opacity:1"
         offset="1"
         id="stop3866-9-1-541" /></linearGradient><clipPath
       clipPathUnits="userSpaceOnUse"
       id="clipPath10483-3"><path
         id="path10485-7"
         d="m 84,46.500023 c -27.43126,0 -49.5,22.06873 -49.5,49.5 V 216.00002 c 0,27.43127 22.06874,49.5 49.5,49.5 h 120 c 27.43127,0 49.5,-22.06873 49.5,-49.5 V 96.000023 c 0,-27.43127 -22.06873,-49.5 -49.5,-49.5 z"
         style="color:#bebebe;display:inline;overflow:visible;visibility:visible;opacity:0.5;fill:#bf4f4f;fill-opacity:1;fill-rule:nonzero;stroke:none;stroke-width:2;marker:none;enable-background:accumulate" /></clipPath><linearGradient
       xlink:href="#outerBackgroundGradient-43"
       id="linearGradient5"
       x1="64"
       y1="112"
       x2="64"
       y2="12"
       gradientUnits="userSpaceOnUse" /></defs><metadata
     id="metadata4"><rdf:RDF><cc:Work
         rdf:about=""><dc:format>image/svg+xml</dc:format><dc:type
           rdf:resource="http://purl.org/dc/dcmitype/StillImage" /><dc:creator><cc:Agent><dc:title>GNOME Design Team</dc:title></cc:Agent></dc:creator><dc:source /><cc:license
           rdf:resource="http://creativecommons.org/licenses/by-sa/4.0/" /><dc:title>Adwaita Icon Template</dc:title><dc:subject><rdf:Bag /></dc:subject><dc:date /><dc:rights><cc:Agent><dc:title /></cc:Agent></dc:rights><dc:publisher><cc:Agent><dc:title /></cc:Agent></dc:publisher><dc:identifier /><dc:relation /><dc:language /><dc:coverage /><dc:description /><dc:contributor><cc:Agent><dc:title /></cc:Agent></dc:contributor></cc:Work><cc:License
         rdf:about="http://creativecommons.org/licenses/by-sa/4.0/"><cc:permits
           rdf:resource="http://creativecommons.org/ns#Reproduction" /><cc:permits
           rdf:resource="http://creativecommons.org/ns#Distribution" /><cc:requires
           rdf:resource="http://creativecommons.org/ns#Notice" /><cc:requires
           rdf:resource="http://creativecommons.org/ns#Attribution" /><cc:permits
           rdf:resource="http://creativecommons.org/ns#DerivativeWorks" /><cc:requires
           rdf:resource="http://creativecommons.org/ns#ShareAlike" /></cc:License></rdf:RDF></metadata><rect
     ry="8"
     rx="8"
     y="32"
     x="12"
     height="83.999992"
     width="104"
     id="rect1709"
     style="display:inline;fill:url(#linearGradient1747);fill-opacity:1;stroke:none;stroke-width:0.25;stroke-linecap:butt;stroke-linejoin:miter;stroke-miterlimit:4;stroke-dasharray:none;stroke-dashoffset:0;stroke-opacity:1;marker:none;marker-start:none;marker-mid:none;marker-end:none;paint-order:normal;enable-background:new" /><rect
     style="display:inline;fill:url(#linearGradient5);fill-opacity:1;stroke:none;stroke-width:0.25;stroke-linecap:butt;stroke-linejoin:miter;stroke-miterlimit:4;stroke-dasharray:none;stroke-dashoffset:0;stroke-opacity:1;marker:none;marker-start:none;marker-mid:none;marker-end:none;paint-order:normal;enable-background:new"
     id="rect1711"
     width="104"
     height="100"
     x="12"
     y="12"
     rx="8"
     ry="8" /><g
     style="display:inline;enable-background:new"
     id="g10455"
     transform="matrix(0.43619692,0,0,0.2469803,-118.77293,46.610367)"
     clip-path="url(#clipPath10483-3)"><path
       clip-path="none"
       style="color:#000000;font-style:normal;font-variant:normal;font-weight:normal;font-stretch:normal;font-size:medium;line-height:normal;font-family:Sans;-inkscape-font-specification:Sans;text-indent:0;text-align:start;text-decoration:none;text-decoration-line:none;letter-spacing:normal;word-spacing:normal;text-transform:none;writing-mode:lr-tb;direction:ltr;baseline-shift:baseline;text-anchor:start;display:inline;overflow:visible;visibility:visible;opacity:0;fill:#000000;fill-opacity:1;stroke:none;stroke-width:0.174836px;marker:none;enable-background:accumulate"
       d="m 41.249978,241.99996 c 0.193228,0.31793 0.393674,0.62431 0.59375,0.9375 H 246.15623 c 0.20008,-0.31319 0.40052,-0.61957 0.59375,-0.9375 z"
       id="path4269" /></g><path
     id="path3852"
     d="m 68.037874,37.257706 c -2.828182,-0.0063 -5.172038,0.481775 -7.445981,1.623856 -2.106979,1.058239 -4.667061,3.161593 -5.940942,4.831965 -2.154058,2.82448 -2.070537,2.744325 -3.089288,2.33677 -3.212139,-1.284995 -6.908793,-1.506243 -9.861961,-0.594093 -5.466276,1.688351 -9.390424,6.945202 -9.624328,12.911639 -0.03765,0.960691 -0.132337,1.850131 -0.237634,2.019924 -0.105323,0.169783 -0.795891,0.455121 -1.505038,0.633698 -3.360174,0.846091 -6.008635,2.998368 -7.406373,5.980548 -0.663045,1.41462 -0.75252,1.903737 -0.75252,4.752753 0,2.995336 0.03837,3.218055 0.871339,4.911179 1.448535,2.94469 5.465663,6.257789 9.267868,6.257789 h 7.366763 c -0.02102,-0.221721 -0.174483,-0.634958 -0.396063,-1.069371 -0.783875,-1.536515 -1.345789,-4.223723 -1.346609,-6.416215 -0.0027,-6.023829 3.606588,-10.714757 9.822351,-12.753219 2.007653,-0.658401 2.495196,-0.964062 2.495196,-1.544641 0,-0.818349 1.490653,-4.134477 2.653622,-5.901335 1.631282,-2.478328 3.768271,-4.378654 6.455824,-5.703305 6.727172,-3.315709 14.637452,-2.23483 19.486283,2.614012 l 1.742677,1.703074 1.861496,-0.475277 c 1.036578,-0.270171 2.239316,-0.506201 2.653615,-0.514881 0.94935,-0.01992 1.002898,-0.717998 0.198032,-3.128897 C 82.787131,42.187967 75.94238,37.277097 68.037874,37.257706 Z M 67.522988,50.80305 c -3.351181,-0.01798 -4.754905,0.315149 -7.525191,1.703069 -2.64698,1.32612 -5.117905,4.54742 -6.455819,8.436138 -0.294493,0.855999 -0.55449,1.814483 -0.55449,2.138735 0,1.033389 -0.629035,1.48528 -2.65362,1.9011 -4.068739,0.835676 -7.149431,3.129681 -8.317318,6.138976 -0.476426,1.227652 -0.636552,2.131143 -0.633697,4.03984 0.009,5.97005 3.456338,11.56503 8.673768,11.56503 1.267402,0 6.391315,0.03693 25.546047,0 h 23.882585 c 3.802207,0 6.047667,-5.025459 6.297397,-7.723227 0.37948,-4.925561 -1.72499,-8.266276 -6.17858,-9.861955 L 98.059428,68.586265 97.861396,66.447523 C 97.225033,58.651112 89.343968,53.963782 81.42479,56.704384 l -1.623856,0.594094 -1.861495,-1.940707 C 74.618403,51.87002 72.282369,50.828612 67.522988,50.80305 Z"
     style="display:inline;fill:#ffffff;fill-opacity:1;stroke:none;stroke-width:0.522828;enable-background:new" /></svg>
