<?xml version="1.0" encoding="UTF-8" standalone="no"?>
<svg
   height="128px"
   viewBox="0 0 128 128"
   width="128px"
   version="1.1"
   id="svg45"
   xml:space="preserve"
   xmlns:xlink="http://www.w3.org/1999/xlink"
   xmlns="http://www.w3.org/2000/svg"
   xmlns:svg="http://www.w3.org/2000/svg"><defs
     id="defs45"><linearGradient
       id="linearGradient55"><stop
         style="stop-color:#ffbd21;stop-opacity:1;"
         offset="0.16687033"
         id="stop53" /><stop
         style="stop-color:#b88100;stop-opacity:1;"
         offset="0.2456383"
         id="stop54" /><stop
         style="stop-color:#ffbd21;stop-opacity:1;"
         offset="0.39900297"
         id="stop55" /></linearGradient><linearGradient
       id="linearGradient51"><stop
         style="stop-color:#ffbd21;stop-opacity:1;"
         offset="0.19691141"
         id="stop49" /><stop
         style="stop-color:#b88100;stop-opacity:1;"
         offset="0.54000002"
         id="stop50" /><stop
         style="stop-color:#ffbd21;stop-opacity:1;"
         offset="0.8075338"
         id="stop51" /></linearGradient><linearGradient
       id="linearGradient45"><stop
         style="stop-color:#ffbd21;stop-opacity:1;"
         offset="0.19691141"
         id="stop45" /><stop
         style="stop-color:#b88100;stop-opacity:1;"
         offset="0.25111744"
         id="stop47" /><stop
         style="stop-color:#ffbd21;stop-opacity:1;"
         offset="0.35994047"
         id="stop46" /></linearGradient><linearGradient
       id="linearGradient32"><stop
         style="stop-color:#943400;stop-opacity:1;"
         offset="0"
         id="stop32" /><stop
         style="stop-color:#ff8a21;stop-opacity:1;"
         offset="0.02946911"
         id="stop34" /><stop
         style="stop-color:#943400;stop-opacity:1;"
         offset="0.06766067"
         id="stop35" /><stop
         style="stop-color:#943400;stop-opacity:1;"
         offset="0.92923254"
         id="stop36" /><stop
         style="stop-color:#ff8a21;stop-opacity:1;"
         offset="0.95709622"
         id="stop37" /><stop
         style="stop-color:#943500;stop-opacity:1;"
         offset="1"
         id="stop33" /></linearGradient><linearGradient
       id="linearGradient18"><stop
         style="stop-color:#333333;stop-opacity:1;"
         offset="0"
         id="stop19" /><stop
         style="stop-color:#6e6e6e;stop-opacity:1;"
         offset="0.41277558"
         id="stop21" /><stop
         style="stop-color:#333333;stop-opacity:1;"
         offset="0.80951017"
         id="stop22" /><stop
         style="stop-color:#616161;stop-opacity:1;"
         offset="1"
         id="stop20" /></linearGradient><linearGradient
       id="linearGradient3"><stop
         style="stop-color:#999999;stop-opacity:1;"
         offset="0"
         id="stop12" /><stop
         style="stop-color:#4d4d4d;stop-opacity:1;"
         offset="0.08539803"
         id="stop14" /><stop
         style="stop-color:#4d4d4d;stop-opacity:1;"
         offset="0.43638858"
         id="stop15" /><stop
         style="stop-color:#b2b2b2;stop-opacity:1;"
         offset="0.49673072"
         id="stop16" /><stop
         style="stop-color:#4d4d4d;stop-opacity:1;"
         offset="0.55561692"
         id="stop17" /><stop
         style="stop-color:#4d4d4d;stop-opacity:1;"
         offset="0.91216463"
         id="stop18" /><stop
         style="stop-color:#999999;stop-opacity:1;"
         offset="1"
         id="stop13" /></linearGradient><linearGradient
       xlink:href="#linearGradient3"
       id="linearGradient13"
       x1="-127.56856"
       y1="62.816801"
       x2="-23.568561"
       y2="62.816801"
       gradientUnits="userSpaceOnUse"
       gradientTransform="translate(139.56856,3.18345)" /><linearGradient
       xlink:href="#linearGradient18"
       id="linearGradient20"
       x1="-112.71141"
       y1="85.145411"
       x2="-38.425697"
       y2="85.145411"
       gradientUnits="userSpaceOnUse"
       gradientTransform="matrix(0.99615386,0,0,0.99547966,139.13506,5.239593)" /><linearGradient
       xlink:href="#linearGradient32"
       id="linearGradient33"
       x1="-40.285573"
       y1="101.81661"
       x2="-23.568554"
       y2="101.81661"
       gradientUnits="userSpaceOnUse"
       gradientTransform="matrix(0.99995486,0,0,1,139.56674,1.18345)" /><linearGradient
       xlink:href="#linearGradient45"
       id="linearGradient47"
       x1="-53.836449"
       y1="50.139938"
       x2="-60.752186"
       y2="94.802361"
       gradientUnits="userSpaceOnUse"
       gradientTransform="translate(139.56856,1.18345)" /><linearGradient
       xlink:href="#linearGradient51"
       id="linearGradient52"
       x1="-40.086411"
       y1="72.191406"
       x2="-29.14039"
       y2="62.414062"
       gradientUnits="userSpaceOnUse"
       gradientTransform="translate(139.56856,1.18345)" /><linearGradient
       xlink:href="#linearGradient55"
       id="linearGradient53"
       gradientUnits="userSpaceOnUse"
       x1="-20.0721"
       y1="73.38607"
       x2="-63.492226"
       y2="73.147217"
       gradientTransform="translate(139.56856,1.18345)" /></defs><filter
     id="a"
     height="1"
     width="1"
     x="0"
     y="0"><feColorMatrix
       color-interpolation-filters="sRGB"
       values="0 0 0 0 1 0 0 0 0 1 0 0 0 0 1 0 0 0 1 0"
       id="feColorMatrix1" /></filter><linearGradient
     id="b"
     gradientUnits="userSpaceOnUse"
     x1="12.00015"
     x2="28.00015"
     y1="72.00001"
     y2="72.00001"><stop
       offset="0"
       stop-color="#c64600"
       id="stop1" /><stop
       offset="0.5"
       stop-color="#ff8a21"
       id="stop2" /><stop
       offset="1"
       stop-color="#e66100"
       id="stop3" /></linearGradient><linearGradient
     id="c"
     gradientUnits="userSpaceOnUse"
     x1="108.00015"
     x2="116.00015"
     y1="106"
     y2="106"><stop
       offset="0"
       stop-color="#c0bfbc"
       id="stop4" /><stop
       offset="0.5"
       stop-color="#f6f5f4"
       id="stop5" /><stop
       offset="1"
       stop-color="#c0bfbc"
       id="stop6" /></linearGradient><linearGradient
     id="d"
     gradientTransform="matrix(-0 -1 1 -0 300.000153 100.000031)"
     gradientUnits="userSpaceOnUse"
     x1="-20.006874"
     x2="-13.146549"
     y1="-272.836212"
     y2="-281.372711"><stop
       offset="0"
       stop-color="#c64600"
       id="stop7" /><stop
       offset="0.400001"
       stop-color="#c64600"
       id="stop8" /><stop
       offset="1"
       stop-color="#8a3000"
       id="stop9" /></linearGradient><linearGradient
     id="e"
     gradientTransform="matrix(0.940909 0 0 0.94091 1.22389 -151.28096)"
     gradientUnits="userSpaceOnUse"
     x1="18.367126"
     x2="21.996468"
     y1="280.538696"
     y2="286.82489"><stop
       offset="0"
       stop-color="#c64600"
       id="stop10" /><stop
       offset="1"
       stop-color="#ff7800"
       id="stop11" /></linearGradient><mask
     id="f"><g
       filter="url(#a)"
       id="g11"><rect
         fill-opacity="0.302558"
         height="153.6"
         width="153.6"
         x="-12.8"
         y="-12.8"
         id="rect11" /></g></mask><clipPath
     id="g"><rect
       height="152"
       width="192"
       id="rect12" /></clipPath><mask
     id="h"><g
       filter="url(#a)"
       id="g13"><rect
         fill-opacity="0.302558"
         height="153.6"
         width="153.6"
         x="-12.8"
         y="-12.8"
         id="rect13" /></g></mask><clipPath
     id="i"><rect
       height="152"
       width="192"
       id="rect14" /></clipPath><g
     mask="url(#f)"
     id="g43"><g
       clip-path="url(#g)"
       transform="matrix(1 0 0 1 -8 -16)"
       id="g42"><path
         d="m 168.46875 26 c -0.054688 0.003906 -0.109375 0.011719 -0.164062 0.03125 c -0.011719 0.007812 -0.027344 0.015625 -0.042969 0.019531 c -0.050781 0.023438 -0.097657 0.054688 -0.136719 0.09375 l -0.003906 0.003907 h -0.003906 c -0.035157 0.039062 -0.066407 0.085937 -0.089844 0.140624 c -0.007813 0.011719 -0.015625 0.027344 -0.019532 0.046876 c -0.019531 0.050781 -0.03125 0.105468 -0.035156 0.160156 v 0.003906 v 0.003906 c 0.003906 0.054688 0.015625 0.113282 0.035156 0.164063 c 0.007813 0.015625 0.011719 0.03125 0.019532 0.046875 c 0.023437 0.046875 0.050781 0.09375 0.089844 0.136718 l 0.003906 0.003907 l 2.0625 2.03125 c 0.199218 0.195312 0.480468 0.171875 0.675781 -0.027344 c 0.195313 -0.195313 0.140625 -0.589844 0.140625 -0.859375 v -1 h 5 v 1 c 0 0.21875 -0.050781 0.6875 0.144531 0.882812 c 0.195313 0.195313 0.511719 0.199219 0.707031 0.003907 l 2.0625 -2.03125 c 0.195313 -0.195313 0.199219 -0.511719 0.003907 -0.707031 c -0.097657 -0.097657 -0.234375 -0.152344 -0.375 -0.144532 c -0.015625 -0.003906 -0.027344 -0.003906 -0.042969 -0.003906 z m 0 0"
         id="path42" /></g></g><g
     mask="url(#h)"
     id="g45"><g
       clip-path="url(#i)"
       transform="matrix(1 0 0 1 -8 -16)"
       id="g44"><path
         d="m 181 24.527344 c 0.003906 0.054687 0.015625 0.109375 0.035156 0.164062 c 0.003906 0.011719 0.011719 0.027344 0.019532 0.042969 c 0.023437 0.050781 0.054687 0.09375 0.089843 0.136719 l 0.003907 0.003906 v 0.003906 c 0.042968 0.039063 0.089843 0.070313 0.140624 0.089844 c 0.011719 0.007812 0.03125 0.015625 0.046876 0.019531 c 0.050781 0.023438 0.105468 0.035157 0.160156 0.035157 h 0.003906 c 0.058594 0 0.113281 -0.011719 0.167969 -0.03125 c 0.015625 -0.007813 0.03125 -0.015626 0.042969 -0.019532 c 0.050781 -0.023437 0.09375 -0.054687 0.136718 -0.089844 l 0.007813 -0.003906 v -0.003906 l 2.03125 -2.0625 c 0.195312 -0.195312 0.171875 -0.476562 -0.027344 -0.671875 c -0.195313 -0.195313 -0.589844 -0.140625 -0.859375 -0.140625 h -1 v -3 h 1 c 0.21875 0 0.6875 0.050781 0.882812 -0.144531 c 0.195313 -0.195313 0.199219 -0.511719 0.003907 -0.707031 l -2.03125 -2.0625 c -0.195313 -0.195313 -0.511719 -0.199219 -0.707031 -0.003907 c -0.097657 0.097657 -0.152344 0.234375 -0.144532 0.375 c -0.003906 0.015625 -0.003906 0.027344 -0.003906 0.042969 v 8.027344 h -0.003906 z m 0 0"
         id="path43" /></g></g><path
     style="fill:url(#linearGradient20);stroke-width:1.84937"
     d="m 100.85715,68.000118 h -74 v 28.470591 c 0,0 5.28571,15.529411 36.999999,15.529411 31.714286,0 37.000001,-15.529411 37.000001,-15.529411 z"
     id="path2" /><path
     style="fill:url(#linearGradient13);stroke-width:1.85714"
     d="m 65.223156,40.034867 c 2.461094,0.137974 4.755751,0.689374 6.508759,1.564036 L 112.8017,62.136957 c 1.80068,0.901754 3.19826,-1.366103 3.1982,-0.158799 l -2.1e-4,3.982614 c -7e-5,1.412453 -1.04487,2.827901 -3.19799,3.906151 L 71.731915,90.399955 c -4.271524,2.133548 -11.192305,2.133548 -15.463829,0 L 15.1983,69.866923 c -2.16097,-1.082181 -3.19751,-2.503881 -3.19772,-3.921595 l -5.7e-4,-3.936221 c -1.6e-4,-1.0797 1.65898,0.898712 3.19829,0.12785 L 56.268086,41.598903 c 2.354279,-1.17492 5.649734,-1.750483 8.95507,-1.564036 z"
     id="path3" /><path
     style="fill:#666666;stroke-width:1.85714"
     d="m 65.223156,36.034867 a 10.940291,5.4701847 0 0 1 6.508759,1.564036 L 112.8017,58.136957 a 10.940291,5.4701847 0 0 1 0,7.729966 L 71.731915,86.399955 a 10.940291,5.4701847 0 0 1 -15.463829,0 L 15.1983,65.866923 a 10.940291,5.4701847 0 0 1 0,-7.729966 L 56.268086,37.598903 a 10.940291,5.4701847 0 0 1 8.95507,-1.564036 z"
     id="path4" /><path
     id="path6"
     style="fill:url(#linearGradient53);stroke:none;stroke-linecap:round;stroke-linejoin:round"
     d="m 110.42793,72.3397 h -5.57031 v 20.861328 a 2.7857151,2.7857151 0 0 0 2.78516,2.785156 2.7857151,2.7857151 0 0 0 2.78515,-2.785156 z" /><path
     id="path48"
     style="fill:url(#linearGradient47);stroke-linecap:round;stroke-linejoin:round"
     d="m 105.97286,63.597512 c -1.0693,-0.602848 -2.34091,-1.040489 -3.80664,-1.171874 L 63.496294,56.460794 a 2.7857151,2.7857151 0 0 0 -3.177734,2.328125 2.7857151,2.7857151 0 0 0 2.328125,3.179687 l 37.361325,5.761719 z" /><path
     id="path49"
     style="fill:url(#linearGradient52);stroke-linecap:round;stroke-linejoin:round"
     d="m 105.97286,63.597512 -5.96485,4.132813 1.33789,0.207031 a 2.7859937,2.7859937 0 0 0 0.23243,0.02539 c 1.99922,0.13844 2.40878,0.811888 2.82421,1.585937 0.41543,0.774049 0.45508,1.50586 0.45508,1.50586 v 1.285156 h 5.57031 v -1.357422 a 2.7859937,2.7859937 0 0 0 0,-0.07227 c 0,0 -0.0298,-1.969926 -1.11718,-3.996093 -0.6352,-1.183536 -1.76597,-2.430188 -3.33789,-3.316407 z" /><path
     style="fill:url(#linearGradient33);stroke-width:1.8571"
     d="m 109.73081,90.000114 c 0.99651,3.67e-4 1.85416,0.73018 2.04887,1.743486 l 4.21955,20.08077 7e-4,2.00361 c 4.1e-4,1.17077 -0.91045,2.17154 -2.08975,2.17202 h -12.53812 c -1.17668,-4.8e-4 -2.201446,-1.00216 -2.089776,-2.16421 l 0.0021,-1.92356 4.218176,-20.16863 c 0.19471,-1.013306 1.05236,-1.74312 2.04888,-1.743486 z"
     id="path32" /><path
     style="fill:#e66100;fill-opacity:1;stroke-width:1.85714"
     d="m 109.73128,88.000114 a 2.0899902,2.1668737 0 0 1 2.04896,1.743486 l 4.17956,21.66657 A 2.0899902,2.1668737 0 0 1 113.91084,114 h -12.53869 a 2.0899902,2.1668737 0 0 1 -2.048962,-2.58983 L 103.50275,89.7436 a 2.0899902,2.1668737 0 0 1 2.04896,-1.743486 z"
     id="path7" /><path
     id="path45"
     style="opacity:0.6;fill:#943400;fill-opacity:1;stroke-width:0.125"
     d="m 108.13695,112.0197 0.009,-21.219506 c 1.4e-4,-0.27637 -0.22344,-0.500089 -0.4998,-0.5002 -0.27637,-1.39e-4 -0.50009,0.223433 -0.5002,0.499801 l -0.009,21.219505 c -1.4e-4,0.27636 0.22343,0.50008 0.4998,0.5002 0.27637,4e-5 0.50009,-0.22344 0.5002,-0.4998 z m 5.53464,-1.09185 -3.62781,-20.927736 c -0.0442,-0.272816 -0.30067,-0.457833 -0.57348,-0.413666 -0.27282,0.04417 -0.46087,0.301175 -0.41367,0.573481 l 3.62782,20.927731 c 0.0442,0.27282 0.30066,0.45783 0.57348,0.41367 0.27281,-0.0442 0.46087,-0.30118 0.41366,-0.57348 z m -12.06019,0 3.62782,-20.927736 c 0.0442,-0.272816 0.30067,-0.457833 0.57348,-0.413666 0.27281,0.04417 0.46087,0.301175 0.41367,0.573481 l -3.62782,20.927731 c -0.0442,0.27282 -0.30067,0.45783 -0.57348,0.41367 -0.27282,-0.0442 -0.46087,-0.30118 -0.41367,-0.57348 z" /></svg>
