<?xml version="1.0" encoding="UTF-8" standalone="no"?>
<svg
   width="128px"
   height="128px"
   version="1.1"
   viewBox="0 0 128 128"
   id="svg36"
   xml:space="preserve"
   xmlns:xlink="http://www.w3.org/1999/xlink"
   xmlns="http://www.w3.org/2000/svg"
   xmlns:svg="http://www.w3.org/2000/svg"><defs
     id="defs36"><filter
       id="alpha"
       filterUnits="objectBoundingBox"
       x="0"
       y="0"
       width="1"
       height="1"><feColorMatrix
         type="matrix"
         in="SourceGraphic"
         values="0 0 0 0 1 0 0 0 0 1 0 0 0 0 1 0 0 0 1 0"
         id="feColorMatrix12" /></filter><mask
       id="mask0"><g
         filter="url(#alpha)"
         id="g12"><rect
           x="0"
           y="0"
           width="128"
           height="128"
           style="fill:rgb(0%,0%,0%);fill-opacity:0.1;stroke:none;"
           id="rect12" /></g></mask><clipPath
       id="clip4"><rect
         x="0"
         y="0"
         width="192"
         height="152"
         id="rect13" /></clipPath><g
       id="surface5946"
       clip-path="url(#clip4)"><path
         style=" stroke:none;fill-rule:nonzero;fill:rgb(0%,0%,0%);fill-opacity:1;"
         d="M 44 84 L 72 84 L 72 86 L 44 86 Z M 44 84 "
         id="path13" /></g><mask
       id="mask1"><g
         filter="url(#alpha)"
         id="g14"><rect
           x="0"
           y="0"
           width="128"
           height="128"
           style="fill:rgb(0%,0%,0%);fill-opacity:0.2;stroke:none;"
           id="rect14" /></g></mask><clipPath
       id="clip5"><rect
         x="0"
         y="0"
         width="192"
         height="152"
         id="rect15" /></clipPath><g
       id="surface5949"
       clip-path="url(#clip5)"><path
         style=" stroke:none;fill-rule:nonzero;fill:rgb(0%,0%,0%);fill-opacity:1;"
         d="M 72 84 L 100 84 L 100 86 L 72 86 Z M 72 84 "
         id="path15" /></g><mask
       id="mask2"><g
         filter="url(#alpha)"
         id="g16"><rect
           x="0"
           y="0"
           width="128"
           height="128"
           style="fill:rgb(0%,0%,0%);fill-opacity:0.2;stroke:none;"
           id="rect16" /></g></mask><clipPath
       id="clip6"><rect
         x="0"
         y="0"
         width="192"
         height="152"
         id="rect17" /></clipPath><g
       id="surface5952"
       clip-path="url(#clip6)"><path
         style=" stroke:none;fill-rule:nonzero;fill:rgb(0%,0%,0%);fill-opacity:1;"
         d="M 72 82 L 100 82 L 100 84 L 72 84 Z M 72 82 "
         id="path17" /></g><mask
       id="mask3"><g
         filter="url(#alpha)"
         id="g18"><rect
           x="0"
           y="0"
           width="128"
           height="128"
           style="fill:rgb(0%,0%,0%);fill-opacity:0.1;stroke:none;"
           id="rect18" /></g></mask><clipPath
       id="clip7"><rect
         x="0"
         y="0"
         width="192"
         height="152"
         id="rect19" /></clipPath><g
       id="surface5955"
       clip-path="url(#clip7)"><path
         style=" stroke:none;fill-rule:nonzero;fill:rgb(0%,0%,0%);fill-opacity:1;"
         d="M 44 82 L 72 82 L 72 84 L 44 84 Z M 44 82 "
         id="path19" /></g><mask
       id="mask4"><g
         filter="url(#alpha)"
         id="g20"><rect
           x="0"
           y="0"
           width="128"
           height="128"
           style="fill:rgb(0%,0%,0%);fill-opacity:0.33;stroke:none;"
           id="rect20" /></g></mask><clipPath
       id="clip8"><rect
         x="0"
         y="0"
         width="192"
         height="152"
         id="rect21" /></clipPath><g
       id="surface5958"
       clip-path="url(#clip8)"><path
         style=" stroke:none;fill-rule:nonzero;fill:rgb(0%,0%,0%);fill-opacity:1;"
         d="M 63.359375 55.386719 L 62.175781 59.210938 L 44 114 L 44 122 L 52 118 L 69.820312 61.574219 L 71.003906 57.75 Z M 63.359375 55.386719 "
         id="path21" /></g><mask
       id="mask5"><g
         filter="url(#alpha)"
         id="g22"><rect
           x="0"
           y="0"
           width="128"
           height="128"
           style="fill:rgb(0%,0%,0%);fill-opacity:0.25;stroke:none;"
           id="rect22" /></g></mask><clipPath
       id="clip9"><rect
         x="0"
         y="0"
         width="192"
         height="152"
         id="rect23" /></clipPath><g
       id="surface5961"
       clip-path="url(#clip9)"><path
         style=" stroke:none;fill-rule:nonzero;fill:rgb(0%,0%,0%);fill-opacity:1;"
         d="M 80.640625 55.386719 L 81.824219 59.210938 L 100 114 L 100 122 L 92 118 L 74.175781 61.574219 L 72.996094 57.75 Z M 80.640625 55.386719 "
         id="path23" /></g><linearGradient
       id="linear2"
       gradientUnits="userSpaceOnUse"
       x1="59.086758"
       y1="186"
       x2="67.925591"
       y2="186"
       gradientTransform="translate(-86,-334)"><stop
         offset="0"
         style="stop-color:rgb(67.450982%,67.058825%,68.235296%);stop-opacity:1;"
         id="stop23" /><stop
         offset="0.38"
         style="stop-color:rgb(46.666667%,46.27451%,48.235294%);stop-opacity:1;"
         id="stop24" /><stop
         offset="1"
         style="stop-color:rgb(36.470589%,36.078432%,37.64706%);stop-opacity:1;"
         id="stop25" /></linearGradient><mask
       id="mask6"><g
         filter="url(#alpha)"
         id="g25"><rect
           x="0"
           y="0"
           width="128"
           height="128"
           style="fill:rgb(0%,0%,0%);fill-opacity:0.8;stroke:none;"
           id="rect25" /></g></mask><clipPath
       id="clip10"><rect
         x="0"
         y="0"
         width="192"
         height="152"
         id="rect26" /></clipPath><g
       id="surface5964"
       clip-path="url(#clip10)"><path
         style=" stroke:none;fill-rule:nonzero;fill:rgb(87.058824%,86.666667%,85.490197%);fill-opacity:1;"
         d="M 80.640625 52.386719 L 81.824219 56.210938 L 100 112 L 100 120 L 96 113 L 76.820312 53.570312 Z M 80.640625 52.386719 "
         id="path26" /></g><mask
       id="mask7"><g
         filter="url(#alpha)"
         id="g27"><rect
           x="0"
           y="0"
           width="128"
           height="128"
           style="fill:rgb(0%,0%,0%);fill-opacity:0.05;stroke:none;"
           id="rect27" /></g></mask><clipPath
       id="clip11"><rect
         x="0"
         y="0"
         width="192"
         height="152"
         id="rect28" /></clipPath><g
       id="surface5967"
       clip-path="url(#clip11)"><path
         style=" stroke:none;fill-rule:evenodd;fill:rgb(0%,0%,0%);fill-opacity:1;"
         d="M 44 120.160156 L 48 113 L 52 116 Z M 44 120.160156 "
         id="path28" /></g><mask
       id="mask8"><g
         filter="url(#alpha)"
         id="g29"><rect
           x="0"
           y="0"
           width="128"
           height="128"
           style="fill:rgb(0%,0%,0%);fill-opacity:0.05;stroke:none;"
           id="rect29" /></g></mask><clipPath
       id="clip12"><rect
         x="0"
         y="0"
         width="192"
         height="152"
         id="rect30" /></clipPath><g
       id="surface5970"
       clip-path="url(#clip12)"><path
         style=" stroke:none;fill-rule:evenodd;fill:rgb(0%,0%,0%);fill-opacity:1;"
         d="M 100 120.160156 L 96 113 L 92 116 Z M 100 120.160156 "
         id="path30" /></g><mask
       id="mask9"><g
         filter="url(#alpha)"
         id="g31"><rect
           x="0"
           y="0"
           width="128"
           height="128"
           style="fill:rgb(0%,0%,0%);fill-opacity:0.05;stroke:none;"
           id="rect31" /></g></mask><clipPath
       id="clip13"><rect
         x="0"
         y="0"
         width="192"
         height="152"
         id="rect32" /></clipPath><g
       id="surface5973"
       clip-path="url(#clip13)"><path
         style=" stroke:none;fill-rule:evenodd;fill:rgb(0%,0%,0%);fill-opacity:1;"
         d="M 44 120.160156 L 48 113 L 44 112 Z M 44 120.160156 "
         id="path32" /></g><mask
       id="mask10"><g
         filter="url(#alpha)"
         id="g33"><rect
           x="0"
           y="0"
           width="128"
           height="128"
           style="fill:rgb(0%,0%,0%);fill-opacity:0.05;stroke:none;"
           id="rect33" /></g></mask><clipPath
       id="clip14"><rect
         x="0"
         y="0"
         width="192"
         height="152"
         id="rect34" /></clipPath><g
       id="surface5976"
       clip-path="url(#clip14)"><path
         style=" stroke:none;fill-rule:evenodd;fill:rgb(0%,0%,0%);fill-opacity:1;"
         d="M 100 120.078125 L 96 112.921875 L 100 111.921875 Z M 100 120.078125 "
         id="path34" /></g><linearGradient
       id="linear3"
       gradientUnits="userSpaceOnUse"
       x1="88"
       y1="200"
       x2="96"
       y2="200"
       gradientTransform="rotate(90,202,-24)"><stop
         offset="0"
         style="stop-color:rgb(60.392159%,60.000002%,58.823532%);stop-opacity:1;"
         id="stop34" /><stop
         offset="1"
         style="stop-color:rgb(60.392159%,60.000002%,58.823532%);stop-opacity:0;"
         id="stop35" /></linearGradient><mask
       id="mask11"><g
         filter="url(#alpha)"
         id="g35"><rect
           x="0"
           y="0"
           width="128"
           height="128"
           style="fill:rgb(0%,0%,0%);fill-opacity:0.2;stroke:none;"
           id="rect35" /></g></mask><clipPath
       id="clip15"><rect
         x="0"
         y="0"
         width="192"
         height="152"
         id="rect36" /></clipPath><g
       id="surface5979"
       clip-path="url(#clip15)"><path
         style=" stroke:none;fill-rule:nonzero;fill:rgb(0%,0%,0%);fill-opacity:1;"
         d="M 68 84 L 68 90 C 68 91.109375 68.890625 92 70 92 L 74 92 C 75.109375 92 76 91.109375 76 90 L 76 84 Z M 68 84 "
         id="path36" /></g><mask
       id="mask12"><g
         filter="url(#alpha)"
         id="g37"><rect
           x="0"
           y="0"
           width="128"
           height="128"
           style="fill:rgb(0%,0%,0%);fill-opacity:0.1;stroke:none;"
           id="rect37" /></g></mask><clipPath
       id="clip16"><rect
         x="0"
         y="0"
         width="192"
         height="152"
         id="rect38" /></clipPath><g
       id="surface5982"
       clip-path="url(#clip16)"><path
         style=" stroke:none;fill-rule:nonzero;fill:rgb(100%,100%,100%);fill-opacity:1;"
         d="M 68 82 L 68 76 C 68 74.890625 68.890625 74 70 74 L 74 74 C 75.109375 74 76 74.890625 76 76 L 76 82 Z M 68 82 "
         id="path38" /></g></defs><linearGradient
     id="a"
     x1="8"
     x2="120"
     y1="117"
     y2="117"
     gradientUnits="userSpaceOnUse"><stop
       stop-color="#77767b"
       offset="0"
       id="stop1" /><stop
       stop-color="#c0bfbc"
       offset=".035714"
       id="stop2" /><stop
       stop-color="#9a9996"
       offset=".071365"
       id="stop3" /><stop
       stop-color="#9a9996"
       offset=".92857"
       id="stop4" /><stop
       stop-color="#c0bfbc"
       offset=".96429"
       id="stop5" /><stop
       stop-color="#77767b"
       offset="1"
       id="stop6" /></linearGradient><path
     d="m16 41h96c4.418 0 8 3.582 8 8v60c0 4.418-3.582 8-8 8h-96c-4.418 0-8-3.582-8-8v-60c0-4.418 3.582-8 8-8z"
     fill="url(#a)"
     id="path6" /><path
     id="path42"
     style="fill:#f6f5f4"
     d="M 16.5 28 C 11.811742 28 8 31.811742 8 36.5 L 8 104.5 C 8 109.18826 11.811742 113 16.5 113 L 111.5 113 C 116.18826 113 120 109.18826 120 104.5 L 120 36.5 C 120 31.811742 116.18826 28 111.5 28 L 16.5 28 z " /><path
     d="m94.605 34h18.789c0.88672 0 1.6055 0.71875 1.6055 1.6055v3.9609c0 0.89062-0.71875 1.6094-1.6055 1.6094h-18.789c-0.88672 0-1.6055-0.71875-1.6055-1.6094v-3.9609c0-0.88672 0.71875-1.6055 1.6055-1.6055z"
     fill="#9a9996"
     id="path9" /><path
     d="m14.605 34h18.789c0.88672 0 1.6055 0.71875 1.6055 1.6055v3.9609c0 0.89062-0.71875 1.6094-1.6055 1.6094h-18.789c-0.88672 0-1.6055-0.71875-1.6055-1.6094v-3.9609c0-0.88672 0.71875-1.6055 1.6055-1.6055z"
     fill="#9a9996"
     id="path10" /><path
     id="path41"
     style="fill:#deddda;stroke-linecap:round;stroke-linejoin:round;stroke-miterlimit:0"
     d="M 15.839844 28 C 11.514525 28 8.0039062 31.428974 8.0039062 35.683594 C 8.0039062 38.288594 8 40.894 8 43.5 A 0.50005 0.50005 0 0 0 8.5 44 L 119.5 43.980469 A 0.50005 0.50005 0 0 0 120 43.480469 L 120 35.683594 C 120 31.429301 116.49303 28 112.16406 28 L 15.839844 28 z " /><path
     id="path39"
     style="fill:#62a0ea;stroke-linecap:round;stroke-linejoin:round;stroke-miterlimit:0"
     d="M 95.011719 32 C 93.906331 32 93 32.90631 93 34.011719 L 93 37.988281 C 93 39.093669 93.90631 40 95.011719 40 L 112.98828 40 C 114.09367 40 115 39.09369 115 37.988281 L 115 34.011719 C 115 32.906331 114.09369 32 112.98828 32 L 95.011719 32 z " /><path
     id="path40"
     style="fill:#adaca3;stroke-linecap:round;stroke-linejoin:round;stroke-miterlimit:0;fill-opacity:1"
     d="M 15.105469 32 C 13.948526 32 13 32.948558 13 34.105469 L 13 37.894531 C 13 39.051474 13.948558 40 15.105469 40 L 32.894531 40 C 34.051474 40 35 39.051442 35 37.894531 L 35 34.105469 C 35 32.948526 34.051442 32 32.894531 32 L 15.105469 32 z " /><g
     id="g90"
     transform="translate(92.629435,166.30343)"><path
       style="fill:#f5f5f3;fill-opacity:1;fill-rule:nonzero;stroke:none"
       d="M -22,-102 H 6 v 4 h -28 z m 0,0"
       id="path46-2" /><use
       xlink:href="#surface5946"
       transform="translate(-94,-182)"
       mask="url(#mask0)"
       id="use46" /><use
       xlink:href="#surface5949"
       transform="translate(-94,-182)"
       mask="url(#mask1)"
       id="use47" /><path
       style="fill:#dedcd9;fill-opacity:1;fill-rule:nonzero;stroke:none"
       d="m -50,-102 h 28 v 4 h -28 z m 0,0"
       id="path47" /><use
       xlink:href="#surface5952"
       transform="translate(-94,-182)"
       mask="url(#mask2)"
       id="use48" /><path
       style="fill:#97948f;fill-opacity:1;fill-rule:nonzero;stroke:none"
       d="m 4,-102 -2,4 h 2 l 2,-4 z m 0,0"
       id="path48" /><path
       style="fill:#97948f;fill-opacity:1;fill-rule:nonzero;stroke:none"
       d="m 0,-102 -2,4 h 2 l 2,-4 z m 0,0"
       id="path49" /><path
       style="fill:#6e6e68;fill-opacity:1;fill-rule:nonzero;stroke:none"
       d="m -12,-102 -2,4 h 2 l 2,-4 z m 0,0"
       id="path50" /><path
       style="fill:#bfbdba;fill-opacity:1;fill-rule:nonzero;stroke:none"
       d="m -8,-102 -2,4 h 2 l 2,-4 z m 0,0"
       id="path51" /><path
       style="fill:#97948f;fill-opacity:1;fill-rule:nonzero;stroke:none"
       d="m -4,-102 -2,4 h 2 l 2,-4 z m 0,0"
       id="path52" /><path
       style="fill:#bfbdba;fill-opacity:1;fill-rule:nonzero;stroke:none"
       d="m -40,-102 -2,4 h 2 l 2,-4 z m 0,0"
       id="path53" /><path
       style="fill:#bfbdba;fill-opacity:1;fill-rule:nonzero;stroke:none"
       d="m -44,-102 -2,4 h 2 l 2,-4 z m 0,0"
       id="path54" /><path
       style="fill:#bfbdba;fill-opacity:1;fill-rule:nonzero;stroke:none"
       d="m -48,-102 -2,4 h 2 l 2,-4 z m 0,0"
       id="path55" /><use
       xlink:href="#surface5955"
       transform="translate(-94,-182)"
       mask="url(#mask3)"
       id="use55" /><use
       xlink:href="#surface5958"
       transform="translate(-94,-182)"
       mask="url(#mask4)"
       id="use56" /><use
       xlink:href="#surface5961"
       transform="translate(-94,-182)"
       mask="url(#mask5)"
       id="use57" /><path
       style="fill:url(#linear2);fill-rule:nonzero;stroke:none"
       d="m -26,-150 2,4 v 2 h 4 v -2 l 2,-4 z m 0,0"
       id="path57" /><path
       style="fill:#000000;fill-opacity:1;fill-rule:nonzero;stroke:none"
       d="m -28,-121.34766 -17.003906,51.000004"
       id="path58" /><path
       style="fill:#dedcd9;fill-opacity:1;fill-rule:nonzero;stroke:none"
       d="m -28,-124.60938 -17.003906,53.000005"
       id="path59" /><path
       style="fill:#b3b3b0;fill-opacity:1;fill-rule:nonzero;stroke:none"
       d="m -30.640625,-129.61328 -1.183594,3.82422 L -50,-70 v 8 l 8,-4 17.820312,-57.42578 1.183594,-3.82422 z m 0,0"
       id="path60" /><path
       style="fill:#75757a;fill-opacity:1;fill-rule:nonzero;stroke:none"
       d="m -26,-162 h 8 v 12 h -8 z m 0,0"
       id="path61" /><path
       style="fill:#5c5c63;fill-opacity:1;fill-rule:nonzero;stroke:none"
       d="m -26,-162 h 2 v 12 h -2 z m 0,0"
       id="path62" /><path
       style="fill:#5c5c63;fill-opacity:1;fill-rule:nonzero;stroke:none"
       d="m -22,-162 h 2 v 12 h -2 z m 0,0"
       id="path63" /><path
       style="fill:#dedcd9;fill-opacity:1;fill-rule:nonzero;stroke:none"
       d="M -16,-124.60938 1.003906,-71.609375"
       id="path64" /><path
       style="fill:#bfbdba;fill-opacity:1;fill-rule:nonzero;stroke:none"
       d="m -13.359375,-129.61328 1.183594,3.82422 L 6,-70 v 8 l -8,-4 -17.824219,-57.42578 -1.179687,-3.82422 z m 0,0"
       id="path65" /><use
       xlink:href="#surface5964"
       transform="translate(-94,-182)"
       mask="url(#mask6)"
       id="use65" /><path
       style="fill:#dedcd9;fill-opacity:1;fill-rule:nonzero;stroke:none"
       d="M -16,-124.60938 1.003906,-73.609375"
       id="path66" /><path
       style="fill:#ccccca;fill-opacity:1;fill-rule:nonzero;stroke:none"
       d="m -30.640625,-129.61328 -1.183594,3.82422 L -50,-70 v 8 l 4,-7 19.179688,-59.42969 z m 0,0"
       id="path67" /><path
       style="fill:#5c5c63;fill-opacity:1;fill-rule:nonzero;stroke:none"
       d="m -10,-134 c 0,6.62891 -5.371094,12 -12,12 -6.628906,0 -12,-5.37109 -12,-12 0,-6.62891 5.371094,-12 12,-12 6.628906,0 12,5.37109 12,12 z m 0,0"
       id="path68" /><path
       style="fill:#bfbdba;fill-opacity:1;fill-rule:nonzero;stroke:none"
       d="m -14,-134 c 0,4.41797 -3.582031,8 -8,8 -4.417969,0 -8,-3.58203 -8,-8 0,-4.41797 3.582031,-8 8,-8 4.417969,0 8,3.58203 8,8 z m 0,0"
       id="path69" /><use
       xlink:href="#surface5967"
       transform="translate(-94,-182)"
       mask="url(#mask7)"
       id="use69" /><use
       xlink:href="#surface5970"
       transform="translate(-94,-182)"
       mask="url(#mask8)"
       id="use70" /><use
       xlink:href="#surface5973"
       transform="translate(-94,-182)"
       mask="url(#mask9)"
       id="use71" /><use
       xlink:href="#surface5976"
       transform="translate(-94,-182)"
       mask="url(#mask10)"
       id="use72" /><path
       style="fill:url(#linear3);fill-rule:nonzero;stroke:none"
       d="m -22,-130 c -2.210938,0 -4,-1.78906 -4,-4 0,-2.21094 1.789062,-4 4,-4 2.210938,0 4,1.78906 4,4 0,2.21094 -1.789062,4 -4,4 z m 0,0"
       id="path72" /><path
       style="fill:#706e68;fill-opacity:1;fill-rule:nonzero;stroke:none"
       d="m -16,-102 -2,4 h 2 l 2,-4 z m -4,0 -2,4 h 2 l 2,-4 z m -4,0 -2,4 h 2 l 2,-4 z m 0,0"
       id="path73" /><path
       style="fill:#827f7a;fill-opacity:1;fill-rule:nonzero;stroke:none"
       d="m -28,-102 -2,4 h 2 l 2,-4 z m 0,0"
       id="path74" /><use
       xlink:href="#surface5979"
       transform="translate(-94,-182)"
       mask="url(#mask11)"
       id="use74" /><path
       style="fill:#999994;fill-opacity:1;fill-rule:nonzero;stroke:none"
       d="m -24,-108 h 4 c 1.105469,0 2,0.89453 2,2 v 12 c 0,1.105469 -0.894531,2 -2,2 h -4 c -1.105469,0 -2,-0.894531 -2,-2 v -12 c 0,-1.10547 0.894531,-2 2,-2 z m 0,0"
       id="path75" /><path
       style="fill:#5c5c63;fill-opacity:1;fill-rule:nonzero;stroke:none"
       d="m -26,-103 v 2 h 8 v -2 z m 0,0"
       id="path76" /><path
       style="fill:#75757a;fill-opacity:1;fill-rule:nonzero;stroke:none"
       d="m -18,-106 v 1 h -8 v -1 z m 0,0"
       id="path77" /><path
       style="fill:#5c5c63;fill-opacity:1;fill-rule:nonzero;stroke:none"
       d="m -26,-99 v 2 h 8 v -2 z m 0,0"
       id="path78" /><path
       style="fill:#75757a;fill-opacity:1;fill-rule:nonzero;stroke:none"
       d="m -18,-95 v 1 h -8 v -1 z m 0,0"
       id="path79" /><use
       xlink:href="#surface5982"
       transform="translate(-94,-182)"
       mask="url(#mask12)"
       id="use79" /></g><path
     id="path44"
     style="fill:#1fb755;fill-opacity:0.9;fill-rule:evenodd"
     d="M 1.8195e-4,65.10352 14.763853,128 98.627135,108.31446 98.629435,106.30343 15.1369,125.4004 0,63.122756 Z m 20.77734305,20.03125 5.679688,24.17969 0.04102,-0.01 -5.005864,-21.316174 33.693359,14.580074 3.814453,-0.89453 z" /><path
     style="fill:#57e389;fill-opacity:0.9;fill-rule:evenodd"
     d="m 20.777369,85.13452 5.6797,24.18 32.543,-7.6406 z m -20.06299955,-21.172 14.42199955,61.438 81.918,-19.23 z"
     id="path45" /><path
     id="path46"
     style="fill:#3d3846;fill-rule:evenodd"
     d="M 1.8195e-4,63.10352 14.763853,126 98.627135,106.31446 Z m 1.42968745,1.716797 94.0488276,41.207033 -6.064453,1.42383 -0.705078,-3.01563 a 0.49951151,0.49951151 0 0 0 -0.601563,-0.37305 0.49951151,0.49951151 0 0 0 -0.371093,0.59961 l 0.705078,3.01758 -2.546875,0.59766 -0.707032,-3.01563 a 0.49951151,0.49951151 0 0 0 -0.599609,-0.37304 0.49951151,0.49951151 0 0 0 -0.373047,0.59961 l 0.707032,3.01757 -2.548829,0.59766 -0.705078,-3.01562 a 0.49951151,0.49951151 0 0 0 -0.599609,-0.37305 0.49951151,0.49951151 0 0 0 -0.373047,0.59961 l 0.707031,3.01758 -2.548828,0.59765 -0.708984,-3.01562 a 0.49951151,0.49951151 0 0 0 -0.59961,-0.3711 0.49951151,0.49951151 0 0 0 -0.373046,0.59961 l 0.708984,3.01563 -2.546875,0.59765 -0.708985,-3.01562 a 0.49951151,0.49951151 0 0 0 -0.599609,-0.3711 0.49951151,0.49951151 0 0 0 -0.371094,0.59961 l 0.707032,3.01563 -2.546875,0.59766 -0.708985,-3.01563 a 0.49951151,0.49951151 0 0 0 -0.599609,-0.37109 0.49951151,0.49951151 0 0 0 -0.373047,0.59961 l 0.708984,3.01562 -2.546875,0.59766 -0.708984,-3.01563 a 0.49951151,0.49951151 0 0 0 -0.599609,-0.37109 0.49951151,0.49951151 0 0 0 -0.373047,0.59961 l 0.708984,3.01562 -2.546875,0.59766 -0.708984,-3.01367 a 0.49951151,0.49951151 0 0 0 -0.601563,-0.37305 0.49951151,0.49951151 0 0 0 -0.371094,0.60156 l 0.708985,3.01368 -2.546875,0.59765 -0.708984,-3.01562 a 0.49951151,0.49951151 0 0 0 -0.59961,-0.3711 0.49951151,0.49951151 0 0 0 -0.373047,0.60157 l 0.708985,3.01367 -2.546875,0.59765 -0.708985,-3.01367 A 0.49951151,0.49951151 0 0 0 56.425963,111.5 a 0.49951151,0.49951151 0 0 0 -0.371094,0.60157 l 0.708984,3.01367 -2.548828,0.59766 -0.707031,-3.01368 a 0.49951151,0.49951151 0 0 0 -0.599609,-0.37304 0.49951151,0.49951151 0 0 0 -0.373047,0.60156 l 0.707031,3.01367 -2.548828,0.59766 -0.705078,-3.01367 a 0.49951151,0.49951151 0 0 0 -0.59961,-0.37305 0.49951151,0.49951151 0 0 0 -0.373046,0.60156 l 0.705078,3.01367 -2.544922,0.59766 -0.707032,-3.01367 a 0.49951151,0.49951151 0 0 0 -0.599609,-0.37305 0.49951151,0.49951151 0 0 0 -0.373047,0.60156 l 0.707032,3.01367 -2.548829,0.59766 -0.705078,-3.01367 a 0.49951151,0.49951151 0 0 0 -0.599609,-0.37305 0.49951151,0.49951151 0 0 0 -0.373047,0.60156 l 0.705078,3.01368 -2.546875,0.59765 -0.705078,-3.01367 a 0.49951151,0.49951151 0 0 0 -0.601562,-0.37109 0.49951151,0.49951151 0 0 0 -0.371094,0.59961 l 0.705078,3.01367 -2.546875,0.59765 -0.708985,-3.01367 a 0.49951151,0.49951151 0 0 0 -0.599609,-0.37109 0.49951151,0.49951151 0 0 0 -0.373047,0.60156 l 0.708985,3.01172 -2.546875,0.59766 -0.708985,-3.01172 a 0.49951151,0.49951151 0 0 0 -0.601562,-0.37305 0.49951151,0.49951151 0 0 0 -0.371094,0.60156 l 0.708984,3.01172 -2.548828,0.59766 -0.708984,-3.01172 a 0.49951151,0.49951151 0 0 0 -0.599609,-0.37305 0.49951151,0.49951151 0 0 0 -0.373047,0.60157 l 0.708984,3.01171 -2.544922,0.59766 -0.708984,-3.01172 a 0.49951151,0.49951151 0 0 0 -0.601563,-0.37305 0.49951151,0.49951151 0 0 0 -0.371094,0.60157 l 0.708985,3.01172 -2.548828,0.59765 -0.708985,-3.01172 a 0.49951151,0.49951151 0 0 0 -0.599609,-0.37109 0.49951151,0.49951151 0 0 0 -0.373047,0.59961 l 0.708984,3.01172 -2.546874,0.59765 -0.708985,-3.01171 a 0.49951151,0.49951151 0 0 0 -0.599609,-0.3711 0.49951151,0.49951151 0 0 0 -0.371094,0.59961 l 0.708984,3.01172 -2.537109,0.5957 z m 18.6347656,19.460937 6.019531,25.632816 34.5,-8.09961 z m 1.427734,1.707032 35.921875,15.544924 -30.585937,7.18164 z" /></svg>
