<?xml version="1.0" encoding="UTF-8"?>
<svg xmlns="http://www.w3.org/2000/svg" xmlns:xlink="http://www.w3.org/1999/xlink" width="128px" height="128px" viewBox="0 0 128 128" version="1.1">
<defs>
<linearGradient id="linear0" gradientUnits="userSpaceOnUse" x1="26.000322" y1="242.000854" x2="38.000298" y2="241.942856" gradientTransform="matrix(0,-1.33333,-1.33333,0,406.666992,118.667023)">
<stop offset="0" style="stop-color:rgb(60.392159%,60.000002%,58.823532%);stop-opacity:1;"/>
<stop offset="1" style="stop-color:rgb(60.392159%,60.000002%,58.823532%);stop-opacity:0;"/>
</linearGradient>
<linearGradient id="linear1" gradientUnits="userSpaceOnUse" x1="26.000322" y1="242.000854" x2="38.000351" y2="242.000854" gradientTransform="matrix(0,-1.33333,-1.33333,0,366.78299,118.667023)">
<stop offset="0" style="stop-color:rgb(60.392159%,60.000002%,58.823532%);stop-opacity:1;"/>
<stop offset="1" style="stop-color:rgb(60.392159%,60.000002%,58.823532%);stop-opacity:0;"/>
</linearGradient>
</defs>
<g id="surface105889">
<path style=" stroke:none;fill-rule:nonzero;fill:rgb(46.666667%,46.27451%,48.235294%);fill-opacity:1;" d="M 89.179688 41.96875 L 95.261719 49.53125 L 117.910156 44.863281 L 127.785156 92.769531 C 129.273438 100.003906 125.613281 107.316406 118.933594 110.464844 C 112.253906 113.613281 104.285156 111.78125 99.652344 106.03125 L 64.246094 62.03125 Z M 39.183594 41.96875 L 33.097656 49.53125 L 10.449219 44.863281 L 0.574219 92.769531 C -0.910156 100.003906 2.746094 107.316406 9.425781 110.464844 C 16.105469 113.613281 24.074219 111.78125 28.710938 106.03125 L 64.113281 62.03125 Z M 39.183594 41.96875 "/>
<path style=" stroke:none;fill-rule:nonzero;fill:rgb(46.666667%,46.27451%,48.235294%);fill-opacity:1;" d="M 41.117188 28 L 87.117188 28 L 87.117188 60 L 41.117188 60 Z M 41.117188 28 "/>
<path style=" stroke:none;fill-rule:nonzero;fill:rgb(36.862746%,36.078432%,39.215687%);fill-opacity:0.235;" d="M 60.449219 59.28125 L 28.464844 99.03125 C 24.605469 103.8125 18.347656 105.960938 12.363281 104.558594 C 6.382812 103.15625 1.730469 98.453125 0.394531 92.453125 L 0.328125 92.769531 C -1.15625 100.003906 2.503906 107.316406 9.183594 110.464844 C 15.863281 113.613281 23.832031 111.78125 28.464844 106.03125 L 63.867188 62.03125 Z M 67.550781 59.28125 L 64.128906 62.03125 L 99.535156 106.03125 C 104.167969 111.78125 112.136719 113.613281 118.816406 110.464844 C 125.496094 107.316406 129.15625 100.003906 127.671875 92.769531 L 127.605469 92.453125 C 126.269531 98.449219 121.617188 103.15625 115.636719 104.554688 C 109.652344 105.957031 103.394531 103.808594 99.535156 99.027344 Z M 67.550781 59.28125 "/>
<path style=" stroke:none;fill-rule:nonzero;fill:rgb(75.294119%,74.901962%,73.725492%);fill-opacity:1;" d="M 54.117188 49 C 54.117188 61.148438 44.265625 71 32.117188 71 C 19.964844 71 10.117188 61.148438 10.117188 49 C 10.117188 36.851562 19.964844 27 32.117188 27 C 44.265625 27 54.117188 36.851562 54.117188 49 Z M 54.117188 49 "/>
<path style=" stroke:none;fill-rule:nonzero;fill:rgb(75.294119%,74.901962%,73.725492%);fill-opacity:1;" d="M 46.117188 32 L 82.117188 32 L 82.117188 84 L 46.117188 84 Z M 46.117188 32 "/>
<path style=" stroke:none;fill-rule:nonzero;fill:rgb(75.294119%,74.901962%,73.725492%);fill-opacity:1;" d="M 118.117188 49 C 118.117188 61.148438 108.265625 71 96.117188 71 C 83.964844 71 74.117188 61.148438 74.117188 49 C 74.117188 36.851562 83.964844 27 96.117188 27 C 108.265625 27 118.117188 36.851562 118.117188 49 Z M 118.117188 49 "/>
<path style=" stroke:none;fill-rule:nonzero;fill:rgb(87.058824%,86.666667%,85.490197%);fill-opacity:1;" d="M 46.117188 32 L 82.117188 32 L 82.117188 80 L 46.117188 80 Z M 46.117188 32 "/>
<path style=" stroke:none;fill-rule:nonzero;fill:rgb(75.294119%,74.901962%,73.725492%);fill-opacity:1;" d="M 58 80 C 58 87.667969 51.785156 93.882812 44.117188 93.882812 C 36.449219 93.882812 30.230469 87.667969 30.230469 80 C 30.230469 72.332031 36.449219 66.117188 44.117188 66.117188 C 51.785156 66.117188 58 72.332031 58 80 Z M 58 80 "/>
<path style=" stroke:none;fill-rule:nonzero;fill:rgb(87.058824%,86.666667%,85.490197%);fill-opacity:1;" d="M 58 78 C 58 85.667969 51.785156 91.882812 44.117188 91.882812 C 36.449219 91.882812 30.230469 85.667969 30.230469 78 C 30.230469 70.332031 36.449219 64.117188 44.117188 64.117188 C 51.785156 64.117188 58 70.332031 58 78 Z M 58 78 "/>
<path style=" stroke:none;fill-rule:nonzero;fill:rgb(75.294119%,74.901962%,73.725492%);fill-opacity:1;" d="M 98 80 C 98 87.667969 91.785156 93.882812 84.117188 93.882812 C 76.449219 93.882812 70.230469 87.667969 70.230469 80 C 70.230469 72.332031 76.449219 66.117188 84.117188 66.117188 C 91.785156 66.117188 98 72.332031 98 80 Z M 98 80 "/>
<path style=" stroke:none;fill-rule:nonzero;fill:rgb(87.058824%,86.666667%,85.490197%);fill-opacity:1;" d="M 98 78 C 98 85.667969 91.785156 91.882812 84.117188 91.882812 C 76.449219 91.882812 70.230469 85.667969 70.230469 78 C 70.230469 70.332031 76.449219 64.117188 84.117188 64.117188 C 91.785156 64.117188 98 70.332031 98 78 Z M 98 78 "/>
<path style=" stroke:none;fill-rule:nonzero;fill:rgb(87.058824%,86.666667%,85.490197%);fill-opacity:1;" d="M 54.117188 47 C 54.117188 59.148438 44.265625 69 32.117188 69 C 19.964844 69 10.117188 59.148438 10.117188 47 C 10.117188 34.851562 19.964844 25 32.117188 25 C 44.265625 25 54.117188 34.851562 54.117188 47 Z M 54.117188 47 "/>
<path style=" stroke:none;fill-rule:nonzero;fill:rgb(87.058824%,86.666667%,85.490197%);fill-opacity:1;" d="M 118.117188 47 C 118.117188 59.148438 108.265625 69 96.117188 69 C 83.964844 69 74.117188 59.148438 74.117188 47 C 74.117188 34.851562 83.964844 25 96.117188 25 C 108.265625 25 118.117188 34.851562 118.117188 47 Z M 118.117188 47 "/>
<path style=" stroke:none;fill-rule:nonzero;fill:rgb(23.921569%,21.960784%,27.450982%);fill-opacity:1;" d="M 30 36 C 28.890625 36 28 36.890625 28 38 L 28 44 L 22 44 C 20.890625 44 20 44.890625 20 46 L 20 50 C 20 51.109375 20.890625 52 22 52 L 28 52 L 28 58 C 28 59.109375 28.890625 60 30 60 L 34 60 C 35.109375 60 36 59.109375 36 58 L 36 52 L 42 52 C 43.109375 52 44 51.109375 44 50 L 44 46 C 44 44.890625 43.109375 44 42 44 L 36 44 L 36 38 C 36 36.890625 35.109375 36 34 36 Z M 30 36 "/>
<path style=" stroke:none;fill-rule:nonzero;fill:rgb(36.862746%,36.078432%,39.215687%);fill-opacity:1;" d="M 30 34 C 28.890625 34 28 34.890625 28 36 L 28 42 L 22 42 C 20.890625 42 20 42.890625 20 44 L 20 48 C 20 49.109375 20.890625 50 22 50 L 28 50 L 28 56 C 28 57.109375 28.890625 58 30 58 L 34 58 C 35.109375 58 36 57.109375 36 56 L 36 50 L 42 50 C 43.109375 50 44 49.109375 44 48 L 44 44 C 44 42.890625 43.109375 42 42 42 L 36 42 L 36 36 C 36 34.890625 35.109375 34 34 34 Z M 30 34 "/>
<path style=" stroke:none;fill-rule:nonzero;fill:rgb(75.294119%,10.980392%,15.686275%);fill-opacity:1;" d="M 110 50 L 110 52 C 110 55.324219 107.324219 58 104 58 C 100.675781 58 98 55.324219 98 52 L 98 50 Z M 110 50 "/>
<path style=" stroke:none;fill-rule:nonzero;fill:rgb(92.941177%,20%,23.137255%);fill-opacity:1;" d="M 98 50 C 98 53.3125 100.6875 56 104 56 C 107.3125 56 110 53.3125 110 50 C 110 46.6875 107.3125 44 104 44 C 100.6875 44 98 46.6875 98 50 Z M 98 50 "/>
<path style=" stroke:none;fill-rule:nonzero;fill:rgb(10.196079%,37.254903%,70.588237%);fill-opacity:1;" d="M 94 42 L 94 44 C 94 47.324219 91.324219 50 88 50 C 84.675781 50 82 47.324219 82 44 L 82 42 Z M 94 42 "/>
<path style=" stroke:none;fill-rule:nonzero;fill:rgb(20.784314%,51.764709%,89.411765%);fill-opacity:1;" d="M 82 42 C 82 45.3125 84.6875 48 88 48 C 91.3125 48 94 45.3125 94 42 C 94 38.6875 91.3125 36 88 36 C 84.6875 36 82 38.6875 82 42 Z M 82 42 "/>
<path style=" stroke:none;fill-rule:nonzero;fill:rgb(14.117648%,12.156863%,19.215687%);fill-opacity:1;" d="M 54.117188 78 C 54.117188 83.523438 49.640625 88 44.117188 88 C 38.59375 88 34.117188 83.523438 34.117188 78 C 34.117188 72.476562 38.59375 68 44.117188 68 C 49.640625 68 54.117188 72.476562 54.117188 78 Z M 54.117188 78 "/>
<path style=" stroke:none;fill-rule:nonzero;fill:rgb(14.117648%,12.156863%,19.215687%);fill-opacity:1;" d="M 94.117188 78 C 94.117188 83.523438 89.640625 88 84.117188 88 C 78.59375 88 74.117188 83.523438 74.117188 78 C 74.117188 72.476562 78.59375 68 84.117188 68 C 89.640625 68 94.117188 72.476562 94.117188 78 Z M 94.117188 78 "/>
<path style=" stroke:none;fill-rule:nonzero;fill:rgb(23.921569%,21.960784%,27.450982%);fill-opacity:1;" d="M 54.117188 76 C 54.117188 81.523438 49.640625 86 44.117188 86 C 38.59375 86 34.117188 81.523438 34.117188 76 C 34.117188 70.476562 38.59375 66 44.117188 66 C 49.640625 66 54.117188 70.476562 54.117188 76 Z M 54.117188 76 "/>
<path style=" stroke:none;fill-rule:nonzero;fill:rgb(23.921569%,21.960784%,27.450982%);fill-opacity:1;" d="M 94.117188 76 C 94.117188 81.523438 89.640625 86 84.117188 86 C 78.59375 86 74.117188 81.523438 74.117188 76 C 74.117188 70.476562 78.59375 66 84.117188 66 C 89.640625 66 94.117188 70.476562 94.117188 76 Z M 94.117188 76 "/>
<path style=" stroke:none;fill-rule:nonzero;fill:url(#linear0);" d="M 84 68 C 79.582031 68 76 71.582031 76 76 C 76 80.417969 79.582031 84 84 84 C 88.417969 84 92 80.417969 92 76 C 92 71.582031 88.417969 68 84 68 Z M 84 68 "/>
<path style=" stroke:none;fill-rule:nonzero;fill:url(#linear1);" d="M 44.117188 68 C 39.699219 68 36.117188 71.582031 36.117188 76 C 36.117188 80.417969 39.699219 84 44.117188 84 C 48.535156 84 52.117188 80.417969 52.117188 76 C 52.117188 71.582031 48.535156 68 44.117188 68 Z M 44.117188 68 "/>
</g>
</svg>
