<?xml version="1.0" encoding="UTF-8" standalone="no"?>
<svg
   height="128px"
   viewBox="0 0 128 128"
   width="128px"
   version="1.1"
   id="svg31"
   xml:space="preserve"
   xmlns="http://www.w3.org/2000/svg"
   xmlns:svg="http://www.w3.org/2000/svg"><defs
     id="defs31" /><linearGradient
     id="a"
     gradientUnits="userSpaceOnUse"
     x1="58.922295"
     x2="80.291817"
     y1="99.982971"
     y2="91.974609"><stop
       offset="0"
       stop-color="#1d7a4f"
       id="stop1"
       style="stop-color:#1d477a;stop-opacity:1;" /><stop
       offset="0.0931896"
       stop-color="#29af71"
       id="stop2"
       style="stop-color:#2965af;stop-opacity:1;" /><stop
       offset="0.45591399"
       stop-color="#218d5b"
       id="stop3"
       style="stop-color:#21528d;stop-opacity:1;" /><stop
       offset="1"
       stop-color="#155a3a"
       id="stop4"
       style="stop-color:#15345a;stop-opacity:1;" /></linearGradient><linearGradient
     id="b"
     gradientUnits="userSpaceOnUse"
     x1="69.95385"
     x2="56.994293"
     y1="66.548935"
     y2="70.581924"><stop
       offset="0"
       stop-color="#26a269"
       id="stop5"
       style="stop-color:#265ea2;stop-opacity:1;" /><stop
       offset="0.30000001"
       stop-color="#57e389"
       id="stop6"
       style="stop-color:#5796e3;stop-opacity:1;" /><stop
       offset="0.64999998"
       stop-color="#33d17a"
       id="stop7"
       style="stop-color:#4485d5;stop-opacity:1;" /><stop
       offset="1"
       stop-color="#33d17a"
       id="stop8"
       style="stop-color:#3584e4;stop-opacity:1;" /></linearGradient><path
     d="m 60 48 l 5.5 66 c 1.191406 1.402344 2.5 2 4.5 2 h 26 v -68 z m 0 0"
     fill="#deddda"
     id="path8" /><path
     d="m 88.246094 48 h 20 c 4.417968 0 8 3.582031 8 8 v 52 c 0 4.417969 -3.582032 8 -8 8 h -20 c -4.417969 0 -8 -3.582031 -8 -8 v -52 c 0 -4.417969 3.582031 -8 8 -8 z m 0 0"
     fill="#deddda"
     id="path9" /><path
     d="m 16 28 h 20 c 4.417969 0 8 3.582031 8 8 v 52 c 0 4.417969 -3.582031 8 -8 8 h -20 c -4.417969 0 -8 -3.582031 -8 -8 v -52 c 0 -4.417969 3.582031 -8 8 -8 z m 0 0"
     fill="#33d17a"
     id="path10"
     style="fill:#3584e4;fill-opacity:1" /><g
     fill="#77767b"
     id="g27"><path
       d="m 86 85 h 18 v 3 h -18 z m 0 0"
       id="path11" /><path
       d="m 86 100 v -15 h 3 v 15 z m 0 0"
       id="path12" /><path
       d="m 101 100 v -15 h 3 v 15 z m 0 0"
       id="path13" /><path
       d="m 86 95 h 18 v 3 h -18 z m 0 0"
       id="path14" /><path
       d="m 83 79 h 23 v 3 h -23 z m 0 0"
       id="path15" /><path
       d="m 83 64 h 23 v 3 h -23 z m 0 0"
       id="path16" /><path
       d="m 83 71 h 19 v 3 h -19 z m 0 0"
       id="path17" /><path
       d="m 99 80 v -8 h 3 v 8 z m 0 0"
       id="path18" /><path
       d="m 86.550781 79.613281 l 3.882813 -14.492187 l 2.898437 0.777344 l -3.882812 14.488281 z m 0 0"
       id="path19" /><path
       d="m 69 85 h 10 v 3 h -10 z m 0 0"
       id="path20" /><path
       d="m 69 100 v -15 h 3 v 15 z m 0 0"
       id="path21" /><path
       d="m 78 98 v -13 h 3 v 13 z m 0 0"
       id="path22" /><path
       d="m 69 95 h 10 v 3 h -10 z m 0 0"
       id="path23" /><path
       d="m 69 79 h 11 v 3 h -11 z m 0 0"
       id="path24" /><path
       d="m 71 74 h 7 v 3 h -7 z m 0 0"
       id="path25" /><path
       d="m 67 69 h 15 v 3 h -15 z m 0 0"
       id="path26" /><path
       d="m 69 64 h 11 v 3 h -11 z m 0 0"
       id="path27" /></g><path
     d="m 80 99 c 0.699219 1.746094 0.183594 4.136719 -2 5 l -9 6 c -1.480469 0.730469 -4 4 0 5.949219 c -3.402344 -0.445313 -4.125 -2.871094 -5 -4.949219 l -16 -43 l 26 16 z m 0 0"
     fill="url(#a)"
     id="path28" /><path
     d="m 34 28 v 68 h 41 c 2 0 4.195312 1.28125 5 3 c 0 0 -17.667969 -57.175781 -20 -63.945312 c -1.410156 -3.644532 -3.144531 -7.054688 -7.054688 -7.054688 z m 0 0"
     fill="url(#b)"
     id="path29" /><path
     d="m 21.721758,73.96228 h 5.512483 l 8.248605,-25.228661 h -1.126639 l 8.168131,25.228661 h 5.753905 l -9.69714,-27.924546 h -6.639122 z m 6.558647,-6.961018 H 41.639122 L 40.914854,62.373996 H 29.004673 Z"
     id="path32"
     style="font-weight:bold;font-size:40.2371px;font-family:Cantarell;-inkscape-font-specification:'Cantarell Bold';fill:#265ea2;fill-opacity:1;stroke:none;stroke-width:0.0754446;stroke-opacity:1"
     aria-label="A" /><path
     d="m 21.721758,75.96228 h 5.512483 l 8.248605,-25.228661 h -1.126639 l 8.168131,25.228661 h 5.753905 l -9.69714,-27.924546 h -6.639122 z m 6.558647,-6.961018 H 41.639122 L 40.914854,64.373996 H 29.004673 Z"
     id="text32"
     style="font-weight:bold;font-size:40.2371px;font-family:Cantarell;-inkscape-font-specification:'Cantarell Bold';fill:#ffffff;stroke:#ffffff;stroke-width:0.0754446"
     aria-label="A" /></svg>
