<?xml version="1.0" encoding="UTF-8" standalone="no"?>
<svg
   height="128px"
   viewBox="0 0 128 128"
   width="128px"
   version="1.1"
   id="svg12"
   xml:space="preserve"
   xmlns:xlink="http://www.w3.org/1999/xlink"
   xmlns="http://www.w3.org/2000/svg"
   xmlns:svg="http://www.w3.org/2000/svg"><defs
     id="defs12"><linearGradient
       id="linearGradient20"><stop
         style="stop-color:#c73d3d;stop-opacity:1;"
         offset="0"
         id="stop21" /><stop
         style="stop-color:#db8080;stop-opacity:1;"
         offset="0.05"
         id="stop23" /><stop
         style="stop-color:#cc4c4c;stop-opacity:1;"
         offset="0.09"
         id="stop24" /><stop
         style="stop-color:#cc4c4c;stop-opacity:1;"
         offset="0.91000003"
         id="stop25" /><stop
         style="stop-color:#db8080;stop-opacity:1;"
         offset="0.94999999"
         id="stop26" /><stop
         style="stop-color:#c73d3d;stop-opacity:1;"
         offset="1"
         id="stop22" /></linearGradient><linearGradient
       id="linearGradient15"><stop
         style="stop-color:#972a2a;stop-opacity:1;"
         offset="0"
         id="stop15" /><stop
         style="stop-color:#db8080;stop-opacity:1;"
         offset="0.05"
         id="stop17" /><stop
         style="stop-color:#bf3636;stop-opacity:1;"
         offset="0.09"
         id="stop18" /><stop
         style="stop-color:#bf3636;stop-opacity:1;"
         offset="0.91000003"
         id="stop19" /><stop
         style="stop-color:#db8080;stop-opacity:1;"
         offset="0.94999999"
         id="stop20" /><stop
         style="stop-color:#972a2a;stop-opacity:1;"
         offset="1"
         id="stop16" /></linearGradient><mask
       maskUnits="userSpaceOnUse"
       id="mask2"><g
         id="g4"
         transform="translate(8,-3)"><g
           filter="url(#a)"
           id="g3"
           transform="translate(-8,3)"><rect
             fill-opacity="0.1"
             height="128"
             width="128"
             id="rect3"
             x="0"
             y="0" /></g></g></mask><linearGradient
       xlink:href="#linearGradient15"
       id="linearGradient16"
       x1="20"
       y1="64"
       x2="108"
       y2="64"
       gradientUnits="userSpaceOnUse" /><linearGradient
       xlink:href="#linearGradient20"
       id="linearGradient22"
       x1="17"
       y1="39"
       x2="111"
       y2="39"
       gradientUnits="userSpaceOnUse" /><linearGradient
       id="c-2"
       gradientUnits="userSpaceOnUse"
       x1="203.99998"
       x2="268"
       y1="-64"
       y2="-64"
       gradientTransform="matrix(0,0.40983607,-0.40983607,0,-71.51429,-38.611082)"><stop
         offset="0"
         stop-color="#d5d3cf"
         id="stop3927-9"
         style="stop-color:#858dad;stop-opacity:1;" /><stop
         offset="1"
         stop-color="#f6f5f4"
         id="stop3929-1"
         style="stop-color:#e1e2ea;stop-opacity:1;" /></linearGradient><radialGradient
       id="b-2"
       cx="-243.06659"
       cy="-74.599976"
       gradientUnits="userSpaceOnUse"
       r="28.266657"
       gradientTransform="matrix(0,-0.44778386,-0.45537342,0,-57.992785,144.93609)"><stop
         offset="0"
         stop-color="#d5d3cf"
         id="stop3922-7"
         style="stop-color:#e1e3ea;stop-opacity:1;" /><stop
         offset="1"
         stop-color="#949390"
         id="stop3924-0"
         style="stop-color:#868cac;stop-opacity:1;" /></radialGradient><linearGradient
       id="a-9"
       gradientUnits="userSpaceOnUse"
       x1="64"
       x2="64"
       y1="262.5"
       y2="232"
       gradientTransform="matrix(0.40983607,0,0,0.40983607,-71.514294,-38.611081)"><stop
         offset="0"
         stop-color="#9a9996"
         id="stop3917-3"
         style="stop-color:#a5aac2;stop-opacity:1;" /><stop
         offset="1"
         stop-color="#77767b"
         id="stop3919-6"
         style="stop-color:#676f98;stop-opacity:1;" /></linearGradient><linearGradient
       xlink:href="#a-9"
       id="linearGradient12776"
       gradientUnits="userSpaceOnUse"
       gradientTransform="matrix(0.45537342,0,0,0.44778386,-57.992785,144.93609)"
       x1="64"
       y1="262.5"
       x2="64"
       y2="232" /><linearGradient
       xlink:href="#c-2"
       id="linearGradient12778"
       gradientUnits="userSpaceOnUse"
       gradientTransform="matrix(0,0.44778386,-0.45537342,0,-57.99278,144.93609)"
       x1="203.99998"
       y1="-64"
       x2="268"
       y2="-64" /></defs><filter
     id="a"
     height="1"
     width="1"
     x="0"
     y="0"><feColorMatrix
       in="SourceGraphic"
       type="matrix"
       values="0 0 0 0 1 0 0 0 0 1 0 0 0 0 1 0 0 0 1 0"
       id="feColorMatrix1" /></filter><path
     id="path2"
     d="M 27.996096,8 C 23.564665,8 20,11.566406 20,16 v 96 c 0,4.43359 3.564665,8 7.996096,8 H 99.960955 C 104.39238,120 108,116.41016 108,111.97656 V 37.921875 37.917969 15.921875 C 108,11.488281 104.39238,8 99.960955,8 L 77.975597,8.0039062 77.971693,8 Z"
     style="stroke-width:0.999756;fill:url(#linearGradient16);fill-opacity:1;stroke:none" /><path
     d="m 25.54331,16 h 76.91338 C 107.17634,16 111,19.16936 111,23.078108 V 54.921892 C 111,58.830641 107.17634,62 102.45669,62 H 25.54331 C 20.82366,62 17,58.830641 17,54.921892 V 23.078108 C 17,19.16936 20.82366,16 25.54331,16 Z m 0,0"
     fill="#cdab8f"
     id="path16"
     style="stroke-width:0.995887;fill:url(#linearGradient22);fill-opacity:1" /><path
     d="m 25.54331,8 h 76.91338 C 107.17634,8 111,11.16936 111,15.078108 V 46.921892 C 111,50.830641 107.17634,54 102.45669,54 H 25.54331 C 20.82366,54 17,50.830641 17,46.921892 V 15.078108 C 17,11.16936 20.82366,8 25.54331,8 Z m 0,0"
     fill="#cdab8f"
     id="path14"
     style="stroke-width:0.995887;fill:#d56c6c;fill-opacity:1" /><g
     id="g1"
     transform="matrix(0.87815796,0,0,0.87815796,122.84483,-124.47109)"><path
       d="m -27.482766,276.58454 h -2.73224 L -31.125753,269.42 h 4.553734 z m 0,0"
       fill="#9a9996"
       stroke="#9a9996"
       stroke-linecap="round"
       stroke-linejoin="round"
       id="path3932-6"
       style="fill:#676f98;fill-opacity:1;stroke:#676f98;stroke-width:3.61251;stroke-opacity:1" /><path
       d="m -30.215006,226.43275 h 2.73224 l 0.910747,7.16454 h -4.553734 z m 0,0"
       fill="#9a9996"
       stroke="#9a9996"
       stroke-linecap="round"
       stroke-linejoin="round"
       id="path3934-2"
       style="fill:#0a0b0f;fill-opacity:1;stroke:#676f98;stroke-width:3.61251;stroke-opacity:1" /><path
       d="m -54.349798,252.852 v -2.6867 l 7.285976,-0.89557 v 4.47784 z m 0,0"
       fill="#9a9996"
       stroke="#9a9996"
       stroke-linecap="round"
       stroke-linejoin="round"
       id="path3936-6"
       style="fill:#676f98;fill-opacity:1;stroke:#676f98;stroke-width:3.61251;stroke-opacity:1" /><path
       d="m -3.347976,250.1653 v 2.6867 l -7.285974,0.89557 v -4.47784 z m 0,0"
       fill="#9a9996"
       stroke="#9a9996"
       stroke-linecap="round"
       stroke-linejoin="round"
       id="path3938-1"
       style="fill:#676f98;fill-opacity:1;stroke:#676f98;stroke-width:3.61251;stroke-opacity:1" /><path
       d="m -51.61578,240.13378 1.36612,-2.32638 6.76478,2.80565 -2.276862,3.87788 z m 0,0"
       fill="#9a9996"
       stroke="#9a9996"
       stroke-linecap="round"
       stroke-linejoin="round"
       id="path3940-8"
       style="fill:#676f98;fill-opacity:1;stroke:#676f98;stroke-width:3.61251;stroke-opacity:1" /><path
       d="m -6.082001,262.88331 -1.36612,2.32637 -6.764787,-2.80564 2.276829,-3.87965 z m 0,0"
       fill="#9a9996"
       stroke="#9a9996"
       stroke-linecap="round"
       stroke-linejoin="round"
       id="path3942-7"
       style="fill:#676f98;fill-opacity:1;stroke:#676f98;stroke-width:3.61251;stroke-opacity:1" /><path
       d="m -42.782175,230.46459 2.365809,-1.34335 4.432777,5.75647 -3.945406,2.23889 z m 0,0"
       fill="#9a9996"
       stroke="#9a9996"
       stroke-linecap="round"
       stroke-linejoin="round"
       id="path3944-9"
       style="fill:#676f98;fill-opacity:1;stroke:#676f98;stroke-width:3.61251;stroke-opacity:1" /><path
       d="m -14.915446,272.55277 -2.365809,1.34336 -4.432776,-5.75647 3.945406,-2.23889 z m 0,0"
       fill="#9a9996"
       stroke="#9a9996"
       stroke-linecap="round"
       stroke-linejoin="round"
       id="path3946-2"
       style="fill:#676f98;fill-opacity:1;stroke:#676f98;stroke-width:3.61251;stroke-opacity:1" /><path
       d="m -40.416661,273.89621 -2.365809,-1.34335 2.853203,-6.65204 3.945406,2.23888 z m 0,0"
       fill="#9a9996"
       stroke="#9a9996"
       stroke-linecap="round"
       stroke-linejoin="round"
       id="path3948-0"
       style="fill:#676f98;fill-opacity:1;stroke:#676f98;stroke-width:3.61251;stroke-opacity:1" /><path
       d="m -17.281549,229.12133 2.36581,1.34335 -2.8532,6.65203 -3.945406,-2.23888 z m 0,0"
       fill="#9a9996"
       stroke="#9a9996"
       stroke-linecap="round"
       stroke-linejoin="round"
       id="path3950-2"
       style="fill:#676f98;fill-opacity:1;stroke:#676f98;stroke-width:3.61251;stroke-opacity:1" /><path
       d="m -50.249683,265.20974 -1.36612,-2.32638 5.854037,-4.3589 2.276829,3.87965 z m 0,0"
       fill="#9a9996"
       stroke="#9a9996"
       stroke-linecap="round"
       stroke-linejoin="round"
       id="path3952-3"
       style="fill:#676f98;fill-opacity:1;stroke:#676f98;stroke-width:3.61251;stroke-opacity:1" /><path
       d="m -7.448144,237.80745 1.366115,2.32638 -5.854034,4.35715 -2.276867,-3.87788 z m 0,0"
       fill="#9a9996"
       stroke="#9a9996"
       stroke-linecap="round"
       stroke-linejoin="round"
       id="path3954-7"
       style="fill:#676f98;fill-opacity:1;stroke:#676f98;stroke-width:3.61251;stroke-opacity:1" /><path
       d="m -27.482766,275.68897 h -2.73224 l -0.910747,-7.16454 h 4.553734 z m 0,0"
       fill="#f6f5f4"
       stroke="#f6f5f4"
       stroke-linecap="round"
       stroke-linejoin="round"
       id="path3956-5"
       style="fill:#a5aac2;fill-opacity:1;stroke:#a5aac2;stroke-width:3.61251;stroke-opacity:1" /><path
       d="m -30.215006,225.53718 h 2.73224 l 0.910747,7.16454 h -4.553734 z m 0,0"
       fill="#f6f5f4"
       stroke="#f6f5f4"
       stroke-linecap="round"
       stroke-linejoin="round"
       id="path3958-9"
       style="fill:#a5aac2;fill-opacity:1;stroke:#a5aac2;stroke-width:3.61251;stroke-opacity:1" /><path
       d="m -54.349798,251.95643 v -2.68671 l 7.285976,-0.89557 v 4.47784 z m 0,0"
       fill="#f6f5f4"
       stroke="#f6f5f4"
       stroke-linecap="round"
       stroke-linejoin="round"
       id="path3960-2"
       style="fill:#a5aac2;fill-opacity:1;stroke:#a5aac2;stroke-width:3.61251;stroke-opacity:1" /><path
       d="m -3.347976,249.26972 v 2.68671 l -7.285974,0.89556 v -4.47784 z m 0,0"
       fill="#f6f5f4"
       stroke="#f6f5f4"
       stroke-linecap="round"
       stroke-linejoin="round"
       id="path3962-2"
       style="fill:#a5aac2;fill-opacity:1;stroke:#a5aac2;stroke-width:3.61251;stroke-opacity:1" /><path
       d="m -51.61578,239.23821 1.36612,-2.32637 6.76478,2.80565 -2.276862,3.87787 z m 0,0"
       fill="#f6f5f4"
       stroke="#f6f5f4"
       stroke-linecap="round"
       stroke-linejoin="round"
       id="path3964-8"
       style="fill:#a5aac2;fill-opacity:1;stroke:#a5aac2;stroke-width:3.61251;stroke-opacity:1" /><path
       d="m -6.082001,261.98774 -1.36612,2.32638 -6.764787,-2.80565 2.276829,-3.87965 z m 0,0"
       fill="#f6f5f4"
       stroke="#f6f5f4"
       stroke-linecap="round"
       stroke-linejoin="round"
       id="path3966-9"
       style="fill:#a5aac2;fill-opacity:1;stroke:#a5aac2;stroke-width:3.61251;stroke-opacity:1" /><path
       d="m -42.782186,229.56903 2.365809,-1.34335 4.432777,5.75647 -3.945406,2.23888 z m 0,0"
       fill="#f6f5f4"
       stroke="#f6f5f4"
       stroke-linecap="round"
       stroke-linejoin="round"
       id="path3968-7"
       style="fill:#a5aac2;fill-opacity:1;stroke:#a5aac2;stroke-width:3.61251;stroke-opacity:1" /><path
       d="m -14.915457,271.65721 -2.365809,1.34335 -4.432776,-5.75647 3.945405,-2.23888 z m 0,0"
       fill="#f6f5f4"
       stroke="#f6f5f4"
       stroke-linecap="round"
       stroke-linejoin="round"
       id="path3970-3"
       style="fill:#a5aac2;fill-opacity:1;stroke:#a5aac2;stroke-width:3.61251;stroke-opacity:1" /><path
       d="m -40.416661,273.00063 -2.365809,-1.34335 2.853203,-6.65204 3.945406,2.23888 z m 0,0"
       fill="#f6f5f4"
       stroke="#f6f5f4"
       stroke-linecap="round"
       stroke-linejoin="round"
       id="path3972-6"
       style="fill:#a5aac2;fill-opacity:1;stroke:#a5aac2;stroke-width:3.61251;stroke-opacity:1" /><path
       d="m -17.281549,228.22575 2.36581,1.34335 -2.8532,6.65204 -3.945406,-2.23888 z m 0,0"
       fill="#f6f5f4"
       stroke="#f6f5f4"
       stroke-linecap="round"
       stroke-linejoin="round"
       id="path3974-1"
       style="fill:#a5aac2;fill-opacity:1;stroke:#a5aac2;stroke-width:3.61251;stroke-opacity:1" /><path
       d="m -50.249683,264.31417 -1.36612,-2.32638 5.854037,-4.35889 2.276829,3.87964 z m 0,0"
       fill="#f6f5f4"
       stroke="#f6f5f4"
       stroke-linecap="round"
       stroke-linejoin="round"
       id="path3976-2"
       style="fill:#a5aac2;fill-opacity:1;stroke:#a5aac2;stroke-width:3.61251;stroke-opacity:1" /><path
       d="m -7.448144,236.91189 1.366115,2.32638 -5.854034,4.35714 -2.276867,-3.87787 z m 0,0"
       fill="#f6f5f4"
       stroke="#f6f5f4"
       stroke-linecap="round"
       stroke-linejoin="round"
       id="path3978-9"
       style="fill:#a5aac2;fill-opacity:1;stroke:#a5aac2;stroke-width:3.61251;stroke-opacity:1" /><path
       d="m -12.455443,251.50864 c 0,8.90321 -7.339341,16.12022 -16.393443,16.12022 -9.054103,0 -16.393443,-7.21701 -16.393443,-16.12022 0,-8.9032 7.33934,-16.12021 16.393443,-16.12021 9.054102,0 16.393443,7.21701 16.393443,16.12021 z m 0,0"
       fill="none"
       stroke="url(#a)"
       stroke-width="10.8375"
       id="path3982-3"
       style="stroke:url(#linearGradient12776)" /><path
       d="m -11.544696,250.61308 c 0,9.39821 -7.746685,17.01578 -17.30419,17.01578 -9.557504,0 -17.30419,-7.61757 -17.30419,-17.01578 0,-9.39822 7.746686,-17.01579 17.30419,-17.01579 9.557505,0 17.30419,7.61757 17.30419,17.01579 z m 0,0"
       fill="none"
       stroke="#f6f5f4"
       stroke-width="9.03125"
       id="path3984-1"
       style="stroke:#a5aac2;stroke-opacity:1" /><path
       d="m -28.848886,238.7468 c -6.665174,0 -12.067395,5.31219 -12.067395,11.86628 0,6.55408 5.402221,11.86627 12.067395,11.86627 6.665173,0 12.067396,-5.31219 12.067396,-11.86627 0,-6.55409 -5.402223,-11.86628 -12.067396,-11.86628 z m 0,0"
       fill="none"
       stroke="url(#b)"
       stroke-linecap="square"
       stroke-linejoin="round"
       stroke-width="2.25782"
       id="path3986-9"
       style="stroke:url(#b-2)" /><path
       d="m -28.848886,264.94216 c -8.0473,0 -14.57195,-6.41591 -14.57195,-14.32908 0,-7.91319 6.52465,-14.32909 14.57195,-14.32909 8.047305,0 14.57195,6.4159 14.57195,14.32909 0,7.91317 -6.524645,14.32908 -14.57195,14.32908 z m 0,0"
       fill="none"
       stroke="url(#c)"
       stroke-linecap="square"
       stroke-linejoin="round"
       stroke-width="3.61251"
       id="path3988-4"
       style="stroke:url(#linearGradient12778)" /></g><path
     d="m 64,30 v 2 h -4 v 4 h 4 v -2 h 4 v -4 z m 0,6 v 2 h -4 v 4 h 4 v -2 h 4 v -4 z m 0,6 v 2 h -4 v 4 h 4 v -2 h 4 v -4 z m 0,6 v 2 h -4 v 4 h 4 v -2 h 4 v -4 z m 0,6 v 2 h -4 v 4 h 4 v -2 h 4 v -4 z m 0,6 H 67.9891 68 v 2 h -4"
     fill="#ffffff"
     id="path4"
     style="fill:#e19393;fill-opacity:1" /><path
     d="m 64,32 v 2 h -4 v 4 h 4 v -2 h 4 v -4 z m 0,6 v 2 h -4 v 4 h 4 v -2 h 4 v -4 z m 0,6 v 2 h -4 v 4 h 4 v -2 h 4 v -4 z m 0,6 v 2 h -4 v 4 h 4 v -2 h 4 v -4 z m 0,6 v 2 h -4 v 4 h 4 v -2 h 4 v -4 z"
     fill="#c0bfbc"
     id="path6"
     style="fill:#832525;fill-opacity:1" /><path
     d="m 68,67 c -2.214844,0 -4,1.785156 -4,4 v 10 c 0,2.214844 1.785156,4 4,4 v 8 c 0,1.109375 0.890625,2 2,2 h 4 c 1.109375,0 2,-0.890625 2,-2 v -8 c 2.214844,0 4,-1.785156 4,-4 V 71 c 0,-2.214844 -1.785156,-4 -4,-4 z m 2,22 h 4 v 4 h -4 z m 0,0"
     id="path5"
     transform="translate(-8,-55)"
     mask="url(#mask2)" /><path
     d="m 62,18 c -1.109375,0 -2,0.890625 -2,2 v 16 c 0,1.109375 0.890625,2 2,2 h 4 c 1.109375,0 2,-0.890625 2,-2 V 20 c 0,-1.109375 -0.890625,-2 -2,-2 z m 0,14 h 4 v 4 h -4 z m 0,0"
     fill="#77767b"
     id="path7"
     style="fill:#972b2b;fill-opacity:1" /><path
     d="M 58.503906,10 H 69.496094 C 70.878906,10 72,11.121094 72,12.503906 V 25.496094 C 72,26.878906 70.878906,28 69.496094,28 H 58.503906 C 57.121094,28 56,26.878906 56,25.496094 V 12.503906 C 56,11.121094 57.121094,10 58.503906,10 Z m 0,0"
     fill="#77767b"
     id="path8"
     style="fill:#972b2b;fill-opacity:1" /><path
     d="M 58.945312,8 H 69.054688 C 70.683594,8 72,9.316406 72,10.945312 V 23.054688 C 72,24.683594 70.683594,26 69.054688,26 H 58.945312 C 57.316406,26 56,24.683594 56,23.054688 V 10.945312 C 56,9.316406 57.316406,8 58.945312,8 Z m 0,0"
     fill="#9a9996"
     id="path9"
     style="fill:#ab3030;fill-opacity:1" /><path
     d="m 62,14 c -1.109375,0 -2,0.890625 -2,2 v 18 c 0,1.109375 0.890625,2 2,2 h 4 c 1.109375,0 2,-0.890625 2,-2 V 16 c 0,-1.109375 -0.890625,-2 -2,-2 z m 0,16 h 4 v 4 h -4 z m 0,0"
     fill="#ffffff"
     id="path10" /><path
     d="m 64,20 c 1.105469,0 2,-0.894531 2,-2 v -6 c 0,-1.105469 -0.894531,-2 -2,-2 -1.105469,0 -2,0.894531 -2,2 v 6 c 0,1.105469 0.894531,2 2,2 z m 0,0"
     fill="#77767b"
     id="path11"
     style="fill:#972b2b;fill-opacity:1" /><path
     d="m 64,18 c 1.105469,0 2,-0.894531 2,-2 v -4 c 0,-1.105469 -0.894531,-2 -2,-2 -1.105469,0 -2,0.894531 -2,2 v 4 c 0,1.105469 0.894531,2 2,2 z m 0,0"
     fill="#9a9996"
     id="path12"
     style="fill:#bf3636;fill-opacity:1" /><rect
     style="fill:#0b0705;fill-opacity:0.2;stroke:none"
     id="rect1"
     width="8"
     height="8"
     x="60"
     y="54" /></svg>
