<?xml version="1.0" encoding="UTF-8" standalone="no"?>
<svg
   width="128"
   height="128"
   version="1.1"
   id="svg8"
   xml:space="preserve"
   xmlns="http://www.w3.org/2000/svg"
   xmlns:svg="http://www.w3.org/2000/svg"><defs
     id="defs4"><linearGradient
       id="a-1-1"
       gradientUnits="userSpaceOnUse"
       x1="0"
       y1="269.46301"
       x2="118.926"
       y2="269.46301"
       gradientTransform="translate(-66,-360)"><stop
         offset="0"
         stop-color="#e5a50a"
         id="stop1-9-0" /><stop
         offset=".414"
         stop-color="#fbdf9b"
         id="stop2-4-6" /><stop
         offset=".813"
         stop-color="#e5a50a"
         id="stop3-7-3" /><stop
         offset="1"
         stop-color="#f8ca5b"
         id="stop4-8-2" /></linearGradient></defs><g
     id="g1"
     transform="translate(66,187)"><path
       d="m 58,-122 c 0,33.136999 -26.863,60 -60,60 -33.137,0 -60,-26.863001 -60,-60 0,-33.137 26.863,-60 60,-60 33.137,0 60,26.863 60,60 z m 0,0"
       fill="url(#a)"
       id="path4-4-1"
       style="fill:url(#a-1-1)" /><path
       d="m 58,-125 c 0,32.585999 -26.863,59 -60,59 -33.137,0 -60,-26.414001 -60,-59 0,-32.586 26.863,-59 60,-59 33.137,0 60,26.414 60,59 z m 0,0"
       fill="#f8e45c"
       id="path5-5-5" /></g><path
     d="m 63.97861,28.000938 c -1.329849,0.01873 -2.378742,1.105081 -2.360013,2.43493 v 7.342256 l -5.993679,-3.427636 c -0.749209,-0.468274 -1.704453,-0.505713 -2.472392,-0.0562 -0.767939,0.430778 -1.236199,1.236194 -1.217465,2.135246 0.0187,0.880322 0.524447,1.66699 1.292386,2.079058 l 8.39115,4.794943 v 16.538802 l -14.328637,-8.278765 0.0374,-9.646078 c 0.0562,-0.899052 -0.374629,-1.741911 -1.142544,-2.210166 -0.767939,-0.468274 -1.723182,-0.468274 -2.491121,0 -0.74921,0.449525 -1.198736,1.292385 -1.142544,2.191437 l -0.0374,6.911459 -6.368284,-3.671128 c -0.56191,-0.337132 -1.217464,-0.430777 -1.854295,-0.262235 -0.618097,0.16859 -1.161273,0.580634 -1.460957,1.142544 v 0.0187 c -0.65556,1.161258 -0.243487,2.622215 0.917781,3.259046 l 6.368283,3.671128 -5.974949,3.483823 c -0.786668,0.412077 -1.292386,1.21747 -1.311115,2.097787 -0.0187,0.880323 0.468274,1.704454 1.254923,2.135251 0.767944,0.430777 1.723187,0.393329 2.472397,-0.09364 l 8.334953,-4.869797 14.328636,8.278766 -14.328636,8.260037 -8.334958,-4.85113 c -0.74921,-0.486989 -1.704453,-0.524452 -2.472397,-0.09365 -0.786668,0.430777 -1.273652,1.254927 -1.254923,2.13525 0.0187,0.880318 0.524447,1.68572 1.311115,2.097787 l 5.974949,3.483824 -6.368283,3.671128 c -0.56191,0.318432 -0.973973,0.842864 -1.142544,1.47969 -0.16859,0.618097 -0.07494,1.292386 0.262236,1.835562 v 0.0187 c 0.674289,1.142577 2.13525,1.498453 3.277794,0.824164 l 6.368283,-3.671128 0.0374,6.911463 c -0.0562,0.89905 0.393329,1.74191 1.142543,2.19144 0.767939,0.46827 1.723183,0.46827 2.491122,0 0.767939,-0.46828 1.198736,-1.31112 1.142544,-2.21017 l -0.0374,-9.664809 14.328627,-8.260046 v 16.782305 l -8.372421,4.73875 c -1.161273,0.63682 -1.554607,2.09779 -0.917781,3.25906 0.65556,1.16128 2.116517,1.55461 3.277794,0.91778 l 6.012408,-3.4089 v 7.11749 c -0.0187,0.86159 0.449526,1.66699 1.180006,2.09779 0.74921,0.449524 1.68572,0.449524 2.43493,0 0.730481,-0.43078 1.198736,-1.2362 1.180006,-2.09779 v -7.11749 l 6.012408,3.4089 c 1.161278,0.63683 2.622234,0.24349 3.277794,-0.91778 0.636826,-1.16127 0.243487,-2.62224 -0.917781,-3.25906 l -8.372421,-4.73875 V 68.158584 l 14.534671,8.391149 -0.09365,9.627343 c -0.0187,0.86159 0.412078,1.68572 1.161273,2.13525 0.74921,0.44952 1.685725,0.46827 2.453664,0.0187 0.749209,-0.43078 1.217465,-1.25493 1.180007,-2.11652 l 0.07494,-6.911464 6.162249,3.558749 c 1.142544,0.655555 2.622234,0.262236 3.277794,-0.880322 0.655555,-1.142544 0.262236,-2.622235 -0.880323,-3.277795 l -6.162278,-3.55871 5.956216,-3.502557 c 1.086361,-0.693018 1.423503,-2.135246 0.767948,-3.240331 -0.655559,-1.105086 -2.079058,-1.49842 -3.202873,-0.880323 l -8.2975,4.869864 -14.53467,-8.39115 14.53467,-8.39115 8.2975,4.888593 c 0.730476,0.468274 1.666991,0.486989 2.43493,0.07494 0.767943,-0.430778 1.254927,-1.236194 1.254927,-2.116517 -0.0187,-0.880322 -0.486984,-1.685719 -1.273656,-2.097787 l -5.937487,-3.502557 6.16225,-3.558744 c 1.142543,-0.655555 1.535877,-2.135246 0.880322,-3.277789 -0.655559,-1.142544 -2.13525,-1.535878 -3.277794,-0.880323 l -6.162249,3.558749 -0.07494,-6.911459 c 0.0374,-0.861594 -0.430778,-1.685725 -1.180007,-2.116522 -0.767939,-0.449526 -1.704454,-0.430777 -2.453664,0.0187 -0.749209,0.449525 -1.180006,1.273651 -1.161272,2.153974 l 0.09369,9.6086 -14.53467,8.39115 V 43.303523 l 8.37242,-4.794942 c 0.786668,-0.39333 1.292386,-1.198736 1.311115,-2.079059 0.0187,-0.899052 -0.449526,-1.704453 -1.217465,-2.135245 -0.767938,-0.449526 -1.723182,-0.412078 -2.472392,0.0562 l -5.993698,3.427651 v -7.342256 c 0.0187,-0.65556 -0.243487,-1.273657 -0.693017,-1.741912 -0.468274,-0.449526 -1.086357,-0.711752 -1.741912,-0.693018 z m 0,0"
     fill="#222222"
     id="path1-2"
     style="fill:#3d3846;fill-opacity:1;stroke-width:4.79494" /></svg>
