<?xml version="1.0" encoding="UTF-8" standalone="no"?>
<svg
   width="128"
   height="128"
   version="1.1"
   id="svg8"
   xml:space="preserve"
   xmlns="http://www.w3.org/2000/svg"
   xmlns:svg="http://www.w3.org/2000/svg"><defs
     id="defs4"><linearGradient
       id="a-1"
       gradientUnits="userSpaceOnUse"
       x1="0"
       y1="269.463"
       x2="118.926"
       y2="269.463"
       gradientTransform="translate(0,-173)"><stop
         offset="0"
         stop-color="#e5a50a"
         id="stop1-9"
         style="stop-color:#c01118;stop-opacity:1;" /><stop
         offset="0.414"
         stop-color="#fbdf9b"
         id="stop2-4"
         style="stop-color:#f3777c;stop-opacity:1;" /><stop
         offset="0.81300002"
         stop-color="#e5a50a"
         id="stop3-7"
         style="stop-color:#c01118;stop-opacity:1;" /><stop
         offset="1"
         stop-color="#f8ca5b"
         id="stop4-8"
         style="stop-color:#f16066;stop-opacity:1;" /></linearGradient></defs><path
     d="M 124,64.999999 C 124,98.136999 97.137,125 64,125 30.863,125 4,98.136999 4,64.999999 4,31.862999 30.863,4.9999983 64,4.9999983 c 33.137,0 60,26.8630007 60,60.0000007 z m 0,0"
     fill="url(#a)"
     id="path4-4"
     style="fill:url(#a-1)" /><path
     d="M 124,61.999999 C 124,94.585999 97.137,121 64,121 30.863,121 4,94.585999 4,61.999999 4,29.413999 30.863,2.9999983 64,2.9999983 c 33.137,0 60,26.4140007 60,59.0000007 z m 0,0"
     fill="#f8e45c"
     id="path5-5"
     style="fill:#ed333b;fill-opacity:1" /><path
     d="m 64.002245,25.999997 c -2.64374,0 -4.8,2.156251 -4.8,4.8 v 24 c 0,2.643749 2.15626,4.8 4.8,4.8 2.64374,0 4.8,-2.156251 4.8,-4.8 v -24 c 0,-2.643749 -2.15626,-4.8 -4.8,-4.8 z m -15.05626,8.718749 c -0.61876,0.07502 -1.21876,0.281232 -1.76251,0.6 -13.12497,7.593753 -19.55625,23.118749 -15.63749,37.781251 3.93749,14.64375 17.25,24.88125 32.4,24.9 15.16877,0 28.51877,-10.18125 32.47498,-24.80625 3.975025,-14.64375 -2.4,-30.187499 -15.50621,-37.81875 -2.28753,-1.35 -5.23128,-0.581251 -6.56251,1.725 -0.63749,1.087498 -0.82502,2.4 -0.50626,3.637498 0.33744,1.237502 1.12498,2.287502 2.23124,2.925004 9.39374,5.474996 13.93128,16.518749 11.1,27.018749 -2.85,10.481249 -12.33749,17.737499 -23.19375,17.718749 -10.87497,0 -20.34374,-7.29375 -23.15625,-17.793749 -2.81247,-10.5 1.74374,-21.543749 11.15625,-26.981251 2.28749,-1.331251 3.07503,-4.256251 1.74375,-6.543749 -0.63749,-1.106251 -1.66872,-1.912502 -2.90626,-2.231251 -0.6,-0.168768 -1.23749,-0.206256 -1.87498,-0.131232 z m 0,0"
     fill="#2e3436"
     id="path1-6"
     style="fill:#ffffff;stroke-width:4.8" /></svg>
