<?xml version="1.0" encoding="UTF-8" standalone="no"?>
<svg
   width="128"
   height="128"
   version="1.1"
   id="svg8"
   xml:space="preserve"
   xmlns="http://www.w3.org/2000/svg"
   xmlns:svg="http://www.w3.org/2000/svg"><defs
     id="defs4"><linearGradient
       id="a-1"
       gradientUnits="userSpaceOnUse"
       x1="0"
       y1="269.463"
       x2="118.926"
       y2="269.463"
       gradientTransform="translate(0,-173)"><stop
         offset="0"
         stop-color="#e5a50a"
         id="stop1-9"
         style="stop-color:#e07000;stop-opacity:1;" /><stop
         offset="0.414"
         stop-color="#fbdf9b"
         id="stop2-4"
         style="stop-color:#ffc994;stop-opacity:1;" /><stop
         offset="0.81300002"
         stop-color="#e5a50a"
         id="stop3-7"
         style="stop-color:#e07100;stop-opacity:1;" /><stop
         offset="1"
         stop-color="#f8ca5b"
         id="stop4-8"
         style="stop-color:#ffbc7a;stop-opacity:1;" /></linearGradient></defs><path
     d="M 124,64.999999 C 124,98.136999 97.137,125 64,125 30.863,125 4,98.136999 4,64.999999 4,31.862999 30.863,4.9999983 64,4.9999983 c 33.137,0 60,26.8630007 60,60.0000007 z m 0,0"
     fill="url(#a)"
     id="path4-4"
     style="fill:url(#a-1)" /><path
     d="M 124,61.999999 C 124,94.585999 97.137,121 64,121 30.863,121 4,94.585999 4,61.999999 4,29.413999 30.863,2.9999983 64,2.9999983 c 33.137,0 60,26.4140007 60,59.0000007 z m 0,0"
     fill="#f8e45c"
     id="path5-5"
     style="fill:#ffa348;fill-opacity:1" /><path
     d="m 64.003729,26.000003 c -2.64374,0 -4.8,2.15625 -4.8,4.799997 v 23.999985 c 0,2.643748 2.15626,4.799998 4.8,4.799998 2.64374,0 4.8,-2.15625 4.8,-4.799998 V 30.8 c 0,-2.643747 -2.15626,-4.799997 -4.8,-4.799997 z M 30.403749,30.8 l 9.84374,9.843743 c -10.16251,10.162496 -12.73123,25.70623 -6.39374,38.58748 6.35625,12.88124 20.23122,20.343727 34.46249,18.487478 14.24999,-1.85624 25.76245,-12.599988 28.61244,-26.662478 2.85,-14.08124 -3.59999,-28.462482 -16.01245,-35.681226 -2.28753,-1.349999 -5.23128,-0.562497 -6.56251,1.724999 -1.33123,2.287496 -0.56251,5.231248 1.72498,6.562498 8.88753,5.174992 13.48127,15.393739 11.43753,25.499989 -2.02503,10.08749 -10.21877,17.71873 -20.41876,19.04998 -10.21876,1.3125 -20.08122,-3.975 -24.61875,-13.21874 -4.53749,-9.24374 -2.71872,-20.287487 4.55625,-27.562482 l 7.36876,7.368744 V 35.581248 c 0,-2.493752 -2.15625,-4.781248 -4.79999,-4.781248 z m 0,0"
     fill="#2e3436"
     id="path1"
     style="fill:#ffffff;fill-opacity:1;stroke-width:4.8" /></svg>
