<?xml version="1.0" encoding="UTF-8" standalone="no"?>
<svg
   width="128"
   height="128"
   version="1.1"
   id="svg8"
   xml:space="preserve"
   xmlns="http://www.w3.org/2000/svg"
   xmlns:svg="http://www.w3.org/2000/svg"><defs
     id="defs4"><linearGradient
       id="a"
       gradientUnits="userSpaceOnUse"
       x1="0"
       y1="269.463"
       x2="118.926"
       y2="269.463"
       gradientTransform="translate(0 -172)"><stop
         offset="0"
         stop-color="#e5a50a"
         id="stop1"
         style="stop-color:#1a6f48;stop-opacity:1;" /><stop
         offset="0.414"
         stop-color="#fbdf9b"
         id="stop2"
         style="stop-color:#77dfae;stop-opacity:1;" /><stop
         offset="0.81300002"
         stop-color="#e5a50a"
         id="stop3"
         style="stop-color:#1a7048;stop-opacity:1;" /><stop
         offset="1"
         stop-color="#f8ca5b"
         id="stop4"
         style="stop-color:#4ed596;stop-opacity:1;" /></linearGradient></defs><path
     d="M124 66c0 33.137-26.863 60-60 60S4 99.137 4 66 30.863 6 64 6s60 26.863 60 60zm0 0"
     fill="url(#a)"
     id="path4" /><path
     d="M124 63c0 32.586-26.863 59-60 59S4 95.586 4 63 30.863 4 64 4s60 26.414 60 59zm0 0"
     fill="#f8e45c"
     id="path5"
     style="fill:#2ec27e;fill-opacity:1" /><g
     fill="#2e3436"
     id="g2"
     transform="matrix(5.1446569,0,0,5.1446569,23.182192,21.859977)"
     style="fill:#ffffff"><path
       d="m 13,5 v 0.00391 c 0.265625,0 0.519531,0.105469 0.707031,0.289063 l 2,2 c 0.390625,0.390625 0.390625,1.023437 0,1.414062 l -2,2 C 13.519531,10.890625 13.265625,10.996094 13,10.992188 V 11 H 12 V 9 H 7 C 6.449219,9 6,8.550781 6,8 6,7.449219 6.449219,7 7,7 h 5 V 5 Z m 0,0"
       id="path1-8"
       style="fill:#ffffff" /><path
       d="M 9.179688,1.097656 C 6.785156,0.691406 4.269531,1.550781 2.632812,3.496094 c -2.175781,2.597656 -2.175781,6.40625 0,9 2.179688,2.597656 5.929688,3.257812 8.863282,1.5625 0.230468,-0.132813 0.398437,-0.351563 0.46875,-0.605469 0.06641,-0.257813 0.03125,-0.53125 -0.101563,-0.761719 -0.277343,-0.476562 -0.886719,-0.640625 -1.367187,-0.363281 -2.105469,1.214844 -4.765625,0.75 -6.328125,-1.117187 -1.5625,-1.863282 -1.5625,-4.5625 0,-6.429688 1.5625,-1.863281 4.222656,-2.332031 6.328125,-1.113281 0.480468,0.273437 1.089844,0.113281 1.367187,-0.367188 0.132813,-0.226562 0.167969,-0.5 0.101563,-0.757812 C 11.894531,2.285156 11.726562,2.066406 11.496094,1.933594 10.765625,1.511719 9.980469,1.234375 9.179688,1.097656 Z m 0,0"
       id="path2"
       style="fill:#ffffff" /></g></svg>
